<svg version="1.1" xmlns="http://www.w3.org/2000/svg" viewBox="0 0 379.0177329142298 83.43862554841485" width="379.0177329142298" height="83.43862554841485">
  <!-- svg-source:excalidraw -->
  
  <defs>
    
    
  </defs>
  <g transform="translate(205.2125267174024 6) rotate(0 31.52606140362559 11.733568745331127)"><text x="31.526061403625636" y="0" font-family="Virgil, Segoe UI Emoji" font-size="18.773709992529795px" fill="#484848" text-anchor="middle" style="white-space: pre;" direction="ltr" dominant-baseline="text-before-edge">Apache</text></g><g transform="translate(159.01490601849036 13.280266637425711) rotate(0 107.00141344786971 31.10319972104503)"><text x="107.00141344786991" y="0" font-family="Virgil, Segoe UI Emoji" font-size="49.7651195536721px" fill="#484848" text-anchor="middle" style="white-space: pre;" direction="ltr" dominant-baseline="text-before-edge">Superset</text></g><g stroke-linecap="round"><g transform="translate(74.93533298436978 59.63368975696312) rotate(0 0.4031282685368751 -16.662728394001533)" fill-rule="evenodd"><path d="M-61.94 -37.94 C-61.94 -37.94, -61.94 -37.94, -61.94 -37.94 M-61.94 -37.94 C-61.94 -37.94, -61.94 -37.94, -61.94 -37.94 M-68.37 -18.35 C-62.17 -25.48, -55.98 -32.6, -40.81 -50.05 M-68.37 -18.35 C-57.55 -30.79, -46.74 -43.23, -40.81 -50.05 M-66.92 -7.82 C-58.85 -17.1, -50.78 -26.39, -29.53 -50.84 M-66.92 -7.82 C-55.66 -20.77, -44.41 -33.72, -29.53 -50.84 M-64.16 1.2 C-57.17 -6.85, -50.17 -14.89, -46.45 -19.18 M-64.16 1.2 C-59.98 -3.61, -55.8 -8.42, -46.45 -19.18 M-37.92 -28.99 C-34.38 -33.06, -30.85 -37.13, -20.86 -48.61 M-37.92 -28.99 C-34.38 -33.07, -30.83 -37.14, -20.86 -48.61 M-59.44 7.96 C-56.41 4.47, -53.38 0.98, -45 -8.65 M-59.44 7.96 C-55 2.85, -50.56 -2.25, -45 -8.65 M-52.74 12.45 C-49.83 9.1, -46.92 5.75, -38.97 -3.4 M-52.74 12.45 C-48.39 7.44, -44.03 2.43, -38.97 -3.4 M-45.39 16.19 C-40.05 10.04, -34.71 3.9, -28.34 -3.43 M-45.39 16.19 C-41.73 11.98, -38.07 7.77, -28.34 -3.43 M-36.08 17.67 C-21.8 1.25, -7.53 -15.17, 21 -47.99 M-36.08 17.67 C-13.68 -8.1, 8.72 -33.86, 21 -47.99 M-25.45 17.63 C-11.67 1.79, 2.1 -14.05, 34.26 -51.05 M-25.45 17.63 C-4.1 -6.92, 17.24 -31.48, 34.26 -51.05 M21.92 -24.67 C27.95 -31.6, 33.97 -38.53, 43.57 -49.57 M21.92 -24.67 C29.4 -33.27, 36.88 -41.87, 43.57 -49.57 M36.49 -29.23 C40.58 -33.94, 44.68 -38.65, 51.58 -46.59 M36.49 -29.23 C39.94 -33.2, 43.39 -37.17, 51.58 -46.59 M43.84 -25.49 C47.94 -30.21, 52.04 -34.92, 58.27 -42.09 M43.84 -25.49 C48.54 -30.9, 53.25 -36.31, 58.27 -42.09 M19.7 14.47 C22.97 10.71, 26.25 6.94, 34.13 -2.13 M19.7 14.47 C24.2 9.29, 28.71 4.11, 34.13 -2.13 M47.25 -17.22 C53.61 -24.54, 59.97 -31.85, 63.65 -36.09 M47.25 -17.22 C50.98 -21.51, 54.7 -25.79, 63.65 -36.09 M27.7 17.46 C38.58 4.95, 49.46 -7.56, 67.72 -28.58 M27.7 17.46 C43.11 -0.26, 58.51 -17.98, 67.72 -28.58 M37.68 18.18 C48.7 5.5, 59.72 -7.18, 69.83 -18.8 M37.68 18.18 C50.02 3.98, 62.36 -10.22, 69.83 -18.8 M51.59 14.37 C56.08 9.2, 60.58 4.03, 68.65 -5.25 M51.59 14.37 C55.27 10.14, 58.94 5.91, 68.65 -5.25" stroke="#484848" stroke-width="1" fill="none"></path><path d="M0 0 C-3.17 3, -6.34 5.99, -8.6 8.13 M0 0 C-2.2 2.08, -4.4 4.16, -8.6 8.13 M-8.6 8.13 C-9.79 9.09, -10.99 10.05, -13.1 11.76 M-8.6 8.13 C-9.76 9.07, -10.93 10.01, -13.1 11.76 M-13.1 11.76 C-14.44 12.51, -15.77 13.27, -18.07 14.58 M-13.1 11.76 C-14.91 12.78, -16.72 13.81, -18.07 14.58 M-18.07 14.58 C-19.83 15.19, -21.58 15.8, -22.71 16.19 M-18.07 14.58 C-19.12 14.94, -20.17 15.31, -22.71 16.19 M-22.71 16.19 C-24.87 16.69, -27.03 17.18, -29.16 17.67 M-22.71 16.19 C-24.65 16.64, -26.59 17.08, -29.16 17.67 M-29.16 17.67 C-30.93 17.71, -32.7 17.74, -36.01 17.8 M-29.16 17.67 C-31.61 17.72, -34.06 17.77, -36.01 17.8 M-36.01 17.8 C-38.39 17.44, -40.77 17.07, -42.13 16.86 M-36.01 17.8 C-37.76 17.54, -39.5 17.27, -42.13 16.86 M-42.13 16.86 C-44.24 16.18, -46.36 15.5, -48.58 14.78 M-42.13 16.86 C-43.46 16.43, -44.79 16.01, -48.58 14.78 M-48.58 14.78 C-50.47 13.71, -52.36 12.63, -53.55 11.96 M-48.58 14.78 C-49.97 13.99, -51.36 13.2, -53.55 11.96 M-53.55 11.96 C-55.37 10.66, -57.2 9.37, -58.19 8.67 M-53.55 11.96 C-54.56 11.24, -55.57 10.52, -58.19 8.67 M-58.19 8.67 C-59.16 7.65, -60.13 6.64, -61.48 5.24 M-58.19 8.67 C-59.14 7.68, -60.09 6.69, -61.48 5.24 M-61.48 5.24 C-62.58 3.65, -63.68 2.07, -64.7 0.6 M-61.48 5.24 C-62.22 4.17, -62.96 3.1, -64.7 0.6 M-64.7 0.6 C-65.34 -0.91, -65.99 -2.43, -67.26 -5.44 M-64.7 0.6 C-65.36 -0.95, -66.02 -2.51, -67.26 -5.44 M-67.26 -5.44 C-67.62 -7, -67.98 -8.56, -68.73 -11.76 M-67.26 -5.44 C-67.81 -7.8, -68.36 -10.15, -68.73 -11.76 M-68.73 -11.76 C-68.81 -15.26, -68.89 -18.76, -68.94 -20.56 M-68.73 -11.76 C-68.81 -15.06, -68.88 -18.36, -68.94 -20.56 M-68.94 -20.56 C-68.57 -22.28, -68.2 -23.99, -67.52 -27.14 M-68.94 -20.56 C-68.42 -22.98, -67.9 -25.4, -67.52 -27.14 M-67.52 -27.14 C-66.94 -28.51, -66.35 -29.87, -64.84 -33.39 M-67.52 -27.14 C-66.53 -29.46, -65.53 -31.78, -64.84 -33.39 M-64.84 -33.39 C-63.84 -34.93, -62.85 -36.46, -61.75 -38.16 M-64.84 -33.39 C-64.13 -34.48, -63.42 -35.58, -61.75 -38.16 M-61.75 -38.16 C-60.7 -39.19, -59.66 -40.22, -57.18 -42.66 M-61.75 -38.16 C-60.75 -39.15, -59.75 -40.13, -57.18 -42.66 M-57.18 -42.66 C-55.94 -43.53, -54.7 -44.39, -52.19 -46.14 M-57.18 -42.66 C-55.37 -43.92, -53.56 -45.18, -52.19 -46.14 M-52.19 -46.14 C-50.94 -46.78, -49.69 -47.42, -47.7 -48.44 M-52.19 -46.14 C-51.14 -46.68, -50.09 -47.21, -47.7 -48.44 M-47.7 -48.44 C-46.22 -48.89, -44.74 -49.33, -41.66 -50.26 M-47.7 -48.44 C-46.09 -48.93, -44.47 -49.41, -41.66 -50.26 M-41.66 -50.26 C-40.06 -50.42, -38.47 -50.59, -35.21 -50.93 M-41.66 -50.26 C-39.26 -50.51, -36.86 -50.76, -35.21 -50.93 M-35.21 -50.93 C-32.65 -50.82, -30.1 -50.72, -28.76 -50.66 M-35.21 -50.93 C-33.7 -50.87, -32.19 -50.8, -28.76 -50.66 M-28.76 -50.66 C-26.42 -50.16, -24.08 -49.67, -22.1 -49.25 M-28.76 -50.66 C-26.54 -50.19, -24.33 -49.72, -22.1 -49.25 M-22.1 -49.25 C-20.09 -48.41, -18.08 -47.56, -16.66 -46.96 M-22.1 -49.25 C-20.77 -48.69, -19.43 -48.13, -16.66 -46.96 M-16.66 -46.96 C-16.23 -46.74, -15.8 -46.52, -14.85 -46.02 M-16.66 -46.96 C-16.19 -46.72, -15.72 -46.48, -14.85 -46.02 M-14.85 -46.02 C-19.2 -40.69, -23.55 -35.36, -28.56 -29.23 M-14.85 -46.02 C-18.64 -41.38, -22.44 -36.73, -28.56 -29.23 M-28.56 -29.23 C-29.4 -29.41, -30.24 -29.59, -31.51 -29.87 M-28.56 -29.23 C-29.24 -29.38, -29.93 -29.53, -31.51 -29.87 M-31.51 -29.87 C-32.74 -29.93, -33.97 -29.99, -34.8 -30.03 M-31.51 -29.87 C-32.81 -29.93, -34.11 -30, -34.8 -30.03 M-34.8 -30.03 C-35.86 -29.85, -36.91 -29.66, -38.23 -29.43 M-34.8 -30.03 C-36.11 -29.8, -37.41 -29.57, -38.23 -29.43 M-38.23 -29.43 C-39.32 -28.88, -40.42 -28.34, -41.32 -27.88 M-38.23 -29.43 C-39.03 -29.03, -39.84 -28.63, -41.32 -27.88 M-41.32 -27.88 C-41.96 -27.36, -42.6 -26.84, -43.87 -25.8 M-41.32 -27.88 C-42.27 -27.11, -43.21 -26.34, -43.87 -25.8 M-43.87 -25.8 C-44.45 -24.97, -45.02 -24.14, -46.09 -22.58 M-43.87 -25.8 C-44.37 -25.08, -44.86 -24.36, -46.09 -22.58 M-46.09 -22.58 C-46.35 -21.69, -46.6 -20.81, -46.96 -19.55 M-46.09 -22.58 C-46.36 -21.63, -46.64 -20.69, -46.96 -19.55 M-46.96 -19.55 C-47.06 -18.31, -47.16 -17.07, -47.23 -16.19 M-46.96 -19.55 C-47.03 -18.79, -47.09 -18.02, -47.23 -16.19 M-47.23 -16.19 C-47.07 -14.97, -46.91 -13.74, -46.76 -12.63 M-47.23 -16.19 C-47.11 -15.27, -46.99 -14.34, -46.76 -12.63 M-46.76 -12.63 C-46.38 -11.54, -46 -10.44, -45.68 -9.52 M-46.76 -12.63 C-46.43 -11.66, -46.09 -10.7, -45.68 -9.52 M-45.68 -9.52 C-45.09 -8.66, -44.5 -7.8, -43.99 -7.06 M-45.68 -9.52 C-45.16 -8.77, -44.65 -8.02, -43.99 -7.06 M-43.99 -7.06 C-43.09 -6.37, -42.19 -5.68, -41.46 -5.11 M-43.99 -7.06 C-43.23 -6.48, -42.47 -5.89, -41.46 -5.11 M-41.46 -5.11 C-40.44 -4.64, -39.43 -4.17, -38.83 -3.9 M-41.46 -5.11 C-40.7 -4.76, -39.95 -4.41, -38.83 -3.9 M-38.83 -3.9 C-37.88 -3.63, -36.93 -3.36, -35.74 -3.02 M-38.83 -3.9 C-37.86 -3.62, -36.88 -3.35, -35.74 -3.02 M-35.74 -3.02 C-34.23 -3, -32.71 -2.97, -31.58 -2.96 M-35.74 -3.02 C-34.55 -3, -33.37 -2.99, -31.58 -2.96 M-31.58 -2.96 C-30.72 -3.18, -29.86 -3.41, -27.75 -3.96 M-31.58 -2.96 C-30.54 -3.23, -29.51 -3.5, -27.75 -3.96 M-27.75 -3.96 C-26.64 -4.55, -25.53 -5.14, -24.32 -5.78 M-27.75 -3.96 C-26.65 -4.54, -25.56 -5.12, -24.32 -5.78 M-24.32 -5.78 C-23.29 -6.49, -22.25 -7.2, -20.9 -8.13 M-24.32 -5.78 C-23.06 -6.65, -21.79 -7.51, -20.9 -8.13 M-20.9 -8.13 C-19.72 -9.19, -18.54 -10.25, -17.47 -11.22 M-20.9 -8.13 C-20.03 -8.91, -19.17 -9.69, -17.47 -11.22 M-17.47 -11.22 C-16.54 -12.27, -15.61 -13.31, -13.24 -15.99 M-17.47 -11.22 C-16.59 -12.22, -15.7 -13.21, -13.24 -15.99 M-13.24 -15.99 C-10.01 -19.82, -6.78 -23.65, 0.87 -32.72 M-13.24 -15.99 C-9.13 -20.86, -5.03 -25.73, 0.87 -32.72 M0.87 -32.72 C1.91 -33.82, 2.95 -34.93, 5.24 -37.36 M0.87 -32.72 C2.09 -34.01, 3.3 -35.3, 5.24 -37.36 M5.24 -37.36 C6.25 -38.21, 7.27 -39.06, 9.81 -41.19 M5.24 -37.36 C6.53 -38.44, 7.82 -39.52, 9.81 -41.19 M9.81 -41.19 C10.77 -41.92, 11.73 -42.65, 12.97 -43.61 M9.81 -41.19 C10.63 -41.81, 11.44 -42.44, 12.97 -43.61 M12.97 -43.61 C13.98 -44.28, 15 -44.96, 16.39 -45.89 M12.97 -43.61 C13.71 -44.1, 14.45 -44.59, 16.39 -45.89 M16.39 -45.89 C17.73 -46.63, 19.07 -47.37, 20.29 -48.04 M16.39 -45.89 C17.66 -46.59, 18.92 -47.29, 20.29 -48.04 M20.29 -48.04 C21.42 -48.46, 22.55 -48.87, 24.66 -49.65 M20.29 -48.04 C21.71 -48.56, 23.13 -49.09, 24.66 -49.65 M24.66 -49.65 C26.58 -50.1, 28.51 -50.54, 29.9 -50.86 M24.66 -49.65 C25.92 -49.94, 27.18 -50.23, 29.9 -50.86 M29.9 -50.86 C31.25 -50.93, 32.6 -50.99, 35.34 -51.13 M29.9 -50.86 C31.99 -50.96, 34.07 -51.07, 35.34 -51.13 M35.34 -51.13 C37.13 -50.93, 38.92 -50.73, 40.18 -50.59 M35.34 -51.13 C36.62 -50.99, 37.91 -50.85, 40.18 -50.59 M40.18 -50.59 C41.26 -50.37, 42.34 -50.15, 44.75 -49.65 M40.18 -50.59 C41.13 -50.4, 42.07 -50.2, 44.75 -49.65 M44.75 -49.65 C45.63 -49.36, 46.51 -49.07, 48.64 -48.38 M44.75 -49.65 C45.72 -49.34, 46.68 -49.02, 48.64 -48.38 M48.64 -48.38 C49.82 -47.8, 51 -47.22, 52.21 -46.63 M48.64 -48.38 C49.91 -47.75, 51.18 -47.13, 52.21 -46.63 M52.21 -46.63 C53.64 -45.75, 55.08 -44.87, 55.83 -44.41 M52.21 -46.63 C53.41 -45.89, 54.62 -45.16, 55.83 -44.41 M55.83 -44.41 C56.57 -43.82, 57.3 -43.23, 58.59 -42.19 M55.83 -44.41 C56.46 -43.9, 57.09 -43.4, 58.59 -42.19 M58.59 -42.19 C59.12 -41.71, 59.65 -41.22, 61.01 -39.98 M58.59 -42.19 C59.2 -41.64, 59.8 -41.08, 61.01 -39.98 M61.01 -39.98 C61.75 -39.03, 62.49 -38.07, 63.36 -36.95 M61.01 -39.98 C61.88 -38.86, 62.75 -37.74, 63.36 -36.95 M63.36 -36.95 C63.85 -36.22, 64.35 -35.48, 65.58 -33.66 M63.36 -36.95 C63.87 -36.19, 64.39 -35.43, 65.58 -33.66 M65.58 -33.66 C66.26 -32.23, 66.95 -30.81, 67.39 -29.9 M65.58 -33.66 C66.24 -32.29, 66.9 -30.91, 67.39 -29.9 M67.39 -29.9 C67.63 -29.12, 67.88 -28.35, 68.53 -26.27 M67.39 -29.9 C67.73 -28.83, 68.06 -27.77, 68.53 -26.27 M68.53 -26.27 C68.79 -25.11, 69.05 -23.96, 69.41 -22.37 M68.53 -26.27 C68.83 -24.94, 69.13 -23.61, 69.41 -22.37 M69.41 -22.37 C69.53 -20.84, 69.66 -19.31, 69.74 -18.34 M69.41 -22.37 C69.52 -20.98, 69.64 -19.58, 69.74 -18.34 M69.74 -18.34 C69.7 -17.01, 69.65 -15.68, 69.61 -14.38 M69.74 -18.34 C69.71 -17.28, 69.67 -16.22, 69.61 -14.38 M69.61 -14.38 C69.5 -12.62, 69.39 -10.86, 69.34 -9.94 M69.61 -14.38 C69.53 -13.07, 69.45 -11.77, 69.34 -9.94 M69.34 -9.94 C68.98 -8.68, 68.62 -7.41, 68.13 -5.71 M69.34 -9.94 C69.03 -8.86, 68.72 -7.77, 68.13 -5.71 M68.13 -5.71 C67.57 -4.21, 67.01 -2.71, 66.38 -1.01 M68.13 -5.71 C67.55 -4.15, 66.97 -2.58, 66.38 -1.01 M66.38 -1.01 C65.94 -0.3, 65.5 0.41, 64.37 2.22 M66.38 -1.01 C65.86 -0.16, 65.33 0.68, 64.37 2.22 M64.37 2.22 C63.71 3.08, 63.06 3.94, 62.08 5.24 M64.37 2.22 C63.8 2.97, 63.23 3.72, 62.08 5.24 M62.08 5.24 C61.38 6.03, 60.69 6.82, 59.46 8.2 M62.08 5.24 C61.09 6.36, 60.1 7.48, 59.46 8.2 M59.46 8.2 C58.73 8.78, 58 9.37, 56.1 10.88 M59.46 8.2 C58.38 9.06, 57.3 9.93, 56.1 10.88 M56.1 10.88 C55.32 11.41, 54.53 11.94, 52.81 13.1 M56.1 10.88 C54.96 11.65, 53.82 12.42, 52.81 13.1 M52.81 13.1 C51.65 13.62, 50.5 14.13, 49.18 14.71 M52.81 13.1 C51.99 13.47, 51.17 13.83, 49.18 14.71 M49.18 14.71 C48 15.15, 46.81 15.59, 44.81 16.33 M49.18 14.71 C48.11 15.11, 47.03 15.51, 44.81 16.33 M44.81 16.33 C43.29 16.68, 41.77 17.04, 40.78 17.27 M44.81 16.33 C43.52 16.63, 42.22 16.93, 40.78 17.27 M40.78 17.27 C39.2 17.4, 37.61 17.53, 35.95 17.67 M40.78 17.27 C38.85 17.43, 36.92 17.59, 35.95 17.67 M35.95 17.67 C34.62 17.69, 33.3 17.71, 30.91 17.74 M35.95 17.67 C34.09 17.7, 32.23 17.72, 30.91 17.74 M30.91 17.74 C29.39 17.47, 27.88 17.2, 26 16.86 M30.91 17.74 C29.57 17.5, 28.24 17.26, 26 16.86 M26 16.86 C24.88 16.53, 23.75 16.19, 21.03 15.39 M26 16.86 C24.94 16.55, 23.87 16.23, 21.03 15.39 M21.03 15.39 C19.15 14.57, 17.27 13.76, 15.59 13.03 M21.03 15.39 C19.01 14.51, 17 13.64, 15.59 13.03 M15.59 13.03 C18.4 9.66, 21.22 6.29, 29.28 -3.36 M15.59 13.03 C19.67 8.14, 23.76 3.24, 29.28 -3.36 M29.28 -3.36 C30.2 -3.21, 31.12 -3.06, 32.34 -2.86 M29.28 -3.36 C30.33 -3.19, 31.38 -3.02, 32.34 -2.86 M32.34 -2.86 C33.32 -2.89, 34.31 -2.92, 35.43 -2.95 M32.34 -2.86 C33.44 -2.89, 34.54 -2.92, 35.43 -2.95 M35.43 -2.95 C36.22 -3.15, 37.01 -3.36, 38.3 -3.7 M35.43 -2.95 C36.25 -3.16, 37.07 -3.38, 38.3 -3.7 M38.3 -3.7 C39.23 -4.09, 40.16 -4.48, 40.85 -4.77 M38.3 -3.7 C39.09 -4.03, 39.87 -4.36, 40.85 -4.77 M40.85 -4.77 C41.42 -5.11, 42 -5.44, 42.8 -5.91 M40.85 -4.77 C41.29 -5.03, 41.73 -5.29, 42.8 -5.91 M42.8 -5.91 C43.33 -6.4, 43.86 -6.88, 44.41 -7.39 M42.8 -5.91 C43.41 -6.47, 44.01 -7.03, 44.41 -7.39 M44.41 -7.39 C44.73 -7.89, 45.05 -8.39, 45.82 -9.61 M44.41 -7.39 C44.76 -7.93, 45.1 -8.47, 45.82 -9.61 M45.82 -9.61 C46.16 -10.39, 46.49 -11.18, 47.03 -12.43 M45.82 -9.61 C46.27 -10.65, 46.71 -11.69, 47.03 -12.43 M47.03 -12.43 C47.12 -13.09, 47.21 -13.76, 47.37 -14.98 M47.03 -12.43 C47.15 -13.34, 47.27 -14.25, 47.37 -14.98 M47.37 -14.98 C47.39 -15.63, 47.4 -16.28, 47.44 -17.47 M47.37 -14.98 C47.39 -15.94, 47.42 -16.9, 47.44 -17.47 M47.44 -17.47 C47.37 -18.1, 47.31 -18.73, 47.17 -20.22 M47.44 -17.47 C47.38 -18.08, 47.32 -18.7, 47.17 -20.22 M47.17 -20.22 C46.95 -20.71, 46.74 -21.19, 46.16 -22.51 M47.17 -20.22 C46.84 -20.96, 46.52 -21.7, 46.16 -22.51 M46.16 -22.51 C45.68 -23.32, 45.21 -24.13, 44.55 -25.26 M46.16 -22.51 C45.76 -23.19, 45.36 -23.86, 44.55 -25.26 M44.55 -25.26 C44.1 -25.71, 43.66 -26.15, 42.73 -27.08 M44.55 -25.26 C43.88 -25.92, 43.22 -26.59, 42.73 -27.08 M42.73 -27.08 C42.1 -27.43, 41.46 -27.78, 40.18 -28.49 M42.73 -27.08 C42.04 -27.46, 41.35 -27.84, 40.18 -28.49 M40.18 -28.49 C39.25 -28.85, 38.31 -29.21, 37.56 -29.5 M40.18 -28.49 C39.42 -28.78, 38.66 -29.07, 37.56 -29.5 M37.56 -29.5 C36.86 -29.63, 36.15 -29.76, 34.33 -30.1 M37.56 -29.5 C36.64 -29.67, 35.72 -29.84, 34.33 -30.1 M34.33 -30.1 C33.25 -30.03, 32.17 -29.97, 31.04 -29.9 M34.33 -30.1 C33.12 -30.03, 31.9 -29.95, 31.04 -29.9 M31.04 -29.9 C29.75 -29.48, 28.45 -29.07, 27.48 -28.76 M31.04 -29.9 C29.91 -29.54, 28.79 -29.18, 27.48 -28.76 M27.48 -28.76 C26.74 -28.33, 26 -27.91, 24.19 -26.88 M27.48 -28.76 C26.61 -28.26, 25.73 -27.76, 24.19 -26.88 M24.19 -26.88 C23.22 -26.11, 22.26 -25.35, 21.63 -24.86 M24.19 -26.88 C23.33 -26.2, 22.47 -25.52, 21.63 -24.86 M21.63 -24.86 C20.87 -24.15, 20.1 -23.44, 19.01 -22.44 M21.63 -24.86 C20.76 -24.05, 19.89 -23.25, 19.01 -22.44 M19.01 -22.44 C17.93 -21.28, 16.84 -20.11, 16.19 -19.42 M19.01 -22.44 C18 -21.36, 16.99 -20.28, 16.19 -19.42 M16.19 -19.42 C15.51 -18.63, 14.83 -17.85, 13.57 -16.39 M16.19 -19.42 C15.36 -18.45, 14.52 -17.49, 13.57 -16.39 M13.57 -16.39 C10.25 -12.38, 6.92 -8.36, 0 0 M13.57 -16.39 C9 -10.87, 4.42 -5.34, 0 0 M0 0 C0 0, 0 0, 0 0 M0 0 C0 0, 0 0, 0 0" stroke="#484848" stroke-width="2" fill="none"></path></g></g><mask></mask><g stroke-linecap="round"><g transform="translate(46.45359113979612 30.43479783257567) rotate(0 14.516965853371403 -1.8242230715812866)" fill-rule="evenodd"><path d="M14 -16.98 C14 -16.98, 14 -16.98, 14 -16.98 M14 -16.98 C14 -16.98, 14 -16.98, 14 -16.98 M6.26 4.11 C9.79 0.05, 13.33 -4.02, 20.03 -11.74 M6.26 4.11 C11.43 -1.84, 16.6 -7.79, 20.03 -11.74 M12.29 9.36 C15.36 5.84, 18.42 2.32, 26.07 -6.49 M12.29 9.36 C17.23 3.68, 22.17 -2.01, 26.07 -6.49" stroke="#20a7c9" stroke-width="1" fill="none"></path><path d="M0 0 C0.71 0.36, 1.43 0.72, 2.88 1.46 M0 0 C1.11 0.56, 2.23 1.13, 2.88 1.46 M2.88 1.46 C3.52 1.9, 4.16 2.34, 4.99 2.92 M2.88 1.46 C3.42 1.83, 3.97 2.21, 4.99 2.92 M4.99 2.92 C5.56 3.34, 6.14 3.76, 7.03 4.42 M4.99 2.92 C5.7 3.44, 6.41 3.96, 7.03 4.42 M7.03 4.42 C7.63 4.98, 8.24 5.55, 8.87 6.14 M7.03 4.42 C7.63 4.98, 8.24 5.55, 8.87 6.14 M8.87 6.14 C9.34 6.62, 9.81 7.1, 10.91 8.22 M8.87 6.14 C9.52 6.81, 10.17 7.47, 10.91 8.22 M10.91 8.22 C11.54 8.88, 12.17 9.54, 12.67 10.06 M10.91 8.22 C11.44 8.77, 11.97 9.32, 12.67 10.06 M12.67 10.06 C13.28 10.74, 13.88 11.41, 14.63 12.25 M12.67 10.06 C13.1 10.53, 13.52 11.01, 14.63 12.25 M14.63 12.25 C14.82 12.45, 15 12.65, 15.4 13.1 M14.63 12.25 C14.93 12.58, 15.23 12.91, 15.4 13.1 M15.4 13.1 C19.67 8.01, 23.93 2.93, 29.03 -3.15 M15.4 13.1 C18.66 9.21, 21.93 5.32, 29.03 -3.15 M29.03 -3.15 C28.51 -3.78, 27.99 -4.41, 26.88 -5.76 M29.03 -3.15 C28.46 -3.85, 27.88 -4.54, 26.88 -5.76 M26.88 -5.76 C26.14 -6.59, 25.39 -7.42, 24.58 -8.33 M26.88 -5.76 C25.99 -6.76, 25.09 -7.76, 24.58 -8.33 M24.58 -8.33 C23.66 -9.1, 22.75 -9.87, 22.16 -10.37 M24.58 -8.33 C23.77 -9.01, 22.97 -9.69, 22.16 -10.37 M22.16 -10.37 C21.75 -10.72, 21.34 -11.06, 20.12 -12.1 M22.16 -10.37 C21.44 -10.98, 20.73 -11.59, 20.12 -12.1 M20.12 -12.1 C19.55 -12.53, 18.97 -12.96, 18.13 -13.6 M20.12 -12.1 C19.66 -12.45, 19.19 -12.8, 18.13 -13.6 M18.13 -13.6 C17.62 -14, 17.1 -14.4, 16.36 -14.98 M18.13 -13.6 C17.75 -13.89, 17.38 -14.18, 16.36 -14.98 M16.36 -14.98 C15.47 -15.59, 14.59 -16.19, 13.79 -16.74 M16.36 -14.98 C15.42 -15.62, 14.49 -16.26, 13.79 -16.74 M13.79 -16.74 C9.39 -11.4, 4.99 -6.05, 0 0 M13.79 -16.74 C9.11 -11.06, 4.43 -5.38, 0 0 M0 0 C0 0, 0 0, 0 0 M0 0 C0 0, 0 0, 0 0" stroke="#20a7c9" stroke-width="2" fill="none"></path></g></g><mask></mask><g stroke-linecap="round"><g transform="translate(75.06604496206728 59.40886998519386) rotate(179.33379194550395 14.568168032012636 -1.4317184657734288)" fill-rule="evenodd"><path d="M13.66 -15.95 C13.66 -15.95, 13.66 -15.95, 13.66 -15.95 M13.66 -15.95 C13.66 -15.95, 13.66 -15.95, 13.66 -15.95 M6.58 4.39 C11.96 -1.8, 17.35 -8, 20.35 -11.46 M6.58 4.39 C9.97 0.49, 13.37 -3.42, 20.35 -11.46 M12.62 9.64 C18.01 3.44, 23.4 -2.76, 26.39 -6.21 M12.62 9.64 C17.01 4.59, 21.4 -0.46, 26.39 -6.21" stroke="#20a7c9" stroke-width="1" fill="none"></path><path d="M0 0 C1.09 0.52, 2.19 1.03, 3.05 1.44 M0 0 C0.71 0.33, 1.42 0.67, 3.05 1.44 M3.05 1.44 C3.77 1.89, 4.48 2.35, 5.62 3.08 M3.05 1.44 C3.91 1.99, 4.77 2.53, 5.62 3.08 M5.62 3.08 C6.1 3.44, 6.58 3.81, 7.63 4.62 M5.62 3.08 C6.06 3.41, 6.5 3.75, 7.63 4.62 M7.63 4.62 C8.37 5.24, 9.12 5.86, 9.78 6.41 M7.63 4.62 C8.09 5, 8.54 5.38, 9.78 6.41 M9.78 6.41 C10.49 7.2, 11.2 7.99, 11.62 8.44 M9.78 6.41 C10.35 7.04, 10.92 7.67, 11.62 8.44 M11.62 8.44 C12.08 8.96, 12.54 9.48, 13.36 10.42 M11.62 8.44 C12.1 8.99, 12.58 9.54, 13.36 10.42 M13.36 10.42 C13.77 10.94, 14.17 11.47, 14.57 11.99 M13.36 10.42 C13.68 10.84, 14.01 11.26, 14.57 11.99 M14.57 11.99 C14.82 12.33, 15.06 12.66, 15.51 13.27 M14.57 11.99 C14.87 12.4, 15.17 12.81, 15.51 13.27 M15.51 13.27 C20.17 7.82, 24.83 2.37, 29.14 -2.67 M15.51 13.27 C20.84 7.03, 26.17 0.79, 29.14 -2.67 M29.14 -2.67 C28.37 -3.6, 27.61 -4.53, 26.99 -5.28 M29.14 -2.67 C28.63 -3.28, 28.13 -3.89, 26.99 -5.28 M26.99 -5.28 C26.29 -6.06, 25.59 -6.84, 24.68 -7.86 M26.99 -5.28 C26.46 -5.87, 25.93 -6.46, 24.68 -7.86 M24.68 -7.86 C24.09 -8.35, 23.5 -8.85, 22.26 -9.89 M24.68 -7.86 C23.98 -8.45, 23.28 -9.03, 22.26 -9.89 M22.26 -9.89 C21.77 -10.31, 21.28 -10.73, 20.23 -11.62 M22.26 -9.89 C21.72 -10.35, 21.18 -10.81, 20.23 -11.62 M20.23 -11.62 C19.82 -11.93, 19.41 -12.24, 18.23 -13.12 M20.23 -11.62 C19.71 -12.01, 19.19 -12.4, 18.23 -13.12 M18.23 -13.12 C17.84 -13.43, 17.44 -13.73, 16.46 -14.5 M18.23 -13.12 C17.82 -13.44, 17.41 -13.76, 16.46 -14.5 M16.46 -14.5 C15.92 -14.84, 15.37 -15.18, 13.82 -16.13 M16.46 -14.5 C15.65 -15, 14.84 -15.5, 13.82 -16.13 M13.82 -16.13 C10.57 -12.34, 7.32 -8.55, 0 0 M13.82 -16.13 C8.36 -9.76, 2.9 -3.38, 0 0 M0 0 C0 0, 0 0, 0 0 M0 0 C0 0, 0 0, 0 0" stroke="#20a7c9" stroke-width="2" fill="none"></path></g></g><mask></mask></svg>