<svg version="1.1" xmlns="http://www.w3.org/2000/svg" viewBox="0 0 432.7712981699806 297.6548904857184" width="432.7712981699806" height="297.6548904857184">
  <!-- svg-source:excalidraw -->
  
  <defs>
    
    
  </defs>
  <g stroke-linecap="round" transform="translate(81.05747612781943 80.67772477281642) rotate(0 41.02608484513394 41.026084845134164)"><path d="M53.52 0.76 C60.13 2.15, 66.5 8.55, 71.09 14.46 C75.67 20.37, 79.73 28.86, 81.04 36.21 C82.35 43.55, 81.89 52.03, 78.96 58.54 C76.02 65.05, 69.89 71.48, 63.45 75.25 C57.01 79.02, 47.64 81.14, 40.31 81.18 C32.98 81.21, 25.64 79.38, 19.47 75.48 C13.3 71.57, 6.4 64.52, 3.29 57.76 C0.17 51.01, -0.44 42.08, 0.79 34.95 C2.02 27.83, 5.9 20.48, 10.67 15.01 C15.45 9.54, 21.3 3.84, 29.46 2.13 C37.62 0.42, 53.62 3.57, 59.66 4.74 C65.69 5.91, 66.13 8.69, 65.68 9.13 M57.27 1.69 C64.19 4.14, 70.9 11.95, 75.16 18.52 C79.43 25.09, 82.84 33.94, 82.85 41.11 C82.87 48.27, 79.41 55.19, 75.26 61.52 C71.11 67.86, 64.36 75.63, 57.94 79.13 C51.52 82.62, 43.84 83.55, 36.73 82.51 C29.63 81.47, 21.25 77.76, 15.32 72.87 C9.38 67.97, 3.27 60.13, 1.14 53.12 C-0.98 46.11, 0.8 37.85, 2.56 30.81 C4.33 23.76, 6.52 15.98, 11.73 10.86 C16.93 5.74, 26.19 1.42, 33.78 0.09 C41.38 -1.24, 53.71 2.21, 57.32 2.87 C60.92 3.54, 55.83 3.5, 55.42 4.1" stroke="none" stroke-width="0" fill="#fad905"></path><path d="M31.49 0.5 C38.28 -1.46, 48.65 0.55, 55.84 3.03 C63.02 5.51, 70.41 9.57, 74.61 15.39 C78.81 21.22, 80.71 30.46, 81.04 37.96 C81.37 45.46, 80.05 53.83, 76.57 60.42 C73.1 67, 66.55 73.77, 60.2 77.46 C53.84 81.16, 45.77 83.3, 38.46 82.59 C31.15 81.88, 22.18 77.87, 16.35 73.23 C10.52 68.59, 6.13 61.43, 3.48 54.77 C0.83 48.11, -0.95 40.22, 0.45 33.26 C1.86 26.3, 4.92 18.42, 11.91 13.03 C18.91 7.64, 36.04 2.73, 42.41 0.92 C48.77 -0.9, 50.23 1.46, 50.11 2.14 M47.28 1.25 C54 2.17, 62.73 5.72, 68.56 10.91 C74.39 16.1, 80.15 25.34, 82.25 32.37 C84.34 39.4, 83.92 46.33, 81.14 53.1 C78.35 59.86, 71.49 67.93, 65.53 72.96 C59.57 77.99, 52.43 82.36, 45.37 83.3 C38.32 84.24, 29.73 82.3, 23.18 78.6 C16.64 74.9, 9.98 67.85, 6.1 61.09 C2.21 54.33, -0.18 45.23, -0.13 38.05 C-0.08 30.86, 2.14 23.81, 6.41 17.98 C10.67 12.15, 18.43 6.11, 25.48 3.06 C32.54 0.02, 44.81 -0.13, 48.74 -0.28 C52.67 -0.43, 49.39 1.09, 49.06 2.16" stroke="#fab005" stroke-width="1" fill="none"></path></g><g stroke-linecap="round"><g transform="translate(97.76313766280418 80.65538402742914) rotate(0 -15.669728308926551 -30.402872968279212)"><path d="M0.85 -0.53 C-4.13 -10.88, -25.44 -51.01, -30.92 -61.15 M-0.17 1.81 C-5.17 -8.46, -26.14 -49.43, -31.64 -59.79" stroke="#fab005" stroke-width="1" fill="none"></path></g></g><mask></mask><g stroke-linecap="round"><g transform="translate(125.91578338877389 71.02552608696669) rotate(19.09714826089541 -15.669728308926551 -30.402872968279212)"><path d="M-0.53 0.42 C-5.97 -9.97, -26.45 -51.43, -31.68 -61.5 M1.4 -0.4 C-4.32 -10.72, -27.08 -50.08, -32.81 -60.32" stroke="#fab005" stroke-width="1" fill="none"></path></g></g><mask></mask><g stroke-linecap="round"><g transform="translate(155.95445432931683 70.71402221591279) rotate(40.28181620285068 -15.669728308926551 -30.402872968279212)"><path d="M0.42 -0.34 C-5.06 -10.49, -26.88 -51.42, -32.03 -61.39 M-0.81 -1.57 C-5.98 -11.51, -24.68 -50.06, -29.68 -60.16" stroke="#fab005" stroke-width="1" fill="none"></path></g></g><mask></mask><g stroke-linecap="round"><g transform="translate(184.62083373252335 81.04596483613523) rotate(59.999999999999986 -15.669728308926551 -30.402872968279212)"><path d="M-0.34 -0.69 C-5.58 -10.76, -26.86 -50.12, -31.92 -59.97 M1.68 1.56 C-3.11 -8.87, -24.05 -51.13, -29.52 -61.65" stroke="#fab005" stroke-width="1" fill="none"></path></g></g><mask></mask><g stroke-linecap="round"><g transform="translate(204.71803727589668 94.08412605686954) rotate(83.4500595531745 -15.669728308926551 -30.402872968279212)"><path d="M-0.69 -0.59 C-5.85 -10.56, -25.57 -49.97, -30.5 -60.18 M1.15 1.72 C-4.13 -8.57, -25.74 -51.51, -31.01 -61.97" stroke="#fab005" stroke-width="1" fill="none"></path></g></g><mask></mask><g stroke-linecap="round"><g transform="translate(214.48889245483315 116.63392977890635) rotate(104.99999999999999 -15.669728308926551 -30.402872968279212)"><path d="M-0.59 0.84 C-5.65 -9, -25.41 -49.29, -30.71 -59.74 M1.31 0.23 C-3.83 -9.86, -26.11 -51.08, -31.33 -61.31" stroke="#fab005" stroke-width="1" fill="none"></path></g></g><mask></mask><g stroke-linecap="round"><g transform="translate(66.72778013772131 109.12888518162208) rotate(327.0550540793524 -15.669728308926551 -30.402872968279212)"><path d="M0.84 0.63 C-4.09 -9.58, -24.74 -51.61, -30.28 -61.83 M-0.18 -0.09 C-5.11 -10.13, -25.68 -50.96, -30.67 -60.83" stroke="#fab005" stroke-width="1" fill="none"></path></g></g><mask></mask><g stroke-linecap="round"><g transform="translate(56.958694971844125 144.59348852996254) rotate(305.8015180945807 -15.669728308926551 -30.402872968279212)"><path d="M0.63 1.06 C-4.67 -9.39, -27.06 -51.44, -32.37 -61.87 M-0.5 0.58 C-5.38 -9.84, -24.95 -50.71, -30.19 -60.89" stroke="#fab005" stroke-width="1" fill="none"></path></g></g><mask></mask><g stroke-linecap="round"><g transform="translate(60.00623312596599 177.97503512491767) rotate(279.24195368138686 -15.669728308926551 -30.402872968279212)"><path d="M1.06 -1.03 C-4.48 -11.24, -26.89 -50.71, -32.41 -60.69 M0.16 1.05 C-5.09 -9.01, -24.7 -48.98, -30.25 -59.09" stroke="#fab005" stroke-width="1" fill="none"></path></g></g><mask></mask><g stroke-linecap="round"><g transform="translate(70.54052536354084 200.95314179381558) rotate(263.76240071194536 -15.669728308926551 -30.402872968279212)"><path d="M-1.03 -1.07 C-6.33 -11.49, -26.16 -51.4, -31.22 -61.5 M0.64 0.99 C-4.87 -8.78, -26.63 -50.03, -32.1 -60.32" stroke="#fab005" stroke-width="1" fill="none"></path></g></g><mask></mask><g stroke-linecap="round"><g transform="translate(89.76871650545854 216.85527533400864) rotate(247.422851737581 -15.669728308926551 -30.402872968279212)"><path d="M-1.07 0.12 C-6.58 -9.86, -26.84 -50.83, -32.03 -60.88 M0.58 -0.86 C-4.64 -10.55, -24.63 -49.16, -29.68 -59.38" stroke="#fab005" stroke-width="1" fill="none"></path></g></g><mask></mask><g stroke-linecap="round"><g transform="translate(109.04871194959287 231.51600866040553) rotate(229.0681208281994 -15.669728308926551 -30.402872968279212)"><path d="M0.12 -0.69 C-4.94 -10.79, -26.28 -51.65, -31.41 -61.65 M-1.28 1.56 C-6.42 -8.31, -27.43 -50.42, -32.4 -60.55" stroke="#fab005" stroke-width="1" fill="none"></path></g></g><mask></mask><g stroke-linecap="round"><g transform="translate(122.33099913800197 154.69881950870467) rotate(0 136.36794964799583 42.4441288050906)" fill-rule="evenodd"><path d="M16.71 -33.17 C16.71 -33.17, 16.71 -33.17, 16.71 -33.17 M16.71 -33.17 C16.71 -33.17, 16.71 -33.17, 16.71 -33.17 M9.24 -18.47 C17.26 -25.45, 23.2 -34.52, 29.57 -41.87 M9.24 -18.47 C14.2 -24.5, 18.76 -29.25, 29.57 -41.87 M3.07 -5.28 C12.17 -15.52, 22.44 -26.54, 36.53 -43.77 M3.07 -5.28 C14.76 -18.59, 27.08 -34.23, 36.53 -43.77 M0.84 3.38 C16.52 -11.91, 31.5 -30.58, 44.14 -46.43 M0.84 3.38 C12.8 -9.6, 24.1 -23.15, 44.14 -46.43 M1.24 9.02 C13.7 -7.25, 25.66 -19.37, 51.75 -49.09 M1.24 9.02 C13.66 -6.12, 27.45 -21.91, 51.75 -49.09 M1.63 14.67 C16.01 -3.72, 35.19 -20.45, 56.74 -48.73 M1.63 14.67 C19.74 -5.46, 37.1 -26.54, 56.74 -48.73 M2.02 20.31 C19.44 3.12, 33.27 -18.71, 61.73 -48.37 M2.02 20.31 C22.31 -3.75, 40.78 -26.14, 61.73 -48.37 M1.76 26.71 C25.34 -1.53, 52.02 -30.9, 67.37 -48.76 M1.76 26.71 C18.75 6.21, 37.43 -14.08, 67.37 -48.76 M2.16 32.35 C17.75 16.31, 33.57 -2.65, 71.04 -46.89 M2.16 32.35 C28.37 2.87, 52.31 -25.17, 71.04 -46.89 M1.9 38.75 C22.52 12.89, 43.39 -8.04, 74.72 -45.02 M1.9 38.75 C20.3 18.35, 37.52 -1.66, 74.72 -45.02 M0.98 45.9 C19.1 27.91, 33.81 6.12, 79.05 -43.91 M0.98 45.9 C18.75 24.96, 37.74 3.22, 79.05 -43.91 M-27.49 84.75 C-4.02 56.81, 22.38 25.48, 82.72 -42.04 M-27.49 84.75 C-4.23 57.84, 18.9 30.3, 82.72 -42.04 M-30.38 94.17 C11.74 47.09, 57.09 -4.97, 86.4 -40.17 M-30.38 94.17 C-1 58.77, 31.59 23.38, 86.4 -40.17 M-32.61 102.83 C12.04 51.63, 55.52 2.11, 90.07 -38.3 M-32.61 102.83 C2.61 65.64, 35.08 27.05, 90.07 -38.3 M-32.21 108.47 C0.91 69.43, 32.8 32.37, 93.09 -35.68 M-32.21 108.47 C2.99 68.94, 37.38 30.62, 93.09 -35.68 M-30.51 112.61 C10.38 62.87, 56.08 14.85, 96.77 -33.81 M-30.51 112.61 C17.3 56.6, 66.51 1.53, 96.77 -33.81 M-28.14 115.99 C0.95 79.87, 33.51 46.42, 99.79 -31.18 M-28.14 115.99 C19.44 62.89, 64.5 11.24, 99.79 -31.18 M-25.78 119.36 C19.21 66.42, 63.28 17.02, 102.15 -27.8 M-25.78 119.36 C20.67 67.33, 66.33 15.37, 102.15 -27.8 M-22.76 121.99 C22.73 71.05, 66.16 20.38, 104.51 -24.42 M-22.76 121.99 C12.39 82.31, 47.72 42.67, 104.51 -24.42 M-19.09 123.86 C18.18 76.4, 58.06 30.92, 106.88 -21.05 M-19.09 123.86 C18.28 81.62, 55.48 36.99, 106.88 -21.05 M-15.41 125.73 C31 72.71, 74.8 20.91, 109.24 -17.67 M-15.41 125.73 C17.24 89.92, 49.75 51.67, 109.24 -17.67 M-11.74 127.6 C23.36 86.36, 58.53 47.05, 113.57 -16.55 M-11.74 127.6 C37.66 73.15, 85.45 16.6, 113.57 -16.55 M-7.41 128.71 C17.22 100.16, 44.63 71.01, 119.21 -16.95 M-7.41 128.71 C23.28 95.97, 52.93 62.82, 119.21 -16.95 M-3.08 129.83 C27.16 95.1, 57.04 60.8, 126.82 -19.61 M-3.08 129.83 C32.54 90.02, 67.47 49.22, 126.82 -19.61 M1.25 130.94 C39.74 84.29, 79.53 39.74, 135.75 -23.77 M1.25 130.94 C52.31 72.63, 102.69 13.07, 135.75 -23.77 M6.24 131.3 C37.47 95.89, 67.85 61.3, 144.01 -27.19 M6.24 131.3 C44.59 88.49, 81.94 46.22, 144.01 -27.19 M10.57 132.42 C63.09 69.47, 119.77 8.31, 152.28 -30.6 M10.57 132.42 C62.52 72.59, 113.88 12.84, 152.28 -30.6 M14.9 133.53 C56.67 84.75, 102.51 34.85, 158.58 -31.75 M14.9 133.53 C70.58 66.18, 128.92 1.7, 158.58 -31.75 M19.89 133.89 C72.48 72.67, 123.46 16.5, 164.22 -32.14 M19.89 133.89 C67.52 79.44, 116.13 23.63, 164.22 -32.14 M24.22 135.01 C81 69.22, 140.92 3.16, 169.21 -31.78 M24.22 135.01 C70.7 79.66, 118.17 26.39, 169.21 -31.78 M29.86 134.61 C59.15 98.34, 92.23 61.79, 174.2 -31.42 M29.86 134.61 C71.96 87.2, 112.05 41.08, 174.2 -31.42 M34.85 134.97 C91.55 69.62, 144.54 5.6, 179.18 -31.06 M34.85 134.97 C64.54 102.68, 93.53 69.93, 179.18 -31.06 M39.84 135.33 C79.88 84.71, 123.49 37.97, 182.86 -29.19 M39.84 135.33 C83.17 84.99, 127.88 31.68, 182.86 -29.19 M44.83 135.69 C78.02 93.16, 115.71 54.17, 187.19 -28.08 M44.83 135.69 C80.96 94.2, 117.19 51.22, 187.19 -28.08 M50.47 135.3 C88.31 93.03, 124.27 53.39, 191.52 -26.96 M50.47 135.3 C106.04 71.34, 160.04 8.43, 191.52 -26.96 M55.46 135.66 C100.19 82.56, 145.47 32.6, 195.85 -25.85 M55.46 135.66 C109.58 73.82, 162.89 11.43, 195.85 -25.85 M61.1 135.26 C96.06 93.73, 134.79 49.46, 199.53 -23.98 M61.1 135.26 C110.43 78.83, 157.74 24.5, 199.53 -23.98 M66.09 135.62 C96.4 101.61, 127.67 63.68, 203.86 -22.87 M66.09 135.62 C116.65 76.15, 169.02 17.81, 203.86 -22.87 M71.73 135.23 C102.82 100.13, 133.92 62.28, 207.53 -21 M71.73 135.23 C111.23 88.47, 151.04 41.49, 207.53 -21 M76.72 135.59 C123.86 81.88, 166.17 31.76, 211.21 -19.13 M76.72 135.59 C111.71 95.72, 146.47 55.27, 211.21 -19.13 M82.36 135.19 C134.5 73.33, 184.41 15.11, 214.23 -16.5 M82.36 135.19 C114.4 99.67, 144.44 64.04, 214.23 -16.5 M87.35 135.55 C135.31 83.38, 181.14 28.57, 217.25 -13.88 M87.35 135.55 C137.64 79.63, 187.2 22.32, 217.25 -13.88 M92.99 135.16 C131.29 93.98, 170.59 49.88, 220.26 -11.25 M92.99 135.16 C121.19 103.92, 148.11 71.53, 220.26 -11.25 M97.98 135.52 C133.23 95.96, 170.92 55.68, 221.97 -7.12 M97.98 135.52 C140.78 89.08, 183.13 40.96, 221.97 -7.12 M103.62 135.13 C130.91 102.97, 159.45 72.53, 223.68 -2.99 M103.62 135.13 C150.84 80.78, 197.38 27.29, 223.68 -2.99 M108.61 135.49 C143.27 99.11, 174.22 60.64, 224.73 1.9 M108.61 135.49 C133.92 109.46, 157.29 82.52, 224.73 1.9 M114.25 135.09 C155.37 87.58, 198.93 40.88, 225.12 7.54 M114.25 135.09 C152.77 89.39, 192.26 42.93, 225.12 7.54 M119.89 134.7 C142.24 109.89, 163.5 87.22, 225.52 13.19 M119.89 134.7 C153.59 96.11, 186.65 57.82, 225.52 13.19 M124.88 135.06 C156.77 101.34, 186.66 67.01, 225.91 18.83 M124.88 135.06 C147.72 110.11, 168.67 85.4, 225.91 18.83 M130.52 134.66 C155.51 107.93, 180.84 79.11, 226.31 24.47 M130.52 134.66 C163.36 96.97, 194.51 61.51, 226.31 24.47 M135.51 135.02 C155.31 112.84, 176.91 88.84, 228.01 28.61 M135.51 135.02 C165.86 101.68, 194.31 66.34, 228.01 28.61 M141.15 134.63 C168.53 100.56, 200.97 67.87, 229.72 32.74 M141.15 134.63 C170.14 102.17, 198.97 68.62, 229.72 32.74 M146.14 134.99 C175.97 100.88, 209.73 63.7, 234.71 33.1 M146.14 134.99 C174.52 102.94, 203.08 69.38, 234.71 33.1 M151.78 134.59 C180.35 104.38, 206.74 72.02, 242.32 30.44 M151.78 134.59 C178.79 105.24, 205.37 76.16, 242.32 30.44 M156.77 134.95 C191.64 95.55, 228.77 54.58, 252.55 24.77 M156.77 134.95 C187.39 99.91, 218.7 62.49, 252.55 24.77 M162.41 134.56 C194.33 99.12, 223.52 63.02, 262.13 19.84 M162.41 134.56 C189 106.08, 215.14 75.78, 262.13 19.84 M167.4 134.92 C198.08 97.24, 230.67 61.37, 267.78 19.45 M167.4 134.92 C201.57 96.58, 233.05 57.67, 267.78 19.45 M173.04 134.52 C201.01 102.83, 225.56 73.61, 271.45 21.32 M173.04 134.52 C208.61 91.12, 246.33 48.55, 271.45 21.32 M178.03 134.88 C214.12 95.13, 246.9 54.59, 275.13 23.19 M178.03 134.88 C215.45 91.47, 251.36 47.99, 275.13 23.19 M183.67 134.49 C219.63 91.82, 254.82 49.82, 278.15 25.81 M183.67 134.49 C203.59 110.39, 226.4 84.53, 278.15 25.81 M188.66 134.85 C223.42 94.26, 258.7 55.17, 281.16 28.44 M188.66 134.85 C211.06 110.35, 233.2 85.06, 281.16 28.44 M194.3 134.45 C211.2 113.6, 232.94 92.93, 284.18 31.06 M194.3 134.45 C222.91 103.96, 249.35 71.77, 284.18 31.06 M199.29 134.81 C227.88 98.27, 256.57 65.92, 287.2 33.68 M199.29 134.81 C226.02 103.52, 252.22 75.22, 287.2 33.68 M204.28 135.17 C237.95 96.37, 270.62 57.46, 289.56 37.06 M204.28 135.17 C234.1 99.87, 263.09 65.51, 289.56 37.06 M209.26 135.54 C226.76 114.7, 241.48 93.53, 291.93 40.44 M209.26 135.54 C229.26 110.44, 250.71 86.91, 291.93 40.44 M214.91 135.14 C241.36 104.12, 270.07 74.92, 294.29 43.82 M214.91 135.14 C246.88 99.6, 277.76 64.53, 294.29 43.82 M219.89 135.5 C236.6 116.81, 254.62 95.39, 296.65 47.2 M219.89 135.5 C242.56 110.91, 263.1 87.17, 296.65 47.2 M224.88 135.86 C251.65 103.11, 276.8 72.01, 299.02 50.58 M224.88 135.86 C248.01 108.28, 273.92 79.12, 299.02 50.58 M230.52 135.47 C257.55 105.24, 287.44 69.41, 301.38 53.96 M230.52 135.47 C257.78 103.22, 287.44 71.78, 301.38 53.96 M235.51 135.83 C255.35 112.77, 275.82 87.61, 303.09 58.09 M235.51 135.83 C257.86 110.32, 281.41 84.27, 303.09 58.09 M241.15 135.43 C252.64 120.47, 267.17 105.15, 303.48 63.73 M241.15 135.43 C260.05 111.71, 282.02 87.14, 303.48 63.73 M246.8 135.04 C265.88 113.27, 286.62 90.2, 303.87 69.38 M246.8 135.04 C262.35 118.6, 277.47 101.19, 303.87 69.38 M253.1 133.89 C266.82 117.79, 280.61 101.66, 302.96 76.53 M253.1 133.89 C266.9 118.77, 279.32 102.5, 302.96 76.53 M260.71 131.23 C274.67 115.01, 291.02 97.13, 300.73 85.19 M260.71 131.23 C270.54 120.91, 281.48 108.18, 300.73 85.19 M267.66 129.32 C280.71 117.33, 290.99 103.54, 297.19 95.36 M267.66 129.32 C274.63 121.29, 283.73 110.39, 297.19 95.36 M279.21 122.14 C284.72 117.71, 286.43 110.7, 290.36 109.31 M279.21 122.14 C282.5 118.01, 286.12 115.61, 290.36 109.31" stroke="#4c6ef5" stroke-width="0.5" fill="none"></path><path d="M-0.69 -0.07 C2.08 -5.45, 8.83 -24.7, 15.57 -32.17 C22.31 -39.63, 31.46 -41.86, 39.75 -44.86 C48.04 -47.86, 55.35 -52.01, 65.3 -50.17 C75.25 -48.33, 91.26 -39.57, 99.43 -33.8 C107.61 -28.03, 103.56 -15.88, 114.35 -15.54 C125.14 -15.21, 146.68 -32.31, 164.18 -31.8 C181.69 -31.29, 208.62 -23.27, 219.4 -12.48 C230.17 -1.69, 220.75 27.46, 228.82 32.93 C236.9 38.4, 255.83 17, 267.85 20.32 C279.86 23.64, 295.67 42.28, 300.93 52.85 C306.18 63.42, 302.1 73.01, 299.35 83.72 C296.61 94.43, 292.55 108.53, 284.48 117.11 C276.41 125.7, 267.27 132.2, 250.93 135.21 C234.59 138.22, 205.72 135.48, 186.45 135.18 C167.19 134.88, 162.86 133.52, 135.33 133.4 C107.8 133.28, 48.25 136.93, 21.27 134.44 C-5.72 131.94, -18.56 126.62, -26.59 118.44 C-34.61 110.26, -31.23 96.91, -26.87 85.35 C-22.5 73.79, -4.73 63.47, -0.4 49.09 C3.94 34.71, -1.02 7.28, -0.86 -0.94 M1.15 -1.16 C4.39 -6.9, 11.52 -26.34, 17.84 -33.94 C24.16 -41.55, 31.14 -44.21, 39.06 -46.81 C46.98 -49.41, 55.46 -51.71, 65.36 -49.56 C75.27 -47.41, 90.12 -39.49, 98.47 -33.92 C106.83 -28.35, 104.43 -16.35, 115.49 -16.13 C126.56 -15.91, 147.64 -33.26, 164.87 -32.62 C182.1 -31.97, 207.97 -22.95, 218.88 -12.25 C229.79 -1.54, 222.02 26.16, 230.32 31.61 C238.63 37.05, 256.86 17.27, 268.72 20.43 C280.58 23.59, 296.1 39.6, 301.48 50.58 C306.87 61.57, 303.78 75.44, 301.02 86.34 C298.26 97.24, 293.41 107.77, 284.92 115.98 C276.43 124.19, 266.34 132.39, 250.06 135.59 C233.78 138.79, 206.27 135.4, 187.23 135.18 C168.19 134.96, 163.71 134.24, 135.82 134.27 C107.93 134.3, 47.08 137.87, 19.89 135.35 C-7.29 132.84, -19.32 127.44, -27.27 119.19 C-35.22 110.94, -32.32 97.23, -27.8 85.85 C-23.27 74.46, -4.96 65.03, -0.12 50.9 C4.72 36.76, 1.05 9.8, 1.26 1.04" stroke="#364fc7" stroke-width="1" fill="none"></path></g></g><mask></mask><g transform="translate(205.21977189895915 244.6118205827836) rotate(0 47 22.5)"><text x="47" y="0" font-family="Virgil, Segoe UI Emoji" font-size="36px" fill="#000000" text-anchor="middle" style="white-space: pre;" direction="ltr" dominant-baseline="text-before-edge">Cloud</text></g></svg>