<svg version="1.1" xmlns="http://www.w3.org/2000/svg" viewBox="0 0 116.52566410778672 185.43442320638178" width="116.52566410778672" height="185.43442320638178">
  <!-- svg-source:excalidraw -->
  
  <defs>
    
    
  </defs>
  <g stroke-linecap="round"><g transform="translate(7.7259878783970635 18.324854027644506) rotate(0 50.71627869208942 47.897353040452)" fill-rule="evenodd"><path d="M-0.04 0.04 C0.32 13.16, -0.3 64.68, 0.36 80.58 C1.01 96.49, 1.39 91.97, 3.9 95.45 C6.4 98.94, 10.45 99.48, 15.4 101.49 C20.36 103.49, 27.42 106.98, 33.64 107.47 C39.87 107.97, 47.16 104.92, 52.77 104.45 C58.39 103.98, 61.81 104.55, 67.33 104.65 C72.85 104.74, 80.67 106.64, 85.88 105.01 C91.09 103.37, 96.14 98.71, 98.59 94.85 C101.04 90.99, 100.25 96.01, 100.59 81.85 C100.93 67.7, 100.83 23.26, 100.63 9.89 C100.43 -3.47, 101.6 4.46, 99.4 1.64 C97.21 -1.18, 91.51 -5.49, 87.46 -7.05 C83.42 -8.6, 80.56 -7.15, 75.14 -7.71 C69.73 -8.27, 60.61 -9.72, 54.97 -10.42 C49.32 -11.13, 47.18 -11.95, 41.28 -11.94 C35.39 -11.93, 26.31 -12.64, 19.59 -10.37 C12.88 -8.11, 4.52 -0.21, 1 1.64" stroke="none" stroke-width="0" fill="#228be6" fill-rule="evenodd"></path><path d="M0.46 -0.59 C0.54 12.89, -0.76 65.63, -0.45 81.6 C-0.14 97.58, -0.02 92.1, 2.35 95.25 C4.71 98.4, 8.89 98.62, 13.74 100.48 C18.59 102.35, 25.3 105.53, 31.45 106.44 C37.6 107.36, 44.3 106.01, 50.64 105.98 C56.98 105.95, 63.92 106.93, 69.49 106.25 C75.06 105.57, 78.95 103.57, 84.06 101.93 C89.17 100.29, 97.28 99.87, 100.16 96.43 C103.04 92.99, 101.02 95.42, 101.35 81.28 C101.67 67.15, 102.35 25.24, 102.12 11.63 C101.89 -1.98, 102.24 2.48, 99.97 -0.38 C97.7 -3.25, 92.92 -3.95, 88.51 -5.56 C84.1 -7.18, 79.05 -9.15, 73.51 -10.06 C67.96 -10.98, 60.08 -10.76, 55.25 -11.04 C50.41 -11.33, 50.81 -12.32, 44.48 -11.75 C38.15 -11.18, 24.82 -9.68, 17.27 -7.62 C9.72 -5.55, 1.92 -0.51, -0.82 0.65 M-0.76 1.72 C-0.79 14.76, -2.07 63.92, -1.63 79.67 C-1.19 95.42, -0.71 92.63, 1.88 96.21 C4.46 99.78, 8.65 99.29, 13.87 101.14 C19.09 102.98, 26.95 106.1, 33.22 107.28 C39.48 108.46, 45.84 108.56, 51.48 108.22 C57.12 107.88, 61.8 106.43, 67.07 105.24 C72.34 104.05, 77.79 102.69, 83.09 101.08 C88.38 99.48, 96.19 98.98, 98.82 95.6 C101.45 92.23, 98.19 95.24, 98.85 80.85 C99.52 66.46, 102.86 22.87, 102.8 9.25 C102.73 -4.36, 100.73 1.71, 98.47 -0.82 C96.21 -3.35, 93.51 -4.34, 89.24 -5.92 C84.98 -7.51, 78.45 -9.38, 72.86 -10.34 C67.27 -11.3, 60.77 -11.57, 55.7 -11.67 C50.64 -11.77, 48.57 -11.24, 42.46 -10.96 C36.35 -10.67, 25.94 -12.02, 19.05 -9.97 C12.16 -7.91, 4.32 -0.17, 1.12 1.36" stroke="#364fc7" stroke-width="1" fill="none"></path></g></g><mask></mask><g stroke-linecap="round" transform="translate(7.35252560112167 6) rotate(0 50.626483401915266 13.76508157621231)"><path d="M71.39 2.02 C80.31 2.94, 89.35 4.84, 94.16 6.94 C98.96 9.04, 101.04 12.07, 100.2 14.61 C99.36 17.15, 95.45 19.96, 89.11 22.17 C82.76 24.38, 72 27.11, 62.14 27.86 C52.28 28.62, 39.29 27.75, 29.95 26.7 C20.62 25.65, 11.09 24.08, 6.13 21.57 C1.16 19.05, -1.07 14.55, 0.17 11.6 C1.4 8.66, 6.87 5.71, 13.54 3.91 C20.21 2.11, 30.18 1.17, 40.19 0.81 C50.19 0.44, 67.47 1.48, 73.54 1.72 C79.62 1.95, 76.88 2.01, 76.64 2.23 M67.22 -0.23 C76.47 0.6, 87.52 3.38, 93.02 5.91 C98.52 8.44, 100.77 12.31, 100.23 14.93 C99.68 17.55, 95.82 19.43, 89.73 21.65 C83.65 23.86, 73.05 27.39, 63.71 28.19 C54.38 29, 42.89 27.5, 33.73 26.47 C24.56 25.44, 14.31 24.39, 8.7 22.04 C3.09 19.68, -0.14 14.99, 0.09 12.34 C0.32 9.7, 3.91 8.1, 10.07 6.17 C16.24 4.23, 27.23 1.62, 37.08 0.7 C46.92 -0.22, 64.22 0.81, 69.15 0.63 C74.08 0.46, 67.15 -0.54, 66.66 -0.35" stroke="none" stroke-width="0" fill="#ffffff"></path><path d="M57.95 -0.56 C67.18 -0.15, 78.52 2.74, 85.47 4.65 C92.42 6.56, 97.76 8.27, 99.66 10.9 C101.55 13.53, 101.13 18.07, 96.86 20.45 C92.59 22.83, 82.92 23.88, 74.05 25.18 C65.18 26.48, 53.36 28.53, 43.64 28.27 C33.92 28.01, 22.81 25.57, 15.75 23.61 C8.69 21.65, 3.02 19.17, 1.26 16.5 C-0.5 13.83, 0.71 9.96, 5.19 7.59 C9.66 5.22, 18.61 3.52, 28.08 2.29 C37.55 1.06, 55.77 0.46, 62.01 0.21 C68.25 -0.04, 65.57 0.65, 65.53 0.77 M27.34 2.69 C34.94 1.3, 46.59 -1.17, 56.47 -0.99 C66.36 -0.81, 79.32 1.69, 86.65 3.77 C93.98 5.85, 98.9 8.62, 100.44 11.49 C101.98 14.37, 100.22 18.46, 95.89 21.01 C91.55 23.55, 83.07 25.54, 74.43 26.75 C65.79 27.96, 53.64 28.66, 44.04 28.27 C34.45 27.87, 24.31 26.48, 16.87 24.38 C9.44 22.27, 1.54 18.19, -0.54 15.62 C-2.63 13.06, -0.36 11.42, 4.37 8.99 C9.1 6.57, 24.1 2.27, 27.83 1.09 C31.55 -0.1, 26.45 1.69, 26.7 1.9" stroke="#364fc7" stroke-width="1" fill="none"></path></g><g stroke-linecap="round" transform="translate(26.45322638286416 87.63240136956483) rotate(0 11.455679021962169 7.295488630159298)"><path d="M0.84 -0.6 L22.44 0.44 L23.67 13.59 L0.43 13.9" stroke="none" stroke-width="0" fill="#ffffff"></path><path d="M0 0 C8.59 0.88, 15.89 -0.65, 22.91 0 M0 0 C5.74 -0.44, 10.68 0.39, 22.91 0 M22.91 0 C23.48 3.63, 23.03 5.59, 22.91 14.59 M22.91 0 C22.93 4.4, 22.63 8.19, 22.91 14.59 M22.91 14.59 C15.23 14.31, 8.71 15.07, 0 14.59 M22.91 14.59 C17.39 14.74, 12.27 14.24, 0 14.59 M0 14.59 C-0.67 10.36, -0.05 6.7, 0 0 M0 14.59 C0.16 10.27, 0.2 6.34, 0 0" stroke="#495057" stroke-width="1" fill="none"></path></g><g stroke-linecap="round" transform="translate(66.25196261361452 87.63240136956483) rotate(0 11.455679021962169 7.295488630159298)"><path d="M-0.47 0.44 L23.67 -1 L23.34 13.9 L0.85 14.48" stroke="none" stroke-width="0" fill="#ffffff"></path><path d="M0 0 C7.04 -0.72, 14.69 -0.85, 22.91 0 M0 0 C8.26 0.54, 15.77 0.02, 22.91 0 M22.91 0 C23.09 3.13, 22.83 6.99, 22.91 14.59 M22.91 0 C22.69 4.9, 22.99 9.8, 22.91 14.59 M22.91 14.59 C16.94 15.07, 9.51 14.56, 0 14.59 M22.91 14.59 C18.73 14.41, 13.52 14.37, 0 14.59 M0 14.59 C-0.02 11.6, -0.01 8.67, 0 0 M0 14.59 C0.22 9.2, 0.26 3.22, 0 0" stroke="#495057" stroke-width="1" fill="none"></path></g><g stroke-linecap="round" transform="translate(46.35259449823752 47.83366513881174) rotate(0 11.455679021962169 7.295488630159298)"><path d="M0.76 -1 L23.34 -0.69 L23.76 14.48 L-0.74 13.71" stroke="none" stroke-width="0" fill="#ffffff"></path><path d="M0 0 C8.29 -0.67, 18.52 1.02, 22.91 0 M0 0 C4.69 -0.17, 10.04 0.29, 22.91 0 M22.91 0 C22.79 4.99, 23.19 11.01, 22.91 14.59 M22.91 0 C22.94 5.53, 22.79 11, 22.91 14.59 M22.91 14.59 C16.06 14.65, 9.38 14.71, 0 14.59 M22.91 14.59 C14.73 14.25, 6.38 14.05, 0 14.59 M0 14.59 C-0.07 11.16, 0.61 6.82, 0 0 M0 14.59 C0.25 10.39, -0.22 6.78, 0 0" stroke="#495057" stroke-width="1" fill="none"></path></g><g stroke-linecap="round"><g transform="translate(37.463342447435934 87.66870843135621) rotate(0 21.411714546664825 -5.46065149360777)"><path d="M0 0 C0.49 -2.09, -0.07 -5.05, 0.65 -10.92 M0 0 C0.18 -4.05, 0.75 -8.48, 0.65 -10.92 M0.65 -10.92 C10.12 -10.58, 19.67 -11.32, 42.3 -10.69 M0.65 -10.92 C12.84 -11.01, 25.1 -10.54, 42.3 -10.69 M42.3 -10.69 C42 -7.41, 42.88 -3.76, 42.82 -1.43 M42.3 -10.69 C42.25 -8.58, 42.51 -6.05, 42.82 -1.43" stroke="#495057" stroke-width="1" fill="none"></path></g></g><mask></mask><g stroke-linecap="round"><g transform="translate(56.880097818278955 77.39066834628238) rotate(0 -0.08808065401626664 -7.282781515152692)"><path d="M0 0 C-0.63 -3.06, 0.54 -7.21, -0.18 -14.57 M0 0 C0.25 -4.12, -0.37 -8.43, -0.18 -14.57" stroke="#495057" stroke-width="1" fill="none"></path></g></g><mask></mask><g transform="translate(12.80827352020242 129.43442320638178) rotate(0 45 25)"><text x="45" y="0" font-family="Virgil, Segoe UI Emoji" font-size="20px" fill="#000000" text-anchor="middle" style="white-space: pre;" direction="ltr" dominant-baseline="text-before-edge">Active</text><text x="45" y="25" font-family="Virgil, Segoe UI Emoji" font-size="20px" fill="#000000" text-anchor="middle" style="white-space: pre;" direction="ltr" dominant-baseline="text-before-edge">Directory</text></g></svg>