<svg xmlns="http://www.w3.org/2000/svg" viewBox="4400.53 1877.88 283.68 109.65" width="284" height="110"><ellipse cx="4412.35" cy="1908.80" rx="5.82" ry="5.82" stroke="#2ba1e3" stroke-width="1" opacity="1.0" fill="none"/><ellipse cx="4429.13" cy="1908.90" rx="5.82" ry="5.82" stroke="#d9edf9" stroke-width="1" opacity="1.0" fill="none"/><ellipse cx="4445.46" cy="1908.79" rx="5.82" ry="5.82" stroke="#d9edf9" stroke-width="1" opacity="1.0" fill="none"/><ellipse cx="4461.84" cy="1909.14" rx="5.82" ry="5.82" stroke="#d9edf9" stroke-width="1" opacity="1.0" fill="none"/><ellipse cx="4478.14" cy="1908.72" rx="5.82" ry="5.82" stroke="#2ba1e3" stroke-width="1" opacity="1.0" fill="none"/><ellipse cx="4444.97" cy="1889.70" rx="5.82" ry="5.82" stroke="#d9edf9" stroke-width="1" opacity="1.0" fill="none"/><ellipse cx="4445.17" cy="1975.71" rx="5.82" ry="5.82" stroke="#d9edf9" stroke-width="1" opacity="1.0" fill="none"/><ellipse cx="4412.37" cy="1925.65" rx="5.82" ry="5.82" stroke="#2ba1e3" stroke-width="1" opacity="1.0" fill="none"/><ellipse cx="4429.01" cy="1925.75" rx="5.82" ry="5.82" stroke="#2ba1e3" stroke-width="1" opacity="1.0" fill="none"/><ellipse cx="4445.48" cy="1925.50" rx="5.82" ry="5.82" stroke="#d9edf9" stroke-width="1" opacity="1.0" fill="none"/><ellipse cx="4461.86" cy="1925.48" rx="5.82" ry="5.82" stroke="#2ba1e3" stroke-width="1" opacity="1.0" fill="none"/><ellipse cx="4478.16" cy="1925.56" rx="5.82" ry="5.82" stroke="#2ba1e3" stroke-width="1" opacity="1.0" fill="none"/><ellipse cx="4412.67" cy="1942.37" rx="5.82" ry="5.82" stroke="#2ba1e3" stroke-width="1" opacity="1.0" fill="none"/><ellipse cx="4428.94" cy="1942.33" rx="5.82" ry="5.82" stroke="#d9edf9" stroke-width="1" opacity="1.0" fill="none"/><ellipse cx="4445.27" cy="1942.36" rx="5.82" ry="5.82" stroke="#2ba1e3" stroke-width="1" opacity="1.0" fill="none"/><ellipse cx="4461.91" cy="1942.58" rx="5.82" ry="5.82" stroke="#d9edf9" stroke-width="1" opacity="1.0" fill="none"/><ellipse cx="4478.20" cy="1942.41" rx="5.82" ry="5.82" stroke="#2ba1e3" stroke-width="1" opacity="1.0" fill="none"/><ellipse cx="4412.37" cy="1958.91" rx="5.82" ry="5.82" stroke="#2ba1e3" stroke-width="1" opacity="1.0" fill="none"/><ellipse cx="4428.90" cy="1959.12" rx="5.82" ry="5.82" stroke="#d9edf9" stroke-width="1" opacity="1.0" fill="none"/><ellipse cx="4445.23" cy="1959.01" rx="5.82" ry="5.82" stroke="#d9edf9" stroke-width="1" opacity="1.0" fill="none"/><ellipse cx="4461.61" cy="1959.37" rx="5.82" ry="5.82" stroke="#d9edf9" stroke-width="1" opacity="1.0" fill="none"/><ellipse cx="4478.16" cy="1959.20" rx="5.82" ry="5.82" stroke="#2ba1e3" stroke-width="1" opacity="1.0" fill="none"/><text x="4495.29" y="1949.36" font-size="38.0357586473364" fill="#1e1e1e" opacity="1.0" font-family="sans-serif">Metabase</text></svg>