<svg xmlns="http://www.w3.org/2000/svg" viewBox="936.79 497.97 136.62 149.76" width="137" height="150"><polyline points="945.00,590.68 1047.12,590.76" fill="none" stroke="#000000" stroke-width="1" opacity="1.0" stroke-linecap="round" stroke-linejoin="round"/><polyline points="943.15,590.65 943.15,539.56" fill="none" stroke="#000000" stroke-width="1" opacity="1.0" stroke-linecap="round" stroke-linejoin="round"/><polyline points="1046.44,590.56 1046.44,539.48" fill="none" stroke="#000000" stroke-width="1" opacity="1.0" stroke-linecap="round" stroke-linejoin="round"/><polyline points="942.79,540.70 1045.27,540.68" fill="none" stroke="#000000" stroke-width="1" opacity="1.0" stroke-linecap="round" stroke-linejoin="round"/><polyline points="943.87,539.89 964.61,503.97" fill="none" stroke="#000000" stroke-width="1" opacity="1.0" stroke-linecap="round" stroke-linejoin="round"/><polyline points="1046.66,541.65 1025.92,505.74" fill="none" stroke="#000000" stroke-width="1" opacity="1.0" stroke-linecap="round" stroke-linejoin="round" transform="rotate(180.00 1057.03 559.61)"/><polyline points="964.64,504.34 1025.75,504.91" fill="none" stroke="#000000" stroke-width="1" opacity="1.0" stroke-linecap="round" stroke-linejoin="round"/><polyline points="968.46,511.63 1022.44,511.63" fill="none" stroke="#000000" stroke-width="1" opacity="1.0" stroke-linecap="round" stroke-linejoin="round"/><polyline points="964.54,517.99 1025.42,517.99" fill="none" stroke="#000000" stroke-width="1" opacity="1.0" stroke-linecap="round" stroke-linejoin="round"/><polyline points="960.91,523.48 1027.02,523.48" fill="none" stroke="#000000" stroke-width="1" opacity="1.0" stroke-linecap="round" stroke-linejoin="round"/><polyline points="958.08,528.63 1031.28,528.63" fill="none" stroke="#000000" stroke-width="1" opacity="1.0" stroke-linecap="round" stroke-linejoin="round"/><polyline points="955.31,532.96 1035.11,532.96" fill="none" stroke="#000000" stroke-width="1" opacity="1.0" stroke-linecap="round" stroke-linejoin="round"/><rect x="971.20" y="535.46" width="42.99" height="12.60" rx="0" stroke="#000000" stroke-width="1" opacity="1.0" fill="none"/><rect x="971.20" y="534.87" width="42.99" height="5.97" rx="0" stroke="#ffffff" stroke-width="1" opacity="1.0" fill="#ffffff"/><rect x="980.32" y="555.32" width="30.94" height="15.25" rx="0" stroke="#000000" stroke-width="1" opacity="1.0" fill="none"/><rect x="980.32" y="552.86" width="30.94" height="6.32" rx="0" stroke="#ffffff" stroke-width="1" opacity="1.0" fill="#ffffff"/><text x="992.14" y="583.47" font-size="10.116449850440043" fill="#ffffff" opacity="1.0" font-family="sans-serif">7</text><text x="966.25" y="587.44" font-size="17.12014590074468" fill="#000000" opacity="1.0" font-family="sans-serif">Archive</text></svg>