<svg version="1.1" xmlns="http://www.w3.org/2000/svg" viewBox="0 0 62.91143395807467 70.69315328161042" width="62.91143395807467" height="70.69315328161042">
  <!-- svg-source:excalidraw -->
  
  <defs>
    
    
  </defs>
  <g stroke-linecap="round"><g transform="translate(6.745575144181203 12.023903176541126) rotate(0 25.033164063599543 23.641764100109526)" fill-rule="evenodd"><path d="M0 0 C0 6.68, -0.15 32.21, 0 40.1 C0.15 47.99, -0.27 45.7, 0.88 47.35 C2.03 49.01, 4.39 49.22, 6.9 50.02 C9.4 50.81, 12.81 51.68, 15.92 52.13 C19.02 52.57, 22.56 52.67, 25.53 52.67 C28.5 52.67, 31.09 52.44, 33.74 52.13 C36.4 51.81, 38.88 51.63, 41.44 50.79 C44.01 49.94, 47.76 48.85, 49.12 47.07 C50.49 45.29, 49.49 47.04, 49.65 40.1 C49.81 33.17, 50.1 12.18, 50.07 5.46 C50.03 -1.25, 50.58 1.27, 49.43 -0.17 C48.29 -1.62, 45.41 -2.4, 43.21 -3.18 C41.01 -3.97, 38.9 -4.52, 36.23 -4.89 C33.55 -5.25, 29.62 -5.3, 27.15 -5.39 C24.67 -5.47, 24.39 -5.55, 21.38 -5.37 C18.38 -5.19, 12.68 -5.18, 9.11 -4.29 C5.55 -3.39, 1.52 -0.71, 0 0" stroke="none" stroke-width="0" fill="#fa5252" fill-rule="evenodd"></path><path d="M0 0 C0 6.68, -0.15 32.21, 0 40.1 C0.15 47.99, -0.27 45.7, 0.88 47.35 C2.03 49.01, 4.39 49.22, 6.9 50.02 C9.4 50.81, 12.81 51.68, 15.92 52.13 C19.02 52.57, 22.56 52.67, 25.53 52.67 C28.5 52.67, 31.09 52.44, 33.74 52.13 C36.4 51.81, 38.88 51.63, 41.44 50.79 C44.01 49.94, 47.76 48.85, 49.12 47.07 C50.49 45.29, 49.49 47.04, 49.65 40.1 C49.81 33.17, 50.1 12.18, 50.07 5.46 C50.03 -1.25, 50.58 1.27, 49.43 -0.17 C48.29 -1.62, 45.41 -2.4, 43.21 -3.18 C41.01 -3.97, 38.9 -4.52, 36.23 -4.89 C33.55 -5.25, 29.62 -5.3, 27.15 -5.39 C24.67 -5.47, 24.39 -5.55, 21.38 -5.37 C18.38 -5.19, 12.68 -5.18, 9.11 -4.29 C5.55 -3.39, 1.52 -0.71, 0 0 M0 0 C0 6.68, -0.15 32.21, 0 40.1 C0.15 47.99, -0.27 45.7, 0.88 47.35 C2.03 49.01, 4.39 49.22, 6.9 50.02 C9.4 50.81, 12.81 51.68, 15.92 52.13 C19.02 52.57, 22.56 52.67, 25.53 52.67 C28.5 52.67, 31.09 52.44, 33.74 52.13 C36.4 51.81, 38.88 51.63, 41.44 50.79 C44.01 49.94, 47.76 48.85, 49.12 47.07 C50.49 45.29, 49.49 47.04, 49.65 40.1 C49.81 33.17, 50.1 12.18, 50.07 5.46 C50.03 -1.25, 50.58 1.27, 49.43 -0.17 C48.29 -1.62, 45.41 -2.4, 43.21 -3.18 C41.01 -3.97, 38.9 -4.52, 36.23 -4.89 C33.55 -5.25, 29.62 -5.3, 27.15 -5.39 C24.67 -5.47, 24.39 -5.55, 21.38 -5.37 C18.38 -5.19, 12.68 -5.18, 9.11 -4.29 C5.55 -3.39, 1.52 -0.71, 0 0" stroke="#c92a2a" stroke-width="1" fill="none"></path></g></g><mask></mask><g stroke-linecap="round" transform="translate(6 6) rotate(0 24.98884180082632 6.7943381165287065)"><path d="M49.98 6.79 C49.98 7.19, 49.85 7.59, 49.6 7.97 C49.35 8.36, 48.97 8.75, 48.47 9.12 C47.98 9.49, 47.35 9.85, 46.63 10.19 C45.91 10.53, 45.06 10.86, 44.13 11.16 C43.2 11.46, 42.16 11.75, 41.05 12 C39.94 12.25, 38.74 12.48, 37.48 12.68 C36.23 12.88, 34.89 13.04, 33.54 13.18 C32.18 13.31, 30.75 13.42, 29.33 13.49 C27.9 13.55, 26.44 13.59, 24.99 13.59 C23.54 13.59, 22.07 13.55, 20.65 13.49 C19.23 13.42, 17.8 13.31, 16.44 13.18 C15.08 13.04, 13.75 12.88, 12.49 12.68 C11.24 12.48, 10.03 12.25, 8.93 12 C7.82 11.75, 6.78 11.46, 5.85 11.16 C4.92 10.86, 4.07 10.53, 3.35 10.19 C2.62 9.85, 2 9.49, 1.51 9.12 C1.01 8.75, 0.63 8.36, 0.38 7.97 C0.13 7.59, 0 7.19, 0 6.79 C0 6.4, 0.13 6, 0.38 5.61 C0.63 5.23, 1.01 4.84, 1.51 4.47 C2 4.1, 2.62 3.74, 3.35 3.4 C4.07 3.06, 4.92 2.73, 5.85 2.43 C6.78 2.13, 7.82 1.84, 8.93 1.59 C10.03 1.34, 11.24 1.11, 12.49 0.91 C13.75 0.71, 15.08 0.54, 16.44 0.41 C17.8 0.28, 19.23 0.17, 20.65 0.1 C22.07 0.03, 23.54 0, 24.99 0 C26.44 0, 27.9 0.03, 29.33 0.1 C30.75 0.17, 32.18 0.28, 33.54 0.41 C34.89 0.54, 36.23 0.71, 37.48 0.91 C38.74 1.11, 39.94 1.34, 41.05 1.59 C42.16 1.84, 43.2 2.13, 44.13 2.43 C45.06 2.73, 45.91 3.06, 46.63 3.4 C47.35 3.74, 47.98 4.1, 48.47 4.47 C48.97 4.84, 49.35 5.23, 49.6 5.61 C49.85 6, 49.91 6.6, 49.98 6.79 C50.04 6.99, 50.04 6.6, 49.98 6.79" stroke="none" stroke-width="0" fill="#ffffff"></path><path d="M49.98 6.79 C49.98 7.19, 49.85 7.59, 49.6 7.97 C49.35 8.36, 48.97 8.75, 48.47 9.12 C47.98 9.49, 47.35 9.85, 46.63 10.19 C45.91 10.53, 45.06 10.86, 44.13 11.16 C43.2 11.46, 42.16 11.75, 41.05 12 C39.94 12.25, 38.74 12.48, 37.48 12.68 C36.23 12.88, 34.89 13.04, 33.54 13.18 C32.18 13.31, 30.75 13.42, 29.33 13.49 C27.9 13.55, 26.44 13.59, 24.99 13.59 C23.54 13.59, 22.07 13.55, 20.65 13.49 C19.23 13.42, 17.8 13.31, 16.44 13.18 C15.08 13.04, 13.75 12.88, 12.49 12.68 C11.24 12.48, 10.03 12.25, 8.93 12 C7.82 11.75, 6.78 11.46, 5.85 11.16 C4.92 10.86, 4.07 10.53, 3.35 10.19 C2.62 9.85, 2 9.49, 1.51 9.12 C1.01 8.75, 0.63 8.36, 0.38 7.97 C0.13 7.59, 0 7.19, 0 6.79 C0 6.4, 0.13 6, 0.38 5.61 C0.63 5.23, 1.01 4.84, 1.51 4.47 C2 4.1, 2.62 3.74, 3.35 3.4 C4.07 3.06, 4.92 2.73, 5.85 2.43 C6.78 2.13, 7.82 1.84, 8.93 1.59 C10.03 1.34, 11.24 1.11, 12.49 0.91 C13.75 0.71, 15.08 0.54, 16.44 0.41 C17.8 0.28, 19.23 0.17, 20.65 0.1 C22.07 0.03, 23.54 0, 24.99 0 C26.44 0, 27.9 0.03, 29.33 0.1 C30.75 0.17, 32.18 0.28, 33.54 0.41 C34.89 0.54, 36.23 0.71, 37.48 0.91 C38.74 1.11, 39.94 1.34, 41.05 1.59 C42.16 1.84, 43.2 2.13, 44.13 2.43 C45.06 2.73, 45.91 3.06, 46.63 3.4 C47.35 3.74, 47.98 4.1, 48.47 4.47 C48.97 4.84, 49.35 5.23, 49.6 5.61 C49.85 6, 49.91 6.6, 49.98 6.79 C50.04 6.99, 50.04 6.6, 49.98 6.79" stroke="#c92a2a" stroke-width="1" fill="none"></path></g><g transform="translate(12.084177866308892 25.231825345898187) rotate(0 20 10)"><text x="20" y="0" font-family="Virgil, Segoe UI Emoji" font-size="16px" fill="#000000" text-anchor="middle" style="white-space: pre;" direction="ltr" dominant-baseline="text-before-edge">INC0</text></g></svg>