<svg xmlns="http://www.w3.org/2000/svg" viewBox="4807.68 929.66 254.09 90.49" width="254" height="90"><polyline points="4842.12,967.68 4819.18,980.93 4816.57,983.59 4814.67,986.95 4813.68,990.92 4814.05,995.32 4815.65,999.31 4817.90,1002.36 4820.89,1004.56 4825.05,1006.21 4829.82,1006.51 4833.68,1005.28 4836.92,1003.14 4839.24,1000.74 4841.07,997.62 4841.93,994.25 4842.12,967.68" fill="none" stroke="#485aff" stroke-width="1" opacity="1.0" stroke-linecap="round" stroke-linejoin="round"/><polyline points="4835.13,979.63 4823.15,986.55 4821.74,988.14 4820.69,990.58 4820.63,993.27 4821.34,995.92 4823.23,998.12 4826.04,999.41 4829.56,999.47 4832.37,998.18 4834.08,996.07 4835.28,993.82 4835.13,979.63" fill="#ffffff" stroke="#485aff" stroke-width="1" opacity="1.0" stroke-linecap="round" stroke-linejoin="round"/><polyline points="4869.72,935.66 4846.78,948.91 4844.17,951.56 4842.27,954.92 4841.28,958.90 4841.65,963.30 4843.25,967.29 4845.50,970.33 4848.49,972.53 4852.65,974.18 4857.43,974.49 4861.28,973.26 4864.52,971.11 4866.84,968.72 4868.67,965.59 4869.53,962.22 4869.72,935.66" fill="none" stroke="#485aff" stroke-width="1" opacity="1.0" stroke-linecap="round" stroke-linejoin="round" transform="rotate(120.00 4883.94 955.07)"/><polyline points="4860.53,943.98 4848.55,950.90 4847.13,952.49 4846.09,954.93 4846.03,957.62 4846.74,960.27 4848.63,962.47 4851.43,963.76 4854.96,963.81 4857.77,962.53 4859.48,960.42 4860.68,958.17 4860.53,943.98" fill="#ffffff" stroke="#485aff" stroke-width="1" opacity="1.0" stroke-linecap="round" stroke-linejoin="round" transform="rotate(120.00 4867.86 953.90)"/><polyline points="4883.72,975.33 4860.78,988.57 4858.17,991.23 4856.27,994.59 4855.28,998.56 4855.65,1002.97 4857.25,1006.95 4859.50,1010.00 4862.49,1012.20 4866.65,1013.85 4871.42,1014.15 4875.28,1012.93 4878.52,1010.78 4880.84,1008.39 4882.67,1005.26 4883.53,1001.89 4883.72,975.33" fill="none" stroke="#485aff" stroke-width="1" opacity="1.0" stroke-linecap="round" stroke-linejoin="round" transform="rotate(239.83 4897.94 994.74)"/><polyline points="4878.77,983.54 4866.79,990.46 4865.37,992.05 4864.33,994.50 4864.27,997.19 4864.98,999.83 4866.87,1002.04 4869.67,1003.32 4873.20,1003.38 4876.01,1002.09 4877.72,999.99 4878.92,997.74 4878.77,983.54" fill="#ffffff" stroke="#485aff" stroke-width="1" opacity="1.0" stroke-linecap="round" stroke-linejoin="round" transform="rotate(239.83 4886.10 993.46)"/><text x="4901.96" y="997.28" font-size="56.51693806304035" fill="#000000" opacity="1.0" font-family="sans-serif">CORE</text></svg>