<svg version="1.1" xmlns="http://www.w3.org/2000/svg" viewBox="0 0 224.09443278096296 93.73136981043092" width="224.09443278096296" height="93.73136981043092">
  <!-- svg-source:excalidraw -->
  
  <defs>
    
    
  </defs>
  <g stroke-linecap="round"><g transform="translate(6 37.29758506287851) rotate(0 24.110816909234472 15.631130980344665)" fill-rule="evenodd"><path d="M0 0 C0 0, 0 0, 0 0 M0 0 C0 0, 0 0, 0 0 M-0.26 6.4 C1.62 4.24, 3.5 2.07, 4.99 0.36 M-0.26 6.4 C1.33 4.56, 2.93 2.73, 4.99 0.36 M0.13 12.04 C1.95 9.96, 3.76 7.87, 8.01 2.98 M0.13 12.04 C2.24 9.62, 4.34 7.2, 8.01 2.98 M-0.13 18.44 C6.16 11.2, 12.46 3.96, 16.27 -0.43 M-0.13 18.44 C3.41 14.37, 6.95 10.29, 16.27 -0.43 M0.27 24.08 C3.01 20.93, 5.75 17.77, 8.14 15.03 M0.27 24.08 C2.23 21.83, 4.19 19.57, 8.14 15.03 M15.36 6.72 C17.15 4.66, 18.94 2.6, 21.26 -0.07 M15.36 6.72 C16.91 4.94, 18.46 3.15, 21.26 -0.07 M0 30.48 C2.23 27.92, 4.46 25.35, 8.53 20.67 M0 30.48 C1.85 28.35, 3.7 26.22, 8.53 20.67 M19.03 8.59 C21.1 6.21, 23.17 3.83, 24.94 1.8 M19.03 8.59 C20.78 6.58, 22.53 4.57, 24.94 1.8 M3.02 33.1 C4.09 31.88, 5.16 30.65, 8.27 27.07 M3.02 33.1 C5.03 30.8, 7.03 28.5, 8.27 27.07 M20.74 12.73 C23.07 10.04, 25.41 7.36, 30.58 1.41 M20.74 12.73 C22.82 10.33, 24.9 7.94, 30.58 1.41 M21.13 18.37 C23.18 16.01, 25.23 13.66, 29.66 8.56 M21.13 18.37 C23.26 15.92, 25.38 13.48, 29.66 8.56 M29.66 8.56 C31.67 6.25, 33.68 3.93, 37.53 -0.5 M29.66 8.56 C31.62 6.3, 33.58 4.05, 37.53 -0.5 M20.87 24.77 C23.51 21.73, 26.14 18.7, 28.09 16.47 M20.87 24.77 C23.19 22.1, 25.5 19.44, 28.09 16.47 M36.62 6.65 C38.59 4.38, 40.57 2.11, 41.86 0.62 M36.62 6.65 C38.17 4.87, 39.73 3.08, 41.86 0.62 M20.61 31.17 C22.08 29.48, 23.54 27.79, 27.83 22.86 M20.61 31.17 C23.45 27.9, 26.29 24.63, 27.83 22.86 M39.63 9.28 C41.72 6.88, 43.8 4.49, 45.54 2.49 M39.63 9.28 C41.9 6.67, 44.17 4.06, 45.54 2.49 M24.94 32.28 C25.95 31.12, 26.96 29.96, 28.22 28.51 M24.94 32.28 C25.79 31.3, 26.64 30.33, 28.22 28.51 M41.34 13.41 C42.61 11.96, 43.87 10.5, 47.25 6.62 M41.34 13.41 C43.65 10.76, 45.96 8.1, 47.25 6.62 M41.08 19.81 C43.15 17.43, 45.22 15.05, 48.95 10.75 M41.08 19.81 C42.69 17.96, 44.29 16.12, 48.95 10.75 M40.82 26.21 C43.76 22.83, 46.69 19.45, 48.69 17.15 M40.82 26.21 C43.48 23.15, 46.13 20.09, 48.69 17.15 M40.56 32.61 C43.55 29.16, 46.55 25.71, 48.43 23.55 M40.56 32.61 C43.01 29.78, 45.46 26.96, 48.43 23.55 M46.2 32.21 C47.04 31.25, 47.87 30.29, 48.82 29.19 M46.2 32.21 C46.97 31.33, 47.74 30.44, 48.82 29.19" stroke="#000000" stroke-width="0.5" fill="none"></path><path d="M0 0 C2.64 0, 5.28 0, 7.35 0 M0 0 C2.47 0, 4.95 0, 7.35 0 M7.35 0 C7.35 1.01, 7.35 2.02, 7.35 4.07 M7.35 0 C7.35 1.1, 7.35 2.21, 7.35 4.07 M7.35 4.07 C7.84 3.39, 8.34 2.7, 8.74 2.14 M7.35 4.07 C7.71 3.58, 8.07 3.08, 8.74 2.14 M8.74 2.14 C9.31 1.75, 9.88 1.36, 10.78 0.74 M8.74 2.14 C9.34 1.73, 9.94 1.32, 10.78 0.74 M10.78 0.74 C11.57 0.39, 12.35 0.04, 13.51 -0.48 M10.78 0.74 C11.49 0.43, 12.19 0.11, 13.51 -0.48 M13.51 -0.48 C14.36 -0.59, 15.2 -0.69, 16.37 -0.83 M13.51 -0.48 C14.56 -0.61, 15.61 -0.74, 16.37 -0.83 M16.37 -0.83 C17.43 -0.75, 18.49 -0.67, 19.34 -0.6 M16.37 -0.83 C17.4 -0.75, 18.43 -0.67, 19.34 -0.6 M19.34 -0.6 C19.98 -0.42, 20.63 -0.23, 21.96 0.15 M19.34 -0.6 C20.14 -0.37, 20.93 -0.14, 21.96 0.15 M21.96 0.15 C22.77 0.67, 23.59 1.18, 24.35 1.67 M21.96 0.15 C22.63 0.57, 23.29 1, 24.35 1.67 M24.35 1.67 C24.8 2.3, 25.26 2.94, 26.5 4.69 M24.35 1.67 C25.04 2.63, 25.73 3.6, 26.5 4.69 M26.5 4.69 C26.9 4.1, 27.3 3.5, 27.84 2.7 M26.5 4.69 C26.83 4.19, 27.17 3.7, 27.84 2.7 M27.84 2.7 C28.53 2.15, 29.23 1.6, 30.11 0.89 M27.84 2.7 C28.58 2.12, 29.31 1.53, 30.11 0.89 M30.11 0.89 C30.9 0.53, 31.7 0.16, 33.02 -0.45 M30.11 0.89 C30.71 0.62, 31.31 0.34, 33.02 -0.45 M33.02 -0.45 C34.27 -0.67, 35.52 -0.88, 36.4 -1.04 M33.02 -0.45 C33.77 -0.58, 34.53 -0.71, 36.4 -1.04 M36.4 -1.04 C37.59 -0.9, 38.78 -0.77, 39.55 -0.69 M36.4 -1.04 C37.46 -0.92, 38.52 -0.8, 39.55 -0.69 M39.55 -0.69 C40.47 -0.32, 41.4 0.05, 42.92 0.65 M39.55 -0.69 C40.27 -0.4, 40.99 -0.12, 42.92 0.65 M42.92 0.65 C43.9 1.46, 44.87 2.26, 46.01 3.21 M42.92 0.65 C44.09 1.62, 45.26 2.59, 46.01 3.21 M46.01 3.21 C46.36 3.97, 46.7 4.72, 47.58 6.65 M46.01 3.21 C46.47 4.21, 46.93 5.21, 47.58 6.65 M47.58 6.65 C47.75 7.69, 47.92 8.73, 48.22 10.67 M47.58 6.65 C47.78 7.89, 47.98 9.13, 48.22 10.67 M48.22 10.67 C48.22 15.77, 48.22 20.88, 48.22 32.23 M48.22 10.67 C48.22 18.15, 48.22 25.64, 48.22 32.23 M48.22 32.23 C45.44 32.23, 42.67 32.23, 40.74 32.23 M48.22 32.23 C46.32 32.23, 44.43 32.23, 40.74 32.23 M40.74 32.23 C40.74 26.42, 40.74 20.61, 40.74 11.86 M40.74 32.23 C40.74 26.79, 40.74 21.36, 40.74 11.86 M40.74 11.86 C40.56 11.11, 40.37 10.35, 40.09 9.23 M40.74 11.86 C40.49 10.85, 40.24 9.84, 40.09 9.23 M40.09 9.23 C39.59 8.55, 39.09 7.86, 38.69 7.3 M40.09 9.23 C39.77 8.79, 39.44 8.34, 38.69 7.3 M38.69 7.3 C38.22 7.07, 37.75 6.83, 36.58 6.25 M38.69 7.3 C38.23 7.07, 37.77 6.84, 36.58 6.25 M36.58 6.25 C35.53 6.21, 34.49 6.16, 33.72 6.13 M36.58 6.25 C35.96 6.22, 35.34 6.2, 33.72 6.13 M33.72 6.13 C33.04 6.36, 32.35 6.58, 31.26 6.95 M33.72 6.13 C32.94 6.39, 32.17 6.65, 31.26 6.95 M31.26 6.95 C30.75 7.41, 30.24 7.87, 29.33 8.69 M31.26 6.95 C30.7 7.46, 30.13 7.97, 29.33 8.69 M29.33 8.69 C28.97 9.41, 28.61 10.14, 28.22 10.9 M29.33 8.69 C28.91 9.54, 28.48 10.39, 28.22 10.9 M28.22 10.9 C28.15 11.76, 28.07 12.62, 27.99 13.47 M28.22 10.9 C28.15 11.76, 28.07 12.61, 27.99 13.47 M27.99 13.47 C27.99 19.55, 27.99 25.63, 27.99 32.18 M27.99 13.47 C27.99 20.46, 27.99 27.45, 27.99 32.18 M27.99 32.18 C25.88 32.18, 23.77 32.18, 20.45 32.18 M27.99 32.18 C25.79 32.18, 23.6 32.18, 20.45 32.18 M20.45 32.18 C20.45 27.98, 20.45 23.77, 20.45 12.16 M20.45 32.18 C20.45 24.5, 20.45 16.82, 20.45 12.16 M20.45 12.16 C20.31 11.36, 20.17 10.57, 20.04 9.82 M20.45 12.16 C20.31 11.39, 20.18 10.62, 20.04 9.82 M20.04 9.82 C19.5 9.03, 18.97 8.24, 18.69 7.83 M20.04 9.82 C19.56 9.11, 19.08 8.4, 18.69 7.83 M18.69 7.83 C17.92 7.29, 17.16 6.75, 16.7 6.43 M18.69 7.83 C18.09 7.41, 17.49 6.99, 16.7 6.43 M16.7 6.43 C15.82 6.33, 14.93 6.23, 13.54 6.08 M16.7 6.43 C15.5 6.3, 14.31 6.16, 13.54 6.08 M13.54 6.08 C13.02 6.22, 12.49 6.37, 11.03 6.78 M13.54 6.08 C12.91 6.25, 12.28 6.43, 11.03 6.78 M11.03 6.78 C10.33 7.38, 9.62 7.98, 8.93 8.58 M11.03 6.78 C10.22 7.47, 9.41 8.17, 8.93 8.58 M8.93 8.58 C8.66 9.2, 8.39 9.81, 7.82 11.14 M8.93 8.58 C8.57 9.41, 8.2 10.25, 7.82 11.14 M7.82 11.14 C7.79 11.78, 7.76 12.42, 7.7 14.11 M7.82 11.14 C7.79 11.9, 7.76 12.65, 7.7 14.11 M7.7 14.11 C7.7 18.43, 7.7 22.75, 7.7 32.3 M7.7 14.11 C7.7 18.89, 7.7 23.67, 7.7 32.3 M7.7 32.3 C5.73 32.3, 3.75 32.3, 0.04 32.3 M7.7 32.3 C5.32 32.3, 2.94 32.3, 0.04 32.3 M0.04 32.3 C0.03 19.84, 0.01 7.39, 0 0 M0.04 32.3 C0.03 22.72, 0.02 13.13, 0 0 M0 0 C0 0, 0 0, 0 0 M0 0 C0 0, 0 0, 0 0" stroke="#1f3453" stroke-width="1" fill="none"></path></g></g><mask></mask><g stroke-linecap="round"><g transform="translate(63.472333769846045 21.72078186549311) rotate(0 3.812342045292553 23.913181244738837)" fill-rule="evenodd"><path d="M0 0 C0 0, 0 0, 0 0 M0 0 C0 0, 0 0, 0 0 M-0.26 6.4 C1.24 4.67, 2.73 2.95, 4.99 0.36 M-0.26 6.4 C1.82 4, 3.91 1.6, 4.99 0.36 M0.13 12.04 C2.24 9.62, 4.35 7.19, 8.01 2.98 M0.13 12.04 C3.28 8.42, 6.43 4.8, 8.01 2.98 M-0.13 18.44 C1.46 16.61, 3.04 14.79, 7.74 9.38 M-0.13 18.44 C1.59 16.46, 3.3 14.49, 7.74 9.38 M0.27 24.08 C1.85 22.26, 3.44 20.44, 7.48 15.78 M0.27 24.08 C2.27 21.77, 4.28 19.47, 7.48 15.78 M0 30.48 C2.92 27.13, 5.83 23.78, 7.88 21.42 M0 30.48 C2.27 27.88, 4.53 25.28, 7.88 21.42 M-0.26 36.88 C2.09 34.18, 4.43 31.48, 7.62 27.82 M-0.26 36.88 C1.32 35.06, 2.9 33.25, 7.62 27.82 M0.14 42.52 C1.97 40.41, 3.81 38.3, 8.01 33.46 M0.14 42.52 C2.37 39.96, 4.59 37.4, 8.01 33.46 M0.53 48.16 C2.5 45.9, 4.46 43.64, 7.75 39.86 M0.53 48.16 C2.55 45.84, 4.57 43.52, 7.75 39.86 M5.52 48.52 C6.24 47.7, 6.95 46.88, 7.49 46.26 M5.52 48.52 C6.07 47.89, 6.61 47.26, 7.49 46.26" stroke="#000000" stroke-width="0.5" fill="none"></path><path d="M0 0 C0 12.81, 0 25.62, 0 47.83 M0 0 C0 13.19, 0 26.38, 0 47.83 M0 47.83 C2.77 47.83, 5.53 47.83, 7.62 47.83 M0 47.83 C2.14 47.83, 4.27 47.83, 7.62 47.83 M7.62 47.83 C7.62 34.1, 7.62 20.37, 7.62 0.03 M7.62 47.83 C7.62 30.36, 7.62 12.88, 7.62 0.03 M7.62 0.03 C5.64 0.02, 3.66 0.02, 0 0 M7.62 0.03 C4.95 0.02, 2.28 0.01, 0 0 M0 0 C0 0, 0 0, 0 0 M0 0 C0 0, 0 0, 0 0" stroke="#1f3453" stroke-width="1" fill="none"></path></g></g><mask></mask><g stroke-linecap="round"><g transform="translate(80.22799302281965 29.53616980066022) rotate(0 10.951035277734263 17.32951510455524)" fill-rule="evenodd"><path d="M0 0 C0 0, 0 0, 0 0 M0 0 C0 0, 0 0, 0 0 M-0.92 7.15 C1.2 4.72, 3.32 2.28, 4.99 0.36 M-0.92 7.15 C1.41 4.48, 3.74 1.8, 4.99 0.36 M12.2 -7.94 C15.82 -12.1, 19.43 -16.25, 25.32 -23.04 M12.2 -7.94 C16.2 -12.54, 20.2 -17.14, 25.32 -23.04 M4.73 6.76 C15.02 -5.08, 25.31 -16.92, 30.97 -23.43 M4.73 6.76 C11.53 -1.07, 18.34 -8.9, 30.97 -23.43 M8.4 8.63 C13.05 3.28, 17.69 -2.06, 20.21 -4.96 M8.4 8.63 C11.17 5.45, 13.93 2.26, 20.21 -4.96 M30.05 -16.28 C30.87 -17.22, 31.69 -18.17, 33.33 -20.05 M30.05 -16.28 C31.25 -17.66, 32.45 -19.03, 33.33 -20.05 M6.83 16.53 C9.63 13.31, 12.43 10.09, 20.6 0.69 M6.83 16.53 C9.76 13.16, 12.69 9.78, 20.6 0.69 M5.25 24.44 C8.2 21.06, 11.14 17.67, 17.06 10.86 M5.25 24.44 C9.13 19.99, 13 15.53, 17.06 10.86 M20.34 7.08 C22.04 5.13, 23.74 3.17, 25.59 1.05 M20.34 7.08 C22.01 5.17, 23.67 3.25, 25.59 1.05 M3.68 32.35 C8.24 27.1, 12.81 21.85, 15.49 18.76 M3.68 32.35 C6.15 29.51, 8.62 26.67, 15.49 18.76 M25.99 6.69 C26.79 5.76, 27.6 4.84, 29.92 2.16 M25.99 6.69 C27.24 5.24, 28.5 3.8, 29.92 2.16 M-11.02 55.35 C-10.23 54.45, -9.45 53.55, -7.73 51.58 M-11.02 55.35 C-10.31 54.54, -9.6 53.73, -7.73 51.58 M2.11 40.26 C4.75 37.21, 7.4 34.17, 13.92 26.67 M2.11 40.26 C6.65 35.03, 11.19 29.8, 13.92 26.67 M-8 57.97 C-2.7 51.88, 2.6 45.78, 12.34 34.58 M-8 57.97 C0.11 48.65, 8.21 39.33, 12.34 34.58 M-3.01 58.33 C2.38 52.14, 7.77 45.94, 10.77 42.49 M-3.01 58.33 C2.19 52.36, 7.38 46.38, 10.77 42.49" stroke="#0097e1" stroke-width="0.5" fill="none"></path><path d="M0 0 C3.86 0, 7.73 0, 10.48 0 M0 0 C3.96 0, 7.93 0, 10.48 0 M10.48 0 C11.3 -4.22, 12.11 -8.45, 12.78 -11.91 M10.48 0 C11.14 -3.41, 11.8 -6.82, 12.78 -11.91 M12.78 -11.91 C13.15 -12.89, 13.52 -13.86, 14.32 -15.97 M12.78 -11.91 C13.26 -13.18, 13.75 -14.46, 14.32 -15.97 M14.32 -15.97 C14.82 -16.63, 15.32 -17.29, 16.83 -19.26 M14.32 -15.97 C14.86 -16.69, 15.41 -17.4, 16.83 -19.26 M16.83 -19.26 C17.64 -19.96, 18.44 -20.66, 19.97 -21.99 M16.83 -19.26 C17.92 -20.21, 19.02 -21.17, 19.97 -21.99 M19.97 -21.99 C21.26 -22.4, 22.56 -22.81, 24.86 -23.54 M19.97 -21.99 C21.55 -22.49, 23.13 -22.99, 24.86 -23.54 M24.86 -23.54 C27.22 -23.51, 29.59 -23.48, 30.8 -23.47 M24.86 -23.54 C27.13 -23.51, 29.4 -23.49, 30.8 -23.47 M30.8 -23.47 C31.89 -23.24, 32.98 -23, 34.08 -22.77 M30.8 -23.47 C31.66 -23.29, 32.53 -23.1, 34.08 -22.77 M34.08 -22.77 C33.48 -20.68, 32.88 -18.58, 32.25 -16.41 M34.08 -22.77 C33.42 -20.48, 32.76 -18.18, 32.25 -16.41 M32.25 -16.41 C31.35 -16.44, 30.44 -16.47, 28.12 -16.56 M32.25 -16.41 C30.62 -16.47, 28.99 -16.52, 28.12 -16.56 M28.12 -16.56 C27.1 -16.19, 26.08 -15.82, 24.62 -15.3 M28.12 -16.56 C26.8 -16.08, 25.49 -15.61, 24.62 -15.3 M24.62 -15.3 C23.92 -14.6, 23.22 -13.91, 22.02 -12.72 M24.62 -15.3 C23.92 -14.6, 23.22 -13.91, 22.02 -12.72 M22.02 -12.72 C21.71 -11.94, 21.39 -11.17, 20.48 -8.94 M22.02 -12.72 C21.46 -11.34, 20.9 -9.97, 20.48 -8.94 M20.48 -8.94 C19.98 -6.62, 19.48 -4.3, 18.52 0.13 M20.48 -8.94 C19.83 -5.92, 19.18 -2.9, 18.52 0.13 M18.52 0.13 C22.87 0.13, 27.22 0.13, 30.19 0.13 M18.52 0.13 C20.91 0.13, 23.31 0.13, 30.19 0.13 M30.19 0.13 C29.75 1.95, 29.32 3.77, 28.65 6.56 M30.19 0.13 C29.84 1.59, 29.49 3.05, 28.65 6.56 M28.65 6.56 C24.39 6.56, 20.13 6.56, 17.31 6.56 M28.65 6.56 C26.06 6.56, 23.47 6.56, 17.31 6.56 M17.31 6.56 C15.04 17.86, 12.76 29.17, 9.33 46.26 M17.31 6.56 C15 18.05, 12.69 29.54, 9.33 46.26 M9.33 46.26 C8.72 47.83, 8.12 49.4, 7.71 50.45 M9.33 46.26 C8.83 47.54, 8.34 48.82, 7.71 50.45 M7.71 50.45 C6.96 51.52, 6.22 52.58, 5.4 53.73 M7.71 50.45 C7.13 51.28, 6.55 52.11, 5.4 53.73 M5.4 53.73 C4.78 54.2, 4.17 54.67, 2.46 55.97 M5.4 53.73 C4.36 54.52, 3.32 55.31, 2.46 55.97 M2.46 55.97 C1.56 56.37, 0.65 56.78, -0.62 57.36 M2.46 55.97 C1.4 56.45, 0.34 56.93, -0.62 57.36 M-0.62 57.36 C-1.6 57.59, -2.57 57.82, -3.85 58.13 M-0.62 57.36 C-1.39 57.54, -2.15 57.72, -3.85 58.13 M-3.85 58.13 C-4.84 58.14, -5.83 58.16, -8.47 58.2 M-3.85 58.13 C-5.64 58.15, -7.43 58.18, -8.47 58.2 M-8.47 58.2 C-9.76 57.93, -11.06 57.65, -12.18 57.42 M-8.47 58.2 C-9.44 57.99, -10.42 57.79, -12.18 57.42 M-12.18 57.42 C-11.51 55.12, -10.84 52.82, -10.23 50.7 M-12.18 57.42 C-11.59 55.39, -11 53.36, -10.23 50.7 M-10.23 50.7 C-9.47 50.82, -8.72 50.93, -7.01 51.19 M-10.23 50.7 C-9.31 50.84, -8.39 50.98, -7.01 51.19 M-7.01 51.19 C-6.19 50.97, -5.37 50.76, -3.8 50.35 M-7.01 51.19 C-5.73 50.85, -4.44 50.51, -3.8 50.35 M-3.8 50.35 C-2.92 49.77, -2.05 49.2, -1.01 48.52 M-3.8 50.35 C-3.23 49.98, -2.66 49.61, -1.01 48.52 M-1.01 48.52 C-0.23 47.28, 0.54 46.04, 1.09 45.16 M-1.01 48.52 C-0.4 47.55, 0.21 46.57, 1.09 45.16 M1.09 45.16 C1.38 43.83, 1.68 42.5, 1.99 41.1 M1.09 45.16 C1.32 44.1, 1.56 43.04, 1.99 41.1 M1.99 41.1 C3.52 33.44, 5.05 25.78, 8.91 6.46 M1.99 41.1 C4.62 27.95, 7.24 14.81, 8.91 6.46 M8.91 6.46 C5.92 6.46, 2.94 6.46, -1.24 6.46 M8.91 6.46 C5.38 6.46, 1.85 6.46, -1.24 6.46 M-1.24 6.46 C-0.76 3.98, -0.29 1.5, 0 0 M-1.24 6.46 C-0.79 4.1, -0.33 1.74, 0 0 M0 0 C0 0, 0 0, 0 0 M0 0 C0 0, 0 0, 0 0" stroke="#0097e1" stroke-width="1" fill="none"></path></g></g><mask></mask><g stroke-linecap="round"><g transform="translate(118.78514083786104 21.266733284266934) rotate(0 -1.4856888095423528 24.01309016860091)" fill-rule="evenodd"><path d="M0 0 C0 0, 0 0, 0 0 M0 0 C0 0, 0 0, 0 0 M-1.57 7.91 C0.03 6.06, 1.64 4.21, 4.99 0.36 M-1.57 7.91 C-0.15 6.27, 1.28 4.63, 4.99 0.36 M-3.8 16.57 C0.13 12.05, 4.06 7.53, 6.69 4.49 M-3.8 16.57 C-1.28 13.67, 1.24 10.76, 6.69 4.49 M-5.38 24.48 C-1.88 20.45, 1.62 16.43, 5.12 12.4 M-5.38 24.48 C-1.75 20.31, 1.87 16.14, 5.12 12.4 M-6.95 32.38 C-3.94 28.92, -0.93 25.46, 3.55 20.31 M-6.95 32.38 C-3.16 28.03, 0.62 23.67, 3.55 20.31 M-9.18 41.05 C-5.89 37.26, -2.6 33.48, 1.97 28.22 M-9.18 41.05 C-5.67 37.01, -2.16 32.97, 1.97 28.22 M-10.1 48.2 C-6.17 43.68, -2.24 39.15, -0.26 36.88 M-10.1 48.2 C-8.11 45.91, -6.13 43.63, -0.26 36.88 M-5.11 48.56 C-4.44 47.78, -3.76 47.01, -1.83 44.78 M-5.11 48.56 C-4.3 47.63, -3.5 46.7, -1.83 44.78" stroke="#0097e1" stroke-width="0.5" fill="none"></path><path d="M0 0 C1.57 0, 3.14 0, 7.69 0 M0 0 C1.62 0, 3.24 0, 7.69 0 M7.69 0 C4.47 14.79, 1.26 29.58, -2.75 48.03 M7.69 0 C5.27 11.14, 2.84 22.28, -2.75 48.03 M-2.75 48.03 C-5.37 48.03, -7.99 48.03, -10.66 48.03 M-2.75 48.03 C-4.97 48.03, -7.2 48.03, -10.66 48.03 M-10.66 48.03 C-8.11 36.55, -5.56 25.07, 0 0 M-10.66 48.03 C-7.8 35.16, -4.95 22.29, 0 0 M0 0 C0 0, 0 0, 0 0 M0 0 C0 0, 0 0, 0 0" stroke="#0097e1" stroke-width="1" fill="none"></path></g></g><mask></mask><g stroke-linecap="round"><g transform="translate(136.6866434933354 59.173188043777486) rotate(0 4.580477716161113 -9.394398181635381)" fill-rule="evenodd"><path d="M-4.55 -17.21 C-4.55 -17.21, -4.55 -17.21, -4.55 -17.21 M-4.55 -17.21 C-4.55 -17.21, -4.55 -17.21, -4.55 -17.21 M-7.44 -7.79 C-3.58 -12.23, 0.28 -16.66, 5.68 -22.88 M-7.44 -7.79 C-4.36 -11.32, -1.29 -14.86, 5.68 -22.88 M-7.7 -1.39 C-5.95 -3.4, -4.21 -5.41, -2.45 -7.43 M-7.7 -1.39 C-5.82 -3.55, -3.95 -5.7, -2.45 -7.43 M5.42 -16.49 C6.97 -18.27, 8.53 -20.05, 10.67 -22.52 M5.42 -16.49 C6.5 -17.73, 7.58 -18.96, 10.67 -22.52 M-5.99 2.74 C-4.47 0.99, -2.94 -0.76, -1.4 -2.54 M-5.99 2.74 C-4.49 1.02, -2.99 -0.7, -1.4 -2.54 M7.79 -13.11 C9.45 -15.02, 11.11 -16.93, 15 -21.41 M7.79 -13.11 C9.4 -14.96, 11.01 -16.82, 15 -21.41" stroke="#00ccec" stroke-width="0.5" fill="none"></path><path d="M0 0 C-1.18 0.98, -2.37 1.95, -4.83 3.98 M0 0 C-1.01 0.83, -2.01 1.66, -4.83 3.98 M-4.83 3.98 C-5.32 3.31, -5.81 2.65, -6.37 1.88 M-4.83 3.98 C-5.28 3.36, -5.74 2.74, -6.37 1.88 M-6.37 1.88 C-6.79 0.99, -7.21 0.1, -7.91 -1.41 M-6.37 1.88 C-6.9 0.74, -7.44 -0.4, -7.91 -1.41 M-7.91 -1.41 C-8.11 -3.09, -8.3 -4.77, -8.4 -5.68 M-7.91 -1.41 C-8.08 -2.87, -8.25 -4.32, -8.4 -5.68 M-8.4 -5.68 C-8.36 -6.53, -8.32 -7.38, -8.2 -9.88 M-8.4 -5.68 C-8.33 -7.24, -8.25 -8.8, -8.2 -9.88 M-8.2 -9.88 C-7.88 -10.73, -7.56 -11.59, -6.8 -13.59 M-8.2 -9.88 C-7.76 -11.03, -7.33 -12.19, -6.8 -13.59 M-6.8 -13.59 C-6.16 -14.64, -5.52 -15.69, -4.71 -17.02 M-6.8 -13.59 C-6.01 -14.89, -5.22 -16.18, -4.71 -17.02 M-4.71 -17.02 C-3.53 -18.03, -2.36 -19.04, -1.29 -19.96 M-4.71 -17.02 C-4.01 -17.63, -3.31 -18.23, -1.29 -19.96 M-1.29 -19.96 C-0.54 -20.37, 0.22 -20.78, 2.06 -21.79 M-1.29 -19.96 C-0.61 -20.33, 0.07 -20.7, 2.06 -21.79 M2.06 -21.79 C3.69 -22.16, 5.31 -22.54, 6.32 -22.77 M2.06 -21.79 C3.01 -22.01, 3.96 -22.22, 6.32 -22.77 M6.32 -22.77 C7.69 -22.69, 9.06 -22.61, 11.14 -22.49 M6.32 -22.77 C7.9 -22.68, 9.49 -22.59, 11.14 -22.49 M11.14 -22.49 C12.04 -22.21, 12.94 -21.93, 15.19 -21.24 M11.14 -22.49 C12.18 -22.17, 13.22 -21.85, 15.19 -21.24 M15.19 -21.24 C16.12 -20.66, 17.05 -20.09, 17.57 -19.77 M15.19 -21.24 C16.11 -20.67, 17.02 -20.11, 17.57 -19.77 M17.57 -19.77 C14.91 -17.86, 12.26 -15.96, 7.84 -12.79 M17.57 -19.77 C13.71 -17, 9.85 -14.23, 7.84 -12.79 M7.84 -12.79 C7.86 -14, 7.88 -15.21, 7.9 -16.5 M7.84 -12.79 C7.85 -13.7, 7.87 -14.61, 7.9 -16.5 M7.9 -16.5 C6.9 -16.44, 5.89 -16.39, 5.17 -16.36 M7.9 -16.5 C7.29 -16.46, 6.67 -16.43, 5.17 -16.36 M5.17 -16.36 C4.54 -16.03, 3.92 -15.71, 2.72 -15.1 M5.17 -16.36 C4.36 -15.94, 3.55 -15.53, 2.72 -15.1 M2.72 -15.1 C2.14 -14.68, 1.56 -14.25, 0.62 -13.57 M2.72 -15.1 C2.04 -14.6, 1.36 -14.1, 0.62 -13.57 M0.62 -13.57 C0.2 -12.94, -0.23 -12.31, -1.27 -10.77 M0.62 -13.57 C0.05 -12.72, -0.53 -11.87, -1.27 -10.77 M-1.27 -10.77 C-1.65 -9.62, -2.04 -8.47, -2.25 -7.84 M-1.27 -10.77 C-1.63 -9.7, -1.99 -8.62, -2.25 -7.84 M-2.25 -7.84 C-2.27 -7.13, -2.29 -6.43, -2.32 -5.05 M-2.25 -7.84 C-2.28 -6.79, -2.3 -5.74, -2.32 -5.05 M-2.32 -5.05 C-2.14 -4.44, -1.95 -3.83, -1.55 -2.53 M-2.32 -5.05 C-2.15 -4.49, -1.98 -3.92, -1.55 -2.53 M-1.55 -2.53 C-1.17 -1.91, -0.79 -1.29, 0 0 M-1.55 -2.53 C-1.24 -2.03, -0.93 -1.52, 0 0 M0 0 C0 0, 0 0, 0 0 M0 0 C0 0, 0 0, 0 0" stroke="#00ccec" stroke-width="1" fill="none"></path></g></g><mask></mask><g stroke-linecap="round"><g transform="translate(143.66915203274584 65.5430414039962) rotate(180 4.438933243726751 -9.851248810947823)" fill-rule="evenodd"><path d="M-3.36 -18.82 C-3.36 -18.82, -3.36 -18.82, -3.36 -18.82 M-3.36 -18.82 C-3.36 -18.82, -3.36 -18.82, -3.36 -18.82 M-8.22 -7.14 C-4.3 -11.65, -0.38 -16.15, 5.56 -22.99 M-8.22 -7.14 C-4.65 -11.24, -1.09 -15.34, 5.56 -22.99 M-7.17 -2.25 C-5.58 -4.08, -3.99 -5.91, -1.92 -8.29 M-7.17 -2.25 C-6.1 -3.48, -5.03 -4.71, -1.92 -8.29 M5.3 -16.59 C7.31 -18.9, 9.31 -21.21, 10.55 -22.63 M5.3 -16.59 C6.4 -17.86, 7.5 -19.13, 10.55 -22.63 M-5.46 1.88 C-4.48 0.76, -3.51 -0.36, -1.52 -2.65 M-5.46 1.88 C-4.5 0.78, -3.54 -0.33, -1.52 -2.65 M7.66 -13.22 C9.12 -14.89, 10.57 -16.56, 14.88 -21.52 M7.66 -13.22 C9.37 -15.18, 11.07 -17.14, 14.88 -21.52" stroke="#0097e1" stroke-width="0.5" fill="none"></path><path d="M0 0 C-1.04 0.79, -2.07 1.59, -4.55 3.49 M0 0 C-1.3 0.99, -2.59 1.99, -4.55 3.49 M-4.55 3.49 C-5.24 2.54, -5.94 1.59, -6.65 0.62 M-4.55 3.49 C-5.38 2.36, -6.2 1.23, -6.65 0.62 M-6.65 0.62 C-7.04 -0.46, -7.43 -1.53, -7.91 -2.88 M-6.65 0.62 C-7.02 -0.41, -7.4 -1.45, -7.91 -2.88 M-7.91 -2.88 C-8 -3.74, -8.09 -4.59, -8.34 -7.08 M-7.91 -2.88 C-8.02 -3.93, -8.12 -4.98, -8.34 -7.08 M-8.34 -7.08 C-8.22 -8.68, -8.1 -10.28, -7.99 -11.84 M-8.34 -7.08 C-8.22 -8.72, -8.09 -10.37, -7.99 -11.84 M-7.99 -11.84 C-7.3 -13.16, -6.62 -14.48, -6.17 -15.34 M-7.99 -11.84 C-7.52 -12.73, -7.06 -13.62, -6.17 -15.34 M-6.17 -15.34 C-5.3 -16.43, -4.43 -17.51, -3.59 -18.56 M-6.17 -15.34 C-5.37 -16.35, -4.56 -17.35, -3.59 -18.56 M-3.59 -18.56 C-2.65 -19.33, -1.71 -20.1, 0.18 -21.64 M-3.59 -18.56 C-2.58 -19.39, -1.57 -20.21, 0.18 -21.64 M0.18 -21.64 C1.33 -22.07, 2.47 -22.49, 3.39 -22.84 M0.18 -21.64 C1.36 -22.08, 2.53 -22.52, 3.39 -22.84 M3.39 -22.84 C4.68 -22.98, 5.98 -23.12, 6.67 -23.19 M3.39 -22.84 C4.37 -22.94, 5.34 -23.05, 6.67 -23.19 M6.67 -23.19 C8.13 -23.14, 9.59 -23.09, 10.58 -23.05 M6.67 -23.19 C7.74 -23.15, 8.82 -23.12, 10.58 -23.05 M10.58 -23.05 C11.73 -22.79, 12.87 -22.53, 14.84 -22.08 M10.58 -23.05 C12.26 -22.67, 13.94 -22.28, 14.84 -22.08 M14.84 -22.08 C15.79 -21.47, 16.73 -20.85, 17.21 -20.54 M14.84 -22.08 C15.55 -21.62, 16.27 -21.15, 17.21 -20.54 M17.21 -20.54 C14.28 -18.42, 11.35 -16.3, 7.76 -13.7 M17.21 -20.54 C13.85 -18.11, 10.49 -15.67, 7.76 -13.7 M7.76 -13.7 C7.69 -15.06, 7.61 -16.43, 7.55 -17.41 M7.76 -13.7 C7.7 -14.82, 7.64 -15.93, 7.55 -17.41 M7.55 -17.41 C6.9 -17.34, 6.25 -17.28, 4.75 -17.13 M7.55 -17.41 C6.92 -17.35, 6.29 -17.28, 4.75 -17.13 M4.75 -17.13 C4.16 -16.85, 3.56 -16.57, 2.37 -16.01 M4.75 -17.13 C4.21 -16.87, 3.66 -16.62, 2.37 -16.01 M2.37 -16.01 C1.68 -15.51, 0.98 -15, 0.27 -14.48 M2.37 -16.01 C1.55 -15.41, 0.73 -14.81, 0.27 -14.48 M0.27 -14.48 C-0.38 -13.52, -1.02 -12.57, -1.62 -11.69 M0.27 -14.48 C-0.17 -13.83, -0.61 -13.18, -1.62 -11.69 M-1.62 -11.69 C-2 -10.57, -2.37 -9.45, -2.6 -8.75 M-1.62 -11.69 C-1.9 -10.85, -2.18 -10.01, -2.6 -8.75 M-2.6 -8.75 C-2.63 -7.72, -2.66 -6.68, -2.67 -5.96 M-2.6 -8.75 C-2.63 -7.76, -2.65 -6.77, -2.67 -5.96 M-2.67 -5.96 C-2.41 -5.11, -2.16 -4.26, -1.91 -3.45 M-2.67 -5.96 C-2.45 -5.24, -2.23 -4.51, -1.91 -3.45 M-1.91 -3.45 C-1.15 -2.08, -0.4 -0.72, 0 0 M-1.91 -3.45 C-1.46 -2.63, -1 -1.82, 0 0 M0 0 C0 0, 0 0, 0 0 M0 0 C0 0, 0 0, 0 0" stroke="#0097e1" stroke-width="1" fill="none"></path></g></g><mask></mask><g stroke-linecap="round"><g transform="translate(166.95216144614187 37.466885465109044) rotate(0 25.571135667410545 16.10754970260757)" fill-rule="evenodd"><path d="M0 0 C0 0, 0 0, 0 0 M0 0 C0 0, 0 0, 0 0 M0.39 5.64 C2.16 3.61, 3.93 1.58, 4.99 0.36 M0.39 5.64 C1.95 3.85, 3.51 2.05, 4.99 0.36 M1.45 10.53 C3.24 8.46, 5.04 6.4, 9.32 1.47 M1.45 10.53 C4.09 7.48, 6.74 4.44, 9.32 1.47 M1.84 16.17 C3.47 14.3, 5.1 12.42, 9.71 7.12 M1.84 16.17 C3.75 13.97, 5.67 11.77, 9.71 7.12 M2.89 21.06 C4.97 18.67, 7.04 16.29, 10.11 12.76 M2.89 21.06 C4.49 19.22, 6.1 17.37, 10.11 12.76 M3.29 26.71 C5.54 24.11, 7.8 21.51, 10.5 18.4 M3.29 26.71 C5.84 23.77, 8.39 20.83, 10.5 18.4 M15.75 12.37 C18.76 8.9, 21.78 5.43, 26.25 0.29 M15.75 12.37 C17.88 9.91, 20.01 7.46, 26.25 0.29 M3.68 32.35 C13.37 21.2, 23.07 10.04, 30.58 1.41 M3.68 32.35 C11.32 23.56, 18.96 14.77, 30.58 1.41 M8.67 32.71 C11.74 29.17, 14.82 25.63, 18.51 21.39 M8.67 32.71 C10.9 30.14, 13.12 27.58, 18.51 21.39 M25.07 13.84 C27.06 11.55, 29.06 9.25, 30.97 7.05 M25.07 13.84 C26.49 12.2, 27.92 10.57, 30.97 7.05 M26.12 18.73 C28.06 16.49, 30.01 14.25, 32.02 11.94 M26.12 18.73 C27.8 16.79, 29.49 14.86, 32.02 11.94 M27.17 23.62 C28.55 22.03, 29.93 20.44, 32.42 17.58 M27.17 23.62 C28.89 21.64, 30.61 19.66, 32.42 17.58 M38.98 10.03 C41.39 7.26, 43.81 4.48, 47.51 0.22 M38.98 10.03 C41.68 6.92, 44.38 3.82, 47.51 0.22 M27.56 29.26 C33.9 21.97, 40.24 14.68, 49.87 3.6 M27.56 29.26 C32.98 23.03, 38.39 16.81, 49.87 3.6 M30.58 31.89 C35.28 26.48, 39.99 21.07, 42.39 18.3 M30.58 31.89 C34.19 27.74, 37.79 23.59, 42.39 18.3" stroke="#0097e1" stroke-width="0.5" fill="none"></path><path d="M0 0 C3.36 0, 6.72 0, 8.45 0 M0 0 C2.87 0, 5.75 0, 8.45 0 M8.45 0 C8.93 6.26, 9.41 12.52, 10.12 21.95 M8.45 0 C8.79 4.45, 9.13 8.9, 10.12 21.95 M10.12 21.95 C13.22 16.23, 16.33 10.52, 21.93 0.18 M10.12 21.95 C14.06 14.69, 18 7.43, 21.93 0.18 M21.93 0.18 C24.08 0.18, 26.23 0.18, 29.97 0.18 M21.93 0.18 C25.09 0.18, 28.24 0.18, 29.97 0.18 M29.97 0.18 C30.74 5.6, 31.5 11.02, 33.04 21.85 M29.97 0.18 C30.81 6.12, 31.65 12.07, 33.04 21.85 M33.04 21.85 C36.79 14.1, 40.54 6.35, 43.59 0.02 M33.04 21.85 C36.97 13.72, 40.9 5.59, 43.59 0.02 M43.59 0.02 C45.17 0.02, 46.74 0.02, 51.14 0.02 M43.59 0.02 C46.21 0.02, 48.83 0.02, 51.14 0.02 M51.14 0.02 C46.38 9.59, 41.61 19.15, 35.19 32.04 M51.14 0.02 C44.95 12.45, 38.76 24.87, 35.19 32.04 M35.19 32.04 C33.22 32.04, 31.25 32.04, 27.77 32.04 M35.19 32.04 C32.35 32.04, 29.51 32.04, 27.77 32.04 M27.77 32.04 C26.71 25.7, 25.66 19.36, 23.98 9.29 M27.77 32.04 C26.33 23.41, 24.89 14.79, 23.98 9.29 M23.98 9.29 C20.03 16.81, 16.07 24.34, 11.94 32.22 M23.98 9.29 C19.7 17.43, 15.42 25.58, 11.94 32.22 M11.94 32.22 C10.29 32.22, 8.64 32.22, 3.89 32.22 M11.94 32.22 C9.67 32.22, 7.41 32.22, 3.89 32.22 M3.89 32.22 C2.39 19.81, 0.89 7.4, 0 0 M3.89 32.22 C2.77 22.97, 1.66 13.72, 0 0 M0 0 C0 0, 0 0, 0 0 M0 0 C0 0, 0 0, 0 0" stroke="#0097e1" stroke-width="1" fill="none"></path></g></g><mask></mask></svg>