<svg version="1.1" xmlns="http://www.w3.org/2000/svg" viewBox="0 0 163.00026907164647 47" width="163.00026907164647" height="47">
  <!-- svg-source:excalidraw -->
  
  <defs>
    
    
  </defs>
  <g transform="translate(46.00026907164647 6) rotate(0 55.5 17.5)"><text x="0" y="0" font-family="Virgil, Segoe UI Emoji" font-size="28px" fill="#000000" text-anchor="start" style="white-space: pre;" direction="ltr" dominant-baseline="text-before-edge">SYSTEM</text></g><g stroke-linecap="round"><g transform="translate(6.034718922415777 11.067963763180614) rotate(0 13.376563671554777 12.63306396225164)" fill-rule="evenodd"><path d="M0 0 C0 0, 0 0, 0 0 M0 0 C0 0, 0 0, 0 0 M0.39 5.64 C2.49 3.23, 4.59 0.81, 6.96 -1.9 M0.39 5.64 C1.95 3.85, 3.51 2.06, 6.96 -1.9 M0.13 12.04 C2.92 8.84, 5.7 5.64, 12.6 -2.3 M0.13 12.04 C4.02 7.57, 7.91 3.1, 12.6 -2.3 M0.53 17.68 C6.02 11.37, 11.51 5.06, 18.24 -2.69 M0.53 17.68 C7.21 9.99, 13.9 2.3, 18.24 -2.69 M0.27 24.08 C5.52 18.04, 10.77 12, 22.57 -1.58 M0.27 24.08 C4.75 18.92, 9.24 13.76, 22.57 -1.58 M3.94 25.95 C9.46 19.6, 14.98 13.25, 26.25 0.29 M3.94 25.95 C10.25 18.69, 16.56 11.43, 26.25 0.29 M7.62 27.82 C14.02 20.46, 20.42 13.1, 26.64 5.93 M7.62 27.82 C13.42 21.14, 19.23 14.46, 26.64 5.93 M12.6 28.18 C17.89 22.09, 23.19 16.01, 26.38 12.33 M12.6 28.18 C17.89 22.1, 23.18 16.02, 26.38 12.33 M18.25 27.79 C20.73 24.93, 23.21 22.08, 26.12 18.73 M18.25 27.79 C20.74 24.92, 23.23 22.05, 26.12 18.73 M24.55 26.64 C25.03 26.08, 25.51 25.52, 26.51 24.37 M24.55 26.64 C25.01 26.1, 25.47 25.57, 26.51 24.37 M0.5 25.33 C0.5 25.33, 0.5 25.33, 0.5 25.33 M0.5 25.33 C0.5 25.33, 0.5 25.33, 0.5 25.33 M9.16 27.56 C7.05 25.72, 4.94 23.89, 0.11 19.69 M9.16 27.56 C6.3 25.07, 3.43 22.57, 0.11 19.69 M15.56 27.82 C12.02 24.74, 8.48 21.66, 0.47 14.7 M15.56 27.82 C11.69 24.46, 7.82 21.09, 0.47 14.7 M20.45 26.77 C15.89 22.81, 11.33 18.85, 0.07 9.06 M20.45 26.77 C15.68 22.63, 10.91 18.48, 0.07 9.06 M25.34 25.72 C17.17 18.62, 8.99 11.51, 0.43 4.07 M25.34 25.72 C15.5 17.17, 5.66 8.62, 0.43 4.07 M27.21 22.05 C17.5 13.61, 7.79 5.17, 0.79 -0.91 M27.21 22.05 C18.83 14.77, 10.45 7.48, 0.79 -0.91 M26.81 16.41 C22.35 12.52, 17.89 8.64, 4.93 -2.62 M26.81 16.41 C21.1 11.43, 15.38 6.46, 4.93 -2.62 M27.17 11.42 C22.34 7.21, 17.5 3.01, 10.57 -3.01 M27.17 11.42 C23.51 8.23, 19.84 5.04, 10.57 -3.01 M26.78 5.78 C24.4 3.7, 22.01 1.63, 16.21 -3.41 M26.78 5.78 C22.84 2.35, 18.91 -1.07, 16.21 -3.41 M27.14 0.79 C26.47 0.21, 25.8 -0.38, 24.88 -1.18 M27.14 0.79 C26.4 0.15, 25.67 -0.49, 24.88 -1.18" stroke="#40c057" stroke-width="0.5" fill="none"></path><path d="M0 0 C0 3.57, -0.08 17.21, 0 21.43 C0.08 25.65, -0.15 24.42, 0.47 25.3 C1.08 26.19, 2.35 26.3, 3.69 26.73 C5.03 27.15, 6.85 27.62, 8.5 27.85 C10.16 28.09, 12.06 28.14, 13.64 28.14 C15.23 28.14, 16.61 28.02, 18.03 27.85 C19.45 27.69, 20.78 27.59, 22.15 27.14 C23.52 26.69, 25.52 26.1, 26.25 25.15 C26.98 24.2, 26.45 25.13, 26.53 21.43 C26.61 17.72, 26.77 6.51, 26.75 2.92 C26.73 -0.67, 27.03 0.68, 26.42 -0.09 C25.8 -0.86, 24.27 -1.28, 23.09 -1.7 C21.91 -2.12, 20.79 -2.41, 19.36 -2.61 C17.93 -2.81, 15.83 -2.83, 14.51 -2.88 C13.18 -2.92, 13.03 -2.97, 11.43 -2.87 C9.82 -2.77, 6.77 -2.77, 4.87 -2.29 C2.96 -1.81, 0.81 -0.38, 0 0 M0 0 C0 3.57, -0.08 17.21, 0 21.43 C0.08 25.65, -0.15 24.42, 0.47 25.3 C1.08 26.19, 2.35 26.3, 3.69 26.73 C5.03 27.15, 6.85 27.62, 8.5 27.85 C10.16 28.09, 12.06 28.14, 13.64 28.14 C15.23 28.14, 16.61 28.02, 18.03 27.85 C19.45 27.69, 20.78 27.59, 22.15 27.14 C23.52 26.69, 25.52 26.1, 26.25 25.15 C26.98 24.2, 26.45 25.13, 26.53 21.43 C26.61 17.72, 26.77 6.51, 26.75 2.92 C26.73 -0.67, 27.03 0.68, 26.42 -0.09 C25.8 -0.86, 24.27 -1.28, 23.09 -1.7 C21.91 -2.12, 20.79 -2.41, 19.36 -2.61 C17.93 -2.81, 15.83 -2.83, 14.51 -2.88 C13.18 -2.92, 13.03 -2.97, 11.43 -2.87 C9.82 -2.77, 6.77 -2.77, 4.87 -2.29 C2.96 -1.81, 0.81 -0.38, 0 0" stroke="#2b8a3e" stroke-width="1" fill="none"></path></g></g><mask></mask><g stroke-linecap="round" transform="translate(6.116146879099688 7.788028045343253) rotate(0 13.352879906748058 3.6305796658749614)"><path d="M26.71 3.63 C26.71 3.84, 26.64 4.05, 26.5 4.26 C26.37 4.47, 26.16 4.67, 25.9 4.87 C25.64 5.07, 25.3 5.26, 24.92 5.45 C24.53 5.63, 24.08 5.8, 23.58 5.96 C23.08 6.13, 22.53 6.28, 21.94 6.41 C21.34 6.55, 20.7 6.67, 20.03 6.77 C19.36 6.88, 18.65 6.97, 17.92 7.04 C17.19 7.11, 16.43 7.17, 15.67 7.21 C14.91 7.24, 14.13 7.26, 13.35 7.26 C12.58 7.26, 11.8 7.24, 11.03 7.21 C10.27 7.17, 9.51 7.11, 8.79 7.04 C8.06 6.97, 7.35 6.88, 6.68 6.77 C6.01 6.67, 5.36 6.55, 4.77 6.41 C4.18 6.28, 3.62 6.13, 3.12 5.96 C2.63 5.8, 2.18 5.63, 1.79 5.45 C1.4 5.26, 1.07 5.07, 0.81 4.87 C0.54 4.67, 0.34 4.47, 0.2 4.26 C0.07 4.05, 0 3.84, 0 3.63 C0 3.42, 0.07 3.21, 0.2 3 C0.34 2.79, 0.54 2.59, 0.81 2.39 C1.07 2.19, 1.4 2, 1.79 1.82 C2.18 1.63, 2.63 1.46, 3.12 1.3 C3.62 1.14, 4.18 0.98, 4.77 0.85 C5.36 0.71, 6.01 0.59, 6.68 0.49 C7.35 0.38, 8.06 0.29, 8.79 0.22 C9.51 0.15, 10.27 0.09, 11.03 0.06 C11.8 0.02, 12.58 0, 13.35 0 C14.13 0, 14.91 0.02, 15.67 0.06 C16.43 0.09, 17.19 0.15, 17.92 0.22 C18.65 0.29, 19.36 0.38, 20.03 0.49 C20.7 0.59, 21.34 0.71, 21.94 0.85 C22.53 0.98, 23.08 1.14, 23.58 1.3 C24.08 1.46, 24.53 1.63, 24.92 1.82 C25.3 2, 25.64 2.19, 25.9 2.39 C26.16 2.59, 26.37 2.79, 26.5 3 C26.64 3.21, 26.67 3.53, 26.71 3.63 C26.74 3.74, 26.74 3.53, 26.71 3.63" stroke="none" stroke-width="0" fill="#ffffff"></path><path d="M26.71 3.63 C26.71 3.84, 26.64 4.05, 26.5 4.26 C26.37 4.47, 26.16 4.67, 25.9 4.87 C25.64 5.07, 25.3 5.26, 24.92 5.45 C24.53 5.63, 24.08 5.8, 23.58 5.96 C23.08 6.13, 22.53 6.28, 21.94 6.41 C21.34 6.55, 20.7 6.67, 20.03 6.77 C19.36 6.88, 18.65 6.97, 17.92 7.04 C17.19 7.11, 16.43 7.17, 15.67 7.21 C14.91 7.24, 14.13 7.26, 13.35 7.26 C12.58 7.26, 11.8 7.24, 11.03 7.21 C10.27 7.17, 9.51 7.11, 8.79 7.04 C8.06 6.97, 7.35 6.88, 6.68 6.77 C6.01 6.67, 5.36 6.55, 4.77 6.41 C4.18 6.28, 3.62 6.13, 3.12 5.96 C2.63 5.8, 2.18 5.63, 1.79 5.45 C1.4 5.26, 1.07 5.07, 0.81 4.87 C0.54 4.67, 0.34 4.47, 0.2 4.26 C0.07 4.05, 0 3.84, 0 3.63 C0 3.42, 0.07 3.21, 0.2 3 C0.34 2.79, 0.54 2.59, 0.81 2.39 C1.07 2.19, 1.4 2, 1.79 1.82 C2.18 1.63, 2.63 1.46, 3.12 1.3 C3.62 1.14, 4.18 0.98, 4.77 0.85 C5.36 0.71, 6.01 0.59, 6.68 0.49 C7.35 0.38, 8.06 0.29, 8.79 0.22 C9.51 0.15, 10.27 0.09, 11.03 0.06 C11.8 0.02, 12.58 0, 13.35 0 C14.13 0, 14.91 0.02, 15.67 0.06 C16.43 0.09, 17.19 0.15, 17.92 0.22 C18.65 0.29, 19.36 0.38, 20.03 0.49 C20.7 0.59, 21.34 0.71, 21.94 0.85 C22.53 0.98, 23.08 1.14, 23.58 1.3 C24.08 1.46, 24.53 1.63, 24.92 1.82 C25.3 2, 25.64 2.19, 25.9 2.39 C26.16 2.59, 26.37 2.79, 26.5 3 C26.64 3.21, 26.67 3.53, 26.71 3.63 C26.74 3.74, 26.74 3.53, 26.71 3.63" stroke="#2b8a3e" stroke-width="1" fill="none"></path></g></svg>