<svg version="1.1" xmlns="http://www.w3.org/2000/svg" viewBox="0 0 282 243.5731567736832" width="282" height="243.5731567736832">
  <!-- svg-source:excalidraw -->
  
  <defs>
    
    
  </defs>
  <g stroke-linecap="round" transform="translate(16 16) rotate(0 130 110.7865783868416)"><path d="M1.83 1.33 L258.37 -0.98 L258.6 219.59 L0.37 223.5" stroke="none" stroke-width="0" fill="#868e96"></path><path d="M0 0 C74.82 1.07, 152.24 -0.79, 260 0 M0 0 C85.44 1.97, 169.77 2.29, 260 0 M260 0 C259.7 63.43, 259.44 125.78, 260 221.57 M260 0 C260.4 45.35, 258.9 90.77, 260 221.57 M260 221.57 C176.55 222.44, 90.47 220.59, 0 221.57 M260 221.57 C177.9 224.03, 97.43 223.98, 0 221.57 M0 221.57 C-1.61 143.94, -1.99 65.84, 0 0 M0 221.57 C2.01 140.36, 0.94 60.61, 0 0" stroke="#000000" stroke-width="1" fill="none"></path></g><g stroke-linecap="round" transform="translate(6 6) rotate(0 130 110)"><path d="M1.52 1.94 L258.54 -1.13 L260.3 220.01 L1.97 218.05" stroke="none" stroke-width="0" fill="#ffffff"></path><path d="M0 0 C58.92 -3.01, 116.9 -2.19, 260 0 M0 0 C96.63 -1.03, 192.51 -0.21, 260 0 M260 0 C259.57 77.36, 258.85 153.61, 260 220 M260 0 C261.16 83.82, 261.52 167.33, 260 220 M260 220 C191.14 220.12, 123.21 222.3, 0 220 M260 220 C180.73 219.93, 100.99 219.41, 0 220 M0 220 C-2.02 160.58, -1.39 102.23, 0 0 M0 220 C-1.2 140.59, -0.7 59.36, 0 0" stroke="#ffffff" stroke-width="1" fill="none"></path></g><g stroke-linecap="round" transform="translate(6 6) rotate(0 130 110)"><path d="M0 0 C0 0, 0 0, 0 0 M0 0 C0 0, 0 0, 0 0 M-0.26 6.4 C1.08 5.11, 2.79 3.9, 4.99 0.36 M-0.26 6.4 C1.99 4.34, 3.58 1.89, 4.99 0.36 M0.13 12.04 C2.13 7.56, 6.9 4.15, 10.63 -0.03 M0.13 12.04 C2.68 8.85, 5.05 6.36, 10.63 -0.03 M-0.13 18.44 C5.86 13.86, 9.75 5.97, 15.62 0.33 M-0.13 18.44 C4.6 13.42, 10.38 6.52, 15.62 0.33 M0.27 24.08 C7.8 13.09, 16.07 6.64, 21.26 -0.07 M0.27 24.08 C7.8 16.3, 14.06 8.49, 21.26 -0.07 M0 30.48 C11.52 19.7, 19.18 6.29, 26.25 0.29 M0 30.48 C9.73 21.25, 18.37 9.4, 26.25 0.29 M-0.26 36.88 C10.6 26.42, 19.63 14.69, 31.89 -0.1 M-0.26 36.88 C7.34 27.63, 15.55 19.82, 31.89 -0.1 M0.14 42.52 C9.18 29.99, 20.79 21.92, 36.88 0.26 M0.14 42.52 C14.9 25.58, 28.33 11.01, 36.88 0.26 M-0.12 48.92 C15.26 33.37, 28.04 14.48, 42.52 -0.14 M-0.12 48.92 C8.53 37.74, 18.12 28.17, 42.52 -0.14 M0.27 54.56 C17.17 35.6, 36.61 12.15, 47.51 0.22 M0.27 54.56 C16.3 34.26, 34.25 14.79, 47.51 0.22 M0.01 60.96 C15.44 45.26, 31.67 27.63, 53.15 -0.17 M0.01 60.96 C11.39 46.53, 23.36 34.69, 53.15 -0.17 M-0.25 67.36 C17.59 49.64, 30.58 33.61, 58.14 0.19 M-0.25 67.36 C17.16 48.89, 32.39 30.41, 58.14 0.19 M0.14 73 C23.64 47.12, 43.8 19.19, 63.78 -0.21 M0.14 73 C18.7 52.37, 36.13 34.26, 63.78 -0.21 M-0.12 79.4 C26.15 49.73, 51.56 17.16, 68.77 0.15 M-0.12 79.4 C22.33 52.76, 46.53 25.47, 68.77 0.15 M0.28 85.04 C26.59 53.55, 54.04 20.48, 74.41 -0.24 M0.28 85.04 C24.13 57.91, 47.38 31.52, 74.41 -0.24 M0.01 91.44 C27.76 61.51, 51.97 30.95, 79.4 0.12 M0.01 91.44 C30.95 55.14, 62.08 20.69, 79.4 0.12 M-0.25 97.84 C25.2 70.97, 47.99 40.18, 85.04 -0.28 M-0.25 97.84 C28.01 65.33, 55.27 33.92, 85.04 -0.28 M0.15 103.48 C25.42 75.83, 50.56 46.78, 90.03 0.08 M0.15 103.48 C29.44 70.81, 56.53 36.42, 90.03 0.08 M-0.11 109.88 C34.14 72.69, 62.75 36.91, 95.67 -0.31 M-0.11 109.88 C23.53 83.78, 44.78 57.06, 95.67 -0.31 M0.28 115.52 C27.93 82.67, 57.07 46.99, 100.66 0.05 M0.28 115.52 C27.49 83.41, 55.14 53.99, 100.66 0.05 M0.02 121.92 C21.67 91.19, 46.42 65.08, 106.3 -0.34 M0.02 121.92 C42.66 72.73, 82.75 25.25, 106.3 -0.34 M-0.24 128.32 C22.75 98.52, 48.28 71.12, 111.29 0.02 M-0.24 128.32 C41.85 80.64, 82.64 31.59, 111.29 0.02 M0.15 133.96 C44.07 82.45, 87.54 32.56, 116.27 0.38 M0.15 133.96 C32.99 95.57, 66.7 58.6, 116.27 0.38 M-0.11 140.36 C26.54 108.45, 51.6 77.59, 121.92 -0.02 M-0.11 140.36 C29.73 104.05, 62.21 67.95, 121.92 -0.02 M0.29 146 C40.11 102.98, 77.5 61.41, 126.91 0.34 M0.29 146 C31.55 111.31, 60.73 76.89, 126.91 0.34 M0.02 152.4 C54.15 93, 103.08 33.43, 132.55 -0.05 M0.02 152.4 C45.23 102.85, 88.22 53.74, 132.55 -0.05 M-0.24 158.8 C46.9 105.31, 93.92 51.44, 137.54 0.31 M-0.24 158.8 C42.26 108.41, 86.13 58.42, 137.54 0.31 M0.16 164.44 C54.94 102.08, 109.02 40.12, 143.18 -0.09 M0.16 164.44 C38.7 120.43, 77.4 74.88, 143.18 -0.09 M-0.1 170.84 C31.93 133.37, 66.48 93.03, 148.17 0.27 M-0.1 170.84 C34.46 133.7, 67.57 95.88, 148.17 0.27 M0.29 176.48 C58.99 107.28, 117.93 38.49, 153.81 -0.12 M0.29 176.48 C56.92 109.87, 113.71 43.83, 153.81 -0.12 M0.03 182.88 C43.69 132.3, 85.79 80.23, 158.8 0.24 M0.03 182.88 C61.8 111.76, 124.02 41.54, 158.8 0.24 M-0.23 189.27 C49.93 132.01, 101.21 72.08, 164.44 -0.16 M-0.23 189.27 C64.27 113.77, 129.47 39.18, 164.44 -0.16 M0.16 194.92 C64.96 120.52, 130.55 46.17, 169.43 0.2 M0.16 194.92 C47.76 141.13, 93.64 87.29, 169.43 0.2 M-0.1 201.32 C39.38 154.87, 80.29 109.58, 175.07 -0.19 M-0.1 201.32 C51.12 145.84, 101.01 87.92, 175.07 -0.19 M0.3 206.96 C45.78 151.54, 93.5 97.69, 180.06 0.17 M0.3 206.96 C54.75 142.16, 110.51 79.3, 180.06 0.17 M0.03 213.36 C58.8 144.48, 118.41 75.18, 185.7 -0.23 M0.03 213.36 C53.47 152.84, 106.6 90.87, 185.7 -0.23 M-0.23 219.75 C68.22 138.41, 136.22 61.41, 190.69 0.13 M-0.23 219.75 C59.42 151.41, 119.58 83.92, 190.69 0.13 M4.76 220.11 C73.71 142.75, 141.51 64.76, 196.33 -0.26 M4.76 220.11 C47.7 172.19, 88.77 124.75, 196.33 -0.26 M9.75 220.47 C86.07 133.56, 160.54 49.18, 201.32 0.1 M9.75 220.47 C60.49 161.29, 112.9 100.81, 201.32 0.1 M15.39 220.08 C91.17 133.99, 165.25 48.38, 206.96 -0.3 M15.39 220.08 C90.53 133.89, 164.19 48.44, 206.96 -0.3 M20.38 220.44 C93.09 138.39, 164.11 55.78, 211.95 0.06 M20.38 220.44 C57.66 176.14, 96.86 131.86, 211.95 0.06 M25.36 220.8 C75.24 166.78, 123.77 110.46, 217.59 -0.33 M25.36 220.8 C81.64 156.63, 136.92 92.69, 217.59 -0.33 M31.01 220.41 C70.25 177.83, 108.6 133.69, 222.58 0.03 M31.01 220.41 C79.02 165.26, 127.65 108.6, 222.58 0.03 M35.99 220.77 C89.43 157.63, 145.67 94.58, 228.22 -0.36 M35.99 220.77 C96.67 152.75, 157.06 83.64, 228.22 -0.36 M41.64 220.37 C93.25 162.72, 145.24 101.98, 233.21 0 M41.64 220.37 C82.06 172.68, 122.02 127.1, 233.21 0 M46.62 220.73 C85.74 173.46, 123.07 128.32, 238.19 0.36 M46.62 220.73 C88.12 174.41, 129.41 128.51, 238.19 0.36 M52.27 220.34 C96.08 167.95, 144.5 113.77, 243.84 -0.04 M52.27 220.34 C126.22 133.75, 200.95 46.57, 243.84 -0.04 M57.25 220.7 C102.88 171.39, 144.6 120.44, 248.82 0.32 M57.25 220.7 C103.3 166.58, 149.78 112.65, 248.82 0.32 M62.9 220.3 C119.58 151.68, 178.78 85.83, 254.47 -0.07 M62.9 220.3 C132.49 140.19, 201.76 60.28, 254.47 -0.07 M67.88 220.66 C135.34 146.2, 199.5 69.71, 259.45 0.29 M67.88 220.66 C114.42 167.43, 161.5 112.92, 259.45 0.29 M73.53 220.27 C128.92 155.67, 183.93 93, 260.5 5.18 M73.53 220.27 C111.53 174.52, 149.76 129.7, 260.5 5.18 M78.51 220.63 C123.51 168.66, 164.95 118.04, 260.9 10.82 M78.51 220.63 C142.46 146.41, 206.66 75.28, 260.9 10.82 M84.16 220.23 C151.54 143.4, 217.59 65.51, 260.64 17.22 M84.16 220.23 C130.86 168.53, 176.26 114.1, 260.64 17.22 M89.14 220.59 C123.13 182.41, 158.11 141.17, 260.38 23.61 M89.14 220.59 C131.44 171.57, 175.26 122.53, 260.38 23.61 M94.79 220.2 C155.02 150.52, 214.54 81.63, 260.77 29.26 M94.79 220.2 C160.09 145.14, 224.04 71.12, 260.77 29.26 M99.77 220.56 C166.6 147.4, 227.76 74.26, 260.51 35.65 M99.77 220.56 C157.5 155.51, 215.2 88.43, 260.51 35.65 M105.42 220.16 C166.44 148.43, 228.85 77.49, 260.9 41.3 M105.42 220.16 C151.75 166.8, 198.07 114.12, 260.9 41.3 M110.4 220.52 C168.72 154.95, 222.14 91.4, 260.64 47.7 M110.4 220.52 C146.92 179.59, 184.34 135.64, 260.64 47.7 M116.05 220.13 C155.82 176.35, 192.82 129.88, 260.38 54.09 M116.05 220.13 C147.79 184.1, 179.09 147.62, 260.38 54.09 M121.03 220.49 C172.81 163.14, 224.45 99.74, 260.77 59.74 M121.03 220.49 C173.88 157.26, 229.63 94.88, 260.77 59.74 M126.68 220.1 C167.74 171.33, 209.81 125.44, 260.51 66.13 M126.68 220.1 C155.63 184.88, 184.44 150.43, 260.51 66.13 M131.66 220.46 C159.45 184.77, 192.86 150.93, 260.91 71.78 M131.66 220.46 C160.46 186.51, 191.3 151.66, 260.91 71.78 M137.31 220.06 C172.26 180.82, 204.86 142.74, 260.65 78.18 M137.31 220.06 C177.97 174.14, 216.66 128.8, 260.65 78.18 M142.29 220.42 C175.89 184.12, 209.4 143.61, 260.39 84.57 M142.29 220.42 C179.63 175.57, 218.54 131.09, 260.39 84.57 M147.28 220.78 C177.35 185.91, 212.59 146.92, 260.78 90.22 M147.28 220.78 C187.9 174.2, 230.19 127.95, 260.78 90.22 M152.92 220.39 C177.18 194.13, 198.01 165.09, 260.52 96.61 M152.92 220.39 C195.62 172.07, 237.86 123.15, 260.52 96.61 M157.91 220.75 C182.93 189.84, 211.76 158.01, 260.91 102.26 M157.91 220.75 C191.73 181.59, 225.59 142.97, 260.91 102.26 M163.55 220.35 C190.33 193.69, 214.81 163.97, 260.65 108.65 M163.55 220.35 C186.33 194.17, 210.26 166.4, 260.65 108.65 M168.54 220.71 C195.81 192.42, 224.53 161.45, 260.39 115.05 M168.54 220.71 C188.47 195.64, 210.31 173.02, 260.39 115.05 M174.18 220.32 C207.4 184.25, 239.49 144.89, 260.78 120.7 M174.18 220.32 C197.4 193.57, 220.78 167.83, 260.78 120.7 M179.17 220.68 C205.99 192.53, 228.98 163.49, 260.52 127.09 M179.17 220.68 C196.96 198.69, 215.83 178.47, 260.52 127.09 M184.81 220.28 C202.63 199.33, 223.53 174.51, 260.26 133.49 M184.81 220.28 C211.46 190.51, 238.9 159.92, 260.26 133.49 M189.8 220.64 C214.13 189.91, 243.51 159.67, 260.66 139.13 M189.8 220.64 C210.12 196.59, 232.53 171.15, 260.66 139.13 M195.44 220.25 C220.47 193.98, 243.32 164.41, 260.39 145.53 M195.44 220.25 C219.17 192.58, 244.25 163.68, 260.39 145.53 M200.43 220.61 C223.44 196.07, 245.98 170.23, 260.79 151.18 M200.43 220.61 C223.58 193.99, 247.79 165.9, 260.79 151.18 M206.08 220.21 C222.4 203.71, 235.2 186.23, 260.53 157.57 M206.08 220.21 C222.44 201.83, 236.88 183.99, 260.53 157.57 M211.06 220.57 C230.38 198.4, 247.42 181.68, 260.27 163.97 M211.06 220.57 C222.62 206.18, 235 192.66, 260.27 163.97 M216.71 220.18 C230.86 203.71, 243.05 188.69, 260.66 169.61 M216.71 220.18 C227.12 208.89, 236.45 197.06, 260.66 169.61 M221.69 220.54 C238.23 204.57, 251.23 187.2, 260.4 176.01 M221.69 220.54 C235.08 204.59, 248.94 188.66, 260.4 176.01 M227.34 220.14 C237.48 209.65, 249.29 196.37, 260.79 181.65 M227.34 220.14 C234.34 210.24, 241.67 202.68, 260.79 181.65 M232.32 220.5 C240.79 210.49, 249.02 200.22, 260.53 188.05 M232.32 220.5 C239.61 210.77, 247.9 202, 260.53 188.05 M237.97 220.11 C243.81 212.08, 250.38 206.97, 260.27 194.45 M237.97 220.11 C244.62 212.87, 250.48 203.56, 260.27 194.45 M242.95 220.47 C247.85 212, 257.08 207.09, 260.67 200.09 M242.95 220.47 C248.28 215.71, 251.96 210.86, 260.67 200.09 M248.6 220.08 C254.63 216.25, 255.97 211.14, 260.4 206.49 M248.6 220.08 C252.95 216.04, 257.34 210.86, 260.4 206.49 M253.58 220.44 C255.35 216.77, 257.17 215.78, 260.8 212.13 M253.58 220.44 C254.86 219.2, 256.4 217.07, 260.8 212.13 M258.57 220.8 C259.3 219.88, 259.6 219.6, 260.54 218.53 M258.57 220.8 C259.07 220.1, 259.46 219.7, 260.54 218.53" stroke="#e64980" stroke-width="0.5" fill="none"></path><path d="M0 0 C87.2 1.16, 173.17 1.17, 260 0 M0 0 C90.28 -1.51, 178.95 -0.2, 260 0 M260 0 C261.44 46.29, 260.98 91.85, 260 220 M260 0 C259.7 66.3, 260.13 133.11, 260 220 M260 220 C207.45 217.73, 156.72 219.63, 0 220 M260 220 C179.02 218.59, 97.13 218.4, 0 220 M0 220 C0.99 172.39, 1.28 125.39, 0 0 M0 220 C0.79 144.58, 1.61 69.79, 0 0" stroke="#000000" stroke-width="1" fill="none"></path></g><g stroke-linecap="round"><g transform="translate(88.26099943865756 37.29965004396712) rotate(0 62.16072781656976 16.617508149506662)" fill-rule="evenodd"><path d="M-1.82 0.7 C16.88 0.65, 89.93 -3.84, 111.42 -2.05 C132.91 -0.26, 125.71 7.01, 127.13 11.46 C128.55 15.91, 123.43 21.61, 119.94 24.65 C116.45 27.69, 109.02 29.87, 106.2 29.68 C103.37 29.48, 104.62 23.2, 102.98 23.49 C101.34 23.78, 98.27 31.57, 96.36 31.42 C94.45 31.28, 92.81 22.46, 91.52 22.62 C90.24 22.77, 90.3 32.16, 88.65 32.36 C87 32.56, 83.51 23.9, 81.65 23.82 C79.78 23.73, 79.25 31.93, 77.48 31.84 C75.7 31.75, 73.06 23.16, 70.98 23.26 C68.9 23.35, 67.3 32.07, 64.99 32.4 C62.67 32.73, 60.28 25.34, 57.08 25.26 C53.87 25.19, 48.4 31.9, 45.74 31.96 C43.09 32.02, 42.77 25.15, 41.16 25.63 C39.54 26.11, 43.21 33.49, 36.03 34.84 C28.85 36.2, 4.43 39.39, -1.93 33.76 C-8.28 28.12, -2.8 6.52, -2.07 1.03" stroke="none" stroke-width="0" fill="#868e96" fill-rule="evenodd"></path><path d="M-0.63 0.85 C17.96 0.54, 90.37 -3.74, 111.34 -2.06 C132.32 -0.37, 123.93 6.79, 125.22 10.94 C126.52 15.09, 122.61 19.76, 119.11 22.84 C115.62 25.92, 107.38 28.96, 104.26 29.43 C101.14 29.9, 101.49 25.16, 100.4 25.68 C99.32 26.2, 98.73 33.16, 97.75 32.54 C96.77 31.92, 96.07 21.94, 94.52 21.97 C92.97 22, 90.49 31.84, 88.47 32.71 C86.45 33.57, 84.22 27.43, 82.4 27.15 C80.59 26.86, 79.6 31.35, 77.58 31.01 C75.56 30.66, 72.73 25.14, 70.31 25.06 C67.88 24.99, 65.47 30.28, 63.03 30.54 C60.59 30.8, 58.21 25.89, 55.65 26.61 C53.09 27.34, 50.05 35.55, 47.67 34.91 C45.29 34.28, 43.42 23.04, 41.36 22.8 C39.31 22.57, 42.67 31.5, 35.36 33.5 C28.04 35.5, 3.29 40.28, -2.52 34.82 C-8.33 29.36, -0.05 6.6, 0.49 0.72 M1.24 0.25 C19.78 0.07, 89.94 -2.55, 110.99 -1.09 C132.03 0.37, 126.04 4.92, 127.49 8.99 C128.95 13.06, 123.84 19.92, 119.72 23.33 C115.6 26.73, 105.83 29.17, 102.76 29.4 C99.69 29.63, 102.11 24.34, 101.31 24.71 C100.52 25.08, 99.21 32.21, 97.98 31.62 C96.75 31.03, 95.78 21.19, 93.92 21.19 C92.06 21.18, 88.71 30.58, 86.83 31.59 C84.95 32.6, 84.15 27.28, 82.65 27.27 C81.14 27.25, 80.06 31.97, 77.79 31.49 C75.52 31.02, 71.43 24.75, 69.04 24.41 C66.64 24.07, 65.8 29.14, 63.42 29.44 C61.05 29.73, 57.38 25.25, 54.79 26.16 C52.2 27.08, 50.05 35.34, 47.88 34.91 C45.71 34.48, 43.99 23.64, 41.78 23.59 C39.57 23.53, 41.63 32.57, 34.61 34.56 C27.58 36.55, 5.5 41.05, -0.37 35.51 C-6.24 29.98, -0.96 7.08, -0.63 1.36" stroke="#000000" stroke-width="2" fill="none"></path></g></g><mask></mask><g stroke-linecap="round" transform="translate(55.99999659034802 23.461525489614814) rotate(0 32.11657981174494 32.11657981174474)"><path d="M38.79 1.06 C44.76 1.47, 50.78 4.9, 54.85 9.33 C58.92 13.77, 62.19 21.14, 63.22 27.64 C64.24 34.15, 63.78 42.75, 60.99 48.36 C58.2 53.97, 52.34 58.89, 46.48 61.3 C40.61 63.7, 32.04 63.84, 25.8 62.8 C19.56 61.75, 13.25 59.39, 9.04 55.02 C4.84 50.64, 1.29 43, 0.57 36.54 C-0.16 30.08, 1.84 21.84, 4.71 16.25 C7.57 10.67, 11.48 5.57, 17.76 3.03 C24.04 0.5, 37.94 1.11, 42.36 1.06 C46.78 1.02, 44.49 2.07, 44.29 2.78 M32.93 -0.92 C39.02 -1.2, 47.16 3.3, 52.27 7.3 C57.39 11.29, 62.16 16.82, 63.6 23.05 C65.04 29.29, 63.15 38.52, 60.89 44.7 C58.63 50.88, 55 56.76, 50.05 60.13 C45.1 63.5, 37.74 65.36, 31.17 64.92 C24.6 64.48, 15.54 61.63, 10.62 57.5 C5.7 53.37, 2.98 46.43, 1.65 40.14 C0.33 33.85, 0.6 25.49, 2.66 19.78 C4.71 14.07, 8.75 9.11, 13.99 5.88 C19.22 2.65, 30.71 1.17, 34.05 0.41 C37.38 -0.34, 33.88 0.79, 34.01 1.37" stroke="none" stroke-width="0" fill="#868e96"></path><path d="M15.81 3.84 C20.65 0.38, 29.22 -1.24, 35.64 -0.52 C42.06 0.2, 49.55 3.59, 54.34 8.16 C59.13 12.74, 63.37 20.63, 64.38 26.94 C65.39 33.25, 63.16 40.57, 60.41 46 C57.65 51.43, 53.13 56.54, 47.87 59.51 C42.6 62.47, 35.27 64.43, 28.83 63.78 C22.39 63.14, 13.99 59.9, 9.22 55.64 C4.44 51.38, 1.26 44.49, 0.17 38.22 C-0.91 31.96, -0.23 23.91, 2.68 18.04 C5.6 12.18, 14.69 5.68, 17.66 3.04 C20.63 0.41, 20.33 1.6, 20.5 2.25 M40.57 1.88 C46.72 2.7, 53.83 6.48, 57.68 10.98 C61.53 15.49, 63.59 22.45, 63.67 28.89 C63.76 35.34, 61.34 44.24, 58.2 49.63 C55.06 55.02, 50.4 58.86, 44.82 61.26 C39.24 63.66, 30.78 65.4, 24.71 64.04 C18.64 62.68, 12.3 58.11, 8.39 53.09 C4.48 48.08, 1.64 40.49, 1.23 33.94 C0.81 27.39, 2.98 19.08, 5.91 13.78 C8.84 8.48, 13.37 4.28, 18.82 2.13 C24.27 -0.02, 35.1 0.93, 38.62 0.86 C42.14 0.78, 40.04 1.39, 39.95 1.7" stroke="#000000" stroke-width="2" fill="none"></path></g><g stroke-linecap="round" transform="translate(65.1761622508493 46.40193964086106) rotate(0 9.176165660498555 9.176165660498498)"><path d="M8.42 0.47 C10.33 0.3, 13.55 1.13, 15.11 2.19 C16.67 3.26, 17.49 5.01, 17.78 6.85 C18.07 8.69, 17.68 11.36, 16.88 13.22 C16.08 15.09, 14.68 17.24, 12.98 18.03 C11.29 18.81, 8.66 18.67, 6.71 17.93 C4.76 17.19, 2.36 15.19, 1.29 13.6 C0.22 12, -0.02 10.21, 0.3 8.37 C0.62 6.54, 1.7 4.01, 3.22 2.59 C4.73 1.17, 8.45 0.26, 9.39 -0.14 C10.32 -0.54, 8.84 0.06, 8.83 0.2 M8.03 0.24 C9.86 -0.16, 11.77 0.89, 13.31 1.75 C14.85 2.62, 16.53 3.7, 17.27 5.45 C18.01 7.19, 18.3 10.38, 17.77 12.24 C17.24 14.11, 15.85 15.56, 14.08 16.64 C12.3 17.72, 9.04 18.88, 7.11 18.72 C5.18 18.56, 3.6 17.18, 2.49 15.67 C1.37 14.16, 0.59 11.67, 0.42 9.66 C0.26 7.65, 0.25 5.21, 1.47 3.61 C2.7 2.01, 6.72 0.68, 7.76 0.07 C8.81 -0.54, 7.83 -0.25, 7.75 -0.02" stroke="none" stroke-width="0" fill="#ffffff"></path><path d="M10.14 -0.31 C12.09 -0.21, 14.64 1.14, 16.06 2.72 C17.49 4.31, 18.69 7.19, 18.69 9.21 C18.68 11.24, 17.28 13.45, 16.05 14.87 C14.81 16.29, 13.07 17.35, 11.28 17.74 C9.49 18.12, 7.14 18.02, 5.3 17.18 C3.47 16.34, 1.1 14.5, 0.27 12.71 C-0.57 10.92, -0.37 8.36, 0.27 6.45 C0.91 4.54, 2.39 2.33, 4.11 1.26 C5.82 0.19, 9.33 0.27, 10.55 0.04 C11.78 -0.19, 11.5 -0.35, 11.45 -0.12 M10.61 0.52 C12.6 0.53, 15.1 1.38, 16.35 2.65 C17.6 3.93, 18.17 6.13, 18.1 8.18 C18.03 10.22, 17.02 13.32, 15.94 14.92 C14.86 16.52, 13.39 17.32, 11.6 17.79 C9.81 18.26, 6.95 18.54, 5.22 17.74 C3.48 16.93, 1.89 14.85, 1.19 12.95 C0.48 11.04, 0.4 8.33, 0.98 6.31 C1.56 4.29, 3.24 1.9, 4.68 0.85 C6.13 -0.21, 8.82 0.09, 9.64 -0.02 C10.46 -0.13, 9.51 0.02, 9.61 0.19" stroke="#000000" stroke-width="2" fill="none"></path></g><g stroke-linecap="round"><g transform="translate(120.38143413584476 44.12049697651898) rotate(0 36.70466264199422 0)"><path d="M-0.04 0.69 C12.06 0.67, 60.13 0.15, 72.47 0.08 M-1.52 0.01 C10.95 0.18, 62.18 1.37, 74.69 1.66" stroke="#000000" stroke-width="2" fill="none"></path></g></g><mask></mask><g transform="translate(38.5 138.53847451038516) rotate(0 97.5 35)"><text x="97.5" y="0" font-family="Virgil, Segoe UI Emoji" font-size="28px" fill="#495057" text-anchor="middle" style="white-space: pre;" direction="ltr" dominant-baseline="text-before-edge">TDE Master</text><text x="97.5" y="35" font-family="Virgil, Segoe UI Emoji" font-size="28px" fill="#495057" text-anchor="middle" style="white-space: pre;" direction="ltr" dominant-baseline="text-before-edge">Encryption Key</text></g><g transform="translate(54 80.55828990587236) rotate(0 82 34)"><text x="82" y="0" font-family="Virgil, Segoe UI Emoji" font-size="53.87755102040816px" fill="#000000" text-anchor="middle" style="white-space: pre;" direction="ltr" dominant-baseline="text-before-edge">Wallet</text></g></svg>