<svg version="1.1" xmlns="http://www.w3.org/2000/svg" viewBox="0 0 112 92" width="112" height="92">
  <!-- svg-source:excalidraw -->
  
  <defs>
    
    
  </defs>
  <g stroke-linecap="round"><g transform="translate(26 6) rotate(0 30 40)" fill-rule="evenodd"><path d="M0 0 L-20 20 L-20 60 L0 80 L60 80 L80 60 L80 20 L60 0 L0 0" stroke="none" stroke-width="0" fill="#fff" fill-rule="evenodd"></path><path d="M0 0 C-5.44 5.44, -10.88 10.88, -20 20 M0 0 C-6.52 6.52, -13.05 13.05, -20 20 M-20 20 C-20 30.94, -20 41.89, -20 60 M-20 20 C-20 29.27, -20 38.54, -20 60 M-20 60 C-13.01 66.99, -6.01 73.99, 0 80 M-20 60 C-14.71 65.29, -9.43 70.57, 0 80 M0 80 C14.91 80, 29.82 80, 60 80 M0 80 C18.66 80, 37.31 80, 60 80 M60 80 C67.18 72.82, 74.36 65.64, 80 60 M60 80 C64.43 75.57, 68.85 71.15, 80 60 M80 60 C80 49.85, 80 39.7, 80 20 M80 60 C80 45.44, 80 30.89, 80 20 M80 20 C75.32 15.32, 70.64 10.64, 60 0 M80 20 C72.35 12.35, 64.69 4.69, 60 0 M60 0 C43.69 0, 27.38 0, 0 0 M60 0 C38.84 0, 17.67 0, 0 0 M0 0 C0 0, 0 0, 0 0 M0 0 C0 0, 0 0, 0 0" stroke="#000000" stroke-width="1" fill="none"></path></g></g><mask></mask><g stroke-linecap="round" transform="translate(6 6) rotate(0 50 40)"><path d="M0 0 C34.26 0, 68.52 0, 100 0 M0 0 C31.45 0, 62.9 0, 100 0 M100 0 C100 24.66, 100 49.33, 100 80 M100 0 C100 19.49, 100 38.97, 100 80 M100 80 C61.23 80, 22.46 80, 0 80 M100 80 C61.33 80, 22.66 80, 0 80 M0 80 C0 60.66, 0 41.32, 0 0 M0 80 C0 62.07, 0 44.14, 0 0" stroke="transparent" stroke-width="1" fill="none"></path></g></svg>