<svg version="1.1" xmlns="http://www.w3.org/2000/svg" viewBox="0 0 237.34100341796875 238.81540100626933" width="237.34100341796875" height="238.81540100626933">
  <!-- svg-source:excalidraw -->
  
  <defs>
    
    
  </defs>
  <g stroke-linecap="round" transform="translate(75.26177978515625 6) rotate(0 44.830902099609375 47.48755902786396)"><path d="M43.26 -0.16 C50.93 -1.32, 60.94 1.29, 67.82 5.55 C74.69 9.81, 80.94 17.54, 84.49 25.39 C88.04 33.25, 89.83 44.05, 89.12 52.66 C88.42 61.26, 85.23 70.3, 80.28 77.02 C75.33 83.74, 67.02 90.29, 59.43 92.98 C51.83 95.67, 42.52 95.39, 34.72 93.16 C26.91 90.93, 18.38 85.68, 12.6 79.61 C6.82 73.53, 1.47 65.04, 0.03 56.72 C-1.41 48.4, 0.81 37.66, 3.95 29.66 C7.09 21.66, 11.42 13.57, 18.88 8.73 C26.33 3.89, 42.71 1.74, 48.67 0.6 C54.63 -0.54, 54.56 1.23, 54.64 1.88 M40.56 -0.88 C48.17 -2.57, 59.07 0.83, 66.05 4.65 C73.02 8.46, 78.45 14.52, 82.43 21.98 C86.41 29.45, 90.14 40.73, 89.91 49.42 C89.67 58.11, 85.93 66.97, 81 74.12 C76.08 81.27, 67.6 88.84, 60.37 92.31 C53.14 95.77, 45.25 96.82, 37.61 94.9 C29.97 92.98, 20.77 86.91, 14.53 80.79 C8.29 74.66, 1.96 66.48, 0.18 58.16 C-1.59 49.85, 1.32 39.04, 3.86 30.9 C6.39 22.75, 9.46 14.28, 15.4 9.29 C21.35 4.3, 35.56 2.54, 39.53 0.95 C43.49 -0.64, 38.93 -1.18, 39.18 -0.26" stroke="none" stroke-width="0" fill="#0c37a2"></path><path d="M62.98 3.94 C70.43 6.58, 78.71 14.38, 83.28 21.65 C87.86 28.92, 90.51 38.97, 90.41 47.58 C90.32 56.19, 87.32 66.24, 82.69 73.32 C78.07 80.39, 70.1 86.44, 62.66 90.02 C55.23 93.6, 46.08 95.92, 38.08 94.8 C30.09 93.67, 20.8 88.78, 14.69 83.26 C8.59 77.74, 3.75 69.78, 1.46 61.66 C-0.84 53.54, -1.44 42.77, 0.92 34.55 C3.27 26.32, 9.3 17.86, 15.58 12.29 C21.87 6.73, 29.64 1.76, 38.63 1.17 C47.62 0.57, 63.42 6.58, 69.51 8.72 C75.59 10.87, 75.41 13.58, 75.13 14.03 M30.92 1.3 C38.23 -1.76, 49.45 -1.21, 57.2 1.15 C64.95 3.5, 72 9.02, 77.42 15.45 C82.84 21.87, 88.37 31.45, 89.71 39.71 C91.05 47.97, 88.8 57.3, 85.46 65.02 C82.11 72.74, 76.35 80.92, 69.63 86.05 C62.9 91.18, 53.17 95.59, 45.1 95.8 C37.04 96, 27.91 92.01, 21.25 87.27 C14.59 82.53, 8.64 75.11, 5.16 67.35 C1.67 59.6, -0.58 48.97, 0.35 40.72 C1.28 32.47, 5.41 24.15, 10.75 17.88 C16.1 11.61, 28.84 5.5, 32.44 3.12 C36.03 0.74, 32.07 2.79, 32.31 3.62" stroke="#0c37a2" stroke-width="1" fill="none"></path></g><g stroke-linecap="round" transform="translate(6 92.72318018951698) rotate(0 112.67050170898438 70.04611040837617)"><path d="M35.02 0 C78.31 -0.62, 125 0.69, 190.32 0 C213.36 -0.22, 228.45 12.82, 225.34 35.02 C226.28 52.01, 226.57 71.65, 225.34 105.07 C223.69 125.26, 214.01 142.01, 190.32 140.09 C155.11 139.7, 119.98 142.96, 35.02 140.09 C13.09 136.97, -2.71 127.73, 0 105.07 C2.6 80.57, 3.13 66.6, 0 35.02 C-0.16 14.28, 8.35 -2.25, 35.02 0" stroke="none" stroke-width="0" fill="#0c37a2"></path><path d="M35.02 0 C87.38 0.17, 139.88 -0.35, 190.32 0 M35.02 0 C91.48 -1.48, 148.29 -0.67, 190.32 0 M190.32 0 C212.05 0.4, 225.46 13.19, 225.34 35.02 M190.32 0 C211.42 -1.7, 224.33 13.34, 225.34 35.02 M225.34 35.02 C222.82 51.62, 226.27 68.78, 225.34 105.07 M225.34 35.02 C225.81 53.78, 226.49 73.23, 225.34 105.07 M225.34 105.07 C226.95 129.15, 214.7 138.92, 190.32 140.09 M225.34 105.07 C225.14 126.9, 212.61 141.27, 190.32 140.09 M190.32 140.09 C142.01 139.44, 91.43 138.21, 35.02 140.09 M190.32 140.09 C141.94 138.99, 93.69 138.69, 35.02 140.09 M35.02 140.09 C11.65 141.63, -1.68 126.61, 0 105.07 M35.02 140.09 C9.77 139.64, -0.93 128.76, 0 105.07 M0 105.07 C0.03 89.03, 0 74.68, 0 35.02 M0 105.07 C-0.27 77.19, 1.23 49.95, 0 35.02 M0 35.02 C0.73 12.54, 11.86 0.78, 35.02 0 M0 35.02 C0.07 13.19, 11.13 -0.22, 35.02 0" stroke="#0c37a2" stroke-width="1" fill="none"></path></g><g transform="translate(95.67050170898438 104.69757174232439) rotate(0 23 12.5)"><text x="23" y="0" font-family="Virgil, Segoe UI Emoji" font-size="20px" fill="#fff" text-anchor="middle" style="white-space: pre;" direction="ltr" dominant-baseline="text-before-edge">User</text></g><g transform="translate(80.67050170898438 133.8388541873819) rotate(0 38 10)"><text x="38" y="0" font-family="Cascadia, Segoe UI Emoji" font-size="16px" fill="#fff" text-anchor="middle" style="white-space: pre;" direction="ltr" dominant-baseline="text-before-edge">[person]</text></g><g transform="translate(26.670501708984375 182.74014815439472) rotate(0 92 9.5)"><text x="92" y="0" font-family="Helvetica, Segoe UI Emoji" font-size="16px" fill="#fff" text-anchor="middle" style="white-space: pre;" direction="ltr" dominant-baseline="text-before-edge">Who it is or what it does? </text></g></svg>