<svg version="1.1" xmlns="http://www.w3.org/2000/svg" viewBox="0 0 442 182" width="442" height="182">
  <!-- svg-source:excalidraw -->
  
  <defs>
    
    
  </defs>
  <g stroke-linecap="round" transform="translate(16 16) rotate(0 210 80)"><path d="M1.34 -1.64 L420.13 0.58 L421.58 160.11 L-0.11 161.92" stroke="none" stroke-width="0" fill="#868e96"></path><path d="M0 0 C134.28 -1.2, 268.37 0.61, 420 0 M0 0 C93.76 -1.38, 186.2 -1.23, 420 0 M420 0 C420.63 42.91, 419.37 85.76, 420 160 M420 0 C418.28 62.42, 418.73 123.25, 420 160 M420 160 C310.83 159.28, 203.5 158.76, 0 160 M420 160 C264.88 157.83, 110.45 157.74, 0 160 M0 160 C1.94 120.3, -0.2 81.55, 0 0 M0 160 C0.5 101.64, -0.13 42.73, 0 0" stroke="#000000" stroke-width="1" fill="none"></path></g><g stroke-linecap="round" transform="translate(6 6) rotate(0 210 80)"><path d="M1.99 1.59 L421.45 -0.33 L420.93 161.8 L-0.1 158.94" stroke="none" stroke-width="0" fill="#ffffff"></path><path d="M0 0 C115.8 1.08, 228.65 1.12, 420 0 M0 0 C117.57 -1.98, 234.04 -1.59, 420 0 M420 0 C421.23 62.32, 421.89 127.48, 420 160 M420 0 C422.34 61.02, 422.38 123.26, 420 160 M420 160 C299.85 159.48, 180.43 158.9, 0 160 M420 160 C293.29 157.89, 167.01 158.37, 0 160 M0 160 C-0.14 99.88, 0.63 42.91, 0 0 M0 160 C-0.86 119.66, -0.85 78.37, 0 0" stroke="#000000" stroke-width="1" fill="none"></path></g><g transform="translate(160 78.53847451038513) rotate(0 116 35)"><text x="0" y="0" font-family="Virgil, Segoe UI Emoji" font-size="28px" fill="#495057" text-anchor="start" style="white-space: pre;" direction="ltr" dominant-baseline="text-before-edge">TDE Tablespace</text><text x="0" y="35" font-family="Virgil, Segoe UI Emoji" font-size="28px" fill="#495057" text-anchor="start" style="white-space: pre;" direction="ltr" dominant-baseline="text-before-edge">Encryption Key</text></g><g transform="translate(160 23.46152548961487) rotate(0 110 33.67346938775509)"><text x="0" y="0" font-family="Virgil, Segoe UI Emoji" font-size="53.87755102040816px" fill="#000000" text-anchor="start" style="white-space: pre;" direction="ltr" dominant-baseline="text-before-edge">SECRET</text></g><g stroke-linecap="round"><g transform="translate(40.12835064349929 39.01839613895527) rotate(0 49.837387298274734 47.067312421160175)" fill-rule="evenodd"><path d="M0 0 C0 0, 0 0, 0 0 M0 0 C0 0, 0 0, 0 0 M-0.26 6.4 C2.64 3.06, 5.54 -0.28, 9.58 -4.92 M-0.26 6.4 C2.36 3.39, 4.97 0.38, 9.58 -4.92 M0.13 12.04 C3.83 7.79, 7.53 3.53, 17.85 -8.34 M0.13 12.04 C6.18 5.08, 12.23 -1.87, 17.85 -8.34 M-0.13 18.44 C5.38 12.1, 10.89 5.76, 23.49 -8.73 M-0.13 18.44 C5.23 12.27, 10.6 6.1, 23.49 -8.73 M0.27 24.08 C8.21 14.95, 16.15 5.81, 29.13 -9.13 M0.27 24.08 C6.7 16.68, 13.13 9.28, 29.13 -9.13 M0 30.48 C9.84 19.16, 19.68 7.85, 35.43 -10.27 M0 30.48 C9.87 19.14, 19.73 7.79, 35.43 -10.27 M-0.26 36.88 C10.91 24.03, 22.09 11.18, 40.42 -9.91 M-0.26 36.88 C11.49 23.36, 23.24 9.85, 40.42 -9.91 M0.14 42.52 C15.87 24.43, 31.6 6.33, 46.06 -10.31 M0.14 42.52 C13.57 27.07, 27 11.62, 46.06 -10.31 M-0.12 48.92 C13.04 33.77, 26.21 18.63, 51.71 -10.7 M-0.12 48.92 C18.91 27.02, 37.95 5.12, 51.71 -10.7 M0.27 54.56 C13.32 39.55, 26.37 24.53, 56.69 -10.34 M0.27 54.56 C13.13 39.77, 25.99 24.98, 56.69 -10.34 M0.01 60.96 C24.61 32.66, 49.2 4.37, 61.68 -9.98 M0.01 60.96 C19.89 38.09, 39.77 15.22, 61.68 -9.98 M0.4 66.6 C22.72 40.94, 45.03 15.27, 66.67 -9.62 M0.4 66.6 C15.59 49.13, 30.78 31.65, 66.67 -9.62 M0.14 73 C24.01 45.55, 47.87 18.1, 71.65 -9.26 M0.14 73 C25.47 43.87, 50.79 14.74, 71.65 -9.26 M-0.12 79.4 C25.78 49.6, 51.69 19.8, 75.98 -8.15 M-0.12 79.4 C24.76 50.78, 49.64 22.16, 75.98 -8.15 M0.28 85.04 C18.07 64.57, 35.86 44.11, 80.32 -7.03 M0.28 85.04 C24.16 57.57, 48.04 30.1, 80.32 -7.03 M0.01 91.44 C26.51 60.96, 53 30.49, 84.65 -5.92 M0.01 91.44 C28.56 58.61, 57.1 25.77, 84.65 -5.92 M2.38 94.82 C25.53 68.18, 48.68 41.55, 88.98 -4.8 M2.38 94.82 C30.69 62.24, 59.01 29.67, 88.98 -4.8 M6.05 96.69 C24.76 75.16, 43.47 53.64, 93.31 -3.69 M6.05 96.69 C37.69 60.29, 69.33 23.89, 93.31 -3.69 M9.73 98.56 C27.98 77.56, 46.23 56.56, 96.33 -1.07 M9.73 98.56 C31.18 73.88, 52.63 49.2, 96.33 -1.07 M14.06 99.67 C47.88 60.77, 81.69 21.87, 100 0.8 M14.06 99.67 C39.09 70.88, 64.12 42.08, 100 0.8 M18.39 100.79 C37.37 78.95, 56.36 57.11, 99.74 7.2 M18.39 100.79 C35.01 81.66, 51.64 62.54, 99.74 7.2 M22.72 101.9 C44.83 76.46, 66.94 51.03, 99.48 13.6 M22.72 101.9 C45.54 75.64, 68.37 49.39, 99.48 13.6 M27.05 103.02 C45.63 81.64, 64.21 60.27, 99.87 19.24 M27.05 103.02 C54.47 71.47, 81.89 39.93, 99.87 19.24 M31.38 104.13 C53.57 78.61, 75.76 53.08, 99.61 25.64 M31.38 104.13 C54.65 77.36, 77.92 50.59, 99.61 25.64 M37.02 103.74 C51.83 86.71, 66.63 69.68, 100.01 31.28 M37.02 103.74 C54.65 83.46, 72.28 63.18, 100.01 31.28 M42.01 104.1 C54.76 89.43, 67.51 74.76, 99.75 37.68 M42.01 104.1 C57.51 86.27, 73.01 68.44, 99.75 37.68 M47 104.46 C61.23 88.08, 75.46 71.71, 99.48 44.08 M47 104.46 C60.95 88.4, 74.91 72.35, 99.48 44.08 M51.33 105.57 C64.93 89.92, 78.53 74.28, 99.88 49.72 M51.33 105.57 C66.45 88.17, 81.58 70.78, 99.88 49.72 M56.97 105.18 C69.8 90.43, 82.62 75.68, 99.62 56.12 M56.97 105.18 C66.44 94.28, 75.91 83.39, 99.62 56.12 M62.62 104.78 C73.54 92.21, 84.46 79.65, 99.36 62.52 M62.62 104.78 C76.88 88.38, 91.14 71.97, 99.36 62.52 M68.92 103.63 C81.24 89.45, 93.57 75.27, 99.75 68.16 M68.92 103.63 C77.29 93.99, 85.67 84.35, 99.75 68.16 M75.21 102.48 C81.42 95.35, 87.62 88.21, 99.49 74.56 M75.21 102.48 C80.13 96.83, 85.04 91.18, 99.49 74.56 M81.51 101.33 C86.54 95.55, 91.56 89.77, 99.23 80.96 M81.51 101.33 C86.37 95.74, 91.23 90.15, 99.23 80.96 M88.47 99.43 C91 96.52, 93.53 93.6, 99.62 86.6 M88.47 99.43 C92.3 95.02, 96.14 90.61, 99.62 86.6 M1.62 94.16 C1.62 94.16, 1.62 94.16, 1.62 94.16 M1.62 94.16 C1.62 94.16, 1.62 94.16, 1.62 94.16 M13.3 99.02 C9.79 95.97, 6.29 92.92, 0.47 87.87 M13.3 99.02 C8.32 94.69, 3.33 90.35, 0.47 87.87 M22.72 101.9 C16.78 96.74, 10.84 91.58, 0.08 82.22 M22.72 101.9 C16.93 96.87, 11.15 91.84, 0.08 82.22 M30.62 103.48 C20.22 94.43, 9.81 85.38, 0.44 77.24 M30.62 103.48 C18.62 93.04, 6.61 82.6, 0.44 77.24 M37.02 103.74 C26.57 94.65, 16.11 85.56, 0.04 71.59 M37.02 103.74 C24.73 93.05, 12.43 82.37, 0.04 71.59 M43.42 104 C27.04 89.76, 10.66 75.53, 0.4 66.61 M43.42 104 C33.97 95.79, 24.53 87.58, 0.4 66.61 M49.82 104.26 C32.9 89.55, 15.98 74.84, 0.01 60.96 M49.82 104.26 C31.93 88.72, 14.05 73.17, 0.01 60.96 M55.46 103.87 C43.9 93.82, 32.34 83.77, 0.37 55.98 M55.46 103.87 C34.12 85.32, 12.79 66.77, 0.37 55.98 M61.1 103.47 C46.2 90.52, 31.3 77.57, -0.03 50.33 M61.1 103.47 C38.22 83.58, 15.34 63.69, -0.03 50.33 M67.5 103.73 C50.73 89.16, 33.96 74.58, 0.33 45.35 M67.5 103.73 C52.69 90.86, 37.88 77.98, 0.33 45.35 M72.39 102.68 C54.68 87.29, 36.97 71.89, -0.06 39.7 M72.39 102.68 C46.79 80.43, 21.18 58.17, -0.06 39.7 M77.28 101.63 C61.35 87.79, 45.43 73.94, 0.3 34.72 M77.28 101.63 C52.29 79.91, 27.3 58.18, 0.3 34.72 M82.92 101.24 C55.48 77.38, 28.03 53.53, -0.1 29.07 M82.92 101.24 C57.43 79.08, 31.94 56.92, -0.1 29.07 M87.06 99.53 C54.31 71.07, 21.57 42.61, 0.26 24.08 M87.06 99.53 C61.79 77.57, 36.53 55.61, 0.26 24.08 M91.19 97.83 C61.07 71.64, 30.95 45.46, -0.13 18.44 M91.19 97.83 C56.29 67.49, 21.39 37.15, -0.13 18.44 M94.57 95.46 C61.97 67.13, 29.38 38.79, 0.23 13.45 M94.57 95.46 C57.1 62.89, 19.63 30.32, 0.23 13.45 M97.95 93.1 C77.44 75.27, 56.93 57.45, -0.17 7.81 M97.95 93.1 C62.47 62.26, 27 31.43, -0.17 7.81 M99.06 88.77 C70.83 64.23, 42.6 39.69, 0.19 2.82 M99.06 88.77 C68.8 62.46, 38.53 36.15, 0.19 2.82 M99.42 83.78 C62.72 51.88, 26.02 19.98, 1.31 -1.51 M99.42 83.78 C63.71 52.74, 28.01 21.7, 1.31 -1.51 M99.78 78.79 C75.23 57.45, 50.67 36.11, 5.44 -3.21 M99.78 78.79 C65.14 48.68, 30.51 18.57, 5.44 -3.21 M99.39 73.15 C65.89 44.03, 32.39 14.91, 8.82 -5.58 M99.39 73.15 C68.23 46.07, 37.08 18.99, 8.82 -5.58 M99.75 68.16 C71.83 43.9, 43.91 19.63, 12.96 -7.28 M99.75 68.16 C72.37 44.37, 45 20.57, 12.96 -7.28 M99.35 62.52 C68.05 35.31, 36.75 8.1, 17.09 -8.99 M99.35 62.52 C67.08 34.47, 34.82 6.42, 17.09 -8.99 M99.71 57.53 C83.49 43.43, 67.27 29.33, 22.73 -9.38 M99.71 57.53 C71.08 32.65, 42.45 7.76, 22.73 -9.38 M99.32 51.89 C75.73 31.38, 52.14 10.88, 27.62 -10.43 M99.32 51.89 C82.44 37.22, 65.57 22.56, 27.62 -10.43 M99.68 46.9 C82.76 32.2, 65.85 17.49, 34.02 -10.17 M99.68 46.9 C77.11 27.28, 54.54 7.66, 34.02 -10.17 M99.28 41.26 C76.77 21.69, 54.27 2.13, 39.66 -10.57 M99.28 41.26 C79.27 23.86, 59.26 6.47, 39.66 -10.57 M99.64 36.27 C84.35 22.98, 69.05 9.68, 45.3 -10.96 M99.64 36.27 C82.05 20.98, 64.46 5.69, 45.3 -10.96 M100 31.29 C88.86 21.6, 77.71 11.91, 50.95 -11.36 M100 31.29 C80.79 14.58, 61.57 -2.12, 50.95 -11.36 M99.61 25.64 C87.33 14.97, 75.05 4.29, 57.35 -11.1 M99.61 25.64 C83.09 11.28, 66.56 -3.08, 57.35 -11.1 M99.97 20.66 C92.06 13.78, 84.15 6.9, 63.74 -10.83 M99.97 20.66 C91.36 13.17, 82.74 5.68, 63.74 -10.83 M99.57 15.01 C88.33 5.24, 77.08 -4.54, 70.14 -10.57 M99.57 15.01 C90.45 7.08, 81.32 -0.85, 70.14 -10.57 M99.93 10.03 C95.07 5.8, 90.2 1.56, 78.8 -8.34 M99.93 10.03 C92.66 3.71, 85.39 -2.62, 78.8 -8.34 M99.54 4.38 C96.43 1.68, 93.32 -1.02, 86.71 -6.77 M99.54 4.38 C96.57 1.8, 93.59 -0.79, 86.71 -6.77" stroke="#fa5252" stroke-width="0.5" fill="none"></path><path d="M0 0 C0 13.31, -0.29 64.12, 0 79.84 C0.29 95.55, -0.54 90.98, 1.75 94.27 C4.04 97.56, 8.74 98, 13.73 99.58 C18.72 101.16, 25.5 102.89, 31.69 103.77 C37.87 104.65, 44.92 104.86, 50.83 104.86 C56.75 104.86, 61.9 104.4, 67.18 103.78 C72.46 103.15, 77.41 102.79, 82.51 101.11 C87.61 99.43, 95.08 97.25, 97.8 93.71 C100.52 90.16, 98.53 93.64, 98.85 79.84 C99.16 66.03, 99.75 24.24, 99.67 10.87 C99.6 -2.49, 100.69 2.52, 98.42 -0.35 C96.14 -3.22, 90.41 -4.77, 86.03 -6.33 C81.64 -7.9, 77.45 -8.99, 72.12 -9.73 C66.79 -10.46, 58.97 -10.56, 54.05 -10.72 C49.12 -10.88, 48.56 -11.06, 42.57 -10.69 C36.59 -10.33, 25.24 -10.32, 18.14 -8.54 C11.05 -6.75, 3.02 -1.42, 0 0 M0 0 C0 13.31, -0.29 64.12, 0 79.84 C0.29 95.55, -0.54 90.98, 1.75 94.27 C4.04 97.56, 8.74 98, 13.73 99.58 C18.72 101.16, 25.5 102.89, 31.69 103.77 C37.87 104.65, 44.92 104.86, 50.83 104.86 C56.75 104.86, 61.9 104.4, 67.18 103.78 C72.46 103.15, 77.41 102.79, 82.51 101.11 C87.61 99.43, 95.08 97.25, 97.8 93.71 C100.52 90.16, 98.53 93.64, 98.85 79.84 C99.16 66.03, 99.75 24.24, 99.67 10.87 C99.6 -2.49, 100.69 2.52, 98.42 -0.35 C96.14 -3.22, 90.41 -4.77, 86.03 -6.33 C81.64 -7.9, 77.45 -8.99, 72.12 -9.73 C66.79 -10.46, 58.97 -10.56, 54.05 -10.72 C49.12 -10.88, 48.56 -11.06, 42.57 -10.69 C36.59 -10.33, 25.24 -10.32, 18.14 -8.54 C11.05 -6.75, 3.02 -1.42, 0 0" stroke="#c92a2a" stroke-width="1" fill="none"></path></g></g><mask></mask><g stroke-linecap="round" transform="translate(40.43172875417804 26.798260183492403) rotate(0 49.749148122029965 13.526538606489737)"><path d="M99.5 13.53 C99.5 14.23, 99.29 14.95, 98.89 15.64 C98.48 16.34, 97.87 17.04, 97.06 17.71 C96.26 18.38, 95.25 19.04, 94.08 19.67 C92.9 20.3, 91.52 20.91, 90 21.48 C88.47 22.05, 86.76 22.59, 84.93 23.09 C83.09 23.59, 81.09 24.06, 78.99 24.47 C76.89 24.88, 74.65 25.26, 72.33 25.58 C70.02 25.9, 67.59 26.17, 65.12 26.39 C62.66 26.61, 60.09 26.78, 57.53 26.89 C54.97 27, 52.34 27.05, 49.75 27.05 C47.15 27.05, 44.53 27, 41.97 26.89 C39.4 26.78, 36.84 26.61, 34.38 26.39 C31.91 26.17, 29.47 25.9, 27.16 25.58 C24.85 25.26, 22.61 24.88, 20.51 24.47 C18.41 24.06, 16.41 23.59, 14.57 23.09 C12.74 22.59, 11.03 22.05, 9.5 21.48 C7.98 20.91, 6.6 20.3, 5.42 19.67 C4.24 19.04, 3.24 18.38, 2.43 17.71 C1.63 17.04, 1.02 16.34, 0.61 15.64 C0.21 14.95, 0 14.23, 0 13.53 C0 12.82, 0.21 12.11, 0.61 11.41 C1.02 10.71, 1.63 10.02, 2.43 9.35 C3.24 8.68, 4.24 8.01, 5.42 7.39 C6.6 6.76, 7.98 6.15, 9.5 5.58 C11.03 5.01, 12.74 4.46, 14.57 3.96 C16.41 3.46, 18.41 3, 20.51 2.58 C22.61 2.17, 24.85 1.79, 27.16 1.47 C29.47 1.15, 31.91 0.88, 34.38 0.66 C36.84 0.44, 39.4 0.28, 41.97 0.17 C44.53 0.06, 47.15 0, 49.75 0 C52.34 0, 54.97 0.06, 57.53 0.17 C60.09 0.28, 62.66 0.44, 65.12 0.66 C67.59 0.88, 70.02 1.15, 72.33 1.47 C74.65 1.79, 76.89 2.17, 78.99 2.58 C81.09 3, 83.09 3.46, 84.93 3.96 C86.76 4.46, 88.47 5.01, 90 5.58 C91.52 6.15, 92.9 6.76, 94.08 7.39 C95.25 8.01, 96.26 8.68, 97.06 9.35 C97.87 10.02, 98.48 10.71, 98.89 11.41 C99.29 12.11, 99.4 13.17, 99.5 13.53 C99.6 13.88, 99.6 13.17, 99.5 13.53" stroke="none" stroke-width="0" fill="#ffffff"></path><path d="M99.5 13.53 C99.5 14.23, 99.29 14.95, 98.89 15.64 C98.48 16.34, 97.87 17.04, 97.06 17.71 C96.26 18.38, 95.25 19.04, 94.08 19.67 C92.9 20.3, 91.52 20.91, 90 21.48 C88.47 22.05, 86.76 22.59, 84.93 23.09 C83.09 23.59, 81.09 24.06, 78.99 24.47 C76.89 24.88, 74.65 25.26, 72.33 25.58 C70.02 25.9, 67.59 26.17, 65.12 26.39 C62.66 26.61, 60.09 26.78, 57.53 26.89 C54.97 27, 52.34 27.05, 49.75 27.05 C47.15 27.05, 44.53 27, 41.97 26.89 C39.4 26.78, 36.84 26.61, 34.38 26.39 C31.91 26.17, 29.47 25.9, 27.16 25.58 C24.85 25.26, 22.61 24.88, 20.51 24.47 C18.41 24.06, 16.41 23.59, 14.57 23.09 C12.74 22.59, 11.03 22.05, 9.5 21.48 C7.98 20.91, 6.6 20.3, 5.42 19.67 C4.24 19.04, 3.24 18.38, 2.43 17.71 C1.63 17.04, 1.02 16.34, 0.61 15.64 C0.21 14.95, 0 14.23, 0 13.53 C0 12.82, 0.21 12.11, 0.61 11.41 C1.02 10.71, 1.63 10.02, 2.43 9.35 C3.24 8.68, 4.24 8.01, 5.42 7.39 C6.6 6.76, 7.98 6.15, 9.5 5.58 C11.03 5.01, 12.74 4.46, 14.57 3.96 C16.41 3.46, 18.41 3, 20.51 2.58 C22.61 2.17, 24.85 1.79, 27.16 1.47 C29.47 1.15, 31.91 0.88, 34.38 0.66 C36.84 0.44, 39.4 0.28, 41.97 0.17 C44.53 0.06, 47.15 0, 49.75 0 C52.34 0, 54.97 0.06, 57.53 0.17 C60.09 0.28, 62.66 0.44, 65.12 0.66 C67.59 0.88, 70.02 1.15, 72.33 1.47 C74.65 1.79, 76.89 2.17, 78.99 2.58 C81.09 3, 83.09 3.46, 84.93 3.96 C86.76 4.46, 88.47 5.01, 90 5.58 C91.52 6.15, 92.9 6.76, 94.08 7.39 C95.25 8.01, 96.26 8.68, 97.06 9.35 C97.87 10.02, 98.48 10.71, 98.89 11.41 C99.29 12.11, 99.4 13.17, 99.5 13.53 C99.6 13.88, 99.6 13.17, 99.5 13.53" stroke="#c92a2a" stroke-width="1" fill="none"></path></g><g stroke-linecap="round"><g transform="translate(69.39442838007017 89.28528131726853) rotate(0 27.61417046434417 7.382132076818863)" fill-rule="evenodd"><path d="M0 0 C8.16 -0.07, 39.6 -1.19, 48.96 -0.43 C58.32 0.32, 55.55 2.68, 56.16 4.53 C56.77 6.38, 54.25 9.18, 52.61 10.67 C50.98 12.15, 47.61 13.32, 46.34 13.43 C45.08 13.55, 45.46 11.24, 45.03 11.35 C44.6 11.46, 44.34 14.29, 43.78 14.09 C43.21 13.89, 42.38 10.1, 41.63 10.13 C40.88 10.17, 40.04 14.06, 39.27 14.3 C38.51 14.54, 37.84 11.59, 37.05 11.58 C36.26 11.56, 35.55 14.24, 34.56 14.2 C33.57 14.15, 32.23 11.39, 31.11 11.33 C30 11.26, 28.91 13.69, 27.86 13.81 C26.82 13.93, 25.95 11.84, 24.85 12.04 C23.75 12.25, 22.27 15.3, 21.28 15.04 C20.29 14.79, 19.9 10.6, 18.9 10.53 C17.9 10.46, 18.58 13.84, 15.28 14.62 C11.97 15.4, 1.62 17.63, -0.93 15.2 C-3.48 12.76, -0.16 2.53, 0 0" stroke="none" stroke-width="0" fill="#868e96" fill-rule="evenodd"></path><path d="M0 0 C8.16 -0.07, 39.6 -1.19, 48.96 -0.43 C58.32 0.32, 55.55 2.68, 56.16 4.53 C56.77 6.38, 54.25 9.18, 52.61 10.67 C50.98 12.15, 47.61 13.32, 46.34 13.43 C45.08 13.55, 45.46 11.24, 45.03 11.35 C44.6 11.46, 44.34 14.29, 43.78 14.09 C43.21 13.89, 42.38 10.1, 41.63 10.13 C40.88 10.17, 40.04 14.06, 39.27 14.3 C38.51 14.54, 37.84 11.59, 37.05 11.58 C36.26 11.56, 35.55 14.24, 34.56 14.2 C33.57 14.15, 32.23 11.39, 31.11 11.33 C30 11.26, 28.91 13.69, 27.86 13.81 C26.82 13.93, 25.95 11.84, 24.85 12.04 C23.75 12.25, 22.27 15.3, 21.28 15.04 C20.29 14.79, 19.9 10.6, 18.9 10.53 C17.9 10.46, 18.58 13.84, 15.28 14.62 C11.97 15.4, 1.62 17.63, -0.93 15.2 C-3.48 12.76, -0.16 2.53, 0 0 M0 0 C8.16 -0.07, 39.6 -1.19, 48.96 -0.43 C58.32 0.32, 55.55 2.68, 56.16 4.53 C56.77 6.38, 54.25 9.18, 52.61 10.67 C50.98 12.15, 47.61 13.32, 46.34 13.43 C45.08 13.55, 45.46 11.24, 45.03 11.35 C44.6 11.46, 44.34 14.29, 43.78 14.09 C43.21 13.89, 42.38 10.1, 41.63 10.13 C40.88 10.17, 40.04 14.06, 39.27 14.3 C38.51 14.54, 37.84 11.59, 37.05 11.58 C36.26 11.56, 35.55 14.24, 34.56 14.2 C33.57 14.15, 32.23 11.39, 31.11 11.33 C30 11.26, 28.91 13.69, 27.86 13.81 C26.82 13.93, 25.95 11.84, 24.85 12.04 C23.75 12.25, 22.27 15.3, 21.28 15.04 C20.29 14.79, 19.9 10.6, 18.9 10.53 C17.9 10.46, 18.58 13.84, 15.28 14.62 C11.97 15.4, 1.62 17.63, -0.93 15.2 C-3.48 12.76, -0.16 2.53, 0 0" stroke="#000000" stroke-width="2" fill="none"></path></g></g><mask></mask><g stroke-linecap="round" transform="translate(54.40690927129799 83.06932276346535) rotate(0 14.267411930412436 14.267411930412223)"><path d="M28.53 14.27 C28.53 15.09, 28.46 15.93, 28.32 16.74 C28.17 17.56, 27.96 18.37, 27.67 19.15 C27.39 19.92, 27.04 20.69, 26.62 21.4 C26.21 22.12, 25.73 22.81, 25.2 23.44 C24.67 24.07, 24.07 24.67, 23.44 25.2 C22.81 25.73, 22.12 26.21, 21.4 26.62 C20.69 27.04, 19.92 27.39, 19.15 27.67 C18.37 27.96, 17.56 28.17, 16.74 28.32 C15.93 28.46, 15.09 28.53, 14.27 28.53 C13.44 28.53, 12.6 28.46, 11.79 28.32 C10.98 28.17, 10.16 27.96, 9.39 27.67 C8.61 27.39, 7.85 27.04, 7.13 26.62 C6.42 26.21, 5.73 25.73, 5.1 25.2 C4.46 24.67, 3.87 24.07, 3.34 23.44 C2.81 22.81, 2.32 22.12, 1.91 21.4 C1.5 20.69, 1.14 19.92, 0.86 19.15 C0.58 18.37, 0.36 17.56, 0.22 16.74 C0.07 15.93, 0 15.09, 0 14.27 C0 13.44, 0.07 12.6, 0.22 11.79 C0.36 10.98, 0.58 10.16, 0.86 9.39 C1.14 8.61, 1.5 7.85, 1.91 7.13 C2.32 6.42, 2.81 5.73, 3.34 5.1 C3.87 4.46, 4.46 3.87, 5.1 3.34 C5.73 2.81, 6.42 2.32, 7.13 1.91 C7.85 1.5, 8.61 1.14, 9.39 0.86 C10.16 0.58, 10.98 0.36, 11.79 0.22 C12.6 0.07, 13.44 0, 14.27 0 C15.09 0, 15.93 0.07, 16.74 0.22 C17.56 0.36, 18.37 0.58, 19.15 0.86 C19.92 1.14, 20.69 1.5, 21.4 1.91 C22.12 2.32, 22.81 2.81, 23.44 3.34 C24.07 3.87, 24.67 4.46, 25.2 5.1 C25.73 5.73, 26.21 6.42, 26.62 7.13 C27.04 7.85, 27.39 8.61, 27.67 9.39 C27.96 10.16, 28.17 10.98, 28.32 11.79 C28.46 12.6, 28.5 13.85, 28.53 14.27 C28.57 14.68, 28.57 13.85, 28.53 14.27" stroke="none" stroke-width="0" fill="#868e96"></path><path d="M28.53 14.27 C28.53 15.09, 28.46 15.93, 28.32 16.74 C28.17 17.56, 27.96 18.37, 27.67 19.15 C27.39 19.92, 27.04 20.69, 26.62 21.4 C26.21 22.12, 25.73 22.81, 25.2 23.44 C24.67 24.07, 24.07 24.67, 23.44 25.2 C22.81 25.73, 22.12 26.21, 21.4 26.62 C20.69 27.04, 19.92 27.39, 19.15 27.67 C18.37 27.96, 17.56 28.17, 16.74 28.32 C15.93 28.46, 15.09 28.53, 14.27 28.53 C13.44 28.53, 12.6 28.46, 11.79 28.32 C10.98 28.17, 10.16 27.96, 9.39 27.67 C8.61 27.39, 7.85 27.04, 7.13 26.62 C6.42 26.21, 5.73 25.73, 5.1 25.2 C4.46 24.67, 3.87 24.07, 3.34 23.44 C2.81 22.81, 2.32 22.12, 1.91 21.4 C1.5 20.69, 1.14 19.92, 0.86 19.15 C0.58 18.37, 0.36 17.56, 0.22 16.74 C0.07 15.93, 0 15.09, 0 14.27 C0 13.44, 0.07 12.6, 0.22 11.79 C0.36 10.98, 0.58 10.16, 0.86 9.39 C1.14 8.61, 1.5 7.85, 1.91 7.13 C2.32 6.42, 2.81 5.73, 3.34 5.1 C3.87 4.46, 4.46 3.87, 5.1 3.34 C5.73 2.81, 6.42 2.32, 7.13 1.91 C7.85 1.5, 8.61 1.14, 9.39 0.86 C10.16 0.58, 10.98 0.36, 11.79 0.22 C12.6 0.07, 13.44 0, 14.27 0 C15.09 0, 15.93 0.07, 16.74 0.22 C17.56 0.36, 18.37 0.58, 19.15 0.86 C19.92 1.14, 20.69 1.5, 21.4 1.91 C22.12 2.32, 22.81 2.81, 23.44 3.34 C24.07 3.87, 24.67 4.46, 25.2 5.1 C25.73 5.73, 26.21 6.42, 26.62 7.13 C27.04 7.85, 27.39 8.61, 27.67 9.39 C27.96 10.16, 28.17 10.98, 28.32 11.79 C28.46 12.6, 28.5 13.85, 28.53 14.27 C28.57 14.68, 28.57 13.85, 28.53 14.27" stroke="#000000" stroke-width="2" fill="none"></path></g><g stroke-linecap="round" transform="translate(58.48331267998037 93.26033128518836) rotate(0 4.0764034086892025 4.076403408689217)"><path d="M8.15 4.08 C8.15 4.31, 8.13 4.55, 8.09 4.78 C8.05 5.02, 7.99 5.25, 7.91 5.47 C7.83 5.69, 7.72 5.91, 7.61 6.11 C7.49 6.32, 7.35 6.52, 7.2 6.7 C7.05 6.88, 6.88 7.05, 6.7 7.2 C6.52 7.35, 6.32 7.49, 6.11 7.61 C5.91 7.72, 5.69 7.83, 5.47 7.91 C5.25 7.99, 5.02 8.05, 4.78 8.09 C4.55 8.13, 4.31 8.15, 4.08 8.15 C3.84 8.15, 3.6 8.13, 3.37 8.09 C3.14 8.05, 2.9 7.99, 2.68 7.91 C2.46 7.83, 2.24 7.72, 2.04 7.61 C1.83 7.49, 1.64 7.35, 1.46 7.2 C1.28 7.05, 1.11 6.88, 0.95 6.7 C0.8 6.52, 0.66 6.32, 0.55 6.11 C0.43 5.91, 0.33 5.69, 0.25 5.47 C0.17 5.25, 0.1 5.02, 0.06 4.78 C0.02 4.55, 0 4.31, 0 4.08 C0 3.84, 0.02 3.6, 0.06 3.37 C0.1 3.14, 0.17 2.9, 0.25 2.68 C0.33 2.46, 0.43 2.24, 0.55 2.04 C0.66 1.83, 0.8 1.64, 0.95 1.46 C1.11 1.28, 1.28 1.11, 1.46 0.95 C1.64 0.8, 1.83 0.66, 2.04 0.55 C2.24 0.43, 2.46 0.33, 2.68 0.25 C2.9 0.17, 3.14 0.1, 3.37 0.06 C3.6 0.02, 3.84 0, 4.08 0 C4.31 0, 4.55 0.02, 4.78 0.06 C5.02 0.1, 5.25 0.17, 5.47 0.25 C5.69 0.33, 5.91 0.43, 6.11 0.55 C6.32 0.66, 6.52 0.8, 6.7 0.95 C6.88 1.11, 7.05 1.28, 7.2 1.46 C7.35 1.64, 7.49 1.83, 7.61 2.04 C7.72 2.24, 7.83 2.46, 7.91 2.68 C7.99 2.9, 8.05 3.14, 8.09 3.37 C8.13 3.6, 8.14 3.96, 8.15 4.08 C8.16 4.19, 8.16 3.96, 8.15 4.08" stroke="none" stroke-width="0" fill="#ffffff"></path><path d="M8.15 4.08 C8.15 4.31, 8.13 4.55, 8.09 4.78 C8.05 5.02, 7.99 5.25, 7.91 5.47 C7.83 5.69, 7.72 5.91, 7.61 6.11 C7.49 6.32, 7.35 6.52, 7.2 6.7 C7.05 6.88, 6.88 7.05, 6.7 7.2 C6.52 7.35, 6.32 7.49, 6.11 7.61 C5.91 7.72, 5.69 7.83, 5.47 7.91 C5.25 7.99, 5.02 8.05, 4.78 8.09 C4.55 8.13, 4.31 8.15, 4.08 8.15 C3.84 8.15, 3.6 8.13, 3.37 8.09 C3.14 8.05, 2.9 7.99, 2.68 7.91 C2.46 7.83, 2.24 7.72, 2.04 7.61 C1.83 7.49, 1.64 7.35, 1.46 7.2 C1.28 7.05, 1.11 6.88, 0.95 6.7 C0.8 6.52, 0.66 6.32, 0.55 6.11 C0.43 5.91, 0.33 5.69, 0.25 5.47 C0.17 5.25, 0.1 5.02, 0.06 4.78 C0.02 4.55, 0 4.31, 0 4.08 C0 3.84, 0.02 3.6, 0.06 3.37 C0.1 3.14, 0.17 2.9, 0.25 2.68 C0.33 2.46, 0.43 2.24, 0.55 2.04 C0.66 1.83, 0.8 1.64, 0.95 1.46 C1.11 1.28, 1.28 1.11, 1.46 0.95 C1.64 0.8, 1.83 0.66, 2.04 0.55 C2.24 0.43, 2.46 0.33, 2.68 0.25 C2.9 0.17, 3.14 0.1, 3.37 0.06 C3.6 0.02, 3.84 0, 4.08 0 C4.31 0, 4.55 0.02, 4.78 0.06 C5.02 0.1, 5.25 0.17, 5.47 0.25 C5.69 0.33, 5.91 0.43, 6.11 0.55 C6.32 0.66, 6.52 0.8, 6.7 0.95 C6.88 1.11, 7.05 1.28, 7.2 1.46 C7.35 1.64, 7.49 1.83, 7.61 2.04 C7.72 2.24, 7.83 2.46, 7.91 2.68 C7.99 2.9, 8.05 3.14, 8.09 3.37 C8.13 3.6, 8.14 3.96, 8.15 4.08 C8.16 4.19, 8.16 3.96, 8.15 4.08" stroke="#000000" stroke-width="2" fill="none"></path></g><g stroke-linecap="round"><g transform="translate(83.519660529264 91.7699452182587) rotate(0 16.30561363475681 0)"><path d="M0 0 C5.44 0, 27.18 0, 32.61 0 M0 0 C5.44 0, 27.18 0, 32.61 0" stroke="#000000" stroke-width="2" fill="none"></path></g></g><mask></mask></svg>