<svg version="1.1" xmlns="http://www.w3.org/2000/svg" viewBox="0 0 115.71722548839534 185.07279674920528" width="115.71722548839534" height="185.07279674920528">
  <!-- svg-source:excalidraw -->
  
  <defs>
    
    
  </defs>
  <g stroke-linecap="round"><g transform="translate(7.115641369437981 18.324854027644506) rotate(0 50.71627869208942 47.897353040452)" fill-rule="evenodd"><path d="M-2.43 2.18 C-3.1 16.24, -2.66 67.17, -1.67 82.57 C-0.69 97.97, 1.16 91.15, 3.47 94.59 C5.77 98.02, 7.37 101.33, 12.16 103.17 C16.95 105.02, 25.55 105.16, 32.2 105.64 C38.86 106.12, 45.71 106.13, 52.09 106.04 C58.47 105.96, 64.93 105.62, 70.48 105.12 C76.03 104.62, 80.32 104.36, 85.39 103.04 C90.47 101.73, 98.22 101.24, 100.92 97.23 C103.63 93.22, 101.72 93.51, 101.63 78.99 C101.55 64.47, 100.33 22.98, 100.4 10.11 C100.47 -2.77, 104.36 4.61, 102.06 1.76 C99.77 -1.08, 91.39 -5.12, 86.61 -6.96 C81.83 -8.8, 78.8 -8.43, 73.4 -9.29 C68 -10.14, 59.33 -12.15, 54.19 -12.08 C49.06 -12.02, 48.54 -9.35, 42.57 -8.89 C36.61 -8.42, 25.19 -11.13, 18.38 -9.29 C11.58 -7.44, 4.82 0.56, 1.75 2.19" stroke="none" stroke-width="0" fill="#fa5252" fill-rule="evenodd"></path><path d="M0.99 0.79 C0.99 14.26, 0.27 64.19, 0.47 80.14 C0.67 96.1, 0.08 92.87, 2.17 96.52 C4.25 100.17, 7.91 100.63, 13 102.04 C18.09 103.46, 26.32 104.18, 32.7 105.01 C39.08 105.85, 45.24 107.08, 51.28 107.06 C57.32 107.05, 63.52 105.76, 68.93 104.92 C74.34 104.08, 78.77 103.49, 83.73 102.04 C88.7 100.58, 96.1 99.78, 98.73 96.2 C101.35 92.61, 98.86 94.6, 99.5 80.52 C100.14 66.44, 102.44 25.35, 102.56 11.71 C102.69 -1.93, 102.65 1.53, 100.25 -1.31 C97.85 -4.16, 92.53 -3.95, 88.18 -5.38 C83.83 -6.8, 79.57 -9.03, 74.15 -9.86 C68.74 -10.69, 60.85 -10.17, 55.68 -10.35 C50.52 -10.52, 49.19 -11.33, 43.14 -10.91 C37.1 -10.49, 26.6 -9.6, 19.43 -7.8 C12.25 -6.01, 3.31 -1.44, 0.11 -0.17 M0.05 0.16 C-0.11 13.8, -0.49 65.38, -0.23 81.1 C0.03 96.82, -0.56 91.36, 1.6 94.49 C3.76 97.62, 7.76 98.09, 12.74 99.86 C17.71 101.63, 24.85 104.04, 31.47 105.1 C38.09 106.16, 46.05 105.92, 52.45 106.21 C58.86 106.51, 64.85 107.7, 69.87 106.87 C74.89 106.05, 77.52 103.19, 82.59 101.25 C87.66 99.31, 97.44 98.85, 100.3 95.26 C103.15 91.66, 99.77 94, 99.69 79.69 C99.61 65.37, 99.95 22.42, 99.82 9.37 C99.68 -3.67, 100.73 3.92, 98.89 1.42 C97.04 -1.08, 92.91 -3.73, 88.74 -5.64 C84.57 -7.55, 79.24 -9.2, 73.85 -10.03 C68.45 -10.86, 61.33 -10.67, 56.37 -10.61 C51.41 -10.55, 50.37 -9.73, 44.08 -9.67 C37.8 -9.62, 26.21 -11.88, 18.68 -10.25 C11.15 -8.62, 2.17 -1.6, -1.12 0.12" stroke="#c92a2a" stroke-width="1" fill="none"></path></g></g><mask></mask><g stroke-linecap="round" transform="translate(6.742179092162587 6) rotate(0 50.626483401915266 13.76508157621231)"><path d="M71.84 1.52 C80.69 2.38, 89.68 4.12, 94.48 6.56 C99.27 9.01, 101.71 13.48, 100.59 16.2 C99.47 18.92, 94.32 20.87, 87.76 22.87 C81.19 24.86, 70.93 27.56, 61.2 28.16 C51.47 28.76, 38.67 27.81, 29.4 26.46 C20.14 25.11, 10.38 22.56, 5.61 20.05 C0.85 17.55, -0.56 13.95, 0.82 11.45 C2.19 8.96, 7.32 6.9, 13.87 5.09 C20.42 3.27, 29.42 0.88, 40.14 0.56 C50.86 0.24, 70.73 2.74, 78.2 3.17 C85.66 3.61, 85.09 3.22, 84.93 3.15 M67.37 -0.35 C76.33 0.56, 86.19 3.49, 91.9 6.07 C97.6 8.64, 101.91 12.6, 101.6 15.11 C101.3 17.62, 96.32 19.36, 90.07 21.15 C83.83 22.93, 73.46 24.93, 64.15 25.82 C54.84 26.72, 43.54 27.11, 34.2 26.5 C24.86 25.89, 13.9 24.47, 8.12 22.19 C2.34 19.91, -0.76 15.39, -0.47 12.8 C-0.18 10.2, 3.65 8.68, 9.86 6.62 C16.08 4.56, 27.19 1.27, 36.8 0.41 C46.41 -0.45, 62.51 1.48, 67.52 1.45 C72.54 1.41, 67.4 -0.05, 66.91 0.21" stroke="none" stroke-width="0" fill="#ffffff"></path><path d="M27.37 2.02 C35.53 0.55, 49.67 -0.7, 59.52 -0.29 C69.37 0.11, 79.53 2.53, 86.48 4.45 C93.42 6.36, 99.73 8.7, 101.19 11.2 C102.66 13.7, 100.06 16.85, 95.26 19.45 C90.47 22.05, 81.41 25.59, 72.4 26.8 C63.39 28.02, 50.71 27.21, 41.2 26.73 C31.69 26.25, 22.11 25.88, 15.34 23.92 C8.58 21.95, 2.12 17.56, 0.61 14.96 C-0.89 12.35, 0 10.67, 6.32 8.26 C12.65 5.85, 31.48 1.72, 38.56 0.47 C45.65 -0.78, 48.75 0.55, 48.83 0.76 M70.23 1.41 C78.96 2.46, 88.92 6.11, 93.87 8.13 C98.83 10.14, 100.59 11.21, 99.97 13.49 C99.35 15.76, 96.35 19.32, 90.15 21.78 C83.95 24.23, 72.82 27.62, 62.8 28.21 C52.77 28.8, 39.06 26.55, 29.99 25.32 C20.91 24.09, 13.3 22.91, 8.34 20.82 C3.38 18.73, -0.4 15.24, 0.22 12.78 C0.84 10.31, 5.58 7.95, 12.04 6.03 C18.5 4.1, 29.23 1.9, 38.97 1.23 C48.72 0.55, 65.16 1.83, 70.53 1.95 C75.9 2.08, 71.76 2.03, 71.19 1.99" stroke="#c92a2a" stroke-width="1" fill="none"></path></g><g stroke-linecap="round" transform="translate(26.405041580347643 87.27077491238833) rotate(0 11.455679021962169 7.295488630159298)"><path d="M-0.01 -0.19 L23.54 -0.31 L23.08 15.24 L0.08 15.16" stroke="none" stroke-width="0" fill="#ffffff"></path><path d="M0 0 C7.75 -0.84, 14.83 0.22, 22.91 0 M0 0 C7.98 -0.29, 16.73 -0.04, 22.91 0 M22.91 0 C23.47 4.49, 22.37 9.12, 22.91 14.59 M22.91 0 C23.27 3.37, 23.3 5.89, 22.91 14.59 M22.91 14.59 C17.06 15.01, 10.91 14.54, 0 14.59 M22.91 14.59 C14.7 14.66, 7.14 15.01, 0 14.59 M0 14.59 C0.08 10.83, -0.24 6.77, 0 0 M0 14.59 C0.12 9.99, 0.14 4.92, 0 0" stroke="#495057" stroke-width="1" fill="none"></path></g><g stroke-linecap="round" transform="translate(66.203777811098 87.27077491238833) rotate(0 11.455679021962169 7.295488630159298)"><path d="M0.63 -0.31 L23.08 0.65 L22.99 15.16 L-0.25 14.73" stroke="none" stroke-width="0" fill="#ffffff"></path><path d="M0 0 C7.94 0.4, 18.31 0.68, 22.91 0 M0 0 C4.68 -0.05, 9.55 0.39, 22.91 0 M22.91 0 C22.38 6.19, 22.28 11.53, 22.91 14.59 M22.91 0 C23.34 5.15, 22.91 10.53, 22.91 14.59 M22.91 14.59 C16.72 14.58, 9.46 15.25, 0 14.59 M22.91 14.59 C17.92 15.12, 11.82 14.43, 0 14.59 M0 14.59 C-0.28 9.19, 0.27 2.71, 0 0 M0 14.59 C0.07 9.35, -0.01 3.71, 0 0" stroke="#495057" stroke-width="1" fill="none"></path></g><g stroke-linecap="round" transform="translate(46.304409695721006 47.47203868163524) rotate(0 11.455679021962169 7.295488630159298)"><path d="M0.17 0.65 L22.99 0.57 L22.66 14.73 L-0.99 15" stroke="none" stroke-width="0" fill="#ffffff"></path><path d="M0 0 C5.85 0.56, 9.43 -0.93, 22.91 0 M0 0 C5.03 0.33, 10.56 0.39, 22.91 0 M22.91 0 C22.16 4.99, 23.3 10.22, 22.91 14.59 M22.91 0 C22.91 5.83, 23 11.87, 22.91 14.59 M22.91 14.59 C15.64 15.2, 6.66 14.44, 0 14.59 M22.91 14.59 C15.27 14.51, 8.3 14.74, 0 14.59 M0 14.59 C0.3 9.05, 0.54 4.92, 0 0 M0 14.59 C-0.02 8.87, 0.22 3.18, 0 0" stroke="#495057" stroke-width="1" fill="none"></path></g><g stroke-linecap="round"><g transform="translate(37.41515764491942 87.30708197417971) rotate(0 21.411714546664825 -5.46065149360777)"><path d="M0 0 C-0.32 -4.11, -0.04 -7.36, 0.65 -10.92 M0 0 C0.42 -2.77, 0.43 -6.14, 0.65 -10.92 M0.65 -10.92 C16.81 -9.97, 32.76 -9.81, 42.3 -10.69 M0.65 -10.92 C11.9 -10.58, 23.3 -10.39, 42.3 -10.69 M42.3 -10.69 C42.19 -8.04, 42.76 -4.8, 42.82 -1.43 M42.3 -10.69 C42.69 -6.98, 42.79 -3.39, 42.82 -1.43" stroke="#495057" stroke-width="1" fill="none"></path></g></g><mask></mask><g stroke-linecap="round"><g transform="translate(56.83191301576244 77.02904188910588) rotate(0 -0.08808065401626664 -7.282781515152692)"><path d="M0 0 C-0.57 -5.4, -0.27 -10.52, -0.18 -14.57 M0 0 C-0.03 -5.53, 0.08 -10.82, -0.18 -14.57" stroke="#495057" stroke-width="1" fill="none"></path></g></g><mask></mask><g transform="translate(12.760088717685903 129.07279674920528) rotate(0 45 25)"><text x="45" y="0" font-family="Virgil, Segoe UI Emoji" font-size="20px" fill="#000000" text-anchor="middle" style="white-space: pre;" direction="ltr" dominant-baseline="text-before-edge">Oracle</text><text x="45" y="25" font-family="Virgil, Segoe UI Emoji" font-size="20px" fill="#000000" text-anchor="middle" style="white-space: pre;" direction="ltr" dominant-baseline="text-before-edge">Directory</text></g></svg>