<svg version="1.1" xmlns="http://www.w3.org/2000/svg" viewBox="0 0 367.86130750547363 83.71266261484266" width="367.86130750547363" height="83.71266261484266">
  <!-- svg-source:excalidraw -->
  
  <defs>
    
    
  </defs>
  <g stroke-linecap="round"><g transform="translate(41.46061205606111 6.805719639100971) rotate(0 1.3265357375512394 35.33579957754819)" fill-rule="evenodd"><path d="M0 0 C0 0, 0 0, 0 0 M0 0 C0 0, 0 0, 0 0 M-10.76 18.47 C-4.73 11.53, 1.31 4.59, 4.33 1.11 M-10.76 18.47 C-6.28 13.32, -1.81 8.18, 4.33 1.11 M-22.17 37.7 C-12.09 26.1, -2.01 14.51, 6.69 4.49 M-22.17 37.7 C-13.47 27.69, -4.77 17.68, 6.69 4.49 M-28.34 50.89 C-18.54 39.62, -8.75 28.36, 8.4 8.63 M-28.34 50.89 C-16.94 37.78, -5.55 24.67, 8.4 8.63 M-22.04 49.74 C-15.02 41.67, -8 33.59, -1.05 25.59 M-22.04 49.74 C-14.11 40.62, -6.19 31.5, -1.05 25.59 M2.89 21.06 C5.65 17.89, 8.41 14.72, 10.76 12.01 M2.89 21.06 C5.46 18.11, 8.03 15.15, 10.76 12.01 M-30.83 65.95 C-28.2 62.92, -25.56 59.89, -19.68 53.12 M-30.83 65.95 C-27.63 62.27, -24.43 58.59, -19.68 53.12 M-15.74 48.59 C-14.11 46.72, -12.48 44.84, -9.18 41.05 M-15.74 48.59 C-13.51 46.03, -11.28 43.47, -9.18 41.05 M5.25 24.44 C7.51 21.85, 9.76 19.26, 13.13 15.39 M5.25 24.44 C7.25 22.15, 9.24 19.85, 13.13 15.39 M-22.56 62.54 C-19.8 59.36, -17.03 56.17, -13.38 51.97 M-22.56 62.54 C-19.55 59.07, -16.54 55.6, -13.38 51.97 M-10.1 48.2 C-9.01 46.94, -7.92 45.69, -4.85 42.16 M-10.1 48.2 C-8.35 46.18, -6.6 44.17, -4.85 42.16 M7.62 27.82 C9.71 25.41, 11.81 23, 14.83 19.52 M7.62 27.82 C10.16 24.9, 12.7 21.98, 14.83 19.52 M-16.26 61.39 C-13.77 58.52, -11.28 55.66, -8.39 52.33 M-16.26 61.39 C-13.77 58.52, -11.27 55.65, -8.39 52.33 M-4.45 47.8 C-3.34 46.52, -2.22 45.23, -1.17 44.03 M-4.45 47.8 C-3.62 46.84, -2.78 45.88, -1.17 44.03 M9.32 31.95 C11.05 29.96, 12.79 27.97, 17.2 22.9 M9.32 31.95 C11.1 29.91, 12.87 27.87, 17.2 22.9 M-11.28 61.75 C-9.56 59.77, -7.84 57.79, -3.4 52.69 M-11.28 61.75 C-8.42 58.47, -5.57 55.19, -3.4 52.69 M-0.12 48.92 C0.71 47.96, 1.55 46.99, 2.5 45.9 M-0.12 48.92 C0.44 48.27, 1 47.63, 2.5 45.9 M11.69 35.33 C13.51 33.23, 15.34 31.13, 19.56 26.28 M11.69 35.33 C14.71 31.86, 17.73 28.39, 19.56 26.28 M-6.29 62.11 C-4.29 59.8, -2.28 57.5, 0.27 54.56 M-6.29 62.11 C-4.51 60.07, -2.74 58.02, 0.27 54.56 M4.21 50.03 C4.64 49.53, 5.08 49.03, 5.52 48.52 M4.21 50.03 C4.61 49.56, 5.02 49.1, 5.52 48.52 M14.05 38.71 C15.95 36.52, 17.85 34.33, 21.27 30.41 M14.05 38.71 C16.33 36.09, 18.61 33.47, 21.27 30.41 M-2.61 63.98 C-1.22 62.37, 0.18 60.76, 3.95 56.43 M-2.61 63.98 C-0.53 61.58, 1.55 59.19, 3.95 56.43 M15.76 42.85 C18.67 39.49, 21.59 36.13, 23.63 33.79 M15.76 42.85 C18.14 40.1, 20.53 37.35, 23.63 33.79 M1.06 65.85 C2.43 64.27, 3.8 62.69, 7.62 58.3 M1.06 65.85 C2.78 63.87, 4.49 61.9, 7.62 58.3 M18.12 46.22 C21.23 42.65, 24.33 39.07, 25.99 37.17 M18.12 46.22 C20.63 43.33, 23.14 40.44, 25.99 37.17 M5.39 66.96 C7.74 64.26, 10.08 61.57, 11.3 60.17 M5.39 66.96 C7.66 64.36, 9.92 61.75, 11.3 60.17 M20.48 49.6 C23.35 46.3, 26.22 43.01, 27.7 41.3 M20.48 49.6 C22.52 47.26, 24.56 44.91, 27.7 41.3 M9.07 68.83 C11.21 66.36, 13.36 63.89, 16.28 60.53 M9.07 68.83 C10.55 67.12, 12.04 65.41, 16.28 60.53 M22.19 53.74 C24.01 51.64, 25.83 49.54, 30.06 44.68 M22.19 53.74 C24.12 51.52, 26.05 49.3, 30.06 44.68 M12.74 70.7 C16.16 66.77, 19.58 62.83, 21.93 60.14 M12.74 70.7 C14.9 68.22, 17.05 65.74, 21.93 60.14 M24.55 57.12 C26.46 54.92, 28.37 52.72, 32.42 48.06 M24.55 57.12 C26.85 54.47, 29.14 51.83, 32.42 48.06 M17.73 71.06 C23.05 64.93, 28.38 58.81, 34.13 52.19 M17.73 71.06 C21.96 66.19, 26.2 61.32, 34.13 52.19 M22.72 71.42 C27.55 65.86, 32.38 60.3, 35.84 56.33 M22.72 71.42 C25.86 67.8, 29.01 64.18, 35.84 56.33 M30.33 68.76 C31.91 66.94, 33.5 65.12, 38.2 59.71 M30.33 68.76 C32.28 66.52, 34.23 64.27, 38.2 59.71" stroke="#00add4" stroke-width="0.5" fill="none"></path><path d="M0 0 C-2.33 4.06, -9.65 16.92, -14.01 24.35 C-18.37 31.79, -23.84 40.14, -26.16 44.61 C-28.48 49.08, -29.63 50.63, -27.9 51.19 C-26.17 51.74, -19.7 48.53, -15.79 47.94 C-11.88 47.35, -8.08 47.22, -4.46 47.63 C-0.83 48.03, 4.97 50.73, 5.98 50.38 C6.99 50.03, 3.81 47.04, 1.62 45.52 C-0.57 44, -5.16 42.16, -7.14 41.25 C-9.12 40.34, -10.05 40.78, -10.28 40.03 C-10.51 39.28, -10.14 39.53, -8.51 36.74 C-6.88 33.95, -2.31 26.06, -0.49 23.28 C1.33 20.5, 1.38 19.67, 2.42 20.04 C3.46 20.42, 3.6 21.89, 5.76 25.53 C7.93 29.17, 12.32 36.5, 15.41 41.88 C18.5 47.27, 24.08 54.74, 24.3 57.85 C24.52 60.96, 19.49 60.41, 16.71 60.53 C13.94 60.64, 11.23 59.88, 7.64 58.55 C4.06 57.21, -0.19 53.46, -4.79 52.51 C-9.38 51.55, -15.58 51.58, -19.93 52.83 C-24.28 54.08, -28.32 57.68, -30.89 59.99 C-33.47 62.31, -35.89 66.09, -35.4 66.71 C-34.9 67.33, -30.79 64.65, -27.94 63.72 C-25.09 62.79, -21.64 61.48, -18.3 61.11 C-14.97 60.74, -10.74 61, -7.95 61.5 C-5.17 62.01, -4.76 62.79, -1.59 64.15 C1.59 65.51, 6.83 68.57, 11.08 69.66 C15.32 70.75, 19.98 71.23, 23.91 70.67 C27.83 70.11, 32.27 68, 34.63 66.28 C36.98 64.57, 38.49 63.46, 38.05 60.38 C37.61 57.3, 34.89 53, 32.01 47.8 C29.13 42.59, 25.34 36.8, 20.78 29.14 C16.23 21.49, 8.15 6.73, 4.68 1.87 C1.22 -2.98, 0.78 0.31, 0 0 M0 0 C-2.33 4.06, -9.65 16.92, -14.01 24.35 C-18.37 31.79, -23.84 40.14, -26.16 44.61 C-28.48 49.08, -29.63 50.63, -27.9 51.19 C-26.17 51.74, -19.7 48.53, -15.79 47.94 C-11.88 47.35, -8.08 47.22, -4.46 47.63 C-0.83 48.03, 4.97 50.73, 5.98 50.38 C6.99 50.03, 3.81 47.04, 1.62 45.52 C-0.57 44, -5.16 42.16, -7.14 41.25 C-9.12 40.34, -10.05 40.78, -10.28 40.03 C-10.51 39.28, -10.14 39.53, -8.51 36.74 C-6.88 33.95, -2.31 26.06, -0.49 23.28 C1.33 20.5, 1.38 19.67, 2.42 20.04 C3.46 20.42, 3.6 21.89, 5.76 25.53 C7.93 29.17, 12.32 36.5, 15.41 41.88 C18.5 47.27, 24.08 54.74, 24.3 57.85 C24.52 60.96, 19.49 60.41, 16.71 60.53 C13.94 60.64, 11.23 59.88, 7.64 58.55 C4.06 57.21, -0.19 53.46, -4.79 52.51 C-9.38 51.55, -15.58 51.58, -19.93 52.83 C-24.28 54.08, -28.32 57.68, -30.89 59.99 C-33.47 62.31, -35.89 66.09, -35.4 66.71 C-34.9 67.33, -30.79 64.65, -27.94 63.72 C-25.09 62.79, -21.64 61.48, -18.3 61.11 C-14.97 60.74, -10.74 61, -7.95 61.5 C-5.17 62.01, -4.76 62.79, -1.59 64.15 C1.59 65.51, 6.83 68.57, 11.08 69.66 C15.32 70.75, 19.98 71.23, 23.91 70.67 C27.83 70.11, 32.27 68, 34.63 66.28 C36.98 64.57, 38.49 63.46, 38.05 60.38 C37.61 57.3, 34.89 53, 32.01 47.8 C29.13 42.59, 25.34 36.8, 20.78 29.14 C16.23 21.49, 8.15 6.73, 4.68 1.87 C1.22 -2.98, 0.78 0.31, 0 0" stroke="#00add4" stroke-width="1" fill="none"></path></g></g><mask></mask><g transform="translate(87.86240613828613 17.041656280116513) rotate(0 136.99945068359375 26.47572907906408)"><text x="136.99945068359375" y="0" font-family="Virgil, Segoe UI Emoji" font-size="41.80224945024997px" fill="#2e2726" text-anchor="middle" style="white-space: pre;" direction="ltr" dominant-baseline="text-before-edge">DELTA LAKE</text></g></svg>