<svg xmlns="http://www.w3.org/2000/svg" viewBox="4715.87 1775.93 318.24 100.39" width="318" height="100"><ellipse cx="5013.77" cy="1822.38" rx="14.35" ry="13.82" stroke="#0877dc" stroke-width="1" opacity="1.0" fill="none"/><polyline points="4760.85,1804.94 4763.97,1809.07 4743.18,1846.65 4721.87,1846.81 4757.45,1782.04 4791.04,1843.09 4801.01,1842.91 4773.87,1790.79 4770.61,1796.47 4767.78,1792.19 4773.84,1781.93 4808.42,1847.31 4787.44,1847.13 4758.14,1790.86 4729.66,1842.25 4740.37,1842.19 4760.85,1804.94" fill="none" stroke="#0877dc" stroke-width="1" opacity="1.0" stroke-linecap="round" stroke-linejoin="round"/><polyline points="4755.96,1830.87 4753.58,1835.35 4777.92,1835.16 4775.43,1830.83 4755.96,1830.87" fill="none" stroke="#0877dc" stroke-width="1" opacity="1.0" stroke-linecap="round" stroke-linejoin="round"/><polyline points="4841.40,1808.95 4830.40,1835.23 4835.17,1835.23 4838.33,1827.75 4850.21,1827.75 4853.55,1835.27 4858.62,1835.27 4847.02,1808.91 4841.40,1808.95" fill="none" stroke="#0877dc" stroke-width="1" opacity="1.0" stroke-linecap="round" stroke-linejoin="round"/><polyline points="4865.58,1808.59 4865.58,1835.47 4886.11,1835.47 4886.11,1830.98 4870.93,1830.98 4870.93,1808.68 4865.58,1808.59" fill="none" stroke="#0877dc" stroke-width="1" opacity="1.0" stroke-linecap="round" stroke-linejoin="round"/><polyline points="4893.07,1808.79 4893.07,1835.47 4913.90,1835.47 4913.90,1831.17 4898.70,1831.17 4898.70,1808.88 4893.07,1808.79" fill="none" stroke="#0877dc" stroke-width="1" opacity="1.0" stroke-linecap="round" stroke-linejoin="round"/><polyline points="4919.38,1808.96 4919.38,1828.13 4921.39,1831.76 4924.45,1834.47 4928.47,1835.71 4935.36,1835.71 4939.08,1833.73 4941.67,1830.59 4943.41,1826.56 4943.41,1808.84 4938.25,1808.88 4938.25,1826.62 4937.15,1829.32 4934.94,1831.29 4928.47,1831.29 4925.83,1829.74 4924.24,1826.94 4924.28,1808.92 4919.38,1808.96" fill="none" stroke="#0877dc" stroke-width="1" opacity="1.0" stroke-linecap="round" stroke-linejoin="round"/><polyline points="4951.02,1809.13 4960.89,1821.84 4950.50,1835.46 4956.23,1835.46 4964.09,1825.04 4971.48,1835.33 4977.37,1835.45 4966.71,1821.89 4977.09,1808.94 4971.47,1808.86 4964.10,1818.46 4956.54,1808.88 4951.02,1809.13" fill="none" stroke="#0877dc" stroke-width="1" opacity="1.0" stroke-linecap="round" stroke-linejoin="round"/><rect x="4985.59" y="1808.98" width="5.03" height="26.68" rx="0" stroke="#0877dc" stroke-width="1" opacity="1.0" fill="none"/><ellipse cx="5013.57" cy="1821.96" rx="9.45" ry="10.05" stroke="#0877dc" stroke-width="1" opacity="1.0" fill="#ffffff"/><polyline points="4844.15,1812.85 4839.64,1823.81 4848.56,1823.95 4844.15,1812.85" fill="#ffffff" stroke="#0877dc" stroke-width="1" opacity="1.0" stroke-linecap="round" stroke-linejoin="round"/></svg>