<svg version="1.1" xmlns="http://www.w3.org/2000/svg" viewBox="0 0 342.84316488053446 88.53333906885086" width="342.84316488053446" height="88.53333906885086">
  <!-- svg-source:excalidraw -->
  
  <defs>
    
    
  </defs>
  <g stroke-linecap="round"><g transform="translate(298.7128594616606 43.6444667771475) rotate(0 12.639134306425149 -5.852990559434488)" fill-rule="evenodd"><path d="M0 0 C0 0, 0 0, 0 0 M0 0 C0 0, 0 0, 0 0 M5.64 -0.39 C6.74 -1.66, 7.85 -2.93, 8.92 -4.17 M5.64 -0.39 C6.46 -1.34, 7.28 -2.28, 8.92 -4.17 M11.29 -0.79 C13.24 -3.03, 15.19 -5.28, 17.85 -8.34 M11.29 -0.79 C13.28 -3.09, 15.28 -5.38, 17.85 -8.34" stroke="#256ea7" stroke-width="0.5" fill="none"></path><path d="M0 0 C4.62 -0.37, 9.25 -0.74, 16.09 -1.29 M0 0 C3.61 -0.29, 7.22 -0.58, 16.09 -1.29 M16.09 -1.29 C19.18 -4.79, 22.27 -8.29, 25.28 -11.71 M16.09 -1.29 C18.33 -3.82, 20.56 -6.36, 25.28 -11.71 M25.28 -11.71 C18.66 -8.64, 12.05 -5.58, 0 0 M25.28 -11.71 C16.29 -7.54, 7.3 -3.38, 0 0 M0 0 C0 0, 0 0, 0 0 M0 0 C0 0, 0 0, 0 0" stroke="#256ea7" stroke-width="1" fill="none"></path></g></g><mask></mask><g stroke-linecap="round"><g transform="translate(298.6215661276801 63.98692789549409) rotate(0 4.881130075167675 3.3886253405638627)" fill-rule="evenodd"><path d="M0 0 C0 0, 0 0, 0 0 M0 0 C0 0, 0 0, 0 0 M0.39 5.64 C2.36 3.38, 4.32 1.13, 8.92 -4.17 M0.39 5.64 C2.62 3.08, 4.85 0.51, 8.92 -4.17" stroke="#256ea7" stroke-width="0.5" fill="none"></path><path d="M0 0 C0.09 4.21, 0.18 8.42, 0.24 11.33 M0 0 C0.08 3.8, 0.16 7.61, 0.24 11.33 M0.24 11.33 C3.78 5.41, 7.33 -0.5, 9.76 -4.55 M0.24 11.33 C2.72 7.2, 5.19 3.06, 9.76 -4.55 M9.76 -4.55 C5.95 -2.77, 2.13 -0.99, 0 0 M9.76 -4.55 C6.15 -2.87, 2.54 -1.18, 0 0 M0 0 C0 0, 0 0, 0 0 M0 0 C0 0, 0 0, 0 0" stroke="#256ea7" stroke-width="1" fill="none"></path></g></g><mask></mask><g stroke-linecap="round"><g transform="translate(266.11832710341514 24.25883803179545) rotate(0 32.53083186042977 29.11563526540101)" fill-rule="evenodd"><path d="M0 0 C0 0, 0 0, 0 0 M0 0 C0 0, 0 0, 0 0 M-4.85 11.68 C-1.93 8.32, 1 4.95, 5.64 -0.39 M-4.85 11.68 C-2.63 9.13, -0.42 6.58, 5.64 -0.39 M-5.77 18.83 C-0.68 12.98, 4.41 7.12, 10.63 -0.03 M-5.77 18.83 C-2.09 14.6, 1.59 10.37, 10.63 -0.03 M-4.72 23.72 C-0.5 18.87, 3.72 14.01, 7.74 9.38 M-4.72 23.72 C-0.1 18.41, 4.51 13.1, 7.74 9.38 M-4.33 29.36 C-0.86 25.37, 2.61 21.38, 9.45 13.52 M-4.33 29.36 C-1.5 26.12, 1.32 22.87, 9.45 13.52 M-2.62 33.5 C0.7 29.68, 4.02 25.86, 11.16 17.65 M-2.62 33.5 C2.39 27.74, 7.4 21.97, 11.16 17.65 M-0.91 37.63 C3.54 32.51, 8 27.38, 13.52 21.03 M-0.91 37.63 C3.45 32.61, 7.81 27.59, 13.52 21.03 M0.79 41.77 C5.2 36.7, 9.61 31.63, 16.54 23.65 M0.79 41.77 C6.13 35.63, 11.47 29.49, 16.54 23.65 M3.16 45.14 C8.03 39.54, 12.9 33.94, 18.9 27.03 M3.16 45.14 C9.35 38.02, 15.54 30.9, 18.9 27.03 M6.18 47.77 C10.4 42.91, 14.62 38.05, 20.61 31.17 M6.18 47.77 C9.46 44, 12.74 40.22, 20.61 31.17 M9.19 50.39 C13.61 45.31, 18.03 40.23, 21 36.81 M9.19 50.39 C13.77 45.14, 18.34 39.88, 21 36.81 M12.21 53.02 C16.2 48.43, 20.19 43.84, 23.37 40.19 M12.21 53.02 C14.91 49.91, 17.61 46.8, 23.37 40.19 M56.17 2.45 C56.59 1.96, 57.02 1.48, 58.14 0.19 M56.17 2.45 C56.81 1.71, 57.46 0.97, 58.14 0.19 M15.89 54.89 C18.81 51.53, 21.73 48.17, 25.73 43.57 M15.89 54.89 C19.63 50.59, 23.37 46.28, 25.73 43.57 M57.88 6.59 C59.13 5.15, 60.38 3.71, 63.12 0.55 M57.88 6.59 C59.38 4.85, 60.89 3.12, 63.12 0.55 M19.56 56.76 C22.99 52.82, 26.41 48.88, 28.75 46.19 M19.56 56.76 C22.5 53.38, 25.44 50, 28.75 46.19 M49.09 22.79 C53.32 17.92, 57.56 13.05, 66.8 2.42 M49.09 22.79 C53.99 17.15, 58.89 11.51, 66.8 2.42 M23.89 57.87 C26.72 54.62, 29.54 51.37, 31.11 49.57 M23.89 57.87 C26.23 55.18, 28.57 52.49, 31.11 49.57 M39.64 39.76 C42.06 36.97, 44.49 34.18, 47.51 30.7 M39.64 39.76 C42.29 36.71, 44.94 33.66, 47.51 30.7 M48.82 29.19 C52.77 24.65, 56.72 20.11, 68.51 6.55 M48.82 29.19 C55.47 21.55, 62.11 13.91, 68.51 6.55 M28.88 58.23 C42.11 43.02, 55.33 27.8, 69.56 11.44 M28.88 58.23 C38.65 47, 48.41 35.77, 69.56 11.44 M33.87 58.59 C48.19 42.11, 62.52 25.64, 70.61 16.33 M33.87 58.59 C44.43 46.44, 54.99 34.29, 70.61 16.33 M39.51 58.2 C47.85 48.6, 56.19 39.01, 71 21.97 M39.51 58.2 C51.92 43.93, 64.32 29.66, 71 21.97 M47.12 55.54 C56.37 44.9, 65.62 34.26, 70.74 28.37 M47.12 55.54 C56.21 45.08, 65.3 34.63, 70.74 28.37" stroke="#277abe" stroke-width="0.5" fill="none"></path><path d="M0 0 C3.81 -0.01, 7.63 -0.03, 11.37 -0.04 M0 0 C2.64 -0.01, 5.27 -0.02, 11.37 -0.04 M11.37 -0.04 C10.29 2.15, 9.22 4.35, 7.22 8.43 M11.37 -0.04 C10.13 2.5, 8.88 5.03, 7.22 8.43 M7.22 8.43 C8.53 11.23, 9.83 14.04, 11.93 18.55 M7.22 8.43 C8.95 12.14, 10.67 15.84, 11.93 18.55 M11.93 18.55 C13.8 21.06, 15.66 23.58, 20.1 29.57 M11.93 18.55 C13.93 21.24, 15.92 23.93, 20.1 29.57 M20.1 29.57 C20.33 32.16, 20.56 34.75, 20.84 37.83 M20.1 29.57 C20.26 31.35, 20.42 33.13, 20.84 37.83 M20.84 37.83 C24.5 41.9, 28.17 45.98, 32.77 51.1 M20.84 37.83 C24.13 41.48, 27.41 45.14, 32.77 51.1 M32.77 51.1 C35.24 46.95, 37.72 42.8, 42.24 35.23 M32.77 51.1 C35.32 46.82, 37.88 42.53, 42.24 35.23 M42.24 35.23 C44.23 33.51, 46.23 31.8, 48.46 29.87 M42.24 35.23 C44.34 33.42, 46.44 31.61, 48.46 29.87 M48.46 29.87 C48.52 27.19, 48.58 24.5, 48.72 18.07 M48.46 29.87 C48.53 26.91, 48.59 23.95, 48.72 18.07 M48.72 18.07 C51.77 14.61, 54.83 11.15, 57.84 7.74 M48.72 18.07 C51.05 15.43, 53.39 12.78, 57.84 7.74 M57.84 7.74 C56.84 5.35, 55.84 2.96, 54.64 0.09 M57.84 7.74 C57.16 6.1, 56.48 4.47, 54.64 0.09 M54.64 0.09 C58.34 0.06, 62.05 0.02, 64.98 0 M54.64 0.09 C57.12 0.07, 59.59 0.05, 64.98 0 M64.98 0 C65.57 1.02, 66.17 2.05, 66.92 3.33 M64.98 0 C65.45 0.82, 65.93 1.64, 66.92 3.33 M66.92 3.33 C67.33 4.42, 67.74 5.51, 68.61 7.82 M66.92 3.33 C67.56 5.04, 68.2 6.75, 68.61 7.82 M68.61 7.82 C69.14 9.57, 69.68 11.31, 69.95 12.19 M68.61 7.82 C69.1 9.43, 69.59 11.04, 69.95 12.19 M69.95 12.19 C70.24 14.24, 70.54 16.29, 70.72 17.59 M69.95 12.19 C70.22 14.1, 70.5 16, 70.72 17.59 M70.72 17.59 C70.71 19.06, 70.7 20.53, 70.67 23.21 M70.72 17.59 C70.71 18.91, 70.7 20.23, 70.67 23.21 M70.67 23.21 C70.55 24.22, 70.43 25.22, 70.08 28.1 M70.67 23.21 C70.49 24.75, 70.3 26.28, 70.08 28.1 M70.08 28.1 C69.59 29.77, 69.1 31.45, 68.74 32.68 M70.08 28.1 C69.77 29.16, 69.46 30.21, 68.74 32.68 M68.74 32.68 C68.22 33.88, 67.71 35.07, 67.01 36.7 M68.74 32.68 C68.38 33.5, 68.03 34.33, 67.01 36.7 M67.01 36.7 C66.35 37.86, 65.7 39.02, 64.59 40.98 M67.01 36.7 C66.1 38.31, 65.19 39.92, 64.59 40.98 M64.59 40.98 C63.85 41.95, 63.11 42.91, 61.91 44.48 M64.59 40.98 C63.92 41.85, 63.26 42.71, 61.91 44.48 M61.91 44.48 C60.65 45.8, 59.38 47.12, 58.1 48.46 M61.91 44.48 C61.06 45.37, 60.22 46.25, 58.1 48.46 M58.1 48.46 C57.06 49.34, 56.02 50.23, 54.64 51.4 M58.1 48.46 C57.25 49.19, 56.39 49.91, 54.64 51.4 M54.64 51.4 C52.69 52.57, 50.74 53.74, 49.67 54.38 M54.64 51.4 C52.89 52.45, 51.13 53.51, 49.67 54.38 M49.67 54.38 C47.83 55.1, 45.99 55.82, 44.79 56.29 M49.67 54.38 C48.23 54.94, 46.8 55.5, 44.79 56.29 M44.79 56.29 C43.53 56.68, 42.27 57.07, 40.46 57.63 M44.79 56.29 C43.54 56.67, 42.3 57.06, 40.46 57.63 M40.46 57.63 C39.09 57.78, 37.71 57.93, 34.97 58.23 M40.46 57.63 C39.04 57.78, 37.62 57.94, 34.97 58.23 M34.97 58.23 C33.04 58.25, 31.11 58.26, 29.57 58.27 M34.97 58.23 C32.94 58.25, 30.91 58.26, 29.57 58.27 M29.57 58.27 C27.62 57.98, 25.67 57.68, 23.3 57.32 M29.57 58.27 C27.72 57.99, 25.86 57.71, 23.3 57.32 M23.3 57.32 C21.75 56.79, 20.21 56.26, 18.37 55.64 M23.3 57.32 C21.82 56.82, 20.34 56.31, 18.37 55.64 M18.37 55.64 C16.71 54.84, 15.05 54.05, 12.58 52.87 M18.37 55.64 C16.39 54.69, 14.41 53.75, 12.58 52.87 M12.58 52.87 C11.22 51.93, 9.86 50.99, 8.95 50.36 M12.58 52.87 C11.21 51.92, 9.84 50.98, 8.95 50.36 M8.95 50.36 C7.84 49.37, 6.72 48.38, 5.79 47.55 M8.95 50.36 C8.26 49.75, 7.58 49.15, 5.79 47.55 M5.79 47.55 C4.68 46.36, 3.56 45.17, 2.55 44.09 M5.79 47.55 C4.96 46.67, 4.13 45.78, 2.55 44.09 M2.55 44.09 C1.89 43.17, 1.22 42.25, -0.43 39.94 M2.55 44.09 C1.59 42.75, 0.62 41.41, -0.43 39.94 M-0.43 39.94 C-1.15 38.48, -1.86 37.01, -2.64 35.41 M-0.43 39.94 C-0.91 38.96, -1.39 37.97, -2.64 35.41 M-2.64 35.41 C-3.02 34.35, -3.4 33.3, -4.15 31.26 M-2.64 35.41 C-3.16 33.96, -3.69 32.52, -4.15 31.26 M-4.15 31.26 C-4.36 30.25, -4.57 29.25, -5.19 26.28 M-4.15 31.26 C-4.44 29.89, -4.72 28.52, -5.19 26.28 M-5.19 26.28 C-5.35 24.82, -5.52 23.36, -5.66 22.05 M-5.19 26.28 C-5.36 24.77, -5.53 23.26, -5.66 22.05 M-5.66 22.05 C-5.65 20.16, -5.63 18.27, -5.61 16.83 M-5.66 22.05 C-5.65 20.6, -5.64 19.15, -5.61 16.83 M-5.61 16.83 C-5.46 15.63, -5.31 14.43, -4.97 11.8 M-5.61 16.83 C-5.42 15.31, -5.23 13.79, -4.97 11.8 M-4.97 11.8 C-4.28 9.62, -3.59 7.44, -3.16 6.05 M-4.97 11.8 C-4.6 10.62, -4.23 9.45, -3.16 6.05 M-3.16 6.05 C-2.84 5.37, -2.52 4.68, -1.69 2.9 M-3.16 6.05 C-2.69 5.05, -2.22 4.04, -1.69 2.9 M-1.69 2.9 C-1.14 1.96, -0.6 1.03, 0 0 M-1.69 2.9 C-1.23 2.12, -0.78 1.34, 0 0 M0 0 C0 0, 0 0, 0 0 M0 0 C0 0, 0 0, 0 0" stroke="#277abe" stroke-width="1" fill="none"></path></g></g><mask></mask><g stroke-linecap="round"><g transform="translate(266.1827498767907 24.208601469565565) rotate(0 32.43407005946892 -9.063656379336408)" fill-rule="evenodd"><path d="M2.73 -4.25 C2.73 -4.25, 2.73 -4.25, 2.73 -4.25 M2.73 -4.25 C2.73 -4.25, 2.73 -4.25, 2.73 -4.25 M4.44 -0.12 C7.8 -3.98, 11.16 -7.85, 16.91 -14.45 M4.44 -0.12 C8.23 -4.48, 12.02 -8.84, 16.91 -14.45 M9.43 0.24 C14.14 -5.17, 18.85 -10.59, 23.86 -16.36 M9.43 0.24 C12.44 -3.22, 15.45 -6.68, 23.86 -16.36 M19.66 -5.43 C22.52 -8.72, 25.39 -12.02, 30.82 -18.26 M19.66 -5.43 C21.93 -8.04, 24.2 -10.65, 30.82 -18.26 M25.31 -5.83 C28.56 -9.57, 31.81 -13.31, 35.8 -17.9 M25.31 -5.83 C28.96 -10.03, 32.61 -14.23, 35.8 -17.9 M30.29 -5.47 C32.83 -8.39, 35.37 -11.31, 40.13 -16.79 M30.29 -5.47 C32.88 -8.45, 35.48 -11.43, 40.13 -16.79 M35.94 -5.86 C38.52 -8.83, 41.1 -11.8, 44.46 -15.67 M35.94 -5.86 C38.26 -8.53, 40.58 -11.2, 44.46 -15.67 M40.92 -5.5 C43.17 -8.09, 45.42 -10.68, 48.8 -14.56 M40.92 -5.5 C42.81 -7.67, 44.7 -9.84, 48.8 -14.56 M46.57 -5.9 C48.92 -8.61, 51.28 -11.32, 52.47 -12.69 M46.57 -5.9 C48.43 -8.04, 50.29 -10.18, 52.47 -12.69 M50.9 -4.78 C52.71 -6.86, 54.51 -8.94, 55.49 -10.06 M50.9 -4.78 C52.6 -6.74, 54.31 -8.7, 55.49 -10.06 M53.92 -2.16 C55.24 -3.68, 56.56 -5.2, 58.51 -7.44 M53.92 -2.16 C55.5 -3.98, 57.09 -5.8, 58.51 -7.44 M56.93 0.47 C58.67 -1.53, 60.41 -3.53, 61.53 -4.82 M56.93 0.47 C58.22 -1.01, 59.5 -2.48, 61.53 -4.82 M61.92 0.83 C62.61 0.04, 63.29 -0.75, 63.89 -1.44 M61.92 0.83 C62.44 0.23, 62.95 -0.36, 63.89 -1.44" stroke="#b8e1f3" stroke-width="0.5" fill="none"></path><path d="M0 0 C4.31 0.01, 8.62 0.02, 11.36 0.02 M0 0 C3.09 0.01, 6.18 0.01, 11.36 0.02 M11.36 0.02 C11.88 -0.99, 12.41 -1.99, 12.94 -3.02 M11.36 0.02 C11.7 -0.63, 12.04 -1.29, 12.94 -3.02 M12.94 -3.02 C14.58 -3.76, 16.22 -4.5, 19.37 -5.93 M12.94 -3.02 C15.38 -4.12, 17.82 -5.23, 19.37 -5.93 M19.37 -5.93 C26.2 -5.93, 33.02 -5.92, 48.52 -5.92 M19.37 -5.93 C30.58 -5.92, 41.79 -5.92, 48.52 -5.92 M48.52 -5.92 C50.06 -5.01, 51.59 -4.1, 53.16 -3.17 M48.52 -5.92 C49.72 -5.21, 50.92 -4.5, 53.16 -3.17 M53.16 -3.17 C53.59 -2.21, 54.02 -1.25, 54.63 0.08 M53.16 -3.17 C53.71 -1.96, 54.25 -0.75, 54.63 0.08 M54.63 0.08 C58.42 0.08, 62.22 0.08, 64.87 0.08 M54.63 0.08 C57.57 0.08, 60.51 0.08, 64.87 0.08 M64.87 0.08 C64.36 -0.72, 63.84 -1.52, 62.43 -3.74 M64.87 0.08 C64.17 -1.02, 63.46 -2.12, 62.43 -3.74 M62.43 -3.74 C61.75 -4.53, 61.07 -5.33, 59.99 -6.58 M62.43 -3.74 C61.87 -4.39, 61.31 -5.04, 59.99 -6.58 M59.99 -6.58 C58.85 -7.58, 57.71 -8.57, 56.9 -9.27 M59.99 -6.58 C59.15 -7.31, 58.31 -8.05, 56.9 -9.27 M56.9 -9.27 C56.25 -9.77, 55.6 -10.27, 53.73 -11.71 M56.9 -9.27 C55.86 -10.07, 54.82 -10.87, 53.73 -11.71 M53.73 -11.71 C52.32 -12.48, 50.91 -13.26, 49.75 -13.9 M53.73 -11.71 C52.14 -12.58, 50.56 -13.46, 49.75 -13.9 M49.75 -13.9 C48.67 -14.38, 47.59 -14.87, 45.2 -15.93 M49.75 -13.9 C48.78 -14.33, 47.81 -14.77, 45.2 -15.93 M45.2 -15.93 C43.86 -16.32, 42.53 -16.71, 39.59 -17.56 M45.2 -15.93 C43.1 -16.54, 41 -17.15, 39.59 -17.56 M39.59 -17.56 C38.21 -17.73, 36.82 -17.91, 35.12 -18.13 M39.59 -17.56 C37.83 -17.78, 36.07 -18.01, 35.12 -18.13 M35.12 -18.13 C33.84 -18.15, 32.56 -18.17, 30.65 -18.21 M35.12 -18.13 C34.06 -18.15, 33 -18.17, 30.65 -18.21 M30.65 -18.21 C29.26 -18.11, 27.88 -18.02, 25.93 -17.88 M30.65 -18.21 C28.94 -18.09, 27.23 -17.97, 25.93 -17.88 M25.93 -17.88 C24.82 -17.59, 23.72 -17.3, 21.62 -16.75 M25.93 -17.88 C24.81 -17.59, 23.68 -17.29, 21.62 -16.75 M21.62 -16.75 C20.09 -16.19, 18.57 -15.64, 16.66 -14.96 M21.62 -16.75 C20.15 -16.21, 18.68 -15.68, 16.66 -14.96 M16.66 -14.96 C15.4 -14.27, 14.13 -13.59, 12.44 -12.68 M16.66 -14.96 C15.61 -14.39, 14.55 -13.82, 12.44 -12.68 M12.44 -12.68 C11.7 -12.15, 10.96 -11.62, 8.94 -10.16 M12.44 -12.68 C11.2 -11.79, 9.96 -10.89, 8.94 -10.16 M8.94 -10.16 C8.12 -9.45, 7.31 -8.73, 5.77 -7.4 M8.94 -10.16 C8.17 -9.49, 7.41 -8.82, 5.77 -7.4 M5.77 -7.4 C4.91 -6.51, 4.05 -5.62, 2.93 -4.47 M5.77 -7.4 C4.69 -6.29, 3.62 -5.18, 2.93 -4.47 M2.93 -4.47 C1.86 -2.84, 0.79 -1.2, 0 0 M2.93 -4.47 C2.32 -3.54, 1.71 -2.61, 0 0 M0 0 C0 0, 0 0, 0 0 M0 0 C0 0, 0 0, 0 0" stroke="#b8e1f3" stroke-width="1" fill="none"></path></g></g><mask></mask><g stroke-linecap="round"><g transform="translate(277.54048654481085 24.248339407180538) rotate(0 17.76224901963633 -1.5296582912160375)" fill-rule="evenodd"><path d="M1.36 -2.79 C1.36 -2.79, 1.36 -2.79, 1.36 -2.79 M1.36 -2.79 C1.36 -2.79, 1.36 -2.79, 1.36 -2.79 M4.38 -0.16 C5.32 -1.24, 6.25 -2.31, 7.01 -3.18 M4.38 -0.16 C5.09 -0.98, 5.8 -1.8, 7.01 -3.18 M9.37 0.2 C10.2 -0.75, 11.02 -1.7, 11.99 -2.82 M9.37 0.2 C10.1 -0.65, 10.84 -1.49, 11.99 -2.82 M15.01 -0.2 C15.82 -1.13, 16.63 -2.06, 17.64 -3.22 M15.01 -0.2 C15.95 -1.28, 16.9 -2.36, 17.64 -3.22 M20 0.16 C20.86 -0.82, 21.71 -1.81, 22.62 -2.86 M20 0.16 C20.72 -0.67, 21.45 -1.5, 22.62 -2.86 M24.99 0.52 C25.66 -0.26, 26.34 -1.03, 28.27 -3.25 M24.99 0.52 C26.24 -0.92, 27.49 -2.36, 28.27 -3.25 M30.63 0.13 C31.28 -0.62, 31.92 -1.36, 33.25 -2.89 M30.63 0.13 C31.3 -0.64, 31.97 -1.41, 33.25 -2.89" stroke="#eaf7fe" stroke-width="0.5" fill="none"></path><path d="M0 0 C7.82 0.02, 15.64 0.03, 35.52 0.08 M0 0 C10.05 0.02, 20.11 0.04, 35.52 0.08 M35.52 0.08 C35.5 -1.04, 35.48 -2.17, 35.45 -3.14 M35.52 0.08 C35.51 -0.8, 35.49 -1.67, 35.45 -3.14 M35.45 -3.14 C25.53 -3.12, 15.6 -3.1, 1.61 -3.07 M35.45 -3.14 C25.54 -3.12, 15.63 -3.1, 1.61 -3.07 M1.61 -3.07 C1.06 -2.02, 0.51 -0.97, 0 0 M1.61 -3.07 C1.18 -2.25, 0.75 -1.43, 0 0 M0 0 C0 0, 0 0, 0 0 M0 0 C0 0, 0 0, 0 0" stroke="#eaf7fe" stroke-width="1" fill="none"></path></g></g><mask></mask><g stroke-linecap="round"><g transform="translate(277.53650236633075 24.293028585385628) rotate(0 4.9428572689148496 4.021377997628633)" fill-rule="evenodd"><path d="M0 0 C0 0, 0 0, 0 0 M0 0 C0 0, 0 0, 0 0 M-1.57 7.91 C-0.02 6.12, 1.53 4.34, 4.99 0.36 M-1.57 7.91 C0.57 5.44, 2.71 2.98, 4.99 0.36 M7.35 3.74 C8.22 2.74, 9.08 1.75, 10.63 -0.03 M7.35 3.74 C8.25 2.71, 9.15 1.67, 10.63 -0.03" stroke="#91d5f1" stroke-width="0.5" fill="none"></path><path d="M0 0 C-0.84 1.64, -1.68 3.28, -4.13 8.05 M0 0 C-1.62 3.16, -3.24 6.33, -4.13 8.05 M-4.13 8.05 C1.51 5.54, 7.15 3.04, 14.01 0 M-4.13 8.05 C0.84 5.84, 5.8 3.64, 14.01 0 M14.01 0 C9.67 0, 5.33 0, 0 0 M14.01 0 C10.18 0, 6.35 0, 0 0 M0 0 C0 0, 0 0, 0 0 M0 0 C0 0, 0 0, 0 0" stroke="#91d5f1" stroke-width="1" fill="none"></path></g></g><mask></mask><g stroke-linecap="round"><g transform="translate(273.3075038719862 32.61694399191174) rotate(0 12.769717200671948 10.605357697138516)" fill-rule="evenodd"><path d="M0 0 C0 0, 0 0, 0 0 M0 0 C0 0, 0 0, 0 0 M1.71 4.13 C2.39 3.35, 3.07 2.56, 3.67 1.87 M1.71 4.13 C2.37 3.38, 3.02 2.62, 3.67 1.87 M3.41 8.27 C4.61 6.9, 5.8 5.52, 8.01 2.98 M3.41 8.27 C4.61 6.89, 5.81 5.52, 8.01 2.98 M5.78 11.65 C7.24 9.96, 8.71 8.28, 11.68 4.85 M5.78 11.65 C7.29 9.91, 8.8 8.17, 11.68 4.85 M8.14 15.03 C10.85 11.91, 13.56 8.79, 15.36 6.72 M8.14 15.03 C10.85 11.91, 13.56 8.79, 15.36 6.72 M10.5 18.4 C13.13 15.38, 15.77 12.35, 19.69 7.84 M10.5 18.4 C12.56 16.03, 14.62 13.66, 19.69 7.84 M12.86 21.78 C15.12 19.18, 17.38 16.59, 23.36 9.71 M12.86 21.78 C14.97 19.36, 17.08 16.94, 23.36 9.71" stroke="#91d5f1" stroke-width="0.5" fill="none"></path><path d="M0 0 C1.53 3.26, 3.05 6.53, 4.71 10.06 M0 0 C1.73 3.7, 3.47 7.41, 4.71 10.06 M4.71 10.06 C7.73 14.22, 10.76 18.38, 12.82 21.21 M4.71 10.06 C6.36 12.33, 8.01 14.6, 12.82 21.21 M12.82 21.21 C17.75 17.18, 22.68 13.15, 25.54 10.82 M12.82 21.21 C16.71 18.04, 20.6 14.86, 25.54 10.82 M25.54 10.82 C16.74 7.09, 7.95 3.37, 0 0 M25.54 10.82 C18.68 7.92, 11.83 5.01, 0 0 M0 0 C0 0, 0 0, 0 0 M0 0 C0 0, 0 0, 0 0" stroke="#91d5f1" stroke-width="1" fill="none"></path></g></g><mask></mask><g stroke-linecap="round"><g transform="translate(279.1422774483217 21.13777593072041) rotate(0 20.11398575825524 -1.4100527153261737)" fill-rule="evenodd"><path d="M0 0 C0 0, 0 0, 0 0 M0 0 C0 0, 0 0, 0 0 M4.99 0.36 C5.97 -0.77, 6.95 -1.9, 7.61 -2.66 M4.99 0.36 C5.78 -0.55, 6.57 -1.46, 7.61 -2.66 M10.63 -0.03 C11.26 -0.76, 11.9 -1.49, 13.25 -3.05 M10.63 -0.03 C11.22 -0.71, 11.8 -1.38, 13.25 -3.05 M15.62 0.33 C16.28 -0.44, 16.94 -1.2, 18.24 -2.69 M15.62 0.33 C16.55 -0.75, 17.48 -1.82, 18.24 -2.69 M21.26 -0.07 C22.17 -1.11, 23.07 -2.16, 23.88 -3.09 M21.26 -0.07 C21.86 -0.76, 22.46 -1.45, 23.88 -3.09 M26.25 0.29 C26.93 -0.49, 27.6 -1.27, 28.87 -2.73 M26.25 0.29 C26.94 -0.5, 27.63 -1.3, 28.87 -2.73 M31.89 -0.1 C32.5 -0.8, 33.11 -1.5, 34.51 -3.12 M31.89 -0.1 C32.69 -1.02, 33.49 -1.94, 34.51 -3.12 M36.88 0.26 C37.17 -0.08, 37.46 -0.42, 38.19 -1.25 M36.88 0.26 C37.22 -0.14, 37.57 -0.54, 38.19 -1.25" stroke="#f6fbfe" stroke-width="0.5" fill="none"></path><path d="M0 0 C2.12 -0.95, 4.24 -1.9, 6.3 -2.82 M0 0 C1.53 -0.69, 3.07 -1.37, 6.3 -2.82 M6.3 -2.82 C13.96 -2.82, 21.61 -2.82, 35.56 -2.82 M6.3 -2.82 C16.71 -2.82, 27.11 -2.82, 35.56 -2.82 M35.56 -2.82 C36.92 -2.01, 38.28 -1.21, 40.23 -0.06 M35.56 -2.82 C36.61 -2.2, 37.67 -1.57, 40.23 -0.06 M40.23 -0.06 C28.84 -0.04, 17.45 -0.02, 0 0 M40.23 -0.06 C31.35 -0.04, 22.46 -0.03, 0 0 M0 0 C0 0, 0 0, 0 0 M0 0 C0 0, 0 0, 0 0" stroke="#f6fbfe" stroke-width="1" fill="none"></path></g></g><mask></mask><g stroke-linecap="round"><g transform="translate(313.3168511825097 36.86288029713364) rotate(0 5.225754702797531 -6.262305541861338)" fill-rule="evenodd"><path d="M-0.35 -12.23 C-0.35 -12.23, -0.35 -12.23, -0.35 -12.23 M-0.35 -12.23 C-0.35 -12.23, -0.35 -12.23, -0.35 -12.23 M0.05 -6.59 C1.35 -8.08, 2.65 -9.58, 5.29 -12.62 M0.05 -6.59 C2.02 -8.85, 3.99 -11.12, 5.29 -12.62 M-0.22 -0.19 C1.93 -2.66, 4.08 -5.13, 8.31 -10 M-0.22 -0.19 C2.72 -3.57, 5.66 -6.95, 8.31 -10 M7.4 -2.85 C8.32 -3.91, 9.24 -4.97, 10.02 -5.86 M7.4 -2.85 C8.01 -3.56, 8.63 -4.27, 10.02 -5.86" stroke="#4e8bc9" stroke-width="0.5" fill="none"></path><path d="M0 0 C3.96 -1.84, 7.92 -3.69, 10.64 -4.95 M0 0 C2.77 -1.29, 5.54 -2.58, 10.64 -4.95 M10.64 -4.95 C9.39 -7.91, 8.14 -10.87, 7.44 -12.52 M10.64 -4.95 C9.46 -7.75, 8.27 -10.55, 7.44 -12.52 M7.44 -12.52 C5.3 -12.49, 3.16 -12.46, -0.19 -12.42 M7.44 -12.52 C5.48 -12.5, 3.51 -12.47, -0.19 -12.42 M-0.19 -12.42 C-0.12 -8.17, -0.06 -3.93, 0 0 M-0.19 -12.42 C-0.12 -8.04, -0.05 -3.66, 0 0 M0 0 C0 0, 0 0, 0 0 M0 0 C0 0, 0 0, 0 0" stroke="#4e8bc9" stroke-width="1" fill="none"></path></g></g><mask></mask><g stroke-linecap="round"><g transform="translate(298.5420491603618 64.15275747657734) rotate(0 4.8524731175662055 -4.729677660510902)" fill-rule="evenodd"><path d="M-0.1 -9.36 C-0.1 -9.36, -0.1 -9.36, -0.1 -9.36 M-0.1 -9.36 C-0.1 -9.36, -0.1 -9.36, -0.1 -9.36 M0.29 -3.72 C1.15 -4.71, 2.01 -5.69, 3.57 -7.49 M0.29 -3.72 C1.18 -4.74, 2.06 -5.76, 3.57 -7.49 M2.65 -0.34 C4.13 -2.04, 5.6 -3.73, 7.25 -5.63 M2.65 -0.34 C4.2 -2.13, 5.76 -3.91, 7.25 -5.63" stroke="#56afdf" stroke-width="0.5" fill="none"></path><path d="M0 0 C2.52 -1.22, 5.04 -2.43, 9.72 -4.69 M0 0 C2.91 -1.41, 5.83 -2.81, 9.72 -4.69 M9.72 -4.69 C7.02 -6.01, 4.32 -7.34, -0.02 -9.46 M9.72 -4.69 C6.16 -6.44, 2.59 -8.18, -0.02 -9.46 M-0.02 -9.46 C-0.02 -7.3, -0.01 -5.14, 0 0 M-0.02 -9.46 C-0.01 -7.15, -0.01 -4.84, 0 0 M0 0 C0 0, 0 0, 0 0 M0 0 C0 0, 0 0, 0 0" stroke="#56afdf" stroke-width="1" fill="none"></path></g></g><mask></mask><g stroke-linecap="round"><g transform="translate(286.91648442612313 61.98202658280047) rotate(0 5.955733804496958 6.6043779994995475)" fill-rule="evenodd"><path d="M0 0 C0 0, 0 0, 0 0 M0 0 C0 0, 0 0, 0 0 M3.02 2.62 C3.51 2.06, 3.99 1.51, 4.33 1.11 M3.02 2.62 C3.4 2.19, 3.77 1.76, 4.33 1.11 M5.38 6 C6.21 5.05, 7.03 4.1, 9.32 1.47 M5.38 6 C6.52 4.7, 7.65 3.39, 9.32 1.47 M8.4 8.63 C9.5 7.36, 10.6 6.1, 12.34 4.1 M8.4 8.63 C9.3 7.59, 10.2 6.55, 12.34 4.1 M10.76 12.01 C11.25 11.45, 11.73 10.89, 12.08 10.5 M10.76 12.01 C11.12 11.6, 11.48 11.18, 12.08 10.5" stroke="#91d5f1" stroke-width="0.5" fill="none"></path><path d="M0 0 C3.95 4.38, 7.9 8.76, 11.91 13.21 M0 0 C2.57 2.85, 5.14 5.7, 11.91 13.21 M11.91 13.21 C11.86 10.41, 11.81 7.61, 11.71 2.24 M11.91 13.21 C11.83 9.05, 11.75 4.89, 11.71 2.24 M11.71 2.24 C8.96 1.72, 6.22 1.19, 0 0 M11.71 2.24 C7.2 1.38, 2.7 0.52, 0 0 M0 0 C0 0, 0 0, 0 0 M0 0 C0 0, 0 0, 0 0" stroke="#91d5f1" stroke-width="1" fill="none"></path></g></g><mask></mask><g stroke-linecap="round"><g transform="translate(298.73872197522905 43.6551725577101) rotate(0 8.035181915493922 7.268130734535362)" fill-rule="evenodd"><path d="M0 0 C0 0, 0 0, 0 0 M0 0 C0 0, 0 0, 0 0 M2.36 3.38 C3.39 2.19, 4.43 1.01, 5.64 -0.39 M2.36 3.38 C3.28 2.32, 4.2 1.27, 5.64 -0.39 M4.07 7.51 C6.3 4.95, 8.52 2.39, 11.29 -0.79 M4.07 7.51 C6.66 4.54, 9.25 1.56, 11.29 -0.79 M6.43 10.89 C9.86 6.95, 13.28 3.01, 16.93 -1.18 M6.43 10.89 C9.32 7.57, 12.21 4.24, 16.93 -1.18 M8.8 14.27 C10.42 12.4, 12.04 10.54, 16.67 5.21 M8.8 14.27 C11.8 10.81, 14.81 7.35, 16.67 5.21" stroke="#4e8bc9" stroke-width="0.5" fill="none"></path><path d="M0 0 C3.35 5.53, 6.71 11.05, 9.61 15.83 M0 0 C2.62 4.31, 5.23 8.62, 9.61 15.83 M9.61 15.83 C11.44 14.27, 13.27 12.7, 15.85 10.5 M9.61 15.83 C11.44 14.27, 13.27 12.71, 15.85 10.5 M15.85 10.5 C15.93 6.47, 16 2.44, 16.07 -1.3 M15.85 10.5 C15.91 7.34, 15.97 4.19, 16.07 -1.3 M16.07 -1.3 C11.63 -0.94, 7.19 -0.58, 0 0 M16.07 -1.3 C10.33 -0.83, 4.59 -0.37, 0 0 M0 0 C0 0, 0 0, 0 0 M0 0 C0 0, 0 0, 0 0" stroke="#4e8bc9" stroke-width="1" fill="none"></path></g></g><mask></mask><g stroke-linecap="round"><g transform="translate(298.73872197522905 24.33826921341074) rotate(0 7.250600850571573 9.617626175822124)" fill-rule="evenodd"><path d="M0 0 C0 0, 0 0, 0 0 M0 0 C0 0, 0 0, 0 0 M-0.26 6.4 C0.94 5.02, 2.14 3.63, 4.99 0.36 M-0.26 6.4 C1.05 4.88, 2.37 3.37, 4.99 0.36 M0.13 12.04 C3.51 8.15, 6.89 4.27, 10.63 -0.03 M0.13 12.04 C3.76 7.87, 7.38 3.71, 10.63 -0.03 M-0.13 18.44 C5.5 11.97, 11.12 5.5, 14.3 1.84 M-0.13 18.44 C4.54 13.07, 9.2 7.7, 14.3 1.84 M6.83 16.53 C9.53 13.42, 12.24 10.31, 14.7 7.48 M6.83 16.53 C8.94 14.1, 11.05 11.67, 14.7 7.48" stroke="#69c2eb" stroke-width="0.5" fill="none"></path><path d="M0 0 C-0.02 5.98, -0.03 11.96, -0.05 19.24 M0 0 C-0.01 5.27, -0.03 10.53, -0.05 19.24 M-0.05 19.24 C4.47 17.17, 9 15.1, 14.56 12.55 M-0.05 19.24 C3.94 17.41, 7.93 15.58, 14.56 12.55 M14.56 12.55 C14.52 8.16, 14.48 3.77, 14.45 0.11 M14.56 12.55 C14.53 10, 14.51 7.45, 14.45 0.11 M14.45 0.11 C10.09 0.08, 5.73 0.04, 0 0 M14.45 0.11 C10.75 0.08, 7.06 0.05, 0 0 M0 0 C0 0, 0 0, 0 0 M0 0 C0 0, 0 0, 0 0" stroke="#69c2eb" stroke-width="1" fill="none"></path></g></g><mask></mask><g stroke-linecap="round"><g transform="translate(320.7480563640838 24.25077285040379) rotate(0 -3.8516447228653306 -1.5406576829306005)" fill-rule="evenodd"><path d="M-7.91 -2.9 C-7.91 -2.9, -7.91 -2.9, -7.91 -2.9 M-7.91 -2.9 C-7.91 -2.9, -7.91 -2.9, -7.91 -2.9 M-5.55 0.48 C-4.69 -0.5, -3.84 -1.48, -2.27 -3.29 M-5.55 0.48 C-4.69 -0.5, -3.84 -1.49, -2.27 -3.29" stroke="#c8e6f7" stroke-width="0.5" fill="none"></path><path d="M0 0 C-0.52 -1.17, -1.05 -2.34, -1.41 -3.14 M0 0 C-0.29 -0.64, -0.57 -1.28, -1.41 -3.14 M-1.41 -3.14 C-3.85 -3.14, -6.29 -3.14, -7.7 -3.14 M-1.41 -3.14 C-3.33 -3.14, -5.25 -3.14, -7.7 -3.14 M-7.7 -3.14 C-7.69 -2.04, -7.68 -0.94, -7.68 0.05 M-7.7 -3.14 C-7.7 -2.28, -7.69 -1.42, -7.68 0.05 M-7.68 0.05 C-5.81 0.04, -3.94 0.03, 0 0 M-7.68 0.05 C-5.41 0.04, -3.15 0.02, 0 0 M0 0 C0 0, 0 0, 0 0 M0 0 C0 0, 0 0, 0 0" stroke="#c8e6f7" stroke-width="1" fill="none"></path></g></g><mask></mask><g stroke-linecap="round"><g transform="translate(273.29593818109606 32.44814029542772) rotate(0 12.73055140978704 1.4043398258345405)" fill-rule="evenodd"><path d="M0 0 C0 0, 0 0, 0 0 M0 0 C0 0, 0 0, 0 0 M3.67 1.87 C4.94 0.41, 6.21 -1.05, 8.92 -4.17 M3.67 1.87 C4.85 0.52, 6.02 -0.83, 8.92 -4.17 M8.01 2.98 C10.32 0.32, 12.64 -2.34, 17.19 -7.58 M8.01 2.98 C11.27 -0.77, 14.53 -4.52, 17.19 -7.58 M11.68 4.85 C15.54 0.42, 19.39 -4.02, 22.83 -7.98 M11.68 4.85 C14.24 1.91, 16.79 -1.03, 22.83 -7.98 M15.36 6.72 C18.07 3.6, 20.78 0.48, 25.85 -5.35 M15.36 6.72 C18.12 3.54, 20.89 0.36, 25.85 -5.35 M19.03 8.59 C20.55 6.84, 22.07 5.09, 25.59 1.05 M19.03 8.59 C21.03 6.3, 23.02 4, 25.59 1.05 M23.36 9.71 C23.8 9.2, 24.24 8.7, 25.33 7.44 M23.36 9.71 C23.88 9.11, 24.4 8.51, 25.33 7.44" stroke="#b8e1f3" stroke-width="0.5" fill="none"></path><path d="M0 0 C6.66 2.86, 13.32 5.73, 25.46 10.94 M0 0 C9.06 3.89, 18.11 7.78, 25.46 10.94 M25.46 10.94 C25.46 5.39, 25.46 -0.17, 25.46 -8.13 M25.46 10.94 C25.46 6.63, 25.46 2.32, 25.46 -8.13 M25.46 -8.13 C23.4 -8.13, 21.33 -8.13, 18.17 -8.12 M25.46 -8.13 C23.85 -8.13, 22.24 -8.13, 18.17 -8.12 M18.17 -8.12 C12.07 -5.39, 5.97 -2.67, 0 0 M18.17 -8.12 C13.64 -6.1, 9.11 -4.07, 0 0 M0 0 C0 0, 0 0, 0 0 M0 0 C0 0, 0 0, 0 0" stroke="#b8e1f3" stroke-width="1" fill="none"></path></g></g><mask></mask><g stroke-linecap="round"><g transform="translate(298.73872197522905 43.43873789741542) rotate(0 4.707479146559308 8.035182947540534)" fill-rule="evenodd"><path d="M0 0 C0 0, 0 0, 0 0 M0 0 C0 0, 0 0, 0 0 M-0.26 6.4 C0.39 5.65, 1.04 4.9, 2.36 3.38 M-0.26 6.4 C0.72 5.26, 1.71 4.13, 2.36 3.38 M0.13 12.04 C1.13 10.9, 2.12 9.76, 4.07 7.51 M0.13 12.04 C1.49 10.48, 2.84 8.92, 4.07 7.51 M3.81 13.91 C4.73 12.85, 5.66 11.78, 6.43 10.89 M3.81 13.91 C4.43 13.2, 5.05 12.49, 6.43 10.89 M7.48 15.78 C7.91 15.29, 8.33 14.8, 8.8 14.27 M7.48 15.78 C7.94 15.25, 8.4 14.72, 8.8 14.27" stroke="#54a5d8" stroke-width="0.5" fill="none"></path><path d="M0 0 C-0.06 4.4, -0.13 8.8, -0.16 11.25 M0 0 C-0.06 4.16, -0.12 8.33, -0.16 11.25 M-0.16 11.25 C2.57 12.61, 5.3 13.96, 9.58 16.07 M-0.16 11.25 C2.35 12.49, 4.85 13.74, 9.58 16.07 M9.58 16.07 C6.3 10.58, 3.03 5.09, 0 0 M9.58 16.07 C6.2 10.4, 2.82 4.74, 0 0 M0 0 C0 0, 0 0, 0 0 M0 0 C0 0, 0 0, 0 0" stroke="#54a5d8" stroke-width="1" fill="none"></path></g></g><mask></mask><g stroke-linecap="round"><g transform="translate(298.63050154894154 43.65517307373352) rotate(0 -6.249586163616641 5.546169647482884)" fill-rule="evenodd"><path d="M-12.58 10.26 C-12.58 10.26, -12.58 10.26, -12.58 10.26 M-12.58 10.26 C-12.58 10.26, -12.58 10.26, -12.58 10.26 M-7.59 10.63 C-5.07 7.72, -2.55 4.82, 0.28 1.57 M-7.59 10.63 C-4.94 7.57, -2.28 4.51, 0.28 1.57 M-2.61 10.99 C-2.01 10.3, -1.41 9.61, 0.02 7.97 M-2.61 10.99 C-1.95 10.23, -1.29 9.47, 0.02 7.97" stroke="#91d5f1" stroke-width="0.5" fill="none"></path><path d="M0 0 C-3.46 2.82, -6.93 5.64, -12.5 10.17 M0 0 C-4.58 3.73, -9.16 7.45, -12.5 10.17 M-12.5 10.17 C-9.66 10.38, -6.82 10.59, -0.05 11.09 M-12.5 10.17 C-9.46 10.4, -6.42 10.62, -0.05 11.09 M-0.05 11.09 C-0.04 7.61, -0.02 4.13, 0 0 M-0.05 11.09 C-0.04 8.7, -0.03 6.31, 0 0 M0 0 C0 0, 0 0, 0 0 M0 0 C0 0, 0 0, 0 0" stroke="#acddf2" stroke-width="1" fill="none"></path></g></g><mask></mask><g stroke-linecap="round"><g transform="translate(286.18543737075925 53.82766145028222) rotate(0 6.222532089091601 5.140352079313061)" fill-rule="evenodd"><path d="M0 0 C0 0, 0 0, 0 0 M0 0 C0 0, 0 0, 0 0 M0.39 5.64 C1.68 4.17, 2.96 2.69, 4.99 0.36 M0.39 5.64 C1.45 4.43, 2.5 3.22, 4.99 0.36 M3.41 8.27 C5.84 5.48, 8.26 2.69, 9.97 0.72 M3.41 8.27 C5.2 6.21, 6.99 4.16, 9.97 0.72 M7.74 9.38 C8.82 8.14, 9.9 6.91, 12.99 3.34 M7.74 9.38 C9.47 7.4, 11.19 5.41, 12.99 3.34 M12.08 10.5 C12.54 9.96, 13 9.43, 13.39 8.99 M12.08 10.5 C12.6 9.9, 13.12 9.29, 13.39 8.99" stroke="#b8e1f3" stroke-width="0.5" fill="none"></path><path d="M0 0 C0.18 2.07, 0.36 4.14, 0.7 8.12 M0 0 C0.27 3.08, 0.53 6.16, 0.7 8.12 M0.7 8.12 C3.44 8.62, 6.18 9.13, 12.39 10.28 M0.7 8.12 C5.2 8.95, 9.69 9.78, 12.39 10.28 M12.39 10.28 C12.41 7.22, 12.43 4.16, 12.45 1.03 M12.39 10.28 C12.4 7.89, 12.42 5.51, 12.45 1.03 M12.45 1.03 C8.78 0.73, 5.11 0.42, 0 0 M12.45 1.03 C7.81 0.65, 3.17 0.26, 0 0 M0 0 C0 0, 0 0, 0 0 M0 0 C0 0, 0 0, 0 0" stroke="#b8e1f3" stroke-width="1" fill="none"></path></g></g><mask></mask><g transform="translate(6 15.76705874032109) rotate(0 121.89420318603516 30.902723015040465)"><text x="0" y="0" font-family="Virgil, Segoe UI Emoji" font-size="51.53431133734723px" fill="#277abe" text-anchor="start" style="white-space: pre;" direction="ltr" dominant-baseline="text-before-edge">ICEBERG</text></g></svg>