<svg version="1.1" xmlns="http://www.w3.org/2000/svg" viewBox="0 0 841.4957140891629 54.938117078731466" width="841.4957140891629" height="54.938117078731466">
  <!-- svg-source:excalidraw -->
  
  <defs>
    
    
  </defs>
  <g stroke-linecap="round"><g transform="translate(6.495714089163812 37.68288443050233) rotate(0 395.40812089758265 0)"><path d="M1.1 0.01 C132.69 0.12, 659.15 0.7, 790.65 0.61 M0.22 -1.03 C131.54 -1.27, 658.16 -1.45, 789.62 -1.19" stroke="#495057" stroke-width="1" fill="none"></path></g><g transform="translate(6.495714089163812 37.68288443050233) rotate(0 395.40812089758265 0)"><path d="M761.42 9.06 C772.52 4.5, 784.61 -0.4, 789.62 -1.19 M761.42 9.06 C768.53 5.76, 777.03 3.33, 789.62 -1.19" stroke="#495057" stroke-width="1" fill="none"></path></g><g transform="translate(6.495714089163812 37.68288443050233) rotate(0 395.40812089758265 0)"><path d="M761.44 -11.46 C772.53 -7.96, 784.61 -4.79, 789.62 -1.19 M761.44 -11.46 C768.36 -9.43, 776.85 -6.52, 789.62 -1.19" stroke="#495057" stroke-width="1" fill="none"></path></g></g><mask></mask><g stroke-linecap="round"><g transform="translate(6.656133471980866 48.54643327136523) rotate(0 0.767794818962102 -9.834942470304668)"><path d="M0.01 -0.07 C0.31 -3.49, 1.6 -16.64, 1.82 -19.99 M-0.66 -0.59 C-0.4 -3.7, 1.28 -16.24, 1.53 -19.45" stroke="#495057" stroke-width="1" fill="none"></path></g></g><mask></mask><g stroke-linecap="round"><g transform="translate(87.68784647154826 48.03112245441412) rotate(0 0.767794818962102 -9.834942470304668)"><path d="M-0.07 0.28 C0.04 -3.03, 1.03 -16.64, 1.22 -19.89 M-0.78 -0.05 C-0.52 -3.29, 1.81 -15.97, 2.29 -19.3" stroke="#495057" stroke-width="1" fill="none"></path></g></g><mask></mask><g stroke-linecap="round"><g transform="translate(246.63648610151358 48.22747857046329) rotate(0 0.767794818962102 -9.834942470304668)"><path d="M0.28 -0.32 C0.5 -3.67, 1.03 -16.91, 1.32 -20.17 M-0.24 0.71 C-0.11 -2.58, 0.42 -16.39, 0.77 -19.73" stroke="#495057" stroke-width="1" fill="none"></path></g></g><mask></mask><g stroke-linecap="round"><g transform="translate(327.449847855336 47.95853420746516) rotate(0 0.767794818962102 -9.834942470304668)"><path d="M-0.32 -0.22 C-0.13 -3.47, 0.76 -15.95, 1.04 -19.22 M0.52 -0.81 C0.88 -4.23, 1.95 -16.86, 2.01 -19.96" stroke="#495057" stroke-width="1" fill="none"></path></g></g><mask></mask><g stroke-linecap="round"><g transform="translate(166.61144853514634 48.40509447193722) rotate(0 0.767794818962102 -9.834942470304668)"><path d="M-0.22 -0.5 C0.06 -3.75, 1.73 -16.73, 1.98 -19.84 M0.67 0.43 C0.89 -2.72, 1.75 -15.82, 1.78 -19.23" stroke="#495057" stroke-width="1" fill="none"></path></g></g><mask></mask><g stroke-linecap="round"><g transform="translate(407.0168496036822 47.00877972410058) rotate(0 0.767794818962102 -9.834942470304668)"><path d="M-0.5 0.45 C-0.22 -2.83, 0.94 -16.53, 1.36 -19.89 M0.25 0.2 C0.47 -2.99, 0.57 -16.07, 0.84 -19.31" stroke="#495057" stroke-width="1" fill="none"></path></g></g><mask></mask><g stroke-linecap="round"><g transform="translate(488.3896190364394 48.32931406444891) rotate(0 0.767794818962102 -9.834942470304668)"><path d="M0.45 -0.17 C0.7 -3.29, 1.15 -16.01, 1.31 -19.21 M0.01 -0.74 C0.19 -3.96, 0.59 -16.68, 0.77 -19.93" stroke="#495057" stroke-width="1" fill="none"></path></g></g><mask></mask><g stroke-linecap="round"><g transform="translate(567.8125325227084 48.27478717547842) rotate(0 0.767794818962102 -9.834942470304668)"><path d="M-0.17 -0.22 C0.24 -3.59, 1.66 -16.55, 2 -19.76 M0.74 -0.81 C1.16 -4.14, 1.66 -15.84, 1.81 -19.11" stroke="#495057" stroke-width="1" fill="none"></path></g></g><mask></mask><g stroke-linecap="round"><g transform="translate(646.9743747139255 47.41778827474468) rotate(0 0.767794818962102 -9.834942470304668)"><path d="M-0.22 0.46 C-0.06 -2.73, 1.12 -16.07, 1.44 -19.37 M0.66 0.23 C0.71 -3.11, 0.83 -16.77, 0.96 -20.18" stroke="#495057" stroke-width="1" fill="none"></path></g></g><mask></mask><g stroke-linecap="round"><g transform="translate(727.8218996329333 47.43831141830424) rotate(0 0.767794818962102 -9.834942470304668)"><path d="M0.46 -0.09 C0.8 -3.31, 1.6 -16.17, 1.84 -19.5 M0.04 -0.62 C0.34 -3.98, 1.29 -17.2, 1.56 -20.37" stroke="#495057" stroke-width="1" fill="none"></path></g></g><mask></mask><g transform="translate(6.495714089163812 7.3384178712231005) rotate(0 7.5 10)"><text x="0" y="0" font-family="Virgil, Segoe UI Emoji" font-size="16px" fill="#000000" text-anchor="start" style="white-space: pre;" direction="ltr" dominant-baseline="text-before-edge">10</text></g><g transform="translate(86.49571408916381 7.3384178712231005) rotate(0 4.5 10)"><text x="0" y="0" font-family="Virgil, Segoe UI Emoji" font-size="16px" fill="#000000" text-anchor="start" style="white-space: pre;" direction="ltr" dominant-baseline="text-before-edge">11</text></g><g transform="translate(166.4957140891638 7.3384178712231005) rotate(0 8 10)"><text x="0" y="0" font-family="Virgil, Segoe UI Emoji" font-size="16px" fill="#000000" text-anchor="start" style="white-space: pre;" direction="ltr" dominant-baseline="text-before-edge">12</text></g><g transform="translate(246.4957140891638 7.3384178712231005) rotate(0 7.5 10)"><text x="0" y="0" font-family="Virgil, Segoe UI Emoji" font-size="16px" fill="#000000" text-anchor="start" style="white-space: pre;" direction="ltr" dominant-baseline="text-before-edge">13</text></g><g transform="translate(326.4957140891638 7.3384178712231005) rotate(0 7.5 10)"><text x="0" y="0" font-family="Virgil, Segoe UI Emoji" font-size="16px" fill="#000000" text-anchor="start" style="white-space: pre;" direction="ltr" dominant-baseline="text-before-edge">14</text></g><g transform="translate(406.4957140891638 7.3384178712231005) rotate(0 7 10)"><text x="0" y="0" font-family="Virgil, Segoe UI Emoji" font-size="16px" fill="#000000" text-anchor="start" style="white-space: pre;" direction="ltr" dominant-baseline="text-before-edge">15</text></g><g transform="translate(486.4957140891638 7.3384178712231005) rotate(0 7.5 10)"><text x="0" y="0" font-family="Virgil, Segoe UI Emoji" font-size="16px" fill="#000000" text-anchor="start" style="white-space: pre;" direction="ltr" dominant-baseline="text-before-edge">16</text></g><g transform="translate(566.4957140891638 7.3384178712231005) rotate(0 6.5 10)"><text x="0" y="0" font-family="Virgil, Segoe UI Emoji" font-size="16px" fill="#000000" text-anchor="start" style="white-space: pre;" direction="ltr" dominant-baseline="text-before-edge">17</text></g><g transform="translate(646.4957140891638 7.3384178712231005) rotate(0 8.5 10)"><text x="0" y="0" font-family="Virgil, Segoe UI Emoji" font-size="16px" fill="#000000" text-anchor="start" style="white-space: pre;" direction="ltr" dominant-baseline="text-before-edge">18</text></g><g transform="translate(726.4957140891629 7.3384178712231005) rotate(0 7 10)"><text x="0" y="0" font-family="Virgil, Segoe UI Emoji" font-size="16px" fill="#000000" text-anchor="start" style="white-space: pre;" direction="ltr" dominant-baseline="text-before-edge">19</text></g><g transform="translate(766.4957140891629 6) rotate(0 34.5 10)"><text x="0" y="0" font-family="Virgil, Segoe UI Emoji" font-size="16px" fill="#000000" text-anchor="start" style="white-space: pre;" direction="ltr" dominant-baseline="text-before-edge">Sequence</text></g></svg>