<svg xmlns="http://www.w3.org/2000/svg" viewBox="-601.07 337.98 140.96 88.54" width="141" height="89"><rect x="-593.99" y="343.98" width="127.88" height="76.54" rx="0" stroke="#000000" stroke-width="1" opacity="1.0" fill="none"/><polyline points="-595.07,354.70 -466.22,354.70" fill="none" stroke="#000000" stroke-width="1" opacity="1.0" stroke-linecap="round" stroke-linejoin="round"/><ellipse cx="-587.00" cy="350.75" rx="2.50" ry="2.50" stroke="#000000" stroke-width="1" opacity="1.0" fill="#fa5252"/><ellipse cx="-576.74" cy="350.75" rx="2.50" ry="2.50" stroke="#000000" stroke-width="1" opacity="1.0" fill="#fab005"/><ellipse cx="-566.02" cy="351.20" rx="2.50" ry="2.50" stroke="#000000" stroke-width="1" opacity="1.0" fill="#40c057"/><ellipse cx="-531.14" cy="386.11" rx="21.36" ry="21.36" stroke="#000000" stroke-width="1" opacity="0.9" fill="#04aaf7"/><polyline points="-525.42,380.98 -527.25,380.56 -532.99,374.71 -536.78,376.63 -538.03,383.35 -536.69,387.72 -542.84,389.86 -542.62,394.62 -537.80,394.33 -534.12,390.46 -529.04,398.85 -525.84,399.15 -529.20,385.78 -524.03,385.33 -522.26,386.85 -516.18,386.85 -514.62,381.61 -521.20,382.09 -519.93,375.22 -522.95,375.63 -525.66,380.06 -525.42,380.98" fill="#40c057" stroke="#087f5b" stroke-width="1" opacity="1.0" stroke-linecap="round" stroke-linejoin="round"/><polyline points="-551.44,385.72 -509.34,385.72" fill="#99bcff" stroke="#000000" stroke-width="1" opacity="0.9" stroke-linecap="round" stroke-linejoin="round"/><polyline points="-546.34,370.28 -545.57,372.56 -542.24,374.47 -537.81,375.63 -530.86,375.73 -522.76,375.00 -518.03,372.32 -517.03,370.02" fill="#99bcff" stroke="#000000" stroke-width="1" opacity="0.9" stroke-linecap="round" stroke-linejoin="round"/><ellipse cx="-530.51" cy="385.78" rx="7.76" ry="22.41" stroke="#000000" stroke-width="1" opacity="0.9" fill="none"/><polyline points="-544.83,402.02 -540.72,397.70 -536.29,396.50 -529.35,396.39 -521.24,397.16 -516.51,399.92 -515.51,402.29" fill="#99bcff" stroke="#000000" stroke-width="1" opacity="0.9" stroke-linecap="round" stroke-linejoin="round"/></svg>