<svg xmlns="http://www.w3.org/2000/svg" viewBox="512.64 761.31 132.60 137.45" width="133" height="137"><polyline points="540.79,775.24 541.05,850.44 540.80,859.00 544.76,862.70 558.55,865.83 581.85,866.81 604.11,865.25 615.94,861.53 617.61,858.39 617.84,851.50 617.66,781.55 617.24,774.94 612.29,771.25 601.87,769.11 578.12,767.31 559.07,768.38 544.09,772.02 540.75,775.20 540.79,775.24" fill="none" stroke="#000000" stroke-width="1" opacity="1.0" stroke-linecap="round" stroke-linejoin="round"/><polyline points="541.32,832.37 543.35,835.78 552.12,838.64 563.78,840.38 582.06,840.54 603.39,839.43 615.85,835.42 618.49,831.97" fill="none" stroke="#000000" stroke-width="1" opacity="1.0" stroke-linecap="round" stroke-linejoin="round"/><polyline points="540.28,803.40 542.32,806.82 551.09,809.68 562.75,811.41 581.03,811.57 602.36,810.47 614.82,806.45 617.46,803.01" fill="none" stroke="#000000" stroke-width="1" opacity="1.0" stroke-linecap="round" stroke-linejoin="round"/><ellipse cx="577.53" cy="775.85" rx="38.30" ry="7.75" stroke="#000000" stroke-width="1" opacity="1.0" fill="#fff"/><ellipse cx="581.33" cy="798.68" rx="5.61" ry="6.09" stroke="#000000" stroke-width="1" opacity="1.0" fill="#868e96"/><ellipse cx="581.68" cy="824.89" rx="5.61" ry="6.09" stroke="#000000" stroke-width="1" opacity="1.0" fill="#868e96"/><ellipse cx="582.33" cy="853.66" rx="5.61" ry="6.09" stroke="#000000" stroke-width="1" opacity="1.0" fill="#868e96" transform="rotate(357.50 582.33 853.66)"/><text x="518.64" y="886.64" font-size="17.4778970902999" fill="#000000" opacity="1.0" font-family="sans-serif">Relational DB</text></svg>