<svg version="1.1" xmlns="http://www.w3.org/2000/svg" viewBox="0 0 92.2335719740571 131.29393378645352" width="92.2335719740571" height="131.29393378645352">
  <!-- svg-source:excalidraw -->
  
  <defs>
    
    
  </defs>
  <g stroke-linecap="round"><g transform="translate(6.500979946614393 84.03020580807504) rotate(0 39.61580604041416 -38.98645794193868)" fill-rule="evenodd"><path d="M0.65 -1.24 L79.51 0.35 L78.02 -60.29 L39.54 -78.26 L-2.12 -54.97 L1.13 -0.83" stroke="none" stroke-width="0" fill="#eeeeee" fill-rule="evenodd"></path><path d="M0 0 C27.01 0.92, 54.96 -1.05, 79.73 0.06 M0 0 C29.32 -0.08, 60.29 -0.15, 79.73 0.06 M79.73 0.06 C78.1 -22.31, 79.32 -41.43, 79.05 -58.37 M79.73 0.06 C78.68 -12.81, 79.31 -26.57, 79.05 -58.37 M79.05 -58.37 C65.5 -63.85, 50.61 -72.37, 39.9 -78.03 M79.05 -58.37 C64.73 -65.79, 51.76 -72.26, 39.9 -78.03 M39.9 -78.03 C28.48 -71.35, 20.04 -69.62, -0.5 -56.97 M39.9 -78.03 C27.47 -71.26, 14.82 -64.64, -0.5 -56.97 M-0.5 -56.97 C1.13 -38.47, -0.71 -21.97, 0 0 M-0.5 -56.97 C1.1 -36.13, 0.03 -15.86, 0 0 M0 0 C0 0, 0 0, 0 0 M0 0 C0 0, 0 0, 0 0" stroke="#000000" stroke-width="1" fill="none"></path></g></g><mask></mask><g stroke-linecap="round" transform="translate(22.41957956601607 26.40137245610879) rotate(0 22.964568760245356 2.8432323226970766)"><path d="M-0.84 -0.54 L45.83 0.91 L46.11 5.68 L0.26 5.44" stroke="none" stroke-width="0" fill="#868e96"></path><path d="M0 0 C13.39 0.07, 25.16 0.19, 45.93 0 M0 0 C17.98 0.53, 35.29 0.65, 45.93 0 M45.93 0 C46.19 1.81, 45.82 3.65, 45.93 5.69 M45.93 0 C45.93 2.19, 45.89 4.26, 45.93 5.69 M45.93 5.69 C28.59 5.17, 11.04 5.55, 0 5.69 M45.93 5.69 C29.39 6.01, 13.07 6, 0 5.69 M0 5.69 C-0.16 3.65, -0.17 1.72, 0 0 M0 5.69 C-0.11 3.73, 0.12 1.66, 0 0" stroke="#000000" stroke-width="1" fill="none"></path></g><g stroke-linecap="round" transform="translate(23.81932470949789 37.86178581836464) rotate(0 22.964568760245356 2.8432323226970766)"><path d="M-0.05 0.36 L46.5 0.93 L45.14 6.53 L0.14 4.71" stroke="none" stroke-width="0" fill="#ced4da"></path><path d="M0 0 C17.98 0.03, 35.01 -0.08, 45.93 0 M0 0 C10.54 0.18, 20.25 0.12, 45.93 0 M45.93 0 C45.74 2.08, 45.7 4.55, 45.93 5.69 M45.93 0 C45.95 1.25, 46.04 2.68, 45.93 5.69 M45.93 5.69 C31.06 5.62, 17.34 5.18, 0 5.69 M45.93 5.69 C32.02 5.94, 18.04 5.93, 0 5.69 M0 5.69 C0.2 3.55, -0.25 1.78, 0 0 M0 5.69 C-0.15 4.13, 0.13 2.46, 0 0" stroke="#000000" stroke-width="1" fill="none"></path></g><g stroke-linecap="round" transform="translate(22.76951585189056 50.37200803823191) rotate(0 22.964568760245356 2.8432323226970766)"><path d="M0.36 0.57 L46.86 -0.79 L46.78 5.83 L-0.98 6.35" stroke="none" stroke-width="0" fill="#868e96"></path><path d="M0 0 C14.39 -0.73, 28.67 -0.78, 45.93 0 M0 0 C15.07 -0.53, 29.94 0.37, 45.93 0 M45.93 0 C45.75 1.62, 45.98 3.55, 45.93 5.69 M45.93 0 C45.81 1.54, 45.86 2.84, 45.93 5.69 M45.93 5.69 C32.91 5.58, 19.29 5.61, 0 5.69 M45.93 5.69 C29.74 5.92, 13.48 5.91, 0 5.69 M0 5.69 C-0.26 4.13, -0.13 3.04, 0 0 M0 5.69 C0.02 3.93, -0.08 1.88, 0 0" stroke="#000000" stroke-width="1" fill="none"></path></g><g stroke-linecap="round" transform="translate(22.594547708955474 62.00738954342239) rotate(0 22.964568760245356 2.8432323226970766)"><path d="M0.57 0.93 L45.14 0.85 L46.07 4.71 L0.66 5.64" stroke="none" stroke-width="0" fill="#ced4da"></path><path d="M0 0 C12.17 -0.13, 25 0.25, 45.93 0 M0 0 C12.29 0.01, 25.91 0.07, 45.93 0 M45.93 0 C45.67 1.23, 45.75 2.15, 45.93 5.69 M45.93 0 C46.06 2.01, 45.95 4.19, 45.93 5.69 M45.93 5.69 C36.69 5.44, 27.46 6.26, 0 5.69 M45.93 5.69 C28.33 5.75, 10.55 5.34, 0 5.69 M0 5.69 C-0.29 3.47, -0.09 1.56, 0 0 M0 5.69 C0.16 4.05, 0.02 2.64, 0 0" stroke="#000000" stroke-width="1" fill="none"></path></g><g stroke-linecap="round" transform="translate(11.571554704041432 72.41799404806773) rotate(0 34.33749805103355 2.624522144028049)"><path d="M-0.1 0.91 L68.86 0 L68.93 5.01 L0.67 5.76" stroke="none" stroke-width="0" fill="#868e96"></path><path d="M0 0 C24.57 0.24, 49.51 0.13, 68.67 0 M0 0 C14.41 0.22, 28.22 -0.06, 68.67 0 M68.67 0 C68.59 1.9, 68.86 3.2, 68.67 5.25 M68.67 0 C68.66 1.19, 68.79 2.23, 68.67 5.25 M68.67 5.25 C54.36 5.18, 39.1 5.22, 0 5.25 M68.67 5.25 C51.75 6, 35.43 5.09, 0 5.25 M0 5.25 C-0.16 3.26, 0.14 1.19, 0 0 M0 5.25 C0.14 3.7, -0.09 2.24, 0 0" stroke="#000000" stroke-width="1" fill="none"></path></g><g stroke-linecap="round" transform="translate(65.42034631888998 62.65415795595038) rotate(269.1355202352065 12.5953606647941 2.502658160306453)"><path d="M-0.54 -0.1 L26.1 0.19 L25.19 5.26 L-0.24 5.68" stroke="none" stroke-width="0" fill="#868e96"></path><path d="M0 0 C8.89 0.1, 17.69 0.69, 25.19 0 M0 0 C8.38 0.18, 16.57 -0.12, 25.19 0 M25.19 0 C25.28 1.55, 25.4 3.46, 25.19 5.01 M25.19 0 C25.28 1.16, 25.28 2.47, 25.19 5.01 M25.19 5.01 C15.28 5.81, 6.09 5.63, 0 5.01 M25.19 5.01 C17.86 4.81, 10.07 5.25, 0 5.01 M0 5.01 C-0.02 3.8, 0.07 3.06, 0 0 M0 5.01 C0.02 3.39, -0.07 1.44, 0 0" stroke="#000000" stroke-width="1" fill="none"></path></g><g stroke-linecap="round" transform="translate(2.0116636348683414 62.17798518540792) rotate(269.1355202352065 11.96570303452927 2.5851526092453696)"><path d="M-0.39 -0.34 L23 -0.28 L24.83 5.32 L0.31 5.74" stroke="none" stroke-width="0" fill="#868e96"></path><path d="M0 0 C5.74 -0.16, 12.67 0.98, 23.93 0 M0 0 C9.12 0.26, 17.05 -0.23, 23.93 0 M23.93 0 C23.92 1.38, 23.71 2.33, 23.93 5.17 M23.93 0 C24.05 1.62, 24.06 3.16, 23.93 5.17 M23.93 5.17 C18.79 4.22, 14.18 4.56, 0 5.17 M23.93 5.17 C15.03 5.07, 7.1 5.06, 0 5.17 M0 5.17 C0.06 4.28, 0.24 2.97, 0 0 M0 5.17 C0.03 3.27, 0 1.26, 0 0" stroke="#000000" stroke-width="1" fill="none"></path></g><g transform="translate(17.15885713373939 85.20281318983223) rotate(0 28.58348412907253 20.045560298310647)"><text x="28.583484129072534" y="0" font-family="Virgil, Segoe UI Emoji" font-size="14.848563183933786px" fill="#000000" text-anchor="middle" style="white-space: pre;" direction="ltr" dominant-baseline="text-before-edge">Stack</text><text x="28.583484129072534" y="20.045560298310633" font-family="Virgil, Segoe UI Emoji" font-size="14.848563183933786px" fill="#000000" text-anchor="middle" style="white-space: pre;" direction="ltr" dominant-baseline="text-before-edge">Storage</text></g></svg>