<svg version="1.1" xmlns="http://www.w3.org/2000/svg" viewBox="0 0 79 106.78426260695346" width="79" height="106.78426260695346">
  <!-- svg-source:excalidraw -->
  
  <defs>
    
    
  </defs>
  <g stroke-linecap="round" transform="translate(7.269423817521783 6) rotate(0 32.230576182478444 32.19971236713002)"><path d="M0 0 C0 0, 0 0, 0 0 M0 0 C0 0, 0 0, 0 0 M0.13 12.04 C4.23 7.33, 8.33 2.61, 10.63 -0.03 M0.13 12.04 C3.74 7.89, 7.34 3.75, 10.63 -0.03 M0.27 24.08 C6.78 16.59, 13.29 9.1, 21.26 -0.07 M0.27 24.08 C6.82 16.54, 13.37 9, 21.26 -0.07 M-0.26 36.88 C10.08 24.99, 20.41 13.1, 31.89 -0.1 M-0.26 36.88 C9.66 25.47, 19.57 14.07, 31.89 -0.1 M-0.12 48.92 C14.25 32.39, 28.62 15.85, 42.52 -0.14 M-0.12 48.92 C16.03 30.33, 32.19 11.75, 42.52 -0.14 M0.01 60.96 C13.5 45.43, 27 29.91, 53.15 -0.17 M0.01 60.96 C17.5 40.83, 35 20.71, 53.15 -0.17 M7.36 64.7 C28.06 40.89, 48.76 17.08, 63.78 -0.21 M7.36 64.7 C24.94 44.48, 42.52 24.26, 63.78 -0.21 M17.99 64.66 C35.69 44.3, 53.4 23.93, 64.57 11.08 M17.99 64.66 C27.86 53.3, 37.74 41.94, 64.57 11.08 M28.62 64.63 C36.56 55.49, 44.5 46.36, 64.7 23.12 M28.62 64.63 C37.21 54.74, 45.81 44.86, 64.7 23.12 M39.25 64.59 C45.6 57.28, 51.96 49.97, 64.84 35.16 M39.25 64.59 C47.1 55.57, 54.94 46.54, 64.84 35.16 M49.88 64.56 C54.01 59.81, 58.13 55.07, 64.97 47.2 M49.88 64.56 C53.36 60.56, 56.84 56.56, 64.97 47.2 M60.51 64.53 C61.94 62.88, 63.37 61.23, 64.45 60 M60.51 64.53 C61.72 63.14, 62.93 61.75, 64.45 60 M-0.19 64.24 C-0.19 64.24, -0.19 64.24, -0.19 64.24 M-0.19 64.24 C-0.19 64.24, -0.19 64.24, -0.19 64.24 M11.85 64.1 C7.18 60.04, 2.51 55.98, -0.22 53.61 M11.85 64.1 C8.83 61.48, 5.82 58.85, -0.22 53.61 M24.65 64.63 C17.97 58.82, 11.29 53.01, -0.26 42.98 M24.65 64.63 C19.21 59.9, 13.77 55.17, -0.26 42.98 M36.69 64.49 C24.28 53.7, 11.87 42.91, -0.29 32.35 M36.69 64.49 C24.96 54.3, 13.23 44.1, -0.29 32.35 M48.73 64.36 C31.85 49.68, 14.97 35.01, -0.33 21.72 M48.73 64.36 C35.19 52.59, 21.65 40.82, -0.33 21.72 M60.77 64.23 C37.35 43.87, 13.93 23.51, -0.36 11.09 M60.77 64.23 C46.51 51.83, 32.24 39.43, -0.36 11.09 M65.26 57.53 C46.49 41.21, 27.71 24.89, 0.36 1.11 M65.26 57.53 C44.23 39.25, 23.2 20.96, 0.36 1.11 M65.23 46.9 C51.15 34.66, 37.06 22.42, 10.89 -0.33 M65.23 46.9 C50.71 34.28, 36.2 21.66, 10.89 -0.33 M65.2 36.27 C54.14 26.66, 43.09 17.05, 22.93 -0.47 M65.2 36.27 C50.28 23.3, 35.36 10.33, 22.93 -0.47 M65.16 25.64 C57.62 19.08, 50.07 12.52, 34.97 -0.6 M65.16 25.64 C58.19 19.58, 51.21 13.52, 34.97 -0.6 M65.13 15.01 C58.61 9.35, 52.1 3.69, 47.77 -0.08 M65.13 15.01 C59.97 10.53, 54.81 6.05, 47.77 -0.08 M65.09 4.38 C62.99 2.56, 60.89 0.73, 59.81 -0.21 M65.09 4.38 C63.61 3.09, 62.12 1.8, 59.81 -0.21" stroke="#ced4da" stroke-width="1" fill="none"></path><path d="M0 0 C24.96 0, 49.92 0, 64.46 0 M0 0 C24.72 0, 49.44 0, 64.46 0 M64.46 0 C64.46 22.19, 64.46 44.38, 64.46 64.4 M64.46 0 C64.46 17.71, 64.46 35.43, 64.46 64.4 M64.46 64.4 C40.93 64.4, 17.4 64.4, 0 64.4 M64.46 64.4 C39.77 64.4, 15.07 64.4, 0 64.4 M0 64.4 C0 49.93, 0 35.46, 0 0 M0 64.4 C0 40.45, 0 16.5, 0 0" stroke="#000000" stroke-width="2" fill="none"></path></g><g stroke-linecap="round"><g transform="translate(22.411887895844075 41.353946660680094) rotate(0 17.44241513260249 2.55013415987014)" fill-rule="evenodd"><path d="M0 0 C4.42 -0.09, 21.02 -0.33, 26.5 -0.56 C31.98 -0.78, 32.03 -0.37, 32.87 -1.35 C33.71 -2.34, 31.42 -4.81, 31.55 -6.47 C31.68 -8.14, 32.76 -11.29, 33.65 -11.34 C34.54 -11.39, 36.42 -8.16, 36.89 -6.8 C37.35 -5.43, 35.65 -3.16, 36.45 -3.14 C37.25 -3.13, 40.12 -6.37, 41.67 -6.72 C43.22 -7.06, 45.48 -6.02, 45.75 -5.22 C46.03 -4.43, 44.62 -2.91, 43.33 -1.94 C42.03 -0.97, 41.2 -2.23, 37.99 0.58 C34.78 3.4, 30.36 12.28, 24.06 14.93 C17.75 17.57, 5.99 18.74, 0.17 16.44 C-5.65 14.14, -10.24 3.95, -10.87 1.11 C-11.49 -1.72, -5.35 -0.41, -3.58 -0.6 C-1.82 -0.79, -0.84 -0.12, -0.29 -0.02" stroke="none" stroke-width="0" fill="#0091e2" fill-rule="evenodd"></path><path d="M0 0 C4.42 -0.09, 21.02 -0.33, 26.5 -0.56 C31.98 -0.78, 32.03 -0.37, 32.87 -1.35 C33.71 -2.34, 31.42 -4.81, 31.55 -6.47 C31.68 -8.14, 32.76 -11.29, 33.65 -11.34 C34.54 -11.39, 36.42 -8.16, 36.89 -6.8 C37.35 -5.43, 35.65 -3.16, 36.45 -3.14 C37.25 -3.13, 40.12 -6.37, 41.67 -6.72 C43.22 -7.06, 45.48 -6.02, 45.75 -5.22 C46.03 -4.43, 44.62 -2.91, 43.33 -1.94 C42.03 -0.97, 41.2 -2.23, 37.99 0.58 C34.78 3.4, 30.36 12.28, 24.06 14.93 C17.75 17.57, 5.99 18.74, 0.17 16.44 C-5.65 14.14, -10.24 3.95, -10.87 1.11 C-11.49 -1.72, -5.35 -0.41, -3.58 -0.6 C-1.82 -0.79, -0.84 -0.12, -0.29 -0.02 M0 0 C4.42 -0.09, 21.02 -0.33, 26.5 -0.56 C31.98 -0.78, 32.03 -0.37, 32.87 -1.35 C33.71 -2.34, 31.42 -4.81, 31.55 -6.47 C31.68 -8.14, 32.76 -11.29, 33.65 -11.34 C34.54 -11.39, 36.42 -8.16, 36.89 -6.8 C37.35 -5.43, 35.65 -3.16, 36.45 -3.14 C37.25 -3.13, 40.12 -6.37, 41.67 -6.72 C43.22 -7.06, 45.48 -6.02, 45.75 -5.22 C46.03 -4.43, 44.62 -2.91, 43.33 -1.94 C42.03 -0.97, 41.2 -2.23, 37.99 0.58 C34.78 3.4, 30.36 12.28, 24.06 14.93 C17.75 17.57, 5.99 18.74, 0.17 16.44 C-5.65 14.14, -10.24 3.95, -10.87 1.11 C-11.49 -1.72, -5.35 -0.41, -3.58 -0.6 C-1.82 -0.79, -0.84 -0.12, -0.29 -0.02" stroke="#0091e2" stroke-width="2" fill="none"></path></g></g><mask></mask><g stroke-linecap="round" transform="translate(16.126929208814545 33.541708687914934) rotate(0 2.783176247164988 2.783176247164988)"><path d="M0 0 L5.57 0 L5.57 5.57 L0 5.57" stroke="none" stroke-width="0" fill="#0091e2"></path><path d="M0 0 C1.39 0, 2.78 0, 5.57 0 M0 0 C1.83 0, 3.65 0, 5.57 0 M5.57 0 C5.57 1.75, 5.57 3.51, 5.57 5.57 M5.57 0 C5.57 1.75, 5.57 3.49, 5.57 5.57 M5.57 5.57 C3.79 5.57, 2.02 5.57, 0 5.57 M5.57 5.57 C3.77 5.57, 1.97 5.57, 0 5.57 M0 5.57 C0 3.34, 0 1.12, 0 0 M0 5.57 C0 4.41, 0 3.26, 0 0" stroke="#0091e2" stroke-width="2" fill="none"></path></g><g stroke-linecap="round" transform="translate(23.084867880282218 33.28658838344586) rotate(0 2.783176247164988 2.783176247164988)"><path d="M0 0 L5.57 0 L5.57 5.57 L0 5.57" stroke="none" stroke-width="0" fill="#0091e2"></path><path d="M0 0 C2.22 0, 4.44 0, 5.57 0 M0 0 C1.66 0, 3.31 0, 5.57 0 M5.57 0 C5.57 1.18, 5.57 2.35, 5.57 5.57 M5.57 0 C5.57 1.31, 5.57 2.62, 5.57 5.57 M5.57 5.57 C4.4 5.57, 3.23 5.57, 0 5.57 M5.57 5.57 C3.45 5.57, 1.34 5.57, 0 5.57 M0 5.57 C0 4.17, 0 2.77, 0 0 M0 5.57 C0 4.15, 0 2.73, 0 0" stroke="#0091e2" stroke-width="2" fill="none"></path></g><g stroke-linecap="round" transform="translate(30.367504413279676 33.402541895138256) rotate(0 2.783176247164988 2.783176247164988)"><path d="M0 0 L5.57 0 L5.57 5.57 L0 5.57" stroke="none" stroke-width="0" fill="#0091e2"></path><path d="M0 0 C1.15 0, 2.3 0, 5.57 0 M0 0 C1.85 0, 3.71 0, 5.57 0 M5.57 0 C5.57 1.41, 5.57 2.82, 5.57 5.57 M5.57 0 C5.57 1.13, 5.57 2.26, 5.57 5.57 M5.57 5.57 C3.91 5.57, 2.25 5.57, 0 5.57 M5.57 5.57 C3.6 5.57, 1.64 5.57, 0 5.57 M0 5.57 C0 3.87, 0 2.18, 0 0 M0 5.57 C0 3.37, 0 1.18, 0 0" stroke="#0091e2" stroke-width="2" fill="none"></path></g><g stroke-linecap="round" transform="translate(37.626947129631844 33.05465800273669) rotate(0 2.783176247164988 2.783176247164988)"><path d="M0 0 L5.57 0 L5.57 5.57 L0 5.57" stroke="none" stroke-width="0" fill="#0091e2"></path><path d="M0 0 C1.77 0, 3.54 0, 5.57 0 M0 0 C1.2 0, 2.41 0, 5.57 0 M5.57 0 C5.57 1.44, 5.57 2.89, 5.57 5.57 M5.57 0 C5.57 1.76, 5.57 3.53, 5.57 5.57 M5.57 5.57 C3.96 5.57, 2.35 5.57, 0 5.57 M5.57 5.57 C3.62 5.57, 1.68 5.57, 0 5.57 M0 5.57 C0 4.09, 0 2.62, 0 0 M0 5.57 C0 4.32, 0 3.07, 0 0" stroke="#0091e2" stroke-width="2" fill="none"></path></g><g stroke-linecap="round" transform="translate(44.5153004582703 33.147425483552524) rotate(0 2.783176247164988 2.783176247164988)"><path d="M0 0 L5.57 0 L5.57 5.57 L0 5.57" stroke="none" stroke-width="0" fill="#0091e2"></path><path d="M0 0 C1.32 0, 2.64 0, 5.57 0 M0 0 C1.26 0, 2.53 0, 5.57 0 M5.57 0 C5.57 1.66, 5.57 3.31, 5.57 5.57 M5.57 0 C5.57 2.16, 5.57 4.31, 5.57 5.57 M5.57 5.57 C3.75 5.57, 1.93 5.57, 0 5.57 M5.57 5.57 C3.36 5.57, 1.15 5.57, 0 5.57 M0 5.57 C0 4.1, 0 2.63, 0 0 M0 5.57 C0 4.01, 0 2.46, 0 0" stroke="#0091e2" stroke-width="2" fill="none"></path></g><g stroke-linecap="round" transform="translate(22.88771849232944 26.53739795469596) rotate(0 2.783176247164988 2.783176247164988)"><path d="M0 0 L5.57 0 L5.57 5.57 L0 5.57" stroke="none" stroke-width="0" fill="#0091e2"></path><path d="M0 0 C1.32 0, 2.65 0, 5.57 0 M0 0 C1.28 0, 2.55 0, 5.57 0 M5.57 0 C5.57 2.18, 5.57 4.36, 5.57 5.57 M5.57 0 C5.57 1.23, 5.57 2.47, 5.57 5.57 M5.57 5.57 C3.91 5.57, 2.26 5.57, 0 5.57 M5.57 5.57 C3.71 5.57, 1.84 5.57, 0 5.57 M0 5.57 C0 3.54, 0 1.52, 0 0 M0 5.57 C0 3.81, 0 2.05, 0 0" stroke="#0091e2" stroke-width="2" fill="none"></path></g><g stroke-linecap="round" transform="translate(30.19355273486326 26.630169328397642) rotate(0 2.783176247164988 2.783176247164988)"><path d="M0 0 L5.57 0 L5.57 5.57 L0 5.57" stroke="none" stroke-width="0" fill="#0091e2"></path><path d="M0 0 C1.55 0, 3.1 0, 5.57 0 M0 0 C2 0, 4 0, 5.57 0 M5.57 0 C5.57 1.33, 5.57 2.66, 5.57 5.57 M5.57 0 C5.57 1.74, 5.57 3.47, 5.57 5.57 M5.57 5.57 C3.63 5.57, 1.68 5.57, 0 5.57 M5.57 5.57 C3.91 5.57, 2.25 5.57, 0 5.57 M0 5.57 C0 4.04, 0 2.51, 0 0 M0 5.57 C0 4.44, 0 3.32, 0 0" stroke="#0091e2" stroke-width="2" fill="none"></path></g><g stroke-linecap="round" transform="translate(37.592158351101716 26.63016154262982) rotate(0 2.783176247164988 2.783176247164988)"><path d="M0 0 L5.57 0 L5.57 5.57 L0 5.57" stroke="none" stroke-width="0" fill="#0091e2"></path><path d="M0 0 C1.75 0, 3.51 0, 5.57 0 M0 0 C1.75 0, 3.49 0, 5.57 0 M5.57 0 C5.57 1.78, 5.57 3.55, 5.57 5.57 M5.57 0 C5.57 1.8, 5.57 3.6, 5.57 5.57 M5.57 5.57 C3.34 5.57, 1.12 5.57, 0 5.57 M5.57 5.57 C4.41 5.57, 3.26 5.57, 0 5.57 M0 5.57 C0 4.09, 0 2.61, 0 0 M0 5.57 C0 3.34, 0 1.12, 0 0" stroke="#0091e2" stroke-width="2" fill="none"></path></g><g stroke-linecap="round" transform="translate(37.34862132985381 19.53306775704573) rotate(0 2.783176247164988 2.783176247164988)"><path d="M0 0 L5.57 0 L5.57 5.57 L0 5.57" stroke="none" stroke-width="0" fill="#0091e2"></path><path d="M0 0 C1.18 0, 2.35 0, 5.57 0 M0 0 C1.31 0, 2.62 0, 5.57 0 M5.57 0 C5.57 1.17, 5.57 2.34, 5.57 5.57 M5.57 0 C5.57 2.11, 5.57 4.23, 5.57 5.57 M5.57 5.57 C4.17 5.57, 2.77 5.57, 0 5.57 M5.57 5.57 C4.15 5.57, 2.73 5.57, 0 5.57 M0 5.57 C0 4.03, 0 2.49, 0 0 M0 5.57 C0 4.13, 0 2.7, 0 0" stroke="#0091e2" stroke-width="2" fill="none"></path></g><g transform="translate(6 75.78426260695346) rotate(0 33.5 12.5)"><text x="0" y="0" font-family="Virgil, Segoe UI Emoji" font-size="20px" fill="#000000" text-anchor="start" style="white-space: pre;" direction="ltr" dominant-baseline="text-before-edge">Docker</text></g></svg>