<svg version="1.1" xmlns="http://www.w3.org/2000/svg" viewBox="0 0 112 112" width="112" height="112">
  <!-- svg-source:excalidraw -->
  
  <defs>
    
    
  </defs>
  <g stroke-linecap="round" transform="translate(6 6) rotate(0 50 50)"><path d="M81.78 10.59 C87.97 15.57, 94.81 26.57, 97.42 35.03 C100.03 43.48, 99.28 53.54, 97.44 61.33 C95.61 69.12, 91.77 75.66, 86.39 81.75 C81.02 87.84, 73.03 95.28, 65.18 97.87 C57.32 100.46, 47.1 98.65, 39.26 97.28 C31.42 95.9, 24.26 94.88, 18.12 89.61 C11.98 84.35, 5.56 74.01, 2.42 65.69 C-0.72 57.37, -2.03 47.54, -0.71 39.7 C0.61 31.87, 4.81 24.69, 10.34 18.67 C15.87 12.65, 24.25 6.24, 32.48 3.59 C40.72 0.94, 51.13 0.7, 59.76 2.77 C68.4 4.84, 79.51 13.44, 84.29 16.01 C89.08 18.57, 88.65 18.07, 88.49 18.17 M47.88 1.79 C56.13 0.87, 69.19 -0.05, 76.37 4.02 C83.54 8.08, 86.81 18.42, 90.9 26.18 C95 33.95, 100.09 42.9, 100.92 50.63 C101.75 58.36, 100.32 65.78, 95.89 72.55 C91.45 79.33, 81.32 86.45, 74.33 91.3 C67.34 96.16, 61.86 100.76, 53.94 101.67 C46.02 102.59, 34.1 101.04, 26.79 96.78 C19.48 92.51, 14.4 83.46, 10.06 76.08 C5.71 68.7, 0.95 60.4, 0.72 52.48 C0.49 44.56, 4.67 35.92, 8.68 28.54 C12.69 21.16, 17.94 12.54, 24.76 8.2 C31.57 3.86, 45.34 3.73, 49.58 2.5 C53.81 1.28, 50.4 -0.01, 50.17 0.85" stroke="none" stroke-width="0" fill="#4c6ef5"></path><path d="M11.02 15.14 C15.61 9.28, 27.27 5.96, 35.38 3.63 C43.49 1.29, 51.53 -0.57, 59.69 1.13 C67.86 2.84, 78.09 8.19, 84.39 13.86 C90.68 19.53, 95.34 27.24, 97.48 35.15 C99.62 43.07, 99.12 53.15, 97.24 61.35 C95.37 69.55, 91.71 78.49, 86.22 84.34 C80.73 90.19, 71.86 94, 64.3 96.45 C56.74 98.9, 48.54 100.69, 40.87 99.04 C33.2 97.4, 24.59 92.14, 18.27 86.57 C11.95 81, 5.86 73.21, 2.93 65.65 C0 58.08, -2.29 50.34, 0.71 41.2 C3.7 32.06, 16.17 17, 20.9 10.79 C25.63 4.58, 28.51 3.8, 29.1 3.96 M91.59 21.1 C97.05 27.21, 101.13 38.61, 101.31 47.42 C101.5 56.24, 96.32 66.3, 92.71 73.98 C89.09 81.66, 86.22 89.16, 79.62 93.5 C73.02 97.85, 61.93 99.31, 53.12 100.06 C44.31 100.8, 34.05 101.32, 26.75 97.95 C19.45 94.58, 13.52 87.52, 9.32 79.84 C5.11 72.15, 2.23 60.51, 1.52 51.86 C0.82 43.21, 1.9 34.67, 5.09 27.95 C8.27 21.23, 13.72 15.99, 20.62 11.54 C27.53 7.09, 37.85 2.68, 46.51 1.27 C55.17 -0.15, 64.94 0.1, 72.6 3.06 C80.26 6.02, 89.83 15.3, 92.48 19.03 C95.13 22.75, 89.18 24.63, 88.51 25.42" stroke="#000000" stroke-width="1" fill="none"></path></g><g stroke-linecap="round" transform="translate(36 44.4063024129523) rotate(0 20.000000000000455 20.00000000000034)"><path d="M10 0 C14.1 -3.04, 23.81 -1.75, 30 0 C38.16 0.6, 43.37 1.85, 40 10 C43.47 15.19, 40.21 25.96, 40 30 C37.23 36.16, 38.78 43.42, 30 40 C26.38 43.11, 22.59 39.17, 10 40 C0.78 38.65, 2.69 38.71, 0 30 C-0.77 24.62, 0.62 20.96, 0 10 C2.46 4.79, 4.09 1.53, 10 0" stroke="none" stroke-width="0" fill="#ffffff"></path><path d="M10 0 C15.84 1.89, 23.26 -1.84, 30 0 M10 0 C14.28 -0.12, 19.82 0.34, 30 0 M30 0 C36.55 0.47, 38.37 4.15, 40 10 M30 0 C35.7 0.9, 38.83 2.02, 40 10 M40 10 C39.52 17.93, 40.35 24.39, 40 30 M40 10 C39.2 17.23, 40.29 24.64, 40 30 M40 30 C41.95 35.92, 37.5 40.11, 30 40 M40 30 C39.31 37.77, 37.39 38.28, 30 40 M30 40 C22.33 40.26, 14.3 42.13, 10 40 M30 40 C22.95 40.11, 16.95 39.63, 10 40 M10 40 C5.31 40.02, 0.76 37.15, 0 30 M10 40 C1.81 40.8, -2.28 35.06, 0 30 M0 30 C1.33 20.16, 1.35 16.01, 0 10 M0 30 C0.18 25.35, -0.74 20.23, 0 10 M0 10 C-1.41 2.36, 2.13 0.63, 10 0 M0 10 C-1.51 1.23, 4.3 2.07, 10 0" stroke="#ffffff" stroke-width="1" fill="none"></path></g><g stroke-linecap="round"><g transform="translate(44.34139577532005 43.80278645174303) rotate(0 12 -8.000000000000114)"><path d="M-1 1.09 C-1.06 -0.46, -1.64 -7.43, -0.91 -9.75 C-0.17 -12.07, 1.8 -11.69, 3.41 -12.82 C5.02 -13.94, 6.63 -16.06, 8.73 -16.5 C10.83 -16.95, 13.99 -16.13, 16.01 -15.5 C18.02 -14.88, 19.43 -13.83, 20.81 -12.75 C22.19 -11.66, 23.67 -11.02, 24.28 -8.98 C24.89 -6.94, 24.46 -1.9, 24.49 -0.51 M0.67 0.61 C1.03 -0.79, 0.38 -6.22, 1.25 -8.82 C2.12 -11.41, 4.54 -13.8, 5.89 -14.94 C7.25 -16.08, 7.93 -15.68, 9.37 -15.66 C10.81 -15.65, 12.96 -15.16, 14.54 -14.85 C16.12 -14.55, 17.1 -15.1, 18.85 -13.82 C20.61 -12.54, 24.26 -9.3, 25.07 -7.18 C25.88 -5.06, 24.06 -2.53, 23.72 -1.11" stroke="#fff" stroke-width="4" fill="none"></path></g></g><mask></mask><g stroke-linecap="round" transform="translate(52.41765669875349 55.1357497223662) rotate(0 3.517867379314339 3.5178673793144526)"><path d="M7.04 3.52 C7.04 3.72, 7.02 3.93, 6.98 4.13 C6.95 4.33, 6.89 4.53, 6.82 4.72 C6.75 4.91, 6.67 5.1, 6.56 5.28 C6.46 5.45, 6.34 5.62, 6.21 5.78 C6.08 5.94, 5.94 6.08, 5.78 6.21 C5.62 6.34, 5.45 6.46, 5.28 6.56 C5.1 6.67, 4.91 6.75, 4.72 6.82 C4.53 6.89, 4.33 6.95, 4.13 6.98 C3.93 7.02, 3.72 7.04, 3.52 7.04 C3.31 7.04, 3.11 7.02, 2.91 6.98 C2.71 6.95, 2.51 6.89, 2.31 6.82 C2.12 6.75, 1.94 6.67, 1.76 6.56 C1.58 6.46, 1.41 6.34, 1.26 6.21 C1.1 6.08, 0.95 5.94, 0.82 5.78 C0.69 5.62, 0.57 5.45, 0.47 5.28 C0.37 5.1, 0.28 4.91, 0.21 4.72 C0.14 4.53, 0.09 4.33, 0.05 4.13 C0.02 3.93, 0 3.72, 0 3.52 C0 3.31, 0.02 3.11, 0.05 2.91 C0.09 2.71, 0.14 2.51, 0.21 2.31 C0.28 2.12, 0.37 1.94, 0.47 1.76 C0.57 1.58, 0.69 1.41, 0.82 1.26 C0.95 1.1, 1.1 0.95, 1.26 0.82 C1.41 0.69, 1.58 0.57, 1.76 0.47 C1.94 0.37, 2.12 0.28, 2.31 0.21 C2.51 0.14, 2.71 0.09, 2.91 0.05 C3.11 0.02, 3.31 0, 3.52 0 C3.72 0, 3.93 0.02, 4.13 0.05 C4.33 0.09, 4.53 0.14, 4.72 0.21 C4.91 0.28, 5.1 0.37, 5.28 0.47 C5.45 0.57, 5.62 0.69, 5.78 0.82 C5.94 0.95, 6.08 1.1, 6.21 1.26 C6.34 1.41, 6.46 1.58, 6.56 1.76 C6.67 1.94, 6.75 2.12, 6.82 2.31 C6.89 2.51, 6.95 2.71, 6.98 2.91 C7.02 3.11, 7.03 3.42, 7.04 3.52 C7.04 3.62, 7.04 3.42, 7.04 3.52" stroke="none" stroke-width="0" fill="#868e96"></path><path d="M7.04 3.52 C7.04 3.72, 7.02 3.93, 6.98 4.13 C6.95 4.33, 6.89 4.53, 6.82 4.72 C6.75 4.91, 6.67 5.1, 6.56 5.28 C6.46 5.45, 6.34 5.62, 6.21 5.78 C6.08 5.94, 5.94 6.08, 5.78 6.21 C5.62 6.34, 5.45 6.46, 5.28 6.56 C5.1 6.67, 4.91 6.75, 4.72 6.82 C4.53 6.89, 4.33 6.95, 4.13 6.98 C3.93 7.02, 3.72 7.04, 3.52 7.04 C3.31 7.04, 3.11 7.02, 2.91 6.98 C2.71 6.95, 2.51 6.89, 2.31 6.82 C2.12 6.75, 1.94 6.67, 1.76 6.56 C1.58 6.46, 1.41 6.34, 1.26 6.21 C1.1 6.08, 0.95 5.94, 0.82 5.78 C0.69 5.62, 0.57 5.45, 0.47 5.28 C0.37 5.1, 0.28 4.91, 0.21 4.72 C0.14 4.53, 0.09 4.33, 0.05 4.13 C0.02 3.93, 0 3.72, 0 3.52 C0 3.31, 0.02 3.11, 0.05 2.91 C0.09 2.71, 0.14 2.51, 0.21 2.31 C0.28 2.12, 0.37 1.94, 0.47 1.76 C0.57 1.58, 0.69 1.41, 0.82 1.26 C0.95 1.1, 1.1 0.95, 1.26 0.82 C1.41 0.69, 1.58 0.57, 1.76 0.47 C1.94 0.37, 2.12 0.28, 2.31 0.21 C2.51 0.14, 2.71 0.09, 2.91 0.05 C3.11 0.02, 3.31 0, 3.52 0 C3.72 0, 3.93 0.02, 4.13 0.05 C4.33 0.09, 4.53 0.14, 4.72 0.21 C4.91 0.28, 5.1 0.37, 5.28 0.47 C5.45 0.57, 5.62 0.69, 5.78 0.82 C5.94 0.95, 6.08 1.1, 6.21 1.26 C6.34 1.41, 6.46 1.58, 6.56 1.76 C6.67 1.94, 6.75 2.12, 6.82 2.31 C6.89 2.51, 6.95 2.71, 6.98 2.91 C7.02 3.11, 7.03 3.42, 7.04 3.52 C7.04 3.62, 7.04 3.42, 7.04 3.52" stroke="#868e96" stroke-width="2" fill="none"></path></g><g stroke-linecap="round"><g transform="translate(54.81546440452621 62.68738270031099) rotate(0 1.6930275541867559 4.792864665492743)" fill-rule="evenodd"><path d="M0 0 C-0.28 1.6, -2.54 7.99, -1.69 9.59 C-0.85 11.18, 4.23 11.18, 5.08 9.59 C5.93 7.99, 4.23 1.6, 3.39 0 C2.54 -1.6, 0.56 0, 0 0" stroke="none" stroke-width="0" fill="#868e96" fill-rule="evenodd"></path><path d="M0 0 C-0.28 1.6, -2.54 7.99, -1.69 9.59 C-0.85 11.18, 4.23 11.18, 5.08 9.59 C5.93 7.99, 4.23 1.6, 3.39 0 C2.54 -1.6, 0.56 0, 0 0 M0 0 C-0.28 1.6, -2.54 7.99, -1.69 9.59 C-0.85 11.18, 4.23 11.18, 5.08 9.59 C5.93 7.99, 4.23 1.6, 3.39 0 C2.54 -1.6, 0.56 0, 0 0" stroke="#868e96" stroke-width="2" fill="none"></path></g></g><mask></mask></svg>