<svg xmlns="http://www.w3.org/2000/svg" viewBox="1993.62 1470.31 85.03 106.78" width="85" height="107"><rect x="2000.89" y="1476.31" width="64.46" height="64.40" rx="0" stroke="#000000" stroke-width="2" opacity="1.0" fill="none"/><polyline points="2016.04,1511.66 2042.54,1511.11 2048.90,1510.31 2047.58,1505.19 2049.68,1500.32 2052.92,1504.86 2052.49,1508.52 2057.71,1504.94 2061.79,1506.44 2059.36,1509.72 2054.03,1512.25 2040.09,1526.59 2016.21,1528.10 2005.17,1512.78 2012.45,1511.06 2015.75,1511.64" fill="#0091e2" stroke="#0091e2" stroke-width="2" opacity="1.0" stroke-linecap="round" stroke-linejoin="round"/><rect x="2009.75" y="1503.85" width="5.57" height="5.57" rx="0" stroke="#0091e2" stroke-width="2" opacity="1.0" fill="#0091e2"/><rect x="2016.71" y="1503.59" width="5.57" height="5.57" rx="0" stroke="#0091e2" stroke-width="2" opacity="1.0" fill="#0091e2"/><rect x="2023.99" y="1503.71" width="5.57" height="5.57" rx="0" stroke="#0091e2" stroke-width="2" opacity="1.0" fill="#0091e2"/><rect x="2031.25" y="1503.36" width="5.57" height="5.57" rx="0" stroke="#0091e2" stroke-width="2" opacity="1.0" fill="#0091e2"/><rect x="2038.14" y="1503.46" width="5.57" height="5.57" rx="0" stroke="#0091e2" stroke-width="2" opacity="1.0" fill="#0091e2"/><rect x="2016.51" y="1496.85" width="5.57" height="5.57" rx="0" stroke="#0091e2" stroke-width="2" opacity="1.0" fill="#0091e2"/><rect x="2023.82" y="1496.94" width="5.57" height="5.57" rx="0" stroke="#0091e2" stroke-width="2" opacity="1.0" fill="#0091e2"/><rect x="2031.22" y="1496.94" width="5.57" height="5.57" rx="0" stroke="#0091e2" stroke-width="2" opacity="1.0" fill="#0091e2"/><rect x="2030.97" y="1489.84" width="5.57" height="5.57" rx="0" stroke="#0091e2" stroke-width="2" opacity="1.0" fill="#0091e2"/><text x="1999.62" y="1566.09" font-size="20" fill="#000000" opacity="1.0" font-family="sans-serif">Docker</text></svg>