<svg version="1.1" xmlns="http://www.w3.org/2000/svg" viewBox="0 0 281.51410950501486 176.54545632937743" width="281.51410950501486" height="176.54545632937743">
  <!-- svg-source:excalidraw -->
  
  <defs>
    
    
  </defs>
  <g stroke-opacity="0.1" fill-opacity="0.1" stroke-linecap="round" transform="translate(6 6) rotate(0 134.75705475250743 82.27272816468871)"><path d="M0 0 L269.51 0 L269.51 164.55 L0 164.55" stroke="none" stroke-width="0" fill="#0091e2"></path><path d="M0 0 C69.98 0, 139.97 0, 269.51 0 M0 0 C73.47 0, 146.95 0, 269.51 0 M269.51 0 C269.51 49.68, 269.51 99.36, 269.51 164.55 M269.51 0 C269.51 54.45, 269.51 108.91, 269.51 164.55 M269.51 164.55 C205.74 164.55, 141.97 164.55, 0 164.55 M269.51 164.55 C176.21 164.55, 82.9 164.55, 0 164.55 M0 164.55 C0 112.43, 0 60.32, 0 0 M0 164.55 C0 104.41, 0 44.27, 0 0" stroke="#0091e2" stroke-width="2" fill="none"></path></g><g transform="translate(50.94995228375592 14.977255632108154) rotate(0 73.5 12.5)"><text x="0" y="0" font-family="Virgil, Segoe UI Emoji" font-size="20px" fill="#000000" text-anchor="start" style="white-space: pre;" direction="ltr" dominant-baseline="text-before-edge">Private subnet</text></g><g stroke-linecap="round" transform="translate(6.234813239172581 6.215413771099975) rotate(0 19.812170825030307 21.261841861008065)"><path d="M0 0 C0 0, 0 0, 0 0 M0 0 C0 0, 0 0, 0 0 M0.13 12.04 C2.76 9.02, 5.39 6, 10.63 -0.03 M0.13 12.04 C3.11 8.62, 6.08 5.2, 10.63 -0.03 M0.27 24.08 C6.12 17.34, 11.98 10.6, 21.26 -0.07 M0.27 24.08 C7.75 15.47, 15.24 6.85, 21.26 -0.07 M-0.26 36.88 C6.79 28.77, 13.84 20.66, 31.89 -0.1 M-0.26 36.88 C7.69 27.73, 15.64 18.59, 31.89 -0.1 M5.12 42.88 C17.06 29.15, 28.99 15.42, 39.9 2.88 M5.12 42.88 C18.23 27.8, 31.34 12.72, 39.9 2.88 M15.76 42.85 C22.18 35.46, 28.6 28.07, 39.37 15.68 M15.76 42.85 C24.19 33.14, 32.63 23.43, 39.37 15.68 M26.39 42.81 C29.96 38.69, 33.54 34.58, 39.51 27.72 M26.39 42.81 C30.89 37.63, 35.39 32.45, 39.51 27.72 M37.02 42.78 C37.69 42.01, 38.36 41.23, 39.64 39.76 M37.02 42.78 C37.76 41.92, 38.51 41.06, 39.64 39.76 M0.08 42.59 C0.08 42.59, 0.08 42.59, 0.08 42.59 M0.08 42.59 C0.08 42.59, 0.08 42.59, 0.08 42.59 M12.12 42.46 C8.44 39.26, 4.77 36.07, 0.04 31.96 M12.12 42.46 C9.2 39.93, 6.29 37.39, 0.04 31.96 M24.16 42.32 C15.07 34.43, 5.99 26.53, 0.01 21.33 M24.16 42.32 C18.94 37.79, 13.72 33.25, 0.01 21.33 M36.95 42.85 C24.49 32.02, 12.04 21.19, -0.03 10.7 M36.95 42.85 C26.78 34, 16.6 25.15, -0.03 10.7 M39.94 34.84 C25.38 22.18, 10.81 9.52, -0.06 0.07 M39.94 34.84 C30.05 26.24, 20.16 17.64, -0.06 0.07 M39.9 24.21 C29.6 15.25, 19.29 6.3, 11.23 -0.72 M39.9 24.21 C29.12 14.84, 18.34 5.47, 11.23 -0.72 M39.87 13.58 C35.8 10.04, 31.72 6.5, 23.27 -0.85 M39.87 13.58 C35.34 9.64, 30.81 5.71, 23.27 -0.85 M39.84 2.95 C38.19 1.52, 36.55 0.09, 35.31 -0.99 M39.84 2.95 C38.16 1.49, 36.48 0.03, 35.31 -0.99" stroke="#4c6ef588" stroke-width="1" fill="none"></path><path d="M0 0 C11.36 0, 22.71 0, 39.62 0 M0 0 C8.77 0, 17.54 0, 39.62 0 M39.62 0 C39.62 8.58, 39.62 17.16, 39.62 42.52 M39.62 0 C39.62 8.66, 39.62 17.32, 39.62 42.52 M39.62 42.52 C27.18 42.52, 14.74 42.52, 0 42.52 M39.62 42.52 C24.38 42.52, 9.13 42.52, 0 42.52 M0 42.52 C0 29.64, 0 16.76, 0 0 M0 42.52 C0 32.6, 0 22.68, 0 0" stroke="#0091e2" stroke-width="2" fill="none"></path></g><g stroke-linecap="round" transform="translate(15.903563365415721 24.837444320216946) rotate(0 10.143420698787054 8.224395161178677)"><path d="M0 0 C4.3 0, 8.61 0, 20.29 0 M0 0 C6.31 0, 12.61 0, 20.29 0 M20.29 0 C20.29 3.61, 20.29 7.21, 20.29 16.45 M20.29 0 C20.29 3.37, 20.29 6.74, 20.29 16.45 M20.29 16.45 C13.89 16.45, 7.5 16.45, 0 16.45 M20.29 16.45 C13.81 16.45, 7.33 16.45, 0 16.45 M0 16.45 C0 10.14, 0 3.83, 0 0 M0 16.45 C0 9.98, 0 3.51, 0 0" stroke="#000000" stroke-width="2" fill="none"></path></g><g stroke-linecap="round"><g transform="translate(20.227883543231883 24.537444797201715) rotate(2.134459448127705 6.09945780053954 -5.440056957238085)"><path d="M0 0 C-0.05 -0.66, -0.55 -2.47, -0.33 -3.96 C-0.11 -5.44, 0.22 -7.75, 1.32 -8.9 C2.42 -10.06, 4.73 -10.88, 6.26 -10.88 C7.8 -10.88, 9.56 -9.89, 10.55 -8.9 C11.54 -7.91, 11.87 -6.37, 12.2 -4.95 C12.53 -3.52, 12.47 -1.1, 12.53 -0.33 M0 0 C-0.05 -0.66, -0.55 -2.47, -0.33 -3.96 C-0.11 -5.44, 0.22 -7.75, 1.32 -8.9 C2.42 -10.06, 4.73 -10.88, 6.26 -10.88 C7.8 -10.88, 9.56 -9.89, 10.55 -8.9 C11.54 -7.91, 11.87 -6.37, 12.2 -4.95 C12.53 -3.52, 12.47 -1.1, 12.53 -0.33" stroke="#000000" stroke-width="2" fill="none"></path></g></g><mask></mask><g stroke-linecap="round" transform="translate(23.358398157071406 28.98676109763437) rotate(0 2.637603373206275 2.637603373206275)"><path d="M5.28 2.64 C5.28 2.79, 5.26 2.95, 5.24 3.1 C5.21 3.25, 5.17 3.4, 5.12 3.54 C5.06 3.68, 5 3.82, 4.92 3.96 C4.85 4.09, 4.76 4.22, 4.66 4.33 C4.56 4.45, 4.45 4.56, 4.33 4.66 C4.22 4.76, 4.09 4.85, 3.96 4.92 C3.82 5, 3.68 5.06, 3.54 5.12 C3.4 5.17, 3.25 5.21, 3.1 5.24 C2.95 5.26, 2.79 5.28, 2.64 5.28 C2.48 5.28, 2.33 5.26, 2.18 5.24 C2.03 5.21, 1.88 5.17, 1.74 5.12 C1.59 5.06, 1.45 5, 1.32 4.92 C1.19 4.85, 1.06 4.76, 0.94 4.66 C0.83 4.56, 0.72 4.45, 0.62 4.33 C0.52 4.22, 0.43 4.09, 0.35 3.96 C0.28 3.82, 0.21 3.68, 0.16 3.54 C0.11 3.4, 0.07 3.25, 0.04 3.1 C0.01 2.95, 0 2.79, 0 2.64 C0 2.48, 0.01 2.33, 0.04 2.18 C0.07 2.03, 0.11 1.88, 0.16 1.74 C0.21 1.59, 0.28 1.45, 0.35 1.32 C0.43 1.19, 0.52 1.06, 0.62 0.94 C0.72 0.83, 0.83 0.72, 0.94 0.62 C1.06 0.52, 1.19 0.43, 1.32 0.35 C1.45 0.28, 1.59 0.21, 1.74 0.16 C1.88 0.11, 2.03 0.07, 2.18 0.04 C2.33 0.01, 2.48 0, 2.64 0 C2.79 0, 2.95 0.01, 3.1 0.04 C3.25 0.07, 3.4 0.11, 3.54 0.16 C3.68 0.21, 3.82 0.28, 3.96 0.35 C4.09 0.43, 4.22 0.52, 4.33 0.62 C4.45 0.72, 4.56 0.83, 4.66 0.94 C4.76 1.06, 4.85 1.19, 4.92 1.32 C5 1.45, 5.06 1.59, 5.12 1.74 C5.17 1.88, 5.21 2.03, 5.24 2.18 C5.26 2.33, 5.27 2.56, 5.28 2.64 C5.28 2.71, 5.28 2.56, 5.28 2.64" stroke="#000000" stroke-width="2" fill="none"></path></g><g stroke-linecap="round"><g transform="translate(25.999280313962117 34.42845744672695) rotate(0 0 2.472753162380968)"><path d="M0 0 C0 0.82, 0 4.12, 0 4.95 M0 0 C0 0.82, 0 4.12, 0 4.95" stroke="#000000" stroke-width="2" fill="none"></path></g></g><mask></mask></svg>