<svg version="1.1" xmlns="http://www.w3.org/2000/svg" viewBox="0 0 112 92" width="112" height="92">
  <!-- svg-source:excalidraw -->
  
  <defs>
    
    
  </defs>
  <g stroke-linecap="round" transform="translate(6 6) rotate(0 50 40)"><path d="M0 0 L100 0 L100 80 L0 80" stroke="none" stroke-width="0" fill="#fff"></path><path d="M0 0 C30.63 0, 61.26 0, 100 0 M0 0 C24.26 0, 48.52 0, 100 0 M100 0 C100 23.02, 100 46.05, 100 80 M100 0 C100 18.51, 100 37.02, 100 80 M100 80 C62.23 80, 24.45 80, 0 80 M100 80 C64.66 80, 29.32 80, 0 80 M0 80 C0 55.14, 0 30.28, 0 0 M0 80 C0 49.02, 0 18.05, 0 0" stroke="#fff" stroke-width="1" fill="none"></path></g><g stroke-linecap="round"><g transform="translate(106 6) rotate(0 0 40)"><path d="M0 0 C0 29.08, 0 58.16, 0 80 M0 0 C0 17.91, 0 35.81, 0 80" stroke="#000000" stroke-width="1" fill="none"></path></g></g><mask></mask><g stroke-linecap="round"><g transform="translate(106 6) rotate(0 -10 0)"><path d="M0 0 C-7.66 0, -15.32 0, -20 0 M0 0 C-4.75 0, -9.5 0, -20 0" stroke="#000000" stroke-width="1" fill="none"></path></g></g><mask></mask><g stroke-linecap="round"><g transform="translate(106 86) rotate(0 -10 0)"><path d="M0 0 C-5.77 0, -11.54 0, -20 0 M0 0 C-6.89 0, -13.78 0, -20 0" stroke="#000000" stroke-width="1" fill="none"></path></g></g><mask></mask><g stroke-linecap="round"><g transform="translate(6 6) rotate(0 10 0)"><path d="M0 0 C5.6 0, 11.19 0, 20 0 M0 0 C5.02 0, 10.05 0, 20 0" stroke="#000000" stroke-width="1" fill="none"></path></g></g><mask></mask><g stroke-linecap="round"><g transform="translate(6 6) rotate(0 0 40)"><path d="M0 0 C0 18.1, 0 36.2, 0 80 M0 0 C0 17.61, 0 35.22, 0 80" stroke="#000000" stroke-width="1" fill="none"></path></g></g><mask></mask><g stroke-linecap="round"><g transform="translate(6 86) rotate(0 10 0)"><path d="M0 0 C5.92 0, 11.83 0, 20 0 M0 0 C7.41 0, 14.83 0, 20 0" stroke="#000000" stroke-width="1" fill="none"></path></g></g><mask></mask></svg>