<svg version="1.1" xmlns="http://www.w3.org/2000/svg" viewBox="0 0 228.57062394783588 87.23454876773712" width="228.57062394783588" height="87.23454876773712">
  <!-- svg-source:excalidraw -->
  
  <defs>
    
    
  </defs>
  <g stroke-linecap="round"><g transform="translate(30.264778204661525 80.55221761391795) rotate(0 8.763224524353518 -25.834206146688757)" fill-rule="evenodd"><path d="M-8.05 -42.77 C-8.05 -42.77, -8.05 -42.77, -8.05 -42.77 M-8.05 -42.77 C-8.05 -42.77, -8.05 -42.77, -8.05 -42.77 M-10.28 -34.11 C-7.27 -37.57, -4.26 -41.03, 4.15 -50.72 M-10.28 -34.11 C-6.63 -38.31, -2.99 -42.5, 4.15 -50.72 M-10.54 -27.71 C-4.32 -34.88, 1.91 -42.04, 9.8 -51.11 M-10.54 -27.71 C-3.81 -35.46, 2.93 -43.21, 9.8 -51.11 M-8.84 -23.58 C-6.69 -26.05, -4.55 -28.51, -2.27 -31.13 M-8.84 -23.58 C-7.34 -25.3, -5.85 -27.02, -2.27 -31.13 M8.22 -43.2 C10.37 -45.67, 12.51 -48.14, 14.78 -50.75 M8.22 -43.2 C10.67 -46.02, 13.13 -48.84, 14.78 -50.75 M-6.47 -20.2 C-4.97 -21.93, -3.47 -23.65, -1.22 -26.24 M-6.47 -20.2 C-4.79 -22.14, -3.1 -24.08, -1.22 -26.24 M13.21 -42.84 C15.01 -44.91, 16.8 -46.98, 18.46 -48.88 M13.21 -42.84 C14.54 -44.38, 15.88 -45.91, 18.46 -48.88 M-4.11 -16.82 C-2.34 -18.86, -0.56 -20.91, 1.14 -22.86 M-4.11 -16.82 C-2.04 -19.21, 0.04 -21.6, 1.14 -22.86 M16.23 -40.22 C17.75 -41.97, 19.27 -43.72, 22.13 -47.01 M16.23 -40.22 C18.1 -42.38, 19.98 -44.53, 22.13 -47.01 M-2.4 -12.69 C-0.23 -15.19, 1.95 -17.69, 3.5 -19.48 M-2.4 -12.69 C-0.32 -15.09, 1.77 -17.49, 3.5 -19.48 M19.25 -37.59 C20.62 -39.17, 21.99 -40.75, 24.5 -43.63 M19.25 -37.59 C20.83 -39.42, 22.42 -41.24, 24.5 -43.63 M-5.95 -2.52 C-1.55 -7.57, 2.84 -12.62, 5.21 -15.35 M-5.95 -2.52 C-3.25 -5.62, -0.55 -8.72, 5.21 -15.35 M20.3 -32.71 C22.43 -35.16, 24.57 -37.62, 26.86 -40.25 M20.3 -32.71 C21.85 -34.49, 23.41 -36.28, 26.86 -40.25 M-2.27 -0.65 C-0.01 -3.24, 2.24 -5.84, 6.26 -10.46 M-2.27 -0.65 C0.71 -4.07, 3.68 -7.49, 6.26 -10.46 M14.79 -20.27 C18.98 -25.09, 23.16 -29.91, 28.56 -36.12 M14.79 -20.27 C19.53 -25.73, 24.27 -31.18, 28.56 -36.12 M11.9 -10.85 C18.35 -18.28, 24.81 -25.7, 29.62 -31.23 M11.9 -10.85 C17.31 -17.08, 22.72 -23.3, 29.62 -31.23 M12.95 -5.97 C15.25 -8.61, 17.55 -11.26, 22.79 -17.29 M12.95 -5.97 C16.28 -9.8, 19.61 -13.63, 22.79 -17.29 M15.32 -2.59 C16.93 -4.45, 18.55 -6.31, 20.56 -8.62 M15.32 -2.59 C17.33 -4.9, 19.34 -7.22, 20.56 -8.62 M17.68 0.79 C18.91 -0.62, 20.14 -2.04, 22.93 -5.25 M17.68 0.79 C19.39 -1.17, 21.09 -3.14, 22.93 -5.25" stroke="#ff1f49" stroke-width="0.5" fill="none"></path><path d="M0 0 C-1.14 -0.35, -2.29 -0.7, -4.17 -1.28 M0 0 C-1.61 -0.49, -3.21 -0.99, -4.17 -1.28 M-4.17 -1.28 C-4.85 -1.65, -5.53 -2.02, -7.4 -3.03 M-4.17 -1.28 C-5.39 -1.94, -6.61 -2.6, -7.4 -3.03 M-7.4 -3.03 C-6.77 -3.48, -6.14 -3.93, -5.79 -4.18 M-7.4 -3.03 C-6.93 -3.37, -6.46 -3.7, -5.79 -4.18 M-5.79 -4.18 C-5.48 -4.51, -5.18 -4.83, -4.65 -5.39 M-5.79 -4.18 C-5.38 -4.62, -4.96 -5.06, -4.65 -5.39 M-4.65 -5.39 C-4.41 -5.72, -4.16 -6.04, -3.64 -6.74 M-4.65 -5.39 C-4.37 -5.76, -4.1 -6.13, -3.64 -6.74 M-3.64 -6.74 C-3.38 -7.43, -3.11 -8.12, -2.97 -8.49 M-3.64 -6.74 C-3.4 -7.37, -3.16 -7.99, -2.97 -8.49 M-2.97 -8.49 C-2.83 -9.17, -2.69 -9.85, -2.57 -10.45 M-2.97 -8.49 C-2.85 -9.09, -2.72 -9.69, -2.57 -10.45 M-2.57 -10.45 C-2.6 -11.4, -2.64 -12.35, -2.66 -12.89 M-2.57 -10.45 C-2.6 -11.4, -2.64 -12.36, -2.66 -12.89 M-2.66 -12.89 C-2.88 -13.65, -3.1 -14.42, -3.33 -15.25 M-2.66 -12.89 C-2.9 -13.73, -3.14 -14.58, -3.33 -15.25 M-3.33 -15.25 C-3.9 -16.11, -4.46 -16.97, -4.75 -17.4 M-3.33 -15.25 C-3.67 -15.77, -4.02 -16.29, -4.75 -17.4 M-4.75 -17.4 C-5.36 -18.06, -5.97 -18.72, -6.43 -19.22 M-4.75 -17.4 C-5.22 -17.91, -5.69 -18.42, -6.43 -19.22 M-6.43 -19.22 C-7.25 -20.33, -8.06 -21.43, -8.52 -22.05 M-6.43 -19.22 C-7.1 -20.13, -7.78 -21.04, -8.52 -22.05 M-8.52 -22.05 C-8.93 -23.03, -9.34 -24.01, -9.73 -24.95 M-8.52 -22.05 C-8.92 -23, -9.32 -23.95, -9.73 -24.95 M-9.73 -24.95 C-9.97 -25.63, -10.21 -26.3, -10.61 -27.44 M-9.73 -24.95 C-10.08 -25.93, -10.42 -26.91, -10.61 -27.44 M-10.61 -27.44 C-10.74 -28.39, -10.86 -29.34, -11.01 -30.47 M-10.61 -27.44 C-10.71 -28.18, -10.81 -28.91, -11.01 -30.47 M-11.01 -30.47 C-11.04 -31.88, -11.07 -33.28, -11.08 -34.17 M-11.01 -30.47 C-11.03 -31.41, -11.05 -32.35, -11.08 -34.17 M-11.08 -34.17 C-10.93 -34.87, -10.78 -35.58, -10.41 -37.27 M-11.08 -34.17 C-10.84 -35.28, -10.6 -36.39, -10.41 -37.27 M-10.41 -37.27 C-9.95 -38.44, -9.48 -39.6, -9.2 -40.3 M-10.41 -37.27 C-10.11 -38.03, -9.81 -38.78, -9.2 -40.3 M-9.2 -40.3 C-8.93 -40.85, -8.66 -41.4, -7.86 -42.99 M-9.2 -40.3 C-8.8 -41.11, -8.4 -41.92, -7.86 -42.99 M-7.86 -42.99 C-6.76 -44.26, -5.66 -45.52, -5.04 -46.23 M-7.86 -42.99 C-6.83 -44.17, -5.81 -45.35, -5.04 -46.23 M-5.04 -46.23 C-4.16 -46.89, -3.28 -47.55, -1.55 -48.85 M-5.04 -46.23 C-4.03 -46.98, -3.02 -47.74, -1.55 -48.85 M-1.55 -48.85 C-0.75 -49.25, 0.05 -49.64, 1.88 -50.54 M-1.55 -48.85 C-0.43 -49.4, 0.68 -49.95, 1.88 -50.54 M1.88 -50.54 C3.33 -50.9, 4.79 -51.27, 5.91 -51.55 M1.88 -50.54 C2.83 -50.78, 3.77 -51.01, 5.91 -51.55 M5.91 -51.55 C7.4 -51.6, 8.88 -51.65, 9.81 -51.69 M5.91 -51.55 C7.09 -51.59, 8.26 -51.63, 9.81 -51.69 M9.81 -51.69 C10.53 -51.59, 11.26 -51.49, 13.37 -51.22 M9.81 -51.69 C10.66 -51.57, 11.52 -51.46, 13.37 -51.22 M13.37 -51.22 C14.17 -50.93, 14.97 -50.64, 16.72 -50.01 M13.37 -51.22 C14.06 -50.97, 14.75 -50.72, 16.72 -50.01 M16.72 -50.01 C17.62 -49.53, 18.51 -49.05, 20.48 -47.99 M16.72 -50.01 C17.86 -49.4, 19.01 -48.78, 20.48 -47.99 M20.48 -47.99 C21.17 -47.39, 21.86 -46.78, 23.37 -45.44 M20.48 -47.99 C21.62 -46.99, 22.76 -45.98, 23.37 -45.44 M23.37 -45.44 C24.15 -44.37, 24.93 -43.3, 25.32 -42.75 M23.37 -45.44 C23.78 -44.88, 24.19 -44.32, 25.32 -42.75 M25.32 -42.75 C25.97 -41.57, 26.62 -40.38, 27.2 -39.33 M25.32 -42.75 C25.99 -41.53, 26.67 -40.3, 27.2 -39.33 M27.2 -39.33 C27.44 -38.46, 27.68 -37.6, 28.34 -35.23 M27.2 -39.33 C27.47 -38.35, 27.74 -37.38, 28.34 -35.23 M28.34 -35.23 C28.44 -33.88, 28.54 -32.52, 28.61 -31.54 M28.34 -35.23 C28.41 -34.35, 28.47 -33.46, 28.61 -31.54 M28.61 -31.54 C28.52 -30.61, 28.42 -29.68, 28.27 -28.18 M28.61 -31.54 C28.52 -30.66, 28.43 -29.78, 28.27 -28.18 M28.27 -28.18 C28.05 -27.42, 27.84 -26.67, 27.33 -24.89 M28.27 -28.18 C27.97 -27.13, 27.67 -26.09, 27.33 -24.89 M27.33 -24.89 C26.6 -23.5, 25.88 -22.11, 25.44 -21.27 M27.33 -24.89 C26.86 -24, 26.4 -23.11, 25.44 -21.27 M25.44 -21.27 C25.07 -20.72, 24.7 -20.17, 24.23 -19.45 M25.44 -21.27 C25.06 -20.69, 24.67 -20.12, 24.23 -19.45 M24.23 -19.45 C23.83 -19.01, 23.44 -18.56, 22.27 -17.24 M24.23 -19.45 C23.55 -18.69, 22.88 -17.93, 22.27 -17.24 M22.27 -17.24 C21.83 -16.53, 21.39 -15.83, 20.72 -14.75 M22.27 -17.24 C21.81 -16.49, 21.34 -15.75, 20.72 -14.75 M20.72 -14.75 C20.46 -14.01, 20.2 -13.26, 20.04 -12.81 M20.72 -14.75 C20.58 -14.35, 20.44 -13.95, 20.04 -12.81 M20.04 -12.81 C20.06 -12.03, 20.08 -11.26, 20.11 -10.26 M20.04 -12.81 C20.07 -11.86, 20.09 -10.91, 20.11 -10.26 M20.11 -10.26 C20.28 -9.53, 20.46 -8.8, 20.78 -7.5 M20.11 -10.26 C20.29 -9.5, 20.48 -8.74, 20.78 -7.5 M20.78 -7.5 C21.07 -7.07, 21.36 -6.64, 22.05 -5.62 M20.78 -7.5 C21.27 -6.78, 21.77 -6.05, 22.05 -5.62 M22.05 -5.62 C22.64 -4.99, 23.22 -4.36, 23.67 -3.88 M22.05 -5.62 C22.51 -5.13, 22.96 -4.64, 23.67 -3.88 M23.67 -3.88 C24.1 -3.59, 24.53 -3.3, 24.88 -3.07 M23.67 -3.88 C23.95 -3.69, 24.23 -3.5, 24.88 -3.07 M24.88 -3.07 C24.07 -2.6, 23.26 -2.13, 21.98 -1.39 M24.88 -3.07 C23.86 -2.49, 22.85 -1.9, 21.98 -1.39 M21.98 -1.39 C20.54 -0.95, 19.1 -0.51, 17.4 0.02 M21.98 -1.39 C20.38 -0.9, 18.78 -0.41, 17.4 0.02 M17.4 0.02 C16.62 -0.73, 15.84 -1.48, 15.45 -1.87 M17.4 0.02 C16.82 -0.54, 16.24 -1.1, 15.45 -1.87 M15.45 -1.87 C14.91 -2.58, 14.36 -3.29, 13.97 -3.82 M15.45 -1.87 C15.14 -2.27, 14.84 -2.66, 13.97 -3.82 M13.97 -3.82 C13.47 -4.73, 12.98 -5.64, 12.69 -6.17 M13.97 -3.82 C13.54 -4.61, 13.11 -5.4, 12.69 -6.17 M12.69 -6.17 C12.48 -6.9, 12.27 -7.62, 12.01 -8.53 M12.69 -6.17 C12.54 -6.69, 12.39 -7.21, 12.01 -8.53 M12.01 -8.53 C11.96 -9.34, 11.9 -10.15, 11.81 -11.29 M12.01 -8.53 C11.94 -9.53, 11.87 -10.54, 11.81 -11.29 M11.81 -11.29 C11.98 -12.73, 12.16 -14.16, 12.28 -15.19 M11.81 -11.29 C11.93 -12.29, 12.05 -13.29, 12.28 -15.19 M12.28 -15.19 C12.55 -15.96, 12.82 -16.72, 13.36 -18.22 M12.28 -15.19 C12.58 -16.04, 12.88 -16.88, 13.36 -18.22 M13.36 -18.22 C13.77 -18.91, 14.18 -19.59, 14.7 -20.45 M13.36 -18.22 C13.78 -18.92, 14.2 -19.62, 14.7 -20.45 M14.7 -20.45 C15.26 -21.23, 15.81 -22.02, 16.18 -22.53 M14.7 -20.45 C15.09 -21, 15.48 -21.54, 16.18 -22.53 M16.18 -22.53 C16.8 -23.31, 17.43 -24.09, 18.13 -24.96 M16.18 -22.53 C16.65 -23.12, 17.12 -23.7, 18.13 -24.96 M18.13 -24.96 C18.52 -25.62, 18.91 -26.28, 19.6 -27.45 M18.13 -24.96 C18.56 -25.7, 19 -26.44, 19.6 -27.45 M19.6 -27.45 C19.85 -28.37, 20.1 -29.3, 20.34 -30.21 M19.6 -27.45 C19.77 -28.06, 19.93 -28.67, 20.34 -30.21 M20.34 -30.21 C20.38 -31.1, 20.42 -31.99, 20.47 -33.18 M20.34 -30.21 C20.37 -30.96, 20.41 -31.7, 20.47 -33.18 M20.47 -33.18 C20.31 -34.06, 20.14 -34.93, 19.93 -36.01 M20.47 -33.18 C20.32 -33.99, 20.17 -34.79, 19.93 -36.01 M19.93 -36.01 C19.2 -37.18, 18.46 -38.36, 17.78 -39.45 M19.93 -36.01 C19.1 -37.34, 18.27 -38.67, 17.78 -39.45 M17.78 -39.45 C16.74 -40.35, 15.7 -41.26, 14.68 -42.14 M17.78 -39.45 C17.15 -39.99, 16.53 -40.53, 14.68 -42.14 M14.68 -42.14 C13.96 -42.42, 13.23 -42.69, 11.65 -43.29 M14.68 -42.14 C13.89 -42.44, 13.11 -42.74, 11.65 -43.29 M11.65 -43.29 C10.36 -43.43, 9.08 -43.57, 7.87 -43.7 M11.65 -43.29 C10.19 -43.45, 8.73 -43.61, 7.87 -43.7 M7.87 -43.7 C6.73 -43.42, 5.59 -43.14, 4.3 -42.83 M7.87 -43.7 C7.11 -43.51, 6.34 -43.32, 4.3 -42.83 M4.3 -42.83 C3.22 -42.21, 2.15 -41.6, 1.47 -41.21 M4.3 -42.83 C3.19 -42.19, 2.07 -41.56, 1.47 -41.21 M1.47 -41.21 C0.87 -40.62, 0.27 -40.02, -0.55 -39.2 M1.47 -41.21 C0.88 -40.62, 0.28 -40.03, -0.55 -39.2 M-0.55 -39.2 C-1.07 -38.38, -1.58 -37.56, -2.03 -36.85 M-0.55 -39.2 C-0.88 -38.68, -1.21 -38.15, -2.03 -36.85 M-2.03 -36.85 C-2.28 -35.99, -2.52 -35.13, -2.71 -34.5 M-2.03 -36.85 C-2.25 -36.08, -2.47 -35.31, -2.71 -34.5 M-2.71 -34.5 C-2.8 -33.74, -2.89 -32.99, -3.04 -31.68 M-2.71 -34.5 C-2.78 -33.9, -2.85 -33.3, -3.04 -31.68 M-3.04 -31.68 C-2.92 -30.78, -2.8 -29.88, -2.64 -28.72 M-3.04 -31.68 C-2.95 -30.97, -2.85 -30.26, -2.64 -28.72 M-2.64 -28.72 C-2.14 -27.64, -1.63 -26.55, -1.36 -25.97 M-2.64 -28.72 C-2.2 -27.77, -1.76 -26.82, -1.36 -25.97 M-1.36 -25.97 C-0.72 -25.17, -0.07 -24.38, 0.38 -23.82 M-1.36 -25.97 C-0.76 -25.23, -0.16 -24.49, 0.38 -23.82 M0.38 -23.82 C0.97 -23.03, 1.57 -22.25, 2.26 -21.34 M0.38 -23.82 C1.03 -22.97, 1.67 -22.11, 2.26 -21.34 M2.26 -21.34 C2.67 -20.65, 3.08 -19.96, 4.21 -18.05 M2.26 -21.34 C2.75 -20.51, 3.23 -19.69, 4.21 -18.05 M4.21 -18.05 C4.48 -17.14, 4.76 -16.24, 5.28 -14.55 M4.21 -18.05 C4.61 -16.73, 5.02 -15.41, 5.28 -14.55 M5.28 -14.55 C5.4 -13.18, 5.51 -11.8, 5.62 -10.59 M5.28 -14.55 C5.4 -13.13, 5.52 -11.72, 5.62 -10.59 M5.62 -10.59 C5.39 -9.31, 5.16 -8.02, 5.01 -7.16 M5.62 -10.59 C5.4 -9.38, 5.19 -8.17, 5.01 -7.16 M5.01 -7.16 C4.65 -6.24, 4.3 -5.31, 3.8 -4.01 M5.01 -7.16 C4.57 -6.03, 4.14 -4.9, 3.8 -4.01 M3.8 -4.01 C3.22 -3.35, 2.64 -2.69, 1.5 -1.39 M3.8 -4.01 C3.29 -3.43, 2.78 -2.85, 1.5 -1.39 M1.5 -1.39 C1.15 -1.06, 0.79 -0.73, 0 0 M1.5 -1.39 C0.99 -0.92, 0.48 -0.45, 0 0 M0 0 C0 0, 0 0, 0 0 M0 0 C0 0, 0 0, 0 0" stroke="#ff1f49" stroke-width="1" fill="none"></path></g></g><mask></mask><g stroke-linecap="round" transform="translate(32.58311704335483 42.44786030879459) rotate(0 6.456088041311887 6.456088041311887)"><path d="M1.35 2.5 C1.35 2.5, 1.35 2.5, 1.35 2.5 M1.35 2.5 C1.35 2.5, 1.35 2.5, 1.35 2.5 M1.08 8.89 C3.16 6.5, 5.24 4.11, 8.3 0.59 M1.08 8.89 C2.75 6.98, 4.41 5.06, 8.3 0.59 M3.45 12.27 C5.61 9.78, 7.78 7.29, 11.98 2.46 M3.45 12.27 C5.87 9.49, 8.29 6.7, 11.98 2.46 M7.78 13.39 C9.74 11.13, 11.71 8.87, 13.03 7.35 M7.78 13.39 C9.33 11.6, 10.88 9.82, 13.03 7.35" stroke="#ff1f49" stroke-width="0.5" fill="none"></path><path d="M12.91 6.46 C12.91 6.83, 12.88 7.21, 12.81 7.58 C12.75 7.95, 12.65 8.31, 12.52 8.66 C12.4 9.02, 12.23 9.36, 12.05 9.68 C11.86 10.01, 11.64 10.32, 11.4 10.61 C11.16 10.89, 10.89 11.16, 10.61 11.4 C10.32 11.64, 10.01 11.86, 9.68 12.05 C9.36 12.23, 9.02 12.4, 8.66 12.52 C8.31 12.65, 7.95 12.75, 7.58 12.81 C7.21 12.88, 6.83 12.91, 6.46 12.91 C6.08 12.91, 5.7 12.88, 5.34 12.81 C4.97 12.75, 4.6 12.65, 4.25 12.52 C3.9 12.4, 3.55 12.23, 3.23 12.05 C2.9 11.86, 2.59 11.64, 2.31 11.4 C2.02 11.16, 1.75 10.89, 1.51 10.61 C1.27 10.32, 1.05 10.01, 0.86 9.68 C0.68 9.36, 0.52 9.02, 0.39 8.66 C0.26 8.31, 0.16 7.95, 0.1 7.58 C0.03 7.21, 0 6.83, 0 6.46 C0 6.08, 0.03 5.7, 0.1 5.34 C0.16 4.97, 0.26 4.6, 0.39 4.25 C0.52 3.9, 0.68 3.55, 0.86 3.23 C1.05 2.9, 1.27 2.59, 1.51 2.31 C1.75 2.02, 2.02 1.75, 2.31 1.51 C2.59 1.27, 2.9 1.05, 3.23 0.86 C3.55 0.68, 3.9 0.52, 4.25 0.39 C4.6 0.26, 4.97 0.16, 5.34 0.1 C5.7 0.03, 6.08 0, 6.46 0 C6.83 0, 7.21 0.03, 7.58 0.1 C7.95 0.16, 8.31 0.26, 8.66 0.39 C9.02 0.52, 9.36 0.68, 9.68 0.86 C10.01 1.05, 10.32 1.27, 10.61 1.51 C10.89 1.75, 11.16 2.02, 11.4 2.31 C11.64 2.59, 11.86 2.9, 12.05 3.23 C12.23 3.55, 12.4 3.9, 12.52 4.25 C12.65 4.6, 12.75 4.97, 12.81 5.34 C12.88 5.7, 12.9 6.27, 12.91 6.46 C12.93 6.64, 12.93 6.27, 12.91 6.46" stroke="#ff1f49" stroke-width="1" fill="none"></path></g><g stroke-linecap="round"><g transform="translate(18.06436572666189 74.36031009276621) rotate(0 20.989521297252395 -29.38618657016309)" fill-rule="evenodd"><path d="M-4.95 -46.7 C-4.95 -46.7, -4.95 -46.7, -4.95 -46.7 M-4.95 -46.7 C-4.95 -46.7, -4.95 -46.7, -4.95 -46.7 M-10.46 -34.26 C-4.36 -41.28, 1.73 -48.29, 7.91 -55.4 M-10.46 -34.26 C-5.53 -39.93, -0.6 -45.6, 7.91 -55.4 M-11.37 -27.11 C-2.12 -37.76, 7.14 -48.41, 15.53 -58.05 M-11.37 -27.11 C-2.07 -37.81, 7.23 -48.51, 15.53 -58.05 M-11.63 -20.71 C-9.35 -23.34, -7.07 -25.96, -3.11 -30.53 M-11.63 -20.71 C-8.7 -24.09, -5.77 -27.46, -3.11 -30.53 M13.3 -49.39 C15.59 -52.03, 17.88 -54.67, 21.17 -58.45 M13.3 -49.39 C15.83 -52.31, 18.37 -55.23, 21.17 -58.45 M-10.58 -15.83 C-8.93 -17.73, -7.28 -19.63, -3.37 -24.13 M-10.58 -15.83 C-8.35 -18.39, -6.13 -20.95, -3.37 -24.13 M19.59 -50.54 C21.29 -52.49, 22.98 -54.44, 26.16 -58.09 M19.59 -50.54 C21.63 -52.88, 23.67 -55.23, 26.16 -58.09 M-8.88 -11.69 C-6.74 -14.15, -4.6 -16.62, -2.97 -18.48 M-8.88 -11.69 C-7.59 -13.18, -6.29 -14.67, -2.97 -18.48 M24.58 -50.18 C26.18 -52.02, 27.78 -53.86, 30.49 -56.97 M24.58 -50.18 C25.9 -51.7, 27.23 -53.22, 30.49 -56.97 M-7.17 -7.56 C-5.41 -9.58, -3.66 -11.6, -1.27 -14.35 M-7.17 -7.56 C-5.28 -9.73, -3.39 -11.91, -1.27 -14.35 M28.91 -49.07 C30.6 -51.01, 32.29 -52.95, 34.82 -55.86 M28.91 -49.07 C30.79 -51.23, 32.67 -53.39, 34.82 -55.86 M-4.15 -4.93 C-2.86 -6.42, -1.57 -7.9, 1.1 -10.97 M-4.15 -4.93 C-2.3 -7.06, -0.45 -9.19, 1.1 -10.97 M33.24 -47.95 C34.8 -49.74, 36.35 -51.52, 38.49 -53.99 M33.24 -47.95 C34.77 -49.71, 36.31 -51.48, 38.49 -53.99 M-1.79 -1.56 C-0.2 -3.38, 1.39 -5.21, 3.46 -7.59 M-1.79 -1.56 C-0.49 -3.05, 0.81 -4.54, 3.46 -7.59 M36.26 -45.33 C37.44 -46.68, 38.61 -48.03, 41.51 -51.37 M36.26 -45.33 C38.28 -47.64, 40.29 -49.96, 41.51 -51.37 M39.28 -42.7 C41.09 -44.79, 42.91 -46.88, 44.53 -48.74 M39.28 -42.7 C40.47 -44.08, 41.67 -45.45, 44.53 -48.74 M42.3 -40.08 C43.49 -41.44, 44.67 -42.81, 47.55 -46.12 M42.3 -40.08 C43.75 -41.75, 45.2 -43.41, 47.55 -46.12 M44.01 -35.95 C45.98 -38.22, 47.96 -40.49, 49.91 -42.74 M44.01 -35.95 C45.83 -38.04, 47.65 -40.14, 49.91 -42.74 M45.71 -31.81 C48.03 -34.48, 50.35 -37.14, 51.62 -38.6 M45.71 -31.81 C48.04 -34.49, 50.36 -37.16, 51.62 -38.6 M46.11 -26.17 C47.65 -27.94, 49.19 -29.71, 53.32 -34.47 M46.11 -26.17 C48.99 -29.48, 51.87 -32.8, 53.32 -34.47 M45.19 -19.02 C47.44 -21.6, 49.69 -24.19, 54.38 -29.58 M45.19 -19.02 C47.05 -21.16, 48.91 -23.3, 54.38 -29.58 M38.37 -5.07 C41.64 -8.84, 44.92 -12.61, 54.11 -23.19 M38.37 -5.07 C44.65 -12.3, 50.93 -19.52, 54.11 -23.19 M40.08 -0.94 C43.21 -4.54, 46.34 -8.14, 53.2 -16.03 M40.08 -0.94 C44.16 -5.64, 48.25 -10.34, 53.2 -16.03" stroke="#ff1f49" stroke-width="0.5" fill="none"></path><path d="M0 0 C-0.39 -0.4, -0.78 -0.8, -1.83 -1.89 M0 0 C-0.46 -0.48, -0.92 -0.96, -1.83 -1.89 M-1.83 -1.89 C-2.4 -2.48, -2.97 -3.06, -4.29 -4.42 M-1.83 -1.89 C-2.44 -2.52, -3.06 -3.15, -4.29 -4.42 M-4.29 -4.42 C-4.97 -5.21, -5.65 -6, -6.57 -7.07 M-4.29 -4.42 C-4.96 -5.2, -5.64 -5.99, -6.57 -7.07 M-6.57 -7.07 C-7 -7.83, -7.44 -8.59, -8.21 -9.91 M-6.57 -7.07 C-6.92 -7.69, -7.28 -8.3, -8.21 -9.91 M-8.21 -9.91 C-8.62 -10.81, -9.03 -11.71, -9.54 -12.82 M-8.21 -9.91 C-8.49 -10.53, -8.77 -11.14, -9.54 -12.82 M-9.54 -12.82 C-9.97 -13.94, -10.4 -15.06, -11.24 -17.24 M-9.54 -12.82 C-9.98 -13.97, -10.42 -15.12, -11.24 -17.24 M-11.24 -17.24 C-11.41 -18.16, -11.59 -19.09, -12 -21.28 M-11.24 -17.24 C-11.42 -18.21, -11.61 -19.19, -12 -21.28 M-12 -21.28 C-12.01 -22.23, -12.03 -23.19, -12.06 -26.01 M-12 -21.28 C-12.02 -22.85, -12.04 -24.42, -12.06 -26.01 M-12.06 -26.01 C-12.04 -27, -12.01 -28, -11.94 -30.49 M-12.06 -26.01 C-12.02 -27.46, -11.98 -28.91, -11.94 -30.49 M-11.94 -30.49 C-11.6 -31.93, -11.27 -33.37, -11 -34.53 M-11.94 -30.49 C-11.73 -31.41, -11.51 -32.32, -11 -34.53 M-11 -34.53 C-10.45 -36.08, -9.9 -37.63, -9.36 -39.14 M-11 -34.53 C-10.37 -36.3, -9.74 -38.07, -9.36 -39.14 M-9.36 -39.14 C-8.79 -40.28, -8.22 -41.43, -7.42 -43.05 M-9.36 -39.14 C-8.82 -40.23, -8.27 -41.33, -7.42 -43.05 M-7.42 -43.05 C-6.96 -43.74, -6.5 -44.43, -5.15 -46.46 M-7.42 -43.05 C-6.86 -43.89, -6.3 -44.73, -5.15 -46.46 M-5.15 -46.46 C-4.44 -47.16, -3.73 -47.86, -1.95 -49.62 M-5.15 -46.46 C-4.28 -47.32, -3.4 -48.18, -1.95 -49.62 M-1.95 -49.62 C-0.94 -50.54, 0.07 -51.47, 1.07 -52.39 M-1.95 -49.62 C-0.98 -50.51, -0.01 -51.4, 1.07 -52.39 M1.07 -52.39 C2.26 -53.13, 3.44 -53.87, 5.22 -54.98 M1.07 -52.39 C2.42 -53.24, 3.77 -54.08, 5.22 -54.98 M5.22 -54.98 C6.27 -55.44, 7.31 -55.9, 9.82 -57 M5.22 -54.98 C6.66 -55.61, 8.09 -56.24, 9.82 -57 M9.82 -57 C11.09 -57.36, 12.35 -57.72, 14.72 -58.39 M9.82 -57 C10.8 -57.28, 11.78 -57.56, 14.72 -58.39 M14.72 -58.39 C15.83 -58.49, 16.94 -58.59, 18.94 -58.77 M14.72 -58.39 C16.06 -58.51, 17.4 -58.63, 18.94 -58.77 M18.94 -58.77 C20.31 -58.76, 21.68 -58.74, 24.42 -58.71 M18.94 -58.77 C20.06 -58.76, 21.18 -58.75, 24.42 -58.71 M24.42 -58.71 C25.36 -58.53, 26.31 -58.36, 29.14 -57.83 M24.42 -58.71 C25.96 -58.42, 27.5 -58.14, 29.14 -57.83 M29.14 -57.83 C30.02 -57.59, 30.91 -57.35, 33.54 -56.64 M29.14 -57.83 C30.39 -57.49, 31.64 -57.15, 33.54 -56.64 M33.54 -56.64 C34.68 -56.03, 35.81 -55.41, 37.5 -54.5 M33.54 -56.64 C34.81 -55.95, 36.08 -55.27, 37.5 -54.5 M37.5 -54.5 C38.91 -53.58, 40.31 -52.66, 41.15 -52.11 M37.5 -54.5 C38.71 -53.71, 39.92 -52.92, 41.15 -52.11 M41.15 -52.11 C42.58 -50.86, 44.01 -49.61, 45.24 -48.53 M41.15 -52.11 C42.68 -50.77, 44.2 -49.44, 45.24 -48.53 M45.24 -48.53 C46 -47.6, 46.75 -46.67, 47.7 -45.51 M45.24 -48.53 C45.92 -47.69, 46.6 -46.86, 47.7 -45.51 M47.7 -45.51 C48.39 -44.44, 49.08 -43.37, 50.02 -41.92 M47.7 -45.51 C48.51 -44.25, 49.32 -43, 50.02 -41.92 M50.02 -41.92 C50.5 -40.93, 50.97 -39.94, 52.29 -37.2 M50.02 -41.92 C50.91 -40.07, 51.8 -38.21, 52.29 -37.2 M52.29 -37.2 C52.63 -35.81, 52.97 -34.42, 53.8 -31.03 M52.29 -37.2 C52.6 -35.93, 52.91 -34.65, 53.8 -31.03 M53.8 -31.03 C53.89 -28.87, 53.98 -26.7, 54.04 -25.06 M53.8 -31.03 C53.89 -28.65, 53.99 -26.26, 54.04 -25.06 M54.04 -25.06 C53.85 -23.23, 53.65 -21.4, 53.41 -19.15 M54.04 -25.06 C53.86 -23.3, 53.67 -21.55, 53.41 -19.15 M53.41 -19.15 C52.89 -17.18, 52.38 -15.22, 52.02 -13.86 M53.41 -19.15 C52.92 -17.28, 52.43 -15.41, 52.02 -13.86 M52.02 -13.86 C51.17 -12.2, 50.31 -10.54, 49.24 -8.46 M52.02 -13.86 C51.3 -12.45, 50.57 -11.04, 49.24 -8.46 M49.24 -8.46 C48.31 -7.2, 47.38 -5.94, 45.83 -3.86 M49.24 -8.46 C48.03 -6.82, 46.81 -5.18, 45.83 -3.86 M45.83 -3.86 C44.84 -2.89, 43.85 -1.92, 42.04 -0.15 M45.83 -3.86 C44.57 -2.63, 43.31 -1.39, 42.04 -0.15 M42.04 -0.15 C41.31 -0.66, 40.58 -1.16, 39.01 -2.24 M42.04 -0.15 C41.28 -0.68, 40.52 -1.2, 39.01 -2.24 M39.01 -2.24 C38.59 -3.04, 38.16 -3.85, 37.94 -4.26 M39.01 -2.24 C38.75 -2.73, 38.49 -3.22, 37.94 -4.26 M37.94 -4.26 C38.01 -5.06, 38.08 -5.86, 38.19 -7.16 M37.94 -4.26 C38.02 -5.2, 38.1 -6.13, 38.19 -7.16 M38.19 -7.16 C38.72 -7.83, 39.25 -8.5, 40.58 -10.19 M38.19 -7.16 C38.92 -8.08, 39.64 -9, 40.58 -10.19 M40.58 -10.19 C41.21 -11.13, 41.85 -12.06, 42.59 -13.16 M40.58 -10.19 C41.38 -11.37, 42.18 -12.56, 42.59 -13.16 M42.59 -13.16 C42.94 -13.88, 43.29 -14.59, 44.16 -16.38 M42.59 -13.16 C43.11 -14.22, 43.63 -15.29, 44.16 -16.38 M44.16 -16.38 C44.54 -17.41, 44.91 -18.45, 45.3 -19.54 M44.16 -16.38 C44.56 -17.48, 44.95 -18.57, 45.3 -19.54 M45.3 -19.54 C45.48 -20.65, 45.67 -21.77, 45.8 -22.5 M45.3 -19.54 C45.46 -20.5, 45.62 -21.47, 45.8 -22.5 M45.8 -22.5 C45.85 -23.21, 45.91 -23.91, 46.05 -25.78 M45.8 -22.5 C45.89 -23.76, 45.99 -25.02, 46.05 -25.78 M46.05 -25.78 C46 -26.54, 45.96 -27.3, 45.86 -29 M46.05 -25.78 C45.98 -27.02, 45.9 -28.26, 45.86 -29 M45.86 -29 C45.74 -29.77, 45.62 -30.54, 45.48 -31.46 M45.86 -29 C45.72 -29.88, 45.59 -30.76, 45.48 -31.46 M45.48 -31.46 C45.19 -32.35, 44.9 -33.24, 44.28 -35.13 M45.48 -31.46 C45.01 -32.91, 44.53 -34.36, 44.28 -35.13 M44.28 -35.13 C43.74 -36.29, 43.19 -37.44, 42.38 -39.16 M44.28 -35.13 C43.77 -36.21, 43.26 -37.3, 42.38 -39.16 M42.38 -39.16 C41.81 -39.87, 41.24 -40.58, 39.73 -42.45 M42.38 -39.16 C41.49 -40.27, 40.6 -41.37, 39.73 -42.45 M39.73 -42.45 C38.98 -43.2, 38.22 -43.96, 36.58 -45.6 M39.73 -42.45 C38.62 -43.56, 37.5 -44.68, 36.58 -45.6 M36.58 -45.6 C35.68 -46.16, 34.77 -46.72, 33.1 -47.75 M36.58 -45.6 C35.25 -46.42, 33.93 -47.24, 33.1 -47.75 M33.1 -47.75 C32.52 -48.04, 31.93 -48.34, 30.2 -49.2 M33.1 -47.75 C31.96 -48.32, 30.82 -48.89, 30.2 -49.2 M30.2 -49.2 C29.28 -49.47, 28.35 -49.73, 26.67 -50.21 M30.2 -49.2 C28.82 -49.6, 27.43 -50, 26.67 -50.21 M26.67 -50.21 C25.66 -50.35, 24.66 -50.49, 22.51 -50.78 M26.67 -50.21 C25.79 -50.33, 24.91 -50.45, 22.51 -50.78 M22.51 -50.78 C20.62 -50.76, 18.73 -50.73, 17.71 -50.72 M22.51 -50.78 C21.42 -50.77, 20.33 -50.75, 17.71 -50.72 M17.71 -50.72 C16.09 -50.36, 14.46 -50, 13.17 -49.72 M17.71 -50.72 C16.02 -50.35, 14.34 -49.98, 13.17 -49.72 M13.17 -49.72 C12.23 -49.3, 11.3 -48.89, 8.62 -47.71 M13.17 -49.72 C12.1 -49.25, 11.04 -48.78, 8.62 -47.71 M8.62 -47.71 C7.16 -46.66, 5.7 -45.61, 4.77 -44.94 M8.62 -47.71 C7.54 -46.93, 6.47 -46.16, 4.77 -44.94 M4.77 -44.94 C3.74 -43.95, 2.71 -42.97, 1.68 -41.98 M4.77 -44.94 C3.68 -43.89, 2.59 -42.85, 1.68 -41.98 M1.68 -41.98 C0.97 -40.97, 0.27 -39.96, -0.91 -38.27 M1.68 -41.98 C0.93 -40.91, 0.19 -39.84, -0.91 -38.27 M-0.91 -38.27 C-1.56 -36.9, -2.21 -35.53, -2.55 -34.81 M-0.91 -38.27 C-1.27 -37.52, -1.63 -36.76, -2.55 -34.81 M-2.55 -34.81 C-2.79 -33.91, -3.03 -33.01, -3.57 -30.98 M-2.55 -34.81 C-2.94 -33.33, -3.34 -31.85, -3.57 -30.98 M-3.57 -30.98 C-3.73 -29.87, -3.9 -28.76, -4.14 -27.2 M-3.57 -30.98 C-3.71 -30.02, -3.85 -29.06, -4.14 -27.2 M-4.14 -27.2 C-4.09 -25.59, -4.04 -23.97, -4.01 -23.12 M-4.14 -27.2 C-4.1 -25.94, -4.06 -24.68, -4.01 -23.12 M-4.01 -23.12 C-3.9 -22.04, -3.78 -20.96, -3.64 -19.66 M-4.01 -23.12 C-3.87 -21.81, -3.73 -20.51, -3.64 -19.66 M-3.64 -19.66 C-3.2 -18.4, -2.76 -17.14, -2.26 -15.69 M-3.64 -19.66 C-3.32 -18.74, -3 -17.83, -2.26 -15.69 M-2.26 -15.69 C-1.85 -14.95, -1.44 -14.22, -0.37 -12.29 M-2.26 -15.69 C-1.69 -14.68, -1.13 -13.67, -0.37 -12.29 M-0.37 -12.29 C0.32 -11.44, 1.01 -10.58, 1.96 -9.4 M-0.37 -12.29 C0.26 -11.51, 0.89 -10.73, 1.96 -9.4 M1.96 -9.4 C2.57 -8.64, 3.17 -7.87, 3.66 -7.26 M1.96 -9.4 C2.33 -8.94, 2.7 -8.47, 3.66 -7.26 M3.66 -7.26 C3.79 -6.69, 3.92 -6.11, 4.16 -5.06 M3.66 -7.26 C3.85 -6.41, 4.05 -5.55, 4.16 -5.06 M4.16 -5.06 C3.95 -4.3, 3.74 -3.54, 3.59 -2.99 M4.16 -5.06 C3.97 -4.38, 3.79 -3.7, 3.59 -2.99 M3.59 -2.99 C2.61 -2.17, 1.64 -1.36, 0 0 M3.59 -2.99 C2.56 -2.13, 1.53 -1.27, 0 0 M0 0 C0 0, 0 0, 0 0 M0 0 C0 0, 0 0, 0 0" stroke="#ff1f49" stroke-width="1" fill="none"></path></g></g><mask></mask><g transform="translate(100.04416520760151 6) rotate(0 61.26322937011719 37.61727438386856)"><text x="61.26322937011719" y="0" font-family="Virgil, Segoe UI Emoji" font-size="60.187639014189784px" fill="#34434a" text-anchor="middle" style="white-space: pre;" direction="ltr" dominant-baseline="text-before-edge">ceph</text></g></svg>