<svg version="1.1" xmlns="http://www.w3.org/2000/svg" viewBox="0 0 112 92" width="112" height="92">
  <!-- svg-source:excalidraw -->
  
  <defs>
    
    
  </defs>
  <g stroke-linecap="round" transform="translate(6 6) rotate(0 50 40)"><path d="M0 0 L100 0 L100 80 L0 80" stroke="none" stroke-width="0" fill="#fff"></path><path d="M0 0 C25.02 0, 50.04 0, 100 0 M0 0 C38.74 0, 77.47 0, 100 0 M100 0 C100 29.17, 100 58.35, 100 80 M100 0 C100 23.08, 100 46.16, 100 80 M100 80 C79.14 80, 58.29 80, 0 80 M100 80 C70.9 80, 41.8 80, 0 80 M0 80 C0 54.93, 0 29.86, 0 0 M0 80 C0 61.88, 0 43.76, 0 0" stroke="#fff" stroke-width="1" fill="none"></path></g><g stroke-linecap="round"><g transform="translate(6 6) rotate(0 50 0)"><path d="M0 0 C29.6 0, 59.21 0, 100 0 M0 0 C23.43 0, 46.85 0, 100 0" stroke="#000000" stroke-width="1" fill="none"></path></g></g><mask></mask><g stroke-linecap="round"><g transform="translate(106 6) rotate(0 0 10)"><path d="M0 0 C0 4.23, 0 8.45, 0 20 M0 0 C0 7.39, 0 14.77, 0 20" stroke="#000000" stroke-width="1" fill="none"></path></g></g><mask></mask><g stroke-linecap="round"><g transform="translate(6 6) rotate(0 0 10)"><path d="M0 0 C0 5.11, 0 10.22, 0 20 M0 0 C0 7.72, 0 15.43, 0 20" stroke="#000000" stroke-width="1" fill="none"></path></g></g><mask></mask><g stroke-linecap="round"><g transform="translate(106 66) rotate(0 0 10)"><path d="M0 0 C0 4.24, 0 8.48, 0 20 M0 0 C0 7.29, 0 14.59, 0 20" stroke="#000000" stroke-width="1" fill="none"></path></g></g><mask></mask><g stroke-linecap="round"><g transform="translate(106 86) rotate(0 -50 0)"><path d="M0 0 C-30.67 0, -61.33 0, -100 0 M0 0 C-22.42 0, -44.83 0, -100 0" stroke="#000000" stroke-width="1" fill="none"></path></g></g><mask></mask><g stroke-linecap="round"><g transform="translate(6 86) rotate(0 0 -10)"><path d="M0 0 C0 -6.58, 0 -13.17, 0 -20 M0 0 C0 -4.65, 0 -9.3, 0 -20" stroke="#000000" stroke-width="1" fill="none"></path></g></g><mask></mask></svg>