<svg version="1.1" xmlns="http://www.w3.org/2000/svg" viewBox="0 0 254.09397077286212 85.04827709812741" width="254.09397077286212" height="85.04827709812741">
  <!-- svg-source:excalidraw -->
  
  <defs>
    
    
  </defs>
  <g stroke-linecap="round"><g transform="translate(34.43941848588838 35.323563045952596) rotate(0 -14.219709242944191 19.41390185103836)" fill-rule="evenodd"><path d="M-25.71 16.08 C-25.71 16.08, -25.71 16.08, -25.71 16.08 M-25.71 16.08 C-25.71 16.08, -25.71 16.08, -25.71 16.08 M-27.94 24.74 C-22.86 18.9, -17.78 13.05, -14.16 8.89 M-27.94 24.74 C-22.5 18.49, -17.07 12.24, -14.16 8.89 M-26.89 29.63 C-21.5 23.43, -16.11 17.23, -3.92 3.21 M-26.89 29.63 C-20.48 22.26, -14.07 14.89, -3.92 3.21 M-25.18 33.76 C-18.44 26.01, -11.69 18.25, -0.25 5.08 M-25.18 33.76 C-15.83 23.01, -6.49 12.26, -0.25 5.08 M-22.16 36.39 C-17.62 31.17, -13.09 25.95, 0.15 10.73 M-22.16 36.39 C-15.7 28.96, -9.25 21.53, 0.15 10.73 M-18.48 38.26 C-12.15 30.97, -5.81 23.68, -0.11 17.13 M-18.48 38.26 C-13.42 32.43, -8.35 26.6, -0.11 17.13 M-14.15 39.37 C-10.62 35.31, -7.08 31.24, -0.38 23.52 M-14.15 39.37 C-9.79 34.35, -5.42 29.33, -0.38 23.52 M-7.85 38.22 C-5.58 35.61, -3.31 33, -0.64 29.92 M-7.85 38.22 C-5.62 35.65, -3.38 33.07, -0.64 29.92" stroke="#485aff" stroke-width="0.5" fill="none"></path><path d="M0 0 C-8.4 4.85, -16.81 9.7, -22.94 13.25 M0 0 C-4.81 2.78, -9.62 5.55, -22.94 13.25 M-22.94 13.25 C-23.69 14, -24.43 14.76, -25.55 15.9 M-22.94 13.25 C-23.89 14.21, -24.83 15.16, -25.55 15.9 M-25.55 15.9 C-26.02 16.72, -26.48 17.54, -27.45 19.26 M-25.55 15.9 C-26.12 16.91, -26.7 17.92, -27.45 19.26 M-27.45 19.26 C-27.73 20.37, -28 21.48, -28.44 23.24 M-27.45 19.26 C-27.69 20.23, -27.93 21.2, -28.44 23.24 M-28.44 23.24 C-28.32 24.7, -28.2 26.15, -28.08 27.64 M-28.44 23.24 C-28.36 24.25, -28.27 25.26, -28.08 27.64 M-28.08 27.64 C-27.59 28.86, -27.1 30.07, -26.47 31.63 M-28.08 27.64 C-27.73 28.49, -27.39 29.34, -26.47 31.63 M-26.47 31.63 C-25.92 32.37, -25.38 33.11, -24.23 34.67 M-26.47 31.63 C-25.93 32.36, -25.38 33.1, -24.23 34.67 M-24.23 34.67 C-23.07 35.52, -21.91 36.37, -21.23 36.87 M-24.23 34.67 C-23.19 35.43, -22.16 36.19, -21.23 36.87 M-21.23 36.87 C-19.81 37.44, -18.4 38, -17.07 38.52 M-21.23 36.87 C-19.92 37.39, -18.61 37.91, -17.07 38.52 M-17.07 38.52 C-15.43 38.63, -13.79 38.73, -12.3 38.83 M-17.07 38.52 C-15.2 38.64, -13.33 38.76, -12.3 38.83 M-12.3 38.83 C-11.42 38.55, -10.54 38.27, -8.45 37.6 M-12.3 38.83 C-11.33 38.52, -10.36 38.21, -8.45 37.6 M-8.45 37.6 C-7.5 36.98, -6.56 36.35, -5.21 35.45 M-8.45 37.6 C-7.52 36.99, -6.59 36.37, -5.21 35.45 M-5.21 35.45 C-4.61 34.84, -4.02 34.23, -2.88 33.06 M-5.21 35.45 C-4.3 34.52, -3.4 33.59, -2.88 33.06 M-2.88 33.06 C-2.26 32, -1.64 30.93, -1.05 29.93 M-2.88 33.06 C-2.44 32.31, -2 31.56, -1.05 29.93 M-1.05 29.93 C-0.86 29.19, -0.67 28.45, -0.2 26.56 M-1.05 29.93 C-0.8 28.96, -0.55 27.98, -0.2 26.56 M-0.2 26.56 C-0.14 18.66, -0.08 10.75, 0 0 M-0.2 26.56 C-0.15 20.04, -0.1 13.52, 0 0 M0 0 C0 0, 0 0, 0 0 M0 0 C0 0, 0 0, 0 0" stroke="#485aff" stroke-width="1" fill="none"></path></g></g><mask></mask><g stroke-linecap="round"><g transform="translate(27.449555058495207 47.26932264629738) rotate(0 -7.175413913555076 9.91860847787683)" fill-rule="evenodd"><path d="M0 0 L-11.98 6.92 L-13.4 8.51 L-14.44 10.95 L-14.5 13.64 L-13.79 16.29 L-11.9 18.49 L-9.1 19.78 L-5.57 19.84 L-2.76 18.55 L-1.05 16.45 L0.15 14.19 L0 0" stroke="none" stroke-width="0" fill="#ffffff" fill-rule="evenodd"></path><path d="M0 0 C-3.3 1.91, -6.6 3.81, -11.98 6.92 M0 0 C-4.43 2.56, -8.87 5.12, -11.98 6.92 M-11.98 6.92 C-12.33 7.31, -12.67 7.69, -13.4 8.51 M-11.98 6.92 C-12.29 7.26, -12.59 7.61, -13.4 8.51 M-13.4 8.51 C-13.63 9.05, -13.86 9.59, -14.44 10.95 M-13.4 8.51 C-13.67 9.16, -13.95 9.81, -14.44 10.95 M-14.44 10.95 C-14.45 11.49, -14.46 12.04, -14.5 13.64 M-14.44 10.95 C-14.46 11.63, -14.47 12.31, -14.5 13.64 M-14.5 13.64 C-14.3 14.4, -14.09 15.16, -13.79 16.29 M-14.5 13.64 C-14.35 14.21, -14.2 14.78, -13.79 16.29 M-13.79 16.29 C-13.09 17.11, -12.39 17.93, -11.9 18.49 M-13.79 16.29 C-13.06 17.14, -12.33 17.99, -11.9 18.49 M-11.9 18.49 C-11.05 18.88, -10.21 19.27, -9.1 19.78 M-11.9 18.49 C-10.86 18.97, -9.82 19.45, -9.1 19.78 M-9.1 19.78 C-7.89 19.8, -6.68 19.82, -5.57 19.84 M-9.1 19.78 C-8.24 19.79, -7.38 19.81, -5.57 19.84 M-5.57 19.84 C-4.6 19.39, -3.64 18.95, -2.76 18.55 M-5.57 19.84 C-4.68 19.43, -3.78 19.02, -2.76 18.55 M-2.76 18.55 C-2.41 18.12, -2.06 17.69, -1.05 16.45 M-2.76 18.55 C-2.35 18.04, -1.94 17.54, -1.05 16.45 M-1.05 16.45 C-0.77 15.91, -0.48 15.38, 0.15 14.19 M-1.05 16.45 C-0.61 15.61, -0.16 14.78, 0.15 14.19 M0.15 14.19 C0.11 10.82, 0.08 7.45, 0 0 M0.15 14.19 C0.11 10.44, 0.07 6.69, 0 0 M0 0 C0 0, 0 0, 0 0 M0 0 C0 0, 0 0, 0 0" stroke="#485aff" stroke-width="1" fill="none"></path></g></g><mask></mask><g stroke-linecap="round"><g transform="translate(62.041064627200285 3.3009348120298228) rotate(119.99999999999997 -14.219709242944191 19.41390185103836)" fill-rule="evenodd"><path d="M-25.71 16.08 C-25.71 16.08, -25.71 16.08, -25.71 16.08 M-25.71 16.08 C-25.71 16.08, -25.71 16.08, -25.71 16.08 M-27.94 24.74 C-24.43 20.7, -20.92 16.67, -14.16 8.89 M-27.94 24.74 C-24.41 20.69, -20.89 16.64, -14.16 8.89 M-26.89 29.63 C-20.92 22.77, -14.96 15.91, -3.92 3.21 M-26.89 29.63 C-17.79 19.17, -8.7 8.72, -3.92 3.21 M-25.18 33.76 C-15.54 22.67, -5.9 11.58, -0.25 5.08 M-25.18 33.76 C-16.47 23.74, -7.76 13.72, -0.25 5.08 M-22.16 36.39 C-14.77 27.88, -7.37 19.38, 0.15 10.73 M-22.16 36.39 C-13.68 26.63, -5.19 16.87, 0.15 10.73 M-18.48 38.26 C-12.91 31.84, -7.33 25.42, -0.11 17.13 M-18.48 38.26 C-14.19 33.32, -9.9 28.38, -0.11 17.13 M-14.15 39.37 C-9.85 34.42, -5.55 29.48, -0.38 23.52 M-14.15 39.37 C-10.01 34.6, -5.86 29.83, -0.38 23.52 M-7.85 38.22 C-5.34 35.33, -2.82 32.43, -0.64 29.92 M-7.85 38.22 C-5.79 35.85, -3.72 33.47, -0.64 29.92" stroke="#485aff" stroke-width="0.5" fill="none"></path><path d="M0 0 C-7.37 4.25, -14.73 8.51, -22.94 13.25 M0 0 C-5.11 2.95, -10.23 5.9, -22.94 13.25 M-22.94 13.25 C-23.68 14, -24.43 14.76, -25.55 15.9 M-22.94 13.25 C-23.61 13.92, -24.27 14.6, -25.55 15.9 M-25.55 15.9 C-26.16 16.97, -26.76 18.03, -27.45 19.26 M-25.55 15.9 C-26.08 16.84, -26.61 17.77, -27.45 19.26 M-27.45 19.26 C-27.73 20.4, -28.02 21.53, -28.44 23.24 M-27.45 19.26 C-27.67 20.14, -27.89 21.02, -28.44 23.24 M-28.44 23.24 C-28.31 24.77, -28.19 26.31, -28.08 27.64 M-28.44 23.24 C-28.36 24.17, -28.29 25.11, -28.08 27.64 M-28.08 27.64 C-27.68 28.63, -27.28 29.62, -26.47 31.63 M-28.08 27.64 C-27.52 29.02, -26.97 30.4, -26.47 31.63 M-26.47 31.63 C-25.82 32.51, -25.17 33.4, -24.23 34.67 M-26.47 31.63 C-25.69 32.68, -24.92 33.73, -24.23 34.67 M-24.23 34.67 C-23.54 35.18, -22.86 35.68, -21.23 36.87 M-24.23 34.67 C-23.23 35.41, -22.23 36.14, -21.23 36.87 M-21.23 36.87 C-20.19 37.29, -19.15 37.7, -17.07 38.52 M-21.23 36.87 C-20.01 37.36, -18.79 37.84, -17.07 38.52 M-17.07 38.52 C-15.84 38.6, -14.61 38.68, -12.3 38.83 M-17.07 38.52 C-15.95 38.59, -14.82 38.67, -12.3 38.83 M-12.3 38.83 C-11.3 38.51, -10.3 38.19, -8.45 37.6 M-12.3 38.83 C-11.27 38.5, -10.25 38.18, -8.45 37.6 M-8.45 37.6 C-7.64 37.07, -6.84 36.53, -5.21 35.45 M-8.45 37.6 C-7.32 36.85, -6.19 36.11, -5.21 35.45 M-5.21 35.45 C-4.31 34.53, -3.41 33.61, -2.88 33.06 M-5.21 35.45 C-4.35 34.57, -3.49 33.69, -2.88 33.06 M-2.88 33.06 C-2.35 32.15, -1.81 31.24, -1.05 29.93 M-2.88 33.06 C-2.32 32.09, -1.75 31.12, -1.05 29.93 M-1.05 29.93 C-0.86 29.18, -0.67 28.43, -0.2 26.56 M-1.05 29.93 C-0.79 28.91, -0.53 27.88, -0.2 26.56 M-0.2 26.56 C-0.13 16.98, -0.05 7.39, 0 0 M-0.2 26.56 C-0.15 20.97, -0.11 15.37, 0 0 M0 0 C0 0, 0 0, 0 0 M0 0 C0 0, 0 0, 0 0" stroke="#485aff" stroke-width="1" fill="none"></path></g></g><mask></mask><g stroke-linecap="round"><g transform="translate(52.8473873429557 11.618134481505422) rotate(119.99999999999997 -7.175413913555076 9.91860847787683)" fill-rule="evenodd"><path d="M0 0 L-11.98 6.92 L-13.4 8.51 L-14.44 10.95 L-14.5 13.64 L-13.79 16.29 L-11.9 18.49 L-9.1 19.78 L-5.57 19.84 L-2.76 18.55 L-1.05 16.45 L0.15 14.19 L0 0" stroke="none" stroke-width="0" fill="#ffffff" fill-rule="evenodd"></path><path d="M0 0 C-3.94 2.28, -7.89 4.56, -11.98 6.92 M0 0 C-3.67 2.12, -7.35 4.24, -11.98 6.92 M-11.98 6.92 C-12.46 7.45, -12.93 7.98, -13.4 8.51 M-11.98 6.92 C-12.35 7.33, -12.71 7.74, -13.4 8.51 M-13.4 8.51 C-13.73 9.3, -14.07 10.09, -14.44 10.95 M-13.4 8.51 C-13.8 9.46, -14.21 10.41, -14.44 10.95 M-14.44 10.95 C-14.45 11.57, -14.47 12.19, -14.5 13.64 M-14.44 10.95 C-14.46 11.63, -14.47 12.31, -14.5 13.64 M-14.5 13.64 C-14.34 14.23, -14.18 14.82, -13.79 16.29 M-14.5 13.64 C-14.35 14.2, -14.2 14.76, -13.79 16.29 M-13.79 16.29 C-13.24 16.93, -12.69 17.57, -11.9 18.49 M-13.79 16.29 C-13.22 16.95, -12.65 17.62, -11.9 18.49 M-11.9 18.49 C-10.97 18.92, -10.05 19.34, -9.1 19.78 M-11.9 18.49 C-11.33 18.75, -10.77 19.01, -9.1 19.78 M-9.1 19.78 C-7.96 19.8, -6.82 19.82, -5.57 19.84 M-9.1 19.78 C-8.06 19.8, -7.02 19.81, -5.57 19.84 M-5.57 19.84 C-4.93 19.54, -4.28 19.25, -2.76 18.55 M-5.57 19.84 C-4.92 19.54, -4.26 19.23, -2.76 18.55 M-2.76 18.55 C-2.14 17.78, -1.52 17.02, -1.05 16.45 M-2.76 18.55 C-2.4 18.1, -2.03 17.65, -1.05 16.45 M-1.05 16.45 C-0.71 15.8, -0.36 15.16, 0.15 14.19 M-1.05 16.45 C-0.66 15.71, -0.26 14.97, 0.15 14.19 M0.15 14.19 C0.09 8.81, 0.04 3.43, 0 0 M0.15 14.19 C0.11 10.8, 0.08 7.41, 0 0 M0 0 C0 0, 0 0, 0 0 M0 0 C0 0, 0 0, 0 0" stroke="#485aff" stroke-width="1" fill="none"></path></g></g><mask></mask><g stroke-linecap="round"><g transform="translate(76.04014618630208 42.967530523914775) rotate(239.8283339083427 -14.219709242944191 19.41390185103836)" fill-rule="evenodd"><path d="M-25.71 16.08 C-25.71 16.08, -25.71 16.08, -25.71 16.08 M-25.71 16.08 C-25.71 16.08, -25.71 16.08, -25.71 16.08 M-27.94 24.74 C-24.61 20.92, -21.28 17.09, -14.16 8.89 M-27.94 24.74 C-24.11 20.34, -20.28 15.93, -14.16 8.89 M-26.89 29.63 C-20.39 22.16, -13.9 14.69, -3.92 3.21 M-26.89 29.63 C-20.94 22.8, -15 15.96, -3.92 3.21 M-25.18 33.76 C-16.65 23.95, -8.11 14.13, -0.25 5.08 M-25.18 33.76 C-18.28 25.83, -11.38 17.89, -0.25 5.08 M-22.16 36.39 C-15.24 28.43, -8.33 20.47, 0.15 10.73 M-22.16 36.39 C-13.63 26.57, -5.1 16.76, 0.15 10.73 M-18.48 38.26 C-12.45 31.31, -6.41 24.36, -0.11 17.13 M-18.48 38.26 C-11.69 30.45, -4.9 22.63, -0.11 17.13 M-14.15 39.37 C-10.34 34.99, -6.53 30.6, -0.38 23.52 M-14.15 39.37 C-9.45 33.96, -4.75 28.55, -0.38 23.52 M-7.85 38.22 C-5.31 35.29, -2.76 32.36, -0.64 29.92 M-7.85 38.22 C-5.15 35.11, -2.44 32, -0.64 29.92" stroke="#485aff" stroke-width="0.5" fill="none"></path><path d="M0 0 C-8.37 4.83, -16.74 9.66, -22.94 13.25 M0 0 C-5.64 3.26, -11.29 6.52, -22.94 13.25 M-22.94 13.25 C-23.52 13.83, -24.1 14.42, -25.55 15.9 M-22.94 13.25 C-23.73 14.05, -24.51 14.85, -25.55 15.9 M-25.55 15.9 C-26.02 16.73, -26.49 17.56, -27.45 19.26 M-25.55 15.9 C-26.13 16.93, -26.71 17.95, -27.45 19.26 M-27.45 19.26 C-27.68 20.17, -27.9 21.07, -28.44 23.24 M-27.45 19.26 C-27.7 20.24, -27.94 21.22, -28.44 23.24 M-28.44 23.24 C-28.3 24.91, -28.16 26.59, -28.08 27.64 M-28.44 23.24 C-28.3 24.91, -28.16 26.58, -28.08 27.64 M-28.08 27.64 C-27.69 28.61, -27.3 29.57, -26.47 31.63 M-28.08 27.64 C-27.46 29.17, -26.84 30.7, -26.47 31.63 M-26.47 31.63 C-25.91 32.39, -25.35 33.15, -24.23 34.67 M-26.47 31.63 C-25.95 32.33, -25.43 33.04, -24.23 34.67 M-24.23 34.67 C-23.54 35.18, -22.86 35.68, -21.23 36.87 M-24.23 34.67 C-23.16 35.46, -22.08 36.25, -21.23 36.87 M-21.23 36.87 C-19.69 37.49, -18.14 38.1, -17.07 38.52 M-21.23 36.87 C-19.91 37.4, -18.59 37.92, -17.07 38.52 M-17.07 38.52 C-15.5 38.62, -13.93 38.72, -12.3 38.83 M-17.07 38.52 C-15.35 38.63, -13.64 38.74, -12.3 38.83 M-12.3 38.83 C-10.8 38.35, -9.3 37.87, -8.45 37.6 M-12.3 38.83 C-11.19 38.47, -10.08 38.12, -8.45 37.6 M-8.45 37.6 C-7.27 36.82, -6.09 36.04, -5.21 35.45 M-8.45 37.6 C-7.71 37.11, -6.97 36.63, -5.21 35.45 M-5.21 35.45 C-4.33 34.56, -3.46 33.66, -2.88 33.06 M-5.21 35.45 C-4.53 34.76, -3.86 34.07, -2.88 33.06 M-2.88 33.06 C-2.27 32.01, -1.65 30.96, -1.05 29.93 M-2.88 33.06 C-2.26 32, -1.63 30.93, -1.05 29.93 M-1.05 29.93 C-0.76 28.8, -0.48 27.67, -0.2 26.56 M-1.05 29.93 C-0.82 29.04, -0.6 28.15, -0.2 26.56 M-0.2 26.56 C-0.13 17.9, -0.07 9.23, 0 0 M-0.2 26.56 C-0.13 17.84, -0.07 9.12, 0 0 M0 0 C0 0, 0 0, 0 0 M0 0 C0 0, 0 0, 0 0" stroke="#485aff" stroke-width="1" fill="none"></path></g></g><mask></mask><g stroke-linecap="round"><g transform="translate(71.0869793081365 51.18418033337366) rotate(239.8283339083427 -7.175413913555076 9.91860847787683)" fill-rule="evenodd"><path d="M0 0 L-11.98 6.92 L-13.4 8.51 L-14.44 10.95 L-14.5 13.64 L-13.79 16.29 L-11.9 18.49 L-9.1 19.78 L-5.57 19.84 L-2.76 18.55 L-1.05 16.45 L0.15 14.19 L0 0" stroke="none" stroke-width="0" fill="#ffffff" fill-rule="evenodd"></path><path d="M0 0 C-2.86 1.65, -5.71 3.3, -11.98 6.92 M0 0 C-4.2 2.43, -8.4 4.85, -11.98 6.92 M-11.98 6.92 C-12.49 7.49, -13 8.06, -13.4 8.51 M-11.98 6.92 C-12.52 7.53, -13.06 8.14, -13.4 8.51 M-13.4 8.51 C-13.81 9.48, -14.22 10.44, -14.44 10.95 M-13.4 8.51 C-13.69 9.21, -13.99 9.91, -14.44 10.95 M-14.44 10.95 C-14.46 11.93, -14.48 12.92, -14.5 13.64 M-14.44 10.95 C-14.46 11.8, -14.48 12.65, -14.5 13.64 M-14.5 13.64 C-14.32 14.32, -14.14 14.99, -13.79 16.29 M-14.5 13.64 C-14.22 14.68, -13.94 15.72, -13.79 16.29 M-13.79 16.29 C-13.38 16.76, -12.98 17.23, -11.9 18.49 M-13.79 16.29 C-13.08 17.12, -12.36 17.95, -11.9 18.49 M-11.9 18.49 C-11.25 18.79, -10.6 19.09, -9.1 19.78 M-11.9 18.49 C-11.24 18.8, -10.58 19.1, -9.1 19.78 M-9.1 19.78 C-7.96 19.8, -6.82 19.82, -5.57 19.84 M-9.1 19.78 C-8.04 19.8, -6.99 19.81, -5.57 19.84 M-5.57 19.84 C-4.96 19.56, -4.35 19.28, -2.76 18.55 M-5.57 19.84 C-4.92 19.54, -4.27 19.24, -2.76 18.55 M-2.76 18.55 C-2.18 17.84, -1.6 17.13, -1.05 16.45 M-2.76 18.55 C-2.24 17.91, -1.72 17.27, -1.05 16.45 M-1.05 16.45 C-0.7 15.8, -0.36 15.15, 0.15 14.19 M-1.05 16.45 C-0.64 15.67, -0.23 14.9, 0.15 14.19 M0.15 14.19 C0.12 10.86, 0.08 7.52, 0 0 M0.15 14.19 C0.12 11.18, 0.09 8.18, 0 0 M0 0 C0 0, 0 0, 0 0 M0 0 C0 0, 0 0, 0 0" stroke="#485aff" stroke-width="1" fill="none"></path></g></g><mask></mask><g transform="translate(94.27376508438556 8.40210451932694) rotate(0 76.91010284423828 35.32308628940024)"><text x="76.91010284423828" y="0" font-family="Virgil, Segoe UI Emoji" font-size="56.51693806304035px" fill="#000000" text-anchor="middle" style="white-space: pre;" direction="ltr" dominant-baseline="text-before-edge">CORE</text></g></svg>