<svg xmlns="http://www.w3.org/2000/svg" viewBox="4379.91 1370.11 367.80 82.67" width="368" height="83"><polyline points="4421.31,1376.11 4407.30,1400.46 4395.15,1420.72 4393.41,1427.30 4405.52,1424.05 4416.86,1423.74 4427.29,1426.49 4422.93,1421.63 4414.17,1417.36 4411.03,1416.14 4412.80,1412.85 4420.82,1399.39 4423.73,1396.15 4427.07,1401.64 4436.72,1417.99 4445.61,1433.96 4438.02,1436.64 4428.95,1434.66 4416.53,1428.62 4401.38,1428.94 4390.42,1436.10 4385.91,1442.82 4393.37,1439.83 4403.01,1437.22 4413.36,1437.61 4419.72,1440.26 4432.39,1445.77 4445.22,1446.78 4455.94,1442.39 4459.36,1436.49 4453.32,1423.91 4442.09,1405.25 4425.99,1377.98 4421.31,1376.11" fill="none" stroke="#00add4" stroke-width="1" opacity="1.0" stroke-linecap="round" stroke-linejoin="round"/><text x="4467.71" y="1428.15" font-size="41.80224945024997" fill="#2e2726" opacity="1.0" font-family="sans-serif">DELTA LAKE</text></svg>