<svg xmlns="http://www.w3.org/2000/svg" viewBox="5961.83 574.32 194.01 297.46" width="194" height="297"><polyline points="6060.52,785.00 6105.18,785.00 6105.18,736.07 6092.16,715.74 6062.74,704.23 6028.58,717.09 6017.04,738.28 6015.86,785.00 6060.52,785.00" fill="#fa5252" stroke="#000000" stroke-width="2" opacity="1.0" stroke-linecap="round" stroke-linejoin="round"/><rect x="6000.25" y="738.19" width="120.00" height="80.00" rx="0" stroke="#000000" stroke-width="2" opacity="1.0" fill="#ced4da"/><ellipse cx="6060.25" cy="778.19" rx="6.66" ry="6.66" stroke="#000000" stroke-width="2" opacity="1.0" fill="#ffffff"/><polyline points="5999.84,811.49 5991.70,814.64 6002.60,819.89 6117.16,822.23 6128.14,815.90 6119.52,810.02 5999.84,811.49" fill="#ced4da" stroke="#000000" stroke-width="2" opacity="1.0" stroke-linecap="round" stroke-linejoin="round"/><ellipse cx="6060.97" cy="670.85" rx="40.00" ry="40.00" stroke="#000000" stroke-width="2" opacity="1.0" fill="#ffffff"/><polyline points="6033.74,669.37 6036.57,662.51 6043.34,658.18 6048.36,661.97 6051.14,668.00" fill="#ffffff" stroke="#000000" stroke-width="2" opacity="1.0" stroke-linecap="round" stroke-linejoin="round" transform="rotate(356.86 6042.44 674.96)"/><polyline points="6067.61,669.67 6070.44,662.81 6077.21,658.48 6082.23,662.27 6085.01,668.30" fill="#ffffff" stroke="#000000" stroke-width="2" opacity="1.0" stroke-linecap="round" stroke-linejoin="round" transform="rotate(356.86 6076.31 675.26)"/><polyline points="6042.08,686.01 6057.80,692.36 6075.06,687.93" fill="#ffffff" stroke="#000000" stroke-width="2" opacity="1.0" stroke-linecap="round" stroke-linejoin="round"/><polyline points="6059.43,627.66 6045.52,621.21" fill="#ffffff" stroke="#000000" stroke-width="2" opacity="1.0" stroke-linecap="round" stroke-linejoin="round"/><polyline points="6062.21,626.77 6072.27,624.48 6086.77,624.39" fill="#ffffff" stroke="#000000" stroke-width="2" opacity="1.0" stroke-linecap="round" stroke-linejoin="round"/><polyline points="6057.22,629.19 6041.86,628.14 6031.01,630.26" fill="#ffffff" stroke="#000000" stroke-width="2" opacity="1.0" stroke-linecap="round" stroke-linejoin="round"/><polyline points="5998.17,633.60 5987.80,625.06 5989.00,608.79 6000.55,606.30 6010.04,612.40 6010.47,628.43 5998.17,633.60" fill="#fad905" stroke="#fab005" stroke-width="2" opacity="1.0" stroke-linecap="round" stroke-linejoin="round"/><polyline points="6003.87,637.26 6015.70,631.83" fill="#fad905" stroke="#fab005" stroke-width="2" opacity="1.0" stroke-linecap="round" stroke-linejoin="round"/><polyline points="6007.80,640.55 6015.41,636.66" fill="#fad905" stroke="#fab005" stroke-width="2" opacity="1.0" stroke-linecap="round" stroke-linejoin="round"/><polyline points="6010.80,644.16 6018.41,640.27" fill="#fad905" stroke="#fab005" stroke-width="2" opacity="1.0" stroke-linecap="round" stroke-linejoin="round"/><polyline points="5992.06,599.89 5996.44,580.32" fill="#fad905" stroke="#fab005" stroke-width="2" opacity="1.0" stroke-linecap="round" stroke-linejoin="round"/><polyline points="6009.84,605.70 6014.22,586.13" fill="#fad905" stroke="#fab005" stroke-width="2" opacity="1.0" stroke-linecap="round" stroke-linejoin="round" transform="rotate(20.41 6012.03 615.49)"/><polyline points="6024.08,617.98 6028.46,598.41" fill="#fad905" stroke="#fab005" stroke-width="2" opacity="1.0" stroke-linecap="round" stroke-linejoin="round" transform="rotate(75.03 6026.27 627.76)"/><polyline points="5983.99,649.13 5988.37,629.56" fill="#fad905" stroke="#fab005" stroke-width="2" opacity="1.0" stroke-linecap="round" stroke-linejoin="round" transform="rotate(20.41 5986.18 658.91)"/><polyline points="5968.68,631.35 5973.07,611.78" fill="#fad905" stroke="#fab005" stroke-width="2" opacity="1.0" stroke-linecap="round" stroke-linejoin="round" transform="rotate(66.91 5970.87 641.13)"/><polyline points="5967.83,614.42 5972.21,594.85" fill="#fad905" stroke="#fab005" stroke-width="2" opacity="1.0" stroke-linecap="round" stroke-linejoin="round" transform="rotate(96.23 5970.02 624.20)"/></svg>