<svg version="1.1" xmlns="http://www.w3.org/2000/svg" viewBox="0 0 52 52" width="52" height="52">
  <!-- svg-source:excalidraw -->
  
  <defs>
    
    
  </defs>
  <g stroke-linecap="round"><g transform="translate(26 6) rotate(0 0 20)" fill-rule="evenodd"><path d="M0 0 L-20 40 L20 40 L0 0" stroke="none" stroke-width="0" fill="#fff" fill-rule="evenodd"></path><path d="M0 0 C-6.09 12.18, -12.18 24.35, -20 40 M0 0 C-5.85 11.71, -11.71 23.41, -20 40 M-20 40 C-6.91 40, 6.18 40, 20 40 M-20 40 C-7.93 40, 4.15 40, 20 40 M20 40 C13.56 27.12, 7.12 14.24, 0 0 M20 40 C15.94 31.88, 11.88 23.76, 0 0 M0 0 C0 0, 0 0, 0 0 M0 0 C0 0, 0 0, 0 0" stroke="#000000" stroke-width="1" fill="none"></path></g></g><mask></mask><g stroke-linecap="round" transform="translate(6 6) rotate(0 20 20)"><path d="M0 0 C14.93 0, 29.87 0, 40 0 M0 0 C11.45 0, 22.89 0, 40 0 M40 0 C40 14.84, 40 29.68, 40 40 M40 0 C40 9.92, 40 19.83, 40 40 M40 40 C29.07 40, 18.14 40, 0 40 M40 40 C28.37 40, 16.73 40, 0 40 M0 40 C0 28.41, 0 16.82, 0 0 M0 40 C0 27.76, 0 15.52, 0 0" stroke="transparent" stroke-width="1" fill="none"></path></g></svg>