<svg xmlns="http://www.w3.org/2000/svg" viewBox="6214.00 1534.00 252.00 252.00" width="252" height="252"><rect x="6240.00" y="1560.00" width="220.00" height="220.00" rx="0" stroke="#000000" stroke-width="1" opacity="1.0" fill="#ffffff"/><text x="6292.00" y="1600.00" font-size="20" fill="#000000" opacity="1.0" font-family="sans-serif">Oracle OEM
Console</text><rect x="6220.00" y="1540.00" width="100.00" height="40.00" rx="0" stroke="#000000" stroke-width="1" opacity="1.0" fill="#ededed"/><text x="6250.00" y="1567.50" font-size="20" fill="#000000" opacity="1.0" font-family="sans-serif">oem1</text><rect x="6263.16" y="1720.00" width="173.68" height="46.32" rx="0" stroke="#000000" stroke-width="1" opacity="1.0" fill="#ced4da"/><rect x="6271.58" y="1731.58" width="46.32" height="11.58" rx="0" stroke="#000000" stroke-width="1" opacity="1.0" fill="#868e96"/><ellipse cx="6407.05" cy="1753.58" rx="5.79" ry="5.79" stroke="#000000" stroke-width="1" opacity="1.0" fill="#fa5252"/><ellipse cx="6422.11" cy="1753.58" rx="5.79" ry="5.79" stroke="#000000" stroke-width="1" opacity="1.0" fill="#40c057"/><rect x="6271.58" y="1743.16" width="46.32" height="11.58" rx="0" stroke="#000000" stroke-width="1" opacity="1.0" fill="#868e96"/><text x="6395.47" y="1728.23" font-size="4.178868223189545" fill="#000000" opacity="1.0" font-family="sans-serif">Very fast Server</text><rect x="6329.47" y="1731.58" width="46.32" height="24.70" rx="0" stroke="#000000" stroke-width="1" opacity="1.0" fill="#868e96"/><polyline points="6333.47,1734.13 6373.66,1734.13" fill="none" stroke="#000000" stroke-width="1" opacity="1.0" stroke-linecap="round" stroke-linejoin="round"/><polyline points="6333.26,1737.12 6373.46,1737.12" fill="none" stroke="#000000" stroke-width="1" opacity="1.0" stroke-linecap="round" stroke-linejoin="round"/><polyline points="6333.58,1740.45 6373.77,1740.45" fill="none" stroke="#000000" stroke-width="1" opacity="1.0" stroke-linecap="round" stroke-linejoin="round"/><polyline points="6332.25,1743.48 6372.44,1743.48" fill="none" stroke="#000000" stroke-width="1" opacity="1.0" stroke-linecap="round" stroke-linejoin="round"/><polyline points="6334.05,1746.38 6374.25,1746.38" fill="none" stroke="#000000" stroke-width="1" opacity="1.0" stroke-linecap="round" stroke-linejoin="round"/><polyline points="6332.81,1748.66 6373.00,1748.66" fill="none" stroke="#000000" stroke-width="1" opacity="1.0" stroke-linecap="round" stroke-linejoin="round"/><polyline points="6331.93,1752.64 6372.12,1752.64" fill="none" stroke="#000000" stroke-width="1" opacity="1.0" stroke-linecap="round" stroke-linejoin="round"/><rect x="6288.36" y="1640.00" width="125.40" height="75.05" rx="0" stroke="#000000" stroke-width="1" opacity="1.0" fill="none"/><polyline points="6287.32,1650.50 6413.66,1650.50" fill="none" stroke="#000000" stroke-width="1" opacity="1.0" stroke-linecap="round" stroke-linejoin="round"/><ellipse cx="6295.21" cy="1646.64" rx="2.45" ry="2.45" stroke="#000000" stroke-width="1" opacity="1.0" fill="#fa5252"/><ellipse cx="6305.28" cy="1646.64" rx="2.45" ry="2.45" stroke="#000000" stroke-width="1" opacity="1.0" fill="#fab005"/><ellipse cx="6315.78" cy="1647.08" rx="2.45" ry="2.45" stroke="#000000" stroke-width="1" opacity="1.0" fill="#40c057"/><ellipse cx="6349.99" cy="1681.32" rx="20.94" ry="20.94" stroke="#000000" stroke-width="1" opacity="0.9" fill="#04aaf7"/><polyline points="6355.60,1676.28 6353.80,1675.87 6348.17,1670.13 6344.46,1672.02 6343.23,1678.61 6344.55,1682.89 6338.51,1684.99 6338.73,1689.66 6343.46,1689.37 6347.07,1685.57 6352.05,1693.80 6355.19,1694.10 6351.89,1680.99 6356.96,1680.54 6358.70,1682.03 6364.65,1682.03 6366.19,1676.90 6359.74,1677.37 6360.98,1670.63 6358.02,1671.04 6355.36,1675.37 6355.60,1676.28" fill="none" stroke="#087f5b" stroke-width="1" opacity="1.0" stroke-linecap="round" stroke-linejoin="round"/><polyline points="6330.10,1680.89 6371.38,1680.89" fill="none" stroke="#000000" stroke-width="1" opacity="0.9" stroke-linecap="round" stroke-linejoin="round"/><polyline points="6335.08,1665.79 6335.84,1668.02 6339.10,1669.90 6343.45,1671.03 6350.26,1671.13 6358.20,1670.41 6362.85,1667.78 6363.83,1665.53" fill="none" stroke="#000000" stroke-width="1" opacity="0.9" stroke-linecap="round" stroke-linejoin="round"/><ellipse cx="6350.61" cy="1680.99" rx="7.61" ry="21.98" stroke="#000000" stroke-width="1" opacity="0.9" fill="none"/><polyline points="6336.57,1696.91 6340.59,1692.67 6344.94,1691.50 6351.75,1691.40 6359.69,1692.14 6364.33,1694.85 6365.31,1697.18" fill="none" stroke="#000000" stroke-width="1" opacity="0.9" stroke-linecap="round" stroke-linejoin="round"/></svg>