<svg version="1.1" xmlns="http://www.w3.org/2000/svg" viewBox="0 0 132.49648094110887 100.23967962722804" width="132.49648094110887" height="100.23967962722804">
  <!-- svg-source:excalidraw -->
  
  <defs>
    
    
  </defs>
  <g stroke-linecap="round" transform="translate(6 6) rotate(0 60.248240470554435 44.11983981361402)"><path d="M22.06 0 C45.18 3.12, 68.21 -1.84, 98.44 0 C109.94 -1.49, 122.41 8.24, 120.5 22.06 C120.45 34.75, 118.05 52.98, 120.5 66.18 C117.12 77.77, 113.59 85.16, 98.44 88.24 C72.8 86.14, 49.75 86.85, 22.06 88.24 C5.94 91.65, -0.44 78.19, 0 66.18 C2.04 52.73, -2.93 42.97, 0 22.06 C3.04 10.02, 5.01 1.27, 22.06 0" stroke="none" stroke-width="0" fill="#eeeeee"></path><path d="M22.06 0 C41.7 -1.04, 63.76 1.12, 98.44 0 M22.06 0 C41.3 0.04, 61.14 -0.6, 98.44 0 M98.44 0 C112.67 0.72, 121.53 6.93, 120.5 22.06 M98.44 0 C115.27 2.29, 121.38 6.2, 120.5 22.06 M120.5 22.06 C121.09 33.76, 118.46 44.9, 120.5 66.18 M120.5 22.06 C119.97 33.65, 121.01 42.95, 120.5 66.18 M120.5 66.18 C120.12 81.95, 112.8 89.04, 98.44 88.24 M120.5 66.18 C122.12 79.16, 112.38 89.71, 98.44 88.24 M98.44 88.24 C84.25 85.96, 67.38 89.34, 22.06 88.24 M98.44 88.24 C69.4 87.63, 38.83 88.62, 22.06 88.24 M22.06 88.24 C6.83 88.12, -1.68 79.66, 0 66.18 M22.06 88.24 C5.77 88.96, 1.29 82, 0 66.18 M0 66.18 C-1.42 55.61, 0.76 43.45, 0 22.06 M0 66.18 C-0.86 54.64, 0.59 45.72, 0 22.06 M0 22.06 C0.89 8.79, 6.24 1.68, 22.06 0 M0 22.06 C-1.26 9.6, 8.15 0.58, 22.06 0" stroke="#000000" stroke-width="1" fill="none"></path></g><g stroke-linecap="round" transform="translate(13.730968909940657 12.931213505461756) rotate(0 12.52950133679667 4.9318249942710395)"><path d="M-0.95 0.46 L25.69 0.37 L24.27 10.52 L-0.09 9.07" stroke="none" stroke-width="0" fill="#868e96"></path><path d="M0 0 C7.89 0.59, 15.05 -0.54, 25.06 0 M0 0 C6.8 0.32, 12.27 -0.29, 25.06 0 M25.06 0 C25.03 2.95, 25.1 5.95, 25.06 9.86 M25.06 0 C25.06 2.12, 24.83 4.56, 25.06 9.86 M25.06 9.86 C19.71 10.27, 13.21 9.41, 0 9.86 M25.06 9.86 C17.27 9.62, 8.78 10.17, 0 9.86 M0 9.86 C0.02 7.5, -0.37 5.91, 0 0 M0 9.86 C0.14 5.88, 0.12 2.22, 0 0" stroke="#000000" stroke-width="1" fill="none"></path></g><g stroke-linecap="round" transform="translate(53.61210507982628 12.521684178200758) rotate(0 33.056556718357285 5.33170269650924)"><path d="M2.67 0 C18.8 -0.71, 33.68 1.6, 63.45 0 C63.39 0.14, 65.61 2.55, 66.11 2.67 C65.65 3.86, 66.3 5.38, 66.11 8 C63.95 11.43, 65.61 8.59, 63.45 10.66 C50.28 13.05, 35.76 9.03, 2.67 10.66 C-1.18 10.86, 2.53 7.64, 0 8 C-0.68 7.25, -0.32 6.47, 0 2.67 C-2.56 -0.88, -1.59 -1.89, 2.67 0" stroke="none" stroke-width="0" fill="#ced4da"></path><path d="M2.67 0 C19.05 -0.73, 34.85 -0.41, 63.45 0 M2.67 0 C26.89 0.2, 51.21 -0.6, 63.45 0 M63.45 0 C65.65 0.36, 65.78 0.17, 66.11 2.67 M63.45 0 C65.1 -0.75, 66.67 1.44, 66.11 2.67 M66.11 2.67 C66.09 4.49, 66.26 6.56, 66.11 8 M66.11 2.67 C66.09 4.64, 66.23 6.64, 66.11 8 M66.11 8 C66.36 9.47, 65.04 10.7, 63.45 10.66 M66.11 8 C67.21 10.71, 64.28 9.67, 63.45 10.66 M63.45 10.66 C49.93 10.99, 37.08 10.73, 2.67 10.66 M63.45 10.66 C47.87 10.67, 31.52 10.52, 2.67 10.66 M2.67 10.66 C0.35 11.37, 0.42 8.95, 0 8 M2.67 10.66 C1.99 11.11, -1.05 9.57, 0 8 M0 8 C-0.22 6.46, 0.09 4.93, 0 2.67 M0 8 C0 6.25, 0.11 4.77, 0 2.67 M0 2.67 C0.97 1.24, 0.88 -0.48, 2.67 0 M0 2.67 C0.92 1.46, 0.04 -0.84, 2.67 0" stroke="#000000" stroke-width="1" fill="none"></path></g><g stroke-linecap="round"><g transform="translate(40.35096312632595 18.27232261984784) rotate(0 7.055322257685987 -0.06433462870018047)"><path d="M-0.1 0.45 C2.35 0.51, 12.12 0.37, 14.48 0.25 M-0.81 0.21 C1.61 0.13, 11.82 -0.53, 14.24 -0.53" stroke="#000000" stroke-width="1" fill="none"></path></g><g transform="translate(40.35096312632595 18.27232261984784) rotate(0 7.055322257685987 -0.06433462870018047)"><path d="M7.7 2.13 C9.73 1.67, 11.41 0.7, 14.24 -0.53 M7.7 2.13 C9.34 1.45, 11.33 0.66, 14.24 -0.53" stroke="#000000" stroke-width="1" fill="none"></path></g><g transform="translate(40.35096312632595 18.27232261984784) rotate(0 7.055322257685987 -0.06433462870018047)"><path d="M7.53 -2.7 C9.6 -1.88, 11.32 -1.57, 14.24 -0.53 M7.53 -2.7 C9.19 -2.05, 11.23 -1.53, 14.24 -0.53" stroke="#000000" stroke-width="1" fill="none"></path></g></g><mask></mask><g stroke-linecap="round" transform="translate(14.157505125662283 26.153836192804874) rotate(0 12.52950133679667 4.9318249942710395)"><path d="M0.6 -0.85 L24.29 0.21 L25.6 9.75 L-0.88 10.84" stroke="none" stroke-width="0" fill="#868e96"></path><path d="M0 0 C6.2 0.47, 14.48 0.26, 25.06 0 M0 0 C5.13 0.19, 10.67 0.08, 25.06 0 M25.06 0 C24.55 3.43, 25.28 7.32, 25.06 9.86 M25.06 0 C24.94 3.7, 24.89 6.76, 25.06 9.86 M25.06 9.86 C15.33 9.45, 8.06 10.32, 0 9.86 M25.06 9.86 C19.72 9.5, 14.43 10.25, 0 9.86 M0 9.86 C0.05 6.23, 0.12 3.74, 0 0 M0 9.86 C-0.06 7.73, 0.18 5.24, 0 0" stroke="#000000" stroke-width="1" fill="none"></path></g><g stroke-linecap="round" transform="translate(54.038641295545176 26.35009741220574) rotate(0 33.056556718357285 5.33170269650924)"><path d="M2.67 0 C20.87 -1.59, 38 -3.05, 63.45 0 C62.87 -1.2, 66.98 1.27, 66.11 2.67 C66.3 4.57, 65.54 5.69, 66.11 8 C68.13 8.11, 66.58 10.87, 63.45 10.66 C44.38 13.41, 21.91 9.53, 2.67 10.66 C2.13 9.49, 1.09 7.24, 0 8 C0.37 7.25, -0.74 5.01, 0 2.67 C2.51 0.86, 2.7 0.09, 2.67 0" stroke="none" stroke-width="0" fill="#ced4da"></path><path d="M2.67 0 C18.71 1.11, 34.16 -0.75, 63.45 0 M2.67 0 C26.53 0.31, 50.02 0.4, 63.45 0 M63.45 0 C64.67 -0.49, 65.13 0.47, 66.11 2.67 M63.45 0 C65.81 0.09, 66.71 1.83, 66.11 2.67 M66.11 2.67 C65.87 4.09, 66.23 5.83, 66.11 8 M66.11 2.67 C66.15 4.72, 65.97 6.74, 66.11 8 M66.11 8 C66.48 9.8, 64.41 10.84, 63.45 10.66 M66.11 8 C66.9 10.17, 64.63 10.35, 63.45 10.66 M63.45 10.66 C45.81 10.12, 25.71 10.98, 2.67 10.66 M63.45 10.66 C47.61 11.15, 30.92 10.46, 2.67 10.66 M2.67 10.66 C1.1 11.21, -0.11 8.9, 0 8 M2.67 10.66 C2.01 9.7, -0.87 10.44, 0 8 M0 8 C-0.18 5.88, -0.02 3.84, 0 2.67 M0 8 C-0.06 6.75, -0.1 5.16, 0 2.67 M0 2.67 C-0.52 0.51, 0.7 0.07, 2.67 0 M0 2.67 C-0.04 -0.22, -0.21 -0.59, 2.67 0" stroke="#000000" stroke-width="1" fill="none"></path></g><g stroke-linecap="round"><g transform="translate(40.05276148521057 31.76922700437126) rotate(0 7.05293630962052 0.013372553795306885)"><path d="M0.21 0.52 C2.64 0.49, 11.8 -0.44, 14.2 -0.48 M-0.35 0.3 C2.05 0.35, 11.34 0.13, 13.82 -0.04" stroke="#000000" stroke-width="1" fill="none"></path></g><g transform="translate(40.05276148521057 31.76922700437126) rotate(0 7.05293630962052 0.013372553795306885)"><path d="M7.3 2.65 C9.13 2.08, 9.97 1.71, 13.82 -0.04 M7.3 2.65 C9.61 1.76, 11.87 0.7, 13.82 -0.04" stroke="#000000" stroke-width="1" fill="none"></path></g><g transform="translate(40.05276148521057 31.76922700437126) rotate(0 7.05293630962052 0.013372553795306885)"><path d="M7.09 -2.17 C8.96 -1.63, 9.85 -0.89, 13.82 -0.04 M7.09 -2.17 C9.48 -1.41, 11.8 -0.83, 13.82 -0.04" stroke="#000000" stroke-width="1" fill="none"></path></g></g><mask></mask><g stroke-linecap="round" transform="translate(14.743992422274914 53.80628812302734) rotate(0 12.52950133679667 4.9318249942710395)"><path d="M-0.72 -0.58 L24.16 0.35 L25.01 9.94 L-0.8 10.03" stroke="none" stroke-width="0" fill="#868e96"></path><path d="M0 0 C8.06 -0.82, 16.46 0.56, 25.06 0 M0 0 C7.78 0.11, 15.48 -0.36, 25.06 0 M25.06 0 C24.66 2.55, 24.72 5.52, 25.06 9.86 M25.06 0 C24.93 4.03, 24.98 7.75, 25.06 9.86 M25.06 9.86 C20.26 9.49, 13.92 10.86, 0 9.86 M25.06 9.86 C18.16 9.54, 10.33 10.13, 0 9.86 M0 9.86 C0.49 6.42, -0.28 2.45, 0 0 M0 9.86 C0.28 7.07, -0.17 4.15, 0 0" stroke="#000000" stroke-width="1" fill="none"></path></g><g stroke-linecap="round" transform="translate(54.62512859216304 53.69965406909682) rotate(0 33.056556718357285 5.33170269650924)"><path d="M2.67 0 C16.92 -0.17, 30.46 -0.95, 63.45 0 C65.33 2.44, 64.73 2.62, 66.11 2.67 C66.62 4.16, 66.32 6.14, 66.11 8 C66.57 10.23, 64.63 12.62, 63.45 10.66 C41.06 9.76, 20.06 13.46, 2.67 10.66 C0.26 12.5, 0.26 10.14, 0 8 C-0.4 7.33, 0.36 5.92, 0 2.67 C2.37 -0.53, 1.3 -0.84, 2.67 0" stroke="none" stroke-width="0" fill="#ced4da"></path><path d="M2.67 0 C26.04 0.02, 51.72 0.19, 63.45 0 M2.67 0 C19.33 -0.18, 35.52 -0.01, 63.45 0 M63.45 0 C65.26 -0.43, 65.29 0.28, 66.11 2.67 M63.45 0 C64.43 -0.42, 67.17 1.43, 66.11 2.67 M66.11 2.67 C65.98 4.45, 65.91 6.4, 66.11 8 M66.11 2.67 C66.19 4.6, 66.12 6.18, 66.11 8 M66.11 8 C66.94 10.33, 64.37 9.92, 63.45 10.66 M66.11 8 C66.48 10.73, 64.73 9.64, 63.45 10.66 M63.45 10.66 C39.71 10.3, 14.7 9.76, 2.67 10.66 M63.45 10.66 C38.86 10.05, 14.58 9.95, 2.67 10.66 M2.67 10.66 C1.23 10.61, 0.08 8.97, 0 8 M2.67 10.66 C1.08 10.23, 1.01 9.59, 0 8 M0 8 C0.2 6.71, -0.15 5.28, 0 2.67 M0 8 C0.05 6.55, 0 4.93, 0 2.67 M0 2.67 C0.82 0.98, 0.78 0.38, 2.67 0 M0 2.67 C-0.94 0.55, 0.21 -0.41, 2.67 0" stroke="#000000" stroke-width="1" fill="none"></path></g><g stroke-linecap="round"><g transform="translate(40.883647802161704 59.43450643426354) rotate(0 7.055322257685987 -0.033044035962404905)"><path d="M-0.51 -0.02 C1.96 0, 11.95 0.09, 14.36 0.01 M0.23 -0.51 C2.69 -0.38, 11.84 0.69, 14.06 0.74" stroke="#000000" stroke-width="1" fill="none"></path></g><g transform="translate(40.883647802161704 59.43450643426354) rotate(0 7.055322257685987 -0.033044035962404905)"><path d="M7.26 2.64 C8.71 2.42, 10.24 1.76, 14.06 0.74 M7.26 2.64 C8.64 2.07, 10.15 1.83, 14.06 0.74" stroke="#000000" stroke-width="1" fill="none"></path></g><g transform="translate(40.883647802161704 59.43450643426354) rotate(0 7.055322257685987 -0.033044035962404905)"><path d="M7.63 -2.17 C9 -1.36, 10.44 -0.98, 14.06 0.74 M7.63 -2.17 C8.93 -1.72, 10.36 -0.92, 14.06 0.74" stroke="#000000" stroke-width="1" fill="none"></path></g></g><mask></mask><g stroke-linecap="round"><g transform="translate(26.869034314766395 36.323596134185436) rotate(0 0.016466917947127513 8.430320702785423)"><path d="M-0.2 -0.18 C-0.22 2.63, -0.14 13.98, -0.14 16.74" stroke="#000000" stroke-width="1.5" fill="none" stroke-dasharray="1.5 7"></path></g></g><mask></mask><g stroke-linecap="round"><g transform="translate(88.44081460802181 37.87533333174588) rotate(0 0.04122912425185632 7.932500463995666)"><path d="M0.37 -0.4 C0.44 2.24, 0.13 13.27, 0.12 15.99" stroke="#000000" stroke-width="1.5" fill="none" stroke-dasharray="1.5 7"></path></g></g><mask></mask><g transform="translate(21.26269823676421 14.173613627740224) rotate(0 4.997772009974824 4.089086189979355)"><text x="4.997772009974799" y="0" font-family="Virgil, Segoe UI Emoji" font-size="6.057905466636109px" fill="#000000" text-anchor="middle" style="white-space: pre;" direction="ltr" dominant-baseline="text-before-edge">Key</text></g><g transform="translate(21.868488783425164 54.30695537996439) rotate(0 4.997772009974824 4.089086189979355)"><text x="4.997772009974799" y="0" font-family="Virgil, Segoe UI Emoji" font-size="6.057905466636109px" fill="#000000" text-anchor="middle" style="white-space: pre;" direction="ltr" dominant-baseline="text-before-edge">Key</text></g><g transform="translate(78.94483232822085 14.466857276048131) rotate(0 7.723829469961061 4.089086189979355)"><text x="7.723829469961045" y="0" font-family="Virgil, Segoe UI Emoji" font-size="6.057905466636125px" fill="#000000" text-anchor="middle" style="white-space: pre;" direction="ltr" dominant-baseline="text-before-edge">Value</text></g><g transform="translate(78.64193705489288 55.01245748562678) rotate(0 7.723829469961061 4.089086189979355)"><text x="7.723829469961045" y="0" font-family="Virgil, Segoe UI Emoji" font-size="6.057905466636125px" fill="#000000" text-anchor="middle" style="white-space: pre;" direction="ltr" dominant-baseline="text-before-edge">Value</text></g><g transform="translate(34.87482700864189 64.8253288012188) rotate(0 31.37341346191255 13.988146129515144)"><text x="31.37341346191255" y="0" font-family="Virgil, Segoe UI Emoji" font-size="22.0359584435366px" fill="#000000" text-anchor="middle" style="white-space: pre;" direction="ltr" dominant-baseline="text-before-edge">Cache</text></g></svg>