<svg version="1.1" xmlns="http://www.w3.org/2000/svg" viewBox="0 0 214.11080080856664 92.51313504326549" width="214.11080080856664" height="92.51313504326549">
  <!-- svg-source:excalidraw -->
  
  <defs>
    
    
  </defs>
  <g stroke-linecap="round"><g transform="translate(62.64265077977143 29.173739995075266) rotate(0 4.6724258845683835 -0.014792331039643614)" fill-rule="evenodd"><path d="M-15.45 17.04 C-15.45 17.04, -15.45 17.04, -15.45 17.04 M-15.45 17.04 C-15.45 17.04, -15.45 17.04, -15.45 17.04 M-11.12 18.16 C-1.93 7.59, 7.25 -2.98, 24.31 -22.6 M-11.12 18.16 C2.4 2.6, 15.92 -12.95, 24.31 -22.6 M-7.45 20.03 C4.79 5.94, 17.04 -8.14, 24.7 -16.95 M-7.45 20.03 C4.47 6.32, 16.38 -7.38, 24.7 -16.95 M-3.12 21.14 C5.45 11.29, 14.01 1.44, 23.13 -9.05 M-3.12 21.14 C2.48 14.7, 8.08 8.26, 23.13 -9.05 M1.22 22.26 C7.55 14.96, 13.89 7.67, 22.86 -2.65 M1.22 22.26 C7.11 15.47, 13.01 8.69, 22.86 -2.65 M6.2 22.62 C10.9 17.22, 15.59 11.81, 21.95 4.5 M6.2 22.62 C12.06 15.88, 17.91 9.15, 21.95 4.5" stroke="turquoise" stroke-width="0.5" fill="none"></path><path d="M0 0 C0.07 0.5, 0.93 1.71, 0.44 3.02 C-0.04 4.33, -1.51 6.31, -2.93 7.83 C-4.36 9.36, -6.19 10.82, -8.1 12.17 C-10.02 13.52, -13.37 15.02, -14.4 15.94 C-15.44 16.87, -15.76 16.88, -14.34 17.71 C-12.92 18.53, -8.94 20.08, -5.87 20.91 C-2.79 21.74, 0.93 22.82, 4.12 22.69 C7.3 22.55, 10.67 22.15, 13.25 20.1 C15.84 18.04, 17.97 14.91, 19.62 10.36 C21.27 5.81, 22.45 -2.04, 23.14 -7.22 C23.82 -12.41, 23.91 -18.16, 23.75 -20.74 C23.59 -23.32, 23.61 -23.61, 22.15 -22.72 C20.69 -21.82, 18.68 -19.16, 14.99 -15.37 C11.3 -11.58, 2.5 -2.56, 0 0 M0 0 C0.07 0.5, 0.93 1.71, 0.44 3.02 C-0.04 4.33, -1.51 6.31, -2.93 7.83 C-4.36 9.36, -6.19 10.82, -8.1 12.17 C-10.02 13.52, -13.37 15.02, -14.4 15.94 C-15.44 16.87, -15.76 16.88, -14.34 17.71 C-12.92 18.53, -8.94 20.08, -5.87 20.91 C-2.79 21.74, 0.93 22.82, 4.12 22.69 C7.3 22.55, 10.67 22.15, 13.25 20.1 C15.84 18.04, 17.97 14.91, 19.62 10.36 C21.27 5.81, 22.45 -2.04, 23.14 -7.22 C23.82 -12.41, 23.91 -18.16, 23.75 -20.74 C23.59 -23.32, 23.61 -23.61, 22.15 -22.72 C20.69 -21.82, 18.68 -19.16, 14.99 -15.37 C11.3 -11.58, 2.5 -2.56, 0 0" stroke="turquoise" stroke-width="1" fill="none"></path></g></g><mask></mask><g stroke-linecap="round"><g transform="translate(47.42679728801886 48.6121722577368) rotate(0 13.67786207280733 5.983181811603913)" fill-rule="evenodd"><path d="M-0.23 -1.53 C-0.23 -1.53, -0.23 -1.53, -0.23 -1.53 M-0.23 -1.53 C-0.23 -1.53, -0.23 -1.53, -0.23 -1.53 M1.48 2.61 C2.07 1.92, 2.67 1.23, 4.1 -0.41 M1.48 2.61 C2.3 1.66, 3.13 0.71, 4.1 -0.41 M3.84 5.99 C5.1 4.54, 6.35 3.1, 7.78 1.46 M3.84 5.99 C5.01 4.65, 6.17 3.3, 7.78 1.46 M6.2 9.37 C8.12 7.16, 10.03 4.96, 12.11 2.57 M6.2 9.37 C7.43 7.95, 8.66 6.54, 12.11 2.57 M9.22 11.99 C12.05 8.74, 14.87 5.49, 16.44 3.69 M9.22 11.99 C11.7 9.14, 14.18 6.28, 16.44 3.69 M12.9 13.86 C15.13 11.29, 17.36 8.72, 22.74 2.54 M12.9 13.86 C16.03 10.25, 19.17 6.65, 22.74 2.54" stroke="aqua" stroke-width="0.5" fill="none"></path><path d="M0 0 C0.81 1.27, 2.91 5.34, 4.83 7.64 C6.76 9.94, 9.6 12.87, 11.54 13.78 C13.47 14.69, 13.79 15.07, 16.43 13.08 C19.07 11.08, 25.94 3.59, 27.36 1.82 C28.78 0.05, 26.56 2.22, 24.95 2.46 C23.34 2.69, 20.64 3.51, 17.7 3.25 C14.75 2.99, 10.24 1.74, 7.29 0.9 C4.34 0.05, 1.23 -1.66, 0.02 -1.81 C-1.2 -1.96, 0 -0.3, 0 0 M0 0 C0.81 1.27, 2.91 5.34, 4.83 7.64 C6.76 9.94, 9.6 12.87, 11.54 13.78 C13.47 14.69, 13.79 15.07, 16.43 13.08 C19.07 11.08, 25.94 3.59, 27.36 1.82 C28.78 0.05, 26.56 2.22, 24.95 2.46 C23.34 2.69, 20.64 3.51, 17.7 3.25 C14.75 2.99, 10.24 1.74, 7.29 0.9 C4.34 0.05, 1.23 -1.66, 0.02 -1.81 C-1.2 -1.96, 0 -0.3, 0 0" stroke="aqua" stroke-width="1" fill="none"></path></g></g><mask></mask><g stroke-linecap="round"><g transform="translate(24.623445047748646 25.464554317112515) rotate(269.5738737093897 4.6724258845683835 -0.014792331039529927)" fill-rule="evenodd"><path d="M-15.45 17.04 C-15.45 17.04, -15.45 17.04, -15.45 17.04 M-15.45 17.04 C-15.45 17.04, -15.45 17.04, -15.45 17.04 M-11.12 18.16 C2.03 3.03, 15.18 -12.1, 24.31 -22.6 M-11.12 18.16 C2.22 2.81, 15.57 -12.55, 24.31 -22.6 M-7.45 20.03 C-1 12.61, 5.45 5.19, 24.7 -16.95 M-7.45 20.03 C0.86 10.47, 9.17 0.91, 24.7 -16.95 M-3.12 21.14 C3.69 13.31, 10.5 5.48, 23.13 -9.05 M-3.12 21.14 C6.13 10.5, 15.38 -0.13, 23.13 -9.05 M1.22 22.26 C6.09 16.65, 10.96 11.04, 22.86 -2.65 M1.22 22.26 C9.87 12.31, 18.52 2.35, 22.86 -2.65 M6.2 22.62 C11.36 16.68, 16.52 10.75, 21.95 4.5 M6.2 22.62 C12.05 15.89, 17.9 9.16, 21.95 4.5" stroke="red" stroke-width="0.5" fill="none"></path><path d="M0 0 C0.07 0.5, 0.93 1.71, 0.44 3.02 C-0.04 4.33, -1.51 6.31, -2.93 7.83 C-4.36 9.36, -6.19 10.82, -8.1 12.17 C-10.02 13.52, -13.37 15.02, -14.4 15.94 C-15.44 16.87, -15.76 16.88, -14.34 17.71 C-12.92 18.53, -8.94 20.08, -5.87 20.91 C-2.79 21.74, 0.93 22.82, 4.12 22.69 C7.3 22.55, 10.67 22.15, 13.25 20.1 C15.84 18.04, 17.97 14.91, 19.62 10.36 C21.27 5.81, 22.45 -2.04, 23.14 -7.22 C23.82 -12.41, 23.91 -18.16, 23.75 -20.74 C23.59 -23.32, 23.61 -23.61, 22.15 -22.72 C20.69 -21.82, 18.68 -19.16, 14.99 -15.37 C11.3 -11.58, 2.5 -2.56, 0 0 M0 0 C0.07 0.5, 0.93 1.71, 0.44 3.02 C-0.04 4.33, -1.51 6.31, -2.93 7.83 C-4.36 9.36, -6.19 10.82, -8.1 12.17 C-10.02 13.52, -13.37 15.02, -14.4 15.94 C-15.44 16.87, -15.76 16.88, -14.34 17.71 C-12.92 18.53, -8.94 20.08, -5.87 20.91 C-2.79 21.74, 0.93 22.82, 4.12 22.69 C7.3 22.55, 10.67 22.15, 13.25 20.1 C15.84 18.04, 17.97 14.91, 19.62 10.36 C21.27 5.81, 22.45 -2.04, 23.14 -7.22 C23.82 -12.41, 23.91 -18.16, 23.75 -20.74 C23.59 -23.32, 23.61 -23.61, 22.15 -22.72 C20.69 -21.82, 18.68 -19.16, 14.99 -15.37 C11.3 -11.58, 2.5 -2.56, 0 0" stroke="red" stroke-width="1" fill="none"></path></g></g><mask></mask><g stroke-linecap="round"><g transform="translate(41.32360405526833 24.5056302020746) rotate(269.5738737093897 13.67786207280733 6.011789540867426)" fill-rule="evenodd"><path d="M-0.23 -1.53 C-0.23 -1.53, -0.23 -1.53, -0.23 -1.53 M-0.23 -1.53 C-0.23 -1.53, -0.23 -1.53, -0.23 -1.53 M1.48 2.61 C2.13 1.86, 2.78 1.1, 4.1 -0.41 M1.48 2.61 C2.4 1.55, 3.32 0.48, 4.1 -0.41 M3.84 5.99 C5.33 4.28, 6.82 2.56, 7.78 1.46 M3.84 5.99 C4.89 4.78, 5.94 3.57, 7.78 1.46 M6.2 9.37 C7.78 7.55, 9.36 5.73, 12.11 2.57 M6.2 9.37 C8.36 6.88, 10.53 4.39, 12.11 2.57 M9.22 11.99 C11.18 9.74, 13.13 7.49, 16.44 3.69 M9.22 11.99 C12.09 8.69, 14.95 5.4, 16.44 3.69 M12.24 14.61 C14.68 11.81, 17.12 9, 22.74 2.54 M12.24 14.61 C16.42 9.81, 20.6 5, 22.74 2.54" stroke="salmon" stroke-width="0.5" fill="none"></path><path d="M0 0 C0.78 1.29, 2.79 5.45, 4.65 7.76 C6.52 10.06, 9.22 12.95, 11.18 13.84 C13.14 14.72, 13.73 15.08, 16.43 13.08 C19.13 11.07, 25.94 3.59, 27.36 1.82 C28.78 0.05, 26.56 2.22, 24.95 2.46 C23.34 2.69, 20.64 3.51, 17.7 3.25 C14.75 2.99, 10.24 1.74, 7.29 0.9 C4.34 0.05, 1.23 -1.66, 0.02 -1.81 C-1.2 -1.96, 0 -0.3, 0 0 M0 0 C0.78 1.29, 2.79 5.45, 4.65 7.76 C6.52 10.06, 9.22 12.95, 11.18 13.84 C13.14 14.72, 13.73 15.08, 16.43 13.08 C19.13 11.07, 25.94 3.59, 27.36 1.82 C28.78 0.05, 26.56 2.22, 24.95 2.46 C23.34 2.69, 20.64 3.51, 17.7 3.25 C14.75 2.99, 10.24 1.74, 7.29 0.9 C4.34 0.05, 1.23 -1.66, 0.02 -1.81 C-1.2 -1.96, 0 -0.3, 0 0" stroke="salmon" stroke-width="1" fill="none"></path></g></g><mask></mask><g stroke-linecap="round"><g transform="translate(21.1965082569086 63.33643285028643) rotate(179.89906371629317 4.6724258845683835 -0.014792331039529927)" fill-rule="evenodd"><path d="M-15.45 17.04 C-15.45 17.04, -15.45 17.04, -15.45 17.04 M-15.45 17.04 C-15.45 17.04, -15.45 17.04, -15.45 17.04 M-11.12 18.16 C-0.84 6.33, 9.44 -5.5, 24.31 -22.6 M-11.12 18.16 C-2.54 8.28, 6.05 -1.59, 24.31 -22.6 M-7.45 20.03 C0.69 10.67, 8.82 1.31, 24.7 -16.95 M-7.45 20.03 C4.22 6.61, 15.88 -6.81, 24.7 -16.95 M-3.12 21.14 C5.21 11.56, 13.54 1.98, 23.13 -9.05 M-3.12 21.14 C2.61 14.56, 8.33 7.97, 23.13 -9.05 M1.22 22.26 C7.25 15.32, 13.28 8.38, 22.86 -2.65 M1.22 22.26 C7.51 15.02, 13.8 7.78, 22.86 -2.65 M6.2 22.62 C9.61 18.69, 13.02 14.77, 21.95 4.5 M6.2 22.62 C10.32 17.87, 14.45 13.13, 21.95 4.5" stroke="#228be6" stroke-width="0.5" fill="none"></path><path d="M0 0 C0.07 0.5, 0.93 1.71, 0.44 3.02 C-0.04 4.33, -1.51 6.31, -2.93 7.83 C-4.36 9.36, -6.19 10.82, -8.1 12.17 C-10.02 13.52, -13.37 15.02, -14.4 15.94 C-15.44 16.87, -15.76 16.88, -14.34 17.71 C-12.92 18.53, -8.94 20.08, -5.87 20.91 C-2.79 21.74, 0.93 22.82, 4.12 22.69 C7.3 22.55, 10.67 22.15, 13.25 20.1 C15.84 18.04, 17.97 14.91, 19.62 10.36 C21.27 5.81, 22.45 -2.04, 23.14 -7.22 C23.82 -12.41, 23.91 -18.16, 23.75 -20.74 C23.59 -23.32, 23.61 -23.61, 22.15 -22.72 C20.69 -21.82, 18.68 -19.16, 14.99 -15.37 C11.3 -11.58, 2.5 -2.56, 0 0 M0 0 C0.07 0.5, 0.93 1.71, 0.44 3.02 C-0.04 4.33, -1.51 6.31, -2.93 7.83 C-4.36 9.36, -6.19 10.82, -8.1 12.17 C-10.02 13.52, -13.37 15.02, -14.4 15.94 C-15.44 16.87, -15.76 16.88, -14.34 17.71 C-12.92 18.53, -8.94 20.08, -5.87 20.91 C-2.79 21.74, 0.93 22.82, 4.12 22.69 C7.3 22.55, 10.67 22.15, 13.25 20.1 C15.84 18.04, 17.97 14.91, 19.62 10.36 C21.27 5.81, 22.45 -2.04, 23.14 -7.22 C23.82 -12.41, 23.91 -18.16, 23.75 -20.74 C23.59 -23.32, 23.61 -23.61, 22.15 -22.72 C20.69 -21.82, 18.68 -19.16, 14.99 -15.37 C11.3 -11.58, 2.5 -2.56, 0 0" stroke="#228be6" stroke-width="1" fill="none"></path></g></g><mask></mask><g stroke-linecap="round"><g transform="translate(17.60459438426551 30.714564992219493) rotate(179.89906371629317 13.67786207280733 5.983181811603913)" fill-rule="evenodd"><path d="M-0.23 -1.53 C-0.23 -1.53, -0.23 -1.53, -0.23 -1.53 M-0.23 -1.53 C-0.23 -1.53, -0.23 -1.53, -0.23 -1.53 M1.48 2.61 C2.16 1.83, 2.84 1.04, 4.1 -0.41 M1.48 2.61 C2.48 1.46, 3.48 0.3, 4.1 -0.41 M3.84 5.99 C5.34 4.26, 6.84 2.54, 7.78 1.46 M3.84 5.99 C5.3 4.31, 6.76 2.63, 7.78 1.46 M6.2 9.37 C8.13 7.15, 10.06 4.93, 12.11 2.57 M6.2 9.37 C7.46 7.92, 8.72 6.47, 12.11 2.57 M9.22 11.99 C11.33 9.56, 13.45 7.13, 16.44 3.69 M9.22 11.99 C11.19 9.73, 13.15 7.47, 16.44 3.69 M12.9 13.86 C15.83 10.48, 18.76 7.11, 22.74 2.54 M12.9 13.86 C16.55 9.65, 20.21 5.44, 22.74 2.54" stroke="lightblue" stroke-width="0.5" fill="none"></path><path d="M0 0 C0.81 1.27, 2.91 5.34, 4.83 7.64 C6.76 9.94, 9.6 12.87, 11.54 13.78 C13.47 14.69, 13.79 15.07, 16.43 13.08 C19.07 11.08, 25.94 3.59, 27.36 1.82 C28.78 0.05, 26.56 2.22, 24.95 2.46 C23.34 2.69, 20.64 3.51, 17.7 3.25 C14.75 2.99, 10.24 1.74, 7.29 0.9 C4.34 0.05, 1.23 -1.66, 0.02 -1.81 C-1.2 -1.96, 0 -0.3, 0 0 M0 0 C0.81 1.27, 2.91 5.34, 4.83 7.64 C6.76 9.94, 9.6 12.87, 11.54 13.78 C13.47 14.69, 13.79 15.07, 16.43 13.08 C19.07 11.08, 25.94 3.59, 27.36 1.82 C28.78 0.05, 26.56 2.22, 24.95 2.46 C23.34 2.69, 20.64 3.51, 17.7 3.25 C14.75 2.99, 10.24 1.74, 7.29 0.9 C4.34 0.05, 1.23 -1.66, 0.02 -1.81 C-1.2 -1.96, 0 -0.3, 0 0" stroke="lightblue" stroke-width="1" fill="none"></path></g></g><mask></mask><g stroke-linecap="round"><g transform="translate(59.031926489455145 67.07131075208895) rotate(90.23386610434444 4.6724258845683835 -0.014792331039529927)" fill-rule="evenodd"><path d="M-15.45 17.04 C-15.45 17.04, -15.45 17.04, -15.45 17.04 M-15.45 17.04 C-15.45 17.04, -15.45 17.04, -15.45 17.04 M-11.12 18.16 C-3.55 9.45, 4.02 0.74, 24.31 -22.6 M-11.12 18.16 C0.1 5.25, 11.32 -7.65, 24.31 -22.6 M-7.45 20.03 C5.26 5.4, 17.98 -9.22, 24.7 -16.95 M-7.45 20.03 C5.38 5.27, 18.21 -9.49, 24.7 -16.95 M-3.12 21.14 C5.87 10.8, 14.86 0.46, 23.13 -9.05 M-3.12 21.14 C6.82 9.71, 16.75 -1.71, 23.13 -9.05 M1.22 22.26 C5.68 17.12, 10.15 11.98, 22.86 -2.65 M1.22 22.26 C6.43 16.25, 11.65 10.25, 22.86 -2.65 M6.2 22.62 C11.76 16.22, 17.32 9.83, 21.95 4.5 M6.2 22.62 C11.56 16.45, 16.93 10.28, 21.95 4.5" stroke="green" stroke-width="0.5" fill="none"></path><path d="M0 0 C0.07 0.5, 0.93 1.71, 0.44 3.02 C-0.04 4.33, -1.51 6.31, -2.93 7.83 C-4.36 9.36, -6.19 10.82, -8.1 12.17 C-10.02 13.52, -13.37 15.02, -14.4 15.94 C-15.44 16.87, -15.76 16.88, -14.34 17.71 C-12.92 18.53, -8.94 20.08, -5.87 20.91 C-2.79 21.74, 0.93 22.82, 4.12 22.69 C7.3 22.55, 10.67 22.15, 13.25 20.1 C15.84 18.04, 17.97 14.91, 19.62 10.36 C21.27 5.81, 22.45 -2.04, 23.14 -7.22 C23.82 -12.41, 23.91 -18.16, 23.75 -20.74 C23.59 -23.32, 23.61 -23.61, 22.15 -22.72 C20.69 -21.82, 18.68 -19.16, 14.99 -15.37 C11.3 -11.58, 2.5 -2.56, 0 0 M0 0 C0.07 0.5, 0.93 1.71, 0.44 3.02 C-0.04 4.33, -1.51 6.31, -2.93 7.83 C-4.36 9.36, -6.19 10.82, -8.1 12.17 C-10.02 13.52, -13.37 15.02, -14.4 15.94 C-15.44 16.87, -15.76 16.88, -14.34 17.71 C-12.92 18.53, -8.94 20.08, -5.87 20.91 C-2.79 21.74, 0.93 22.82, 4.12 22.69 C7.3 22.55, 10.67 22.15, 13.25 20.1 C15.84 18.04, 17.97 14.91, 19.62 10.36 C21.27 5.81, 22.45 -2.04, 23.14 -7.22 C23.82 -12.41, 23.91 -18.16, 23.75 -20.74 C23.59 -23.32, 23.61 -23.61, 22.15 -22.72 C20.69 -21.82, 18.68 -19.16, 14.99 -15.37 C11.3 -11.58, 2.5 -2.56, 0 0" stroke="green" stroke-width="1" fill="none"></path></g></g><mask></mask><g stroke-linecap="round"><g transform="translate(23.649973643913654 54.45538550030483) rotate(90.23386610434444 13.67786207280733 5.983181811603913)" fill-rule="evenodd"><path d="M-0.23 -1.53 C-0.23 -1.53, -0.23 -1.53, -0.23 -1.53 M-0.23 -1.53 C-0.23 -1.53, -0.23 -1.53, -0.23 -1.53 M1.48 2.61 C2.45 1.49, 3.42 0.37, 4.1 -0.41 M1.48 2.61 C2.46 1.47, 3.45 0.33, 4.1 -0.41 M3.84 5.99 C4.63 5.08, 5.42 4.17, 7.78 1.46 M3.84 5.99 C4.86 4.82, 5.87 3.65, 7.78 1.46 M6.2 9.37 C7.73 7.6, 9.27 5.84, 12.11 2.57 M6.2 9.37 C8.28 6.97, 10.36 4.58, 12.11 2.57 M9.22 11.99 C10.85 10.12, 12.47 8.25, 16.44 3.69 M9.22 11.99 C12.1 8.67, 14.99 5.36, 16.44 3.69 M12.9 13.86 C16.12 10.15, 19.34 6.44, 22.74 2.54 M12.9 13.86 C16.55 9.66, 20.21 5.45, 22.74 2.54" stroke="lightgreen" stroke-width="0.5" fill="none"></path><path d="M0 0 C0.81 1.27, 2.91 5.34, 4.83 7.64 C6.76 9.94, 9.6 12.87, 11.54 13.78 C13.47 14.69, 13.79 15.07, 16.43 13.08 C19.07 11.08, 25.94 3.59, 27.36 1.82 C28.78 0.05, 26.56 2.22, 24.95 2.46 C23.34 2.69, 20.64 3.51, 17.7 3.25 C14.75 2.99, 10.24 1.74, 7.29 0.9 C4.34 0.05, 1.23 -1.66, 0.02 -1.81 C-1.2 -1.96, 0 -0.3, 0 0 M0 0 C0.81 1.27, 2.91 5.34, 4.83 7.64 C6.76 9.94, 9.6 12.87, 11.54 13.78 C13.47 14.69, 13.79 15.07, 16.43 13.08 C19.07 11.08, 25.94 3.59, 27.36 1.82 C28.78 0.05, 26.56 2.22, 24.95 2.46 C23.34 2.69, 20.64 3.51, 17.7 3.25 C14.75 2.99, 10.24 1.74, 7.29 0.9 C4.34 0.05, 1.23 -1.66, 0.02 -1.81 C-1.2 -1.96, 0 -0.3, 0 0" stroke="lightgreen" stroke-width="1" fill="none"></path></g></g><mask></mask><g stroke-linecap="round" transform="translate(44.4264348086881 44.30711983264791) rotate(0 1.7671371928040571 1.7671371928038297)"><path d="M3.53 1.77 C3.53 1.87, 3.53 1.97, 3.51 2.07 C3.49 2.17, 3.46 2.28, 3.43 2.37 C3.39 2.47, 3.35 2.56, 3.3 2.65 C3.25 2.74, 3.19 2.82, 3.12 2.9 C3.06 2.98, 2.98 3.06, 2.9 3.12 C2.82 3.19, 2.74 3.25, 2.65 3.3 C2.56 3.35, 2.47 3.39, 2.37 3.43 C2.28 3.46, 2.17 3.49, 2.07 3.51 C1.97 3.53, 1.87 3.53, 1.77 3.53 C1.66 3.53, 1.56 3.53, 1.46 3.51 C1.36 3.49, 1.26 3.46, 1.16 3.43 C1.07 3.39, 0.97 3.35, 0.88 3.3 C0.79 3.25, 0.71 3.19, 0.63 3.12 C0.55 3.06, 0.48 2.98, 0.41 2.9 C0.35 2.82, 0.29 2.74, 0.24 2.65 C0.19 2.56, 0.14 2.47, 0.11 2.37 C0.07 2.28, 0.04 2.17, 0.03 2.07 C0.01 1.97, 0 1.87, 0 1.77 C0 1.66, 0.01 1.56, 0.03 1.46 C0.04 1.36, 0.07 1.26, 0.11 1.16 C0.14 1.07, 0.19 0.97, 0.24 0.88 C0.29 0.79, 0.35 0.71, 0.41 0.63 C0.48 0.55, 0.55 0.48, 0.63 0.41 C0.71 0.35, 0.79 0.29, 0.88 0.24 C0.97 0.19, 1.07 0.14, 1.16 0.11 C1.26 0.07, 1.36 0.04, 1.46 0.03 C1.56 0.01, 1.66 0, 1.77 0 C1.87 0, 1.97 0.01, 2.07 0.03 C2.17 0.04, 2.28 0.07, 2.37 0.11 C2.47 0.14, 2.56 0.19, 2.65 0.24 C2.74 0.29, 2.82 0.35, 2.9 0.41 C2.98 0.48, 3.06 0.55, 3.12 0.63 C3.19 0.71, 3.25 0.79, 3.3 0.88 C3.35 0.97, 3.39 1.07, 3.43 1.16 C3.46 1.26, 3.49 1.36, 3.51 1.46 C3.53 1.56, 3.53 1.72, 3.53 1.77 C3.54 1.82, 3.54 1.72, 3.53 1.77" stroke="none" stroke-width="0" fill="black"></path><path d="M3.53 1.77 C3.53 1.87, 3.53 1.97, 3.51 2.07 C3.49 2.17, 3.46 2.28, 3.43 2.37 C3.39 2.47, 3.35 2.56, 3.3 2.65 C3.25 2.74, 3.19 2.82, 3.12 2.9 C3.06 2.98, 2.98 3.06, 2.9 3.12 C2.82 3.19, 2.74 3.25, 2.65 3.3 C2.56 3.35, 2.47 3.39, 2.37 3.43 C2.28 3.46, 2.17 3.49, 2.07 3.51 C1.97 3.53, 1.87 3.53, 1.77 3.53 C1.66 3.53, 1.56 3.53, 1.46 3.51 C1.36 3.49, 1.26 3.46, 1.16 3.43 C1.07 3.39, 0.97 3.35, 0.88 3.3 C0.79 3.25, 0.71 3.19, 0.63 3.12 C0.55 3.06, 0.48 2.98, 0.41 2.9 C0.35 2.82, 0.29 2.74, 0.24 2.65 C0.19 2.56, 0.14 2.47, 0.11 2.37 C0.07 2.28, 0.04 2.17, 0.03 2.07 C0.01 1.97, 0 1.87, 0 1.77 C0 1.66, 0.01 1.56, 0.03 1.46 C0.04 1.36, 0.07 1.26, 0.11 1.16 C0.14 1.07, 0.19 0.97, 0.24 0.88 C0.29 0.79, 0.35 0.71, 0.41 0.63 C0.48 0.55, 0.55 0.48, 0.63 0.41 C0.71 0.35, 0.79 0.29, 0.88 0.24 C0.97 0.19, 1.07 0.14, 1.16 0.11 C1.26 0.07, 1.36 0.04, 1.46 0.03 C1.56 0.01, 1.66 0, 1.77 0 C1.87 0, 1.97 0.01, 2.07 0.03 C2.17 0.04, 2.28 0.07, 2.37 0.11 C2.47 0.14, 2.56 0.19, 2.65 0.24 C2.74 0.29, 2.82 0.35, 2.9 0.41 C2.98 0.48, 3.06 0.55, 3.12 0.63 C3.19 0.71, 3.25 0.79, 3.3 0.88 C3.35 0.97, 3.39 1.07, 3.43 1.16 C3.46 1.26, 3.49 1.36, 3.51 1.46 C3.53 1.56, 3.53 1.72, 3.53 1.77 C3.54 1.82, 3.54 1.72, 3.53 1.77" stroke="#000000" stroke-width="1" fill="none"></path></g><g transform="translate(95.4505595166047 15.833557222858417) rotate(0 29.626365661621094 11.220021440018968)"><text x="29.626365661621094" y="0" font-family="Virgil, Segoe UI Emoji" font-size="17.641850899762105px" fill="#495057" text-anchor="middle" style="white-space: pre;" direction="ltr" dominant-baseline="text-before-edge">Apache</text></g><g transform="translate(88.95314699997289 34.07405079859154) rotate(0 59.578826904296875 23.5002023861814)"><text x="59.578826904296875" y="0" font-family="Virgil, Segoe UI Emoji" font-size="37.047655133852366px" fill="#495057" text-anchor="middle" style="white-space: pre;" direction="ltr" dominant-baseline="text-before-edge">Airflow</text></g></svg>