<svg version="1.1" xmlns="http://www.w3.org/2000/svg" viewBox="0 0 154.44000244140625 105.53623753118154" width="154.44000244140625" height="105.53623753118154">
  <!-- svg-source:excalidraw -->
  
  <defs>
    
    
  </defs>
  <g transform="translate(6 75.53623753118154) rotate(0 71.22000122070312 12)"><text x="71.22000122070312" y="0" font-family="Virgil, Segoe UI Emoji" font-size="20px" fill="#000000" text-anchor="middle" style="white-space: pre;" direction="ltr" dominant-baseline="text-before-edge">Audit Manager</text></g><g stroke-linecap="round" transform="translate(44.98942503822491 6) rotate(0 32.230576182478444 32.19971236713013)"><path d="M0 0 C0 0, 0 0, 0 0 M0 0 C0 0, 0 0, 0 0 M0.13 12.04 C2.61 9.19, 5.09 6.34, 10.63 -0.03 M0.13 12.04 C4.03 7.56, 7.92 3.08, 10.63 -0.03 M0.27 24.08 C7.27 16.03, 14.27 7.97, 21.26 -0.07 M0.27 24.08 C6.46 16.96, 12.65 9.83, 21.26 -0.07 M-0.26 36.88 C8.96 26.27, 18.18 15.67, 31.89 -0.1 M-0.26 36.88 C7.25 28.24, 14.76 19.6, 31.89 -0.1 M-0.12 48.92 C15.77 30.63, 31.67 12.35, 42.52 -0.14 M-0.12 48.92 C11.17 35.93, 22.46 22.93, 42.52 -0.14 M0.01 60.96 C12.43 46.68, 24.84 32.39, 53.15 -0.17 M0.01 60.96 C17.98 40.29, 35.95 19.62, 53.15 -0.17 M7.36 64.7 C20.31 49.8, 33.27 34.89, 63.78 -0.21 M7.36 64.7 C22.63 47.13, 37.9 29.57, 63.78 -0.21 M17.99 64.66 C31.59 49.02, 45.19 33.37, 64.57 11.08 M17.99 64.66 C29.36 51.58, 40.73 38.5, 64.57 11.08 M28.62 64.63 C38.59 53.16, 48.57 41.68, 64.7 23.12 M28.62 64.63 C35.91 56.24, 43.21 47.85, 64.7 23.12 M39.25 64.59 C44.78 58.24, 50.3 51.88, 64.84 35.16 M39.25 64.59 C48.12 54.39, 56.99 44.19, 64.84 35.16 M49.88 64.56 C54.02 59.8, 58.16 55.03, 64.97 47.2 M49.88 64.56 C54.94 58.74, 59.99 52.92, 64.97 47.2 M60.51 64.53 C62.08 62.72, 63.65 60.91, 64.45 60 M60.51 64.53 C61.99 62.82, 63.48 61.11, 64.45 60 M-0.19 64.24 C-0.19 64.24, -0.19 64.24, -0.19 64.24 M-0.19 64.24 C-0.19 64.24, -0.19 64.24, -0.19 64.24 M11.85 64.1 C7.34 60.18, 2.83 56.26, -0.22 53.61 M11.85 64.1 C8.2 60.93, 4.54 57.75, -0.22 53.61 M24.65 64.63 C16.8 57.81, 8.96 50.98, -0.26 42.98 M24.65 64.63 C18.71 59.46, 12.77 54.3, -0.26 42.98 M36.69 64.49 C25.17 54.48, 13.66 44.47, -0.29 32.35 M36.69 64.49 C28.32 57.22, 19.95 49.94, -0.29 32.35 M48.73 64.36 C32.76 50.47, 16.79 36.59, -0.33 21.72 M48.73 64.36 C29.6 47.73, 10.47 31.1, -0.33 21.72 M60.77 64.23 C41.04 47.08, 21.32 29.93, -0.36 11.09 M60.77 64.23 C43.22 48.97, 25.67 33.71, -0.36 11.09 M65.26 57.53 C50.76 44.92, 36.26 32.32, 0.36 1.11 M65.26 57.53 C45.44 40.3, 25.62 23.07, 0.36 1.11 M65.23 46.9 C45.82 30.03, 26.41 13.15, 10.89 -0.33 M65.23 46.9 C45.67 29.9, 26.1 12.89, 10.89 -0.33 M65.2 36.27 C56.1 28.36, 47 20.45, 22.93 -0.47 M65.2 36.27 C52.93 25.61, 40.67 14.95, 22.93 -0.47 M65.16 25.64 C55.99 17.67, 46.82 9.7, 34.97 -0.6 M65.16 25.64 C54.41 16.3, 43.66 6.95, 34.97 -0.6 M65.13 15.01 C59.97 10.53, 54.82 6.06, 47.77 -0.08 M65.13 15.01 C61.03 11.46, 56.94 7.9, 47.77 -0.08 M65.09 4.38 C63.56 3.05, 62.03 1.72, 59.81 -0.21 M65.09 4.38 C63.39 2.9, 61.69 1.42, 59.81 -0.21" stroke="#e6498088" stroke-width="1" fill="none"></path><path d="M0 0 C21.56 0, 43.12 0, 64.46 0 M0 0 C25.27 0, 50.55 0, 64.46 0 M64.46 0 C64.46 16.54, 64.46 33.09, 64.46 64.4 M64.46 0 C64.46 20.23, 64.46 40.46, 64.46 64.4 M64.46 64.4 C41 64.4, 17.54 64.4, 0 64.4 M64.46 64.4 C49.4 64.4, 34.34 64.4, 0 64.4 M0 64.4 C0 44.76, 0 25.12, 0 0 M0 64.4 C0 43.34, 0 22.28, 0 0" stroke="#000000" stroke-width="2" fill="none"></path></g><g stroke-linecap="round"><g transform="translate(89.37032763741263 62.7780132078733) rotate(0 -17.438526508581845 -24.58239127818956)"><path d="M0 0 C-11.05 0, -22.09 0, -35.45 0 M0 0 C-9.18 0, -18.36 0, -35.45 0 M-35.45 0 C-35.45 -18.17, -35.45 -36.34, -35.45 -49.16 M-35.45 0 C-35.45 -10.56, -35.45 -21.12, -35.45 -49.16 M-35.45 -49.16 C-29.7 -49.16, -23.96 -49.16, -8.19 -49.16 M-35.45 -49.16 C-27.73 -49.16, -20.01 -49.16, -8.19 -49.16 M-8.19 -49.16 C-4.9 -45.97, -1.62 -42.78, 0.57 -40.65 M-8.19 -49.16 C-6.21 -47.24, -4.22 -45.31, 0.57 -40.65 M0.57 -40.65 C0.57 -36.3, 0.57 -31.96, 0.57 -27.22 M0.57 -40.65 C0.57 -37.67, 0.57 -34.68, 0.57 -27.22" stroke="#000000" stroke-width="2" fill="none"></path></g></g><mask></mask><g stroke-linecap="round"><g transform="translate(81.18062160973386 13.856620664148068) rotate(0 4.2593252214685435 4.2593252214685435)"><path d="M0 0 C0 1.8, 0 3.61, 0 8.52 M0 0 C0 1.75, 0 3.51, 0 8.52 M0 8.52 C2.24 8.52, 4.49 8.52, 8.52 8.52 M0 8.52 C3.03 8.52, 6.06 8.52, 8.52 8.52" stroke="#000000" stroke-width="2" fill="none"></path></g></g><mask></mask><g stroke-linecap="round"><g transform="translate(89.77215786024499 58.94801394389651) rotate(0 0 1.9190900694331958)"><path d="M0 0 C0 1.32, 0 2.64, 0 3.84 M0 0 C0 0.86, 0 1.73, 0 3.84" stroke="#000000" stroke-width="2" fill="none"></path></g></g><mask></mask><g stroke-linecap="round"><g transform="translate(58.682898735426534 33.10426767552417) rotate(0 6.7807849119974435 0)"><path d="M0 0 C5.37 0, 10.73 0, 13.56 0 M0 0 C4.99 0, 9.97 0, 13.56 0" stroke="#000000" stroke-width="2" fill="none"></path></g></g><mask></mask><g stroke-linecap="round"><g transform="translate(58.682898735426534 42.571778684730816) rotate(0 6.7807849119974435 0)"><path d="M0 0 C4.79 0, 9.57 0, 13.56 0 M0 0 C3.68 0, 7.36 0, 13.56 0" stroke="#000000" stroke-width="2" fill="none"></path></g></g><mask></mask><g stroke-linecap="round" transform="translate(77.7458600917962 30.54548091628385) rotate(0 3.5823014629420413 2.0470294073954847)"><path d="M0 0 C2.32 0, 4.63 0, 7.16 0 M0 0 C2.78 0, 5.57 0, 7.16 0 M7.16 0 C7.16 1.07, 7.16 2.13, 7.16 4.09 M7.16 0 C7.16 1.12, 7.16 2.24, 7.16 4.09 M7.16 4.09 C5.02 4.09, 2.88 4.09, 0 4.09 M7.16 4.09 C5.49 4.09, 3.81 4.09, 0 4.09 M0 4.09 C0 2.54, 0 0.99, 0 0 M0 4.09 C0 3, 0 1.9, 0 0" stroke="#000000" stroke-width="2" fill="none"></path></g><g stroke-linecap="round" transform="translate(77.7458600917962 40.78062795325968) rotate(0 11.386601078637113 2.302908083319835)"><path d="M0 0 C5.85 0, 11.7 0, 22.77 0 M0 0 C7.15 0, 14.31 0, 22.77 0 M22.77 0 C22.77 1.68, 22.77 3.35, 22.77 4.61 M22.77 0 C22.77 1.08, 22.77 2.15, 22.77 4.61 M22.77 4.61 C15.83 4.61, 8.88 4.61, 0 4.61 M22.77 4.61 C15.33 4.61, 7.88 4.61, 0 4.61 M0 4.61 C0 3.55, 0 2.5, 0 0 M0 4.61 C0 2.96, 0 1.31, 0 0" stroke="#000000" stroke-width="2" fill="none"></path></g><g stroke-linecap="round"><g transform="translate(62.39313953633064 23.89263534224665) rotate(0 5.117573518488598 -0.2558786759243503)"><path d="M0 0 C1.23 1.23, 2.46 2.46, 3.33 3.33 M0 0 C0.71 0.71, 1.43 1.43, 3.33 3.33 M3.33 3.33 C4.78 1.82, 6.24 0.31, 10.24 -3.84 M3.33 3.33 C5.28 1.3, 7.24 -0.73, 10.24 -3.84" stroke="#000000" stroke-width="2" fill="none"></path></g></g><mask></mask><g stroke-linecap="round"><g transform="translate(58.043202045615544 53.63853141846266) rotate(0 5.373452194413176 0)"><path d="M0 0 C2.83 0, 5.66 0, 10.75 0 M0 0 C3.82 0, 7.64 0, 10.75 0" stroke="#000000" stroke-width="2" fill="none"></path></g></g><mask></mask><g stroke-linecap="round"><g transform="translate(65.71956232334833 49.92829061755765) rotate(0 1.7911507314711343 3.71024080090433)"><path d="M0 0 C1.25 1.34, 2.5 2.68, 3.58 3.84 M0 0 C1.18 1.26, 2.36 2.53, 3.58 3.84 M3.58 3.84 C2.2 5.22, 0.82 6.6, 0 7.42 M3.58 3.84 C2.29 5.13, 1 6.42, 0 7.42" stroke="#000000" stroke-width="2" fill="none"></path></g></g><mask></mask><g stroke-linecap="round"><g transform="translate(73.39592260108111 53.63853141846266) rotate(0 5.373452194413176 0)"><path d="M0 0 C3.97 0, 7.94 0, 10.75 0 M0 0 C4.13 0, 8.25 0, 10.75 0" stroke="#000000" stroke-width="2" fill="none"></path></g></g><mask></mask><g stroke-linecap="round"><g transform="translate(81.0722828788139 49.92829061755765) rotate(0 1.7911507314711343 3.71024080090433)"><path d="M0 0 C0.78 0.83, 1.55 1.66, 3.58 3.84 M0 0 C0.9 0.96, 1.8 1.93, 3.58 3.84 M3.58 3.84 C2.38 5.04, 1.18 6.24, 0 7.42 M3.58 3.84 C2.74 4.68, 1.9 5.52, 0 7.42" stroke="#000000" stroke-width="2" fill="none"></path></g></g><mask></mask><g stroke-linecap="round"><g transform="translate(89.00452183247126 53.63853141846266) rotate(0 5.373452194413176 0)"><path d="M0 0 C2.8 0, 5.59 0, 10.75 0 M0 0 C2.94 0, 5.87 0, 10.75 0" stroke="#000000" stroke-width="2" fill="none"></path></g></g><mask></mask><g stroke-linecap="round"><g transform="translate(96.68088211020495 49.92829061755765) rotate(0 1.7911507314711343 3.71024080090433)"><path d="M0 0 C1.3 1.4, 2.61 2.79, 3.58 3.84 M0 0 C0.84 0.9, 1.67 1.79, 3.58 3.84 M3.58 3.84 C2.49 4.93, 1.4 6.02, 0 7.42 M3.58 3.84 C2.41 5.01, 1.24 6.18, 0 7.42" stroke="#000000" stroke-width="2" fill="none"></path></g></g><mask></mask></svg>