<svg xmlns="http://www.w3.org/2000/svg" viewBox="2548.78 1311.45 111.62 105.54" width="112" height="106"><text x="2554.78" y="1406.99" font-size="20" fill="#000000" opacity="1.0" font-family="sans-serif">CloudTrail</text><rect x="2572.36" y="1317.45" width="64.46" height="64.40" rx="0" stroke="#000000" stroke-width="2" opacity="1.0" fill="none"/><polyline points="2601.97,1364.71 2625.73,1364.30 2631.26,1357.13 2629.21,1349.97 2625.53,1347.71 2622.86,1348.33 2623.07,1347.51 2623.07,1343.62 2621.02,1341.57 2617.13,1341.57 2615.08,1343.21 2614.05,1344.02 2613.65,1341.77 2612.42,1338.70 2607.91,1335.42 2604.43,1334.60 2599.92,1334.40 2596.85,1335.63 2593.78,1337.88 2591.52,1341.36 2590.29,1345.87 2590.50,1347.30 2590.29,1347.30 2587.63,1348.12 2584.97,1350.58 2584.97,1354.06" fill="none" stroke="#000000" stroke-width="2" opacity="1.0" stroke-linecap="round" stroke-linejoin="round"/><polyline points="2581.08,1356.21 2587.83,1356.21" fill="none" stroke="#000000" stroke-width="2" opacity="1.0" stroke-linecap="round" stroke-linejoin="round"/><polyline points="2591.42,1356.21 2598.18,1356.21" fill="none" stroke="#000000" stroke-width="2" opacity="1.0" stroke-linecap="round" stroke-linejoin="round"/><polyline points="2580.56,1360.41 2587.32,1360.41" fill="none" stroke="#000000" stroke-width="2" opacity="1.0" stroke-linecap="round" stroke-linejoin="round"/><polyline points="2583.23,1364.61 2589.99,1364.61" fill="none" stroke="#000000" stroke-width="2" opacity="1.0" stroke-linecap="round" stroke-linejoin="round"/><polyline points="2597.26,1360.41 2609.34,1360.41" fill="none" stroke="#000000" stroke-width="2" opacity="1.0" stroke-linecap="round" stroke-linejoin="round"/><polyline points="2593.37,1364.61 2598.90,1364.61" fill="none" stroke="#000000" stroke-width="2" opacity="1.0" stroke-linecap="round" stroke-linejoin="round"/><polyline points="2590.29,1360.41 2594.19,1360.41" fill="none" stroke="#000000" stroke-width="2" opacity="1.0" stroke-linecap="round" stroke-linejoin="round"/><polyline points="2577.80,1364.61 2580.26,1364.61" fill="none" stroke="#000000" stroke-width="2" opacity="1.0" stroke-linecap="round" stroke-linejoin="round"/></svg>