<svg xmlns="http://www.w3.org/2000/svg" viewBox="1647.67 3561.27 122.42 128.00" width="122" height="128"><text x="1653.67" y="3655.27" font-size="20" fill="#000000" opacity="1.0" font-family="sans-serif">Tools and 
SDKS</text><rect x="1676.84" y="3567.27" width="64.07" height="64.01" rx="0" stroke="#000000" stroke-width="2" opacity="1.0" fill="none"/><polyline points="1699.14,3593.92 1699.14,3604.70 1708.76,3610.25 1708.76,3599.31 1699.14,3593.92" fill="none" stroke="#1e1e1e" stroke-width="2" opacity="1.0" stroke-linecap="round" stroke-linejoin="round"/><polyline points="1718.61,3594.05 1718.61,3604.83 1709.00,3610.39 1709.00,3599.44 1718.61,3594.05" fill="none" stroke="#1e1e1e" stroke-width="2" opacity="1.0" stroke-linecap="round" stroke-linejoin="round"/><polyline points="1704.15,3585.54 1704.15,3596.32 1713.76,3601.87 1713.76,3590.93 1704.15,3585.54" fill="none" stroke="#1e1e1e" stroke-width="2" opacity="1.0" stroke-linecap="round" stroke-linejoin="round" transform="rotate(300.38 1708.95 3593.70)"/><polyline points="1689.63,3587.89 1709.47,3577.00 1728.12,3588.11 1728.12,3610.86 1708.93,3621.53 1689.63,3611.94 1689.63,3587.89" fill="none" stroke="#1e1e1e" stroke-width="2" opacity="1.0" stroke-linecap="round" stroke-linejoin="round"/><polyline points="1690.39,3588.33 1695.47,3591.26" fill="none" stroke="#1e1e1e" stroke-width="2" opacity="1.0" stroke-linecap="round" stroke-linejoin="round"/><polyline points="1708.88,3615.28 1708.88,3620.56" fill="none" stroke="#1e1e1e" stroke-width="2" opacity="1.0" stroke-linecap="round" stroke-linejoin="round"/><polyline points="1722.26,3591.24 1727.39,3588.28" fill="none" stroke="#1e1e1e" stroke-width="2" opacity="1.0" stroke-linecap="round" stroke-linejoin="round"/></svg>