<svg version="1.1" xmlns="http://www.w3.org/2000/svg" viewBox="0 0 180.86001586914062 129.78035378938876" width="180.86001586914062" height="129.78035378938876">
  <!-- svg-source:excalidraw -->
  
  <defs>
    
    
  </defs>
  <g transform="translate(6 75.78035378938876) rotate(0 84.43000793457031 24)"><text x="84.43000793457031" y="0" font-family="Virgil, Segoe UI Emoji" font-size="20px" fill="#000000" text-anchor="middle" style="white-space: pre;" direction="ltr" dominant-baseline="text-before-edge">Application</text><text x="84.43000793457031" y="24" font-family="Virgil, Segoe UI Emoji" font-size="20px" fill="#000000" text-anchor="middle" style="white-space: pre;" direction="ltr" dominant-baseline="text-before-edge">Discovery Service</text></g><g stroke-linecap="round" transform="translate(57.88958740234398 6) rotate(0 32.54042053222645 32.54042053222656)"><path d="M0 0 C0 0, 0 0, 0 0 M0 0 C0 0, 0 0, 0 0 M0.13 12.04 C3.64 8.01, 7.14 3.98, 10.63 -0.03 M0.13 12.04 C3.16 8.55, 6.19 5.07, 10.63 -0.03 M0.27 24.08 C4.84 18.82, 9.42 13.55, 21.26 -0.07 M0.27 24.08 C7.12 16.2, 13.97 8.32, 21.26 -0.07 M-0.26 36.88 C10.91 24.03, 22.07 11.19, 31.89 -0.1 M-0.26 36.88 C9.34 25.84, 18.93 14.8, 31.89 -0.1 M-0.12 48.92 C15.94 30.44, 32 11.97, 42.52 -0.14 M-0.12 48.92 C15.31 31.16, 30.75 13.4, 42.52 -0.14 M0.01 60.96 C16.65 41.81, 33.3 22.67, 53.15 -0.17 M0.01 60.96 C19 39.12, 37.98 17.28, 53.15 -0.17 M6.7 65.45 C22.11 47.73, 37.52 30, 63.78 -0.21 M6.7 65.45 C18.4 52, 30.09 38.55, 63.78 -0.21 M17.33 65.42 C32.8 47.63, 48.26 29.84, 65.88 9.57 M17.33 65.42 C27.17 54.1, 37.01 42.78, 65.88 9.57 M27.96 65.38 C37.18 54.78, 46.4 44.18, 66.02 21.61 M27.96 65.38 C36.44 55.64, 44.91 45.89, 66.02 21.61 M38.59 65.35 C49.07 53.3, 59.55 41.25, 65.49 34.41 M38.59 65.35 C44.19 58.91, 49.78 52.48, 65.49 34.41 M49.22 65.31 C52.94 61.04, 56.66 56.76, 65.63 46.45 M49.22 65.31 C55.28 58.34, 61.34 51.37, 65.63 46.45 M59.85 65.28 C62.16 62.62, 64.48 59.96, 65.76 58.49 M59.85 65.28 C61.52 63.36, 63.19 61.44, 65.76 58.49 M0.23 65.28 C0.23 65.28, 0.23 65.28, 0.23 65.28 M0.23 65.28 C0.23 65.28, 0.23 65.28, 0.23 65.28 M12.27 65.15 C8.3 61.7, 4.34 58.25, 0.19 54.65 M12.27 65.15 C7.78 61.24, 3.29 57.34, 0.19 54.65 M24.31 65.01 C16.82 58.5, 9.33 51.99, 0.16 44.02 M24.31 65.01 C14.77 56.72, 5.24 48.43, 0.16 44.02 M36.35 64.88 C27.5 57.19, 18.66 49.5, 0.13 33.39 M36.35 64.88 C23.41 53.63, 10.48 42.39, 0.13 33.39 M49.15 65.4 C33.4 51.71, 17.65 38.02, 0.09 22.76 M49.15 65.4 C38.79 56.4, 28.44 47.4, 0.09 22.76 M61.19 65.27 C41.56 48.21, 21.94 31.15, 0.06 12.13 M61.19 65.27 C39.47 46.39, 17.75 27.51, 0.06 12.13 M64.93 57.92 C41.07 37.18, 17.21 16.44, 0.02 1.5 M64.93 57.92 C49.93 44.88, 34.94 31.85, 0.02 1.5 M65.65 47.95 C44.4 29.48, 23.16 11.01, 9.8 -0.6 M65.65 47.95 C53.39 37.29, 41.13 26.63, 9.8 -0.6 M65.61 37.32 C55.62 28.63, 45.62 19.94, 21.84 -0.74 M65.61 37.32 C55.18 28.25, 44.74 19.17, 21.84 -0.74 M65.58 26.69 C53.44 16.13, 41.3 5.58, 33.88 -0.87 M65.58 26.69 C58.01 20.1, 50.43 13.52, 33.88 -0.87 M65.54 16.06 C60.43 11.61, 55.32 7.17, 46.68 -0.35 M65.54 16.06 C61.72 12.73, 57.9 9.41, 46.68 -0.35 M65.51 5.43 C63.28 3.49, 61.05 1.55, 58.72 -0.48 M65.51 5.43 C63.89 4.02, 62.27 2.61, 58.72 -0.48" stroke="#7eddd2" stroke-width="1" fill="none"></path><path d="M0 0 C15.95 0, 31.9 0, 65.08 0 M0 0 C17.65 0, 35.3 0, 65.08 0 M65.08 0 C65.08 20.2, 65.08 40.41, 65.08 65.08 M65.08 0 C65.08 16.03, 65.08 32.06, 65.08 65.08 M65.08 65.08 C47.27 65.08, 29.45 65.08, 0 65.08 M65.08 65.08 C43.35 65.08, 21.61 65.08, 0 65.08 M0 65.08 C0 50.47, 0 35.86, 0 0 M0 65.08 C0 43.83, 0 22.58, 0 0" stroke="#000000" stroke-width="2" fill="none"></path></g><g stroke-linecap="round" transform="translate(64.94219818983652 12.748239198550436) rotate(352.1272320235237 20.378744729473283 20.37874472947351)"><path d="M40.76 20.38 C40.76 21.56, 40.65 22.76, 40.45 23.92 C40.24 25.08, 39.93 26.24, 39.53 27.35 C39.13 28.46, 38.62 29.55, 38.03 30.57 C37.44 31.59, 36.75 32.57, 35.99 33.48 C35.23 34.38, 34.38 35.23, 33.48 35.99 C32.57 36.75, 31.59 37.44, 30.57 38.03 C29.55 38.62, 28.46 39.13, 27.35 39.53 C26.24 39.93, 25.08 40.24, 23.92 40.45 C22.76 40.65, 21.56 40.76, 20.38 40.76 C19.2 40.76, 18 40.65, 16.84 40.45 C15.68 40.24, 14.52 39.93, 13.41 39.53 C12.3 39.13, 11.21 38.62, 10.19 38.03 C9.17 37.44, 8.18 36.75, 7.28 35.99 C6.38 35.23, 5.53 34.38, 4.77 33.48 C4.01 32.57, 3.32 31.59, 2.73 30.57 C2.14 29.55, 1.63 28.46, 1.23 27.35 C0.83 26.24, 0.51 25.08, 0.31 23.92 C0.1 22.76, 0 21.56, 0 20.38 C0 19.2, 0.1 18, 0.31 16.84 C0.51 15.68, 0.83 14.52, 1.23 13.41 C1.63 12.3, 2.14 11.21, 2.73 10.19 C3.32 9.17, 4.01 8.18, 4.77 7.28 C5.53 6.38, 6.38 5.53, 7.28 4.77 C8.18 4.01, 9.17 3.32, 10.19 2.73 C11.21 2.14, 12.3 1.63, 13.41 1.23 C14.52 0.83, 15.68 0.51, 16.84 0.31 C18 0.1, 19.2 0, 20.38 0 C21.56 0, 22.76 0.1, 23.92 0.31 C25.08 0.51, 26.24 0.83, 27.35 1.23 C28.46 1.63, 29.55 2.14, 30.57 2.73 C31.59 3.32, 32.57 4.01, 33.48 4.77 C34.38 5.53, 35.23 6.38, 35.99 7.28 C36.75 8.18, 37.44 9.17, 38.03 10.19 C38.62 11.21, 39.13 12.3, 39.53 13.41 C39.93 14.52, 40.24 15.68, 40.45 16.84 C40.65 18, 40.71 19.79, 40.76 20.38 C40.81 20.97, 40.81 19.79, 40.76 20.38" stroke="#000000" stroke-width="2" fill="none"></path></g><g stroke-linecap="round" transform="translate(70.50312784671291 18.303741866682685) rotate(352.1272320235237 14.924128719121995 14.924128719122109)"><path d="M29.85 14.92 C29.85 15.79, 29.77 16.66, 29.62 17.52 C29.47 18.37, 29.24 19.22, 28.95 20.03 C28.65 20.84, 28.28 21.64, 27.85 22.39 C27.42 23.13, 26.91 23.86, 26.36 24.52 C25.8 25.18, 25.18 25.8, 24.52 26.36 C23.86 26.91, 23.13 27.42, 22.39 27.85 C21.64 28.28, 20.84 28.65, 20.03 28.95 C19.22 29.24, 18.37 29.47, 17.52 29.62 C16.66 29.77, 15.79 29.85, 14.92 29.85 C14.06 29.85, 13.18 29.77, 12.33 29.62 C11.48 29.47, 10.63 29.24, 9.82 28.95 C9.01 28.65, 8.21 28.28, 7.46 27.85 C6.71 27.42, 5.99 26.91, 5.33 26.36 C4.67 25.8, 4.05 25.18, 3.49 24.52 C2.94 23.86, 2.43 23.13, 2 22.39 C1.57 21.64, 1.2 20.84, 0.9 20.03 C0.6 19.22, 0.38 18.37, 0.23 17.52 C0.08 16.66, 0 15.79, 0 14.92 C0 14.06, 0.08 13.18, 0.23 12.33 C0.38 11.48, 0.6 10.63, 0.9 9.82 C1.2 9.01, 1.57 8.21, 2 7.46 C2.43 6.71, 2.94 5.99, 3.49 5.33 C4.05 4.67, 4.67 4.05, 5.33 3.49 C5.99 2.94, 6.71 2.43, 7.46 2 C8.21 1.57, 9.01 1.2, 9.82 0.9 C10.63 0.6, 11.48 0.38, 12.33 0.23 C13.18 0.08, 14.06 0, 14.92 0 C15.79 0, 16.66 0.08, 17.52 0.23 C18.37 0.38, 19.22 0.6, 20.03 0.9 C20.84 1.2, 21.64 1.57, 22.39 2 C23.13 2.43, 23.86 2.94, 24.52 3.49 C25.18 4.05, 25.8 4.67, 26.36 5.33 C26.91 5.99, 27.42 6.71, 27.85 7.46 C28.28 8.21, 28.65 9.01, 28.95 9.82 C29.24 10.63, 29.47 11.48, 29.62 12.33 C29.77 13.18, 29.81 14.49, 29.85 14.92 C29.89 15.36, 29.89 14.49, 29.85 14.92" stroke="#000000" stroke-width="2" fill="none"></path></g><g stroke-linecap="round"><g transform="translate(97.02813180091403 49.008801845589915) rotate(352.1272320235237 8.538526892502318 5.532501204257187)"><path d="M0 0 C1.92 2.46, 8.71 12.28, 11.51 14.77 C14.31 17.26, 15.85 15.7, 16.77 14.95 C17.7 14.2, 18.87 13.42, 17.08 10.29 C15.28 7.15, 7.86 -1.52, 6.01 -3.88 M0 0 C1.92 2.46, 8.71 12.28, 11.51 14.77 C14.31 17.26, 15.85 15.7, 16.77 14.95 C17.7 14.2, 18.87 13.42, 17.08 10.29 C15.28 7.15, 7.86 -1.52, 6.01 -3.88" stroke="#000000" stroke-width="2" fill="none"></path></g></g><mask></mask><g stroke-linecap="round"><g transform="translate(71.12051079318758 52.509668311144196) rotate(0 9.61696360953772 5.848153546340654)"><path d="M0 0 C0 3.02, 0 6.04, 0 11.7 M0 0 C0 4.64, 0 9.28, 0 11.7 M0 11.7 C6.18 11.7, 12.36 11.7, 19.23 11.7 M0 11.7 C6.01 11.7, 12.02 11.7, 19.23 11.7 M19.23 11.7 C19.23 9.25, 19.23 6.8, 19.23 4.62 M19.23 11.7 C19.23 9.77, 19.23 7.84, 19.23 4.62" stroke="#000000" stroke-width="2" fill="none"></path></g></g><mask></mask><g stroke-linecap="round"><g transform="translate(77.8783771134033 25.478203030281293) rotate(0 7.017784255608603 7.277702191001481)"><path d="M0 0 C3.22 0, 6.44 0, 14.04 0 M0 0 C4.52 0, 9.03 0, 14.04 0 M14.04 0 C14.04 3.16, 14.04 6.31, 14.04 14.56 M14.04 0 C14.04 5.18, 14.04 10.35, 14.04 14.56" stroke="#000000" stroke-width="2" fill="none"></path></g></g><mask></mask><g stroke-linecap="round"><g transform="translate(74.75936188868832 30.15672586735309) rotate(0 6.3679894171264095 0)"><path d="M0 0 C3.33 0, 6.65 0, 12.74 0 M0 0 C4.38 0, 8.77 0, 12.74 0" stroke="#000000" stroke-width="2" fill="none"></path></g></g><mask></mask><g stroke-linecap="round"><g transform="translate(74.75936188868832 35.874920445996395) rotate(0 6.3679894171264095 0)"><path d="M0 0 C3.95 0, 7.91 0, 12.74 0 M0 0 C3.14 0, 6.27 0, 12.74 0" stroke="#000000" stroke-width="2" fill="none"></path></g></g><mask></mask><g stroke-linecap="round"><g transform="translate(87.23542278754826 40.29352534767531) rotate(0 -4.938440772465356 0)"><path d="M0 0 C-3.82 0, -7.64 0, -9.88 0 M0 0 C-3.89 0, -7.78 0, -9.88 0" stroke="#000000" stroke-width="2" fill="none"></path></g></g><mask></mask></svg>