<svg version="1.1" xmlns="http://www.w3.org/2000/svg" viewBox="0 0 94.53999328613281 129.8370872646201" width="94.53999328613281" height="129.8370872646201">
  <!-- svg-source:excalidraw -->
  
  <defs>
    
    
  </defs>
  <g transform="translate(6 75.8370872646201) rotate(0 41.269996643066406 24)"><text x="41.269996643066406" y="0" font-family="Virgil, Segoe UI Emoji" font-size="20px" fill="#000000" text-anchor="middle" style="white-space: pre;" direction="ltr" dominant-baseline="text-before-edge">Location</text><text x="41.269996643066406" y="24" font-family="Virgil, Segoe UI Emoji" font-size="20px" fill="#000000" text-anchor="middle" style="white-space: pre;" direction="ltr" dominant-baseline="text-before-edge">Service</text></g><g stroke-linecap="round" transform="translate(14.919551086426509 6) rotate(0 32.350445556640466 32.35044555664058)"><path d="M0 0 C0 0, 0 0, 0 0 M0 0 C0 0, 0 0, 0 0 M0.13 12.04 C2.31 9.53, 4.49 7.03, 10.63 -0.03 M0.13 12.04 C2.54 9.27, 4.95 6.5, 10.63 -0.03 M0.27 24.08 C7.68 15.55, 15.09 7.03, 21.26 -0.07 M0.27 24.08 C8.32 14.82, 16.37 5.56, 21.26 -0.07 M-0.26 36.88 C10.24 24.81, 20.73 12.74, 31.89 -0.1 M-0.26 36.88 C11.08 23.83, 22.43 10.78, 31.89 -0.1 M-0.12 48.92 C15.03 31.49, 30.18 14.05, 42.52 -0.14 M-0.12 48.92 C12.73 34.13, 25.58 19.35, 42.52 -0.14 M0.01 60.96 C11.98 47.18, 23.96 33.41, 53.15 -0.17 M0.01 60.96 C15.46 43.19, 30.9 25.42, 53.15 -0.17 M7.36 64.7 C23.99 45.57, 40.62 26.43, 63.78 -0.21 M7.36 64.7 C19.4 50.84, 31.45 36.99, 63.78 -0.21 M17.33 65.42 C27.3 53.96, 37.26 42.5, 64.57 11.08 M17.33 65.42 C28.13 53, 38.93 40.58, 64.57 11.08 M27.96 65.38 C39.92 51.63, 51.87 37.88, 64.7 23.12 M27.96 65.38 C38.8 52.92, 49.64 40.45, 64.7 23.12 M38.59 65.35 C44.1 59.02, 49.6 52.68, 64.84 35.16 M38.59 65.35 C44.01 59.11, 49.44 52.88, 64.84 35.16 M49.22 65.31 C53.5 60.4, 57.77 55.48, 64.97 47.2 M49.22 65.31 C54.36 59.41, 59.49 53.51, 64.97 47.2 M59.85 65.28 C61.27 63.66, 62.68 62.03, 65.1 59.24 M59.85 65.28 C61.01 63.95, 62.16 62.63, 65.1 59.24 M-0.34 64.41 C-0.34 64.41, -0.34 64.41, -0.34 64.41 M-0.34 64.41 C-0.34 64.41, -0.34 64.41, -0.34 64.41 M12.46 64.93 C9.18 62.08, 5.9 59.23, -0.37 53.78 M12.46 64.93 C8.39 61.4, 4.33 57.86, -0.37 53.78 M24.5 64.8 C15.83 57.26, 7.15 49.72, 0.35 43.8 M24.5 64.8 C15.33 56.83, 6.16 48.86, 0.35 43.8 M36.54 64.66 C23.58 53.4, 10.62 42.13, 0.31 33.17 M36.54 64.66 C25.57 55.13, 14.6 45.59, 0.31 33.17 M48.58 64.53 C38.87 56.09, 29.17 47.66, 0.28 22.54 M48.58 64.53 C34.79 52.54, 21 40.55, 0.28 22.54 M60.62 64.4 C37.5 44.3, 14.38 24.2, 0.24 11.91 M60.62 64.4 C46.36 52, 32.09 39.6, 0.24 11.91 M65.11 57.7 C41.83 37.46, 18.54 17.22, 0.21 1.28 M65.11 57.7 C45.15 40.35, 25.18 22.99, 0.21 1.28 M65.08 47.07 C50.98 34.81, 36.87 22.55, 10.74 -0.16 M65.08 47.07 C47.11 31.45, 29.14 15.83, 10.74 -0.16 M65.05 36.44 C52.01 25.11, 38.97 13.78, 22.78 -0.3 M65.05 36.44 C50.29 23.61, 35.53 10.78, 22.78 -0.3 M65.01 25.81 C54.86 16.99, 44.72 8.17, 34.82 -0.43 M65.01 25.81 C57.33 19.14, 49.66 12.46, 34.82 -0.43 M64.98 15.18 C58.1 9.2, 51.22 3.22, 47.62 0.09 M64.98 15.18 C59.45 10.38, 53.92 5.57, 47.62 0.09 M64.94 4.55 C63.45 3.26, 61.97 1.97, 59.66 -0.04 M64.94 4.55 C63.73 3.5, 62.51 2.44, 59.66 -0.04" stroke="#fa525288" stroke-width="1" fill="none"></path><path d="M0 0 C24.82 0, 49.63 0, 64.7 0 M0 0 C13.78 0, 27.56 0, 64.7 0 M64.7 0 C64.7 25.05, 64.7 50.09, 64.7 64.7 M64.7 0 C64.7 23.2, 64.7 46.39, 64.7 64.7 M64.7 64.7 C45.59 64.7, 26.47 64.7, 0 64.7 M64.7 64.7 C48.34 64.7, 31.97 64.7, 0 64.7 M0 64.7 C0 46.38, 0 28.06, 0 0 M0 64.7 C0 45.93, 0 27.16, 0 0" stroke="#000000" stroke-width="2" fill="none"></path></g><g stroke-linecap="round"><g transform="translate(38.530778314226154 27.409744748016237) rotate(0 8.539083557951471 9.739892183288475)"><path d="M0 0 C-3.26 1.55, -6.53 3.1, -15.74 7.47 M0 0 C-4.06 1.93, -8.12 3.85, -15.74 7.47 M-15.74 7.47 C-10.13 10.31, -4.52 13.15, 8.01 19.48 M-15.74 7.47 C-6.88 11.95, 1.99 16.44, 8.01 19.48 M8.01 19.48 C16 15.52, 24 11.57, 32.82 7.2 M8.01 19.48 C15.96 15.55, 23.91 11.61, 32.82 7.2 M32.82 7.2 C27.91 5.06, 22.99 2.92, 16.28 0 M32.82 7.2 C27.14 4.73, 21.45 2.25, 16.28 0" stroke="#000000" stroke-width="2" fill="none"></path></g></g><mask></mask><g stroke-linecap="round"><g transform="translate(30.525387478645825 39.15098464020048) rotate(0 16.677897574124017 7.7385444743936205)"><path d="M0 0 C-2.32 1.08, -4.64 2.16, -8.01 3.74 M0 0 C-1.97 0.92, -3.95 1.84, -8.01 3.74 M-8.01 3.74 C-1.81 6.8, 4.39 9.86, 16.28 15.74 M-8.01 3.74 C-0.93 7.23, 6.14 10.73, 16.28 15.74 M16.28 15.74 C25.49 11.24, 34.7 6.73, 41.36 3.47 M16.28 15.74 C23.64 12.14, 30.99 8.54, 41.36 3.47 M41.36 3.47 C38.89 2.42, 36.42 1.37, 32.56 -0.27 M41.36 3.47 C38.44 2.23, 35.52 0.99, 32.56 -0.27" stroke="#000000" stroke-width="2" fill="none"></path></g></g><mask></mask><g stroke-linecap="round"><g transform="translate(30.658810659238952 47.42322183696524) rotate(0 16.677897574124017 7.7385444743936205)"><path d="M0 0 C-2.31 1.08, -4.63 2.16, -8.01 3.74 M0 0 C-2.07 0.97, -4.14 1.93, -8.01 3.74 M-8.01 3.74 C-0.98 7.21, 6.05 10.69, 16.28 15.74 M-8.01 3.74 C-2.21 6.6, 3.58 9.46, 16.28 15.74 M16.28 15.74 C23.11 12.4, 29.93 9.06, 41.36 3.47 M16.28 15.74 C25.91 11.03, 35.54 6.32, 41.36 3.47 M41.36 3.47 C38.01 2.05, 34.66 0.62, 32.56 -0.27 M41.36 3.47 C38.78 2.37, 36.19 1.28, 32.56 -0.27" stroke="#000000" stroke-width="2" fill="none"></path></g></g><mask></mask><g stroke-linecap="round"><g transform="translate(39.59816375896935 13.533733966345608) rotate(0 7.605121293800494 7.071428571428669)"><path d="M0 0 C4.33 0, 8.67 0, 15.21 0 M0 0 C3.18 0, 6.35 0, 15.21 0 M15.21 0 C14.27 1.77, 13.32 3.54, 10.94 8.01 M15.21 0 C13.89 2.48, 12.57 4.96, 10.94 8.01 M10.94 8.01 C11.37 9.42, 11.8 10.84, 12.81 14.14 M10.94 8.01 C11.33 9.28, 11.72 10.56, 12.81 14.14 M12.81 14.14 C9.63 14.14, 6.46 14.14, 2.67 14.14 M12.81 14.14 C10.72 14.14, 8.63 14.14, 2.67 14.14 M2.67 14.14 C3.12 12.41, 3.57 10.69, 4.27 8.01 M2.67 14.14 C3.14 12.34, 3.61 10.53, 4.27 8.01 M4.27 8.01 C3.06 5.74, 1.85 3.47, 0 0 M4.27 8.01 C2.63 4.93, 0.99 1.86, 0 0" stroke="#000000" stroke-width="2" fill="none"></path></g></g><mask></mask><g stroke-linecap="round"><g transform="translate(47.06986187217717 27.943437470388744) rotate(0 0 4.00269541778971)"><path d="M0 0 C0 2.68, 0 5.37, 0 8.01 M0 0 C0 2.7, 0 5.4, 0 8.01" stroke="#000000" stroke-width="2" fill="none"></path></g></g><mask></mask></svg>