<svg xmlns="http://www.w3.org/2000/svg" viewBox="2558.62 1770.18 91.94 103.70" width="92" height="104"><text x="2564.62" y="1863.88" font-size="20" fill="#000000" opacity="1.0" font-family="sans-serif">Chatbot</text><rect x="2572.89" y="1776.18" width="64.46" height="64.40" rx="0" stroke="#000000" stroke-width="2" opacity="1.0" fill="none"/><rect x="2581.67" y="1802.41" width="47.79" height="25.07" rx="8" stroke="#000000" stroke-width="2" opacity="1.0" fill="none"/><ellipse cx="2591.54" cy="1814.94" rx="4.70" ry="4.70" stroke="#000000" stroke-width="2" opacity="1.0" fill="none"/><ellipse cx="2620.05" cy="1814.94" rx="4.70" ry="4.70" stroke="#000000" stroke-width="2" opacity="1.0" fill="none"/><polyline points="2601.95,1827.56 2601.95,1832.86" fill="none" stroke="#000000" stroke-width="2" opacity="1.0" stroke-linecap="round" stroke-linejoin="round"/><polyline points="2608.70,1827.61 2608.70,1832.91" fill="none" stroke="#000000" stroke-width="2" opacity="1.0" stroke-linecap="round" stroke-linejoin="round"/><polyline points="2588.21,1797.14 2588.21,1784.12 2609.90,1784.12 2609.90,1797.14 2600.26,1797.14 2600.26,1805.81 2596.40,1797.14 2588.21,1797.14" fill="none" stroke="#000000" stroke-width="2" opacity="1.0" stroke-linecap="round" stroke-linejoin="round"/><polyline points="2592.69,1789.18 2592.69,1792.56" fill="none" stroke="#000000" stroke-width="2" opacity="1.0" stroke-linecap="round" stroke-linejoin="round" transform="rotate(88.75 2592.69 1790.87)"/><polyline points="2605.37,1789.18 2605.37,1792.56" fill="none" stroke="#000000" stroke-width="2" opacity="1.0" stroke-linecap="round" stroke-linejoin="round" transform="rotate(88.75 2605.37 1790.87)"/><polyline points="2599.03,1789.18 2599.03,1792.56" fill="none" stroke="#000000" stroke-width="2" opacity="1.0" stroke-linecap="round" stroke-linejoin="round" transform="rotate(88.75 2599.03 1790.87)"/><polyline points="2630.78,1810.23 2632.27,1810.98 2633.87,1812.86 2634.41,1815.86 2633.77,1818.49 2632.16,1820.00 2630.56,1821.00" fill="none" stroke="#000000" stroke-width="2" opacity="1.0" stroke-linecap="round" stroke-linejoin="round"/><polyline points="2579.96,1810.23 2578.47,1810.98 2576.87,1812.86 2576.33,1815.86 2576.97,1818.49 2578.57,1820.00 2580.18,1821.00" fill="none" stroke="#000000" stroke-width="2" opacity="1.0" stroke-linecap="round" stroke-linejoin="round"/></svg>