<svg xmlns="http://www.w3.org/2000/svg" viewBox="537.45 1160.54 154.13 129.01" width="154" height="129"><rect x="579.90" y="1166.54" width="65.08" height="65.08" rx="0" stroke="#000000" stroke-width="2" opacity="1.0" fill="none"/><polyline points="637.66,1199.79 619.10,1199.80 605.11,1197.89 595.31,1193.02 589.81,1187.73" fill="#7950f2" stroke="#000000" stroke-width="2" opacity="1.0" stroke-linecap="round" stroke-linejoin="round"/><polyline points="637.72,1199.84 619.20,1199.96 605.17,1201.91 595.37,1207.20 589.87,1212.94" fill="#7950f2" stroke="#000000" stroke-width="2" opacity="1.0" stroke-linecap="round" stroke-linejoin="round"/><polyline points="637.21,1195.58 620.72,1195.59 608.28,1193.67 599.58,1188.81 594.69,1183.52" fill="#7950f2" stroke="#000000" stroke-width="2" opacity="1.0" stroke-linecap="round" stroke-linejoin="round"/><polyline points="637.42,1190.90 622.65,1190.91 611.52,1189.00 603.72,1184.13 600.28,1177.36" fill="#7950f2" stroke="#000000" stroke-width="2" opacity="1.0" stroke-linecap="round" stroke-linejoin="round"/><polyline points="607.05,1204.96 600.16,1210.26 595.27,1216.71" fill="#7950f2" stroke="#000000" stroke-width="2" opacity="1.0" stroke-linecap="round" stroke-linejoin="round"/><polyline points="607.94,1211.47 602.70,1216.51 600.18,1221.35" fill="#7950f2" stroke="#000000" stroke-width="2" opacity="1.0" stroke-linecap="round" stroke-linejoin="round"/><rect x="611.53" y="1203.09" width="22.59" height="16.03" rx="8" stroke="#000000" stroke-width="2" opacity="1.0" fill="none"/><polyline points="620.64,1208.00 625.74,1211.28 620.64,1214.93 620.64,1208.00" fill="none" stroke="#000000" stroke-width="2" opacity="1.0" stroke-linecap="round" stroke-linejoin="round"/><text x="543.45" y="1255.54" font-size="20" fill="#000000" opacity="1.0" font-family="sans-serif">Kinesis 
Video Streams</text></svg>