<svg version="1.1" xmlns="http://www.w3.org/2000/svg" viewBox="0 0 76.06668951297274 104.00266980882407" width="76.06668951297274" height="104.00266980882407">
  <!-- svg-source:excalidraw -->
  
  <defs>
    
    
  </defs>
  <g transform="translate(9.15921939738837 74.00266980882407) rotate(0 28.23000144958496 12)"><text x="0" y="0" font-family="Virgil, Segoe UI Emoji" font-size="20px" fill="#000000" text-anchor="start" style="white-space: pre;" direction="ltr" dominant-baseline="text-before-edge">X-Ray</text></g><g stroke-linecap="round" transform="translate(6 6) rotate(0 32.03334475648637 32.00266980882293)"><path d="M0 0 C0 0, 0 0, 0 0 M0 0 C0 0, 0 0, 0 0 M0.13 12.04 C2.68 9.11, 5.22 6.19, 10.63 -0.03 M0.13 12.04 C3.17 8.55, 6.21 5.05, 10.63 -0.03 M0.27 24.08 C5.52 18.03, 10.78 11.98, 21.26 -0.07 M0.27 24.08 C4.95 18.69, 9.64 13.3, 21.26 -0.07 M-0.26 36.88 C9.98 25.1, 20.23 13.32, 31.89 -0.1 M-0.26 36.88 C10.6 24.39, 21.45 11.91, 31.89 -0.1 M-0.12 48.92 C13.38 33.38, 26.89 17.85, 42.52 -0.14 M-0.12 48.92 C11.8 35.2, 23.73 21.48, 42.52 -0.14 M0.01 60.96 C11.83 47.36, 23.64 33.77, 53.15 -0.17 M0.01 60.96 C12.95 46.07, 25.89 31.19, 53.15 -0.17 M8.02 63.94 C26.77 42.37, 45.52 20.8, 63.78 -0.21 M8.02 63.94 C25.01 44.39, 42 24.84, 63.78 -0.21 M18.65 63.91 C36.91 42.89, 55.18 21.88, 64.57 11.08 M18.65 63.91 C30.36 50.43, 42.07 36.96, 64.57 11.08 M29.28 63.87 C36.39 55.69, 43.5 47.51, 64.7 23.12 M29.28 63.87 C41.19 50.17, 53.1 36.47, 64.7 23.12 M39.91 63.84 C47.61 54.98, 55.31 46.12, 64.84 35.16 M39.91 63.84 C46.76 55.95, 53.61 48.07, 64.84 35.16 M50.54 63.81 C54.28 59.5, 58.03 55.19, 64.31 47.96 M50.54 63.81 C53.52 60.37, 56.51 56.94, 64.31 47.96 M61.17 63.77 C62.28 62.49, 63.4 61.2, 64.45 60 M61.17 63.77 C62.35 62.41, 63.53 61.05, 64.45 60 M0.01 64.01 C0.01 64.01, 0.01 64.01, 0.01 64.01 M0.01 64.01 C0.01 64.01, 0.01 64.01, 0.01 64.01 M12.05 63.88 C8.46 60.76, 4.88 57.65, -0.03 53.38 M12.05 63.88 C9.35 61.53, 6.65 59.19, -0.03 53.38 M24.09 63.74 C18.45 58.85, 12.82 53.95, -0.06 42.75 M24.09 63.74 C16.43 57.08, 8.77 50.42, -0.06 42.75 M36.88 64.27 C25.66 54.51, 14.43 44.75, -0.1 32.12 M36.88 64.27 C24.65 53.63, 12.42 43, -0.1 32.12 M48.92 64.13 C34.26 51.39, 19.6 38.64, -0.13 21.49 M48.92 64.13 C31.96 49.39, 15 34.64, -0.13 21.49 M60.97 64 C42.27 47.75, 23.57 31.49, -0.17 10.86 M60.97 64 C48.51 53.18, 36.06 42.35, -0.17 10.86 M64.7 56.65 C43.83 38.5, 22.95 20.36, -0.2 0.23 M64.7 56.65 C49.13 43.11, 33.56 29.58, -0.2 0.23 M64.67 46.02 C44.87 28.81, 25.06 11.59, 11.09 -0.56 M64.67 46.02 C47.61 31.19, 30.56 16.37, 11.09 -0.56 M64.64 35.39 C51.56 24.02, 38.48 12.66, 23.13 -0.69 M64.64 35.39 C49.46 22.2, 34.29 9.01, 23.13 -0.69 M64.6 24.76 C53.39 15.02, 42.19 5.28, 35.17 -0.82 M64.6 24.76 C58.56 19.51, 52.51 14.25, 35.17 -0.82 M64.57 14.13 C58.54 8.9, 52.52 3.66, 47.96 -0.3 M64.57 14.13 C59.7 9.9, 54.83 5.67, 47.96 -0.3 M64.53 3.5 C62.97 2.14, 61.4 0.78, 60 -0.44 M64.53 3.5 C62.95 2.12, 61.36 0.74, 60 -0.44" stroke="#eebefa" stroke-width="1" fill="none"></path><path d="M0 0 C13.54 0, 27.08 0, 64.07 0 M0 0 C16.54 0, 33.08 0, 64.07 0 M64.07 0 C64.07 19.17, 64.07 38.33, 64.07 64.01 M64.07 0 C64.07 15.88, 64.07 31.77, 64.07 64.01 M64.07 64.01 C40.77 64.01, 17.48 64.01, 0 64.01 M64.07 64.01 C45.58 64.01, 27.1 64.01, 0 64.01 M0 64.01 C0 46.69, 0 29.38, 0 0 M0 64.01 C0 50.83, 0 37.66, 0 0" stroke="#000000" stroke-width="2" fill="none"></path></g><g stroke-linecap="round"><g transform="translate(17.183663306389917 46.834527194037946) rotate(0 21.00128855108528 -17.241649430129655)"><path d="M0 0 C-0.53 -0.31, -2.18 -0.68, -3.19 -1.85 C-4.2 -3.02, -5.58 -5.43, -6.05 -7 C-6.53 -8.58, -6.48 -9.68, -6.05 -11.3 C-5.62 -12.92, -4.67 -15.45, -3.48 -16.74 C-2.28 -18.03, 0.1 -18.6, 1.1 -19.03 C2.11 -19.46, 2.44 -19.17, 2.54 -19.32 C2.63 -19.46, 1.72 -18.7, 1.68 -19.89 C1.63 -21.08, 1.53 -24.52, 2.25 -26.47 C2.96 -28.43, 4.25 -30.29, 5.97 -31.63 C7.69 -32.96, 10.31 -34.11, 12.56 -34.49 C14.8 -34.87, 17.37 -34.54, 19.43 -33.92 C21.48 -33.3, 23.43 -32.06, 24.87 -30.77 C26.3 -29.48, 27.4 -27.19, 28.02 -26.19 C28.64 -25.18, 28.21 -24.75, 28.59 -24.75 C28.97 -24.75, 29.4 -25.8, 30.31 -26.19 C31.21 -26.57, 32.79 -27.19, 34.03 -27.05 C35.27 -26.9, 36.8 -26.14, 37.75 -25.33 C38.7 -24.52, 39.61 -23.28, 39.75 -22.18 C39.9 -21.08, 38.47 -19.22, 38.61 -18.74 C38.75 -18.27, 39.42 -19.55, 40.61 -19.32 C41.81 -19.08, 44.52 -18.7, 45.77 -17.31 C47.01 -15.93, 47.86 -13.06, 48.06 -11.01 C48.25 -8.96, 47.67 -6.62, 46.91 -5 C46.15 -3.38, 44.63 -2.11, 43.48 -1.28 C42.32 -0.44, 40.57 -0.21, 39.98 0.01 M0 0 C-0.53 -0.31, -2.18 -0.68, -3.19 -1.85 C-4.2 -3.02, -5.58 -5.43, -6.05 -7 C-6.53 -8.58, -6.48 -9.68, -6.05 -11.3 C-5.62 -12.92, -4.67 -15.45, -3.48 -16.74 C-2.28 -18.03, 0.1 -18.6, 1.1 -19.03 C2.11 -19.46, 2.44 -19.17, 2.54 -19.32 C2.63 -19.46, 1.72 -18.7, 1.68 -19.89 C1.63 -21.08, 1.53 -24.52, 2.25 -26.47 C2.96 -28.43, 4.25 -30.29, 5.97 -31.63 C7.69 -32.96, 10.31 -34.11, 12.56 -34.49 C14.8 -34.87, 17.37 -34.54, 19.43 -33.92 C21.48 -33.3, 23.43 -32.06, 24.87 -30.77 C26.3 -29.48, 27.4 -27.19, 28.02 -26.19 C28.64 -25.18, 28.21 -24.75, 28.59 -24.75 C28.97 -24.75, 29.4 -25.8, 30.31 -26.19 C31.21 -26.57, 32.79 -27.19, 34.03 -27.05 C35.27 -26.9, 36.8 -26.14, 37.75 -25.33 C38.7 -24.52, 39.61 -23.28, 39.75 -22.18 C39.9 -21.08, 38.47 -19.22, 38.61 -18.74 C38.75 -18.27, 39.42 -19.55, 40.61 -19.32 C41.81 -19.08, 44.52 -18.7, 45.77 -17.31 C47.01 -15.93, 47.86 -13.06, 48.06 -11.01 C48.25 -8.96, 47.67 -6.62, 46.91 -5 C46.15 -3.38, 44.63 -2.11, 43.48 -1.28 C42.32 -0.44, 40.57 -0.21, 39.98 0.01" stroke="#000000" stroke-width="2" fill="none"></path></g></g><mask></mask><g stroke-linecap="round" transform="translate(23.395692961395525 32.63674920897938) rotate(0 15.59245640365134 15.59245640365134)"><path d="M31.18 15.59 C31.18 16.49, 31.1 17.41, 30.95 18.3 C30.79 19.19, 30.55 20.08, 30.24 20.93 C29.94 21.77, 29.55 22.61, 29.1 23.39 C28.64 24.17, 28.12 24.92, 27.54 25.62 C26.96 26.31, 26.31 26.96, 25.62 27.54 C24.92 28.12, 24.17 28.64, 23.39 29.1 C22.61 29.55, 21.77 29.94, 20.93 30.24 C20.08 30.55, 19.19 30.79, 18.3 30.95 C17.41 31.1, 16.49 31.18, 15.59 31.18 C14.69 31.18, 13.77 31.1, 12.88 30.95 C12 30.79, 11.11 30.55, 10.26 30.24 C9.41 29.94, 8.58 29.55, 7.8 29.1 C7.01 28.64, 6.26 28.12, 5.57 27.54 C4.88 26.96, 4.23 26.31, 3.65 25.62 C3.07 24.92, 2.54 24.17, 2.09 23.39 C1.64 22.61, 1.25 21.77, 0.94 20.93 C0.63 20.08, 0.39 19.19, 0.24 18.3 C0.08 17.41, 0 16.49, 0 15.59 C0 14.69, 0.08 13.77, 0.24 12.88 C0.39 12, 0.63 11.11, 0.94 10.26 C1.25 9.41, 1.64 8.58, 2.09 7.8 C2.54 7.01, 3.07 6.26, 3.65 5.57 C4.23 4.88, 4.88 4.23, 5.57 3.65 C6.26 3.07, 7.01 2.54, 7.8 2.09 C8.58 1.64, 9.41 1.25, 10.26 0.94 C11.11 0.63, 12 0.39, 12.88 0.24 C13.77 0.08, 14.69 0, 15.59 0 C16.49 0, 17.41 0.08, 18.3 0.24 C19.19 0.39, 20.08 0.63, 20.93 0.94 C21.77 1.25, 22.61 1.64, 23.39 2.09 C24.17 2.54, 24.92 3.07, 25.62 3.65 C26.31 4.23, 26.96 4.88, 27.54 5.57 C28.12 6.26, 28.64 7.01, 29.1 7.8 C29.55 8.58, 29.94 9.41, 30.24 10.26 C30.55 11.11, 30.79 12, 30.95 12.88 C31.1 13.77, 31.15 15.14, 31.18 15.59 C31.22 16.04, 31.22 15.14, 31.18 15.59" stroke="#000000" stroke-width="2" fill="none"></path></g><g stroke-linecap="round"><g transform="translate(30.10911169074552 55.59231002546585) rotate(0 8.012790096320828 0)"><path d="M0 0 C3.33 0, 6.65 0, 16.03 0 M0 0 C3.32 0, 6.65 0, 16.03 0" stroke="#000000" stroke-width="2" fill="none"></path></g></g><mask></mask><g stroke-linecap="round"><g transform="translate(31.84160684670678 48.8788912961154) rotate(0 0 3.2484284174274762)"><path d="M0 0 C0 1.55, 0 3.11, 0 6.5 M0 0 C0 2.54, 0 5.07, 0 6.5" stroke="#000000" stroke-width="2" fill="none"></path></g></g><mask></mask><g stroke-linecap="round"><g transform="translate(38.121901787066236 44.76421530070729) rotate(0 0 5.19748546788378)"><path d="M0 0 C0 2.9, 0 5.79, 0 10.39 M0 0 C0 2.69, 0 5.37, 0 10.39" stroke="#000000" stroke-width="2" fill="none"></path></g></g><mask></mask><g stroke-linecap="round"><g transform="translate(44.40219672742569 41.082663094288364) rotate(0 0 7.146542518340311)"><path d="M0 0 C0 3.12, 0 6.25, 0 14.29 M0 0 C0 3.53, 0 7.06, 0 14.29" stroke="#000000" stroke-width="2" fill="none"></path></g></g><mask></mask></svg>