<svg xmlns="http://www.w3.org/2000/svg" viewBox="1257.80 2351.06 77.08 105.46" width="77" height="105"><rect x="1263.80" y="2357.06" width="65.08" height="65.08" rx="0" stroke="#000000" stroke-width="2" opacity="1.0" fill="none"/><ellipse cx="1276.45" cy="2389.99" rx="2.97" ry="2.97" stroke="#000000" stroke-width="2" opacity="1.0" fill="none"/><ellipse cx="1316.51" cy="2389.94" rx="2.97" ry="2.97" stroke="#000000" stroke-width="2" opacity="1.0" fill="none"/><ellipse cx="1313.34" cy="2379.32" rx="2.97" ry="2.97" stroke="#000000" stroke-width="2" opacity="1.0" fill="none"/><ellipse cx="1313.37" cy="2401.62" rx="2.97" ry="2.97" stroke="#000000" stroke-width="2" opacity="1.0" fill="none"/><polyline points="1298.12,2390.02 1313.86,2390.02" fill="none" stroke="#000000" stroke-width="2" opacity="1.0" stroke-linecap="round" stroke-linejoin="round"/><polyline points="1306.01,2378.90 1306.01,2402.34" fill="none" stroke="#000000" stroke-width="2" opacity="1.0" stroke-linecap="round" stroke-linejoin="round"/><polyline points="1310.55,2379.42 1306.27,2379.42" fill="none" stroke="#000000" stroke-width="2" opacity="1.0" stroke-linecap="round" stroke-linejoin="round"/><polyline points="1310.52,2401.85 1306.24,2401.85" fill="none" stroke="#000000" stroke-width="2" opacity="1.0" stroke-linecap="round" stroke-linejoin="round"/><ellipse cx="1291.83" cy="2384.06" rx="6.77" ry="2.14" stroke="#000000" stroke-width="2" opacity="1.0" fill="none"/><polyline points="1285.44,2384.78 1290.13,2391.85 1290.48,2399.25 1293.40,2398.38 1293.22,2392.00 1298.74,2384.48" fill="none" stroke="#000000" stroke-width="2" opacity="1.0" stroke-linecap="round" stroke-linejoin="round"/><polyline points="1279.52,2389.92 1285.75,2389.92" fill="none" stroke="#000000" stroke-width="2" opacity="1.0" stroke-linecap="round" stroke-linejoin="round"/><polyline points="1276.67,2387.02 1279.09,2379.97 1284.15,2374.67 1289.74,2371.61 1296.90,2370.22 1304.85,2372.15 1309.47,2375.47" fill="none" stroke="#000000" stroke-width="2" opacity="1.0" stroke-linecap="round" stroke-linejoin="round"/><polyline points="1276.26,2393.09 1278.74,2400.34 1283.95,2405.78 1289.70,2408.94 1297.06,2410.37 1305.24,2408.38 1309.99,2404.97" fill="none" stroke="#000000" stroke-width="2" opacity="1.0" stroke-linecap="round" stroke-linejoin="round"/><text x="1277.34" y="2446.52" font-size="20" fill="#000000" opacity="1.0" font-family="sans-serif">SNS</text></svg>