<svg version="1.1" xmlns="http://www.w3.org/2000/svg" viewBox="0 0 102.45999908447266 105.5362375311779" width="102.45999908447266" height="105.5362375311779">
  <!-- svg-source:excalidraw -->
  
  <defs>
    
    
  </defs>
  <g transform="translate(6 75.5362375311779) rotate(0 45.22999954223633 12)"><text x="45.22999954223633" y="0" font-family="Virgil, Segoe UI Emoji" font-size="20px" fill="#000000" text-anchor="middle" style="white-space: pre;" direction="ltr" dominant-baseline="text-before-edge">CloudHSM</text></g><g stroke-linecap="round" transform="translate(20.029037827850516 6) rotate(0 32.230576182478444 32.19971236713013)"><path d="M0 0 C0 0, 0 0, 0 0 M0 0 C0 0, 0 0, 0 0 M0.13 12.04 C3.3 8.39, 6.48 4.75, 10.63 -0.03 M0.13 12.04 C2.9 8.86, 5.66 5.68, 10.63 -0.03 M0.27 24.08 C5.01 18.63, 9.75 13.18, 21.26 -0.07 M0.27 24.08 C7.26 16.04, 14.25 7.99, 21.26 -0.07 M-0.26 36.88 C6.53 29.07, 13.32 21.26, 31.89 -0.1 M-0.26 36.88 C8.21 27.14, 16.67 17.41, 31.89 -0.1 M-0.12 48.92 C8.84 38.61, 17.8 28.29, 42.52 -0.14 M-0.12 48.92 C9.99 37.28, 20.11 25.65, 42.52 -0.14 M0.01 60.96 C16.23 42.3, 32.45 23.65, 53.15 -0.17 M0.01 60.96 C15.61 43.02, 31.21 25.07, 53.15 -0.17 M7.36 64.7 C27.8 41.18, 48.24 17.67, 63.78 -0.21 M7.36 64.7 C19.95 50.22, 32.53 35.74, 63.78 -0.21 M17.99 64.66 C35.9 44.06, 53.8 23.46, 64.57 11.08 M17.99 64.66 C35.03 45.06, 52.08 25.45, 64.57 11.08 M28.62 64.63 C41.77 49.5, 54.92 34.37, 64.7 23.12 M28.62 64.63 C39.73 51.85, 50.84 39.07, 64.7 23.12 M39.25 64.59 C45.35 57.58, 51.45 50.56, 64.84 35.16 M39.25 64.59 C46.36 56.41, 53.48 48.23, 64.84 35.16 M49.88 64.56 C54.99 58.69, 60.09 52.81, 64.97 47.2 M49.88 64.56 C53.57 60.31, 57.27 56.06, 64.97 47.2 M60.51 64.53 C61.87 62.96, 63.23 61.39, 64.45 60 M60.51 64.53 C61.74 63.11, 62.98 61.69, 64.45 60 M-0.19 64.24 C-0.19 64.24, -0.19 64.24, -0.19 64.24 M-0.19 64.24 C-0.19 64.24, -0.19 64.24, -0.19 64.24 M11.85 64.1 C7.34 60.18, 2.82 56.25, -0.22 53.61 M11.85 64.1 C7.73 60.52, 3.6 56.93, -0.22 53.61 M24.65 64.63 C17.62 58.51, 10.59 52.4, -0.26 42.98 M24.65 64.63 C15.51 56.68, 6.38 48.74, -0.26 42.98 M36.69 64.49 C26.35 55.5, 16.01 46.51, -0.29 32.35 M36.69 64.49 C24.92 54.26, 13.15 44.03, -0.29 32.35 M48.73 64.36 C29.56 47.7, 10.39 31.03, -0.33 21.72 M48.73 64.36 C37.07 54.22, 25.4 44.08, -0.33 21.72 M60.77 64.23 C48.02 53.14, 35.26 42.05, -0.36 11.09 M60.77 64.23 C37.27 43.79, 13.76 23.36, -0.36 11.09 M65.26 57.53 C42.71 37.93, 20.16 18.32, 0.36 1.11 M65.26 57.53 C43.68 38.77, 22.1 20.01, 0.36 1.11 M65.23 46.9 C43.73 28.21, 22.22 9.52, 10.89 -0.33 M65.23 46.9 C45.25 29.54, 25.28 12.17, 10.89 -0.33 M65.2 36.27 C49.59 22.7, 33.98 9.14, 22.93 -0.47 M65.2 36.27 C48.97 22.17, 32.74 8.06, 22.93 -0.47 M65.16 25.64 C57.17 18.7, 49.18 11.75, 34.97 -0.6 M65.16 25.64 C56.68 18.27, 48.19 10.89, 34.97 -0.6 M65.13 15.01 C59.71 10.3, 54.29 5.59, 47.77 -0.08 M65.13 15.01 C60.6 11.08, 56.08 7.14, 47.77 -0.08 M65.09 4.38 C63.36 2.87, 61.62 1.36, 59.81 -0.21 M65.09 4.38 C63.91 3.35, 62.73 2.33, 59.81 -0.21" stroke="#e6498088" stroke-width="1" fill="none"></path><path d="M0 0 C21.92 0, 43.85 0, 64.46 0 M0 0 C17.97 0, 35.95 0, 64.46 0 M64.46 0 C64.46 24.6, 64.46 49.21, 64.46 64.4 M64.46 0 C64.46 15.32, 64.46 30.64, 64.46 64.4 M64.46 64.4 C49.92 64.4, 35.38 64.4, 0 64.4 M64.46 64.4 C39.89 64.4, 15.31 64.4, 0 64.4 M0 64.4 C0 47.24, 0 30.08, 0 0 M0 64.4 C0 40.68, 0 16.97, 0 0" stroke="#000000" stroke-width="2" fill="none"></path></g><g stroke-linecap="round" transform="translate(60.572735435198865 46.79581216965016) rotate(0 2.3008597510659 2.3008597510659)"><path d="M4.6 2.3 C4.6 2.43, 4.59 2.57, 4.57 2.7 C4.54 2.83, 4.51 2.96, 4.46 3.09 C4.42 3.21, 4.36 3.34, 4.29 3.45 C4.23 3.57, 4.15 3.68, 4.06 3.78 C3.98 3.88, 3.88 3.98, 3.78 4.06 C3.68 4.15, 3.57 4.23, 3.45 4.29 C3.34 4.36, 3.21 4.42, 3.09 4.46 C2.96 4.51, 2.83 4.54, 2.7 4.57 C2.57 4.59, 2.43 4.6, 2.3 4.6 C2.17 4.6, 2.03 4.59, 1.9 4.57 C1.77 4.54, 1.64 4.51, 1.51 4.46 C1.39 4.42, 1.27 4.36, 1.15 4.29 C1.04 4.23, 0.92 4.15, 0.82 4.06 C0.72 3.98, 0.62 3.88, 0.54 3.78 C0.45 3.68, 0.37 3.57, 0.31 3.45 C0.24 3.34, 0.18 3.21, 0.14 3.09 C0.09 2.96, 0.06 2.83, 0.03 2.7 C0.01 2.57, 0 2.43, 0 2.3 C0 2.17, 0.01 2.03, 0.03 1.9 C0.06 1.77, 0.09 1.64, 0.14 1.51 C0.18 1.39, 0.24 1.27, 0.31 1.15 C0.37 1.04, 0.45 0.92, 0.54 0.82 C0.62 0.72, 0.72 0.62, 0.82 0.54 C0.92 0.45, 1.04 0.37, 1.15 0.31 C1.27 0.24, 1.39 0.18, 1.51 0.14 C1.64 0.09, 1.77 0.06, 1.9 0.03 C2.03 0.01, 2.17 0, 2.3 0 C2.43 0, 2.57 0.01, 2.7 0.03 C2.83 0.06, 2.96 0.09, 3.09 0.14 C3.21 0.18, 3.34 0.24, 3.45 0.31 C3.57 0.37, 3.68 0.45, 3.78 0.54 C3.88 0.62, 3.98 0.72, 4.06 0.82 C4.15 0.92, 4.23 1.04, 4.29 1.15 C4.36 1.27, 4.42 1.39, 4.46 1.51 C4.51 1.64, 4.54 1.77, 4.57 1.9 C4.59 2.03, 4.6 2.23, 4.6 2.3 C4.61 2.37, 4.61 2.23, 4.6 2.3" stroke="#000000" stroke-width="2" fill="none"></path></g><g stroke-linecap="round"><g transform="translate(56.5449517415409 54.39539872727619) rotate(303.45319302573887 5.270488293464041 -5.966144954704532)"><path d="M0 0 C-0.19 -0.26, -0.81 -0.81, -1.14 -1.56 C-1.47 -2.3, -1.94 -3.39, -1.98 -4.46 C-2.03 -5.54, -1.81 -7, -1.4 -8.01 C-0.99 -9.01, -0.24 -9.84, 0.49 -10.47 C1.23 -11.1, 2.14 -11.51, 3.03 -11.8 C3.91 -12.1, 4.86 -12.29, 5.79 -12.23 C6.73 -12.17, 7.79 -11.86, 8.63 -11.45 C9.47 -11.04, 10.23 -10.46, 10.82 -9.77 C11.4 -9.08, 11.86 -8.25, 12.15 -7.32 C12.43 -6.39, 12.61 -5.18, 12.52 -4.19 C12.43 -3.19, 12 -2.11, 11.61 -1.36 C11.23 -0.61, 10.44 0.02, 10.21 0.3 M0 0 C-0.19 -0.26, -0.81 -0.81, -1.14 -1.56 C-1.47 -2.3, -1.94 -3.39, -1.98 -4.46 C-2.03 -5.54, -1.81 -7, -1.4 -8.01 C-0.99 -9.01, -0.24 -9.84, 0.49 -10.47 C1.23 -11.1, 2.14 -11.51, 3.03 -11.8 C3.91 -12.1, 4.86 -12.29, 5.79 -12.23 C6.73 -12.17, 7.79 -11.86, 8.63 -11.45 C9.47 -11.04, 10.23 -10.46, 10.82 -9.77 C11.4 -9.08, 11.86 -8.25, 12.15 -7.32 C12.43 -6.39, 12.61 -5.18, 12.52 -4.19 C12.43 -3.19, 12 -2.11, 11.61 -1.36 C11.23 -0.61, 10.44 0.02, 10.21 0.3" stroke="#000000" stroke-width="2" fill="none"></path></g></g><mask></mask><g stroke-linecap="round"><g transform="translate(64.04783884775179 56.10232512693983) rotate(0 7.488079999415731 2.432025982716141)"><path d="M0 0 C0.34 -0.15, 1.43 -1.07, 2.05 -0.9 C2.67 -0.73, 3.48 0.21, 3.71 1.02 C3.95 1.83, 3.05 3.56, 3.46 3.97 C3.86 4.37, 5.55 3.39, 6.14 3.46 C6.74 3.52, 6.89 3.71, 7.04 4.35 C7.19 4.99, 6.57 6.85, 7.04 7.3 C7.51 7.74, 9.11 6.78, 9.86 7.04 C10.6 7.3, 10.75 8.6, 11.52 8.83 C12.29 9.07, 13.89 8.75, 14.46 8.45 C15.04 8.15, 14.91 7.51, 14.98 7.04 C15.04 6.57, 15.25 6.21, 14.85 5.63 C14.44 5.06, 14.19 5.18, 12.54 3.58 C10.9 1.98, 6.25 -2.71, 4.99 -3.97 M0 0 C0.34 -0.15, 1.43 -1.07, 2.05 -0.9 C2.67 -0.73, 3.48 0.21, 3.71 1.02 C3.95 1.83, 3.05 3.56, 3.46 3.97 C3.86 4.37, 5.55 3.39, 6.14 3.46 C6.74 3.52, 6.89 3.71, 7.04 4.35 C7.19 4.99, 6.57 6.85, 7.04 7.3 C7.51 7.74, 9.11 6.78, 9.86 7.04 C10.6 7.3, 10.75 8.6, 11.52 8.83 C12.29 9.07, 13.89 8.75, 14.46 8.45 C15.04 8.15, 14.91 7.51, 14.98 7.04 C15.04 6.57, 15.25 6.21, 14.85 5.63 C14.44 5.06, 14.19 5.18, 12.54 3.58 C10.9 1.98, 6.25 -2.71, 4.99 -3.97" stroke="#000000" stroke-width="2" fill="none"></path></g></g><mask></mask><g stroke-linecap="round"><g transform="translate(69.73257726347902 47.52623350367503) rotate(0 -0.14773011467059405 2.304024615204753)"><path d="M0 0 C0.05 0.4, 0.39 1.61, 0.3 2.38 C0.2 3.15, -0.44 4.24, -0.59 4.61 M0 0 C0.05 0.4, 0.39 1.61, 0.3 2.38 C0.2 3.15, -0.44 4.24, -0.59 4.61" stroke="#000000" stroke-width="2" fill="none"></path></g></g><mask></mask><g stroke-linecap="round" transform="translate(43.95562712905894 26.494802388871904) rotate(0 5.194364611383435 5.194364611383435)"><path d="M10.39 5.19 C10.39 5.5, 10.36 5.8, 10.31 6.1 C10.26 6.39, 10.18 6.69, 10.08 6.97 C9.97 7.25, 9.84 7.53, 9.69 7.79 C9.54 8.05, 9.37 8.3, 9.17 8.53 C8.98 8.76, 8.76 8.98, 8.53 9.17 C8.3 9.37, 8.05 9.54, 7.79 9.69 C7.53 9.84, 7.25 9.97, 6.97 10.08 C6.69 10.18, 6.39 10.26, 6.1 10.31 C5.8 10.36, 5.5 10.39, 5.19 10.39 C4.89 10.39, 4.59 10.36, 4.29 10.31 C4 10.26, 3.7 10.18, 3.42 10.08 C3.14 9.97, 2.86 9.84, 2.6 9.69 C2.34 9.54, 2.09 9.37, 1.86 9.17 C1.63 8.98, 1.41 8.76, 1.22 8.53 C1.02 8.3, 0.85 8.05, 0.7 7.79 C0.55 7.53, 0.42 7.25, 0.31 6.97 C0.21 6.69, 0.13 6.39, 0.08 6.1 C0.03 5.8, 0 5.5, 0 5.19 C0 4.89, 0.03 4.59, 0.08 4.29 C0.13 4, 0.21 3.7, 0.31 3.42 C0.42 3.14, 0.55 2.86, 0.7 2.6 C0.85 2.34, 1.02 2.09, 1.22 1.86 C1.41 1.63, 1.63 1.41, 1.86 1.22 C2.09 1.02, 2.34 0.85, 2.6 0.7 C2.86 0.55, 3.14 0.42, 3.42 0.31 C3.7 0.21, 4 0.13, 4.29 0.08 C4.59 0.03, 4.89 0, 5.19 0 C5.5 0, 5.8 0.03, 6.1 0.08 C6.39 0.13, 6.69 0.21, 6.97 0.31 C7.25 0.42, 7.53 0.55, 7.79 0.7 C8.05 0.85, 8.3 1.02, 8.53 1.22 C8.76 1.41, 8.98 1.63, 9.17 1.86 C9.37 2.09, 9.54 2.34, 9.69 2.6 C9.84 2.86, 9.97 3.14, 10.08 3.42 C10.18 3.7, 10.26 4, 10.31 4.29 C10.36 4.59, 10.38 5.04, 10.39 5.19 C10.4 5.34, 10.4 5.04, 10.39 5.19" stroke="#000000" stroke-width="2" fill="none"></path></g><g stroke-linecap="round"><g transform="translate(54.34435635182581 31.531762012029503) rotate(0 4.249934682041157 0)"><path d="M0 0 C1.42 0, 7.08 0, 8.5 0 M0 0 C1.42 0, 7.08 0, 8.5 0" stroke="#000000" stroke-width="2" fill="none"></path></g></g><mask></mask><g stroke-linecap="round"><g transform="translate(51.196256587350945 51.67960050466718) rotate(0 -1.888859858684782 -20.14783849263904)"><path d="M0 0 C-8.18 0, -16.36 0, -21.41 0 M0 0 C-5.09 0, -10.19 0, -21.41 0 M-21.41 0 C-21.41 -9.09, -21.41 -18.18, -21.41 -40.3 M-21.41 0 C-21.41 -15.36, -21.41 -30.72, -21.41 -40.3 M-21.41 -40.3 C-11.01 -40.3, -0.6 -40.3, 17.63 -40.3 M-21.41 -40.3 C-7.03 -40.3, 7.34 -40.3, 17.63 -40.3 M17.63 -40.3 C17.63 -33.02, 17.63 -25.74, 17.63 -12.91 M17.63 -40.3 C17.63 -31.27, 17.63 -22.25, 17.63 -12.91" stroke="#000000" stroke-width="2" fill="none"></path></g></g><mask></mask><g stroke-linecap="round" transform="translate(25.381838518657332 18.62455297768247) rotate(0 2.2036698351323594 3.4629097409224414)"><path d="M0 0 C1.27 0, 2.55 0, 4.41 0 M0 0 C1.3 0, 2.59 0, 4.41 0 M4.41 0 C4.41 1.93, 4.41 3.87, 4.41 6.93 M4.41 0 C4.41 1.73, 4.41 3.46, 4.41 6.93 M4.41 6.93 C3.22 6.93, 2.04 6.93, 0 6.93 M4.41 6.93 C3.21 6.93, 2.01 6.93, 0 6.93 M0 6.93 C0 4.58, 0 2.24, 0 0 M0 6.93 C0 4.54, 0 2.16, 0 0" stroke="#000000" stroke-width="2" fill="none"></path></g><g stroke-linecap="round" transform="translate(25.381838518657332 36.88353161163832) rotate(0 2.2036698351323594 3.4629097409224414)"><path d="M0 0 C1.51 0, 3.03 0, 4.41 0 M0 0 C1.31 0, 2.62 0, 4.41 0 M4.41 0 C4.41 1.8, 4.41 3.6, 4.41 6.93 M4.41 0 C4.41 1.53, 4.41 3.06, 4.41 6.93 M4.41 6.93 C2.99 6.93, 1.58 6.93, 0 6.93 M4.41 6.93 C3.31 6.93, 2.22 6.93, 0 6.93 M0 6.93 C0 5.3, 0 3.68, 0 0 M0 6.93 C0 5.08, 0 3.24, 0 0" stroke="#000000" stroke-width="2" fill="none"></path></g><g stroke-linecap="round"><g transform="translate(58.43688604564295 36.253911658743164) rotate(0 -9.75910926987217 -4.564744658488507)"><path d="M0 0 C-0.31 0.47, -1 1.89, -1.89 2.83 C-2.78 3.78, -3.99 5.04, -5.35 5.67 C-6.72 6.3, -8.55 6.66, -10.07 6.61 C-11.6 6.56, -13.01 6.24, -14.48 5.35 C-15.95 4.46, -17.89 2.83, -18.89 1.26 C-19.89 -0.31, -20.46 -2.15, -20.46 -4.09 C-20.46 -6.03, -19.89 -8.66, -18.89 -10.39 C-17.89 -12.12, -16.06 -13.59, -14.48 -14.48 C-12.91 -15.37, -11.07 -15.69, -9.44 -15.74 C-7.82 -15.79, -6.14 -15.48, -4.72 -14.8 C-3.31 -14.11, -1.89 -12.64, -0.94 -11.65 C0 -10.65, 0.63 -9.29, 0.94 -8.81 M0 0 C-0.31 0.47, -1 1.89, -1.89 2.83 C-2.78 3.78, -3.99 5.04, -5.35 5.67 C-6.72 6.3, -8.55 6.66, -10.07 6.61 C-11.6 6.56, -13.01 6.24, -14.48 5.35 C-15.95 4.46, -17.89 2.83, -18.89 1.26 C-19.89 -0.31, -20.46 -2.15, -20.46 -4.09 C-20.46 -6.03, -19.89 -8.66, -18.89 -10.39 C-17.89 -12.12, -16.06 -13.59, -14.48 -14.48 C-12.91 -15.37, -11.07 -15.69, -9.44 -15.74 C-7.82 -15.79, -6.14 -15.48, -4.72 -14.8 C-3.31 -14.11, -1.89 -12.64, -0.94 -11.65 C0 -10.65, 0.63 -9.29, 0.94 -8.81" stroke="#000000" stroke-width="2" fill="none"></path></g></g><mask></mask></svg>