<svg xmlns="http://www.w3.org/2000/svg" viewBox="1822.25 1160.54 154.83 128.66" width="155" height="129"><text x="1828.25" y="1255.20" font-size="20" fill="#000000" opacity="1.0" font-family="sans-serif">Instance with
CloudWatch</text><rect x="1862.92" y="1166.54" width="64.46" height="64.40" rx="8" stroke="#f08c00" stroke-width="2" opacity="1.0" fill="none"/><ellipse cx="1906.44" cy="1203.89" rx="10.92" ry="10.92" stroke="#f08c00" stroke-width="2" opacity="1.0" fill="none"/><ellipse cx="1906.49" cy="1203.95" rx="8.00" ry="8.00" stroke="#f08c00" stroke-width="2" opacity="1.0" fill="none"/><polyline points="1911.00,1213.81 1917.17,1221.72 1919.99,1221.82 1920.15,1219.32 1914.22,1211.73" fill="none" stroke="#f08c00" stroke-width="2" opacity="1.0" stroke-linecap="round" stroke-linejoin="round"/><polyline points="1919.87,1198.16 1920.57,1193.33 1918.25,1189.67 1913.74,1188.40 1913.23,1187.55 1912.31,1183.83 1908.06,1182.09 1904.18,1184.54 1903.76,1184.15 1897.80,1177.83 1889.07,1175.02 1880.84,1178.58 1876.94,1187.47 1876.33,1188.95 1870.39,1192.72 1869.36,1200.46 1874.27,1205.82 1880.10,1206.30 1887.26,1206.37 1892.07,1206.26" fill="none" stroke="#f08c00" stroke-width="2" opacity="1.0" stroke-linecap="round" stroke-linejoin="round"/><polyline points="1902.36,1204.07 1903.02,1201.29 1905.50,1199.87" fill="none" stroke="#f08c00" stroke-width="2" opacity="1.0" stroke-linecap="round" stroke-linejoin="round"/></svg>