<svg xmlns="http://www.w3.org/2000/svg" viewBox="540.49 1629.94 143.90 101.91" width="144" height="102"><text x="546.49" y="1721.85" font-size="20" fill="#000000" opacity="1.0" font-family="sans-serif">Data Pipeline</text><rect x="581.95" y="1635.94" width="62.08" height="62.08" rx="0" stroke="#000000" stroke-width="2" opacity="1.0" fill="none"/><rect x="598.00" y="1663.00" width="29.57" height="19.85" rx="0" stroke="#000000" stroke-width="2" opacity="1.0" fill="none"/><rect x="592.52" y="1660.11" width="5.38" height="25.64" rx="8" stroke="#000000" stroke-width="2" opacity="1.0" fill="none"/><polyline points="592.72,1664.87 597.89,1664.87" fill="none" stroke="#000000" stroke-width="2" opacity="1.0" stroke-linecap="round" stroke-linejoin="round"/><polyline points="592.83,1681.31 598.00,1681.31" fill="none" stroke="#000000" stroke-width="2" opacity="1.0" stroke-linecap="round" stroke-linejoin="round"/><rect x="627.62" y="1660.21" width="5.38" height="25.64" rx="8" stroke="#000000" stroke-width="2" opacity="1.0" fill="none"/><polyline points="627.83,1664.97 633.00,1664.97" fill="none" stroke="#000000" stroke-width="2" opacity="1.0" stroke-linecap="round" stroke-linejoin="round"/><polyline points="627.93,1681.41 633.10,1681.41" fill="none" stroke="#000000" stroke-width="2" opacity="1.0" stroke-linecap="round" stroke-linejoin="round"/><polyline points="598.31,1666.93 627.67,1666.73" fill="none" stroke="#000000" stroke-width="2" opacity="1.0" stroke-linecap="round" stroke-linejoin="round"/><polyline points="597.89,1679.13 627.26,1678.93" fill="none" stroke="#000000" stroke-width="2" opacity="1.0" stroke-linecap="round" stroke-linejoin="round"/><polyline points="607.25,1657.19 617.39,1657.19 622.14,1658.23 622.14,1652.23 616.77,1653.68 607.46,1653.68 603.12,1652.44 603.12,1658.23 607.25,1657.19" fill="none" stroke="#000000" stroke-width="2" opacity="1.0" stroke-linecap="round" stroke-linejoin="round"/><polyline points="610.30,1662.69 610.30,1657.32" fill="none" stroke="#000000" stroke-width="2" opacity="1.0" stroke-linecap="round" stroke-linejoin="round"/><polyline points="614.64,1662.69 614.64,1657.32" fill="none" stroke="#000000" stroke-width="2" opacity="1.0" stroke-linecap="round" stroke-linejoin="round"/><polyline points="609.89,1653.28 612.67,1648.94 615.68,1653.49" fill="none" stroke="#000000" stroke-width="2" opacity="1.0" stroke-linecap="round" stroke-linejoin="round"/></svg>