<svg xmlns="http://www.w3.org/2000/svg" viewBox="-488.56 -250.76 91.70 121.90" width="92" height="122"><rect x="-473.42" y="-244.76" width="64.46" height="64.40" rx="0" stroke="none" stroke-width="1" opacity="1.0" fill="#e64980"/><rect x="-474.94" y="-243.40" width="64.46" height="64.40" rx="0" stroke="#000000" stroke-width="1" opacity="1.0" fill="none"/><text x="-482.56" y="-158.86" font-size="16" fill="#000000" opacity="1.0" font-family="sans-serif">AWS
CloudTrail</text><polyline points="-451.53,-200.69 -457.05,-200.69" fill="none" stroke="#ffffff" stroke-width="2" opacity="1.0" stroke-linecap="round" stroke-linejoin="round"/><polyline points="-460.32,-200.69 -465.85,-200.69" fill="none" stroke="#ffffff" stroke-width="2" opacity="1.0" stroke-linecap="round" stroke-linejoin="round"/><polyline points="-468.94,-200.69 -469.77,-200.69" fill="none" stroke="#ffffff" stroke-width="2" opacity="1.0" stroke-linecap="round" stroke-linejoin="round"/><polyline points="-442.20,-203.61 -455.03,-203.61" fill="none" stroke="#ffffff" stroke-width="2" opacity="1.0" stroke-linecap="round" stroke-linejoin="round"/><polyline points="-463.33,-203.61 -468.85,-203.61" fill="none" stroke="#ffffff" stroke-width="2" opacity="1.0" stroke-linecap="round" stroke-linejoin="round"/><polyline points="-458.78,-203.61 -459.62,-203.61" fill="none" stroke="#ffffff" stroke-width="2" opacity="1.0" stroke-linecap="round" stroke-linejoin="round"/><polyline points="-462.30,-206.87 -467.82,-206.87" fill="none" stroke="#ffffff" stroke-width="2" opacity="1.0" stroke-linecap="round" stroke-linejoin="round"/><polyline points="-454.37,-206.87 -458.72,-206.87" fill="none" stroke="#ffffff" stroke-width="2" opacity="1.0" stroke-linecap="round" stroke-linejoin="round"/><polyline points="-467.25,-210.38 -466.62,-213.23 -463.76,-216.32 -459.20,-218.19 -459.18,-218.25 -459.10,-222.84 -456.23,-228.37 -449.77,-231.40 -441.86,-230.63 -435.99,-226.35 -433.90,-221.31 -433.93,-221.37 -432.09,-223.33 -428.85,-224.10 -425.70,-222.06 -425.53,-218.25 -425.49,-218.15 -420.78,-217.71 -416.33,-213.71 -415.92,-206.60 -419.46,-202.00 -424.23,-200.84 -436.37,-200.74 -448.19,-200.74" fill="none" stroke="#ffffff" stroke-width="2" opacity="1.0" stroke-linecap="round" stroke-linejoin="round"/></svg>