<svg version="1.1" xmlns="http://www.w3.org/2000/svg" viewBox="0 0 76.70089111328093 102.837087264621" width="76.70089111328093" height="102.837087264621">
  <!-- svg-source:excalidraw -->
  
  <defs>
    
    
  </defs>
  <g transform="translate(12.980446624756041 72.837087264621) rotate(0 25.369998931884766 12)"><text x="25.369998931884766" y="0" font-family="Virgil, Segoe UI Emoji" font-size="20px" fill="#000000" text-anchor="middle" style="white-space: pre;" direction="ltr" dominant-baseline="text-before-edge">Chime</text></g><g stroke-linecap="round" transform="translate(6 6) rotate(0 32.350445556640466 32.35044555664035)"><path d="M0 0 C0 0, 0 0, 0 0 M0 0 C0 0, 0 0, 0 0 M0.13 12.04 C3.36 8.33, 6.59 4.62, 10.63 -0.03 M0.13 12.04 C3.78 7.84, 7.43 3.65, 10.63 -0.03 M0.27 24.08 C7.25 16.05, 14.23 8.01, 21.26 -0.07 M0.27 24.08 C6.59 16.8, 12.92 9.53, 21.26 -0.07 M-0.26 36.88 C11.11 23.8, 22.48 10.73, 31.89 -0.1 M-0.26 36.88 C12.3 22.43, 24.87 7.98, 31.89 -0.1 M-0.12 48.92 C11.06 36.05, 22.25 23.18, 42.52 -0.14 M-0.12 48.92 C16.26 30.08, 32.64 11.23, 42.52 -0.14 M0.01 60.96 C14.43 44.38, 28.84 27.79, 53.15 -0.17 M0.01 60.96 C20.45 37.45, 40.88 13.94, 53.15 -0.17 M7.36 64.7 C25.88 43.39, 44.4 22.09, 63.78 -0.21 M7.36 64.7 C27.92 41.05, 48.47 17.4, 63.78 -0.21 M17.33 65.42 C28.32 52.79, 39.3 40.15, 64.57 11.08 M17.33 65.42 C36.18 43.74, 55.02 22.06, 64.57 11.08 M27.96 65.38 C37.15 54.82, 46.34 44.25, 64.7 23.12 M27.96 65.38 C35.37 56.86, 42.78 48.33, 64.7 23.12 M38.59 65.35 C44.62 58.42, 50.64 51.49, 64.84 35.16 M38.59 65.35 C47.99 54.54, 57.39 43.72, 64.84 35.16 M49.22 65.31 C52.65 61.37, 56.08 57.43, 64.97 47.2 M49.22 65.31 C53.33 60.6, 57.43 55.88, 64.97 47.2 M59.85 65.28 C61.82 63.02, 63.79 60.75, 65.1 59.24 M59.85 65.28 C61.65 63.22, 63.44 61.15, 65.1 59.24 M-0.34 64.41 C-0.34 64.41, -0.34 64.41, -0.34 64.41 M-0.34 64.41 C-0.34 64.41, -0.34 64.41, -0.34 64.41 M12.46 64.93 C9.87 62.68, 7.28 60.43, -0.37 53.78 M12.46 64.93 C8.83 61.77, 5.19 58.62, -0.37 53.78 M24.5 64.8 C19.62 60.56, 14.75 56.32, 0.35 43.8 M24.5 64.8 C16.69 58.01, 8.88 51.22, 0.35 43.8 M36.54 64.66 C23.38 53.22, 10.22 41.79, 0.31 33.17 M36.54 64.66 C26.72 56.13, 16.9 47.59, 0.31 33.17 M48.58 64.53 C36.51 54.04, 24.44 43.55, 0.28 22.54 M48.58 64.53 C30.25 48.6, 11.92 32.66, 0.28 22.54 M60.62 64.4 C40.52 46.93, 20.42 29.46, 0.24 11.91 M60.62 64.4 C45.59 51.34, 30.57 38.27, 0.24 11.91 M65.11 57.7 C51.7 46.04, 38.28 34.38, 0.21 1.28 M65.11 57.7 C41.67 37.32, 18.22 16.94, 0.21 1.28 M65.08 47.07 C48.53 32.69, 31.98 18.3, 10.74 -0.16 M65.08 47.07 C48 32.22, 30.91 17.37, 10.74 -0.16 M65.05 36.44 C51.78 24.91, 38.51 13.38, 22.78 -0.3 M65.05 36.44 C49.98 23.35, 34.92 10.25, 22.78 -0.3 M65.01 25.81 C56.18 18.14, 47.35 10.46, 34.82 -0.43 M65.01 25.81 C58.36 20.03, 51.72 14.26, 34.82 -0.43 M64.98 15.18 C60.06 10.91, 55.14 6.63, 47.62 0.09 M64.98 15.18 C60.51 11.3, 56.04 7.41, 47.62 0.09 M64.94 4.55 C63.72 3.49, 62.5 2.43, 59.66 -0.04 M64.94 4.55 C63.5 3.3, 62.05 2.04, 59.66 -0.04" stroke="#fa525288" stroke-width="1" fill="none"></path><path d="M0 0 C20.64 0, 41.29 0, 64.7 0 M0 0 C13.72 0, 27.43 0, 64.7 0 M64.7 0 C64.7 15.73, 64.7 31.45, 64.7 64.7 M64.7 0 C64.7 19.89, 64.7 39.79, 64.7 64.7 M64.7 64.7 C41.74 64.7, 18.78 64.7, 0 64.7 M64.7 64.7 C50.9 64.7, 37.11 64.7, 0 64.7 M0 64.7 C0 46.52, 0 28.34, 0 0 M0 64.7 C0 42.71, 0 20.71, 0 0" stroke="#000000" stroke-width="2" fill="none"></path></g><g stroke-linecap="round"><g transform="translate(34.64433107138302 29.645184617365885) rotate(0 3.5374735265606887 9.228191808419524)"><path d="M0 0 C1.59 0, 3.17 0, 7.38 0 M0 0 C1.76 0, 3.52 0, 7.38 0 M7.38 0 C9.42 1.91, 11.45 3.83, 12.61 4.92 M7.38 0 C9.14 1.65, 10.9 3.31, 12.61 4.92 M12.61 4.92 C12.68 6.64, 12.75 8.35, 12.92 12.61 M12.61 4.92 C12.73 7.91, 12.85 10.9, 12.92 12.61 M12.92 12.61 C11.15 14.59, 9.38 16.57, 7.69 18.46 M12.92 12.61 C11.25 14.48, 9.59 16.34, 7.69 18.46 M7.69 18.46 C4.83 18.46, 1.97 18.46, -0.31 18.46 M7.69 18.46 C6.05 18.46, 4.42 18.46, -0.31 18.46 M-0.31 18.46 C-1.98 16.58, -3.66 14.71, -5.54 12.61 M-0.31 18.46 C-1.41 17.23, -2.51 16, -5.54 12.61 M-5.54 12.61 C-5.66 9.8, -5.78 6.98, -5.84 5.54 M-5.54 12.61 C-5.61 11.03, -5.67 9.45, -5.84 5.54 M-5.84 5.54 C-4.02 3.81, -2.2 2.09, 0 0 M-5.84 5.54 C-3.58 3.39, -1.31 1.24, 0 0" stroke="#000000" stroke-width="2" fill="none"></path></g></g><mask></mask><g stroke-linecap="round"><g transform="translate(34.61357043202133 28.722365436522523) rotate(0 5.383111888244571 -7.536356643542604)"><path d="M0 0 C1.31 -4, 2.61 -8, 4.92 -15.07 M0 0 C1.92 -5.89, 3.84 -11.77, 4.92 -15.07 M4.92 -15.07 C6.29 -15.07, 7.66 -15.07, 10.77 -15.07 M4.92 -15.07 C7.18 -15.07, 9.43 -15.07, 10.77 -15.07 M10.77 -15.07 C9.83 -11.53, 8.89 -7.99, 6.77 0 M10.77 -15.07 C9.33 -9.65, 7.89 -4.22, 6.77 0" stroke="#000000" stroke-width="2" fill="none"></path></g></g><mask></mask><g stroke-linecap="round"><g transform="translate(46.17957083190686 35.02829650561034) rotate(45 5.383111888244571 -7.536356643542604)"><path d="M0 0 C1.08 -3.29, 2.15 -6.59, 4.92 -15.07 M0 0 C1.68 -5.14, 3.36 -10.28, 4.92 -15.07 M4.92 -15.07 C6.39 -15.07, 7.85 -15.07, 10.77 -15.07 M4.92 -15.07 C6.31 -15.07, 7.7 -15.07, 10.77 -15.07 M10.77 -15.07 C9.18 -9.11, 7.6 -3.15, 6.77 0 M10.77 -15.07 C9.74 -11.19, 8.71 -7.31, 6.77 0" stroke="#000000" stroke-width="2" fill="none"></path></g></g><mask></mask><g stroke-linecap="round"><g transform="translate(50.48606034250315 47.313892793492414) rotate(88.77699923906478 5.383111888244571 -7.536356643542604)"><path d="M0 0 C1.01 -3.08, 2.01 -6.16, 4.92 -15.07 M0 0 C1.16 -3.54, 2.31 -7.08, 4.92 -15.07 M4.92 -15.07 C6.73 -15.07, 8.53 -15.07, 10.77 -15.07 M4.92 -15.07 C6.55 -15.07, 8.18 -15.07, 10.77 -15.07 M10.77 -15.07 C9.86 -11.67, 8.96 -8.27, 6.77 0 M10.77 -15.07 C9.76 -11.28, 8.75 -7.48, 6.77 0" stroke="#000000" stroke-width="2" fill="none"></path></g></g><mask></mask><g stroke-linecap="round"><g transform="translate(44.36469310958455 59.052355846861246) rotate(130.91438322002458 5.383111888244571 -7.536356643542604)"><path d="M0 0 C1.45 -4.44, 2.9 -8.88, 4.92 -15.07 M0 0 C1.87 -5.71, 3.73 -11.43, 4.92 -15.07 M4.92 -15.07 C6.89 -15.07, 8.86 -15.07, 10.77 -15.07 M4.92 -15.07 C6.64 -15.07, 8.35 -15.07, 10.77 -15.07 M10.77 -15.07 C9.5 -10.29, 8.23 -5.5, 6.77 0 M10.77 -15.07 C9.78 -11.37, 8.8 -7.67, 6.77 0" stroke="#000000" stroke-width="2" fill="none"></path></g></g><mask></mask><g stroke-linecap="round"><g transform="translate(31.4144639384358 63.05123896384248) rotate(180.0000000000002 5.383111888244571 -7.536356643542604)"><path d="M0 0 C1.79 -5.47, 3.57 -10.94, 4.92 -15.07 M0 0 C1.16 -3.54, 2.31 -7.08, 4.92 -15.07 M4.92 -15.07 C6.55 -15.07, 8.17 -15.07, 10.77 -15.07 M4.92 -15.07 C7 -15.07, 9.07 -15.07, 10.77 -15.07 M10.77 -15.07 C9.18 -9.09, 7.59 -3.11, 6.77 0 M10.77 -15.07 C9.72 -11.12, 8.67 -7.16, 6.77 0" stroke="#000000" stroke-width="2" fill="none"></path></g></g><mask></mask><g stroke-linecap="round"><g transform="translate(21.87866573640258 32.875051750312196) rotate(313.6028189727036 5.383111888244571 -7.536356643542604)"><path d="M0 0 C1.02 -3.5, 2.04 -6.99, 4.2 -14.38 M0 0 C1.29 -4.42, 2.58 -8.85, 4.2 -14.38 M4.2 -14.38 C6.53 -14.63, 8.86 -14.87, 10.77 -15.07 M4.2 -14.38 C5.6 -14.53, 7 -14.68, 10.77 -15.07 M10.77 -15.07 C9.64 -10.84, 8.52 -6.6, 6.77 0 M10.77 -15.07 C9.41 -9.95, 8.05 -4.82, 6.77 0" stroke="#000000" stroke-width="2" fill="none"></path></g></g><mask></mask><g stroke-linecap="round"><g transform="translate(15.418931470509051 44.31800959275097) rotate(269.1013163792615 5.383111888244571 -7.536356643542604)"><path d="M0 0 C1.91 -5.86, 3.83 -11.73, 4.92 -15.07 M0 0 C1.65 -5.07, 3.31 -10.13, 4.92 -15.07 M4.92 -15.07 C6.23 -15.07, 7.53 -15.07, 10.77 -15.07 M4.92 -15.07 C7.19 -15.07, 9.46 -15.07, 10.77 -15.07 M10.77 -15.07 C9.41 -9.97, 8.06 -4.87, 6.77 0 M10.77 -15.07 C9.49 -10.27, 8.22 -5.46, 6.77 0" stroke="#000000" stroke-width="2" fill="none"></path></g></g><mask></mask><g stroke-linecap="round"><g transform="translate(19.66389970238197 58.03725474793464) rotate(220.60129464500395 5.383111888244571 -7.536356643542604)"><path d="M0 0 C1.15 -3.53, 2.31 -7.06, 4.92 -15.07 M0 0 C1.9 -5.82, 3.8 -11.63, 4.92 -15.07 M4.92 -15.07 C6.29 -15.07, 7.67 -15.07, 10.77 -15.07 M4.92 -15.07 C7.03 -15.07, 9.13 -15.07, 10.77 -15.07 M10.77 -15.07 C9.77 -11.32, 8.78 -7.57, 6.77 0 M10.77 -15.07 C9.43 -10.04, 8.1 -5.02, 6.77 0" stroke="#000000" stroke-width="2" fill="none"></path></g></g><mask></mask></svg>