<svg version="1.1" xmlns="http://www.w3.org/2000/svg" viewBox="0 0 132.6999969482422 105.53623753118154" width="132.6999969482422" height="105.53623753118154">
  <!-- svg-source:excalidraw -->
  
  <defs>
    
    
  </defs>
  <g transform="translate(6 75.53623753118154) rotate(0 60.349998474121094 12)"><text x="60.349998474121094" y="0" font-family="Virgil, Segoe UI Emoji" font-size="20px" fill="#000000" text-anchor="middle" style="white-space: pre;" direction="ltr" dominant-baseline="text-before-edge">Security Hub</text></g><g stroke-linecap="round" transform="translate(34.11942229164197 6) rotate(0 32.230576182478444 32.19971236713013)"><path d="M0 0 C0 0, 0 0, 0 0 M0 0 C0 0, 0 0, 0 0 M0.13 12.04 C2.85 8.92, 5.56 5.8, 10.63 -0.03 M0.13 12.04 C2.53 9.29, 4.92 6.53, 10.63 -0.03 M0.27 24.08 C6.86 16.5, 13.45 8.91, 21.26 -0.07 M0.27 24.08 C7.1 16.22, 13.94 8.36, 21.26 -0.07 M-0.26 36.88 C11.41 23.45, 23.08 10.03, 31.89 -0.1 M-0.26 36.88 C10.92 24.02, 22.1 11.16, 31.89 -0.1 M-0.12 48.92 C8.74 38.73, 17.6 28.53, 42.52 -0.14 M-0.12 48.92 C11.29 35.78, 22.71 22.65, 42.52 -0.14 M0.01 60.96 C13.3 45.67, 26.58 30.39, 53.15 -0.17 M0.01 60.96 C18.38 39.82, 36.75 18.69, 53.15 -0.17 M7.36 64.7 C26.77 42.37, 46.18 20.04, 63.78 -0.21 M7.36 64.7 C20.05 50.09, 32.75 35.49, 63.78 -0.21 M17.99 64.66 C34.27 45.93, 50.55 27.21, 64.57 11.08 M17.99 64.66 C33.33 47.01, 48.67 29.36, 64.57 11.08 M28.62 64.63 C42.51 48.65, 56.4 32.67, 64.7 23.12 M28.62 64.63 C41.6 49.69, 54.59 34.76, 64.7 23.12 M39.25 64.59 C48.99 53.39, 58.73 42.18, 64.84 35.16 M39.25 64.59 C46.71 56.01, 54.17 47.43, 64.84 35.16 M49.88 64.56 C54.89 58.8, 59.89 53.04, 64.97 47.2 M49.88 64.56 C53.96 59.86, 58.05 55.16, 64.97 47.2 M60.51 64.53 C61.5 63.39, 62.49 62.25, 64.45 60 M60.51 64.53 C61.34 63.57, 62.17 62.61, 64.45 60 M-0.19 64.24 C-0.19 64.24, -0.19 64.24, -0.19 64.24 M-0.19 64.24 C-0.19 64.24, -0.19 64.24, -0.19 64.24 M11.85 64.1 C7.51 60.32, 3.16 56.55, -0.22 53.61 M11.85 64.1 C7.59 60.4, 3.33 56.69, -0.22 53.61 M24.65 64.63 C18.59 59.36, 12.53 54.09, -0.26 42.98 M24.65 64.63 C14.84 56.1, 5.04 47.58, -0.26 42.98 M36.69 64.49 C25.9 55.12, 15.12 45.74, -0.29 32.35 M36.69 64.49 C23.08 52.66, 9.48 40.84, -0.29 32.35 M48.73 64.36 C38.64 55.59, 28.56 46.82, -0.33 21.72 M48.73 64.36 C34.88 52.32, 21.03 40.28, -0.33 21.72 M60.77 64.23 C41.06 47.1, 21.36 29.96, -0.36 11.09 M60.77 64.23 C36.78 43.37, 12.79 22.51, -0.36 11.09 M65.26 57.53 C47.79 42.34, 30.32 27.15, 0.36 1.11 M65.26 57.53 C45.79 40.61, 26.32 23.68, 0.36 1.11 M65.23 46.9 C48.03 31.95, 30.84 17, 10.89 -0.33 M65.23 46.9 C46.25 30.4, 27.26 13.9, 10.89 -0.33 M65.2 36.27 C55.45 27.8, 45.7 19.33, 22.93 -0.47 M65.2 36.27 C51.47 24.34, 37.74 12.41, 22.93 -0.47 M65.16 25.64 C58.29 19.67, 51.42 13.7, 34.97 -0.6 M65.16 25.64 C57.7 19.16, 50.24 12.67, 34.97 -0.6 M65.13 15.01 C61.21 11.61, 57.3 8.21, 47.77 -0.08 M65.13 15.01 C60.43 10.93, 55.73 6.84, 47.77 -0.08 M65.09 4.38 C62.99 2.55, 60.88 0.72, 59.81 -0.21 M65.09 4.38 C63.61 3.09, 62.13 1.81, 59.81 -0.21" stroke="#e6498088" stroke-width="1" fill="none"></path><path d="M0 0 C16.3 0, 32.6 0, 64.46 0 M0 0 C13.15 0, 26.3 0, 64.46 0 M64.46 0 C64.46 20.69, 64.46 41.37, 64.46 64.4 M64.46 0 C64.46 14.6, 64.46 29.2, 64.46 64.4 M64.46 64.4 C45.05 64.4, 25.65 64.4, 0 64.4 M64.46 64.4 C50.51 64.4, 36.57 64.4, 0 64.4 M0 64.4 C0 45.39, 0 26.39, 0 0 M0 64.4 C0 47.25, 0 30.1, 0 0" stroke="#000000" stroke-width="2" fill="none"></path></g><g stroke-linecap="round"><g transform="translate(61.42431931013152 34.10517411321052) rotate(0 4.586972979378743 -0.9829227812954286)"><path d="M0 0 C1.13 -0.47, 2.27 -0.94, 4.75 -1.97 M0 0 C1.32 -0.55, 2.64 -1.09, 4.75 -1.97 M4.75 -1.97 C6.25 -1.41, 7.74 -0.86, 9.17 -0.33 M4.75 -1.97 C5.83 -1.56, 6.92 -1.16, 9.17 -0.33" stroke="#000000" stroke-width="2" fill="none"></path></g></g><mask></mask><g stroke-linecap="round"><g transform="translate(66.41546782304931 46.22788841585134) rotate(0 0 -7.044279932617428)"><path d="M0 0 C0 -2.87, 0 -5.74, 0 -14.09 M0 0 C0 -4.32, 0 -8.64, 0 -14.09" stroke="#000000" stroke-width="2" fill="none"></path></g></g><mask></mask><g stroke-linecap="round"><g transform="translate(66.0112922895105 46.22788841585134) rotate(0 -2.2115762579146576 -6.1432673830966)"><path d="M0 0 C-0.49 -0.13, -0.98 -0.26, -2.46 -0.66 M0 0 C-0.57 -0.15, -1.14 -0.3, -2.46 -0.66 M-2.46 -0.66 C-2.93 -1.17, -3.41 -1.69, -4.42 -2.78 M-2.46 -0.66 C-2.85 -1.09, -3.25 -1.51, -4.42 -2.78 M-4.42 -2.78 C-4.42 -6.46, -4.42 -10.13, -4.42 -12.29 M-4.42 -2.78 C-4.42 -5.86, -4.42 -8.93, -4.42 -12.29" stroke="#000000" stroke-width="2" fill="none"></path></g></g><mask></mask><g stroke-linecap="round"><g transform="translate(66.2570229848343 46.30979864762776) rotate(0 2.2115762579146576 -6.1432673830966)"><path d="M0 0 C0.72 -0.19, 1.44 -0.38, 2.46 -0.66 M0 0 C0.66 -0.18, 1.33 -0.35, 2.46 -0.66 M2.46 -0.66 C3.21 -1.38, 3.96 -2.1, 4.42 -2.54 M2.46 -0.66 C2.88 -1.06, 3.3 -1.47, 4.42 -2.54 M4.42 -2.54 C4.42 -4.66, 4.42 -6.77, 4.42 -12.29 M4.42 -2.54 C4.42 -5.29, 4.42 -8.04, 4.42 -12.29" stroke="#000000" stroke-width="2" fill="none"></path></g></g><mask></mask><g stroke-linecap="round" transform="translate(61.783252144315156 10.318524248315953) rotate(0 4.566746329805483 4.566746329805483)"><path d="M9.13 4.57 C9.13 4.83, 9.11 5.1, 9.06 5.36 C9.02 5.62, 8.95 5.88, 8.86 6.13 C8.77 6.38, 8.65 6.62, 8.52 6.85 C8.39 7.08, 8.23 7.3, 8.07 7.5 C7.9 7.7, 7.7 7.9, 7.5 8.07 C7.3 8.23, 7.08 8.39, 6.85 8.52 C6.62 8.65, 6.38 8.77, 6.13 8.86 C5.88 8.95, 5.62 9.02, 5.36 9.06 C5.1 9.11, 4.83 9.13, 4.57 9.13 C4.3 9.13, 4.03 9.11, 3.77 9.06 C3.51 9.02, 3.25 8.95, 3 8.86 C2.76 8.77, 2.51 8.65, 2.28 8.52 C2.05 8.39, 1.83 8.23, 1.63 8.07 C1.43 7.9, 1.24 7.7, 1.07 7.5 C0.9 7.3, 0.74 7.08, 0.61 6.85 C0.48 6.62, 0.37 6.38, 0.28 6.13 C0.19 5.88, 0.12 5.62, 0.07 5.36 C0.02 5.1, 0 4.83, 0 4.57 C0 4.3, 0.02 4.03, 0.07 3.77 C0.12 3.51, 0.19 3.25, 0.28 3 C0.37 2.76, 0.48 2.51, 0.61 2.28 C0.74 2.05, 0.9 1.83, 1.07 1.63 C1.24 1.43, 1.43 1.24, 1.63 1.07 C1.83 0.9, 2.05 0.74, 2.28 0.61 C2.51 0.48, 2.76 0.37, 3 0.28 C3.25 0.19, 3.51 0.12, 3.77 0.07 C4.03 0.02, 4.3 0, 4.57 0 C4.83 0, 5.1 0.02, 5.36 0.07 C5.62 0.12, 5.88 0.19, 6.13 0.28 C6.38 0.37, 6.62 0.48, 6.85 0.61 C7.08 0.74, 7.3 0.9, 7.5 1.07 C7.7 1.24, 7.9 1.43, 8.07 1.63 C8.23 1.83, 8.39 2.05, 8.52 2.28 C8.65 2.51, 8.77 2.76, 8.86 3 C8.95 3.25, 9.02 3.51, 9.06 3.77 C9.11 4.03, 9.12 4.43, 9.13 4.57 C9.15 4.7, 9.15 4.43, 9.13 4.57" stroke="#000000" stroke-width="2" fill="none"></path></g><g stroke-linecap="round" transform="translate(81.49236788347571 21.374857467842958) rotate(0 4.566746329805483 4.566746329805483)"><path d="M9.13 4.57 C9.13 4.83, 9.11 5.1, 9.06 5.36 C9.02 5.62, 8.95 5.88, 8.86 6.13 C8.77 6.38, 8.65 6.62, 8.52 6.85 C8.39 7.08, 8.23 7.3, 8.07 7.5 C7.9 7.7, 7.7 7.9, 7.5 8.07 C7.3 8.23, 7.08 8.39, 6.85 8.52 C6.62 8.65, 6.38 8.77, 6.13 8.86 C5.88 8.95, 5.62 9.02, 5.36 9.06 C5.1 9.11, 4.83 9.13, 4.57 9.13 C4.3 9.13, 4.03 9.11, 3.77 9.06 C3.51 9.02, 3.25 8.95, 3 8.86 C2.76 8.77, 2.51 8.65, 2.28 8.52 C2.05 8.39, 1.83 8.23, 1.63 8.07 C1.43 7.9, 1.24 7.7, 1.07 7.5 C0.9 7.3, 0.74 7.08, 0.61 6.85 C0.48 6.62, 0.37 6.38, 0.28 6.13 C0.19 5.88, 0.12 5.62, 0.07 5.36 C0.02 5.1, 0 4.83, 0 4.57 C0 4.3, 0.02 4.03, 0.07 3.77 C0.12 3.51, 0.19 3.25, 0.28 3 C0.37 2.76, 0.48 2.51, 0.61 2.28 C0.74 2.05, 0.9 1.83, 1.07 1.63 C1.24 1.43, 1.43 1.24, 1.63 1.07 C1.83 0.9, 2.05 0.74, 2.28 0.61 C2.51 0.48, 2.76 0.37, 3 0.28 C3.25 0.19, 3.51 0.12, 3.77 0.07 C4.03 0.02, 4.3 0, 4.57 0 C4.83 0, 5.1 0.02, 5.36 0.07 C5.62 0.12, 5.88 0.19, 6.13 0.28 C6.38 0.37, 6.62 0.48, 6.85 0.61 C7.08 0.74, 7.3 0.9, 7.5 1.07 C7.7 1.24, 7.9 1.43, 8.07 1.63 C8.23 1.83, 8.39 2.05, 8.52 2.28 C8.65 2.51, 8.77 2.76, 8.86 3 C8.95 3.25, 9.02 3.51, 9.06 3.77 C9.11 4.03, 9.12 4.43, 9.13 4.57 C9.15 4.7, 9.15 4.43, 9.13 4.57" stroke="#000000" stroke-width="2" fill="none"></path></g><g stroke-linecap="round" transform="translate(81.25201281348563 45.41036446682119) rotate(0 4.566746329805483 4.566746329805483)"><path d="M9.13 4.57 C9.13 4.83, 9.11 5.1, 9.06 5.36 C9.02 5.62, 8.95 5.88, 8.86 6.13 C8.77 6.38, 8.65 6.62, 8.52 6.85 C8.39 7.08, 8.23 7.3, 8.07 7.5 C7.9 7.7, 7.7 7.9, 7.5 8.07 C7.3 8.23, 7.08 8.39, 6.85 8.52 C6.62 8.65, 6.38 8.77, 6.13 8.86 C5.88 8.95, 5.62 9.02, 5.36 9.06 C5.1 9.11, 4.83 9.13, 4.57 9.13 C4.3 9.13, 4.03 9.11, 3.77 9.06 C3.51 9.02, 3.25 8.95, 3 8.86 C2.76 8.77, 2.51 8.65, 2.28 8.52 C2.05 8.39, 1.83 8.23, 1.63 8.07 C1.43 7.9, 1.24 7.7, 1.07 7.5 C0.9 7.3, 0.74 7.08, 0.61 6.85 C0.48 6.62, 0.37 6.38, 0.28 6.13 C0.19 5.88, 0.12 5.62, 0.07 5.36 C0.02 5.1, 0 4.83, 0 4.57 C0 4.3, 0.02 4.03, 0.07 3.77 C0.12 3.51, 0.19 3.25, 0.28 3 C0.37 2.76, 0.48 2.51, 0.61 2.28 C0.74 2.05, 0.9 1.83, 1.07 1.63 C1.24 1.43, 1.43 1.24, 1.63 1.07 C1.83 0.9, 2.05 0.74, 2.28 0.61 C2.51 0.48, 2.76 0.37, 3 0.28 C3.25 0.19, 3.51 0.12, 3.77 0.07 C4.03 0.02, 4.3 0, 4.57 0 C4.83 0, 5.1 0.02, 5.36 0.07 C5.62 0.12, 5.88 0.19, 6.13 0.28 C6.38 0.37, 6.62 0.48, 6.85 0.61 C7.08 0.74, 7.3 0.9, 7.5 1.07 C7.7 1.24, 7.9 1.43, 8.07 1.63 C8.23 1.83, 8.39 2.05, 8.52 2.28 C8.65 2.51, 8.77 2.76, 8.86 3 C8.95 3.25, 9.02 3.51, 9.06 3.77 C9.11 4.03, 9.12 4.43, 9.13 4.57 C9.15 4.7, 9.15 4.43, 9.13 4.57" stroke="#000000" stroke-width="2" fill="none"></path></g><g stroke-linecap="round" transform="translate(61.54289707432554 56.94740782633016) rotate(0 4.566746329805483 4.566746329805483)"><path d="M9.13 4.57 C9.13 4.83, 9.11 5.1, 9.06 5.36 C9.02 5.62, 8.95 5.88, 8.86 6.13 C8.77 6.38, 8.65 6.62, 8.52 6.85 C8.39 7.08, 8.23 7.3, 8.07 7.5 C7.9 7.7, 7.7 7.9, 7.5 8.07 C7.3 8.23, 7.08 8.39, 6.85 8.52 C6.62 8.65, 6.38 8.77, 6.13 8.86 C5.88 8.95, 5.62 9.02, 5.36 9.06 C5.1 9.11, 4.83 9.13, 4.57 9.13 C4.3 9.13, 4.03 9.11, 3.77 9.06 C3.51 9.02, 3.25 8.95, 3 8.86 C2.76 8.77, 2.51 8.65, 2.28 8.52 C2.05 8.39, 1.83 8.23, 1.63 8.07 C1.43 7.9, 1.24 7.7, 1.07 7.5 C0.9 7.3, 0.74 7.08, 0.61 6.85 C0.48 6.62, 0.37 6.38, 0.28 6.13 C0.19 5.88, 0.12 5.62, 0.07 5.36 C0.02 5.1, 0 4.83, 0 4.57 C0 4.3, 0.02 4.03, 0.07 3.77 C0.12 3.51, 0.19 3.25, 0.28 3 C0.37 2.76, 0.48 2.51, 0.61 2.28 C0.74 2.05, 0.9 1.83, 1.07 1.63 C1.24 1.43, 1.43 1.24, 1.63 1.07 C1.83 0.9, 2.05 0.74, 2.28 0.61 C2.51 0.48, 2.76 0.37, 3 0.28 C3.25 0.19, 3.51 0.12, 3.77 0.07 C4.03 0.02, 4.3 0, 4.57 0 C4.83 0, 5.1 0.02, 5.36 0.07 C5.62 0.12, 5.88 0.19, 6.13 0.28 C6.38 0.37, 6.62 0.48, 6.85 0.61 C7.08 0.74, 7.3 0.9, 7.5 1.07 C7.7 1.24, 7.9 1.43, 8.07 1.63 C8.23 1.83, 8.39 2.05, 8.52 2.28 C8.65 2.51, 8.77 2.76, 8.86 3 C8.95 3.25, 9.02 3.51, 9.06 3.77 C9.11 4.03, 9.12 4.43, 9.13 4.57 C9.15 4.7, 9.15 4.43, 9.13 4.57" stroke="#000000" stroke-width="2" fill="none"></path></g><g stroke-linecap="round" transform="translate(42.074136405155514 44.20858911687537) rotate(0 4.566746329805483 4.566746329805483)"><path d="M9.13 4.57 C9.13 4.83, 9.11 5.1, 9.06 5.36 C9.02 5.62, 8.95 5.88, 8.86 6.13 C8.77 6.38, 8.65 6.62, 8.52 6.85 C8.39 7.08, 8.23 7.3, 8.07 7.5 C7.9 7.7, 7.7 7.9, 7.5 8.07 C7.3 8.23, 7.08 8.39, 6.85 8.52 C6.62 8.65, 6.38 8.77, 6.13 8.86 C5.88 8.95, 5.62 9.02, 5.36 9.06 C5.1 9.11, 4.83 9.13, 4.57 9.13 C4.3 9.13, 4.03 9.11, 3.77 9.06 C3.51 9.02, 3.25 8.95, 3 8.86 C2.76 8.77, 2.51 8.65, 2.28 8.52 C2.05 8.39, 1.83 8.23, 1.63 8.07 C1.43 7.9, 1.24 7.7, 1.07 7.5 C0.9 7.3, 0.74 7.08, 0.61 6.85 C0.48 6.62, 0.37 6.38, 0.28 6.13 C0.19 5.88, 0.12 5.62, 0.07 5.36 C0.02 5.1, 0 4.83, 0 4.57 C0 4.3, 0.02 4.03, 0.07 3.77 C0.12 3.51, 0.19 3.25, 0.28 3 C0.37 2.76, 0.48 2.51, 0.61 2.28 C0.74 2.05, 0.9 1.83, 1.07 1.63 C1.24 1.43, 1.43 1.24, 1.63 1.07 C1.83 0.9, 2.05 0.74, 2.28 0.61 C2.51 0.48, 2.76 0.37, 3 0.28 C3.25 0.19, 3.51 0.12, 3.77 0.07 C4.03 0.02, 4.3 0, 4.57 0 C4.83 0, 5.1 0.02, 5.36 0.07 C5.62 0.12, 5.88 0.19, 6.13 0.28 C6.38 0.37, 6.62 0.48, 6.85 0.61 C7.08 0.74, 7.3 0.9, 7.5 1.07 C7.7 1.24, 7.9 1.43, 8.07 1.63 C8.23 1.83, 8.39 2.05, 8.52 2.28 C8.65 2.51, 8.77 2.76, 8.86 3 C8.95 3.25, 9.02 3.51, 9.06 3.77 C9.11 4.03, 9.12 4.43, 9.13 4.57 C9.15 4.7, 9.15 4.43, 9.13 4.57" stroke="#000000" stroke-width="2" fill="none"></path></g><g stroke-linecap="round" transform="translate(43.27591175510406 22.095922677814087) rotate(0 4.566746329805483 4.566746329805483)"><path d="M9.13 4.57 C9.13 4.83, 9.11 5.1, 9.06 5.36 C9.02 5.62, 8.95 5.88, 8.86 6.13 C8.77 6.38, 8.65 6.62, 8.52 6.85 C8.39 7.08, 8.23 7.3, 8.07 7.5 C7.9 7.7, 7.7 7.9, 7.5 8.07 C7.3 8.23, 7.08 8.39, 6.85 8.52 C6.62 8.65, 6.38 8.77, 6.13 8.86 C5.88 8.95, 5.62 9.02, 5.36 9.06 C5.1 9.11, 4.83 9.13, 4.57 9.13 C4.3 9.13, 4.03 9.11, 3.77 9.06 C3.51 9.02, 3.25 8.95, 3 8.86 C2.76 8.77, 2.51 8.65, 2.28 8.52 C2.05 8.39, 1.83 8.23, 1.63 8.07 C1.43 7.9, 1.24 7.7, 1.07 7.5 C0.9 7.3, 0.74 7.08, 0.61 6.85 C0.48 6.62, 0.37 6.38, 0.28 6.13 C0.19 5.88, 0.12 5.62, 0.07 5.36 C0.02 5.1, 0 4.83, 0 4.57 C0 4.3, 0.02 4.03, 0.07 3.77 C0.12 3.51, 0.19 3.25, 0.28 3 C0.37 2.76, 0.48 2.51, 0.61 2.28 C0.74 2.05, 0.9 1.83, 1.07 1.63 C1.24 1.43, 1.43 1.24, 1.63 1.07 C1.83 0.9, 2.05 0.74, 2.28 0.61 C2.51 0.48, 2.76 0.37, 3 0.28 C3.25 0.19, 3.51 0.12, 3.77 0.07 C4.03 0.02, 4.3 0, 4.57 0 C4.83 0, 5.1 0.02, 5.36 0.07 C5.62 0.12, 5.88 0.19, 6.13 0.28 C6.38 0.37, 6.62 0.48, 6.85 0.61 C7.08 0.74, 7.3 0.9, 7.5 1.07 C7.7 1.24, 7.9 1.43, 8.07 1.63 C8.23 1.83, 8.39 2.05, 8.52 2.28 C8.65 2.51, 8.77 2.76, 8.86 3 C8.95 3.25, 9.02 3.51, 9.06 3.77 C9.11 4.03, 9.12 4.43, 9.13 4.57 C9.15 4.7, 9.15 4.43, 9.13 4.57" stroke="#000000" stroke-width="2" fill="none"></path></g><g stroke-linecap="round" transform="translate(54.81295511461212 27.383734217590245) rotate(0 11.29668828951867 11.29668828951867)"><path d="M22.59 11.3 C22.59 11.95, 22.54 12.61, 22.42 13.26 C22.31 13.9, 22.14 14.55, 21.91 15.16 C21.69 15.77, 21.41 16.38, 21.08 16.95 C20.75 17.51, 20.37 18.06, 19.95 18.56 C19.53 19.06, 19.06 19.53, 18.56 19.95 C18.06 20.37, 17.51 20.75, 16.95 21.08 C16.38 21.41, 15.77 21.69, 15.16 21.91 C14.55 22.14, 13.9 22.31, 13.26 22.42 C12.61 22.54, 11.95 22.59, 11.3 22.59 C10.64 22.59, 9.98 22.54, 9.34 22.42 C8.69 22.31, 8.05 22.14, 7.43 21.91 C6.82 21.69, 6.21 21.41, 5.65 21.08 C5.08 20.75, 4.54 20.37, 4.04 19.95 C3.53 19.53, 3.06 19.06, 2.64 18.56 C2.22 18.06, 1.84 17.51, 1.51 16.95 C1.19 16.38, 0.9 15.77, 0.68 15.16 C0.46 14.55, 0.29 13.9, 0.17 13.26 C0.06 12.61, 0 11.95, 0 11.3 C0 10.64, 0.06 9.98, 0.17 9.34 C0.29 8.69, 0.46 8.05, 0.68 7.43 C0.9 6.82, 1.19 6.21, 1.51 5.65 C1.84 5.08, 2.22 4.54, 2.64 4.04 C3.06 3.53, 3.53 3.06, 4.04 2.64 C4.54 2.22, 5.08 1.84, 5.65 1.51 C6.21 1.19, 6.82 0.9, 7.43 0.68 C8.05 0.46, 8.69 0.29, 9.34 0.17 C9.98 0.06, 10.64 0, 11.3 0 C11.95 0, 12.61 0.06, 13.26 0.17 C13.9 0.29, 14.55 0.46, 15.16 0.68 C15.77 0.9, 16.38 1.19, 16.95 1.51 C17.51 1.84, 18.06 2.22, 18.56 2.64 C19.06 3.06, 19.53 3.53, 19.95 4.04 C20.37 4.54, 20.75 5.08, 21.08 5.65 C21.41 6.21, 21.69 6.82, 21.91 7.43 C22.14 8.05, 22.31 8.69, 22.42 9.34 C22.54 9.98, 22.56 10.97, 22.59 11.3 C22.62 11.62, 22.62 10.97, 22.59 11.3" stroke="#000000" stroke-width="2" fill="none"></path></g><g stroke-linecap="round"><g transform="translate(50.486563854796714 46.37178474677785) rotate(0 2.6439057698873967 -1.5623079549334307)"><path d="M0 0 C0.88 -0.52, 4.41 -2.6, 5.29 -3.12 M0 0 C0.88 -0.52, 4.41 -2.6, 5.29 -3.12" stroke="#000000" stroke-width="2" fill="none"></path></g></g><mask></mask><g stroke-linecap="round"><g transform="translate(66.10964340413102 19.45201690792601) rotate(0 0 3.845681119836172)"><path d="M0 0 C0 1.28, 0 6.41, 0 7.69 M0 0 C0 1.28, 0 6.41, 0 7.69" stroke="#000000" stroke-width="2" fill="none"></path></g></g><mask></mask><g stroke-linecap="round"><g transform="translate(66.10964340413102 50.217465866615385) rotate(0 0 3.3649709798567073)"><path d="M0 0 C0 1.12, 0 5.61, 0 6.73 M0 0 C0 1.12, 0 5.61, 0 6.73" stroke="#000000" stroke-width="2" fill="none"></path></g></g><mask></mask><g stroke-linecap="round"><g transform="translate(75.24313606374199 31.950480547391635) rotate(0 3.4851485148515167 -1.68248548992824)"><path d="M0 0 C1.16 -0.56, 5.81 -2.8, 6.97 -3.36 M0 0 C1.16 -0.56, 5.81 -2.8, 6.97 -3.36" stroke="#000000" stroke-width="2" fill="none"></path></g></g><mask></mask><g stroke-linecap="round"><g transform="translate(51.44798413475564 29.306574777507194) rotate(0 2.52372823489236 1.8026630249232767)"><path d="M0 0 C0.84 0.6, 4.21 3, 5.05 3.61 M0 0 C0.84 0.6, 4.21 3, 5.05 3.61" stroke="#000000" stroke-width="2" fill="none"></path></g></g><mask></mask><g stroke-linecap="round"><g transform="translate(76.44491141369053 43.72787897689341) rotate(0 2.764083304882206 1.8026630249232767)"><path d="M0 0 C0.92 0.6, 4.61 3, 5.53 3.61 M0 0 C0.92 0.6, 4.61 3, 5.53 3.61" stroke="#000000" stroke-width="2" fill="none"></path></g></g><mask></mask></svg>