<svg xmlns="http://www.w3.org/2000/svg" viewBox="1645.51 3114.99 122.74 93.17" width="123" height="93"><text x="1651.51" y="3198.16" font-size="20" fill="#000000" opacity="1.0" font-family="sans-serif">IoT sensor</text><polyline points="1701.10,3150.98 1686.88,3150.16 1683.51,3145.41 1683.51,3141.60 1685.80,3136.76 1689.87,3134.73 1691.14,3134.47 1690.38,3133.96 1690.89,3128.11 1694.19,3123.53 1700.05,3120.99 1706.15,3121.49 1710.99,3124.29 1713.79,3128.36 1714.30,3129.64 1715.82,3128.36 1719.13,3127.60 1722.44,3129.13 1724.22,3131.93 1723.20,3134.98 1724.98,3134.47 1729.56,3136.25 1731.60,3141.85 1730.58,3147.19 1725.88,3150.83 1712.05,3150.98" fill="none" stroke="#40c057" stroke-width="2" opacity="1.0" stroke-linecap="round" stroke-linejoin="round"/><polyline points="1706.25,3159.34 1706.53,3138.78" fill="none" stroke="#40c057" stroke-width="2" opacity="1.0" stroke-linecap="round" stroke-linejoin="round"/><rect x="1682.11" y="3159.89" width="49.17" height="14.85" rx="0" stroke="#40c057" stroke-width="2" opacity="1.0" fill="none"/><ellipse cx="1690.19" cy="3167.35" rx="2.97" ry="2.97" stroke="#40c057" stroke-width="2" opacity="1.0" fill="none"/><polyline points="1703.23,3170.29 1706.62,3164.42 1710.00,3170.29 1703.23,3170.29" fill="none" stroke="#40c057" stroke-width="2" opacity="1.0" stroke-linecap="round" stroke-linejoin="round"/></svg>