<svg version="1.1" xmlns="http://www.w3.org/2000/svg" viewBox="0 0 64.97999954223633 89.52651832217452" width="64.97999954223633" height="89.52651832217452">
  <!-- svg-source:excalidraw -->
  
  <defs>
    
    
  </defs>
  <g stroke-linecap="round" transform="translate(41.80952380952385 6) rotate(0 6.666666666666515 6.666666666666629)"><path d="M13.33 6.67 C13.33 7.05, 13.3 7.44, 13.23 7.82 C13.17 8.2, 13.06 8.58, 12.93 8.95 C12.8 9.31, 12.63 9.67, 12.44 10 C12.25 10.33, 12.02 10.66, 11.77 10.95 C11.53 11.25, 11.25 11.53, 10.95 11.77 C10.66 12.02, 10.33 12.25, 10 12.44 C9.67 12.63, 9.31 12.8, 8.95 12.93 C8.58 13.06, 8.2 13.17, 7.82 13.23 C7.44 13.3, 7.05 13.33, 6.67 13.33 C6.28 13.33, 5.89 13.3, 5.51 13.23 C5.13 13.17, 4.75 13.06, 4.39 12.93 C4.02 12.8, 3.67 12.63, 3.33 12.44 C3 12.25, 2.68 12.02, 2.38 11.77 C2.09 11.53, 1.81 11.25, 1.56 10.95 C1.31 10.66, 1.09 10.33, 0.89 10 C0.7 9.67, 0.53 9.31, 0.4 8.95 C0.27 8.58, 0.17 8.2, 0.1 7.82 C0.03 7.44, 0 7.05, 0 6.67 C0 6.28, 0.03 5.89, 0.1 5.51 C0.17 5.13, 0.27 4.75, 0.4 4.39 C0.53 4.02, 0.7 3.67, 0.89 3.33 C1.09 3, 1.31 2.68, 1.56 2.38 C1.81 2.09, 2.09 1.81, 2.38 1.56 C2.68 1.31, 3 1.09, 3.33 0.89 C3.67 0.7, 4.02 0.53, 4.39 0.4 C4.75 0.27, 5.13 0.17, 5.51 0.1 C5.89 0.03, 6.28 0, 6.67 0 C7.05 0, 7.44 0.03, 7.82 0.1 C8.2 0.17, 8.58 0.27, 8.95 0.4 C9.31 0.53, 9.67 0.7, 10 0.89 C10.33 1.09, 10.66 1.31, 10.95 1.56 C11.25 1.81, 11.53 2.09, 11.77 2.38 C12.02 2.68, 12.25 3, 12.44 3.33 C12.63 3.67, 12.8 4.02, 12.93 4.39 C13.06 4.75, 13.17 5.13, 13.23 5.51 C13.3 5.89, 13.32 6.47, 13.33 6.67 C13.35 6.86, 13.35 6.47, 13.33 6.67" stroke="#e95d8e" stroke-width="2" fill="none"></path></g><g stroke-linecap="round" transform="translate(10.904761904761926 25.523809523809177) rotate(0 5.714285714285779 10.952380952380963)"><path d="M0 0 C3.88 0, 7.76 0, 11.43 0 M0 0 C3.82 0, 7.63 0, 11.43 0 M11.43 0 C11.43 8.5, 11.43 17, 11.43 21.9 M11.43 0 C11.43 5.78, 11.43 11.56, 11.43 21.9 M11.43 21.9 C8.58 21.9, 5.72 21.9, 0 21.9 M11.43 21.9 C8.67 21.9, 5.9 21.9, 0 21.9 M0 21.9 C0 14.49, 0 7.08, 0 0 M0 21.9 C0 16.69, 0 11.48, 0 0" stroke="#e95d8e" stroke-width="2" fill="none"></path></g><g stroke-linecap="round" transform="translate(27.547619047619264 31.277777777777374) rotate(0 5.476190476190595 8.075396825396979)"><path d="M0 0 C4.12 0, 8.24 0, 10.95 0 M0 0 C3.66 0, 7.32 0, 10.95 0 M10.95 0 C10.95 3.43, 10.95 6.86, 10.95 16.15 M10.95 0 C10.95 6.07, 10.95 12.14, 10.95 16.15 M10.95 16.15 C6.97 16.15, 2.99 16.15, 0 16.15 M10.95 16.15 C7.02 16.15, 3.1 16.15, 0 16.15 M0 16.15 C0 12.41, 0 8.67, 0 0 M0 16.15 C0 11.77, 0 7.38, 0 0" stroke="#e95d8e" stroke-width="2" fill="none"></path></g><g stroke-linecap="round"><g transform="translate(8.95238095238119 51.285714285713766) rotate(0 24.047619047619037 0)"><path d="M0 0 C8.02 0, 40.08 0, 48.1 0 M0 0 C8.02 0, 40.08 0, 48.1 0" stroke="#e95d8e" stroke-width="2" fill="none"></path></g></g><mask></mask><g stroke-linecap="round"><g transform="translate(43.71428571428578 22.460486743169895) rotate(0 4.969387755101707 12.484042342700263)"><path d="M0 0 C0 6.29, 0 12.58, 0 24.92 M0 0 C0 5.8, 0 11.6, 0 24.92 M0 24.92 C3.07 24.94, 6.13 24.95, 9.81 24.97 M0 24.92 C3.84 24.94, 7.69 24.96, 9.81 24.97 M9.81 24.97 C9.86 15.79, 9.91 6.6, 9.94 0 M9.81 24.97 C9.85 17.74, 9.89 10.52, 9.94 0 M9.94 0 C9.31 0.45, 8.67 0.91, 8.34 1.15 M9.94 0 C9.61 0.24, 9.28 0.47, 8.34 1.15 M8.34 1.15 C7.56 1.37, 6.78 1.59, 6.1 1.79 M8.34 1.15 C7.89 1.28, 7.44 1.41, 6.1 1.79 M6.1 1.79 C5.33 1.79, 4.57 1.79, 4.03 1.79 M6.1 1.79 C5.59 1.79, 5.08 1.79, 4.03 1.79 M4.03 1.79 C3.33 1.6, 2.63 1.42, 1.79 1.19 M4.03 1.79 C3.45 1.64, 2.86 1.48, 1.79 1.19 M1.79 1.19 C1.15 0.77, 0.52 0.35, 0 0 M1.79 1.19 C1.35 0.9, 0.91 0.61, 0 0" stroke="#e95d8e" stroke-width="2" fill="none"></path></g></g><mask></mask><g transform="translate(6 59.526518322174525) rotate(0 26.489999771118164 12)"><text x="0" y="0" font-family="Virgil, Segoe UI Emoji" font-size="20px" fill="#000000" text-anchor="start" style="white-space: pre;" direction="ltr" dominant-baseline="text-before-edge">Alarm</text></g></svg>