<svg xmlns="http://www.w3.org/2000/svg" viewBox="772.75 1311.45 75.74 103.23" width="76" height="103"><text x="788.62" y="1404.68" font-size="20" fill="#000000" opacity="1.0" font-family="sans-serif">Glue</text><rect x="778.75" y="1317.45" width="63.74" height="63.68" rx="0" stroke="#000000" stroke-width="2" opacity="1.0" fill="none"/><polyline points="813.46,1358.68 813.20,1355.37 823.38,1340.36" fill="none" stroke="#000000" stroke-width="2" opacity="1.0" stroke-linecap="round" stroke-linejoin="round"/><polyline points="808.09,1358.68 808.34,1355.37 798.16,1340.36" fill="none" stroke="#000000" stroke-width="2" opacity="1.0" stroke-linecap="round" stroke-linejoin="round"/><polyline points="808.37,1358.94 812.95,1358.94" fill="none" stroke="#000000" stroke-width="2" opacity="1.0" stroke-linecap="round" stroke-linejoin="round"/><polyline points="798.69,1340.03 803.53,1342.32 810.40,1342.57 817.78,1342.32 823.64,1340.03 818.29,1338.25" fill="none" stroke="#000000" stroke-width="2" opacity="1.0" stroke-linecap="round" stroke-linejoin="round"/><polyline points="798.13,1339.85 802.72,1338.83 807.81,1338.32" fill="none" stroke="#000000" stroke-width="2" opacity="1.0" stroke-linecap="round" stroke-linejoin="round"/><rect x="810.94" y="1327.66" width="3.56" height="3.56" rx="0" stroke="#000000" stroke-width="2" opacity="1.0" fill="none"/><rect x="804.06" y="1332.69" width="3.56" height="3.56" rx="0" stroke="#000000" stroke-width="2" opacity="1.0" fill="none"/><rect x="812.21" y="1335.52" width="3.56" height="3.56" rx="0" stroke="#000000" stroke-width="2" opacity="1.0" fill="none"/><polyline points="812.11,1361.25 811.93,1364.82 816.05,1365.00 810.50,1370.01 805.14,1365.00 808.89,1364.82 808.89,1361.25" fill="none" stroke="#000000" stroke-width="2" opacity="1.0" stroke-linecap="round" stroke-linejoin="round"/></svg>