<svg xmlns="http://www.w3.org/2000/svg" viewBox="571.33 2351.06 88.80 94.65" width="89" height="95"><rect x="586.25" y="2357.06" width="53.16" height="54.38" rx="0" stroke="#279185" stroke-width="2" opacity="1.0" fill="none"/><polyline points="586.66,2367.69 639.41,2367.28" fill="none" stroke="#279185" stroke-width="2" opacity="1.0" stroke-linecap="round" stroke-linejoin="round"/><polyline points="592.79,2362.17 595.65,2362.17" fill="none" stroke="#279185" stroke-width="2" opacity="1.0" stroke-linecap="round" stroke-linejoin="round"/><polyline points="600.77,2362.17 603.22,2362.17" fill="none" stroke="#279185" stroke-width="2" opacity="1.0" stroke-linecap="round" stroke-linejoin="round"/><polyline points="603.83,2373.82 617.33,2373.82" fill="none" stroke="#279185" stroke-width="2" opacity="1.0" stroke-linecap="round" stroke-linejoin="round"/><polyline points="618.96,2392.22 631.23,2404.08" fill="none" stroke="#279185" stroke-width="2" opacity="1.0" stroke-linecap="round" stroke-linejoin="round"/><polyline points="617.74,2391.41 618.14,2398.36" fill="none" stroke="#279185" stroke-width="2" opacity="1.0" stroke-linecap="round" stroke-linejoin="round"/><polyline points="618.14,2391.00 625.10,2391.00" fill="none" stroke="#279185" stroke-width="2" opacity="1.0" stroke-linecap="round" stroke-linejoin="round"/><polyline points="621.82,2405.72 601.38,2405.31 601.38,2381.59 633.27,2381.18 633.68,2394.27" fill="none" stroke="#279185" stroke-width="2" opacity="1.0" stroke-linecap="round" stroke-linejoin="round"/><polyline points="592.38,2382.00 592.38,2387.32" fill="none" stroke="#279185" stroke-width="2" opacity="1.0" stroke-linecap="round" stroke-linejoin="round"/><polyline points="592.38,2377.50 592.38,2373.82" fill="none" stroke="#279185" stroke-width="2" opacity="1.0" stroke-linecap="round" stroke-linejoin="round"/><polyline points="592.79,2373.82 597.70,2373.82" fill="none" stroke="#279185" stroke-width="2" opacity="1.0" stroke-linecap="round" stroke-linejoin="round"/><polyline points="628.78,2377.30 628.78,2374.44" fill="none" stroke="#279185" stroke-width="2" opacity="1.0" stroke-linecap="round" stroke-linejoin="round"/><polyline points="623.87,2373.82 628.78,2373.82" fill="none" stroke="#279185" stroke-width="2" opacity="1.0" stroke-linecap="round" stroke-linejoin="round"/><polyline points="592.38,2396.11 592.38,2392.43" fill="none" stroke="#279185" stroke-width="2" opacity="1.0" stroke-linecap="round" stroke-linejoin="round"/><polyline points="592.38,2396.72 596.47,2396.72" fill="none" stroke="#279185" stroke-width="2" opacity="1.0" stroke-linecap="round" stroke-linejoin="round"/><text x="577.33" y="2435.71" font-size="20" fill="#000000" opacity="1.0" font-family="sans-serif">Canvas</text></svg>