<svg version="1.1" xmlns="http://www.w3.org/2000/svg" viewBox="0 0 168.52000427246094 129.9452905270955" width="168.52000427246094" height="129.9452905270955">
  <!-- svg-source:excalidraw -->
  
  <defs>
    
    
  </defs>
  <g stroke-linecap="round"><g transform="translate(58.725538119256726 23.63024224597939) rotate(0 14.116621765086848 -5.725799367891341)"><path d="M0 0 C1.59 0.01, 3.18 0.01, 6.94 0.03 M0 0 C2.68 0.01, 5.36 0.02, 6.94 0.03 M6.94 0.03 C7.87 -1.56, 8.8 -3.14, 10.22 -5.58 M6.94 0.03 C7.63 -1.15, 8.32 -2.32, 10.22 -5.58 M10.22 -5.58 C12.93 -5.57, 15.64 -5.57, 18 -5.56 M10.22 -5.58 C11.86 -5.58, 13.49 -5.57, 18 -5.56 M18 -5.56 C18.9 -4.15, 19.79 -2.74, 21.58 0.06 M18 -5.56 C19.37 -3.41, 20.74 -1.25, 21.58 0.06 M21.58 0.06 C23.2 0.07, 24.83 0.08, 28.23 0.1 M21.58 0.06 C23 0.07, 24.41 0.08, 28.23 0.1 M28.23 0.1 C26.59 -2.82, 24.94 -5.73, 21.66 -11.52 M28.23 0.1 C26.33 -3.26, 24.43 -6.62, 21.66 -11.52 M21.66 -11.52 C15.82 -11.53, 9.98 -11.54, 6.78 -11.55 M21.66 -11.52 C18.37 -11.52, 15.08 -11.53, 6.78 -11.55 M6.78 -11.55 C5.25 -8.96, 3.73 -6.36, 0 0 M6.78 -11.55 C5.06 -8.62, 3.34 -5.7, 0 0" stroke="#000000" stroke-width="2" fill="none"></path></g></g><mask></mask><g stroke-linecap="round"><g transform="translate(58.78102851001859 25.45666601503399) rotate(0 6.4033073073019295 5.8586274112670935)"><path d="M0 0 C1.47 0, 2.94 0, 6.84 0 M0 0 C2.09 0, 4.19 0, 6.84 0 M6.84 0 C8.59 3.44, 10.34 6.88, 12.81 11.72 M6.84 0 C9.2 4.63, 11.55 9.25, 12.81 11.72 M12.81 11.72 C10.53 11.72, 8.26 11.72, 6.62 11.72 M12.81 11.72 C11.43 11.72, 10.05 11.72, 6.62 11.72 M6.62 11.72 C4.27 7.56, 1.93 3.41, 0 0 M6.62 11.72 C4.24 7.5, 1.86 3.29, 0 0" stroke="#000000" stroke-width="2" fill="none"></path></g></g><mask></mask><g stroke-linecap="round"><g transform="translate(70.79124498635747 31.604845701491286) rotate(0 4.574408746337667 2.82958290504007)"><path d="M0 0 C0.67 1.35, 1.33 2.69, 2.76 5.57 M0 0 C1.09 2.2, 2.18 4.4, 2.76 5.57 M2.76 5.57 C4.6 5.6, 6.44 5.62, 9.15 5.66 M2.76 5.57 C4.27 5.59, 5.78 5.61, 9.15 5.66 M9.15 5.66 C8.05 3.62, 6.96 1.58, 6.12 0.02 M9.15 5.66 C8.01 3.54, 6.87 1.42, 6.12 0.02 M6.12 0.02 C4.54 0.02, 2.96 0.01, 0 0 M6.12 0.02 C4.76 0.02, 3.4 0.01, 0 0" stroke="#000000" stroke-width="2" fill="none"></path></g></g><mask></mask><g stroke-linecap="round"><g transform="translate(77.96113290821813 30.065383797216782) rotate(0 4.545969839977033 0.6207816973633271)"><path d="M0 0 C0.7 1.18, 1.4 2.36, 3.33 5.6 M0 0 C1.27 2.13, 2.53 4.26, 3.33 5.6 M3.33 5.6 C5.39 2.04, 7.45 -1.53, 9.09 -4.36 M3.33 5.6 C4.56 3.47, 5.79 1.34, 9.09 -4.36 M9.09 -4.36 C7.34 -4.36, 5.59 -4.36, 2.15 -4.36 M9.09 -4.36 C7.63 -4.36, 6.16 -4.36, 2.15 -4.36 M2.15 -4.36 C1.61 -3.25, 1.06 -2.14, 0 0 M2.15 -4.36 C1.33 -2.68, 0.5 -1.01, 0 0" stroke="#000000" stroke-width="2" fill="none"></path></g></g><mask></mask><g stroke-linecap="round"><g transform="translate(82.30880456174145 37.30815999551305) rotate(0 14.161909727493594 -5.949239904918045)"><path d="M0 0 C2.47 0, 4.94 0, 6.76 0 M0 0 C1.48 0, 2.96 0, 6.76 0 M6.76 0 C7.67 -1.59, 8.58 -3.19, 10.15 -5.92 M6.76 0 C7.96 -2.09, 9.15 -4.18, 10.15 -5.92 M10.15 -5.92 C12.31 -5.92, 14.46 -5.92, 18.11 -5.92 M10.15 -5.92 C11.99 -5.92, 13.83 -5.92, 18.11 -5.92 M18.11 -5.92 C19.05 -4.26, 19.99 -2.6, 21.48 0.06 M18.11 -5.92 C19.24 -3.91, 20.38 -1.9, 21.48 0.06 M21.48 0.06 C24.16 0.06, 26.84 0.06, 28.32 0.06 M21.48 0.06 C23.36 0.06, 25.24 0.06, 28.32 0.06 M28.32 0.06 C26.03 -3.99, 23.74 -8.03, 21.58 -11.84 M28.32 0.06 C25.65 -4.66, 22.97 -9.39, 21.58 -11.84 M21.58 -11.84 C18.38 -11.86, 15.19 -11.89, 6.83 -11.96 M21.58 -11.84 C17 -11.88, 12.43 -11.91, 6.83 -11.96 M6.83 -11.96 C4.71 -8.24, 2.59 -4.52, 0 0 M6.83 -11.96 C4.82 -8.43, 2.8 -4.91, 0 0" stroke="#000000" stroke-width="2" fill="none"></path></g></g><mask></mask><g stroke-linecap="round"><g transform="translate(110.69228701766906 50.97695351121911) rotate(180 -14.221572728434921 -5.949239904918045)"><path d="M0 0 C-2.56 0, -5.12 0, -6.76 0 M0 0 C-2.41 0, -4.82 0, -6.76 0 M-6.76 0 C-7.62 -1.5, -8.48 -3.01, -10.15 -5.92 M-6.76 0 C-8.06 -2.27, -9.35 -4.53, -10.15 -5.92 M-10.15 -5.92 C-12.13 -5.92, -14.1 -5.92, -18.11 -5.92 M-10.15 -5.92 C-13 -5.92, -15.86 -5.92, -18.11 -5.92 M-18.11 -5.92 C-19.12 -4.12, -20.14 -2.32, -21.48 0.06 M-18.11 -5.92 C-18.79 -4.72, -19.47 -3.51, -21.48 0.06 M-21.48 0.06 C-23.82 0.02, -26.15 -0.02, -28.44 -0.06 M-21.48 0.06 C-23.67 0.02, -25.86 -0.02, -28.44 -0.06 M-28.44 -0.06 C-25.7 -4.71, -22.95 -9.37, -21.46 -11.9 M-28.44 -0.06 C-26.34 -3.62, -24.24 -7.19, -21.46 -11.9 M-21.46 -11.9 C-17.49 -11.91, -13.53 -11.93, -6.83 -11.96 M-21.46 -11.9 C-15.88 -11.92, -10.29 -11.94, -6.83 -11.96 M-6.83 -11.96 C-5.1 -8.93, -3.38 -5.91, 0 0 M-6.83 -11.96 C-4.71 -8.25, -2.59 -4.54, 0 0" stroke="#000000" stroke-width="2" fill="none"></path></g></g><mask></mask><g stroke-linecap="round"><g transform="translate(65.34945645036396 38.7589011836244) rotate(0 7.280716859404492 12.780042199418176)"><path d="M0 0 C-2.62 4.4, -5.24 8.8, -7.52 12.63 M0 0 C-2.15 3.62, -4.31 7.23, -7.52 12.63 M-7.52 12.63 C-5.31 16.53, -3.09 20.43, -0.18 25.56 M-7.52 12.63 C-4.61 17.75, -1.71 22.87, -0.18 25.56 M-0.18 25.56 C2.89 25.55, 5.96 25.54, 14.66 25.52 M-0.18 25.56 C4.21 25.55, 8.59 25.54, 14.66 25.52 M14.66 25.52 C16.28 22.75, 17.91 19.98, 22.08 12.87 M14.66 25.52 C16.16 22.96, 17.67 20.4, 22.08 12.87 M22.08 12.87 C19.36 8.16, 16.64 3.44, 14.68 0.06 M22.08 12.87 C20.01 9.28, 17.94 5.69, 14.68 0.06 M14.68 0.06 C8.9 0.04, 3.12 0.01, 0 0 M14.68 0.06 C10.98 0.04, 7.28 0.03, 0 0" stroke="#000000" stroke-width="2" fill="none"></path></g></g><mask></mask><g stroke-linecap="round"><g transform="translate(72.63017330976754 43.666998886763395) rotate(90.1304901722431 0 7.871944496284186)"><path d="M0 0 C1.92 1.11, 3.85 2.22, 6.82 3.94 M0 0 C1.43 0.83, 2.86 1.65, 6.82 3.94 M6.82 3.94 C6.82 6.68, 6.82 9.42, 6.82 11.81 M6.82 3.94 C6.82 5.59, 6.82 7.24, 6.82 11.81 M6.82 11.81 C5.11 12.79, 3.41 13.78, 0 15.74 M6.82 11.81 C4.21 13.31, 1.6 14.82, 0 15.74 M0 15.74 C-1.66 14.78, -3.33 13.82, -6.82 11.81 M0 15.74 C-1.45 14.91, -2.9 14.07, -6.82 11.81 M-6.82 11.81 C-6.82 9.83, -6.82 7.86, -6.82 3.94 M-6.82 11.81 C-6.82 9.53, -6.82 7.25, -6.82 3.94 M-6.82 3.94 C-4.14 2.39, -1.47 0.85, 0 0 M-6.82 3.94 C-5.31 3.07, -3.8 2.2, 0 0" stroke="#000000" stroke-width="2" fill="none"></path></g></g><mask></mask><g stroke-linecap="round" transform="translate(52.0294259537518 6) rotate(0 32.230576182478444 32.19971236713013)"><path d="M0 0 C0 0, 0 0, 0 0 M0 0 C0 0, 0 0, 0 0 M0.13 12.04 C2.39 9.45, 4.64 6.85, 10.63 -0.03 M0.13 12.04 C2.48 9.34, 4.83 6.64, 10.63 -0.03 M0.27 24.08 C6.45 16.97, 12.63 9.86, 21.26 -0.07 M0.27 24.08 C8.23 14.92, 16.2 5.76, 21.26 -0.07 M-0.26 36.88 C12.53 22.17, 25.32 7.46, 31.89 -0.1 M-0.26 36.88 C6.9 28.64, 14.07 20.4, 31.89 -0.1 M-0.12 48.92 C16.56 29.73, 33.24 10.54, 42.52 -0.14 M-0.12 48.92 C14.62 31.96, 29.37 14.99, 42.52 -0.14 M0.01 60.96 C14.36 44.45, 28.71 27.95, 53.15 -0.17 M0.01 60.96 C20.33 37.58, 40.66 14.2, 53.15 -0.17 M7.36 64.7 C23.84 45.74, 40.31 26.79, 63.78 -0.21 M7.36 64.7 C25.66 43.64, 43.97 22.59, 63.78 -0.21 M17.99 64.66 C27.88 53.28, 37.77 41.91, 64.57 11.08 M17.99 64.66 C33.66 46.64, 49.32 28.62, 64.57 11.08 M28.62 64.63 C36.47 55.6, 44.32 46.57, 64.7 23.12 M28.62 64.63 C38.42 53.35, 48.23 42.07, 64.7 23.12 M39.25 64.59 C48.47 53.99, 57.68 43.39, 64.84 35.16 M39.25 64.59 C46.63 56.11, 54.01 47.62, 64.84 35.16 M49.88 64.56 C54.3 59.47, 58.72 54.39, 64.97 47.2 M49.88 64.56 C55.38 58.24, 60.88 51.91, 64.97 47.2 M60.51 64.53 C61.71 63.15, 62.9 61.78, 64.45 60 M60.51 64.53 C61.74 63.11, 62.97 61.69, 64.45 60 M-0.19 64.24 C-0.19 64.24, -0.19 64.24, -0.19 64.24 M-0.19 64.24 C-0.19 64.24, -0.19 64.24, -0.19 64.24 M11.85 64.1 C7.17 60.04, 2.49 55.97, -0.22 53.61 M11.85 64.1 C8.77 61.43, 5.7 58.75, -0.22 53.61 M24.65 64.63 C16.72 57.73, 8.79 50.84, -0.26 42.98 M24.65 64.63 C14.84 56.1, 5.03 47.57, -0.26 42.98 M36.69 64.49 C28.88 57.7, 21.07 50.91, -0.29 32.35 M36.69 64.49 C28.22 57.13, 19.76 49.78, -0.29 32.35 M48.73 64.36 C31.94 49.76, 15.15 35.17, -0.33 21.72 M48.73 64.36 C34.71 52.17, 20.69 39.98, -0.33 21.72 M60.77 64.23 C40.66 46.74, 20.55 29.26, -0.36 11.09 M60.77 64.23 C41.19 47.2, 21.61 30.18, -0.36 11.09 M65.26 57.53 C48.13 42.64, 30.99 27.74, 0.36 1.11 M65.26 57.53 C50.15 44.39, 35.03 31.25, 0.36 1.11 M65.23 46.9 C46.23 30.38, 27.23 13.87, 10.89 -0.33 M65.23 46.9 C49.76 33.45, 34.28 20, 10.89 -0.33 M65.2 36.27 C55.37 27.74, 45.55 19.2, 22.93 -0.47 M65.2 36.27 C56.18 28.43, 47.16 20.59, 22.93 -0.47 M65.16 25.64 C58.01 19.43, 50.86 13.21, 34.97 -0.6 M65.16 25.64 C57.67 19.13, 50.18 12.62, 34.97 -0.6 M65.13 15.01 C59.91 10.47, 54.69 5.94, 47.77 -0.08 M65.13 15.01 C61.2 11.6, 57.28 8.19, 47.77 -0.08 M65.09 4.38 C63.99 3.42, 62.89 2.46, 59.81 -0.21 M65.09 4.38 C64 3.43, 62.91 2.48, 59.81 -0.21" stroke="#e6498088" stroke-width="1" fill="none"></path><path d="M0 0 C18.92 0, 37.83 0, 64.46 0 M0 0 C25.46 0, 50.91 0, 64.46 0 M64.46 0 C64.46 23.66, 64.46 47.31, 64.46 64.4 M64.46 0 C64.46 14.37, 64.46 28.74, 64.46 64.4 M64.46 64.4 C41.61 64.4, 18.76 64.4, 0 64.4 M64.46 64.4 C41.28 64.4, 18.11 64.4, 0 64.4 M0 64.4 C0 38.96, 0 13.51, 0 0 M0 64.4 C0 50.15, 0 35.89, 0 0" stroke="#000000" stroke-width="2" fill="none"></path></g><g transform="translate(6 75.9452905270955) rotate(0 78.26000213623047 24)"><text x="78.26000213623047" y="0" font-family="Virgil, Segoe UI Emoji" font-size="20px" fill="#000000" text-anchor="middle" style="white-space: pre;" direction="ltr" dominant-baseline="text-before-edge">Well-Architected</text><text x="78.26000213623047" y="24" font-family="Virgil, Segoe UI Emoji" font-size="20px" fill="#000000" text-anchor="middle" style="white-space: pre;" direction="ltr" dominant-baseline="text-before-edge">Tool</text></g></svg>