<svg xmlns="http://www.w3.org/2000/svg" viewBox="2360.97 3406.87 104.38 109.25" width="104" height="109"><text x="2366.97" y="3489.83" font-size="20" fill="#000000" opacity="1.0" font-family="sans-serif">Resolver</text><polyline points="2408.27,3466.45 2404.85,3463.03 2398.28,3460.46 2391.15,3458.75 2387.44,3457.32 2382.58,3451.90 2381.73,3444.48 2384.87,3437.91 2387.15,3433.34 2386.29,3426.78 2382.58,3422.78" fill="none" stroke="#7950f2" stroke-width="2" opacity="1.0" stroke-linecap="round" stroke-linejoin="round"/><polyline points="2408.38,3466.45 2411.80,3463.03 2418.37,3460.46 2425.50,3458.75 2429.21,3457.32 2434.06,3451.90 2434.92,3444.48 2431.78,3437.91 2429.50,3433.34 2430.35,3426.78 2434.06,3422.78" fill="none" stroke="#7950f2" stroke-width="2" opacity="1.0" stroke-linecap="round" stroke-linejoin="round"/><polyline points="2382.01,3422.57 2389.72,3413.44 2392.57,3415.72 2397.14,3417.43 2401.13,3417.15 2404.27,3415.72 2407.70,3412.87" fill="none" stroke="#7950f2" stroke-width="2" opacity="1.0" stroke-linecap="round" stroke-linejoin="round"/><polyline points="2433.67,3422.57 2425.96,3413.44 2423.11,3415.72 2418.54,3417.43 2414.55,3417.15 2411.41,3415.72 2407.98,3412.87" fill="none" stroke="#7950f2" stroke-width="2" opacity="1.0" stroke-linecap="round" stroke-linejoin="round"/><ellipse cx="2408.33" cy="3429.53" rx="5.02" ry="5.02" stroke="#7950f2" stroke-width="2" opacity="1.0" fill="none"/><ellipse cx="2396.88" cy="3444.61" rx="5.02" ry="5.02" stroke="#7950f2" stroke-width="2" opacity="1.0" fill="none"/><ellipse cx="2420.05" cy="3444.61" rx="5.02" ry="5.02" stroke="#7950f2" stroke-width="2" opacity="1.0" fill="none"/><polyline points="2411.12,3433.72 2416.70,3440.42" fill="none" stroke="#7950f2" stroke-width="2" opacity="1.0" stroke-linecap="round" stroke-linejoin="round"/><polyline points="2399.68,3439.86 2405.29,3433.78" fill="none" stroke="#7950f2" stroke-width="2" opacity="1.0" stroke-linecap="round" stroke-linejoin="round"/></svg>