<svg version="1.1" xmlns="http://www.w3.org/2000/svg" viewBox="0 0 83.77593994140625 104.34378445538209" width="83.77593994140625" height="104.34378445538209">
  <!-- svg-source:excalidraw -->
  
  <defs>
    
    
  </defs>
  <g stroke-linecap="round" transform="translate(12.86258972556243 6) rotate(0 32.2305761824785 32.199712367130076)"><path d="M1.58 -0.06 L64.67 1.74 L64.17 66.22 L1.73 62.62" stroke="none" stroke-width="0" fill="#eb3b40"></path><path d="M0 0 C16.99 0.77, 32.87 1.53, 64.46 0 M0 0 C17.43 0.63, 34.03 0.82, 64.46 0 M64.46 0 C63.24 24.15, 64.48 49.3, 64.46 64.4 M64.46 0 C64.85 15.4, 63.59 30.82, 64.46 64.4 M64.46 64.4 C50.29 62.81, 33.36 64.71, 0 64.4 M64.46 64.4 C41.13 64.21, 18.37 65.16, 0 64.4 M0 64.4 C0.08 43.29, -0.94 24.7, 0 0 M0 64.4 C-1.08 45.82, -0.03 28.48, 0 0" stroke="#00000000" stroke-width="2" fill="none"></path></g><g stroke-linecap="round" transform="translate(10.452197850886478 10.760010558965064) rotate(0 32.2305761824785 32.199712367130076)"><path d="M0 0 C0 0, 0 0, 0 0 M0 0 C0 0, 0 0, 0 0 M-0.26 6.4 C1.22 4.7, 2.7 3, 4.99 0.36 M-0.26 6.4 C1.37 4.52, 3 2.65, 4.99 0.36 M0.13 12.04 C4.24 7.32, 8.34 2.6, 10.63 -0.03 M0.13 12.04 C3.02 8.72, 5.91 5.4, 10.63 -0.03 M-0.13 18.44 C3.17 14.65, 6.46 10.85, 15.62 0.33 M-0.13 18.44 C5.53 11.93, 11.19 5.42, 15.62 0.33 M0.27 24.08 C5.01 18.63, 9.75 13.17, 21.26 -0.07 M0.27 24.08 C5.99 17.5, 11.71 10.92, 21.26 -0.07 M0 30.48 C10.35 18.58, 20.69 6.68, 26.25 0.29 M0 30.48 C9.15 19.96, 18.29 9.44, 26.25 0.29 M-0.26 36.88 C10.34 24.68, 20.94 12.49, 31.89 -0.1 M-0.26 36.88 C12.55 22.14, 25.36 7.41, 31.89 -0.1 M0.14 42.52 C7.72 33.8, 15.31 25.07, 36.88 0.26 M0.14 42.52 C9.85 31.35, 19.55 20.18, 36.88 0.26 M-0.12 48.92 C14.95 31.58, 30.03 14.23, 42.52 -0.14 M-0.12 48.92 C11.45 35.61, 23.02 22.29, 42.52 -0.14 M0.27 54.56 C16.92 35.41, 33.57 16.25, 47.51 0.22 M0.27 54.56 C18.32 33.8, 36.37 13.04, 47.51 0.22 M0.01 60.96 C12.44 46.66, 24.87 32.36, 53.15 -0.17 M0.01 60.96 C13.23 45.76, 26.44 30.55, 53.15 -0.17 M1.72 65.09 C22.84 40.79, 43.97 16.49, 58.14 0.19 M1.72 65.09 C22.39 41.31, 43.07 17.52, 58.14 0.19 M7.36 64.7 C23.92 45.65, 40.48 26.6, 63.78 -0.21 M7.36 64.7 C25.81 43.48, 44.25 22.26, 63.78 -0.21 M12.35 65.06 C30.73 43.91, 49.12 22.75, 64.83 4.68 M12.35 65.06 C31.82 42.66, 51.28 20.26, 64.83 4.68 M17.99 64.66 C33.86 46.4, 49.74 28.14, 64.57 11.08 M17.99 64.66 C29.25 51.71, 40.51 38.76, 64.57 11.08 M22.98 65.02 C39.53 45.98, 56.09 26.94, 64.96 16.72 M22.98 65.02 C37.17 48.69, 51.37 32.36, 64.96 16.72 M28.62 64.63 C41.99 49.25, 55.35 33.88, 64.7 23.12 M28.62 64.63 C41.88 49.37, 55.15 34.11, 64.7 23.12 M33.61 64.99 C44.59 52.35, 55.58 39.72, 64.44 29.52 M33.61 64.99 C42.85 54.36, 52.08 43.73, 64.44 29.52 M39.25 64.59 C45.97 56.86, 52.7 49.13, 64.84 35.16 M39.25 64.59 C44.84 58.17, 50.42 51.74, 64.84 35.16 M44.24 64.95 C50.79 57.42, 57.34 49.88, 64.57 41.56 M44.24 64.95 C49.85 58.49, 55.47 52.03, 64.57 41.56 M49.88 64.56 C54.17 59.63, 58.46 54.69, 64.97 47.2 M49.88 64.56 C55.11 58.54, 60.34 52.52, 64.97 47.2 M54.87 64.92 C57.95 61.37, 61.04 57.82, 64.71 53.6 M54.87 64.92 C58.58 60.64, 62.3 56.37, 64.71 53.6 M60.51 64.53 C62.03 62.77, 63.56 61.02, 64.45 60 M60.51 64.53 C61.47 63.42, 62.43 62.31, 64.45 60" stroke="#eb3b40" stroke-width="0.5" fill="none"></path><path d="M0 0 C24.68 0, 49.35 0, 64.46 0 M0 0 C16.55 0, 33.11 0, 64.46 0 M64.46 0 C64.46 25.55, 64.46 51.11, 64.46 64.4 M64.46 0 C64.46 21.49, 64.46 42.98, 64.46 64.4 M64.46 64.4 C41.55 64.4, 18.64 64.4, 0 64.4 M64.46 64.4 C45.89 64.4, 27.32 64.4, 0 64.4 M0 64.4 C0 46.56, 0 28.71, 0 0 M0 64.4 C0 51.22, 0 38.03, 0 0" stroke="#000000" stroke-width="1" fill="none"></path></g><g transform="translate(6 78.34378445538209) rotate(0 35.887969970703125 10)"><text x="35.887969970703125" y="0" font-family="Virgil, Segoe UI Emoji" font-size="16px" fill="#000000" text-anchor="middle" style="white-space: pre;" direction="ltr" dominant-baseline="text-before-edge">AWS WAF</text></g><g stroke-linecap="round"><g transform="translate(19.915715239868405 20.09348893779702) rotate(0 4.95059626145968 4.950596261459623)"><path d="M0 0 C3.91 3.91, 7.83 7.83, 9.9 9.9 M0 0 C2.71 2.71, 5.41 5.41, 9.9 9.9" stroke="#ffffff" stroke-width="2" fill="none"></path></g></g><mask></mask><g stroke-linecap="round"><g transform="translate(56.909274272906714 56.98327266560466) rotate(0 4.95059626145968 4.950596261459623)"><path d="M0 0 C3.91 3.91, 7.83 7.83, 9.9 9.9 M0 0 C2.71 2.71, 5.41 5.41, 9.9 9.9" stroke="#ffffff" stroke-width="2" fill="none"></path></g></g><mask></mask><g stroke-linecap="round"><g transform="translate(66.44865559650873 19.0818025295506) rotate(0 -3.795745398522456 3.798550136501717)"><path d="M0 0 C-3 3, -6 6.01, -7.59 7.6 M0 0 C-2.08 2.08, -4.15 4.15, -7.59 7.6" stroke="#ffffff" stroke-width="2" fill="none"></path></g></g><mask></mask><g stroke-linecap="round"><g transform="translate(27.27371160014468 58.81032573089101) rotate(0 -3.795745398522456 3.798550136501717)"><path d="M0 0 C-3 3, -6 6.01, -7.59 7.6 M0 0 C-2.08 2.08, -4.15 4.15, -7.59 7.6" stroke="#ffffff" stroke-width="2" fill="none"></path></g></g><mask></mask><g stroke-linecap="round"><g transform="translate(18.753852531983398 44.34068249617883) rotate(0 2.4218912450425023 0)"><path d="M0 0 C1.62 0, 3.23 0, 4.84 0 M0 0 C1.9 0, 3.81 0, 4.84 0" stroke="#ffffff" stroke-width="2" fill="none"></path></g></g><mask></mask><g stroke-linecap="round"><g transform="translate(66.00200107332034 44.77635179561514) rotate(0 2.4218912450425023 0)"><path d="M0 0 C1.62 0, 3.23 0, 4.84 0 M0 0 C1.9 0, 3.81 0, 4.84 0" stroke="#ffffff" stroke-width="2" fill="none"></path></g></g><mask></mask><g stroke-linecap="round"><g transform="translate(42.268308293298105 20.748395255941432) rotate(89.99999999999994 2.4218912450425023 0)"><path d="M0 0 C1.62 0, 3.23 0, 4.84 0 M0 0 C1.9 0, 3.81 0, 4.84 0" stroke="#ffffff" stroke-width="2" fill="none"></path></g></g><mask></mask><g stroke-linecap="round"><g transform="translate(41.83263899386179 67.99654379727826) rotate(89.99999999999994 2.4218912450425023 0)"><path d="M0 0 C1.62 0, 3.23 0, 4.84 0 M0 0 C1.9 0, 3.81 0, 4.84 0" stroke="#ffffff" stroke-width="2" fill="none"></path></g></g><mask></mask><g stroke-linecap="round"><g transform="translate(31.686374511408076 25.109426686827305) rotate(0 12.444008032617717 -2.0816367015090123)"><path d="M0 0 C0.57 -0.34, 2.07 -1.41, 3.44 -2.04 C4.82 -2.67, 6.62 -3.42, 8.23 -3.77 C9.84 -4.12, 11.53 -4.17, 13.12 -4.16 C14.7 -4.15, 16.31 -4, 17.75 -3.71 C19.19 -3.43, 20.58 -2.96, 21.77 -2.46 C22.96 -1.96, 24.37 -1.01, 24.89 -0.71 M0 0 C0.57 -0.34, 2.07 -1.41, 3.44 -2.04 C4.82 -2.67, 6.62 -3.42, 8.23 -3.77 C9.84 -4.12, 11.53 -4.17, 13.12 -4.16 C14.7 -4.15, 16.31 -4, 17.75 -3.71 C19.19 -3.43, 20.58 -2.96, 21.77 -2.46 C22.96 -1.96, 24.37 -1.01, 24.89 -0.71" stroke="#ffffff" stroke-width="2" fill="none"></path></g></g><mask></mask><g stroke-linecap="round"><g transform="translate(53.83821611518897 46.15890399857733) rotate(89.99999999999994 12.480265797925881 -1.6367441217818168)"><path d="M0 0 C0.59 -0.29, 2.18 -1.28, 3.56 -1.77 C4.93 -2.26, 6.67 -2.69, 8.27 -2.95 C9.88 -3.22, 11.6 -3.37, 13.19 -3.36 C14.78 -3.35, 16.38 -3.19, 17.82 -2.91 C19.26 -2.63, 20.66 -2.16, 21.85 -1.66 C23.04 -1.16, 24.44 -0.2, 24.96 0.09 M0 0 C0.59 -0.29, 2.18 -1.28, 3.56 -1.77 C4.93 -2.26, 6.67 -2.69, 8.27 -2.95 C9.88 -3.22, 11.6 -3.37, 13.19 -3.36 C14.78 -3.35, 16.38 -3.19, 17.82 -2.91 C19.26 -2.63, 20.66 -2.16, 21.85 -1.66 C23.04 -1.16, 24.44 -0.2, 24.96 0.09" stroke="#ffffff" stroke-width="2" fill="none"></path></g></g><mask></mask><g stroke-linecap="round"><g transform="translate(10.651362535475414 45.9424414484929) rotate(270 12.272273617205428 -1.5720681079887981)"><path d="M0 0 C0.61 -0.3, 2.34 -1.31, 3.65 -1.8 C4.96 -2.28, 6.34 -2.64, 7.86 -2.89 C9.38 -3.14, 11.18 -3.3, 12.77 -3.3 C14.37 -3.29, 15.96 -3.13, 17.4 -2.85 C18.85 -2.56, 20.24 -2.09, 21.43 -1.59 C22.62 -1.09, 24.03 -0.14, 24.54 0.15 M0 0 C0.61 -0.3, 2.34 -1.31, 3.65 -1.8 C4.96 -2.28, 6.34 -2.64, 7.86 -2.89 C9.38 -3.14, 11.18 -3.3, 12.77 -3.3 C14.37 -3.29, 15.96 -3.13, 17.4 -2.85 C18.85 -2.56, 20.24 -2.09, 21.43 -1.59 C22.62 -1.09, 24.03 -0.14, 24.54 0.15" stroke="#ffffff" stroke-width="2" fill="none"></path></g></g><mask></mask><g stroke-linecap="round"><g transform="translate(30.925206424837484 67.14911381027889) rotate(180 12.957986354350794 -1.335902663686852)"><path d="M0 0 C0.58 -0.3, 2.09 -1.25, 3.5 -1.81 C4.92 -2.36, 6.96 -3.05, 8.49 -3.36 C10.02 -3.67, 11.15 -3.72, 12.68 -3.65 C14.21 -3.58, 16.22 -3.28, 17.68 -2.94 C19.13 -2.59, 20.04 -2.22, 21.42 -1.56 C22.79 -0.91, 25.17 0.55, 25.92 0.98 M0 0 C0.58 -0.3, 2.09 -1.25, 3.5 -1.81 C4.92 -2.36, 6.96 -3.05, 8.49 -3.36 C10.02 -3.67, 11.15 -3.72, 12.68 -3.65 C14.21 -3.58, 16.22 -3.28, 17.68 -2.94 C19.13 -2.59, 20.04 -2.22, 21.42 -1.56 C22.79 -0.91, 25.17 0.55, 25.92 0.98" stroke="#ffffff" stroke-width="2" fill="none"></path></g></g><mask></mask><g stroke-linecap="round"><g transform="translate(44.425851322727794 59.925897477750254) rotate(0 -0.1599960475878106 -15.7376097972504)" fill-rule="evenodd"><path d="M-9.92 -25.85 C-9.92 -25.85, -9.92 -25.85, -9.92 -25.85 M-9.92 -25.85 C-9.92 -25.85, -9.92 -25.85, -9.92 -25.85 M-12.41 -10.79 C-8.46 -15.34, -4.51 -19.88, 2.02 -27.39 M-12.41 -10.79 C-9.21 -14.48, -6 -18.16, 2.02 -27.39 M-8.34 -3.28 C-4.28 -7.94, -0.22 -12.61, 6.75 -20.63 M-8.34 -3.28 C-4.32 -7.9, -0.31 -12.52, 6.75 -20.63 M-0.99 0.46 C3.84 -5.1, 8.67 -10.66, 13.44 -16.14 M-0.99 0.46 C3.18 -4.33, 7.35 -9.13, 13.44 -16.14" stroke="#eb3b4000" stroke-width="1" fill="none"></path><path d="M0 0 C1.15 -0.44, 5.02 -1.5, 6.88 -2.64 C8.73 -3.77, 10.13 -4.89, 11.13 -6.79 C12.12 -8.68, 12.77 -11.77, 12.86 -14.01 C12.94 -16.25, 12 -19.62, 11.64 -20.21 C11.29 -20.81, 11.39 -18.57, 10.71 -17.58 C10.03 -16.58, 8.31 -13.71, 7.58 -14.26 C6.85 -14.8, 6.84 -19.04, 6.35 -20.83 C5.86 -22.63, 5.46 -23.8, 4.64 -25.05 C3.81 -26.3, 2.83 -27.27, 1.41 -28.35 C-0.01 -29.42, -3.05 -31.39, -3.88 -31.48 C-4.72 -31.56, -3.65 -29.84, -3.57 -28.88 C-3.5 -27.92, -3.27 -27.09, -3.45 -25.74 C-3.62 -24.38, -3.97 -21.1, -4.64 -20.73 C-5.31 -20.35, -6.56 -22.68, -7.47 -23.49 C-8.38 -24.31, -9.65 -25.48, -10.1 -25.64 C-10.55 -25.81, -10.12 -25.45, -10.15 -24.47 C-10.19 -23.5, -9.79 -21.81, -10.3 -19.8 C-10.8 -17.78, -12.96 -14.76, -13.18 -12.38 C-13.39 -10, -12.86 -7.37, -11.62 -5.52 C-10.37 -3.67, -7.63 -2.21, -5.7 -1.29 C-3.76 -0.37, -0.95 -0.21, 0 0 M0 0 C1.15 -0.44, 5.02 -1.5, 6.88 -2.64 C8.73 -3.77, 10.13 -4.89, 11.13 -6.79 C12.12 -8.68, 12.77 -11.77, 12.86 -14.01 C12.94 -16.25, 12 -19.62, 11.64 -20.21 C11.29 -20.81, 11.39 -18.57, 10.71 -17.58 C10.03 -16.58, 8.31 -13.71, 7.58 -14.26 C6.85 -14.8, 6.84 -19.04, 6.35 -20.83 C5.86 -22.63, 5.46 -23.8, 4.64 -25.05 C3.81 -26.3, 2.83 -27.27, 1.41 -28.35 C-0.01 -29.42, -3.05 -31.39, -3.88 -31.48 C-4.72 -31.56, -3.65 -29.84, -3.57 -28.88 C-3.5 -27.92, -3.27 -27.09, -3.45 -25.74 C-3.62 -24.38, -3.97 -21.1, -4.64 -20.73 C-5.31 -20.35, -6.56 -22.68, -7.47 -23.49 C-8.38 -24.31, -9.65 -25.48, -10.1 -25.64 C-10.55 -25.81, -10.12 -25.45, -10.15 -24.47 C-10.19 -23.5, -9.79 -21.81, -10.3 -19.8 C-10.8 -17.78, -12.96 -14.76, -13.18 -12.38 C-13.39 -10, -12.86 -7.37, -11.62 -5.52 C-10.37 -3.67, -7.63 -2.21, -5.7 -1.29 C-3.76 -0.37, -0.95 -0.21, 0 0" stroke="#ffffff" stroke-width="2" fill="none"></path></g></g><mask></mask><g stroke-linecap="round"><g transform="translate(42.79795764927076 29.4190874547038) rotate(0 1.4373341052844921 15.104737450965615)"><path d="M0 0 C0.48 1.42, 2.71 5.7, 2.87 8.5 C3.04 11.3, 1.44 14.12, 0.97 16.8 C0.51 19.49, -0.01 22.35, 0.08 24.59 C0.16 26.82, 1.26 29.27, 1.49 30.21 M0 0 C0.48 1.42, 2.71 5.7, 2.87 8.5 C3.04 11.3, 1.44 14.12, 0.97 16.8 C0.51 19.49, -0.01 22.35, 0.08 24.59 C0.16 26.82, 1.26 29.27, 1.49 30.21" stroke="#ffffff" stroke-width="2" fill="none"></path></g></g><mask></mask></svg>