<svg xmlns="http://www.w3.org/2000/svg" viewBox="-164.33 2152.58 281.51 176.55" width="282" height="177"><rect x="-158.33" y="2158.58" width="269.51" height="164.55" rx="0" stroke="#e64980" stroke-width="2" opacity="1.0" fill="none"/><rect x="-158.15" y="2158.82" width="39.15" height="39.15" rx="0" stroke="#e64980" stroke-width="2" opacity="1.0" fill="none"/><ellipse cx="-138.90" cy="2165.33" rx="1.74" ry="1.74" stroke="#000000" stroke-width="2" opacity="1.0" fill="none"/><ellipse cx="-138.86" cy="2191.46" rx="1.74" ry="1.74" stroke="#000000" stroke-width="2" opacity="1.0" fill="none"/><rect x="-154.07" y="2172.86" width="11.48" height="3.78" rx="0" stroke="#000000" stroke-width="2" opacity="1.0" fill="none"/><rect x="-154.02" y="2180.25" width="11.48" height="3.78" rx="0" stroke="#000000" stroke-width="2" opacity="1.0" fill="none"/><rect x="-134.55" y="2175.96" width="11.48" height="5.13" rx="0" stroke="#000000" stroke-width="2" opacity="1.0" fill="none"/><polyline points="-148.17,2176.96 -148.17,2180.02" fill="none" stroke="#000000" stroke-width="2" opacity="1.0" stroke-linecap="round" stroke-linejoin="round"/><polyline points="-148.09,2170.30 -128.25,2170.30" fill="none" stroke="#000000" stroke-width="2" opacity="1.0" stroke-linecap="round" stroke-linejoin="round"/><polyline points="-148.44,2169.72 -148.44,2172.78" fill="none" stroke="#000000" stroke-width="2" opacity="1.0" stroke-linecap="round" stroke-linejoin="round"/><polyline points="-128.79,2170.18 -128.79,2173.78" fill="none" stroke="#000000" stroke-width="2" opacity="1.0" stroke-linecap="round" stroke-linejoin="round"/><polyline points="-138.89,2167.37 -138.89,2170.13" fill="none" stroke="#000000" stroke-width="2" opacity="1.0" stroke-linecap="round" stroke-linejoin="round"/><polyline points="-148.08,2186.87 -128.23,2186.87" fill="none" stroke="#000000" stroke-width="2" opacity="1.0" stroke-linecap="round" stroke-linejoin="round"/><polyline points="-138.87,2186.38 -138.87,2189.29" fill="none" stroke="#000000" stroke-width="2" opacity="1.0" stroke-linecap="round" stroke-linejoin="round"/><polyline points="-148.11,2184.35 -148.11,2187.42" fill="none" stroke="#000000" stroke-width="2" opacity="1.0" stroke-linecap="round" stroke-linejoin="round"/><polyline points="-128.81,2183.67 -128.81,2187.27" fill="none" stroke="#000000" stroke-width="2" opacity="1.0" stroke-linecap="round" stroke-linejoin="round"/><text x="-110.02" y="2182.46" font-size="20" fill="#000000" opacity="1.0" font-family="sans-serif">AWS Step Functions 
Workflow</text></svg>