<svg version="1.1" xmlns="http://www.w3.org/2000/svg" viewBox="0 0 120 118.4287095470454" width="120" height="118.4287095470454">
  <!-- svg-source:excalidraw -->
  
  <defs>
    
    
  </defs>
  <g stroke-linecap="round" transform="translate(33.47060448575962 6) rotate(0 32.326690673828125 32.326690673828125)"><path d="M-2.28 -3.62 L60.87 2.02 L63.41 60.86 L-1.7 61.07" stroke="none" stroke-width="0" fill="#e64980"></path><path d="M-0.11 0.96 C20.38 -4.67, 38.39 -4.55, 67.38 2.83 M-1.63 0.97 C14.81 1.55, 27.25 2.61, 64.21 1.33 M61.07 -1.76 C67.27 15.66, 61.79 29.13, 65.22 61.62 M64.52 -0.88 C67.17 18.07, 66.04 32.35, 63.17 63.65 M63.22 60.87 C46.03 66.23, 34.12 65.73, 2.18 63.14 M63 63.42 C48.11 64.12, 29.25 65.99, 1.73 64.65 M-2 66.1 C2.59 37, -3.91 15.88, 3.69 -3.14 M-0.93 63.07 C2.47 52.07, 1.93 38.26, -1.37 -0.53" stroke="#00000000" stroke-width="1" fill="none"></path></g><g stroke-linecap="round" transform="translate(27.633418127818913 6.118666127691654) rotate(0 32.326690673828125 32.326690673828125)"><path d="M0 0 C0 0, 0 0, 0 0 M0 0 C0 0, 0 0, 0 0 M-0.26 6.4 C0.93 5.03, 2.12 3.66, 4.99 0.36 M-0.26 6.4 C1.26 4.64, 2.79 2.89, 4.99 0.36 M0.13 12.04 C3.06 8.68, 5.98 5.31, 10.63 -0.03 M0.13 12.04 C4.23 7.33, 8.32 2.62, 10.63 -0.03 M-0.13 18.44 C5.91 11.49, 11.96 4.54, 15.62 0.33 M-0.13 18.44 C4.14 13.53, 8.41 8.62, 15.62 0.33 M0.27 24.08 C7.87 15.33, 15.48 6.58, 21.26 -0.07 M0.27 24.08 C7.86 15.35, 15.45 6.62, 21.26 -0.07 M0 30.48 C8.92 20.23, 17.83 9.97, 26.25 0.29 M0 30.48 C9.71 19.32, 19.41 8.16, 26.25 0.29 M-0.26 36.88 C12.59 22.09, 25.44 7.31, 31.89 -0.1 M-0.26 36.88 C11.98 22.8, 24.22 8.72, 31.89 -0.1 M0.14 42.52 C12.57 28.21, 25.01 13.91, 36.88 0.26 M0.14 42.52 C9.48 31.77, 18.82 21.03, 36.88 0.26 M-0.12 48.92 C13.39 33.38, 26.9 17.83, 42.52 -0.14 M-0.12 48.92 C13.56 33.18, 27.24 17.44, 42.52 -0.14 M0.27 54.56 C10.36 42.95, 20.45 31.35, 47.51 0.22 M0.27 54.56 C18.16 33.98, 36.05 13.4, 47.51 0.22 M0.01 60.96 C14.83 43.91, 29.65 26.86, 53.15 -0.17 M0.01 60.96 C20.8 37.04, 41.59 13.13, 53.15 -0.17 M1.72 65.09 C17.92 46.45, 34.12 27.82, 58.14 0.19 M1.72 65.09 C17.68 46.73, 33.64 28.37, 58.14 0.19 M7.36 64.7 C29.38 39.37, 51.4 14.04, 63.78 -0.21 M7.36 64.7 C20.74 49.31, 34.12 33.92, 63.78 -0.21 M12.35 65.06 C26.55 48.72, 40.75 32.38, 64.83 4.68 M12.35 65.06 C27.7 47.4, 43.05 29.74, 64.83 4.68 M17.99 64.66 C36.36 43.54, 54.72 22.41, 64.57 11.08 M17.99 64.66 C29.16 51.81, 40.33 38.96, 64.57 11.08 M22.98 65.02 C38.27 47.43, 53.57 29.83, 64.96 16.72 M22.98 65.02 C32.18 54.44, 41.38 43.85, 64.96 16.72 M27.96 65.38 C41.68 49.6, 55.41 33.82, 64.7 23.12 M27.96 65.38 C35.92 56.24, 43.87 47.09, 64.7 23.12 M33.61 64.99 C44.87 52.03, 56.14 39.07, 65.1 28.76 M33.61 64.99 C41.81 55.55, 50.02 46.11, 65.1 28.76 M38.59 65.35 C45.14 57.82, 51.68 50.3, 64.84 35.16 M38.59 65.35 C46.99 55.69, 55.39 46.02, 64.84 35.16 M44.24 64.95 C50.94 57.25, 57.64 49.54, 64.57 41.56 M44.24 64.95 C50.34 57.93, 56.45 50.9, 64.57 41.56 M49.22 65.31 C53.67 60.2, 58.11 55.09, 64.97 47.2 M49.22 65.31 C54.58 59.16, 59.93 53, 64.97 47.2 M54.87 64.92 C58.28 60.99, 61.7 57.06, 64.71 53.6 M54.87 64.92 C56.91 62.57, 58.96 60.21, 64.71 53.6 M59.85 65.28 C61.81 63.03, 63.76 60.79, 65.1 59.24 M59.85 65.28 C60.91 64.07, 61.96 62.86, 65.1 59.24" stroke="#e64980" stroke-width="0.5" fill="none"></path><path d="M0 0 C24.05 0, 48.1 0, 64.65 0 M0 0 C23.58 0, 47.17 0, 64.65 0 M64.65 0 C64.65 17.95, 64.65 35.91, 64.65 64.65 M64.65 0 C64.65 22.05, 64.65 44.1, 64.65 64.65 M64.65 64.65 C47.72 64.65, 30.79 64.65, 0 64.65 M64.65 64.65 C40.41 64.65, 16.16 64.65, 0 64.65 M0 64.65 C0 44.39, 0 24.13, 0 0 M0 64.65 C0 48.76, 0 32.88, 0 0" stroke="#000000" stroke-width="1" fill="none"></path></g><g stroke-linecap="round"><g transform="translate(53.52991847330168 26.21476165071772) rotate(0 7.584660526743164 0)"><path d="M0 0 C3.38 0, 6.76 0, 15.17 0" stroke="#ffffff" stroke-width="2.5" fill="none" stroke-dasharray="1.5 8"></path></g></g><mask></mask><g stroke-linecap="round"><g transform="translate(52.058024119859965 50.99365616921398) rotate(0 8.568918700631556 0)"><path d="M0 0 C6.31 0, 12.62 0, 17.14 0" stroke="#ffffff" stroke-width="2.5" fill="none" stroke-dasharray="1.5 8"></path></g></g><mask></mask><g stroke-linecap="round"><g transform="translate(35.257474511548025 22.044101084178692) rotate(0 8.477523156769635 16.805789676925713)"><path d="M0 0 C6.19 -2.7, 12.39 -5.41, 16.96 -7.4 M0 0 C5.5 -2.4, 10.99 -4.8, 16.96 -7.4 M16.96 -7.4 C16.93 5.89, 16.91 19.18, 16.87 41.01 M16.96 -7.4 C16.93 7.91, 16.9 23.21, 16.87 41.01 M16.87 41.01 C11.44 38.57, 6.02 36.12, 0.08 33.45 M16.87 41.01 C11.53 38.61, 6.19 36.2, 0.08 33.45 M0.08 33.45 C0.05 22.49, 0.03 11.53, 0 0 M0.08 33.45 C0.06 24.27, 0.04 15.09, 0 0" stroke="#ffffff" stroke-width="2" fill="none"></path></g></g><mask></mask><g stroke-linecap="round"><g transform="translate(69.71851819084804 14.458489624971662) rotate(0 8.488387643005254 24.139529940593718)"><path d="M0 0 C0.05 13.16, 0.11 26.31, 0.2 48.28 M0 0 C0.08 19.03, 0.16 38.06, 0.2 48.28 M0.2 48.28 C6.04 45.73, 11.88 43.17, 16.96 40.95 M0.2 48.28 C5.72 45.86, 11.25 43.45, 16.96 40.95 M16.96 40.95 C16.97 27.63, 16.97 14.3, 16.98 7.51 M16.96 40.95 C16.96 34.05, 16.97 27.14, 16.98 7.51 M16.98 7.51 C12.49 5.52, 8 3.54, 0 0 M16.98 7.51 C10.97 4.85, 4.97 2.2, 0 0" stroke="#ffffff" stroke-width="2" fill="none"></path></g></g><mask></mask><g stroke-linecap="round"><g transform="translate(56.399486404362506 44.59412918766816) rotate(0 4.55055974260361 -6.101967954136683)"><path d="M0 0 C2.86 -3.84, 5.72 -7.67, 9.1 -12.2 M0 0 C2.99 -4, 5.97 -8.01, 9.1 -12.2" stroke="#ffffff" stroke-width="2" fill="none"></path></g></g><mask></mask><g stroke-linecap="round"><g transform="translate(64.20800040916947 34.725375269224514) rotate(0 2.4973872120515495 4.2069285343138745)"><path d="M0 0 C1.77 1.54, 3.53 3.08, 5.01 4.37 M0 0 C1.47 1.28, 2.93 2.56, 5.01 4.37 M5.01 4.37 C3.87 5.29, 2.73 6.21, -0.01 8.41 M5.01 4.37 C4 5.18, 3 5.99, -0.01 8.41" stroke="#ffffff" stroke-width="2" fill="none"></path></g></g><mask></mask><g stroke-linecap="round"><g transform="translate(52.40218380803731 34.18199191647432) rotate(180 2.4973872120515495 4.2069285343138745)"><path d="M0 0 C1.83 1.59, 3.65 3.19, 5.01 4.37 M0 0 C1.39 1.21, 2.78 2.43, 5.01 4.37 M5.01 4.37 C3.29 5.75, 1.58 7.13, -0.01 8.41 M5.01 4.37 C3.69 5.43, 2.38 6.49, -0.01 8.41" stroke="#ffffff" stroke-width="2" fill="none"></path></g></g><mask></mask><g transform="translate(6 72.4287095470454) rotate(0 54 20)"><text x="54" y="0" font-family="Virgil, Segoe UI Emoji" font-size="16px" fill="#000000" text-anchor="middle" style="white-space: pre;" direction="ltr" dominant-baseline="text-before-edge">Amazon</text><text x="54" y="20" font-family="Virgil, Segoe UI Emoji" font-size="16px" fill="#000000" text-anchor="middle" style="white-space: pre;" direction="ltr" dominant-baseline="text-before-edge">API Gateway</text></g></svg>