<svg version="1.1" xmlns="http://www.w3.org/2000/svg" viewBox="0 0 155.4400177001953 129.00554911295512" width="155.4400177001953" height="129.00554911295512">
  <!-- svg-source:excalidraw -->
  
  <defs>
    
    
  </defs>
  <g stroke-linecap="round" transform="translate(45.17958831787121 6) rotate(0 32.540420532226506 32.54042053222645)"><path d="M0 0 C0 0, 0 0, 0 0 M0 0 C0 0, 0 0, 0 0 M0.13 12.04 C3.94 7.66, 7.75 3.28, 10.63 -0.03 M0.13 12.04 C3.36 8.33, 6.58 4.63, 10.63 -0.03 M0.27 24.08 C5.22 18.39, 10.17 12.69, 21.26 -0.07 M0.27 24.08 C6.83 16.53, 13.4 8.98, 21.26 -0.07 M-0.26 36.88 C8.61 26.68, 17.48 16.47, 31.89 -0.1 M-0.26 36.88 C12.6 22.09, 25.46 7.3, 31.89 -0.1 M-0.12 48.92 C12.06 34.91, 24.24 20.9, 42.52 -0.14 M-0.12 48.92 C8.89 38.55, 17.89 28.19, 42.52 -0.14 M0.01 60.96 C14.3 44.52, 28.59 28.08, 53.15 -0.17 M0.01 60.96 C18.21 40.02, 36.41 19.09, 53.15 -0.17 M6.7 65.45 C20.78 49.26, 34.85 33.07, 63.78 -0.21 M6.7 65.45 C22.53 47.25, 38.36 29.04, 63.78 -0.21 M17.33 65.42 C35.38 44.65, 53.44 23.89, 65.88 9.57 M17.33 65.42 C28.09 53.05, 38.84 40.67, 65.88 9.57 M27.96 65.38 C41.13 50.23, 54.3 35.08, 66.02 21.61 M27.96 65.38 C37.01 54.98, 46.05 44.58, 66.02 21.61 M38.59 65.35 C47.6 54.99, 56.6 44.64, 65.49 34.41 M38.59 65.35 C46.09 56.72, 53.59 48.09, 65.49 34.41 M49.22 65.31 C55.49 58.11, 61.76 50.9, 65.63 46.45 M49.22 65.31 C54.53 59.21, 59.84 53.1, 65.63 46.45 M59.85 65.28 C61.79 63.05, 63.73 60.83, 65.76 58.49 M59.85 65.28 C61.1 63.85, 62.34 62.42, 65.76 58.49 M0.23 65.28 C0.23 65.28, 0.23 65.28, 0.23 65.28 M0.23 65.28 C0.23 65.28, 0.23 65.28, 0.23 65.28 M12.27 65.15 C9.34 62.6, 6.42 60.06, 0.19 54.65 M12.27 65.15 C9.03 62.33, 5.79 59.51, 0.19 54.65 M24.31 65.01 C16.93 58.59, 9.54 52.17, 0.16 44.02 M24.31 65.01 C16.51 58.23, 8.7 51.44, 0.16 44.02 M36.35 64.88 C22.26 52.63, 8.17 40.39, 0.13 33.39 M36.35 64.88 C23.41 53.63, 10.47 42.38, 0.13 33.39 M49.15 65.4 C32.43 50.87, 15.72 36.35, 0.09 22.76 M49.15 65.4 C33.31 51.64, 17.47 37.87, 0.09 22.76 M61.19 65.27 C36.79 44.06, 12.4 22.86, 0.06 12.13 M61.19 65.27 C40.52 47.31, 19.86 29.34, 0.06 12.13 M64.93 57.92 C51.54 46.28, 38.16 34.65, 0.02 1.5 M64.93 57.92 C50.56 45.43, 36.2 32.95, 0.02 1.5 M65.65 47.95 C47.53 32.19, 29.4 16.44, 9.8 -0.6 M65.65 47.95 C47.45 32.13, 29.26 16.32, 9.8 -0.6 M65.61 37.32 C54.59 27.74, 43.57 18.16, 21.84 -0.74 M65.61 37.32 C53.64 26.91, 41.67 16.5, 21.84 -0.74 M65.58 26.69 C54.89 17.4, 44.2 8.11, 33.88 -0.87 M65.58 26.69 C53.21 15.94, 40.84 5.18, 33.88 -0.87 M65.54 16.06 C58.06 9.55, 50.57 3.04, 46.68 -0.35 M65.54 16.06 C61.03 12.13, 56.52 8.21, 46.68 -0.35 M65.51 5.43 C63.95 4.07, 62.39 2.72, 58.72 -0.48 M65.51 5.43 C63.77 3.92, 62.03 2.4, 58.72 -0.48" stroke="#7950f288" stroke-width="1" fill="none"></path><path d="M0 0 C21.69 0, 43.38 0, 65.08 0 M0 0 C14.58 0, 29.16 0, 65.08 0 M65.08 0 C65.08 16.87, 65.08 33.74, 65.08 65.08 M65.08 0 C65.08 19.23, 65.08 38.46, 65.08 65.08 M65.08 65.08 C51.33 65.08, 37.57 65.08, 0 65.08 M65.08 65.08 C49.84 65.08, 34.59 65.08, 0 65.08 M0 65.08 C0 44.23, 0 23.38, 0 0 M0 65.08 C0 50.02, 0 34.96, 0 0" stroke="#000000" stroke-width="2" fill="none"></path></g><g stroke-linecap="round"><g transform="translate(102.94267460213189 39.249755596670184) rotate(0 -23.92666242714654 -6.020970121388245)"><path d="M0 0 C-3.09 0, -13.13 0.33, -18.56 0.01 C-23.98 -0.31, -28.59 -0.77, -32.55 -1.9 C-36.52 -3.03, -39.8 -5.08, -42.35 -6.77 C-44.9 -8.46, -46.94 -11.17, -47.85 -12.05 M0 0 C-3.09 0, -13.13 0.33, -18.56 0.01 C-23.98 -0.31, -28.59 -0.77, -32.55 -1.9 C-36.52 -3.03, -39.8 -5.08, -42.35 -6.77 C-44.9 -8.46, -46.94 -11.17, -47.85 -12.05" stroke="#000000" stroke-width="2" fill="none"></path></g></g><mask></mask><g stroke-linecap="round"><g transform="translate(103.00252741075553 39.305718728226566) rotate(0 -23.92666242714654 6.549564013749546)"><path d="M0 0 C-3.09 0.02, -13.1 -0.23, -18.52 0.12 C-23.95 0.46, -28.58 0.86, -32.55 2.07 C-36.52 3.27, -39.8 5.52, -42.35 7.36 C-44.9 9.2, -46.94 12.14, -47.85 13.1 M0 0 C-3.09 0.02, -13.1 -0.23, -18.52 0.12 C-23.95 0.46, -28.58 0.86, -32.55 2.07 C-36.52 3.27, -39.8 5.52, -42.35 7.36 C-44.9 9.2, -46.94 12.14, -47.85 13.1" stroke="#000000" stroke-width="2" fill="none"></path></g></g><mask></mask><g stroke-linecap="round"><g transform="translate(102.48897004779053 35.038832977605125) rotate(0 -21.258550608287578 -6.020970121388245)"><path d="M0 0 C-2.75 0, -11.67 0.33, -16.49 0.01 C-21.31 -0.31, -25.4 -0.77, -28.92 -1.9 C-32.45 -3.03, -35.37 -5.08, -37.63 -6.77 C-39.9 -8.46, -41.7 -11.17, -42.52 -12.05 M0 0 C-2.75 0, -11.67 0.33, -16.49 0.01 C-21.31 -0.31, -25.4 -0.77, -28.92 -1.9 C-32.45 -3.03, -35.37 -5.08, -37.63 -6.77 C-39.9 -8.46, -41.7 -11.17, -42.52 -12.05" stroke="#000000" stroke-width="2" fill="none"></path></g></g><mask></mask><g stroke-linecap="round"><g transform="translate(102.69879262770246 30.36518988606076) rotate(0 -18.566138584680857 -6.76481169881049)"><path d="M0 0 C-2.46 0, -10.45 0.33, -14.77 0.01 C-19.08 -0.31, -22.75 -0.77, -25.9 -1.9 C-29.06 -3.03, -31.83 -4.83, -33.7 -6.77 C-35.57 -8.71, -36.56 -12.41, -37.13 -13.54 M0 0 C-2.46 0, -10.45 0.33, -14.77 0.01 C-19.08 -0.31, -22.75 -0.77, -25.9 -1.9 C-29.06 -3.03, -31.83 -4.83, -33.7 -6.77 C-35.57 -8.71, -36.56 -12.41, -37.13 -13.54" stroke="#000000" stroke-width="2" fill="none"></path></g></g><mask></mask><g stroke-linecap="round"><g transform="translate(81.07162069870924 42.59930147835621) rotate(0 -10.258275698808404 6.787220630726097)"><path d="M0 0 C-2.18 0.76, -9.66 2.31, -13.08 4.57 C-16.5 6.83, -19.28 12.07, -20.52 13.57 M0 0 C-2.18 0.76, -9.66 2.31, -13.08 4.57 C-16.5 6.83, -19.28 12.07, -20.52 13.57" stroke="#000000" stroke-width="2" fill="none"></path></g></g><mask></mask><g stroke-linecap="round"><g transform="translate(78.68951359264531 47.64876498532158) rotate(0 -6.614159139600702 6.581129710208984)"><path d="M0 0 C-1.36 0.96, -5.96 3.58, -8.16 5.77 C-10.37 7.97, -12.38 11.93, -13.23 13.16 M0 0 C-1.36 0.96, -5.96 3.58, -8.16 5.77 C-10.37 7.97, -12.38 11.93, -13.23 13.16" stroke="#000000" stroke-width="2" fill="none"></path></g></g><mask></mask><g stroke-linecap="round" transform="translate(81.18134365753349 43.45915946910554) rotate(0 9.290951325216724 9.290951325216724)"><path d="M18.58 9.29 C18.58 9.83, 18.53 10.37, 18.44 10.9 C18.35 11.43, 18.21 11.96, 18.02 12.47 C17.84 12.97, 17.61 13.47, 17.34 13.94 C17.07 14.4, 16.75 14.85, 16.41 15.26 C16.06 15.68, 15.68 16.06, 15.26 16.41 C14.85 16.75, 14.4 17.07, 13.94 17.34 C13.47 17.61, 12.97 17.84, 12.47 18.02 C11.96 18.21, 11.43 18.35, 10.9 18.44 C10.37 18.53, 9.83 18.58, 9.29 18.58 C8.75 18.58, 8.21 18.53, 7.68 18.44 C7.15 18.35, 6.62 18.21, 6.11 18.02 C5.61 17.84, 5.11 17.61, 4.65 17.34 C4.18 17.07, 3.73 16.75, 3.32 16.41 C2.91 16.06, 2.52 15.68, 2.17 15.26 C1.83 14.85, 1.51 14.4, 1.24 13.94 C0.98 13.47, 0.74 12.97, 0.56 12.47 C0.38 11.96, 0.23 11.43, 0.14 10.9 C0.05 10.37, 0 9.83, 0 9.29 C0 8.75, 0.05 8.21, 0.14 7.68 C0.23 7.15, 0.38 6.62, 0.56 6.11 C0.74 5.61, 0.98 5.11, 1.24 4.65 C1.51 4.18, 1.83 3.73, 2.17 3.32 C2.52 2.91, 2.91 2.52, 3.32 2.17 C3.73 1.83, 4.18 1.51, 4.65 1.24 C5.11 0.98, 5.61 0.74, 6.11 0.56 C6.62 0.38, 7.15 0.23, 7.68 0.14 C8.21 0.05, 8.75 0, 9.29 0 C9.83 0, 10.37 0.05, 10.9 0.14 C11.43 0.23, 11.96 0.38, 12.47 0.56 C12.97 0.74, 13.47 0.98, 13.94 1.24 C14.4 1.51, 14.85 1.83, 15.26 2.17 C15.68 2.52, 16.06 2.91, 16.41 3.32 C16.75 3.73, 17.07 4.18, 17.34 4.65 C17.61 5.11, 17.84 5.61, 18.02 6.11 C18.21 6.62, 18.35 7.15, 18.44 7.68 C18.53 8.21, 18.56 9.02, 18.58 9.29 C18.61 9.56, 18.61 9.02, 18.58 9.29" stroke="#000000" stroke-width="2" fill="none"></path></g><g stroke-linecap="round" transform="translate(87.73966224003607 53.660988375226225) rotate(0 2.1861061941686444 2.1861061941685875)"><path d="M0 0 C1.67 0, 3.34 0, 4.37 0 M0 0 C1.38 0, 2.77 0, 4.37 0 M4.37 0 C4.37 1.37, 4.37 2.73, 4.37 4.37 M4.37 0 C4.37 1.55, 4.37 3.1, 4.37 4.37 M4.37 4.37 C3.09 4.37, 1.82 4.37, 0 4.37 M4.37 4.37 C2.96 4.37, 1.55 4.37, 0 4.37 M0 4.37 C0 2.63, 0 0.89, 0 0 M0 4.37 C0 2.93, 0 1.5, 0 0" stroke="#000000" stroke-width="2" fill="none"></path></g><g stroke-linecap="round" transform="translate(92.47622566073653 46.55614324417729) rotate(0 2.1861061941686444 2.1861061941685875)"><path d="M0 0 C1.24 0, 2.48 0, 4.37 0 M0 0 C1.1 0, 2.2 0, 4.37 0 M4.37 0 C4.37 1.58, 4.37 3.16, 4.37 4.37 M4.37 0 C4.37 1.63, 4.37 3.25, 4.37 4.37 M4.37 4.37 C3.37 4.37, 2.37 4.37, 0 4.37 M4.37 4.37 C3.15 4.37, 1.94 4.37, 0 4.37 M0 4.37 C0 2.84, 0 1.32, 0 0 M0 4.37 C0 3.07, 0 1.77, 0 0" stroke="#000000" stroke-width="2" fill="none"></path></g><g stroke-linecap="round"><g transform="translate(86.2822581105911 47.28484530890091) rotate(0 1.6395796456264975 0)"><path d="M0 0 C0.97 0, 1.93 0, 3.28 0 M0 0 C1.03 0, 2.05 0, 3.28 0" stroke="#000000" stroke-width="2" fill="none"></path></g></g><mask></mask><g stroke-linecap="round"><g transform="translate(82.45657227079596 50.92835563251538) rotate(0 1.6395796456264975 0)"><path d="M0 0 C0.75 0, 1.5 0, 3.28 0 M0 0 C1.1 0, 2.21 0, 3.28 0" stroke="#000000" stroke-width="2" fill="none"></path></g></g><mask></mask><g stroke-linecap="round"><g transform="translate(95.75538495199146 53.660988375226225) rotate(0 1.6395796456264975 0)"><path d="M0 0 C0.77 0, 1.53 0, 3.28 0 M0 0 C1.23 0, 2.46 0, 3.28 0" stroke="#000000" stroke-width="2" fill="none"></path></g></g><mask></mask><g stroke-linecap="round"><g transform="translate(87.92183775621606 50.92835563251538) rotate(0 0.910877580903616 0)"><path d="M0 0 C0.65 0, 1.31 0, 1.82 0 M0 0 C0.71 0, 1.42 0, 1.82 0" stroke="#000000" stroke-width="2" fill="none"></path></g></g><mask></mask><g stroke-linecap="round"><g transform="translate(83.00309881934027 56.94014766647888) rotate(0 0.910877580903616 0)"><path d="M0 0 C0.39 0, 0.77 0, 1.82 0 M0 0 C0.43 0, 0.85 0, 1.82 0" stroke="#000000" stroke-width="2" fill="none"></path></g></g><mask></mask><g stroke-linecap="round"><g transform="translate(96.30191150053133 57.122323182659784) rotate(0 0.910877580903616 0)"><path d="M0 0 C0.57 0, 1.14 0, 1.82 0 M0 0 C0.65 0, 1.29 0, 1.82 0" stroke="#000000" stroke-width="2" fill="none"></path></g></g><mask></mask><g stroke-linecap="round"><g transform="translate(81.91004572225324 53.660988375226225) rotate(0 0.910877580903616 0)"><path d="M0 0 C0.66 0, 1.32 0, 1.82 0 M0 0 C0.68 0, 1.36 0, 1.82 0" stroke="#000000" stroke-width="2" fill="none"></path></g></g><mask></mask><g transform="translate(6 75.00554911295512) rotate(0 71.72000885009766 24)"><text x="71.72000885009766" y="0" font-family="Virgil, Segoe UI Emoji" font-size="20px" fill="#000000" text-anchor="middle" style="white-space: pre;" direction="ltr" dominant-baseline="text-before-edge">Kinesis </text><text x="71.72000885009766" y="24" font-family="Virgil, Segoe UI Emoji" font-size="20px" fill="#000000" text-anchor="middle" style="white-space: pre;" direction="ltr" dominant-baseline="text-before-edge">Data Streams</text></g></svg>