<svg version="1.1" xmlns="http://www.w3.org/2000/svg" viewBox="0 0 103.56000518798828 80.44335525796805" width="103.56000518798828" height="80.44335525796805">
  <!-- svg-source:excalidraw -->
  
  <defs>
    
    
  </defs>
  <g stroke-linecap="round"><g transform="translate(40.893042040658656 31.479404452753897) rotate(0 16.74042659565464 2.333514010303361)"><path d="M0 0 C0 5.61, 0 11.22, 0 17.86 M0 0 C0 6.69, 0 13.38, 0 17.86 M0 17.86 C9.4 17.86, 18.8 17.86, 33.48 17.86 M0 17.86 C7.59 17.86, 15.18 17.86, 33.48 17.86 M33.48 17.86 C33.48 9.88, 33.48 1.9, 33.48 -13.19 M33.48 17.86 C33.48 8.82, 33.48 -0.21, 33.48 -13.19 M33.48 -13.19 C26.53 -13.19, 19.58 -13.19, 13.39 -13.19 M33.48 -13.19 C28.31 -13.19, 23.14 -13.19, 13.39 -13.19" stroke="#e95d8e" stroke-width="2" fill="none"></path></g></g><mask></mask><g stroke-linecap="round"><g transform="translate(54.249850153470106 24.129438742822003) rotate(0 9.482448374702017 0)"><path d="M0 0 C5.85 0, 11.71 0, 18.96 0 M0 0 C7.33 0, 14.67 0, 18.96 0" stroke="#e95d8e" stroke-width="2" fill="none"></path></g></g><mask></mask><g stroke-linecap="round" transform="translate(36.37104881262235 12.683664052653057) rotate(0 7.1431659562733785 7.1431659562733785)"><path d="M14.29 7.14 C14.29 7.56, 14.25 7.98, 14.18 8.38 C14.11 8.79, 14 9.2, 13.86 9.59 C13.71 9.97, 13.54 10.36, 13.33 10.71 C13.12 11.07, 12.88 11.42, 12.62 11.73 C12.35 12.05, 12.05 12.35, 11.73 12.62 C11.42 12.88, 11.07 13.12, 10.71 13.33 C10.36 13.54, 9.97 13.71, 9.59 13.86 C9.2 14, 8.79 14.11, 8.38 14.18 C7.98 14.25, 7.56 14.29, 7.14 14.29 C6.73 14.29, 6.31 14.25, 5.9 14.18 C5.5 14.11, 5.09 14, 4.7 13.86 C4.31 13.71, 3.93 13.54, 3.57 13.33 C3.21 13.12, 2.87 12.88, 2.55 12.62 C2.23 12.35, 1.94 12.05, 1.67 11.73 C1.41 11.42, 1.16 11.07, 0.96 10.71 C0.75 10.36, 0.57 9.97, 0.43 9.59 C0.29 9.2, 0.18 8.79, 0.11 8.38 C0.04 7.98, 0 7.56, 0 7.14 C0 6.73, 0.04 6.31, 0.11 5.9 C0.18 5.5, 0.29 5.09, 0.43 4.7 C0.57 4.31, 0.75 3.93, 0.96 3.57 C1.16 3.21, 1.41 2.87, 1.67 2.55 C1.94 2.23, 2.23 1.94, 2.55 1.67 C2.87 1.41, 3.21 1.16, 3.57 0.96 C3.93 0.75, 4.31 0.57, 4.7 0.43 C5.09 0.29, 5.5 0.18, 5.9 0.11 C6.31 0.04, 6.73 0, 7.14 0 C7.56 0, 7.98 0.04, 8.38 0.11 C8.79 0.18, 9.2 0.29, 9.59 0.43 C9.97 0.57, 10.36 0.75, 10.71 0.96 C11.07 1.16, 11.42 1.41, 11.73 1.67 C12.05 1.94, 12.35 2.23, 12.62 2.55 C12.88 2.87, 13.12 3.21, 13.33 3.57 C13.54 3.93, 13.71 4.31, 13.86 4.7 C14 5.09, 14.11 5.5, 14.18 5.9 C14.25 6.31, 14.27 6.94, 14.29 7.14 C14.3 7.35, 14.3 6.94, 14.29 7.14" stroke="#e95d8e" stroke-width="2" fill="none"></path></g><g stroke-linecap="round"><g transform="translate(43.555987669224805 15.607767075689026) rotate(0 1.7544618138215355 2.1304179167832444)"><path d="M0 0 C0 1, 0 2.01, 0 4.26 M0 0 C0 1.12, 0 2.25, 0 4.26 M0 4.26 C0.81 4.26, 1.62 4.26, 3.51 4.26 M0 4.26 C0.98 4.26, 1.96 4.26, 3.51 4.26" stroke="#e95d8e" stroke-width="2" fill="none"></path></g></g><mask></mask><g stroke-linecap="round"><g transform="translate(43.72307927054112 6) rotate(0 -0.041772900329078766 1.7544618138215355)"><path d="M0 0 C-0.03 1.17, -0.06 2.35, -0.08 3.51 M0 0 C-0.03 1.22, -0.06 2.44, -0.08 3.51" stroke="#e95d8e" stroke-width="2" fill="none"></path></g></g><mask></mask><g stroke-linecap="round"><g transform="translate(53.999212751495634 10.762110637515434) rotate(0 -1.2531870098724767 1.2949599102014417)"><path d="M0 0 C-0.84 0.87, -1.68 1.73, -2.51 2.59 M0 0 C-0.85 0.88, -1.7 1.76, -2.51 2.59" stroke="#e95d8e" stroke-width="2" fill="none"></path></g></g><mask></mask><g stroke-linecap="round"><g transform="translate(33.44694578958661 10.427927434882804) rotate(0 1.211414109543398 1.2949599102014417)"><path d="M0 0 C0.64 0.69, 1.29 1.38, 2.42 2.59 M0 0 C0.61 0.65, 1.22 1.31, 2.42 2.59" stroke="#e95d8e" stroke-width="2" fill="none"></path></g></g><mask></mask><g stroke-linecap="round"><g transform="translate(29.18610995602012 21.205335719786035) rotate(0 1.8797805148086582 0)"><path d="M0 0 C0.95 0, 1.9 0, 3.76 0 M0 0 C0.84 0, 1.68 0, 3.76 0" stroke="#e95d8e" stroke-width="2" fill="none"></path></g></g><mask></mask><g stroke-linecap="round"><g transform="translate(33.530491590244765 30.228282190868413) rotate(0 1.399392161024366 -1.3993921610242523)"><path d="M0 0 C0.79 -0.79, 1.58 -1.58, 2.8 -2.8 M0 0 C0.65 -0.65, 1.29 -1.29, 2.8 -2.8" stroke="#e95d8e" stroke-width="2" fill="none"></path></g></g><mask></mask><g stroke-linecap="round"><g transform="translate(46.31299909094423 32.442245908309815) rotate(0 1.4202786111889054 0)"><path d="M0 0 C1.02 0, 2.05 0, 2.84 0 M0 0 C0.89 0, 1.77 0, 2.84 0" stroke="#e95d8e" stroke-width="2" fill="none"></path></g></g><mask></mask><g stroke-linecap="round"><g transform="translate(56.04608486762072 32.442245908309815) rotate(0 1.4202786111889054 0)"><path d="M0 0 C0.65 0, 1.3 0, 2.84 0 M0 0 C1.04 0, 2.08 0, 2.84 0" stroke="#e95d8e" stroke-width="2" fill="none"></path></g></g><mask></mask><g stroke-linecap="round"><g transform="translate(65.77917064429721 32.442245908309815) rotate(0 1.4202786111889054 0)"><path d="M0 0 C0.98 0, 1.96 0, 2.84 0 M0 0 C1.08 0, 2.17 0, 2.84 0" stroke="#e95d8e" stroke-width="2" fill="none"></path></g></g><mask></mask><g stroke-linecap="round"><g transform="translate(46.31299909094423 37.287902346483406) rotate(0 1.4202786111889054 0)"><path d="M0 0 C1.03 0, 2.06 0, 2.84 0 M0 0 C0.97 0, 1.94 0, 2.84 0" stroke="#e95d8e" stroke-width="2" fill="none"></path></g></g><mask></mask><g stroke-linecap="round"><g transform="translate(56.04608486762072 37.287902346483406) rotate(0 1.4202786111889054 0)"><path d="M0 0 C0.81 0, 1.63 0, 2.84 0 M0 0 C0.83 0, 1.67 0, 2.84 0" stroke="#e95d8e" stroke-width="2" fill="none"></path></g></g><mask></mask><g stroke-linecap="round"><g transform="translate(65.77917064429721 37.287902346483406) rotate(0 1.4202786111889054 0)"><path d="M0 0 C0.72 0, 1.43 0, 2.84 0 M0 0 C0.7 0, 1.4 0, 2.84 0" stroke="#e95d8e" stroke-width="2" fill="none"></path></g></g><mask></mask><g stroke-linecap="round"><g transform="translate(46.31299909094423 42.133558784657) rotate(0 1.4202786111889054 0)"><path d="M0 0 C0.92 0, 1.84 0, 2.84 0 M0 0 C1.07 0, 2.14 0, 2.84 0" stroke="#e95d8e" stroke-width="2" fill="none"></path></g></g><mask></mask><g stroke-linecap="round"><g transform="translate(56.04608486762072 42.133558784657) rotate(0 1.4202786111889054 0)"><path d="M0 0 C0.84 0, 1.68 0, 2.84 0 M0 0 C0.67 0, 1.33 0, 2.84 0" stroke="#e95d8e" stroke-width="2" fill="none"></path></g></g><mask></mask><g stroke-linecap="round"><g transform="translate(65.77917064429721 42.133558784657) rotate(0 1.4202786111889054 0)"><path d="M0 0 C0.94 0, 1.89 0, 2.84 0 M0 0 C1.01 0, 2.02 0, 2.84 0" stroke="#e95d8e" stroke-width="2" fill="none"></path></g></g><mask></mask><g transform="translate(6 50.44335525796805) rotate(0 45.78000259399414 12)"><text x="0" y="0" font-family="Virgil, Segoe UI Emoji" font-size="20px" fill="#000000" text-anchor="start" style="white-space: pre;" direction="ltr" dominant-baseline="text-before-edge">Scheduler</text></g></svg>