<svg xmlns="http://www.w3.org/2000/svg" viewBox="725.97 3114.84 169.30 105.32" width="169" height="105"><text x="731.97" y="3210.16" font-size="20" fill="#000000" opacity="1.0" font-family="sans-serif">Amazon Bedrock</text><rect x="778.30" y="3120.84" width="64.64" height="64.64" rx="0" stroke="#000000" stroke-width="2" opacity="1.0" fill="none"/><polyline points="797.66,3132.64 805.68,3138.49 805.68,3145.39 810.69,3148.36 810.85,3158.09 806.15,3160.44 806.15,3167.49 795.96,3173.61 790.63,3170.31" fill="none" stroke="#232f3e" stroke-width="2" opacity="1.0" stroke-linecap="round" stroke-linejoin="round" transform="rotate(180.00 807.78 3153.12)"/><polyline points="795.11,3145.33 799.81,3148.62 804.83,3145.17 804.83,3139.84" fill="none" stroke="#232f3e" stroke-width="2" opacity="1.0" stroke-linecap="round" stroke-linejoin="round"/><polyline points="800.53,3135.91 800.53,3142.65" fill="none" stroke="#232f3e" stroke-width="2" opacity="1.0" stroke-linecap="round" stroke-linejoin="round"/><polyline points="799.81,3148.30 799.65,3153.17 795.42,3155.99" fill="none" stroke="#232f3e" stroke-width="2" opacity="1.0" stroke-linecap="round" stroke-linejoin="round"/><polyline points="791.01,3152.57 794.45,3150.69" fill="none" stroke="#232f3e" stroke-width="2" opacity="1.0" stroke-linecap="round" stroke-linejoin="round"/><polyline points="799.57,3152.97 803.67,3155.61" fill="none" stroke="#000000" stroke-width="2" opacity="1.0" stroke-linecap="round" stroke-linejoin="round"/><polyline points="810.90,3135.83 810.90,3170.97 804.39,3173.68" fill="none" stroke="#1e1e1e" stroke-width="2" opacity="1.0" stroke-linecap="round" stroke-linejoin="round"/><polyline points="801.49,3171.09 805.78,3168.35" fill="none" stroke="#1e1e1e" stroke-width="2" opacity="1.0" stroke-linecap="round" stroke-linejoin="round"/><polyline points="795.89,3160.48 799.46,3158.34" fill="none" stroke="#1e1e1e" stroke-width="2" opacity="1.0" stroke-linecap="round" stroke-linejoin="round"/><polyline points="800.77,3164.30 810.54,3158.46" fill="none" stroke="#1e1e1e" stroke-width="2" opacity="1.0" stroke-linecap="round" stroke-linejoin="round"/><ellipse cx="820.25" cy="3138.51" rx="2.32" ry="2.32" stroke="#1e1e1e" stroke-width="2" opacity="1.0" fill="none"/><ellipse cx="828.29" cy="3150.96" rx="2.32" ry="2.32" stroke="#1e1e1e" stroke-width="2" opacity="1.0" fill="none"/><ellipse cx="825.55" cy="3160.96" rx="2.32" ry="2.32" stroke="#1e1e1e" stroke-width="2" opacity="1.0" fill="none"/><ellipse cx="817.93" cy="3168.11" rx="2.32" ry="2.32" stroke="#1e1e1e" stroke-width="2" opacity="1.0" fill="none"/><polyline points="817.93,3165.25 817.93,3161.91 811.02,3161.91" fill="none" stroke="#1e1e1e" stroke-width="2" opacity="1.0" stroke-linecap="round" stroke-linejoin="round"/><polyline points="810.90,3145.95 820.07,3145.95 820.07,3140.83" fill="none" stroke="#1e1e1e" stroke-width="2" opacity="1.0" stroke-linecap="round" stroke-linejoin="round"/><polyline points="811.50,3151.31 825.67,3151.31" fill="none" stroke="#1e1e1e" stroke-width="2" opacity="1.0" stroke-linecap="round" stroke-linejoin="round"/><polyline points="811.61,3156.20 820.79,3156.20 823.64,3159.06" fill="none" stroke="#1e1e1e" stroke-width="2" opacity="1.0" stroke-linecap="round" stroke-linejoin="round"/></svg>