<svg version="1.1" xmlns="http://www.w3.org/2000/svg" viewBox="0 0 168.05999755859375 82.85966511639344" width="168.05999755859375" height="82.85966511639344">
  <!-- svg-source:excalidraw -->
  
  <defs>
    
    
  </defs>
  <g transform="translate(6 52.859665116393444) rotate(0 78.02999877929688 12)"><text x="78.02999877929688" y="0" font-family="Virgil, Segoe UI Emoji" font-size="20px" fill="#000000" text-anchor="middle" style="white-space: pre;" direction="ltr" dominant-baseline="text-before-edge">Discovery Agent</text></g><g stroke-linecap="round"><g transform="translate(94.52659322867703 48.49286336067871) rotate(0 -16.902470459558913 -13.437564000426391)"><path d="M0 0 C-4.93 -0.03, -23.58 0.46, -29.61 -0.16 C-35.63 -0.77, -35.05 -2.17, -36.14 -3.69 C-37.22 -5.21, -36.45 -7.64, -36.14 -9.25 C-35.82 -10.87, -35.11 -12.41, -34.22 -13.39 C-33.34 -14.36, -31.57 -14.8, -30.82 -15.13 C-30.08 -15.45, -29.83 -15.24, -29.76 -15.34 C-29.69 -15.45, -30.36 -14.87, -30.4 -15.78 C-30.43 -16.69, -30.5 -19.3, -29.97 -20.78 C-29.44 -22.27, -28.49 -23.68, -27.21 -24.7 C-25.93 -25.71, -23.99 -26.59, -22.32 -26.88 C-20.66 -27.17, -18.74 -26.91, -17.22 -26.44 C-15.7 -25.97, -14.25 -25.03, -13.18 -24.05 C-12.12 -23.07, -11.31 -21.33, -10.85 -20.57 C-10.39 -19.8, -10.7 -19.48, -10.42 -19.48 C-10.14 -19.48, -9.82 -20.28, -9.15 -20.57 C-8.47 -20.86, -7.3 -21.33, -6.38 -21.22 C-5.46 -21.11, -4.33 -20.53, -3.62 -19.91 C-2.91 -19.3, -2.24 -18.35, -2.13 -17.52 C-2.03 -16.69, -3.41 -15.34, -2.98 -14.91 C-2.56 -14.48, -0.46 -15.14, 0.42 -14.96 C1.31 -14.78, 2.01 -14.01, 2.33 -13.82 M0 0 C-4.93 -0.03, -23.58 0.46, -29.61 -0.16 C-35.63 -0.77, -35.05 -2.17, -36.14 -3.69 C-37.22 -5.21, -36.45 -7.64, -36.14 -9.25 C-35.82 -10.87, -35.11 -12.41, -34.22 -13.39 C-33.34 -14.36, -31.57 -14.8, -30.82 -15.13 C-30.08 -15.45, -29.83 -15.24, -29.76 -15.34 C-29.69 -15.45, -30.36 -14.87, -30.4 -15.78 C-30.43 -16.69, -30.5 -19.3, -29.97 -20.78 C-29.44 -22.27, -28.49 -23.68, -27.21 -24.7 C-25.93 -25.71, -23.99 -26.59, -22.32 -26.88 C-20.66 -27.17, -18.74 -26.91, -17.22 -26.44 C-15.7 -25.97, -14.25 -25.03, -13.18 -24.05 C-12.12 -23.07, -11.31 -21.33, -10.85 -20.57 C-10.39 -19.8, -10.7 -19.48, -10.42 -19.48 C-10.14 -19.48, -9.82 -20.28, -9.15 -20.57 C-8.47 -20.86, -7.3 -21.33, -6.38 -21.22 C-5.46 -21.11, -4.33 -20.53, -3.62 -19.91 C-2.91 -19.3, -2.24 -18.35, -2.13 -17.52 C-2.03 -16.69, -3.41 -15.34, -2.98 -14.91 C-2.56 -14.48, -0.46 -15.14, 0.42 -14.96 C1.31 -14.78, 2.01 -14.01, 2.33 -13.82" stroke="#279185" stroke-width="2" fill="none"></path></g></g><mask></mask><g stroke-linecap="round"><g transform="translate(96.43596098578519 27.543905262523367) rotate(0 -1.1553275123015965 -10.721268548671105)"><path d="M0 0 C1.55 0, 6.92 0.5, 9.3 -0.02 C11.69 -0.53, 13.4 -1.94, 14.3 -3.1 C15.19 -4.25, 14.88 -5.73, 14.68 -6.93 C14.48 -8.14, 13.83 -9.53, 13.11 -10.34 C12.38 -11.14, 10.92 -11.5, 10.31 -11.77 C9.69 -12.04, 9.49 -11.86, 9.43 -11.95 C9.37 -12.04, 9.93 -11.56, 9.96 -12.31 C9.99 -13.05, 10.04 -15.2, 9.61 -16.43 C9.17 -17.65, 8.38 -18.82, 7.33 -19.65 C6.28 -20.49, 4.68 -21.2, 3.31 -21.44 C1.94 -21.68, 0.36 -21.47, -0.89 -21.08 C-2.15 -20.7, -3.34 -19.92, -4.22 -19.11 C-5.09 -18.31, -5.76 -16.87, -6.14 -16.25 C-6.52 -15.62, -6.26 -15.35, -6.49 -15.35 C-6.73 -15.35, -6.99 -16.01, -7.54 -16.25 C-8.1 -16.49, -9.06 -16.87, -9.82 -16.78 C-10.58 -16.7, -11.51 -16.22, -12.09 -15.71 C-12.68 -15.2, -13.23 -14.43, -13.32 -13.74 C-13.4 -13.05, -12.27 -11.94, -12.62 -11.59 C-12.97 -11.24, -14.69 -11.78, -15.42 -11.63 C-16.15 -11.48, -16.73 -10.85, -16.99 -10.69 M0 0 C1.55 0, 6.92 0.5, 9.3 -0.02 C11.69 -0.53, 13.4 -1.94, 14.3 -3.1 C15.19 -4.25, 14.88 -5.73, 14.68 -6.93 C14.48 -8.14, 13.83 -9.53, 13.11 -10.34 C12.38 -11.14, 10.92 -11.5, 10.31 -11.77 C9.69 -12.04, 9.49 -11.86, 9.43 -11.95 C9.37 -12.04, 9.93 -11.56, 9.96 -12.31 C9.99 -13.05, 10.04 -15.2, 9.61 -16.43 C9.17 -17.65, 8.38 -18.82, 7.33 -19.65 C6.28 -20.49, 4.68 -21.2, 3.31 -21.44 C1.94 -21.68, 0.36 -21.47, -0.89 -21.08 C-2.15 -20.7, -3.34 -19.92, -4.22 -19.11 C-5.09 -18.31, -5.76 -16.87, -6.14 -16.25 C-6.52 -15.62, -6.26 -15.35, -6.49 -15.35 C-6.73 -15.35, -6.99 -16.01, -7.54 -16.25 C-8.1 -16.49, -9.06 -16.87, -9.82 -16.78 C-10.58 -16.7, -11.51 -16.22, -12.09 -15.71 C-12.68 -15.2, -13.23 -14.43, -13.32 -13.74 C-13.4 -13.05, -12.27 -11.94, -12.62 -11.59 C-12.97 -11.24, -14.69 -11.78, -15.42 -11.63 C-16.15 -11.48, -16.73 -10.85, -16.99 -10.69" stroke="#279185" stroke-width="2" fill="none"></path></g></g><mask></mask><g stroke-linecap="round"><g transform="translate(95.42975550951223 40.35458665880924) rotate(0 9.711014241470252 0)"><path d="M0 0 C3.24 0, 16.19 0, 19.42 0 M0 0 C3.24 0, 16.19 0, 19.42 0" stroke="#279185" stroke-width="2" fill="none"></path></g><g transform="translate(95.42975550951223 40.35458665880924) rotate(0 9.711014241470252 0)"><path d="M10.3 3.32 C13.34 2.21, 16.39 1.1, 19.42 0 M10.3 3.32 C13.08 2.31, 15.87 1.29, 19.42 0" stroke="#279185" stroke-width="2" fill="none"></path></g><g transform="translate(95.42975550951223 40.35458665880924) rotate(0 9.711014241470252 0)"><path d="M10.3 -3.32 C13.34 -2.21, 16.39 -1.1, 19.42 0 M10.3 -3.32 C13.08 -2.31, 15.87 -1.29, 19.42 0" stroke="#279185" stroke-width="2" fill="none"></path></g></g><mask></mask><g stroke-linecap="round"><g transform="translate(72.63024204908152 13.871046785970066) rotate(0 -9.711014241470366 0)"><path d="M0 0 C-3.24 0, -16.19 0, -19.42 0 M0 0 C-3.24 0, -16.19 0, -19.42 0" stroke="#279185" stroke-width="2" fill="none"></path></g><g transform="translate(72.63024204908152 13.871046785970066) rotate(0 -9.711014241470366 0)"><path d="M-10.3 -3.32 C-12.14 -2.65, -13.98 -1.98, -19.42 0 M-10.3 -3.32 C-12.82 -2.4, -15.35 -1.48, -19.42 0" stroke="#279185" stroke-width="2" fill="none"></path></g><g transform="translate(72.63024204908152 13.871046785970066) rotate(0 -9.711014241470366 0)"><path d="M-10.3 3.32 C-12.14 2.65, -13.98 1.98, -19.42 0 M-10.3 3.32 C-12.82 2.4, -15.35 1.48, -19.42 0" stroke="#279185" stroke-width="2" fill="none"></path></g></g><mask></mask></svg>