<svg xmlns="http://www.w3.org/2000/svg" viewBox="744.81 1468.91 131.62 125.98" width="132" height="126"><text x="750.81" y="1560.89" font-size="20" fill="#000000" opacity="1.0" font-family="sans-serif">OpenSearch 
Service</text><rect x="778.75" y="1474.91" width="63.74" height="63.68" rx="0" stroke="#000000" stroke-width="2" opacity="1.0" fill="none"/><ellipse cx="815.14" cy="1510.17" rx="14.07" ry="14.07" stroke="#000000" stroke-width="2" opacity="1.0" fill="none" transform="rotate(350.58 815.14 1510.17)"/><ellipse cx="815.14" cy="1510.17" rx="10.89" ry="10.74" stroke="#000000" stroke-width="2" opacity="1.0" fill="none" transform="rotate(350.58 815.14 1510.17)"/><polyline points="823.63,1520.74 831.58,1530.94 835.21,1531.06 835.42,1527.84 827.78,1518.06" fill="none" stroke="#000000" stroke-width="2" opacity="1.0" stroke-linecap="round" stroke-linejoin="round" transform="rotate(350.58 829.53 1527.24)"/><rect x="783.17" y="1496.92" width="10.66" height="36.41" rx="0" stroke="#000000" stroke-width="2" opacity="1.0" fill="none"/><polyline points="797.38,1501.63 797.38,1488.75 807.60,1488.75 807.60,1491.84" fill="none" stroke="#000000" stroke-width="2" opacity="1.0" stroke-linecap="round" stroke-linejoin="round"/><polyline points="827.24,1496.74 827.24,1485.58 837.73,1485.58 838.06,1520.42" fill="none" stroke="#000000" stroke-width="2" opacity="1.0" stroke-linecap="round" stroke-linejoin="round"/><polyline points="812.69,1491.67 812.69,1480.17 823.18,1480.17 823.18,1494.04" fill="none" stroke="#000000" stroke-width="2" opacity="1.0" stroke-linecap="round" stroke-linejoin="round"/><polyline points="797.81,1518.79 797.81,1533.33 808.97,1533.33 808.97,1527.24" fill="none" stroke="#000000" stroke-width="2" opacity="1.0" stroke-linecap="round" stroke-linejoin="round"/><polyline points="812.01,1528.26 812.01,1533.33 823.18,1533.33 823.18,1528.94" fill="none" stroke="#000000" stroke-width="2" opacity="1.0" stroke-linecap="round" stroke-linejoin="round"/></svg>