<svg xmlns="http://www.w3.org/2000/svg" viewBox="774.08 4189.70 104.93 106.17" width="105" height="106"><text x="794.06" y="4285.88" font-size="20" fill="#000000" opacity="1.0" font-family="sans-serif">EFS</text><rect x="780.08" y="4195.70" width="65.08" height="65.08" rx="0" stroke="#000000" stroke-width="2" opacity="1.0" fill="none"/><polyline points="830.36,4234.78 833.62,4226.55 830.64,4222.04 826.98,4221.02 826.57,4220.33 825.82,4217.31 822.37,4215.89 819.22,4217.88 818.88,4217.57 814.05,4212.44 806.96,4210.16 800.28,4213.05 797.12,4220.27 796.62,4221.46 791.80,4224.52 790.97,4230.80 794.95,4235.15 794.63,4235.32 794.95,4235.38 794.90,4235.29" fill="none" stroke="#000000" stroke-width="2" opacity="1.0" stroke-linecap="round" stroke-linejoin="round"/><polyline points="824.64,4231.07 824.64,4228.32 810.43,4228.32 808.44,4225.59 798.30,4225.56 798.24,4243.45 824.73,4243.46 824.64,4231.07" fill="#ff00" stroke="#000" stroke-width="2" opacity="1.0" stroke-linecap="round" stroke-linejoin="round"/><polyline points="824.92,4243.23 829.14,4230.51 824.92,4230.51" fill="none" stroke="#000000" stroke-width="2" opacity="1.0" stroke-linecap="round" stroke-linejoin="round"/><polyline points="831.56,4246.12 836.07,4252.93" fill="none" stroke="#000000" stroke-width="2" opacity="1.0" stroke-linecap="round" stroke-linejoin="round" transform="rotate(347.82 833.81 4249.52)"/><polyline points="835.06,4203.95 830.18,4211.13" fill="none" stroke="#000000" stroke-width="2" opacity="1.0" stroke-linecap="round" stroke-linejoin="round" transform="rotate(1.71 837.50 4207.54)"/><polyline points="839.28,4249.26 836.62,4254.28 832.25,4251.29" fill="none" stroke="#000000" stroke-width="2" opacity="1.0" stroke-linecap="round" stroke-linejoin="round" transform="rotate(330.34 842.79 4251.77)"/><polyline points="792.19,4203.30 789.14,4207.73 785.71,4203.72" fill="none" stroke="#000000" stroke-width="2" opacity="1.0" stroke-linecap="round" stroke-linejoin="round" transform="rotate(142.48 795.43 4205.52)"/><polyline points="788.97,4204.64 793.48,4211.45" fill="none" stroke="#000000" stroke-width="2" opacity="1.0" stroke-linecap="round" stroke-linejoin="round" transform="rotate(347.82 791.23 4208.04)"/><polyline points="793.99,4245.87 789.11,4253.06" fill="none" stroke="#000000" stroke-width="2" opacity="1.0" stroke-linecap="round" stroke-linejoin="round" transform="rotate(3.95 796.43 4249.46)"/><polyline points="838.30,4202.51 835.25,4206.94 831.82,4202.93" fill="none" stroke="#000000" stroke-width="2" opacity="1.0" stroke-linecap="round" stroke-linejoin="round" transform="rotate(220.83 841.54 4204.73)"/><polyline points="792.21,4250.12 789.16,4254.55 785.73,4250.54" fill="none" stroke="#000000" stroke-width="2" opacity="1.0" stroke-linecap="round" stroke-linejoin="round" transform="rotate(38.04 795.46 4252.34)"/></svg>