<svg version="1.1" xmlns="http://www.w3.org/2000/svg" viewBox="0 0 102 121.90265191632943" width="102" height="121.90265191632943">
  <!-- svg-source:excalidraw -->
  
  <defs>
    
    
  </defs>
  <g stroke-linecap="round" transform="translate(20.293507760680768 6) rotate(0 32.2305761824785 32.199712367130076)"><path d="M-0.23 -0.7 L65.8 0.34 L61 61.09 L3.78 64.69" stroke="none" stroke-width="0" fill="#e64980"></path><path d="M0.13 2.1 C15.98 -2.53, 34.28 2.01, 62.53 -3.76 M-0.99 -0.73 C12.15 -1.7, 28.59 1.43, 63.61 -1.99 M64.37 0.46 C67.26 17, 63.31 34.49, 67.32 61.44 M66 1.19 C65.54 20.39, 66.65 37.32, 65.82 63.43 M61.01 60.55 C48.95 67.39, 35.09 67.05, 0.79 68.39 M63.75 62.71 C40.9 63.98, 15.55 62.91, 0.04 66.09 M-1.32 60.41 C-1.54 44.51, -1.77 17.81, 3.56 2.44 M-0.81 65.22 C0.31 46.8, -1.08 28.69, -0.32 1.32" stroke="#00000000" stroke-width="1" fill="none"></path></g><g stroke-linecap="round" transform="translate(18.76942381752133 7.36346619739345) rotate(0 32.2305761824785 32.199712367130076)"><path d="M0 0 C0 0, 0 0, 0 0 M0 0 C0 0, 0 0, 0 0 M-0.26 6.4 C1.36 4.53, 2.99 2.66, 4.99 0.36 M-0.26 6.4 C1.37 4.52, 3.01 2.64, 4.99 0.36 M0.13 12.04 C3.84 7.78, 7.54 3.52, 10.63 -0.03 M0.13 12.04 C3.47 8.2, 6.81 4.36, 10.63 -0.03 M-0.13 18.44 C3.91 13.79, 7.96 9.14, 15.62 0.33 M-0.13 18.44 C4.49 13.13, 9.1 7.82, 15.62 0.33 M0.27 24.08 C6.64 16.75, 13.01 9.43, 21.26 -0.07 M0.27 24.08 C6.33 17.11, 12.39 10.14, 21.26 -0.07 M0 30.48 C8.75 20.42, 17.49 10.37, 26.25 0.29 M0 30.48 C8.77 20.4, 17.53 10.31, 26.25 0.29 M-0.26 36.88 C9.32 25.86, 18.9 14.84, 31.89 -0.1 M-0.26 36.88 C7.21 28.29, 14.67 19.7, 31.89 -0.1 M0.14 42.52 C11.71 29.21, 23.28 15.9, 36.88 0.26 M0.14 42.52 C9.6 31.63, 19.06 20.75, 36.88 0.26 M-0.12 48.92 C9.23 38.16, 18.59 27.39, 42.52 -0.14 M-0.12 48.92 C14.9 31.64, 29.92 14.36, 42.52 -0.14 M0.27 54.56 C10.55 42.74, 20.82 30.92, 47.51 0.22 M0.27 54.56 C10.81 42.44, 21.35 30.31, 47.51 0.22 M0.01 60.96 C12.77 46.28, 25.53 31.6, 53.15 -0.17 M0.01 60.96 C18.01 40.25, 36.01 19.55, 53.15 -0.17 M1.72 65.09 C24.02 39.44, 46.32 13.79, 58.14 0.19 M1.72 65.09 C14.47 50.43, 27.22 35.76, 58.14 0.19 M7.36 64.7 C25.5 43.83, 43.64 22.96, 63.78 -0.21 M7.36 64.7 C22.44 47.35, 37.52 30, 63.78 -0.21 M12.35 65.06 C25.02 50.48, 37.69 35.91, 64.83 4.68 M12.35 65.06 C33.2 41.07, 54.05 17.08, 64.83 4.68 M17.99 64.66 C32.61 47.84, 47.24 31.01, 64.57 11.08 M17.99 64.66 C31.95 48.6, 45.91 32.54, 64.57 11.08 M22.98 65.02 C35.09 51.09, 47.2 37.16, 64.96 16.72 M22.98 65.02 C35.75 50.33, 48.53 35.63, 64.96 16.72 M28.62 64.63 C37.89 53.96, 47.16 43.3, 64.7 23.12 M28.62 64.63 C42.46 48.71, 56.3 32.78, 64.7 23.12 M33.61 64.99 C43.1 54.07, 52.6 43.15, 64.44 29.52 M33.61 64.99 C41.32 56.12, 49.03 47.25, 64.44 29.52 M39.25 64.59 C46.39 56.38, 53.53 48.17, 64.84 35.16 M39.25 64.59 C48.27 54.22, 57.29 43.84, 64.84 35.16 M44.24 64.95 C48.52 60.03, 52.79 55.11, 64.57 41.56 M44.24 64.95 C51.84 56.21, 59.43 47.47, 64.57 41.56 M49.88 64.56 C54.37 59.39, 58.86 54.22, 64.97 47.2 M49.88 64.56 C53.29 60.64, 56.7 56.71, 64.97 47.2 M54.87 64.92 C58.27 61.01, 61.67 57.1, 64.71 53.6 M54.87 64.92 C58.31 60.96, 61.75 57, 64.71 53.6 M60.51 64.53 C61.77 63.08, 63.03 61.63, 64.45 60 M60.51 64.53 C61.73 63.12, 62.95 61.72, 64.45 60" stroke="#e64980" stroke-width="0.5" fill="none"></path><path d="M0 0 C23.65 0, 47.29 0, 64.46 0 M0 0 C25.26 0, 50.51 0, 64.46 0 M64.46 0 C64.46 18.93, 64.46 37.87, 64.46 64.4 M64.46 0 C64.46 20.06, 64.46 40.13, 64.46 64.4 M64.46 64.4 C45.45 64.4, 26.43 64.4, 0 64.4 M64.46 64.4 C44.58 64.4, 24.69 64.4, 0 64.4 M0 64.4 C0 47.99, 0 31.58, 0 0 M0 64.4 C0 51.43, 0 38.47, 0 0" stroke="#000000" stroke-width="1" fill="none"></path></g><g stroke-linecap="round" transform="translate(51.65862866338421 33.795101820677246) rotate(0 10.92052167182429 10.920521671824304)"><path d="M21.84 10.92 C21.84 11.55, 21.78 12.19, 21.68 12.82 C21.57 13.44, 21.4 14.06, 21.18 14.66 C20.97 15.25, 20.69 15.83, 20.38 16.38 C20.06 16.93, 19.69 17.46, 19.29 17.94 C18.88 18.42, 18.42 18.88, 17.94 19.29 C17.46 19.69, 16.93 20.06, 16.38 20.38 C15.83 20.69, 15.25 20.97, 14.66 21.18 C14.06 21.4, 13.44 21.57, 12.82 21.68 C12.19 21.78, 11.55 21.84, 10.92 21.84 C10.29 21.84, 9.65 21.78, 9.02 21.68 C8.4 21.57, 7.78 21.4, 7.19 21.18 C6.59 20.97, 6.01 20.69, 5.46 20.38 C4.91 20.06, 4.39 19.69, 3.9 19.29 C3.42 18.88, 2.96 18.42, 2.55 17.94 C2.15 17.46, 1.78 16.93, 1.46 16.38 C1.15 15.83, 0.87 15.25, 0.66 14.66 C0.44 14.06, 0.28 13.44, 0.17 12.82 C0.06 12.19, 0 11.55, 0 10.92 C0 10.29, 0.06 9.65, 0.17 9.02 C0.28 8.4, 0.44 7.78, 0.66 7.19 C0.87 6.59, 1.15 6.01, 1.46 5.46 C1.78 4.91, 2.15 4.39, 2.55 3.9 C2.96 3.42, 3.42 2.96, 3.9 2.55 C4.39 2.15, 4.91 1.78, 5.46 1.46 C6.01 1.15, 6.59 0.87, 7.19 0.66 C7.78 0.44, 8.4 0.28, 9.02 0.17 C9.65 0.06, 10.29 0, 10.92 0 C11.55 0, 12.19 0.06, 12.82 0.17 C13.44 0.28, 14.06 0.44, 14.66 0.66 C15.25 0.87, 15.83 1.15, 16.38 1.46 C16.93 1.78, 17.46 2.15, 17.94 2.55 C18.42 2.96, 18.88 3.42, 19.29 3.9 C19.69 4.39, 20.06 4.91, 20.38 5.46 C20.69 6.01, 20.97 6.59, 21.18 7.19 C21.4 7.78, 21.57 8.4, 21.68 9.02 C21.78 9.65, 21.81 10.6, 21.84 10.92 C21.87 11.24, 21.87 10.6, 21.84 10.92" stroke="#ffffff" stroke-width="2" fill="none"></path></g><g stroke-linecap="round" transform="translate(54.63066654230124 36.77946766253763) rotate(0 7.997512765079904 7.997512765079875)"><path d="M16 8 C16 8.46, 15.95 8.93, 15.87 9.39 C15.79 9.84, 15.67 10.3, 15.51 10.73 C15.35 11.17, 15.16 11.6, 14.92 12 C14.69 12.4, 14.42 12.78, 14.12 13.14 C13.83 13.49, 13.49 13.83, 13.14 14.12 C12.78 14.42, 12.4 14.69, 12 14.92 C11.6 15.16, 11.17 15.35, 10.73 15.51 C10.3 15.67, 9.84 15.79, 9.39 15.87 C8.93 15.95, 8.46 16, 8 16 C7.53 16, 7.06 15.95, 6.61 15.87 C6.15 15.79, 5.7 15.67, 5.26 15.51 C4.83 15.35, 4.4 15.16, 4 14.92 C3.6 14.69, 3.21 14.42, 2.86 14.12 C2.5 13.83, 2.17 13.49, 1.87 13.14 C1.57 12.78, 1.3 12.4, 1.07 12 C0.84 11.6, 0.64 11.17, 0.48 10.73 C0.32 10.3, 0.2 9.84, 0.12 9.39 C0.04 8.93, 0 8.46, 0 8 C0 7.53, 0.04 7.06, 0.12 6.61 C0.2 6.15, 0.32 5.7, 0.48 5.26 C0.64 4.83, 0.84 4.4, 1.07 4 C1.3 3.6, 1.57 3.21, 1.87 2.86 C2.17 2.5, 2.5 2.17, 2.86 1.87 C3.21 1.57, 3.6 1.3, 4 1.07 C4.4 0.84, 4.83 0.64, 5.26 0.48 C5.7 0.32, 6.15 0.2, 6.61 0.12 C7.06 0.04, 7.53 0, 8 0 C8.46 0, 8.93 0.04, 9.39 0.12 C9.84 0.2, 10.3 0.32, 10.73 0.48 C11.17 0.64, 11.6 0.84, 12 1.07 C12.4 1.3, 12.78 1.57, 13.14 1.87 C13.49 2.17, 13.83 2.5, 14.12 2.86 C14.42 3.21, 14.69 3.6, 14.92 4 C15.16 4.4, 15.35 4.83, 15.51 5.26 C15.67 5.7, 15.79 6.15, 15.87 6.61 C15.95 7.06, 15.97 7.77, 16 8 C16.02 8.23, 16.02 7.77, 16 8" stroke="#ffffff" stroke-width="2" fill="none"></path></g><g stroke-linecap="round"><g transform="translate(67.1331627087834 54.63566636313283) rotate(0 4.575609008938045 2.964745871373566)"><path d="M0 0 C1.03 1.32, 4.67 6.58, 6.17 7.91 C7.67 9.25, 8.49 8.41, 8.99 8.01 C9.49 7.61, 10.11 7.19, 9.15 5.51 C8.19 3.83, 4.21 -0.82, 3.22 -2.08 M0 0 C1.03 1.32, 4.67 6.58, 6.17 7.91 C7.67 9.25, 8.49 8.41, 8.99 8.01 C9.49 7.61, 10.11 7.19, 9.15 5.51 C8.19 3.83, 4.21 -0.82, 3.22 -2.08" stroke="#ffffff" stroke-width="2" fill="none"></path></g></g><mask></mask><g stroke-linecap="round"><g transform="translate(76.00525333211908 38.98466408260617) rotate(0 -24.90263842513339 -7.461099793744722)"><path d="M0 0 C0.12 -0.8, 0.97 -3.41, 0.7 -4.83 C0.43 -6.24, -0.48 -7.67, -1.62 -8.49 C-2.76 -9.31, -5.29 -9.4, -6.13 -9.76 C-6.96 -10.11, -6.4 -9.84, -6.64 -10.61 C-6.88 -11.37, -6.7 -13.42, -7.56 -14.33 C-8.42 -15.24, -10.45 -16.19, -11.81 -16.07 C-13.16 -15.95, -14.97 -13.96, -15.69 -13.62 C-16.4 -13.27, -15.04 -12.89, -16.11 -14.01 C-17.17 -15.13, -19.62 -18.81, -22.07 -20.33 C-24.52 -21.85, -27.98 -23.26, -30.8 -23.13 C-33.63 -23.01, -37.01 -21.65, -39.03 -19.58 C-41.05 -17.5, -42.17 -12.41, -42.93 -10.68 C-43.68 -8.96, -42.45 -10.08, -43.54 -9.21 C-44.63 -8.33, -48.32 -7.36, -49.48 -5.44 C-50.64 -3.52, -51.15 0.12, -50.51 2.3 C-49.86 4.49, -47.39 6.69, -45.6 7.66 C-43.81 8.63, -41.94 8.05, -39.77 8.14 C-37.61 8.23, -34.6 8.22, -32.61 8.21 C-30.61 8.21, -28.6 8.12, -27.8 8.1 M0 0 C0.12 -0.8, 0.97 -3.41, 0.7 -4.83 C0.43 -6.24, -0.48 -7.67, -1.62 -8.49 C-2.76 -9.31, -5.29 -9.4, -6.13 -9.76 C-6.96 -10.11, -6.4 -9.84, -6.64 -10.61 C-6.88 -11.37, -6.7 -13.42, -7.56 -14.33 C-8.42 -15.24, -10.45 -16.19, -11.81 -16.07 C-13.16 -15.95, -14.97 -13.96, -15.69 -13.62 C-16.4 -13.27, -15.04 -12.89, -16.11 -14.01 C-17.17 -15.13, -19.62 -18.81, -22.07 -20.33 C-24.52 -21.85, -27.98 -23.26, -30.8 -23.13 C-33.63 -23.01, -37.01 -21.65, -39.03 -19.58 C-41.05 -17.5, -42.17 -12.41, -42.93 -10.68 C-43.68 -8.96, -42.45 -10.08, -43.54 -9.21 C-44.63 -8.33, -48.32 -7.36, -49.48 -5.44 C-50.64 -3.52, -51.15 0.12, -50.51 2.3 C-49.86 4.49, -47.39 6.69, -45.6 7.66 C-43.81 8.63, -41.94 8.05, -39.77 8.14 C-37.61 8.23, -34.6 8.22, -32.61 8.21 C-30.61 8.21, -28.6 8.12, -27.8 8.1" stroke="#ffffff" stroke-width="2" fill="none"></path></g></g><mask></mask><g transform="translate(6 75.90265191632943) rotate(0 45 20)"><text x="45" y="0" font-family="Virgil, Segoe UI Emoji" font-size="16px" fill="#000000" text-anchor="middle" style="white-space: pre;" direction="ltr" dominant-baseline="text-before-edge">Amazon</text><text x="45" y="20" font-family="Virgil, Segoe UI Emoji" font-size="16px" fill="#000000" text-anchor="middle" style="white-space: pre;" direction="ltr" dominant-baseline="text-before-edge">CloudWatch</text></g></svg>