<svg version="1.1" xmlns="http://www.w3.org/2000/svg" viewBox="0 0 76.37315117315234 105.00695920422504" width="76.37315117315234" height="105.00695920422504">
  <!-- svg-source:excalidraw -->
  
  <defs>
    
    
  </defs>
  <g stroke-linecap="round"><g transform="translate(14.732791825815298 14.93918590772546) rotate(0 23.45378376076087 23.314363245824325)"><path d="M0 0 C4.81 -2.92, 9.63 -5.85, 14.72 -8.94 M0 0 C4.27 -2.59, 8.54 -5.18, 14.72 -8.94 M14.72 -8.94 C17.16 -7.46, 19.59 -5.98, 23.45 -3.62 M14.72 -8.94 C16.49 -7.86, 18.26 -6.78, 23.45 -3.62 M23.45 -3.62 C26.91 -5.48, 30.36 -7.34, 32.44 -8.46 M23.45 -3.62 C26.98 -5.52, 30.5 -7.42, 32.44 -8.46 M32.44 -8.46 C36.87 -5.52, 41.31 -2.58, 47.41 1.45 M32.44 -8.46 C38.4 -4.51, 44.36 -0.57, 47.41 1.45 M47.41 1.45 C47.41 3.84, 47.41 6.24, 47.41 12.08 M47.41 1.45 C47.41 4.18, 47.41 6.9, 47.41 12.08 M47.41 12.08 C50.23 13.71, 53.06 15.33, 55.39 16.67 M47.41 12.08 C49.28 13.16, 51.16 14.24, 55.39 16.67 M55.39 16.67 C55.48 22, 55.57 27.33, 55.64 31.65 M55.39 16.67 C55.46 20.67, 55.52 24.68, 55.64 31.65 M55.64 31.65 C54.1 32.4, 52.55 33.15, 48.16 35.27 M55.64 31.65 C53.49 32.69, 51.33 33.74, 48.16 35.27 M48.16 35.27 C48.16 38.56, 48.16 41.86, 48.16 46.15 M48.16 35.27 C48.16 38.16, 48.16 41.04, 48.16 46.15 M48.16 46.15 C43.66 48.76, 39.17 51.37, 31.94 55.57 M48.16 46.15 C42.69 49.32, 37.22 52.5, 31.94 55.57 M31.94 55.57 C29.28 53.98, 26.63 52.39, 23.45 50.49 M31.94 55.57 C29.86 54.33, 27.78 53.08, 23.45 50.49 M23.45 50.49 C20.21 52.33, 16.97 54.16, 14.47 55.57 M23.45 50.49 C21.05 51.85, 18.65 53.21, 14.47 55.57 M14.47 55.57 C10.54 53.11, 6.61 50.65, -1 45.9 M14.47 55.57 C10.51 53.09, 6.55 50.62, -1 45.9 M-1 45.9 C-1 42.7, -1 39.5, -1 36 M-1 45.9 C-1 42.26, -1 38.61, -1 36 M-1 36 C-3.42 34.56, -5.85 33.12, -8.73 31.41 M-1 36 C-3.34 34.61, -5.68 33.22, -8.73 31.41 M-8.73 31.41 C-8.73 25.43, -8.73 19.45, -8.73 16.43 M-8.73 31.41 C-8.73 27.92, -8.73 24.43, -8.73 16.43 M-8.73 16.43 C-6.19 14.76, -3.65 13.1, -0.25 10.87 M-8.73 16.43 C-6.67 15.08, -4.61 13.73, -0.25 10.87 M-0.25 10.87 C-0.18 7.67, -0.1 4.47, 0 0 M-0.25 10.87 C-0.18 8.04, -0.12 5.2, 0 0" stroke="#279185" stroke-width="2" fill="none"></path></g></g><mask></mask><g stroke-linecap="round" transform="translate(49.627363627367345 15.092367092367112) rotate(0 2.489604989605027 2.4896049896049135)"><path d="M4.98 2.49 C4.98 2.63, 4.97 2.78, 4.94 2.92 C4.92 3.06, 4.88 3.21, 4.83 3.34 C4.78 3.48, 4.72 3.61, 4.65 3.73 C4.57 3.86, 4.49 3.98, 4.4 4.09 C4.3 4.2, 4.2 4.3, 4.09 4.4 C3.98 4.49, 3.86 4.57, 3.73 4.65 C3.61 4.72, 3.48 4.78, 3.34 4.83 C3.21 4.88, 3.06 4.92, 2.92 4.94 C2.78 4.97, 2.63 4.98, 2.49 4.98 C2.35 4.98, 2.2 4.97, 2.06 4.94 C1.92 4.92, 1.77 4.88, 1.64 4.83 C1.5 4.78, 1.37 4.72, 1.24 4.65 C1.12 4.57, 1 4.49, 0.89 4.4 C0.78 4.3, 0.68 4.2, 0.58 4.09 C0.49 3.98, 0.41 3.86, 0.33 3.73 C0.26 3.61, 0.2 3.48, 0.15 3.34 C0.1 3.21, 0.06 3.06, 0.04 2.92 C0.01 2.78, 0 2.63, 0 2.49 C0 2.35, 0.01 2.2, 0.04 2.06 C0.06 1.92, 0.1 1.77, 0.15 1.64 C0.2 1.5, 0.26 1.37, 0.33 1.24 C0.41 1.12, 0.49 1, 0.58 0.89 C0.68 0.78, 0.78 0.68, 0.89 0.58 C1 0.49, 1.12 0.41, 1.24 0.33 C1.37 0.26, 1.5 0.2, 1.64 0.15 C1.77 0.1, 1.92 0.06, 2.06 0.04 C2.2 0.01, 2.35 0, 2.49 0 C2.63 0, 2.78 0.01, 2.92 0.04 C3.06 0.06, 3.21 0.1, 3.34 0.15 C3.48 0.2, 3.61 0.26, 3.73 0.33 C3.86 0.41, 3.98 0.49, 4.09 0.58 C4.2 0.68, 4.3 0.78, 4.4 0.89 C4.49 1, 4.57 1.12, 4.65 1.24 C4.72 1.37, 4.78 1.5, 4.83 1.64 C4.88 1.77, 4.92 1.92, 4.94 2.06 C4.97 2.2, 4.97 2.42, 4.98 2.49 C4.99 2.56, 4.99 2.42, 4.98 2.49" stroke="#279185" stroke-width="2" fill="none"></path></g><g stroke-linecap="round" transform="translate(42.76670626670841 30.82907632907836) rotate(0 2.489604989605027 2.4896049896049135)"><path d="M4.98 2.49 C4.98 2.63, 4.97 2.78, 4.94 2.92 C4.92 3.06, 4.88 3.21, 4.83 3.34 C4.78 3.48, 4.72 3.61, 4.65 3.73 C4.57 3.86, 4.49 3.98, 4.4 4.09 C4.3 4.2, 4.2 4.3, 4.09 4.4 C3.98 4.49, 3.86 4.57, 3.73 4.65 C3.61 4.72, 3.48 4.78, 3.34 4.83 C3.21 4.88, 3.06 4.92, 2.92 4.94 C2.78 4.97, 2.63 4.98, 2.49 4.98 C2.35 4.98, 2.2 4.97, 2.06 4.94 C1.92 4.92, 1.77 4.88, 1.64 4.83 C1.5 4.78, 1.37 4.72, 1.24 4.65 C1.12 4.57, 1 4.49, 0.89 4.4 C0.78 4.3, 0.68 4.2, 0.58 4.09 C0.49 3.98, 0.41 3.86, 0.33 3.73 C0.26 3.61, 0.2 3.48, 0.15 3.34 C0.1 3.21, 0.06 3.06, 0.04 2.92 C0.01 2.78, 0 2.63, 0 2.49 C0 2.35, 0.01 2.2, 0.04 2.06 C0.06 1.92, 0.1 1.77, 0.15 1.64 C0.2 1.5, 0.26 1.37, 0.33 1.24 C0.41 1.12, 0.49 1, 0.58 0.89 C0.68 0.78, 0.78 0.68, 0.89 0.58 C1 0.49, 1.12 0.41, 1.24 0.33 C1.37 0.26, 1.5 0.2, 1.64 0.15 C1.77 0.1, 1.92 0.06, 2.06 0.04 C2.2 0.01, 2.35 0, 2.49 0 C2.63 0, 2.78 0.01, 2.92 0.04 C3.06 0.06, 3.21 0.1, 3.34 0.15 C3.48 0.2, 3.61 0.26, 3.73 0.33 C3.86 0.41, 3.98 0.49, 4.09 0.58 C4.2 0.68, 4.3 0.78, 4.4 0.89 C4.49 1, 4.57 1.12, 4.65 1.24 C4.72 1.37, 4.78 1.5, 4.83 1.64 C4.88 1.77, 4.92 1.92, 4.94 2.06 C4.97 2.2, 4.97 2.42, 4.98 2.49 C4.99 2.56, 4.99 2.42, 4.98 2.49" stroke="#279185" stroke-width="2" fill="none"></path></g><g stroke-linecap="round" transform="translate(53.07910107909913 54.59117909117913) rotate(0 2.489604989605027 2.4896049896049135)"><path d="M4.98 2.49 C4.98 2.63, 4.97 2.78, 4.94 2.92 C4.92 3.06, 4.88 3.21, 4.83 3.34 C4.78 3.48, 4.72 3.61, 4.65 3.73 C4.57 3.86, 4.49 3.98, 4.4 4.09 C4.3 4.2, 4.2 4.3, 4.09 4.4 C3.98 4.49, 3.86 4.57, 3.73 4.65 C3.61 4.72, 3.48 4.78, 3.34 4.83 C3.21 4.88, 3.06 4.92, 2.92 4.94 C2.78 4.97, 2.63 4.98, 2.49 4.98 C2.35 4.98, 2.2 4.97, 2.06 4.94 C1.92 4.92, 1.77 4.88, 1.64 4.83 C1.5 4.78, 1.37 4.72, 1.24 4.65 C1.12 4.57, 1 4.49, 0.89 4.4 C0.78 4.3, 0.68 4.2, 0.58 4.09 C0.49 3.98, 0.41 3.86, 0.33 3.73 C0.26 3.61, 0.2 3.48, 0.15 3.34 C0.1 3.21, 0.06 3.06, 0.04 2.92 C0.01 2.78, 0 2.63, 0 2.49 C0 2.35, 0.01 2.2, 0.04 2.06 C0.06 1.92, 0.1 1.77, 0.15 1.64 C0.2 1.5, 0.26 1.37, 0.33 1.24 C0.41 1.12, 0.49 1, 0.58 0.89 C0.68 0.78, 0.78 0.68, 0.89 0.58 C1 0.49, 1.12 0.41, 1.24 0.33 C1.37 0.26, 1.5 0.2, 1.64 0.15 C1.77 0.1, 1.92 0.06, 2.06 0.04 C2.2 0.01, 2.35 0, 2.49 0 C2.63 0, 2.78 0.01, 2.92 0.04 C3.06 0.06, 3.21 0.1, 3.34 0.15 C3.48 0.2, 3.61 0.26, 3.73 0.33 C3.86 0.41, 3.98 0.49, 4.09 0.58 C4.2 0.68, 4.3 0.78, 4.4 0.89 C4.49 1, 4.57 1.12, 4.65 1.24 C4.72 1.37, 4.78 1.5, 4.83 1.64 C4.88 1.77, 4.92 1.92, 4.94 2.06 C4.97 2.2, 4.97 2.42, 4.98 2.49 C4.99 2.56, 4.99 2.42, 4.98 2.49" stroke="#279185" stroke-width="2" fill="none"></path></g><g stroke-linecap="round" transform="translate(43.11552321552347 44.43961983962026) rotate(0 2.489604989605027 2.4896049896049135)"><path d="M4.98 2.49 C4.98 2.63, 4.97 2.78, 4.94 2.92 C4.92 3.06, 4.88 3.21, 4.83 3.34 C4.78 3.48, 4.72 3.61, 4.65 3.73 C4.57 3.86, 4.49 3.98, 4.4 4.09 C4.3 4.2, 4.2 4.3, 4.09 4.4 C3.98 4.49, 3.86 4.57, 3.73 4.65 C3.61 4.72, 3.48 4.78, 3.34 4.83 C3.21 4.88, 3.06 4.92, 2.92 4.94 C2.78 4.97, 2.63 4.98, 2.49 4.98 C2.35 4.98, 2.2 4.97, 2.06 4.94 C1.92 4.92, 1.77 4.88, 1.64 4.83 C1.5 4.78, 1.37 4.72, 1.24 4.65 C1.12 4.57, 1 4.49, 0.89 4.4 C0.78 4.3, 0.68 4.2, 0.58 4.09 C0.49 3.98, 0.41 3.86, 0.33 3.73 C0.26 3.61, 0.2 3.48, 0.15 3.34 C0.1 3.21, 0.06 3.06, 0.04 2.92 C0.01 2.78, 0 2.63, 0 2.49 C0 2.35, 0.01 2.2, 0.04 2.06 C0.06 1.92, 0.1 1.77, 0.15 1.64 C0.2 1.5, 0.26 1.37, 0.33 1.24 C0.41 1.12, 0.49 1, 0.58 0.89 C0.68 0.78, 0.78 0.68, 0.89 0.58 C1 0.49, 1.12 0.41, 1.24 0.33 C1.37 0.26, 1.5 0.2, 1.64 0.15 C1.77 0.1, 1.92 0.06, 2.06 0.04 C2.2 0.01, 2.35 0, 2.49 0 C2.63 0, 2.78 0.01, 2.92 0.04 C3.06 0.06, 3.21 0.1, 3.34 0.15 C3.48 0.2, 3.61 0.26, 3.73 0.33 C3.86 0.41, 3.98 0.49, 4.09 0.58 C4.2 0.68, 4.3 0.78, 4.4 0.89 C4.49 1, 4.57 1.12, 4.65 1.24 C4.72 1.37, 4.78 1.5, 4.83 1.64 C4.88 1.77, 4.92 1.92, 4.94 2.06 C4.97 2.2, 4.97 2.42, 4.98 2.49 C4.99 2.56, 4.99 2.42, 4.98 2.49" stroke="#279185" stroke-width="2" fill="none"></path></g><g stroke-linecap="round" transform="translate(27.115523215523467 56.239619839619536) rotate(0 2.489604989605027 2.4896049896049135)"><path d="M4.98 2.49 C4.98 2.63, 4.97 2.78, 4.94 2.92 C4.92 3.06, 4.88 3.21, 4.83 3.34 C4.78 3.48, 4.72 3.61, 4.65 3.73 C4.57 3.86, 4.49 3.98, 4.4 4.09 C4.3 4.2, 4.2 4.3, 4.09 4.4 C3.98 4.49, 3.86 4.57, 3.73 4.65 C3.61 4.72, 3.48 4.78, 3.34 4.83 C3.21 4.88, 3.06 4.92, 2.92 4.94 C2.78 4.97, 2.63 4.98, 2.49 4.98 C2.35 4.98, 2.2 4.97, 2.06 4.94 C1.92 4.92, 1.77 4.88, 1.64 4.83 C1.5 4.78, 1.37 4.72, 1.24 4.65 C1.12 4.57, 1 4.49, 0.89 4.4 C0.78 4.3, 0.68 4.2, 0.58 4.09 C0.49 3.98, 0.41 3.86, 0.33 3.73 C0.26 3.61, 0.2 3.48, 0.15 3.34 C0.1 3.21, 0.06 3.06, 0.04 2.92 C0.01 2.78, 0 2.63, 0 2.49 C0 2.35, 0.01 2.2, 0.04 2.06 C0.06 1.92, 0.1 1.77, 0.15 1.64 C0.2 1.5, 0.26 1.37, 0.33 1.24 C0.41 1.12, 0.49 1, 0.58 0.89 C0.68 0.78, 0.78 0.68, 0.89 0.58 C1 0.49, 1.12 0.41, 1.24 0.33 C1.37 0.26, 1.5 0.2, 1.64 0.15 C1.77 0.1, 1.92 0.06, 2.06 0.04 C2.2 0.01, 2.35 0, 2.49 0 C2.63 0, 2.78 0.01, 2.92 0.04 C3.06 0.06, 3.21 0.1, 3.34 0.15 C3.48 0.2, 3.61 0.26, 3.73 0.33 C3.86 0.41, 3.98 0.49, 4.09 0.58 C4.2 0.68, 4.3 0.78, 4.4 0.89 C4.49 1, 4.57 1.12, 4.65 1.24 C4.72 1.37, 4.78 1.5, 4.83 1.64 C4.88 1.77, 4.92 1.92, 4.94 2.06 C4.97 2.2, 4.97 2.42, 4.98 2.49 C4.99 2.56, 4.99 2.42, 4.98 2.49" stroke="#279185" stroke-width="2" fill="none"></path></g><g stroke-linecap="round" transform="translate(24.91552321552365 16.239619839619536) rotate(0 2.489604989605027 2.4896049896049135)"><path d="M4.98 2.49 C4.98 2.63, 4.97 2.78, 4.94 2.92 C4.92 3.06, 4.88 3.21, 4.83 3.34 C4.78 3.48, 4.72 3.61, 4.65 3.73 C4.57 3.86, 4.49 3.98, 4.4 4.09 C4.3 4.2, 4.2 4.3, 4.09 4.4 C3.98 4.49, 3.86 4.57, 3.73 4.65 C3.61 4.72, 3.48 4.78, 3.34 4.83 C3.21 4.88, 3.06 4.92, 2.92 4.94 C2.78 4.97, 2.63 4.98, 2.49 4.98 C2.35 4.98, 2.2 4.97, 2.06 4.94 C1.92 4.92, 1.77 4.88, 1.64 4.83 C1.5 4.78, 1.37 4.72, 1.24 4.65 C1.12 4.57, 1 4.49, 0.89 4.4 C0.78 4.3, 0.68 4.2, 0.58 4.09 C0.49 3.98, 0.41 3.86, 0.33 3.73 C0.26 3.61, 0.2 3.48, 0.15 3.34 C0.1 3.21, 0.06 3.06, 0.04 2.92 C0.01 2.78, 0 2.63, 0 2.49 C0 2.35, 0.01 2.2, 0.04 2.06 C0.06 1.92, 0.1 1.77, 0.15 1.64 C0.2 1.5, 0.26 1.37, 0.33 1.24 C0.41 1.12, 0.49 1, 0.58 0.89 C0.68 0.78, 0.78 0.68, 0.89 0.58 C1 0.49, 1.12 0.41, 1.24 0.33 C1.37 0.26, 1.5 0.2, 1.64 0.15 C1.77 0.1, 1.92 0.06, 2.06 0.04 C2.2 0.01, 2.35 0, 2.49 0 C2.63 0, 2.78 0.01, 2.92 0.04 C3.06 0.06, 3.21 0.1, 3.34 0.15 C3.48 0.2, 3.61 0.26, 3.73 0.33 C3.86 0.41, 3.98 0.49, 4.09 0.58 C4.2 0.68, 4.3 0.78, 4.4 0.89 C4.49 1, 4.57 1.12, 4.65 1.24 C4.72 1.37, 4.78 1.5, 4.83 1.64 C4.88 1.77, 4.92 1.92, 4.94 2.06 C4.97 2.2, 4.97 2.42, 4.98 2.49 C4.99 2.56, 4.99 2.42, 4.98 2.49" stroke="#279185" stroke-width="2" fill="none"></path></g><g stroke-linecap="round" transform="translate(25.515523215523558 43.63961983961917) rotate(0 2.489604989605027 2.4896049896049135)"><path d="M4.98 2.49 C4.98 2.63, 4.97 2.78, 4.94 2.92 C4.92 3.06, 4.88 3.21, 4.83 3.34 C4.78 3.48, 4.72 3.61, 4.65 3.73 C4.57 3.86, 4.49 3.98, 4.4 4.09 C4.3 4.2, 4.2 4.3, 4.09 4.4 C3.98 4.49, 3.86 4.57, 3.73 4.65 C3.61 4.72, 3.48 4.78, 3.34 4.83 C3.21 4.88, 3.06 4.92, 2.92 4.94 C2.78 4.97, 2.63 4.98, 2.49 4.98 C2.35 4.98, 2.2 4.97, 2.06 4.94 C1.92 4.92, 1.77 4.88, 1.64 4.83 C1.5 4.78, 1.37 4.72, 1.24 4.65 C1.12 4.57, 1 4.49, 0.89 4.4 C0.78 4.3, 0.68 4.2, 0.58 4.09 C0.49 3.98, 0.41 3.86, 0.33 3.73 C0.26 3.61, 0.2 3.48, 0.15 3.34 C0.1 3.21, 0.06 3.06, 0.04 2.92 C0.01 2.78, 0 2.63, 0 2.49 C0 2.35, 0.01 2.2, 0.04 2.06 C0.06 1.92, 0.1 1.77, 0.15 1.64 C0.2 1.5, 0.26 1.37, 0.33 1.24 C0.41 1.12, 0.49 1, 0.58 0.89 C0.68 0.78, 0.78 0.68, 0.89 0.58 C1 0.49, 1.12 0.41, 1.24 0.33 C1.37 0.26, 1.5 0.2, 1.64 0.15 C1.77 0.1, 1.92 0.06, 2.06 0.04 C2.2 0.01, 2.35 0, 2.49 0 C2.63 0, 2.78 0.01, 2.92 0.04 C3.06 0.06, 3.21 0.1, 3.34 0.15 C3.48 0.2, 3.61 0.26, 3.73 0.33 C3.86 0.41, 3.98 0.49, 4.09 0.58 C4.2 0.68, 4.3 0.78, 4.4 0.89 C4.49 1, 4.57 1.12, 4.65 1.24 C4.72 1.37, 4.78 1.5, 4.83 1.64 C4.88 1.77, 4.92 1.92, 4.94 2.06 C4.97 2.2, 4.97 2.42, 4.98 2.49 C4.99 2.56, 4.99 2.42, 4.98 2.49" stroke="#279185" stroke-width="2" fill="none"></path></g><g stroke-linecap="round" transform="translate(16.515523215523558 29.639619839619172) rotate(0 2.489604989605027 2.4896049896049135)"><path d="M4.98 2.49 C4.98 2.63, 4.97 2.78, 4.94 2.92 C4.92 3.06, 4.88 3.21, 4.83 3.34 C4.78 3.48, 4.72 3.61, 4.65 3.73 C4.57 3.86, 4.49 3.98, 4.4 4.09 C4.3 4.2, 4.2 4.3, 4.09 4.4 C3.98 4.49, 3.86 4.57, 3.73 4.65 C3.61 4.72, 3.48 4.78, 3.34 4.83 C3.21 4.88, 3.06 4.92, 2.92 4.94 C2.78 4.97, 2.63 4.98, 2.49 4.98 C2.35 4.98, 2.2 4.97, 2.06 4.94 C1.92 4.92, 1.77 4.88, 1.64 4.83 C1.5 4.78, 1.37 4.72, 1.24 4.65 C1.12 4.57, 1 4.49, 0.89 4.4 C0.78 4.3, 0.68 4.2, 0.58 4.09 C0.49 3.98, 0.41 3.86, 0.33 3.73 C0.26 3.61, 0.2 3.48, 0.15 3.34 C0.1 3.21, 0.06 3.06, 0.04 2.92 C0.01 2.78, 0 2.63, 0 2.49 C0 2.35, 0.01 2.2, 0.04 2.06 C0.06 1.92, 0.1 1.77, 0.15 1.64 C0.2 1.5, 0.26 1.37, 0.33 1.24 C0.41 1.12, 0.49 1, 0.58 0.89 C0.68 0.78, 0.78 0.68, 0.89 0.58 C1 0.49, 1.12 0.41, 1.24 0.33 C1.37 0.26, 1.5 0.2, 1.64 0.15 C1.77 0.1, 1.92 0.06, 2.06 0.04 C2.2 0.01, 2.35 0, 2.49 0 C2.63 0, 2.78 0.01, 2.92 0.04 C3.06 0.06, 3.21 0.1, 3.34 0.15 C3.48 0.2, 3.61 0.26, 3.73 0.33 C3.86 0.41, 3.98 0.49, 4.09 0.58 C4.2 0.68, 4.3 0.78, 4.4 0.89 C4.49 1, 4.57 1.12, 4.65 1.24 C4.72 1.37, 4.78 1.5, 4.83 1.64 C4.88 1.77, 4.92 1.92, 4.94 2.06 C4.97 2.2, 4.97 2.42, 4.98 2.49 C4.99 2.56, 4.99 2.42, 4.98 2.49" stroke="#279185" stroke-width="2" fill="none"></path></g><g stroke-linecap="round"><g transform="translate(45.60512820512861 25.32922482922504) rotate(0 0 2.400000000000091)"><path d="M0 0 C0 1.28, 0 2.56, 0 4.8 M0 0 C0 1.17, 0 2.35, 0 4.8" stroke="#279185" stroke-width="2" fill="none"></path></g></g><mask></mask><g stroke-linecap="round"><g transform="translate(14.805128205128653 18.32922482922504) rotate(0 5.199999999999932 0)"><path d="M0 0 C2.56 0, 5.13 0, 10.4 0 M0 0 C3.44 0, 6.88 0, 10.4 0" stroke="#279185" stroke-width="2" fill="none"></path></g></g><mask></mask><g stroke-linecap="round"><g transform="translate(38.0051282051287 11.929224829225404) rotate(0 0.1999999999999318 26.799999999999955)"><path d="M0 0 C0.12 15.67, 0.23 31.33, 0.4 53.6 M0 0 C0.15 20.73, 0.31 41.46, 0.4 53.6" stroke="#279185" stroke-width="2" fill="none"></path></g></g><mask></mask><g stroke-linecap="round"><g transform="translate(38.40512820512856 24.129224829224313) rotate(0 7 0)"><path d="M0 0 C4.03 0, 8.06 0, 14 0 M0 0 C5.24 0, 10.49 0, 14 0" stroke="#279185" stroke-width="2" fill="none"></path></g></g><mask></mask><g stroke-linecap="round"><g transform="translate(68.80512820512843 37.32922482922504) rotate(0 -6.999999999999886 4.7999999999999545)"><path d="M0 0 C-4.89 0, -9.78 0, -14 0 M0 0 C-3.89 0, -7.77 0, -14 0 M-14 0 C-14 2.24, -14 4.48, -14 9.6 M-14 0 C-14 3.74, -14 7.49, -14 9.6" stroke="#279185" stroke-width="2" fill="none"></path></g></g><mask></mask><g stroke-linecap="round"><g transform="translate(49.00512820512847 46.929224829223585) rotate(0 2.800000000000068 0)"><path d="M0 0 C2.15 0, 4.31 0, 5.6 0 M0 0 C2.2 0, 4.4 0, 5.6 0" stroke="#279185" stroke-width="2" fill="none"></path></g></g><mask></mask><g stroke-linecap="round"><g transform="translate(52.40512820512879 23.729224829224677) rotate(0 0 -1.400000000000091)"><path d="M0 0 C0 -0.99, 0 -1.97, 0 -2.8 M0 0 C0 -0.89, 0 -1.79, 0 -2.8" stroke="#279185" stroke-width="2" fill="none"></path></g></g><mask></mask><g stroke-linecap="round"><g transform="translate(19.205128205128744 18.929224829225404) rotate(0 -1.1368683772161603e-13 5)"><path d="M0 0 C0 2.24, 0 4.48, 0 10 M0 0 C0 2.52, 0 5.04, 0 10" stroke="#279185" stroke-width="2" fill="none"></path></g></g><mask></mask><g stroke-linecap="round"><g transform="translate(38.00512820512847 30.929224829225404) rotate(0 -5.2000000000000455 6.2000000000000455)"><path d="M0 0 C-2.47 0, -4.95 0, -10.4 0 M0 0 C-3.84 0, -7.69 0, -10.4 0 M-10.4 0 C-10.4 2.77, -10.4 5.54, -10.4 12.4 M-10.4 0 C-10.4 2.75, -10.4 5.5, -10.4 12.4" stroke="#279185" stroke-width="2" fill="none"></path></g></g><mask></mask><g stroke-linecap="round"><g transform="translate(7.605128205128608 46.52922482922577) rotate(0 6.2000000000000455 6.400000000000091)"><path d="M0 0 C3.28 0.11, 6.55 0.21, 12.4 0.4 M0 0 C4.04 0.13, 8.08 0.26, 12.4 0.4 M12.4 0.4 C12.4 3.04, 12.4 5.67, 12.4 12.8 M12.4 0.4 C12.4 4.32, 12.4 8.24, 12.4 12.8" stroke="#279185" stroke-width="2" fill="none"></path></g></g><mask></mask><g stroke-linecap="round"><g transform="translate(25.80512820512888 59.32922482922504) rotate(0 -2.800000000000068 0)"><path d="M0 0 C-1.46 0, -2.92 0, -5.6 0 M0 0 C-1.35 0, -2.69 0, -5.6 0" stroke="#279185" stroke-width="2" fill="none"></path></g></g><mask></mask><g stroke-linecap="round"><g transform="translate(47.20512820512852 68.9292248292254) rotate(0 2.800000000000068 -6)"><path d="M0 0 C0 -2.8, 0 -5.6, 0 -12 M0 0 C0 -4.68, 0 -9.36, 0 -12 M0 -12 C1.38 -12, 2.76 -12, 5.6 -12 M0 -12 C2.14 -12, 4.29 -12, 5.6 -12" stroke="#279185" stroke-width="2" fill="none"></path></g></g><mask></mask><g transform="translate(10.686575586576168 75.00695920422504) rotate(0 26.98999786376953 12)"><text x="0" y="0" font-family="Virgil, Segoe UI Emoji" font-size="20px" fill="#000000" text-anchor="start" style="white-space: pre;" direction="ltr" dominant-baseline="text-before-edge">Model</text></g></svg>