<svg xmlns="http://www.w3.org/2000/svg" viewBox="2343.41 2351.06 129.82 129.54" width="130" height="130"><text x="2349.41" y="2446.59" font-size="20" fill="#000000" opacity="1.0" font-family="sans-serif">Certificate 
Manager</text><rect x="2376.09" y="2357.06" width="64.46" height="64.40" rx="0" stroke="#000000" stroke-width="2" opacity="1.0" fill="none"/><polyline points="2418.03,2411.77 2384.32,2411.77 2384.32,2366.47 2432.32,2366.47 2432.32,2412.04 2426.93,2412.04" fill="none" stroke="#000000" stroke-width="2" opacity="1.0" stroke-linecap="round" stroke-linejoin="round"/><polyline points="2384.32,2372.67 2432.32,2372.67" fill="none" stroke="#000000" stroke-width="2" opacity="1.0" stroke-linecap="round" stroke-linejoin="round"/><polyline points="2394.03,2400.85 2398.89,2400.85" fill="none" stroke="#000000" stroke-width="2" opacity="1.0" stroke-linecap="round" stroke-linejoin="round"/><polyline points="2394.03,2405.57 2398.89,2405.57" fill="none" stroke="#000000" stroke-width="2" opacity="1.0" stroke-linecap="round" stroke-linejoin="round"/><polyline points="2403.47,2400.85 2421.81,2400.85" fill="none" stroke="#000000" stroke-width="2" opacity="1.0" stroke-linecap="round" stroke-linejoin="round"/><polyline points="2403.47,2405.57 2415.60,2405.57" fill="none" stroke="#000000" stroke-width="2" opacity="1.0" stroke-linecap="round" stroke-linejoin="round"/><polyline points="2405.36,2383.46 2408.05,2376.72 2411.56,2383.73 2418.57,2383.73 2412.91,2388.85 2413.99,2396.13 2408.59,2391.82 2402.66,2396.13 2404.28,2388.85 2398.35,2383.46 2405.36,2383.46" fill="none" stroke="#000000" stroke-width="2" opacity="1.0" stroke-linecap="round" stroke-linejoin="round"/></svg>