<svg xmlns="http://www.w3.org/2000/svg" viewBox="732.90 1160.54 156.86 129.01" width="157" height="129"><rect x="778.08" y="1166.54" width="65.08" height="65.08" rx="0" stroke="#000000" stroke-width="2" opacity="1.0" fill="none"/><polyline points="835.84,1199.79 817.28,1199.80 803.29,1197.89 793.49,1193.02 787.99,1187.73" fill="#7950f2" stroke="#000000" stroke-width="2" opacity="1.0" stroke-linecap="round" stroke-linejoin="round"/><polyline points="835.90,1199.84 817.38,1199.96 803.35,1201.91 793.55,1207.20 788.05,1212.94" fill="#7950f2" stroke="#000000" stroke-width="2" opacity="1.0" stroke-linecap="round" stroke-linejoin="round"/><polyline points="835.39,1195.58 818.90,1195.59 806.47,1193.67 797.76,1188.81 792.87,1183.52" fill="#7950f2" stroke="#000000" stroke-width="2" opacity="1.0" stroke-linecap="round" stroke-linejoin="round"/><polyline points="835.60,1190.90 820.83,1190.91 809.70,1189.00 801.90,1184.13 798.47,1177.36" fill="#7950f2" stroke="#000000" stroke-width="2" opacity="1.0" stroke-linecap="round" stroke-linejoin="round"/><polyline points="813.97,1203.14 800.89,1207.71 793.45,1216.71" fill="#7950f2" stroke="#000000" stroke-width="2" opacity="1.0" stroke-linecap="round" stroke-linejoin="round"/><polyline points="811.59,1208.19 803.43,1213.96 798.36,1221.35" fill="#7950f2" stroke="#000000" stroke-width="2" opacity="1.0" stroke-linecap="round" stroke-linejoin="round"/><ellipse cx="823.37" cy="1213.29" rx="9.29" ry="9.29" stroke="#000000" stroke-width="2" opacity="1.0" fill="none"/><rect x="820.64" y="1214.20" width="4.37" height="4.37" rx="0" stroke="#000000" stroke-width="2" opacity="1.0" fill="none"/><rect x="825.38" y="1207.09" width="4.37" height="4.37" rx="0" stroke="#000000" stroke-width="2" opacity="1.0" fill="none"/><polyline points="819.18,1207.82 822.46,1207.82" fill="none" stroke="#000000" stroke-width="2" opacity="1.0" stroke-linecap="round" stroke-linejoin="round"/><polyline points="815.36,1211.47 818.63,1211.47" fill="none" stroke="#000000" stroke-width="2" opacity="1.0" stroke-linecap="round" stroke-linejoin="round"/><polyline points="828.65,1214.20 831.93,1214.20" fill="none" stroke="#000000" stroke-width="2" opacity="1.0" stroke-linecap="round" stroke-linejoin="round"/><polyline points="820.82,1211.47 822.64,1211.47" fill="none" stroke="#000000" stroke-width="2" opacity="1.0" stroke-linecap="round" stroke-linejoin="round"/><polyline points="815.90,1217.48 817.72,1217.48" fill="none" stroke="#000000" stroke-width="2" opacity="1.0" stroke-linecap="round" stroke-linejoin="round"/><polyline points="829.20,1217.66 831.02,1217.66" fill="none" stroke="#000000" stroke-width="2" opacity="1.0" stroke-linecap="round" stroke-linejoin="round"/><polyline points="814.81,1214.20 816.63,1214.20" fill="none" stroke="#000000" stroke-width="2" opacity="1.0" stroke-linecap="round" stroke-linejoin="round"/><text x="738.90" y="1255.54" font-size="20" fill="#000000" opacity="1.0" font-family="sans-serif">Kinesis 
Data Streams</text></svg>