<svg xmlns="http://www.w3.org/2000/svg" viewBox="2347.84 1469.49 120.96 115.86" width="121" height="116"><text x="2353.84" y="1551.53" font-size="20" fill="#000000" opacity="1.0" font-family="sans-serif">Automation</text><polyline points="2401.12,1527.28 2412.46,1527.55 2412.21,1521.98 2418.91,1518.48 2424.27,1522.19 2431.96,1513.56 2426.76,1510.06 2428.24,1504.44 2434.56,1504.46 2434.58,1494.39 2428.53,1494.40 2426.00,1490.41 2430.03,1485.26 2422.40,1478.83 2418.14,1483.16 2413.32,1481.19 2413.66,1475.68 2403.34,1475.49 2403.16,1480.74 2398.95,1482.87 2393.85,1478.51 2386.04,1485.78 2390.37,1489.14 2387.86,1493.90 2382.23,1494.20 2381.79,1504.09 2387.05,1503.98 2389.07,1509.64 2384.07,1512.48 2390.92,1521.40 2396.15,1518.49 2401.25,1521.33 2401.12,1527.28" fill="none" stroke="#e95d8e" stroke-width="2" opacity="1.0" stroke-linecap="round" stroke-linejoin="round"/><polyline points="2396.28,1496.35 2400.21,1490.46 2407.83,1487.68 2415.57,1490.22 2421.12,1498.20" fill="none" stroke="#e95d8e" stroke-width="2" opacity="1.0" stroke-linecap="round" stroke-linejoin="round"/><polyline points="2420.37,1506.46 2416.44,1512.35 2408.81,1515.12 2401.07,1512.58 2395.53,1504.61" fill="none" stroke="#e95d8e" stroke-width="2" opacity="1.0" stroke-linecap="round" stroke-linejoin="round"/></svg>