<svg version="1.1" xmlns="http://www.w3.org/2000/svg" viewBox="0 0 117.44000244140625 71.58130073926031" width="117.44000244140625" height="71.58130073926031">
  <!-- svg-source:excalidraw -->
  
  <defs>
    
    
  </defs>
  <g transform="translate(6 41.581300739260314) rotate(0 52.720001220703125 12)"><text x="0" y="0" font-family="Virgil, Segoe UI Emoji" font-size="20px" fill="#000000" text-anchor="start" style="white-space: pre;" direction="ltr" dominant-baseline="text-before-edge">Container2</text></g><g stroke-linecap="round" transform="translate(34.02136135415526 6) rotate(0 24.698639866547865 15.681676105744714)"><path d="M0 0 C13.6 0, 27.21 0, 49.4 0 M0 0 C9.99 0, 19.98 0, 49.4 0 M49.4 0 C49.4 12.25, 49.4 24.51, 49.4 31.36 M49.4 0 C49.4 8.77, 49.4 17.55, 49.4 31.36 M49.4 31.36 C36.72 31.36, 24.04 31.36, 0 31.36 M49.4 31.36 C35.96 31.36, 22.52 31.36, 0 31.36 M0 31.36 C0 20.59, 0 9.82, 0 0 M0 31.36 C0 21.5, 0 11.63, 0 0" stroke="#f08c00" stroke-width="2" fill="none"></path></g><g stroke-linecap="round"><g transform="translate(39.29403179645283 12.076649490976251) rotate(0 0 9.605026614768576)"><path d="M0 0 C0 4, 0 8, 0 19.21 M0 0 C0 3.86, 0 7.72, 0 19.21" stroke="#f08c00" stroke-width="2" fill="none"></path></g></g><mask></mask><g stroke-linecap="round"><g transform="translate(45.43602160453679 12.076649490976251) rotate(0 0 9.605026614768576)"><path d="M0 0 C0 4.96, 0 9.93, 0 19.21 M0 0 C0 6.62, 0 13.23, 0 19.21" stroke="#f08c00" stroke-width="2" fill="none"></path></g></g><mask></mask><g stroke-linecap="round"><g transform="translate(72.00398083686946 12.076649490976251) rotate(0 0 9.605026614768576)"><path d="M0 0 C0 5.47, 0 10.95, 0 19.21 M0 0 C0 6.23, 0 12.47, 0 19.21" stroke="#f08c00" stroke-width="2" fill="none"></path></g></g><mask></mask><g stroke-linecap="round"><g transform="translate(78.14597064495297 12.076649490976251) rotate(0 0 9.605026614768576)"><path d="M0 0 C0 7.5, 0 15.01, 0 19.21 M0 0 C0 5.37, 0 10.75, 0 19.21" stroke="#f08c00" stroke-width="2" fill="none"></path></g></g><mask></mask><g stroke-linecap="round" transform="translate(51.48986018993969 14.512795422434692) rotate(0 7.226762149269462 7.226762149269462)"><path d="M0 0 C3.02 0, 6.04 0, 14.45 0 M0 0 C5.42 0, 10.83 0, 14.45 0 M14.45 0 C14.45 4.93, 14.45 9.87, 14.45 14.45 M14.45 0 C14.45 3.51, 14.45 7.02, 14.45 14.45 M14.45 14.45 C9.79 14.45, 5.12 14.45, 0 14.45 M14.45 14.45 C9.46 14.45, 4.47 14.45, 0 14.45 M0 14.45 C0 8.99, 0 3.52, 0 0 M0 14.45 C0 8.78, 0 3.11, 0 0" stroke="#f08c00" stroke-width="2" fill="none"></path></g><g stroke-linecap="round"><g transform="translate(53.19817010371594 12.527257808615332) rotate(0 0 0.8215031523276366)"><path d="M0 0 C0 0.5, 0 1, 0 1.64 M0 0 C0 0.65, 0 1.3, 0 1.64" stroke="#f08c00" stroke-width="2" fill="none"></path></g></g><mask></mask><g stroke-linecap="round"><g transform="translate(55.95739622146266 12.527257808615332) rotate(0 0 0.8215031523276366)"><path d="M0 0 C0 0.55, 0 1.1, 0 1.64 M0 0 C0 0.56, 0 1.12, 0 1.64" stroke="#f08c00" stroke-width="2" fill="none"></path></g></g><mask></mask><g stroke-linecap="round"><g transform="translate(58.71662233920938 12.527257808615332) rotate(0 0 0.8215031523276366)"><path d="M0 0 C0 0.53, 0 1.07, 0 1.64 M0 0 C0 0.43, 0 0.86, 0 1.64" stroke="#f08c00" stroke-width="2" fill="none"></path></g></g><mask></mask><g stroke-linecap="round"><g transform="translate(61.4758484569561 12.527257808615332) rotate(0 0 0.8215031523276366)"><path d="M0 0 C0 0.62, 0 1.25, 0 1.64 M0 0 C0 0.51, 0 1.02, 0 1.64" stroke="#f08c00" stroke-width="2" fill="none"></path></g></g><mask></mask><g stroke-linecap="round"><g transform="translate(64.2350745747026 12.527257808615332) rotate(0 0 0.8215031523276366)"><path d="M0 0 C0 0.38, 0 0.75, 0 1.64 M0 0 C0 0.62, 0 1.23, 0 1.64" stroke="#f08c00" stroke-width="2" fill="none"></path></g></g><mask></mask><g stroke-linecap="round"><g transform="translate(53.19817010371594 29.193088098218595) rotate(0 0 0.8215031523276366)"><path d="M0 0 C0 0.58, 0 1.17, 0 1.64 M0 0 C0 0.59, 0 1.19, 0 1.64" stroke="#f08c00" stroke-width="2" fill="none"></path></g></g><mask></mask><g stroke-linecap="round"><g transform="translate(55.95739622146266 29.193088098218595) rotate(0 0 0.8215031523276366)"><path d="M0 0 C0 0.56, 0 1.12, 0 1.64 M0 0 C0 0.4, 0 0.8, 0 1.64" stroke="#f08c00" stroke-width="2" fill="none"></path></g></g><mask></mask><g stroke-linecap="round"><g transform="translate(58.71662233920938 29.193088098218595) rotate(0 0 0.8215031523276366)"><path d="M0 0 C0 0.33, 0 0.66, 0 1.64 M0 0 C0 0.55, 0 1.1, 0 1.64" stroke="#f08c00" stroke-width="2" fill="none"></path></g></g><mask></mask><g stroke-linecap="round"><g transform="translate(61.4758484569561 29.193088098218595) rotate(0 0 0.8215031523276366)"><path d="M0 0 C0 0.52, 0 1.04, 0 1.64 M0 0 C0 0.56, 0 1.13, 0 1.64" stroke="#f08c00" stroke-width="2" fill="none"></path></g></g><mask></mask><g stroke-linecap="round"><g transform="translate(64.2350745747026 29.193088098218595) rotate(0 0 0.8215031523276366)"><path d="M0 0 C0 0.63, 0 1.27, 0 1.64 M0 0 C0 0.4, 0 0.79, 0 1.64" stroke="#f08c00" stroke-width="2" fill="none"></path></g></g><mask></mask><g stroke-linecap="round"><g transform="translate(67.08220994118142 15.399909078825885) rotate(89.39573719151072 0 0.8215031523276366)"><path d="M0 0 C0 0.57, 0 1.13, 0 1.64 M0 0 C0 0.53, 0 1.05, 0 1.64" stroke="#f08c00" stroke-width="2" fill="none"></path></g></g><mask></mask><g stroke-linecap="round"><g transform="translate(67.11130923662154 18.158981749101258) rotate(89.39573719151072 0 0.8215031523276366)"><path d="M0 0 C0 0.52, 0 1.04, 0 1.64 M0 0 C0 0.43, 0 0.86, 0 1.64" stroke="#f08c00" stroke-width="2" fill="none"></path></g></g><mask></mask><g stroke-linecap="round"><g transform="translate(67.14040853206166 20.91805441937663) rotate(89.39573719151072 0 0.8215031523276366)"><path d="M0 0 C0 0.56, 0 1.12, 0 1.64 M0 0 C0 0.64, 0 1.28, 0 1.64" stroke="#f08c00" stroke-width="2" fill="none"></path></g></g><mask></mask><g stroke-linecap="round"><g transform="translate(67.16950782750155 23.677127089651776) rotate(89.39573719151072 0 0.8215031523276366)"><path d="M0 0 C0 0.53, 0 1.06, 0 1.64 M0 0 C0 0.57, 0 1.13, 0 1.64" stroke="#f08c00" stroke-width="2" fill="none"></path></g></g><mask></mask><g stroke-linecap="round"><g transform="translate(67.19860712294167 26.436199759927376) rotate(89.39573719151072 0 0.8215031523276366)"><path d="M0 0 C0 0.59, 0 1.17, 0 1.64 M0 0 C0 0.55, 0 1.11, 0 1.64" stroke="#f08c00" stroke-width="2" fill="none"></path></g></g><mask></mask><g stroke-linecap="round"><g transform="translate(50.24139531846504 15.399909078825885) rotate(89.39573719151072 0 0.8215031523276366)"><path d="M0 0 C0 0.45, 0 0.9, 0 1.64 M0 0 C0 0.34, 0 0.69, 0 1.64" stroke="#f08c00" stroke-width="2" fill="none"></path></g></g><mask></mask><g stroke-linecap="round"><g transform="translate(50.27049461390516 18.158981749101258) rotate(89.39573719151072 0 0.8215031523276366)"><path d="M0 0 C0 0.61, 0 1.22, 0 1.64 M0 0 C0 0.51, 0 1.02, 0 1.64" stroke="#f08c00" stroke-width="2" fill="none"></path></g></g><mask></mask><g stroke-linecap="round"><g transform="translate(50.29959390934505 20.91805441937663) rotate(89.39573719151072 0 0.8215031523276366)"><path d="M0 0 C0 0.59, 0 1.19, 0 1.64 M0 0 C0 0.56, 0 1.12, 0 1.64" stroke="#f08c00" stroke-width="2" fill="none"></path></g></g><mask></mask><g stroke-linecap="round"><g transform="translate(50.32869320478517 23.677127089651776) rotate(89.39573719151072 0 0.8215031523276366)"><path d="M0 0 C0 0.49, 0 0.98, 0 1.64 M0 0 C0 0.38, 0 0.76, 0 1.64" stroke="#f08c00" stroke-width="2" fill="none"></path></g></g><mask></mask><g stroke-linecap="round"><g transform="translate(50.35779250022529 26.436199759927376) rotate(89.39573719151072 0 0.8215031523276366)"><path d="M0 0 C0 0.52, 0 1.04, 0 1.64 M0 0 C0 0.65, 0 1.3, 0 1.64" stroke="#f08c00" stroke-width="2" fill="none"></path></g></g><mask></mask></svg>