<svg xmlns="http://www.w3.org/2000/svg" viewBox="1640.18 1311.45 133.40 128.51" width="133" height="129"><text x="1646.18" y="1405.96" font-size="20" fill="#000000" opacity="1.0" font-family="sans-serif">EC2
Auto Scaling</text><rect x="1674.65" y="1317.45" width="64.46" height="64.40" rx="0" stroke="#000000" stroke-width="2" opacity="1.0" fill="none"/><rect x="1699.76" y="1342.86" width="14.29" height="14.29" rx="0" stroke="#1e1e1e" stroke-width="2" opacity="1.0" fill="none"/><polyline points="1701.45,1340.90 1701.45,1342.52" fill="none" stroke="#1e1e1e" stroke-width="2" opacity="1.0" stroke-linecap="round" stroke-linejoin="round"/><polyline points="1704.18,1340.90 1704.18,1342.52" fill="none" stroke="#1e1e1e" stroke-width="2" opacity="1.0" stroke-linecap="round" stroke-linejoin="round"/><polyline points="1706.91,1340.90 1706.91,1342.52" fill="none" stroke="#1e1e1e" stroke-width="2" opacity="1.0" stroke-linecap="round" stroke-linejoin="round"/><polyline points="1709.64,1340.90 1709.64,1342.52" fill="none" stroke="#1e1e1e" stroke-width="2" opacity="1.0" stroke-linecap="round" stroke-linejoin="round"/><polyline points="1712.36,1340.90 1712.36,1342.52" fill="none" stroke="#1e1e1e" stroke-width="2" opacity="1.0" stroke-linecap="round" stroke-linejoin="round"/><polyline points="1701.45,1357.37 1701.45,1358.99" fill="none" stroke="#1e1e1e" stroke-width="2" opacity="1.0" stroke-linecap="round" stroke-linejoin="round"/><polyline points="1704.18,1357.37 1704.18,1358.99" fill="none" stroke="#1e1e1e" stroke-width="2" opacity="1.0" stroke-linecap="round" stroke-linejoin="round"/><polyline points="1706.91,1357.37 1706.91,1358.99" fill="none" stroke="#1e1e1e" stroke-width="2" opacity="1.0" stroke-linecap="round" stroke-linejoin="round"/><polyline points="1709.64,1357.37 1709.64,1358.99" fill="none" stroke="#1e1e1e" stroke-width="2" opacity="1.0" stroke-linecap="round" stroke-linejoin="round"/><polyline points="1712.36,1357.37 1712.36,1358.99" fill="none" stroke="#1e1e1e" stroke-width="2" opacity="1.0" stroke-linecap="round" stroke-linejoin="round"/><polyline points="1715.18,1343.73 1715.18,1345.36" fill="none" stroke="#1e1e1e" stroke-width="2" opacity="1.0" stroke-linecap="round" stroke-linejoin="round" transform="rotate(89.40 1715.18 1344.55)"/><polyline points="1715.21,1346.46 1715.21,1348.09" fill="none" stroke="#1e1e1e" stroke-width="2" opacity="1.0" stroke-linecap="round" stroke-linejoin="round" transform="rotate(89.40 1715.21 1347.27)"/><polyline points="1715.23,1349.19 1715.23,1350.81" fill="none" stroke="#1e1e1e" stroke-width="2" opacity="1.0" stroke-linecap="round" stroke-linejoin="round" transform="rotate(89.40 1715.23 1350.00)"/><polyline points="1715.26,1351.92 1715.26,1353.54" fill="none" stroke="#1e1e1e" stroke-width="2" opacity="1.0" stroke-linecap="round" stroke-linejoin="round" transform="rotate(89.40 1715.26 1352.73)"/><polyline points="1715.29,1354.64 1715.29,1356.27" fill="none" stroke="#1e1e1e" stroke-width="2" opacity="1.0" stroke-linecap="round" stroke-linejoin="round" transform="rotate(89.40 1715.29 1355.46)"/><polyline points="1698.53,1343.73 1698.53,1345.36" fill="none" stroke="#1e1e1e" stroke-width="2" opacity="1.0" stroke-linecap="round" stroke-linejoin="round" transform="rotate(89.40 1698.53 1344.55)"/><polyline points="1698.56,1346.46 1698.56,1348.09" fill="none" stroke="#1e1e1e" stroke-width="2" opacity="1.0" stroke-linecap="round" stroke-linejoin="round" transform="rotate(89.40 1698.56 1347.27)"/><polyline points="1698.59,1349.19 1698.59,1350.81" fill="none" stroke="#1e1e1e" stroke-width="2" opacity="1.0" stroke-linecap="round" stroke-linejoin="round" transform="rotate(89.40 1698.59 1350.00)"/><polyline points="1698.62,1351.92 1698.62,1353.54" fill="none" stroke="#1e1e1e" stroke-width="2" opacity="1.0" stroke-linecap="round" stroke-linejoin="round" transform="rotate(89.40 1698.62 1352.73)"/><polyline points="1698.64,1354.64 1698.64,1356.27" fill="none" stroke="#1e1e1e" stroke-width="2" opacity="1.0" stroke-linecap="round" stroke-linejoin="round" transform="rotate(89.40 1698.64 1355.46)"/><polyline points="1707.15,1324.90 1707.15,1336.06" fill="#ffffff" stroke="#1e1e1e" stroke-width="2" opacity="1.0" stroke-linecap="round" stroke-linejoin="round"/><polyline points="1701.04,1329.95 1707.06,1323.93 1712.79,1329.66" fill="#ffffff" stroke="#1e1e1e" stroke-width="2" opacity="1.0" stroke-linecap="round" stroke-linejoin="round"/><polyline points="1707.15,1374.41 1707.15,1363.25" fill="#ffffff" stroke="#1e1e1e" stroke-width="2" opacity="1.0" stroke-linecap="round" stroke-linejoin="round"/><polyline points="1701.04,1369.36 1707.06,1375.38 1712.79,1369.65" fill="#ffffff" stroke="#1e1e1e" stroke-width="2" opacity="1.0" stroke-linecap="round" stroke-linejoin="round"/><polyline points="1686.34,1344.60 1686.34,1355.76" fill="#ffffff" stroke="#1e1e1e" stroke-width="2" opacity="1.0" stroke-linecap="round" stroke-linejoin="round" transform="rotate(90.00 1686.34 1350.18)"/><polyline points="1684.01,1352.96 1690.03,1346.93 1695.76,1352.66" fill="#ffffff" stroke="#1e1e1e" stroke-width="2" opacity="1.0" stroke-linecap="round" stroke-linejoin="round" transform="rotate(90.00 1689.89 1355.97)"/><polyline points="1727.41,1344.60 1727.41,1355.76" fill="#ffffff" stroke="#1e1e1e" stroke-width="2" opacity="1.0" stroke-linecap="round" stroke-linejoin="round" transform="rotate(270.00 1727.41 1350.18)"/><polyline points="1729.74,1352.96 1723.72,1346.93 1717.99,1352.66" fill="#ffffff" stroke="#1e1e1e" stroke-width="2" opacity="1.0" stroke-linecap="round" stroke-linejoin="round" transform="rotate(270.00 1735.62 1355.97)"/></svg>