<svg xmlns="http://www.w3.org/2000/svg" viewBox="-266.36 -793.67 120.00 118.43" width="120" height="118"><rect x="-232.89" y="-787.67" width="64.65" height="64.65" rx="0" stroke="none" stroke-width="1" opacity="1.0" fill="#e64980"/><rect x="-238.73" y="-787.55" width="64.65" height="64.65" rx="0" stroke="#000000" stroke-width="1" opacity="1.0" fill="none"/><polyline points="-212.83,-767.45 -197.66,-767.45" fill="none" stroke="#ffffff" stroke-width="2" opacity="1.0" stroke-linecap="round" stroke-linejoin="round"/><polyline points="-214.30,-742.67 -197.16,-742.67" fill="none" stroke="#ffffff" stroke-width="2" opacity="1.0" stroke-linecap="round" stroke-linejoin="round"/><polyline points="-231.10,-771.62 -214.15,-779.02 -214.23,-730.61 -231.02,-738.17 -231.10,-771.62" fill="none" stroke="#ffffff" stroke-width="2" opacity="1.0" stroke-linecap="round" stroke-linejoin="round"/><polyline points="-196.64,-779.21 -196.44,-730.93 -179.68,-738.26 -179.66,-771.70 -196.64,-779.21" fill="none" stroke="#ffffff" stroke-width="2" opacity="1.0" stroke-linecap="round" stroke-linejoin="round"/><polyline points="-209.96,-749.07 -200.86,-761.28" fill="none" stroke="#ffffff" stroke-width="2" opacity="1.0" stroke-linecap="round" stroke-linejoin="round"/><polyline points="-202.15,-758.94 -197.15,-754.57 -202.16,-750.53" fill="none" stroke="#ffffff" stroke-width="2" opacity="1.0" stroke-linecap="round" stroke-linejoin="round"/><polyline points="-213.96,-759.49 -208.95,-755.12 -213.97,-751.07" fill="none" stroke="#ffffff" stroke-width="2" opacity="1.0" stroke-linecap="round" stroke-linejoin="round" transform="rotate(180.00 -211.45 -755.28)"/><text x="-260.36" y="-705.24" font-size="16" fill="#000000" opacity="1.0" font-family="sans-serif">Amazon
API Gateway</text></svg>