<svg version="1.1" xmlns="http://www.w3.org/2000/svg" viewBox="0 0 119.18000793457031 91.46750939706453" width="119.18000793457031" height="91.46750939706453">
  <!-- svg-source:excalidraw -->
  
  <defs>
    
    
  </defs>
  <g transform="translate(6 61.46750939706453) rotate(0 53.590003967285156 12)"><text x="53.590003967285156" y="0" font-family="Virgil, Segoe UI Emoji" font-size="20px" fill="#000000" text-anchor="middle" style="white-space: pre;" direction="ltr" dominant-baseline="text-before-edge">Permissions</text></g><g stroke-linecap="round" transform="translate(38.48290737138268 6) rotate(0 21.10709659590225 27.5)"><path d="M0 0 C9.47 0, 18.95 0, 42.21 0 M0 0 C15.93 0, 31.87 0, 42.21 0 M42.21 0 C42.21 17.75, 42.21 35.49, 42.21 55 M42.21 0 C42.21 19.77, 42.21 39.55, 42.21 55 M42.21 55 C27.73 55, 13.24 55, 0 55 M42.21 55 C32.46 55, 22.71 55, 0 55 M0 55 C0 38.57, 0 22.15, 0 0 M0 55 C0 34.71, 0 14.42, 0 0" stroke="#e64980" stroke-width="2" fill="none"></path></g><g stroke-linecap="round"><g transform="translate(43.42678379651443 16.64869192189917) rotate(0 5.950975487435471 2.2737367544323206e-13)"><path d="M0 0 C1.02 0.9, 2.04 1.8, 4.46 3.92 M0 0 C1.67 1.47, 3.34 2.94, 4.46 3.92 M4.46 3.92 C7.24 1, 10.01 -1.93, 11.9 -3.92 M4.46 3.92 C6.69 1.57, 8.92 -0.78, 11.9 -3.92" stroke="#e64980" stroke-width="2" fill="none"></path></g></g><mask></mask><g stroke-linecap="round"><g transform="translate(43.42678379651443 31.255631754694605) rotate(0 5.950975487435471 2.2737367544323206e-13)"><path d="M0 0 C0.99 0.87, 1.98 1.74, 4.46 3.92 M0 0 C0.96 0.85, 1.93 1.69, 4.46 3.92 M4.46 3.92 C6.06 2.23, 7.67 0.54, 11.9 -3.92 M4.46 3.92 C6.31 1.98, 8.15 0.04, 11.9 -3.92" stroke="#e64980" stroke-width="2" fill="none"></path></g></g><mask></mask><g stroke-linecap="round"><g transform="translate(44.64402878258079 42.925236653713) rotate(0 4.192732729783984 4.192732729784211)"><path d="M0 0 C2.83 2.83, 5.65 5.65, 8.39 8.39 M0 0 C2.21 2.21, 4.42 4.42, 8.39 8.39" stroke="#e64980" stroke-width="2" fill="none"></path></g></g><mask></mask><g stroke-linecap="round"><g transform="translate(53.02949424214876 42.925236653713455) rotate(0 -4.192732729783984 4.192732729784211)"><path d="M0 0 C-2.02 2.02, -4.04 4.04, -8.39 8.39 M0 0 C-1.97 1.97, -3.95 3.95, -8.39 8.39" stroke="#e64980" stroke-width="2" fill="none"></path></g></g><mask></mask></svg>