<svg version="1.1" xmlns="http://www.w3.org/2000/svg" viewBox="0 0 143.94000244140625 104.9452905270955" width="143.94000244140625" height="104.9452905270955">
  <!-- svg-source:excalidraw -->
  
  <defs>
    
    
  </defs>
  <g transform="translate(6 74.9452905270955) rotate(0 65.97000122070312 12)"><text x="0" y="0" font-family="Virgil, Segoe UI Emoji" font-size="20px" fill="#000000" text-anchor="start" style="white-space: pre;" direction="ltr" dominant-baseline="text-before-edge">Organizations</text></g><g stroke-linecap="round" transform="translate(39.739425038224454 6) rotate(0 32.230576182478444 32.19971236713013)"><path d="M0 0 C0 0, 0 0, 0 0 M0 0 C0 0, 0 0, 0 0 M0.13 12.04 C3.92 7.69, 7.7 3.34, 10.63 -0.03 M0.13 12.04 C2.71 9.07, 5.29 6.1, 10.63 -0.03 M0.27 24.08 C6.78 16.59, 13.29 9.1, 21.26 -0.07 M0.27 24.08 C4.72 18.95, 9.18 13.82, 21.26 -0.07 M-0.26 36.88 C12.25 22.49, 24.76 8.1, 31.89 -0.1 M-0.26 36.88 C10.46 24.55, 21.18 12.22, 31.89 -0.1 M-0.12 48.92 C14.68 31.88, 29.49 14.85, 42.52 -0.14 M-0.12 48.92 C16.7 29.56, 33.53 10.21, 42.52 -0.14 M0.01 60.96 C16.19 42.34, 32.37 23.73, 53.15 -0.17 M0.01 60.96 C14.15 44.69, 28.29 28.43, 53.15 -0.17 M7.36 64.7 C28.05 40.89, 48.74 17.09, 63.78 -0.21 M7.36 64.7 C20.75 49.29, 34.14 33.89, 63.78 -0.21 M17.99 64.66 C33.87 46.39, 49.75 28.13, 64.57 11.08 M17.99 64.66 C29.68 51.21, 41.38 37.76, 64.57 11.08 M28.62 64.63 C41.28 50.06, 53.95 35.49, 64.7 23.12 M28.62 64.63 C37.2 54.76, 45.78 44.89, 64.7 23.12 M39.25 64.59 C48.29 54.2, 57.32 43.8, 64.84 35.16 M39.25 64.59 C48.21 54.28, 57.18 43.97, 64.84 35.16 M49.88 64.56 C55.2 58.45, 60.51 52.33, 64.97 47.2 M49.88 64.56 C54.37 59.39, 58.87 54.22, 64.97 47.2 M60.51 64.53 C61.76 63.09, 63 61.66, 64.45 60 M60.51 64.53 C62.01 62.8, 63.51 61.08, 64.45 60 M-0.19 64.24 C-0.19 64.24, -0.19 64.24, -0.19 64.24 M-0.19 64.24 C-0.19 64.24, -0.19 64.24, -0.19 64.24 M11.85 64.1 C9.12 61.73, 6.39 59.36, -0.22 53.61 M11.85 64.1 C9.28 61.86, 6.7 59.63, -0.22 53.61 M24.65 64.63 C15.49 56.66, 6.33 48.7, -0.26 42.98 M24.65 64.63 C18.99 59.7, 13.32 54.78, -0.26 42.98 M36.69 64.49 C21.97 51.7, 7.26 38.91, -0.29 32.35 M36.69 64.49 C26.55 55.68, 16.41 46.87, -0.29 32.35 M48.73 64.36 C32.13 49.93, 15.54 35.5, -0.33 21.72 M48.73 64.36 C37.74 54.81, 26.76 45.26, -0.33 21.72 M60.77 64.23 C38.28 44.67, 15.78 25.12, -0.36 11.09 M60.77 64.23 C45.84 51.25, 30.91 38.27, -0.36 11.09 M65.26 57.53 C49.75 44.04, 34.23 30.56, 0.36 1.11 M65.26 57.53 C43.57 38.67, 21.88 19.82, 0.36 1.11 M65.23 46.9 C43.9 28.36, 22.56 9.81, 10.89 -0.33 M65.23 46.9 C45.73 29.95, 26.22 13, 10.89 -0.33 M65.2 36.27 C49.39 22.53, 33.59 8.8, 22.93 -0.47 M65.2 36.27 C48.98 22.18, 32.77 8.09, 22.93 -0.47 M65.16 25.64 C54.64 16.5, 44.12 7.35, 34.97 -0.6 M65.16 25.64 C55.86 17.55, 46.55 9.47, 34.97 -0.6 M65.13 15.01 C59.62 10.22, 54.11 5.44, 47.77 -0.08 M65.13 15.01 C61.62 11.97, 58.12 8.92, 47.77 -0.08 M65.09 4.38 C63.86 3.31, 62.63 2.24, 59.81 -0.21 M65.09 4.38 C63.31 2.83, 61.53 1.29, 59.81 -0.21" stroke="#e6498088" stroke-width="1" fill="none"></path><path d="M0 0 C14.65 0, 29.3 0, 64.46 0 M0 0 C14.71 0, 29.42 0, 64.46 0 M64.46 0 C64.46 20.99, 64.46 41.97, 64.46 64.4 M64.46 0 C64.46 16.09, 64.46 32.17, 64.46 64.4 M64.46 64.4 C51.14 64.4, 37.83 64.4, 0 64.4 M64.46 64.4 C47.4 64.4, 30.35 64.4, 0 64.4 M0 64.4 C0 44.83, 0 25.27, 0 0 M0 64.4 C0 41.82, 0 19.25, 0 0" stroke="#000000" stroke-width="2" fill="none"></path></g><g stroke-linecap="round"><g transform="translate(84.24249528199789 21.91337508410652) rotate(0 -12.446255364437775 3.6381427096353036)" fill-rule="evenodd"><path d="M0 0 L-0.01 -4.3 L-12.65 -8.81 L-24.84 -4.35 L-24.92 10.51 L-12.52 16.09 L0.02 10.56 L0 0" stroke="none" stroke-width="0" fill="#ff00" fill-rule="evenodd"></path><path d="M0 0 C0 -1.14, -0.01 -2.28, -0.01 -4.3 M0 0 C0 -1.54, -0.01 -3.07, -0.01 -4.3 M-0.01 -4.3 C-4.44 -5.88, -8.87 -7.47, -12.65 -8.81 M-0.01 -4.3 C-3.47 -5.54, -6.92 -6.77, -12.65 -8.81 M-12.65 -8.81 C-17.16 -7.16, -21.67 -5.51, -24.84 -4.35 M-12.65 -8.81 C-17.19 -7.15, -21.73 -5.49, -24.84 -4.35 M-24.84 -4.35 C-24.86 0.14, -24.89 4.63, -24.92 10.51 M-24.84 -4.35 C-24.86 0.04, -24.88 4.42, -24.92 10.51 M-24.92 10.51 C-20.23 12.62, -15.54 14.73, -12.52 16.09 M-24.92 10.51 C-20.13 12.66, -15.35 14.81, -12.52 16.09 M-12.52 16.09 C-8.82 14.46, -5.12 12.83, 0.02 10.56 M-12.52 16.09 C-9.68 14.84, -6.84 13.59, 0.02 10.56 M0.02 10.56 C0.02 7.05, 0.01 3.55, 0 0 M0.02 10.56 C0.02 7.7, 0.01 4.83, 0 0 M0 0 C0 0, 0 0, 0 0 M0 0 C0 0, 0 0, 0 0" stroke="#000" stroke-width="2" fill="none"></path></g></g><mask></mask><g stroke-linecap="round"><g transform="translate(59.76957537750377 17.797377337170474) rotate(0 6.032051831454737 9.845996306250868)"><path d="M0 0 C3.7 1.48, 7.4 2.96, 12.06 4.83 M0 0 C3.36 1.34, 6.71 2.69, 12.06 4.83 M12.06 4.83 C12.05 8.63, 12.04 12.43, 12.01 19.69 M12.06 4.83 C12.05 9.69, 12.03 14.54, 12.01 19.69" stroke="#000000" stroke-width="2" fill="none"></path></g></g><mask></mask><g stroke-linecap="round"><g transform="translate(71.79623991755761 22.566448141004003) rotate(0 5.9701393054790515 -2.321720841019669)"><path d="M0 0 C3.03 -1.18, 6.05 -2.35, 11.94 -4.64 M0 0 C2.8 -1.09, 5.61 -2.18, 11.94 -4.64" stroke="#000000" stroke-width="2" fill="none"></path></g></g><mask></mask><g stroke-linecap="round"><g transform="translate(51.479934995537405 46.25122658492364) rotate(0 20.490066225165492 0)"><path d="M0 0 C9.85 0, 19.7 0, 40.98 0 M0 0 C11.95 0, 23.89 0, 40.98 0" stroke="#000000" stroke-width="2" fill="none"></path></g></g><mask></mask><g stroke-linecap="round"><g transform="translate(92.46006744586839 46.5955974458484) rotate(0 0 2.4105960264901114)"><path d="M0 0 C0 1.9, 0 3.8, 0 4.82 M0 0 C0 1.09, 0 2.18, 0 4.82" stroke="#000000" stroke-width="2" fill="none"></path></g></g><mask></mask><g stroke-linecap="round"><g transform="translate(51.479934995537405 46.93996830677679) rotate(0 0 2.4105960264901114)"><path d="M0 0 C0 1.41, 0 2.83, 0 4.82 M0 0 C0 1.55, 0 3.09, 0 4.82" stroke="#000000" stroke-width="2" fill="none"></path></g></g><mask></mask><g stroke-linecap="round"><g transform="translate(71.79781579023938 43.1518888365772) rotate(0 0 4.476821192052967)"><path d="M0 0 C0 2.92, 0 5.84, 0 8.95 M0 0 C0 2.24, 0 4.47, 0 8.95" stroke="#000000" stroke-width="2" fill="none"></path></g></g><mask></mask><g stroke-linecap="round" transform="translate(45.970001220703125 52.277716651145965) rotate(0 5.509933774834508 5.509933774834394)"><path d="M0 0 C3.86 0, 7.73 0, 11.02 0 M0 0 C3.01 0, 6.02 0, 11.02 0 M11.02 0 C11.02 4.08, 11.02 8.15, 11.02 11.02 M11.02 0 C11.02 4.1, 11.02 8.21, 11.02 11.02 M11.02 11.02 C7.69 11.02, 4.36 11.02, 0 11.02 M11.02 11.02 C7.77 11.02, 4.52 11.02, 0 11.02 M0 11.02 C0 6.85, 0 2.69, 0 0 M0 11.02 C0 6.77, 0 2.52, 0 0" stroke="#000000" stroke-width="2" fill="none"></path></g><g stroke-linecap="round" transform="translate(66.46006744586839 52.277716651145965) rotate(0 5.509933774834508 5.509933774834394)"><path d="M0 0 C2.82 0, 5.64 0, 11.02 0 M0 0 C3.6 0, 7.2 0, 11.02 0 M11.02 0 C11.02 2.65, 11.02 5.3, 11.02 11.02 M11.02 0 C11.02 4.16, 11.02 8.32, 11.02 11.02 M11.02 11.02 C7.16 11.02, 3.31 11.02, 0 11.02 M11.02 11.02 C8.61 11.02, 6.2 11.02, 0 11.02 M0 11.02 C0 7.88, 0 4.74, 0 0 M0 11.02 C0 8.46, 0 5.89, 0 0" stroke="#000000" stroke-width="2" fill="none"></path></g><g stroke-linecap="round" transform="translate(86.95013367103411 52.277716651145965) rotate(0 5.509933774834508 5.509933774834394)"><path d="M0 0 C2.4 0, 4.81 0, 11.02 0 M0 0 C2.33 0, 4.66 0, 11.02 0 M11.02 0 C11.02 3.07, 11.02 6.14, 11.02 11.02 M11.02 0 C11.02 3.09, 11.02 6.17, 11.02 11.02 M11.02 11.02 C7.7 11.02, 4.39 11.02, 0 11.02 M11.02 11.02 C8.14 11.02, 5.27 11.02, 0 11.02 M0 11.02 C0 8.59, 0 6.16, 0 0 M0 11.02 C0 7.06, 0 3.11, 0 0" stroke="#000000" stroke-width="2" fill="none"></path></g></svg>