<svg xmlns="http://www.w3.org/2000/svg" viewBox="2370.18 2493.89 76.28 104.15" width="76" height="104"><text x="2388.65" y="2588.04" font-size="20" fill="#000000" opacity="1.0" font-family="sans-serif">IAM</text><rect x="2376.18" y="2499.89" width="64.28" height="64.54" rx="0" stroke="#000000" stroke-width="2" opacity="1.0" fill="none"/><rect x="2388.98" y="2530.21" width="18.52" height="15.02" rx="0" stroke="#000000" stroke-width="2" opacity="1.0" fill="none"/><polyline points="2392.93,2529.93 2392.63,2526.32 2394.13,2521.80 2398.65,2520.00 2402.56,2521.80 2404.07,2525.42 2404.37,2529.63" fill="none" stroke="#000000" stroke-width="2" opacity="1.0" stroke-linecap="round" stroke-linejoin="round" transform="rotate(2.13 2398.80 2534.90)"/><ellipse cx="2398.19" cy="2536.40" rx="2.41" ry="2.41" stroke="#000000" stroke-width="2" opacity="1.0" fill="none"/><polyline points="2398.20,2538.96 2398.20,2543.48" fill="none" stroke="#000000" stroke-width="2" opacity="1.0" stroke-linecap="round" stroke-linejoin="round"/><polyline points="2412.10,2528.05 2420.33,2528.05" fill="none" stroke="#000000" stroke-width="2" opacity="1.0" stroke-linecap="round" stroke-linejoin="round"/><polyline points="2412.10,2537.88 2422.62,2537.88" fill="none" stroke="#000000" stroke-width="2" opacity="1.0" stroke-linecap="round" stroke-linejoin="round"/><polyline points="2412.10,2533.08 2417.36,2533.08" fill="none" stroke="#000000" stroke-width="2" opacity="1.0" stroke-linecap="round" stroke-linejoin="round"/><polyline points="2422.11,2533.22 2426.00,2533.22" fill="none" stroke="#000000" stroke-width="2" opacity="1.0" stroke-linecap="round" stroke-linejoin="round"/><polyline points="2425.36,2528.05 2426.05,2528.05" fill="none" stroke="#000000" stroke-width="2" opacity="1.0" stroke-linecap="round" stroke-linejoin="round"/><polyline points="2403.63,2535.59 2406.84,2535.59" fill="none" stroke="#000000" stroke-width="2" opacity="1.0" stroke-linecap="round" stroke-linejoin="round"/><polyline points="2403.63,2539.39 2407.07,2539.39" fill="none" stroke="#000000" stroke-width="2" opacity="1.0" stroke-linecap="round" stroke-linejoin="round"/><rect x="2386.02" y="2515.47" width="44.60" height="33.39" rx="0" stroke="#000000" stroke-width="2" opacity="1.0" fill="none"/></svg>