<svg version="1.1" xmlns="http://www.w3.org/2000/svg" viewBox="0 0 133.40000915527344 128.50853016784822" width="133.40000915527344" height="128.50853016784822">
  <!-- svg-source:excalidraw -->
  
  <defs>
    
    
  </defs>
  <g transform="translate(6 74.50853016784822) rotate(0 60.70000457763672 24)"><text x="60.70000457763672" y="0" font-family="Virgil, Segoe UI Emoji" font-size="20px" fill="#000000" text-anchor="middle" style="white-space: pre;" direction="ltr" dominant-baseline="text-before-edge">EC2</text><text x="60.70000457763672" y="24" font-family="Virgil, Segoe UI Emoji" font-size="20px" fill="#000000" text-anchor="middle" style="white-space: pre;" direction="ltr" dominant-baseline="text-before-edge">Auto Scaling</text></g><g stroke-linecap="round" transform="translate(34.469428395158275 6) rotate(0 32.230576182478444 32.19971236713002)"><path d="M0 0 C0 0, 0 0, 0 0 M0 0 C0 0, 0 0, 0 0 M0.13 12.04 C2.26 9.59, 4.4 7.14, 10.63 -0.03 M0.13 12.04 C3.03 8.7, 5.93 5.37, 10.63 -0.03 M0.27 24.08 C8.53 14.58, 16.79 5.07, 21.26 -0.07 M0.27 24.08 C7.83 15.38, 15.4 6.68, 21.26 -0.07 M-0.26 36.88 C9.24 25.96, 18.73 15.04, 31.89 -0.1 M-0.26 36.88 C6.19 29.46, 12.64 22.05, 31.89 -0.1 M-0.12 48.92 C11.4 35.66, 22.93 22.4, 42.52 -0.14 M-0.12 48.92 C15.78 30.62, 31.68 12.33, 42.52 -0.14 M0.01 60.96 C17.82 40.48, 35.62 19.99, 53.15 -0.17 M0.01 60.96 C13.32 45.65, 26.63 30.33, 53.15 -0.17 M7.36 64.7 C20.48 49.6, 33.6 34.51, 63.78 -0.21 M7.36 64.7 C28.87 39.95, 50.38 15.21, 63.78 -0.21 M17.99 64.66 C27.5 53.73, 37 42.79, 64.57 11.08 M17.99 64.66 C35.06 45.02, 52.14 25.38, 64.57 11.08 M28.62 64.63 C38.05 53.78, 47.47 42.94, 64.7 23.12 M28.62 64.63 C37.24 54.71, 45.87 44.78, 64.7 23.12 M39.25 64.59 C48.4 54.07, 57.55 43.54, 64.84 35.16 M39.25 64.59 C47.97 54.56, 56.69 44.53, 64.84 35.16 M49.88 64.56 C53.82 60.03, 57.75 55.5, 64.97 47.2 M49.88 64.56 C54.43 59.33, 58.98 54.09, 64.97 47.2 M60.51 64.53 C61.79 63.06, 63.06 61.59, 64.45 60 M60.51 64.53 C61.76 63.09, 63 61.66, 64.45 60 M-0.19 64.24 C-0.19 64.24, -0.19 64.24, -0.19 64.24 M-0.19 64.24 C-0.19 64.24, -0.19 64.24, -0.19 64.24 M11.85 64.1 C9.36 61.93, 6.87 59.77, -0.22 53.61 M11.85 64.1 C8.35 61.06, 4.86 58.02, -0.22 53.61 M24.65 64.63 C19.47 60.12, 14.29 55.62, -0.26 42.98 M24.65 64.63 C15.43 56.62, 6.22 48.61, -0.26 42.98 M36.69 64.49 C22.66 52.29, 8.62 40.09, -0.29 32.35 M36.69 64.49 C29.07 57.87, 21.44 51.24, -0.29 32.35 M48.73 64.36 C34.91 52.35, 21.1 40.34, -0.33 21.72 M48.73 64.36 C34.3 51.82, 19.87 39.27, -0.33 21.72 M60.77 64.23 C36.79 43.38, 12.8 22.53, -0.36 11.09 M60.77 64.23 C44.61 50.17, 28.44 36.12, -0.36 11.09 M65.26 57.53 C40.7 36.18, 16.14 14.83, 0.36 1.11 M65.26 57.53 C48.39 42.87, 31.52 28.2, 0.36 1.11 M65.23 46.9 C50.69 34.26, 36.15 21.63, 10.89 -0.33 M65.23 46.9 C53.58 36.77, 41.93 26.65, 10.89 -0.33 M65.2 36.27 C51.67 24.51, 38.14 12.75, 22.93 -0.47 M65.2 36.27 C55.46 27.81, 45.72 19.34, 22.93 -0.47 M65.16 25.64 C59.09 20.37, 53.03 15.09, 34.97 -0.6 M65.16 25.64 C57.39 18.89, 49.62 12.13, 34.97 -0.6 M65.13 15.01 C60.76 11.21, 56.39 7.42, 47.77 -0.08 M65.13 15.01 C60.44 10.93, 55.75 6.86, 47.77 -0.08 M65.09 4.38 C63.71 3.18, 62.32 1.98, 59.81 -0.21 M65.09 4.38 C63.26 2.79, 61.43 1.2, 59.81 -0.21" stroke="#fd7e1488" stroke-width="1" fill="none"></path><path d="M0 0 C13.99 0, 27.98 0, 64.46 0 M0 0 C24.68 0, 49.37 0, 64.46 0 M64.46 0 C64.46 12.93, 64.46 25.86, 64.46 64.4 M64.46 0 C64.46 19.38, 64.46 38.75, 64.46 64.4 M64.46 64.4 C39.37 64.4, 14.27 64.4, 0 64.4 M64.46 64.4 C50.59 64.4, 36.72 64.4, 0 64.4 M0 64.4 C0 48.31, 0 32.22, 0 0 M0 64.4 C0 45.8, 0 27.2, 0 0" stroke="#000000" stroke-width="2" fill="none"></path></g><g stroke-linecap="round" transform="translate(59.5855486796122 31.403794285630966) rotate(0 7.1439335038776335 7.1439335038776335)"><path d="M0 0 C4.55 0, 9.1 0, 14.29 0 M0 0 C3.79 0, 7.57 0, 14.29 0 M14.29 0 C14.29 4.97, 14.29 9.94, 14.29 14.29 M14.29 0 C14.29 5.1, 14.29 10.19, 14.29 14.29 M14.29 14.29 C9.3 14.29, 4.31 14.29, 0 14.29 M14.29 14.29 C10.04 14.29, 5.8 14.29, 0 14.29 M0 14.29 C0 10.08, 0 5.88, 0 0 M0 14.29 C0 9.38, 0 4.47, 0 0" stroke="#1e1e1e" stroke-width="2" fill="none"></path></g><g stroke-linecap="round"><g transform="translate(61.274279009455086 29.441013666926892) rotate(0 0 0.8120875950023674)"><path d="M0 0 C0 0.57, 0 1.15, 0 1.62 M0 0 C0 0.63, 0 1.27, 0 1.62" stroke="#1e1e1e" stroke-width="2" fill="none"></path></g></g><mask></mask><g stroke-linecap="round"><g transform="translate(64.0018805964728 29.441013666926892) rotate(0 0 0.8120875950023674)"><path d="M0 0 C0 0.37, 0 0.73, 0 1.62 M0 0 C0 0.52, 0 1.03, 0 1.62" stroke="#1e1e1e" stroke-width="2" fill="none"></path></g></g><mask></mask><g stroke-linecap="round"><g transform="translate(66.72948218349029 29.441013666926892) rotate(0 0 0.8120875950023674)"><path d="M0 0 C0 0.4, 0 0.79, 0 1.62 M0 0 C0 0.47, 0 0.95, 0 1.62" stroke="#1e1e1e" stroke-width="2" fill="none"></path></g></g><mask></mask><g stroke-linecap="round"><g transform="translate(69.45708377050732 29.441013666926892) rotate(0 0 0.8120875950023674)"><path d="M0 0 C0 0.63, 0 1.27, 0 1.62 M0 0 C0 0.47, 0 0.93, 0 1.62" stroke="#1e1e1e" stroke-width="2" fill="none"></path></g></g><mask></mask><g stroke-linecap="round"><g transform="translate(72.18468535752504 29.441013666926892) rotate(0 0 0.8120875950023674)"><path d="M0 0 C0 0.43, 0 0.86, 0 1.62 M0 0 C0 0.34, 0 0.67, 0 1.62" stroke="#1e1e1e" stroke-width="2" fill="none"></path></g></g><mask></mask><g stroke-linecap="round"><g transform="translate(61.274279009455086 45.915830592771044) rotate(0 0 0.8120875950023674)"><path d="M0 0 C0 0.56, 0 1.13, 0 1.62 M0 0 C0 0.62, 0 1.23, 0 1.62" stroke="#1e1e1e" stroke-width="2" fill="none"></path></g></g><mask></mask><g stroke-linecap="round"><g transform="translate(64.0018805964728 45.915830592771044) rotate(0 0 0.8120875950023674)"><path d="M0 0 C0 0.56, 0 1.13, 0 1.62 M0 0 C0 0.58, 0 1.16, 0 1.62" stroke="#1e1e1e" stroke-width="2" fill="none"></path></g></g><mask></mask><g stroke-linecap="round"><g transform="translate(66.72948218349029 45.915830592771044) rotate(0 0 0.8120875950023674)"><path d="M0 0 C0 0.42, 0 0.84, 0 1.62 M0 0 C0 0.33, 0 0.67, 0 1.62" stroke="#1e1e1e" stroke-width="2" fill="none"></path></g></g><mask></mask><g stroke-linecap="round"><g transform="translate(69.45708377050732 45.915830592771044) rotate(0 0 0.8120875950023674)"><path d="M0 0 C0 0.49, 0 0.99, 0 1.62 M0 0 C0 0.51, 0 1.02, 0 1.62" stroke="#1e1e1e" stroke-width="2" fill="none"></path></g></g><mask></mask><g stroke-linecap="round"><g transform="translate(72.18468535752504 45.915830592771044) rotate(0 0 0.8120875950023674)"><path d="M0 0 C0 0.33, 0 0.66, 0 1.62 M0 0 C0 0.45, 0 0.9, 0 1.62" stroke="#1e1e1e" stroke-width="2" fill="none"></path></g></g><mask></mask><g stroke-linecap="round"><g transform="translate(74.99918863223411 32.280740397975705) rotate(89.39573719151072 0 0.8120875950023674)"><path d="M0 0 C0 0.51, 0 1.02, 0 1.62 M0 0 C0 0.49, 0 0.98, 0 1.62" stroke="#1e1e1e" stroke-width="2" fill="none"></path></g></g><mask></mask><g stroke-linecap="round"><g transform="translate(75.0279544096793 35.00819029624131) rotate(89.39573719151072 0 0.8120875950023674)"><path d="M0 0 C0 0.47, 0 0.94, 0 1.62 M0 0 C0 0.49, 0 0.98, 0 1.62" stroke="#1e1e1e" stroke-width="2" fill="none"></path></g></g><mask></mask><g stroke-linecap="round"><g transform="translate(75.05672018712426 37.735640194506004) rotate(89.39573719151072 0 0.8120875950023674)"><path d="M0 0 C0 0.38, 0 0.76, 0 1.62 M0 0 C0 0.48, 0 0.96, 0 1.62" stroke="#1e1e1e" stroke-width="2" fill="none"></path></g></g><mask></mask><g stroke-linecap="round"><g transform="translate(75.08548596456899 40.463090092771836) rotate(89.39573719151072 0 0.8120875950023674)"><path d="M0 0 C0 0.57, 0 1.13, 0 1.62 M0 0 C0 0.48, 0 0.97, 0 1.62" stroke="#1e1e1e" stroke-width="2" fill="none"></path></g></g><mask></mask><g stroke-linecap="round"><g transform="translate(75.1142517420135 43.19053999103721) rotate(89.39573719151072 0 0.8120875950023674)"><path d="M0 0 C0 0.48, 0 0.95, 0 1.62 M0 0 C0 0.52, 0 1.05, 0 1.62" stroke="#1e1e1e" stroke-width="2" fill="none"></path></g></g><mask></mask><g stroke-linecap="round"><g transform="translate(58.35139293468501 32.280740397975705) rotate(89.39573719151072 0 0.8120875950023674)"><path d="M0 0 C0 0.38, 0 0.76, 0 1.62 M0 0 C0 0.45, 0 0.9, 0 1.62" stroke="#1e1e1e" stroke-width="2" fill="none"></path></g></g><mask></mask><g stroke-linecap="round"><g transform="translate(58.38015871212997 35.00819029624131) rotate(89.39573719151072 0 0.8120875950023674)"><path d="M0 0 C0 0.64, 0 1.28, 0 1.62 M0 0 C0 0.59, 0 1.17, 0 1.62" stroke="#1e1e1e" stroke-width="2" fill="none"></path></g></g><mask></mask><g stroke-linecap="round"><g transform="translate(58.408924489575156 37.735640194506004) rotate(89.39573719151072 0 0.8120875950023674)"><path d="M0 0 C0 0.51, 0 1.03, 0 1.62 M0 0 C0 0.58, 0 1.16, 0 1.62" stroke="#1e1e1e" stroke-width="2" fill="none"></path></g></g><mask></mask><g stroke-linecap="round"><g transform="translate(58.43769026701966 40.463090092771836) rotate(89.39573719151072 0 0.8120875950023674)"><path d="M0 0 C0 0.34, 0 0.68, 0 1.62 M0 0 C0 0.39, 0 0.78, 0 1.62" stroke="#1e1e1e" stroke-width="2" fill="none"></path></g></g><mask></mask><g stroke-linecap="round"><g transform="translate(58.46645604446462 43.19053999103721) rotate(89.39573719151072 0 0.8120875950023674)"><path d="M0 0 C0 0.33, 0 0.66, 0 1.62 M0 0 C0 0.42, 0 0.84, 0 1.62" stroke="#1e1e1e" stroke-width="2" fill="none"></path></g></g><mask></mask><g stroke-linecap="round"><g transform="translate(66.97087720435661 13.44565025529323) rotate(0 0 5.581091819821268)"><path d="M0 0 C0 1.86, 0 9.3, 0 11.16 M0 0 C0 1.86, 0 9.3, 0 11.16" stroke="#1e1e1e" stroke-width="2" fill="none"></path></g></g><mask></mask><g stroke-linecap="round"><g transform="translate(60.85798884380051 18.494945534379212) rotate(0 5.874833494548852 -3.010852165956294)"><path d="M0 0 C1.28 -1.28, 2.57 -2.57, 6.02 -6.02 M0 0 C2.4 -2.4, 4.81 -4.81, 6.02 -6.02 M6.02 -6.02 C7.43 -4.61, 8.85 -3.2, 11.75 -0.29 M6.02 -6.02 C7.88 -4.16, 9.74 -2.3, 11.75 -0.29" stroke="#1e1e1e" stroke-width="2" fill="none"></path></g></g><mask></mask><g stroke-linecap="round"><g transform="translate(66.97087720435661 62.95377447896726) rotate(0 0 -5.581091819821268)"><path d="M0 0 C0 -1.86, 0 -9.3, 0 -11.16 M0 0 C0 -1.86, 0 -9.3, 0 -11.16" stroke="#1e1e1e" stroke-width="2" fill="none"></path></g></g><mask></mask><g stroke-linecap="round"><g transform="translate(60.85798884380051 57.90447919988105) rotate(0 5.874833494548852 3.010852165956294)"><path d="M0 0 C1.78 1.78, 3.56 3.56, 6.02 6.02 M0 0 C1.21 1.21, 2.42 2.42, 6.02 6.02 M6.02 6.02 C7.57 4.47, 9.12 2.92, 11.75 0.29 M6.02 6.02 C8.16 3.89, 10.29 1.75, 11.75 0.29" stroke="#1e1e1e" stroke-width="2" fill="none"></path></g></g><mask></mask><g stroke-linecap="round"><g transform="translate(46.165930751076075 33.14747277103811) rotate(89.99999999999913 0 5.581091819821268)"><path d="M0 0 C0 1.86, 0 9.3, 0 11.16 M0 0 C0 1.86, 0 9.3, 0 11.16" stroke="#1e1e1e" stroke-width="2" fill="none"></path></g></g><mask></mask><g stroke-linecap="round"><g transform="translate(43.83374596321846 41.501361890807175) rotate(89.99999999999913 5.874833494548852 -3.010852165956294)"><path d="M0 0 C1.92 -1.92, 3.84 -3.84, 6.02 -6.02 M0 0 C2.32 -2.32, 4.65 -4.65, 6.02 -6.02 M6.02 -6.02 C8.3 -3.74, 10.58 -1.46, 11.75 -0.29 M6.02 -6.02 C7.84 -4.21, 9.65 -2.39, 11.75 -0.29" stroke="#1e1e1e" stroke-width="2" fill="none"></path></g></g><mask></mask><g stroke-linecap="round"><g transform="translate(87.23407840419736 33.14747277103811) rotate(270.00000000000085 0 5.581091819821268)"><path d="M0 0 C0 1.86, 0 9.3, 0 11.16 M0 0 C0 1.86, 0 9.3, 0 11.16" stroke="#1e1e1e" stroke-width="2" fill="none"></path></g></g><mask></mask><g stroke-linecap="round"><g transform="translate(89.56626319205498 41.50136189080763) rotate(270.00000000000085 -5.874833494548852 -3.010852165956294)"><path d="M0 0 C-2.28 -2.28, -4.56 -4.56, -6.02 -6.02 M0 0 C-1.69 -1.69, -3.37 -3.37, -6.02 -6.02 M-6.02 -6.02 C-7.7 -4.34, -9.38 -2.66, -11.75 -0.29 M-6.02 -6.02 C-8.31 -3.74, -10.59 -1.45, -11.75 -0.29" stroke="#1e1e1e" stroke-width="2" fill="none"></path></g></g><mask></mask></svg>