<svg xmlns="http://www.w3.org/2000/svg" viewBox="315.77 1311.45 162.60 129.50" width="163" height="130"><text x="321.77" y="1406.96" font-size="20" fill="#000000" opacity="1.0" font-family="sans-serif">Kinesis 
Data Analytics</text><rect x="364.52" y="1317.45" width="65.08" height="65.08" rx="0" stroke="#000000" stroke-width="2" opacity="1.0" fill="none"/><polyline points="422.29,1350.70 403.73,1350.72 389.73,1348.80 379.93,1343.93 374.43,1338.65" fill="#7950f2" stroke="#000000" stroke-width="2" opacity="1.0" stroke-linecap="round" stroke-linejoin="round"/><polyline points="422.35,1350.76 403.82,1350.88 389.79,1352.83 379.99,1358.12 374.49,1363.86" fill="#7950f2" stroke="#000000" stroke-width="2" opacity="1.0" stroke-linecap="round" stroke-linejoin="round"/><polyline points="421.83,1346.49 405.35,1346.50 392.91,1344.59 384.20,1339.72 379.32,1334.44" fill="#7950f2" stroke="#000000" stroke-width="2" opacity="1.0" stroke-linecap="round" stroke-linejoin="round"/><polyline points="422.04,1341.82 407.28,1341.83 396.14,1339.92 388.34,1335.05 384.91,1328.28" fill="#7950f2" stroke="#000000" stroke-width="2" opacity="1.0" stroke-linecap="round" stroke-linejoin="round"/><polyline points="391.67,1355.88 384.79,1361.18 379.90,1367.63" fill="#7950f2" stroke="#000000" stroke-width="2" opacity="1.0" stroke-linecap="round" stroke-linejoin="round"/><polyline points="392.57,1362.38 387.32,1367.43 384.81,1372.27" fill="#7950f2" stroke="#000000" stroke-width="2" opacity="1.0" stroke-linecap="round" stroke-linejoin="round"/><rect x="395.06" y="1354.12" width="23.32" height="18.22" rx="0" stroke="#000000" stroke-width="2" opacity="1.0" fill="none"/><rect x="398.34" y="1363.59" width="3.64" height="8.74" rx="0" stroke="#000000" stroke-width="2" opacity="1.0" fill="none"/><rect x="411.27" y="1358.85" width="3.64" height="13.48" rx="0" stroke="#000000" stroke-width="2" opacity="1.0" fill="none"/><rect x="404.81" y="1361.40" width="3.64" height="10.93" rx="0" stroke="#000000" stroke-width="2" opacity="1.0" fill="none"/></svg>