<svg version="1.1" xmlns="http://www.w3.org/2000/svg" viewBox="0 0 78.29730224609375 105.28234463190893" width="78.29730224609375" height="105.28234463190893">
  <!-- svg-source:excalidraw -->
  
  <defs>
    
    
  </defs>
  <g transform="translate(19.448650360107422 75.28234463190893) rotate(0 19.700000762939453 12)"><text x="19.700000762939453" y="0" font-family="Virgil, Segoe UI Emoji" font-size="20px" fill="#000000" text-anchor="middle" style="white-space: pre;" direction="ltr" dominant-baseline="text-before-edge">NLB</text></g><g stroke-linecap="round" transform="translate(6 6) rotate(0 33.148651123046875 33.148651123046875)"><path d="M66.3 33.15 C66.3 34.88, 66.16 36.63, 65.89 38.33 C65.62 40.04, 65.21 41.75, 64.67 43.39 C64.14 45.04, 63.47 46.66, 62.68 48.2 C61.9 49.74, 60.98 51.23, 59.97 52.63 C58.95 54.03, 57.81 55.37, 56.59 56.59 C55.37 57.81, 54.03 58.95, 52.63 59.97 C51.23 60.98, 49.74 61.9, 48.2 62.68 C46.66 63.47, 45.04 64.14, 43.39 64.67 C41.75 65.21, 40.04 65.62, 38.33 65.89 C36.63 66.16, 34.88 66.3, 33.15 66.3 C31.42 66.3, 29.67 66.16, 27.96 65.89 C26.26 65.62, 24.55 65.21, 22.91 64.67 C21.26 64.14, 19.64 63.47, 18.1 62.68 C16.56 61.9, 15.06 60.98, 13.66 59.97 C12.27 58.95, 10.93 57.81, 9.71 56.59 C8.49 55.37, 7.35 54.03, 6.33 52.63 C5.31 51.23, 4.4 49.74, 3.61 48.2 C2.83 46.66, 2.16 45.04, 1.62 43.39 C1.09 41.75, 0.68 40.04, 0.41 38.33 C0.14 36.63, 0 34.88, 0 33.15 C0 31.42, 0.14 29.67, 0.41 27.96 C0.68 26.26, 1.09 24.55, 1.62 22.91 C2.16 21.26, 2.83 19.64, 3.61 18.1 C4.4 16.56, 5.31 15.06, 6.33 13.66 C7.35 12.27, 8.49 10.93, 9.71 9.71 C10.93 8.49, 12.27 7.35, 13.66 6.33 C15.06 5.31, 16.56 4.4, 18.1 3.61 C19.64 2.83, 21.26 2.16, 22.91 1.62 C24.55 1.09, 26.26 0.68, 27.96 0.41 C29.67 0.14, 31.42 0, 33.15 0 C34.88 0, 36.63 0.14, 38.33 0.41 C40.04 0.68, 41.75 1.09, 43.39 1.62 C45.04 2.16, 46.66 2.83, 48.2 3.61 C49.74 4.4, 51.23 5.31, 52.63 6.33 C54.03 7.35, 55.37 8.49, 56.59 9.71 C57.81 10.93, 58.95 12.27, 59.97 13.66 C60.98 15.06, 61.9 16.56, 62.68 18.1 C63.47 19.64, 64.14 21.26, 64.67 22.91 C65.21 24.55, 65.62 26.26, 65.89 27.96 C66.16 29.67, 66.23 32.28, 66.3 33.15 C66.37 34.01, 66.37 32.28, 66.3 33.15" stroke="#000000" stroke-width="2" fill="none"></path></g><g stroke-linecap="round" transform="translate(17.735493228310133 33.327598491465324) rotate(0 5.82105263157905 5.82105263157905)"><path d="M0 0 C3.51 0, 7.02 0, 11.64 0 M0 0 C3.57 0, 7.13 0, 11.64 0 M11.64 0 C11.64 3.49, 11.64 6.98, 11.64 11.64 M11.64 0 C11.64 3.06, 11.64 6.12, 11.64 11.64 M11.64 11.64 C8.98 11.64, 6.32 11.64, 0 11.64 M11.64 11.64 C8.31 11.64, 4.97 11.64, 0 11.64 M0 11.64 C0 7.07, 0 2.49, 0 0 M0 11.64 C0 7.99, 0 4.34, 0 0" stroke="#c3b6ee" stroke-width="2" fill="none"></path></g><g stroke-linecap="round"><g transform="translate(31.619176675982544 32.45272355186535) rotate(0 6.831362064095856 -2.420937689634684)"><path d="M0 0 C3.47 -1.23, 6.93 -2.46, 13.66 -4.84 M0 0 C3.39 -1.2, 6.78 -2.4, 13.66 -4.84" stroke="#c3b6ee" stroke-width="2" fill="none"></path></g><g transform="translate(31.619176675982544 32.45272355186535) rotate(0 6.831362064095856 -2.420937689634684)"><path d="M8.07 -0.23 C9.49 -1.4, 10.91 -2.57, 13.66 -4.84 M8.07 -0.23 C9.46 -1.38, 10.85 -2.52, 13.66 -4.84" stroke="#c3b6ee" stroke-width="2" fill="none"></path></g><g transform="translate(31.619176675982544 32.45272355186535) rotate(0 6.831362064095856 -2.420937689634684)"><path d="M6.42 -4.9 C8.25 -4.89, 10.09 -4.87, 13.66 -4.84 M6.42 -4.9 C8.21 -4.89, 10.01 -4.87, 13.66 -4.84" stroke="#c3b6ee" stroke-width="2" fill="none"></path></g></g><mask></mask><g stroke-linecap="round" transform="translate(53.07759849146805 49.414440596730856) rotate(0 3.7421052631577822 3.7421052631577822)"><path d="M0 0 C1.91 0, 3.82 0, 7.48 0 M0 0 C2.82 0, 5.64 0, 7.48 0 M7.48 0 C7.48 2.93, 7.48 5.86, 7.48 7.48 M7.48 0 C7.48 2.71, 7.48 5.42, 7.48 7.48 M7.48 7.48 C4.91 7.48, 2.34 7.48, 0 7.48 M7.48 7.48 C5.67 7.48, 3.86 7.48, 0 7.48 M0 7.48 C0 5.22, 0 2.95, 0 0 M0 7.48 C0 5.88, 0 4.27, 0 0" stroke="#c3b6ee" stroke-width="2" fill="none"></path></g><g stroke-linecap="round" transform="translate(53.07759849146805 21.398651123046875) rotate(0 3.7421052631577822 3.7421052631577822)"><path d="M0 0 C2.09 0, 4.19 0, 7.48 0 M0 0 C1.8 0, 3.61 0, 7.48 0 M7.48 0 C7.48 2.4, 7.48 4.81, 7.48 7.48 M7.48 0 C7.48 2.12, 7.48 4.24, 7.48 7.48 M7.48 7.48 C5.52 7.48, 3.56 7.48, 0 7.48 M7.48 7.48 C5.13 7.48, 2.78 7.48, 0 7.48 M0 7.48 C0 4.8, 0 2.12, 0 0 M0 7.48 C0 5.12, 0 2.76, 0 0" stroke="#c3b6ee" stroke-width="2" fill="none"></path></g><g stroke-linecap="round" transform="translate(53.07759849146805 35.406545859888865) rotate(0 3.7421052631577822 3.7421052631577822)"><path d="M0 0 C2.62 0, 5.25 0, 7.48 0 M0 0 C2.11 0, 4.21 0, 7.48 0 M7.48 0 C7.48 2.97, 7.48 5.94, 7.48 7.48 M7.48 0 C7.48 1.6, 7.48 3.21, 7.48 7.48 M7.48 7.48 C5.55 7.48, 3.61 7.48, 0 7.48 M7.48 7.48 C5.9 7.48, 4.31 7.48, 0 7.48 M0 7.48 C0 5.97, 0 4.45, 0 0 M0 7.48 C0 4.92, 0 2.36, 0 0" stroke="#c3b6ee" stroke-width="2" fill="none"></path></g><g stroke-linecap="round"><g transform="translate(44.57662079007832 51.39173408759234) rotate(180 -6.1939164532516315 -2.7630002752084692)"><path d="M0 0 C-4.56 -2.03, -9.12 -4.07, -12.39 -5.53 M0 0 C-4.33 -1.93, -8.65 -3.86, -12.39 -5.53" stroke="#c3b6ee" stroke-width="2" fill="none"></path></g><g transform="translate(44.57662079007832 51.39173408759234) rotate(180 -6.1939164532516315 -2.7630002752084692)"><path d="M-5.62 -5.05 C-8.11 -5.22, -10.6 -5.4, -12.39 -5.53 M-5.62 -5.05 C-7.99 -5.21, -10.35 -5.38, -12.39 -5.53" stroke="#c3b6ee" stroke-width="2" fill="none"></path></g><g transform="translate(44.57662079007832 51.39173408759234) rotate(180 -6.1939164532516315 -2.7630002752084692)"><path d="M-7.51 -0.81 C-9.31 -2.55, -11.1 -4.28, -12.39 -5.53 M-7.51 -0.81 C-9.22 -2.46, -10.92 -4.1, -12.39 -5.53" stroke="#c3b6ee" stroke-width="2" fill="none"></path></g></g><mask></mask><g stroke-linecap="round"><g transform="translate(49.55958690955504 39.37016504066196) rotate(180 -8.955672628614138 -0.01361918077145674)"><path d="M0 0 C-4.26 -0.01, -8.53 -0.01, -17.91 -0.03 M0 0 C-5.9 -0.01, -11.8 -0.02, -17.91 -0.03" stroke="#c3b6ee" stroke-width="2" fill="none"></path></g><g transform="translate(49.55958690955504 39.37016504066196) rotate(180 -8.955672628614138 -0.01361918077145674)"><path d="M-9.49 -3.08 C-11.5 -2.35, -13.5 -1.63, -17.91 -0.03 M-9.49 -3.08 C-12.27 -2.07, -15.04 -1.07, -17.91 -0.03" stroke="#c3b6ee" stroke-width="2" fill="none"></path></g><g transform="translate(49.55958690955504 39.37016504066196) rotate(180 -8.955672628614138 -0.01361918077145674)"><path d="M-9.5 3.05 C-11.5 2.32, -13.5 1.58, -17.91 -0.03 M-9.5 3.05 C-12.27 2.04, -15.04 1.02, -17.91 -0.03" stroke="#c3b6ee" stroke-width="2" fill="none"></path></g></g><mask></mask></svg>