<svg version="1.1" xmlns="http://www.w3.org/2000/svg" viewBox="0 0 139.94000244140625 106.17024460272296" width="139.94000244140625" height="106.17024460272296">
  <!-- svg-source:excalidraw -->
  
  <defs>
    
    
  </defs>
  <g transform="translate(6 76.17024460272296) rotate(0 63.970001220703125 12)"><text x="63.970001220703125" y="0" font-family="Virgil, Segoe UI Emoji" font-size="20px" fill="#000000" text-anchor="middle" style="white-space: pre;" direction="ltr" dominant-baseline="text-before-edge">IoT SiteWise</text></g><g stroke-linecap="round" transform="translate(37.42958068847656 6) rotate(0 32.54042053222656 32.54042053222656)"><path d="M0 0 C0 0, 0 0, 0 0 M0 0 C0 0, 0 0, 0 0 M0.13 12.04 C3.02 8.71, 5.92 5.39, 10.63 -0.03 M0.13 12.04 C2.37 9.47, 4.6 6.9, 10.63 -0.03 M0.27 24.08 C7.15 16.16, 14.04 8.24, 21.26 -0.07 M0.27 24.08 C7.89 15.32, 15.51 6.55, 21.26 -0.07 M-0.26 36.88 C9.87 25.23, 20 13.58, 31.89 -0.1 M-0.26 36.88 C10.91 24.03, 22.07 11.19, 31.89 -0.1 M-0.12 48.92 C13.36 33.4, 26.85 17.89, 42.52 -0.14 M-0.12 48.92 C10.06 37.21, 20.24 25.5, 42.52 -0.14 M0.01 60.96 C13.41 45.55, 26.81 30.13, 53.15 -0.17 M0.01 60.96 C12.74 46.31, 25.48 31.66, 53.15 -0.17 M6.7 65.45 C19.17 51.11, 31.64 36.76, 63.78 -0.21 M6.7 65.45 C29.39 39.36, 52.07 13.27, 63.78 -0.21 M17.33 65.42 C32.9 47.51, 48.47 29.6, 65.88 9.57 M17.33 65.42 C28.02 53.12, 38.71 40.82, 65.88 9.57 M27.96 65.38 C35.89 56.26, 43.82 47.15, 66.02 21.61 M27.96 65.38 C42.89 48.21, 57.82 31.04, 66.02 21.61 M38.59 65.35 C46.91 55.78, 55.23 46.21, 65.49 34.41 M38.59 65.35 C49.08 53.28, 59.57 41.22, 65.49 34.41 M49.22 65.31 C55.2 58.44, 61.17 51.57, 65.63 46.45 M49.22 65.31 C55.73 57.83, 62.24 50.34, 65.63 46.45 M59.85 65.28 C61.4 63.51, 62.94 61.73, 65.76 58.49 M59.85 65.28 C61.74 63.11, 63.63 60.93, 65.76 58.49 M0.23 65.28 C0.23 65.28, 0.23 65.28, 0.23 65.28 M0.23 65.28 C0.23 65.28, 0.23 65.28, 0.23 65.28 M12.27 65.15 C7.75 61.22, 3.24 57.3, 0.19 54.65 M12.27 65.15 C8.02 61.45, 3.77 57.75, 0.19 54.65 M24.31 65.01 C19.21 60.58, 14.12 56.15, 0.16 44.02 M24.31 65.01 C18.73 60.16, 13.15 55.31, 0.16 44.02 M36.35 64.88 C25.46 55.41, 14.57 45.94, 0.13 33.39 M36.35 64.88 C25.56 55.5, 14.77 46.12, 0.13 33.39 M49.15 65.4 C35.3 53.37, 21.46 41.33, 0.09 22.76 M49.15 65.4 C38.87 56.47, 28.6 47.54, 0.09 22.76 M61.19 65.27 C46 52.07, 30.81 38.87, 0.06 12.13 M61.19 65.27 C40.43 47.22, 19.66 29.17, 0.06 12.13 M64.93 57.92 C46.76 42.13, 28.6 26.34, 0.02 1.5 M64.93 57.92 C45.79 41.28, 26.65 24.65, 0.02 1.5 M65.65 47.95 C50.05 34.39, 34.46 20.83, 9.8 -0.6 M65.65 47.95 C47.23 31.94, 28.82 15.93, 9.8 -0.6 M65.61 37.32 C52.23 25.68, 38.84 14.04, 21.84 -0.74 M65.61 37.32 C54.12 27.33, 42.63 17.34, 21.84 -0.74 M65.58 26.69 C58.93 20.91, 52.28 15.12, 33.88 -0.87 M65.58 26.69 C56.36 18.67, 47.13 10.65, 33.88 -0.87 M65.54 16.06 C58.63 10.04, 51.71 4.03, 46.68 -0.35 M65.54 16.06 C59.74 11.01, 53.93 5.96, 46.68 -0.35 M65.51 5.43 C63.39 3.59, 61.28 1.75, 58.72 -0.48 M65.51 5.43 C63.36 3.56, 61.21 1.69, 58.72 -0.48" stroke="#40c05788" stroke-width="1" fill="none"></path><path d="M0 0 C24.72 0, 49.44 0, 65.08 0 M0 0 C19.88 0, 39.76 0, 65.08 0 M65.08 0 C65.08 21.29, 65.08 42.57, 65.08 65.08 M65.08 0 C65.08 22.49, 65.08 44.99, 65.08 65.08 M65.08 65.08 C44.14 65.08, 23.21 65.08, 0 65.08 M65.08 65.08 C42.38 65.08, 19.68 65.08, 0 65.08 M0 65.08 C0 42.02, 0 18.96, 0 0 M0 65.08 C0 40.65, 0 16.21, 0 0" stroke="#000000" stroke-width="2" fill="none"></path></g><g stroke-linecap="round" transform="translate(61.15736260269159 16.59817491324975) rotate(0 9.405164252971417 9.405164252971417)"><path d="M18.81 9.41 C18.81 9.95, 18.76 10.5, 18.67 11.04 C18.57 11.57, 18.43 12.11, 18.24 12.62 C18.06 13.13, 17.82 13.64, 17.55 14.11 C17.28 14.58, 16.96 15.03, 16.61 15.45 C16.26 15.87, 15.87 16.26, 15.45 16.61 C15.03 16.96, 14.58 17.28, 14.11 17.55 C13.64 17.82, 13.13 18.06, 12.62 18.24 C12.11 18.43, 11.57 18.57, 11.04 18.67 C10.5 18.76, 9.95 18.81, 9.41 18.81 C8.86 18.81, 8.31 18.76, 7.77 18.67 C7.24 18.57, 6.7 18.43, 6.19 18.24 C5.68 18.06, 5.17 17.82, 4.7 17.55 C4.23 17.28, 3.78 16.96, 3.36 16.61 C2.94 16.26, 2.55 15.87, 2.2 15.45 C1.85 15.03, 1.53 14.58, 1.26 14.11 C0.99 13.64, 0.75 13.13, 0.57 12.62 C0.38 12.11, 0.24 11.57, 0.14 11.04 C0.05 10.5, 0 9.95, 0 9.41 C0 8.86, 0.05 8.31, 0.14 7.77 C0.24 7.24, 0.38 6.7, 0.57 6.19 C0.75 5.68, 0.99 5.17, 1.26 4.7 C1.53 4.23, 1.85 3.78, 2.2 3.36 C2.55 2.94, 2.94 2.55, 3.36 2.2 C3.78 1.85, 4.23 1.53, 4.7 1.26 C5.17 0.99, 5.68 0.75, 6.19 0.57 C6.7 0.38, 7.24 0.24, 7.77 0.14 C8.31 0.05, 8.86 0, 9.41 0 C9.95 0, 10.5 0.05, 11.04 0.14 C11.57 0.24, 12.11 0.38, 12.62 0.57 C13.13 0.75, 13.64 0.99, 14.11 1.26 C14.58 1.53, 15.03 1.85, 15.45 2.2 C15.87 2.55, 16.26 2.94, 16.61 3.36 C16.96 3.78, 17.28 4.23, 17.55 4.7 C17.82 5.17, 18.06 5.68, 18.24 6.19 C18.43 6.7, 18.57 7.24, 18.67 7.77 C18.76 8.31, 18.79 9.13, 18.81 9.41 C18.83 9.68, 18.83 9.13, 18.81 9.41" stroke="#000000" stroke-width="2" fill="none"></path></g><g stroke-linecap="round" transform="translate(46.61698096378041 37.27072479319031) rotate(0 4.114759360674952 4.114759360674952)"><path d="M8.23 4.11 C8.23 4.35, 8.21 4.59, 8.17 4.83 C8.13 5.06, 8.06 5.3, 7.98 5.52 C7.9 5.75, 7.8 5.97, 7.68 6.17 C7.56 6.38, 7.42 6.58, 7.27 6.76 C7.11 6.94, 6.94 7.11, 6.76 7.27 C6.58 7.42, 6.38 7.56, 6.17 7.68 C5.97 7.8, 5.75 7.9, 5.52 7.98 C5.3 8.06, 5.06 8.13, 4.83 8.17 C4.59 8.21, 4.35 8.23, 4.11 8.23 C3.88 8.23, 3.63 8.21, 3.4 8.17 C3.17 8.13, 2.93 8.06, 2.71 7.98 C2.48 7.9, 2.26 7.8, 2.06 7.68 C1.85 7.56, 1.65 7.42, 1.47 7.27 C1.29 7.11, 1.12 6.94, 0.96 6.76 C0.81 6.58, 0.67 6.38, 0.55 6.17 C0.43 5.97, 0.33 5.75, 0.25 5.52 C0.17 5.3, 0.1 5.06, 0.06 4.83 C0.02 4.59, 0 4.35, 0 4.11 C0 3.88, 0.02 3.63, 0.06 3.4 C0.1 3.17, 0.17 2.93, 0.25 2.71 C0.33 2.48, 0.43 2.26, 0.55 2.06 C0.67 1.85, 0.81 1.65, 0.96 1.47 C1.12 1.29, 1.29 1.12, 1.47 0.96 C1.65 0.81, 1.85 0.67, 2.06 0.55 C2.26 0.43, 2.48 0.33, 2.71 0.25 C2.93 0.17, 3.17 0.1, 3.4 0.06 C3.63 0.02, 3.88 0, 4.11 0 C4.35 0, 4.59 0.02, 4.83 0.06 C5.06 0.1, 5.3 0.17, 5.52 0.25 C5.75 0.33, 5.97 0.43, 6.17 0.55 C6.38 0.67, 6.58 0.81, 6.76 0.96 C6.94 1.12, 7.11 1.29, 7.27 1.47 C7.42 1.65, 7.56 1.85, 7.68 2.06 C7.8 2.26, 7.9 2.48, 7.98 2.71 C8.06 2.93, 8.13 3.17, 8.17 3.4 C8.21 3.63, 8.22 4, 8.23 4.11 C8.24 4.23, 8.24 4, 8.23 4.11" stroke="#000000" stroke-width="2" fill="none"></path></g><g stroke-linecap="round" transform="translate(66.23144986526086 46.80285933762207) rotate(0 4.114759360674952 4.114759360674952)"><path d="M8.23 4.11 C8.23 4.35, 8.21 4.59, 8.17 4.83 C8.13 5.06, 8.06 5.3, 7.98 5.52 C7.9 5.75, 7.8 5.97, 7.68 6.17 C7.56 6.38, 7.42 6.58, 7.27 6.76 C7.11 6.94, 6.94 7.11, 6.76 7.27 C6.58 7.42, 6.38 7.56, 6.17 7.68 C5.97 7.8, 5.75 7.9, 5.52 7.98 C5.3 8.06, 5.06 8.13, 4.83 8.17 C4.59 8.21, 4.35 8.23, 4.11 8.23 C3.88 8.23, 3.63 8.21, 3.4 8.17 C3.17 8.13, 2.93 8.06, 2.71 7.98 C2.48 7.9, 2.26 7.8, 2.06 7.68 C1.85 7.56, 1.65 7.42, 1.47 7.27 C1.29 7.11, 1.12 6.94, 0.96 6.76 C0.81 6.58, 0.67 6.38, 0.55 6.17 C0.43 5.97, 0.33 5.75, 0.25 5.52 C0.17 5.3, 0.1 5.06, 0.06 4.83 C0.02 4.59, 0 4.35, 0 4.11 C0 3.88, 0.02 3.63, 0.06 3.4 C0.1 3.17, 0.17 2.93, 0.25 2.71 C0.33 2.48, 0.43 2.26, 0.55 2.06 C0.67 1.85, 0.81 1.65, 0.96 1.47 C1.12 1.29, 1.29 1.12, 1.47 0.96 C1.65 0.81, 1.85 0.67, 2.06 0.55 C2.26 0.43, 2.48 0.33, 2.71 0.25 C2.93 0.17, 3.17 0.1, 3.4 0.06 C3.63 0.02, 3.88 0, 4.11 0 C4.35 0, 4.59 0.02, 4.83 0.06 C5.06 0.1, 5.3 0.17, 5.52 0.25 C5.75 0.33, 5.97 0.43, 6.17 0.55 C6.38 0.67, 6.58 0.81, 6.76 0.96 C6.94 1.12, 7.11 1.29, 7.27 1.47 C7.42 1.65, 7.56 1.85, 7.68 2.06 C7.8 2.26, 7.9 2.48, 7.98 2.71 C8.06 2.93, 8.13 3.17, 8.17 3.4 C8.21 3.63, 8.22 4, 8.23 4.11 C8.24 4.23, 8.24 4, 8.23 4.11" stroke="#000000" stroke-width="2" fill="none"></path></g><g stroke-linecap="round" transform="translate(86.21742390282543 37.143754501728836) rotate(0 4.114759360674952 4.114759360674952)"><path d="M8.23 4.11 C8.23 4.35, 8.21 4.59, 8.17 4.83 C8.13 5.06, 8.06 5.3, 7.98 5.52 C7.9 5.75, 7.8 5.97, 7.68 6.17 C7.56 6.38, 7.42 6.58, 7.27 6.76 C7.11 6.94, 6.94 7.11, 6.76 7.27 C6.58 7.42, 6.38 7.56, 6.17 7.68 C5.97 7.8, 5.75 7.9, 5.52 7.98 C5.3 8.06, 5.06 8.13, 4.83 8.17 C4.59 8.21, 4.35 8.23, 4.11 8.23 C3.88 8.23, 3.63 8.21, 3.4 8.17 C3.17 8.13, 2.93 8.06, 2.71 7.98 C2.48 7.9, 2.26 7.8, 2.06 7.68 C1.85 7.56, 1.65 7.42, 1.47 7.27 C1.29 7.11, 1.12 6.94, 0.96 6.76 C0.81 6.58, 0.67 6.38, 0.55 6.17 C0.43 5.97, 0.33 5.75, 0.25 5.52 C0.17 5.3, 0.1 5.06, 0.06 4.83 C0.02 4.59, 0 4.35, 0 4.11 C0 3.88, 0.02 3.63, 0.06 3.4 C0.1 3.17, 0.17 2.93, 0.25 2.71 C0.33 2.48, 0.43 2.26, 0.55 2.06 C0.67 1.85, 0.81 1.65, 0.96 1.47 C1.12 1.29, 1.29 1.12, 1.47 0.96 C1.65 0.81, 1.85 0.67, 2.06 0.55 C2.26 0.43, 2.48 0.33, 2.71 0.25 C2.93 0.17, 3.17 0.1, 3.4 0.06 C3.63 0.02, 3.88 0, 4.11 0 C4.35 0, 4.59 0.02, 4.83 0.06 C5.06 0.1, 5.3 0.17, 5.52 0.25 C5.75 0.33, 5.97 0.43, 6.17 0.55 C6.38 0.67, 6.58 0.81, 6.76 0.96 C6.94 1.12, 7.11 1.29, 7.27 1.47 C7.42 1.65, 7.56 1.85, 7.68 2.06 C7.8 2.26, 7.9 2.48, 7.98 2.71 C8.06 2.93, 8.13 3.17, 8.17 3.4 C8.21 3.63, 8.22 4, 8.23 4.11 C8.24 4.23, 8.24 4, 8.23 4.11" stroke="#000000" stroke-width="2" fill="none"></path></g><g stroke-linecap="round"><g transform="translate(53.41691357058744 38.2018354801894) rotate(0 4.467453020161429 -3.52693659486431)"><path d="M0 0 C1.49 -1.18, 7.45 -5.88, 8.93 -7.05 M0 0 C1.49 -1.18, 7.45 -5.88, 8.93 -7.05" stroke="#000000" stroke-width="2" fill="none"></path></g></g><mask></mask><g stroke-linecap="round"><g transform="translate(78.57572794728594 30.912833184134797) rotate(0 4.349888466999346 3.6445011480266203)"><path d="M0 0 C1.45 1.21, 7.25 6.07, 8.7 7.29 M0 0 C1.45 1.21, 7.25 6.07, 8.7 7.29" stroke="#000000" stroke-width="2" fill="none"></path></g></g><mask></mask><g stroke-linecap="round"><g transform="translate(70.5813383322602 35.38028620429759) rotate(0 0 5.643098551782941)"><path d="M0 0 C0 3.69, 0 7.38, 0 11.29 M0 0 C0 3.9, 0 7.8, 0 11.29" stroke="#000000" stroke-width="2" fill="none"></path></g></g><mask></mask><g stroke-linecap="round"><g transform="translate(47.06842769983177 43.844934031971206) rotate(0 2.821549275891357 3.52693659486431)"><path d="M0 0 C-1.19 0.77, -2.37 1.54, -4.7 3.06 M0 0 C-1.45 0.94, -2.91 1.89, -4.7 3.06 M-4.7 3.06 C-2.54 4.21, -0.37 5.36, 2.82 7.05 M-4.7 3.06 C-1.86 4.57, 0.99 6.08, 2.82 7.05 M2.82 7.05 C4.42 6.21, 6.01 5.36, 10.35 3.06 M2.82 7.05 C5.46 5.65, 8.11 4.25, 10.35 3.06 M10.35 3.06 C9.47 2.46, 8.6 1.86, 6.58 0.47 M10.35 3.06 C9.56 2.51, 8.76 1.97, 6.58 0.47" stroke="#000000" stroke-width="2" fill="none"></path></g></g><mask></mask><g stroke-linecap="round"><g transform="translate(67.00737304590302 53.428792961474755) rotate(0 2.821549275891357 3.52693659486431)"><path d="M0 0 C-1.77 1.15, -3.55 2.31, -4.7 3.06 M0 0 C-1.79 1.16, -3.58 2.33, -4.7 3.06 M-4.7 3.06 C-1.93 4.53, 0.84 6, 2.82 7.05 M-4.7 3.06 C-3.14 3.89, -1.58 4.71, 2.82 7.05 M2.82 7.05 C5.6 5.58, 8.38 4.1, 10.35 3.06 M2.82 7.05 C4.66 6.08, 6.49 5.1, 10.35 3.06 M10.35 3.06 C9.52 2.49, 8.7 1.92, 6.58 0.47 M10.35 3.06 C9.19 2.26, 8.04 1.47, 6.58 0.47" stroke="#000000" stroke-width="2" fill="none"></path></g></g><mask></mask><g stroke-linecap="round"><g transform="translate(87.22847618979131 43.78849960218031) rotate(0 2.821549275891357 3.52693659486431)"><path d="M0 0 C-1.4 0.91, -2.81 1.82, -4.7 3.06 M0 0 C-1.66 1.08, -3.33 2.16, -4.7 3.06 M-4.7 3.06 C-2.81 4.06, -0.91 5.07, 2.82 7.05 M-4.7 3.06 C-2.97 3.98, -1.24 4.9, 2.82 7.05 M2.82 7.05 C5.44 5.66, 8.07 4.27, 10.35 3.06 M2.82 7.05 C4.74 6.03, 6.67 5.01, 10.35 3.06 M10.35 3.06 C9.43 2.43, 8.52 1.8, 6.58 0.47 M10.35 3.06 C9.04 2.16, 7.73 1.26, 6.58 0.47" stroke="#000000" stroke-width="2" fill="none"></path></g></g><mask></mask></svg>