<svg version="1.1" xmlns="http://www.w3.org/2000/svg" viewBox="0 0 107.51995849609375 101.05418806974558" width="107.51995849609375" height="101.05418806974558">
  <!-- svg-source:excalidraw -->
  
  <defs>
    
    
  </defs>
  <g stroke-linecap="round" transform="translate(25.431312938133942 6.39739182557696) rotate(0 32.540420532226506 32.540420532226506)"><path d="M-3.42 0.5 L64.36 -3.4 L64.96 61.14 L1.13 61.14" stroke="none" stroke-width="0" fill="#e64980"></path><path d="M2.34 2.65 C24.95 2.59, 42.72 -2.14, 61.65 -1.44 M0.93 1.66 C17.03 -0.86, 35.79 0.65, 66.09 -0.14 M65.52 1.37 C68.58 21.69, 66.3 39.44, 62.7 64.88 M63.61 1.62 C65.08 18.91, 66.5 39.7, 66.12 65.4 M66.89 61.91 C43.25 62.26, 16.57 64.1, 2.56 63.15 M64.21 63.45 C45.43 66.93, 20.41 65.48, -1.35 65.38 M3.12 68.2 C0.13 44.13, 1.99 31.07, 2.25 -3.15 M0.37 66.34 C2.5 45.2, 0.83 22.52, 0.44 1.85" stroke="#00000000" stroke-width="1" fill="none"></path></g><g stroke-linecap="round" transform="translate(21.219558715820312 6) rotate(0 32.540420532226506 32.540420532226506)"><path d="M0 0 C0 0, 0 0, 0 0 M0 0 C0 0, 0 0, 0 0 M-0.26 6.4 C1.38 4.51, 3.02 2.62, 4.99 0.36 M-0.26 6.4 C0.9 5.06, 2.06 3.73, 4.99 0.36 M0.13 12.04 C3.35 8.34, 6.57 4.64, 10.63 -0.03 M0.13 12.04 C3.95 7.65, 7.76 3.27, 10.63 -0.03 M-0.13 18.44 C3.93 13.77, 7.99 9.1, 15.62 0.33 M-0.13 18.44 C3.77 13.95, 7.67 9.47, 15.62 0.33 M0.27 24.08 C5.16 18.45, 10.06 12.82, 21.26 -0.07 M0.27 24.08 C6.67 16.72, 13.07 9.36, 21.26 -0.07 M0 30.48 C8 21.28, 16 12.08, 26.25 0.29 M0 30.48 C9.09 20.03, 18.17 9.58, 26.25 0.29 M-0.26 36.88 C6.28 29.35, 12.82 21.83, 31.89 -0.1 M-0.26 36.88 C8.1 27.26, 16.46 17.65, 31.89 -0.1 M0.14 42.52 C10.14 31.02, 20.14 19.51, 36.88 0.26 M0.14 42.52 C7.82 33.68, 15.5 24.85, 36.88 0.26 M-0.12 48.92 C13.47 33.29, 27.05 17.65, 42.52 -0.14 M-0.12 48.92 C13.82 32.87, 27.77 16.83, 42.52 -0.14 M0.27 54.56 C17.68 34.53, 35.1 14.5, 47.51 0.22 M0.27 54.56 C15.17 37.42, 30.07 20.28, 47.51 0.22 M0.01 60.96 C16.97 41.45, 33.92 21.95, 53.15 -0.17 M0.01 60.96 C18.1 40.15, 36.19 19.34, 53.15 -0.17 M1.72 65.09 C18.15 46.18, 34.59 27.28, 58.14 0.19 M1.72 65.09 C14.69 50.17, 27.66 35.25, 58.14 0.19 M6.7 65.45 C22.92 46.8, 39.13 28.15, 63.78 -0.21 M6.7 65.45 C27.84 41.14, 48.98 16.82, 63.78 -0.21 M12.35 65.06 C29.7 45.09, 47.06 25.13, 65.49 3.93 M12.35 65.06 C28.47 46.51, 44.59 27.97, 65.49 3.93 M17.33 65.42 C33.45 46.88, 49.56 28.34, 65.88 9.57 M17.33 65.42 C28.16 52.96, 38.99 40.51, 65.88 9.57 M22.98 65.02 C33.63 52.76, 44.29 40.51, 65.62 15.97 M22.98 65.02 C38.86 46.75, 54.74 28.49, 65.62 15.97 M27.96 65.38 C40.15 51.37, 52.33 37.35, 66.02 21.61 M27.96 65.38 C40.93 50.47, 53.89 35.56, 66.02 21.61 M33.61 64.99 C40.86 56.64, 48.12 48.3, 65.75 28.01 M33.61 64.99 C41.96 55.38, 50.31 45.78, 65.75 28.01 M38.59 65.35 C47.88 54.66, 57.17 43.98, 65.49 34.41 M38.59 65.35 C46.7 56.02, 54.81 46.7, 65.49 34.41 M44.24 64.95 C50.89 57.3, 57.55 49.64, 65.89 40.05 M44.24 64.95 C50.17 58.13, 56.1 51.31, 65.89 40.05 M49.22 65.31 C53.21 60.73, 57.19 56.15, 65.63 46.45 M49.22 65.31 C54.46 59.29, 59.69 53.27, 65.63 46.45 M54.87 64.92 C58.64 60.59, 62.4 56.25, 66.02 52.09 M54.87 64.92 C58.32 60.95, 61.77 56.98, 66.02 52.09 M59.85 65.28 C61.55 63.33, 63.25 61.37, 65.76 58.49 M59.85 65.28 C61.89 62.94, 63.92 60.61, 65.76 58.49" stroke="#e64980" stroke-width="0.5" fill="none"></path><path d="M0 0 C17.15 0, 34.3 0, 65.08 0 M0 0 C24.37 0, 48.74 0, 65.08 0 M65.08 0 C65.08 25.74, 65.08 51.48, 65.08 65.08 M65.08 0 C65.08 22.09, 65.08 44.18, 65.08 65.08 M65.08 65.08 C40.65 65.08, 16.23 65.08, 0 65.08 M65.08 65.08 C51.63 65.08, 38.19 65.08, 0 65.08 M0 65.08 C0 43.03, 0 20.98, 0 0 M0 65.08 C0 48.27, 0 31.45, 0 0" stroke="#000000" stroke-width="1" fill="none"></path></g><g stroke-linecap="round" transform="translate(29.403210183848387 35.10667450340543) rotate(0 4.05896022790246 4.058960227902475)"><path d="M8.12 4.06 C8.12 4.29, 8.1 4.53, 8.06 4.76 C8.02 5, 7.95 5.23, 7.87 5.45 C7.79 5.67, 7.69 5.88, 7.57 6.09 C7.46 6.29, 7.32 6.49, 7.17 6.67 C7.02 6.85, 6.85 7.02, 6.67 7.17 C6.49 7.32, 6.29 7.46, 6.09 7.57 C5.88 7.69, 5.67 7.79, 5.45 7.87 C5.23 7.95, 5 8.02, 4.76 8.06 C4.53 8.1, 4.29 8.12, 4.06 8.12 C3.82 8.12, 3.59 8.1, 3.35 8.06 C3.12 8.02, 2.89 7.95, 2.67 7.87 C2.45 7.79, 2.23 7.69, 2.03 7.57 C1.83 7.46, 1.63 7.32, 1.45 7.17 C1.27 7.02, 1.1 6.85, 0.95 6.67 C0.8 6.49, 0.66 6.29, 0.54 6.09 C0.43 5.88, 0.33 5.67, 0.24 5.45 C0.16 5.23, 0.1 5, 0.06 4.76 C0.02 4.53, 0 4.29, 0 4.06 C0 3.82, 0.02 3.59, 0.06 3.35 C0.1 3.12, 0.16 2.89, 0.24 2.67 C0.33 2.45, 0.43 2.23, 0.54 2.03 C0.66 1.83, 0.8 1.63, 0.95 1.45 C1.1 1.27, 1.27 1.1, 1.45 0.95 C1.63 0.8, 1.83 0.66, 2.03 0.54 C2.23 0.43, 2.45 0.33, 2.67 0.24 C2.89 0.16, 3.12 0.1, 3.35 0.06 C3.59 0.02, 3.82 0, 4.06 0 C4.29 0, 4.53 0.02, 4.76 0.06 C5 0.1, 5.23 0.16, 5.45 0.24 C5.67 0.33, 5.88 0.43, 6.09 0.54 C6.29 0.66, 6.49 0.8, 6.67 0.95 C6.85 1.1, 7.02 1.27, 7.17 1.45 C7.32 1.63, 7.46 1.83, 7.57 2.03 C7.69 2.23, 7.79 2.45, 7.87 2.67 C7.95 2.89, 8.02 3.12, 8.06 3.35 C8.1 3.59, 8.11 3.94, 8.12 4.06 C8.13 4.18, 8.13 3.94, 8.12 4.06" stroke="#ffffff" stroke-width="2" fill="none"></path></g><g stroke-linecap="round" transform="translate(70.46097723346793 35.033239409939824) rotate(0 4.05896022790246 4.058960227902475)"><path d="M8.12 4.06 C8.12 4.29, 8.1 4.53, 8.06 4.76 C8.02 5, 7.95 5.23, 7.87 5.45 C7.79 5.67, 7.69 5.88, 7.57 6.09 C7.46 6.29, 7.32 6.49, 7.17 6.67 C7.02 6.85, 6.85 7.02, 6.67 7.17 C6.49 7.32, 6.29 7.46, 6.09 7.57 C5.88 7.69, 5.67 7.79, 5.45 7.87 C5.23 7.95, 5 8.02, 4.76 8.06 C4.53 8.1, 4.29 8.12, 4.06 8.12 C3.82 8.12, 3.59 8.1, 3.35 8.06 C3.12 8.02, 2.89 7.95, 2.67 7.87 C2.45 7.79, 2.23 7.69, 2.03 7.57 C1.83 7.46, 1.63 7.32, 1.45 7.17 C1.27 7.02, 1.1 6.85, 0.95 6.67 C0.8 6.49, 0.66 6.29, 0.54 6.09 C0.43 5.88, 0.33 5.67, 0.24 5.45 C0.16 5.23, 0.1 5, 0.06 4.76 C0.02 4.53, 0 4.29, 0 4.06 C0 3.82, 0.02 3.59, 0.06 3.35 C0.1 3.12, 0.16 2.89, 0.24 2.67 C0.33 2.45, 0.43 2.23, 0.54 2.03 C0.66 1.83, 0.8 1.63, 0.95 1.45 C1.1 1.27, 1.27 1.1, 1.45 0.95 C1.63 0.8, 1.83 0.66, 2.03 0.54 C2.23 0.43, 2.45 0.33, 2.67 0.24 C2.89 0.16, 3.12 0.1, 3.35 0.06 C3.59 0.02, 3.82 0, 4.06 0 C4.29 0, 4.53 0.02, 4.76 0.06 C5 0.1, 5.23 0.16, 5.45 0.24 C5.67 0.33, 5.88 0.43, 6.09 0.54 C6.29 0.66, 6.49 0.8, 6.67 0.95 C6.85 1.1, 7.02 1.27, 7.17 1.45 C7.32 1.63, 7.46 1.83, 7.57 2.03 C7.69 2.23, 7.79 2.45, 7.87 2.67 C7.95 2.89, 8.02 3.12, 8.06 3.35 C8.1 3.59, 8.11 3.94, 8.12 4.06 C8.13 4.18, 8.13 3.94, 8.12 4.06" stroke="#ffffff" stroke-width="2" fill="none"></path></g><g stroke-linecap="round"><g transform="translate(46.38443152989112 31.426279248911214) rotate(0 0.7141117199084874 7.450742628495675)"><path d="M0 0 C0.26 0.59, 1.19 2.25, 1.53 3.52 C1.87 4.79, 2.08 6.27, 2.04 7.61 C2 8.96, 1.75 10.38, 1.3 11.6 C0.86 12.81, -0.3 14.35, -0.62 14.9 M0 0 C0.26 0.59, 1.19 2.25, 1.53 3.52 C1.87 4.79, 2.08 6.27, 2.04 7.61 C2 8.96, 1.75 10.38, 1.3 11.6 C0.86 12.81, -0.3 14.35, -0.62 14.9" stroke="#ffffff" stroke-width="2" fill="none"></path></g></g><mask></mask><g stroke-linecap="round"><g transform="translate(52.94592724862923 25.499120215823268) rotate(89.99999999999994 0.7141117199084874 7.450742628495675)"><path d="M0 0 C0.26 0.59, 1.19 2.25, 1.53 3.52 C1.87 4.79, 2.08 6.27, 2.04 7.61 C2 8.96, 1.75 10.38, 1.3 11.6 C0.86 12.81, -0.3 14.35, -0.62 14.9 M0 0 C0.26 0.59, 1.19 2.25, 1.53 3.52 C1.87 4.79, 2.08 6.27, 2.04 7.61 C2 8.96, 1.75 10.38, 1.3 11.6 C0.86 12.81, -0.3 14.35, -0.62 14.9" stroke="#ffffff" stroke-width="2" fill="none"></path></g></g><mask></mask><g stroke-linecap="round"><g transform="translate(58.880331146877324 32.017965314846606) rotate(180 0.7141117199084874 7.450742628495675)"><path d="M0 0 C0.26 0.59, 1.19 2.25, 1.53 3.52 C1.87 4.79, 2.08 6.27, 2.04 7.61 C2 8.96, 1.75 10.38, 1.3 11.6 C0.86 12.81, -0.3 14.35, -0.62 14.9 M0 0 C0.26 0.59, 1.19 2.25, 1.53 3.52 C1.87 4.79, 2.08 6.27, 2.04 7.61 C2 8.96, 1.75 10.38, 1.3 11.6 C0.86 12.81, -0.3 14.35, -0.62 14.9" stroke="#ffffff" stroke-width="2" fill="none"></path></g></g><mask></mask><g stroke-linecap="round"><g transform="translate(52.32792972090874 37.96597923405693) rotate(270 0.7141117199084874 7.450742628495675)"><path d="M0 0 C0.26 0.59, 1.19 2.25, 1.53 3.52 C1.87 4.79, 2.08 6.27, 2.04 7.61 C2 8.96, 1.75 10.38, 1.3 11.6 C0.86 12.81, -0.3 14.35, -0.62 14.9 M0 0 C0.26 0.59, 1.19 2.25, 1.53 3.52 C1.87 4.79, 2.08 6.27, 2.04 7.61 C2 8.96, 1.75 10.38, 1.3 11.6 C0.86 12.81, -0.3 14.35, -0.62 14.9" stroke="#ffffff" stroke-width="2" fill="none"></path></g></g><mask></mask><g stroke-linecap="round"><g transform="translate(39.54788586281393 39.180399293173195) rotate(0 2.9212369421864253 0.05106437702113453)"><path d="M0 0 C2.18 -0.02, 4.36 -0.04, 5.82 -0.05 M0 0 C2.3 -0.02, 4.6 -0.04, 5.82 -0.05 M5.82 -0.05 C4.95 -0.89, 4.08 -1.74, 3.25 -2.53 M5.82 -0.05 C4.85 -0.98, 3.89 -1.91, 3.25 -2.53 M3.25 -2.53 C3.79 -2.02, 4.32 -1.51, 5.84 -0.05 M3.25 -2.53 C4.13 -1.69, 5.01 -0.85, 5.84 -0.05 M5.84 -0.05 C5.12 0.64, 4.39 1.34, 3.04 2.63 M5.84 -0.05 C5.11 0.65, 4.37 1.36, 3.04 2.63" stroke="#ffffff" stroke-width="2" fill="none"></path></g></g><mask></mask><g stroke-linecap="round"><g transform="translate(62.1417344897518 39.303269754810344) rotate(0 2.9212369421864253 0.05106437702113453)"><path d="M0 0 C1.55 -0.01, 3.09 -0.03, 5.82 -0.05 M0 0 C1.37 -0.01, 2.75 -0.03, 5.82 -0.05 M5.82 -0.05 C4.92 -0.93, 4.01 -1.8, 3.25 -2.53 M5.82 -0.05 C4.79 -1.04, 3.77 -2.03, 3.25 -2.53 M3.25 -2.53 C3.88 -1.93, 4.51 -1.33, 5.84 -0.05 M3.25 -2.53 C4.06 -1.76, 4.86 -0.99, 5.84 -0.05 M5.84 -0.05 C4.74 1.01, 3.64 2.06, 3.04 2.63 M5.84 -0.05 C4.89 0.86, 3.95 1.76, 3.04 2.63" stroke="#ffffff" stroke-width="2" fill="none"></path></g></g><mask></mask><g stroke-linecap="round"><g transform="translate(33.426604167043934 35.15049388592479) rotate(0 20.674816406375825 -8.390257953829632)"><path d="M0 0 C0.43 -1.28, 1.18 -5.48, 2.56 -7.66 C3.94 -9.84, 6.18 -11.68, 8.27 -13.1 C10.36 -14.52, 12.82 -15.55, 15.09 -16.19 C17.37 -16.83, 19.5 -17.14, 21.94 -16.94 C24.38 -16.75, 27.5 -16.01, 29.75 -15.03 C32.01 -14.05, 33.84 -12.69, 35.48 -11.07 C37.11 -9.44, 38.6 -7.17, 39.57 -5.3 C40.55 -3.43, 41.05 -0.75, 41.35 0.16 M0 0 C0.43 -1.28, 1.18 -5.48, 2.56 -7.66 C3.94 -9.84, 6.18 -11.68, 8.27 -13.1 C10.36 -14.52, 12.82 -15.55, 15.09 -16.19 C17.37 -16.83, 19.5 -17.14, 21.94 -16.94 C24.38 -16.75, 27.5 -16.01, 29.75 -15.03 C32.01 -14.05, 33.84 -12.69, 35.48 -11.07 C37.11 -9.44, 38.6 -7.17, 39.57 -5.3 C40.55 -3.43, 41.05 -0.75, 41.35 0.16" stroke="#ffffff" stroke-width="2" fill="none"></path></g></g><mask></mask><g stroke-linecap="round"><g transform="translate(33.172946794032214 59.83807755807561) rotate(180 20.674816406375825 -8.390257953829632)"><path d="M0 0 C0.43 -1.28, 1.18 -5.48, 2.56 -7.66 C3.94 -9.84, 6.18 -11.68, 8.27 -13.1 C10.36 -14.52, 12.82 -15.55, 15.09 -16.19 C17.37 -16.83, 19.5 -17.14, 21.94 -16.94 C24.38 -16.75, 27.5 -16.01, 29.75 -15.03 C32.01 -14.05, 33.84 -12.69, 35.48 -11.07 C37.11 -9.44, 38.6 -7.17, 39.57 -5.3 C40.55 -3.43, 41.05 -0.75, 41.35 0.16 M0 0 C0.43 -1.28, 1.18 -5.48, 2.56 -7.66 C3.94 -9.84, 6.18 -11.68, 8.27 -13.1 C10.36 -14.52, 12.82 -15.55, 15.09 -16.19 C17.37 -16.83, 19.5 -17.14, 21.94 -16.94 C24.38 -16.75, 27.5 -16.01, 29.75 -15.03 C32.01 -14.05, 33.84 -12.69, 35.48 -11.07 C37.11 -9.44, 38.6 -7.17, 39.57 -5.3 C40.55 -3.43, 41.05 -0.75, 41.35 0.16" stroke="#ffffff" stroke-width="2" fill="none"></path></g></g><mask></mask><g transform="translate(6 75.05418806974558) rotate(0 47.759979248046875 10)"><text x="47.759979248046875" y="0" font-family="Virgil, Segoe UI Emoji" font-size="16px" fill="#000000" text-anchor="middle" style="white-space: pre;" direction="ltr" dominant-baseline="text-before-edge">Amazon SQS</text></g></svg>