<svg xmlns="http://www.w3.org/2000/svg" viewBox="1464.00 2351.06 77.08 105.24" width="77" height="105"><rect x="1470.00" y="2357.06" width="65.08" height="65.08" rx="0" stroke="#000000" stroke-width="2" opacity="1.0" fill="none"/><ellipse cx="1482.24" cy="2390.22" rx="4.06" ry="4.06" stroke="#000000" stroke-width="2" opacity="1.0" fill="none"/><ellipse cx="1523.30" cy="2390.15" rx="4.06" ry="4.06" stroke="#000000" stroke-width="2" opacity="1.0" fill="none"/><polyline points="1495.17,2382.48 1496.70,2386.00 1497.21,2390.10 1496.47,2394.08 1494.55,2397.39" fill="none" stroke="#000000" stroke-width="2" opacity="1.0" stroke-linecap="round" stroke-linejoin="round"/><polyline points="1501.73,2376.56 1503.26,2380.07 1503.77,2384.17 1503.03,2388.15 1501.11,2391.46" fill="none" stroke="#000000" stroke-width="2" opacity="1.0" stroke-linecap="round" stroke-linejoin="round" transform="rotate(90.00 1503.06 2384.01)"/><polyline points="1507.66,2383.08 1509.20,2386.59 1509.71,2390.69 1508.96,2394.67 1507.05,2397.98" fill="none" stroke="#000000" stroke-width="2" opacity="1.0" stroke-linecap="round" stroke-linejoin="round" transform="rotate(180.00 1508.99 2390.53)"/><polyline points="1501.11,2389.02 1502.64,2392.54 1503.15,2396.64 1502.41,2400.62 1500.49,2403.93" fill="none" stroke="#000000" stroke-width="2" opacity="1.0" stroke-linecap="round" stroke-linejoin="round" transform="rotate(270.00 1502.44 2396.47)"/><polyline points="1488.33,2390.24 1494.15,2390.18 1491.58,2387.71 1494.17,2390.19 1491.37,2392.87" fill="none" stroke="#000000" stroke-width="2" opacity="1.0" stroke-linecap="round" stroke-linejoin="round"/><polyline points="1510.92,2390.36 1516.74,2390.31 1514.18,2387.83 1516.77,2390.31 1513.96,2393.00" fill="none" stroke="#000000" stroke-width="2" opacity="1.0" stroke-linecap="round" stroke-linejoin="round"/><polyline points="1482.21,2386.21 1484.77,2378.55 1490.48,2373.11 1497.30,2370.01 1504.15,2369.26 1511.96,2371.17 1517.69,2375.14 1521.78,2380.91 1523.56,2386.37" fill="none" stroke="#000000" stroke-width="2" opacity="1.0" stroke-linecap="round" stroke-linejoin="round"/><polyline points="1481.96,2410.90 1484.52,2403.23 1490.23,2397.80 1497.05,2394.70 1503.90,2393.95 1511.71,2395.86 1517.43,2399.83 1521.53,2405.60 1523.30,2411.06" fill="none" stroke="#000000" stroke-width="2" opacity="1.0" stroke-linecap="round" stroke-linejoin="round" transform="rotate(180.00 1502.63 2419.45)"/><text x="1483.04" y="2446.29" font-size="20" fill="#000000" opacity="1.0" font-family="sans-serif">SQS</text></svg>