<svg xmlns="http://www.w3.org/2000/svg" viewBox="2566.36 1160.54 87.10 105.54" width="87" height="106"><text x="2575.88" y="1256.07" font-size="20" fill="#000000" opacity="1.0" font-family="sans-serif">Config</text><rect x="2572.36" y="1166.54" width="64.46" height="64.40" rx="0" stroke="#000000" stroke-width="2" opacity="1.0" fill="none"/><polyline points="2614.80,1226.43 2620.62,1226.58 2620.49,1223.50 2623.93,1221.57 2626.68,1223.61 2630.62,1218.85 2627.96,1216.92 2628.71,1213.81 2631.96,1213.82 2631.96,1208.26 2628.86,1208.27 2627.57,1206.06 2629.63,1203.22 2625.72,1199.66 2623.53,1202.05 2621.06,1200.97 2621.23,1197.93 2615.94,1197.82 2615.84,1200.72 2613.69,1201.90 2611.07,1199.49 2607.06,1203.51 2609.28,1205.36 2607.99,1207.99 2605.11,1208.15 2604.88,1213.62 2607.58,1213.56 2608.61,1216.68 2606.05,1218.25 2609.57,1223.18 2612.25,1221.57 2614.87,1223.14 2614.80,1226.43" fill="none" stroke="#000000" stroke-width="2" opacity="1.0" stroke-linecap="round" stroke-linejoin="round"/><polyline points="2614.43,1205.46 2616.39,1205.59 2621.67,1206.17 2624.89,1210.86" fill="none" stroke="#000000" stroke-width="2" opacity="1.0" stroke-linecap="round" stroke-linejoin="round"/><polyline points="2612.14,1216.85 2616.24,1213.34 2621.52,1213.92 2624.74,1218.61" fill="none" stroke="#000000" stroke-width="2" opacity="1.0" stroke-linecap="round" stroke-linejoin="round" transform="rotate(180.00 2618.44 1219.49)"/><polyline points="2598.51,1214.96 2576.82,1214.96 2576.82,1170.71 2625.77,1170.71 2625.77,1193.57" fill="none" stroke="#000000" stroke-width="2" opacity="1.0" stroke-linecap="round" stroke-linejoin="round"/><rect x="2581.22" y="1184.48" width="9.09" height="4.69" rx="0" stroke="#000000" stroke-width="2" opacity="1.0" fill="none"/><rect x="2596.61" y="1192.10" width="9.09" height="4.69" rx="0" stroke="#000000" stroke-width="2" opacity="1.0" fill="none"/><rect x="2611.85" y="1180.97" width="9.09" height="4.69" rx="0" stroke="#000000" stroke-width="2" opacity="1.0" fill="none"/><rect x="2583.27" y="1189.17" width="4.98" height="20.22" rx="0" stroke="#000000" stroke-width="2" opacity="1.0" fill="none"/><rect x="2598.66" y="1174.08" width="5.28" height="17.88" rx="0" stroke="#000000" stroke-width="2" opacity="1.0" fill="none"/><rect x="2583.27" y="1174.08" width="4.98" height="10.26" rx="0" stroke="#000000" stroke-width="2" opacity="1.0" fill="none"/><rect x="2613.90" y="1174.08" width="4.40" height="7.03" rx="0" stroke="#000000" stroke-width="2" opacity="1.0" fill="none"/><polyline points="2598.51,1209.40 2598.51,1197.38" fill="none" stroke="#000000" stroke-width="2" opacity="1.0" stroke-linecap="round" stroke-linejoin="round"/><polyline points="2613.90,1193.57 2613.90,1185.65" fill="none" stroke="#000000" stroke-width="2" opacity="1.0" stroke-linecap="round" stroke-linejoin="round"/><polyline points="2618.29,1193.72 2618.29,1185.80" fill="none" stroke="#000000" stroke-width="2" opacity="1.0" stroke-linecap="round" stroke-linejoin="round"/><polyline points="2603.93,1197.53 2603.93,1200.16" fill="none" stroke="#000000" stroke-width="2" opacity="1.0" stroke-linecap="round" stroke-linejoin="round"/></svg>