<svg version="1.1" xmlns="http://www.w3.org/2000/svg" viewBox="0 0 165.98001098632812 105.78035378938876" width="165.98001098632812" height="105.78035378938876">
  <!-- svg-source:excalidraw -->
  
  <defs>
    
    
  </defs>
  <g transform="translate(6 75.78035378938876) rotate(0 76.99000549316406 12)"><text x="76.99000549316406" y="0" font-family="Virgil, Segoe UI Emoji" font-size="20px" fill="#000000" text-anchor="middle" style="white-space: pre;" direction="ltr" dominant-baseline="text-before-edge">Transfer Family</text></g><g stroke-linecap="round" transform="translate(49.9495849609375 6) rotate(0 32.54042053222656 32.54042053222656)"><path d="M0 0 C0 0, 0 0, 0 0 M0 0 C0 0, 0 0, 0 0 M0.13 12.04 C3.95 7.65, 7.77 3.25, 10.63 -0.03 M0.13 12.04 C3.15 8.57, 6.16 5.1, 10.63 -0.03 M0.27 24.08 C8.48 14.63, 16.7 5.17, 21.26 -0.07 M0.27 24.08 C8.3 14.84, 16.33 5.61, 21.26 -0.07 M-0.26 36.88 C9.84 25.26, 19.94 13.65, 31.89 -0.1 M-0.26 36.88 C12.35 22.37, 24.96 7.87, 31.89 -0.1 M-0.12 48.92 C9.07 38.35, 18.26 27.78, 42.52 -0.14 M-0.12 48.92 C10.75 36.41, 21.62 23.9, 42.52 -0.14 M0.01 60.96 C17.82 40.47, 35.64 19.98, 53.15 -0.17 M0.01 60.96 C18.08 40.17, 36.15 19.39, 53.15 -0.17 M6.7 65.45 C25.05 44.35, 43.39 23.25, 63.78 -0.21 M6.7 65.45 C26.31 42.9, 45.92 20.34, 63.78 -0.21 M17.33 65.42 C35.97 43.98, 54.61 22.54, 65.88 9.57 M17.33 65.42 C31.22 49.44, 45.11 33.46, 65.88 9.57 M27.96 65.38 C41.2 50.16, 54.43 34.94, 66.02 21.61 M27.96 65.38 C35.92 56.23, 43.87 47.08, 66.02 21.61 M38.59 65.35 C44.13 58.98, 49.67 52.61, 65.49 34.41 M38.59 65.35 C48.59 53.84, 58.6 42.34, 65.49 34.41 M49.22 65.31 C55.33 58.29, 61.44 51.26, 65.63 46.45 M49.22 65.31 C54.94 58.74, 60.65 52.17, 65.63 46.45 M59.85 65.28 C61.25 63.68, 62.64 62.08, 65.76 58.49 M59.85 65.28 C61.18 63.76, 62.5 62.23, 65.76 58.49 M0.23 65.28 C0.23 65.28, 0.23 65.28, 0.23 65.28 M0.23 65.28 C0.23 65.28, 0.23 65.28, 0.23 65.28 M12.27 65.15 C8.67 62.02, 5.07 58.89, 0.19 54.65 M12.27 65.15 C9.16 62.44, 6.05 59.74, 0.19 54.65 M24.31 65.01 C16.51 58.23, 8.71 51.45, 0.16 44.02 M24.31 65.01 C16.69 58.39, 9.07 51.76, 0.16 44.02 M36.35 64.88 C25.31 55.28, 14.27 45.69, 0.13 33.39 M36.35 64.88 C22.96 53.24, 9.56 41.59, 0.13 33.39 M49.15 65.4 C34.44 52.62, 19.73 39.83, 0.09 22.76 M49.15 65.4 C33.6 51.89, 18.06 38.38, 0.09 22.76 M61.19 65.27 C39.28 46.23, 17.37 27.18, 0.06 12.13 M61.19 65.27 C46.11 52.16, 31.03 39.06, 0.06 12.13 M64.93 57.92 C40.49 36.68, 16.05 15.43, 0.02 1.5 M64.93 57.92 C42.94 38.81, 20.96 19.7, 0.02 1.5 M65.65 47.95 C51.69 35.82, 37.74 23.69, 9.8 -0.6 M65.65 47.95 C51.17 35.36, 36.7 22.78, 9.8 -0.6 M65.61 37.32 C51.33 24.9, 37.05 12.49, 21.84 -0.74 M65.61 37.32 C54.33 27.51, 43.05 17.7, 21.84 -0.74 M65.58 26.69 C54.19 16.79, 42.8 6.89, 33.88 -0.87 M65.58 26.69 C54.03 16.65, 42.48 6.61, 33.88 -0.87 M65.54 16.06 C58.73 10.13, 51.92 4.21, 46.68 -0.35 M65.54 16.06 C60.14 11.36, 54.74 6.66, 46.68 -0.35 M65.51 5.43 C63.09 3.32, 60.67 1.22, 58.72 -0.48 M65.51 5.43 C64.12 4.22, 62.72 3, 58.72 -0.48" stroke="#7eddd2" stroke-width="1" fill="none"></path><path d="M0 0 C20.14 0, 40.27 0, 65.08 0 M0 0 C25.47 0, 50.93 0, 65.08 0 M65.08 0 C65.08 25.68, 65.08 51.37, 65.08 65.08 M65.08 0 C65.08 20.41, 65.08 40.83, 65.08 65.08 M65.08 65.08 C50.15 65.08, 35.21 65.08, 0 65.08 M65.08 65.08 C44.14 65.08, 23.2 65.08, 0 65.08 M0 65.08 C0 50.97, 0 36.86, 0 0 M0 65.08 C0 41.94, 0 18.8, 0 0" stroke="#000000" stroke-width="2" fill="none"></path></g><g stroke-linecap="round"><g transform="translate(85.64519872987876 29.923908991047938) rotate(0 6.542874396135289 0.4758454106276986)"><path d="M0 0 C0.08 2.56, 0.17 5.12, 0.24 7.38 M0 0 C0.08 2.51, 0.16 5.03, 0.24 7.38 M0.24 7.38 C-1.68 7.3, -3.6 7.22, -5.71 7.14 M0.24 7.38 C-1.85 7.29, -3.94 7.21, -5.71 7.14 M-5.71 7.14 C-3.35 9.81, -0.99 12.48, 3.33 17.37 M-5.71 7.14 C-2.6 10.66, 0.51 14.18, 3.33 17.37 M3.33 17.37 C6.48 13.97, 9.64 10.58, 12.61 7.38 M3.33 17.37 C5.28 15.27, 7.23 13.17, 12.61 7.38 M12.61 7.38 C11.25 7.32, 9.89 7.26, 7.14 7.14 M12.61 7.38 C11.43 7.32, 10.25 7.27, 7.14 7.14 M7.14 7.14 C7.14 3.8, 7.14 0.46, 7.14 -6.66 M7.14 7.14 C7.14 3.04, 7.14 -1.05, 7.14 -6.66 M7.14 -6.66 C5.47 -6.73, 3.8 -6.8, 1.43 -6.9 M7.14 -6.66 C5.66 -6.72, 4.18 -6.78, 1.43 -6.9 M1.43 -6.9 C4.46 -10.18, 7.49 -13.45, 10.23 -16.42 M1.43 -6.9 C3.81 -9.48, 6.19 -12.05, 10.23 -16.42 M10.23 -16.42 C12.5 -13.83, 14.78 -11.24, 18.8 -6.66 M10.23 -16.42 C12.49 -13.84, 14.75 -11.27, 18.8 -6.66 M18.8 -6.66 C17.22 -6.66, 15.64 -6.66, 13.56 -6.66 M18.8 -6.66 C17.61 -6.66, 16.42 -6.66, 13.56 -6.66 M13.56 -6.66 C13.51 -4.65, 13.45 -2.63, 13.32 2.14 M13.56 -6.66 C13.51 -4.85, 13.46 -3.03, 13.32 2.14" stroke="#000000" stroke-width="2" fill="none"></path></g></g><mask></mask><g stroke-linecap="round"><g transform="translate(83.2659716767389 29.44806358042115) rotate(0 -10.825483091787419 13.918478260869506)"><path d="M0 0 C-2.22 0, -4.44 0, -6.9 0 M0 0 C-1.51 0, -3.01 0, -6.9 0 M-6.9 0 C-7.6 -0.76, -8.3 -1.52, -9.75 -3.09 M-6.9 0 C-7.67 -0.84, -8.45 -1.68, -9.75 -3.09 M-9.75 -3.09 C-13.45 -3.09, -17.14 -3.09, -21.65 -3.09 M-9.75 -3.09 C-12.68 -3.09, -15.62 -3.09, -21.65 -3.09 M-21.65 -3.09 C-21.65 6.22, -21.65 15.53, -21.65 30.93 M-21.65 -3.09 C-21.65 8.27, -21.65 19.63, -21.65 30.93 M-21.65 30.93 C-20 30.93, -18.34 30.93, -14.28 30.93 M-21.65 30.93 C-19.24 30.93, -16.83 30.93, -14.28 30.93" stroke="#000000" stroke-width="2" fill="none"></path></g></g><mask></mask><g stroke-linecap="round"><g transform="translate(83.2659716767389 32.92173507800544) rotate(0 -8.922101449275374 13.561594202898505)"><path d="M0 0 C-5.33 0, -10.66 0, -17.84 0 M0 0 C-6.79 0, -13.57 0, -17.84 0 M-17.84 0 C-17.84 9.84, -17.84 19.68, -17.84 27.12 M-17.84 0 C-17.84 6.63, -17.84 13.26, -17.84 27.12" stroke="#000000" stroke-width="2" fill="none"></path></g></g><mask></mask><g stroke-linecap="round"><g transform="translate(94.92418423712525 33.01690416012934) rotate(0 -1.4275362318840052 13.680555555555657)"><path d="M0 0 C2.6 0, 5.2 0, 8.33 0 M0 0 C1.67 0, 3.34 0, 8.33 0 M8.33 0 C8.33 8.19, 8.33 16.38, 8.33 27.36 M8.33 0 C8.33 9.8, 8.33 19.61, 8.33 27.36 M8.33 27.36 C2.97 27.36, -2.38 27.36, -11.18 27.36 M8.33 27.36 C3.16 27.36, -2.01 27.36, -11.18 27.36" stroke="#000000" stroke-width="2" fill="none"></path></g></g><mask></mask><g stroke-linecap="round" transform="translate(71.1319137057244 53.47825681713584) rotate(0 5.472222222222172 4.639492753623017)"><path d="M2.32 0 C4.76 0, 7.2 0, 8.62 0 M2.32 0 C4.21 0, 6.1 0, 8.62 0 M8.62 0 C10.17 0, 10.94 0.77, 10.94 2.32 M8.62 0 C10.17 0, 10.94 0.77, 10.94 2.32 M10.94 2.32 C10.94 3.76, 10.94 5.2, 10.94 6.96 M10.94 2.32 C10.94 3.46, 10.94 4.61, 10.94 6.96 M10.94 6.96 C10.94 8.51, 10.17 9.28, 8.62 9.28 M10.94 6.96 C10.94 8.51, 10.17 9.28, 8.62 9.28 M8.62 9.28 C6.44 9.28, 4.26 9.28, 2.32 9.28 M8.62 9.28 C6.91 9.28, 5.19 9.28, 2.32 9.28 M2.32 9.28 C0.77 9.28, 0 8.51, 0 6.96 M2.32 9.28 C0.77 9.28, 0 8.51, 0 6.96 M0 6.96 C0 5.48, 0 3.99, 0 2.32 M0 6.96 C0 5.75, 0 4.55, 0 2.32 M0 2.32 C0 0.77, 0.77 0, 2.32 0 M0 2.32 C0 0.77, 0.77 0, 2.32 0" stroke="#000000" stroke-width="2" fill="none"></path></g><g stroke-linecap="round"><g transform="translate(73.27321805355041 53.24033411182245) rotate(0 3.4498792270530885 -2.26026570048316)"><path d="M0 0 C0.08 -0.71, -0.12 -3.49, 0.48 -4.28 C1.07 -5.08, 2.58 -4.76, 3.57 -4.76 C4.56 -4.76, 5.87 -5.12, 6.42 -4.28 C6.98 -3.45, 6.82 -0.52, 6.9 0.24 M0 0 C0.08 -0.71, -0.12 -3.49, 0.48 -4.28 C1.07 -5.08, 2.58 -4.76, 3.57 -4.76 C4.56 -4.76, 5.87 -5.12, 6.42 -4.28 C6.98 -3.45, 6.82 -0.52, 6.9 0.24" stroke="#000000" stroke-width="2" fill="none"></path></g></g><mask></mask><g stroke-linecap="round"><g transform="translate(99.44471563809157 28.97221816979072) rotate(0 1.903381642512045 1.189613526570156)"><path d="M0 0 C1.5 0, 3 0, 3.81 0 M0 0 C1.19 0, 2.39 0, 3.81 0 M3.81 0 C3.81 0.55, 3.81 1.09, 3.81 2.38 M3.81 0 C3.81 0.77, 3.81 1.53, 3.81 2.38" stroke="#000000" stroke-width="2" fill="none"></path></g></g><mask></mask></svg>