<svg version="1.1" xmlns="http://www.w3.org/2000/svg" viewBox="0 0 131.62000274658203 125.97904232283236" width="131.62000274658203" height="125.97904232283236">
  <!-- svg-source:excalidraw -->
  
  <defs>
    
    
  </defs>
  <g transform="translate(6 71.97904232283236) rotate(0 59.810001373291016 24)"><text x="59.810001373291016" y="0" font-family="Virgil, Segoe UI Emoji" font-size="20px" fill="#000000" text-anchor="middle" style="white-space: pre;" direction="ltr" dominant-baseline="text-before-edge">OpenSearch </text><text x="59.810001373291016" y="24" font-family="Virgil, Segoe UI Emoji" font-size="20px" fill="#000000" text-anchor="middle" style="white-space: pre;" direction="ltr" dominant-baseline="text-before-edge">Service</text></g><g stroke-linecap="round" transform="translate(33.93847860001915 6) rotate(0 31.871522773271806 31.84100278541382)"><path d="M0 0 C0 0, 0 0, 0 0 M0 0 C0 0, 0 0, 0 0 M0.13 12.04 C4.09 7.49, 8.05 2.94, 10.63 -0.03 M0.13 12.04 C3.49 8.18, 6.85 4.32, 10.63 -0.03 M0.27 24.08 C7.11 16.21, 13.96 8.33, 21.26 -0.07 M0.27 24.08 C7.45 15.82, 14.64 7.55, 21.26 -0.07 M-0.26 36.88 C8.49 26.82, 17.23 16.76, 31.89 -0.1 M-0.26 36.88 C9.35 25.83, 18.95 14.79, 31.89 -0.1 M-0.12 48.92 C9.01 38.41, 18.14 27.91, 42.52 -0.14 M-0.12 48.92 C14.29 32.34, 28.7 15.76, 42.52 -0.14 M0.01 60.96 C15.77 42.83, 31.53 24.7, 53.15 -0.17 M0.01 60.96 C16.95 41.48, 33.88 21.99, 53.15 -0.17 M8.02 63.94 C20.53 49.55, 33.04 35.16, 63.78 -0.21 M8.02 63.94 C27.17 41.9, 46.33 19.86, 63.78 -0.21 M18.65 63.91 C36.04 43.9, 53.43 23.89, 64.57 11.08 M18.65 63.91 C36.72 43.12, 54.79 22.33, 64.57 11.08 M29.28 63.87 C37.52 54.39, 45.77 44.9, 64.7 23.12 M29.28 63.87 C38.57 53.18, 47.87 42.48, 64.7 23.12 M39.91 63.84 C46.39 56.38, 52.87 48.92, 64.18 35.92 M39.91 63.84 C49.4 52.91, 58.9 41.99, 64.18 35.92 M50.54 63.81 C55.85 57.69, 61.16 51.58, 64.31 47.96 M50.54 63.81 C53.33 60.59, 56.12 57.38, 64.31 47.96 M61.17 63.77 C61.92 62.9, 62.68 62.03, 64.45 60 M61.17 63.77 C62.26 62.51, 63.36 61.24, 64.45 60 M0.17 63.83 C0.17 63.83, 0.17 63.83, 0.17 63.83 M0.17 63.83 C0.17 63.83, 0.17 63.83, 0.17 63.83 M12.21 63.69 C7.88 59.93, 3.55 56.17, 0.13 53.2 M12.21 63.69 C8.56 60.52, 4.91 57.35, 0.13 53.2 M24.25 63.56 C17.95 58.09, 11.66 52.62, 0.1 42.57 M24.25 63.56 C19.35 59.3, 14.44 55.04, 0.1 42.57 M36.29 63.43 C26.87 55.24, 17.46 47.06, 0.06 31.94 M36.29 63.43 C24.5 53.18, 12.72 42.94, 0.06 31.94 M49.08 63.95 C33.04 50.01, 17 36.06, 0.03 21.31 M49.08 63.95 C39.14 55.3, 29.19 46.66, 0.03 21.31 M61.13 63.82 C38.81 44.42, 16.49 25.02, -0.01 10.68 M61.13 63.82 C43.33 48.34, 25.53 32.87, -0.01 10.68 M64.11 55.81 C49.63 43.23, 35.16 30.64, -0.04 0.05 M64.11 55.81 C44.67 38.91, 25.23 22.02, -0.04 0.05 M64.08 45.18 C52.25 34.9, 40.41 24.61, 11.25 -0.74 M64.08 45.18 C51.31 34.09, 38.55 22.99, 11.25 -0.74 M64.04 34.55 C49.59 21.99, 35.15 9.43, 23.29 -0.88 M64.04 34.55 C50.37 22.67, 36.7 10.79, 23.29 -0.88 M64.01 23.92 C58.07 18.76, 52.14 13.6, 35.33 -1.01 M64.01 23.92 C56.18 17.12, 48.36 10.32, 35.33 -1.01 M63.97 13.29 C57.93 8.03, 51.88 2.78, 48.12 -0.49 M63.97 13.29 C58.65 8.66, 53.32 4.03, 48.12 -0.49 M63.94 2.66 C63.16 1.99, 62.39 1.32, 60.16 -0.62 M63.94 2.66 C63.05 1.89, 62.16 1.11, 60.16 -0.62" stroke="#7950f288" stroke-width="1" fill="none"></path><path d="M0 0 C24.94 0, 49.88 0, 63.74 0 M0 0 C22.37 0, 44.74 0, 63.74 0 M63.74 0 C63.74 23.16, 63.74 46.31, 63.74 63.68 M63.74 0 C63.74 19.43, 63.74 38.85, 63.74 63.68 M63.74 63.68 C40.49 63.68, 17.24 63.68, 0 63.68 M63.74 63.68 C38.85 63.68, 13.97 63.68, 0 63.68 M0 63.68 C0 50.73, 0 37.78, 0 0 M0 63.68 C0 43.09, 0 22.5, 0 0" stroke="#000000" stroke-width="2" fill="none"></path></g><g stroke-linecap="round" transform="translate(56.264156131516984 27.186267150455024) rotate(350.5849548621936 14.070695354660927 14.070695354660984)"><path d="M28.14 14.07 C28.14 14.89, 28.07 15.71, 27.93 16.51 C27.79 17.32, 27.57 18.12, 27.29 18.88 C27.01 19.65, 26.66 20.4, 26.26 21.11 C25.85 21.81, 25.37 22.49, 24.85 23.12 C24.33 23.74, 23.74 24.33, 23.12 24.85 C22.49 25.37, 21.81 25.85, 21.11 26.26 C20.4 26.66, 19.65 27.01, 18.88 27.29 C18.12 27.57, 17.32 27.79, 16.51 27.93 C15.71 28.07, 14.89 28.14, 14.07 28.14 C13.26 28.14, 12.43 28.07, 11.63 27.93 C10.83 27.79, 10.02 27.57, 9.26 27.29 C8.49 27.01, 7.74 26.66, 7.04 26.26 C6.33 25.85, 5.65 25.37, 5.03 24.85 C4.4 24.33, 3.82 23.74, 3.29 23.12 C2.77 22.49, 2.29 21.81, 1.89 21.11 C1.48 20.4, 1.13 19.65, 0.85 18.88 C0.57 18.12, 0.36 17.32, 0.21 16.51 C0.07 15.71, 0 14.89, 0 14.07 C0 13.26, 0.07 12.43, 0.21 11.63 C0.36 10.83, 0.57 10.02, 0.85 9.26 C1.13 8.49, 1.48 7.74, 1.89 7.04 C2.29 6.33, 2.77 5.65, 3.29 5.03 C3.82 4.4, 4.4 3.82, 5.03 3.29 C5.65 2.77, 6.33 2.29, 7.04 1.89 C7.74 1.48, 8.49 1.13, 9.26 0.85 C10.02 0.57, 10.83 0.36, 11.63 0.21 C12.43 0.07, 13.26 0, 14.07 0 C14.89 0, 15.71 0.07, 16.51 0.21 C17.32 0.36, 18.12 0.57, 18.88 0.85 C19.65 1.13, 20.4 1.48, 21.11 1.89 C21.81 2.29, 22.49 2.77, 23.12 3.29 C23.74 3.82, 24.33 4.4, 24.85 5.03 C25.37 5.65, 25.85 6.33, 26.26 7.04 C26.66 7.74, 27.01 8.49, 27.29 9.26 C27.57 10.02, 27.79 10.83, 27.93 11.63 C28.07 12.43, 28.11 13.66, 28.14 14.07 C28.18 14.48, 28.18 13.66, 28.14 14.07" stroke="#000000" stroke-width="2" fill="none"></path></g><g stroke-linecap="round" transform="translate(59.44777387413092 30.519253859788932) rotate(350.5849548621936 10.887077612047051 10.737708645326848)"><path d="M21.77 10.74 C21.77 11.36, 21.72 11.99, 21.61 12.6 C21.5 13.21, 21.33 13.83, 21.12 14.41 C20.9 14.99, 20.63 15.57, 20.32 16.11 C20 16.64, 19.63 17.16, 19.23 17.64 C18.82 18.12, 18.37 18.56, 17.89 18.96 C17.4 19.36, 16.88 19.73, 16.33 20.04 C15.78 20.35, 15.2 20.62, 14.61 20.83 C14.02 21.04, 13.4 21.2, 12.78 21.31 C12.16 21.42, 11.52 21.48, 10.89 21.48 C10.26 21.48, 9.62 21.42, 9 21.31 C8.38 21.2, 7.76 21.04, 7.16 20.83 C6.57 20.62, 5.99 20.35, 5.44 20.04 C4.9 19.73, 4.37 19.36, 3.89 18.96 C3.41 18.56, 2.95 18.12, 2.55 17.64 C2.14 17.16, 1.77 16.64, 1.46 16.11 C1.14 15.57, 0.87 14.99, 0.66 14.41 C0.44 13.83, 0.27 13.21, 0.17 12.6 C0.06 11.99, 0 11.36, 0 10.74 C0 10.12, 0.06 9.49, 0.17 8.87 C0.27 8.26, 0.44 7.65, 0.66 7.07 C0.87 6.48, 1.14 5.91, 1.46 5.37 C1.77 4.83, 2.14 4.31, 2.55 3.84 C2.95 3.36, 3.41 2.91, 3.89 2.51 C4.37 2.11, 4.9 1.75, 5.44 1.44 C5.99 1.13, 6.57 0.86, 7.16 0.65 C7.76 0.43, 8.38 0.27, 9 0.16 C9.62 0.06, 10.26 0, 10.89 0 C11.52 0, 12.16 0.06, 12.78 0.16 C13.4 0.27, 14.02 0.43, 14.61 0.65 C15.2 0.86, 15.78 1.13, 16.33 1.44 C16.88 1.75, 17.4 2.11, 17.89 2.51 C18.37 2.91, 18.82 3.36, 19.23 3.84 C19.63 4.31, 20 4.83, 20.32 5.37 C20.63 5.91, 20.9 6.48, 21.12 7.07 C21.33 7.65, 21.5 8.26, 21.61 8.87 C21.72 9.49, 21.75 10.43, 21.77 10.74 C21.8 11.05, 21.8 10.43, 21.77 10.74" stroke="#000000" stroke-width="2" fill="none"></path></g><g stroke-linecap="round"><g transform="translate(78.82188463613056 51.83226689834646) rotate(350.5849548621936 5.895505943907381 3.8199673251614286)"><path d="M0 0 C1.32 1.7, 6.02 8.48, 7.95 10.2 C9.88 11.92, 10.94 10.84, 11.58 10.32 C12.22 9.81, 13.03 9.27, 11.79 7.1 C10.55 4.94, 5.43 -1.05, 4.15 -2.68 M0 0 C1.32 1.7, 6.02 8.48, 7.95 10.2 C9.88 11.92, 10.94 10.84, 11.58 10.32 C12.22 9.81, 13.03 9.27, 11.79 7.1 C10.55 4.94, 5.43 -1.05, 4.15 -2.68" stroke="#000000" stroke-width="2" fill="none"></path></g></g><mask></mask><g stroke-linecap="round" transform="translate(38.36428353468409 28.014040254217434) rotate(0 5.328444449405993 18.205518535470446)"><path d="M0 0 C2.73 0, 5.47 0, 10.66 0 M0 0 C3.86 0, 7.73 0, 10.66 0 M10.66 0 C10.66 7.6, 10.66 15.19, 10.66 36.41 M10.66 0 C10.66 7.47, 10.66 14.93, 10.66 36.41 M10.66 36.41 C7.35 36.41, 4.04 36.41, 0 36.41 M10.66 36.41 C7.98 36.41, 5.31 36.41, 0 36.41 M0 36.41 C0 27.53, 0 18.65, 0 0 M0 36.41 C0 26.4, 0 16.39, 0 0" stroke="#000000" stroke-width="2" fill="none"></path></g><g stroke-linecap="round"><g transform="translate(52.573468733099844 32.72083285119288) rotate(0 5.106425930680757 -6.438537043032284)"><path d="M0 0 C0 -3.53, 0 -7.06, 0 -12.88 M0 0 C0 -3.85, 0 -7.7, 0 -12.88 M0 -12.88 C2.3 -12.88, 4.59 -12.88, 10.21 -12.88 M0 -12.88 C2.09 -12.88, 4.17 -12.88, 10.21 -12.88 M10.21 -12.88 C10.21 -11.68, 10.21 -10.48, 10.21 -9.79 M10.21 -12.88 C10.21 -11.96, 10.21 -11.04, 10.21 -9.79" stroke="#000000" stroke-width="2" fill="none"></path></g></g><mask></mask><g stroke-linecap="round"><g transform="translate(82.42967334643845 27.834310977154473) rotate(0 5.413022932729916 6.258807765968868)"><path d="M0 0 C0 -2.5, 0 -5, 0 -11.16 M0 0 C0 -2.78, 0 -5.55, 0 -11.16 M0 -11.16 C2.13 -11.16, 4.27 -11.16, 10.49 -11.16 M0 -11.16 C3.62 -11.16, 7.23 -11.16, 10.49 -11.16 M10.49 -11.16 C10.56 -3.41, 10.64 4.35, 10.83 23.68 M10.49 -11.16 C10.57 -3.17, 10.64 4.82, 10.83 23.68" stroke="#000000" stroke-width="2" fill="none"></path></g></g><mask></mask><g stroke-linecap="round"><g transform="translate(67.882174214727 22.75960197771974) rotate(0 5.243865966082069 -4.567238099491078)"><path d="M0 0 C0 -4.18, 0 -8.37, 0 -11.5 M0 0 C0 -3.51, 0 -7.02, 0 -11.5 M0 -11.5 C3.83 -11.5, 7.65 -11.5, 10.49 -11.5 M0 -11.5 C4.09 -11.5, 8.19 -11.5, 10.49 -11.5 M10.49 -11.5 C10.49 -8.68, 10.49 -5.86, 10.49 2.37 M10.49 -11.5 C10.49 -7.02, 10.49 -2.53, 10.49 2.37" stroke="#000000" stroke-width="2" fill="none"></path></g></g><mask></mask><g stroke-linecap="round"><g transform="translate(52.996361149719405 49.877578193447334) rotate(0 5.5821798993777065 7.273749565855951)"><path d="M0 0 C0 5.77, 0 11.54, 0 14.55 M0 0 C0 5.4, 0 10.8, 0 14.55 M0 14.55 C4.35 14.55, 8.7 14.55, 11.16 14.55 M0 14.55 C2.78 14.55, 5.57 14.55, 11.16 14.55 M11.16 14.55 C11.16 12.73, 11.16 10.91, 11.16 8.46 M11.16 14.55 C11.16 13.13, 11.16 11.71, 11.16 8.46" stroke="#000000" stroke-width="2" fill="none"></path></g></g><mask></mask><g stroke-linecap="round"><g transform="translate(67.20554634813561 59.35036832572405) rotate(0 5.5821798993777065 2.537354499717253)"><path d="M0 0 C0 1.17, 0 2.34, 0 5.07 M0 0 C0 1.27, 0 2.54, 0 5.07 M0 5.07 C3.12 5.07, 6.23 5.07, 11.16 5.07 M0 5.07 C4.07 5.07, 8.14 5.07, 11.16 5.07 M11.16 5.07 C11.16 4.14, 11.16 3.2, 11.16 0.68 M11.16 5.07 C11.16 3.84, 11.16 2.6, 11.16 0.68" stroke="#000000" stroke-width="2" fill="none"></path></g></g><mask></mask></svg>