<svg version="1.1" xmlns="http://www.w3.org/2000/svg" viewBox="0 0 86.05101102941171 88.09604779411757" width="86.05101102941171" height="88.09604779411757">
  <!-- svg-source:excalidraw -->
  
  <defs>
    
    
  </defs>
  <g stroke-linecap="round" transform="translate(6 6) rotate(0 37.025505514705856 38.04802389705878)"><path d="M74.05 38.05 C74.05 40.03, 73.9 42.04, 73.6 44 C73.29 45.96, 72.84 47.92, 72.24 49.81 C71.64 51.69, 70.89 53.55, 70.02 55.32 C69.14 57.09, 68.11 58.81, 66.98 60.41 C65.84 62.02, 64.57 63.55, 63.21 64.95 C61.84 66.35, 60.35 67.66, 58.79 68.83 C57.23 70, 55.55 71.05, 53.83 71.95 C52.11 72.85, 50.3 73.62, 48.47 74.23 C46.63 74.85, 44.72 75.32, 42.82 75.63 C40.91 75.94, 38.96 76.1, 37.03 76.1 C35.09 76.1, 33.14 75.94, 31.23 75.63 C29.33 75.32, 27.42 74.85, 25.58 74.23 C23.75 73.62, 21.94 72.85, 20.22 71.95 C18.5 71.05, 16.82 70, 15.26 68.83 C13.7 67.66, 12.21 66.35, 10.84 64.95 C9.48 63.55, 8.21 62.02, 7.07 60.41 C5.94 58.81, 4.91 57.09, 4.04 55.32 C3.16 53.55, 2.41 51.69, 1.81 49.81 C1.22 47.92, 0.76 45.96, 0.46 44 C0.15 42.04, 0 40.03, 0 38.05 C0 36.06, 0.15 34.06, 0.46 32.1 C0.76 30.14, 1.22 28.18, 1.81 26.29 C2.41 24.4, 3.16 22.54, 4.04 20.77 C4.91 19.01, 5.94 17.29, 7.07 15.68 C8.21 14.08, 9.48 12.55, 10.84 11.14 C12.21 9.74, 13.7 8.43, 15.26 7.27 C16.82 6.1, 18.5 5.05, 20.22 4.15 C21.94 3.25, 23.75 2.48, 25.58 1.86 C27.42 1.25, 29.33 0.78, 31.23 0.47 C33.14 0.16, 35.09 0, 37.03 0 C38.96 0, 40.91 0.16, 42.82 0.47 C44.72 0.78, 46.63 1.25, 48.47 1.86 C50.3 2.48, 52.11 3.25, 53.83 4.15 C55.55 5.05, 57.23 6.1, 58.79 7.27 C60.35 8.43, 61.84 9.74, 63.21 11.14 C64.57 12.55, 65.84 14.08, 66.98 15.68 C68.11 17.29, 69.14 19.01, 70.02 20.77 C70.89 22.54, 71.64 24.4, 72.24 26.29 C72.84 28.18, 73.29 30.14, 73.6 32.1 C73.9 34.06, 73.98 37.06, 74.05 38.05 C74.13 39.04, 74.13 37.06, 74.05 38.05" stroke="none" stroke-width="0" fill="#fd7e14"></path><path d="M74.05 38.05 C74.05 40.03, 73.9 42.04, 73.6 44 C73.29 45.96, 72.84 47.92, 72.24 49.81 C71.64 51.69, 70.89 53.55, 70.02 55.32 C69.14 57.09, 68.11 58.81, 66.98 60.41 C65.84 62.02, 64.57 63.55, 63.21 64.95 C61.84 66.35, 60.35 67.66, 58.79 68.83 C57.23 70, 55.55 71.05, 53.83 71.95 C52.11 72.85, 50.3 73.62, 48.47 74.23 C46.63 74.85, 44.72 75.32, 42.82 75.63 C40.91 75.94, 38.96 76.1, 37.03 76.1 C35.09 76.1, 33.14 75.94, 31.23 75.63 C29.33 75.32, 27.42 74.85, 25.58 74.23 C23.75 73.62, 21.94 72.85, 20.22 71.95 C18.5 71.05, 16.82 70, 15.26 68.83 C13.7 67.66, 12.21 66.35, 10.84 64.95 C9.48 63.55, 8.21 62.02, 7.07 60.41 C5.94 58.81, 4.91 57.09, 4.04 55.32 C3.16 53.55, 2.41 51.69, 1.81 49.81 C1.22 47.92, 0.76 45.96, 0.46 44 C0.15 42.04, 0 40.03, 0 38.05 C0 36.06, 0.15 34.06, 0.46 32.1 C0.76 30.14, 1.22 28.18, 1.81 26.29 C2.41 24.4, 3.16 22.54, 4.04 20.77 C4.91 19.01, 5.94 17.29, 7.07 15.68 C8.21 14.08, 9.48 12.55, 10.84 11.14 C12.21 9.74, 13.7 8.43, 15.26 7.27 C16.82 6.1, 18.5 5.05, 20.22 4.15 C21.94 3.25, 23.75 2.48, 25.58 1.86 C27.42 1.25, 29.33 0.78, 31.23 0.47 C33.14 0.16, 35.09 0, 37.03 0 C38.96 0, 40.91 0.16, 42.82 0.47 C44.72 0.78, 46.63 1.25, 48.47 1.86 C50.3 2.48, 52.11 3.25, 53.83 4.15 C55.55 5.05, 57.23 6.1, 58.79 7.27 C60.35 8.43, 61.84 9.74, 63.21 11.14 C64.57 12.55, 65.84 14.08, 66.98 15.68 C68.11 17.29, 69.14 19.01, 70.02 20.77 C70.89 22.54, 71.64 24.4, 72.24 26.29 C72.84 28.18, 73.29 30.14, 73.6 32.1 C73.9 34.06, 73.98 37.06, 74.05 38.05 C74.13 39.04, 74.13 37.06, 74.05 38.05" stroke="#fd7e14" stroke-width="2" fill="none"></path></g><g stroke-linecap="round" transform="translate(25.8701746323527 15.456571691176578) rotate(0 11.786458700337903 12.659262557584498)"><path d="M5.89 0 C9.53 0, 13.16 0, 17.68 0 C21.61 0, 23.57 1.96, 23.57 5.89 C23.57 10.05, 23.57 14.22, 23.57 19.43 C23.57 23.35, 21.61 25.32, 17.68 25.32 C15.01 25.32, 12.35 25.32, 5.89 25.32 C1.96 25.32, 0 23.35, 0 19.43 C0 15.44, 0 11.45, 0 5.89 C0 1.96, 1.96 0, 5.89 0" stroke="none" stroke-width="0" fill="#fd7e14"></path><path d="M5.89 0 C8.89 0, 11.89 0, 17.68 0 M5.89 0 C10.49 0, 15.08 0, 17.68 0 M17.68 0 C21.61 0, 23.57 1.96, 23.57 5.89 M17.68 0 C21.61 0, 23.57 1.96, 23.57 5.89 M23.57 5.89 C23.57 9.52, 23.57 13.15, 23.57 19.43 M23.57 5.89 C23.57 10.14, 23.57 14.38, 23.57 19.43 M23.57 19.43 C23.57 23.35, 21.61 25.32, 17.68 25.32 M23.57 19.43 C23.57 23.35, 21.61 25.32, 17.68 25.32 M17.68 25.32 C14.61 25.32, 11.53 25.32, 5.89 25.32 M17.68 25.32 C15.01 25.32, 12.33 25.32, 5.89 25.32 M5.89 25.32 C1.96 25.32, 0 23.35, 0 19.43 M5.89 25.32 C1.96 25.32, 0 23.35, 0 19.43 M0 19.43 C0 15.25, 0 11.07, 0 5.89 M0 19.43 C0 14.4, 0 9.37, 0 5.89 M0 5.89 C0 1.96, 1.96 0, 5.89 0 M0 5.89 C0 1.96, 1.96 0, 5.89 0" stroke="#fff" stroke-width="2" fill="none"></path></g><g stroke-linecap="round" transform="translate(29.600870127957023 19.58183223629544) rotate(0 11.786458700337903 12.659262557584498)"><path d="M5.89 0 C8.33 0, 10.76 0, 17.68 0 C21.61 0, 23.57 1.96, 23.57 5.89 C23.57 10.78, 23.57 15.66, 23.57 19.43 C23.57 23.35, 21.61 25.32, 17.68 25.32 C15.27 25.32, 12.85 25.32, 5.89 25.32 C1.96 25.32, 0 23.35, 0 19.43 C0 14.94, 0 10.45, 0 5.89 C0 1.96, 1.96 0, 5.89 0" stroke="none" stroke-width="0" fill="#fd7e14"></path><path d="M5.89 0 C9.54 0, 13.18 0, 17.68 0 M5.89 0 C9.54 0, 13.18 0, 17.68 0 M17.68 0 C21.61 0, 23.57 1.96, 23.57 5.89 M17.68 0 C21.61 0, 23.57 1.96, 23.57 5.89 M23.57 5.89 C23.57 10.6, 23.57 15.31, 23.57 19.43 M23.57 5.89 C23.57 10.34, 23.57 14.78, 23.57 19.43 M23.57 19.43 C23.57 23.35, 21.61 25.32, 17.68 25.32 M23.57 19.43 C23.57 23.35, 21.61 25.32, 17.68 25.32 M17.68 25.32 C13.44 25.32, 9.2 25.32, 5.89 25.32 M17.68 25.32 C15.17 25.32, 12.65 25.32, 5.89 25.32 M5.89 25.32 C1.96 25.32, 0 23.35, 0 19.43 M5.89 25.32 C1.96 25.32, 0 23.35, 0 19.43 M0 19.43 C0 14.09, 0 8.75, 0 5.89 M0 19.43 C0 14.24, 0 9.05, 0 5.89 M0 5.89 C0 1.96, 1.96 0, 5.89 0 M0 5.89 C0 1.96, 1.96 0, 5.89 0" stroke="#fff" stroke-width="2" fill="none"></path></g><g stroke-linecap="round" transform="translate(33.56383243515438 24.230053770258337) rotate(0 11.786458700337903 12.659262557584498)"><path d="M5.89 0 C9.88 0, 13.87 0, 17.68 0 C21.61 0, 23.57 1.96, 23.57 5.89 C23.57 10.26, 23.57 14.63, 23.57 19.43 C23.57 23.35, 21.61 25.32, 17.68 25.32 C13.5 25.32, 9.33 25.32, 5.89 25.32 C1.96 25.32, 0 23.35, 0 19.43 C0 14.32, 0 9.22, 0 5.89 C0 1.96, 1.96 0, 5.89 0" stroke="none" stroke-width="0" fill="#fd7e14"></path><path d="M5.89 0 C9.85 0, 13.8 0, 17.68 0 M5.89 0 C10.32 0, 14.74 0, 17.68 0 M17.68 0 C21.61 0, 23.57 1.96, 23.57 5.89 M17.68 0 C21.61 0, 23.57 1.96, 23.57 5.89 M23.57 5.89 C23.57 9.84, 23.57 13.8, 23.57 19.43 M23.57 5.89 C23.57 8.81, 23.57 11.72, 23.57 19.43 M23.57 19.43 C23.57 23.35, 21.61 25.32, 17.68 25.32 M23.57 19.43 C23.57 23.35, 21.61 25.32, 17.68 25.32 M17.68 25.32 C13.85 25.32, 10.02 25.32, 5.89 25.32 M17.68 25.32 C15.3 25.32, 12.93 25.32, 5.89 25.32 M5.89 25.32 C1.96 25.32, 0 23.35, 0 19.43 M5.89 25.32 C1.96 25.32, 0 23.35, 0 19.43 M0 19.43 C0 14.4, 0 9.38, 0 5.89 M0 19.43 C0 14.83, 0 10.23, 0 5.89 M0 5.89 C0 1.96, 1.96 0, 5.89 0 M0 5.89 C0 1.96, 1.96 0, 5.89 0" stroke="#fff" stroke-width="2" fill="none"></path></g><g transform="translate(24.90228108288784 54.071461397058556) rotate(0 17.5 10)"><text x="17.5" y="0" font-family="Cascadia, Segoe UI Emoji" font-size="8.500069255277737px" fill="#fff" text-anchor="middle" style="white-space: pre;" direction="ltr" dominant-baseline="text-before-edge">EC2</text><text x="17.5" y="10" font-family="Cascadia, Segoe UI Emoji" font-size="8.500069255277737px" fill="#fff" text-anchor="middle" style="white-space: pre;" direction="ltr" dominant-baseline="text-before-edge">CLUSTER</text></g></svg>