<svg xmlns="http://www.w3.org/2000/svg" viewBox="552.56 3705.36 123.76 104.61" width="124" height="105"><text x="558.56" y="3799.96" font-size="20" fill="#000000" opacity="1.0" font-family="sans-serif">Timestream</text><rect x="581.90" y="3711.36" width="65.08" height="65.08" rx="0" stroke="#000000" stroke-width="2" opacity="1.0" fill="none"/><ellipse cx="607.62" cy="3725.05" rx="16.81" ry="6.16" stroke="#000000" stroke-width="2" opacity="1.0" fill="none"/><polyline points="591.15,3725.85 591.40,3764.16" fill="none" stroke="#000000" stroke-width="2" opacity="1.0" stroke-linecap="round" stroke-linejoin="round"/><polyline points="624.49,3725.46 624.24,3736.76" fill="none" stroke="#000000" stroke-width="2" opacity="1.0" stroke-linecap="round" stroke-linejoin="round"/><polyline points="591.42,3752.69 593.86,3754.64 596.79,3756.11 601.55,3757.60 606.73,3758.33 612.19,3757.78" fill="none" stroke="#000000" stroke-width="2" opacity="1.0" stroke-linecap="round" stroke-linejoin="round"/><polyline points="591.59,3764.21 593.06,3765.67 596.72,3767.87 600.38,3768.60 604.53,3768.84 608.43,3768.84 612.33,3768.84 616.97,3768.11 620.39,3766.89 623.32,3764.94 624.54,3762.50" fill="none" stroke="#000000" stroke-width="2" opacity="1.0" stroke-linecap="round" stroke-linejoin="round"/><polyline points="624.68,3757.13 624.68,3762.08" fill="none" stroke="#000000" stroke-width="2" opacity="1.0" stroke-linecap="round" stroke-linejoin="round"/><polyline points="591.39,3739.96 593.83,3741.91 596.76,3743.38 601.52,3744.87 606.71,3745.61 612.17,3745.06" fill="none" stroke="#000000" stroke-width="2" opacity="1.0" stroke-linecap="round" stroke-linejoin="round"/><polyline points="615.56,3738.45 615.56,3757.11 638.06,3757.11" fill="none" stroke="#000000" stroke-width="2" opacity="1.0" stroke-linecap="round" stroke-linejoin="round"/><polyline points="617.28,3740.16 622.79,3740.16 624.34,3742.64 626.67,3739.54 631.01,3744.04 636.28,3748.84" fill="none" stroke="#000000" stroke-width="2" opacity="1.0" stroke-linecap="round" stroke-linejoin="round"/><polyline points="617.83,3751.79 623.26,3746.05 629.46,3746.36 631.32,3744.50 636.12,3738.61" fill="none" stroke="#000000" stroke-width="2" opacity="1.0" stroke-linecap="round" stroke-linejoin="round"/><polyline points="617.83,3746.83 624.50,3753.96 627.29,3750.24 628.99,3752.87 636.28,3752.87" fill="none" stroke="#000000" stroke-width="2" opacity="1.0" stroke-linecap="round" stroke-linejoin="round"/></svg>