<svg version="1.1" xmlns="http://www.w3.org/2000/svg" viewBox="0 0 155.5 120.18805668649043" width="155.5" height="120.18805668649043">
  <!-- svg-source:excalidraw -->
  
  <defs>
    
    
  </defs>
  <g stroke-linecap="round" transform="translate(61.951029807896475 6.0298890274755195) rotate(0 20.37077452718654 28.275851209378516)"><path d="M0 0 C11.78 0, 23.56 0, 40.74 0 M0 0 C14.86 0, 29.71 0, 40.74 0 M40.74 0 C40.74 21.83, 40.74 43.66, 40.74 56.55 M40.74 0 C40.74 14.38, 40.74 28.77, 40.74 56.55 M40.74 56.55 C27.02 56.55, 13.31 56.55, 0 56.55 M40.74 56.55 C31.49 56.55, 22.25 56.55, 0 56.55 M0 56.55 C0 36.48, 0 16.4, 0 0 M0 56.55 C0 35.98, 0 15.41, 0 0" stroke="#7950f2" stroke-width="2" fill="none"></path></g><g stroke-linecap="round"><g transform="translate(68.79196155210093 11.35480773892914) rotate(0 13.833884193835672 0)"><path d="M0 0 C9.95 0, 19.89 0, 27.67 0 M0 0 C8.48 0, 16.96 0, 27.67 0" stroke="#7950f2" stroke-width="2" fill="none"></path></g></g><mask></mask><g stroke-linecap="round"><g transform="translate(68.79196155210093 17.262645142989868) rotate(0 13.833884193835672 0)"><path d="M0 0 C10.27 0, 20.54 0, 27.67 0 M0 0 C5.67 0, 11.35 0, 27.67 0" stroke="#7950f2" stroke-width="2" fill="none"></path></g></g><mask></mask><g stroke-linecap="round"><g transform="translate(68.79196155210093 50.723976422944816) rotate(0 13.833884193835672 0)"><path d="M0 0 C7.04 0, 14.09 0, 27.67 0 M0 0 C9.7 0, 19.39 0, 27.67 0" stroke="#7950f2" stroke-width="2" fill="none"></path></g></g><mask></mask><g stroke-linecap="round"><g transform="translate(68.79196155210093 56.0572831774316) rotate(0 13.833884193835672 0)"><path d="M0 0 C10.86 0, 21.71 0, 27.67 0 M0 0 C7.42 0, 14.84 0, 27.67 0" stroke="#7950f2" stroke-width="2" fill="none"></path></g></g><mask></mask><g stroke-linecap="round"><g transform="translate(57.493862946030845 6) rotate(0 -2.3432209041502574 28.31118954895237)"><path d="M0 0 C-1.58 0, -3.17 0, -4.69 0 M0 0 C-1.87 0, -3.74 0, -4.69 0 M-4.69 0 C-4.69 16.13, -4.69 32.26, -4.69 56.62 M-4.69 0 C-4.69 21.1, -4.69 42.19, -4.69 56.62 M-4.69 56.62 C-3.39 56.62, -2.09 56.62, -0.31 56.62 M-4.69 56.62 C-3.37 56.62, -2.06 56.62, -0.31 56.62" stroke="#7950f2" stroke-width="2" fill="none"></path></g></g><mask></mask><g stroke-linecap="round" transform="translate(80.036046706727 23.280284792067505) rotate(0 2.577542994565306 2.577542994565306)"><path d="M5.16 2.58 C5.16 2.73, 5.14 2.88, 5.12 3.03 C5.09 3.17, 5.05 3.32, 5 3.46 C4.95 3.6, 4.88 3.74, 4.81 3.87 C4.74 4, 4.65 4.12, 4.55 4.23 C4.46 4.35, 4.35 4.46, 4.23 4.55 C4.12 4.65, 4 4.74, 3.87 4.81 C3.74 4.88, 3.6 4.95, 3.46 5 C3.32 5.05, 3.17 5.09, 3.03 5.12 C2.88 5.14, 2.73 5.16, 2.58 5.16 C2.43 5.16, 2.28 5.14, 2.13 5.12 C1.98 5.09, 1.84 5.05, 1.7 5 C1.56 4.95, 1.42 4.88, 1.29 4.81 C1.16 4.74, 1.04 4.65, 0.92 4.55 C0.81 4.46, 0.7 4.35, 0.6 4.23 C0.51 4.12, 0.42 4, 0.35 3.87 C0.27 3.74, 0.21 3.6, 0.16 3.46 C0.1 3.32, 0.07 3.17, 0.04 3.03 C0.01 2.88, 0 2.73, 0 2.58 C0 2.43, 0.01 2.28, 0.04 2.13 C0.07 1.98, 0.1 1.84, 0.16 1.7 C0.21 1.56, 0.27 1.42, 0.35 1.29 C0.42 1.16, 0.51 1.04, 0.6 0.92 C0.7 0.81, 0.81 0.7, 0.92 0.6 C1.04 0.51, 1.16 0.42, 1.29 0.35 C1.42 0.27, 1.56 0.21, 1.7 0.16 C1.84 0.1, 1.98 0.07, 2.13 0.04 C2.28 0.01, 2.43 0, 2.58 0 C2.73 0, 2.88 0.01, 3.03 0.04 C3.17 0.07, 3.32 0.1, 3.46 0.16 C3.6 0.21, 3.74 0.27, 3.87 0.35 C4 0.42, 4.12 0.51, 4.23 0.6 C4.35 0.7, 4.46 0.81, 4.55 0.92 C4.65 1.04, 4.74 1.16, 4.81 1.29 C4.88 1.42, 4.95 1.56, 5 1.7 C5.05 1.84, 5.09 1.98, 5.12 2.13 C5.14 2.28, 5.15 2.5, 5.16 2.58 C5.16 2.65, 5.16 2.5, 5.16 2.58" stroke="#7950f2" stroke-width="2" fill="none"></path></g><g stroke-linecap="round" transform="translate(69.79172604729285 37.495824943912794) rotate(0 2.577542994565306 2.577542994565306)"><path d="M5.16 2.58 C5.16 2.73, 5.14 2.88, 5.12 3.03 C5.09 3.17, 5.05 3.32, 5 3.46 C4.95 3.6, 4.88 3.74, 4.81 3.87 C4.74 4, 4.65 4.12, 4.55 4.23 C4.46 4.35, 4.35 4.46, 4.23 4.55 C4.12 4.65, 4 4.74, 3.87 4.81 C3.74 4.88, 3.6 4.95, 3.46 5 C3.32 5.05, 3.17 5.09, 3.03 5.12 C2.88 5.14, 2.73 5.16, 2.58 5.16 C2.43 5.16, 2.28 5.14, 2.13 5.12 C1.98 5.09, 1.84 5.05, 1.7 5 C1.56 4.95, 1.42 4.88, 1.29 4.81 C1.16 4.74, 1.04 4.65, 0.92 4.55 C0.81 4.46, 0.7 4.35, 0.6 4.23 C0.51 4.12, 0.42 4, 0.35 3.87 C0.27 3.74, 0.21 3.6, 0.16 3.46 C0.1 3.32, 0.07 3.17, 0.04 3.03 C0.01 2.88, 0 2.73, 0 2.58 C0 2.43, 0.01 2.28, 0.04 2.13 C0.07 1.98, 0.1 1.84, 0.16 1.7 C0.21 1.56, 0.27 1.42, 0.35 1.29 C0.42 1.16, 0.51 1.04, 0.6 0.92 C0.7 0.81, 0.81 0.7, 0.92 0.6 C1.04 0.51, 1.16 0.42, 1.29 0.35 C1.42 0.27, 1.56 0.21, 1.7 0.16 C1.84 0.1, 1.98 0.07, 2.13 0.04 C2.28 0.01, 2.43 0, 2.58 0 C2.73 0, 2.88 0.01, 3.03 0.04 C3.17 0.07, 3.32 0.1, 3.46 0.16 C3.6 0.21, 3.74 0.27, 3.87 0.35 C4 0.42, 4.12 0.51, 4.23 0.6 C4.35 0.7, 4.46 0.81, 4.55 0.92 C4.65 1.04, 4.74 1.16, 4.81 1.29 C4.88 1.42, 4.95 1.56, 5 1.7 C5.05 1.84, 5.09 1.98, 5.12 2.13 C5.14 2.28, 5.15 2.5, 5.16 2.58 C5.16 2.65, 5.16 2.5, 5.16 2.58" stroke="#7950f2" stroke-width="2" fill="none"></path></g><g stroke-linecap="round" transform="translate(80.036046706727 37.495824943912794) rotate(0 2.577542994565306 2.577542994565306)"><path d="M5.16 2.58 C5.16 2.73, 5.14 2.88, 5.12 3.03 C5.09 3.17, 5.05 3.32, 5 3.46 C4.95 3.6, 4.88 3.74, 4.81 3.87 C4.74 4, 4.65 4.12, 4.55 4.23 C4.46 4.35, 4.35 4.46, 4.23 4.55 C4.12 4.65, 4 4.74, 3.87 4.81 C3.74 4.88, 3.6 4.95, 3.46 5 C3.32 5.05, 3.17 5.09, 3.03 5.12 C2.88 5.14, 2.73 5.16, 2.58 5.16 C2.43 5.16, 2.28 5.14, 2.13 5.12 C1.98 5.09, 1.84 5.05, 1.7 5 C1.56 4.95, 1.42 4.88, 1.29 4.81 C1.16 4.74, 1.04 4.65, 0.92 4.55 C0.81 4.46, 0.7 4.35, 0.6 4.23 C0.51 4.12, 0.42 4, 0.35 3.87 C0.27 3.74, 0.21 3.6, 0.16 3.46 C0.1 3.32, 0.07 3.17, 0.04 3.03 C0.01 2.88, 0 2.73, 0 2.58 C0 2.43, 0.01 2.28, 0.04 2.13 C0.07 1.98, 0.1 1.84, 0.16 1.7 C0.21 1.56, 0.27 1.42, 0.35 1.29 C0.42 1.16, 0.51 1.04, 0.6 0.92 C0.7 0.81, 0.81 0.7, 0.92 0.6 C1.04 0.51, 1.16 0.42, 1.29 0.35 C1.42 0.27, 1.56 0.21, 1.7 0.16 C1.84 0.1, 1.98 0.07, 2.13 0.04 C2.28 0.01, 2.43 0, 2.58 0 C2.73 0, 2.88 0.01, 3.03 0.04 C3.17 0.07, 3.32 0.1, 3.46 0.16 C3.6 0.21, 3.74 0.27, 3.87 0.35 C4 0.42, 4.12 0.51, 4.23 0.6 C4.35 0.7, 4.46 0.81, 4.55 0.92 C4.65 1.04, 4.74 1.16, 4.81 1.29 C4.88 1.42, 4.95 1.56, 5 1.7 C5.05 1.84, 5.09 1.98, 5.12 2.13 C5.14 2.28, 5.15 2.5, 5.16 2.58 C5.16 2.65, 5.16 2.5, 5.16 2.58" stroke="#7950f2" stroke-width="2" fill="none"></path></g><g stroke-linecap="round" transform="translate(90.25585527687224 37.495824943912794) rotate(0 2.577542994565306 2.577542994565306)"><path d="M5.16 2.58 C5.16 2.73, 5.14 2.88, 5.12 3.03 C5.09 3.17, 5.05 3.32, 5 3.46 C4.95 3.6, 4.88 3.74, 4.81 3.87 C4.74 4, 4.65 4.12, 4.55 4.23 C4.46 4.35, 4.35 4.46, 4.23 4.55 C4.12 4.65, 4 4.74, 3.87 4.81 C3.74 4.88, 3.6 4.95, 3.46 5 C3.32 5.05, 3.17 5.09, 3.03 5.12 C2.88 5.14, 2.73 5.16, 2.58 5.16 C2.43 5.16, 2.28 5.14, 2.13 5.12 C1.98 5.09, 1.84 5.05, 1.7 5 C1.56 4.95, 1.42 4.88, 1.29 4.81 C1.16 4.74, 1.04 4.65, 0.92 4.55 C0.81 4.46, 0.7 4.35, 0.6 4.23 C0.51 4.12, 0.42 4, 0.35 3.87 C0.27 3.74, 0.21 3.6, 0.16 3.46 C0.1 3.32, 0.07 3.17, 0.04 3.03 C0.01 2.88, 0 2.73, 0 2.58 C0 2.43, 0.01 2.28, 0.04 2.13 C0.07 1.98, 0.1 1.84, 0.16 1.7 C0.21 1.56, 0.27 1.42, 0.35 1.29 C0.42 1.16, 0.51 1.04, 0.6 0.92 C0.7 0.81, 0.81 0.7, 0.92 0.6 C1.04 0.51, 1.16 0.42, 1.29 0.35 C1.42 0.27, 1.56 0.21, 1.7 0.16 C1.84 0.1, 1.98 0.07, 2.13 0.04 C2.28 0.01, 2.43 0, 2.58 0 C2.73 0, 2.88 0.01, 3.03 0.04 C3.17 0.07, 3.32 0.1, 3.46 0.16 C3.6 0.21, 3.74 0.27, 3.87 0.35 C4 0.42, 4.12 0.51, 4.23 0.6 C4.35 0.7, 4.46 0.81, 4.55 0.92 C4.65 1.04, 4.74 1.16, 4.81 1.29 C4.88 1.42, 4.95 1.56, 5 1.7 C5.05 1.84, 5.09 1.98, 5.12 2.13 C5.14 2.28, 5.15 2.5, 5.16 2.58 C5.16 2.65, 5.16 2.5, 5.16 2.58" stroke="#7950f2" stroke-width="2" fill="none"></path></g><g stroke-linecap="round"><g transform="translate(72.31567376767532 32.496953681725245) rotate(0 10.31017197826128 0)"><path d="M0 0 C6.37 0, 12.75 0, 20.62 0 M0 0 C4.19 0, 8.39 0, 20.62 0" stroke="#7950f2" stroke-width="2" fill="none"></path></g></g><mask></mask><g stroke-linecap="round"><g transform="translate(82.7698044282356 28.904014962028214) rotate(0 0 4.139690263998887)"><path d="M0 0 C0 1.69, 0 3.38, 0 8.28 M0 0 C0 2.1, 0 4.21, 0 8.28" stroke="#7950f2" stroke-width="2" fill="none"></path></g></g><mask></mask><g stroke-linecap="round"><g transform="translate(72.33422662531245 32.583549414357094) rotate(0 0 2.39836745203354)"><path d="M0 0 C0 1.71, 0 3.42, 0 4.8 M0 0 C0 1.73, 0 3.45, 0 4.8" stroke="#7950f2" stroke-width="2" fill="none"></path></g></g><mask></mask><g stroke-linecap="round"><g transform="translate(92.98104208194877 32.54879046577685) rotate(0 0 2.39836745203354)"><path d="M0 0 C0 1.41, 0 2.82, 0 4.8 M0 0 C0 1.88, 0 3.77, 0 4.8" stroke="#7950f2" stroke-width="2" fill="none"></path></g></g><mask></mask><g transform="translate(6 66.18805668649043) rotate(0 71.75 24)"><text x="71.75" y="0" font-family="Virgil, Segoe UI Emoji" font-size="20px" fill="#000000" text-anchor="middle" style="white-space: pre;" direction="ltr" dominant-baseline="text-before-edge">Business data</text><text x="71.75" y="24" font-family="Virgil, Segoe UI Emoji" font-size="20px" fill="#000000" text-anchor="middle" style="white-space: pre;" direction="ltr" dominant-baseline="text-before-edge">catalog</text></g></svg>