<svg version="1.1" xmlns="http://www.w3.org/2000/svg" viewBox="0 0 99.63999938964844 105.20646983519691" width="99.63999938964844" height="105.20646983519691">
  <!-- svg-source:excalidraw -->
  
  <defs>
    
    
  </defs>
  <g transform="translate(6 75.20646983519691) rotate(0 43.81999969482422 12)"><text x="43.81999969482422" y="0" font-family="Virgil, Segoe UI Emoji" font-size="20px" fill="#000000" text-anchor="middle" style="white-space: pre;" direction="ltr" dominant-baseline="text-before-edge">Forecast</text></g><g stroke-linecap="round" transform="translate(17.500265728574277 6) rotate(0 32.319733966249885 32.31973396624994)"><path d="M0 0 C0 0, 0 0, 0 0 M0 0 C0 0, 0 0, 0 0 M0.13 12.04 C3.11 8.62, 6.08 5.2, 10.63 -0.03 M0.13 12.04 C3.79 7.84, 7.44 3.63, 10.63 -0.03 M0.27 24.08 C6.16 17.3, 12.06 10.51, 21.26 -0.07 M0.27 24.08 C8.26 14.88, 16.26 5.68, 21.26 -0.07 M-0.26 36.88 C6.93 28.61, 14.12 20.33, 31.89 -0.1 M-0.26 36.88 C12.41 22.3, 25.08 7.73, 31.89 -0.1 M-0.12 48.92 C16.14 30.21, 32.41 11.5, 42.52 -0.14 M-0.12 48.92 C8.41 39.11, 16.93 29.29, 42.52 -0.14 M0.01 60.96 C17.57 40.75, 35.14 20.55, 53.15 -0.17 M0.01 60.96 C11.96 47.22, 23.9 33.47, 53.15 -0.17 M7.36 64.7 C29.28 39.49, 51.19 14.27, 63.78 -0.21 M7.36 64.7 C25.64 43.66, 43.93 22.63, 63.78 -0.21 M17.99 64.66 C34.19 46.03, 50.39 27.39, 64.57 11.08 M17.99 64.66 C31.88 48.68, 45.78 32.7, 64.57 11.08 M27.96 65.38 C39.39 52.24, 50.81 39.1, 64.7 23.12 M27.96 65.38 C39.3 52.34, 50.64 39.29, 64.7 23.12 M38.59 65.35 C44.48 58.58, 50.36 51.82, 64.84 35.16 M38.59 65.35 C48.9 53.5, 59.2 41.64, 64.84 35.16 M49.22 65.31 C54.14 59.66, 59.06 54, 64.97 47.2 M49.22 65.31 C53.63 60.25, 58.03 55.18, 64.97 47.2 M59.85 65.28 C60.97 63.99, 62.09 62.71, 65.1 59.24 M59.85 65.28 C61.46 63.43, 63.07 61.58, 65.1 59.24 M-0.31 64.37 C-0.31 64.37, -0.31 64.37, -0.31 64.37 M-0.31 64.37 C-0.31 64.37, -0.31 64.37, -0.31 64.37 M12.49 64.9 C7.71 60.74, 2.93 56.59, -0.34 53.74 M12.49 64.9 C7.88 60.89, 3.28 56.89, -0.34 53.74 M24.53 64.76 C15.07 56.54, 5.61 48.32, -0.38 43.11 M24.53 64.76 C16.16 57.48, 7.78 50.2, -0.38 43.11 M36.57 64.63 C26.96 56.27, 17.35 47.92, 0.34 33.14 M36.57 64.63 C26.11 55.54, 15.66 46.45, 0.34 33.14 M48.61 64.5 C36.71 54.15, 24.82 43.81, 0.31 22.51 M48.61 64.5 C37.74 55.05, 26.87 45.59, 0.31 22.51 M60.65 64.36 C45.02 50.77, 29.38 37.18, 0.27 11.88 M60.65 64.36 C39.18 45.7, 17.72 27.04, 0.27 11.88 M65.15 57.67 C39.64 35.5, 14.14 13.33, 0.24 1.25 M65.15 57.67 C45.21 40.34, 25.28 23.01, 0.24 1.25 M65.11 47.04 C52.85 36.38, 40.6 25.73, 10.77 -0.2 M65.11 47.04 C52.11 35.73, 39.1 24.43, 10.77 -0.2 M65.08 36.41 C54.23 26.98, 43.39 17.56, 22.81 -0.33 M65.08 36.41 C54.1 26.86, 43.11 17.32, 22.81 -0.33 M65.04 25.78 C57.74 19.43, 50.43 13.08, 34.85 -0.46 M65.04 25.78 C54.78 16.85, 44.51 7.93, 34.85 -0.46 M65.01 15.15 C61.03 11.7, 57.06 8.24, 47.65 0.06 M65.01 15.15 C59.26 10.15, 53.52 5.16, 47.65 0.06 M64.97 4.52 C63.44 3.19, 61.91 1.86, 59.69 -0.07 M64.97 4.52 C63.5 3.24, 62.03 1.96, 59.69 -0.07" stroke="#7eddd2" stroke-width="1" fill="none"></path><path d="M0 0 C22.66 0, 45.32 0, 64.64 0 M0 0 C16.29 0, 32.58 0, 64.64 0 M64.64 0 C64.64 22.55, 64.64 45.1, 64.64 64.64 M64.64 0 C64.64 24.58, 64.64 49.16, 64.64 64.64 M64.64 64.64 C42.81 64.64, 20.99 64.64, 0 64.64 M64.64 64.64 C46.11 64.64, 27.57 64.64, 0 64.64 M0 64.64 C0 47.2, 0 29.76, 0 0 M0 64.64 C0 48.53, 0 32.42, 0 0" stroke="#000000" stroke-width="2" fill="none"></path></g><g stroke-linecap="round"><g transform="translate(62.48594362741869 16.856109138560896) rotate(0 -14.629080349760955 22.510630916842956)"><path d="M0 0 C-10.34 0.07, -20.67 0.14, -38.58 0.26 M0 0 C-11.38 0.08, -22.77 0.16, -38.58 0.26 M-38.58 0.26 C-38.58 11.85, -38.58 23.44, -38.58 45.02 M-38.58 0.26 C-38.58 10.33, -38.58 20.39, -38.58 45.02 M-38.58 45.02 C-24.38 45.02, -10.19 45.02, 9.32 45.02 M-38.58 45.02 C-20.68 45.02, -2.78 45.02, 9.32 45.02 M9.32 45.02 C9.32 34.48, 9.32 23.93, 9.32 9.8 M9.32 45.02 C9.32 31.96, 9.32 18.9, 9.32 9.8" stroke="#000000" stroke-width="2" fill="none"></path></g></g><mask></mask><g stroke-linecap="round"><g transform="translate(32.91031019653974 38.0579824439601) rotate(0 21.411545102441323 -11.647942741855104)"><path d="M0 0 C1.94 -0.1, 3.88 -0.2, 5.13 -0.26 M0 0 C1.49 -0.08, 2.98 -0.15, 5.13 -0.26 M5.13 -0.26 C5.99 -2.23, 6.85 -4.2, 8.8 -8.64 M5.13 -0.26 C6.47 -3.31, 7.8 -6.36, 8.8 -8.64 M8.8 -8.64 C11.9 -8.64, 15 -8.64, 19.27 -8.64 M8.8 -8.64 C12.9 -8.64, 17 -8.64, 19.27 -8.64 M19.27 -8.64 C20.83 -10.81, 22.39 -12.98, 23.98 -15.18 M19.27 -8.64 C20.77 -10.72, 22.27 -12.81, 23.98 -15.18 M23.98 -15.18 C26.1 -15.18, 28.23 -15.18, 33.4 -15.18 M23.98 -15.18 C27.23 -15.18, 30.47 -15.18, 33.4 -15.18 M33.4 -15.18 C36.37 -17.74, 39.33 -20.29, 42.82 -23.3 M33.4 -15.18 C35.67 -17.13, 37.93 -19.09, 42.82 -23.3" stroke="#000000" stroke-width="2" fill="none"></path></g><g transform="translate(32.91031019653974 38.0579824439601) rotate(0 21.411545102441323 -11.647942741855104)"><path d="M39.78 -17.87 C40.93 -19.92, 42.08 -21.97, 42.82 -23.3 M39.78 -17.87 C40.67 -19.45, 41.55 -21.02, 42.82 -23.3" stroke="#000000" stroke-width="2" fill="none"></path></g><g transform="translate(32.91031019653974 38.0579824439601) rotate(0 21.411545102441323 -11.647942741855104)"><path d="M37.01 -21.09 C39.21 -21.93, 41.41 -22.76, 42.82 -23.3 M37.01 -21.09 C38.7 -21.73, 40.38 -22.37, 42.82 -23.3" stroke="#000000" stroke-width="2" fill="none"></path></g></g><mask></mask><g stroke-linecap="round" transform="translate(29.434793056092303 42.50775832287036) rotate(0 3.9262728343330764 7.459918385232868)"><path d="M0 0 C3.08 0, 6.16 0, 7.85 0 M0 0 C2.61 0, 5.22 0, 7.85 0 M7.85 0 C7.85 5.96, 7.85 11.93, 7.85 14.92 M7.85 0 C7.85 4.08, 7.85 8.17, 7.85 14.92 M7.85 14.92 C6.19 14.92, 4.52 14.92, 0 14.92 M7.85 14.92 C6.24 14.92, 4.62 14.92, 0 14.92 M0 14.92 C0 11.44, 0 7.96, 0 0 M0 14.92 C0 11.08, 0 7.25, 0 0" stroke="#000000" stroke-width="2" fill="none"></path></g><g stroke-linecap="round" transform="translate(43.42279344864687 34.91696417649291) rotate(0 3.9262728343330764 11.255315458421364)"><path d="M0 0 C2.08 0, 4.16 0, 7.85 0 M0 0 C3.08 0, 6.17 0, 7.85 0 M7.85 0 C7.85 7.96, 7.85 15.92, 7.85 22.51 M7.85 0 C7.85 7.22, 7.85 14.45, 7.85 22.51 M7.85 22.51 C5.26 22.51, 2.66 22.51, 0 22.51 M7.85 22.51 C5.58 22.51, 3.3 22.51, 0 22.51 M0 22.51 C0 15.33, 0 8.15, 0 0 M0 22.51 C0 14.07, 0 5.62, 0 0" stroke="#000000" stroke-width="2" fill="none"></path></g><g stroke-linecap="round" transform="translate(57.41079384120144 26.802666985538053) rotate(0 4.057148595477486 15.312464053898793)"><path d="M0 0 C3.13 0, 6.26 0, 8.11 0 M0 0 C2.25 0, 4.5 0, 8.11 0 M8.11 0 C8.11 8.16, 8.11 16.32, 8.11 30.62 M8.11 0 C8.11 6.87, 8.11 13.74, 8.11 30.62 M8.11 30.62 C5.34 30.62, 2.56 30.62, 0 30.62 M8.11 30.62 C5.82 30.62, 3.52 30.62, 0 30.62 M0 30.62 C0 23.25, 0 15.88, 0 0 M0 30.62 C0 20.12, 0 9.61, 0 0" stroke="#000000" stroke-width="2" fill="none"></path></g></svg>