<svg xmlns="http://www.w3.org/2000/svg" viewBox="539.06 2493.89 146.76 105.32" width="147" height="105"><rect x="580.12" y="2499.89" width="64.64" height="64.64" rx="0" stroke="#000000" stroke-width="2" opacity="1.0" fill="none"/><polyline points="623.53,2511.44 628.52,2514.54 628.52,2521.71 633.73,2524.80 633.89,2534.89 629.00,2537.34 629.00,2544.66 618.42,2551.01 612.89,2547.59 607.02,2551.01 596.93,2544.50 596.93,2537.83 591.88,2534.73 591.88,2524.64" fill="none" stroke="#232f3e" stroke-width="2" opacity="1.0" stroke-linecap="round" stroke-linejoin="round" transform="rotate(180.00 644.53 2531.23)"/><polyline points="612.33,2514.68 612.33,2525.10 617.70,2528.52" fill="none" stroke="#232f3e" stroke-width="2" opacity="1.0" stroke-linecap="round" stroke-linejoin="round"/><polyline points="596.86,2524.61 601.75,2528.03 606.96,2524.45 606.96,2518.92" fill="none" stroke="#232f3e" stroke-width="2" opacity="1.0" stroke-linecap="round" stroke-linejoin="round"/><polyline points="602.40,2514.34 602.40,2521.34" fill="none" stroke="#232f3e" stroke-width="2" opacity="1.0" stroke-linecap="round" stroke-linejoin="round"/><polyline points="601.75,2527.71 601.58,2532.75 597.19,2535.68" fill="none" stroke="#232f3e" stroke-width="2" opacity="1.0" stroke-linecap="round" stroke-linejoin="round"/><polyline points="633.49,2537.14 627.96,2534.21" fill="none" stroke="#232f3e" stroke-width="2" opacity="1.0" stroke-linecap="round" stroke-linejoin="round"/><polyline points="591.98,2532.27 595.56,2530.31" fill="none" stroke="#232f3e" stroke-width="2" opacity="1.0" stroke-linecap="round" stroke-linejoin="round"/><ellipse cx="622.99" cy="2521.11" rx="1.71" ry="1.71" stroke="#232f3e" stroke-width="2" opacity="1.0" fill="none"/><ellipse cx="619.65" cy="2529.17" rx="1.71" ry="1.71" stroke="#232f3e" stroke-width="2" opacity="1.0" fill="none"/><ellipse cx="626.17" cy="2532.91" rx="1.71" ry="1.71" stroke="#232f3e" stroke-width="2" opacity="1.0" fill="none"/><polyline points="624.86,2520.87 627.79,2520.87" fill="none" stroke="#232f3e" stroke-width="2" opacity="1.0" stroke-linecap="round" stroke-linejoin="round"/><polyline points="601.50,2532.56 605.75,2535.29" fill="none" stroke="#000000" stroke-width="2" opacity="1.0" stroke-linecap="round" stroke-linejoin="round"/><polyline points="622.99,2551.15 628.77,2547.97 628.19,2540.45 633.68,2537.56" fill="none" stroke="#000000" stroke-width="2" opacity="1.0" stroke-linecap="round" stroke-linejoin="round"/><polyline points="605.36,2553.46 605.36,2539.58 612.58,2534.09 619.81,2539.87 619.81,2553.75 605.36,2553.46" fill="none" stroke="#000000" stroke-width="2" opacity="1.0" stroke-linecap="round" stroke-linejoin="round"/><ellipse cx="612.58" cy="2539.87" rx="1.73" ry="1.73" stroke="#000000" stroke-width="2" opacity="1.0" fill="none"/><rect x="607.67" y="2543.63" width="10.12" height="6.94" rx="0" stroke="#000000" stroke-width="2" opacity="1.0" fill="none"/><polyline points="609.11,2547.39 616.05,2547.39" fill="none" stroke="#000000" stroke-width="2" opacity="1.0" stroke-linecap="round" stroke-linejoin="round"/><text x="545.06" y="2589.21" font-size="20" fill="#000000" opacity="1.0" font-family="sans-serif">Ground Truth</text></svg>