<svg version="1.1" xmlns="http://www.w3.org/2000/svg" viewBox="0 0 110.63999938964844 128.60849282287018" width="110.63999938964844" height="128.60849282287018">
  <!-- svg-source:excalidraw -->
  
  <defs>
    
    
  </defs>
  <g transform="translate(6 74.60849282287018) rotate(0 49.31999969482422 24)"><text x="49.31999969482422" y="0" font-family="Virgil, Segoe UI Emoji" font-size="20px" fill="#000000" text-anchor="middle" style="white-space: pre;" direction="ltr" dominant-baseline="text-before-edge">Managed</text><text x="49.31999969482422" y="24" font-family="Virgil, Segoe UI Emoji" font-size="20px" fill="#000000" text-anchor="middle" style="white-space: pre;" direction="ltr" dominant-baseline="text-before-edge">Blockchain</text></g><g stroke-linecap="round" transform="translate(22.779579162597656 6) rotate(0 32.540420532226506 32.54042053222656)"><path d="M0 0 C0 0, 0 0, 0 0 M0 0 C0 0, 0 0, 0 0 M0.13 12.04 C4.18 7.38, 8.23 2.72, 10.63 -0.03 M0.13 12.04 C3.62 8.03, 7.1 4.02, 10.63 -0.03 M0.27 24.08 C4.9 18.75, 9.53 13.42, 21.26 -0.07 M0.27 24.08 C7.1 16.22, 13.93 8.36, 21.26 -0.07 M-0.26 36.88 C9.72 25.4, 19.7 13.92, 31.89 -0.1 M-0.26 36.88 C8.32 27.01, 16.89 17.15, 31.89 -0.1 M-0.12 48.92 C15.83 30.56, 31.79 12.21, 42.52 -0.14 M-0.12 48.92 C13.96 32.72, 28.03 16.53, 42.52 -0.14 M0.01 60.96 C19.71 38.29, 39.42 15.62, 53.15 -0.17 M0.01 60.96 C19.81 38.19, 39.6 15.42, 53.15 -0.17 M6.7 65.45 C24.08 45.46, 41.46 25.47, 63.78 -0.21 M6.7 65.45 C19.66 50.55, 32.62 35.64, 63.78 -0.21 M17.33 65.42 C28.56 52.51, 39.78 39.59, 65.88 9.57 M17.33 65.42 C36.61 43.25, 55.88 21.08, 65.88 9.57 M27.96 65.38 C38.04 53.79, 48.12 42.19, 66.02 21.61 M27.96 65.38 C41.26 50.08, 54.57 34.78, 66.02 21.61 M38.59 65.35 C48.92 53.47, 59.24 41.6, 65.49 34.41 M38.59 65.35 C44.23 58.86, 49.87 52.38, 65.49 34.41 M49.22 65.31 C53.1 60.85, 56.99 56.39, 65.63 46.45 M49.22 65.31 C53.38 60.54, 57.53 55.76, 65.63 46.45 M59.85 65.28 C61.91 62.91, 63.97 60.54, 65.76 58.49 M59.85 65.28 C61.05 63.91, 62.24 62.54, 65.76 58.49 M0.23 65.28 C0.23 65.28, 0.23 65.28, 0.23 65.28 M0.23 65.28 C0.23 65.28, 0.23 65.28, 0.23 65.28 M12.27 65.15 C8.95 62.26, 5.63 59.37, 0.19 54.65 M12.27 65.15 C8.81 62.14, 5.35 59.13, 0.19 54.65 M24.31 65.01 C15.13 57.04, 5.96 49.06, 0.16 44.02 M24.31 65.01 C16.22 57.98, 8.13 50.95, 0.16 44.02 M36.35 64.88 C24.08 54.21, 11.8 43.54, 0.13 33.39 M36.35 64.88 C25.5 55.45, 14.65 46.02, 0.13 33.39 M49.15 65.4 C31.74 50.28, 14.34 35.15, 0.09 22.76 M49.15 65.4 C32.8 51.19, 16.45 36.98, 0.09 22.76 M61.19 65.27 C40.1 46.94, 19.01 28.6, 0.06 12.13 M61.19 65.27 C36.91 44.16, 12.63 23.06, 0.06 12.13 M64.93 57.92 C42.38 38.32, 19.84 18.72, 0.02 1.5 M64.93 57.92 C42 37.99, 19.08 18.07, 0.02 1.5 M65.65 47.95 C47.42 32.1, 29.19 16.26, 9.8 -0.6 M65.65 47.95 C51.21 35.39, 36.77 22.84, 9.8 -0.6 M65.61 37.32 C48.99 22.87, 32.37 8.42, 21.84 -0.74 M65.61 37.32 C54.26 27.45, 42.91 17.58, 21.84 -0.74 M65.58 26.69 C54.67 17.21, 43.77 7.73, 33.88 -0.87 M65.58 26.69 C56.56 18.85, 47.55 11.02, 33.88 -0.87 M65.54 16.06 C61.74 12.75, 57.93 9.44, 46.68 -0.35 M65.54 16.06 C59.16 10.5, 52.77 4.95, 46.68 -0.35 M65.51 5.43 C63.56 3.73, 61.61 2.04, 58.72 -0.48 M65.51 5.43 C62.81 3.08, 60.11 0.73, 58.72 -0.48" stroke="#fd7e1488" stroke-width="1" fill="none"></path><path d="M0 0 C13.78 0, 27.56 0, 65.08 0 M0 0 C16.72 0, 33.45 0, 65.08 0 M65.08 0 C65.08 14.85, 65.08 29.71, 65.08 65.08 M65.08 0 C65.08 25.7, 65.08 51.41, 65.08 65.08 M65.08 65.08 C47.36 65.08, 29.63 65.08, 0 65.08 M65.08 65.08 C41.15 65.08, 17.22 65.08, 0 65.08 M0 65.08 C0 41.59, 0 18.09, 0 0 M0 65.08 C0 42.77, 0 20.47, 0 0" stroke="#000000" stroke-width="2" fill="none"></path></g><g stroke-linecap="round" transform="translate(31.253401916712846 35.93394708595042) rotate(0 2.884315044290304 2.8843150442903607)"><path d="M0 0 C1.55 0, 3.1 0, 5.77 0 M0 0 C2.18 0, 4.35 0, 5.77 0 M5.77 0 C5.77 1.65, 5.77 3.3, 5.77 5.77 M5.77 0 C5.77 1.57, 5.77 3.14, 5.77 5.77 M5.77 5.77 C3.91 5.77, 2.06 5.77, 0 5.77 M5.77 5.77 C4.61 5.77, 3.45 5.77, 0 5.77 M0 5.77 C0 3.88, 0 2, 0 0 M0 5.77 C0 4.37, 0 2.96, 0 0" stroke="#1e1e1e" stroke-width="2" fill="none"></path></g><g stroke-linecap="round" transform="translate(46.173296936471615 35.80830738417353) rotate(0 2.884315044290304 2.8843150442903607)"><path d="M0 0 C1.67 0, 3.33 0, 5.77 0 M0 0 C2.16 0, 4.33 0, 5.77 0 M5.77 0 C5.77 1.38, 5.77 2.76, 5.77 5.77 M5.77 0 C5.77 2.07, 5.77 4.15, 5.77 5.77 M5.77 5.77 C4.5 5.77, 3.23 5.77, 0 5.77 M5.77 5.77 C4.2 5.77, 2.63 5.77, 0 5.77 M0 5.77 C0 3.59, 0 1.4, 0 0 M0 5.77 C0 4.14, 0 2.52, 0 0" stroke="#1e1e1e" stroke-width="2" fill="none"></path></g><g stroke-linecap="round" transform="translate(61.4950081386645 35.496929654998894) rotate(0 2.884315044290304 2.8843150442903607)"><path d="M0 0 C1.93 0, 3.85 0, 5.77 0 M0 0 C1.21 0, 2.43 0, 5.77 0 M5.77 0 C5.77 1.38, 5.77 2.76, 5.77 5.77 M5.77 0 C5.77 2.18, 5.77 4.35, 5.77 5.77 M5.77 5.77 C4.54 5.77, 3.31 5.77, 0 5.77 M5.77 5.77 C3.92 5.77, 2.07 5.77, 0 5.77 M0 5.77 C0 4.1, 0 2.44, 0 0 M0 5.77 C0 3.88, 0 1.99, 0 0" stroke="#1e1e1e" stroke-width="2" fill="none"></path></g><g stroke-linecap="round"><g transform="translate(81.3355995039334 41.57147194524623) rotate(0 -26.526958058850624 -3.015420273576183)"><path d="M0 0 C-3.97 0, -7.94 0, -11.28 0 M0 0 C-4.27 0, -8.54 0, -11.28 0 M-11.28 0 C-11.28 0.72, -11.28 1.44, -11.28 2.88 M-11.28 0 C-11.28 0.61, -11.28 1.23, -11.28 2.88 M-11.28 2.88 C-14.73 2.88, -18.18 2.88, -23.25 2.88 M-11.28 2.88 C-13.76 2.88, -16.25 2.88, -23.25 2.88 M-23.25 2.88 C-23.25 2.03, -23.25 1.18, -23.25 -0.87 M-23.25 2.88 C-23.25 1.67, -23.25 0.46, -23.25 -0.87 M-23.25 -0.87 C-24.49 -0.87, -25.73 -0.87, -26.45 -0.87 M-23.25 -0.87 C-24.46 -0.87, -25.67 -0.87, -26.45 -0.87 M-26.45 -0.87 C-26.45 0.45, -26.45 1.77, -26.45 2.85 M-26.45 -0.87 C-26.45 0.12, -26.45 1.12, -26.45 2.85 M-26.45 2.85 C-29.56 2.86, -32.68 2.87, -38.54 2.88 M-26.45 2.85 C-30.8 2.86, -35.16 2.87, -38.54 2.88 M-38.54 2.88 C-38.54 1.8, -38.54 0.72, -38.54 -1.05 M-38.54 2.88 C-38.54 1.67, -38.54 0.46, -38.54 -1.05 M-38.54 -1.05 C-39.45 -1.05, -40.36 -1.05, -41.34 -1.05 M-38.54 -1.05 C-39.25 -1.05, -39.96 -1.05, -41.34 -1.05 M-41.34 -1.05 C-41.34 0.31, -41.34 1.66, -41.34 2.8 M-41.34 -1.05 C-41.34 -0.16, -41.34 0.72, -41.34 2.8 M-41.34 2.8 C-44.1 2.8, -46.86 2.8, -53.05 2.8 M-41.34 2.8 C-45.81 2.8, -50.27 2.8, -53.05 2.8 M-53.05 2.8 C-53.05 -0.37, -53.05 -3.53, -53.05 -8.92 M-53.05 2.8 C-53.05 -1.32, -53.05 -5.44, -53.05 -8.92 M-53.05 -8.92 C-49.93 -8.92, -46.81 -8.92, -41.25 -8.92 M-53.05 -8.92 C-49.49 -8.92, -45.93 -8.92, -41.25 -8.92 M-41.25 -8.92 C-41.25 -7.66, -41.25 -6.4, -41.25 -3.58 M-41.25 -8.92 C-41.25 -7.24, -41.25 -5.56, -41.25 -3.58 M-41.25 -3.58 C-40.43 -3.58, -39.61 -3.58, -38.54 -3.58 M-41.25 -3.58 C-40.18 -3.58, -39.1 -3.58, -38.54 -3.58 M-38.54 -3.58 C-38.54 -5.61, -38.54 -7.63, -38.54 -8.92 M-38.54 -3.58 C-38.54 -5.14, -38.54 -6.69, -38.54 -8.92 M-38.54 -8.92 C-35.31 -8.92, -32.07 -8.92, -26.41 -8.92 M-38.54 -8.92 C-35.17 -8.92, -31.8 -8.92, -26.41 -8.92 M-26.41 -8.92 C-26.41 -7.08, -26.41 -5.25, -26.41 -3.69 M-26.41 -8.92 C-26.41 -6.92, -26.41 -4.92, -26.41 -3.69 M-26.41 -3.69 C-25.54 -3.68, -24.67 -3.68, -23.42 -3.67 M-26.41 -3.69 C-25.26 -3.68, -24.12 -3.68, -23.42 -3.67 M-23.42 -3.67 C-23.42 -5.36, -23.42 -7.04, -23.42 -8.92 M-23.42 -3.67 C-23.42 -4.8, -23.42 -5.93, -23.42 -8.92 M-23.42 -8.92 C-19.26 -8.92, -15.09 -8.92, -11.01 -8.92 M-23.42 -8.92 C-18.71 -8.92, -13.99 -8.92, -11.01 -8.92 M-11.01 -8.92 C-11.01 -7.8, -11.01 -6.68, -11.01 -6.03 M-11.01 -8.92 C-11.01 -7.91, -11.01 -6.91, -11.01 -6.03 M-11.01 -6.03 C-8.52 -6.03, -6.02 -6.03, -4.46 -6.03 M-11.01 -6.03 C-8.63 -6.03, -6.24 -6.03, -4.46 -6.03" stroke="#1e1e1e" stroke-width="2" fill="none"></path></g></g><mask></mask><g stroke-linecap="round"><g transform="translate(75.32870488641026 33.654503850056244) rotate(0 0.9257563330631626 1.8333605811640155)"><path d="M0 0 C0.42 0.42, 0.84 0.84, 1.85 1.85 M0 0 C0.39 0.39, 0.79 0.79, 1.85 1.85 M1.85 1.85 C1.17 2.53, 0.5 3.21, 0.04 3.67 M1.85 1.85 C1.47 2.23, 1.09 2.61, 0.04 3.67" stroke="#1e1e1e" stroke-width="2" fill="none"></path></g></g><mask></mask><g stroke-linecap="round"><g transform="translate(80.50680333728997 39.71288320557778) rotate(0 0.9257563330631626 1.8333605811640155)"><path d="M0 0 C0.56 0.56, 1.12 1.12, 1.85 1.85 M0 0 C0.42 0.42, 0.84 0.84, 1.85 1.85 M1.85 1.85 C1.37 2.33, 0.9 2.81, 0.04 3.67 M1.85 1.85 C1.44 2.26, 1.04 2.66, 0.04 3.67" stroke="#1e1e1e" stroke-width="2" fill="none"></path></g></g><mask></mask><g stroke-linecap="round"><g transform="translate(34.390089736647155 30.370471010448455) rotate(0 14.362504543794188 -3.956698648724341)"><path d="M0 0 C0.48 -0.53, 1.79 -2.24, 2.87 -3.18 C3.95 -4.11, 5.31 -4.94, 6.48 -5.61 C7.65 -6.27, 8.6 -6.78, 9.91 -7.17 C11.22 -7.55, 12.8 -7.87, 14.33 -7.91 C15.86 -7.95, 17.62 -7.79, 19.07 -7.41 C20.51 -7.04, 21.85 -6.35, 22.99 -5.67 C24.13 -5, 24.97 -4.23, 25.92 -3.36 C26.88 -2.5, 28.26 -0.98, 28.73 -0.5 M0 0 C0.48 -0.53, 1.79 -2.24, 2.87 -3.18 C3.95 -4.11, 5.31 -4.94, 6.48 -5.61 C7.65 -6.27, 8.6 -6.78, 9.91 -7.17 C11.22 -7.55, 12.8 -7.87, 14.33 -7.91 C15.86 -7.95, 17.62 -7.79, 19.07 -7.41 C20.51 -7.04, 21.85 -6.35, 22.99 -5.67 C24.13 -5, 24.97 -4.23, 25.92 -3.36 C26.88 -2.5, 28.26 -0.98, 28.73 -0.5" stroke="#1e1e1e" stroke-width="2" fill="none"></path></g></g><mask></mask><g stroke-linecap="round"><g transform="translate(34.28246907165351 46.71037005400558) rotate(0 14.362504543794188 3.956698648724341)"><path d="M0 0 C0.48 0.53, 1.79 2.24, 2.87 3.18 C3.95 4.11, 5.31 4.94, 6.48 5.61 C7.65 6.27, 8.6 6.78, 9.91 7.17 C11.22 7.55, 12.8 7.87, 14.33 7.91 C15.86 7.95, 17.62 7.79, 19.07 7.41 C20.51 7.04, 21.85 6.35, 22.99 5.67 C24.13 5, 24.97 4.23, 25.92 3.36 C26.88 2.5, 28.26 0.98, 28.73 0.5 M0 0 C0.48 0.53, 1.79 2.24, 2.87 3.18 C3.95 4.11, 5.31 4.94, 6.48 5.61 C7.65 6.27, 8.6 6.78, 9.91 7.17 C11.22 7.55, 12.8 7.87, 14.33 7.91 C15.86 7.95, 17.62 7.79, 19.07 7.41 C20.51 7.04, 21.85 6.35, 22.99 5.67 C24.13 5, 24.97 4.23, 25.92 3.36 C26.88 2.5, 28.26 0.98, 28.73 0.5" stroke="#1e1e1e" stroke-width="2" fill="none"></path></g></g><mask></mask></svg>