<svg version="1.1" xmlns="http://www.w3.org/2000/svg" viewBox="0 0 102.25999450683594 104.9452905270955" width="102.25999450683594" height="104.9452905270955">
  <!-- svg-source:excalidraw -->
  
  <defs>
    
    
  </defs>
  <g transform="translate(6 74.9452905270955) rotate(0 45.12999725341797 12)"><text x="0" y="0" font-family="Virgil, Segoe UI Emoji" font-size="20px" fill="#000000" text-anchor="start" style="white-space: pre;" direction="ltr" dominant-baseline="text-before-edge">AppConfig</text></g><g stroke-linecap="round" transform="translate(18.899421070939297 6) rotate(0 32.230576182478444 32.19971236713013)"><path d="M0 0 C0 0, 0 0, 0 0 M0 0 C0 0, 0 0, 0 0 M0.13 12.04 C2.37 9.47, 4.61 6.89, 10.63 -0.03 M0.13 12.04 C2.26 9.6, 4.38 7.15, 10.63 -0.03 M0.27 24.08 C7.07 16.25, 13.88 8.42, 21.26 -0.07 M0.27 24.08 C7.92 15.28, 15.58 6.47, 21.26 -0.07 M-0.26 36.88 C6.92 28.62, 14.09 20.37, 31.89 -0.1 M-0.26 36.88 C8.04 27.33, 16.34 17.78, 31.89 -0.1 M-0.12 48.92 C14.38 32.23, 28.89 15.54, 42.52 -0.14 M-0.12 48.92 C10.99 36.13, 22.1 23.35, 42.52 -0.14 M0.01 60.96 C20.28 37.64, 40.54 14.33, 53.15 -0.17 M0.01 60.96 C12.13 47.02, 24.24 33.08, 53.15 -0.17 M7.36 64.7 C26.82 42.31, 46.28 19.92, 63.78 -0.21 M7.36 64.7 C20.29 49.82, 33.23 34.94, 63.78 -0.21 M17.99 64.66 C29 51.99, 40.02 39.33, 64.57 11.08 M17.99 64.66 C35.7 44.29, 53.41 23.91, 64.57 11.08 M28.62 64.63 C38.89 52.81, 49.16 41, 64.7 23.12 M28.62 64.63 C42.28 48.91, 55.94 33.2, 64.7 23.12 M39.25 64.59 C45.83 57.02, 52.41 49.45, 64.84 35.16 M39.25 64.59 C47.89 54.65, 56.53 44.71, 64.84 35.16 M49.88 64.56 C54.04 59.77, 58.21 54.98, 64.97 47.2 M49.88 64.56 C54.73 58.98, 59.58 53.4, 64.97 47.2 M60.51 64.53 C61.82 63.02, 63.13 61.51, 64.45 60 M60.51 64.53 C62 62.81, 63.49 61.1, 64.45 60 M-0.19 64.24 C-0.19 64.24, -0.19 64.24, -0.19 64.24 M-0.19 64.24 C-0.19 64.24, -0.19 64.24, -0.19 64.24 M11.85 64.1 C8.56 61.24, 5.26 58.37, -0.22 53.61 M11.85 64.1 C7.82 60.6, 3.79 57.09, -0.22 53.61 M24.65 64.63 C16.41 57.46, 8.17 50.3, -0.26 42.98 M24.65 64.63 C15.62 56.78, 6.6 48.94, -0.26 42.98 M36.69 64.49 C25.33 54.62, 13.97 44.74, -0.29 32.35 M36.69 64.49 C25.9 55.12, 15.12 45.74, -0.29 32.35 M48.73 64.36 C30.14 48.2, 11.56 32.05, -0.33 21.72 M48.73 64.36 C33.56 51.17, 18.39 37.99, -0.33 21.72 M60.77 64.23 C37.18 43.72, 13.59 23.22, -0.36 11.09 M60.77 64.23 C42.84 48.64, 24.91 33.05, -0.36 11.09 M65.26 57.53 C49.18 43.55, 33.1 29.57, 0.36 1.11 M65.26 57.53 C42.7 37.92, 20.14 18.31, 0.36 1.11 M65.23 46.9 C50.06 33.71, 34.88 20.52, 10.89 -0.33 M65.23 46.9 C52.45 35.79, 39.66 24.68, 10.89 -0.33 M65.2 36.27 C56.51 28.72, 47.82 21.17, 22.93 -0.47 M65.2 36.27 C51.94 24.75, 38.68 13.23, 22.93 -0.47 M65.16 25.64 C56.76 18.34, 48.37 11.04, 34.97 -0.6 M65.16 25.64 C54.04 15.97, 42.91 6.3, 34.97 -0.6 M65.13 15.01 C60.08 10.63, 55.04 6.24, 47.77 -0.08 M65.13 15.01 C59.08 9.76, 53.04 4.5, 47.77 -0.08 M65.09 4.38 C63.54 3.03, 61.99 1.68, 59.81 -0.21 M65.09 4.38 C62.99 2.55, 60.88 0.72, 59.81 -0.21" stroke="#e6498088" stroke-width="1" fill="none"></path><path d="M0 0 C12.99 0, 25.98 0, 64.46 0 M0 0 C19.48 0, 38.96 0, 64.46 0 M64.46 0 C64.46 15.82, 64.46 31.64, 64.46 64.4 M64.46 0 C64.46 21.5, 64.46 43, 64.46 64.4 M64.46 64.4 C43.49 64.4, 22.52 64.4, 0 64.4 M64.46 64.4 C46.3 64.4, 28.13 64.4, 0 64.4 M0 64.4 C0 50.01, 0 35.62, 0 0 M0 64.4 C0 48.48, 0 32.55, 0 0" stroke="#000000" stroke-width="2" fill="none"></path></g><g stroke-linecap="round"><g transform="translate(48.232842113045535 58.57556160149761) rotate(355.72612791990224 5.320109443527826 -22.04794694799773)"><path d="M0 0 C1.5 0.04, 7.54 0.99, 9.01 0.23 C10.48 -0.52, 7.96 -3.25, 8.82 -4.54 C9.67 -5.83, 12.54 -7.56, 14.14 -7.53 C15.73 -7.5, 16.67 -3.66, 18.4 -4.36 C20.13 -5.06, 24.19 -10.01, 24.52 -11.74 C24.85 -13.47, 20.87 -13.44, 20.38 -14.74 C19.89 -16.04, 20.52 -18.75, 21.55 -19.55 C22.59 -20.35, 25.74 -18.1, 26.58 -19.53 C27.42 -20.97, 27.39 -26.72, 26.59 -28.15 C25.79 -29.59, 22.92 -27.57, 21.79 -28.14 C20.65 -28.71, 19.58 -30.25, 19.78 -31.56 C19.98 -32.86, 23.46 -34.31, 22.98 -35.96 C22.5 -37.61, 18.49 -41.17, 16.92 -41.47 C15.34 -41.77, 14.73 -38.1, 13.52 -37.76 C12.32 -37.43, 10.29 -38.38, 9.7 -39.45 C9.1 -40.51, 11.29 -43.35, 9.96 -44.16 C8.64 -44.98, 3.15 -45.05, 1.76 -44.33 C0.37 -43.61, 2.2 -40.88, 1.61 -39.83 C1.03 -38.78, -0.5 -37.69, -1.73 -38.01 C-2.96 -38.33, -4.07 -42.16, -5.78 -41.74 C-7.49 -41.32, -11.53 -37.03, -11.99 -35.52 C-12.46 -34, -8.79 -33.8, -8.55 -32.65 C-8.31 -31.49, -9.47 -29.3, -10.55 -28.57 C-11.63 -27.85, -14.12 -29.85, -15.02 -28.32 C-15.92 -26.78, -15.8 -20.85, -15.95 -19.36 M0 0 C1.5 0.04, 7.54 0.99, 9.01 0.23 C10.48 -0.52, 7.96 -3.25, 8.82 -4.54 C9.67 -5.83, 12.54 -7.56, 14.14 -7.53 C15.73 -7.5, 16.67 -3.66, 18.4 -4.36 C20.13 -5.06, 24.19 -10.01, 24.52 -11.74 C24.85 -13.47, 20.87 -13.44, 20.38 -14.74 C19.89 -16.04, 20.52 -18.75, 21.55 -19.55 C22.59 -20.35, 25.74 -18.1, 26.58 -19.53 C27.42 -20.97, 27.39 -26.72, 26.59 -28.15 C25.79 -29.59, 22.92 -27.57, 21.79 -28.14 C20.65 -28.71, 19.58 -30.25, 19.78 -31.56 C19.98 -32.86, 23.46 -34.31, 22.98 -35.96 C22.5 -37.61, 18.49 -41.17, 16.92 -41.47 C15.34 -41.77, 14.73 -38.1, 13.52 -37.76 C12.32 -37.43, 10.29 -38.38, 9.7 -39.45 C9.1 -40.51, 11.29 -43.35, 9.96 -44.16 C8.64 -44.98, 3.15 -45.05, 1.76 -44.33 C0.37 -43.61, 2.2 -40.88, 1.61 -39.83 C1.03 -38.78, -0.5 -37.69, -1.73 -38.01 C-2.96 -38.33, -4.07 -42.16, -5.78 -41.74 C-7.49 -41.32, -11.53 -37.03, -11.99 -35.52 C-12.46 -34, -8.79 -33.8, -8.55 -32.65 C-8.31 -31.49, -9.47 -29.3, -10.55 -28.57 C-11.63 -27.85, -14.12 -29.85, -15.02 -28.32 C-15.92 -26.78, -15.8 -20.85, -15.95 -19.36" stroke="#000000" stroke-width="2" fill="none"></path></g></g><mask></mask><g stroke-linecap="round" transform="translate(45.73915695600317 28.74112311402132) rotate(13.392222848581213 7.8633773667236255 7.8633773667236255)"><path d="M15.73 7.86 C15.73 8.32, 15.69 8.78, 15.61 9.23 C15.53 9.68, 15.41 10.13, 15.25 10.55 C15.1 10.98, 14.9 11.4, 14.67 11.8 C14.45 12.19, 14.18 12.57, 13.89 12.92 C13.59 13.27, 13.27 13.59, 12.92 13.89 C12.57 14.18, 12.19 14.45, 11.8 14.67 C11.4 14.9, 10.98 15.1, 10.55 15.25 C10.13 15.41, 9.68 15.53, 9.23 15.61 C8.78 15.69, 8.32 15.73, 7.86 15.73 C7.41 15.73, 6.95 15.69, 6.5 15.61 C6.05 15.53, 5.6 15.41, 5.17 15.25 C4.75 15.1, 4.33 14.9, 3.93 14.67 C3.54 14.45, 3.16 14.18, 2.81 13.89 C2.46 13.59, 2.13 13.27, 1.84 12.92 C1.55 12.57, 1.28 12.19, 1.05 11.8 C0.83 11.4, 0.63 10.98, 0.47 10.55 C0.32 10.13, 0.2 9.68, 0.12 9.23 C0.04 8.78, 0 8.32, 0 7.86 C0 7.41, 0.04 6.95, 0.12 6.5 C0.2 6.05, 0.32 5.6, 0.47 5.17 C0.63 4.75, 0.83 4.33, 1.05 3.93 C1.28 3.54, 1.55 3.16, 1.84 2.81 C2.13 2.46, 2.46 2.13, 2.81 1.84 C3.16 1.55, 3.54 1.28, 3.93 1.05 C4.33 0.83, 4.75 0.63, 5.17 0.47 C5.6 0.32, 6.05 0.2, 6.5 0.12 C6.95 0.04, 7.41 0, 7.86 0 C8.32 0, 8.78 0.04, 9.23 0.12 C9.68 0.2, 10.13 0.32, 10.55 0.47 C10.98 0.63, 11.4 0.83, 11.8 1.05 C12.19 1.28, 12.57 1.55, 12.92 1.84 C13.27 2.13, 13.59 2.46, 13.89 2.81 C14.18 3.16, 14.45 3.54, 14.67 3.93 C14.9 4.33, 15.1 4.75, 15.25 5.17 C15.41 5.6, 15.53 6.05, 15.61 6.5 C15.69 6.95, 15.71 7.64, 15.73 7.86 C15.75 8.09, 15.75 7.64, 15.73 7.86" stroke="#000000" stroke-width="2" fill="none"></path></g><g stroke-linecap="round"><g transform="translate(27.486909663805363 52.929223115892455) rotate(0 4.584417708983665 -4.3147460790434025)"><path d="M0 0 C2.54 -2.39, 5.08 -4.78, 9.17 -8.63 M0 0 C2.96 -2.78, 5.91 -5.56, 9.17 -8.63" stroke="#000000" stroke-width="2" fill="none"></path></g></g><mask></mask><g stroke-linecap="round"><g transform="translate(26.947566403925066 62.63740179374145) rotate(0 8.359820528146656 -8.359820528146656)"><path d="M0 0 C5.92 -5.92, 11.83 -11.83, 16.72 -16.72 M0 0 C4.62 -4.62, 9.25 -9.25, 16.72 -16.72" stroke="#000000" stroke-width="2" fill="none"></path></g></g><mask></mask><g stroke-linecap="round"><g transform="translate(36.386073451832544 62.09805853386206) rotate(0 5.393432598804338 -5.123760968864076)"><path d="M0 0 C2.39 -2.27, 4.78 -4.54, 10.79 -10.25 M0 0 C3.85 -3.66, 7.7 -7.31, 10.79 -10.25" stroke="#000000" stroke-width="2" fill="none"></path></g></g><mask></mask></svg>