<svg version="1.1" xmlns="http://www.w3.org/2000/svg" viewBox="0 0 120.10000610351562 105.5362375311779" width="120.10000610351562" height="105.5362375311779">
  <!-- svg-source:excalidraw -->
  
  <defs>
    
    
  </defs>
  <g transform="translate(6 75.5362375311779) rotate(0 54.05000305175781 12)"><text x="54.05000305175781" y="0" font-family="Virgil, Segoe UI Emoji" font-size="20px" fill="#000000" text-anchor="middle" style="white-space: pre;" direction="ltr" dominant-baseline="text-before-edge">GuardDuty</text></g><g stroke-linecap="round" transform="translate(27.819426869279596 6) rotate(0 32.230576182478444 32.19971236713013)"><path d="M0 0 C0 0, 0 0, 0 0 M0 0 C0 0, 0 0, 0 0 M0.13 12.04 C3.05 8.69, 5.97 5.33, 10.63 -0.03 M0.13 12.04 C3.13 8.6, 6.12 5.15, 10.63 -0.03 M0.27 24.08 C7.47 15.79, 14.68 7.5, 21.26 -0.07 M0.27 24.08 C5.99 17.5, 11.71 10.91, 21.26 -0.07 M-0.26 36.88 C8.41 26.91, 17.07 16.94, 31.89 -0.1 M-0.26 36.88 C6.38 29.25, 13.01 21.61, 31.89 -0.1 M-0.12 48.92 C15.47 30.98, 31.07 13.04, 42.52 -0.14 M-0.12 48.92 C9.27 38.11, 18.67 27.3, 42.52 -0.14 M0.01 60.96 C17.6 40.73, 35.18 20.49, 53.15 -0.17 M0.01 60.96 C15.65 42.97, 31.29 24.97, 53.15 -0.17 M7.36 64.7 C19.06 51.23, 30.77 37.77, 63.78 -0.21 M7.36 64.7 C21.51 48.42, 35.67 32.14, 63.78 -0.21 M17.99 64.66 C28.87 52.15, 39.75 39.64, 64.57 11.08 M17.99 64.66 C29.74 51.15, 41.49 37.63, 64.57 11.08 M28.62 64.63 C42.94 48.15, 57.27 31.67, 64.7 23.12 M28.62 64.63 C42.97 48.12, 57.31 31.62, 64.7 23.12 M39.25 64.59 C46.61 56.12, 53.98 47.65, 64.84 35.16 M39.25 64.59 C44.86 58.14, 50.47 51.69, 64.84 35.16 M49.88 64.56 C53.68 60.19, 57.48 55.81, 64.97 47.2 M49.88 64.56 C54.11 59.7, 58.33 54.83, 64.97 47.2 M60.51 64.53 C61.47 63.42, 62.43 62.32, 64.45 60 M60.51 64.53 C61.57 63.3, 62.64 62.08, 64.45 60 M-0.19 64.24 C-0.19 64.24, -0.19 64.24, -0.19 64.24 M-0.19 64.24 C-0.19 64.24, -0.19 64.24, -0.19 64.24 M11.85 64.1 C7.15 60.02, 2.45 55.93, -0.22 53.61 M11.85 64.1 C8.03 60.78, 4.21 57.46, -0.22 53.61 M24.65 64.63 C15.34 56.53, 6.03 48.44, -0.26 42.98 M24.65 64.63 C18.16 58.99, 11.68 53.35, -0.26 42.98 M36.69 64.49 C27.34 56.36, 17.99 48.24, -0.29 32.35 M36.69 64.49 C29.14 57.93, 21.6 51.37, -0.29 32.35 M48.73 64.36 C32.97 50.66, 17.21 36.96, -0.33 21.72 M48.73 64.36 C37.61 54.69, 26.49 45.02, -0.33 21.72 M60.77 64.23 C42.37 48.23, 23.96 32.23, -0.36 11.09 M60.77 64.23 C47.54 52.73, 34.32 41.23, -0.36 11.09 M65.26 57.53 C46.11 40.88, 26.95 24.23, 0.36 1.11 M65.26 57.53 C47.98 42.51, 30.7 27.49, 0.36 1.11 M65.23 46.9 C52.2 35.57, 39.17 24.25, 10.89 -0.33 M65.23 46.9 C45.02 29.33, 24.8 11.76, 10.89 -0.33 M65.2 36.27 C54.27 26.78, 43.35 17.29, 22.93 -0.47 M65.2 36.27 C55.55 27.89, 45.91 19.5, 22.93 -0.47 M65.16 25.64 C55.68 17.4, 46.2 9.16, 34.97 -0.6 M65.16 25.64 C55.33 17.1, 45.5 8.55, 34.97 -0.6 M65.13 15.01 C58.82 9.53, 52.52 4.06, 47.77 -0.08 M65.13 15.01 C59.09 9.77, 53.06 4.52, 47.77 -0.08 M65.09 4.38 C63.99 3.43, 62.9 2.47, 59.81 -0.21 M65.09 4.38 C63.68 3.15, 62.26 1.92, 59.81 -0.21" stroke="#e6498088" stroke-width="1" fill="none"></path><path d="M0 0 C15.62 0, 31.23 0, 64.46 0 M0 0 C17.99 0, 35.97 0, 64.46 0 M64.46 0 C64.46 20.13, 64.46 40.26, 64.46 64.4 M64.46 0 C64.46 20.05, 64.46 40.09, 64.46 64.4 M64.46 64.4 C39.49 64.4, 14.51 64.4, 0 64.4 M64.46 64.4 C50.24 64.4, 36.01 64.4, 0 64.4 M0 64.4 C0 50.02, 0 35.64, 0 0 M0 64.4 C0 40.95, 0 17.51, 0 0" stroke="#000000" stroke-width="2" fill="none"></path></g><g stroke-linecap="round"><g transform="translate(52.9739700897635 65.71500345449749) rotate(358.94101984296475 6.96498573762824 -27.37745173370604)"><path d="M0 0 C1.87 0.05, 9.37 1.23, 11.19 0.29 C13.02 -0.65, 9.89 -4.03, 10.95 -5.64 C12.01 -7.25, 15.57 -9.39, 17.55 -9.35 C19.54 -9.32, 20.7 -4.54, 22.85 -5.41 C24.99 -6.28, 30.03 -12.43, 30.44 -14.58 C30.85 -16.73, 25.92 -16.69, 25.31 -18.3 C24.69 -19.92, 25.48 -23.29, 26.76 -24.28 C28.05 -25.27, 31.96 -22.48, 33.01 -24.26 C34.05 -26.04, 34.01 -33.18, 33.02 -34.96 C32.03 -36.74, 28.47 -34.24, 27.06 -34.95 C25.64 -35.65, 24.31 -37.57, 24.56 -39.19 C24.8 -40.8, 29.13 -42.6, 28.53 -44.66 C27.94 -46.71, 22.96 -51.12, 21 -51.5 C19.05 -51.87, 18.29 -47.31, 16.79 -46.89 C15.3 -46.47, 12.78 -47.66, 12.04 -48.98 C11.3 -50.31, 14.01 -53.83, 12.37 -54.84 C10.73 -55.85, 3.91 -55.94, 2.19 -55.04 C0.46 -54.15, 2.73 -50.77, 2 -49.46 C1.28 -48.15, -0.62 -46.8, -2.15 -47.2 C-3.68 -47.59, -5.05 -52.35, -7.18 -51.83 C-9.3 -51.31, -14.32 -45.98, -14.89 -44.1 C-15.47 -42.22, -10.92 -41.97, -10.62 -40.54 C-10.32 -39.1, -11.76 -36.38, -13.1 -35.48 C-14.44 -34.59, -17.65 -36.97, -18.65 -35.16 C-19.65 -33.36, -19.88 -26.39, -19.09 -24.65 C-18.3 -22.92, -15.09 -25.74, -13.89 -24.76 C-12.69 -23.78, -11.41 -20.26, -11.9 -18.75 C-12.4 -17.25, -17.14 -17.81, -16.84 -15.73 C-16.53 -13.64, -12.06 -7.31, -10.07 -6.25 C-8.08 -5.18, -6.61 -9.33, -4.91 -9.34 C-3.21 -9.36, -0.69 -7.88, 0.13 -6.33 C0.94 -4.77, 0.02 -1.05, 0 0 M0 0 C1.87 0.05, 9.37 1.23, 11.19 0.29 C13.02 -0.65, 9.89 -4.03, 10.95 -5.64 C12.01 -7.25, 15.57 -9.39, 17.55 -9.35 C19.54 -9.32, 20.7 -4.54, 22.85 -5.41 C24.99 -6.28, 30.03 -12.43, 30.44 -14.58 C30.85 -16.73, 25.92 -16.69, 25.31 -18.3 C24.69 -19.92, 25.48 -23.29, 26.76 -24.28 C28.05 -25.27, 31.96 -22.48, 33.01 -24.26 C34.05 -26.04, 34.01 -33.18, 33.02 -34.96 C32.03 -36.74, 28.47 -34.24, 27.06 -34.95 C25.64 -35.65, 24.31 -37.57, 24.56 -39.19 C24.8 -40.8, 29.13 -42.6, 28.53 -44.66 C27.94 -46.71, 22.96 -51.12, 21 -51.5 C19.05 -51.87, 18.29 -47.31, 16.79 -46.89 C15.3 -46.47, 12.78 -47.66, 12.04 -48.98 C11.3 -50.31, 14.01 -53.83, 12.37 -54.84 C10.73 -55.85, 3.91 -55.94, 2.19 -55.04 C0.46 -54.15, 2.73 -50.77, 2 -49.46 C1.28 -48.15, -0.62 -46.8, -2.15 -47.2 C-3.68 -47.59, -5.05 -52.35, -7.18 -51.83 C-9.3 -51.31, -14.32 -45.98, -14.89 -44.1 C-15.47 -42.22, -10.92 -41.97, -10.62 -40.54 C-10.32 -39.1, -11.76 -36.38, -13.1 -35.48 C-14.44 -34.59, -17.65 -36.97, -18.65 -35.16 C-19.65 -33.36, -19.88 -26.39, -19.09 -24.65 C-18.3 -22.92, -15.09 -25.74, -13.89 -24.76 C-12.69 -23.78, -11.41 -20.26, -11.9 -18.75 C-12.4 -17.25, -17.14 -17.81, -16.84 -15.73 C-16.53 -13.64, -12.06 -7.31, -10.07 -6.25 C-8.08 -5.18, -6.61 -9.33, -4.91 -9.34 C-3.21 -9.36, -0.69 -7.88, 0.13 -6.33 C0.94 -4.77, 0.02 -1.05, 0 0" stroke="#000000" stroke-width="2" fill="none"></path></g></g><mask></mask><g stroke-linecap="round"><g transform="translate(47.943520850482855 26.09058919490053) rotate(0 11.929573341804598 -2.3859146683610106)"><path d="M0 0 C2.49 -1.05, 4.97 -2.1, 11.3 -4.77 M0 0 C3.18 -1.34, 6.36 -2.68, 11.3 -4.77 M11.3 -4.77 C15.51 -3.17, 19.71 -1.58, 23.86 0 M11.3 -4.77 C14.39 -3.6, 17.47 -2.43, 23.86 0" stroke="#000000" stroke-width="2" fill="none"></path></g></g><mask></mask><g stroke-linecap="round"><g transform="translate(47.441223025564796 26.23320940251142) rotate(0 12.180722254263628 13.562041272788292)"><path d="M0 0 C0 2.3, -0.04 10.76, 0 13.81 C0.04 16.87, -0.17 16.95, 0.25 18.33 C0.67 19.72, 1.67 21.01, 2.51 22.1 C3.35 23.19, 4.31 24.19, 5.27 24.86 C6.24 25.53, 7.07 25.74, 8.29 26.12 C9.5 26.5, 11.22 27.08, 12.56 27.12 C13.9 27.17, 15.19 26.79, 16.32 26.37 C17.45 25.95, 18.33 25.53, 19.34 24.61 C20.34 23.69, 21.6 22.27, 22.35 20.85 C23.11 19.42, 23.57 17.33, 23.86 16.07 C24.15 14.82, 24.03 15.99, 24.11 13.31 C24.19 10.63, 24.32 2.22, 24.36 0 M0 0 C0 2.3, -0.04 10.76, 0 13.81 C0.04 16.87, -0.17 16.95, 0.25 18.33 C0.67 19.72, 1.67 21.01, 2.51 22.1 C3.35 23.19, 4.31 24.19, 5.27 24.86 C6.24 25.53, 7.07 25.74, 8.29 26.12 C9.5 26.5, 11.22 27.08, 12.56 27.12 C13.9 27.17, 15.19 26.79, 16.32 26.37 C17.45 25.95, 18.33 25.53, 19.34 24.61 C20.34 23.69, 21.6 22.27, 22.35 20.85 C23.11 19.42, 23.57 17.33, 23.86 16.07 C24.15 14.82, 24.03 15.99, 24.11 13.31 C24.19 10.63, 24.32 2.22, 24.36 0" stroke="#000000" stroke-width="2" fill="none"></path></g></g><mask></mask><g stroke-linecap="round"><g transform="translate(52.46420127474539 30.000443089404143) rotate(0 7.03216954885329 -1.506893474754179)"><path d="M0 0 C2.33 -0.97, 4.67 -1.93, 7.28 -3.01 M0 0 C1.74 -0.72, 3.48 -1.44, 7.28 -3.01 M7.28 -3.01 C8.98 -2.38, 10.68 -1.76, 14.06 -0.5 M7.28 -3.01 C9.63 -2.14, 11.98 -1.27, 14.06 -0.5" stroke="#000000" stroke-width="2" fill="none"></path></g></g><mask></mask><g stroke-linecap="round"><g transform="translate(59.747519736058166 48.58546261137235) rotate(0 0 -10.799403235738737)"><path d="M0 0 C0 -6.33, 0 -12.65, 0 -21.6 M0 0 C0 -7.54, 0 -15.07, 0 -21.6" stroke="#000000" stroke-width="2" fill="none"></path></g></g><mask></mask><g stroke-linecap="round"><g transform="translate(59.496370823599136 48.58546261137235) rotate(0 -3.39051031819713 -9.418084217214073)"><path d="M0 0 C-1.03 -0.27, -2.06 -0.55, -3.77 -1 M0 0 C-1.02 -0.27, -2.04 -0.54, -3.77 -1 M-3.77 -1 C-4.49 -1.78, -5.2 -2.56, -6.78 -4.27 M-3.77 -1 C-4.65 -1.96, -5.54 -2.92, -6.78 -4.27 M-6.78 -4.27 C-6.78 -9.67, -6.78 -15.06, -6.78 -18.84 M-6.78 -4.27 C-6.78 -8.69, -6.78 -13.1, -6.78 -18.84" stroke="#000000" stroke-width="2" fill="none"></path></g></g><mask></mask><g stroke-linecap="round"><g transform="translate(59.87309419228768 48.71103706759823) rotate(0 3.39051031819713 -9.418084217214073)"><path d="M0 0 C1.18 -0.31, 2.35 -0.63, 3.77 -1 M0 0 C1.17 -0.31, 2.35 -0.63, 3.77 -1 M3.77 -1 C4.93 -2.27, 6.1 -3.53, 6.78 -4.27 M3.77 -1 C4.43 -1.73, 5.1 -2.45, 6.78 -4.27 M6.78 -4.27 C6.78 -7.52, 6.78 -10.77, 6.78 -18.84 M6.78 -4.27 C6.78 -9.57, 6.78 -14.88, 6.78 -18.84" stroke="#000000" stroke-width="2" fill="none"></path></g></g><mask></mask></svg>