<svg xmlns="http://www.w3.org/2000/svg" viewBox="2151.99 2640.27 102.60 80.63" width="103" height="81"><text x="2157.99" y="2710.90" font-size="20" fill="#000000" opacity="1.0" font-family="sans-serif">AWS STS</text><ellipse cx="2190.98" cy="2665.18" rx="3.90" ry="3.90" stroke="#e64980" stroke-width="2" opacity="1.0" fill="none" transform="rotate(44.36 2190.98 2665.18)"/><polyline points="2179.95,2654.62 2178.02,2657.27 2176.59,2662.19 2177.58,2668.20 2180.79,2672.38 2185.09,2674.64 2189.78,2675.37 2194.59,2674.05 2198.30,2671.20 2200.56,2667.03 2201.19,2661.72 2199.65,2656.93 2197.27,2654.12" fill="none" stroke="#e64980" stroke-width="2" opacity="1.0" stroke-linecap="round" stroke-linejoin="round" transform="rotate(100.91 2192.25 2665.25)"/><polyline points="2200.00,2668.22 2203.47,2669.74 2206.29,2666.48 2205.86,2661.49 2210.42,2662.36 2211.94,2660.84 2211.94,2655.84 2216.71,2656.28 2219.53,2653.24 2224.53,2653.89 2225.40,2656.28 2225.18,2658.67 2221.27,2662.14 2208.46,2674.95" fill="none" stroke="#e64980" stroke-width="2" opacity="1.0" stroke-linecap="round" stroke-linejoin="round" transform="rotate(44.36 2212.70 2679.08)"/><polyline points="2200.23,2676.17 2200.73,2672.13 2199.23,2668.35" fill="none" stroke="#e64980" stroke-width="2" opacity="1.0" stroke-linecap="round" stroke-linejoin="round" transform="rotate(44.36 2200.98 2680.08)"/><rect x="2172.88" y="2646.27" width="60.82" height="37.65" rx="0" stroke="#e64980" stroke-width="2" opacity="1.0" fill="none"/></svg>