<svg version="1.1" xmlns="http://www.w3.org/2000/svg" viewBox="0 0 281.51410950501486 176.54545632937743" width="281.51410950501486" height="176.54545632937743">
  <!-- svg-source:excalidraw -->
  
  <defs>
    
    
  </defs>
  <g stroke-linecap="round" transform="translate(6 6) rotate(0 134.75705475250743 82.27272816468871)"><path d="M0 0 C68.61 0, 137.22 0, 269.51 0 M0 0 C79.08 0, 158.15 0, 269.51 0 M269.51 0 C269.51 47.78, 269.51 95.56, 269.51 164.55 M269.51 0 C269.51 53.77, 269.51 107.54, 269.51 164.55 M269.51 164.55 C166.42 164.55, 63.33 164.55, 0 164.55 M269.51 164.55 C171.79 164.55, 74.06 164.55, 0 164.55 M0 164.55 C0 125.04, 0 85.54, 0 0 M0 164.55 C0 111.3, 0 58.05, 0 0" stroke="#1e1e1e" stroke-width="2" fill="none"></path></g><g transform="translate(55.05287623042432 14.97330471241412) rotate(0 51.08000183105469 12.5)"><text x="0" y="0" font-family="Virgil, Segoe UI Emoji" font-size="20px" fill="#000000" text-anchor="start" style="white-space: pre;" direction="ltr" dominant-baseline="text-before-edge">AWS Cloud</text></g><g stroke-linecap="round" transform="translate(6.337737185840979 6.2114628514059405) rotate(0 19.81217082503025 21.261841861008065)"><path d="M0 0 C0 0, 0 0, 0 0 M0 0 C0 0, 0 0, 0 0 M0.13 12.04 C3.06 8.68, 5.98 5.32, 10.63 -0.03 M0.13 12.04 C2.68 9.12, 5.22 6.19, 10.63 -0.03 M0.27 24.08 C6.12 17.34, 11.98 10.6, 21.26 -0.07 M0.27 24.08 C8.62 14.47, 16.97 4.86, 21.26 -0.07 M-0.26 36.88 C6.49 29.12, 13.24 21.36, 31.89 -0.1 M-0.26 36.88 C11.12 23.79, 22.5 10.7, 31.89 -0.1 M5.12 42.88 C12.53 34.36, 19.94 25.84, 39.9 2.88 M5.12 42.88 C12.84 34.01, 20.55 25.14, 39.9 2.88 M15.76 42.85 C21.44 36.31, 27.12 29.77, 39.37 15.68 M15.76 42.85 C25.05 32.15, 34.35 21.45, 39.37 15.68 M26.39 42.81 C29.31 39.44, 32.24 36.07, 39.51 27.72 M26.39 42.81 C29.98 38.68, 33.57 34.54, 39.51 27.72 M37.02 42.78 C37.64 42.05, 38.27 41.33, 39.64 39.76 M37.02 42.78 C37.57 42.14, 38.12 41.51, 39.64 39.76 M0.08 42.59 C0.08 42.59, 0.08 42.59, 0.08 42.59 M0.08 42.59 C0.08 42.59, 0.08 42.59, 0.08 42.59 M12.12 42.46 C9.3 40.01, 6.48 37.55, 0.04 31.96 M12.12 42.46 C8.01 38.89, 3.91 35.32, 0.04 31.96 M24.16 42.32 C18.74 37.61, 13.32 32.9, 0.01 21.33 M24.16 42.32 C16.28 35.47, 8.39 28.62, 0.01 21.33 M36.95 42.85 C29.15 36.06, 21.35 29.28, -0.03 10.7 M36.95 42.85 C29.03 35.96, 21.12 29.08, -0.03 10.7 M39.94 34.84 C26.34 23.02, 12.74 11.2, -0.06 0.07 M39.94 34.84 C30.53 26.67, 21.13 18.49, -0.06 0.07 M39.9 24.21 C30.78 16.28, 21.66 8.35, 11.23 -0.72 M39.9 24.21 C29.82 15.44, 19.73 6.67, 11.23 -0.72 M39.87 13.58 C33.55 8.09, 27.23 2.59, 23.27 -0.85 M39.87 13.58 C33.42 7.97, 26.96 2.36, 23.27 -0.85 M39.84 2.95 C38.65 1.92, 37.47 0.9, 35.31 -0.99 M39.84 2.95 C38.19 1.52, 36.55 0.09, 35.31 -0.99" stroke="#ced4da" stroke-width="1" fill="none"></path><path d="M0 0 C11.6 0, 23.2 0, 39.62 0 M0 0 C10.82 0, 21.64 0, 39.62 0 M39.62 0 C39.62 10.06, 39.62 20.13, 39.62 42.52 M39.62 0 C39.62 11.26, 39.62 22.52, 39.62 42.52 M39.62 42.52 C29.97 42.52, 20.32 42.52, 0 42.52 M39.62 42.52 C27.13 42.52, 14.65 42.52, 0 42.52 M0 42.52 C0 28.18, 0 13.84, 0 0 M0 42.52 C0 29.71, 0 16.89, 0 0" stroke="#1e1e1e" stroke-width="2" fill="none"></path></g><g stroke-linecap="round"><g transform="translate(26.768779057242 37.03522573325267) rotate(0 -0.5363849543496428 -9.532422917005306)"><path d="M0 0 C-1.92 -0.05, -9.21 -0.08, -11.49 -0.3 C-13.77 -0.52, -13.07 -0.67, -13.7 -1.31 C-14.33 -1.94, -15 -3.25, -15.26 -4.11 C-15.52 -4.97, -15.49 -5.57, -15.26 -6.45 C-15.02 -7.33, -14.5 -8.71, -13.85 -9.41 C-13.21 -10.11, -11.91 -10.42, -11.36 -10.65 C-10.82 -10.89, -10.64 -10.73, -10.58 -10.81 C-10.53 -10.89, -11.02 -10.47, -11.05 -11.12 C-11.08 -11.77, -11.13 -13.64, -10.74 -14.7 C-10.35 -15.77, -9.65 -16.78, -8.71 -17.51 C-7.78 -18.23, -6.35 -18.86, -5.13 -19.06 C-3.91 -19.27, -2.51 -19.09, -1.39 -18.75 C-0.28 -18.42, 0.79 -17.74, 1.57 -17.04 C2.35 -16.34, 2.94 -15.09, 3.28 -14.55 C3.62 -14, 3.38 -13.77, 3.59 -13.77 C3.8 -13.77, 4.03 -14.34, 4.53 -14.55 C5.02 -14.76, 5.88 -15.09, 6.55 -15.01 C7.23 -14.94, 8.06 -14.52, 8.58 -14.08 C9.1 -13.64, 9.59 -12.96, 9.67 -12.37 C9.74 -11.77, 8.97 -10.76, 9.04 -10.5 C9.12 -10.24, 9.48 -10.94, 10.13 -10.81 C10.78 -10.68, 12.26 -10.47, 12.94 -9.72 C13.61 -8.97, 14.08 -7.41, 14.18 -6.29 C14.29 -5.18, 13.98 -3.9, 13.56 -3.02 C13.14 -2.14, 12.5 -1.49, 11.69 -1 C10.89 -0.5, 10.68 -0.23, 8.73 -0.06 C6.78 0.1, 1.46 -0.01, 0 0 M0 0 C-1.92 -0.05, -9.21 -0.08, -11.49 -0.3 C-13.77 -0.52, -13.07 -0.67, -13.7 -1.31 C-14.33 -1.94, -15 -3.25, -15.26 -4.11 C-15.52 -4.97, -15.49 -5.57, -15.26 -6.45 C-15.02 -7.33, -14.5 -8.71, -13.85 -9.41 C-13.21 -10.11, -11.91 -10.42, -11.36 -10.65 C-10.82 -10.89, -10.64 -10.73, -10.58 -10.81 C-10.53 -10.89, -11.02 -10.47, -11.05 -11.12 C-11.08 -11.77, -11.13 -13.64, -10.74 -14.7 C-10.35 -15.77, -9.65 -16.78, -8.71 -17.51 C-7.78 -18.23, -6.35 -18.86, -5.13 -19.06 C-3.91 -19.27, -2.51 -19.09, -1.39 -18.75 C-0.28 -18.42, 0.79 -17.74, 1.57 -17.04 C2.35 -16.34, 2.94 -15.09, 3.28 -14.55 C3.62 -14, 3.38 -13.77, 3.59 -13.77 C3.8 -13.77, 4.03 -14.34, 4.53 -14.55 C5.02 -14.76, 5.88 -15.09, 6.55 -15.01 C7.23 -14.94, 8.06 -14.52, 8.58 -14.08 C9.1 -13.64, 9.59 -12.96, 9.67 -12.37 C9.74 -11.77, 8.97 -10.76, 9.04 -10.5 C9.12 -10.24, 9.48 -10.94, 10.13 -10.81 C10.78 -10.68, 12.26 -10.47, 12.94 -9.72 C13.61 -8.97, 14.08 -7.41, 14.18 -6.29 C14.29 -5.18, 13.98 -3.9, 13.56 -3.02 C13.14 -2.14, 12.5 -1.49, 11.69 -1 C10.89 -0.5, 10.68 -0.23, 8.73 -0.06 C6.78 0.1, 1.46 -0.01, 0 0" stroke="#000000" stroke-width="2" fill="none"></path></g></g><mask></mask></svg>