<svg version="1.1" xmlns="http://www.w3.org/2000/svg" viewBox="0 0 86.05101102941171 88.09604779411757" width="86.05101102941171" height="88.09604779411757">
  <!-- svg-source:excalidraw -->
  
  <defs>
    
    
  </defs>
  <g stroke-linecap="round" transform="translate(6 6) rotate(0 37.025505514705856 38.04802389705878)"><path d="M74.05 38.05 C74.05 40.03, 73.9 42.04, 73.6 44 C73.29 45.96, 72.84 47.92, 72.24 49.81 C71.64 51.69, 70.89 53.55, 70.02 55.32 C69.14 57.09, 68.11 58.81, 66.98 60.41 C65.84 62.02, 64.57 63.55, 63.21 64.95 C61.84 66.35, 60.35 67.66, 58.79 68.83 C57.23 70, 55.55 71.05, 53.83 71.95 C52.11 72.85, 50.3 73.62, 48.47 74.23 C46.63 74.85, 44.72 75.32, 42.82 75.63 C40.91 75.94, 38.96 76.1, 37.03 76.1 C35.09 76.1, 33.14 75.94, 31.23 75.63 C29.33 75.32, 27.42 74.85, 25.58 74.23 C23.75 73.62, 21.94 72.85, 20.22 71.95 C18.5 71.05, 16.82 70, 15.26 68.83 C13.7 67.66, 12.21 66.35, 10.84 64.95 C9.48 63.55, 8.21 62.02, 7.07 60.41 C5.94 58.81, 4.91 57.09, 4.04 55.32 C3.16 53.55, 2.41 51.69, 1.81 49.81 C1.22 47.92, 0.76 45.96, 0.46 44 C0.15 42.04, 0 40.03, 0 38.05 C0 36.06, 0.15 34.06, 0.46 32.1 C0.76 30.14, 1.22 28.18, 1.81 26.29 C2.41 24.4, 3.16 22.54, 4.04 20.77 C4.91 19.01, 5.94 17.29, 7.07 15.68 C8.21 14.08, 9.48 12.55, 10.84 11.14 C12.21 9.74, 13.7 8.43, 15.26 7.27 C16.82 6.1, 18.5 5.05, 20.22 4.15 C21.94 3.25, 23.75 2.48, 25.58 1.86 C27.42 1.25, 29.33 0.78, 31.23 0.47 C33.14 0.16, 35.09 0, 37.03 0 C38.96 0, 40.91 0.16, 42.82 0.47 C44.72 0.78, 46.63 1.25, 48.47 1.86 C50.3 2.48, 52.11 3.25, 53.83 4.15 C55.55 5.05, 57.23 6.1, 58.79 7.27 C60.35 8.43, 61.84 9.74, 63.21 11.14 C64.57 12.55, 65.84 14.08, 66.98 15.68 C68.11 17.29, 69.14 19.01, 70.02 20.77 C70.89 22.54, 71.64 24.4, 72.24 26.29 C72.84 28.18, 73.29 30.14, 73.6 32.1 C73.9 34.06, 73.98 37.06, 74.05 38.05 C74.13 39.04, 74.13 37.06, 74.05 38.05" stroke="none" stroke-width="0" fill="#fe4b4b"></path><path d="M74.05 38.05 C74.05 40.03, 73.9 42.04, 73.6 44 C73.29 45.96, 72.84 47.92, 72.24 49.81 C71.64 51.69, 70.89 53.55, 70.02 55.32 C69.14 57.09, 68.11 58.81, 66.98 60.41 C65.84 62.02, 64.57 63.55, 63.21 64.95 C61.84 66.35, 60.35 67.66, 58.79 68.83 C57.23 70, 55.55 71.05, 53.83 71.95 C52.11 72.85, 50.3 73.62, 48.47 74.23 C46.63 74.85, 44.72 75.32, 42.82 75.63 C40.91 75.94, 38.96 76.1, 37.03 76.1 C35.09 76.1, 33.14 75.94, 31.23 75.63 C29.33 75.32, 27.42 74.85, 25.58 74.23 C23.75 73.62, 21.94 72.85, 20.22 71.95 C18.5 71.05, 16.82 70, 15.26 68.83 C13.7 67.66, 12.21 66.35, 10.84 64.95 C9.48 63.55, 8.21 62.02, 7.07 60.41 C5.94 58.81, 4.91 57.09, 4.04 55.32 C3.16 53.55, 2.41 51.69, 1.81 49.81 C1.22 47.92, 0.76 45.96, 0.46 44 C0.15 42.04, 0 40.03, 0 38.05 C0 36.06, 0.15 34.06, 0.46 32.1 C0.76 30.14, 1.22 28.18, 1.81 26.29 C2.41 24.4, 3.16 22.54, 4.04 20.77 C4.91 19.01, 5.94 17.29, 7.07 15.68 C8.21 14.08, 9.48 12.55, 10.84 11.14 C12.21 9.74, 13.7 8.43, 15.26 7.27 C16.82 6.1, 18.5 5.05, 20.22 4.15 C21.94 3.25, 23.75 2.48, 25.58 1.86 C27.42 1.25, 29.33 0.78, 31.23 0.47 C33.14 0.16, 35.09 0, 37.03 0 C38.96 0, 40.91 0.16, 42.82 0.47 C44.72 0.78, 46.63 1.25, 48.47 1.86 C50.3 2.48, 52.11 3.25, 53.83 4.15 C55.55 5.05, 57.23 6.1, 58.79 7.27 C60.35 8.43, 61.84 9.74, 63.21 11.14 C64.57 12.55, 65.84 14.08, 66.98 15.68 C68.11 17.29, 69.14 19.01, 70.02 20.77 C70.89 22.54, 71.64 24.4, 72.24 26.29 C72.84 28.18, 73.29 30.14, 73.6 32.1 C73.9 34.06, 73.98 37.06, 74.05 38.05 C74.13 39.04, 74.13 37.06, 74.05 38.05" stroke="#fe4b4b" stroke-width="2" fill="none"></path></g><g stroke-linecap="round"><g transform="translate(28.612406391625427 24.10594945937487) rotate(0 15.080113344188476 15.75166865970499)" fill-rule="evenodd"><path d="M0 0 C0.51 4.25, 2.16 20.48, 3.05 25.5 C3.95 30.52, 3.19 29.03, 5.37 30.14 C7.55 31.24, 12.74 32.06, 16.14 32.12 C19.55 32.17, 23.83 31.59, 25.81 30.46 C27.8 29.33, 27.3 30.41, 28.06 25.34 C28.82 20.28, 30.11 4.4, 30.38 0.08 C30.65 -4.25, 34.79 -0.61, 29.69 -0.61 C24.59 -0.62, 4.76 -0.06, -0.22 0.05" stroke="none" stroke-width="0" fill="#fe4b4b" fill-rule="evenodd"></path><path d="M0 0 C0.51 4.25, 2.16 20.48, 3.05 25.5 C3.95 30.52, 3.19 29.03, 5.37 30.14 C7.55 31.24, 12.74 32.06, 16.14 32.12 C19.55 32.17, 23.83 31.59, 25.81 30.46 C27.8 29.33, 27.3 30.41, 28.06 25.34 C28.82 20.28, 30.11 4.4, 30.38 0.08 C30.65 -4.25, 34.79 -0.61, 29.69 -0.61 C24.59 -0.62, 4.76 -0.06, -0.22 0.05 M0 0 C0.51 4.25, 2.16 20.48, 3.05 25.5 C3.95 30.52, 3.19 29.03, 5.37 30.14 C7.55 31.24, 12.74 32.06, 16.14 32.12 C19.55 32.17, 23.83 31.59, 25.81 30.46 C27.8 29.33, 27.3 30.41, 28.06 25.34 C28.82 20.28, 30.11 4.4, 30.38 0.08 C30.65 -4.25, 34.79 -0.61, 29.69 -0.61 C24.59 -0.62, 4.76 -0.06, -0.22 0.05" stroke="#fff" stroke-width="2" fill="none"></path></g></g><mask></mask><g stroke-linecap="round" transform="translate(28.055048585128134 20.014956743289304) rotate(0 15.511156968203068 4.265547060580161)"><path d="M31.02 4.27 C31.02 4.51, 30.94 4.76, 30.79 5.01 C30.63 5.25, 30.39 5.49, 30.09 5.72 C29.78 5.96, 29.39 6.18, 28.94 6.4 C28.5 6.61, 27.97 6.82, 27.39 7.01 C26.82 7.2, 26.17 7.37, 25.48 7.53 C24.79 7.69, 24.04 7.84, 23.27 7.96 C22.49 8.08, 21.66 8.19, 20.82 8.27 C19.97 8.36, 19.09 8.42, 18.2 8.47 C17.32 8.51, 16.41 8.53, 15.51 8.53 C14.61 8.53, 13.7 8.51, 12.82 8.47 C11.93 8.42, 11.05 8.36, 10.21 8.27 C9.36 8.19, 8.53 8.08, 7.76 7.96 C6.98 7.84, 6.23 7.69, 5.54 7.53 C4.85 7.37, 4.21 7.2, 3.63 7.01 C3.05 6.82, 2.53 6.61, 2.08 6.4 C1.63 6.18, 1.24 5.96, 0.94 5.72 C0.63 5.49, 0.39 5.25, 0.24 5.01 C0.08 4.76, 0 4.51, 0 4.27 C0 4.02, 0.08 3.77, 0.24 3.52 C0.39 3.28, 0.63 3.04, 0.94 2.81 C1.24 2.57, 1.63 2.35, 2.08 2.13 C2.53 1.92, 3.05 1.71, 3.63 1.52 C4.21 1.33, 4.85 1.16, 5.54 1 C6.23 0.84, 6.98 0.69, 7.76 0.57 C8.53 0.45, 9.36 0.34, 10.21 0.26 C11.05 0.17, 11.93 0.11, 12.82 0.06 C13.7 0.02, 14.61 0, 15.51 0 C16.41 0, 17.32 0.02, 18.2 0.06 C19.09 0.11, 19.97 0.17, 20.82 0.26 C21.66 0.34, 22.49 0.45, 23.27 0.57 C24.04 0.69, 24.79 0.84, 25.48 1 C26.17 1.16, 26.82 1.33, 27.39 1.52 C27.97 1.71, 28.5 1.92, 28.94 2.13 C29.39 2.35, 29.78 2.57, 30.09 2.81 C30.39 3.04, 30.63 3.28, 30.79 3.52 C30.94 3.77, 30.98 4.14, 31.02 4.27 C31.06 4.39, 31.06 4.14, 31.02 4.27" stroke="none" stroke-width="0" fill="#fe4b4b"></path><path d="M31.02 4.27 C31.02 4.51, 30.94 4.76, 30.79 5.01 C30.63 5.25, 30.39 5.49, 30.09 5.72 C29.78 5.96, 29.39 6.18, 28.94 6.4 C28.5 6.61, 27.97 6.82, 27.39 7.01 C26.82 7.2, 26.17 7.37, 25.48 7.53 C24.79 7.69, 24.04 7.84, 23.27 7.96 C22.49 8.08, 21.66 8.19, 20.82 8.27 C19.97 8.36, 19.09 8.42, 18.2 8.47 C17.32 8.51, 16.41 8.53, 15.51 8.53 C14.61 8.53, 13.7 8.51, 12.82 8.47 C11.93 8.42, 11.05 8.36, 10.21 8.27 C9.36 8.19, 8.53 8.08, 7.76 7.96 C6.98 7.84, 6.23 7.69, 5.54 7.53 C4.85 7.37, 4.21 7.2, 3.63 7.01 C3.05 6.82, 2.53 6.61, 2.08 6.4 C1.63 6.18, 1.24 5.96, 0.94 5.72 C0.63 5.49, 0.39 5.25, 0.24 5.01 C0.08 4.76, 0 4.51, 0 4.27 C0 4.02, 0.08 3.77, 0.24 3.52 C0.39 3.28, 0.63 3.04, 0.94 2.81 C1.24 2.57, 1.63 2.35, 2.08 2.13 C2.53 1.92, 3.05 1.71, 3.63 1.52 C4.21 1.33, 4.85 1.16, 5.54 1 C6.23 0.84, 6.98 0.69, 7.76 0.57 C8.53 0.45, 9.36 0.34, 10.21 0.26 C11.05 0.17, 11.93 0.11, 12.82 0.06 C13.7 0.02, 14.61 0, 15.51 0 C16.41 0, 17.32 0.02, 18.2 0.06 C19.09 0.11, 19.97 0.17, 20.82 0.26 C21.66 0.34, 22.49 0.45, 23.27 0.57 C24.04 0.69, 24.79 0.84, 25.48 1 C26.17 1.16, 26.82 1.33, 27.39 1.52 C27.97 1.71, 28.5 1.92, 28.94 2.13 C29.39 2.35, 29.78 2.57, 30.09 2.81 C30.39 3.04, 30.63 3.28, 30.79 3.52 C30.94 3.77, 30.98 4.14, 31.02 4.27 C31.06 4.39, 31.06 4.14, 31.02 4.27" stroke="#fff" stroke-width="2" fill="none"></path></g><g stroke-linecap="round" transform="translate(41.642772826143755 32.819510287645016) rotate(0 1.8635225287090407 1.8635225287090975)"><path d="M3.73 1.86 C3.73 1.97, 3.72 2.08, 3.7 2.19 C3.68 2.29, 3.65 2.4, 3.61 2.5 C3.58 2.6, 3.53 2.7, 3.48 2.8 C3.42 2.89, 3.36 2.98, 3.29 3.06 C3.22 3.14, 3.14 3.22, 3.06 3.29 C2.98 3.36, 2.89 3.42, 2.8 3.48 C2.7 3.53, 2.6 3.58, 2.5 3.61 C2.4 3.65, 2.29 3.68, 2.19 3.7 C2.08 3.72, 1.97 3.73, 1.86 3.73 C1.76 3.73, 1.65 3.72, 1.54 3.7 C1.43 3.68, 1.33 3.65, 1.23 3.61 C1.12 3.58, 1.03 3.53, 0.93 3.48 C0.84 3.42, 0.75 3.36, 0.67 3.29 C0.58 3.22, 0.51 3.14, 0.44 3.06 C0.37 2.98, 0.3 2.89, 0.25 2.8 C0.2 2.7, 0.15 2.6, 0.11 2.5 C0.08 2.4, 0.05 2.29, 0.03 2.19 C0.01 2.08, 0 1.97, 0 1.86 C0 1.76, 0.01 1.65, 0.03 1.54 C0.05 1.43, 0.08 1.33, 0.11 1.23 C0.15 1.12, 0.2 1.03, 0.25 0.93 C0.3 0.84, 0.37 0.75, 0.44 0.67 C0.51 0.58, 0.58 0.51, 0.67 0.44 C0.75 0.37, 0.84 0.3, 0.93 0.25 C1.03 0.2, 1.12 0.15, 1.23 0.11 C1.33 0.08, 1.43 0.05, 1.54 0.03 C1.65 0.01, 1.76 0, 1.86 0 C1.97 0, 2.08 0.01, 2.19 0.03 C2.29 0.05, 2.4 0.08, 2.5 0.11 C2.6 0.15, 2.7 0.2, 2.8 0.25 C2.89 0.3, 2.98 0.37, 3.06 0.44 C3.14 0.51, 3.22 0.58, 3.29 0.67 C3.36 0.75, 3.42 0.84, 3.48 0.93 C3.53 1.03, 3.58 1.12, 3.61 1.23 C3.65 1.33, 3.68 1.43, 3.7 1.54 C3.72 1.65, 3.72 1.81, 3.73 1.86 C3.73 1.92, 3.73 1.81, 3.73 1.86" stroke="none" stroke-width="0" fill="#fff"></path><path d="M3.73 1.86 C3.73 1.97, 3.72 2.08, 3.7 2.19 C3.68 2.29, 3.65 2.4, 3.61 2.5 C3.58 2.6, 3.53 2.7, 3.48 2.8 C3.42 2.89, 3.36 2.98, 3.29 3.06 C3.22 3.14, 3.14 3.22, 3.06 3.29 C2.98 3.36, 2.89 3.42, 2.8 3.48 C2.7 3.53, 2.6 3.58, 2.5 3.61 C2.4 3.65, 2.29 3.68, 2.19 3.7 C2.08 3.72, 1.97 3.73, 1.86 3.73 C1.76 3.73, 1.65 3.72, 1.54 3.7 C1.43 3.68, 1.33 3.65, 1.23 3.61 C1.12 3.58, 1.03 3.53, 0.93 3.48 C0.84 3.42, 0.75 3.36, 0.67 3.29 C0.58 3.22, 0.51 3.14, 0.44 3.06 C0.37 2.98, 0.3 2.89, 0.25 2.8 C0.2 2.7, 0.15 2.6, 0.11 2.5 C0.08 2.4, 0.05 2.29, 0.03 2.19 C0.01 2.08, 0 1.97, 0 1.86 C0 1.76, 0.01 1.65, 0.03 1.54 C0.05 1.43, 0.08 1.33, 0.11 1.23 C0.15 1.12, 0.2 1.03, 0.25 0.93 C0.3 0.84, 0.37 0.75, 0.44 0.67 C0.51 0.58, 0.58 0.51, 0.67 0.44 C0.75 0.37, 0.84 0.3, 0.93 0.25 C1.03 0.2, 1.12 0.15, 1.23 0.11 C1.33 0.08, 1.43 0.05, 1.54 0.03 C1.65 0.01, 1.76 0, 1.86 0 C1.97 0, 2.08 0.01, 2.19 0.03 C2.29 0.05, 2.4 0.08, 2.5 0.11 C2.6 0.15, 2.7 0.2, 2.8 0.25 C2.89 0.3, 2.98 0.37, 3.06 0.44 C3.14 0.51, 3.22 0.58, 3.29 0.67 C3.36 0.75, 3.42 0.84, 3.48 0.93 C3.53 1.03, 3.58 1.12, 3.61 1.23 C3.65 1.33, 3.68 1.43, 3.7 1.54 C3.72 1.65, 3.72 1.81, 3.73 1.86 C3.73 1.92, 3.73 1.81, 3.73 1.86" stroke="#fff" stroke-width="1" fill="none"></path></g><g stroke-linecap="round"><g transform="translate(43.19815996117518 35.64533660604093) rotate(0 -8.6037542436992 4.1569621933805365)"><path d="M0 0 C-1.35 0.94, -5.21 4.26, -8.08 5.65 C-10.94 7.03, -15.9 8.84, -17.21 8.31 C-18.51 7.79, -16.12 3.45, -15.9 2.48 M0 0 C-1.35 0.94, -5.21 4.26, -8.08 5.65 C-10.94 7.03, -15.9 8.84, -17.21 8.31 C-18.51 7.79, -16.12 3.45, -15.9 2.48" stroke="#fff" stroke-width="2" fill="none"></path></g></g><mask></mask><g transform="translate(38.877757352940534 60.747492942489316) rotate(0 5.5 5.5)"><text x="0" y="0" font-family="Cascadia, Segoe UI Emoji" font-size="9.453912815126058px" fill="#fff" text-anchor="start" style="white-space: pre;" direction="ltr" dominant-baseline="text-before-edge">S3</text></g></svg>