<svg version="1.1" xmlns="http://www.w3.org/2000/svg" viewBox="0 0 107.45999908447266 104.00266980882407" width="107.45999908447266" height="104.00266980882407">
  <!-- svg-source:excalidraw -->
  
  <defs>
    
    
  </defs>
  <g transform="translate(6 74.00266980882407) rotate(0 47.72999954223633 12)"><text x="0" y="0" font-family="Virgil, Segoe UI Emoji" font-size="20px" fill="#000000" text-anchor="start" style="white-space: pre;" direction="ltr" dominant-baseline="text-before-edge">CloudShell</text></g><g stroke-linecap="round" transform="translate(21.696654785749843 6) rotate(0 32.03334475648637 32.00266980882293)"><path d="M0 0 C0 0, 0 0, 0 0 M0 0 C0 0, 0 0, 0 0 M0.13 12.04 C3.99 7.6, 7.85 3.17, 10.63 -0.03 M0.13 12.04 C3.05 8.69, 5.96 5.34, 10.63 -0.03 M0.27 24.08 C6.48 16.94, 12.69 9.79, 21.26 -0.07 M0.27 24.08 C7.72 15.51, 15.17 6.94, 21.26 -0.07 M-0.26 36.88 C10.86 24.09, 21.97 11.3, 31.89 -0.1 M-0.26 36.88 C11.82 22.98, 23.9 9.09, 31.89 -0.1 M-0.12 48.92 C12.24 34.7, 24.6 20.48, 42.52 -0.14 M-0.12 48.92 C12.17 34.77, 24.47 20.62, 42.52 -0.14 M0.01 60.96 C20.96 36.86, 41.9 12.76, 53.15 -0.17 M0.01 60.96 C16.01 42.55, 32.02 24.14, 53.15 -0.17 M8.02 63.94 C22.64 47.12, 37.27 30.29, 63.78 -0.21 M8.02 63.94 C26.86 42.26, 45.71 20.58, 63.78 -0.21 M18.65 63.91 C31.44 49.19, 44.24 34.47, 64.57 11.08 M18.65 63.91 C32.19 48.33, 45.73 32.75, 64.57 11.08 M29.28 63.87 C38.22 53.58, 47.17 43.29, 64.7 23.12 M29.28 63.87 C39.77 51.8, 50.27 39.72, 64.7 23.12 M39.91 63.84 C46.44 56.33, 52.97 48.81, 64.84 35.16 M39.91 63.84 C48.66 53.77, 57.41 43.7, 64.84 35.16 M50.54 63.81 C54.63 59.1, 58.72 54.39, 64.31 47.96 M50.54 63.81 C53.42 60.49, 56.3 57.18, 64.31 47.96 M61.17 63.77 C62.16 62.62, 63.16 61.48, 64.45 60 M61.17 63.77 C61.88 62.95, 62.59 62.13, 64.45 60 M0.01 64.01 C0.01 64.01, 0.01 64.01, 0.01 64.01 M0.01 64.01 C0.01 64.01, 0.01 64.01, 0.01 64.01 M12.05 63.88 C8.9 61.14, 5.75 58.4, -0.03 53.38 M12.05 63.88 C7.3 59.75, 2.55 55.62, -0.03 53.38 M24.09 63.74 C17.38 57.92, 10.68 52.09, -0.06 42.75 M24.09 63.74 C15.71 56.46, 7.33 49.18, -0.06 42.75 M36.88 64.27 C26.28 55.05, 15.68 45.84, -0.1 32.12 M36.88 64.27 C24.55 53.55, 12.22 42.83, -0.1 32.12 M48.92 64.13 C35.64 52.59, 22.36 41.04, -0.13 21.49 M48.92 64.13 C32.78 50.1, 16.64 36.07, -0.13 21.49 M60.97 64 C46.82 51.71, 32.68 39.41, -0.17 10.86 M60.97 64 C46.05 51.03, 31.13 38.06, -0.17 10.86 M64.7 56.65 C49.65 43.56, 34.59 30.48, -0.2 0.23 M64.7 56.65 C40.05 35.22, 15.4 13.79, -0.2 0.23 M64.67 46.02 C51.69 34.74, 38.71 23.45, 11.09 -0.56 M64.67 46.02 C49.41 32.75, 34.14 19.48, 11.09 -0.56 M64.64 35.39 C48.79 21.62, 32.94 7.84, 23.13 -0.69 M64.64 35.39 C55.88 27.78, 47.13 20.18, 23.13 -0.69 M64.6 24.76 C53.9 15.46, 43.21 6.16, 35.17 -0.82 M64.6 24.76 C53.74 15.32, 42.88 5.88, 35.17 -0.82 M64.57 14.13 C58.96 9.26, 53.35 4.38, 47.96 -0.3 M64.57 14.13 C58.15 8.55, 51.74 2.98, 47.96 -0.3 M64.53 3.5 C63.01 2.18, 61.49 0.86, 60 -0.44 M64.53 3.5 C62.89 2.07, 61.25 0.65, 60 -0.44" stroke="#eebefa" stroke-width="1" fill="none"></path><path d="M0 0 C22 0, 44 0, 64.07 0 M0 0 C20.61 0, 41.22 0, 64.07 0 M64.07 0 C64.07 15.44, 64.07 30.89, 64.07 64.01 M64.07 0 C64.07 23.29, 64.07 46.59, 64.07 64.01 M64.07 64.01 C46.78 64.01, 29.5 64.01, 0 64.01 M64.07 64.01 C42.84 64.01, 21.61 64.01, 0 64.01 M0 64.01 C0 39.05, 0 14.09, 0 0 M0 64.01 C0 43.62, 0 23.24, 0 0" stroke="#000000" stroke-width="2" fill="none"></path></g><g stroke-linecap="round"><g transform="translate(37.60682856719245 35.64756185594297) rotate(0 9.934320313051558 -9.713528002538624)"><path d="M0 0 C-0.58 -0.23, -2.62 -0.66, -3.46 -1.36 C-4.3 -2.07, -4.78 -3.34, -5.04 -4.22 C-5.3 -5.09, -5.28 -5.69, -5.04 -6.59 C-4.8 -7.49, -4.27 -8.89, -3.61 -9.6 C-2.95 -10.32, -1.63 -10.63, -1.08 -10.87 C-0.52 -11.11, -0.34 -10.95, -0.29 -11.03 C-0.23 -11.11, -0.74 -10.69, -0.76 -11.35 C-0.79 -12.01, -0.84 -13.91, -0.44 -14.99 C-0.05 -16.07, 0.66 -17.1, 1.62 -17.84 C2.57 -18.58, 4.02 -19.22, 5.26 -19.43 C6.5 -19.64, 7.93 -19.45, 9.06 -19.11 C10.2 -18.77, 11.28 -18.08, 12.07 -17.37 C12.87 -16.65, 13.47 -15.39, 13.82 -14.83 C14.16 -14.28, 13.92 -14.04, 14.13 -14.04 C14.34 -14.04, 14.58 -14.62, 15.08 -14.83 C15.59 -15.04, 16.46 -15.39, 17.14 -15.31 C17.83 -15.23, 18.68 -14.81, 19.2 -14.36 C19.73 -13.91, 20.23 -13.22, 20.31 -12.61 C20.39 -12.01, 19.6 -10.98, 19.68 -10.71 C19.76 -10.45, 20.13 -11.16, 20.79 -11.03 C21.45 -10.9, 22.95 -10.69, 23.64 -9.92 C24.33 -9.15, 24.77 -7.36, 24.91 -6.43 C25.04 -5.5, 24.53 -4.68, 24.45 -4.33 M0 0 C-0.58 -0.23, -2.62 -0.66, -3.46 -1.36 C-4.3 -2.07, -4.78 -3.34, -5.04 -4.22 C-5.3 -5.09, -5.28 -5.69, -5.04 -6.59 C-4.8 -7.49, -4.27 -8.89, -3.61 -9.6 C-2.95 -10.32, -1.63 -10.63, -1.08 -10.87 C-0.52 -11.11, -0.34 -10.95, -0.29 -11.03 C-0.23 -11.11, -0.74 -10.69, -0.76 -11.35 C-0.79 -12.01, -0.84 -13.91, -0.44 -14.99 C-0.05 -16.07, 0.66 -17.1, 1.62 -17.84 C2.57 -18.58, 4.02 -19.22, 5.26 -19.43 C6.5 -19.64, 7.93 -19.45, 9.06 -19.11 C10.2 -18.77, 11.28 -18.08, 12.07 -17.37 C12.87 -16.65, 13.47 -15.39, 13.82 -14.83 C14.16 -14.28, 13.92 -14.04, 14.13 -14.04 C14.34 -14.04, 14.58 -14.62, 15.08 -14.83 C15.59 -15.04, 16.46 -15.39, 17.14 -15.31 C17.83 -15.23, 18.68 -14.81, 19.2 -14.36 C19.73 -13.91, 20.23 -13.22, 20.31 -12.61 C20.39 -12.01, 19.6 -10.98, 19.68 -10.71 C19.76 -10.45, 20.13 -11.16, 20.79 -11.03 C21.45 -10.9, 22.95 -10.69, 23.64 -9.92 C24.33 -9.15, 24.77 -7.36, 24.91 -6.43 C25.04 -5.5, 24.53 -4.68, 24.45 -4.33" stroke="#000000" stroke-width="2" fill="none"></path></g></g><mask></mask><g stroke-linecap="round" transform="translate(41.62179858170475 33.94963755763774) rotate(0 16.729837368779158 12.962431243748824)"><path d="M0 0 C7.88 0, 15.76 0, 33.46 0 M0 0 C9.71 0, 19.42 0, 33.46 0 M33.46 0 C33.46 10.03, 33.46 20.06, 33.46 25.92 M33.46 0 C33.46 9.21, 33.46 18.43, 33.46 25.92 M33.46 25.92 C20.41 25.92, 7.37 25.92, 0 25.92 M33.46 25.92 C23.22 25.92, 12.98 25.92, 0 25.92 M0 25.92 C0 17.55, 0 9.18, 0 0 M0 25.92 C0 18.56, 0 11.19, 0 0" stroke="#1e1e1e" stroke-width="2" fill="none"></path></g><g stroke-linecap="round"><g transform="translate(47.75181532751708 40.7181977144719) rotate(0 3.958969148337019 6.130016745812327)"><path d="M0 0 C2.94 2.28, 5.89 4.56, 7.92 6.13 M0 0 C1.75 1.36, 3.51 2.72, 7.92 6.13 M7.92 6.13 C6.01 7.76, 4.11 9.39, 0.77 12.26 M7.92 6.13 C6.32 7.5, 4.71 8.88, 0.77 12.26" stroke="#1e1e1e" stroke-width="2" fill="none"></path></g></g><mask></mask><g stroke-linecap="round"><g transform="translate(58.47934463268848 53.74448329932284) rotate(0 5.236055970381244 0)"><path d="M0 0 C3.08 0, 6.15 0, 10.47 0 M0 0 C2.24 0, 4.49 0, 10.47 0" stroke="#1e1e1e" stroke-width="2" fill="none"></path></g></g><mask></mask></svg>