<svg version="1.1" xmlns="http://www.w3.org/2000/svg" viewBox="0 0 170.20001220703125 105.5362375311779" width="170.20001220703125" height="105.5362375311779">
  <!-- svg-source:excalidraw -->
  
  <defs>
    
    
  </defs>
  <g stroke-linecap="round" transform="translate(52.869429921036954 6) rotate(0 32.230576182478444 32.19971236713013)"><path d="M0 0 C0 0, 0 0, 0 0 M0 0 C0 0, 0 0, 0 0 M0.13 12.04 C3.53 8.13, 6.93 4.22, 10.63 -0.03 M0.13 12.04 C2.32 9.53, 4.5 7.02, 10.63 -0.03 M0.27 24.08 C8.32 14.81, 16.38 5.55, 21.26 -0.07 M0.27 24.08 C6.84 16.51, 13.42 8.95, 21.26 -0.07 M-0.26 36.88 C8.84 26.41, 17.94 15.95, 31.89 -0.1 M-0.26 36.88 C11.86 22.94, 23.97 9.01, 31.89 -0.1 M-0.12 48.92 C10.72 36.44, 21.56 23.97, 42.52 -0.14 M-0.12 48.92 C13.59 33.14, 27.31 17.36, 42.52 -0.14 M0.01 60.96 C16.74 41.72, 33.46 22.47, 53.15 -0.17 M0.01 60.96 C18.97 39.15, 37.92 17.34, 53.15 -0.17 M7.36 64.7 C18.68 51.67, 30 38.65, 63.78 -0.21 M7.36 64.7 C23.84 45.74, 40.32 26.78, 63.78 -0.21 M17.99 64.66 C27.38 53.86, 36.77 43.06, 64.57 11.08 M17.99 64.66 C34.52 45.65, 51.04 26.64, 64.57 11.08 M28.62 64.63 C39.26 52.38, 49.91 40.14, 64.7 23.12 M28.62 64.63 C39.6 51.99, 50.59 39.36, 64.7 23.12 M39.25 64.59 C48.98 53.4, 58.72 42.2, 64.84 35.16 M39.25 64.59 C45.61 57.28, 51.97 49.97, 64.84 35.16 M49.88 64.56 C53.11 60.84, 56.34 57.13, 64.97 47.2 M49.88 64.56 C55.29 58.33, 60.7 52.11, 64.97 47.2 M60.51 64.53 C61.47 63.43, 62.42 62.32, 64.45 60 M60.51 64.53 C61.63 63.23, 62.76 61.94, 64.45 60 M-0.19 64.24 C-0.19 64.24, -0.19 64.24, -0.19 64.24 M-0.19 64.24 C-0.19 64.24, -0.19 64.24, -0.19 64.24 M11.85 64.1 C9.01 61.63, 6.16 59.15, -0.22 53.61 M11.85 64.1 C7.21 60.07, 2.57 56.03, -0.22 53.61 M24.65 64.63 C18.24 59.05, 11.82 53.48, -0.26 42.98 M24.65 64.63 C14.81 56.07, 4.96 47.51, -0.26 42.98 M36.69 64.49 C23.4 52.94, 10.1 41.38, -0.29 32.35 M36.69 64.49 C28.08 57.01, 19.47 49.52, -0.29 32.35 M48.73 64.36 C36.03 53.32, 23.34 42.29, -0.33 21.72 M48.73 64.36 C35.03 52.45, 21.33 40.54, -0.33 21.72 M60.77 64.23 C44.26 49.88, 27.75 35.52, -0.36 11.09 M60.77 64.23 C36.93 43.5, 13.09 22.78, -0.36 11.09 M65.26 57.53 C49.74 44.04, 34.22 30.55, 0.36 1.11 M65.26 57.53 C51.7 45.74, 38.13 33.95, 0.36 1.11 M65.23 46.9 C44.69 29.05, 24.15 11.2, 10.89 -0.33 M65.23 46.9 C44.32 28.72, 23.41 10.54, 10.89 -0.33 M65.2 36.27 C48.34 21.62, 31.49 6.97, 22.93 -0.47 M65.2 36.27 C53.11 25.76, 41.02 15.26, 22.93 -0.47 M65.16 25.64 C54.65 16.5, 44.13 7.36, 34.97 -0.6 M65.16 25.64 C58.62 19.96, 52.08 14.27, 34.97 -0.6 M65.13 15.01 C59.18 9.84, 53.24 4.68, 47.77 -0.08 M65.13 15.01 C59.36 10, 53.59 4.98, 47.77 -0.08 M65.09 4.38 C64.03 3.46, 62.97 2.54, 59.81 -0.21 M65.09 4.38 C63.74 3.21, 62.4 2.04, 59.81 -0.21" stroke="#e6498088" stroke-width="1" fill="none"></path><path d="M0 0 C17.78 0, 35.56 0, 64.46 0 M0 0 C23.67 0, 47.34 0, 64.46 0 M64.46 0 C64.46 23.73, 64.46 47.45, 64.46 64.4 M64.46 0 C64.46 14.57, 64.46 29.14, 64.46 64.4 M64.46 64.4 C51.25 64.4, 38.04 64.4, 0 64.4 M64.46 64.4 C47.37 64.4, 30.28 64.4, 0 64.4 M0 64.4 C0 50.87, 0 37.34, 0 0 M0 64.4 C0 50.66, 0 36.93, 0 0" stroke="#000000" stroke-width="2" fill="none"></path></g><g stroke-linecap="round"><g transform="translate(109.52020671016044 39.695934257841145) rotate(0 -24.90263842513332 -7.4610997937446655)"><path d="M0 0 C0.12 -0.8, 0.97 -3.41, 0.7 -4.83 C0.43 -6.24, -0.48 -7.67, -1.62 -8.49 C-2.76 -9.31, -5.29 -9.4, -6.13 -9.76 C-6.96 -10.11, -6.4 -9.84, -6.64 -10.61 C-6.88 -11.37, -6.7 -13.42, -7.56 -14.33 C-8.42 -15.24, -10.45 -16.19, -11.81 -16.07 C-13.16 -15.95, -14.97 -13.96, -15.69 -13.62 C-16.4 -13.27, -15.04 -12.89, -16.11 -14.01 C-17.17 -15.13, -19.62 -18.81, -22.07 -20.33 C-24.52 -21.85, -27.98 -23.26, -30.8 -23.13 C-33.63 -23.01, -37.01 -21.65, -39.03 -19.58 C-41.05 -17.5, -42.17 -12.41, -42.93 -10.68 C-43.68 -8.96, -42.45 -10.08, -43.54 -9.21 C-44.63 -8.33, -48.32 -7.36, -49.48 -5.44 C-50.64 -3.52, -51.15 0.12, -50.51 2.3 C-49.86 4.49, -47.39 6.69, -45.6 7.66 C-43.81 8.63, -41.94 8.05, -39.77 8.14 C-37.61 8.23, -34.6 8.22, -32.61 8.21 C-30.61 8.21, -28.6 8.12, -27.8 8.1 M0 0 C0.12 -0.8, 0.97 -3.41, 0.7 -4.83 C0.43 -6.24, -0.48 -7.67, -1.62 -8.49 C-2.76 -9.31, -5.29 -9.4, -6.13 -9.76 C-6.96 -10.11, -6.4 -9.84, -6.64 -10.61 C-6.88 -11.37, -6.7 -13.42, -7.56 -14.33 C-8.42 -15.24, -10.45 -16.19, -11.81 -16.07 C-13.16 -15.95, -14.97 -13.96, -15.69 -13.62 C-16.4 -13.27, -15.04 -12.89, -16.11 -14.01 C-17.17 -15.13, -19.62 -18.81, -22.07 -20.33 C-24.52 -21.85, -27.98 -23.26, -30.8 -23.13 C-33.63 -23.01, -37.01 -21.65, -39.03 -19.58 C-41.05 -17.5, -42.17 -12.41, -42.93 -10.68 C-43.68 -8.96, -42.45 -10.08, -43.54 -9.21 C-44.63 -8.33, -48.32 -7.36, -49.48 -5.44 C-50.64 -3.52, -51.15 0.12, -50.51 2.3 C-49.86 4.49, -47.39 6.69, -45.6 7.66 C-43.81 8.63, -41.94 8.05, -39.77 8.14 C-37.61 8.23, -34.6 8.22, -32.61 8.21 C-30.61 8.21, -28.6 8.12, -27.8 8.1" stroke="#000000" stroke-width="2" fill="none"></path></g></g><mask></mask><g stroke-linecap="round"><g transform="translate(96.6492977209532 39.87289675548527) rotate(90.42152887576802 2.326633822493932 0.02213361039468964)"><path d="M0 0 C1.34 0.01, 2.67 0.03, 4.65 0.04 M0 0 C1.38 0.01, 2.77 0.03, 4.65 0.04" stroke="#000000" stroke-width="2" fill="none"></path></g></g><mask></mask><g stroke-linecap="round"><g transform="translate(94.06766525797411 32.77962131864115) rotate(90.42152887576802 0.021671362349025003 7.0460542989205805)"><path d="M0 0 C0.02 5.48, 0.03 10.95, 0.04 14.09 M0 0 C0.02 4.99, 0.03 9.98, 0.04 14.09" stroke="#000000" stroke-width="2" fill="none"></path></g></g><mask></mask><g stroke-linecap="round"><g transform="translate(87.06628761857746 49.94327991856699) rotate(90.42152887576802 2.326633822493932 0.02213361039468964)"><path d="M0 0 C1.73 0.02, 3.45 0.03, 4.65 0.04 M0 0 C1.64 0.02, 3.27 0.03, 4.65 0.04" stroke="#000000" stroke-width="2" fill="none"></path></g></g><mask></mask><g stroke-linecap="round"><g transform="translate(94.0911290427839 43.09159115792136) rotate(90.42152887576802 0.021671362349025003 7.0460542989205805)"><path d="M0 0 C0.01 3.38, 0.02 6.75, 0.04 14.09 M0 0 C0.01 4.85, 0.03 9.7, 0.04 14.09" stroke="#000000" stroke-width="2" fill="none"></path></g></g><mask></mask><g stroke-linecap="round"><g transform="translate(91.86027158137404 45.05733527446864) rotate(90.42152887576802 2.326633822493932 0.02213361039468964)"><path d="M0 0 C0.95 0.01, 1.9 0.02, 4.65 0.04 M0 0 C1.64 0.02, 3.29 0.03, 4.65 0.04" stroke="#000000" stroke-width="2" fill="none"></path></g></g><mask></mask><g stroke-linecap="round"><g transform="translate(94.22742869664171 37.722473161422386) rotate(90.42152887576802 0.021671362349025003 7.0460542989205805)"><path d="M0 0 C0.02 5.19, 0.03 10.38, 0.04 14.09 M0 0 C0.01 3.19, 0.02 6.38, 0.04 14.09" stroke="#000000" stroke-width="2" fill="none"></path></g></g><mask></mask><g stroke-linecap="round"><g transform="translate(90.23566968138357 59.99542563477007) rotate(0 3.79813927868895 -14.929445471571853)"><path d="M0 0 C1.02 0.03, 5.11 0.67, 6.1 0.16 C7.1 -0.35, 5.39 -2.2, 5.97 -3.07 C6.55 -3.95, 8.49 -5.12, 9.57 -5.1 C10.65 -5.08, 11.29 -2.48, 12.46 -2.95 C13.63 -3.43, 16.38 -6.78, 16.6 -7.95 C16.82 -9.12, 14.13 -9.1, 13.8 -9.98 C13.47 -10.86, 13.89 -12.7, 14.59 -13.24 C15.29 -13.78, 17.43 -12.26, 18 -13.23 C18.57 -14.2, 18.55 -18.09, 18.01 -19.06 C17.47 -20.03, 15.52 -18.67, 14.75 -19.06 C13.98 -19.44, 13.26 -20.49, 13.39 -21.37 C13.53 -22.25, 15.88 -23.23, 15.56 -24.35 C15.24 -25.47, 12.52 -27.88, 11.45 -28.08 C10.39 -28.28, 9.97 -25.8, 9.16 -25.57 C8.34 -25.34, 6.97 -25.99, 6.56 -26.71 C6.16 -27.43, 7.64 -29.35, 6.75 -29.9 C5.85 -30.45, 2.13 -30.51, 1.19 -30.02 C0.25 -29.53, 1.49 -27.68, 1.09 -26.97 C0.7 -26.26, -0.34 -25.52, -1.17 -25.74 C-2.01 -25.95, -2.76 -28.55, -3.91 -28.26 C-5.07 -27.98, -7.81 -25.08, -8.12 -24.05 C-8.43 -23.02, -5.95 -22.89, -5.79 -22.11 C-5.63 -21.32, -6.41 -19.84, -7.14 -19.35 C-7.87 -18.86, -9.62 -20.16, -10.17 -19.17 C-10.71 -18.19, -10.84 -14.39, -10.41 -13.44 C-9.98 -12.5, -8.23 -14.04, -7.57 -13.5 C-6.92 -12.97, -6.22 -11.05, -6.49 -10.23 C-6.76 -9.4, -9.35 -9.71, -9.18 -8.58 C-9.02 -7.44, -6.57 -3.99, -5.49 -3.41 C-4.41 -2.83, -3.6 -5.09, -2.68 -5.1 C-1.75 -5.1, -0.38 -4.3, 0.07 -3.45 C0.51 -2.6, 0.01 -0.57, 0 0 M0 0 C1.02 0.03, 5.11 0.67, 6.1 0.16 C7.1 -0.35, 5.39 -2.2, 5.97 -3.07 C6.55 -3.95, 8.49 -5.12, 9.57 -5.1 C10.65 -5.08, 11.29 -2.48, 12.46 -2.95 C13.63 -3.43, 16.38 -6.78, 16.6 -7.95 C16.82 -9.12, 14.13 -9.1, 13.8 -9.98 C13.47 -10.86, 13.89 -12.7, 14.59 -13.24 C15.29 -13.78, 17.43 -12.26, 18 -13.23 C18.57 -14.2, 18.55 -18.09, 18.01 -19.06 C17.47 -20.03, 15.52 -18.67, 14.75 -19.06 C13.98 -19.44, 13.26 -20.49, 13.39 -21.37 C13.53 -22.25, 15.88 -23.23, 15.56 -24.35 C15.24 -25.47, 12.52 -27.88, 11.45 -28.08 C10.39 -28.28, 9.97 -25.8, 9.16 -25.57 C8.34 -25.34, 6.97 -25.99, 6.56 -26.71 C6.16 -27.43, 7.64 -29.35, 6.75 -29.9 C5.85 -30.45, 2.13 -30.51, 1.19 -30.02 C0.25 -29.53, 1.49 -27.68, 1.09 -26.97 C0.7 -26.26, -0.34 -25.52, -1.17 -25.74 C-2.01 -25.95, -2.76 -28.55, -3.91 -28.26 C-5.07 -27.98, -7.81 -25.08, -8.12 -24.05 C-8.43 -23.02, -5.95 -22.89, -5.79 -22.11 C-5.63 -21.32, -6.41 -19.84, -7.14 -19.35 C-7.87 -18.86, -9.62 -20.16, -10.17 -19.17 C-10.71 -18.19, -10.84 -14.39, -10.41 -13.44 C-9.98 -12.5, -8.23 -14.04, -7.57 -13.5 C-6.92 -12.97, -6.22 -11.05, -6.49 -10.23 C-6.76 -9.4, -9.35 -9.71, -9.18 -8.58 C-9.02 -7.44, -6.57 -3.99, -5.49 -3.41 C-4.41 -2.83, -3.6 -5.09, -2.68 -5.1 C-1.75 -5.1, -0.38 -4.3, 0.07 -3.45 C0.51 -2.6, 0.01 -0.57, 0 0" stroke="#000000" stroke-width="2" fill="none"></path></g></g><mask></mask><g transform="translate(6 75.5362375311779) rotate(0 79.10000610351562 12)"><text x="79.10000610351562" y="0" font-family="Virgil, Segoe UI Emoji" font-size="20px" fill="#000000" text-anchor="middle" style="white-space: pre;" direction="ltr" dominant-baseline="text-before-edge">System Manager</text></g></svg>