<svg xmlns="http://www.w3.org/2000/svg" viewBox="1836.95 3406.87 120.40 105.47" width="120" height="105"><rect x="1865.22" y="3412.87" width="64.46" height="64.40" rx="0" stroke="#000000" stroke-width="2" opacity="1.0" fill="none"/><text x="1883.09" y="3468.21" font-size="16.073998572433393" fill="#000000" opacity="1.0" font-family="sans-serif">&lt;/&gt;</text><rect x="1880.59" y="3452.53" width="33.32" height="20.31" rx="0" stroke="#000000" stroke-width="2" opacity="1.0" fill="none"/><polyline points="1871.10,3442.62 1872.47,3435.16 1876.79,3427.31 1882.09,3422.60 1886.80,3419.66 1892.89,3418.28 1898.58,3418.08 1903.88,3418.87 1908.40,3420.24 1913.70,3423.58 1916.84,3426.92 1919.78,3430.85 1921.94,3436.54 1922.93,3442.82" fill="none" stroke="#000000" stroke-width="2" opacity="1.0" stroke-linecap="round" stroke-linejoin="round"/><polyline points="1871.19,3442.72 1880.81,3449.20" fill="none" stroke="#000000" stroke-width="2" opacity="1.0" stroke-linecap="round" stroke-linejoin="round"/><polyline points="1914.03,3443.11 1922.99,3449.01" fill="none" stroke="#000000" stroke-width="2" opacity="1.0" stroke-linecap="round" stroke-linejoin="round" transform="rotate(111.80 1918.51 3446.06)"/><polyline points="1895.05,3418.28 1892.69,3421.03 1891.12,3425.15 1890.14,3428.88 1888.96,3434.97 1888.77,3441.05 1889.16,3445.18 1890.34,3449.10" fill="none" stroke="#000000" stroke-width="2" opacity="1.0" stroke-linecap="round" stroke-linejoin="round"/><polyline points="1899.17,3418.18 1901.53,3420.93 1903.10,3425.05 1904.08,3428.78 1905.26,3434.87 1905.45,3440.96 1905.06,3445.08 1903.88,3449.00" fill="none" stroke="#000000" stroke-width="2" opacity="1.0" stroke-linecap="round" stroke-linejoin="round"/><polyline points="1871.49,3442.43 1873.26,3439.68 1875.22,3437.91 1878.36,3437.13 1881.50,3437.32 1884.25,3438.31 1886.41,3439.88 1888.18,3441.64" fill="none" stroke="#000000" stroke-width="2" opacity="1.0" stroke-linecap="round" stroke-linejoin="round"/><polyline points="1889.16,3441.25 1890.34,3439.29 1892.89,3437.91 1895.64,3436.93 1898.39,3436.93 1901.33,3437.91 1903.29,3439.48 1905.26,3441.64" fill="none" stroke="#000000" stroke-width="2" opacity="1.0" stroke-linecap="round" stroke-linejoin="round"/><polyline points="1905.85,3441.45 1907.81,3438.89 1910.75,3437.32 1913.50,3436.93 1915.86,3437.32 1918.80,3438.50 1920.77,3440.27 1922.53,3442.23" fill="none" stroke="#000000" stroke-width="2" opacity="1.0" stroke-linecap="round" stroke-linejoin="round"/><text x="1842.95" y="3502.34" font-size="20" fill="#000000" opacity="1.0" font-family="sans-serif">CodeDeploy</text></svg>