<svg version="1.1" xmlns="http://www.w3.org/2000/svg" viewBox="0 0 113.54000091552734 104.60849282286836" width="113.54000091552734" height="104.60849282286836">
  <!-- svg-source:excalidraw -->
  
  <defs>
    
    
  </defs>
  <g stroke-linecap="round" transform="translate(25.673796880547343 6) rotate(0 32.540420532226506 32.54042053222656)"><path d="M0 0 C0 0, 0 0, 0 0 M0 0 C0 0, 0 0, 0 0 M0.13 12.04 C3.91 7.7, 7.69 3.35, 10.63 -0.03 M0.13 12.04 C2.76 9.02, 5.38 6, 10.63 -0.03 M0.27 24.08 C4.92 18.73, 9.58 13.37, 21.26 -0.07 M0.27 24.08 C8.25 14.9, 16.23 5.71, 21.26 -0.07 M-0.26 36.88 C9.51 25.64, 19.28 14.4, 31.89 -0.1 M-0.26 36.88 C10.85 24.1, 21.95 11.33, 31.89 -0.1 M-0.12 48.92 C9.77 37.54, 19.66 26.16, 42.52 -0.14 M-0.12 48.92 C14.15 32.5, 28.42 16.08, 42.52 -0.14 M0.01 60.96 C18.47 39.72, 36.93 18.48, 53.15 -0.17 M0.01 60.96 C20.84 37, 41.67 13.03, 53.15 -0.17 M6.7 65.45 C20.53 49.55, 34.36 33.64, 63.78 -0.21 M6.7 65.45 C25.6 43.71, 44.5 21.97, 63.78 -0.21 M17.33 65.42 C36.41 43.47, 55.49 21.52, 65.88 9.57 M17.33 65.42 C34.4 45.78, 51.47 26.15, 65.88 9.57 M27.96 65.38 C39.2 52.46, 50.43 39.54, 66.02 21.61 M27.96 65.38 C41.44 49.89, 54.91 34.39, 66.02 21.61 M38.59 65.35 C46.61 56.13, 54.62 46.91, 65.49 34.41 M38.59 65.35 C48.18 54.33, 57.76 43.3, 65.49 34.41 M49.22 65.31 C54.77 58.94, 60.31 52.57, 65.63 46.45 M49.22 65.31 C52.64 61.38, 56.06 57.45, 65.63 46.45 M59.85 65.28 C62.06 62.74, 64.27 60.2, 65.76 58.49 M59.85 65.28 C61.09 63.86, 62.32 62.45, 65.76 58.49 M0.23 65.28 C0.23 65.28, 0.23 65.28, 0.23 65.28 M0.23 65.28 C0.23 65.28, 0.23 65.28, 0.23 65.28 M12.27 65.15 C8.79 62.12, 5.31 59.09, 0.19 54.65 M12.27 65.15 C8.87 62.19, 5.48 59.24, 0.19 54.65 M24.31 65.01 C16.96 58.62, 9.6 52.23, 0.16 44.02 M24.31 65.01 C16.3 58.05, 8.29 51.09, 0.16 44.02 M36.35 64.88 C23.24 53.48, 10.12 42.08, 0.13 33.39 M36.35 64.88 C28.48 58.04, 20.61 51.19, 0.13 33.39 M49.15 65.4 C32.16 50.64, 15.18 35.88, 0.09 22.76 M49.15 65.4 C38.76 56.37, 28.37 47.34, 0.09 22.76 M61.19 65.27 C44.62 50.87, 28.05 36.47, 0.06 12.13 M61.19 65.27 C47.11 53.03, 33.03 40.79, 0.06 12.13 M64.93 57.92 C51.1 45.9, 37.27 33.88, 0.02 1.5 M64.93 57.92 C42.49 38.42, 20.06 18.91, 0.02 1.5 M65.65 47.95 C46.31 31.14, 26.98 14.33, 9.8 -0.6 M65.65 47.95 C54.26 38.05, 42.88 28.15, 9.8 -0.6 M65.61 37.32 C53.54 26.82, 41.47 16.33, 21.84 -0.74 M65.61 37.32 C50.75 24.39, 35.88 11.47, 21.84 -0.74 M65.58 26.69 C56.92 19.16, 48.27 11.64, 33.88 -0.87 M65.58 26.69 C53.15 15.88, 40.72 5.08, 33.88 -0.87 M65.54 16.06 C61.59 12.62, 57.64 9.18, 46.68 -0.35 M65.54 16.06 C61.39 12.44, 57.23 8.83, 46.68 -0.35 M65.51 5.43 C62.85 3.11, 60.19 0.8, 58.72 -0.48 M65.51 5.43 C63.34 3.54, 61.17 1.66, 58.72 -0.48" stroke="#eebefa" stroke-width="1" fill="none"></path><path d="M0 0 C15.48 0, 30.97 0, 65.08 0 M0 0 C21.4 0, 42.81 0, 65.08 0 M65.08 0 C65.08 21.67, 65.08 43.34, 65.08 65.08 M65.08 0 C65.08 20.61, 65.08 41.22, 65.08 65.08 M65.08 65.08 C41.95 65.08, 18.81 65.08, 0 65.08 M65.08 65.08 C41.58 65.08, 18.08 65.08, 0 65.08 M0 65.08 C0 47.69, 0 30.3, 0 0 M0 65.08 C0 51.15, 0 37.21, 0 0" stroke="#000000" stroke-width="2" fill="none"></path></g><g stroke-linecap="round"><g transform="translate(61.80459757627159 21.280230484600906) rotate(0 6.8426058235760365 14.75109117635202)"><path d="M0 0 C3.16 -0.02, 6.33 -0.04, 11.29 -0.08 M0 0 C4.36 -0.03, 8.72 -0.06, 11.29 -0.08 M11.29 -0.08 C10.62 3.11, 9.95 6.3, 8.92 11.18 M11.29 -0.08 C10.74 2.53, 10.19 5.14, 8.92 11.18 M8.92 11.18 C12.11 11.16, 15.29 11.14, 17.04 11.13 M8.92 11.18 C11.01 11.17, 13.09 11.16, 17.04 11.13 M17.04 11.13 C12.99 15.78, 8.94 20.42, 0.95 29.58 M17.04 11.13 C10.63 18.48, 4.22 25.84, 0.95 29.58 M0.95 29.58 C1.8 25.56, 2.65 21.54, 4.5 12.79 M0.95 29.58 C2.12 24.05, 3.29 18.51, 4.5 12.79 M4.5 12.79 C2.91 12.81, 1.32 12.84, -3.35 12.91 M4.5 12.79 C1.56 12.83, -1.38 12.88, -3.35 12.91 M-3.35 12.91 C-2.38 9.15, -1.4 5.38, 0 0 M-3.35 12.91 C-2.27 8.73, -1.18 4.54, 0 0" stroke="#000000" stroke-width="2" fill="none"></path></g></g><mask></mask><g stroke-linecap="round"><g transform="translate(68.02067358155728 18.24951928190785) rotate(0 -15.061825738915843 4.855322700205761)"><path d="M0 0 C-0.78 -0.22, -2.83 -0.97, -4.71 -1.32 C-6.58 -1.66, -8.8 -2.04, -11.24 -2.07 C-13.67 -2.09, -16.88 -1.86, -19.32 -1.45 C-21.77 -1.04, -24.41 -0.17, -25.92 0.38 C-27.44 0.94, -27.77 1.38, -28.41 1.89 C-29.04 2.4, -29.46 2.81, -29.75 3.42 C-30.03 4.04, -30.27 4.9, -30.12 5.58 C-29.98 6.26, -29.58 6.84, -28.9 7.5 C-28.21 8.16, -27.18 8.97, -26.04 9.52 C-24.9 10.07, -23.41 10.48, -22.04 10.81 C-20.68 11.14, -19.34 11.33, -17.86 11.49 C-16.38 11.65, -14.56 11.77, -13.14 11.78 C-11.73 11.78, -9.99 11.58, -9.36 11.54 M0 0 C-0.78 -0.22, -2.83 -0.97, -4.71 -1.32 C-6.58 -1.66, -8.8 -2.04, -11.24 -2.07 C-13.67 -2.09, -16.88 -1.86, -19.32 -1.45 C-21.77 -1.04, -24.41 -0.17, -25.92 0.38 C-27.44 0.94, -27.77 1.38, -28.41 1.89 C-29.04 2.4, -29.46 2.81, -29.75 3.42 C-30.03 4.04, -30.27 4.9, -30.12 5.58 C-29.98 6.26, -29.58 6.84, -28.9 7.5 C-28.21 8.16, -27.18 8.97, -26.04 9.52 C-24.9 10.07, -23.41 10.48, -22.04 10.81 C-20.68 11.14, -19.34 11.33, -17.86 11.49 C-16.38 11.65, -14.56 11.77, -13.14 11.78 C-11.73 11.78, -9.99 11.58, -9.36 11.54" stroke="#000000" stroke-width="2" fill="none"></path></g></g><mask></mask><g stroke-linecap="round"><g transform="translate(38.06784983118132 22.87048695665726) rotate(0 -0.0759000701664263 15.725015039237405)"><path d="M0 0 C-0.03 5.24, -0.13 26.21, -0.15 31.45 M0 0 C-0.03 5.24, -0.13 26.21, -0.15 31.45" stroke="#000000" stroke-width="2" fill="none"></path></g></g><mask></mask><g stroke-linecap="round"><g transform="translate(37.744182498358896 53.97526797127466) rotate(0 18.165458324679093 3.4606259299866906)"><path d="M0 0 C0.07 0.26, 0.1 1.02, 0.43 1.53 C0.75 2.05, 1.23 2.57, 1.94 3.1 C2.64 3.63, 3.55 4.23, 4.65 4.71 C5.75 5.19, 7.2 5.63, 8.53 5.97 C9.85 6.3, 11.08 6.55, 12.6 6.71 C14.11 6.87, 15.85 6.92, 17.6 6.92 C19.35 6.93, 21.38 6.91, 23.08 6.74 C24.78 6.58, 26.27 6.33, 27.78 5.94 C29.3 5.55, 30.95 4.97, 32.16 4.41 C33.36 3.86, 34.34 3.31, 35.04 2.6 C35.73 1.9, 36.12 0.6, 36.33 0.2 M0 0 C0.07 0.26, 0.1 1.02, 0.43 1.53 C0.75 2.05, 1.23 2.57, 1.94 3.1 C2.64 3.63, 3.55 4.23, 4.65 4.71 C5.75 5.19, 7.2 5.63, 8.53 5.97 C9.85 6.3, 11.08 6.55, 12.6 6.71 C14.11 6.87, 15.85 6.92, 17.6 6.92 C19.35 6.93, 21.38 6.91, 23.08 6.74 C24.78 6.58, 26.27 6.33, 27.78 5.94 C29.3 5.55, 30.95 4.97, 32.16 4.41 C33.36 3.86, 34.34 3.31, 35.04 2.6 C35.73 1.9, 36.12 0.6, 36.33 0.2" stroke="#000000" stroke-width="2" fill="none"></path></g></g><mask></mask><g stroke-linecap="round"><g transform="translate(74.11056217780015 54.27644476572823) rotate(0 -0.0400852437006165 -7.298939482208198)"><path d="M0 0 C-0.01 -2.43, -0.07 -12.16, -0.08 -14.6 M0 0 C-0.01 -2.43, -0.07 -12.16, -0.08 -14.6" stroke="#000000" stroke-width="2" fill="none"></path></g></g><mask></mask><g stroke-linecap="round"><g transform="translate(37.87378526398152 31.274648530506965) rotate(0 10.664985931171884 3.217568830049231)"><path d="M0 0 C0.1 0.28, 0.16 1.1, 0.58 1.67 C1 2.24, 1.67 2.83, 2.53 3.4 C3.38 3.98, 4.63 4.74, 5.7 5.14 C6.78 5.53, 7.74 5.56, 8.96 5.77 C10.17 5.99, 11.56 6.33, 13 6.44 C14.43 6.54, 16.2 6.39, 17.59 6.38 C18.98 6.36, 20.71 6.34, 21.33 6.34 M0 0 C0.1 0.28, 0.16 1.1, 0.58 1.67 C1 2.24, 1.67 2.83, 2.53 3.4 C3.38 3.98, 4.63 4.74, 5.7 5.14 C6.78 5.53, 7.74 5.56, 8.96 5.77 C10.17 5.99, 11.56 6.33, 13 6.44 C14.43 6.54, 16.2 6.39, 17.59 6.38 C18.98 6.36, 20.71 6.34, 21.33 6.34" stroke="#000000" stroke-width="2" fill="none"></path></g></g><mask></mask><g stroke-linecap="round"><g transform="translate(37.75950518537138 34.63711838288509) rotate(0 12.014454878583138 3.4136415682821735)"><path d="M0 0 C0.08 0.29, 0.07 1.16, 0.46 1.74 C0.85 2.32, 1.41 2.9, 2.32 3.48 C3.23 4.06, 4.57 4.75, 5.91 5.22 C7.26 5.69, 8.8 6.03, 10.41 6.3 C12.02 6.57, 13.9 6.77, 15.59 6.83 C17.27 6.89, 19.1 6.77, 20.51 6.66 C21.92 6.54, 23.44 6.24, 24.03 6.15 M0 0 C0.08 0.29, 0.07 1.16, 0.46 1.74 C0.85 2.32, 1.41 2.9, 2.32 3.48 C3.23 4.06, 4.57 4.75, 5.91 5.22 C7.26 5.69, 8.8 6.03, 10.41 6.3 C12.02 6.57, 13.9 6.77, 15.59 6.83 C17.27 6.89, 19.1 6.77, 20.51 6.66 C21.92 6.54, 23.44 6.24, 24.03 6.15" stroke="#000000" stroke-width="2" fill="none"></path></g></g><mask></mask><g stroke-linecap="round"><g transform="translate(37.81103358372184 42.8941997512411) rotate(0 11.9232467795876 3.2510188030348672)"><path d="M0 0 C0.09 0.28, 0.18 1.14, 0.54 1.69 C0.89 2.24, 1.23 2.73, 2.12 3.32 C3.02 3.91, 4.44 4.78, 5.89 5.25 C7.33 5.72, 9.24 5.94, 10.8 6.15 C12.35 6.36, 13.59 6.46, 15.23 6.5 C16.86 6.55, 19.16 6.51, 20.6 6.41 C22.03 6.31, 23.3 6, 23.85 5.92 M0 0 C0.09 0.28, 0.18 1.14, 0.54 1.69 C0.89 2.24, 1.23 2.73, 2.12 3.32 C3.02 3.91, 4.44 4.78, 5.89 5.25 C7.33 5.72, 9.24 5.94, 10.8 6.15 C12.35 6.36, 13.59 6.46, 15.23 6.5 C16.86 6.55, 19.16 6.51, 20.6 6.41 C22.03 6.31, 23.3 6, 23.85 5.92" stroke="#000000" stroke-width="2" fill="none"></path></g></g><mask></mask><g stroke-linecap="round"><g transform="translate(37.58475521694709 46.89399761651839) rotate(0 18.330814841005008 2.711729602283185)"><path d="M0 0 C0.18 0.29, 0.47 1.15, 1.1 1.73 C1.73 2.32, 2.79 3.05, 3.77 3.53 C4.74 4.01, 5.39 4.2, 6.96 4.62 C8.54 5.04, 11.18 5.8, 13.23 6.05 C15.27 6.31, 17.35 6.21, 19.24 6.14 C21.13 6.08, 22.91 5.88, 24.57 5.65 C26.23 5.42, 27.69 5.18, 29.18 4.75 C30.68 4.33, 32.43 3.67, 33.53 3.08 C34.63 2.49, 35.25 1.85, 35.77 1.21 C36.3 0.58, 36.51 -0.4, 36.66 -0.72 M0 0 C0.18 0.29, 0.47 1.15, 1.1 1.73 C1.73 2.32, 2.79 3.05, 3.77 3.53 C4.74 4.01, 5.39 4.2, 6.96 4.62 C8.54 5.04, 11.18 5.8, 13.23 6.05 C15.27 6.31, 17.35 6.21, 19.24 6.14 C21.13 6.08, 22.91 5.88, 24.57 5.65 C26.23 5.42, 27.69 5.18, 29.18 4.75 C30.68 4.33, 32.43 3.67, 33.53 3.08 C34.63 2.49, 35.25 1.85, 35.77 1.21 C36.3 0.58, 36.51 -0.4, 36.66 -0.72" stroke="#000000" stroke-width="2" fill="none"></path></g></g><mask></mask><g stroke-linecap="round"><g transform="translate(68.45299225081953 47.09184399486003) rotate(0 2.7091546481839828 -1.7684364552387706)"><path d="M0 0 C0.65 -0.36, 3.03 -1.57, 3.93 -2.16 C4.83 -2.75, 5.17 -3.31, 5.42 -3.54 M0 0 C0.65 -0.36, 3.03 -1.57, 3.93 -2.16 C4.83 -2.75, 5.17 -3.31, 5.42 -3.54" stroke="#000000" stroke-width="2" fill="none"></path></g></g><mask></mask><g stroke-linecap="round"><g transform="translate(41.0929022053806 29.505581773411905) rotate(0 2.097595720521497 2.2806300052175175)"><path d="M0 0 C1.7 0.67, 3.41 1.34, 4.34 1.72 M0 0 C1.31 0.52, 2.63 1.04, 4.34 1.72 M4.34 1.72 C4.31 2.44, 4.28 3.17, 4.23 4.56 M4.34 1.72 C4.32 2.31, 4.29 2.9, 4.23 4.56 M4.23 4.56 C2.53 3.9, 0.83 3.24, -0.15 2.86 M4.23 4.56 C2.52 3.9, 0.8 3.23, -0.15 2.86 M-0.15 2.86 C-0.11 2.03, -0.06 1.2, 0 0 M-0.15 2.86 C-0.1 1.86, -0.04 0.85, 0 0" stroke="#000000" stroke-width="2" fill="none"></path></g></g><mask></mask><g stroke-linecap="round"><g transform="translate(41.14900395674249 41.31764135094454) rotate(0 2.097595720521497 2.2806300052175175)"><path d="M0 0 C1.28 0.5, 2.56 1.01, 4.34 1.72 M0 0 C1.58 0.62, 3.16 1.25, 4.34 1.72 M4.34 1.72 C4.3 2.8, 4.25 3.88, 4.23 4.56 M4.34 1.72 C4.3 2.69, 4.26 3.67, 4.23 4.56 M4.23 4.56 C3.25 4.18, 2.28 3.8, -0.15 2.86 M4.23 4.56 C2.64 3.94, 1.05 3.32, -0.15 2.86 M-0.15 2.86 C-0.1 1.91, -0.05 0.96, 0 0 M-0.15 2.86 C-0.1 1.91, -0.05 0.97, 0 0" stroke="#000000" stroke-width="2" fill="none"></path></g></g><mask></mask><g stroke-linecap="round"><g transform="translate(41.30343768390503 52.68031280542891) rotate(0 2.097595720521497 2.2806300052175175)"><path d="M0 0 C1.57 0.62, 3.14 1.24, 4.34 1.72 M0 0 C1.6 0.63, 3.2 1.26, 4.34 1.72 M4.34 1.72 C4.3 2.7, 4.26 3.68, 4.23 4.56 M4.34 1.72 C4.31 2.53, 4.28 3.34, 4.23 4.56 M4.23 4.56 C3 4.09, 1.78 3.61, -0.15 2.86 M4.23 4.56 C2.51 3.9, 0.8 3.23, -0.15 2.86 M-0.15 2.86 C-0.09 1.8, -0.04 0.74, 0 0 M-0.15 2.86 C-0.09 1.8, -0.04 0.75, 0 0" stroke="#000000" stroke-width="2" fill="none"></path></g></g><mask></mask><g transform="translate(6 74.60849282286836) rotate(0 50.77000045776367 12)"><text x="0" y="0" font-family="Virgil, Segoe UI Emoji" font-size="20px" fill="#000000" text-anchor="start" style="white-space: pre;" direction="ltr" dominant-baseline="text-before-edge">DynamoDB</text></g></svg>