<svg xmlns="http://www.w3.org/2000/svg" viewBox="958.77 2958.01 119.56 129.21" width="120" height="129"><text x="964.77" y="3053.22" font-size="20" fill="#000000" opacity="1.0" font-family="sans-serif">Comprehend
Medical</text><rect x="986.23" y="2964.01" width="64.64" height="64.64" rx="0" stroke="#000000" stroke-width="2" opacity="1.0" fill="none"/><polyline points="1022.21,3017.62 1002.29,3017.62 1002.29,2971.37 1027.94,2971.37 1036.18,2979.38 1036.18,3000.68" fill="none" stroke="#000000" stroke-width="2" opacity="1.0" stroke-linecap="round" stroke-linejoin="round"/><polyline points="1027.94,2971.60 1027.94,2979.61 1035.95,2979.61" fill="none" stroke="#000000" stroke-width="2" opacity="1.0" stroke-linecap="round" stroke-linejoin="round"/><polyline points="1006.99,2983.28 1022.79,2983.28" fill="none" stroke="#000000" stroke-width="2" opacity="1.0" stroke-linecap="round" stroke-linejoin="round"/><polyline points="1002.06,3016.94 994.05,2977.10 1002.06,2975.49" fill="none" stroke="#000000" stroke-width="2" opacity="1.0" stroke-linecap="round" stroke-linejoin="round"/><polyline points="1006.99,2994.04 1029.66,2994.04" fill="none" stroke="#000000" stroke-width="2" opacity="1.0" stroke-linecap="round" stroke-linejoin="round"/><polyline points="1006.99,2999.53 1029.66,2999.53" fill="none" stroke="#000000" stroke-width="2" opacity="1.0" stroke-linecap="round" stroke-linejoin="round"/><polyline points="1006.99,3004.80 1022.79,3004.80" fill="none" stroke="#000000" stroke-width="2" opacity="1.0" stroke-linecap="round" stroke-linejoin="round"/><polyline points="1015.46,2989.00 1031.26,2989.00" fill="none" stroke="#000000" stroke-width="2" opacity="1.0" stroke-linecap="round" stroke-linejoin="round"/><polyline points="1006.99,2989.00 1012.02,2989.00" fill="none" stroke="#000000" stroke-width="2" opacity="1.0" stroke-linecap="round" stroke-linejoin="round"/><polyline points="1030.46,3008.01 1030.46,3001.82 1036.87,3001.82 1036.87,3007.78 1043.05,3007.78 1043.05,3015.33 1037.33,3015.33 1037.33,3021.29 1030.69,3021.29 1030.69,3015.33 1025.42,3015.33 1025.42,3008.01 1030.46,3008.01" fill="none" stroke="#000000" stroke-width="2" opacity="1.0" stroke-linecap="round" stroke-linejoin="round"/></svg>