<svg version="1.1" xmlns="http://www.w3.org/2000/svg" viewBox="0 0 98.06000518798828 99.15402530134293" width="98.06000518798828" height="99.15402530134293">
  <!-- svg-source:excalidraw -->
  
  <defs>
    
    
  </defs>
  <g stroke-linecap="round" transform="translate(25.521373781688908 12.455927561791668) rotate(0 23.497642460793486 23.497642460793486)"><path d="M0 0 C11.35 0, 22.71 0, 47 0 M0 0 C15.38 0, 30.76 0, 47 0 M47 0 C47 14.58, 47 29.15, 47 47 M47 0 C47 10.03, 47 20.06, 47 47 M47 47 C29.2 47, 11.41 47, 0 47 M47 47 C33.06 47, 19.12 47, 0 47 M0 47 C0 30.44, 0 13.88, 0 0 M0 47 C0 31.08, 0 15.17, 0 0" stroke="#f08c00" stroke-width="2" fill="none"></path></g><g stroke-linecap="round"><g transform="translate(31.07590217725783 6) rotate(0 0 2.6710976444355765)"><path d="M0 0 C0 1.98, 0 3.96, 0 5.34 M0 0 C0 2.1, 0 4.2, 0 5.34" stroke="#f08c00" stroke-width="2" fill="none"></path></g></g><mask></mask><g stroke-linecap="round"><g transform="translate(40.04745920987011 6) rotate(0 0 2.6710976444355765)"><path d="M0 0 C0 2.04, 0 4.09, 0 5.34 M0 0 C0 1.51, 0 3.02, 0 5.34" stroke="#f08c00" stroke-width="2" fill="none"></path></g></g><mask></mask><g stroke-linecap="round"><g transform="translate(49.019016242482394 6) rotate(0 0 2.6710976444355765)"><path d="M0 0 C0 1.79, 0 3.59, 0 5.34 M0 0 C0 1.08, 0 2.16, 0 5.34" stroke="#f08c00" stroke-width="2" fill="none"></path></g></g><mask></mask><g stroke-linecap="round"><g transform="translate(57.990573275094675 6) rotate(0 0 2.6710976444355765)"><path d="M0 0 C0 1.11, 0 2.21, 0 5.34 M0 0 C0 1.94, 0 3.87, 0 5.34" stroke="#f08c00" stroke-width="2" fill="none"></path></g></g><mask></mask><g stroke-linecap="round"><g transform="translate(66.96213030770696 6) rotate(0 0 2.6710976444355765)"><path d="M0 0 C0 2.11, 0 4.22, 0 5.34 M0 0 C0 2.01, 0 4.02, 0 5.34" stroke="#f08c00" stroke-width="2" fill="none"></path></g></g><mask></mask><g stroke-linecap="round"><g transform="translate(31.07590217725783 60.18854438110225) rotate(0 0 2.6710976444355765)"><path d="M0 0 C0 1.99, 0 3.97, 0 5.34 M0 0 C0 1.61, 0 3.22, 0 5.34" stroke="#f08c00" stroke-width="2" fill="none"></path></g></g><mask></mask><g stroke-linecap="round"><g transform="translate(40.04745920987034 60.18854438110225) rotate(0 0 2.6710976444355765)"><path d="M0 0 C0 1.6, 0 3.21, 0 5.34 M0 0 C0 1.95, 0 3.91, 0 5.34" stroke="#f08c00" stroke-width="2" fill="none"></path></g></g><mask></mask><g stroke-linecap="round"><g transform="translate(49.019016242482394 60.18854438110225) rotate(0 0 2.6710976444355765)"><path d="M0 0 C0 1.34, 0 2.68, 0 5.34 M0 0 C0 1.51, 0 3.02, 0 5.34" stroke="#f08c00" stroke-width="2" fill="none"></path></g></g><mask></mask><g stroke-linecap="round"><g transform="translate(57.9905732750949 60.18854438110225) rotate(0 0 2.6710976444355765)"><path d="M0 0 C0 2.11, 0 4.22, 0 5.34 M0 0 C0 1.37, 0 2.73, 0 5.34" stroke="#f08c00" stroke-width="2" fill="none"></path></g></g><mask></mask><g stroke-linecap="round"><g transform="translate(66.96213030770696 60.18854438110225) rotate(0 0 2.6710976444355765)"><path d="M0 0 C0 1.12, 0 2.24, 0 5.34 M0 0 C0 1.29, 0 2.58, 0 5.34" stroke="#f08c00" stroke-width="2" fill="none"></path></g></g><mask></mask><g stroke-linecap="round"><g transform="translate(76.21952213784539 15.3403561744135) rotate(89.39573719151072 0 2.6710976444355765)"><path d="M0 0 C0 1.75, 0 3.5, 0 5.34 M0 0 C0 2.08, 0 4.17, 0 5.34" stroke="#f08c00" stroke-width="2" fill="none"></path></g></g><mask></mask><g stroke-linecap="round"><g transform="translate(76.31413779365198 24.311414276281994) rotate(89.39573719151072 0 2.6710976444355765)"><path d="M0 0 C0 1.34, 0 2.68, 0 5.34 M0 0 C0 1.23, 0 2.47, 0 5.34" stroke="#f08c00" stroke-width="2" fill="none"></path></g></g><mask></mask><g stroke-linecap="round"><g transform="translate(76.40875344945857 33.28247237814958) rotate(89.39573719151072 0 2.6710976444355765)"><path d="M0 0 C0 2.02, 0 4.04, 0 5.34 M0 0 C0 1.37, 0 2.74, 0 5.34" stroke="#f08c00" stroke-width="2" fill="none"></path></g></g><mask></mask><g stroke-linecap="round"><g transform="translate(76.50336910526494 42.25353048001716) rotate(89.39573719151072 0 2.6710976444355765)"><path d="M0 0 C0 1.34, 0 2.68, 0 5.34 M0 0 C0 1.52, 0 3.04, 0 5.34" stroke="#f08c00" stroke-width="2" fill="none"></path></g></g><mask></mask><g stroke-linecap="round"><g transform="translate(76.5979847610713 51.224588581885655) rotate(89.39573719151072 0 2.6710976444355765)"><path d="M0 0 C0 1.94, 0 3.88, 0 5.34 M0 0 C0 1.7, 0 3.39, 0 5.34" stroke="#f08c00" stroke-width="2" fill="none"></path></g></g><mask></mask><g stroke-linecap="round"><g transform="translate(21.46202042691698 15.3403561744135) rotate(89.39573719151072 0 2.6710976444355765)"><path d="M0 0 C0 2.07, 0 4.14, 0 5.34 M0 0 C0 1.48, 0 2.97, 0 5.34" stroke="#f08c00" stroke-width="2" fill="none"></path></g></g><mask></mask><g stroke-linecap="round"><g transform="translate(21.55663608272357 24.311414276281994) rotate(89.39573719151072 0 2.6710976444355765)"><path d="M0 0 C0 1.59, 0 3.18, 0 5.34 M0 0 C0 1.09, 0 2.19, 0 5.34" stroke="#f08c00" stroke-width="2" fill="none"></path></g></g><mask></mask><g stroke-linecap="round"><g transform="translate(21.651251738529936 33.28247237814958) rotate(89.39573719151072 0 2.6710976444355765)"><path d="M0 0 C0 1.83, 0 3.66, 0 5.34 M0 0 C0 1.89, 0 3.78, 0 5.34" stroke="#f08c00" stroke-width="2" fill="none"></path></g></g><mask></mask><g stroke-linecap="round"><g transform="translate(21.7458673943363 42.25353048001739) rotate(89.39573719151072 0 2.6710976444355765)"><path d="M0 0 C0 2.03, 0 4.06, 0 5.34 M0 0 C0 1.66, 0 3.31, 0 5.34" stroke="#f08c00" stroke-width="2" fill="none"></path></g></g><mask></mask><g stroke-linecap="round"><g transform="translate(21.840483050142893 51.224588581885655) rotate(89.39573719151072 0 2.6710976444355765)"><path d="M0 0 C0 1.07, 0 2.14, 0 5.34 M0 0 C0 1.43, 0 2.87, 0 5.34" stroke="#f08c00" stroke-width="2" fill="none"></path></g></g><mask></mask><g transform="translate(6 69.15402530134293) rotate(0 43.03000259399414 12)"><text x="0" y="0" font-family="Virgil, Segoe UI Emoji" font-size="20px" fill="#000000" text-anchor="start" style="white-space: pre;" direction="ltr" dominant-baseline="text-before-edge">Instance</text></g></svg>