<svg version="1.1" xmlns="http://www.w3.org/2000/svg" viewBox="0 0 76.642857142857 92.60714285714357" width="76.642857142857" height="92.60714285714357">
  <!-- svg-source:excalidraw -->
  
  <defs>
    
    
  </defs>
  <g stroke-linecap="round" transform="translate(27.499999999999773 6.000000000000455) rotate(0 16.0714285714285 16.07142857142867)"><path d="M32.14 16.07 C32.14 17, 32.06 17.95, 31.9 18.86 C31.74 19.78, 31.49 20.69, 31.17 21.57 C30.86 22.44, 30.45 23.3, 29.99 24.11 C29.52 24.91, 28.98 25.69, 28.38 26.4 C27.78 27.11, 27.11 27.78, 26.4 28.38 C25.69 28.98, 24.91 29.52, 24.11 29.99 C23.3 30.45, 22.44 30.86, 21.57 31.17 C20.69 31.49, 19.78 31.74, 18.86 31.9 C17.95 32.06, 17 32.14, 16.07 32.14 C15.14 32.14, 14.2 32.06, 13.28 31.9 C12.36 31.74, 11.45 31.49, 10.57 31.17 C9.7 30.86, 8.84 30.45, 8.04 29.99 C7.23 29.52, 6.45 28.98, 5.74 28.38 C5.03 27.78, 4.36 27.11, 3.76 26.4 C3.16 25.69, 2.62 24.91, 2.15 24.11 C1.69 23.3, 1.29 22.44, 0.97 21.57 C0.65 20.69, 0.41 19.78, 0.24 18.86 C0.08 17.95, 0 17, 0 16.07 C0 15.14, 0.08 14.2, 0.24 13.28 C0.41 12.36, 0.65 11.45, 0.97 10.57 C1.29 9.7, 1.69 8.84, 2.15 8.04 C2.62 7.23, 3.16 6.45, 3.76 5.74 C4.36 5.03, 5.03 4.36, 5.74 3.76 C6.45 3.16, 7.23 2.62, 8.04 2.15 C8.84 1.69, 9.7 1.29, 10.57 0.97 C11.45 0.65, 12.36 0.41, 13.28 0.24 C14.2 0.08, 15.14 0, 16.07 0 C17 0, 17.95 0.08, 18.86 0.24 C19.78 0.41, 20.69 0.65, 21.57 0.97 C22.44 1.29, 23.3 1.69, 24.11 2.15 C24.91 2.62, 25.69 3.16, 26.4 3.76 C27.11 4.36, 27.78 5.03, 28.38 5.74 C28.98 6.45, 29.52 7.23, 29.99 8.04 C30.45 8.84, 30.86 9.7, 31.17 10.57 C31.49 11.45, 31.74 12.36, 31.9 13.28 C32.06 14.2, 32.1 15.61, 32.14 16.07 C32.18 16.54, 32.18 15.61, 32.14 16.07" stroke="#279185" stroke-width="2" fill="none"></path></g><g stroke-linecap="round"><g transform="translate(27.785714285714448 24.35714285714357) rotate(0 -1.0714285714287257 17.14285714285711)"><path d="M0 0 C-4.7 0, -9.4 0, -21.79 0 M0 0 C-5.23 0, -10.46 0, -21.79 0 M-21.79 0 C-21.79 9.93, -21.79 19.87, -21.79 34.29 M-21.79 0 C-21.79 12.59, -21.79 25.18, -21.79 34.29 M-21.79 34.29 C-8.41 34.17, 4.97 34.06, 19.64 33.93 M-21.79 34.29 C-9.41 34.18, 2.96 34.07, 19.64 33.93 M19.64 33.93 C19.64 29.31, 19.64 24.68, 19.64 13.21 M19.64 33.93 C19.64 26.55, 19.64 19.18, 19.64 13.21" stroke="#279185" stroke-width="2" fill="none"></path></g></g><mask></mask><g stroke-linecap="round"><g transform="translate(53.142857142857224 36.500000000000455) rotate(0 6.428571428571445 6.071428571428669)"><path d="M0 0 C2.14 2.02, 10.71 10.12, 12.86 12.14 M0 0 C2.14 2.02, 10.71 10.12, 12.86 12.14" stroke="#279185" stroke-width="2" fill="none"></path></g></g><mask></mask><g stroke-linecap="round"><g transform="translate(58.142857142857 31.142857142857338) rotate(0 6.25 6.428571428571331)"><path d="M0 0 C2.08 2.14, 10.42 10.71, 12.5 12.86 M0 0 C2.08 2.14, 10.42 10.71, 12.5 12.86" stroke="#279185" stroke-width="2" fill="none"></path></g></g><mask></mask><g stroke-linecap="round"><g transform="translate(35.99999999999977 24.35714285714357) rotate(0 7.678571428571388 -2.1428571428571104)"><path d="M0 0 C1.26 0.97, 2.51 1.93, 4.64 3.57 M0 0 C1.49 1.14, 2.98 2.29, 4.64 3.57 M4.64 3.57 C8.47 -0.51, 12.29 -4.59, 15.36 -7.86 M4.64 3.57 C8.02 -0.03, 11.39 -3.62, 15.36 -7.86" stroke="#279185" stroke-width="2" fill="none"></path></g></g><mask></mask><g stroke-linecap="round"><g transform="translate(12.071428571428214 32.92857142857292) rotate(0 9.464285714285666 0)"><path d="M0 0 C7.13 0, 14.26 0, 18.93 0 M0 0 C5.57 0, 11.14 0, 18.93 0" stroke="#279185" stroke-width="2" fill="none"></path></g></g><mask></mask><g stroke-linecap="round"><g transform="translate(12.071428571428214 41.85714285714357) rotate(0 14.464285714285666 0)"><path d="M0 0 C7.67 0, 15.33 0, 28.93 0 M0 0 C9.24 0, 18.49 0, 28.93 0" stroke="#279185" stroke-width="2" fill="none"></path></g></g><mask></mask><g stroke-linecap="round"><g transform="translate(12.071428571428214 51.14285714285734) rotate(0 14.464285714285666 0)"><path d="M0 0 C10.85 0, 21.7 0, 28.93 0 M0 0 C9.05 0, 18.1 0, 28.93 0" stroke="#279185" stroke-width="2" fill="none"></path></g></g><mask></mask><g stroke-linecap="round"><g transform="translate(66.71428571428544 49.28571428571422) rotate(0 1.9642857142856656 -2.3214285714284415)"><path d="M0 0 C0.65 -0.77, 3.27 -3.87, 3.93 -4.64 M0 0 C0.65 -0.77, 3.27 -3.87, 3.93 -4.64" stroke="#279185" stroke-width="2" fill="none"></path></g></g><mask></mask><g transform="translate(11.821428571428214 62.60714285714357) rotate(0 25.870000839233455 12)"><text x="0" y="0" font-family="Virgil, Segoe UI Emoji" font-size="20px" fill="#000000" text-anchor="start" style="white-space: pre;" direction="ltr" dominant-baseline="text-before-edge">Train</text></g></svg>