<svg version="1.1" xmlns="http://www.w3.org/2000/svg" viewBox="0 0 169.3400115966797 106.17024460272296" width="169.3400115966797" height="106.17024460272296">
  <!-- svg-source:excalidraw -->
  
  <defs>
    
    
  </defs>
  <g transform="translate(6 76.17024460272296) rotate(0 78.67000579833984 12)"><text x="78.67000579833984" y="0" font-family="Virgil, Segoe UI Emoji" font-size="20px" fill="#000000" text-anchor="middle" style="white-space: pre;" direction="ltr" dominant-baseline="text-before-edge">IoT Greengrass</text></g><g stroke-linecap="round" transform="translate(52.12958526611328 6) rotate(0 32.54042053222656 32.54042053222656)"><path d="M0 0 C0 0, 0 0, 0 0 M0 0 C0 0, 0 0, 0 0 M0.13 12.04 C3.25 8.46, 6.37 4.87, 10.63 -0.03 M0.13 12.04 C3.8 7.83, 7.46 3.62, 10.63 -0.03 M0.27 24.08 C7.06 16.26, 13.86 8.45, 21.26 -0.07 M0.27 24.08 C7.29 16, 14.32 7.92, 21.26 -0.07 M-0.26 36.88 C8.99 26.24, 18.23 15.61, 31.89 -0.1 M-0.26 36.88 C7.78 27.63, 15.82 18.38, 31.89 -0.1 M-0.12 48.92 C11.29 35.79, 22.7 22.66, 42.52 -0.14 M-0.12 48.92 C9.94 37.34, 20 25.77, 42.52 -0.14 M0.01 60.96 C20.96 36.85, 41.92 12.75, 53.15 -0.17 M0.01 60.96 C17.9 40.38, 35.79 19.8, 53.15 -0.17 M6.7 65.45 C21.83 48.05, 36.96 30.65, 63.78 -0.21 M6.7 65.45 C20.07 50.08, 33.44 34.7, 63.78 -0.21 M17.33 65.42 C29.93 50.92, 42.54 36.43, 65.88 9.57 M17.33 65.42 C31.07 49.61, 44.81 33.81, 65.88 9.57 M27.96 65.38 C41.51 49.8, 55.05 34.22, 66.02 21.61 M27.96 65.38 C37.24 54.71, 46.51 44.04, 66.02 21.61 M38.59 65.35 C45.21 57.74, 51.82 50.13, 65.49 34.41 M38.59 65.35 C47.16 55.5, 55.72 45.65, 65.49 34.41 M49.22 65.31 C54.97 58.7, 60.73 52.08, 65.63 46.45 M49.22 65.31 C53.88 59.96, 58.53 54.61, 65.63 46.45 M59.85 65.28 C61.84 63, 63.82 60.71, 65.76 58.49 M59.85 65.28 C61.78 63.06, 63.71 60.85, 65.76 58.49 M0.23 65.28 C0.23 65.28, 0.23 65.28, 0.23 65.28 M0.23 65.28 C0.23 65.28, 0.23 65.28, 0.23 65.28 M12.27 65.15 C9.45 62.69, 6.62 60.24, 0.19 54.65 M12.27 65.15 C8.09 61.51, 3.91 57.88, 0.19 54.65 M24.31 65.01 C16 57.79, 7.7 50.57, 0.16 44.02 M24.31 65.01 C18.18 59.68, 12.05 54.35, 0.16 44.02 M36.35 64.88 C26.85 56.62, 17.34 48.35, 0.13 33.39 M36.35 64.88 C26.56 56.37, 16.77 47.86, 0.13 33.39 M49.15 65.4 C33.71 51.98, 18.26 38.56, 0.09 22.76 M49.15 65.4 C37.09 54.92, 25.03 44.44, 0.09 22.76 M61.19 65.27 C44.95 51.16, 28.72 37.04, 0.06 12.13 M61.19 65.27 C39.97 46.83, 18.76 28.39, 0.06 12.13 M64.93 57.92 C43.28 39.1, 21.62 20.28, 0.02 1.5 M64.93 57.92 C39.55 35.86, 14.18 13.81, 0.02 1.5 M65.65 47.95 C48.47 33.01, 31.28 18.07, 9.8 -0.6 M65.65 47.95 C50.07 34.4, 34.49 20.86, 9.8 -0.6 M65.61 37.32 C49.76 23.53, 33.9 9.75, 21.84 -0.74 M65.61 37.32 C51.09 24.69, 36.57 12.07, 21.84 -0.74 M65.58 26.69 C53.75 16.41, 41.92 6.12, 33.88 -0.87 M65.58 26.69 C55.33 17.78, 45.08 8.87, 33.88 -0.87 M65.54 16.06 C59.26 10.6, 52.98 5.14, 46.68 -0.35 M65.54 16.06 C61.48 12.52, 57.41 8.99, 46.68 -0.35 M65.51 5.43 C63.7 3.85, 61.89 2.28, 58.72 -0.48 M65.51 5.43 C62.84 3.11, 60.18 0.79, 58.72 -0.48" stroke="#40c05788" stroke-width="1" fill="none"></path><path d="M0 0 C17.45 0, 34.91 0, 65.08 0 M0 0 C22.11 0, 44.23 0, 65.08 0 M65.08 0 C65.08 19.3, 65.08 38.59, 65.08 65.08 M65.08 0 C65.08 24.59, 65.08 49.19, 65.08 65.08 M65.08 65.08 C46.33 65.08, 27.57 65.08, 0 65.08 M65.08 65.08 C46.26 65.08, 27.44 65.08, 0 65.08 M0 65.08 C0 52.04, 0 38.99, 0 0 M0 65.08 C0 51.21, 0 37.33, 0 0" stroke="#000000" stroke-width="2" fill="none"></path></g><g stroke-linecap="round" transform="translate(66.35058458086269 18.932392824332055) rotate(0 4.128847503777024 4.128847503777024)"><path d="M8.26 4.13 C8.26 4.37, 8.24 4.61, 8.19 4.85 C8.15 5.08, 8.09 5.32, 8.01 5.54 C7.93 5.77, 7.82 5.99, 7.7 6.19 C7.59 6.4, 7.45 6.6, 7.29 6.78 C7.14 6.97, 6.97 7.14, 6.78 7.29 C6.6 7.45, 6.4 7.59, 6.19 7.7 C5.99 7.82, 5.77 7.93, 5.54 8.01 C5.32 8.09, 5.08 8.15, 4.85 8.19 C4.61 8.24, 4.37 8.26, 4.13 8.26 C3.89 8.26, 3.65 8.24, 3.41 8.19 C3.18 8.15, 2.94 8.09, 2.72 8.01 C2.49 7.93, 2.27 7.82, 2.06 7.7 C1.86 7.59, 1.66 7.45, 1.47 7.29 C1.29 7.14, 1.12 6.97, 0.97 6.78 C0.81 6.6, 0.67 6.4, 0.55 6.19 C0.43 5.99, 0.33 5.77, 0.25 5.54 C0.17 5.32, 0.1 5.08, 0.06 4.85 C0.02 4.61, 0 4.37, 0 4.13 C0 3.89, 0.02 3.65, 0.06 3.41 C0.1 3.18, 0.17 2.94, 0.25 2.72 C0.33 2.49, 0.43 2.27, 0.55 2.06 C0.67 1.86, 0.81 1.66, 0.97 1.47 C1.12 1.29, 1.29 1.12, 1.47 0.97 C1.66 0.81, 1.86 0.67, 2.06 0.55 C2.27 0.43, 2.49 0.33, 2.72 0.25 C2.94 0.17, 3.18 0.1, 3.41 0.06 C3.65 0.02, 3.89 0, 4.13 0 C4.37 0, 4.61 0.02, 4.85 0.06 C5.08 0.1, 5.32 0.17, 5.54 0.25 C5.77 0.33, 5.99 0.43, 6.19 0.55 C6.4 0.67, 6.6 0.81, 6.78 0.97 C6.97 1.12, 7.14 1.29, 7.29 1.47 C7.45 1.66, 7.59 1.86, 7.7 2.06 C7.82 2.27, 7.93 2.49, 8.01 2.72 C8.09 2.94, 8.15 3.18, 8.19 3.41 C8.24 3.65, 8.25 4.01, 8.26 4.13 C8.27 4.25, 8.27 4.01, 8.26 4.13" stroke="#000000" stroke-width="2" fill="none"></path></g><g stroke-linecap="round" transform="translate(92.18384263723601 15.04861109752892) rotate(0 4.128847503777024 4.128847503777024)"><path d="M8.26 4.13 C8.26 4.37, 8.24 4.61, 8.19 4.85 C8.15 5.08, 8.09 5.32, 8.01 5.54 C7.93 5.77, 7.82 5.99, 7.7 6.19 C7.59 6.4, 7.45 6.6, 7.29 6.78 C7.14 6.97, 6.97 7.14, 6.78 7.29 C6.6 7.45, 6.4 7.59, 6.19 7.7 C5.99 7.82, 5.77 7.93, 5.54 8.01 C5.32 8.09, 5.08 8.15, 4.85 8.19 C4.61 8.24, 4.37 8.26, 4.13 8.26 C3.89 8.26, 3.65 8.24, 3.41 8.19 C3.18 8.15, 2.94 8.09, 2.72 8.01 C2.49 7.93, 2.27 7.82, 2.06 7.7 C1.86 7.59, 1.66 7.45, 1.47 7.29 C1.29 7.14, 1.12 6.97, 0.97 6.78 C0.81 6.6, 0.67 6.4, 0.55 6.19 C0.43 5.99, 0.33 5.77, 0.25 5.54 C0.17 5.32, 0.1 5.08, 0.06 4.85 C0.02 4.61, 0 4.37, 0 4.13 C0 3.89, 0.02 3.65, 0.06 3.41 C0.1 3.18, 0.17 2.94, 0.25 2.72 C0.33 2.49, 0.43 2.27, 0.55 2.06 C0.67 1.86, 0.81 1.66, 0.97 1.47 C1.12 1.29, 1.29 1.12, 1.47 0.97 C1.66 0.81, 1.86 0.67, 2.06 0.55 C2.27 0.43, 2.49 0.33, 2.72 0.25 C2.94 0.17, 3.18 0.1, 3.41 0.06 C3.65 0.02, 3.89 0, 4.13 0 C4.37 0, 4.61 0.02, 4.85 0.06 C5.08 0.1, 5.32 0.17, 5.54 0.25 C5.77 0.33, 5.99 0.43, 6.19 0.55 C6.4 0.67, 6.6 0.81, 6.78 0.97 C6.97 1.12, 7.14 1.29, 7.29 1.47 C7.45 1.66, 7.59 1.86, 7.7 2.06 C7.82 2.27, 7.93 2.49, 8.01 2.72 C8.09 2.94, 8.15 3.18, 8.19 3.41 C8.24 3.65, 8.25 4.01, 8.26 4.13 C8.27 4.25, 8.27 4.01, 8.26 4.13" stroke="#000000" stroke-width="2" fill="none"></path></g><g stroke-linecap="round" transform="translate(61.27342493281685 45.927061579945075) rotate(0 4.128847503777024 4.128847503777024)"><path d="M8.26 4.13 C8.26 4.37, 8.24 4.61, 8.19 4.85 C8.15 5.08, 8.09 5.32, 8.01 5.54 C7.93 5.77, 7.82 5.99, 7.7 6.19 C7.59 6.4, 7.45 6.6, 7.29 6.78 C7.14 6.97, 6.97 7.14, 6.78 7.29 C6.6 7.45, 6.4 7.59, 6.19 7.7 C5.99 7.82, 5.77 7.93, 5.54 8.01 C5.32 8.09, 5.08 8.15, 4.85 8.19 C4.61 8.24, 4.37 8.26, 4.13 8.26 C3.89 8.26, 3.65 8.24, 3.41 8.19 C3.18 8.15, 2.94 8.09, 2.72 8.01 C2.49 7.93, 2.27 7.82, 2.06 7.7 C1.86 7.59, 1.66 7.45, 1.47 7.29 C1.29 7.14, 1.12 6.97, 0.97 6.78 C0.81 6.6, 0.67 6.4, 0.55 6.19 C0.43 5.99, 0.33 5.77, 0.25 5.54 C0.17 5.32, 0.1 5.08, 0.06 4.85 C0.02 4.61, 0 4.37, 0 4.13 C0 3.89, 0.02 3.65, 0.06 3.41 C0.1 3.18, 0.17 2.94, 0.25 2.72 C0.33 2.49, 0.43 2.27, 0.55 2.06 C0.67 1.86, 0.81 1.66, 0.97 1.47 C1.12 1.29, 1.29 1.12, 1.47 0.97 C1.66 0.81, 1.86 0.67, 2.06 0.55 C2.27 0.43, 2.49 0.33, 2.72 0.25 C2.94 0.17, 3.18 0.1, 3.41 0.06 C3.65 0.02, 3.89 0, 4.13 0 C4.37 0, 4.61 0.02, 4.85 0.06 C5.08 0.1, 5.32 0.17, 5.54 0.25 C5.77 0.33, 5.99 0.43, 6.19 0.55 C6.4 0.67, 6.6 0.81, 6.78 0.97 C6.97 1.12, 7.14 1.29, 7.29 1.47 C7.45 1.66, 7.59 1.86, 7.7 2.06 C7.82 2.27, 7.93 2.49, 8.01 2.72 C8.09 2.94, 8.15 3.18, 8.19 3.41 C8.24 3.65, 8.25 4.01, 8.26 4.13 C8.27 4.25, 8.27 4.01, 8.26 4.13" stroke="#000000" stroke-width="2" fill="none"></path></g><g stroke-linecap="round"><g transform="translate(73.13786866819919 25.538545578699996) rotate(0 11.454222107252917 12.386542511331527)"><path d="M0 0 C3.82 4.13, 19.09 20.64, 22.91 24.77 M0 0 C3.82 4.13, 19.09 20.64, 22.91 24.77" stroke="#000000" stroke-width="2" fill="none"></path></g></g><mask></mask><g stroke-linecap="round"><g transform="translate(70.20771882680901 49.778876084747026) rotate(0 13.318862915410364 -13.052485657102125)"><path d="M0 0 C8.43 0.09, 16.86 0.17, 26.37 0.27 M26.37 0.27 C26.43 -5.9, 26.49 -12.08, 26.64 -26.37" stroke="#000000" stroke-width="2.5" fill="none" stroke-dasharray="8 10"></path></g></g><mask></mask><g stroke-linecap="round"><g transform="translate(67.81032350203486 53.7745349593697) rotate(0 20.111483002269665 -11.720599365561156)"><path d="M0 0 C0.49 0.44, 1.95 1.82, 2.93 2.66 C3.91 3.51, 4.79 4.4, 5.86 5.06 C6.93 5.73, 8.17 6.22, 9.32 6.66 C10.48 7.1, 11.41 7.46, 12.79 7.72 C14.16 7.99, 15.89 8.26, 17.58 8.26 C19.27 8.26, 21.22 8.12, 22.91 7.72 C24.6 7.33, 26.02 6.79, 27.7 5.86 C29.39 4.93, 31.61 3.42, 33.03 2.13 C34.45 0.84, 35.29 -0.44, 36.23 -1.86 C37.16 -3.29, 38 -4.84, 38.62 -6.39 C39.25 -7.95, 39.69 -9.63, 39.96 -11.19 C40.22 -12.74, 40.31 -14.07, 40.22 -15.72 C40.13 -17.36, 40 -19.31, 39.42 -21.04 C38.85 -22.78, 37.56 -24.73, 36.76 -26.1 C35.96 -27.48, 35.38 -28.37, 34.63 -29.3 C33.87 -30.23, 32.63 -31.3, 32.23 -31.7 M0 0 C0.49 0.44, 1.95 1.82, 2.93 2.66 C3.91 3.51, 4.79 4.4, 5.86 5.06 C6.93 5.73, 8.17 6.22, 9.32 6.66 C10.48 7.1, 11.41 7.46, 12.79 7.72 C14.16 7.99, 15.89 8.26, 17.58 8.26 C19.27 8.26, 21.22 8.12, 22.91 7.72 C24.6 7.33, 26.02 6.79, 27.7 5.86 C29.39 4.93, 31.61 3.42, 33.03 2.13 C34.45 0.84, 35.29 -0.44, 36.23 -1.86 C37.16 -3.29, 38 -4.84, 38.62 -6.39 C39.25 -7.95, 39.69 -9.63, 39.96 -11.19 C40.22 -12.74, 40.31 -14.07, 40.22 -15.72 C40.13 -17.36, 40 -19.31, 39.42 -21.04 C38.85 -22.78, 37.56 -24.73, 36.76 -26.1 C35.96 -27.48, 35.38 -28.37, 34.63 -29.3 C33.87 -30.23, 32.63 -31.3, 32.23 -31.7" stroke="#000000" stroke-width="2" fill="none"></path></g></g><mask></mask></svg>