<svg version="1.1" xmlns="http://www.w3.org/2000/svg" viewBox="0 0 132.10000610351562 102.12328644949616" width="132.10000610351562" height="102.12328644949616">
  <!-- svg-source:excalidraw -->
  
  <defs>
    
    
  </defs>
  <g transform="translate(6 72.12328644949616) rotate(0 60.05000305175781 12)"><text x="0" y="0" font-family="Virgil, Segoe UI Emoji" font-size="20px" fill="#000000" text-anchor="start" style="white-space: pre;" direction="ltr" dominant-baseline="text-before-edge">Auto scaling</text></g><g stroke-linecap="round" transform="translate(57.43204235076496 28.931165061276715) rotate(0 8.653667837623402 8.653667837623402)"><path d="M0 0 C4.91 0, 9.82 0, 17.31 0 M0 0 C4.93 0, 9.85 0, 17.31 0 M17.31 0 C17.31 6.52, 17.31 13.05, 17.31 17.31 M17.31 0 C17.31 4.54, 17.31 9.07, 17.31 17.31 M17.31 17.31 C13.32 17.31, 9.34 17.31, 0 17.31 M17.31 17.31 C11.33 17.31, 5.36 17.31, 0 17.31 M0 17.31 C0 11.07, 0 4.83, 0 0 M0 17.31 C0 13.38, 0 9.45, 0 0" stroke="#f08c00" stroke-width="2" fill="none"></path></g><g stroke-linecap="round"><g transform="translate(59.4776536843317 26.55358812790041) rotate(0 0 0.9837068469898895)"><path d="M0 0 C0 0.43, 0 0.85, 0 1.97 M0 0 C0 0.7, 0 1.39, 0 1.97" stroke="#f08c00" stroke-width="2" fill="none"></path></g></g><mask></mask><g stroke-linecap="round"><g transform="translate(62.78168193636043 26.55358812790041) rotate(0 0 0.9837068469898895)"><path d="M0 0 C0 0.71, 0 1.42, 0 1.97 M0 0 C0 0.77, 0 1.53, 0 1.97" stroke="#f08c00" stroke-width="2" fill="none"></path></g></g><mask></mask><g stroke-linecap="round"><g transform="translate(66.08571018838848 26.55358812790041) rotate(0 0 0.9837068469898895)"><path d="M0 0 C0 0.62, 0 1.23, 0 1.97 M0 0 C0 0.42, 0 0.83, 0 1.97" stroke="#f08c00" stroke-width="2" fill="none"></path></g></g><mask></mask><g stroke-linecap="round"><g transform="translate(69.38973844041675 26.55358812790041) rotate(0 0 0.9837068469898895)"><path d="M0 0 C0 0.55, 0 1.11, 0 1.97 M0 0 C0 0.47, 0 0.94, 0 1.97" stroke="#f08c00" stroke-width="2" fill="none"></path></g></g><mask></mask><g stroke-linecap="round"><g transform="translate(72.69376669244502 26.55358812790041) rotate(0 0 0.9837068469898895)"><path d="M0 0 C0 0.46, 0 0.92, 0 1.97 M0 0 C0 0.55, 0 1.1, 0 1.97" stroke="#f08c00" stroke-width="2" fill="none"></path></g></g><mask></mask><g stroke-linecap="round"><g transform="translate(59.4776536843317 46.510043949406736) rotate(0 0 0.9837068469898895)"><path d="M0 0 C0 0.69, 0 1.37, 0 1.97 M0 0 C0 0.45, 0 0.89, 0 1.97" stroke="#f08c00" stroke-width="2" fill="none"></path></g></g><mask></mask><g stroke-linecap="round"><g transform="translate(62.78168193636043 46.510043949406736) rotate(0 0 0.9837068469898895)"><path d="M0 0 C0 0.74, 0 1.48, 0 1.97 M0 0 C0 0.52, 0 1.03, 0 1.97" stroke="#f08c00" stroke-width="2" fill="none"></path></g></g><mask></mask><g stroke-linecap="round"><g transform="translate(66.08571018838848 46.510043949406736) rotate(0 0 0.9837068469898895)"><path d="M0 0 C0 0.56, 0 1.13, 0 1.97 M0 0 C0 0.68, 0 1.36, 0 1.97" stroke="#f08c00" stroke-width="2" fill="none"></path></g></g><mask></mask><g stroke-linecap="round"><g transform="translate(69.38973844041675 46.510043949406736) rotate(0 0 0.9837068469898895)"><path d="M0 0 C0 0.43, 0 0.87, 0 1.97 M0 0 C0 0.43, 0 0.85, 0 1.97" stroke="#f08c00" stroke-width="2" fill="none"></path></g></g><mask></mask><g stroke-linecap="round"><g transform="translate(72.69376669244502 46.510043949406736) rotate(0 0 0.9837068469898895)"><path d="M0 0 C0 0.68, 0 1.36, 0 1.97 M0 0 C0 0.57, 0 1.14, 0 1.97" stroke="#f08c00" stroke-width="2" fill="none"></path></g></g><mask></mask><g stroke-linecap="round"><g transform="translate(76.10306164935037 29.99343703841714) rotate(89.39573719151072 0 0.9837068469898895)"><path d="M0 0 C0 0.41, 0 0.82, 0 1.97 M0 0 C0 0.5, 0 0.99, 0 1.97" stroke="#f08c00" stroke-width="2" fill="none"></path></g></g><mask></mask><g stroke-linecap="round"><g transform="translate(76.13790652619082 33.29728154516374) rotate(89.39573719151072 0 0.9837068469898895)"><path d="M0 0 C0 0.78, 0 1.55, 0 1.97 M0 0 C0 0.7, 0 1.41, 0 1.97" stroke="#f08c00" stroke-width="2" fill="none"></path></g></g><mask></mask><g stroke-linecap="round"><g transform="translate(76.1727514030315 36.60112605190989) rotate(89.39573719151072 0 0.9837068469898895)"><path d="M0 0 C0 0.52, 0 1.05, 0 1.97 M0 0 C0 0.45, 0 0.89, 0 1.97" stroke="#f08c00" stroke-width="2" fill="none"></path></g></g><mask></mask><g stroke-linecap="round"><g transform="translate(76.20759627987195 39.90497055865649) rotate(89.39573719151072 0 0.9837068469898895)"><path d="M0 0 C0 0.45, 0 0.91, 0 1.97 M0 0 C0 0.68, 0 1.36, 0 1.97" stroke="#f08c00" stroke-width="2" fill="none"></path></g></g><mask></mask><g stroke-linecap="round"><g transform="translate(76.24244115671218 43.20881506540309) rotate(89.39573719151072 0 0.9837068469898895)"><path d="M0 0 C0 0.56, 0 1.12, 0 1.97 M0 0 C0 0.5, 0 1, 0 1.97" stroke="#f08c00" stroke-width="2" fill="none"></path></g></g><mask></mask><g stroke-linecap="round"><g transform="translate(55.93707128605706 29.99343703841714) rotate(89.39573719151072 0 0.9837068469898895)"><path d="M0 0 C0 0.54, 0 1.07, 0 1.97 M0 0 C0 0.5, 0 0.99, 0 1.97" stroke="#f08c00" stroke-width="2" fill="none"></path></g></g><mask></mask><g stroke-linecap="round"><g transform="translate(55.97191616289774 33.29728154516374) rotate(89.39573719151072 0 0.9837068469898895)"><path d="M0 0 C0 0.46, 0 0.92, 0 1.97 M0 0 C0 0.78, 0 1.55, 0 1.97" stroke="#f08c00" stroke-width="2" fill="none"></path></g></g><mask></mask><g stroke-linecap="round"><g transform="translate(56.006761039738194 36.60112605190989) rotate(89.39573719151072 0 0.9837068469898895)"><path d="M0 0 C0 0.52, 0 1.03, 0 1.97 M0 0 C0 0.75, 0 1.5, 0 1.97" stroke="#f08c00" stroke-width="2" fill="none"></path></g></g><mask></mask><g stroke-linecap="round"><g transform="translate(56.04160591657842 39.904970558656714) rotate(89.39573719151072 0 0.9837068469898895)"><path d="M0 0 C0 0.5, 0 1, 0 1.97 M0 0 C0 0.71, 0 1.43, 0 1.97" stroke="#f08c00" stroke-width="2" fill="none"></path></g></g><mask></mask><g stroke-linecap="round"><g transform="translate(56.07645079341887 43.20881506540309) rotate(89.39573719151072 0 0.9837068469898895)"><path d="M0 0 C0 0.72, 0 1.44, 0 1.97 M0 0 C0 0.46, 0 0.92, 0 1.97" stroke="#f08c00" stroke-width="2" fill="none"></path></g></g><mask></mask><g stroke-linecap="round"><g transform="translate(66.3781194510309 7.177909192588459) rotate(0 0 6.760549318354492)"><path d="M0 0 C0 2.25, 0 11.27, 0 13.52 M0 0 C0 2.25, 0 11.27, 0 13.52" stroke="#f08c00" stroke-width="2" fill="none"></path></g></g><mask></mask><g stroke-linecap="round"><g transform="translate(58.97338851785321 13.294276896119527) rotate(0 7.116367703531182 -3.6471384480597635)"><path d="M0 0 C2.23 -2.23, 4.46 -4.46, 7.29 -7.29 M0 0 C2.84 -2.84, 5.67 -5.67, 7.29 -7.29 M7.29 -7.29 C8.91 -5.68, 10.53 -4.06, 14.23 -0.36 M7.29 -7.29 C9.28 -5.3, 11.28 -3.31, 14.23 -0.36" stroke="#f08c00" stroke-width="2" fill="none"></path></g></g><mask></mask><g stroke-linecap="round"><g transform="translate(66.3781194510309 67.14863289304367) rotate(0 0 -6.760549318354492)"><path d="M0 0 C0 -2.25, 0 -11.27, 0 -13.52 M0 0 C0 -2.25, 0 -11.27, 0 -13.52" stroke="#f08c00" stroke-width="2" fill="none"></path></g></g><mask></mask><g stroke-linecap="round"><g transform="translate(58.97338851785321 61.0322651895126) rotate(0 7.116367703531182 3.6471384480597635)"><path d="M0 0 C2.84 2.84, 5.67 5.67, 7.29 7.29 M0 0 C1.7 1.7, 3.4 3.4, 7.29 7.29 M7.29 7.29 C9.28 5.3, 11.28 3.31, 14.23 0.36 M7.29 7.29 C9.03 5.55, 10.77 3.82, 14.23 0.36" stroke="#f08c00" stroke-width="2" fill="none"></path></g></g><mask></mask><g stroke-linecap="round"><g transform="translate(41.176443667163994 31.043336796936273) rotate(89.99999999999913 0 6.760549318354492)"><path d="M0 0 C0 2.25, 0 11.27, 0 13.52 M0 0 C0 2.25, 0 11.27, 0 13.52" stroke="#f08c00" stroke-width="2" fill="none"></path></g></g><mask></mask><g stroke-linecap="round"><g transform="translate(38.351396026515886 41.162661333703) rotate(89.99999999999913 7.116367703531182 -3.6471384480597635)"><path d="M0 0 C2.18 -2.18, 4.37 -4.37, 7.29 -7.29 M0 0 C2.08 -2.08, 4.17 -4.17, 7.29 -7.29 M7.29 -7.29 C9.06 -5.53, 10.82 -3.77, 14.23 -0.36 M7.29 -7.29 C9.55 -5.04, 11.81 -2.78, 14.23 -0.36" stroke="#f08c00" stroke-width="2" fill="none"></path></g></g><mask></mask><g stroke-linecap="round"><g transform="translate(90.92356243635163 31.043336796936273) rotate(270.00000000000085 0 6.760549318354492)"><path d="M0 0 C0 2.25, 0 11.27, 0 13.52 M0 0 C0 2.25, 0 11.27, 0 13.52" stroke="#f08c00" stroke-width="2" fill="none"></path></g></g><mask></mask><g stroke-linecap="round"><g transform="translate(93.74861007699997 41.162661333703454) rotate(270.00000000000085 -7.116367703531182 -3.6471384480597635)"><path d="M0 0 C-1.71 -1.71, -3.41 -3.41, -7.29 -7.29 M0 0 C-2.39 -2.39, -4.79 -4.79, -7.29 -7.29 M-7.29 -7.29 C-9.93 -4.66, -12.56 -2.03, -14.23 -0.36 M-7.29 -7.29 C-9.62 -4.97, -11.94 -2.65, -14.23 -0.36" stroke="#f08c00" stroke-width="2" fill="none"></path></g></g><mask></mask></svg>