<svg xmlns="http://www.w3.org/2000/svg" viewBox="-581.36 -474.09 128.00 124.20" width="128" height="124"><rect x="-547.27" y="-468.09" width="64.70" height="64.70" rx="0" stroke="none" stroke-width="1" opacity="1.0" fill="#e64980"/><rect x="-549.71" y="-464.55" width="64.70" height="64.70" rx="0" stroke="#000000" stroke-width="1" opacity="1.0" fill="none"/><ellipse cx="-517.90" cy="-453.80" rx="2.88" ry="2.88" stroke="#ffffff" stroke-width="2" opacity="1.0" fill="none"/><ellipse cx="-517.84" cy="-410.61" rx="2.88" ry="2.88" stroke="#ffffff" stroke-width="2" opacity="1.0" fill="none"/><rect x="-542.97" y="-441.35" width="18.97" height="6.24" rx="0" stroke="#ffffff" stroke-width="2" opacity="1.0" fill="none"/><rect x="-542.89" y="-429.14" width="18.97" height="6.24" rx="0" stroke="#ffffff" stroke-width="2" opacity="1.0" fill="none"/><rect x="-510.72" y="-436.22" width="18.97" height="8.47" rx="0" stroke="#ffffff" stroke-width="2" opacity="1.0" fill="none"/><polyline points="-533.22,-434.58 -533.22,-429.51" fill="none" stroke="#ffffff" stroke-width="2" opacity="1.0" stroke-linecap="round" stroke-linejoin="round"/><polyline points="-533.09,-445.58 -500.29,-445.58" fill="none" stroke="#ffffff" stroke-width="2" opacity="1.0" stroke-linecap="round" stroke-linejoin="round"/><polyline points="-533.67,-446.54 -533.67,-441.48" fill="none" stroke="#ffffff" stroke-width="2" opacity="1.0" stroke-linecap="round" stroke-linejoin="round"/><polyline points="-501.18,-445.78 -501.18,-439.82" fill="none" stroke="#ffffff" stroke-width="2" opacity="1.0" stroke-linecap="round" stroke-linejoin="round"/><polyline points="-517.88,-450.42 -517.88,-445.87" fill="none" stroke="#ffffff" stroke-width="2" opacity="1.0" stroke-linecap="round" stroke-linejoin="round"/><polyline points="-533.07,-418.19 -500.27,-418.19" fill="none" stroke="#ffffff" stroke-width="2" opacity="1.0" stroke-linecap="round" stroke-linejoin="round"/><polyline points="-517.86,-419.01 -517.86,-414.19" fill="none" stroke="#ffffff" stroke-width="2" opacity="1.0" stroke-linecap="round" stroke-linejoin="round"/><polyline points="-533.12,-422.36 -533.12,-417.29" fill="none" stroke="#ffffff" stroke-width="2" opacity="1.0" stroke-linecap="round" stroke-linejoin="round"/><polyline points="-501.22,-423.49 -501.22,-417.53" fill="none" stroke="#ffffff" stroke-width="2" opacity="1.0" stroke-linecap="round" stroke-linejoin="round"/><text x="-575.36" y="-379.89" font-size="16" fill="#000000" opacity="1.0" font-family="sans-serif">AWS
Step Functions</text></svg>