<svg version="1.1" xmlns="http://www.w3.org/2000/svg" viewBox="0 0 91.02000427246094 104.4352314809421" width="91.02000427246094" height="104.4352314809421">
  <!-- svg-source:excalidraw -->
  
  <defs>
    
    
  </defs>
  <g stroke-linecap="round" transform="translate(13.769423817521783 6) rotate(0 32.230576182478444 32.19971236713013)"><path d="M0 0 C0 0, 0 0, 0 0 M0 0 C0 0, 0 0, 0 0 M0.13 12.04 C2.75 9.03, 5.37 6.02, 10.63 -0.03 M0.13 12.04 C2.67 9.12, 5.21 6.2, 10.63 -0.03 M0.27 24.08 C8.41 14.72, 16.54 5.36, 21.26 -0.07 M0.27 24.08 C8.06 15.12, 15.85 6.15, 21.26 -0.07 M-0.26 36.88 C12 22.78, 24.26 8.68, 31.89 -0.1 M-0.26 36.88 C10.79 24.17, 21.84 11.46, 31.89 -0.1 M-0.12 48.92 C14.79 31.76, 29.7 14.61, 42.52 -0.14 M-0.12 48.92 C16.49 29.81, 33.1 10.7, 42.52 -0.14 M0.01 60.96 C17.51 40.82, 35.02 20.69, 53.15 -0.17 M0.01 60.96 C17.37 40.98, 34.74 21.01, 53.15 -0.17 M7.36 64.7 C29.32 39.44, 51.27 14.18, 63.78 -0.21 M7.36 64.7 C29.68 39.02, 52 13.34, 63.78 -0.21 M17.99 64.66 C29.46 51.47, 40.92 38.28, 64.57 11.08 M17.99 64.66 C36.29 43.61, 54.59 22.56, 64.57 11.08 M28.62 64.63 C42.37 48.81, 56.13 32.99, 64.7 23.12 M28.62 64.63 C39.67 51.92, 50.71 39.22, 64.7 23.12 M39.25 64.59 C45.76 57.11, 52.27 49.62, 64.84 35.16 M39.25 64.59 C45.61 57.28, 51.96 49.97, 64.84 35.16 M49.88 64.56 C53.22 60.72, 56.55 56.88, 64.97 47.2 M49.88 64.56 C54.29 59.48, 58.7 54.41, 64.97 47.2 M60.51 64.53 C61.88 62.95, 63.24 61.38, 64.45 60 M60.51 64.53 C61.32 63.6, 62.12 62.67, 64.45 60 M-0.19 64.24 C-0.19 64.24, -0.19 64.24, -0.19 64.24 M-0.19 64.24 C-0.19 64.24, -0.19 64.24, -0.19 64.24 M11.85 64.1 C8.38 61.08, 4.9 58.06, -0.22 53.61 M11.85 64.1 C8.5 61.19, 5.15 58.27, -0.22 53.61 M24.65 64.63 C16.47 57.52, 8.3 50.41, -0.26 42.98 M24.65 64.63 C18.39 59.19, 12.14 53.75, -0.26 42.98 M36.69 64.49 C25.21 54.51, 13.73 44.54, -0.29 32.35 M36.69 64.49 C26.05 55.24, 15.41 45.99, -0.29 32.35 M48.73 64.36 C29.7 47.82, 10.68 31.28, -0.33 21.72 M48.73 64.36 C32.06 49.87, 15.39 35.38, -0.33 21.72 M60.77 64.23 C47.41 52.61, 34.05 41, -0.36 11.09 M60.77 64.23 C38.75 45.08, 16.72 25.94, -0.36 11.09 M65.26 57.53 C47.07 41.72, 28.88 25.9, 0.36 1.11 M65.26 57.53 C43.42 38.54, 21.57 19.55, 0.36 1.11 M65.23 46.9 C49.65 33.36, 34.07 19.82, 10.89 -0.33 M65.23 46.9 C52.99 36.26, 40.75 25.62, 10.89 -0.33 M65.2 36.27 C52.41 25.16, 39.62 14.04, 22.93 -0.47 M65.2 36.27 C48.87 22.08, 32.55 7.89, 22.93 -0.47 M65.16 25.64 C54.31 16.21, 43.45 6.77, 34.97 -0.6 M65.16 25.64 C55.58 17.32, 46.01 8.99, 34.97 -0.6 M65.13 15.01 C58.67 9.4, 52.21 3.79, 47.77 -0.08 M65.13 15.01 C60.12 10.66, 55.12 6.31, 47.77 -0.08 M65.09 4.38 C63.23 2.76, 61.37 1.15, 59.81 -0.21 M65.09 4.38 C63.64 3.12, 62.18 1.85, 59.81 -0.21" stroke="#fd7e1488" stroke-width="1" fill="none"></path><path d="M0 0 C14.15 0, 28.31 0, 64.46 0 M0 0 C25.54 0, 51.07 0, 64.46 0 M64.46 0 C64.46 17.78, 64.46 35.56, 64.46 64.4 M64.46 0 C64.46 25.6, 64.46 51.2, 64.46 64.4 M64.46 64.4 C45.32 64.4, 26.18 64.4, 0 64.4 M64.46 64.4 C44.84 64.4, 25.21 64.4, 0 64.4 M0 64.4 C0 48.19, 0 31.99, 0 0 M0 64.4 C0 49.98, 0 35.57, 0 0" stroke="#000000" stroke-width="2" fill="none"></path></g><g stroke-linecap="round"><g transform="translate(61.03437379069874 21.378717286259416) rotate(0 -14.527943252572754 4.246637183852272)" fill-rule="evenodd"><path d="M0 0 L-0.01 -5.02 L-14.76 -10.29 L-28.99 -5.08 L-29.08 12.27 L-14.61 18.78 L0.03 12.33 L0 0" stroke="none" stroke-width="0" fill="#ff00" fill-rule="evenodd"></path><path d="M0 0 C0 -1.19, -0.01 -2.37, -0.01 -5.02 M0 0 C0 -1.12, -0.01 -2.24, -0.01 -5.02 M-0.01 -5.02 C-5.54 -7, -11.07 -8.97, -14.76 -10.29 M-0.01 -5.02 C-5.57 -7.01, -11.13 -8.99, -14.76 -10.29 M-14.76 -10.29 C-19.46 -8.57, -24.15 -6.85, -28.99 -5.08 M-14.76 -10.29 C-20.44 -8.21, -26.12 -6.13, -28.99 -5.08 M-28.99 -5.08 C-29.02 0.02, -29.05 5.11, -29.08 12.27 M-28.99 -5.08 C-29.01 -1.06, -29.04 2.96, -29.08 12.27 M-29.08 12.27 C-25.37 13.94, -21.66 15.61, -14.61 18.78 M-29.08 12.27 C-25.86 13.72, -22.64 15.17, -14.61 18.78 M-14.61 18.78 C-9.89 16.7, -5.16 14.62, 0.03 12.33 M-14.61 18.78 C-9.32 16.45, -4.03 14.11, 0.03 12.33 M0.03 12.33 C0.02 8.31, 0.01 4.29, 0 0 M0.03 12.33 C0.02 9.71, 0.02 7.09, 0 0 M0 0 C0 0, 0 0, 0 0 M0 0 C0 0, 0 0, 0 0" stroke="#000" stroke-width="2" fill="none"></path></g></g><mask></mask><g stroke-linecap="round"><g transform="translate(32.468256417506836 16.574301826003648) rotate(0 7.040937546110854 11.492780070298295)"><path d="M0 0 C3.47 1.39, 6.93 2.78, 14.08 5.64 M0 0 C3.92 1.57, 7.83 3.14, 14.08 5.64 M14.08 5.64 C14.06 10.89, 14.04 16.15, 14.02 22.99 M14.08 5.64 C14.07 10.02, 14.05 14.4, 14.02 22.99" stroke="#000000" stroke-width="2" fill="none"></path></g></g><mask></mask><g stroke-linecap="round"><g transform="translate(46.50643053812337 22.141019523562136) rotate(0 6.968669893097058 -2.710038291759929)"><path d="M0 0 C4.06 -1.58, 8.12 -3.16, 13.94 -5.42 M0 0 C4.38 -1.7, 8.76 -3.41, 13.94 -5.42" stroke="#000000" stroke-width="2" fill="none"></path></g></g><mask></mask><g stroke-linecap="round"><g transform="translate(39.83552621055969 50.107316609652116) rotate(0 -6.263092272848439 1.8307533330339538)" fill-rule="evenodd"><path d="M0 0 L-0.01 -2.17 L-6.36 -4.43 L-12.5 -2.19 L-12.54 5.29 L-6.3 8.1 L0.01 5.31 L0 0" stroke="none" stroke-width="0" fill="#ff00" fill-rule="evenodd"></path><path d="M0 0 C0 -0.85, 0 -1.7, -0.01 -2.17 M0 0 C0 -0.45, 0 -0.9, -0.01 -2.17 M-0.01 -2.17 C-2.03 -2.89, -4.05 -3.61, -6.36 -4.43 M-0.01 -2.17 C-2.44 -3.04, -4.88 -3.9, -6.36 -4.43 M-6.36 -4.43 C-7.79 -3.91, -9.22 -3.39, -12.5 -2.19 M-6.36 -4.43 C-8.06 -3.81, -9.75 -3.19, -12.5 -2.19 M-12.5 -2.19 C-12.51 0.74, -12.53 3.67, -12.54 5.29 M-12.5 -2.19 C-12.51 -0.4, -12.52 1.4, -12.54 5.29 M-12.54 5.29 C-10.51 6.2, -8.48 7.11, -6.3 8.1 M-12.54 5.29 C-10.64 6.15, -8.73 7, -6.3 8.1 M-6.3 8.1 C-4.68 7.38, -3.06 6.67, 0.01 5.31 M-6.3 8.1 C-4.31 7.22, -2.31 6.34, 0.01 5.31 M0.01 5.31 C0.01 4.16, 0.01 3.01, 0 0 M0.01 5.31 C0.01 3.38, 0 1.46, 0 0 M0 0 C0 0, 0 0, 0 0 M0 0 C0 0, 0 0, 0 0" stroke="#000" stroke-width="2" fill="none"></path></g></g><mask></mask><g stroke-linecap="round"><g transform="translate(27.520484371887505 48.03610137832038) rotate(0 3.0353946716336395 4.954613381979243)"><path d="M0 0 C1.26 0.51, 2.53 1.01, 6.07 2.43 M0 0 C2.15 0.86, 4.3 1.72, 6.07 2.43 M6.07 2.43 C6.06 4.96, 6.05 7.48, 6.04 9.91 M6.07 2.43 C6.06 4.47, 6.06 6.5, 6.04 9.91" stroke="#000000" stroke-width="2" fill="none"></path></g></g><mask></mask><g stroke-linecap="round"><g transform="translate(33.572433937711594 50.435950138093176) rotate(0 3.004239609193064 -1.1683154035749794)"><path d="M0 0 C2.39 -0.93, 4.78 -1.86, 6.01 -2.34 M0 0 C2.11 -0.82, 4.23 -1.64, 6.01 -2.34" stroke="#000000" stroke-width="2" fill="none"></path></g></g><mask></mask><g stroke-linecap="round"><g transform="translate(52.97266676730396 57.12673650342731) rotate(0 -6.263092272848439 1.8307533330339538)" fill-rule="evenodd"><path d="M0 0 L-0.01 -2.17 L-6.36 -4.43 L-12.5 -2.19 L-12.54 5.29 L-6.3 8.1 L0.01 5.31 L0 0" stroke="none" stroke-width="0" fill="#ff00" fill-rule="evenodd"></path><path d="M0 0 C0 -0.6, 0 -1.2, -0.01 -2.17 M0 0 C0 -0.86, 0 -1.72, -0.01 -2.17 M-0.01 -2.17 C-1.89 -2.84, -3.78 -3.51, -6.36 -4.43 M-0.01 -2.17 C-1.94 -2.86, -3.88 -3.55, -6.36 -4.43 M-6.36 -4.43 C-7.91 -3.87, -9.45 -3.3, -12.5 -2.19 M-6.36 -4.43 C-7.74 -3.93, -9.11 -3.43, -12.5 -2.19 M-12.5 -2.19 C-12.51 0.42, -12.53 3.02, -12.54 5.29 M-12.5 -2.19 C-12.51 0.64, -12.53 3.47, -12.54 5.29 M-12.54 5.29 C-10.98 5.99, -9.43 6.69, -6.3 8.1 M-12.54 5.29 C-11.03 5.97, -9.52 6.65, -6.3 8.1 M-6.3 8.1 C-3.85 7.02, -1.41 5.94, 0.01 5.31 M-6.3 8.1 C-3.96 7.06, -1.61 6.03, 0.01 5.31 M0.01 5.31 C0.01 3.29, 0 1.26, 0 0 M0.01 5.31 C0.01 3.49, 0 1.66, 0 0 M0 0 C0 0, 0 0, 0 0 M0 0 C0 0, 0 0, 0 0" stroke="#000" stroke-width="2" fill="none"></path></g></g><mask></mask><g stroke-linecap="round"><g transform="translate(40.6576249286295 55.05552127209194) rotate(0 3.0353946716336395 4.954613381979243)"><path d="M0 0 C2.28 0.91, 4.55 1.82, 6.07 2.43 M0 0 C2.29 0.92, 4.57 1.83, 6.07 2.43 M6.07 2.43 C6.06 4.9, 6.05 7.37, 6.04 9.91 M6.07 2.43 C6.06 5.42, 6.05 8.4, 6.04 9.91" stroke="#000000" stroke-width="2" fill="none"></path></g></g><mask></mask><g stroke-linecap="round"><g transform="translate(46.709574494457684 57.45537003186655) rotate(0 3.004239609193064 -1.1683154035749794)"><path d="M0 0 C1.82 -0.71, 3.64 -1.42, 6.01 -2.34 M0 0 C1.52 -0.59, 3.04 -1.18, 6.01 -2.34" stroke="#000000" stroke-width="2" fill="none"></path></g></g><mask></mask><g stroke-linecap="round"><g transform="translate(65.61206659276331 49.27346829731323) rotate(0 -6.263092272848439 1.8307533330339538)" fill-rule="evenodd"><path d="M0 0 L-0.01 -2.17 L-6.36 -4.43 L-12.5 -2.19 L-12.54 5.29 L-6.3 8.1 L0.01 5.31 L0 0" stroke="none" stroke-width="0" fill="#ff00" fill-rule="evenodd"></path><path d="M0 0 C0 -0.66, 0 -1.32, -0.01 -2.17 M0 0 C0 -0.77, 0 -1.55, -0.01 -2.17 M-0.01 -2.17 C-2.46 -3.04, -4.92 -3.92, -6.36 -4.43 M-0.01 -2.17 C-2.45 -3.04, -4.9 -3.91, -6.36 -4.43 M-6.36 -4.43 C-8.04 -3.82, -9.71 -3.21, -12.5 -2.19 M-6.36 -4.43 C-8.58 -3.62, -10.79 -2.81, -12.5 -2.19 M-12.5 -2.19 C-12.51 0.17, -12.52 2.53, -12.54 5.29 M-12.5 -2.19 C-12.51 0.34, -12.53 2.87, -12.54 5.29 M-12.54 5.29 C-10.05 6.41, -7.56 7.53, -6.3 8.1 M-12.54 5.29 C-10.72 6.11, -8.91 6.92, -6.3 8.1 M-6.3 8.1 C-4.05 7.11, -1.8 6.11, 0.01 5.31 M-6.3 8.1 C-4.72 7.4, -3.14 6.7, 0.01 5.31 M0.01 5.31 C0.01 3.81, 0.01 2.31, 0 0 M0.01 5.31 C0.01 3.52, 0 1.72, 0 0 M0 0 C0 0, 0 0, 0 0 M0 0 C0 0, 0 0, 0 0" stroke="#000" stroke-width="2" fill="none"></path></g></g><mask></mask><g stroke-linecap="round"><g transform="translate(53.297024754086124 47.202253065979676) rotate(0 3.0353946716336395 4.954613381979243)"><path d="M0 0 C1.93 0.77, 3.86 1.55, 6.07 2.43 M0 0 C2.33 0.93, 4.65 1.86, 6.07 2.43 M6.07 2.43 C6.06 4.17, 6.06 5.91, 6.04 9.91 M6.07 2.43 C6.06 4.5, 6.06 6.56, 6.04 9.91" stroke="#000000" stroke-width="2" fill="none"></path></g></g><mask></mask><g stroke-linecap="round"><g transform="translate(59.34897431991658 49.60210182574883) rotate(0 3.004239609193064 -1.1683154035749794)"><path d="M0 0 C2.03 -0.79, 4.06 -1.58, 6.01 -2.34 M0 0 C1.64 -0.64, 3.27 -1.27, 6.01 -2.34" stroke="#000000" stroke-width="2" fill="none"></path></g></g><mask></mask><g stroke-linecap="round"><g transform="translate(28.872207616436754 43.13422271069794) rotate(178.33979303936556 17.338548670725686 -8.18684442950007)"><path d="M0 0 C-0.62 -0.36, -2.66 -1.12, -3.74 -2.14 C-4.83 -3.16, -6.37 -4.65, -6.52 -6.13 C-6.66 -7.6, -5.97 -9.61, -4.61 -10.98 C-3.25 -12.36, -0.8 -13.5, 1.63 -14.37 C4.06 -15.24, 7.05 -15.79, 9.95 -16.2 C12.86 -16.6, 15.99 -16.86, 19.06 -16.78 C22.13 -16.7, 25.63 -16.28, 28.39 -15.71 C31.14 -15.15, 33.66 -14.36, 35.59 -13.41 C37.52 -12.46, 39.02 -11.32, 39.96 -10.04 C40.89 -8.76, 41.49 -7.11, 41.19 -5.74 C40.9 -4.38, 39.47 -2.89, 38.2 -1.86 C36.93 -0.84, 34.36 0.03, 33.59 0.41 M0 0 C-0.62 -0.36, -2.66 -1.12, -3.74 -2.14 C-4.83 -3.16, -6.37 -4.65, -6.52 -6.13 C-6.66 -7.6, -5.97 -9.61, -4.61 -10.98 C-3.25 -12.36, -0.8 -13.5, 1.63 -14.37 C4.06 -15.24, 7.05 -15.79, 9.95 -16.2 C12.86 -16.6, 15.99 -16.86, 19.06 -16.78 C22.13 -16.7, 25.63 -16.28, 28.39 -15.71 C31.14 -15.15, 33.66 -14.36, 35.59 -13.41 C37.52 -12.46, 39.02 -11.32, 39.96 -10.04 C40.89 -8.76, 41.49 -7.11, 41.19 -5.74 C40.9 -4.38, 39.47 -2.89, 38.2 -1.86 C36.93 -0.84, 34.36 0.03, 33.59 0.41" stroke="#000000" stroke-width="2" fill="none"></path></g></g><mask></mask><g transform="translate(6 74.4352314809421) rotate(0 39.51000213623047 12)"><text x="0" y="0" font-family="Virgil, Segoe UI Emoji" font-size="20px" fill="#000000" text-anchor="start" style="white-space: pre;" direction="ltr" dominant-baseline="text-before-edge">Fargate</text></g></svg>