<svg version="1.1" xmlns="http://www.w3.org/2000/svg" viewBox="0 0 130.4399871826172 105.8370872646201" width="130.4399871826172" height="105.8370872646201">
  <!-- svg-source:excalidraw -->
  
  <defs>
    
    
  </defs>
  <g transform="translate(6 75.8370872646201) rotate(0 59.219993591308594 12)"><text x="0" y="0" font-family="Virgil, Segoe UI Emoji" font-size="20px" fill="#000000" text-anchor="start" style="white-space: pre;" direction="ltr" dominant-baseline="text-before-edge">Device Farm</text></g><g stroke-linecap="round" transform="translate(32.86954803466824 6) rotate(0 32.350445556640466 32.35044555664058)"><path d="M0 0 C0 0, 0 0, 0 0 M0 0 C0 0, 0 0, 0 0 M0.13 12.04 C4.29 7.26, 8.45 2.47, 10.63 -0.03 M0.13 12.04 C2.77 9, 5.41 5.97, 10.63 -0.03 M0.27 24.08 C6.83 16.53, 13.39 8.98, 21.26 -0.07 M0.27 24.08 C7.59 15.66, 14.91 7.24, 21.26 -0.07 M-0.26 36.88 C8 27.38, 16.25 17.89, 31.89 -0.1 M-0.26 36.88 C10.02 25.06, 20.29 13.24, 31.89 -0.1 M-0.12 48.92 C13.42 33.33, 26.97 17.75, 42.52 -0.14 M-0.12 48.92 C11.72 35.3, 23.56 21.67, 42.52 -0.14 M0.01 60.96 C17.3 41.07, 34.59 21.18, 53.15 -0.17 M0.01 60.96 C19.46 38.58, 38.92 16.2, 53.15 -0.17 M7.36 64.7 C29.07 39.72, 50.78 14.75, 63.78 -0.21 M7.36 64.7 C22.75 46.99, 38.14 29.29, 63.78 -0.21 M17.33 65.42 C32.02 48.52, 46.7 31.63, 64.57 11.08 M17.33 65.42 C28.98 52.02, 40.62 38.62, 64.57 11.08 M27.96 65.38 C41.28 50.06, 54.6 34.74, 64.7 23.12 M27.96 65.38 C35.76 56.41, 43.56 47.44, 64.7 23.12 M38.59 65.35 C45.86 56.99, 53.13 48.62, 64.84 35.16 M38.59 65.35 C48.75 53.67, 58.9 41.99, 64.84 35.16 M49.22 65.31 C52.44 61.61, 55.66 57.91, 64.97 47.2 M49.22 65.31 C55.44 58.17, 61.65 51.02, 64.97 47.2 M59.85 65.28 C61.65 63.22, 63.44 61.15, 65.1 59.24 M59.85 65.28 C61.34 63.57, 62.83 61.86, 65.1 59.24 M-0.34 64.41 C-0.34 64.41, -0.34 64.41, -0.34 64.41 M-0.34 64.41 C-0.34 64.41, -0.34 64.41, -0.34 64.41 M12.46 64.93 C7.6 60.71, 2.75 56.49, -0.37 53.78 M12.46 64.93 C9.86 62.67, 7.27 60.42, -0.37 53.78 M24.5 64.8 C19.25 60.24, 14 55.67, 0.35 43.8 M24.5 64.8 C15.22 56.73, 5.94 48.67, 0.35 43.8 M36.54 64.66 C25.15 54.76, 13.76 44.86, 0.31 33.17 M36.54 64.66 C26.37 55.82, 16.19 46.98, 0.31 33.17 M48.58 64.53 C33.19 51.16, 17.81 37.78, 0.28 22.54 M48.58 64.53 C29.75 48.16, 10.91 31.79, 0.28 22.54 M60.62 64.4 C46.62 52.23, 32.62 40.06, 0.24 11.91 M60.62 64.4 C46.98 52.54, 33.34 40.68, 0.24 11.91 M65.11 57.7 C42.77 38.28, 20.42 18.85, 0.21 1.28 M65.11 57.7 C49.8 44.39, 34.48 31.08, 0.21 1.28 M65.08 47.07 C50.52 34.41, 35.95 21.75, 10.74 -0.16 M65.08 47.07 C53.39 36.91, 41.7 26.75, 10.74 -0.16 M65.05 36.44 C53.57 26.47, 42.1 16.49, 22.78 -0.3 M65.05 36.44 C55.64 28.27, 46.24 20.1, 22.78 -0.3 M65.01 25.81 C55.52 17.56, 46.03 9.31, 34.82 -0.43 M65.01 25.81 C53.05 15.42, 41.09 5.02, 34.82 -0.43 M64.98 15.18 C58.35 9.43, 51.73 3.67, 47.62 0.09 M64.98 15.18 C60.29 11.11, 55.61 7.04, 47.62 0.09 M64.94 4.55 C63.27 3.1, 61.59 1.64, 59.66 -0.04 M64.94 4.55 C62.9 2.78, 60.85 1, 59.66 -0.04" stroke="#fa525288" stroke-width="1" fill="none"></path><path d="M0 0 C16.32 0, 32.65 0, 64.7 0 M0 0 C24.64 0, 49.29 0, 64.7 0 M64.7 0 C64.7 15.38, 64.7 30.76, 64.7 64.7 M64.7 0 C64.7 18.09, 64.7 36.18, 64.7 64.7 M64.7 64.7 C50.67 64.7, 36.64 64.7, 0 64.7 M64.7 64.7 C46.73 64.7, 28.75 64.7, 0 64.7 M0 64.7 C0 45.95, 0 27.21, 0 0 M0 64.7 C0 40.34, 0 15.98, 0 0" stroke="#000000" stroke-width="2" fill="none"></path></g><g stroke-linecap="round"><g transform="translate(41.018239205343434 24.17513227343261) rotate(0 24.201754385965046 14.17531328320797)"><path d="M0 0 C8.29 -4.68, 16.57 -9.37, 23.86 -13.48 M0 0 C8.87 -5.01, 17.74 -10.03, 23.86 -13.48 M23.86 -13.48 C32.83 -8.18, 41.79 -2.87, 48.4 1.04 M23.86 -13.48 C30.86 -9.34, 37.87 -5.2, 48.4 1.04 M48.4 1.04 C48.4 11.33, 48.4 21.63, 48.4 27.66 M48.4 1.04 C48.4 9.1, 48.4 17.17, 48.4 27.66 M48.4 27.66 C39.24 32.88, 30.07 38.1, 23.51 41.83 M48.4 27.66 C42.53 31, 36.65 34.35, 23.51 41.83 M23.51 41.83 C18.19 38.63, 12.87 35.42, 0 27.66 M23.51 41.83 C18.65 38.9, 13.79 35.97, 0 27.66 M0 27.66 C0 17.39, 0 7.13, 0 0 M0 27.66 C0 17.6, 0 7.55, 0 0" stroke="#000000" stroke-width="2" fill="none"></path></g></g><mask></mask><g stroke-linecap="round" transform="translate(61.927391759626516 16.96096676369598) rotate(0 2.762683578104202 2.762683578104088)"><path d="M5.53 2.76 C5.53 2.92, 5.51 3.08, 5.48 3.24 C5.46 3.4, 5.41 3.56, 5.36 3.71 C5.3 3.86, 5.24 4.01, 5.16 4.14 C5.08 4.28, 4.98 4.42, 4.88 4.54 C4.78 4.66, 4.66 4.78, 4.54 4.88 C4.42 4.98, 4.28 5.08, 4.14 5.16 C4.01 5.24, 3.86 5.3, 3.71 5.36 C3.56 5.41, 3.4 5.46, 3.24 5.48 C3.08 5.51, 2.92 5.53, 2.76 5.53 C2.6 5.53, 2.44 5.51, 2.28 5.48 C2.13 5.46, 1.97 5.41, 1.82 5.36 C1.67 5.3, 1.52 5.24, 1.38 5.16 C1.24 5.08, 1.11 4.98, 0.99 4.88 C0.86 4.78, 0.75 4.66, 0.65 4.54 C0.54 4.42, 0.45 4.28, 0.37 4.14 C0.29 4.01, 0.22 3.86, 0.17 3.71 C0.11 3.56, 0.07 3.4, 0.04 3.24 C0.01 3.08, 0 2.92, 0 2.76 C0 2.6, 0.01 2.44, 0.04 2.28 C0.07 2.13, 0.11 1.97, 0.17 1.82 C0.22 1.67, 0.29 1.52, 0.37 1.38 C0.45 1.24, 0.54 1.11, 0.65 0.99 C0.75 0.86, 0.86 0.75, 0.99 0.65 C1.11 0.54, 1.24 0.45, 1.38 0.37 C1.52 0.29, 1.67 0.22, 1.82 0.17 C1.97 0.11, 2.13 0.07, 2.28 0.04 C2.44 0.01, 2.6 0, 2.76 0 C2.92 0, 3.08 0.01, 3.24 0.04 C3.4 0.07, 3.56 0.11, 3.71 0.17 C3.86 0.22, 4.01 0.29, 4.14 0.37 C4.28 0.45, 4.42 0.54, 4.54 0.65 C4.66 0.75, 4.78 0.86, 4.88 0.99 C4.98 1.11, 5.08 1.24, 5.16 1.38 C5.24 1.52, 5.3 1.67, 5.36 1.82 C5.41 1.97, 5.46 2.13, 5.48 2.28 C5.51 2.44, 5.52 2.68, 5.53 2.76 C5.53 2.84, 5.53 2.68, 5.53 2.76" stroke="#000000" stroke-width="2" fill="none"></path></g><g stroke-linecap="round" transform="translate(77.95095651263046 25.985733118835924) rotate(0 2.762683578104202 2.762683578104088)"><path d="M5.53 2.76 C5.53 2.92, 5.51 3.08, 5.48 3.24 C5.46 3.4, 5.41 3.56, 5.36 3.71 C5.3 3.86, 5.24 4.01, 5.16 4.14 C5.08 4.28, 4.98 4.42, 4.88 4.54 C4.78 4.66, 4.66 4.78, 4.54 4.88 C4.42 4.98, 4.28 5.08, 4.14 5.16 C4.01 5.24, 3.86 5.3, 3.71 5.36 C3.56 5.41, 3.4 5.46, 3.24 5.48 C3.08 5.51, 2.92 5.53, 2.76 5.53 C2.6 5.53, 2.44 5.51, 2.28 5.48 C2.13 5.46, 1.97 5.41, 1.82 5.36 C1.67 5.3, 1.52 5.24, 1.38 5.16 C1.24 5.08, 1.11 4.98, 0.99 4.88 C0.86 4.78, 0.75 4.66, 0.65 4.54 C0.54 4.42, 0.45 4.28, 0.37 4.14 C0.29 4.01, 0.22 3.86, 0.17 3.71 C0.11 3.56, 0.07 3.4, 0.04 3.24 C0.01 3.08, 0 2.92, 0 2.76 C0 2.6, 0.01 2.44, 0.04 2.28 C0.07 2.13, 0.11 1.97, 0.17 1.82 C0.22 1.67, 0.29 1.52, 0.37 1.38 C0.45 1.24, 0.54 1.11, 0.65 0.99 C0.75 0.86, 0.86 0.75, 0.99 0.65 C1.11 0.54, 1.24 0.45, 1.38 0.37 C1.52 0.29, 1.67 0.22, 1.82 0.17 C1.97 0.11, 2.13 0.07, 2.28 0.04 C2.44 0.01, 2.6 0, 2.76 0 C2.92 0, 3.08 0.01, 3.24 0.04 C3.4 0.07, 3.56 0.11, 3.71 0.17 C3.86 0.22, 4.01 0.29, 4.14 0.37 C4.28 0.45, 4.42 0.54, 4.54 0.65 C4.66 0.75, 4.78 0.86, 4.88 0.99 C4.98 1.11, 5.08 1.24, 5.16 1.38 C5.24 1.52, 5.3 1.67, 5.36 1.82 C5.41 1.97, 5.46 2.13, 5.48 2.28 C5.51 2.44, 5.52 2.68, 5.53 2.76 C5.53 2.84, 5.53 2.68, 5.53 2.76" stroke="#000000" stroke-width="2" fill="none"></path></g><g stroke-linecap="round" transform="translate(77.95095651263046 44.77198144994509) rotate(0 2.762683578104202 2.762683578104088)"><path d="M5.53 2.76 C5.53 2.92, 5.51 3.08, 5.48 3.24 C5.46 3.4, 5.41 3.56, 5.36 3.71 C5.3 3.86, 5.24 4.01, 5.16 4.14 C5.08 4.28, 4.98 4.42, 4.88 4.54 C4.78 4.66, 4.66 4.78, 4.54 4.88 C4.42 4.98, 4.28 5.08, 4.14 5.16 C4.01 5.24, 3.86 5.3, 3.71 5.36 C3.56 5.41, 3.4 5.46, 3.24 5.48 C3.08 5.51, 2.92 5.53, 2.76 5.53 C2.6 5.53, 2.44 5.51, 2.28 5.48 C2.13 5.46, 1.97 5.41, 1.82 5.36 C1.67 5.3, 1.52 5.24, 1.38 5.16 C1.24 5.08, 1.11 4.98, 0.99 4.88 C0.86 4.78, 0.75 4.66, 0.65 4.54 C0.54 4.42, 0.45 4.28, 0.37 4.14 C0.29 4.01, 0.22 3.86, 0.17 3.71 C0.11 3.56, 0.07 3.4, 0.04 3.24 C0.01 3.08, 0 2.92, 0 2.76 C0 2.6, 0.01 2.44, 0.04 2.28 C0.07 2.13, 0.11 1.97, 0.17 1.82 C0.22 1.67, 0.29 1.52, 0.37 1.38 C0.45 1.24, 0.54 1.11, 0.65 0.99 C0.75 0.86, 0.86 0.75, 0.99 0.65 C1.11 0.54, 1.24 0.45, 1.38 0.37 C1.52 0.29, 1.67 0.22, 1.82 0.17 C1.97 0.11, 2.13 0.07, 2.28 0.04 C2.44 0.01, 2.6 0, 2.76 0 C2.92 0, 3.08 0.01, 3.24 0.04 C3.4 0.07, 3.56 0.11, 3.71 0.17 C3.86 0.22, 4.01 0.29, 4.14 0.37 C4.28 0.45, 4.42 0.54, 4.54 0.65 C4.66 0.75, 4.78 0.86, 4.88 0.99 C4.98 1.11, 5.08 1.24, 5.16 1.38 C5.24 1.52, 5.3 1.67, 5.36 1.82 C5.41 1.97, 5.46 2.13, 5.48 2.28 C5.51 2.44, 5.52 2.68, 5.53 2.76 C5.53 2.84, 5.53 2.68, 5.53 2.76" stroke="#000000" stroke-width="2" fill="none"></path></g><g stroke-linecap="round" transform="translate(61.74321285441965 54.349284520704714) rotate(0 2.762683578104202 2.762683578104088)"><path d="M5.53 2.76 C5.53 2.92, 5.51 3.08, 5.48 3.24 C5.46 3.4, 5.41 3.56, 5.36 3.71 C5.3 3.86, 5.24 4.01, 5.16 4.14 C5.08 4.28, 4.98 4.42, 4.88 4.54 C4.78 4.66, 4.66 4.78, 4.54 4.88 C4.42 4.98, 4.28 5.08, 4.14 5.16 C4.01 5.24, 3.86 5.3, 3.71 5.36 C3.56 5.41, 3.4 5.46, 3.24 5.48 C3.08 5.51, 2.92 5.53, 2.76 5.53 C2.6 5.53, 2.44 5.51, 2.28 5.48 C2.13 5.46, 1.97 5.41, 1.82 5.36 C1.67 5.3, 1.52 5.24, 1.38 5.16 C1.24 5.08, 1.11 4.98, 0.99 4.88 C0.86 4.78, 0.75 4.66, 0.65 4.54 C0.54 4.42, 0.45 4.28, 0.37 4.14 C0.29 4.01, 0.22 3.86, 0.17 3.71 C0.11 3.56, 0.07 3.4, 0.04 3.24 C0.01 3.08, 0 2.92, 0 2.76 C0 2.6, 0.01 2.44, 0.04 2.28 C0.07 2.13, 0.11 1.97, 0.17 1.82 C0.22 1.67, 0.29 1.52, 0.37 1.38 C0.45 1.24, 0.54 1.11, 0.65 0.99 C0.75 0.86, 0.86 0.75, 0.99 0.65 C1.11 0.54, 1.24 0.45, 1.38 0.37 C1.52 0.29, 1.67 0.22, 1.82 0.17 C1.97 0.11, 2.13 0.07, 2.28 0.04 C2.44 0.01, 2.6 0, 2.76 0 C2.92 0, 3.08 0.01, 3.24 0.04 C3.4 0.07, 3.56 0.11, 3.71 0.17 C3.86 0.22, 4.01 0.29, 4.14 0.37 C4.28 0.45, 4.42 0.54, 4.54 0.65 C4.66 0.75, 4.78 0.86, 4.88 0.99 C4.98 1.11, 5.08 1.24, 5.16 1.38 C5.24 1.52, 5.3 1.67, 5.36 1.82 C5.41 1.97, 5.46 2.13, 5.48 2.28 C5.51 2.44, 5.52 2.68, 5.53 2.76 C5.53 2.84, 5.53 2.68, 5.53 2.76" stroke="#000000" stroke-width="2" fill="none"></path></g><g stroke-linecap="round" transform="translate(61.74321285441965 35.56303618959646) rotate(0 2.762683578104202 2.762683578104088)"><path d="M5.53 2.76 C5.53 2.92, 5.51 3.08, 5.48 3.24 C5.46 3.4, 5.41 3.56, 5.36 3.71 C5.3 3.86, 5.24 4.01, 5.16 4.14 C5.08 4.28, 4.98 4.42, 4.88 4.54 C4.78 4.66, 4.66 4.78, 4.54 4.88 C4.42 4.98, 4.28 5.08, 4.14 5.16 C4.01 5.24, 3.86 5.3, 3.71 5.36 C3.56 5.41, 3.4 5.46, 3.24 5.48 C3.08 5.51, 2.92 5.53, 2.76 5.53 C2.6 5.53, 2.44 5.51, 2.28 5.48 C2.13 5.46, 1.97 5.41, 1.82 5.36 C1.67 5.3, 1.52 5.24, 1.38 5.16 C1.24 5.08, 1.11 4.98, 0.99 4.88 C0.86 4.78, 0.75 4.66, 0.65 4.54 C0.54 4.42, 0.45 4.28, 0.37 4.14 C0.29 4.01, 0.22 3.86, 0.17 3.71 C0.11 3.56, 0.07 3.4, 0.04 3.24 C0.01 3.08, 0 2.92, 0 2.76 C0 2.6, 0.01 2.44, 0.04 2.28 C0.07 2.13, 0.11 1.97, 0.17 1.82 C0.22 1.67, 0.29 1.52, 0.37 1.38 C0.45 1.24, 0.54 1.11, 0.65 0.99 C0.75 0.86, 0.86 0.75, 0.99 0.65 C1.11 0.54, 1.24 0.45, 1.38 0.37 C1.52 0.29, 1.67 0.22, 1.82 0.17 C1.97 0.11, 2.13 0.07, 2.28 0.04 C2.44 0.01, 2.6 0, 2.76 0 C2.92 0, 3.08 0.01, 3.24 0.04 C3.4 0.07, 3.56 0.11, 3.71 0.17 C3.86 0.22, 4.01 0.29, 4.14 0.37 C4.28 0.45, 4.42 0.54, 4.54 0.65 C4.66 0.75, 4.78 0.86, 4.88 0.99 C4.98 1.11, 5.08 1.24, 5.16 1.38 C5.24 1.52, 5.3 1.67, 5.36 1.82 C5.41 1.97, 5.46 2.13, 5.48 2.28 C5.51 2.44, 5.52 2.68, 5.53 2.76 C5.53 2.84, 5.53 2.68, 5.53 2.76" stroke="#000000" stroke-width="2" fill="none"></path></g><g stroke-linecap="round" transform="translate(45.53546919620885 26.35409092924965) rotate(0 2.762683578104202 2.762683578104088)"><path d="M5.53 2.76 C5.53 2.92, 5.51 3.08, 5.48 3.24 C5.46 3.4, 5.41 3.56, 5.36 3.71 C5.3 3.86, 5.24 4.01, 5.16 4.14 C5.08 4.28, 4.98 4.42, 4.88 4.54 C4.78 4.66, 4.66 4.78, 4.54 4.88 C4.42 4.98, 4.28 5.08, 4.14 5.16 C4.01 5.24, 3.86 5.3, 3.71 5.36 C3.56 5.41, 3.4 5.46, 3.24 5.48 C3.08 5.51, 2.92 5.53, 2.76 5.53 C2.6 5.53, 2.44 5.51, 2.28 5.48 C2.13 5.46, 1.97 5.41, 1.82 5.36 C1.67 5.3, 1.52 5.24, 1.38 5.16 C1.24 5.08, 1.11 4.98, 0.99 4.88 C0.86 4.78, 0.75 4.66, 0.65 4.54 C0.54 4.42, 0.45 4.28, 0.37 4.14 C0.29 4.01, 0.22 3.86, 0.17 3.71 C0.11 3.56, 0.07 3.4, 0.04 3.24 C0.01 3.08, 0 2.92, 0 2.76 C0 2.6, 0.01 2.44, 0.04 2.28 C0.07 2.13, 0.11 1.97, 0.17 1.82 C0.22 1.67, 0.29 1.52, 0.37 1.38 C0.45 1.24, 0.54 1.11, 0.65 0.99 C0.75 0.86, 0.86 0.75, 0.99 0.65 C1.11 0.54, 1.24 0.45, 1.38 0.37 C1.52 0.29, 1.67 0.22, 1.82 0.17 C1.97 0.11, 2.13 0.07, 2.28 0.04 C2.44 0.01, 2.6 0, 2.76 0 C2.92 0, 3.08 0.01, 3.24 0.04 C3.4 0.07, 3.56 0.11, 3.71 0.17 C3.86 0.22, 4.01 0.29, 4.14 0.37 C4.28 0.45, 4.42 0.54, 4.54 0.65 C4.66 0.75, 4.78 0.86, 4.88 0.99 C4.98 1.11, 5.08 1.24, 5.16 1.38 C5.24 1.52, 5.3 1.67, 5.36 1.82 C5.41 1.97, 5.46 2.13, 5.48 2.28 C5.51 2.44, 5.52 2.68, 5.53 2.76 C5.53 2.84, 5.53 2.68, 5.53 2.76" stroke="#000000" stroke-width="2" fill="none"></path></g><g stroke-linecap="round" transform="translate(45.53546919620885 44.77198144994509) rotate(0 2.762683578104202 2.762683578104088)"><path d="M5.53 2.76 C5.53 2.92, 5.51 3.08, 5.48 3.24 C5.46 3.4, 5.41 3.56, 5.36 3.71 C5.3 3.86, 5.24 4.01, 5.16 4.14 C5.08 4.28, 4.98 4.42, 4.88 4.54 C4.78 4.66, 4.66 4.78, 4.54 4.88 C4.42 4.98, 4.28 5.08, 4.14 5.16 C4.01 5.24, 3.86 5.3, 3.71 5.36 C3.56 5.41, 3.4 5.46, 3.24 5.48 C3.08 5.51, 2.92 5.53, 2.76 5.53 C2.6 5.53, 2.44 5.51, 2.28 5.48 C2.13 5.46, 1.97 5.41, 1.82 5.36 C1.67 5.3, 1.52 5.24, 1.38 5.16 C1.24 5.08, 1.11 4.98, 0.99 4.88 C0.86 4.78, 0.75 4.66, 0.65 4.54 C0.54 4.42, 0.45 4.28, 0.37 4.14 C0.29 4.01, 0.22 3.86, 0.17 3.71 C0.11 3.56, 0.07 3.4, 0.04 3.24 C0.01 3.08, 0 2.92, 0 2.76 C0 2.6, 0.01 2.44, 0.04 2.28 C0.07 2.13, 0.11 1.97, 0.17 1.82 C0.22 1.67, 0.29 1.52, 0.37 1.38 C0.45 1.24, 0.54 1.11, 0.65 0.99 C0.75 0.86, 0.86 0.75, 0.99 0.65 C1.11 0.54, 1.24 0.45, 1.38 0.37 C1.52 0.29, 1.67 0.22, 1.82 0.17 C1.97 0.11, 2.13 0.07, 2.28 0.04 C2.44 0.01, 2.6 0, 2.76 0 C2.92 0, 3.08 0.01, 3.24 0.04 C3.4 0.07, 3.56 0.11, 3.71 0.17 C3.86 0.22, 4.01 0.29, 4.14 0.37 C4.28 0.45, 4.42 0.54, 4.54 0.65 C4.66 0.75, 4.78 0.86, 4.88 0.99 C4.98 1.11, 5.08 1.24, 5.16 1.38 C5.24 1.52, 5.3 1.67, 5.36 1.82 C5.41 1.97, 5.46 2.13, 5.48 2.28 C5.51 2.44, 5.52 2.68, 5.53 2.76 C5.53 2.84, 5.53 2.68, 5.53 2.76" stroke="#000000" stroke-width="2" fill="none"></path></g><g stroke-linecap="round"><g transform="translate(50.50829963679598 30.59020574900933) rotate(0 5.709546061415267 3.315220293724906)"><path d="M0 0 C2.89 1.68, 5.79 3.36, 11.42 6.63 M0 0 C3.39 1.97, 6.77 3.93, 11.42 6.63" stroke="#000000" stroke-width="2" fill="none"></path></g></g><mask></mask><g stroke-linecap="round"><g transform="translate(64.50589643252397 53.428389994672216) rotate(0 0 -6.262082777036085)"><path d="M0 0 C0 -4.56, 0 -9.11, 0 -12.52 M0 0 C0 -4.9, 0 -9.8, 0 -12.52" stroke="#000000" stroke-width="2" fill="none"></path></g></g><mask></mask><g stroke-linecap="round"><g transform="translate(67.08440110542097 36.483930715632596) rotate(0 5.52536715620829 -3.1310413885180424)"><path d="M0 0 C4.1 -2.32, 8.2 -4.65, 11.05 -6.26 M0 0 C2.82 -1.6, 5.64 -3.2, 11.05 -6.26" stroke="#000000" stroke-width="2" fill="none"></path></g></g><mask></mask><g stroke-linecap="round"><g transform="translate(47.56143715348526 36.483930715632596) rotate(0 0 1.8417890520695437)"><path d="M0 0 C0 1.3, 0 2.6, 0 3.68 M0 0 C0 1.26, 0 2.51, 0 3.68" stroke="#000000" stroke-width="2" fill="none"></path></g></g><mask></mask><g stroke-linecap="round"><g transform="translate(54.92859336176252 24.69648078238788) rotate(0 1.84178905206943 -0.9208945260347718)"><path d="M0 0 C1.04 -0.52, 2.09 -1.04, 3.68 -1.84 M0 0 C1.2 -0.6, 2.41 -1.2, 3.68 -1.84" stroke="#000000" stroke-width="2" fill="none"></path></g></g><mask></mask><g stroke-linecap="round"><g transform="translate(81.0819979011485 36.85228852604632) rotate(0 0 1.8417890520695437)"><path d="M0 0 C0 0.8, 0 1.6, 0 3.68 M0 0 C0 1.02, 0 2.05, 0 3.68" stroke="#000000" stroke-width="2" fill="none"></path></g></g><mask></mask><g stroke-linecap="round"><g transform="translate(70.39962139914587 53.61256889987726) rotate(0 1.84178905206943 -0.9208945260347718)"><path d="M0 0 C1.42 -0.71, 2.85 -1.42, 3.68 -1.84 M0 0 C1.12 -0.56, 2.23 -1.12, 3.68 -1.84" stroke="#000000" stroke-width="2" fill="none"></path></g></g><mask></mask><g stroke-linecap="round"><g transform="translate(54.560235551348796 50.84988532177249) rotate(0 1.84178905206943 1.2892523364484987)"><path d="M0 0 C1.44 1.01, 2.88 2.02, 3.68 2.58 M0 0 C1.16 0.82, 2.33 1.63, 3.68 2.58" stroke="#000000" stroke-width="2" fill="none"></path></g></g><mask></mask><g stroke-linecap="round"><g transform="translate(70.76797920956005 23.03887063552429) rotate(0 1.84178905206943 1.2892523364484987)"><path d="M0 0 C1.05 0.73, 2.09 1.46, 3.68 2.58 M0 0 C1.09 0.76, 2.17 1.52, 3.68 2.58" stroke="#000000" stroke-width="2" fill="none"></path></g></g><mask></mask></svg>