<svg version="1.1" xmlns="http://www.w3.org/2000/svg" viewBox="0 0 80.8800048828125 106.1702446027266" width="80.8800048828125" height="106.1702446027266">
  <!-- svg-source:excalidraw -->
  
  <defs>
    
    
  </defs>
  <g transform="translate(6 76.1702446027266) rotate(0 34.44000244140625 12)"><text x="34.44000244140625" y="0" font-family="Virgil, Segoe UI Emoji" font-size="20px" fill="#000000" text-anchor="middle" style="white-space: pre;" direction="ltr" dominant-baseline="text-before-edge">Backup</text></g><g stroke-linecap="round" transform="translate(7.8995819091796875 6) rotate(0 32.540420532226506 32.54042053222656)"><path d="M0 0 C0 0, 0 0, 0 0 M0 0 C0 0, 0 0, 0 0 M0.13 12.04 C3.33 8.36, 6.53 4.69, 10.63 -0.03 M0.13 12.04 C3.05 8.69, 5.96 5.34, 10.63 -0.03 M0.27 24.08 C6.55 16.85, 12.84 9.62, 21.26 -0.07 M0.27 24.08 C8.65 14.44, 17.03 4.8, 21.26 -0.07 M-0.26 36.88 C7.96 27.43, 16.17 17.98, 31.89 -0.1 M-0.26 36.88 C8.13 27.23, 16.51 17.59, 31.89 -0.1 M-0.12 48.92 C16.69 29.57, 33.51 10.22, 42.52 -0.14 M-0.12 48.92 C11.97 35.01, 24.06 21.1, 42.52 -0.14 M0.01 60.96 C17.42 40.93, 34.84 20.89, 53.15 -0.17 M0.01 60.96 C17.79 40.51, 35.56 20.06, 53.15 -0.17 M6.7 65.45 C18.7 51.66, 30.69 37.86, 63.78 -0.21 M6.7 65.45 C25.19 44.18, 43.68 22.92, 63.78 -0.21 M17.33 65.42 C36.39 43.49, 55.45 21.57, 65.88 9.57 M17.33 65.42 C31.98 48.57, 46.62 31.73, 65.88 9.57 M27.96 65.38 C42.24 48.96, 56.52 32.53, 66.02 21.61 M27.96 65.38 C37.63 54.26, 47.3 43.14, 66.02 21.61 M38.59 65.35 C45.61 57.28, 52.62 49.21, 65.49 34.41 M38.59 65.35 C44.01 59.12, 49.42 52.9, 65.49 34.41 M49.22 65.31 C54.27 59.52, 59.31 53.72, 65.63 46.45 M49.22 65.31 C55.68 57.89, 62.13 50.47, 65.63 46.45 M59.85 65.28 C62.11 62.69, 64.36 60.09, 65.76 58.49 M59.85 65.28 C61.08 63.87, 62.31 62.45, 65.76 58.49 M0.23 65.28 C0.23 65.28, 0.23 65.28, 0.23 65.28 M0.23 65.28 C0.23 65.28, 0.23 65.28, 0.23 65.28 M12.27 65.15 C8.11 61.53, 3.94 57.91, 0.19 54.65 M12.27 65.15 C8.24 61.64, 4.21 58.14, 0.19 54.65 M24.31 65.01 C17.35 58.96, 10.39 52.91, 0.16 44.02 M24.31 65.01 C16.88 58.56, 9.45 52.1, 0.16 44.02 M36.35 64.88 C22.7 53.01, 9.05 41.15, 0.13 33.39 M36.35 64.88 C24.6 54.67, 12.85 44.45, 0.13 33.39 M49.15 65.4 C38.47 56.12, 27.8 46.84, 0.09 22.76 M49.15 65.4 C31.93 50.43, 14.71 35.46, 0.09 22.76 M61.19 65.27 C46.2 52.24, 31.21 39.21, 0.06 12.13 M61.19 65.27 C39 45.98, 16.8 26.69, 0.06 12.13 M64.93 57.92 C47.08 42.41, 29.24 26.9, 0.02 1.5 M64.93 57.92 C42.78 38.67, 20.64 19.42, 0.02 1.5 M65.65 47.95 C45.78 30.68, 25.92 13.41, 9.8 -0.6 M65.65 47.95 C45.07 30.06, 24.49 12.17, 9.8 -0.6 M65.61 37.32 C51.47 25.02, 37.32 12.72, 21.84 -0.74 M65.61 37.32 C55.67 28.68, 45.73 20.03, 21.84 -0.74 M65.58 26.69 C57.55 19.71, 49.53 12.73, 33.88 -0.87 M65.58 26.69 C56.22 18.55, 46.86 10.41, 33.88 -0.87 M65.54 16.06 C61.5 12.54, 57.45 9.02, 46.68 -0.35 M65.54 16.06 C59.05 10.41, 52.56 4.77, 46.68 -0.35 M65.51 5.43 C63.32 3.53, 61.14 1.63, 58.72 -0.48 M65.51 5.43 C63.92 4.04, 62.33 2.66, 58.72 -0.48" stroke="#40c05788" stroke-width="1" fill="none"></path><path d="M0 0 C25.4 0, 50.81 0, 65.08 0 M0 0 C15.41 0, 30.82 0, 65.08 0 M65.08 0 C65.08 24.44, 65.08 48.89, 65.08 65.08 M65.08 0 C65.08 22.73, 65.08 45.45, 65.08 65.08 M65.08 65.08 C45.34 65.08, 25.6 65.08, 0 65.08 M65.08 65.08 C45.91 65.08, 26.73 65.08, 0 65.08 M0 65.08 C0 49.31, 0 33.53, 0 0 M0 65.08 C0 44.43, 0 23.77, 0 0" stroke="#000000" stroke-width="2" fill="none"></path></g><g stroke-linecap="round" transform="translate(36.44000244140625 10.540420532222925) rotate(0 3.692307692307679 3.6923076923076223)"><path d="M7.38 3.69 C7.38 3.91, 7.37 4.12, 7.33 4.33 C7.29 4.54, 7.24 4.75, 7.16 4.96 C7.09 5.16, 7 5.35, 6.89 5.54 C6.78 5.72, 6.66 5.9, 6.52 6.07 C6.38 6.23, 6.23 6.38, 6.07 6.52 C5.9 6.66, 5.72 6.78, 5.54 6.89 C5.35 7, 5.16 7.09, 4.96 7.16 C4.75 7.24, 4.54 7.29, 4.33 7.33 C4.12 7.37, 3.91 7.38, 3.69 7.38 C3.48 7.38, 3.26 7.37, 3.05 7.33 C2.84 7.29, 2.63 7.24, 2.43 7.16 C2.23 7.09, 2.03 7, 1.85 6.89 C1.66 6.78, 1.48 6.66, 1.32 6.52 C1.16 6.38, 1 6.23, 0.86 6.07 C0.73 5.9, 0.6 5.72, 0.49 5.54 C0.39 5.35, 0.3 5.16, 0.22 4.96 C0.15 4.75, 0.09 4.54, 0.06 4.33 C0.02 4.12, 0 3.91, 0 3.69 C0 3.48, 0.02 3.26, 0.06 3.05 C0.09 2.84, 0.15 2.63, 0.22 2.43 C0.3 2.23, 0.39 2.03, 0.49 1.85 C0.6 1.66, 0.73 1.48, 0.86 1.32 C1 1.16, 1.16 1, 1.32 0.86 C1.48 0.73, 1.66 0.6, 1.85 0.49 C2.03 0.39, 2.23 0.3, 2.43 0.22 C2.63 0.15, 2.84 0.09, 3.05 0.06 C3.26 0.02, 3.48 0, 3.69 0 C3.91 0, 4.12 0.02, 4.33 0.06 C4.54 0.09, 4.75 0.15, 4.96 0.22 C5.16 0.3, 5.35 0.39, 5.54 0.49 C5.72 0.6, 5.9 0.73, 6.07 0.86 C6.23 1, 6.38 1.16, 6.52 1.32 C6.66 1.48, 6.78 1.66, 6.89 1.85 C7 2.03, 7.09 2.23, 7.16 2.43 C7.24 2.63, 7.29 2.84, 7.33 3.05 C7.37 3.26, 7.38 3.59, 7.38 3.69 C7.39 3.8, 7.39 3.59, 7.38 3.69" stroke="#000000" stroke-width="2" fill="none"></path></g><g stroke-linecap="round" transform="translate(61.055387056791005 28.38657437837537) rotate(0 3.692307692307679 3.6923076923076223)"><path d="M7.38 3.69 C7.38 3.91, 7.37 4.12, 7.33 4.33 C7.29 4.54, 7.24 4.75, 7.16 4.96 C7.09 5.16, 7 5.35, 6.89 5.54 C6.78 5.72, 6.66 5.9, 6.52 6.07 C6.38 6.23, 6.23 6.38, 6.07 6.52 C5.9 6.66, 5.72 6.78, 5.54 6.89 C5.35 7, 5.16 7.09, 4.96 7.16 C4.75 7.24, 4.54 7.29, 4.33 7.33 C4.12 7.37, 3.91 7.38, 3.69 7.38 C3.48 7.38, 3.26 7.37, 3.05 7.33 C2.84 7.29, 2.63 7.24, 2.43 7.16 C2.23 7.09, 2.03 7, 1.85 6.89 C1.66 6.78, 1.48 6.66, 1.32 6.52 C1.16 6.38, 1 6.23, 0.86 6.07 C0.73 5.9, 0.6 5.72, 0.49 5.54 C0.39 5.35, 0.3 5.16, 0.22 4.96 C0.15 4.75, 0.09 4.54, 0.06 4.33 C0.02 4.12, 0 3.91, 0 3.69 C0 3.48, 0.02 3.26, 0.06 3.05 C0.09 2.84, 0.15 2.63, 0.22 2.43 C0.3 2.23, 0.39 2.03, 0.49 1.85 C0.6 1.66, 0.73 1.48, 0.86 1.32 C1 1.16, 1.16 1, 1.32 0.86 C1.48 0.73, 1.66 0.6, 1.85 0.49 C2.03 0.39, 2.23 0.3, 2.43 0.22 C2.63 0.15, 2.84 0.09, 3.05 0.06 C3.26 0.02, 3.48 0, 3.69 0 C3.91 0, 4.12 0.02, 4.33 0.06 C4.54 0.09, 4.75 0.15, 4.96 0.22 C5.16 0.3, 5.35 0.39, 5.54 0.49 C5.72 0.6, 5.9 0.73, 6.07 0.86 C6.23 1, 6.38 1.16, 6.52 1.32 C6.66 1.48, 6.78 1.66, 6.89 1.85 C7 2.03, 7.09 2.23, 7.16 2.43 C7.24 2.63, 7.29 2.84, 7.33 3.05 C7.37 3.26, 7.38 3.59, 7.38 3.69 C7.39 3.8, 7.39 3.59, 7.38 3.69" stroke="#000000" stroke-width="2" fill="none"></path></g><g stroke-linecap="round" transform="translate(51.209233210637194 59.1558051476095) rotate(0 3.692307692307679 3.6923076923076223)"><path d="M7.38 3.69 C7.38 3.91, 7.37 4.12, 7.33 4.33 C7.29 4.54, 7.24 4.75, 7.16 4.96 C7.09 5.16, 7 5.35, 6.89 5.54 C6.78 5.72, 6.66 5.9, 6.52 6.07 C6.38 6.23, 6.23 6.38, 6.07 6.52 C5.9 6.66, 5.72 6.78, 5.54 6.89 C5.35 7, 5.16 7.09, 4.96 7.16 C4.75 7.24, 4.54 7.29, 4.33 7.33 C4.12 7.37, 3.91 7.38, 3.69 7.38 C3.48 7.38, 3.26 7.37, 3.05 7.33 C2.84 7.29, 2.63 7.24, 2.43 7.16 C2.23 7.09, 2.03 7, 1.85 6.89 C1.66 6.78, 1.48 6.66, 1.32 6.52 C1.16 6.38, 1 6.23, 0.86 6.07 C0.73 5.9, 0.6 5.72, 0.49 5.54 C0.39 5.35, 0.3 5.16, 0.22 4.96 C0.15 4.75, 0.09 4.54, 0.06 4.33 C0.02 4.12, 0 3.91, 0 3.69 C0 3.48, 0.02 3.26, 0.06 3.05 C0.09 2.84, 0.15 2.63, 0.22 2.43 C0.3 2.23, 0.39 2.03, 0.49 1.85 C0.6 1.66, 0.73 1.48, 0.86 1.32 C1 1.16, 1.16 1, 1.32 0.86 C1.48 0.73, 1.66 0.6, 1.85 0.49 C2.03 0.39, 2.23 0.3, 2.43 0.22 C2.63 0.15, 2.84 0.09, 3.05 0.06 C3.26 0.02, 3.48 0, 3.69 0 C3.91 0, 4.12 0.02, 4.33 0.06 C4.54 0.09, 4.75 0.15, 4.96 0.22 C5.16 0.3, 5.35 0.39, 5.54 0.49 C5.72 0.6, 5.9 0.73, 6.07 0.86 C6.23 1, 6.38 1.16, 6.52 1.32 C6.66 1.48, 6.78 1.66, 6.89 1.85 C7 2.03, 7.09 2.23, 7.16 2.43 C7.24 2.63, 7.29 2.84, 7.33 3.05 C7.37 3.26, 7.38 3.59, 7.38 3.69 C7.39 3.8, 7.39 3.59, 7.38 3.69" stroke="#000000" stroke-width="2" fill="none"></path></g><g stroke-linecap="round" transform="translate(22.28615628756006 59.1558051476095) rotate(0 3.692307692307679 3.6923076923076223)"><path d="M7.38 3.69 C7.38 3.91, 7.37 4.12, 7.33 4.33 C7.29 4.54, 7.24 4.75, 7.16 4.96 C7.09 5.16, 7 5.35, 6.89 5.54 C6.78 5.72, 6.66 5.9, 6.52 6.07 C6.38 6.23, 6.23 6.38, 6.07 6.52 C5.9 6.66, 5.72 6.78, 5.54 6.89 C5.35 7, 5.16 7.09, 4.96 7.16 C4.75 7.24, 4.54 7.29, 4.33 7.33 C4.12 7.37, 3.91 7.38, 3.69 7.38 C3.48 7.38, 3.26 7.37, 3.05 7.33 C2.84 7.29, 2.63 7.24, 2.43 7.16 C2.23 7.09, 2.03 7, 1.85 6.89 C1.66 6.78, 1.48 6.66, 1.32 6.52 C1.16 6.38, 1 6.23, 0.86 6.07 C0.73 5.9, 0.6 5.72, 0.49 5.54 C0.39 5.35, 0.3 5.16, 0.22 4.96 C0.15 4.75, 0.09 4.54, 0.06 4.33 C0.02 4.12, 0 3.91, 0 3.69 C0 3.48, 0.02 3.26, 0.06 3.05 C0.09 2.84, 0.15 2.63, 0.22 2.43 C0.3 2.23, 0.39 2.03, 0.49 1.85 C0.6 1.66, 0.73 1.48, 0.86 1.32 C1 1.16, 1.16 1, 1.32 0.86 C1.48 0.73, 1.66 0.6, 1.85 0.49 C2.03 0.39, 2.23 0.3, 2.43 0.22 C2.63 0.15, 2.84 0.09, 3.05 0.06 C3.26 0.02, 3.48 0, 3.69 0 C3.91 0, 4.12 0.02, 4.33 0.06 C4.54 0.09, 4.75 0.15, 4.96 0.22 C5.16 0.3, 5.35 0.39, 5.54 0.49 C5.72 0.6, 5.9 0.73, 6.07 0.86 C6.23 1, 6.38 1.16, 6.52 1.32 C6.66 1.48, 6.78 1.66, 6.89 1.85 C7 2.03, 7.09 2.23, 7.16 2.43 C7.24 2.63, 7.29 2.84, 7.33 3.05 C7.37 3.26, 7.38 3.59, 7.38 3.69 C7.39 3.8, 7.39 3.59, 7.38 3.69" stroke="#000000" stroke-width="2" fill="none"></path></g><g stroke-linecap="round" transform="translate(12.44000244140625 28.38657437837537) rotate(0 3.692307692307679 3.6923076923076223)"><path d="M7.38 3.69 C7.38 3.91, 7.37 4.12, 7.33 4.33 C7.29 4.54, 7.24 4.75, 7.16 4.96 C7.09 5.16, 7 5.35, 6.89 5.54 C6.78 5.72, 6.66 5.9, 6.52 6.07 C6.38 6.23, 6.23 6.38, 6.07 6.52 C5.9 6.66, 5.72 6.78, 5.54 6.89 C5.35 7, 5.16 7.09, 4.96 7.16 C4.75 7.24, 4.54 7.29, 4.33 7.33 C4.12 7.37, 3.91 7.38, 3.69 7.38 C3.48 7.38, 3.26 7.37, 3.05 7.33 C2.84 7.29, 2.63 7.24, 2.43 7.16 C2.23 7.09, 2.03 7, 1.85 6.89 C1.66 6.78, 1.48 6.66, 1.32 6.52 C1.16 6.38, 1 6.23, 0.86 6.07 C0.73 5.9, 0.6 5.72, 0.49 5.54 C0.39 5.35, 0.3 5.16, 0.22 4.96 C0.15 4.75, 0.09 4.54, 0.06 4.33 C0.02 4.12, 0 3.91, 0 3.69 C0 3.48, 0.02 3.26, 0.06 3.05 C0.09 2.84, 0.15 2.63, 0.22 2.43 C0.3 2.23, 0.39 2.03, 0.49 1.85 C0.6 1.66, 0.73 1.48, 0.86 1.32 C1 1.16, 1.16 1, 1.32 0.86 C1.48 0.73, 1.66 0.6, 1.85 0.49 C2.03 0.39, 2.23 0.3, 2.43 0.22 C2.63 0.15, 2.84 0.09, 3.05 0.06 C3.26 0.02, 3.48 0, 3.69 0 C3.91 0, 4.12 0.02, 4.33 0.06 C4.54 0.09, 4.75 0.15, 4.96 0.22 C5.16 0.3, 5.35 0.39, 5.54 0.49 C5.72 0.6, 5.9 0.73, 6.07 0.86 C6.23 1, 6.38 1.16, 6.52 1.32 C6.66 1.48, 6.78 1.66, 6.89 1.85 C7 2.03, 7.09 2.23, 7.16 2.43 C7.24 2.63, 7.29 2.84, 7.33 3.05 C7.37 3.26, 7.38 3.59, 7.38 3.69 C7.39 3.8, 7.39 3.59, 7.38 3.69" stroke="#000000" stroke-width="2" fill="none"></path></g><g stroke-linecap="round"><g transform="translate(18.59384859525244 29.61734360914852) rotate(0 9.230769230769226 -6.769230769230944)"><path d="M0 0 C5.12 -3.75, 10.23 -7.51, 18.46 -13.54 M0 0 C6.09 -4.47, 12.18 -8.93, 18.46 -13.54" stroke="#000000" stroke-width="2" fill="none"></path></g></g><mask></mask><g stroke-linecap="round"><g transform="translate(62.28615628756006 29.61734360914852) rotate(180 -9.230769230769226 -6.769230769230944)"><path d="M0 0 C-6.93 -5.08, -13.87 -10.17, -18.46 -13.54 M0 0 C-6.45 -4.73, -12.89 -9.46, -18.46 -13.54" stroke="#000000" stroke-width="2" fill="none"></path></g></g><mask></mask><g stroke-linecap="round"><g transform="translate(16.747694749098628 36.38657437837537) rotate(0 3.692307692307679 11.076923076922867)"><path d="M0 0 C2.15 6.44, 4.3 12.89, 7.38 22.15 M0 0 C2.35 7.04, 4.69 14.07, 7.38 22.15" stroke="#000000" stroke-width="2" fill="none"></path></g></g><mask></mask><g stroke-linecap="round"><g transform="translate(64.13231013371387 36.38657437837537) rotate(180 -3.692307692307679 11.076923076922867)"><path d="M0 0 C-2.67 8.02, -5.35 16.04, -7.38 22.15 M0 0 C-2.78 8.33, -5.56 16.67, -7.38 22.15" stroke="#000000" stroke-width="2" fill="none"></path></g></g><mask></mask><g stroke-linecap="round"><g transform="translate(29.67077167217576 62.232728224531456) rotate(0 11.076923076923094 0)"><path d="M0 0 C8.01 0, 16.02 0, 22.15 0 M0 0 C8.16 0, 16.32 0, 22.15 0" stroke="#000000" stroke-width="2" fill="none"></path></g></g><mask></mask><g stroke-linecap="round"><g transform="translate(40.13231013371387 17.92503591683635) rotate(0 0 3.3846153846152447)"><path d="M0 0 C0 1.48, 0 2.95, 0 6.77 M0 0 C0 2.49, 0 4.98, 0 6.77" stroke="#000000" stroke-width="2" fill="none"></path></g></g><mask></mask><g stroke-linecap="round"><g transform="translate(19.209233210637194 33.92503591683635) rotate(0 2.7692307692307736 1.2307692307690559)"><path d="M0 0 C1.31 0.58, 2.62 1.17, 5.54 2.46 M0 0 C1.7 0.76, 3.4 1.51, 5.54 2.46" stroke="#000000" stroke-width="2" fill="none"></path></g></g><mask></mask><g stroke-linecap="round"><g transform="translate(28.44000244140625 59.1558051476095) rotate(0 1.2307692307692264 -2.153846153846189)"><path d="M0 0 C0.55 -0.96, 1.1 -1.92, 2.46 -4.31 M0 0 C0.75 -1.31, 1.5 -2.63, 2.46 -4.31" stroke="#000000" stroke-width="2" fill="none"></path></g></g><mask></mask><g stroke-linecap="round"><g transform="translate(61.67077167217576 33.92503591683635) rotate(0 -2.7692307692307736 0.923076923077133)"><path d="M0 0 C-1.68 0.56, -3.36 1.12, -5.54 1.85 M0 0 C-1.63 0.54, -3.26 1.09, -5.54 1.85" stroke="#000000" stroke-width="2" fill="none"></path></g></g><mask></mask><g stroke-linecap="round"><g transform="translate(50.59384859525244 56.0788820706839) rotate(0 1.5384615384615472 1.8461538461538112)"><path d="M0 0 C0.76 0.91, 1.52 1.82, 3.08 3.69 M0 0 C1.09 1.3, 2.17 2.61, 3.08 3.69" stroke="#000000" stroke-width="2" fill="none"></path></g></g><mask></mask><g stroke-linecap="round"><g transform="translate(30.28615628756006 43.1558051476095) rotate(0 11.076923076923094 -2.769230769230944)"><path d="M0 0 C0.41 0.82, 0.92 3.59, 2.46 4.92 C4 6.26, 6.97 7.69, 9.23 8 C11.49 8.31, 14.15 7.69, 16 6.77 C17.85 5.85, 19.28 4.21, 20.31 2.46 C21.33 0.72, 22.36 -1.64, 22.15 -3.69 C21.95 -5.74, 20.41 -8.21, 19.08 -9.85 C17.74 -11.49, 16.1 -13.03, 14.15 -13.54 C12.21 -14.05, 9.64 -13.85, 7.38 -12.92 C5.13 -12, 1.74 -8.82, 0.62 -8 M0 0 C0.41 0.82, 0.92 3.59, 2.46 4.92 C4 6.26, 6.97 7.69, 9.23 8 C11.49 8.31, 14.15 7.69, 16 6.77 C17.85 5.85, 19.28 4.21, 20.31 2.46 C21.33 0.72, 22.36 -1.64, 22.15 -3.69 C21.95 -5.74, 20.41 -8.21, 19.08 -9.85 C17.74 -11.49, 16.1 -13.03, 14.15 -13.54 C12.21 -14.05, 9.64 -13.85, 7.38 -12.92 C5.13 -12, 1.74 -8.82, 0.62 -8" stroke="#000000" stroke-width="2" fill="none"></path></g><g transform="translate(30.28615628756006 43.1558051476095) rotate(0 11.076923076923094 -2.769230769230944)"><path d="M2.76 -11.6 C2.14 -10.57, 1.53 -9.54, 0.62 -8 M2.76 -11.6 C2.06 -10.42, 1.35 -9.24, 0.62 -8" stroke="#000000" stroke-width="2" fill="none"></path></g><g transform="translate(30.28615628756006 43.1558051476095) rotate(0 11.076923076923094 -2.769230769230944)"><path d="M4.57 -9.38 C3.44 -8.98, 2.3 -8.59, 0.62 -8 M4.57 -9.38 C3.27 -8.93, 1.98 -8.47, 0.62 -8" stroke="#000000" stroke-width="2" fill="none"></path></g></g><mask></mask></svg>