<svg xmlns="http://www.w3.org/2000/svg" viewBox="2165.06 2799.57 76.46 107.66" width="76" height="108"><text x="2176.29" y="2895.11" font-size="20" fill="#000000" opacity="1.0" font-family="sans-serif">Shield</text><rect x="2171.06" y="2805.57" width="64.46" height="64.40" rx="0" stroke="#000000" stroke-width="2" opacity="1.0" fill="none"/><ellipse cx="2215.51" cy="2851.43" rx="8.32" ry="8.32" stroke="#000000" stroke-width="2" opacity="1.0" fill="none"/><polyline points="2215.19,2847.75 2215.19,2855.33" fill="none" stroke="#000000" stroke-width="2" opacity="1.0" stroke-linecap="round" stroke-linejoin="round"/><polyline points="2211.61,2851.54 2218.35,2851.54" fill="none" stroke="#000000" stroke-width="2" opacity="1.0" stroke-linecap="round" stroke-linejoin="round"/><polyline points="2188.66,2825.64 2200.90,2820.37 2212.66,2825.22 2212.66,2841.01" fill="none" stroke="#000000" stroke-width="2" opacity="1.0" stroke-linecap="round" stroke-linejoin="round"/><polyline points="2200.87,2855.12 2200.87,2820.37" fill="none" stroke="#000000" stroke-width="2" opacity="1.0" stroke-linecap="round" stroke-linejoin="round"/><polyline points="2182.77,2821.26 2200.24,2813.85 2218.98,2821.46 2218.98,2841.01" fill="none" stroke="#000000" stroke-width="2" opacity="1.0" stroke-linecap="round" stroke-linejoin="round"/><polyline points="2208.24,2860.59 2203.61,2861.64 2198.14,2861.43 2193.50,2860.59 2188.03,2857.22 2184.45,2851.33 2182.98,2846.27 2182.77,2837.64 2182.77,2830.27 2182.77,2823.95 2182.98,2821.01" fill="none" stroke="#000000" stroke-width="2" opacity="1.0" stroke-linecap="round" stroke-linejoin="round"/><polyline points="2204.57,2855.28 2199.95,2855.34 2196.58,2854.72 2192.60,2852.27 2190.00,2847.99 2188.92,2844.31 2188.77,2838.03 2188.77,2832.67 2188.77,2828.07 2188.92,2825.93" fill="none" stroke="#000000" stroke-width="2" opacity="1.0" stroke-linecap="round" stroke-linejoin="round"/></svg>