<svg xmlns="http://www.w3.org/2000/svg" viewBox="1859.11 3561.27 77.29 104.00" width="77" height="104"><text x="1868.27" y="3655.27" font-size="20" fill="#000000" opacity="1.0" font-family="sans-serif">X-Ray</text><rect x="1865.11" y="3567.27" width="64.07" height="64.01" rx="0" stroke="#000000" stroke-width="2" opacity="1.0" fill="none"/><polyline points="1876.30,3608.10 1873.11,3606.25 1870.24,3601.10 1870.24,3596.80 1872.82,3591.36 1877.40,3589.07 1878.83,3588.78 1877.97,3588.21 1878.55,3581.63 1882.27,3576.47 1888.85,3573.61 1895.72,3574.18 1901.16,3577.33 1904.31,3581.91 1904.89,3583.35 1906.60,3581.91 1910.33,3581.05 1914.05,3582.77 1916.05,3585.92 1914.91,3589.36 1916.91,3588.78 1922.06,3590.79 1924.35,3597.09 1923.21,3603.10 1919.77,3606.82 1916.28,3608.11" fill="none" stroke="#000000" stroke-width="2" opacity="1.0" stroke-linecap="round" stroke-linejoin="round"/><ellipse cx="1898.10" cy="3609.49" rx="15.59" ry="15.59" stroke="#000000" stroke-width="2" opacity="1.0" fill="none"/><polyline points="1889.22,3616.86 1905.25,3616.86" fill="none" stroke="#000000" stroke-width="2" opacity="1.0" stroke-linecap="round" stroke-linejoin="round"/><polyline points="1890.96,3610.14 1890.96,3616.64" fill="none" stroke="#000000" stroke-width="2" opacity="1.0" stroke-linecap="round" stroke-linejoin="round"/><polyline points="1897.24,3606.03 1897.24,3616.42" fill="none" stroke="#000000" stroke-width="2" opacity="1.0" stroke-linecap="round" stroke-linejoin="round"/><polyline points="1903.52,3602.35 1903.52,3616.64" fill="none" stroke="#000000" stroke-width="2" opacity="1.0" stroke-linecap="round" stroke-linejoin="round"/></svg>