<svg version="1.1" xmlns="http://www.w3.org/2000/svg" viewBox="0 0 86.05101102941171 88.09604779411757" width="86.05101102941171" height="88.09604779411757">
  <!-- svg-source:excalidraw -->
  
  <defs>
    
    
  </defs>
  <g stroke-linecap="round" transform="translate(6 6) rotate(0 37.025505514705856 38.04802389705878)"><path d="M74.05 38.05 C74.05 40.03, 73.9 42.04, 73.6 44 C73.29 45.96, 72.84 47.92, 72.24 49.81 C71.64 51.69, 70.89 53.55, 70.02 55.32 C69.14 57.09, 68.11 58.81, 66.98 60.41 C65.84 62.02, 64.57 63.55, 63.21 64.95 C61.84 66.35, 60.35 67.66, 58.79 68.83 C57.23 70, 55.55 71.05, 53.83 71.95 C52.11 72.85, 50.3 73.62, 48.47 74.23 C46.63 74.85, 44.72 75.32, 42.82 75.63 C40.91 75.94, 38.96 76.1, 37.03 76.1 C35.09 76.1, 33.14 75.94, 31.23 75.63 C29.33 75.32, 27.42 74.85, 25.58 74.23 C23.75 73.62, 21.94 72.85, 20.22 71.95 C18.5 71.05, 16.82 70, 15.26 68.83 C13.7 67.66, 12.21 66.35, 10.84 64.95 C9.48 63.55, 8.21 62.02, 7.07 60.41 C5.94 58.81, 4.91 57.09, 4.04 55.32 C3.16 53.55, 2.41 51.69, 1.81 49.81 C1.22 47.92, 0.76 45.96, 0.46 44 C0.15 42.04, 0 40.03, 0 38.05 C0 36.06, 0.15 34.06, 0.46 32.1 C0.76 30.14, 1.22 28.18, 1.81 26.29 C2.41 24.4, 3.16 22.54, 4.04 20.77 C4.91 19.01, 5.94 17.29, 7.07 15.68 C8.21 14.08, 9.48 12.55, 10.84 11.14 C12.21 9.74, 13.7 8.43, 15.26 7.27 C16.82 6.1, 18.5 5.05, 20.22 4.15 C21.94 3.25, 23.75 2.48, 25.58 1.86 C27.42 1.25, 29.33 0.78, 31.23 0.47 C33.14 0.16, 35.09 0, 37.03 0 C38.96 0, 40.91 0.16, 42.82 0.47 C44.72 0.78, 46.63 1.25, 48.47 1.86 C50.3 2.48, 52.11 3.25, 53.83 4.15 C55.55 5.05, 57.23 6.1, 58.79 7.27 C60.35 8.43, 61.84 9.74, 63.21 11.14 C64.57 12.55, 65.84 14.08, 66.98 15.68 C68.11 17.29, 69.14 19.01, 70.02 20.77 C70.89 22.54, 71.64 24.4, 72.24 26.29 C72.84 28.18, 73.29 30.14, 73.6 32.1 C73.9 34.06, 73.98 37.06, 74.05 38.05 C74.13 39.04, 74.13 37.06, 74.05 38.05" stroke="none" stroke-width="0" fill="#fd7e14"></path><path d="M74.05 38.05 C74.05 40.03, 73.9 42.04, 73.6 44 C73.29 45.96, 72.84 47.92, 72.24 49.81 C71.64 51.69, 70.89 53.55, 70.02 55.32 C69.14 57.09, 68.11 58.81, 66.98 60.41 C65.84 62.02, 64.57 63.55, 63.21 64.95 C61.84 66.35, 60.35 67.66, 58.79 68.83 C57.23 70, 55.55 71.05, 53.83 71.95 C52.11 72.85, 50.3 73.62, 48.47 74.23 C46.63 74.85, 44.72 75.32, 42.82 75.63 C40.91 75.94, 38.96 76.1, 37.03 76.1 C35.09 76.1, 33.14 75.94, 31.23 75.63 C29.33 75.32, 27.42 74.85, 25.58 74.23 C23.75 73.62, 21.94 72.85, 20.22 71.95 C18.5 71.05, 16.82 70, 15.26 68.83 C13.7 67.66, 12.21 66.35, 10.84 64.95 C9.48 63.55, 8.21 62.02, 7.07 60.41 C5.94 58.81, 4.91 57.09, 4.04 55.32 C3.16 53.55, 2.41 51.69, 1.81 49.81 C1.22 47.92, 0.76 45.96, 0.46 44 C0.15 42.04, 0 40.03, 0 38.05 C0 36.06, 0.15 34.06, 0.46 32.1 C0.76 30.14, 1.22 28.18, 1.81 26.29 C2.41 24.4, 3.16 22.54, 4.04 20.77 C4.91 19.01, 5.94 17.29, 7.07 15.68 C8.21 14.08, 9.48 12.55, 10.84 11.14 C12.21 9.74, 13.7 8.43, 15.26 7.27 C16.82 6.1, 18.5 5.05, 20.22 4.15 C21.94 3.25, 23.75 2.48, 25.58 1.86 C27.42 1.25, 29.33 0.78, 31.23 0.47 C33.14 0.16, 35.09 0, 37.03 0 C38.96 0, 40.91 0.16, 42.82 0.47 C44.72 0.78, 46.63 1.25, 48.47 1.86 C50.3 2.48, 52.11 3.25, 53.83 4.15 C55.55 5.05, 57.23 6.1, 58.79 7.27 C60.35 8.43, 61.84 9.74, 63.21 11.14 C64.57 12.55, 65.84 14.08, 66.98 15.68 C68.11 17.29, 69.14 19.01, 70.02 20.77 C70.89 22.54, 71.64 24.4, 72.24 26.29 C72.84 28.18, 73.29 30.14, 73.6 32.1 C73.9 34.06, 73.98 37.06, 74.05 38.05 C74.13 39.04, 74.13 37.06, 74.05 38.05" stroke="#fd7e14" stroke-width="2" fill="none"></path></g><g stroke-linecap="round" transform="translate(20.520909926470495 19.259420955882547) rotate(0 16.73850714976038 17.97801716513436)"><path d="M8.37 0 C14.48 0, 20.59 0, 25.11 0 C30.69 0, 33.48 2.79, 33.48 8.37 C33.48 15.88, 33.48 23.38, 33.48 27.59 C33.48 33.17, 30.69 35.96, 25.11 35.96 C19.8 35.96, 14.5 35.96, 8.37 35.96 C2.79 35.96, 0 33.17, 0 27.59 C0 21.42, 0 15.25, 0 8.37 C0 2.79, 2.79 0, 8.37 0" stroke="none" stroke-width="0" fill="#fd7e14"></path><path d="M8.37 0 C15.03 0, 21.7 0, 25.11 0 M8.37 0 C11.92 0, 15.47 0, 25.11 0 M25.11 0 C30.69 0, 33.48 2.79, 33.48 8.37 M25.11 0 C30.69 0, 33.48 2.79, 33.48 8.37 M33.48 8.37 C33.48 13.12, 33.48 17.88, 33.48 27.59 M33.48 8.37 C33.48 13.58, 33.48 18.79, 33.48 27.59 M33.48 27.59 C33.48 33.17, 30.69 35.96, 25.11 35.96 M33.48 27.59 C33.48 33.17, 30.69 35.96, 25.11 35.96 M25.11 35.96 C19.55 35.96, 13.99 35.96, 8.37 35.96 M25.11 35.96 C20.2 35.96, 15.29 35.96, 8.37 35.96 M8.37 35.96 C2.79 35.96, 0 33.17, 0 27.59 M8.37 35.96 C2.79 35.96, 0 33.17, 0 27.59 M0 27.59 C0 23.28, 0 18.97, 0 8.37 M0 27.59 C0 21.81, 0 16.03, 0 8.37 M0 8.37 C0 2.79, 2.79 0, 8.37 0 M0 8.37 C0 2.79, 2.79 0, 8.37 0" stroke="#fff" stroke-width="2" fill="none"></path></g><g stroke-linecap="round" transform="translate(25.819046950860866 25.117898458299123) rotate(0 16.73850714976038 17.97801716513436)"><path d="M8.37 0 C12.71 0, 17.05 0, 25.11 0 C30.69 0, 33.48 2.79, 33.48 8.37 C33.48 15.2, 33.48 22.04, 33.48 27.59 C33.48 33.17, 30.69 35.96, 25.11 35.96 C18.59 35.96, 12.06 35.96, 8.37 35.96 C2.79 35.96, 0 33.17, 0 27.59 C0 20.98, 0 14.37, 0 8.37 C0 2.79, 2.79 0, 8.37 0" stroke="none" stroke-width="0" fill="#fd7e14"></path><path d="M8.37 0 C13.38 0, 18.39 0, 25.11 0 M8.37 0 C13.94 0, 19.52 0, 25.11 0 M25.11 0 C30.69 0, 33.48 2.79, 33.48 8.37 M25.11 0 C30.69 0, 33.48 2.79, 33.48 8.37 M33.48 8.37 C33.48 14.66, 33.48 20.95, 33.48 27.59 M33.48 8.37 C33.48 14.77, 33.48 21.18, 33.48 27.59 M33.48 27.59 C33.48 33.17, 30.69 35.96, 25.11 35.96 M33.48 27.59 C33.48 33.17, 30.69 35.96, 25.11 35.96 M25.11 35.96 C20.68 35.96, 16.26 35.96, 8.37 35.96 M25.11 35.96 C18.83 35.96, 12.55 35.96, 8.37 35.96 M8.37 35.96 C2.79 35.96, 0 33.17, 0 27.59 M8.37 35.96 C2.79 35.96, 0 33.17, 0 27.59 M0 27.59 C0 20.55, 0 13.51, 0 8.37 M0 27.59 C0 22.87, 0 18.14, 0 8.37 M0 8.37 C0 2.79, 2.79 0, 8.37 0 M0 8.37 C0 2.79, 2.79 0, 8.37 0" stroke="#fff" stroke-width="2" fill="none"></path></g><g stroke-linecap="round" transform="translate(31.447037053726262 31.71905758149569) rotate(0 16.73850714976038 17.97801716513436)"><path d="M8.37 0 C14.52 0, 20.68 0, 25.11 0 C30.69 0, 33.48 2.79, 33.48 8.37 C33.48 13.36, 33.48 18.36, 33.48 27.59 C33.48 33.17, 30.69 35.96, 25.11 35.96 C18.56 35.96, 12.01 35.96, 8.37 35.96 C2.79 35.96, 0 33.17, 0 27.59 C0 23.19, 0 18.79, 0 8.37 C0 2.79, 2.79 0, 8.37 0" stroke="none" stroke-width="0" fill="#fd7e14"></path><path d="M8.37 0 C13.76 0, 19.15 0, 25.11 0 M8.37 0 C14.1 0, 19.83 0, 25.11 0 M25.11 0 C30.69 0, 33.48 2.79, 33.48 8.37 M25.11 0 C30.69 0, 33.48 2.79, 33.48 8.37 M33.48 8.37 C33.48 13.59, 33.48 18.81, 33.48 27.59 M33.48 8.37 C33.48 15.15, 33.48 21.94, 33.48 27.59 M33.48 27.59 C33.48 33.17, 30.69 35.96, 25.11 35.96 M33.48 27.59 C33.48 33.17, 30.69 35.96, 25.11 35.96 M25.11 35.96 C21.41 35.96, 17.71 35.96, 8.37 35.96 M25.11 35.96 C19.17 35.96, 13.23 35.96, 8.37 35.96 M8.37 35.96 C2.79 35.96, 0 33.17, 0 27.59 M8.37 35.96 C2.79 35.96, 0 33.17, 0 27.59 M0 27.59 C0 23.22, 0 18.86, 0 8.37 M0 27.59 C0 21.67, 0 15.74, 0 8.37 M0 8.37 C0 2.79, 2.79 0, 8.37 0 M0 8.37 C0 2.79, 2.79 0, 8.37 0" stroke="#fff" stroke-width="2" fill="none"></path></g></svg>