<svg version="1.1" xmlns="http://www.w3.org/2000/svg" viewBox="0 0 141.33999633789062 105.61418700993636" width="141.33999633789062" height="105.61418700993636">
  <!-- svg-source:excalidraw -->
  
  <defs>
    
    
  </defs>
  <g transform="translate(6 75.61418700993636) rotate(0 64.66999816894531 12)"><text x="64.66999816894531" y="0" font-family="Virgil, Segoe UI Emoji" font-size="20px" fill="#000000" text-anchor="middle" style="white-space: pre;" direction="ltr" dominant-baseline="text-before-edge">DevOps Guru</text></g><g stroke-linecap="round" transform="translate(38.12957763671875 6) rotate(0 32.540420532226506 32.54042053222656)"><path d="M0 0 C0 0, 0 0, 0 0 M0 0 C0 0, 0 0, 0 0 M0.13 12.04 C3.77 7.85, 7.42 3.66, 10.63 -0.03 M0.13 12.04 C3.75 7.88, 7.37 3.71, 10.63 -0.03 M0.27 24.08 C7.94 15.25, 15.62 6.42, 21.26 -0.07 M0.27 24.08 C7.14 16.17, 14.02 8.26, 21.26 -0.07 M-0.26 36.88 C11.94 22.85, 24.13 8.82, 31.89 -0.1 M-0.26 36.88 C9.28 25.91, 18.81 14.94, 31.89 -0.1 M-0.12 48.92 C14.19 32.45, 28.51 15.98, 42.52 -0.14 M-0.12 48.92 C15.64 30.78, 31.4 12.65, 42.52 -0.14 M0.01 60.96 C21.17 36.61, 42.34 12.26, 53.15 -0.17 M0.01 60.96 C11.63 47.59, 23.24 34.23, 53.15 -0.17 M6.7 65.45 C22.72 47.02, 38.74 28.59, 63.78 -0.21 M6.7 65.45 C28.7 40.14, 50.71 14.83, 63.78 -0.21 M17.33 65.42 C30.99 49.7, 44.66 33.99, 65.88 9.57 M17.33 65.42 C31.79 48.79, 46.25 32.16, 65.88 9.57 M27.96 65.38 C36.25 55.85, 44.54 46.31, 66.02 21.61 M27.96 65.38 C42.59 48.56, 57.22 31.73, 66.02 21.61 M38.59 65.35 C45.61 57.27, 52.63 49.2, 65.49 34.41 M38.59 65.35 C46.43 56.34, 54.26 47.33, 65.49 34.41 M49.22 65.31 C53.64 60.23, 58.06 55.15, 65.63 46.45 M49.22 65.31 C55.72 57.84, 62.23 50.36, 65.63 46.45 M59.85 65.28 C61.18 63.76, 62.5 62.24, 65.76 58.49 M59.85 65.28 C61.19 63.74, 62.53 62.21, 65.76 58.49 M0.23 65.28 C0.23 65.28, 0.23 65.28, 0.23 65.28 M0.23 65.28 C0.23 65.28, 0.23 65.28, 0.23 65.28 M12.27 65.15 C9.71 62.92, 7.15 60.69, 0.19 54.65 M12.27 65.15 C8.63 61.99, 5 58.83, 0.19 54.65 M24.31 65.01 C16.4 58.14, 8.49 51.26, 0.16 44.02 M24.31 65.01 C17.55 59.14, 10.79 53.26, 0.16 44.02 M36.35 64.88 C24.7 54.75, 13.05 44.62, 0.13 33.39 M36.35 64.88 C22.47 52.81, 8.58 40.74, 0.13 33.39 M49.15 65.4 C39.25 56.8, 29.34 48.19, 0.09 22.76 M49.15 65.4 C38.71 56.33, 28.28 47.26, 0.09 22.76 M61.19 65.27 C48.73 54.44, 36.27 43.61, 0.06 12.13 M61.19 65.27 C42.14 48.71, 23.1 32.16, 0.06 12.13 M64.93 57.92 C43.77 39.53, 22.61 21.13, 0.02 1.5 M64.93 57.92 C46.7 42.08, 28.47 26.23, 0.02 1.5 M65.65 47.95 C45.31 30.27, 24.97 12.59, 9.8 -0.6 M65.65 47.95 C43.61 28.79, 21.58 9.64, 9.8 -0.6 M65.61 37.32 C54.86 27.97, 44.12 18.63, 21.84 -0.74 M65.61 37.32 C51.8 25.31, 37.98 13.3, 21.84 -0.74 M65.58 26.69 C57.23 19.43, 48.89 12.18, 33.88 -0.87 M65.58 26.69 C55.71 18.11, 45.84 9.53, 33.88 -0.87 M65.54 16.06 C61.57 12.6, 57.59 9.14, 46.68 -0.35 M65.54 16.06 C58.58 10.01, 51.63 3.96, 46.68 -0.35 M65.51 5.43 C64.04 4.15, 62.57 2.87, 58.72 -0.48 M65.51 5.43 C64.07 4.18, 62.64 2.93, 58.72 -0.48" stroke="#7eddd2" stroke-width="1" fill="none"></path><path d="M0 0 C25.99 0, 51.98 0, 65.08 0 M0 0 C22.95 0, 45.91 0, 65.08 0 M65.08 0 C65.08 19.83, 65.08 39.67, 65.08 65.08 M65.08 0 C65.08 16.68, 65.08 33.36, 65.08 65.08 M65.08 65.08 C51.86 65.08, 38.64 65.08, 0 65.08 M65.08 65.08 C50.26 65.08, 35.44 65.08, 0 65.08 M0 65.08 C0 46.98, 0 28.88, 0 0 M0 65.08 C0 49.02, 0 32.95, 0 0" stroke="#000000" stroke-width="2" fill="none"></path></g><g stroke-linecap="round"><g transform="translate(64.03155042940125 64.2353907093484) rotate(0 6.5067919331811765 -25.57641735424386)"><path d="M0 0 C1.74 0.04, 8.75 1.15, 10.46 0.27 C12.16 -0.61, 9.24 -3.77, 10.23 -5.27 C11.22 -6.77, 14.54 -8.77, 16.4 -8.74 C18.25 -8.7, 19.34 -4.24, 21.34 -5.06 C23.35 -5.87, 28.06 -11.62, 28.44 -13.62 C28.82 -15.63, 24.21 -15.59, 23.64 -17.1 C23.07 -18.61, 23.8 -21.75, 25 -22.68 C26.2 -23.61, 29.86 -21, 30.83 -22.66 C31.81 -24.32, 31.77 -30.99, 30.85 -32.66 C29.92 -34.32, 26.59 -31.99, 25.28 -32.65 C23.96 -33.3, 22.71 -35.1, 22.94 -36.61 C23.17 -38.12, 27.21 -39.8, 26.66 -41.72 C26.1 -43.63, 21.45 -47.76, 19.62 -48.11 C17.79 -48.46, 17.08 -44.2, 15.69 -43.81 C14.29 -43.42, 11.94 -44.52, 11.25 -45.76 C10.56 -47, 13.09 -50.29, 11.56 -51.23 C10.02 -52.17, 3.66 -52.26, 2.04 -51.42 C0.43 -50.59, 2.55 -47.43, 1.87 -46.2 C1.2 -44.98, -0.58 -43.72, -2.01 -44.09 C-3.44 -44.46, -4.72 -48.9, -6.71 -48.42 C-8.69 -47.94, -13.38 -42.96, -13.91 -41.2 C-14.45 -39.44, -10.2 -39.21, -9.92 -37.87 C-9.64 -36.53, -10.99 -33.98, -12.24 -33.15 C-13.49 -32.31, -16.49 -34.54, -17.42 -32.85 C-18.35 -31.16, -18.57 -24.65, -17.83 -23.03 C-17.09 -21.41, -14.09 -24.05, -12.98 -23.13 C-11.86 -22.21, -10.66 -18.92, -11.12 -17.52 C-11.58 -16.11, -16.02 -16.64, -15.73 -14.69 C-15.45 -12.75, -11.26 -6.83, -9.41 -5.84 C-7.55 -4.84, -6.17 -8.72, -4.59 -8.73 C-3 -8.74, -0.65 -7.36, 0.12 -5.91 C0.88 -4.45, 0.02 -0.98, 0 0 M0 0 C1.74 0.04, 8.75 1.15, 10.46 0.27 C12.16 -0.61, 9.24 -3.77, 10.23 -5.27 C11.22 -6.77, 14.54 -8.77, 16.4 -8.74 C18.25 -8.7, 19.34 -4.24, 21.34 -5.06 C23.35 -5.87, 28.06 -11.62, 28.44 -13.62 C28.82 -15.63, 24.21 -15.59, 23.64 -17.1 C23.07 -18.61, 23.8 -21.75, 25 -22.68 C26.2 -23.61, 29.86 -21, 30.83 -22.66 C31.81 -24.32, 31.77 -30.99, 30.85 -32.66 C29.92 -34.32, 26.59 -31.99, 25.28 -32.65 C23.96 -33.3, 22.71 -35.1, 22.94 -36.61 C23.17 -38.12, 27.21 -39.8, 26.66 -41.72 C26.1 -43.63, 21.45 -47.76, 19.62 -48.11 C17.79 -48.46, 17.08 -44.2, 15.69 -43.81 C14.29 -43.42, 11.94 -44.52, 11.25 -45.76 C10.56 -47, 13.09 -50.29, 11.56 -51.23 C10.02 -52.17, 3.66 -52.26, 2.04 -51.42 C0.43 -50.59, 2.55 -47.43, 1.87 -46.2 C1.2 -44.98, -0.58 -43.72, -2.01 -44.09 C-3.44 -44.46, -4.72 -48.9, -6.71 -48.42 C-8.69 -47.94, -13.38 -42.96, -13.91 -41.2 C-14.45 -39.44, -10.2 -39.21, -9.92 -37.87 C-9.64 -36.53, -10.99 -33.98, -12.24 -33.15 C-13.49 -32.31, -16.49 -34.54, -17.42 -32.85 C-18.35 -31.16, -18.57 -24.65, -17.83 -23.03 C-17.09 -21.41, -14.09 -24.05, -12.98 -23.13 C-11.86 -22.21, -10.66 -18.92, -11.12 -17.52 C-11.58 -16.11, -16.02 -16.64, -15.73 -14.69 C-15.45 -12.75, -11.26 -6.83, -9.41 -5.84 C-7.55 -4.84, -6.17 -8.72, -4.59 -8.73 C-3 -8.74, -0.65 -7.36, 0.12 -5.91 C0.88 -4.45, 0.02 -0.98, 0 0" stroke="#000000" stroke-width="2" fill="none"></path></g></g><mask></mask><g stroke-linecap="round"><g transform="translate(57.50538418685119 30.949809466778788) rotate(0 12.952347751891665 1.5860017655377305)"><path d="M0 0 C0.7 -0.79, 2.64 -3.57, 4.23 -4.76 C5.82 -5.95, 7.45 -6.78, 9.52 -7.14 C11.59 -7.49, 14.8 -7.27, 16.65 -6.87 C18.5 -6.48, 19.47 -5.55, 20.62 -4.76 C21.76 -3.97, 22.69 -3.26, 23.53 -2.11 C24.36 -0.97, 25.24 0.04, 25.64 2.11 C26.04 4.19, 25.86 8.94, 25.9 10.31 M0 0 C0.7 -0.79, 2.64 -3.57, 4.23 -4.76 C5.82 -5.95, 7.45 -6.78, 9.52 -7.14 C11.59 -7.49, 14.8 -7.27, 16.65 -6.87 C18.5 -6.48, 19.47 -5.55, 20.62 -4.76 C21.76 -3.97, 22.69 -3.26, 23.53 -2.11 C24.36 -0.97, 25.24 0.04, 25.64 2.11 C26.04 4.19, 25.86 8.94, 25.9 10.31" stroke="#000000" stroke-width="2" fill="none"></path></g><g transform="translate(57.50538418685119 30.949809466778788) rotate(0 12.952347751891665 1.5860017655377305)"><path d="M24.5 6.46 C25.03 7.92, 25.56 9.37, 25.9 10.31 M24.5 6.46 C24.97 7.76, 25.45 9.06, 25.9 10.31" stroke="#000000" stroke-width="2" fill="none"></path></g><g transform="translate(57.50538418685119 30.949809466778788) rotate(0 12.952347751891665 1.5860017655377305)"><path d="M27.3 6.46 C26.77 7.92, 26.24 9.37, 25.9 10.31 M27.3 6.46 C26.83 7.76, 26.36 9.06, 25.9 10.31" stroke="#000000" stroke-width="2" fill="none"></path></g></g><mask></mask><g stroke-linecap="round"><g transform="translate(56.711224769608634 41.61145027288694) rotate(178.12212255271476 12.952347751891665 1.5860017655377305)"><path d="M0 0 C0.7 -0.79, 2.64 -3.57, 4.23 -4.76 C5.82 -5.95, 7.45 -6.78, 9.52 -7.14 C11.59 -7.49, 14.8 -7.27, 16.65 -6.87 C18.5 -6.48, 19.47 -5.55, 20.62 -4.76 C21.76 -3.97, 22.69 -3.26, 23.53 -2.11 C24.36 -0.97, 25.24 0.04, 25.64 2.11 C26.04 4.19, 25.86 8.94, 25.9 10.31 M0 0 C0.7 -0.79, 2.64 -3.57, 4.23 -4.76 C5.82 -5.95, 7.45 -6.78, 9.52 -7.14 C11.59 -7.49, 14.8 -7.27, 16.65 -6.87 C18.5 -6.48, 19.47 -5.55, 20.62 -4.76 C21.76 -3.97, 22.69 -3.26, 23.53 -2.11 C24.36 -0.97, 25.24 0.04, 25.64 2.11 C26.04 4.19, 25.86 8.94, 25.9 10.31" stroke="#000000" stroke-width="2" fill="none"></path></g><g transform="translate(56.711224769608634 41.61145027288694) rotate(178.12212255271476 12.952347751891665 1.5860017655377305)"><path d="M24.5 6.46 C24.81 7.31, 25.12 8.17, 25.9 10.31 M24.5 6.46 C24.84 7.39, 25.18 8.33, 25.9 10.31" stroke="#000000" stroke-width="2" fill="none"></path></g><g transform="translate(56.711224769608634 41.61145027288694) rotate(178.12212255271476 12.952347751891665 1.5860017655377305)"><path d="M27.3 6.46 C26.99 7.31, 26.68 8.16, 25.9 10.31 M27.3 6.46 C26.96 7.39, 26.62 8.33, 25.9 10.31" stroke="#000000" stroke-width="2" fill="none"></path></g></g><mask></mask><g stroke-linecap="round"><g transform="translate(63.32072399382287 38.3511510392882) rotate(0 6.2118402483561965 -0.26433362758962176)"><path d="M0 0 C0.98 0.98, 1.96 1.96, 3.97 3.97 M0 0 C1.43 1.43, 2.86 2.86, 3.97 3.97 M3.97 3.97 C6.34 1.59, 8.72 -0.79, 12.42 -4.49 M3.97 3.97 C6.52 1.41, 9.08 -1.15, 12.42 -4.49" stroke="#000000" stroke-width="2" fill="none"></path></g></g><mask></mask></svg>