<svg version="1.1" xmlns="http://www.w3.org/2000/svg" viewBox="0 0 66.0313090903723 93.8437353725817" width="66.0313090903723" height="93.8437353725817">
  <!-- svg-source:excalidraw -->
  
  <defs>
    
    
  </defs>
  <g transform="translate(12.675654392598233 63.843735372581705) rotate(0 20.34000015258789 12)"><text x="0" y="0" font-family="Virgil, Segoe UI Emoji" font-size="20px" fill="#000000" text-anchor="start" style="white-space: pre;" direction="ltr" dominant-baseline="text-before-edge">DAX</text></g><g stroke-linecap="round"><g transform="translate(47.73452840083928 24.26473603937302) rotate(0 3.07419517238327 16.02307786817937)"><path d="M0 0 C3.96 0, 7.91 0, 10.06 0 M0 0 C2.95 0, 5.9 0, 10.06 0 M10.06 0 C8.6 3.4, 7.13 6.8, 5.4 10.81 M10.06 0 C8.38 3.91, 6.69 7.82, 5.4 10.81 M5.4 10.81 C7.08 10.81, 8.76 10.81, 12.3 10.81 M5.4 10.81 C7.29 10.81, 9.18 10.81, 12.3 10.81 M12.3 10.81 C8.3 16.23, 4.3 21.65, -3.35 32.05 M12.3 10.81 C6.28 18.97, 0.26 27.14, -3.35 32.05 M-3.35 32.05 C-2.37 28.36, -1.38 24.67, 1.48 14.02 M-3.35 32.05 C-1.58 25.44, 0.19 18.83, 1.48 14.02 M1.48 14.02 C-1.42 14.02, -4.31 14.02, -6.15 14.02 M1.48 14.02 C-0.48 14.02, -2.43 14.02, -6.15 14.02 M-6.15 14.02 C-3.94 8.98, -1.72 3.93, 0 0 M-6.15 14.02 C-4.34 9.9, -2.53 5.77, 0 0" stroke="#be4bdb" stroke-width="2" fill="none"></path></g></g><mask></mask><g stroke-linecap="round"><g transform="translate(32.64302482732148 30.59944124307185) rotate(0 0 3.819454608112437)"><path d="M0 0 C0 2.85, 0 5.7, 0 7.64 M0 0 C0 1.91, 0 3.82, 0 7.64" stroke="#be4bdb" stroke-width="2" fill="none"></path></g></g><mask></mask><g stroke-linecap="round"><g transform="translate(28.357783071878202 34.418895851184516) rotate(0 4.285241755443309 0)"><path d="M0 0 C3.11 0, 6.22 0, 8.57 0 M0 0 C2.81 0, 5.62 0, 8.57 0" stroke="#be4bdb" stroke-width="2" fill="none"></path></g></g><mask></mask><g stroke-linecap="round"><g transform="translate(6 34.512053280650434) rotate(0 9.315742946615927 0)"><path d="M0 0 C5.84 0, 11.67 0, 18.63 0 M0 0 C6.45 0, 12.91 0, 18.63 0" stroke="#be4bdb" stroke-width="2" fill="none"></path></g></g><mask></mask><g stroke-linecap="round"><g transform="translate(11.775760626901842 43.268851650469514) rotate(0 14.346244137788489 0)"><path d="M0 0 C9.9 0, 19.8 0, 28.69 0 M0 0 C7.23 0, 14.45 0, 28.69 0" stroke="#be4bdb" stroke-width="2" fill="none"></path></g></g><mask></mask><g stroke-linecap="round"><g transform="translate(16.99257667700681 46.995148829115806) rotate(0 10.65541164195102 2.81695094783322)"><path d="M0 0 C0.89 0.73, 3.05 3.44, 5.34 4.37 C7.63 5.31, 11.08 5.42, 13.74 5.63 C16.4 5.84, 20.05 5.63, 21.31 5.63 M0 0 C0.89 0.73, 3.05 3.44, 5.34 4.37 C7.63 5.31, 11.08 5.42, 13.74 5.63 C16.4 5.84, 20.05 5.63, 21.31 5.63" stroke="#be4bdb" stroke-width="2" fill="none"></path></g></g><mask></mask><g stroke-linecap="round"><g transform="translate(20.779329697228945 17.37515162578984) rotate(0 13.299256053327781 -4.255761937065017)"><path d="M0 0 C-0.76 -0.66, -4.92 -2.33, -4.54 -3.97 C-4.16 -5.62, -0.61 -8.63, 2.27 -9.86 C5.15 -11.09, 9.46 -11.24, 12.77 -11.35 C16.08 -11.46, 19.38 -11.25, 22.13 -10.5 C24.88 -9.74, 27.83 -8.03, 29.29 -6.81 C30.76 -5.59, 30.62 -4.8, 30.93 -3.19 C31.23 -1.58, 31.1 1.83, 31.14 2.84 M0 0 C-0.76 -0.66, -4.92 -2.33, -4.54 -3.97 C-4.16 -5.62, -0.61 -8.63, 2.27 -9.86 C5.15 -11.09, 9.46 -11.24, 12.77 -11.35 C16.08 -11.46, 19.38 -11.25, 22.13 -10.5 C24.88 -9.74, 27.83 -8.03, 29.29 -6.81 C30.76 -5.59, 30.62 -4.8, 30.93 -3.19 C31.23 -1.58, 31.1 1.83, 31.14 2.84" stroke="#be4bdb" stroke-width="2" fill="none"></path></g></g><mask></mask><g stroke-linecap="round"><g transform="translate(16.381709028928526 29.929649340131164) rotate(0 0 -8.08594768042326)"><path d="M0 0 C0 -2.7, 0 -13.48, 0 -16.17 M0 0 C0 -2.7, 0 -13.48, 0 -16.17" stroke="#be4bdb" stroke-width="2" fill="none"></path></g></g><mask></mask><g stroke-linecap="round"><g transform="translate(21.275835256553137 17.587939722643114) rotate(0 15.178884242198109 -0.6738289733686997)"><path d="M0 0 C0.6 0.2, 1.64 0.86, 3.62 1.21 C5.59 1.55, 8.89 2.01, 11.85 2.06 C14.8 2.1, 18.78 1.9, 21.35 1.49 C23.92 1.08, 25.74 0.39, 27.24 -0.43 C28.74 -1.24, 29.84 -2.91, 30.36 -3.4 M0 0 C0.6 0.2, 1.64 0.86, 3.62 1.21 C5.59 1.55, 8.89 2.01, 11.85 2.06 C14.8 2.1, 18.78 1.9, 21.35 1.49 C23.92 1.08, 25.74 0.39, 27.24 -0.43 C28.74 -1.24, 29.84 -2.91, 30.36 -3.4" stroke="#be4bdb" stroke-width="2" fill="none"></path></g></g><mask></mask></svg>