<svg xmlns="http://www.w3.org/2000/svg" viewBox="337.29 2057.20 119.56 105.21" width="120" height="105"><text x="343.29" y="2152.41" font-size="20" fill="#000000" opacity="1.0" font-family="sans-serif">Comprehend</text><rect x="364.75" y="2063.20" width="64.64" height="64.64" rx="0" stroke="#000000" stroke-width="2" opacity="1.0" fill="none"/><polyline points="402.87,2092.57 402.87,2081.93 392.88,2072.43 373.56,2072.43 373.56,2113.86 402.70,2113.86 402.70,2110.09" fill="none" stroke="#000000" stroke-width="2" opacity="1.0" stroke-linecap="round" stroke-linejoin="round"/><polyline points="392.72,2072.60 392.72,2082.09 402.87,2082.09" fill="none" stroke="#000000" stroke-width="2" opacity="1.0" stroke-linecap="round" stroke-linejoin="round"/><polyline points="377.98,2106.15 390.42,2106.15" fill="none" stroke="#000000" stroke-width="2" opacity="1.0" stroke-linecap="round" stroke-linejoin="round"/><polyline points="386.33,2088.23 398.77,2088.23" fill="none" stroke="#000000" stroke-width="2" opacity="1.0" stroke-linecap="round" stroke-linejoin="round"/><polyline points="377.98,2094.37 398.45,2094.37" fill="none" stroke="#000000" stroke-width="2" opacity="1.0" stroke-linecap="round" stroke-linejoin="round"/><polyline points="378.15,2100.20 389.44,2100.20" fill="none" stroke="#000000" stroke-width="2" opacity="1.0" stroke-linecap="round" stroke-linejoin="round"/><polyline points="377.98,2082.26 387.48,2082.26" fill="none" stroke="#000000" stroke-width="2" opacity="1.0" stroke-linecap="round" stroke-linejoin="round"/><polyline points="378.15,2088.23 383.06,2088.23" fill="none" stroke="#000000" stroke-width="2" opacity="1.0" stroke-linecap="round" stroke-linejoin="round"/><polyline points="392.38,2100.20 399.25,2100.20" fill="none" stroke="#000000" stroke-width="2" opacity="1.0" stroke-linecap="round" stroke-linejoin="round"/><polyline points="408.76,2109.11 408.76,2112.87 415.80,2112.87 415.80,2109.00" fill="none" stroke="#000000" stroke-width="2" opacity="1.0" stroke-linecap="round" stroke-linejoin="round"/><polyline points="409.25,2104.03 415.31,2104.03" fill="none" stroke="#000000" stroke-width="2" opacity="1.0" stroke-linecap="round" stroke-linejoin="round"/><polyline points="412.28,2112.71 412.28,2104.20" fill="none" stroke="#000000" stroke-width="2" opacity="1.0" stroke-linecap="round" stroke-linejoin="round"/><polyline points="415.64,2109.11 418.09,2107.31 419.57,2105.18 420.39,2102.56 420.55,2099.61 420.06,2096.99 418.58,2094.86 416.62,2093.23 414.00,2092.08 410.89,2092.08 407.94,2093.23 405.81,2095.03 404.34,2097.65 403.85,2100.76 404.01,2103.38 405.00,2105.34 406.63,2107.31 408.76,2109.27" fill="none" stroke="#000000" stroke-width="2" opacity="1.0" stroke-linecap="round" stroke-linejoin="round"/><polyline points="408.92,2115.17 415.64,2115.17 414.00,2118.60 410.40,2118.60 408.92,2115.17" fill="none" stroke="#000000" stroke-width="2" opacity="1.0" stroke-linecap="round" stroke-linejoin="round"/></svg>