<svg version="1.1" xmlns="http://www.w3.org/2000/svg" viewBox="0 0 86.91999816894531 105.83708726462282" width="86.91999816894531" height="105.83708726462282">
  <!-- svg-source:excalidraw -->
  
  <defs>
    
    
  </defs>
  <g stroke-linecap="round"><g transform="translate(35.047530324561194 62.09866157394754) rotate(0 8.566241708795019 -23.666057602264118)"><path d="M0 0 C0 -1.84, 0.05 -8.95, 0 -11.03 C-0.05 -13.12, 0 -12.29, -0.29 -12.49 C-0.58 -12.68, 0 -12.29, -1.74 -12.2 C-3.48 -12.1, -8.37 -11.57, -10.74 -11.91 C-13.12 -12.24, -14.62 -12.97, -15.97 -14.23 C-17.33 -15.49, -18.39 -17.86, -18.87 -19.46 C-19.36 -21.05, -19.31 -22.17, -18.87 -23.81 C-18.44 -25.46, -17.47 -28.02, -16.26 -29.33 C-15.05 -30.64, -12.63 -31.22, -11.62 -31.65 C-10.6 -32.09, -10.26 -31.8, -10.16 -31.94 C-10.07 -32.09, -10.99 -31.31, -11.03 -32.52 C-11.08 -33.73, -11.18 -37.22, -10.45 -39.2 C-9.73 -41.19, -8.42 -43.07, -6.68 -44.43 C-4.94 -45.78, -2.27 -46.94, 0 -47.33 C2.27 -47.72, 4.89 -47.38, 6.97 -46.75 C9.05 -46.12, 11.03 -44.86, 12.49 -43.56 C13.94 -42.25, 15.05 -39.93, 15.68 -38.91 C16.31 -37.89, 15.87 -37.46, 16.26 -37.46 C16.65 -37.46, 17.08 -38.52, 18 -38.91 C18.92 -39.3, 20.52 -39.93, 21.78 -39.78 C23.04 -39.64, 24.59 -38.86, 25.55 -38.04 C26.52 -37.22, 27.44 -35.96, 27.59 -34.85 C27.73 -33.73, 26.28 -31.85, 26.42 -31.36 C26.57 -30.88, 27.25 -32.18, 28.46 -31.94 C29.67 -31.7, 32.43 -31.31, 33.68 -29.91 C34.94 -28.51, 35.81 -25.6, 36.01 -23.52 C36.2 -21.44, 35.62 -19.07, 34.85 -17.42 C34.07 -15.78, 32.86 -14.57, 31.36 -13.65 C29.86 -12.73, 27.73 -12, 25.84 -11.91 C23.96 -11.81, 21.54 -12.97, 20.04 -13.07 C18.54 -13.16, 20.18 -14.66, 16.84 -12.49 C13.5 -10.31, 2.81 -2.08, 0 0 M0 0 C0 -1.84, 0.05 -8.95, 0 -11.03 C-0.05 -13.12, 0 -12.29, -0.29 -12.49 C-0.58 -12.68, 0 -12.29, -1.74 -12.2 C-3.48 -12.1, -8.37 -11.57, -10.74 -11.91 C-13.12 -12.24, -14.62 -12.97, -15.97 -14.23 C-17.33 -15.49, -18.39 -17.86, -18.87 -19.46 C-19.36 -21.05, -19.31 -22.17, -18.87 -23.81 C-18.44 -25.46, -17.47 -28.02, -16.26 -29.33 C-15.05 -30.64, -12.63 -31.22, -11.62 -31.65 C-10.6 -32.09, -10.26 -31.8, -10.16 -31.94 C-10.07 -32.09, -10.99 -31.31, -11.03 -32.52 C-11.08 -33.73, -11.18 -37.22, -10.45 -39.2 C-9.73 -41.19, -8.42 -43.07, -6.68 -44.43 C-4.94 -45.78, -2.27 -46.94, 0 -47.33 C2.27 -47.72, 4.89 -47.38, 6.97 -46.75 C9.05 -46.12, 11.03 -44.86, 12.49 -43.56 C13.94 -42.25, 15.05 -39.93, 15.68 -38.91 C16.31 -37.89, 15.87 -37.46, 16.26 -37.46 C16.65 -37.46, 17.08 -38.52, 18 -38.91 C18.92 -39.3, 20.52 -39.93, 21.78 -39.78 C23.04 -39.64, 24.59 -38.86, 25.55 -38.04 C26.52 -37.22, 27.44 -35.96, 27.59 -34.85 C27.73 -33.73, 26.28 -31.85, 26.42 -31.36 C26.57 -30.88, 27.25 -32.18, 28.46 -31.94 C29.67 -31.7, 32.43 -31.31, 33.68 -29.91 C34.94 -28.51, 35.81 -25.6, 36.01 -23.52 C36.2 -21.44, 35.62 -19.07, 34.85 -17.42 C34.07 -15.78, 32.86 -14.57, 31.36 -13.65 C29.86 -12.73, 27.73 -12, 25.84 -11.91 C23.96 -11.81, 21.54 -12.97, 20.04 -13.07 C18.54 -13.16, 20.18 -14.66, 16.84 -12.49 C13.5 -10.31, 2.81 -2.08, 0 0" stroke="#000000" stroke-width="2" fill="none"></path></g></g><mask></mask><g stroke-linecap="round" transform="translate(25.290726208781052 37.76472749947243) rotate(0 3.0490012861812374 3.049001286181465)"><path d="M6.1 3.05 C6.1 3.23, 6.08 3.4, 6.05 3.58 C6.02 3.75, 5.97 3.93, 5.91 4.09 C5.85 4.26, 5.78 4.42, 5.69 4.57 C5.6 4.73, 5.5 4.87, 5.38 5.01 C5.27 5.14, 5.14 5.27, 5.01 5.38 C4.87 5.5, 4.73 5.6, 4.57 5.69 C4.42 5.78, 4.26 5.85, 4.09 5.91 C3.93 5.97, 3.75 6.02, 3.58 6.05 C3.4 6.08, 3.23 6.1, 3.05 6.1 C2.87 6.1, 2.69 6.08, 2.52 6.05 C2.35 6.02, 2.17 5.97, 2.01 5.91 C1.84 5.85, 1.68 5.78, 1.52 5.69 C1.37 5.6, 1.22 5.5, 1.09 5.38 C0.95 5.27, 0.83 5.14, 0.71 5.01 C0.6 4.87, 0.5 4.73, 0.41 4.57 C0.32 4.42, 0.24 4.26, 0.18 4.09 C0.12 3.93, 0.08 3.75, 0.05 3.58 C0.02 3.4, 0 3.23, 0 3.05 C0 2.87, 0.02 2.69, 0.05 2.52 C0.08 2.35, 0.12 2.17, 0.18 2.01 C0.24 1.84, 0.32 1.68, 0.41 1.52 C0.5 1.37, 0.6 1.22, 0.71 1.09 C0.83 0.95, 0.95 0.83, 1.09 0.71 C1.22 0.6, 1.37 0.5, 1.52 0.41 C1.68 0.32, 1.84 0.24, 2.01 0.18 C2.17 0.12, 2.35 0.08, 2.52 0.05 C2.69 0.02, 2.87 0, 3.05 0 C3.23 0, 3.4 0.02, 3.58 0.05 C3.75 0.08, 3.93 0.12, 4.09 0.18 C4.26 0.24, 4.42 0.32, 4.57 0.41 C4.73 0.5, 4.87 0.6, 5.01 0.71 C5.14 0.83, 5.27 0.95, 5.38 1.09 C5.5 1.22, 5.6 1.37, 5.69 1.52 C5.78 1.68, 5.85 1.84, 5.91 2.01 C5.97 2.17, 6.02 2.35, 6.05 2.52 C6.08 2.69, 6.09 2.96, 6.1 3.05 C6.11 3.14, 6.11 2.96, 6.1 3.05" stroke="#000000" stroke-width="2" fill="none"></path></g><g stroke-linecap="round" transform="translate(35.19272086199817 27.688504201329124) rotate(0 3.0490012861812374 3.049001286181465)"><path d="M6.1 3.05 C6.1 3.23, 6.08 3.4, 6.05 3.58 C6.02 3.75, 5.97 3.93, 5.91 4.09 C5.85 4.26, 5.78 4.42, 5.69 4.57 C5.6 4.73, 5.5 4.87, 5.38 5.01 C5.27 5.14, 5.14 5.27, 5.01 5.38 C4.87 5.5, 4.73 5.6, 4.57 5.69 C4.42 5.78, 4.26 5.85, 4.09 5.91 C3.93 5.97, 3.75 6.02, 3.58 6.05 C3.4 6.08, 3.23 6.1, 3.05 6.1 C2.87 6.1, 2.69 6.08, 2.52 6.05 C2.35 6.02, 2.17 5.97, 2.01 5.91 C1.84 5.85, 1.68 5.78, 1.52 5.69 C1.37 5.6, 1.22 5.5, 1.09 5.38 C0.95 5.27, 0.83 5.14, 0.71 5.01 C0.6 4.87, 0.5 4.73, 0.41 4.57 C0.32 4.42, 0.24 4.26, 0.18 4.09 C0.12 3.93, 0.08 3.75, 0.05 3.58 C0.02 3.4, 0 3.23, 0 3.05 C0 2.87, 0.02 2.69, 0.05 2.52 C0.08 2.35, 0.12 2.17, 0.18 2.01 C0.24 1.84, 0.32 1.68, 0.41 1.52 C0.5 1.37, 0.6 1.22, 0.71 1.09 C0.83 0.95, 0.95 0.83, 1.09 0.71 C1.22 0.6, 1.37 0.5, 1.52 0.41 C1.68 0.32, 1.84 0.24, 2.01 0.18 C2.17 0.12, 2.35 0.08, 2.52 0.05 C2.69 0.02, 2.87 0, 3.05 0 C3.23 0, 3.4 0.02, 3.58 0.05 C3.75 0.08, 3.93 0.12, 4.09 0.18 C4.26 0.24, 4.42 0.32, 4.57 0.41 C4.73 0.5, 4.87 0.6, 5.01 0.71 C5.14 0.83, 5.27 0.95, 5.38 1.09 C5.5 1.22, 5.6 1.37, 5.69 1.52 C5.78 1.68, 5.85 1.84, 5.91 2.01 C5.97 2.17, 6.02 2.35, 6.05 2.52 C6.08 2.69, 6.09 2.96, 6.1 3.05 C6.11 3.14, 6.11 2.96, 6.1 3.05" stroke="#000000" stroke-width="2" fill="none"></path></g><g stroke-linecap="round" transform="translate(52.092899419689275 29.779247940425194) rotate(0 3.0490012861812374 3.049001286181465)"><path d="M6.1 3.05 C6.1 3.23, 6.08 3.4, 6.05 3.58 C6.02 3.75, 5.97 3.93, 5.91 4.09 C5.85 4.26, 5.78 4.42, 5.69 4.57 C5.6 4.73, 5.5 4.87, 5.38 5.01 C5.27 5.14, 5.14 5.27, 5.01 5.38 C4.87 5.5, 4.73 5.6, 4.57 5.69 C4.42 5.78, 4.26 5.85, 4.09 5.91 C3.93 5.97, 3.75 6.02, 3.58 6.05 C3.4 6.08, 3.23 6.1, 3.05 6.1 C2.87 6.1, 2.69 6.08, 2.52 6.05 C2.35 6.02, 2.17 5.97, 2.01 5.91 C1.84 5.85, 1.68 5.78, 1.52 5.69 C1.37 5.6, 1.22 5.5, 1.09 5.38 C0.95 5.27, 0.83 5.14, 0.71 5.01 C0.6 4.87, 0.5 4.73, 0.41 4.57 C0.32 4.42, 0.24 4.26, 0.18 4.09 C0.12 3.93, 0.08 3.75, 0.05 3.58 C0.02 3.4, 0 3.23, 0 3.05 C0 2.87, 0.02 2.69, 0.05 2.52 C0.08 2.35, 0.12 2.17, 0.18 2.01 C0.24 1.84, 0.32 1.68, 0.41 1.52 C0.5 1.37, 0.6 1.22, 0.71 1.09 C0.83 0.95, 0.95 0.83, 1.09 0.71 C1.22 0.6, 1.37 0.5, 1.52 0.41 C1.68 0.32, 1.84 0.24, 2.01 0.18 C2.17 0.12, 2.35 0.08, 2.52 0.05 C2.69 0.02, 2.87 0, 3.05 0 C3.23 0, 3.4 0.02, 3.58 0.05 C3.75 0.08, 3.93 0.12, 4.09 0.18 C4.26 0.24, 4.42 0.32, 4.57 0.41 C4.73 0.5, 4.87 0.6, 5.01 0.71 C5.14 0.83, 5.27 0.95, 5.38 1.09 C5.5 1.22, 5.6 1.37, 5.69 1.52 C5.78 1.68, 5.85 1.84, 5.91 2.01 C5.97 2.17, 6.02 2.35, 6.05 2.52 C6.08 2.69, 6.09 2.96, 6.1 3.05 C6.11 3.14, 6.11 2.96, 6.1 3.05" stroke="#000000" stroke-width="2" fill="none"></path></g><g stroke-linecap="round" transform="translate(43.03300988360752 39.652204486155824) rotate(0 3.0490012861812374 3.049001286181465)"><path d="M6.1 3.05 C6.1 3.23, 6.08 3.4, 6.05 3.58 C6.02 3.75, 5.97 3.93, 5.91 4.09 C5.85 4.26, 5.78 4.42, 5.69 4.57 C5.6 4.73, 5.5 4.87, 5.38 5.01 C5.27 5.14, 5.14 5.27, 5.01 5.38 C4.87 5.5, 4.73 5.6, 4.57 5.69 C4.42 5.78, 4.26 5.85, 4.09 5.91 C3.93 5.97, 3.75 6.02, 3.58 6.05 C3.4 6.08, 3.23 6.1, 3.05 6.1 C2.87 6.1, 2.69 6.08, 2.52 6.05 C2.35 6.02, 2.17 5.97, 2.01 5.91 C1.84 5.85, 1.68 5.78, 1.52 5.69 C1.37 5.6, 1.22 5.5, 1.09 5.38 C0.95 5.27, 0.83 5.14, 0.71 5.01 C0.6 4.87, 0.5 4.73, 0.41 4.57 C0.32 4.42, 0.24 4.26, 0.18 4.09 C0.12 3.93, 0.08 3.75, 0.05 3.58 C0.02 3.4, 0 3.23, 0 3.05 C0 2.87, 0.02 2.69, 0.05 2.52 C0.08 2.35, 0.12 2.17, 0.18 2.01 C0.24 1.84, 0.32 1.68, 0.41 1.52 C0.5 1.37, 0.6 1.22, 0.71 1.09 C0.83 0.95, 0.95 0.83, 1.09 0.71 C1.22 0.6, 1.37 0.5, 1.52 0.41 C1.68 0.32, 1.84 0.24, 2.01 0.18 C2.17 0.12, 2.35 0.08, 2.52 0.05 C2.69 0.02, 2.87 0, 3.05 0 C3.23 0, 3.4 0.02, 3.58 0.05 C3.75 0.08, 3.93 0.12, 4.09 0.18 C4.26 0.24, 4.42 0.32, 4.57 0.41 C4.73 0.5, 4.87 0.6, 5.01 0.71 C5.14 0.83, 5.27 0.95, 5.38 1.09 C5.5 1.22, 5.6 1.37, 5.69 1.52 C5.78 1.68, 5.85 1.84, 5.91 2.01 C5.97 2.17, 6.02 2.35, 6.05 2.52 C6.08 2.69, 6.09 2.96, 6.1 3.05 C6.11 3.14, 6.11 2.96, 6.1 3.05" stroke="#000000" stroke-width="2" fill="none"></path></g><g stroke-linecap="round"><g transform="translate(30.691814201445595 38.577794509119485) rotate(0 2.758620211306834 -2.468239136432203)"><path d="M0 0 C0.92 -0.82, 4.6 -4.11, 5.52 -4.94 M0 0 C0.92 -0.82, 4.6 -4.11, 5.52 -4.94" stroke="#000000" stroke-width="2" fill="none"></path></g></g><mask></mask><g stroke-linecap="round"><g transform="translate(40.27438967230046 33.35093516138113) rotate(0 2.1778580615580267 3.3393823610554136)"><path d="M0 0 C0.73 1.11, 3.63 5.57, 4.36 6.68 M0 0 C0.73 1.11, 3.63 5.57, 4.36 6.68" stroke="#000000" stroke-width="2" fill="none"></path></g></g><mask></mask><g stroke-linecap="round"><g transform="translate(48.985821918532565 40.90084310811653) rotate(0 2.3230485989952285 -2.7586202113066065)"><path d="M0 0 C0.77 -0.92, 3.87 -4.6, 4.65 -5.52 M0 0 C0.77 -0.92, 3.87 -4.6, 4.65 -5.52" stroke="#000000" stroke-width="2" fill="none"></path></g></g><mask></mask><g stroke-linecap="round" transform="translate(11.109553527832759 6) rotate(0 32.350445556640466 32.35044555664035)"><path d="M0 0 C0 0, 0 0, 0 0 M0 0 C0 0, 0 0, 0 0 M0.13 12.04 C2.79 8.98, 5.45 5.93, 10.63 -0.03 M0.13 12.04 C3.9 7.7, 7.67 3.37, 10.63 -0.03 M0.27 24.08 C5.01 18.62, 9.76 13.16, 21.26 -0.07 M0.27 24.08 C5.73 17.8, 11.19 11.52, 21.26 -0.07 M-0.26 36.88 C6.31 29.33, 12.87 21.78, 31.89 -0.1 M-0.26 36.88 C10.87 24.07, 22.01 11.27, 31.89 -0.1 M-0.12 48.92 C9.59 37.74, 19.31 26.57, 42.52 -0.14 M-0.12 48.92 C10.22 37.02, 20.56 25.12, 42.52 -0.14 M0.01 60.96 C19.83 38.15, 39.66 15.35, 53.15 -0.17 M0.01 60.96 C18.23 39.99, 36.46 19.03, 53.15 -0.17 M7.36 64.7 C22.44 47.35, 37.51 30.01, 63.78 -0.21 M7.36 64.7 C21.18 48.8, 35 32.9, 63.78 -0.21 M17.33 65.42 C31.72 48.87, 46.1 32.33, 64.57 11.08 M17.33 65.42 C30.74 49.99, 44.15 34.57, 64.57 11.08 M27.96 65.38 C41.25 50.1, 54.53 34.82, 64.7 23.12 M27.96 65.38 C41.45 49.87, 54.93 34.36, 64.7 23.12 M38.59 65.35 C44.19 58.91, 49.79 52.47, 64.84 35.16 M38.59 65.35 C46.69 56.04, 54.78 46.73, 64.84 35.16 M49.22 65.31 C53.14 60.81, 57.05 56.31, 64.97 47.2 M49.22 65.31 C53.36 60.55, 57.5 55.79, 64.97 47.2 M59.85 65.28 C61.35 63.56, 62.85 61.84, 65.1 59.24 M59.85 65.28 C61.22 63.71, 62.59 62.14, 65.1 59.24 M-0.34 64.41 C-0.34 64.41, -0.34 64.41, -0.34 64.41 M-0.34 64.41 C-0.34 64.41, -0.34 64.41, -0.34 64.41 M12.46 64.93 C7.65 60.75, 2.84 56.57, -0.37 53.78 M12.46 64.93 C7.47 60.59, 2.48 56.26, -0.37 53.78 M24.5 64.8 C16 57.4, 7.49 50.01, 0.35 43.8 M24.5 64.8 C15.67 57.12, 6.83 49.44, 0.35 43.8 M36.54 64.66 C25.34 54.93, 14.14 45.19, 0.31 33.17 M36.54 64.66 C27.59 56.89, 18.65 49.11, 0.31 33.17 M48.58 64.53 C31.89 50.02, 15.19 35.51, 0.28 22.54 M48.58 64.53 C31.45 49.64, 14.31 34.74, 0.28 22.54 M60.62 64.4 C37.44 44.25, 14.27 24.1, 0.24 11.91 M60.62 64.4 C36.9 43.78, 13.19 23.16, 0.24 11.91 M65.11 57.7 C46.6 41.61, 28.08 25.51, 0.21 1.28 M65.11 57.7 C46.88 41.85, 28.64 25.99, 0.21 1.28 M65.08 47.07 C50.65 34.53, 36.22 21.98, 10.74 -0.16 M65.08 47.07 C49.36 33.41, 33.65 19.75, 10.74 -0.16 M65.05 36.44 C56.15 28.71, 47.26 20.98, 22.78 -0.3 M65.05 36.44 C53.54 26.44, 42.04 16.44, 22.78 -0.3 M65.01 25.81 C56.22 18.17, 47.44 10.54, 34.82 -0.43 M65.01 25.81 C58.86 20.47, 52.72 15.12, 34.82 -0.43 M64.98 15.18 C60.11 10.95, 55.24 6.72, 47.62 0.09 M64.98 15.18 C61.32 12, 57.66 8.83, 47.62 0.09 M64.94 4.55 C63 2.87, 61.06 1.18, 59.66 -0.04 M64.94 4.55 C63.31 3.14, 61.69 1.72, 59.66 -0.04" stroke="#fa525288" stroke-width="1" fill="none"></path><path d="M0 0 C24.48 0, 48.95 0, 64.7 0 M0 0 C16.76 0, 33.51 0, 64.7 0 M64.7 0 C64.7 24.43, 64.7 48.86, 64.7 64.7 M64.7 0 C64.7 19.33, 64.7 38.65, 64.7 64.7 M64.7 64.7 C47.37 64.7, 30.04 64.7, 0 64.7 M64.7 64.7 C43.28 64.7, 21.85 64.7, 0 64.7 M0 64.7 C0 42.34, 0 19.98, 0 0 M0 64.7 C0 41.94, 0 19.18, 0 0" stroke="#000000" stroke-width="2" fill="none"></path></g><g transform="translate(6 75.83708726462282) rotate(0 37.459999084472656 12)"><text x="0" y="0" font-family="Virgil, Segoe UI Emoji" font-size="20px" fill="#000000" text-anchor="start" style="white-space: pre;" direction="ltr" dominant-baseline="text-before-edge">Connect</text></g></svg>