<svg version="1.1" xmlns="http://www.w3.org/2000/svg" viewBox="0 0 112.8800048828125 101.45076850056148" width="112.8800048828125" height="101.45076850056148">
  <!-- svg-source:excalidraw -->
  
  <defs>
    
    
  </defs>
  <g transform="translate(6 71.45076850056148) rotate(0 50.44000244140625 12)"><text x="0" y="0" font-family="Virgil, Segoe UI Emoji" font-size="20px" fill="#000000" text-anchor="start" style="white-space: pre;" direction="ltr" dominant-baseline="text-before-edge">DataZone</text></g><g stroke-linecap="round" transform="translate(24.764981814483235 6) rotate(0 31.675020626922958 31.644688808395927)"><path d="M0 0 C0 0, 0 0, 0 0 M0 0 C0 0, 0 0, 0 0 M0.13 12.04 C2.55 9.26, 4.98 6.47, 10.63 -0.03 M0.13 12.04 C2.83 8.94, 5.52 5.84, 10.63 -0.03 M0.27 24.08 C8.26 14.89, 16.25 5.69, 21.26 -0.07 M0.27 24.08 C6.65 16.74, 13.03 9.39, 21.26 -0.07 M-0.26 36.88 C6.52 29.08, 13.3 21.29, 31.89 -0.1 M-0.26 36.88 C8.97 26.26, 18.2 15.64, 31.89 -0.1 M-0.12 48.92 C12.19 34.75, 24.5 20.59, 42.52 -0.14 M-0.12 48.92 C12.89 33.94, 25.91 18.97, 42.52 -0.14 M0.01 60.96 C14.16 44.68, 28.31 28.41, 53.15 -0.17 M0.01 60.96 C12.6 46.47, 25.19 31.99, 53.15 -0.17 M8.02 63.94 C27.73 41.26, 47.45 18.58, 63.78 -0.21 M8.02 63.94 C22.77 46.97, 37.52 30, 63.78 -0.21 M18.65 63.91 C36.25 43.66, 53.85 23.42, 63.26 12.59 M18.65 63.91 C36.46 43.41, 54.28 22.92, 63.26 12.59 M29.28 63.87 C40.93 50.47, 52.58 37.07, 63.39 24.63 M29.28 63.87 C36.32 55.77, 43.36 47.67, 63.39 24.63 M39.91 63.84 C47.71 54.86, 55.52 45.88, 63.52 36.67 M39.91 63.84 C47.7 54.88, 55.49 45.91, 63.52 36.67 M50.54 63.81 C55.21 58.43, 59.89 53.05, 63.66 48.71 M50.54 63.81 C53.39 60.52, 56.25 57.23, 63.66 48.71 M61.17 63.77 C62.08 62.72, 62.99 61.68, 63.79 60.75 M61.17 63.77 C61.81 63.03, 62.46 62.28, 63.79 60.75 M0.36 63.6 C0.36 63.6, 0.36 63.6, 0.36 63.6 M0.36 63.6 C0.36 63.6, 0.36 63.6, 0.36 63.6 M12.4 63.47 C9.34 60.81, 6.28 58.15, 0.33 52.97 M12.4 63.47 C9.61 61.04, 6.82 58.62, 0.33 52.97 M24.44 63.34 C15.54 55.59, 6.63 47.85, 0.29 42.34 M24.44 63.34 C16.97 56.84, 9.5 50.35, 0.29 42.34 M36.48 63.2 C22.07 50.68, 7.67 38.15, 0.26 31.71 M36.48 63.2 C28.32 56.11, 20.16 49.01, 0.26 31.71 M48.52 63.07 C35.9 52.09, 23.27 41.12, 0.22 21.08 M48.52 63.07 C35.21 51.5, 21.9 39.92, 0.22 21.08 M61.32 63.59 C45.14 49.53, 28.97 35.47, 0.19 10.45 M61.32 63.59 C46.92 51.08, 32.52 38.56, 0.19 10.45 M63.55 54.93 C40.05 34.5, 16.55 14.07, 0.15 -0.18 M63.55 54.93 C45.53 39.27, 27.52 23.61, 0.15 -0.18 M63.52 44.3 C49.32 31.96, 35.12 19.62, 12.19 -0.31 M63.52 44.3 C46.59 29.59, 29.67 14.88, 12.19 -0.31 M63.48 33.67 C52.18 23.85, 40.88 14.03, 24.24 -0.44 M63.48 33.67 C50.36 22.27, 37.24 10.86, 24.24 -0.44 M63.45 23.04 C53.05 14, 42.65 4.96, 37.03 0.08 M63.45 23.04 C57.14 17.56, 50.84 12.08, 37.03 0.08 M63.41 12.41 C58.51 8.15, 53.61 3.89, 49.07 -0.05 M63.41 12.41 C59.28 8.82, 55.16 5.24, 49.07 -0.05 M63.38 1.78 C62.67 1.16, 61.96 0.55, 61.11 -0.19 M63.38 1.78 C62.57 1.08, 61.77 0.38, 61.11 -0.19" stroke="#7950f288" stroke-width="1" fill="none"></path><path d="M0 0 C25.27 0, 50.54 0, 63.35 0 M0 0 C21.73 0, 43.46 0, 63.35 0 M63.35 0 C63.35 24.96, 63.35 49.91, 63.35 63.29 M63.35 0 C63.35 18.6, 63.35 37.2, 63.35 63.29 M63.35 63.29 C46.98 63.29, 30.62 63.29, 0 63.29 M63.35 63.29 C38.57 63.29, 13.79 63.29, 0 63.29 M0 63.29 C0 46.45, 0 29.61, 0 0 M0 63.29 C0 43.35, 0 23.42, 0 0" stroke="#000000" stroke-width="2" fill="none"></path></g><g stroke-linecap="round"><g transform="translate(40.822560571021995 31.42125502576573) rotate(0 -3.00704700614466 5.913859112084538)"><path d="M0 0 C-1.34 1.32, -2.69 2.64, -6.01 5.91 M0 0 C-1.65 1.63, -3.31 3.25, -6.01 5.91 M-6.01 5.91 C-3.94 7.95, -1.86 9.99, 0 11.83 M-6.01 5.91 C-4.16 7.74, -2.3 9.56, 0 11.83" stroke="#1e1e1e" stroke-width="2" fill="none"></path></g></g><mask></mask><g stroke-linecap="round"><g transform="translate(71.49444003369763 31.822194626585315) rotate(0 3.00704700614466 5.913859112084538)"><path d="M0 0 C1.86 1.83, 3.72 3.66, 6.01 5.91 M0 0 C1.6 1.57, 3.19 3.14, 6.01 5.91 M6.01 5.91 C4.15 7.74, 2.29 9.57, 0 11.83 M6.01 5.91 C4.76 7.15, 3.5 8.38, 0 11.83" stroke="#1e1e1e" stroke-width="2" fill="none"></path></g></g><mask></mask><g stroke-linecap="round"><g transform="translate(50.64558079109452 21.89893950630767) rotate(0 5.554673053317856 -2.7460213701195926)"><path d="M0 0 C1.64 -1.73, 3.27 -3.46, 5.31 -5.61 M0 0 C1.87 -1.98, 3.74 -3.95, 5.31 -5.61 M5.31 -5.61 C7.42 -3.53, 9.52 -1.45, 11.11 0.12 M5.31 -5.61 C6.75 -4.19, 8.19 -2.77, 11.11 0.12" stroke="#1e1e1e" stroke-width="2" fill="none"></path></g></g><mask></mask><g stroke-linecap="round"><g transform="translate(50.610989365250134 53.18880099020225) rotate(0 5.554673053317856 2.7460213701195926)"><path d="M0 0 C1.59 1.68, 3.19 3.37, 5.31 5.61 M0 0 C1.59 1.68, 3.18 3.36, 5.31 5.61 M5.31 5.61 C7.44 3.51, 9.57 1.4, 11.11 -0.12 M5.31 5.61 C6.67 4.27, 8.02 2.93, 11.11 -0.12" stroke="#1e1e1e" stroke-width="2" fill="none"></path></g></g><mask></mask><g stroke-linecap="round" transform="translate(63.50628936757903 23.397989397137962) rotate(0 3.372720490086124 3.372720490086067)"><path d="M6.75 3.37 C6.75 3.57, 6.73 3.77, 6.69 3.96 C6.66 4.15, 6.61 4.34, 6.54 4.53 C6.48 4.71, 6.39 4.89, 6.29 5.06 C6.2 5.23, 6.08 5.39, 5.96 5.54 C5.83 5.69, 5.69 5.83, 5.54 5.96 C5.39 6.08, 5.23 6.2, 5.06 6.29 C4.89 6.39, 4.71 6.48, 4.53 6.54 C4.34 6.61, 4.15 6.66, 3.96 6.69 C3.77 6.73, 3.57 6.75, 3.37 6.75 C3.18 6.75, 2.98 6.73, 2.79 6.69 C2.59 6.66, 2.4 6.61, 2.22 6.54 C2.04 6.48, 1.86 6.39, 1.69 6.29 C1.52 6.2, 1.35 6.08, 1.2 5.96 C1.06 5.83, 0.91 5.69, 0.79 5.54 C0.66 5.39, 0.55 5.23, 0.45 5.06 C0.35 4.89, 0.27 4.71, 0.2 4.53 C0.14 4.34, 0.09 4.15, 0.05 3.96 C0.02 3.77, 0 3.57, 0 3.37 C0 3.18, 0.02 2.98, 0.05 2.79 C0.09 2.59, 0.14 2.4, 0.2 2.22 C0.27 2.04, 0.35 1.86, 0.45 1.69 C0.55 1.52, 0.66 1.35, 0.79 1.2 C0.91 1.06, 1.06 0.91, 1.2 0.79 C1.35 0.66, 1.52 0.55, 1.69 0.45 C1.86 0.35, 2.04 0.27, 2.22 0.2 C2.4 0.14, 2.59 0.09, 2.79 0.05 C2.98 0.02, 3.18 0, 3.37 0 C3.57 0, 3.77 0.02, 3.96 0.05 C4.15 0.09, 4.34 0.14, 4.53 0.2 C4.71 0.27, 4.89 0.35, 5.06 0.45 C5.23 0.55, 5.39 0.66, 5.54 0.79 C5.69 0.91, 5.83 1.06, 5.96 1.2 C6.08 1.35, 6.2 1.52, 6.29 1.69 C6.39 1.86, 6.48 2.04, 6.54 2.22 C6.61 2.4, 6.66 2.59, 6.69 2.79 C6.73 2.98, 6.74 3.28, 6.75 3.37 C6.75 3.47, 6.75 3.28, 6.75 3.37" stroke="#1e1e1e" stroke-width="2" fill="none"></path></g><g stroke-linecap="round" transform="translate(63.50628936757903 45.02307959827863) rotate(0 3.372720490086124 3.372720490086067)"><path d="M6.75 3.37 C6.75 3.57, 6.73 3.77, 6.69 3.96 C6.66 4.15, 6.61 4.34, 6.54 4.53 C6.48 4.71, 6.39 4.89, 6.29 5.06 C6.2 5.23, 6.08 5.39, 5.96 5.54 C5.83 5.69, 5.69 5.83, 5.54 5.96 C5.39 6.08, 5.23 6.2, 5.06 6.29 C4.89 6.39, 4.71 6.48, 4.53 6.54 C4.34 6.61, 4.15 6.66, 3.96 6.69 C3.77 6.73, 3.57 6.75, 3.37 6.75 C3.18 6.75, 2.98 6.73, 2.79 6.69 C2.59 6.66, 2.4 6.61, 2.22 6.54 C2.04 6.48, 1.86 6.39, 1.69 6.29 C1.52 6.2, 1.35 6.08, 1.2 5.96 C1.06 5.83, 0.91 5.69, 0.79 5.54 C0.66 5.39, 0.55 5.23, 0.45 5.06 C0.35 4.89, 0.27 4.71, 0.2 4.53 C0.14 4.34, 0.09 4.15, 0.05 3.96 C0.02 3.77, 0 3.57, 0 3.37 C0 3.18, 0.02 2.98, 0.05 2.79 C0.09 2.59, 0.14 2.4, 0.2 2.22 C0.27 2.04, 0.35 1.86, 0.45 1.69 C0.55 1.52, 0.66 1.35, 0.79 1.2 C0.91 1.06, 1.06 0.91, 1.2 0.79 C1.35 0.66, 1.52 0.55, 1.69 0.45 C1.86 0.35, 2.04 0.27, 2.22 0.2 C2.4 0.14, 2.59 0.09, 2.79 0.05 C2.98 0.02, 3.18 0, 3.37 0 C3.57 0, 3.77 0.02, 3.96 0.05 C4.15 0.09, 4.34 0.14, 4.53 0.2 C4.71 0.27, 4.89 0.35, 5.06 0.45 C5.23 0.55, 5.39 0.66, 5.54 0.79 C5.69 0.91, 5.83 1.06, 5.96 1.2 C6.08 1.35, 6.2 1.52, 6.29 1.69 C6.39 1.86, 6.48 2.04, 6.54 2.22 C6.61 2.4, 6.66 2.59, 6.69 2.79 C6.73 2.98, 6.74 3.28, 6.75 3.37 C6.75 3.47, 6.75 3.28, 6.75 3.37" stroke="#1e1e1e" stroke-width="2" fill="none"></path></g><g stroke-linecap="round" transform="translate(42.07959448938482 45.02307959827863) rotate(0 3.372720490086124 3.372720490086067)"><path d="M6.75 3.37 C6.75 3.57, 6.73 3.77, 6.69 3.96 C6.66 4.15, 6.61 4.34, 6.54 4.53 C6.48 4.71, 6.39 4.89, 6.29 5.06 C6.2 5.23, 6.08 5.39, 5.96 5.54 C5.83 5.69, 5.69 5.83, 5.54 5.96 C5.39 6.08, 5.23 6.2, 5.06 6.29 C4.89 6.39, 4.71 6.48, 4.53 6.54 C4.34 6.61, 4.15 6.66, 3.96 6.69 C3.77 6.73, 3.57 6.75, 3.37 6.75 C3.18 6.75, 2.98 6.73, 2.79 6.69 C2.59 6.66, 2.4 6.61, 2.22 6.54 C2.04 6.48, 1.86 6.39, 1.69 6.29 C1.52 6.2, 1.35 6.08, 1.2 5.96 C1.06 5.83, 0.91 5.69, 0.79 5.54 C0.66 5.39, 0.55 5.23, 0.45 5.06 C0.35 4.89, 0.27 4.71, 0.2 4.53 C0.14 4.34, 0.09 4.15, 0.05 3.96 C0.02 3.77, 0 3.57, 0 3.37 C0 3.18, 0.02 2.98, 0.05 2.79 C0.09 2.59, 0.14 2.4, 0.2 2.22 C0.27 2.04, 0.35 1.86, 0.45 1.69 C0.55 1.52, 0.66 1.35, 0.79 1.2 C0.91 1.06, 1.06 0.91, 1.2 0.79 C1.35 0.66, 1.52 0.55, 1.69 0.45 C1.86 0.35, 2.04 0.27, 2.22 0.2 C2.4 0.14, 2.59 0.09, 2.79 0.05 C2.98 0.02, 3.18 0, 3.37 0 C3.57 0, 3.77 0.02, 3.96 0.05 C4.15 0.09, 4.34 0.14, 4.53 0.2 C4.71 0.27, 4.89 0.35, 5.06 0.45 C5.23 0.55, 5.39 0.66, 5.54 0.79 C5.69 0.91, 5.83 1.06, 5.96 1.2 C6.08 1.35, 6.2 1.52, 6.29 1.69 C6.39 1.86, 6.48 2.04, 6.54 2.22 C6.61 2.4, 6.66 2.59, 6.69 2.79 C6.73 2.98, 6.74 3.28, 6.75 3.37 C6.75 3.47, 6.75 3.28, 6.75 3.37" stroke="#1e1e1e" stroke-width="2" fill="none"></path></g><g stroke-linecap="round" transform="translate(42.07959448938482 23.397989397137962) rotate(0 3.372720490086124 3.372720490086067)"><path d="M6.75 3.37 C6.75 3.57, 6.73 3.77, 6.69 3.96 C6.66 4.15, 6.61 4.34, 6.54 4.53 C6.48 4.71, 6.39 4.89, 6.29 5.06 C6.2 5.23, 6.08 5.39, 5.96 5.54 C5.83 5.69, 5.69 5.83, 5.54 5.96 C5.39 6.08, 5.23 6.2, 5.06 6.29 C4.89 6.39, 4.71 6.48, 4.53 6.54 C4.34 6.61, 4.15 6.66, 3.96 6.69 C3.77 6.73, 3.57 6.75, 3.37 6.75 C3.18 6.75, 2.98 6.73, 2.79 6.69 C2.59 6.66, 2.4 6.61, 2.22 6.54 C2.04 6.48, 1.86 6.39, 1.69 6.29 C1.52 6.2, 1.35 6.08, 1.2 5.96 C1.06 5.83, 0.91 5.69, 0.79 5.54 C0.66 5.39, 0.55 5.23, 0.45 5.06 C0.35 4.89, 0.27 4.71, 0.2 4.53 C0.14 4.34, 0.09 4.15, 0.05 3.96 C0.02 3.77, 0 3.57, 0 3.37 C0 3.18, 0.02 2.98, 0.05 2.79 C0.09 2.59, 0.14 2.4, 0.2 2.22 C0.27 2.04, 0.35 1.86, 0.45 1.69 C0.55 1.52, 0.66 1.35, 0.79 1.2 C0.91 1.06, 1.06 0.91, 1.2 0.79 C1.35 0.66, 1.52 0.55, 1.69 0.45 C1.86 0.35, 2.04 0.27, 2.22 0.2 C2.4 0.14, 2.59 0.09, 2.79 0.05 C2.98 0.02, 3.18 0, 3.37 0 C3.57 0, 3.77 0.02, 3.96 0.05 C4.15 0.09, 4.34 0.14, 4.53 0.2 C4.71 0.27, 4.89 0.35, 5.06 0.45 C5.23 0.55, 5.39 0.66, 5.54 0.79 C5.69 0.91, 5.83 1.06, 5.96 1.2 C6.08 1.35, 6.2 1.52, 6.29 1.69 C6.39 1.86, 6.48 2.04, 6.54 2.22 C6.61 2.4, 6.66 2.59, 6.69 2.79 C6.73 2.98, 6.74 3.28, 6.75 3.37 C6.75 3.47, 6.75 3.28, 6.75 3.37" stroke="#1e1e1e" stroke-width="2" fill="none"></path></g><g stroke-linecap="round" transform="translate(46.59498446729049 28.080119018669393) rotate(0 9.364259243062577 9.364259243062634)"><path d="M4.68 0 C6.75 0, 8.82 0, 14.05 0 M4.68 0 C7.02 0, 9.37 0, 14.05 0 M14.05 0 C17.17 0, 18.73 1.56, 18.73 4.68 M14.05 0 C17.17 0, 18.73 1.56, 18.73 4.68 M18.73 4.68 C18.73 8.26, 18.73 11.83, 18.73 14.05 M18.73 4.68 C18.73 8.29, 18.73 11.89, 18.73 14.05 M18.73 14.05 C18.73 17.17, 17.17 18.73, 14.05 18.73 M18.73 14.05 C18.73 17.17, 17.17 18.73, 14.05 18.73 M14.05 18.73 C12.11 18.73, 10.17 18.73, 4.68 18.73 M14.05 18.73 C10.47 18.73, 6.88 18.73, 4.68 18.73 M4.68 18.73 C1.56 18.73, 0 17.17, 0 14.05 M4.68 18.73 C1.56 18.73, 0 17.17, 0 14.05 M0 14.05 C0 11.64, 0 9.24, 0 4.68 M0 14.05 C0 11.69, 0 9.33, 0 4.68 M0 4.68 C0 1.56, 1.56 0, 4.68 0 M0 4.68 C0 1.56, 1.56 0, 4.68 0" stroke="#1e1e1e" stroke-width="2" fill="none"></path></g></svg>