<svg version="1.1" xmlns="http://www.w3.org/2000/svg" viewBox="0 0 103.679931640625 124.77168519803126" width="103.679931640625" height="124.77168519803126">
  <!-- svg-source:excalidraw -->
  
  <defs>
    
    
  </defs>
  <g stroke-linecap="round" transform="translate(19.861607361800452 6) rotate(0 32.2305761824785 32.199712367130076)"><path d="M3.43 3.11 L61.88 -2.25 L67.5 68.15 L0.11 67.3" stroke="none" stroke-width="0" fill="#4c6ef5"></path><path d="M-2.32 -1.75 C15.1 -0.29, 39.33 -2.46, 63.11 -2.13 M-0.01 0.94 C15.12 -1.83, 24.91 -0.03, 64.71 0.24 M63.38 2.14 C59.76 23.34, 62.87 37.66, 61.61 63.46 M64.85 -0.42 C64.3 14.29, 63.99 30.73, 65.25 65.32 M60.58 67.44 C50.9 63.58, 31.96 61.63, 2.27 63.75 M64.29 64.49 C43 64.85, 17.61 63.99, 0.53 63.36 M3.36 67.92 C-1.65 43.93, -0.37 21.92, 2.96 3.87 M1.28 64.97 C1.93 48.96, -0.8 31.75, -1.58 -1.74" stroke="#00000000" stroke-width="1" fill="none"></path></g><g stroke-linecap="round" transform="translate(19.60938963783383 11.584726883404983) rotate(0 32.2305761824785 32.199712367130076)"><path d="M0 0 C0 0, 0 0, 0 0 M0 0 C0 0, 0 0, 0 0 M-0.26 6.4 C1.23 4.68, 2.73 2.96, 4.99 0.36 M-0.26 6.4 C1.41 4.47, 3.09 2.55, 4.99 0.36 M0.13 12.04 C3.56 8.09, 6.99 4.15, 10.63 -0.03 M0.13 12.04 C3.19 8.53, 6.24 5.01, 10.63 -0.03 M-0.13 18.44 C3.96 13.74, 8.05 9.03, 15.62 0.33 M-0.13 18.44 C4.94 12.6, 10.02 6.77, 15.62 0.33 M0.27 24.08 C7.46 15.81, 14.65 7.54, 21.26 -0.07 M0.27 24.08 C7.88 15.32, 15.5 6.56, 21.26 -0.07 M0 30.48 C5.67 23.97, 11.33 17.45, 26.25 0.29 M0 30.48 C9.68 19.35, 19.36 8.21, 26.25 0.29 M-0.26 36.88 C11.1 23.81, 22.46 10.74, 31.89 -0.1 M-0.26 36.88 C12.55 22.15, 25.35 7.42, 31.89 -0.1 M0.14 42.52 C8.08 33.39, 16.01 24.26, 36.88 0.26 M0.14 42.52 C7.79 33.72, 15.44 24.92, 36.88 0.26 M-0.12 48.92 C12.86 33.98, 25.84 19.05, 42.52 -0.14 M-0.12 48.92 C14.89 31.65, 29.89 14.39, 42.52 -0.14 M0.27 54.56 C15.03 37.59, 29.78 20.62, 47.51 0.22 M0.27 54.56 C18.01 34.16, 35.74 13.76, 47.51 0.22 M0.01 60.96 C20.19 37.75, 40.36 14.54, 53.15 -0.17 M0.01 60.96 C16.73 41.73, 33.44 22.5, 53.15 -0.17 M1.72 65.09 C15.58 49.14, 29.44 33.2, 58.14 0.19 M1.72 65.09 C18.17 46.17, 34.62 27.24, 58.14 0.19 M7.36 64.7 C24.41 45.09, 41.46 25.47, 63.78 -0.21 M7.36 64.7 C19.35 50.9, 31.34 37.11, 63.78 -0.21 M12.35 65.06 C30.52 44.15, 48.69 23.24, 64.83 4.68 M12.35 65.06 C31.43 43.1, 50.52 21.14, 64.83 4.68 M17.99 64.66 C28.89 52.12, 39.79 39.58, 64.57 11.08 M17.99 64.66 C32.36 48.14, 46.73 31.61, 64.57 11.08 M22.98 65.02 C32.77 53.76, 42.56 42.5, 64.96 16.72 M22.98 65.02 C34.93 51.28, 46.87 37.53, 64.96 16.72 M28.62 64.63 C38.59 53.15, 48.57 41.68, 64.7 23.12 M28.62 64.63 C39.47 52.15, 50.32 39.67, 64.7 23.12 M33.61 64.99 C43.31 53.83, 53.01 42.67, 64.44 29.52 M33.61 64.99 C43.88 53.17, 54.16 41.35, 64.44 29.52 M39.25 64.59 C48.71 53.71, 58.17 42.83, 64.84 35.16 M39.25 64.59 C44.97 58.02, 50.69 51.44, 64.84 35.16 M44.24 64.95 C50.09 58.22, 55.95 51.48, 64.57 41.56 M44.24 64.95 C49.82 58.53, 55.4 52.11, 64.57 41.56 M49.88 64.56 C55.81 57.74, 61.74 50.91, 64.97 47.2 M49.88 64.56 C55.12 58.53, 60.36 52.5, 64.97 47.2 M54.87 64.92 C57.22 62.21, 59.58 59.5, 64.71 53.6 M54.87 64.92 C57.42 61.99, 59.96 59.06, 64.71 53.6 M60.51 64.53 C61.55 63.33, 62.6 62.12, 64.45 60 M60.51 64.53 C61.61 63.27, 62.7 62.01, 64.45 60" stroke="#4c6ef5" stroke-width="0.5" fill="none"></path><path d="M0 0 C18.54 0, 37.08 0, 64.46 0 M0 0 C16.09 0, 32.18 0, 64.46 0 M64.46 0 C64.46 23.92, 64.46 47.85, 64.46 64.4 M64.46 0 C64.46 24.21, 64.46 48.43, 64.46 64.4 M64.46 64.4 C45.34 64.4, 26.22 64.4, 0 64.4 M64.46 64.4 C45.17 64.4, 25.89 64.4, 0 64.4 M0 64.4 C0 44, 0 23.6, 0 0 M0 64.4 C0 45.34, 0 26.28, 0 0" stroke="#000000" stroke-width="1" fill="none"></path></g><g transform="translate(6 78.77168519803126) rotate(0 45.8399658203125 20)"><text x="45.8399658203125" y="0" font-family="Virgil, Segoe UI Emoji" font-size="16px" fill="#000000" text-anchor="middle" style="white-space: pre;" direction="ltr" dominant-baseline="text-before-edge">AWS</text><text x="45.8399658203125" y="20" font-family="Virgil, Segoe UI Emoji" font-size="16px" fill="#000000" text-anchor="middle" style="white-space: pre;" direction="ltr" dominant-baseline="text-before-edge">CodePipeline</text></g><g stroke-linecap="round" transform="translate(30.580666916895495 23.79849982286379) rotate(0 21.721143655312062 9.347364399404626)"><path d="M4.67 0 C18.27 0, 31.88 0, 38.77 0 M4.67 0 C13.42 0, 22.16 0, 38.77 0 M38.77 0 C41.88 0, 43.44 1.56, 43.44 4.67 M38.77 0 C41.88 0, 43.44 1.56, 43.44 4.67 M43.44 4.67 C43.44 6.84, 43.44 9.01, 43.44 14.02 M43.44 4.67 C43.44 7.51, 43.44 10.34, 43.44 14.02 M43.44 14.02 C43.44 17.14, 41.88 18.69, 38.77 18.69 M43.44 14.02 C43.44 17.14, 41.88 18.69, 38.77 18.69 M38.77 18.69 C28.43 18.69, 18.09 18.69, 4.67 18.69 M38.77 18.69 C28.04 18.69, 17.31 18.69, 4.67 18.69 M4.67 18.69 C1.56 18.69, 0 17.14, 0 14.02 M4.67 18.69 C1.56 18.69, 0 17.14, 0 14.02 M0 14.02 C0 11.65, 0 9.27, 0 4.67 M0 14.02 C0 10.64, 0 7.25, 0 4.67 M0 4.67 C0 1.56, 1.56 0, 4.67 0 M0 4.67 C0 1.56, 1.56 0, 4.67 0" stroke="#ffffff" stroke-width="2" fill="none"></path></g><g stroke-linecap="round" transform="translate(37.282680540382444 42.57288468659149) rotate(0 15.019130031825114 11.12599081677493)"><path d="M0 0 C8.97 0, 17.94 0, 30.04 0 M0 0 C8.19 0, 16.38 0, 30.04 0 M30.04 0 C30.04 5.8, 30.04 11.6, 30.04 22.25 M30.04 0 C30.04 4.88, 30.04 9.75, 30.04 22.25 M30.04 22.25 C24.03 22.25, 18.02 22.25, 0 22.25 M30.04 22.25 C22.59 22.25, 15.13 22.25, 0 22.25 M0 22.25 C0 14.57, 0 6.89, 0 0 M0 22.25 C0 17.36, 0 12.48, 0 0" stroke="#ffffff" stroke-width="2" fill="none"></path></g><g stroke-linecap="round"><g transform="translate(30.63468373244234 36.817204314071034) rotate(0 8.236987092691777 0)"><path d="M0 0 C5.46 0, 10.93 0, 16.47 0 M0 0 C4.41 0, 8.83 0, 16.47 0" stroke="#ffffff" stroke-width="2" fill="none"></path></g></g><mask></mask><g stroke-linecap="round"><g transform="translate(57.460112883776674 36.83344632670452) rotate(0 8.236987092691777 0)"><path d="M0 0 C5.46 0, 10.93 0, 16.47 0 M0 0 C4.41 0, 8.83 0, 16.47 0" stroke="#ffffff" stroke-width="2" fill="none"></path></g></g><mask></mask><g stroke-linecap="round"><g transform="translate(50.93420157689121 36.817204314071034) rotate(0 1.350183823910072 0)"><path d="M0 0 C0.9 0, 1.79 0, 2.7 0 M0 0 C0.72 0, 1.45 0, 2.7 0" stroke="#ffffff" stroke-width="2" fill="none"></path></g></g><mask></mask><g transform="translate(38.438619831025335 44.23493729071936) rotate(0 13.863190741182223 9.463938212647065)"><text x="0" y="0" font-family="Cascadia, Segoe UI Emoji" font-size="15.773230354411773px" fill="#ffffff" text-anchor="start" style="white-space: pre;" direction="ltr" dominant-baseline="text-before-edge">&lt;/&gt;</text></g></svg>