<svg version="1.1" xmlns="http://www.w3.org/2000/svg" viewBox="0 0 110.22000885009766 129.37690657739222" width="110.22000885009766" height="129.37690657739222">
  <!-- svg-source:excalidraw -->
  
  <defs>
    
    
  </defs>
  <g transform="translate(6 75.37690657739222) rotate(0 49.11000442504883 24)"><text x="49.11000442504883" y="0" font-family="Virgil, Segoe UI Emoji" font-size="20px" fill="#000000" text-anchor="middle" style="white-space: pre;" direction="ltr" dominant-baseline="text-before-edge">Migration</text><text x="49.11000442504883" y="24" font-family="Virgil, Segoe UI Emoji" font-size="20px" fill="#000000" text-anchor="middle" style="white-space: pre;" direction="ltr" dominant-baseline="text-before-edge">Evaluator</text></g><g stroke-linecap="round" transform="translate(22.569583892822266 6) rotate(0 32.54042053222656 32.54042053222656)"><path d="M0 0 C0 0, 0 0, 0 0 M0 0 C0 0, 0 0, 0 0 M0.13 12.04 C3.46 8.21, 6.79 4.38, 10.63 -0.03 M0.13 12.04 C3.66 7.98, 7.18 3.93, 10.63 -0.03 M0.27 24.08 C5.12 18.5, 9.97 12.92, 21.26 -0.07 M0.27 24.08 C8.33 14.81, 16.39 5.53, 21.26 -0.07 M-0.26 36.88 C6.5 29.11, 13.25 21.34, 31.89 -0.1 M-0.26 36.88 C9.53 25.61, 19.32 14.35, 31.89 -0.1 M-0.12 48.92 C9.76 37.55, 19.65 26.17, 42.52 -0.14 M-0.12 48.92 C10.22 37.02, 20.55 25.13, 42.52 -0.14 M0.01 60.96 C12.2 46.93, 24.4 32.9, 53.15 -0.17 M0.01 60.96 C19.83 38.15, 39.66 15.35, 53.15 -0.17 M6.7 65.45 C26.39 42.81, 46.08 20.16, 63.78 -0.21 M6.7 65.45 C29.48 39.26, 52.25 13.06, 63.78 -0.21 M17.33 65.42 C31.02 49.68, 44.7 33.94, 65.88 9.57 M17.33 65.42 C34.17 46.05, 51.02 26.67, 65.88 9.57 M27.96 65.38 C41.62 49.67, 55.28 33.96, 66.02 21.61 M27.96 65.38 C38.03 53.81, 48.09 42.23, 66.02 21.61 M38.59 65.35 C45.67 57.21, 52.74 49.07, 65.49 34.41 M38.59 65.35 C44.44 58.62, 50.29 51.9, 65.49 34.41 M49.22 65.31 C54.17 59.62, 59.12 53.93, 65.63 46.45 M49.22 65.31 C55.55 58.03, 61.88 50.75, 65.63 46.45 M59.85 65.28 C61.97 62.85, 64.08 60.42, 65.76 58.49 M59.85 65.28 C61.4 63.5, 62.95 61.72, 65.76 58.49 M0.23 65.28 C0.23 65.28, 0.23 65.28, 0.23 65.28 M0.23 65.28 C0.23 65.28, 0.23 65.28, 0.23 65.28 M12.27 65.15 C8.17 61.58, 4.06 58.01, 0.19 54.65 M12.27 65.15 C8.12 61.54, 3.97 57.93, 0.19 54.65 M24.31 65.01 C17.54 59.13, 10.78 53.25, 0.16 44.02 M24.31 65.01 C17.95 59.49, 11.59 53.96, 0.16 44.02 M36.35 64.88 C26.49 56.31, 16.63 47.74, 0.13 33.39 M36.35 64.88 C28.68 58.21, 21 51.54, 0.13 33.39 M49.15 65.4 C36.08 54.04, 23 42.68, 0.09 22.76 M49.15 65.4 C34.79 52.92, 20.43 40.44, 0.09 22.76 M61.19 65.27 C48.54 54.28, 35.9 43.29, 0.06 12.13 M61.19 65.27 C48.86 54.55, 36.53 43.84, 0.06 12.13 M64.93 57.92 C46.55 41.94, 28.16 25.96, 0.02 1.5 M64.93 57.92 C43.85 39.6, 22.78 21.28, 0.02 1.5 M65.65 47.95 C49.74 34.12, 33.83 20.29, 9.8 -0.6 M65.65 47.95 C46.99 31.73, 28.33 15.5, 9.8 -0.6 M65.61 37.32 C54.52 27.67, 43.43 18.03, 21.84 -0.74 M65.61 37.32 C53.1 26.44, 40.59 15.56, 21.84 -0.74 M65.58 26.69 C58.09 20.18, 50.6 13.67, 33.88 -0.87 M65.58 26.69 C58.72 20.73, 51.87 14.77, 33.88 -0.87 M65.54 16.06 C59.14 10.49, 52.74 4.93, 46.68 -0.35 M65.54 16.06 C61.04 12.14, 56.54 8.23, 46.68 -0.35 M65.51 5.43 C63.61 3.77, 61.7 2.12, 58.72 -0.48 M65.51 5.43 C63.19 3.41, 60.88 1.4, 58.72 -0.48" stroke="#7eddd2" stroke-width="1" fill="none"></path><path d="M0 0 C19.63 0, 39.25 0, 65.08 0 M0 0 C14.78 0, 29.57 0, 65.08 0 M65.08 0 C65.08 14.89, 65.08 29.78, 65.08 65.08 M65.08 0 C65.08 13.41, 65.08 26.82, 65.08 65.08 M65.08 65.08 C51.61 65.08, 38.14 65.08, 0 65.08 M65.08 65.08 C39.22 65.08, 13.35 65.08, 0 65.08 M0 65.08 C0 43.42, 0 21.76, 0 0 M0 65.08 C0 42.46, 0 19.84, 0 0" stroke="#000000" stroke-width="2" fill="none"></path></g><g stroke-linecap="round"><g transform="translate(25.610004425048828 38.09569691413344) rotate(0 29.5 0.44472361809039285)"><path d="M0 0 C7.82 -3.46, 15.63 -6.92, 20.75 -9.19 M0 0 C7.51 -3.33, 15.03 -6.65, 20.75 -9.19 M20.75 -9.19 C23.35 -15.41, 25.95 -21.63, 29.06 -29.06 M20.75 -9.19 C23.72 -16.29, 26.69 -23.38, 29.06 -29.06 M29.06 -29.06 C31.62 -23.53, 34.18 -18.01, 38.54 -8.6 M29.06 -29.06 C31 -24.86, 32.94 -20.67, 38.54 -8.6 M38.54 -8.6 C45.06 -5.86, 51.57 -3.12, 59 0 M38.54 -8.6 C42.69 -6.86, 46.83 -5.11, 59 0 M59 0 C54.12 2.01, 49.23 4.02, 38.84 8.3 M59 0 C54.51 1.85, 50.02 3.7, 38.84 8.3 M38.84 8.3 C35.03 16.73, 31.22 25.16, 29.06 29.94 M38.84 8.3 C36.8 12.8, 34.77 17.31, 29.06 29.94 M29.06 29.94 C27.04 25.17, 25.02 20.4, 20.16 8.89 M29.06 29.94 C25.77 22.17, 22.48 14.39, 20.16 8.89 M20.16 8.89 C12.27 5.41, 4.38 1.93, 0 0 M20.16 8.89 C14.46 6.38, 8.76 3.87, 0 0" stroke="#000000" stroke-width="2" fill="none"></path></g></g><mask></mask><g stroke-linecap="round" transform="translate(49.625079801933225 33.64846073323133) rotate(0 4.891959798995003 4.891959798994776)"><path d="M9.78 4.89 C9.78 5.18, 9.76 5.46, 9.71 5.74 C9.66 6.02, 9.59 6.3, 9.49 6.57 C9.39 6.83, 9.27 7.09, 9.13 7.34 C8.99 7.58, 8.82 7.82, 8.64 8.04 C8.46 8.25, 8.25 8.46, 8.04 8.64 C7.82 8.82, 7.58 8.99, 7.34 9.13 C7.09 9.27, 6.83 9.39, 6.57 9.49 C6.3 9.59, 6.02 9.66, 5.74 9.71 C5.46 9.76, 5.18 9.78, 4.89 9.78 C4.61 9.78, 4.32 9.76, 4.04 9.71 C3.76 9.66, 3.48 9.59, 3.22 9.49 C2.95 9.39, 2.69 9.27, 2.45 9.13 C2.2 8.99, 1.96 8.82, 1.75 8.64 C1.53 8.46, 1.33 8.25, 1.14 8.04 C0.96 7.82, 0.8 7.58, 0.66 7.34 C0.51 7.09, 0.39 6.83, 0.3 6.57 C0.2 6.3, 0.12 6.02, 0.07 5.74 C0.03 5.46, 0 5.18, 0 4.89 C0 4.61, 0.03 4.32, 0.07 4.04 C0.12 3.76, 0.2 3.48, 0.3 3.22 C0.39 2.95, 0.51 2.69, 0.66 2.45 C0.8 2.2, 0.96 1.96, 1.14 1.75 C1.33 1.53, 1.53 1.33, 1.75 1.14 C1.96 0.96, 2.2 0.8, 2.45 0.66 C2.69 0.51, 2.95 0.39, 3.22 0.3 C3.48 0.2, 3.76 0.12, 4.04 0.07 C4.32 0.03, 4.61 0, 4.89 0 C5.18 0, 5.46 0.03, 5.74 0.07 C6.02 0.12, 6.3 0.2, 6.57 0.3 C6.83 0.39, 7.09 0.51, 7.34 0.66 C7.58 0.8, 7.82 0.96, 8.04 1.14 C8.25 1.33, 8.46 1.53, 8.64 1.75 C8.82 1.96, 8.99 2.2, 9.13 2.45 C9.27 2.69, 9.39 2.95, 9.49 3.22 C9.59 3.48, 9.66 3.76, 9.71 4.04 C9.76 4.32, 9.77 4.75, 9.78 4.89 C9.8 5.03, 9.8 4.75, 9.78 4.89" stroke="#000000" stroke-width="2" fill="none"></path></g><g stroke-linecap="round"><g transform="translate(39.24819537982239 31.573083848808892) rotate(0 2.0753768844220986 -6.967336683417216)"><path d="M0 0 C-1.02 -2.83, -2.05 -5.67, -5.04 -13.93 M0 0 C-1.54 -4.26, -3.08 -8.52, -5.04 -13.93 M-5.04 -13.93 C-1.52 -12.47, 2.01 -11, 9.19 -8.01 M-5.04 -13.93 C-0.36 -11.98, 4.32 -10.03, 9.19 -8.01" stroke="#000000" stroke-width="2" fill="none"></path></g></g><mask></mask><g stroke-linecap="round"><g transform="translate(70.37884864615444 31.721325054837507) rotate(0 -2.0753768844220986 -7.115577889447195)"><path d="M0 0 C1.85 -5.23, 3.71 -10.46, 5.04 -14.23 M0 0 C1.68 -4.73, 3.35 -9.46, 5.04 -14.23 M5.04 -14.23 C1.7 -12.84, -1.65 -11.45, -9.19 -8.3 M5.04 -14.23 C0.83 -12.48, -3.38 -10.72, -9.19 -8.3" stroke="#000000" stroke-width="2" fill="none"></path></g></g><mask></mask><g stroke-linecap="round"><g transform="translate(42.80598432454599 58.99770696438645) rotate(180 -2.0753768844220986 -7.560301507537588)"><path d="M0 0 C1.06 -3.17, 2.11 -6.34, 5.04 -15.12 M0 0 C2.01 -6.03, 4.02 -12.07, 5.04 -15.12 M5.04 -15.12 C1.94 -13.83, -1.16 -12.54, -9.19 -9.19 M5.04 -15.12 C2.19 -13.93, -0.65 -12.75, -9.19 -9.19" stroke="#000000" stroke-width="2" fill="none"></path></g></g><mask></mask><g stroke-linecap="round"><g transform="translate(66.82105970143084 58.99770696438645) rotate(180 1.482412060301499 -7.263819095477174)"><path d="M0 0 C-1.81 -4.67, -3.62 -9.34, -5.63 -14.53 M0 0 C-1.94 -4.99, -3.87 -9.98, -5.63 -14.53 M-5.63 -14.53 C-0.17 -12.25, 5.29 -9.97, 8.6 -8.6 M-5.63 -14.53 C-1.56 -12.83, 2.51 -11.14, 8.6 -8.6" stroke="#000000" stroke-width="2" fill="none"></path></g></g><mask></mask></svg>