<svg xmlns="http://www.w3.org/2000/svg" viewBox="1647.26 3406.87 123.24 106.11" width="123" height="106"><rect x="1677.03" y="3412.87" width="64.46" height="64.40" rx="0" stroke="#000000" stroke-width="2" opacity="1.0" fill="none"/><text x="1704.38" y="3450.57" font-size="14.93448697097079" fill="#000000" opacity="1.0" font-family="sans-serif">&lt;/&gt;</text><ellipse cx="1687.81" cy="3460.01" rx="3.97" ry="3.97" stroke="#000000" stroke-width="2" opacity="1.0" fill="none" transform="rotate(325.35 1687.81 3460.01)"/><ellipse cx="1687.63" cy="3423.27" rx="3.97" ry="3.97" stroke="#000000" stroke-width="2" opacity="1.0" fill="none" transform="rotate(325.35 1687.63 3423.27)"/><ellipse cx="1687.51" cy="3442.00" rx="3.97" ry="3.97" stroke="#000000" stroke-width="2" opacity="1.0" fill="none" transform="rotate(325.35 1687.51 3442.00)"/><polyline points="1690.60,3446.91 1684.99,3455.17" fill="none" stroke="#000000" stroke-width="2" opacity="1.0" stroke-linecap="round" stroke-linejoin="round" transform="rotate(325.35 1693.40 3451.04)"/><polyline points="1690.76,3427.89 1685.15,3436.15" fill="none" stroke="#000000" stroke-width="2" opacity="1.0" stroke-linecap="round" stroke-linejoin="round" transform="rotate(325.35 1693.56 3432.02)"/><polyline points="1702.64,3429.39 1702.62,3424.21 1732.04,3423.93 1732.22,3467.02 1702.50,3467.22 1702.47,3455.90" fill="#ff00" stroke="#000" stroke-width="2" opacity="1.0" stroke-linecap="round" stroke-linejoin="round"/><ellipse cx="1702.87" cy="3437.88" rx="3.97" ry="3.97" stroke="#000000" stroke-width="2" opacity="1.0" fill="none" transform="rotate(325.35 1702.87 3437.88)"/><polyline points="1691.31,3457.39 1702.87,3448.59" fill="none" stroke="#000000" stroke-width="2" opacity="1.0" stroke-linecap="round" stroke-linejoin="round"/><polyline points="1702.87,3442.54 1702.87,3448.04" fill="none" stroke="#000000" stroke-width="2" opacity="1.0" stroke-linecap="round" stroke-linejoin="round"/><polyline points="1695.81,3426.12 1693.04,3429.66 1689.92,3426.45" fill="none" stroke="#000000" stroke-width="2" opacity="1.0" stroke-linecap="round" stroke-linejoin="round" transform="rotate(135.34 1698.75 3427.89)"/><polyline points="1700.67,3434.72 1690.76,3425.92" fill="none" stroke="#000000" stroke-width="2" opacity="1.0" stroke-linecap="round" stroke-linejoin="round"/><text x="1653.26" y="3502.98" font-size="20" fill="#000000" opacity="1.0" font-family="sans-serif">CodeCommit</text></svg>