<svg xmlns="http://www.w3.org/2000/svg" viewBox="574.40 1024.45 76.08 103.91" width="76" height="104"><text x="590.94" y="1118.35" font-size="20" fill="#000000" opacity="1.0" font-family="sans-serif">EMR</text><rect x="580.40" y="1030.45" width="64.08" height="64.08" rx="0" stroke="#000000" stroke-width="2" opacity="1.0" fill="none"/><ellipse cx="600.87" cy="1062.71" rx="9.42" ry="9.42" stroke="#000000" stroke-width="2" opacity="1.0" fill="none"/><ellipse cx="615.13" cy="1044.68" rx="3.77" ry="3.77" stroke="#000000" stroke-width="2" opacity="1.0" fill="none"/><ellipse cx="630.20" cy="1053.29" rx="3.77" ry="3.77" stroke="#000000" stroke-width="2" opacity="1.0" fill="none"/><ellipse cx="630.20" cy="1071.05" rx="3.77" ry="3.77" stroke="#000000" stroke-width="2" opacity="1.0" fill="none"/><ellipse cx="615.13" cy="1079.66" rx="3.77" ry="3.77" stroke="#000000" stroke-width="2" opacity="1.0" fill="none"/><polyline points="617.28,1048.45 627.51,1067.82" fill="none" stroke="#000000" stroke-width="2" opacity="1.0" stroke-linecap="round" stroke-linejoin="round"/><polyline points="627.77,1057.06 617.55,1076.43" fill="none" stroke="#000000" stroke-width="2" opacity="1.0" stroke-linecap="round" stroke-linejoin="round"/><polyline points="607.06,1054.90 612.44,1047.37" fill="none" stroke="#000000" stroke-width="2" opacity="1.0" stroke-linecap="round" stroke-linejoin="round"/><polyline points="607.59,1069.97 611.90,1077.50" fill="none" stroke="#000000" stroke-width="2" opacity="1.0" stroke-linecap="round" stroke-linejoin="round" transform="rotate(354.47 609.75 1073.74)"/><polyline points="609.75,1059.75 626.43,1054.90" fill="none" stroke="#000000" stroke-width="2" opacity="1.0" stroke-linecap="round" stroke-linejoin="round"/><polyline points="610.29,1066.20 626.97,1070.51" fill="none" stroke="#000000" stroke-width="2" opacity="1.0" stroke-linecap="round" stroke-linejoin="round" transform="rotate(2.77 618.63 1068.36)"/><polyline points="601.14,1058.67 601.14,1066.20" fill="none" stroke="#000000" stroke-width="2" opacity="1.0" stroke-linecap="round" stroke-linejoin="round"/><polyline points="601.14,1058.67 601.14,1066.20" fill="none" stroke="#000000" stroke-width="2" opacity="1.0" stroke-linecap="round" stroke-linejoin="round" transform="rotate(91.64 601.14 1062.44)"/></svg>