<svg version="1.1" xmlns="http://www.w3.org/2000/svg" viewBox="0 0 77.08084106445301 106.17024460272296" width="77.08084106445301" height="106.17024460272296">
  <!-- svg-source:excalidraw -->
  
  <defs>
    
    
  </defs>
  <g transform="translate(19.98042106628418 76.17024460272296) rotate(0 18.559999465942383 12)"><text x="18.559999465942383" y="0" font-family="Virgil, Segoe UI Emoji" font-size="20px" fill="#000000" text-anchor="middle" style="white-space: pre;" direction="ltr" dominant-baseline="text-before-edge">EFS</text></g><g stroke-linecap="round" transform="translate(6 6) rotate(0 32.540420532226506 32.54042053222656)"><path d="M0 0 C0 0, 0 0, 0 0 M0 0 C0 0, 0 0, 0 0 M0.13 12.04 C3.04 8.69, 5.95 5.35, 10.63 -0.03 M0.13 12.04 C3.6 8.06, 7.06 4.07, 10.63 -0.03 M0.27 24.08 C4.95 18.69, 9.64 13.29, 21.26 -0.07 M0.27 24.08 C6.67 16.72, 13.06 9.36, 21.26 -0.07 M-0.26 36.88 C12.59 22.1, 25.43 7.33, 31.89 -0.1 M-0.26 36.88 C9.27 25.92, 18.8 14.96, 31.89 -0.1 M-0.12 48.92 C9.04 38.38, 18.19 27.85, 42.52 -0.14 M-0.12 48.92 C13.46 33.3, 27.04 17.68, 42.52 -0.14 M0.01 60.96 C12.42 46.69, 24.82 32.42, 53.15 -0.17 M0.01 60.96 C11.44 47.81, 22.86 34.67, 53.15 -0.17 M6.7 65.45 C19.76 50.44, 32.81 35.42, 63.78 -0.21 M6.7 65.45 C27.11 41.98, 47.52 18.5, 63.78 -0.21 M17.33 65.42 C33.62 46.68, 49.91 27.94, 65.88 9.57 M17.33 65.42 C29.05 51.94, 40.77 38.46, 65.88 9.57 M27.96 65.38 C39.52 52.09, 51.08 38.79, 66.02 21.61 M27.96 65.38 C42.54 48.62, 57.11 31.86, 66.02 21.61 M38.59 65.35 C45.36 57.57, 52.12 49.79, 65.49 34.41 M38.59 65.35 C47.11 55.55, 55.63 45.75, 65.49 34.41 M49.22 65.31 C54.44 59.32, 59.65 53.32, 65.63 46.45 M49.22 65.31 C54.01 59.81, 58.79 54.31, 65.63 46.45 M59.85 65.28 C61.13 63.81, 62.41 62.34, 65.76 58.49 M59.85 65.28 C61.44 63.46, 63.02 61.64, 65.76 58.49 M0.23 65.28 C0.23 65.28, 0.23 65.28, 0.23 65.28 M0.23 65.28 C0.23 65.28, 0.23 65.28, 0.23 65.28 M12.27 65.15 C9.21 62.49, 6.15 59.83, 0.19 54.65 M12.27 65.15 C8.53 61.9, 4.79 58.65, 0.19 54.65 M24.31 65.01 C17.82 59.37, 11.32 53.72, 0.16 44.02 M24.31 65.01 C18.87 60.28, 13.42 55.55, 0.16 44.02 M36.35 64.88 C26.35 56.19, 16.35 47.49, 0.13 33.39 M36.35 64.88 C24.05 54.18, 11.74 43.49, 0.13 33.39 M49.15 65.4 C36.55 54.45, 23.95 43.5, 0.09 22.76 M49.15 65.4 C38.15 55.85, 27.16 46.29, 0.09 22.76 M61.19 65.27 C37.58 44.75, 13.97 24.23, 0.06 12.13 M61.19 65.27 C46.29 52.32, 31.4 39.37, 0.06 12.13 M64.93 57.92 C46.41 41.82, 27.89 25.72, 0.02 1.5 M64.93 57.92 C48.52 43.66, 32.11 29.4, 0.02 1.5 M65.65 47.95 C44.72 29.75, 23.78 11.55, 9.8 -0.6 M65.65 47.95 C43.72 28.88, 21.79 9.82, 9.8 -0.6 M65.61 37.32 C51.28 24.85, 36.94 12.39, 21.84 -0.74 M65.61 37.32 C48.63 22.55, 31.65 7.79, 21.84 -0.74 M65.58 26.69 C58.54 20.57, 51.5 14.45, 33.88 -0.87 M65.58 26.69 C54.69 17.22, 43.79 7.75, 33.88 -0.87 M65.54 16.06 C58.08 9.57, 50.62 3.08, 46.68 -0.35 M65.54 16.06 C60.98 12.09, 56.41 8.12, 46.68 -0.35 M65.51 5.43 C62.81 3.08, 60.12 0.74, 58.72 -0.48 M65.51 5.43 C63.2 3.42, 60.9 1.42, 58.72 -0.48" stroke="#40c05788" stroke-width="1" fill="none"></path><path d="M0 0 C18.4 0, 36.8 0, 65.08 0 M0 0 C22.54 0, 45.08 0, 65.08 0 M65.08 0 C65.08 18.59, 65.08 37.18, 65.08 65.08 M65.08 0 C65.08 23.53, 65.08 47.06, 65.08 65.08 M65.08 65.08 C42.41 65.08, 19.74 65.08, 0 65.08 M65.08 65.08 C39.71 65.08, 14.34 65.08, 0 65.08 M0 65.08 C0 39.13, 0 13.18, 0 0 M0 65.08 C0 49.06, 0 33.04, 0 0" stroke="#000000" stroke-width="2" fill="none"></path></g><g stroke-linecap="round"><g transform="translate(56.277981367616576 45.078630522104504) rotate(0 -18.06240397794886 -12.012265419551568)"><path d="M0 0 C0.54 -1.37, 3.22 -6.11, 3.26 -8.23 C3.31 -10.35, 1.39 -11.82, 0.28 -12.74 C-0.83 -13.66, -2.7 -13.48, -3.38 -13.76 C-4.05 -14.05, -3.6 -13.84, -3.79 -14.45 C-3.98 -15.07, -3.84 -16.74, -4.54 -17.47 C-5.24 -18.21, -6.89 -18.99, -7.99 -18.89 C-9.08 -18.79, -10.55 -17.18, -11.13 -16.9 C-11.71 -16.62, -10.61 -16.31, -11.47 -17.21 C-12.34 -18.12, -14.32 -21.11, -16.31 -22.35 C-18.3 -23.58, -21.1 -24.72, -23.4 -24.62 C-25.69 -24.52, -28.43 -23.42, -30.07 -21.74 C-31.71 -20.05, -32.63 -15.92, -33.24 -14.52 C-33.85 -13.12, -32.85 -14.03, -33.73 -13.32 C-34.62 -12.61, -37.61 -11.82, -38.56 -10.26 C-39.5 -8.7, -39.91 -5.75, -39.39 -3.98 C-38.86 -2.21, -36.01 -0.38, -35.4 0.37 C-34.79 1.12, -35.73 0.5, -35.73 0.54 C-35.73 0.57, -35.45 0.6, -35.4 0.6 C-35.36 0.59, -35.45 0.52, -35.46 0.51 M0 0 C0.54 -1.37, 3.22 -6.11, 3.26 -8.23 C3.31 -10.35, 1.39 -11.82, 0.28 -12.74 C-0.83 -13.66, -2.7 -13.48, -3.38 -13.76 C-4.05 -14.05, -3.6 -13.84, -3.79 -14.45 C-3.98 -15.07, -3.84 -16.74, -4.54 -17.47 C-5.24 -18.21, -6.89 -18.99, -7.99 -18.89 C-9.08 -18.79, -10.55 -17.18, -11.13 -16.9 C-11.71 -16.62, -10.61 -16.31, -11.47 -17.21 C-12.34 -18.12, -14.32 -21.11, -16.31 -22.35 C-18.3 -23.58, -21.1 -24.72, -23.4 -24.62 C-25.69 -24.52, -28.43 -23.42, -30.07 -21.74 C-31.71 -20.05, -32.63 -15.92, -33.24 -14.52 C-33.85 -13.12, -32.85 -14.03, -33.73 -13.32 C-34.62 -12.61, -37.61 -11.82, -38.56 -10.26 C-39.5 -8.7, -39.91 -5.75, -39.39 -3.98 C-38.86 -2.21, -36.01 -0.38, -35.4 0.37 C-34.79 1.12, -35.73 0.5, -35.73 0.54 C-35.73 0.57, -35.45 0.6, -35.4 0.6 C-35.36 0.59, -35.45 0.52, -35.46 0.51" stroke="#000000" stroke-width="2" fill="none"></path></g></g><mask></mask><g stroke-linecap="round"><g transform="translate(50.56429405359722 41.36263377635987) rotate(0 -13.157762766278609 3.4447178912168965)" fill-rule="evenodd"><path d="M0 0 L0 -2.75 L-14.21 -2.75 L-16.2 -5.47 L-26.35 -5.5 L-26.4 12.38 L0.08 12.39 L0 0" stroke="none" stroke-width="0" fill="#ff00" fill-rule="evenodd"></path><path d="M0 0 C0 -1.03, 0 -2.05, 0 -2.75 M0 0 C0 -1.01, 0 -2.03, 0 -2.75 M0 -2.75 C-4.35 -2.75, -8.69 -2.75, -14.21 -2.75 M0 -2.75 C-4.93 -2.75, -9.87 -2.75, -14.21 -2.75 M-14.21 -2.75 C-14.69 -3.4, -15.17 -4.06, -16.2 -5.47 M-14.21 -2.75 C-14.66 -3.36, -15.11 -3.97, -16.2 -5.47 M-16.2 -5.47 C-18.84 -5.48, -21.47 -5.49, -26.35 -5.5 M-16.2 -5.47 C-18.92 -5.48, -21.64 -5.49, -26.35 -5.5 M-26.35 -5.5 C-26.37 1.22, -26.39 7.94, -26.4 12.38 M-26.35 -5.5 C-26.37 0.64, -26.38 6.78, -26.4 12.38 M-26.4 12.38 C-18.7 12.38, -10.99 12.39, 0.08 12.39 M-26.4 12.38 C-17.99 12.38, -9.58 12.39, 0.08 12.39 M0.08 12.39 C0.06 9.34, 0.04 6.29, 0 0 M0.08 12.39 C0.05 8.02, 0.02 3.64, 0 0 M0 0 C0 0, 0 0, 0 0 M0 0 C0 0, 0 0, 0 0" stroke="#000" stroke-width="2" fill="none"></path></g></g><mask></mask><g stroke-linecap="round"><g transform="translate(50.84573950714275 53.52524648023973) rotate(0 2.1097996146418154 -6.360891903809261)"><path d="M0 0 C1.36 -4.1, 2.72 -8.2, 4.22 -12.72 M0 0 C1.48 -4.46, 2.96 -8.91, 4.22 -12.72 M4.22 -12.72 C3.25 -12.72, 2.28 -12.72, 0 -12.72 M4.22 -12.72 C2.66 -12.72, 1.1 -12.72, 0 -12.72" stroke="#000000" stroke-width="2" fill="none"></path></g></g><mask></mask><g stroke-linecap="round"><g transform="translate(57.47802251506846 56.411262867088226) rotate(347.8150297286332 2.257573518247227 3.404709928329339)"><path d="M0 0 C1.04 1.57, 2.09 3.15, 4.52 6.81 M0 0 C1.38 2.08, 2.76 4.16, 4.52 6.81" stroke="#000000" stroke-width="2" fill="none"></path></g></g><mask></mask><g stroke-linecap="round"><g transform="translate(60.981092609360076 14.2422618996643) rotate(1.7147489031136585 -2.4391109903619963 3.593883090671625)"><path d="M0 0 C-1.94 2.87, -3.89 5.73, -4.88 7.19 M0 0 C-1.85 2.73, -3.7 5.45, -4.88 7.19" stroke="#000000" stroke-width="2" fill="none"></path></g></g><mask></mask><g stroke-linecap="round"><g transform="translate(65.20005209848023 59.55213654212275) rotate(330.3350417630171 -3.5137422719082565 2.5129113875377698)"><path d="M0 0 C-0.62 1.18, -1.25 2.36, -2.66 5.03 M0 0 C-0.77 1.46, -1.54 2.92, -2.66 5.03 M-2.66 5.03 C-4.1 4.04, -5.54 3.05, -7.03 2.03 M-2.66 5.03 C-4 4.11, -5.34 3.19, -7.03 2.03" stroke="#000000" stroke-width="2" fill="none"></path></g></g><mask></mask><g stroke-linecap="round"><g transform="translate(18.10800160729559 13.598570302692679) rotate(142.4753661383674 -3.2403044172251043 2.214370486332882)"><path d="M0 0 C-0.87 1.27, -1.74 2.53, -3.05 4.43 M0 0 C-1.1 1.6, -2.21 3.2, -3.05 4.43 M-3.05 4.43 C-4.25 3.03, -5.44 1.63, -6.48 0.42 M-3.05 4.43 C-4.39 2.87, -5.73 1.3, -6.48 0.42" stroke="#000000" stroke-width="2" fill="none"></path></g></g><mask></mask><g stroke-linecap="round"><g transform="translate(14.889226315471205 14.932267477870482) rotate(347.8150297286332 2.257573518247227 3.404709928329339)"><path d="M0 0 C1.58 2.38, 3.16 4.77, 4.52 6.81 M0 0 C1.1 1.66, 2.2 3.32, 4.52 6.81" stroke="#000000" stroke-width="2" fill="none"></path></g></g><mask></mask><g stroke-linecap="round"><g transform="translate(19.912916744921404 56.16261016666249) rotate(3.9451862290376525 -2.4391109903619963 3.593883090671625)"><path d="M0 0 C-1.49 2.2, -2.98 4.4, -4.88 7.19 M0 0 C-1.69 2.49, -3.39 4.99, -4.88 7.19" stroke="#000000" stroke-width="2" fill="none"></path></g></g><mask></mask><g stroke-linecap="round"><g transform="translate(64.21809230322833 12.80806315359223) rotate(220.82937908555525 -3.2403044172251043 2.214370486332882)"><path d="M0 0 C-0.7 1.02, -1.4 2.04, -3.05 4.43 M0 0 C-1.13 1.63, -2.25 3.27, -3.05 4.43 M-3.05 4.43 C-3.85 3.5, -4.65 2.56, -6.48 0.42 M-3.05 4.43 C-4.34 2.92, -5.63 1.42, -6.48 0.42" stroke="#000000" stroke-width="2" fill="none"></path></g></g><mask></mask><g stroke-linecap="round"><g transform="translate(18.135861529568047 60.416275849616795) rotate(38.039922017610984 -3.2403044172251043 2.214370486332882)"><path d="M0 0 C-0.67 0.98, -1.35 1.95, -3.05 4.43 M0 0 C-0.98 1.42, -1.96 2.85, -3.05 4.43 M-3.05 4.43 C-3.76 3.6, -4.48 2.76, -6.48 0.42 M-3.05 4.43 C-4.13 3.17, -5.2 1.91, -6.48 0.42" stroke="#000000" stroke-width="2" fill="none"></path></g></g><mask></mask></svg>