<svg xmlns="http://www.w3.org/2000/svg" viewBox="1233.87 1160.54 124.94 96.00" width="125" height="96"><text x="1239.87" y="1246.95" font-size="17.89869859992688" fill="#000000" opacity="1.0" font-family="sans-serif">DB Instance</text><rect x="1271.63" y="1172.31" width="42.06" height="42.06" rx="0" stroke="#f08c00" stroke-width="2" opacity="1.0" fill="none"/><polyline points="1276.60,1166.54 1276.60,1171.32" fill="none" stroke="#f08c00" stroke-width="2" opacity="1.0" stroke-linecap="round" stroke-linejoin="round"/><polyline points="1284.63,1166.54 1284.63,1171.32" fill="none" stroke="#f08c00" stroke-width="2" opacity="1.0" stroke-linecap="round" stroke-linejoin="round"/><polyline points="1292.66,1166.54 1292.66,1171.32" fill="none" stroke="#f08c00" stroke-width="2" opacity="1.0" stroke-linecap="round" stroke-linejoin="round"/><polyline points="1300.69,1166.54 1300.69,1171.32" fill="none" stroke="#f08c00" stroke-width="2" opacity="1.0" stroke-linecap="round" stroke-linejoin="round"/><polyline points="1308.71,1166.54 1308.71,1171.32" fill="none" stroke="#f08c00" stroke-width="2" opacity="1.0" stroke-linecap="round" stroke-linejoin="round"/><polyline points="1276.60,1215.03 1276.60,1219.81" fill="none" stroke="#f08c00" stroke-width="2" opacity="1.0" stroke-linecap="round" stroke-linejoin="round"/><polyline points="1284.63,1215.03 1284.63,1219.81" fill="none" stroke="#f08c00" stroke-width="2" opacity="1.0" stroke-linecap="round" stroke-linejoin="round"/><polyline points="1292.66,1215.03 1292.66,1219.81" fill="none" stroke="#f08c00" stroke-width="2" opacity="1.0" stroke-linecap="round" stroke-linejoin="round"/><polyline points="1300.69,1215.03 1300.69,1219.81" fill="none" stroke="#f08c00" stroke-width="2" opacity="1.0" stroke-linecap="round" stroke-linejoin="round"/><polyline points="1308.71,1215.03 1308.71,1219.81" fill="none" stroke="#f08c00" stroke-width="2" opacity="1.0" stroke-linecap="round" stroke-linejoin="round"/><polyline points="1317.00,1174.90 1317.00,1179.68" fill="none" stroke="#f08c00" stroke-width="2" opacity="1.0" stroke-linecap="round" stroke-linejoin="round" transform="rotate(89.40 1317.00 1177.29)"/><polyline points="1317.08,1182.92 1317.08,1187.71" fill="none" stroke="#f08c00" stroke-width="2" opacity="1.0" stroke-linecap="round" stroke-linejoin="round" transform="rotate(89.40 1317.08 1185.32)"/><polyline points="1317.17,1190.95 1317.17,1195.73" fill="none" stroke="#f08c00" stroke-width="2" opacity="1.0" stroke-linecap="round" stroke-linejoin="round" transform="rotate(89.40 1317.17 1193.34)"/><polyline points="1317.25,1198.98 1317.25,1203.76" fill="none" stroke="#f08c00" stroke-width="2" opacity="1.0" stroke-linecap="round" stroke-linejoin="round" transform="rotate(89.40 1317.25 1201.37)"/><polyline points="1317.34,1207.01 1317.34,1211.79" fill="none" stroke="#f08c00" stroke-width="2" opacity="1.0" stroke-linecap="round" stroke-linejoin="round" transform="rotate(89.40 1317.34 1209.40)"/><polyline points="1268.00,1174.90 1268.00,1179.68" fill="none" stroke="#f08c00" stroke-width="2" opacity="1.0" stroke-linecap="round" stroke-linejoin="round" transform="rotate(89.40 1268.00 1177.29)"/><polyline points="1268.08,1182.92 1268.08,1187.71" fill="none" stroke="#f08c00" stroke-width="2" opacity="1.0" stroke-linecap="round" stroke-linejoin="round" transform="rotate(89.40 1268.08 1185.32)"/><polyline points="1268.16,1190.95 1268.16,1195.73" fill="none" stroke="#f08c00" stroke-width="2" opacity="1.0" stroke-linecap="round" stroke-linejoin="round" transform="rotate(89.40 1268.16 1193.34)"/><polyline points="1268.25,1198.98 1268.25,1203.76" fill="none" stroke="#f08c00" stroke-width="2" opacity="1.0" stroke-linecap="round" stroke-linejoin="round" transform="rotate(89.40 1268.25 1201.37)"/><polyline points="1268.33,1207.01 1268.33,1211.79" fill="none" stroke="#f08c00" stroke-width="2" opacity="1.0" stroke-linecap="round" stroke-linejoin="round" transform="rotate(89.40 1268.33 1209.40)"/><polyline points="1309.08,1201.07 1309.08,1220.90 1309.39,1224.48 1311.55,1225.80 1314.79,1226.84 1318.24,1227.11 1321.19,1226.84 1323.95,1226.18 1326.71,1224.34 1326.90,1220.90 1327.04,1203.77 1326.82,1200.98 1324.58,1199.50 1322.08,1198.66 1318.82,1198.41 1316.75,1198.42 1312.35,1198.95 1309.08,1201.07" fill="#ffffff" stroke="#f08c00" stroke-width="2" opacity="1.0" stroke-linecap="round" stroke-linejoin="round"/><ellipse cx="1317.98" cy="1200.75" rx="8.97" ry="2.44" stroke="#f08c00" stroke-width="2" opacity="1.0" fill="#ffffff"/></svg>