<svg version="1.1" xmlns="http://www.w3.org/2000/svg" viewBox="0 0 86.05101102941171 88.09604779411757" width="86.05101102941171" height="88.09604779411757">
  <!-- svg-source:excalidraw -->
  
  <defs>
    
    
  </defs>
  <g stroke-linecap="round" transform="translate(6 6) rotate(0 37.025505514705856 38.04802389705878)"><path d="M74.05 38.05 C74.05 40.03, 73.9 42.04, 73.6 44 C73.29 45.96, 72.84 47.92, 72.24 49.81 C71.64 51.69, 70.89 53.55, 70.02 55.32 C69.14 57.09, 68.11 58.81, 66.98 60.41 C65.84 62.02, 64.57 63.55, 63.21 64.95 C61.84 66.35, 60.35 67.66, 58.79 68.83 C57.23 70, 55.55 71.05, 53.83 71.95 C52.11 72.85, 50.3 73.62, 48.47 74.23 C46.63 74.85, 44.72 75.32, 42.82 75.63 C40.91 75.94, 38.96 76.1, 37.03 76.1 C35.09 76.1, 33.14 75.94, 31.23 75.63 C29.33 75.32, 27.42 74.85, 25.58 74.23 C23.75 73.62, 21.94 72.85, 20.22 71.95 C18.5 71.05, 16.82 70, 15.26 68.83 C13.7 67.66, 12.21 66.35, 10.84 64.95 C9.48 63.55, 8.21 62.02, 7.07 60.41 C5.94 58.81, 4.91 57.09, 4.04 55.32 C3.16 53.55, 2.41 51.69, 1.81 49.81 C1.22 47.92, 0.76 45.96, 0.46 44 C0.15 42.04, 0 40.03, 0 38.05 C0 36.06, 0.15 34.06, 0.46 32.1 C0.76 30.14, 1.22 28.18, 1.81 26.29 C2.41 24.4, 3.16 22.54, 4.04 20.77 C4.91 19.01, 5.94 17.29, 7.07 15.68 C8.21 14.08, 9.48 12.55, 10.84 11.14 C12.21 9.74, 13.7 8.43, 15.26 7.27 C16.82 6.1, 18.5 5.05, 20.22 4.15 C21.94 3.25, 23.75 2.48, 25.58 1.86 C27.42 1.25, 29.33 0.78, 31.23 0.47 C33.14 0.16, 35.09 0, 37.03 0 C38.96 0, 40.91 0.16, 42.82 0.47 C44.72 0.78, 46.63 1.25, 48.47 1.86 C50.3 2.48, 52.11 3.25, 53.83 4.15 C55.55 5.05, 57.23 6.1, 58.79 7.27 C60.35 8.43, 61.84 9.74, 63.21 11.14 C64.57 12.55, 65.84 14.08, 66.98 15.68 C68.11 17.29, 69.14 19.01, 70.02 20.77 C70.89 22.54, 71.64 24.4, 72.24 26.29 C72.84 28.18, 73.29 30.14, 73.6 32.1 C73.9 34.06, 73.98 37.06, 74.05 38.05 C74.13 39.04, 74.13 37.06, 74.05 38.05" stroke="none" stroke-width="0" fill="#fe4b4b"></path><path d="M74.05 38.05 C74.05 40.03, 73.9 42.04, 73.6 44 C73.29 45.96, 72.84 47.92, 72.24 49.81 C71.64 51.69, 70.89 53.55, 70.02 55.32 C69.14 57.09, 68.11 58.81, 66.98 60.41 C65.84 62.02, 64.57 63.55, 63.21 64.95 C61.84 66.35, 60.35 67.66, 58.79 68.83 C57.23 70, 55.55 71.05, 53.83 71.95 C52.11 72.85, 50.3 73.62, 48.47 74.23 C46.63 74.85, 44.72 75.32, 42.82 75.63 C40.91 75.94, 38.96 76.1, 37.03 76.1 C35.09 76.1, 33.14 75.94, 31.23 75.63 C29.33 75.32, 27.42 74.85, 25.58 74.23 C23.75 73.62, 21.94 72.85, 20.22 71.95 C18.5 71.05, 16.82 70, 15.26 68.83 C13.7 67.66, 12.21 66.35, 10.84 64.95 C9.48 63.55, 8.21 62.02, 7.07 60.41 C5.94 58.81, 4.91 57.09, 4.04 55.32 C3.16 53.55, 2.41 51.69, 1.81 49.81 C1.22 47.92, 0.76 45.96, 0.46 44 C0.15 42.04, 0 40.03, 0 38.05 C0 36.06, 0.15 34.06, 0.46 32.1 C0.76 30.14, 1.22 28.18, 1.81 26.29 C2.41 24.4, 3.16 22.54, 4.04 20.77 C4.91 19.01, 5.94 17.29, 7.07 15.68 C8.21 14.08, 9.48 12.55, 10.84 11.14 C12.21 9.74, 13.7 8.43, 15.26 7.27 C16.82 6.1, 18.5 5.05, 20.22 4.15 C21.94 3.25, 23.75 2.48, 25.58 1.86 C27.42 1.25, 29.33 0.78, 31.23 0.47 C33.14 0.16, 35.09 0, 37.03 0 C38.96 0, 40.91 0.16, 42.82 0.47 C44.72 0.78, 46.63 1.25, 48.47 1.86 C50.3 2.48, 52.11 3.25, 53.83 4.15 C55.55 5.05, 57.23 6.1, 58.79 7.27 C60.35 8.43, 61.84 9.74, 63.21 11.14 C64.57 12.55, 65.84 14.08, 66.98 15.68 C68.11 17.29, 69.14 19.01, 70.02 20.77 C70.89 22.54, 71.64 24.4, 72.24 26.29 C72.84 28.18, 73.29 30.14, 73.6 32.1 C73.9 34.06, 73.98 37.06, 74.05 38.05 C74.13 39.04, 74.13 37.06, 74.05 38.05" stroke="#fe4b4b" stroke-width="2" fill="none"></path></g><g stroke-linecap="round"><g transform="translate(23.78949628228679 28.561163762755996) rotate(0 19.00945741126975 19.855996285232777)" fill-rule="evenodd"><path d="M0 0 C0.64 5.36, 2.72 25.82, 3.85 32.15 C4.97 38.48, 4.02 36.6, 6.77 37.99 C9.52 39.38, 16.05 40.42, 20.35 40.49 C24.64 40.56, 30.03 39.82, 32.54 38.4 C35.04 36.98, 34.41 38.33, 35.37 31.94 C36.33 25.56, 37.95 5.55, 38.3 0.1 C38.64 -5.36, 43.85 -0.77, 37.42 -0.77 C30.99 -0.78, 6.01 -0.07, -0.28 0.07" stroke="none" stroke-width="0" fill="#fe4b4b" fill-rule="evenodd"></path><path d="M0 0 C0.64 5.36, 2.72 25.82, 3.85 32.15 C4.97 38.48, 4.02 36.6, 6.77 37.99 C9.52 39.38, 16.05 40.42, 20.35 40.49 C24.64 40.56, 30.03 39.82, 32.54 38.4 C35.04 36.98, 34.41 38.33, 35.37 31.94 C36.33 25.56, 37.95 5.55, 38.3 0.1 C38.64 -5.36, 43.85 -0.77, 37.42 -0.77 C30.99 -0.78, 6.01 -0.07, -0.28 0.07 M0 0 C0.64 5.36, 2.72 25.82, 3.85 32.15 C4.97 38.48, 4.02 36.6, 6.77 37.99 C9.52 39.38, 16.05 40.42, 20.35 40.49 C24.64 40.56, 30.03 39.82, 32.54 38.4 C35.04 36.98, 34.41 38.33, 35.37 31.94 C36.33 25.56, 37.95 5.55, 38.3 0.1 C38.64 -5.36, 43.85 -0.77, 37.42 -0.77 C30.99 -0.78, 6.01 -0.07, -0.28 0.07" stroke="#fff" stroke-width="2" fill="none"></path></g></g><mask></mask><g stroke-linecap="round" transform="translate(23.139760013079695 23.34905600799516) rotate(0 19.55281575520837 5.376997727614196)"><path d="M39.11 5.38 C39.11 5.69, 39.01 6, 38.81 6.31 C38.61 6.62, 38.31 6.92, 37.93 7.22 C37.54 7.51, 37.05 7.8, 36.49 8.07 C35.92 8.34, 35.26 8.59, 34.53 8.83 C33.8 9.07, 32.99 9.3, 32.12 9.5 C31.25 9.7, 30.31 9.88, 29.33 10.03 C28.35 10.19, 27.3 10.32, 26.24 10.43 C25.18 10.54, 24.06 10.62, 22.95 10.67 C21.83 10.73, 20.68 10.75, 19.55 10.75 C18.42 10.75, 17.27 10.73, 16.16 10.67 C15.04 10.62, 13.93 10.54, 12.87 10.43 C11.8 10.32, 10.76 10.19, 9.78 10.03 C8.8 9.88, 7.85 9.7, 6.98 9.5 C6.12 9.3, 5.3 9.07, 4.57 8.83 C3.85 8.59, 3.19 8.34, 2.62 8.07 C2.05 7.8, 1.57 7.51, 1.18 7.22 C0.79 6.92, 0.49 6.62, 0.3 6.31 C0.1 6, 0 5.69, 0 5.38 C0 5.07, 0.1 4.75, 0.3 4.44 C0.49 4.14, 0.79 3.83, 1.18 3.54 C1.57 3.25, 2.05 2.96, 2.62 2.69 C3.19 2.42, 3.85 2.16, 4.57 1.92 C5.3 1.68, 6.12 1.46, 6.98 1.26 C7.85 1.06, 8.8 0.88, 9.78 0.72 C10.76 0.56, 11.8 0.43, 12.87 0.32 C13.93 0.22, 15.04 0.14, 16.16 0.08 C17.27 0.03, 18.42 0, 19.55 0 C20.68 0, 21.83 0.03, 22.95 0.08 C24.06 0.14, 25.18 0.22, 26.24 0.32 C27.3 0.43, 28.35 0.56, 29.33 0.72 C30.31 0.88, 31.25 1.06, 32.12 1.26 C32.99 1.46, 33.8 1.68, 34.53 1.92 C35.26 2.16, 35.92 2.42, 36.49 2.69 C37.05 2.96, 37.54 3.25, 37.93 3.54 C38.31 3.83, 38.61 4.14, 38.81 4.44 C39.01 4.75, 39.06 5.22, 39.11 5.38 C39.16 5.53, 39.16 5.22, 39.11 5.38" stroke="none" stroke-width="0" fill="#fe4b4b"></path><path d="M39.11 5.38 C39.11 5.69, 39.01 6, 38.81 6.31 C38.61 6.62, 38.31 6.92, 37.93 7.22 C37.54 7.51, 37.05 7.8, 36.49 8.07 C35.92 8.34, 35.26 8.59, 34.53 8.83 C33.8 9.07, 32.99 9.3, 32.12 9.5 C31.25 9.7, 30.31 9.88, 29.33 10.03 C28.35 10.19, 27.3 10.32, 26.24 10.43 C25.18 10.54, 24.06 10.62, 22.95 10.67 C21.83 10.73, 20.68 10.75, 19.55 10.75 C18.42 10.75, 17.27 10.73, 16.16 10.67 C15.04 10.62, 13.93 10.54, 12.87 10.43 C11.8 10.32, 10.76 10.19, 9.78 10.03 C8.8 9.88, 7.85 9.7, 6.98 9.5 C6.12 9.3, 5.3 9.07, 4.57 8.83 C3.85 8.59, 3.19 8.34, 2.62 8.07 C2.05 7.8, 1.57 7.51, 1.18 7.22 C0.79 6.92, 0.49 6.62, 0.3 6.31 C0.1 6, 0 5.69, 0 5.38 C0 5.07, 0.1 4.75, 0.3 4.44 C0.49 4.14, 0.79 3.83, 1.18 3.54 C1.57 3.25, 2.05 2.96, 2.62 2.69 C3.19 2.42, 3.85 2.16, 4.57 1.92 C5.3 1.68, 6.12 1.46, 6.98 1.26 C7.85 1.06, 8.8 0.88, 9.78 0.72 C10.76 0.56, 11.8 0.43, 12.87 0.32 C13.93 0.22, 15.04 0.14, 16.16 0.08 C17.27 0.03, 18.42 0, 19.55 0 C20.68 0, 21.83 0.03, 22.95 0.08 C24.06 0.14, 25.18 0.22, 26.24 0.32 C27.3 0.43, 28.35 0.56, 29.33 0.72 C30.31 0.88, 31.25 1.06, 32.12 1.26 C32.99 1.46, 33.8 1.68, 34.53 1.92 C35.26 2.16, 35.92 2.42, 36.49 2.69 C37.05 2.96, 37.54 3.25, 37.93 3.54 C38.31 3.83, 38.61 4.14, 38.81 4.44 C39.01 4.75, 39.06 5.22, 39.11 5.38 C39.16 5.53, 39.16 5.22, 39.11 5.38" stroke="#fff" stroke-width="2" fill="none"></path></g><g stroke-linecap="round" transform="translate(40.267964515283666 39.49002323524621) rotate(0 2.349090576171875 2.349090576171875)"><path d="M4.7 2.35 C4.7 2.49, 4.69 2.62, 4.66 2.76 C4.64 2.89, 4.6 3.02, 4.56 3.15 C4.51 3.28, 4.45 3.41, 4.38 3.52 C4.32 3.64, 4.24 3.75, 4.15 3.86 C4.06 3.96, 3.96 4.06, 3.86 4.15 C3.75 4.24, 3.64 4.32, 3.52 4.38 C3.41 4.45, 3.28 4.51, 3.15 4.56 C3.02 4.6, 2.89 4.64, 2.76 4.66 C2.62 4.69, 2.49 4.7, 2.35 4.7 C2.21 4.7, 2.08 4.69, 1.94 4.66 C1.81 4.64, 1.67 4.6, 1.55 4.56 C1.42 4.51, 1.29 4.45, 1.17 4.38 C1.06 4.32, 0.94 4.24, 0.84 4.15 C0.73 4.06, 0.64 3.96, 0.55 3.86 C0.46 3.75, 0.38 3.64, 0.31 3.52 C0.25 3.41, 0.19 3.28, 0.14 3.15 C0.1 3.02, 0.06 2.89, 0.04 2.76 C0.01 2.62, 0 2.49, 0 2.35 C0 2.21, 0.01 2.08, 0.04 1.94 C0.06 1.81, 0.1 1.67, 0.14 1.55 C0.19 1.42, 0.25 1.29, 0.31 1.17 C0.38 1.06, 0.46 0.94, 0.55 0.84 C0.64 0.73, 0.73 0.64, 0.84 0.55 C0.94 0.46, 1.06 0.38, 1.17 0.31 C1.29 0.25, 1.42 0.19, 1.55 0.14 C1.67 0.1, 1.81 0.06, 1.94 0.04 C2.08 0.01, 2.21 0, 2.35 0 C2.49 0, 2.62 0.01, 2.76 0.04 C2.89 0.06, 3.02 0.1, 3.15 0.14 C3.28 0.19, 3.41 0.25, 3.52 0.31 C3.64 0.38, 3.75 0.46, 3.86 0.55 C3.96 0.64, 4.06 0.73, 4.15 0.84 C4.24 0.94, 4.32 1.06, 4.38 1.17 C4.45 1.29, 4.51 1.42, 4.56 1.55 C4.6 1.67, 4.64 1.81, 4.66 1.94 C4.69 2.08, 4.69 2.28, 4.7 2.35 C4.7 2.42, 4.7 2.28, 4.7 2.35" stroke="none" stroke-width="0" fill="#fff"></path><path d="M4.7 2.35 C4.7 2.49, 4.69 2.62, 4.66 2.76 C4.64 2.89, 4.6 3.02, 4.56 3.15 C4.51 3.28, 4.45 3.41, 4.38 3.52 C4.32 3.64, 4.24 3.75, 4.15 3.86 C4.06 3.96, 3.96 4.06, 3.86 4.15 C3.75 4.24, 3.64 4.32, 3.52 4.38 C3.41 4.45, 3.28 4.51, 3.15 4.56 C3.02 4.6, 2.89 4.64, 2.76 4.66 C2.62 4.69, 2.49 4.7, 2.35 4.7 C2.21 4.7, 2.08 4.69, 1.94 4.66 C1.81 4.64, 1.67 4.6, 1.55 4.56 C1.42 4.51, 1.29 4.45, 1.17 4.38 C1.06 4.32, 0.94 4.24, 0.84 4.15 C0.73 4.06, 0.64 3.96, 0.55 3.86 C0.46 3.75, 0.38 3.64, 0.31 3.52 C0.25 3.41, 0.19 3.28, 0.14 3.15 C0.1 3.02, 0.06 2.89, 0.04 2.76 C0.01 2.62, 0 2.49, 0 2.35 C0 2.21, 0.01 2.08, 0.04 1.94 C0.06 1.81, 0.1 1.67, 0.14 1.55 C0.19 1.42, 0.25 1.29, 0.31 1.17 C0.38 1.06, 0.46 0.94, 0.55 0.84 C0.64 0.73, 0.73 0.64, 0.84 0.55 C0.94 0.46, 1.06 0.38, 1.17 0.31 C1.29 0.25, 1.42 0.19, 1.55 0.14 C1.67 0.1, 1.81 0.06, 1.94 0.04 C2.08 0.01, 2.21 0, 2.35 0 C2.49 0, 2.62 0.01, 2.76 0.04 C2.89 0.06, 3.02 0.1, 3.15 0.14 C3.28 0.19, 3.41 0.25, 3.52 0.31 C3.64 0.38, 3.75 0.46, 3.86 0.55 C3.96 0.64, 4.06 0.73, 4.15 0.84 C4.24 0.94, 4.32 1.06, 4.38 1.17 C4.45 1.29, 4.51 1.42, 4.56 1.55 C4.6 1.67, 4.64 1.81, 4.66 1.94 C4.69 2.08, 4.69 2.28, 4.7 2.35 C4.7 2.42, 4.7 2.28, 4.7 2.35" stroke="#fff" stroke-width="1" fill="none"></path></g><g stroke-linecap="round"><g transform="translate(42.22863051470608 43.052159926470836) rotate(0 -10.84558823529403 5.2401194852940876)"><path d="M0 0 C-1.7 1.19, -6.57 5.37, -10.18 7.12 C-13.8 8.87, -20.05 11.15, -21.69 10.48 C-23.34 9.81, -20.32 4.35, -20.05 3.12 M0 0 C-1.7 1.19, -6.57 5.37, -10.18 7.12 C-13.8 8.87, -20.05 11.15, -21.69 10.48 C-23.34 9.81, -20.32 4.35, -20.05 3.12" stroke="#fff" stroke-width="2" fill="none"></path></g></g><mask></mask></svg>