<svg version="1.1" xmlns="http://www.w3.org/2000/svg" viewBox="0 0 134.4600067138672 104.60849282287018" width="134.4600067138672" height="104.60849282287018">
  <!-- svg-source:excalidraw -->
  
  <defs>
    
    
  </defs>
  <g transform="translate(6 74.60849282287018) rotate(0 61.230003356933594 12)"><text x="0" y="0" font-family="Virgil, Segoe UI Emoji" font-size="20px" fill="#000000" text-anchor="start" style="white-space: pre;" direction="ltr" dominant-baseline="text-before-edge">DocumentDB</text></g><g stroke-linecap="round" transform="translate(34.68958282470703 6) rotate(0 32.540420532226506 32.54042053222656)"><path d="M0 0 C0 0, 0 0, 0 0 M0 0 C0 0, 0 0, 0 0 M0.13 12.04 C2.57 9.24, 5 6.44, 10.63 -0.03 M0.13 12.04 C4.11 7.47, 8.09 2.89, 10.63 -0.03 M0.27 24.08 C5.22 18.38, 10.18 12.68, 21.26 -0.07 M0.27 24.08 C7.52 15.74, 14.77 7.4, 21.26 -0.07 M-0.26 36.88 C7.26 28.23, 14.78 19.57, 31.89 -0.1 M-0.26 36.88 C6.6 28.99, 13.45 21.11, 31.89 -0.1 M-0.12 48.92 C11.12 35.99, 22.36 23.06, 42.52 -0.14 M-0.12 48.92 C12.09 34.87, 24.29 20.83, 42.52 -0.14 M0.01 60.96 C10.69 48.68, 21.36 36.39, 53.15 -0.17 M0.01 60.96 C13.33 45.64, 26.64 30.32, 53.15 -0.17 M6.7 65.45 C29.19 39.59, 51.67 13.72, 63.78 -0.21 M6.7 65.45 C28.98 39.82, 51.26 14.2, 63.78 -0.21 M17.33 65.42 C36.62 43.24, 55.9 21.05, 65.88 9.57 M17.33 65.42 C32.07 48.47, 46.81 31.51, 65.88 9.57 M27.96 65.38 C35.81 56.36, 43.66 47.33, 66.02 21.61 M27.96 65.38 C40.05 51.48, 52.14 37.58, 66.02 21.61 M38.59 65.35 C49.13 53.23, 59.67 41.11, 65.49 34.41 M38.59 65.35 C44.11 59, 49.62 52.66, 65.49 34.41 M49.22 65.31 C54.71 59.01, 60.19 52.7, 65.63 46.45 M49.22 65.31 C55.77 57.79, 62.31 50.26, 65.63 46.45 M59.85 65.28 C61.97 62.85, 64.09 60.41, 65.76 58.49 M59.85 65.28 C61.67 63.19, 63.5 61.09, 65.76 58.49 M0.23 65.28 C0.23 65.28, 0.23 65.28, 0.23 65.28 M0.23 65.28 C0.23 65.28, 0.23 65.28, 0.23 65.28 M12.27 65.15 C7.74 61.21, 3.21 57.27, 0.19 54.65 M12.27 65.15 C7.6 61.08, 2.92 57.02, 0.19 54.65 M24.31 65.01 C15.94 57.73, 7.56 50.45, 0.16 44.02 M24.31 65.01 C17.14 58.78, 9.97 52.55, 0.16 44.02 M36.35 64.88 C24.55 54.62, 12.75 44.37, 0.13 33.39 M36.35 64.88 C24.22 54.33, 12.08 43.78, 0.13 33.39 M49.15 65.4 C35.79 53.79, 22.42 42.17, 0.09 22.76 M49.15 65.4 C38.04 55.75, 26.93 46.09, 0.09 22.76 M61.19 65.27 C36.89 44.15, 12.6 23.03, 0.06 12.13 M61.19 65.27 C44.91 51.12, 28.63 36.97, 0.06 12.13 M64.93 57.92 C39.22 35.57, 13.51 13.22, 0.02 1.5 M64.93 57.92 C43.16 39, 21.39 20.08, 0.02 1.5 M65.65 47.95 C44.27 29.36, 22.89 10.78, 9.8 -0.6 M65.65 47.95 C53.61 37.48, 41.57 27.01, 9.8 -0.6 M65.61 37.32 C51.38 24.94, 37.14 12.56, 21.84 -0.74 M65.61 37.32 C56.6 29.48, 47.59 21.65, 21.84 -0.74 M65.58 26.69 C53.56 16.24, 41.55 5.8, 33.88 -0.87 M65.58 26.69 C58.05 20.14, 50.52 13.59, 33.88 -0.87 M65.54 16.06 C59.47 10.78, 53.4 5.5, 46.68 -0.35 M65.54 16.06 C60.07 11.29, 54.59 6.53, 46.68 -0.35 M65.51 5.43 C63.55 3.73, 61.6 2.03, 58.72 -0.48 M65.51 5.43 C63.42 3.61, 61.33 1.8, 58.72 -0.48" stroke="#eebefa" stroke-width="1" fill="none"></path><path d="M0 0 C19.44 0, 38.88 0, 65.08 0 M0 0 C16.43 0, 32.85 0, 65.08 0 M65.08 0 C65.08 25.3, 65.08 50.61, 65.08 65.08 M65.08 0 C65.08 24.1, 65.08 48.2, 65.08 65.08 M65.08 65.08 C49.07 65.08, 33.05 65.08, 0 65.08 M65.08 65.08 C47.97 65.08, 30.87 65.08, 0 65.08 M0 65.08 C0 43.27, 0 21.45, 0 0 M0 65.08 C0 48.47, 0 31.85, 0 0" stroke="#000000" stroke-width="2" fill="none"></path></g><g stroke-linecap="round" transform="translate(43.27555804854046 13.903233842507689) rotate(0 16.56167917734348 6.066157658793827)"><path d="M33.12 6.07 C33.12 6.42, 33.04 6.77, 32.87 7.12 C32.71 7.47, 32.45 7.81, 32.12 8.14 C31.8 8.47, 31.38 8.8, 30.9 9.1 C30.43 9.4, 29.86 9.7, 29.25 9.97 C28.63 10.23, 27.94 10.49, 27.21 10.71 C26.47 10.94, 25.67 11.14, 24.84 11.32 C24.01 11.5, 23.13 11.65, 22.23 11.77 C21.33 11.89, 20.38 11.98, 19.44 12.04 C18.49 12.1, 17.52 12.13, 16.56 12.13 C15.6 12.13, 14.63 12.1, 13.69 12.04 C12.74 11.98, 11.8 11.89, 10.9 11.77 C10 11.65, 9.11 11.5, 8.28 11.32 C7.45 11.14, 6.65 10.94, 5.92 10.71 C5.18 10.49, 4.49 10.23, 3.87 9.97 C3.26 9.7, 2.7 9.4, 2.22 9.1 C1.74 8.8, 1.33 8.47, 1 8.14 C0.67 7.81, 0.42 7.47, 0.25 7.12 C0.09 6.77, 0 6.42, 0 6.07 C0 5.72, 0.09 5.36, 0.25 5.01 C0.42 4.67, 0.67 4.32, 1 3.99 C1.33 3.66, 1.74 3.34, 2.22 3.03 C2.7 2.73, 3.26 2.44, 3.87 2.17 C4.49 1.9, 5.18 1.64, 5.92 1.42 C6.65 1.19, 7.45 0.99, 8.28 0.81 C9.11 0.64, 10 0.49, 10.9 0.37 C11.8 0.25, 12.74 0.15, 13.69 0.09 C14.63 0.03, 15.6 0, 16.56 0 C17.52 0, 18.49 0.03, 19.44 0.09 C20.38 0.15, 21.33 0.25, 22.23 0.37 C23.13 0.49, 24.01 0.64, 24.84 0.81 C25.67 0.99, 26.47 1.19, 27.21 1.42 C27.94 1.64, 28.63 1.9, 29.25 2.17 C29.86 2.44, 30.43 2.73, 30.9 3.03 C31.38 3.34, 31.8 3.66, 32.12 3.99 C32.45 4.32, 32.71 4.67, 32.87 5.01 C33.04 5.36, 33.08 5.89, 33.12 6.07 C33.17 6.24, 33.17 5.89, 33.12 6.07" stroke="#000000" stroke-width="2" fill="none"></path></g><g stroke-linecap="round"><g transform="translate(43.606466748375624 20.751539552862596) rotate(0 0.12024014643583314 18.87770299043109)"><path d="M0 0 C0.04 6.29, 0.2 31.46, 0.24 37.76 M0 0 C0.04 6.29, 0.2 31.46, 0.24 37.76" stroke="#000000" stroke-width="2" fill="none"></path></g></g><mask></mask><g stroke-linecap="round"><g transform="translate(76.45607475465431 20.366771084269203) rotate(0 -0.12024014643583314 2.885763514460905)"><path d="M0 0 C-0.04 0.96, -0.2 4.81, -0.24 5.77 M0 0 C-0.04 0.96, -0.2 4.81, -0.24 5.77" stroke="#000000" stroke-width="2" fill="none"></path></g></g><mask></mask><g stroke-linecap="round"><g transform="translate(43.606466748375624 33.88176354366078) rotate(0 12.62521537576606 2.885763514460905)"><path d="M0 0 C0.4 0.36, 1.52 1.56, 2.4 2.16 C3.29 2.77, 4.21 3.17, 5.29 3.61 C6.37 4.05, 7.54 4.49, 8.9 4.81 C10.26 5.13, 11.98 5.37, 13.47 5.53 C14.95 5.69, 16.39 5.81, 17.8 5.77 C19.2 5.73, 20.64 5.53, 21.88 5.29 C23.13 5.05, 24.69 4.49, 25.25 4.33 M0 0 C0.4 0.36, 1.52 1.56, 2.4 2.16 C3.29 2.77, 4.21 3.17, 5.29 3.61 C6.37 4.05, 7.54 4.49, 8.9 4.81 C10.26 5.13, 11.98 5.37, 13.47 5.53 C14.95 5.69, 16.39 5.81, 17.8 5.77 C19.2 5.73, 20.64 5.53, 21.88 5.29 C23.13 5.05, 24.69 4.49, 25.25 4.33" stroke="#000000" stroke-width="2" fill="none"></path></g></g><mask></mask><g stroke-linecap="round"><g transform="translate(43.87099507053381 46.28666260260252) rotate(0 12.62521537576606 2.645283221589125)"><path d="M0 0 C0.4 0.32, 1.52 1.36, 2.4 1.92 C3.29 2.48, 4.21 2.93, 5.29 3.37 C6.37 3.81, 7.54 4.25, 8.9 4.57 C10.26 4.89, 11.94 5.17, 13.47 5.29 C14.99 5.41, 16.63 5.33, 18.04 5.29 C19.44 5.25, 20.68 5.25, 21.88 5.05 C23.09 4.85, 24.69 4.25, 25.25 4.09 M0 0 C0.4 0.32, 1.52 1.36, 2.4 1.92 C3.29 2.48, 4.21 2.93, 5.29 3.37 C6.37 3.81, 7.54 4.25, 8.9 4.57 C10.26 4.89, 11.94 5.17, 13.47 5.29 C14.99 5.41, 16.63 5.33, 18.04 5.29 C19.44 5.25, 20.68 5.25, 21.88 5.05 C23.09 4.85, 24.69 4.25, 25.25 4.09" stroke="#000000" stroke-width="2" fill="none"></path></g></g><mask></mask><g stroke-linecap="round"><g transform="translate(44.039331275544555 58.55504159230077) rotate(0 16.232419768842135 1.442881757230225)"><path d="M0 0 C0.24 0.24, 0.6 0.84, 1.44 1.44 C2.28 2.04, 3.85 3.13, 5.05 3.61 C6.25 4.09, 7.37 4.17, 8.66 4.33 C9.94 4.49, 11.42 4.53, 12.75 4.57 C14.07 4.61, 15.31 4.57, 16.59 4.57 C17.88 4.57, 19.04 4.69, 20.44 4.57 C21.84 4.45, 23.69 4.17, 25.01 3.85 C26.33 3.53, 27.33 3.17, 28.38 2.65 C29.42 2.12, 30.58 1.44, 31.26 0.72 C31.94 0, 32.26 -1.28, 32.46 -1.68 M0 0 C0.24 0.24, 0.6 0.84, 1.44 1.44 C2.28 2.04, 3.85 3.13, 5.05 3.61 C6.25 4.09, 7.37 4.17, 8.66 4.33 C9.94 4.49, 11.42 4.53, 12.75 4.57 C14.07 4.61, 15.31 4.57, 16.59 4.57 C17.88 4.57, 19.04 4.69, 20.44 4.57 C21.84 4.45, 23.69 4.17, 25.01 3.85 C26.33 3.53, 27.33 3.17, 28.38 2.65 C29.42 2.12, 30.58 1.44, 31.26 0.72 C31.94 0, 32.26 -1.28, 32.46 -1.68" stroke="#000000" stroke-width="2" fill="none"></path></g></g><mask></mask><g stroke-linecap="round"><g transform="translate(74.40458875945478 42.93529778096672) rotate(0 8.389929952936143 -0.5486372705640861)"><path d="M0 0 C0 -5.26, 0 -10.52, 0 -13.53 M0 0 C0 -5.01, 0 -10.02, 0 -13.53 M0 -13.53 C2.65 -13.53, 5.31 -13.53, 10.79 -13.53 M0 -13.53 C2.84 -13.53, 5.67 -13.53, 10.79 -13.53 M10.79 -13.53 C12.8 -11.57, 14.8 -9.61, 16.78 -7.68 M10.79 -13.53 C12.32 -12.04, 13.85 -10.55, 16.78 -7.68 M16.78 -7.68 C16.78 -1.91, 16.78 3.86, 16.78 12.44 M16.78 -7.68 C16.78 -2.1, 16.78 3.48, 16.78 12.44 M16.78 12.44 C12.89 12.44, 9 12.44, 0 12.44 M16.78 12.44 C10.42 12.44, 4.06 12.44, 0 12.44 M0 12.44 C0 9.5, 0 6.56, 0 0 M0 12.44 C0 8.14, 0 3.85, 0 0" stroke="#000000" stroke-width="2" fill="none"></path></g></g><mask></mask><g stroke-linecap="round"><g transform="translate(85.19164155608678 29.402245107048657) rotate(0 2.796643317645362 2.996403554619974)"><path d="M0 0 C0 1.22, 0 2.44, 0 5.99 M0 0 C0 1.95, 0 3.9, 0 5.99 M0 5.99 C1.61 5.99, 3.22 5.99, 5.59 5.99 M0 5.99 C1.93 5.99, 3.85 5.99, 5.59 5.99" stroke="#000000" stroke-width="2" fill="none"></path></g></g><mask></mask><g stroke-linecap="round"><g transform="translate(74.10108383786974 51.51196498414538) rotate(0 3.3156253361976837 -12.4730667409342)"><path d="M0 0 C-1.35 0, -2.69 0, -3.47 0 M0 0 C-1.16 0, -2.32 0, -3.47 0 M-3.47 0 C-3.35 -9.44, -3.23 -18.87, -3.16 -24.65 M-3.47 0 C-3.41 -5.31, -3.34 -10.62, -3.16 -24.65 M-3.16 -24.65 C1.06 -24.76, 5.29 -24.88, 7.89 -24.95 M-3.16 -24.65 C0.49 -24.74, 4.14 -24.84, 7.89 -24.95 M7.89 -24.95 C8.67 -24.02, 9.45 -23.1, 10.1 -22.32 M7.89 -24.95 C8.46 -24.27, 9.03 -23.6, 10.1 -22.32" stroke="#000000" stroke-width="2" fill="none"></path></g></g><mask></mask><g transform="translate(74.96047680258425 35.72327290701287) rotate(0 8.203125 7.7999999999999545)"><text x="8.203125" y="0" font-family="Cascadia, Segoe UI Emoji" font-size="13.504594623307078px" fill="#000000" text-anchor="middle" style="white-space: pre;" direction="ltr" dominant-baseline="text-before-edge">{}</text></g></svg>