<svg xmlns="http://www.w3.org/2000/svg" viewBox="961.38 2493.89 114.34 105.21" width="114" height="105"><text x="967.38" y="2589.10" font-size="20" fill="#000000" opacity="1.0" font-family="sans-serif">Transcribe</text><rect x="986.23" y="2499.89" width="64.64" height="64.64" rx="0" stroke="#000000" stroke-width="2" opacity="1.0" fill="none"/><polyline points="1015.21,2522.99 1015.21,2508.66 1031.13,2508.66 1041.91,2518.06 1041.91,2521.42" fill="none" stroke="#000000" stroke-width="2" opacity="1.0" stroke-linecap="round" stroke-linejoin="round"/><polyline points="1042.27,2529.88 1042.27,2546.39 1028.12,2546.39" fill="none" stroke="#000000" stroke-width="2" opacity="1.0" stroke-linecap="round" stroke-linejoin="round"/><polyline points="1003.79,2551.74 994.83,2555.77 999.31,2546.59" fill="none" stroke="#000000" stroke-width="2" opacity="1.0" stroke-linecap="round" stroke-linejoin="round"/><polyline points="1017.94,2524.61 1014.36,2523.49 1010.10,2523.49 1006.07,2524.38 1003.61,2525.50 1001.15,2527.52 999.36,2529.76 997.34,2533.56 996.89,2537.14 997.12,2540.95 997.79,2543.41 998.91,2545.88" fill="none" stroke="#000000" stroke-width="2" opacity="1.0" stroke-linecap="round" stroke-linejoin="round"/><polyline points="1023.43,2549.23 1019.85,2548.11 1015.59,2548.11 1011.56,2549.01 1009.10,2550.13 1006.64,2552.14 1004.85,2554.38" fill="none" stroke="#000000" stroke-width="2" opacity="1.0" stroke-linecap="round" stroke-linejoin="round" transform="rotate(186.71 1032.72 2552.37)"/><polyline points="1002.03,2534.01 1002.03,2543.12" fill="none" stroke="#000000" stroke-width="2" opacity="1.0" stroke-linecap="round" stroke-linejoin="round"/><polyline points="1008.73,2534.01 1008.73,2543.12" fill="none" stroke="#000000" stroke-width="2" opacity="1.0" stroke-linecap="round" stroke-linejoin="round"/><polyline points="1011.95,2533.20 1011.95,2543.39" fill="#000000" stroke="#000000" stroke-width="2" opacity="1.0" stroke-linecap="round" stroke-linejoin="round"/><polyline points="1015.16,2531.86 1015.16,2545.80" fill="#000000" stroke="#000000" stroke-width="2" opacity="1.0" stroke-linecap="round" stroke-linejoin="round"/><polyline points="1004.17,2536.69 1004.17,2540.71" fill="#000000" stroke="#000000" stroke-width="2" opacity="1.0" stroke-linecap="round" stroke-linejoin="round"/><polyline points="1005.52,2536.54 1005.52,2540.57" fill="#000000" stroke="#000000" stroke-width="2" opacity="1.0" stroke-linecap="round" stroke-linejoin="round"/><polyline points="1017.58,2535.08 1017.58,2542.86" fill="#000000" stroke="#000000" stroke-width="2" opacity="1.0" stroke-linecap="round" stroke-linejoin="round"/><polyline points="1019.43,2534.90 1019.43,2542.68" fill="#000000" stroke="#000000" stroke-width="2" opacity="1.0" stroke-linecap="round" stroke-linejoin="round"/><polyline points="1031.25,2508.66 1031.25,2518.29 1041.68,2518.29" fill="#000000" stroke="#000000" stroke-width="2" opacity="1.0" stroke-linecap="round" stroke-linejoin="round"/><polyline points="1024.93,2526.44 1034.87,2526.44" fill="none" stroke="#000000" stroke-width="2" opacity="1.0" stroke-linecap="round" stroke-linejoin="round"/><polyline points="1020.21,2516.03 1026.82,2516.03" fill="#000000" stroke="#000000" stroke-width="2" opacity="1.0" stroke-linecap="round" stroke-linejoin="round"/><polyline points="1020.78,2521.78 1025.67,2521.78" fill="#000000" stroke="#000000" stroke-width="2" opacity="1.0" stroke-linecap="round" stroke-linejoin="round"/><polyline points="1028.83,2521.78 1036.59,2521.78" fill="#000000" stroke="#000000" stroke-width="2" opacity="1.0" stroke-linecap="round" stroke-linejoin="round"/></svg>