<svg xmlns="http://www.w3.org/2000/svg" viewBox="-1634.19 -280.27 107.21 93.30" width="107" height="93"><polyline points="-1602.23,-241.47 -1602.32,-241.47 -1602.52,-241.47 -1603.18,-241.47 -1604.05,-241.47 -1604.81,-241.47 -1605.58,-241.47 -1606.63,-241.47 -1607.68,-241.47 -1608.64,-241.47 -1609.21,-241.47 -1609.88,-241.47 -1610.45,-241.47 -1611.03,-241.47 -1611.79,-241.47 -1612.56,-241.47 -1613.61,-241.47 -1614.47,-241.56 -1615.24,-241.66 -1616.00,-241.75 -1616.48,-241.85 -1617.15,-241.94 -1618.10,-242.04 -1619.16,-242.23 -1620.11,-242.52 -1621.26,-242.71 -1621.83,-243.09 -1622.41,-243.48 -1622.98,-243.76 -1623.65,-244.24 -1624.03,-244.72 -1624.61,-245.58 -1624.99,-246.15 -1625.56,-247.11 -1625.85,-247.78 -1626.14,-248.83 -1626.23,-249.50 -1626.33,-250.65 -1626.33,-251.32 -1626.33,-251.99 -1626.33,-252.66 -1626.33,-253.33 -1626.04,-253.90 -1625.85,-254.66 -1625.56,-255.14 -1624.89,-256.00 -1624.51,-256.48 -1623.94,-257.06 -1623.46,-257.63 -1622.69,-258.30 -1621.74,-258.87 -1620.88,-259.35 -1620.02,-259.64 -1619.35,-259.92 -1618.49,-260.12 -1617.91,-260.31 -1617.15,-260.50 -1616.38,-260.69 -1615.71,-260.69 -1615.14,-260.69 -1614.85,-260.69 -1614.76,-260.69 -1614.47,-260.59 -1614.28,-260.50 -1614.09,-260.40 -1613.99,-260.31 -1613.90,-260.31 -1613.90,-260.21 -1613.80,-260.21 -1613.61,-260.12 -1613.51,-260.12 -1613.42,-260.12 -1613.42,-260.21 -1613.42,-260.59 -1613.42,-260.79 -1613.42,-260.98 -1613.42,-261.36 -1613.42,-262.03 -1613.32,-262.51 -1613.13,-263.46 -1612.94,-264.23 -1612.84,-264.80 -1612.65,-265.28 -1612.37,-265.76 -1611.98,-266.71 -1611.60,-267.38 -1611.12,-268.05 -1610.64,-268.72 -1609.88,-269.58 -1609.21,-270.25 -1608.25,-271.02 -1607.87,-271.40 -1607.11,-271.97 -1606.34,-272.45 -1605.86,-272.64 -1604.91,-273.03 -1603.85,-273.41 -1602.80,-273.79 -1601.08,-274.08 -1599.36,-274.27 -1597.73,-274.27 -1596.59,-274.27 -1595.25,-274.27 -1594.48,-274.27 -1593.62,-273.98 -1592.95,-273.70 -1592.38,-273.22 -1591.80,-272.84 -1591.13,-272.36 -1590.18,-271.69 -1589.51,-271.11 -1589.03,-270.54 -1588.36,-269.68 -1587.88,-269.01 -1587.60,-268.44 -1586.74,-266.81 -1586.16,-265.76 -1585.78,-265.09 -1585.49,-264.42 -1585.30,-263.85 -1585.01,-263.37 -1584.82,-262.79 -1584.63,-262.32 -1584.44,-262.03 -1584.25,-261.65 -1584.15,-261.36 -1583.96,-261.07 -1583.96,-260.88 -1583.87,-260.69 -1583.87,-260.59 -1583.77,-260.40 -1583.77,-260.31 -1583.77,-260.21 -1583.67,-260.21 -1583.58,-260.31 -1583.29,-260.69 -1582.91,-260.98 -1582.53,-261.26 -1582.14,-261.55 -1581.86,-261.74 -1581.48,-262.03 -1580.90,-262.32 -1580.52,-262.32 -1580.14,-262.51 -1579.66,-262.51 -1579.37,-262.60 -1578.89,-262.70 -1578.22,-262.79 -1577.65,-262.79 -1577.08,-262.79 -1576.31,-262.79 -1575.74,-262.79 -1575.26,-262.70 -1574.40,-262.51 -1573.44,-262.22 -1572.68,-261.93 -1572.29,-261.74 -1572.10,-261.65 -1572.01,-261.45 -1571.72,-261.17 -1571.15,-260.59 -1570.76,-260.31 -1570.48,-260.02 -1570.19,-259.73 -1570.00,-259.35 -1569.71,-259.06 -1569.42,-258.49 -1569.23,-258.01 -1569.04,-257.44 -1568.85,-256.96 -1568.76,-256.48 -1568.56,-255.91 -1568.47,-255.24 -1568.47,-254.76 -1568.47,-253.80 -1568.47,-253.13 -1568.47,-252.94 -1568.56,-252.27 -1568.66,-251.80 -1568.76,-251.51 -1568.76,-251.22 -1568.85,-250.65 -1568.95,-249.69 -1568.95,-249.31 -1569.04,-248.93 -1569.04,-248.45 -1569.04,-247.97 -1569.14,-247.68 -1569.23,-247.30 -1569.33,-246.73 -1569.52,-246.15 -1569.62,-245.77 -1569.71,-245.48 -1569.81,-245.39 -1569.81,-245.20 -1569.90,-245.10 -1569.90,-245.01 -1570.00,-244.81 -1570.09,-244.62 -1570.19,-244.53 -1570.29,-244.43 -1570.38,-244.34 -1570.38,-244.24 -1570.48,-244.14 -1570.57,-243.95 -1570.67,-243.86 -1570.76,-243.76 -1570.86,-243.67 -1570.86,-243.57 -1570.96,-243.57 -1571.05,-243.57 -1571.24,-243.48 -1571.72,-243.28 -1572.01,-243.19 -1572.39,-243.19 -1572.58,-243.09 -1572.96,-243.00 -1573.25,-243.00 -1573.63,-242.90 -1574.21,-242.81 -1574.78,-242.71 -1575.35,-242.61 -1575.93,-242.52 -1576.41,-242.33 -1576.98,-242.33 -1577.36,-242.33 -1577.75,-242.23 -1578.13,-242.14 -1578.61,-242.14 -1579.08,-242.14 -1579.47,-242.04 -1580.04,-241.94 -1580.42,-241.94 -1581.00,-241.85 -1581.57,-241.85 -1582.53,-241.75 -1583.29,-241.75 -1583.96,-241.75 -1584.92,-241.66 -1585.40,-241.66 -1586.35,-241.66 -1587.02,-241.66 -1587.69,-241.66 -1588.27,-241.66 -1588.74,-241.66 -1589.32,-241.66 -1589.80,-241.66 -1590.08,-241.66 -1590.85,-241.66 -1591.42,-241.56 -1591.90,-241.56 -1592.47,-241.56 -1593.05,-241.47 -1593.62,-241.47 -1594.19,-241.47 -1594.77,-241.37 -1595.44,-241.37 -1596.01,-241.37 -1596.59,-241.37 -1597.35,-241.37 -1597.64,-241.37 -1598.02,-241.37 -1598.12,-241.37 -1598.21,-241.37 -1598.40,-241.37 -1598.50,-241.37 -1598.69,-241.37 -1598.79,-241.37 -1598.98,-241.37 -1599.17,-241.28 -1599.26,-241.28 -1599.36,-241.28 -1599.55,-241.28 -1599.65,-241.28 -1599.74,-241.28 -1599.84,-241.28 -1600.03,-241.28 -1600.32,-241.28 -1600.60,-241.28 -1600.70,-241.28 -1600.79,-241.28 -1600.99,-241.28 -1601.27,-241.28 -1601.56,-241.28 -1602.23,-241.47" fill="#4897e9" stroke="#4897e9" stroke-width="1" opacity="1.0" stroke-linecap="round" stroke-linejoin="round"/><polyline points="-1606.02,-263.58 -1605.89,-263.58 -1606.02,-263.58" fill="#4897e9" stroke="#4897e9" stroke-width="1" opacity="1.0" stroke-linecap="round" stroke-linejoin="round"/><polyline points="-1604.25,-256.67 -1604.25,-256.67" fill="#4897e9" stroke="#4897e9" stroke-width="1" opacity="1.0" stroke-linecap="round" stroke-linejoin="round"/><polyline points="-1601.99,-271.00 -1602.12,-271.00 -1602.37,-270.62 -1603.25,-270.00 -1604.13,-269.12 -1606.27,-267.35 -1608.15,-265.59 -1608.53,-265.09 -1609.28,-264.21 -1609.54,-263.71 -1609.54,-263.21 -1609.54,-263.08 -1609.16,-263.58 -1608.53,-264.34 -1607.52,-265.85 -1606.52,-267.61 -1605.89,-268.86 -1605.76,-269.24 -1606.02,-268.99 -1607.15,-268.11 -1608.03,-267.35 -1609.03,-266.47 -1610.42,-265.34 -1611.67,-264.46 -1612.18,-263.71 -1612.30,-262.95 -1612.30,-262.58 -1612.18,-262.58 -1611.80,-262.83 -1610.04,-264.46 -1608.91,-265.72 -1608.15,-266.98 -1607.90,-267.35 -1607.90,-267.48 -1607.90,-267.23 -1608.53,-265.59 -1609.91,-261.70 -1611.30,-257.30 -1612.30,-252.77 -1612.81,-248.74 -1612.93,-246.23 -1612.81,-246.23 -1612.30,-246.61 -1611.80,-247.74 -1610.16,-250.76 -1608.91,-253.90 -1607.65,-257.92 -1606.90,-261.57 -1606.64,-264.21 -1606.64,-265.97 -1606.77,-265.97 -1607.65,-265.34 -1609.91,-263.33 -1612.30,-260.69 -1615.32,-258.05 -1618.84,-255.41 -1621.10,-253.90 -1621.98,-253.40 -1621.98,-253.77 -1621.73,-254.53 -1621.48,-255.41 -1620.85,-257.42 -1619.47,-260.44 -1619.22,-261.44 -1619.34,-260.94 -1619.47,-260.44 -1619.85,-259.31 -1620.85,-256.67 -1621.98,-253.65 -1622.99,-251.13 -1623.24,-250.25 -1623.24,-250.00 -1621.86,-250.88 -1620.35,-252.14 -1617.58,-253.90 -1614.94,-255.66 -1612.93,-257.30 -1612.43,-257.67 -1612.55,-257.67 -1613.31,-257.04 -1614.82,-256.16 -1617.46,-254.91 -1621.86,-253.27 -1624.00,-252.52 -1623.62,-252.77 -1623.12,-253.27 -1622.24,-254.15 -1620.98,-255.28 -1619.47,-256.67 -1618.34,-257.67 -1617.96,-258.05 -1617.96,-257.30 -1618.84,-255.66 -1619.72,-254.65 -1620.10,-254.03 -1620.10,-253.77 -1619.85,-253.77 -1619.22,-254.03 -1618.21,-254.28 -1616.45,-255.03 -1613.31,-255.91 -1612.43,-256.29 -1612.55,-255.79 -1613.31,-254.65 -1614.19,-253.65 -1621.61,-247.36 -1624.00,-245.73 -1625.13,-244.85 -1625.25,-244.85 -1624.37,-245.35 -1623.12,-246.23 -1619.22,-248.49 -1613.31,-251.51 -1608.53,-253.65 -1605.01,-255.53 -1603.88,-256.29 -1604.00,-256.29 -1605.51,-255.16 -1606.39,-254.53 -1608.53,-252.77 -1612.43,-249.88 -1613.69,-249.25 -1613.94,-249.00 -1613.94,-249.62 -1614.06,-250.63 -1614.31,-251.64 -1614.57,-252.52 -1614.94,-253.27 -1615.19,-253.65 -1615.32,-253.77 -1615.95,-253.65 -1616.95,-253.27 -1618.34,-252.39 -1619.60,-251.51 -1620.48,-250.76 -1620.60,-250.38 -1620.73,-250.25 -1620.73,-250.13 -1620.73,-250.00 -1620.73,-249.88 -1620.85,-249.88 -1620.85,-249.75 -1620.98,-249.37 -1620.98,-248.87 -1621.36,-247.99 -1621.48,-247.36 -1621.73,-246.98 -1621.86,-246.48 -1621.86,-246.36 -1621.98,-246.10 -1621.98,-245.98 -1621.48,-245.98 -1620.10,-246.23 -1617.21,-246.73 -1614.57,-247.11 -1612.18,-247.49 -1610.42,-247.86 -1610.29,-247.99 -1610.42,-247.99 -1611.30,-247.74 -1612.68,-247.49 -1614.82,-247.49 -1617.46,-247.49 -1619.34,-247.49 -1620.10,-247.49 -1620.10,-247.86 -1620.10,-248.37 -1620.10,-249.25 -1620.10,-250.63 -1620.22,-251.76 -1620.22,-252.52 -1620.35,-253.27 -1620.73,-253.65 -1620.73,-253.77 -1620.98,-253.77 -1621.98,-252.64 -1622.61,-251.64 -1622.99,-250.25 -1623.12,-249.25 -1622.86,-248.62 -1621.98,-247.99 -1621.23,-247.74 -1618.84,-247.24 -1616.45,-246.61 -1613.56,-246.36 -1610.92,-246.36 -1608.91,-246.36 -1607.90,-246.48 -1606.64,-246.73 -1605.26,-246.86 -1603.25,-246.86 -1601.61,-246.86 -1600.11,-246.61 -1599.35,-246.23 -1599.10,-246.10 -1598.97,-246.10 -1598.97,-245.98 -1599.10,-245.98 -1599.98,-245.73 -1602.12,-245.48 -1604.76,-245.48 -1607.52,-245.48 -1609.79,-245.48 -1610.04,-245.48 -1610.16,-245.35 -1610.29,-245.35 -1610.54,-245.22 -1611.04,-245.22 -1611.55,-245.22 -1612.43,-245.22 -1612.68,-245.22 -1613.18,-245.22 -1614.06,-245.22 -1615.32,-245.22 -1616.07,-245.22 -1617.08,-245.48 -1617.84,-245.60 -1617.46,-245.35 -1615.70,-244.85 -1614.57,-244.72 -1611.93,-244.60 -1606.90,-244.22 -1605.51,-244.22 -1603.50,-244.22 -1602.12,-244.22 -1601.11,-244.22 -1599.60,-244.34 -1598.22,-244.60 -1596.46,-244.85 -1595.45,-245.10 -1594.70,-245.22 -1594.20,-245.35 -1593.44,-245.35 -1592.56,-245.35 -1591.55,-245.35 -1590.05,-245.35 -1588.03,-245.35 -1585.52,-245.35 -1583.13,-245.35 -1581.37,-245.35 -1580.87,-245.35 -1580.36,-245.35 -1579.61,-245.35 -1578.73,-245.35 -1577.72,-245.35 -1577.09,-245.60 -1576.59,-245.60 -1576.09,-245.73 -1575.58,-245.98 -1574.83,-246.23 -1574.08,-246.48 -1573.57,-246.73 -1573.07,-247.11 -1572.82,-247.49 -1572.69,-247.99 -1572.44,-248.62 -1572.44,-249.50 -1572.32,-250.38 -1572.32,-251.01 -1572.32,-251.76 -1572.32,-252.52 -1572.19,-253.27 -1572.19,-254.03 -1572.06,-254.65 -1572.06,-255.41 -1572.06,-255.91 -1572.06,-256.29 -1572.06,-256.67 -1572.06,-257.04 -1572.06,-257.42 -1572.06,-257.80 -1572.06,-258.18 -1572.19,-258.30 -1572.32,-258.55 -1572.57,-258.80 -1572.82,-258.93 -1573.07,-259.18 -1573.32,-259.18 -1573.82,-259.43 -1574.20,-259.43 -1574.70,-259.56 -1575.33,-259.68 -1576.09,-259.68 -1576.97,-259.81 -1577.60,-259.81 -1578.35,-259.94 -1578.98,-260.19 -1580.11,-260.44 -1580.87,-260.56 -1581.24,-260.69 -1581.62,-260.82 -1581.87,-260.82 -1582.25,-260.82 -1582.50,-260.94 -1582.88,-260.94 -1583.26,-260.94 -1583.51,-260.82 -1584.01,-260.44 -1584.26,-259.81 -1584.26,-259.43 -1584.26,-258.43 -1584.01,-257.55 -1583.38,-256.79 -1582.50,-255.91 -1581.37,-254.65 -1580.61,-254.28 -1579.36,-253.77 -1578.10,-253.65 -1577.35,-253.65 -1576.84,-253.77 -1576.72,-254.28 -1576.59,-254.65 -1576.59,-255.03 -1576.97,-254.65 -1577.47,-253.52 -1577.60,-252.14 -1577.72,-250.88 -1577.72,-250.25 -1577.72,-250.00 -1577.60,-250.38 -1577.35,-251.39 -1577.22,-252.64 -1577.09,-254.03 -1577.09,-255.03 -1577.09,-256.04 -1577.09,-256.79 -1577.35,-257.42 -1577.47,-257.55 -1577.60,-257.55 -1578.60,-256.92 -1579.73,-256.04 -1580.99,-255.16 -1582.63,-253.90 -1583.00,-253.27 -1583.00,-253.02 -1582.75,-253.02 -1582.38,-253.02 -1581.24,-253.65 -1580.24,-254.15 -1579.36,-254.65 -1578.60,-255.28 -1578.48,-255.91 -1578.48,-256.29 -1578.48,-256.54 -1578.73,-256.67 -1579.23,-256.42 -1579.86,-255.41 -1580.49,-253.90 -1580.74,-252.77 -1580.74,-252.01 -1580.36,-251.01 -1579.99,-250.63 -1579.11,-250.25 -1578.23,-250.25 -1577.85,-250.25 -1577.09,-250.63 -1576.47,-251.51 -1575.96,-252.89 -1575.84,-253.90 -1575.84,-254.78 -1576.09,-256.04 -1576.59,-257.04 -1576.84,-257.92 -1577.09,-258.18 -1577.22,-258.30 -1577.47,-258.30 -1577.72,-258.05 -1578.60,-256.92 -1579.23,-255.03 -1579.23,-254.15 -1579.23,-252.89 -1578.48,-251.76 -1577.35,-250.63 -1576.34,-250.13 -1575.08,-249.75 -1573.95,-249.75 -1573.45,-249.88 -1573.32,-250.25 -1573.20,-250.88 -1573.32,-252.14 -1573.45,-252.64 -1574.33,-253.77 -1575.46,-254.78 -1576.72,-255.53 -1579.23,-256.92 -1581.75,-258.30 -1583.51,-259.31 -1583.88,-259.56 -1584.01,-259.56 -1584.26,-259.56 -1584.39,-259.56 -1584.76,-259.31 -1585.14,-258.93 -1585.27,-258.43 -1585.39,-256.67 -1585.14,-255.53 -1584.64,-254.53 -1583.88,-253.52 -1582.63,-252.27 -1581.12,-251.01 -1579.73,-250.00 -1579.11,-249.25 -1578.73,-248.87 -1578.48,-248.49 -1578.35,-248.37 -1578.23,-248.24 -1578.10,-248.12 -1577.72,-247.74 -1577.47,-247.61 -1577.22,-247.49 -1577.35,-247.49 -1577.60,-247.36 -1578.85,-247.24 -1579.73,-247.24 -1582.12,-247.24 -1584.76,-247.24 -1587.28,-247.24 -1589.42,-247.24 -1591.30,-247.24 -1593.44,-247.24 -1594.45,-247.11 -1595.58,-246.86 -1596.96,-246.73 -1597.97,-246.73 -1598.85,-246.73 -1599.48,-246.73 -1600.48,-246.73 -1601.74,-246.73 -1602.75,-246.73 -1604.13,-246.73 -1605.76,-246.73 -1608.78,-246.73 -1610.29,-246.73 -1611.55,-246.86 -1612.30,-246.98 -1612.43,-246.98 -1612.43,-247.11 -1612.30,-247.36 -1611.04,-247.86 -1607.90,-248.49 -1603.12,-249.12 -1594.82,-249.88 -1589.04,-249.88 -1584.76,-249.75 -1581.37,-249.37 -1578.85,-248.74 -1578.35,-248.74 -1578.48,-248.74 -1578.85,-248.74 -1579.99,-248.74 -1586.90,-248.74 -1593.94,-249.00 -1601.87,-249.37 -1607.52,-249.75 -1611.55,-250.00 -1612.81,-250.13 -1612.93,-250.13 -1612.81,-250.25 -1612.55,-250.25 -1610.79,-250.51 -1606.27,-250.88 -1599.85,-251.39 -1593.31,-251.64 -1588.79,-251.76 -1585.64,-251.76 -1583.76,-251.89 -1583.51,-251.89 -1583.63,-252.01 -1584.39,-252.01 -1585.52,-252.01 -1588.41,-252.01 -1593.82,-252.01 -1600.99,-252.01 -1606.77,-252.01 -1611.17,-252.14 -1613.81,-252.14 -1613.69,-252.14 -1613.31,-252.14 -1611.93,-252.27 -1608.78,-252.64 -1602.49,-252.77 -1593.94,-252.77 -1589.29,-252.77 -1586.40,-252.77 -1585.39,-252.77 -1585.27,-252.77 -1585.14,-252.77 -1584.76,-252.77 -1584.76,-252.52 -1584.14,-252.01 -1583.88,-251.89 -1583.88,-251.76 -1583.88,-251.64 -1583.88,-251.51 -1583.76,-251.26 -1583.76,-251.13 -1583.76,-251.01 -1583.76,-250.88 -1583.88,-250.76 -1584.01,-250.63 -1584.14,-250.51 -1584.39,-250.51 -1585.64,-250.51 -1586.52,-250.63 -1588.41,-251.13 -1592.06,-251.76 -1596.21,-252.52 -1600.48,-253.40 -1604.76,-254.15 -1609.41,-255.16 -1611.04,-255.53 -1611.80,-255.66 -1611.93,-255.66 -1612.05,-255.66 -1612.30,-255.66 -1612.43,-255.66 -1612.30,-255.66 -1611.93,-255.66 -1610.67,-255.66 -1607.65,-255.66 -1601.87,-255.66 -1595.96,-255.66 -1588.41,-255.66 -1583.76,-255.28 -1580.36,-255.16 -1578.98,-255.16 -1578.85,-255.16 -1578.98,-255.03 -1579.48,-255.03 -1581.12,-254.78 -1585.39,-254.40 -1591.93,-254.40 -1598.34,-254.40 -1603.88,-254.40 -1608.28,-254.40 -1608.91,-254.40 -1608.78,-254.40 -1608.40,-254.40 -1608.03,-254.40 -1606.52,-254.40 -1603.37,-254.40 -1597.97,-254.40 -1592.18,-254.40 -1587.66,-254.40 -1586.78,-254.40 -1586.65,-254.40 -1585.64,-254.28 -1584.39,-253.65 -1583.76,-253.52 -1583.76,-253.40 -1584.01,-253.40 -1585.27,-253.40 -1586.52,-253.40 -1592.81,-254.15 -1599.73,-255.16 -1604.38,-256.16 -1607.52,-256.67 -1608.78,-257.04 -1609.16,-257.17 -1609.41,-257.17 -1609.54,-257.17 -1609.79,-257.17 -1609.66,-257.30 -1609.41,-257.30 -1609.03,-257.42 -1608.40,-257.55 -1606.27,-257.67 -1603.00,-257.80 -1597.84,-257.80 -1596.08,-257.80 -1592.06,-257.80 -1589.67,-257.55 -1587.66,-257.42 -1586.78,-257.42 -1586.52,-257.42 -1586.65,-257.42 -1587.03,-257.42 -1587.78,-257.42 -1590.05,-257.42 -1595.58,-257.42 -1598.85,-257.42 -1601.99,-257.42 -1604.25,-257.42 -1605.39,-257.42 -1606.02,-257.42 -1606.27,-257.30 -1606.52,-257.17 -1606.77,-257.17 -1606.90,-257.17 -1607.15,-257.17 -1607.78,-257.17 -1607.78,-257.30 -1607.78,-257.42 -1607.65,-257.67 -1607.40,-258.05 -1607.15,-258.30 -1606.77,-258.68 -1606.52,-258.93 -1606.52,-259.06 -1606.52,-259.18 -1606.52,-259.43 -1606.52,-259.81 -1606.64,-260.31 -1606.77,-261.32 -1607.15,-262.58 -1607.27,-263.58 -1607.27,-264.84 -1606.90,-265.97 -1606.64,-266.85 -1606.39,-267.61 -1606.14,-268.36 -1605.89,-268.99 -1605.64,-269.12 -1605.51,-269.24 -1605.51,-269.37 -1605.89,-268.86 -1606.64,-267.73 -1607.40,-266.22 -1607.90,-265.09 -1609.41,-262.58 -1610.42,-260.82 -1611.04,-259.43 -1611.55,-258.05 -1611.80,-257.30 -1611.80,-256.67 -1611.80,-256.54 -1611.80,-256.42 -1611.67,-256.42 -1611.42,-256.42 -1610.92,-256.79 -1609.91,-257.67 -1608.53,-258.93 -1607.27,-260.31 -1606.52,-261.19 -1605.51,-262.58 -1604.51,-263.96 -1603.75,-265.34 -1603.00,-266.73 -1602.49,-267.48 -1602.12,-268.49 -1601.87,-268.86 -1601.74,-269.12 -1601.61,-269.12 -1601.74,-269.12 -1601.87,-268.86 -1602.12,-268.49 -1602.75,-267.48 -1603.25,-266.60 -1603.75,-265.72 -1604.13,-265.09 -1604.25,-264.71 -1604.25,-264.59 -1604.00,-265.22 -1603.37,-266.10 -1603.00,-267.23 -1602.62,-267.98 -1602.24,-268.99 -1601.99,-269.74 -1601.87,-270.25 -1601.61,-270.88 -1601.36,-271.38 -1601.36,-271.50 -1601.36,-271.76 -1601.24,-271.76 -1601.11,-271.88 -1600.99,-272.01 -1600.86,-272.13 -1600.61,-272.26 -1600.23,-272.64 -1599.98,-272.76 -1599.85,-272.76 -1599.73,-272.76 -1598.97,-272.26 -1597.97,-271.88 -1597.21,-271.50 -1596.46,-271.25 -1595.83,-271.00 -1595.45,-270.88 -1594.82,-270.62 -1594.45,-270.50 -1593.94,-270.37 -1593.82,-270.37 -1593.57,-270.37 -1593.57,-270.25 -1593.19,-270.00 -1592.56,-269.74 -1591.93,-269.49 -1591.68,-269.24 -1591.43,-269.12 -1591.05,-268.49 -1590.55,-268.11 -1590.05,-267.48 -1589.54,-266.98 -1589.04,-266.60 -1588.79,-266.10 -1588.29,-264.97 -1588.16,-264.59 -1587.66,-263.71 -1587.40,-262.95 -1587.15,-262.33 -1586.90,-261.82 -1586.78,-261.44 -1586.65,-261.19 -1586.65,-260.82 -1586.65,-260.44 -1586.40,-260.19 -1586.40,-259.94 -1586.40,-259.68 -1586.40,-259.56 -1586.40,-259.43 -1586.78,-259.43 -1587.78,-259.18 -1589.42,-259.06 -1592.06,-258.80 -1594.57,-258.80 -1597.09,-258.68 -1599.22,-258.68 -1600.61,-258.68 -1601.99,-258.68 -1602.62,-258.68 -1604.00,-258.68 -1605.64,-258.68 -1606.64,-258.68 -1607.02,-258.68 -1607.15,-258.68 -1607.02,-258.80 -1606.39,-259.56 -1605.26,-260.69 -1603.63,-262.33 -1603.00,-263.33 -1602.37,-264.34 -1601.61,-265.59 -1600.99,-266.98 -1600.73,-267.48 -1600.61,-267.86 -1600.36,-268.11 -1600.36,-268.24 -1600.11,-268.61 -1599.85,-268.86 -1599.35,-269.37 -1598.97,-269.62 -1598.34,-270.12 -1597.72,-270.50 -1597.46,-270.88 -1597.34,-270.88 -1597.21,-270.75 -1596.71,-270.12 -1595.70,-268.74 -1595.20,-267.73 -1594.45,-266.73 -1593.57,-265.47 -1592.81,-264.09 -1591.93,-263.08 -1591.30,-262.58 -1591.18,-262.45 -1591.05,-262.20 -1591.05,-262.07 -1590.93,-262.07 -1590.93,-261.95 -1590.93,-261.82 -1591.18,-261.44 -1591.93,-261.07 -1593.44,-260.44 -1594.70,-259.94 -1596.71,-259.18 -1598.60,-258.68 -1599.98,-258.43 -1601.74,-258.18 -1601.99,-258.18 -1602.12,-258.18 -1602.37,-258.18 -1602.49,-258.18 -1602.49,-258.43 -1602.49,-258.68 -1602.37,-259.06 -1601.99,-260.06 -1601.49,-260.94 -1601.36,-261.70 -1600.99,-262.58 -1600.61,-263.58 -1600.11,-264.71 -1599.85,-265.59 -1599.60,-266.35 -1599.35,-266.98 -1599.22,-267.23 -1598.97,-267.73 -1598.85,-267.98 -1598.72,-267.98 -1598.60,-267.98 -1598.47,-267.98 -1598.34,-267.86 -1598.22,-267.48 -1597.84,-266.85 -1597.34,-266.10 -1597.09,-265.22 -1596.71,-263.96 -1596.58,-262.70 -1596.58,-261.95 -1596.58,-261.19 -1596.58,-260.44 -1596.58,-260.31 -1596.58,-260.19 -1596.84,-260.19 -1597.21,-260.19 -1598.47,-260.19 -1599.73,-260.19 -1600.86,-260.19 -1601.49,-260.19 -1601.61,-260.19 -1601.49,-260.19 -1601.36,-260.19 -1600.36,-260.69 -1598.85,-261.19 -1596.96,-261.70 -1595.08,-261.95 -1594.95,-261.95 -1594.82,-261.95 -1594.82,-261.82 -1594.82,-261.44 -1594.82,-261.07 -1594.82,-260.19 -1594.95,-259.06 -1594.95,-257.67 -1594.95,-256.79 -1594.95,-256.04 -1594.70,-255.41 -1594.57,-255.16 -1594.45,-255.03 -1594.32,-254.91 -1593.94,-254.65 -1593.69,-254.53 -1593.44,-254.40 -1593.44,-254.28 -1593.44,-254.15 -1593.69,-253.77 -1594.95,-253.02 -1596.08,-252.52 -1598.34,-251.76 -1601.24,-250.88 -1604.88,-249.88 -1605.89,-249.62 -1606.39,-249.25 -1606.64,-249.25 -1606.90,-249.12 -1607.27,-249.12 -1607.65,-249.00 -1607.90,-249.00 -1607.90,-248.87 -1607.90,-248.87" fill="#4897e9" stroke="#4897e9" stroke-width="1" opacity="1.0" stroke-linecap="round" stroke-linejoin="round"/><polyline points="-1601.87,-240.45 -1601.99,-240.45 -1602.37,-240.32 -1602.62,-240.32 -1602.75,-240.19 -1602.87,-240.19 -1603.00,-240.19 -1603.12,-240.19 -1603.25,-240.19 -1603.37,-240.19 -1603.50,-240.19 -1603.63,-240.19 -1603.75,-240.19 -1603.88,-240.19 -1604.00,-240.19 -1604.13,-240.19 -1604.25,-240.32 -1604.38,-240.32 -1604.38,-240.45 -1604.51,-240.45 -1604.63,-240.45 -1604.76,-240.45 -1604.88,-240.57 -1605.01,-240.57 -1605.13,-240.57 -1605.26,-240.57 -1605.39,-240.70 -1605.89,-240.70 -1606.77,-240.82 -1607.40,-240.82 -1607.90,-240.82 -1608.03,-240.82 -1608.15,-240.95 -1608.28,-240.95 -1608.66,-240.95 -1609.28,-240.95 -1609.79,-240.95 -1610.16,-240.95 -1610.42,-240.95 -1610.54,-240.95 -1610.67,-240.95 -1610.79,-240.95 -1611.17,-240.95 -1611.93,-240.95 -1612.68,-240.95 -1613.06,-240.95 -1613.56,-240.95 -1613.81,-240.95 -1613.94,-240.95 -1614.06,-241.07 -1614.19,-241.07 -1614.31,-241.07 -1614.44,-241.07 -1614.57,-241.07 -1614.69,-241.07 -1614.82,-241.20 -1614.94,-241.20 -1615.07,-241.20 -1615.19,-241.20 -1615.45,-241.20 -1615.57,-241.20 -1615.82,-241.33 -1615.70,-241.33 -1614.82,-241.45 -1614.44,-241.45 -1613.69,-241.45 -1612.43,-241.45 -1611.80,-241.45 -1611.04,-241.45 -1610.79,-241.45 -1610.54,-241.45 -1609.79,-241.45 -1609.41,-241.45 -1608.91,-241.45 -1608.78,-241.45 -1608.66,-241.45 -1608.53,-241.33 -1608.40,-241.33 -1607.90,-241.33 -1607.40,-241.33 -1606.64,-241.33 -1606.02,-241.20 -1605.39,-241.07 -1604.88,-241.07 -1604.63,-241.07 -1604.51,-241.07 -1604.25,-241.07 -1604.13,-241.07 -1603.63,-241.07 -1603.25,-241.07 -1603.12,-241.07 -1603.00,-241.07 -1602.87,-241.07 -1602.75,-241.07 -1602.49,-241.07 -1602.37,-241.07 -1602.24,-241.07 -1601.74,-241.07 -1601.61,-241.07 -1601.36,-241.07 -1601.24,-241.07 -1600.73,-241.07 -1600.61,-241.07 -1600.36,-241.07 -1600.23,-241.07 -1599.98,-241.07 -1599.73,-241.07 -1599.60,-241.07 -1599.60,-241.07" fill="#4897e9" stroke="#4897e9" stroke-width="1" opacity="1.0" stroke-linecap="round" stroke-linejoin="round"/><rect x="-1618.65" y="-247.10" width="43.17" height="18.70" rx="0" stroke="#821010" stroke-width="1" opacity="1.0" fill="none"/><rect x="-1618.38" y="-246.79" width="13.98" height="5.96" rx="0" stroke="#8f1212" stroke-width="1" opacity="1.0" fill="#e62323"/><rect x="-1604.10" y="-246.80" width="13.98" height="5.96" rx="0" stroke="#8f1212" stroke-width="1" opacity="1.0" fill="#f16874"/><rect x="-1589.75" y="-246.80" width="13.98" height="5.96" rx="0" stroke="#8f1212" stroke-width="1" opacity="1.0" fill="#e62323"/><rect x="-1618.21" y="-234.21" width="13.98" height="5.96" rx="0" stroke="#8f1212" stroke-width="1" opacity="1.0" fill="#e62323"/><rect x="-1603.83" y="-234.22" width="13.98" height="5.96" rx="0" stroke="#8f1212" stroke-width="1" opacity="1.0" fill="#f16874"/><rect x="-1589.68" y="-234.12" width="13.98" height="5.96" rx="0" stroke="#8f1212" stroke-width="1" opacity="1.0" fill="#e62323"/><rect x="-1618.24" y="-240.46" width="13.98" height="5.96" rx="0" stroke="#8f1212" stroke-width="1" opacity="1.0" fill="#f16874"/><rect x="-1603.90" y="-240.46" width="13.98" height="5.96" rx="0" stroke="#8f1212" stroke-width="1" opacity="1.0" fill="#e62323"/><rect x="-1589.75" y="-240.46" width="13.98" height="5.96" rx="0" stroke="#8f1212" stroke-width="1" opacity="1.0" fill="#f16874"/><text x="-1628.19" y="-201.92" font-size="16" fill="#000000" opacity="1.0" font-family="sans-serif">Firewalls</text></svg>