<svg xmlns="http://www.w3.org/2000/svg" viewBox="-190.98 -1024.92 73.85 117.66" width="74" height="118"><polyline points="-172.79,-959.42 -157.24,-964.33 -162.83,-968.56 -147.42,-968.43 -153.97,-964.20 -139.10,-960.65 -170.61,-958.88" fill="#868e96" stroke="#000000" stroke-width="1" opacity="1.0" stroke-linecap="round" stroke-linejoin="round"/><rect x="-184.98" y="-1018.92" width="58.24" height="50.75" rx="0" stroke="#000000" stroke-width="1" opacity="1.0" fill="#b2b6b6"/><rect x="-177.35" y="-1009.56" width="44.85" height="33.10" rx="0" stroke="#000000" stroke-width="1" opacity="1.0" fill="#59b6da"/><ellipse cx="-153.63" cy="-1014.17" rx="1.28" ry="0.92" stroke="#82c91e" stroke-width="1" opacity="1.0" fill="#82c91e"/><rect x="-172.89" y="-960.60" width="33.82" height="6.55" rx="0" stroke="#000000" stroke-width="1" opacity="1.0" fill="#b2b6b6"/><polyline points="-154.67,-992.66 -147.31,-998.47 -146.88,-988.17 -154.14,-983.00 -154.52,-992.11" fill="#99d2ea" stroke="#99d2ea" stroke-width="1" opacity="1.0" stroke-linecap="round" stroke-linejoin="round"/><polyline points="-155.41,-995.50 -149.25,-1001.60 -155.31,-1003.72 -163.01,-999.81 -155.56,-996.24" fill="#000000" stroke="#000" stroke-width="1" opacity="1.0" stroke-linecap="round" stroke-linejoin="round"/><polyline points="-164.47,-998.48 -157.61,-993.46 -157.25,-983.79 -163.08,-988.09 -163.71,-996.67" fill="#fff" stroke="#fff" stroke-width="1" opacity="1.0" stroke-linecap="round" stroke-linejoin="round"/><text x="-183.12" y="-937.26" font-size="16" fill="#000000" opacity="1.0" font-family="sans-serif">Virtual
Machine</text></svg>