<svg version="1.1" xmlns="http://www.w3.org/2000/svg" viewBox="0 0 125 99.4548027986466" width="125" height="99.4548027986466">
  <!-- svg-source:excalidraw -->
  
  <defs>
    
    
  </defs>
  <g stroke-linecap="round" transform="translate(15.058214593591856 -0.511254400670623) rotate(324.2395778051273 47.441785406408144 34.53654437160526)"><path d="M60 8.75 C65.11 16, 74.35 20.99, 82.88 26.25 C94.7 37.31, 95.09 32.53, 82.88 43.75 C79.87 51.14, 70.23 51.81, 60 60.32 C48.11 68.14, 45.56 72.23, 36 60.32 C30.65 54.94, 27.35 54.2, 12 43.75 C-0.54 35.92, 3.2 37.96, 12 26.25 C22.26 19.31, 26.79 15.81, 36 8.75 C47.4 -3.05, 47.53 3.54, 60 8.75" stroke="none" stroke-width="0" fill="#000"></path><path d="M60 8.75 C69.83 15.15, 74.74 19.47, 82.88 26.25 M60 8.75 C65.94 12.14, 71.18 17.61, 82.88 26.25 M82.88 26.25 C94.85 34.33, 93.12 33.47, 82.88 43.75 M82.88 26.25 C92.78 33.39, 94.4 36.46, 82.88 43.75 M82.88 43.75 C74.53 50.14, 65.77 56.24, 60 60.32 M82.88 43.75 C76.37 47.31, 70.71 52.7, 60 60.32 M60 60.32 C47.09 70.13, 47.97 69.34, 36 60.32 M60 60.32 C47 69.19, 47.56 70.39, 36 60.32 M36 60.32 C31.55 57.09, 25.77 53.31, 12 43.75 M36 60.32 C27.98 54.47, 19.82 49.19, 12 43.75 M12 43.75 C0.23 36.99, -1.07 36.19, 12 26.25 M12 43.75 C-1.33 35.47, -0.47 33.79, 12 26.25 M12 26.25 C19.24 21.5, 28.71 12.2, 36 8.75 M12 26.25 C18.72 21.85, 25.3 16.41, 36 8.75 M36 8.75 C47.56 0.45, 47.14 1.72, 60 8.75 M36 8.75 C49.9 0.84, 46.37 1.37, 60 8.75" stroke="#000000" stroke-width="2" fill="none"></path></g><g stroke-linecap="round"><g transform="translate(48.67344032364281 18.368784274642167) rotate(0 11.25627612223252 15.469151396050847)"><path d="M0.06 -1.96 C7.73 2.57, 18.25 8.03, 30.04 10.08 M-0.33 -0.88 C8.42 2.77, 17.62 7.15, 29.73 12.09 M30.09 10.02 C19.06 17, 4.46 25.25, -7.25 28.99 M29.62 11.7 C18.39 16.96, 7.46 23.05, -6.01 30.39" stroke="#1864ab" stroke-width="4" fill="none"></path></g></g><mask></mask><g stroke-linecap="round"><g transform="translate(56.23609599018937 50.251872373647075) rotate(0 10.268883479931674 -0.5924355853805992)"><path d="M-1.96 -1.99 C5.17 -1.55, 13.03 0.22, 18.9 -0.9 M-0.88 -0.77 C6.04 -1.03, 13.7 -0.1, 20.91 -1" stroke="#1864ab" stroke-width="4" fill="none"></path></g></g><mask></mask><g transform="translate(6 68.4548027986466) rotate(0 56.5 12.5)"><text x="56.5" y="0" font-family="Virgil, Segoe UI Emoji" font-size="20px" fill="#000000" text-anchor="middle" style="white-space: pre;" direction="ltr" dominant-baseline="text-before-edge">PS Runbook</text></g></svg>