<svg version="1.1" xmlns="http://www.w3.org/2000/svg" viewBox="0 0 432 242.5" width="432" height="242.5">
  <!-- svg-source:excalidraw -->
  
  <defs>
    
    
  </defs>
  <g stroke-linecap="round" transform="translate(150.98360655737588 39.11475409836021) rotate(0 74.5081967213116 69.54098360655735)"><path d="M-1.95 0.01 L150.88 3.85 L149.21 139.28 L1.65 141.53" stroke="none" stroke-width="0" fill="#0072ca"></path><path d="M-0.78 1.88 C45.97 -0.08, 82.75 -4.77, 148.76 1.27 M-0.97 -0.11 C53.46 -1.08, 103.81 -0.41, 149.66 -0.66 M148.09 2.08 C146.28 28.19, 146.98 63.99, 151.19 135.56 M149.24 1.71 C146.56 29.77, 144.92 63.67, 148.49 137.57 M149.25 138.87 C114.69 134.77, 76.37 134.91, -3.14 142.41 M147.56 137.25 C91.59 136.62, 33.57 139.17, -0.03 139.34 M-1.18 139.51 C0.46 91.69, -4.39 42.58, 2.02 0.31 M0.05 137.45 C-0.77 101.34, -1.04 58.98, 0.19 0.69" stroke="#0072ca" stroke-width="1" fill="none"></path></g><g stroke-linecap="round" transform="translate(157.98360655737588 137.89344262295072) rotate(0 71.75819672131138 30.053278688524642)"><path d="M143.52 30.05 C143.52 31.36, 143.31 32.68, 142.9 33.98 C142.49 35.27, 141.88 36.57, 141.07 37.83 C140.26 39.09, 139.25 40.35, 138.05 41.55 C136.86 42.76, 135.46 43.95, 133.9 45.08 C132.34 46.21, 130.59 47.31, 128.69 48.35 C126.79 49.39, 124.71 50.38, 122.5 51.3 C120.29 52.23, 117.92 53.1, 115.44 53.9 C112.96 54.69, 110.34 55.43, 107.64 56.08 C104.93 56.73, 102.1 57.32, 99.22 57.82 C96.33 58.32, 93.35 58.74, 90.33 59.08 C87.31 59.42, 84.22 59.68, 81.12 59.85 C78.03 60.02, 74.88 60.11, 71.76 60.11 C68.64 60.11, 65.49 60.02, 62.39 59.85 C59.3 59.68, 56.2 59.42, 53.19 59.08 C50.17 58.74, 47.18 58.32, 44.3 57.82 C41.41 57.32, 38.58 56.73, 35.88 56.08 C33.18 55.43, 30.55 54.69, 28.07 53.9 C25.6 53.1, 23.23 52.23, 21.02 51.3 C18.81 50.38, 16.73 49.39, 14.83 48.35 C12.93 47.31, 11.17 46.21, 9.61 45.08 C8.05 43.95, 6.66 42.76, 5.46 41.55 C4.27 40.35, 3.25 39.09, 2.45 37.83 C1.64 36.57, 1.02 35.27, 0.61 33.98 C0.21 32.68, 0 31.36, 0 30.05 C0 28.75, 0.21 27.43, 0.61 26.13 C1.02 24.83, 1.64 23.54, 2.45 22.27 C3.25 21.01, 4.27 19.76, 5.46 18.55 C6.66 17.34, 8.05 16.16, 9.61 15.03 C11.17 13.89, 12.93 12.8, 14.83 11.76 C16.73 10.72, 18.81 9.73, 21.02 8.8 C23.23 7.88, 25.6 7.01, 28.07 6.21 C30.55 5.41, 33.18 4.68, 35.88 4.03 C38.58 3.37, 41.41 2.79, 44.3 2.29 C47.18 1.79, 50.17 1.36, 53.19 1.02 C56.2 0.69, 59.3 0.43, 62.39 0.26 C65.49 0.09, 68.64 0, 71.76 0 C74.88 0, 78.03 0.09, 81.12 0.26 C84.22 0.43, 87.31 0.69, 90.33 1.02 C93.35 1.36, 96.33 1.79, 99.22 2.29 C102.1 2.79, 104.93 3.37, 107.64 4.03 C110.34 4.68, 112.96 5.41, 115.44 6.21 C117.92 7.01, 120.29 7.88, 122.5 8.8 C124.71 9.73, 126.79 10.72, 128.69 11.76 C130.59 12.8, 132.34 13.89, 133.9 15.03 C135.46 16.16, 136.86 17.34, 138.05 18.55 C139.25 19.76, 140.26 21.01, 141.07 22.27 C141.88 23.54, 142.49 24.83, 142.9 26.13 C143.31 27.43, 143.41 29.4, 143.52 30.05 C143.62 30.71, 143.62 29.4, 143.52 30.05" stroke="none" stroke-width="0" fill="#0072ca"></path><path d="M143.52 30.05 C143.52 31.36, 143.31 32.68, 142.9 33.98 C142.49 35.27, 141.88 36.57, 141.07 37.83 C140.26 39.09, 139.25 40.35, 138.05 41.55 C136.86 42.76, 135.46 43.95, 133.9 45.08 C132.34 46.21, 130.59 47.31, 128.69 48.35 C126.79 49.39, 124.71 50.38, 122.5 51.3 C120.29 52.23, 117.92 53.1, 115.44 53.9 C112.96 54.69, 110.34 55.43, 107.64 56.08 C104.93 56.73, 102.1 57.32, 99.22 57.82 C96.33 58.32, 93.35 58.74, 90.33 59.08 C87.31 59.42, 84.22 59.68, 81.12 59.85 C78.03 60.02, 74.88 60.11, 71.76 60.11 C68.64 60.11, 65.49 60.02, 62.39 59.85 C59.3 59.68, 56.2 59.42, 53.19 59.08 C50.17 58.74, 47.18 58.32, 44.3 57.82 C41.41 57.32, 38.58 56.73, 35.88 56.08 C33.18 55.43, 30.55 54.69, 28.07 53.9 C25.6 53.1, 23.23 52.23, 21.02 51.3 C18.81 50.38, 16.73 49.39, 14.83 48.35 C12.93 47.31, 11.17 46.21, 9.61 45.08 C8.05 43.95, 6.66 42.76, 5.46 41.55 C4.27 40.35, 3.25 39.09, 2.45 37.83 C1.64 36.57, 1.02 35.27, 0.61 33.98 C0.21 32.68, 0 31.36, 0 30.05 C0 28.75, 0.21 27.43, 0.61 26.13 C1.02 24.83, 1.64 23.54, 2.45 22.27 C3.25 21.01, 4.27 19.76, 5.46 18.55 C6.66 17.34, 8.05 16.16, 9.61 15.03 C11.17 13.89, 12.93 12.8, 14.83 11.76 C16.73 10.72, 18.81 9.73, 21.02 8.8 C23.23 7.88, 25.6 7.01, 28.07 6.21 C30.55 5.41, 33.18 4.68, 35.88 4.03 C38.58 3.37, 41.41 2.79, 44.3 2.29 C47.18 1.79, 50.17 1.36, 53.19 1.02 C56.2 0.69, 59.3 0.43, 62.39 0.26 C65.49 0.09, 68.64 0, 71.76 0 C74.88 0, 78.03 0.09, 81.12 0.26 C84.22 0.43, 87.31 0.69, 90.33 1.02 C93.35 1.36, 96.33 1.79, 99.22 2.29 C102.1 2.79, 104.93 3.37, 107.64 4.03 C110.34 4.68, 112.96 5.41, 115.44 6.21 C117.92 7.01, 120.29 7.88, 122.5 8.8 C124.71 9.73, 126.79 10.72, 128.69 11.76 C130.59 12.8, 132.34 13.89, 133.9 15.03 C135.46 16.16, 136.86 17.34, 138.05 18.55 C139.25 19.76, 140.26 21.01, 141.07 22.27 C141.88 23.54, 142.49 24.83, 142.9 26.13 C143.31 27.43, 143.41 29.4, 143.52 30.05 C143.62 30.71, 143.62 29.4, 143.52 30.05" stroke="#0072ca" stroke-width="4" fill="none"></path></g><g stroke-linecap="round" transform="translate(150.98360655737588 6) rotate(0 73.68032786885237 29.803278688524642)"><path d="M103.03 1.95 C113.84 3.44, 125.34 8.39, 132.39 12.23 C139.43 16.07, 143.58 20.37, 145.3 25 C147.02 29.62, 147.62 35.13, 142.7 39.97 C137.79 44.81, 125.85 50.95, 115.79 54.03 C105.74 57.11, 94.34 57.79, 82.37 58.46 C70.41 59.12, 55.03 59.84, 43.99 58.01 C32.96 56.19, 23.42 51.54, 16.17 47.52 C8.93 43.49, 1.99 38.53, 0.54 33.87 C-0.91 29.2, 2.57 23.89, 7.47 19.52 C12.38 15.16, 20.4 10.71, 29.96 7.68 C39.51 4.65, 51.24 2.31, 64.8 1.35 C78.36 0.39, 103.24 1.44, 111.33 1.94 C119.42 2.44, 114.22 3.36, 113.34 4.34 M65.99 1.07 C77.38 0.69, 91.39 1.58, 102.21 3.51 C113.02 5.45, 123.89 9, 130.87 12.65 C137.85 16.31, 142.76 20.59, 144.08 25.44 C145.41 30.29, 143.14 37.38, 138.82 41.76 C134.51 46.13, 127.62 48.34, 118.17 51.69 C108.72 55.04, 94.46 60.73, 82.12 61.84 C69.78 62.95, 55.51 61.24, 44.14 58.37 C32.76 55.51, 21.11 48.84, 13.87 44.65 C6.64 40.47, 1.54 37.95, 0.73 33.26 C-0.07 28.56, 3.94 21.11, 9.06 16.5 C14.18 11.89, 22.21 8.22, 31.45 5.61 C40.69 3.01, 58.52 1.97, 64.5 0.86 C70.47 -0.25, 67.32 -0.95, 67.33 -1.04" stroke="none" stroke-width="0" fill="#e8e8e8"></path><path d="M94.5 1.86 C106.44 2.92, 119.65 4.93, 128.12 8.26 C136.6 11.6, 142.65 16.64, 145.34 21.88 C148.02 27.11, 147.88 34.8, 144.21 39.67 C140.54 44.55, 132.27 47.82, 123.32 51.11 C114.36 54.4, 102.34 58.48, 90.47 59.43 C78.59 60.38, 63.89 58.54, 52.08 56.82 C40.27 55.09, 28.02 52.24, 19.6 49.07 C11.18 45.9, 4.49 42.64, 1.57 37.79 C-1.35 32.95, -1.37 24.75, 2.1 20 C5.57 15.25, 13.14 12.8, 22.39 9.31 C31.63 5.82, 38.65 -1.59, 57.58 -0.94 C76.52 -0.29, 121.55 6.92, 136.01 13.23 C150.46 19.55, 144.83 36.44, 144.31 36.96 M33.77 2.28 C43.27 -0.76, 57.62 1.62, 69.56 1.85 C81.51 2.07, 94.38 1.23, 105.44 3.65 C116.51 6.06, 129.18 11.88, 135.96 16.35 C142.74 20.83, 145.83 26.31, 146.12 30.49 C146.41 34.66, 142.83 36.89, 137.7 41.4 C132.56 45.91, 125.91 54.82, 115.3 57.55 C104.69 60.28, 87.1 58.48, 74.05 57.78 C61 57.09, 47.54 55.58, 36.99 53.39 C26.44 51.19, 17.22 47.91, 10.74 44.62 C4.27 41.34, -1.48 38.43, -1.85 33.7 C-2.21 28.97, 2.2 20.95, 8.53 16.23 C14.86 11.52, 31.33 7.42, 36.14 5.41 C40.96 3.4, 36.98 3.73, 37.42 4.17" stroke="#e8e8e8" stroke-width="1" fill="none"></path></g><g stroke-linecap="round" transform="translate(170.852459016392 19.245901639344083) rotate(0 52.98360655737679 18.213114754098342)"><path d="M70.23 1.91 C78.97 2.87, 88.38 4.1, 94.18 6.35 C99.99 8.6, 103.99 12.38, 105.05 15.43 C106.11 18.48, 104.95 21.31, 100.56 24.63 C96.17 27.96, 87.23 33.68, 78.74 35.41 C70.24 37.13, 58.84 35.22, 49.59 34.98 C40.34 34.73, 30.96 35.54, 23.23 33.93 C15.5 32.32, 6.77 28.11, 3.19 25.29 C-0.4 22.47, -0.1 20.23, 1.72 17.02 C3.53 13.8, 7.63 8.52, 14.07 5.99 C20.52 3.46, 27.73 2.08, 40.38 1.82 C53.02 1.56, 79.66 3.1, 89.94 4.44 C100.22 5.79, 102.75 9.33, 102.07 9.88 M11.08 9.31 C16.28 6.8, 26.14 1.3, 34.75 -0.29 C43.35 -1.88, 53.18 -0.85, 62.69 -0.24 C72.2 0.38, 84.64 1.4, 91.8 3.39 C98.97 5.38, 103.91 8.63, 105.7 11.7 C107.49 14.78, 106.38 18.6, 102.55 21.82 C98.72 25.05, 90.52 28.32, 82.72 31.04 C74.91 33.77, 65.41 37.41, 55.73 38.16 C46.06 38.91, 32.54 37.27, 24.67 35.55 C16.81 33.83, 12.4 30.94, 8.56 27.84 C4.73 24.73, 1.65 20.31, 1.64 16.93 C1.63 13.54, 6.7 8.73, 8.5 7.54 C10.29 6.34, 11.44 9.55, 12.4 9.75" stroke="none" stroke-width="0" fill="#50e6ff"></path><path d="M12.94 7.53 C18.31 4.99, 27.25 2.01, 36.09 0.84 C44.94 -0.32, 56.38 -0.15, 66 0.53 C75.61 1.22, 87.29 2.57, 93.78 4.96 C100.27 7.36, 103.55 11.58, 104.96 14.89 C106.37 18.2, 106.24 21.84, 102.22 24.81 C98.21 27.79, 89.14 30.87, 80.88 32.73 C72.63 34.59, 61.83 35.95, 52.71 35.96 C43.6 35.97, 34.34 34.52, 26.2 32.78 C18.06 31.03, 7.98 28.12, 3.87 25.5 C-0.24 22.87, -4.74 21.5, 1.54 17.04 C7.83 12.58, 29.08 1.07, 41.58 -1.25 C54.09 -3.57, 76.09 2.27, 76.58 3.12 M54.1 -0.78 C63.05 -0.95, 69.89 -0.23, 77.92 1.13 C85.95 2.49, 97.63 4.22, 102.28 7.38 C106.93 10.53, 106.78 16.55, 105.82 20.07 C104.85 23.59, 102.25 26.11, 96.49 28.5 C90.74 30.89, 81.16 32.79, 71.3 34.43 C61.44 36.07, 46.46 39.37, 37.34 38.34 C28.21 37.31, 22.96 31.47, 16.57 28.28 C10.18 25.09, 1.54 22.13, -1 19.19 C-3.53 16.26, -2.46 13.66, 1.36 10.68 C5.18 7.7, 13.13 3.11, 21.92 1.32 C30.71 -0.47, 49.14 -0.15, 54.1 -0.04 C59.07 0.07, 52.01 1.3, 51.71 1.96" stroke="#50e6ff" stroke-width="1" fill="none"></path></g><g transform="translate(182.44262295081853 39.11475409836021) rotate(0 43.04918032786895 5.79508196721315)" stroke="none"><path fill="#32bedd" d="M 0.89,-4.93 Q 0.89,-4.93 5.15,-4.26 9.41,-3.59 12.38,-3.47 15.35,-3.35 19.82,-3.44 24.28,-3.53 27.23,-3.52 30.17,-3.51 33.44,-3.70 36.71,-3.89 39.96,-4.04 43.20,-4.19 46.36,-3.78 49.51,-3.37 51.90,-3.29 54.29,-3.20 57.32,-3.26 60.36,-3.32 63.02,-2.86 65.68,-2.41 68.51,-2.45 71.34,-2.49 74.49,-2.00 77.65,-1.51 78.73,-1.38 79.82,-1.24 80.52,-0.90 81.23,-0.55 81.83,-0.04 82.44,0.45 82.90,1.09 83.36,1.73 83.66,2.46 83.96,3.18 84.08,3.96 84.19,4.74 84.12,5.53 84.04,6.31 83.78,7.05 83.52,7.80 83.09,8.46 82.66,9.12 82.09,9.65 81.51,10.19 80.82,10.57 80.13,10.96 79.38,11.17 78.62,11.38 77.83,11.40 77.04,11.42 76.27,11.25 75.50,11.08 72.07,10.76 68.64,10.45 62.95,9.92 57.27,9.40 55.00,9.40 52.74,9.40 49.28,9.49 45.83,9.58 43.20,9.69 40.58,9.81 38.36,9.90 36.14,10.00 34.00,10.08 31.85,10.16 29.72,10.23 27.59,10.30 25.46,10.36 23.33,10.42 20.33,10.44 17.33,10.46 15.04,10.50 12.76,10.54 9.23,10.27 5.71,9.99 3.22,10.14 0.74,10.28 -0.00,10.32 -0.75,10.36 -1.48,10.22 -2.21,10.08 -2.89,9.77 -3.57,9.46 -4.16,8.99 -4.74,8.52 -5.20,7.93 -5.66,7.34 -5.96,6.66 -6.26,5.97 -6.39,5.24 -6.52,4.50 -6.47,3.75 -6.41,3.01 -6.19,2.30 -5.96,1.58 -5.57,0.95 -5.17,0.31 -4.64,-0.20 -4.11,-0.73 -3.47,-1.11 -2.82,-1.49 -2.11,-1.71 -1.39,-1.93 0.93,-2.53 3.27,-3.14 5.66,-3.84 8.06,-4.54 12.11,-4.77 16.17,-5.00 18.97,-5.11 21.77,-5.23 25.60,-5.42 29.42,-5.61 33.61,-5.68 37.80,-5.74 42.66,-5.71 47.51,-5.68 49.90,-5.67 52.29,-5.67 54.53,-5.69 56.77,-5.70 59.61,-5.81 62.45,-5.92 65.80,-5.08 69.16,-4.25 71.87,-2.67 74.59,-1.10 77.50,-1.46 80.41,-1.82 81.73,-1.67 83.05,-1.52 83.80,-1.25 84.55,-0.98 85.21,-0.53 85.87,-0.09 86.40,0.49 86.94,1.08 87.32,1.78 87.70,2.48 87.90,3.25 88.10,4.02 88.11,4.82 88.12,5.62 87.94,6.39 87.76,7.17 87.40,7.88 87.04,8.59 86.51,9.19 85.99,9.80 85.34,10.26 84.69,10.72 83.95,11.01 83.21,11.30 82.42,11.41 81.63,11.51 80.84,11.43 80.05,11.34 82.41,10.68 84.78,10.01 81.59,10.76 78.39,11.52 73.53,10.67 68.68,9.82 66.17,9.73 63.67,9.64 60.80,9.54 57.94,9.44 55.49,9.43 53.04,9.42 50.78,9.43 48.52,9.45 45.66,9.57 42.81,9.69 39.94,9.78 37.06,9.87 33.89,9.72 30.71,9.57 26.08,9.56 21.45,9.55 17.73,9.63 14.02,9.70 10.73,9.78 7.44,9.86 4.85,9.95 2.25,10.03 1.51,9.94 0.77,9.85 0.07,9.59 -0.61,9.33 -1.22,8.90 -1.84,8.48 -2.33,7.92 -2.82,7.37 -3.17,6.71 -3.52,6.05 -3.69,5.33 -3.87,4.60 -3.87,3.86 -3.87,3.11 -3.69,2.39 -3.52,1.67 -3.17,1.01 -2.82,0.35 -2.33,-0.20 -1.84,-0.75 -1.22,-1.18 -0.61,-1.60 0.08,-1.86 0.77,-2.13 1.51,-2.22 2.25,-2.31 6.11,-3.36 9.96,-4.41 13.80,-4.59 17.64,-4.77 19.94,-5.00 22.25,-5.24 24.55,-5.36 26.85,-5.48 29.72,-5.66 32.59,-5.83 34.87,-5.94 37.14,-6.06 39.91,-6.13 42.68,-6.20 45.19,-6.27 47.69,-6.34 49.89,-6.41 52.08,-6.47 54.23,-6.53 56.37,-6.58 59.11,-6.61 61.85,-6.63 64.96,-6.63 68.08,-6.63 71.63,-6.14 75.18,-5.65 78.65,-5.02 82.12,-4.39 83.01,-3.98 83.90,-3.57 84.69,-3.34 85.49,-3.12 86.21,-2.71 86.93,-2.29 87.53,-1.72 88.13,-1.15 88.57,-0.45 89.02,0.24 89.28,1.02 89.55,1.80 89.62,2.63 89.69,3.46 89.56,4.27 89.43,5.09 89.11,5.85 88.78,6.62 88.29,7.28 87.79,7.95 87.15,8.47 86.51,9.00 85.77,9.36 85.02,9.71 84.21,9.88 83.40,10.05 82.57,10.02 81.74,9.99 79.14,10.39 76.53,10.79 74.11,10.33 71.68,9.86 68.62,9.64 65.56,9.41 62.69,9.38 59.81,9.34 56.25,8.89 52.68,8.43 48.42,8.12 44.15,7.82 41.33,7.81 38.50,7.81 35.65,7.83 32.80,7.84 28.18,7.72 23.57,7.60 19.86,7.60 16.15,7.61 13.47,7.66 10.80,7.72 7.90,8.00 5.01,8.29 3.98,8.87 2.94,9.44 2.16,9.47 1.39,9.50 0.63,9.34 -0.12,9.19 -0.82,8.85 -1.53,8.52 -2.13,8.02 -2.73,7.53 -3.19,6.91 -3.66,6.29 -3.96,5.57 -4.26,4.85 -4.38,4.09 -4.51,3.32 -4.44,2.55 -4.38,1.77 -4.13,1.04 -3.88,0.30 -3.46,-0.35 -3.05,-1.00 -2.49,-1.54 -1.92,-2.08 -1.25,-2.46 -0.58,-2.85 0.16,-3.06 0.91,-3.28 3.34,-2.31 5.76,-1.34 8.65,-2.00 11.53,-2.66 14.33,-2.67 17.12,-2.69 20.86,-2.64 24.59,-2.58 27.45,-2.46 30.30,-2.33 34.74,-2.27 39.18,-2.21 42.25,-2.28 45.32,-2.34 47.61,-2.42 49.91,-2.49 53.12,-2.01 56.32,-1.53 58.57,-1.53 60.81,-1.53 64.40,-1.40 68.00,-1.27 69.94,-0.40 71.88,0.45 72.88,0.68 73.87,0.91 74.44,1.50 75.01,2.10 75.42,2.82 75.84,3.53 76.06,4.33 76.29,5.12 76.32,5.94 76.35,6.77 76.19,7.58 76.02,8.38 75.66,9.13 75.31,9.87 74.78,10.51 74.26,11.15 73.60,11.65 72.94,12.14 72.18,12.46 71.42,12.78 70.60,12.91 69.79,13.04 68.97,12.97 68.14,12.91 67.36,12.64 66.58,12.38 65.88,11.94 65.19,11.49 67.90,12.23 70.61,12.97 68.20,13.14 65.78,13.32 62.22,13.28 58.65,13.24 56.01,13.26 53.36,13.27 51.14,13.30 48.92,13.32 46.77,13.35 44.63,13.37 42.49,13.39 40.36,13.42 38.23,13.43 36.10,13.45 33.97,13.47 31.84,13.48 29.72,13.50 27.59,13.51 24.91,14.01 22.24,14.52 18.79,14.62 15.35,14.72 13.00,14.75 10.66,14.78 8.49,14.79 6.32,14.81 4.12,14.81 1.92,14.81 -0.45,14.11 -2.83,13.42 -4.67,11.90 -6.50,10.38 -5.72,4.90 -4.94,-0.58 -1.57,-2.37 1.78,-4.15 3.96,-4.83 6.13,-5.50 8.78,-5.68 11.43,-5.86 14.54,-5.84 17.64,-5.83 20.81,-5.79 23.98,-5.75 26.91,-5.73 29.84,-5.70 32.37,-5.71 34.91,-5.71 37.98,-5.68 41.05,-5.66 43.35,-5.67 45.65,-5.69 47.81,-5.71 49.97,-5.72 52.11,-5.74 54.24,-5.75 56.37,-5.77 58.50,-5.78 61.24,-5.76 63.98,-5.74 66.89,-5.61 69.81,-5.47 72.21,-5.03 74.62,-4.58 77.14,-4.02 79.66,-3.46 82.97,-3.15 86.28,-2.84 88.52,-1.81 90.76,-0.79 90.87,-0.46 90.97,-0.13 91.61,0.38 92.25,0.90 92.74,1.56 93.24,2.21 93.56,2.97 93.89,3.72 94.02,4.53 94.15,5.34 94.09,6.16 94.03,6.98 93.77,7.76 93.51,8.54 93.07,9.23 92.63,9.93 92.04,10.50 91.45,11.07 90.74,11.48 90.03,11.90 89.24,12.13 88.45,12.36 87.63,12.39 86.81,12.43 86.01,12.26 85.20,12.10 84.46,11.75 83.72,11.40 86.39,11.86 89.06,12.31 86.50,12.70 83.95,13.09 81.33,13.05 78.70,13.01 76.41,12.97 74.12,12.93 71.24,12.98 68.37,13.02 63.97,13.11 59.57,13.21 57.36,13.37 55.14,13.54 52.89,13.61 50.63,13.68 48.45,13.70 46.27,13.73 42.74,14.36 39.22,15.00 36.69,15.19 34.17,15.39 31.96,15.47 29.75,15.54 27.61,15.60 25.46,15.65 23.33,15.70 21.20,15.74 19.07,15.78 16.94,15.81 14.81,15.84 12.69,15.88 10.56,15.90 8.43,15.93 7.60,15.83 6.77,15.73 5.99,15.43 5.21,15.14 4.53,14.66 3.84,14.19 3.29,13.56 2.73,12.94 2.35,12.20 1.96,11.46 1.76,10.65 1.56,9.84 1.56,9.01 1.56,8.18 1.76,7.37 1.96,6.56 2.35,5.82 2.73,5.08 3.29,4.45 3.84,3.83 4.53,3.36 5.21,2.88 5.99,2.59 6.77,2.29 7.60,2.19 8.43,2.09 12.55,2.54 16.67,2.99 20.23,3.69 23.78,4.39 26.33,4.50 28.87,4.62 31.98,4.61 35.10,4.60 37.38,4.68 39.66,4.76 42.47,4.90 45.28,5.04 48.46,5.03 51.65,5.02 53.97,4.98 56.29,4.93 58.45,4.89 60.61,4.85 63.32,4.31 66.02,3.77 68.92,2.58 71.81,1.40 74.59,1.09 77.36,0.77 76.94,0.98 76.53,1.18 76.99,0.13 77.44,-0.91 78.21,-1.76 78.98,-2.61 79.99,-3.17 80.99,-3.73 82.12,-3.94 83.24,-4.15 84.38,-3.99 85.52,-3.83 86.54,-3.32 87.57,-2.80 88.37,-1.99 89.18,-1.17 89.69,-0.14 90.19,0.88 90.34,2.02 90.49,3.15 90.27,4.28 90.05,5.41 89.48,6.40 88.91,7.40 88.05,8.16 87.19,8.92 86.13,9.37 85.08,9.82 83.93,9.91 82.79,9.99 81.68,9.71 80.57,9.43 79.60,8.81 78.64,8.18 77.92,7.29 77.21,6.39 76.82,5.31 76.43,4.23 76.40,3.08 76.38,1.94 76.72,0.84 77.06,-0.25 77.74,-1.17 78.41,-2.10 79.35,-2.77 80.28,-3.43 81.38,-3.76 82.48,-4.09 83.63,-4.06 84.77,-4.02 85.85,-3.62 86.92,-3.22 87.81,-2.49 88.70,-1.77 89.32,-0.80 89.93,0.16 90.20,1.27 90.47,2.39 90.37,3.53 90.27,4.67 90.27,4.67 90.27,4.67 86.49,9.00 82.70,13.32 79.81,13.90 76.92,14.47 74.66,15.67 72.39,16.87 69.74,17.08 67.10,17.28 63.86,17.80 60.61,18.32 58.45,18.28 56.29,18.24 53.97,18.19 51.65,18.15 48.46,18.14 45.28,18.12 42.47,18.27 39.66,18.41 36.28,18.47 32.91,18.54 30.68,18.49 28.44,18.45 25.81,18.28 23.18,18.10 20.76,17.50 18.34,16.89 15.96,16.70 13.58,16.51 11.00,16.22 8.43,15.93 7.60,15.83 6.77,15.73 5.99,15.43 5.21,15.14 4.53,14.66 3.84,14.19 3.29,13.56 2.73,12.94 2.35,12.20 1.96,11.46 1.76,10.65 1.56,9.84 1.56,9.01 1.56,8.18 1.76,7.37 1.96,6.56 2.35,5.82 2.73,5.08 3.29,4.46 3.84,3.83 4.53,3.36 5.21,2.88 5.99,2.59 6.77,2.29 7.60,2.19 8.43,2.09 10.56,2.12 12.69,2.14 14.81,2.18 16.94,2.21 19.07,2.24 21.20,2.28 24.39,2.35 27.58,2.41 30.70,2.48 33.82,2.55 36.35,2.53 38.88,2.51 40.96,2.05 43.04,1.59 46.65,1.58 50.25,1.57 54.28,1.35 58.31,1.13 63.32,0.49 68.34,-0.15 71.18,-0.13 74.01,-0.11 76.25,-0.18 78.48,-0.26 81.06,-0.19 83.64,-0.12 87.31,-0.12 90.97,-0.13 91.61,0.38 92.25,0.90 92.74,1.56 93.24,2.21 93.56,2.97 93.89,3.72 94.02,4.53 94.15,5.34 94.09,6.16 94.03,6.98 93.77,7.76 93.51,8.54 93.07,9.23 92.63,9.93 92.04,10.50 91.45,11.07 90.74,11.48 90.03,11.90 89.24,12.13 88.46,12.36 87.63,12.39 86.81,12.43 86.01,12.26 85.20,12.10 84.46,11.75 83.72,11.40 82.81,10.84 81.91,10.28 77.72,9.78 73.54,9.27 70.08,8.79 66.63,8.31 63.63,8.34 60.63,8.37 58.50,8.36 56.37,8.34 54.24,8.33 52.11,8.32 49.97,8.30 47.83,8.28 45.62,8.26 43.42,8.25 40.89,8.24 38.36,8.23 35.45,8.25 32.54,8.27 29.46,8.30 26.38,8.34 23.82,8.34 21.25,8.35 18.17,8.40 15.09,8.45 11.66,8.50 8.23,8.55 5.21,9.30 2.19,10.06 4.25,5.35 6.31,0.63 8.45,0.64 10.59,0.65 12.82,0.64 15.05,0.64 18.03,0.55 21.02,0.47 23.18,-0.07 25.33,-0.62 27.52,-0.62 29.72,-0.62 31.84,-0.60 33.97,-0.59 36.10,-0.57 38.23,-0.56 40.36,-0.54 42.49,-0.52 44.63,-0.49 46.76,-0.47 48.93,-0.45 51.10,-0.42 53.44,-0.40 55.79,-0.37 59.11,-0.41 62.44,-0.44 64.91,-0.37 67.37,-0.29 70.62,0.30 73.87,0.91 74.44,1.50 75.01,2.10 75.42,2.82 75.84,3.53 76.06,4.32 76.29,5.12 76.32,5.94 76.35,6.77 76.19,7.58 76.02,8.38 75.66,9.13 75.31,9.87 74.79,10.51 74.26,11.15 73.60,11.64 72.94,12.14 72.18,12.46 71.42,12.78 70.60,12.91 69.79,13.04 68.97,12.98 68.14,12.91 67.36,12.64 66.58,12.38 65.88,11.94 65.19,11.49 65.02,11.68 64.85,11.87 62.65,11.81 60.45,11.75 57.93,11.57 55.41,11.39 52.66,10.80 49.91,10.22 47.61,10.14 45.31,10.07 42.25,10.00 39.18,9.94 34.74,10.00 30.30,10.06 27.45,10.18 24.59,10.31 22.18,10.38 19.77,10.45 16.72,10.42 13.66,10.40 11.24,10.32 8.82,10.24 5.88,9.84 2.94,9.44 2.17,9.47 1.39,9.50 0.63,9.34 -0.12,9.19 -0.82,8.85 -1.53,8.52 -2.13,8.02 -2.73,7.53 -3.19,6.91 -3.66,6.29 -3.96,5.57 -4.26,4.86 -4.38,4.09 -4.51,3.32 -4.44,2.55 -4.38,1.77 -4.13,1.04 -3.88,0.30 -3.46,-0.35 -3.05,-1.00 -2.49,-1.54 -1.92,-2.08 -1.25,-2.46 -0.58,-2.85 0.16,-3.06 0.91,-3.28 1.84,-3.75 2.78,-4.23 6.79,-4.69 10.80,-5.14 13.47,-5.09 16.15,-5.03 19.86,-5.03 23.57,-5.02 28.19,-5.14 32.82,-5.26 35.72,-5.23 38.63,-5.20 41.58,-5.12 44.52,-5.04 46.95,-5.02 49.37,-5.01 52.44,-4.88 55.52,-4.76 57.73,-4.46 59.94,-4.16 62.93,-4.11 65.93,-4.06 70.29,-3.85 74.65,-3.64 76.96,-3.17 79.28,-2.70 81.59,-3.14 83.90,-3.57 84.69,-3.34 85.49,-3.12 86.21,-2.71 86.93,-2.29 87.53,-1.72 88.13,-1.15 88.57,-0.45 89.02,0.23 89.28,1.02 89.55,1.80 89.62,2.63 89.69,3.45 89.56,4.27 89.43,5.09 89.11,5.85 88.78,6.62 88.29,7.28 87.79,7.95 87.15,8.47 86.52,9.00 85.77,9.36 85.02,9.71 84.21,9.88 83.40,10.05 82.57,10.02 81.74,9.99 79.44,8.96 77.13,7.92 73.93,7.29 70.73,6.65 67.62,6.65 64.50,6.66 61.50,6.65 58.50,6.63 56.36,6.58 54.23,6.53 52.07,6.47 49.92,6.41 47.63,6.34 45.34,6.27 42.33,6.21 39.33,6.16 37.16,6.06 34.99,5.97 32.63,5.88 30.27,5.78 26.75,5.80 23.23,5.82 21.11,5.98 18.99,6.15 15.28,6.90 11.58,7.65 8.71,7.39 5.84,7.12 4.05,8.58 2.25,10.03 1.51,9.94 0.77,9.85 0.08,9.59 -0.61,9.33 -1.22,8.90 -1.84,8.48 -2.33,7.92 -2.82,7.37 -3.17,6.71 -3.52,6.05 -3.69,5.33 -3.87,4.60 -3.87,3.86 -3.87,3.11 -3.69,2.39 -3.52,1.67 -3.17,1.01 -2.82,0.35 -2.33,-0.20 -1.84,-0.75 -1.22,-1.18 -0.61,-1.60 0.07,-1.86 0.77,-2.13 1.51,-2.22 2.25,-2.31 4.85,-2.22 7.44,-2.13 10.73,-2.05 14.02,-1.98 17.73,-1.90 21.45,-1.82 26.08,-1.84 30.71,-1.85 33.89,-1.99 37.07,-2.14 39.94,-2.05 42.81,-1.96 45.68,-1.83 48.54,-1.71 50.82,-1.68 53.10,-1.66 55.57,-1.65 58.04,-1.63 61.00,-1.68 63.96,-1.73 66.51,-1.68 69.06,-1.64 73.58,-0.78 78.10,0.07 80.58,-0.72 83.05,-1.52 83.80,-1.25 84.54,-0.98 85.21,-0.53 85.87,-0.09 86.40,0.49 86.94,1.08 87.32,1.78 87.70,2.48 87.90,3.25 88.10,4.02 88.11,4.82 88.12,5.62 87.94,6.39 87.76,7.17 87.40,7.88 87.04,8.59 86.52,9.19 85.99,9.80 85.34,10.26 84.70,10.72 83.95,11.01 83.21,11.30 82.42,11.41 81.63,11.51 80.84,11.43 80.05,11.34 78.74,11.16 77.43,10.98 75.23,10.61 73.03,10.23 70.13,9.05 67.22,7.86 64.83,6.89 62.45,5.92 59.61,5.81 56.77,5.70 54.53,5.69 52.29,5.67 49.90,5.68 47.52,5.68 42.67,5.72 37.82,5.76 33.69,5.72 29.56,5.68 25.93,5.65 22.30,5.62 19.72,5.76 17.14,5.91 14.29,6.30 11.44,6.68 9.11,7.43 6.78,8.18 3.76,9.23 0.74,10.28 -0.00,10.32 -0.75,10.36 -1.48,10.22 -2.21,10.08 -2.89,9.77 -3.57,9.46 -4.16,8.99 -4.74,8.52 -5.20,7.93 -5.66,7.34 -5.96,6.66 -6.26,5.97 -6.39,5.24 -6.52,4.50 -6.47,3.75 -6.41,3.01 -6.19,2.30 -5.96,1.58 -5.57,0.95 -5.17,0.31 -4.64,-0.20 -4.11,-0.73 -3.47,-1.11 -2.82,-1.49 -2.11,-1.71 -1.39,-1.93 -0.39,-1.67 0.61,-1.41 3.14,-1.84 5.67,-2.27 9.21,-2.54 12.76,-2.82 15.04,-2.77 17.33,-2.73 20.33,-2.71 23.33,-2.69 25.46,-2.63 27.59,-2.57 29.72,-2.51 31.85,-2.44 34.00,-2.35 36.14,-2.27 38.36,-2.17 40.59,-2.08 43.22,-1.96 45.86,-1.84 49.36,-1.71 52.87,-1.59 55.16,-1.53 57.45,-1.48 61.56,-1.73 65.67,-1.99 67.80,-1.83 69.93,-1.66 72.44,-1.31 74.96,-0.96 77.39,-1.10 79.82,-1.25 80.52,-0.90 81.23,-0.55 81.83,-0.04 82.44,0.45 82.90,1.09 83.36,1.73 83.66,2.45 83.96,3.18 84.08,3.96 84.19,4.74 84.12,5.53 84.04,6.31 83.78,7.05 83.52,7.80 83.09,8.46 82.66,9.12 82.09,9.65 81.51,10.19 80.82,10.57 80.14,10.96 79.38,11.17 78.62,11.38 77.83,11.40 77.04,11.42 76.27,11.25 75.50,11.08 73.35,10.63 71.20,10.19 68.90,10.06 66.60,9.94 63.35,9.19 60.10,8.44 57.05,8.30 53.99,8.15 51.24,8.11 48.48,8.06 45.76,7.41 43.05,6.77 39.87,6.62 36.70,6.46 33.42,6.26 30.13,6.05 27.16,6.03 24.18,6.02 19.54,5.74 14.90,5.46 11.78,5.27 8.66,5.07 4.35,5.00 0.04,4.93 -0.53,4.81 -1.12,4.69 -1.66,4.43 -2.20,4.17 -2.66,3.79 -3.12,3.41 -3.47,2.93 -3.83,2.45 -4.06,1.90 -4.29,1.35 -4.38,0.76 -4.48,0.17 -4.43,-0.42 -4.37,-1.01 -4.18,-1.58 -3.99,-2.15 -3.67,-2.65 -3.34,-3.15 -2.91,-3.56 -2.48,-3.98 -1.96,-4.27 -1.44,-4.57 -0.86,-4.73 -0.29,-4.89 0.30,-4.91 0.90,-4.93 0.90,-4.93 L 0.89,-4.93 Z"></path></g><g stroke-linecap="round"><g transform="translate(156 158.15288387937744) rotate(0 66.43858623881351 -33.897237876945724)" fill-rule="evenodd"><path d="M0 0 C3.62 -0.9, 16.95 -4.07, 21.69 -5.42 C26.44 -6.78, 23.73 -4.41, 28.47 -8.14 C33.22 -11.86, 42.71 -23.62, 50.17 -27.8 C57.63 -31.98, 65.42 -28.59, 73.22 -33.22 C81.01 -37.85, 90.96 -49.04, 96.95 -55.59 C102.93 -62.14, 104.4 -69.04, 109.15 -72.54 C113.89 -76.04, 121.47 -75.59, 125.42 -76.61 C129.37 -77.62, 131.86 -80.79, 132.88 -78.64 C133.89 -76.49, 133.67 -67.79, 131.52 -63.73 C129.37 -59.66, 123.16 -60.22, 120 -54.24 C116.83 -48.25, 116.04 -35.71, 112.54 -27.8 C109.04 -19.89, 102.03 -10.06, 98.98 -6.78 C95.93 -3.5, 95.93 -9.83, 94.23 -8.14 C92.54 -6.44, 92.65 0.23, 88.81 3.39 C84.97 6.55, 72.65 12.65, 71.18 10.85 C69.72 9.04, 78.42 -3.84, 80 -7.46 C81.58 -11.07, 81.69 -11.75, 80.68 -10.85 C79.66 -9.94, 80.56 -3.05, 73.9 -2.03 C67.23 -1.02, 48.93 -5.76, 40.68 -4.75 C32.43 -3.73, 28.7 1.69, 24.41 4.07 C20.11 6.44, 18.53 8.7, 14.91 9.49 C11.3 10.28, 4.07 9.72, 2.71 8.81 C1.36 7.91, 7.23 5.54, 6.78 4.07 C6.33 2.6, 1.13 0.68, 0 0" stroke="none" stroke-width="0" fill="#e8e8e8" fill-rule="evenodd"></path><path d="M0 0 C3.62 -0.9, 16.95 -4.07, 21.69 -5.42 C26.44 -6.78, 23.73 -4.41, 28.47 -8.14 C33.22 -11.86, 42.71 -23.62, 50.17 -27.8 C57.63 -31.98, 65.42 -28.59, 73.22 -33.22 C81.01 -37.85, 90.96 -49.04, 96.95 -55.59 C102.93 -62.14, 104.4 -69.04, 109.15 -72.54 C113.89 -76.04, 121.47 -75.59, 125.42 -76.61 C129.37 -77.62, 131.86 -80.79, 132.88 -78.64 C133.89 -76.49, 133.67 -67.79, 131.52 -63.73 C129.37 -59.66, 123.16 -60.22, 120 -54.24 C116.83 -48.25, 116.04 -35.71, 112.54 -27.8 C109.04 -19.89, 102.03 -10.06, 98.98 -6.78 C95.93 -3.5, 95.93 -9.83, 94.23 -8.14 C92.54 -6.44, 92.65 0.23, 88.81 3.39 C84.97 6.55, 72.65 12.65, 71.18 10.85 C69.72 9.04, 78.42 -3.84, 80 -7.46 C81.58 -11.07, 81.69 -11.75, 80.68 -10.85 C79.66 -9.94, 80.56 -3.05, 73.9 -2.03 C67.23 -1.02, 48.93 -5.76, 40.68 -4.75 C32.43 -3.73, 28.7 1.69, 24.41 4.07 C20.11 6.44, 18.53 8.7, 14.91 9.49 C11.3 10.28, 4.07 9.72, 2.71 8.81 C1.36 7.91, 7.23 5.54, 6.78 4.07 C6.33 2.6, 1.13 0.68, 0 0 M0 0 C3.62 -0.9, 16.95 -4.07, 21.69 -5.42 C26.44 -6.78, 23.73 -4.41, 28.47 -8.14 C33.22 -11.86, 42.71 -23.62, 50.17 -27.8 C57.63 -31.98, 65.42 -28.59, 73.22 -33.22 C81.01 -37.85, 90.96 -49.04, 96.95 -55.59 C102.93 -62.14, 104.4 -69.04, 109.15 -72.54 C113.89 -76.04, 121.47 -75.59, 125.42 -76.61 C129.37 -77.62, 131.86 -80.79, 132.88 -78.64 C133.89 -76.49, 133.67 -67.79, 131.52 -63.73 C129.37 -59.66, 123.16 -60.22, 120 -54.24 C116.83 -48.25, 116.04 -35.71, 112.54 -27.8 C109.04 -19.89, 102.03 -10.06, 98.98 -6.78 C95.93 -3.5, 95.93 -9.83, 94.23 -8.14 C92.54 -6.44, 92.65 0.23, 88.81 3.39 C84.97 6.55, 72.65 12.65, 71.18 10.85 C69.72 9.04, 78.42 -3.84, 80 -7.46 C81.58 -11.07, 81.69 -11.75, 80.68 -10.85 C79.66 -9.94, 80.56 -3.05, 73.9 -2.03 C67.23 -1.02, 48.93 -5.76, 40.68 -4.75 C32.43 -3.73, 28.7 1.69, 24.41 4.07 C20.11 6.44, 18.53 8.7, 14.91 9.49 C11.3 10.28, 4.07 9.72, 2.71 8.81 C1.36 7.91, 7.23 5.54, 6.78 4.07 C6.33 2.6, 1.13 0.68, 0 0" stroke="#e8e8e8" stroke-width="4" fill="none"></path></g></g><mask></mask><g stroke-linecap="round"><g transform="translate(254.9799346006812 155.4411048492218) rotate(0 4.745613302772426 -1.0169171363083933)" fill-rule="evenodd"><path d="M0 0 C1.02 -0.9, 4.52 -5.99, 6.1 -5.42 C7.68 -4.86, 10.51 2.49, 9.49 3.39 C8.47 4.29, 1.58 0.56, 0 0" stroke="none" stroke-width="0" fill="#e8e8e8" fill-rule="evenodd"></path><path d="M0 0 C1.02 -0.9, 4.52 -5.99, 6.1 -5.42 C7.68 -4.86, 10.51 2.49, 9.49 3.39 C8.47 4.29, 1.58 0.56, 0 0 M0 0 C1.02 -0.9, 4.52 -5.99, 6.1 -5.42 C7.68 -4.86, 10.51 2.49, 9.49 3.39 C8.47 4.29, 1.58 0.56, 0 0" stroke="#e8e8e8" stroke-width="4" fill="none"></path></g></g><mask></mask><g stroke-linecap="round"><g transform="translate(273.9623878117709 94.42607667071957) rotate(0 2.3728066513860995 -2.372806651386213)" fill-rule="evenodd"><path d="M0 0 C0.23 -0.79, 0.56 -4.18, 1.36 -4.75 C2.15 -5.31, 4.97 -4.18, 4.75 -3.39 C4.52 -2.6, 0.79 -0.56, 0 0" stroke="none" stroke-width="0" fill="#2170b7" fill-rule="evenodd"></path><path d="M0 0 C0.23 -0.79, 0.56 -4.18, 1.36 -4.75 C2.15 -5.31, 4.97 -4.18, 4.75 -3.39 C4.52 -2.6, 0.79 -0.56, 0 0 M0 0 C0.23 -0.79, 0.56 -4.18, 1.36 -4.75 C2.15 -5.31, 4.97 -4.18, 4.75 -3.39 C4.52 -2.6, 0.79 -0.56, 0 0" stroke="#2170b7" stroke-width="1" fill="none"></path></g></g><mask></mask><g transform="translate(6 201.5) rotate(0 210 17.5)"><text x="210" y="0" font-family="Virgil, Segoe UI Emoji" font-size="28px" fill="#000000" text-anchor="middle" style="white-space: pre;" direction="ltr" dominant-baseline="text-before-edge">Azure Database for MariaDB</text></g></svg>