<svg xmlns="http://www.w3.org/2000/svg" viewBox="2224.94 -1441.89 207.00 177.50" width="207" height="178"><polyline points="2287.27,-1315.10 2318.83,-1325.07 2307.48,-1333.65 2338.77,-1333.37 2325.48,-1324.79 2355.66,-1317.59 2291.70,-1313.99" fill="#868e96" stroke="#000000" stroke-width="1" opacity="1.0" stroke-linecap="round" stroke-linejoin="round"/><rect x="2262.52" y="-1435.89" width="118.24" height="103.03" rx="0" stroke="#000000" stroke-width="1" opacity="1.0" fill="#b2b6b6"/><rect x="2277.99" y="-1416.88" width="91.06" height="67.20" rx="0" stroke="#000000" stroke-width="1" opacity="1.0" fill="#59b6da"/><ellipse cx="2326.17" cy="-1426.25" rx="2.61" ry="1.88" stroke="#82c91e" stroke-width="1" opacity="1.0" fill="#82c91e"/><rect x="2287.06" y="-1317.47" width="68.67" height="13.29" rx="0" stroke="#000000" stroke-width="1" opacity="1.0" fill="#b2b6b6"/><polyline points="2324.06,-1382.57 2339.00,-1394.38 2339.86,-1373.45 2325.12,-1362.96 2324.35,-1381.46" fill="#99d2ea" stroke="#99d2ea" stroke-width="1" opacity="1.0" stroke-linecap="round" stroke-linejoin="round"/><polyline points="2322.54,-1388.33 2335.04,-1400.72 2322.75,-1405.02 2307.12,-1397.10 2322.24,-1389.85" fill="#000000" stroke="#000" stroke-width="1" opacity="1.0" stroke-linecap="round" stroke-linejoin="round"/><polyline points="2304.16,-1394.39 2318.09,-1384.21 2318.82,-1364.58 2306.98,-1373.29 2305.71,-1390.72" fill="#fff" stroke="#fff" stroke-width="1" opacity="1.0" stroke-linecap="round" stroke-linejoin="round"/><rect x="2269.28" y="-1428.73" width="105.00" height="86.67" rx="0" stroke="#000000" stroke-width="1" opacity="1.0" fill="#0073cb"/><text x="2292.61" y="-1373.56" font-size="28" fill="#f2f2f2" opacity="1.0" font-family="sans-serif">SQL</text><text x="2230.94" y="-1274.39" font-size="16" fill="#000000" opacity="1.0" font-family="sans-serif">SQL Server on Azure VM</text></svg>