<svg version="1.1" xmlns="http://www.w3.org/2000/svg" viewBox="0 0 506.2809748884624 383.8974946228318" width="506.2809748884624" height="383.8974946228318">
  <!-- svg-source:excalidraw -->
  
  <defs>
    
    
  </defs>
  <g stroke-linecap="round" transform="translate(170.1732883302293 80.95037973785566) rotate(356.6938960684414 11.287580531389494 12.28163543660321)"><path d="M5.64 0 C10.41 -2.23, 11.72 2.09, 16.93 0 C24.33 4.61, 26.8 1.15, 22.58 5.64 C20.9 10.9, 23.26 10.68, 22.58 18.92 C19.74 19.77, 24.85 24.82, 16.93 24.56 C14.8 23.63, 8.07 22.34, 5.64 24.56 C3.61 22.2, 3.78 28, 0 18.92 C-2.11 13.65, -0.48 9.66, 0 5.64 C-0.47 5.71, -0.14 -1.16, 5.64 0" stroke="none" stroke-width="0" fill="#b8d432"></path><path d="M5.64 0 C11.79 -1.75, 13.48 0.6, 16.93 0 M5.64 0 C9.09 -1.07, 12.71 0.54, 16.93 0 M16.93 0 C23.17 3.99, 20.09 4.59, 22.58 5.64 M16.93 0 C24.09 3.74, 23.79 0.58, 22.58 5.64 M22.58 5.64 C22.73 9.43, 23.7 13.08, 22.58 18.92 M22.58 5.64 C22.59 9.83, 23.25 14.89, 22.58 18.92 M22.58 18.92 C19.22 21.75, 18.16 27.94, 16.93 24.56 M22.58 18.92 C25.7 19.89, 24.67 24.15, 16.93 24.56 M16.93 24.56 C11.13 25.99, 7.63 24.94, 5.64 24.56 M16.93 24.56 C14.3 23.46, 13.3 23.57, 5.64 24.56 M5.64 24.56 C0.63 27.98, 1.8 22.34, 0 18.92 M5.64 24.56 C5.79 25.65, 0.04 21.95, 0 18.92 M0 18.92 C-1.77 16.6, 2.35 12.78, 0 5.64 M0 18.92 C-0.44 15.71, 0.71 11.26, 0 5.64 M0 5.64 C2.43 5.16, 1.55 -0.66, 5.64 0 M0 5.64 C-3.98 3.93, 6.05 2.55, 5.64 0" stroke="#b8d432" stroke-width="4" fill="none"></path></g><g stroke-linecap="round" transform="translate(186.159275939493 220.00021987049604) rotate(356.6938960684414 11.287580531389494 12.28163543660321)"><path d="M5.64 0 C7.79 2.32, 14.58 2.82, 16.93 0 C24.92 -0.73, 21.89 0.38, 22.58 5.64 C23.2 8.13, 20.54 13.9, 22.58 18.92 C26.73 22.94, 21.43 26.93, 16.93 24.56 C12.76 22.56, 13.15 23.16, 5.64 24.56 C5.67 29.88, 5.11 24.84, 0 18.92 C-0.14 17.03, -0.11 15.42, 0 5.64 C-2.02 0.72, -0.63 3.67, 5.64 0" stroke="none" stroke-width="0" fill="#b8d432"></path><path d="M5.64 0 C7.74 0.64, 10.67 1.61, 16.93 0 M5.64 0 C10.04 0.82, 14.05 1.32, 16.93 0 M16.93 0 C18.2 2.71, 25.53 5.14, 22.58 5.64 M16.93 0 C21.9 -1.3, 24.87 1.32, 22.58 5.64 M22.58 5.64 C23.75 6.97, 24.15 14.2, 22.58 18.92 M22.58 5.64 C22.99 10.26, 21.42 15.13, 22.58 18.92 M22.58 18.92 C20.04 26.05, 23.41 22.13, 16.93 24.56 M22.58 18.92 C26.55 22.27, 21.34 20.45, 16.93 24.56 M16.93 24.56 C10.67 24.93, 6.76 23.12, 5.64 24.56 M16.93 24.56 C14.95 23.43, 10.47 25.32, 5.64 24.56 M5.64 24.56 C3.68 24.23, 3.4 23.63, 0 18.92 M5.64 24.56 C1.92 23.83, -0.1 22.69, 0 18.92 M0 18.92 C2.52 16.51, 0.78 10.84, 0 5.64 M0 18.92 C0.82 15.1, 0.89 10.54, 0 5.64 M0 5.64 C-0.34 1.22, -1.58 1.78, 5.64 0 M0 5.64 C4.17 4.43, 3.11 -3.05, 5.64 0" stroke="#b8d432" stroke-width="4" fill="none"></path></g><g stroke-linecap="round" transform="translate(180.3578560464366 156.184601046868) rotate(356.6938960684414 11.287580531389494 12.28163543660321)"><path d="M5.64 0 C10.29 2.39, 13.22 -0.62, 16.93 0 C20.01 -1.5, 27.27 -0.49, 22.58 5.64 C20.77 8.2, 25.41 14.8, 22.58 18.92 C23.31 25.05, 15.7 27.05, 16.93 24.56 C14.76 23.04, 12.76 27.37, 5.64 24.56 C7 26.72, -4.06 19.72, 0 18.92 C-0.28 17.5, -1.31 10.24, 0 5.64 C-2.51 5.55, 1.14 -1.56, 5.64 0" stroke="none" stroke-width="0" fill="#b8d432"></path><path d="M5.64 0 C7.83 1.38, 11.45 0.33, 16.93 0 M5.64 0 C8.75 1, 9.76 0.64, 16.93 0 M16.93 0 C23.65 3.26, 23.63 0.75, 22.58 5.64 M16.93 0 C22.99 -0.56, 19.77 2.2, 22.58 5.64 M22.58 5.64 C24.25 11.41, 24.52 12.34, 22.58 18.92 M22.58 5.64 C21.55 8.74, 21.83 13.58, 22.58 18.92 M22.58 18.92 C25.3 20.25, 24.15 24.2, 16.93 24.56 M22.58 18.92 C23.22 18.57, 23.42 19.97, 16.93 24.56 M16.93 24.56 C10.84 23.01, 8.2 24.04, 5.64 24.56 M16.93 24.56 C14.23 25.34, 12.75 24.28, 5.64 24.56 M5.64 24.56 C5.28 25.51, 0.03 22.04, 0 18.92 M5.64 24.56 C1.79 24.57, 0.66 19.62, 0 18.92 M0 18.92 C0.37 14.38, 1.27 8.48, 0 5.64 M0 18.92 C0.66 14.95, -0.26 8.58, 0 5.64 M0 5.64 C-3.46 3.66, 5.51 2.22, 5.64 0 M0 5.64 C1.23 -1.17, 2.11 1.57, 5.64 0" stroke="#b8d432" stroke-width="4" fill="none"></path></g><g stroke-linecap="round" transform="translate(249.97489476312285 194.47397234104483) rotate(356.6938960684414 11.287580531389494 12.28163543660321)"><path d="M5.64 0 C12.17 -0.67, 13.53 -1.11, 16.93 0 C25.39 -2.38, 24.73 3.06, 22.58 5.64 C25.15 8.86, 22.88 13.32, 22.58 18.92 C17.58 25.16, 19.53 21.39, 16.93 24.56 C16.37 27.43, 14.43 25.65, 5.64 24.56 C-2.18 21.6, -0.12 22.17, 0 18.92 C-1.31 13.76, -1.63 12.58, 0 5.64 C-0.75 0.32, 7.14 5.47, 5.64 0" stroke="none" stroke-width="0" fill="#b8d432"></path><path d="M5.64 0 C10.19 0.23, 10.92 0.95, 16.93 0 M5.64 0 C8.96 0.54, 14.51 0.69, 16.93 0 M16.93 0 C21.75 -1.13, 24.57 1.39, 22.58 5.64 M16.93 0 C17.89 0.32, 21.08 3.89, 22.58 5.64 M22.58 5.64 C24.56 8.29, 21.58 12.67, 22.58 18.92 M22.58 5.64 C21.51 10.47, 23.26 12.24, 22.58 18.92 M22.58 18.92 C26.03 22.32, 21.26 20.99, 16.93 24.56 M22.58 18.92 C25.3 18.09, 23.33 20.06, 16.93 24.56 M16.93 24.56 C12.76 23.85, 7.84 26.56, 5.64 24.56 M16.93 24.56 C14.98 24.66, 12.97 25.02, 5.64 24.56 M5.64 24.56 C1.92 23.93, -0.08 22.69, 0 18.92 M5.64 24.56 C2.54 21.5, 2.84 26.75, 0 18.92 M0 18.92 C1.44 13.22, 2.09 10.66, 0 5.64 M0 18.92 C-0.27 13.81, -1.31 9.72, 0 5.64 M0 5.64 C3.63 4.1, 2.95 -2.66, 5.64 0 M0 5.64 C0.23 3.46, -1.35 -1.89, 5.64 0" stroke="#b8d432" stroke-width="4" fill="none"></path></g><g stroke-linecap="round" transform="translate(247.65432680589902 110.93352588102289) rotate(356.6938960684414 11.287580531389494 12.28163543660321)"><path d="M5.64 0 C9.58 -0.81, 16.93 -1.3, 16.93 0 C22.85 1.18, 18.65 -0.95, 22.58 5.64 C23.34 10.51, 19.54 13.88, 22.58 18.92 C21.42 19.5, 17.26 26.29, 16.93 24.56 C16.91 26.08, 8.82 23.19, 5.64 24.56 C1.76 24.05, 1.71 22.21, 0 18.92 C-1.53 16.46, -0.36 8.11, 0 5.64 C5.26 7.35, 5.66 -5.46, 5.64 0" stroke="none" stroke-width="0" fill="#b8d432"></path><path d="M5.64 0 C7.79 1.05, 15.1 1.36, 16.93 0 M5.64 0 C10.99 0.77, 14.97 -0.47, 16.93 0 M16.93 0 C22.69 -0.49, 20.13 2.16, 22.58 5.64 M16.93 0 C19.2 2.01, 19.37 4.58, 22.58 5.64 M22.58 5.64 C21.61 11.65, 22.2 13.59, 22.58 18.92 M22.58 5.64 C23.31 8.51, 23.55 12.87, 22.58 18.92 M22.58 18.92 C23.14 19.11, 23.07 20.57, 16.93 24.56 M22.58 18.92 C25.21 18.18, 21.18 20.36, 16.93 24.56 M16.93 24.56 C12.25 26.66, 9.88 23.8, 5.64 24.56 M16.93 24.56 C13.54 24.81, 8.24 24.36, 5.64 24.56 M5.64 24.56 C1.8 24.57, 0.57 20.02, 0 18.92 M5.64 24.56 C4.72 28.63, 3.06 23.73, 0 18.92 M0 18.92 C2 16.28, 1.67 12.31, 0 5.64 M0 18.92 C-1.13 14.44, 1.23 9.51, 0 5.64 M0 5.64 C1.07 -0.77, 2.08 1.37, 5.64 0 M0 5.64 C-3.23 -0.01, 4.94 2.99, 5.64 0" stroke="#b8d432" stroke-width="4" fill="none"></path></g><g stroke-linecap="round" transform="translate(312.6302296081376 152.70374911103363) rotate(356.6938960684414 11.287580531389494 12.28163543660321)"><path d="M5.64 0 C11.53 -1.26, 13.34 0.75, 16.93 0 C16.77 -2.83, 19.66 6.04, 22.58 5.64 C19.31 11.34, 21.85 11.62, 22.58 18.92 C19.14 24.41, 18.33 28.35, 16.93 24.56 C10.18 23.01, 7.95 24.4, 5.64 24.56 C3.59 24.1, 3.82 20.66, 0 18.92 C-0.33 14.18, 3.66 15.14, 0 5.64 C3.78 -3.58, 7.13 -4.56, 5.64 0" stroke="none" stroke-width="0" fill="#b8d432"></path><path d="M5.64 0 C10.48 1.29, 15.04 -1.51, 16.93 0 M5.64 0 C10.09 -0.5, 14.51 -0.32, 16.93 0 M16.93 0 C18.25 0.28, 21.27 3.63, 22.58 5.64 M16.93 0 C17.49 2.7, 26.41 5.05, 22.58 5.64 M22.58 5.64 C21.9 7.19, 21.84 11.52, 22.58 18.92 M22.58 5.64 C23.9 10.63, 22.94 14.66, 22.58 18.92 M22.58 18.92 C24.95 18.69, 22.98 20.65, 16.93 24.56 M22.58 18.92 C23.06 18.48, 17.48 23.21, 16.93 24.56 M16.93 24.56 C11.97 24.07, 12.64 25.8, 5.64 24.56 M16.93 24.56 C13.65 24.44, 10.33 24.62, 5.64 24.56 M5.64 24.56 C2.45 21.9, 2.47 26.22, 0 18.92 M5.64 24.56 C4.94 25.62, 0.45 25.29, 0 18.92 M0 18.92 C1.61 16.97, 1.96 11.57, 0 5.64 M0 18.92 C1.43 15.89, 0.58 10.51, 0 5.64 M0 5.64 C0.2 3.25, -0.93 -1.65, 5.64 0 M0 5.64 C3.06 4.87, 5.67 3.47, 5.64 0" stroke="#b8d432" stroke-width="4" fill="none"></path></g><g transform="translate(6 308.2804559061469) rotate(0 247.1404874442312 34.80851935834244)"><text x="0" y="0" font-family="Virgil, Segoe UI Emoji" font-size="55.69363097334787px" fill="#000000" text-anchor="start" style="white-space: pre;" direction="ltr" dominant-baseline="text-before-edge">Azure Event Hubs</text></g><g stroke-linecap="round" transform="translate(117 283.5) rotate(0 117.5 10)"><path d="M5 0 C59.58 -3.57, 118.41 2.43, 230 0 C233.59 0.74, 237.37 -3.32, 235 5 C233.22 9.31, 233.76 13.78, 235 15 C240.32 23.45, 235.49 15.94, 230 20 C175.87 19.1, 122.09 17.77, 5 20 C0.51 17.49, 3.67 17.59, 0 15 C1.63 9.55, 2.36 7.28, 0 5 C5.31 4.97, -0.01 1.51, 5 0" stroke="none" stroke-width="0" fill="#2170b7"></path><path d="M5 0 C88.76 4.94, 170.67 3.31, 230 0 M5 0 C65.07 0.59, 126.68 1.22, 230 0 M230 0 C230.55 2.34, 238.34 4.42, 235 5 M230 0 C232.63 -1.99, 236.58 0.7, 235 5 M235 5 C236.64 8.52, 233.74 11.05, 235 15 M235 5 C235.62 6.91, 235.6 9.84, 235 15 M235 15 C235.43 14.68, 230.54 18.83, 230 20 M235 15 C233.88 14.1, 237.72 16.23, 230 20 M230 20 C169.23 24.66, 109.84 21.77, 5 20 M230 20 C166.33 18.86, 103.24 21.53, 5 20 M5 20 C4.33 20.91, 0.4 20.6, 0 15 M5 20 C0.22 23.73, 2.55 21.49, 0 15 M0 15 C-0.5 9.66, 0.73 9.6, 0 5 M0 15 C0 11.79, -0.76 7.48, 0 5 M0 5 C2.66 4.26, 4.96 3.02, 5 0 M0 5 C-0.6 1.11, 0.43 3.86, 5 0" stroke="#2170b7" stroke-width="4" fill="none"></path></g><g stroke-linecap="round" transform="translate(117 6) rotate(0 117.5 10)"><path d="M5 0 C74.73 6.3, 149.68 3.37, 230 0 C235.7 -4.99, 237.48 0.51, 235 5 C233.65 9.32, 237.49 12.42, 235 15 C237.16 14.27, 230.37 19.88, 230 20 C167.85 17.82, 98.13 17.4, 5 20 C5.33 19.25, -1.56 23.59, 0 15 C2.43 8.74, 2.46 8.7, 0 5 C-1.68 3.18, -1.91 1.44, 5 0" stroke="none" stroke-width="0" fill="#2170b7"></path><path d="M5 0 C61.29 -1.95, 111.02 -1.14, 230 0 M5 0 C69.19 0.48, 133.3 0.74, 230 0 M230 0 C236.67 2.76, 234.39 -0.07, 235 5 M230 0 C234.91 -0.97, 231.14 0.59, 235 5 M235 5 C233.95 9.1, 234.99 10.02, 235 15 M235 5 C235.69 6.13, 235.22 8.3, 235 15 M235 15 C232.21 17.16, 232.36 16.32, 230 20 M235 15 C239.39 14.56, 231.9 23.93, 230 20 M230 20 C153.17 23.31, 74.17 23.21, 5 20 M230 20 C163.51 18.95, 96.05 17.82, 5 20 M5 20 C2.06 22.26, -1.26 21.58, 0 15 M5 20 C4.22 23.16, 2.8 22.1, 0 15 M0 15 C0.92 13.9, 1.14 9.7, 0 5 M0 15 C-0.71 12.25, 0.66 10.98, 0 5 M0 5 C3.29 4.68, 1.14 -0.49, 5 0 M0 5 C-1.23 5.52, -0.28 1.77, 5 0" stroke="#2170b7" stroke-width="4" fill="none"></path></g><g stroke-linecap="round" transform="translate(339.5 201) rotate(0 8.75 48.75)"><path d="M4.38 0 C6.67 0.14, 9.78 -2.37, 13.13 0 C18.52 -1.16, 14.32 -1.98, 17.5 4.38 C21.77 38.86, 18.61 59.05, 17.5 93.13 C14.54 95.92, 15.53 99.21, 13.13 97.5 C10.07 96.31, 9.63 97.09, 4.38 97.5 C-0.1 102.76, 5.47 99.82, 0 93.13 C2.98 78.46, -4.01 58.7, 0 4.38 C-3.57 2.9, -0.32 -1.84, 4.38 0" stroke="none" stroke-width="0" fill="#2170b7"></path><path d="M4.38 0 C7.15 0.83, 10.7 -1.11, 13.13 0 M4.38 0 C6.45 0.44, 10.48 0.53, 13.13 0 M13.13 0 C15.43 -1.73, 18.87 0.61, 17.5 4.38 M13.13 0 C12.18 -1.08, 14.59 5.34, 17.5 4.38 M17.5 4.38 C16.06 37.6, 12.85 72.07, 17.5 93.13 M17.5 4.38 C18.73 20.32, 17.12 39.33, 17.5 93.13 M17.5 93.13 C16.52 92.36, 19.86 94.22, 13.13 97.5 M17.5 93.13 C16.07 99.97, 18.11 97.11, 13.13 97.5 M13.13 97.5 C9.48 97.47, 6.39 97.75, 4.38 97.5 M13.13 97.5 C11.67 97.85, 9.13 98.15, 4.38 97.5 M4.38 97.5 C0.2 100.74, 2.22 98.79, 0 93.13 M4.38 97.5 C4.25 101.27, -0.39 95.28, 0 93.13 M0 93.13 C1.42 75.24, -3.45 55.43, 0 4.38 M0 93.13 C2.58 64.76, 2.89 35.31, 0 4.38 M0 4.38 C-0.52 0.97, 0.39 3.35, 4.38 0 M0 4.38 C-1.95 3.23, 2.43 -3.23, 4.38 0" stroke="#2170b7" stroke-width="4" fill="none"></path></g><g stroke-linecap="round" transform="translate(115.75 202.25) rotate(0 8.75 48.75)"><path d="M4.38 0 C8.69 -2.22, 12.01 -0.54, 13.13 0 C12.86 -3.44, 19.23 -0.9, 17.5 4.38 C22.02 32.94, 16.9 69.5, 17.5 93.13 C16.99 97.75, 15.57 101.32, 13.13 97.5 C12.42 97.06, 7.82 99.69, 4.38 97.5 C6.93 101.28, -5.46 101.29, 0 93.13 C-4.03 75.24, -5.93 55.77, 0 4.38 C-1.78 -0.38, -1.93 -1.01, 4.38 0" stroke="none" stroke-width="0" fill="#2170b7"></path><path d="M4.38 0 C7.02 -1.16, 10.21 -0.66, 13.13 0 M4.38 0 C8.11 0.5, 10.25 -0.48, 13.13 0 M13.13 0 C17.42 -0.84, 14.14 0.52, 17.5 4.38 M13.13 0 C13.13 3.88, 20.63 -1.34, 17.5 4.38 M17.5 4.38 C13.77 41.04, 13.35 75.26, 17.5 93.13 M17.5 4.38 C16.29 21.73, 17.2 38.42, 17.5 93.13 M17.5 93.13 C21.32 92.76, 14.79 100.92, 13.13 97.5 M17.5 93.13 C19.57 95.65, 19.95 98.59, 13.13 97.5 M13.13 97.5 C10.5 97.75, 6.69 98.58, 4.38 97.5 M13.13 97.5 C9.81 98.04, 6.05 98.25, 4.38 97.5 M4.38 97.5 C3.68 100.24, 2.43 99.32, 0 93.13 M4.38 97.5 C1.07 96.74, -3.98 98.09, 0 93.13 M0 93.13 C-3.64 58.65, 0.39 20.98, 0 4.38 M0 93.13 C0.47 71.66, -1.44 46.94, 0 4.38 M0 4.38 C-1.07 4.81, -0.24 1.54, 4.38 0 M0 4.38 C0.97 -1.77, -0.87 -2.39, 4.38 0" stroke="#2170b7" stroke-width="4" fill="none"></path></g><g stroke-linecap="round" transform="translate(335.75 7.25) rotate(0 8.75 48.75)"><path d="M4.38 0 C8.2 -0.29, 8.47 -1.28, 13.13 0 C17.77 -2.36, 21.28 6.78, 17.5 4.38 C15.49 38.99, 17.94 75.54, 17.5 93.13 C17.03 99.87, 14.02 96.34, 13.13 97.5 C10.21 99.77, 11.05 99.12, 4.38 97.5 C-4 102.75, -4.56 101.35, 0 93.13 C-2.83 62.71, -1.04 27.57, 0 4.38 C-3.39 0.45, 4.99 1.61, 4.38 0" stroke="none" stroke-width="0" fill="#2170b7"></path><path d="M4.38 0 C7.56 -0.46, 11.26 -1.11, 13.13 0 M4.38 0 C7.38 -0.5, 10.95 -0.31, 13.13 0 M13.13 0 C12.68 -0.94, 14.97 4.83, 17.5 4.38 M13.13 0 C19.17 -2.79, 21.48 1.04, 17.5 4.38 M17.5 4.38 C11.92 34.54, 12 60.55, 17.5 93.13 M17.5 4.38 C15.77 21.05, 18.17 39.76, 17.5 93.13 M17.5 93.13 C16.25 99.46, 17.84 97.16, 13.13 97.5 M17.5 93.13 C21.41 97.13, 16.08 96.77, 13.13 97.5 M13.13 97.5 C9.35 98.61, 9.46 98.69, 4.38 97.5 M13.13 97.5 C10.02 98.31, 7.96 98.2, 4.38 97.5 M4.38 97.5 C3.89 100.78, -0.34 95.38, 0 93.13 M4.38 97.5 C-2.52 99.55, 4.17 98.59, 0 93.13 M0 93.13 C2.55 61.33, -0.47 37.81, 0 4.38 M0 93.13 C-1.72 60.49, -2 30.02, 0 4.38 M0 4.38 C-1.7 3, 2.3 -2.81, 4.38 0 M0 4.38 C-2.33 -0.94, 4.87 0.21, 4.38 0" stroke="#2170b7" stroke-width="4" fill="none"></path></g><g stroke-linecap="round" transform="translate(115.75 14.75) rotate(0 8.75 48.75)"><path d="M4.38 0 C4.83 -1.45, 8.82 -0.98, 13.13 0 C19.83 5.32, 22.61 3.61, 17.5 4.38 C15.67 26.27, 15.72 48.58, 17.5 93.13 C15.48 94.88, 13.53 101.17, 13.13 97.5 C13.01 99.38, 5.72 100.03, 4.38 97.5 C-3.1 102.81, 3.3 94.36, 0 93.13 C-0.2 62.27, -1.8 34.08, 0 4.38 C3.53 3.06, 3.24 0.15, 4.38 0" stroke="none" stroke-width="0" fill="#2170b7"></path><path d="M4.38 0 C7.23 -1.16, 9.58 1.52, 13.13 0 M4.38 0 C7.9 -0.11, 10.1 -0.13, 13.13 0 M13.13 0 C13.51 3.37, 20.22 -0.97, 17.5 4.38 M13.13 0 C20.02 -0.41, 18.15 -2.65, 17.5 4.38 M17.5 4.38 C11.82 36.69, 12.07 65.36, 17.5 93.13 M17.5 4.38 C18.98 26.75, 16.44 54.12, 17.5 93.13 M17.5 93.13 C19.3 95.7, 19.44 98.44, 13.13 97.5 M17.5 93.13 C17.54 95.31, 15.95 97.51, 13.13 97.5 M13.13 97.5 C11.92 98.77, 8.03 97.78, 4.38 97.5 M13.13 97.5 C10.49 98.24, 7.42 98.36, 4.38 97.5 M4.38 97.5 C1.12 96.84, -3.46 97.82, 0 93.13 M4.38 97.5 C5.63 100.05, 1.23 92.99, 0 93.13 M0 93.13 C-2.25 68.72, 1.99 42.28, 0 4.38 M0 93.13 C-0.3 61.48, -0.62 27.26, 0 4.38 M0 4.38 C0.84 -1.35, -0.56 -2.08, 4.38 0 M0 4.38 C3.42 1.67, 2.07 1.95, 4.38 0" stroke="#2170b7" stroke-width="4" fill="none"></path></g></svg>