<svg version="1.1" xmlns="http://www.w3.org/2000/svg" viewBox="0 0 305.212201120019 360.5" width="305.212201120019" height="360.5">
  <!-- svg-source:excalidraw -->
  
  <defs>
    
    
  </defs>
  <g stroke-linecap="round" transform="translate(20.510832991631105 118.60266035051745) rotate(31.239393707294965 48.649163001700344 81.48406859575925)"><path d="M61.25 20.5 C68.4 33.97, 74.18 42.69, 85.05 61.5 C100.62 80.92, 95.12 79.53, 85.05 102.5 C81.23 113.64, 72.03 116.71, 61.25 142.47 C48.82 163.55, 46.29 164.58, 36.75 142.47 C32.09 125.67, 18.87 110.65, 12.25 102.5 C1.72 83.64, 3.18 81.81, 12.25 61.5 C18.31 48.92, 27.38 36.22, 36.75 20.5 C51.28 -0.23, 50.67 -1.49, 61.25 20.5" stroke="none" stroke-width="0" fill="#0072ca"></path><path d="M61.25 20.5 C68.23 33.04, 76.51 44.41, 85.05 61.5 M61.25 20.5 C68.55 31.61, 73.69 43.75, 85.05 61.5 M85.05 61.5 C98.21 83.2, 97.7 80.03, 85.05 102.5 M85.05 61.5 C97.74 84.25, 98.59 81.12, 85.05 102.5 M85.05 102.5 C80.67 113.65, 76.3 122.98, 61.25 142.47 M85.05 102.5 C75.98 117.49, 66.51 134.58, 61.25 142.47 M61.25 142.47 C48.94 162.54, 47.94 163.09, 36.75 142.47 M61.25 142.47 C46.91 161.13, 48.34 164, 36.75 142.47 M36.75 142.47 C30.07 131.02, 22.05 118.34, 12.25 102.5 M36.75 142.47 C29.04 129.56, 21.56 118.1, 12.25 102.5 M12.25 102.5 C-0.54 83.7, -0.11 83.81, 12.25 61.5 M12.25 102.5 C-2.05 80.01, 0.46 79.83, 12.25 61.5 M12.25 61.5 C18.38 53.26, 20.61 45.78, 36.75 20.5 M12.25 61.5 C21.28 46.29, 30.92 29.62, 36.75 20.5 M36.75 20.5 C50.34 0.85, 48.99 -0.56, 61.25 20.5 M36.75 20.5 C48.65 -1.8, 48.15 -0.33, 61.25 20.5" stroke="#0072ca" stroke-width="1" fill="none"></path></g><g stroke-linecap="round" transform="translate(126.87153615841908 82.1544224537206) rotate(31.239393707294965 48.649163001700344 107.55485203977491)"><path d="M61.25 27 C70.17 45.99, 81.72 63.95, 85.05 81 C95.12 105.53, 94.33 104.47, 85.05 135 C75.27 150.53, 68.69 173.18, 61.25 188.11 C46.29 216.72, 50.92 211.52, 36.75 188.11 C29.49 173.58, 27.36 167.29, 12.25 135 C3.18 107.81, -0.15 107.06, 12.25 81 C22.4 59.77, 33.58 39.63, 36.75 27 C50.67 -1.49, 52.44 -3.39, 61.25 27" stroke="none" stroke-width="0" fill="#2170b7"></path><path d="M61.25 27 C69.28 43.07, 75.48 59.74, 85.05 81 M61.25 27 C69.44 46.16, 78.33 64.12, 85.05 81 M85.05 81 C97.7 106.03, 97.68 109.95, 85.05 135 M85.05 81 C98.59 107.12, 95.72 109.79, 85.05 135 M85.05 135 C79.09 155.24, 70.75 173.46, 61.25 188.11 M85.05 135 C75.32 156.09, 66.66 175.31, 61.25 188.11 M61.25 188.11 C47.94 215.23, 47.18 213.51, 36.75 188.11 M61.25 188.11 C48.34 216.14, 49.28 215.63, 36.75 188.11 M36.75 188.11 C29.57 172.61, 21.4 153.64, 12.25 135 M36.75 188.11 C27.09 167.36, 18.16 148.29, 12.25 135 M12.25 135 C-0.11 109.81, -1.78 106.27, 12.25 81 M12.25 135 C0.46 105.83, -2.02 109.89, 12.25 81 M12.25 81 C19.54 62.21, 32.36 38.21, 36.75 27 M12.25 81 C20.91 61.28, 31.16 41.96, 36.75 27 M36.75 27 C48.99 -0.56, 48.7 -1.56, 61.25 27 M36.75 27 C48.15 -0.33, 48.36 -0.73, 61.25 27" stroke="#2170b7" stroke-width="1" fill="none"></path></g><g stroke-linecap="round" transform="translate(6 20) rotate(0 68 142)"><path d="M34 0 C62.55 -1.13, 82.27 -2.51, 102 0 C121.7 -3.53, 137.85 13.4, 136 34 C133.99 112.68, 131.78 191.76, 136 250 C137.92 269.08, 121.38 287.29, 102 284 C87.6 284.56, 72.94 282.74, 34 284 C11.18 283.06, 2.92 271.29, 0 250 C1.58 185.56, 1.04 120.22, 0 34 C3.44 7.94, 13.4 0.38, 34 0" stroke="none" stroke-width="0" fill="#2170b7"></path><path d="M34 0 C54.6 -0.7, 77.01 2.24, 102 0 M34 0 C54.71 -0.01, 74.71 -1.6, 102 0 M102 0 C125.05 1.95, 137.13 10.57, 136 34 M102 0 C123.09 1.79, 136.96 12.27, 136 34 M136 34 C139.37 119.91, 139.29 202.01, 136 250 M136 34 C135.06 83.62, 134.63 133.66, 136 250 M136 250 C134.18 271.07, 124.09 284.9, 102 284 M136 250 C136.28 273.18, 124.88 285.21, 102 284 M102 284 C78.29 282.51, 56.05 283.02, 34 284 M102 284 C87.92 284.65, 74.32 284.7, 34 284 M34 284 C9.55 282.27, 0.4 270.78, 0 250 M34 284 C9.32 285.89, 1.87 274.12, 0 250 M0 250 C3.15 176.75, 2.72 104.75, 0 34 M0 250 C1.86 166.9, 1.27 82.8, 0 34 M0 34 C-0.3 9.77, 10.59 -0.28, 34 0 M0 34 C-0.64 10.6, 12.6 0.58, 34 0" stroke="#2170b7" stroke-width="1" fill="none"></path></g><g stroke-linecap="round" transform="translate(8 6) rotate(0 65 28)"><path d="M43.9 1.58 C53.23 -0.41, 66.29 -0.47, 76.74 0.33 C87.18 1.13, 98.33 3.37, 106.57 6.39 C114.81 9.41, 122.52 13.89, 126.19 18.45 C129.85 23, 130.5 28.98, 128.56 33.73 C126.62 38.48, 121.56 43.5, 114.56 46.95 C107.57 50.41, 96.7 53.08, 86.59 54.45 C76.48 55.83, 64.66 56.2, 53.9 55.22 C43.14 54.23, 30.55 51.71, 22.04 48.56 C13.53 45.4, 6.25 40.49, 2.84 36.29 C-0.56 32.1, -0.61 27.91, 1.64 23.4 C3.88 18.88, 8.3 13, 16.31 9.21 C24.32 5.42, 42.69 2.18, 49.68 0.64 C56.67 -0.9, 57.8 -0.58, 58.27 -0.03 M33.01 2.87 C41.61 0.29, 54.25 0.3, 65.35 0.72 C76.45 1.15, 90.17 3.14, 99.62 5.44 C109.06 7.75, 117.03 10.48, 122.03 14.56 C127.02 18.65, 129.95 25.27, 129.59 29.93 C129.23 34.6, 125.42 38.85, 119.86 42.58 C114.3 46.31, 105.49 50.1, 96.23 52.32 C86.96 54.54, 75.03 56.07, 64.28 55.9 C53.54 55.72, 40.92 53.92, 31.76 51.26 C22.6 48.6, 14.47 43.93, 9.33 39.96 C4.18 35.99, 0.59 32.03, 0.88 27.44 C1.17 22.84, 5.49 16.24, 11.05 12.4 C16.62 8.55, 30.2 5.65, 34.27 4.38 C38.35 3.11, 35.01 4.34, 35.5 4.79" stroke="none" stroke-width="0" fill="#ced4da"></path><path d="M96.73 3.81 C106.33 5.65, 115.53 9.56, 120.91 13.49 C126.29 17.42, 128.6 22.64, 128.99 27.37 C129.37 32.09, 128.24 37.88, 123.2 41.84 C118.17 45.8, 108.02 48.71, 98.77 51.14 C89.52 53.57, 78.4 56, 67.7 56.4 C57 56.81, 44.09 55.68, 34.59 53.55 C25.08 51.42, 16.28 47.61, 10.67 43.65 C5.05 39.69, 1.25 34.66, 0.9 29.8 C0.56 24.94, 3.73 18.84, 8.6 14.49 C13.48 10.13, 20.93 6.11, 30.16 3.69 C39.39 1.28, 52.08 -0.14, 63.99 -0.02 C75.9 0.1, 94.51 3.35, 101.62 4.4 C108.73 5.45, 107.34 5.87, 106.63 6.3 M79.61 1.49 C89.94 2.11, 101.95 4.93, 109.96 7.98 C117.98 11.03, 124.86 15.23, 127.71 19.81 C130.56 24.38, 129.72 31.15, 127.05 35.44 C124.38 39.74, 119.02 42.45, 111.71 45.59 C104.39 48.74, 93.42 52.49, 83.15 54.32 C72.89 56.15, 60.53 57.31, 50.12 56.57 C39.71 55.83, 28.79 53.48, 20.7 49.88 C12.6 46.27, 4.68 39.87, 1.55 34.95 C-1.58 30.03, -0.48 24.48, 1.93 20.35 C4.35 16.23, 8.52 13.21, 16.04 10.19 C23.57 7.16, 36.42 3.99, 47.07 2.19 C57.72 0.4, 74.38 -0.64, 79.97 -0.58 C85.56 -0.51, 81.11 1.75, 80.6 2.57" stroke="#2170b7" stroke-width="1" fill="none"></path></g><g stroke-linecap="round" transform="translate(26 16) rotate(0 45 19)"><path d="M66.12 1.29 C73.85 2.69, 82.08 6.16, 85.99 9.72 C89.89 13.28, 91.02 18.88, 89.55 22.67 C88.09 26.45, 83.51 29.96, 77.2 32.45 C70.9 34.94, 60.61 37.1, 51.7 37.62 C42.79 38.13, 31.56 37.26, 23.74 35.55 C15.91 33.83, 8.65 30.49, 4.74 27.32 C0.82 24.16, -1.21 20.06, 0.25 16.55 C1.7 13.04, 7.17 8.97, 13.48 6.26 C19.78 3.54, 28.95 0.94, 38.08 0.26 C47.21 -0.41, 63.28 1.82, 68.28 2.21 C73.28 2.6, 68.76 2.45, 68.1 2.61 M55.64 -0.79 C63.74 -0.25, 74.24 3.99, 79.77 7.22 C85.3 10.45, 88.15 15.16, 88.8 18.59 C89.45 22.02, 88.46 24.54, 83.65 27.78 C78.84 31.03, 68.45 36.57, 59.95 38.08 C51.44 39.59, 41.12 37.9, 32.6 36.84 C24.08 35.79, 14.15 34.31, 8.84 31.74 C3.53 29.16, 1.05 25.25, 0.76 21.4 C0.46 17.56, 2.48 11.81, 7.07 8.66 C11.66 5.51, 20.16 3.85, 28.29 2.51 C36.43 1.16, 51.19 0.89, 55.88 0.59 C60.57 0.29, 56.35 0.42, 56.41 0.72" stroke="none" stroke-width="0" fill="#50e6ff"></path><path d="M36.87 0.56 C44.65 -0.42, 54.83 0.32, 62.9 1.95 C70.96 3.57, 80.86 7.19, 85.26 10.3 C89.66 13.4, 90.38 16.9, 89.3 20.57 C88.22 24.24, 84.65 29.33, 78.79 32.33 C72.93 35.32, 62.76 37.73, 54.14 38.54 C45.53 39.35, 35.02 38.74, 27.09 37.19 C19.17 35.64, 10.91 32.69, 6.59 29.24 C2.27 25.79, 0.36 20.45, 1.15 16.51 C1.93 12.57, 4.03 8.36, 11.29 5.61 C18.56 2.85, 38.1 0.9, 44.73 -0.03 C51.36 -0.95, 51.2 -0.13, 51.08 0.04 M27.66 1.84 C35.23 0.24, 46.64 0.41, 55.32 1.28 C64.01 2.15, 73.9 4.37, 79.75 7.06 C85.6 9.75, 90.02 13.6, 90.43 17.43 C90.84 21.25, 87.03 27.08, 82.22 30.02 C77.41 32.96, 69.65 33.87, 61.58 35.05 C53.52 36.22, 42.31 37.46, 33.81 37.07 C25.31 36.68, 16.21 35.23, 10.59 32.72 C4.97 30.21, 0.99 26.12, 0.08 21.98 C-0.83 17.85, 0.51 11.54, 5.13 7.89 C9.74 4.25, 24.21 0.89, 27.78 0.09 C31.34 -0.71, 26.07 2.4, 26.51 3.08" stroke="#50e6ff" stroke-width="1" fill="none"></path></g><g transform="translate(44 44) rotate(0 32 -2)" stroke="none"><path d="M0.15 -5.14 C1.47 -5.11, 5.3 -5.76, 8.13 -5.45 C10.96 -5.14, 15.96 -4.29, 17.11 -3.27 C18.25 -2.26, 14.68 0.49, 15.02 0.66 C15.35 0.82, 18.12 -2.4, 19.09 -2.25 C20.06 -2.11, 17.71 0.58, 20.85 1.52 C24 2.46, 32.91 3.51, 37.96 3.39 C43 3.28, 47.01 1.73, 51.11 0.81 C55.2 -0.1, 60.34 -1.13, 62.54 -2.08 C64.74 -3.03, 67.07 -4.89, 64.33 -4.88 C61.59 -4.86, 48.68 -1.97, 46.11 -1.98 C43.53 -2, 55.56 -4.06, 48.88 -4.96 C42.2 -5.87, 13 -7.91, 6.03 -7.4 C-0.95 -6.89, 8.25 -2.29, 7.03 -1.89 C5.82 -1.48, 0.15 -4.51, -1.24 -4.96" stroke="none" stroke-width="0" fill="#32bedd" fill-rule="evenodd"></path><path fill="#32bedd" d="M 1.66,-16.26 Q 1.66,-16.26 6.49,-15.53 11.33,-14.80 15.55,-13.34 19.76,-11.88 25.26,-11.04 30.75,-10.20 36.80,-11.00 42.85,-11.80 47.16,-12.49 51.47,-13.17 55.89,-13.47 60.30,-13.76 56.93,-5.17 53.56,3.41 56.15,6.81 58.73,10.21 50.52,8.33 42.31,6.46 37.37,7.38 32.43,8.31 27.86,8.40 23.29,8.50 17.97,8.58 12.65,8.66 5.80,8.81 -1.03,8.97 -3.23,8.02 -5.42,7.07 -7.19,5.46 -8.96,3.86 -10.13,1.78 -11.30,-0.30 -11.74,-2.65 -12.18,-5.00 -11.85,-7.36 -11.52,-9.73 -10.45,-11.87 -9.38,-14.01 -7.69,-15.69 -5.99,-17.37 -3.84,-18.43 -1.70,-19.48 0.66,-19.80 3.03,-20.11 5.38,-19.65 7.72,-19.19 9.80,-18.01 11.87,-16.82 13.46,-15.04 15.05,-13.25 15.99,-11.05 16.93,-8.85 17.11,-6.47 17.30,-4.09 16.71,-1.77 16.12,0.54 14.83,2.55 13.53,4.55 11.67,6.04 9.80,7.54 7.55,8.35 5.30,9.17 2.91,9.22 0.52,9.28 -1.75,8.57 -4.03,7.86 -5.97,6.45 -7.90,5.05 -9.29,3.11 -10.68,1.16 -11.37,-1.12 -12.06,-3.41 -11.99,-5.79 -11.91,-8.18 -11.08,-10.42 -10.25,-12.66 -8.74,-14.52 -7.24,-16.38 -5.22,-17.66 -3.20,-18.94 -0.88,-19.51 1.43,-20.07 3.82,-19.87 6.20,-19.67 6.20,-19.67 6.19,-19.67 2.98,-18.04 -0.22,-16.42 7.35,-18.52 14.92,-20.63 20.02,-20.55 25.12,-20.46 29.70,-20.36 34.27,-20.26 39.28,-20.08 44.29,-19.90 48.57,-18.44 52.86,-16.99 57.34,-16.73 61.82,-16.46 67.48,-12.13 73.13,-7.81 70.70,0.69 68.27,9.19 63.27,10.78 58.27,12.37 52.85,12.55 47.43,12.73 41.14,13.56 34.85,14.39 30.27,14.02 25.68,13.64 20.72,11.73 15.76,9.82 11.67,7.84 7.58,5.86 2.96,5.06 -1.66,4.26 -2.86,3.91 -4.07,3.56 -5.15,2.94 -6.24,2.31 -7.14,1.44 -8.05,0.57 -8.72,-0.47 -9.39,-1.53 -9.78,-2.72 -10.18,-3.91 -10.28,-5.16 -10.38,-6.41 -10.18,-7.65 -9.98,-8.88 -9.49,-10.04 -9.00,-11.19 -8.25,-12.19 -7.50,-13.19 -6.53,-13.99 -5.56,-14.78 -4.42,-15.32 -3.29,-15.86 -2.06,-16.11 -0.84,-16.36 0.41,-16.31 1.66,-16.26 1.66,-16.26 L 1.66,-16.26 Z"></path></g><g stroke-linecap="round" transform="translate(50 208) rotate(0 124 48)"><path d="M1.63 1.27 L248.66 -1.71 L249.89 97.77 L-1.52 97.27" stroke="none" stroke-width="0" fill="#2170b7"></path><path d="M0 0 C65.7 -0.6, 127.81 -0.61, 248 0 M0 0 C98.08 1.41, 197.62 1.11, 248 0 M248 0 C250.69 39.37, 250.6 74.38, 248 96 M248 0 C247.51 21.92, 247.01 44.33, 248 96 M248 96 C196.89 95.61, 144.67 95.57, 0 96 M248 96 C160.91 96.71, 72.45 97.34, 0 96 M0 96 C0.34 72.65, 2.63 50.28, 0 0 M0 96 C1.06 57.59, -0.02 21.88, 0 0" stroke="#2170b7" stroke-width="1" fill="none"></path></g><g stroke-linecap="round" transform="translate(205.3508369983001 92.44514796022486) rotate(21.66595872329022 48.649163001700344 107.55485203977491)"><path d="M49.66 -1.71 L99.19 109.77 L47.48 216.38 L-1.59 109.73" stroke="none" stroke-width="0" fill="#2170b7" fill-rule="evenodd"></path><path d="M49 0 C64.38 37.63, 85 75.72, 97.3 108 M49 0 C61.33 28.32, 74.46 57.18, 97.3 108 M97.3 108 C80.86 150.21, 58.78 191.93, 49 215.11 M97.3 108 C77.87 149.79, 58.62 190.77, 49 215.11 M49 215.11 C35.67 186.29, 22.98 158.04, 0 108 M49 215.11 C31.35 180.2, 15.26 142.7, 0 108 M0 108 C13.46 82.81, 25 55.93, 49 0 M0 108 C9.37 86.21, 21.53 62.95, 49 0" stroke="#2170b7" stroke-width="1" fill="none"></path></g><g stroke-linecap="round" transform="translate(46 230) rotate(0 20 19)"><path d="M-0.3 -0.61 L39.31 -0.83 L39.02 38.51 L0.57 38.62" stroke="none" stroke-width="0" fill="#ffffff"></path><path d="M0 0 C8.81 0.18, 16.95 0.15, 40 0 M0 0 C14.3 -0.05, 27.76 0.34, 40 0 M40 0 C39.52 8.75, 40.67 17.99, 40 38 M40 0 C39.93 14.36, 39.39 30.08, 40 38 M40 38 C23.89 39.01, 10.37 37.31, 0 38 M40 38 C25.12 38.23, 11.25 38.39, 0 38 M0 38 C-0.73 26.24, -0.09 14.94, 0 0 M0 38 C0.25 27.84, -0.09 18.08, 0 0" stroke="#ffffff" stroke-width="1" fill="none"></path></g><g stroke-linecap="round" transform="translate(144 227) rotate(0 20 19)"><path d="M-0.69 -0.83 L39.02 0.51 L40.57 38.62 L-0.54 37.06" stroke="none" stroke-width="0" fill="#ffffff"></path><path d="M0 0 C11.08 0.07, 22.23 0.47, 40 0 M0 0 C12.9 0.4, 26.37 -0.49, 40 0 M40 0 C40.8 8.81, 40.85 16.85, 40 38 M40 0 C39.6 8.53, 40.45 16.55, 40 38 M40 38 C27.56 37.43, 13.99 37.4, 0 38 M40 38 C24.88 38.24, 9.08 37.88, 0 38 M0 38 C0.01 26.9, -0.17 16.91, 0 0 M0 38 C-0.12 26.1, -0.29 12.97, 0 0" stroke="#ffffff" stroke-width="1" fill="none"></path></g><g stroke-linecap="round" transform="translate(232 227) rotate(0 20 19)"><path d="M-0.83 -0.98 L40.51 0.57 L40.62 37.46 L-0.94 37.95" stroke="none" stroke-width="0" fill="#ffffff"></path><path d="M0 0 C13.89 0.48, 28.09 0.29, 40 0 M0 0 C13.99 -0.14, 26.68 -0.16, 40 0 M40 0 C39.89 11.19, 39.06 19.71, 40 38 M40 0 C40.23 12.57, 40.14 24.49, 40 38 M40 38 C30.66 38.81, 22.04 39.04, 0 38 M40 38 C30.91 38.13, 21.26 38.06, 0 38 M0 38 C-0.21 29.25, 0.62 21.4, 0 0 M0 38 C0.45 23.75, -0.31 9.46, 0 0" stroke="#ffffff" stroke-width="1" fill="none"></path></g><g transform="translate(8 319.5) rotate(0 144 17.5)"><text x="144" y="0" font-family="Virgil, Segoe UI Emoji" font-size="28px" fill="#000000" text-anchor="middle" style="white-space: pre;" direction="ltr" dominant-baseline="text-before-edge">Azure Data Factory</text></g></svg>