<svg version="1.1" xmlns="http://www.w3.org/2000/svg" viewBox="0 0 91 136.71157560288003" width="91" height="136.71157560288003">
  <!-- svg-source:excalidraw -->
  
  <defs>
    
    
  </defs>
  <g stroke-linecap="round"><g transform="translate(14.408033294435882 12.583269732929807) rotate(359.2927358196319 16.973960962431875 24.139257066657354)" fill-rule="evenodd"><path d="M0 0 L0 47.65 L33.48 48.28 L33.95 0.44 L0 0" stroke="none" stroke-width="0" fill="#0078d4" fill-rule="evenodd"></path><path d="M0 0 C0 14.06, 0 28.12, 0 47.65 M0 0 C0 10.69, 0 21.37, 0 47.65 M0 47.65 C7.86 47.8, 15.72 47.95, 33.48 48.28 M0 47.65 C8.67 47.81, 17.35 47.98, 33.48 48.28 M33.48 48.28 C33.6 36.09, 33.72 23.9, 33.95 0.44 M33.48 48.28 C33.6 35.7, 33.73 23.12, 33.95 0.44 M33.95 0.44 C22.84 0.3, 11.73 0.15, 0 0 M33.95 0.44 C25.31 0.33, 16.67 0.22, 0 0 M0 0 C0 0, 0 0, 0 0 M0 0 C0 0, 0 0, 0 0" stroke="#0078d4" stroke-width="1" fill="none"></path></g></g><mask></mask><g stroke-linecap="round" transform="translate(13.474326369887649 6) rotate(0 16.872209131375712 4.440055034572559)"><path d="M33.74 4.44 C33.74 4.7, 33.66 4.96, 33.49 5.21 C33.32 5.46, 33.06 5.72, 32.73 5.96 C32.39 6.2, 31.97 6.44, 31.48 6.66 C31 6.88, 30.42 7.1, 29.8 7.29 C29.17 7.49, 28.47 7.68, 27.72 7.84 C26.97 8.01, 26.15 8.16, 25.31 8.29 C24.46 8.41, 23.56 8.52, 22.64 8.61 C21.73 8.7, 20.76 8.77, 19.8 8.81 C18.84 8.86, 17.85 8.88, 16.87 8.88 C15.9 8.88, 14.9 8.86, 13.94 8.81 C12.98 8.77, 12.02 8.7, 11.1 8.61 C10.18 8.52, 9.28 8.41, 8.44 8.29 C7.59 8.16, 6.78 8.01, 6.03 7.84 C5.28 7.68, 4.58 7.49, 3.95 7.29 C3.32 7.1, 2.75 6.88, 2.26 6.66 C1.77 6.44, 1.35 6.2, 1.02 5.96 C0.68 5.72, 0.43 5.46, 0.26 5.21 C0.09 4.96, 0 4.7, 0 4.44 C0 4.18, 0.09 3.92, 0.26 3.67 C0.43 3.42, 0.68 3.16, 1.02 2.92 C1.35 2.68, 1.77 2.44, 2.26 2.22 C2.75 2, 3.32 1.78, 3.95 1.59 C4.58 1.39, 5.28 1.2, 6.03 1.04 C6.78 0.87, 7.59 0.72, 8.44 0.59 C9.28 0.47, 10.18 0.36, 11.1 0.27 C12.02 0.18, 12.98 0.11, 13.94 0.07 C14.9 0.02, 15.9 0, 16.87 0 C17.85 0, 18.84 0.02, 19.8 0.07 C20.76 0.11, 21.73 0.18, 22.64 0.27 C23.56 0.36, 24.46 0.47, 25.31 0.59 C26.15 0.72, 26.97 0.87, 27.72 1.04 C28.47 1.2, 29.17 1.39, 29.8 1.59 C30.42 1.78, 31 2, 31.48 2.22 C31.97 2.44, 32.39 2.68, 32.73 2.92 C33.06 3.16, 33.32 3.42, 33.49 3.67 C33.66 3.92, 33.7 4.31, 33.74 4.44 C33.79 4.57, 33.79 4.31, 33.74 4.44" stroke="none" stroke-width="0" fill="#0078d4"></path><path d="M33.74 4.44 C33.74 4.7, 33.66 4.96, 33.49 5.21 C33.32 5.46, 33.06 5.72, 32.73 5.96 C32.39 6.2, 31.97 6.44, 31.48 6.66 C31 6.88, 30.42 7.1, 29.8 7.29 C29.17 7.49, 28.47 7.68, 27.72 7.84 C26.97 8.01, 26.15 8.16, 25.31 8.29 C24.46 8.41, 23.56 8.52, 22.64 8.61 C21.73 8.7, 20.76 8.77, 19.8 8.81 C18.84 8.86, 17.85 8.88, 16.87 8.88 C15.9 8.88, 14.9 8.86, 13.94 8.81 C12.98 8.77, 12.02 8.7, 11.1 8.61 C10.18 8.52, 9.28 8.41, 8.44 8.29 C7.59 8.16, 6.78 8.01, 6.03 7.84 C5.28 7.68, 4.58 7.49, 3.95 7.29 C3.32 7.1, 2.75 6.88, 2.26 6.66 C1.77 6.44, 1.35 6.2, 1.02 5.96 C0.68 5.72, 0.43 5.46, 0.26 5.21 C0.09 4.96, 0 4.7, 0 4.44 C0 4.18, 0.09 3.92, 0.26 3.67 C0.43 3.42, 0.68 3.16, 1.02 2.92 C1.35 2.68, 1.77 2.44, 2.26 2.22 C2.75 2, 3.32 1.78, 3.95 1.59 C4.58 1.39, 5.28 1.2, 6.03 1.04 C6.78 0.87, 7.59 0.72, 8.44 0.59 C9.28 0.47, 10.18 0.36, 11.1 0.27 C12.02 0.18, 12.98 0.11, 13.94 0.07 C14.9 0.02, 15.9 0, 16.87 0 C17.85 0, 18.84 0.02, 19.8 0.07 C20.76 0.11, 21.73 0.18, 22.64 0.27 C23.56 0.36, 24.46 0.47, 25.31 0.59 C26.15 0.72, 26.97 0.87, 27.72 1.04 C28.47 1.2, 29.17 1.39, 29.8 1.59 C30.42 1.78, 31 2, 31.48 2.22 C31.97 2.44, 32.39 2.68, 32.73 2.92 C33.06 3.16, 33.32 3.42, 33.49 3.67 C33.66 3.92, 33.7 4.31, 33.74 4.44 C33.79 4.57, 33.79 4.31, 33.74 4.44" stroke="#ffff" stroke-width="4" fill="none"></path></g><g stroke-linecap="round" transform="translate(14.362337376802543 54.84060538029905) rotate(0 16.280201793432752 5.476067875972845)"><path d="M32.56 5.48 C32.56 5.79, 32.48 6.11, 32.31 6.43 C32.15 6.74, 31.9 7.05, 31.58 7.35 C31.26 7.65, 30.85 7.94, 30.38 8.21 C29.91 8.49, 29.36 8.75, 28.75 9 C28.15 9.24, 27.47 9.47, 26.74 9.67 C26.02 9.87, 25.24 10.06, 24.42 10.22 C23.6 10.38, 22.73 10.51, 21.85 10.62 C20.96 10.73, 20.04 10.81, 19.11 10.87 C18.18 10.92, 17.22 10.95, 16.28 10.95 C15.34 10.95, 14.38 10.92, 13.45 10.87 C12.53 10.81, 11.6 10.73, 10.71 10.62 C9.83 10.51, 8.96 10.38, 8.14 10.22 C7.32 10.06, 6.54 9.87, 5.82 9.67 C5.09 9.47, 4.41 9.24, 3.81 9 C3.2 8.75, 2.65 8.49, 2.18 8.21 C1.71 7.94, 1.3 7.65, 0.98 7.35 C0.66 7.05, 0.41 6.74, 0.25 6.43 C0.08 6.11, 0 5.79, 0 5.48 C0 5.16, 0.08 4.84, 0.25 4.53 C0.41 4.21, 0.66 3.9, 0.98 3.6 C1.3 3.31, 1.71 3.01, 2.18 2.74 C2.65 2.46, 3.2 2.2, 3.81 1.96 C4.41 1.71, 5.09 1.48, 5.82 1.28 C6.54 1.08, 7.32 0.89, 8.14 0.73 C8.96 0.58, 9.83 0.44, 10.71 0.33 C11.6 0.22, 12.53 0.14, 13.45 0.08 C14.38 0.03, 15.34 0, 16.28 0 C17.22 0, 18.18 0.03, 19.11 0.08 C20.04 0.14, 20.96 0.22, 21.85 0.33 C22.73 0.44, 23.6 0.58, 24.42 0.73 C25.24 0.89, 26.02 1.08, 26.74 1.28 C27.47 1.48, 28.15 1.71, 28.75 1.96 C29.36 2.2, 29.91 2.46, 30.38 2.74 C30.85 3.01, 31.26 3.31, 31.58 3.6 C31.9 3.9, 32.15 4.21, 32.31 4.53 C32.48 4.84, 32.52 5.32, 32.56 5.48 C32.6 5.63, 32.6 5.32, 32.56 5.48" stroke="none" stroke-width="0" fill="#0078d4"></path><path d="M32.56 5.48 C32.56 5.79, 32.48 6.11, 32.31 6.43 C32.15 6.74, 31.9 7.05, 31.58 7.35 C31.26 7.65, 30.85 7.94, 30.38 8.21 C29.91 8.49, 29.36 8.75, 28.75 9 C28.15 9.24, 27.47 9.47, 26.74 9.67 C26.02 9.87, 25.24 10.06, 24.42 10.22 C23.6 10.38, 22.73 10.51, 21.85 10.62 C20.96 10.73, 20.04 10.81, 19.11 10.87 C18.18 10.92, 17.22 10.95, 16.28 10.95 C15.34 10.95, 14.38 10.92, 13.45 10.87 C12.53 10.81, 11.6 10.73, 10.71 10.62 C9.83 10.51, 8.96 10.38, 8.14 10.22 C7.32 10.06, 6.54 9.87, 5.82 9.67 C5.09 9.47, 4.41 9.24, 3.81 9 C3.2 8.75, 2.65 8.49, 2.18 8.21 C1.71 7.94, 1.3 7.65, 0.98 7.35 C0.66 7.05, 0.41 6.74, 0.25 6.43 C0.08 6.11, 0 5.79, 0 5.48 C0 5.16, 0.08 4.84, 0.25 4.53 C0.41 4.21, 0.66 3.9, 0.98 3.6 C1.3 3.31, 1.71 3.01, 2.18 2.74 C2.65 2.46, 3.2 2.2, 3.81 1.96 C4.41 1.71, 5.09 1.48, 5.82 1.28 C6.54 1.08, 7.32 0.89, 8.14 0.73 C8.96 0.58, 9.83 0.44, 10.71 0.33 C11.6 0.22, 12.53 0.14, 13.45 0.08 C14.38 0.03, 15.34 0, 16.28 0 C17.22 0, 18.18 0.03, 19.11 0.08 C20.04 0.14, 20.96 0.22, 21.85 0.33 C22.73 0.44, 23.6 0.58, 24.42 0.73 C25.24 0.89, 26.02 1.08, 26.74 1.28 C27.47 1.48, 28.15 1.71, 28.75 1.96 C29.36 2.2, 29.91 2.46, 30.38 2.74 C30.85 3.01, 31.26 3.31, 31.58 3.6 C31.9 3.9, 32.15 4.21, 32.31 4.53 C32.48 4.84, 32.52 5.32, 32.56 5.48 C32.6 5.63, 32.6 5.32, 32.56 5.48" stroke="#ffff" stroke-width="1" fill="none"></path></g><g stroke-linecap="round" transform="translate(18.587749351751654 7.859717985787029) rotate(0 11.835958578025725 1.5234402130131954)"><path d="M23.67 1.52 C23.67 1.61, 23.61 1.7, 23.49 1.79 C23.37 1.87, 23.19 1.96, 22.96 2.04 C22.72 2.13, 22.43 2.21, 22.09 2.29 C21.74 2.36, 21.34 2.44, 20.9 2.5 C20.46 2.57, 19.97 2.63, 19.44 2.69 C18.92 2.75, 18.35 2.8, 17.75 2.84 C17.16 2.89, 16.53 2.92, 15.88 2.96 C15.24 2.99, 14.57 3.01, 13.89 3.02 C13.22 3.04, 12.52 3.05, 11.84 3.05 C11.15 3.05, 10.46 3.04, 9.78 3.02 C9.11 3.01, 8.43 2.99, 7.79 2.96 C7.14 2.92, 6.51 2.89, 5.92 2.84 C5.32 2.8, 4.75 2.75, 4.23 2.69 C3.7 2.63, 3.21 2.57, 2.77 2.5 C2.33 2.44, 1.93 2.36, 1.59 2.29 C1.24 2.21, 0.95 2.13, 0.71 2.04 C0.48 1.96, 0.3 1.87, 0.18 1.79 C0.06 1.7, 0 1.61, 0 1.52 C0 1.44, 0.06 1.35, 0.18 1.26 C0.3 1.17, 0.48 1.09, 0.71 1 C0.95 0.92, 1.24 0.84, 1.59 0.76 C1.93 0.69, 2.33 0.61, 2.77 0.54 C3.21 0.48, 3.7 0.41, 4.23 0.36 C4.75 0.3, 5.32 0.25, 5.92 0.2 C6.51 0.16, 7.14 0.12, 7.79 0.09 C8.43 0.06, 9.11 0.04, 9.78 0.02 C10.46 0.01, 11.15 0, 11.84 0 C12.52 0, 13.22 0.01, 13.89 0.02 C14.57 0.04, 15.24 0.06, 15.88 0.09 C16.53 0.12, 17.16 0.16, 17.75 0.2 C18.35 0.25, 18.92 0.3, 19.44 0.36 C19.97 0.41, 20.46 0.48, 20.9 0.54 C21.34 0.61, 21.74 0.69, 22.09 0.76 C22.43 0.84, 22.72 0.92, 22.96 1 C23.19 1.09, 23.37 1.17, 23.49 1.26 C23.61 1.35, 23.64 1.48, 23.67 1.52 C23.7 1.57, 23.7 1.48, 23.67 1.52" stroke="none" stroke-width="0" fill="#50e6ff"></path><path d="M23.67 1.52 C23.67 1.61, 23.61 1.7, 23.49 1.79 C23.37 1.87, 23.19 1.96, 22.96 2.04 C22.72 2.13, 22.43 2.21, 22.09 2.29 C21.74 2.36, 21.34 2.44, 20.9 2.5 C20.46 2.57, 19.97 2.63, 19.44 2.69 C18.92 2.75, 18.35 2.8, 17.75 2.84 C17.16 2.89, 16.53 2.92, 15.88 2.96 C15.24 2.99, 14.57 3.01, 13.89 3.02 C13.22 3.04, 12.52 3.05, 11.84 3.05 C11.15 3.05, 10.46 3.04, 9.78 3.02 C9.11 3.01, 8.43 2.99, 7.79 2.96 C7.14 2.92, 6.51 2.89, 5.92 2.84 C5.32 2.8, 4.75 2.75, 4.23 2.69 C3.7 2.63, 3.21 2.57, 2.77 2.5 C2.33 2.44, 1.93 2.36, 1.59 2.29 C1.24 2.21, 0.95 2.13, 0.71 2.04 C0.48 1.96, 0.3 1.87, 0.18 1.79 C0.06 1.7, 0 1.61, 0 1.52 C0 1.44, 0.06 1.35, 0.18 1.26 C0.3 1.17, 0.48 1.09, 0.71 1 C0.95 0.92, 1.24 0.84, 1.59 0.76 C1.93 0.69, 2.33 0.61, 2.77 0.54 C3.21 0.48, 3.7 0.41, 4.23 0.36 C4.75 0.3, 5.32 0.25, 5.92 0.2 C6.51 0.16, 7.14 0.12, 7.79 0.09 C8.43 0.06, 9.11 0.04, 9.78 0.02 C10.46 0.01, 11.15 0, 11.84 0 C12.52 0, 13.22 0.01, 13.89 0.02 C14.57 0.04, 15.24 0.06, 15.88 0.09 C16.53 0.12, 17.16 0.16, 17.75 0.2 C18.35 0.25, 18.92 0.3, 19.44 0.36 C19.97 0.41, 20.46 0.48, 20.9 0.54 C21.34 0.61, 21.74 0.69, 22.09 0.76 C22.43 0.84, 22.72 0.92, 22.96 1 C23.19 1.09, 23.37 1.17, 23.49 1.26 C23.61 1.35, 23.64 1.48, 23.67 1.52 C23.7 1.57, 23.7 1.48, 23.67 1.52" stroke="#50e6ff" stroke-width="1" fill="none"></path></g><g stroke-linecap="round"><g transform="translate(26.6702193094452 30.220056147771587) rotate(0 4.061620269001992 5.194902548725636)" fill-rule="evenodd"><path d="M0 0 L2.49 -6.76 L4.81 0.49 L10.94 -2.8 L9.28 3.3 L15.58 3.3 L9.45 6.6 L15.09 10.06 L7.79 10.55 L11.11 16.49 L5.14 12.7 L0.5 17.15 L0.99 10.55 L-4.81 13.85 L-0.66 7.42 L-7.46 6.76 L-1.49 3.79 L-6.47 -1.48 L0 0" stroke="none" stroke-width="0" fill="#ffff" fill-rule="evenodd"></path><path d="M0 0 C0.55 -1.51, 1.11 -3.01, 2.49 -6.76 M0 0 C0.96 -2.62, 1.93 -5.25, 2.49 -6.76 M2.49 -6.76 C3.06 -4.98, 3.62 -3.2, 4.81 0.49 M2.49 -6.76 C3.02 -5.08, 3.56 -3.41, 4.81 0.49 M4.81 0.49 C6.94 -0.65, 9.07 -1.8, 10.94 -2.8 M4.81 0.49 C6.95 -0.66, 9.09 -1.81, 10.94 -2.8 M10.94 -2.8 C10.41 -0.83, 9.87 1.14, 9.28 3.3 M10.94 -2.8 C10.57 -1.45, 10.21 -0.09, 9.28 3.3 M9.28 3.3 C11.62 3.3, 13.97 3.3, 15.58 3.3 M9.28 3.3 C11.77 3.3, 14.26 3.3, 15.58 3.3 M15.58 3.3 C14.34 3.97, 13.09 4.64, 9.45 6.6 M15.58 3.3 C13.89 4.21, 12.2 5.12, 9.45 6.6 M9.45 6.6 C11.39 7.79, 13.34 8.98, 15.09 10.06 M9.45 6.6 C11.28 7.72, 13.12 8.85, 15.09 10.06 M15.09 10.06 C13.28 10.18, 11.47 10.31, 7.79 10.55 M15.09 10.06 C13.23 10.19, 11.38 10.31, 7.79 10.55 M7.79 10.55 C9.1 12.89, 10.4 15.23, 11.11 16.49 M7.79 10.55 C8.5 11.81, 9.2 13.07, 11.11 16.49 M11.11 16.49 C8.72 14.98, 6.33 13.46, 5.14 12.7 M11.11 16.49 C8.79 15.02, 6.47 13.55, 5.14 12.7 M5.14 12.7 C3.63 14.15, 2.12 15.59, 0.5 17.15 M5.14 12.7 C3.29 14.47, 1.44 16.25, 0.5 17.15 M0.5 17.15 C0.69 14.66, 0.87 12.16, 0.99 10.55 M0.5 17.15 C0.64 15.28, 0.78 13.4, 0.99 10.55 M0.99 10.55 C-0.29 11.29, -1.58 12.02, -4.81 13.85 M0.99 10.55 C-0.75 11.55, -2.5 12.54, -4.81 13.85 M-4.81 13.85 C-3.65 12.05, -2.49 10.25, -0.66 7.42 M-4.81 13.85 C-3.49 11.81, -2.18 9.77, -0.66 7.42 M-0.66 7.42 C-2.33 7.26, -4 7.1, -7.46 6.76 M-0.66 7.42 C-2.06 7.29, -3.47 7.15, -7.46 6.76 M-7.46 6.76 C-5.18 5.63, -2.9 4.49, -1.49 3.79 M-7.46 6.76 C-6.04 6.06, -4.63 5.35, -1.49 3.79 M-1.49 3.79 C-2.67 2.55, -3.84 1.3, -6.47 -1.48 M-1.49 3.79 C-2.85 2.35, -4.21 0.9, -6.47 -1.48 M-6.47 -1.48 C-4.28 -0.98, -2.1 -0.48, 0 0 M-6.47 -1.48 C-4.12 -0.94, -1.77 -0.41, 0 0 M0 0 C0 0, 0 0, 0 0 M0 0 C0 0, 0 0, 0 0" stroke="#ffff" stroke-width="1" fill="none"></path></g></g><mask></mask><g stroke-linecap="round" transform="translate(26.81879610018632 32.37148043562769) rotate(0 3.586956521739239 3.4782608695652186)"><path d="M7.17 3.48 C7.17 3.68, 7.16 3.88, 7.12 4.08 C7.08 4.28, 7.03 4.48, 6.96 4.67 C6.89 4.86, 6.8 5.04, 6.69 5.22 C6.59 5.39, 6.47 5.56, 6.33 5.71 C6.2 5.87, 6.05 6.01, 5.89 6.14 C5.73 6.27, 5.56 6.39, 5.38 6.49 C5.2 6.59, 5.01 6.68, 4.81 6.75 C4.62 6.82, 4.41 6.87, 4.21 6.9 C4.01 6.94, 3.79 6.96, 3.59 6.96 C3.38 6.96, 3.17 6.94, 2.96 6.9 C2.76 6.87, 2.56 6.82, 2.36 6.75 C2.17 6.68, 1.97 6.59, 1.79 6.49 C1.61 6.39, 1.44 6.27, 1.28 6.14 C1.12 6.01, 0.97 5.87, 0.84 5.71 C0.71 5.56, 0.58 5.39, 0.48 5.22 C0.38 5.04, 0.29 4.86, 0.22 4.67 C0.15 4.48, 0.09 4.28, 0.05 4.08 C0.02 3.88, 0 3.68, 0 3.48 C0 3.28, 0.02 3.07, 0.05 2.87 C0.09 2.68, 0.15 2.48, 0.22 2.29 C0.29 2.1, 0.38 1.91, 0.48 1.74 C0.58 1.56, 0.71 1.4, 0.84 1.24 C0.97 1.09, 1.12 0.94, 1.28 0.81 C1.44 0.68, 1.61 0.57, 1.79 0.47 C1.97 0.37, 2.17 0.28, 2.36 0.21 C2.56 0.14, 2.76 0.09, 2.96 0.05 C3.17 0.02, 3.38 0, 3.59 0 C3.79 0, 4.01 0.02, 4.21 0.05 C4.41 0.09, 4.62 0.14, 4.81 0.21 C5.01 0.28, 5.2 0.37, 5.38 0.47 C5.56 0.57, 5.73 0.68, 5.89 0.81 C6.05 0.94, 6.2 1.09, 6.33 1.24 C6.47 1.4, 6.59 1.56, 6.69 1.74 C6.8 1.91, 6.89 2.1, 6.96 2.29 C7.03 2.48, 7.08 2.68, 7.12 2.87 C7.16 3.07, 7.16 3.38, 7.17 3.48 C7.18 3.58, 7.18 3.38, 7.17 3.48" stroke="none" stroke-width="0" fill="#ffff"></path><path d="M7.17 3.48 C7.17 3.68, 7.16 3.88, 7.12 4.08 C7.08 4.28, 7.03 4.48, 6.96 4.67 C6.89 4.86, 6.8 5.04, 6.69 5.22 C6.59 5.39, 6.47 5.56, 6.33 5.71 C6.2 5.87, 6.05 6.01, 5.89 6.14 C5.73 6.27, 5.56 6.39, 5.38 6.49 C5.2 6.59, 5.01 6.68, 4.81 6.75 C4.62 6.82, 4.41 6.87, 4.21 6.9 C4.01 6.94, 3.79 6.96, 3.59 6.96 C3.38 6.96, 3.17 6.94, 2.96 6.9 C2.76 6.87, 2.56 6.82, 2.36 6.75 C2.17 6.68, 1.97 6.59, 1.79 6.49 C1.61 6.39, 1.44 6.27, 1.28 6.14 C1.12 6.01, 0.97 5.87, 0.84 5.71 C0.71 5.56, 0.58 5.39, 0.48 5.22 C0.38 5.04, 0.29 4.86, 0.22 4.67 C0.15 4.48, 0.09 4.28, 0.05 4.08 C0.02 3.88, 0 3.68, 0 3.48 C0 3.28, 0.02 3.07, 0.05 2.87 C0.09 2.68, 0.15 2.48, 0.22 2.29 C0.29 2.1, 0.38 1.91, 0.48 1.74 C0.58 1.56, 0.71 1.4, 0.84 1.24 C0.97 1.09, 1.12 0.94, 1.28 0.81 C1.44 0.68, 1.61 0.57, 1.79 0.47 C1.97 0.37, 2.17 0.28, 2.36 0.21 C2.56 0.14, 2.76 0.09, 2.96 0.05 C3.17 0.02, 3.38 0, 3.59 0 C3.79 0, 4.01 0.02, 4.21 0.05 C4.41 0.09, 4.62 0.14, 4.81 0.21 C5.01 0.28, 5.2 0.37, 5.38 0.47 C5.56 0.57, 5.73 0.68, 5.89 0.81 C6.05 0.94, 6.2 1.09, 6.33 1.24 C6.47 1.4, 6.59 1.56, 6.69 1.74 C6.8 1.91, 6.89 2.1, 6.96 2.29 C7.03 2.48, 7.08 2.68, 7.12 2.87 C7.16 3.07, 7.16 3.38, 7.17 3.48 C7.18 3.58, 7.18 3.38, 7.17 3.48" stroke="#0078d4" stroke-width="1" fill="none"></path></g><g transform="translate(6 70.71157560288003) rotate(0 39.5 30)"><text x="0" y="0" font-family="Virgil, Segoe UI Emoji" font-size="16px" fill="#343a40" text-anchor="start" style="white-space: pre;" direction="ltr" dominant-baseline="text-before-edge">StorSimple</text><text x="0" y="20" font-family="Virgil, Segoe UI Emoji" font-size="16px" fill="#343a40" text-anchor="start" style="white-space: pre;" direction="ltr" dominant-baseline="text-before-edge">Data</text><text x="0" y="40" font-family="Virgil, Segoe UI Emoji" font-size="16px" fill="#343a40" text-anchor="start" style="white-space: pre;" direction="ltr" dominant-baseline="text-before-edge">Managers</text></g></svg>