<svg version="1.1" xmlns="http://www.w3.org/2000/svg" viewBox="0 0 96.97585231906862 125.04527089245164" width="96.97585231906862" height="125.04527089245164">
  <!-- svg-source:excalidraw -->
  
  <defs>
    
    
  </defs>
  <g stroke-linecap="round"><g transform="translate(39.81631314902711 46.49704290560487) rotate(4.886142323867398 -3.025442119017441 9.215686274509778)" fill-rule="evenodd"><path d="M0 0 C-2.12 3.07, -13.8 17.55, -12.69 18.43 C-11.59 19.32, 4.53 8.38, 6.64 5.31 C8.76 2.24, 1.11 0.88, 0 0" stroke="none" stroke-width="0" fill="#fea408" fill-rule="evenodd"></path><path d="M0 0 C-2.12 3.07, -13.8 17.55, -12.69 18.43 C-11.59 19.32, 4.53 8.38, 6.64 5.31 C8.76 2.24, 1.11 0.88, 0 0 M0 0 C-2.12 3.07, -13.8 17.55, -12.69 18.43 C-11.59 19.32, 4.53 8.38, 6.64 5.31 C8.76 2.24, 1.11 0.88, 0 0" stroke="#dd5900" stroke-width="2" fill="none"></path></g></g><mask></mask><g stroke-linecap="round"><g transform="translate(31.380339724557416 36.23010404352999) rotate(0 13.028169014084483 12.183098591549253)" fill-rule="evenodd"><path d="M0 0 C4.34 4.06, 22.61 23.45, 26.06 24.37 C29.51 25.29, 25.05 9.59, 20.7 5.52 C16.36 1.46, 3.45 0.92, 0 0" stroke="none" stroke-width="0" fill="#dd5900" fill-rule="evenodd"></path><path d="M0 0 C4.34 4.06, 22.61 23.45, 26.06 24.37 C29.51 25.29, 25.05 9.59, 20.7 5.52 C16.36 1.46, 3.45 0.92, 0 0 M0 0 C4.34 4.06, 22.61 23.45, 26.06 24.37 C29.51 25.29, 25.05 9.59, 20.7 5.52 C16.36 1.46, 3.45 0.92, 0 0" stroke="#dd5900" stroke-width="2" fill="none"></path></g></g><mask></mask><g stroke-linecap="round" transform="translate(30.37755664982342 22.65224909251799) rotate(317.9430495098004 32.43242327604321 8.677541632360203)"><path d="M64.86 8.68 C64.86 9.18, 64.7 9.69, 64.37 10.18 C64.05 10.68, 63.55 11.17, 62.91 11.65 C62.27 12.12, 61.46 12.58, 60.52 13.02 C59.58 13.45, 58.48 13.87, 57.28 14.26 C56.07 14.64, 54.72 15, 53.28 15.32 C51.84 15.65, 50.27 15.94, 48.65 16.19 C47.02 16.44, 45.29 16.66, 43.52 16.83 C41.76 17, 39.91 17.14, 38.06 17.22 C36.22 17.31, 34.31 17.36, 32.43 17.36 C30.56 17.36, 28.65 17.31, 26.8 17.22 C24.95 17.14, 23.1 17, 21.34 16.83 C19.58 16.66, 17.84 16.44, 16.22 16.19 C14.59 15.94, 13.02 15.65, 11.59 15.32 C10.15 15, 8.79 14.64, 7.59 14.26 C6.38 13.87, 5.28 13.45, 4.35 13.02 C3.41 12.58, 2.6 12.12, 1.96 11.65 C1.31 11.17, 0.82 10.68, 0.49 10.18 C0.17 9.69, 0 9.18, 0 8.68 C0 8.18, 0.17 7.67, 0.49 7.17 C0.82 6.68, 1.31 6.18, 1.96 5.71 C2.6 5.24, 3.41 4.77, 4.35 4.34 C5.28 3.9, 6.38 3.48, 7.59 3.1 C8.79 2.71, 10.15 2.35, 11.59 2.03 C13.02 1.71, 14.59 1.41, 16.22 1.16 C17.84 0.91, 19.58 0.7, 21.34 0.52 C23.1 0.35, 24.95 0.22, 26.8 0.13 C28.65 0.04, 30.56 0, 32.43 0 C34.31 0, 36.22 0.04, 38.06 0.13 C39.91 0.22, 41.76 0.35, 43.52 0.52 C45.29 0.7, 47.02 0.91, 48.65 1.16 C50.27 1.41, 51.84 1.71, 53.28 2.03 C54.72 2.35, 56.07 2.71, 57.28 3.1 C58.48 3.48, 59.58 3.9, 60.52 4.34 C61.46 4.77, 62.27 5.24, 62.91 5.71 C63.55 6.18, 64.05 6.68, 64.37 7.17 C64.7 7.67, 64.78 8.43, 64.86 8.68 C64.95 8.93, 64.95 8.43, 64.86 8.68" stroke="none" stroke-width="0" fill="#ff8c00"></path><path d="M64.86 8.68 C64.86 9.18, 64.7 9.69, 64.37 10.18 C64.05 10.68, 63.55 11.17, 62.91 11.65 C62.27 12.12, 61.46 12.58, 60.52 13.02 C59.58 13.45, 58.48 13.87, 57.28 14.26 C56.07 14.64, 54.72 15, 53.28 15.32 C51.84 15.65, 50.27 15.94, 48.65 16.19 C47.02 16.44, 45.29 16.66, 43.52 16.83 C41.76 17, 39.91 17.14, 38.06 17.22 C36.22 17.31, 34.31 17.36, 32.43 17.36 C30.56 17.36, 28.65 17.31, 26.8 17.22 C24.95 17.14, 23.1 17, 21.34 16.83 C19.58 16.66, 17.84 16.44, 16.22 16.19 C14.59 15.94, 13.02 15.65, 11.59 15.32 C10.15 15, 8.79 14.64, 7.59 14.26 C6.38 13.87, 5.28 13.45, 4.35 13.02 C3.41 12.58, 2.6 12.12, 1.96 11.65 C1.31 11.17, 0.82 10.68, 0.49 10.18 C0.17 9.69, 0 9.18, 0 8.68 C0 8.18, 0.17 7.67, 0.49 7.17 C0.82 6.68, 1.31 6.18, 1.96 5.71 C2.6 5.24, 3.41 4.77, 4.35 4.34 C5.28 3.9, 6.38 3.48, 7.59 3.1 C8.79 2.71, 10.15 2.35, 11.59 2.03 C13.02 1.71, 14.59 1.41, 16.22 1.16 C17.84 0.91, 19.58 0.7, 21.34 0.52 C23.1 0.35, 24.95 0.22, 26.8 0.13 C28.65 0.04, 30.56 0, 32.43 0 C34.31 0, 36.22 0.04, 38.06 0.13 C39.91 0.22, 41.76 0.35, 43.52 0.52 C45.29 0.7, 47.02 0.91, 48.65 1.16 C50.27 1.41, 51.84 1.71, 53.28 2.03 C54.72 2.35, 56.07 2.71, 57.28 3.1 C58.48 3.48, 59.58 3.9, 60.52 4.34 C61.46 4.77, 62.27 5.24, 62.91 5.71 C63.55 6.18, 64.05 6.68, 64.37 7.17 C64.7 7.67, 64.78 8.43, 64.86 8.68 C64.95 8.93, 64.95 8.43, 64.86 8.68" stroke="#ff8c00" stroke-width="2" fill="none"></path></g><g stroke-linecap="round"><g transform="translate(87.53734023669335 3.0295540638331886) rotate(37.41699835587343 -2.6665038356854893 6.562066193341934)" fill-rule="evenodd"><path d="M0 0 L-8.5 11.27 L3.17 13.12 L0.9 3.69" stroke="none" stroke-width="0" fill="#0072c6" fill-rule="evenodd"></path><path d="M0 0 C-2.46 3.27, -4.93 6.53, -8.5 11.27 M0 0 C-2.12 2.8, -4.23 5.61, -8.5 11.27 M-8.5 11.27 C-5.32 11.78, -2.14 12.28, 3.17 13.12 M-8.5 11.27 C-3.83 12.01, 0.84 12.75, 3.17 13.12 M3.17 13.12 C2.6 10.74, 2.03 8.36, 0.9 3.69 M3.17 13.12 C2.4 9.9, 1.62 6.67, 0.9 3.69 M0.9 3.69 C0.69 2.82, 0.47 1.94, 0 0 M0.9 3.69 C0.58 2.36, 0.25 1.02, 0 0" stroke="#0072c6" stroke-width="2" fill="none"></path></g></g><mask></mask><g stroke-linecap="round" transform="translate(64.51917272254559 18.10636158880152) rotate(0 5.89285714285711 5.714285714285722)"><path d="M11.79 5.71 C11.79 6.05, 11.76 6.38, 11.7 6.71 C11.64 7.03, 11.55 7.36, 11.43 7.67 C11.31 7.98, 11.17 8.28, 11 8.57 C10.83 8.86, 10.63 9.13, 10.41 9.39 C10.19 9.64, 9.94 9.88, 9.68 10.09 C9.42 10.3, 9.13 10.5, 8.84 10.66 C8.54 10.83, 8.23 10.97, 7.91 11.08 C7.59 11.2, 7.25 11.28, 6.92 11.34 C6.58 11.4, 6.23 11.43, 5.89 11.43 C5.55 11.43, 5.21 11.4, 4.87 11.34 C4.53 11.28, 4.2 11.2, 3.88 11.08 C3.56 10.97, 3.24 10.83, 2.95 10.66 C2.65 10.5, 2.37 10.3, 2.11 10.09 C1.84 9.88, 1.6 9.64, 1.38 9.39 C1.16 9.13, 0.96 8.86, 0.79 8.57 C0.62 8.28, 0.47 7.98, 0.36 7.67 C0.24 7.36, 0.15 7.03, 0.09 6.71 C0.03 6.38, 0 6.05, 0 5.71 C0 5.38, 0.03 5.05, 0.09 4.72 C0.15 4.4, 0.24 4.07, 0.36 3.76 C0.47 3.45, 0.62 3.14, 0.79 2.86 C0.96 2.57, 1.16 2.29, 1.38 2.04 C1.6 1.79, 1.84 1.55, 2.11 1.34 C2.37 1.12, 2.65 0.93, 2.95 0.77 C3.24 0.6, 3.56 0.46, 3.88 0.34 C4.2 0.23, 4.53 0.14, 4.87 0.09 C5.21 0.03, 5.55 0, 5.89 0 C6.23 0, 6.58 0.03, 6.92 0.09 C7.25 0.14, 7.59 0.23, 7.91 0.34 C8.23 0.46, 8.54 0.6, 8.84 0.77 C9.13 0.93, 9.42 1.12, 9.68 1.34 C9.94 1.55, 10.19 1.79, 10.41 2.04 C10.63 2.29, 10.83 2.57, 11 2.86 C11.17 3.14, 11.31 3.45, 11.43 3.76 C11.55 4.07, 11.64 4.4, 11.7 4.72 C11.76 5.05, 11.77 5.55, 11.79 5.71 C11.8 5.88, 11.8 5.55, 11.79 5.71" stroke="none" stroke-width="0" fill="#fcc713"></path><path d="M11.79 5.71 C11.79 6.05, 11.76 6.38, 11.7 6.71 C11.64 7.03, 11.55 7.36, 11.43 7.67 C11.31 7.98, 11.17 8.28, 11 8.57 C10.83 8.86, 10.63 9.13, 10.41 9.39 C10.19 9.64, 9.94 9.88, 9.68 10.09 C9.42 10.3, 9.13 10.5, 8.84 10.66 C8.54 10.83, 8.23 10.97, 7.91 11.08 C7.59 11.2, 7.25 11.28, 6.92 11.34 C6.58 11.4, 6.23 11.43, 5.89 11.43 C5.55 11.43, 5.21 11.4, 4.87 11.34 C4.53 11.28, 4.2 11.2, 3.88 11.08 C3.56 10.97, 3.24 10.83, 2.95 10.66 C2.65 10.5, 2.37 10.3, 2.11 10.09 C1.84 9.88, 1.6 9.64, 1.38 9.39 C1.16 9.13, 0.96 8.86, 0.79 8.57 C0.62 8.28, 0.47 7.98, 0.36 7.67 C0.24 7.36, 0.15 7.03, 0.09 6.71 C0.03 6.38, 0 6.05, 0 5.71 C0 5.38, 0.03 5.05, 0.09 4.72 C0.15 4.4, 0.24 4.07, 0.36 3.76 C0.47 3.45, 0.62 3.14, 0.79 2.86 C0.96 2.57, 1.16 2.29, 1.38 2.04 C1.6 1.79, 1.84 1.55, 2.11 1.34 C2.37 1.12, 2.65 0.93, 2.95 0.77 C3.24 0.6, 3.56 0.46, 3.88 0.34 C4.2 0.23, 4.53 0.14, 4.87 0.09 C5.21 0.03, 5.55 0, 5.89 0 C6.23 0, 6.58 0.03, 6.92 0.09 C7.25 0.14, 7.59 0.23, 7.91 0.34 C8.23 0.46, 8.54 0.6, 8.84 0.77 C9.13 0.93, 9.42 1.12, 9.68 1.34 C9.94 1.55, 10.19 1.79, 10.41 2.04 C10.63 2.29, 10.83 2.57, 11 2.86 C11.17 3.14, 11.31 3.45, 11.43 3.76 C11.55 4.07, 11.64 4.4, 11.7 4.72 C11.76 5.05, 11.77 5.55, 11.79 5.71 C11.8 5.88, 11.8 5.55, 11.79 5.71" stroke="#ffff" stroke-width="2" fill="none"></path></g><g transform="translate(6 79.04527089245164) rotate(0 42 20)"><text x="0" y="0" font-family="Virgil, Segoe UI Emoji" font-size="16px" fill="#000000" text-anchor="start" style="white-space: pre;" direction="ltr" dominant-baseline="text-before-edge">Quickstart</text><text x="0" y="20" font-family="Virgil, Segoe UI Emoji" font-size="16px" fill="#000000" text-anchor="start" style="white-space: pre;" direction="ltr" dominant-baseline="text-before-edge">Center </text></g></svg>