<svg version="1.1" xmlns="http://www.w3.org/2000/svg" viewBox="0 0 69.80487804877976 114.26829268292659" width="69.80487804877976" height="114.26829268292659">
  <!-- svg-source:excalidraw -->
  
  <defs>
    
    
  </defs>
  <g stroke-linecap="round" transform="translate(5.999999999999545 6) rotate(0 28.902439024390105 28.170731707317145)"><path d="M31.24 -0.4 C37.15 -0.05, 44.31 4.26, 48.73 8.63 C53.16 13.01, 57.11 19.88, 57.8 25.83 C58.5 31.78, 56.59 39.52, 52.91 44.33 C49.22 49.13, 41.6 53.26, 35.7 54.67 C29.8 56.08, 23.06 55.34, 17.5 52.78 C11.95 50.21, 5.22 44.56, 2.36 39.27 C-0.51 33.99, -1.46 26.74, 0.3 21.05 C2.06 15.36, 7.11 8.45, 12.92 5.15 C18.72 1.86, 30.58 1.8, 35.11 1.29 C39.64 0.77, 40.2 1.58, 40.08 2.07 M33.8 -1.07 C39.4 -0.79, 45.59 4.19, 49.44 9.09 C53.3 13.99, 56.52 22.35, 56.92 28.33 C57.32 34.3, 55.63 40.24, 51.86 44.93 C48.09 49.62, 40.51 55.26, 34.29 56.47 C28.08 57.67, 20.21 55.42, 14.57 52.14 C8.93 48.87, 2.85 42.56, 0.47 36.81 C-1.9 31.05, -1.94 22.97, 0.32 17.63 C2.57 12.3, 8.33 7.63, 13.99 4.8 C19.66 1.98, 31.26 1.41, 34.32 0.68 C37.39 -0.04, 32.44 0.26, 32.39 0.46" stroke="none" stroke-width="0" fill="#228be6"></path><path d="M38.4 1.85 C44.33 3.08, 50.71 7.37, 53.82 12.26 C56.92 17.15, 57.88 25.11, 57.03 31.19 C56.18 37.27, 53.2 44.54, 48.69 48.75 C44.18 52.96, 36.39 56.1, 29.97 56.45 C23.55 56.8, 14.95 54.59, 10.15 50.86 C5.35 47.13, 2.35 40.15, 1.19 34.07 C0.04 27.98, 0.28 19.78, 3.21 14.34 C6.14 8.9, 12.93 3.37, 18.77 1.42 C24.62 -0.53, 34.68 2.45, 38.27 2.65 C41.86 2.84, 40.47 2.45, 40.32 2.6 M38.22 1.94 C44.2 3.1, 50.32 8.09, 53.45 13.16 C56.58 18.23, 57.86 26.26, 56.97 32.34 C56.09 38.43, 52.36 45.82, 48.12 49.66 C43.88 53.5, 37.79 54.98, 31.52 55.37 C25.26 55.76, 15.6 55.25, 10.52 52 C5.44 48.74, 2.49 41.81, 1.04 35.85 C-0.41 29.89, -1.16 21.58, 1.81 16.23 C4.78 10.88, 12.93 6.03, 18.85 3.75 C24.77 1.47, 34.54 3.13, 37.36 2.55 C40.17 1.98, 36.12 0.1, 35.73 0.31" stroke="#228be6" stroke-width="1" fill="none"></path></g><g stroke-linecap="round"><g transform="translate(14.292682926828547 55.02439024390242) rotate(0 21.70731707317077 -17.317073170731646)"><path d="M-1.04 0.75 C1.29 -3.6, 5.57 -21.3, 13.1 -27.1 C20.63 -32.9, 39.01 -32.61, 44.15 -34.05 M0.62 0.1 C3.39 -4.55, 8.07 -23.08, 15.27 -29.11 C22.46 -35.14, 38.91 -35.06, 43.77 -36.08" stroke="#d7effa" stroke-width="4" fill="none"></path></g></g><mask></mask><g stroke-linecap="round"><g transform="translate(16.96883454410954 14.304342870529581) rotate(0 19.27168028892106 19.26246271107675)"><path d="M0.75 -1.04 C1.74 3.42, -1.43 19.07, 4.97 25.75 C11.37 32.43, 33.72 37.01, 39.13 39.04 M-0.32 1.02 C0.63 5.24, -2.36 18.02, 4.13 24.02 C10.63 30.01, 33.18 34.52, 38.67 36.97" stroke="#d7effa" stroke-width="2" fill="none"></path></g></g><mask></mask><g stroke-linecap="round"><g transform="translate(30.634146341464202 8.92682926829275) rotate(0 15.853658536585272 14.146341463414728)"><path d="M-1.04 0.21 C0.92 3.56, 5.19 16.34, 10.74 20.83 C16.28 25.32, 28.83 26.09, 32.22 27.16 M0.61 -0.72 C2.57 2.21, 4.99 14.25, 10.17 19.01 C15.36 23.78, 28.25 26.42, 31.73 27.89" stroke="#d7effa" stroke-width="2" fill="none"></path></g></g><mask></mask><g stroke-linecap="round" transform="translate(18.19512195121888 32.09756097561058) rotate(0 5.853658536585272 5.609756097560876)"><path d="M5.17 0.12 C6.42 -0.13, 8.19 0.32, 9.18 0.9 C10.16 1.48, 10.68 2.53, 11.09 3.59 C11.5 4.66, 12.1 6.21, 11.65 7.31 C11.19 8.41, 9.59 9.54, 8.35 10.18 C7.11 10.82, 5.37 11.34, 4.23 11.15 C3.08 10.96, 2.28 9.96, 1.5 9.03 C0.73 8.09, -0.43 6.82, -0.43 5.55 C-0.43 4.29, 0.63 2.28, 1.5 1.41 C2.37 0.54, 4.11 0.55, 4.79 0.35 C5.48 0.14, 5.45 0.12, 5.6 0.16 M3.99 0.32 C5.31 -0.05, 7.55 -0.6, 8.77 -0.05 C9.99 0.5, 10.85 2.45, 11.3 3.61 C11.75 4.77, 11.94 5.89, 11.47 6.9 C11 7.91, 9.62 9.06, 8.47 9.68 C7.32 10.31, 5.73 10.61, 4.56 10.66 C3.4 10.71, 2.2 10.74, 1.49 9.99 C0.78 9.23, 0.46 7.47, 0.3 6.15 C0.13 4.83, -0.27 3.17, 0.48 2.07 C1.23 0.97, 4.05 -0.13, 4.8 -0.47 C5.56 -0.81, 5.17 -0.28, 5.02 0.01" stroke="none" stroke-width="0" fill="#fff"></path><path d="M6.31 -0.38 C7.5 -0.26, 9.44 0.66, 10.34 1.62 C11.24 2.58, 11.75 4.11, 11.7 5.38 C11.65 6.64, 10.74 8.26, 10.03 9.21 C9.32 10.16, 8.6 10.89, 7.45 11.07 C6.3 11.25, 4.23 10.88, 3.12 10.29 C2.02 9.69, 1.38 8.46, 0.84 7.48 C0.3 6.5, -0.43 5.52, -0.09 4.41 C0.25 3.31, 1.76 1.63, 2.87 0.84 C3.99 0.04, 5.83 -0.2, 6.59 -0.36 C7.36 -0.52, 7.37 -0.34, 7.48 -0.12 M6.25 0.45 C7.37 0.56, 8.86 1.51, 9.86 2.25 C10.85 2.98, 12.19 3.62, 12.22 4.85 C12.24 6.08, 10.83 8.48, 10.01 9.63 C9.19 10.77, 8.56 11.48, 7.32 11.71 C6.07 11.94, 3.58 11.53, 2.55 11.01 C1.51 10.48, 1.5 9.61, 1.12 8.55 C0.74 7.49, 0.15 6.04, 0.29 4.65 C0.43 3.25, 1.04 0.96, 1.97 0.19 C2.89 -0.59, 5.13 -0.06, 5.85 -0.01 C6.57 0.04, 6.18 0.47, 6.31 0.48" stroke="#fff" stroke-width="1" fill="none"></path></g><g stroke-linecap="round" transform="translate(45.26829268292704 29.658536585366164) rotate(0 3.780487804878021 3.780487804878021)"><path d="M3.46 0.12 C4.2 -0.05, 5.3 -0.06, 5.92 0.42 C6.55 0.91, 7.02 2.23, 7.19 3.03 C7.35 3.83, 7.25 4.57, 6.91 5.22 C6.57 5.88, 5.81 6.56, 5.14 6.97 C4.47 7.37, 3.62 7.86, 2.89 7.65 C2.15 7.43, 1.18 6.38, 0.72 5.69 C0.26 4.99, 0.14 4.27, 0.15 3.45 C0.17 2.64, 0.23 1.37, 0.82 0.82 C1.41 0.26, 3.23 0.21, 3.68 0.13 C4.14 0.04, 3.58 0.34, 3.56 0.33 M3.26 0.29 C3.99 0.18, 4.58 0.22, 5.29 0.59 C6 0.96, 7.23 1.83, 7.54 2.51 C7.85 3.19, 7.53 3.98, 7.15 4.66 C6.77 5.35, 6 6.16, 5.26 6.61 C4.52 7.07, 3.42 7.43, 2.74 7.39 C2.06 7.35, 1.62 7.05, 1.18 6.37 C0.74 5.69, 0.17 4.12, 0.09 3.32 C0.02 2.52, 0.3 2.06, 0.74 1.57 C1.18 1.09, 2.36 0.74, 2.73 0.43 C3.11 0.11, 2.85 -0.28, 2.99 -0.3" stroke="none" stroke-width="0" fill="#fff"></path><path d="M3.77 0.15 C4.57 0.18, 5.67 0.58, 6.3 1.07 C6.94 1.55, 7.46 2.22, 7.58 3.06 C7.71 3.9, 7.52 5.37, 7.06 6.08 C6.6 6.8, 5.65 7.13, 4.81 7.37 C3.97 7.6, 2.8 7.84, 2.02 7.48 C1.25 7.12, 0.43 5.95, 0.16 5.2 C-0.11 4.45, 0.18 3.78, 0.41 3 C0.63 2.22, 0.94 0.98, 1.52 0.52 C2.09 0.06, 3.45 0.23, 3.86 0.22 C4.27 0.2, 3.92 0.35, 4 0.41 M4.2 -0.18 C5 -0.11, 6.13 0.81, 6.63 1.33 C7.14 1.84, 7.09 2.16, 7.22 2.92 C7.35 3.68, 7.72 5.22, 7.41 5.89 C7.1 6.56, 6.16 6.64, 5.36 6.94 C4.56 7.25, 3.35 7.95, 2.62 7.72 C1.88 7.49, 1.28 6.43, 0.93 5.57 C0.58 4.7, 0.52 3.39, 0.53 2.52 C0.54 1.64, 0.42 0.76, 0.98 0.32 C1.54 -0.13, 3.37 -0.13, 3.89 -0.16 C4.42 -0.18, 4.2 0.15, 4.14 0.16" stroke="#fff" stroke-width="1" fill="none"></path></g><g stroke-linecap="round" transform="translate(37.82926829268354 45.14634146341541) rotate(0 2.804878048780438 3.0487804878048337)"><path d="M3.1 0.01 C3.62 -0.03, 4.05 0.22, 4.51 0.62 C4.97 1.01, 5.77 1.77, 5.86 2.41 C5.94 3.05, 5.43 3.87, 5.01 4.47 C4.6 5.07, 3.88 5.79, 3.36 6.02 C2.84 6.25, 2.44 6.1, 1.88 5.85 C1.31 5.6, 0.3 5.17, -0.01 4.53 C-0.31 3.9, -0.09 2.68, 0.05 2.06 C0.19 1.44, 0.32 1.14, 0.83 0.8 C1.35 0.46, 2.73 0.15, 3.14 0.03 C3.56 -0.09, 3.38 0.09, 3.31 0.08 M2.78 -0.4 C3.4 -0.48, 4.01 0.32, 4.47 0.73 C4.92 1.14, 5.43 1.54, 5.5 2.07 C5.58 2.61, 5.24 3.37, 4.91 3.94 C4.59 4.5, 4.04 5.06, 3.55 5.45 C3.06 5.85, 2.47 6.41, 1.99 6.32 C1.52 6.23, 1.11 5.52, 0.71 4.91 C0.3 4.3, -0.47 3.38, -0.41 2.64 C-0.36 1.9, 0.5 0.95, 1.06 0.48 C1.61 0.01, 2.74 -0.16, 2.92 -0.17 C3.09 -0.18, 2.2 0.42, 2.12 0.42" stroke="none" stroke-width="0" fill="#fff"></path><path d="M2.5 -0.07 C3.09 -0.15, 3.82 0.1, 4.25 0.48 C4.69 0.86, 4.9 1.6, 5.12 2.21 C5.35 2.82, 5.77 3.59, 5.61 4.14 C5.44 4.69, 4.63 5.22, 4.12 5.5 C3.6 5.78, 3.14 5.86, 2.52 5.82 C1.9 5.79, 0.79 5.74, 0.39 5.26 C0 4.78, 0.12 3.7, 0.14 2.95 C0.16 2.2, 0.07 1.28, 0.49 0.75 C0.91 0.22, 2.25 -0.15, 2.64 -0.23 C3.03 -0.31, 2.82 0.18, 2.82 0.28 M2.74 0.31 C3.41 0.21, 4.63 0.03, 5.04 0.49 C5.46 0.95, 5.2 2.31, 5.24 3.08 C5.27 3.85, 5.6 4.59, 5.27 5.11 C4.93 5.64, 3.73 6.01, 3.21 6.22 C2.7 6.43, 2.65 6.58, 2.17 6.36 C1.69 6.14, 0.77 5.65, 0.34 4.91 C-0.09 4.16, -0.44 2.63, -0.4 1.91 C-0.35 1.19, 0.09 0.88, 0.62 0.6 C1.15 0.32, 2.37 0.37, 2.77 0.22 C3.16 0.08, 3.06 -0.28, 3.01 -0.28" stroke="#fff" stroke-width="1" fill="none"></path></g><g transform="translate(7.402439024389423 68.26829268292659) rotate(0 27.5 20)"><text x="27.5" y="0" font-family="Virgil, Segoe UI Emoji" font-size="16px" fill="#000000" text-anchor="middle" style="white-space: pre;" direction="ltr" dominant-baseline="text-before-edge">App</text><text x="27.5" y="20" font-family="Virgil, Segoe UI Emoji" font-size="16px" fill="#000000" text-anchor="middle" style="white-space: pre;" direction="ltr" dominant-baseline="text-before-edge">Service</text></g></svg>