<svg version="1.1" xmlns="http://www.w3.org/2000/svg" viewBox="0 0 78.933259472494 114.29639448472972" width="78.933259472494" height="114.29639448472972">
  <!-- svg-source:excalidraw -->
  
  <defs>
    
    
  </defs>
  <g stroke-linecap="round" transform="translate(6 6) rotate(0 33 27.5)"><path d="M66 27.5 C66 29.09, 65.83 30.71, 65.5 32.28 C65.17 33.84, 64.66 35.41, 64.01 36.91 C63.36 38.4, 62.53 39.87, 61.58 41.25 C60.62 42.63, 59.51 43.96, 58.28 45.18 C57.05 46.4, 55.68 47.54, 54.21 48.57 C52.75 49.59, 51.15 50.52, 49.5 51.32 C47.85 52.11, 46.08 52.8, 44.29 53.34 C42.49 53.89, 40.61 54.31, 38.73 54.58 C36.85 54.86, 34.91 55, 33 55 C31.09 55, 29.15 54.86, 27.27 54.58 C25.39 54.31, 23.51 53.89, 21.71 53.34 C19.92 52.8, 18.15 52.11, 16.5 51.32 C14.85 50.52, 13.25 49.59, 11.79 48.57 C10.32 47.54, 8.95 46.4, 7.72 45.18 C6.49 43.96, 5.38 42.63, 4.42 41.25 C3.47 39.87, 2.64 38.4, 1.99 36.91 C1.34 35.41, 0.83 33.84, 0.5 32.28 C0.17 30.71, 0 29.09, 0 27.5 C0 25.91, 0.17 24.29, 0.5 22.72 C0.83 21.16, 1.34 19.59, 1.99 18.09 C2.64 16.6, 3.47 15.13, 4.42 13.75 C5.38 12.37, 6.49 11.04, 7.72 9.82 C8.95 8.6, 10.32 7.46, 11.79 6.43 C13.25 5.41, 14.85 4.48, 16.5 3.68 C18.15 2.89, 19.92 2.2, 21.71 1.66 C23.51 1.11, 25.39 0.69, 27.27 0.42 C29.15 0.14, 31.09 0, 33 0 C34.91 0, 36.85 0.14, 38.73 0.42 C40.61 0.69, 42.49 1.11, 44.29 1.66 C46.08 2.2, 47.85 2.89, 49.5 3.68 C51.15 4.48, 52.75 5.41, 54.21 6.43 C55.68 7.46, 57.05 8.6, 58.28 9.82 C59.51 11.04, 60.62 12.37, 61.58 13.75 C62.53 15.13, 63.36 16.6, 64.01 18.09 C64.66 19.59, 65.17 21.16, 65.5 22.72 C65.83 24.29, 65.92 26.7, 66 27.5 C66.08 28.3, 66.08 26.7, 66 27.5" stroke="none" stroke-width="0" fill="#3198e2"></path><path d="M66 27.5 C66 29.09, 65.83 30.71, 65.5 32.28 C65.17 33.84, 64.66 35.41, 64.01 36.91 C63.36 38.4, 62.53 39.87, 61.58 41.25 C60.62 42.63, 59.51 43.96, 58.28 45.18 C57.05 46.4, 55.68 47.54, 54.21 48.57 C52.75 49.59, 51.15 50.52, 49.5 51.32 C47.85 52.11, 46.08 52.8, 44.29 53.34 C42.49 53.89, 40.61 54.31, 38.73 54.58 C36.85 54.86, 34.91 55, 33 55 C31.09 55, 29.15 54.86, 27.27 54.58 C25.39 54.31, 23.51 53.89, 21.71 53.34 C19.92 52.8, 18.15 52.11, 16.5 51.32 C14.85 50.52, 13.25 49.59, 11.79 48.57 C10.32 47.54, 8.95 46.4, 7.72 45.18 C6.49 43.96, 5.38 42.63, 4.42 41.25 C3.47 39.87, 2.64 38.4, 1.99 36.91 C1.34 35.41, 0.83 33.84, 0.5 32.28 C0.17 30.71, 0 29.09, 0 27.5 C0 25.91, 0.17 24.29, 0.5 22.72 C0.83 21.16, 1.34 19.59, 1.99 18.09 C2.64 16.6, 3.47 15.13, 4.42 13.75 C5.38 12.37, 6.49 11.04, 7.72 9.82 C8.95 8.6, 10.32 7.46, 11.79 6.43 C13.25 5.41, 14.85 4.48, 16.5 3.68 C18.15 2.89, 19.92 2.2, 21.71 1.66 C23.51 1.11, 25.39 0.69, 27.27 0.42 C29.15 0.14, 31.09 0, 33 0 C34.91 0, 36.85 0.14, 38.73 0.42 C40.61 0.69, 42.49 1.11, 44.29 1.66 C46.08 2.2, 47.85 2.89, 49.5 3.68 C51.15 4.48, 52.75 5.41, 54.21 6.43 C55.68 7.46, 57.05 8.6, 58.28 9.82 C59.51 11.04, 60.62 12.37, 61.58 13.75 C62.53 15.13, 63.36 16.6, 64.01 18.09 C64.66 19.59, 65.17 21.16, 65.5 22.72 C65.83 24.29, 65.92 26.7, 66 27.5 C66.08 28.3, 66.08 26.7, 66 27.5" stroke="#3198e2" stroke-width="1" fill="none"></path></g><g transform="translate(11 11) rotate(0 28 22.5)"><text x="28" y="0" font-family="Virgil, Segoe UI Emoji" font-size="36px" fill="#ffff" text-anchor="middle" style="white-space: pre;" direction="ltr" dominant-baseline="text-before-edge">i</text></g><g transform="translate(11.933259472494 68.29639448472972) rotate(0 30.5 20)"><text x="0" y="0" font-family="Virgil, Segoe UI Emoji" font-size="16px" fill="#000000" text-anchor="start" style="white-space: pre;" direction="ltr" dominant-baseline="text-before-edge">What's </text><text x="0" y="20" font-family="Virgil, Segoe UI Emoji" font-size="16px" fill="#000000" text-anchor="start" style="white-space: pre;" direction="ltr" dominant-baseline="text-before-edge"> New</text></g></svg>