<svg version="1.1" xmlns="http://www.w3.org/2000/svg" viewBox="0 0 100 87.6673601157297" width="100" height="87.6673601157297">
  <!-- svg-source:excalidraw -->
  
  <defs>
    
    
  </defs>
  <g stroke-linecap="round" transform="translate(19.84593407327702 6.593211848663714) rotate(0 28.5 26.21667000656791)"><path d="M57 26.22 C57 27.73, 56.85 29.27, 56.57 30.77 C56.28 32.26, 55.85 33.76, 55.28 35.18 C54.72 36.61, 54.01 38.01, 53.18 39.33 C52.36 40.64, 51.39 41.91, 50.33 43.07 C49.27 44.23, 48.08 45.32, 46.82 46.3 C45.56 47.28, 44.18 48.16, 42.75 48.92 C41.32 49.68, 39.8 50.33, 38.25 50.85 C36.7 51.37, 35.07 51.77, 33.45 52.04 C31.82 52.3, 30.15 52.43, 28.5 52.43 C26.85 52.43, 25.18 52.3, 23.55 52.04 C21.93 51.77, 20.3 51.37, 18.75 50.85 C17.2 50.33, 15.68 49.68, 14.25 48.92 C12.82 48.16, 11.44 47.28, 10.18 46.3 C8.92 45.32, 7.73 44.23, 6.67 43.07 C5.61 41.91, 4.64 40.64, 3.82 39.33 C2.99 38.01, 2.28 36.61, 1.72 35.18 C1.15 33.76, 0.72 32.26, 0.43 30.77 C0.15 29.27, 0 27.73, 0 26.22 C0 24.7, 0.15 23.16, 0.43 21.66 C0.72 20.17, 1.15 18.68, 1.72 17.25 C2.28 15.82, 2.99 14.42, 3.82 13.11 C4.64 11.79, 5.61 10.53, 6.67 9.36 C7.73 8.2, 8.92 7.11, 10.18 6.13 C11.44 5.16, 12.82 4.27, 14.25 3.51 C15.68 2.75, 17.2 2.1, 18.75 1.58 C20.3 1.06, 21.93 0.66, 23.55 0.4 C25.18 0.13, 26.85 0, 28.5 0 C30.15 0, 31.82 0.13, 33.45 0.4 C35.07 0.66, 36.7 1.06, 38.25 1.58 C39.8 2.1, 41.32 2.75, 42.75 3.51 C44.18 4.27, 45.56 5.16, 46.82 6.13 C48.08 7.11, 49.27 8.2, 50.33 9.36 C51.39 10.53, 52.36 11.79, 53.18 13.11 C54.01 14.42, 54.72 15.82, 55.28 17.25 C55.85 18.68, 56.28 20.17, 56.57 21.66 C56.85 23.16, 56.93 25.46, 57 26.22 C57.07 26.98, 57.07 25.46, 57 26.22" stroke="none" stroke-width="0" fill="#2f8ce2"></path><path d="M57 26.22 C57 27.73, 56.85 29.27, 56.57 30.77 C56.28 32.26, 55.85 33.76, 55.28 35.18 C54.72 36.61, 54.01 38.01, 53.18 39.33 C52.36 40.64, 51.39 41.91, 50.33 43.07 C49.27 44.23, 48.08 45.32, 46.82 46.3 C45.56 47.28, 44.18 48.16, 42.75 48.92 C41.32 49.68, 39.8 50.33, 38.25 50.85 C36.7 51.37, 35.07 51.77, 33.45 52.04 C31.82 52.3, 30.15 52.43, 28.5 52.43 C26.85 52.43, 25.18 52.3, 23.55 52.04 C21.93 51.77, 20.3 51.37, 18.75 50.85 C17.2 50.33, 15.68 49.68, 14.25 48.92 C12.82 48.16, 11.44 47.28, 10.18 46.3 C8.92 45.32, 7.73 44.23, 6.67 43.07 C5.61 41.91, 4.64 40.64, 3.82 39.33 C2.99 38.01, 2.28 36.61, 1.72 35.18 C1.15 33.76, 0.72 32.26, 0.43 30.77 C0.15 29.27, 0 27.73, 0 26.22 C0 24.7, 0.15 23.16, 0.43 21.66 C0.72 20.17, 1.15 18.68, 1.72 17.25 C2.28 15.82, 2.99 14.42, 3.82 13.11 C4.64 11.79, 5.61 10.53, 6.67 9.36 C7.73 8.2, 8.92 7.11, 10.18 6.13 C11.44 5.16, 12.82 4.27, 14.25 3.51 C15.68 2.75, 17.2 2.1, 18.75 1.58 C20.3 1.06, 21.93 0.66, 23.55 0.4 C25.18 0.13, 26.85 0, 28.5 0 C30.15 0, 31.82 0.13, 33.45 0.4 C35.07 0.66, 36.7 1.06, 38.25 1.58 C39.8 2.1, 41.32 2.75, 42.75 3.51 C44.18 4.27, 45.56 5.16, 46.82 6.13 C48.08 7.11, 49.27 8.2, 50.33 9.36 C51.39 10.53, 52.36 11.79, 53.18 13.11 C54.01 14.42, 54.72 15.82, 55.28 17.25 C55.85 18.68, 56.28 20.17, 56.57 21.66 C56.85 23.16, 56.93 25.46, 57 26.22 C57.07 26.98, 57.07 25.46, 57 26.22" stroke="#2f8ce2" stroke-width="4" fill="none"></path></g><g stroke-linecap="round"><g transform="translate(55.41014691829923 6) rotate(0 3.0769230769229807 26.923076923076934)"><path d="M0 0 C1.11 4.25, 6.75 16.55, 6.67 25.52 C6.58 34.49, 0.68 49.13, -0.51 53.85 M0 0 C1.11 4.25, 6.75 16.55, 6.67 25.52 C6.58 34.49, 0.68 49.13, -0.51 53.85" stroke="#5a9eee" stroke-width="1" fill="none"></path></g></g><mask></mask><g stroke-linecap="round"><g transform="translate(37.974249482401774 6.256410256410163) rotate(179.30972280213516 3.0769230769229807 26.923076923076934)"><path d="M0 0 C1.11 4.25, 6.75 16.55, 6.67 25.52 C6.58 34.49, 0.68 49.13, -0.51 53.85 M0 0 C1.11 4.25, 6.75 16.55, 6.67 25.52 C6.58 34.49, 0.68 49.13, -0.51 53.85" stroke="#5a9eee" stroke-width="1" fill="none"></path></g></g><mask></mask><g stroke-linecap="round"><g transform="translate(25.410146918299233 14.461538461538339) rotate(0 22.692307692307622 2.6923076923077076)"><path d="M0 0 C3.72 0.9, 14.74 5.34, 22.31 5.38 C29.87 5.43, 41.54 1.11, 45.38 0.26 M0 0 C3.72 0.9, 14.74 5.34, 22.31 5.38 C29.87 5.43, 41.54 1.11, 45.38 0.26" stroke="#5a9eee" stroke-width="1" fill="none"></path></g></g><mask></mask><g stroke-linecap="round"><g transform="translate(20.794762302914478 44.46153846153834) rotate(0 25.897435897435912 -0.12820512820510999)"><path d="M0 0 C4.62 -0.77, 19.06 -5.34, 27.69 -4.62 C36.32 -3.89, 47.78 2.86, 51.79 4.36 M0 0 C4.62 -0.77, 19.06 -5.34, 27.69 -4.62 C36.32 -3.89, 47.78 2.86, 51.79 4.36" stroke="#5a9eee" stroke-width="1" fill="none"></path></g></g><mask></mask><g transform="translate(24.84593407327702 20.309881855231424) rotate(0 23.5 12.5)"><text x="23.5" y="0" font-family="Virgil, Segoe UI Emoji" font-size="20px" fill="#ffff" text-anchor="middle" style="white-space: pre;" direction="ltr" dominant-baseline="text-before-edge">DNS</text></g><g transform="translate(6 61.66736011572971) rotate(0 44 10)"><text x="0" y="0" font-family="Virgil, Segoe UI Emoji" font-size="16px" fill="#000000" text-anchor="start" style="white-space: pre;" direction="ltr" dominant-baseline="text-before-edge">DNS Zones</text></g></svg>