<svg version="1.1" xmlns="http://www.w3.org/2000/svg" viewBox="0 0 62.71210549155603 96.64851302629256" width="62.71210549155603" height="96.64851302629256">
  <!-- svg-source:excalidraw -->
  
  <defs>
    
    
  </defs>
  <g stroke-linecap="round" transform="translate(19.384982129011746 6.545554529737274) rotate(45.89985971490439 10.542499188194938 23.10295849655563)"><path d="M0 0 L21.08 0 L21.08 46.21 L0 46.21" stroke="none" stroke-width="0" fill="#773adc"></path><path d="M0 0 C5.08 0, 10.15 0, 21.08 0 M0 0 C5.25 0, 10.49 0, 21.08 0 M21.08 0 C21.08 10.32, 21.08 20.63, 21.08 46.21 M21.08 0 C21.08 13.06, 21.08 26.12, 21.08 46.21 M21.08 46.21 C15.77 46.21, 10.46 46.21, 0 46.21 M21.08 46.21 C14.62 46.21, 8.16 46.21, 0 46.21 M0 46.21 C0 31.53, 0 16.85, 0 0 M0 46.21 C0 35.34, 0 24.46, 0 0" stroke="#773adc" stroke-width="1" fill="none"></path></g><g stroke-linecap="round" transform="translate(37.92127013708148 13.434227312006783) rotate(0 3.571428571428555 3.75)"><path d="M7.14 3.75 C7.14 3.97, 7.12 4.19, 7.09 4.4 C7.05 4.61, 7 4.83, 6.93 5.03 C6.86 5.24, 6.77 5.44, 6.66 5.63 C6.56 5.81, 6.44 5.99, 6.31 6.16 C6.17 6.33, 6.03 6.48, 5.87 6.62 C5.71 6.76, 5.54 6.89, 5.36 7 C5.18 7.11, 4.99 7.2, 4.79 7.27 C4.6 7.35, 4.4 7.41, 4.19 7.44 C3.99 7.48, 3.78 7.5, 3.57 7.5 C3.36 7.5, 3.15 7.48, 2.95 7.44 C2.75 7.41, 2.54 7.35, 2.35 7.27 C2.16 7.2, 1.96 7.11, 1.79 7 C1.61 6.89, 1.43 6.76, 1.28 6.62 C1.12 6.48, 0.97 6.33, 0.84 6.16 C0.7 5.99, 0.58 5.81, 0.48 5.63 C0.38 5.44, 0.29 5.24, 0.22 5.03 C0.14 4.83, 0.09 4.61, 0.05 4.4 C0.02 4.19, 0 3.97, 0 3.75 C0 3.53, 0.02 3.31, 0.05 3.1 C0.09 2.89, 0.14 2.67, 0.22 2.47 C0.29 2.26, 0.38 2.06, 0.48 1.88 C0.58 1.69, 0.7 1.51, 0.84 1.34 C0.97 1.17, 1.12 1.02, 1.28 0.88 C1.43 0.74, 1.61 0.61, 1.79 0.5 C1.96 0.39, 2.16 0.3, 2.35 0.23 C2.54 0.15, 2.75 0.09, 2.95 0.06 C3.15 0.02, 3.36 0, 3.57 0 C3.78 0, 3.99 0.02, 4.19 0.06 C4.4 0.09, 4.6 0.15, 4.79 0.23 C4.99 0.3, 5.18 0.39, 5.36 0.5 C5.54 0.61, 5.71 0.74, 5.87 0.88 C6.03 1.02, 6.17 1.17, 6.31 1.34 C6.44 1.51, 6.56 1.69, 6.66 1.87 C6.77 2.06, 6.86 2.26, 6.93 2.47 C7 2.67, 7.05 2.89, 7.09 3.1 C7.12 3.31, 7.13 3.64, 7.14 3.75 C7.15 3.86, 7.15 3.64, 7.14 3.75" stroke="none" stroke-width="0" fill="#ffff"></path><path d="M7.14 3.75 C7.14 3.97, 7.12 4.19, 7.09 4.4 C7.05 4.61, 7 4.83, 6.93 5.03 C6.86 5.24, 6.77 5.44, 6.66 5.63 C6.56 5.81, 6.44 5.99, 6.31 6.16 C6.17 6.33, 6.03 6.48, 5.87 6.62 C5.71 6.76, 5.54 6.89, 5.36 7 C5.18 7.11, 4.99 7.2, 4.79 7.27 C4.6 7.35, 4.4 7.41, 4.19 7.44 C3.99 7.48, 3.78 7.5, 3.57 7.5 C3.36 7.5, 3.15 7.48, 2.95 7.44 C2.75 7.41, 2.54 7.35, 2.35 7.27 C2.16 7.2, 1.96 7.11, 1.79 7 C1.61 6.89, 1.43 6.76, 1.28 6.62 C1.12 6.48, 0.97 6.33, 0.84 6.16 C0.7 5.99, 0.58 5.81, 0.48 5.63 C0.38 5.44, 0.29 5.24, 0.22 5.03 C0.14 4.83, 0.09 4.61, 0.05 4.4 C0.02 4.19, 0 3.97, 0 3.75 C0 3.53, 0.02 3.31, 0.05 3.1 C0.09 2.89, 0.14 2.67, 0.22 2.47 C0.29 2.26, 0.38 2.06, 0.48 1.88 C0.58 1.69, 0.7 1.51, 0.84 1.34 C0.97 1.17, 1.12 1.02, 1.28 0.88 C1.43 0.74, 1.61 0.61, 1.79 0.5 C1.96 0.39, 2.16 0.3, 2.35 0.23 C2.54 0.15, 2.75 0.09, 2.95 0.06 C3.15 0.02, 3.36 0, 3.57 0 C3.78 0, 3.99 0.02, 4.19 0.06 C4.4 0.09, 4.6 0.15, 4.79 0.23 C4.99 0.3, 5.18 0.39, 5.36 0.5 C5.54 0.61, 5.71 0.74, 5.87 0.88 C6.03 1.02, 6.17 1.17, 6.31 1.34 C6.44 1.51, 6.56 1.69, 6.66 1.87 C6.77 2.06, 6.86 2.26, 6.93 2.47 C7 2.67, 7.05 2.89, 7.09 3.1 C7.12 3.31, 7.13 3.64, 7.14 3.75 C7.15 3.86, 7.15 3.64, 7.14 3.75" stroke="#000000" stroke-width="1" fill="none"></path></g><g stroke-linecap="round" transform="translate(22.24212498615441 18.974125958308264) rotate(45.89985971490439 10.542499188194938 23.10295849655563)"><path d="M0 0 L21.08 0 L21.08 46.21 L0 46.21" stroke="none" stroke-width="0" fill="#9f77d1"></path><path d="M0 0 C6.24 0, 12.48 0, 21.08 0 M0 0 C5.55 0, 11.1 0, 21.08 0 M21.08 0 C21.08 9.81, 21.08 19.62, 21.08 46.21 M21.08 0 C21.08 10.58, 21.08 21.17, 21.08 46.21 M21.08 46.21 C13.61 46.21, 6.14 46.21, 0 46.21 M21.08 46.21 C16.81 46.21, 12.53 46.21, 0 46.21 M0 46.21 C0 34.86, 0 23.52, 0 0 M0 46.21 C0 33.48, 0 20.76, 0 0" stroke="#9f77d1" stroke-width="1" fill="none"></path></g><g stroke-linecap="round" transform="translate(40.77841299422414 25.755655883435224) rotate(0 3.571428571428555 3.75)"><path d="M7.14 3.75 C7.14 3.97, 7.12 4.19, 7.09 4.4 C7.05 4.61, 7 4.83, 6.93 5.03 C6.86 5.24, 6.77 5.44, 6.66 5.63 C6.56 5.81, 6.44 5.99, 6.31 6.16 C6.17 6.33, 6.03 6.48, 5.87 6.62 C5.71 6.76, 5.54 6.89, 5.36 7 C5.18 7.11, 4.99 7.2, 4.79 7.27 C4.6 7.35, 4.4 7.41, 4.19 7.44 C3.99 7.48, 3.78 7.5, 3.57 7.5 C3.36 7.5, 3.15 7.48, 2.95 7.44 C2.75 7.41, 2.54 7.35, 2.35 7.27 C2.16 7.2, 1.96 7.11, 1.79 7 C1.61 6.89, 1.43 6.76, 1.28 6.62 C1.12 6.48, 0.97 6.33, 0.84 6.16 C0.7 5.99, 0.58 5.81, 0.48 5.63 C0.38 5.44, 0.29 5.24, 0.22 5.03 C0.14 4.83, 0.09 4.61, 0.05 4.4 C0.02 4.19, 0 3.97, 0 3.75 C0 3.53, 0.02 3.31, 0.05 3.1 C0.09 2.89, 0.14 2.67, 0.22 2.47 C0.29 2.26, 0.38 2.06, 0.48 1.88 C0.58 1.69, 0.7 1.51, 0.84 1.34 C0.97 1.17, 1.12 1.02, 1.28 0.88 C1.43 0.74, 1.61 0.61, 1.79 0.5 C1.96 0.39, 2.16 0.3, 2.35 0.23 C2.54 0.15, 2.75 0.09, 2.95 0.06 C3.15 0.02, 3.36 0, 3.57 0 C3.78 0, 3.99 0.02, 4.19 0.06 C4.4 0.09, 4.6 0.15, 4.79 0.23 C4.99 0.3, 5.18 0.39, 5.36 0.5 C5.54 0.61, 5.71 0.74, 5.87 0.88 C6.03 1.02, 6.17 1.17, 6.31 1.34 C6.44 1.51, 6.56 1.69, 6.66 1.87 C6.77 2.06, 6.86 2.26, 6.93 2.47 C7 2.67, 7.05 2.89, 7.09 3.1 C7.12 3.31, 7.13 3.64, 7.14 3.75 C7.15 3.86, 7.15 3.64, 7.14 3.75" stroke="none" stroke-width="0" fill="#ffff"></path><path d="M7.14 3.75 C7.14 3.97, 7.12 4.19, 7.09 4.4 C7.05 4.61, 7 4.83, 6.93 5.03 C6.86 5.24, 6.77 5.44, 6.66 5.63 C6.56 5.81, 6.44 5.99, 6.31 6.16 C6.17 6.33, 6.03 6.48, 5.87 6.62 C5.71 6.76, 5.54 6.89, 5.36 7 C5.18 7.11, 4.99 7.2, 4.79 7.27 C4.6 7.35, 4.4 7.41, 4.19 7.44 C3.99 7.48, 3.78 7.5, 3.57 7.5 C3.36 7.5, 3.15 7.48, 2.95 7.44 C2.75 7.41, 2.54 7.35, 2.35 7.27 C2.16 7.2, 1.96 7.11, 1.79 7 C1.61 6.89, 1.43 6.76, 1.28 6.62 C1.12 6.48, 0.97 6.33, 0.84 6.16 C0.7 5.99, 0.58 5.81, 0.48 5.63 C0.38 5.44, 0.29 5.24, 0.22 5.03 C0.14 4.83, 0.09 4.61, 0.05 4.4 C0.02 4.19, 0 3.97, 0 3.75 C0 3.53, 0.02 3.31, 0.05 3.1 C0.09 2.89, 0.14 2.67, 0.22 2.47 C0.29 2.26, 0.38 2.06, 0.48 1.88 C0.58 1.69, 0.7 1.51, 0.84 1.34 C0.97 1.17, 1.12 1.02, 1.28 0.88 C1.43 0.74, 1.61 0.61, 1.79 0.5 C1.96 0.39, 2.16 0.3, 2.35 0.23 C2.54 0.15, 2.75 0.09, 2.95 0.06 C3.15 0.02, 3.36 0, 3.57 0 C3.78 0, 3.99 0.02, 4.19 0.06 C4.4 0.09, 4.6 0.15, 4.79 0.23 C4.99 0.3, 5.18 0.39, 5.36 0.5 C5.54 0.61, 5.71 0.74, 5.87 0.88 C6.03 1.02, 6.17 1.17, 6.31 1.34 C6.44 1.51, 6.56 1.69, 6.66 1.87 C6.77 2.06, 6.86 2.26, 6.93 2.47 C7 2.67, 7.05 2.89, 7.09 3.1 C7.12 3.31, 7.13 3.64, 7.14 3.75 C7.15 3.86, 7.15 3.64, 7.14 3.75" stroke="#000000" stroke-width="1" fill="none"></path></g><g transform="translate(7.921270137082388 70.64851302629256) rotate(0 20.5 10)"><text x="0" y="0" font-family="Virgil, Segoe UI Emoji" font-size="16px" fill="#000000" text-anchor="start" style="white-space: pre;" direction="ltr" dominant-baseline="text-before-edge">Tags</text></g></svg>