<svg xmlns="http://www.w3.org/2000/svg" viewBox="-1619.88 -413.35 83.64 116.25" width="84" height="116"><ellipse cx="-1570.57" cy="-380.87" rx="28.33" ry="26.22" stroke="#4c99ea" stroke-width="4" opacity="1.0" fill="none"/><polyline points="-1593.96,-394.44 -1547.67,-394.44" fill="none" stroke="#4c99ea" stroke-width="4" opacity="1.0" stroke-linecap="round" stroke-linejoin="round"/><polyline points="-1597.97,-382.42 -1542.33,-381.98" fill="none" stroke="#4c99ea" stroke-width="4" opacity="1.0" stroke-linecap="round" stroke-linejoin="round"/><polyline points="-1595.74,-369.52 -1545.45,-369.07" fill="none" stroke="#4c99ea" stroke-width="4" opacity="1.0" stroke-linecap="round" stroke-linejoin="round"/><polyline points="-1570.37,-407.35 -1570.82,-355.72" fill="none" stroke="#4c99ea" stroke-width="4" opacity="1.0" stroke-linecap="round" stroke-linejoin="round"/><polyline points="-1577.50,-405.57 -1585.06,-382.42 -1578.39,-356.16" fill="none" stroke="#4c99ea" stroke-width="4" opacity="1.0" stroke-linecap="round" stroke-linejoin="round"/><polyline points="-1558.80,-403.79 -1556.58,-381.94 -1562.81,-356.16" fill="none" stroke="#4c99ea" stroke-width="4" opacity="1.0" stroke-linecap="round" stroke-linejoin="round"/><rect x="-1613.88" y="-352.07" width="20.25" height="3.84" rx="0" stroke="#198ab3" stroke-width="1" opacity="1.0" fill="#198ab3" transform="rotate(314.41 -1603.76 -350.15)"/><ellipse cx="-1587.29" cy="-365.51" rx="15.13" ry="14.24" stroke="#aaf3ff" stroke-width="2" opacity="1.0" fill="#ffff"/><polyline points="-1597.26,-367.89 -1593.79,-367.89 -1591.27,-372.77 -1590.32,-362.25 -1586.85,-369.01 -1584.33,-363.01 -1578.65,-362.63" fill="#76bc2d" stroke="#76bc2d" stroke-width="2" opacity="1.0" stroke-linecap="round" stroke-linejoin="round" transform="rotate(332.74 -1587.96 -362.63)"/><text x="-1606.41" y="-327.10" font-size="16" fill="#000000" opacity="1.0" font-family="sans-serif">Network
Watcher</text></svg>