<svg version="1.1" xmlns="http://www.w3.org/2000/svg" viewBox="0 0 113 108.34436701509867" width="113" height="108.34436701509867">
  <!-- svg-source:excalidraw -->
  
  <defs>
    
    
  </defs>
  <g stroke-linecap="round" transform="translate(32.77721287695408 6) rotate(0 15.77878612830591 15.9760209549097)"><path d="M20 4 C21.78 5.89, 23.56 7.77, 27.56 12 C31.56 16, 31.56 16, 27.56 20 C25.91 21.73, 24.27 23.46, 20 27.95 C16 31.95, 16 31.95, 12 27.95 C9.77 25.74, 7.55 23.53, 4 20 C0 16, 0 16, 4 12 C7.09 8.91, 10.17 5.83, 12 4 C16 0, 16 0, 20 4" stroke="none" stroke-width="0" fill="#fab005"></path><path d="M20 4 C22.7 6.86, 25.4 9.71, 27.56 12 M20 4 C21.54 5.63, 23.08 7.26, 27.56 12 M27.56 12 C31.56 16, 31.56 16, 27.56 20 M27.56 12 C31.56 16, 31.56 16, 27.56 20 M27.56 20 C25.36 22.32, 23.16 24.63, 20 27.95 M27.56 20 C25.72 21.94, 23.88 23.87, 20 27.95 M20 27.95 C16 31.95, 16 31.95, 12 27.95 M20 27.95 C16 31.95, 16 31.95, 12 27.95 M12 27.95 C9.06 25.03, 6.13 22.11, 4 20 M12 27.95 C10.19 26.15, 8.38 24.36, 4 20 M4 20 C0 16, 0 16, 4 12 M4 20 C0 16, 0 16, 4 12 M4 12 C6.38 9.62, 8.76 7.24, 12 4 M4 12 C6.54 9.46, 9.08 6.92, 12 4 M12 4 C16 0, 16 0, 20 4 M12 4 C16 0, 16 0, 20 4" stroke="#fab005" stroke-width="4" fill="none"></path></g><g stroke-linecap="round"><g transform="translate(41.79068409923093 31.92183334359538) rotate(0 8.370453616845225 21.936361202766705)" fill-rule="evenodd"><path d="M0 0 L-0.58 36.56 L8.66 43.87 L15.78 38.48 L11.16 33.29 L16.55 28.48 L12.32 21.74 L17.32 16.55 L13.66 11.16 L13.66 0 L3.66 0.19" stroke="none" stroke-width="0" fill="#fab005" fill-rule="evenodd"></path><path d="M0 0 C-0.22 13.87, -0.44 27.73, -0.58 36.56 M0 0 C-0.15 9.31, -0.29 18.62, -0.58 36.56 M-0.58 36.56 C2.74 39.18, 6.05 41.81, 8.66 43.87 M-0.58 36.56 C2.11 38.69, 4.8 40.82, 8.66 43.87 M8.66 43.87 C10.39 42.56, 12.12 41.25, 15.78 38.48 M8.66 43.87 C11.4 41.8, 14.15 39.72, 15.78 38.48 M15.78 38.48 C14.73 37.3, 13.67 36.11, 11.16 33.29 M15.78 38.48 C14.74 37.32, 13.7 36.15, 11.16 33.29 M11.16 33.29 C12.32 32.26, 13.47 31.23, 16.55 28.48 M11.16 33.29 C12.83 31.8, 14.51 30.3, 16.55 28.48 M16.55 28.48 C15.51 26.83, 14.48 25.18, 12.32 21.74 M16.55 28.48 C14.97 25.97, 13.39 23.45, 12.32 21.74 M12.32 21.74 C13.5 20.51, 14.68 19.28, 17.32 16.55 M12.32 21.74 C13.75 20.25, 15.19 18.75, 17.32 16.55 M17.32 16.55 C16.52 15.38, 15.73 14.2, 13.66 11.16 M17.32 16.55 C16.25 14.98, 15.19 13.41, 13.66 11.16 M13.66 11.16 C13.66 8.27, 13.66 5.39, 13.66 0 M13.66 11.16 C13.66 7.87, 13.66 4.57, 13.66 0 M13.66 0 C10.56 0.06, 7.46 0.12, 3.66 0.19 M13.66 0 C10.61 0.06, 7.57 0.12, 3.66 0.19 M3.66 0.19 C2.44 0.13, 1.22 0.06, 0 0 M3.66 0.19 C2.44 0.13, 1.23 0.06, 0 0" stroke="#fab005" stroke-width="2" fill="none"></path></g></g><mask></mask><g stroke-linecap="round" transform="translate(46.40886540507768 9.985472140828733) rotate(0 2.790151205615075 2.5977269845381556)"><path d="M5.58 2.6 C5.58 2.75, 5.57 2.9, 5.54 3.05 C5.51 3.2, 5.47 3.34, 5.41 3.49 C5.36 3.63, 5.29 3.77, 5.21 3.9 C5.13 4.03, 5.03 4.15, 4.93 4.27 C4.82 4.38, 4.71 4.49, 4.58 4.59 C4.46 4.68, 4.33 4.77, 4.19 4.85 C4.05 4.92, 3.9 4.99, 3.74 5.04 C3.59 5.09, 3.43 5.13, 3.27 5.16 C3.12 5.18, 2.95 5.2, 2.79 5.2 C2.63 5.2, 2.46 5.18, 2.31 5.16 C2.15 5.13, 1.99 5.09, 1.84 5.04 C1.68 4.99, 1.53 4.92, 1.4 4.85 C1.26 4.77, 1.12 4.68, 1 4.59 C0.87 4.49, 0.76 4.38, 0.65 4.27 C0.55 4.15, 0.45 4.03, 0.37 3.9 C0.29 3.77, 0.22 3.63, 0.17 3.49 C0.11 3.34, 0.07 3.2, 0.04 3.05 C0.01 2.9, 0 2.75, 0 2.6 C0 2.45, 0.01 2.29, 0.04 2.15 C0.07 2, 0.11 1.85, 0.17 1.71 C0.22 1.57, 0.29 1.43, 0.37 1.3 C0.45 1.17, 0.55 1.04, 0.65 0.93 C0.76 0.81, 0.87 0.7, 1 0.61 C1.12 0.51, 1.26 0.42, 1.4 0.35 C1.53 0.27, 1.68 0.21, 1.84 0.16 C1.99 0.11, 2.15 0.07, 2.31 0.04 C2.46 0.01, 2.63 0, 2.79 0 C2.95 0, 3.12 0.01, 3.27 0.04 C3.43 0.07, 3.59 0.11, 3.74 0.16 C3.9 0.21, 4.05 0.27, 4.19 0.35 C4.33 0.42, 4.46 0.51, 4.58 0.61 C4.71 0.7, 4.82 0.81, 4.93 0.93 C5.03 1.04, 5.13 1.17, 5.21 1.3 C5.29 1.43, 5.36 1.57, 5.41 1.71 C5.47 1.85, 5.51 2, 5.54 2.15 C5.57 2.29, 5.57 2.52, 5.58 2.6 C5.59 2.67, 5.59 2.52, 5.58 2.6" stroke="none" stroke-width="0" fill="#fff"></path><path d="M5.58 2.6 C5.58 2.75, 5.57 2.9, 5.54 3.05 C5.51 3.2, 5.47 3.34, 5.41 3.49 C5.36 3.63, 5.29 3.77, 5.21 3.9 C5.13 4.03, 5.03 4.15, 4.93 4.27 C4.82 4.38, 4.71 4.49, 4.58 4.59 C4.46 4.68, 4.33 4.77, 4.19 4.85 C4.05 4.92, 3.9 4.99, 3.74 5.04 C3.59 5.09, 3.43 5.13, 3.27 5.16 C3.12 5.18, 2.95 5.2, 2.79 5.2 C2.63 5.2, 2.46 5.18, 2.31 5.16 C2.15 5.13, 1.99 5.09, 1.84 5.04 C1.68 4.99, 1.53 4.92, 1.4 4.85 C1.26 4.77, 1.12 4.68, 1 4.59 C0.87 4.49, 0.76 4.38, 0.65 4.27 C0.55 4.15, 0.45 4.03, 0.37 3.9 C0.29 3.77, 0.22 3.63, 0.17 3.49 C0.11 3.34, 0.07 3.2, 0.04 3.05 C0.01 2.9, 0 2.75, 0 2.6 C0 2.45, 0.01 2.29, 0.04 2.15 C0.07 2, 0.11 1.85, 0.17 1.71 C0.22 1.57, 0.29 1.43, 0.37 1.3 C0.45 1.17, 0.55 1.04, 0.65 0.93 C0.76 0.81, 0.87 0.7, 1 0.61 C1.12 0.51, 1.26 0.42, 1.4 0.35 C1.53 0.27, 1.68 0.21, 1.84 0.16 C1.99 0.11, 2.15 0.07, 2.31 0.04 C2.46 0.01, 2.63 0, 2.79 0 C2.95 0, 3.12 0.01, 3.27 0.04 C3.43 0.07, 3.59 0.11, 3.74 0.16 C3.9 0.21, 4.05 0.27, 4.19 0.35 C4.33 0.42, 4.46 0.51, 4.58 0.61 C4.71 0.7, 4.82 0.81, 4.93 0.93 C5.03 1.04, 5.13 1.17, 5.21 1.3 C5.29 1.43, 5.36 1.57, 5.41 1.71 C5.47 1.85, 5.51 2, 5.54 2.15 C5.57 2.29, 5.57 2.52, 5.58 2.6 C5.59 2.67, 5.59 2.52, 5.58 2.6" stroke="#0000" stroke-width="2" fill="none"></path></g><g stroke-linecap="round"><g transform="translate(38.51947234092222 21.819561737058507) rotate(0 10.583332159229599 0.09621211053843126)"><path d="M0 0 C7.62 0.07, 15.24 0.14, 21.17 0.19 M0 0 C5.07 0.05, 10.14 0.09, 21.17 0.19" stroke="#000000" stroke-width="1" fill="none"></path></g></g><mask></mask><g stroke-linecap="round"><g transform="translate(38.32704811985013 24.32107661105772) rotate(0 10.583332159229599 0.09621211053843126)"><path d="M0 0 C5.17 0.05, 10.33 0.09, 21.17 0.19 M0 0 C8.22 0.07, 16.44 0.15, 21.17 0.19" stroke="#000000" stroke-width="1" fill="none"></path></g></g><mask></mask><g transform="translate(6 82.34436701509867) rotate(0 50.5 10)"><text x="0" y="0" font-family="Virgil, Segoe UI Emoji" font-size="16px" fill="#000000" text-anchor="start" style="white-space: pre;" direction="ltr" dominant-baseline="text-before-edge">Subscriptions</text></g></svg>