<svg version="1.1" xmlns="http://www.w3.org/2000/svg" viewBox="0 0 94 91.26248127226239" width="94" height="91.26248127226239">
  <!-- svg-source:excalidraw -->
  
  <defs>
    
    
  </defs>
  <g stroke-linecap="round" transform="translate(6.829038419523613 12.525203299071563) rotate(0 22.025006862739133 14.064161008737017)"><path d="M0 0 L44.05 0 L44.05 28.13 L0 28.13" stroke="none" stroke-width="0" fill="#83b9f9"></path><path d="M0 0 C12.04 0, 24.08 0, 44.05 0 M0 0 C14.58 0, 29.17 0, 44.05 0 M44.05 0 C44.05 7.84, 44.05 15.68, 44.05 28.13 M44.05 0 C44.05 5.63, 44.05 11.26, 44.05 28.13 M44.05 28.13 C31.23 28.13, 18.4 28.13, 0 28.13 M44.05 28.13 C34.43 28.13, 24.81 28.13, 0 28.13 M0 28.13 C0 20.91, 0 13.69, 0 0 M0 28.13 C0 18.89, 0 9.66, 0 0" stroke="#83b9f9" stroke-width="1" fill="none"></path></g><g stroke-linecap="round" transform="translate(6.721426371111193 6) rotate(0 22.03622347907026 2.99601725688251)"><path d="M0 0 L44.07 0 L44.07 5.99 L0 5.99" stroke="none" stroke-width="0" fill="#767676"></path><path d="M0 0 C15.11 0, 30.23 0, 44.07 0 M0 0 C13.19 0, 26.38 0, 44.07 0 M44.07 0 C44.07 1.5, 44.07 3, 44.07 5.99 M44.07 0 C44.07 1.86, 44.07 3.72, 44.07 5.99 M44.07 5.99 C27.56 5.99, 11.05 5.99, 0 5.99 M44.07 5.99 C29.21 5.99, 14.35 5.99, 0 5.99 M0 5.99 C0 4.01, 0 2.03, 0 0 M0 5.99 C0 3.67, 0 1.35, 0 0" stroke="#767676" stroke-width="1" fill="none"></path></g><g stroke-linecap="round" transform="translate(11.186649574809735 7.5921691708006165) rotate(0 17.779222407271277 1.2383537995114295)"><path d="M0 0 L35.56 0 L35.56 2.48 L0 2.48" stroke="none" stroke-width="0" fill="#ffff"></path><path d="M0 0 C13.65 0, 27.31 0, 35.56 0 M0 0 C12.38 0, 24.75 0, 35.56 0 M35.56 0 C35.56 0.61, 35.56 1.22, 35.56 2.48 M35.56 0 C35.56 0.95, 35.56 1.91, 35.56 2.48 M35.56 2.48 C26.37 2.48, 17.18 2.48, 0 2.48 M35.56 2.48 C24.24 2.48, 12.92 2.48, 0 2.48 M0 2.48 C0 1.92, 0 1.37, 0 0 M0 2.48 C0 1.52, 0 0.56, 0 0" stroke="#ffff" stroke-width="1" fill="none"></path></g><g stroke-linecap="round" transform="translate(19.338855503056948 24.2884642271286) rotate(0 22.025006862739133 14.064161008737017)"><path d="M0 0 L44.05 0 L44.05 28.13 L0 28.13" stroke="none" stroke-width="0" fill="#83b9f9"></path><path d="M0 0 C11.7 0, 23.4 0, 44.05 0 M0 0 C13.98 0, 27.97 0, 44.05 0 M44.05 0 C44.05 5.92, 44.05 11.84, 44.05 28.13 M44.05 0 C44.05 10.84, 44.05 21.67, 44.05 28.13 M44.05 28.13 C34.29 28.13, 24.54 28.13, 0 28.13 M44.05 28.13 C27.24 28.13, 10.43 28.13, 0 28.13 M0 28.13 C0 18.89, 0 9.65, 0 0 M0 28.13 C0 17.01, 0 5.88, 0 0" stroke="#83b9f9" stroke-width="1" fill="none"></path></g><g stroke-linecap="round" transform="translate(19.23124345464862 17.763260928057264) rotate(0 22.03622347907026 2.99601725688251)"><path d="M0 0 L44.07 0 L44.07 5.99 L0 5.99" stroke="none" stroke-width="0" fill="#767676"></path><path d="M0 0 C12.2 0, 24.4 0, 44.07 0 M0 0 C13.17 0, 26.35 0, 44.07 0 M44.07 0 C44.07 1.33, 44.07 2.67, 44.07 5.99 M44.07 0 C44.07 2.11, 44.07 4.22, 44.07 5.99 M44.07 5.99 C33.57 5.99, 23.07 5.99, 0 5.99 M44.07 5.99 C26.74 5.99, 9.4 5.99, 0 5.99 M0 5.99 C0 3.66, 0 1.33, 0 0 M0 5.99 C0 4.48, 0 2.97, 0 0" stroke="#767676" stroke-width="1" fill="none"></path></g><g stroke-linecap="round" transform="translate(23.696466658346708 19.35543009885788) rotate(0 17.779222407271277 1.2383537995114295)"><path d="M0 0 L35.56 0 L35.56 2.48 L0 2.48" stroke="none" stroke-width="0" fill="#ffff"></path><path d="M0 0 C11.37 0, 22.74 0, 35.56 0 M0 0 C13.6 0, 27.19 0, 35.56 0 M35.56 0 C35.56 0.84, 35.56 1.67, 35.56 2.48 M35.56 0 C35.56 0.7, 35.56 1.4, 35.56 2.48 M35.56 2.48 C23.25 2.48, 10.94 2.48, 0 2.48 M35.56 2.48 C22.17 2.48, 8.77 2.48, 0 2.48 M0 2.48 C0 1.77, 0 1.06, 0 0 M0 2.48 C0 1.88, 0 1.29, 0 0" stroke="#ffff" stroke-width="1" fill="none"></path></g><g stroke-linecap="round" transform="translate(34.72812980252297 36.59988366670024) rotate(0 22.025006862739133 14.064161008737017)"><path d="M0 0 L44.05 0 L44.05 28.13 L0 28.13" stroke="none" stroke-width="0" fill="#32d4f5"></path><path d="M0 0 C15.61 0, 31.23 0, 44.05 0 M0 0 C10.91 0, 21.82 0, 44.05 0 M44.05 0 C44.05 8.11, 44.05 16.22, 44.05 28.13 M44.05 0 C44.05 8.17, 44.05 16.35, 44.05 28.13 M44.05 28.13 C29.38 28.13, 14.71 28.13, 0 28.13 M44.05 28.13 C30.21 28.13, 16.38 28.13, 0 28.13 M0 28.13 C0 21.89, 0 15.65, 0 0 M0 28.13 C0 21.57, 0 15, 0 0" stroke="#32d4f5" stroke-width="1" fill="none"></path></g><g stroke-linecap="round" transform="translate(41.09680648572498 46.68362174843634) rotate(0 3.715061398534317 3.449699870067576)"><path d="M7.43 3.45 C7.43 3.65, 7.41 3.85, 7.37 4.05 C7.34 4.25, 7.28 4.44, 7.21 4.63 C7.13 4.82, 7.04 5, 6.93 5.17 C6.82 5.35, 6.7 5.51, 6.56 5.67 C6.42 5.82, 6.27 5.96, 6.1 6.09 C5.94 6.22, 5.76 6.34, 5.57 6.44 C5.39 6.54, 5.19 6.62, 4.99 6.69 C4.78 6.76, 4.57 6.81, 4.36 6.85 C4.15 6.88, 3.93 6.9, 3.72 6.9 C3.5 6.9, 3.28 6.88, 3.07 6.85 C2.86 6.81, 2.65 6.76, 2.44 6.69 C2.24 6.62, 2.04 6.54, 1.86 6.44 C1.67 6.34, 1.49 6.22, 1.33 6.09 C1.16 5.96, 1.01 5.82, 0.87 5.67 C0.73 5.51, 0.61 5.35, 0.5 5.17 C0.39 5, 0.3 4.82, 0.22 4.63 C0.15 4.44, 0.09 4.25, 0.06 4.05 C0.02 3.85, 0 3.65, 0 3.45 C0 3.25, 0.02 3.05, 0.06 2.85 C0.09 2.65, 0.15 2.46, 0.22 2.27 C0.3 2.08, 0.39 1.9, 0.5 1.72 C0.61 1.55, 0.73 1.39, 0.87 1.23 C1.01 1.08, 1.16 0.94, 1.33 0.81 C1.49 0.68, 1.67 0.56, 1.86 0.46 C2.04 0.36, 2.24 0.28, 2.44 0.21 C2.65 0.14, 2.86 0.09, 3.07 0.05 C3.28 0.02, 3.5 0, 3.72 0 C3.93 0, 4.15 0.02, 4.36 0.05 C4.57 0.09, 4.78 0.14, 4.99 0.21 C5.19 0.28, 5.39 0.36, 5.57 0.46 C5.76 0.56, 5.94 0.68, 6.1 0.81 C6.27 0.94, 6.42 1.08, 6.56 1.23 C6.7 1.39, 6.82 1.55, 6.93 1.72 C7.04 1.9, 7.13 2.08, 7.21 2.27 C7.28 2.46, 7.34 2.65, 7.37 2.85 C7.41 3.05, 7.42 3.35, 7.43 3.45 C7.44 3.55, 7.44 3.35, 7.43 3.45" stroke="none" stroke-width="0" fill="#0078d4"></path><path d="M7.43 3.45 C7.43 3.65, 7.41 3.85, 7.37 4.05 C7.34 4.25, 7.28 4.44, 7.21 4.63 C7.13 4.82, 7.04 5, 6.93 5.17 C6.82 5.35, 6.7 5.51, 6.56 5.67 C6.42 5.82, 6.27 5.96, 6.1 6.09 C5.94 6.22, 5.76 6.34, 5.57 6.44 C5.39 6.54, 5.19 6.62, 4.99 6.69 C4.78 6.76, 4.57 6.81, 4.36 6.85 C4.15 6.88, 3.93 6.9, 3.72 6.9 C3.5 6.9, 3.28 6.88, 3.07 6.85 C2.86 6.81, 2.65 6.76, 2.44 6.69 C2.24 6.62, 2.04 6.54, 1.86 6.44 C1.67 6.34, 1.49 6.22, 1.33 6.09 C1.16 5.96, 1.01 5.82, 0.87 5.67 C0.73 5.51, 0.61 5.35, 0.5 5.17 C0.39 5, 0.3 4.82, 0.22 4.63 C0.15 4.44, 0.09 4.25, 0.06 4.05 C0.02 3.85, 0 3.65, 0 3.45 C0 3.25, 0.02 3.05, 0.06 2.85 C0.09 2.65, 0.15 2.46, 0.22 2.27 C0.3 2.08, 0.39 1.9, 0.5 1.72 C0.61 1.55, 0.73 1.39, 0.87 1.23 C1.01 1.08, 1.16 0.94, 1.33 0.81 C1.49 0.68, 1.67 0.56, 1.86 0.46 C2.04 0.36, 2.24 0.28, 2.44 0.21 C2.65 0.14, 2.86 0.09, 3.07 0.05 C3.28 0.02, 3.5 0, 3.72 0 C3.93 0, 4.15 0.02, 4.36 0.05 C4.57 0.09, 4.78 0.14, 4.99 0.21 C5.19 0.28, 5.39 0.36, 5.57 0.46 C5.76 0.56, 5.94 0.68, 6.1 0.81 C6.27 0.94, 6.42 1.08, 6.56 1.23 C6.7 1.39, 6.82 1.55, 6.93 1.72 C7.04 1.9, 7.13 2.08, 7.21 2.27 C7.28 2.46, 7.34 2.65, 7.37 2.85 C7.41 3.05, 7.42 3.35, 7.43 3.45 C7.44 3.55, 7.44 3.35, 7.43 3.45" stroke="#0078d4" stroke-width="1" fill="none"></path></g><g stroke-linecap="round" transform="translate(52.772713738260336 46.94898327690299) rotate(0 3.715061398534317 3.449699870067576)"><path d="M7.43 3.45 C7.43 3.65, 7.41 3.85, 7.37 4.05 C7.34 4.25, 7.28 4.44, 7.21 4.63 C7.13 4.82, 7.04 5, 6.93 5.17 C6.82 5.35, 6.7 5.51, 6.56 5.67 C6.42 5.82, 6.27 5.96, 6.1 6.09 C5.94 6.22, 5.76 6.34, 5.57 6.44 C5.39 6.54, 5.19 6.62, 4.99 6.69 C4.78 6.76, 4.57 6.81, 4.36 6.85 C4.15 6.88, 3.93 6.9, 3.72 6.9 C3.5 6.9, 3.28 6.88, 3.07 6.85 C2.86 6.81, 2.65 6.76, 2.44 6.69 C2.24 6.62, 2.04 6.54, 1.86 6.44 C1.67 6.34, 1.49 6.22, 1.33 6.09 C1.16 5.96, 1.01 5.82, 0.87 5.67 C0.73 5.51, 0.61 5.35, 0.5 5.17 C0.39 5, 0.3 4.82, 0.22 4.63 C0.15 4.44, 0.09 4.25, 0.06 4.05 C0.02 3.85, 0 3.65, 0 3.45 C0 3.25, 0.02 3.05, 0.06 2.85 C0.09 2.65, 0.15 2.46, 0.22 2.27 C0.3 2.08, 0.39 1.9, 0.5 1.72 C0.61 1.55, 0.73 1.39, 0.87 1.23 C1.01 1.08, 1.16 0.94, 1.33 0.81 C1.49 0.68, 1.67 0.56, 1.86 0.46 C2.04 0.36, 2.24 0.28, 2.44 0.21 C2.65 0.14, 2.86 0.09, 3.07 0.05 C3.28 0.02, 3.5 0, 3.72 0 C3.93 0, 4.15 0.02, 4.36 0.05 C4.57 0.09, 4.78 0.14, 4.99 0.21 C5.19 0.28, 5.39 0.36, 5.57 0.46 C5.76 0.56, 5.94 0.68, 6.1 0.81 C6.27 0.94, 6.42 1.08, 6.56 1.23 C6.7 1.39, 6.82 1.55, 6.93 1.72 C7.04 1.9, 7.13 2.08, 7.21 2.27 C7.28 2.46, 7.34 2.65, 7.37 2.85 C7.41 3.05, 7.42 3.35, 7.43 3.45 C7.44 3.55, 7.44 3.35, 7.43 3.45" stroke="none" stroke-width="0" fill="#0078d4"></path><path d="M7.43 3.45 C7.43 3.65, 7.41 3.85, 7.37 4.05 C7.34 4.25, 7.28 4.44, 7.21 4.63 C7.13 4.82, 7.04 5, 6.93 5.17 C6.82 5.35, 6.7 5.51, 6.56 5.67 C6.42 5.82, 6.27 5.96, 6.1 6.09 C5.94 6.22, 5.76 6.34, 5.57 6.44 C5.39 6.54, 5.19 6.62, 4.99 6.69 C4.78 6.76, 4.57 6.81, 4.36 6.85 C4.15 6.88, 3.93 6.9, 3.72 6.9 C3.5 6.9, 3.28 6.88, 3.07 6.85 C2.86 6.81, 2.65 6.76, 2.44 6.69 C2.24 6.62, 2.04 6.54, 1.86 6.44 C1.67 6.34, 1.49 6.22, 1.33 6.09 C1.16 5.96, 1.01 5.82, 0.87 5.67 C0.73 5.51, 0.61 5.35, 0.5 5.17 C0.39 5, 0.3 4.82, 0.22 4.63 C0.15 4.44, 0.09 4.25, 0.06 4.05 C0.02 3.85, 0 3.65, 0 3.45 C0 3.25, 0.02 3.05, 0.06 2.85 C0.09 2.65, 0.15 2.46, 0.22 2.27 C0.3 2.08, 0.39 1.9, 0.5 1.72 C0.61 1.55, 0.73 1.39, 0.87 1.23 C1.01 1.08, 1.16 0.94, 1.33 0.81 C1.49 0.68, 1.67 0.56, 1.86 0.46 C2.04 0.36, 2.24 0.28, 2.44 0.21 C2.65 0.14, 2.86 0.09, 3.07 0.05 C3.28 0.02, 3.5 0, 3.72 0 C3.93 0, 4.15 0.02, 4.36 0.05 C4.57 0.09, 4.78 0.14, 4.99 0.21 C5.19 0.28, 5.39 0.36, 5.57 0.46 C5.76 0.56, 5.94 0.68, 6.1 0.81 C6.27 0.94, 6.42 1.08, 6.56 1.23 C6.7 1.39, 6.82 1.55, 6.93 1.72 C7.04 1.9, 7.13 2.08, 7.21 2.27 C7.28 2.46, 7.34 2.65, 7.37 2.85 C7.41 3.05, 7.42 3.35, 7.43 3.45 C7.44 3.55, 7.44 3.35, 7.43 3.45" stroke="#0078d4" stroke-width="1" fill="none"></path></g><g stroke-linecap="round" transform="translate(63.91789793386374 46.94898327690299) rotate(0 3.715061398534317 3.449699870067576)"><path d="M7.43 3.45 C7.43 3.65, 7.41 3.85, 7.37 4.05 C7.34 4.25, 7.28 4.44, 7.21 4.63 C7.13 4.82, 7.04 5, 6.93 5.17 C6.82 5.35, 6.7 5.51, 6.56 5.67 C6.42 5.82, 6.27 5.96, 6.1 6.09 C5.94 6.22, 5.76 6.34, 5.57 6.44 C5.39 6.54, 5.19 6.62, 4.99 6.69 C4.78 6.76, 4.57 6.81, 4.36 6.85 C4.15 6.88, 3.93 6.9, 3.72 6.9 C3.5 6.9, 3.28 6.88, 3.07 6.85 C2.86 6.81, 2.65 6.76, 2.44 6.69 C2.24 6.62, 2.04 6.54, 1.86 6.44 C1.67 6.34, 1.49 6.22, 1.33 6.09 C1.16 5.96, 1.01 5.82, 0.87 5.67 C0.73 5.51, 0.61 5.35, 0.5 5.17 C0.39 5, 0.3 4.82, 0.22 4.63 C0.15 4.44, 0.09 4.25, 0.06 4.05 C0.02 3.85, 0 3.65, 0 3.45 C0 3.25, 0.02 3.05, 0.06 2.85 C0.09 2.65, 0.15 2.46, 0.22 2.27 C0.3 2.08, 0.39 1.9, 0.5 1.72 C0.61 1.55, 0.73 1.39, 0.87 1.23 C1.01 1.08, 1.16 0.94, 1.33 0.81 C1.49 0.68, 1.67 0.56, 1.86 0.46 C2.04 0.36, 2.24 0.28, 2.44 0.21 C2.65 0.14, 2.86 0.09, 3.07 0.05 C3.28 0.02, 3.5 0, 3.72 0 C3.93 0, 4.15 0.02, 4.36 0.05 C4.57 0.09, 4.78 0.14, 4.99 0.21 C5.19 0.28, 5.39 0.36, 5.57 0.46 C5.76 0.56, 5.94 0.68, 6.1 0.81 C6.27 0.94, 6.42 1.08, 6.56 1.23 C6.7 1.39, 6.82 1.55, 6.93 1.72 C7.04 1.9, 7.13 2.08, 7.21 2.27 C7.28 2.46, 7.34 2.65, 7.37 2.85 C7.41 3.05, 7.42 3.35, 7.43 3.45 C7.44 3.55, 7.44 3.35, 7.43 3.45" stroke="none" stroke-width="0" fill="#0078d4"></path><path d="M7.43 3.45 C7.43 3.65, 7.41 3.85, 7.37 4.05 C7.34 4.25, 7.28 4.44, 7.21 4.63 C7.13 4.82, 7.04 5, 6.93 5.17 C6.82 5.35, 6.7 5.51, 6.56 5.67 C6.42 5.82, 6.27 5.96, 6.1 6.09 C5.94 6.22, 5.76 6.34, 5.57 6.44 C5.39 6.54, 5.19 6.62, 4.99 6.69 C4.78 6.76, 4.57 6.81, 4.36 6.85 C4.15 6.88, 3.93 6.9, 3.72 6.9 C3.5 6.9, 3.28 6.88, 3.07 6.85 C2.86 6.81, 2.65 6.76, 2.44 6.69 C2.24 6.62, 2.04 6.54, 1.86 6.44 C1.67 6.34, 1.49 6.22, 1.33 6.09 C1.16 5.96, 1.01 5.82, 0.87 5.67 C0.73 5.51, 0.61 5.35, 0.5 5.17 C0.39 5, 0.3 4.82, 0.22 4.63 C0.15 4.44, 0.09 4.25, 0.06 4.05 C0.02 3.85, 0 3.65, 0 3.45 C0 3.25, 0.02 3.05, 0.06 2.85 C0.09 2.65, 0.15 2.46, 0.22 2.27 C0.3 2.08, 0.39 1.9, 0.5 1.72 C0.61 1.55, 0.73 1.39, 0.87 1.23 C1.01 1.08, 1.16 0.94, 1.33 0.81 C1.49 0.68, 1.67 0.56, 1.86 0.46 C2.04 0.36, 2.24 0.28, 2.44 0.21 C2.65 0.14, 2.86 0.09, 3.07 0.05 C3.28 0.02, 3.5 0, 3.72 0 C3.93 0, 4.15 0.02, 4.36 0.05 C4.57 0.09, 4.78 0.14, 4.99 0.21 C5.19 0.28, 5.39 0.36, 5.57 0.46 C5.76 0.56, 5.94 0.68, 6.1 0.81 C6.27 0.94, 6.42 1.08, 6.56 1.23 C6.7 1.39, 6.82 1.55, 6.93 1.72 C7.04 1.9, 7.13 2.08, 7.21 2.27 C7.28 2.46, 7.34 2.65, 7.37 2.85 C7.41 3.05, 7.42 3.35, 7.43 3.45 C7.44 3.55, 7.44 3.35, 7.43 3.45" stroke="#0078d4" stroke-width="1" fill="none"></path></g><g stroke-linecap="round" transform="translate(34.620517754112825 30.0746803676289) rotate(0 22.03622347907026 2.99601725688251)"><path d="M0 0 L44.07 0 L44.07 5.99 L0 5.99" stroke="none" stroke-width="0" fill="#0078d4"></path><path d="M0 0 C13.99 0, 27.98 0, 44.07 0 M0 0 C9.27 0, 18.55 0, 44.07 0 M44.07 0 C44.07 2.31, 44.07 4.62, 44.07 5.99 M44.07 0 C44.07 1.33, 44.07 2.65, 44.07 5.99 M44.07 5.99 C27.26 5.99, 10.44 5.99, 0 5.99 M44.07 5.99 C29.6 5.99, 15.12 5.99, 0 5.99 M0 5.99 C0 3.62, 0 1.25, 0 0 M0 5.99 C0 4.21, 0 2.43, 0 0" stroke="#0078d4" stroke-width="1" fill="none"></path></g><g stroke-linecap="round" transform="translate(39.08574095780955 31.66684953842929) rotate(0 17.779222407271277 1.2383537995114295)"><path d="M0 0 L35.56 0 L35.56 2.48 L0 2.48" stroke="none" stroke-width="0" fill="#ffff"></path><path d="M0 0 C10.63 0, 21.26 0, 35.56 0 M0 0 C7.91 0, 15.82 0, 35.56 0 M35.56 0 C35.56 0.87, 35.56 1.75, 35.56 2.48 M35.56 0 C35.56 0.59, 35.56 1.18, 35.56 2.48 M35.56 2.48 C21.57 2.48, 7.58 2.48, 0 2.48 M35.56 2.48 C21.73 2.48, 7.89 2.48, 0 2.48 M0 2.48 C0 1.85, 0 1.23, 0 0 M0 2.48 C0 1.61, 0 0.74, 0 0" stroke="#ffff" stroke-width="1" fill="none"></path></g><g transform="translate(6 65.26248127226239) rotate(0 41 10)"><text x="0" y="0" font-family="Virgil, Segoe UI Emoji" font-size="16px" fill="#000000" text-anchor="start" style="white-space: pre;" direction="ltr" dominant-baseline="text-before-edge">IP Groups</text></g></svg>