<svg version="1.1" xmlns="http://www.w3.org/2000/svg" viewBox="0 0 141 96.40870815988501" width="141" height="96.40870815988501">
  <!-- svg-source:excalidraw -->
  
  <defs>
    
    
  </defs>
  <g transform="translate(6 70.40870815988501) rotate(0 64.5 10)"><text x="64.5" y="0" font-family="Virgil, Segoe UI Emoji" font-size="16px" fill="#000000" text-anchor="middle" style="white-space: pre;" direction="ltr" dominant-baseline="text-before-edge">Active Directory</text></g><g stroke-linecap="round"><g transform="translate(74.2619152173279 6) rotate(0 7.470469146370078 22.82438568579596)" fill-rule="evenodd"><path d="M-0.15 0.26 L-2.07 46.47 L18.24 32.81 L-0.36 0.57" stroke="none" stroke-width="0" fill="#228be6" fill-rule="evenodd"></path><path d="M0 0 C-1.4 15.89, -1.68 33.11, -2.96 45.65 M0 0 C-1.1 12.69, -1.97 25.7, -2.96 45.65 M-2.96 45.65 C3.19 41.76, 9.2 38.6, 17.9 33.47 M-2.96 45.65 C2.53 42.08, 8.01 39.74, 17.9 33.47 M17.9 33.47 C14.14 25.3, 9.78 18.88, 0 0 M17.9 33.47 C11.27 21.52, 4.78 9.47, 0 0 M0 0 C0 0, 0 0, 0 0 M0 0 C0 0, 0 0, 0 0" stroke="#228be6" stroke-width="2" fill="none"></path></g></g><mask></mask><g stroke-linecap="round"><g transform="translate(71.33088659106352 6.16835207261056) rotate(0 -10.457116022095988 22.22279497682166)" fill-rule="evenodd"><path d="M0.26 0.89 L-0.98 44.79 L-21.57 32.92 L0.57 -0.35" stroke="none" stroke-width="0" fill="#88dee6" fill-rule="evenodd"></path><path d="M0 0 C-0.92 11.34, -0.54 21.39, -1.8 44.45 M0 0 C-0.65 10.31, -1.12 20.87, -1.8 44.45 M-1.8 44.45 C-7.73 40.9, -12.97 37.37, -20.91 33.28 M-1.8 44.45 C-9.58 40.47, -16.17 35.44, -20.91 33.28 M-20.91 33.28 C-14.25 21.24, -6.07 10.46, 0 0 M-20.91 33.28 C-14.11 23.05, -7.56 13.34, 0 0 M0 0 C0 0, 0 0, 0 0 M0 0 C0 0, 0 0, 0 0" stroke="#88dee6" stroke-width="2" fill="none"></path></g></g><mask></mask><g stroke-linecap="round"><g transform="translate(70.64900472823228 56.227066201182424) rotate(0 -13.385837658744094 -1.940551905064467)" fill-rule="evenodd"><path d="M0.41 0.08 L-1.33 7.19 L-26.57 -5.99 L-22.73 -12.42 L-0.49 -0.84" stroke="none" stroke-width="0" fill="#88dee6" fill-rule="evenodd"></path><path d="M0 0 C-0.04 2.56, -0.58 4.66, -0.8 7.66 M0 0 C-0.36 2.69, -0.62 5.72, -0.8 7.66 M-0.8 7.66 C-9.84 3.16, -18.87 -0.9, -26.77 -6.16 M-0.8 7.66 C-10.47 2.71, -21.13 -2.75, -26.77 -6.16 M-26.77 -6.16 C-26.11 -7.26, -25.03 -8.32, -23 -11.54 M-26.77 -6.16 C-25.92 -7.27, -24.89 -8.66, -23 -11.54 M-23 -11.54 C-17.52 -7.55, -11.35 -6.06, 0 0 M-23 -11.54 C-14.4 -7.14, -6.54 -3.06, 0 0 M0 0 C0 0, 0 0, 0 0 M0 0 C0 0, 0 0, 0 0" stroke="#88dee6" stroke-width="2" fill="none"></path></g></g><mask></mask><g stroke-linecap="round"><g transform="translate(72.63602465778285 54.93815014884558) rotate(0 12.17436187094063 -1.8662006080148785)" fill-rule="evenodd"><path d="M0.08 -0.53 L-1.18 8.01 L25.23 -5.89 L20.65 -12.03 L-0.84 -0.42" stroke="none" stroke-width="0" fill="#228be6" fill-rule="evenodd"></path><path d="M0 0 C-0.11 2.13, -0.67 4.66, -0.71 7.81 M0 0 C-0.4 2.17, -0.43 4.43, -0.71 7.81 M-0.71 7.81 C7.16 3.27, 15.42 0.39, 25.06 -6.16 M-0.71 7.81 C8.45 2.61, 16.95 -2.16, 25.06 -6.16 M25.06 -6.16 C23.94 -7.68, 22.84 -9.82, 21.53 -11.54 M25.06 -6.16 C24.19 -7.55, 23.06 -9.24, 21.53 -11.54 M21.53 -11.54 C15.87 -8.77, 7.74 -4.03, 0 0 M21.53 -11.54 C15.2 -8.06, 8.64 -4.06, 0 0 M0 0 C0 0, 0 0, 0 0 M0 0 C0 0, 0 0, 0 0" stroke="#228be6" stroke-width="2" fill="none"></path></g></g><mask></mask></svg>