<svg version="1.1" xmlns="http://www.w3.org/2000/svg" viewBox="0 0 85.18950786341384 140.90382359840487" width="85.18950786341384" height="140.90382359840487">
  <!-- svg-source:excalidraw -->
  
  <defs>
    
    
  </defs>
  <g stroke-linecap="round" transform="translate(6.10761204841242 12.525203299071563) rotate(0 22.025006862739133 14.064161008737017)"><path d="M0 0 L44.05 0 L44.05 28.13 L0 28.13" stroke="none" stroke-width="0" fill="#32d4f5"></path><path d="M0 0 C16.89 0, 33.78 0, 44.05 0 M0 0 C11.06 0, 22.12 0, 44.05 0 M44.05 0 C44.05 7.6, 44.05 15.21, 44.05 28.13 M44.05 0 C44.05 7.36, 44.05 14.73, 44.05 28.13 M44.05 28.13 C32.91 28.13, 21.78 28.13, 0 28.13 M44.05 28.13 C28.27 28.13, 12.49 28.13, 0 28.13 M0 28.13 C0 18.79, 0 9.44, 0 0 M0 28.13 C0 21.15, 0 14.18, 0 0" stroke="#32d4f5" stroke-width="1" fill="none"></path></g><g stroke-linecap="round" transform="translate(6 6) rotate(0 22.03622347907026 2.99601725688251)"><path d="M0 0 L44.07 0 L44.07 5.99 L0 5.99" stroke="none" stroke-width="0" fill="#767676"></path><path d="M0 0 C15.99 0, 31.98 0, 44.07 0 M0 0 C11.37 0, 22.73 0, 44.07 0 M44.07 0 C44.07 1.36, 44.07 2.71, 44.07 5.99 M44.07 0 C44.07 1.6, 44.07 3.2, 44.07 5.99 M44.07 5.99 C28.31 5.99, 12.54 5.99, 0 5.99 M44.07 5.99 C34.33 5.99, 24.59 5.99, 0 5.99 M0 5.99 C0 4.35, 0 2.71, 0 0 M0 5.99 C0 4.1, 0 2.21, 0 0" stroke="#767676" stroke-width="1" fill="none"></path></g><g stroke-linecap="round" transform="translate(10.465223203698542 7.5921691708006165) rotate(0 17.779222407271277 1.2383537995114295)"><path d="M0 0 L35.56 0 L35.56 2.48 L0 2.48" stroke="none" stroke-width="0" fill="#ffff"></path><path d="M0 0 C7.16 0, 14.33 0, 35.56 0 M0 0 C12.19 0, 24.39 0, 35.56 0 M35.56 0 C35.56 0.9, 35.56 1.81, 35.56 2.48 M35.56 0 C35.56 0.54, 35.56 1.07, 35.56 2.48 M35.56 2.48 C22.13 2.48, 8.71 2.48, 0 2.48 M35.56 2.48 C24.27 2.48, 12.98 2.48, 0 2.48 M0 2.48 C0 1.83, 0 1.18, 0 0 M0 2.48 C0 1.62, 0 0.76, 0 0" stroke="#ffff" stroke-width="1" fill="none"></path></g><g stroke-linecap="round" transform="translate(18.617429131945755 24.071072922780786) rotate(0 22.025006862739133 14.064161008737017)"><path d="M0 0 L44.05 0 L44.05 28.13 L0 28.13" stroke="none" stroke-width="0" fill="#32d4f5"></path><path d="M0 0 C10.5 0, 20.99 0, 44.05 0 M0 0 C10.92 0, 21.84 0, 44.05 0 M44.05 0 C44.05 7.85, 44.05 15.71, 44.05 28.13 M44.05 0 C44.05 7.07, 44.05 14.14, 44.05 28.13 M44.05 28.13 C31.46 28.13, 18.87 28.13, 0 28.13 M44.05 28.13 C27.39 28.13, 10.74 28.13, 0 28.13 M0 28.13 C0 20.45, 0 12.77, 0 0 M0 28.13 C0 17.3, 0 6.48, 0 0" stroke="#32d4f5" stroke-width="1" fill="none"></path></g><g stroke-linecap="round" transform="translate(18.509817083537428 17.54586962370945) rotate(0 22.03622347907026 2.99601725688251)"><path d="M0 0 L44.07 0 L44.07 5.99 L0 5.99" stroke="none" stroke-width="0" fill="#767676"></path><path d="M0 0 C9.82 0, 19.64 0, 44.07 0 M0 0 C10.05 0, 20.11 0, 44.07 0 M44.07 0 C44.07 1.69, 44.07 3.38, 44.07 5.99 M44.07 0 C44.07 1.74, 44.07 3.49, 44.07 5.99 M44.07 5.99 C29.18 5.99, 14.29 5.99, 0 5.99 M44.07 5.99 C34.33 5.99, 24.59 5.99, 0 5.99 M0 5.99 C0 4.06, 0 2.14, 0 0 M0 5.99 C0 4.31, 0 2.62, 0 0" stroke="#767676" stroke-width="1" fill="none"></path></g><g stroke-linecap="round" transform="translate(22.975040287235515 19.138038794510067) rotate(0 17.779222407271277 1.2383537995114295)"><path d="M0 0 L35.56 0 L35.56 2.48 L0 2.48" stroke="none" stroke-width="0" fill="#ffff"></path><path d="M0 0 C12.78 0, 25.56 0, 35.56 0 M0 0 C9.78 0, 19.56 0, 35.56 0 M35.56 0 C35.56 0.55, 35.56 1.11, 35.56 2.48 M35.56 0 C35.56 0.91, 35.56 1.82, 35.56 2.48 M35.56 2.48 C27.64 2.48, 19.72 2.48, 0 2.48 M35.56 2.48 C24.14 2.48, 12.72 2.48, 0 2.48 M0 2.48 C0 1.65, 0 0.81, 0 0 M0 2.48 C0 1.64, 0 0.81, 0 0" stroke="#ffff" stroke-width="1" fill="none"></path></g><g stroke-linecap="round" transform="translate(34.00670343141178 36.38249236235242) rotate(0 22.025006862739133 14.064161008737017)"><path d="M0 0 L44.05 0 L44.05 28.13 L0 28.13" stroke="none" stroke-width="0" fill="#32d4f5"></path><path d="M0 0 C12.49 0, 24.99 0, 44.05 0 M0 0 C9.82 0, 19.64 0, 44.05 0 M44.05 0 C44.05 6.29, 44.05 12.59, 44.05 28.13 M44.05 0 C44.05 9.14, 44.05 18.28, 44.05 28.13 M44.05 28.13 C33.2 28.13, 22.36 28.13, 0 28.13 M44.05 28.13 C33.32 28.13, 22.59 28.13, 0 28.13 M0 28.13 C0 17.66, 0 7.18, 0 0 M0 28.13 C0 20.59, 0 13.05, 0 0" stroke="#32d4f5" stroke-width="1" fill="none"></path></g><g stroke-linecap="round" transform="translate(40.37538011461379 46.466230444088524) rotate(0 3.715061398534317 3.449699870067576)"><path d="M7.43 3.45 C7.43 3.65, 7.41 3.85, 7.37 4.05 C7.34 4.25, 7.28 4.44, 7.21 4.63 C7.13 4.82, 7.04 5, 6.93 5.17 C6.82 5.35, 6.7 5.51, 6.56 5.67 C6.42 5.82, 6.27 5.96, 6.1 6.09 C5.94 6.22, 5.76 6.34, 5.57 6.44 C5.39 6.54, 5.19 6.62, 4.99 6.69 C4.78 6.76, 4.57 6.81, 4.36 6.85 C4.15 6.88, 3.93 6.9, 3.72 6.9 C3.5 6.9, 3.28 6.88, 3.07 6.85 C2.86 6.81, 2.65 6.76, 2.44 6.69 C2.24 6.62, 2.04 6.54, 1.86 6.44 C1.67 6.34, 1.49 6.22, 1.33 6.09 C1.16 5.96, 1.01 5.82, 0.87 5.67 C0.73 5.51, 0.61 5.35, 0.5 5.17 C0.39 5, 0.3 4.82, 0.22 4.63 C0.15 4.44, 0.09 4.25, 0.06 4.05 C0.02 3.85, 0 3.65, 0 3.45 C0 3.25, 0.02 3.05, 0.06 2.85 C0.09 2.65, 0.15 2.46, 0.22 2.27 C0.3 2.08, 0.39 1.9, 0.5 1.72 C0.61 1.55, 0.73 1.39, 0.87 1.23 C1.01 1.08, 1.16 0.94, 1.33 0.81 C1.49 0.68, 1.67 0.56, 1.86 0.46 C2.04 0.36, 2.24 0.28, 2.44 0.21 C2.65 0.14, 2.86 0.09, 3.07 0.05 C3.28 0.02, 3.5 0, 3.72 0 C3.93 0, 4.15 0.02, 4.36 0.05 C4.57 0.09, 4.78 0.14, 4.99 0.21 C5.19 0.28, 5.39 0.36, 5.57 0.46 C5.76 0.56, 5.94 0.68, 6.1 0.81 C6.27 0.94, 6.42 1.08, 6.56 1.23 C6.7 1.39, 6.82 1.55, 6.93 1.72 C7.04 1.9, 7.13 2.08, 7.21 2.27 C7.28 2.46, 7.34 2.65, 7.37 2.85 C7.41 3.05, 7.42 3.35, 7.43 3.45 C7.44 3.55, 7.44 3.35, 7.43 3.45" stroke="none" stroke-width="0" fill="#ffff"></path><path d="M7.43 3.45 C7.43 3.65, 7.41 3.85, 7.37 4.05 C7.34 4.25, 7.28 4.44, 7.21 4.63 C7.13 4.82, 7.04 5, 6.93 5.17 C6.82 5.35, 6.7 5.51, 6.56 5.67 C6.42 5.82, 6.27 5.96, 6.1 6.09 C5.94 6.22, 5.76 6.34, 5.57 6.44 C5.39 6.54, 5.19 6.62, 4.99 6.69 C4.78 6.76, 4.57 6.81, 4.36 6.85 C4.15 6.88, 3.93 6.9, 3.72 6.9 C3.5 6.9, 3.28 6.88, 3.07 6.85 C2.86 6.81, 2.65 6.76, 2.44 6.69 C2.24 6.62, 2.04 6.54, 1.86 6.44 C1.67 6.34, 1.49 6.22, 1.33 6.09 C1.16 5.96, 1.01 5.82, 0.87 5.67 C0.73 5.51, 0.61 5.35, 0.5 5.17 C0.39 5, 0.3 4.82, 0.22 4.63 C0.15 4.44, 0.09 4.25, 0.06 4.05 C0.02 3.85, 0 3.65, 0 3.45 C0 3.25, 0.02 3.05, 0.06 2.85 C0.09 2.65, 0.15 2.46, 0.22 2.27 C0.3 2.08, 0.39 1.9, 0.5 1.72 C0.61 1.55, 0.73 1.39, 0.87 1.23 C1.01 1.08, 1.16 0.94, 1.33 0.81 C1.49 0.68, 1.67 0.56, 1.86 0.46 C2.04 0.36, 2.24 0.28, 2.44 0.21 C2.65 0.14, 2.86 0.09, 3.07 0.05 C3.28 0.02, 3.5 0, 3.72 0 C3.93 0, 4.15 0.02, 4.36 0.05 C4.57 0.09, 4.78 0.14, 4.99 0.21 C5.19 0.28, 5.39 0.36, 5.57 0.46 C5.76 0.56, 5.94 0.68, 6.1 0.81 C6.27 0.94, 6.42 1.08, 6.56 1.23 C6.7 1.39, 6.82 1.55, 6.93 1.72 C7.04 1.9, 7.13 2.08, 7.21 2.27 C7.28 2.46, 7.34 2.65, 7.37 2.85 C7.41 3.05, 7.42 3.35, 7.43 3.45 C7.44 3.55, 7.44 3.35, 7.43 3.45" stroke="#ffffff" stroke-width="1" fill="none"></path></g><g stroke-linecap="round" transform="translate(52.05128736714914 46.73159197255518) rotate(0 3.715061398534317 3.449699870067576)"><path d="M7.43 3.45 C7.43 3.65, 7.41 3.85, 7.37 4.05 C7.34 4.25, 7.28 4.44, 7.21 4.63 C7.13 4.82, 7.04 5, 6.93 5.17 C6.82 5.35, 6.7 5.51, 6.56 5.67 C6.42 5.82, 6.27 5.96, 6.1 6.09 C5.94 6.22, 5.76 6.34, 5.57 6.44 C5.39 6.54, 5.19 6.62, 4.99 6.69 C4.78 6.76, 4.57 6.81, 4.36 6.85 C4.15 6.88, 3.93 6.9, 3.72 6.9 C3.5 6.9, 3.28 6.88, 3.07 6.85 C2.86 6.81, 2.65 6.76, 2.44 6.69 C2.24 6.62, 2.04 6.54, 1.86 6.44 C1.67 6.34, 1.49 6.22, 1.33 6.09 C1.16 5.96, 1.01 5.82, 0.87 5.67 C0.73 5.51, 0.61 5.35, 0.5 5.17 C0.39 5, 0.3 4.82, 0.22 4.63 C0.15 4.44, 0.09 4.25, 0.06 4.05 C0.02 3.85, 0 3.65, 0 3.45 C0 3.25, 0.02 3.05, 0.06 2.85 C0.09 2.65, 0.15 2.46, 0.22 2.27 C0.3 2.08, 0.39 1.9, 0.5 1.72 C0.61 1.55, 0.73 1.39, 0.87 1.23 C1.01 1.08, 1.16 0.94, 1.33 0.81 C1.49 0.68, 1.67 0.56, 1.86 0.46 C2.04 0.36, 2.24 0.28, 2.44 0.21 C2.65 0.14, 2.86 0.09, 3.07 0.05 C3.28 0.02, 3.5 0, 3.72 0 C3.93 0, 4.15 0.02, 4.36 0.05 C4.57 0.09, 4.78 0.14, 4.99 0.21 C5.19 0.28, 5.39 0.36, 5.57 0.46 C5.76 0.56, 5.94 0.68, 6.1 0.81 C6.27 0.94, 6.42 1.08, 6.56 1.23 C6.7 1.39, 6.82 1.55, 6.93 1.72 C7.04 1.9, 7.13 2.08, 7.21 2.27 C7.28 2.46, 7.34 2.65, 7.37 2.85 C7.41 3.05, 7.42 3.35, 7.43 3.45 C7.44 3.55, 7.44 3.35, 7.43 3.45" stroke="none" stroke-width="0" fill="#ffff"></path><path d="M7.43 3.45 C7.43 3.65, 7.41 3.85, 7.37 4.05 C7.34 4.25, 7.28 4.44, 7.21 4.63 C7.13 4.82, 7.04 5, 6.93 5.17 C6.82 5.35, 6.7 5.51, 6.56 5.67 C6.42 5.82, 6.27 5.96, 6.1 6.09 C5.94 6.22, 5.76 6.34, 5.57 6.44 C5.39 6.54, 5.19 6.62, 4.99 6.69 C4.78 6.76, 4.57 6.81, 4.36 6.85 C4.15 6.88, 3.93 6.9, 3.72 6.9 C3.5 6.9, 3.28 6.88, 3.07 6.85 C2.86 6.81, 2.65 6.76, 2.44 6.69 C2.24 6.62, 2.04 6.54, 1.86 6.44 C1.67 6.34, 1.49 6.22, 1.33 6.09 C1.16 5.96, 1.01 5.82, 0.87 5.67 C0.73 5.51, 0.61 5.35, 0.5 5.17 C0.39 5, 0.3 4.82, 0.22 4.63 C0.15 4.44, 0.09 4.25, 0.06 4.05 C0.02 3.85, 0 3.65, 0 3.45 C0 3.25, 0.02 3.05, 0.06 2.85 C0.09 2.65, 0.15 2.46, 0.22 2.27 C0.3 2.08, 0.39 1.9, 0.5 1.72 C0.61 1.55, 0.73 1.39, 0.87 1.23 C1.01 1.08, 1.16 0.94, 1.33 0.81 C1.49 0.68, 1.67 0.56, 1.86 0.46 C2.04 0.36, 2.24 0.28, 2.44 0.21 C2.65 0.14, 2.86 0.09, 3.07 0.05 C3.28 0.02, 3.5 0, 3.72 0 C3.93 0, 4.15 0.02, 4.36 0.05 C4.57 0.09, 4.78 0.14, 4.99 0.21 C5.19 0.28, 5.39 0.36, 5.57 0.46 C5.76 0.56, 5.94 0.68, 6.1 0.81 C6.27 0.94, 6.42 1.08, 6.56 1.23 C6.7 1.39, 6.82 1.55, 6.93 1.72 C7.04 1.9, 7.13 2.08, 7.21 2.27 C7.28 2.46, 7.34 2.65, 7.37 2.85 C7.41 3.05, 7.42 3.35, 7.43 3.45 C7.44 3.55, 7.44 3.35, 7.43 3.45" stroke="#ffff" stroke-width="1" fill="none"></path></g><g stroke-linecap="round" transform="translate(63.19647156275255 46.73159197255518) rotate(0 3.715061398534317 3.449699870067576)"><path d="M7.43 3.45 C7.43 3.65, 7.41 3.85, 7.37 4.05 C7.34 4.25, 7.28 4.44, 7.21 4.63 C7.13 4.82, 7.04 5, 6.93 5.17 C6.82 5.35, 6.7 5.51, 6.56 5.67 C6.42 5.82, 6.27 5.96, 6.1 6.09 C5.94 6.22, 5.76 6.34, 5.57 6.44 C5.39 6.54, 5.19 6.62, 4.99 6.69 C4.78 6.76, 4.57 6.81, 4.36 6.85 C4.15 6.88, 3.93 6.9, 3.72 6.9 C3.5 6.9, 3.28 6.88, 3.07 6.85 C2.86 6.81, 2.65 6.76, 2.44 6.69 C2.24 6.62, 2.04 6.54, 1.86 6.44 C1.67 6.34, 1.49 6.22, 1.33 6.09 C1.16 5.96, 1.01 5.82, 0.87 5.67 C0.73 5.51, 0.61 5.35, 0.5 5.17 C0.39 5, 0.3 4.82, 0.22 4.63 C0.15 4.44, 0.09 4.25, 0.06 4.05 C0.02 3.85, 0 3.65, 0 3.45 C0 3.25, 0.02 3.05, 0.06 2.85 C0.09 2.65, 0.15 2.46, 0.22 2.27 C0.3 2.08, 0.39 1.9, 0.5 1.72 C0.61 1.55, 0.73 1.39, 0.87 1.23 C1.01 1.08, 1.16 0.94, 1.33 0.81 C1.49 0.68, 1.67 0.56, 1.86 0.46 C2.04 0.36, 2.24 0.28, 2.44 0.21 C2.65 0.14, 2.86 0.09, 3.07 0.05 C3.28 0.02, 3.5 0, 3.72 0 C3.93 0, 4.15 0.02, 4.36 0.05 C4.57 0.09, 4.78 0.14, 4.99 0.21 C5.19 0.28, 5.39 0.36, 5.57 0.46 C5.76 0.56, 5.94 0.68, 6.1 0.81 C6.27 0.94, 6.42 1.08, 6.56 1.23 C6.7 1.39, 6.82 1.55, 6.93 1.72 C7.04 1.9, 7.13 2.08, 7.21 2.27 C7.28 2.46, 7.34 2.65, 7.37 2.85 C7.41 3.05, 7.42 3.35, 7.43 3.45 C7.44 3.55, 7.44 3.35, 7.43 3.45" stroke="none" stroke-width="0" fill="#ffff"></path><path d="M7.43 3.45 C7.43 3.65, 7.41 3.85, 7.37 4.05 C7.34 4.25, 7.28 4.44, 7.21 4.63 C7.13 4.82, 7.04 5, 6.93 5.17 C6.82 5.35, 6.7 5.51, 6.56 5.67 C6.42 5.82, 6.27 5.96, 6.1 6.09 C5.94 6.22, 5.76 6.34, 5.57 6.44 C5.39 6.54, 5.19 6.62, 4.99 6.69 C4.78 6.76, 4.57 6.81, 4.36 6.85 C4.15 6.88, 3.93 6.9, 3.72 6.9 C3.5 6.9, 3.28 6.88, 3.07 6.85 C2.86 6.81, 2.65 6.76, 2.44 6.69 C2.24 6.62, 2.04 6.54, 1.86 6.44 C1.67 6.34, 1.49 6.22, 1.33 6.09 C1.16 5.96, 1.01 5.82, 0.87 5.67 C0.73 5.51, 0.61 5.35, 0.5 5.17 C0.39 5, 0.3 4.82, 0.22 4.63 C0.15 4.44, 0.09 4.25, 0.06 4.05 C0.02 3.85, 0 3.65, 0 3.45 C0 3.25, 0.02 3.05, 0.06 2.85 C0.09 2.65, 0.15 2.46, 0.22 2.27 C0.3 2.08, 0.39 1.9, 0.5 1.72 C0.61 1.55, 0.73 1.39, 0.87 1.23 C1.01 1.08, 1.16 0.94, 1.33 0.81 C1.49 0.68, 1.67 0.56, 1.86 0.46 C2.04 0.36, 2.24 0.28, 2.44 0.21 C2.65 0.14, 2.86 0.09, 3.07 0.05 C3.28 0.02, 3.5 0, 3.72 0 C3.93 0, 4.15 0.02, 4.36 0.05 C4.57 0.09, 4.78 0.14, 4.99 0.21 C5.19 0.28, 5.39 0.36, 5.57 0.46 C5.76 0.56, 5.94 0.68, 6.1 0.81 C6.27 0.94, 6.42 1.08, 6.56 1.23 C6.7 1.39, 6.82 1.55, 6.93 1.72 C7.04 1.9, 7.13 2.08, 7.21 2.27 C7.28 2.46, 7.34 2.65, 7.37 2.85 C7.41 3.05, 7.42 3.35, 7.43 3.45 C7.44 3.55, 7.44 3.35, 7.43 3.45" stroke="#ffff" stroke-width="1" fill="none"></path></g><g stroke-linecap="round" transform="translate(33.89909138300163 29.857289063281087) rotate(0 22.03622347907026 2.99601725688251)"><path d="M0 0 L44.07 0 L44.07 5.99 L0 5.99" stroke="none" stroke-width="0" fill="#767676"></path><path d="M0 0 C10.93 0, 21.85 0, 44.07 0 M0 0 C12.31 0, 24.61 0, 44.07 0 M44.07 0 C44.07 1.51, 44.07 3.01, 44.07 5.99 M44.07 0 C44.07 1.71, 44.07 3.43, 44.07 5.99 M44.07 5.99 C27.41 5.99, 10.74 5.99, 0 5.99 M44.07 5.99 C32.04 5.99, 20.01 5.99, 0 5.99 M0 5.99 C0 3.69, 0 1.38, 0 0 M0 5.99 C0 3.72, 0 1.45, 0 0" stroke="#767676" stroke-width="1" fill="none"></path></g><g stroke-linecap="round" transform="translate(38.364314586698356 31.449458234081476) rotate(0 17.779222407271277 1.2383537995114295)"><path d="M0 0 L35.56 0 L35.56 2.48 L0 2.48" stroke="none" stroke-width="0" fill="#ffff"></path><path d="M0 0 C8.11 0, 16.22 0, 35.56 0 M0 0 C10.01 0, 20.03 0, 35.56 0 M35.56 0 C35.56 0.72, 35.56 1.44, 35.56 2.48 M35.56 0 C35.56 0.84, 35.56 1.67, 35.56 2.48 M35.56 2.48 C27.7 2.48, 19.84 2.48, 0 2.48 M35.56 2.48 C24.11 2.48, 12.67 2.48, 0 2.48 M0 2.48 C0 1.78, 0 1.08, 0 0 M0 2.48 C0 1.8, 0 1.12, 0 0" stroke="#ffff" stroke-width="1" fill="none"></path></g><g transform="translate(8.189507863413837 74.90382359840487) rotate(0 35.5 30)"><text x="0" y="0" font-family="Virgil, Segoe UI Emoji" font-size="16px" fill="#000000" text-anchor="start" style="white-space: pre;" direction="ltr" dominant-baseline="text-before-edge">Public IP</text><text x="0" y="20" font-family="Virgil, Segoe UI Emoji" font-size="16px" fill="#000000" text-anchor="start" style="white-space: pre;" direction="ltr" dominant-baseline="text-before-edge">Prefixes</text><text x="0" y="40" font-family="Virgil, Segoe UI Emoji" font-size="16px" fill="#000000" text-anchor="start" style="white-space: pre;" direction="ltr" dominant-baseline="text-before-edge"></text></g></svg>