<svg version="1.1" xmlns="http://www.w3.org/2000/svg" viewBox="0 0 101 102.09415584415575" width="101" height="102.09415584415575">
  <!-- svg-source:excalidraw -->
  
  <defs>
    
    
  </defs>
  <g stroke-linecap="round" transform="translate(15.385521885521712 6) rotate(0 34 33)"><path d="M68 33 C68 34.72, 67.86 36.46, 67.58 38.16 C67.3 39.86, 66.88 41.56, 66.34 43.2 C65.79 44.83, 65.1 46.45, 64.29 47.98 C63.49 49.51, 62.55 51, 61.51 52.4 C60.46 53.79, 59.3 55.12, 58.04 56.33 C56.79 57.55, 55.42 58.69, 53.98 59.7 C52.55 60.71, 51.02 61.62, 49.44 62.4 C47.86 63.18, 46.19 63.85, 44.51 64.38 C42.82 64.92, 41.07 65.32, 39.32 65.59 C37.57 65.86, 35.77 66, 34 66 C32.23 66, 30.43 65.86, 28.68 65.59 C26.93 65.32, 25.18 64.92, 23.49 64.38 C21.81 63.85, 20.14 63.18, 18.56 62.4 C16.98 61.62, 15.45 60.71, 14.02 59.7 C12.58 58.69, 11.21 57.55, 9.96 56.33 C8.7 55.12, 7.54 53.79, 6.49 52.4 C5.45 51, 4.51 49.51, 3.71 47.98 C2.9 46.45, 2.21 44.83, 1.66 43.2 C1.12 41.56, 0.7 39.86, 0.42 38.16 C0.14 36.46, 0 34.72, 0 33 C0 31.28, 0.14 29.54, 0.42 27.84 C0.7 26.14, 1.12 24.44, 1.66 22.8 C2.21 21.17, 2.9 19.55, 3.71 18.02 C4.51 16.49, 5.45 15, 6.49 13.6 C7.54 12.21, 8.7 10.88, 9.96 9.67 C11.21 8.45, 12.58 7.31, 14.02 6.3 C15.45 5.29, 16.98 4.38, 18.56 3.6 C20.14 2.82, 21.81 2.15, 23.49 1.62 C25.18 1.08, 26.93 0.68, 28.68 0.41 C30.43 0.14, 32.23 0, 34 0 C35.77 0, 37.57 0.14, 39.32 0.41 C41.07 0.68, 42.82 1.08, 44.51 1.62 C46.19 2.15, 47.86 2.82, 49.44 3.6 C51.02 4.38, 52.55 5.29, 53.98 6.3 C55.42 7.31, 56.79 8.45, 58.04 9.67 C59.3 10.88, 60.46 12.21, 61.51 13.6 C62.55 15, 63.49 16.49, 64.29 18.02 C65.1 19.55, 65.79 21.17, 66.34 22.8 C66.88 24.44, 67.3 26.14, 67.58 27.84 C67.86 29.54, 67.93 32.14, 68 33 C68.07 33.86, 68.07 32.14, 68 33" stroke="none" stroke-width="0" fill="#ffff"></path><path d="M68 33 C68 34.72, 67.86 36.46, 67.58 38.16 C67.3 39.86, 66.88 41.56, 66.34 43.2 C65.79 44.83, 65.1 46.45, 64.29 47.98 C63.49 49.51, 62.55 51, 61.51 52.4 C60.46 53.79, 59.3 55.12, 58.04 56.33 C56.79 57.55, 55.42 58.69, 53.98 59.7 C52.55 60.71, 51.02 61.62, 49.44 62.4 C47.86 63.18, 46.19 63.85, 44.51 64.38 C42.82 64.92, 41.07 65.32, 39.32 65.59 C37.57 65.86, 35.77 66, 34 66 C32.23 66, 30.43 65.86, 28.68 65.59 C26.93 65.32, 25.18 64.92, 23.49 64.38 C21.81 63.85, 20.14 63.18, 18.56 62.4 C16.98 61.62, 15.45 60.71, 14.02 59.7 C12.58 58.69, 11.21 57.55, 9.96 56.33 C8.7 55.12, 7.54 53.79, 6.49 52.4 C5.45 51, 4.51 49.51, 3.71 47.98 C2.9 46.45, 2.21 44.83, 1.66 43.2 C1.12 41.56, 0.7 39.86, 0.42 38.16 C0.14 36.46, 0 34.72, 0 33 C0 31.28, 0.14 29.54, 0.42 27.84 C0.7 26.14, 1.12 24.44, 1.66 22.8 C2.21 21.17, 2.9 19.55, 3.71 18.02 C4.51 16.49, 5.45 15, 6.49 13.6 C7.54 12.21, 8.7 10.88, 9.96 9.67 C11.21 8.45, 12.58 7.31, 14.02 6.3 C15.45 5.29, 16.98 4.38, 18.56 3.6 C20.14 2.82, 21.81 2.15, 23.49 1.62 C25.18 1.08, 26.93 0.68, 28.68 0.41 C30.43 0.14, 32.23 0, 34 0 C35.77 0, 37.57 0.14, 39.32 0.41 C41.07 0.68, 42.82 1.08, 44.51 1.62 C46.19 2.15, 47.86 2.82, 49.44 3.6 C51.02 4.38, 52.55 5.29, 53.98 6.3 C55.42 7.31, 56.79 8.45, 58.04 9.67 C59.3 10.88, 60.46 12.21, 61.51 13.6 C62.55 15, 63.49 16.49, 64.29 18.02 C65.1 19.55, 65.79 21.17, 66.34 22.8 C66.88 24.44, 67.3 26.14, 67.58 27.84 C67.86 29.54, 67.93 32.14, 68 33 C68.07 33.86, 68.07 32.14, 68 33" stroke="#1983db" stroke-width="4" fill="none"></path></g><g stroke-linecap="round"><g transform="translate(28.87037037037021 24.515151515151445) rotate(0 8.939393939393995 16.666666666666657)"><path d="M0 0 C5.04 4.7, 10.08 9.39, 17.88 16.67 M0 0 C5.16 4.81, 10.32 9.62, 17.88 16.67 M17.88 16.67 C14.69 20.04, 11.51 23.4, 2.12 33.33 M17.88 16.67 C12.1 22.78, 6.31 28.9, 2.12 33.33" stroke="#5e9624" stroke-width="4" fill="none"></path></g></g><mask></mask><g stroke-linecap="round"><g transform="translate(67.65824915824919 21.484848484848385) rotate(356.698134325565 -8.333333333333258 16.060606060606062)"><path d="M0 0 C-5.56 4.96, -11.12 9.91, -16.67 14.85 M0 0 C-5.84 5.21, -11.69 10.41, -16.67 14.85 M-16.67 14.85 C-12.1 19.95, -7.54 25.05, -1.21 32.12 M-16.67 14.85 C-11.39 20.75, -6.11 26.65, -1.21 32.12" stroke="#5e9624" stroke-width="4" fill="none"></path></g></g><mask></mask><g transform="translate(6 76.09415584415575) rotate(0 44.5 10)"><text x="0" y="0" font-family="Virgil, Segoe UI Emoji" font-size="16px" fill="#000000" text-anchor="start" style="white-space: pre;" direction="ltr" dominant-baseline="text-before-edge">Connections</text></g></svg>