<svg version="1.1" xmlns="http://www.w3.org/2000/svg" viewBox="0 0 90 114.49605824293849" width="90" height="114.49605824293849">
  <!-- svg-source:excalidraw -->
  
  <defs>
    
    
  </defs>
  <g stroke-linecap="round"><g transform="translate(38.44796817666975 7.899280037730932) rotate(0 -12.89128621419286 22.56718635559082)"><path d="M-1.72 -1.9 C-9.73 7.06, -19.96 15.09, -24.6 23.06 M-0.15 -0.96 C-8.76 6.93, -16.44 14.14, -26.68 23.12 M-26.71 25.1 C-18.82 31.07, -7.15 39.01, -3.05 45.76 M-26.75 22.84 C-20.32 28.18, -15.81 32.85, -3.04 44.84" stroke="#1864ab" stroke-width="4" fill="none"></path></g></g><mask></mask><g stroke-linecap="round"><g transform="translate(49.61620838081217 7.139188891898812) rotate(0 12.901310831670799 22.56718635559082)"><path d="M-1.9 -0.15 C3.84 3.88, 8.65 10.75, 25.68 23.55 M-0.96 -0.57 C7.38 7.05, 15.06 13.25, 25.74 23.68 M27.72 21.69 C16.85 33.07, 8.32 38.31, 2.68 43.57 M25.46 23.36 C18.29 29.16, 10.74 35.54, 1.76 46.1" stroke="#1864ab" stroke-width="4" fill="none"></path></g></g><mask></mask><g stroke-linecap="round" transform="translate(27.00841586954084 25.81606114531678) rotate(0 3.6459795633950307 3.645979563395258)"><path d="M3.46 0.16 C4.22 0.15, 5.36 0.24, 5.96 0.73 C6.55 1.21, 6.92 2.28, 7.05 3.05 C7.17 3.82, 7.11 4.72, 6.69 5.34 C6.27 5.96, 5.27 6.47, 4.53 6.79 C3.79 7.11, 2.95 7.49, 2.27 7.27 C1.59 7.06, 0.87 6.25, 0.46 5.5 C0.05 4.75, -0.32 3.61, -0.19 2.78 C-0.05 1.94, 0.6 0.95, 1.28 0.51 C1.96 0.06, 3.47 0.16, 3.9 0.1 C4.32 0.04, 3.78 0.13, 3.81 0.15 M4.21 -0.38 C5.02 -0.31, 5.95 0.61, 6.55 1.35 C7.14 2.1, 7.86 3.31, 7.77 4.1 C7.69 4.9, 6.62 5.65, 6.04 6.12 C5.46 6.58, 4.99 6.84, 4.29 6.9 C3.59 6.96, 2.46 6.88, 1.84 6.48 C1.21 6.08, 0.84 5.1, 0.55 4.51 C0.27 3.92, -0.02 3.63, 0.11 2.94 C0.24 2.24, 0.7 0.8, 1.31 0.36 C1.93 -0.09, 3.36 0.28, 3.81 0.27 C4.25 0.27, 3.94 0.28, 3.98 0.31" stroke="none" stroke-width="0" fill="#82c91e"></path><path d="M3.41 0.01 C4.18 -0.08, 5.03 0.19, 5.7 0.61 C6.38 1.03, 7.3 1.83, 7.46 2.54 C7.63 3.26, 7.08 4.17, 6.68 4.9 C6.28 5.62, 5.75 6.55, 5.05 6.89 C4.36 7.22, 3.25 7.05, 2.52 6.9 C1.8 6.75, 1.08 6.62, 0.7 5.99 C0.32 5.37, 0.22 3.92, 0.24 3.16 C0.26 2.41, 0.37 1.99, 0.83 1.47 C1.3 0.95, 2.55 0.25, 3.02 0.02 C3.48 -0.2, 3.62 0.06, 3.64 0.13 M2.69 -0.14 C3.43 -0.23, 5 0.13, 5.69 0.56 C6.38 0.99, 6.69 1.71, 6.83 2.43 C6.97 3.16, 6.69 4.22, 6.52 4.9 C6.35 5.58, 6.38 6.11, 5.81 6.51 C5.24 6.91, 3.99 7.38, 3.11 7.28 C2.22 7.18, 1.02 6.52, 0.5 5.9 C-0.03 5.27, -0.07 4.29, -0.07 3.54 C-0.07 2.78, -0.01 1.99, 0.49 1.37 C1 0.75, 2.49 -0.01, 2.94 -0.18 C3.4 -0.34, 3.23 0.3, 3.22 0.38" stroke="#495057" stroke-width="1" fill="none"></path></g><g stroke-linecap="round" transform="translate(39.71624057657209 25.986609902232885) rotate(0 3.6459795633950307 3.645979563395258)"><path d="M3.38 -0.09 C4.12 -0.21, 4.84 -0.05, 5.45 0.39 C6.07 0.83, 6.85 1.8, 7.07 2.54 C7.29 3.28, 7.13 4.1, 6.78 4.82 C6.42 5.54, 5.59 6.47, 4.97 6.87 C4.35 7.27, 3.73 7.44, 3.05 7.22 C2.36 7, 1.37 6.21, 0.84 5.56 C0.31 4.91, -0.11 4.05, -0.13 3.33 C-0.15 2.61, 0.13 1.8, 0.71 1.25 C1.3 0.69, 2.93 0.14, 3.38 0 C3.83 -0.14, 3.45 0.29, 3.41 0.41 M2.9 0.15 C3.63 0.12, 5.03 0.79, 5.82 1.14 C6.62 1.5, 7.45 1.61, 7.67 2.28 C7.88 2.95, 7.58 4.39, 7.11 5.16 C6.64 5.94, 5.65 6.54, 4.85 6.93 C4.06 7.31, 3.13 7.7, 2.36 7.48 C1.59 7.27, 0.55 6.41, 0.24 5.64 C-0.07 4.87, 0.4 3.69, 0.51 2.85 C0.62 2.02, 0.41 1.15, 0.92 0.64 C1.42 0.12, 3.12 -0.11, 3.56 -0.24 C3.99 -0.36, 3.56 -0.25, 3.52 -0.1" stroke="none" stroke-width="0" fill="#82c91e"></path><path d="M3.32 0.07 C4.11 -0.01, 5.13 0.61, 5.76 0.99 C6.39 1.38, 6.95 1.73, 7.12 2.39 C7.29 3.05, 7.08 4.25, 6.76 4.96 C6.43 5.67, 5.89 6.3, 5.16 6.66 C4.44 7.03, 3.12 7.26, 2.39 7.14 C1.67 7.03, 1.26 6.63, 0.82 5.96 C0.38 5.3, -0.36 4.02, -0.26 3.16 C-0.17 2.31, 0.79 1.29, 1.39 0.81 C2 0.34, 3.04 0.47, 3.39 0.32 C3.74 0.17, 3.47 -0.05, 3.49 -0.09 M3.53 0.09 C4.33 0.08, 5.42 0.18, 6.02 0.6 C6.62 1.01, 7.02 1.67, 7.13 2.57 C7.23 3.47, 7.07 5.2, 6.63 6 C6.19 6.79, 5.17 7.21, 4.47 7.34 C3.77 7.48, 3.09 7.13, 2.42 6.8 C1.76 6.46, 0.88 6.07, 0.5 5.35 C0.11 4.63, -0.05 3.29, 0.12 2.49 C0.29 1.7, 0.97 1, 1.54 0.59 C2.1 0.18, 3.09 0.18, 3.49 0.03 C3.9 -0.11, 3.96 -0.26, 3.98 -0.28" stroke="#495057" stroke-width="1" fill="none"></path></g><g stroke-linecap="round" transform="translate(53.46501987344709 25.883231606334448) rotate(0 3.6459795633950307 3.645979563395258)"><path d="M3.04 -0.16 C3.78 -0.34, 4.71 0.08, 5.38 0.49 C6.05 0.91, 6.83 1.61, 7.06 2.31 C7.29 3.01, 7.05 3.9, 6.76 4.7 C6.47 5.5, 5.96 6.67, 5.32 7.11 C4.67 7.55, 3.71 7.55, 2.9 7.33 C2.1 7.1, 1.01 6.43, 0.5 5.75 C0 5.07, -0.19 3.97, -0.1 3.23 C-0.01 2.49, 0.5 1.82, 1.05 1.3 C1.59 0.78, 2.76 0.33, 3.18 0.1 C3.6 -0.13, 3.52 -0.11, 3.58 -0.09 M3.9 0.08 C4.73 0.22, 6.07 0.89, 6.56 1.43 C7.05 1.96, 6.8 2.66, 6.83 3.29 C6.85 3.93, 7.06 4.66, 6.72 5.24 C6.37 5.82, 5.44 6.54, 4.76 6.77 C4.07 7, 3.34 6.76, 2.61 6.61 C1.87 6.46, 0.84 6.51, 0.34 5.86 C-0.16 5.22, -0.5 3.55, -0.4 2.74 C-0.29 1.93, 0.31 1.43, 0.96 1.01 C1.62 0.58, 3.08 0.34, 3.51 0.19 C3.95 0.03, 3.49 -0.03, 3.58 0.07" stroke="none" stroke-width="0" fill="#82c91e"></path><path d="M3.16 0.06 C3.91 -0.11, 5.27 0.11, 5.87 0.48 C6.48 0.86, 6.63 1.55, 6.78 2.29 C6.94 3.04, 7.09 4.25, 6.81 4.96 C6.53 5.67, 5.75 6.14, 5.1 6.55 C4.45 6.95, 3.58 7.54, 2.9 7.39 C2.23 7.23, 1.54 6.23, 1.03 5.64 C0.52 5.06, -0.09 4.61, -0.15 3.88 C-0.22 3.14, 0.06 1.87, 0.66 1.24 C1.26 0.61, 3.07 0.25, 3.46 0.08 C3.86 -0.09, 3.13 0.15, 3.04 0.2 M3.34 0.01 C4.1 -0.11, 4.83 0.09, 5.38 0.5 C5.93 0.91, 6.3 1.78, 6.65 2.49 C7 3.19, 7.65 3.99, 7.46 4.75 C7.27 5.5, 6.33 6.58, 5.51 7 C4.68 7.41, 3.33 7.41, 2.52 7.22 C1.71 7.03, 1.13 6.46, 0.63 5.85 C0.14 5.25, -0.48 4.42, -0.46 3.59 C-0.43 2.77, 0.16 1.46, 0.78 0.91 C1.41 0.37, 2.93 0.45, 3.29 0.3 C3.64 0.15, 2.98 0.06, 2.91 0.01" stroke="#495057" stroke-width="1" fill="none"></path></g><g transform="translate(6 58.49605824293849) rotate(0 39 25)"><text x="0" y="0" font-family="Virgil, Segoe UI Emoji" font-size="20px" fill="#000000" text-anchor="start" style="white-space: pre;" direction="ltr" dominant-baseline="text-before-edge">Virtual</text><text x="0" y="25" font-family="Virgil, Segoe UI Emoji" font-size="20px" fill="#000000" text-anchor="start" style="white-space: pre;" direction="ltr" dominant-baseline="text-before-edge">Network</text></g></svg>