<svg version="1.1" xmlns="http://www.w3.org/2000/svg" viewBox="0 0 424.5000000000001 362.5" width="424.5000000000001" height="362.5">
  <!-- svg-source:excalidraw -->
  
  <defs>
    
    
  </defs>
  <g stroke-linecap="round" transform="translate(6 6) rotate(0 87.49999999999994 65.00000000000011)"><path d="M32.5 0 C67.38 -4.22, 97.58 -5.51, 142.5 0 C163.05 -1.7, 175.09 9.23, 175 32.5 C173.31 47.03, 171.44 76.65, 175 97.5 C179.91 114.88, 166.92 128.77, 142.5 130 C108.13 130.11, 72.45 130.51, 32.5 130 C7.19 134.75, -4.39 115.07, 0 97.5 C-2.54 74.34, -4.86 49.76, 0 32.5 C-0.97 16.21, 13.01 -2.78, 32.5 0" stroke="none" stroke-width="0" fill="#2abee1"></path><path d="M32.5 0 C64.72 1.07, 93.27 -0.31, 142.5 0 M32.5 0 C72.05 -1.06, 112.46 1.18, 142.5 0 M142.5 0 C162.62 2.49, 177.7 8.65, 175 32.5 M142.5 0 C163.67 0.94, 173.46 12.09, 175 32.5 M175 32.5 C175.43 52.88, 176.46 78.36, 175 97.5 M175 32.5 C176.25 53.9, 174.07 70.98, 175 97.5 M175 97.5 C171.9 116.11, 166.34 128.33, 142.5 130 M175 97.5 C178.51 115.29, 164.27 128.47, 142.5 130 M142.5 130 C97.87 126.02, 59.09 127.78, 32.5 130 M142.5 130 C101.06 127.89, 56.69 127.59, 32.5 130 M32.5 130 C9.18 126.43, -3.77 121.02, 0 97.5 M32.5 130 C7.79 132.53, -4.06 117.07, 0 97.5 M0 97.5 C2.79 81.41, 2.24 58.55, 0 32.5 M0 97.5 C-0.04 79.63, -2.07 59.12, 0 32.5 M0 32.5 C-1.84 9.41, 12.97 -0.71, 32.5 0 M0 32.5 C1.59 12.98, 6.34 2, 32.5 0" stroke="#ffffff" stroke-width="4" fill="none"></path></g><g stroke-linecap="round" transform="translate(55.16666666666754 190.66666666666697) rotate(0 87.49999999999989 65.00000000000011)"><path d="M32.5 0 C52.78 6.14, 83.87 0.05, 142.5 0 C165.76 2.31, 177.11 14.51, 175 32.5 C173.4 48.75, 172.29 54.9, 175 97.5 C173.41 117.95, 160.3 128.17, 142.5 130 C123.09 125.63, 92.78 128.93, 32.5 130 C12.13 128.16, -4.57 115.3, 0 97.5 C-0.38 81.75, 0.05 65.09, 0 32.5 C5.3 6.11, 14.81 -1.25, 32.5 0" stroke="none" stroke-width="0" fill="#2abee1"></path><path d="M32.5 0 C65.04 -0.5, 94.62 -2.04, 142.5 0 M32.5 0 C73.86 2.88, 115.41 1.96, 142.5 0 M142.5 0 C165.46 2.49, 171.68 12.84, 175 32.5 M142.5 0 C159.8 -1.57, 177.21 9.45, 175 32.5 M175 32.5 C172.3 54.56, 173.71 72.77, 175 97.5 M175 32.5 C174.89 52.16, 175.27 69.62, 175 97.5 M175 97.5 C176.48 122.1, 161.17 130.72, 142.5 130 M175 97.5 C173.99 118.17, 165.74 126.88, 142.5 130 M142.5 130 C110.98 128.25, 75.66 126.57, 32.5 130 M142.5 130 C120.42 127.8, 97.23 128.74, 32.5 130 M32.5 130 C11.83 130.83, 2.07 115.46, 0 97.5 M32.5 130 C8.96 129.01, 2.42 121.35, 0 97.5 M0 97.5 C1.53 76.76, -3.64 63.02, 0 32.5 M0 97.5 C-0.49 76.87, 0.17 59.24, 0 32.5 M0 32.5 C1.87 13.79, 11.12 0.25, 32.5 0 M0 32.5 C-4.07 9.87, 11.43 2.76, 32.5 0" stroke="#ffffff" stroke-width="4" fill="none"></path></g><g stroke-linecap="round" transform="translate(67.66666666666686 62.66666666666674) rotate(0 18.33333333333337 15.833333333333371)"><path d="M18.65 0.41 C22.48 0.38, 28.08 1.89, 30.99 4.17 C33.9 6.44, 35.61 10.65, 36.11 14.06 C36.61 17.46, 35.95 21.76, 34 24.59 C32.05 27.42, 28.09 30.04, 24.42 31.04 C20.76 32.04, 15.79 31.82, 12 30.6 C8.22 29.38, 3.58 26.68, 1.72 23.72 C-0.14 20.75, -0.13 16.17, 0.82 12.82 C1.78 9.46, 4.34 5.81, 7.44 3.61 C10.55 1.41, 17.33 0.17, 19.43 -0.41 C21.54 -0.99, 20.04 -0.29, 20.05 0.11 M17.9 0.5 C21.48 0.06, 25.53 1.39, 28.64 3.41 C31.75 5.42, 35.65 9.3, 36.55 12.6 C37.46 15.9, 35.93 20.13, 34.06 23.2 C32.19 26.28, 28.72 29.67, 25.33 31.03 C21.94 32.39, 17.51 32.44, 13.71 31.38 C9.91 30.32, 4.87 27.47, 2.52 24.67 C0.16 21.87, -0.97 17.93, -0.44 14.58 C0.09 11.23, 2.79 7.07, 5.69 4.58 C8.58 2.1, 14.88 0.28, 16.94 -0.34 C18.99 -0.95, 18.04 0.62, 18 0.89" stroke="none" stroke-width="0" fill="#ffffff"></path><path d="M21.81 0.42 C25.36 0.89, 29.98 3.12, 32.39 5.87 C34.81 8.62, 36.4 13.54, 36.29 16.92 C36.18 20.3, 34.39 23.65, 31.75 26.14 C29.11 28.63, 24.39 31.35, 20.45 31.87 C16.51 32.39, 11.41 31.21, 8.13 29.28 C4.84 27.34, 1.85 23.51, 0.75 20.27 C-0.34 17.04, 0.02 12.89, 1.55 9.86 C3.08 6.83, 6.37 3.61, 9.95 2.08 C13.54 0.55, 20.81 0.82, 23.05 0.68 C25.29 0.53, 23.45 1.06, 23.39 1.22 M22.45 -0.15 C26.14 0.19, 29.98 2.93, 32.33 5.73 C34.68 8.53, 36.53 13.08, 36.55 16.65 C36.57 20.23, 35.08 24.72, 32.46 27.17 C29.84 29.63, 24.74 31.07, 20.83 31.4 C16.93 31.74, 12.36 30.97, 9.05 29.19 C5.73 27.41, 2.21 23.92, 0.92 20.7 C-0.37 17.49, -0.15 12.99, 1.31 9.89 C2.78 6.78, 6.32 3.54, 9.71 2.07 C13.09 0.59, 19.47 1.17, 21.6 1.05 C23.74 0.94, 22.54 1.22, 22.51 1.37" stroke="#ffffff" stroke-width="4" fill="none"></path></g><g stroke-linecap="round" transform="translate(342.66666666666686 10.166666666666742) rotate(0 18.33333333333337 15.833333333333371)"><path d="M16.11 -0.24 C19.79 -0.91, 25.34 0.63, 28.69 2.58 C32.05 4.53, 35.12 8.16, 36.24 11.46 C37.36 14.77, 36.99 19.4, 35.42 22.4 C33.86 25.39, 30.29 27.88, 26.84 29.44 C23.39 30.99, 18.54 32.31, 14.73 31.72 C10.93 31.13, 6.41 28.67, 3.99 25.9 C1.57 23.12, 0.17 18.52, 0.24 15.06 C0.31 11.6, 1.75 7.6, 4.4 5.14 C7.05 2.67, 14.02 1.06, 16.16 0.24 C18.31 -0.57, 17.2 -0.06, 17.29 0.24 M22.66 0.78 C26.34 1.28, 30.98 2.98, 33.36 5.57 C35.74 8.15, 37.08 12.68, 36.94 16.28 C36.79 19.88, 35.13 24.72, 32.48 27.17 C29.83 29.63, 25.02 30.78, 21.03 31.02 C17.05 31.26, 11.82 30.35, 8.55 28.6 C5.27 26.84, 2.53 23.7, 1.39 20.5 C0.24 17.31, 0.31 12.42, 1.67 9.43 C3.03 6.43, 6.02 4.12, 9.56 2.51 C13.1 0.9, 20.84 0.17, 22.9 -0.25 C24.97 -0.66, 22.09 -0.28, 21.93 0" stroke="none" stroke-width="0" fill="#ffffff"></path><path d="M13.83 0.06 C17.47 -0.82, 23.52 0.03, 27.01 1.57 C30.51 3.1, 33.27 6.2, 34.81 9.27 C36.34 12.35, 37.29 16.73, 36.23 20.01 C35.17 23.29, 31.86 27.02, 28.46 28.97 C25.06 30.92, 19.73 32.09, 15.83 31.72 C11.93 31.36, 7.62 29.28, 5.04 26.8 C2.45 24.32, 0.52 20.27, 0.31 16.84 C0.11 13.42, 1.35 8.98, 3.81 6.25 C6.27 3.53, 13.19 1.38, 15.09 0.49 C16.99 -0.4, 15.24 0.65, 15.2 0.94 M18.44 -0.09 C22.29 0.02, 27.56 2.39, 30.67 4.7 C33.78 7, 36.58 10.41, 37.1 13.76 C37.61 17.11, 35.94 21.94, 33.76 24.81 C31.59 27.67, 27.74 30.04, 24.05 30.97 C20.36 31.91, 15.26 31.74, 11.64 30.42 C8.02 29.11, 4.14 26.18, 2.31 23.08 C0.49 19.98, -0.21 15.06, 0.69 11.82 C1.59 8.57, 4.54 5.67, 7.69 3.62 C10.85 1.57, 17.74 0.01, 19.62 -0.49 C21.49 -0.99, 19.12 0.23, 18.94 0.6" stroke="#ffffff" stroke-width="4" fill="none"></path></g><g stroke-linecap="round" transform="translate(243.50000000000034 87.33333333333371) rotate(0 87.49999999999989 65.00000000000011)"><path d="M32.5 0 C70.04 0.9, 113.58 1.72, 142.5 0 C162.58 1.44, 172.12 9.72, 175 32.5 C175.05 50.31, 179.55 65.77, 175 97.5 C170.01 115.51, 169.28 134.91, 142.5 130 C118.65 132.96, 97.5 129.37, 32.5 130 C8.67 128.78, -1.77 115.52, 0 97.5 C5.44 76.38, -0.3 46.21, 0 32.5 C1 7.24, 11.41 -0.97, 32.5 0" stroke="none" stroke-width="0" fill="#2abee1"></path><path d="M32.5 0 C66.81 -4.36, 104.07 3.01, 142.5 0 M32.5 0 C69.36 -1.51, 104.32 0.73, 142.5 0 M142.5 0 C162.68 3.8, 177.99 9.29, 175 32.5 M142.5 0 C167.03 3.11, 172.49 10.34, 175 32.5 M175 32.5 C176.01 50.15, 173.01 75.61, 175 97.5 M175 32.5 C175.9 48.94, 175 68.41, 175 97.5 M175 97.5 C178.18 118.18, 161.88 126.9, 142.5 130 M175 97.5 C171.48 121.67, 162.24 133.51, 142.5 130 M142.5 130 C122.2 127.29, 93.1 127.09, 32.5 130 M142.5 130 C119.29 129.54, 90.62 130.59, 32.5 130 M32.5 130 C10.89 129.03, -0.54 117.51, 0 97.5 M32.5 130 C6.72 125.66, 2.13 116.12, 0 97.5 M0 97.5 C0.82 78.01, -1.21 55.32, 0 32.5 M0 97.5 C-1.44 74.28, -2.54 49.73, 0 32.5 M0 32.5 C1.07 7.93, 7.7 -1.84, 32.5 0 M0 32.5 C-1.64 13.29, 10.01 1.59, 32.5 0" stroke="#ffffff" stroke-width="4" fill="none"></path></g><g stroke-linecap="round" transform="translate(314.3333333333338 133.16666666666697) rotate(0 18.33333333333337 15.833333333333371)"><path d="M21.64 0.8 C25.28 1.3, 30.21 3.8, 32.78 6.4 C35.34 9.01, 37.06 13.09, 37.02 16.43 C36.98 19.76, 35.27 23.83, 32.53 26.41 C29.79 28.99, 24.46 31.37, 20.57 31.9 C16.68 32.42, 12.37 31.35, 9.17 29.55 C5.98 27.74, 2.71 24.39, 1.39 21.06 C0.06 17.73, -0.15 12.81, 1.23 9.57 C2.6 6.34, 6.06 3.1, 9.62 1.63 C13.19 0.16, 20.43 0.88, 22.6 0.75 C24.78 0.63, 22.69 0.62, 22.67 0.89 M21.62 0.64 C25.33 0.95, 29.06 3.15, 31.52 5.76 C33.98 8.36, 36.1 12.85, 36.37 16.25 C36.64 19.66, 35.68 23.65, 33.16 26.19 C30.65 28.73, 25.33 30.82, 21.28 31.5 C17.23 32.17, 12.21 31.85, 8.86 30.23 C5.5 28.6, 2.52 25.05, 1.17 21.73 C-0.19 18.41, -0.71 13.45, 0.71 10.29 C2.13 7.13, 6.35 4.53, 9.66 2.79 C12.98 1.05, 18.8 0.23, 20.6 -0.15 C22.4 -0.54, 20.5 0.19, 20.48 0.49" stroke="none" stroke-width="0" fill="#ffffff"></path><path d="M18.42 0.43 C22.22 0.3, 27.38 1.36, 30.33 3.59 C33.29 5.82, 35.61 10.38, 36.15 13.81 C36.7 17.24, 35.61 21.38, 33.59 24.16 C31.58 26.94, 27.7 29.41, 24.07 30.49 C20.44 31.57, 15.43 31.76, 11.81 30.63 C8.19 29.5, 4.24 26.65, 2.35 23.69 C0.46 20.73, -0.27 16.2, 0.47 12.87 C1.21 9.54, 3.65 5.92, 6.79 3.7 C9.93 1.49, 17.15 0.22, 19.33 -0.4 C21.51 -1.02, 19.88 -0.36, 19.89 -0.02 M15 0.34 C18.83 -0.25, 24.65 1.06, 28.1 2.71 C31.55 4.36, 34.35 7.15, 35.7 10.24 C37.05 13.32, 37.53 17.99, 36.18 21.23 C34.84 24.47, 31.15 27.94, 27.64 29.67 C24.12 31.4, 19.02 32.14, 15.1 31.59 C11.19 31.03, 6.76 28.85, 4.12 26.34 C1.48 23.84, -0.81 19.88, -0.75 16.55 C-0.68 13.22, 1.94 9.08, 4.5 6.37 C7.06 3.65, 12.77 1.28, 14.6 0.26 C16.42 -0.77, 15.28 -0.02, 15.43 0.21" stroke="#ffffff" stroke-width="4" fill="none"></path></g><g stroke-linecap="round" transform="translate(122.6666666666664 231.5000000000009) rotate(0 18.33333333333337 15.833333333333371)"><path d="M17.6 -0.04 C21.37 -0.34, 26.78 1.46, 29.93 3.51 C33.07 5.55, 35.76 8.97, 36.46 12.22 C37.17 15.46, 35.94 19.88, 34.14 22.97 C32.34 26.06, 29.19 29.47, 25.69 30.74 C22.19 32.02, 16.99 31.74, 13.14 30.62 C9.28 29.5, 4.71 26.88, 2.55 24.02 C0.4 21.17, -0.4 16.85, 0.21 13.48 C0.83 10.11, 3.22 5.98, 6.23 3.8 C9.25 1.62, 16.27 1.05, 18.32 0.4 C20.38 -0.25, 18.55 -0.35, 18.57 -0.08 M21.4 -0.06 C25.16 0.43, 30.72 3.98, 33.14 6.56 C35.57 9.15, 36.06 12.12, 35.96 15.45 C35.86 18.78, 35.02 23.81, 32.54 26.55 C30.07 29.29, 25.05 31.39, 21.12 31.89 C17.19 32.4, 12.4 31.53, 8.97 29.59 C5.53 27.65, 1.73 23.39, 0.49 20.26 C-0.75 17.12, 0.01 13.86, 1.52 10.79 C3.03 7.73, 6.08 3.62, 9.54 1.85 C13.01 0.09, 20.19 0.35, 22.28 0.2 C24.38 0.05, 22.21 0.65, 22.1 0.95" stroke="none" stroke-width="0" fill="#ffffff"></path><path d="M17.85 0.46 C21.63 0.08, 26.42 0.86, 29.56 2.86 C32.7 4.85, 35.78 8.98, 36.69 12.41 C37.61 15.85, 36.9 20.36, 35.05 23.44 C33.2 26.52, 29.27 29.73, 25.6 30.91 C21.92 32.09, 16.69 31.51, 12.98 30.5 C9.26 29.49, 5.42 27.54, 3.32 24.84 C1.22 22.14, -0.1 17.74, 0.37 14.29 C0.83 10.84, 3.22 6.53, 6.1 4.16 C8.98 1.78, 15.59 0.63, 17.65 0.02 C19.71 -0.59, 18.31 0.24, 18.45 0.48 M19.66 -0.6 C23.35 -0.7, 28.17 2.29, 31.05 4.58 C33.93 6.87, 36.46 9.89, 36.96 13.14 C37.46 16.39, 36.14 21.02, 34.06 24.08 C31.98 27.15, 28.2 30.57, 24.47 31.55 C20.73 32.52, 15.36 31.43, 11.64 29.93 C7.92 28.43, 3.94 25.48, 2.16 22.54 C0.39 19.61, 0.12 15.59, 1 12.32 C1.89 9.06, 4.49 4.87, 7.46 2.95 C10.43 1.02, 16.78 1.3, 18.82 0.76 C20.86 0.22, 19.72 -0.32, 19.71 -0.3" stroke="#ffffff" stroke-width="4" fill="none"></path></g><g stroke-linecap="round" transform="translate(102.03909404169474 106.11700113874417) rotate(195.75117366345353 108.12757262497223 5.716332194589086)"><path d="M2.86 0 C53.5 -4.43, 111.28 -1.36, 213.4 0 C212.94 2.75, 214.57 -1.39, 216.26 2.86 C215.31 4.33, 216.59 6.63, 216.26 8.57 C219.75 12.11, 212.51 12.41, 213.4 11.43 C153.44 13.81, 86.43 13.6, 2.86 11.43 C1.7 14.62, 2.18 11.02, 0 8.57 C0.79 5.57, 0.43 4.96, 0 2.86 C1.82 3.27, -0.35 1.03, 2.86 0" stroke="none" stroke-width="0" fill="#773adc"></path><path d="M2.86 0 C63.52 -0.24, 123.71 0.56, 213.4 0 M2.86 0 C59.53 2.7, 116.57 1.03, 213.4 0 M213.4 0 C216.49 -0.87, 215.1 2.2, 216.26 2.86 M213.4 0 C217.27 -0.37, 214.06 -0.35, 216.26 2.86 M216.26 2.86 C216.07 5.15, 216.17 6.59, 216.26 8.57 M216.26 2.86 C216.03 4.36, 216.53 6.15, 216.26 8.57 M216.26 8.57 C217.18 11.51, 216.67 10.59, 213.4 11.43 M216.26 8.57 C216.63 9.31, 217.08 11.89, 213.4 11.43 M213.4 11.43 C161.24 9.78, 113.02 12.3, 2.86 11.43 M213.4 11.43 C160.46 9.95, 108.7 9.62, 2.86 11.43 M2.86 11.43 C2.26 11.53, -1.06 11.14, 0 8.57 M2.86 11.43 C1.35 9.84, 1.31 9.27, 0 8.57 M0 8.57 C0.49 6.61, 0.29 4.83, 0 2.86 M0 8.57 C0 6.39, -0.2 4.19, 0 2.86 M0 2.86 C1.79 -0.15, 0.43 -0.74, 2.86 0 M0 2.86 C-1.91 1.99, -1.13 -0.53, 2.86 0" stroke="#773adc" stroke-width="4" fill="none"></path></g><g stroke-linecap="round" transform="translate(48.652123708929366 156.7733091925336) rotate(253.42178781612816 68.87322330374542 4.87997988411189)"><path d="M2.44 0 C34.56 -1.55, 72.4 -5.34, 135.31 0 C139.41 2.81, 137.96 4.13, 137.75 2.44 C138.14 3.9, 138.1 5.16, 137.75 7.32 C139.44 11.56, 133.79 7.58, 135.31 9.76 C97.46 8.96, 62.63 15.48, 2.44 9.76 C0.64 12.35, 0.48 8.34, 0 7.32 C-0.65 5.95, -0.23 5.58, 0 2.44 C1.84 -2.69, 1.17 -1.26, 2.44 0" stroke="none" stroke-width="0" fill="#773adc"></path><path d="M2.44 0 C44.94 -0.96, 86.53 -0.77, 135.31 0 M2.44 0 C34.82 -0.6, 66.89 -0.98, 135.31 0 M135.31 0 C138.22 1.9, 139.18 -0.28, 137.75 2.44 M135.31 0 C135.45 -2.05, 136.9 0.81, 137.75 2.44 M137.75 2.44 C137.35 3.78, 137.73 5.22, 137.75 7.32 M137.75 2.44 C137.72 3.95, 137.66 5.53, 137.75 7.32 M137.75 7.32 C136.7 9.14, 138.58 9.97, 135.31 9.76 M137.75 7.32 C136.51 9.82, 134.91 8.33, 135.31 9.76 M135.31 9.76 C84.28 8.83, 36.63 10.87, 2.44 9.76 M135.31 9.76 C96.94 8.14, 59.33 9.58, 2.44 9.76 M2.44 9.76 C-0.47 10.25, -1.76 10.15, 0 7.32 M2.44 9.76 C1.65 7.98, 0.71 6.9, 0 7.32 M0 7.32 C-0.26 5.54, -0.01 4.96, 0 2.44 M0 7.32 C0.04 6.1, -0.24 5.22, 0 2.44 M0 2.44 C-0.07 -0.18, 1.2 1.87, 2.44 0 M0 2.44 C1.14 -0.19, 1.75 -2.05, 2.44 0" stroke="#773adc" stroke-width="4" fill="none"></path></g><g stroke-linecap="round" transform="translate(229.82388978176334 112.30724424005734) rotate(238.37502238228225 4.7124703336717175 86.46948335351078)"><path d="M2.36 0 C2.86 0.2, 5.6 -0.81, 7.07 0 C5.79 2.27, 10.39 -0.37, 9.42 2.36 C11.64 41, 13.76 83.68, 9.42 170.58 C11.3 172.96, 7.64 170.46, 7.07 172.94 C6.02 173.23, 4.35 172.55, 2.36 172.94 C-2.36 173.26, -2.09 173.31, 0 170.58 C-1.98 129.57, -2.81 92.52, 0 2.36 C-1.8 1.51, 1.92 -0.16, 2.36 0" stroke="none" stroke-width="0" fill="#773adc"></path><path d="M2.36 0 C3.81 0.25, 5.78 0.11, 7.07 0 M2.36 0 C3.95 0.22, 5.01 -0.22, 7.07 0 M7.07 0 C8.04 -0.43, 9.31 1.13, 9.42 2.36 M7.07 0 C7.73 1.65, 9.98 1.82, 9.42 2.36 M9.42 2.36 C10.68 68.48, 8.67 133.18, 9.42 170.58 M9.42 2.36 C10.19 48.76, 10.47 94.96, 9.42 170.58 M9.42 170.58 C9.66 173.83, 7.12 172.25, 7.07 172.94 M9.42 170.58 C10.13 174.06, 9.31 173.97, 7.07 172.94 M7.07 172.94 C5.68 173.31, 3.83 173.36, 2.36 172.94 M7.07 172.94 C5.49 172.8, 4.08 172.89, 2.36 172.94 M2.36 172.94 C-0.8 171.56, -0.13 173.52, 0 170.58 M2.36 172.94 C0.09 173.46, -2.13 171.86, 0 170.58 M0 170.58 C0.26 132.88, 0.04 93.78, 0 2.36 M0 170.58 C1.33 104.29, 2.12 39.67, 0 2.36 M0 2.36 C1.22 2.2, 1.03 -1.88, 2.36 0 M0 2.36 C0.86 0.59, 0.18 -0.24, 2.36 0" stroke="#773adc" stroke-width="4" fill="none"></path></g><g transform="translate(86.00000000000011 331.5) rotate(0 116 12.5)"><text x="0" y="0" font-family="Virgil, Segoe UI Emoji" font-size="20px" fill="#000000" text-anchor="start" style="white-space: pre;" direction="ltr" dominant-baseline="text-before-edge">Azure Analysis Services</text></g></svg>