<svg xmlns="http://www.w3.org/2000/svg" viewBox="-1857.41 -702.36 105.00 102.52" width="105" height="103"><polyline points="-1830.71,-696.36 -1841.41,-688.24 -1841.41,-655.39 -1831.08,-647.64" fill="#868e96" stroke="#868e96" stroke-width="4" opacity="1.0" stroke-linecap="round" stroke-linejoin="round"/><polyline points="-1785.85,-696.15 -1796.56,-688.03 -1796.56,-655.18 -1786.22,-647.43" fill="#868e96" stroke="#868e96" stroke-width="4" opacity="1.0" stroke-linecap="round" stroke-linejoin="round" transform="rotate(180.00 -1780.50 -671.79)"/><ellipse cx="-1813.38" cy="-689.19" rx="6.13" ry="5.31" stroke="#9b73cf" stroke-width="2" opacity="1.0" fill="#9b73cf"/><ellipse cx="-1823.16" cy="-672.25" rx="4.29" ry="3.88" stroke="#45a4ea" stroke-width="2" opacity="1.0" fill="#45a4ea"/><ellipse cx="-1817.83" cy="-660.98" rx="2.45" ry="2.25" stroke="#37c2b1" stroke-width="2" opacity="1.0" fill="#37c2b1"/><ellipse cx="-1828.52" cy="-661.38" rx="2.45" ry="2.25" stroke="#37c2b1" stroke-width="2" opacity="1.0" fill="#37c2b1"/><polyline points="-1819.78,-668.14 -1818.62,-664.26" fill="#949494" stroke="#949494" stroke-width="1" opacity="1.0" stroke-linecap="round" stroke-linejoin="round"/><polyline points="-1826.18,-667.95 -1827.15,-664.65" fill="#949494" stroke="#949494" stroke-width="1" opacity="1.0" stroke-linecap="round" stroke-linejoin="round"/><ellipse cx="-1801.83" cy="-671.67" rx="4.29" ry="3.88" stroke="#45a4ea" stroke-width="2" opacity="1.0" fill="#45a4ea"/><ellipse cx="-1796.50" cy="-660.40" rx="2.45" ry="2.25" stroke="#37c2b1" stroke-width="2" opacity="1.0" fill="#37c2b1"/><ellipse cx="-1807.18" cy="-660.80" rx="2.45" ry="2.25" stroke="#37c2b1" stroke-width="2" opacity="1.0" fill="#37c2b1"/><polyline points="-1798.45,-667.56 -1797.29,-663.68" fill="#949494" stroke="#949494" stroke-width="1" opacity="1.0" stroke-linecap="round" stroke-linejoin="round"/><polyline points="-1804.85,-667.37 -1805.82,-664.07" fill="#949494" stroke="#949494" stroke-width="1" opacity="1.0" stroke-linecap="round" stroke-linejoin="round"/><polyline points="-1818.43,-684.24 -1822.31,-677.26" fill="#949494" stroke="#949494" stroke-width="1" opacity="1.0" stroke-linecap="round" stroke-linejoin="round"/><polyline points="-1808.92,-684.04 -1804.66,-676.09" fill="#949494" stroke="#949494" stroke-width="1" opacity="1.0" stroke-linecap="round" stroke-linejoin="round"/><text x="-1851.41" y="-629.84" font-size="16" fill="#000000" opacity="1.0" font-family="sans-serif">Management
Groups</text></svg>