<svg version="1.1" xmlns="http://www.w3.org/2000/svg" viewBox="0 0 84 104.36698672003729" width="84" height="104.36698672003729">
  <!-- svg-source:excalidraw -->
  
  <defs>
    
    
  </defs>
  <g stroke-linecap="round" transform="translate(9.719183140307905 8.093469858443314) rotate(0 10.5 10.5)"><path d="M0 0 L21 0 L21 21 L0 21" stroke="none" stroke-width="0" fill="#74ba2c"></path><path d="M0 0 C4.97 0, 9.93 0, 21 0 M0 0 C4.97 0, 9.95 0, 21 0 M21 0 C21 4.82, 21 9.64, 21 21 M21 0 C21 5.56, 21 11.13, 21 21 M21 21 C14.01 21, 7.01 21, 0 21 M21 21 C15.69 21, 10.38 21, 0 21 M0 21 C0 13.76, 0 6.52, 0 0 M0 21 C0 13.4, 0 5.81, 0 0" stroke="#74ba2c" stroke-width="1" fill="none"></path></g><g stroke-linecap="round"><g transform="translate(49.43756131424857 6) rotate(0 -2.1475095785440317 11.871794871794918)" fill-rule="evenodd"><path d="M0 0 C0.08 1.32, -0.83 6.06, 0.45 7.91 C1.73 9.77, 7.76 9.81, 7.69 11.13 C7.61 12.45, 1.43 13.73, 0 15.83 C-1.43 17.93, -0.11 24.07, -0.9 23.74 C-1.7 23.41, -2.9 16.12, -4.75 13.85 C-6.59 11.58, -11.98 11.29, -11.98 10.14 C-11.98 8.99, -6.74 8.62, -4.75 6.93 C-2.75 5.24, -0.79 1.15, 0 0" stroke="none" stroke-width="0" fill="#5e9624" fill-rule="evenodd"></path><path d="M0 0 C0.08 1.32, -0.83 6.06, 0.45 7.91 C1.73 9.77, 7.76 9.81, 7.69 11.13 C7.61 12.45, 1.43 13.73, 0 15.83 C-1.43 17.93, -0.11 24.07, -0.9 23.74 C-1.7 23.41, -2.9 16.12, -4.75 13.85 C-6.59 11.58, -11.98 11.29, -11.98 10.14 C-11.98 8.99, -6.74 8.62, -4.75 6.93 C-2.75 5.24, -0.79 1.15, 0 0 M0 0 C0.08 1.32, -0.83 6.06, 0.45 7.91 C1.73 9.77, 7.76 9.81, 7.69 11.13 C7.61 12.45, 1.43 13.73, 0 15.83 C-1.43 17.93, -0.11 24.07, -0.9 23.74 C-1.7 23.41, -2.9 16.12, -4.75 13.85 C-6.59 11.58, -11.98 11.29, -11.98 10.14 C-11.98 8.99, -6.74 8.62, -4.75 6.93 C-2.75 5.24, -0.79 1.15, 0 0" stroke="#5e9624" stroke-width="1" fill="none"></path></g></g><mask></mask><g stroke-linecap="round" transform="translate(9.827639751552852 34.0068199988865) rotate(0 10.5 10.5)"><path d="M0 0 L21 0 L21 21 L0 21" stroke="none" stroke-width="0" fill="#74ba2c"></path><path d="M0 0 C4.85 0, 9.71 0, 21 0 M0 0 C4.77 0, 9.54 0, 21 0 M21 0 C21 7.4, 21 14.8, 21 21 M21 0 C21 6.14, 21 12.28, 21 21 M21 21 C16.21 21, 11.41 21, 0 21 M21 21 C15.95 21, 10.9 21, 0 21 M0 21 C0 15.23, 0 9.46, 0 0 M0 21 C0 15.64, 0 10.28, 0 0" stroke="#74ba2c" stroke-width="1" fill="none"></path></g><g stroke-linecap="round" transform="translate(36.684782608695514 34.22110571317228) rotate(0 10.5 10.5)"><path d="M0 0 L21 0 L21 21 L0 21" stroke="none" stroke-width="0" fill="#74ba2c"></path><path d="M0 0 C4.76 0, 9.52 0, 21 0 M0 0 C7.55 0, 15.11 0, 21 0 M21 0 C21 5.03, 21 10.07, 21 21 M21 0 C21 6.25, 21 12.5, 21 21 M21 21 C16.04 21, 11.07 21, 0 21 M21 21 C14.42 21, 7.83 21, 0 21 M0 21 C0 13.43, 0 5.86, 0 0 M0 21 C0 14.71, 0 8.42, 0 0" stroke="#74ba2c" stroke-width="1" fill="none"></path></g><g transform="translate(6 58.36698672003729) rotate(0 36 20)"><text x="0" y="0" font-family="Virgil, Segoe UI Emoji" font-size="16px" fill="#000000" text-anchor="start" style="white-space: pre;" direction="ltr" dominant-baseline="text-before-edge">Preview </text><text x="0" y="20" font-family="Virgil, Segoe UI Emoji" font-size="16px" fill="#000000" text-anchor="start" style="white-space: pre;" direction="ltr" dominant-baseline="text-before-edge">Features</text></g></svg>