<svg version="1.1" xmlns="http://www.w3.org/2000/svg" viewBox="0 0 120 106.02602340813479" width="120" height="106.02602340813479">
  <!-- svg-source:excalidraw -->
  
  <defs>
    
    
  </defs>
  <g transform="translate(49.52323069174827 54.30985915492957) rotate(0 -2.062771386137456 -26.430407703949772)" stroke="none"><path d="M-7.64 -4.8 C-9.84 -4.8, -17.13 -4.53, -20.79 -4.8 C-24.46 -5.08, -27.7 -5.84, -29.64 -6.45 C-31.57 -7.07, -31.57 -7.51, -32.4 -8.48 C-33.23 -9.46, -34.09 -10.28, -34.61 -12.29 C-35.12 -14.3, -35.7 -18.46, -35.49 -20.53 C-35.29 -22.6, -34.44 -23.39, -33.39 -24.72 C-32.34 -26.05, -30.76 -27.59, -29.19 -28.52 C-27.63 -29.45, -25.44 -30.13, -24 -30.3 C-22.56 -30.47, -21.42 -28.21, -20.57 -29.54 C-19.73 -30.87, -20.13 -35.67, -18.92 -38.29 C-17.7 -40.91, -15.05 -43.7, -13.28 -45.27 C-11.51 -46.83, -10.74 -47.17, -8.31 -47.68 C-5.88 -48.18, -1.47 -49.22, 1.31 -48.31 C4.09 -47.4, 6.32 -45.33, 8.38 -42.22 C10.44 -39.11, 12.25 -31.29, 13.69 -29.66 C15.12 -28.04, 15.45 -31.88, 17 -32.46 C18.55 -33.03, 21.27 -33.24, 22.97 -33.09 C24.66 -32.94, 26.1 -32.24, 27.17 -31.57 C28.24 -30.89, 28.68 -30.45, 29.38 -29.03 C30.08 -27.61, 31.2 -25.94, 31.37 -23.07 C31.53 -20.19, 30.83 -14.36, 30.37 -11.78 C29.91 -9.2, 29.97 -8.57, 28.6 -7.6 C27.24 -6.62, 28.24 -6.41, 22.19 -5.95 C16.15 -5.48, -2.67 -4.99, -7.64 -4.8" stroke="none" stroke-width="0" fill="#378fe4" fill-rule="evenodd"></path><path fill="#378fe4" d="M -7.64,-2.16 Q -7.64,-2.16 -8.75,-2.14 -9.86,-2.11 -11.38,-2.04 -12.90,-1.97 -13.97,-1.91 -15.04,-1.85 -16.17,-1.78 -17.29,-1.72 -18.65,-1.66 -20.01,-1.60 -21.17,-1.67 -22.33,-1.74 -23.61,-1.89 -24.88,-2.05 -26.64,-2.37 -28.39,-2.70 -29.71,-3.11 -31.04,-3.53 -32.46,-4.40 -33.89,-5.27 -34.91,-6.44 -35.92,-7.60 -36.57,-8.69 -37.23,-9.78 -37.78,-11.20 -38.34,-12.62 -38.61,-14.10 -38.87,-15.58 -38.94,-16.76 -39.00,-17.93 -38.89,-19.71 -38.77,-21.48 -38.47,-22.55 -38.17,-23.62 -37.48,-24.84 -36.79,-26.06 -36.13,-26.94 -35.48,-27.82 -34.33,-28.94 -33.19,-30.06 -31.89,-30.88 -30.59,-31.70 -29.46,-32.19 -28.32,-32.68 -26.99,-33.13 -25.67,-33.57 -24.50,-33.73 -23.33,-33.89 -22.27,-33.83 -21.20,-33.78 -20.20,-33.31 -19.19,-32.84 -20.53,-32.67 -21.87,-32.51 -23.07,-31.34 -24.28,-30.18 -24.24,-31.38 -24.21,-32.58 -24.01,-33.76 -23.81,-34.93 -23.41,-36.42 -23.01,-37.90 -22.59,-38.93 -22.17,-39.96 -21.56,-41.06 -20.94,-42.16 -20.04,-43.36 -19.14,-44.56 -18.23,-45.51 -17.33,-46.46 -16.31,-47.35 -15.30,-48.24 -14.20,-48.90 -13.09,-49.55 -11.84,-50.10 -10.60,-50.64 -9.52,-50.93 -8.44,-51.21 -7.37,-51.39 -6.31,-51.56 -5.20,-51.63 -4.08,-51.70 -2.43,-51.74 -0.77,-51.77 0.71,-51.64 2.20,-51.51 3.65,-50.87 5.09,-50.23 6.43,-49.22 7.78,-48.21 8.76,-47.25 9.75,-46.29 10.58,-45.15 11.41,-44.01 12.14,-42.56 12.87,-41.12 13.49,-39.81 14.10,-38.51 14.55,-37.41 15.00,-36.31 15.44,-35.22 15.87,-34.13 16.38,-32.91 16.89,-31.69 15.26,-32.23 13.62,-32.77 12.37,-32.50 11.13,-32.24 11.97,-33.08 12.81,-33.92 13.70,-34.60 14.58,-35.28 16.00,-35.79 17.41,-36.29 18.69,-36.53 19.97,-36.76 21.19,-36.79 22.42,-36.82 23.54,-36.66 24.66,-36.49 25.89,-36.09 27.11,-35.69 28.41,-34.92 29.72,-34.15 30.60,-33.22 31.49,-32.28 32.42,-30.93 33.35,-29.58 33.83,-28.32 34.31,-27.06 34.64,-25.70 34.96,-24.33 35.03,-23.18 35.10,-22.02 35.07,-20.70 35.04,-19.37 34.88,-18.16 34.72,-16.94 34.61,-15.78 34.49,-14.62 34.38,-13.42 34.26,-12.21 34.04,-11.16 33.82,-10.10 33.52,-9.08 33.21,-8.06 32.64,-7.01 32.07,-5.97 31.33,-5.18 30.58,-4.40 29.16,-3.87 27.73,-3.34 26.50,-3.05 25.26,-2.77 23.88,-2.48 22.50,-2.20 21.44,-2.05 20.38,-1.90 19.14,-1.74 17.91,-1.58 16.48,-1.48 15.06,-1.38 13.79,-1.33 12.52,-1.27 11.14,-1.26 9.76,-1.26 8.46,-1.26 7.16,-1.25 6.04,-1.20 4.93,-1.15 3.57,-1.08 2.21,-1.01 0.81,-0.94 -0.59,-0.88 -1.73,-0.87 -2.86,-0.86 -5.51,-0.92 -8.16,-0.98 -8.72,-1.23 -9.29,-1.48 -9.75,-1.89 -10.21,-2.31 -10.51,-2.85 -10.81,-3.39 -10.93,-4.00 -11.04,-4.61 -10.95,-5.22 -10.87,-5.83 -10.59,-6.39 -10.31,-6.94 -9.87,-7.38 -9.43,-7.81 -8.88,-8.08 -8.32,-8.36 -7.71,-8.44 -7.09,-8.52 -6.48,-8.40 -5.88,-8.28 -5.34,-7.97 -4.80,-7.66 -4.39,-7.20 -3.98,-6.74 -3.74,-6.17 -3.50,-5.60 -3.45,-4.98 -3.40,-4.36 -3.55,-3.76 -3.71,-3.16 -4.04,-2.64 -4.38,-2.12 -4.86,-1.74 -5.35,-1.35 -5.93,-1.14 -6.51,-0.93 -7.13,-0.92 -7.75,-0.90 -8.34,-1.09 -8.93,-1.27 -9.43,-1.64 -9.93,-2.00 -10.29,-2.50 -10.65,-3.01 -10.83,-3.60 -11.01,-4.19 -10.99,-4.81 -10.97,-5.43 -10.75,-6.01 -10.54,-6.59 -10.15,-7.07 -9.75,-7.55 -9.23,-7.88 -8.71,-8.21 -8.11,-8.36 -7.51,-8.51 -6.89,-8.45 -6.27,-8.40 -6.27,-8.40 -6.27,-8.40 -5.74,-8.30 -5.21,-8.21 -3.58,-8.34 -1.95,-8.48 -0.69,-8.49 0.56,-8.50 1.77,-8.57 2.99,-8.63 4.50,-8.74 6.01,-8.85 7.20,-8.85 8.39,-8.85 9.46,-8.85 10.52,-8.86 11.65,-8.89 12.78,-8.91 14.09,-8.99 15.41,-9.06 16.57,-9.18 17.73,-9.29 19.01,-9.47 20.30,-9.66 21.72,-9.92 23.15,-10.19 24.25,-10.39 25.35,-10.59 26.45,-10.96 27.55,-11.33 26.44,-10.34 25.33,-9.36 25.89,-10.58 26.45,-11.79 26.69,-12.89 26.94,-13.98 27.04,-15.40 27.14,-16.81 27.31,-18.15 27.48,-19.49 27.53,-20.66 27.58,-21.83 27.39,-23.22 27.19,-24.61 26.60,-25.88 26.02,-27.14 25.27,-27.92 24.52,-28.70 23.14,-29.02 21.76,-29.34 20.41,-29.25 19.05,-29.17 18.03,-28.53 17.00,-27.89 15.43,-27.27 13.86,-26.64 11.80,-28.46 9.74,-30.27 9.33,-31.36 8.92,-32.46 8.53,-33.52 8.14,-34.59 7.69,-35.59 7.23,-36.60 6.52,-38.03 5.80,-39.46 5.12,-40.51 4.45,-41.55 3.45,-42.48 2.45,-43.40 1.45,-44.10 0.46,-44.81 -0.83,-44.79 -2.13,-44.77 -3.60,-44.66 -5.06,-44.56 -6.39,-44.26 -7.73,-43.96 -8.73,-43.51 -9.74,-43.06 -10.85,-42.27 -11.97,-41.48 -12.99,-40.34 -14.01,-39.20 -14.69,-38.10 -15.38,-36.99 -15.80,-35.95 -16.23,-34.91 -16.45,-33.79 -16.68,-32.66 -16.77,-31.38 -16.87,-30.09 -17.21,-28.89 -17.56,-27.69 -18.50,-27.14 -19.45,-26.58 -20.84,-26.61 -22.24,-26.64 -23.32,-26.52 -24.40,-26.40 -25.42,-26.07 -26.44,-25.75 -27.51,-25.14 -28.59,-24.53 -29.45,-23.62 -30.31,-22.71 -30.95,-21.77 -31.60,-20.83 -31.76,-19.49 -31.93,-18.14 -31.85,-16.80 -31.77,-15.45 -31.43,-14.32 -31.09,-13.19 -30.44,-12.04 -29.79,-10.88 -28.88,-10.22 -27.96,-9.57 -26.40,-9.18 -24.84,-8.80 -23.65,-8.58 -22.46,-8.36 -21.23,-8.18 -20.01,-8.00 -18.65,-7.94 -17.29,-7.88 -16.17,-7.81 -15.04,-7.75 -13.97,-7.69 -12.90,-7.63 -11.38,-7.56 -9.86,-7.49 -8.75,-7.46 -7.64,-7.44 -7.32,-7.40 -7.01,-7.37 -6.71,-7.25 -6.41,-7.14 -6.15,-6.96 -5.89,-6.78 -5.68,-6.54 -5.46,-6.30 -5.32,-6.02 -5.17,-5.74 -5.09,-5.43 -5.02,-5.12 -5.02,-4.80 -5.02,-4.48 -5.09,-4.17 -5.17,-3.86 -5.32,-3.58 -5.46,-3.30 -5.68,-3.06 -5.89,-2.82 -6.15,-2.64 -6.41,-2.46 -6.71,-2.35 -7.01,-2.23 -7.32,-2.20 -7.64,-2.16 -7.64,-2.16 L -7.64,-2.16 Z"></path></g><g stroke-linecap="round" transform="translate(10.622677102167245 26.198837042753667) rotate(0 14.117647058823536 14.117647058823536)"><path d="M28.24 14.12 C28.24 14.93, 28.16 15.76, 28.02 16.57 C27.88 17.37, 27.66 18.18, 27.38 18.95 C27.1 19.71, 26.75 20.47, 26.34 21.18 C25.94 21.88, 25.46 22.57, 24.93 23.19 C24.41 23.82, 23.82 24.41, 23.19 24.93 C22.57 25.46, 21.88 25.94, 21.18 26.34 C20.47 26.75, 19.71 27.1, 18.95 27.38 C18.18 27.66, 17.37 27.88, 16.57 28.02 C15.76 28.16, 14.93 28.24, 14.12 28.24 C13.3 28.24, 12.47 28.16, 11.67 28.02 C10.86 27.88, 10.06 27.66, 9.29 27.38 C8.52 27.1, 7.77 26.75, 7.06 26.34 C6.35 25.94, 5.67 25.46, 5.04 24.93 C4.42 24.41, 3.83 23.82, 3.3 23.19 C2.78 22.57, 2.3 21.88, 1.89 21.18 C1.48 20.47, 1.13 19.71, 0.85 18.95 C0.57 18.18, 0.36 17.37, 0.21 16.57 C0.07 15.76, 0 14.93, 0 14.12 C0 13.3, 0.07 12.47, 0.21 11.67 C0.36 10.86, 0.57 10.06, 0.85 9.29 C1.13 8.52, 1.48 7.77, 1.89 7.06 C2.3 6.35, 2.78 5.67, 3.3 5.04 C3.83 4.42, 4.42 3.83, 5.04 3.3 C5.67 2.78, 6.35 2.3, 7.06 1.89 C7.77 1.48, 8.52 1.13, 9.29 0.85 C10.06 0.57, 10.86 0.36, 11.67 0.21 C12.47 0.07, 13.3 0, 14.12 0 C14.93 0, 15.76 0.07, 16.57 0.21 C17.37 0.36, 18.18 0.57, 18.95 0.85 C19.71 1.13, 20.47 1.48, 21.18 1.89 C21.88 2.3, 22.57 2.78, 23.19 3.3 C23.82 3.83, 24.41 4.42, 24.93 5.04 C25.46 5.67, 25.94 6.35, 26.34 7.06 C26.75 7.77, 27.1 8.52, 27.38 9.29 C27.66 10.06, 27.88 10.86, 28.02 11.67 C28.16 12.47, 28.2 13.71, 28.24 14.12 C28.27 14.53, 28.27 13.71, 28.24 14.12" stroke="none" stroke-width="0" fill="#50e6ff"></path><path d="M28.24 14.12 C28.24 14.93, 28.16 15.76, 28.02 16.57 C27.88 17.37, 27.66 18.18, 27.38 18.95 C27.1 19.71, 26.75 20.47, 26.34 21.18 C25.94 21.88, 25.46 22.57, 24.93 23.19 C24.41 23.82, 23.82 24.41, 23.19 24.93 C22.57 25.46, 21.88 25.94, 21.18 26.34 C20.47 26.75, 19.71 27.1, 18.95 27.38 C18.18 27.66, 17.37 27.88, 16.57 28.02 C15.76 28.16, 14.93 28.24, 14.12 28.24 C13.3 28.24, 12.47 28.16, 11.67 28.02 C10.86 27.88, 10.06 27.66, 9.29 27.38 C8.52 27.1, 7.77 26.75, 7.06 26.34 C6.35 25.94, 5.67 25.46, 5.04 24.93 C4.42 24.41, 3.83 23.82, 3.3 23.19 C2.78 22.57, 2.3 21.88, 1.89 21.18 C1.48 20.47, 1.13 19.71, 0.85 18.95 C0.57 18.18, 0.36 17.37, 0.21 16.57 C0.07 15.76, 0 14.93, 0 14.12 C0 13.3, 0.07 12.47, 0.21 11.67 C0.36 10.86, 0.57 10.06, 0.85 9.29 C1.13 8.52, 1.48 7.77, 1.89 7.06 C2.3 6.35, 2.78 5.67, 3.3 5.04 C3.83 4.42, 4.42 3.83, 5.04 3.3 C5.67 2.78, 6.35 2.3, 7.06 1.89 C7.77 1.48, 8.52 1.13, 9.29 0.85 C10.06 0.57, 10.86 0.36, 11.67 0.21 C12.47 0.07, 13.3 0, 14.12 0 C14.93 0, 15.76 0.07, 16.57 0.21 C17.37 0.36, 18.18 0.57, 18.95 0.85 C19.71 1.13, 20.47 1.48, 21.18 1.89 C21.88 2.3, 22.57 2.78, 23.19 3.3 C23.82 3.83, 24.41 4.42, 24.93 5.04 C25.46 5.67, 25.94 6.35, 26.34 7.06 C26.75 7.77, 27.1 8.52, 27.38 9.29 C27.66 10.06, 27.88 10.86, 28.02 11.67 C28.16 12.47, 28.2 13.71, 28.24 14.12 C28.27 14.53, 28.27 13.71, 28.24 14.12" stroke="#50e6ff" stroke-width="1" fill="none"></path></g><g stroke-linecap="round"><g transform="translate(14.239176070984286 41.07107290402266) rotate(0 11.001199580147045 -3.165529067168414)" fill-rule="evenodd"><path d="M0 0 L22.12 0.14 L15.62 -6.47 L15.73 -2.93 L-0.12 -2.93" stroke="none" stroke-width="0" fill="#fff" fill-rule="evenodd"></path><path d="M0 0 C4.43 0.03, 8.86 0.06, 22.12 0.14 M0 0 C5.41 0.03, 10.82 0.07, 22.12 0.14 M22.12 0.14 C19.71 -2.31, 17.3 -4.76, 15.62 -6.47 M22.12 0.14 C20.67 -1.34, 19.22 -2.81, 15.62 -6.47 M15.62 -6.47 C15.64 -5.75, 15.67 -5.03, 15.73 -2.93 M15.62 -6.47 C15.66 -5.09, 15.71 -3.72, 15.73 -2.93 M15.73 -2.93 C12.51 -2.93, 9.29 -2.93, -0.12 -2.93 M15.73 -2.93 C11.61 -2.93, 7.49 -2.93, -0.12 -2.93 M-0.12 -2.93 C-0.09 -2.2, -0.06 -1.48, 0 0 M-0.12 -2.93 C-0.07 -1.84, -0.03 -0.76, 0 0" stroke="#ffff" stroke-width="1" fill="none"></path></g></g><mask></mask><g stroke-linecap="round"><g transform="translate(13.462822794631165 50.059676892626726) rotate(180 11.001199580147045 -3.165529067168414)" fill-rule="evenodd"><path d="M0 0 L22.12 0.14 L15.62 -6.47 L15.73 -2.93 L-0.12 -2.93" stroke="none" stroke-width="0" fill="#fff" fill-rule="evenodd"></path><path d="M0 0 C8.65 0.05, 17.29 0.11, 22.12 0.14 M0 0 C7.1 0.04, 14.21 0.09, 22.12 0.14 M22.12 0.14 C19.72 -2.3, 17.32 -4.74, 15.62 -6.47 M22.12 0.14 C19.68 -2.34, 17.25 -4.81, 15.62 -6.47 M15.62 -6.47 C15.64 -5.66, 15.67 -4.84, 15.73 -2.93 M15.62 -6.47 C15.66 -5.28, 15.7 -4.08, 15.73 -2.93 M15.73 -2.93 C9.93 -2.93, 4.12 -2.93, -0.12 -2.93 M15.73 -2.93 C9.9 -2.93, 4.07 -2.93, -0.12 -2.93 M-0.12 -2.93 C-0.07 -1.84, -0.03 -0.76, 0 0 M-0.12 -2.93 C-0.07 -1.76, -0.02 -0.59, 0 0" stroke="#ffff" stroke-width="1" fill="none"></path></g></g><mask></mask><g transform="translate(6 60.02602340813479) rotate(0 54 20)"><text x="0" y="0" font-family="Virgil, Segoe UI Emoji" font-size="16px" fill="#000000" text-anchor="start" style="white-space: pre;" direction="ltr" dominant-baseline="text-before-edge">Azure Data</text><text x="0" y="20" font-family="Virgil, Segoe UI Emoji" font-size="16px" fill="#000000" text-anchor="start" style="white-space: pre;" direction="ltr" dominant-baseline="text-before-edge">Box Gateway</text></g></svg>