<svg xmlns="http://www.w3.org/2000/svg" viewBox="-1507.05 -565.54 83.00 111.85" width="83" height="112"><text x="-1501.05" y="-483.69" font-size="16" fill="#000000" opacity="1.0" font-family="sans-serif">Batch
Accounts</text><rect x="-1495.21" y="-551.70" width="42.88" height="27.38" rx="0" stroke="#3d91e5" stroke-width="1" opacity="1.0" fill="#3d91e5"/><rect x="-1495.17" y="-559.54" width="42.91" height="7.14" rx="0" stroke="#83b9f9" stroke-width="1" opacity="1.0" fill="#83b9f9"/><rect x="-1489.27" y="-547.79" width="32.31" height="4.69" rx="0" stroke="#ffff" stroke-width="1" opacity="1.0" fill="#ffff"/><rect x="-1489.14" y="-540.52" width="32.31" height="4.69" rx="0" stroke="#ffff" stroke-width="1" opacity="1.0" fill="#ffff"/><rect x="-1488.99" y="-533.10" width="32.31" height="4.69" rx="0" stroke="#ffff" stroke-width="1" opacity="1.0" fill="#ffff"/><rect x="-1461.46" y="-518.16" width="23.54" height="15.03" rx="0" stroke="#3d91e5" stroke-width="1" opacity="1.0" fill="#3d91e5"/><rect x="-1461.43" y="-522.46" width="23.55" height="3.92" rx="0" stroke="#83b9f9" stroke-width="1" opacity="1.0" fill="#83b9f9"/><rect x="-1458.19" y="-516.01" width="17.73" height="2.57" rx="0" stroke="#ffff" stroke-width="1" opacity="1.0" fill="#ffff"/><rect x="-1458.12" y="-512.02" width="17.73" height="2.57" rx="0" stroke="#ffff" stroke-width="1" opacity="1.0" fill="#ffff"/><rect x="-1458.04" y="-507.95" width="17.73" height="2.57" rx="0" stroke="#ffff" stroke-width="1" opacity="1.0" fill="#ffff"/><polyline points="-1450.81,-546.29 -1431.81,-541.29 -1439.81,-529.29" fill="none" stroke="#949494" stroke-width="2" opacity="1.0" stroke-linecap="round" stroke-linejoin="round"/></svg>