<svg version="1.1" xmlns="http://www.w3.org/2000/svg" viewBox="0 0 77.94444444444343 135.88888888888897" width="77.94444444444343" height="135.88888888888897">
  <!-- svg-source:excalidraw -->
  
  <defs>
    
    
  </defs>
  <g stroke-linecap="round"><g transform="translate(23.916281648493694 6.077896876732552) rotate(0 12.502448715579447 30.02924598041028)" fill-rule="evenodd"><path d="M0 0 L28.43 -0.08 L42.92 21.34 L42.61 42.53 L27.65 59.9 L-0.62 60.14 L-17.06 43.78 L-17.92 19.01 L0 0" stroke="none" stroke-width="0" fill="#704cb2" fill-rule="evenodd"></path><path d="M0 0 C6.15 -0.02, 12.3 -0.03, 28.43 -0.08 M0 0 C10.25 -0.03, 20.51 -0.06, 28.43 -0.08 M28.43 -0.08 C33.75 7.79, 39.07 15.65, 42.92 21.34 M28.43 -0.08 C31.44 4.37, 34.45 8.82, 42.92 21.34 M42.92 21.34 C42.8 29.63, 42.68 37.91, 42.61 42.53 M42.92 21.34 C42.82 28.39, 42.71 35.43, 42.61 42.53 M42.61 42.53 C38.44 47.38, 34.26 52.23, 27.65 59.9 M42.61 42.53 C39.41 46.24, 36.22 49.96, 27.65 59.9 M27.65 59.9 C19.63 59.97, 11.6 60.04, -0.62 60.14 M27.65 59.9 C20.82 59.96, 13.99 60.02, -0.62 60.14 M-0.62 60.14 C-4.32 56.46, -8.01 52.78, -17.06 43.78 M-0.62 60.14 C-5.72 55.07, -10.81 49.99, -17.06 43.78 M-17.06 43.78 C-17.4 33.98, -17.74 24.18, -17.92 19.01 M-17.06 43.78 C-17.24 38.54, -17.42 33.3, -17.92 19.01 M-17.92 19.01 C-13.09 13.89, -8.27 8.77, 0 0 M-17.92 19.01 C-13.78 14.62, -9.65 10.24, 0 0 M0 0 C0 0, 0 0, 0 0 M0 0 C0 0, 0 0, 0 0" stroke="#000000" stroke-width="2" fill="none"></path></g></g><mask></mask><g stroke-linecap="round"><g transform="translate(17.372944002956274 17.346978377379457) rotate(0 11.489789318055863 10.905562742561472)"><path d="M0 0 C8.9 8.45, 17.81 16.9, 22.98 21.81 M0 0 C7.37 6.99, 14.73 13.98, 22.98 21.81" stroke="#f2f2f2" stroke-width="4" fill="none"></path></g><g transform="translate(17.372944002956274 17.346978377379457) rotate(0 11.489789318055863 10.905562742561472)"><path d="M8.45 15.49 C14.08 17.94, 19.71 20.39, 22.98 21.81 M8.45 15.49 C13.11 17.52, 17.77 19.54, 22.98 21.81" stroke="#f2f2f2" stroke-width="4" fill="none"></path></g><g transform="translate(17.372944002956274 17.346978377379457) rotate(0 11.489789318055863 10.905562742561472)"><path d="M15.91 7.63 C18.65 13.13, 21.39 18.62, 22.98 21.81 M15.91 7.63 C18.18 12.18, 20.44 16.72, 22.98 21.81" stroke="#f2f2f2" stroke-width="4" fill="none"></path></g></g><mask></mask><g stroke-linecap="round"><g transform="translate(52.90793341749503 68.08510441692852) rotate(0 -10.562033609505647 -10.958140824246897)"><path d="M0 0 C-7.04 -7.3, -14.07 -14.6, -21.12 -21.92 M0 0 C-7.55 -7.83, -15.1 -15.66, -21.12 -21.92" stroke="#f2f2f2" stroke-width="2" fill="none"></path></g><g transform="translate(52.90793341749503 68.08510441692852) rotate(0 -10.562033609505647 -10.958140824246897)"><path d="M-7.45 -15.23 C-12.01 -17.46, -16.56 -19.69, -21.12 -21.92 M-7.45 -15.23 C-12.34 -17.62, -17.22 -20.01, -21.12 -21.92" stroke="#f2f2f2" stroke-width="2" fill="none"></path></g><g transform="translate(52.90793341749503 68.08510441692852) rotate(0 -10.562033609505647 -10.958140824246897)"><path d="M-14.95 -8.01 C-17 -12.64, -19.06 -17.27, -21.12 -21.92 M-14.95 -8.01 C-17.15 -12.98, -19.36 -17.95, -21.12 -21.92" stroke="#f2f2f2" stroke-width="2" fill="none"></path></g></g><mask></mask><g stroke-linecap="round"><g transform="translate(65.66900757715734 46.94779153576053) rotate(0 -10.126593975235679 -8.17917205692109)"><path d="M0 0 C-7.73 -6.24, -15.46 -12.49, -20.25 -16.36 M0 0 C-5.45 -4.4, -10.9 -8.8, -20.25 -16.36" stroke="#f2f2f2" stroke-width="2" fill="none"></path></g><g transform="translate(65.66900757715734 46.94779153576053) rotate(0 -10.126593975235679 -8.17917205692109)"><path d="M-7.94 -12.14 C-12.64 -13.75, -17.34 -15.36, -20.25 -16.36 M-7.94 -12.14 C-11.25 -13.27, -14.56 -14.41, -20.25 -16.36" stroke="#f2f2f2" stroke-width="2" fill="none"></path></g><g transform="translate(65.66900757715734 46.94779153576053) rotate(0 -10.126593975235679 -8.17917205692109)"><path d="M-13.53 -5.21 C-16.1 -9.46, -18.66 -13.72, -20.25 -16.36 M-13.53 -5.21 C-15.34 -8.21, -17.15 -11.21, -20.25 -16.36" stroke="#f2f2f2" stroke-width="2" fill="none"></path></g></g><mask></mask><g transform="translate(6.944444444443434 69.88888888888897) rotate(0 32.5 30)"><text x="0" y="0" font-family="Virgil, Segoe UI Emoji" font-size="16px" fill="#000000" text-anchor="start" style="white-space: pre;" direction="ltr" dominant-baseline="text-before-edge">Traffic</text><text x="0" y="20" font-family="Virgil, Segoe UI Emoji" font-size="16px" fill="#000000" text-anchor="start" style="white-space: pre;" direction="ltr" dominant-baseline="text-before-edge">Manager</text><text x="0" y="40" font-family="Virgil, Segoe UI Emoji" font-size="16px" fill="#000000" text-anchor="start" style="white-space: pre;" direction="ltr" dominant-baseline="text-before-edge">Profiles</text></g></svg>