<svg version="1.1" xmlns="http://www.w3.org/2000/svg" viewBox="0 0 108 110.19402879728955" width="108" height="110.19402879728955">
  <!-- svg-source:excalidraw -->
  
  <defs>
    
    
  </defs>
  <g stroke-linecap="round" transform="translate(12.264751552795133 6) rotate(0 13 12)"><path d="M0 0 C8.34 0, 16.69 0, 26 0 M0 0 C8.21 0, 16.42 0, 26 0 M26 0 C26 7.15, 26 14.3, 26 24 M26 0 C26 6.18, 26 12.35, 26 24 M26 24 C18.44 24, 10.89 24, 0 24 M26 24 C16.15 24, 6.3 24, 0 24 M0 24 C0 14.73, 0 5.45, 0 0 M0 24 C0 15.05, 0 6.1, 0 0" stroke="#0072c6" stroke-width="4" fill="none"></path></g><g stroke-linecap="round" transform="translate(44.82996894409939 6.2608695652173765) rotate(0 13 12)"><path d="M0 0 C8.76 0, 17.53 0, 26 0 M0 0 C9.52 0, 19.03 0, 26 0 M26 0 C26 6.67, 26 13.34, 26 24 M26 0 C26 5.84, 26 11.68, 26 24 M26 24 C17.84 24, 9.68 24, 0 24 M26 24 C20.33 24, 14.67 24, 0 24 M0 24 C0 15.16, 0 6.31, 0 0 M0 24 C0 18.92, 0 13.84, 0 0" stroke="#0072c6" stroke-width="4" fill="none"></path></g><g stroke-linecap="round" transform="translate(11.540372670807528 36.55117165443244) rotate(0 13 12)"><path d="M0 0 C9.79 0, 19.58 0, 26 0 M0 0 C8 0, 15.99 0, 26 0 M26 0 C26 6.37, 26 12.74, 26 24 M26 0 C26 7.85, 26 15.71, 26 24 M26 24 C18.94 24, 11.87 24, 0 24 M26 24 C16.49 24, 6.98 24, 0 24 M0 24 C0 16.04, 0 8.09, 0 0 M0 24 C0 16.03, 0 8.05, 0 0" stroke="#0072c6" stroke-width="4" fill="none"></path></g><g stroke-linecap="round" transform="translate(44.105590062112014 36.812041219649814) rotate(0 13 12)"><path d="M0 0 C6.59 0, 13.17 0, 26 0 M0 0 C9.08 0, 18.17 0, 26 0 M26 0 C26 6.96, 26 13.93, 26 24 M26 0 C26 5.81, 26 11.61, 26 24 M26 24 C20.3 24, 14.6 24, 0 24 M26 24 C19.08 24, 12.15 24, 0 24 M0 24 C0 18.68, 0 13.37, 0 0 M0 24 C0 16.29, 0 8.58, 0 0" stroke="#0072c6" stroke-width="4" fill="none"></path></g><g stroke-linecap="round" transform="translate(25.605590062111787 19.11638904573681) rotate(0 15.652173913043612 13.913043478260875)"><path d="M31.3 13.91 C31.3 14.72, 31.22 15.54, 31.07 16.33 C30.91 17.12, 30.67 17.91, 30.36 18.67 C30.05 19.43, 29.66 20.17, 29.21 20.87 C28.75 21.57, 28.22 22.24, 27.64 22.86 C27.06 23.47, 26.41 24.05, 25.71 24.57 C25.02 25.09, 24.26 25.56, 23.48 25.96 C22.69 26.36, 21.86 26.71, 21.01 26.99 C20.15 27.26, 19.26 27.47, 18.37 27.61 C17.48 27.75, 16.56 27.83, 15.65 27.83 C14.75 27.83, 13.83 27.75, 12.93 27.61 C12.04 27.47, 11.15 27.26, 10.3 26.99 C9.45 26.71, 8.61 26.36, 7.83 25.96 C7.04 25.56, 6.29 25.09, 5.59 24.57 C4.9 24.05, 4.24 23.47, 3.66 22.86 C3.08 22.24, 2.55 21.57, 2.1 20.87 C1.64 20.17, 1.25 19.43, 0.94 18.67 C0.63 17.91, 0.4 17.12, 0.24 16.33 C0.08 15.54, 0 14.72, 0 13.91 C0 13.11, 0.08 12.29, 0.24 11.5 C0.4 10.7, 0.63 9.91, 0.94 9.15 C1.25 8.4, 1.64 7.65, 2.1 6.96 C2.55 6.26, 3.08 5.59, 3.66 4.97 C4.24 4.35, 4.9 3.77, 5.59 3.26 C6.29 2.74, 7.04 2.27, 7.83 1.86 C8.61 1.46, 9.45 1.11, 10.3 0.84 C11.15 0.56, 12.04 0.35, 12.93 0.21 C13.83 0.07, 14.75 0, 15.65 0 C16.56 0, 17.48 0.07, 18.37 0.21 C19.26 0.35, 20.15 0.56, 21.01 0.84 C21.86 1.11, 22.69 1.46, 23.48 1.86 C24.26 2.27, 25.02 2.74, 25.71 3.26 C26.41 3.77, 27.06 4.35, 27.64 4.97 C28.22 5.59, 28.75 6.26, 29.21 6.96 C29.66 7.65, 30.05 8.4, 30.36 9.15 C30.67 9.91, 30.91 10.7, 31.07 11.5 C31.22 12.29, 31.26 13.51, 31.3 13.91 C31.34 14.32, 31.34 13.51, 31.3 13.91" stroke="none" stroke-width="0" fill="#5fb832"></path><path d="M31.3 13.91 C31.3 14.72, 31.22 15.54, 31.07 16.33 C30.91 17.12, 30.67 17.91, 30.36 18.67 C30.05 19.43, 29.66 20.17, 29.21 20.87 C28.75 21.57, 28.22 22.24, 27.64 22.86 C27.06 23.47, 26.41 24.05, 25.71 24.57 C25.02 25.09, 24.26 25.56, 23.48 25.96 C22.69 26.36, 21.86 26.71, 21.01 26.99 C20.15 27.26, 19.26 27.47, 18.37 27.61 C17.48 27.75, 16.56 27.83, 15.65 27.83 C14.75 27.83, 13.83 27.75, 12.93 27.61 C12.04 27.47, 11.15 27.26, 10.3 26.99 C9.45 26.71, 8.61 26.36, 7.83 25.96 C7.04 25.56, 6.29 25.09, 5.59 24.57 C4.9 24.05, 4.24 23.47, 3.66 22.86 C3.08 22.24, 2.55 21.57, 2.1 20.87 C1.64 20.17, 1.25 19.43, 0.94 18.67 C0.63 17.91, 0.4 17.12, 0.24 16.33 C0.08 15.54, 0 14.72, 0 13.91 C0 13.11, 0.08 12.29, 0.24 11.5 C0.4 10.7, 0.63 9.91, 0.94 9.15 C1.25 8.4, 1.64 7.65, 2.1 6.96 C2.55 6.26, 3.08 5.59, 3.66 4.97 C4.24 4.35, 4.9 3.77, 5.59 3.26 C6.29 2.74, 7.04 2.27, 7.83 1.86 C8.61 1.46, 9.45 1.11, 10.3 0.84 C11.15 0.56, 12.04 0.35, 12.93 0.21 C13.83 0.07, 14.75 0, 15.65 0 C16.56 0, 17.48 0.07, 18.37 0.21 C19.26 0.35, 20.15 0.56, 21.01 0.84 C21.86 1.11, 22.69 1.46, 23.48 1.86 C24.26 2.27, 25.02 2.74, 25.71 3.26 C26.41 3.77, 27.06 4.35, 27.64 4.97 C28.22 5.59, 28.75 6.26, 29.21 6.96 C29.66 7.65, 30.05 8.4, 30.36 9.15 C30.67 9.91, 30.91 10.7, 31.07 11.5 C31.22 12.29, 31.26 13.51, 31.3 13.91 C31.34 14.32, 31.34 13.51, 31.3 13.91" stroke="#5fb832" stroke-width="4" fill="none"></path></g><g transform="translate(34.37975270161064 73.86107387064328) rotate(346.8490513190552 9.370247298389472 -44.845616501925065)" stroke="none"><path d="M-3.94 -36.04 C-4.36 -37.34, -6.47 -41.91, -6.43 -43.87 C-6.38 -45.82, -4.73 -46.8, -3.67 -47.78 C-2.61 -48.76, -2.84 -49.5, -0.08 -49.74 C2.68 -49.98, 8.75 -48.04, 12.89 -49.22 C17.03 -50.39, 22.71 -56.35, 24.76 -56.79 C26.8 -57.22, 25.33 -53.81, 25.17 -51.83 C25.01 -49.85, 24.3 -46.76, 23.79 -44.91 C23.28 -43.06, 23.01 -42.04, 22.13 -40.74 C21.26 -39.43, 20.2 -38.21, 18.55 -37.08 C16.89 -35.95, 14.2 -34.65, 12.2 -33.95 C10.2 -33.25, 8.54 -32.99, 6.54 -32.91 C4.54 -32.82, 1.94 -32.91, 0.19 -33.43 C-1.55 -33.95, -3.26 -35.6, -3.94 -36.04" stroke="none" stroke-width="0" fill="#ffff" fill-rule="evenodd"></path><path fill="#5fb832" d="M -6.43,-35.05 Q -6.43,-35.05 -6.81,-35.94 -7.20,-36.82 -7.87,-38.35 -8.54,-39.88 -8.79,-40.97 -9.04,-42.05 -8.82,-44.14 -8.59,-46.24 -7.75,-47.41 -6.91,-48.58 -6.09,-49.35 -5.28,-50.11 -4.20,-50.93 -3.13,-51.75 -1.84,-52.26 -0.54,-52.76 1.21,-52.85 2.97,-52.93 4.09,-52.82 5.21,-52.70 6.67,-52.44 8.13,-52.18 9.53,-52.25 10.93,-52.32 12.60,-52.96 14.27,-53.60 15.67,-54.43 17.07,-55.26 18.16,-56.05 19.24,-56.83 20.28,-57.59 21.32,-58.34 22.95,-59.00 24.59,-59.65 25.89,-59.18 27.19,-58.70 27.72,-57.53 28.24,-56.36 28.44,-55.00 28.63,-53.64 28.60,-52.49 28.57,-51.34 28.33,-49.73 28.09,-48.13 27.76,-46.66 27.43,-45.19 27.01,-43.97 26.59,-42.74 25.50,-40.61 24.41,-38.48 23.29,-37.32 22.17,-36.16 20.89,-35.25 19.60,-34.33 18.34,-33.62 17.08,-32.91 16.01,-32.39 14.95,-31.87 13.45,-31.45 11.95,-31.03 10.81,-30.76 9.67,-30.49 8.38,-30.21 7.08,-29.93 5.50,-29.86 3.93,-29.79 2.48,-29.94 1.04,-30.08 -0.48,-30.48 -2.01,-30.87 -4.42,-32.56 -6.84,-34.25 -6.97,-34.78 -7.11,-35.31 -7.06,-35.85 -7.02,-36.40 -6.81,-36.90 -6.59,-37.40 -6.23,-37.81 -5.87,-38.21 -5.40,-38.48 -4.92,-38.75 -4.39,-38.86 -3.85,-38.96 -3.31,-38.89 -2.77,-38.82 -2.28,-38.58 -1.79,-38.34 -1.41,-37.95 -1.02,-37.57 -0.78,-37.08 -0.53,-36.60 -0.46,-36.06 -0.38,-35.52 -0.48,-34.98 -0.58,-34.44 -0.85,-33.97 -1.12,-33.49 -1.52,-33.13 -1.93,-32.76 -2.43,-32.55 -2.93,-32.33 -3.47,-32.28 -4.01,-32.24 -4.54,-32.37 -5.07,-32.50 -5.53,-32.79 -5.99,-33.08 -6.33,-33.51 -6.68,-33.93 -6.87,-34.44 -7.06,-34.95 -7.07,-35.50 -7.09,-36.04 -6.93,-36.56 -6.77,-37.08 -6.46,-37.53 -6.14,-37.97 -5.70,-38.29 -5.26,-38.61 -4.74,-38.77 -4.22,-38.93 -3.67,-38.92 -3.13,-38.91 -2.61,-38.72 -2.10,-38.53 -1.68,-38.19 -1.25,-37.85 -0.96,-37.39 -0.66,-36.94 -0.66,-36.94 -0.66,-36.94 0.50,-36.74 1.67,-36.54 3.07,-36.36 4.48,-36.18 5.70,-36.14 6.93,-36.10 8.62,-36.48 10.30,-36.85 12.12,-37.54 13.93,-38.24 15.70,-39.46 17.47,-40.67 18.47,-41.97 19.48,-43.27 20.03,-44.97 20.58,-46.67 20.88,-48.09 21.17,-49.52 21.43,-51.05 21.68,-52.59 21.63,-54.02 21.57,-55.46 22.24,-54.58 22.91,-53.71 23.99,-53.31 25.06,-52.91 24.09,-52.26 23.11,-51.61 21.80,-50.71 20.50,-49.82 18.79,-48.82 17.09,-47.82 15.86,-47.22 14.64,-46.62 13.22,-46.16 11.81,-45.71 10.49,-45.54 9.17,-45.37 7.42,-45.53 5.68,-45.70 4.66,-46.00 3.64,-46.31 2.13,-46.45 0.63,-46.59 -0.30,-46.07 -1.23,-45.55 -2.26,-44.76 -3.30,-43.97 -3.23,-42.90 -3.17,-41.84 -2.64,-40.34 -2.11,-38.84 -1.78,-37.93 -1.45,-37.02 -1.37,-36.71 -1.29,-36.39 -1.28,-36.07 -1.28,-35.75 -1.35,-35.44 -1.42,-35.12 -1.57,-34.83 -1.72,-34.55 -1.93,-34.30 -2.14,-34.06 -2.40,-33.87 -2.66,-33.68 -2.96,-33.56 -3.26,-33.44 -3.58,-33.40 -3.90,-33.36 -4.22,-33.39 -4.54,-33.43 -4.84,-33.54 -5.15,-33.65 -5.42,-33.82 -5.68,-34.00 -5.90,-34.24 -6.12,-34.48 -6.27,-34.76 -6.43,-35.05 -6.43,-35.05 L -6.43,-35.05 Z"></path></g><g transform="translate(6 64.19402879728955) rotate(0 48 20)"><text x="0" y="0" font-family="Virgil, Segoe UI Emoji" font-size="16px" fill="#000000" text-anchor="start" style="white-space: pre;" direction="ltr" dominant-baseline="text-before-edge">Azure Spring</text><text x="0" y="20" font-family="Virgil, Segoe UI Emoji" font-size="16px" fill="#000000" text-anchor="start" style="white-space: pre;" direction="ltr" dominant-baseline="text-before-edge">Cloud</text></g></svg>