<svg version="1.1" xmlns="http://www.w3.org/2000/svg" viewBox="0 0 79 88.34945585013898" width="79" height="88.34945585013898">
  <!-- svg-source:excalidraw -->
  
  <defs>
    
    
  </defs>
  <g transform="translate(43.354342006886554 54.30985915492957) rotate(0 -6.56277138613757 -31.81248015605722)" stroke="none"><path d="M-11.39 -15.51 C-14.56 -15.71, -26.79 -16.21, -30.42 -16.75 C-34.06 -17.29, -32.37 -17.63, -33.2 -18.76 C-34.03 -19.89, -35.01 -22.11, -35.4 -23.54 C-35.78 -24.97, -35.78 -26.2, -35.49 -27.37 C-35.21 -28.53, -34.84 -29.42, -33.68 -30.52 C-32.51 -31.62, -30.36 -33.36, -28.51 -33.96 C-26.66 -34.57, -23.87 -32.91, -22.58 -34.16 C-21.29 -35.4, -21.94 -39.37, -20.76 -41.42 C-19.59 -43.48, -17.26 -45.38, -15.5 -46.49 C-13.75 -47.61, -12.36 -47.86, -10.24 -48.12 C-8.12 -48.37, -4.91 -48.76, -2.79 -48.02 C-0.67 -47.29, 0.83 -46.01, 2.47 -43.72 C4.12 -41.42, 5.82 -35.48, 7.07 -34.25 C8.31 -33.02, 8.6 -35.92, 9.93 -36.36 C11.27 -36.79, 13.63 -36.94, 15.1 -36.83 C16.57 -36.72, 17.73 -36.31, 18.73 -35.69 C19.74 -35.06, 20.52 -34.55, 21.12 -33.1 C21.73 -31.65, 22.56 -29.57, 22.37 -26.98 C22.18 -24.4, 22.06 -19.46, 19.98 -17.61 C17.89 -15.76, 15.07 -16.24, 9.84 -15.89 C4.61 -15.54, -7.85 -15.57, -11.39 -15.51" stroke="none" stroke-width="0" fill="#4897e9" fill-rule="evenodd"></path><path fill="#4897e9" d="M -11.39,-12.87 Q -11.39,-12.87 -12.35,-12.84 -13.31,-12.81 -14.63,-12.73 -15.94,-12.66 -17.23,-12.58 -18.51,-12.50 -19.84,-12.42 -21.17,-12.35 -22.64,-12.37 -24.10,-12.39 -25.21,-12.50 -26.31,-12.61 -27.84,-12.84 -29.36,-13.08 -30.52,-13.39 -31.67,-13.71 -32.94,-14.37 -34.21,-15.03 -35.17,-15.98 -36.13,-16.93 -36.99,-18.28 -37.86,-19.62 -38.28,-20.86 -38.71,-22.09 -38.86,-23.30 -39.02,-24.50 -39.05,-25.68 -39.09,-26.87 -38.87,-27.97 -38.66,-29.08 -38.05,-30.29 -37.45,-31.50 -36.61,-32.56 -35.76,-33.61 -34.71,-34.52 -33.65,-35.43 -32.49,-36.07 -31.33,-36.72 -30.33,-37.09 -29.33,-37.47 -28.17,-37.81 -27.02,-38.14 -25.74,-38.28 -24.46,-38.41 -23.19,-38.16 -21.92,-37.92 -23.76,-37.08 -25.59,-36.25 -25.74,-37.37 -25.90,-38.50 -25.51,-39.75 -25.12,-40.99 -24.46,-42.28 -23.80,-43.57 -23.11,-44.49 -22.43,-45.40 -21.48,-46.34 -20.53,-47.28 -19.36,-48.23 -18.18,-49.17 -17.19,-49.69 -16.19,-50.21 -15.10,-50.62 -14.01,-51.04 -12.14,-51.39 -10.26,-51.74 -8.56,-51.82 -6.86,-51.89 -5.63,-51.90 -4.41,-51.91 -3.02,-51.64 -1.62,-51.36 -0.56,-50.80 0.49,-50.24 1.76,-49.34 3.02,-48.45 3.90,-47.54 4.77,-46.64 5.40,-45.77 6.04,-44.89 6.72,-43.63 7.40,-42.37 8.06,-41.06 8.71,-39.75 9.22,-38.69 9.73,-37.63 10.13,-36.64 10.54,-35.64 8.98,-36.56 7.43,-37.47 5.99,-37.22 4.55,-36.97 5.55,-37.81 6.55,-38.65 7.77,-39.27 8.99,-39.89 10.28,-40.19 11.57,-40.49 12.78,-40.55 13.98,-40.61 15.28,-40.49 16.58,-40.36 17.65,-40.06 18.72,-39.76 19.92,-39.13 21.13,-38.50 22.10,-37.61 23.06,-36.71 23.76,-35.77 24.46,-34.83 24.92,-33.80 25.38,-32.77 25.69,-31.63 26.01,-30.50 26.09,-29.12 26.17,-27.75 26.02,-26.36 25.87,-24.97 25.74,-23.84 25.62,-22.70 25.48,-21.57 25.34,-20.43 24.95,-19.18 24.56,-17.93 24.06,-16.99 23.55,-16.06 22.68,-15.16 21.80,-14.26 20.51,-13.84 19.23,-13.42 18.16,-13.21 17.10,-12.99 15.90,-12.78 14.70,-12.56 13.46,-12.44 12.22,-12.31 11.05,-12.17 9.87,-12.04 8.67,-11.99 7.46,-11.94 6.30,-11.90 5.14,-11.85 3.81,-11.85 2.49,-11.85 1.35,-11.83 0.20,-11.81 -0.99,-11.75 -2.19,-11.68 -3.42,-11.63 -4.66,-11.57 -5.77,-11.57 -6.87,-11.56 -9.36,-11.61 -11.85,-11.66 -12.43,-11.89 -13.01,-12.12 -13.49,-12.52 -13.96,-12.93 -14.28,-13.46 -14.60,-14.00 -14.74,-14.61 -14.87,-15.22 -14.80,-15.84 -14.73,-16.46 -14.47,-17.02 -14.21,-17.59 -13.78,-18.04 -13.35,-18.49 -12.80,-18.78 -12.25,-19.08 -11.63,-19.18 -11.02,-19.28 -10.40,-19.17 -9.78,-19.07 -9.23,-18.78 -8.68,-18.49 -8.25,-18.03 -7.83,-17.58 -7.56,-17.01 -7.30,-16.45 -7.24,-15.83 -7.17,-15.21 -7.30,-14.60 -7.44,-13.99 -7.76,-13.45 -8.08,-12.92 -8.56,-12.52 -9.04,-12.11 -9.62,-11.88 -10.20,-11.65 -10.82,-11.62 -11.44,-11.59 -12.04,-11.76 -12.64,-11.92 -13.16,-12.27 -13.67,-12.62 -14.05,-13.12 -14.43,-13.62 -14.63,-14.21 -14.83,-14.80 -14.82,-15.42 -14.82,-16.05 -14.62,-16.64 -14.42,-17.23 -14.05,-17.73 -13.67,-18.22 -13.15,-18.57 -12.63,-18.92 -12.03,-19.09 -11.43,-19.25 -10.81,-19.22 -10.19,-19.18 -10.19,-19.18 -10.19,-19.18 -8.65,-19.22 -7.11,-19.25 -5.95,-19.25 -4.80,-19.26 -3.49,-19.31 -2.19,-19.37 -0.88,-19.45 0.43,-19.54 1.73,-19.53 3.02,-19.53 4.39,-19.55 5.75,-19.56 6.86,-19.62 7.97,-19.67 9.26,-19.77 10.55,-19.87 11.66,-20.00 12.77,-20.14 14.01,-20.34 15.24,-20.54 16.38,-20.71 17.52,-20.88 17.75,-21.97 17.99,-23.07 18.15,-24.50 18.30,-25.93 18.42,-27.12 18.53,-28.30 18.31,-29.39 18.08,-30.48 17.41,-31.45 16.74,-32.42 15.70,-32.73 14.65,-33.04 13.53,-33.01 12.41,-32.97 11.32,-32.55 10.23,-32.13 8.51,-31.61 6.79,-31.09 5.15,-32.33 3.50,-33.56 2.93,-34.86 2.35,-36.16 1.69,-37.51 1.03,-38.87 0.35,-40.09 -0.33,-41.32 -1.17,-42.23 -2.02,-43.15 -3.19,-43.92 -4.37,-44.69 -5.49,-44.67 -6.62,-44.65 -7.87,-44.58 -9.13,-44.50 -10.74,-44.10 -12.34,-43.70 -13.62,-43.00 -14.89,-42.31 -15.74,-41.49 -16.59,-40.68 -17.24,-39.70 -17.90,-38.73 -18.29,-37.51 -18.68,-36.29 -18.77,-35.22 -18.86,-34.16 -19.24,-33.17 -19.63,-32.17 -20.67,-31.57 -21.71,-30.97 -22.96,-31.00 -24.20,-31.02 -25.33,-30.85 -26.45,-30.68 -27.59,-30.29 -28.72,-29.89 -29.73,-29.07 -30.73,-28.25 -31.31,-27.24 -31.88,-26.23 -31.83,-25.03 -31.79,-23.83 -31.37,-22.81 -30.96,-21.80 -29.96,-20.87 -28.97,-19.94 -27.62,-19.64 -26.27,-19.34 -24.87,-19.11 -23.48,-18.88 -22.33,-18.77 -21.17,-18.66 -19.84,-18.58 -18.51,-18.50 -17.23,-18.42 -15.94,-18.34 -14.63,-18.27 -13.31,-18.20 -12.35,-18.16 -11.39,-18.13 -11.07,-18.09 -10.76,-18.05 -10.46,-17.94 -10.17,-17.83 -9.91,-17.65 -9.64,-17.47 -9.43,-17.23 -9.22,-16.99 -9.08,-16.71 -8.93,-16.43 -8.85,-16.13 -8.78,-15.82 -8.78,-15.50 -8.78,-15.18 -8.85,-14.88 -8.93,-14.57 -9.08,-14.29 -9.22,-14.01 -9.43,-13.77 -9.65,-13.53 -9.91,-13.35 -10.17,-13.17 -10.46,-13.06 -10.76,-12.95 -11.07,-12.91 -11.39,-12.87 -11.39,-12.87 L -11.39,-12.87 Z"></path></g><g transform="translate(28.17522405767363 16.687702113085265) rotate(0 0.06287245887926929 0)" stroke="none"><path fill="#4897e9" d="M 2.12,-0.66 Q 2.12,-0.66 2.15,-0.13 2.18,0.40 1.96,0.88 1.74,1.36 1.32,1.69 0.91,2.02 0.38,2.12 -0.13,2.21 -0.64,2.05 -1.14,1.90 -1.52,1.52 -1.90,1.14 -2.05,0.64 -2.21,0.13 -2.12,-0.38 -2.02,-0.91 -1.69,-1.32 -1.36,-1.74 -0.88,-1.96 -0.39,-2.18 0.13,-2.15 0.66,-2.11 1.11,-1.84 1.57,-1.56 1.84,-1.11 L 2.12,-0.66 Z"></path></g><g transform="translate(29.935652906291352 23.60367258980051) rotate(0 0.00003395112776161113 0.00003395112779003284)" stroke="none"><path fill="#4897e9" d="M 1.57,-1.57 Q 1.57,-1.57 1.77,-1.27 1.98,-0.98 2.09,-0.64 2.20,-0.29 2.19,0.05 2.18,0.41 2.05,0.75 1.93,1.09 1.70,1.37 1.48,1.65 1.18,1.84 0.87,2.03 0.52,2.12 0.18,2.21 -0.17,2.18 -0.53,2.15 -0.86,2.01 -1.19,1.87 -1.46,1.63 -1.73,1.39 -1.90,1.07 -2.08,0.76 -2.15,0.41 -2.21,0.05 -2.17,-0.29 -2.12,-0.65 -1.96,-0.97 -1.80,-1.29 -1.54,-1.54 -1.29,-1.80 -0.97,-1.96 -0.65,-2.12 -0.29,-2.17 0.06,-2.21 0.41,-2.15 0.76,-2.08 1.07,-1.90 1.39,-1.73 1.63,-1.46 1.87,-1.19 2.01,-0.86 2.15,-0.53 2.18,-0.17 2.21,0.18 2.12,0.52 2.03,0.87 1.84,1.18 1.65,1.48 1.37,1.70 1.09,1.93 0.75,2.05 0.41,2.18 0.05,2.19 -0.30,2.20 -0.64,2.09 -0.98,1.98 -1.27,1.77 -1.57,1.56 -1.57,1.57 -1.57,1.57 -1.73,1.35 -1.90,1.14 -2.01,0.90 -2.12,0.66 -2.16,0.39 -2.21,0.13 -2.20,-0.13 -2.18,-0.40 -2.10,-0.65 -2.02,-0.91 -1.88,-1.14 -1.74,-1.36 -1.55,-1.55 -1.36,-1.74 -1.14,-1.88 -0.91,-2.02 -0.65,-2.10 -0.40,-2.18 -0.13,-2.20 0.13,-2.21 0.39,-2.16 0.66,-2.12 0.90,-2.01 1.14,-1.90 1.35,-1.73 1.57,-1.57 1.57,-1.57 L 1.57,-1.57 Z"></path></g><g transform="translate(43.19551089989022 10.100915709311778) rotate(0 -7.664209153347656 11.679455572991145)" stroke="none"><path fill="#4897e9" d="M -9.36,1.08 Q -9.36,1.08 -10.61,2.10 -11.86,3.13 -12.90,4.06 -13.94,5.00 -14.81,6.02 -15.68,7.04 -15.76,7.45 -15.84,7.86 -16.00,8.15 -16.16,8.45 -16.38,8.71 -16.61,8.96 -16.89,9.15 -17.17,9.34 -17.49,9.46 -17.80,9.58 -18.14,9.62 -18.48,9.66 -18.81,9.62 -19.15,9.57 -19.47,9.45 -19.78,9.33 -20.06,9.14 -20.34,8.94 -20.56,8.69 -20.79,8.43 -20.94,8.13 -21.10,7.83 -21.18,7.50 -21.26,7.17 -21.26,6.83 -21.26,6.50 -21.17,6.17 -21.09,5.84 -20.28,4.63 -19.47,3.43 -18.77,2.14 -18.07,0.85 -17.92,0.40 -17.78,-0.03 -17.58,-0.34 -17.37,-0.65 -17.10,-0.90 -16.83,-1.15 -16.51,-1.33 -16.19,-1.51 -15.83,-1.61 -15.48,-1.70 -15.11,-1.71 -14.74,-1.72 -14.38,-1.64 -14.02,-1.57 -13.69,-1.40 -13.36,-1.24 -13.07,-1.00 -12.79,-0.76 -12.57,-0.46 -12.36,-0.17 -12.22,0.17 -12.08,0.51 -12.02,0.87 -11.97,1.24 -12.00,1.61 -12.04,1.97 -12.16,2.32 -12.28,2.67 -13.12,3.49 -13.97,4.32 -15.24,5.44 -16.51,6.56 -17.38,7.32 -18.24,8.08 -18.14,8.26 -18.03,8.43 -18.19,8.79 -18.36,9.15 -18.61,9.46 -18.86,9.77 -19.17,10.02 -19.49,10.26 -19.86,10.42 -20.22,10.58 -20.61,10.65 -21.01,10.72 -21.40,10.69 -21.80,10.66 -22.18,10.54 -22.56,10.42 -22.90,10.21 -23.24,10.00 -23.52,9.71 -23.80,9.43 -24.00,9.09 -24.20,8.74 -24.32,8.36 -24.43,7.98 -24.45,7.58 -24.47,7.18 -24.40,6.79 -24.32,6.40 -23.07,5.32 -21.83,4.23 -21.15,3.15 -20.48,2.07 -20.18,1.65 -19.88,1.23 -19.63,0.91 -19.38,0.59 -19.06,0.33 -18.75,0.08 -18.38,-0.08 -18.01,-0.25 -17.61,-0.33 -17.21,-0.41 -16.80,-0.39 -16.40,-0.37 -16.01,-0.25 -15.62,-0.13 -15.27,0.07 -14.92,0.27 -14.63,0.56 -14.34,0.84 -14.12,1.19 -13.91,1.53 -13.78,1.92 -13.66,2.31 -13.63,2.71 -13.60,3.12 -13.67,3.52 -13.74,3.92 -13.91,4.29 -14.07,4.67 -14.61,6.13 -15.16,7.60 -15.90,9.34 -16.65,11.07 -17.36,13.02 -18.07,14.96 -18.56,16.88 -19.05,18.81 -19.24,20.33 -19.43,21.86 -19.25,22.66 -19.08,23.46 -19.13,23.75 -19.19,24.03 -19.31,24.30 -19.43,24.56 -19.61,24.79 -19.80,25.02 -20.03,25.19 -20.26,25.37 -20.52,25.49 -20.79,25.60 -21.08,25.65 -21.36,25.70 -21.65,25.68 -21.94,25.66 -22.22,25.57 -22.50,25.49 -22.74,25.33 -22.99,25.18 -23.20,24.97 -23.40,24.76 -23.55,24.51 -23.70,24.26 -23.78,23.99 -23.86,23.71 -23.88,23.42 -23.89,23.13 -23.03,21.37 -22.16,19.61 -21.62,18.39 -21.07,17.18 -20.42,15.58 -19.77,13.99 -19.26,12.32 -18.75,10.64 -18.50,9.22 -18.26,7.79 -18.20,6.72 -18.15,5.66 -17.19,6.40 -16.23,7.14 -17.12,8.48 -18.00,9.82 -19.38,10.99 -20.76,12.16 -22.45,13.39 -24.14,14.61 -25.50,15.60 -26.86,16.60 -29.65,16.95 -32.45,17.30 -32.75,16.10 -33.05,14.91 -32.34,12.68 -31.62,10.45 -31.35,9.52 -31.07,8.59 -30.92,8.29 -30.77,7.99 -30.56,7.74 -30.34,7.48 -30.07,7.29 -29.80,7.09 -29.50,6.97 -29.19,6.84 -28.86,6.79 -28.53,6.75 -28.20,6.78 -27.87,6.81 -27.56,6.92 -27.24,7.03 -26.96,7.21 -26.69,7.40 -26.46,7.64 -26.23,7.88 -26.07,8.17 -25.91,8.46 -25.82,8.78 -25.74,9.11 -25.73,9.44 -25.72,9.77 -25.79,10.09 -25.86,10.42 -26.28,11.78 -26.70,13.14 -27.18,14.39 -27.67,15.64 -28.18,16.91 -28.69,18.18 -29.02,19.35 -29.35,20.53 -29.50,20.84 -29.66,21.15 -29.88,21.42 -30.11,21.68 -30.39,21.88 -30.67,22.09 -31.00,22.22 -31.32,22.35 -31.66,22.40 -32.01,22.45 -32.35,22.41 -32.70,22.38 -33.03,22.26 -33.35,22.14 -33.64,21.95 -33.93,21.76 -34.17,21.50 -34.41,21.25 -34.57,20.94 -34.74,20.64 -34.83,20.30 -34.92,19.97 -34.93,19.62 -34.94,19.27 -34.86,18.93 -34.79,18.59 -33.44,17.61 -32.09,16.62 -30.90,15.72 -29.70,14.82 -28.49,14.07 -27.28,13.31 -26.24,12.57 -25.20,11.82 -24.41,11.13 -23.61,10.45 -23.31,10.28 -23.00,10.10 -22.67,10.01 -22.33,9.91 -21.98,9.90 -21.63,9.89 -21.29,9.96 -20.95,10.03 -20.63,10.18 -20.32,10.33 -20.05,10.56 -19.78,10.78 -19.57,11.06 -19.36,11.34 -19.23,11.66 -19.09,11.98 -19.04,12.33 -18.99,12.67 -19.02,13.02 -19.05,13.37 -19.16,13.70 -19.27,14.03 -19.46,14.33 -19.65,14.62 -19.90,14.86 -20.15,15.10 -21.93,16.14 -23.70,17.17 -25.53,17.79 -27.36,18.41 -28.72,18.91 -30.08,19.40 -31.85,19.12 -33.61,18.84 -33.95,17.62 -34.29,16.40 -33.48,14.94 -32.68,13.47 -31.45,12.28 -30.22,11.08 -28.81,10.58 -27.41,10.07 -25.94,11.78 -24.46,13.50 -25.04,15.00 -25.61,16.50 -27.29,14.91 -28.97,13.32 -26.98,12.52 -24.99,11.72 -24.02,11.49 -23.04,11.26 -22.65,11.18 -22.27,11.09 -21.88,11.11 -21.49,11.12 -21.11,11.22 -20.73,11.33 -20.39,11.52 -20.05,11.71 -19.77,11.98 -19.48,12.25 -19.27,12.58 -19.06,12.91 -18.93,13.28 -18.80,13.65 -18.77,14.04 -18.73,14.43 -18.79,14.81 -18.85,15.20 -19.00,15.56 -19.15,15.92 -19.38,16.24 -19.61,16.55 -19.91,16.80 -20.21,17.06 -20.56,17.23 -20.92,17.40 -19.99,16.67 -19.06,15.94 -22.23,18.95 -25.41,21.97 -27.22,23.19 -29.03,24.41 -30.05,25.24 -31.07,26.07 -31.51,26.45 -31.95,26.83 -32.22,27.00 -32.48,27.16 -32.78,27.25 -33.08,27.35 -33.39,27.37 -33.70,27.39 -34.00,27.33 -34.31,27.28 -34.60,27.15 -34.88,27.03 -35.13,26.84 -35.37,26.65 -35.57,26.40 -35.76,26.16 -35.89,25.87 -36.02,25.59 -36.08,25.28 -36.14,24.98 -36.12,24.67 -36.10,24.36 -36.01,24.06 -35.92,23.76 -35.76,23.49 -35.60,23.22 -35.38,23.00 -35.16,22.78 -33.29,21.69 -31.41,20.60 -29.04,19.52 -26.67,18.44 -24.25,17.41 -21.83,16.38 -19.81,15.45 -17.79,14.52 -16.68,13.82 -15.56,13.12 -15.13,12.79 -14.70,12.45 -14.47,12.35 -14.23,12.26 -13.98,12.22 -13.73,12.19 -13.48,12.21 -13.23,12.24 -12.99,12.32 -12.75,12.41 -12.54,12.55 -12.33,12.68 -12.16,12.87 -11.99,13.06 -11.87,13.28 -11.75,13.50 -11.68,13.74 -11.61,13.99 -11.61,14.24 -11.60,14.49 -11.66,14.74 -11.71,14.98 -11.83,15.21 -11.94,15.44 -12.10,15.63 -12.27,15.82 -12.47,15.97 -12.68,16.12 -13.81,17.19 -14.95,18.27 -16.46,19.34 -17.96,20.42 -18.97,21.15 -19.97,21.88 -21.95,22.10 -23.93,22.31 -24.79,21.10 -25.64,19.90 -26.43,20.87 -27.23,21.85 -27.38,23.00 -27.54,24.15 -28.71,22.59 -29.89,21.02 -27.85,20.54 -25.82,20.07 -24.63,19.92 -23.43,19.77 -22.10,19.49 -20.76,19.21 -20.60,19.15 -20.44,19.10 -20.05,19.05 -19.66,19.00 -19.27,19.05 -18.88,19.09 -18.52,19.23 -18.15,19.37 -17.83,19.59 -17.51,19.82 -17.25,20.11 -16.99,20.40 -16.80,20.75 -16.62,21.09 -16.53,21.47 -16.43,21.85 -16.43,22.24 -16.43,22.63 -16.53,23.01 -16.62,23.39 -16.80,23.74 -16.98,24.09 -17.24,24.38 -17.50,24.67 -17.82,24.90 -18.15,25.12 -18.51,25.26 -18.88,25.40 -20.66,25.65 -22.45,25.89 -23.61,25.89 -24.77,25.89 -26.49,25.89 -28.21,25.90 -29.99,24.80 -31.76,23.70 -32.08,22.08 -32.40,20.46 -32.53,19.19 -32.65,17.91 -30.58,18.51 -28.50,19.11 -27.29,19.47 -26.09,19.82 -25.02,20.03 -23.95,20.24 -22.79,20.35 -21.64,20.47 -20.56,20.52 -19.48,20.58 -18.26,20.46 -17.04,20.35 -15.35,20.23 -13.65,20.11 -11.82,20.16 -9.99,20.21 -8.79,20.48 -7.58,20.75 -6.45,22.20 -5.31,23.65 -5.59,24.86 -5.88,26.08 -6.73,26.80 -7.58,27.52 -9.81,27.73 -12.04,27.94 -13.33,27.92 -14.63,27.89 -15.82,27.88 -17.02,27.86 -18.23,28.02 -19.45,28.19 -20.64,28.26 -21.82,28.32 -23.13,28.35 -24.44,28.37 -25.67,28.28 -26.90,28.18 -27.31,28.07 -27.71,27.95 -28.07,27.74 -28.44,27.53 -28.74,27.24 -29.04,26.95 -29.27,26.60 -29.49,26.25 -29.62,25.85 -29.76,25.45 -29.79,25.04 -29.83,24.62 -29.76,24.21 -29.69,23.79 -29.53,23.41 -29.37,23.02 -29.12,22.69 -28.87,22.35 -28.54,22.08 -28.22,21.82 -27.84,21.64 -27.46,21.46 -27.05,21.37 -26.64,21.29 -26.23,21.30 -25.81,21.32 -24.74,21.59 -23.66,21.87 -21.04,22.25 -18.41,22.64 -17.26,22.72 -16.12,22.80 -14.23,22.82 -12.35,22.85 -11.08,22.79 -9.81,22.73 -8.44,22.52 -7.08,22.32 -6.03,22.09 -4.99,21.87 -3.63,21.69 -2.27,21.50 -1.13,21.48 0.00,21.45 1.93,21.48 3.87,21.50 5.02,21.53 6.16,21.56 7.72,21.56 9.29,21.55 10.47,21.51 11.65,21.47 12.77,21.31 13.88,21.14 14.48,19.99 15.07,18.84 15.12,17.69 15.16,16.54 15.22,15.36 15.27,14.17 14.00,14.09 12.72,14.01 11.36,13.70 10.00,13.39 8.86,13.15 7.71,12.91 8.91,12.51 10.10,12.12 11.33,12.40 12.57,12.68 11.90,13.01 11.22,13.34 11.52,13.00 11.81,12.66 12.17,12.40 12.54,12.14 12.95,11.97 13.37,11.80 13.81,11.74 14.26,11.68 14.70,11.72 15.15,11.77 15.57,11.92 16.00,12.07 16.37,12.32 16.74,12.57 17.05,12.90 17.35,13.23 17.57,13.62 17.78,14.02 17.90,14.45 18.01,14.88 18.02,15.33 18.03,15.78 17.93,16.22 17.83,16.66 17.63,17.06 17.43,17.46 17.22,18.52 17.01,19.58 17.00,19.83 16.99,20.09 16.90,20.53 16.81,20.97 16.61,21.37 16.42,21.77 16.14,22.12 15.85,22.47 15.50,22.73 15.14,23.00 14.73,23.18 14.31,23.35 13.87,23.42 13.43,23.49 12.99,23.45 12.54,23.42 12.12,23.27 11.69,23.13 11.31,22.89 10.94,22.65 10.63,22.33 10.32,22.01 10.10,21.62 9.87,21.23 9.75,20.80 9.63,20.37 9.61,19.92 9.59,19.48 9.86,18.05 10.12,16.62 10.16,15.31 10.20,13.99 12.10,14.92 14.01,15.85 12.79,17.13 11.58,18.40 11.01,16.63 10.45,14.87 9.09,14.14 7.74,13.40 8.69,12.88 9.65,12.35 10.67,14.51 11.68,16.68 13.01,16.67 14.34,16.67 12.93,16.53 11.53,16.40 11.18,15.20 10.84,14.00 11.91,14.62 12.98,15.24 14.31,15.19 15.63,15.14 15.00,16.60 14.37,18.06 12.85,17.59 11.34,17.12 10.28,16.45 9.23,15.78 8.25,15.18 7.28,14.59 8.11,13.81 8.94,13.02 9.63,13.92 10.32,14.82 11.38,15.76 12.44,16.70 13.33,17.54 14.22,18.38 15.07,21.57 15.92,24.75 14.57,25.56 13.23,26.36 11.71,26.40 10.19,26.45 9.05,26.41 7.90,26.38 6.70,26.33 5.49,26.29 4.37,26.26 3.24,26.23 1.17,26.20 -0.89,26.17 -2.04,26.30 -3.19,26.43 -4.56,26.56 -5.94,26.70 -7.37,26.76 -8.79,26.82 -9.88,26.83 -10.97,26.85 -12.32,26.86 -13.68,26.86 -14.86,26.82 -16.04,26.78 -17.81,26.73 -19.58,26.69 -21.59,25.78 -23.60,24.88 -23.53,22.99 -23.46,21.10 -21.36,19.94 -19.26,18.79 -17.28,18.63 -15.30,18.47 -12.04,18.33 -8.78,18.18 -5.69,18.20 -2.59,18.22 -0.04,18.32 2.50,18.42 4.60,18.59 6.69,18.76 8.37,18.96 10.05,19.16 11.25,19.19 12.44,19.22 12.41,19.21 12.38,19.20 12.64,19.26 12.90,19.33 13.13,19.45 13.37,19.58 13.57,19.76 13.77,19.94 13.92,20.16 14.07,20.38 14.16,20.63 14.25,20.88 14.28,21.14 14.31,21.41 14.28,21.67 14.25,21.94 14.15,22.19 14.05,22.44 13.90,22.66 13.75,22.87 13.55,23.05 13.34,23.23 13.11,23.35 12.87,23.47 12.61,23.53 12.35,23.59 12.08,23.59 11.82,23.59 9.52,23.52 7.23,23.45 4.28,23.28 1.33,23.11 -2.19,22.90 -5.73,22.69 -8.86,22.47 -11.99,22.25 -14.48,22.07 -16.96,21.89 -18.40,21.89 -19.83,21.88 -20.90,21.87 -21.98,21.87 -21.97,21.87 -21.95,21.88 -22.18,21.79 -22.40,21.71 -22.60,21.58 -22.80,21.45 -22.96,21.27 -23.12,21.10 -23.24,20.89 -23.35,20.68 -23.41,20.45 -23.47,20.22 -23.48,19.98 -23.48,19.74 -23.43,19.51 -23.38,19.27 -23.27,19.06 -23.16,18.85 -23.01,18.67 -22.85,18.48 -22.66,18.35 -22.46,18.21 -22.24,18.12 -22.02,18.03 -21.78,18.00 -21.55,17.96 -21.31,17.99 -21.07,18.01 -19.39,17.68 -17.70,17.35 -15.20,17.26 -12.69,17.16 -9.72,17.08 -6.75,17.00 -4.19,16.96 -1.62,16.92 0.37,16.88 2.37,16.85 3.74,16.71 5.11,16.56 6.02,16.37 6.92,16.17 7.17,16.19 7.41,16.22 7.65,16.29 7.88,16.37 8.09,16.51 8.30,16.64 8.47,16.82 8.64,17.00 8.76,17.21 8.88,17.43 8.95,17.66 9.02,17.90 9.03,18.15 9.03,18.39 8.98,18.63 8.93,18.88 8.83,19.10 8.72,19.32 8.56,19.51 8.41,19.70 8.21,19.85 8.01,20.00 7.78,20.09 7.55,20.19 7.31,20.23 7.07,20.26 5.55,20.34 4.03,20.41 2.06,20.32 0.09,20.24 -2.80,20.14 -5.70,20.03 -8.59,19.96 -11.49,19.88 -14.00,19.79 -16.50,19.69 -18.32,19.71 -20.14,19.72 -21.08,19.84 -22.02,19.96 -22.25,19.93 -22.49,19.90 -22.70,19.82 -22.92,19.74 -23.11,19.60 -23.30,19.47 -23.46,19.29 -23.61,19.11 -23.72,18.91 -23.82,18.70 -23.88,18.47 -23.93,18.24 -23.93,18.01 -23.93,17.78 -23.87,17.55 -23.81,17.33 -23.70,17.12 -23.59,16.91 -23.43,16.74 -23.28,16.57 -23.08,16.44 -22.89,16.31 -22.67,16.23 -22.45,16.14 -22.22,16.12 -21.99,16.09 -20.78,15.84 -19.57,15.60 -17.23,15.61 -14.89,15.62 -11.45,15.66 -8.01,15.70 -5.22,15.75 -2.42,15.79 -0.40,15.80 1.60,15.81 2.75,15.70 3.90,15.59 5.04,15.49 6.18,15.38 7.16,15.80 8.15,16.23 8.78,17.16 9.40,18.10 9.37,19.30 9.33,20.50 8.37,21.29 7.41,22.07 6.15,22.17 4.89,22.27 2.67,21.86 0.44,21.46 -1.30,21.04 -3.05,20.63 -5.02,20.11 -7.00,19.59 -9.03,19.09 -11.07,18.59 -13.28,18.04 -15.50,17.49 -16.93,17.24 -18.37,17.00 -19.56,16.90 -20.76,16.80 -21.09,16.84 -21.41,16.87 -21.70,16.82 -21.98,16.77 -22.24,16.66 -22.50,16.54 -22.73,16.37 -22.95,16.20 -23.13,15.97 -23.31,15.75 -23.43,15.49 -23.55,15.23 -23.60,14.95 -23.65,14.67 -23.64,14.38 -23.62,14.10 -23.54,13.83 -23.46,13.55 -23.31,13.31 -23.17,13.06 -22.97,12.86 -22.77,12.66 -22.52,12.51 -22.28,12.36 -22.01,12.27 -21.74,12.18 -21.45,12.16 -21.17,12.14 -19.68,12.04 -18.19,11.94 -16.08,12.10 -13.98,12.25 -11.38,12.37 -8.79,12.50 -5.52,12.59 -2.25,12.68 0.50,12.86 3.27,13.04 5.40,13.17 7.53,13.30 8.83,13.24 10.13,13.18 10.94,13.12 11.74,13.05 11.98,13.09 12.22,13.13 12.45,13.22 12.67,13.31 12.87,13.45 13.07,13.60 13.22,13.78 13.38,13.97 13.49,14.18 13.59,14.40 13.65,14.64 13.70,14.88 13.69,15.12 13.69,15.36 13.62,15.60 13.56,15.83 13.44,16.04 13.32,16.26 13.16,16.43 12.99,16.61 12.79,16.74 12.58,16.88 12.35,16.96 12.12,17.04 11.88,17.06 11.64,17.08 9.79,17.40 7.94,17.71 5.36,17.66 2.79,17.61 -0.12,17.55 -3.04,17.50 -5.87,17.44 -8.70,17.39 -11.16,17.35 -13.63,17.31 -14.86,17.42 -16.09,17.52 -16.67,17.62 -17.26,17.71 -17.49,17.68 -17.72,17.65 -17.94,17.57 -18.16,17.49 -18.36,17.36 -18.55,17.22 -18.71,17.05 -18.86,16.87 -18.97,16.66 -19.08,16.46 -19.14,16.23 -19.19,16.00 -19.19,15.76 -19.20,15.53 -19.14,15.30 -19.08,15.07 -18.97,14.86 -18.87,14.66 -18.71,14.48 -18.55,14.30 -18.36,14.17 -18.17,14.04 -17.95,13.95 -17.73,13.87 -17.50,13.84 -17.26,13.81 -15.63,13.68 -14.00,13.56 -11.98,13.65 -9.96,13.74 -7.43,13.83 -4.91,13.93 -2.54,14.00 -0.17,14.07 1.09,13.98 2.35,13.89 3.54,13.78 4.72,13.68 5.98,13.92 7.24,14.16 7.63,14.33 8.03,14.50 8.28,14.65 8.53,14.81 8.73,15.03 8.93,15.24 9.08,15.50 9.23,15.75 9.31,16.04 9.39,16.32 9.41,16.62 9.42,16.91 9.36,17.20 9.30,17.49 9.17,17.76 9.05,18.03 8.86,18.25 8.67,18.48 8.43,18.66 8.20,18.84 7.93,18.95 7.65,19.07 7.36,19.12 7.07,19.17 6.77,19.14 6.48,19.12 6.20,19.02 5.92,18.93 3.42,18.79 0.93,18.65 -1.93,18.13 -4.79,17.61 -7.36,17.06 -9.94,16.50 -11.91,16.12 -13.88,15.74 -15.14,15.57 -16.40,15.39 -17.49,15.33 -18.59,15.26 -18.69,15.24 -18.79,15.23 -19.06,15.17 -19.34,15.12 -19.59,15.00 -19.84,14.89 -20.06,14.71 -20.27,14.54 -20.44,14.32 -20.61,14.10 -20.72,13.84 -20.83,13.59 -20.88,13.31 -20.92,13.04 -20.90,12.76 -20.88,12.48 -20.80,12.22 -20.71,11.96 -20.56,11.72 -20.42,11.48 -20.22,11.29 -20.02,11.10 -19.78,10.96 -19.54,10.81 -19.27,10.74 -19.01,10.66 -18.73,10.64 -18.45,10.63 -16.21,10.27 -13.96,9.90 -11.90,10.00 -9.84,10.10 -8.48,10.07 -7.11,10.03 -5.37,10.06 -3.63,10.10 -2.14,10.15 -0.66,10.20 0.52,10.23 1.72,10.25 2.84,10.20 3.96,10.14 4.09,10.13 4.22,10.12 4.54,10.17 4.85,10.22 5.14,10.34 5.43,10.46 5.68,10.64 5.94,10.83 6.14,11.07 6.34,11.32 6.48,11.60 6.62,11.88 6.68,12.19 6.75,12.50 6.74,12.81 6.73,13.13 6.65,13.43 6.56,13.74 6.41,14.01 6.25,14.29 6.04,14.52 5.82,14.75 5.56,14.92 5.29,15.09 4.99,15.19 4.69,15.29 4.38,15.32 4.07,15.35 1.15,15.29 -1.75,15.23 -3.51,15.18 -5.26,15.12 -6.91,15.09 -8.55,15.07 -9.91,15.09 -11.26,15.12 -12.72,15.22 -14.18,15.32 -15.33,15.55 -16.48,15.79 -17.80,14.78 -19.13,13.77 -19.09,12.36 -19.06,10.95 -19.17,9.43 -19.29,7.90 -19.27,6.21 -19.25,4.52 -19.01,3.41 -18.76,2.30 -18.19,0.86 -17.62,-0.56 -17.44,-0.86 -17.25,-1.16 -16.96,-1.45 -16.68,-1.74 -16.32,-1.95 -15.97,-2.17 -15.58,-2.29 -15.19,-2.41 -14.78,-2.44 -14.37,-2.47 -13.97,-2.39 -13.56,-2.32 -13.19,-2.15 -12.82,-1.99 -12.49,-1.73 -12.17,-1.48 -11.91,-1.16 -11.66,-0.84 -11.49,-0.46 -11.32,-0.09 -11.25,0.30 -11.17,0.71 -11.19,1.12 -11.22,1.53 -11.34,1.92 -11.46,2.31 -11.67,2.66 -11.88,3.02 -12.64,4.38 -13.40,5.73 -14.03,6.78 -14.67,7.83 -15.58,9.45 -16.50,11.08 -16.94,12.19 -17.38,13.30 -18.87,11.90 -20.36,10.51 -19.98,9.43 -19.59,8.34 -18.75,7.36 -17.91,6.37 -17.08,5.19 -16.26,4.01 -15.56,2.83 -14.86,1.65 -14.40,0.68 -13.94,-0.27 -13.61,-0.76 -13.27,-1.25 -12.95,-1.52 -12.63,-1.79 -12.26,-1.97 -11.88,-2.16 -11.48,-2.25 -11.07,-2.34 -10.65,-2.33 -10.23,-2.31 -9.83,-2.20 -9.43,-2.09 -9.06,-1.89 -8.70,-1.69 -8.39,-1.40 -8.08,-1.12 -7.86,-0.77 -7.63,-0.42 -7.49,-0.02 -7.35,0.36 -7.31,0.78 -7.27,1.19 -7.33,1.61 -7.40,2.02 -7.55,2.41 -7.71,2.80 -7.96,3.13 -8.20,3.47 -8.77,4.53 -9.35,5.58 -9.66,6.25 -9.98,6.91 -10.21,7.27 -10.44,7.63 -10.75,7.92 -11.06,8.21 -11.43,8.43 -11.81,8.64 -12.22,8.75 -12.63,8.87 -13.06,8.88 -13.49,8.90 -13.91,8.81 -14.33,8.72 -14.71,8.53 -15.10,8.35 -15.43,8.07 -15.76,7.80 -16.01,7.46 -16.27,7.11 -16.43,6.72 -16.60,6.32 -16.66,5.90 -16.73,5.47 -16.69,5.05 -16.65,4.62 -16.51,4.22 -16.37,3.81 -15.76,2.54 -15.15,1.28 -14.66,-0.09 -14.18,-1.47 -13.68,-2.60 -13.18,-3.72 -12.21,-4.60 -11.25,-5.48 -10.12,-5.77 -9.00,-6.06 -7.78,-5.79 -6.56,-5.52 -5.27,-4.99 -3.98,-4.47 -2.20,-3.80 -0.42,-3.13 1.09,-2.05 2.62,-0.98 3.79,0.24 4.96,1.46 5.51,2.53 6.07,3.61 6.59,4.76 7.11,5.91 7.56,7.17 8.01,8.43 7.18,10.87 6.35,13.31 4.64,14.03 2.92,14.75 0.59,14.82 -1.73,14.89 -2.93,14.89 -4.13,14.89 -5.31,14.88 -6.48,14.87 -8.16,14.87 -9.83,14.87 -10.96,14.89 -12.09,14.91 -13.42,14.91 -14.76,14.92 -16.76,12.34 -18.75,9.76 -18.08,8.74 -17.40,7.72 -16.38,6.62 -15.37,5.51 -14.72,4.54 -14.08,3.57 -13.53,2.44 -12.98,1.30 -12.37,0.30 -11.77,-0.70 -10.87,-1.55 -9.98,-2.41 -9.07,-3.03 -8.17,-3.66 -6.88,-3.77 -5.59,-3.88 -4.50,-3.33 -3.42,-2.77 -2.50,-1.47 -1.57,-0.17 -0.89,0.81 -0.21,1.80 0.54,2.96 1.30,4.13 2.14,5.19 2.99,6.24 2.99,8.29 2.98,10.33 2.21,11.10 1.44,11.86 0.01,12.52 -1.41,13.18 -3.31,13.80 -5.21,14.43 -7.04,14.81 -8.87,15.19 -10.80,14.94 -12.73,14.70 -13.84,13.45 -14.95,12.20 -14.74,10.84 -14.54,9.48 -14.06,8.20 -13.57,6.93 -13.16,5.88 -12.74,4.84 -12.34,3.65 -11.93,2.46 -11.16,1.09 -10.38,-0.28 -9.11,-0.79 -7.83,-1.31 -6.68,-1.00 -5.53,-0.70 -4.70,0.21 -3.87,1.12 -3.18,2.70 -2.49,4.27 -2.25,5.71 -2.01,7.16 -1.96,8.32 -1.91,9.49 -2.82,11.22 -3.73,12.96 -5.25,13.31 -6.77,13.66 -7.90,13.66 -9.03,13.66 -9.72,13.67 -10.40,13.67 -10.84,13.62 -11.29,13.57 -11.70,13.41 -12.12,13.25 -12.49,13.00 -12.85,12.75 -13.15,12.41 -13.45,12.08 -13.65,11.69 -13.86,11.29 -13.97,10.86 -14.08,10.43 -14.08,9.98 -14.08,9.54 -13.97,9.10 -13.87,8.67 -13.66,8.28 -13.45,7.88 -13.16,7.55 -12.86,7.21 -12.50,6.96 -12.13,6.71 -11.71,6.55 -11.30,6.39 -10.86,6.34 -10.41,6.28 -9.28,5.79 -8.16,5.31 -7.11,5.12 -6.06,4.93 -3.96,5.42 -1.86,5.92 -1.04,7.21 -0.22,8.50 -0.24,9.59 -0.26,10.69 -0.28,12.09 -0.30,13.50 0.33,14.48 0.97,15.47 0.78,16.70 0.59,17.94 -0.32,18.85 -1.24,19.76 -3.01,20.54 -4.78,21.32 -6.07,21.69 -7.37,22.05 -9.01,22.41 -10.66,22.77 -12.83,23.36 -15.00,23.95 -15.48,24.18 -15.96,24.41 -16.48,24.47 -17.01,24.53 -17.52,24.42 -18.04,24.31 -18.50,24.05 -18.95,23.78 -19.30,23.38 -19.64,22.98 -19.85,22.49 -20.05,22.00 -20.08,21.47 -20.11,20.94 -19.98,20.43 -19.84,19.92 -19.55,19.48 -19.26,19.04 -18.84,18.72 -18.42,18.39 -17.92,18.22 -17.42,18.05 -16.89,18.04 -16.36,18.03 -15.86,18.20 -15.36,18.36 -14.93,18.68 -14.51,19.00 -14.21,19.43 -13.91,19.86 -13.76,20.37 -13.61,20.88 -13.64,21.41 -13.66,21.94 -13.85,22.43 -14.04,22.92 -14.38,23.33 -14.72,23.74 -15.17,24.01 -15.62,24.29 -16.14,24.41 -16.65,24.53 -17.18,24.48 -17.70,24.42 -18.19,24.21 -18.67,23.99 -19.06,23.63 -19.44,23.27 -19.70,22.80 -19.95,22.34 -20.04,21.82 -20.13,21.30 -20.05,20.77 -19.97,20.25 -19.72,19.78 -19.48,19.31 -19.10,18.94 -18.72,18.58 -18.72,18.58 -18.72,18.58 -15.61,17.52 -12.51,16.46 -11.04,15.91 -9.57,15.36 -7.54,14.53 -5.51,13.71 -5.72,15.04 -5.93,16.37 -5.22,17.59 -4.51,18.81 -5.47,18.02 -6.42,17.23 -6.91,16.08 -7.39,14.92 -7.49,13.75 -7.59,12.58 -6.82,11.64 -6.05,10.70 -4.99,11.29 -3.92,11.88 -5.00,12.10 -6.07,12.31 -7.12,12.66 -8.17,13.01 -9.28,13.34 -10.40,13.67 -10.84,13.62 -11.29,13.57 -11.70,13.41 -12.12,13.25 -12.49,13.00 -12.85,12.75 -13.15,12.41 -13.45,12.08 -13.65,11.69 -13.86,11.29 -13.97,10.86 -14.08,10.43 -14.08,9.98 -14.08,9.54 -13.97,9.10 -13.87,8.67 -13.66,8.28 -13.45,7.88 -13.16,7.55 -12.86,7.21 -12.50,6.96 -12.13,6.71 -11.71,6.55 -11.30,6.39 -10.86,6.34 -10.41,6.28 -10.15,6.29 -9.88,6.29 -8.80,6.57 -7.73,6.84 -8.50,8.03 -9.27,9.22 -9.36,7.90 -9.45,6.59 -10.01,5.39 -10.56,4.19 -8.93,4.96 -7.30,5.72 -6.07,5.02 -4.85,4.32 -5.28,5.39 -5.70,6.45 -6.11,7.50 -6.51,8.54 -7.46,9.28 -8.42,10.02 -9.65,9.23 -10.89,8.44 -9.78,8.24 -8.67,8.05 -7.23,7.61 -5.78,7.18 -4.18,6.51 -2.58,5.84 -3.00,7.13 -3.43,8.42 -2.88,9.57 -2.33,10.71 -3.37,9.55 -4.40,8.38 -5.25,7.14 -6.10,5.90 -6.60,4.31 -7.10,2.72 -5.67,2.43 -4.25,2.14 -5.24,2.85 -6.24,3.56 -6.84,4.65 -7.43,5.75 -8.26,7.18 -9.09,8.60 -10.09,9.91 -11.10,11.22 -12.13,12.14 -13.16,13.07 -13.96,10.56 -14.76,8.05 -13.43,8.06 -12.10,8.06 -10.99,8.08 -9.87,8.09 -8.25,8.06 -6.62,8.04 -5.54,7.98 -4.45,7.92 -2.19,7.72 0.07,7.53 1.45,7.73 2.82,7.93 1.80,9.07 0.77,10.22 0.33,9.16 -0.11,8.10 -0.50,7.08 -0.90,6.06 -1.86,5.00 -2.82,3.94 -3.94,3.49 -5.05,3.03 -6.21,2.58 -7.36,2.13 -8.74,1.53 -10.12,0.93 -8.56,0.48 -7.00,0.03 -7.42,1.15 -7.85,2.28 -8.43,3.64 -9.00,5.01 -9.49,5.96 -9.98,6.90 -10.21,7.27 -10.44,7.63 -10.75,7.92 -11.06,8.21 -11.43,8.43 -11.81,8.64 -12.22,8.75 -12.63,8.87 -13.06,8.88 -13.49,8.90 -13.91,8.81 -14.33,8.72 -14.71,8.53 -15.10,8.35 -15.43,8.07 -15.76,7.80 -16.01,7.46 -16.27,7.11 -16.43,6.72 -16.60,6.32 -16.66,5.90 -16.73,5.47 -16.69,5.05 -16.65,4.62 -16.51,4.22 -16.37,3.81 -16.32,3.67 -16.26,3.52 -15.59,2.35 -14.92,1.18 -14.09,-0.03 -13.27,-1.25 -12.95,-1.52 -12.63,-1.79 -12.26,-1.97 -11.88,-2.16 -11.48,-2.25 -11.07,-2.34 -10.65,-2.33 -10.23,-2.31 -9.83,-2.20 -9.43,-2.09 -9.06,-1.89 -8.70,-1.69 -8.39,-1.40 -8.09,-1.12 -7.86,-0.77 -7.63,-0.42 -7.49,-0.02 -7.35,0.36 -7.31,0.78 -7.27,1.19 -7.33,1.61 -7.40,2.02 -7.55,2.41 -7.71,2.80 -7.96,3.13 -8.20,3.47 -8.30,3.69 -8.39,3.90 -9.02,5.03 -9.66,6.16 -10.59,7.69 -11.52,9.23 -12.61,10.64 -13.70,12.04 -14.89,13.29 -16.08,14.53 -17.31,15.52 -18.54,16.51 -19.63,16.72 -20.73,16.92 -21.89,16.37 -23.04,15.82 -23.55,14.68 -24.06,13.54 -23.83,12.21 -23.60,10.88 -23.00,9.47 -22.40,8.06 -21.46,6.27 -20.52,4.48 -19.72,2.95 -18.92,1.41 -18.09,0.12 -17.25,-1.16 -16.97,-1.45 -16.68,-1.74 -16.33,-1.95 -15.97,-2.17 -15.58,-2.29 -15.19,-2.41 -14.78,-2.44 -14.37,-2.47 -13.97,-2.39 -13.57,-2.32 -13.19,-2.15 -12.82,-1.99 -12.49,-1.73 -12.17,-1.48 -11.91,-1.16 -11.66,-0.84 -11.49,-0.46 -11.32,-0.09 -11.25,0.30 -11.17,0.71 -11.19,1.12 -11.22,1.53 -11.34,1.92 -11.46,2.31 -11.67,2.66 -11.88,3.02 -12.24,3.89 -12.60,4.77 -12.74,6.18 -12.88,7.60 -12.67,9.13 -12.47,10.66 -13.38,11.26 -14.30,11.87 -15.35,11.03 -16.40,10.19 -15.29,10.18 -14.18,10.17 -12.72,10.27 -11.26,10.37 -9.91,10.39 -8.55,10.42 -6.91,10.39 -5.26,10.37 -3.51,10.31 -1.75,10.25 0.15,10.13 2.06,10.01 3.14,10.07 4.22,10.12 4.54,10.17 4.85,10.22 5.14,10.34 5.43,10.46 5.68,10.64 5.94,10.83 6.14,11.07 6.34,11.32 6.48,11.60 6.62,11.88 6.68,12.19 6.75,12.50 6.74,12.81 6.73,13.13 6.65,13.43 6.56,13.74 6.41,14.01 6.25,14.29 6.04,14.52 5.82,14.75 5.56,14.92 5.29,15.09 4.99,15.19 4.69,15.29 4.38,15.32 4.07,15.35 3.94,15.33 3.80,15.31 2.63,15.17 1.45,15.04 0.28,14.93 -0.89,14.82 -2.25,14.74 -3.62,14.65 -5.35,14.69 -7.07,14.74 -8.43,14.72 -9.78,14.71 -11.75,14.86 -13.71,15.01 -14.91,15.05 -16.12,15.09 -17.45,15.16 -18.79,15.23 -19.06,15.17 -19.34,15.12 -19.59,15.00 -19.84,14.89 -20.06,14.71 -20.27,14.54 -20.44,14.32 -20.61,14.10 -20.72,13.84 -20.83,13.59 -20.88,13.31 -20.92,13.04 -20.90,12.76 -20.88,12.48 -20.80,12.22 -20.71,11.96 -20.56,11.72 -20.42,11.48 -20.22,11.29 -20.02,11.10 -19.78,10.96 -19.54,10.81 -19.27,10.74 -19.01,10.66 -18.73,10.64 -18.45,10.63 -18.20,10.72 -17.95,10.81 -16.78,11.20 -15.60,11.59 -14.45,11.92 -13.29,12.25 -11.29,12.54 -9.29,12.83 -6.77,13.18 -4.24,13.52 -1.41,13.77 1.42,14.01 3.31,14.08 5.19,14.15 6.61,14.32 8.03,14.50 8.28,14.65 8.53,14.81 8.73,15.03 8.93,15.24 9.08,15.50 9.23,15.75 9.31,16.04 9.39,16.32 9.41,16.62 9.42,16.91 9.36,17.20 9.30,17.49 9.17,17.76 9.05,18.03 8.86,18.25 8.67,18.48 8.43,18.66 8.20,18.84 7.93,18.95 7.65,19.07 7.36,19.12 7.07,19.17 6.77,19.14 6.48,19.12 6.20,19.02 5.92,18.93 5.46,18.66 5.01,18.40 3.68,18.02 2.35,17.64 1.09,17.55 -0.17,17.46 -2.54,17.53 -4.91,17.60 -7.43,17.69 -9.96,17.79 -11.98,17.88 -14.00,17.97 -15.63,17.84 -17.26,17.71 -17.49,17.68 -17.72,17.65 -17.94,17.57 -18.16,17.49 -18.36,17.36 -18.55,17.22 -18.71,17.05 -18.86,16.87 -18.97,16.66 -19.08,16.46 -19.14,16.23 -19.19,16.00 -19.19,15.76 -19.20,15.53 -19.14,15.30 -19.08,15.07 -18.97,14.86 -18.87,14.66 -18.71,14.48 -18.55,14.30 -18.36,14.17 -18.17,14.04 -17.95,13.95 -17.73,13.87 -17.50,13.84 -17.26,13.81 -16.68,13.90 -16.09,13.99 -14.87,14.09 -13.64,14.20 -11.17,14.15 -8.71,14.10 -5.89,14.02 -3.07,13.95 -0.18,13.84 2.69,13.73 5.10,13.56 7.51,13.40 9.63,13.23 11.74,13.05 11.98,13.09 12.22,13.13 12.45,13.22 12.67,13.31 12.87,13.45 13.07,13.59 13.22,13.78 13.38,13.97 13.49,14.18 13.59,14.40 13.65,14.64 13.70,14.88 13.69,15.12 13.69,15.36 13.62,15.60 13.56,15.83 13.44,16.04 13.32,16.26 13.16,16.43 12.99,16.61 12.79,16.74 12.58,16.88 12.35,16.96 12.13,17.04 11.88,17.06 11.64,17.08 10.84,16.91 10.03,16.73 8.72,16.60 7.41,16.47 5.27,16.43 3.13,16.40 0.44,16.36 -2.25,16.32 -5.52,16.42 -8.79,16.51 -11.38,16.63 -13.98,16.76 -16.08,16.91 -18.19,17.07 -19.80,16.97 -21.41,16.87 -21.70,16.82 -21.98,16.77 -22.24,16.66 -22.50,16.54 -22.72,16.37 -22.95,16.20 -23.13,15.97 -23.31,15.75 -23.43,15.49 -23.55,15.23 -23.60,14.95 -23.65,14.67 -23.64,14.39 -23.62,14.10 -23.54,13.83 -23.46,13.55 -23.31,13.31 -23.17,13.06 -22.97,12.86 -22.77,12.66 -22.52,12.51 -22.28,12.36 -22.01,12.27 -21.74,12.18 -21.45,12.16 -21.17,12.14 -20.56,12.28 -19.96,12.41 -18.75,12.78 -17.55,13.15 -16.16,13.51 -14.76,13.86 -12.54,14.22 -10.32,14.57 -8.22,14.83 -6.11,15.10 -4.12,15.36 -2.14,15.62 -0.35,15.85 1.43,16.08 3.76,16.62 6.09,17.17 5.00,18.19 3.91,19.21 2.76,19.11 1.62,19.00 -0.39,19.03 -2.40,19.05 -5.19,19.13 -7.97,19.20 -11.36,19.32 -14.74,19.43 -16.90,19.62 -19.06,19.81 -20.54,19.89 -22.02,19.96 -22.25,19.93 -22.49,19.90 -22.70,19.82 -22.92,19.74 -23.11,19.60 -23.30,19.47 -23.46,19.29 -23.61,19.11 -23.72,18.91 -23.82,18.70 -23.88,18.47 -23.93,18.25 -23.93,18.01 -23.93,17.78 -23.87,17.55 -23.81,17.33 -23.70,17.12 -23.59,16.91 -23.43,16.74 -23.28,16.57 -23.08,16.44 -22.89,16.31 -22.67,16.23 -22.45,16.14 -22.22,16.12 -21.99,16.09 -21.05,16.23 -20.11,16.38 -18.28,16.42 -16.46,16.46 -13.97,16.44 -11.49,16.42 -8.59,16.35 -5.70,16.27 -2.80,16.17 0.09,16.07 2.07,15.98 4.05,15.90 5.49,16.04 6.92,16.17 7.17,16.19 7.41,16.22 7.65,16.29 7.88,16.37 8.09,16.51 8.30,16.64 8.47,16.82 8.64,17.00 8.76,17.21 8.88,17.43 8.95,17.66 9.02,17.90 9.03,18.15 9.03,18.39 8.98,18.63 8.93,18.88 8.83,19.10 8.72,19.32 8.56,19.51 8.41,19.70 8.21,19.85 8.01,20.00 7.78,20.09 7.55,20.19 7.31,20.23 7.07,20.26 6.16,20.21 5.25,20.15 3.85,20.12 2.44,20.09 0.47,20.14 -1.49,20.20 -4.03,20.36 -6.56,20.52 -9.47,20.76 -12.37,21.00 -14.83,21.32 -17.30,21.63 -19.63,21.75 -21.95,21.88 -22.18,21.79 -22.40,21.71 -22.60,21.58 -22.80,21.45 -22.96,21.27 -23.12,21.10 -23.24,20.89 -23.35,20.68 -23.41,20.45 -23.47,20.22 -23.48,19.98 -23.48,19.74 -23.43,19.51 -23.38,19.27 -23.27,19.06 -23.16,18.85 -23.01,18.67 -22.85,18.49 -22.66,18.35 -22.46,18.21 -22.24,18.12 -22.02,18.03 -21.78,18.00 -21.55,17.96 -21.31,17.99 -21.07,18.01 -20.33,18.25 -19.59,18.48 -18.19,18.67 -16.79,18.86 -14.30,18.96 -11.82,19.07 -8.71,19.18 -5.59,19.30 -2.08,19.36 1.42,19.43 4.32,19.41 7.22,19.38 9.80,19.29 12.38,19.20 12.64,19.26 12.90,19.33 13.13,19.45 13.37,19.58 13.57,19.76 13.77,19.94 13.92,20.16 14.07,20.38 14.16,20.63 14.25,20.88 14.28,21.14 14.31,21.41 14.28,21.67 14.25,21.94 14.15,22.19 14.05,22.44 13.90,22.66 13.75,22.87 13.55,23.05 13.35,23.23 13.11,23.35 12.87,23.47 12.61,23.53 12.35,23.59 12.08,23.59 11.82,23.59 11.74,23.55 11.66,23.50 10.59,23.26 9.51,23.02 8.01,22.78 6.51,22.53 4.53,22.51 2.54,22.48 0.08,22.64 -2.37,22.79 -5.29,23.09 -8.22,23.40 -11.28,23.94 -14.34,24.48 -16.73,24.63 -19.11,24.78 -19.19,22.41 -19.27,20.03 -17.65,20.06 -16.04,20.08 -14.86,20.04 -13.68,20.00 -12.33,20.01 -10.97,20.01 -9.90,20.02 -8.83,20.04 -7.56,20.05 -6.30,20.07 -5.19,20.00 -4.08,19.93 -2.49,19.81 -0.89,19.69 1.17,19.66 3.23,19.62 4.36,19.59 5.48,19.56 6.68,19.52 7.88,19.47 9.60,19.99 11.31,20.50 10.79,22.44 10.26,24.37 9.54,23.55 8.81,22.72 7.68,21.74 6.55,20.76 5.76,20.01 4.98,19.26 3.88,17.56 2.79,15.86 2.54,14.01 2.29,12.16 2.56,11.01 2.83,9.86 4.00,8.73 5.17,7.60 6.58,7.52 8.00,7.44 9.30,8.11 10.60,8.79 11.60,9.32 12.60,9.85 13.80,10.46 15.00,11.08 16.15,11.74 17.30,12.40 18.76,13.83 20.22,15.27 20.75,17.05 21.29,18.82 21.07,19.99 20.86,21.17 20.09,22.10 19.31,23.02 18.19,23.43 17.08,23.84 15.30,23.55 13.52,23.27 11.82,22.04 10.11,20.82 9.45,19.78 8.79,18.75 8.51,17.46 8.22,16.18 8.54,14.40 8.87,12.62 9.46,11.48 10.04,10.33 11.01,9.52 11.98,8.71 13.18,8.69 14.39,8.67 15.90,9.74 17.40,10.80 17.77,11.81 18.15,12.82 18.42,14.69 18.70,16.57 18.28,18.18 17.86,19.78 17.22,20.77 16.57,21.77 15.55,22.46 14.53,23.14 12.89,23.23 11.25,23.32 10.26,22.92 9.27,22.51 8.09,20.77 6.90,19.03 6.98,17.20 7.07,15.37 7.87,13.66 8.67,11.95 9.78,11.17 10.89,10.38 11.95,10.51 13.01,10.64 14.49,12.37 15.98,14.10 15.60,15.43 15.23,16.76 13.96,17.92 12.70,19.08 11.68,19.60 10.66,20.11 9.30,20.28 7.93,20.45 6.98,19.78 6.03,19.11 5.60,17.08 5.16,15.04 6.20,13.80 7.23,12.57 8.54,11.59 9.84,10.61 11.41,10.12 12.97,9.63 15.17,11.11 17.37,12.59 17.47,13.79 17.56,14.98 17.52,16.21 17.47,17.44 17.23,18.76 16.99,20.09 16.90,20.53 16.81,20.97 16.61,21.37 16.42,21.77 16.14,22.12 15.85,22.46 15.50,22.73 15.14,23.00 14.73,23.18 14.31,23.35 13.87,23.42 13.43,23.49 12.99,23.45 12.54,23.42 12.12,23.27 11.69,23.13 11.31,22.89 10.94,22.65 10.63,22.33 10.32,22.01 10.10,21.62 9.87,21.23 9.75,20.80 9.63,20.37 9.61,19.92 9.59,19.48 9.61,19.22 9.63,18.97 9.78,17.71 9.92,16.46 10.57,14.90 11.22,13.34 11.52,13.00 11.81,12.66 12.17,12.40 12.54,12.14 12.95,11.97 13.37,11.80 13.81,11.74 14.26,11.68 14.70,11.72 15.15,11.77 15.57,11.92 16.00,12.07 16.37,12.32 16.74,12.57 17.05,12.90 17.35,13.23 17.57,13.62 17.78,14.02 17.90,14.45 18.01,14.88 18.02,15.33 18.03,15.78 17.93,16.22 17.83,16.66 17.63,17.06 17.43,17.46 16.90,18.20 16.38,18.95 15.29,19.44 14.19,19.93 12.63,19.90 11.06,19.86 9.24,19.07 7.42,18.29 6.24,17.15 5.06,16.00 4.12,14.31 3.17,12.62 3.20,10.94 3.23,9.27 4.25,7.83 5.26,6.39 7.00,5.95 8.75,5.50 9.91,5.72 11.08,5.95 12.28,6.22 13.49,6.50 14.58,6.64 15.67,6.79 16.75,6.96 17.82,7.14 19.23,7.80 20.64,8.46 21.39,9.39 22.14,10.33 22.37,11.68 22.60,13.03 22.56,14.25 22.53,15.47 22.40,16.86 22.27,18.24 22.19,19.57 22.12,20.89 21.87,22.12 21.62,23.35 20.99,24.40 20.35,25.45 19.34,26.14 18.33,26.84 17.25,27.20 16.18,27.57 15.07,27.78 13.97,28.00 12.81,28.08 11.65,28.16 10.47,28.12 9.29,28.08 7.73,28.07 6.17,28.07 5.02,28.10 3.87,28.13 2.79,28.15 1.71,28.18 -0.17,28.17 -2.06,28.17 -3.42,28.29 -4.79,28.41 -6.33,28.63 -7.86,28.85 -9.48,28.95 -11.10,29.06 -12.64,29.01 -14.18,28.96 -15.30,28.94 -16.43,28.92 -17.66,28.88 -18.89,28.83 -20.78,28.86 -22.66,28.88 -24.78,28.53 -26.90,28.18 -27.31,28.07 -27.71,27.95 -28.07,27.74 -28.44,27.53 -28.74,27.24 -29.04,26.95 -29.27,26.60 -29.49,26.25 -29.62,25.85 -29.76,25.45 -29.79,25.04 -29.83,24.62 -29.76,24.21 -29.70,23.79 -29.53,23.41 -29.37,23.02 -29.12,22.69 -28.87,22.35 -28.54,22.08 -28.22,21.82 -27.84,21.64 -27.46,21.46 -27.05,21.37 -26.64,21.29 -26.23,21.30 -25.81,21.32 -25.12,21.41 -24.43,21.51 -23.13,21.53 -21.84,21.56 -20.62,21.56 -19.41,21.55 -18.24,21.53 -17.06,21.50 -15.90,21.46 -14.73,21.43 -13.53,21.37 -12.32,21.31 -11.31,21.76 -10.30,22.22 -10.58,23.40 -10.85,24.57 -10.70,25.64 -10.56,26.71 -11.99,26.65 -13.43,26.60 -14.85,26.67 -16.28,26.75 -17.98,26.85 -19.68,26.94 -20.86,26.92 -22.04,26.91 -23.49,26.86 -24.94,26.81 -26.41,26.63 -27.89,26.45 -28.96,26.20 -30.04,25.94 -32.10,24.85 -34.15,23.77 -34.72,21.53 -35.29,19.28 -34.59,17.55 -33.90,15.82 -32.54,14.84 -31.17,13.87 -28.55,15.48 -25.92,17.08 -26.39,18.27 -26.87,19.45 -24.82,19.40 -22.77,19.34 -21.60,19.22 -20.44,19.10 -20.05,19.05 -19.66,19.00 -19.27,19.05 -18.88,19.09 -18.52,19.23 -18.15,19.37 -17.83,19.59 -17.51,19.81 -17.25,20.11 -16.99,20.40 -16.81,20.75 -16.62,21.09 -16.53,21.47 -16.43,21.85 -16.43,22.24 -16.43,22.63 -16.53,23.01 -16.62,23.39 -16.80,23.74 -16.98,24.09 -17.24,24.38 -17.50,24.67 -17.82,24.90 -18.14,25.12 -18.51,25.26 -18.88,25.40 -19.61,25.56 -20.34,25.72 -21.39,25.92 -22.45,26.13 -23.65,26.35 -24.84,26.57 -26.01,26.78 -27.18,27.00 -28.27,27.20 -29.36,27.40 -30.69,27.24 -32.02,27.08 -32.78,24.28 -33.54,21.48 -33.12,20.27 -32.71,19.06 -32.11,18.16 -31.51,17.25 -30.42,16.39 -29.33,15.52 -27.73,14.71 -26.12,13.90 -24.31,14.27 -22.50,14.63 -21.82,15.54 -21.14,16.45 -20.83,17.73 -20.52,19.02 -21.52,18.53 -22.52,18.04 -21.57,17.48 -20.62,16.92 -19.23,15.80 -17.85,14.69 -16.28,13.57 -14.70,12.45 -14.47,12.35 -14.23,12.26 -13.98,12.22 -13.73,12.19 -13.48,12.21 -13.23,12.24 -12.99,12.32 -12.75,12.41 -12.54,12.55 -12.33,12.68 -12.16,12.87 -11.99,13.06 -11.87,13.28 -11.75,13.50 -11.68,13.74 -11.61,13.99 -11.61,14.24 -11.60,14.49 -11.66,14.74 -11.71,14.98 -11.83,15.21 -11.94,15.44 -12.10,15.63 -12.27,15.82 -12.47,15.97 -12.68,16.12 -13.17,16.33 -13.67,16.55 -14.91,17.15 -16.15,17.75 -18.13,18.86 -20.11,19.96 -22.35,21.17 -24.58,22.38 -26.70,23.69 -28.82,24.99 -30.39,25.91 -31.95,26.83 -32.22,27.00 -32.48,27.16 -32.78,27.25 -33.08,27.35 -33.39,27.37 -33.70,27.39 -34.00,27.33 -34.31,27.28 -34.60,27.15 -34.88,27.03 -35.13,26.84 -35.37,26.65 -35.57,26.40 -35.76,26.16 -35.89,25.87 -36.02,25.59 -36.08,25.28 -36.14,24.98 -36.12,24.67 -36.10,24.36 -36.01,24.06 -35.92,23.76 -35.76,23.49 -35.60,23.22 -35.38,23.00 -35.16,22.78 -34.66,22.47 -34.16,22.17 -33.13,21.37 -32.09,20.58 -30.61,19.16 -29.14,17.74 -27.20,15.91 -25.27,14.08 -24.16,12.67 -23.04,11.26 -22.65,11.18 -22.27,11.09 -21.88,11.11 -21.49,11.12 -21.11,11.22 -20.73,11.33 -20.39,11.52 -20.05,11.71 -19.77,11.98 -19.48,12.25 -19.27,12.58 -19.06,12.91 -18.93,13.28 -18.80,13.65 -18.77,14.04 -18.73,14.42 -18.79,14.81 -18.85,15.20 -19.00,15.56 -19.15,15.92 -19.38,16.24 -19.61,16.55 -19.91,16.80 -20.21,17.06 -20.56,17.23 -20.92,17.40 -22.02,17.63 -23.13,17.85 -24.20,18.21 -25.26,18.58 -27.03,18.87 -28.80,19.16 -30.11,16.51 -31.41,13.86 -30.66,12.94 -29.91,12.02 -28.65,14.27 -27.40,16.51 -28.60,17.07 -29.80,17.63 -30.89,16.02 -31.99,14.40 -30.69,13.89 -29.40,13.37 -27.88,12.64 -26.36,11.91 -24.98,11.18 -23.61,10.45 -23.31,10.28 -23.00,10.10 -22.67,10.01 -22.33,9.91 -21.98,9.90 -21.63,9.89 -21.29,9.96 -20.95,10.03 -20.63,10.18 -20.32,10.33 -20.05,10.56 -19.78,10.78 -19.57,11.06 -19.36,11.34 -19.23,11.66 -19.09,11.98 -19.04,12.33 -18.99,12.67 -19.02,13.02 -19.05,13.37 -19.16,13.70 -19.27,14.03 -19.46,14.33 -19.65,14.62 -19.90,14.86 -20.15,15.10 -21.02,15.70 -21.88,16.30 -23.02,17.17 -24.16,18.04 -25.35,18.87 -26.54,19.70 -27.95,20.12 -29.35,20.53 -29.50,20.84 -29.66,21.15 -29.88,21.42 -30.11,21.68 -30.39,21.88 -30.67,22.09 -30.99,22.22 -31.32,22.35 -31.66,22.40 -32.01,22.45 -32.35,22.41 -32.70,22.38 -33.03,22.26 -33.35,22.14 -33.64,21.95 -33.93,21.76 -34.17,21.51 -34.41,21.25 -34.57,20.95 -34.74,20.64 -34.83,20.30 -34.92,19.97 -34.93,19.62 -34.94,19.27 -34.86,18.93 -34.79,18.59 -34.32,17.38 -33.85,16.17 -33.38,14.93 -32.92,13.68 -32.47,12.43 -32.02,11.17 -31.54,9.88 -31.07,8.59 -30.92,8.29 -30.77,7.99 -30.56,7.74 -30.34,7.48 -30.07,7.29 -29.81,7.09 -29.50,6.97 -29.19,6.84 -28.86,6.79 -28.53,6.75 -28.20,6.78 -27.87,6.81 -27.56,6.92 -27.24,7.03 -26.96,7.21 -26.69,7.40 -26.46,7.64 -26.23,7.88 -26.07,8.17 -25.91,8.46 -25.82,8.78 -25.74,9.11 -25.73,9.44 -25.72,9.77 -25.79,10.09 -25.86,10.42 -26.30,11.44 -26.74,12.46 -27.62,13.78 -28.50,15.10 -28.99,14.08 -29.47,13.06 -28.19,12.11 -26.92,11.17 -25.48,9.87 -24.05,8.56 -22.84,7.37 -21.62,6.17 -20.49,5.05 -19.35,3.93 -17.35,3.31 -15.35,2.69 -14.42,4.41 -13.49,6.13 -13.67,7.36 -13.85,8.59 -14.15,10.20 -14.45,11.80 -14.90,13.68 -15.35,15.57 -15.93,17.41 -16.51,19.24 -17.80,21.35 -19.08,23.46 -19.13,23.75 -19.19,24.03 -19.31,24.30 -19.43,24.56 -19.61,24.79 -19.80,25.02 -20.03,25.19 -20.26,25.37 -20.52,25.49 -20.79,25.60 -21.08,25.65 -21.36,25.70 -21.65,25.68 -21.94,25.66 -22.22,25.57 -22.50,25.49 -22.74,25.33 -22.99,25.18 -23.20,24.97 -23.40,24.76 -23.55,24.51 -23.70,24.26 -23.78,23.99 -23.86,23.71 -23.88,23.42 -23.89,23.13 -23.88,22.22 -23.86,21.31 -23.65,19.66 -23.45,18.00 -23.19,15.84 -22.94,13.69 -22.56,11.48 -22.19,9.27 -21.74,7.35 -21.29,5.44 -20.58,3.33 -19.88,1.23 -19.63,0.91 -19.38,0.59 -19.06,0.33 -18.75,0.08 -18.38,-0.08 -18.01,-0.25 -17.61,-0.33 -17.21,-0.41 -16.80,-0.39 -16.40,-0.37 -16.01,-0.25 -15.62,-0.13 -15.27,0.07 -14.92,0.27 -14.63,0.56 -14.34,0.84 -14.12,1.19 -13.91,1.53 -13.79,1.92 -13.66,2.31 -13.63,2.71 -13.60,3.12 -13.67,3.52 -13.74,3.92 -13.91,4.29 -14.07,4.67 -14.62,5.37 -15.17,6.08 -16.43,7.50 -17.68,8.91 -18.89,9.71 -20.09,10.51 -19.06,9.47 -18.03,8.43 -18.19,8.79 -18.36,9.15 -18.61,9.46 -18.86,9.77 -19.17,10.02 -19.49,10.26 -19.85,10.42 -20.22,10.58 -20.61,10.65 -21.00,10.72 -21.40,10.69 -21.80,10.66 -22.18,10.54 -22.56,10.42 -22.90,10.21 -23.24,10.00 -23.52,9.71 -23.80,9.43 -24.00,9.09 -24.20,8.74 -24.32,8.36 -24.43,7.98 -24.45,7.58 -24.47,7.19 -24.40,6.79 -24.32,6.40 -24.32,6.31 -24.31,6.22 -23.61,4.91 -22.91,3.61 -21.74,2.63 -20.57,1.64 -19.18,0.80 -17.78,-0.03 -17.58,-0.34 -17.38,-0.65 -17.11,-0.90 -16.84,-1.15 -16.51,-1.33 -16.19,-1.51 -15.83,-1.61 -15.48,-1.70 -15.11,-1.71 -14.74,-1.72 -14.38,-1.64 -14.02,-1.57 -13.69,-1.40 -13.36,-1.24 -13.07,-1.00 -12.79,-0.76 -12.57,-0.47 -12.36,-0.17 -12.22,0.17 -12.08,0.51 -12.02,0.87 -11.97,1.24 -12.00,1.60 -12.04,1.97 -12.16,2.32 -12.28,2.67 -12.29,2.73 -12.30,2.79 -12.98,3.99 -13.67,5.19 -14.75,6.52 -15.84,7.86 -16.00,8.15 -16.16,8.45 -16.38,8.71 -16.61,8.96 -16.89,9.15 -17.17,9.34 -17.49,9.46 -17.80,9.58 -18.14,9.62 -18.48,9.66 -18.81,9.62 -19.15,9.57 -19.47,9.45 -19.78,9.33 -20.06,9.14 -20.34,8.94 -20.56,8.69 -20.79,8.43 -20.94,8.13 -21.10,7.83 -21.18,7.50 -21.26,7.17 -21.26,6.83 -21.26,6.50 -21.17,6.17 -21.09,5.84 -21.03,5.68 -20.96,5.53 -20.26,4.48 -19.55,3.42 -18.38,2.38 -17.22,1.33 -16.13,0.36 -15.04,-0.60 -13.83,-1.67 -12.63,-2.75 -12.37,-2.91 -12.12,-3.08 -11.83,-3.18 -11.55,-3.29 -11.25,-3.32 -10.94,-3.35 -10.64,-3.31 -10.34,-3.26 -10.06,-3.15 -9.78,-3.04 -9.53,-2.86 -9.28,-2.68 -9.09,-2.45 -8.89,-2.22 -8.75,-1.95 -8.62,-1.68 -8.55,-1.38 -8.48,-1.08 -8.49,-0.78 -8.49,-0.48 -8.57,-0.18 -8.65,0.10 -8.80,0.37 -8.94,0.63 -9.15,0.86 -9.36,1.08 -9.36,1.08 L -9.36,1.08 Z"></path></g><g transform="translate(38.92267602806919 40.30028912005403) rotate(0 -12.445008360135716 -0.852756892689257)" stroke="none"><path d="M-6.6 -0.48 C-8.92 -0.62, -20.93 -1.25, -20.56 -1.36 C-20.18 -1.46, -7.04 -1.15, -4.33 -1.1" stroke="none" stroke-width="0" fill="#4897e9" fill-rule="evenodd"></path><path fill="#4897e9" d="M -6.20,1.87 Q -6.20,1.87 -6.63,1.99 -7.05,2.11 -8.61,2.07 -10.17,2.02 -11.23,2.07 -12.30,2.12 -13.44,2.14 -14.58,2.16 -15.75,2.22 -16.91,2.28 -18.45,2.16 -19.98,2.03 -20.76,1.97 -21.53,1.92 -21.91,1.73 -22.28,1.55 -22.60,1.29 -22.92,1.02 -23.16,0.69 -23.41,0.35 -23.57,-0.02 -23.73,-0.40 -23.79,-0.81 -23.85,-1.22 -23.81,-1.64 -23.78,-2.05 -23.64,-2.44 -23.51,-2.83 -23.28,-3.18 -23.06,-3.53 -22.75,-3.81 -22.45,-4.10 -22.09,-4.30 -21.73,-4.51 -21.33,-4.62 -20.93,-4.73 -20.52,-4.74 -20.10,-4.76 -19.70,-4.67 -19.29,-4.58 -18.20,-4.78 -17.12,-4.99 -16.03,-5.01 -14.94,-5.04 -13.40,-4.85 -11.85,-4.67 -10.66,-4.72 -9.46,-4.77 -6.92,-4.79 -4.38,-4.81 -3.79,-4.71 -3.20,-4.61 -2.67,-4.33 -2.14,-4.05 -1.73,-3.62 -1.31,-3.18 -1.06,-2.64 -0.81,-2.09 -0.75,-1.49 -0.68,-0.90 -0.81,-0.31 -0.94,0.26 -1.25,0.78 -1.56,1.29 -2.02,1.68 -2.47,2.07 -3.03,2.29 -3.59,2.51 -4.19,2.54 -4.79,2.58 -5.36,2.42 -5.94,2.26 -6.44,1.92 -6.93,1.58 -7.30,1.10 -7.66,0.63 -7.85,0.06 -8.04,-0.50 -8.04,-1.10 -8.04,-1.70 -7.85,-2.27 -7.66,-2.84 -7.30,-3.31 -6.93,-3.79 -6.44,-4.13 -5.94,-4.46 -5.36,-4.63 -4.78,-4.79 -4.19,-4.75 -3.59,-4.72 -3.03,-4.50 -2.47,-4.28 -2.01,-3.89 -1.56,-3.50 -1.25,-2.99 -0.94,-2.47 -0.81,-1.89 -0.68,-1.30 -0.75,-0.70 -0.81,-0.11 -1.06,0.43 -1.32,0.97 -1.73,1.41 -2.14,1.84 -2.67,2.12 -3.20,2.41 -3.79,2.50 -4.39,2.60 -4.38,2.60 -4.38,2.60 -6.20,2.59 -8.02,2.59 -9.17,2.54 -10.31,2.50 -11.40,2.38 -12.49,2.26 -13.72,2.17 -14.94,2.07 -16.02,2.05 -17.09,2.03 -18.21,2.01 -19.33,1.98 -20.43,1.95 -21.53,1.92 -21.91,1.73 -22.28,1.55 -22.60,1.29 -22.92,1.02 -23.16,0.69 -23.41,0.35 -23.57,-0.02 -23.73,-0.40 -23.79,-0.81 -23.85,-1.22 -23.81,-1.64 -23.78,-2.05 -23.64,-2.44 -23.51,-2.83 -23.28,-3.18 -23.06,-3.53 -22.75,-3.81 -22.45,-4.10 -22.09,-4.30 -21.73,-4.51 -21.33,-4.62 -20.93,-4.73 -20.52,-4.74 -20.10,-4.76 -19.70,-4.67 -19.29,-4.58 -19.21,-4.53 -19.14,-4.48 -18.02,-4.36 -16.91,-4.24 -15.74,-4.18 -14.57,-4.11 -13.49,-3.97 -12.41,-3.83 -11.26,-3.67 -10.10,-3.51 -8.99,-3.14 -7.87,-2.77 -7.43,-2.80 -6.99,-2.82 -6.70,-2.84 -6.41,-2.85 -6.13,-2.79 -5.85,-2.74 -5.59,-2.62 -5.33,-2.49 -5.10,-2.31 -4.88,-2.13 -4.70,-1.90 -4.53,-1.67 -4.42,-1.41 -4.30,-1.14 -4.26,-0.86 -4.21,-0.58 -4.23,-0.29 -4.25,-0.00 -4.34,0.26 -4.43,0.53 -4.59,0.78 -4.74,1.02 -4.94,1.22 -5.15,1.42 -5.40,1.57 -5.65,1.71 -5.92,1.79 -6.20,1.87 -6.20,1.87 L -6.20,1.87 Z"></path></g><g stroke-linecap="round" transform="translate(15.537988389631437 33.17008078203392) rotate(0 21.584992542716122 9.3482924303445)"><path d="M0 0 C12.7 0, 25.4 0, 43.17 0 M0 0 C8.65 0, 17.3 0, 43.17 0 M43.17 0 C43.17 4.54, 43.17 9.09, 43.17 18.7 M43.17 0 C43.17 5.94, 43.17 11.87, 43.17 18.7 M43.17 18.7 C31.64 18.7, 20.11 18.7, 0 18.7 M43.17 18.7 C32.57 18.7, 21.96 18.7, 0 18.7 M0 18.7 C0 13.41, 0 8.12, 0 0 M0 18.7 C0 12.59, 0 6.48, 0 0" stroke="#821010" stroke-width="1" fill="none"></path></g><g stroke-linecap="round" transform="translate(15.814476297966166 33.483081146223554) rotate(0 6.987672521002764 2.9783522220667322)"><path d="M0 0 L13.98 0 L13.98 5.96 L0 5.96" stroke="none" stroke-width="0" fill="#e62323"></path><path d="M0 0 C4.35 0, 8.7 0, 13.98 0 M0 0 C4.98 0, 9.95 0, 13.98 0 M13.98 0 C13.98 1.91, 13.98 3.82, 13.98 5.96 M13.98 0 C13.98 2.17, 13.98 4.34, 13.98 5.96 M13.98 5.96 C8.54 5.96, 3.11 5.96, 0 5.96 M13.98 5.96 C9.17 5.96, 4.36 5.96, 0 5.96 M0 5.96 C0 3.64, 0 1.33, 0 0 M0 5.96 C0 4.47, 0 2.98, 0 0" stroke="#8f1212" stroke-width="1" fill="none"></path></g><g stroke-linecap="round" transform="translate(30.095293362745906 33.47035314527457) rotate(0 6.987672521002764 2.9783522220667322)"><path d="M0 0 L13.98 0 L13.98 5.96 L0 5.96" stroke="none" stroke-width="0" fill="#f16874"></path><path d="M0 0 C3.31 0, 6.63 0, 13.98 0 M0 0 C3.24 0, 6.47 0, 13.98 0 M13.98 0 C13.98 2.3, 13.98 4.6, 13.98 5.96 M13.98 0 C13.98 1.2, 13.98 2.4, 13.98 5.96 M13.98 5.96 C8.47 5.96, 2.96 5.96, 0 5.96 M13.98 5.96 C9.49 5.96, 5.01 5.96, 0 5.96 M0 5.96 C0 4.69, 0 3.41, 0 0 M0 5.96 C0 4.33, 0 2.7, 0 0" stroke="#8f1212" stroke-width="1" fill="none"></path></g><g stroke-linecap="round" transform="translate(44.439750432272604 33.47035314527446) rotate(0 6.987672521002764 2.9783522220667322)"><path d="M0 0 L13.98 0 L13.98 5.96 L0 5.96" stroke="none" stroke-width="0" fill="#e62323"></path><path d="M0 0 C5.21 0, 10.42 0, 13.98 0 M0 0 C4.18 0, 8.36 0, 13.98 0 M13.98 0 C13.98 2.04, 13.98 4.07, 13.98 5.96 M13.98 0 C13.98 1.71, 13.98 3.42, 13.98 5.96 M13.98 5.96 C10.42 5.96, 6.86 5.96, 0 5.96 M13.98 5.96 C8.87 5.96, 3.77 5.96, 0 5.96 M0 5.96 C0 3.85, 0 1.74, 0 0 M0 5.96 C0 3.75, 0 1.55, 0 0" stroke="#8f1212" stroke-width="1" fill="none"></path></g><g stroke-linecap="round" transform="translate(15.97781897681034 46.064710084313134) rotate(0 6.987672521002764 2.9783522220667322)"><path d="M0 0 L13.98 0 L13.98 5.96 L0 5.96" stroke="none" stroke-width="0" fill="#e62323"></path><path d="M0 0 C3.09 0, 6.19 0, 13.98 0 M0 0 C4.1 0, 8.2 0, 13.98 0 M13.98 0 C13.98 1.83, 13.98 3.67, 13.98 5.96 M13.98 0 C13.98 1.19, 13.98 2.39, 13.98 5.96 M13.98 5.96 C8.61 5.96, 3.24 5.96, 0 5.96 M13.98 5.96 C8.4 5.96, 2.82 5.96, 0 5.96 M0 5.96 C0 4.73, 0 3.51, 0 0 M0 5.96 C0 4.44, 0 2.91, 0 0" stroke="#8f1212" stroke-width="1" fill="none"></path></g><g stroke-linecap="round" transform="translate(30.356217382201066 46.05198208336415) rotate(0 6.987672521002764 2.9783522220667322)"><path d="M0 0 L13.98 0 L13.98 5.96 L0 5.96" stroke="none" stroke-width="0" fill="#f16874"></path><path d="M0 0 C3.44 0, 6.88 0, 13.98 0 M0 0 C3.1 0, 6.2 0, 13.98 0 M13.98 0 C13.98 2.37, 13.98 4.75, 13.98 5.96 M13.98 0 C13.98 1.19, 13.98 2.39, 13.98 5.96 M13.98 5.96 C10.21 5.96, 6.43 5.96, 0 5.96 M13.98 5.96 C11.08 5.96, 8.18 5.96, 0 5.96 M0 5.96 C0 4.17, 0 2.39, 0 0 M0 5.96 C0 4.49, 0 3.02, 0 0" stroke="#8f1212" stroke-width="1" fill="none"></path></g><g stroke-linecap="round" transform="translate(44.50551177050852 46.149563423973206) rotate(0 6.987672521002764 2.9783522220667322)"><path d="M0 0 L13.98 0 L13.98 5.96 L0 5.96" stroke="none" stroke-width="0" fill="#e62323"></path><path d="M0 0 C4.81 0, 9.63 0, 13.98 0 M0 0 C4.03 0, 8.05 0, 13.98 0 M13.98 0 C13.98 2.3, 13.98 4.6, 13.98 5.96 M13.98 0 C13.98 1.63, 13.98 3.26, 13.98 5.96 M13.98 5.96 C10.89 5.96, 7.81 5.96, 0 5.96 M13.98 5.96 C9.74 5.96, 5.5 5.96, 0 5.96 M0 5.96 C0 4.36, 0 2.76, 0 0 M0 5.96 C0 4.24, 0 2.53, 0 0" stroke="#8f1212" stroke-width="1" fill="none"></path></g><g stroke-linecap="round" transform="translate(15.945998974436634 39.81314028486102) rotate(0 6.987672521002764 2.9783522220667322)"><path d="M0 0 L13.98 0 L13.98 5.96 L0 5.96" stroke="none" stroke-width="0" fill="#f16874"></path><path d="M0 0 C5.34 0, 10.67 0, 13.98 0 M0 0 C4.66 0, 9.32 0, 13.98 0 M13.98 0 C13.98 1.34, 13.98 2.67, 13.98 5.96 M13.98 0 C13.98 1.55, 13.98 3.1, 13.98 5.96 M13.98 5.96 C10.74 5.96, 7.51 5.96, 0 5.96 M13.98 5.96 C8.77 5.96, 3.57 5.96, 0 5.96 M0 5.96 C0 4.73, 0 3.5, 0 0 M0 5.96 C0 4.49, 0 3.03, 0 0" stroke="#8f1212" stroke-width="1" fill="none"></path></g><g stroke-linecap="round" transform="translate(30.29045604396356 39.813140284861134) rotate(0 6.987672521002764 2.9783522220667322)"><path d="M0 0 L13.98 0 L13.98 5.96 L0 5.96" stroke="none" stroke-width="0" fill="#e62323"></path><path d="M0 0 C5.46 0, 10.92 0, 13.98 0 M0 0 C5.11 0, 10.22 0, 13.98 0 M13.98 0 C13.98 2.06, 13.98 4.12, 13.98 5.96 M13.98 0 C13.98 1.72, 13.98 3.45, 13.98 5.96 M13.98 5.96 C10.16 5.96, 6.34 5.96, 0 5.96 M13.98 5.96 C9.46 5.96, 4.95 5.96, 0 5.96 M0 5.96 C0 3.85, 0 1.75, 0 0 M0 5.96 C0 3.82, 0 1.68, 0 0" stroke="#8f1212" stroke-width="1" fill="none"></path></g><g stroke-linecap="round" transform="translate(44.43975043227283 39.81314028486102) rotate(0 6.987672521002764 2.9783522220667322)"><path d="M0 0 L13.98 0 L13.98 5.96 L0 5.96" stroke="none" stroke-width="0" fill="#f16874"></path><path d="M0 0 C5.2 0, 10.4 0, 13.98 0 M0 0 C3.64 0, 7.28 0, 13.98 0 M13.98 0 C13.98 2.34, 13.98 4.67, 13.98 5.96 M13.98 0 C13.98 1.55, 13.98 3.11, 13.98 5.96 M13.98 5.96 C10 5.96, 6.03 5.96, 0 5.96 M13.98 5.96 C9.47 5.96, 4.97 5.96, 0 5.96 M0 5.96 C0 3.66, 0 1.36, 0 0 M0 5.96 C0 4.19, 0 2.43, 0 0" stroke="#8f1212" stroke-width="1" fill="none"></path></g><g transform="translate(6 62.34945585013898) rotate(0 33.5 10)"><text x="0" y="0" font-family="Virgil, Segoe UI Emoji" font-size="16px" fill="#000000" text-anchor="start" style="white-space: pre;" direction="ltr" dominant-baseline="text-before-edge">Firewalls</text></g></svg>