<svg version="1.1" xmlns="http://www.w3.org/2000/svg" viewBox="0 0 94 117.37527885007682" width="94" height="117.37527885007682">
  <!-- svg-source:excalidraw -->
  
  <defs>
    
    
  </defs>
  <g transform="translate(6 71.37527885007682) rotate(0 41 20)"><text x="41" y="0" font-family="Virgil, Segoe UI Emoji" font-size="16px" fill="#000000" text-anchor="middle" style="white-space: pre;" direction="ltr" dominant-baseline="text-before-edge">Application</text><text x="41" y="20" font-family="Virgil, Segoe UI Emoji" font-size="16px" fill="#000000" text-anchor="middle" style="white-space: pre;" direction="ltr" dominant-baseline="text-before-edge">Insights</text></g><g stroke-linecap="round" transform="translate(43.6217949195443 60.293677702046466) rotate(0 4.205128205128403 1.5384615384615472)"><path d="M0.77 0 C3.09 -0.28, 5.66 -0.17, 7.64 0 C10.04 1.53, 9.51 -1.2, 8.41 0.77 C8.33 1.23, 8.23 2.02, 8.41 2.31 C9.21 2.13, 6.35 4.52, 7.64 3.08 C4.53 3.18, 2.16 2.98, 0.77 3.08 C0.93 2.01, -1.51 4.37, 0 2.31 C-0.15 1.88, 0.02 1.44, 0 0.77 C0.01 2.31, -0.69 0.59, 0.77 0" stroke="none" stroke-width="0" fill="#868e96"></path><path d="M0.77 0 C3.07 0.05, 5.12 -0.15, 7.64 0 M0.77 0 C3.05 -0.03, 5.34 0.09, 7.64 0 M7.64 0 C8.1 -0.16, 8.35 0.49, 8.41 0.77 M7.64 0 C8.38 -0.72, 9.11 -0.38, 8.41 0.77 M8.41 0.77 C8.4 1.16, 8.38 1.54, 8.41 2.31 M8.41 0.77 C8.41 1.28, 8.4 1.81, 8.41 2.31 M8.41 2.31 C8.27 3.11, 7.51 3.59, 7.64 3.08 M8.41 2.31 C7.67 2.16, 8.45 3.75, 7.64 3.08 M7.64 3.08 C4.93 2.89, 2.17 3, 0.77 3.08 M7.64 3.08 C6.26 3.07, 4.75 3.03, 0.77 3.08 M0.77 3.08 C0.18 2.81, -0.31 3.06, 0 2.31 M0.77 3.08 C0.55 3.03, 0.71 3.28, 0 2.31 M0 2.31 C-0.04 1.86, 0.03 1.33, 0 0.77 M0 2.31 C0.02 1.93, 0 1.5, 0 0.77 M0 0.77 C-0.41 0.22, -0.12 -0.48, 0.77 0 M0 0.77 C-0.3 0.79, -0.2 0.17, 0.77 0" stroke="#868e96" stroke-width="2" fill="none"></path></g><g stroke-linecap="round" transform="translate(43.44978730841831 68.01103326184978) rotate(0 3.776556776556845 1.7527472527472696)"><path d="M0.88 0 C2.59 0.3, 4.64 0.54, 6.68 0 C8.79 1.1, 6.09 1.62, 7.55 0.88 C7.45 1.12, 7.73 1.82, 7.55 2.63 C6.87 1.41, 8.71 4.8, 6.68 3.51 C5.25 2.97, 3.61 3.64, 0.88 3.51 C-0.77 1.99, 1.55 3.14, 0 2.63 C0.03 2.02, 0.05 1.33, 0 0.88 C2.06 -0.66, 0.88 1.25, 0.88 0" stroke="none" stroke-width="0" fill="#868e96"></path><path d="M0.88 0 C2.88 0.01, 4.69 0.05, 6.68 0 M0.88 0 C2.79 0.01, 4.83 -0.01, 6.68 0 M6.68 0 C7.1 -0.06, 7.79 0.49, 7.55 0.88 M6.68 0 C6.54 0.7, 6.92 -0.16, 7.55 0.88 M7.55 0.88 C7.58 1.46, 7.58 2.15, 7.55 2.63 M7.55 0.88 C7.55 1.31, 7.56 1.76, 7.55 2.63 M7.55 2.63 C7.85 2.57, 7.77 2.86, 6.68 3.51 M7.55 2.63 C6.89 3.51, 7.94 4.2, 6.68 3.51 M6.68 3.51 C4.46 3.41, 2.49 3.32, 0.88 3.51 M6.68 3.51 C4.45 3.45, 2.2 3.5, 0.88 3.51 M0.88 3.51 C0.03 3.2, 0.24 3.47, 0 2.63 M0.88 3.51 C0.25 4.21, 0.46 3.4, 0 2.63 M0 2.63 C0.06 2.07, 0.02 1.41, 0 0.88 M0 2.63 C0.02 2.27, -0.02 1.91, 0 0.88 M0 0.88 C-0.04 -0.08, -0.19 -0.26, 0.88 0 M0 0.88 C0.54 -0.16, 0.47 0.23, 0.88 0" stroke="#868e96" stroke-width="2" fill="none"></path></g><g stroke-linecap="round"><g transform="translate(42.12750763708482 54.34939508528805) rotate(0 4.720871881456787 -23.391728303601866)" fill-rule="evenodd"><path d="M-1.52 -0.79 C-1.49 -3.15, 1.17 -8.36, -1.25 -12.78 C-3.68 -17.2, -16.63 -21.45, -16.07 -27.28 C-15.52 -33.11, -5.15 -46.66, 2.07 -47.77 C9.29 -48.87, 25.07 -40.17, 27.25 -33.91 C29.44 -27.64, 18.19 -16.23, 15.19 -10.19 C12.19 -4.14, 11.93 0.5, 9.25 2.36 C6.58 4.22, 0.84 1.85, -0.84 0.95" stroke="none" stroke-width="0" fill="#be4bdb" fill-rule="evenodd"></path><path d="M0.17 0.1 C-0.23 -1.78, -0.4 -5.91, -3.23 -10.59 C-6.06 -15.27, -17.87 -21.7, -16.79 -27.98 C-15.72 -34.27, -4.05 -47.59, 3.22 -48.31 C10.48 -49.04, 24.73 -38.52, 26.81 -32.31 C28.9 -26.1, 18.6 -16.73, 15.74 -11.06 C12.89 -5.4, 11.98 0.2, 9.67 1.7 C7.36 3.2, 3.05 -1.44, 1.87 -2.04 M-1.2 -0.89 C-1.16 -3.2, 1.71 -8.23, -0.98 -12.51 C-3.67 -16.79, -18.08 -20.78, -17.34 -26.58 C-16.6 -32.39, -3.66 -45.93, 3.47 -47.34 C10.6 -48.76, 23.16 -40.93, 25.44 -35.08 C27.71 -29.24, 19.63 -18.2, 17.1 -12.25 C14.57 -6.31, 12.94 -1.58, 10.26 0.57 C7.58 2.73, 2.49 0.81, 1.04 0.69" stroke="#862e9c" stroke-width="2" fill="none"></path></g></g><mask></mask><g stroke-linecap="round"><g transform="translate(43.46339580197764 45.02153001649617) rotate(0 5 -10.57377049180326)"><path d="M0.1 -0.87 C0.32 -4.38, 3.46 -18.29, 2.02 -20.91 C0.58 -23.52, -11.27 -17.57, -8.53 -16.55 C-5.79 -15.52, 15.44 -13.69, 18.44 -14.74 C21.44 -15.8, 11.42 -25.6, 9.47 -22.89 C7.53 -20.18, 7.1 -2.62, 6.77 1.53 M-1.3 1.29 C-1.27 -2.61, 2.58 -20.06, 1.27 -22.81 C-0.05 -25.57, -12.09 -16.77, -9.21 -15.22 C-6.33 -13.68, 15.6 -12.32, 18.55 -13.55 C21.5 -14.77, 10.25 -24.89, 8.5 -22.56 C6.75 -20.22, 8.06 -3.46, 8.03 0.44" stroke="#fff" stroke-width="2" fill="none"></path></g></g><mask></mask></svg>