<svg version="1.1" xmlns="http://www.w3.org/2000/svg" viewBox="0 0 113.66666666666697 118.33333333333337" width="113.66666666666697" height="118.33333333333337">
  <!-- svg-source:excalidraw -->
  
  <defs>
    
    
  </defs>
  <g stroke-linecap="round" transform="translate(6 6) rotate(0 50.833333333333485 33.33333333333337)"><path d="M16.67 0 C33.32 5.94, 54.94 0.56, 85 0 C96.89 -3.19, 106.17 8, 101.67 16.67 C103.05 26.17, 97.44 36.92, 101.67 50 C101.16 61.39, 92.09 69.65, 85 66.67 C58.99 67.83, 43.29 62.19, 16.67 66.67 C7.1 70.24, 2.05 60.41, 0 50 C-1.3 41, -2.07 35.3, 0 16.67 C-1.56 6.76, 4.78 5.48, 16.67 0" stroke="none" stroke-width="0" fill="#ffffff"></path><path d="M16.67 0 C36.41 -0.05, 62.2 -1.39, 85 0 M16.67 0 C40.64 -2.04, 63.16 -0.85, 85 0 M85 0 C99.66 2.86, 102.61 3.65, 101.67 16.67 M85 0 C97.68 -2.71, 102.62 9.11, 101.67 16.67 M101.67 16.67 C101.46 27.65, 98.61 42.51, 101.67 50 M101.67 16.67 C100.54 28.34, 101.01 43.13, 101.67 50 M101.67 50 C104.36 58.8, 97.27 68.47, 85 66.67 M101.67 50 C104.32 57.01, 92.02 67.7, 85 66.67 M85 66.67 C69.26 63.07, 57.07 67.03, 16.67 66.67 M85 66.67 C65.39 67.71, 45.54 67.59, 16.67 66.67 M16.67 66.67 C4.67 70.4, -1.15 62.25, 0 50 M16.67 66.67 C7.53 69.53, 0.28 57.53, 0 50 M0 50 C2.93 35.01, 3.44 25.14, 0 16.67 M0 50 C-2.02 43.09, 1.11 31.04, 0 16.67 M0 16.67 C-3.48 1.69, 3.58 -1.03, 16.67 0 M0 16.67 C4.4 3.78, 6.39 1.63, 16.67 0" stroke="#ddb60c" stroke-width="4" fill="none"></path></g><g transform="translate(36 77.66666666666674) rotate(0 21.666666666666515 -1.6666666666666856)" stroke="none"><path fill="#ffffff" d="M -6.24,-8.32 Q -6.24,-8.32 -4.40,-9.90 -2.57,-11.49 1.58,-13.48 5.75,-15.46 10.22,-16.00 14.68,-16.53 19.18,-16.78 23.67,-17.02 30.90,-16.03 38.13,-15.04 43.51,-12.12 48.89,-9.20 47.64,-10.35 46.38,-11.50 48.42,-10.86 50.47,-10.22 52.20,-8.96 53.93,-7.71 55.17,-5.96 56.42,-4.22 57.03,-2.17 57.65,-0.12 57.59,2.01 57.52,4.15 56.77,6.15 56.02,8.16 54.68,9.82 53.33,11.49 51.52,12.63 49.71,13.77 47.63,14.28 45.55,14.79 43.42,14.61 41.28,14.42 39.32,13.57 37.36,12.71 35.77,11.28 34.19,9.84 33.14,7.97 32.10,6.10 31.70,4.00 31.31,1.90 31.61,-0.21 31.91,-2.33 32.87,-4.25 33.82,-6.16 35.35,-7.67 36.87,-9.17 38.79,-10.12 40.71,-11.06 42.83,-11.34 44.95,-11.62 47.06,-11.20 49.16,-10.79 51.01,-9.73 52.87,-8.67 54.29,-7.07 55.72,-5.47 56.55,-3.50 57.39,-1.53 57.55,0.60 57.72,2.73 57.19,4.81 56.67,6.88 55.50,8.68 54.34,10.48 52.67,11.81 50.99,13.15 48.98,13.87 46.97,14.60 44.83,14.65 42.69,14.70 42.69,14.70 42.69,14.70 35.58,11.02 28.47,7.34 24.16,7.10 19.85,6.86 15.04,6.30 10.24,5.74 8.24,7.03 6.24,8.32 5.15,8.94 4.06,9.57 2.86,9.92 1.65,10.26 0.40,10.31 -0.84,10.36 -2.07,10.11 -3.30,9.86 -4.43,9.32 -5.56,8.78 -6.53,7.99 -7.50,7.19 -8.26,6.19 -9.01,5.19 -9.50,4.03 -9.99,2.88 -10.19,1.64 -10.39,0.40 -10.29,-0.84 -10.19,-2.09 -9.79,-3.28 -9.39,-4.46 -8.72,-5.52 -8.05,-6.58 -7.14,-7.45 -6.24,-8.32 -6.24,-8.32 L -6.24,-8.32 Z"></path></g><g transform="translate(29.33333333333303 79.33333333333337) rotate(0 -1.666666666666515 -2.5)" stroke="none"><path d="M0 1.49 C-0.31 1.61, 0.21 -0.12, 0.04 -1.15 C-0.13 -2.18, -0.56 -4.24, -1.04 -4.69 C-1.53 -5.15, -2.46 -3.84, -2.87 -3.89 C-3.27 -3.93, -3.94 -5.77, -3.48 -4.99 C-3.02 -4.21, -0.76 0.07, -0.11 0.79" stroke="none" stroke-width="0" fill="#ffffff" fill-rule="evenodd"></path><path fill="#ffffff" d="M 8.48,-2.64 Q 8.48,-2.64 8.60,-0.52 8.73,1.60 7.86,3.53 6.99,5.47 5.31,6.78 3.64,8.10 1.55,8.48 -0.53,8.86 -2.56,8.23 -4.59,7.60 -6.09,6.09 -7.60,4.59 -8.23,2.56 -8.86,0.53 -8.48,-1.55 -8.09,-3.64 -6.78,-5.31 -5.47,-6.99 -3.53,-7.86 -1.59,-8.73 0.52,-8.60 2.64,-8.47 4.46,-7.37 6.28,-6.27 7.38,-4.46 L 8.48,-2.64 Z"></path></g><g stroke-linecap="round" transform="translate(29.666666666667425 58.999999999999886) rotate(0 3.33333333333303 11.666666666666686)"><path d="M1.67 0 C2.1 0.26, 3.32 0.33, 5 0 C3.82 0.69, 6.74 -0.2, 6.67 1.67 C6.94 6.06, 4.19 8.72, 6.67 21.67 C6.57 24.19, 6.04 21.07, 5 23.33 C3.78 23.4, 3.1 23.51, 1.67 23.33 C1.1 20.83, -2.14 21.44, 0 21.67 C-1.82 13.76, -0.48 9.67, 0 1.67 C0.83 2.59, 1.68 1.07, 1.67 0" stroke="none" stroke-width="0" fill="#ddb60c"></path><path d="M1.67 0 C3.02 0.02, 4.21 0.11, 5 0 M1.67 0 C2.51 0.03, 3.49 -0.07, 5 0 M5 0 C5.12 -0.93, 6.51 -0.25, 6.67 1.67 M5 0 C6.76 -0.51, 6.79 0.11, 6.67 1.67 M6.67 1.67 C5.86 6.38, 6.86 10.68, 6.67 21.67 M6.67 1.67 C6.83 7.59, 6.63 12.76, 6.67 21.67 M6.67 21.67 C7.47 21.87, 6.97 23.91, 5 23.33 M6.67 21.67 C6.7 23.38, 5.91 24.3, 5 23.33 M5 23.33 C4.31 23.22, 3.48 23.41, 1.67 23.33 M5 23.33 C4.19 23.33, 3.17 23.35, 1.67 23.33 M1.67 23.33 C1.19 22.54, 0.41 23.49, 0 21.67 M1.67 23.33 C1.38 23.02, -0.42 23.47, 0 21.67 M0 21.67 C-0.31 13.88, -0.75 5.87, 0 1.67 M0 21.67 C0.25 17.64, -0.29 12.94, 0 1.67 M0 1.67 C0.27 -0.05, 0.88 0.52, 1.67 0 M0 1.67 C0.59 -0.58, -0.05 -0.39, 1.67 0" stroke="#ddb60c" stroke-width="4" fill="none"></path></g><g stroke-linecap="round" transform="translate(48.66666666666697 41.66666666666681) rotate(0 3.33333333333303 20.833333333333307)"><path d="M1.67 0 C2.69 -0.45, 3.04 -0.17, 5 0 C4.91 1.42, 8.5 -1.9, 6.67 1.67 C4.33 16.46, 6.69 29.12, 6.67 40 C4.78 40.13, 8.25 42.03, 5 41.67 C4 41.87, 3.03 41.26, 1.67 41.67 C0.55 40.37, 1.6 39.78, 0 40 C0.43 25.69, -2.26 15.04, 0 1.67 C0.57 2.37, -0.13 -1.64, 1.67 0" stroke="none" stroke-width="0" fill="#ddb60c"></path><path d="M1.67 0 C2.35 -0.12, 3.2 0.07, 5 0 M1.67 0 C2.95 0.02, 4.15 0.07, 5 0 M5 0 C5.74 -0.37, 5.84 0.19, 6.67 1.67 M5 0 C6.38 0.92, 5.55 -0.58, 6.67 1.67 M6.67 1.67 C7.2 9.16, 6.74 17.14, 6.67 40 M6.67 1.67 C6.28 10.01, 6.78 18.14, 6.67 40 M6.67 40 C6.5 40.63, 6.28 42.09, 5 41.67 M6.67 40 C7.24 41.15, 5.52 42.59, 5 41.67 M5 41.67 C4.31 41.76, 3.58 41.82, 1.67 41.67 M5 41.67 C4.25 41.61, 3.43 41.7, 1.67 41.67 M1.67 41.67 C0.18 40.76, 0.15 41.94, 0 40 M1.67 41.67 C0.53 40.53, 0.23 41.84, 0 40 M0 40 C0.64 31.27, -0.45 23.68, 0 1.67 M0 40 C-0.29 25.03, -0.51 9.94, 0 1.67 M0 1.67 C-0.79 0.49, 0.83 0.49, 1.67 0 M0 1.67 C0.88 -0.12, 0.78 0.31, 1.67 0" stroke="#ddb60c" stroke-width="4" fill="none"></path></g><g stroke-linecap="round" transform="translate(82.33333333333303 30.500000000000185) rotate(0 3.33333333333303 25.833333333333307)"><path d="M1.67 0 C2.51 0.08, 4.13 -0.16, 5 0 C4.22 -0.98, 8.8 0.92, 6.67 1.67 C5.99 17.29, 6.02 27.84, 6.67 50 C6.66 49.81, 7.71 50.34, 5 51.67 C4.06 51.26, 2.59 51.46, 1.67 51.67 C1.12 53.48, -0.69 49.47, 0 50 C0.91 40.26, 1.2 27.52, 0 1.67 C-0.86 1.03, -1.61 0.96, 1.67 0" stroke="none" stroke-width="0" fill="#ddb60c"></path><path d="M1.67 0 C2.61 -0.07, 3.54 -0.07, 5 0 M1.67 0 C2.66 -0.06, 3.81 -0.05, 5 0 M5 0 C6.67 -0.44, 6.77 0.16, 6.67 1.67 M5 0 C5.09 0.14, 6.55 -0.39, 6.67 1.67 M6.67 1.67 C6.55 18.04, 6.88 35.8, 6.67 50 M6.67 1.67 C7.07 18.12, 7.1 35.78, 6.67 50 M6.67 50 C6.69 51.64, 5.93 52.51, 5 51.67 M6.67 50 C6.02 51.95, 5.83 52.49, 5 51.67 M5 51.67 C4.15 51.52, 3.46 51.81, 1.67 51.67 M5 51.67 C4.06 51.6, 3.05 51.73, 1.67 51.67 M1.67 51.67 C1.27 51.4, -0.37 51.71, 0 50 M1.67 51.67 C1.6 52.78, 0 50.87, 0 50 M0 50 C-0.63 35.25, 0.44 21.13, 0 1.67 M0 50 C0.28 31.49, 0.3 13.84, 0 1.67 M0 1.67 C0.51 -0.43, 0.03 -0.34, 1.67 0 M0 1.67 C-0.53 1.18, 1.37 -1.08, 1.67 0" stroke="#ddb60c" stroke-width="4" fill="none"></path></g><g stroke-linecap="round" transform="translate(66.33333333333303 49.50000000000004) rotate(0 3.33333333333303 17.499999999999936)"><path d="M1.67 0 C2.92 0.14, 3.73 0.16, 5 0 C7.45 1.33, 4.11 -0.81, 6.67 1.67 C8.31 7.65, 8.24 18.3, 6.67 33.33 C8.85 32.16, 6.8 35.07, 5 35 C4.45 35.04, 3.17 34.59, 1.67 35 C-1.48 34.9, 1.41 34.37, 0 33.33 C1.6 25.26, 0.21 20.46, 0 1.67 C0.9 1.1, -1.94 -2.14, 1.67 0" stroke="none" stroke-width="0" fill="#ddb60c"></path><path d="M1.67 0 C2.53 0.03, 3.27 0.04, 5 0 M1.67 0 C2.6 0.05, 3.71 -0.01, 5 0 M5 0 C5.19 0.84, 6.69 1.27, 6.67 1.67 M5 0 C6.8 -0.43, 6.24 -0.4, 6.67 1.67 M6.67 1.67 C5.73 9.02, 5.77 18.2, 6.67 33.33 M6.67 1.67 C6.81 8.43, 6.31 15.65, 6.67 33.33 M6.67 33.33 C6.57 33.63, 6.6 35.18, 5 35 M6.67 33.33 C7.32 34.26, 5.56 35.19, 5 35 M5 35 C3.77 35.13, 2.57 35.14, 1.67 35 M5 35 C3.79 35.08, 2.57 35.07, 1.67 35 M1.67 35 C0.31 35.72, -0.65 35.08, 0 33.33 M1.67 35 C1.11 34.57, -1.04 34.61, 0 33.33 M0 33.33 C0.2 21.83, -0.79 9.47, 0 1.67 M0 33.33 C-0.3 21.89, 0.34 10.33, 0 1.67 M0 1.67 C0 0.35, 0.59 -0.66, 1.67 0 M0 1.67 C-0.18 -0.36, 0.48 0.32, 1.67 0" stroke="#ddb60c" stroke-width="4" fill="none"></path></g><g transform="translate(22.666666666666515 92.33333333333337) rotate(0 33.5 10)"><text x="0" y="0" font-family="Virgil, Segoe UI Emoji" font-size="16px" fill="#000000" text-anchor="start" style="white-space: pre;" direction="ltr" dominant-baseline="text-before-edge">PowerBI</text></g></svg>