<svg version="1.1" xmlns="http://www.w3.org/2000/svg" viewBox="0 0 94 118.14819724236486" width="94" height="118.14819724236486">
  <!-- svg-source:excalidraw -->
  
  <defs>
    
    
  </defs>
  <g stroke-linecap="round" transform="translate(11.533370263752659 6) rotate(0 30.5 28.5)"><path d="M61 28.5 C61 30.15, 60.84 31.82, 60.54 33.45 C60.23 35.07, 59.76 36.7, 59.16 38.25 C58.56 39.8, 57.8 41.32, 56.91 42.75 C56.03 44.18, 55 45.56, 53.86 46.82 C52.73 48.08, 51.46 49.27, 50.11 50.33 C48.75 51.39, 47.28 52.36, 45.75 53.18 C44.22 54.01, 42.59 54.72, 40.93 55.28 C39.27 55.85, 37.53 56.28, 35.8 56.57 C34.06 56.85, 32.27 57, 30.5 57 C28.73 57, 26.94 56.85, 25.2 56.57 C23.47 56.28, 21.73 55.85, 20.07 55.28 C18.41 54.72, 16.78 54.01, 15.25 53.18 C13.72 52.36, 12.25 51.39, 10.89 50.33 C9.54 49.27, 8.27 48.08, 7.14 46.82 C6 45.56, 4.97 44.18, 4.09 42.75 C3.2 41.32, 2.44 39.8, 1.84 38.25 C1.24 36.7, 0.77 35.07, 0.46 33.45 C0.16 31.82, 0 30.15, 0 28.5 C0 26.85, 0.16 25.18, 0.46 23.55 C0.77 21.93, 1.24 20.3, 1.84 18.75 C2.44 17.2, 3.2 15.68, 4.09 14.25 C4.97 12.82, 6 11.44, 7.14 10.18 C8.27 8.92, 9.54 7.73, 10.89 6.67 C12.25 5.61, 13.72 4.64, 15.25 3.82 C16.78 2.99, 18.41 2.28, 20.07 1.72 C21.73 1.15, 23.47 0.72, 25.2 0.43 C26.94 0.15, 28.73 0, 30.5 0 C32.27 0, 34.06 0.15, 35.8 0.43 C37.53 0.72, 39.27 1.15, 40.93 1.72 C42.59 2.28, 44.22 2.99, 45.75 3.82 C47.28 4.64, 48.75 5.61, 50.11 6.67 C51.46 7.73, 52.73 8.92, 53.86 10.18 C55 11.44, 56.03 12.82, 56.91 14.25 C57.8 15.68, 58.56 17.2, 59.16 18.75 C59.76 20.3, 60.23 21.93, 60.54 23.55 C60.84 25.18, 60.92 27.68, 61 28.5 C61.08 29.32, 61.08 27.68, 61 28.5" stroke="none" stroke-width="0" fill="#0078d4"></path><path d="M61 28.5 C61 30.15, 60.84 31.82, 60.54 33.45 C60.23 35.07, 59.76 36.7, 59.16 38.25 C58.56 39.8, 57.8 41.32, 56.91 42.75 C56.03 44.18, 55 45.56, 53.86 46.82 C52.73 48.08, 51.46 49.27, 50.11 50.33 C48.75 51.39, 47.28 52.36, 45.75 53.18 C44.22 54.01, 42.59 54.72, 40.93 55.28 C39.27 55.85, 37.53 56.28, 35.8 56.57 C34.06 56.85, 32.27 57, 30.5 57 C28.73 57, 26.94 56.85, 25.2 56.57 C23.47 56.28, 21.73 55.85, 20.07 55.28 C18.41 54.72, 16.78 54.01, 15.25 53.18 C13.72 52.36, 12.25 51.39, 10.89 50.33 C9.54 49.27, 8.27 48.08, 7.14 46.82 C6 45.56, 4.97 44.18, 4.09 42.75 C3.2 41.32, 2.44 39.8, 1.84 38.25 C1.24 36.7, 0.77 35.07, 0.46 33.45 C0.16 31.82, 0 30.15, 0 28.5 C0 26.85, 0.16 25.18, 0.46 23.55 C0.77 21.93, 1.24 20.3, 1.84 18.75 C2.44 17.2, 3.2 15.68, 4.09 14.25 C4.97 12.82, 6 11.44, 7.14 10.18 C8.27 8.92, 9.54 7.73, 10.89 6.67 C12.25 5.61, 13.72 4.64, 15.25 3.82 C16.78 2.99, 18.41 2.28, 20.07 1.72 C21.73 1.15, 23.47 0.72, 25.2 0.43 C26.94 0.15, 28.73 0, 30.5 0 C32.27 0, 34.06 0.15, 35.8 0.43 C37.53 0.72, 39.27 1.15, 40.93 1.72 C42.59 2.28, 44.22 2.99, 45.75 3.82 C47.28 4.64, 48.75 5.61, 50.11 6.67 C51.46 7.73, 52.73 8.92, 53.86 10.18 C55 11.44, 56.03 12.82, 56.91 14.25 C57.8 15.68, 58.56 17.2, 59.16 18.75 C59.76 20.3, 60.23 21.93, 60.54 23.55 C60.84 25.18, 60.92 27.68, 61 28.5 C61.08 29.32, 61.08 27.68, 61 28.5" stroke="#0078d4" stroke-width="1" fill="none"></path></g><g stroke-linecap="round" transform="translate(26.85461665623643 19.307750537151833) rotate(0 4.473158195317012 4.473158195317012)"><path d="M0 0 L8.95 0 L8.95 8.95 L0 8.95" stroke="none" stroke-width="0" fill="#ffff"></path><path d="M0 0 C2.67 0, 5.34 0, 8.95 0 M0 0 C2.76 0, 5.52 0, 8.95 0 M8.95 0 C8.95 3.46, 8.95 6.92, 8.95 8.95 M8.95 0 C8.95 2.66, 8.95 5.31, 8.95 8.95 M8.95 8.95 C5.51 8.95, 2.08 8.95, 0 8.95 M8.95 8.95 C6.47 8.95, 3.99 8.95, 0 8.95 M0 8.95 C0 6.17, 0 3.4, 0 0 M0 8.95 C0 6.45, 0 3.94, 0 0" stroke="#ffff" stroke-width="1" fill="none"></path></g><g stroke-linecap="round" transform="translate(37.78606242349042 19.298927739922647) rotate(0 4.473158195317012 4.473158195317012)"><path d="M0 0 L8.95 0 L8.95 8.95 L0 8.95" stroke="none" stroke-width="0" fill="#ffff"></path><path d="M0 0 C3.4 0, 6.8 0, 8.95 0 M0 0 C3.46 0, 6.93 0, 8.95 0 M8.95 0 C8.95 2.5, 8.95 4.99, 8.95 8.95 M8.95 0 C8.95 2.53, 8.95 5.05, 8.95 8.95 M8.95 8.95 C5.76 8.95, 2.56 8.95, 0 8.95 M8.95 8.95 C5.78 8.95, 2.61 8.95, 0 8.95 M0 8.95 C0 6.31, 0 3.67, 0 0 M0 8.95 C0 6.18, 0 3.41, 0 0" stroke="#ffff" stroke-width="1" fill="none"></path></g><g stroke-linecap="round" transform="translate(48.772851191546806 19.369510117758068) rotate(0 4.473158195317012 4.473158195317012)"><path d="M0 0 L8.95 0 L8.95 8.95 L0 8.95" stroke="none" stroke-width="0" fill="#ffff"></path><path d="M0 0 C2.6 0, 5.2 0, 8.95 0 M0 0 C2.92 0, 5.84 0, 8.95 0 M8.95 0 C8.95 2.96, 8.95 5.92, 8.95 8.95 M8.95 0 C8.95 2.22, 8.95 4.45, 8.95 8.95 M8.95 8.95 C7 8.95, 5.06 8.95, 0 8.95 M8.95 8.95 C6.58 8.95, 4.21 8.95, 0 8.95 M0 8.95 C0 5.87, 0 2.79, 0 0 M0 8.95 C0 6.36, 0 3.77, 0 0" stroke="#ffff" stroke-width="1" fill="none"></path></g><g stroke-linecap="round" transform="translate(26.89231406258 30.309778682241358) rotate(0 4.473158195317012 4.473158195317012)"><path d="M0 0 L8.95 0 L8.95 8.95 L0 8.95" stroke="none" stroke-width="0" fill="#ffff"></path><path d="M0 0 C2.87 0, 5.75 0, 8.95 0 M0 0 C2.01 0, 4.02 0, 8.95 0 M8.95 0 C8.95 3.51, 8.95 7.02, 8.95 8.95 M8.95 0 C8.95 3.57, 8.95 7.14, 8.95 8.95 M8.95 8.95 C6.37 8.95, 3.79 8.95, 0 8.95 M8.95 8.95 C5.99 8.95, 3.04 8.95, 0 8.95 M0 8.95 C0 6.06, 0 3.17, 0 0 M0 8.95 C0 5.72, 0 2.5, 0 0" stroke="#ffff" stroke-width="1" fill="none"></path></g><g stroke-linecap="round" transform="translate(37.65612668247536 30.309778682241358) rotate(0 4.473158195317012 4.473158195317012)"><path d="M0 0 L8.95 0 L8.95 8.95 L0 8.95" stroke="none" stroke-width="0" fill="#ffff"></path><path d="M0 0 C3.55 0, 7.09 0, 8.95 0 M0 0 C2.42 0, 4.84 0, 8.95 0 M8.95 0 C8.95 2.69, 8.95 5.38, 8.95 8.95 M8.95 0 C8.95 2.62, 8.95 5.24, 8.95 8.95 M8.95 8.95 C5.5 8.95, 2.05 8.95, 0 8.95 M8.95 8.95 C5.87 8.95, 2.78 8.95, 0 8.95 M0 8.95 C0 6.41, 0 3.87, 0 0 M0 8.95 C0 6.18, 0 3.42, 0 0" stroke="#ffff" stroke-width="1" fill="none"></path></g><g stroke-linecap="round" transform="translate(48.59639524695854 30.309778682241358) rotate(0 4.473158195317012 4.473158195317012)"><path d="M0 0 L8.95 0 L8.95 8.95 L0 8.95" stroke="none" stroke-width="0" fill="#ffff"></path><path d="M0 0 C2.56 0, 5.12 0, 8.95 0 M0 0 C2.68 0, 5.35 0, 8.95 0 M8.95 0 C8.95 1.89, 8.95 3.78, 8.95 8.95 M8.95 0 C8.95 3.3, 8.95 6.6, 8.95 8.95 M8.95 8.95 C6.99 8.95, 5.03 8.95, 0 8.95 M8.95 8.95 C7.07 8.95, 5.19 8.95, 0 8.95 M0 8.95 C0 6.81, 0 4.68, 0 0 M0 8.95 C0 6.57, 0 4.19, 0 0" stroke="#ffff" stroke-width="1" fill="none"></path></g><g stroke-linecap="round" transform="translate(26.892314062580226 41.25004724672465) rotate(0 4.473158195317012 4.473158195317012)"><path d="M0 0 L8.95 0 L8.95 8.95 L0 8.95" stroke="none" stroke-width="0" fill="#ffff"></path><path d="M0 0 C2.85 0, 5.69 0, 8.95 0 M0 0 C2.3 0, 4.61 0, 8.95 0 M8.95 0 C8.95 3.14, 8.95 6.28, 8.95 8.95 M8.95 0 C8.95 3.37, 8.95 6.75, 8.95 8.95 M8.95 8.95 C7.11 8.95, 5.28 8.95, 0 8.95 M8.95 8.95 C6.85 8.95, 4.76 8.95, 0 8.95 M0 8.95 C0 6.11, 0 3.27, 0 0 M0 8.95 C0 6.56, 0 4.17, 0 0" stroke="#ffff" stroke-width="1" fill="none"></path></g><g stroke-linecap="round" transform="translate(37.65612668247536 41.25004724672465) rotate(0 4.473158195317012 4.473158195317012)"><path d="M0 0 L8.95 0 L8.95 8.95 L0 8.95" stroke="none" stroke-width="0" fill="#ffff"></path><path d="M0 0 C2.76 0, 5.52 0, 8.95 0 M0 0 C3.46 0, 6.92 0, 8.95 0 M8.95 0 C8.95 2.66, 8.95 5.31, 8.95 8.95 M8.95 0 C8.95 3.43, 8.95 6.87, 8.95 8.95 M8.95 8.95 C6.47 8.95, 3.99 8.95, 0 8.95 M8.95 8.95 C6.17 8.95, 3.4 8.95, 0 8.95 M0 8.95 C0 6.45, 0 3.94, 0 0 M0 8.95 C0 6.48, 0 4.01, 0 0" stroke="#ffff" stroke-width="1" fill="none"></path></g><g stroke-linecap="round" transform="translate(48.24348335778154 41.25004724672465) rotate(0 4.473158195317012 4.473158195317012)"><path d="M0 0 L8.95 0 L8.95 8.95 L0 8.95" stroke="none" stroke-width="0" fill="#ffff"></path><path d="M0 0 C3.46 0, 6.93 0, 8.95 0 M0 0 C2.5 0, 4.99 0, 8.95 0 M8.95 0 C8.95 2.53, 8.95 5.05, 8.95 8.95 M8.95 0 C8.95 3.19, 8.95 6.38, 8.95 8.95 M8.95 8.95 C5.78 8.95, 2.61 8.95, 0 8.95 M8.95 8.95 C6.31 8.95, 3.67 8.95, 0 8.95 M0 8.95 C0 6.18, 0 3.41, 0 0 M0 8.95 C0 5.64, 0 2.33, 0 0" stroke="#ffff" stroke-width="1" fill="none"></path></g><g transform="translate(6 72.14819724236486) rotate(0 41 20)"><text x="0" y="0" font-family="Virgil, Segoe UI Emoji" font-size="16px" fill="#000000" text-anchor="start" style="white-space: pre;" direction="ltr" dominant-baseline="text-before-edge">Application</text><text x="0" y="20" font-family="Virgil, Segoe UI Emoji" font-size="16px" fill="#000000" text-anchor="start" style="white-space: pre;" direction="ltr" dominant-baseline="text-before-edge">Groups</text></g></svg>