<svg version="1.1" xmlns="http://www.w3.org/2000/svg" viewBox="0 0 83 103.15206420361096" width="83" height="103.15206420361096">
  <!-- svg-source:excalidraw -->
  
  <defs>
    
    
  </defs>
  <g stroke-linecap="round" transform="translate(10.053761431309113 15.122538288008684) rotate(0 30.79198596426488 19.66235248320527)"><path d="M0 0 L61.58 0 L61.58 39.32 L0 39.32" stroke="none" stroke-width="0" fill="#d3d3d3"></path><path d="M0 0 C13.88 0, 27.77 0, 61.58 0 M0 0 C15.92 0, 31.83 0, 61.58 0 M61.58 0 C61.58 9.74, 61.58 19.47, 61.58 39.32 M61.58 0 C61.58 13.11, 61.58 26.21, 61.58 39.32 M61.58 39.32 C39.07 39.32, 16.56 39.32, 0 39.32 M61.58 39.32 C47.22 39.32, 32.85 39.32, 0 39.32 M0 39.32 C0 24.34, 0 9.35, 0 0 M0 39.32 C0 30.9, 0 22.48, 0 0" stroke="#d3d3d3" stroke-width="1" fill="none"></path></g><g stroke-linecap="round" transform="translate(9.903314772886915 6) rotate(0 30.807667316592642 5.12400315819297)"><path d="M0 0 L61.62 0 L61.62 10.25 L0 10.25" stroke="none" stroke-width="0" fill="#37c2b1"></path><path d="M0 0 C13.54 0, 27.07 0, 61.62 0 M0 0 C21.28 0, 42.56 0, 61.62 0 M61.62 0 C61.62 2.89, 61.62 5.77, 61.62 10.25 M61.62 0 C61.62 4, 61.62 8.01, 61.62 10.25 M61.62 10.25 C49.07 10.25, 36.52 10.25, 0 10.25 M61.62 10.25 C45.33 10.25, 29.05 10.25, 0 10.25 M0 10.25 C0 6.86, 0 3.48, 0 0 M0 10.25 C0 7.14, 0 4.04, 0 0" stroke="#37c2b1" stroke-width="1" fill="none"></path></g><g stroke-linecap="round" transform="translate(18.11646017079852 21.087255825410807) rotate(0 23.198699166629353 3.3675531048332914)"><path d="M0 0 L46.4 0 L46.4 6.74 L0 6.74" stroke="none" stroke-width="0" fill="#ffff"></path><path d="M0 0 C9.39 0, 18.78 0, 46.4 0 M0 0 C10.82 0, 21.63 0, 46.4 0 M46.4 0 C46.4 1.89, 46.4 3.79, 46.4 6.74 M46.4 0 C46.4 1.49, 46.4 2.98, 46.4 6.74 M46.4 6.74 C31.17 6.74, 15.95 6.74, 0 6.74 M46.4 6.74 C30.36 6.74, 14.33 6.74, 0 6.74 M0 6.74 C0 4.51, 0 2.28, 0 0 M0 6.74 C0 4.49, 0 2.24, 0 0" stroke="#ffff" stroke-width="1" fill="none"></path></g><g stroke-linecap="round" transform="translate(18.11646017079852 31.56408770711431) rotate(0 23.198699166629353 3.3675531048332914)"><path d="M0 0 L46.4 0 L46.4 6.74 L0 6.74" stroke="none" stroke-width="0" fill="#37c2b1"></path><path d="M0 0 C16.66 0, 33.31 0, 46.4 0 M0 0 C15.04 0, 30.09 0, 46.4 0 M46.4 0 C46.4 2.37, 46.4 4.75, 46.4 6.74 M46.4 0 C46.4 2.2, 46.4 4.4, 46.4 6.74 M46.4 6.74 C31.38 6.74, 16.36 6.74, 0 6.74 M46.4 6.74 C36.07 6.74, 25.74 6.74, 0 6.74 M0 6.74 C0 5.14, 0 3.55, 0 0 M0 6.74 C0 4.06, 0 1.39, 0 0" stroke="#37c2b1" stroke-width="1" fill="none"></path></g><g stroke-linecap="round" transform="translate(18.11646017079852 41.292574454410214) rotate(0 23.198699166629353 3.3675531048332914)"><path d="M0 0 L46.4 0 L46.4 6.74 L0 6.74" stroke="none" stroke-width="0" fill="#258277"></path><path d="M0 0 C10.81 0, 21.61 0, 46.4 0 M0 0 C10.11 0, 20.23 0, 46.4 0 M46.4 0 C46.4 1.38, 46.4 2.76, 46.4 6.74 M46.4 0 C46.4 1.8, 46.4 3.61, 46.4 6.74 M46.4 6.74 C32.39 6.74, 18.38 6.74, 0 6.74 M46.4 6.74 C32.02 6.74, 17.64 6.74, 0 6.74 M0 6.74 C0 4.29, 0 1.85, 0 0 M0 6.74 C0 5.19, 0 3.64, 0 0" stroke="#258277" stroke-width="1" fill="none"></path></g><g transform="translate(6 57.15206420361096) rotate(0 35.5 20)"><text x="0" y="0" font-family="Virgil, Segoe UI Emoji" font-size="16px" fill="#000000" text-anchor="start" style="white-space: pre;" direction="ltr" dominant-baseline="text-before-edge">Storage</text><text x="0" y="20" font-family="Virgil, Segoe UI Emoji" font-size="16px" fill="#000000" text-anchor="start" style="white-space: pre;" direction="ltr" dominant-baseline="text-before-edge">Accounts</text></g></svg>