<svg xmlns="http://www.w3.org/2000/svg" viewBox="2757.28 320.02 473.00 263.00" width="473" height="263"><rect x="2913.76" y="359.14" width="149.02" height="139.08" rx="0" stroke="#0072ca" stroke-width="1" opacity="1.0" fill="#0072ca"/><ellipse cx="2992.52" cy="487.97" rx="71.76" ry="30.05" stroke="#0072ca" stroke-width="4" opacity="1.0" fill="#0072ca"/><ellipse cx="2987.44" cy="355.83" rx="73.68" ry="29.80" stroke="#e8e8e8" stroke-width="1" opacity="1.0" fill="#e8e8e8"/><ellipse cx="2986.61" cy="357.48" rx="52.98" ry="18.21" stroke="#50e6ff" stroke-width="1" opacity="1.0" fill="#50e6ff"/><polyline points="2945.69,359.14 2947.82,359.14 2956.34,360.43 2960.60,360.43 2964.85,360.43 2966.98,360.43 2973.37,360.43 2979.75,360.43 2981.88,360.43 2984.01,360.43 2988.27,360.43 2990.40,360.43 2992.53,361.71 2996.79,361.71 3003.17,361.71 3005.30,361.71 3007.43,361.71 3009.56,363.00 3011.69,363.00 3013.82,363.00 3015.94,363.00 3018.07,363.00 3020.20,363.00 3022.33,364.29 3024.46,364.29 3022.33,364.29 3020.20,364.29 3009.56,363.00 3007.43,363.00 2996.79,363.00 2994.66,363.00 2992.53,363.00 2988.27,363.00 2986.14,363.00 2984.01,363.00 2981.88,363.00 2979.75,363.00 2977.63,363.00 2975.50,363.00 2973.37,363.00 2971.24,363.00 2969.11,363.00 2966.98,363.00 2962.72,363.00 2960.60,363.00 2958.47,363.00 2956.34,363.00 2945.69,363.00 2943.56,364.29 2943.56,363.00 2954.21,360.43 2958.47,359.14 2966.98,359.14 2971.24,359.14 2973.37,359.14 2977.63,359.14 2981.88,359.14 2986.14,359.14 2990.40,359.14 2996.79,359.14 3001.04,359.14 3005.30,359.14 3007.43,359.14 3009.56,359.14 3011.69,359.14 3011.69,360.43 3013.82,360.43 3013.82,361.71 3015.94,361.71 3015.94,363.00 3018.07,363.00 3020.20,363.00 3022.33,363.00 3026.59,364.29 3028.72,364.29 3026.59,364.29 3022.33,364.29 3022.33,363.00 3007.43,363.00 3005.30,363.00 2998.91,363.00 2994.66,363.00 2990.40,363.00 2988.27,363.00 2986.14,363.00 2984.01,363.00 2979.75,363.00 2971.24,363.00 2969.11,363.00 2962.72,363.00 2960.60,363.00 2956.34,363.00 2954.21,363.00 2949.95,363.00 2947.82,363.00 2945.69,363.00 2947.82,361.71 2956.34,360.43 2958.47,360.43 2969.11,359.14 2971.24,359.14 2975.50,359.14 2977.63,359.14 2979.75,359.14 2981.88,359.14 2984.01,359.14 2986.14,359.14 2990.40,359.14 2992.53,359.14 2994.66,359.14 2996.79,359.14 2998.91,359.14 3001.04,359.14 3003.17,359.14 3005.30,359.14 3009.56,359.14 3011.69,359.14 3015.94,359.14 3018.07,359.14 3020.20,360.43 3022.33,360.43 3024.46,360.43 3026.59,361.71 3028.72,361.71 3028.72,363.00 3026.59,363.00 3024.46,363.00 3022.33,363.00 3020.20,363.00 3015.94,361.71 3013.82,361.71 3007.43,361.71 3005.30,361.71 3003.17,361.71 3001.04,361.71 2996.79,360.43 2990.40,360.43 2986.14,360.43 2984.01,360.43 2981.88,360.43 2979.75,360.43 2975.50,360.43 2971.24,360.43 2964.85,360.43 2962.72,360.43 2958.47,360.43 2956.34,360.43 2954.21,360.43 2952.08,360.43 2945.69,361.71 2945.69,363.00 2947.82,363.00 2954.21,363.00 2956.34,363.00 2958.47,363.00 2960.60,363.00 2964.85,363.00 2966.98,363.00 2973.37,363.00 2979.75,363.00 2981.88,363.00 2988.27,363.00 2990.40,363.00 2992.53,363.00 2994.66,363.00 2996.79,363.00 2998.91,363.00 3001.04,364.29 3003.17,364.29 3005.30,364.29 3007.43,364.29 3009.56,364.29 3011.69,364.29 3013.82,364.29 3013.82,365.58 3015.94,365.58 3013.82,365.58 3011.69,365.58 3009.56,365.58 3005.30,365.58 3001.04,365.58 2998.91,365.58 2996.79,365.58 2994.66,365.58 2992.53,365.58 2990.40,365.58 2988.27,365.58 2986.14,365.58 2984.01,365.58 2981.88,365.58 2979.75,365.58 2977.63,365.58 2975.50,365.58 2973.37,365.58 2971.24,365.58 2969.11,365.58 2966.98,366.87 2964.85,366.87 2960.60,366.87 2958.47,366.87 2956.34,366.87 2954.21,366.87 2952.08,366.87 2949.95,366.87 2947.82,366.87 2945.69,366.87 2943.56,365.58 2943.56,364.29 2943.56,363.00 2945.69,363.00 2947.82,361.71 2949.95,361.71 2952.08,360.43 2954.21,360.43 2956.34,360.43 2958.47,360.43 2962.72,360.43 2964.85,360.43 2969.11,360.43 2971.24,360.43 2973.37,360.43 2977.63,360.43 2979.75,360.43 2981.88,360.43 2986.14,360.43 2988.27,360.43 2990.40,360.43 2992.53,360.43 2994.66,360.43 2996.79,360.43 2998.91,360.43 3001.04,360.43 3003.17,360.43 3005.30,360.43 3007.43,360.43 3011.69,360.43 3013.82,360.43 3015.94,360.43 3015.94,361.71 3022.33,361.71 3026.59,363.00 3030.85,363.00 3032.97,363.00 3032.97,364.29 3032.97,365.58 3030.85,365.58 3026.59,365.58 3020.20,365.58 3015.94,365.58 3013.82,365.58 3011.69,365.58 3009.56,365.58 2998.91,366.87 2996.79,366.87 2992.53,366.87 2988.27,366.87 2986.14,366.87 2984.01,368.15 2981.88,368.15 2979.75,368.15 2977.63,368.15 2975.50,368.15 2973.37,368.15 2971.24,368.15 2969.11,368.15 2966.98,368.15 2964.85,368.15 2962.72,368.15 2960.60,368.15 2958.47,368.15 2956.34,368.15 2954.21,368.15 2952.08,368.15 2954.21,368.15 2956.34,368.15 2958.47,368.15 2962.72,369.44 2966.98,369.44 2969.11,370.73 2971.24,370.73 2973.37,370.73 2975.50,370.73 2977.63,370.73 2979.75,370.73 2981.88,370.73 2988.27,370.73 2994.66,370.73 2996.79,370.73 2998.91,370.73 3001.04,370.73 3003.17,370.73 3005.30,370.73 3007.43,370.73 3009.56,370.73 3011.69,369.44 3013.82,369.44 3015.94,369.44 3018.07,369.44 3018.07,368.15 3018.07,366.87 3020.20,366.87 3022.33,366.87 3024.46,366.87 3026.59,365.58 3026.59,364.29 3028.72,364.29 3028.72,363.00 3028.72,361.71 3028.72,361.71" fill="#32bedd" stroke="#32bedd" stroke-width="2" opacity="1.0" stroke-linecap="round" stroke-linejoin="round"/><text x="2763.28" y="570.02" font-size="28" fill="#000000" opacity="1.0" font-family="sans-serif">Azure Database for PostgreSQL</text><polyline points="3005.16,406.10 2995.50,403.25 2988.19,404.86 2981.32,406.59 2960.05,402.91 2945.29,412.54 2945.69,435.57 2954.42,459.47 2965.94,472.07 2977.48,458.70 2983.81,458.79 2985.98,460.78 2983.30,463.80 2979.68,465.81 2973.80,469.13 2982.46,470.28 2988.65,469.83 2992.45,470.90 2994.93,487.44 3000.61,497.63 3013.96,494.42 3018.07,485.19 3018.47,471.32 3020.24,466.18 3030.42,466.03 3037.66,460.49 3029.59,459.68 3024.51,456.03 3031.41,443.37 3038.59,427.24 3040.20,409.94 3028.56,403.37 3015.07,402.38 3005.16,406.10" fill="none" stroke="#e8e8e8" stroke-width="4" opacity="1.0" stroke-linecap="round" stroke-linejoin="round"/><polyline points="2983.62,406.75 2977.17,413.40 2973.97,425.48 2975.37,439.35 2973.51,447.46 2975.52,453.85 2980.37,457.16 2986.67,459.84 2992.08,461.59 2993.84,466.03 2991.10,468.87" fill="none" stroke="#e8e8e8" stroke-width="4" opacity="1.0" stroke-linecap="round" stroke-linejoin="round"/><polyline points="3004.80,406.10 3010.06,407.19 3018.11,413.53 3021.82,426.69 3020.89,439.23 3023.68,448.83 3021.51,455.79" fill="none" stroke="#e8e8e8" stroke-width="4" opacity="1.0" stroke-linecap="round" stroke-linejoin="round"/><polyline points="3019.22,467.27 3019.54,461.61 3021.84,459.19 3024.77,457.95 3021.27,455.51 3018.39,450.40 3015.33,443.37 3010.65,431.98 3012.67,425.02 3021.40,424.61" fill="none" stroke="#e8e8e8" stroke-width="4" opacity="1.0" stroke-linecap="round" stroke-linejoin="round"/><polyline points="2974.29,430.56 2979.34,427.98 2985.74,427.31 2989.30,432.57 2989.30,442.94 2987.13,450.68 2985.89,459.19" fill="none" stroke="#e8e8e8" stroke-width="4" opacity="1.0" stroke-linecap="round" stroke-linejoin="round"/><polyline points="3015.68,426.62 3013.20,427.92 3015.82,429.68 3018.09,427.16 3015.68,426.62" fill="none" stroke="#e8e8e8" stroke-width="4" opacity="1.0" stroke-linecap="round" stroke-linejoin="round" transform="rotate(358.19 3018.13 428.15)"/><polyline points="2983.60,429.29 2981.06,430.53 2983.30,432.17 2985.47,431.69 2986.26,429.39 2983.60,429.29" fill="none" stroke="#e8e8e8" stroke-width="4" opacity="1.0" stroke-linecap="round" stroke-linejoin="round" transform="rotate(14.80 2986.20 430.73)"/></svg>