<svg xmlns="http://www.w3.org/2000/svg" viewBox="-1836.25 -276.70 118.66 115.59" width="119" height="116"><polyline points="-1804.62,-260.54 -1804.81,-260.54 -1805.38,-260.34 -1805.77,-260.34 -1805.96,-260.15 -1806.15,-260.15 -1806.34,-260.15 -1806.54,-260.15 -1806.73,-260.15 -1806.92,-260.15 -1807.11,-260.15 -1807.30,-260.15 -1807.50,-260.15 -1807.69,-260.15 -1807.88,-260.15 -1808.07,-260.15 -1808.26,-260.34 -1808.46,-260.34 -1808.46,-260.54 -1808.65,-260.54 -1808.84,-260.54 -1809.03,-260.54 -1809.22,-260.73 -1809.42,-260.73 -1809.61,-260.73 -1809.80,-260.73 -1809.99,-260.92 -1810.76,-260.92 -1812.10,-261.11 -1813.06,-261.11 -1813.83,-261.11 -1814.02,-261.11 -1814.22,-261.30 -1814.41,-261.30 -1814.98,-261.30 -1815.94,-261.30 -1816.71,-261.30 -1817.29,-261.30 -1817.67,-261.30 -1817.87,-261.30 -1818.06,-261.30 -1818.25,-261.30 -1818.83,-261.30 -1819.98,-261.30 -1821.13,-261.30 -1821.71,-261.30 -1822.47,-261.30 -1822.86,-261.30 -1823.05,-261.30 -1823.24,-261.50 -1823.43,-261.50 -1823.63,-261.50 -1823.82,-261.50 -1824.01,-261.50 -1824.20,-261.50 -1824.39,-261.69 -1824.59,-261.69 -1824.78,-261.69 -1824.97,-261.69 -1825.35,-261.69 -1825.55,-261.69 -1825.93,-261.88 -1825.74,-261.88 -1824.39,-262.07 -1823.82,-262.07 -1822.67,-262.07 -1820.75,-262.07 -1819.79,-262.07 -1818.63,-262.07 -1818.25,-262.07 -1817.87,-262.07 -1816.71,-262.07 -1816.14,-262.07 -1815.37,-262.07 -1815.18,-262.07 -1814.98,-262.07 -1814.79,-261.88 -1814.60,-261.88 -1813.83,-261.88 -1813.06,-261.88 -1811.91,-261.88 -1810.95,-261.69 -1809.99,-261.50 -1809.22,-261.50 -1808.84,-261.50 -1808.65,-261.50 -1808.26,-261.50 -1808.07,-261.50 -1807.30,-261.50 -1806.73,-261.50 -1806.54,-261.50 -1806.34,-261.50 -1806.15,-261.50 -1805.96,-261.50 -1805.58,-261.50 -1805.38,-261.50 -1805.19,-261.50 -1804.42,-261.50 -1804.23,-261.50 -1803.85,-261.50 -1803.66,-261.50 -1802.89,-261.50 -1802.70,-261.50 -1802.31,-261.50 -1802.12,-261.50 -1801.73,-261.50 -1801.35,-261.50 -1801.16,-261.50 -1801.16,-261.50" fill="#4897e9" stroke="#4897e9" stroke-width="1" opacity="1.0" stroke-linecap="round" stroke-linejoin="round"/><rect x="-1830.25" y="-270.70" width="65.93" height="28.55" rx="0" stroke="#821010" stroke-width="1" opacity="1.0" fill="none"/><rect x="-1829.83" y="-270.22" width="21.34" height="9.10" rx="0" stroke="#8f1212" stroke-width="1" opacity="1.0" fill="#e62323"/><rect x="-1808.02" y="-270.24" width="21.34" height="9.10" rx="0" stroke="#8f1212" stroke-width="1" opacity="1.0" fill="#f16874"/><rect x="-1786.11" y="-270.24" width="21.34" height="9.10" rx="0" stroke="#8f1212" stroke-width="1" opacity="1.0" fill="#e62323"/><rect x="-1829.58" y="-251.01" width="21.34" height="9.10" rx="0" stroke="#8f1212" stroke-width="1" opacity="1.0" fill="#e62323"/><rect x="-1807.62" y="-251.03" width="21.34" height="9.10" rx="0" stroke="#8f1212" stroke-width="1" opacity="1.0" fill="#f16874"/><rect x="-1786.01" y="-250.88" width="21.34" height="9.10" rx="0" stroke="#8f1212" stroke-width="1" opacity="1.0" fill="#e62323"/><rect x="-1829.63" y="-260.55" width="21.34" height="9.10" rx="0" stroke="#8f1212" stroke-width="1" opacity="1.0" fill="#f16874"/><rect x="-1807.72" y="-260.55" width="21.34" height="9.10" rx="0" stroke="#8f1212" stroke-width="1" opacity="1.0" fill="#e62323"/><rect x="-1786.11" y="-260.55" width="21.34" height="9.10" rx="0" stroke="#8f1212" stroke-width="1" opacity="1.0" fill="#f16874"/><polyline points="-1789.11,-250.20 -1789.11,-221.78 -1772.04,-212.64 -1754.96,-220.28 -1754.96,-250.69 -1768.76,-254.35 -1776.48,-254.35 -1786.77,-251.19" fill="#ffd400" stroke="#ffd400" stroke-width="1" opacity="1.0" stroke-linecap="round" stroke-linejoin="round"/><polyline points="-1771.82,-213.52 -1772.26,-252.91" fill="#ffbe15" stroke="#ffbe15" stroke-width="4" opacity="1.0" stroke-linecap="round" stroke-linejoin="round"/><polyline points="-1755.94,-235.19 -1788.28,-234.97" fill="#ffbe15" stroke="#ffbe15" stroke-width="4" opacity="1.0" stroke-linecap="round" stroke-linejoin="round"/><text x="-1825.69" y="-191.10" font-size="16" fill="#000000" opacity="1.0" font-family="sans-serif">Firewall
Manager</text></svg>