<svg version="1.1" xmlns="http://www.w3.org/2000/svg" viewBox="0 0 317 110.5" width="317" height="110.5">
  <!-- svg-source:excalidraw -->
  
  <defs>
    
    
  </defs>
  <g transform="translate(115.5 6) rotate(0 48 13)"><text x="0" y="0" font-family="Virgil, Segoe UI Emoji" font-size="16px" fill="#000000" text-anchor="start" style="white-space: pre;" direction="ltr" dominant-baseline="text-before-edge">Idempotence</text></g><g transform="translate(139 36) rotate(0 14.5 13)"><text x="0" y="0" font-family="Virgil, Segoe UI Emoji" font-size="16px" fill="#000000" text-anchor="start" style="white-space: pre;" direction="ltr" dominant-baseline="text-before-edge">f(x)</text></g><g stroke-linecap="round" transform="translate(6 55.5) rotate(0 51 23.5)"><path d="M-1.51 0.03 L102.67 -0.38 L103.51 45.29 L-0.66 48.69" stroke="none" stroke-width="0" fill="#ced4da"></path><path d="M0 0 C40.11 2.16, 78.08 2.14, 102 0 M0 0 C32.03 -0.36, 65.61 -0.41, 102 0 M102 0 C103.32 11.66, 103.5 24.84, 102 47 M102 0 C101.64 10.73, 102.1 20.6, 102 47 M102 47 C76.59 45.07, 52.44 45.71, 0 47 M102 47 C75.63 47.74, 51.38 46.81, 0 47 M0 47 C-1.7 26.94, 1.15 8.88, 0 0 M0 47 C1 36.14, 0.92 24.64, 0 0" stroke="#000000" stroke-width="1" fill="none"></path></g><g stroke-linecap="round" transform="translate(209 56) rotate(0 51 23.5)"><path d="M0.03 0.67 L101.62 1.51 L100.29 46.34 L1.69 45.66" stroke="none" stroke-width="0" fill="#ced4da"></path><path d="M0 0 C26.46 -0.35, 51.5 -0.27, 102 0 M0 0 C24.72 1.25, 50.09 -0.2, 102 0 M102 0 C102.38 16.03, 103.82 27.45, 102 47 M102 0 C102.87 16.96, 102.69 33.7, 102 47 M102 47 C62.74 45.1, 25.33 45.39, 0 47 M102 47 C80.1 47.02, 56.78 47.27, 0 47 M0 47 C-0.93 34.31, -0.28 18.05, 0 0 M0 47 C0.52 35.51, -0.02 21.8, 0 0" stroke="#000000" stroke-width="1" fill="none"></path></g><g stroke-linecap="round"><g transform="translate(126.5 64.5) rotate(0 34.5 0)"><path d="M0.83 0.2 C12.09 0.11, 57.09 -0.22, 68.39 -0.39 M-0.19 -0.73 C11.39 -0.67, 59.47 0.81, 70.78 0.94" stroke="#087f5b" stroke-width="1" fill="none"></path></g><g transform="translate(126.5 64.5) rotate(0 34.5 0)"><path d="M42.37 10.57 C53.21 5.79, 62.73 2.65, 70.78 0.94 M42.37 10.57 C48.33 8.66, 56.37 6.97, 70.78 0.94" stroke="#087f5b" stroke-width="1" fill="none"></path></g><g transform="translate(126.5 64.5) rotate(0 34.5 0)"><path d="M42.83 -9.95 C53.52 -7.13, 62.88 -2.68, 70.78 0.94 M42.83 -9.95 C48.88 -7.12, 56.81 -4.08, 70.78 0.94" stroke="#087f5b" stroke-width="1" fill="none"></path></g></g><mask></mask><g transform="translate(140.5 73.75) rotate(0 14.5 13)"><text x="0" y="0" font-family="Virgil, Segoe UI Emoji" font-size="16px" fill="#000000" text-anchor="start" style="white-space: pre;" direction="ltr" dominant-baseline="text-before-edge">f(x)</text></g><g stroke-linecap="round"><g transform="translate(128 102.25) rotate(0 34.5 0)"><path d="M0.03 -0.35 C11.29 -0.17, 56.64 0.07, 68.21 0.11 M-1.41 -1.58 C10.18 -1.1, 58.78 1.25, 70.5 1.71" stroke="#087f5b" stroke-width="1" fill="none"></path></g><g transform="translate(128 102.25) rotate(0 34.5 0)"><path d="M41.88 10.71 C51.5 6.2, 62.39 5.07, 70.5 1.71 M41.88 10.71 C49.19 7.67, 58.76 4.82, 70.5 1.71" stroke="#087f5b" stroke-width="1" fill="none"></path></g><g transform="translate(128 102.25) rotate(0 34.5 0)"><path d="M42.79 -9.79 C51.92 -7.05, 62.49 -0.93, 70.5 1.71 M42.79 -9.79 C49.97 -6.86, 59.28 -3.73, 70.5 1.71" stroke="#087f5b" stroke-width="1" fill="none"></path></g></g><mask></mask><g transform="translate(232.5 47.5) rotate(0 22 28.5)"><text x="0" y="0" font-family="Virgil, Segoe UI Emoji" font-size="36px" fill="#087f5b" text-anchor="start" style="white-space: pre;" direction="ltr" dominant-baseline="text-before-edge">=X</text></g></svg>