<svg version="1.1" xmlns="http://www.w3.org/2000/svg" viewBox="0 0 317 131.75" width="317" height="131.75">
  <!-- svg-source:excalidraw -->
  
  <defs>
    
    
  </defs>
  <g transform="translate(87.5 6) rotate(0 88 13)"><text x="0" y="0" font-family="Virgil, Segoe UI Emoji" font-size="16px" fill="#000000" text-anchor="start" style="white-space: pre;" direction="ltr" dominant-baseline="text-before-edge">Static content hosting</text></g><g stroke-linecap="round" transform="translate(6 78.25) rotate(0 51 23.5)"><path d="M0.52 -1.25 L100.41 -0.33 L102.97 48.18 L-1.88 45.81" stroke="none" stroke-width="0" fill="#ced4da"></path><path d="M0 0 C35.63 -0.86, 72.84 -1.03, 102 0 M0 0 C36.13 -0.46, 69.83 0.01, 102 0 M102 0 C101.01 12.19, 102.74 27.81, 102 47 M102 0 C102.03 16.86, 102.14 33.84, 102 47 M102 47 C64.99 46.65, 25.79 46.68, 0 47 M102 47 C68.26 47.42, 32.28 47.89, 0 47 M0 47 C0.45 34.83, -1.06 20.42, 0 0 M0 47 C-0.71 36.63, -0.17 24.27, 0 0" stroke="#000000" stroke-width="1" fill="none"></path></g><g stroke-linecap="round" transform="translate(209 78.75) rotate(0 51 23.5)"><path d="M-1.25 -1.59 L101.67 0.97 L103.18 45.12 L-1.19 47.12" stroke="none" stroke-width="0" fill="#ced4da"></path><path d="M0 0 C39.03 -0.56, 79.64 1.64, 102 0 M0 0 C36.72 -1.56, 73.99 -1.09, 102 0 M102 0 C100.73 14.96, 103.06 29.56, 102 47 M102 0 C102.55 18, 102.85 37.35, 102 47 M102 47 C74.51 48.72, 46.38 48.56, 0 47 M102 47 C77.45 46.99, 53.16 47.49, 0 47 M0 47 C0.72 29.93, -0.84 13.32, 0 0 M0 47 C1.14 32.51, -0.03 18.58, 0 0" stroke="#000000" stroke-width="1" fill="none"></path></g><g stroke-linecap="round" transform="translate(140 47.75) rotate(0 19.5 10.25)"><path d="M0.7 -0.54 L38.08 -0.33 L39.79 20.75 L0.37 20.82" stroke="none" stroke-width="0" fill="#4c6ef5"></path><path d="M0 0 C16.24 0.5, 29.53 0.37, 39 0 M0 0 C12.9 0.14, 25.17 -0.1, 39 0 M39 0 C38.63 6.56, 38.06 13.53, 39 20.5 M39 0 C38.83 4.96, 38.99 9.58, 39 20.5 M39 20.5 C28.95 19.93, 16.2 20.73, 0 20.5 M39 20.5 C23.69 20.44, 7.98 20.7, 0 20.5 M0 20.5 C0.21 14.92, 0.85 10.41, 0 0 M0 20.5 C0.19 16.53, 0.36 11.6, 0 0" stroke="#000000" stroke-width="1" fill="none"></path></g><g stroke-linecap="round"><g transform="translate(113.5 99) rotate(0 46 -0.5)"><path d="M0.2 -0.97 C15.33 -0.99, 76.22 0.13, 91.66 -0.02 M-1.15 1.13 C13.71 0.78, 74.92 -1.28, 90.54 -1.63" stroke="#000000" stroke-width="1" fill="none"></path></g><g transform="translate(113.5 99) rotate(0 46 -0.5)"><path d="M62.65 9.44 C71.45 4.69, 85.13 2.56, 90.54 -1.63 M62.65 9.44 C68.61 7.36, 76.19 5.29, 90.54 -1.63" stroke="#000000" stroke-width="1" fill="none"></path></g><g transform="translate(113.5 99) rotate(0 46 -0.5)"><path d="M62.07 -11.08 C71.1 -8.15, 85 -2.61, 90.54 -1.63 M62.07 -11.08 C68.25 -8.44, 75.96 -5.81, 90.54 -1.63" stroke="#000000" stroke-width="1" fill="none"></path></g></g><mask></mask><g stroke-linecap="round"><g transform="translate(103.5 75) rotate(0 16 -7)"><path d="M-0.33 0.32 C5.1 -1.97, 26.98 -11.77, 32.33 -14.1 M0.5 0.01 C5.92 -2.17, 26.94 -11.03, 32.07 -13.46" stroke="#000000" stroke-width="1" fill="none"></path></g><g transform="translate(103.5 75) rotate(0 16 -7)"><path d="M19.48 -1.35 C23.18 -3.82, 25.67 -7.73, 32.07 -13.46 M19.48 -1.35 C24.08 -5.46, 28.5 -10.32, 32.07 -13.46" stroke="#000000" stroke-width="1" fill="none"></path></g><g transform="translate(103.5 75) rotate(0 16 -7)"><path d="M14.65 -12.28 C19.53 -11.99, 23.23 -13.16, 32.07 -13.46 M14.65 -12.28 C21.01 -12.4, 27.19 -13.28, 32.07 -13.46" stroke="#000000" stroke-width="1" fill="none"></path></g></g><mask></mask><g transform="translate(188.5 47) rotate(0 14 13)"><text x="0" y="0" font-family="Virgil, Segoe UI Emoji" font-size="16px" fill="#000000" text-anchor="start" style="white-space: pre;" direction="ltr" dominant-baseline="text-before-edge">.png</text></g><g transform="translate(187.5 35) rotate(0 19 13)"><text x="0" y="0" font-family="Virgil, Segoe UI Emoji" font-size="16px" fill="#000000" text-anchor="start" style="white-space: pre;" direction="ltr" dominant-baseline="text-before-edge">.font</text></g></svg>