<svg version="1.1" xmlns="http://www.w3.org/2000/svg" viewBox="0 0 94.60981288607059 93.48649747319848" width="94.60981288607059" height="93.48649747319848">
  <!-- svg-source:excalidraw -->
  
  <defs>
    
    
  </defs>
  <g stroke-linecap="round"><g transform="translate(47.12914088370326 6) rotate(0 0.17576555933203508 40.42909916470359)" fill-rule="evenodd"><path d="M-0.19 1.07 L-33.32 17.49 L-41.4 50.7 L-16.36 82.22 L23.21 81.49 L43.32 48.97 L35.46 15.37 L-1.16 -0.29" stroke="none" stroke-width="0" fill="#326ce5" fill-rule="evenodd"></path><path d="M0 0 C-5.66 5.37, -16.25 5.27, -34.1 16.31 M0 0 C-9.56 3.68, -17.39 8.64, -34.1 16.31 M-34.1 16.31 C-37.49 28.57, -40.41 39.9, -41.13 51.19 M-34.1 16.31 C-36.02 27.9, -40.11 40.99, -41.13 51.19 M-41.13 51.19 C-32.54 58.51, -25.53 68.27, -17.58 80.86 M-41.13 51.19 C-31.4 62.06, -23.88 74.46, -17.58 80.86 M-17.58 80.86 C-6.71 79.47, 9.36 79.69, 21.97 80.68 M-17.58 80.86 C-7.8 81.67, 3.15 81.78, 21.97 80.68 M21.97 80.68 C31.06 68.24, 36.91 55.47, 41.48 48.93 M21.97 80.68 C26.49 72.01, 31.62 64.31, 41.48 48.93 M41.48 48.93 C39.19 35.99, 36.67 23.29, 33.75 14.58 M41.48 48.93 C37.67 35.81, 35.02 21.55, 33.75 14.58 M33.75 14.58 C23.21 10.87, 14.16 7.27, 0 0 M33.75 14.58 C24.64 10.43, 16.4 7.83, 0 0 M0 0 C0 0, 0 0, 0 0 M0 0 C0 0, 0 0, 0 0" stroke="#000000" stroke-width="1" fill="none"></path></g></g><mask></mask><g transform="translate(37.46603361852658 65.38341536889311) rotate(0 10.5 10)"><text x="0" y="0" font-family="Virgil, Segoe UI Emoji" font-size="16px" fill="#fff" text-anchor="start" style="white-space: pre;" direction="ltr" dominant-baseline="text-before-edge">PV</text></g><g stroke-linecap="round"><g transform="translate(24.727615165279076 31.994901176117537) rotate(357.94700717729563 23.833050364768155 5.831597625675045)" fill-rule="evenodd"><path d="M0.75 -2 C0.75 -2, 0.75 -2, 0.75 -2 M0.75 -2 C0.75 -2, 0.75 -2, 0.75 -2 M-0.16 5.16 C2.99 1.53, 6.14 -2.1, 8.36 -4.65 M-0.16 5.16 C1.74 2.97, 3.64 0.79, 8.36 -4.65 M-0.43 11.56 C2.54 8.15, 5.5 4.74, 14.01 -5.05 M-0.43 11.56 C4.24 6.19, 8.9 0.83, 14.01 -5.05 M1.94 14.93 C7.19 8.89, 12.45 2.84, 19.65 -5.44 M1.94 14.93 C7.94 8.03, 13.94 1.12, 19.65 -5.44 M5.61 16.8 C11.03 10.57, 16.45 4.33, 24.64 -5.08 M5.61 16.8 C11.46 10.07, 17.31 3.34, 24.64 -5.08 M10.6 17.16 C15.02 12.08, 19.45 6.99, 30.28 -5.48 M10.6 17.16 C18.22 8.39, 25.84 -0.37, 30.28 -5.48 M15.59 17.52 C22.78 9.25, 29.97 0.98, 35.27 -5.12 M15.59 17.52 C22.99 9.01, 30.39 0.5, 35.27 -5.12 M21.23 17.13 C27.33 10.11, 33.43 3.1, 39.6 -4 M21.23 17.13 C25.45 12.27, 29.68 7.41, 39.6 -4 M26.22 17.49 C31.46 11.46, 36.7 5.43, 43.27 -2.13 M26.22 17.49 C32.74 9.98, 39.26 2.48, 43.27 -2.13 M31.86 17.09 C35.06 13.41, 38.26 9.73, 46.95 -0.26 M31.86 17.09 C35.83 12.53, 39.79 7.97, 46.95 -0.26 M36.85 17.45 C40.05 13.77, 43.25 10.09, 48 4.62 M36.85 17.45 C39.25 14.69, 41.65 11.93, 48 4.62 M43.15 16.31 C44.04 15.27, 44.94 14.24, 46.43 12.53 M43.15 16.31 C43.86 15.49, 44.57 14.67, 46.43 12.53 M0.11 13.59 C0.11 13.59, 0.11 13.59, 0.11 13.59 M0.11 13.59 C0.11 13.59, 0.11 13.59, 0.11 13.59 M9.53 16.48 C6.16 13.55, 2.79 10.62, -0.28 7.95 M9.53 16.48 C6.02 13.43, 2.52 10.38, -0.28 7.95 M15.93 16.74 C12.05 13.37, 8.17 10, 0.08 2.96 M15.93 16.74 C11.39 12.8, 6.86 8.86, 0.08 2.96 M22.32 17 C16.84 12.23, 11.36 7.47, 1.19 -1.37 M22.32 17 C16.35 11.81, 10.38 6.62, 1.19 -1.37 M28.72 17.26 C19.93 9.62, 11.13 1.97, 3.82 -4.39 M28.72 17.26 C21.93 11.36, 15.15 5.46, 3.82 -4.39 M34.36 16.87 C27.2 10.64, 20.03 4.41, 8.7 -5.44 M34.36 16.87 C25.97 9.57, 17.57 2.27, 8.7 -5.44 M40.01 16.47 C30.73 8.41, 21.46 0.35, 14.35 -5.83 M40.01 16.47 C30.18 7.93, 20.35 -0.61, 14.35 -5.83 M44.14 14.76 C37.52 9.01, 30.9 3.25, 19.99 -6.23 M44.14 14.76 C35.47 7.22, 26.79 -0.32, 19.99 -6.23 M46.77 11.75 C42.2 7.77, 37.63 3.8, 26.39 -5.97 M46.77 11.75 C41.11 6.83, 35.45 1.91, 26.39 -5.97 M47.88 7.41 C42.62 2.85, 37.37 -1.72, 32.03 -6.36 M47.88 7.41 C41.84 2.17, 35.81 -3.08, 32.03 -6.36 M47.49 1.77 C45.89 0.38, 44.29 -1, 39.94 -4.79 M47.49 1.77 C45.59 0.12, 43.7 -1.52, 39.94 -4.79" stroke="#fff" stroke-width="0.5" fill="none"></path><path d="M0 0 C0 2.25, -2.19 10.64, 0 13.49 C2.19 16.35, 7.96 16.47, 13.14 17.13 C18.31 17.8, 25.76 17.86, 31.03 17.5 C36.3 17.13, 41.97 17.44, 44.74 14.95 C47.51 12.46, 47.6 5.4, 47.67 2.55 C47.73 -0.29, 47.77 -0.73, 45.11 -2.12 C42.45 -3.51, 36.51 -5.15, 31.73 -5.77 C26.95 -6.39, 21.25 -6.16, 16.45 -5.84 C11.66 -5.51, 5.69 -4.78, 2.95 -3.83 C0.22 -2.89, 0.52 -0.78, 0.03 -0.17 M0 0 C0 2.25, -2.19 10.64, 0 13.49 C2.19 16.35, 7.96 16.47, 13.14 17.13 C18.31 17.8, 25.76 17.86, 31.03 17.5 C36.3 17.13, 41.97 17.44, 44.74 14.95 C47.51 12.46, 47.6 5.4, 47.67 2.55 C47.73 -0.29, 47.77 -0.73, 45.11 -2.12 C42.45 -3.51, 36.51 -5.15, 31.73 -5.77 C26.95 -6.39, 21.25 -6.16, 16.45 -5.84 C11.66 -5.51, 5.69 -4.78, 2.95 -3.83 C0.22 -2.89, 0.52 -0.78, 0.03 -0.17" stroke="#fff" stroke-width="1" fill="none"></path></g></g><mask></mask><g stroke-linecap="round"><g transform="translate(25.27510192866248 30.52518281498351) rotate(357.94700717729563 22.32540863667282 2.3920080682149774)"><path d="M0 0 C2.13 0.78, 7.4 3.87, 12.76 4.67 C18.11 5.47, 26.81 5.07, 32.12 4.78 C37.44 4.5, 42.56 3.27, 44.65 2.96 M0 0 C2.13 0.78, 7.4 3.87, 12.76 4.67 C18.11 5.47, 26.81 5.07, 32.12 4.78 C37.44 4.5, 42.56 3.27, 44.65 2.96" stroke="#fff" stroke-width="1" fill="none"></path></g></g><mask></mask></svg>