<svg xmlns="http://www.w3.org/2000/svg" viewBox="1590.86 873.47 214.31 204.52" width="214" height="205"><ellipse cx="1697.42" cy="977.44" rx="83.84" ry="82.21" stroke="black" stroke-width="1" opacity="1.0" fill="none"/><ellipse cx="1691.83" cy="898.73" rx="18.60" ry="19.26" stroke="black" stroke-width="1" opacity="1.0" fill="black"/><ellipse cx="1698.14" cy="1052.72" rx="18.60" ry="19.26" stroke="black" stroke-width="1" opacity="1.0" fill="black"/><ellipse cx="1780.58" cy="973.99" rx="18.60" ry="19.26" stroke="black" stroke-width="1" opacity="1.0" fill="black"/><ellipse cx="1615.46" cy="976.61" rx="18.60" ry="19.26" stroke="black" stroke-width="1" opacity="1.0" fill="black"/><rect x="1615.30" y="946.76" width="14.52" height="8.62" rx="0" stroke="white" stroke-width="1" opacity="1.0" fill="white"/><rect x="1616.58" y="998.77" width="14.52" height="8.62" rx="0" stroke="white" stroke-width="1" opacity="1.0" fill="white"/><rect x="1768.22" y="944.46" width="14.52" height="8.62" rx="0" stroke="white" stroke-width="1" opacity="1.0" fill="white" transform="rotate(343.76 1775.48 948.77)"/><rect x="1662.33" y="1054.21" width="14.52" height="8.62" rx="0" stroke="white" stroke-width="1" opacity="1.0" fill="white" transform="rotate(343.76 1669.59 1058.53)"/><rect x="1718.98" y="1049.24" width="14.52" height="8.62" rx="0" stroke="white" stroke-width="1" opacity="1.0" fill="white" transform="rotate(356.34 1726.24 1053.55)"/><rect x="1771.08" y="994.53" width="14.52" height="8.62" rx="0" stroke="white" stroke-width="1" opacity="1.0" fill="white" transform="rotate(16.98 1778.34 998.84)"/><rect x="1661.22" y="894.30" width="14.52" height="8.62" rx="0" stroke="white" stroke-width="1" opacity="1.0" fill="white" transform="rotate(84.22 1668.47 898.61)"/><rect x="1710.88" y="891.09" width="14.52" height="8.62" rx="0" stroke="white" stroke-width="1" opacity="1.0" fill="white" transform="rotate(84.22 1718.14 895.41)"/><rect x="1676.26" y="977.20" width="43.78" height="28.68" rx="0" stroke="black" stroke-width="4" opacity="1.0" fill="white"/><polyline points="1688.58,977.03 1688.65,954.28 1709.76,952.64 1710.40,975.52" fill="white" stroke="black" stroke-width="4" opacity="1.0" stroke-linecap="round" stroke-linejoin="round"/><ellipse cx="1698.70" cy="987.07" rx="4.20" ry="4.12" stroke="black" stroke-width="4" opacity="1.0" fill="black"/><ellipse cx="1698.76" cy="993.39" rx="1.52" ry="5.56" stroke="black" stroke-width="4" opacity="1.0" fill="black"/></svg>