<svg version="1.1" xmlns="http://www.w3.org/2000/svg" viewBox="0 0 94.60981288607081 93.42183688909466" width="94.60981288607081" height="93.42183688909466">
  <!-- svg-source:excalidraw -->
  
  <defs>
    
    
  </defs>
  <g stroke-linecap="round"><g transform="translate(47.12914088370326 6) rotate(0 0.17576555933214877 40.429099164703615)" fill-rule="evenodd"><path d="M1.55 0.08 L-33.75 15.74 L-41.05 51.1 L-18.82 80.05 L22.37 80.39 L39.91 48.25 L32.79 16.52 L0.57 0.16" stroke="none" stroke-width="0" fill="#326ce5" fill-rule="evenodd"></path><path d="M0 0 C-11.33 6.75, -23.72 11.03, -34.1 16.31 M0 0 C-12.89 5.25, -23.79 12.35, -34.1 16.31 M-34.1 16.31 C-35.07 28.8, -37.03 38.16, -41.13 51.19 M-34.1 16.31 C-36.49 25.13, -37.02 32.49, -41.13 51.19 M-41.13 51.19 C-35.01 56.61, -31.76 62.96, -17.58 80.86 M-41.13 51.19 C-32.93 63.37, -23.65 75.34, -17.58 80.86 M-17.58 80.86 C-5.73 81.4, 7.18 81.87, 21.97 80.68 M-17.58 80.86 C-3.76 80.97, 7.19 81.28, 21.97 80.68 M21.97 80.68 C24.47 75.53, 31.47 67.52, 41.48 48.93 M21.97 80.68 C27.72 70.6, 35.28 59.39, 41.48 48.93 M41.48 48.93 C37.71 35.38, 34.07 22.43, 33.75 14.58 M41.48 48.93 C39.94 42.5, 37.48 34.06, 33.75 14.58 M33.75 14.58 C25.24 12.61, 18.34 9.58, 0 0 M33.75 14.58 C23.98 9.58, 15.52 5.54, 0 0 M0 0 C0 0, 0 0, 0 0 M0 0 C0 0, 0 0, 0 0" stroke="#000000" stroke-width="1" fill="none"></path></g></g><mask></mask><g transform="translate(35.34028962523007 67.10956900475702) rotate(0 13.5 9.5)"><text x="13.5" y="0" font-family="Virgil, Segoe UI Emoji" font-size="14.808136549630337px" fill="#fff" text-anchor="middle" style="white-space: pre;" direction="ltr" dominant-baseline="text-before-edge">Job</text></g><g stroke-linecap="round" transform="translate(27.642888649823817 52.15118366364953) rotate(0 3.257082250298936 3.2570822502989927)"><path d="M1.63 0 C2.85 -0.1, 3.5 0.29, 4.89 0 C3.91 0.46, 5.53 0.5, 6.51 1.63 C6.74 3.16, 6.16 4.27, 6.51 4.89 C7.17 4.13, 6.34 4.67, 4.89 6.51 C3.55 6.54, 2.41 6.29, 1.63 6.51 C-0.37 6.96, -0.33 4.19, 0 4.89 C0.12 4.05, 0.18 3.49, 0 1.63 C0.79 1.39, -0.52 -0.86, 1.63 0" stroke="none" stroke-width="0" fill="#fff"></path><path d="M1.63 0 C2.48 -0.04, 3.25 -0.1, 4.89 0 M1.63 0 C2.82 0.04, 3.99 -0.02, 4.89 0 M4.89 0 C6.19 0.52, 6.76 1.2, 6.51 1.63 M4.89 0 C5.34 -0.54, 6.37 -0.2, 6.51 1.63 M6.51 1.63 C6.54 2.29, 6.57 3.23, 6.51 4.89 M6.51 1.63 C6.48 2.79, 6.47 3.82, 6.51 4.89 M6.51 4.89 C5.96 6.23, 5.42 6.98, 4.89 6.51 M6.51 4.89 C6.76 6.53, 6.4 6.03, 4.89 6.51 M4.89 6.51 C3.8 6.53, 2.73 6.63, 1.63 6.51 M4.89 6.51 C3.73 6.48, 2.69 6.47, 1.63 6.51 M1.63 6.51 C1.07 6.87, 0.08 6.11, 0 4.89 M1.63 6.51 C0.54 6.78, -0.39 6.1, 0 4.89 M0 4.89 C0.05 3.59, -0.02 2.41, 0 1.63 M0 4.89 C-0.03 4.07, -0.01 3.38, 0 1.63 M0 1.63 C-0.61 0.39, -0.11 0.58, 1.63 0 M0 1.63 C0.02 -0.06, 0.91 -0.64, 1.63 0" stroke="#fff" stroke-width="4" fill="none"></path></g><g stroke-linecap="round" transform="translate(44.11037984519817 52.43285990935118) rotate(0 3.257082250298936 3.2570822502989927)"><path d="M1.63 0 C2.42 -0.37, 3.73 -0.35, 4.89 0 C6.43 -0.98, 6.47 2.27, 6.51 1.63 C6.81 2.17, 6.69 3.51, 6.51 4.89 C4.67 6.34, 4.13 8.27, 4.89 6.51 C3.91 6.49, 2.67 6.35, 1.63 6.51 C0.99 6.18, -1.78 5.2, 0 4.89 C-0.01 4.23, 0.3 3.37, 0 1.63 C0.85 -0.52, -0.31 0.71, 1.63 0" stroke="none" stroke-width="0" fill="#fff"></path><path d="M1.63 0 C2.77 0.05, 3.89 0.06, 4.89 0 M1.63 0 C2.4 0.02, 3.07 0.01, 4.89 0 M4.89 0 C6.5 0.25, 7.17 0, 6.51 1.63 M4.89 0 C5.44 -0.15, 5.77 0, 6.51 1.63 M6.51 1.63 C6.43 2.93, 6.62 4.18, 6.51 4.89 M6.51 1.63 C6.56 2.42, 6.48 3.25, 6.51 4.89 M6.51 4.89 C6.78 5.42, 6.43 6.73, 4.89 6.51 M6.51 4.89 C7.08 6.4, 5.48 6.83, 4.89 6.51 M4.89 6.51 C4.16 6.58, 3.52 6.56, 1.63 6.51 M4.89 6.51 C4.16 6.53, 3.47 6.55, 1.63 6.51 M1.63 6.51 C0.9 6.6, 0.14 5.97, 0 4.89 M1.63 6.51 C0.81 6.13, 0.13 6.58, 0 4.89 M0 4.89 C-0.07 4.15, -0.01 3.42, 0 1.63 M0 4.89 C-0.02 3.81, 0.06 2.7, 0 1.63 M0 1.63 C-0.15 -0.11, 1.13 0.02, 1.63 0 M0 1.63 C-0.6 0.91, -0.1 0.33, 1.63 0" stroke="#fff" stroke-width="4" fill="none"></path></g><g stroke-linecap="round" transform="translate(26.83694889785511 36.72460084260791) rotate(0 3.257082250298936 3.2570822502989927)"><path d="M1.63 0 C2.02 0.28, 2.81 0.09, 4.89 0 C4.99 -0.04, 8.24 -0.07, 6.51 1.63 C6.19 2.66, 6.64 3.01, 6.51 4.89 C6.88 4.13, 7.73 6.61, 4.89 6.51 C3.84 6.29, 2.67 6.59, 1.63 6.51 C0.21 4.73, -0.77 4.89, 0 4.89 C0.15 3.93, 0.12 2.44, 0 1.63 C-1.07 -0.31, 1.25 -1.34, 1.63 0" stroke="none" stroke-width="0" fill="#fff"></path><path d="M1.63 0 C2.83 -0.09, 3.98 -0.08, 4.89 0 M1.63 0 C2.4 -0.03, 3.14 0.04, 4.89 0 M4.89 0 C6.22 0.66, 5.97 0.08, 6.51 1.63 M4.89 0 C5.83 -0.75, 5.97 1.2, 6.51 1.63 M6.51 1.63 C6.57 2.83, 6.56 3.78, 6.51 4.89 M6.51 1.63 C6.47 2.4, 6.46 3.24, 6.51 4.89 M6.51 4.89 C5.96 6.43, 6.18 7, 4.89 6.51 M6.51 4.89 C6.94 5.48, 6.29 5.95, 4.89 6.51 M4.89 6.51 C3.76 6.62, 2.54 6.42, 1.63 6.51 M4.89 6.51 C3.68 6.46, 2.47 6.54, 1.63 6.51 M1.63 6.51 C0.63 6.65, 0 6.21, 0 4.89 M1.63 6.51 C0.16 6.64, 0.61 5.31, 0 4.89 M0 4.89 C-0.04 3.61, -0.07 2.36, 0 1.63 M0 4.89 C0 4.24, -0.04 3.49, 0 1.63 M0 1.63 C-0.66 1.13, 0.56 -0.52, 1.63 0 M0 1.63 C0.37 -0.1, 0.88 -0.14, 1.63 0" stroke="#fff" stroke-width="4" fill="none"></path></g><g stroke-linecap="round" transform="translate(43.30444009322855 37.00627708830979) rotate(0 3.257082250298936 3.2570822502989927)"><path d="M1.63 0 C2.96 -0.3, 3.85 -0.12, 4.89 0 C5.93 1.73, 5.9 -0.4, 6.51 1.63 C6.74 2.92, 6.24 4.05, 6.51 4.89 C4.67 7.73, 6.06 6.91, 4.89 6.51 C3.77 6.36, 3.19 6.46, 1.63 6.51 C-1.24 5.74, -1.08 8.18, 0 4.89 C0.34 3.94, 0.14 2.57, 0 1.63 C-0.86 1.25, -0.8 -1.05, 1.63 0" stroke="none" stroke-width="0" fill="#fff"></path><path d="M1.63 0 C2.71 0.06, 3.91 -0.08, 4.89 0 M1.63 0 C2.7 0.01, 3.88 0.02, 4.89 0 M4.89 0 C6.63 -0.55, 6.05 0.42, 6.51 1.63 M4.89 0 C5.23 -0.54, 7.17 0.84, 6.51 1.63 M6.51 1.63 C6.61 2.71, 6.46 3.65, 6.51 4.89 M6.51 1.63 C6.5 2.39, 6.55 3.2, 6.51 4.89 M6.51 4.89 C6.98 6.18, 6.46 6.88, 4.89 6.51 M6.51 4.89 C6.03 6.29, 5.4 7.03, 4.89 6.51 M4.89 6.51 C3.93 6.56, 2.67 6.6, 1.63 6.51 M4.89 6.51 C4.15 6.56, 3.55 6.53, 1.63 6.51 M1.63 6.51 C0.68 6.52, 0.23 5.63, 0 4.89 M1.63 6.51 C0.67 7.13, -0.66 6.68, 0 4.89 M0 4.89 C0.01 3.74, 0.04 2.62, 0 1.63 M0 4.89 C0.06 4.05, -0.01 3.25, 0 1.63 M0 1.63 C0.58 0.56, 0.02 0.32, 1.63 0 M0 1.63 C-0.64 0.88, 0.41 -0.52, 1.63 0" stroke="#fff" stroke-width="4" fill="none"></path></g><g stroke-linecap="round" transform="translate(58.32413251370781 21.00817216545437) rotate(89.99999999999994 3.257082250298936 3.2570822502989927)"><path d="M1.63 0 C2.16 0.05, 3.2 -0.03, 4.89 0 C7.7 -0.61, 5.57 1.96, 6.51 1.63 C6.59 2.58, 6.54 3.83, 6.51 4.89 C8.27 6.06, 6.36 5.87, 4.89 6.51 C3.75 6.56, 2.85 6.2, 1.63 6.51 C-0.23 5.43, 2.2 6.62, 0 4.89 C0.11 4.02, -0.19 2.74, 0 1.63 C0.71 -0.8, -0.5 -1.42, 1.63 0" stroke="none" stroke-width="0" fill="#fff"></path><path d="M1.63 0 C2.57 -0.07, 3.3 0.05, 4.89 0 M1.63 0 C2.84 0.05, 4.03 0.06, 4.89 0 M4.89 0 C5.43 -0.47, 6.39 -0.11, 6.51 1.63 M4.89 0 C5.43 0.66, 6.81 0.69, 6.51 1.63 M6.51 1.63 C6.56 2.3, 6.46 3, 6.51 4.89 M6.51 1.63 C6.46 2.93, 6.46 4.23, 6.51 4.89 M6.51 4.89 C6.73 6.46, 6.34 6.09, 4.89 6.51 M6.51 4.89 C6.83 5.4, 6.49 6.7, 4.89 6.51 M4.89 6.51 C3.93 6.43, 2.97 6.43, 1.63 6.51 M4.89 6.51 C4.2 6.53, 3.43 6.52, 1.63 6.51 M1.63 6.51 C0.54 6.75, -0.34 6.08, 0 4.89 M1.63 6.51 C1.15 5.86, 0.71 6.22, 0 4.89 M0 4.89 C-0.06 4.13, -0.09 3.25, 0 1.63 M0 4.89 C-0.05 4.09, -0.05 3.36, 0 1.63 M0 1.63 C0.02 0.02, 0.87 -0.56, 1.63 0 M0 1.63 C0.33 0.41, 0.02 0.22, 1.63 0" stroke="#fff" stroke-width="4" fill="none"></path></g><g stroke-linecap="round" transform="translate(58.8874850051111 36.53689081579313) rotate(89.99999999999994 3.257082250298936 3.2570822502989927)"><path d="M1.63 0 C2.36 -0.13, 2.94 0.31, 4.89 0 C5.36 -0.94, 7.94 2.43, 6.51 1.63 C6.23 2.36, 6.23 3.26, 6.51 4.89 C6.61 6.36, 5.33 6.6, 4.89 6.51 C3.99 6.44, 2.67 6.37, 1.63 6.51 C-0.54 8.72, 0.65 6.15, 0 4.89 C0.1 3.59, -0.17 2.76, 0 1.63 C-1.34 -0.5, -0.87 0.56, 1.63 0" stroke="none" stroke-width="0" fill="#fff"></path><path d="M1.63 0 C2.7 -0.08, 3.97 0.06, 4.89 0 M1.63 0 C2.77 0.02, 3.87 -0.05, 4.89 0 M4.89 0 C5.51 -0.13, 5.87 0.07, 6.51 1.63 M4.89 0 C6.63 0.29, 6.66 -0.07, 6.51 1.63 M6.51 1.63 C6.48 2.69, 6.47 3.98, 6.51 4.89 M6.51 1.63 C6.53 2.31, 6.55 3.09, 6.51 4.89 M6.51 4.89 C7 6.34, 5.55 6.79, 4.89 6.51 M6.51 4.89 C5.95 6.49, 6.16 6.57, 4.89 6.51 M4.89 6.51 C3.61 6.6, 2.44 6.44, 1.63 6.51 M4.89 6.51 C3.8 6.53, 2.68 6.52, 1.63 6.51 M1.63 6.51 C0.78 6.18, 0.11 6.5, 0 4.89 M1.63 6.51 C-0.12 7.23, 0.25 5.53, 0 4.89 M0 4.89 C0.03 3.91, -0.06 3.07, 0 1.63 M0 4.89 C-0.02 3.89, 0.04 3, 0 1.63 M0 1.63 C-0.52 0.87, -0.01 0.29, 1.63 0 M0 1.63 C-0.14 0.02, 0.76 -0.26, 1.63 0" stroke="#fff" stroke-width="4" fill="none"></path></g><g stroke-linecap="round" transform="translate(58.605808759408774 53.004382011165205) rotate(89.99999999999994 3.257082250298936 3.2570822502989927)"><path d="M1.63 0 C2.68 -0.01, 4.33 -0.11, 4.89 0 C5.03 1.42, 8.41 -1.59, 6.51 1.63 C6.59 2.48, 6.81 3.94, 6.51 4.89 C6.91 5.33, 6.06 6.42, 4.89 6.51 C4.06 6.23, 3.21 6.34, 1.63 6.51 C2.75 7.16, 0.18 6.96, 0 4.89 C-0.19 3.47, 0.1 2.12, 0 1.63 C-1.05 -0.87, 1.1 -1.4, 1.63 0" stroke="none" stroke-width="0" fill="#fff"></path><path d="M1.63 0 C2.25 0.05, 3.09 0.05, 4.89 0 M1.63 0 C2.46 0.05, 3.21 -0.05, 4.89 0 M4.89 0 C5.84 -0.65, 6.05 1.11, 6.51 1.63 M4.89 0 C6.27 0.15, 5.9 0.89, 6.51 1.63 M6.51 1.63 C6.46 2.85, 6.62 4.11, 6.51 4.89 M6.51 1.63 C6.46 2.48, 6.52 3.3, 6.51 4.89 M6.51 4.89 C6.88 5.55, 6.24 6.02, 4.89 6.51 M6.51 4.89 C7.03 6.16, 6.03 6.98, 4.89 6.51 M4.89 6.51 C3.67 6.41, 2.21 6.55, 1.63 6.51 M4.89 6.51 C4.21 6.53, 3.53 6.54, 1.63 6.51 M1.63 6.51 C0.21 6.63, 0.53 5.4, 0 4.89 M1.63 6.51 C1.26 6.77, -0.44 5.73, 0 4.89 M0 4.89 C-0.09 3.85, -0.06 2.92, 0 1.63 M0 4.89 C-0.04 3.66, 0.01 2.29, 0 1.63 M0 1.63 C0.32 -0.01, 0.83 -0.12, 1.63 0 M0 1.63 C-0.52 0.76, 0.28 -0.75, 1.63 0" stroke="#fff" stroke-width="4" fill="none"></path></g></svg>