<svg xmlns="http://www.w3.org/2000/svg" viewBox="1407.63 940.64 155.99 158.62" width="156" height="159"><ellipse cx="1485.68" cy="1015.61" rx="71.94" ry="68.97" stroke="#000000" stroke-width="2" opacity="1.0" fill="none"/><polyline points="1487.52,950.10 1485.14,1084.47" fill="none" stroke="#000000" stroke-width="2" opacity="1.0" stroke-linecap="round" stroke-linejoin="round"/><polyline points="1440.75,969.24 1438.37,968.05 1438.37,966.86 1443.13,972.81 1458.59,983.51 1503.78,991.83 1508.53,989.45 1527.56,984.70 1543.02,972.81 1543.02,970.43 1544.21,970.43 1543.02,973.99" fill="none" stroke="#000000" stroke-width="2" opacity="1.0" stroke-linecap="round" stroke-linejoin="round"/><polyline points="1436.29,1070.26 1456.50,1055.99 1506.45,1042.91 1521.90,1045.29 1536.17,1058.37 1538.55,1063.12 1540.93,1064.31" fill="none" stroke="#000000" stroke-width="2" opacity="1.0" stroke-linecap="round" stroke-linejoin="round"/><polyline points="1413.63,1018.85 1553.94,1020.04" fill="none" stroke="#000000" stroke-width="2" opacity="1.0" stroke-linecap="round" stroke-linejoin="round"/><polyline points="1486.22,953.45 1489.79,952.26 1495.73,953.45 1511.19,965.34 1513.57,968.91 1521.90,1010.53 1521.90,1029.55 1514.76,1053.34 1502.87,1075.93 1492.17,1087.82 1488.60,1086.63 1488.60,1087.82" fill="none" stroke="#000000" stroke-width="2" opacity="1.0" stroke-linecap="round" stroke-linejoin="round"/><polyline points="1484.82,956.00 1483.63,953.63 1463.42,969.09 1449.15,992.87 1443.20,1027.35 1447.96,1049.95 1453.90,1060.65 1458.66,1061.84 1468.17,1068.97 1474.12,1078.49 1478.88,1078.49" fill="none" stroke="#000000" stroke-width="2" opacity="1.0" stroke-linecap="round" stroke-linejoin="round"/></svg>