<svg version="1.1" xmlns="http://www.w3.org/2000/svg" viewBox="0 0 94.60981288607081 93.16619119197378" width="94.60981288607081" height="93.16619119197378">
  <!-- svg-source:excalidraw -->
  
  <defs>
    
    
  </defs>
  <g stroke-linecap="round"><g transform="translate(47.12914088370326 6) rotate(0 0.17576555933214877 40.42909916470359)" fill-rule="evenodd"><path d="M1.05 1.37 L-36.09 16.59 L-42.3 51.91 L-16.07 82.43 L20.64 80.54 L42.45 50.32 L34.19 14 L1.93 1.24" stroke="none" stroke-width="0" fill="#326ce5" fill-rule="evenodd"></path><path d="M0 0 C-11.35 7.73, -23.71 9.65, -34.1 16.31 M0 0 C-8.11 3.84, -16.15 7.26, -34.1 16.31 M-34.1 16.31 C-38.44 31.41, -39.34 42.11, -41.13 51.19 M-34.1 16.31 C-37.54 29.69, -40.01 42.71, -41.13 51.19 M-41.13 51.19 C-31.02 61.07, -22.59 74.33, -17.58 80.86 M-41.13 51.19 C-34.95 58.84, -28.54 66.56, -17.58 80.86 M-17.58 80.86 C-4.8 81.12, 10.68 81.47, 21.97 80.68 M-17.58 80.86 C-7.2 80.42, 4.32 81.03, 21.97 80.68 M21.97 80.68 C28.41 73.14, 33.55 62.16, 41.48 48.93 M21.97 80.68 C27.16 71.5, 34.21 61.43, 41.48 48.93 M41.48 48.93 C39.15 38.39, 35.33 26.91, 33.75 14.58 M41.48 48.93 C40.35 39.99, 37.04 32.41, 33.75 14.58 M33.75 14.58 C21.15 8.6, 7.03 5.08, 0 0 M33.75 14.58 C23.58 9.56, 14.51 4.97, 0 0 M0 0 C0 0, 0 0, 0 0 M0 0 C0 0, 0 0, 0 0" stroke="#000000" stroke-width="1" fill="none"></path></g></g><mask></mask><g transform="translate(37.9788126367539 64.88511553816625) rotate(0 11 10)"><text x="0" y="0" font-family="Virgil, Segoe UI Emoji" font-size="16px" fill="#fff" text-anchor="start" style="white-space: pre;" direction="ltr" dominant-baseline="text-before-edge">NS</text></g><g stroke-linecap="round" transform="translate(19.64427600692079 22.947223579177944) rotate(0 28.495765663477187 18.434758543332862)"><path d="M0 0 C16.74 0, 33.48 0, 56.99 0 M56.99 0 C56.99 10.39, 56.99 20.77, 56.99 36.87 M56.99 36.87 C39.12 36.87, 21.26 36.87, 0 36.87 M0 36.87 C0 27.29, 0 17.71, 0 0" stroke="#fff" stroke-width="1.5" fill="none" stroke-dasharray="1.5 7"></path></g></svg>