<svg xmlns="http://www.w3.org/2000/svg" viewBox="1549.37 258.40 565.46 523.03" width="565" height="523"><polyline points="1586.23,441.28 1577.51,362.42 1595.07,293.48 1648.91,264.40 1707.41,266.96 1730.87,290.42 1747.87,357.87 1733.52,439.24" fill="#c92a2a" stroke="#c92a2a" stroke-width="4" opacity="1.0" stroke-linecap="round" stroke-linejoin="round"/><polyline points="1594.08,388.44 1585.33,425.77 1593.17,450.65 1624.41,449.81 1625.85,478.16 1702.65,476.91 1699.05,446.06 1730.43,441.30 1737.04,416.60 1730.58,382.01" fill="#c92a2a" stroke="#c92a2a" stroke-width="4" opacity="1.0" stroke-linecap="round" stroke-linejoin="round"/><ellipse cx="1627.33" cy="401.75" rx="25.81" ry="22.79" stroke="#c92a2a" stroke-width="4" opacity="1.0" fill="#c92a2a"/><ellipse cx="1697.32" cy="399.67" rx="25.81" ry="22.79" stroke="#c92a2a" stroke-width="4" opacity="1.0" fill="#c92a2a"/><polyline points="1659.44,425.80 1655.92,443.72 1651.36,448.38" fill="#c92a2a" stroke="#c92a2a" stroke-width="4" opacity="1.0" stroke-linecap="round" stroke-linejoin="round"/><polyline points="1662.43,427.44 1664.33,450.66 1671.48,449.83" fill="#c92a2a" stroke="#c92a2a" stroke-width="4" opacity="1.0" stroke-linecap="round" stroke-linejoin="round"/><polyline points="1634.78,460.54 1629.72,476.11" fill="#c92a2a" stroke="#c92a2a" stroke-width="4" opacity="1.0" stroke-linecap="round" stroke-linejoin="round"/><polyline points="1643.71,464.15 1640.18,479.54" fill="#c92a2a" stroke="#c92a2a" stroke-width="4" opacity="1.0" stroke-linecap="round" stroke-linejoin="round"/><polyline points="1653.57,465.38 1655.56,480.79" fill="#c92a2a" stroke="#c92a2a" stroke-width="4" opacity="1.0" stroke-linecap="round" stroke-linejoin="round"/><polyline points="1663.61,463.09 1667.45,477.13" fill="#c92a2a" stroke="#c92a2a" stroke-width="4" opacity="1.0" stroke-linecap="round" stroke-linejoin="round"/><polyline points="1689.91,462.96 1699.08,476.82" fill="#c92a2a" stroke="#c92a2a" stroke-width="4" opacity="1.0" stroke-linecap="round" stroke-linejoin="round"/><polyline points="1683.15,465.78 1685.68,477.13" fill="#c92a2a" stroke="#c92a2a" stroke-width="4" opacity="1.0" stroke-linecap="round" stroke-linejoin="round"/><polyline points="1672.04,465.65 1674.78,479.66" fill="#c92a2a" stroke="#c92a2a" stroke-width="4" opacity="1.0" stroke-linecap="round" stroke-linejoin="round"/><polyline points="1585.85,439.77 1581.58,422.23 1561.40,419.31 1555.39,432.15 1555.37,462.34 1716.39,559.09 1747.99,556.31 1733.92,530.73 1597.86,461.11 1584.22,424.94" fill="none" stroke="#c92a2a" stroke-width="4" opacity="1.0" stroke-linecap="round" stroke-linejoin="round"/><polyline points="1740.23,422.61 1748.52,412.22 1763.14,414.97 1774.86,424.11 1780.01,439.75 1778.27,465.83 1603.34,565.79 1566.18,559.39 1581.82,535.18 1722.19,466.53 1740.23,422.61" fill="none" stroke="#c92a2a" stroke-width="4" opacity="1.0" stroke-linecap="round" stroke-linejoin="round"/></svg>