<svg version="1.1" xmlns="http://www.w3.org/2000/svg" viewBox="0 0 94.60997894371599 93.07999905301943" width="94.60997894371599" height="93.07999905301943">
  <!-- svg-source:excalidraw -->
  
  <defs>
    
    
  </defs>
  <g stroke-linecap="round"><g transform="translate(47.12914088370326 6) rotate(0 0.17576555933214877 40.42909916470359)" fill-rule="evenodd"><path d="M-1.32 0.66 L-32.85 16.42 L-40.25 52.6 L-17.59 79.97 L23.39 80.84 L41.24 47.48 L34.5 16.54 L0.66 -1.63" stroke="none" stroke-width="0" fill="#326ce5" fill-rule="evenodd"></path><path d="M0 0 C-8.7 6.88, -20.36 8.87, -34.1 16.31 M0 0 C-13.49 5.66, -26.86 13.45, -34.1 16.31 M-34.1 16.31 C-34.74 28.61, -37.98 38.74, -41.13 51.19 M-34.1 16.31 C-35.99 28.75, -39.46 39.11, -41.13 51.19 M-41.13 51.19 C-33.9 59.58, -25.39 72.99, -17.58 80.86 M-41.13 51.19 C-32.54 62.81, -22.86 74.4, -17.58 80.86 M-17.58 80.86 C-8.24 81.56, 2.93 80.35, 21.97 80.68 M-17.58 80.86 C-2.67 80.48, 14.14 80.28, 21.97 80.68 M21.97 80.68 C28.03 73.21, 29.95 65.7, 41.48 48.93 M21.97 80.68 C27.23 72.16, 31.28 64.89, 41.48 48.93 M41.48 48.93 C41.51 40.97, 36.88 34.22, 33.75 14.58 M41.48 48.93 C38.56 39.16, 36.35 29.49, 33.75 14.58 M33.75 14.58 C22.83 10.5, 9.14 4.39, 0 0 M33.75 14.58 C22.03 10.27, 9.81 4.77, 0 0 M0 0 C0 0, 0 0, 0 0 M0 0 C0 0, 0 0, 0 0" stroke="#000000" stroke-width="1" fill="none"></path></g></g><mask></mask><g transform="translate(32.79565749012545 65.57723028287472) rotate(0 17 10)"><text x="0" y="0" font-family="Virgil, Segoe UI Emoji" font-size="16px" fill="#fff" text-anchor="start" style="white-space: pre;" direction="ltr" dominant-baseline="text-before-edge">ING</text></g><g stroke-linecap="round"><g transform="translate(53.155528973285755 60.669293625122975) rotate(0 4.746731486806425 4.305175069429026)"><path d="M-0.04 0.05 C1.53 1.45, 8.12 7.3, 9.65 8.77 M-0.49 -0.24 C1.03 1.21, 7.73 6.8, 9.45 8.23" stroke="#326ce5" stroke-width="4" fill="none"></path></g></g><mask></mask><g stroke-linecap="round"><g transform="translate(78.54502297248223 32.5327154057444) rotate(180 -29.694669068626013 11.701245060499502)"><path d="M1.08 1.03 C-1.64 1.4, -8.86 -0.5, -15.26 3.01 C-21.66 6.53, -29.91 18.61, -37.34 22.09 C-44.76 25.58, -56.25 23.58, -59.82 23.94 M0.19 0.52 C-2.25 0.46, -6.64 -2.67, -13.03 1.08 C-19.41 4.84, -30.32 19.64, -38.12 23.07 C-45.91 26.5, -56.17 21.33, -59.79 21.66" stroke="#fff" stroke-width="4" fill="none"></path></g><g transform="translate(78.54502297248223 32.5327154057444) rotate(180 -29.694669068626013 11.701245060499502)"><path d="M-59.24 20.39 L-43.55 17.55 L-49.05 29.15 L-59.35 21.97" stroke="none" stroke-width="0" fill="#fff" fill-rule="evenodd"></path><path d="M-59.79 21.66 C-52.92 18.84, -48.13 18.39, -45.34 17.66 M-59.79 21.66 C-55.81 21.14, -52.61 20.14, -45.34 17.66 M-45.34 17.66 C-45.05 21.63, -46.63 24.84, -47.43 30.16 M-45.34 17.66 C-46.48 22.46, -47.55 26.93, -47.43 30.16 M-47.43 30.16 C-52.37 27.23, -56.15 23.91, -59.79 21.66 M-47.43 30.16 C-50.2 28.33, -53.74 25.74, -59.79 21.66 M-59.79 21.66 C-59.79 21.66, -59.79 21.66, -59.79 21.66 M-59.79 21.66 C-59.79 21.66, -59.79 21.66, -59.79 21.66" stroke="#fff" stroke-width="4" fill="none"></path></g></g><mask></mask><g stroke-linecap="round"><g transform="translate(19.8180194612969 32.078515599940204) rotate(0 29.694669068626013 11.701245060499502)"><path d="M-0.56 -1.03 C1.92 -0.64, 8.88 -1.73, 15.09 2.35 C21.31 6.44, 29.49 19.8, 36.73 23.5 C43.98 27.2, 54.83 24.64, 58.56 24.54 M1.35 1.05 C3.71 1.61, 8.82 0.32, 14.54 3.74 C20.26 7.15, 28.36 18.42, 35.66 21.56 C42.97 24.7, 54.12 22.34, 58.37 22.58" stroke="#fff" stroke-width="4" fill="none"></path></g><g transform="translate(19.8180194612969 32.078515599940204) rotate(0 29.694669068626013 11.701245060499502)"><path d="M60.33 24.38 L44.65 28.9 L44.68 18.85 L58.74 24.19" stroke="none" stroke-width="0" fill="#fff" fill-rule="evenodd"></path><path d="M58.37 22.58 C52.84 25.69, 49.52 26.28, 45.1 29.59 M58.37 22.58 C53.31 24.93, 47.94 28.09, 45.1 29.59 M45.1 29.59 C43.91 27.31, 44.59 22.93, 44.47 16.92 M45.1 29.59 C45.05 25.42, 44.9 19.87, 44.47 16.92 M44.47 16.92 C46.58 16.7, 49.49 20.81, 58.37 22.58 M44.47 16.92 C47.94 18.57, 50.33 19.81, 58.37 22.58 M58.37 22.58 C58.37 22.58, 58.37 22.58, 58.37 22.58 M58.37 22.58 C58.37 22.58, 58.37 22.58, 58.37 22.58" stroke="#fff" stroke-width="4" fill="none"></path></g></g><mask></mask><g stroke-linecap="round"><g transform="translate(42.2270076431962 34.40318485207223) rotate(0 4.746731486806425 4.305175069429026)"><path d="M0.27 0.34 C1.9 1.72, 7.9 7.16, 9.41 8.58 M-0.01 0.21 C1.58 1.62, 7.59 7.67, 9.09 9.01" stroke="#326ce5" stroke-width="4" fill="none"></path></g></g><mask></mask><g stroke-linecap="round"><g transform="translate(37.25949794770145 44.99404080822734) rotate(0 4.746731486806425 4.305175069429026)"><path d="M0.3 -0.04 C1.86 1.33, 8.12 6.96, 9.6 8.41 M0.02 -0.37 C1.52 1.03, 7.73 7.19, 9.37 8.75" stroke="#326ce5" stroke-width="4" fill="none"></path></g></g><mask></mask></svg>