<svg version="1.1" xmlns="http://www.w3.org/2000/svg" viewBox="0 0 183.36761474609375 180.4841874479473" width="183.36761474609375" height="180.4841874479473">
  <!-- svg-source:excalidraw -->
  
  <defs>
    
    
  </defs>
  <g stroke-linecap="round" transform="translate(6 6) rotate(0 85.68380737304688 55.06280517578125)"><path d="M27.53 0 C59.28 -2.39, 95.87 -1.22, 143.84 0 M27.53 0 C60.15 1.65, 91.84 2.13, 143.84 0 M143.84 0 C161.2 -0.31, 172.44 11.34, 171.37 27.53 M143.84 0 C163.95 3.77, 169.65 13.61, 171.37 27.53 M171.37 27.53 C171.95 38.78, 171.66 47.64, 171.37 82.59 M171.37 27.53 C168.72 43.6, 170.18 62.78, 171.37 82.59 M171.37 82.59 C170.37 97.21, 162.2 107.5, 143.84 110.13 M171.37 82.59 C173.49 97.81, 162.43 111.53, 143.84 110.13 M143.84 110.13 C102.1 111.19, 64.37 115.48, 27.53 110.13 M143.84 110.13 C114.5 109.72, 87.01 111.38, 27.53 110.13 M27.53 110.13 C6.39 107.35, 0.1 98.6, 0 82.59 M27.53 110.13 C13.71 110.09, 4.22 99.01, 0 82.59 M0 82.59 C1.4 68.3, 2.9 54.97, 0 27.53 M0 82.59 C-0.44 70.78, 1.19 60.98, 0 27.53 M0 27.53 C-0.45 5.29, 12.51 -1.99, 27.53 0 M0 27.53 C4.32 9.22, 9.89 -2.84, 27.53 0" stroke="#000000" stroke-width="1" fill="none"></path></g><g stroke-linecap="round" transform="translate(67.23858089104124 69.41351318359375) rotate(0 7.758651196370124 37.740476207500365)"><path d="M6.43 1.2 C7.67 -1.45, 9.11 -0.04, 10.37 3.28 C11.64 6.6, 13.2 13.81, 14.01 21.12 C14.83 28.43, 15.51 39.47, 15.27 47.13 C15.02 54.78, 13.84 62.33, 12.56 67.04 C11.28 71.75, 9.28 75.72, 7.59 75.41 C5.89 75.09, 3.51 70.53, 2.37 65.13 C1.24 59.72, 0.99 51.12, 0.79 42.96 C0.59 34.79, 0.09 23.25, 1.15 16.12 C2.21 8.99, 5.98 2.71, 7.13 0.17 C8.29 -2.36, 8.15 0.3, 8.06 0.89 M8.75 2.39 C10.31 4.46, 13.96 11.03, 14.97 17.8 C15.99 24.56, 14.93 35.14, 14.83 42.98 C14.72 50.82, 15.52 59.29, 14.36 64.84 C13.2 70.39, 9.83 75.89, 7.87 76.27 C5.9 76.66, 4 72.55, 2.57 67.12 C1.15 61.7, -0.54 51.73, -0.67 43.71 C-0.8 35.69, 1.08 26.07, 1.78 19 C2.48 11.93, 2.06 4.19, 3.52 1.28 C4.97 -1.62, 9.34 1.46, 10.52 1.56 C11.71 1.65, 10.8 1.39, 10.62 1.84" stroke="none" stroke-width="0" fill="black"></path><path d="M8.45 0.41 C10.17 1.42, 12.83 7.74, 14.04 14.1 C15.26 20.46, 15.84 30.63, 15.74 38.59 C15.65 46.56, 14.52 55.76, 13.46 61.9 C12.4 68.04, 10.91 73.88, 9.38 75.44 C7.85 77, 5.82 75.23, 4.27 71.26 C2.72 67.29, 0.88 59.52, 0.1 51.64 C-0.69 43.77, -0.92 31.71, -0.44 24.01 C0.05 16.31, 1.36 9.25, 3 5.45 C4.64 1.66, 8.39 1.78, 9.4 1.24 C10.41 0.7, 9.23 1.61, 9.06 2.21 M5.53 2.71 C6.83 -0.75, 7.29 -0.91, 8.58 1.59 C9.87 4.08, 12.28 10.92, 13.26 17.69 C14.23 24.46, 14.39 34.16, 14.44 42.2 C14.49 50.24, 14.61 60.16, 13.54 65.93 C12.47 71.71, 9.84 76.58, 8.04 76.85 C6.23 77.13, 3.91 72.45, 2.72 67.58 C1.53 62.71, 1.35 55.51, 0.9 47.62 C0.45 39.73, -0.54 27.73, 0.05 20.24 C0.63 12.76, 3.64 5.36, 4.42 2.73 C5.21 0.1, 4.44 3.98, 4.75 4.44" stroke="#000000" stroke-width="1" fill="none"></path></g><g stroke-linecap="round" transform="translate(83.77727654394948 95.62791027514686) rotate(0 9.014225896627806 24.187379916840314)"><path d="M12.86 2.44 C14.57 4.24, 16.77 9.67, 17.62 14.55 C18.48 19.43, 18.5 26.66, 17.99 31.71 C17.48 36.77, 16.41 42.12, 14.55 44.9 C12.68 47.68, 8.86 49.16, 6.82 48.38 C4.77 47.6, 3.43 44, 2.27 40.22 C1.11 36.43, -0.2 30.85, -0.14 25.66 C-0.07 20.48, 1.6 13.16, 2.66 9.1 C3.72 5.05, 4.42 2.06, 6.21 1.34 C8 0.62, 12.03 4.1, 13.39 4.79 C14.75 5.47, 14.47 5.19, 14.37 5.48 M10.66 0.82 C12.57 1.34, 14.23 3.39, 15.39 7.38 C16.54 11.38, 17.65 19.53, 17.57 24.8 C17.49 30.07, 15.86 35.21, 14.88 38.99 C13.9 42.78, 13.39 46.55, 11.7 47.51 C10 48.46, 6.79 46.97, 4.71 44.73 C2.63 42.5, 0.03 39, -0.78 34.1 C-1.6 29.19, -0.81 20.33, -0.19 15.31 C0.43 10.29, 1.26 6.41, 2.93 3.96 C4.6 1.52, 8.75 1.3, 9.83 0.66 C10.9 0.02, 9.54 -0.25, 9.38 0.15" stroke="none" stroke-width="0" fill="black"></path><path d="M6.49 1.2 C8.38 -0.25, 11.5 0.38, 13.43 2.45 C15.36 4.52, 17.35 8.92, 18.05 13.62 C18.76 18.31, 18.2 25.49, 17.65 30.61 C17.11 35.73, 16.19 41.44, 14.76 44.32 C13.33 47.21, 10.94 48.56, 9.09 47.92 C7.23 47.28, 5.28 44.2, 3.63 40.46 C1.98 36.73, -0.54 30.55, -0.81 25.53 C-1.09 20.51, 0.52 14.66, 1.99 10.33 C3.45 5.99, 6.84 1.32, 7.99 -0.48 C9.13 -2.27, 8.83 -0.82, 8.84 -0.43 M6.43 -0.67 C8.21 -2.48, 11.03 -0.89, 12.95 1.44 C14.86 3.76, 17.13 8.29, 17.93 13.26 C18.73 18.23, 18.28 26.12, 17.76 31.25 C17.25 36.37, 16.19 41.26, 14.82 44.03 C13.45 46.79, 11.65 48.23, 9.53 47.84 C7.42 47.46, 3.5 45.51, 2.11 41.73 C0.72 37.95, 1.36 30.49, 1.2 25.16 C1.04 19.84, 0.27 13.83, 1.14 9.76 C2.02 5.69, 5.39 1.95, 6.45 0.74 C7.51 -0.48, 7.59 2.23, 7.52 2.45" stroke="#000000" stroke-width="1" fill="none"></path></g><g stroke-linecap="round" transform="translate(102.66027849680631 105.71144617693335) rotate(0 8.32286658867298 19.556442414526373)"><path d="M7.85 0.24 C9.28 0.11, 11.54 2.17, 12.98 4.94 C14.41 7.72, 16.01 12.97, 16.47 16.88 C16.92 20.78, 16.53 24.86, 15.69 28.36 C14.86 31.87, 13.17 36.31, 11.45 37.89 C9.74 39.47, 7.03 39.11, 5.43 37.82 C3.83 36.52, 2.77 33.88, 1.87 30.12 C0.96 26.36, -0.31 19.6, 0.01 15.26 C0.33 10.93, 1.99 6.62, 3.78 4.13 C5.57 1.64, 9.47 0.84, 10.74 0.32 C12 -0.2, 11.42 0.64, 11.35 1 M6.8 0.31 C8.56 -1.08, 9.52 -0.21, 11.28 1.43 C13.04 3.07, 16.53 6.14, 17.37 10.16 C18.2 14.17, 17.05 21.3, 16.28 25.54 C15.51 29.77, 14.31 33.56, 12.72 35.56 C11.13 37.57, 8.31 38.07, 6.73 37.58 C5.15 37.1, 4.59 35.63, 3.23 32.67 C1.88 29.71, -1.16 23.99, -1.39 19.84 C-1.63 15.7, 0.47 11.16, 1.81 7.81 C3.15 4.47, 6 1.12, 6.64 -0.22 C7.29 -1.56, 5.66 -0.75, 5.69 -0.25" stroke="none" stroke-width="0" fill="black"></path><path d="M7.61 0.8 C9.42 0.22, 11.64 1.84, 13.05 3.99 C14.45 6.13, 15.48 9.72, 16.02 13.66 C16.56 17.61, 16.85 23.63, 16.27 27.65 C15.69 31.66, 14.21 35.76, 12.52 37.75 C10.83 39.75, 8.07 40.8, 6.12 39.6 C4.17 38.4, 1.96 33.99, 0.8 30.56 C-0.37 27.13, -1.09 23.01, -0.87 19.01 C-0.64 15.02, 0.77 9.75, 2.13 6.6 C3.49 3.45, 6.33 1.1, 7.29 0.11 C8.24 -0.88, 7.87 0.46, 7.86 0.69 M6.57 0.02 C7.95 -0.22, 10.94 2.18, 12.42 4.75 C13.89 7.32, 14.8 11.33, 15.43 15.43 C16.05 19.53, 16.84 25.41, 16.16 29.35 C15.47 33.29, 13.11 37.67, 11.32 39.07 C9.53 40.47, 6.96 39.07, 5.4 37.76 C3.85 36.45, 3.01 34.77, 1.99 31.22 C0.97 27.66, -0.78 20.83, -0.71 16.42 C-0.63 12.01, 1 7.39, 2.45 4.76 C3.89 2.14, 6.84 1.58, 7.97 0.68 C9.1 -0.22, 9.39 -0.86, 9.23 -0.64" stroke="#000000" stroke-width="1" fill="none"></path></g><g stroke-linecap="round" transform="translate(120.18736401464412 112.6741543956523) rotate(0 7.785491421532413 16.48073522337154)"><path d="M11.47 1.03 C13.07 2.39, 14.57 6.43, 15.33 9.8 C16.09 13.17, 16.74 17.81, 16.05 21.25 C15.36 24.69, 12.72 28.52, 11.2 30.44 C9.68 32.37, 8.45 33.09, 6.92 32.79 C5.39 32.48, 3.05 31.17, 2.02 28.61 C0.99 26.05, 0.99 20.95, 0.74 17.44 C0.49 13.93, -0.25 10.23, 0.54 7.56 C1.32 4.89, 3.45 2.09, 5.44 1.41 C7.43 0.73, 11.26 2.68, 12.5 3.5 C13.73 4.32, 12.88 6.23, 12.84 6.34 M3.76 1.39 C4.96 -0.25, 7.41 1.02, 8.89 1.81 C10.38 2.61, 11.4 3.7, 12.64 6.17 C13.89 8.63, 16.22 13.19, 16.37 16.6 C16.52 20, 15.01 23.76, 13.53 26.6 C12.05 29.43, 9.23 33.19, 7.48 33.61 C5.74 34.03, 4.48 31.04, 3.08 29.1 C1.68 27.16, -0.41 25.01, -0.9 21.97 C-1.39 18.93, -0.57 14.27, 0.11 10.85 C0.8 7.42, 2.76 2.79, 3.22 1.42 C3.68 0.06, 2.64 2.11, 2.89 2.67" stroke="none" stroke-width="0" fill="black"></path><path d="M5.96 1.08 C7.61 -0.28, 10.1 -0.4, 11.53 0.9 C12.96 2.21, 13.81 5.68, 14.55 8.89 C15.29 12.1, 16.14 16.81, 15.96 20.16 C15.77 23.51, 14.68 27.03, 13.45 29.01 C12.21 30.99, 10.49 32.23, 8.54 32.05 C6.59 31.87, 3.12 30.15, 1.77 27.94 C0.43 25.74, 0.52 22.3, 0.46 18.83 C0.41 15.36, 0.52 10.34, 1.46 7.12 C2.4 3.9, 5.18 0.75, 6.11 -0.49 C7.03 -1.73, 7.07 -0.74, 7 -0.33 M9.96 -0.33 C11.69 0.47, 14.01 3.12, 14.95 6.29 C15.89 9.47, 15.78 15.07, 15.6 18.72 C15.43 22.38, 14.89 25.91, 13.92 28.2 C12.94 30.5, 11.6 32.14, 9.73 32.52 C7.87 32.9, 4.14 32.62, 2.75 30.47 C1.36 28.32, 1.82 23.22, 1.4 19.63 C0.98 16.04, -0.24 11.97, 0.24 8.94 C0.72 5.9, 2.56 2.57, 4.29 1.4 C6.02 0.23, 9.86 2.15, 10.62 1.9 C11.39 1.66, 9.01 0.02, 8.87 -0.07" stroke="#000000" stroke-width="1" fill="none"></path></g><g stroke-linecap="round" transform="translate(52.09062111138155 130.06968272012637) rotate(324.3522590532136 8.32286658867298 19.556442414526373)"><path d="M5.91 0.85 C7.61 -0.14, 10.46 1.32, 12.17 3.06 C13.88 4.8, 15.46 7.55, 16.18 11.29 C16.9 15.04, 17.08 21.43, 16.5 25.55 C15.91 29.66, 14.1 33.63, 12.67 35.98 C11.24 38.33, 9.69 40.37, 7.91 39.65 C6.14 38.94, 3.21 35.01, 2.04 31.7 C0.86 28.38, 0.73 23.8, 0.84 19.78 C0.95 15.75, 1.39 10.95, 2.7 7.55 C4 4.15, 7.28 0.43, 8.68 -0.61 C10.07 -1.65, 11.18 1.04, 11.06 1.31 M8.82 -0.28 C10.67 -0.15, 14.66 1.83, 15.95 5.13 C17.24 8.44, 16.8 15.17, 16.57 19.55 C16.34 23.93, 15.79 28.47, 14.58 31.42 C13.37 34.36, 10.83 36.41, 9.29 37.22 C7.74 38.02, 6.97 38.17, 5.29 36.25 C3.61 34.33, -0.02 29.54, -0.8 25.7 C-1.57 21.86, -0.18 17.12, 0.67 13.2 C1.52 9.28, 2.93 4.56, 4.29 2.18 C5.66 -0.2, 7.94 -0.87, 8.86 -1.09 C9.78 -1.31, 9.5 0.09, 9.8 0.85" stroke="none" stroke-width="0" fill="black"></path><path d="M7.91 0.94 C9.49 0.27, 11.46 1.19, 12.92 3.57 C14.38 5.95, 16.1 11.02, 16.65 15.23 C17.2 19.44, 17.09 24.97, 16.21 28.82 C15.34 32.67, 13.23 36.87, 11.39 38.33 C9.55 39.78, 6.98 38.77, 5.18 37.54 C3.38 36.32, 1.45 34.25, 0.58 30.99 C-0.29 27.73, -0.23 22.18, -0.04 17.96 C0.16 13.74, 0.53 8.64, 1.75 5.69 C2.98 2.74, 6.28 1.22, 7.31 0.26 C8.35 -0.7, 7.84 -0.45, 7.98 -0.07 M6.3 0.84 C8.04 0.11, 10.08 0.92, 11.81 3.21 C13.55 5.49, 16.07 10.3, 16.73 14.53 C17.4 18.76, 16.65 24.92, 15.82 28.59 C14.98 32.25, 13.16 34.65, 11.71 36.52 C10.27 38.39, 8.96 40.75, 7.16 39.8 C5.36 38.84, 2.15 34.4, 0.91 30.8 C-0.33 27.21, -0.47 22.21, -0.25 18.23 C-0.03 14.24, 0.76 10.1, 2.22 6.92 C3.69 3.73, 7.86 0.16, 8.53 -0.89 C9.21 -1.95, 6.6 -0.17, 6.27 0.58" stroke="#000000" stroke-width="1" fill="none"></path></g><g stroke-linecap="round" transform="translate(71.3889052615823 125.29855226471318) rotate(0 33.03677905866198 24.539650738797036)"><path d="M19.85 2.23 C25.94 0.09, 36.7 -0.34, 43.1 1.12 C49.5 2.57, 54.45 6.71, 58.25 10.94 C62.05 15.16, 66.27 21.08, 65.92 26.48 C65.57 31.88, 60.91 39.62, 56.16 43.33 C51.41 47.04, 44.76 48.26, 37.43 48.76 C30.1 49.26, 18.41 48.99, 12.2 46.33 C5.98 43.68, 1.67 38.12, 0.15 32.82 C-1.37 27.52, -2.21 19.78, 3.09 14.52 C8.39 9.27, 24.54 3.42, 31.95 1.3 C39.37 -0.81, 47.73 1.55, 47.6 1.84 M44.74 4.82 C50.81 6.61, 56.14 8.99, 59.84 13.05 C63.53 17.1, 68.04 24.27, 66.91 29.15 C65.77 34.04, 59.38 38.76, 53.02 42.35 C46.66 45.95, 36 51.14, 28.75 50.72 C21.49 50.29, 14.66 43.54, 9.48 39.81 C4.31 36.08, -1.45 32.92, -2.31 28.33 C-3.18 23.73, 0.35 16.95, 4.29 12.23 C8.23 7.51, 14.88 1.61, 21.35 0.01 C27.82 -1.59, 39.02 1.81, 43.12 2.64 C47.22 3.47, 45.32 4.4, 45.98 4.98" stroke="none" stroke-width="0" fill="black"></path><path d="M45.93 0.94 C52.16 2.34, 57.94 7.93, 61.4 12.68 C64.86 17.43, 67.58 24.46, 66.69 29.43 C65.8 34.4, 61.31 39.52, 56.06 42.5 C50.8 45.47, 42.79 47.41, 35.15 47.27 C27.52 47.14, 15.89 44.76, 10.25 41.68 C4.61 38.6, 2.18 33.92, 1.29 28.79 C0.41 23.66, 1.54 15.76, 4.95 10.91 C8.36 6.05, 13.51 0.85, 21.75 -0.33 C30 -1.5, 48.09 1.84, 54.41 3.87 C60.73 5.9, 59.92 11.32, 59.67 11.83 M7.83 7.93 C11.51 4.2, 18.53 2.55, 25.43 1.6 C32.33 0.65, 42.43 0.16, 49.22 2.21 C56.01 4.26, 63.75 8.8, 66.19 13.91 C68.63 19.01, 65.94 27.93, 63.85 32.85 C61.77 37.77, 59.6 40.83, 53.66 43.43 C47.72 46.02, 35.77 48.73, 28.22 48.4 C20.68 48.07, 12.87 44.77, 8.39 41.46 C3.92 38.16, 2.06 34.17, 1.39 28.57 C0.72 22.98, 3.41 11.23, 4.36 7.89 C5.3 4.54, 5.77 7.92, 7.06 8.5" stroke="#000000" stroke-width="1" fill="none"></path></g><g stroke-linecap="round" transform="translate(67.53429892108488 141.7514010457835) rotate(0 30.438165905278936 16.366393201081905)"><path d="M8.18 0 C15.11 -1.49, 34.31 -2.48, 52.69 0 C57.85 -3.06, 55.49 5.82, 60.88 8.18 C61.29 11.08, 61.74 14.01, 60.88 24.55 C58.76 25.29, 59.61 33.82, 52.69 32.73 C37.51 34.09, 13.06 37.99, 8.18 32.73 C6.11 35.03, 0.53 32.55, 0 24.55 C-3.74 19.36, 2.8 17, 0 8.18 C3.99 1.38, -2.5 3.63, 8.18 0" stroke="none" stroke-width="0" fill="black"></path><path d="M8.18 0 C21.78 2.71, 33.53 3.68, 52.69 0 M8.18 0 C21.52 0.53, 34.32 -0.99, 52.69 0 M52.69 0 C62 -3.61, 57.48 -0.77, 60.88 8.18 M52.69 0 C59.89 -0.35, 62.29 -0.7, 60.88 8.18 M60.88 8.18 C57.91 11.64, 60.3 20.18, 60.88 24.55 M60.88 8.18 C59.5 13.44, 59.45 17.27, 60.88 24.55 M60.88 24.55 C62.09 31.99, 57.68 36.56, 52.69 32.73 M60.88 24.55 C59.63 28.67, 60.27 36.33, 52.69 32.73 M52.69 32.73 C40.7 32.58, 32.37 35.9, 8.18 32.73 M52.69 32.73 C41.27 34.73, 32.18 34.59, 8.18 32.73 M8.18 32.73 C1.04 30.98, 0.94 27.32, 0 24.55 M8.18 32.73 C4.64 32.52, 3.63 30.68, 0 24.55 M0 24.55 C-0.34 20.66, 2.32 20.07, 0 8.18 M0 24.55 C-0.5 21.36, 0.33 15.35, 0 8.18 M0 8.18 C-2.47 5.34, 3.84 -2.05, 8.18 0 M0 8.18 C-4.57 3.95, 4.53 -0.99, 8.18 0" stroke="#000000" stroke-width="1" fill="none"></path></g><g stroke-linecap="round"><g transform="translate(136.60739135742142 113.1151123046875) rotate(0 4.9496917724609375 4.0811309814453125)" fill-rule="evenodd"><path d="M-1.55 -0.94 C-0.72 -0.17, 2.14 5.12, 3.2 5.11 C4.26 5.09, 4.01 -1.43, 4.79 -1.02 C5.58 -0.61, 7.19 7.06, 7.93 7.58 C8.68 8.11, 9.81 3.4, 9.27 2.12 C8.73 0.84, 4.51 -0.71, 4.71 -0.09 C4.92 0.54, 9.34 5.93, 10.51 5.89 C11.68 5.85, 13.56 0.5, 11.72 -0.34 C9.87 -1.18, 1.15 0.98, -0.55 0.87" stroke="none" stroke-width="0" fill="white" fill-rule="evenodd"></path><path d="M0.26 0.49 C0.93 1.29, 2.73 4.67, 3.53 4.7 C4.34 4.74, 4.31 -0.06, 5.08 0.7 C5.85 1.45, 7.53 8.68, 8.13 9.23 C8.73 9.79, 9.32 5.57, 8.69 4.04 C8.05 2.51, 4.3 -0.17, 4.33 0.06 C4.36 0.3, 8.07 5.4, 8.89 5.47 C9.7 5.53, 10.73 1.33, 9.24 0.46 C7.75 -0.41, 1.58 0.3, -0.06 0.23 M-0.52 0.08 C0.11 0.7, 2.19 3.49, 3.03 3.72 C3.86 3.96, 3.61 0.81, 4.5 1.49 C5.4 2.18, 7.82 7.71, 8.39 7.84 C8.96 7.98, 8.47 3.65, 7.92 2.31 C7.36 0.97, 4.9 -0.92, 5.07 -0.21 C5.24 0.5, 8.02 6.49, 8.94 6.59 C9.85 6.69, 12.22 1.58, 10.55 0.39 C8.87 -0.79, 0.69 -0.42, -1.13 -0.51" stroke="white" stroke-width="4" fill="none"></path></g></g><mask></mask><g stroke-linecap="round"><g transform="translate(61.57485961914017 119.96469116210938) rotate(0 -1.2612457275390625 -3.80535888671875)" fill-rule="evenodd"><path d="M-0.94 -0.16 C-0.87 -1.25, 0.85 -7.43, 0.92 -8.08 C0.98 -8.73, -0.42 -4.36, -0.55 -4.06 C-0.67 -3.77, -0.05 -6.41, 0.18 -6.33 C0.41 -6.24, 0.45 -3.66, 0.82 -3.55 C1.18 -3.43, 3.29 -5.55, 2.35 -5.64 C1.4 -5.73, -3.66 -3.73, -4.86 -4.1 C-6.05 -4.47, -5.75 -8.78, -4.8 -7.85 C-3.84 -6.91, 0.24 0.29, 0.87 1.48" stroke="none" stroke-width="0" fill="white" fill-rule="evenodd"></path><path d="M0.49 0.17 C0.59 -1.17, 0.4 -7.12, 0.51 -7.8 C0.63 -8.47, 0.95 -4.01, 1.17 -3.87 C1.39 -3.72, 1.57 -6.9, 1.83 -6.91 C2.09 -6.92, 2.62 -3.87, 2.73 -3.93 C2.84 -3.99, 3.83 -6.82, 2.5 -7.26 C1.16 -7.7, -4.19 -6.56, -5.28 -6.58 C-6.36 -6.59, -4.92 -8.35, -4 -7.35 C-3.08 -6.35, -0.45 -1.67, 0.23 -0.56 M-0.18 -0.39 C-0.1 -1.65, 0.13 -6.51, 0.27 -6.93 C0.4 -7.35, 0.34 -3.08, 0.66 -2.94 C0.98 -2.79, 1.95 -5.92, 2.2 -6.07 C2.44 -6.22, 2.25 -3.85, 2.13 -3.83 C2.01 -3.81, 2.69 -5.7, 1.47 -5.97 C0.24 -6.25, -4.21 -5.2, -5.21 -5.47 C-6.2 -5.74, -5.24 -8.6, -4.49 -7.59 C-3.74 -6.59, -1.54 -0.85, -0.69 0.57" stroke="white" stroke-width="4" fill="none"></path></g></g><mask></mask></svg>