<svg version="1.1" xmlns="http://www.w3.org/2000/svg" viewBox="0 0 218.0402153674513 70.25" width="218.0402153674513" height="70.25">
  <!-- svg-source:excalidraw -->
  
  <defs>
    
    
  </defs>
  <g transform="translate(12.04021536745131 6) rotate(0 100 13)"><text x="0" y="0" font-family="Virgil, Segoe UI Emoji" font-size="16px" fill="#000000" text-anchor="start" style="white-space: pre;" direction="ltr" dominant-baseline="text-before-edge">Compensating transaction</text></g><g stroke-linecap="round" transform="translate(42.54021536745131 43.75) rotate(0 19.5 10.25)"><path d="M0.85 0.29 L38.44 -0.87 L38.22 21.24 L-0.52 20.87" stroke="none" stroke-width="0" fill="#40c057"></path><path d="M0 0 C12.22 -0.07, 22.76 0.49, 39 0 M0 0 C12.55 0.3, 24.56 0.27, 39 0 M39 0 C38.45 7, 40.05 13.47, 39 20.5 M39 0 C39.33 7.56, 39.05 15.65, 39 20.5 M39 20.5 C25.7 20.8, 11.21 19.69, 0 20.5 M39 20.5 C28.25 20.68, 18 20.17, 0 20.5 M0 20.5 C0.63 15.66, 0.66 9.79, 0 0 M0 20.5 C0.21 12.68, 0.34 6.01, 0 0" stroke="#000000" stroke-width="1" fill="none"></path></g><g stroke-linecap="round" transform="translate(172.5402153674513 43.75) rotate(0 19.5 10.25)"><path d="M0.74 0.19 L39.61 -0.21 L39.16 20.64 L-0.17 20.94" stroke="none" stroke-width="0" fill="#fa5252"></path><path d="M0 0 C14.89 0.17, 27.47 -0.1, 39 0 M0 0 C12.55 0.47, 25.85 0.22, 39 0 M39 0 C39.43 7.58, 38.5 15.71, 39 20.5 M39 0 C39.46 6.38, 39.35 13.86, 39 20.5 M39 20.5 C29.26 20.11, 18.04 20.06, 0 20.5 M39 20.5 C28.74 20.77, 18.42 20.37, 0 20.5 M0 20.5 C0.89 16.25, 0.23 10.44, 0 0 M0 20.5 C-0.53 15.86, -0.15 10.86, 0 0" stroke="#000000" stroke-width="1" fill="none"></path></g><g stroke-linecap="round" transform="translate(108.54021536745131 43.75) rotate(0 19.5 10.25)"><path d="M-0.18 0.45 L38.15 0.89 L39.43 21.47 L0.04 19.91" stroke="none" stroke-width="0" fill="#40c057"></path><path d="M0 0 C13.34 0.59, 26.26 0.29, 39 0 M0 0 C14.91 -0.16, 29.92 0.09, 39 0 M39 0 C38.68 5.96, 38.35 13.85, 39 20.5 M39 0 C39.03 3.88, 39.52 8.1, 39 20.5 M39 20.5 C27.56 21.3, 14.63 21.27, 0 20.5 M39 20.5 C25.15 20.12, 11 20.08, 0 20.5 M0 20.5 C-0.81 13.95, 0.19 7.99, 0 0 M0 20.5 C-0.47 15.55, 0.35 10, 0 0" stroke="#000000" stroke-width="1" fill="none"></path></g><g stroke-linecap="round"><g transform="translate(171.0402153674513 55) rotate(0 -82 0)"><path d="M0.24 -0.37 C-27.13 -0.46, -137.52 0.6, -165.04 0.56 M-1.09 -1.61 C-28.03 -1.54, -135.99 -1.6, -162.87 -1.26" stroke="#c92a2a" stroke-width="1" fill="none"></path></g><g transform="translate(171.0402153674513 55) rotate(0 -82 0)"><path d="M-134.74 -11.67 C-141.8 -10.92, -146.8 -8.21, -162.87 -1.26 M-134.74 -11.67 C-142.66 -9.19, -149.72 -5.93, -162.87 -1.26" stroke="#c92a2a" stroke-width="1" fill="none"></path></g><g transform="translate(171.0402153674513 55) rotate(0 -82 0)"><path d="M-134.63 8.85 C-141.91 4.82, -146.93 2.76, -162.87 -1.26 M-134.63 8.85 C-142.44 6.18, -149.53 4.28, -162.87 -1.26" stroke="#c92a2a" stroke-width="1" fill="none"></path></g></g><mask></mask></svg>