<svg xmlns="http://www.w3.org/2000/svg" viewBox="-1692.00 876.50 592.63 333.03" width="593" height="333"><rect x="-1430.29" y="958.21" width="20.00" height="237.93" rx="0" stroke="#000000" stroke-width="1" opacity="1.0" fill="none"/><polyline points="-1684.91,922.27 -1684.91,1202.27" fill="none" stroke="#000000" stroke-width="1" opacity="1.0" stroke-linecap="round" stroke-linejoin="round"/><polyline points="-1685.37,1203.53 -1105.37,1203.53" fill="none" stroke="#000000" stroke-width="1" opacity="1.0" stroke-linecap="round" stroke-linejoin="round"/><text x="-1686.00" y="902.50" font-size="20" fill="#000000" opacity="1.0" font-family="sans-serif">Column Histogram</text><rect x="-1410.29" y="978.21" width="20.00" height="217.93" rx="0" stroke="#000000" stroke-width="1" opacity="1.0" fill="none"/><rect x="-1450.29" y="978.21" width="20.00" height="217.93" rx="0" stroke="#000000" stroke-width="1" opacity="1.0" fill="none"/><rect x="-1490.29" y="1098.21" width="20.00" height="97.93" rx="0" stroke="#000000" stroke-width="1" opacity="1.0" fill="none"/><rect x="-1470.29" y="1038.21" width="20.00" height="157.93" rx="0" stroke="#000000" stroke-width="1" opacity="1.0" fill="none"/><rect x="-1510.29" y="1158.21" width="20.00" height="37.93" rx="0" stroke="#000000" stroke-width="1" opacity="1.0" fill="none"/><rect x="-1310.29" y="1196.14" width="20.00" height="2.07" rx="0" stroke="#000000" stroke-width="1" opacity="1.0" fill="none"/><rect x="-1330.29" y="1178.21" width="20.00" height="17.93" rx="0" stroke="#000000" stroke-width="1" opacity="1.0" fill="none"/><rect x="-1370.29" y="1098.21" width="20.00" height="97.93" rx="0" stroke="#000000" stroke-width="1" opacity="1.0" fill="none"/><rect x="-1350.29" y="1158.21" width="20.00" height="37.93" rx="0" stroke="#000000" stroke-width="1" opacity="1.0" fill="none"/><rect x="-1390.29" y="1038.21" width="20.00" height="157.93" rx="0" stroke="#000000" stroke-width="1" opacity="1.0" fill="none"/><rect x="-1550.29" y="1196.14" width="20.00" height="2.07" rx="0" stroke="#000000" stroke-width="1" opacity="1.0" fill="none"/><rect x="-1530.29" y="1178.21" width="20.00" height="17.93" rx="0" stroke="#000000" stroke-width="1" opacity="1.0" fill="none"/></svg>