<svg version="1.1" xmlns="http://www.w3.org/2000/svg" viewBox="0 0 594.3725264381949 333.25311299027896" width="594.3725264381949" height="333.25311299027896">
  <!-- svg-source:excalidraw -->
  
  <defs>
    
    
  </defs>
  <g stroke-linecap="round" transform="translate(75.3927637199456 66) rotate(0 20 120.00000000000011)"><path d="M0 0 C0 0, 0 0, 0 0 M0 0 C0 0, 0 0, 0 0 M-0.26 6.4 C1.43 4.49, 3.4 2.41, 4.99 0.36 M-0.26 6.4 C1.65 4.4, 3.09 2.56, 4.99 0.36 M0.13 12.04 C2.82 7.48, 6.92 4.32, 10.63 -0.03 M0.13 12.04 C2.95 8.43, 7.23 4.83, 10.63 -0.03 M-0.13 18.44 C3.43 13.22, 8.29 9.9, 15.62 0.33 M-0.13 18.44 C6.83 10.63, 12.58 4.09, 15.62 0.33 M0.27 24.08 C7.12 17.61, 11.82 11.85, 21.26 -0.07 M0.27 24.08 C8.8 15.75, 14.62 6, 21.26 -0.07 M0 30.48 C8.94 21.1, 13.61 13.24, 26.25 0.29 M0 30.48 C5.87 24, 10.73 18.16, 26.25 0.29 M-0.26 36.88 C8.25 25.32, 20.21 16.29, 31.89 -0.1 M-0.26 36.88 C8.49 28.12, 14.67 17.51, 31.89 -0.1 M0.14 42.52 C11.22 28.77, 20.12 18.93, 36.88 0.26 M0.14 42.52 C10.4 30, 21.4 17.44, 36.88 0.26 M-0.12 48.92 C12.8 34.7, 25.07 21.3, 41.21 1.37 M-0.12 48.92 C12.69 34.02, 27.27 18.93, 41.21 1.37 M0.27 54.56 C14 39.67, 29.06 22.41, 41.6 7.01 M0.27 54.56 C11.69 43.52, 21.27 30.54, 41.6 7.01 M0.01 60.96 C10.95 47.16, 22.25 36.49, 41.34 13.41 M0.01 60.96 C14.03 45.08, 29.39 28.32, 41.34 13.41 M-0.25 67.36 C13.07 54.49, 23.65 38.91, 41.08 19.81 M-0.25 67.36 C11.09 54.78, 22.74 40.96, 41.08 19.81 M0.14 73 C13.03 61.6, 24.86 46.02, 41.47 25.45 M0.14 73 C8.5 62.56, 19.32 52.43, 41.47 25.45 M-0.12 79.4 C11.69 65.64, 21.59 54.86, 41.21 31.85 M-0.12 79.4 C8.86 69.02, 17.07 59.05, 41.21 31.85 M0.28 85.04 C14.8 69.13, 27.73 51.26, 41.61 37.49 M0.28 85.04 C7.97 73.8, 17.76 65.28, 41.61 37.49 M0.01 91.44 C8.29 79.99, 15.55 72.13, 41.35 43.89 M0.01 91.44 C11.3 79.23, 20.85 65.51, 41.35 43.89 M-0.25 97.84 C7.74 88.34, 20.42 75.58, 41.08 50.29 M-0.25 97.84 C15.09 80.29, 29.98 63.02, 41.08 50.29 M0.15 103.48 C18.23 84.12, 32.76 65.38, 41.48 55.93 M0.15 103.48 C14.93 87.51, 28.66 70.5, 41.48 55.93 M-0.11 109.88 C11.66 96.93, 25.01 81.16, 41.22 62.33 M-0.11 109.88 C12.53 95.52, 22.94 82.53, 41.22 62.33 M0.28 115.52 C10.71 102.25, 22.65 86.85, 41.61 67.97 M0.28 115.52 C13.1 101.64, 26.02 87.88, 41.61 67.97 M0.02 121.92 C14.17 104.57, 29.83 87.72, 41.35 74.37 M0.02 121.92 C12.97 105.46, 28.79 89.52, 41.35 74.37 M-0.24 128.32 C9.28 118.46, 19.41 105.21, 41.09 80.77 M-0.24 128.32 C10.13 115.93, 19.98 105.87, 41.09 80.77 M0.15 133.96 C12.4 119.05, 28.39 99.8, 41.48 86.41 M0.15 133.96 C11.36 120.75, 23.32 106.61, 41.48 86.41 M-0.11 140.36 C10.54 125.21, 23.21 114.41, 41.22 92.81 M-0.11 140.36 C9.87 127.77, 21.29 115.8, 41.22 92.81 M0.29 146 C13.11 129.23, 27.08 116.03, 41.62 98.45 M0.29 146 C9.06 136.44, 17.34 126.24, 41.62 98.45 M0.02 152.4 C12.18 139.85, 20.33 129.43, 41.36 104.85 M0.02 152.4 C12.24 137.48, 24.74 124.78, 41.36 104.85 M-0.24 158.8 C9.85 148.4, 18.48 135.75, 41.09 111.25 M-0.24 158.8 C9.35 148.41, 15.83 139.36, 41.09 111.25 M0.16 164.44 C14.33 149.91, 25.25 135.79, 41.49 116.89 M0.16 164.44 C11.69 150.47, 25.82 137.03, 41.49 116.89 M-0.1 170.84 C14.11 153.47, 28.62 137.38, 41.23 123.29 M-0.1 170.84 C13.26 156.15, 25.57 142.99, 41.23 123.29 M0.29 176.48 C13.1 159.92, 29.46 140.17, 41.62 128.93 M0.29 176.48 C9.74 164.09, 21.36 154.07, 41.62 128.93 M0.03 182.88 C12.19 167.86, 24.94 154.65, 41.36 135.33 M0.03 182.88 C13.14 167.39, 26.59 153.54, 41.36 135.33 M-0.23 189.27 C14.16 173.95, 27.22 156.12, 41.1 141.73 M-0.23 189.27 C10.43 175.15, 23.1 161.36, 41.1 141.73 M0.16 194.92 C10.38 182.74, 18.92 169.51, 41.49 147.37 M0.16 194.92 C10.02 183.79, 19.99 174.33, 41.49 147.37 M-0.1 201.32 C11.77 187.76, 22.96 174.06, 41.23 153.77 M-0.1 201.32 C9.33 190.82, 20.1 179.1, 41.23 153.77 M0.3 206.96 C14.18 192.83, 24.4 181.21, 41.63 159.41 M0.3 206.96 C16.19 189.78, 30.81 170.06, 41.63 159.41 M0.03 213.36 C12.68 197.48, 31.05 178.61, 41.37 165.81 M0.03 213.36 C13.42 198.41, 25.46 182.65, 41.37 165.81 M-0.23 219.75 C9.04 208.18, 18.09 194.87, 41.1 172.21 M-0.23 219.75 C10.79 205.94, 22.01 194.1, 41.1 172.21 M0.17 225.4 C16.03 208.15, 31.07 188.98, 41.5 177.85 M0.17 225.4 C15.05 208.4, 29.42 190.87, 41.5 177.85 M-0.09 231.8 C14.15 212.4, 30.44 194.38, 41.24 184.25 M-0.09 231.8 C8.75 221.85, 17.57 212.44, 41.24 184.25 M0.3 237.44 C8.59 226.92, 19.63 216.33, 41.63 189.89 M0.3 237.44 C16.6 218.65, 32.64 200.55, 41.63 189.89 M2.01 241.57 C15.16 228.29, 28.11 209.15, 41.37 196.29 M2.01 241.57 C10.02 230.96, 17.93 221.36, 41.37 196.29 M6.99 241.93 C20.64 225.98, 36.17 210.28, 41.11 202.69 M6.99 241.93 C17.78 229.94, 26.98 218.72, 41.11 202.69 M12.64 241.54 C19.53 233.18, 27.43 228.39, 41.5 208.33 M12.64 241.54 C21.37 231.17, 30.35 221.81, 41.5 208.33 M17.62 241.9 C26.7 233.46, 33.97 224.66, 41.24 214.73 M17.62 241.9 C26.67 232.48, 35.58 222.26, 41.24 214.73 M23.27 241.5 C27.86 235.95, 34.14 231.54, 41.64 220.37 M23.27 241.5 C28.53 236.04, 31.76 230.39, 41.64 220.37 M28.25 241.86 C30.56 237.23, 33.69 233.96, 41.38 226.77 M28.25 241.86 C32.88 237.28, 34.97 233.66, 41.38 226.77 M33.9 241.47 C35.46 239.65, 36.12 239.17, 41.11 233.17 M33.9 241.47 C35.57 239.88, 36.87 237.75, 41.11 233.17 M-0.34 239.7 C-0.34 239.7, -0.34 239.7, -0.34 239.7 M-0.34 239.7 C-0.34 239.7, -0.34 239.7, -0.34 239.7 M6.06 239.96 C4.34 237.86, 1.48 236.93, 0.02 234.72 M6.06 239.96 C3.9 238.4, 1.69 236.51, 0.02 234.72 M12.45 240.22 C8.74 235.34, 3.01 230.58, -0.38 229.07 M12.45 240.22 C8.21 235.5, 2.38 231.48, -0.38 229.07 M18.1 239.83 C11.95 234.17, 4.33 226.84, -0.02 224.08 M18.1 239.83 C12.75 234.6, 7.85 230.31, -0.02 224.08 M24.49 240.09 C18.08 232.66, 11.59 227.17, 0.34 219.1 M24.49 240.09 C18.28 234.89, 13.52 230.43, 0.34 219.1 M30.14 239.7 C22.47 233.07, 16.8 225.49, -0.05 213.45 M30.14 239.7 C22.02 232.94, 12.31 223.61, -0.05 213.45 M36.53 239.96 C23.04 229.38, 11.25 216.09, 0.31 208.47 M36.53 239.96 C24.58 230.92, 14.38 221.41, 0.31 208.47 M41.42 238.91 C24.28 225.33, 10.55 210.81, -0.09 202.82 M41.42 238.91 C26.46 225.2, 9.83 211.55, -0.09 202.82 M41.03 233.26 C28.99 220.59, 13.13 209.99, 0.27 197.84 M41.03 233.26 C30.24 222.36, 18.98 213.55, 0.27 197.84 M41.39 228.28 C30.16 217.74, 20.91 210.91, -0.12 192.19 M41.39 228.28 C29.24 216.69, 16.09 206.18, -0.12 192.19 M40.99 222.63 C32.68 213.67, 21.88 206.61, 0.24 187.21 M40.99 222.63 C28.08 212.09, 15.88 201.52, 0.24 187.21 M41.35 217.65 C24.16 203.85, 7.14 189.42, -0.16 181.56 M41.35 217.65 C29.12 206.34, 15.5 196.57, -0.16 181.56 M40.96 212 C25.97 200.86, 9.9 185.54, 0.2 176.58 M40.96 212 C23.99 198.26, 9.34 184.62, 0.2 176.58 M41.32 207.02 C28.19 198.77, 18.99 188.15, -0.19 170.93 M41.32 207.02 C28.07 195.77, 13.45 183.55, -0.19 170.93 M40.92 201.37 C28.71 190.52, 18.17 184.14, 0.17 165.95 M40.92 201.37 C24.49 188.39, 8 173.06, 0.17 165.95 M41.28 196.39 C29.87 187.82, 18.92 176.81, -0.22 160.3 M41.28 196.39 C32.03 188.65, 21.7 180.63, -0.22 160.3 M40.89 190.74 C23.27 175.18, 7.71 160.92, 0.14 155.32 M40.89 190.74 C30.35 181.28, 20.82 171.98, 0.14 155.32 M41.25 185.76 C29.72 175.66, 19.25 169.12, -0.26 149.67 M41.25 185.76 C25.65 172.23, 10.08 158.26, -0.26 149.67 M40.86 180.11 C24.17 164.44, 10.66 151.74, 0.1 144.69 M40.86 180.11 C27.53 168.23, 13.86 156.08, 0.1 144.69 M41.22 175.13 C31.14 168.37, 19.4 158.76, -0.29 139.04 M41.22 175.13 C32.03 166.69, 22.48 159.32, -0.29 139.04 M40.82 169.48 C28.42 157.37, 19.66 148.12, 0.07 134.06 M40.82 169.48 C29.66 158.13, 17.54 147.7, 0.07 134.06 M41.18 164.5 C32.4 158.65, 26 148.23, -0.33 128.41 M41.18 164.5 C24.66 151.29, 9.6 137.53, -0.33 128.41 M40.79 158.85 C31.03 152.27, 23.57 141.69, 0.03 123.43 M40.79 158.85 C33.59 151.97, 25.37 144.28, 0.03 123.43 M41.15 153.87 C28.5 140.53, 14.35 128.69, -0.36 117.78 M41.15 153.87 C28.66 141.8, 15.68 131.78, -0.36 117.78 M41.51 148.88 C26.26 133.86, 12.52 122.64, 0 112.8 M41.51 148.88 C30.95 140.07, 21.6 132.17, 0 112.8 M41.11 143.24 C28.27 133.31, 19.03 124.64, 0.36 107.81 M41.11 143.24 C31.58 134.65, 22.66 125.95, 0.36 107.81 M41.47 138.25 C30.37 130.14, 22.41 122.43, -0.04 102.17 M41.47 138.25 C24.77 124.53, 8.6 110.13, -0.04 102.17 M41.08 132.61 C33.47 126.63, 22.22 115.22, 0.32 97.18 M41.08 132.61 C31.13 124.86, 22.44 116.69, 0.32 97.18 M41.44 127.62 C27.84 116.57, 17.73 107.92, -0.07 91.54 M41.44 127.62 C25.25 115.1, 10.19 100.32, -0.07 91.54 M41.04 121.98 C31.59 114.97, 21.22 106.48, 0.29 86.55 M41.04 121.98 C27.82 109.75, 14.64 98.49, 0.29 86.55 M41.4 116.99 C27.42 104.15, 10.67 91.28, -0.11 80.91 M41.4 116.99 C30.32 106.39, 19.61 98.63, -0.11 80.91 M41.01 111.35 C32.52 102.73, 23.87 95.85, 0.25 75.92 M41.01 111.35 C30.67 103.79, 21.57 94.41, 0.25 75.92 M41.37 106.36 C29.44 95.51, 15.36 80.69, -0.14 70.28 M41.37 106.36 C29.48 95.9, 17.72 85.48, -0.14 70.28 M40.97 100.72 C26.57 85.08, 10.45 71.51, 0.22 65.29 M40.97 100.72 C33.1 94.26, 23.73 86.09, 0.22 65.29 M41.33 95.73 C30.28 85.24, 15.79 73.85, -0.17 59.65 M41.33 95.73 C31.77 85.71, 21.67 77.53, -0.17 59.65 M40.94 90.09 C29.72 80.6, 15.82 68.06, 0.19 54.66 M40.94 90.09 C27.11 77.53, 14.49 66.75, 0.19 54.66 M41.3 85.1 C28.43 75.47, 16.63 63.58, -0.21 49.02 M41.3 85.1 C29.33 74.76, 17.47 64.68, -0.21 49.02 M40.91 79.46 C31.47 71.67, 20.06 61.66, 0.15 44.03 M40.91 79.46 C29.75 69.4, 16.77 58.25, 0.15 44.03 M41.27 74.47 C29.23 61.98, 15.57 49.14, -0.24 38.39 M41.27 74.47 C26.96 63.35, 14.24 50.61, -0.24 38.39 M40.87 68.83 C26.57 53.19, 8.92 42.73, 0.12 33.4 M40.87 68.83 C32.32 62.31, 23.62 54.33, 0.12 33.4 M41.23 63.84 C24.15 49.76, 10.98 34.59, -0.28 27.76 M41.23 63.84 C31.93 55.92, 23.9 47.98, -0.28 27.76 M40.84 58.2 C32.35 49.53, 23.51 42.58, 0.08 22.77 M40.84 58.2 C25.99 44.07, 9.98 32.04, 0.08 22.77 M41.2 53.21 C30.38 47.01, 21.41 35.19, -0.31 17.13 M41.2 53.21 C33.07 46.24, 23.52 37.58, -0.31 17.13 M40.8 47.57 C25.74 33.43, 8.08 20.07, 0.05 12.14 M40.8 47.57 C27.81 36.82, 15.48 24.54, 0.05 12.14 M41.16 42.58 C25.61 31.78, 11.3 18.76, -0.35 6.5 M41.16 42.58 C30.7 32.14, 20.27 24.28, -0.35 6.5 M41.52 37.59 C31.3 30.41, 23.54 19.36, 0.01 1.51 M41.52 37.59 C28.03 24.48, 12.24 13.21, 0.01 1.51 M41.13 31.95 C32.19 22.03, 21.95 14.42, 1.88 -2.17 M41.13 31.95 C27.54 21.17, 14.64 10.54, 1.88 -2.17 M41.49 26.96 C27.72 14.85, 15.88 4.69, 8.28 -1.9 M41.49 26.96 C34.95 21.38, 27.67 14.8, 8.28 -1.9 M41.09 21.32 C31.56 13.6, 21.77 3.22, 13.92 -2.3 M41.09 21.32 C32.72 13.5, 25.18 7.4, 13.92 -2.3 M41.45 16.33 C37.03 11.69, 31.5 8.45, 20.32 -2.04 M41.45 16.33 C36.18 12.62, 30.93 7.65, 20.32 -2.04 M41.06 10.69 C34.49 7.57, 31.72 2.01, 25.96 -2.43 M41.06 10.69 C36.53 6.76, 33.23 3.97, 25.96 -2.43 M41.42 5.7 C38.65 3.41, 37.1 2.12, 32.36 -2.17 M41.42 5.7 C37.97 2.89, 34.6 -0.52, 32.36 -2.17" stroke="#228be6" stroke-width="0.5" fill="none"></path><path d="M0 0 C13.7 -2.18, 22.96 1.73, 40 0 M0 0 C13.75 0.04, 28.57 -0.34, 40 0 M40 0 C41.93 49.57, 40.84 97.35, 40 240 M40 0 C40.8 71.14, 40.96 141.01, 40 240 M40 240 C31.12 239.03, 18.16 238.77, 0 240 M40 240 C27.33 239.36, 16.77 240.43, 0 240 M0 240 C1.64 185.62, 0.35 132.03, 0 0 M0 240 C0.03 175.05, 0.3 109.94, 0 0" stroke="#000000" stroke-width="1" fill="none"></path></g><g stroke-linecap="round" transform="translate(315.3927637199456 147.1111111111113) rotate(0 20 80.00000000000011)"><path d="M0 0 C0 0, 0 0, 0 0 M0 0 C0 0, 0 0, 0 0 M-0.26 6.4 C1.52 4.72, 1.92 2.83, 4.99 0.36 M-0.26 6.4 C1.44 4.07, 3.94 1.85, 4.99 0.36 M0.13 12.04 C2.85 9.23, 4.86 6.85, 10.63 -0.03 M0.13 12.04 C3.08 9.2, 4.41 6.34, 10.63 -0.03 M-0.13 18.44 C5.37 15.76, 6.36 10.19, 15.62 0.33 M-0.13 18.44 C5.68 11.74, 11.77 5.9, 15.62 0.33 M0.27 24.08 C9.01 16.67, 14.45 8.1, 21.26 -0.07 M0.27 24.08 C7.74 14.65, 15.62 5.32, 21.26 -0.07 M0 30.48 C9.05 16.99, 21.64 5.16, 26.25 0.29 M0 30.48 C9.28 20.62, 18.16 10.04, 26.25 0.29 M-0.26 36.88 C9.58 26.53, 15.58 19.65, 31.89 -0.1 M-0.26 36.88 C10.87 22.91, 24.55 9.6, 31.89 -0.1 M0.14 42.52 C13.71 28.83, 24.8 14.27, 36.88 0.26 M0.14 42.52 C9.09 32.27, 19.25 22.4, 36.88 0.26 M-0.12 48.92 C15.05 33.97, 27.02 17.75, 40.55 2.13 M-0.12 48.92 C11.06 36.49, 21.34 23.09, 40.55 2.13 M0.27 54.56 C11.33 40.51, 22.46 26.58, 40.29 8.52 M0.27 54.56 C15.35 36.05, 31.57 19.34, 40.29 8.52 M0.01 60.96 C13.66 46.65, 28.33 31.11, 40.69 14.17 M0.01 60.96 C12.25 47.18, 22.73 34.2, 40.69 14.17 M-0.25 67.36 C13.48 50.79, 27.69 33.17, 40.42 20.56 M-0.25 67.36 C11.57 52.25, 24.72 38.02, 40.42 20.56 M0.14 73 C13.79 53.93, 28.5 38.07, 40.82 26.21 M0.14 73 C8.96 62.17, 18 52.94, 40.82 26.21 M-0.12 79.4 C15.26 59.82, 29.02 44.3, 40.56 32.61 M-0.12 79.4 C12.1 65.17, 26.03 50.51, 40.56 32.61 M0.28 85.04 C12.09 69.59, 26.04 58.24, 40.3 39 M0.28 85.04 C10.17 74.34, 18.56 65.32, 40.3 39 M0.01 91.44 C13.18 77.59, 25.56 66.56, 40.69 44.65 M0.01 91.44 C14.26 74.05, 28.45 57.24, 40.69 44.65 M-0.25 97.84 C7.28 88.69, 18.1 78.49, 40.43 51.04 M-0.25 97.84 C14.57 81.16, 28.89 63.14, 40.43 51.04 M0.15 103.48 C14.63 86.41, 33.06 66.85, 40.82 56.69 M0.15 103.48 C15.22 85.79, 31.27 68.08, 40.82 56.69 M-0.11 109.88 C10.91 96.46, 21.28 84.71, 40.56 63.09 M-0.11 109.88 C14.99 92.88, 29.26 75.78, 40.56 63.09 M0.28 115.52 C7.24 105.96, 16.55 96.94, 40.3 69.48 M0.28 115.52 C14.33 100.01, 26.6 84.68, 40.3 69.48 M0.02 121.92 C10.59 108.23, 24.44 94.89, 40.69 75.13 M0.02 121.92 C8.1 111.53, 17.41 102.85, 40.69 75.13 M-0.24 128.32 C11.46 112.79, 24.8 100.54, 40.43 81.52 M-0.24 128.32 C15.75 110.81, 31.2 92.24, 40.43 81.52 M0.15 133.96 C6.72 124.22, 16.81 115.66, 40.83 87.17 M0.15 133.96 C10.69 120.8, 22.11 108.21, 40.83 87.17 M-0.11 140.36 C11 127.92, 22.03 115.47, 40.57 93.56 M-0.11 140.36 C11.39 126.32, 24.8 113.05, 40.57 93.56 M0.29 146 C13.01 129.01, 24.67 115.72, 40.31 99.96 M0.29 146 C11.77 131.58, 24.52 119.03, 40.31 99.96 M0.02 152.4 C17.19 133.76, 30.88 113.36, 40.7 105.61 M0.02 152.4 C10.8 140.92, 20.71 129.39, 40.7 105.61 M-0.24 158.8 C12.34 142.62, 23.56 131.23, 40.44 112 M-0.24 158.8 C16.19 140.4, 31.51 121.61, 40.44 112 M4.09 159.91 C17.33 143.33, 33.44 125.7, 40.83 117.65 M4.09 159.91 C13.19 150.78, 19.52 140.73, 40.83 117.65 M9.08 160.27 C17.66 151.56, 23.55 142.31, 40.57 124.04 M9.08 160.27 C21.82 146.42, 34.81 131.6, 40.57 124.04 M14.72 159.88 C18.2 152.57, 24.21 147.31, 40.31 130.44 M14.72 159.88 C21.06 153.36, 26.2 146.98, 40.31 130.44 M19.71 160.24 C25.86 152.96, 34.05 143.03, 40.7 136.09 M19.71 160.24 C27.13 152.88, 32.68 144.12, 40.7 136.09 M25.35 159.84 C28.3 153.87, 36.61 150.06, 40.44 142.48 M25.35 159.84 C28.19 155.19, 33.44 152.09, 40.44 142.48 M30.34 160.2 C32.33 155.17, 35.68 151.99, 40.84 148.13 M30.34 160.2 C34.26 156.12, 37.53 153.06, 40.84 148.13 M35.98 159.81 C37.11 157.49, 39.72 155.48, 40.58 154.52 M35.98 159.81 C37.38 158.31, 38.45 156.85, 40.58 154.52 M0.02 160.02 C0.02 160.02, 0.02 160.02, 0.02 160.02 M0.02 160.02 C0.02 160.02, 0.02 160.02, 0.02 160.02 M6.42 160.28 C4.16 158.65, 2.58 156.8, -0.37 154.38 M6.42 160.28 C3.9 158.47, 2.32 156.21, -0.37 154.38 M12.06 159.89 C8.02 155.59, 3.4 152.13, -0.01 149.39 M12.06 159.89 C10.25 157.67, 7.85 155.85, -0.01 149.39 M18.46 160.15 C13.47 154.25, 7.42 149.94, 0.35 144.4 M18.46 160.15 C13.86 154.92, 8.47 149.86, 0.35 144.4 M24.1 159.75 C16.54 153.19, 12.71 148.83, -0.05 138.76 M24.1 159.75 C15.49 152.7, 7.52 145.92, -0.05 138.76 M30.5 160.02 C23.93 154.61, 15.69 147.38, 0.31 133.77 M30.5 160.02 C22.08 153.29, 12.67 145.17, 0.31 133.77 M36.9 160.28 C20.49 145.67, 9.1 133.23, -0.08 128.13 M36.9 160.28 C30.03 151.89, 21.14 145.67, -0.08 128.13 M41.03 158.57 C29.2 149.72, 17.17 139.8, 0.28 123.14 M41.03 158.57 C28.94 148.42, 17.8 139.09, 0.28 123.14 M41.39 153.58 C31.23 146.39, 20.49 136.64, -0.11 117.5 M41.39 153.58 C30.08 144.51, 18.92 134.78, -0.11 117.5 M41 147.94 C29.06 138.09, 14.28 126.72, 0.25 112.51 M41 147.94 C26.47 135.65, 12.71 123.6, 0.25 112.51 M41.36 142.95 C27.66 133.28, 14.54 122.31, -0.15 106.87 M41.36 142.95 C28.64 132.14, 17.04 121.6, -0.15 106.87 M40.97 137.31 C31.91 130.71, 22.95 123.09, 0.21 101.88 M40.97 137.31 C28.62 126.77, 17.9 117.33, 0.21 101.88 M41.33 132.32 C28.44 123.94, 19.68 112.04, -0.18 96.24 M41.33 132.32 C26.39 118.86, 9.31 105.45, -0.18 96.24 M40.93 126.68 C32.8 117.89, 20.99 110.19, 0.18 91.25 M40.93 126.68 C32.26 119.27, 24.39 112.19, 0.18 91.25 M41.29 121.69 C28.59 110.66, 12.51 98.32, -0.22 85.61 M41.29 121.69 C29.67 111.69, 17.6 99.76, -0.22 85.61 M40.9 116.05 C24.67 104.61, 13.03 89.32, 0.14 80.62 M40.9 116.05 C25.91 103.87, 11.56 89.96, 0.14 80.62 M41.26 111.06 C26.36 98.56, 11.92 86.24, -0.25 74.98 M41.26 111.06 C29.99 101.47, 19 91.65, -0.25 74.98 M40.86 105.42 C27.22 92.69, 15.26 80.44, 0.11 69.99 M40.86 105.42 C30.67 95.8, 18.7 87.36, 0.11 69.99 M41.22 100.43 C28.43 90.55, 19.81 79.58, -0.29 64.35 M41.22 100.43 C24.75 87.47, 9.54 73.72, -0.29 64.35 M40.83 94.79 C28.91 86.23, 21.09 77.86, 0.07 59.36 M40.83 94.79 C32.68 88.19, 24.41 80.33, 0.07 59.36 M41.19 89.8 C29.94 82.25, 21.01 72.16, -0.32 53.72 M41.19 89.8 C24.61 76.01, 7.78 62.35, -0.32 53.72 M40.79 84.16 C26.05 70.35, 8.33 56.57, 0.04 48.73 M40.79 84.16 C27.08 71.5, 11.15 59.36, 0.04 48.73 M41.15 79.17 C31.49 69.63, 16.69 58.24, -0.36 43.09 M41.15 79.17 C27.51 66.18, 12.04 55.37, -0.36 43.09 M41.51 74.19 C27.53 61.9, 12.32 50.59, 0 38.1 M41.51 74.19 C32.11 66.57, 21.67 58.08, 0 38.1 M41.12 68.54 C30.64 59.13, 19.94 51.26, 0.36 33.12 M41.12 68.54 C28.16 57.12, 14.27 45.13, 0.36 33.12 M41.48 63.56 C27.63 53.72, 14.77 40.07, -0.03 27.47 M41.48 63.56 C32.64 55.45, 21.99 47.56, -0.03 27.47 M41.08 57.91 C33.45 51.36, 22.33 43.21, 0.33 22.48 M41.08 57.91 C28.5 46.17, 16.01 34.59, 0.33 22.48 M41.44 52.93 C33.47 45.88, 22.44 37.1, -0.07 16.84 M41.44 52.93 C28.34 41.59, 17.46 31.6, -0.07 16.84 M41.05 47.28 C28.66 36.24, 21.31 29.35, 0.29 11.85 M41.05 47.28 C27.83 36.35, 13.58 23.4, 0.29 11.85 M41.41 42.3 C31.15 33.37, 21.69 24.41, -0.1 6.21 M41.41 42.3 C30.17 32.29, 20.05 23.37, -0.1 6.21 M41.01 36.65 C32.14 29.26, 20.17 17.43, 0.26 1.22 M41.01 36.65 C30.35 28.4, 20.91 17.66, 0.26 1.22 M41.37 31.66 C30.64 23.4, 20.22 11.86, 2.13 -2.45 M41.37 31.66 C28.06 19.68, 15.69 8.79, 2.13 -2.45 M40.98 26.02 C31.56 15.5, 19.01 9.37, 8.53 -2.19 M40.98 26.02 C32.26 17.87, 22.79 9.58, 8.53 -2.19 M41.34 21.03 C33.75 15.32, 27.58 8.25, 14.17 -2.58 M41.34 21.03 C30.84 11.56, 22.7 3.83, 14.17 -2.58 M40.95 15.39 C33.07 12.01, 27.13 6.47, 20.57 -2.32 M40.95 15.39 C37.05 10.88, 33.45 7.65, 20.57 -2.32 M41.31 10.4 C35.51 4.91, 31.62 4.01, 26.21 -2.72 M41.31 10.4 C35.15 6.08, 29.37 -0.27, 26.21 -2.72 M40.91 4.76 C37.98 2.25, 34.95 -1.32, 32.61 -2.45 M40.91 4.76 C38.36 2.56, 34.87 -0.47, 32.61 -2.45" stroke="#228be6" stroke-width="0.5" fill="none"></path><path d="M0 0 C17.12 1.59, 32.17 -1.66, 40 0 M0 0 C7.56 -0.63, 16.73 0.44, 40 0 M40 0 C39.53 62.93, 41.32 127.13, 40 160 M40 0 C39.67 47.02, 39.7 95.17, 40 160 M40 160 C23.29 159.73, 9.18 159.73, 0 160 M40 160 C32.08 159.33, 22.9 159.6, 0 160 M0 160 C-0.76 102.58, 1.31 47.16, 0 0 M0 160 C0.03 109.13, -1.25 57.19, 0 0" stroke="#000000" stroke-width="1" fill="none"></path></g><g stroke-linecap="round"><g transform="translate(7.596270993238477 45.76800687785271) rotate(0 0 140)"><path d="M-1.15 -1.12 C-1.35 45.21, -0.46 232.37, -0.42 279.03 M0.45 0.91 C-0.02 47.87, -1.77 233.62, -1.58 280.07" stroke="#000000" stroke-width="1" fill="none"></path></g></g><mask></mask><g stroke-linecap="round"><g transform="translate(7.132681797198757 327.0324474575373) rotate(0 290 0)"><path d="M-1.12 -0.42 C95.21 -0.37, 482.37 -0.97, 579.03 -0.86 M0.5 -1.68 C97.1 -1.4, 484.46 -0.33, 581.24 0.22" stroke="#000000" stroke-width="1" fill="none"></path></g></g><mask></mask><g transform="translate(6.503874831056464 6) rotate(0 45 16)"><text x="0" y="0" font-family="Virgil, Segoe UI Emoji" font-size="20px" fill="#000000" text-anchor="start" style="white-space: pre;" direction="ltr" dominant-baseline="text-before-edge">Waterfall</text></g><g stroke-linecap="round" transform="translate(135.3927637199456 66) rotate(0 20 30.000000000000043)"><path d="M0 0 C0 0, 0 0, 0 0 M0 0 C0 0, 0 0, 0 0 M-0.26 6.4 C1.15 4.86, 1.52 4.03, 4.99 0.36 M-0.26 6.4 C1.56 4.33, 3 3, 4.99 0.36 M0.13 12.04 C3.45 6.68, 8.12 2.37, 10.63 -0.03 M0.13 12.04 C4.32 8.09, 7.39 3.2, 10.63 -0.03 M-0.13 18.44 C5.58 13.9, 9.98 7.16, 15.62 0.33 M-0.13 18.44 C6.14 12.76, 11.75 4.39, 15.62 0.33 M0.27 24.08 C4.84 19.88, 9.54 11.48, 21.26 -0.07 M0.27 24.08 C4.37 18.88, 9.75 12.63, 21.26 -0.07 M0 30.48 C8.17 18.71, 17.87 10.32, 26.25 0.29 M0 30.48 C11.04 19.47, 21.29 5.89, 26.25 0.29 M-0.26 36.88 C7.78 29.88, 11.53 20.65, 31.89 -0.1 M-0.26 36.88 C11.09 22.8, 23.05 9.44, 31.89 -0.1 M0.14 42.52 C11.66 31.09, 21.18 18.91, 36.88 0.26 M0.14 42.52 C14.52 25.18, 29.72 9.59, 36.88 0.26 M-0.12 48.92 C13.08 31.89, 29.75 16.19, 41.21 1.37 M-0.12 48.92 C11.59 35.57, 25.57 20.38, 41.21 1.37 M0.27 54.56 C13.29 42.26, 21.27 30.3, 41.6 7.01 M0.27 54.56 C13.18 39.3, 26.71 25.32, 41.6 7.01 M0.67 60.2 C17.83 42.57, 34.57 22.21, 41.34 13.41 M0.67 60.2 C12.03 46.22, 25.22 32.55, 41.34 13.41 M5.65 60.56 C13.43 53.56, 22.22 45.54, 41.08 19.81 M5.65 60.56 C15 49.23, 24.29 40.42, 41.08 19.81 M11.3 60.17 C21.26 50.93, 28.35 39.7, 41.47 25.45 M11.3 60.17 C20.43 50.48, 28.51 40.16, 41.47 25.45 M16.28 60.53 C22.51 54.65, 27.48 47.14, 41.21 31.85 M16.28 60.53 C24.3 51.12, 30.29 43.63, 41.21 31.85 M21.93 60.14 C29.9 50.75, 36.54 40.13, 41.61 37.49 M21.93 60.14 C29.9 52.59, 36.82 43.08, 41.61 37.49 M26.91 60.5 C30.1 54.1, 36.4 52.64, 41.35 43.89 M26.91 60.5 C30.98 56.91, 33.93 52.69, 41.35 43.89 M32.56 60.1 C34.94 58.6, 36.5 55, 41.08 50.29 M32.56 60.1 C34.28 58.26, 36.74 55.58, 41.08 50.29 M37.54 60.46 C38.67 58.98, 40.27 57.91, 41.48 55.93 M37.54 60.46 C38.88 59.31, 39.74 57.54, 41.48 55.93 M-0.27 59.76 C-0.27 59.76, -0.27 59.76, -0.27 59.76 M-0.27 59.76 C-0.27 59.76, -0.27 59.76, -0.27 59.76 M6.12 60.02 C4.11 57.85, 2.76 55.75, 0.09 54.77 M6.12 60.02 C3.71 58.22, 2.46 56.47, 0.09 54.77 M12.52 60.28 C9.4 58.98, 6.52 54.73, -0.31 49.13 M12.52 60.28 C10.1 56.84, 7.13 55.21, -0.31 49.13 M18.16 59.89 C9.84 55.77, 5.16 47.57, 0.05 44.14 M18.16 59.89 C12.79 55.75, 8.07 50.53, 0.05 44.14 M24.56 60.15 C16.59 52.33, 10.73 48.77, -0.34 38.5 M24.56 60.15 C18.01 53.48, 12.68 48.06, -0.34 38.5 M30.21 59.76 C21.17 49.93, 13.15 43.28, 0.02 33.51 M30.21 59.76 C24.33 54.32, 18.14 48.43, 0.02 33.51 M36.6 60.02 C29.63 52.06, 18.65 45.61, 0.38 28.53 M36.6 60.02 C25.37 49.26, 14.57 41.38, 0.38 28.53 M40.74 58.31 C30.52 50.21, 18.75 40.57, -0.02 22.88 M40.74 58.31 C33.71 50.83, 23.66 44.23, -0.02 22.88 M40.34 52.67 C30.89 41.62, 18.3 31.2, 0.34 17.9 M40.34 52.67 C27.44 42.07, 17.09 32.48, 0.34 17.9 M40.7 47.68 C25.2 34.66, 10.1 22.94, -0.05 12.25 M40.7 47.68 C29.74 36.39, 17.78 26.81, -0.05 12.25 M40.31 42.04 C23.73 30.09, 10.58 14.97, 0.31 7.27 M40.31 42.04 C29.93 32.67, 21.79 25.75, 0.31 7.27 M40.67 37.05 C28.93 25.39, 17.73 15.72, -0.09 1.62 M40.67 37.05 C27.6 24.63, 14.82 14.66, -0.09 1.62 M40.27 31.41 C28.61 20.53, 15.67 7.82, 3.29 -0.74 M40.27 31.41 C28.94 22.2, 19.51 12.76, 3.29 -0.74 M40.63 26.42 C33.21 19.65, 23.92 11.51, 9.69 -0.48 M40.63 26.42 C34 19.74, 27.66 14.94, 9.69 -0.48 M40.24 20.78 C34.73 14.7, 28.34 8.13, 16.09 -0.22 M40.24 20.78 C33.97 16.23, 28.87 10.94, 16.09 -0.22 M40.6 15.79 C37.09 10.56, 29.89 7.95, 21.73 -0.61 M40.6 15.79 C33.6 10.45, 25.19 2.64, 21.73 -0.61 M40.2 10.15 C34.42 7.11, 33.24 1.71, 28.13 -0.35 M40.2 10.15 C36.9 7.24, 32.39 3.26, 28.13 -0.35 M40.56 5.16 C38.71 3.9, 36.69 1.63, 33.77 -0.74 M40.56 5.16 C38.4 3.04, 36.41 2.01, 33.77 -0.74" stroke="#fa5252" stroke-width="0.5" fill="none"></path><path d="M0 0 C9.36 1.8, 18.85 0.49, 40 0 M0 0 C10.65 -0.21, 20.54 -0.02, 40 0 M40 0 C40.6 14.51, 38.65 24.93, 40 60 M40 0 C39.91 12.91, 39.35 27.93, 40 60 M40 60 C25.15 60.96, 10.94 59.42, 0 60 M40 60 C32.25 60.27, 24.12 60.6, 0 60 M0 60 C1.13 36.47, 1.05 14.88, 0 0 M0 60 C-1.01 45.72, 0.05 33.58, 0 0" stroke="#000000" stroke-width="1" fill="none"></path></g><g stroke-linecap="round" transform="translate(255.3927637199456 107.11111111111131) rotate(0 20 20)"><path d="M0 0 C0 0, 0 0, 0 0 M0 0 C0 0, 0 0, 0 0 M-0.26 6.4 C1.17 4.65, 2.71 3, 4.99 0.36 M-0.26 6.4 C1.52 4.2, 3.3 2.07, 4.99 0.36 M0.13 12.04 C3.93 7.9, 6.57 5.53, 10.63 -0.03 M0.13 12.04 C2.62 9.3, 5.45 6.33, 10.63 -0.03 M-0.13 18.44 C5.46 12.26, 10.47 7.79, 15.62 0.33 M-0.13 18.44 C5.37 11.73, 10.94 6.05, 15.62 0.33 M0.27 24.08 C4.11 19.19, 8.78 13.76, 21.26 -0.07 M0.27 24.08 C6.26 17.55, 11.91 10.16, 21.26 -0.07 M0 30.48 C6.71 21.9, 15.15 14.33, 26.25 0.29 M0 30.48 C9.35 20.15, 19.03 9.46, 26.25 0.29 M-0.26 36.88 C7.59 28.02, 15 18.38, 31.89 -0.1 M-0.26 36.88 C8.94 26.87, 18.33 16.16, 31.89 -0.1 M2.11 40.26 C14.01 26.92, 25.29 12.82, 36.88 0.26 M2.11 40.26 C13.62 26.92, 24.65 13.61, 36.88 0.26 M7.09 40.62 C18.4 26.93, 29.76 14.32, 40.55 2.13 M7.09 40.62 C18.94 26.88, 31.67 13.01, 40.55 2.13 M12.74 40.22 C19.68 33.58, 25.99 25.09, 40.29 8.52 M12.74 40.22 C23.61 27.31, 34.86 15.01, 40.29 8.52 M17.72 40.58 C26.07 30.81, 33.92 20.99, 40.69 14.17 M17.72 40.58 C24.32 32.63, 31.31 25.39, 40.69 14.17 M23.37 40.19 C29.05 32.19, 36.24 24.19, 40.42 20.56 M23.37 40.19 C27.87 34.84, 33.06 29.46, 40.42 20.56 M28.35 40.55 C30.21 36.57, 33.94 34.27, 40.82 26.21 M28.35 40.55 C31.51 37.34, 34.47 33.93, 40.82 26.21 M34 40.15 C35.9 37.9, 38.88 34.43, 40.56 32.61 M34 40.15 C35.25 38.64, 36.93 36.72, 40.56 32.61 M38.98 40.51 C39.27 40.24, 39.71 39.86, 40.3 39 M38.98 40.51 C39.46 39.89, 39.98 39.3, 40.3 39 M-0.18 39.84 C-0.18 39.84, -0.18 39.84, -0.18 39.84 M-0.18 39.84 C-0.18 39.84, -0.18 39.84, -0.18 39.84 M6.21 40.1 C4.88 39.05, 3.04 37.75, 0.18 34.85 M6.21 40.1 C4.15 38.43, 2.08 36.47, 0.18 34.85 M11.86 39.71 C7.24 35.45, 3.27 32.45, -0.22 29.21 M11.86 39.71 C8.98 36.93, 6.13 34.38, -0.22 29.21 M18.26 39.97 C12.6 34.58, 7.31 30.37, 0.14 24.22 M18.26 39.97 C12.2 34.47, 6.11 29.32, 0.14 24.22 M24.65 40.23 C18.8 34.66, 13.04 28.49, -0.25 18.58 M24.65 40.23 C17.28 34.63, 10.67 28.11, -0.25 18.58 M30.3 39.84 C18.18 30.22, 7.7 20.66, 0.11 13.59 M30.3 39.84 C24.37 34.76, 17.85 28.85, 0.11 13.59 M36.69 40.1 C22.77 28.33, 9.45 15.82, -0.29 7.95 M36.69 40.1 C24.62 29.42, 12.83 18.94, -0.29 7.95 M40.83 38.39 C31.8 31.89, 22.75 23.52, 0.07 2.96 M40.83 38.39 C32.37 31.25, 24.27 23.82, 0.07 2.96 M40.43 32.75 C31.47 25.06, 24.34 19.08, 1.94 -0.71 M40.43 32.75 C28.8 22.75, 18.1 13.34, 1.94 -0.71 M40.79 27.76 C31.85 19.19, 22.03 11.65, 8.34 -0.45 M40.79 27.76 C34.06 22.56, 27.33 16.52, 8.34 -0.45 M40.4 22.12 C30.18 13.45, 22.41 6.91, 13.98 -0.84 M40.4 22.12 C34.03 16.08, 27.55 11.42, 13.98 -0.84 M40.76 17.13 C35.53 12.81, 29.75 7.25, 20.38 -0.58 M40.76 17.13 C34.67 11.31, 28.03 5.98, 20.38 -0.58 M40.36 11.49 C36.45 7.66, 32.36 5.52, 26.78 -0.32 M40.36 11.49 C37.5 9.19, 34.11 5.73, 26.78 -0.32 M40.72 6.5 C37.65 3.72, 35.14 1.16, 32.42 -0.72 M40.72 6.5 C38.92 5.1, 37.12 3.51, 32.42 -0.72 M40.33 0.86 C39.99 0.59, 39.51 0.24, 38.82 -0.45 M40.33 0.86 C40 0.54, 39.59 0.27, 38.82 -0.45" stroke="#fd7e14" stroke-width="0.5" fill="none"></path><path d="M0 0 C13.54 0.55, 26.21 0.34, 40 0 M0 0 C12.17 0.28, 25.59 -0.21, 40 0 M40 0 C39.77 10.43, 38.95 20.35, 40 40 M40 0 C39.91 12.91, 40.37 25.99, 40 40 M40 40 C28.96 40.39, 17.99 40.47, 0 40 M40 40 C25.53 40.62, 11.39 40.6, 0 40 M0 40 C0.2 24.95, -0.63 11.54, 0 0 M0 40 C0.16 25.15, -0.23 11.07, 0 0" stroke="#000000" stroke-width="1" fill="none"></path></g><g stroke-linecap="round" transform="translate(195.3927637199456 106.00000000000023) rotate(0 20 10)"><path d="M0 0 C0 0, 0 0, 0 0 M0 0 C0 0, 0 0, 0 0 M-0.26 6.4 C1.23 4.98, 1.89 3.56, 4.99 0.36 M-0.26 6.4 C1.23 5.05, 2.27 3.41, 4.99 0.36 M0.13 12.04 C3.99 7.55, 8.11 3.74, 10.63 -0.03 M0.13 12.04 C4.14 7.96, 7.48 3.66, 10.63 -0.03 M-0.13 18.44 C5.42 11.2, 11.29 4.18, 15.62 0.33 M-0.13 18.44 C5.75 10.92, 12.5 3.81, 15.62 0.33 M3.55 20.31 C9.94 13.63, 15.99 6.31, 21.26 -0.07 M3.55 20.31 C8.39 14.98, 12.27 10.52, 21.26 -0.07 M8.53 20.67 C14.28 12.85, 22.42 5.91, 26.25 0.29 M8.53 20.67 C14.72 14.03, 20.28 7.18, 26.25 0.29 M14.18 20.27 C18.35 15.34, 23.8 10.9, 31.89 -0.1 M14.18 20.27 C20.45 13.69, 25.92 6.78, 31.89 -0.1 M19.16 20.63 C24.35 15.54, 28.53 9.16, 36.88 0.26 M19.16 20.63 C24.11 14.62, 29.07 8.64, 36.88 0.26 M24.81 20.24 C30.59 12.69, 37.29 6.92, 40.55 2.13 M24.81 20.24 C30 14.6, 35.47 8.65, 40.55 2.13 M29.79 20.6 C33.55 17.06, 35.59 13.98, 40.29 8.52 M29.79 20.6 C33.38 16.34, 37.04 11.87, 40.29 8.52 M35.44 20.2 C36.71 18.2, 38.52 16.47, 40.69 14.17 M35.44 20.2 C37.25 17.82, 39.15 15.73, 40.69 14.17 M-0.09 19.92 C-0.09 19.92, -0.09 19.92, -0.09 19.92 M-0.09 19.92 C-0.09 19.92, -0.09 19.92, -0.09 19.92 M6.31 20.18 C4.05 18.73, 2.58 17.11, 0.27 14.93 M6.31 20.18 C4.43 18.39, 2.76 17.06, 0.27 14.93 M11.95 19.79 C10.19 16.86, 7.48 15.28, -0.13 9.29 M11.95 19.79 C8.7 16.56, 5.32 14.02, -0.13 9.29 M18.35 20.05 C11.58 13.51, 4.41 7.98, 0.23 4.3 M18.35 20.05 C14.18 17.05, 10.82 13.63, 0.23 4.3 M24.74 20.31 C15.58 13.5, 5.98 5, 0.59 -0.68 M24.74 20.31 C15.19 12.5, 6.62 4.05, 0.59 -0.68 M30.39 19.92 C21.44 12.28, 13.31 4.55, 6.99 -0.42 M30.39 19.92 C23.81 14.2, 17.07 8.86, 6.99 -0.42 M36.79 20.18 C27.92 12.27, 18.45 4.62, 12.64 -0.82 M36.79 20.18 C31.23 15.58, 26.27 11.3, 12.64 -0.82 M40.16 17.81 C33.79 12.12, 25.5 6.08, 19.03 -0.56 M40.16 17.81 C33.39 12.57, 27.46 7.23, 19.03 -0.56 M40.52 12.83 C37.18 9.53, 35.13 7.49, 24.68 -0.95 M40.52 12.83 C35.59 8.34, 31.03 4.65, 24.68 -0.95 M40.13 7.18 C36.87 4.54, 33.53 1.01, 31.07 -0.69 M40.13 7.18 C38.09 5.53, 36.55 4.08, 31.07 -0.69 M40.49 2.2 C39.54 1.43, 38.75 0.77, 37.47 -0.43 M40.49 2.2 C39.8 1.51, 39.11 0.81, 37.47 -0.43" stroke="#40c057" stroke-width="0.5" fill="none"></path><path d="M0 0 C12.96 -0.66, 27.07 1, 40 0 M0 0 C9.7 0.09, 19.44 -0.31, 40 0 M40 0 C39.25 4.4, 39.51 10.08, 40 20 M40 0 C39.84 4.62, 40.2 9.27, 40 20 M40 20 C26.88 19.75, 12.68 20, 0 20 M40 20 C25.09 19.87, 9.19 19.46, 0 20 M0 20 C0.36 13.7, -1 5.98, 0 0 M0 20 C0.23 14.66, -0.39 9.19, 0 0" stroke="#000000" stroke-width="1" fill="none"></path></g><g stroke-linecap="round"><g transform="translate(115.3927637199456 66) rotate(0 10 0)"><path d="M-0.02 0.23 C3.22 0.17, 16.75 -0.37, 20 -0.47 M-0.69 -0.13 C2.43 -0.12, 16.02 -0.05, 19.57 -0.01" stroke="#000000" stroke-width="1" fill="none"></path></g></g><mask></mask><g stroke-linecap="round"><g transform="translate(176.02985169129056 126.69877429990493) rotate(0 10 0)"><path d="M-0.29 0.33 C3.05 0.5, 16.41 0.48, 19.72 0.44 M0.56 0.03 C4.11 0.09, 17.47 -0.41, 20.8 -0.3" stroke="#000000" stroke-width="1" fill="none"></path></g></g><mask></mask><g stroke-linecap="round"><g transform="translate(236.0885710759601 107.79959556489393) rotate(0 10 0)"><path d="M-0.32 0.31 C3.09 0.35, 17.23 -0.26, 20.54 -0.32 M0.52 0 C3.9 0.15, 17.04 0.13, 20.39 0.22" stroke="#000000" stroke-width="1" fill="none"></path></g></g><mask></mask><g stroke-linecap="round"><g transform="translate(296.5010628795769 148.6275352519483) rotate(0 10 0)"><path d="M-0.51 -0.14 C2.91 -0.17, 17.04 -0.21, 20.49 -0.25 M0.23 -0.69 C3.62 -0.64, 17.02 0.2, 20.31 0.33" stroke="#000000" stroke-width="1" fill="none"></path></g></g><mask></mask><g stroke-linecap="round" transform="translate(424.7260970532791 88.33333333333348) rotate(0 12.626262626262815 12.626262626262843)"><path d="M0 0 C0 0, 0 0, 0 0 M0 0 C0 0, 0 0, 0 0 M-0.26 6.4 C1.89 3.78, 3.37 1.57, 4.99 0.36 M-0.26 6.4 C1.38 4.62, 3.03 2.41, 4.99 0.36 M0.13 12.04 C4.39 7.59, 7.31 3.69, 10.63 -0.03 M0.13 12.04 C3.93 7.46, 8.6 2.9, 10.63 -0.03 M-0.13 18.44 C4.14 13.4, 9.53 6.28, 15.62 0.33 M-0.13 18.44 C5.75 11.79, 11.21 5.32, 15.62 0.33 M0.27 24.08 C5.59 17.92, 8.83 13.78, 21.26 -0.07 M0.27 24.08 C8.12 14.28, 16.26 5.69, 21.26 -0.07 M4.6 25.2 C10.45 17.63, 16.76 11.19, 26.25 0.29 M4.6 25.2 C12.57 16.4, 20.26 7.32, 26.25 0.29 M9.58 25.56 C15.15 18.24, 21.86 10.98, 25.99 6.69 M9.58 25.56 C14.5 19.66, 19.76 13.21, 25.99 6.69 M15.23 25.16 C19.9 20.26, 22.87 16.35, 25.72 13.09 M15.23 25.16 C18.1 21.8, 21.5 18.22, 25.72 13.09 M20.21 25.52 C22.33 23.56, 24.19 20.76, 26.12 18.73 M20.21 25.52 C21.88 23.88, 23.24 21.7, 26.12 18.73 M0.33 25.54 C0.33 25.54, 0.33 25.54, 0.33 25.54 M0.33 25.54 C0.33 25.54, 0.33 25.54, 0.33 25.54 M5.97 25.14 C4.89 24.16, 3.44 22.87, -0.07 19.89 M5.97 25.14 C3.69 23.02, 1.37 21.16, -0.07 19.89 M12.37 25.4 C7.87 22.01, 3.85 19.38, 0.29 14.91 M12.37 25.4 C9.42 22.61, 6.43 19.7, 0.29 14.91 M18.01 25.01 C11.67 19.4, 4.44 12, -0.1 9.26 M18.01 25.01 C14.08 21.77, 9.58 18.05, -0.1 9.26 M24.41 25.27 C18.13 20.78, 14.28 16.18, 0.26 4.28 M24.41 25.27 C15.49 17.38, 7.03 9.95, 0.26 4.28 M25.52 20.94 C19.19 16.18, 14.11 11.37, 0.62 -0.71 M25.52 20.94 C15.56 12.23, 6 4.8, 0.62 -0.71 M25.88 15.95 C19.84 10.99, 12.72 4.51, 7.02 -0.45 M25.88 15.95 C19.29 10.44, 12.36 3.84, 7.02 -0.45 M25.49 10.31 C22.07 7.69, 18.47 4.22, 12.66 -0.84 M25.49 10.31 C21.76 7.37, 17.79 3.51, 12.66 -0.84 M25.85 5.32 C24.09 3.67, 22.17 2.72, 19.06 -0.58 M25.85 5.32 C23.41 3.32, 21.27 1.52, 19.06 -0.58" stroke="#228be6" stroke-width="0.5" fill="none"></path><path d="M0 0 C4.72 0.34, 10.44 0.16, 25.25 0 M0 0 C9.87 -0.18, 19.14 -0.45, 25.25 0 M25.25 0 C24.4 7.48, 24.46 15.25, 25.25 25.25 M25.25 0 C25.09 6.8, 25.75 14.55, 25.25 25.25 M25.25 25.25 C19.29 26.04, 13.13 24.92, 0 25.25 M25.25 25.25 C20.5 25.67, 15.07 25.5, 0 25.25 M0 25.25 C0.28 14.96, -0.63 5.46, 0 0 M0 25.25 C-0.06 17.12, -0.53 8.55, 0 0" stroke="#000000" stroke-width="1" fill="none"></path></g><g stroke-linecap="round" transform="translate(424.7260970532791 126.21212121212375) rotate(0 12.626262626262815 12.626262626262843)"><path d="M0 0 C0 0, 0 0, 0 0 M0 0 C0 0, 0 0, 0 0 M-0.26 6.4 C0.92 4.4, 2.81 3.31, 4.99 0.36 M-0.26 6.4 C0.94 4.81, 2.33 3.68, 4.99 0.36 M0.13 12.04 C3.98 7.58, 9 3.3, 10.63 -0.03 M0.13 12.04 C2.67 9.77, 4.83 7.12, 10.63 -0.03 M-0.13 18.44 C4.71 11.94, 11.21 6.13, 15.62 0.33 M-0.13 18.44 C5.62 11.78, 11.78 3.92, 15.62 0.33 M0.27 24.08 C5.58 17.42, 12.97 10.13, 21.26 -0.07 M0.27 24.08 C7.36 16.1, 15.14 6.72, 21.26 -0.07 M4.6 25.2 C10.59 18.3, 18.87 9.45, 26.25 0.29 M4.6 25.2 C8.95 20.16, 13.9 14.91, 26.25 0.29 M9.58 25.56 C12.72 21.51, 16.47 18.23, 25.99 6.69 M9.58 25.56 C14.22 19.65, 19.64 14.49, 25.99 6.69 M15.23 25.16 C16.97 23.04, 19.61 20.65, 25.72 13.09 M15.23 25.16 C18.58 21.63, 21.69 18.02, 25.72 13.09 M20.21 25.52 C21.97 23.29, 23.28 22.13, 26.12 18.73 M20.21 25.52 C21.19 24.01, 22.54 22.74, 26.12 18.73 M0.33 25.54 C0.33 25.54, 0.33 25.54, 0.33 25.54 M0.33 25.54 C0.33 25.54, 0.33 25.54, 0.33 25.54 M5.97 25.14 C4.76 24.07, 3.55 22.68, -0.07 19.89 M5.97 25.14 C3.79 23.23, 1.46 21.17, -0.07 19.89 M12.37 25.4 C7.74 22.71, 4.14 19.08, 0.29 14.91 M12.37 25.4 C10.14 22.95, 7.75 20.72, 0.29 14.91 M18.01 25.01 C14.18 20.69, 8.81 17.65, -0.1 9.26 M18.01 25.01 C13.1 21.24, 8.37 16.95, -0.1 9.26 M24.41 25.27 C18.01 19.4, 10.48 13.13, 0.26 4.28 M24.41 25.27 C19.15 20.46, 13.07 15.43, 0.26 4.28 M25.52 20.94 C19.31 15.97, 13.81 10.33, 0.62 -0.71 M25.52 20.94 C20.04 16.92, 15.7 11.61, 0.62 -0.71 M25.88 15.95 C19.69 10.7, 14.21 4.57, 7.02 -0.45 M25.88 15.95 C19.07 9.78, 11.87 4.3, 7.02 -0.45 M25.49 10.31 C22.22 7.51, 18.23 3.75, 12.66 -0.84 M25.49 10.31 C20.99 6.33, 16.96 3.16, 12.66 -0.84 M25.85 5.32 C23.18 3.56, 21.05 0.79, 19.06 -0.58 M25.85 5.32 C24.33 4.19, 23.1 2.5, 19.06 -0.58" stroke="#fa5252" stroke-width="0.5" fill="none"></path><path d="M0 0 C4.98 0.04, 12.72 -0.41, 25.25 0 M0 0 C9.65 -0.31, 20.04 -0.14, 25.25 0 M25.25 0 C24.4 10.81, 25.02 19.87, 25.25 25.25 M25.25 0 C25.68 9.76, 24.9 18.92, 25.25 25.25 M25.25 25.25 C18.9 25.09, 11.67 26.14, 0 25.25 M25.25 25.25 C15.99 25.49, 7.03 25.33, 0 25.25 M0 25.25 C-0.66 17.33, 0.32 11.39, 0 0 M0 25.25 C-0.43 16.61, -0.31 7.34, 0 0" stroke="#000000" stroke-width="1" fill="none"></path></g><g stroke-linecap="round" transform="translate(424.7260970532791 162.9797979798011) rotate(0 12.626262626262815 12.626262626262843)"><path d="M0 0 C0 0, 0 0, 0 0 M0 0 C0 0, 0 0, 0 0 M-0.26 6.4 C1.3 4.39, 3.76 1.96, 4.99 0.36 M-0.26 6.4 C1.12 4.73, 2.97 3.02, 4.99 0.36 M0.13 12.04 C4.29 8.29, 8.64 2.34, 10.63 -0.03 M0.13 12.04 C2.83 9.4, 5.16 6.72, 10.63 -0.03 M-0.13 18.44 C2.93 15.18, 6.68 11.34, 15.62 0.33 M-0.13 18.44 C5.01 12.66, 8.95 7.59, 15.62 0.33 M0.27 24.08 C8.29 16.02, 15.69 6.64, 21.26 -0.07 M0.27 24.08 C5.6 18.65, 9.52 13.21, 21.26 -0.07 M4.6 25.2 C10.44 20.24, 14.33 12.98, 26.25 0.29 M4.6 25.2 C11.55 17.72, 18.31 8.92, 26.25 0.29 M9.58 25.56 C13.13 21.41, 17.45 16.82, 25.99 6.69 M9.58 25.56 C13.27 21.32, 17.69 15.77, 25.99 6.69 M15.23 25.16 C19.65 20.58, 23.8 16.09, 25.72 13.09 M15.23 25.16 C18.08 22.09, 20.86 18.73, 25.72 13.09 M20.21 25.52 C21.88 23.03, 24.62 20.32, 26.12 18.73 M20.21 25.52 C22.01 23.27, 24.05 21.16, 26.12 18.73 M0.33 25.54 C0.33 25.54, 0.33 25.54, 0.33 25.54 M0.33 25.54 C0.33 25.54, 0.33 25.54, 0.33 25.54 M5.97 25.14 C3.84 23.58, 1.43 21.59, -0.07 19.89 M5.97 25.14 C4.06 23.46, 1.96 21.72, -0.07 19.89 M12.37 25.4 C10.39 22.62, 7.46 19.85, 0.29 14.91 M12.37 25.4 C7.94 22.2, 3.72 17.97, 0.29 14.91 M18.01 25.01 C10.7 18.61, 4.76 13.21, -0.1 9.26 M18.01 25.01 C12.18 19.41, 5.93 14.59, -0.1 9.26 M24.41 25.27 C19.52 21.38, 14.28 15.4, 0.26 4.28 M24.41 25.27 C17.67 19.07, 10.62 13.27, 0.26 4.28 M25.52 20.94 C20.09 16.65, 14.06 9.78, 0.62 -0.71 M25.52 20.94 C20.79 16.47, 14.6 11.74, 0.62 -0.71 M25.88 15.95 C19.24 10.87, 11.85 5.17, 7.02 -0.45 M25.88 15.95 C19.11 10.26, 13.17 4.58, 7.02 -0.45 M25.49 10.31 C21.46 6.53, 16.55 3.15, 12.66 -0.84 M25.49 10.31 C21.38 6.87, 18.16 4.13, 12.66 -0.84 M25.85 5.32 C24.24 3.71, 21.61 1.44, 19.06 -0.58 M25.85 5.32 C24.52 4.23, 22.64 2.74, 19.06 -0.58" stroke="#40c057" stroke-width="0.5" fill="none"></path><path d="M0 0 C5.19 0.99, 9.86 1.1, 25.25 0 M0 0 C7.72 0.02, 15.94 0.56, 25.25 0 M25.25 0 C26.25 5.38, 25.46 11.87, 25.25 25.25 M25.25 0 C25.2 6.34, 24.65 13.03, 25.25 25.25 M25.25 25.25 C17.22 24.27, 10.51 25.93, 0 25.25 M25.25 25.25 C15.95 25.67, 6.32 25.23, 0 25.25 M0 25.25 C-0.47 17.33, 0.96 9.22, 0 0 M0 25.25 C0.15 17.15, -0.23 9.18, 0 0" stroke="#000000" stroke-width="1" fill="none"></path></g><g transform="translate(459.39276371994515 84.5555555555552) rotate(0 26 16)"><text x="0" y="0" font-family="Virgil, Segoe UI Emoji" font-size="20px" fill="#000000" text-anchor="start" style="white-space: pre;" direction="ltr" dominant-baseline="text-before-edge">item 1</text></g><g transform="translate(456.0594303866121 124.5555555555552) rotate(0 32 16)"><text x="0" y="0" font-family="Virgil, Segoe UI Emoji" font-size="20px" fill="#000000" text-anchor="start" style="white-space: pre;" direction="ltr" dominant-baseline="text-before-edge">item 2</text></g><g transform="translate(456.0594303866112 160.1111111111104) rotate(0 31.5 16)"><text x="0" y="0" font-family="Virgil, Segoe UI Emoji" font-size="20px" fill="#000000" text-anchor="start" style="white-space: pre;" direction="ltr" dominant-baseline="text-before-edge">item 3</text></g><g stroke-linecap="round" transform="translate(427.00387483105555 202.87878787879072) rotate(0 12.626262626262815 12.626262626262843)"><path d="M0 0 C0 0, 0 0, 0 0 M0 0 C0 0, 0 0, 0 0 M-0.26 6.4 C1.09 4.65, 2.73 2.55, 4.99 0.36 M-0.26 6.4 C1.75 4.22, 3.69 2.07, 4.99 0.36 M0.13 12.04 C4.99 7.09, 8.18 2.47, 10.63 -0.03 M0.13 12.04 C2.52 9.29, 5.1 5.76, 10.63 -0.03 M-0.13 18.44 C4.81 13.48, 9.37 6.84, 15.62 0.33 M-0.13 18.44 C4.85 12.32, 9.62 7.13, 15.62 0.33 M0.27 24.08 C8.05 15.05, 14.91 6.72, 21.26 -0.07 M0.27 24.08 C6.95 16.72, 14.14 8.05, 21.26 -0.07 M4.6 25.2 C11.37 16.92, 20.76 8.4, 26.25 0.29 M4.6 25.2 C9.44 19.67, 13.77 14.22, 26.25 0.29 M9.58 25.56 C13.5 20.5, 17.31 17.11, 25.99 6.69 M9.58 25.56 C13.35 21.08, 18.27 16.1, 25.99 6.69 M15.23 25.16 C18 21.75, 20.49 19.43, 25.72 13.09 M15.23 25.16 C17.7 22.59, 19.67 20.51, 25.72 13.09 M20.21 25.52 C22.33 22.57, 24.8 19.85, 26.12 18.73 M20.21 25.52 C22.37 23.02, 24.24 20.74, 26.12 18.73 M0.33 25.54 C0.33 25.54, 0.33 25.54, 0.33 25.54 M0.33 25.54 C0.33 25.54, 0.33 25.54, 0.33 25.54 M5.97 25.14 C4.28 23.22, 2.45 21.96, -0.07 19.89 M5.97 25.14 C3.62 23.15, 1.32 21.39, -0.07 19.89 M12.37 25.4 C7.83 21.53, 4.68 17.63, 0.29 14.91 M12.37 25.4 C9.54 23.21, 7.34 21.08, 0.29 14.91 M18.01 25.01 C12.07 20.34, 5.9 14.03, -0.1 9.26 M18.01 25.01 C12.06 19.98, 5.94 14.72, -0.1 9.26 M24.41 25.27 C16.95 18.92, 9.78 13.23, 0.26 4.28 M24.41 25.27 C17.57 19.38, 9.77 12.53, 0.26 4.28 M25.52 20.94 C21.06 16.33, 15.24 12.25, 0.62 -0.71 M25.52 20.94 C17.89 14.15, 10.23 7.08, 0.62 -0.71 M25.88 15.95 C19.52 10.24, 13.2 5.9, 7.02 -0.45 M25.88 15.95 C21.69 12.43, 18.38 9.27, 7.02 -0.45 M25.49 10.31 C21.21 6.21, 17.6 2.96, 12.66 -0.84 M25.49 10.31 C21.61 6.84, 16.64 3.19, 12.66 -0.84 M25.85 5.32 C23.96 3.27, 22.25 1.87, 19.06 -0.58 M25.85 5.32 C24.05 3.67, 22.13 1.94, 19.06 -0.58" stroke="#fd7e14" stroke-width="0.5" fill="none"></path><path d="M0 0 C6 1.02, 12.06 -0.75, 25.25 0 M0 0 C10.46 0.25, 19.7 0.33, 25.25 0 M25.25 0 C24.86 6.67, 25.54 12.11, 25.25 25.25 M25.25 0 C24.93 6.53, 25.58 13.12, 25.25 25.25 M25.25 25.25 C17.31 25.86, 9.85 24.66, 0 25.25 M25.25 25.25 C16.62 25.26, 8.22 25.76, 0 25.25 M0 25.25 C0.89 18.97, -0.08 12.11, 0 0 M0 25.25 C0.28 19.24, 0.31 12.85, 0 0" stroke="#000000" stroke-width="1" fill="none"></path></g><g transform="translate(458.3372081643877 201.22222222222217) rotate(0 30 16)"><text x="0" y="0" font-family="Virgil, Segoe UI Emoji" font-size="20px" fill="#000000" text-anchor="start" style="white-space: pre;" direction="ltr" dominant-baseline="text-before-edge">item 4</text></g></svg>