<svg version="1.1" xmlns="http://www.w3.org/2000/svg" viewBox="0 0 594.4534992666926 333.96885827425945" width="594.4534992666926" height="333.96885827425945">
  <!-- svg-source:excalidraw -->
  
  <defs>
    
    
  </defs>
  <g stroke-linecap="round"><g transform="translate(7.09350562922009 45.635872648870645) rotate(0 0 140)"><path d="M-0.92 0.92 C-1.19 47.51, -1.14 233.77, -0.81 280.32 M0.8 0.36 C0.84 46.5, 1.47 231.48, 1.47 278.37" stroke="#000000" stroke-width="1" fill="none"></path></g></g><mask></mask><g stroke-linecap="round"><g transform="translate(6.629916433180824 326.9003132285558) rotate(0 290 0)"><path d="M0.54 0.19 C97.18 0.27, 483.02 1.06, 579.42 1.07 M-0.63 -0.76 C96.44 -1.03, 484.84 -0.9, 581.82 -0.49" stroke="#000000" stroke-width="1" fill="none"></path></g></g><mask></mask><g stroke-linecap="round" transform="translate(66.00110946703808 226.00000000000006) rotate(0 30 29.999999999999986)"><path d="M13.8 4.05 C13.8 4.05, 13.8 4.05, 13.8 4.05 M13.8 4.05 C13.8 4.05, 13.8 4.05, 13.8 4.05 M1.08 24.79 C7.32 18.06, 13.81 7.46, 20.1 2.9 M1.08 24.79 C7.48 17.4, 13.35 9.86, 20.1 2.9 M1.47 30.43 C9.04 21.22, 21.16 9.3, 25.75 2.51 M1.47 30.43 C6.22 24.63, 11.75 17.77, 25.75 2.51 M1.87 36.07 C8.62 25.67, 19.75 17.08, 32.05 1.36 M1.87 36.07 C10.98 26.47, 20.25 15.09, 32.05 1.36 M2.92 40.96 C11.62 30.57, 19.91 18.58, 36.38 2.47 M2.92 40.96 C12.03 30.47, 21.37 19.93, 36.38 2.47 M5.28 44.34 C20.59 27.16, 34.43 10.27, 40.05 4.34 M5.28 44.34 C16.24 32.29, 25.83 19.84, 40.05 4.34 M7.64 47.72 C16.01 37.53, 26.9 27.12, 43.73 6.21 M7.64 47.72 C18.23 36.96, 28.19 23.89, 43.73 6.21 M10.66 50.34 C23.66 34.64, 37.59 20.61, 48.06 7.33 M10.66 50.34 C22.73 36.02, 32.91 24.01, 48.06 7.33 M13.03 53.72 C24.5 39.47, 36.47 26.96, 51.73 9.2 M13.03 53.72 C23.52 41.25, 35.83 27.86, 51.73 9.2 M15.39 57.1 C28.02 40.79, 39.5 27.24, 54.1 12.57 M15.39 57.1 C25.24 47.15, 34.88 35.15, 54.1 12.57 M19.72 58.22 C31.8 41.54, 45.25 29.83, 55.8 16.71 M19.72 58.22 C32.44 43.89, 43.85 29.41, 55.8 16.71 M24.71 58.58 C30.62 51.29, 39.05 42.25, 57.51 20.84 M24.71 58.58 C36.29 44.82, 49.09 30.56, 57.51 20.84 M29.69 58.94 C35.09 52.19, 44.8 41.95, 59.22 24.98 M29.69 58.94 C41.23 46.6, 52.48 33, 59.22 24.98 M34.68 59.3 C40.35 50.78, 47.53 46.12, 60.92 29.11 M34.68 59.3 C42.84 48.87, 52.29 38.29, 60.92 29.11 M42.29 56.64 C46.62 48.2, 56.22 40.95, 58.04 38.53 M42.29 56.64 C47.9 49.02, 55.7 42.8, 58.04 38.53 M52.53 50.96 C53.27 49.83, 54.21 48.72, 55.15 47.94 M52.53 50.96 C53.57 50.16, 54.15 49.21, 55.15 47.94 M15.55 56.8 C15.55 56.8, 15.55 56.8, 15.55 56.8 M15.55 56.8 C15.55 56.8, 15.55 56.8, 15.55 56.8 M22.7 57.72 C15.38 52.7, 10.07 47.58, 2.32 40 M22.7 57.72 C15.32 50.34, 7.1 44.33, 2.32 40 M29.85 58.64 C22.56 52.58, 13.52 42.89, 1.93 34.36 M29.85 58.64 C19.32 48.73, 7.85 38.77, 1.93 34.36 M36.25 58.9 C24.62 50.44, 14.42 37.48, 1.54 28.72 M36.25 58.9 C23.42 47.14, 8.92 34.91, 1.54 28.72 M40.39 57.19 C23.75 44.99, 10.48 29.53, 1.14 23.08 M40.39 57.19 C25.95 44.35, 11 31.16, 1.14 23.08 M43.76 54.83 C28.74 42.1, 16.57 31.28, 2.26 18.74 M43.76 54.83 C26.34 40.93, 12.08 27.11, 2.26 18.74 M47.9 53.12 C34.43 42.82, 23.7 31.82, 4.88 15.73 M47.9 53.12 C36.97 43.08, 25.91 33.15, 4.88 15.73 M51.28 50.76 C37.02 41.5, 24.2 30.3, 6.75 12.05 M51.28 50.76 C36.52 37.29, 20.7 23.96, 6.75 12.05 M54.66 48.4 C41.23 35.79, 25.03 25.18, 9.37 9.03 M54.66 48.4 C40.8 36.14, 27.6 25.51, 9.37 9.03 M56.53 44.72 C44.17 31.62, 29.51 20.52, 12 6.01 M56.53 44.72 C46.78 36.93, 37.49 28.25, 12 6.01 M57.64 40.39 C49.25 32.96, 40.02 24.77, 14.62 2.99 M57.64 40.39 C48.92 33.91, 39.85 26.12, 14.62 2.99 M58.76 36.06 C45.01 24.65, 30.85 14.1, 20.27 2.6 M58.76 36.06 C44.01 23.57, 28.43 10.46, 20.27 2.6 M59.87 31.73 C48.06 20.35, 37.04 8.18, 25.15 1.55 M59.87 31.73 C51.57 24.77, 41.98 17.08, 25.15 1.55 M60.23 26.74 C50.68 15.98, 36.78 8.85, 30.8 1.15 M60.23 26.74 C53.8 21.01, 46.58 14.95, 30.8 1.15 M56.06 17.82 C53.02 13.26, 49.26 8.95, 37.95 2.07 M56.06 17.82 C49.97 13.06, 45.14 6.71, 37.95 2.07" stroke="#12b886" stroke-width="0.5" fill="none"></path><path d="M34.4 1.25 C40.32 1.71, 47.89 5.01, 52.24 9.62 C56.59 14.23, 60.11 22.29, 60.48 28.91 C60.85 35.54, 58.4 44.35, 54.44 49.37 C50.48 54.39, 43.15 57.76, 36.71 59.03 C30.26 60.3, 21.51 60.05, 15.77 57 C10.03 53.94, 4.8 46.82, 2.28 40.69 C-0.24 34.55, -1.33 26.32, 0.64 20.16 C2.61 14, 7.54 6.81, 14.11 3.7 C20.67 0.6, 35.05 1.3, 40.03 1.55 C45.01 1.8, 44.25 4.8, 43.97 5.21 M28.48 0.77 C34.7 -0.06, 43.27 2.47, 48.18 6.29 C53.09 10.11, 56.53 17.22, 57.96 23.69 C59.4 30.16, 59.56 39.44, 56.8 45.09 C54.04 50.75, 47.2 55.15, 41.4 57.61 C35.61 60.07, 28 61.61, 22.03 59.86 C16.05 58.1, 8.98 52.66, 5.53 47.08 C2.07 41.51, 0.53 32.89, 1.29 26.4 C2.05 19.9, 5.7 12.26, 10.07 8.1 C14.44 3.93, 24.5 2.45, 27.5 1.39 C30.5 0.34, 27.84 1.44, 28.08 1.77" stroke="#000000" stroke-width="1" fill="none"></path></g><g stroke-linecap="round" transform="translate(166.00110946703808 186.0000000000001) rotate(0 10 10)"><path d="M2.54 3.54 C2.54 3.54, 2.54 3.54, 2.54 3.54 M2.54 3.54 C2.54 3.54, 2.54 3.54, 2.54 3.54 M0.97 11.44 C3.39 8.52, 5.55 6.34, 10.16 0.88 M0.97 11.44 C2.85 9.16, 5.03 6.73, 10.16 0.88 M2.02 16.33 C5.59 11.98, 11.09 5.84, 15.14 1.24 M2.02 16.33 C6.71 10.54, 11.71 5.2, 15.14 1.24 M5.7 18.2 C8.93 16.26, 9.82 13.26, 17.51 4.62 M5.7 18.2 C10.26 13.19, 14.77 7.88, 17.51 4.62 M10.03 19.32 C12.36 16.44, 15.34 13.39, 19.21 8.75 M10.03 19.32 C12.2 17.13, 13.43 14.8, 19.21 8.75 M1.85 16.16 C1.85 16.16, 1.85 16.16, 1.85 16.16 M1.85 16.16 C1.85 16.16, 1.85 16.16, 1.85 16.16 M11.27 19.05 C6.62 15.52, 2.05 11.32, -0.05 9.21 M11.27 19.05 C8.58 16.29, 5.46 14.05, -0.05 9.21 M16.16 18 C11.44 13.16, 5.74 10.39, 1.82 5.53 M16.16 18 C11.63 13.39, 6.82 9.38, 1.82 5.53 M18.78 14.98 C14.45 12.54, 12.72 9.74, 4.44 2.51 M18.78 14.98 C14.37 11.73, 11.1 8.25, 4.44 2.51 M19.89 10.65 C16.16 8.14, 14.38 4.92, 7.82 0.15 M19.89 10.65 C15.05 6.29, 10.41 2.85, 7.82 0.15 M17.99 3.69 C16.45 2.29, 15.2 1.12, 14.22 0.41 M17.99 3.69 C17.09 2.92, 16.13 2.1, 14.22 0.41" stroke="#7950f2" stroke-width="0.5" fill="none"></path><path d="M8.59 0.2 C10.54 -0.28, 13.69 -0.07, 15.43 1.1 C17.18 2.28, 18.4 5.07, 19.07 7.25 C19.73 9.42, 20.07 12.21, 19.42 14.13 C18.76 16.06, 17.03 17.93, 15.14 18.8 C13.25 19.67, 10.31 19.79, 8.08 19.34 C5.84 18.88, 3.03 17.65, 1.71 16.04 C0.4 14.43, 0.06 11.74, 0.17 9.68 C0.29 7.62, 1.04 5.34, 2.41 3.69 C3.77 2.05, 7.3 0.34, 8.37 -0.17 C9.44 -0.68, 8.74 0.46, 8.83 0.64 M10.54 0.43 C12.5 0.12, 14.93 0.6, 16.5 1.81 C18.08 3.03, 19.69 5.47, 20.01 7.73 C20.32 9.99, 19.46 13.51, 18.39 15.37 C17.32 17.22, 15.67 18.26, 13.58 18.88 C11.5 19.5, 7.84 19.79, 5.89 19.08 C3.94 18.37, 2.96 16.36, 1.88 14.62 C0.81 12.88, -0.77 10.65, -0.54 8.64 C-0.32 6.63, 1.58 4.04, 3.23 2.56 C4.87 1.08, 8.15 0.21, 9.33 -0.24 C10.5 -0.7, 10.21 -0.34, 10.29 -0.15" stroke="#000000" stroke-width="1" fill="none"></path></g><g stroke-linecap="round" transform="translate(346.0011094670381 186.0000000000001) rotate(0 20 20)"><path d="M1.59 11.98 C1.59 11.98, 1.59 11.98, 1.59 11.98 M1.59 11.98 C1.59 11.98, 1.59 11.98, 1.59 11.98 M1.33 18.38 C3.96 15.11, 7.63 9.62, 15.76 1.78 M1.33 18.38 C4.87 14.26, 8.2 11.22, 15.76 1.78 M1.07 24.78 C8.55 17.32, 14.29 9.73, 21.41 1.38 M1.07 24.78 C6.21 18.75, 11.78 11.5, 21.41 1.38 M2.78 28.91 C9.68 21.15, 15.35 16.05, 26.39 1.74 M2.78 28.91 C11.82 18.92, 20.5 8.18, 26.39 1.74 M5.14 32.29 C11.93 24.82, 18.45 16.43, 29.41 4.37 M5.14 32.29 C14.51 20.83, 23.74 10.37, 29.41 4.37 M8.16 34.92 C13.18 30.05, 19.01 24.12, 33.09 6.24 M8.16 34.92 C13.67 28.65, 19.46 22.32, 33.09 6.24 M11.18 37.54 C17.45 30.19, 22.79 23.61, 36.11 8.86 M11.18 37.54 C19.03 27.83, 27.6 18.65, 36.11 8.86 M15.51 38.66 C23.54 27.9, 33.65 19.08, 37.81 13 M15.51 38.66 C22.04 30.81, 29.09 22.38, 37.81 13 M19.84 39.77 C27.34 32.77, 34.6 23.49, 38.86 17.88 M19.84 39.77 C27.3 32.05, 34.4 23.26, 38.86 17.88 M25.48 39.38 C29.33 35.97, 32.2 32.05, 40.57 22.02 M25.48 39.38 C30.95 32.68, 37.46 26.57, 40.57 22.02 M8.36 36.1 C8.36 36.1, 8.36 36.1, 8.36 36.1 M8.36 36.1 C8.36 36.1, 8.36 36.1, 8.36 36.1 M17.03 38.33 C11.35 32.86, 6.5 29.19, 1.18 24.56 M17.03 38.33 C10.91 33.33, 4.76 28.3, 1.18 24.56 M24.18 39.25 C16.37 32.51, 8.96 25.09, 1.54 19.57 M24.18 39.25 C16.89 33.35, 9.55 26.04, 1.54 19.57 M27.56 36.89 C20.4 32.24, 14.95 25.3, 1.9 14.58 M27.56 36.89 C21.06 31.78, 15.34 26.72, 1.9 14.58 M31.69 35.18 C23.38 26.82, 14.92 19.98, 3.01 10.25 M31.69 35.18 C24.06 29.01, 16.18 21.52, 3.01 10.25 M35.07 32.82 C27.49 27.22, 20.92 21.65, 5.64 7.23 M35.07 32.82 C25.76 25.54, 17.05 17.76, 5.64 7.23 M36.94 29.14 C29.13 21.79, 19.81 13.72, 9.02 4.87 M36.94 29.14 C26.95 20.68, 16.16 10.98, 9.02 4.87 M38.81 25.47 C28.51 17.7, 19.2 8.8, 11.64 1.85 M38.81 25.47 C30.24 17.95, 22.43 10.8, 11.64 1.85 M39.92 21.14 C33.19 14.49, 24.4 9.1, 17.28 1.46 M39.92 21.14 C31.61 13.54, 22.96 6.15, 17.28 1.46 M38.78 14.84 C35.62 11.6, 31.71 8.44, 22.93 1.06 M38.78 14.84 C32.8 9.7, 26.7 4.17, 22.93 1.06" stroke="#be4bdb" stroke-width="0.5" fill="none"></path><path d="M24.69 0.71 C28.64 1.32, 33.03 4.19, 35.64 7.61 C38.25 11.04, 40.46 16.85, 40.35 21.27 C40.24 25.68, 38 30.99, 35 34.11 C32 37.23, 26.74 39.61, 22.34 39.97 C17.93 40.33, 12.18 38.63, 8.57 36.29 C4.97 33.95, 1.86 29.98, 0.69 25.93 C-0.47 21.88, -0.17 16, 1.6 11.97 C3.38 7.95, 7.49 3.68, 11.35 1.77 C15.21 -0.13, 22.36 0.63, 24.75 0.54 C27.14 0.45, 25.75 0.88, 25.68 1.22 M23.68 0.31 C27.55 0.66, 32 3.92, 34.62 7.12 C37.25 10.33, 39.23 15.23, 39.43 19.52 C39.62 23.82, 38.51 29.64, 35.8 32.88 C33.09 36.13, 27.48 38.15, 23.16 39 C18.85 39.86, 13.6 40.1, 9.9 38 C6.19 35.89, 2.33 30.52, 0.94 26.35 C-0.45 22.18, 0.03 17.04, 1.55 13 C3.06 8.95, 6.47 4.16, 10.05 2.08 C13.62 0, 20.87 0.8, 23 0.52 C25.13 0.23, 22.86 0.23, 22.83 0.4" stroke="#000000" stroke-width="1" fill="none"></path></g><g stroke-linecap="round" transform="translate(286.0011094670381 86) rotate(0 30 30)"><path d="M10.33 6.33 C10.33 6.33, 10.33 6.33, 10.33 6.33 M10.33 6.33 C10.33 6.33, 10.33 6.33, 10.33 6.33 M1.53 22.53 C5.98 14.42, 11.87 8.42, 17.94 3.67 M1.53 22.53 C5.55 19.24, 8.39 15.83, 17.94 3.67 M1.27 28.93 C5.75 23.82, 11.18 15.87, 25.55 1.01 M1.27 28.93 C8.01 19.29, 15.86 10.98, 25.55 1.01 M2.32 33.82 C14.8 22.55, 26.17 7.41, 31.85 -0.14 M2.32 33.82 C12.14 21.6, 22.66 9.7, 31.85 -0.14 M3.37 38.71 C11.88 27.57, 21.19 21.78, 35.52 1.73 M3.37 38.71 C15.6 24.35, 27.58 9.93, 35.52 1.73 M4.43 43.6 C14.5 34.94, 20.04 21.87, 39.2 3.6 M4.43 43.6 C17.3 29.49, 29.66 13.7, 39.2 3.6 M6.79 46.98 C15.74 35.44, 26.01 25.87, 42.87 5.47 M6.79 46.98 C19.35 33.16, 32.81 18.07, 42.87 5.47 M9.81 49.6 C23.26 37.23, 33.41 22.16, 46.55 7.34 M9.81 49.6 C22.26 34.23, 36.39 20.84, 46.55 7.34 M12.83 52.22 C22.24 42.16, 30.15 31.98, 50.22 9.21 M12.83 52.22 C21.44 41.9, 28.57 32.26, 50.22 9.21 M15.84 54.85 C22.28 47.67, 32.44 35.92, 51.93 13.34 M15.84 54.85 C26.7 44.51, 35.02 33.15, 51.93 13.34 M18.21 58.23 C25.94 46.96, 35.5 39.82, 54.29 16.72 M18.21 58.23 C27.94 46.9, 39.26 34.72, 54.29 16.72 M23.85 57.83 C31.26 51.11, 38.82 41.04, 56.65 20.1 M23.85 57.83 C30.22 50.38, 38.42 40.63, 56.65 20.1 M28.84 58.19 C34.83 49.41, 41.79 42.45, 58.36 24.23 M28.84 58.19 C40.55 44.01, 51.06 31.64, 58.36 24.23 M34.48 57.8 C40.13 49.57, 45.04 45.92, 60.07 28.37 M34.48 57.8 C44.15 47.78, 53.27 36.96, 60.07 28.37 M40.12 57.4 C47.48 49.56, 52.28 42.89, 58.49 36.27 M40.12 57.4 C47.07 48.61, 53.35 41.27, 58.49 36.27 M53.64 47.95 C54.21 47.33, 55.35 45.81, 56.92 44.18 M53.64 47.95 C54.84 46.61, 56.23 45.2, 56.92 44.18 M18.53 57.94 C18.53 57.94, 18.53 57.94, 18.53 57.94 M18.53 57.94 C18.53 57.94, 18.53 57.94, 18.53 57.94 M24.18 57.55 C19.42 53.35, 15.24 48.52, 3.05 39.18 M24.18 57.55 C18.52 53.32, 13.77 47.88, 3.05 39.18 M30.58 57.81 C21.89 50.35, 8.42 38.57, 1.9 32.88 M30.58 57.81 C20.83 48.41, 10.29 40.69, 1.9 32.88 M36.22 57.41 C23.84 48.67, 12.63 36.61, 0.75 26.58 M36.22 57.41 C25.63 48.01, 16.18 41.19, 0.75 26.58 M41.11 56.36 C30.61 48.56, 22.03 40.23, 1.86 22.25 M41.11 56.36 C31.01 47.53, 20.58 38.43, 1.86 22.25 M44.49 54 C35.31 45.05, 26.17 39.93, 3.73 18.57 M44.49 54 C33.77 44.58, 21.02 35.2, 3.73 18.57 M47.86 51.64 C33.94 40.43, 22.34 32.74, 5.6 14.9 M47.86 51.64 C32.26 37.54, 14.91 23.02, 5.6 14.9 M51.24 49.27 C33.83 32.67, 15.89 21.44, 7.47 11.22 M51.24 49.27 C37.8 38.54, 24.18 27.26, 7.47 11.22 M54.62 46.91 C39.87 33.42, 21.15 19.43, 10.09 8.2 M54.62 46.91 C38.53 33.94, 23.85 20.39, 10.09 8.2 M57.25 43.89 C40.38 29.12, 26.71 17.96, 12.72 5.18 M57.25 43.89 C47.22 36.25, 36.98 27.39, 12.72 5.18 M58.36 39.56 C45.9 29.03, 35.37 20.01, 16.85 3.48 M58.36 39.56 C43.65 28.6, 30.34 15.86, 16.85 3.48 M58.72 34.57 C46.22 24.43, 32.58 9.59, 21.74 2.43 M58.72 34.57 C44.78 22.66, 31.32 9.84, 21.74 2.43 M59.84 30.24 C53.86 22.52, 44.38 16.15, 25.87 0.72 M59.84 30.24 C48.84 21.52, 39.73 12.78, 25.87 0.72 M57.93 23.29 C48.93 13.26, 40.24 5.9, 30.76 -0.33 M57.93 23.29 C46.99 14.42, 36.48 4.39, 30.76 -0.33 M51.5 12.4 C49.83 8.97, 46.14 6.58, 42.44 4.52 M51.5 12.4 C48.46 10.24, 45.11 6.97, 42.44 4.52" stroke="#fa5252" stroke-width="0.5" fill="none"></path><path d="M31.1 -0.77 C37.06 -0.91, 44.19 3.75, 49 8.27 C53.8 12.8, 58.68 20.17, 59.92 26.39 C61.15 32.62, 59.76 40.44, 56.4 45.63 C53.04 50.82, 46.14 55.53, 39.77 57.52 C33.4 59.52, 24.13 59.82, 18.17 57.62 C12.2 55.42, 6.96 49.78, 3.99 44.3 C1.02 38.82, -0.76 31.13, 0.34 24.75 C1.43 18.38, 4.64 9.95, 10.56 6.05 C16.48 2.16, 30.77 1.98, 35.86 1.39 C40.96 0.79, 41.19 1.99, 41.12 2.46 M41.27 1.06 C46.96 2.65, 53.83 8.76, 56.77 14.72 C59.7 20.69, 60.17 30.54, 58.86 36.84 C57.55 43.15, 54.11 48.78, 48.92 52.54 C43.73 56.29, 34.01 59.53, 27.71 59.38 C21.41 59.23, 15.9 55.69, 11.1 51.64 C6.29 47.59, 0.11 41.23, -1.11 35.07 C-2.33 28.9, 0.38 20.32, 3.77 14.64 C7.17 8.96, 12.93 3.19, 19.25 1 C25.56 -1.2, 38.15 1.2, 41.68 1.45 C45.21 1.7, 40.94 1.76, 40.43 2.48" stroke="#000000" stroke-width="1" fill="none"></path></g><g stroke-linecap="round" transform="translate(186.00110946703808 106) rotate(0 60 60)"><path d="M12.27 25.24 C12.27 25.24, 12.27 25.24, 12.27 25.24 M12.27 25.24 C12.27 25.24, 12.27 25.24, 12.27 25.24 M6.1 38.43 C12.06 30.71, 17.79 24.24, 31.69 8.99 M6.1 38.43 C10.92 33.35, 17.81 25.56, 31.69 8.99 M0.59 50.86 C13.36 35.7, 28 20.32, 37.33 8.6 M0.59 50.86 C9.7 39.93, 19.25 29.83, 37.33 8.6 M0.98 56.51 C17.22 41.68, 29.94 21.61, 44.28 6.7 M0.98 56.51 C12.45 43.2, 23.96 31.42, 44.28 6.7 M2.04 61.39 C18.34 41.88, 37.61 20.43, 51.24 4.79 M2.04 61.39 C15.36 45.25, 29.86 28.93, 51.24 4.79 M2.43 67.04 C19.91 48.26, 35.03 27.31, 61.48 -0.89 M2.43 67.04 C18.37 47.52, 34.81 27.43, 61.48 -0.89 M3.48 71.93 C25.86 45.47, 48.9 17.9, 65.81 0.23 M3.48 71.93 C18.98 54.11, 33.22 39.41, 65.81 0.23 M3.88 77.57 C27.64 46.82, 55.07 21.19, 69.48 2.1 M3.88 77.57 C26.99 50.23, 51.1 24.96, 69.48 2.1 M6.24 80.95 C21.04 60.44, 37.89 41.22, 73.81 3.21 M6.24 80.95 C32.59 50.25, 57.75 20.45, 73.81 3.21 M7.94 85.08 C26.68 65.65, 41.55 45.1, 78.14 4.33 M7.94 85.08 C24.31 64.62, 40.9 45.71, 78.14 4.33 M10.31 88.46 C32.3 58.65, 57.03 33.78, 82.47 5.44 M10.31 88.46 C24.53 69.17, 40.85 51.94, 82.47 5.44 M12.67 91.84 C33.08 68.87, 56.27 44.51, 86.8 6.56 M12.67 91.84 C38.05 63.08, 61.83 36.23, 86.8 6.56 M14.38 95.97 C37.93 73.14, 56.54 47.77, 90.48 8.43 M14.38 95.97 C38.63 68.53, 62.66 39.15, 90.48 8.43 M16.74 99.35 C44.04 70.19, 71.45 39.39, 93.5 11.05 M16.74 99.35 C40.49 72.82, 62.7 47.06, 93.5 11.05 M18.45 103.49 C35.9 83.49, 53.97 61.2, 96.52 13.68 M18.45 103.49 C38.58 80.22, 57.99 57.93, 96.52 13.68 M22.12 105.36 C40.74 82.8, 62.69 62.18, 99.54 16.3 M22.12 105.36 C41.39 82.69, 60.86 60.61, 99.54 16.3 M25.8 107.23 C46.46 83.68, 64.51 60.09, 101.9 19.68 M25.8 107.23 C51.59 77.13, 77.66 48.36, 101.9 19.68 M29.47 109.09 C42.24 89.56, 60.46 73.27, 104.92 22.3 M29.47 109.09 C55.47 79.45, 82.43 48.57, 104.92 22.3 M33.15 110.96 C53.9 85.82, 74.77 62.29, 107.94 24.93 M33.15 110.96 C50.25 92.89, 67.43 72.8, 107.94 24.93 M36.82 112.83 C54.62 95.04, 69.36 73.98, 110.96 27.55 M36.82 112.83 C52.95 94.78, 67.5 75.24, 110.96 27.55 M40.5 114.7 C64.3 88.22, 89.16 58.87, 113.97 30.18 M40.5 114.7 C65.03 85.53, 91.5 55.04, 113.97 30.18 M44.17 116.57 C66.26 92.65, 92.26 62.75, 115.03 35.06 M44.17 116.57 C65.74 90.75, 89.29 64.43, 115.03 35.06 M47.19 119.2 C70.94 93.13, 96.91 64.51, 116.73 39.2 M47.19 119.2 C66.01 96.99, 86.87 73.27, 116.73 39.2 M52.18 119.56 C70.25 96.65, 93.01 72.67, 117.78 44.09 M52.18 119.56 C77.55 91.31, 102.35 62.67, 117.78 44.09 M57.16 119.92 C81.95 93.64, 103.74 65.89, 119.49 48.22 M57.16 119.92 C77.61 95.48, 99.47 70.93, 119.49 48.22 M62.15 120.28 C86.24 96.06, 107.84 69.61, 120.54 53.11 M62.15 120.28 C84.54 95.19, 106.68 69.26, 120.54 53.11 M67.14 120.64 C86.77 97.44, 105.91 75.85, 122.25 57.24 M67.14 120.64 C79.15 107.58, 88.67 93.75, 122.25 57.24 M73.44 119.49 C88.47 98.63, 106.8 82.94, 120.67 65.15 M73.44 119.49 C90.35 101.48, 106.02 83.13, 120.67 65.15 M82.36 115.32 C92.99 104.26, 102.65 94, 119.1 73.06 M82.36 115.32 C93.68 101.69, 105.28 89.37, 119.1 73.06 M91.28 111.15 C96.62 103.63, 102.43 98.26, 115.56 83.23 M91.28 111.15 C99.35 100.93, 109.04 90.74, 115.56 83.23 M17.8 102.98 C17.8 102.98, 17.8 102.98, 17.8 102.98 M17.8 102.98 C17.8 102.98, 17.8 102.98, 17.8 102.98 M33.26 111.12 C26.65 106.05, 22.52 102.27, 11.37 92.09 M33.26 111.12 C27.51 106.53, 22.79 102.3, 11.37 92.09 M45.69 116.63 C31.55 104.78, 15.28 90.39, 4.94 81.2 M45.69 116.63 C29.66 103.95, 15.27 88.61, 4.94 81.2 M52.85 117.54 C37.4 105.42, 20.18 90.58, 3.79 74.9 M52.85 117.54 C37.84 103.6, 22 89.97, 3.79 74.9 M59.24 117.81 C43.28 102.44, 31.15 90.47, 2.64 68.6 M59.24 117.81 C38.18 97.95, 15.05 79.39, 2.64 68.6 M65.64 118.07 C44.65 100.54, 22.98 82.1, 2.25 62.96 M65.64 118.07 C40.53 95.77, 15.88 75.54, 2.25 62.96 M72.04 118.33 C54.68 102.17, 40.78 90.37, 1.85 57.32 M72.04 118.33 C56.82 105.74, 41.83 92.06, 1.85 57.32 M76.17 116.62 C48.81 93.98, 21.53 69.38, 0.7 51.02 M76.17 116.62 C52.98 98.69, 31.48 78, 0.7 51.02 M79.55 114.26 C64.93 98.27, 47.72 85.37, 2.57 47.34 M79.55 114.26 C63.01 97.67, 45.15 82.08, 2.57 47.34 M83.69 112.55 C64.48 96.31, 43.56 77.19, 4.44 43.67 M83.69 112.55 C62.37 94.58, 40.98 75.37, 4.44 43.67 M87.82 110.85 C56.46 83.79, 24.57 53.91, 5.56 39.34 M87.82 110.85 C63.31 89.69, 38.88 68.04, 5.56 39.34 M91.95 109.14 C76.03 96.25, 56.61 78.68, 7.43 35.66 M91.95 109.14 C63.2 84.07, 34.67 58.06, 7.43 35.66 M96.09 107.43 C74.95 93.41, 59.84 76.54, 9.3 31.99 M96.09 107.43 C63.52 78.89, 30.33 50.22, 9.3 31.99 M99.47 105.07 C70.05 77.58, 36.96 47.93, 11.16 28.31 M99.47 105.07 C67.13 75.77, 34.85 48.49, 11.16 28.31 M101.34 101.4 C66.81 71.31, 29.7 39.75, 13.03 24.64 M101.34 101.4 C73.11 75.54, 44.59 50.75, 13.03 24.64 M103.96 98.38 C85 79.1, 63.97 61.84, 15.66 21.62 M103.96 98.38 C72.44 70.59, 40.02 42.98, 15.66 21.62 M105.83 94.7 C80.95 73.23, 57.16 50.93, 19.04 19.25 M105.83 94.7 C80.49 72.22, 53.72 49.64, 19.04 19.25 M108.45 91.68 C85.11 74.27, 64.43 56.62, 22.42 16.89 M108.45 91.68 C79.37 64.47, 49.88 38.34, 22.42 16.89 M110.32 88.01 C86.42 70.05, 62.47 45.9, 25.04 13.87 M110.32 88.01 C81.56 62.46, 52.16 37.64, 25.04 13.87 M112.95 84.99 C93.75 67.2, 70.76 50.23, 28.42 11.51 M112.95 84.99 C82.28 58.43, 53.02 31.27, 28.42 11.51 M114.82 81.31 C94.03 65.66, 74.78 46.18, 31.8 9.15 M114.82 81.31 C99.09 67.02, 81.2 53.24, 31.8 9.15 M115.93 76.98 C84.55 52.14, 54.68 23.63, 34.42 6.13 M115.93 76.98 C98.6 61.95, 80.85 46.2, 34.42 6.13 M116.29 72 C96.96 52.94, 74.61 34.02, 39.31 5.08 M116.29 72 C91.33 49.11, 64.83 28.18, 39.31 5.08 M117.41 67.67 C93.64 47.9, 70.15 25.09, 44.2 4.03 M117.41 67.67 C94.03 48.02, 71.35 27.77, 44.2 4.03 M118.52 63.33 C95.13 43.61, 70.79 22.59, 48.33 2.32 M118.52 63.33 C101.31 47.25, 83.22 31.37, 48.33 2.32 M118.88 58.35 C92.79 35.53, 68.86 13.53, 53.22 1.27 M118.88 58.35 C99.6 39.34, 79.3 23.59, 53.22 1.27 M120.75 54.67 C104.72 39.53, 83.74 25.28, 58.11 0.22 M120.75 54.67 C106.14 41.3, 92.28 30, 58.11 0.22 M118.09 47.06 C97.34 28.48, 77.59 10.85, 63.75 -0.18 M118.09 47.06 C96.78 29.12, 75.95 11.5, 63.75 -0.18 M115.43 39.45 C100.92 27.75, 84.5 15.78, 73.17 2.71 M115.43 39.45 C98.61 25.36, 83.76 11.43, 73.17 2.71 M113.53 32.49 C106.03 26.98, 98.61 19.66, 82.59 5.6 M113.53 32.49 C103.2 24.33, 91.32 14.03, 82.59 5.6" stroke="#fa5252" stroke-width="0.5" fill="none"></path><path d="M61.33 -0.81 C70.28 -1.41, 82.15 3.26, 90.5 8.14 C98.84 13.02, 106.53 20.65, 111.41 28.47 C116.29 36.3, 119.27 46.09, 119.76 55.08 C120.26 64.06, 118.05 73.77, 114.41 82.36 C110.76 90.95, 104.91 100.6, 97.88 106.62 C90.86 112.64, 81.19 116.74, 72.26 118.47 C63.33 120.2, 53.32 119.51, 44.3 116.99 C35.29 114.46, 24.89 109.55, 18.17 103.3 C11.44 97.05, 6.9 88.24, 3.96 79.47 C1.01 70.7, -0.94 59.78, 0.48 50.7 C1.9 41.61, 6.8 32.33, 12.5 24.97 C18.2 17.6, 25.04 10.64, 34.67 6.5 C44.29 2.36, 63.04 0.69, 70.25 0.14 C77.46 -0.42, 78.16 1.99, 77.92 3.17 M67.46 1.67 C76.39 1.96, 86.26 4.62, 94.08 9.7 C101.89 14.77, 109.95 23.83, 114.35 32.11 C118.75 40.4, 120.83 49.91, 120.48 59.42 C120.13 68.92, 116.87 80.81, 112.24 89.13 C107.61 97.44, 100.36 104.48, 92.68 109.33 C85 114.18, 75.15 117.05, 66.16 118.23 C57.18 119.4, 47.25 119.7, 38.77 116.37 C30.28 113.04, 21.39 105.45, 15.27 98.24 C9.15 91.04, 4.38 82.29, 2.05 73.16 C-0.28 64.03, -0.82 52.61, 1.28 43.48 C3.39 34.35, 8.41 25.06, 14.66 18.38 C20.92 11.7, 30.02 6.6, 38.81 3.42 C47.61 0.23, 62.72 -0.26, 67.43 -0.7 C72.14 -1.14, 66.95 -0.18, 67.06 0.78" stroke="#000000" stroke-width="1" fill="none"></path></g><g stroke-linecap="round" transform="translate(226.00110946703808 206) rotate(0 40 40.000000000000014)"><path d="M5.69 19.52 C5.69 19.52, 5.69 19.52, 5.69 19.52 M5.69 19.52 C5.69 19.52, 5.69 19.52, 5.69 19.52 M3.46 28.18 C12.64 17.57, 20.4 10.86, 23.79 4.78 M3.46 28.18 C8.42 22.01, 13.31 16.45, 23.79 4.78 M1.23 36.84 C6.07 31.83, 15.27 21.52, 30.09 3.63 M1.23 36.84 C11.47 24.64, 22.73 12.41, 30.09 3.63 M0.31 43.99 C9.14 32.76, 18.9 23.3, 36.39 2.48 M0.31 43.99 C13.3 31.02, 24.38 15.56, 36.39 2.48 M2.02 48.13 C12.71 35.06, 23.56 25.48, 42.69 1.34 M2.02 48.13 C16.07 31.55, 31.74 13.87, 42.69 1.34 M3.72 52.26 C15.28 37.6, 28.64 22.96, 47.02 2.45 M3.72 52.26 C16.49 38.29, 28 23.27, 47.02 2.45 M4.77 57.15 C16.6 42.15, 29.14 25.36, 50.7 4.32 M4.77 57.15 C21.53 37.43, 38.68 17.18, 50.7 4.32 M6.48 61.28 C19.42 46.37, 30.33 37.17, 55.03 5.43 M6.48 61.28 C24.39 38.91, 44.09 19.2, 55.03 5.43 M8.84 64.66 C25.69 42.76, 44.99 25.49, 58.7 7.3 M8.84 64.66 C20.08 49.68, 32.51 35.47, 58.7 7.3 M11.86 67.29 C32.15 43.58, 49.37 22.06, 62.38 9.17 M11.86 67.29 C25.02 53.37, 36.13 38.87, 62.38 9.17 M14.88 69.91 C26.6 53.77, 38.58 40.35, 66.05 11.04 M14.88 69.91 C30.82 49.13, 48.19 30.94, 66.05 11.04 M17.9 72.53 C26.86 57.67, 39.16 46.59, 69.07 13.67 M17.9 72.53 C32.3 56.35, 47.94 39.51, 69.07 13.67 M20.92 75.16 C38.22 54.57, 53.16 38.37, 71.43 17.05 M20.92 75.16 C36.3 59.79, 49.1 43.08, 71.43 17.05 M23.94 77.78 C40.68 60.47, 56.07 39.27, 73.8 20.43 M23.94 77.78 C41.66 58.6, 59.4 38.56, 73.8 20.43 M28.92 78.14 C43.7 61.17, 56.12 46.47, 76.16 23.8 M28.92 78.14 C39.58 65.85, 50.6 52.42, 76.16 23.8 M33.91 78.5 C46.72 64.42, 57.31 52.33, 78.52 27.18 M33.91 78.5 C44.77 65.49, 57.22 53.47, 78.52 27.18 M38.9 78.86 C48.03 67.28, 58.19 56.23, 79.57 32.07 M38.9 78.86 C49.91 66.3, 59.63 53.72, 79.57 32.07 M43.88 79.22 C55.7 64.14, 68.86 51.46, 79.31 38.47 M43.88 79.22 C49.82 70.01, 58.46 62.4, 79.31 38.47 M50.18 78.07 C59.99 66.75, 71.33 53.97, 79.71 44.11 M50.18 78.07 C58.32 68.09, 66.56 58.85, 79.71 44.11 M60.42 72.4 C62.88 70.24, 66.85 65, 76.16 54.28 M60.42 72.4 C64.53 69.09, 67.15 64.02, 76.16 54.28 M6.58 62.55 C6.58 62.55, 6.58 62.55, 6.58 62.55 M6.58 62.55 C6.58 62.55, 6.58 62.55, 6.58 62.55 M30.34 77.9 C22.19 69.1, 11.09 61.52, 3.92 54.94 M30.34 77.9 C25.98 73.89, 18.69 68.41, 3.92 54.94 M36.73 78.16 C24.02 68.93, 10.12 57.24, 1.26 47.32 M36.73 78.16 C28.14 69.4, 18.31 60.73, 1.26 47.32 M43.13 78.42 C31.88 68.58, 16.95 56.8, 0.11 41.03 M43.13 78.42 C28.11 65.41, 12.55 52.51, 0.11 41.03 M48.77 78.03 C37.72 69.21, 25.66 59.98, 1.23 36.69 M48.77 78.03 C38.51 67.8, 27.42 59.5, 1.23 36.69 M52.91 76.32 C39.19 63.84, 24.78 53.57, 2.34 32.36 M52.91 76.32 C38.98 64.33, 23.93 51.86, 2.34 32.36 M56.29 73.96 C43.44 63.92, 28.21 51.61, 3.46 28.03 M56.29 73.96 C36.44 58.74, 17.56 40.54, 3.46 28.03 M60.42 72.25 C43.55 55.99, 24.65 44.05, 4.57 23.7 M60.42 72.25 C40.52 55.06, 22.99 38.59, 4.57 23.7 M63.8 69.89 C49.6 58.46, 34.68 43.6, 5.69 19.37 M63.8 69.89 C44.65 54.52, 25.64 36.99, 5.69 19.37 M67.18 67.52 C50.6 53.97, 36.58 38.74, 9.07 17.01 M67.18 67.52 C43.98 48.18, 21.55 28.49, 9.07 17.01 M69.8 64.51 C51.58 50.49, 33.46 32.89, 11.69 13.99 M69.8 64.51 C53.57 50.43, 36.86 35.88, 11.69 13.99 M71.67 60.83 C53.26 44.05, 33.37 29.14, 15.07 11.63 M71.67 60.83 C56.39 47.87, 42.54 35.74, 15.07 11.63 M73.54 57.16 C59.21 45.44, 46.88 34.48, 17.69 8.61 M73.54 57.16 C52.88 39.55, 31.27 20.64, 17.69 8.61 M76.17 54.14 C54.06 37.46, 35.45 15.64, 21.07 6.24 M76.17 54.14 C58.41 39.53, 39.86 23.47, 21.07 6.24 M78.04 50.46 C61.94 34.63, 44.52 19.76, 24.45 3.88 M78.04 50.46 C63.41 36.66, 50.56 24.79, 24.45 3.88 M79.15 46.13 C61.5 28.33, 40.21 12.91, 30.09 3.49 M79.15 46.13 C63.1 32.33, 46.57 18.15, 30.09 3.49 M78.76 40.49 C61.69 24.21, 44.84 11.96, 34.98 2.44 M78.76 40.49 C68.13 30.63, 59.18 23, 34.98 2.44 M79.12 35.5 C71.09 28.69, 62.98 20.32, 39.87 1.39 M79.12 35.5 C64.9 23.73, 50.72 10.96, 39.87 1.39 M78.72 29.86 C67.49 23.26, 59.27 12.12, 46.27 1.65 M78.72 29.86 C72.6 22.99, 65.24 17.62, 46.27 1.65 M76.06 22.25 C73.63 17.64, 69.3 13.74, 57.19 5.85 M76.06 22.25 C71.75 18.45, 66.45 13.38, 57.19 5.85" stroke="#15aabf" stroke-width="0.5" fill="none"></path><path d="M43.16 0.97 C50.02 1.37, 59.23 5.2, 65.15 9.56 C71.07 13.91, 76.36 20.58, 78.67 27.11 C80.99 33.63, 81.05 41.78, 79.03 48.73 C77.02 55.67, 71.8 63.7, 66.57 68.79 C61.35 73.88, 54.68 77.78, 47.7 79.27 C40.71 80.76, 31.53 80.54, 24.68 77.75 C17.82 74.96, 10.7 68.41, 6.56 62.53 C2.42 56.65, 0 49.62, -0.15 42.46 C-0.31 35.3, 1.97 25.81, 5.64 19.57 C9.32 13.32, 14.55 7.99, 21.88 5 C29.21 2.02, 44.29 1.96, 49.61 1.66 C54.94 1.36, 54.25 2.61, 53.86 3.18 M25.57 1.79 C31.58 -1.48, 39.1 -1.31, 46.3 0.13 C53.49 1.56, 63.55 5.16, 68.75 10.38 C73.95 15.59, 76.09 24.23, 77.47 31.43 C78.85 38.63, 79.4 47.01, 77.04 53.6 C74.67 60.19, 68.74 66.72, 63.28 70.97 C57.82 75.22, 51.3 78.39, 44.27 79.11 C37.25 79.83, 27.84 78.36, 21.12 75.3 C14.39 72.25, 7.33 66.89, 3.91 60.8 C0.5 54.72, 0.19 46.05, 0.62 38.8 C1.06 31.54, 2.5 23.37, 6.52 17.27 C10.55 11.17, 21.85 4.63, 24.78 2.19 C27.71 -0.26, 24 1.99, 24.11 2.61" stroke="#000000" stroke-width="1" fill="none"></path></g><g stroke-linecap="round" transform="translate(446.0011094670381 226.00000000000006) rotate(0 30 29.999999999999986)"><path d="M1.24 19.63 C1.24 19.63, 1.24 19.63, 1.24 19.63 M1.24 19.63 C1.24 19.63, 1.24 19.63, 1.24 19.63 M1.63 25.27 C5.45 18.61, 11.38 13.79, 20.66 3.38 M1.63 25.27 C9.57 16.05, 16.82 8.81, 20.66 3.38 M2.03 30.91 C7.82 23.39, 13.37 17.13, 26.96 2.23 M2.03 30.91 C6.71 25.98, 13.47 18.36, 26.96 2.23 M2.42 36.56 C13.03 23.99, 25.45 11.16, 33.26 1.09 M2.42 36.56 C10.05 27.3, 18.13 18.9, 33.26 1.09 M3.47 41.45 C16.61 30.15, 26.32 13.54, 37.59 2.2 M3.47 41.45 C12.49 30.85, 21.57 21.87, 37.59 2.2 M6.49 44.07 C17.5 30.69, 31.35 15.47, 41.26 4.07 M6.49 44.07 C15.87 32.54, 26.27 20.94, 41.26 4.07 M8.86 47.45 C19.63 36.32, 28.16 22.93, 44.94 5.94 M8.86 47.45 C18.42 35.58, 28.38 22.93, 44.94 5.94 M11.22 50.83 C23.93 35.62, 37.22 19.27, 47.96 8.56 M11.22 50.83 C20.64 39.98, 28.98 32.07, 47.96 8.56 M13.58 54.21 C26.8 35.72, 43.75 22.14, 51.63 10.43 M13.58 54.21 C26.74 37.97, 41.06 23.97, 51.63 10.43 M16.6 56.83 C24.35 45, 33.86 34.23, 54.65 13.06 M16.6 56.83 C31.64 39.28, 45.26 22.76, 54.65 13.06 M21.59 57.19 C31.61 47.41, 38.04 36.57, 56.36 17.19 M21.59 57.19 C29.61 46.57, 37.78 37.35, 56.36 17.19 M25.92 58.31 C34.58 44.33, 45.82 34.99, 57.41 22.08 M25.92 58.31 C31.63 49.37, 39.07 42.35, 57.41 22.08 M30.25 59.42 C37.2 51.54, 47.39 42.13, 59.12 26.21 M30.25 59.42 C40.13 47.76, 48.81 38.28, 59.12 26.21 M35.24 59.78 C44.21 52.95, 48.63 43.9, 60.82 30.35 M35.24 59.78 C43.81 50.88, 51.72 40.04, 60.82 30.35 M47.44 51.84 C50.27 49.65, 53.32 46.59, 55.31 42.78 M47.44 51.84 C49.93 48.89, 51.76 46.66, 55.31 42.78 M15.07 55.83 C15.07 55.83, 15.07 55.83, 15.07 55.83 M15.07 55.83 C15.07 55.83, 15.07 55.83, 15.07 55.83 M22.98 57.4 C19.04 54.59, 16.61 49.15, 2.6 39.69 M22.98 57.4 C17.96 52.08, 13.2 47.96, 2.6 39.69 M30.88 58.98 C21.68 50.52, 12.42 44.79, 2.96 34.7 M30.88 58.98 C23.37 53.6, 17.08 46.22, 2.96 34.7 M36.53 58.58 C22.4 48.32, 11.16 37.42, 2.56 29.06 M36.53 58.58 C25.81 49.09, 14.24 38.94, 2.56 29.06 M39.91 56.22 C29.42 47.2, 20.26 37.86, 2.17 23.42 M39.91 56.22 C33.12 48.64, 24.63 41.41, 2.17 23.42 M43.28 53.86 C33.15 43.42, 19.51 32.28, 2.53 18.43 M43.28 53.86 C29.97 41.19, 14.89 30.32, 2.53 18.43 M46.66 51.49 C36.67 41.01, 24.07 32.6, 5.15 15.41 M46.66 51.49 C32.3 37.98, 16.53 25.3, 5.15 15.41 M50.8 49.79 C44.07 43.59, 31.5 34.39, 7.78 12.39 M50.8 49.79 C35.4 37.28, 19.45 23.61, 7.78 12.39 M52.67 46.11 C43.15 35.65, 31.4 25.19, 10.4 9.37 M52.67 46.11 C40.98 35.87, 27.57 24.81, 10.4 9.37 M54.54 42.44 C40.23 30.4, 24.79 18.21, 13.03 6.35 M54.54 42.44 C44.71 34.38, 34.42 26.06, 13.03 6.35 M56.41 38.76 C48.14 29.2, 38.65 23.62, 16.41 3.99 M56.41 38.76 C45.45 28.91, 34.22 20.28, 16.41 3.99 M58.27 35.09 C49.06 26.82, 37.63 18.12, 21.29 2.94 M58.27 35.09 C49.08 27.77, 38.78 19.29, 21.29 2.94 M59.39 30.76 C46.1 22.34, 34.2 8.44, 26.18 1.89 M59.39 30.76 C49.3 21.26, 38.23 13.88, 26.18 1.89 M58.24 24.46 C47.06 16.15, 41.26 8.64, 31.07 0.84 M58.24 24.46 C51.62 19.15, 44.65 12.14, 31.07 0.84 M55.58 16.85 C48.8 13.39, 43 6.33, 36.71 0.44 M55.58 16.85 C50.05 12.46, 45.77 7.21, 36.71 0.44" stroke="#be4bdb" stroke-width="0.5" fill="none"></path><path d="M35.99 0.71 C42.35 1.68, 49.86 6.61, 53.86 11.53 C57.86 16.45, 60.29 24.08, 59.99 30.23 C59.68 36.38, 56.24 43.48, 52.06 48.42 C47.87 53.37, 41.07 58.67, 34.88 59.89 C28.7 61.1, 20.33 59.11, 14.94 55.72 C9.54 52.32, 4.77 45.54, 2.5 39.51 C0.23 33.48, -0.89 25.42, 1.32 19.53 C3.54 13.65, 9.38 7.15, 15.79 4.19 C22.19 1.22, 34.91 1.59, 39.76 1.74 C44.61 1.88, 44.9 4.47, 44.89 5.04 M29.75 -0.48 C36.16 -0.67, 45.81 3.86, 50.62 8.01 C55.43 12.15, 57.9 17.88, 58.62 24.37 C59.34 30.85, 58.24 41.44, 54.92 46.89 C51.61 52.34, 44.59 55.37, 38.72 57.08 C32.86 58.78, 25.52 59.5, 19.74 57.12 C13.96 54.74, 7.34 48.25, 4.07 42.8 C0.8 37.35, -0.97 30.56, 0.13 24.42 C1.24 18.27, 5.61 10.24, 10.7 5.93 C15.78 1.62, 27.15 -0.63, 30.65 -1.42 C34.15 -2.21, 31.55 0.6, 31.7 1.19" stroke="#000000" stroke-width="1" fill="none"></path></g><g stroke-linecap="round" transform="translate(386.0011094670381 66) rotate(0 50 50)"><path d="M11.33 19.12 C11.33 19.12, 11.33 19.12, 11.33 19.12 M11.33 19.12 C11.33 19.12, 11.33 19.12, 11.33 19.12 M6.47 30.8 C12.3 22.73, 19.21 14.38, 25.5 8.92 M6.47 30.8 C13.34 22.03, 21.86 15.41, 25.5 8.92 M2.28 41.73 C10.27 33.09, 16.36 26.25, 34.42 4.75 M2.28 41.73 C14.19 27.79, 26.06 14.32, 34.42 4.75 M2.02 48.13 C15.14 36.91, 26.67 22.28, 40.72 3.6 M2.02 48.13 C9.07 39.05, 17.39 30.04, 40.72 3.6 M2.41 53.77 C17.76 31.86, 37.86 12.84, 47.02 2.45 M2.41 53.77 C17.89 34.78, 34.17 16.86, 47.02 2.45 M2.8 59.41 C15.35 46.27, 27.44 30.84, 53.32 1.3 M2.8 59.41 C17.4 43.11, 30.28 27.25, 53.32 1.3 M3.2 65.06 C15.14 49.63, 28.12 34.82, 58.96 0.91 M3.2 65.06 C23 44.61, 40.14 22.98, 58.96 0.91 M4.25 69.94 C28.5 41.89, 48.79 17.54, 62.64 2.78 M4.25 69.94 C25.19 44.42, 46.83 19.98, 62.64 2.78 M6.61 73.32 C30.61 46.11, 50.41 20.8, 66.97 3.89 M6.61 73.32 C22.08 54.34, 38.47 34.04, 66.97 3.89 M8.98 76.7 C27.56 57.33, 46.06 34.22, 70.64 5.76 M8.98 76.7 C23.34 60.89, 35.46 45.26, 70.64 5.76 M11.99 79.33 C27.76 60.79, 39.01 44.92, 74.32 7.63 M11.99 79.33 C34.63 53, 55.06 28.61, 74.32 7.63 M14.36 82.71 C34.07 59.72, 54.3 39.7, 78.65 8.74 M14.36 82.71 C38.84 54.09, 63.98 24.02, 78.65 8.74 M16.72 86.08 C40.83 59.13, 68.54 27.38, 82.33 10.61 M16.72 86.08 C37.86 61.74, 59.64 36.99, 82.33 10.61 M19.74 88.71 C32.03 73.74, 47.48 58.95, 84.69 13.99 M19.74 88.71 C44.41 60.01, 70.02 29.91, 84.69 13.99 M22.76 91.33 C44.66 65.37, 67.86 39.83, 86.39 18.13 M22.76 91.33 C46.44 64.95, 69.31 37.7, 86.39 18.13 M26.43 93.2 C46.29 71.34, 63.3 53.07, 88.76 21.51 M26.43 93.2 C52.14 64.29, 76.61 35.71, 88.76 21.51 M30.76 94.32 C52.77 70.13, 73.8 43.32, 91.12 24.88 M30.76 94.32 C45.13 77.99, 58.6 62.11, 91.12 24.88 M34.44 96.19 C53.07 75.08, 66.43 59.21, 93.48 28.26 M34.44 96.19 C50.99 75.4, 69.72 55.5, 93.48 28.26 M38.11 98.06 C55.45 79.62, 69.26 61.42, 95.85 31.64 M38.11 98.06 C54.94 78.32, 73.62 58.91, 95.85 31.64 M41.79 99.93 C62.01 79.9, 80.91 56.86, 96.9 36.53 M41.79 99.93 C58.39 82.57, 73.85 63.5, 96.9 36.53 M46.77 100.29 C58.26 84.49, 73.9 69.85, 97.95 41.42 M46.77 100.29 C61.73 81.91, 77.23 65.28, 97.95 41.42 M53.07 99.14 C65.7 82.55, 82.03 70.2, 99 46.31 M53.07 99.14 C62.94 87.36, 72.5 77.35, 99 46.31 M59.37 97.99 C66.59 86.05, 79.68 76.42, 99.39 51.95 M59.37 97.99 C75.5 79.57, 90.9 63.23, 99.39 51.95 M65.67 96.84 C74.24 85.62, 82.35 78.87, 100.44 56.84 M65.67 96.84 C75.23 86.29, 84.83 75.41, 100.44 56.84 M75.25 91.92 C79.13 85.89, 87.16 77.23, 94.93 69.27 M75.25 91.92 C82.03 83.96, 87.85 77.56, 94.93 69.27 M19.31 89.06 C19.31 89.06, 19.31 89.06, 19.31 89.06 M19.31 89.06 C19.31 89.06, 19.31 89.06, 19.31 89.06 M32.5 95.22 C24.39 86.23, 15.58 78.16, 5.33 71.61 M32.5 95.22 C27.75 90.93, 20.48 85.22, 5.33 71.61 M43.42 99.42 C27.58 84.74, 14.93 76, 3.43 64.65 M43.42 99.42 C30.86 88.1, 17.15 76.34, 3.43 64.65 M49.07 99.03 C38.77 87.87, 27.49 78.18, 3.03 59.01 M49.07 99.03 C34.76 86.39, 20.74 74.77, 3.03 59.01 M53.96 97.98 C42.6 86.2, 31.87 77.18, 2.64 53.37 M53.96 97.98 C35.45 82.47, 18.56 66.42, 2.64 53.37 M58.84 96.93 C45.43 83.79, 31.08 70.69, 2.24 47.72 M58.84 96.93 C44.98 84.64, 31.46 72.41, 2.24 47.72 M63.73 95.88 C40.23 75.37, 17.99 56.95, 1.85 42.08 M63.73 95.88 C41.78 76.11, 20.4 57.6, 1.85 42.08 M68.62 94.83 C46.65 77.77, 26.51 58.17, 3.72 38.4 M68.62 94.83 C47.22 74.8, 25.78 57.38, 3.72 38.4 M72 92.46 C58.99 81.58, 46.41 68.57, 5.59 34.73 M72 92.46 C50.63 73.15, 27.27 53.91, 5.59 34.73 M75.38 90.1 C57.64 74.55, 41.58 63.55, 6.7 30.4 M75.38 90.1 C55.47 73.46, 36.19 55.79, 6.7 30.4 M78.76 87.74 C56.09 67.62, 36.45 48.08, 8.57 26.72 M78.76 87.74 C55.08 68.64, 31.55 48.78, 8.57 26.72 M82.14 85.37 C55.37 60.36, 28.06 39.7, 9.68 22.39 M82.14 85.37 C60.05 65.95, 36.3 45.92, 9.68 22.39 M85.52 83.01 C67.28 65.05, 45.86 47.54, 11.55 18.72 M85.52 83.01 C68.7 67.13, 50.93 52.42, 11.55 18.72 M89.65 81.3 C71.57 66.53, 54.56 50.3, 14.93 16.35 M89.65 81.3 C69.75 64.92, 51.02 48.1, 14.93 16.35 M90.76 76.97 C73.4 61.87, 52.99 43.96, 18.31 13.99 M90.76 76.97 C75.81 63.73, 60.16 50.05, 18.31 13.99 M92.63 73.3 C73.85 59.16, 59.97 44.5, 21.69 11.63 M92.63 73.3 C75.79 58.13, 58.14 43.42, 21.69 11.63 M94.5 69.62 C75.18 52.52, 57.68 32.93, 25.07 9.27 M94.5 69.62 C76.75 53.52, 59.25 39.06, 25.07 9.27 M96.37 65.95 C78.28 47.54, 59.76 34.33, 28.45 6.9 M96.37 65.95 C70.59 45.02, 44.81 22.65, 28.45 6.9 M97.49 61.62 C76.76 46.11, 58.33 27.66, 31.83 4.54 M97.49 61.62 C82.06 50.34, 68.66 38.36, 31.83 4.54 M99.36 57.94 C73.29 37.51, 51.53 14.64, 36.72 3.49 M99.36 57.94 C79.45 40.7, 59.26 24.07, 36.72 3.49 M99.72 52.96 C83.21 40.05, 65.19 24.5, 41.6 2.44 M99.72 52.96 C88.24 43.28, 74.79 32.33, 41.6 2.44 M98.57 46.66 C86.27 37.21, 75.31 27.84, 47.25 2.04 M98.57 46.66 C85.8 35.25, 70.26 22.43, 47.25 2.04 M97.42 40.36 C89.84 30.62, 79.13 23.23, 52.14 0.99 M97.42 40.36 C79.59 25.19, 61.4 10.59, 52.14 0.99 M96.27 34.06 C90.16 26.78, 81.9 19.35, 57.78 0.6 M96.27 34.06 C89.18 26.51, 79.77 19.45, 57.78 0.6 M90.59 23.82 C84.8 20.66, 80.35 13.67, 68.71 4.8 M90.59 23.82 C82.29 16.29, 74.18 10.38, 68.71 4.8 M81.9 10.96 C81.41 10.4, 81.1 9.99, 79.63 9 M81.9 10.96 C81.49 10.59, 80.85 9.98, 79.63 9" stroke="#12b886" stroke-width="0.5" fill="none"></path><path d="M31.27 4.61 C38.6 0.81, 49.24 -0.38, 57.49 0.44 C65.75 1.25, 74.47 4.47, 80.78 9.52 C87.1 14.57, 92.2 22.86, 95.38 30.71 C98.57 38.57, 100.9 48.22, 99.89 56.65 C98.88 65.07, 94.58 74.75, 89.31 81.27 C84.04 87.79, 75.95 92.59, 68.25 95.76 C60.55 98.94, 51.23 101.39, 43.12 100.32 C35.01 99.24, 26.17 94.43, 19.61 89.32 C13.05 84.2, 6.82 77.19, 3.76 69.63 C0.69 62.08, 0.01 52.33, 1.21 43.98 C2.42 35.62, 5.03 26.53, 11.01 19.49 C16.99 12.44, 31.54 4.81, 37.07 1.71 C42.59 -1.38, 43.77 0.11, 44.17 0.93 M33.73 2.43 C40.89 -0.76, 49.07 -0.05, 56.97 1.54 C64.87 3.13, 74.74 6.89, 81.15 11.99 C87.56 17.08, 92.35 24.5, 95.45 32.12 C98.56 39.73, 101.04 49.41, 99.79 57.67 C98.55 65.93, 93.61 74.99, 87.97 81.67 C82.33 88.34, 73.59 94.64, 65.96 97.7 C58.33 100.76, 50.33 101.47, 42.2 100.02 C34.07 98.57, 23.76 94.55, 17.19 89 C10.61 83.45, 5.71 74.79, 2.74 66.72 C-0.23 58.66, -1.9 48.85, -0.64 40.63 C0.62 32.41, 4.79 23.76, 10.29 17.4 C15.8 11.04, 28.85 4.85, 32.42 2.48 C35.99 0.12, 31.55 2.19, 31.71 3.21" stroke="#000000" stroke-width="1" fill="none"></path></g><g stroke-linecap="round" transform="translate(106.00110946703808 86) rotate(0 40 40)"><path d="M6.81 19.17 C6.81 19.17, 6.81 19.17, 6.81 19.17 M6.81 19.17 C6.81 19.17, 6.81 19.17, 6.81 19.17 M4.58 27.83 C13.01 18.26, 21.13 9.58, 24.92 4.44 M4.58 27.83 C10.68 20.93, 14.33 15.22, 24.92 4.44 M1.69 37.25 C6.38 30.64, 16.48 22.89, 31.22 3.29 M1.69 37.25 C10.06 27.76, 17.01 18.98, 31.22 3.29 M1.43 43.65 C11.98 32.11, 20.59 21.37, 37.52 2.14 M1.43 43.65 C13.81 27.47, 28.34 11.05, 37.52 2.14 M3.14 47.78 C16.82 35.84, 28.28 19.37, 43.16 1.74 M3.14 47.78 C11.89 38.06, 20.64 27.82, 43.16 1.74 M4.19 52.67 C15.62 37.8, 28.5 24.27, 48.15 2.1 M4.19 52.67 C17.35 37.09, 31.69 22.4, 48.15 2.1 M5.24 57.56 C15.37 45.91, 29.4 30.91, 51.82 3.97 M5.24 57.56 C16.61 44.33, 26.97 32.74, 51.82 3.97 M6.95 61.69 C27.66 42.03, 43.49 20.9, 56.15 5.09 M6.95 61.69 C19.58 48.81, 29.78 34.47, 56.15 5.09 M9.97 64.31 C23.86 49.3, 36.37 38.03, 59.83 6.96 M9.97 64.31 C21.53 52.16, 34.12 37.42, 59.83 6.96 M12.99 66.94 C30.86 45.94, 47.07 26.68, 63.5 8.83 M12.99 66.94 C31.15 44.69, 51.05 24.01, 63.5 8.83 M16 69.56 C29.73 53.63, 46.35 37.81, 67.18 10.7 M16 69.56 C28.12 56.16, 39.55 44.53, 67.18 10.7 M19.02 72.19 C30.08 59.89, 39.02 48.52, 68.88 14.83 M19.02 72.19 C30.37 59.91, 39.57 46.45, 68.88 14.83 M22.04 74.81 C38.93 57.89, 50.64 40.03, 71.25 18.21 M22.04 74.81 C40.58 53.83, 59.74 32.18, 71.25 18.21 M25.72 76.68 C40.93 57.5, 59.61 35.87, 73.61 21.59 M25.72 76.68 C40.72 59.84, 53.76 42.41, 73.61 21.59 M30.05 77.8 C45.33 60.56, 60.29 45.31, 75.97 24.97 M30.05 77.8 C42.01 64.2, 53.73 51.08, 75.97 24.97 M35.03 78.16 C51.82 57.71, 66.75 40.87, 77.68 29.1 M35.03 78.16 C45.23 66.8, 53.05 57.16, 77.68 29.1 M40.02 78.52 C50.11 67.67, 58.11 58.15, 78.73 33.99 M40.02 78.52 C52.69 63.93, 65.89 48.66, 78.73 33.99 M44.35 79.63 C53.96 66.23, 65.63 58.55, 78.47 40.39 M44.35 79.63 C51.57 71.97, 58.8 62.63, 78.47 40.39 M51.96 76.97 C58.84 67.91, 65.94 61.16, 78.86 46.03 M51.96 76.97 C59.39 67.82, 65.92 59.35, 78.86 46.03 M60.89 72.8 C64.85 67.4, 67.22 66.27, 75.32 56.2 M60.89 72.8 C65.7 66.06, 71.48 61.66, 75.32 56.2 M6.09 61.59 C6.09 61.59, 6.09 61.59, 6.09 61.59 M6.09 61.59 C6.09 61.59, 6.09 61.59, 6.09 61.59 M26.07 73.66 C18.37 64.68, 8.98 58.04, 4.18 54.64 M26.07 73.66 C17.32 66.45, 8.63 58.01, 4.18 54.64 M33.22 74.58 C24.86 65.86, 12.58 57.08, 2.28 47.68 M33.22 74.58 C20.98 64.22, 9.76 53.11, 2.28 47.68 M41.13 76.15 C26.43 64.22, 12.1 48.83, 1.13 41.38 M41.13 76.15 C28.96 64.38, 15.69 54.19, 1.13 41.38 M47.53 76.41 C34.61 62.47, 16.9 51.78, 3 37.71 M47.53 76.41 C33.43 63.36, 18.86 49.95, 3 37.71 M51.66 74.71 C38.22 61.32, 21.24 49.96, 4.11 33.38 M51.66 74.71 C34.33 58.9, 16.71 44.14, 4.11 33.38 M55.79 73 C38.79 58.74, 22.19 43.66, 5.98 29.7 M55.79 73 C42.51 62.36, 32.29 52.7, 5.98 29.7 M59.93 71.29 C43.95 56.7, 23.59 39.08, 7.1 25.37 M59.93 71.29 C49.66 62.04, 38.79 54.02, 7.1 25.37 M63.31 68.93 C43.7 53.7, 24.62 38.54, 8.21 21.04 M63.31 68.93 C48.27 55.77, 33.84 43.14, 8.21 21.04 M68.19 67.88 C51.36 56.73, 36.19 41.97, 9.33 16.71 M68.19 67.88 C55.56 56.36, 42.88 44.65, 9.33 16.71 M70.06 64.21 C52.44 49.38, 36.12 36.08, 11.95 13.69 M70.06 64.21 C54.28 50.79, 38.67 37.05, 11.95 13.69 M72.69 61.19 C56.64 44.9, 38.71 29.73, 15.33 11.33 M72.69 61.19 C58.5 47.95, 42.96 35.32, 15.33 11.33 M74.56 57.51 C61.76 47.36, 48.48 34.18, 18.71 8.96 M74.56 57.51 C53.61 40.41, 31.44 22.02, 18.71 8.96 M77.18 54.49 C61.9 44.05, 51.5 32.9, 21.33 5.94 M77.18 54.49 C58.54 38.38, 38.85 22.77, 21.33 5.94 M79.05 50.82 C59.95 34.54, 41.92 17.66, 24.71 3.58 M79.05 50.82 C65.87 40.63, 51.86 27.82, 24.71 3.58 M78.66 45.18 C61.66 30.39, 42.19 13.76, 29.6 2.53 M78.66 45.18 C65.78 34.44, 53.52 22.13, 29.6 2.53 M79.02 40.19 C66.51 26.74, 49.86 15.07, 35.24 2.14 M79.02 40.19 C69.99 31.15, 60.82 24.3, 35.24 2.14 M78.62 34.55 C65.04 24.7, 52.36 14.2, 40.13 1.09 M78.62 34.55 C67.75 25.35, 58.48 17.31, 40.13 1.09 M78.23 28.9 C69.27 20.6, 61.81 14.48, 45.02 0.04 M78.23 28.9 C67.05 18.53, 55.84 8.68, 45.02 0.04 M71.04 17.35 C61.52 8.82, 54.89 3.62, 48.4 -2.33 M71.04 17.35 C62.21 10.1, 55.41 3.86, 48.4 -2.33" stroke="#e64980" stroke-width="0.5" fill="none"></path><path d="M24.34 4.38 C30.21 1.03, 38.94 -0.13, 45.77 0.63 C52.61 1.4, 59.97 4.21, 65.35 8.96 C70.74 13.71, 75.94 22.14, 78.1 29.16 C80.26 36.19, 80.19 44.37, 78.31 51.11 C76.42 57.84, 72.35 64.84, 66.82 69.56 C61.28 74.28, 52.23 78.26, 45.1 79.42 C37.98 80.58, 30.57 79.5, 24.06 76.52 C17.56 73.54, 9.95 67.54, 6.05 61.56 C2.15 55.58, 0.48 47.78, 0.65 40.67 C0.82 33.55, 2.95 25.3, 7.07 18.87 C11.2 12.43, 21.96 4.84, 25.4 2.05 C28.84 -0.75, 27.53 1.27, 27.71 2.08 M44.78 1.49 C51.7 1.84, 59.53 3.79, 65.26 8.16 C70.98 12.52, 76.84 20.78, 79.12 27.67 C81.4 34.57, 81.15 42.4, 78.95 49.54 C76.76 56.68, 71.55 65.61, 65.94 70.52 C60.33 75.43, 52.38 78.26, 45.3 79.02 C38.21 79.78, 29.76 77.84, 23.44 75.08 C17.11 72.33, 11.13 68.41, 7.35 62.47 C3.56 56.52, 0.84 46.78, 0.73 39.41 C0.62 32.04, 3.06 24.43, 6.68 18.26 C10.29 12.09, 16.14 5.59, 22.43 2.4 C28.71 -0.78, 40.7 -0.6, 44.39 -0.84 C48.08 -1.08, 44.6 0.31, 44.57 0.97" stroke="#000000" stroke-width="1" fill="none"></path></g><g transform="translate(6.001109467038077 6) rotate(0 30.5 16)"><text x="0" y="0" font-family="Virgil, Segoe UI Emoji" font-size="20px" fill="#000000" text-anchor="start" style="white-space: pre;" direction="ltr" dominant-baseline="text-before-edge">Bubble</text></g></svg>