<svg version="1.1" xmlns="http://www.w3.org/2000/svg" viewBox="0 0 1188.836809579946 505.2987012986996" width="1188.836809579946" height="505.2987012986996">
  <!-- svg-source:excalidraw -->
  
  <defs>
    
    
  </defs>
  <g stroke-linecap="round" transform="translate(261.909090909091 165.04024760517495) rotate(0 24.09090909090901 24.090909090909236)"><path d="M1.17 15.59 C1.17 15.59, 1.17 15.59, 1.17 15.59 M1.17 15.59 C1.17 15.59, 1.17 15.59, 1.17 15.59 M1.56 21.23 C6.16 14.74, 11.99 8.33, 17.31 3.12 M1.56 21.23 C7.52 14.71, 13.9 7.11, 17.31 3.12 M1.96 26.88 C9.38 18.76, 16.45 8.95, 24.26 1.22 M1.96 26.88 C8.55 19.49, 15.5 11.63, 24.26 1.22 M2.35 32.52 C10.67 21.2, 20.36 12.16, 29.25 1.58 M2.35 32.52 C12.71 21.56, 22.07 9.85, 29.25 1.58 M4.72 35.9 C13.76 25.51, 23.54 13.64, 32.93 3.45 M4.72 35.9 C11.52 28.09, 18.72 19.75, 32.93 3.45 M7.08 39.28 C13.91 33.02, 19.66 26.28, 36.6 5.32 M7.08 39.28 C13.37 32.08, 19.31 25.02, 36.6 5.32 M9.44 42.66 C18.22 33.69, 27.45 22.03, 40.28 7.19 M9.44 42.66 C21.33 29.06, 32.65 15.25, 40.28 7.19 M12.46 45.28 C19.68 38.44, 26.43 29.5, 43.29 9.81 M12.46 45.28 C20.28 36.18, 27.04 28.51, 43.29 9.81 M16.79 46.4 C24.78 36.33, 33.9 25.73, 45 13.94 M16.79 46.4 C23.63 38.1, 31.03 29.26, 45 13.94 M21.78 46.76 C31.48 37.01, 39.55 27.18, 46.05 18.83 M21.78 46.76 C29.97 37.81, 37.01 28.55, 46.05 18.83 M26.11 47.87 C30.03 43.09, 36.12 37.38, 47.76 22.97 M26.11 47.87 C30.83 41.65, 36.84 35.54, 47.76 22.97 M33.72 45.21 C36.86 41.28, 40.5 38.26, 46.84 30.12 M33.72 45.21 C37.52 40.74, 42.55 35.67, 46.84 30.12" stroke="#e64980" stroke-width="0.5" fill="none"></path><path d="M27.89 0.48 C32.83 0.98, 39.38 4.23, 42.69 8.24 C46 12.25, 47.79 19.26, 47.74 24.54 C47.69 29.83, 45.69 36.09, 42.41 39.94 C39.13 43.79, 33.09 46.74, 28.04 47.63 C22.98 48.52, 16.44 47.76, 12.07 45.27 C7.7 42.77, 3.62 37.61, 1.82 32.65 C0.01 27.7, -0.54 20.36, 1.23 15.52 C3.01 10.68, 7.74 6.07, 12.47 3.63 C17.2 1.19, 26.48 1.17, 29.61 0.88 C32.74 0.58, 31.27 1.52, 31.24 1.86 M27.5 -0.44 C32.5 -0.13, 38.85 4.34, 42.19 8.15 C45.54 11.96, 47.32 17.24, 47.57 22.4 C47.82 27.56, 46.71 34.9, 43.7 39.12 C40.69 43.34, 34.52 46.54, 29.51 47.73 C24.5 48.91, 18.32 48.52, 13.64 46.22 C8.95 43.93, 3.41 38.7, 1.41 33.94 C-0.59 29.17, -0.01 22.59, 1.64 17.61 C3.28 12.63, 7.03 6.97, 11.25 4.05 C15.47 1.12, 24.29 0.6, 26.96 0.05 C29.63 -0.49, 27.32 0.31, 27.26 0.78" stroke="#000000" stroke-width="1" fill="none"></path></g><g stroke-linecap="round" transform="translate(99.63636363636351 282.7675203324475) rotate(0 24.090909090909236 24.090909090909236)"><path d="M7.15 7.54 C7.15 7.54, 7.15 7.54, 7.15 7.54 M7.15 7.54 C7.15 7.54, 7.15 7.54, 7.15 7.54 M-0.33 22.24 C3.85 16.28, 9.68 10.44, 16.73 2.62 M-0.33 22.24 C4.66 16.34, 10.17 10.42, 16.73 2.62 M1.38 26.37 C7.14 21.1, 10.96 14.56, 23.68 0.71 M1.38 26.37 C9.64 16.96, 17.67 7.17, 23.68 0.71 M2.43 31.26 C8.25 23.28, 14.68 16.71, 28.01 1.83 M2.43 31.26 C7.97 24.73, 12.92 18.98, 28.01 1.83 M4.14 35.4 C15.62 21.73, 25.64 10.85, 32.35 2.94 M4.14 35.4 C13.39 24.49, 22.62 13.77, 32.35 2.94 M5.84 39.53 C14.29 29.35, 24.32 17.92, 36.68 4.06 M5.84 39.53 C15.39 27.8, 25.37 16.4, 36.68 4.06 M9.52 41.4 C19.23 28.66, 29.39 18.11, 39.7 6.68 M9.52 41.4 C20.57 29.53, 30.3 17.22, 39.7 6.68 M13.19 43.27 C18.79 35.76, 26.39 28.64, 42.06 10.06 M13.19 43.27 C19.36 36.15, 26.19 28.34, 42.06 10.06 M16.21 45.89 C27.79 33.56, 38.12 19.94, 44.42 13.44 M16.21 45.89 C26.39 33.73, 37.16 22.55, 44.42 13.44 M20.54 47.01 C26.7 40.07, 31.56 34.55, 46.78 16.82 M20.54 47.01 C25.89 40.03, 32.25 34.07, 46.78 16.82 M26.18 46.61 C33.1 39.27, 39.3 31.53, 47.83 21.71 M26.18 46.61 C30.83 41.87, 34.81 36.06, 47.83 21.71 M31.17 46.97 C35.09 42.35, 39.68 36.48, 46.92 28.86 M31.17 46.97 C37.53 40.03, 44.07 32.79, 46.92 28.86" stroke="#e64980" stroke-width="0.5" fill="none"></path><path d="M21.97 0.11 C26.92 -0.72, 33.53 1.54, 37.81 4.5 C42.09 7.45, 46.26 12.88, 47.64 17.82 C49.01 22.77, 48.24 29.45, 46.06 34.16 C43.87 38.86, 39.11 43.91, 34.52 46.06 C29.93 48.21, 23.45 48.3, 18.51 47.04 C13.57 45.79, 8.01 42.69, 4.87 38.52 C1.74 34.36, -0.69 27.2, -0.33 22.05 C0.04 16.91, 3.12 11.31, 7.05 7.65 C10.98 4, 20.23 1.23, 23.24 0.11 C26.26 -1, 25.19 0.52, 25.14 0.96 M28.76 0.27 C33.51 0.87, 39.34 5.06, 42.59 9.04 C45.85 13.03, 48.28 19.07, 48.29 24.18 C48.31 29.29, 46.07 35.76, 42.7 39.71 C39.33 43.66, 33.29 47.06, 28.08 47.88 C22.86 48.69, 15.92 47.15, 11.41 44.6 C6.9 42.05, 2.58 37.48, 1.04 32.58 C-0.5 27.68, 0.19 20.2, 2.15 15.22 C4.11 10.23, 8.32 5.23, 12.77 2.65 C17.23 0.07, 26.38 -0.02, 28.88 -0.26 C31.37 -0.49, 27.92 0.81, 27.73 1.25" stroke="#000000" stroke-width="1" fill="none"></path></g><g stroke-linecap="round" transform="translate(6 449.1311566960844) rotate(0 24.090909090909236 24.090909090909236)"><path d="M5.48 8.74 C5.48 8.74, 5.48 8.74, 5.48 8.74 M5.48 8.74 C5.48 8.74, 5.48 8.74, 5.48 8.74 M2.59 18.15 C5.51 13.64, 9.25 10.08, 16.37 2.31 M2.59 18.15 C5.76 14.92, 9.13 10.88, 16.37 2.31 M1.02 26.06 C8.24 17.45, 17.14 6.5, 22.67 1.16 M1.02 26.06 C7.17 19.04, 12.91 13.12, 22.67 1.16 M2.73 30.2 C12.26 18.64, 20.9 9.62, 27 2.27 M2.73 30.2 C8.29 24.2, 13.03 18.48, 27 2.27 M4.43 34.33 C13.62 22.84, 23.62 13.81, 31.99 2.63 M4.43 34.33 C13.93 22.92, 24.03 11.6, 31.99 2.63 M6.14 38.46 C13.4 30.33, 21.18 20.09, 36.32 3.75 M6.14 38.46 C15.46 27.84, 24.75 17.56, 36.32 3.75 M9.16 41.09 C19.79 28.91, 29.43 19.11, 38.68 7.12 M9.16 41.09 C17.8 30.69, 26.8 20.07, 38.68 7.12 M12.83 42.96 C21.21 34.24, 28.83 24.08, 41.7 9.75 M12.83 42.96 C20.26 34.67, 27.82 26.12, 41.7 9.75 M15.85 45.58 C25.72 33.55, 36.47 22.27, 44.06 13.13 M15.85 45.58 C27.23 33.28, 38.34 20.11, 44.06 13.13 M19.53 47.45 C29.11 34.56, 39.86 24.08, 46.43 16.51 M19.53 47.45 C28.79 37.35, 37.2 27.18, 46.43 16.51 M25.83 46.3 C31.41 40.52, 36.44 32.91, 46.82 22.15 M25.83 46.3 C31.99 39.54, 37.93 32.16, 46.82 22.15 M32.13 45.15 C36.92 41.35, 40.53 36.04, 46.56 28.55 M32.13 45.15 C37.82 38.23, 43.88 32.56, 46.56 28.55" stroke="#e64980" stroke-width="0.5" fill="none"></path><path d="M19.37 0.43 C24.1 -0.95, 30.87 0.52, 35.32 2.94 C39.78 5.36, 44.17 10.18, 46.09 14.96 C48 19.75, 48.34 26.78, 46.81 31.65 C45.28 36.51, 41.28 41.49, 36.91 44.14 C32.54 46.8, 25.67 48.3, 20.6 47.58 C15.53 46.86, 9.85 43.65, 6.49 39.82 C3.14 36, 0.67 29.79, 0.49 24.63 C0.3 19.46, 2.06 12.92, 5.39 8.84 C8.72 4.76, 17.61 1.5, 20.47 0.16 C23.33 -1.17, 22.41 0.36, 22.54 0.83 M18.71 0.52 C23.46 -1.06, 30.32 0.04, 34.87 2.29 C39.42 4.54, 43.98 9.24, 46.03 14.03 C48.07 18.81, 48.46 25.87, 47.13 30.98 C45.81 36.1, 42.48 41.76, 38.08 44.7 C33.68 47.64, 26.01 49.27, 20.73 48.63 C15.46 47.99, 9.84 44.72, 6.42 40.86 C3 37, 0.56 30.74, 0.2 25.46 C-0.15 20.18, 1.34 13.4, 4.27 9.19 C7.21 4.98, 15.55 1.48, 17.83 0.2 C20.11 -1.08, 17.66 0.95, 17.94 1.49" stroke="#000000" stroke-width="1" fill="none"></path></g><g stroke-linecap="round" transform="translate(190.54545454545587 449.13115669608396) rotate(0 24.090909090909236 24.090909090909236)"><path d="M1.13 15.56 C1.13 15.56, 1.13 15.56, 1.13 15.56 M1.13 15.56 C1.13 15.56, 1.13 15.56, 1.13 15.56 M1.52 21.2 C7.97 15.13, 13.48 7.79, 17.93 2.33 M1.52 21.2 C6.54 15.61, 11.67 8.78, 17.93 2.33 M1.26 27.6 C8.82 19.01, 17.33 9.66, 24.22 1.18 M1.26 27.6 C8.53 20.13, 15.21 12.43, 24.22 1.18 M2.31 32.49 C9.63 24.05, 16.34 16.34, 29.87 0.79 M2.31 32.49 C10.09 23.01, 18.55 14.06, 29.87 0.79 M4.68 35.86 C15.65 24.52, 25.69 11.28, 33.54 2.66 M4.68 35.86 C15.16 24.43, 25.5 11.56, 33.54 2.66 M7.04 39.24 C12.99 30.7, 20.33 24.15, 36.56 5.28 M7.04 39.24 C15.82 28.78, 24.97 17.77, 36.56 5.28 M9.4 42.62 C17.67 33.47, 25.61 23.93, 39.58 7.91 M9.4 42.62 C19.31 31.51, 29.71 20.05, 39.58 7.91 M12.42 45.25 C21.4 35.47, 30.27 24.62, 43.25 9.78 M12.42 45.25 C23.4 32.92, 34.7 19.85, 43.25 9.78 M17.41 45.61 C23.8 37.89, 29.13 30.77, 44.31 14.66 M17.41 45.61 C25.89 35.14, 34.76 25.61, 44.31 14.66 M21.74 46.72 C30.96 35.81, 39.8 25.3, 46.01 18.8 M21.74 46.72 C28.76 38.69, 36.1 30.58, 46.01 18.8 M26.07 47.84 C31.71 43.2, 34.93 37.43, 47.72 22.93 M26.07 47.84 C32.65 40.96, 38.91 32.85, 47.72 22.93 M34.34 44.42 C38.01 41.31, 40.24 37.02, 45.49 31.59 M34.34 44.42 C37.37 40.64, 41.04 36.59, 45.49 31.59" stroke="#e64980" stroke-width="0.5" fill="none"></path><path d="M29.7 0.12 C34.47 0.91, 39.98 5.73, 43.09 9.9 C46.19 14.07, 48.53 20.08, 48.32 25.14 C48.1 30.2, 45.36 36.52, 41.81 40.27 C38.26 44.03, 32.17 46.99, 27.04 47.68 C21.91 48.37, 15.28 47.07, 11.03 44.39 C6.78 41.71, 3.14 36.46, 1.55 31.59 C-0.05 26.72, -0.45 19.98, 1.45 15.19 C3.35 10.39, 8.11 5.21, 12.92 2.8 C17.73 0.39, 27.36 1.01, 30.29 0.72 C33.23 0.43, 30.72 0.74, 30.53 1.08 M19.44 0.06 C24.03 -1.49, 30.27 -0.5, 34.87 2.05 C39.48 4.59, 45.16 10.54, 47.07 15.33 C48.99 20.13, 47.96 25.95, 46.38 30.82 C44.8 35.69, 41.92 41.74, 37.59 44.54 C33.25 47.35, 25.7 48.35, 20.37 47.63 C15.04 46.91, 9.07 44.06, 5.62 40.21 C2.17 36.36, -0.17 29.59, -0.32 24.54 C-0.46 19.48, 1.57 13.96, 4.75 9.87 C7.92 5.78, 16.32 1.54, 18.73 -0.01 C21.14 -1.55, 19.16 0.02, 19.2 0.59" stroke="#000000" stroke-width="1" fill="none"></path></g><g stroke-linecap="round" transform="translate(433.727272727273 283.22206578699297) rotate(0 24.09090909090901 24.090909090909236)"><path d="M4.67 9.36 C4.67 9.36, 4.67 9.36, 4.67 9.36 M4.67 9.36 C4.67 9.36, 4.67 9.36, 4.67 9.36 M1.79 18.78 C7.07 12.91, 11.24 8.48, 16.22 2.18 M1.79 18.78 C5.47 15.06, 7.92 11.27, 16.22 2.18 M0.22 26.69 C9.08 16.57, 16.62 7.95, 21.87 1.78 M0.22 26.69 C8.73 17.06, 16.92 7.57, 21.87 1.78 M1.92 30.82 C7.54 24.4, 13.19 17.3, 26.85 2.14 M1.92 30.82 C11.76 20.21, 20.87 9.22, 26.85 2.14 M3.63 34.95 C9.68 26.87, 16.48 18.88, 31.18 3.26 M3.63 34.95 C13.81 22.69, 24.68 10.48, 31.18 3.26 M5.34 39.09 C13.19 31.02, 21.66 21.9, 36.17 3.62 M5.34 39.09 C14.2 28.77, 22.81 18.47, 36.17 3.62 M8.35 41.71 C17.88 29.87, 27.29 19.04, 38.53 7 M8.35 41.71 C18.05 30.34, 27.81 18.69, 38.53 7 M12.03 43.58 C23.15 29.97, 35.22 16.69, 41.55 9.62 M12.03 43.58 C22.65 31.96, 33.23 19.92, 41.55 9.62 M15.7 45.45 C24.24 35.86, 30.3 28.27, 43.91 13 M15.7 45.45 C23.24 36.77, 30.77 27.61, 43.91 13 M19.38 47.32 C29.68 35.7, 39.97 24.28, 46.93 15.62 M19.38 47.32 C28.62 37.19, 36.96 26.94, 46.93 15.62 M24.37 47.68 C32.18 38.48, 42.44 28.35, 47.33 21.27 M24.37 47.68 C31.36 39.97, 37.79 33.12, 47.33 21.27 M31.32 45.78 C35.27 42.01, 37.96 37.72, 47.07 27.66 M31.32 45.78 C38.04 38.12, 43.95 31.36, 47.07 27.66" stroke="#e64980" stroke-width="0.5" fill="none"></path><path d="M19.15 0.56 C23.97 -0.67, 30.95 0.81, 35.45 3.25 C39.95 5.68, 44.25 10.55, 46.14 15.19 C48.02 19.84, 48.35 26.23, 46.76 31.11 C45.18 36, 40.97 41.66, 36.64 44.5 C32.31 47.35, 25.87 48.85, 20.78 48.19 C15.69 47.53, 9.61 44.39, 6.08 40.53 C2.56 36.67, -0.17 30.28, -0.38 25.06 C-0.59 19.83, 1.5 13.26, 4.83 9.18 C8.16 5.11, 16.94 2.01, 19.59 0.63 C22.25 -0.75, 20.7 0.5, 20.77 0.91 M30.41 0.1 C35.25 0.83, 41.1 5, 43.93 9.21 C46.76 13.43, 47.75 20.1, 47.39 25.38 C47.04 30.66, 45.28 37.22, 41.78 40.91 C38.28 44.59, 31.45 47, 26.39 47.5 C21.34 47.99, 15.65 46.71, 11.46 43.85 C7.28 40.99, 2.9 35.33, 1.28 30.32 C-0.34 25.32, -0.31 18.46, 1.74 13.83 C3.79 9.19, 8.85 4.74, 13.59 2.49 C18.34 0.25, 27.62 0.59, 30.21 0.35 C32.8 0.11, 29.26 0.52, 29.12 1.06" stroke="#000000" stroke-width="1" fill="none"></path></g><g stroke-linecap="round" transform="translate(340.090909090909 449.58570215062946) rotate(0 24.09090909090901 24.090909090909236)"><path d="M4.84 9.51 C4.84 9.51, 4.84 9.51, 4.84 9.51 M4.84 9.51 C4.84 9.51, 4.84 9.51, 4.84 9.51 M1.96 18.93 C4.31 15.78, 8.11 10.87, 17.05 1.57 M1.96 18.93 C6.44 13.35, 10.85 8.94, 17.05 1.57 M0.38 26.83 C8.08 17.22, 17.29 8.16, 22.69 1.17 M0.38 26.83 C6.73 19.53, 13.2 11.57, 22.69 1.17 M2.75 30.21 C8.35 23.62, 13.29 18.74, 27.68 1.53 M2.75 30.21 C11.17 20.82, 19.2 11.14, 27.68 1.53 M4.45 34.35 C15.19 21.07, 26.01 10.49, 32.66 1.89 M4.45 34.35 C14.74 22.46, 25.09 10.34, 32.66 1.89 M6.16 38.48 C14.83 30.19, 22.47 20.41, 36.34 3.76 M6.16 38.48 C15.88 26.88, 25.63 16.32, 36.34 3.76 M9.18 41.1 C15.84 32.07, 23.51 24.85, 39.36 6.39 M9.18 41.1 C17.94 30.78, 26.41 21.46, 39.36 6.39 M12.85 42.97 C22.4 31.69, 32.3 21.31, 41.72 9.77 M12.85 42.97 C22.4 32.74, 31.52 21.53, 41.72 9.77 M16.53 44.84 C23.72 34.8, 32.94 25.9, 44.74 12.39 M16.53 44.84 C23.28 36.97, 29.56 29.63, 44.74 12.39 M20.2 46.71 C29.59 36.34, 39.18 25.15, 47.1 15.77 M20.2 46.71 C25.93 39.92, 31.55 33.4, 47.1 15.77 M25.19 47.07 C30.77 42.28, 35.42 35.91, 46.84 22.17 M25.19 47.07 C29.37 42.25, 34.42 36.23, 46.84 22.17 M32.14 45.17 C35.63 41.08, 38.6 38.31, 47.23 27.81 M32.14 45.17 C35.95 40.28, 40.66 35.08, 47.23 27.81" stroke="#e64980" stroke-width="0.5" fill="none"></path><path d="M18.35 0.75 C23.12 -0.79, 30.47 -0.06, 35.12 2.17 C39.76 4.39, 44.29 9.37, 46.24 14.1 C48.19 18.83, 48.26 25.56, 46.8 30.57 C45.34 35.57, 41.67 41.25, 37.5 44.14 C33.33 47.04, 26.84 48.57, 21.77 47.95 C16.7 47.32, 10.65 44.15, 7.05 40.4 C3.46 36.65, 0.61 30.54, 0.19 25.44 C-0.22 20.35, 1.43 13.89, 4.56 9.83 C7.7 5.77, 16.52 2.56, 19 1.06 C21.49 -0.43, 19.38 0.46, 19.48 0.85 M26.62 0.63 C31.39 0.73, 37.67 3.27, 41.21 7.05 C44.76 10.82, 47.53 18.05, 47.9 23.27 C48.26 28.5, 46.58 34.2, 43.4 38.38 C40.22 42.56, 33.92 47.11, 28.8 48.34 C23.69 49.57, 17.3 48.33, 12.72 45.78 C8.14 43.24, 3.35 37.84, 1.31 33.06 C-0.72 28.27, -1.11 21.87, 0.52 17.06 C2.15 12.25, 6.72 7.11, 11.11 4.21 C15.5 1.31, 24.2 0.2, 26.86 -0.36 C29.51 -0.92, 26.94 0.31, 27.04 0.84" stroke="#000000" stroke-width="1" fill="none"></path></g><g stroke-linecap="round" transform="translate(524.636363636364 449.58570215062946) rotate(0 24.090909090909463 24.090909090909236)"><path d="M7.69 6.68 C7.69 6.68, 7.69 6.68, 7.69 6.68 M7.69 6.68 C7.69 6.68, 7.69 6.68, 7.69 6.68 M0.21 21.38 C6.73 14.4, 11.51 7.45, 15.95 3.27 M0.21 21.38 C4.91 15.43, 10.78 9.96, 15.95 3.27 M1.26 26.27 C9.24 17.36, 17.8 8.03, 23.56 0.61 M1.26 26.27 C6.04 20.74, 10.17 15.19, 23.56 0.61 M2.31 31.16 C10.4 21.21, 20.21 11.76, 27.9 1.72 M2.31 31.16 C7.7 24.91, 12.83 19.02, 27.9 1.72 M3.36 36.05 C10.97 26.3, 21.26 17.26, 31.57 3.59 M3.36 36.05 C14.04 23.84, 24.47 11.39, 31.57 3.59 M5.72 39.42 C16.9 28, 26.58 15.4, 35.9 4.71 M5.72 39.42 C15.55 27.73, 26.42 15.46, 35.9 4.71 M9.4 41.29 C15.52 33.3, 23.44 25.54, 39.58 6.58 M9.4 41.29 C16.65 32.32, 24.89 24.31, 39.58 6.58 M12.42 43.92 C24.07 30.61, 36.61 16.98, 41.94 9.96 M12.42 43.92 C23.09 32.25, 32.8 20, 41.94 9.96 M15.44 46.54 C25.51 34.58, 36.74 20.99, 44.3 13.34 M15.44 46.54 C24.2 35.88, 33.48 26.45, 44.3 13.34 M19.77 47.66 C30.3 36.32, 40.02 23.66, 46.66 16.71 M19.77 47.66 C30.32 35.18, 41.17 22.94, 46.66 16.71 M25.41 47.26 C31.64 41.44, 36.27 33.67, 47.06 22.36 M25.41 47.26 C30.08 42.49, 33.57 36.96, 47.06 22.36 M30.4 47.62 C35.99 40.69, 42.9 34.12, 46.14 29.51 M30.4 47.62 C34.16 43.33, 37.62 38.58, 46.14 29.51" stroke="#e64980" stroke-width="0.5" fill="none"></path><path d="M23.39 0.43 C28.22 -0.01, 34.7 2.23, 38.7 5.29 C42.71 8.34, 46.37 13.71, 47.44 18.74 C48.51 23.77, 47.5 30.8, 45.1 35.46 C42.71 40.12, 37.85 44.74, 33.08 46.71 C28.3 48.68, 21.43 48.93, 16.46 47.3 C11.48 45.67, 5.96 41.36, 3.22 36.91 C0.47 32.46, -0.83 25.67, -0.03 20.58 C0.76 15.48, 3.93 9.75, 7.98 6.34 C12.03 2.93, 21.56 1.05, 24.25 0.12 C26.93 -0.81, 24.08 0.34, 24.09 0.76 M25.89 -0.58 C30.58 -0.55, 36.13 2.62, 39.86 6.29 C43.6 9.96, 47.62 16.36, 48.29 21.44 C48.96 26.52, 46.65 32.52, 43.89 36.76 C41.14 41, 36.6 45.39, 31.77 46.88 C26.93 48.36, 19.8 47.78, 14.88 45.69 C9.97 43.6, 4.63 38.87, 2.29 34.35 C-0.06 29.82, -0.48 23.55, 0.82 18.56 C2.12 13.58, 6.08 7.55, 10.1 4.45 C14.11 1.34, 22.32 0.5, 24.9 -0.05 C27.49 -0.61, 25.49 0.61, 25.6 1.09" stroke="#000000" stroke-width="1" fill="none"></path></g><g stroke-linecap="round"><g transform="translate(265.54545454545496 203.22206578699343) rotate(0 -62.72727272727275 43.181818181818244)"><path d="M0.63 -0.07 C-20.58 14.46, -105.4 71.74, -126.36 86.33 M-0.49 -1.16 C-21.42 13.65, -103.25 73.38, -124.13 87.84" stroke="#000000" stroke-width="1" fill="none"></path></g></g><mask></mask><g stroke-linecap="round"><g transform="translate(108.33669012707105 328.35437567868985) rotate(0 -34.57743597262606 60.61566323596958)"><path d="M0.97 -0.12 C-10.77 20.16, -58.47 101.54, -70.25 121.84 M0.02 -1.23 C-11.38 18.69, -56.31 99.9, -68.11 120.04" stroke="#000000" stroke-width="1" fill="none"></path></g></g><mask></mask><g stroke-linecap="round"><g transform="translate(137.36363636363694 327.7675203324475) rotate(0 34.090909090909236 61.818181818181756)"><path d="M0.99 0 C12.17 20.69, 56.22 102.97, 67.23 123.57 M0.05 -1.05 C11.59 19.89, 57.9 104.08, 69.44 125.08" stroke="#000000" stroke-width="1" fill="none"></path></g></g><mask></mask><g stroke-linecap="round"><g transform="translate(309.0717076859637 201.8133442908197) rotate(0 65.50960070247311 44.34072438445037)"><path d="M0.26 0.48 C21.9 15.32, 109.18 74.15, 130.79 88.91 M-1.07 -0.31 C20.32 14.15, 107.51 72.38, 129.72 86.91" stroke="#000000" stroke-width="1" fill="none"></path></g></g><mask></mask><g stroke-linecap="round"><g transform="translate(441.0000000000009 326.8584294233565) rotate(0 -32.72727272727252 62.72727272727275)"><path d="M0.62 0.23 C-10.14 21.2, -54.01 105.04, -64.86 126.09 M-0.51 -0.69 C-11.36 19.9, -54.8 103.39, -65.5 124.3" stroke="#000000" stroke-width="1" fill="none"></path></g></g><mask></mask><g stroke-linecap="round"><g transform="translate(473.727272727273 327.7675203324475) rotate(0 38.63636363636351 60.909090909090764)"><path d="M-0.72 0.08 C12.02 20.44, 64.07 101.71, 77.02 121.81 M1.1 -0.93 C13.62 19.67, 63.45 102.96, 75.95 123.34" stroke="#000000" stroke-width="1" fill="none"></path></g></g><mask></mask><g stroke-linecap="round" transform="translate(871.9277186708559 166.57142857142753) rotate(0 24.09090909090901 24.090909090909236)"><path d="M6.05 7.91 C6.05 7.91, 6.05 7.91, 6.05 7.91 M6.05 7.91 C6.05 7.91, 6.05 7.91, 6.05 7.91 M2.51 18.08 C6.62 13.35, 10.15 9.6, 16.29 2.23 M2.51 18.08 C7.63 12.22, 12.18 6.97, 16.29 2.23 M1.59 25.23 C6.69 20.83, 10.21 15.54, 22.59 1.08 M1.59 25.23 C7.51 18.44, 13.86 11.96, 22.59 1.08 M2.64 30.12 C10.75 20.83, 16.4 13.22, 27.57 1.44 M2.64 30.12 C10.37 21.4, 17.29 13.65, 27.57 1.44 M4.35 34.26 C15.38 22.6, 25.22 10.6, 31.9 2.56 M4.35 34.26 C13.61 23.48, 23.42 12.81, 31.9 2.56 M5.4 39.14 C14.76 28.51, 25.74 17.14, 36.24 3.67 M5.4 39.14 C13.69 29.19, 22.72 19.17, 36.24 3.67 M8.42 41.77 C15.26 35.04, 20.86 26.97, 38.6 7.05 M8.42 41.77 C19.45 29.3, 30.03 17.63, 38.6 7.05 M12.09 43.64 C22.86 30.27, 34.31 18.07, 41.62 9.68 M12.09 43.64 C19.46 35.49, 25.91 27.77, 41.62 9.68 M15.77 45.51 C22.36 36.56, 30.51 28.12, 43.98 13.06 M15.77 45.51 C21.99 38.78, 27.82 32.29, 43.98 13.06 M19.44 47.38 C27.58 38.01, 37.56 26.09, 46.34 16.43 M19.44 47.38 C27.63 38.3, 35.33 28.77, 46.34 16.43 M24.43 47.74 C30.42 42.29, 34.38 34.63, 46.74 22.08 M24.43 47.74 C31.78 39.43, 38.71 30.76, 46.74 22.08 M30.73 46.59 C34.51 40.38, 40.3 35.14, 46.48 28.48 M30.73 46.59 C34.14 43.05, 37.09 39.3, 46.48 28.48" stroke="#e64980" stroke-width="0.5" fill="none"></path><path d="M20.14 0.02 C24.91 -1.01, 31.55 0.64, 35.94 3.3 C40.33 5.95, 44.76 11.14, 46.48 15.96 C48.2 20.78, 48.04 27.43, 46.25 32.22 C44.47 37, 40.25 42.1, 35.75 44.68 C31.26 47.25, 24.34 48.51, 19.29 47.66 C14.24 46.81, 8.6 43.49, 5.47 39.56 C2.34 35.64, 0.43 29.34, 0.5 24.1 C0.56 18.86, 2.43 12.18, 5.88 8.11 C9.32 4.04, 18.35 0.98, 21.16 -0.33 C23.97 -1.64, 22.71 -0.26, 22.75 0.26 M26.76 0.74 C31.5 0.93, 38.18 3.69, 41.63 7.4 C45.08 11.12, 47.12 17.86, 47.46 23.04 C47.8 28.22, 46.82 34.47, 43.65 38.49 C40.47 42.51, 33.66 46.02, 28.42 47.15 C23.17 48.27, 16.59 47.52, 12.18 45.22 C7.76 42.93, 3.68 38.25, 1.94 33.39 C0.2 28.52, 0.19 20.86, 1.74 16.02 C3.28 11.18, 6.84 6.92, 11.2 4.33 C15.57 1.74, 25.28 1.08, 27.92 0.48 C30.55 -0.11, 27.21 0.37, 27.01 0.75" stroke="#000000" stroke-width="1" fill="none"></path></g><g stroke-linecap="round" transform="translate(709.654991398128 284.2987012986996) rotate(0 24.09090909090901 24.090909090909236)"><path d="M5.31 8.59 C5.31 8.59, 5.31 8.59, 5.31 8.59 M5.31 8.59 C5.31 8.59, 5.31 8.59, 5.31 8.59 M2.42 18.01 C6.95 12.58, 12.47 6.66, 16.86 1.4 M2.42 18.01 C6.7 12.66, 11.59 7.21, 16.86 1.4 M0.85 25.92 C8.59 17.61, 15.44 9.12, 22.5 1.01 M0.85 25.92 C7.07 19.18, 13.59 11.81, 22.5 1.01 M2.56 30.05 C9.62 20.03, 18.37 11.31, 26.83 2.12 M2.56 30.05 C8.07 23.28, 14.55 16.57, 26.83 2.12 M4.26 34.18 C10.64 26.96, 16.68 20.97, 31.82 2.48 M4.26 34.18 C12.09 25.51, 20.02 16.53, 31.82 2.48 M5.97 38.32 C18.2 25.93, 29.7 11.36, 36.15 3.6 M5.97 38.32 C16.5 26.43, 26.96 13.41, 36.15 3.6 M8.33 41.7 C20.39 28.34, 31.08 15.51, 39.17 6.22 M8.33 41.7 C15.45 33.37, 23.39 24.98, 39.17 6.22 M12.01 43.56 C17.8 36.18, 24.78 28.13, 41.53 9.6 M12.01 43.56 C19.23 34.78, 26.87 26.66, 41.53 9.6 M15.68 45.43 C22.09 37.64, 29 28.38, 44.55 12.23 M15.68 45.43 C24.91 35.11, 34.35 24.37, 44.55 12.23 M19.36 47.3 C27.03 39.81, 32.16 31.84, 46.91 15.61 M19.36 47.3 C29.91 35.18, 40 23.28, 46.91 15.61 M25 46.91 C31.54 39.34, 35.88 33.6, 46.65 22 M25 46.91 C29.47 41.5, 33.59 36.46, 46.65 22 M31.3 45.76 C36.64 39.06, 42.96 30.57, 47.05 27.65 M31.3 45.76 C35.07 41.42, 38.62 37.15, 47.05 27.65" stroke="#e64980" stroke-width="0.5" fill="none"></path><path d="M19.48 -0.09 C24.31 -1.31, 31.42 0.23, 35.92 2.81 C40.43 5.38, 44.75 10.48, 46.49 15.36 C48.23 20.24, 48.14 27.23, 46.36 32.1 C44.58 36.97, 40.22 41.95, 35.82 44.58 C31.42 47.21, 24.92 48.61, 19.95 47.88 C14.97 47.14, 9.23 44.11, 5.96 40.17 C2.69 36.24, 0.44 29.52, 0.33 24.26 C0.22 19, 2.04 12.53, 5.3 8.61 C8.55 4.68, 17.29 2.05, 19.85 0.7 C22.42 -0.64, 20.51 0.16, 20.7 0.54 M29.34 0.1 C34.02 0.76, 39.22 4.15, 42.32 8.34 C45.42 12.53, 48.05 20.08, 47.95 25.25 C47.85 30.42, 45.18 35.67, 41.72 39.35 C38.26 43.03, 32.25 46.41, 27.2 47.32 C22.15 48.24, 15.7 47.35, 11.43 44.86 C7.15 42.36, 3.28 37.29, 1.55 32.34 C-0.18 27.4, -0.89 20, 1.05 15.18 C3 10.35, 8.56 5.92, 13.23 3.4 C17.9 0.88, 26.49 0.57, 29.08 0.08 C31.67 -0.4, 28.87 0.14, 28.78 0.51" stroke="#000000" stroke-width="1" fill="none"></path></g><g stroke-linecap="round" transform="translate(616.018627761764 450.66233766233654) rotate(0 24.09090909090901 24.090909090909236)"><path d="M4.57 9.27 C4.57 9.27, 4.57 9.27, 4.57 9.27 M4.57 9.27 C4.57 9.27, 4.57 9.27, 4.57 9.27 M2.34 17.94 C8.19 11.61, 13.54 5.8, 16.78 1.33 M2.34 17.94 C7.2 12.39, 11.98 6.45, 16.78 1.33 M0.77 25.84 C5.97 19.89, 11 13.55, 22.42 0.94 M0.77 25.84 C6.77 19.73, 12.13 12.88, 22.42 0.94 M2.48 29.98 C10.18 20.12, 19.2 10.02, 26.75 2.05 M2.48 29.98 C10.37 21.16, 18.36 11.71, 26.75 2.05 M4.18 34.11 C14.37 22.56, 25.78 9.42, 31.74 2.41 M4.18 34.11 C10.96 26.76, 17.43 19.47, 31.74 2.41 M5.89 38.24 C17.07 26.96, 26.05 15.27, 36.07 3.53 M5.89 38.24 C16.62 26.1, 26.22 14.78, 36.07 3.53 M8.25 41.62 C14.47 33.79, 21.25 26.47, 38.43 6.91 M8.25 41.62 C19.61 29.19, 30.92 15.48, 38.43 6.91 M11.93 43.49 C21.95 32.02, 31.3 20.13, 41.45 9.53 M11.93 43.49 C18.39 35.84, 25.53 27.27, 41.45 9.53 M15.6 45.36 C24.92 34.34, 32.75 24.98, 44.47 12.15 M15.6 45.36 C21.98 38.46, 27.97 30.93, 44.47 12.15 M19.28 47.23 C27.4 37.36, 35.03 29.9, 46.17 16.29 M19.28 47.23 C27.83 37.08, 36.62 26.63, 46.17 16.29 M24.26 47.59 C30.64 38.41, 38.85 29.98, 46.57 21.93 M24.26 47.59 C31.42 38.7, 38.96 31.12, 46.57 21.93 M31.22 45.69 C35.95 40.03, 38.88 35.22, 46.96 27.57 M31.22 45.69 C35.24 40.94, 39.34 35.83, 46.96 27.57" stroke="#e64980" stroke-width="0.5" fill="none"></path><path d="M18.44 0.47 C23.12 -0.87, 30.3 0.21, 34.89 2.55 C39.49 4.89, 43.99 9.76, 46 14.49 C48.01 19.22, 48.5 25.96, 46.95 30.94 C45.4 35.91, 41.03 41.46, 36.7 44.33 C32.37 47.21, 25.93 48.82, 20.95 48.21 C15.96 47.59, 10.28 44.56, 6.8 40.67 C3.31 36.78, 0.37 30.15, 0.05 24.85 C-0.26 19.56, 1.6 13.01, 4.9 8.9 C8.19 4.79, 17.33 1.47, 19.82 0.17 C22.32 -1.13, 19.79 0.58, 19.85 1.08 M28.37 -0.13 C33.24 0.39, 38.74 4.7, 42.14 8.74 C45.54 12.79, 48.86 19, 48.76 24.11 C48.67 29.23, 45.17 35.48, 41.58 39.42 C37.99 43.37, 32.18 46.84, 27.22 47.77 C22.26 48.7, 16.06 47.75, 11.83 45 C7.6 42.26, 3.57 36.1, 1.85 31.28 C0.12 26.46, -0.36 20.76, 1.48 16.09 C3.32 11.42, 8.43 5.84, 12.91 3.24 C17.39 0.64, 25.8 0.85, 28.35 0.49 C30.9 0.13, 28.32 0.68, 28.22 1.09" stroke="#000000" stroke-width="1" fill="none"></path></g><g stroke-linecap="round" transform="translate(800.5640823072199 450.66233766233563) rotate(0 24.09090909090901 24.090909090909236)"><path d="M7.5 6.52 C7.5 6.52, 7.5 6.52, 7.5 6.52 M7.5 6.52 C7.5 6.52, 7.5 6.52, 7.5 6.52 M0.03 21.22 C5.51 15.24, 11.5 8.67, 15.77 3.11 M0.03 21.22 C5.68 14.61, 10.94 8.62, 15.77 3.11 M1.08 26.11 C9.72 16.1, 17.98 6.02, 23.38 0.45 M1.08 26.11 C7.82 18.74, 13.84 11.78, 23.38 0.45 M2.78 30.24 C12.49 18.95, 21.94 8.04, 27.71 1.57 M2.78 30.24 C12.83 19.25, 22.22 7.91, 27.71 1.57 M3.83 35.13 C13.9 24.76, 22.41 12.86, 32.04 2.68 M3.83 35.13 C11.28 26.82, 18.79 18.56, 32.04 2.68 M6.2 38.51 C14.88 28.62, 23.17 19.76, 36.38 3.8 M6.2 38.51 C14.03 28.7, 22.68 19.45, 36.38 3.8 M9.22 41.14 C20.06 28.5, 31.42 15.54, 40.05 5.66 M9.22 41.14 C20.83 28.59, 31.17 15.58, 40.05 5.66 M12.23 43.76 C19.86 34.38, 27.05 25.55, 41.76 9.8 M12.23 43.76 C22.61 32.12, 32.05 20.86, 41.76 9.8 M15.25 46.38 C21.19 37.82, 28.78 30.26, 44.12 13.18 M15.25 46.38 C26.27 34, 36.65 21.35, 44.12 13.18 M18.93 48.25 C23.9 41.48, 31.29 34.98, 46.48 16.56 M18.93 48.25 C28.22 37.35, 37.23 27.1, 46.48 16.56 M24.57 47.86 C31.74 38.89, 39.69 29.7, 46.88 22.2 M24.57 47.86 C31.07 39.92, 38.87 31.85, 46.88 22.2 M30.21 47.47 C32.99 42.46, 36.59 39.06, 45.96 29.35 M30.21 47.47 C35.33 41.37, 40.09 36.25, 45.96 29.35" stroke="#e64980" stroke-width="0.5" fill="none"></path><path d="M22.92 -0.33 C27.82 -0.84, 34.5 1.42, 38.54 4.6 C42.59 7.78, 46.11 13.7, 47.19 18.75 C48.27 23.79, 47.36 30.28, 45.04 34.89 C42.71 39.49, 37.89 44.26, 33.24 46.38 C28.58 48.49, 21.96 49.12, 17.11 47.57 C12.25 46.02, 6.98 41.54, 4.12 37.09 C1.26 32.64, -0.58 25.92, -0.05 20.87 C0.48 15.81, 3.43 10.26, 7.3 6.76 C11.17 3.26, 20.37 0.86, 23.18 -0.14 C26 -1.14, 24.06 0.27, 24.18 0.76 M17.93 -0.05 C22.51 -1.33, 30.02 0.82, 34.66 3.14 C39.3 5.46, 43.75 9.33, 45.75 13.87 C47.75 18.42, 48.09 25.31, 46.66 30.4 C45.24 35.49, 41.39 41.37, 37.22 44.4 C33.04 47.43, 26.81 49.22, 21.6 48.57 C16.39 47.92, 9.46 44.27, 5.98 40.5 C2.5 36.73, 0.89 31.15, 0.73 25.96 C0.56 20.77, 2.03 13.62, 5 9.33 C7.97 5.04, 16.26 1.68, 18.56 0.22 C20.86 -1.23, 18.69 0.24, 18.79 0.59" stroke="#000000" stroke-width="1" fill="none"></path></g><g stroke-linecap="round" transform="translate(1043.745900489038 284.75324675324555) rotate(0 24.09090909090901 24.090909090909236)"><path d="M6.25 8.08 C6.25 8.08, 6.25 8.08, 6.25 8.08 M6.25 8.08 C6.25 8.08, 6.25 8.08, 6.25 8.08 M1.39 19.76 C5.73 15.5, 9.48 11.42, 17.14 1.65 M1.39 19.76 C5.17 15.02, 9.59 10.42, 17.14 1.65 M1.13 26.16 C8.5 17.31, 15.82 8.65, 22.78 1.25 M1.13 26.16 C7.73 18.49, 14.75 11.07, 22.78 1.25 M2.84 30.29 C8.01 23.8, 13.55 19.31, 27.77 1.61 M2.84 30.29 C8.46 23.79, 13.74 18.32, 27.77 1.61 M3.89 35.18 C14.54 23.2, 23.65 11.28, 32.1 2.73 M3.89 35.18 C12.37 25.83, 20.93 15.55, 32.1 2.73 M5.6 39.32 C16.47 26.8, 28.4 12.97, 36.43 3.84 M5.6 39.32 C14 29.44, 22.98 19.1, 36.43 3.84 M9.27 41.19 C19.86 29.07, 30.12 18.71, 39.45 6.47 M9.27 41.19 C17.75 31.23, 25.76 22, 39.45 6.47 M12.29 43.81 C18.73 35.17, 25.73 28.02, 41.81 9.85 M12.29 43.81 C20.43 33.99, 28.93 24.45, 41.81 9.85 M15.97 45.68 C21.69 38.28, 28.43 31.17, 44.18 13.23 M15.97 45.68 C23.93 36.25, 31.65 26.98, 44.18 13.23 M19.64 47.55 C30.32 36.09, 41.28 23.43, 47.2 15.85 M19.64 47.55 C29.37 35.92, 39.74 24.92, 47.2 15.85 M24.63 47.91 C33.24 37.55, 41.62 29.01, 46.93 22.25 M24.63 47.91 C31.28 40.85, 37.79 32.36, 46.93 22.25 M30.93 46.76 C33.25 42.29, 37.18 39.4, 46.67 28.65 M30.93 46.76 C35.89 40.59, 41.83 34.49, 46.67 28.65" stroke="#e64980" stroke-width="0.5" fill="none"></path><path d="M20.26 0.06 C25.08 -1, 31.95 0.51, 36.38 3.18 C40.82 5.85, 45.23 11.14, 46.86 16.09 C48.49 21.04, 48.06 27.99, 46.17 32.9 C44.29 37.81, 39.97 43.02, 35.56 45.54 C31.14 48.05, 24.76 49.14, 19.7 48.01 C14.65 46.88, 8.52 42.96, 5.22 38.77 C1.92 34.59, -0.31 28.05, -0.09 22.88 C0.12 17.72, 2.98 11.52, 6.51 7.78 C10.04 4.03, 18.47 1.55, 21.08 0.41 C23.7 -0.72, 22.04 0.7, 22.18 0.98 M27.43 0.11 C32.48 0.66, 39.7 4.16, 43.04 8.05 C46.39 11.94, 47.69 18.23, 47.52 23.44 C47.36 28.66, 45.2 35.24, 42.05 39.34 C38.89 43.45, 33.49 47.24, 28.6 48.08 C23.71 48.93, 17.26 46.91, 12.72 44.42 C8.18 41.93, 3.17 37.84, 1.36 33.14 C-0.45 28.44, 0.16 21.19, 1.86 16.22 C3.55 11.26, 7.23 5.96, 11.54 3.34 C15.85 0.72, 25.04 0.91, 27.71 0.5 C30.37 0.1, 27.63 0.54, 27.53 0.91" stroke="#000000" stroke-width="1" fill="none"></path></g><g stroke-linecap="round" transform="translate(950.109536852674 451.1168831168816) rotate(0 24.09090909090901 24.090909090909236)"><path d="M4.67 9.36 C4.67 9.36, 4.67 9.36, 4.67 9.36 M4.67 9.36 C4.67 9.36, 4.67 9.36, 4.67 9.36 M1.78 18.77 C7.51 12.8, 13.42 5.52, 17.53 0.66 M1.78 18.77 C6.06 13.77, 10.49 9.5, 17.53 0.66 M0.21 26.68 C6.85 18.47, 13.69 11.08, 22.51 1.02 M0.21 26.68 C8.19 17.8, 16.44 7.96, 22.51 1.02 M1.91 30.81 C7.25 24.32, 14.58 16.51, 26.84 2.14 M1.91 30.81 C10.11 21.2, 19.35 11.13, 26.84 2.14 M4.28 34.19 C11.2 25.19, 18.2 17.49, 31.83 2.5 M4.28 34.19 C13.8 23.82, 22.4 13.44, 31.83 2.5 M5.98 38.33 C18.39 25.03, 29.49 10.74, 36.16 3.61 M5.98 38.33 C17.34 25.47, 28.23 13.55, 36.16 3.61 M8.35 41.71 C17.02 31.77, 27.44 20.2, 38.53 6.99 M8.35 41.71 C18.45 29.52, 29.31 16.77, 38.53 6.99 M12.02 43.58 C20.35 32.82, 30.16 23.06, 41.54 9.61 M12.02 43.58 C18.02 36.36, 24.33 28.64, 41.54 9.61 M15.7 45.44 C25.32 34, 35.21 23.95, 44.56 12.24 M15.7 45.44 C25.99 33.13, 36.45 21.41, 44.56 12.24 M19.37 47.31 C28.8 37.74, 37.01 28.19, 46.27 16.37 M19.37 47.31 C25.98 39.7, 33.23 32.13, 46.27 16.37 M23.7 48.43 C28.03 42.81, 34.16 36.58, 46.66 22.01 M23.7 48.43 C30.27 41.41, 35.39 34.22, 46.66 22.01 M30.66 46.53 C35.8 39.64, 42.5 33.64, 47.71 26.9 M30.66 46.53 C34.89 41.84, 39.18 37.32, 47.71 26.9 M36.96 45.38 C39.11 43.18, 40.48 40.52, 42.86 38.58 M36.96 45.38 C38.46 43.63, 40.1 42.03, 42.86 38.58" stroke="#e64980" stroke-width="0.5" fill="none"></path><path d="M18.21 0.32 C22.85 -1.1, 29.78 0.1, 34.37 2.4 C38.95 4.7, 43.6 9.37, 45.72 14.12 C47.85 18.87, 48.45 25.82, 47.11 30.91 C45.77 35.99, 41.9 41.78, 37.68 44.64 C33.45 47.5, 26.97 48.74, 21.76 48.07 C16.55 47.4, 10.11 44.29, 6.41 40.62 C2.71 36.95, -0.11 31.2, -0.45 26.04 C-0.78 20.88, 1.11 13.87, 4.4 9.67 C7.68 5.46, 16.63 2.22, 19.25 0.82 C21.86 -0.57, 20.13 0.88, 20.09 1.28 M20.86 0.77 C25.71 -0.13, 32.42 0.59, 36.7 3.19 C40.99 5.79, 45.02 11.33, 46.6 16.4 C48.17 21.47, 48.04 28.69, 46.17 33.64 C44.3 38.58, 40.05 43.78, 35.38 46.08 C30.7 48.38, 23.1 48.6, 18.13 47.44 C13.17 46.28, 8.55 43.25, 5.57 39.09 C2.6 34.94, 0.13 27.81, 0.27 22.51 C0.42 17.21, 2.97 11.09, 6.47 7.28 C9.96 3.47, 18.79 0.87, 21.25 -0.34 C23.71 -1.55, 21.22 -0.4, 21.25 0.04" stroke="#000000" stroke-width="1" fill="none"></path></g><g stroke-linecap="round" transform="translate(1134.654991398128 451.1168831168816) rotate(0 24.09090909090901 24.090909090909236)"><path d="M7.62 6.62 C7.62 6.62, 7.62 6.62, 7.62 6.62 M7.62 6.62 C7.62 6.62, 7.62 6.62, 7.62 6.62 M0.79 20.56 C5.62 15.95, 9.14 10.17, 16.54 2.45 M0.79 20.56 C6.15 14.57, 12.23 7.79, 16.54 2.45 M1.84 25.45 C8.48 17.26, 15.95 9.95, 24.15 -0.21 M1.84 25.45 C10.82 15.86, 18.82 5.05, 24.15 -0.21 M2.89 30.34 C10.1 23.35, 15.97 14.84, 27.83 1.66 M2.89 30.34 C10.94 21.72, 18.55 12.47, 27.83 1.66 M3.29 35.98 C13.38 23.18, 24.78 11.52, 32.16 2.78 M3.29 35.98 C13.18 24.53, 23.06 13.94, 32.16 2.78 M6.31 38.61 C17.39 25.99, 27.47 14.74, 36.49 3.89 M6.31 38.61 C13.68 30.03, 21.98 20.87, 36.49 3.89 M9.33 41.23 C17.4 33.37, 23.85 24.72, 39.51 6.52 M9.33 41.23 C20.91 27.89, 31.93 14.85, 39.51 6.52 M12.35 43.86 C20.33 34.53, 29.29 23.48, 41.87 9.9 M12.35 43.86 C23.13 31.33, 33.42 19.54, 41.87 9.9 M16.02 45.73 C21.56 39.26, 28.48 32, 44.23 13.27 M16.02 45.73 C25.32 34.55, 35.22 24.26, 44.23 13.27 M20.35 46.84 C26.47 40.4, 32.62 32.85, 46.59 16.65 M20.35 46.84 C29.03 37.44, 37.74 27.01, 46.59 16.65 M25.34 47.2 C30.39 41.91, 34.83 35.92, 46.99 22.3 M25.34 47.2 C29.89 41.32, 34.27 36.51, 46.99 22.3 M30.98 46.81 C34.06 43.23, 38.02 38.81, 46.07 29.45 M30.98 46.81 C36.37 40.94, 41.92 34.88, 46.07 29.45" stroke="#e64980" stroke-width="0.5" fill="none"></path><path d="M22.6 -0.39 C27.53 -0.96, 34.48 1.32, 38.59 4.5 C42.71 7.68, 46.13 13.56, 47.29 18.71 C48.45 23.85, 47.77 30.73, 45.53 35.38 C43.3 40.04, 38.64 44.74, 33.87 46.65 C29.11 48.56, 21.98 48.51, 16.95 46.84 C11.92 45.16, 6.43 40.95, 3.71 36.6 C0.98 32.25, -0.04 25.73, 0.61 20.73 C1.26 15.74, 3.77 10.01, 7.61 6.62 C11.46 3.24, 20.91 1.51, 23.68 0.41 C26.45 -0.7, 24.21 -0.28, 24.23 0.02 M20.01 0 C24.77 -1.29, 30.72 -0.07, 35.05 2.47 C39.37 5.02, 43.97 10.32, 45.97 15.26 C47.98 20.21, 48.56 27.35, 47.09 32.16 C45.61 36.96, 41.58 41.36, 37.11 44.1 C32.64 46.84, 25.37 49.23, 20.25 48.58 C15.14 47.93, 9.85 44.19, 6.41 40.19 C2.97 36.2, -0.13 29.8, -0.38 24.62 C-0.63 19.45, 1.68 13.16, 4.89 9.15 C8.11 5.13, 16.56 1.92, 18.9 0.55 C21.23 -0.82, 18.77 0.48, 18.89 0.93" stroke="#000000" stroke-width="1" fill="none"></path></g><g stroke-linecap="round"><g transform="translate(875.5640823072199 204.75324675324555) rotate(0 -62.727272727272975 43.18181818181802)"><path d="M-1.14 -0.22 C-22.16 14.21, -105.44 71.64, -126.31 85.91 M0.46 -1.39 C-20.16 13.27, -103.32 72.61, -124.04 87.21" stroke="#000000" stroke-width="1" fill="none"></path></g></g><mask></mask><g stroke-linecap="round"><g transform="translate(718.3553178888351 329.88555664494197) rotate(0 -34.57743597262606 60.615663235969805)"><path d="M-0.22 -0.85 C-11.71 19.4, -57.96 100.06, -69.61 120.36 M-1.8 1.32 C-13.42 21.8, -59.8 101.3, -70.8 121.44" stroke="#000000" stroke-width="1" fill="none"></path></g></g><mask></mask><g stroke-linecap="round"><g transform="translate(747.3822641254019 329.2987012986996) rotate(0 34.09090909090901 61.81818181818198)"><path d="M-0.85 -0.46 C10.56 20.02, 55.85 102.13, 67.31 122.64 M0.9 -1.74 C12.79 18.87, 58.55 102.81, 69.57 123.66" stroke="#000000" stroke-width="1" fill="none"></path></g></g><mask></mask><g stroke-linecap="round"><g transform="translate(919.061304178349 203.17232244363413) rotate(0 65.52411633716247 44.426825791168994)"><path d="M-0.46 -0.87 C21.26 14.04, 108.31 73.77, 130.05 88.6 M1.51 1.29 C23.6 16.45, 110.44 75.38, 132.25 90.01" stroke="#000000" stroke-width="1" fill="none"></path></g></g><mask></mask><g stroke-linecap="round"><g transform="translate(1051.0186277617659 328.3896103896086) rotate(0 -32.72727272727252 62.72727272727275)"><path d="M-0.87 -0.99 C-11.68 19.82, -54.82 103.38, -65.7 124.41 M0.87 1.1 C-10.04 22.06, -56.03 104.52, -66.78 125.4" stroke="#000000" stroke-width="1" fill="none"></path></g></g><mask></mask><g stroke-linecap="round"><g transform="translate(1083.745900489038 329.2987012986996) rotate(0 38.63636363636351 60.90909090909099)"><path d="M-0.99 -0.25 C11.79 20.08, 63.22 100.73, 76.23 121.09 M0.69 -1.43 C13.87 19.12, 65.82 101.46, 78.39 122.25" stroke="#000000" stroke-width="1" fill="none"></path></g></g><mask></mask><g stroke-linecap="round" transform="translate(566.5759870691263 6) rotate(0 24.09090909090901 24.090909090909236)"><path d="M5.85 7.73 C5.85 7.73, 5.85 7.73, 5.85 7.73 M5.85 7.73 C5.85 7.73, 5.85 7.73, 5.85 7.73 M2.31 17.91 C5.49 13.86, 10.94 8.47, 15.43 2.81 M2.31 17.91 C5.62 14.24, 8.31 10.96, 15.43 2.81 M0.73 25.81 C9.37 15.94, 18.29 6.1, 23.04 0.15 M0.73 25.81 C9.09 16.67, 16.47 6.76, 23.04 0.15 M2.44 29.95 C6.68 23.95, 12.24 19.05, 27.37 1.27 M2.44 29.95 C12.23 19.31, 21.72 7.61, 27.37 1.27 M4.15 34.08 C15.26 22.16, 24.39 10.41, 31.7 2.38 M4.15 34.08 C11.85 25.35, 20.06 16.03, 31.7 2.38 M5.85 38.21 C11.69 30.37, 20.22 22.27, 36.03 3.5 M5.85 38.21 C16.07 26.37, 26.6 14.63, 36.03 3.5 M8.22 41.59 C18.15 29.57, 30.25 16.03, 39.05 6.12 M8.22 41.59 C17.37 31.33, 26.49 21.43, 39.05 6.12 M11.89 43.46 C19.18 35.96, 26.45 27.1, 41.41 9.5 M11.89 43.46 C21.61 31.95, 31.76 20.13, 41.41 9.5 M15.57 45.33 C26.24 32.94, 37.2 21.17, 43.78 12.88 M15.57 45.33 C24.73 34.12, 34.85 23.32, 43.78 12.88 M19.24 47.2 C26.75 37.5, 35.5 29.87, 46.8 15.5 M19.24 47.2 C28.66 36.32, 38.16 25.77, 46.8 15.5 M24.23 47.56 C32.6 38.17, 42.26 28.71, 47.85 20.39 M24.23 47.56 C29.01 41.62, 34.67 35.47, 47.85 20.39 M30.53 46.41 C35.03 40.91, 40.99 34.78, 47.58 26.79 M30.53 46.41 C33.79 42.47, 37.94 38.34, 47.58 26.79" stroke="#e64980" stroke-width="0.5" fill="none"></path><path d="M20.52 -0.01 C25.3 -1.07, 31.65 0.34, 36.12 3.1 C40.6 5.86, 45.67 11.56, 47.38 16.52 C49.08 21.48, 48.35 28.04, 46.36 32.87 C44.36 37.7, 39.82 43.01, 35.41 45.49 C30.99 47.98, 24.84 48.79, 19.87 47.79 C14.9 46.79, 8.87 43.47, 5.58 39.5 C2.29 35.54, 0.12 29.24, 0.13 23.99 C0.14 18.74, 2.11 12.03, 5.63 7.99 C9.15 3.94, 18.42 0.9, 21.27 -0.29 C24.11 -1.48, 22.69 0.44, 22.7 0.85 M29.95 1.05 C34.88 1.93, 40.29 5.94, 43.38 9.95 C46.47 13.96, 48.63 19.92, 48.47 25.1 C48.31 30.28, 45.89 37.18, 42.43 41.02 C38.96 44.85, 32.83 47.49, 27.66 48.1 C22.5 48.71, 15.95 47.54, 11.44 44.7 C6.92 41.86, 2.16 36.13, 0.58 31.04 C-1 25.95, 0.01 18.79, 1.99 14.17 C3.96 9.55, 7.72 5.67, 12.41 3.34 C17.11 1.01, 27.3 0.61, 30.15 0.2 C33 -0.21, 29.64 0.35, 29.53 0.89" stroke="#000000" stroke-width="1" fill="none"></path></g><g stroke-linecap="round"><g transform="translate(566.8772086471308 39.097770847814445) rotate(0 -130.33242897081936 69.71247821245652)"><path d="M0.45 0.11 C-42.97 23.22, -216.19 114.89, -259.72 138.3 M-0.77 -0.88 C-44.34 22.37, -216.71 115.96, -260.17 139.25" stroke="#000000" stroke-width="1" fill="none"></path></g></g><mask></mask><g stroke-linecap="round"><g transform="translate(615.1235894830597 37.170730251575606) rotate(0 132.68074424757924 68.9941803287577)"><path d="M-0.27 0.14 C43.73 23.23, 220.45 114.32, 264.79 137.43 M1.79 -0.83 C45.51 22.51, 219.64 115.73, 263.55 138.68" stroke="#000000" stroke-width="1" fill="none"></path></g></g><mask></mask></svg>