<svg xmlns="http://www.w3.org/2000/svg" viewBox="325.00 190.00 1308.27 712.25" width="1308" height="712"><ellipse cx="1028.00" cy="223.00" rx="27.00" ry="27.00" stroke="#000000" stroke-width="1" opacity="1.0" fill="none"/><ellipse cx="825.00" cy="365.00" rx="27.00" ry="27.00" stroke="#000000" stroke-width="1" opacity="1.0" fill="none"/><ellipse cx="1225.00" cy="397.00" rx="27.00" ry="27.00" stroke="#000000" stroke-width="1" opacity="1.0" fill="none"/><ellipse cx="693.00" cy="540.50" rx="27.00" ry="27.00" stroke="#000000" stroke-width="1" opacity="1.0" fill="none"/><ellipse cx="925.00" cy="547.50" rx="27.00" ry="27.00" stroke="#000000" stroke-width="1" opacity="1.0" fill="none"/><ellipse cx="1349.00" cy="551.50" rx="27.00" ry="27.00" stroke="#000000" stroke-width="1" opacity="1.0" fill="none"/><ellipse cx="1124.00" cy="548.00" rx="27.00" ry="27.00" stroke="#000000" stroke-width="1" opacity="1.0" fill="none"/><polyline points="1006.00,236.00 846.00,348.00" fill="none" stroke="#000000" stroke-width="1" opacity="1.0" stroke-linecap="round" stroke-linejoin="round"/><polyline points="804.00,383.00 700.00,516.00" fill="none" stroke="#000000" stroke-width="1" opacity="1.0" stroke-linecap="round" stroke-linejoin="round"/><polyline points="840.00,388.00 914.00,523.00" fill="none" stroke="#000000" stroke-width="1" opacity="1.0" stroke-linecap="round" stroke-linejoin="round"/><polyline points="1051.00,239.00 1210.00,374.00" fill="none" stroke="#000000" stroke-width="1" opacity="1.0" stroke-linecap="round" stroke-linejoin="round"/><polyline points="1207.00,420.00 1138.00,524.00" fill="none" stroke="#000000" stroke-width="1" opacity="1.0" stroke-linecap="round" stroke-linejoin="round"/><polyline points="1245.00,419.00 1347.00,525.00" fill="none" stroke="#000000" stroke-width="1" opacity="1.0" stroke-linecap="round" stroke-linejoin="round"/><ellipse cx="490.00" cy="682.75" rx="27.00" ry="27.00" stroke="#000000" stroke-width="1" opacity="1.0" fill="none"/><ellipse cx="890.00" cy="714.75" rx="27.00" ry="27.00" stroke="#000000" stroke-width="1" opacity="1.0" fill="none"/><ellipse cx="358.00" cy="858.25" rx="27.00" ry="27.00" stroke="#000000" stroke-width="1" opacity="1.0" fill="none"/><ellipse cx="590.00" cy="865.25" rx="27.00" ry="27.00" stroke="#000000" stroke-width="1" opacity="1.0" fill="none"/><ellipse cx="1014.00" cy="869.25" rx="27.00" ry="27.00" stroke="#000000" stroke-width="1" opacity="1.0" fill="none"/><ellipse cx="789.00" cy="865.75" rx="27.00" ry="27.00" stroke="#000000" stroke-width="1" opacity="1.0" fill="none"/><polyline points="671.00,553.75 511.00,665.75" fill="none" stroke="#000000" stroke-width="1" opacity="1.0" stroke-linecap="round" stroke-linejoin="round"/><polyline points="469.00,700.75 365.00,833.75" fill="none" stroke="#000000" stroke-width="1" opacity="1.0" stroke-linecap="round" stroke-linejoin="round"/><polyline points="505.00,705.75 579.00,840.75" fill="none" stroke="#000000" stroke-width="1" opacity="1.0" stroke-linecap="round" stroke-linejoin="round"/><polyline points="716.00,556.75 875.00,691.75" fill="none" stroke="#000000" stroke-width="1" opacity="1.0" stroke-linecap="round" stroke-linejoin="round"/><polyline points="872.00,737.75 803.00,841.75" fill="none" stroke="#000000" stroke-width="1" opacity="1.0" stroke-linecap="round" stroke-linejoin="round"/><polyline points="910.00,736.75 1012.00,842.75" fill="none" stroke="#000000" stroke-width="1" opacity="1.0" stroke-linecap="round" stroke-linejoin="round"/><ellipse cx="1053.00" cy="702.25" rx="27.00" ry="27.00" stroke="#000000" stroke-width="1" opacity="1.0" fill="none"/><polyline points="944.00,568.75 1037.61,680.67" fill="none" stroke="#000000" stroke-width="1" opacity="1.0" stroke-linecap="round" stroke-linejoin="round"/><polyline points="690.00,569.50 715.82,707.34" fill="none" stroke="#000000" stroke-width="1" opacity="1.0" stroke-linecap="round" stroke-linejoin="round"/><ellipse cx="717.00" cy="735.00" rx="27.00" ry="27.00" stroke="#000000" stroke-width="1" opacity="1.0" fill="none"/><ellipse cx="591.00" cy="451.50" rx="27.00" ry="27.00" stroke="#000000" stroke-width="1" opacity="1.0" fill="none"/><polyline points="795.96,364.54 611.03,432.75" fill="none" stroke="#000000" stroke-width="1" opacity="1.0" stroke-linecap="round" stroke-linejoin="round"/><polyline points="1019.88,248.82 1016.56,429.25" fill="none" stroke="#000000" stroke-width="1" opacity="1.0" stroke-linecap="round" stroke-linejoin="round"/><ellipse cx="1017.83" cy="458.17" rx="27.00" ry="27.00" stroke="#000000" stroke-width="1" opacity="1.0" fill="none"/><ellipse cx="1477.77" cy="703.44" rx="27.00" ry="27.00" stroke="#000000" stroke-width="1" opacity="1.0" fill="none"/><ellipse cx="1252.77" cy="699.94" rx="27.00" ry="27.00" stroke="#000000" stroke-width="1" opacity="1.0" fill="none"/><polyline points="1335.77,571.94 1266.77,675.94" fill="none" stroke="#000000" stroke-width="1" opacity="1.0" stroke-linecap="round" stroke-linejoin="round"/><polyline points="1373.77,570.94 1475.77,676.94" fill="none" stroke="#000000" stroke-width="1" opacity="1.0" stroke-linecap="round" stroke-linejoin="round"/><ellipse cx="1600.27" cy="854.69" rx="27.00" ry="27.00" stroke="#000000" stroke-width="1" opacity="1.0" fill="none"/><ellipse cx="1375.27" cy="851.19" rx="27.00" ry="27.00" stroke="#000000" stroke-width="1" opacity="1.0" fill="none"/><polyline points="1458.27,723.19 1389.27,827.19" fill="none" stroke="#000000" stroke-width="1" opacity="1.0" stroke-linecap="round" stroke-linejoin="round"/><polyline points="1496.27,722.19 1598.27,828.19" fill="none" stroke="#000000" stroke-width="1" opacity="1.0" stroke-linecap="round" stroke-linejoin="round"/><ellipse cx="1154.77" cy="853.69" rx="27.00" ry="27.00" stroke="#000000" stroke-width="1" opacity="1.0" fill="none"/><polyline points="1237.77,725.69 1168.77,829.69" fill="none" stroke="#000000" stroke-width="1" opacity="1.0" stroke-linecap="round" stroke-linejoin="round"/></svg>