<svg xmlns="http://www.w3.org/2000/svg" viewBox="-362.61 1276.50 682.22 342.35" width="682" height="342"><polyline points="-356.61,1493.23 -343.37,1473.99 -320.10,1463.35 -296.78,1473.99 -205.16,1491.59 -294.13,1513.46 -318.99,1525.80 -340.20,1514.49 -356.61,1493.23" fill="none" stroke="#000000" stroke-width="1" opacity="1.0" stroke-linecap="round" stroke-linejoin="round" transform="rotate(269.81 -280.89 1581.63)"/><polyline points="-248.18,1467.36 -218.64,1439.96 -177.44,1445.96 -116.53,1420.72 -21.75,1465.73 -111.14,1508.34 -174.09,1492.93 -218.82,1498.20 -248.18,1467.36" fill="none" stroke="#000000" stroke-width="1" opacity="1.0" stroke-linecap="round" stroke-linejoin="round" transform="rotate(269.81 -134.96 1520.82)"/><polyline points="-51.93,1525.12 -41.65,1502.01 -14.22,1510.49 22.01,1509.96 65.68,1523.14 21.00,1536.14 -13.20,1539.13 -39.19,1550.66 -51.93,1525.12" fill="none" stroke="#000000" stroke-width="1" opacity="1.0" stroke-linecap="round" stroke-linejoin="round" transform="rotate(269.81 6.87 1555.73)"/><polyline points="117.46,1468.53 142.19,1461.31 169.62,1471.55 205.86,1470.92 249.52,1486.84 204.84,1502.54 170.65,1506.15 144.66,1520.08 118.47,1516.71 67.09,1495.44 117.46,1468.53" fill="none" stroke="#000000" stroke-width="1" opacity="1.0" stroke-linecap="round" stroke-linejoin="round" transform="rotate(269.81 222.40 1499.88)"/><polyline points="-352.93,1323.70 -352.93,1603.70" fill="none" stroke="#000000" stroke-width="1" opacity="1.0" stroke-linecap="round" stroke-linejoin="round"/><polyline points="-353.39,1604.96 226.61,1604.96" fill="none" stroke="#000000" stroke-width="1" opacity="1.0" stroke-linecap="round" stroke-linejoin="round"/><text x="-354.02" y="1302.50" font-size="20" fill="#000000" opacity="1.0" font-family="sans-serif">Violin</text></svg>