<svg version="1.1" xmlns="http://www.w3.org/2000/svg" viewBox="0 0 264.33333333333326 291.1111111111111" width="264.33333333333326" height="291.1111111111111">
  <!-- svg-source:excalidraw -->
  
  <defs>
    
    
  </defs>
  <g stroke-linecap="round" transform="translate(6 6) rotate(0 123.88888888888891 18.888888888888886)"><path d="M1.38 -0.98 L247.69 1.77 L247.47 39 L-1.75 39.72" stroke="none" stroke-width="0" fill="#228be6"></path><path d="M0 0 C55.75 -1.16, 110.15 -0.46, 247.78 0 M0 0 C99.55 1.63, 198.58 1.04, 247.78 0 M247.78 0 C249.23 7.9, 248.07 17.58, 247.78 37.78 M247.78 0 C248.59 11.31, 247.93 22.27, 247.78 37.78 M247.78 37.78 C153.81 36.28, 60.3 36.53, 0 37.78 M247.78 37.78 C163.35 36.35, 79.98 36.48, 0 37.78 M0 37.78 C-0.54 26.26, 0.51 15.95, 0 0 M0 37.78 C0.53 29.54, 0.49 22.86, 0 0" stroke="#000000" stroke-width="1" fill="none"></path></g><g transform="translate(72.38888888888891 11.444444444444429) rotate(0 57.5 12.5)"><text x="0" y="0" font-family="Virgil, Segoe UI Emoji" font-size="20px" fill="#000000" text-anchor="start" style="white-space: pre;" direction="ltr" dominant-baseline="text-before-edge">Team Name</text></g><g stroke-linecap="round" transform="translate(6.222222222222399 43.77777777777777) rotate(0 123.33333333333326 119.99999999999999)"><path d="M-1.94 1.57 L248.55 -1.14 L248.11 241.88 L-1.38 239.89" stroke="none" stroke-width="0" fill="white"></path><path d="M0 0 C79.58 0.79, 159.05 0.29, 246.67 0 M246.67 0 C248.56 47.86, 246.64 96.46, 246.67 240 M246.67 240 C165.39 236.65, 84.95 237.33, 0 240 M0 240 C1.64 179.8, 2.53 120.97, 0 0" stroke="#000000" stroke-width="1.5" fill="none" stroke-dasharray="8 9"></path></g><g stroke-linecap="round" transform="translate(11.666666666666742 45.11111111111106) rotate(0 123.33333333333326 120)"><path d="M0.99 0.97 L247.26 -1.46 L245.16 238.71 L0.6 239.88" stroke="none" stroke-width="0" fill="white"></path><path d="M0 0 C97.17 -2.29, 195.38 -2.42, 246.67 0 M246.67 0 C247.11 68.34, 246.99 138.29, 246.67 240 M246.67 240 C171.7 240.01, 96.81 240.48, 0 240 M0 240 C0.58 162.63, 1.17 82.09, 0 0" stroke="transparent" stroke-width="1.5" fill="none" stroke-dasharray="8 9"></path></g></svg>