<svg xmlns="http://www.w3.org/2000/svg" viewBox="-2128.00 -945.92 592.63 334.28" width="593" height="334"><rect x="-2042.00" y="-678.67" width="40.00" height="40.00" rx="0" stroke="#000000" stroke-width="1" opacity="1.0" fill="none"/><rect x="-2102.00" y="-658.67" width="40.00" height="20.00" rx="0" stroke="#000000" stroke-width="1" opacity="1.0" fill="none"/><rect x="-1982.00" y="-678.67" width="40.00" height="40.00" rx="0" stroke="#000000" stroke-width="1" opacity="1.0" fill="none"/><rect x="-1922.00" y="-698.67" width="37.93" height="60.00" rx="0" stroke="#000000" stroke-width="1" opacity="1.0" fill="none"/><rect x="-1802.00" y="-698.67" width="36.52" height="60.00" rx="0" stroke="#000000" stroke-width="1" opacity="1.0" fill="none"/><rect x="-1682.00" y="-818.67" width="37.93" height="180.00" rx="0" stroke="#000000" stroke-width="1" opacity="1.0" fill="none"/><rect x="-1862.00" y="-678.67" width="36.52" height="37.93" rx="0" stroke="#000000" stroke-width="1" opacity="1.0" fill="none"/><rect x="-1742.00" y="-798.67" width="36.52" height="160.00" rx="0" stroke="#000000" stroke-width="1" opacity="1.0" fill="none"/><polyline points="-2120.91,-898.90 -2120.91,-618.90" fill="none" stroke="#000000" stroke-width="1" opacity="1.0" stroke-linecap="round" stroke-linejoin="round"/><polyline points="-2121.37,-617.63 -1541.37,-617.63" fill="none" stroke="#000000" stroke-width="1" opacity="1.0" stroke-linecap="round" stroke-linejoin="round"/><rect x="-1622.00" y="-678.67" width="37.93" height="40.00" rx="0" stroke="#000000" stroke-width="1" opacity="1.0" fill="none"/><text x="-2122.00" y="-919.92" font-size="20" fill="#000000" opacity="1.0" font-family="sans-serif">Stacked Column</text><rect x="-2042.00" y="-698.67" width="40.00" height="20.00" rx="0" stroke="#000000" stroke-width="1" opacity="1.0" fill="none"/><rect x="-2102.00" y="-678.67" width="40.00" height="20.00" rx="0" stroke="#000000" stroke-width="1" opacity="1.0" fill="none"/><rect x="-1982.00" y="-698.67" width="40.00" height="20.00" rx="0" stroke="#000000" stroke-width="1" opacity="1.0" fill="none"/><rect x="-1922.00" y="-738.67" width="37.93" height="40.00" rx="0" stroke="#000000" stroke-width="1" opacity="1.0" fill="none"/><rect x="-1802.00" y="-738.67" width="36.52" height="40.00" rx="0" stroke="#000000" stroke-width="1" opacity="1.0" fill="none"/><rect x="-1682.00" y="-858.67" width="37.93" height="40.00" rx="0" stroke="#000000" stroke-width="1" opacity="1.0" fill="none"/><rect x="-1862.00" y="-698.67" width="36.52" height="17.93" rx="0" stroke="#000000" stroke-width="1" opacity="1.0" fill="none"/><rect x="-1742.00" y="-858.67" width="36.52" height="60.00" rx="0" stroke="#000000" stroke-width="1" opacity="1.0" fill="none"/><rect x="-1622.00" y="-698.67" width="37.93" height="20.00" rx="0" stroke="#000000" stroke-width="1" opacity="1.0" fill="none"/></svg>