<svg xmlns="http://www.w3.org/2000/svg" viewBox="-1021.00 1274.00 592.63 334.46" width="593" height="334"><polyline points="-1013.91,1321.20 -1013.91,1601.20" fill="none" stroke="#000000" stroke-width="1" opacity="1.0" stroke-linecap="round" stroke-linejoin="round"/><polyline points="-1014.37,1602.46 -434.37,1602.46" fill="none" stroke="#000000" stroke-width="1" opacity="1.0" stroke-linecap="round" stroke-linejoin="round"/><text x="-1015.00" y="1300.00" font-size="20" fill="#000000" opacity="1.0" font-family="sans-serif">Box &amp; Whisker</text><polyline points="-944.94,1415.25 -943.88,1556.76" fill="none" stroke="#1864ab" stroke-width="1" opacity="1.0" stroke-linecap="round" stroke-linejoin="round"/><polyline points="-824.94,1346.50 -822.87,1569.51" fill="none" stroke="#1864ab" stroke-width="1" opacity="1.0" stroke-linecap="round" stroke-linejoin="round"/><polyline points="-673.69,1480.25 -671.46,1581.56" fill="none" stroke="#1864ab" stroke-width="1" opacity="1.0" stroke-linecap="round" stroke-linejoin="round"/><polyline points="-519.69,1386.50 -517.77,1568.69" fill="none" stroke="#1864ab" stroke-width="1" opacity="1.0" stroke-linecap="round" stroke-linejoin="round"/><rect x="-955.00" y="1453.75" width="20.00" height="60.00" rx="0" stroke="#000000" stroke-width="1" opacity="1.0" fill="none"/><rect x="-835.00" y="1445.00" width="20.00" height="100.00" rx="0" stroke="#000000" stroke-width="1" opacity="1.0" fill="none"/><rect x="-683.75" y="1518.75" width="20.00" height="40.00" rx="0" stroke="#000000" stroke-width="1" opacity="1.0" fill="none"/><rect x="-528.75" y="1445.00" width="20.00" height="100.00" rx="0" stroke="#000000" stroke-width="1" opacity="1.0" fill="none"/><polyline points="-834.00,1343.32 -816.35,1343.32" fill="none" stroke="#1864ab" stroke-width="1" opacity="1.0" stroke-linecap="round" stroke-linejoin="round"/><polyline points="-833.41,1568.03 -815.76,1568.03" fill="none" stroke="#1864ab" stroke-width="1" opacity="1.0" stroke-linecap="round" stroke-linejoin="round"/><polyline points="-680.99,1583.54 -663.34,1583.54" fill="none" stroke="#1864ab" stroke-width="1" opacity="1.0" stroke-linecap="round" stroke-linejoin="round"/><polyline points="-951.65,1559.13 -934.00,1559.13" fill="none" stroke="#1864ab" stroke-width="1" opacity="1.0" stroke-linecap="round" stroke-linejoin="round"/><polyline points="-952.24,1414.43 -934.59,1414.43" fill="none" stroke="#1864ab" stroke-width="1" opacity="1.0" stroke-linecap="round" stroke-linejoin="round"/><polyline points="-684.51,1483.54 -666.87,1483.54" fill="none" stroke="#1864ab" stroke-width="1" opacity="1.0" stroke-linecap="round" stroke-linejoin="round"/><polyline points="-530.10,1387.44 -512.46,1387.44" fill="none" stroke="#1864ab" stroke-width="1" opacity="1.0" stroke-linecap="round" stroke-linejoin="round"/><polyline points="-526.57,1568.03 -508.93,1568.03" fill="none" stroke="#1864ab" stroke-width="1" opacity="1.0" stroke-linecap="round" stroke-linejoin="round"/></svg>