<svg version="1.1" xmlns="http://www.w3.org/2000/svg" viewBox="0 0 103.28778076171875 90.95739026275146" width="103.28778076171875" height="90.95739026275146">
  <!-- svg-source:excalidraw -->
  
  <defs>
    
    
  </defs>
  <g stroke-linecap="round" transform="translate(6 25.91551380072633) rotate(0 4.5467721623649595 4.507456525734256)"><path d="M3.67 0.38 C4.52 0.2, 6.01 0.44, 6.89 0.91 C7.76 1.37, 8.56 2.31, 8.91 3.15 C9.26 3.99, 9.39 5.01, 8.98 5.94 C8.58 6.87, 7.38 8.19, 6.47 8.72 C5.55 9.24, 4.43 9.35, 3.47 9.1 C2.52 8.86, 1.28 8.08, 0.74 7.27 C0.19 6.45, 0.2 5.2, 0.22 4.22 C0.23 3.23, 0.27 2.05, 0.83 1.33 C1.39 0.61, 3.02 0.14, 3.6 -0.09 C4.17 -0.33, 4.28 -0.19, 4.29 -0.09 M4.62 0.47 C5.55 0.58, 7.12 0.96, 7.87 1.49 C8.62 2.03, 9.04 2.82, 9.13 3.68 C9.21 4.54, 8.92 5.83, 8.39 6.64 C7.87 7.45, 6.86 8.19, 5.98 8.52 C5.09 8.85, 3.98 9, 3.07 8.62 C2.16 8.23, 1.04 7.07, 0.5 6.21 C-0.03 5.35, -0.43 4.43, -0.12 3.46 C0.19 2.49, 1.44 0.94, 2.36 0.39 C3.29 -0.16, 5.04 0.26, 5.43 0.15 C5.82 0.03, 4.88 -0.28, 4.73 -0.29" stroke="#000000" stroke-width="1" fill="none"></path></g><g stroke-linecap="round" transform="translate(6.356413346392401 52.58411621391497) rotate(0 4.5467721623649595 4.507456525734256)"><path d="M5.58 0.05 C6.52 0.17, 7.63 0.85, 8.23 1.61 C8.84 2.37, 9.26 3.71, 9.2 4.62 C9.15 5.52, 8.48 6.37, 7.9 7.06 C7.31 7.74, 6.58 8.54, 5.69 8.73 C4.79 8.92, 3.43 8.58, 2.52 8.18 C1.61 7.78, 0.64 7.25, 0.23 6.35 C-0.18 5.44, -0.26 3.76, 0.04 2.76 C0.33 1.76, 1.13 0.74, 1.98 0.34 C2.84 -0.06, 4.64 0.46, 5.17 0.37 C5.69 0.29, 5.12 -0.22, 5.12 -0.17 M5.18 0.12 C6.19 0.16, 7.21 0.57, 7.78 1.22 C8.35 1.87, 8.6 3.03, 8.62 4.02 C8.65 5.01, 8.45 6.29, 7.94 7.16 C7.44 8.03, 6.44 8.97, 5.6 9.24 C4.75 9.51, 3.73 9.24, 2.85 8.76 C1.97 8.27, 0.76 7.13, 0.32 6.33 C-0.12 5.54, 0.05 4.8, 0.22 3.98 C0.39 3.16, 0.56 2.13, 1.33 1.44 C2.11 0.74, 4.35 0.09, 4.85 -0.2 C5.35 -0.49, 4.41 -0.39, 4.33 -0.31" stroke="#000000" stroke-width="1" fill="none"></path></g><g stroke-linecap="round" transform="translate(50.58609091954759 24.74308156517145) rotate(0 4.5467721623649595 4.507456525734256)"><path d="M4.82 0.27 C5.79 0.23, 7.01 0.76, 7.75 1.35 C8.48 1.94, 9.21 2.83, 9.26 3.81 C9.31 4.8, 8.66 6.4, 8.06 7.26 C7.45 8.13, 6.57 8.79, 5.64 9 C4.7 9.22, 3.28 9.01, 2.46 8.56 C1.63 8.12, 1.13 7.2, 0.69 6.31 C0.26 5.42, -0.3 4.17, -0.16 3.24 C-0.02 2.31, 0.64 1.32, 1.54 0.74 C2.43 0.17, 4.69 -0.1, 5.21 -0.21 C5.73 -0.32, 4.67 -0.04, 4.64 0.08 M4.14 0.21 C5.11 -0.1, 6.29 -0.11, 7.1 0.32 C7.91 0.74, 8.71 1.83, 9.03 2.77 C9.34 3.71, 9.3 4.99, 8.97 5.96 C8.63 6.93, 7.92 8.11, 7.02 8.56 C6.12 9.02, 4.64 8.9, 3.57 8.69 C2.5 8.48, 1.15 8.13, 0.62 7.31 C0.1 6.5, 0.25 4.77, 0.44 3.81 C0.62 2.85, 1.17 2.23, 1.73 1.54 C2.3 0.84, 3.51 -0.06, 3.82 -0.36 C4.14 -0.66, 3.62 -0.41, 3.63 -0.26" stroke="#000000" stroke-width="1" fill="none"></path></g><g stroke-linecap="round" transform="translate(50.94250426593999 51.411683978367364) rotate(0 4.5467721623649595 4.507456525734256)"><path d="M4.42 0.08 C5.3 -0.02, 6.55 0.52, 7.27 1.02 C8 1.51, 8.48 2.2, 8.76 3.07 C9.03 3.94, 9.28 5.35, 8.93 6.22 C8.57 7.1, 7.57 7.85, 6.63 8.32 C5.69 8.8, 4.29 9.33, 3.28 9.07 C2.28 8.82, 1.19 7.67, 0.61 6.8 C0.03 5.92, -0.3 4.66, -0.2 3.8 C-0.1 2.94, 0.49 2.31, 1.2 1.62 C1.91 0.94, 3.54 -0.09, 4.08 -0.32 C4.61 -0.55, 4.36 0.17, 4.41 0.26 M4.25 0.07 C5.01 -0.08, 5.96 0.32, 6.66 0.89 C7.36 1.46, 8.18 2.53, 8.47 3.51 C8.75 4.49, 8.68 5.93, 8.36 6.78 C8.05 7.63, 7.42 8.33, 6.57 8.64 C5.71 8.94, 4.17 8.78, 3.25 8.61 C2.32 8.43, 1.6 8.24, 0.99 7.59 C0.38 6.93, -0.49 5.75, -0.42 4.69 C-0.35 3.62, 0.72 2.02, 1.4 1.17 C2.09 0.33, 3.29 -0.17, 3.68 -0.38 C4.06 -0.6, 3.62 -0.2, 3.7 -0.1" stroke="#000000" stroke-width="1" fill="none"></path></g><g stroke-linecap="round" transform="translate(27.83544252256661 6) rotate(0 4.5467721623649595 4.507456525734256)"><path d="M5.35 0.17 C6.31 0.19, 7.62 0.63, 8.19 1.39 C8.77 2.14, 8.87 3.7, 8.81 4.72 C8.76 5.75, 8.48 6.85, 7.86 7.54 C7.25 8.23, 6 8.75, 5.11 8.86 C4.23 8.98, 3.38 8.72, 2.53 8.23 C1.68 7.73, 0.43 6.77, 0 5.88 C-0.43 4.99, -0.47 3.79, -0.05 2.87 C0.37 1.96, 1.69 0.88, 2.54 0.41 C3.39 -0.06, 4.53 0.07, 5.03 0.05 C5.54 0.02, 5.59 0.21, 5.59 0.25 M5.28 -0.38 C6.21 -0.4, 7.4 0.34, 8.08 1.08 C8.76 1.82, 9.27 3.02, 9.34 4.06 C9.42 5.11, 9.17 6.57, 8.54 7.35 C7.9 8.12, 6.59 8.52, 5.52 8.72 C4.44 8.93, 2.89 9.08, 2.09 8.58 C1.3 8.08, 0.97 6.62, 0.74 5.72 C0.51 4.82, 0.52 4.1, 0.73 3.19 C0.94 2.29, 1.3 0.85, 1.98 0.26 C2.66 -0.32, 4.32 -0.31, 4.82 -0.33 C5.33 -0.34, 4.99 0.05, 5 0.18" stroke="#000000" stroke-width="1" fill="none"></path></g><g stroke-linecap="round" transform="translate(29.135975937518197 65.50696520944621) rotate(0 4.5467721623649595 4.507456525734256)"><path d="M4.64 0.19 C5.5 0.08, 6.5 0.21, 7.27 0.77 C8.05 1.32, 9.06 2.56, 9.29 3.51 C9.52 4.47, 9.2 5.57, 8.66 6.48 C8.12 7.39, 7.02 8.62, 6.04 8.95 C5.06 9.28, 3.73 8.87, 2.79 8.46 C1.85 8.04, 0.88 7.2, 0.4 6.47 C-0.08 5.73, -0.24 5, -0.07 4.05 C0.09 3.09, 0.62 1.38, 1.4 0.74 C2.18 0.09, 4.04 0.32, 4.61 0.17 C5.17 0.03, 4.83 -0.23, 4.8 -0.14 M4.29 0.12 C5.12 0.14, 6.42 0.72, 7.15 1.42 C7.89 2.12, 8.5 3.41, 8.71 4.34 C8.92 5.26, 8.92 6.29, 8.42 6.99 C7.92 7.69, 6.65 8.17, 5.73 8.53 C4.82 8.88, 3.89 9.35, 2.95 9.11 C2.01 8.87, 0.55 8.06, 0.1 7.1 C-0.36 6.14, 0.02 4.45, 0.23 3.35 C0.44 2.26, 0.68 1.13, 1.37 0.54 C2.05 -0.06, 3.78 -0.1, 4.34 -0.21 C4.91 -0.33, 4.71 -0.21, 4.76 -0.17" stroke="#000000" stroke-width="1" fill="none"></path></g><g stroke-linecap="round"><g transform="translate(11.225723892092446 34.12553900668718) rotate(0 -0.7243883349652833 9.339708433990836)"><path d="M0.54 -0.01 C0.34 3.17, -0.72 15.62, -1.02 18.79 M0.15 -0.49 C-0.1 2.54, -0.95 14.78, -1.23 17.88" stroke="#000000" stroke-width="1" fill="none"></path></g></g><mask></mask><g stroke-linecap="round"><g transform="translate(55.58448463975128 32.80246698993142) rotate(0 -0.7243883349652833 9.339708433990836)"><path d="M-0.01 0.43 C-0.19 3.48, -1.15 15.87, -1.34 18.86 M-0.68 0.17 C-0.89 3.29, -1.61 14.88, -1.71 17.99" stroke="#000000" stroke-width="1" fill="none"></path></g></g><mask></mask><g stroke-linecap="round"><g transform="translate(14.074094848422192 25.49303942369079) rotate(0 8.364293239737549 -6.805993718571926)"><path d="M0.43 0.11 C3.16 -2.1, 14.24 -10.93, 16.91 -13.29 M-0.01 -0.31 C2.61 -2.68, 13.92 -11.86, 16.57 -14.09" stroke="#000000" stroke-width="1" fill="none"></path></g></g><mask></mask><g stroke-linecap="round"><g transform="translate(38.745606131467866 68.53416013770402) rotate(0 7.633603617224821 -4.290866740452202)"><path d="M0.11 0.18 C2.71 -1.37, 13.14 -7.5, 15.59 -8.89 M-0.5 -0.2 C2.06 -1.73, 12.59 -6.88, 15.32 -8.35" stroke="#000000" stroke-width="1" fill="none"></path></g></g><mask></mask><g stroke-linecap="round"><g transform="translate(14.132269641616404 59.50746846049515) rotate(0 5.550176802098804 3.2031774290710473)"><path d="M0.18 0.32 C1.91 1.29, 8.9 4.98, 10.79 5.94 M-0.39 0.01 C1.48 1.03, 9.9 5.32, 11.87 6.4" stroke="#000000" stroke-width="1" fill="none"></path></g></g><mask></mask><g stroke-linecap="round"><g transform="translate(39.89591195616504 13.0039591963141) rotate(0 9.138882911083215 6.50016507889427)"><path d="M0.32 -0.31 C3.27 1.9, 14.88 11.17, 17.81 13.44 M-0.18 0.72 C2.93 2.77, 15.6 10.76, 18.81 12.7" stroke="#000000" stroke-width="1" fill="none"></path></g></g><mask></mask><g stroke-linecap="round"><g transform="translate(14.612354231846894 53.74464735711081) rotate(0 8.466857796945419 -19.12941137529208)"><path d="M-0.67 -1.01 C2.25 -7.63, 14.85 -32.61, 17.89 -38.98 M1.18 1.07 C3.99 -5.46, 14.79 -31.23, 17.44 -37.82" stroke="#000000" stroke-width="1" fill="none"></path></g></g><mask></mask><g stroke-linecap="round"><g transform="translate(33.46160708211619 53.79085571007454) rotate(306.8074096825988 10.254833598861296 -19.58939679942091)"><path d="M-1.01 0.95 C2.17 -5.36, 16.37 -31.82, 19.79 -38.56 M0.66 0.41 C4.17 -6.2, 18.58 -33.91, 22.13 -40.36" stroke="#000000" stroke-width="1" fill="none"></path></g></g><mask></mask><g stroke-linecap="round"><g transform="translate(15.839359859821343 57.76322037544742) rotate(0 18.18967135486855 -0.3054250919575452)"><path d="M0.44 -0.33 C6.6 -0.43, 30.69 -1.07, 36.66 -1.06 M0 0.69 C6.14 0.69, 30.4 -0.29, 36.38 -0.59" stroke="#000000" stroke-width="1" fill="none"></path></g></g><mask></mask><g transform="translate(41.74928365434516 68.42807564746181) rotate(0 27.769248553686793 8.264657307644825)"><text x="0" y="0" font-family="Virgil, Segoe UI Emoji" font-size="13.223451692231793px" fill="#000000" text-anchor="start" style="white-space: pre;" direction="ltr" dominant-baseline="text-before-edge">GraphQL</text></g></svg>