<svg xmlns="http://www.w3.org/2000/svg" viewBox="405.85 171.24 1412.75 777.00" width="1413" height="777"><rect x="414.35" y="269.74" width="137.50" height="283.75" rx="0" stroke="#000000" stroke-width="1" opacity="1.0" fill="#868e96"/><rect x="411.85" y="578.49" width="137.50" height="283.75" rx="0" stroke="#000000" stroke-width="1" opacity="1.0" fill="#868e96"/><text x="451.85" y="420.74" font-size="20" fill="white" opacity="1.0" font-family="sans-serif">Team 1</text><text x="445.60" y="725.74" font-size="20" fill="white" opacity="1.0" font-family="sans-serif">Team 2</text><rect x="568.10" y="223.49" width="150.00" height="33.75" rx="0" stroke="#343a40" stroke-width="1" opacity="1.0" fill="#868e96"/><text x="624.35" y="248.24" font-size="20" fill="white" opacity="1.0" font-family="sans-serif">Jan</text><rect x="1084.35" y="223.49" width="150.00" height="33.75" rx="0" stroke="#343a40" stroke-width="1" opacity="1.0" fill="#868e96"/><text x="1140.60" y="248.24" font-size="20" fill="white" opacity="1.0" font-family="sans-serif">Apr</text><rect x="738.10" y="224.74" width="150.00" height="33.75" rx="0" stroke="#343a40" stroke-width="1" opacity="1.0" fill="#868e96"/><text x="794.35" y="250.74" font-size="20" fill="white" opacity="1.0" font-family="sans-serif">Feb</text><rect x="1254.35" y="224.74" width="150.00" height="33.75" rx="0" stroke="#343a40" stroke-width="1" opacity="1.0" fill="#868e96"/><text x="1310.60" y="250.74" font-size="20" fill="white" opacity="1.0" font-family="sans-serif">May</text><rect x="911.85" y="224.74" width="150.00" height="33.75" rx="0" stroke="#343a40" stroke-width="1" opacity="1.0" fill="#868e96"/><text x="968.10" y="250.74" font-size="20" fill="white" opacity="1.0" font-family="sans-serif">Mar</text><rect x="1429.35" y="225.99" width="150.00" height="33.75" rx="0" stroke="#343a40" stroke-width="1" opacity="1.0" fill="#868e96"/><text x="1485.60" y="251.99" font-size="20" fill="white" opacity="1.0" font-family="sans-serif">Jun</text><rect x="568.10" y="177.24" width="495.00" height="33.75" rx="0" stroke="#343a40" stroke-width="1" opacity="1.0" fill="#fab005"/><text x="750.60" y="203.24" font-size="20" fill="#343a40" opacity="1.0" font-family="sans-serif">First Quarter</text><rect x="1084.35" y="177.24" width="495.00" height="33.75" rx="0" stroke="#343a40" stroke-width="1" opacity="1.0" fill="#fab005"/><text x="1266.85" y="203.24" font-size="20" fill="#343a40" opacity="1.0" font-family="sans-serif">Second Quarter</text><polyline points="726.85,258.49 726.85,865.99" fill="none" stroke="#495057" stroke-width="1" opacity="0.3" stroke-linecap="round" stroke-linejoin="round"/><polyline points="1073.10,267.24 1073.10,874.74" fill="none" stroke="#495057" stroke-width="1" opacity="0.3" stroke-linecap="round" stroke-linejoin="round"/><polyline points="1245.60,270.99 1245.60,878.49" fill="none" stroke="#495057" stroke-width="1" opacity="0.3" stroke-linecap="round" stroke-linejoin="round"/><polyline points="1420.60,267.24 1420.60,874.74" fill="none" stroke="#495057" stroke-width="1" opacity="0.3" stroke-linecap="round" stroke-linejoin="round"/><polyline points="910.60,272.24 910.60,879.74" fill="none" stroke="#495057" stroke-width="1" opacity="0.3" stroke-linecap="round" stroke-linejoin="round"/><rect x="570.60" y="275.99" width="236.25" height="38.75" rx="0" stroke="#343a40" stroke-width="1" opacity="1.0" fill="#82c91e"/><rect x="731.85" y="334.74" width="236.25" height="38.75" rx="0" stroke="#343a40" stroke-width="1" opacity="1.0" fill="#82c91e"/><rect x="829.35" y="574.74" width="236.25" height="38.75" rx="0" stroke="#343a40" stroke-width="1" opacity="1.0" fill="#82c91e"/><rect x="978.10" y="397.24" width="236.25" height="38.75" rx="0" stroke="#343a40" stroke-width="1" opacity="1.0" fill="#fa5252"/><rect x="1221.85" y="455.99" width="362.50" height="40.00" rx="0" stroke="#c92a2a" stroke-width="1" opacity="1.0" fill="#868e96"/><rect x="1221.85" y="747.24" width="362.50" height="40.00" rx="0" stroke="#343a40" stroke-width="1" opacity="1.0" fill="#868e96"/><rect x="988.10" y="678.49" width="236.25" height="38.75" rx="0" stroke="#343a40" stroke-width="1" opacity="1.0" fill="#82c91e"/><text x="638.10" y="303.24" font-size="20" fill="#343a40" opacity="1.0" font-family="sans-serif">Task Name</text><text x="794.35" y="360.74" font-size="20" fill="#343a40" opacity="1.0" font-family="sans-serif">Task Name</text><text x="1036.85" y="423.24" font-size="20" fill="#343a40" opacity="1.0" font-family="sans-serif">Task Name</text><text x="1346.85" y="485.74" font-size="20" fill="white" opacity="1.0" font-family="sans-serif">Task Name</text><text x="1351.85" y="775.74" font-size="20" fill="white" opacity="1.0" font-family="sans-serif">Task Name</text><text x="896.85" y="603.24" font-size="20" fill="#343a40" opacity="1.0" font-family="sans-serif">Task Name</text><text x="1050.60" y="705.74" font-size="20" fill="#343a40" opacity="1.0" font-family="sans-serif">Task Name</text><polyline points="1033.10,257.36 1033.10,912.24" fill="#be4bdb" stroke="#862e9c" stroke-width="1" opacity="1.0" stroke-linecap="round" stroke-linejoin="round"/><rect x="979.35" y="910.99" width="103.75" height="31.25" rx="0" stroke="#862e9c" stroke-width="1" opacity="1.0" fill="#be4bdb"/><text x="1001.85" y="935.74" font-size="20" fill="white" opacity="1.0" font-family="sans-serif">Today</text><rect x="1685.60" y="302.24" width="31.25" height="31.25" rx="0" stroke="#343a40" stroke-width="1" opacity="1.0" fill="#fa5252"/><text x="1735.60" y="329.49" font-size="20" fill="#343a40" opacity="1.0" font-family="sans-serif">Delayed</text><rect x="1684.97" y="366.62" width="28.75" height="27.50" rx="0" stroke="#343a40" stroke-width="1" opacity="1.0" fill="#82c91e"/><text x="1735.60" y="388.24" font-size="20" fill="#343a40" opacity="1.0" font-family="sans-serif">Done</text><rect x="1681.85" y="424.74" width="31.25" height="31.25" rx="0" stroke="#343a40" stroke-width="1" opacity="1.0" fill="#868e96"/><text x="1735.60" y="449.49" font-size="20" fill="#343a40" opacity="1.0" font-family="sans-serif">Pending</text><rect x="1683.10" y="487.24" width="31.25" height="31.25" rx="0" stroke="#c92a2a" stroke-width="1" opacity="1.0" fill="none"/><text x="1740.60" y="513.24" font-size="20" fill="#343a40" opacity="1.0" font-family="sans-serif">Critical</text></svg>