<svg version="1.1" xmlns="http://www.w3.org/2000/svg" viewBox="0 0 588.363636363636 379.2727272727275" width="588.363636363636" height="379.2727272727275">
  <!-- svg-source:excalidraw -->
  
  <defs>
    
    
  </defs>
  <g stroke-linecap="round" transform="translate(155.99999999999955 131.4545454545455) rotate(0 26.363636363636488 26.363636363636488)"><path d="M4.69 10.7 C4.69 10.7, 4.69 10.7, 4.69 10.7 M4.69 10.7 C4.69 10.7, 4.69 10.7, 4.69 10.7 M3.11 18.61 C5.53 12.79, 11.76 11.09, 15.58 4.27 M3.11 18.61 C8.67 13.72, 11.72 7.38, 15.58 4.27 M0.88 27.27 C8.69 18.23, 12.76 12.67, 23.19 1.61 M0.88 27.27 C9.02 16.4, 17.33 7.71, 23.19 1.61 M2.59 31.4 C8.92 24.53, 14.23 16.88, 28.17 1.97 M2.59 31.4 C9.57 23.96, 15.15 17.35, 28.17 1.97 M3.64 36.29 C14.1 25.03, 25.91 11.11, 32.51 3.08 M3.64 36.29 C15.99 24.23, 26.66 11.15, 32.51 3.08 M5.35 40.42 C16.85 28.97, 26.16 15.06, 37.49 3.44 M5.35 40.42 C14.98 29.14, 26.43 15.86, 37.49 3.44 M7.05 44.56 C20.21 28.42, 34.72 14.08, 41.17 5.31 M7.05 44.56 C17.72 32.83, 26.19 22.21, 41.17 5.31 M10.73 46.43 C22.24 31.14, 34.6 20.29, 43.53 8.69 M10.73 46.43 C22.74 32.62, 34.26 19.07, 43.53 8.69 M15.06 47.54 C25.67 34.34, 38.83 21.07, 46.55 11.31 M15.06 47.54 C26.65 33.95, 37.02 21.93, 46.55 11.31 M18.73 49.41 C27.28 38.8, 38.48 25.59, 48.91 14.69 M18.73 49.41 C27.21 39.9, 35.87 28.67, 48.91 14.69 M22.41 51.28 C32.23 37.9, 44.92 27.73, 51.28 18.07 M22.41 51.28 C32.54 39.79, 43.49 27.3, 51.28 18.07 M28.05 50.89 C36.21 43.93, 45.38 33.44, 51.01 24.47 M28.05 50.89 C36.41 40.98, 44.35 31.35, 51.01 24.47 M35.01 48.98 C41.01 43.58, 46.03 33.58, 50.75 30.87 M35.01 48.98 C39.41 44.28, 41.75 39.83, 50.75 30.87" stroke="#fab005" stroke-width="0.5" fill="none"></path><path d="M38.42 3.21 C43.53 5.31, 49.09 11.31, 51.14 16.41 C53.18 21.52, 52.58 28.6, 50.7 33.82 C48.82 39.05, 44.41 44.8, 39.84 47.76 C35.27 50.72, 28.91 52.28, 23.26 51.6 C17.61 50.91, 9.66 47.62, 5.94 43.67 C2.22 39.72, 1.15 33.39, 0.95 27.88 C0.75 22.38, 1.34 15.13, 4.73 10.64 C8.13 6.16, 15.24 1.85, 21.32 0.98 C27.4 0.1, 37.28 4.32, 41.2 5.39 C45.12 6.47, 45.12 7.22, 44.83 7.45 M30.37 1.39 C35.86 1.67, 43.44 3.47, 47.01 7.69 C50.58 11.9, 51.59 20.75, 51.78 26.68 C51.98 32.6, 51.37 38.79, 48.16 43.24 C44.94 47.69, 38.27 52.07, 32.52 53.36 C26.77 54.64, 18.82 53.91, 13.67 50.94 C8.52 47.96, 3.84 40.87, 1.63 35.49 C-0.58 30.12, -1.41 24.11, 0.4 18.7 C2.21 13.28, 7.65 6.15, 12.49 3.01 C17.33 -0.14, 26.79 0.32, 29.44 -0.18 C32.1 -0.68, 28.38 -0.55, 28.42 0.02" stroke="#000000" stroke-width="1" fill="none"></path></g><g stroke-linecap="round" transform="translate(156.909090909091 320.5454545454545) rotate(0 26.363636363636488 26.363636363636488)"><path d="M12.31 2.75 C12.31 2.75, 12.31 2.75, 12.31 2.75 M12.31 2.75 C12.31 2.75, 12.31 2.75, 12.31 2.75 M2.86 19.71 C10.04 10.71, 13.94 4.42, 18.61 1.6 M2.86 19.71 C9.17 12.79, 15.88 5.1, 18.61 1.6 M3.26 25.36 C8.43 19.45, 15.37 11.94, 24.91 0.45 M3.26 25.36 C7.88 20.45, 12.52 14.27, 24.91 0.45 M3.65 31 C8.06 23.84, 15.08 19.68, 29.89 0.81 M3.65 31 C13.43 19.86, 22.91 9.91, 29.89 0.81 M3.39 37.4 C16.3 24.35, 26.83 11.4, 33.57 2.68 M3.39 37.4 C13.03 26.05, 24.75 12.57, 33.57 2.68 M5.75 40.78 C12.89 33.78, 20.93 23.13, 37.24 4.55 M5.75 40.78 C16.72 27.72, 28.87 15.91, 37.24 4.55 M8.77 43.4 C17.14 34.93, 23.79 28.44, 40.92 6.42 M8.77 43.4 C20.01 30.42, 30.94 18.95, 40.92 6.42 M11.14 46.78 C24.39 31.06, 36 18.55, 44.59 8.29 M11.14 46.78 C20.57 34.86, 30.68 25.58, 44.59 8.29 M14.15 49.4 C24.58 40.22, 33.14 30.34, 48.27 10.16 M14.15 49.4 C26.6 35.54, 38.95 21.31, 48.27 10.16 M18.49 50.52 C27.41 42.24, 33.9 32.27, 49.98 14.29 M18.49 50.52 C28.64 38.05, 41.12 26.31, 49.98 14.29 M23.47 50.88 C31.2 39.21, 39.23 31.88, 51.03 19.18 M23.47 50.88 C29.59 42.31, 36.4 35.62, 51.03 19.18 M28.46 51.24 C35.35 44.15, 40.11 37, 52.73 23.32 M28.46 51.24 C33.65 46.02, 38.46 37.69, 52.73 23.32 M32.79 52.35 C42.04 44.28, 49.46 33.15, 54.44 27.45 M32.79 52.35 C38.13 45.42, 45.04 39.13, 54.44 27.45 M44.99 44.41 C46.64 41.21, 50.22 40.31, 51.55 36.87 M44.99 44.41 C47.38 42.1, 50.15 38.93, 51.55 36.87" stroke="#fab005" stroke-width="0.5" fill="none"></path><path d="M29.28 -0.37 C34.67 0.01, 42.78 4.95, 46.76 9.3 C50.74 13.66, 52.97 20.26, 53.17 25.76 C53.38 31.25, 51.41 37.91, 48.01 42.27 C44.61 46.63, 38.52 50.78, 32.78 51.92 C27.03 53.06, 18.62 51.69, 13.53 49.1 C8.44 46.52, 4.39 41.62, 2.23 36.43 C0.07 31.24, -1.06 23.52, 0.57 17.96 C2.2 12.4, 6.66 5.9, 12.03 3.07 C17.4 0.24, 28.69 1.02, 32.78 0.98 C36.86 0.94, 36.44 2.28, 36.54 2.83 M27.44 -0.5 C32.53 -0.69, 39.91 3.29, 43.96 7.32 C48 11.36, 51.19 17.89, 51.7 23.7 C52.21 29.51, 50.02 37.53, 47.02 42.17 C44.03 46.81, 38.67 50.02, 33.74 51.54 C28.8 53.07, 22.72 53.73, 17.43 51.34 C12.13 48.95, 4.58 42.2, 1.96 37.2 C-0.66 32.21, 0.15 26.9, 1.71 21.35 C3.28 15.79, 7.05 7.19, 11.36 3.88 C15.66 0.58, 24.76 2.19, 27.54 1.51 C30.33 0.83, 28.32 -0.39, 28.08 -0.21" stroke="#000000" stroke-width="1" fill="none"></path></g><g stroke-linecap="round" transform="translate(355.9999999999991 133.27272727272725) rotate(0 26.363636363636488 26.363636363636488)"><path d="M4.77 12.1 C4.77 12.1, 4.77 12.1, 4.77 12.1 M4.77 12.1 C4.77 12.1, 4.77 12.1, 4.77 12.1 M1.23 22.27 C9.68 15.52, 13.96 8.39, 19.6 1.14 M1.23 22.27 C6.43 16.33, 12.56 9.19, 19.6 1.14 M0.97 28.67 C8.5 18.25, 18.05 11.56, 23.27 3.01 M0.97 28.67 C5.52 22.61, 12.21 17, 23.27 3.01 M2.67 32.8 C7.34 26.4, 12.29 22.41, 27.6 4.12 M2.67 32.8 C12.56 22.21, 22.31 10.74, 27.6 4.12 M5.04 36.18 C12.83 25.5, 23.59 13.8, 32.59 4.48 M5.04 36.18 C15.9 24.3, 25.58 11.55, 32.59 4.48 M6.74 40.31 C17.99 28.29, 25.82 17.61, 38.23 4.09 M6.74 40.31 C17.61 28.08, 30 14.88, 38.23 4.09 M8.45 44.45 C21.19 31.79, 31.82 19.04, 41.25 6.71 M8.45 44.45 C20 33.38, 29.59 21.13, 41.25 6.71 M11.47 47.07 C18.17 37.43, 25.4 32.54, 44.27 9.33 M11.47 47.07 C24.41 32.56, 35.09 18.21, 44.27 9.33 M15.14 48.94 C25.32 34.98, 35.95 22.12, 47.29 11.96 M15.14 48.94 C24.57 38.16, 34.84 26.22, 47.29 11.96 M18.82 50.81 C26.13 40.26, 38.26 28.87, 50.31 14.58 M18.82 50.81 C24.74 44.44, 31.58 37.08, 50.31 14.58 M22.49 52.68 C28.23 43.45, 35.66 37.47, 53.33 17.21 M22.49 52.68 C35.18 38.33, 46.13 25.7, 53.33 17.21 M26.17 54.55 C34.97 41.75, 49.43 30.52, 53.72 22.85 M26.17 54.55 C35.76 44.13, 43.78 33.32, 53.72 22.85 M32.47 53.4 C38.76 47.74, 45.64 38.63, 54.12 28.49 M32.47 53.4 C38.48 46.85, 44.32 38.89, 54.12 28.49 M39.42 51.49 C41.55 47.54, 46.46 44.29, 53.2 35.65 M39.42 51.49 C43.92 46.64, 46.36 43.15, 53.2 35.65" stroke="#fab005" stroke-width="0.5" fill="none"></path><path d="M20.2 0.74 C25.2 -0.73, 32.12 0.95, 37.18 3.21 C42.24 5.47, 48.24 9.24, 50.57 14.29 C52.9 19.35, 52.51 27.88, 51.14 33.55 C49.77 39.23, 46.96 45.19, 42.35 48.36 C37.73 51.52, 29.01 53.02, 23.44 52.55 C17.87 52.07, 12.92 49.6, 8.95 45.51 C4.98 41.43, 0.36 33.54, -0.38 28.02 C-1.12 22.51, 0.49 16.91, 4.51 12.4 C8.52 7.89, 20.13 3.03, 23.72 0.97 C27.3 -1.09, 26.05 -0.41, 26.03 0.04 M21.64 -0.77 C26.76 -1.92, 35.76 -0.65, 40.91 2.79 C46.05 6.23, 50.74 14.32, 52.52 19.87 C54.3 25.43, 53.78 31.39, 51.58 36.14 C49.38 40.88, 44.64 45.81, 39.33 48.34 C34.01 50.88, 25.12 52.13, 19.7 51.34 C14.28 50.54, 10.15 47.84, 6.81 43.56 C3.47 39.28, -0.37 31.26, -0.32 25.63 C-0.26 20, 3.38 14.19, 7.13 9.8 C10.89 5.41, 19.67 0.61, 22.22 -0.73 C24.77 -2.08, 22.25 1.11, 22.42 1.72" stroke="#000000" stroke-width="1" fill="none"></path></g><g stroke-linecap="round" transform="translate(354.181818181818 319.6363636363636) rotate(0 26.363636363636488 26.363636363636488)"><path d="M10.57 6.54 C10.57 6.54, 10.57 6.54, 10.57 6.54 M10.57 6.54 C10.57 6.54, 10.57 6.54, 10.57 6.54 M1.12 23.5 C7.51 16.69, 12.43 11.3, 18.18 3.88 M1.12 23.5 C7.03 17.09, 11.25 10.97, 18.18 3.88 M2.17 28.39 C11.9 19.15, 19.36 9.37, 25.79 1.22 M2.17 28.39 C9.76 18.9, 17.35 11.88, 25.79 1.22 M2.57 34.03 C11.79 22.16, 23.8 8.5, 30.12 2.34 M2.57 34.03 C9.35 26.98, 14.72 20.67, 30.12 2.34 M3.62 38.92 C12.66 29.13, 21.2 20, 33.8 4.21 M3.62 38.92 C12.08 29.22, 19.55 19.87, 33.8 4.21 M5.98 42.3 C16.33 28.52, 28.24 15.95, 38.13 5.32 M5.98 42.3 C13.42 33.01, 22.85 22.19, 38.13 5.32 M9 44.93 C19.76 29.81, 33.34 14.72, 42.46 6.43 M9 44.93 C16.67 37.56, 21.52 30.07, 42.46 6.43 M12.02 47.55 C22.17 39.55, 26.59 26.99, 45.48 9.06 M12.02 47.55 C20.97 36.09, 30.65 26.9, 45.48 9.06 M15.04 50.17 C25.68 37.1, 35.82 25.55, 47.84 12.44 M15.04 50.17 C26.19 36.89, 37.69 23.62, 47.84 12.44 M19.37 51.29 C28.97 38.6, 42.78 25.18, 49.55 16.57 M19.37 51.29 C27.17 41.23, 35.15 32.85, 49.55 16.57 M24.36 51.65 C30.32 47.06, 35.56 38.76, 51.91 19.95 M24.36 51.65 C30.67 43.41, 39.19 35.04, 51.91 19.95 M29.34 52.01 C33.81 45.21, 38.37 41.54, 52.31 25.59 M29.34 52.01 C37.73 43.9, 45.43 33.14, 52.31 25.59 M34.33 52.37 C37.37 47.8, 42.43 40.83, 50.08 34.26 M34.33 52.37 C39.54 47.63, 43.28 42.48, 50.08 34.26" stroke="#fab005" stroke-width="0.5" fill="none"></path><path d="M26.24 0.87 C31.57 0.86, 40.06 3.29, 44.51 6.96 C48.95 10.64, 52.28 17.53, 52.91 22.92 C53.55 28.31, 51.32 34.51, 48.32 39.31 C45.31 44.12, 40.26 49.89, 34.89 51.75 C29.52 53.62, 21.35 52.52, 16.1 50.5 C10.85 48.47, 5.91 44.6, 3.39 39.6 C0.88 34.6, -0.23 26.08, 1.02 20.51 C2.26 14.95, 5.84 9.38, 10.87 6.2 C15.89 3.01, 27.01 1.93, 31.17 1.43 C35.33 0.93, 35.84 2.96, 35.82 3.19 M34.3 1.73 C39.73 2.85, 46.62 6.64, 49.52 11.37 C52.42 16.1, 52.36 24.62, 51.72 30.12 C51.07 35.61, 49.75 40.65, 45.65 44.34 C41.55 48.03, 33.17 51.71, 27.14 52.29 C21.11 52.87, 13.77 50.92, 9.47 47.82 C5.17 44.73, 2.73 39.06, 1.34 33.72 C-0.04 28.38, -1.18 21.03, 1.17 15.76 C3.51 10.5, 10.09 4.65, 15.41 2.14 C20.73 -0.36, 29.92 0.6, 33.07 0.72 C36.22 0.85, 34.56 2.49, 34.31 2.9" stroke="#000000" stroke-width="1" fill="none"></path></g><g stroke-linecap="round" transform="translate(6 6) rotate(0 26.363636363636488 26.363636363636488)"><path d="M9.12 6.6 C9.12 6.6, 9.12 6.6, 9.12 6.6 M9.12 6.6 C9.12 6.6, 9.12 6.6, 9.12 6.6 M2.3 20.55 C6.06 13.58, 13.82 6.57, 16.73 3.94 M2.3 20.55 C5.82 16.11, 9.29 11.55, 16.73 3.94 M2.69 26.19 C11.95 16.05, 15.18 10.83, 24.34 1.29 M2.69 26.19 C8.79 20.13, 13.32 12.67, 24.34 1.29 M3.74 31.08 C10.22 23.72, 18.03 17.82, 28.02 3.16 M3.74 31.08 C7.92 26.28, 14.52 20.47, 28.02 3.16 M5.45 35.21 C13.28 29.37, 17.64 20.29, 32.35 4.27 M5.45 35.21 C15.19 22.8, 26.49 10.25, 32.35 4.27 M5.85 40.86 C14.41 30.95, 20.27 23.25, 36.68 5.39 M5.85 40.86 C14.16 30.25, 23.02 20.04, 36.68 5.39 M8.86 43.48 C21.86 29.76, 31.74 15.61, 41.67 5.75 M8.86 43.48 C15.24 35.48, 22.38 28.89, 41.67 5.75 M12.54 45.35 C22.77 35.5, 29.79 24.23, 44.03 9.12 M12.54 45.35 C24.8 31.03, 37.53 16.12, 44.03 9.12 M15.56 47.97 C24.39 39.69, 31.76 32.64, 46.39 12.5 M15.56 47.97 C27.7 35.6, 37.89 22.18, 46.39 12.5 M18.58 50.6 C25.02 42.73, 33.53 35.92, 48.76 15.88 M18.58 50.6 C29.28 38.64, 38.75 27.13, 48.76 15.88 M22.25 52.47 C30.33 44.04, 36.03 35.54, 51.12 19.26 M22.25 52.47 C27.21 45.97, 33.86 38.37, 51.12 19.26 M27.24 52.83 C37.7 40.9, 45.98 29.29, 53.48 22.64 M27.24 52.83 C37.02 42.66, 47.06 31.58, 53.48 22.64 M32.23 53.19 C37.58 45.5, 43.29 36.85, 52.56 29.79 M32.23 53.19 C36.83 47.9, 40.96 41.96, 52.56 29.79" stroke="#fab005" stroke-width="0.5" fill="none"></path><path d="M25.39 0.98 C30.64 0.31, 36.82 1.63, 41.23 4.94 C45.64 8.25, 50.42 15.24, 51.84 20.85 C53.26 26.46, 52.13 33.56, 49.73 38.58 C47.33 43.61, 42.42 48.99, 37.43 51.01 C32.44 53.03, 25.23 52.46, 19.79 50.7 C14.36 48.94, 8.04 44.86, 4.81 40.45 C1.57 36.04, -0.3 29.86, 0.39 24.25 C1.08 18.65, 4.13 10.77, 8.95 6.8 C13.78 2.83, 25.44 1.35, 29.33 0.42 C33.22 -0.5, 32.35 0.87, 32.29 1.23 M24.52 1.01 C29.94 0.48, 39.35 2.04, 43.9 5.27 C48.45 8.5, 50.72 14.65, 51.82 20.39 C52.93 26.13, 53.06 34.49, 50.54 39.71 C48.03 44.93, 42.07 49.83, 36.74 51.7 C31.42 53.57, 23.9 52.83, 18.59 50.91 C13.29 48.99, 7.86 44.88, 4.92 40.18 C1.97 35.49, 0.19 28.55, 0.93 22.74 C1.67 16.93, 5.12 8.88, 9.35 5.31 C13.58 1.74, 23.3 2.1, 26.31 1.32 C29.31 0.54, 27.29 0.62, 27.4 0.63" stroke="#000000" stroke-width="1" fill="none"></path></g><g stroke-linecap="round" transform="translate(529.6363636363631 213.27272727272725) rotate(0 26.363636363636488 26.363636363636488)"><path d="M2.07 15.05 C2.07 15.05, 2.07 15.05, 2.07 15.05 M2.07 15.05 C2.07 15.05, 2.07 15.05, 2.07 15.05 M1.81 21.45 C5.87 12.65, 13.07 9.39, 17.56 3.34 M1.81 21.45 C7.91 15.83, 12.43 8.8, 17.56 3.34 M1.55 27.85 C6.99 20.63, 15.83 14, 23.86 2.19 M1.55 27.85 C6.72 21.56, 12.71 15.1, 23.86 2.19 M1.95 33.49 C11.33 23.5, 17.64 16.29, 29.5 1.79 M1.95 33.49 C9.16 25.35, 17.11 15.1, 29.5 1.79 M4.31 36.87 C11.92 27.62, 19.04 19.64, 34.49 2.15 M4.31 36.87 C15.33 25.16, 23.37 13.77, 34.49 2.15 M6.67 40.25 C14.79 30.97, 25.97 20.9, 38.16 4.02 M6.67 40.25 C17.07 27.58, 26.47 17.37, 38.16 4.02 M9.03 43.63 C20.04 29.16, 33.47 14.93, 41.18 6.65 M9.03 43.63 C18.01 33.22, 26.23 23.35, 41.18 6.65 M12.05 46.25 C21.03 32.99, 33.63 24.08, 44.86 8.52 M12.05 46.25 C19.63 37.64, 28.74 26.01, 44.86 8.52 M15.07 48.88 C28.41 34.27, 37.53 22.58, 47.87 11.14 M15.07 48.88 C25.04 38.04, 33.49 28.29, 47.87 11.14 M19.4 49.99 C30.17 35.34, 42.42 23.61, 49.58 15.28 M19.4 49.99 C27.49 41.19, 36.85 30.79, 49.58 15.28 M23.73 51.11 C30.73 39.73, 40.93 32.67, 51.29 19.41 M23.73 51.11 C32.43 42.69, 40.21 32.15, 51.29 19.41 M28.06 52.22 C36.82 44.34, 42.82 36.39, 52.34 24.3 M28.06 52.22 C37.22 42.35, 46.05 32.47, 52.34 24.3 M35.02 50.32 C41.9 44.97, 45.58 38.91, 52.08 30.7 M35.02 50.32 C40.9 44.22, 47.45 36.7, 52.08 30.7 M43.94 46.15 C45.38 44.46, 46 44.23, 47.88 41.62 M43.94 46.15 C45.58 44.61, 47.29 42.65, 47.88 41.62" stroke="#fab005" stroke-width="0.5" fill="none"></path><path d="M33.31 0.92 C38.58 1.95, 44.71 6.67, 47.97 11.05 C51.22 15.44, 53.22 21.51, 52.85 27.24 C52.47 32.96, 49.47 41.17, 45.72 45.4 C41.96 49.63, 35.84 52.28, 30.3 52.63 C24.76 52.98, 17.27 50.68, 12.47 47.49 C7.68 44.31, 3.26 38.94, 1.53 33.53 C-0.2 28.12, -0.08 20.02, 2.09 15.03 C4.27 10.04, 8.42 5.58, 14.59 3.58 C20.77 1.58, 34.34 2.37, 39.12 3.03 C43.91 3.7, 43.69 7.33, 43.3 7.57 M18.39 0.72 C23.08 -1.61, 29.52 -2.07, 34.56 -0.02 C39.6 2.02, 45.79 8, 48.63 12.97 C51.47 17.95, 52.6 24.17, 51.61 29.82 C50.61 35.47, 46.86 43.13, 42.67 46.88 C38.48 50.63, 32.04 52.51, 26.48 52.31 C20.91 52.12, 13.55 49.4, 9.29 45.7 C5.03 42, 1.96 35.23, 0.91 30.1 C-0.15 24.97, 0.53 19.9, 2.96 14.92 C5.4 9.94, 13.03 2.43, 15.53 0.22 C18.03 -1.98, 17.61 0.82, 17.96 1.68" stroke="#000000" stroke-width="1" fill="none"></path></g><g stroke-linecap="round"><g transform="translate(52.36363636363603 49.63636363636374) rotate(0 55 45.45454545454544)"><path d="M-1.18 0.14 C17.19 15.56, 91.08 77.12, 109.68 92.06 M0.4 -0.83 C18.64 14.32, 90.32 75.32, 108.56 90.54" stroke="#000000" stroke-width="1" fill="none"></path></g></g><mask></mask><g stroke-linecap="round"><g transform="translate(208.72727272727252 157.81818181818198) rotate(0 73.63636363636351 0.4545454545453822)"><path d="M-0.48 0.15 C24.44 0.31, 123.74 0.76, 148.37 0.79 M1.47 -0.82 C26.42 -0.45, 123.82 1.9, 148 2.27" stroke="#000000" stroke-width="1" fill="none"></path></g></g><mask></mask><g stroke-linecap="round"><g transform="translate(407.81818181818153 166.909090909091) rotate(0 63.181818181818244 28.636363636363626)"><path d="M-0.84 0.59 C20.22 10.21, 105.91 47.53, 127.16 56.8 M0.92 -0.15 C21.82 9.71, 105.77 48.57, 126.63 58.08" stroke="#000000" stroke-width="1" fill="none"></path></g></g><mask></mask><g stroke-linecap="round"><g transform="translate(183.27272727272702 184.18181818181824) rotate(0 0 68.63636363636363)"><path d="M-0.13 -0.42 C-0.29 22.53, -0.8 114.99, -0.66 138.03 M-1.66 -1.68 C-1.45 20.9, 1.38 113.4, 1.71 136.31" stroke="#000000" stroke-width="1" fill="none"></path></g></g><mask></mask><g stroke-linecap="round"><g transform="translate(208.72727272727252 349.63636363636374) rotate(0 73.18181818181824 0.45454545454543904)"><path d="M1.15 -0.71 C25.4 -0.54, 121.2 1.03, 145.57 1.48 M0.3 1.54 C24.92 1.3, 123.4 -0.12, 147.86 -0.34" stroke="#000000" stroke-width="1" fill="none"></path></g></g><mask></mask><g stroke-linecap="round"><g transform="translate(383.272727272727 184.18181818181824) rotate(0 0.4545454545454959 69.09090909090912)"><path d="M0.37 -0.72 C0.39 22.26, 0.63 113.88, 0.57 137.05 M-0.89 1.52 C-1.1 24.67, -1.11 114.96, -0.56 138" stroke="#000000" stroke-width="1" fill="none"></path></g></g><mask></mask><g stroke-linecap="round"><g transform="translate(544.1682604813777 261.56221063069495) rotate(0 -68.6295847861436 37.67344013919802)"><path d="M-0.01 0.76 C-22.78 13.37, -113.65 63.25, -136.7 75.62 M-1.48 0.11 C-24.34 12.35, -114.94 60.98, -137.35 73.64" stroke="#000000" stroke-width="1" fill="none"></path></g></g><mask></mask></svg>