<svg xmlns="http://www.w3.org/2000/svg" viewBox="256.19 65.16 1014.62 638.69" width="1015" height="639"><text x="351.62" y="214.60" font-size="24.013497016931144" fill="#495057" opacity="1.0" font-family="sans-serif">Bug</text><ellipse cx="292.57" cy="198.84" rx="9.46" ry="6.55" stroke="#000000" stroke-width="2" opacity="1.0" fill="#c92a2a"/><ellipse cx="292.59" cy="217.80" rx="14.66" ry="12.87" stroke="#000000" stroke-width="2" opacity="1.0" fill="#c92a2a" transform="rotate(270.93 292.59 217.80)"/><polyline points="304.64,210.40 310.96,204.08 315.39,208.93" fill="#ced4da" stroke="#000000" stroke-width="2" opacity="1.0" stroke-linecap="round" stroke-linejoin="round"/><polyline points="305.80,219.62 312.12,213.30 316.55,218.14" fill="#ced4da" stroke="#000000" stroke-width="2" opacity="1.0" stroke-linecap="round" stroke-linejoin="round"/><polyline points="299.48,229.94 305.80,223.62 310.23,228.46" fill="#ced4da" stroke="#000000" stroke-width="2" opacity="1.0" stroke-linecap="round" stroke-linejoin="round"/><polyline points="280.84,211.82 275.15,205.92 271.57,211.82" fill="#ced4da" stroke="#000000" stroke-width="2" opacity="1.0" stroke-linecap="round" stroke-linejoin="round"/><polyline points="280.42,221.72 276.21,214.56 271.15,219.40" fill="#ced4da" stroke="#000000" stroke-width="2" opacity="1.0" stroke-linecap="round" stroke-linejoin="round"/><polyline points="283.37,228.25 278.31,223.20 273.47,226.99" fill="#ced4da" stroke="#000000" stroke-width="2" opacity="1.0" stroke-linecap="round" stroke-linejoin="round"/><polyline points="297.06,192.23 299.59,187.39 303.80,190.76" fill="#ced4da" stroke="#000000" stroke-width="2" opacity="1.0" stroke-linecap="round" stroke-linejoin="round"/><polyline points="287.37,193.28 285.26,188.65 280.84,189.07" fill="#ced4da" stroke="#000000" stroke-width="2" opacity="1.0" stroke-linecap="round" stroke-linejoin="round"/><text x="803.04" y="115.92" font-size="44.76229461122525" fill="#1864ab" opacity="1.0" font-family="sans-serif">Scrum board</text><text x="600.18" y="196.74" font-size="35.04490412396706" fill="#000000" opacity="1.0" font-family="sans-serif">Backlog</text><text x="780.63" y="176.21" font-size="29.157360231140597" fill="#000000" opacity="1.0" font-family="sans-serif">Spring 
backlog</text><text x="1136.60" y="196.94" font-size="29.157360231140597" fill="#000000" opacity="1.0" font-family="sans-serif">Done</text><text x="920.37" y="190.62" font-size="31.327781709020442" fill="#1864ab" opacity="1.0" font-family="sans-serif">In progress</text><rect x="595.76" y="281.46" width="46.36" height="49.56" rx="0" stroke="#e67700" stroke-width="1" opacity="1.0" fill="#fab005"/><rect x="595.76" y="343.61" width="46.36" height="49.56" rx="0" stroke="#1864ab" stroke-width="1" opacity="1.0" fill="#15aabf"/><rect x="593.99" y="499.57" width="46.36" height="49.56" rx="0" stroke="#84142d" stroke-width="1" opacity="1.0" fill="#c92a2a"/><rect x="591.70" y="566.38" width="50.93" height="54.13" rx="0" stroke="#e9d349" stroke-width="2" opacity="1.0" fill="#ffff1a"/><rect x="779.65" y="305.56" width="46.36" height="49.56" rx="0" stroke="#1864ab" stroke-width="1" opacity="1.0" fill="#15aabf"/><rect x="779.65" y="376.61" width="46.36" height="49.56" rx="0" stroke="#1864ab" stroke-width="1" opacity="1.0" fill="#15aabf"/><rect x="777.87" y="447.66" width="46.36" height="49.56" rx="0" stroke="#84142d" stroke-width="1" opacity="1.0" fill="#c92a2a"/><rect x="947.98" y="303.17" width="46.36" height="49.56" rx="0" stroke="#1864ab" stroke-width="1" opacity="1.0" fill="#15aabf"/><rect x="1190.70" y="291.05" width="46.36" height="49.56" rx="0" stroke="#1864ab" stroke-width="1" opacity="1.0" fill="#15aabf"/><rect x="1183.85" y="357.96" width="46.36" height="49.56" rx="0" stroke="#1864ab" stroke-width="1" opacity="1.0" fill="#15aabf"/><rect x="1191.53" y="505.93" width="46.36" height="49.56" rx="0" stroke="#84142d" stroke-width="1" opacity="1.0" fill="#c92a2a"/><rect x="941.13" y="376.26" width="50.93" height="54.13" rx="0" stroke="#e9d349" stroke-width="2" opacity="1.0" fill="#ffff1a"/><rect x="1191.53" y="570.29" width="50.93" height="54.13" rx="0" stroke="#e9d349" stroke-width="2" opacity="1.0" fill="#ffff1a"/><rect x="599.48" y="421.96" width="46.36" height="49.56" rx="0" stroke="#1864ab" stroke-width="1" opacity="1.0" fill="#15aabf"/><rect x="1186.95" y="432.60" width="46.36" height="49.56" rx="0" stroke="#1864ab" stroke-width="1" opacity="1.0" fill="#15aabf"/><rect x="778.08" y="521.85" width="46.36" height="49.56" rx="0" stroke="#1864ab" stroke-width="1" opacity="1.0" fill="#15aabf"/><rect x="942.08" y="457.85" width="46.36" height="49.56" rx="0" stroke="#1864ab" stroke-width="1" opacity="1.0" fill="#15aabf"/><ellipse cx="978.27" cy="461.11" rx="6.24" ry="4.32" stroke="#000000" stroke-width="2" opacity="1.0" fill="#c92a2a"/><ellipse cx="978.28" cy="473.61" rx="9.66" ry="8.48" stroke="#000000" stroke-width="2" opacity="1.0" fill="#c92a2a" transform="rotate(270.93 978.28 473.61)"/><polyline points="986.23,469.39 990.40,465.22 993.32,468.42" fill="#ced4da" stroke="#000000" stroke-width="2" opacity="1.0" stroke-linecap="round" stroke-linejoin="round"/><polyline points="987.71,474.09 991.88,469.93 994.79,473.12" fill="#ced4da" stroke="#000000" stroke-width="2" opacity="1.0" stroke-linecap="round" stroke-linejoin="round"/><polyline points="982.83,481.61 987.00,477.45 989.91,480.64" fill="#ced4da" stroke="#000000" stroke-width="2" opacity="1.0" stroke-linecap="round" stroke-linejoin="round"/><polyline points="970.54,469.67 966.79,465.78 964.43,469.67" fill="#ced4da" stroke="#000000" stroke-width="2" opacity="1.0" stroke-linecap="round" stroke-linejoin="round"/><polyline points="970.26,476.20 967.48,471.47 964.15,474.67" fill="#ced4da" stroke="#000000" stroke-width="2" opacity="1.0" stroke-linecap="round" stroke-linejoin="round"/><polyline points="972.20,480.50 968.87,477.17 965.68,479.67" fill="#ced4da" stroke="#000000" stroke-width="2" opacity="1.0" stroke-linecap="round" stroke-linejoin="round"/><polyline points="981.23,456.75 982.90,453.56 985.68,455.78" fill="#ced4da" stroke="#000000" stroke-width="2" opacity="1.0" stroke-linecap="round" stroke-linejoin="round"/><polyline points="974.84,457.45 973.45,454.39 970.54,454.67" fill="#ced4da" stroke="#000000" stroke-width="2" opacity="1.0" stroke-linecap="round" stroke-linejoin="round"/><rect x="1121.66" y="288.28" width="46.36" height="49.56" rx="0" stroke="#1864ab" stroke-width="1" opacity="1.0" fill="#15aabf"/><rect x="1114.81" y="355.19" width="46.36" height="49.56" rx="0" stroke="#1864ab" stroke-width="1" opacity="1.0" fill="#15aabf"/><rect x="1122.49" y="503.16" width="46.36" height="49.56" rx="0" stroke="#84142d" stroke-width="1" opacity="1.0" fill="#c92a2a"/><rect x="1122.49" y="567.52" width="50.93" height="54.13" rx="0" stroke="#e9d349" stroke-width="2" opacity="1.0" fill="#ffff1a"/><rect x="1117.90" y="429.83" width="46.36" height="49.56" rx="0" stroke="#1864ab" stroke-width="1" opacity="1.0" fill="#15aabf"/><rect x="1006.75" y="303.33" width="46.36" height="49.56" rx="0" stroke="#1864ab" stroke-width="1" opacity="1.0" fill="#15aabf"/><ellipse cx="1042.95" cy="306.59" rx="6.24" ry="4.32" stroke="#000000" stroke-width="2" opacity="1.0" fill="#c92a2a"/><ellipse cx="1042.96" cy="319.09" rx="9.66" ry="8.48" stroke="#000000" stroke-width="2" opacity="1.0" fill="#c92a2a" transform="rotate(270.93 1042.96 319.09)"/><polyline points="1050.91,314.87 1055.07,310.70 1057.99,313.90" fill="#ced4da" stroke="#000000" stroke-width="2" opacity="1.0" stroke-linecap="round" stroke-linejoin="round"/><polyline points="1052.38,319.57 1056.55,315.41 1059.47,318.60" fill="#ced4da" stroke="#000000" stroke-width="2" opacity="1.0" stroke-linecap="round" stroke-linejoin="round"/><polyline points="1047.50,327.09 1051.67,322.93 1054.59,326.12" fill="#ced4da" stroke="#000000" stroke-width="2" opacity="1.0" stroke-linecap="round" stroke-linejoin="round"/><polyline points="1035.21,315.15 1031.46,311.26 1029.10,315.15" fill="#ced4da" stroke="#000000" stroke-width="2" opacity="1.0" stroke-linecap="round" stroke-linejoin="round"/><polyline points="1034.93,321.68 1032.16,316.95 1028.82,320.15" fill="#ced4da" stroke="#000000" stroke-width="2" opacity="1.0" stroke-linecap="round" stroke-linejoin="round"/><polyline points="1036.88,325.98 1033.54,322.65 1030.35,325.15" fill="#ced4da" stroke="#000000" stroke-width="2" opacity="1.0" stroke-linecap="round" stroke-linejoin="round"/><polyline points="1045.91,302.23 1047.57,299.04 1050.35,301.26" fill="#ced4da" stroke="#000000" stroke-width="2" opacity="1.0" stroke-linecap="round" stroke-linejoin="round"/><polyline points="1039.52,302.93 1038.13,299.87 1035.21,300.15" fill="#ced4da" stroke="#000000" stroke-width="2" opacity="1.0" stroke-linecap="round" stroke-linejoin="round"/><rect x="1007.75" y="379.33" width="46.36" height="49.56" rx="0" stroke="#1864ab" stroke-width="1" opacity="1.0" fill="#15aabf"/><ellipse cx="1043.95" cy="382.59" rx="6.24" ry="4.32" stroke="#000000" stroke-width="2" opacity="1.0" fill="#c92a2a"/><ellipse cx="1043.96" cy="395.09" rx="9.66" ry="8.48" stroke="#000000" stroke-width="2" opacity="1.0" fill="#c92a2a" transform="rotate(270.93 1043.96 395.09)"/><polyline points="1051.91,390.87 1056.07,386.70 1058.99,389.90" fill="#ced4da" stroke="#000000" stroke-width="2" opacity="1.0" stroke-linecap="round" stroke-linejoin="round"/><polyline points="1053.38,395.57 1057.55,391.41 1060.47,394.60" fill="#ced4da" stroke="#000000" stroke-width="2" opacity="1.0" stroke-linecap="round" stroke-linejoin="round"/><polyline points="1048.50,403.09 1052.67,398.93 1055.59,402.12" fill="#ced4da" stroke="#000000" stroke-width="2" opacity="1.0" stroke-linecap="round" stroke-linejoin="round"/><polyline points="1036.21,391.15 1032.46,387.26 1030.10,391.15" fill="#ced4da" stroke="#000000" stroke-width="2" opacity="1.0" stroke-linecap="round" stroke-linejoin="round"/><polyline points="1035.93,397.68 1033.16,392.95 1029.82,396.15" fill="#ced4da" stroke="#000000" stroke-width="2" opacity="1.0" stroke-linecap="round" stroke-linejoin="round"/><polyline points="1037.88,401.98 1034.54,398.65 1031.35,401.15" fill="#ced4da" stroke="#000000" stroke-width="2" opacity="1.0" stroke-linecap="round" stroke-linejoin="round"/><polyline points="1046.91,378.23 1048.57,375.04 1051.35,377.26" fill="#ced4da" stroke="#000000" stroke-width="2" opacity="1.0" stroke-linecap="round" stroke-linejoin="round"/><polyline points="1040.52,378.93 1039.13,375.87 1036.21,376.15" fill="#ced4da" stroke="#000000" stroke-width="2" opacity="1.0" stroke-linecap="round" stroke-linejoin="round"/><rect x="1007.93" y="450.18" width="46.36" height="49.56" rx="0" stroke="#84142d" stroke-width="1" opacity="1.0" fill="#c92a2a"/><rect x="832.93" y="304.18" width="46.36" height="49.56" rx="0" stroke="#1864ab" stroke-width="1" opacity="1.0" fill="#15aabf"/><rect x="832.93" y="378.18" width="46.36" height="49.56" rx="0" stroke="#84142d" stroke-width="1" opacity="1.0" fill="#c92a2a"/><rect x="832.93" y="446.18" width="46.36" height="49.56" rx="0" stroke="#1864ab" stroke-width="1" opacity="1.0" fill="#15aabf"/><rect x="276.12" y="369.53" width="44.01" height="47.04" rx="0" stroke="#e67700" stroke-width="1" opacity="1.0" fill="none"/><text x="370.13" y="411.51" font-size="23.844697551811258" fill="#495057" opacity="1.0" font-family="sans-serif">Epic</text><rect x="273.64" y="462.24" width="44.01" height="47.04" rx="0" stroke="#1864ab" stroke-width="1" opacity="1.0" fill="none"/><text x="355.58" y="484.90" font-size="24.179336509860274" fill="#495057" opacity="1.0" font-family="sans-serif">User history</text><text x="350.43" y="580.27" font-size="24.280493324953294" fill="#495057" opacity="1.0" font-family="sans-serif">Task</text><text x="357.41" y="320.13" font-size="24.037688391703753" fill="#495057" opacity="1.0" font-family="sans-serif">Architecture</text><rect x="265.61" y="557.51" width="48.34" height="51.38" rx="0" stroke="#e9d349" stroke-width="2" opacity="1.0" fill="#ffff1a"/><rect x="280.66" y="274.79" width="44.01" height="47.04" rx="0" stroke="#c92a2a" stroke-width="1" opacity="1.0" fill="none"/><rect x="263.57" y="287.98" width="44.01" height="47.04" rx="0" stroke="#84142d" stroke-width="1" opacity="1.0" fill="#c92a2a"/><rect x="262.19" y="381.79" width="44.01" height="47.04" rx="0" stroke="#e67700" stroke-width="1" opacity="1.0" fill="#fab005"/><rect x="263.57" y="477.95" width="44.01" height="47.04" rx="0" stroke="#1864ab" stroke-width="1" opacity="1.0" fill="#15aabf"/><polyline points="584.81,242.84 1264.81,242.84" fill="none" stroke="#000000" stroke-width="4" opacity="1.0" stroke-linecap="round" stroke-linejoin="round"/><polyline points="744.81,157.84 744.81,697.84" fill="none" stroke="#000000" stroke-width="4" opacity="1.0" stroke-linecap="round" stroke-linejoin="round"/><polyline points="904.81,157.84 904.81,697.84" fill="none" stroke="#000000" stroke-width="4" opacity="1.0" stroke-linecap="round" stroke-linejoin="round"/><polyline points="1084.81,157.84 1084.81,697.84" fill="none" stroke="#000000" stroke-width="4" opacity="1.0" stroke-linecap="round" stroke-linejoin="round"/><rect x="662.57" y="285.99" width="46.36" height="49.56" rx="0" stroke="#1864ab" stroke-width="1" opacity="1.0" fill="#15aabf"/><ellipse cx="698.77" cy="289.25" rx="6.24" ry="4.32" stroke="#000000" stroke-width="2" opacity="1.0" fill="#c92a2a"/><ellipse cx="698.78" cy="301.75" rx="9.66" ry="8.48" stroke="#000000" stroke-width="2" opacity="1.0" fill="#c92a2a" transform="rotate(270.93 698.78 301.75)"/><polyline points="706.73,297.53 710.89,293.36 713.81,296.56" fill="#ced4da" stroke="#000000" stroke-width="2" opacity="1.0" stroke-linecap="round" stroke-linejoin="round"/><polyline points="708.20,302.23 712.37,298.06 715.29,301.26" fill="#ced4da" stroke="#000000" stroke-width="2" opacity="1.0" stroke-linecap="round" stroke-linejoin="round"/><polyline points="703.32,309.75 707.49,305.58 710.41,308.78" fill="#ced4da" stroke="#000000" stroke-width="2" opacity="1.0" stroke-linecap="round" stroke-linejoin="round"/><polyline points="691.03,297.81 687.28,293.92 684.92,297.81" fill="#ced4da" stroke="#000000" stroke-width="2" opacity="1.0" stroke-linecap="round" stroke-linejoin="round"/><polyline points="690.75,304.33 687.98,299.61 684.64,302.81" fill="#ced4da" stroke="#000000" stroke-width="2" opacity="1.0" stroke-linecap="round" stroke-linejoin="round"/><polyline points="692.70,308.64 689.36,305.31 686.17,307.81" fill="#ced4da" stroke="#000000" stroke-width="2" opacity="1.0" stroke-linecap="round" stroke-linejoin="round"/><polyline points="701.73,284.89 703.39,281.70 706.17,283.92" fill="#ced4da" stroke="#000000" stroke-width="2" opacity="1.0" stroke-linecap="round" stroke-linejoin="round"/><polyline points="695.34,285.58 693.95,282.53 691.03,282.81" fill="#ced4da" stroke="#000000" stroke-width="2" opacity="1.0" stroke-linecap="round" stroke-linejoin="round"/><rect x="663.57" y="361.99" width="46.36" height="49.56" rx="0" stroke="#1864ab" stroke-width="1" opacity="1.0" fill="#15aabf"/><ellipse cx="700.48" cy="365.25" rx="6.24" ry="4.32" stroke="#000000" stroke-width="2" opacity="1.0" fill="#c92a2a"/><ellipse cx="700.49" cy="377.75" rx="9.66" ry="8.48" stroke="#000000" stroke-width="2" opacity="1.0" fill="#c92a2a" transform="rotate(270.93 700.49 377.75)"/><polyline points="708.44,373.53 712.61,369.36 715.52,372.56" fill="#ced4da" stroke="#000000" stroke-width="2" opacity="1.0" stroke-linecap="round" stroke-linejoin="round"/><polyline points="709.92,378.23 714.09,374.06 717.00,377.26" fill="#ced4da" stroke="#000000" stroke-width="2" opacity="1.0" stroke-linecap="round" stroke-linejoin="round"/><polyline points="705.04,385.75 709.20,381.58 712.12,384.78" fill="#ced4da" stroke="#000000" stroke-width="2" opacity="1.0" stroke-linecap="round" stroke-linejoin="round"/><polyline points="692.75,373.81 689.00,369.92 686.63,373.81" fill="#ced4da" stroke="#000000" stroke-width="2" opacity="1.0" stroke-linecap="round" stroke-linejoin="round"/><polyline points="692.47,380.33 689.69,375.61 686.36,378.81" fill="#ced4da" stroke="#000000" stroke-width="2" opacity="1.0" stroke-linecap="round" stroke-linejoin="round"/><polyline points="694.41,384.64 691.08,381.31 687.88,383.81" fill="#ced4da" stroke="#000000" stroke-width="2" opacity="1.0" stroke-linecap="round" stroke-linejoin="round"/><polyline points="703.44,360.89 705.11,357.70 707.88,359.92" fill="#ced4da" stroke="#000000" stroke-width="2" opacity="1.0" stroke-linecap="round" stroke-linejoin="round"/><polyline points="697.05,361.58 695.66,358.53 692.75,358.81" fill="#ced4da" stroke="#000000" stroke-width="2" opacity="1.0" stroke-linecap="round" stroke-linejoin="round"/><rect x="663.75" y="432.84" width="46.36" height="49.56" rx="0" stroke="#84142d" stroke-width="1" opacity="1.0" fill="#c92a2a"/><rect x="661.96" y="507.19" width="46.36" height="49.56" rx="0" stroke="#1864ab" stroke-width="1" opacity="1.0" fill="#15aabf"/><ellipse cx="698.16" cy="510.45" rx="6.24" ry="4.32" stroke="#000000" stroke-width="2" opacity="1.0" fill="#c92a2a"/><ellipse cx="698.17" cy="522.95" rx="9.66" ry="8.48" stroke="#000000" stroke-width="2" opacity="1.0" fill="#c92a2a" transform="rotate(270.93 698.17 522.95)"/><polyline points="706.12,518.73 710.28,514.57 713.20,517.76" fill="#ced4da" stroke="#000000" stroke-width="2" opacity="1.0" stroke-linecap="round" stroke-linejoin="round"/><polyline points="707.59,523.44 711.76,519.27 714.68,522.46" fill="#ced4da" stroke="#000000" stroke-width="2" opacity="1.0" stroke-linecap="round" stroke-linejoin="round"/><polyline points="702.71,530.96 706.88,526.79 709.80,529.98" fill="#ced4da" stroke="#000000" stroke-width="2" opacity="1.0" stroke-linecap="round" stroke-linejoin="round"/><polyline points="690.42,519.01 686.67,515.12 684.31,519.01" fill="#ced4da" stroke="#000000" stroke-width="2" opacity="1.0" stroke-linecap="round" stroke-linejoin="round"/><polyline points="690.14,525.54 687.36,520.82 684.03,524.01" fill="#ced4da" stroke="#000000" stroke-width="2" opacity="1.0" stroke-linecap="round" stroke-linejoin="round"/><polyline points="692.09,529.85 688.75,526.51 685.56,529.01" fill="#ced4da" stroke="#000000" stroke-width="2" opacity="1.0" stroke-linecap="round" stroke-linejoin="round"/><polyline points="701.11,506.10 702.78,502.90 705.56,505.12" fill="#ced4da" stroke="#000000" stroke-width="2" opacity="1.0" stroke-linecap="round" stroke-linejoin="round"/><polyline points="694.73,506.79 693.34,503.73 690.42,504.01" fill="#ced4da" stroke="#000000" stroke-width="2" opacity="1.0" stroke-linecap="round" stroke-linejoin="round"/><rect x="661.96" y="576.08" width="46.36" height="49.56" rx="0" stroke="#1864ab" stroke-width="1" opacity="1.0" fill="#15aabf"/><ellipse cx="698.16" cy="578.63" rx="6.24" ry="4.32" stroke="#000000" stroke-width="2" opacity="1.0" fill="#c92a2a"/><ellipse cx="698.17" cy="591.13" rx="9.66" ry="8.48" stroke="#000000" stroke-width="2" opacity="1.0" fill="#c92a2a" transform="rotate(270.93 698.17 591.13)"/><polyline points="706.12,586.91 710.28,582.74 713.20,585.94" fill="#ced4da" stroke="#000000" stroke-width="2" opacity="1.0" stroke-linecap="round" stroke-linejoin="round"/><polyline points="707.59,591.61 711.76,587.44 714.68,590.64" fill="#ced4da" stroke="#000000" stroke-width="2" opacity="1.0" stroke-linecap="round" stroke-linejoin="round"/><polyline points="702.71,599.13 706.88,594.96 709.80,598.16" fill="#ced4da" stroke="#000000" stroke-width="2" opacity="1.0" stroke-linecap="round" stroke-linejoin="round"/><polyline points="690.42,587.19 686.67,583.30 684.31,587.19" fill="#ced4da" stroke="#000000" stroke-width="2" opacity="1.0" stroke-linecap="round" stroke-linejoin="round"/><polyline points="690.14,593.71 687.36,588.99 684.03,592.19" fill="#ced4da" stroke="#000000" stroke-width="2" opacity="1.0" stroke-linecap="round" stroke-linejoin="round"/><polyline points="692.09,598.02 688.75,594.69 685.56,597.19" fill="#ced4da" stroke="#000000" stroke-width="2" opacity="1.0" stroke-linecap="round" stroke-linejoin="round"/><polyline points="701.11,574.27 702.78,571.08 705.56,573.30" fill="#ced4da" stroke="#000000" stroke-width="2" opacity="1.0" stroke-linecap="round" stroke-linejoin="round"/><polyline points="694.73,574.96 693.34,571.91 690.42,572.19" fill="#ced4da" stroke="#000000" stroke-width="2" opacity="1.0" stroke-linecap="round" stroke-linejoin="round"/><text x="641.65" y="234.16" font-size="20" fill="#000000" opacity="1.0" font-family="sans-serif">(10)</text><text x="806.88" y="235.10" font-size="20" fill="#000000" opacity="1.0" font-family="sans-serif">(7)</text><text x="978.10" y="235.10" font-size="20" fill="#000000" opacity="1.0" font-family="sans-serif">(6)</text><text x="1157.65" y="236.32" font-size="20" fill="#000000" opacity="1.0" font-family="sans-serif">(10)</text><polyline points="918.32,526.71 1069.43,526.71" fill="none" stroke="#e67700" stroke-width="4" opacity="1.0" stroke-linecap="round" stroke-linejoin="round"/><text x="977.54" y="555.32" font-size="20" fill="#e67700" opacity="1.0" font-family="sans-serif">WIP</text><polyline points="756.65,588.57 897.76,587.46" fill="none" stroke="#e67700" stroke-width="4" opacity="1.0" stroke-linecap="round" stroke-linejoin="round"/><text x="810.88" y="617.19" font-size="20" fill="#e67700" opacity="1.0" font-family="sans-serif">WIP</text></svg>