<svg xmlns="http://www.w3.org/2000/svg" viewBox="2705.72 1638.70 698.25 714.08" width="698" height="714"><ellipse cx="3112.97" cy="1674.70" rx="30.00" ry="30.00" stroke="#000000" stroke-width="1" opacity="1.0" fill="none"/><ellipse cx="2976.72" cy="1823.45" rx="30.00" ry="30.00" stroke="#000000" stroke-width="1" opacity="1.0" fill="none"/><ellipse cx="2850.47" cy="2010.95" rx="30.00" ry="30.00" stroke="#000000" stroke-width="1" opacity="1.0" fill="none"/><ellipse cx="3246.72" cy="1814.70" rx="30.00" ry="30.00" stroke="#000000" stroke-width="1" opacity="1.0" fill="none"/><ellipse cx="3117.97" cy="1994.70" rx="30.00" ry="30.00" stroke="#000000" stroke-width="1" opacity="1.0" fill="none"/><ellipse cx="3367.97" cy="1990.95" rx="30.00" ry="30.00" stroke="#000000" stroke-width="1" opacity="1.0" fill="none"/><ellipse cx="2741.72" cy="2182.20" rx="30.00" ry="30.00" stroke="#000000" stroke-width="1" opacity="1.0" fill="none"/><polyline points="3135.47,1695.95 3227.13,1790.95" fill="none" stroke="#000000" stroke-width="1" opacity="1.0" stroke-linecap="round" stroke-linejoin="round"/><polyline points="3267.13,1838.45 3357.97,1964.29" fill="none" stroke="#000000" stroke-width="1" opacity="1.0" stroke-linecap="round" stroke-linejoin="round"/><polyline points="3227.97,1838.45 3132.97,1966.79" fill="none" stroke="#000000" stroke-width="1" opacity="1.0" stroke-linecap="round" stroke-linejoin="round"/><polyline points="3092.13,1694.29 2996.30,1800.95" fill="none" stroke="#000000" stroke-width="1" opacity="1.0" stroke-linecap="round" stroke-linejoin="round"/><polyline points="2957.13,1845.95 2864.63,1988.45" fill="none" stroke="#000000" stroke-width="1" opacity="1.0" stroke-linecap="round" stroke-linejoin="round"/><polyline points="2832.97,2036.79 2756.30,2155.95" fill="none" stroke="#000000" stroke-width="1" opacity="1.0" stroke-linecap="round" stroke-linejoin="round"/><polyline points="3147.13,1997.62 3337.97,1996.79" fill="none" stroke="#000000" stroke-width="1" opacity="1.0" stroke-linecap="round" stroke-linejoin="round"/><polyline points="2771.30,2184.29 3157.97,2162.62 3362.97,2021.79" fill="none" stroke="#000000" stroke-width="1" opacity="1.0" stroke-linecap="round" stroke-linejoin="round"/><polyline points="2768.27,2169.95 3094.27,2013.95" fill="none" stroke="#000000" stroke-width="1" opacity="1.0" stroke-linecap="round" stroke-linejoin="round"/><polyline points="2998.77,1845.42 3100.44,1972.08" fill="none" stroke="#000000" stroke-width="1" opacity="1.0" stroke-linecap="round" stroke-linejoin="round"/></svg>