<svg xmlns="http://www.w3.org/2000/svg" viewBox="-1031.00 459.33 592.63 334.46" width="593" height="334"><polyline points="-1023.91,506.53 -1023.91,786.53" fill="none" stroke="#000000" stroke-width="1" opacity="1.0" stroke-linecap="round" stroke-linejoin="round"/><polyline points="-1024.37,787.79 -444.37,787.79" fill="none" stroke="#000000" stroke-width="1" opacity="1.0" stroke-linecap="round" stroke-linejoin="round"/><text x="-1025.00" y="485.33" font-size="20" fill="#000000" opacity="1.0" font-family="sans-serif">Dot (multi-strip) plot</text><ellipse cx="-837.16" cy="684.72" rx="5.91" ry="5.91" stroke="#000000" stroke-width="1" opacity="1.0" fill="#15aabf"/><ellipse cx="-836.71" cy="661.31" rx="5.91" ry="5.91" stroke="#000000" stroke-width="1" opacity="1.0" fill="#15aabf"/><ellipse cx="-836.71" cy="644.95" rx="5.91" ry="5.91" stroke="#000000" stroke-width="1" opacity="1.0" fill="#15aabf"/><ellipse cx="-835.80" cy="630.40" rx="5.91" ry="5.91" stroke="#000000" stroke-width="1" opacity="1.0" fill="#15aabf"/><ellipse cx="-835.80" cy="650.40" rx="5.91" ry="5.91" stroke="#000000" stroke-width="1" opacity="1.0" fill="#15aabf"/><ellipse cx="-835.12" cy="730.29" rx="5.91" ry="5.91" stroke="#000000" stroke-width="1" opacity="1.0" fill="#15aabf"/><ellipse cx="-837.62" cy="586.77" rx="5.91" ry="5.91" stroke="#000000" stroke-width="1" opacity="1.0" fill="#15aabf"/><ellipse cx="-836.02" cy="759.38" rx="5.91" ry="5.91" stroke="#000000" stroke-width="1" opacity="1.0" fill="#15aabf"/><ellipse cx="-838.87" cy="725.97" rx="5.91" ry="5.91" stroke="#000000" stroke-width="1" opacity="1.0" fill="#15aabf"/><ellipse cx="-961.82" cy="619.38" rx="5.91" ry="5.91" stroke="#000000" stroke-width="1" opacity="1.0" fill="#7950f2"/><ellipse cx="-961.37" cy="603.47" rx="5.91" ry="5.91" stroke="#000000" stroke-width="1" opacity="1.0" fill="#7950f2"/><ellipse cx="-961.37" cy="587.11" rx="5.91" ry="5.91" stroke="#000000" stroke-width="1" opacity="1.0" fill="#7950f2"/><ellipse cx="-960.46" cy="572.56" rx="5.91" ry="5.91" stroke="#000000" stroke-width="1" opacity="1.0" fill="#7950f2"/><ellipse cx="-960.46" cy="592.56" rx="5.91" ry="5.91" stroke="#000000" stroke-width="1" opacity="1.0" fill="#7950f2"/><ellipse cx="-962.27" cy="636.20" rx="5.91" ry="5.91" stroke="#000000" stroke-width="1" opacity="1.0" fill="#7950f2"/><ellipse cx="-962.27" cy="528.92" rx="5.91" ry="5.91" stroke="#000000" stroke-width="1" opacity="1.0" fill="#7950f2"/><ellipse cx="-963.18" cy="665.29" rx="5.91" ry="5.91" stroke="#000000" stroke-width="1" opacity="1.0" fill="#7950f2"/><ellipse cx="-962.27" cy="644.38" rx="5.91" ry="5.91" stroke="#000000" stroke-width="1" opacity="1.0" fill="#7950f2"/><ellipse cx="-962.96" cy="541.88" rx="5.91" ry="5.91" stroke="#000000" stroke-width="1" opacity="1.0" fill="#7950f2"/><ellipse cx="-965.46" cy="689.83" rx="5.91" ry="5.91" stroke="#000000" stroke-width="1" opacity="1.0" fill="#7950f2"/><ellipse cx="-963.64" cy="560.74" rx="5.91" ry="5.91" stroke="#000000" stroke-width="1" opacity="1.0" fill="#7950f2"/><ellipse cx="-670.23" cy="750.40" rx="5.91" ry="5.91" stroke="#000000" stroke-width="1" opacity="1.0" fill="#fa5252"/><ellipse cx="-669.77" cy="734.49" rx="5.91" ry="5.91" stroke="#000000" stroke-width="1" opacity="1.0" fill="#fa5252"/><ellipse cx="-669.77" cy="718.13" rx="5.91" ry="5.91" stroke="#000000" stroke-width="1" opacity="1.0" fill="#fa5252"/><ellipse cx="-668.87" cy="703.58" rx="5.91" ry="5.91" stroke="#000000" stroke-width="1" opacity="1.0" fill="#fa5252"/><ellipse cx="-668.87" cy="723.58" rx="5.91" ry="5.91" stroke="#000000" stroke-width="1" opacity="1.0" fill="#fa5252"/><ellipse cx="-670.68" cy="767.22" rx="5.91" ry="5.91" stroke="#000000" stroke-width="1" opacity="1.0" fill="#fa5252"/><ellipse cx="-673.41" cy="678.13" rx="5.91" ry="5.91" stroke="#000000" stroke-width="1" opacity="1.0" fill="#fa5252"/><ellipse cx="-671.59" cy="739.95" rx="5.91" ry="5.91" stroke="#000000" stroke-width="1" opacity="1.0" fill="#fa5252"/><ellipse cx="-670.68" cy="775.40" rx="5.91" ry="5.91" stroke="#000000" stroke-width="1" opacity="1.0" fill="#fa5252"/><ellipse cx="-507.84" cy="725.40" rx="5.91" ry="5.91" stroke="#000000" stroke-width="1" opacity="1.0" fill="#82c91e"/><ellipse cx="-508.30" cy="742.22" rx="5.91" ry="5.91" stroke="#000000" stroke-width="1" opacity="1.0" fill="#82c91e"/><ellipse cx="-509.21" cy="771.31" rx="5.91" ry="5.91" stroke="#000000" stroke-width="1" opacity="1.0" fill="#82c91e"/><ellipse cx="-508.30" cy="750.40" rx="5.91" ry="5.91" stroke="#000000" stroke-width="1" opacity="1.0" fill="#82c91e"/></svg>