<svg version="1.1" xmlns="http://www.w3.org/2000/svg" viewBox="0 0 56.80963134765625 46.55229187011719" width="56.80963134765625" height="46.55229187011719">
  <!-- svg-source:excalidraw -->
  
  <defs>
    
    
  </defs>
  <g stroke-linecap="round" transform="translate(6 13.790435791015625) rotate(0 22.404815673828125 13.380928039550781)"><path d="M0 0 C16.18 -0.12, 33.66 0.36, 44.81 0 M0 0 C16.34 -0.32, 33.18 -0.23, 44.81 0 M44.81 0 C44.39 9.92, 44.77 20.03, 44.81 26.76 M44.81 0 C44.35 8.96, 44.87 17.63, 44.81 26.76 M44.81 26.76 C31.29 27.38, 17.67 27.01, 0 26.76 M44.81 26.76 C35.89 26.47, 26.59 27.14, 0 26.76 M0 26.76 C0.19 15.76, -0.91 5.49, 0 0 M0 26.76 C-0.17 16.79, -0.01 7.53, 0 0" stroke="#a61e4d" stroke-width="1" fill="none"></path></g><g stroke-linecap="round" transform="translate(6.481903076171875 6) rotate(0 9.48358154296875 3.8467254638671875)"><path d="M0 0 C4.82 0.55, 10.05 0.74, 18.97 0 M0 0 C3.57 -0.24, 7.61 0.49, 18.97 0 M18.97 0 C18.82 1.96, 18.73 4.01, 18.97 7.69 M18.97 0 C18.98 2.25, 18.91 4.46, 18.97 7.69 M18.97 7.69 C13.48 8.16, 6.92 6.82, 0 7.69 M18.97 7.69 C11.26 7.85, 4.63 8.18, 0 7.69 M0 7.69 C-0.2 4.49, -0.12 2.17, 0 0 M0 7.69 C-0.08 5.58, 0.15 3.6, 0 0" stroke="#a61e4d" stroke-width="1" fill="none"></path></g><g transform="translate(7.904815673828125 14.671363830566406) rotate(0 20.5 12.5)"><text x="20.5" y="0" font-family="Virgil, Segoe UI Emoji" font-size="20px" fill="#a61e4d" text-anchor="middle" style="white-space: pre;" direction="ltr" dominant-baseline="text-before-edge">FTP</text></g><g transform="translate(22.3062744140625 7.988128662109375) rotate(0 0.000030517578125 0.00000762939453125)" stroke="none"><path fill="#a61e4d" d="M 0.53,-2.15 Q 0.53,-2.15 0.86,-2.01 1.19,-1.86 1.46,-1.62 1.73,-1.38 1.90,-1.07 2.08,-0.76 2.15,-0.41 2.21,-0.05 2.17,0.29 2.12,0.65 1.96,0.97 1.80,1.29 1.54,1.55 1.29,1.80 0.97,1.96 0.64,2.12 0.29,2.17 -0.06,2.21 -0.41,2.15 -0.76,2.08 -1.08,1.90 -1.39,1.72 -1.63,1.46 -1.87,1.19 -2.01,0.86 -2.15,0.53 -2.18,0.17 -2.21,-0.18 -2.12,-0.53 -2.03,-0.88 -1.84,-1.18 -1.65,-1.48 -1.37,-1.70 -1.09,-1.93 -0.75,-2.05 -0.41,-2.18 -0.05,-2.19 0.30,-2.19 0.64,-2.09 0.98,-1.98 1.28,-1.77 1.57,-1.56 1.78,-1.27 1.99,-0.98 2.09,-0.64 2.20,-0.29 2.19,0.06 2.18,0.42 2.05,0.75 1.93,1.09 1.70,1.37 1.48,1.65 1.17,1.84 0.87,2.04 0.52,2.12 0.17,2.21 -0.18,2.18 -0.53,2.15 -0.53,2.15 -0.53,2.15 -0.78,2.05 -1.03,1.96 -1.25,1.81 -1.47,1.65 -1.65,1.45 -1.83,1.25 -1.95,1.01 -2.07,0.78 -2.14,0.52 -2.20,0.26 -2.20,-0.00 -2.20,-0.27 -2.13,-0.53 -2.07,-0.79 -1.94,-1.03 -1.82,-1.26 -1.64,-1.46 -1.46,-1.66 -1.24,-1.81 -1.02,-1.96 -0.77,-2.06 -0.52,-2.15 -0.25,-2.18 0.00,-2.22 0.27,-2.18 0.53,-2.15 0.53,-2.15 L 0.53,-2.15 Z"></path></g></svg>