<svg version="1.1" xmlns="http://www.w3.org/2000/svg" viewBox="0 0 1308.265873015874 712.25" width="1308.265873015874" height="712.25">
  <!-- svg-source:excalidraw -->
  
  <defs>
    
    
  </defs>
  <g stroke-linecap="round" transform="translate(676 6) rotate(0 27 27)"><path d="M6.59 8.38 C6.59 8.38, 6.59 8.38, 6.59 8.38 M6.59 8.38 C6.59 8.38, 6.59 8.38, 6.59 8.38 M3.05 18.55 C6.1 12.72, 11.88 9.36, 15.52 4.21 M3.05 18.55 C7.06 14.11, 11.17 10.26, 15.52 4.21 M1.48 26.46 C4.85 20.99, 10.56 16.74, 23.78 0.8 M1.48 26.46 C10.39 16.43, 17.16 7.66, 23.78 0.8 M3.18 30.59 C11.43 21.92, 18.1 13.86, 28.11 1.91 M3.18 30.59 C12.29 20.71, 20.87 8.99, 28.11 1.91 M4.23 35.48 C9.94 27.11, 17.12 18.64, 33.1 2.27 M4.23 35.48 C13.58 25.85, 23.02 15.06, 33.1 2.27 M5.94 39.61 C13.16 31.68, 18.49 23.05, 37.43 3.39 M5.94 39.61 C17.49 25.38, 29.21 11.04, 37.43 3.39 M7.65 43.75 C20.18 27.65, 34.23 11.4, 41.76 4.5 M7.65 43.75 C14.41 33.89, 22.98 25.14, 41.76 4.5 M10.67 46.37 C22.72 34.23, 32.94 21.71, 44.13 7.88 M10.67 46.37 C22.78 33.15, 33.31 19.88, 44.13 7.88 M14.34 48.24 C26.38 33.07, 37.97 19.87, 46.49 11.26 M14.34 48.24 C20.46 40.68, 28.18 33.24, 46.49 11.26 M17.36 50.87 C31.3 35.05, 40.32 22.25, 48.85 14.64 M17.36 50.87 C25.81 40.6, 36.74 28.9, 48.85 14.64 M20.38 53.49 C30.64 41.59, 42.34 27.07, 51.21 18.02 M20.38 53.49 C31.24 41.87, 41.73 29.92, 51.21 18.02 M25.37 53.85 C34.36 43.96, 39.76 37.3, 52.26 22.91 M25.37 53.85 C34.68 43.62, 44.53 31.72, 52.26 22.91 M31.01 53.46 C39.28 42.73, 49.06 33, 52 29.31 M31.01 53.46 C37.43 45.33, 44.92 37.31, 52 29.31 M36.65 53.06 C43.17 46.12, 47.05 39.91, 52.4 34.95 M36.65 53.06 C41.55 47.34, 44.64 43.83, 52.4 34.95" stroke="#40c057" stroke-width="0.5" fill="none"></path><path d="M23.87 0.58 C29.32 -0.54, 37.66 1.34, 42.36 4.57 C47.05 7.81, 50.4 14.46, 52.04 19.99 C53.69 25.51, 54.26 32.39, 52.21 37.74 C50.16 43.08, 44.99 49.47, 39.74 52.07 C34.49 54.67, 26.26 54.91, 20.69 53.32 C15.11 51.73, 9.61 47.3, 6.28 42.55 C2.95 37.79, 0.67 30.45, 0.7 24.78 C0.73 19.11, 2.34 12.58, 6.47 8.52 C10.61 4.45, 21.91 1.75, 25.53 0.37 C29.15 -1, 28.1 -0.16, 28.19 0.25 M29.22 0.27 C34.65 0.12, 42.53 3.79, 46.4 7.49 C50.28 11.19, 52.09 16.52, 52.47 22.47 C52.85 28.41, 51.8 38.29, 48.68 43.16 C45.57 48.03, 38.97 50.39, 33.79 51.67 C28.61 52.96, 22.59 53.16, 17.59 50.87 C12.59 48.59, 6.63 42.79, 3.8 37.96 C0.97 33.14, -0.4 27.6, 0.59 21.91 C1.58 16.22, 5.04 7.53, 9.72 3.81 C14.4 0.09, 25.62 0.07, 28.66 -0.42 C31.71 -0.91, 27.88 0.53, 27.97 0.87" stroke="#000000" stroke-width="1" fill="none"></path></g><g stroke-linecap="round" transform="translate(473 148) rotate(0 27 27)"><path d="M6.07 10.57 C6.07 10.57, 6.07 10.57, 6.07 10.57 M6.07 10.57 C6.07 10.57, 6.07 10.57, 6.07 10.57 M3.84 19.23 C8.93 12.68, 17.14 7.91, 18.93 1.88 M3.84 19.23 C7.22 15.79, 10.42 11.29, 18.93 1.88 M0.95 28.65 C5.82 22.13, 12.57 13.71, 24.57 1.48 M0.95 28.65 C8.94 19.5, 15.89 11.72, 24.57 1.48 M2.66 32.79 C13.52 21.95, 24.11 9.66, 29.56 1.84 M2.66 32.79 C10.21 23.97, 20.03 13, 29.56 1.84 M4.36 36.92 C12.23 26.66, 21.06 16.75, 33.89 2.96 M4.36 36.92 C11.02 29.17, 18.19 22.17, 33.89 2.96 M6.07 41.05 C17.06 25.82, 31.17 9.73, 38.87 3.32 M6.07 41.05 C18.51 27.67, 28.66 15.48, 38.87 3.32 M7.78 45.19 C21.36 30.06, 34.61 13.89, 41.24 6.7 M7.78 45.19 C21.68 29.13, 33.79 14.21, 41.24 6.7 M11.45 47.06 C20.76 34.35, 32.36 19.91, 44.26 9.32 M11.45 47.06 C21.46 35.24, 31.58 24.41, 44.26 9.32 M15.13 48.93 C22.8 40.76, 31.78 32.34, 47.27 11.94 M15.13 48.93 C24.09 38.21, 34.13 27.97, 47.27 11.94 M18.8 50.79 C31.86 37.55, 41.39 20.96, 50.29 14.57 M18.8 50.79 C29.9 37.78, 39.2 27.34, 50.29 14.57 M22.48 52.66 C30 43.43, 36.8 38.11, 52 18.7 M22.48 52.66 C30.12 43.08, 38.2 33.84, 52 18.7 M26.81 53.78 C32.57 48.65, 38.34 40.16, 52.39 24.35 M26.81 53.78 C36.68 41.69, 46.05 30.15, 52.39 24.35 M33.11 52.63 C39.45 44.82, 46.96 36.05, 52.79 29.99 M33.11 52.63 C40.88 44.14, 47.22 37.5, 52.79 29.99 M39.41 51.48 C42.75 49.41, 45.27 45.69, 49.25 40.16 M39.41 51.48 C41.49 49.04, 44.21 46.27, 49.25 40.16" stroke="#40c057" stroke-width="0.5" fill="none"></path><path d="M20.57 0.6 C25.68 -0.84, 32.82 0.39, 38.07 3.11 C43.32 5.83, 49.61 11.86, 52.07 16.92 C54.53 21.99, 54.5 27.96, 52.81 33.49 C51.13 39.01, 46.66 46.72, 41.95 50.08 C37.24 53.45, 30.3 54.53, 24.55 53.67 C18.79 52.82, 11.35 49.05, 7.41 44.94 C3.47 40.84, 1.14 34.76, 0.91 29.04 C0.68 23.32, 2.33 15.57, 6.02 10.63 C9.71 5.69, 19.82 0.94, 23.04 -0.6 C26.25 -2.13, 25.21 0.78, 25.29 1.43 M21.49 -0.81 C27 -1.8, 36.25 2.18, 41.21 5.2 C46.17 8.22, 49.43 12.19, 51.24 17.32 C53.06 22.44, 53.97 30.63, 52.1 35.94 C50.22 41.26, 44.85 46.1, 40 49.21 C35.14 52.31, 28.66 55.29, 22.96 54.58 C17.26 53.88, 9.74 49.58, 5.8 44.98 C1.86 40.38, -0.97 33.18, -0.7 26.97 C-0.42 20.76, 3.28 12.25, 7.44 7.71 C11.6 3.17, 21.66 1, 24.25 -0.27 C26.83 -1.55, 22.9 -0.5, 22.96 0.08" stroke="#000000" stroke-width="1" fill="none"></path></g><g stroke-linecap="round" transform="translate(873 180) rotate(0 27 27)"><path d="M3.02 15.87 C3.02 15.87, 3.02 15.87, 3.02 15.87 M3.02 15.87 C3.02 15.87, 3.02 15.87, 3.02 15.87 M2.1 23.03 C7.39 15.59, 15.37 10.92, 19.81 2.65 M2.1 23.03 C6.74 18.59, 10.64 13.55, 19.81 2.65 M0.53 30.93 C11.31 22.38, 17.65 10.39, 26.11 1.5 M0.53 30.93 C6.55 23.29, 12.87 16.64, 26.11 1.5 M0.92 36.58 C10.25 26.45, 21.1 17.24, 32.41 0.35 M0.92 36.58 C7.98 28.04, 14.69 20.24, 32.41 0.35 M3.94 39.2 C10.25 29.66, 19.14 25.12, 36.09 2.22 M3.94 39.2 C12.88 29.34, 21.11 19.73, 36.09 2.22 M6.3 42.58 C15.61 28.86, 27.14 18.78, 39.76 4.09 M6.3 42.58 C18.54 28.37, 29.82 15.22, 39.76 4.09 M8.67 45.96 C20.48 31.64, 34.47 17.18, 42.78 6.71 M8.67 45.96 C16.28 37.95, 23.98 28.21, 42.78 6.71 M11.03 49.34 C21.65 38.11, 33.02 27.69, 46.46 8.58 M11.03 49.34 C24.76 33.12, 36.7 19.32, 46.46 8.58 M15.36 50.45 C25.97 35.49, 41.5 19.92, 49.47 11.21 M15.36 50.45 C22.26 42.1, 30.88 33.38, 49.47 11.21 M19.69 51.57 C30.19 38.07, 41.58 24.69, 50.52 16.1 M19.69 51.57 C30.87 39.84, 40.21 28.32, 50.52 16.1 M24.02 52.68 C33.04 40.15, 43.09 29.72, 51.58 20.98 M24.02 52.68 C30.52 45.06, 36.73 38.3, 51.58 20.98 M28.35 53.8 C32.11 48.42, 39.66 40.82, 52.63 25.87 M28.35 53.8 C37.77 44.11, 45.97 33.3, 52.63 25.87 M35.96 51.14 C41.54 45.99, 46.27 38.08, 52.36 32.27 M35.96 51.14 C38.92 46.41, 44.13 42.89, 52.36 32.27 M44.89 46.97 C46.06 46.1, 46.56 45.48, 48.17 43.2 M44.89 46.97 C45.54 46.1, 46.42 45.32, 48.17 43.2" stroke="#40c057" stroke-width="0.5" fill="none"></path><path d="M15.52 2.9 C20.37 0.03, 27.94 -0.79, 33.55 0.46 C39.16 1.71, 45.91 5.61, 49.18 10.42 C52.45 15.23, 53.53 23.53, 53.17 29.31 C52.81 35.09, 51.09 41, 47.02 45.1 C42.96 49.19, 34.78 53.16, 28.78 53.86 C22.78 54.55, 15.83 52.39, 11.02 49.24 C6.22 46.1, 1.26 40.58, -0.04 34.98 C-1.34 29.38, 0.04 21.31, 3.21 15.65 C6.38 9.98, 15.91 3.33, 18.98 1 C22.04 -1.34, 21.76 1, 21.62 1.65 M23.07 0.74 C28.48 -0.55, 35.76 0.57, 40.5 3.21 C45.24 5.85, 49.5 11.37, 51.51 16.58 C53.53 21.8, 54.3 28.93, 52.59 34.48 C50.87 40.03, 46.38 46.58, 41.24 49.86 C36.1 53.14, 27.49 54.79, 21.75 54.14 C16.02 53.49, 10.24 50.48, 6.83 45.93 C3.41 41.39, 1.47 32.66, 1.26 26.89 C1.06 21.12, 2.42 15.88, 5.59 11.31 C8.77 6.74, 17.71 1.19, 20.32 -0.52 C22.93 -2.23, 20.73 0.2, 21.25 1.05" stroke="#000000" stroke-width="1" fill="none"></path></g><g stroke-linecap="round" transform="translate(341 323.5) rotate(0 27 27)"><path d="M4.39 11.76 C4.39 11.76, 4.39 11.76, 4.39 11.76 M4.39 11.76 C4.39 11.76, 4.39 11.76, 4.39 11.76 M2.81 19.67 C10.12 14.62, 12.81 7.83, 19.21 0.8 M2.81 19.67 C8.93 13.98, 15.23 7.78, 19.21 0.8 M1.24 27.58 C5.03 19.85, 9.45 16.04, 24.2 1.16 M1.24 27.58 C6.07 22.18, 10.61 15.41, 24.2 1.16 M2.29 32.47 C7.6 25.36, 14.87 17.06, 28.53 2.28 M2.29 32.47 C12.21 22.87, 20.96 11.78, 28.53 2.28 M4 36.6 C12.2 27.65, 19.56 20.08, 33.52 2.64 M4 36.6 C14.21 24.65, 22.82 15.15, 33.52 2.64 M5.7 40.73 C11.86 33.99, 17.83 26.05, 37.85 3.75 M5.7 40.73 C16.81 27.09, 28.88 13.02, 37.85 3.75 M7.41 44.87 C16.61 31.61, 28.85 18.67, 40.87 6.38 M7.41 44.87 C15.04 36.58, 21.69 28.74, 40.87 6.38 M10.43 47.49 C24.49 31.45, 33.13 20.53, 43.89 9 M10.43 47.49 C19.46 35.92, 27.92 26.41, 43.89 9 M14.1 49.36 C20.48 39.93, 28.99 33.6, 46.91 11.62 M14.1 49.36 C22.37 38.52, 30.24 30.83, 46.91 11.62 M17.78 51.23 C26.49 42.21, 35.3 31.58, 49.27 15 M17.78 51.23 C25.08 43.08, 33.06 33.73, 49.27 15 M22.11 52.34 C27.43 44.27, 32.55 40.15, 50.98 19.14 M22.11 52.34 C29.42 43.06, 36.45 35.41, 50.98 19.14 M26.44 53.46 C35.17 44.93, 46.08 32.78, 51.37 24.78 M26.44 53.46 C33.53 44.91, 39.55 37.13, 51.37 24.78 M33.4 51.56 C36.83 45.6, 41.41 42.72, 51.77 30.42 M33.4 51.56 C39.04 46.73, 43.77 39.44, 51.77 30.42 M40.35 49.65 C44.91 45.9, 47.65 38.39, 52.82 35.31 M40.35 49.65 C44.32 45.81, 48.02 41.49, 52.82 35.31" stroke="#40c057" stroke-width="0.5" fill="none"></path><path d="M37.75 3.39 C42.82 5.43, 48.3 10.67, 50.7 15.87 C53.1 21.07, 53.62 29.06, 52.14 34.59 C50.65 40.12, 46.39 45.84, 41.79 49.03 C37.2 52.22, 30.21 54.18, 24.57 53.72 C18.93 53.26, 11.9 50.2, 7.97 46.28 C4.04 42.37, 1.61 35.95, 0.99 30.23 C0.37 24.5, 1.24 16.85, 4.25 11.92 C7.26 7, 12.7 2.01, 19.03 0.67 C25.37 -0.66, 37.7 2.78, 42.24 3.9 C46.78 5.03, 46.59 6.81, 46.25 7.44 M23.24 0.11 C28.52 -1.36, 33.96 0.84, 38.72 3.83 C43.49 6.81, 49.76 12.43, 51.83 18.02 C53.9 23.61, 52.93 31.95, 51.14 37.36 C49.35 42.77, 45.68 47.93, 41.09 50.49 C36.5 53.06, 29.51 53.75, 23.59 52.74 C17.68 51.73, 9.42 48.5, 5.58 44.43 C1.75 40.36, 0.64 34.25, 0.61 28.3 C0.57 22.35, 1.83 13.51, 5.38 8.72 C8.93 3.94, 19.34 0.84, 21.92 -0.41 C24.49 -1.66, 20.61 0.85, 20.82 1.23" stroke="#000000" stroke-width="1" fill="none"></path></g><g stroke-linecap="round" transform="translate(573 330.5) rotate(0 27 27)"><path d="M5.52 10.09 C5.52 10.09, 5.52 10.09, 5.52 10.09 M5.52 10.09 C5.52 10.09, 5.52 10.09, 5.52 10.09 M2.63 19.51 C8.54 13.11, 12.7 9.54, 17.06 2.91 M2.63 19.51 C6.35 17.05, 9.56 11.97, 17.06 2.91 M1.06 27.42 C6.01 17.7, 14.91 10.21, 24.67 0.25 M1.06 27.42 C8.81 18.29, 15.21 10.23, 24.67 0.25 M2.76 31.55 C10.35 22.66, 16.74 17.23, 29.66 0.61 M2.76 31.55 C12.77 21.37, 21.25 9.91, 29.66 0.61 M4.47 35.69 C11.76 27.7, 20.39 17.02, 33.99 1.72 M4.47 35.69 C11.69 25.67, 21.37 16.24, 33.99 1.72 M6.18 39.82 C18.69 25.47, 30.02 14.76, 38.98 2.08 M6.18 39.82 C16.91 27.2, 27.24 15.56, 38.98 2.08 M7.88 43.95 C18.3 31.38, 29.03 15.67, 42 4.71 M7.88 43.95 C16.55 33.76, 25.68 23.27, 42 4.71 M10.9 46.58 C19.93 31.85, 34.08 20.74, 45.02 7.33 M10.9 46.58 C19.17 34.99, 29.54 24.44, 45.02 7.33 M14.58 48.45 C26.28 34.4, 41.04 19.15, 47.38 10.71 M14.58 48.45 C22.15 37.66, 32.91 27.59, 47.38 10.71 M17.6 51.07 C27.71 41.13, 36.26 26.21, 50.4 13.34 M17.6 51.07 C30.95 36.86, 43.03 20.89, 50.4 13.34 M21.27 52.94 C27.14 43.27, 36.96 35.68, 52.76 16.71 M21.27 52.94 C30.09 41.37, 40.59 31.79, 52.76 16.71 M25.6 54.06 C34.49 47.53, 39.73 37.36, 53.16 22.36 M25.6 54.06 C32.62 44.52, 40.45 35.07, 53.16 22.36 M32.56 52.15 C38 44.5, 46.5 35.81, 52.89 28.76 M32.56 52.15 C40.39 44.58, 45.79 35.95, 52.89 28.76 M39.51 50.25 C45.08 44.02, 46.68 39.51, 52.63 35.15 M39.51 50.25 C43.47 46.63, 46.92 41.32, 52.63 35.15" stroke="#40c057" stroke-width="0.5" fill="none"></path><path d="M21.98 -0.12 C27.3 -1.7, 34.62 -0.59, 39.71 2.09 C44.8 4.76, 50.38 10.45, 52.54 15.94 C54.7 21.42, 54.54 29.35, 52.68 35 C50.82 40.64, 46.19 46.53, 41.36 49.81 C36.53 53.08, 29.27 55.52, 23.7 54.66 C18.14 53.8, 11.87 49.21, 7.99 44.64 C4.11 40.07, 0.88 32.96, 0.43 27.24 C-0.01 21.52, 0.58 14.76, 5.31 10.33 C10.04 5.9, 23.5 2.01, 28.79 0.65 C34.08 -0.71, 36.83 1.87, 37.05 2.17 M16.56 0.51 C21.43 -2.15, 30.13 -0.88, 35.79 0.93 C41.45 2.74, 47.3 6.35, 50.54 11.37 C53.78 16.39, 56.09 24.95, 55.22 31.06 C54.36 37.16, 50.05 44.34, 45.34 47.99 C40.63 51.65, 32.85 52.86, 26.98 53 C21.11 53.14, 14.37 52.37, 10.12 48.85 C5.87 45.33, 2.85 37.64, 1.49 31.88 C0.13 26.12, -0.46 19.46, 1.96 14.27 C4.39 9.08, 13.47 2.59, 16.03 0.74 C18.6 -1.11, 17.24 2.6, 17.35 3.19" stroke="#000000" stroke-width="1" fill="none"></path></g><g stroke-linecap="round" transform="translate(997 334.5) rotate(0 27 27)"><path d="M2.96 15.82 C2.96 15.82, 2.96 15.82, 2.96 15.82 M2.96 15.82 C2.96 15.82, 2.96 15.82, 2.96 15.82 M2.7 22.22 C5.53 15.07, 12.24 10.11, 19.76 2.6 M2.7 22.22 C8.8 14.91, 16.43 7.01, 19.76 2.6 M2.44 28.62 C6.49 20.22, 16.49 13.33, 25.4 2.2 M2.44 28.62 C9.46 21.26, 15.79 11.45, 25.4 2.2 M2.18 35.02 C14.51 22.66, 24.71 6.79, 31.7 1.05 M2.18 35.02 C8.26 26.6, 16.33 19.18, 31.7 1.05 M4.54 38.4 C12.93 26.11, 24.43 17.85, 36.03 2.17 M4.54 38.4 C13.61 29.98, 20.74 19.69, 36.03 2.17 M6.9 41.77 C14.53 30.3, 23.65 18.93, 39.05 4.79 M6.9 41.77 C17.07 29.55, 28.67 16.75, 39.05 4.79 M9.26 45.15 C22.45 32.99, 30.71 18.63, 42.72 6.66 M9.26 45.15 C21.29 31.61, 31.1 18.98, 42.72 6.66 M11.63 48.53 C21.85 38.54, 31.12 25.22, 45.74 9.29 M11.63 48.53 C19.38 39.18, 29.14 28.21, 45.74 9.29 M15.3 50.4 C22.38 39.66, 31.82 27.64, 49.42 11.16 M15.3 50.4 C25.65 39.15, 37.32 27.09, 49.42 11.16 M19.63 51.52 C30.3 38.56, 42.31 25.64, 50.47 16.05 M19.63 51.52 C30.23 40.18, 41.27 27.3, 50.47 16.05 M23.96 52.63 C31.41 42.98, 39.97 37.11, 51.52 20.93 M23.96 52.63 C34.65 40.68, 44.35 29.47, 51.52 20.93 M27.64 54.5 C38.36 44.85, 47.38 33.36, 53.22 25.07 M27.64 54.5 C35.33 45, 43.79 35.95, 53.22 25.07 M34.59 52.6 C43.64 42.29, 49.74 35.47, 52.96 31.47 M34.59 52.6 C41.86 45.02, 47.26 37.35, 52.96 31.47 M44.83 46.92 C45.69 46.11, 46.46 44.72, 47.45 43.9 M44.83 46.92 C45.65 46.26, 45.99 45.37, 47.45 43.9" stroke="#40c057" stroke-width="0.5" fill="none"></path><path d="M33.3 0.57 C38.67 1.5, 45.38 6.42, 48.78 11.08 C52.18 15.75, 54.11 22.83, 53.72 28.56 C53.33 34.29, 50.47 41.16, 46.43 45.46 C42.39 49.77, 35.26 53.9, 29.49 54.4 C23.72 54.9, 16.43 51.75, 11.81 48.48 C7.19 45.2, 3.22 40.18, 1.75 34.73 C0.28 29.29, 0.77 21.2, 2.98 15.8 C5.19 10.4, 9.5 4.53, 14.98 2.31 C20.46 0.08, 31.94 2.11, 35.85 2.45 C39.76 2.78, 38.53 3.96, 38.43 4.33 M21.95 -0.75 C27.56 -2.21, 37.3 -0.58, 42.54 2.68 C47.78 5.94, 51.87 12.95, 53.41 18.81 C54.96 24.66, 54.2 32.36, 51.79 37.79 C49.37 43.23, 43.8 48.75, 38.92 51.42 C34.05 54.1, 27.99 55.29, 22.56 53.83 C17.12 52.37, 10.03 47.41, 6.31 42.67 C2.59 37.93, 0.21 30.96, 0.24 25.39 C0.28 19.82, 2.61 13.45, 6.52 9.25 C10.43 5.05, 21.06 1.73, 23.7 0.18 C26.33 -1.37, 22.27 -0.27, 22.3 -0.05" stroke="#000000" stroke-width="1" fill="none"></path></g><g stroke-linecap="round" transform="translate(772 331) rotate(0 27 27)"><path d="M4.61 11.96 C4.61 11.96, 4.61 11.96, 4.61 11.96 M4.61 11.96 C4.61 11.96, 4.61 11.96, 4.61 11.96 M2.38 20.62 C7.84 16.07, 13.83 8.8, 18.12 2.5 M2.38 20.62 C6.6 15.2, 11.39 11.68, 18.12 2.5 M0.15 29.28 C10.15 18.95, 17.88 9.94, 24.42 1.36 M0.15 29.28 C9.6 19.89, 18.17 9.48, 24.42 1.36 M1.86 33.41 C9.78 23.02, 19.21 13.53, 29.41 1.72 M1.86 33.41 C13.66 19.75, 24.03 7.92, 29.41 1.72 M4.22 36.79 C16.51 24.22, 25.09 11.42, 34.4 2.08 M4.22 36.79 C13.66 26.31, 22.88 14.42, 34.4 2.08 M5.93 40.93 C15.72 32.42, 20.77 21.67, 38.73 3.19 M5.93 40.93 C15.19 29.12, 26.77 17.15, 38.73 3.19 M7.63 45.06 C16.07 38.51, 24.14 29.51, 41.75 5.81 M7.63 45.06 C14.65 35.92, 22.68 27.93, 41.75 5.81 M11.31 46.93 C23.77 32.02, 35.59 18.99, 44.77 8.44 M11.31 46.93 C21.92 35.83, 32.78 23.16, 44.77 8.44 M14.98 48.8 C23.43 39.97, 31.43 29.84, 47.78 11.06 M14.98 48.8 C22.75 39.69, 31.78 28.96, 47.78 11.06 M18.66 50.67 C28.65 38.82, 34.52 30.39, 50.15 14.44 M18.66 50.67 C25.58 43, 32.16 34.09, 50.15 14.44 M22.33 52.54 C29.14 42.28, 38.57 31.7, 52.51 17.82 M22.33 52.54 C31.04 40.95, 42.43 30.92, 52.51 17.82 M27.32 52.9 C38.08 41.91, 44.51 30.38, 52.9 23.46 M27.32 52.9 C37.19 41.26, 46.52 31.5, 52.9 23.46 M34.27 50.99 C42.94 42.56, 46.87 35.22, 53.3 29.11 M34.27 50.99 C39.68 44.58, 46.69 36.49, 53.3 29.11" stroke="#40c057" stroke-width="0.5" fill="none"></path><path d="M20.5 0.95 C25.68 -1.03, 32.63 -0.19, 37.86 2.26 C43.09 4.71, 49.43 10.47, 51.86 15.65 C54.3 20.82, 54.12 27.89, 52.48 33.3 C50.84 38.71, 46.56 44.75, 42.02 48.12 C37.49 51.5, 30.96 53.96, 25.27 53.53 C19.58 53.11, 12.05 49.53, 7.87 45.57 C3.69 41.6, 0.78 35.31, 0.19 29.76 C-0.39 24.2, 0.54 16.99, 4.36 12.25 C8.17 7.5, 19.41 3.08, 23.09 1.27 C26.77 -0.54, 26.59 1.04, 26.44 1.39 M32.54 -0.44 C37.97 0.06, 42.84 4.57, 46.41 9.24 C49.99 13.91, 53.62 21.71, 53.98 27.59 C54.35 33.47, 52.07 40.28, 48.59 44.52 C45.11 48.76, 38.92 52.18, 33.11 53.03 C27.3 53.88, 18.89 52.23, 13.73 49.62 C8.56 47.02, 4.31 42.52, 2.12 37.4 C-0.06 32.27, -1.41 24.61, 0.62 18.89 C2.65 13.17, 9.22 6.07, 14.32 3.08 C19.42 0.08, 28.2 1.5, 31.23 0.91 C34.26 0.32, 32.51 -0.63, 32.5 -0.46" stroke="#000000" stroke-width="1" fill="none"></path></g><g stroke-linecap="round"><g transform="translate(681 46) rotate(0 -80 56)"><path d="M-0.01 0.17 C-26.7 18.77, -133.4 92.53, -159.92 111.19 M-1.48 -0.79 C-28.34 17.98, -134.5 93.26, -160.83 112.31" stroke="#000000" stroke-width="1" fill="none"></path></g></g><mask></mask><g stroke-linecap="round"><g transform="translate(479 193) rotate(0 -52 66.5)"><path d="M0.13 0.5 C-17.27 22.92, -86.58 111.58, -104.01 133.57 M-1.26 -0.28 C-18.85 21.87, -87.59 109.45, -104.96 131.75" stroke="#000000" stroke-width="1" fill="none"></path></g></g><mask></mask><g stroke-linecap="round"><g transform="translate(515 198) rotate(0 37 67.5)"><path d="M0.66 -1.04 C12.84 21.41, 61.92 113.3, 74.09 135.85 M-0.45 1.03 C11.49 23.65, 60.99 111.82, 73.19 134.18" stroke="#000000" stroke-width="1" fill="none"></path></g></g><mask></mask><g stroke-linecap="round"><g transform="translate(726 49) rotate(0 79.5 67.5)"><path d="M0.4 -0.93 C27.01 21.43, 133.65 112.18, 160.1 134.89 M-0.86 1.2 C25.67 23.69, 133.18 114.38, 159.73 136.38" stroke="#000000" stroke-width="1" fill="none"></path></g></g><mask></mask><g stroke-linecap="round"><g transform="translate(882 230) rotate(0 -34.5 52)"><path d="M0.97 -0.78 C-10.55 16.37, -57.63 86.22, -69.39 103.74 M0.02 1.42 C-11.68 18.68, -58.77 88.35, -70.54 105.14" stroke="#000000" stroke-width="1" fill="none"></path></g></g><mask></mask><g stroke-linecap="round"><g transform="translate(920 229) rotate(0 51 53)"><path d="M0.15 -0.64 C17.1 17.07, 85.99 88.46, 102.91 106.18 M-1.24 1.64 C15.53 19.58, 85.45 90.28, 102.45 107.81" stroke="#000000" stroke-width="1" fill="none"></path></g></g><mask></mask><g stroke-linecap="round" transform="translate(138 465.75) rotate(0 27 27)"><path d="M13.95 4.18 C13.95 4.18, 13.95 4.18, 13.95 4.18 M13.95 4.18 C13.95 4.18, 13.95 4.18, 13.95 4.18 M4.51 21.14 C8.09 17.37, 12.71 12.82, 20.25 3.03 M4.51 21.14 C9.4 15.86, 11.84 12.87, 20.25 3.03 M4.25 27.54 C7.85 21.9, 12.07 18.2, 27.21 1.13 M4.25 27.54 C9 21.79, 14.29 16.18, 27.21 1.13 M1.36 36.96 C9.9 26.2, 21.05 12.75, 32.2 1.49 M1.36 36.96 C7.85 28.77, 16.36 20.83, 32.2 1.49 M4.38 39.58 C13.57 28.1, 23.6 16.63, 35.87 3.36 M4.38 39.58 C15.86 26.72, 27.66 12.64, 35.87 3.36 M7.4 42.21 C16.9 34.4, 21.72 23.93, 38.89 5.98 M7.4 42.21 C18.67 29.22, 31.1 14.9, 38.89 5.98 M9.76 45.59 C23.91 30.69, 33.69 16.45, 42.56 7.85 M9.76 45.59 C21.51 31.28, 33.98 18.63, 42.56 7.85 M12.78 48.21 C21.58 36.31, 33.54 26.42, 46.24 9.72 M12.78 48.21 C22.16 36.93, 31.44 25.96, 46.24 9.72 M15.14 51.59 C24.77 42.21, 33.85 31.13, 49.26 12.34 M15.14 51.59 C27.21 36.73, 39.41 24.77, 49.26 12.34 M19.47 52.7 C26.2 43.97, 32.33 37.72, 50.96 16.48 M19.47 52.7 C28.51 42.18, 38.43 31.41, 50.96 16.48 M24.46 53.06 C31.89 44.75, 41.95 33.02, 52.67 20.61 M24.46 53.06 C30.36 46.58, 36.41 39.57, 52.67 20.61 M28.79 54.18 C34.17 46.45, 42.23 38.73, 54.38 24.74 M28.79 54.18 C33.83 46.63, 41.64 39.18, 54.38 24.74 M32.47 56.05 C42.54 47.25, 50.93 37.3, 55.43 29.63 M32.47 56.05 C40.76 46.35, 50.62 35.41, 55.43 29.63 M42.7 50.37 C46.15 48.01, 48.25 44.67, 51.89 39.8 M42.7 50.37 C44.68 47.4, 47.55 44.96, 51.89 39.8" stroke="#40c057" stroke-width="0.5" fill="none"></path><path d="M31.03 0.49 C36.2 1.26, 43.09 5.82, 46.88 10.39 C50.67 14.97, 53.6 22.13, 53.76 27.93 C53.93 33.73, 51.65 40.84, 47.86 45.21 C44.06 49.58, 36.63 53.35, 30.97 54.14 C25.32 54.94, 18.95 53.01, 13.92 49.99 C8.88 46.96, 2.81 41.26, 0.75 36.01 C-1.3 30.76, -0.58 23.77, 1.6 18.49 C3.78 13.2, 8.2 7.07, 13.85 4.29 C19.51 1.52, 31.25 1.77, 35.56 1.85 C39.87 1.93, 39.81 4.3, 39.7 4.79 M28.95 0.03 C34.54 -0.17, 42.16 3.77, 46.1 7.88 C50.04 12, 52.06 19.33, 52.59 24.74 C53.12 30.15, 52.37 35.76, 49.27 40.34 C46.17 44.92, 39.41 50.15, 34 52.22 C28.6 54.29, 21.78 54.74, 16.84 52.77 C11.91 50.8, 7.22 45.78, 4.38 40.39 C1.54 35, -1.38 26.31, -0.21 20.43 C0.97 14.56, 6.5 8.74, 11.45 5.12 C16.4 1.49, 26.64 -0.8, 29.51 -1.32 C32.38 -1.84, 28.63 1.11, 28.66 1.99" stroke="#000000" stroke-width="1" fill="none"></path></g><g stroke-linecap="round" transform="translate(538 497.75) rotate(0 27 27)"><path d="M5.23 12.5 C5.23 12.5, 5.23 12.5, 5.23 12.5 M5.23 12.5 C5.23 12.5, 5.23 12.5, 5.23 12.5 M3 21.16 C8.78 15.37, 13.76 10.17, 20.71 0.78 M3 21.16 C8.77 13.01, 16.8 5.31, 20.71 0.78 M0.77 29.82 C9.39 18.35, 19.94 7.73, 25.7 1.14 M0.77 29.82 C9.81 19.71, 19.04 8.61, 25.7 1.14 M2.48 33.95 C11.6 24.13, 18.01 13.94, 30.69 1.5 M2.48 33.95 C9.87 26.31, 17.49 17.15, 30.69 1.5 M4.18 38.09 C14.63 26.04, 25.08 13.17, 35.68 1.86 M4.18 38.09 C12.68 28.95, 20 18.42, 35.68 1.86 M6.55 41.47 C21.1 24.57, 32.98 12.78, 40.01 2.98 M6.55 41.47 C15.84 31.7, 23.87 21.34, 40.01 2.98 M8.25 45.6 C14.9 35.79, 22.26 29.28, 43.03 5.6 M8.25 45.6 C16.29 36.1, 25.96 25.28, 43.03 5.6 M11.93 47.47 C22.13 36.31, 34.36 22.9, 45.39 8.98 M11.93 47.47 C19.02 38.37, 26.42 30.43, 45.39 8.98 M15.6 49.34 C26.3 38.72, 35.3 27.87, 48.41 11.6 M15.6 49.34 C22.88 39.87, 33.08 29.22, 48.41 11.6 M19.28 51.21 C27.72 39.56, 38.64 30.15, 51.43 14.23 M19.28 51.21 C28.49 41.3, 37.43 30.01, 51.43 14.23 M22.95 53.08 C31.2 46.02, 36.01 34.57, 52.48 19.12 M22.95 53.08 C31.89 43.35, 40.31 32.42, 52.48 19.12 M26.63 54.95 C37.3 42.84, 48.01 30.23, 52.87 24.76 M26.63 54.95 C34.26 46.51, 42.04 36.79, 52.87 24.76 M34.24 52.29 C40.64 47.21, 45.88 41.91, 53.92 29.65 M34.24 52.29 C39.27 47.39, 43.08 42, 53.92 29.65 M41.85 49.63 C44.85 47.12, 47.07 42.83, 49.07 41.33 M41.85 49.63 C43.82 47.35, 46.22 44.76, 49.07 41.33" stroke="#40c057" stroke-width="0.5" fill="none"></path><path d="M37.74 1.23 C43.02 3.21, 48.97 9.26, 51.66 14.65 C54.36 20.05, 55.24 28, 53.92 33.59 C52.6 39.19, 48.42 44.72, 43.75 48.22 C39.09 51.73, 31.85 55.01, 25.93 54.62 C20 54.22, 12.5 49.96, 8.21 45.85 C3.93 41.75, 0.68 35.6, 0.22 30 C-0.24 24.4, 2.12 17.24, 5.43 12.27 C8.74 7.3, 13.89 1.54, 20.08 0.18 C26.27 -1.19, 38.12 2.74, 42.57 4.06 C47.01 5.38, 46.91 7.57, 46.73 8.09 M28.36 0.72 C33.73 0.36, 41.61 2.25, 46.02 6.02 C50.43 9.78, 54.44 17.5, 54.83 23.29 C55.21 29.09, 51.72 35.79, 48.31 40.78 C44.89 45.76, 39.48 51.11, 34.33 53.2 C29.18 55.29, 22.44 55.78, 17.4 53.31 C12.36 50.84, 6.96 43.67, 4.09 38.4 C1.22 33.12, -0.86 26.97, 0.19 21.67 C1.24 16.36, 5.93 10.12, 10.4 6.56 C14.87 3, 23.79 1.07, 27.01 0.31 C30.24 -0.45, 29.35 1.34, 29.76 1.99" stroke="#000000" stroke-width="1" fill="none"></path></g><g stroke-linecap="round" transform="translate(6 641.25) rotate(0 27 27)"><path d="M8.05 7 C8.05 7, 8.05 7, 8.05 7 M8.05 7 C8.05 7, 8.05 7, 8.05 7 M2.54 19.44 C5.49 17.02, 9.02 12.18, 15.67 4.34 M2.54 19.44 C5.23 16.49, 8.34 12.14, 15.67 4.34 M2.28 25.83 C7.01 20.34, 12.61 13.5, 23.93 0.93 M2.28 25.83 C10.77 16.61, 18.25 7.68, 23.93 0.93 M3.33 30.72 C8.21 23.45, 12.71 17.76, 27.61 2.8 M3.33 30.72 C10.15 23.97, 15.47 17.56, 27.61 2.8 M4.38 35.61 C13.3 24.8, 21.4 16.82, 31.94 3.91 M4.38 35.61 C15.01 23.17, 24.24 13.06, 31.94 3.91 M4.12 42.01 C11.39 31.58, 23.79 19.73, 36.27 5.03 M4.12 42.01 C17.24 27.01, 29.75 12.5, 36.27 5.03 M7.14 44.63 C18.32 29.81, 32.83 15.23, 39.94 6.9 M7.14 44.63 C16.68 34.63, 24.9 24.72, 39.94 6.9 M10.16 47.26 C21.96 36.21, 31.47 21.14, 44.93 7.26 M10.16 47.26 C20.19 34.93, 31.34 22.77, 44.93 7.26 M13.83 49.13 C27.03 34.92, 40.01 18.96, 47.29 10.64 M13.83 49.13 C27.25 35.2, 39.49 18.85, 47.29 10.64 M16.85 51.75 C24.91 42.36, 35.2 30.33, 49 14.77 M16.85 51.75 C25.68 42.02, 33.12 32.46, 49 14.77 M19.87 54.38 C29.78 42.81, 35.27 34.45, 51.36 18.15 M19.87 54.38 C30.65 42.17, 40.24 31.47, 51.36 18.15 M25.52 53.98 C35.44 43.22, 44.83 30.78, 53.73 21.53 M25.52 53.98 C37.57 40.63, 48.28 28.8, 53.73 21.53 M30.5 54.34 C39.61 45.9, 48.57 33.75, 56.75 24.15 M30.5 54.34 C36.58 47.38, 42.09 41.47, 56.75 24.15 M38.11 51.68 C43.65 46.15, 46.02 41.4, 55.17 32.06 M38.11 51.68 C43.45 45.96, 48.18 40.5, 55.17 32.06" stroke="#40c057" stroke-width="0.5" fill="none"></path><path d="M25.25 0.54 C30.85 0.14, 38.76 2.87, 43.52 6.48 C48.28 10.09, 52.67 16.55, 53.8 22.19 C54.93 27.84, 53.02 35.39, 50.32 40.34 C47.62 45.28, 43.05 49.79, 37.61 51.84 C32.18 53.9, 23.33 54.28, 17.71 52.66 C12.09 51.05, 6.77 46.94, 3.89 42.14 C1 37.35, -0.31 29.75, 0.4 23.89 C1.1 18.02, 2.77 10.71, 8.11 6.94 C13.44 3.17, 27.29 1.72, 32.41 1.27 C37.53 0.82, 38.78 3.88, 38.82 4.24 M40.57 3.9 C45.27 6.4, 48.97 13.09, 50.91 18.14 C52.86 23.19, 54.01 29, 52.23 34.21 C50.45 39.42, 45.02 46.02, 40.21 49.42 C35.41 52.82, 28.73 55.18, 23.4 54.62 C18.07 54.05, 12.26 50.59, 8.22 46.02 C4.17 41.45, -0.61 33.24, -0.89 27.21 C-1.16 21.19, 2.64 14.54, 6.57 9.87 C10.51 5.2, 17.12 0.05, 22.72 -0.82 C28.31 -1.68, 37.1 3.72, 40.16 4.69 C43.21 5.65, 41.06 4.78, 41.04 4.96" stroke="#000000" stroke-width="1" fill="none"></path></g><g stroke-linecap="round" transform="translate(238 648.25) rotate(0 27 27)"><path d="M2.45 15.38 C2.45 15.38, 2.45 15.38, 2.45 15.38 M2.45 15.38 C2.45 15.38, 2.45 15.38, 2.45 15.38 M2.19 21.78 C7.75 16.57, 10.92 12.34, 17.28 4.42 M2.19 21.78 C9.25 14.01, 14.87 7.84, 17.28 4.42 M1.93 28.18 C8.67 20.39, 14.06 17.37, 22.92 4.03 M1.93 28.18 C8.38 20.7, 15.12 11.96, 22.92 4.03 M2.32 33.82 C6.82 25.93, 12.91 19.66, 28.57 3.63 M2.32 33.82 C8.3 26.88, 14.62 20.14, 28.57 3.63 M4.69 37.2 C12.39 27.47, 22.88 16.87, 34.87 2.48 M4.69 37.2 C13.04 26.11, 23.75 15.87, 34.87 2.48 M7.05 40.58 C19.3 28.37, 30.18 14.99, 38.54 4.35 M7.05 40.58 C14.7 31.44, 22.87 21.79, 38.54 4.35 M9.41 43.96 C21.26 31.02, 33.34 15.05, 42.22 6.22 M9.41 43.96 C19.06 32.92, 28.75 22.19, 42.22 6.22 M11.78 47.34 C21.22 37.49, 26.64 28.45, 45.23 8.85 M11.78 47.34 C19.98 37.76, 28.35 29.39, 45.23 8.85 M14.14 50.72 C25.91 38.4, 35.98 26.08, 48.91 10.72 M14.14 50.72 C25.69 38.09, 34.77 26.95, 48.91 10.72 M18.47 51.83 C29.17 40.98, 37.21 29.38, 51.93 13.34 M18.47 51.83 C27.61 40.61, 36.91 29.58, 51.93 13.34 M22.8 52.95 C29.09 41.64, 38.6 34.96, 53.63 17.47 M22.8 52.95 C32.3 41.26, 43.3 30.79, 53.63 17.47 M27.13 54.06 C34.34 45.62, 39.89 41.44, 54.69 22.36 M27.13 54.06 C32.05 47.93, 38.49 40.66, 54.69 22.36 M31.46 55.17 C41.38 46.62, 47.59 32.98, 55.74 27.25 M31.46 55.17 C36.31 48.95, 42.23 43.12, 55.74 27.25 M41.7 49.5 C47.43 41.38, 53.94 35.16, 57.44 31.38 M41.7 49.5 C45.56 45.27, 49.67 39.62, 57.44 31.38" stroke="#40c057" stroke-width="0.5" fill="none"></path><path d="M15.39 2.65 C20.25 0.09, 28.21 -0.22, 33.85 1.08 C39.5 2.37, 45.85 5.73, 49.28 10.42 C52.72 15.11, 54.94 23.49, 54.46 29.21 C53.98 34.93, 50.44 40.65, 46.4 44.73 C42.36 48.81, 35.73 52.87, 30.2 53.69 C24.66 54.51, 17.87 52.99, 13.17 49.68 C8.46 46.37, 3.76 39.5, 1.96 33.81 C0.15 28.12, -0.65 21.09, 2.32 15.53 C5.29 9.98, 16.09 2.92, 19.77 0.47 C23.46 -1.98, 24.38 0.12, 24.44 0.83 M32.42 -0.78 C38.06 -0.32, 45.41 4.85, 48.78 9.35 C52.15 13.85, 52.93 20.3, 52.64 26.21 C52.35 32.12, 50.37 40.02, 47.02 44.82 C43.66 49.63, 37.91 54.28, 32.5 55.05 C27.09 55.81, 19.78 52.47, 14.54 49.44 C9.31 46.4, 3.3 41.95, 1.1 36.84 C-1.1 31.73, -0.51 24.27, 1.34 18.77 C3.2 13.27, 6.92 6.66, 12.23 3.84 C17.54 1.02, 29.76 2.08, 33.2 1.85 C36.65 1.61, 33.2 2.03, 32.9 2.45" stroke="#000000" stroke-width="1" fill="none"></path></g><g stroke-linecap="round" transform="translate(662 652.25) rotate(0 27 27)"><path d="M9.16 6.63 C9.16 6.63, 9.16 6.63, 9.16 6.63 M9.16 6.63 C9.16 6.63, 9.16 6.63, 9.16 6.63 M-0.29 23.6 C5.13 17.5, 11.5 11.06, 16.77 3.98 M-0.29 23.6 C2.78 19.49, 7.43 13.97, 16.77 3.98 M0.76 28.49 C5.85 22.06, 15.68 13.15, 24.38 1.32 M0.76 28.49 C7.71 20.57, 13.44 11.97, 24.38 1.32 M1.81 33.38 C9.69 22.22, 19.16 10.9, 29.37 1.68 M1.81 33.38 C9.39 24.92, 17.19 15.39, 29.37 1.68 M2.86 38.26 C11.69 28.87, 19.66 20.64, 33.7 2.79 M2.86 38.26 C12.69 27.36, 23.4 15.34, 33.7 2.79 M4.57 42.4 C18.66 27.43, 31.51 13, 37.37 4.66 M4.57 42.4 C16.56 28.53, 28.09 16.94, 37.37 4.66 M7.59 45.02 C18.27 33.45, 25.9 23.33, 41.7 5.78 M7.59 45.02 C14.39 37.11, 21.54 28.25, 41.7 5.78 M10.61 47.65 C19.88 34.64, 30 24.02, 45.38 7.65 M10.61 47.65 C20.26 36.53, 31.07 25.74, 45.38 7.65 M13.63 50.27 C26.65 35.34, 39.67 22.13, 47.08 11.78 M13.63 50.27 C20.19 41.24, 28.24 32.71, 47.08 11.78 M16.64 52.89 C25.38 42.42, 33.34 32.37, 49.45 15.16 M16.64 52.89 C25.68 41.66, 34.94 30.99, 49.45 15.16 M21.63 53.25 C29.68 41.75, 42.39 30.39, 51.15 19.29 M21.63 53.25 C30.6 43.46, 40.81 31.05, 51.15 19.29 M27.27 52.86 C34.7 43.1, 46.38 30.97, 53.52 22.67 M27.27 52.86 C34.48 45.06, 40.57 38.33, 53.52 22.67 M32.26 53.22 C41.49 42.9, 45.64 33.98, 53.26 29.07 M32.26 53.22 C39.18 45.56, 46.49 37.33, 53.26 29.07 M43.15 46.79 C45.28 43.6, 48.74 39.42, 52.34 36.22 M43.15 46.79 C45.78 43.88, 47.41 41.74, 52.34 36.22" stroke="#40c057" stroke-width="0.5" fill="none"></path><path d="M27.22 0.65 C32.94 0.42, 40.72 3.48, 45.05 7.25 C49.39 11.02, 52.27 17.7, 53.23 23.26 C54.19 28.83, 53.85 35.75, 50.82 40.64 C47.78 45.52, 40.63 50.47, 35.03 52.56 C29.43 54.66, 22.47 55.14, 17.22 53.2 C11.96 51.26, 6.45 46.13, 3.5 40.92 C0.56 35.72, -1.41 27.71, -0.46 21.99 C0.49 16.26, 4.47 10.15, 9.2 6.58 C13.93 3.02, 24.48 1.58, 27.91 0.61 C31.33 -0.36, 29.5 0.36, 29.75 0.77 M25.73 1.03 C31.05 0.34, 39.44 1.48, 43.93 4.92 C48.43 8.35, 51.54 15.58, 52.69 21.65 C53.83 27.72, 53.3 36.05, 50.8 41.36 C48.31 46.66, 43.38 51.72, 37.73 53.48 C32.08 55.24, 22.49 54.11, 16.93 51.9 C11.36 49.69, 6.92 45.38, 4.35 40.23 C1.78 35.09, 0.58 26.42, 1.5 21.01 C2.42 15.6, 5.39 11.07, 9.87 7.77 C14.35 4.47, 25.26 2.39, 28.36 1.21 C31.45 0.02, 28.45 0.2, 28.43 0.65" stroke="#000000" stroke-width="1" fill="none"></path></g><g stroke-linecap="round" transform="translate(437 648.75) rotate(0 27 27)"><path d="M2.27 16.54 C2.27 16.54, 2.27 16.54, 2.27 16.54 M2.27 16.54 C2.27 16.54, 2.27 16.54, 2.27 16.54 M2 22.94 C7.5 17.15, 12.69 11.35, 19.06 3.32 M2 22.94 C6.45 18.2, 9.5 13.59, 19.06 3.32 M1.74 29.34 C8.46 24.58, 12.72 16.87, 25.36 2.17 M1.74 29.34 C10.35 18.49, 18.28 9.7, 25.36 2.17 M2.14 34.98 C9.5 24.99, 16.66 16.61, 31.66 1.02 M2.14 34.98 C13.35 22.63, 23.51 10.03, 31.66 1.02 M4.5 38.36 C15.21 26.8, 27.03 13.47, 35.99 2.14 M4.5 38.36 C16.65 25.69, 27.64 13.88, 35.99 2.14 M7.52 40.99 C13.54 34.81, 20.11 26.44, 39.01 4.76 M7.52 40.99 C18.26 28.45, 31.25 14.33, 39.01 4.76 M9.88 44.37 C17.37 34.05, 26.3 23.26, 42.69 6.63 M9.88 44.37 C21.99 30.77, 33.15 16.82, 42.69 6.63 M12.24 47.74 C21.94 34.64, 34.04 20.8, 45.7 9.25 M12.24 47.74 C19.47 40.35, 27.01 31.92, 45.7 9.25 M15.92 49.61 C26.1 38.5, 38.02 22.21, 49.38 11.12 M15.92 49.61 C26.06 37.45, 36.74 24.92, 49.38 11.12 M20.25 50.73 C26.95 41.57, 34.08 33.96, 50.43 16.01 M20.25 50.73 C30.68 38.02, 41.66 26.27, 50.43 16.01 M24.58 51.84 C34.69 41.32, 44.93 29.76, 52.14 20.15 M24.58 51.84 C35.26 41.38, 43.3 29.93, 52.14 20.15 M28.91 52.96 C35.78 47.14, 40.29 36.9, 53.19 25.03 M28.91 52.96 C38.34 41.99, 48.83 31.53, 53.19 25.03 M34.56 52.56 C39.19 43.62, 45.21 38.86, 52.27 32.19 M34.56 52.56 C40.53 46.26, 45.92 40.77, 52.27 32.19 M45.45 46.13 C46.46 44.96, 47.19 43.75, 48.07 43.11 M45.45 46.13 C46.29 45.02, 47.34 43.99, 48.07 43.11" stroke="#40c057" stroke-width="0.5" fill="none"></path><path d="M14.9 3.55 C19.6 0.62, 27.53 -1.1, 33.17 0.14 C38.81 1.37, 45.31 6.48, 48.73 10.98 C52.16 15.47, 53.99 21.43, 53.73 27.08 C53.47 32.73, 50.81 40.42, 47.16 44.88 C43.5 49.34, 37.42 53.15, 31.82 53.84 C26.22 54.52, 18.64 52.18, 13.58 48.98 C8.52 45.78, 3.31 40.08, 1.47 34.63 C-0.38 29.18, -0.11 21.69, 2.49 16.29 C5.09 10.89, 14.3 4.48, 17.07 2.23 C19.85 -0.03, 18.98 2.37, 19.12 2.77 M34.13 0.32 C39.23 1.28, 44.02 5.13, 47.22 9.88 C50.43 14.63, 53.29 22.67, 53.36 28.83 C53.43 35, 51.3 42.86, 47.64 46.87 C43.98 50.89, 37.37 52.33, 31.39 52.91 C25.41 53.48, 16.87 53.15, 11.78 50.33 C6.69 47.51, 2.68 41.57, 0.85 35.96 C-0.98 30.36, -1.75 21.97, 0.8 16.7 C3.36 11.43, 10.6 6.76, 16.18 4.35 C21.77 1.93, 31.49 2.49, 34.31 2.19 C37.13 1.89, 33.19 2.5, 33.09 2.55" stroke="#000000" stroke-width="1" fill="none"></path></g><g stroke-linecap="round"><g transform="translate(346 363.75) rotate(0 -80 56)"><path d="M0.04 -1.18 C-26.51 17.63, -132.82 92.78, -159.36 111.72 M-1.4 0.82 C-28.04 19.9, -133.61 94.86, -159.98 113.11" stroke="#000000" stroke-width="1" fill="none"></path></g></g><mask></mask><g stroke-linecap="round"><g transform="translate(144 510.75) rotate(0 -52 66.5)"><path d="M-1.18 0.64 C-18.37 22.93, -87.22 111.59, -104.28 133.78 M0.4 -0.07 C-16.88 21.88, -87.96 110.08, -105.38 132.06" stroke="#000000" stroke-width="1" fill="none"></path></g></g><mask></mask><g stroke-linecap="round"><g transform="translate(180 515.75) rotate(0 37 67.5)"><path d="M0.64 -0.28 C13.09 22.48, 62.42 112.97, 74.78 135.43 M-0.49 -1.48 C11.88 21.03, 61.76 110.7, 74.24 133.53" stroke="#000000" stroke-width="1" fill="none"></path></g></g><mask></mask><g stroke-linecap="round"><g transform="translate(391 366.75) rotate(0 79.5 67.5)"><path d="M-0.28 0.78 C26.48 23.3, 132.97 113.29, 159.43 135.76 M1.77 0.14 C28.52 22.27, 132.76 111.8, 158.7 134.04" stroke="#000000" stroke-width="1" fill="none"></path></g></g><mask></mask><g stroke-linecap="round"><g transform="translate(547 547.75) rotate(0 -34.5 52)"><path d="M0.78 0.43 C-10.7 17.72, -56.71 86.08, -68.24 103.47 M-0.27 -0.4 C-11.9 17.08, -57.35 87.53, -68.78 104.74" stroke="#000000" stroke-width="1" fill="none"></path></g></g><mask></mask><g stroke-linecap="round"><g transform="translate(585 546.75) rotate(0 51 53)"><path d="M0.43 0.76 C17.39 18.4, 84.41 89.12, 101.47 106.61 M-0.81 0.12 C15.97 17.34, 83.04 87.02, 100.25 104.8" stroke="#000000" stroke-width="1" fill="none"></path></g></g><mask></mask><g stroke-linecap="round" transform="translate(701 485.25) rotate(0 27 27)"><path d="M1.77 16.12 C1.77 16.12, 1.77 16.12, 1.77 16.12 M1.77 16.12 C1.77 16.12, 1.77 16.12, 1.77 16.12 M1.51 22.51 C6.3 15.65, 13.4 6.9, 18.57 2.89 M1.51 22.51 C8.97 14.97, 14.98 6.85, 18.57 2.89 M1.25 28.91 C8.79 23.38, 14.64 13.12, 24.21 2.5 M1.25 28.91 C8.77 21.88, 15.69 13.73, 24.21 2.5 M0.99 35.31 C12.78 22.56, 23.82 9.39, 30.51 1.35 M0.99 35.31 C12.26 23.92, 21.82 10.19, 30.51 1.35 M4.01 37.93 C12.64 27.51, 24.07 12.89, 35.5 1.71 M4.01 37.93 C11.53 28.95, 20.41 19.11, 35.5 1.71 M6.37 41.31 C12.89 33.08, 21.49 23.76, 38.52 4.33 M6.37 41.31 C18.59 27.52, 31.21 13.73, 38.52 4.33 M8.73 44.69 C20.16 31.61, 36.3 15.39, 42.19 6.2 M8.73 44.69 C16.71 35.46, 25.49 25.39, 42.19 6.2 M11.1 48.07 C25.58 32.5, 37.53 18.7, 45.87 8.07 M11.1 48.07 C20.59 34.63, 31.96 23.07, 45.87 8.07 M14.12 50.7 C22.79 38.71, 33.88 27.4, 48.89 10.7 M14.12 50.7 C26.77 35.72, 41.1 18.93, 48.89 10.7 M18.45 51.81 C23.93 44.2, 33.4 34.41, 50.59 14.83 M18.45 51.81 C31.28 36.94, 43 23.99, 50.59 14.83 M22.78 52.93 C33.29 41.82, 41.88 30.68, 51.64 19.72 M22.78 52.93 C33.91 40.11, 45.45 27.03, 51.64 19.72 M27.11 54.04 C35.53 41.12, 47.95 32.02, 52.69 24.61 M27.11 54.04 C35.09 45, 42.73 37.37, 52.69 24.61 M32.75 53.65 C41.81 44.34, 48 37.88, 53.75 29.49 M32.75 53.65 C38.46 47.27, 44.08 39.1, 53.75 29.49 M42.33 48.72 C43.3 46.37, 45.87 44.78, 48.89 41.18 M42.33 48.72 C44.7 46.76, 46.49 44.6, 48.89 41.18" stroke="#40c057" stroke-width="0.5" fill="none"></path><path d="M33.68 0.84 C39.04 1.58, 45.81 5.53, 49.14 10.31 C52.47 15.1, 54.05 23.55, 53.65 29.54 C53.25 35.53, 50.71 42.02, 46.74 46.23 C42.77 50.44, 35.57 54.2, 29.83 54.79 C24.1 55.39, 17.19 53.18, 12.33 49.8 C7.47 46.43, 2.37 40.22, 0.65 34.55 C-1.06 28.88, -0.33 21, 2.07 15.78 C4.46 10.57, 9.19 5.43, 15.01 3.25 C20.83 1.08, 32.68 2.5, 36.98 2.72 C41.28 2.94, 41.01 4.4, 40.81 4.59 M18.13 2.42 C23.23 0.64, 31.73 1.01, 37.13 2.85 C42.54 4.69, 48.04 8.56, 50.57 13.46 C53.1 18.36, 53.49 26.67, 52.32 32.24 C51.14 37.8, 48 43.35, 43.52 46.86 C39.04 50.36, 31.19 53.04, 25.44 53.26 C19.69 53.49, 13.22 52.06, 9.05 48.22 C4.87 44.38, 1.48 35.9, 0.4 30.24 C-0.68 24.57, -0.33 19.18, 2.54 14.25 C5.42 9.32, 15.22 2.56, 17.66 0.66 C20.1 -1.24, 17.14 2.5, 17.2 2.83" stroke="#000000" stroke-width="1" fill="none"></path></g><g stroke-linecap="round"><g transform="translate(619 378.75) rotate(0 46.806354927085295 55.95868533644824)"><path d="M0.89 0.6 C16.48 19.55, 78.77 94.28, 94.23 112.83 M-0.11 -0.13 C15.33 18.58, 78.11 92.3, 93.6 111.19" stroke="#000000" stroke-width="1" fill="none"></path></g></g><mask></mask><g stroke-linecap="round"><g transform="translate(365 379.5) rotate(0 12.910953771444042 68.92018934395162)"><path d="M0.07 0.92 C4.26 24.13, 20.76 115.74, 25.24 138.68 M-1.36 0.36 C3.22 23.29, 22.96 114.29, 27.64 137" stroke="#000000" stroke-width="1" fill="none"></path></g></g><mask></mask><g stroke-linecap="round" transform="translate(365 518) rotate(0 27 27)"><path d="M3.13 14.65 C3.13 14.65, 3.13 14.65, 3.13 14.65 M3.13 14.65 C3.13 14.65, 3.13 14.65, 3.13 14.65 M2.21 21.8 C6.54 16.82, 9.36 12.26, 19.93 1.42 M2.21 21.8 C8.73 15.61, 12.97 8.89, 19.93 1.42 M1.95 28.2 C12.09 18.27, 20.16 9.69, 24.91 1.78 M1.95 28.2 C7.75 19.62, 15.97 13.44, 24.91 1.78 M2.35 33.84 C8.56 24.86, 17.62 14.79, 30.56 1.39 M2.35 33.84 C13.75 21.26, 24.8 9.16, 30.56 1.39 M4.71 37.22 C11.92 29.97, 18.92 24.2, 35.54 1.75 M4.71 37.22 C12.28 28.54, 18.47 22, 35.54 1.75 M7.07 40.6 C20.51 25.57, 31.36 12.06, 38.56 4.37 M7.07 40.6 C16.25 29.5, 26.99 16.67, 38.56 4.37 M9.44 43.98 C17.72 34.58, 24.58 29.05, 42.24 6.24 M9.44 43.98 C21.42 30.54, 33.08 16.59, 42.24 6.24 M11.14 48.11 C23.23 35.07, 35.12 19.31, 45.26 8.87 M11.14 48.11 C20.9 38.02, 28.28 29.36, 45.26 8.87 M15.47 49.23 C23.62 36.58, 33.27 28.57, 48.28 11.49 M15.47 49.23 C25.74 35.98, 37.35 23.23, 48.28 11.49 M19.15 51.1 C24.28 41.64, 31.07 35.86, 50.64 14.87 M19.15 51.1 C30.14 38.54, 41.66 24.67, 50.64 14.87 M22.82 52.96 C31.26 44.97, 37.66 35.41, 51.69 19.76 M22.82 52.96 C33.59 40.53, 43.4 30.25, 51.69 19.76 M26.5 54.83 C36.27 46.65, 44.68 34.23, 52.74 24.65 M26.5 54.83 C31.98 47.76, 37.64 41.94, 52.74 24.65 M33.45 52.93 C42.98 43.46, 50.68 35.56, 53.79 29.53 M33.45 52.93 C40.29 44.27, 47.49 36.06, 53.79 29.53 M41.72 49.52 C43.96 46.07, 45.97 44.34, 47.62 42.72 M41.72 49.52 C42.82 48.19, 44.35 46.06, 47.62 42.72" stroke="#40c057" stroke-width="0.5" fill="none"></path><path d="M34.93 0.98 C39.98 2.33, 46.1 7.29, 49.25 12.26 C52.41 17.22, 54.63 24.86, 53.87 30.76 C53.1 36.66, 49.13 43.67, 44.68 47.67 C40.23 51.67, 32.73 54.75, 27.16 54.75 C21.59 54.74, 15.55 51.42, 11.25 47.65 C6.94 43.88, 2.67 37.66, 1.34 32.13 C0 26.61, 0.49 19.71, 3.24 14.52 C5.99 9.32, 12.42 3.11, 17.84 0.97 C23.27 -1.17, 32.52 1.41, 35.79 1.68 C39.06 1.96, 37.48 2.09, 37.48 2.63 M20.32 2.04 C25.86 0.27, 35.28 -0.53, 40.35 2.04 C45.42 4.61, 48.72 12.08, 50.75 17.47 C52.77 22.85, 54.26 28.77, 52.51 34.35 C50.76 39.93, 44.93 47.84, 40.25 50.93 C35.57 54.02, 29.89 53.67, 24.43 52.89 C18.98 52.11, 11.75 50.16, 7.53 46.25 C3.31 42.33, -0.61 35.12, -0.88 29.39 C-1.15 23.66, 2.05 16.79, 5.89 11.87 C9.73 6.95, 19.56 1.5, 22.16 -0.13 C24.76 -1.76, 21.54 1.44, 21.5 2.1" stroke="#000000" stroke-width="1" fill="none"></path></g><g stroke-linecap="round" transform="translate(239 234.5) rotate(0 27 27)"><path d="M3.29 14.78 C3.29 14.78, 3.29 14.78, 3.29 14.78 M3.29 14.78 C3.29 14.78, 3.29 14.78, 3.29 14.78 M2.37 21.94 C7.09 18.7, 10 14.55, 18.77 3.07 M2.37 21.94 C8.74 14.87, 15.54 7.69, 18.77 3.07 M2.11 28.33 C10.11 20.04, 17.35 9.01, 23.76 3.43 M2.11 28.33 C10.48 19.92, 17.06 10.24, 23.76 3.43 M2.5 33.98 C9.32 22.12, 20.58 13.21, 28.75 3.79 M2.5 33.98 C8.55 28.44, 12.83 22.22, 28.75 3.79 M4.21 38.11 C15.63 24.97, 27.74 11.21, 35.7 1.88 M4.21 38.11 C12.22 28.82, 20.6 19.42, 35.7 1.88 M6.57 41.49 C16.98 33.82, 23.73 21.84, 38.72 4.51 M6.57 41.49 C18.38 26.42, 30.4 12.22, 38.72 4.51 M8.94 44.87 C21.99 28.68, 33.63 14.83, 41.74 7.13 M8.94 44.87 C19.35 31.99, 29.25 19.95, 41.74 7.13 M10.64 49 C20.61 35.48, 33.89 22.67, 44.76 9.76 M10.64 49 C18.97 39.13, 28.51 28.41, 44.76 9.76 M14.97 50.12 C26.21 38.18, 36.09 24.4, 48.43 11.63 M14.97 50.12 C26.43 37.32, 39.16 23.71, 48.43 11.63 M18.65 51.99 C26.53 41.08, 35.49 30.62, 51.45 14.25 M18.65 51.99 C29.89 39.86, 40.6 26.81, 51.45 14.25 M22.98 53.1 C32.01 40.4, 42.76 28.42, 52.5 19.14 M22.98 53.1 C28.49 45.29, 35.29 37.15, 52.5 19.14 M27.31 54.22 C34.88 42.83, 45.78 33.36, 54.21 23.27 M27.31 54.22 C35.84 44.93, 42.61 35.47, 54.21 23.27 M30.98 56.08 C39.61 44.88, 50.43 33.64, 55.26 28.16 M30.98 56.08 C41.16 45, 50.88 34.79, 55.26 28.16 M39.91 51.92 C44.74 44.28, 51.61 41.15, 56.97 32.29 M39.91 51.92 C47.17 44.01, 52.3 36.62, 56.97 32.29" stroke="#40c057" stroke-width="0.5" fill="none"></path><path d="M15.99 1.28 C20.96 -1.04, 30.2 -0.06, 35.72 1.84 C41.23 3.73, 45.96 7.98, 49.09 12.64 C52.21 17.29, 54.95 24.02, 54.46 29.74 C53.98 35.47, 50.38 42.84, 46.18 46.99 C41.97 51.14, 35.23 54.35, 29.23 54.64 C23.23 54.92, 14.85 52.26, 10.19 48.68 C5.54 45.1, 2.44 38.83, 1.3 33.17 C0.16 27.51, 0.35 20.07, 3.34 14.72 C6.34 9.37, 16.29 3.41, 19.26 1.07 C22.23 -1.27, 21.02 0.15, 21.17 0.67 M28.69 -1.25 C34.29 -1.65, 41.47 1.59, 45.65 5.38 C49.83 9.17, 53.23 15.45, 53.76 21.52 C54.3 27.59, 51.81 36.67, 48.85 41.81 C45.9 46.95, 41.41 50.6, 36.04 52.35 C30.66 54.1, 21.95 54.42, 16.6 52.31 C11.25 50.2, 6.53 44.58, 3.94 39.7 C1.35 34.81, -0.05 28.83, 1.08 22.99 C2.21 17.15, 6.22 8.35, 10.72 4.68 C15.22 1.01, 25.41 1.66, 28.1 0.95 C30.79 0.25, 26.79 0.22, 26.86 0.47" stroke="#000000" stroke-width="1" fill="none"></path></g><g stroke-linecap="round"><g transform="translate(470.9631897624769 174.54172358326616) rotate(0 -92.4683131352067 34.10230090535245)"><path d="M-0.81 -0.96 C-31.72 10.26, -153.51 56.65, -184.3 68.01 M0.96 1.15 C-30.14 12.5, -153.64 58.31, -184.91 69.45" stroke="#000000" stroke-width="1" fill="none"></path></g></g><mask></mask><g stroke-linecap="round"><g transform="translate(694.8760847549265 58.820538388627284) rotate(0 -1.659129028720713 90.21601168068126)"><path d="M0.2 0.51 C-0.36 30.56, -1.74 150.12, -2.44 180.24 M-1.15 -0.27 C-1.88 29.98, -2.27 151.75, -2.93 181.68" stroke="#000000" stroke-width="1" fill="none"></path></g></g><mask></mask><g stroke-linecap="round" transform="translate(665.833333333333 241.16666666666669) rotate(0 27 27)"><path d="M5.29 11.22 C5.29 11.22, 5.29 11.22, 5.29 11.22 M5.29 11.22 C5.29 11.22, 5.29 11.22, 5.29 11.22 M3.06 19.88 C7.83 12.87, 15.48 7.66, 18.15 2.53 M3.06 19.88 C7.99 14.47, 13.73 6.68, 18.15 2.53 M0.83 28.55 C7.74 18.38, 17.27 9.09, 24.45 1.38 M0.83 28.55 C9.83 20.54, 17.79 11.35, 24.45 1.38 M2.54 32.68 C11.65 23.93, 19.73 10.24, 28.78 2.49 M2.54 32.68 C11.13 21.75, 20.64 10.21, 28.78 2.49 M4.24 36.81 C13.86 28.19, 21.65 16.39, 33.76 2.85 M4.24 36.81 C15.51 24.23, 25.31 11.99, 33.76 2.85 M5.95 40.95 C14.76 27.69, 25.27 18.04, 38.1 3.97 M5.95 40.95 C12.63 33.11, 19.39 24.14, 38.1 3.97 M7 45.84 C17.49 35.63, 26.62 21.35, 41.11 6.59 M7 45.84 C18.24 33.71, 29.88 20.01, 41.11 6.59 M10.67 47.7 C25.51 33.55, 37.31 17.32, 44.13 9.21 M10.67 47.7 C17.47 40.36, 24.67 32.17, 44.13 9.21 M14.35 49.57 C28.69 35.89, 39.14 20.64, 46.5 12.59 M14.35 49.57 C23.45 38.66, 32.89 28.16, 46.5 12.59 M18.68 50.69 C29.23 42.15, 35.57 29.77, 49.52 15.22 M18.68 50.69 C27.14 39.95, 36.59 29.04, 49.52 15.22 M22.36 52.56 C28.73 44.86, 40.09 33.85, 51.88 18.6 M22.36 52.56 C30.61 41.21, 39.16 31.36, 51.88 18.6 M26.69 53.67 C35.28 43.04, 47.31 31.66, 52.93 23.48 M26.69 53.67 C33.58 45.38, 40.7 38.49, 52.93 23.48 M33.64 51.77 C38.69 44.68, 43.09 39.56, 53.32 29.13 M33.64 51.77 C37.42 46.24, 42.34 42.33, 53.32 29.13 M40.6 49.87 C46.04 45.9, 50.26 36.93, 54.37 34.02 M40.6 49.87 C46.24 42.89, 51.58 37.71, 54.37 34.02" stroke="#40c057" stroke-width="0.5" fill="none"></path><path d="M37.85 3.39 C42.98 5.7, 48.57 11.59, 51.22 16.69 C53.87 21.78, 55.43 28.5, 53.76 33.97 C52.08 39.44, 45.96 46.2, 41.17 49.51 C36.37 52.82, 30.68 54.45, 24.98 53.81 C19.27 53.16, 10.97 49.81, 6.93 45.65 C2.9 41.49, 1.04 34.58, 0.75 28.85 C0.47 23.12, 1.97 15.93, 5.23 11.29 C8.49 6.65, 14.17 2.07, 20.3 0.99 C26.42 -0.1, 37.92 3.61, 41.99 4.78 C46.05 5.95, 44.91 7.73, 44.68 8 M22.02 0.67 C27.26 -1.25, 35.26 -0.55, 40.38 1.88 C45.5 4.32, 50.7 9.82, 52.74 15.27 C54.77 20.73, 54.22 28.81, 52.59 34.62 C50.96 40.44, 47.67 46.98, 42.98 50.17 C38.28 53.35, 30.14 54.67, 24.43 53.74 C18.71 52.81, 12.85 48.81, 8.71 44.59 C4.57 40.37, 0.15 33.82, -0.4 28.41 C-0.94 23, 1.68 16.66, 5.43 12.14 C9.17 7.62, 19.63 3.29, 22.09 1.31 C24.55 -0.67, 20.42 0.01, 20.19 0.25" stroke="#000000" stroke-width="1" fill="none"></path></g><g stroke-linecap="round" transform="translate(1125.7658730158737 486.44444444444457) rotate(0 27 27)"><path d="M10.21 4.9 C10.21 4.9, 10.21 4.9, 10.21 4.9 M10.21 4.9 C10.21 4.9, 10.21 4.9, 10.21 4.9 M1.42 21.11 C5.38 15.79, 10.81 11.06, 16.51 3.75 M1.42 21.11 C5.66 15.66, 10.75 11.49, 16.51 3.75 M1.82 26.75 C6.39 20.91, 14.28 11.3, 23.47 1.85 M1.82 26.75 C9.19 18.16, 16.68 11.58, 23.47 1.85 M2.87 31.64 C9.54 24.68, 14.35 16.71, 28.45 2.21 M2.87 31.64 C9.89 24.2, 16.42 16.22, 28.45 2.21 M3.92 36.53 C16.42 25.52, 25.95 8.58, 32.79 3.32 M3.92 36.53 C11.12 27.76, 18.02 19.97, 32.79 3.32 M5.63 40.67 C17.34 24.97, 30.36 11.09, 36.46 5.19 M5.63 40.67 C16.51 27.8, 26.52 15.98, 36.46 5.19 M8.64 43.29 C17.08 34.94, 22.08 25.91, 40.79 6.31 M8.64 43.29 C16.63 33.47, 27.08 22.68, 40.79 6.31 M11.66 45.91 C19.93 34.05, 31.61 21.72, 44.47 8.18 M11.66 45.91 C22.25 33.79, 32.42 21.18, 44.47 8.18 M14.03 49.29 C24.07 38.24, 32.64 25.49, 48.14 10.05 M14.03 49.29 C22.22 40.22, 29.17 31.9, 48.14 10.05 M17.04 51.92 C29.2 34.59, 42.85 21.93, 50.5 13.43 M17.04 51.92 C28.94 38.38, 38.97 25.55, 50.5 13.43 M22.03 52.28 C28.67 44.51, 36.95 36.12, 52.87 16.81 M22.03 52.28 C31.71 40.51, 41.69 30.4, 52.87 16.81 M27.02 52.64 C33.76 45.34, 40.88 38.56, 54.57 20.94 M27.02 52.64 C33.12 44.85, 40.95 36.04, 54.57 20.94 M32.01 53 C42.78 42.21, 52.36 32.62, 56.28 25.07 M32.01 53 C38.76 46, 44.84 37.87, 56.28 25.07 M36.34 54.11 C42.67 47.96, 46.66 44.72, 53.39 34.49 M36.34 54.11 C39.16 49.29, 44.69 45.06, 53.39 34.49" stroke="#40c057" stroke-width="0.5" fill="none"></path><path d="M26.66 0.77 C32.26 0.81, 41.03 3.64, 45.69 7.38 C50.35 11.13, 53.96 17.8, 54.61 23.26 C55.26 28.71, 52.76 35.12, 49.61 40.12 C46.46 45.13, 41.19 51.42, 35.7 53.29 C30.22 55.17, 22.01 53.67, 16.72 51.36 C11.42 49.06, 6.59 44.54, 3.95 39.46 C1.31 34.38, -0.12 26.6, 0.88 20.89 C1.88 15.18, 5.16 8.67, 9.94 5.21 C14.72 1.76, 25.58 0.95, 29.56 0.17 C33.55 -0.61, 33.67 -0.02, 33.85 0.53 M28.69 -1.41 C34.49 -1.85, 42.35 1.99, 46.57 5.9 C50.8 9.81, 53.47 16.18, 54.05 22.04 C54.64 27.89, 53.3 36.12, 50.09 41.04 C46.88 45.95, 40.54 49.89, 34.79 51.53 C29.03 53.17, 20.77 53.08, 15.58 50.87 C10.39 48.65, 5.92 43.11, 3.64 38.25 C1.35 33.39, 0.71 27.08, 1.85 21.73 C3 16.37, 6.18 9.88, 10.49 6.13 C14.8 2.39, 24.75 0.02, 27.7 -0.75 C30.65 -1.51, 28.16 0.93, 28.19 1.56" stroke="#000000" stroke-width="1" fill="none"></path></g><g stroke-linecap="round" transform="translate(900.7658730158737 482.94444444444457) rotate(0 27 27)"><path d="M13.28 2.27 C13.28 2.27, 13.28 2.27, 13.28 2.27 M13.28 2.27 C13.28 2.27, 13.28 2.27, 13.28 2.27 M1.21 22.26 C6.39 16.22, 12.12 11.34, 18.27 2.63 M1.21 22.26 C6.73 16.14, 13.57 8.08, 18.27 2.63 M0.95 28.65 C8.89 21.08, 13.05 14.67, 23.91 2.24 M0.95 28.65 C6.1 22.81, 13.26 14.87, 23.91 2.24 M1.35 34.3 C9.63 23.88, 16.91 15.37, 29.56 1.84 M1.35 34.3 C8.64 26, 15.38 20.17, 29.56 1.84 M3.05 38.43 C13.99 27.33, 18.98 16.63, 34.54 2.2 M3.05 38.43 C9.56 29.91, 17.08 23.08, 34.54 2.2 M5.42 41.81 C12.36 32.21, 21.1 23.16, 37.56 4.83 M5.42 41.81 C14.71 30, 25.05 17.93, 37.56 4.83 M7.78 45.19 C18.37 31.8, 28.23 20.63, 41.24 6.7 M7.78 45.19 C21.44 30.95, 34.16 15.85, 41.24 6.7 M10.14 48.57 C16.74 40.67, 22.94 32.13, 44.91 8.57 M10.14 48.57 C20.75 36, 30.86 24.55, 44.91 8.57 M13.16 51.19 C26.61 34.89, 38.4 19.99, 48.59 10.44 M13.16 51.19 C23.95 38.35, 35.44 25.51, 48.59 10.44 M18.15 51.55 C27.2 38.37, 40.96 26.59, 50.29 14.57 M18.15 51.55 C26.17 40.75, 34.89 30.85, 50.29 14.57 M22.48 52.67 C30.79 44.62, 38.45 33.26, 52 18.7 M22.48 52.67 C31.84 41.66, 42.89 28.1, 52 18.7 M27.47 53.03 C37.77 42.63, 48.58 28.11, 53.71 22.84 M27.47 53.03 C36.61 43.03, 44.73 33.86, 53.71 22.84 M32.45 53.39 C39.68 46.54, 48.11 35.8, 55.41 26.97 M32.45 53.39 C41.53 43.5, 49.5 32.67, 55.41 26.97 M43.34 46.95 C44.91 45.13, 47.94 41.61, 49.9 39.41 M43.34 46.95 C45.73 44.49, 48.4 41.26, 49.9 39.41" stroke="#40c057" stroke-width="0.5" fill="none"></path><path d="M32.79 1.44 C38.54 2.42, 45.04 6.62, 48.66 10.85 C52.27 15.08, 54.8 21.2, 54.47 26.81 C54.14 32.43, 50.4 40.16, 46.67 44.54 C42.95 48.91, 37.83 52.01, 32.12 53.05 C26.4 54.09, 17.57 53.57, 12.37 50.78 C7.16 47.98, 2.82 41.86, 0.89 36.3 C-1.04 30.73, -1.22 22.99, 0.8 17.37 C2.81 11.76, 7.23 5.16, 13 2.6 C18.77 0.05, 31.29 1.85, 35.43 2.04 C39.56 2.23, 37.83 3.41, 37.79 3.74 M21.83 1.59 C26.89 0.45, 35.23 1.5, 40.13 4.4 C45.04 7.3, 49.34 13.59, 51.25 18.99 C53.15 24.39, 53.69 31.67, 51.56 36.8 C49.42 41.92, 43.65 46.9, 38.44 49.76 C33.23 52.63, 25.95 54.81, 20.29 53.99 C14.63 53.17, 7.78 49.49, 4.49 44.82 C1.21 40.15, 0.08 32.03, 0.59 25.97 C1.09 19.9, 3.85 12.72, 7.5 8.44 C11.15 4.17, 19.68 1.6, 22.49 0.3 C25.29 -1, 24.08 0.01, 24.33 0.65" stroke="#000000" stroke-width="1" fill="none"></path></g><g stroke-linecap="round"><g transform="translate(1010.7658730158737 381.94444444444457) rotate(0 -34.5 52)"><path d="M0.04 0.45 C-11.61 17.66, -58.84 85.56, -70.2 103.01 M-1.39 -0.36 C-12.68 16.99, -56.95 86.73, -68.11 104.03" stroke="#000000" stroke-width="1" fill="none"></path></g></g><mask></mask><g stroke-linecap="round"><g transform="translate(1048.7658730158737 380.94444444444457) rotate(0 51 53)"><path d="M0.45 -1.2 C17.33 16.61, 83.89 88.9, 101.01 106.92 M-0.77 0.79 C16.49 18.27, 85.91 87.9, 103.2 105.28" stroke="#000000" stroke-width="1" fill="none"></path></g></g><mask></mask><g stroke-linecap="round" transform="translate(1248.265873015874 637.6944444444446) rotate(0 27 27)"><path d="M11.91 5.06 C11.91 5.06, 11.91 5.06, 11.91 5.06 M11.91 5.06 C11.91 5.06, 11.91 5.06, 11.91 5.06 M1.81 22.77 C7.98 15.04, 14.49 10.29, 19.52 2.4 M1.81 22.77 C6.03 18.12, 10.48 13.71, 19.52 2.4 M2.86 27.66 C7.12 21.52, 14.69 13.19, 26.48 0.49 M2.86 27.66 C12.67 17.18, 21.89 7.29, 26.48 0.49 M3.26 33.31 C11.5 25.77, 18.18 15.79, 30.81 1.61 M3.26 33.31 C11.63 24.37, 18.84 16.76, 30.81 1.61 M3.65 38.95 C8.74 30.01, 19.22 22.22, 35.14 2.72 M3.65 38.95 C14.98 25.93, 24.54 13.06, 35.14 2.72 M6.67 41.57 C17.39 29.74, 25.95 19.09, 38.82 4.59 M6.67 41.57 C16.35 30.38, 24.8 21.19, 38.82 4.59 M9.03 44.95 C18.35 32.35, 30.53 17.18, 43.15 5.71 M9.03 44.95 C17.56 35.29, 25.24 26.64, 43.15 5.71 M12.05 47.58 C19.52 39.34, 25.03 30.15, 46.17 8.33 M12.05 47.58 C23.57 33.72, 36.38 20.28, 46.17 8.33 M14.41 50.96 C25.76 35.29, 41.78 20.81, 48.53 11.71 M14.41 50.96 C23.65 39.02, 33.81 28.59, 48.53 11.71 M18.09 52.83 C29.8 39.61, 40.9 25.02, 50.24 15.84 M18.09 52.83 C25.81 42.48, 36.26 34.08, 50.24 15.84 M23.08 53.19 C29.03 45.47, 39.31 34.13, 52.6 19.22 M23.08 53.19 C34.13 40.52, 45.75 27.4, 52.6 19.22 M28.72 52.79 C35.99 43.26, 45.88 32.42, 54.31 23.36 M28.72 52.79 C37.1 41.82, 46.88 32.65, 54.31 23.36 M34.36 52.4 C39.07 46.37, 41.41 42.42, 52.73 31.26 M34.36 52.4 C38.94 46.95, 45.74 39.46, 52.73 31.26 M47.22 43.7 C48.08 42.21, 50.17 40.4, 51.16 39.17 M47.22 43.7 C48.94 41.78, 50.31 40.15, 51.16 39.17" stroke="#40c057" stroke-width="0.5" fill="none"></path><path d="M27.74 -0.14 C33.21 -0.35, 40.67 2.74, 45.04 6.61 C49.41 10.48, 53.09 17.25, 53.95 23.1 C54.8 28.96, 53.45 36.83, 50.17 41.72 C46.88 46.61, 39.87 50.63, 34.21 52.46 C28.56 54.28, 21.36 55.03, 16.22 52.65 C11.08 50.27, 5.81 43.45, 3.39 38.18 C0.98 32.92, 0.33 26.52, 1.72 21.04 C3.1 15.56, 6.81 8.58, 11.71 5.29 C16.61 2, 27.34 1.93, 31.11 1.31 C34.87 0.68, 34.21 1.4, 34.3 1.55 M30.27 0.26 C35.62 0.61, 42 3.8, 45.95 8.19 C49.9 12.58, 53.33 20.73, 53.96 26.59 C54.58 32.46, 53.07 39.11, 49.7 43.37 C46.33 47.64, 39.56 51.1, 33.72 52.16 C27.87 53.22, 19.84 52.37, 14.63 49.73 C9.42 47.08, 4.44 41.65, 2.45 36.3 C0.46 30.95, 0.88 23.16, 2.69 17.61 C4.5 12.06, 8.49 5.77, 13.33 2.99 C18.18 0.22, 28.76 1.43, 31.79 0.95 C34.82 0.47, 32.02 -0.16, 31.5 0.11" stroke="#000000" stroke-width="1" fill="none"></path></g><g stroke-linecap="round" transform="translate(1023.2658730158739 634.1944444444446) rotate(0 27 27)"><path d="M7.28 7.65 C7.28 7.65, 7.28 7.65, 7.28 7.65 M7.28 7.65 C7.28 7.65, 7.28 7.65, 7.28 7.65 M3.08 18.58 C6.18 15.2, 12.24 6.52, 16.2 3.49 M3.08 18.58 C8.23 13.38, 13.64 6.12, 16.2 3.49 M0.85 27.24 C9.59 18.14, 16.16 10.95, 24.47 0.07 M0.85 27.24 C8.31 19.34, 16.34 9.57, 24.47 0.07 M1.9 32.13 C12.93 20.9, 21.55 7.65, 28.8 1.19 M1.9 32.13 C9.73 23.13, 18.85 12.61, 28.8 1.19 M2.95 37.02 C14.01 25.39, 26.24 10.68, 33.13 2.3 M2.95 37.02 C12.47 24.58, 22.12 13.76, 33.13 2.3 M4 41.91 C11.49 32.35, 20.15 21.39, 37.46 3.42 M4 41.91 C13.83 29.61, 25.61 17.83, 37.46 3.42 M6.37 45.29 C21.16 28.09, 33.43 11.9, 41.79 4.53 M6.37 45.29 C19.5 29.94, 33.64 12.48, 41.79 4.53 M10.04 47.16 C17.48 36.92, 23.93 31.45, 44.16 7.91 M10.04 47.16 C21 34.99, 32.34 23.46, 44.16 7.91 M13.72 49.02 C21.04 41.27, 29.56 30.44, 46.52 11.29 M13.72 49.02 C26.31 33.97, 40.41 19.65, 46.52 11.29 M16.74 51.65 C23.8 42.76, 29.52 35.96, 48.88 14.67 M16.74 51.65 C25.45 42.32, 36.1 30.7, 48.88 14.67 M20.41 53.52 C31.69 42.8, 39.39 32.91, 51.25 18.05 M20.41 53.52 C28.53 44.57, 36.19 36.25, 51.25 18.05 M26.05 53.12 C36.45 42.21, 45.54 29.78, 52.95 22.18 M26.05 53.12 C31.07 46.85, 37.93 38.75, 52.95 22.18 M32.35 51.97 C37.78 43.18, 45.32 35.61, 52.69 28.58 M32.35 51.97 C38.61 46.4, 42.83 39.4, 52.69 28.58 M38 51.58 C41.49 48.87, 43.91 44.72, 52.43 34.98 M38 51.58 C40.69 47.96, 44.29 44.17, 52.43 34.98" stroke="#40c057" stroke-width="0.5" fill="none"></path><path d="M23.99 -0.31 C29.24 -1.08, 36.66 1.34, 41.36 4.74 C46.07 8.15, 50.52 14.69, 52.23 20.14 C53.93 25.58, 53.88 32.24, 51.58 37.41 C49.29 42.58, 43.49 48.43, 38.44 51.14 C33.4 53.86, 27.03 54.92, 21.32 53.71 C15.61 52.49, 7.7 48.49, 4.2 43.87 C0.69 39.25, -0.26 32.07, 0.29 25.99 C0.84 19.91, 2.59 11.86, 7.5 7.4 C12.41 2.95, 25.48 0.22, 29.77 -0.76 C34.05 -1.73, 33.53 0.93, 33.21 1.56 M27.11 -0.85 C32.61 -1.17, 39.38 2.28, 43.94 6.35 C48.51 10.41, 53.45 17.74, 54.52 23.56 C55.6 29.38, 53.66 36.48, 50.41 41.28 C47.16 46.08, 40.67 50.46, 35.01 52.36 C29.34 54.26, 21.85 54.42, 16.41 52.68 C10.98 50.95, 5.32 46.84, 2.41 41.93 C-0.49 37.02, -1.99 28.93, -1 23.22 C0 17.51, 3.57 11.36, 8.37 7.69 C13.17 4.02, 24.8 2.62, 27.81 1.19 C30.81 -0.24, 26.6 -1.2, 26.43 -0.87" stroke="#000000" stroke-width="1" fill="none"></path></g><g stroke-linecap="round"><g transform="translate(1133.265873015874 533.1944444444446) rotate(0 -34.5 52)"><path d="M0.14 -0.25 C-11.14 16.84, -57 85.77, -68.56 103.05 M-1.25 -1.43 C-12.57 15.74, -57.8 86.44, -69.28 104.09" stroke="#000000" stroke-width="1" fill="none"></path></g></g><mask></mask><g stroke-linecap="round"><g transform="translate(1171.265873015874 532.1944444444446) rotate(0 51 53)"><path d="M-0.25 0.44 C16.51 18.05, 84.1 88.34, 101.05 105.79 M1.82 -0.38 C18.9 17.41, 86.84 89.48, 103.27 107.21" stroke="#000000" stroke-width="1" fill="none"></path></g></g><mask></mask><g stroke-linecap="round" transform="translate(802.7658730158732 636.6944444444446) rotate(0 27 27)"><path d="M7.91 8.2 C7.91 8.2, 7.91 8.2, 7.91 8.2 M7.91 8.2 C7.91 8.2, 7.91 8.2, 7.91 8.2 M-0.23 23.65 C5 14.47, 14.07 7.22, 16.83 4.03 M-0.23 23.65 C5.97 17.21, 12 10.62, 16.83 4.03 M1.48 27.79 C12.22 16.46, 17.25 8.06, 25.75 -0.14 M1.48 27.79 C9.12 18.81, 18.06 10.05, 25.75 -0.14 M2.53 32.68 C11.84 21.4, 20.73 11.68, 30.09 0.98 M2.53 32.68 C11.98 21.71, 19.02 13.5, 30.09 0.98 M3.58 37.56 C11.46 28.51, 14.62 21.48, 33.76 2.85 M3.58 37.56 C10.34 28.26, 19.43 19.59, 33.76 2.85 M4.63 42.45 C12.68 35.44, 17.57 26.02, 38.09 3.96 M4.63 42.45 C16.83 29.86, 27.35 15.03, 38.09 3.96 M7.65 45.08 C21.18 29.02, 34.89 16.47, 42.42 5.08 M7.65 45.08 C18.59 33.65, 28.36 22.21, 42.42 5.08 M11.33 46.95 C22.94 33.87, 33.01 22.22, 44.79 8.46 M11.33 46.95 C19.65 35.47, 28.96 26.17, 44.79 8.46 M14.35 49.57 C22.97 39.18, 31.12 27.39, 47.15 11.83 M14.35 49.57 C26.7 35.16, 37.03 22.39, 47.15 11.83 M17.36 52.19 C30.97 39.16, 38.75 26.82, 49.51 15.21 M17.36 52.19 C28.14 39.06, 39.94 26.71, 49.51 15.21 M21.69 53.31 C29.22 41.09, 40.34 31.3, 51.87 18.59 M21.69 53.31 C28.31 45.05, 36.91 36.46, 51.87 18.59 M27.34 52.91 C33.43 45.99, 38.67 41.4, 54.24 21.97 M27.34 52.91 C36.34 42.2, 44.86 32.19, 54.24 21.97 M32.98 52.52 C40.16 43.69, 44.29 38.44, 52.66 29.88 M32.98 52.52 C38.94 45.84, 45.96 38.3, 52.66 29.88 M37.97 52.88 C42.99 49.74, 43.44 43.64, 51.75 37.03 M37.97 52.88 C42.32 47.9, 47.15 40.82, 51.75 37.03" stroke="#40c057" stroke-width="0.5" fill="none"></path><path d="M25.28 -0.24 C30.68 -1.12, 37.71 1.57, 42.45 5.15 C47.19 8.73, 52.4 15.51, 53.71 21.27 C55.01 27.03, 52.96 34.56, 50.28 39.7 C47.59 44.83, 42.86 49.89, 37.61 52.08 C32.36 54.28, 24.33 54.58, 18.77 52.88 C13.21 51.18, 7.42 46.82, 4.25 41.86 C1.09 36.9, -0.81 28.69, -0.23 23.11 C0.36 17.53, 2.56 12.23, 7.77 8.36 C12.97 4.49, 26.51 0.86, 31.01 -0.12 C35.51 -1.1, 35.16 1.83, 34.78 2.47 M28.23 -0.36 C33.66 -0.42, 40.86 4.01, 45.06 8.21 C49.25 12.41, 52.66 18.95, 53.41 24.85 C54.17 30.74, 52.82 38.97, 49.59 43.59 C46.35 48.2, 39.64 51.06, 33.99 52.54 C28.35 54.02, 21.17 54.67, 15.74 52.47 C10.31 50.28, 4.09 44.48, 1.41 39.36 C-1.27 34.25, -1.83 27.63, -0.35 21.76 C1.13 15.89, 5.3 7.67, 10.29 4.13 C15.28 0.58, 26.7 0.98, 29.59 0.5 C32.49 0.02, 27.72 0.77, 27.67 1.25" stroke="#000000" stroke-width="1" fill="none"></path></g><g stroke-linecap="round"><g transform="translate(912.7658730158732 535.6944444444446) rotate(0 -34.5 52)"><path d="M0.78 -0.16 C-10.56 17.44, -57.5 87.9, -69.11 105.2 M-0.27 -1.29 C-11.69 16.05, -58.56 86.03, -70.11 103.71" stroke="#000000" stroke-width="1" fill="none"></path></g></g><mask></mask></svg>