<svg xmlns="http://www.w3.org/2000/svg" viewBox="2098.65 1625.64 124.80 150.49" width="125" height="150"><polyline points="2134.37,1646.58 2139.18,1654.54 2156.32,1644.89 2155.72,1671.48 2166.96,1671.54 2166.82,1645.20 2195.45,1663.70 2175.77,1677.12 2181.80,1685.49 2201.28,1672.48 2201.53,1700.78 2212.13,1700.21 2211.64,1660.63 2161.95,1631.64 2134.37,1646.58" fill="none" stroke="#1864ab" stroke-width="1" opacity="1.0" stroke-linecap="round" stroke-linejoin="round"/><polyline points="2110.33,1700.99 2115.14,1708.95 2132.28,1699.30 2131.68,1725.89 2142.92,1725.95 2142.78,1699.61 2171.41,1718.11 2151.73,1731.53 2157.76,1739.90 2177.24,1726.89 2177.49,1755.19 2188.10,1754.63 2187.60,1715.04 2137.92,1686.05 2110.33,1700.99" fill="none" stroke="#1864ab" stroke-width="1" opacity="1.0" stroke-linecap="round" stroke-linejoin="round" transform="rotate(180.00 2149.21 1735.56)"/><ellipse cx="2161.18" cy="1692.45" rx="10.98" ry="10.98" stroke="#1864ab" stroke-width="1" opacity="1.0" fill="#669df6"/><rect x="2177.33" y="1707.04" width="24.11" height="8.72" rx="0" stroke="#1864ab" stroke-width="1" opacity="1.0" fill="#669df6" transform="rotate(30.00 2189.38 1711.40)"/><rect x="2121.72" y="1670.21" width="24.11" height="8.72" rx="0" stroke="#1864ab" stroke-width="1" opacity="1.0" fill="#669df6" transform="rotate(34.07 2133.77 1674.57)"/><ellipse cx="2116.28" cy="1662.31" rx="11.63" ry="11.63" stroke="#1864ab" stroke-width="1" opacity="1.0" fill="#669df6"/><ellipse cx="2116.28" cy="1662.31" rx="4.78" ry="4.78" stroke="#1864ab" stroke-width="1" opacity="1.0" fill="white"/><ellipse cx="2205.82" cy="1722.53" rx="11.63" ry="11.63" stroke="#1864ab" stroke-width="1" opacity="1.0" fill="#669df6"/><ellipse cx="2205.82" cy="1722.53" rx="4.78" ry="4.78" stroke="#1864ab" stroke-width="1" opacity="1.0" fill="white"/></svg>