<svg version="1.1" xmlns="http://www.w3.org/2000/svg" viewBox="0 0 205.9202539785607 272.77926247923574" width="205.9202539785607" height="272.77926247923574">
  <!-- svg-source:excalidraw -->
  
  <defs>
    
    
  </defs>
  <g stroke-linecap="round"><g transform="translate(6 102.94238612948516) rotate(0 19.384932121963857 -9.68359078683278)" fill-rule="evenodd"><path d="M0 0 L38.77 0 L38.77 -19.37 L0 -19.37 L0 0" stroke="none" stroke-width="0" fill="#4285f4" fill-rule="evenodd"></path><path d="M0 0 C13.57 0, 27.13 0, 38.77 0 M0 0 C14.26 0, 28.51 0, 38.77 0 M38.77 0 C38.77 -5.72, 38.77 -11.43, 38.77 -19.37 M38.77 0 C38.77 -5.15, 38.77 -10.3, 38.77 -19.37 M38.77 -19.37 C26.26 -19.37, 13.75 -19.37, 0 -19.37 M38.77 -19.37 C24.53 -19.37, 10.29 -19.37, 0 -19.37 M0 -19.37 C0 -14.74, 0 -10.12, 0 0 M0 -19.37 C0 -13.26, 0 -7.15, 0 0 M0 0 C0 0, 0 0, 0 0 M0 0 C0 0, 0 0, 0 0" stroke="#000000" stroke-width="1" fill="none"></path></g></g><mask></mask><g stroke-linecap="round"><g transform="translate(132.02865151282776 141.7477337077553) rotate(0 -48.471193872117794 -48.48893513560088)" fill-rule="evenodd"><path d="M0 0 L-96.94 0 L-96.94 -96.98 L0 -96.98 L0 0" stroke="none" stroke-width="0" fill="#aecbfa" fill-rule="evenodd"></path><path d="M0 0 C-23.85 0, -47.7 0, -96.94 0 M0 0 C-20.16 0, -40.33 0, -96.94 0 M-96.94 0 C-96.94 -24.27, -96.94 -48.53, -96.94 -96.98 M-96.94 0 C-96.94 -31.52, -96.94 -63.04, -96.94 -96.98 M-96.94 -96.98 C-61.2 -96.98, -25.45 -96.98, 0 -96.98 M-96.94 -96.98 C-73.78 -96.98, -50.62 -96.98, 0 -96.98 M0 -96.98 C0 -70.12, 0 -43.26, 0 0 M0 -96.98 C0 -60, 0 -23.02, 0 0 M0 0 C0 0, 0 0, 0 0 M0 0 C0 0, 0 0, 0 0" stroke="#000000" stroke-width="1" fill="none"></path></g></g><mask></mask><g stroke-linecap="round"><g transform="translate(154.6237128296084 102.94238612948516) rotate(0 22.648270574476157 -9.68359078683278)" fill-rule="evenodd"><path d="M0 0 L45.3 0 L45.3 -19.37 L0 -19.37 L0 0" stroke="none" stroke-width="0" fill="#4285f4" fill-rule="evenodd"></path><path d="M0 0 C16.65 0, 33.29 0, 45.3 0 M0 0 C17.81 0, 35.63 0, 45.3 0 M45.3 0 C45.3 -5.98, 45.3 -11.96, 45.3 -19.37 M45.3 0 C45.3 -6.84, 45.3 -13.68, 45.3 -19.37 M45.3 -19.37 C34.86 -19.37, 24.43 -19.37, 0 -19.37 M45.3 -19.37 C31.83 -19.37, 18.36 -19.37, 0 -19.37 M0 -19.37 C0 -12.12, 0 -4.87, 0 0 M0 -19.37 C0 -12.93, 0 -6.5, 0 0 M0 0 C0 0, 0 0, 0 0 M0 0 C0 0, 0 0, 0 0" stroke="#000000" stroke-width="1" fill="none"></path></g></g><mask></mask><g stroke-linecap="round"><g transform="translate(64.17252834455894 6) rotate(0 53.33073537326874 87.25879776477814)" fill-rule="evenodd"><path d="M0 0 L0 19.4 L87.26 19.4 L87.26 155.11 L0 155.11 L0 174.52 L106.66 174.52 L106.66 0 L0 0" stroke="none" stroke-width="0" fill="#669df6" fill-rule="evenodd"></path><path d="M0 0 C0 4.25, 0 8.51, 0 19.4 M0 0 C0 5.98, 0 11.96, 0 19.4 M0 19.4 C24.46 19.4, 48.91 19.4, 87.26 19.4 M0 19.4 C23.52 19.4, 47.05 19.4, 87.26 19.4 M87.26 19.4 C87.26 64.33, 87.26 109.26, 87.26 155.11 M87.26 19.4 C87.26 64.83, 87.26 110.26, 87.26 155.11 M87.26 155.11 C61.06 155.11, 34.87 155.11, 0 155.11 M87.26 155.11 C55.95 155.11, 24.65 155.11, 0 155.11 M0 155.11 C0 162.39, 0 169.66, 0 174.52 M0 155.11 C0 160.43, 0 165.74, 0 174.52 M0 174.52 C37.78 174.52, 75.55 174.52, 106.66 174.52 M0 174.52 C30.57 174.52, 61.15 174.52, 106.66 174.52 M106.66 174.52 C106.66 121.82, 106.66 69.12, 106.66 0 M106.66 174.52 C106.66 109.2, 106.66 43.88, 106.66 0 M106.66 0 C74.63 0, 42.59 0, 0 0 M106.66 0 C76.57 0, 46.48 0, 0 0 M0 0 C0 0, 0 0, 0 0 M0 0 C0 0, 0 0, 0 0" stroke="#000000" stroke-width="1" fill="none"></path></g></g><mask></mask><g stroke-linecap="round"><g transform="translate(132.0286515128273 141.7477337077553) rotate(0 -24.226727919067855 -48.48893513560088)" fill-rule="evenodd"><path d="M0 0 L-48.45 0 L-48.45 -96.98 L0 -96.98 L0 0" stroke="none" stroke-width="0" fill="#669df6" fill-rule="evenodd"></path><path d="M0 0 C-10.41 0, -20.81 0, -48.45 0 M0 0 C-12.92 0, -25.84 0, -48.45 0 M-48.45 0 C-48.45 -21.06, -48.45 -42.12, -48.45 -96.98 M-48.45 0 C-48.45 -38.09, -48.45 -76.17, -48.45 -96.98 M-48.45 -96.98 C-34.75 -96.98, -21.05 -96.98, 0 -96.98 M-48.45 -96.98 C-35.69 -96.98, -22.93 -96.98, 0 -96.98 M0 -96.98 C0 -64.31, 0 -31.65, 0 0 M0 -96.98 C0 -72.68, 0 -48.39, 0 0 M0 0 C0 0, 0 0, 0 0 M0 0 C0 0, 0 0, 0 0" stroke="#000000" stroke-width="1" fill="none"></path></g></g><mask></mask><g transform="translate(9.273614923535206 188.77926247923574) rotate(0 94 39)"><text x="94" y="0" font-family="Helvetica, Segoe UI Emoji" font-size="33.94285714285716px" fill="#000000" text-anchor="middle" style="white-space: pre;" direction="ltr" dominant-baseline="text-before-edge">Dedicated</text><text x="94" y="39" font-family="Helvetica, Segoe UI Emoji" font-size="33.94285714285716px" fill="#000000" text-anchor="middle" style="white-space: pre;" direction="ltr" dominant-baseline="text-before-edge">Interconnect</text></g></svg>