<svg version="1.1" xmlns="http://www.w3.org/2000/svg" viewBox="0 0 188.47870760315914 237.4891898352089" width="188.47870760315914" height="237.4891898352089">
  <!-- svg-source:excalidraw -->
  
  <defs>
    
    
  </defs>
  <g stroke-linecap="round"><g transform="translate(103.13082107749233 147.13795817883693) rotate(0 -8.835190297764001 -44.11968296801183)" fill-rule="evenodd"><path d="M0 0 L-17.67 0 L-17.67 -88.24 L0 -88.24 L0 0" stroke="none" stroke-width="0" fill="#4285f4" fill-rule="evenodd"></path><path d="M0 0 C-6.28 0, -12.55 0, -17.67 0 M0 0 C-5.48 0, -10.96 0, -17.67 0 M-17.67 0 C-17.67 -32.71, -17.67 -65.43, -17.67 -88.24 M-17.67 0 C-17.67 -29.84, -17.67 -59.67, -17.67 -88.24 M-17.67 -88.24 C-11.51 -88.24, -5.36 -88.24, 0 -88.24 M-17.67 -88.24 C-13.75 -88.24, -9.82 -88.24, 0 -88.24 M0 -88.24 C0 -62.59, 0 -36.95, 0 0 M0 -88.24 C0 -58.65, 0 -29.06, 0 0 M0 0 C0 0, 0 0, 0 0 M0 0 C0 0, 0 0, 0 0" stroke="#000000" stroke-width="1" fill="none"></path></g></g><mask></mask><g stroke-linecap="round"><g transform="translate(6 173.58724584290349) rotate(0 88.23935380157957 -8.835193239447335)" fill-rule="evenodd"><path d="M0 0 L176.48 0 L176.48 -17.67 L0 -17.67 L0 0" stroke="none" stroke-width="0" fill="#669df6" fill-rule="evenodd"></path><path d="M0 0 C51.64 0, 103.27 0, 176.48 0 M0 0 C67.3 0, 134.59 0, 176.48 0 M176.48 0 C176.48 -7.02, 176.48 -14.05, 176.48 -17.67 M176.48 0 C176.48 -3.82, 176.48 -7.65, 176.48 -17.67 M176.48 -17.67 C113.36 -17.67, 50.24 -17.67, 0 -17.67 M176.48 -17.67 C134.42 -17.67, 92.36 -17.67, 0 -17.67 M0 -17.67 C0 -11.14, 0 -4.61, 0 0 M0 -17.67 C0 -13.6, 0 -9.53, 0 0 M0 0 C0 0, 0 0, 0 0 M0 0 C0 0, 0 0, 0 0" stroke="#000000" stroke-width="1" fill="none"></path></g></g><mask></mask><g stroke-linecap="round"><g transform="translate(76.68152164669118 182.36614702807537) rotate(0 17.614106191352988 -17.614094424619225)" fill-rule="evenodd"><path d="M0 0 L35.23 0 L35.23 -35.23 L0 -35.23 L0 0" stroke="none" stroke-width="0" fill="#aecbfa" fill-rule="evenodd"></path><path d="M0 0 C13.94 0, 27.88 0, 35.23 0 M0 0 C11.15 0, 22.29 0, 35.23 0 M35.23 0 C35.23 -8.25, 35.23 -16.5, 35.23 -35.23 M35.23 0 C35.23 -7.66, 35.23 -15.31, 35.23 -35.23 M35.23 -35.23 C22.71 -35.23, 10.2 -35.23, 0 -35.23 M35.23 -35.23 C27.57 -35.23, 19.91 -35.23, 0 -35.23 M0 -35.23 C0 -22.83, 0 -10.44, 0 0 M0 -35.23 C0 -21.98, 0 -8.73, 0 0 M0 0 C0 0, 0 0, 0 0 M0 0 C0 0, 0 0, 0 0" stroke="#000000" stroke-width="1" fill="none"></path></g></g><mask></mask><g stroke-linecap="round"><g transform="translate(6 6) rotate(0 88.23935380157957 26.449296121406633)" fill-rule="evenodd"><path d="M0 0 L176.48 0 L176.48 52.9 L0 52.9 L0 0" stroke="none" stroke-width="0" fill="#aecbfa" fill-rule="evenodd"></path><path d="M0 0 C61.61 0, 123.23 0, 176.48 0 M0 0 C43.98 0, 87.95 0, 176.48 0 M176.48 0 C176.48 17.83, 176.48 35.66, 176.48 52.9 M176.48 0 C176.48 14.52, 176.48 29.03, 176.48 52.9 M176.48 52.9 C125.81 52.9, 75.14 52.9, 0 52.9 M176.48 52.9 C116.18 52.9, 55.89 52.9, 0 52.9 M0 52.9 C0 34.85, 0 16.8, 0 0 M0 52.9 C0 40.35, 0 27.8, 0 0 M0 0 C0 0, 0 0, 0 0 M0 0 C0 0, 0 0, 0 0" stroke="#000000" stroke-width="1" fill="none"></path></g></g><mask></mask><g stroke-linecap="round"><g transform="translate(94.23935931723577 6) rotate(0 44.11967414296155 26.449296121406633)" fill-rule="evenodd"><path d="M0 0 L88.24 0 L88.24 52.9 L0 52.9 L0 0" stroke="none" stroke-width="0" fill="#669df6" fill-rule="evenodd"></path><path d="M0 0 C27.62 0, 55.24 0, 88.24 0 M0 0 C22.91 0, 45.81 0, 88.24 0 M88.24 0 C88.24 12.48, 88.24 24.96, 88.24 52.9 M88.24 0 C88.24 18.02, 88.24 36.04, 88.24 52.9 M88.24 52.9 C62.85 52.9, 37.45 52.9, 0 52.9 M88.24 52.9 C61.84 52.9, 35.44 52.9, 0 52.9 M0 52.9 C0 34.11, 0 15.32, 0 0 M0 52.9 C0 35.58, 0 18.26, 0 0 M0 0 C0 0, 0 0, 0 0 M0 0 C0 0, 0 0, 0 0" stroke="#000000" stroke-width="1" fill="none"></path></g></g><mask></mask><g stroke-linecap="round"><g transform="translate(23.67038280179031 23.557831051757148) rotate(0 8.835188826922277 8.83519029776403)" fill-rule="evenodd"><path d="M0 0 L17.67 0 L17.67 17.67 L0 17.67 L0 0" stroke="none" stroke-width="0" fill="#fff" fill-rule="evenodd"></path><path d="M0 0 C3.54 0, 7.08 0, 17.67 0 M0 0 C6.56 0, 13.13 0, 17.67 0 M17.67 0 C17.67 4.59, 17.67 9.17, 17.67 17.67 M17.67 0 C17.67 6.59, 17.67 13.18, 17.67 17.67 M17.67 17.67 C12.58 17.67, 7.48 17.67, 0 17.67 M17.67 17.67 C12.63 17.67, 7.6 17.67, 0 17.67 M0 17.67 C0 12, 0 6.33, 0 0 M0 17.67 C0 14.13, 0 10.59, 0 0 M0 0 C0 0, 0 0, 0 0 M0 0 C0 0, 0 0, 0 0" stroke="#000000" stroke-width="1" fill="none"></path></g></g><mask></mask><g stroke-linecap="round"><g transform="translate(6 76.56897283834132) rotate(0 88.23935380157957 26.449299430800465)" fill-rule="evenodd"><path d="M0 0 L176.48 0 L176.48 52.9 L0 52.9 L0 0" stroke="none" stroke-width="0" fill="#aecbfa" fill-rule="evenodd"></path><path d="M0 0 C50.94 0, 101.88 0, 176.48 0 M0 0 C54.75 0, 109.49 0, 176.48 0 M176.48 0 C176.48 18.99, 176.48 37.97, 176.48 52.9 M176.48 0 C176.48 20.03, 176.48 40.06, 176.48 52.9 M176.48 52.9 C123.15 52.9, 69.82 52.9, 0 52.9 M176.48 52.9 C120.69 52.9, 64.89 52.9, 0 52.9 M0 52.9 C0 36.93, 0 20.96, 0 0 M0 52.9 C0 32.03, 0 11.15, 0 0 M0 0 C0 0, 0 0, 0 0 M0 0 C0 0, 0 0, 0 0" stroke="#000000" stroke-width="1" fill="none"></path></g></g><mask></mask><g stroke-linecap="round"><g transform="translate(94.23935931723577 76.56897283834132) rotate(0 44.11967414296155 26.449299430800465)" fill-rule="evenodd"><path d="M0 0 L88.24 0 L88.24 52.9 L0 52.9 L0 0" stroke="none" stroke-width="0" fill="#669df6" fill-rule="evenodd"></path><path d="M0 0 C27.36 0, 54.72 0, 88.24 0 M0 0 C32.71 0, 65.43 0, 88.24 0 M88.24 0 C88.24 17.89, 88.24 35.77, 88.24 52.9 M88.24 0 C88.24 18.43, 88.24 36.86, 88.24 52.9 M88.24 52.9 C68.64 52.9, 49.04 52.9, 0 52.9 M88.24 52.9 C62.59 52.9, 36.95 52.9, 0 52.9 M0 52.9 C0 35.16, 0 17.42, 0 0 M0 52.9 C0 31.79, 0 10.67, 0 0 M0 0 C0 0, 0 0, 0 0 M0 0 C0 0, 0 0, 0 0" stroke="#000000" stroke-width="1" fill="none"></path></g></g><mask></mask><g stroke-linecap="round"><g transform="translate(23.67038280179031 94.23935343386893) rotate(0 8.835188826922277 8.83519029776403)" fill-rule="evenodd"><path d="M0 0 L17.67 0 L17.67 17.67 L0 17.67 L0 0" stroke="none" stroke-width="0" fill="#fff" fill-rule="evenodd"></path><path d="M0 0 C6.74 0, 13.48 0, 17.67 0 M0 0 C7.02 0, 14.05 0, 17.67 0 M17.67 0 C17.67 3.82, 17.67 7.65, 17.67 17.67 M17.67 0 C17.67 6.32, 17.67 12.64, 17.67 17.67 M17.67 17.67 C13.46 17.67, 9.25 17.67, 0 17.67 M17.67 17.67 C11.14 17.67, 4.61 17.67, 0 17.67 M0 17.67 C0 13.6, 0 9.53, 0 0 M0 17.67 C0 13.57, 0 9.47, 0 0 M0 0 C0 0, 0 0, 0 0 M0 0 C0 0, 0 0, 0 0" stroke="#000000" stroke-width="1" fill="none"></path></g></g><mask></mask><g transform="translate(7.969974140326485 192.4891898352089) rotate(0 85.5 19.5)"><text x="85.5" y="0" font-family="Helvetica, Segoe UI Emoji" font-size="33.94285714285716px" fill="#000000" text-anchor="middle" style="white-space: pre;" direction="ltr" dominant-baseline="text-before-edge">Cloud DNS</text></g></svg>