<svg version="1.1" xmlns="http://www.w3.org/2000/svg" viewBox="0 0 172 84" width="172" height="84">
  <!-- svg-source:excalidraw -->
  
  <defs>
    
    
  </defs>
  <g stroke-linecap="round" transform="translate(6 6) rotate(0 80 36)"><path d="M18 0 C59.11 0, 100.22 0, 142 0 C154 0, 160 6, 160 18 C160 31.9, 160 45.81, 160 54 C160 66, 154 72, 142 72 C108.39 72, 74.77 72, 18 72 C6 72, 0 66, 0 54 C0 45.44, 0 36.88, 0 18 C0 6, 6 0, 18 0" stroke="none" stroke-width="0" fill="#FFF"></path><path d="M18 0 C62.44 0, 106.87 0, 142 0 M18 0 C44.3 0, 70.6 0, 142 0 M142 0 C154 0, 160 6, 160 18 M142 0 C154 0, 160 6, 160 18 M160 18 C160 27.6, 160 37.2, 160 54 M160 18 C160 27.61, 160 37.22, 160 54 M160 54 C160 66, 154 72, 142 72 M160 54 C160 66, 154 72, 142 72 M142 72 C97.1 72, 52.19 72, 18 72 M142 72 C111.27 72, 80.55 72, 18 72 M18 72 C6 72, 0 66, 0 54 M18 72 C6 72, 0 66, 0 54 M0 54 C0 42.04, 0 30.07, 0 18 M0 54 C0 42.73, 0 31.47, 0 18 M0 18 C0 6, 6 0, 18 0 M0 18 C0 6, 6 0, 18 0" stroke="#4285f4" stroke-width="2" fill="none"></path></g><g transform="translate(71 28) rotate(0 32 14)"><text x="0" y="0" font-family="Helvetica, Segoe UI Emoji" font-size="12px" fill="#000000" text-anchor="start" style="white-space: pre;" direction="ltr" dominant-baseline="text-before-edge">Cloud Asset</text><text x="0" y="14" font-family="Helvetica, Segoe UI Emoji" font-size="12px" fill="#000000" text-anchor="start" style="white-space: pre;" direction="ltr" dominant-baseline="text-before-edge">Inventory</text></g><g stroke-linecap="round"><g transform="translate(41.46996879577637 29.578274726867676) rotate(0 -0.000001430511474609375 12.30415391921997)" fill-rule="evenodd"><path d="M0 0 L-1.49 1.49 L9.35 12.3 L0 21.65 L-9.35 12.3 L-4.89 7.84 L-6.36 6.36 L-12.3 12.3 L0 24.61 L12.3 12.3 L0 0" stroke="none" stroke-width="0" fill="#4285f4" fill-rule="evenodd"></path><path d="M0 0 C-0.39 0.39, -0.79 0.78, -1.49 1.49 M0 0 C-0.31 0.31, -0.63 0.63, -1.49 1.49 M-1.49 1.49 C0.86 3.84, 3.22 6.19, 9.35 12.3 M-1.49 1.49 C1.74 4.71, 4.97 7.94, 9.35 12.3 M9.35 12.3 C7.45 14.2, 5.55 16.1, 0 21.65 M9.35 12.3 C5.73 15.93, 2.1 19.55, 0 21.65 M0 21.65 C-3.39 18.27, -6.77 14.88, -9.35 12.3 M0 21.65 C-2.32 19.34, -4.63 17.02, -9.35 12.3 M-9.35 12.3 C-8.39 11.34, -7.43 10.38, -4.89 7.84 M-9.35 12.3 C-8.22 11.17, -7.08 10.04, -4.89 7.84 M-4.89 7.84 C-5.36 7.37, -5.82 6.9, -6.36 6.36 M-4.89 7.84 C-5.3 7.42, -5.72 7, -6.36 6.36 M-6.36 6.36 C-7.63 7.63, -8.89 8.89, -12.3 12.3 M-6.36 6.36 C-8.19 8.19, -10.03 10.03, -12.3 12.3 M-12.3 12.3 C-8.84 15.77, -5.38 19.23, 0 24.61 M-12.3 12.3 C-8.54 16.07, -4.78 19.83, 0 24.61 M0 24.61 C3.67 20.94, 7.34 17.27, 12.3 12.3 M0 24.61 C2.93 21.68, 5.85 18.76, 12.3 12.3 M12.3 12.3 C8.8 8.8, 5.29 5.29, 0 0 M12.3 12.3 C7.88 7.88, 3.46 3.46, 0 0 M0 0 C0 0, 0 0, 0 0 M0 0 C0 0, 0 0, 0 0" stroke="transparent" stroke-width="1" fill="none"></path></g></g><mask></mask><g stroke-linecap="round"><g transform="translate(38.423322677612305 44.58658218383789) rotate(0 0 -2.7041540145874023)" fill-rule="evenodd"><path d="M0 0 L-2.7 -2.7 L0 -5.41 L2.7 -2.7 L0 0" stroke="none" stroke-width="0" fill="#4285f4" fill-rule="evenodd"></path><path d="M0 0 C-0.79 -0.79, -1.57 -1.57, -2.7 -2.7 M0 0 C-0.78 -0.78, -1.56 -1.56, -2.7 -2.7 M-2.7 -2.7 C-2.03 -3.38, -1.36 -4.05, 0 -5.41 M-2.7 -2.7 C-1.93 -3.47, -1.16 -4.25, 0 -5.41 M0 -5.41 C0.79 -4.62, 1.58 -3.83, 2.7 -2.7 M0 -5.41 C0.58 -4.83, 1.16 -4.25, 2.7 -2.7 M2.7 -2.7 C2.12 -2.12, 1.53 -1.53, 0 0 M2.7 -2.7 C1.96 -1.96, 1.21 -1.21, 0 0 M0 0 C0 0, 0 0, 0 0 M0 0 C0 0, 0 0, 0 0" stroke="transparent" stroke-width="1" fill="none"></path></g></g><mask></mask><g stroke-linecap="round"><g transform="translate(35.248881340026855 29.578274726867676) rotate(0 -0.0025560706853866577 12.30415391921997)" fill-rule="evenodd"><path d="M0 0 L-12.3 12.3 L0 24.61 L1.47 23.13 L-9.35 12.3 L0 2.95 L9.35 12.3 L4.88 16.77 L6.36 18.24 L12.3 12.3 L0 0" stroke="none" stroke-width="0" fill="#4285f4" fill-rule="evenodd"></path><path d="M0 0 C-4.33 4.33, -8.67 8.67, -12.3 12.3 M0 0 C-2.66 2.66, -5.32 5.32, -12.3 12.3 M-12.3 12.3 C-8.34 16.27, -4.37 20.23, 0 24.61 M-12.3 12.3 C-8.39 16.22, -4.48 20.13, 0 24.61 M0 24.61 C0.58 24.03, 1.15 23.45, 1.47 23.13 M0 24.61 C0.31 24.3, 0.61 23.99, 1.47 23.13 M1.47 23.13 C-1.37 20.29, -4.21 17.45, -9.35 12.3 M1.47 23.13 C-1.48 20.17, -4.44 17.22, -9.35 12.3 M-9.35 12.3 C-7.15 10.1, -4.95 7.9, 0 2.95 M-9.35 12.3 C-6.24 9.19, -3.13 6.08, 0 2.95 M0 2.95 C3.45 6.41, 6.91 9.86, 9.35 12.3 M0 2.95 C2.22 5.18, 4.44 7.4, 9.35 12.3 M9.35 12.3 C7.87 13.79, 6.39 15.27, 4.88 16.77 M9.35 12.3 C7.72 13.93, 6.09 15.56, 4.88 16.77 M4.88 16.77 C5.4 17.29, 5.92 17.8, 6.36 18.24 M4.88 16.77 C5.2 17.09, 5.52 17.41, 6.36 18.24 M6.36 18.24 C7.96 16.64, 9.56 15.04, 12.3 12.3 M6.36 18.24 C8.23 16.37, 10.11 14.5, 12.3 12.3 M12.3 12.3 C8.6 8.61, 4.91 4.91, 0 0 M12.3 12.3 C9.82 9.82, 7.34 7.34, 0 0 M0 0 C0 0, 0 0, 0 0 M0 0 C0 0, 0 0, 0 0" stroke="transparent" stroke-width="1" fill="none"></path></g></g><mask></mask></svg>