<svg xmlns="http://www.w3.org/2000/svg" viewBox="527.42 921.36 172.00 84.00" width="172" height="84"><rect x="533.42" y="927.36" width="160.00" height="72.00" rx="0" stroke="#4285f4" stroke-width="2" opacity="1.0" fill="#FFF"/><text x="598.42" y="961.36" font-size="12" fill="#000000" opacity="1.0" font-family="sans-serif">Google Cloud
Game Servers</text><polyline points="577.14,948.75 577.14,948.75 577.25,948.76 577.36,948.79 577.45,948.84 577.53,948.91 577.60,948.99 577.65,949.09 577.68,949.19 577.69,949.30 577.69,956.48 577.69,956.48 577.68,956.59 577.65,956.70 577.60,956.79 577.53,956.87 577.45,956.94 577.36,956.99 577.25,957.02 577.14,957.03 554.77,957.03 554.77,957.03 554.66,957.02 554.56,956.99 554.47,956.94 554.38,956.87 554.32,956.79 554.27,956.70 554.23,956.59 554.22,956.48 554.22,949.30 554.22,949.30 554.23,949.19 554.27,949.09 554.32,948.99 554.38,948.91 554.47,948.84 554.56,948.79 554.66,948.76 554.77,948.75 577.14,948.75 577.14,948.75" fill="none" stroke="transparent" stroke-width="1" opacity="1.0" stroke-linecap="round" stroke-linejoin="round"/><polyline points="560.99,950.41 560.16,950.41 560.16,950.41 560.07,950.42 559.99,950.46 559.93,950.53 559.89,950.61 559.88,950.68 559.88,952.20 558.37,952.20 558.37,952.20 558.28,952.22 558.20,952.26 558.14,952.32 558.10,952.40 558.09,952.48 558.09,953.31 558.09,953.31 558.10,953.40 558.15,953.47 558.21,953.54 558.29,953.57 558.37,953.58 559.88,953.58 559.88,955.10 559.88,955.10 559.90,955.19 559.94,955.27 560.01,955.33 560.09,955.37 560.16,955.38 560.99,955.38 560.99,955.38 561.08,955.37 561.16,955.32 561.22,955.26 561.26,955.18 561.27,955.10 561.27,953.58 562.79,953.58 562.79,953.58 562.88,953.57 562.96,953.53 563.02,953.46 563.06,953.38 563.06,953.31 563.06,952.48 563.06,952.48 563.05,952.39 563.01,952.31 562.94,952.25 562.86,952.21 562.79,952.20 561.27,952.20 561.27,950.68 561.27,950.68 561.26,950.63 561.24,950.58 561.22,950.53 561.18,950.49 561.14,950.45 561.10,950.43 561.04,950.41 560.99,950.41 560.99,950.41" fill="none" stroke="transparent" stroke-width="1" opacity="1.0" stroke-linecap="round" stroke-linejoin="round"/><polyline points="568.30,952.62 568.30,952.62 568.16,952.62 568.03,952.65 567.89,952.68 567.77,952.73 567.65,952.78 567.53,952.85 567.42,952.93 567.33,953.02 567.24,953.12 567.16,953.23 567.09,953.34 567.03,953.46 566.98,953.59 566.95,953.72 566.93,953.86 566.92,954.00 566.93,954.14 566.95,954.28 566.98,954.41 567.03,954.54 567.09,954.66 567.16,954.77 567.24,954.88 567.33,954.98 567.42,955.07 567.53,955.15 567.65,955.22 567.77,955.27 567.89,955.32 568.03,955.35 568.16,955.38 568.30,955.38 568.45,955.38 568.58,955.35 568.71,955.32 568.84,955.27 568.96,955.22 569.08,955.15 569.18,955.07 569.28,954.98 569.37,954.88 569.45,954.77 569.52,954.66 569.58,954.54 569.62,954.41 569.66,954.28 569.68,954.14 569.69,954.00 569.68,953.86 569.66,953.72 569.62,953.59 569.58,953.46 569.52,953.34 569.45,953.23 569.37,953.12 569.28,953.02 569.18,952.93 569.08,952.85 568.96,952.78 568.84,952.73 568.71,952.68 568.58,952.65 568.45,952.62 568.30,952.62 568.30,952.62" fill="none" stroke="transparent" stroke-width="1" opacity="1.0" stroke-linecap="round" stroke-linejoin="round"/><polyline points="572.45,950.41 572.45,950.41 572.31,950.41 572.17,950.43 572.04,950.47 571.91,950.52 571.79,950.57 571.67,950.64 571.57,950.72 571.47,950.81 571.38,950.91 571.30,951.02 571.23,951.13 571.17,951.25 571.13,951.38 571.09,951.51 571.07,951.65 571.06,951.79 571.07,951.93 571.09,952.07 571.13,952.20 571.17,952.33 571.23,952.45 571.30,952.56 571.38,952.67 571.47,952.77 571.57,952.86 571.67,952.94 571.79,953.00 571.91,953.06 572.04,953.11 572.17,953.14 572.31,953.16 572.45,953.17 572.59,953.16 572.73,953.14 572.86,953.11 572.99,953.06 573.11,953.00 573.22,952.94 573.33,952.86 573.42,952.77 573.51,952.67 573.59,952.56 573.66,952.45 573.72,952.33 573.77,952.20 573.80,952.07 573.82,951.93 573.83,951.79 573.82,951.65 573.80,951.51 573.77,951.38 573.72,951.25 573.66,951.13 573.59,951.02 573.51,950.91 573.42,950.81 573.33,950.72 573.22,950.64 573.11,950.57 572.99,950.52 572.86,950.47 572.73,950.43 572.59,950.41 572.45,950.41 572.45,950.41" fill="none" stroke="transparent" stroke-width="1" opacity="1.0" stroke-linecap="round" stroke-linejoin="round"/><polyline points="577.14,959.24 577.14,959.24 577.25,959.25 577.36,959.29 577.45,959.34 577.53,959.40 577.60,959.49 577.65,959.58 577.68,959.68 577.69,959.79 577.69,966.98 577.69,966.98 577.68,967.09 577.65,967.19 577.60,967.28 577.53,967.36 577.45,967.43 577.36,967.48 577.25,967.51 577.14,967.53 554.77,967.53 554.77,967.53 554.66,967.51 554.56,967.48 554.47,967.43 554.38,967.36 554.32,967.28 554.27,967.19 554.23,967.09 554.22,966.98 554.22,959.80 554.22,959.80 554.23,959.69 554.27,959.58 554.32,959.49 554.38,959.41 554.47,959.34 554.56,959.29 554.66,959.26 554.77,959.25 577.14,959.25 577.14,959.24" fill="none" stroke="transparent" stroke-width="1" opacity="1.0" stroke-linecap="round" stroke-linejoin="round"/><polyline points="560.99,960.90 560.16,960.90 560.16,960.90 560.07,960.92 559.99,960.96 559.93,961.03 559.89,961.11 559.88,961.18 559.88,962.70 558.37,962.70 558.37,962.70 558.28,962.71 558.20,962.76 558.14,962.82 558.10,962.90 558.09,962.98 558.09,963.80 558.09,963.80 558.10,963.89 558.15,963.97 558.21,964.03 558.29,964.07 558.37,964.08 559.88,964.08 559.88,965.60 559.88,965.60 559.90,965.69 559.94,965.77 560.01,965.83 560.09,965.87 560.16,965.88 560.99,965.88 560.99,965.88 561.08,965.86 561.16,965.82 561.22,965.76 561.26,965.68 561.27,965.60 561.27,964.08 562.79,964.08 562.79,964.08 562.88,964.06 562.96,964.02 563.02,963.96 563.06,963.88 563.06,963.80 563.06,962.98 563.06,962.98 563.05,962.89 563.01,962.81 562.94,962.75 562.86,962.71 562.79,962.70 561.27,962.70 561.27,961.18 561.27,961.18 561.26,961.12 561.24,961.07 561.22,961.02 561.18,960.98 561.14,960.95 561.10,960.92 561.04,960.91 560.99,960.90 560.99,960.90" fill="none" stroke="transparent" stroke-width="1" opacity="1.0" stroke-linecap="round" stroke-linejoin="round"/><polyline points="568.30,963.11 568.30,963.11 568.16,963.12 568.03,963.14 567.89,963.17 567.77,963.22 567.65,963.28 567.53,963.35 567.42,963.43 567.33,963.51 567.24,963.61 567.16,963.72 567.09,963.83 567.03,963.95 566.98,964.08 566.95,964.21 566.93,964.35 566.92,964.49 566.93,964.63 566.95,964.77 566.98,964.90 567.03,965.03 567.09,965.15 567.16,965.26 567.24,965.37 567.33,965.47 567.42,965.56 567.53,965.64 567.65,965.71 567.77,965.77 567.89,965.81 568.03,965.85 568.16,965.87 568.30,965.87 568.45,965.87 568.58,965.85 568.71,965.81 568.84,965.77 568.96,965.71 569.08,965.64 569.18,965.56 569.28,965.47 569.37,965.37 569.45,965.26 569.52,965.15 569.58,965.03 569.62,964.90 569.66,964.77 569.68,964.63 569.69,964.49 569.68,964.35 569.66,964.21 569.62,964.08 569.58,963.95 569.52,963.83 569.45,963.72 569.37,963.61 569.28,963.51 569.18,963.43 569.08,963.35 568.96,963.28 568.84,963.22 568.71,963.17 568.58,963.14 568.45,963.12 568.30,963.11 568.30,963.11" fill="none" stroke="transparent" stroke-width="1" opacity="1.0" stroke-linecap="round" stroke-linejoin="round"/><polyline points="572.45,960.90 572.45,960.90 572.31,960.91 572.17,960.93 572.04,960.97 571.91,961.01 571.79,961.07 571.67,961.14 571.57,961.22 571.47,961.31 571.38,961.41 571.30,961.51 571.23,961.63 571.17,961.75 571.13,961.88 571.09,962.01 571.07,962.15 571.06,962.29 571.07,962.43 571.09,962.56 571.13,962.70 571.17,962.82 571.23,962.95 571.30,963.06 571.38,963.17 571.47,963.26 571.57,963.35 571.67,963.43 571.79,963.50 571.91,963.56 572.04,963.61 572.17,963.64 572.31,963.66 572.45,963.67 572.59,963.66 572.73,963.64 572.86,963.61 572.99,963.56 573.11,963.50 573.22,963.43 573.33,963.35 573.42,963.26 573.51,963.17 573.59,963.06 573.66,962.95 573.72,962.82 573.77,962.70 573.80,962.56 573.82,962.43 573.83,962.29 573.82,962.14 573.80,962.01 573.77,961.87 573.72,961.75 573.66,961.63 573.59,961.51 573.51,961.41 573.42,961.31 573.33,961.22 573.22,961.14 573.11,961.07 572.99,961.01 572.86,960.97 572.73,960.93 572.59,960.91 572.45,960.90 572.45,960.90" fill="none" stroke="transparent" stroke-width="1" opacity="1.0" stroke-linecap="round" stroke-linejoin="round"/><polyline points="577.14,969.74 577.14,969.74 577.25,969.75 577.36,969.78 577.45,969.83 577.53,969.90 577.60,969.98 577.65,970.07 577.68,970.18 577.69,970.29 577.69,977.47 577.69,977.47 577.68,977.58 577.65,977.68 577.60,977.78 577.53,977.86 577.45,977.92 577.36,977.98 577.25,978.01 577.14,978.02 554.77,978.02 554.77,978.02 554.66,978.01 554.56,977.98 554.47,977.92 554.38,977.86 554.32,977.78 554.27,977.68 554.23,977.58 554.22,977.47 554.22,970.29 554.22,970.29 554.23,970.18 554.27,970.08 554.32,969.98 554.38,969.90 554.47,969.83 554.56,969.78 554.66,969.75 554.77,969.74 577.14,969.74 577.14,969.74" fill="none" stroke="transparent" stroke-width="1" opacity="1.0" stroke-linecap="round" stroke-linejoin="round"/><polyline points="560.99,971.40 560.16,971.40 560.16,971.40 560.07,971.41 559.99,971.45 559.93,971.52 559.89,971.60 559.88,971.67 559.88,973.19 558.37,973.19 558.37,973.19 558.28,973.21 558.20,973.25 558.14,973.31 558.10,973.39 558.09,973.47 558.09,974.30 558.09,974.30 558.10,974.39 558.15,974.46 558.21,974.53 558.29,974.56 558.37,974.57 559.88,974.57 559.88,976.09 559.88,976.09 559.90,976.18 559.94,976.26 560.01,976.32 560.09,976.36 560.16,976.37 560.99,976.37 560.99,976.37 561.08,976.36 561.16,976.31 561.22,976.25 561.26,976.17 561.27,976.09 561.27,974.57 562.79,974.57 562.79,974.57 562.88,974.56 562.96,974.51 563.02,974.45 563.06,974.37 563.06,974.30 563.06,973.47 563.06,973.47 563.05,973.38 563.01,973.30 562.94,973.24 562.86,973.20 562.79,973.19 561.27,973.19 561.27,971.67 561.27,971.67 561.26,971.62 561.24,971.57 561.22,971.52 561.18,971.48 561.14,971.44 561.10,971.42 561.04,971.40 560.99,971.40 560.99,971.40" fill="none" stroke="transparent" stroke-width="1" opacity="1.0" stroke-linecap="round" stroke-linejoin="round"/><polyline points="568.30,973.61 568.30,973.61 568.16,973.61 568.03,973.63 567.89,973.67 567.77,973.72 567.65,973.77 567.53,973.84 567.42,973.92 567.33,974.01 567.24,974.11 567.16,974.22 567.09,974.33 567.03,974.45 566.98,974.58 566.95,974.71 566.93,974.85 566.92,974.99 566.93,975.13 566.95,975.27 566.98,975.40 567.03,975.53 567.09,975.65 567.16,975.76 567.24,975.87 567.33,975.97 567.42,976.06 567.53,976.14 567.65,976.20 567.77,976.26 567.89,976.31 568.03,976.34 568.16,976.36 568.30,976.37 568.45,976.36 568.58,976.34 568.71,976.31 568.84,976.26 568.96,976.20 569.08,976.14 569.18,976.06 569.28,975.97 569.37,975.87 569.45,975.76 569.52,975.65 569.58,975.53 569.62,975.40 569.66,975.27 569.68,975.13 569.69,974.99 569.68,974.85 569.66,974.71 569.62,974.58 569.58,974.45 569.52,974.33 569.45,974.21 569.37,974.11 569.28,974.01 569.18,973.92 569.08,973.84 568.96,973.77 568.84,973.71 568.71,973.67 568.58,973.63 568.45,973.61 568.30,973.61 568.30,973.61" fill="none" stroke="transparent" stroke-width="1" opacity="1.0" stroke-linecap="round" stroke-linejoin="round"/><polyline points="572.45,971.40 572.45,971.40 572.31,971.40 572.17,971.42 572.04,971.46 571.91,971.50 571.79,971.56 571.67,971.63 571.57,971.71 571.47,971.80 571.38,971.90 571.30,972.01 571.23,972.12 571.17,972.24 571.13,972.37 571.09,972.50 571.07,972.64 571.06,972.78 571.07,972.92 571.09,973.06 571.13,973.19 571.17,973.32 571.23,973.44 571.30,973.55 571.38,973.66 571.47,973.76 571.57,973.85 571.67,973.93 571.79,973.99 571.91,974.05 572.04,974.10 572.17,974.13 572.31,974.15 572.45,974.16 572.59,974.15 572.73,974.13 572.86,974.10 572.99,974.05 573.11,973.99 573.22,973.93 573.33,973.85 573.42,973.76 573.51,973.66 573.59,973.55 573.66,973.44 573.72,973.32 573.77,973.19 573.80,973.06 573.82,972.92 573.83,972.78 573.82,972.64 573.80,972.50 573.77,972.37 573.72,972.24 573.66,972.12 573.59,972.00 573.51,971.90 573.42,971.80 573.33,971.71 573.22,971.63 573.11,971.56 572.99,971.50 572.86,971.46 572.73,971.42 572.59,971.40 572.45,971.40 572.45,971.40" fill="none" stroke="transparent" stroke-width="1" opacity="1.0" stroke-linecap="round" stroke-linejoin="round"/><polyline points="560.99,950.41 560.16,950.41 560.16,950.41 560.07,950.42 559.99,950.46 559.93,950.53 559.89,950.61 559.88,950.68 559.88,952.20 558.37,952.20 558.37,952.20 558.28,952.22 558.20,952.26 558.14,952.32 558.10,952.40 558.09,952.48 558.09,953.31 558.09,953.31 558.10,953.40 558.15,953.47 558.21,953.54 558.29,953.57 558.37,953.58 559.88,953.58 559.88,955.10 559.88,955.10 559.90,955.19 559.94,955.27 560.01,955.33 560.09,955.37 560.16,955.38 560.99,955.38 560.99,955.38 561.08,955.37 561.16,955.32 561.22,955.26 561.26,955.18 561.27,955.10 561.27,953.58 562.79,953.58 562.79,953.58 562.88,953.57 562.96,953.53 563.02,953.46 563.06,953.38 563.06,953.31 563.06,952.48 563.06,952.48 563.05,952.39 563.01,952.31 562.94,952.25 562.86,952.21 562.79,952.20 561.27,952.20 561.27,950.68 561.27,950.68 561.26,950.63 561.24,950.58 561.22,950.53 561.18,950.49 561.14,950.45 561.10,950.43 561.04,950.41 560.99,950.41 560.99,950.41" fill="none" stroke="transparent" stroke-width="1" opacity="1.0" stroke-linecap="round" stroke-linejoin="round"/><polyline points="568.30,952.62 568.30,952.62 568.16,952.62 568.03,952.65 567.89,952.68 567.77,952.73 567.65,952.78 567.53,952.85 567.42,952.93 567.33,953.02 567.24,953.12 567.16,953.23 567.09,953.34 567.03,953.46 566.98,953.59 566.95,953.72 566.93,953.86 566.92,954.00 566.93,954.14 566.95,954.28 566.98,954.41 567.03,954.54 567.09,954.66 567.16,954.77 567.24,954.88 567.33,954.98 567.42,955.07 567.53,955.15 567.65,955.22 567.77,955.27 567.89,955.32 568.03,955.35 568.16,955.38 568.30,955.38 568.45,955.38 568.58,955.35 568.71,955.32 568.84,955.27 568.96,955.22 569.08,955.15 569.18,955.07 569.28,954.98 569.37,954.88 569.45,954.77 569.52,954.66 569.58,954.54 569.62,954.41 569.66,954.28 569.68,954.14 569.69,954.00 569.68,953.86 569.66,953.72 569.62,953.59 569.58,953.46 569.52,953.34 569.45,953.23 569.37,953.12 569.28,953.02 569.18,952.93 569.08,952.85 568.96,952.78 568.84,952.73 568.71,952.68 568.58,952.65 568.45,952.62 568.30,952.62 568.30,952.62" fill="none" stroke="transparent" stroke-width="1" opacity="1.0" stroke-linecap="round" stroke-linejoin="round"/><polyline points="572.45,950.41 572.45,950.41 572.31,950.41 572.17,950.43 572.04,950.47 571.91,950.52 571.79,950.57 571.67,950.64 571.57,950.72 571.47,950.81 571.38,950.91 571.30,951.02 571.23,951.13 571.17,951.25 571.13,951.38 571.09,951.51 571.07,951.65 571.06,951.79 571.07,951.93 571.09,952.07 571.13,952.20 571.17,952.33 571.23,952.45 571.30,952.56 571.38,952.67 571.47,952.77 571.57,952.86 571.67,952.94 571.79,953.00 571.91,953.06 572.04,953.11 572.17,953.14 572.31,953.16 572.45,953.17 572.59,953.16 572.73,953.14 572.86,953.11 572.99,953.06 573.11,953.00 573.22,952.94 573.33,952.86 573.42,952.77 573.51,952.67 573.59,952.56 573.66,952.45 573.72,952.33 573.77,952.20 573.80,952.07 573.82,951.93 573.83,951.79 573.82,951.65 573.80,951.51 573.77,951.38 573.72,951.25 573.66,951.13 573.59,951.02 573.51,950.91 573.42,950.81 573.33,950.72 573.22,950.64 573.11,950.57 572.99,950.52 572.86,950.47 572.73,950.43 572.59,950.41 572.45,950.41 572.45,950.41" fill="none" stroke="transparent" stroke-width="1" opacity="1.0" stroke-linecap="round" stroke-linejoin="round"/><polyline points="560.99,960.90 560.16,960.90 560.16,960.90 560.07,960.92 559.99,960.96 559.93,961.03 559.89,961.11 559.88,961.18 559.88,962.70 558.37,962.70 558.37,962.70 558.28,962.71 558.20,962.76 558.14,962.82 558.10,962.90 558.09,962.98 558.09,963.80 558.09,963.80 558.10,963.89 558.15,963.97 558.21,964.03 558.29,964.07 558.37,964.08 559.88,964.08 559.88,965.60 559.88,965.60 559.90,965.69 559.94,965.77 560.01,965.83 560.09,965.87 560.16,965.88 560.99,965.88 560.99,965.88 561.08,965.86 561.16,965.82 561.22,965.76 561.26,965.68 561.27,965.60 561.27,964.08 562.79,964.08 562.79,964.08 562.88,964.06 562.96,964.02 563.02,963.96 563.06,963.88 563.06,963.80 563.06,962.98 563.06,962.98 563.05,962.89 563.01,962.81 562.94,962.75 562.86,962.71 562.79,962.70 561.27,962.70 561.27,961.18 561.27,961.18 561.26,961.12 561.24,961.07 561.22,961.02 561.18,960.98 561.14,960.95 561.10,960.92 561.04,960.91 560.99,960.90 560.99,960.90" fill="none" stroke="transparent" stroke-width="1" opacity="1.0" stroke-linecap="round" stroke-linejoin="round"/><polyline points="568.30,963.11 568.30,963.11 568.16,963.12 568.03,963.14 567.89,963.17 567.77,963.22 567.65,963.28 567.53,963.35 567.42,963.43 567.33,963.51 567.24,963.61 567.16,963.72 567.09,963.83 567.03,963.95 566.98,964.08 566.95,964.21 566.93,964.35 566.92,964.49 566.93,964.63 566.95,964.77 566.98,964.90 567.03,965.03 567.09,965.15 567.16,965.26 567.24,965.37 567.33,965.47 567.42,965.56 567.53,965.64 567.65,965.71 567.77,965.77 567.89,965.81 568.03,965.85 568.16,965.87 568.30,965.87 568.45,965.87 568.58,965.85 568.71,965.81 568.84,965.77 568.96,965.71 569.08,965.64 569.18,965.56 569.28,965.47 569.37,965.37 569.45,965.26 569.52,965.15 569.58,965.03 569.62,964.90 569.66,964.77 569.68,964.63 569.69,964.49 569.68,964.35 569.66,964.21 569.62,964.08 569.58,963.95 569.52,963.83 569.45,963.72 569.37,963.61 569.28,963.51 569.18,963.43 569.08,963.35 568.96,963.28 568.84,963.22 568.71,963.17 568.58,963.14 568.45,963.12 568.30,963.11 568.30,963.11" fill="none" stroke="transparent" stroke-width="1" opacity="1.0" stroke-linecap="round" stroke-linejoin="round"/><polyline points="572.45,960.90 572.45,960.90 572.31,960.91 572.17,960.93 572.04,960.97 571.91,961.01 571.79,961.07 571.67,961.14 571.57,961.22 571.47,961.31 571.38,961.41 571.30,961.51 571.23,961.63 571.17,961.75 571.13,961.88 571.09,962.01 571.07,962.15 571.06,962.29 571.07,962.43 571.09,962.56 571.13,962.70 571.17,962.82 571.23,962.95 571.30,963.06 571.38,963.17 571.47,963.26 571.57,963.35 571.67,963.43 571.79,963.50 571.91,963.56 572.04,963.61 572.17,963.64 572.31,963.66 572.45,963.67 572.59,963.66 572.73,963.64 572.86,963.61 572.99,963.56 573.11,963.50 573.22,963.43 573.33,963.35 573.42,963.26 573.51,963.17 573.59,963.06 573.66,962.95 573.72,962.82 573.77,962.70 573.80,962.56 573.82,962.43 573.83,962.29 573.82,962.14 573.80,962.01 573.77,961.87 573.72,961.75 573.66,961.63 573.59,961.51 573.51,961.41 573.42,961.31 573.33,961.22 573.22,961.14 573.11,961.07 572.99,961.01 572.86,960.97 572.73,960.93 572.59,960.91 572.45,960.90 572.45,960.90" fill="none" stroke="transparent" stroke-width="1" opacity="1.0" stroke-linecap="round" stroke-linejoin="round"/><polyline points="560.99,971.40 560.16,971.40 560.16,971.40 560.07,971.41 559.99,971.45 559.93,971.52 559.89,971.60 559.88,971.67 559.88,973.19 558.37,973.19 558.37,973.19 558.28,973.21 558.20,973.25 558.14,973.31 558.10,973.39 558.09,973.47 558.09,974.30 558.09,974.30 558.10,974.39 558.15,974.46 558.21,974.53 558.29,974.56 558.37,974.57 559.88,974.57 559.88,976.09 559.88,976.09 559.90,976.18 559.94,976.26 560.01,976.32 560.09,976.36 560.16,976.37 560.99,976.37 560.99,976.37 561.08,976.36 561.16,976.31 561.22,976.25 561.26,976.17 561.27,976.09 561.27,974.57 562.79,974.57 562.79,974.57 562.88,974.56 562.96,974.51 563.02,974.45 563.06,974.37 563.06,974.30 563.06,973.47 563.06,973.47 563.05,973.38 563.01,973.30 562.94,973.24 562.86,973.20 562.79,973.19 561.27,973.19 561.27,971.67 561.27,971.67 561.26,971.62 561.24,971.57 561.22,971.52 561.18,971.48 561.14,971.44 561.10,971.42 561.04,971.40 560.99,971.40 560.99,971.40" fill="none" stroke="transparent" stroke-width="1" opacity="1.0" stroke-linecap="round" stroke-linejoin="round"/><polyline points="568.30,973.61 568.30,973.61 568.16,973.61 568.03,973.63 567.89,973.67 567.77,973.72 567.65,973.77 567.53,973.84 567.42,973.92 567.33,974.01 567.24,974.11 567.16,974.22 567.09,974.33 567.03,974.45 566.98,974.58 566.95,974.71 566.93,974.85 566.92,974.99 566.93,975.13 566.95,975.27 566.98,975.40 567.03,975.53 567.09,975.65 567.16,975.76 567.24,975.87 567.33,975.97 567.42,976.06 567.53,976.14 567.65,976.20 567.77,976.26 567.89,976.31 568.03,976.34 568.16,976.36 568.30,976.37 568.45,976.36 568.58,976.34 568.71,976.31 568.84,976.26 568.96,976.20 569.08,976.14 569.18,976.06 569.28,975.97 569.37,975.87 569.45,975.76 569.52,975.65 569.58,975.53 569.62,975.40 569.66,975.27 569.68,975.13 569.69,974.99 569.68,974.85 569.66,974.71 569.62,974.58 569.58,974.45 569.52,974.33 569.45,974.21 569.37,974.11 569.28,974.01 569.18,973.92 569.08,973.84 568.96,973.77 568.84,973.71 568.71,973.67 568.58,973.63 568.45,973.61 568.30,973.61 568.30,973.61" fill="none" stroke="transparent" stroke-width="1" opacity="1.0" stroke-linecap="round" stroke-linejoin="round"/><polyline points="572.45,971.40 572.45,971.40 572.31,971.40 572.17,971.42 572.04,971.46 571.91,971.50 571.79,971.56 571.67,971.63 571.57,971.71 571.47,971.80 571.38,971.90 571.30,972.01 571.23,972.12 571.17,972.24 571.13,972.37 571.09,972.50 571.07,972.64 571.06,972.78 571.07,972.92 571.09,973.06 571.13,973.19 571.17,973.32 571.23,973.44 571.30,973.55 571.38,973.66 571.47,973.76 571.57,973.85 571.67,973.93 571.79,973.99 571.91,974.05 572.04,974.10 572.17,974.13 572.31,974.15 572.45,974.16 572.59,974.15 572.73,974.13 572.86,974.10 572.99,974.05 573.11,973.99 573.22,973.93 573.33,973.85 573.42,973.76 573.51,973.66 573.59,973.55 573.66,973.44 573.72,973.32 573.77,973.19 573.80,973.06 573.82,972.92 573.83,972.78 573.82,972.64 573.80,972.50 573.77,972.37 573.72,972.24 573.66,972.12 573.59,972.00 573.51,971.90 573.42,971.80 573.33,971.71 573.22,971.63 573.11,971.56 572.99,971.50 572.86,971.46 572.73,971.42 572.59,971.40 572.45,971.40 572.45,971.40" fill="none" stroke="transparent" stroke-width="1" opacity="1.0" stroke-linecap="round" stroke-linejoin="round"/></svg>