<svg xmlns="http://www.w3.org/2000/svg" viewBox="1738.26 3605.57 133.10 119.53" width="133" height="120"><polyline points="1811.24,3611.57 1824.18,3611.91 1851.66,3638.92 1851.30,3692.60 1824.56,3718.68 1810.72,3719.10 1797.53,3703.13 1818.51,3703.36 1835.84,3685.30 1836.06,3645.48 1818.12,3626.95 1797.58,3626.94 1811.24,3611.57" fill="#669df6" stroke="#1864ab" stroke-width="1" opacity="1.0" stroke-linecap="round" stroke-linejoin="round"/><polyline points="1797.46,3611.86 1771.03,3612.12 1744.26,3638.86 1744.78,3692.10 1771.55,3718.60 1797.78,3718.95 1784.42,3702.88 1777.13,3703.38 1759.29,3685.50 1759.69,3645.49 1777.36,3627.18 1784.16,3627.01 1795.85,3614.04" fill="#669df6" stroke="#1864ab" stroke-width="1" opacity="1.0" stroke-linecap="round" stroke-linejoin="round"/><polyline points="1811.27,3638.39 1824.58,3652.01 1824.81,3678.97 1812.03,3691.87 1798.22,3679.15 1810.97,3664.85 1797.69,3651.96 1809.83,3639.85" fill="#4285f4" stroke="#1864ab" stroke-width="1" opacity="1.0" stroke-linecap="round" stroke-linejoin="round"/><polyline points="1797.69,3638.30 1784.39,3638.26 1770.91,3652.24 1770.80,3678.22 1784.48,3691.96 1797.78,3691.79 1784.69,3678.92 1798.15,3664.78 1784.20,3651.70 1797.54,3639.55" fill="#4285f4" stroke="#1864ab" stroke-width="1" opacity="1.0" stroke-linecap="round" stroke-linejoin="round"/></svg>