<svg version="1.1" xmlns="http://www.w3.org/2000/svg" viewBox="0 0 110.93626311067851 149.45632048576135" width="110.93626311067851" height="149.45632048576135">
  <!-- svg-source:excalidraw -->
  
  <defs>
    
    
  </defs>
  <g stroke-linecap="round" transform="translate(7.520664559246825 66.45559342363777) rotate(0 7.028228759765739 7.028228759765739)"><path d="M7.44 -0.37 C8.91 -0.45, 10.64 0.61, 11.73 1.68 C12.83 2.76, 13.77 4.63, 14.01 6.06 C14.24 7.5, 13.85 9, 13.12 10.28 C12.39 11.56, 10.96 13.11, 9.61 13.72 C8.27 14.34, 6.45 14.56, 5.03 13.97 C3.6 13.38, 1.89 11.62, 1.06 10.21 C0.22 8.8, -0.31 6.9, 0.01 5.53 C0.33 4.16, 1.76 2.94, 2.98 2 C4.19 1.07, 6.63 0.23, 7.31 -0.09 C7.99 -0.4, 7.06 0.05, 7.04 0.11 M7.02 -0.6 C8.39 -0.53, 10.73 0.54, 11.91 1.82 C13.09 3.1, 13.95 5.58, 14.11 7.08 C14.26 8.58, 13.81 9.7, 12.84 10.82 C11.87 11.94, 9.77 13.42, 8.29 13.78 C6.8 14.15, 5.29 13.65, 3.92 13.01 C2.54 12.36, 0.71 11.26, 0.02 9.92 C-0.66 8.57, -0.7 6.38, -0.19 4.92 C0.32 3.46, 1.84 2.03, 3.09 1.14 C4.34 0.25, 6.61 -0.35, 7.31 -0.4 C8.01 -0.45, 7.15 0.69, 7.3 0.84" stroke="none" stroke-width="0" fill="#aecbfa"></path><path d="M6 0.08 C7.4 -0.37, 9.13 -0.31, 10.42 0.49 C11.7 1.28, 13.25 3.33, 13.72 4.85 C14.18 6.38, 13.79 8.21, 13.23 9.65 C12.66 11.09, 11.54 12.68, 10.32 13.49 C9.1 14.29, 7.34 14.76, 5.93 14.47 C4.51 14.18, 2.8 12.99, 1.84 11.74 C0.89 10.49, 0.25 8.49, 0.2 6.97 C0.15 5.45, 0.56 3.76, 1.53 2.63 C2.5 1.51, 5.35 0.56, 6.04 0.22 C6.72 -0.12, 5.58 0.48, 5.63 0.58 M8.5 -0.39 C9.84 -0.35, 11.4 0.92, 12.23 2.15 C13.06 3.39, 13.56 5.51, 13.46 7.03 C13.36 8.54, 12.55 9.97, 11.64 11.24 C10.73 12.52, 9.38 14.43, 7.99 14.69 C6.59 14.95, 4.55 13.73, 3.27 12.8 C1.99 11.88, 0.68 10.38, 0.31 9.11 C-0.05 7.84, 0.56 6.48, 1.08 5.2 C1.59 3.92, 2.22 2.36, 3.41 1.42 C4.59 0.47, 7.29 -0.17, 8.2 -0.47 C9.11 -0.78, 8.82 -0.72, 8.84 -0.44" stroke="#669df6" stroke-width="1" fill="none"></path></g><g stroke-linecap="round" transform="translate(49.32790536328298 53.61964575111165) rotate(0 7.028228759765739 7.028228759765739)"><path d="M7.53 0.2 C8.97 0.21, 10.57 1.41, 11.65 2.34 C12.73 3.26, 13.72 4.34, 14.01 5.77 C14.3 7.19, 14.3 9.47, 13.4 10.88 C12.5 12.29, 10.1 13.78, 8.61 14.21 C7.12 14.64, 5.77 14.05, 4.44 13.45 C3.11 12.85, 1.36 11.86, 0.65 10.59 C-0.07 9.32, -0.25 7.37, 0.13 5.83 C0.52 4.29, 1.67 2.27, 2.96 1.35 C4.26 0.42, 7.04 0.41, 7.88 0.27 C8.72 0.14, 7.97 0.47, 8.01 0.51 M7.89 0.24 C9.54 0.38, 12.01 1.21, 12.99 2.27 C13.97 3.34, 13.96 5.03, 13.78 6.64 C13.6 8.25, 12.91 10.58, 11.9 11.91 C10.9 13.24, 9.09 14.33, 7.74 14.64 C6.4 14.94, 4.97 14.64, 3.83 13.74 C2.69 12.84, 1.44 10.61, 0.92 9.22 C0.39 7.83, 0.24 6.81, 0.66 5.4 C1.07 3.99, 2.28 1.52, 3.4 0.76 C4.52 0, 6.59 0.98, 7.37 0.82 C8.15 0.66, 8.02 -0.16, 8.07 -0.22" stroke="none" stroke-width="0" fill="#aecbfa"></path><path d="M7.44 -0.33 C8.95 -0.28, 11.45 0.93, 12.46 2.1 C13.48 3.26, 13.54 5.23, 13.55 6.67 C13.57 8.1, 13.33 9.46, 12.53 10.73 C11.74 12.01, 10.17 13.92, 8.79 14.31 C7.41 14.7, 5.66 13.72, 4.24 13.06 C2.83 12.41, 1 11.68, 0.29 10.38 C-0.43 9.09, -0.49 6.83, -0.03 5.3 C0.42 3.77, 1.65 2.12, 3.02 1.2 C4.4 0.29, 7.41 0.04, 8.21 -0.18 C9.02 -0.41, 7.95 -0.26, 7.86 -0.14 M7.25 0.58 C8.73 0.58, 11.07 1.43, 12.09 2.3 C13.1 3.17, 13.11 4.34, 13.33 5.78 C13.56 7.22, 14.03 9.69, 13.42 10.95 C12.81 12.22, 11.27 13.01, 9.68 13.38 C8.08 13.75, 5.25 13.6, 3.84 13.17 C2.43 12.75, 1.88 12.01, 1.21 10.83 C0.54 9.64, -0.5 7.65, -0.17 6.06 C0.15 4.48, 1.94 2.4, 3.16 1.31 C4.38 0.23, 6.55 -0.22, 7.16 -0.45 C7.78 -0.68, 6.77 -0.24, 6.83 -0.05" stroke="#669df6" stroke-width="1" fill="none"></path></g><g stroke-linecap="round" transform="translate(49.22416594270976 80.65030574460116) rotate(0 7.028228759765739 7.028228759765739)"><path d="M7.91 0.05 C9.43 0.1, 11.52 1.03, 12.55 2.18 C13.58 3.33, 14.08 5.48, 14.09 6.95 C14.1 8.41, 13.49 9.76, 12.64 10.97 C11.78 12.18, 10.41 13.79, 8.98 14.21 C7.55 14.63, 5.5 14.19, 4.04 13.48 C2.58 12.78, 0.87 11.45, 0.23 9.98 C-0.42 8.5, -0.33 6.08, 0.18 4.64 C0.7 3.21, 2.07 2.06, 3.33 1.37 C4.59 0.68, 6.93 0.59, 7.76 0.48 C8.58 0.36, 8.3 0.64, 8.28 0.7 M9.03 0.61 C10.5 0.75, 12.28 0.96, 13.04 2.18 C13.8 3.39, 13.61 6.27, 13.59 7.9 C13.57 9.52, 13.79 10.99, 12.92 11.91 C12.05 12.83, 9.85 13.26, 8.37 13.42 C6.89 13.57, 5.43 13.46, 4.02 12.83 C2.61 12.2, 0.58 10.97, -0.07 9.65 C-0.71 8.33, -0.49 6.39, 0.14 4.91 C0.76 3.42, 2.17 1.48, 3.67 0.74 C5.17 0.01, 8.25 0.63, 9.12 0.5 C9.99 0.36, 9.06 -0.19, 8.89 -0.05" stroke="none" stroke-width="0" fill="#aecbfa"></path><path d="M8.1 0.41 C9.53 0.59, 11.63 1.55, 12.6 2.74 C13.56 3.93, 13.94 6.13, 13.9 7.54 C13.87 8.94, 13.26 10.12, 12.39 11.2 C11.52 12.27, 10.24 13.6, 8.67 14 C7.1 14.39, 4.34 14.33, 2.98 13.55 C1.63 12.78, 1 10.77, 0.55 9.33 C0.11 7.9, -0.18 6.28, 0.31 4.94 C0.8 3.6, 2.1 2.09, 3.51 1.28 C4.92 0.48, 7.87 0.21, 8.79 0.1 C9.7 -0.01, 9.07 0.46, 8.99 0.63 M7.91 -0.05 C9.36 0.12, 11.28 1.69, 12.42 2.9 C13.56 4.12, 14.82 5.78, 14.74 7.23 C14.66 8.67, 13.18 10.35, 11.94 11.56 C10.7 12.78, 8.89 14.15, 7.33 14.5 C5.77 14.85, 3.71 14.48, 2.57 13.68 C1.43 12.88, 0.75 11.3, 0.48 9.69 C0.22 8.07, 0.36 5.35, 0.96 3.97 C1.56 2.59, 2.8 2.08, 4.07 1.4 C5.34 0.72, 7.96 -0.05, 8.58 -0.11 C9.21 -0.17, 7.84 0.96, 7.81 1.04" stroke="#669df6" stroke-width="1" fill="none"></path></g><g stroke-linecap="round" transform="translate(90.87980559114726 67.49771785397616) rotate(0 7.028228759765739 7.028228759765739)"><path d="M6.35 0.06 C7.7 -0.12, 9.41 0.66, 10.67 1.51 C11.94 2.36, 13.5 3.83, 13.94 5.16 C14.39 6.5, 13.87 8.18, 13.33 9.52 C12.78 10.86, 11.93 12.47, 10.65 13.22 C9.38 13.98, 7.26 14.38, 5.66 14.04 C4.07 13.71, 2.05 12.46, 1.07 11.19 C0.08 9.92, -0.35 7.95, -0.25 6.41 C-0.14 4.87, 0.63 2.94, 1.69 1.95 C2.75 0.96, 5.38 0.82, 6.13 0.47 C6.88 0.12, 6.18 -0.2, 6.2 -0.16 M6.49 -0.26 C7.92 -0.59, 10.15 -0.47, 11.36 0.41 C12.57 1.28, 13.41 3.44, 13.75 5 C14.09 6.56, 13.93 8.5, 13.42 9.78 C12.9 11.05, 11.98 11.84, 10.67 12.64 C9.36 13.44, 7.06 14.83, 5.57 14.57 C4.08 14.31, 2.65 12.47, 1.71 11.1 C0.76 9.73, -0.11 7.68, -0.1 6.36 C-0.08 5.03, 0.83 4.31, 1.78 3.17 C2.74 2.02, 4.83 0.05, 5.63 -0.52 C6.44 -1.09, 6.43 -0.55, 6.6 -0.26" stroke="none" stroke-width="0" fill="#aecbfa"></path><path d="M7.15 0.21 C8.59 0.15, 11.11 1, 12.23 1.92 C13.34 2.83, 13.62 4.21, 13.82 5.71 C14.02 7.2, 14.25 9.57, 13.42 10.87 C12.58 12.18, 10.35 13.08, 8.79 13.56 C7.23 14.03, 5.42 14.27, 4.05 13.75 C2.68 13.23, 1.22 11.81, 0.57 10.42 C-0.07 9.04, -0.26 6.95, 0.18 5.44 C0.61 3.93, 1.91 2.2, 3.17 1.34 C4.42 0.48, 6.91 0.53, 7.7 0.29 C8.49 0.05, 7.86 -0.24, 7.91 -0.12 M8.16 -0.15 C9.47 0.03, 10.62 1.31, 11.67 2.35 C12.71 3.39, 14.15 4.61, 14.42 6.09 C14.69 7.57, 14.12 10.03, 13.27 11.25 C12.42 12.47, 10.89 12.96, 9.34 13.4 C7.79 13.85, 5.39 14.54, 3.96 13.93 C2.53 13.31, 1.28 11.12, 0.76 9.72 C0.25 8.32, 0.4 7.01, 0.88 5.5 C1.36 4, 2.58 1.48, 3.66 0.68 C4.74 -0.11, 6.56 0.76, 7.36 0.72 C8.16 0.67, 8.32 0.49, 8.44 0.4" stroke="#669df6" stroke-width="1" fill="none"></path></g><g stroke-linecap="round"><g transform="translate(8.113060327172889 60.60279459580306) rotate(0 24.18419814691299 -20.064765653551035)" fill-rule="evenodd"><path d="M0.05 -0.36 L-0.39 -12.3 L47.69 -40.2 L48.16 -12.16 L42.88 -12.56 L41.41 -23.09 L12.98 -7.36 L13.08 -0.71 L0.51 1.28" stroke="none" stroke-width="0" fill="#aecbfa" fill-rule="evenodd"></path><path d="M0 0 C0.32 -4.21, -0.61 -6.96, -0.26 -13.25 M0 0 C-0.37 -4.79, -0.3 -10.37, -0.26 -13.25 M-0.26 -13.25 C17.08 -23.18, 35.31 -32.2, 48.63 -40.48 M-0.26 -13.25 C17.89 -23.1, 35.44 -32.85, 48.63 -40.48 M48.63 -40.48 C47.77 -34.68, 47.71 -28.86, 48.4 -12.29 M48.63 -40.48 C48.27 -29.61, 48.01 -18.32, 48.4 -12.29 M48.4 -12.29 C47.24 -12.5, 45.51 -12.09, 42.11 -12.07 M48.4 -12.29 C46.55 -12.25, 45.06 -12.13, 42.11 -12.07 M42.11 -12.07 C42.22 -14.48, 42.01 -18.54, 42.34 -23.95 M42.11 -12.07 C42.4 -16.4, 42.03 -21.22, 42.34 -23.95 M42.34 -23.95 C32.44 -17.62, 21.28 -12.72, 12.65 -7.36 M42.34 -23.95 C33.85 -19.36, 25.92 -14.19, 12.65 -7.36 M12.65 -7.36 C12.55 -4.83, 12.78 -2.61, 12.63 0.12 M12.65 -7.36 C12.61 -5.15, 12.73 -2.7, 12.63 0.12 M12.63 0.12 C9.28 -0.17, 6.33 0.58, 0.42 0.35 M12.63 0.12 C8.81 0.2, 5.09 0.27, 0.42 0.35 M0.42 0.35 C0.32 0.27, 0.24 0.2, 0 0 M0.42 0.35 C0.3 0.25, 0.15 0.14, 0 0" stroke="#669df6" stroke-width="1" fill="none"></path></g></g><mask></mask><g stroke-linecap="round"><g transform="translate(104.3080470799448 61.2213897399929) rotate(0 -24.18419814691299 -20.064765653551035)" fill-rule="evenodd"><path d="M0.29 0.49 L-0.41 -14.03 L-48.62 -41.19 L-48.63 -12.33 L-42.36 -12.64 L-42.55 -24.59 L-12.29 -7.01 L-13.04 0.69 L-1.23 -0.44" stroke="none" stroke-width="0" fill="#669df6" fill-rule="evenodd"></path><path d="M0 0 C-0.34 -3.04, 0.64 -5.03, 0.26 -13.25 M0 0 C0.16 -2.81, -0.07 -5.78, 0.26 -13.25 M0.26 -13.25 C-17.17 -23.32, -35.05 -32.03, -48.63 -40.48 M0.26 -13.25 C-12.31 -20.04, -24.11 -26.65, -48.63 -40.48 M-48.63 -40.48 C-47.85 -33.19, -49.03 -23.67, -48.4 -12.29 M-48.63 -40.48 C-48.39 -29.6, -47.98 -18.61, -48.4 -12.29 M-48.4 -12.29 C-46.55 -12.14, -44.21 -11.96, -42.11 -12.07 M-48.4 -12.29 C-46.63 -12.25, -44.53 -12.2, -42.11 -12.07 M-42.11 -12.07 C-41.71 -14.96, -42.57 -18.47, -42.34 -23.95 M-42.11 -12.07 C-42.14 -15.42, -42.36 -18.82, -42.34 -23.95 M-42.34 -23.95 C-30.85 -17.67, -20.98 -12.55, -12.65 -7.36 M-42.34 -23.95 C-32.62 -18.15, -22.76 -12.66, -12.65 -7.36 M-12.65 -7.36 C-12.68 -5.05, -12.8 -2.29, -12.63 0.12 M-12.65 -7.36 C-12.71 -5.8, -12.71 -4.02, -12.63 0.12 M-12.63 0.12 C-9.76 0.07, -5.6 0.59, -0.42 0.35 M-12.63 0.12 C-8.59 0.42, -4.1 0.53, -0.42 0.35 M-0.42 0.35 C-0.31 0.29, -0.25 0.21, 0 0 M-0.42 0.35 C-0.31 0.25, -0.19 0.14, 0 0" stroke="#1864ab" stroke-width="1" fill="none"></path></g></g><mask></mask><g stroke-linecap="round"><g transform="translate(54.643632151138945 129.1999939644129) rotate(180 -24.18419814691299 -20.064765653551035)" fill-rule="evenodd"><path d="M-0.11 -0.57 L0.67 -12.65 L-48.38 -39.56 L-49.1 -12.96 L-41.2 -12.12 L-41.49 -23.33 L-13.36 -6.96 L-12.82 0.21 L-1.11 0.19" stroke="none" stroke-width="0" fill="#aecbfa" fill-rule="evenodd"></path><path d="M0 0 C-0.33 -4.24, -0.08 -8.79, 0.26 -13.25 M0 0 C0.33 -4.87, 0.28 -9.62, 0.26 -13.25 M0.26 -13.25 C-11.75 -21.12, -24.35 -27.79, -48.63 -40.48 M0.26 -13.25 C-17.56 -22.42, -34.4 -32.4, -48.63 -40.48 M-48.63 -40.48 C-48.33 -33.16, -48.48 -25.61, -48.4 -12.29 M-48.63 -40.48 C-48.39 -32.54, -48.51 -25.03, -48.4 -12.29 M-48.4 -12.29 C-45.74 -12.39, -43.19 -11.86, -42.11 -12.07 M-48.4 -12.29 C-46.34 -12.28, -44.37 -12.28, -42.11 -12.07 M-42.11 -12.07 C-42.17 -15.58, -42.19 -19.75, -42.34 -23.95 M-42.11 -12.07 C-42.09 -15.33, -42.34 -17.85, -42.34 -23.95 M-42.34 -23.95 C-31.14 -18.04, -20.24 -12.09, -12.65 -7.36 M-42.34 -23.95 C-36.1 -20.11, -29.57 -16.89, -12.65 -7.36 M-12.65 -7.36 C-12.51 -4.65, -12.61 -2.65, -12.63 0.12 M-12.65 -7.36 C-12.43 -4.78, -12.61 -1.99, -12.63 0.12 M-12.63 0.12 C-9.55 0.26, -5.38 0.12, -0.42 0.35 M-12.63 0.12 C-9.23 0.11, -6.47 0.36, -0.42 0.35 M-0.42 0.35 C-0.29 0.28, -0.18 0.13, 0 0 M-0.42 0.35 C-0.28 0.24, -0.14 0.12, 0 0" stroke="#669df6" stroke-width="1" fill="none"></path></g></g><mask></mask><g stroke-linecap="round"><g transform="translate(56.09646191578099 129.55437195710465) rotate(180 24.18419814691299 -20.064765653551035)" fill-rule="evenodd"><path d="M0.5 0.92 L-0.95 -14.18 L48 -41.29 L47.77 -12.71 L41.74 -11.55 L41.45 -23.12 L12.03 -8.02 L12.18 -0.41 L0.68 1.13" stroke="none" stroke-width="0" fill="#669df6" fill-rule="evenodd"></path><path d="M0 0 C0.2 -3.65, -0.14 -7.22, -0.26 -13.25 M0 0 C0.19 -4.11, -0.35 -8.97, -0.26 -13.25 M-0.26 -13.25 C14.28 -22.2, 29.68 -31.09, 48.63 -40.48 M-0.26 -13.25 C18.5 -23.49, 36.87 -33.88, 48.63 -40.48 M48.63 -40.48 C48.1 -33.65, 49.15 -24.68, 48.4 -12.29 M48.63 -40.48 C48.1 -34.77, 48.03 -28.98, 48.4 -12.29 M48.4 -12.29 C46.12 -12.05, 43.86 -11.97, 42.11 -12.07 M48.4 -12.29 C46.27 -12.18, 43.83 -12.23, 42.11 -12.07 M42.11 -12.07 C41.6 -16.27, 42.05 -20.26, 42.34 -23.95 M42.11 -12.07 C42.31 -15.55, 42.15 -19.34, 42.34 -23.95 M42.34 -23.95 C35.34 -19.84, 28.21 -16.31, 12.65 -7.36 M42.34 -23.95 C33.27 -19.29, 24.13 -13.72, 12.65 -7.36 M12.65 -7.36 C12.93 -4.17, 12.28 -1.67, 12.63 0.12 M12.65 -7.36 C12.64 -4.66, 12.51 -1.83, 12.63 0.12 M12.63 0.12 C9.33 0.76, 4.89 0.62, 0.42 0.35 M12.63 0.12 C8.61 -0.04, 4.13 0.29, 0.42 0.35 M0.42 0.35 C0.32 0.25, 0.23 0.17, 0 0 M0.42 0.35 C0.3 0.25, 0.2 0.18, 0 0" stroke="#1864ab" stroke-width="1" fill="none"></path></g></g><mask></mask><g stroke-linecap="round"><g transform="translate(21.239345168540922 12.432234241116475) rotate(0 17.641252087008525 3.9737381473663618)" fill-rule="evenodd"><path d="M0.85 0.38 L11.72 -6.52 L34.49 6.81 L23.55 13.55 L0.12 0.11" stroke="none" stroke-width="0" fill="#669df6" fill-rule="evenodd"></path><path d="M0 0 C4.06 -2.2, 6.39 -4.5, 12 -6.43 M0 0 C4.27 -2.16, 8.29 -4.16, 12 -6.43 M12 -6.43 C19.57 -2.42, 25.18 2.42, 35.28 7.62 M12 -6.43 C17.12 -3.54, 21.76 -0.03, 35.28 7.62 M35.28 7.62 C31.64 10.32, 26.86 12.18, 23.42 14.38 M35.28 7.62 C31.74 9.72, 28.7 11.21, 23.42 14.38 M23.42 14.38 C14.91 8.55, 6.9 4.93, 0 0 M23.42 14.38 C17.23 10.73, 11.28 7.33, 0 0 M0 0 C0 0, 0 0, 0 0 M0 0 C0 0, 0 0, 0 0" stroke="#1864ab" stroke-width="1" fill="none"></path></g></g><mask></mask><g stroke-linecap="round"><g transform="translate(91.3295639894202 12.672939177482476) rotate(0 -17.641252087008525 3.9737381473663618)" fill-rule="evenodd"><path d="M-0.16 -0.94 L-12.94 -6.11 L-34.38 7.84 L-22.89 14.19 L-0.41 0.74" stroke="none" stroke-width="0" fill="#4285f4" fill-rule="evenodd"></path><path d="M0 0 C-2.81 -1.46, -5.99 -3.87, -12 -6.43 M0 0 C-4.77 -2.46, -8.79 -4.83, -12 -6.43 M-12 -6.43 C-19.32 -0.65, -27.73 3.44, -35.28 7.62 M-12 -6.43 C-21.57 -0.97, -30.28 4.73, -35.28 7.62 M-35.28 7.62 C-29.97 9.79, -25.72 12.36, -23.42 14.38 M-35.28 7.62 C-30.69 10.48, -26.24 12.6, -23.42 14.38 M-23.42 14.38 C-17.94 11.57, -14.16 8.78, 0 0 M-23.42 14.38 C-14.96 9.16, -6.88 4.92, 0 0 M0 0 C0 0, 0 0, 0 0 M0 0 C0 0, 0 0, 0 0" stroke="#1864ab" stroke-width="1" fill="none"></path></g></g><mask></mask><g stroke-linecap="round"><g transform="translate(53.05568743007075 128.84969698998248) rotate(180 -17.641252087008525 3.9737381473663618)" fill-rule="evenodd"><path d="M-1 0.02 L-11.56 -6.94 L-35.73 8.5 L-22.57 14.77 L0.14 0.56" stroke="none" stroke-width="0" fill="#669df6" fill-rule="evenodd"></path><path d="M0 0 C-4.17 -1.58, -7.62 -3.57, -12 -6.43 M0 0 C-3.85 -1.57, -7.22 -4.02, -12 -6.43 M-12 -6.43 C-18.15 -2.88, -25.16 1.24, -35.28 7.62 M-12 -6.43 C-18.77 -2, -25.65 2.01, -35.28 7.62 M-35.28 7.62 C-31.83 9.63, -28.8 11.77, -23.42 14.38 M-35.28 7.62 C-31.09 10.22, -27.02 12.47, -23.42 14.38 M-23.42 14.38 C-14.33 9.68, -7.07 3.38, 0 0 M-23.42 14.38 C-14.73 9.42, -6.12 3.98, 0 0 M0 0 C0 0, 0 0, 0 0 M0 0 C0 0, 0 0, 0 0" stroke="#1864ab" stroke-width="1" fill="none"></path></g></g><mask></mask><g stroke-linecap="round"><g transform="translate(57.06813860194575 129.07660994991193) rotate(180 17.641252087008525 3.9737381473663618)" fill-rule="evenodd"><path d="M0.56 -0.78 L11.1 -5.58 L35.89 6.88 L23.5 14.07 L-0.31 -0.17" stroke="none" stroke-width="0" fill="#4285f4" fill-rule="evenodd"></path><path d="M0 0 C4.73 -2.14, 8.65 -4.88, 12 -6.43 M0 0 C4.16 -2.12, 8.6 -4.81, 12 -6.43 M12 -6.43 C19.39 -2.11, 25.39 1.91, 35.28 7.62 M12 -6.43 C17.11 -3, 21.57 0.1, 35.28 7.62 M35.28 7.62 C33.02 9.37, 29.87 10.43, 23.42 14.38 M35.28 7.62 C32.99 9.44, 29.87 10.36, 23.42 14.38 M23.42 14.38 C18.14 10.48, 12.53 7.58, 0 0 M23.42 14.38 C18.77 11.45, 14.32 8.48, 0 0 M0 0 C0 0, 0 0, 0 0 M0 0 C0 0, 0 0, 0 0" stroke="#1864ab" stroke-width="1" fill="none"></path></g></g><mask></mask></svg>