<svg xmlns="http://www.w3.org/2000/svg" viewBox="385.57 142.66 172.00 84.00" width="172" height="84"><rect x="391.57" y="148.66" width="160.00" height="72.00" rx="0" stroke="#4285f4" stroke-width="2" opacity="1.0" fill="#FFF"/><text x="456.57" y="189.66" font-size="12" fill="#000000" opacity="1.0" font-family="sans-serif">Text-To-Speech</text><rect x="410.75" y="177.98" width="8.85" height="2.23" rx="0" stroke="transparent" stroke-width="1" opacity="1.0" fill="#669df6"/><polyline points="422.96,189.08 410.73,189.08 410.73,191.31 410.73,191.31 422.96,191.31 422.96,189.08 422.96,189.08" fill="none" stroke="#00000000" stroke-width="1" opacity="1.0" stroke-linecap="round" stroke-linejoin="round"/><polyline points="414.08,183.54 410.73,183.54 410.73,185.75 416.31,185.75 424.07,185.75 421.84,183.54 414.08,183.54 414.08,183.54" fill="none" stroke="#00000000" stroke-width="1" opacity="1.0" stroke-linecap="round" stroke-linejoin="round"/><polyline points="424.07,180.75 424.07,180.75 424.25,180.41 424.63,180.27 424.99,180.41 425.17,180.75 425.17,192.99 425.17,192.99 425.48,194.23 426.26,195.17 427.37,195.69 428.65,195.66 429.51,195.25 430.17,194.60 430.59,193.78 430.73,192.84 430.73,176.32 430.73,176.32 430.99,175.79 431.59,175.79 431.84,176.32 431.84,188.54 431.84,188.54 432.12,189.76 432.92,190.72 434.06,191.26 435.32,191.22 436.18,190.81 436.84,190.16 437.26,189.33 437.40,188.39 437.40,184.66 435.17,184.66 435.17,188.55 435.17,188.55 434.92,189.08 434.32,189.08 434.07,188.55 434.07,176.32 434.07,176.32 433.76,175.08 432.97,174.15 431.86,173.63 430.59,173.66 429.72,174.07 429.06,174.72 428.64,175.55 428.51,176.50 428.51,192.99 428.51,192.99 428.25,193.52 427.65,193.52 427.40,192.99 427.40,180.76 427.40,180.76 427.02,179.34 426.03,178.37 424.69,177.99 423.27,178.36 422.38,179.17 421.92,180.28 421.85,180.90 421.85,183.56 424.07,185.75 424.07,180.75 424.07,180.75" fill="none" stroke="#00000000" stroke-width="1" opacity="1.0" stroke-linecap="round" stroke-linejoin="round"/></svg>