<svg xmlns="http://www.w3.org/2000/svg" viewBox="325.01 496.06 172.00 84.00" width="172" height="84"><rect x="331.01" y="502.06" width="160.00" height="72.00" rx="0" stroke="#4285f4" stroke-width="2" opacity="1.0" fill="#FFF"/><text x="396.01" y="536.06" font-size="12" fill="#000000" opacity="1.0" font-family="sans-serif">Cloud Run for
Anthos</text><polyline points="364.21,523.97 377.42,546.75 378.37,548.39 361.14,548.39 361.14,548.39 360.93,548.80 360.70,549.20 360.43,549.58 360.15,549.94 359.83,550.27 359.50,550.59 359.14,550.88 358.77,551.14 358.37,551.38 357.96,551.59 357.53,551.77 357.09,551.93 356.63,552.05 356.16,552.13 355.67,552.19 355.18,552.21 354.85,552.20 354.51,552.17 354.19,552.13 353.86,552.07 353.55,552.00 353.24,551.91 352.93,551.81 352.63,551.69 352.34,551.56 352.06,551.42 351.79,551.26 351.52,551.09 351.27,550.91 351.02,550.72 350.78,550.51 350.55,550.30 350.34,550.07 350.13,549.83 349.94,549.59 349.75,549.33 349.58,549.07 349.43,548.80 349.28,548.51 349.15,548.23 349.03,547.93 348.93,547.63 348.84,547.32 348.77,547.00 348.71,546.68 348.67,546.36 348.65,546.03 348.64,545.69 348.65,545.36 348.67,545.03 348.71,544.70 348.77,544.38 348.84,544.06 348.93,543.75 349.03,543.45 349.15,543.16 349.28,542.87 349.43,542.59 349.59,542.31 349.76,542.05 349.94,541.79 350.13,541.55 350.34,541.31 350.56,541.08 350.78,540.87 351.02,540.66 351.27,540.47 351.53,540.29 351.79,540.12 352.07,539.96 352.35,539.82 352.64,539.69 352.94,539.57 353.24,539.47 353.55,539.38 353.87,539.31 354.19,539.25 354.52,539.21 354.85,539.18 355.19,539.18 355.39,539.18 364.21,523.97 364.21,523.97" fill="#4285f4" stroke="none" stroke-width="1" opacity="1.0" stroke-linecap="round" stroke-linejoin="round"/><polyline points="355.09,542.16 354.09,543.15 356.19,545.23 351.46,545.23 351.46,546.64 356.20,546.64 354.09,548.73 355.09,549.72 358.88,545.94 355.09,542.16 355.09,542.16" fill="#4285f4" stroke="none" stroke-width="1" opacity="1.0" stroke-linecap="round" stroke-linejoin="round"/><polyline points="364.21,543.06 361.57,544.23 361.57,544.23 361.64,544.59 361.69,544.95 361.72,545.32 361.73,545.69 361.73,545.95 361.71,546.20 371.31,546.20 364.21,543.06 364.21,543.06" fill="#4285f4" stroke="none" stroke-width="1" opacity="1.0" stroke-linecap="round" stroke-linejoin="round"/><polyline points="364.21,536.55 359.73,541.00 359.73,541.00 360.01,541.28 360.26,541.58 360.50,541.89 360.72,542.22 364.20,540.68 371.65,543.98 364.21,536.55 364.21,536.55" fill="#4285f4" stroke="none" stroke-width="1" opacity="1.0" stroke-linecap="round" stroke-linejoin="round"/><polyline points="364.21,528.33 357.65,539.65 357.65,539.65 357.89,539.75 364.21,533.45 371.24,540.46 364.21,528.33 364.21,528.33" fill="#4285f4" stroke="none" stroke-width="1" opacity="1.0" stroke-linecap="round" stroke-linejoin="round"/><polyline points="355.09,542.16 354.09,543.15 356.19,545.23 351.46,545.23 351.46,546.64 356.20,546.64 354.09,548.73 355.09,549.72 358.88,545.94 355.09,542.16 355.09,542.16" fill="#fff" stroke="none" stroke-width="1" opacity="1.0" stroke-linecap="round" stroke-linejoin="round"/><polyline points="364.21,543.06 361.57,544.23 361.57,544.23 361.64,544.59 361.69,544.95 361.72,545.32 361.73,545.69 361.73,545.95 361.71,546.20 371.31,546.20 364.21,543.06 364.21,543.06" fill="#fff" stroke="none" stroke-width="1" opacity="1.0" stroke-linecap="round" stroke-linejoin="round"/><polyline points="364.21,536.55 359.73,541.00 359.73,541.00 360.01,541.28 360.26,541.58 360.50,541.89 360.72,542.22 364.20,540.68 371.65,543.98 364.21,536.55 364.21,536.55" fill="#fff" stroke="none" stroke-width="1" opacity="1.0" stroke-linecap="round" stroke-linejoin="round"/><polyline points="364.21,528.33 357.65,539.65 357.65,539.65 357.89,539.75 364.21,533.45 371.24,540.46 364.21,528.33 364.21,528.33" fill="#fff" stroke="none" stroke-width="1" opacity="1.0" stroke-linecap="round" stroke-linejoin="round"/></svg>