<svg xmlns="http://www.w3.org/2000/svg" viewBox="1139.88 1613.94 159.19 176.38" width="159" height="176"><ellipse cx="1154.42" cy="1687.42" rx="7.03" ry="7.03" stroke="#669df6" stroke-width="1" opacity="1.0" fill="#aecbfa"/><ellipse cx="1196.23" cy="1674.58" rx="7.03" ry="7.03" stroke="#669df6" stroke-width="1" opacity="1.0" fill="#aecbfa"/><ellipse cx="1196.12" cy="1701.62" rx="7.03" ry="7.03" stroke="#669df6" stroke-width="1" opacity="1.0" fill="#aecbfa"/><ellipse cx="1237.78" cy="1688.46" rx="7.03" ry="7.03" stroke="#669df6" stroke-width="1" opacity="1.0" fill="#aecbfa"/><polyline points="1147.98,1674.54 1147.72,1661.29 1196.61,1634.06 1196.39,1662.25 1190.09,1662.47 1190.32,1650.59 1160.63,1667.18 1160.62,1674.66 1148.40,1674.89" fill="#aecbfa" stroke="#669df6" stroke-width="1" opacity="1.0" stroke-linecap="round" stroke-linejoin="round"/><polyline points="1244.18,1675.16 1244.44,1661.90 1195.55,1634.68 1195.77,1662.87 1202.07,1663.08 1201.84,1651.21 1231.53,1667.80 1231.55,1675.27 1243.76,1675.51" fill="#669df6" stroke="#1864ab" stroke-width="1" opacity="1.0" stroke-linecap="round" stroke-linejoin="round"/><polyline points="1194.51,1743.14 1194.78,1729.88 1145.88,1702.66 1146.11,1730.85 1152.40,1731.06 1152.18,1719.19 1181.87,1735.78 1181.88,1743.25 1194.09,1743.49" fill="#aecbfa" stroke="#669df6" stroke-width="1" opacity="1.0" stroke-linecap="round" stroke-linejoin="round" transform="rotate(180.00 1218.96 1763.55)"/><polyline points="1195.97,1743.49 1195.70,1730.24 1244.60,1703.01 1244.37,1731.20 1238.08,1731.42 1238.30,1719.54 1208.61,1736.13 1208.60,1743.61 1196.39,1743.84" fill="#669df6" stroke="#1864ab" stroke-width="1" opacity="1.0" stroke-linecap="round" stroke-linejoin="round" transform="rotate(180.00 1220.41 1763.91)"/><polyline points="1161.11,1626.37 1173.11,1619.94 1196.39,1633.99 1184.53,1640.75 1161.11,1626.37" fill="#669df6" stroke="#1864ab" stroke-width="1" opacity="1.0" stroke-linecap="round" stroke-linejoin="round"/><polyline points="1231.20,1626.61 1219.20,1620.18 1195.92,1634.23 1207.78,1640.99 1231.20,1626.61" fill="#4285f4" stroke="#1864ab" stroke-width="1" opacity="1.0" stroke-linecap="round" stroke-linejoin="round"/><polyline points="1192.93,1742.79 1180.93,1736.35 1157.64,1750.40 1169.51,1757.17 1192.93,1742.79" fill="#669df6" stroke="#1864ab" stroke-width="1" opacity="1.0" stroke-linecap="round" stroke-linejoin="round" transform="rotate(180.00 1210.57 1753.19)"/><polyline points="1196.94,1743.01 1208.94,1736.58 1232.22,1750.63 1220.36,1757.39 1196.94,1743.01" fill="#4285f4" stroke="#1864ab" stroke-width="1" opacity="1.0" stroke-linecap="round" stroke-linejoin="round" transform="rotate(180.00 1214.58 1753.42)"/></svg>