<svg version="1.1" xmlns="http://www.w3.org/2000/svg" viewBox="0 0 200.1204564836291 284.78816195329" width="200.1204564836291" height="284.78816195329">
  <!-- svg-source:excalidraw -->
  
  <defs>
    
    
  </defs>
  <g stroke-linecap="round"><g transform="translate(100.02061292463921 6) rotate(0 0.03961531717534683 114.85249094646883)" fill-rule="evenodd"><path d="M0 0 L-94.02 39.17 L-94.02 103.68 L-94.02 103.68 L-93.9 109.11 L-93.56 114.5 L-92.99 119.86 L-92.19 125.18 L-91.18 130.45 L-89.97 135.67 L-88.54 140.82 L-86.91 145.9 L-85.09 150.91 L-83.08 155.84 L-80.88 160.67 L-78.49 165.41 L-75.93 170.05 L-73.2 174.58 L-70.3 178.99 L-67.23 183.28 L-64.01 187.44 L-60.64 191.47 L-57.11 195.35 L-53.44 199.08 L-49.64 202.65 L-45.7 206.07 L-41.63 209.31 L-37.43 212.37 L-33.12 215.25 L-28.69 217.94 L-24.15 220.43 L-19.5 222.72 L-14.75 224.8 L-9.91 226.66 L-4.98 228.3 L0.04 229.7 L5.06 228.35 L9.99 226.76 L14.82 224.94 L19.57 222.91 L24.21 220.65 L28.75 218.2 L33.18 215.54 L37.49 212.69 L41.69 209.65 L45.76 206.44 L49.7 203.05 L53.51 199.5 L57.17 195.79 L60.7 191.92 L64.07 187.92 L67.3 183.77 L70.36 179.49 L73.26 175.09 L76 170.57 L78.56 165.94 L80.95 161.21 L83.15 156.37 L85.16 151.45 L86.99 146.45 L88.62 141.37 L90.04 136.22 L91.26 131 L92.27 125.74 L93.06 120.42 L93.64 115.06 L93.98 109.66 L94.1 104.24 L94.1 39.17 L0 0 L0 0" stroke="none" stroke-width="0" fill="#669df6" fill-rule="evenodd"></path><path d="M0 0 C-22.45 9.35, -44.9 18.7, -94.02 39.17 M0 0 C-35.87 14.94, -71.74 29.89, -94.02 39.17 M-94.02 39.17 C-94.02 59.71, -94.02 80.25, -94.02 103.68 M-94.02 39.17 C-94.02 63.51, -94.02 87.85, -94.02 103.68 M-94.02 103.68 C-94.02 103.68, -94.02 103.68, -94.02 103.68 M-94.02 103.68 C-94.02 103.68, -94.02 103.68, -94.02 103.68 M-94.02 103.68 C-93.99 104.96, -93.97 106.24, -93.9 109.11 M-94.02 103.68 C-93.98 105.37, -93.95 107.06, -93.9 109.11 M-93.9 109.11 C-93.81 110.59, -93.71 112.08, -93.56 114.5 M-93.9 109.11 C-93.79 110.92, -93.67 112.73, -93.56 114.5 M-93.56 114.5 C-93.44 115.6, -93.32 116.69, -92.99 119.86 M-93.56 114.5 C-93.34 116.54, -93.12 118.59, -92.99 119.86 M-92.99 119.86 C-92.78 121.22, -92.58 122.58, -92.19 125.18 M-92.99 119.86 C-92.73 121.57, -92.48 123.29, -92.19 125.18 M-92.19 125.18 C-91.92 126.61, -91.65 128.04, -91.18 130.45 M-92.19 125.18 C-91.83 127.08, -91.47 128.99, -91.18 130.45 M-91.18 130.45 C-90.87 131.79, -90.56 133.12, -89.97 135.67 M-91.18 130.45 C-90.91 131.63, -90.64 132.8, -89.97 135.67 M-89.97 135.67 C-89.64 136.84, -89.32 138.01, -88.54 140.82 M-89.97 135.67 C-89.59 137.02, -89.22 138.37, -88.54 140.82 M-88.54 140.82 C-87.93 142.71, -87.33 144.61, -86.91 145.9 M-88.54 140.82 C-88.15 142.03, -87.77 143.24, -86.91 145.9 M-86.91 145.9 C-86.37 147.4, -85.82 148.9, -85.09 150.91 M-86.91 145.9 C-86.49 147.07, -86.07 148.23, -85.09 150.91 M-85.09 150.91 C-84.31 152.83, -83.52 154.76, -83.08 155.84 M-85.09 150.91 C-84.61 152.08, -84.13 153.25, -83.08 155.84 M-83.08 155.84 C-82.52 157.07, -81.95 158.3, -80.88 160.67 M-83.08 155.84 C-82.52 157.06, -81.96 158.29, -80.88 160.67 M-80.88 160.67 C-80.2 162.02, -79.53 163.36, -78.49 165.41 M-80.88 160.67 C-80.19 162.03, -79.51 163.39, -78.49 165.41 M-78.49 165.41 C-77.73 166.8, -76.96 168.19, -75.93 170.05 M-78.49 165.41 C-77.87 166.55, -77.24 167.68, -75.93 170.05 M-75.93 170.05 C-75.07 171.47, -74.21 172.9, -73.2 174.58 M-75.93 170.05 C-75.02 171.57, -74.1 173.09, -73.2 174.58 M-73.2 174.58 C-72.1 176.25, -71.01 177.92, -70.3 178.99 M-73.2 174.58 C-72.15 176.17, -71.11 177.76, -70.3 178.99 M-70.3 178.99 C-69.27 180.43, -68.25 181.86, -67.23 183.28 M-70.3 178.99 C-69.33 180.35, -68.35 181.71, -67.23 183.28 M-67.23 183.28 C-66.35 184.42, -65.47 185.56, -64.01 187.44 M-67.23 183.28 C-66.3 184.49, -65.36 185.7, -64.01 187.44 M-64.01 187.44 C-63.05 188.59, -62.08 189.74, -60.64 191.47 M-64.01 187.44 C-63.15 188.47, -62.29 189.49, -60.64 191.47 M-60.64 191.47 C-59.54 192.68, -58.44 193.88, -57.11 195.35 M-60.64 191.47 C-59.36 192.88, -58.08 194.29, -57.11 195.35 M-57.11 195.35 C-56.02 196.46, -54.93 197.57, -53.44 199.08 M-57.11 195.35 C-55.81 196.67, -54.52 197.99, -53.44 199.08 M-53.44 199.08 C-52.49 199.98, -51.53 200.88, -49.64 202.65 M-53.44 199.08 C-52.53 199.94, -51.62 200.79, -49.64 202.65 M-49.64 202.65 C-48.1 203.98, -46.56 205.32, -45.7 206.07 M-49.64 202.65 C-48.42 203.71, -47.21 204.76, -45.7 206.07 M-45.7 206.07 C-44.08 207.35, -42.47 208.63, -41.63 209.31 M-45.7 206.07 C-44.81 206.77, -43.91 207.48, -41.63 209.31 M-41.63 209.31 C-40.07 210.44, -38.51 211.58, -37.43 212.37 M-41.63 209.31 C-39.96 210.52, -38.29 211.74, -37.43 212.37 M-37.43 212.37 C-36.2 213.19, -34.97 214.01, -33.12 215.25 M-37.43 212.37 C-35.99 213.33, -34.54 214.3, -33.12 215.25 M-33.12 215.25 C-31.62 216.16, -30.13 217.06, -28.69 217.94 M-33.12 215.25 C-31.41 216.28, -29.71 217.32, -28.69 217.94 M-28.69 217.94 C-26.88 218.93, -25.07 219.93, -24.15 220.43 M-28.69 217.94 C-27.52 218.58, -26.35 219.23, -24.15 220.43 M-24.15 220.43 C-22.4 221.29, -20.66 222.15, -19.5 222.72 M-24.15 220.43 C-23.12 220.94, -22.09 221.45, -19.5 222.72 M-19.5 222.72 C-18.29 223.25, -17.09 223.78, -14.75 224.8 M-19.5 222.72 C-17.63 223.54, -15.76 224.36, -14.75 224.8 M-14.75 224.8 C-13.49 225.29, -12.23 225.77, -9.91 226.66 M-14.75 224.8 C-13.09 225.44, -11.42 226.08, -9.91 226.66 M-9.91 226.66 C-8.39 227.17, -6.86 227.67, -4.98 228.3 M-9.91 226.66 C-8.01 227.29, -6.1 227.93, -4.98 228.3 M-4.98 228.3 C-3.18 228.8, -1.39 229.31, 0.04 229.7 M-4.98 228.3 C-3.09 228.83, -1.2 229.36, 0.04 229.7 M0.04 229.7 C1.35 229.35, 2.66 229, 5.06 228.35 M0.04 229.7 C1.1 229.42, 2.17 229.13, 5.06 228.35 M5.06 228.35 C6.64 227.84, 8.22 227.33, 9.99 226.76 M5.06 228.35 C6.17 227.99, 7.29 227.63, 9.99 226.76 M9.99 226.76 C11.65 226.13, 13.31 225.51, 14.82 224.94 M9.99 226.76 C11.37 226.24, 12.75 225.72, 14.82 224.94 M14.82 224.94 C16.68 224.14, 18.54 223.35, 19.57 222.91 M14.82 224.94 C16.66 224.15, 18.5 223.36, 19.57 222.91 M19.57 222.91 C20.65 222.38, 21.74 221.85, 24.21 220.65 M19.57 222.91 C21.23 222.1, 22.88 221.3, 24.21 220.65 M24.21 220.65 C25.58 219.91, 26.95 219.17, 28.75 218.2 M24.21 220.65 C25.31 220.06, 26.41 219.47, 28.75 218.2 M28.75 218.2 C30.27 217.28, 31.79 216.37, 33.18 215.54 M28.75 218.2 C29.69 217.63, 30.63 217.07, 33.18 215.54 M33.18 215.54 C34.79 214.48, 36.4 213.41, 37.49 212.69 M33.18 215.54 C34.71 214.53, 36.24 213.52, 37.49 212.69 M37.49 212.69 C38.86 211.7, 40.23 210.71, 41.69 209.65 M37.49 212.69 C39.05 211.56, 40.61 210.43, 41.69 209.65 M41.69 209.65 C42.56 208.97, 43.43 208.28, 45.76 206.44 M41.69 209.65 C43.23 208.44, 44.77 207.22, 45.76 206.44 M45.76 206.44 C47.23 205.17, 48.7 203.91, 49.7 203.05 M45.76 206.44 C47.32 205.1, 48.88 203.76, 49.7 203.05 M49.7 203.05 C50.55 202.26, 51.4 201.46, 53.51 199.5 M49.7 203.05 C51.04 201.8, 52.38 200.55, 53.51 199.5 M53.51 199.5 C54.67 198.32, 55.83 197.15, 57.17 195.79 M53.51 199.5 C54.89 198.1, 56.26 196.71, 57.17 195.79 M57.17 195.79 C58.2 194.66, 59.23 193.54, 60.7 191.92 M57.17 195.79 C58.58 194.25, 59.98 192.71, 60.7 191.92 M60.7 191.92 C61.8 190.62, 62.9 189.31, 64.07 187.92 M60.7 191.92 C61.52 190.95, 62.34 189.97, 64.07 187.92 M64.07 187.92 C65.02 186.7, 65.96 185.49, 67.3 183.77 M64.07 187.92 C64.81 186.97, 65.55 186.02, 67.3 183.77 M67.3 183.77 C67.94 182.88, 68.58 181.98, 70.36 179.49 M67.3 183.77 C68.1 182.65, 68.91 181.52, 70.36 179.49 M70.36 179.49 C71.5 177.76, 72.64 176.03, 73.26 175.09 M70.36 179.49 C71.06 178.44, 71.75 177.39, 73.26 175.09 M73.26 175.09 C74.12 173.67, 74.98 172.25, 76 170.57 M73.26 175.09 C74.18 173.57, 75.1 172.05, 76 170.57 M76 170.57 C76.89 168.95, 77.79 167.34, 78.56 165.94 M76 170.57 C76.54 169.59, 77.08 168.62, 78.56 165.94 M78.56 165.94 C79.11 164.85, 79.66 163.76, 80.95 161.21 M78.56 165.94 C79.28 164.52, 79.99 163.1, 80.95 161.21 M80.95 161.21 C81.4 160.22, 81.85 159.23, 83.15 156.37 M80.95 161.21 C81.41 160.18, 81.88 159.15, 83.15 156.37 M83.15 156.37 C83.72 154.99, 84.28 153.6, 85.16 151.45 M83.15 156.37 C83.61 155.25, 84.07 154.12, 85.16 151.45 M85.16 151.45 C85.88 149.49, 86.59 147.53, 86.99 146.45 M85.16 151.45 C85.71 149.96, 86.25 148.47, 86.99 146.45 M86.99 146.45 C87.37 145.26, 87.75 144.07, 88.62 141.37 M86.99 146.45 C87.53 144.76, 88.07 143.07, 88.62 141.37 M88.62 141.37 C88.95 140.16, 89.28 138.96, 90.04 136.22 M88.62 141.37 C88.91 140.3, 89.21 139.24, 90.04 136.22 M90.04 136.22 C90.52 134.17, 91 132.12, 91.26 131 M90.04 136.22 C90.35 134.89, 90.66 133.56, 91.26 131 M91.26 131 C91.51 129.73, 91.75 128.45, 92.27 125.74 M91.26 131 C91.53 129.61, 91.8 128.22, 92.27 125.74 M92.27 125.74 C92.51 124.14, 92.75 122.54, 93.06 120.42 M92.27 125.74 C92.57 123.73, 92.87 121.72, 93.06 120.42 M93.06 120.42 C93.19 119.25, 93.31 118.08, 93.64 115.06 M93.06 120.42 C93.23 118.9, 93.39 117.38, 93.64 115.06 M93.64 115.06 C93.72 113.77, 93.8 112.48, 93.98 109.66 M93.64 115.06 C93.75 113.34, 93.86 111.62, 93.98 109.66 M93.98 109.66 C94.02 107.77, 94.06 105.88, 94.1 104.24 M93.98 109.66 C94.01 108.25, 94.04 106.83, 94.1 104.24 M94.1 104.24 C94.1 82.75, 94.1 61.26, 94.1 39.17 M94.1 104.24 C94.1 89.3, 94.1 74.36, 94.1 39.17 M94.1 39.17 C64.52 26.85, 34.93 14.54, 0 0 M94.1 39.17 C67.75 28.2, 41.4 17.23, 0 0 M0 0 C0 0, 0 0, 0 0 M0 0 C0 0, 0 0, 0 0 M0 0 C0 0, 0 0, 0 0 M0 0 C0 0, 0 0, 0 0" stroke="#000000" stroke-width="1" fill="none"></path></g></g><mask></mask><g stroke-linecap="round"><g transform="translate(100.02061292463875 49.40632230498977) rotate(0 0.000007577528137403533 30.13887183554459)" fill-rule="evenodd"><path d="M0 0 L0 0 L1.55 0.04 L3.08 0.16 L4.59 0.35 L6.07 0.61 L8.96 1.36 L11.73 2.37 L14.36 3.64 L16.85 5.15 L19.17 6.89 L21.31 8.83 L23.25 10.97 L24.99 13.29 L26.5 15.78 L27.77 18.41 L28.78 21.18 L29.53 24.07 L29.79 25.55 L29.98 27.06 L30.1 28.59 L30.14 30.14 L30.1 31.69 L29.98 33.22 L29.79 34.73 L29.53 36.21 L28.78 39.1 L27.77 41.87 L26.5 44.5 L24.99 46.98 L23.25 49.31 L21.31 51.45 L19.17 53.39 L16.85 55.13 L14.36 56.64 L11.73 57.91 L8.96 58.92 L6.07 59.66 L4.59 59.93 L3.08 60.12 L1.55 60.24 L0 60.28 L-1.55 60.24 L-3.08 60.12 L-4.59 59.93 L-6.07 59.66 L-8.96 58.92 L-11.73 57.91 L-14.36 56.64 L-16.85 55.13 L-19.17 53.39 L-21.31 51.45 L-23.25 49.31 L-24.99 46.98 L-26.5 44.5 L-27.77 41.87 L-28.78 39.1 L-29.53 36.21 L-29.79 34.73 L-29.98 33.22 L-30.1 31.69 L-30.14 30.14 L-29.99 27.16 L-29.56 24.23 L-28.84 21.37 L-27.85 18.61 L-26.59 15.95 L-25.08 13.43 L-23.31 11.05 L-21.31 8.83 L-19.09 6.83 L-16.71 5.06 L-14.18 3.55 L-11.51 2.29 L-8.75 1.3 L-5.89 0.58 L-2.97 0.15 L0 0 L0 0" stroke="none" stroke-width="0" fill="#669df6" fill-rule="evenodd"></path><path d="M0 0 C0 0, 0 0, 0 0 M0 0 C0 0, 0 0, 0 0 M0 0 C0.45 0.01, 0.91 0.02, 1.55 0.04 M0 0 C0.53 0.01, 1.06 0.03, 1.55 0.04 M1.55 0.04 C1.93 0.07, 2.32 0.1, 3.08 0.16 M1.55 0.04 C2.16 0.09, 2.77 0.13, 3.08 0.16 M3.08 0.16 C3.59 0.22, 4.1 0.29, 4.59 0.35 M3.08 0.16 C3.46 0.2, 3.85 0.25, 4.59 0.35 M4.59 0.35 C4.97 0.42, 5.35 0.48, 6.07 0.61 M4.59 0.35 C4.96 0.41, 5.33 0.48, 6.07 0.61 M6.07 0.61 C7.08 0.87, 8.1 1.13, 8.96 1.36 M6.07 0.61 C6.72 0.78, 7.37 0.95, 8.96 1.36 M8.96 1.36 C9.84 1.68, 10.73 2.01, 11.73 2.37 M8.96 1.36 C9.65 1.61, 10.34 1.86, 11.73 2.37 M11.73 2.37 C12.26 2.63, 12.78 2.88, 14.36 3.64 M11.73 2.37 C12.52 2.75, 13.31 3.13, 14.36 3.64 M14.36 3.64 C15.04 4.05, 15.71 4.46, 16.85 5.15 M14.36 3.64 C15.35 4.24, 16.33 4.84, 16.85 5.15 M16.85 5.15 C17.42 5.58, 17.99 6.01, 19.17 6.89 M16.85 5.15 C17.46 5.61, 18.08 6.07, 19.17 6.89 M19.17 6.89 C19.97 7.62, 20.77 8.34, 21.31 8.83 M19.17 6.89 C19.78 7.44, 20.39 8, 21.31 8.83 M21.31 8.83 C21.76 9.33, 22.22 9.83, 23.25 10.97 M21.31 8.83 C21.98 9.57, 22.65 10.31, 23.25 10.97 M23.25 10.97 C23.65 11.51, 24.05 12.04, 24.99 13.29 M23.25 10.97 C23.94 11.89, 24.63 12.82, 24.99 13.29 M24.99 13.29 C25.58 14.27, 26.17 15.24, 26.5 15.78 M24.99 13.29 C25.45 14.05, 25.91 14.81, 26.5 15.78 M26.5 15.78 C26.84 16.49, 27.19 17.21, 27.77 18.41 M26.5 15.78 C26.76 16.31, 27.02 16.85, 27.77 18.41 M27.77 18.41 C28.11 19.35, 28.45 20.28, 28.78 21.18 M27.77 18.41 C28.12 19.37, 28.47 20.33, 28.78 21.18 M28.78 21.18 C28.99 21.97, 29.19 22.76, 29.53 24.07 M28.78 21.18 C28.98 21.94, 29.17 22.7, 29.53 24.07 M29.53 24.07 C29.63 24.62, 29.72 25.18, 29.79 25.55 M29.53 24.07 C29.58 24.38, 29.64 24.69, 29.79 25.55 M29.79 25.55 C29.84 25.92, 29.88 26.28, 29.98 27.06 M29.79 25.55 C29.85 26.04, 29.92 26.53, 29.98 27.06 M29.98 27.06 C30.03 27.65, 30.07 28.25, 30.1 28.59 M29.98 27.06 C30.02 27.49, 30.05 27.91, 30.1 28.59 M30.1 28.59 C30.11 29.09, 30.12 29.59, 30.14 30.14 M30.1 28.59 C30.11 28.94, 30.12 29.3, 30.14 30.14 M30.14 30.14 C30.12 30.69, 30.11 31.24, 30.1 31.69 M30.14 30.14 C30.13 30.56, 30.12 30.98, 30.1 31.69 M30.1 31.69 C30.07 32.14, 30.03 32.58, 29.98 33.22 M30.1 31.69 C30.05 32.3, 30.01 32.91, 29.98 33.22 M29.98 33.22 C29.94 33.57, 29.89 33.92, 29.79 34.73 M29.98 33.22 C29.92 33.74, 29.85 34.26, 29.79 34.73 M29.79 34.73 C29.72 35.12, 29.65 35.52, 29.53 36.21 M29.79 34.73 C29.7 35.25, 29.6 35.77, 29.53 36.21 M29.53 36.21 C29.32 36.99, 29.12 37.78, 28.78 39.1 M29.53 36.21 C29.37 36.8, 29.22 37.38, 28.78 39.1 M28.78 39.1 C28.58 39.66, 28.37 40.22, 27.77 41.87 M28.78 39.1 C28.38 40.19, 27.98 41.28, 27.77 41.87 M27.77 41.87 C27.39 42.66, 27.01 43.45, 26.5 44.5 M27.77 41.87 C27.29 42.86, 26.81 43.86, 26.5 44.5 M26.5 44.5 C25.92 45.45, 25.35 46.4, 24.99 46.98 M26.5 44.5 C26.02 45.3, 25.53 46.09, 24.99 46.98 M24.99 46.98 C24.58 47.54, 24.16 48.09, 23.25 49.31 M24.99 46.98 C24.38 47.79, 23.78 48.6, 23.25 49.31 M23.25 49.31 C22.61 50.01, 21.97 50.72, 21.31 51.45 M23.25 49.31 C22.65 49.97, 22.04 50.64, 21.31 51.45 M21.31 51.45 C20.48 52.2, 19.65 52.95, 19.17 53.39 M21.31 51.45 C20.82 51.89, 20.33 52.33, 19.17 53.39 M19.17 53.39 C18.46 53.92, 17.75 54.45, 16.85 55.13 M19.17 53.39 C18.61 53.81, 18.05 54.23, 16.85 55.13 M16.85 55.13 C16 55.64, 15.16 56.15, 14.36 56.64 M16.85 55.13 C16.17 55.54, 15.5 55.95, 14.36 56.64 M14.36 56.64 C13.82 56.9, 13.29 57.16, 11.73 57.91 M14.36 56.64 C13.38 57.11, 12.41 57.58, 11.73 57.91 M11.73 57.91 C10.98 58.18, 10.23 58.45, 8.96 58.92 M11.73 57.91 C10.69 58.29, 9.66 58.66, 8.96 58.92 M8.96 58.92 C8.21 59.11, 7.47 59.3, 6.07 59.66 M8.96 58.92 C8.24 59.11, 7.51 59.29, 6.07 59.66 M6.07 59.66 C5.72 59.73, 5.36 59.79, 4.59 59.93 M6.07 59.66 C5.53 59.76, 4.99 59.86, 4.59 59.93 M4.59 59.93 C4.09 59.99, 3.58 60.06, 3.08 60.12 M4.59 59.93 C4.26 59.97, 3.93 60.01, 3.08 60.12 M3.08 60.12 C2.63 60.16, 2.17 60.19, 1.55 60.24 M3.08 60.12 C2.59 60.16, 2.11 60.2, 1.55 60.24 M1.55 60.24 C1.19 60.25, 0.83 60.26, 0 60.28 M1.55 60.24 C1.07 60.25, 0.6 60.26, 0 60.28 M0 60.28 C-0.58 60.26, -1.16 60.25, -1.55 60.24 M0 60.28 C-0.37 60.27, -0.75 60.26, -1.55 60.24 M-1.55 60.24 C-2.15 60.19, -2.76 60.15, -3.08 60.12 M-1.55 60.24 C-2.05 60.2, -2.56 60.16, -3.08 60.12 M-3.08 60.12 C-3.67 60.05, -4.27 59.97, -4.59 59.93 M-3.08 60.12 C-3.66 60.05, -4.25 59.97, -4.59 59.93 M-4.59 59.93 C-5.18 59.82, -5.77 59.72, -6.07 59.66 M-4.59 59.93 C-5.17 59.83, -5.76 59.72, -6.07 59.66 M-6.07 59.66 C-7.11 59.4, -8.14 59.13, -8.96 58.92 M-6.07 59.66 C-7.07 59.41, -8.06 59.15, -8.96 58.92 M-8.96 58.92 C-9.65 58.67, -10.34 58.42, -11.73 57.91 M-8.96 58.92 C-10.06 58.52, -11.17 58.11, -11.73 57.91 M-11.73 57.91 C-12.41 57.58, -13.1 57.25, -14.36 56.64 M-11.73 57.91 C-12.62 57.48, -13.52 57.04, -14.36 56.64 M-14.36 56.64 C-15.1 56.19, -15.84 55.74, -16.85 55.13 M-14.36 56.64 C-15.17 56.15, -15.98 55.66, -16.85 55.13 M-16.85 55.13 C-17.72 54.47, -18.6 53.82, -19.17 53.39 M-16.85 55.13 C-17.63 54.54, -18.42 53.95, -19.17 53.39 M-19.17 53.39 C-19.86 52.76, -20.56 52.13, -21.31 51.45 M-19.17 53.39 C-19.91 52.71, -20.66 52.04, -21.31 51.45 M-21.31 51.45 C-22.03 50.65, -22.75 49.86, -23.25 49.31 M-21.31 51.45 C-21.99 50.7, -22.67 49.95, -23.25 49.31 M-23.25 49.31 C-23.69 48.72, -24.12 48.14, -24.99 46.98 M-23.25 49.31 C-23.83 48.54, -24.4 47.77, -24.99 46.98 M-24.99 46.98 C-25.58 46.01, -26.18 45.03, -26.5 44.5 M-24.99 46.98 C-25.47 46.2, -25.95 45.41, -26.5 44.5 M-26.5 44.5 C-26.79 43.9, -27.08 43.3, -27.77 41.87 M-26.5 44.5 C-26.91 43.64, -27.33 42.78, -27.77 41.87 M-27.77 41.87 C-28.15 40.82, -28.53 39.78, -28.78 39.1 M-27.77 41.87 C-28 41.25, -28.22 40.63, -28.78 39.1 M-28.78 39.1 C-29.04 38.09, -29.3 37.08, -29.53 36.21 M-28.78 39.1 C-28.99 38.31, -29.19 37.52, -29.53 36.21 M-29.53 36.21 C-29.62 35.7, -29.71 35.19, -29.79 34.73 M-29.53 36.21 C-29.63 35.63, -29.73 35.04, -29.79 34.73 M-29.79 34.73 C-29.86 34.21, -29.92 33.7, -29.98 33.22 M-29.79 34.73 C-29.85 34.27, -29.91 33.81, -29.98 33.22 M-29.98 33.22 C-30.02 32.76, -30.05 32.3, -30.1 31.69 M-29.98 33.22 C-30.03 32.63, -30.07 32.04, -30.1 31.69 M-30.1 31.69 C-30.11 31.28, -30.12 30.87, -30.14 30.14 M-30.1 31.69 C-30.11 31.32, -30.12 30.96, -30.14 30.14 M-30.14 30.14 C-30.09 29.12, -30.04 28.1, -29.99 27.16 M-30.14 30.14 C-30.09 29.22, -30.05 28.31, -29.99 27.16 M-29.99 27.16 C-29.9 26.52, -29.8 25.88, -29.56 24.23 M-29.99 27.16 C-29.87 26.35, -29.75 25.53, -29.56 24.23 M-29.56 24.23 C-29.31 23.25, -29.06 22.26, -28.84 21.37 M-29.56 24.23 C-29.34 23.39, -29.13 22.55, -28.84 21.37 M-28.84 21.37 C-28.6 20.72, -28.37 20.06, -27.85 18.61 M-28.84 21.37 C-28.51 20.47, -28.19 19.56, -27.85 18.61 M-27.85 18.61 C-27.5 17.88, -27.16 17.15, -26.59 15.95 M-27.85 18.61 C-27.56 18.01, -27.28 17.4, -26.59 15.95 M-26.59 15.95 C-26 14.96, -25.4 13.97, -25.08 13.43 M-26.59 15.95 C-26.18 15.27, -25.77 14.58, -25.08 13.43 M-25.08 13.43 C-24.58 12.75, -24.08 12.08, -23.31 11.05 M-25.08 13.43 C-24.68 12.89, -24.29 12.36, -23.31 11.05 M-23.31 11.05 C-22.74 10.41, -22.16 9.77, -21.31 8.83 M-23.31 11.05 C-22.74 10.42, -22.17 9.79, -21.31 8.83 M-21.31 8.83 C-20.86 8.42, -20.41 8.02, -19.09 6.83 M-21.31 8.83 C-20.55 8.15, -19.79 7.46, -19.09 6.83 M-19.09 6.83 C-18.22 6.18, -17.34 5.53, -16.71 5.06 M-19.09 6.83 C-18.3 6.24, -17.52 5.66, -16.71 5.06 M-16.71 5.06 C-16.04 4.67, -15.38 4.27, -14.18 3.55 M-16.71 5.06 C-16 4.64, -15.3 4.22, -14.18 3.55 M-14.18 3.55 C-13.62 3.29, -13.06 3.02, -11.51 2.29 M-14.18 3.55 C-13.47 3.22, -12.77 2.88, -11.51 2.29 M-11.51 2.29 C-10.5 1.93, -9.49 1.57, -8.75 1.3 M-11.51 2.29 C-10.77 2.03, -10.03 1.76, -8.75 1.3 M-8.75 1.3 C-8.1 1.14, -7.45 0.98, -5.89 0.58 M-8.75 1.3 C-7.81 1.07, -6.87 0.83, -5.89 0.58 M-5.89 0.58 C-5.28 0.49, -4.66 0.4, -2.97 0.15 M-5.89 0.58 C-4.76 0.41, -3.63 0.25, -2.97 0.15 M-2.97 0.15 C-1.87 0.09, -0.78 0.04, 0 0 M-2.97 0.15 C-2.22 0.11, -1.46 0.07, 0 0 M0 0 C0 0, 0 0, 0 0 M0 0 C0 0, 0 0, 0 0 M0 0 C0 0, 0 0, 0 0 M0 0 C0 0, 0 0, 0 0" stroke="#000000" stroke-width="1" fill="none"></path></g></g><mask></mask><g stroke-linecap="round"><g transform="translate(147.1101386550179 177.1698196382331) rotate(0 -47.08952194161401 -10.534753231541686)" fill-rule="evenodd"><path d="M0 0 L0 0 L-2.3 2.89 L-4.7 5.68 L-7.2 8.37 L-9.79 10.97 L-12.47 13.46 L-15.24 15.85 L-18.1 18.14 L-21.03 20.31 L-24.05 22.38 L-27.14 24.33 L-30.3 26.17 L-33.53 27.9 L-36.83 29.5 L-40.19 30.99 L-43.61 32.35 L-47.09 33.58 L-50.57 32.35 L-53.99 30.99 L-57.35 29.5 L-60.65 27.9 L-63.88 26.17 L-67.04 24.33 L-70.13 22.38 L-73.14 20.31 L-76.08 18.14 L-78.94 15.85 L-81.71 13.46 L-84.39 10.97 L-86.98 8.37 L-89.48 5.68 L-91.88 2.89 L-94.18 0 L-94.18 -25.78 L-94.18 -25.78 L-94.09 -27.55 L-93.82 -29.26 L-93.39 -30.91 L-92.8 -32.52 L-92.06 -34.06 L-91.18 -35.55 L-90.16 -36.98 L-89.03 -38.36 L-87.77 -39.69 L-86.42 -40.95 L-84.96 -42.17 L-83.41 -43.32 L-81.79 -44.42 L-80.09 -45.47 L-78.33 -46.46 L-76.52 -47.39 L-72.76 -49.09 L-68.88 -50.56 L-64.96 -51.81 L-61.06 -52.83 L-57.26 -53.63 L-55.41 -53.94 L-53.62 -54.2 L-51.88 -54.4 L-50.2 -54.54 L-48.6 -54.63 L-47.09 -54.65 L-45.57 -54.63 L-43.98 -54.54 L-42.3 -54.4 L-40.56 -54.2 L-38.77 -53.94 L-36.92 -53.63 L-33.12 -52.83 L-29.22 -51.81 L-25.3 -50.56 L-21.42 -49.09 L-17.66 -47.39 L-15.85 -46.46 L-14.09 -45.47 L-12.39 -44.42 L-10.76 -43.32 L-9.22 -42.17 L-7.76 -40.95 L-6.4 -39.69 L-5.15 -38.36 L-4.02 -36.98 L-3 -35.55 L-2.12 -34.06 L-1.38 -32.52 L-0.79 -30.91 L-0.36 -29.26 L-0.09 -27.55 L0 -25.78 L0 0 L0 0" stroke="none" stroke-width="0" fill="#669df6" fill-rule="evenodd"></path><path d="M0 0 C0 0, 0 0, 0 0 M0 0 C0 0, 0 0, 0 0 M0 0 C-0.89 1.12, -1.78 2.23, -2.3 2.89 M0 0 C-0.47 0.59, -0.95 1.19, -2.3 2.89 M-2.3 2.89 C-2.97 3.66, -3.64 4.44, -4.7 5.68 M-2.3 2.89 C-2.93 3.61, -3.55 4.34, -4.7 5.68 M-4.7 5.68 C-5.22 6.23, -5.73 6.79, -7.2 8.37 M-4.7 5.68 C-5.69 6.74, -6.68 7.81, -7.2 8.37 M-7.2 8.37 C-8 9.18, -8.8 9.98, -9.79 10.97 M-7.2 8.37 C-7.94 9.11, -8.67 9.85, -9.79 10.97 M-9.79 10.97 C-10.46 11.59, -11.13 12.21, -12.47 13.46 M-9.79 10.97 C-10.77 11.88, -11.75 12.79, -12.47 13.46 M-12.47 13.46 C-13.2 14.09, -13.93 14.72, -15.24 15.85 M-12.47 13.46 C-13.4 14.26, -14.33 15.06, -15.24 15.85 M-15.24 15.85 C-16.17 16.59, -17.09 17.33, -18.1 18.14 M-15.24 15.85 C-16.22 16.63, -17.2 17.42, -18.1 18.14 M-18.1 18.14 C-19.23 18.97, -20.35 19.81, -21.03 20.31 M-18.1 18.14 C-18.96 18.77, -19.82 19.41, -21.03 20.31 M-21.03 20.31 C-22.04 21, -23.04 21.69, -24.05 22.38 M-21.03 20.31 C-21.75 20.81, -22.47 21.3, -24.05 22.38 M-24.05 22.38 C-24.83 22.87, -25.61 23.37, -27.14 24.33 M-24.05 22.38 C-24.91 22.92, -25.76 23.46, -27.14 24.33 M-27.14 24.33 C-28.3 25.01, -29.45 25.68, -30.3 26.17 M-27.14 24.33 C-28.25 24.98, -29.36 25.63, -30.3 26.17 M-30.3 26.17 C-31.24 26.68, -32.19 27.18, -33.53 27.9 M-30.3 26.17 C-31.4 26.76, -32.5 27.35, -33.53 27.9 M-33.53 27.9 C-34.85 28.54, -36.17 29.18, -36.83 29.5 M-33.53 27.9 C-34.4 28.32, -35.27 28.74, -36.83 29.5 M-36.83 29.5 C-37.71 29.89, -38.59 30.28, -40.19 30.99 M-36.83 29.5 C-38.08 30.05, -39.32 30.6, -40.19 30.99 M-40.19 30.99 C-40.89 31.26, -41.58 31.54, -43.61 32.35 M-40.19 30.99 C-41.37 31.46, -42.55 31.93, -43.61 32.35 M-43.61 32.35 C-44.87 32.79, -46.12 33.24, -47.09 33.58 M-43.61 32.35 C-44.98 32.84, -46.35 33.32, -47.09 33.58 M-47.09 33.58 C-47.9 33.3, -48.7 33.01, -50.57 32.35 M-47.09 33.58 C-47.96 33.27, -48.84 32.96, -50.57 32.35 M-50.57 32.35 C-51.69 31.9, -52.82 31.45, -53.99 30.99 M-50.57 32.35 C-51.49 31.98, -52.42 31.61, -53.99 30.99 M-53.99 30.99 C-55.11 30.49, -56.23 30, -57.35 29.5 M-53.99 30.99 C-54.74 30.65, -55.49 30.32, -57.35 29.5 M-57.35 29.5 C-58.49 28.95, -59.62 28.39, -60.65 27.9 M-57.35 29.5 C-58.66 28.86, -59.97 28.22, -60.65 27.9 M-60.65 27.9 C-61.42 27.48, -62.2 27.07, -63.88 26.17 M-60.65 27.9 C-61.91 27.22, -63.17 26.55, -63.88 26.17 M-63.88 26.17 C-64.9 25.58, -65.93 24.98, -67.04 24.33 M-63.88 26.17 C-64.54 25.79, -65.19 25.41, -67.04 24.33 M-67.04 24.33 C-67.9 23.79, -68.76 23.24, -70.13 22.38 M-67.04 24.33 C-67.85 23.82, -68.67 23.3, -70.13 22.38 M-70.13 22.38 C-70.8 21.92, -71.47 21.46, -73.14 20.31 M-70.13 22.38 C-70.94 21.82, -71.76 21.26, -73.14 20.31 M-73.14 20.31 C-73.91 19.75, -74.67 19.18, -76.08 18.14 M-73.14 20.31 C-73.86 19.78, -74.57 19.26, -76.08 18.14 M-76.08 18.14 C-77.04 17.37, -78 16.6, -78.94 15.85 M-76.08 18.14 C-77.19 17.25, -78.3 16.36, -78.94 15.85 M-78.94 15.85 C-80.01 14.93, -81.08 14, -81.71 13.46 M-78.94 15.85 C-79.8 15.1, -80.67 14.36, -81.71 13.46 M-81.71 13.46 C-82.77 12.47, -83.83 11.48, -84.39 10.97 M-81.71 13.46 C-82.52 12.7, -83.34 11.94, -84.39 10.97 M-84.39 10.97 C-85.29 10.06, -86.2 9.15, -86.98 8.37 M-84.39 10.97 C-85.28 10.07, -86.17 9.18, -86.98 8.37 M-86.98 8.37 C-87.68 7.62, -88.38 6.87, -89.48 5.68 M-86.98 8.37 C-87.96 7.31, -88.95 6.25, -89.48 5.68 M-89.48 5.68 C-90.03 5.04, -90.57 4.4, -91.88 2.89 M-89.48 5.68 C-90.43 4.57, -91.38 3.47, -91.88 2.89 M-91.88 2.89 C-92.56 2.03, -93.24 1.18, -94.18 0 M-91.88 2.89 C-92.73 1.82, -93.58 0.75, -94.18 0 M-94.18 0 C-94.18 -10.13, -94.18 -20.27, -94.18 -25.78 M-94.18 0 C-94.18 -5.4, -94.18 -10.81, -94.18 -25.78 M-94.18 -25.78 C-94.18 -25.78, -94.18 -25.78, -94.18 -25.78 M-94.18 -25.78 C-94.18 -25.78, -94.18 -25.78, -94.18 -25.78 M-94.18 -25.78 C-94.16 -26.14, -94.14 -26.49, -94.09 -27.55 M-94.18 -25.78 C-94.15 -26.34, -94.12 -26.89, -94.09 -27.55 M-94.09 -27.55 C-93.99 -28.19, -93.89 -28.82, -93.82 -29.26 M-94.09 -27.55 C-94.01 -28.08, -93.92 -28.61, -93.82 -29.26 M-93.82 -29.26 C-93.69 -29.76, -93.56 -30.26, -93.39 -30.91 M-93.82 -29.26 C-93.68 -29.8, -93.54 -30.33, -93.39 -30.91 M-93.39 -30.91 C-93.18 -31.48, -92.97 -32.05, -92.8 -32.52 M-93.39 -30.91 C-93.23 -31.36, -93.06 -31.8, -92.8 -32.52 M-92.8 -32.52 C-92.56 -33.02, -92.31 -33.53, -92.06 -34.06 M-92.8 -32.52 C-92.62 -32.89, -92.44 -33.26, -92.06 -34.06 M-92.06 -34.06 C-91.79 -34.52, -91.52 -34.97, -91.18 -35.55 M-92.06 -34.06 C-91.76 -34.57, -91.46 -35.08, -91.18 -35.55 M-91.18 -35.55 C-90.97 -35.85, -90.76 -36.15, -90.16 -36.98 M-91.18 -35.55 C-90.82 -36.06, -90.46 -36.56, -90.16 -36.98 M-90.16 -36.98 C-89.89 -37.32, -89.62 -37.65, -89.03 -38.36 M-90.16 -36.98 C-89.72 -37.53, -89.27 -38.07, -89.03 -38.36 M-89.03 -38.36 C-88.71 -38.7, -88.39 -39.04, -87.77 -39.69 M-89.03 -38.36 C-88.62 -38.8, -88.2 -39.23, -87.77 -39.69 M-87.77 -39.69 C-87.5 -39.94, -87.23 -40.2, -86.42 -40.95 M-87.77 -39.69 C-87.42 -40.02, -87.07 -40.35, -86.42 -40.95 M-86.42 -40.95 C-86.02 -41.29, -85.62 -41.62, -84.96 -42.17 M-86.42 -40.95 C-85.94 -41.35, -85.46 -41.75, -84.96 -42.17 M-84.96 -42.17 C-84.38 -42.6, -83.81 -43.03, -83.41 -43.32 M-84.96 -42.17 C-84.64 -42.41, -84.32 -42.65, -83.41 -43.32 M-83.41 -43.32 C-83 -43.6, -82.59 -43.88, -81.79 -44.42 M-83.41 -43.32 C-82.93 -43.65, -82.44 -43.98, -81.79 -44.42 M-81.79 -44.42 C-81.14 -44.82, -80.49 -45.22, -80.09 -45.47 M-81.79 -44.42 C-81.39 -44.67, -80.99 -44.91, -80.09 -45.47 M-80.09 -45.47 C-79.6 -45.75, -79.1 -46.03, -78.33 -46.46 M-80.09 -45.47 C-79.62 -45.73, -79.15 -46, -78.33 -46.46 M-78.33 -46.46 C-77.62 -46.82, -76.91 -47.19, -76.52 -47.39 M-78.33 -46.46 C-77.65 -46.81, -76.96 -47.16, -76.52 -47.39 M-76.52 -47.39 C-75.67 -47.77, -74.83 -48.15, -72.76 -49.09 M-76.52 -47.39 C-75.56 -47.82, -74.61 -48.25, -72.76 -49.09 M-72.76 -49.09 C-71.96 -49.39, -71.16 -49.7, -68.88 -50.56 M-72.76 -49.09 C-71.96 -49.39, -71.16 -49.7, -68.88 -50.56 M-68.88 -50.56 C-67.93 -50.86, -66.98 -51.17, -64.96 -51.81 M-68.88 -50.56 C-67.48 -51.01, -66.09 -51.45, -64.96 -51.81 M-64.96 -51.81 C-63.54 -52.18, -62.12 -52.56, -61.06 -52.83 M-64.96 -51.81 C-63.67 -52.15, -62.38 -52.49, -61.06 -52.83 M-61.06 -52.83 C-59.98 -53.06, -58.9 -53.29, -57.26 -53.63 M-61.06 -52.83 C-60.05 -53.04, -59.04 -53.26, -57.26 -53.63 M-57.26 -53.63 C-56.8 -53.71, -56.34 -53.78, -55.41 -53.94 M-57.26 -53.63 C-56.71 -53.72, -56.17 -53.81, -55.41 -53.94 M-55.41 -53.94 C-54.71 -54.04, -54.01 -54.14, -53.62 -54.2 M-55.41 -53.94 C-54.77 -54.03, -54.13 -54.12, -53.62 -54.2 M-53.62 -54.2 C-52.96 -54.27, -52.29 -54.35, -51.88 -54.4 M-53.62 -54.2 C-53.13 -54.25, -52.65 -54.31, -51.88 -54.4 M-51.88 -54.4 C-51.23 -54.45, -50.59 -54.51, -50.2 -54.54 M-51.88 -54.4 C-51.23 -54.45, -50.58 -54.51, -50.2 -54.54 M-50.2 -54.54 C-49.7 -54.57, -49.19 -54.59, -48.6 -54.63 M-50.2 -54.54 C-49.57 -54.57, -48.94 -54.61, -48.6 -54.63 M-48.6 -54.63 C-48.02 -54.64, -47.44 -54.65, -47.09 -54.65 M-48.6 -54.63 C-48.29 -54.63, -47.99 -54.64, -47.09 -54.65 M-47.09 -54.65 C-46.55 -54.64, -46.02 -54.63, -45.57 -54.63 M-47.09 -54.65 C-46.49 -54.64, -45.88 -54.63, -45.57 -54.63 M-45.57 -54.63 C-45.1 -54.6, -44.63 -54.57, -43.98 -54.54 M-45.57 -54.63 C-45.19 -54.6, -44.8 -54.58, -43.98 -54.54 M-43.98 -54.54 C-43.59 -54.51, -43.19 -54.47, -42.3 -54.4 M-43.98 -54.54 C-43.35 -54.49, -42.72 -54.43, -42.3 -54.4 M-42.3 -54.4 C-41.76 -54.34, -41.22 -54.27, -40.56 -54.2 M-42.3 -54.4 C-41.93 -54.35, -41.56 -54.31, -40.56 -54.2 M-40.56 -54.2 C-40.15 -54.14, -39.74 -54.08, -38.77 -53.94 M-40.56 -54.2 C-40.12 -54.13, -39.68 -54.07, -38.77 -53.94 M-38.77 -53.94 C-38.37 -53.88, -37.98 -53.81, -36.92 -53.63 M-38.77 -53.94 C-38.35 -53.87, -37.92 -53.8, -36.92 -53.63 M-36.92 -53.63 C-35.95 -53.42, -34.97 -53.22, -33.12 -52.83 M-36.92 -53.63 C-35.87 -53.41, -34.82 -53.19, -33.12 -52.83 M-33.12 -52.83 C-32.04 -52.55, -30.96 -52.27, -29.22 -51.81 M-33.12 -52.83 C-32.05 -52.55, -30.99 -52.28, -29.22 -51.81 M-29.22 -51.81 C-27.77 -51.35, -26.32 -50.89, -25.3 -50.56 M-29.22 -51.81 C-27.82 -51.37, -26.43 -50.92, -25.3 -50.56 M-25.3 -50.56 C-23.9 -50.03, -22.5 -49.5, -21.42 -49.09 M-25.3 -50.56 C-24.05 -50.09, -22.8 -49.61, -21.42 -49.09 M-21.42 -49.09 C-20.44 -48.64, -19.45 -48.2, -17.66 -47.39 M-21.42 -49.09 C-20.22 -48.55, -19.03 -48.01, -17.66 -47.39 M-17.66 -47.39 C-17.27 -47.19, -16.87 -46.98, -15.85 -46.46 M-17.66 -47.39 C-17.23 -47.17, -16.79 -46.94, -15.85 -46.46 M-15.85 -46.46 C-15.2 -46.1, -14.56 -45.73, -14.09 -45.47 M-15.85 -46.46 C-15.44 -46.23, -15.03 -46, -14.09 -45.47 M-14.09 -45.47 C-13.43 -45.07, -12.78 -44.66, -12.39 -44.42 M-14.09 -45.47 C-13.62 -45.18, -13.15 -44.89, -12.39 -44.42 M-12.39 -44.42 C-11.81 -44.03, -11.24 -43.64, -10.76 -43.32 M-12.39 -44.42 C-11.91 -44.1, -11.43 -43.77, -10.76 -43.32 M-10.76 -43.32 C-10.31 -42.98, -9.85 -42.64, -9.22 -42.17 M-10.76 -43.32 C-10.21 -42.91, -9.66 -42.5, -9.22 -42.17 M-9.22 -42.17 C-8.88 -41.88, -8.53 -41.6, -7.76 -40.95 M-9.22 -42.17 C-8.7 -41.74, -8.19 -41.31, -7.76 -40.95 M-7.76 -40.95 C-7.27 -40.5, -6.78 -40.04, -6.4 -39.69 M-7.76 -40.95 C-7.48 -40.69, -7.19 -40.42, -6.4 -39.69 M-6.4 -39.69 C-6.08 -39.34, -5.75 -39, -5.15 -38.36 M-6.4 -39.69 C-5.93 -39.19, -5.46 -38.69, -5.15 -38.36 M-5.15 -38.36 C-4.82 -37.96, -4.49 -37.56, -4.02 -36.98 M-5.15 -38.36 C-4.88 -38.04, -4.62 -37.71, -4.02 -36.98 M-4.02 -36.98 C-3.79 -36.67, -3.57 -36.36, -3 -35.55 M-4.02 -36.98 C-3.63 -36.44, -3.25 -35.9, -3 -35.55 M-3 -35.55 C-2.67 -34.98, -2.33 -34.41, -2.12 -34.06 M-3 -35.55 C-2.8 -35.21, -2.6 -34.88, -2.12 -34.06 M-2.12 -34.06 C-1.87 -33.54, -1.62 -33.02, -1.38 -32.52 M-2.12 -34.06 C-1.89 -33.59, -1.67 -33.11, -1.38 -32.52 M-1.38 -32.52 C-1.25 -32.17, -1.12 -31.82, -0.79 -30.91 M-1.38 -32.52 C-1.23 -32.1, -1.07 -31.68, -0.79 -30.91 M-0.79 -30.91 C-0.62 -30.28, -0.46 -29.65, -0.36 -29.26 M-0.79 -30.91 C-0.64 -30.35, -0.5 -29.79, -0.36 -29.26 M-0.36 -29.26 C-0.26 -28.63, -0.16 -27.99, -0.09 -27.55 M-0.36 -29.26 C-0.3 -28.92, -0.25 -28.57, -0.09 -27.55 M-0.09 -27.55 C-0.06 -26.92, -0.03 -26.28, 0 -25.78 M-0.09 -27.55 C-0.05 -26.84, -0.02 -26.14, 0 -25.78 M0 -25.78 C0 -17.92, 0 -10.05, 0 0 M0 -25.78 C0 -15.59, 0 -5.4, 0 0 M0 0 C0 0, 0 0, 0 0 M0 0 C0 0, 0 0, 0 0 M0 0 C0 0, 0 0, 0 0 M0 0 C0 0, 0 0, 0 0" stroke="#000000" stroke-width="1" fill="none"></path></g></g><mask></mask><g stroke-linecap="round"><g transform="translate(100.02061292463921 6) rotate(0 47.030114120907285 114.57525192399476)" fill-rule="evenodd"><path d="M0 0 L0 43.41 L0 43.41 L1.55 43.45 L3.08 43.56 L4.59 43.75 L6.07 44.02 L8.96 44.76 L11.73 45.78 L14.36 47.05 L16.85 48.56 L19.17 50.29 L21.31 52.24 L23.25 54.38 L24.99 56.7 L26.5 59.18 L27.77 61.82 L28.78 64.59 L29.53 67.47 L29.79 68.96 L29.98 70.47 L30.1 72 L30.14 73.55 L30.1 75.1 L29.98 76.62 L29.79 78.13 L29.53 79.62 L28.78 82.5 L27.77 85.27 L26.5 87.91 L24.99 90.39 L23.25 92.71 L21.31 94.85 L19.17 96.8 L16.85 98.53 L14.36 100.04 L11.73 101.31 L8.96 102.33 L6.07 103.07 L4.59 103.34 L3.08 103.53 L1.55 103.64 L0 103.68 L0 116.52 L0 116.52 L1.51 116.54 L3.11 116.63 L4.79 116.77 L6.53 116.97 L8.32 117.23 L10.17 117.54 L13.97 118.34 L17.87 119.36 L21.79 120.61 L25.67 122.08 L29.43 123.78 L31.24 124.71 L33 125.7 L34.7 126.75 L36.33 127.85 L37.87 129 L39.33 130.21 L40.69 131.48 L41.94 132.81 L43.07 134.19 L44.09 135.62 L44.97 137.11 L45.71 138.65 L46.3 140.26 L46.73 141.91 L47 143.62 L47.09 145.39 L47.09 171.17 L47.09 171.17 L44.79 174.06 L42.39 176.85 L39.89 179.54 L37.3 182.14 L34.62 184.63 L31.85 187.02 L28.99 189.31 L26.05 191.48 L23.04 193.55 L19.95 195.5 L16.79 197.34 L13.56 199.07 L10.26 200.67 L6.9 202.16 L3.48 203.52 L0 204.75 L0 229.15 L0 229.15 L5.02 227.79 L9.95 226.21 L14.78 224.39 L19.53 222.35 L24.17 220.1 L28.71 217.64 L33.14 214.99 L37.45 212.14 L41.65 209.1 L45.72 205.88 L49.66 202.5 L53.47 198.94 L57.13 195.23 L60.66 191.37 L64.03 187.36 L67.26 183.21 L70.32 178.94 L73.23 174.53 L75.96 170.02 L78.52 165.38 L80.91 160.65 L83.11 155.82 L85.12 150.9 L86.95 145.89 L88.58 140.81 L90 135.66 L91.22 130.45 L92.23 125.18 L93.02 119.86 L93.6 114.5 L93.94 109.11 L94.06 103.68 L94.06 39.17 L0 0 L0 0" stroke="none" stroke-width="0" fill="#4285f4" fill-rule="evenodd"></path><path d="M0 0 C0 11.55, 0 23.09, 0 43.41 M0 0 C0 15.54, 0 31.07, 0 43.41 M0 43.41 C0 43.41, 0 43.41, 0 43.41 M0 43.41 C0 43.41, 0 43.41, 0 43.41 M0 43.41 C0.52 43.42, 1.05 43.43, 1.55 43.45 M0 43.41 C0.59 43.42, 1.18 43.44, 1.55 43.45 M1.55 43.45 C2.05 43.48, 2.55 43.52, 3.08 43.56 M1.55 43.45 C1.98 43.48, 2.4 43.51, 3.08 43.56 M3.08 43.56 C3.47 43.61, 3.86 43.66, 4.59 43.75 M3.08 43.56 C3.45 43.61, 3.81 43.66, 4.59 43.75 M4.59 43.75 C5.08 43.84, 5.57 43.93, 6.07 44.02 M4.59 43.75 C5.03 43.83, 5.48 43.91, 6.07 44.02 M6.07 44.02 C6.71 44.18, 7.34 44.35, 8.96 44.76 M6.07 44.02 C7.08 44.28, 8.09 44.54, 8.96 44.76 M8.96 44.76 C9.99 45.14, 11.02 45.52, 11.73 45.78 M8.96 44.76 C9.79 45.07, 10.62 45.37, 11.73 45.78 M11.73 45.78 C12.26 46.03, 12.79 46.29, 14.36 47.05 M11.73 45.78 C12.62 46.21, 13.52 46.64, 14.36 47.05 M14.36 47.05 C15.32 47.63, 16.29 48.22, 16.85 48.56 M14.36 47.05 C15.04 47.46, 15.73 47.88, 16.85 48.56 M16.85 48.56 C17.47 49.02, 18.09 49.49, 19.17 50.29 M16.85 48.56 C17.76 49.24, 18.67 49.92, 19.17 50.29 M19.17 50.29 C19.9 50.96, 20.64 51.63, 21.31 52.24 M19.17 50.29 C19.62 50.7, 20.07 51.11, 21.31 52.24 M21.31 52.24 C21.83 52.82, 22.36 53.4, 23.25 54.38 M21.31 52.24 C21.95 52.94, 22.58 53.64, 23.25 54.38 M23.25 54.38 C23.86 55.19, 24.47 56.01, 24.99 56.7 M23.25 54.38 C23.92 55.27, 24.58 56.15, 24.99 56.7 M24.99 56.7 C25.51 57.55, 26.03 58.41, 26.5 59.18 M24.99 56.7 C25.44 57.45, 25.9 58.2, 26.5 59.18 M26.5 59.18 C26.94 60.11, 27.39 61.03, 27.77 61.82 M26.5 59.18 C26.82 59.86, 27.15 60.53, 27.77 61.82 M27.77 61.82 C27.98 62.41, 28.2 63, 28.78 64.59 M27.77 61.82 C28.08 62.68, 28.4 63.54, 28.78 64.59 M28.78 64.59 C28.94 65.22, 29.11 65.84, 29.53 67.47 M28.78 64.59 C29.07 65.69, 29.35 66.8, 29.53 67.47 M29.53 67.47 C29.6 67.9, 29.68 68.32, 29.79 68.96 M29.53 67.47 C29.6 67.91, 29.68 68.34, 29.79 68.96 M29.79 68.96 C29.84 69.36, 29.89 69.77, 29.98 70.47 M29.79 68.96 C29.85 69.42, 29.91 69.88, 29.98 70.47 M29.98 70.47 C30.02 71.01, 30.07 71.55, 30.1 72 M29.98 70.47 C30.01 70.8, 30.03 71.12, 30.1 72 M30.1 72 C30.11 72.55, 30.13 73.09, 30.14 73.55 M30.1 72 C30.11 72.4, 30.12 72.8, 30.14 73.55 M30.14 73.55 C30.13 74.02, 30.12 74.49, 30.1 75.1 M30.14 73.55 C30.12 74.17, 30.11 74.79, 30.1 75.1 M30.1 75.1 C30.06 75.65, 30.02 76.19, 29.98 76.62 M30.1 75.1 C30.07 75.5, 30.04 75.9, 29.98 76.62 M29.98 76.62 C29.91 77.22, 29.83 77.82, 29.79 78.13 M29.98 76.62 C29.91 77.22, 29.83 77.82, 29.79 78.13 M29.79 78.13 C29.71 78.59, 29.63 79.04, 29.53 79.62 M29.79 78.13 C29.73 78.47, 29.67 78.8, 29.53 79.62 M29.53 79.62 C29.24 80.73, 28.95 81.85, 28.78 82.5 M29.53 79.62 C29.31 80.47, 29.09 81.33, 28.78 82.5 M28.78 82.5 C28.53 83.2, 28.27 83.89, 27.77 85.27 M28.78 82.5 C28.54 83.18, 28.29 83.86, 27.77 85.27 M27.77 85.27 C27.5 85.83, 27.23 86.39, 26.5 87.91 M27.77 85.27 C27.47 85.88, 27.18 86.49, 26.5 87.91 M26.5 87.91 C25.91 88.87, 25.32 89.84, 24.99 90.39 M26.5 87.91 C26.03 88.68, 25.56 89.45, 24.99 90.39 M24.99 90.39 C24.47 91.08, 23.96 91.77, 23.25 92.71 M24.99 90.39 C24.52 91.02, 24.05 91.65, 23.25 92.71 M23.25 92.71 C22.57 93.46, 21.89 94.21, 21.31 94.85 M23.25 92.71 C22.48 93.57, 21.7 94.42, 21.31 94.85 M21.31 94.85 C20.77 95.34, 20.23 95.83, 19.17 96.8 M21.31 94.85 C20.61 95.48, 19.92 96.11, 19.17 96.8 M19.17 96.8 C18.47 97.32, 17.78 97.84, 16.85 98.53 M19.17 96.8 C18.29 97.45, 17.42 98.11, 16.85 98.53 M16.85 98.53 C15.92 99.1, 14.99 99.66, 14.36 100.04 M16.85 98.53 C16.25 98.89, 15.66 99.26, 14.36 100.04 M14.36 100.04 C13.73 100.35, 13.11 100.65, 11.73 101.31 M14.36 100.04 C13.57 100.42, 12.79 100.8, 11.73 101.31 M11.73 101.31 C10.78 101.66, 9.84 102.01, 8.96 102.33 M11.73 101.31 C10.89 101.62, 10.05 101.93, 8.96 102.33 M8.96 102.33 C8.08 102.55, 7.2 102.78, 6.07 103.07 M8.96 102.33 C8.07 102.56, 7.17 102.79, 6.07 103.07 M6.07 103.07 C5.59 103.16, 5.11 103.24, 4.59 103.34 M6.07 103.07 C5.56 103.16, 5.06 103.25, 4.59 103.34 M4.59 103.34 C4.18 103.39, 3.77 103.44, 3.08 103.53 M4.59 103.34 C4.07 103.4, 3.56 103.47, 3.08 103.53 M3.08 103.53 C2.65 103.56, 2.23 103.59, 1.55 103.64 M3.08 103.53 C2.74 103.55, 2.41 103.58, 1.55 103.64 M1.55 103.64 C1.17 103.65, 0.78 103.66, 0 103.68 M1.55 103.64 C1.21 103.65, 0.88 103.66, 0 103.68 M0 103.68 C0 106.77, 0 109.85, 0 116.52 M0 103.68 C0 108.1, 0 112.51, 0 116.52 M0 116.52 C0 116.52, 0 116.52, 0 116.52 M0 116.52 C0 116.52, 0 116.52, 0 116.52 M0 116.52 C0.36 116.52, 0.72 116.53, 1.51 116.54 M0 116.52 C0.54 116.53, 1.08 116.54, 1.51 116.54 M1.51 116.54 C2.07 116.57, 2.62 116.6, 3.11 116.63 M1.51 116.54 C1.89 116.56, 2.26 116.58, 3.11 116.63 M3.11 116.63 C3.75 116.68, 4.39 116.74, 4.79 116.77 M3.11 116.63 C3.51 116.66, 3.91 116.7, 4.79 116.77 M4.79 116.77 C5.25 116.83, 5.72 116.88, 6.53 116.97 M4.79 116.77 C5.42 116.85, 6.06 116.92, 6.53 116.97 M6.53 116.97 C7.19 117.07, 7.86 117.16, 8.32 117.23 M6.53 116.97 C6.91 117.03, 7.29 117.08, 8.32 117.23 M8.32 117.23 C9.06 117.35, 9.79 117.48, 10.17 117.54 M8.32 117.23 C8.91 117.33, 9.51 117.43, 10.17 117.54 M10.17 117.54 C11.65 117.85, 13.13 118.16, 13.97 118.34 M10.17 117.54 C11.08 117.73, 11.98 117.92, 13.97 118.34 M13.97 118.34 C14.84 118.56, 15.7 118.79, 17.87 119.36 M13.97 118.34 C15.01 118.61, 16.05 118.88, 17.87 119.36 M17.87 119.36 C18.67 119.61, 19.46 119.87, 21.79 120.61 M17.87 119.36 C19.11 119.75, 20.35 120.15, 21.79 120.61 M21.79 120.61 C23.21 121.15, 24.63 121.69, 25.67 122.08 M21.79 120.61 C22.8 120.99, 23.81 121.38, 25.67 122.08 M25.67 122.08 C26.68 122.54, 27.7 123, 29.43 123.78 M25.67 122.08 C27.12 122.74, 28.57 123.39, 29.43 123.78 M29.43 123.78 C29.96 124.05, 30.49 124.33, 31.24 124.71 M29.43 123.78 C30.06 124.1, 30.69 124.43, 31.24 124.71 M31.24 124.71 C31.65 124.94, 32.06 125.17, 33 125.7 M31.24 124.71 C31.64 124.93, 32.03 125.16, 33 125.7 M33 125.7 C33.68 126.12, 34.36 126.53, 34.7 126.75 M33 125.7 C33.45 125.98, 33.9 126.25, 34.7 126.75 M34.7 126.75 C35.05 126.98, 35.4 127.22, 36.33 127.85 M34.7 126.75 C35.27 127.13, 35.83 127.51, 36.33 127.85 M36.33 127.85 C36.81 128.21, 37.3 128.57, 37.87 129 M36.33 127.85 C36.84 128.23, 37.35 128.62, 37.87 129 M37.87 129 C38.36 129.41, 38.84 129.81, 39.33 130.21 M37.87 129 C38.33 129.38, 38.78 129.76, 39.33 130.21 M39.33 130.21 C39.61 130.48, 39.9 130.75, 40.69 131.48 M39.33 130.21 C39.82 130.68, 40.32 131.14, 40.69 131.48 M40.69 131.48 C41.17 131.99, 41.65 132.51, 41.94 132.81 M40.69 131.48 C40.95 131.77, 41.22 132.05, 41.94 132.81 M41.94 132.81 C42.27 133.21, 42.6 133.61, 43.07 134.19 M41.94 132.81 C42.35 133.31, 42.77 133.82, 43.07 134.19 M43.07 134.19 C43.44 134.7, 43.8 135.21, 44.09 135.62 M43.07 134.19 C43.46 134.74, 43.85 135.29, 44.09 135.62 M44.09 135.62 C44.35 136.07, 44.62 136.51, 44.97 137.11 M44.09 135.62 C44.29 135.96, 44.49 136.29, 44.97 137.11 M44.97 137.11 C45.21 137.6, 45.44 138.1, 45.71 138.65 M44.97 137.11 C45.19 137.57, 45.41 138.04, 45.71 138.65 M45.71 138.65 C45.83 138.99, 45.95 139.32, 46.3 140.26 M45.71 138.65 C45.84 139.01, 45.97 139.37, 46.3 140.26 M46.3 140.26 C46.44 140.8, 46.59 141.35, 46.73 141.91 M46.3 140.26 C46.42 140.7, 46.53 141.15, 46.73 141.91 M46.73 141.91 C46.82 142.48, 46.91 143.04, 47 143.62 M46.73 141.91 C46.82 142.47, 46.91 143.03, 47 143.62 M47 143.62 C47.03 144.2, 47.06 144.78, 47.09 145.39 M47 143.62 C47.03 144.23, 47.06 144.85, 47.09 145.39 M47.09 145.39 C47.09 150.95, 47.09 156.51, 47.09 171.17 M47.09 145.39 C47.09 153.06, 47.09 160.74, 47.09 171.17 M47.09 171.17 C47.09 171.17, 47.09 171.17, 47.09 171.17 M47.09 171.17 C47.09 171.17, 47.09 171.17, 47.09 171.17 M47.09 171.17 C46.29 172.17, 45.49 173.18, 44.79 174.06 M47.09 171.17 C46.21 172.27, 45.34 173.37, 44.79 174.06 M44.79 174.06 C44.07 174.89, 43.35 175.73, 42.39 176.85 M44.79 174.06 C44.02 174.95, 43.25 175.85, 42.39 176.85 M42.39 176.85 C41.77 177.52, 41.15 178.18, 39.89 179.54 M42.39 176.85 C41.85 177.42, 41.32 178, 39.89 179.54 M39.89 179.54 C39.14 180.29, 38.4 181.04, 37.3 182.14 M39.89 179.54 C39.07 180.36, 38.26 181.18, 37.3 182.14 M37.3 182.14 C36.3 183.06, 35.31 183.99, 34.62 184.63 M37.3 182.14 C36.44 182.94, 35.58 183.73, 34.62 184.63 M34.62 184.63 C33.79 185.34, 32.97 186.05, 31.85 187.02 M34.62 184.63 C34.03 185.14, 33.44 185.64, 31.85 187.02 M31.85 187.02 C31.25 187.5, 30.65 187.98, 28.99 189.31 M31.85 187.02 C31.23 187.52, 30.61 188.01, 28.99 189.31 M28.99 189.31 C27.82 190.18, 26.64 191.04, 26.05 191.48 M28.99 189.31 C28.24 189.87, 27.48 190.43, 26.05 191.48 M26.05 191.48 C24.87 192.29, 23.69 193.11, 23.04 193.55 M26.05 191.48 C25.13 192.11, 24.21 192.75, 23.04 193.55 M23.04 193.55 C21.94 194.24, 20.85 194.94, 19.95 195.5 M23.04 193.55 C22.31 194.01, 21.58 194.47, 19.95 195.5 M19.95 195.5 C18.74 196.21, 17.52 196.92, 16.79 197.34 M19.95 195.5 C18.75 196.2, 17.55 196.9, 16.79 197.34 M16.79 197.34 C15.79 197.87, 14.8 198.4, 13.56 199.07 M16.79 197.34 C15.58 197.99, 14.36 198.64, 13.56 199.07 M13.56 199.07 C12.3 199.68, 11.03 200.29, 10.26 200.67 M13.56 199.07 C12.5 199.58, 11.43 200.1, 10.26 200.67 M10.26 200.67 C9.29 201.1, 8.32 201.53, 6.9 202.16 M10.26 200.67 C9.47 201.02, 8.67 201.37, 6.9 202.16 M6.9 202.16 C6.13 202.46, 5.36 202.77, 3.48 203.52 M6.9 202.16 C6.21 202.43, 5.52 202.7, 3.48 203.52 M3.48 203.52 C2.39 203.9, 1.31 204.29, 0 204.75 M3.48 203.52 C2.71 203.79, 1.93 204.07, 0 204.75 M0 204.75 C0 211.65, 0 218.55, 0 229.15 M0 204.75 C0 213.97, 0 223.18, 0 229.15 M0 229.15 C0 229.15, 0 229.15, 0 229.15 M0 229.15 C0 229.15, 0 229.15, 0 229.15 M0 229.15 C1.83 228.66, 3.65 228.16, 5.02 227.79 M0 229.15 C1.01 228.88, 2.01 228.61, 5.02 227.79 M5.02 227.79 C6.43 227.34, 7.85 226.88, 9.95 226.21 M5.02 227.79 C6.87 227.2, 8.72 226.6, 9.95 226.21 M9.95 226.21 C10.97 225.82, 12 225.43, 14.78 224.39 M9.95 226.21 C11.44 225.65, 12.93 225.09, 14.78 224.39 M14.78 224.39 C16.21 223.78, 17.64 223.16, 19.53 222.35 M14.78 224.39 C15.95 223.89, 17.11 223.39, 19.53 222.35 M19.53 222.35 C20.49 221.88, 21.46 221.41, 24.17 220.1 M19.53 222.35 C21.05 221.62, 22.56 220.88, 24.17 220.1 M24.17 220.1 C25.46 219.4, 26.74 218.71, 28.71 217.64 M24.17 220.1 C25.26 219.51, 26.36 218.92, 28.71 217.64 M28.71 217.64 C29.89 216.94, 31.06 216.23, 33.14 214.99 M28.71 217.64 C30.36 216.65, 32.01 215.66, 33.14 214.99 M33.14 214.99 C34.35 214.19, 35.56 213.39, 37.45 212.14 M33.14 214.99 C34.27 214.24, 35.4 213.5, 37.45 212.14 M37.45 212.14 C38.87 211.11, 40.28 210.09, 41.65 209.1 M37.45 212.14 C38.93 211.07, 40.4 210, 41.65 209.1 M41.65 209.1 C42.97 208.05, 44.29 207.01, 45.72 205.88 M41.65 209.1 C42.64 208.31, 43.64 207.53, 45.72 205.88 M45.72 205.88 C46.94 204.83, 48.16 203.78, 49.66 202.5 M45.72 205.88 C46.73 205.02, 47.74 204.15, 49.66 202.5 M49.66 202.5 C50.93 201.31, 52.2 200.12, 53.47 198.94 M49.66 202.5 C50.67 201.55, 51.68 200.61, 53.47 198.94 M53.47 198.94 C54.6 197.8, 55.73 196.66, 57.13 195.23 M53.47 198.94 C54.46 197.94, 55.45 196.93, 57.13 195.23 M57.13 195.23 C57.88 194.41, 58.63 193.59, 60.66 191.37 M57.13 195.23 C57.98 194.3, 58.83 193.37, 60.66 191.37 M60.66 191.37 C61.98 189.8, 63.29 188.24, 64.03 187.36 M60.66 191.37 C61.56 190.3, 62.47 189.22, 64.03 187.36 M64.03 187.36 C65.16 185.91, 66.28 184.47, 67.26 183.21 M64.03 187.36 C64.75 186.44, 65.47 185.51, 67.26 183.21 M67.26 183.21 C68.03 182.14, 68.8 181.06, 70.32 178.94 M67.26 183.21 C68.2 181.9, 69.15 180.58, 70.32 178.94 M70.32 178.94 C71.25 177.53, 72.18 176.12, 73.23 174.53 M70.32 178.94 C71.21 177.58, 72.11 176.23, 73.23 174.53 M73.23 174.53 C74.11 173.07, 75 171.61, 75.96 170.02 M73.23 174.53 C74.16 172.99, 75.1 171.44, 75.96 170.02 M75.96 170.02 C76.95 168.23, 77.94 166.44, 78.52 165.38 M75.96 170.02 C76.79 168.51, 77.62 167.01, 78.52 165.38 M78.52 165.38 C79.18 164.09, 79.83 162.79, 80.91 160.65 M78.52 165.38 C79.26 163.92, 80 162.45, 80.91 160.65 M80.91 160.65 C81.78 158.73, 82.66 156.81, 83.11 155.82 M80.91 160.65 C81.67 158.97, 82.44 157.29, 83.11 155.82 M83.11 155.82 C83.72 154.32, 84.34 152.82, 85.12 150.9 M83.11 155.82 C83.59 154.64, 84.07 153.47, 85.12 150.9 M85.12 150.9 C85.64 149.47, 86.16 148.05, 86.95 145.89 M85.12 150.9 C85.83 148.96, 86.53 147.03, 86.95 145.89 M86.95 145.89 C87.37 144.59, 87.78 143.29, 88.58 140.81 M86.95 145.89 C87.51 144.13, 88.08 142.36, 88.58 140.81 M88.58 140.81 C89.1 138.91, 89.63 137.01, 90 135.66 M88.58 140.81 C88.99 139.32, 89.4 137.82, 90 135.66 M90 135.66 C90.37 134.09, 90.74 132.51, 91.22 130.45 M90 135.66 C90.42 133.88, 90.84 132.09, 91.22 130.45 M91.22 130.45 C91.48 129.1, 91.74 127.75, 92.23 125.18 M91.22 130.45 C91.47 129.14, 91.72 127.83, 92.23 125.18 M92.23 125.18 C92.43 123.83, 92.63 122.48, 93.02 119.86 M92.23 125.18 C92.48 123.48, 92.74 121.78, 93.02 119.86 M93.02 119.86 C93.22 118.06, 93.41 116.26, 93.6 114.5 M93.02 119.86 C93.19 118.31, 93.35 116.77, 93.6 114.5 M93.6 114.5 C93.69 113.11, 93.78 111.72, 93.94 109.11 M93.6 114.5 C93.69 113.08, 93.78 111.66, 93.94 109.11 M93.94 109.11 C93.98 107.55, 94.01 105.99, 94.06 103.68 M93.94 109.11 C93.99 107.06, 94.03 105.01, 94.06 103.68 M94.06 103.68 C94.06 84.44, 94.06 65.19, 94.06 39.17 M94.06 103.68 C94.06 81.27, 94.06 58.85, 94.06 39.17 M94.06 39.17 C59.03 24.58, 24 9.99, 0 0 M94.06 39.17 C63.84 26.58, 33.62 14, 0 0 M0 0 C0 0, 0 0, 0 0 M0 0 C0 0, 0 0, 0 0 M0 0 C0 0, 0 0, 0 0 M0 0 C0 0, 0 0, 0 0" stroke="#000000" stroke-width="1" fill="none"></path></g></g><mask></mask><g stroke-linecap="round"><g transform="translate(100.02061292463875 49.40632230498977) rotate(0 0.000007577528137403533 30.13887183554459)" fill-rule="evenodd"><path d="M0 0 L0 0 L1.55 0.04 L3.08 0.16 L4.59 0.35 L6.07 0.61 L8.96 1.36 L11.73 2.37 L14.36 3.64 L16.85 5.15 L19.17 6.89 L21.31 8.83 L23.25 10.97 L24.99 13.29 L26.5 15.78 L27.77 18.41 L28.78 21.18 L29.53 24.07 L29.79 25.55 L29.98 27.06 L30.1 28.59 L30.14 30.14 L30.1 31.69 L29.98 33.22 L29.79 34.73 L29.53 36.21 L28.78 39.1 L27.77 41.87 L26.5 44.5 L24.99 46.98 L23.25 49.31 L21.31 51.45 L19.17 53.39 L16.85 55.13 L14.36 56.64 L11.73 57.91 L8.96 58.92 L6.07 59.66 L4.59 59.93 L3.08 60.12 L1.55 60.24 L0 60.28 L-1.55 60.24 L-3.08 60.12 L-4.59 59.93 L-6.07 59.66 L-8.96 58.92 L-11.73 57.91 L-14.36 56.64 L-16.85 55.13 L-19.17 53.39 L-21.31 51.45 L-23.25 49.31 L-24.99 46.98 L-26.5 44.5 L-27.77 41.87 L-28.78 39.1 L-29.53 36.21 L-29.79 34.73 L-29.98 33.22 L-30.1 31.69 L-30.14 30.14 L-29.99 27.16 L-29.56 24.23 L-28.84 21.37 L-27.85 18.61 L-26.59 15.95 L-25.08 13.43 L-23.31 11.05 L-21.31 8.83 L-19.09 6.83 L-16.71 5.06 L-14.18 3.55 L-11.51 2.29 L-8.75 1.3 L-5.89 0.58 L-2.97 0.15 L0 0 L0 0" stroke="none" stroke-width="0" fill="#fff" fill-rule="evenodd"></path><path d="M0 0 C0 0, 0 0, 0 0 M0 0 C0 0, 0 0, 0 0 M0 0 C0.55 0.01, 1.09 0.03, 1.55 0.04 M0 0 C0.37 0.01, 0.74 0.02, 1.55 0.04 M1.55 0.04 C1.98 0.07, 2.41 0.1, 3.08 0.16 M1.55 0.04 C1.98 0.07, 2.42 0.11, 3.08 0.16 M3.08 0.16 C3.57 0.22, 4.06 0.28, 4.59 0.35 M3.08 0.16 C3.61 0.22, 4.14 0.29, 4.59 0.35 M4.59 0.35 C5.02 0.42, 5.44 0.5, 6.07 0.61 M4.59 0.35 C5.09 0.44, 5.59 0.53, 6.07 0.61 M6.07 0.61 C7 0.85, 7.92 1.09, 8.96 1.36 M6.07 0.61 C6.96 0.84, 7.86 1.07, 8.96 1.36 M8.96 1.36 C9.7 1.63, 10.45 1.9, 11.73 2.37 M8.96 1.36 C9.88 1.7, 10.81 2.03, 11.73 2.37 M11.73 2.37 C12.61 2.8, 13.5 3.23, 14.36 3.64 M11.73 2.37 C12.67 2.83, 13.62 3.28, 14.36 3.64 M14.36 3.64 C14.93 3.98, 15.5 4.33, 16.85 5.15 M14.36 3.64 C14.88 3.96, 15.4 4.27, 16.85 5.15 M16.85 5.15 C17.33 5.51, 17.82 5.88, 19.17 6.89 M16.85 5.15 C17.52 5.65, 18.19 6.16, 19.17 6.89 M19.17 6.89 C19.72 7.39, 20.27 7.89, 21.31 8.83 M19.17 6.89 C19.98 7.62, 20.79 8.36, 21.31 8.83 M21.31 8.83 C21.92 9.51, 22.54 10.19, 23.25 10.97 M21.31 8.83 C21.94 9.53, 22.57 10.22, 23.25 10.97 M23.25 10.97 C23.68 11.54, 24.1 12.11, 24.99 13.29 M23.25 10.97 C23.68 11.54, 24.11 12.11, 24.99 13.29 M24.99 13.29 C25.4 13.97, 25.81 14.65, 26.5 15.78 M24.99 13.29 C25.33 13.85, 25.66 14.41, 26.5 15.78 M26.5 15.78 C26.95 16.72, 27.41 17.66, 27.77 18.41 M26.5 15.78 C26.88 16.57, 27.27 17.37, 27.77 18.41 M27.77 18.41 C28 19.05, 28.24 19.69, 28.78 21.18 M27.77 18.41 C28.16 19.47, 28.54 20.53, 28.78 21.18 M28.78 21.18 C29.05 22.22, 29.32 23.25, 29.53 24.07 M28.78 21.18 C28.95 21.82, 29.11 22.46, 29.53 24.07 M29.53 24.07 C29.63 24.64, 29.73 25.22, 29.79 25.55 M29.53 24.07 C29.61 24.56, 29.7 25.05, 29.79 25.55 M29.79 25.55 C29.85 26, 29.91 26.46, 29.98 27.06 M29.79 25.55 C29.86 26.11, 29.93 26.66, 29.98 27.06 M29.98 27.06 C30.01 27.47, 30.05 27.89, 30.1 28.59 M29.98 27.06 C30.01 27.42, 30.04 27.78, 30.1 28.59 M30.1 28.59 C30.11 28.93, 30.12 29.27, 30.14 30.14 M30.1 28.59 C30.11 29.03, 30.12 29.48, 30.14 30.14 M30.14 30.14 C30.13 30.54, 30.12 30.94, 30.1 31.69 M30.14 30.14 C30.13 30.45, 30.12 30.77, 30.1 31.69 M30.1 31.69 C30.07 32.07, 30.04 32.44, 29.98 33.22 M30.1 31.69 C30.07 32.01, 30.05 32.34, 29.98 33.22 M29.98 33.22 C29.93 33.6, 29.89 33.98, 29.79 34.73 M29.98 33.22 C29.91 33.78, 29.84 34.33, 29.79 34.73 M29.79 34.73 C29.71 35.17, 29.63 35.61, 29.53 36.21 M29.79 34.73 C29.69 35.27, 29.6 35.81, 29.53 36.21 M29.53 36.21 C29.37 36.82, 29.21 37.42, 28.78 39.1 M29.53 36.21 C29.37 36.82, 29.21 37.43, 28.78 39.1 M28.78 39.1 C28.4 40.15, 28.01 41.21, 27.77 41.87 M28.78 39.1 C28.53 39.79, 28.28 40.48, 27.77 41.87 M27.77 41.87 C27.49 42.44, 27.22 43.01, 26.5 44.5 M27.77 41.87 C27.47 42.49, 27.16 43.12, 26.5 44.5 M26.5 44.5 C26.06 45.22, 25.62 45.95, 24.99 46.98 M26.5 44.5 C25.96 45.39, 25.42 46.27, 24.99 46.98 M24.99 46.98 C24.64 47.45, 24.29 47.91, 23.25 49.31 M24.99 46.98 C24.47 47.67, 23.96 48.36, 23.25 49.31 M23.25 49.31 C22.64 49.98, 22.03 50.65, 21.31 51.45 M23.25 49.31 C22.74 49.87, 22.22 50.44, 21.31 51.45 M21.31 51.45 C20.82 51.89, 20.33 52.33, 19.17 53.39 M21.31 51.45 C20.73 51.97, 20.15 52.5, 19.17 53.39 M19.17 53.39 C18.42 53.95, 17.67 54.51, 16.85 55.13 M19.17 53.39 C18.39 53.98, 17.61 54.56, 16.85 55.13 M16.85 55.13 C16.34 55.44, 15.82 55.75, 14.36 56.64 M16.85 55.13 C15.9 55.7, 14.96 56.27, 14.36 56.64 M14.36 56.64 C13.63 56.99, 12.9 57.34, 11.73 57.91 M14.36 56.64 C13.78 56.92, 13.2 57.2, 11.73 57.91 M11.73 57.91 C10.68 58.29, 9.63 58.67, 8.96 58.92 M11.73 57.91 C10.96 58.19, 10.2 58.47, 8.96 58.92 M8.96 58.92 C7.99 59.17, 7.02 59.42, 6.07 59.66 M8.96 58.92 C7.94 59.18, 6.91 59.45, 6.07 59.66 M6.07 59.66 C5.73 59.73, 5.39 59.79, 4.59 59.93 M6.07 59.66 C5.55 59.76, 5.03 59.85, 4.59 59.93 M4.59 59.93 C4.08 59.99, 3.58 60.06, 3.08 60.12 M4.59 59.93 C4.2 59.98, 3.81 60.03, 3.08 60.12 M3.08 60.12 C2.49 60.17, 1.91 60.21, 1.55 60.24 M3.08 60.12 C2.72 60.15, 2.36 60.18, 1.55 60.24 M1.55 60.24 C1.08 60.25, 0.6 60.26, 0 60.28 M1.55 60.24 C1.19 60.25, 0.82 60.26, 0 60.28 M0 60.28 C-0.46 60.27, -0.93 60.25, -1.55 60.24 M0 60.28 C-0.44 60.27, -0.88 60.26, -1.55 60.24 M-1.55 60.24 C-2.11 60.2, -2.68 60.15, -3.08 60.12 M-1.55 60.24 C-1.98 60.21, -2.41 60.17, -3.08 60.12 M-3.08 60.12 C-3.66 60.05, -4.23 59.98, -4.59 59.93 M-3.08 60.12 C-3.53 60.06, -3.99 60.01, -4.59 59.93 M-4.59 59.93 C-4.93 59.87, -5.27 59.81, -6.07 59.66 M-4.59 59.93 C-5.15 59.83, -5.71 59.73, -6.07 59.66 M-6.07 59.66 C-6.85 59.46, -7.63 59.26, -8.96 58.92 M-6.07 59.66 C-6.7 59.5, -7.33 59.34, -8.96 58.92 M-8.96 58.92 C-9.75 58.63, -10.55 58.34, -11.73 57.91 M-8.96 58.92 C-10.03 58.53, -11.1 58.14, -11.73 57.91 M-11.73 57.91 C-12.63 57.47, -13.53 57.04, -14.36 56.64 M-11.73 57.91 C-12.27 57.65, -12.82 57.38, -14.36 56.64 M-14.36 56.64 C-15.18 56.14, -15.99 55.65, -16.85 55.13 M-14.36 56.64 C-15.25 56.1, -16.14 55.55, -16.85 55.13 M-16.85 55.13 C-17.35 54.75, -17.86 54.37, -19.17 53.39 M-16.85 55.13 C-17.71 54.48, -18.58 53.83, -19.17 53.39 M-19.17 53.39 C-19.65 52.95, -20.14 52.51, -21.31 51.45 M-19.17 53.39 C-19.66 52.94, -20.16 52.49, -21.31 51.45 M-21.31 51.45 C-21.81 50.9, -22.3 50.35, -23.25 49.31 M-21.31 51.45 C-21.81 50.89, -22.31 50.34, -23.25 49.31 M-23.25 49.31 C-23.69 48.73, -24.12 48.15, -24.99 46.98 M-23.25 49.31 C-23.82 48.55, -24.39 47.79, -24.99 46.98 M-24.99 46.98 C-25.37 46.36, -25.74 45.74, -26.5 44.5 M-24.99 46.98 C-25.51 46.13, -26.02 45.28, -26.5 44.5 M-26.5 44.5 C-26.94 43.58, -27.38 42.67, -27.77 41.87 M-26.5 44.5 C-26.82 43.83, -27.14 43.16, -27.77 41.87 M-27.77 41.87 C-28.11 40.93, -28.45 40, -28.78 39.1 M-27.77 41.87 C-28.11 40.93, -28.45 39.99, -28.78 39.1 M-28.78 39.1 C-28.98 38.33, -29.18 37.57, -29.53 36.21 M-28.78 39.1 C-28.94 38.5, -29.09 37.91, -29.53 36.21 M-29.53 36.21 C-29.6 35.78, -29.68 35.35, -29.79 34.73 M-29.53 36.21 C-29.6 35.77, -29.68 35.33, -29.79 34.73 M-29.79 34.73 C-29.84 34.37, -29.88 34.02, -29.98 33.22 M-29.79 34.73 C-29.84 34.33, -29.89 33.92, -29.98 33.22 M-29.98 33.22 C-30.01 32.87, -30.04 32.53, -30.1 31.69 M-29.98 33.22 C-30.02 32.76, -30.05 32.3, -30.1 31.69 M-30.1 31.69 C-30.11 31.27, -30.12 30.84, -30.14 30.14 M-30.1 31.69 C-30.11 31.23, -30.12 30.76, -30.14 30.14 M-30.14 30.14 C-30.1 29.26, -30.05 28.38, -29.99 27.16 M-30.14 30.14 C-30.08 29.02, -30.03 27.91, -29.99 27.16 M-29.99 27.16 C-29.86 26.3, -29.74 25.45, -29.56 24.23 M-29.99 27.16 C-29.88 26.41, -29.77 25.66, -29.56 24.23 M-29.56 24.23 C-29.28 23.12, -29 22, -28.84 21.37 M-29.56 24.23 C-29.29 23.16, -29.02 22.08, -28.84 21.37 M-28.84 21.37 C-28.45 20.29, -28.06 19.2, -27.85 18.61 M-28.84 21.37 C-28.56 20.61, -28.29 19.85, -27.85 18.61 M-27.85 18.61 C-27.54 17.97, -27.24 17.33, -26.59 15.95 M-27.85 18.61 C-27.47 17.82, -27.1 17.02, -26.59 15.95 M-26.59 15.95 C-26.04 15.04, -25.5 14.13, -25.08 13.43 M-26.59 15.95 C-26.01 14.98, -25.42 14.01, -25.08 13.43 M-25.08 13.43 C-24.51 12.67, -23.95 11.91, -23.31 11.05 M-25.08 13.43 C-24.42 12.54, -23.76 11.65, -23.31 11.05 M-23.31 11.05 C-22.56 10.22, -21.81 9.39, -21.31 8.83 M-23.31 11.05 C-22.53 10.18, -21.74 9.31, -21.31 8.83 M-21.31 8.83 C-20.57 8.17, -19.84 7.5, -19.09 6.83 M-21.31 8.83 C-20.51 8.11, -19.7 7.38, -19.09 6.83 M-19.09 6.83 C-18.38 6.3, -17.67 5.77, -16.71 5.06 M-19.09 6.83 C-18.16 6.14, -17.23 5.45, -16.71 5.06 M-16.71 5.06 C-15.87 4.56, -15.04 4.07, -14.18 3.55 M-16.71 5.06 C-16.03 4.65, -15.34 4.25, -14.18 3.55 M-14.18 3.55 C-13.14 3.06, -12.11 2.57, -11.51 2.29 M-14.18 3.55 C-13.46 3.21, -12.75 2.88, -11.51 2.29 M-11.51 2.29 C-10.42 1.9, -9.32 1.51, -8.75 1.3 M-11.51 2.29 C-10.87 2.06, -10.23 1.83, -8.75 1.3 M-8.75 1.3 C-7.64 1.02, -6.53 0.74, -5.89 0.58 M-8.75 1.3 C-7.64 1.02, -6.54 0.75, -5.89 0.58 M-5.89 0.58 C-4.84 0.43, -3.78 0.27, -2.97 0.15 M-5.89 0.58 C-5.24 0.49, -4.58 0.39, -2.97 0.15 M-2.97 0.15 C-2.28 0.11, -1.59 0.08, 0 0 M-2.97 0.15 C-2.07 0.1, -1.16 0.06, 0 0 M0 0 C0 0, 0 0, 0 0 M0 0 C0 0, 0 0, 0 0 M0 0 C0 0, 0 0, 0 0 M0 0 C0 0, 0 0, 0 0" stroke="#000000" stroke-width="1" fill="none"></path></g></g><mask></mask><g stroke-linecap="round"><g transform="translate(147.1101386550179 177.1698196382331) rotate(0 -47.08952194161401 -10.534753231541686)" fill-rule="evenodd"><path d="M0 0 L0 0 L-2.3 2.89 L-4.7 5.68 L-7.2 8.37 L-9.79 10.97 L-12.47 13.46 L-15.24 15.85 L-18.1 18.14 L-21.03 20.31 L-24.05 22.38 L-27.14 24.33 L-30.3 26.17 L-33.53 27.9 L-36.83 29.5 L-40.19 30.99 L-43.61 32.35 L-47.09 33.58 L-50.57 32.35 L-53.99 30.99 L-57.35 29.5 L-60.65 27.9 L-63.88 26.17 L-67.04 24.33 L-70.13 22.38 L-73.14 20.31 L-76.08 18.14 L-78.94 15.85 L-81.71 13.46 L-84.39 10.97 L-86.98 8.37 L-89.48 5.68 L-91.88 2.89 L-94.18 0 L-94.18 -25.78 L-94.18 -25.78 L-94.09 -27.55 L-93.82 -29.26 L-93.39 -30.91 L-92.8 -32.52 L-92.06 -34.06 L-91.18 -35.55 L-90.16 -36.98 L-89.03 -38.36 L-87.77 -39.69 L-86.42 -40.95 L-84.96 -42.17 L-83.41 -43.32 L-81.79 -44.42 L-80.09 -45.47 L-78.33 -46.46 L-76.52 -47.39 L-72.76 -49.09 L-68.88 -50.56 L-64.96 -51.81 L-61.06 -52.83 L-57.26 -53.63 L-55.41 -53.94 L-53.62 -54.2 L-51.88 -54.4 L-50.2 -54.54 L-48.6 -54.63 L-47.09 -54.65 L-45.57 -54.63 L-43.98 -54.54 L-42.3 -54.4 L-40.56 -54.2 L-38.77 -53.94 L-36.92 -53.63 L-33.12 -52.83 L-29.22 -51.81 L-25.3 -50.56 L-21.42 -49.09 L-17.66 -47.39 L-15.85 -46.46 L-14.09 -45.47 L-12.39 -44.42 L-10.76 -43.32 L-9.22 -42.17 L-7.76 -40.95 L-6.4 -39.69 L-5.15 -38.36 L-4.02 -36.98 L-3 -35.55 L-2.12 -34.06 L-1.38 -32.52 L-0.79 -30.91 L-0.36 -29.26 L-0.09 -27.55 L0 -25.78 L0 0 L0 0" stroke="none" stroke-width="0" fill="#fff" fill-rule="evenodd"></path><path d="M0 0 C0 0, 0 0, 0 0 M0 0 C0 0, 0 0, 0 0 M0 0 C-0.92 1.15, -1.84 2.3, -2.3 2.89 M0 0 C-0.61 0.76, -1.22 1.52, -2.3 2.89 M-2.3 2.89 C-2.78 3.45, -3.27 4.01, -4.7 5.68 M-2.3 2.89 C-3.17 3.9, -4.04 4.91, -4.7 5.68 M-4.7 5.68 C-5.22 6.23, -5.73 6.79, -7.2 8.37 M-4.7 5.68 C-5.25 6.27, -5.81 6.87, -7.2 8.37 M-7.2 8.37 C-7.74 8.91, -8.28 9.45, -9.79 10.97 M-7.2 8.37 C-8.07 9.24, -8.94 10.11, -9.79 10.97 M-9.79 10.97 C-10.35 11.48, -10.9 12, -12.47 13.46 M-9.79 10.97 C-10.42 11.56, -11.06 12.15, -12.47 13.46 M-12.47 13.46 C-13.31 14.19, -14.15 14.91, -15.24 15.85 M-12.47 13.46 C-13.14 14.04, -13.81 14.61, -15.24 15.85 M-15.24 15.85 C-16.1 16.53, -16.95 17.22, -18.1 18.14 M-15.24 15.85 C-16.11 16.55, -16.98 17.24, -18.1 18.14 M-18.1 18.14 C-19.25 18.99, -20.39 19.84, -21.03 20.31 M-18.1 18.14 C-19.21 18.96, -20.33 19.79, -21.03 20.31 M-21.03 20.31 C-22.15 21.07, -23.26 21.83, -24.05 22.38 M-21.03 20.31 C-21.82 20.85, -22.61 21.39, -24.05 22.38 M-24.05 22.38 C-25.01 22.99, -25.97 23.6, -27.14 24.33 M-24.05 22.38 C-25.11 23.05, -26.18 23.73, -27.14 24.33 M-27.14 24.33 C-28.36 25.04, -29.58 25.75, -30.3 26.17 M-27.14 24.33 C-28.02 24.84, -28.9 25.36, -30.3 26.17 M-30.3 26.17 C-31.4 26.76, -32.51 27.35, -33.53 27.9 M-30.3 26.17 C-31.32 26.72, -32.34 27.26, -33.53 27.9 M-33.53 27.9 C-34.55 28.39, -35.57 28.89, -36.83 29.5 M-33.53 27.9 C-34.74 28.49, -35.95 29.08, -36.83 29.5 M-36.83 29.5 C-37.82 29.94, -38.8 30.37, -40.19 30.99 M-36.83 29.5 C-38.04 30.04, -39.25 30.57, -40.19 30.99 M-40.19 30.99 C-41.49 31.5, -42.78 32.02, -43.61 32.35 M-40.19 30.99 C-41.15 31.37, -42.11 31.75, -43.61 32.35 M-43.61 32.35 C-44.36 32.62, -45.12 32.88, -47.09 33.58 M-43.61 32.35 C-44.78 32.76, -45.96 33.18, -47.09 33.58 M-47.09 33.58 C-47.88 33.3, -48.66 33.02, -50.57 32.35 M-47.09 33.58 C-47.81 33.33, -48.53 33.07, -50.57 32.35 M-50.57 32.35 C-51.57 31.95, -52.58 31.55, -53.99 30.99 M-50.57 32.35 C-51.92 31.81, -53.27 31.27, -53.99 30.99 M-53.99 30.99 C-55.22 30.44, -56.45 29.9, -57.35 29.5 M-53.99 30.99 C-54.92 30.57, -55.86 30.16, -57.35 29.5 M-57.35 29.5 C-58.49 28.95, -59.64 28.39, -60.65 27.9 M-57.35 29.5 C-58.24 29.07, -59.12 28.64, -60.65 27.9 M-60.65 27.9 C-61.61 27.38, -62.57 26.87, -63.88 26.17 M-60.65 27.9 C-61.49 27.45, -62.33 27, -63.88 26.17 M-63.88 26.17 C-64.92 25.56, -65.97 24.96, -67.04 24.33 M-63.88 26.17 C-65.1 25.46, -66.32 24.75, -67.04 24.33 M-67.04 24.33 C-67.68 23.93, -68.33 23.52, -70.13 22.38 M-67.04 24.33 C-67.85 23.82, -68.67 23.3, -70.13 22.38 M-70.13 22.38 C-70.85 21.89, -71.57 21.39, -73.14 20.31 M-70.13 22.38 C-71.21 21.64, -72.29 20.9, -73.14 20.31 M-73.14 20.31 C-73.94 19.72, -74.74 19.13, -76.08 18.14 M-73.14 20.31 C-73.82 19.81, -74.5 19.31, -76.08 18.14 M-76.08 18.14 C-77.22 17.23, -78.35 16.32, -78.94 15.85 M-76.08 18.14 C-76.91 17.47, -77.74 16.81, -78.94 15.85 M-78.94 15.85 C-79.89 15.03, -80.85 14.2, -81.71 13.46 M-78.94 15.85 C-79.63 15.25, -80.32 14.66, -81.71 13.46 M-81.71 13.46 C-82.71 12.53, -83.71 11.6, -84.39 10.97 M-81.71 13.46 C-82.44 12.77, -83.18 12.09, -84.39 10.97 M-84.39 10.97 C-85.1 10.26, -85.8 9.55, -86.98 8.37 M-84.39 10.97 C-85.02 10.33, -85.66 9.7, -86.98 8.37 M-86.98 8.37 C-87.64 7.66, -88.3 6.95, -89.48 5.68 M-86.98 8.37 C-87.72 7.58, -88.45 6.78, -89.48 5.68 M-89.48 5.68 C-90.41 4.6, -91.34 3.52, -91.88 2.89 M-89.48 5.68 C-90.15 4.9, -90.82 4.12, -91.88 2.89 M-91.88 2.89 C-92.35 2.29, -92.83 1.7, -94.18 0 M-91.88 2.89 C-92.61 1.97, -93.35 1.04, -94.18 0 M-94.18 0 C-94.18 -5.22, -94.18 -10.44, -94.18 -25.78 M-94.18 0 C-94.18 -6.61, -94.18 -13.23, -94.18 -25.78 M-94.18 -25.78 C-94.18 -25.78, -94.18 -25.78, -94.18 -25.78 M-94.18 -25.78 C-94.18 -25.78, -94.18 -25.78, -94.18 -25.78 M-94.18 -25.78 C-94.15 -26.35, -94.12 -26.92, -94.09 -27.55 M-94.18 -25.78 C-94.16 -26.17, -94.14 -26.55, -94.09 -27.55 M-94.09 -27.55 C-93.99 -28.18, -93.89 -28.81, -93.82 -29.26 M-94.09 -27.55 C-94.03 -27.91, -93.98 -28.27, -93.82 -29.26 M-93.82 -29.26 C-93.68 -29.81, -93.53 -30.36, -93.39 -30.91 M-93.82 -29.26 C-93.72 -29.66, -93.61 -30.07, -93.39 -30.91 M-93.39 -30.91 C-93.19 -31.46, -92.99 -32.01, -92.8 -32.52 M-93.39 -30.91 C-93.23 -31.34, -93.08 -31.76, -92.8 -32.52 M-92.8 -32.52 C-92.57 -33, -92.34 -33.48, -92.06 -34.06 M-92.8 -32.52 C-92.54 -33.06, -92.27 -33.61, -92.06 -34.06 M-92.06 -34.06 C-91.82 -34.46, -91.59 -34.86, -91.18 -35.55 M-92.06 -34.06 C-91.8 -34.5, -91.54 -34.94, -91.18 -35.55 M-91.18 -35.55 C-90.86 -36.01, -90.53 -36.46, -90.16 -36.98 M-91.18 -35.55 C-90.96 -35.85, -90.75 -36.16, -90.16 -36.98 M-90.16 -36.98 C-89.75 -37.49, -89.34 -37.99, -89.03 -38.36 M-90.16 -36.98 C-89.8 -37.43, -89.43 -37.88, -89.03 -38.36 M-89.03 -38.36 C-88.66 -38.75, -88.29 -39.14, -87.77 -39.69 M-89.03 -38.36 C-88.76 -38.64, -88.5 -38.92, -87.77 -39.69 M-87.77 -39.69 C-87.39 -40.05, -87.01 -40.4, -86.42 -40.95 M-87.77 -39.69 C-87.3 -40.13, -86.82 -40.58, -86.42 -40.95 M-86.42 -40.95 C-85.87 -41.41, -85.32 -41.87, -84.96 -42.17 M-86.42 -40.95 C-85.85 -41.42, -85.29 -41.89, -84.96 -42.17 M-84.96 -42.17 C-84.64 -42.41, -84.31 -42.65, -83.41 -43.32 M-84.96 -42.17 C-84.54 -42.48, -84.12 -42.79, -83.41 -43.32 M-83.41 -43.32 C-82.79 -43.75, -82.17 -44.17, -81.79 -44.42 M-83.41 -43.32 C-82.9 -43.68, -82.38 -44.03, -81.79 -44.42 M-81.79 -44.42 C-81.16 -44.81, -80.53 -45.2, -80.09 -45.47 M-81.79 -44.42 C-81.16 -44.81, -80.54 -45.19, -80.09 -45.47 M-80.09 -45.47 C-79.54 -45.78, -78.98 -46.09, -78.33 -46.46 M-80.09 -45.47 C-79.7 -45.69, -79.31 -45.91, -78.33 -46.46 M-78.33 -46.46 C-77.75 -46.76, -77.16 -47.06, -76.52 -47.39 M-78.33 -46.46 C-77.94 -46.66, -77.55 -46.86, -76.52 -47.39 M-76.52 -47.39 C-75.53 -47.84, -74.54 -48.28, -72.76 -49.09 M-76.52 -47.39 C-75.57 -47.82, -74.63 -48.24, -72.76 -49.09 M-72.76 -49.09 C-71.74 -49.48, -70.72 -49.86, -68.88 -50.56 M-72.76 -49.09 C-71.32 -49.64, -69.88 -50.18, -68.88 -50.56 M-68.88 -50.56 C-67.69 -50.94, -66.5 -51.32, -64.96 -51.81 M-68.88 -50.56 C-67.32 -51.06, -65.76 -51.56, -64.96 -51.81 M-64.96 -51.81 C-63.71 -52.14, -62.46 -52.47, -61.06 -52.83 M-64.96 -51.81 C-63.83 -52.11, -62.7 -52.4, -61.06 -52.83 M-61.06 -52.83 C-59.55 -53.15, -58.04 -53.47, -57.26 -53.63 M-61.06 -52.83 C-59.56 -53.15, -58.05 -53.46, -57.26 -53.63 M-57.26 -53.63 C-56.77 -53.71, -56.28 -53.79, -55.41 -53.94 M-57.26 -53.63 C-56.87 -53.69, -56.49 -53.76, -55.41 -53.94 M-55.41 -53.94 C-54.89 -54.02, -54.36 -54.09, -53.62 -54.2 M-55.41 -53.94 C-55.02 -54, -54.64 -54.05, -53.62 -54.2 M-53.62 -54.2 C-52.93 -54.28, -52.24 -54.36, -51.88 -54.4 M-53.62 -54.2 C-53.17 -54.25, -52.72 -54.3, -51.88 -54.4 M-51.88 -54.4 C-51.5 -54.43, -51.13 -54.46, -50.2 -54.54 M-51.88 -54.4 C-51.26 -54.45, -50.64 -54.5, -50.2 -54.54 M-50.2 -54.54 C-49.79 -54.56, -49.38 -54.58, -48.6 -54.63 M-50.2 -54.54 C-49.64 -54.57, -49.08 -54.6, -48.6 -54.63 M-48.6 -54.63 C-48.29 -54.63, -47.97 -54.64, -47.09 -54.65 M-48.6 -54.63 C-48.29 -54.63, -47.98 -54.64, -47.09 -54.65 M-47.09 -54.65 C-46.61 -54.64, -46.12 -54.64, -45.57 -54.63 M-47.09 -54.65 C-46.64 -54.65, -46.18 -54.64, -45.57 -54.63 M-45.57 -54.63 C-45.01 -54.6, -44.44 -54.56, -43.98 -54.54 M-45.57 -54.63 C-45.24 -54.61, -44.9 -54.59, -43.98 -54.54 M-43.98 -54.54 C-43.48 -54.5, -42.98 -54.46, -42.3 -54.4 M-43.98 -54.54 C-43.48 -54.5, -42.99 -54.46, -42.3 -54.4 M-42.3 -54.4 C-41.69 -54.33, -41.08 -54.26, -40.56 -54.2 M-42.3 -54.4 C-41.75 -54.33, -41.19 -54.27, -40.56 -54.2 M-40.56 -54.2 C-40.14 -54.14, -39.72 -54.08, -38.77 -53.94 M-40.56 -54.2 C-40.16 -54.14, -39.75 -54.08, -38.77 -53.94 M-38.77 -53.94 C-38.07 -53.82, -37.38 -53.71, -36.92 -53.63 M-38.77 -53.94 C-38.04 -53.82, -37.32 -53.7, -36.92 -53.63 M-36.92 -53.63 C-36.1 -53.46, -35.29 -53.29, -33.12 -52.83 M-36.92 -53.63 C-35.53 -53.34, -34.15 -53.05, -33.12 -52.83 M-33.12 -52.83 C-31.58 -52.43, -30.05 -52.03, -29.22 -51.81 M-33.12 -52.83 C-31.81 -52.49, -30.51 -52.15, -29.22 -51.81 M-29.22 -51.81 C-28.21 -51.49, -27.2 -51.17, -25.3 -50.56 M-29.22 -51.81 C-28.15 -51.47, -27.07 -51.13, -25.3 -50.56 M-25.3 -50.56 C-24.32 -50.19, -23.35 -49.82, -21.42 -49.09 M-25.3 -50.56 C-23.77 -49.98, -22.24 -49.4, -21.42 -49.09 M-21.42 -49.09 C-20.61 -48.72, -19.8 -48.35, -17.66 -47.39 M-21.42 -49.09 C-20.28 -48.57, -19.13 -48.05, -17.66 -47.39 M-17.66 -47.39 C-16.96 -47.03, -16.26 -46.67, -15.85 -46.46 M-17.66 -47.39 C-17.2 -47.15, -16.73 -46.91, -15.85 -46.46 M-15.85 -46.46 C-15.35 -46.18, -14.85 -45.9, -14.09 -45.47 M-15.85 -46.46 C-15.32 -46.16, -14.79 -45.86, -14.09 -45.47 M-14.09 -45.47 C-13.55 -45.14, -13.01 -44.81, -12.39 -44.42 M-14.09 -45.47 C-13.51 -45.11, -12.93 -44.76, -12.39 -44.42 M-12.39 -44.42 C-11.93 -44.11, -11.47 -43.8, -10.76 -43.32 M-12.39 -44.42 C-11.92 -44.11, -11.45 -43.79, -10.76 -43.32 M-10.76 -43.32 C-10.22 -42.91, -9.67 -42.5, -9.22 -42.17 M-10.76 -43.32 C-10.28 -42.96, -9.8 -42.6, -9.22 -42.17 M-9.22 -42.17 C-8.67 -41.71, -8.11 -41.25, -7.76 -40.95 M-9.22 -42.17 C-8.65 -41.69, -8.08 -41.22, -7.76 -40.95 M-7.76 -40.95 C-7.37 -40.59, -6.98 -40.23, -6.4 -39.69 M-7.76 -40.95 C-7.26 -40.48, -6.75 -40.01, -6.4 -39.69 M-6.4 -39.69 C-5.94 -39.19, -5.47 -38.7, -5.15 -38.36 M-6.4 -39.69 C-6.01 -39.27, -5.62 -38.85, -5.15 -38.36 M-5.15 -38.36 C-4.81 -37.95, -4.48 -37.54, -4.02 -36.98 M-5.15 -38.36 C-4.75 -37.87, -4.34 -37.38, -4.02 -36.98 M-4.02 -36.98 C-3.62 -36.42, -3.22 -35.86, -3 -35.55 M-4.02 -36.98 C-3.76 -36.62, -3.5 -36.25, -3 -35.55 M-3 -35.55 C-2.78 -35.18, -2.56 -34.81, -2.12 -34.06 M-3 -35.55 C-2.78 -35.18, -2.56 -34.81, -2.12 -34.06 M-2.12 -34.06 C-1.96 -33.73, -1.81 -33.4, -1.38 -32.52 M-2.12 -34.06 C-1.97 -33.75, -1.82 -33.43, -1.38 -32.52 M-1.38 -32.52 C-1.15 -31.89, -0.92 -31.26, -0.79 -30.91 M-1.38 -32.52 C-1.22 -32.09, -1.06 -31.66, -0.79 -30.91 M-0.79 -30.91 C-0.64 -30.35, -0.5 -29.79, -0.36 -29.26 M-0.79 -30.91 C-0.69 -30.54, -0.59 -30.16, -0.36 -29.26 M-0.36 -29.26 C-0.29 -28.81, -0.22 -28.36, -0.09 -27.55 M-0.36 -29.26 C-0.26 -28.63, -0.16 -28, -0.09 -27.55 M-0.09 -27.55 C-0.06 -27, -0.03 -26.45, 0 -25.78 M-0.09 -27.55 C-0.07 -27.19, -0.05 -26.84, 0 -25.78 M0 -25.78 C0 -15.89, 0 -6, 0 0 M0 -25.78 C0 -16.86, 0 -7.94, 0 0 M0 0 C0 0, 0 0, 0 0 M0 0 C0 0, 0 0, 0 0 M0 0 C0 0, 0 0, 0 0 M0 0 C0 0, 0 0, 0 0" stroke="#000000" stroke-width="1" fill="none"></path></g></g><mask></mask><g transform="translate(14.838006019592541 236.78816195329) rotate(0 84.5 21)"><text x="0" y="0" font-family="Helvetica, Segoe UI Emoji" font-size="35.99999999999998px" fill="#000000" text-anchor="start" style="white-space: pre;" direction="ltr" dominant-baseline="text-before-edge">Cloud IAM</text></g></svg>