<svg version="1.1" xmlns="http://www.w3.org/2000/svg" viewBox="0 0 172 84" width="172" height="84">
  <!-- svg-source:excalidraw -->
  
  <defs>
    
    
  </defs>
  <g stroke-linecap="round" transform="translate(6 6) rotate(0 80 36)"><path d="M18 0 C48.21 0, 78.43 0, 142 0 C154 0, 160 6, 160 18 C160 27.38, 160 36.75, 160 54 C160 66, 154 72, 142 72 C113.78 72, 85.55 72, 18 72 C6 72, 0 66, 0 54 C0 43.28, 0 32.57, 0 18 C0 6, 6 0, 18 0" stroke="none" stroke-width="0" fill="#FFF"></path><path d="M18 0 C47.14 0, 76.29 0, 142 0 M18 0 C51.93 0, 85.86 0, 142 0 M142 0 C154 0, 160 6, 160 18 M142 0 C154 0, 160 6, 160 18 M160 18 C160 30.99, 160 43.98, 160 54 M160 18 C160 29.28, 160 40.57, 160 54 M160 54 C160 66, 154 72, 142 72 M160 54 C160 66, 154 72, 142 72 M142 72 C115.28 72, 88.57 72, 18 72 M142 72 C112.33 72, 82.66 72, 18 72 M18 72 C6 72, 0 66, 0 54 M18 72 C6 72, 0 66, 0 54 M0 54 C0 39.83, 0 25.67, 0 18 M0 54 C0 45.77, 0 37.54, 0 18 M0 18 C0 6, 6 0, 18 0 M0 18 C0 6, 6 0, 18 0" stroke="#4285f4" stroke-width="2" fill="none"></path></g><g transform="translate(71 21) rotate(0 32 21)"><text x="0" y="0" font-family="Helvetica, Segoe UI Emoji" font-size="12px" fill="#000000" text-anchor="start" style="white-space: pre;" direction="ltr" dominant-baseline="text-before-edge">Cloud</text><text x="0" y="14" font-family="Helvetica, Segoe UI Emoji" font-size="12px" fill="#000000" text-anchor="start" style="white-space: pre;" direction="ltr" dominant-baseline="text-before-edge">Deployment</text><text x="0" y="28" font-family="Helvetica, Segoe UI Emoji" font-size="12px" fill="#000000" text-anchor="start" style="white-space: pre;" direction="ltr" dominant-baseline="text-before-edge">Manager</text></g><g stroke-linecap="round"><g transform="translate(35.489474296569824 48.69473838806152) rotate(0 2.9210524559020996 2.9210519790649414)" fill-rule="evenodd"><path d="M0 0 L5.84 0 L5.84 5.84 L0 5.84 L0 0" stroke="none" stroke-width="0" fill="#4285f4" fill-rule="evenodd"></path><path d="M0 0 C2 0, 4.01 0, 5.84 0 M0 0 C2.13 0, 4.26 0, 5.84 0 M5.84 0 C5.84 1.17, 5.84 2.34, 5.84 5.84 M5.84 0 C5.84 2.28, 5.84 4.55, 5.84 5.84 M5.84 5.84 C4.31 5.84, 2.78 5.84, 0 5.84 M5.84 5.84 C4.52 5.84, 3.19 5.84, 0 5.84 M0 5.84 C0 4.58, 0 3.32, 0 0 M0 5.84 C0 4.44, 0 3.05, 0 0 M0 0 C0 0, 0 0, 0 0 M0 0 C0 0, 0 0, 0 0" stroke="#00000000" stroke-width="1" fill="none"></path></g></g><mask></mask><g stroke-linecap="round"><g transform="translate(53.021053314208984 29.778947591781616) rotate(0 -14.610526621341705 9.46052634716034)" fill-rule="evenodd"><path d="M0 0 L0 0 L-0.03 -0.14 L-0.07 -0.27 L-0.12 -0.4 L-0.18 -0.52 L-0.25 -0.64 L-0.33 -0.75 L-0.41 -0.86 L-0.5 -0.96 L-0.6 -1.05 L-0.71 -1.14 L-0.82 -1.21 L-0.94 -1.28 L-1.06 -1.34 L-1.19 -1.39 L-1.33 -1.43 L-1.46 -1.46 L-27.76 -1.46 L-27.76 -1.46 L-27.9 -1.43 L-28.03 -1.39 L-28.16 -1.34 L-28.28 -1.28 L-28.4 -1.21 L-28.51 -1.14 L-28.62 -1.05 L-28.72 -0.96 L-28.81 -0.86 L-28.89 -0.76 L-28.97 -0.64 L-29.04 -0.52 L-29.1 -0.4 L-29.15 -0.27 L-29.19 -0.14 L-29.22 0 L-29.22 18.92 L-29.22 18.92 L-29.19 19.06 L-29.16 19.2 L-29.11 19.33 L-29.05 19.45 L-28.98 19.57 L-28.91 19.68 L-28.82 19.79 L-28.73 19.89 L-28.63 19.98 L-28.52 20.07 L-28.41 20.15 L-28.29 20.21 L-28.16 20.27 L-28.03 20.32 L-27.9 20.36 L-27.76 20.38 L-1.46 20.38 L-1.46 20.38 L-1.32 20.36 L-1.19 20.32 L-1.06 20.27 L-0.93 20.21 L-0.81 20.15 L-0.7 20.07 L-0.59 19.99 L-0.49 19.89 L-0.4 19.79 L-0.32 19.69 L-0.24 19.57 L-0.17 19.45 L-0.11 19.33 L-0.07 19.2 L-0.03 19.06 L0 18.92 L0 0 L0 0" stroke="none" stroke-width="0" fill="#669df6" fill-rule="evenodd"></path><path d="M0 0 C0 0, 0 0, 0 0 M0 0 C0 0, 0 0, 0 0 M0 0 C-0.01 -0.04, -0.02 -0.08, -0.03 -0.14 M0 0 C-0.01 -0.04, -0.02 -0.08, -0.03 -0.14 M-0.03 -0.14 C-0.05 -0.19, -0.06 -0.24, -0.07 -0.27 M-0.03 -0.14 C-0.04 -0.17, -0.05 -0.19, -0.07 -0.27 M-0.07 -0.27 C-0.08 -0.3, -0.09 -0.33, -0.12 -0.4 M-0.07 -0.27 C-0.09 -0.32, -0.11 -0.37, -0.12 -0.4 M-0.12 -0.4 C-0.13 -0.43, -0.15 -0.45, -0.18 -0.52 M-0.12 -0.4 C-0.15 -0.45, -0.17 -0.5, -0.18 -0.52 M-0.18 -0.52 C-0.2 -0.55, -0.21 -0.58, -0.25 -0.64 M-0.18 -0.52 C-0.2 -0.56, -0.22 -0.59, -0.25 -0.64 M-0.25 -0.64 C-0.28 -0.68, -0.31 -0.73, -0.33 -0.75 M-0.25 -0.64 C-0.27 -0.67, -0.29 -0.7, -0.33 -0.75 M-0.33 -0.75 C-0.34 -0.78, -0.36 -0.8, -0.41 -0.86 M-0.33 -0.75 C-0.35 -0.79, -0.38 -0.82, -0.41 -0.86 M-0.41 -0.86 C-0.44 -0.89, -0.47 -0.93, -0.5 -0.96 M-0.41 -0.86 C-0.44 -0.89, -0.48 -0.93, -0.5 -0.96 M-0.5 -0.96 C-0.54 -0.99, -0.58 -1.03, -0.6 -1.05 M-0.5 -0.96 C-0.52 -0.98, -0.55 -1, -0.6 -1.05 M-0.6 -1.05 C-0.63 -1.07, -0.66 -1.1, -0.71 -1.14 M-0.6 -1.05 C-0.63 -1.07, -0.65 -1.09, -0.71 -1.14 M-0.71 -1.14 C-0.74 -1.16, -0.78 -1.19, -0.82 -1.21 M-0.71 -1.14 C-0.75 -1.17, -0.8 -1.2, -0.82 -1.21 M-0.82 -1.21 C-0.86 -1.24, -0.91 -1.26, -0.94 -1.28 M-0.82 -1.21 C-0.84 -1.23, -0.87 -1.24, -0.94 -1.28 M-0.94 -1.28 C-0.98 -1.3, -1.01 -1.32, -1.06 -1.34 M-0.94 -1.28 C-0.99 -1.3, -1.03 -1.33, -1.06 -1.34 M-1.06 -1.34 C-1.09 -1.35, -1.12 -1.36, -1.19 -1.39 M-1.06 -1.34 C-1.09 -1.35, -1.12 -1.36, -1.19 -1.39 M-1.19 -1.39 C-1.24 -1.41, -1.29 -1.42, -1.33 -1.43 M-1.19 -1.39 C-1.23 -1.4, -1.28 -1.42, -1.33 -1.43 M-1.33 -1.43 C-1.36 -1.44, -1.39 -1.45, -1.46 -1.46 M-1.33 -1.43 C-1.37 -1.44, -1.42 -1.45, -1.46 -1.46 M-1.46 -1.46 C-9.57 -1.46, -17.67 -1.46, -27.76 -1.46 M-1.46 -1.46 C-6.79 -1.46, -12.12 -1.46, -27.76 -1.46 M-27.76 -1.46 C-27.76 -1.46, -27.76 -1.46, -27.76 -1.46 M-27.76 -1.46 C-27.76 -1.46, -27.76 -1.46, -27.76 -1.46 M-27.76 -1.46 C-27.79 -1.46, -27.82 -1.45, -27.9 -1.43 M-27.76 -1.46 C-27.79 -1.46, -27.82 -1.45, -27.9 -1.43 M-27.9 -1.43 C-27.95 -1.42, -28 -1.4, -28.03 -1.39 M-27.9 -1.43 C-27.94 -1.42, -27.99 -1.4, -28.03 -1.39 M-28.03 -1.39 C-28.06 -1.38, -28.08 -1.37, -28.16 -1.34 M-28.03 -1.39 C-28.06 -1.38, -28.1 -1.36, -28.16 -1.34 M-28.16 -1.34 C-28.19 -1.33, -28.22 -1.31, -28.28 -1.28 M-28.16 -1.34 C-28.2 -1.32, -28.25 -1.3, -28.28 -1.28 M-28.28 -1.28 C-28.31 -1.27, -28.33 -1.25, -28.4 -1.21 M-28.28 -1.28 C-28.31 -1.27, -28.33 -1.25, -28.4 -1.21 M-28.4 -1.21 C-28.43 -1.19, -28.46 -1.17, -28.51 -1.14 M-28.4 -1.21 C-28.44 -1.19, -28.48 -1.16, -28.51 -1.14 M-28.51 -1.14 C-28.53 -1.12, -28.56 -1.1, -28.62 -1.05 M-28.51 -1.14 C-28.53 -1.12, -28.56 -1.1, -28.62 -1.05 M-28.62 -1.05 C-28.64 -1.03, -28.67 -1.01, -28.72 -0.96 M-28.62 -1.05 C-28.66 -1.02, -28.7 -0.98, -28.72 -0.96 M-28.72 -0.96 C-28.74 -0.94, -28.76 -0.91, -28.81 -0.86 M-28.72 -0.96 C-28.75 -0.92, -28.79 -0.88, -28.81 -0.86 M-28.81 -0.86 C-28.84 -0.82, -28.88 -0.78, -28.89 -0.76 M-28.81 -0.86 C-28.83 -0.83, -28.86 -0.8, -28.89 -0.76 M-28.89 -0.76 C-28.92 -0.72, -28.95 -0.68, -28.97 -0.64 M-28.89 -0.76 C-28.92 -0.71, -28.95 -0.67, -28.97 -0.64 M-28.97 -0.64 C-28.99 -0.6, -29.02 -0.56, -29.04 -0.52 M-28.97 -0.64 C-28.99 -0.62, -29 -0.59, -29.04 -0.52 M-29.04 -0.52 C-29.05 -0.49, -29.07 -0.46, -29.1 -0.4 M-29.04 -0.52 C-29.06 -0.48, -29.08 -0.44, -29.1 -0.4 M-29.1 -0.4 C-29.12 -0.35, -29.14 -0.3, -29.15 -0.27 M-29.1 -0.4 C-29.11 -0.37, -29.12 -0.35, -29.15 -0.27 M-29.15 -0.27 C-29.16 -0.24, -29.17 -0.2, -29.19 -0.14 M-29.15 -0.27 C-29.16 -0.24, -29.17 -0.2, -29.19 -0.14 M-29.19 -0.14 C-29.2 -0.11, -29.2 -0.08, -29.22 0 M-29.19 -0.14 C-29.2 -0.11, -29.2 -0.07, -29.22 0 M-29.22 0 C-29.22 4.39, -29.22 8.79, -29.22 18.92 M-29.22 0 C-29.22 6.85, -29.22 13.7, -29.22 18.92 M-29.22 18.92 C-29.22 18.92, -29.22 18.92, -29.22 18.92 M-29.22 18.92 C-29.22 18.92, -29.22 18.92, -29.22 18.92 M-29.22 18.92 C-29.21 18.96, -29.21 19, -29.19 19.06 M-29.22 18.92 C-29.21 18.95, -29.21 18.98, -29.19 19.06 M-29.19 19.06 C-29.18 19.09, -29.18 19.13, -29.16 19.2 M-29.19 19.06 C-29.18 19.11, -29.17 19.16, -29.16 19.2 M-29.16 19.2 C-29.14 19.24, -29.12 19.29, -29.11 19.33 M-29.16 19.2 C-29.15 19.22, -29.14 19.25, -29.11 19.33 M-29.11 19.33 C-29.09 19.37, -29.07 19.41, -29.05 19.45 M-29.11 19.33 C-29.09 19.37, -29.06 19.42, -29.05 19.45 M-29.05 19.45 C-29.03 19.48, -29.01 19.52, -28.98 19.57 M-29.05 19.45 C-29.03 19.49, -29 19.53, -28.98 19.57 M-28.98 19.57 C-28.95 19.61, -28.92 19.66, -28.91 19.68 M-28.98 19.57 C-28.95 19.61, -28.92 19.66, -28.91 19.68 M-28.91 19.68 C-28.89 19.71, -28.86 19.74, -28.82 19.79 M-28.91 19.68 C-28.89 19.71, -28.86 19.74, -28.82 19.79 M-28.82 19.79 C-28.8 19.81, -28.78 19.84, -28.73 19.89 M-28.82 19.79 C-28.8 19.82, -28.77 19.85, -28.73 19.89 M-28.73 19.89 C-28.69 19.93, -28.65 19.96, -28.63 19.98 M-28.73 19.89 C-28.7 19.92, -28.68 19.94, -28.63 19.98 M-28.63 19.98 C-28.61 20, -28.58 20.02, -28.52 20.07 M-28.63 19.98 C-28.59 20.01, -28.55 20.04, -28.52 20.07 M-28.52 20.07 C-28.48 20.1, -28.44 20.13, -28.41 20.15 M-28.52 20.07 C-28.49 20.09, -28.46 20.11, -28.41 20.15 M-28.41 20.15 C-28.38 20.16, -28.35 20.18, -28.29 20.21 M-28.41 20.15 C-28.37 20.17, -28.34 20.19, -28.29 20.21 M-28.29 20.21 C-28.24 20.24, -28.19 20.26, -28.16 20.27 M-28.29 20.21 C-28.26 20.23, -28.23 20.24, -28.16 20.27 M-28.16 20.27 C-28.14 20.28, -28.11 20.29, -28.03 20.32 M-28.16 20.27 C-28.11 20.29, -28.07 20.31, -28.03 20.32 M-28.03 20.32 C-27.98 20.33, -27.93 20.35, -27.9 20.36 M-28.03 20.32 C-27.98 20.33, -27.93 20.35, -27.9 20.36 M-27.9 20.36 C-27.85 20.37, -27.81 20.37, -27.76 20.38 M-27.9 20.36 C-27.87 20.36, -27.83 20.37, -27.76 20.38 M-27.76 20.38 C-21.05 20.38, -14.34 20.38, -1.46 20.38 M-27.76 20.38 C-20.07 20.38, -12.37 20.38, -1.46 20.38 M-1.46 20.38 C-1.46 20.38, -1.46 20.38, -1.46 20.38 M-1.46 20.38 C-1.46 20.38, -1.46 20.38, -1.46 20.38 M-1.46 20.38 C-1.43 20.38, -1.4 20.37, -1.32 20.36 M-1.46 20.38 C-1.43 20.38, -1.39 20.37, -1.32 20.36 M-1.32 20.36 C-1.3 20.35, -1.27 20.34, -1.19 20.32 M-1.32 20.36 C-1.29 20.35, -1.27 20.34, -1.19 20.32 M-1.19 20.32 C-1.14 20.3, -1.09 20.28, -1.06 20.27 M-1.19 20.32 C-1.14 20.3, -1.09 20.28, -1.06 20.27 M-1.06 20.27 C-1.02 20.26, -0.99 20.24, -0.93 20.21 M-1.06 20.27 C-1.01 20.25, -0.96 20.23, -0.93 20.21 M-0.93 20.21 C-0.89 20.19, -0.85 20.17, -0.81 20.15 M-0.93 20.21 C-0.91 20.2, -0.89 20.19, -0.81 20.15 M-0.81 20.15 C-0.78 20.12, -0.75 20.1, -0.7 20.07 M-0.81 20.15 C-0.77 20.12, -0.73 20.09, -0.7 20.07 M-0.7 20.07 C-0.67 20.05, -0.65 20.03, -0.59 19.99 M-0.7 20.07 C-0.67 20.05, -0.64 20.02, -0.59 19.99 M-0.59 19.99 C-0.56 19.95, -0.52 19.92, -0.49 19.89 M-0.59 19.99 C-0.55 19.95, -0.51 19.91, -0.49 19.89 M-0.49 19.89 C-0.46 19.86, -0.43 19.83, -0.4 19.79 M-0.49 19.89 C-0.47 19.87, -0.45 19.84, -0.4 19.79 M-0.4 19.79 C-0.37 19.75, -0.34 19.71, -0.32 19.69 M-0.4 19.79 C-0.37 19.75, -0.34 19.71, -0.32 19.69 M-0.32 19.69 C-0.29 19.66, -0.27 19.63, -0.24 19.57 M-0.32 19.69 C-0.29 19.65, -0.26 19.61, -0.24 19.57 M-0.24 19.57 C-0.22 19.54, -0.21 19.51, -0.17 19.45 M-0.24 19.57 C-0.22 19.53, -0.2 19.5, -0.17 19.45 M-0.17 19.45 C-0.15 19.41, -0.13 19.37, -0.11 19.33 M-0.17 19.45 C-0.16 19.42, -0.14 19.39, -0.11 19.33 M-0.11 19.33 C-0.1 19.29, -0.09 19.25, -0.07 19.2 M-0.11 19.33 C-0.1 19.28, -0.08 19.24, -0.07 19.2 M-0.07 19.2 C-0.05 19.15, -0.04 19.1, -0.03 19.06 M-0.07 19.2 C-0.05 19.16, -0.04 19.12, -0.03 19.06 M-0.03 19.06 C-0.02 19.02, -0.01 18.97, 0 18.92 M-0.03 19.06 C-0.02 19.01, -0.01 18.97, 0 18.92 M0 18.92 C0 15.02, 0 11.12, 0 0 M0 18.92 C0 11.97, 0 5.02, 0 0 M0 0 C0 0, 0 0, 0 0 M0 0 C0 0, 0 0, 0 0 M0 0 C0 0, 0 0, 0 0 M0 0 C0 0, 0 0, 0 0" stroke="transparent" stroke-width="1" fill="none"></path></g></g><mask></mask><g stroke-linecap="round"><g transform="translate(50.10000228881836 47.23684310913086) rotate(0 -11.686843156814575 -8.036842584609985)" fill-rule="evenodd"><path d="M0 0 L-23.37 0 L-23.37 -16.07 L0 -16.07 L0 0 L0 0" stroke="none" stroke-width="0" fill="#669df6" fill-rule="evenodd"></path><path d="M0 0 C-7.51 0, -15.02 0, -23.37 0 M0 0 C-6.23 0, -12.46 0, -23.37 0 M-23.37 0 C-23.37 -4.78, -23.37 -9.56, -23.37 -16.07 M-23.37 0 C-23.37 -3.56, -23.37 -7.11, -23.37 -16.07 M-23.37 -16.07 C-14.77 -16.07, -6.17 -16.07, 0 -16.07 M-23.37 -16.07 C-17.7 -16.07, -12.03 -16.07, 0 -16.07 M0 -16.07 C0 -11.22, 0 -6.38, 0 0 M0 -16.07 C0 -10.31, 0 -4.54, 0 0 M0 0 C0 0, 0 0, 0 0 M0 0 C0 0, 0 0, 0 0 M0 0 C0 0, 0 0, 0 0 M0 0 C0 0, 0 0, 0 0" stroke="transparent" stroke-width="1" fill="none"></path></g></g><mask></mask><g stroke-linecap="round"><g transform="translate(32.568421363830566 56) rotate(0 5.844736576080322 -0.7315788269042969)" fill-rule="evenodd"><path d="M0 0 L0 0 L0.01 -0.18 L0.02 -0.35 L0.05 -0.51 L0.09 -0.65 L0.14 -0.79 L0.2 -0.91 L0.27 -1.01 L0.35 -1.11 L0.45 -1.19 L0.56 -1.27 L0.68 -1.33 L0.81 -1.38 L0.95 -1.41 L1.11 -1.44 L1.28 -1.46 L1.46 -1.46 L10.23 -1.46 L10.23 -1.46 L10.41 -1.46 L10.58 -1.44 L10.74 -1.41 L10.88 -1.38 L11.01 -1.33 L11.13 -1.27 L11.24 -1.19 L11.34 -1.11 L11.42 -1.01 L11.49 -0.91 L11.55 -0.79 L11.6 -0.65 L11.64 -0.51 L11.67 -0.35 L11.68 -0.18 L11.69 0 L0 0 L0 0" stroke="none" stroke-width="0" fill="#669df6" fill-rule="evenodd"></path><path d="M0 0 C0 0, 0 0, 0 0 M0 0 C0 0, 0 0, 0 0 M0 0 C0 -0.07, 0 -0.13, 0.01 -0.18 M0 0 C0 -0.07, 0 -0.13, 0.01 -0.18 M0.01 -0.18 C0.01 -0.23, 0.02 -0.29, 0.02 -0.35 M0.01 -0.18 C0.01 -0.22, 0.01 -0.26, 0.02 -0.35 M0.02 -0.35 C0.03 -0.39, 0.04 -0.43, 0.05 -0.51 M0.02 -0.35 C0.03 -0.39, 0.03 -0.42, 0.05 -0.51 M0.05 -0.51 C0.06 -0.56, 0.08 -0.61, 0.09 -0.65 M0.05 -0.51 C0.06 -0.56, 0.07 -0.6, 0.09 -0.65 M0.09 -0.65 C0.1 -0.7, 0.12 -0.74, 0.14 -0.79 M0.09 -0.65 C0.1 -0.68, 0.11 -0.71, 0.14 -0.79 M0.14 -0.79 C0.16 -0.83, 0.18 -0.87, 0.2 -0.91 M0.14 -0.79 C0.15 -0.82, 0.17 -0.85, 0.2 -0.91 M0.2 -0.91 C0.22 -0.94, 0.25 -0.98, 0.27 -1.01 M0.2 -0.91 C0.21 -0.93, 0.23 -0.96, 0.27 -1.01 M0.27 -1.01 C0.3 -1.05, 0.33 -1.08, 0.35 -1.11 M0.27 -1.01 C0.29 -1.04, 0.32 -1.07, 0.35 -1.11 M0.35 -1.11 C0.39 -1.14, 0.42 -1.17, 0.45 -1.19 M0.35 -1.11 C0.38 -1.14, 0.42 -1.17, 0.45 -1.19 M0.45 -1.19 C0.49 -1.22, 0.53 -1.25, 0.56 -1.27 M0.45 -1.19 C0.48 -1.21, 0.5 -1.23, 0.56 -1.27 M0.56 -1.27 C0.6 -1.29, 0.64 -1.31, 0.68 -1.33 M0.56 -1.27 C0.6 -1.29, 0.65 -1.32, 0.68 -1.33 M0.68 -1.33 C0.71 -1.34, 0.74 -1.35, 0.81 -1.38 M0.68 -1.33 C0.71 -1.34, 0.75 -1.35, 0.81 -1.38 M0.81 -1.38 C0.85 -1.39, 0.89 -1.4, 0.95 -1.41 M0.81 -1.38 C0.84 -1.39, 0.88 -1.39, 0.95 -1.41 M0.95 -1.41 C1.01 -1.43, 1.07 -1.44, 1.11 -1.44 M0.95 -1.41 C1.01 -1.42, 1.07 -1.43, 1.11 -1.44 M1.11 -1.44 C1.17 -1.45, 1.23 -1.45, 1.28 -1.46 M1.11 -1.44 C1.16 -1.45, 1.21 -1.45, 1.28 -1.46 M1.28 -1.46 C1.33 -1.46, 1.37 -1.46, 1.46 -1.46 M1.28 -1.46 C1.35 -1.46, 1.42 -1.46, 1.46 -1.46 M1.46 -1.46 C4.62 -1.46, 7.78 -1.46, 10.23 -1.46 M1.46 -1.46 C4.4 -1.46, 7.33 -1.46, 10.23 -1.46 M10.23 -1.46 C10.23 -1.46, 10.23 -1.46, 10.23 -1.46 M10.23 -1.46 C10.23 -1.46, 10.23 -1.46, 10.23 -1.46 M10.23 -1.46 C10.26 -1.46, 10.3 -1.46, 10.41 -1.46 M10.23 -1.46 C10.26 -1.46, 10.3 -1.46, 10.41 -1.46 M10.41 -1.46 C10.47 -1.45, 10.54 -1.45, 10.58 -1.44 M10.41 -1.46 C10.45 -1.45, 10.49 -1.45, 10.58 -1.44 M10.58 -1.44 C10.62 -1.43, 10.66 -1.43, 10.74 -1.41 M10.58 -1.44 C10.62 -1.43, 10.66 -1.43, 10.74 -1.41 M10.74 -1.41 C10.79 -1.4, 10.85 -1.38, 10.88 -1.38 M10.74 -1.41 C10.79 -1.4, 10.85 -1.39, 10.88 -1.38 M10.88 -1.38 C10.91 -1.36, 10.94 -1.35, 11.01 -1.33 M10.88 -1.38 C10.92 -1.36, 10.96 -1.35, 11.01 -1.33 M11.01 -1.33 C11.05 -1.31, 11.08 -1.29, 11.13 -1.27 M11.01 -1.33 C11.04 -1.31, 11.06 -1.3, 11.13 -1.27 M11.13 -1.27 C11.16 -1.25, 11.2 -1.23, 11.24 -1.19 M11.13 -1.27 C11.16 -1.25, 11.18 -1.24, 11.24 -1.19 M11.24 -1.19 C11.27 -1.17, 11.3 -1.14, 11.34 -1.11 M11.24 -1.19 C11.28 -1.16, 11.32 -1.13, 11.34 -1.11 M11.34 -1.11 C11.36 -1.08, 11.39 -1.05, 11.42 -1.01 M11.34 -1.11 C11.37 -1.07, 11.4 -1.04, 11.42 -1.01 M11.42 -1.01 C11.44 -0.99, 11.45 -0.97, 11.49 -0.91 M11.42 -1.01 C11.45 -0.97, 11.47 -0.93, 11.49 -0.91 M11.49 -0.91 C11.52 -0.86, 11.54 -0.82, 11.55 -0.79 M11.49 -0.91 C11.51 -0.87, 11.53 -0.83, 11.55 -0.79 M11.55 -0.79 C11.57 -0.74, 11.59 -0.7, 11.6 -0.65 M11.55 -0.79 C11.57 -0.75, 11.58 -0.71, 11.6 -0.65 M11.6 -0.65 C11.62 -0.6, 11.63 -0.54, 11.64 -0.51 M11.6 -0.65 C11.62 -0.6, 11.63 -0.54, 11.64 -0.51 M11.64 -0.51 C11.65 -0.47, 11.66 -0.42, 11.67 -0.35 M11.64 -0.51 C11.65 -0.47, 11.66 -0.43, 11.67 -0.35 M11.67 -0.35 C11.67 -0.31, 11.68 -0.26, 11.68 -0.18 M11.67 -0.35 C11.67 -0.29, 11.68 -0.22, 11.68 -0.18 M11.68 -0.18 C11.69 -0.13, 11.69 -0.08, 11.69 0 M11.68 -0.18 C11.69 -0.13, 11.69 -0.08, 11.69 0 M11.69 0 C9.04 0, 6.39 0, 0 0 M11.69 0 C8.3 0, 4.9 0, 0 0 M0 0 C0 0, 0 0, 0 0 M0 0 C0 0, 0 0, 0 0 M0 0 C0 0, 0 0, 0 0 M0 0 C0 0, 0 0, 0 0" stroke="transparent" stroke-width="1" fill="none"></path></g></g><mask></mask><g stroke-linecap="round"><g transform="translate(50.10000228881836 47.23684310913086) rotate(0 -11.686843156814575 -8.036842584609985)" fill-rule="evenodd"><path d="M0 0 L-23.37 0 L-23.37 -16.07 L0 -16.07 L0 0 L0 0" stroke="none" stroke-width="0" fill="#fff" fill-rule="evenodd"></path><path d="M0 0 C-8.79 0, -17.59 0, -23.37 0 M0 0 C-8.2 0, -16.39 0, -23.37 0 M-23.37 0 C-23.37 -5.31, -23.37 -10.62, -23.37 -16.07 M-23.37 0 C-23.37 -5.14, -23.37 -10.27, -23.37 -16.07 M-23.37 -16.07 C-15.63 -16.07, -7.88 -16.07, 0 -16.07 M-23.37 -16.07 C-17.3 -16.07, -11.22 -16.07, 0 -16.07 M0 -16.07 C0 -10, 0 -3.93, 0 0 M0 -16.07 C0 -10.14, 0 -4.21, 0 0 M0 0 C0 0, 0 0, 0 0 M0 0 C0 0, 0 0, 0 0 M0 0 C0 0, 0 0, 0 0 M0 0 C0 0, 0 0, 0 0" stroke="transparent" stroke-width="1" fill="none"></path></g></g><mask></mask><g stroke-linecap="round"><g transform="translate(48.63684272766113 39.69473743438721) rotate(0 -3.907895088195801 -1.6947376728057861)" fill-rule="evenodd"><path d="M0 0 L-6.34 -6.33 L-7.82 -4.85 L0 2.94 L0 0" stroke="none" stroke-width="0" fill="#669df6" fill-rule="evenodd"></path><path d="M0 0 C-1.73 -1.73, -3.47 -3.46, -6.34 -6.33 M0 0 C-2.42 -2.41, -4.84 -4.83, -6.34 -6.33 M-6.34 -6.33 C-6.68 -5.99, -7.01 -5.65, -7.82 -4.85 M-6.34 -6.33 C-6.68 -5.99, -7.02 -5.65, -7.82 -4.85 M-7.82 -4.85 C-5.3 -2.34, -2.78 0.17, 0 2.94 M-7.82 -4.85 C-6.04 -3.07, -4.26 -1.3, 0 2.94 M0 2.94 C0 2.19, 0 1.45, 0 0 M0 2.94 C0 1.87, 0 0.8, 0 0 M0 0 C0 0, 0 0, 0 0 M0 0 C0 0, 0 0, 0 0" stroke="transparent" stroke-width="1" fill="none"></path></g></g><mask></mask><g stroke-linecap="round"><g transform="translate(43.773685455322266 37.784210205078125) rotate(0 -1.4763164520263672 -2.2078945636749268)" fill-rule="evenodd"><path d="M0 0 L-2.95 -2.94 L-1.47 -4.42 L0 -2.94 L0 0" stroke="none" stroke-width="0" fill="#4285f4" fill-rule="evenodd"></path><path d="M0 0 C-0.95 -0.95, -1.91 -1.9, -2.95 -2.94 M0 0 C-1.09 -1.09, -2.18 -2.17, -2.95 -2.94 M-2.95 -2.94 C-2.42 -3.47, -1.89 -4, -1.47 -4.42 M-2.95 -2.94 C-2.49 -3.4, -2.03 -3.86, -1.47 -4.42 M-1.47 -4.42 C-1.12 -4.06, -0.77 -3.71, 0 -2.94 M-1.47 -4.42 C-0.95 -3.89, -0.42 -3.36, 0 -2.94 M0 -2.94 C0 -2.25, 0 -1.56, 0 0 M0 -2.94 C0 -2.15, 0 -1.37, 0 0 M0 0 C0 0, 0 0, 0 0 M0 0 C0 0, 0 0, 0 0" stroke="transparent" stroke-width="1" fill="none"></path></g></g><mask></mask><g stroke-linecap="round"><g transform="translate(36.86315727233887 41.74210548400879) rotate(0 2.7184224128723145 -4.186842203140259)" fill-rule="evenodd"><path d="M0 0 L-1.47 -1.47 L5.44 -8.37 L6.91 -6.89 L0 0" stroke="none" stroke-width="0" fill="#aecbfa" fill-rule="evenodd"></path><path d="M0 0 C-0.54 -0.54, -1.08 -1.08, -1.47 -1.47 M0 0 C-0.3 -0.3, -0.59 -0.59, -1.47 -1.47 M-1.47 -1.47 C1.22 -4.16, 3.91 -6.85, 5.44 -8.37 M-1.47 -1.47 C0.34 -3.28, 2.15 -5.09, 5.44 -8.37 M5.44 -8.37 C5.77 -8.04, 6.11 -7.7, 6.91 -6.89 M5.44 -8.37 C5.75 -8.06, 6.07 -7.74, 6.91 -6.89 M6.91 -6.89 C5.26 -5.24, 3.6 -3.6, 0 0 M6.91 -6.89 C4.77 -4.76, 2.62 -2.62, 0 0 M0 0 C0 0, 0 0, 0 0 M0 0 C0 0, 0 0, 0 0" stroke="transparent" stroke-width="1" fill="none"></path></g></g><mask></mask><g stroke-linecap="round"><g transform="translate(36.86315727233887 41.74210548400879) rotate(0 -1.3526310920715332 -2.8210530281066895)" fill-rule="evenodd"><path d="M0 0 L-4.18 -4.16 L-2.69 -5.64 L1.47 -1.47 L0 0" stroke="none" stroke-width="0" fill="#669df6" fill-rule="evenodd"></path><path d="M0 0 C-1.31 -1.3, -2.61 -2.6, -4.18 -4.16 M0 0 C-1.16 -1.16, -2.33 -2.32, -4.18 -4.16 M-4.18 -4.16 C-3.76 -4.58, -3.33 -5, -2.69 -5.64 M-4.18 -4.16 C-3.6 -4.74, -3.03 -5.31, -2.69 -5.64 M-2.69 -5.64 C-1.82 -4.77, -0.94 -3.89, 1.47 -1.47 M-2.69 -5.64 C-1.78 -4.74, -0.88 -3.83, 1.47 -1.47 M1.47 -1.47 C0.9 -0.9, 0.33 -0.33, 0 0 M1.47 -1.47 C1.16 -1.16, 0.85 -0.85, 0 0 M0 0 C0 0, 0 0, 0 0 M0 0 C0 0, 0 0, 0 0" stroke="transparent" stroke-width="1" fill="none"></path></g></g><mask></mask><g stroke-linecap="round"><g transform="translate(35.60526371002197 40.48421096801758) rotate(0 -1.460526466369629 -2.192105770111084)" fill-rule="evenodd"><path d="M0 0 L-2.92 -2.91 L-1.43 -4.38 L0 -2.95 L0 0" stroke="none" stroke-width="0" fill="#4285f4" fill-rule="evenodd"></path><path d="M0 0 C-0.78 -0.77, -1.56 -1.55, -2.92 -2.91 M0 0 C-0.87 -0.86, -1.74 -1.73, -2.92 -2.91 M-2.92 -2.91 C-2.59 -3.23, -2.26 -3.56, -1.43 -4.38 M-2.92 -2.91 C-2.37 -3.45, -1.82 -3.99, -1.43 -4.38 M-1.43 -4.38 C-1.08 -4.04, -0.74 -3.69, 0 -2.95 M-1.43 -4.38 C-1 -3.95, -0.57 -3.52, 0 -2.95 M0 -2.95 C0 -1.89, 0 -0.83, 0 0 M0 -2.95 C0 -1.89, 0 -0.83, 0 0 M0 0 C0 0, 0 0, 0 0 M0 0 C0 0, 0 0, 0 0" stroke="transparent" stroke-width="1" fill="none"></path></g></g><mask></mask><g stroke-linecap="round"><g transform="translate(28.826315879821777 44.30000114440918) rotate(0 3.0684213638305664 -4.121053218841553)" fill-rule="evenodd"><path d="M0 0 L6.78 -6.77 L5.31 -8.24 L-0.64 -2.31 L-0.64 0 L0 0" stroke="none" stroke-width="0" fill="#aecbfa" fill-rule="evenodd"></path><path d="M0 0 C1.78 -1.78, 3.56 -3.56, 6.78 -6.77 M0 0 C2.42 -2.41, 4.84 -4.83, 6.78 -6.77 M6.78 -6.77 C6.25 -7.3, 5.72 -7.82, 5.31 -8.24 M6.78 -6.77 C6.33 -7.22, 5.89 -7.66, 5.31 -8.24 M5.31 -8.24 C4.01 -6.95, 2.71 -5.65, -0.64 -2.31 M5.31 -8.24 C3.76 -6.7, 2.21 -5.16, -0.64 -2.31 M-0.64 -2.31 C-0.64 -1.82, -0.64 -1.33, -0.64 0 M-0.64 -2.31 C-0.64 -1.5, -0.64 -0.7, -0.64 0 M-0.64 0 C-0.44 0, -0.24 0, 0 0 M-0.64 0 C-0.43 0, -0.22 0, 0 0 M0 0 C0 0, 0 0, 0 0 M0 0 C0 0, 0 0, 0 0" stroke="transparent" stroke-width="1" fill="none"></path></g></g><mask></mask></svg>