<svg xmlns="http://www.w3.org/2000/svg" viewBox="-164.94 979.62 172.00 84.00" width="172" height="84"><rect x="-158.94" y="985.62" width="160.00" height="72.00" rx="0" stroke="#4285f4" stroke-width="2" opacity="1.0" fill="#FFF"/><text x="-93.94" y="1026.62" font-size="12" fill="#000000" opacity="1.0" font-family="sans-serif">Cloud Billing</text><polyline points="-145.20,1016.88 -145.20,1033.06 -145.20,1033.06 -145.19,1033.22 -145.17,1033.38 -145.13,1033.53 -145.07,1033.68 -145.00,1033.82 -144.92,1033.95 -144.83,1034.08 -144.72,1034.19 -144.61,1034.29 -144.48,1034.38 -144.34,1034.46 -144.20,1034.53 -144.05,1034.59 -143.89,1034.62 -143.73,1034.65 -143.56,1034.66 -126.16,1034.66 -126.16,1016.88 -145.20,1016.88 -145.20,1016.88" fill="none" stroke="#00000000" stroke-width="1" opacity="1.0" stroke-linecap="round" stroke-linejoin="round"/><polyline points="-126.16,1034.65 -109.17,1034.65 -109.17,1034.65 -109.00,1034.64 -108.84,1034.62 -108.68,1034.58 -108.53,1034.53 -108.39,1034.46 -108.25,1034.38 -108.12,1034.29 -108.01,1034.18 -107.90,1034.07 -107.81,1033.95 -107.73,1033.82 -107.66,1033.68 -107.60,1033.53 -107.56,1033.38 -107.54,1033.22 -107.53,1033.05 -107.53,1016.88 -126.16,1016.88 -126.16,1034.65 -126.16,1034.65" fill="none" stroke="#00000000" stroke-width="1" opacity="1.0" stroke-linecap="round" stroke-linejoin="round"/><polyline points="-126.16,1008.68 -143.56,1008.68 -143.56,1008.68 -143.73,1008.69 -143.89,1008.71 -144.05,1008.75 -144.20,1008.81 -144.34,1008.87 -144.48,1008.95 -144.61,1009.05 -144.72,1009.15 -144.83,1009.26 -144.92,1009.39 -145.00,1009.52 -145.07,1009.66 -145.13,1009.80 -145.17,1009.96 -145.19,1010.12 -145.20,1010.28 -145.20,1012.00 -126.16,1012.00 -126.16,1008.68 -126.16,1008.68" fill="none" stroke="#00000000" stroke-width="1" opacity="1.0" stroke-linecap="round" stroke-linejoin="round"/><polyline points="-109.17,1008.68 -126.16,1008.68 -126.16,1012.00 -107.53,1012.00 -107.53,1010.28 -107.53,1010.28 -107.54,1010.12 -107.56,1009.96 -107.60,1009.80 -107.66,1009.66 -107.73,1009.52 -107.81,1009.39 -107.91,1009.26 -108.01,1009.15 -108.13,1009.05 -108.26,1008.95 -108.39,1008.87 -108.53,1008.81 -108.68,1008.75 -108.84,1008.71 -109.00,1008.69 -109.17,1008.68 -109.17,1008.68" fill="none" stroke="#00000000" stroke-width="1" opacity="1.0" stroke-linecap="round" stroke-linejoin="round"/><polyline points="-145.20,1012.00 -126.16,1012.00 -126.16,1016.88 -145.20,1016.88 -145.20,1012.00" fill="none" stroke="#00000000" stroke-width="1" opacity="1.0" stroke-linecap="round" stroke-linejoin="round"/><polyline points="-126.16,1012.00 -107.53,1012.00 -107.53,1016.88 -126.16,1016.88 -126.16,1012.00" fill="none" stroke="#00000000" stroke-width="1" opacity="1.0" stroke-linecap="round" stroke-linejoin="round"/><polyline points="-141.71,1026.30 -134.35,1026.30 -134.35,1031.15 -141.71,1031.15 -141.71,1026.30" fill="none" stroke="#00000000" stroke-width="1" opacity="1.0" stroke-linecap="round" stroke-linejoin="round"/><polyline points="-123.82,1027.47 -121.09,1027.47 -121.09,1030.20 -123.82,1030.20 -123.82,1027.47" fill="none" stroke="#00000000" stroke-width="1" opacity="1.0" stroke-linecap="round" stroke-linejoin="round"/><polyline points="-119.14,1027.47 -116.41,1027.47 -116.41,1030.20 -119.14,1030.20 -119.14,1027.47" fill="none" stroke="#00000000" stroke-width="1" opacity="1.0" stroke-linecap="round" stroke-linejoin="round"/><polyline points="-114.23,1027.47 -111.50,1027.47 -111.50,1030.20 -114.23,1030.20 -114.23,1027.47" fill="none" stroke="#00000000" stroke-width="1" opacity="1.0" stroke-linecap="round" stroke-linejoin="round"/><polyline points="-141.77,1019.05 -110.72,1019.05 -110.72,1022.73 -141.77,1022.73 -141.77,1019.05" fill="none" stroke="#00000000" stroke-width="1" opacity="1.0" stroke-linecap="round" stroke-linejoin="round"/></svg>