<svg version="1.1" xmlns="http://www.w3.org/2000/svg" viewBox="0 0 236 246.0674261396096" width="236" height="246.0674261396096">
  <!-- svg-source:excalidraw -->
  
  <defs>
    
    
  </defs>
  <g stroke-linecap="round"><g transform="translate(206.57578455283692 71.5422363165347) rotate(0 -88.23831243682153 28.07914552920441)" fill-rule="evenodd"><path d="M0 0 L-3.27 -0.84 L-13.31 -3.38 L-14.15 -5.16 L-14.15 -5.16 L-14.8 -6.49 L-15.46 -7.89 L-16.11 -9.19 L-16.77 -10.44 L-18.26 -13.06 L-19.75 -15.49 L-21.35 -17.93 L-21.35 -17.93 L-22.2 -19.14 L-23.13 -20.26 L-23.98 -21.44 L-24.91 -22.59 L-26.77 -24.84 L-28.62 -26.99 L-31.06 -29.06 L-33.13 -31.13 L-35.39 -32.99 L-37.54 -34.84 L-39.86 -36.63 L-42.19 -38.41 L-44.63 -40.01 L-47.07 -41.5 L-49.68 -42.99 L-52.23 -44.3 L-54.96 -45.61 L-56.74 -46.37 L-59.47 -56.85 L-60.12 -60.12 L-60.12 -60.12 L-60.55 -61.3 L-61.15 -62.36 L-61.9 -63.3 L-62.8 -64.09 L-63.81 -64.72 L-64.91 -65.19 L-66.09 -65.46 L-67.32 -65.54 L-109.12 -65.54 L-109.12 -65.54 L-110.36 -65.46 L-111.55 -65.18 L-112.66 -64.71 L-113.67 -64.07 L-114.56 -63.28 L-115.31 -62.35 L-115.91 -61.29 L-116.32 -60.12 L-117.15 -56.85 L-119.7 -46.37 L-121.48 -45.61 L-124.21 -44.3 L-126.76 -42.99 L-129.37 -41.5 L-131.81 -40.01 L-134.25 -38.41 L-136.58 -36.63 L-138.9 -34.84 L-141.16 -32.99 L-143.31 -31.13 L-145.38 -29.06 L-147.45 -26.99 L-149.31 -24.73 L-149.31 -24.73 L-150.29 -23.69 L-151.16 -22.59 L-152.08 -21.41 L-152.94 -20.26 L-153.88 -19.12 L-154.73 -17.93 L-156.33 -15.49 L-157.82 -13.06 L-159.31 -10.44 L-159.31 -10.44 L-159.35 -10.12 L-159.46 -9.81 L-159.83 -9.18 L-160.26 -8.54 L-160.62 -7.89 L-161.23 -6.54 L-161.93 -5.16 L-162.22 -4.6 L-162.41 -4.16 L-162.69 -3.38 L-173.17 -0.65 L-176.44 0 L-176.44 0 L-177.62 0.42 L-178.68 1.02 L-179.61 1.78 L-180.4 2.67 L-181.04 3.68 L-181.5 4.79 L-181.78 5.97 L-181.86 7.2 L-181.86 48.96 L-181.86 48.96 L-181.76 50.17 L-181.46 51.33 L-180.98 52.41 L-180.34 53.39 L-179.55 54.26 L-178.62 54.99 L-177.58 55.57 L-176.44 55.98 L-173.17 56.81 L-162.69 59.54 L-162.69 59.54 L-162.6 59.96 L-162.39 60.39 L-162.14 60.85 L-161.93 61.32 L-161.71 61.89 L-161.38 62.58 L-160.62 64.05 L-159.96 65.35 L-159.31 66.6 L-157.82 69.22 L-156.33 71.65 L-154.73 74.09 L-154.73 74.09 L-153.88 75.29 L-152.94 76.42 L-152.09 77.59 L-151.16 78.75 L-150.26 79.86 L-149.31 80.89 L-147.45 83.15 L-145.38 85.22 L-143.31 87.29 L-141.05 89.15 L-138.9 91 L-136.58 92.78 L-134.25 94.57 L-131.81 96.17 L-129.37 97.66 L-126.76 99.15 L-124.21 100.46 L-121.48 101.77 L-119.7 102.53 L-116.97 113.01 L-116.14 116.28 L-116.14 116.28 L-115.73 117.43 L-115.15 118.48 L-114.42 119.4 L-113.55 120.19 L-112.57 120.83 L-111.49 121.3 L-110.33 121.6 L-109.12 121.7 L-67.36 121.7 L-67.36 121.7 L-66.14 121.6 L-64.99 121.3 L-63.91 120.82 L-62.92 120.18 L-62.06 119.39 L-61.33 118.46 L-60.75 117.42 L-60.34 116.28 L-59.5 113.01 L-56.78 102.97 L-54.99 102.21 L-52.27 100.9 L-49.72 99.59 L-47.1 98.1 L-44.66 96.6 L-42.23 95 L-39.9 93.22 L-37.57 91.44 L-35.32 89.58 L-33.17 87.73 L-31.1 85.66 L-29.02 83.58 L-27.17 81.33 L-27.17 81.33 L-26.19 80.28 L-25.31 79.18 L-24.4 78 L-23.53 76.85 L-22.6 75.72 L-21.75 74.53 L-20.15 72.09 L-18.66 69.65 L-17.17 67.03 L-17.17 67.03 L-16.47 65.77 L-15.86 64.49 L-15.24 63.14 L-14.55 61.76 L-14.26 61.21 L-14.07 60.77 L-13.78 59.98 L-3.31 57.25 L-0.04 56.41 L-0.04 56.41 L1.12 56.01 L2.16 55.43 L3.08 54.7 L3.87 53.83 L4.51 52.85 L4.99 51.77 L5.28 50.61 L5.38 49.39 L5.38 7.2 L5.38 7.2 L5.32 5.96 L5.04 4.77 L4.58 3.66 L3.95 2.65 L3.15 1.75 L2.22 1 L1.17 0.41 L0 0 L0 0" stroke="none" stroke-width="0" fill="#4285f4" fill-rule="evenodd"></path><path d="M0 0 C-0.76 -0.19, -1.51 -0.39, -3.27 -0.84 M0 0 C-0.73 -0.19, -1.46 -0.37, -3.27 -0.84 M-3.27 -0.84 C-7.13 -1.81, -10.98 -2.79, -13.31 -3.38 M-3.27 -0.84 C-6.14 -1.56, -9 -2.29, -13.31 -3.38 M-13.31 -3.38 C-13.59 -3.98, -13.87 -4.57, -14.15 -5.16 M-13.31 -3.38 C-13.55 -3.9, -13.79 -4.41, -14.15 -5.16 M-14.15 -5.16 C-14.15 -5.16, -14.15 -5.16, -14.15 -5.16 M-14.15 -5.16 C-14.15 -5.16, -14.15 -5.16, -14.15 -5.16 M-14.15 -5.16 C-14.36 -5.59, -14.57 -6.02, -14.8 -6.49 M-14.15 -5.16 C-14.32 -5.51, -14.49 -5.85, -14.8 -6.49 M-14.8 -6.49 C-15.02 -6.96, -15.25 -7.44, -15.46 -7.89 M-14.8 -6.49 C-15.06 -7.04, -15.32 -7.6, -15.46 -7.89 M-15.46 -7.89 C-15.66 -8.29, -15.86 -8.69, -16.11 -9.19 M-15.46 -7.89 C-15.65 -8.27, -15.84 -8.65, -16.11 -9.19 M-16.11 -9.19 C-16.3 -9.54, -16.48 -9.89, -16.77 -10.44 M-16.11 -9.19 C-16.28 -9.52, -16.46 -9.85, -16.77 -10.44 M-16.77 -10.44 C-17.35 -11.46, -17.93 -12.48, -18.26 -13.06 M-16.77 -10.44 C-17.25 -11.28, -17.73 -12.12, -18.26 -13.06 M-18.26 -13.06 C-18.7 -13.78, -19.14 -14.5, -19.75 -15.49 M-18.26 -13.06 C-18.69 -13.76, -19.11 -14.45, -19.75 -15.49 M-19.75 -15.49 C-20.32 -16.36, -20.88 -17.22, -21.35 -17.93 M-19.75 -15.49 C-20.35 -16.4, -20.94 -17.31, -21.35 -17.93 M-21.35 -17.93 C-21.35 -17.93, -21.35 -17.93, -21.35 -17.93 M-21.35 -17.93 C-21.35 -17.93, -21.35 -17.93, -21.35 -17.93 M-21.35 -17.93 C-21.67 -18.39, -22 -18.85, -22.2 -19.14 M-21.35 -17.93 C-21.57 -18.24, -21.79 -18.55, -22.2 -19.14 M-22.2 -19.14 C-22.44 -19.43, -22.69 -19.72, -23.13 -20.26 M-22.2 -19.14 C-22.44 -19.42, -22.67 -19.71, -23.13 -20.26 M-23.13 -20.26 C-23.41 -20.65, -23.7 -21.04, -23.98 -21.44 M-23.13 -20.26 C-23.36 -20.58, -23.59 -20.89, -23.98 -21.44 M-23.98 -21.44 C-24.33 -21.86, -24.67 -22.29, -24.91 -22.59 M-23.98 -21.44 C-24.32 -21.86, -24.67 -22.28, -24.91 -22.59 M-24.91 -22.59 C-25.41 -23.18, -25.9 -23.78, -26.77 -24.84 M-24.91 -22.59 C-25.45 -23.24, -26 -23.9, -26.77 -24.84 M-26.77 -24.84 C-27.26 -25.41, -27.75 -25.97, -28.62 -26.99 M-26.77 -24.84 C-27.45 -25.63, -28.13 -26.42, -28.62 -26.99 M-28.62 -26.99 C-29.41 -27.66, -30.2 -28.33, -31.06 -29.06 M-28.62 -26.99 C-29.34 -27.59, -30.05 -28.2, -31.06 -29.06 M-31.06 -29.06 C-31.83 -29.83, -32.6 -30.59, -33.13 -31.13 M-31.06 -29.06 C-31.54 -29.54, -32.02 -30.02, -33.13 -31.13 M-33.13 -31.13 C-33.68 -31.58, -34.23 -32.03, -35.39 -32.99 M-33.13 -31.13 C-33.64 -31.55, -34.14 -31.97, -35.39 -32.99 M-35.39 -32.99 C-36.15 -33.65, -36.91 -34.3, -37.54 -34.84 M-35.39 -32.99 C-35.97 -33.49, -36.54 -33.99, -37.54 -34.84 M-37.54 -34.84 C-38.1 -35.28, -38.66 -35.71, -39.86 -36.63 M-37.54 -34.84 C-38.3 -35.43, -39.06 -36.01, -39.86 -36.63 M-39.86 -36.63 C-40.38 -37.02, -40.89 -37.41, -42.19 -38.41 M-39.86 -36.63 C-40.38 -37.02, -40.9 -37.42, -42.19 -38.41 M-42.19 -38.41 C-43.01 -38.94, -43.82 -39.48, -44.63 -40.01 M-42.19 -38.41 C-42.75 -38.78, -43.31 -39.14, -44.63 -40.01 M-44.63 -40.01 C-45.15 -40.33, -45.66 -40.64, -47.07 -41.5 M-44.63 -40.01 C-45.55 -40.57, -46.46 -41.13, -47.07 -41.5 M-47.07 -41.5 C-47.64 -41.83, -48.22 -42.16, -49.68 -42.99 M-47.07 -41.5 C-47.7 -41.86, -48.33 -42.22, -49.68 -42.99 M-49.68 -42.99 C-50.48 -43.4, -51.27 -43.81, -52.23 -44.3 M-49.68 -42.99 C-50.31 -43.31, -50.94 -43.64, -52.23 -44.3 M-52.23 -44.3 C-53.29 -44.81, -54.35 -45.32, -54.96 -45.61 M-52.23 -44.3 C-52.94 -44.64, -53.64 -44.98, -54.96 -45.61 M-54.96 -45.61 C-55.57 -45.87, -56.17 -46.13, -56.74 -46.37 M-54.96 -45.61 C-55.47 -45.83, -55.97 -46.05, -56.74 -46.37 M-56.74 -46.37 C-57.33 -48.65, -57.92 -50.92, -59.47 -56.85 M-56.74 -46.37 C-57.47 -49.18, -58.2 -51.98, -59.47 -56.85 M-59.47 -56.85 C-59.64 -57.7, -59.81 -58.56, -60.12 -60.12 M-59.47 -56.85 C-59.72 -58.1, -59.97 -59.35, -60.12 -60.12 M-60.12 -60.12 C-60.12 -60.12, -60.12 -60.12, -60.12 -60.12 M-60.12 -60.12 C-60.12 -60.12, -60.12 -60.12, -60.12 -60.12 M-60.12 -60.12 C-60.24 -60.44, -60.35 -60.76, -60.55 -61.3 M-60.12 -60.12 C-60.28 -60.55, -60.43 -60.98, -60.55 -61.3 M-60.55 -61.3 C-60.68 -61.53, -60.81 -61.76, -61.15 -62.36 M-60.55 -61.3 C-60.68 -61.53, -60.81 -61.77, -61.15 -62.36 M-61.15 -62.36 C-61.38 -62.65, -61.61 -62.93, -61.9 -63.3 M-61.15 -62.36 C-61.36 -62.63, -61.58 -62.9, -61.9 -63.3 M-61.9 -63.3 C-62.16 -63.53, -62.42 -63.76, -62.8 -64.09 M-61.9 -63.3 C-62.14 -63.5, -62.37 -63.71, -62.8 -64.09 M-62.8 -64.09 C-63.15 -64.31, -63.5 -64.53, -63.81 -64.72 M-62.8 -64.09 C-63.15 -64.31, -63.51 -64.54, -63.81 -64.72 M-63.81 -64.72 C-64.06 -64.83, -64.32 -64.94, -64.91 -65.19 M-63.81 -64.72 C-64.12 -64.86, -64.44 -64.99, -64.91 -65.19 M-64.91 -65.19 C-65.28 -65.27, -65.66 -65.36, -66.09 -65.46 M-64.91 -65.19 C-65.37 -65.3, -65.84 -65.4, -66.09 -65.46 M-66.09 -65.46 C-66.54 -65.49, -66.98 -65.52, -67.32 -65.54 M-66.09 -65.46 C-66.35 -65.48, -66.61 -65.5, -67.32 -65.54 M-67.32 -65.54 C-82.44 -65.54, -97.55 -65.54, -109.12 -65.54 M-67.32 -65.54 C-82.97 -65.54, -98.61 -65.54, -109.12 -65.54 M-109.12 -65.54 C-109.12 -65.54, -109.12 -65.54, -109.12 -65.54 M-109.12 -65.54 C-109.12 -65.54, -109.12 -65.54, -109.12 -65.54 M-109.12 -65.54 C-109.59 -65.51, -110.06 -65.48, -110.36 -65.46 M-109.12 -65.54 C-109.49 -65.52, -109.87 -65.49, -110.36 -65.46 M-110.36 -65.46 C-110.64 -65.4, -110.91 -65.33, -111.55 -65.18 M-110.36 -65.46 C-110.75 -65.37, -111.14 -65.28, -111.55 -65.18 M-111.55 -65.18 C-111.89 -65.04, -112.23 -64.89, -112.66 -64.71 M-111.55 -65.18 C-111.91 -65.03, -112.26 -64.88, -112.66 -64.71 M-112.66 -64.71 C-112.93 -64.54, -113.2 -64.37, -113.67 -64.07 M-112.66 -64.71 C-113.05 -64.47, -113.43 -64.22, -113.67 -64.07 M-113.67 -64.07 C-113.86 -63.9, -114.05 -63.73, -114.56 -63.28 M-113.67 -64.07 C-113.85 -63.91, -114.03 -63.75, -114.56 -63.28 M-114.56 -63.28 C-114.77 -63.02, -114.97 -62.77, -115.31 -62.35 M-114.56 -63.28 C-114.75 -63.05, -114.93 -62.82, -115.31 -62.35 M-115.31 -62.35 C-115.44 -62.12, -115.57 -61.89, -115.91 -61.29 M-115.31 -62.35 C-115.47 -62.07, -115.62 -61.8, -115.91 -61.29 M-115.91 -61.29 C-116 -61.02, -116.09 -60.76, -116.32 -60.12 M-115.91 -61.29 C-116.01 -60.98, -116.12 -60.68, -116.32 -60.12 M-116.32 -60.12 C-116.62 -58.95, -116.92 -57.77, -117.15 -56.85 M-116.32 -60.12 C-116.52 -59.33, -116.72 -58.54, -117.15 -56.85 M-117.15 -56.85 C-117.88 -53.88, -118.6 -50.91, -119.7 -46.37 M-117.15 -56.85 C-118.07 -53.08, -118.98 -49.32, -119.7 -46.37 M-119.7 -46.37 C-120.3 -46.12, -120.91 -45.86, -121.48 -45.61 M-119.7 -46.37 C-120.12 -46.19, -120.54 -46.01, -121.48 -45.61 M-121.48 -45.61 C-122.27 -45.23, -123.07 -44.85, -124.21 -44.3 M-121.48 -45.61 C-122.45 -45.15, -123.41 -44.68, -124.21 -44.3 M-124.21 -44.3 C-125.18 -43.8, -126.15 -43.3, -126.76 -42.99 M-124.21 -44.3 C-125.12 -43.83, -126.03 -43.36, -126.76 -42.99 M-126.76 -42.99 C-127.5 -42.57, -128.25 -42.14, -129.37 -41.5 M-126.76 -42.99 C-127.4 -42.63, -128.04 -42.26, -129.37 -41.5 M-129.37 -41.5 C-130.24 -40.97, -131.11 -40.44, -131.81 -40.01 M-129.37 -41.5 C-130.02 -41.1, -130.67 -40.71, -131.81 -40.01 M-131.81 -40.01 C-132.76 -39.38, -133.72 -38.76, -134.25 -38.41 M-131.81 -40.01 C-132.59 -39.5, -133.38 -38.98, -134.25 -38.41 M-134.25 -38.41 C-134.88 -37.93, -135.51 -37.44, -136.58 -36.63 M-134.25 -38.41 C-134.84 -37.96, -135.43 -37.51, -136.58 -36.63 M-136.58 -36.63 C-137.33 -36.05, -138.08 -35.47, -138.9 -34.84 M-136.58 -36.63 C-137.16 -36.18, -137.75 -35.73, -138.9 -34.84 M-138.9 -34.84 C-139.74 -34.16, -140.58 -33.47, -141.16 -32.99 M-138.9 -34.84 C-139.69 -34.2, -140.47 -33.56, -141.16 -32.99 M-141.16 -32.99 C-141.77 -32.46, -142.39 -31.93, -143.31 -31.13 M-141.16 -32.99 C-142.02 -32.25, -142.88 -31.51, -143.31 -31.13 M-143.31 -31.13 C-143.81 -30.63, -144.32 -30.12, -145.38 -29.06 M-143.31 -31.13 C-143.74 -30.7, -144.18 -30.26, -145.38 -29.06 M-145.38 -29.06 C-145.94 -28.5, -146.51 -27.93, -147.45 -26.99 M-145.38 -29.06 C-146.01 -28.43, -146.65 -27.79, -147.45 -26.99 M-147.45 -26.99 C-148.03 -26.28, -148.61 -25.58, -149.31 -24.73 M-147.45 -26.99 C-147.9 -26.44, -148.36 -25.89, -149.31 -24.73 M-149.31 -24.73 C-149.31 -24.73, -149.31 -24.73, -149.31 -24.73 M-149.31 -24.73 C-149.31 -24.73, -149.31 -24.73, -149.31 -24.73 M-149.31 -24.73 C-149.64 -24.38, -149.98 -24.02, -150.29 -23.69 M-149.31 -24.73 C-149.59 -24.44, -149.87 -24.14, -150.29 -23.69 M-150.29 -23.69 C-150.49 -23.44, -150.69 -23.18, -151.16 -22.59 M-150.29 -23.69 C-150.56 -23.35, -150.82 -23.01, -151.16 -22.59 M-151.16 -22.59 C-151.47 -22.2, -151.77 -21.8, -152.08 -21.41 M-151.16 -22.59 C-151.44 -22.23, -151.72 -21.87, -152.08 -21.41 M-152.08 -21.41 C-152.28 -21.15, -152.48 -20.88, -152.94 -20.26 M-152.08 -21.41 C-152.36 -21.04, -152.63 -20.68, -152.94 -20.26 M-152.94 -20.26 C-153.16 -20, -153.37 -19.74, -153.88 -19.12 M-152.94 -20.26 C-153.23 -19.91, -153.52 -19.56, -153.88 -19.12 M-153.88 -19.12 C-154.14 -18.75, -154.41 -18.37, -154.73 -17.93 M-153.88 -19.12 C-154.15 -18.73, -154.43 -18.34, -154.73 -17.93 M-154.73 -17.93 C-155.06 -17.42, -155.4 -16.91, -156.33 -15.49 M-154.73 -17.93 C-155.11 -17.34, -155.5 -16.76, -156.33 -15.49 M-156.33 -15.49 C-156.8 -14.71, -157.28 -13.93, -157.82 -13.06 M-156.33 -15.49 C-156.79 -14.74, -157.24 -13.99, -157.82 -13.06 M-157.82 -13.06 C-158.41 -12.02, -159 -10.98, -159.31 -10.44 M-157.82 -13.06 C-158.24 -12.31, -158.67 -11.57, -159.31 -10.44 M-159.31 -10.44 C-159.31 -10.44, -159.31 -10.44, -159.31 -10.44 M-159.31 -10.44 C-159.31 -10.44, -159.31 -10.44, -159.31 -10.44 M-159.31 -10.44 C-159.32 -10.33, -159.34 -10.22, -159.35 -10.12 M-159.31 -10.44 C-159.32 -10.33, -159.34 -10.22, -159.35 -10.12 M-159.35 -10.12 C-159.38 -10.03, -159.42 -9.94, -159.46 -9.81 M-159.35 -10.12 C-159.38 -10.03, -159.42 -9.93, -159.46 -9.81 M-159.46 -9.81 C-159.59 -9.58, -159.73 -9.36, -159.83 -9.18 M-159.46 -9.81 C-159.61 -9.56, -159.75 -9.31, -159.83 -9.18 M-159.83 -9.18 C-159.95 -9, -160.07 -8.81, -160.26 -8.54 M-159.83 -9.18 C-159.92 -9.05, -160.01 -8.92, -160.26 -8.54 M-160.26 -8.54 C-160.39 -8.3, -160.53 -8.06, -160.62 -7.89 M-160.26 -8.54 C-160.37 -8.34, -160.48 -8.15, -160.62 -7.89 M-160.62 -7.89 C-160.77 -7.57, -160.91 -7.25, -161.23 -6.54 M-160.62 -7.89 C-160.76 -7.58, -160.9 -7.26, -161.23 -6.54 M-161.23 -6.54 C-161.42 -6.18, -161.6 -5.82, -161.93 -5.16 M-161.23 -6.54 C-161.37 -6.27, -161.51 -5.99, -161.93 -5.16 M-161.93 -5.16 C-162.03 -4.97, -162.12 -4.78, -162.22 -4.6 M-161.93 -5.16 C-162.01 -5, -162.09 -4.84, -162.22 -4.6 M-162.22 -4.6 C-162.28 -4.45, -162.35 -4.3, -162.41 -4.16 M-162.22 -4.6 C-162.28 -4.45, -162.35 -4.3, -162.41 -4.16 M-162.41 -4.16 C-162.48 -3.96, -162.56 -3.76, -162.69 -3.38 M-162.41 -4.16 C-162.51 -3.88, -162.62 -3.59, -162.69 -3.38 M-162.69 -3.38 C-165.5 -2.65, -168.31 -1.92, -173.17 -0.65 M-162.69 -3.38 C-165.08 -2.76, -167.46 -2.14, -173.17 -0.65 M-173.17 -0.65 C-174.03 -0.48, -174.89 -0.31, -176.44 0 M-173.17 -0.65 C-173.96 -0.5, -174.76 -0.34, -176.44 0 M-176.44 0 C-176.44 0, -176.44 0, -176.44 0 M-176.44 0 C-176.44 0, -176.44 0, -176.44 0 M-176.44 0 C-176.79 0.13, -177.14 0.25, -177.62 0.42 M-176.44 0 C-176.88 0.16, -177.32 0.32, -177.62 0.42 M-177.62 0.42 C-178.01 0.64, -178.4 0.86, -178.68 1.02 M-177.62 0.42 C-178.02 0.65, -178.43 0.88, -178.68 1.02 M-178.68 1.02 C-178.96 1.25, -179.24 1.48, -179.61 1.78 M-178.68 1.02 C-178.88 1.19, -179.08 1.35, -179.61 1.78 M-179.61 1.78 C-179.81 2, -180 2.22, -180.4 2.67 M-179.61 1.78 C-179.87 2.07, -180.13 2.36, -180.4 2.67 M-180.4 2.67 C-180.6 2.98, -180.79 3.29, -181.04 3.68 M-180.4 2.67 C-180.59 2.97, -180.78 3.27, -181.04 3.68 M-181.04 3.68 C-181.22 4.1, -181.39 4.52, -181.5 4.79 M-181.04 3.68 C-181.2 4.07, -181.36 4.45, -181.5 4.79 M-181.5 4.79 C-181.59 5.17, -181.68 5.55, -181.78 5.97 M-181.5 4.79 C-181.6 5.18, -181.69 5.57, -181.78 5.97 M-181.78 5.97 C-181.8 6.23, -181.81 6.49, -181.86 7.2 M-181.78 5.97 C-181.8 6.25, -181.82 6.53, -181.86 7.2 M-181.86 7.2 C-181.86 18.42, -181.86 29.64, -181.86 48.96 M-181.86 7.2 C-181.86 21.27, -181.86 35.34, -181.86 48.96 M-181.86 48.96 C-181.86 48.96, -181.86 48.96, -181.86 48.96 M-181.86 48.96 C-181.86 48.96, -181.86 48.96, -181.86 48.96 M-181.86 48.96 C-181.84 49.24, -181.81 49.52, -181.76 50.17 M-181.86 48.96 C-181.83 49.32, -181.8 49.68, -181.76 50.17 M-181.76 50.17 C-181.64 50.62, -181.53 51.06, -181.46 51.33 M-181.76 50.17 C-181.65 50.57, -181.55 50.97, -181.46 51.33 M-181.46 51.33 C-181.27 51.76, -181.08 52.2, -180.98 52.41 M-181.46 51.33 C-181.32 51.64, -181.18 51.96, -180.98 52.41 M-180.98 52.41 C-180.78 52.72, -180.57 53.03, -180.34 53.39 M-180.98 52.41 C-180.78 52.71, -180.58 53.01, -180.34 53.39 M-180.34 53.39 C-180.06 53.69, -179.79 53.99, -179.55 54.26 M-180.34 53.39 C-180.04 53.72, -179.74 54.05, -179.55 54.26 M-179.55 54.26 C-179.23 54.51, -178.92 54.76, -178.62 54.99 M-179.55 54.26 C-179.19 54.54, -178.83 54.83, -178.62 54.99 M-178.62 54.99 C-178.28 55.18, -177.93 55.38, -177.58 55.57 M-178.62 54.99 C-178.3 55.17, -177.97 55.35, -177.58 55.57 M-177.58 55.57 C-177.13 55.73, -176.67 55.9, -176.44 55.98 M-177.58 55.57 C-177.2 55.71, -176.81 55.84, -176.44 55.98 M-176.44 55.98 C-175.75 56.15, -175.06 56.33, -173.17 56.81 M-176.44 55.98 C-175.69 56.17, -174.94 56.36, -173.17 56.81 M-173.17 56.81 C-170.22 57.58, -167.27 58.35, -162.69 59.54 M-173.17 56.81 C-170.54 57.5, -167.92 58.18, -162.69 59.54 M-162.69 59.54 C-162.69 59.54, -162.69 59.54, -162.69 59.54 M-162.69 59.54 C-162.69 59.54, -162.69 59.54, -162.69 59.54 M-162.69 59.54 C-162.66 59.67, -162.64 59.8, -162.6 59.96 M-162.69 59.54 C-162.67 59.65, -162.65 59.75, -162.6 59.96 M-162.6 59.96 C-162.56 60.05, -162.52 60.13, -162.39 60.39 M-162.6 59.96 C-162.54 60.08, -162.49 60.2, -162.39 60.39 M-162.39 60.39 C-162.33 60.5, -162.27 60.61, -162.14 60.85 M-162.39 60.39 C-162.34 60.48, -162.29 60.58, -162.14 60.85 M-162.14 60.85 C-162.08 60.97, -162.03 61.1, -161.93 61.32 M-162.14 60.85 C-162.07 60.99, -162.01 61.14, -161.93 61.32 M-161.93 61.32 C-161.85 61.54, -161.76 61.76, -161.71 61.89 M-161.93 61.32 C-161.88 61.44, -161.84 61.56, -161.71 61.89 M-161.71 61.89 C-161.61 62.11, -161.5 62.32, -161.38 62.58 M-161.71 61.89 C-161.61 62.11, -161.51 62.32, -161.38 62.58 M-161.38 62.58 C-161.18 62.97, -160.97 63.36, -160.62 64.05 M-161.38 62.58 C-161.16 63.01, -160.94 63.44, -160.62 64.05 M-160.62 64.05 C-160.45 64.38, -160.28 64.72, -159.96 65.35 M-160.62 64.05 C-160.44 64.4, -160.27 64.75, -159.96 65.35 M-159.96 65.35 C-159.71 65.83, -159.46 66.3, -159.31 66.6 M-159.96 65.35 C-159.75 65.77, -159.53 66.18, -159.31 66.6 M-159.31 66.6 C-158.75 67.57, -158.2 68.54, -157.82 69.22 M-159.31 66.6 C-158.83 67.44, -158.35 68.28, -157.82 69.22 M-157.82 69.22 C-157.46 69.8, -157.1 70.39, -156.33 71.65 M-157.82 69.22 C-157.32 70.03, -156.83 70.84, -156.33 71.65 M-156.33 71.65 C-155.95 72.23, -155.56 72.81, -154.73 74.09 M-156.33 71.65 C-155.83 72.4, -155.34 73.15, -154.73 74.09 M-154.73 74.09 C-154.73 74.09, -154.73 74.09, -154.73 74.09 M-154.73 74.09 C-154.73 74.09, -154.73 74.09, -154.73 74.09 M-154.73 74.09 C-154.54 74.35, -154.35 74.62, -153.88 75.29 M-154.73 74.09 C-154.52 74.39, -154.3 74.69, -153.88 75.29 M-153.88 75.29 C-153.63 75.59, -153.38 75.89, -152.94 76.42 M-153.88 75.29 C-153.58 75.65, -153.28 76.01, -152.94 76.42 M-152.94 76.42 C-152.63 76.85, -152.32 77.29, -152.09 77.59 M-152.94 76.42 C-152.73 76.72, -152.51 77.01, -152.09 77.59 M-152.09 77.59 C-151.76 78.01, -151.42 78.43, -151.16 78.75 M-152.09 77.59 C-151.82 77.94, -151.54 78.28, -151.16 78.75 M-151.16 78.75 C-150.86 79.11, -150.57 79.48, -150.26 79.86 M-151.16 78.75 C-150.97 78.99, -150.77 79.23, -150.26 79.86 M-150.26 79.86 C-150 80.14, -149.75 80.41, -149.31 80.89 M-150.26 79.86 C-150.05 80.08, -149.84 80.31, -149.31 80.89 M-149.31 80.89 C-148.87 81.42, -148.44 81.95, -147.45 83.15 M-149.31 80.89 C-148.71 81.62, -148.11 82.34, -147.45 83.15 M-147.45 83.15 C-146.62 83.97, -145.8 84.8, -145.38 85.22 M-147.45 83.15 C-146.89 83.71, -146.33 84.27, -145.38 85.22 M-145.38 85.22 C-144.96 85.64, -144.54 86.06, -143.31 87.29 M-145.38 85.22 C-144.69 85.9, -144.01 86.59, -143.31 87.29 M-143.31 87.29 C-142.84 87.67, -142.38 88.05, -141.05 89.15 M-143.31 87.29 C-142.46 87.99, -141.61 88.69, -141.05 89.15 M-141.05 89.15 C-140.53 89.6, -140.01 90.05, -138.9 91 M-141.05 89.15 C-140.41 89.7, -139.77 90.25, -138.9 91 M-138.9 91 C-138.26 91.5, -137.61 92, -136.58 92.78 M-138.9 91 C-138.23 91.52, -137.55 92.04, -136.58 92.78 M-136.58 92.78 C-135.75 93.42, -134.92 94.05, -134.25 94.57 M-136.58 92.78 C-135.97 93.25, -135.36 93.72, -134.25 94.57 M-134.25 94.57 C-133.64 94.97, -133.03 95.37, -131.81 96.17 M-134.25 94.57 C-133.49 95.06, -132.73 95.56, -131.81 96.17 M-131.81 96.17 C-131.26 96.51, -130.7 96.85, -129.37 97.66 M-131.81 96.17 C-130.97 96.68, -130.13 97.2, -129.37 97.66 M-129.37 97.66 C-128.61 98.09, -127.85 98.53, -126.76 99.15 M-129.37 97.66 C-128.42 98.2, -127.47 98.74, -126.76 99.15 M-126.76 99.15 C-125.89 99.59, -125.03 100.04, -124.21 100.46 M-126.76 99.15 C-126.1 99.49, -125.44 99.83, -124.21 100.46 M-124.21 100.46 C-123.64 100.74, -123.06 101.01, -121.48 101.77 M-124.21 100.46 C-123.35 100.87, -122.49 101.28, -121.48 101.77 M-121.48 101.77 C-121.03 101.96, -120.59 102.15, -119.7 102.53 M-121.48 101.77 C-121.13 101.92, -120.77 102.07, -119.7 102.53 M-119.7 102.53 C-118.73 106.25, -117.76 109.98, -116.97 113.01 M-119.7 102.53 C-118.97 105.34, -118.24 108.14, -116.97 113.01 M-116.97 113.01 C-116.7 114.06, -116.43 115.12, -116.14 116.28 M-116.97 113.01 C-116.68 114.15, -116.39 115.3, -116.14 116.28 M-116.14 116.28 C-116.14 116.28, -116.14 116.28, -116.14 116.28 M-116.14 116.28 C-116.14 116.28, -116.14 116.28, -116.14 116.28 M-116.14 116.28 C-115.97 116.74, -115.81 117.19, -115.73 117.43 M-116.14 116.28 C-115.98 116.71, -115.83 117.15, -115.73 117.43 M-115.73 117.43 C-115.61 117.65, -115.49 117.87, -115.15 118.48 M-115.73 117.43 C-115.52 117.81, -115.31 118.19, -115.15 118.48 M-115.15 118.48 C-114.93 118.76, -114.7 119.04, -114.42 119.4 M-115.15 118.48 C-114.91 118.79, -114.66 119.09, -114.42 119.4 M-114.42 119.4 C-114.24 119.57, -114.06 119.73, -113.55 120.19 M-114.42 119.4 C-114.09 119.7, -113.76 120.01, -113.55 120.19 M-113.55 120.19 C-113.19 120.43, -112.82 120.67, -112.57 120.83 M-113.55 120.19 C-113.2 120.42, -112.85 120.65, -112.57 120.83 M-112.57 120.83 C-112.33 120.93, -112.1 121.04, -111.49 121.3 M-112.57 120.83 C-112.17 121.01, -111.77 121.18, -111.49 121.3 M-111.49 121.3 C-111.13 121.4, -110.78 121.49, -110.33 121.6 M-111.49 121.3 C-111.05 121.42, -110.6 121.53, -110.33 121.6 M-110.33 121.6 C-109.87 121.64, -109.4 121.68, -109.12 121.7 M-110.33 121.6 C-109.96 121.63, -109.58 121.66, -109.12 121.7 M-109.12 121.7 C-95.97 121.7, -82.82 121.7, -67.36 121.7 M-109.12 121.7 C-100.18 121.7, -91.24 121.7, -67.36 121.7 M-67.36 121.7 C-67.36 121.7, -67.36 121.7, -67.36 121.7 M-67.36 121.7 C-67.36 121.7, -67.36 121.7, -67.36 121.7 M-67.36 121.7 C-66.9 121.66, -66.44 121.62, -66.14 121.6 M-67.36 121.7 C-67.06 121.67, -66.75 121.65, -66.14 121.6 M-66.14 121.6 C-65.76 121.5, -65.38 121.4, -64.99 121.3 M-66.14 121.6 C-65.88 121.53, -65.61 121.46, -64.99 121.3 M-64.99 121.3 C-64.57 121.12, -64.16 120.93, -63.91 120.82 M-64.99 121.3 C-64.58 121.12, -64.17 120.94, -63.91 120.82 M-63.91 120.82 C-63.61 120.63, -63.32 120.44, -62.92 120.18 M-63.91 120.82 C-63.56 120.59, -63.21 120.36, -62.92 120.18 M-62.92 120.18 C-62.58 119.87, -62.25 119.56, -62.06 119.39 M-62.92 120.18 C-62.7 119.97, -62.47 119.77, -62.06 119.39 M-62.06 119.39 C-61.78 119.03, -61.5 118.68, -61.33 118.46 M-62.06 119.39 C-61.83 119.1, -61.6 118.81, -61.33 118.46 M-61.33 118.46 C-61.12 118.09, -60.91 117.71, -60.75 117.42 M-61.33 118.46 C-61.18 118.2, -61.03 117.93, -60.75 117.42 M-60.75 117.42 C-60.66 117.17, -60.57 116.91, -60.34 116.28 M-60.75 117.42 C-60.64 117.12, -60.54 116.83, -60.34 116.28 M-60.34 116.28 C-60.14 115.5, -59.94 114.72, -59.5 113.01 M-60.34 116.28 C-60.08 115.27, -59.82 114.26, -59.5 113.01 M-59.5 113.01 C-58.7 110.04, -57.89 107.07, -56.78 102.97 M-59.5 113.01 C-58.69 109.99, -57.87 106.98, -56.78 102.97 M-56.78 102.97 C-56.32 102.77, -55.86 102.57, -54.99 102.21 M-56.78 102.97 C-56.34 102.78, -55.9 102.6, -54.99 102.21 M-54.99 102.21 C-54.4 101.92, -53.81 101.64, -52.27 100.9 M-54.99 102.21 C-54.01 101.73, -53.02 101.26, -52.27 100.9 M-52.27 100.9 C-51.64 100.58, -51.02 100.26, -49.72 99.59 M-52.27 100.9 C-51.56 100.53, -50.86 100.17, -49.72 99.59 M-49.72 99.59 C-49.08 99.22, -48.44 98.86, -47.1 98.1 M-49.72 99.59 C-48.9 99.12, -48.08 98.65, -47.1 98.1 M-47.1 98.1 C-46.35 97.63, -45.59 97.17, -44.66 96.6 M-47.1 98.1 C-46.37 97.64, -45.63 97.19, -44.66 96.6 M-44.66 96.6 C-43.76 96.01, -42.85 95.41, -42.23 95 M-44.66 96.6 C-44.03 96.18, -43.39 95.77, -42.23 95 M-42.23 95 C-41.4 94.37, -40.57 93.73, -39.9 93.22 M-42.23 95 C-41.74 94.63, -41.26 94.26, -39.9 93.22 M-39.9 93.22 C-39.35 92.8, -38.81 92.39, -37.57 91.44 M-39.9 93.22 C-39.33 92.78, -38.75 92.34, -37.57 91.44 M-37.57 91.44 C-36.72 90.74, -35.88 90.04, -35.32 89.58 M-37.57 91.44 C-36.75 90.76, -35.92 90.08, -35.32 89.58 M-35.32 89.58 C-34.88 89.21, -34.44 88.83, -33.17 87.73 M-35.32 89.58 C-34.58 88.95, -33.84 88.31, -33.17 87.73 M-33.17 87.73 C-32.45 87.01, -31.73 86.29, -31.1 85.66 M-33.17 87.73 C-32.48 87.04, -31.79 86.35, -31.1 85.66 M-31.1 85.66 C-30.49 85.05, -29.88 84.44, -29.02 83.58 M-31.1 85.66 C-30.34 84.9, -29.58 84.14, -29.02 83.58 M-29.02 83.58 C-28.39 82.82, -27.76 82.05, -27.17 81.33 M-29.02 83.58 C-28.38 82.8, -27.73 82.01, -27.17 81.33 M-27.17 81.33 C-27.17 81.33, -27.17 81.33, -27.17 81.33 M-27.17 81.33 C-27.17 81.33, -27.17 81.33, -27.17 81.33 M-27.17 81.33 C-26.96 81.11, -26.75 80.88, -26.19 80.28 M-27.17 81.33 C-26.93 81.07, -26.69 80.81, -26.19 80.28 M-26.19 80.28 C-25.95 79.98, -25.71 79.68, -25.31 79.18 M-26.19 80.28 C-25.91 79.94, -25.64 79.59, -25.31 79.18 M-25.31 79.18 C-25.03 78.81, -24.74 78.45, -24.4 78 M-25.31 79.18 C-25 78.78, -24.69 78.38, -24.4 78 M-24.4 78 C-24.15 77.68, -23.91 77.35, -23.53 76.85 M-24.4 78 C-24.18 77.72, -23.97 77.44, -23.53 76.85 M-23.53 76.85 C-23.18 76.43, -22.83 76, -22.6 75.72 M-23.53 76.85 C-23.23 76.48, -22.92 76.11, -22.6 75.72 M-22.6 75.72 C-22.38 75.41, -22.17 75.11, -21.75 74.53 M-22.6 75.72 C-22.33 75.34, -22.07 74.97, -21.75 74.53 M-21.75 74.53 C-21.39 73.97, -21.02 73.42, -20.15 72.09 M-21.75 74.53 C-21.12 73.56, -20.48 72.59, -20.15 72.09 M-20.15 72.09 C-19.72 71.38, -19.29 70.68, -18.66 69.65 M-20.15 72.09 C-19.69 71.34, -19.23 70.59, -18.66 69.65 M-18.66 69.65 C-18.24 68.91, -17.82 68.18, -17.17 67.03 M-18.66 69.65 C-18.18 68.81, -17.7 67.97, -17.17 67.03 M-17.17 67.03 C-17.17 67.03, -17.17 67.03, -17.17 67.03 M-17.17 67.03 C-17.17 67.03, -17.17 67.03, -17.17 67.03 M-17.17 67.03 C-17 66.73, -16.83 66.42, -16.47 65.77 M-17.17 67.03 C-16.92 66.58, -16.67 66.13, -16.47 65.77 M-16.47 65.77 C-16.3 65.41, -16.12 65.04, -15.86 64.49 M-16.47 65.77 C-16.34 65.49, -16.2 65.2, -15.86 64.49 M-15.86 64.49 C-15.73 64.21, -15.61 63.93, -15.24 63.14 M-15.86 64.49 C-15.64 64.01, -15.42 63.52, -15.24 63.14 M-15.24 63.14 C-15.07 62.79, -14.89 62.44, -14.55 61.76 M-15.24 63.14 C-15.1 62.85, -14.96 62.56, -14.55 61.76 M-14.55 61.76 C-14.45 61.57, -14.35 61.38, -14.26 61.21 M-14.55 61.76 C-14.48 61.63, -14.41 61.49, -14.26 61.21 M-14.26 61.21 C-14.2 61.07, -14.14 60.94, -14.07 60.77 M-14.26 61.21 C-14.21 61.1, -14.17 60.99, -14.07 60.77 M-14.07 60.77 C-14 60.58, -13.93 60.39, -13.78 59.98 M-14.07 60.77 C-13.98 60.51, -13.88 60.24, -13.78 59.98 M-13.78 59.98 C-10.06 59.01, -6.33 58.04, -3.31 57.25 M-13.78 59.98 C-11.53 59.39, -9.28 58.8, -3.31 57.25 M-3.31 57.25 C-2.17 56.96, -1.04 56.67, -0.04 56.41 M-3.31 57.25 C-2.56 57.06, -1.81 56.87, -0.04 56.41 M-0.04 56.41 C-0.04 56.41, -0.04 56.41, -0.04 56.41 M-0.04 56.41 C-0.04 56.41, -0.04 56.41, -0.04 56.41 M-0.04 56.41 C0.32 56.29, 0.68 56.16, 1.12 56.01 M-0.04 56.41 C0.33 56.28, 0.71 56.15, 1.12 56.01 M1.12 56.01 C1.35 55.88, 1.58 55.75, 2.16 55.43 M1.12 56.01 C1.42 55.84, 1.73 55.66, 2.16 55.43 M2.16 55.43 C2.42 55.23, 2.67 55.02, 3.08 54.7 M2.16 55.43 C2.42 55.22, 2.69 55.01, 3.08 54.7 M3.08 54.7 C3.35 54.4, 3.62 54.11, 3.87 53.83 M3.08 54.7 C3.35 54.41, 3.61 54.12, 3.87 53.83 M3.87 53.83 C4.11 53.47, 4.34 53.11, 4.51 52.85 M3.87 53.83 C4.11 53.46, 4.36 53.09, 4.51 52.85 M4.51 52.85 C4.63 52.58, 4.75 52.3, 4.99 51.77 M4.51 52.85 C4.68 52.48, 4.84 52.11, 4.99 51.77 M4.99 51.77 C5.1 51.31, 5.22 50.85, 5.28 50.61 M4.99 51.77 C5.09 51.37, 5.19 50.97, 5.28 50.61 M5.28 50.61 C5.32 50.18, 5.35 49.75, 5.38 49.39 M5.28 50.61 C5.32 50.15, 5.36 49.69, 5.38 49.39 M5.38 49.39 C5.38 33.54, 5.38 17.69, 5.38 7.2 M5.38 49.39 C5.38 35.85, 5.38 22.3, 5.38 7.2 M5.38 7.2 C5.38 7.2, 5.38 7.2, 5.38 7.2 M5.38 7.2 C5.38 7.2, 5.38 7.2, 5.38 7.2 M5.38 7.2 C5.36 6.71, 5.33 6.22, 5.32 5.96 M5.38 7.2 C5.36 6.8, 5.34 6.4, 5.32 5.96 M5.32 5.96 C5.26 5.71, 5.2 5.46, 5.04 4.77 M5.32 5.96 C5.23 5.59, 5.15 5.22, 5.04 4.77 M5.04 4.77 C4.89 4.39, 4.73 4.02, 4.58 3.66 M5.04 4.77 C4.88 4.37, 4.72 3.98, 4.58 3.66 M4.58 3.66 C4.36 3.3, 4.13 2.94, 3.95 2.65 M4.58 3.66 C4.33 3.26, 4.09 2.87, 3.95 2.65 M3.95 2.65 C3.65 2.31, 3.35 1.98, 3.15 1.75 M3.95 2.65 C3.7 2.37, 3.46 2.1, 3.15 1.75 M3.15 1.75 C2.9 1.55, 2.64 1.34, 2.22 1 M3.15 1.75 C2.91 1.56, 2.67 1.37, 2.22 1 M2.22 1 C1.94 0.84, 1.65 0.68, 1.17 0.41 M2.22 1 C1.96 0.85, 1.69 0.7, 1.17 0.41 M1.17 0.41 C0.75 0.26, 0.33 0.12, 0 0 M1.17 0.41 C0.88 0.31, 0.59 0.21, 0 0 M0 0 C0 0, 0 0, 0 0 M0 0 C0 0, 0 0, 0 0 M0 0 C0 0, 0 0, 0 0 M0 0 C0 0, 0 0, 0 0" stroke="#000000" stroke-width="1" fill="none"></path></g></g><mask></mask><g stroke-linecap="round"><g transform="translate(179.47870579426763 112.06058108667624) rotate(0 -61.032123720264096 -12.366458612917825)" fill-rule="evenodd"><path d="M0 0 L0 0 L-0.6 2.71 L-1.32 5.36 L-2.15 7.97 L-3.08 10.52 L-4.12 13.01 L-5.26 15.44 L-6.5 17.81 L-7.83 20.12 L-9.26 22.35 L-10.77 24.52 L-12.38 26.62 L-14.07 28.65 L-15.84 30.59 L-17.69 32.46 L-19.61 34.25 L-21.61 35.96 L-23.68 37.58 L-25.81 39.11 L-28.01 40.55 L-30.27 41.9 L-32.59 43.16 L-34.97 44.31 L-37.39 45.37 L-39.87 46.32 L-42.39 47.18 L-44.96 47.92 L-47.57 48.55 L-50.22 49.08 L-52.9 49.49 L-55.62 49.78 L-58.37 49.96 L-61.14 50.01 L-64.35 49.93 L-67.52 49.68 L-70.64 49.28 L-73.71 48.73 L-76.73 48.03 L-79.68 47.19 L-82.58 46.2 L-85.41 45.08 L-88.17 43.83 L-90.86 42.45 L-93.47 40.94 L-96 39.32 L-98.44 37.57 L-100.8 35.72 L-103.06 33.75 L-105.22 31.68 L-107.28 29.51 L-109.24 27.25 L-111.09 24.89 L-112.82 22.44 L-114.44 19.9 L-115.94 17.29 L-117.31 14.6 L-118.55 11.83 L-119.67 8.99 L-120.64 6.09 L-121.48 3.13 L-122.17 0.11 L-122.71 -2.97 L-123.1 -6.09 L-123.34 -9.26 L-123.41 -12.48 L-123.32 -15.69 L-123.08 -18.86 L-122.67 -21.98 L-122.12 -25.05 L-121.42 -28.07 L-120.57 -31.03 L-119.59 -33.93 L-118.46 -36.76 L-117.21 -39.52 L-115.83 -42.21 L-114.32 -44.82 L-112.7 -47.35 L-110.96 -49.79 L-109.1 -52.15 L-107.14 -54.41 L-105.07 -56.57 L-102.9 -58.63 L-100.63 -60.58 L-98.28 -62.43 L-95.83 -64.17 L-93.29 -65.78 L-90.68 -67.28 L-87.99 -68.65 L-85.22 -69.89 L-82.39 -71.01 L-79.49 -71.98 L-76.52 -72.81 L-73.5 -73.5 L-70.43 -74.05 L-67.31 -74.44 L-64.14 -74.67 L-60.92 -74.74 L-57.72 -74.66 L-54.56 -74.42 L-51.45 -74.02 L-48.38 -73.47 L-45.37 -72.77 L-42.42 -71.93 L-39.52 -70.95 L-36.7 -69.83 L-33.94 -68.58 L-31.26 -67.21 L-28.65 -65.71 L-26.13 -64.09 L-23.69 -62.35 L-21.33 -60.5 L-19.08 -58.55 L-16.91 -56.49 L-14.85 -54.32 L-12.89 -52.06 L-11.05 -49.71 L-9.31 -47.27 L-7.69 -44.75 L-6.19 -42.14 L-4.81 -39.46 L-3.57 -36.7 L-2.45 -33.87 L-1.47 -30.98 L-0.63 -28.03 L0.07 -25.02 L0.62 -21.95 L1.02 -18.84 L1.26 -15.68 L1.35 -12.48 L1.24 -9.32 L0.99 -6.18 L0.57 -3.07 L0 0 L0 0" stroke="none" stroke-width="0" fill="#4285f4" fill-rule="evenodd"></path><path d="M0 0 C0 0, 0 0, 0 0 M0 0 C0 0, 0 0, 0 0 M0 0 C-0.19 0.86, -0.38 1.72, -0.6 2.71 M0 0 C-0.21 0.93, -0.41 1.86, -0.6 2.71 M-0.6 2.71 C-0.77 3.33, -0.94 3.96, -1.32 5.36 M-0.6 2.71 C-0.82 3.5, -1.03 4.3, -1.32 5.36 M-1.32 5.36 C-1.51 5.98, -1.71 6.59, -2.15 7.97 M-1.32 5.36 C-1.51 5.97, -1.7 6.57, -2.15 7.97 M-2.15 7.97 C-2.4 8.67, -2.66 9.37, -3.08 10.52 M-2.15 7.97 C-2.39 8.64, -2.64 9.3, -3.08 10.52 M-3.08 10.52 C-3.43 11.37, -3.79 12.22, -4.12 13.01 M-3.08 10.52 C-3.41 11.31, -3.74 12.11, -4.12 13.01 M-4.12 13.01 C-4.52 13.86, -4.92 14.72, -5.26 15.44 M-4.12 13.01 C-4.45 13.72, -4.79 14.44, -5.26 15.44 M-5.26 15.44 C-5.68 16.25, -6.11 17.06, -6.5 17.81 M-5.26 15.44 C-5.62 16.14, -5.98 16.83, -6.5 17.81 M-6.5 17.81 C-7 18.68, -7.5 19.54, -7.83 20.12 M-6.5 17.81 C-7.02 18.71, -7.54 19.61, -7.83 20.12 M-7.83 20.12 C-8.3 20.85, -8.77 21.59, -9.26 22.35 M-7.83 20.12 C-8.23 20.75, -8.64 21.38, -9.26 22.35 M-9.26 22.35 C-9.86 23.21, -10.46 24.07, -10.77 24.52 M-9.26 22.35 C-9.62 22.87, -9.98 23.38, -10.77 24.52 M-10.77 24.52 C-11.22 25.11, -11.67 25.69, -12.38 26.62 M-10.77 24.52 C-11.34 25.26, -11.91 26, -12.38 26.62 M-12.38 26.62 C-12.87 27.21, -13.37 27.81, -14.07 28.65 M-12.38 26.62 C-12.9 27.24, -13.42 27.86, -14.07 28.65 M-14.07 28.65 C-14.7 29.34, -15.32 30.03, -15.84 30.59 M-14.07 28.65 C-14.44 29.06, -14.81 29.47, -15.84 30.59 M-15.84 30.59 C-16.37 31.13, -16.9 31.66, -17.69 32.46 M-15.84 30.59 C-16.51 31.27, -17.18 31.95, -17.69 32.46 M-17.69 32.46 C-18.08 32.83, -18.48 33.2, -19.61 34.25 M-17.69 32.46 C-18.27 33, -18.85 33.54, -19.61 34.25 M-19.61 34.25 C-20.07 34.65, -20.53 35.04, -21.61 35.96 M-19.61 34.25 C-20.32 34.86, -21.04 35.47, -21.61 35.96 M-21.61 35.96 C-22.16 36.39, -22.72 36.83, -23.68 37.58 M-21.61 35.96 C-22.25 36.46, -22.88 36.95, -23.68 37.58 M-23.68 37.58 C-24.35 38.06, -25.03 38.55, -25.81 39.11 M-23.68 37.58 C-24.38 38.08, -25.09 38.59, -25.81 39.11 M-25.81 39.11 C-26.39 39.49, -26.96 39.87, -28.01 40.55 M-25.81 39.11 C-26.37 39.48, -26.93 39.84, -28.01 40.55 M-28.01 40.55 C-28.85 41.05, -29.69 41.55, -30.27 41.9 M-28.01 40.55 C-28.72 40.97, -29.42 41.4, -30.27 41.9 M-30.27 41.9 C-30.95 42.27, -31.64 42.64, -32.59 43.16 M-30.27 41.9 C-30.74 42.15, -31.2 42.41, -32.59 43.16 M-32.59 43.16 C-33.44 43.57, -34.29 43.98, -34.97 44.31 M-32.59 43.16 C-33.12 43.41, -33.65 43.67, -34.97 44.31 M-34.97 44.31 C-35.84 44.69, -36.71 45.07, -37.39 45.37 M-34.97 44.31 C-35.82 44.68, -36.67 45.06, -37.39 45.37 M-37.39 45.37 C-38.06 45.63, -38.74 45.89, -39.87 46.32 M-37.39 45.37 C-38.31 45.72, -39.23 46.08, -39.87 46.32 M-39.87 46.32 C-40.46 46.52, -41.05 46.72, -42.39 47.18 M-39.87 46.32 C-40.74 46.62, -41.61 46.91, -42.39 47.18 M-42.39 47.18 C-43.03 47.36, -43.67 47.55, -44.96 47.92 M-42.39 47.18 C-43.3 47.44, -44.21 47.7, -44.96 47.92 M-44.96 47.92 C-45.96 48.16, -46.96 48.41, -47.57 48.55 M-44.96 47.92 C-45.9 48.15, -46.84 48.38, -47.57 48.55 M-47.57 48.55 C-48.26 48.69, -48.95 48.83, -50.22 49.08 M-47.57 48.55 C-48.52 48.74, -49.46 48.93, -50.22 49.08 M-50.22 49.08 C-50.92 49.18, -51.62 49.29, -52.9 49.49 M-50.22 49.08 C-50.8 49.17, -51.38 49.26, -52.9 49.49 M-52.9 49.49 C-53.48 49.55, -54.06 49.61, -55.62 49.78 M-52.9 49.49 C-53.6 49.56, -54.29 49.64, -55.62 49.78 M-55.62 49.78 C-56.72 49.85, -57.81 49.92, -58.37 49.96 M-55.62 49.78 C-56.37 49.83, -57.11 49.88, -58.37 49.96 M-58.37 49.96 C-59.05 49.97, -59.73 49.98, -61.14 50.01 M-58.37 49.96 C-59.24 49.97, -60.1 49.99, -61.14 50.01 M-61.14 50.01 C-62.18 49.98, -63.22 49.96, -64.35 49.93 M-61.14 50.01 C-62.17 49.98, -63.2 49.96, -64.35 49.93 M-64.35 49.93 C-65.11 49.87, -65.87 49.81, -67.52 49.68 M-64.35 49.93 C-65.25 49.86, -66.16 49.79, -67.52 49.68 M-67.52 49.68 C-68.27 49.59, -69.03 49.49, -70.64 49.28 M-67.52 49.68 C-68.45 49.56, -69.39 49.44, -70.64 49.28 M-70.64 49.28 C-71.59 49.11, -72.53 48.94, -73.71 48.73 M-70.64 49.28 C-71.6 49.11, -72.57 48.94, -73.71 48.73 M-73.71 48.73 C-74.76 48.49, -75.81 48.24, -76.73 48.03 M-73.71 48.73 C-74.87 48.46, -76.03 48.19, -76.73 48.03 M-76.73 48.03 C-77.62 47.78, -78.51 47.52, -79.68 47.19 M-76.73 48.03 C-77.41 47.84, -78.09 47.64, -79.68 47.19 M-79.68 47.19 C-80.63 46.87, -81.57 46.55, -82.58 46.2 M-79.68 47.19 C-80.52 46.9, -81.35 46.62, -82.58 46.2 M-82.58 46.2 C-83.44 45.86, -84.3 45.52, -85.41 45.08 M-82.58 46.2 C-83.31 45.91, -84.03 45.63, -85.41 45.08 M-85.41 45.08 C-86.06 44.79, -86.72 44.49, -88.17 43.83 M-85.41 45.08 C-86.41 44.63, -87.41 44.18, -88.17 43.83 M-88.17 43.83 C-89.08 43.36, -89.99 42.89, -90.86 42.45 M-88.17 43.83 C-88.98 43.41, -89.79 43, -90.86 42.45 M-90.86 42.45 C-91.48 42.09, -92.09 41.74, -93.47 40.94 M-90.86 42.45 C-91.64 42, -92.42 41.55, -93.47 40.94 M-93.47 40.94 C-94.14 40.51, -94.8 40.09, -96 39.32 M-93.47 40.94 C-94.13 40.51, -94.8 40.09, -96 39.32 M-96 39.32 C-96.64 38.86, -97.27 38.41, -98.44 37.57 M-96 39.32 C-96.56 38.91, -97.13 38.51, -98.44 37.57 M-98.44 37.57 C-99.08 37.07, -99.72 36.57, -100.8 35.72 M-98.44 37.57 C-99.22 36.96, -99.99 36.35, -100.8 35.72 M-100.8 35.72 C-101.55 35.06, -102.31 34.4, -103.06 33.75 M-100.8 35.72 C-101.31 35.27, -101.82 34.83, -103.06 33.75 M-103.06 33.75 C-103.9 32.94, -104.75 32.13, -105.22 31.68 M-103.06 33.75 C-103.66 33.18, -104.27 32.6, -105.22 31.68 M-105.22 31.68 C-105.78 31.1, -106.34 30.51, -107.28 29.51 M-105.22 31.68 C-106.03 30.83, -106.85 29.97, -107.28 29.51 M-107.28 29.51 C-108.05 28.63, -108.82 27.74, -109.24 27.25 M-107.28 29.51 C-108.02 28.66, -108.76 27.8, -109.24 27.25 M-109.24 27.25 C-109.91 26.39, -110.58 25.54, -111.09 24.89 M-109.24 27.25 C-109.95 26.34, -110.66 25.43, -111.09 24.89 M-111.09 24.89 C-111.56 24.22, -112.03 23.55, -112.82 22.44 M-111.09 24.89 C-111.57 24.21, -112.05 23.52, -112.82 22.44 M-112.82 22.44 C-113.3 21.7, -113.77 20.96, -114.44 19.9 M-112.82 22.44 C-113.28 21.72, -113.74 21.01, -114.44 19.9 M-114.44 19.9 C-115 18.93, -115.55 17.96, -115.94 17.29 M-114.44 19.9 C-114.93 19.05, -115.42 18.19, -115.94 17.29 M-115.94 17.29 C-116.25 16.67, -116.57 16.06, -117.31 14.6 M-115.94 17.29 C-116.37 16.44, -116.8 15.6, -117.31 14.6 M-117.31 14.6 C-117.63 13.88, -117.96 13.16, -118.55 11.83 M-117.31 14.6 C-117.63 13.88, -117.95 13.17, -118.55 11.83 M-118.55 11.83 C-118.92 10.91, -119.28 9.98, -119.67 8.99 M-118.55 11.83 C-118.94 10.85, -119.32 9.87, -119.67 8.99 M-119.67 8.99 C-119.91 8.27, -120.15 7.54, -120.64 6.09 M-119.67 8.99 C-119.95 8.15, -120.23 7.3, -120.64 6.09 M-120.64 6.09 C-120.83 5.43, -121.01 4.78, -121.48 3.13 M-120.64 6.09 C-120.96 4.96, -121.28 3.83, -121.48 3.13 M-121.48 3.13 C-121.67 2.26, -121.87 1.4, -122.17 0.11 M-121.48 3.13 C-121.64 2.41, -121.81 1.68, -122.17 0.11 M-122.17 0.11 C-122.35 -0.95, -122.54 -2.01, -122.71 -2.97 M-122.17 0.11 C-122.31 -0.71, -122.46 -1.52, -122.71 -2.97 M-122.71 -2.97 C-122.81 -3.75, -122.91 -4.52, -123.1 -6.09 M-122.71 -2.97 C-122.79 -3.6, -122.87 -4.23, -123.1 -6.09 M-123.1 -6.09 C-123.15 -6.74, -123.2 -7.38, -123.34 -9.26 M-123.1 -6.09 C-123.19 -7.29, -123.28 -8.49, -123.34 -9.26 M-123.34 -9.26 C-123.35 -10.09, -123.37 -10.91, -123.41 -12.48 M-123.34 -9.26 C-123.36 -10.13, -123.38 -10.99, -123.41 -12.48 M-123.41 -12.48 C-123.38 -13.43, -123.36 -14.39, -123.32 -15.69 M-123.41 -12.48 C-123.38 -13.58, -123.35 -14.68, -123.32 -15.69 M-123.32 -15.69 C-123.23 -16.83, -123.14 -17.98, -123.08 -18.86 M-123.32 -15.69 C-123.27 -16.38, -123.21 -17.08, -123.08 -18.86 M-123.08 -18.86 C-122.99 -19.52, -122.9 -20.18, -122.67 -21.98 M-123.08 -18.86 C-122.95 -19.85, -122.82 -20.85, -122.67 -21.98 M-122.67 -21.98 C-122.53 -22.75, -122.39 -23.53, -122.12 -25.05 M-122.67 -21.98 C-122.55 -22.66, -122.43 -23.33, -122.12 -25.05 M-122.12 -25.05 C-121.9 -26, -121.68 -26.94, -121.42 -28.07 M-122.12 -25.05 C-121.9 -25.98, -121.69 -26.91, -121.42 -28.07 M-121.42 -28.07 C-121.12 -29.12, -120.82 -30.17, -120.57 -31.03 M-121.42 -28.07 C-121.14 -29.04, -120.86 -30.01, -120.57 -31.03 M-120.57 -31.03 C-120.32 -31.78, -120.06 -32.53, -119.59 -33.93 M-120.57 -31.03 C-120.33 -31.74, -120.09 -32.45, -119.59 -33.93 M-119.59 -33.93 C-119.22 -34.86, -118.85 -35.79, -118.46 -36.76 M-119.59 -33.93 C-119.15 -35.03, -118.71 -36.13, -118.46 -36.76 M-118.46 -36.76 C-118.1 -37.56, -117.74 -38.35, -117.21 -39.52 M-118.46 -36.76 C-118.08 -37.62, -117.69 -38.48, -117.21 -39.52 M-117.21 -39.52 C-116.7 -40.52, -116.18 -41.53, -115.83 -42.21 M-117.21 -39.52 C-116.75 -40.43, -116.28 -41.34, -115.83 -42.21 M-115.83 -42.21 C-115.33 -43.07, -114.84 -43.94, -114.32 -44.82 M-115.83 -42.21 C-115.5 -42.79, -115.16 -43.37, -114.32 -44.82 M-114.32 -44.82 C-113.81 -45.63, -113.29 -46.43, -112.7 -47.35 M-114.32 -44.82 C-113.84 -45.57, -113.36 -46.33, -112.7 -47.35 M-112.7 -47.35 C-112.18 -48.08, -111.66 -48.81, -110.96 -49.79 M-112.7 -47.35 C-112.12 -48.16, -111.54 -48.98, -110.96 -49.79 M-110.96 -49.79 C-110.34 -50.58, -109.72 -51.37, -109.1 -52.15 M-110.96 -49.79 C-110.43 -50.46, -109.91 -51.12, -109.1 -52.15 M-109.1 -52.15 C-108.33 -53.03, -107.57 -53.91, -107.14 -54.41 M-109.1 -52.15 C-108.43 -52.91, -107.77 -53.68, -107.14 -54.41 M-107.14 -54.41 C-106.67 -54.89, -106.2 -55.38, -105.07 -56.57 M-107.14 -54.41 C-106.53 -55.04, -105.92 -55.67, -105.07 -56.57 M-105.07 -56.57 C-104.22 -57.38, -103.36 -58.19, -102.9 -58.63 M-105.07 -56.57 C-104.25 -57.34, -103.43 -58.12, -102.9 -58.63 M-102.9 -58.63 C-102.14 -59.28, -101.39 -59.93, -100.63 -60.58 M-102.9 -58.63 C-102.4 -59.06, -101.89 -59.5, -100.63 -60.58 M-100.63 -60.58 C-99.75 -61.28, -98.86 -61.98, -98.28 -62.43 M-100.63 -60.58 C-99.89 -61.17, -99.14 -61.75, -98.28 -62.43 M-98.28 -62.43 C-97.7 -62.84, -97.13 -63.24, -95.83 -64.17 M-98.28 -62.43 C-97.42 -63.04, -96.57 -63.64, -95.83 -64.17 M-95.83 -64.17 C-94.82 -64.81, -93.81 -65.45, -93.29 -65.78 M-95.83 -64.17 C-95.14 -64.6, -94.46 -65.04, -93.29 -65.78 M-93.29 -65.78 C-92.67 -66.14, -92.05 -66.5, -90.68 -67.28 M-93.29 -65.78 C-92.66 -66.15, -92.03 -66.51, -90.68 -67.28 M-90.68 -67.28 C-89.6 -67.83, -88.53 -68.38, -87.99 -68.65 M-90.68 -67.28 C-89.9 -67.68, -89.11 -68.08, -87.99 -68.65 M-87.99 -68.65 C-87.17 -69.02, -86.35 -69.39, -85.22 -69.89 M-87.99 -68.65 C-87.27 -68.98, -86.55 -69.3, -85.22 -69.89 M-85.22 -69.89 C-84.34 -70.24, -83.45 -70.59, -82.39 -71.01 M-85.22 -69.89 C-84.46 -70.19, -83.71 -70.49, -82.39 -71.01 M-82.39 -71.01 C-81.54 -71.29, -80.69 -71.58, -79.49 -71.98 M-82.39 -71.01 C-81.66 -71.25, -80.93 -71.5, -79.49 -71.98 M-79.49 -71.98 C-78.46 -72.27, -77.42 -72.56, -76.52 -72.81 M-79.49 -71.98 C-78.81 -72.17, -78.13 -72.36, -76.52 -72.81 M-76.52 -72.81 C-75.48 -73.05, -74.43 -73.29, -73.5 -73.5 M-76.52 -72.81 C-75.77 -72.99, -75.01 -73.16, -73.5 -73.5 M-73.5 -73.5 C-72.55 -73.67, -71.6 -73.84, -70.43 -74.05 M-73.5 -73.5 C-72.75 -73.64, -71.99 -73.77, -70.43 -74.05 M-70.43 -74.05 C-69.45 -74.17, -68.46 -74.29, -67.31 -74.44 M-70.43 -74.05 C-69.23 -74.2, -68.03 -74.35, -67.31 -74.44 M-67.31 -74.44 C-66.41 -74.5, -65.5 -74.57, -64.14 -74.67 M-67.31 -74.44 C-66.28 -74.51, -65.25 -74.59, -64.14 -74.67 M-64.14 -74.67 C-63.21 -74.69, -62.28 -74.71, -60.92 -74.74 M-64.14 -74.67 C-62.96 -74.7, -61.78 -74.72, -60.92 -74.74 M-60.92 -74.74 C-59.83 -74.72, -58.73 -74.69, -57.72 -74.66 M-60.92 -74.74 C-59.93 -74.72, -58.94 -74.69, -57.72 -74.66 M-57.72 -74.66 C-56.78 -74.59, -55.84 -74.51, -54.56 -74.42 M-57.72 -74.66 C-57.09 -74.61, -56.45 -74.56, -54.56 -74.42 M-54.56 -74.42 C-53.8 -74.32, -53.04 -74.22, -51.45 -74.02 M-54.56 -74.42 C-53.35 -74.26, -52.14 -74.11, -51.45 -74.02 M-51.45 -74.02 C-50.82 -73.91, -50.19 -73.79, -48.38 -73.47 M-51.45 -74.02 C-50.59 -73.86, -49.73 -73.71, -48.38 -73.47 M-48.38 -73.47 C-47.37 -73.24, -46.37 -73, -45.37 -72.77 M-48.38 -73.47 C-47.22 -73.2, -46.06 -72.93, -45.37 -72.77 M-45.37 -72.77 C-44.75 -72.59, -44.12 -72.42, -42.42 -71.93 M-45.37 -72.77 C-44.53 -72.53, -43.69 -72.29, -42.42 -71.93 M-42.42 -71.93 C-41.72 -71.69, -41.02 -71.46, -39.52 -70.95 M-42.42 -71.93 C-41.65 -71.67, -40.88 -71.41, -39.52 -70.95 M-39.52 -70.95 C-38.53 -70.56, -37.54 -70.16, -36.7 -69.83 M-39.52 -70.95 C-38.71 -70.63, -37.9 -70.31, -36.7 -69.83 M-36.7 -69.83 C-35.64 -69.35, -34.58 -68.87, -33.94 -68.58 M-36.7 -69.83 C-36.07 -69.55, -35.43 -69.26, -33.94 -68.58 M-33.94 -68.58 C-32.87 -68.04, -31.8 -67.49, -31.26 -67.21 M-33.94 -68.58 C-33.28 -68.25, -32.62 -67.91, -31.26 -67.21 M-31.26 -67.21 C-30.57 -66.81, -29.88 -66.42, -28.65 -65.71 M-31.26 -67.21 C-30.69 -66.88, -30.11 -66.55, -28.65 -65.71 M-28.65 -65.71 C-27.75 -65.13, -26.84 -64.55, -26.13 -64.09 M-28.65 -65.71 C-27.86 -65.2, -27.08 -64.7, -26.13 -64.09 M-26.13 -64.09 C-25.23 -63.45, -24.33 -62.81, -23.69 -62.35 M-26.13 -64.09 C-25.6 -63.71, -25.07 -63.33, -23.69 -62.35 M-23.69 -62.35 C-22.8 -61.66, -21.91 -60.96, -21.33 -60.5 M-23.69 -62.35 C-22.93 -61.76, -22.18 -61.17, -21.33 -60.5 M-21.33 -60.5 C-20.72 -59.97, -20.11 -59.44, -19.08 -58.55 M-21.33 -60.5 C-20.56 -59.83, -19.79 -59.16, -19.08 -58.55 M-19.08 -58.55 C-18.57 -58.07, -18.07 -57.59, -16.91 -56.49 M-19.08 -58.55 C-18.43 -57.93, -17.78 -57.31, -16.91 -56.49 M-16.91 -56.49 C-16.22 -55.76, -15.53 -55.04, -14.85 -54.32 M-16.91 -56.49 C-16.18 -55.72, -15.46 -54.96, -14.85 -54.32 M-14.85 -54.32 C-14.38 -53.78, -13.91 -53.23, -12.89 -52.06 M-14.85 -54.32 C-14.14 -53.5, -13.42 -52.67, -12.89 -52.06 M-12.89 -52.06 C-12.52 -51.59, -12.14 -51.11, -11.05 -49.71 M-12.89 -52.06 C-12.25 -51.24, -11.6 -50.42, -11.05 -49.71 M-11.05 -49.71 C-10.43 -48.85, -9.81 -47.98, -9.31 -47.27 M-11.05 -49.71 C-10.66 -49.17, -10.27 -48.62, -9.31 -47.27 M-9.31 -47.27 C-8.81 -46.49, -8.31 -45.71, -7.69 -44.75 M-9.31 -47.27 C-8.88 -46.6, -8.45 -45.93, -7.69 -44.75 M-7.69 -44.75 C-7.3 -44.07, -6.91 -43.39, -6.19 -42.14 M-7.69 -44.75 C-7.29 -44.05, -6.89 -43.36, -6.19 -42.14 M-6.19 -42.14 C-5.68 -41.14, -5.17 -40.15, -4.81 -39.46 M-6.19 -42.14 C-5.67 -41.12, -5.14 -40.1, -4.81 -39.46 M-4.81 -39.46 C-4.46 -38.68, -4.11 -37.91, -3.57 -36.7 M-4.81 -39.46 C-4.46 -38.69, -4.11 -37.91, -3.57 -36.7 M-3.57 -36.7 C-3.24 -35.87, -2.91 -35.05, -2.45 -33.87 M-3.57 -36.7 C-3.33 -36.11, -3.1 -35.52, -2.45 -33.87 M-2.45 -33.87 C-2.18 -33.07, -1.91 -32.28, -1.47 -30.98 M-2.45 -33.87 C-2.12 -32.91, -1.79 -31.94, -1.47 -30.98 M-1.47 -30.98 C-1.25 -30.21, -1.03 -29.43, -0.63 -28.03 M-1.47 -30.98 C-1.3 -30.38, -1.13 -29.78, -0.63 -28.03 M-0.63 -28.03 C-0.39 -27, -0.15 -25.97, 0.07 -25.02 M-0.63 -28.03 C-0.42 -27.15, -0.22 -26.27, 0.07 -25.02 M0.07 -25.02 C0.21 -24.23, 0.35 -23.43, 0.62 -21.95 M0.07 -25.02 C0.21 -24.22, 0.35 -23.43, 0.62 -21.95 M0.62 -21.95 C0.74 -20.99, 0.87 -20.03, 1.02 -18.84 M0.62 -21.95 C0.74 -21.01, 0.86 -20.07, 1.02 -18.84 M1.02 -18.84 C1.1 -17.76, 1.18 -16.69, 1.26 -15.68 M1.02 -18.84 C1.07 -18.18, 1.12 -17.53, 1.26 -15.68 M1.26 -15.68 C1.28 -14.9, 1.3 -14.11, 1.35 -12.48 M1.26 -15.68 C1.29 -14.7, 1.31 -13.72, 1.35 -12.48 M1.35 -12.48 C1.31 -11.35, 1.27 -10.22, 1.24 -9.32 M1.35 -12.48 C1.31 -11.46, 1.28 -10.45, 1.24 -9.32 M1.24 -9.32 C1.15 -8.22, 1.06 -7.11, 0.99 -6.18 M1.24 -9.32 C1.16 -8.28, 1.07 -7.25, 0.99 -6.18 M0.99 -6.18 C0.89 -5.44, 0.79 -4.69, 0.57 -3.07 M0.99 -6.18 C0.9 -5.53, 0.81 -4.88, 0.57 -3.07 M0.57 -3.07 C0.42 -2.25, 0.26 -1.42, 0 0 M0.57 -3.07 C0.35 -1.87, 0.12 -0.66, 0 0 M0 0 C0 0, 0 0, 0 0 M0 0 C0 0, 0 0, 0 0 M0 0 C0 0, 0 0, 0 0 M0 0 C0 0, 0 0, 0 0" stroke="#000000" stroke-width="1" fill="none"></path></g></g><mask></mask><g stroke-linecap="round"><g transform="translate(118.51932860626312 37.352613130138494) rotate(0 -0.12730485698970284 62.37787788635789)" fill-rule="evenodd"><path d="M0 0 L0 0 L-3.21 0.08 L-6.38 0.31 L-9.5 0.71 L-12.57 1.25 L-15.59 1.94 L-18.55 2.78 L-21.45 3.76 L-24.28 4.87 L-27.05 6.12 L-29.74 7.49 L-32.36 8.99 L-34.89 10.6 L-37.34 12.34 L-39.7 14.19 L-41.96 16.14 L-44.13 18.2 L-46.2 20.37 L-48.17 22.63 L-50.02 24.98 L-51.77 27.42 L-53.39 29.95 L-54.9 32.56 L-56.28 35.24 L-57.54 38 L-58.66 40.83 L-59.65 43.73 L-60.49 46.69 L-61.19 49.7 L-61.75 52.77 L-62.15 55.89 L-62.4 59.06 L-62.49 62.27 L-62.41 65.48 L-62.18 68.65 L-61.79 71.77 L-61.25 74.84 L-60.55 77.86 L-59.72 80.82 L-58.74 83.72 L-57.63 86.55 L-56.39 89.32 L-55.01 92.01 L-53.52 94.62 L-51.9 97.16 L-50.16 99.61 L-48.32 101.97 L-46.36 104.23 L-44.3 106.4 L-42.13 108.47 L-39.87 110.44 L-37.52 112.29 L-35.08 114.03 L-32.55 115.66 L-29.94 117.17 L-27.25 118.55 L-24.49 119.81 L-21.66 120.93 L-18.76 121.91 L-15.8 122.76 L-12.79 123.46 L-9.72 124.02 L-6.59 124.42 L-3.43 124.67 L-0.22 124.76 L2.56 124.7 L5.3 124.53 L8.02 124.23 L10.7 123.82 L13.35 123.3 L15.96 122.66 L18.53 121.92 L21.06 121.07 L23.54 120.11 L25.97 119.06 L28.34 117.9 L30.66 116.65 L32.92 115.3 L35.12 113.85 L37.26 112.32 L39.33 110.7 L41.33 109 L43.25 107.21 L45.1 105.34 L46.87 103.39 L48.56 101.37 L50.16 99.27 L51.68 97.1 L53.11 94.86 L54.44 92.55 L55.68 90.18 L56.82 87.75 L57.85 85.26 L58.79 82.71 L59.61 80.11 L60.32 77.45 L60.92 74.74 L61.5 71.65 L61.91 68.55 L62.15 65.44 L62.23 62.31 L62.15 59.1 L61.91 55.94 L61.52 52.82 L60.97 49.75 L60.27 46.74 L59.43 43.78 L58.46 40.89 L57.34 38.06 L56.1 35.3 L54.72 32.62 L53.22 30.01 L51.6 27.48 L49.87 25.04 L48.02 22.69 L46.07 20.43 L44.01 18.26 L41.84 16.2 L39.59 14.24 L37.24 12.39 L34.8 10.66 L32.27 9.04 L29.66 7.54 L26.98 6.16 L24.22 4.91 L21.4 3.8 L18.51 2.81 L15.55 1.97 L12.54 1.28 L9.48 0.73 L6.36 0.33 L3.2 0.08 L0 0 L0 0" stroke="none" stroke-width="0" fill="#fff" fill-rule="evenodd"></path><path d="M0 0 C0 0, 0 0, 0 0 M0 0 C0 0, 0 0, 0 0 M0 0 C-0.81 0.02, -1.62 0.04, -3.21 0.08 M0 0 C-1.1 0.03, -2.2 0.05, -3.21 0.08 M-3.21 0.08 C-3.89 0.13, -4.57 0.18, -6.38 0.31 M-3.21 0.08 C-4.2 0.15, -5.2 0.23, -6.38 0.31 M-6.38 0.31 C-7.53 0.46, -8.68 0.6, -9.5 0.71 M-6.38 0.31 C-7.38 0.44, -8.38 0.57, -9.5 0.71 M-9.5 0.71 C-10.22 0.84, -10.94 0.96, -12.57 1.25 M-9.5 0.71 C-10.63 0.91, -11.77 1.11, -12.57 1.25 M-12.57 1.25 C-13.71 1.51, -14.85 1.78, -15.59 1.94 M-12.57 1.25 C-13.21 1.4, -13.85 1.55, -15.59 1.94 M-15.59 1.94 C-16.35 2.16, -17.11 2.38, -18.55 2.78 M-15.59 1.94 C-16.3 2.14, -17.01 2.35, -18.55 2.78 M-18.55 2.78 C-19.66 3.16, -20.78 3.53, -21.45 3.76 M-18.55 2.78 C-19.35 3.05, -20.16 3.32, -21.45 3.76 M-21.45 3.76 C-22.5 4.17, -23.54 4.58, -24.28 4.87 M-21.45 3.76 C-22.26 4.08, -23.08 4.4, -24.28 4.87 M-24.28 4.87 C-25.06 5.22, -25.84 5.57, -27.05 6.12 M-24.28 4.87 C-25.28 5.32, -26.27 5.77, -27.05 6.12 M-27.05 6.12 C-27.84 6.52, -28.63 6.92, -29.74 7.49 M-27.05 6.12 C-27.62 6.41, -28.2 6.7, -29.74 7.49 M-29.74 7.49 C-30.39 7.86, -31.04 8.23, -32.36 8.99 M-29.74 7.49 C-30.76 8.07, -31.78 8.66, -32.36 8.99 M-32.36 8.99 C-33.11 9.47, -33.86 9.95, -34.89 10.6 M-32.36 8.99 C-33.25 9.56, -34.15 10.13, -34.89 10.6 M-34.89 10.6 C-35.52 11.05, -36.16 11.5, -37.34 12.34 M-34.89 10.6 C-35.59 11.1, -36.28 11.59, -37.34 12.34 M-37.34 12.34 C-38 12.85, -38.65 13.37, -39.7 14.19 M-37.34 12.34 C-38.23 13.04, -39.13 13.74, -39.7 14.19 M-39.7 14.19 C-40.54 14.92, -41.38 15.64, -41.96 16.14 M-39.7 14.19 C-40.25 14.67, -40.81 15.15, -41.96 16.14 M-41.96 16.14 C-42.58 16.73, -43.19 17.31, -44.13 18.2 M-41.96 16.14 C-42.83 16.97, -43.7 17.79, -44.13 18.2 M-44.13 18.2 C-44.62 18.72, -45.11 19.23, -46.2 20.37 M-44.13 18.2 C-44.67 18.77, -45.22 19.34, -46.2 20.37 M-46.2 20.37 C-46.97 21.25, -47.73 22.13, -48.17 22.63 M-46.2 20.37 C-46.71 20.95, -47.21 21.53, -48.17 22.63 M-48.17 22.63 C-48.89 23.54, -49.61 24.46, -50.02 24.98 M-48.17 22.63 C-48.55 23.11, -48.93 23.6, -50.02 24.98 M-50.02 24.98 C-50.4 25.51, -50.79 26.05, -51.77 27.42 M-50.02 24.98 C-50.42 25.54, -50.83 26.11, -51.77 27.42 M-51.77 27.42 C-52.35 28.33, -52.93 29.23, -53.39 29.95 M-51.77 27.42 C-52.32 28.28, -52.87 29.14, -53.39 29.95 M-53.39 29.95 C-53.74 30.55, -54.09 31.15, -54.9 32.56 M-53.39 29.95 C-53.9 30.83, -54.41 31.71, -54.9 32.56 M-54.9 32.56 C-55.4 33.52, -55.89 34.49, -56.28 35.24 M-54.9 32.56 C-55.19 33.12, -55.48 33.69, -56.28 35.24 M-56.28 35.24 C-56.56 35.85, -56.84 36.46, -57.54 38 M-56.28 35.24 C-56.57 35.88, -56.86 36.51, -57.54 38 M-57.54 38 C-57.98 39.13, -58.43 40.25, -58.66 40.83 M-57.54 38 C-57.93 38.98, -58.31 39.97, -58.66 40.83 M-58.66 40.83 C-58.88 41.49, -59.11 42.16, -59.65 43.73 M-58.66 40.83 C-58.95 41.68, -59.24 42.53, -59.65 43.73 M-59.65 43.73 C-59.96 44.81, -60.27 45.9, -60.49 46.69 M-59.65 43.73 C-59.96 44.82, -60.27 45.91, -60.49 46.69 M-60.49 46.69 C-60.65 47.38, -60.81 48.07, -61.19 49.7 M-60.49 46.69 C-60.74 47.74, -60.98 48.8, -61.19 49.7 M-61.19 49.7 C-61.39 50.78, -61.58 51.85, -61.75 52.77 M-61.19 49.7 C-61.35 50.56, -61.5 51.42, -61.75 52.77 M-61.75 52.77 C-61.84 53.51, -61.94 54.25, -62.15 55.89 M-61.75 52.77 C-61.89 53.91, -62.04 55.04, -62.15 55.89 M-62.15 55.89 C-62.23 56.91, -62.31 57.93, -62.4 59.06 M-62.15 55.89 C-62.24 57.06, -62.33 58.23, -62.4 59.06 M-62.4 59.06 C-62.42 59.73, -62.44 60.4, -62.49 62.27 M-62.4 59.06 C-62.43 60.1, -62.46 61.15, -62.49 62.27 M-62.49 62.27 C-62.47 63.04, -62.45 63.81, -62.41 65.48 M-62.49 62.27 C-62.46 63.28, -62.44 64.28, -62.41 65.48 M-62.41 65.48 C-62.33 66.54, -62.26 67.61, -62.18 68.65 M-62.41 65.48 C-62.33 66.65, -62.24 67.81, -62.18 68.65 M-62.18 68.65 C-62.04 69.76, -61.9 70.87, -61.79 71.77 M-62.18 68.65 C-62.07 69.5, -61.96 70.36, -61.79 71.77 M-61.79 71.77 C-61.6 72.85, -61.41 73.93, -61.25 74.84 M-61.79 71.77 C-61.65 72.57, -61.51 73.37, -61.25 74.84 M-61.25 74.84 C-61.03 75.78, -60.81 76.72, -60.55 77.86 M-61.25 74.84 C-60.97 76.04, -60.69 77.25, -60.55 77.86 M-60.55 77.86 C-60.36 78.53, -60.17 79.2, -59.72 80.82 M-60.55 77.86 C-60.3 78.76, -60.05 79.65, -59.72 80.82 M-59.72 80.82 C-59.49 81.5, -59.26 82.18, -58.74 83.72 M-59.72 80.82 C-59.41 81.75, -59.09 82.68, -58.74 83.72 M-58.74 83.72 C-58.44 84.49, -58.14 85.27, -57.63 86.55 M-58.74 83.72 C-58.48 84.39, -58.22 85.06, -57.63 86.55 M-57.63 86.55 C-57.33 87.22, -57.03 87.88, -56.39 89.32 M-57.63 86.55 C-57.31 87.27, -56.98 88, -56.39 89.32 M-56.39 89.32 C-56.06 89.96, -55.73 90.61, -55.01 92.01 M-56.39 89.32 C-55.93 90.22, -55.47 91.12, -55.01 92.01 M-55.01 92.01 C-54.51 92.89, -54.01 93.77, -53.52 94.62 M-55.01 92.01 C-54.53 92.85, -54.05 93.7, -53.52 94.62 M-53.52 94.62 C-53.17 95.17, -52.82 95.71, -51.9 97.16 M-53.52 94.62 C-53.02 95.41, -52.52 96.19, -51.9 97.16 M-51.9 97.16 C-51.34 97.94, -50.79 98.73, -50.16 99.61 M-51.9 97.16 C-51.21 98.13, -50.52 99.11, -50.16 99.61 M-50.16 99.61 C-49.56 100.37, -48.96 101.14, -48.32 101.97 M-50.16 99.61 C-49.78 100.09, -49.4 100.58, -48.32 101.97 M-48.32 101.97 C-47.78 102.59, -47.24 103.21, -46.36 104.23 M-48.32 101.97 C-47.8 102.57, -47.28 103.17, -46.36 104.23 M-46.36 104.23 C-45.86 104.75, -45.37 105.28, -44.3 106.4 M-46.36 104.23 C-45.72 104.91, -45.08 105.58, -44.3 106.4 M-44.3 106.4 C-43.7 106.97, -43.11 107.54, -42.13 108.47 M-44.3 106.4 C-43.68 106.99, -43.06 107.59, -42.13 108.47 M-42.13 108.47 C-41.53 108.99, -40.94 109.51, -39.87 110.44 M-42.13 108.47 C-41.59 108.94, -41.06 109.41, -39.87 110.44 M-39.87 110.44 C-39.21 110.96, -38.54 111.49, -37.52 112.29 M-39.87 110.44 C-39.14 111.01, -38.41 111.59, -37.52 112.29 M-37.52 112.29 C-36.93 112.72, -36.33 113.14, -35.08 114.03 M-37.52 112.29 C-36.92 112.72, -36.32 113.15, -35.08 114.03 M-35.08 114.03 C-34.44 114.44, -33.81 114.85, -32.55 115.66 M-35.08 114.03 C-34.13 114.64, -33.18 115.25, -32.55 115.66 M-32.55 115.66 C-31.87 116.05, -31.19 116.44, -29.94 117.17 M-32.55 115.66 C-31.71 116.15, -30.86 116.63, -29.94 117.17 M-29.94 117.17 C-29.34 117.47, -28.75 117.78, -27.25 118.55 M-29.94 117.17 C-28.87 117.72, -27.8 118.27, -27.25 118.55 M-27.25 118.55 C-26.32 118.97, -25.38 119.4, -24.49 119.81 M-27.25 118.55 C-26.43 118.92, -25.62 119.29, -24.49 119.81 M-24.49 119.81 C-23.86 120.05, -23.24 120.3, -21.66 120.93 M-24.49 119.81 C-23.67 120.13, -22.85 120.45, -21.66 120.93 M-21.66 120.93 C-20.68 121.26, -19.69 121.6, -18.76 121.91 M-21.66 120.93 C-20.71 121.25, -19.76 121.57, -18.76 121.91 M-18.76 121.91 C-17.66 122.23, -16.56 122.54, -15.8 122.76 M-18.76 121.91 C-18.05 122.12, -17.35 122.32, -15.8 122.76 M-15.8 122.76 C-15 122.95, -14.2 123.13, -12.79 123.46 M-15.8 122.76 C-15.15 122.91, -14.49 123.07, -12.79 123.46 M-12.79 123.46 C-11.61 123.67, -10.44 123.89, -9.72 124.02 M-12.79 123.46 C-12.09 123.59, -11.39 123.72, -9.72 124.02 M-9.72 124.02 C-8.6 124.16, -7.49 124.3, -6.59 124.42 M-9.72 124.02 C-8.78 124.14, -7.85 124.26, -6.59 124.42 M-6.59 124.42 C-5.81 124.48, -5.03 124.54, -3.43 124.67 M-6.59 124.42 C-5.58 124.5, -4.57 124.58, -3.43 124.67 M-3.43 124.67 C-2.17 124.7, -0.92 124.74, -0.22 124.76 M-3.43 124.67 C-2.33 124.7, -1.24 124.73, -0.22 124.76 M-0.22 124.76 C0.77 124.74, 1.75 124.72, 2.56 124.7 M-0.22 124.76 C0.8 124.74, 1.82 124.72, 2.56 124.7 M2.56 124.7 C3.62 124.63, 4.69 124.56, 5.3 124.53 M2.56 124.7 C3.25 124.66, 3.94 124.61, 5.3 124.53 M5.3 124.53 C6.34 124.41, 7.37 124.3, 8.02 124.23 M5.3 124.53 C6.13 124.44, 6.96 124.35, 8.02 124.23 M8.02 124.23 C8.84 124.11, 9.67 123.98, 10.7 123.82 M8.02 124.23 C9.02 124.08, 10.03 123.93, 10.7 123.82 M10.7 123.82 C11.73 123.62, 12.76 123.42, 13.35 123.3 M10.7 123.82 C11.38 123.69, 12.06 123.56, 13.35 123.3 M13.35 123.3 C14.24 123.08, 15.13 122.87, 15.96 122.66 M13.35 123.3 C14.35 123.06, 15.36 122.81, 15.96 122.66 M15.96 122.66 C16.82 122.42, 17.67 122.17, 18.53 121.92 M15.96 122.66 C16.55 122.49, 17.14 122.32, 18.53 121.92 M18.53 121.92 C19.11 121.73, 19.68 121.53, 21.06 121.07 M18.53 121.92 C19.53 121.58, 20.53 121.25, 21.06 121.07 M21.06 121.07 C21.93 120.73, 22.81 120.39, 23.54 120.11 M21.06 121.07 C21.6 120.86, 22.14 120.65, 23.54 120.11 M23.54 120.11 C24.37 119.75, 25.19 119.39, 25.97 119.06 M23.54 120.11 C24.17 119.84, 24.8 119.56, 25.97 119.06 M25.97 119.06 C26.64 118.73, 27.32 118.4, 28.34 117.9 M25.97 119.06 C26.69 118.7, 27.42 118.35, 28.34 117.9 M28.34 117.9 C29.26 117.4, 30.17 116.91, 30.66 116.65 M28.34 117.9 C28.95 117.57, 29.56 117.24, 30.66 116.65 M30.66 116.65 C31.45 116.18, 32.23 115.71, 32.92 115.3 M30.66 116.65 C31.47 116.16, 32.27 115.68, 32.92 115.3 M32.92 115.3 C33.67 114.8, 34.43 114.31, 35.12 113.85 M32.92 115.3 C33.42 114.97, 33.92 114.65, 35.12 113.85 M35.12 113.85 C35.66 113.47, 36.19 113.09, 37.26 112.32 M35.12 113.85 C35.81 113.36, 36.5 112.87, 37.26 112.32 M37.26 112.32 C37.82 111.88, 38.39 111.44, 39.33 110.7 M37.26 112.32 C37.69 111.99, 38.11 111.65, 39.33 110.7 M39.33 110.7 C39.91 110.2, 40.5 109.7, 41.33 109 M39.33 110.7 C40.01 110.12, 40.7 109.53, 41.33 109 M41.33 109 C41.94 108.42, 42.56 107.85, 43.25 107.21 M41.33 109 C42.09 108.28, 42.86 107.57, 43.25 107.21 M43.25 107.21 C43.74 106.72, 44.22 106.23, 45.1 105.34 M43.25 107.21 C43.7 106.76, 44.14 106.31, 45.1 105.34 M45.1 105.34 C45.73 104.65, 46.36 103.95, 46.87 103.39 M45.1 105.34 C45.51 104.89, 45.93 104.43, 46.87 103.39 M46.87 103.39 C47.44 102.71, 48.01 102.03, 48.56 101.37 M46.87 103.39 C47.26 102.93, 47.64 102.47, 48.56 101.37 M48.56 101.37 C49.02 100.77, 49.47 100.17, 50.16 99.27 M48.56 101.37 C49 100.79, 49.44 100.22, 50.16 99.27 M50.16 99.27 C50.74 98.44, 51.32 97.62, 51.68 97.1 M50.16 99.27 C50.77 98.4, 51.38 97.53, 51.68 97.1 M51.68 97.1 C52.19 96.3, 52.7 95.51, 53.11 94.86 M51.68 97.1 C52.14 96.38, 52.6 95.65, 53.11 94.86 M53.11 94.86 C53.44 94.29, 53.77 93.71, 54.44 92.55 M53.11 94.86 C53.43 94.31, 53.74 93.76, 54.44 92.55 M54.44 92.55 C54.76 91.94, 55.08 91.34, 55.68 90.18 M54.44 92.55 C54.84 91.8, 55.23 91.05, 55.68 90.18 M55.68 90.18 C56.01 89.48, 56.34 88.78, 56.82 87.75 M55.68 90.18 C56.03 89.43, 56.39 88.68, 56.82 87.75 M56.82 87.75 C57.04 87.22, 57.26 86.68, 57.85 85.26 M56.82 87.75 C57.06 87.17, 57.3 86.59, 57.85 85.26 M57.85 85.26 C58.07 84.68, 58.28 84.09, 58.79 82.71 M57.85 85.26 C58.2 84.32, 58.54 83.37, 58.79 82.71 M58.79 82.71 C59.03 81.94, 59.27 81.18, 59.61 80.11 M58.79 82.71 C59.1 81.73, 59.4 80.76, 59.61 80.11 M59.61 80.11 C59.82 79.32, 60.03 78.53, 60.32 77.45 M59.61 80.11 C59.79 79.42, 59.98 78.73, 60.32 77.45 M60.32 77.45 C60.5 76.64, 60.68 75.83, 60.92 74.74 M60.32 77.45 C60.5 76.66, 60.67 75.87, 60.92 74.74 M60.92 74.74 C61.09 73.82, 61.27 72.89, 61.5 71.65 M60.92 74.74 C61.04 74.12, 61.15 73.5, 61.5 71.65 M61.5 71.65 C61.61 70.8, 61.72 69.95, 61.91 68.55 M61.5 71.65 C61.6 70.83, 61.71 70.01, 61.91 68.55 M61.91 68.55 C61.99 67.49, 62.07 66.43, 62.15 65.44 M61.91 68.55 C61.98 67.59, 62.06 66.62, 62.15 65.44 M62.15 65.44 C62.17 64.81, 62.18 64.18, 62.23 62.31 M62.15 65.44 C62.17 64.78, 62.18 64.12, 62.23 62.31 M62.23 62.31 C62.21 61.32, 62.18 60.34, 62.15 59.1 M62.23 62.31 C62.21 61.4, 62.19 60.5, 62.15 59.1 M62.15 59.1 C62.08 58.15, 62.01 57.2, 61.91 55.94 M62.15 59.1 C62.06 57.9, 61.97 56.69, 61.91 55.94 M61.91 55.94 C61.76 54.76, 61.61 53.58, 61.52 52.82 M61.91 55.94 C61.79 55, 61.67 54.07, 61.52 52.82 M61.52 52.82 C61.33 51.8, 61.15 50.77, 60.97 49.75 M61.52 52.82 C61.37 52.01, 61.23 51.19, 60.97 49.75 M60.97 49.75 C60.75 48.78, 60.52 47.82, 60.27 46.74 M60.97 49.75 C60.74 48.75, 60.5 47.74, 60.27 46.74 M60.27 46.74 C60.02 45.85, 59.77 44.96, 59.43 43.78 M60.27 46.74 C60.03 45.88, 59.79 45.03, 59.43 43.78 M59.43 43.78 C59.05 42.64, 58.66 41.5, 58.46 40.89 M59.43 43.78 C59.2 43.09, 58.97 42.39, 58.46 40.89 M58.46 40.89 C58.08 39.93, 57.7 38.97, 57.34 38.06 M58.46 40.89 C58.11 40, 57.76 39.11, 57.34 38.06 M57.34 38.06 C57.04 37.39, 56.74 36.73, 56.1 35.3 M57.34 38.06 C57.02 37.35, 56.7 36.63, 56.1 35.3 M56.1 35.3 C55.78 34.69, 55.47 34.08, 54.72 32.62 M56.1 35.3 C55.63 34.4, 55.17 33.5, 54.72 32.62 M54.72 32.62 C54.12 31.58, 53.53 30.54, 53.22 30.01 M54.72 32.62 C54.24 31.79, 53.77 30.96, 53.22 30.01 M53.22 30.01 C52.77 29.29, 52.31 28.58, 51.6 27.48 M53.22 30.01 C52.6 29.03, 51.97 28.05, 51.6 27.48 M51.6 27.48 C50.93 26.53, 50.25 25.58, 49.87 25.04 M51.6 27.48 C51.03 26.67, 50.45 25.86, 49.87 25.04 M49.87 25.04 C49.39 24.43, 48.91 23.81, 48.02 22.69 M49.87 25.04 C49.43 24.48, 48.99 23.92, 48.02 22.69 M48.02 22.69 C47.58 22.17, 47.14 21.66, 46.07 20.43 M48.02 22.69 C47.44 22.01, 46.86 21.34, 46.07 20.43 M46.07 20.43 C45.54 19.87, 45.01 19.32, 44.01 18.26 M46.07 20.43 C45.46 19.79, 44.86 19.16, 44.01 18.26 M44.01 18.26 C43.33 17.62, 42.66 16.98, 41.84 16.2 M44.01 18.26 C43.57 17.85, 43.13 17.43, 41.84 16.2 M41.84 16.2 C41.39 15.8, 40.93 15.41, 39.59 14.24 M41.84 16.2 C41.19 15.63, 40.53 15.06, 39.59 14.24 M39.59 14.24 C38.79 13.62, 38 13, 37.24 12.39 M39.59 14.24 C38.85 13.66, 38.11 13.08, 37.24 12.39 M37.24 12.39 C36.32 11.74, 35.41 11.09, 34.8 10.66 M37.24 12.39 C36.72 12.03, 36.21 11.67, 34.8 10.66 M34.8 10.66 C33.83 10.04, 32.87 9.42, 32.27 9.04 M34.8 10.66 C34.05 10.18, 33.31 9.71, 32.27 9.04 M32.27 9.04 C31.53 8.61, 30.8 8.19, 29.66 7.54 M32.27 9.04 C31.33 8.49, 30.39 7.95, 29.66 7.54 M29.66 7.54 C29.09 7.24, 28.51 6.95, 26.98 6.16 M29.66 7.54 C28.91 7.15, 28.15 6.76, 26.98 6.16 M26.98 6.16 C25.94 5.69, 24.89 5.22, 24.22 4.91 M26.98 6.16 C26.17 5.79, 25.36 5.42, 24.22 4.91 M24.22 4.91 C23.11 4.47, 22 4.03, 21.4 3.8 M24.22 4.91 C23.64 4.68, 23.05 4.45, 21.4 3.8 M21.4 3.8 C20.38 3.45, 19.36 3.1, 18.51 2.81 M21.4 3.8 C20.55 3.51, 19.7 3.22, 18.51 2.81 M18.51 2.81 C17.42 2.5, 16.33 2.19, 15.55 1.97 M18.51 2.81 C17.66 2.57, 16.81 2.33, 15.55 1.97 M15.55 1.97 C14.85 1.81, 14.14 1.65, 12.54 1.28 M15.55 1.97 C14.71 1.78, 13.87 1.58, 12.54 1.28 M12.54 1.28 C11.4 1.07, 10.25 0.87, 9.48 0.73 M12.54 1.28 C11.57 1.1, 10.59 0.93, 9.48 0.73 M9.48 0.73 C8.57 0.61, 7.66 0.49, 6.36 0.33 M9.48 0.73 C8.52 0.6, 7.57 0.48, 6.36 0.33 M6.36 0.33 C5.31 0.25, 4.25 0.17, 3.2 0.08 M6.36 0.33 C5.13 0.23, 3.89 0.14, 3.2 0.08 M3.2 0.08 C2.14 0.06, 1.07 0.03, 0 0 M3.2 0.08 C2.34 0.06, 1.48 0.04, 0 0 M0 0 C0 0, 0 0, 0 0 M0 0 C0 0, 0 0, 0 0 M0 0 C0 0, 0 0, 0 0 M0 0 C0 0, 0 0, 0 0" stroke="#000000" stroke-width="1" fill="none"></path></g></g><mask></mask><g stroke-linecap="round"><g transform="translate(118.33746542454355 51.68315726317799) rotate(0 -7.105427357601002e-15 47.956399013530245)" fill-rule="evenodd"><path d="M0 0 L0 0 L-2.62 0.07 L-5.23 0.28 L-7.83 0.63 L-10.4 1.13 L-7.86 12.66 L-7.86 12.66 L-6.03 12.3 L-4.21 12.04 L-2.39 11.87 L-0.58 11.8 L1.21 11.81 L2.99 11.91 L4.76 12.1 L6.5 12.38 L8.22 12.74 L9.92 13.18 L11.58 13.7 L13.22 14.3 L14.82 14.98 L16.39 15.73 L17.91 16.56 L19.4 17.45 L20.84 18.42 L22.23 19.45 L23.58 20.56 L24.87 21.72 L26.11 22.95 L27.28 24.24 L28.4 25.59 L29.46 26.99 L30.44 28.46 L31.36 29.97 L32.21 31.54 L32.98 33.16 L33.68 34.83 L34.3 36.55 L34.83 38.31 L35.28 40.12 L35.64 41.94 L35.9 43.77 L36.07 45.58 L36.14 47.39 L36.13 49.19 L36.02 50.97 L35.83 52.73 L35.56 54.47 L35.2 56.19 L34.76 57.89 L34.23 59.56 L33.63 61.19 L32.96 62.8 L32.21 64.36 L31.38 65.89 L30.48 67.37 L29.52 68.82 L28.48 70.21 L27.38 71.55 L26.22 72.84 L24.99 74.08 L23.7 75.26 L22.35 76.38 L20.94 77.43 L19.48 78.42 L17.96 79.34 L16.4 80.19 L14.77 80.96 L13.11 81.66 L11.39 82.27 L9.63 82.81 L7.82 83.26 L6 83.61 L4.18 83.87 L2.36 84.04 L0.56 84.12 L-1.23 84.11 L-3.01 84 L-4.77 83.81 L-6.52 83.54 L-8.23 83.18 L-9.93 82.74 L-11.59 82.22 L-13.23 81.62 L-14.83 80.95 L-16.4 80.2 L-17.92 79.37 L-19.41 78.48 L-20.85 77.51 L-22.24 76.48 L-23.59 75.38 L-24.88 74.22 L-26.12 72.99 L-27.3 71.7 L-28.42 70.35 L-29.47 68.95 L-30.46 67.49 L-31.38 65.97 L-32.23 64.4 L-33.01 62.78 L-33.71 61.12 L-34.33 59.4 L-34.86 57.64 L-35.32 55.83 L-35.68 53.88 L-35.94 51.92 L-36.1 49.94 L-36.15 47.97 L-47.94 47.97 L-47.94 47.97 L-47.88 50.44 L-47.69 52.88 L-47.39 55.28 L-46.96 57.64 L-46.43 59.96 L-45.78 62.23 L-45.03 64.46 L-44.17 66.64 L-43.21 68.76 L-42.15 70.83 L-41 72.83 L-39.75 74.78 L-38.42 76.66 L-36.99 78.47 L-35.49 80.21 L-33.9 81.87 L-32.23 83.46 L-30.49 84.97 L-28.68 86.39 L-26.8 87.73 L-24.86 88.97 L-22.85 90.13 L-20.78 91.19 L-18.66 92.15 L-16.48 93 L-14.26 93.76 L-11.98 94.4 L-9.66 94.94 L-7.3 95.36 L-4.9 95.67 L-2.47 95.85 L0 95.91 L2.47 95.85 L4.9 95.67 L7.3 95.36 L9.66 94.94 L11.98 94.4 L14.26 93.76 L16.48 93 L18.66 92.15 L20.78 91.19 L22.85 90.13 L24.86 88.97 L26.8 87.73 L28.68 86.39 L30.49 84.97 L32.23 83.46 L33.9 81.87 L35.49 80.21 L36.99 78.47 L38.42 76.66 L39.75 74.78 L41 72.83 L42.15 70.83 L43.21 68.76 L44.17 66.64 L45.03 64.46 L45.78 62.23 L46.43 59.96 L46.96 57.64 L47.39 55.28 L47.69 52.88 L47.88 50.44 L47.94 47.97 L47.88 45.51 L47.69 43.07 L47.39 40.67 L46.96 38.31 L46.43 35.99 L45.78 33.71 L45.03 31.49 L44.17 29.31 L43.21 27.18 L42.15 25.11 L41 23.11 L39.75 21.16 L38.42 19.28 L36.99 17.47 L35.49 15.72 L33.9 14.06 L32.23 12.47 L30.49 10.96 L28.68 9.54 L26.8 8.2 L24.86 6.95 L22.85 5.79 L20.78 4.73 L18.66 3.77 L16.48 2.91 L14.26 2.16 L11.98 1.51 L9.66 0.98 L7.3 0.55 L4.9 0.25 L2.47 0.06 L0 0 L0 0" stroke="none" stroke-width="0" fill="#669df6" fill-rule="evenodd"></path><path d="M0 0 C0 0, 0 0, 0 0 M0 0 C0 0, 0 0, 0 0 M0 0 C-0.71 0.02, -1.42 0.04, -2.62 0.07 M0 0 C-0.57 0.02, -1.14 0.03, -2.62 0.07 M-2.62 0.07 C-3.54 0.14, -4.46 0.22, -5.23 0.28 M-2.62 0.07 C-3.18 0.11, -3.75 0.16, -5.23 0.28 M-5.23 0.28 C-5.96 0.38, -6.69 0.48, -7.83 0.63 M-5.23 0.28 C-6.14 0.4, -7.05 0.52, -7.83 0.63 M-7.83 0.63 C-8.37 0.73, -8.91 0.84, -10.4 1.13 M-7.83 0.63 C-8.72 0.8, -9.62 0.98, -10.4 1.13 M-10.4 1.13 C-9.52 5.11, -8.64 9.1, -7.86 12.66 M-10.4 1.13 C-9.73 4.19, -9.05 7.25, -7.86 12.66 M-7.86 12.66 C-7.86 12.66, -7.86 12.66, -7.86 12.66 M-7.86 12.66 C-7.86 12.66, -7.86 12.66, -7.86 12.66 M-7.86 12.66 C-7.41 12.57, -6.96 12.48, -6.03 12.3 M-7.86 12.66 C-7.19 12.53, -6.53 12.4, -6.03 12.3 M-6.03 12.3 C-5.32 12.2, -4.61 12.1, -4.21 12.04 M-6.03 12.3 C-5.51 12.22, -4.98 12.15, -4.21 12.04 M-4.21 12.04 C-3.49 11.97, -2.77 11.91, -2.39 11.87 M-4.21 12.04 C-3.79 12, -3.37 11.96, -2.39 11.87 M-2.39 11.87 C-1.81 11.85, -1.24 11.82, -0.58 11.8 M-2.39 11.87 C-1.85 11.85, -1.31 11.83, -0.58 11.8 M-0.58 11.8 C0.05 11.8, 0.68 11.81, 1.21 11.81 M-0.58 11.8 C0.04 11.8, 0.67 11.81, 1.21 11.81 M1.21 11.81 C1.61 11.83, 2.01 11.86, 2.99 11.91 M1.21 11.81 C1.64 11.83, 2.07 11.86, 2.99 11.91 M2.99 11.91 C3.53 11.97, 4.06 12.03, 4.76 12.1 M2.99 11.91 C3.67 11.99, 4.35 12.06, 4.76 12.1 M4.76 12.1 C5.41 12.21, 6.07 12.31, 6.5 12.38 M4.76 12.1 C5.12 12.16, 5.49 12.22, 6.5 12.38 M6.5 12.38 C7.14 12.51, 7.78 12.65, 8.22 12.74 M6.5 12.38 C7.01 12.49, 7.52 12.59, 8.22 12.74 M8.22 12.74 C8.78 12.89, 9.34 13.03, 9.92 13.18 M8.22 12.74 C8.64 12.85, 9.06 12.96, 9.92 13.18 M9.92 13.18 C10.45 13.35, 10.98 13.52, 11.58 13.7 M9.92 13.18 C10.29 13.3, 10.67 13.42, 11.58 13.7 M11.58 13.7 C11.95 13.84, 12.32 13.98, 13.22 14.3 M11.58 13.7 C11.96 13.84, 12.33 13.98, 13.22 14.3 M13.22 14.3 C13.61 14.47, 14.01 14.64, 14.82 14.98 M13.22 14.3 C13.56 14.45, 13.9 14.59, 14.82 14.98 M14.82 14.98 C15.28 15.2, 15.74 15.42, 16.39 15.73 M14.82 14.98 C15.4 15.26, 15.99 15.54, 16.39 15.73 M16.39 15.73 C16.82 15.97, 17.25 16.2, 17.91 16.56 M16.39 15.73 C16.81 15.96, 17.24 16.19, 17.91 16.56 M17.91 16.56 C18.42 16.86, 18.93 17.17, 19.4 17.45 M17.91 16.56 C18.41 16.86, 18.91 17.16, 19.4 17.45 M19.4 17.45 C19.83 17.74, 20.26 18.03, 20.84 18.42 M19.4 17.45 C19.88 17.78, 20.36 18.1, 20.84 18.42 M20.84 18.42 C21.22 18.7, 21.61 18.99, 22.23 19.45 M20.84 18.42 C21.27 18.74, 21.7 19.06, 22.23 19.45 M22.23 19.45 C22.77 19.89, 23.3 20.33, 23.58 20.56 M22.23 19.45 C22.62 19.77, 23 20.08, 23.58 20.56 M23.58 20.56 C24.06 20.99, 24.55 21.43, 24.87 21.72 M23.58 20.56 C24.01 20.94, 24.43 21.33, 24.87 21.72 M24.87 21.72 C25.14 21.99, 25.41 22.25, 26.11 22.95 M24.87 21.72 C25.26 22.11, 25.66 22.51, 26.11 22.95 M26.11 22.95 C26.36 23.22, 26.61 23.5, 27.28 24.24 M26.11 22.95 C26.55 23.43, 26.98 23.91, 27.28 24.24 M27.28 24.24 C27.55 24.56, 27.82 24.88, 28.4 25.59 M27.28 24.24 C27.53 24.53, 27.77 24.83, 28.4 25.59 M28.4 25.59 C28.77 26.08, 29.14 26.57, 29.46 26.99 M28.4 25.59 C28.66 25.93, 28.92 26.28, 29.46 26.99 M29.46 26.99 C29.73 27.39, 30 27.79, 30.44 28.46 M29.46 26.99 C29.71 27.36, 29.96 27.73, 30.44 28.46 M30.44 28.46 C30.65 28.79, 30.85 29.13, 31.36 29.97 M30.44 28.46 C30.72 28.92, 31 29.37, 31.36 29.97 M31.36 29.97 C31.68 30.55, 31.99 31.13, 32.21 31.54 M31.36 29.97 C31.6 30.41, 31.84 30.85, 32.21 31.54 M32.21 31.54 C32.41 31.97, 32.62 32.39, 32.98 33.16 M32.21 31.54 C32.47 32.08, 32.73 32.62, 32.98 33.16 M32.98 33.16 C33.2 33.68, 33.42 34.2, 33.68 34.83 M32.98 33.16 C33.15 33.57, 33.32 33.98, 33.68 34.83 M33.68 34.83 C33.92 35.49, 34.16 36.16, 34.3 36.55 M33.68 34.83 C33.84 35.29, 34.01 35.75, 34.3 36.55 M34.3 36.55 C34.47 37.11, 34.64 37.67, 34.83 38.31 M34.3 36.55 C34.45 37.05, 34.6 37.55, 34.83 38.31 M34.83 38.31 C34.96 38.84, 35.09 39.37, 35.28 40.12 M34.83 38.31 C34.95 38.8, 35.07 39.29, 35.28 40.12 M35.28 40.12 C35.4 40.75, 35.53 41.38, 35.64 41.94 M35.28 40.12 C35.36 40.53, 35.44 40.95, 35.64 41.94 M35.64 41.94 C35.73 42.62, 35.83 43.29, 35.9 43.77 M35.64 41.94 C35.7 42.41, 35.77 42.87, 35.9 43.77 M35.9 43.77 C35.97 44.48, 36.03 45.18, 36.07 45.58 M35.9 43.77 C35.95 44.29, 36 44.81, 36.07 45.58 M36.07 45.58 C36.1 46.28, 36.13 46.98, 36.14 47.39 M36.07 45.58 C36.09 46.24, 36.12 46.89, 36.14 47.39 M36.14 47.39 C36.14 48.06, 36.13 48.74, 36.13 49.19 M36.14 47.39 C36.14 48.04, 36.13 48.7, 36.13 49.19 M36.13 49.19 C36.11 49.55, 36.09 49.92, 36.02 50.97 M36.13 49.19 C36.1 49.69, 36.07 50.18, 36.02 50.97 M36.02 50.97 C35.97 51.44, 35.92 51.91, 35.83 52.73 M36.02 50.97 C35.96 51.59, 35.89 52.21, 35.83 52.73 M35.83 52.73 C35.76 53.2, 35.68 53.68, 35.56 54.47 M35.83 52.73 C35.74 53.31, 35.65 53.9, 35.56 54.47 M35.56 54.47 C35.43 55.1, 35.3 55.73, 35.2 56.19 M35.56 54.47 C35.47 54.88, 35.39 55.29, 35.2 56.19 M35.2 56.19 C35.06 56.73, 34.92 57.26, 34.76 57.89 M35.2 56.19 C35.03 56.85, 34.86 57.51, 34.76 57.89 M34.76 57.89 C34.65 58.23, 34.54 58.57, 34.23 59.56 M34.76 57.89 C34.56 58.53, 34.36 59.17, 34.23 59.56 M34.23 59.56 C34.09 59.96, 33.94 60.36, 33.63 61.19 M34.23 59.56 C34.03 60.12, 33.82 60.68, 33.63 61.19 M33.63 61.19 C33.46 61.61, 33.28 62.02, 32.96 62.8 M33.63 61.19 C33.46 61.6, 33.29 62.01, 32.96 62.8 M32.96 62.8 C32.75 63.23, 32.54 63.66, 32.21 64.36 M32.96 62.8 C32.78 63.17, 32.6 63.55, 32.21 64.36 M32.21 64.36 C32.01 64.72, 31.82 65.08, 31.38 65.89 M32.21 64.36 C31.96 64.82, 31.71 65.28, 31.38 65.89 M31.38 65.89 C31.03 66.46, 30.69 67.04, 30.48 67.37 M31.38 65.89 C31.05 66.43, 30.73 66.97, 30.48 67.37 M30.48 67.37 C30.12 67.92, 29.76 68.46, 29.52 68.82 M30.48 67.37 C30.24 67.74, 29.99 68.11, 29.52 68.82 M29.52 68.82 C29.25 69.17, 28.99 69.53, 28.48 70.21 M29.52 68.82 C29.18 69.28, 28.83 69.74, 28.48 70.21 M28.48 70.21 C28.08 70.7, 27.68 71.19, 27.38 71.55 M28.48 70.21 C28.21 70.54, 27.94 70.87, 27.38 71.55 M27.38 71.55 C26.99 71.99, 26.59 72.43, 26.22 72.84 M27.38 71.55 C27.15 71.81, 26.91 72.08, 26.22 72.84 M26.22 72.84 C25.96 73.11, 25.7 73.37, 24.99 74.08 M26.22 72.84 C25.86 73.21, 25.49 73.57, 24.99 74.08 M24.99 74.08 C24.49 74.54, 23.98 75, 23.7 75.26 M24.99 74.08 C24.51 74.52, 24.02 74.96, 23.7 75.26 M23.7 75.26 C23.2 75.67, 22.7 76.09, 22.35 76.38 M23.7 75.26 C23.43 75.48, 23.16 75.71, 22.35 76.38 M22.35 76.38 C21.88 76.73, 21.41 77.08, 20.94 77.43 M22.35 76.38 C21.95 76.68, 21.55 76.98, 20.94 77.43 M20.94 77.43 C20.61 77.66, 20.27 77.89, 19.48 78.42 M20.94 77.43 C20.56 77.69, 20.18 77.94, 19.48 78.42 M19.48 78.42 C18.89 78.78, 18.29 79.14, 17.96 79.34 M19.48 78.42 C19.01 78.71, 18.53 78.99, 17.96 79.34 M17.96 79.34 C17.63 79.52, 17.29 79.7, 16.4 80.19 M17.96 79.34 C17.41 79.64, 16.85 79.94, 16.4 80.19 M16.4 80.19 C15.8 80.47, 15.21 80.75, 14.77 80.96 M16.4 80.19 C15.96 80.39, 15.52 80.6, 14.77 80.96 M14.77 80.96 C14.31 81.15, 13.84 81.35, 13.11 81.66 M14.77 80.96 C14.34 81.14, 13.91 81.32, 13.11 81.66 M13.11 81.66 C12.51 81.87, 11.91 82.09, 11.39 82.27 M13.11 81.66 C12.57 81.85, 12.04 82.04, 11.39 82.27 M11.39 82.27 C10.99 82.39, 10.6 82.51, 9.63 82.81 M11.39 82.27 C10.8 82.45, 10.21 82.63, 9.63 82.81 M9.63 82.81 C9.24 82.9, 8.85 83, 7.82 83.26 M9.63 82.81 C9.21 82.91, 8.8 83.01, 7.82 83.26 M7.82 83.26 C7.13 83.39, 6.44 83.52, 6 83.61 M7.82 83.26 C7.4 83.34, 6.99 83.42, 6 83.61 M6 83.61 C5.41 83.7, 4.82 83.78, 4.18 83.87 M6 83.61 C5.35 83.71, 4.7 83.8, 4.18 83.87 M4.18 83.87 C3.62 83.93, 3.07 83.98, 2.36 84.04 M4.18 83.87 C3.48 83.94, 2.79 84, 2.36 84.04 M2.36 84.04 C1.96 84.06, 1.55 84.08, 0.56 84.12 M2.36 84.04 C1.88 84.06, 1.4 84.08, 0.56 84.12 M0.56 84.12 C-0.01 84.11, -0.57 84.11, -1.23 84.11 M0.56 84.12 C-0.02 84.11, -0.61 84.11, -1.23 84.11 M-1.23 84.11 C-1.86 84.07, -2.48 84.03, -3.01 84 M-1.23 84.11 C-1.72 84.08, -2.2 84.05, -3.01 84 M-3.01 84 C-3.61 83.94, -4.22 83.87, -4.77 83.81 M-3.01 84 C-3.67 83.93, -4.33 83.86, -4.77 83.81 M-4.77 83.81 C-5.34 83.72, -5.9 83.63, -6.52 83.54 M-4.77 83.81 C-5.32 83.73, -5.87 83.64, -6.52 83.54 M-6.52 83.54 C-6.97 83.44, -7.42 83.35, -8.23 83.18 M-6.52 83.54 C-7.09 83.42, -7.67 83.3, -8.23 83.18 M-8.23 83.18 C-8.65 83.07, -9.07 82.96, -9.93 82.74 M-8.23 83.18 C-8.73 83.05, -9.22 82.92, -9.93 82.74 M-9.93 82.74 C-10.57 82.54, -11.22 82.34, -11.59 82.22 M-9.93 82.74 C-10.27 82.63, -10.61 82.53, -11.59 82.22 M-11.59 82.22 C-11.94 82.09, -12.28 81.97, -13.23 81.62 M-11.59 82.22 C-12.13 82.02, -12.66 81.83, -13.23 81.62 M-13.23 81.62 C-13.81 81.38, -14.39 81.13, -14.83 80.95 M-13.23 81.62 C-13.66 81.44, -14.09 81.26, -14.83 80.95 M-14.83 80.95 C-15.45 80.65, -16.07 80.35, -16.4 80.2 M-14.83 80.95 C-15.28 80.73, -15.72 80.52, -16.4 80.2 M-16.4 80.2 C-16.81 79.97, -17.23 79.75, -17.92 79.37 M-16.4 80.2 C-17.01 79.87, -17.62 79.54, -17.92 79.37 M-17.92 79.37 C-18.46 79.05, -19 78.72, -19.41 78.48 M-17.92 79.37 C-18.33 79.13, -18.74 78.88, -19.41 78.48 M-19.41 78.48 C-19.89 78.15, -20.37 77.83, -20.85 77.51 M-19.41 78.48 C-19.93 78.13, -20.45 77.78, -20.85 77.51 M-20.85 77.51 C-21.35 77.14, -21.85 76.77, -22.24 76.48 M-20.85 77.51 C-21.33 77.16, -21.8 76.81, -22.24 76.48 M-22.24 76.48 C-22.52 76.26, -22.79 76.03, -23.59 75.38 M-22.24 76.48 C-22.65 76.15, -23.06 75.82, -23.59 75.38 M-23.59 75.38 C-23.88 75.12, -24.17 74.86, -24.88 74.22 M-23.59 75.38 C-24.07 74.95, -24.54 74.52, -24.88 74.22 M-24.88 74.22 C-25.22 73.88, -25.55 73.55, -26.12 72.99 M-24.88 74.22 C-25.21 73.89, -25.54 73.56, -26.12 72.99 M-26.12 72.99 C-26.45 72.63, -26.78 72.27, -27.3 71.7 M-26.12 72.99 C-26.56 72.5, -27.01 72.01, -27.3 71.7 M-27.3 71.7 C-27.7 71.21, -28.11 70.72, -28.42 70.35 M-27.3 71.7 C-27.62 71.32, -27.94 70.93, -28.42 70.35 M-28.42 70.35 C-28.66 70.04, -28.9 69.72, -29.47 68.95 M-28.42 70.35 C-28.66 70.03, -28.91 69.7, -29.47 68.95 M-29.47 68.95 C-29.71 68.59, -29.95 68.24, -30.46 67.49 M-29.47 68.95 C-29.75 68.54, -30.02 68.14, -30.46 67.49 M-30.46 67.49 C-30.7 67.09, -30.95 66.69, -31.38 65.97 M-30.46 67.49 C-30.77 66.98, -31.08 66.47, -31.38 65.97 M-31.38 65.97 C-31.64 65.49, -31.91 65.01, -32.23 64.4 M-31.38 65.97 C-31.68 65.43, -31.97 64.88, -32.23 64.4 M-32.23 64.4 C-32.52 63.81, -32.8 63.22, -33.01 62.78 M-32.23 64.4 C-32.48 63.88, -32.74 63.35, -33.01 62.78 M-33.01 62.78 C-33.21 62.3, -33.42 61.81, -33.71 61.12 M-33.01 62.78 C-33.22 62.29, -33.42 61.79, -33.71 61.12 M-33.71 61.12 C-33.83 60.77, -33.96 60.43, -34.33 59.4 M-33.71 61.12 C-33.94 60.47, -34.18 59.82, -34.33 59.4 M-34.33 59.4 C-34.52 58.75, -34.72 58.11, -34.86 57.64 M-34.33 59.4 C-34.49 58.85, -34.66 58.3, -34.86 57.64 M-34.86 57.64 C-34.96 57.24, -35.06 56.85, -35.32 55.83 M-34.86 57.64 C-35.01 57.06, -35.15 56.49, -35.32 55.83 M-35.32 55.83 C-35.4 55.37, -35.49 54.91, -35.68 53.88 M-35.32 55.83 C-35.41 55.32, -35.51 54.8, -35.68 53.88 M-35.68 53.88 C-35.77 53.19, -35.86 52.49, -35.94 51.92 M-35.68 53.88 C-35.76 53.29, -35.83 52.71, -35.94 51.92 M-35.94 51.92 C-35.98 51.43, -36.02 50.95, -36.1 49.94 M-35.94 51.92 C-35.98 51.48, -36.01 51.05, -36.1 49.94 M-36.1 49.94 C-36.12 49.29, -36.14 48.64, -36.15 47.97 M-36.1 49.94 C-36.12 49.32, -36.13 48.69, -36.15 47.97 M-36.15 47.97 C-39.34 47.97, -42.54 47.97, -47.94 47.97 M-36.15 47.97 C-40.1 47.97, -44.04 47.97, -47.94 47.97 M-47.94 47.97 C-47.94 47.97, -47.94 47.97, -47.94 47.97 M-47.94 47.97 C-47.94 47.97, -47.94 47.97, -47.94 47.97 M-47.94 47.97 C-47.92 48.53, -47.91 49.09, -47.88 50.44 M-47.94 47.97 C-47.92 48.84, -47.89 49.7, -47.88 50.44 M-47.88 50.44 C-47.83 51.01, -47.79 51.57, -47.69 52.88 M-47.88 50.44 C-47.83 51.06, -47.78 51.68, -47.69 52.88 M-47.69 52.88 C-47.58 53.75, -47.47 54.62, -47.39 55.28 M-47.69 52.88 C-47.6 53.59, -47.51 54.3, -47.39 55.28 M-47.39 55.28 C-47.29 55.82, -47.19 56.36, -46.96 57.64 M-47.39 55.28 C-47.28 55.89, -47.17 56.5, -46.96 57.64 M-46.96 57.64 C-46.77 58.49, -46.57 59.33, -46.43 59.96 M-46.96 57.64 C-46.75 58.55, -46.54 59.47, -46.43 59.96 M-46.43 59.96 C-46.29 60.46, -46.15 60.96, -45.78 62.23 M-46.43 59.96 C-46.25 60.59, -46.07 61.22, -45.78 62.23 M-45.78 62.23 C-45.59 62.8, -45.4 63.38, -45.03 64.46 M-45.78 62.23 C-45.51 63.02, -45.25 63.82, -45.03 64.46 M-45.03 64.46 C-44.73 65.23, -44.42 66, -44.17 66.64 M-45.03 64.46 C-44.85 64.9, -44.68 65.35, -44.17 66.64 M-44.17 66.64 C-43.89 67.26, -43.61 67.88, -43.21 68.76 M-44.17 66.64 C-43.9 67.23, -43.64 67.82, -43.21 68.76 M-43.21 68.76 C-42.82 69.52, -42.43 70.29, -42.15 70.83 M-43.21 68.76 C-42.82 69.52, -42.43 70.28, -42.15 70.83 M-42.15 70.83 C-41.84 71.37, -41.53 71.91, -41 72.83 M-42.15 70.83 C-41.75 71.53, -41.34 72.23, -41 72.83 M-41 72.83 C-40.64 73.4, -40.27 73.97, -39.75 74.78 M-41 72.83 C-40.7 73.3, -40.4 73.77, -39.75 74.78 M-39.75 74.78 C-39.46 75.19, -39.17 75.6, -38.42 76.66 M-39.75 74.78 C-39.29 75.43, -38.82 76.09, -38.42 76.66 M-38.42 76.66 C-37.95 77.26, -37.48 77.85, -36.99 78.47 M-38.42 76.66 C-37.95 77.25, -37.48 77.85, -36.99 78.47 M-36.99 78.47 C-36.54 78.99, -36.09 79.51, -35.49 80.21 M-36.99 78.47 C-36.48 79.06, -35.97 79.65, -35.49 80.21 M-35.49 80.21 C-34.88 80.84, -34.28 81.48, -33.9 81.87 M-35.49 80.21 C-35.04 80.68, -34.59 81.15, -33.9 81.87 M-33.9 81.87 C-33.37 82.38, -32.84 82.88, -32.23 83.46 M-33.9 81.87 C-33.27 82.47, -32.65 83.07, -32.23 83.46 M-32.23 83.46 C-31.67 83.95, -31.1 84.44, -30.49 84.97 M-32.23 83.46 C-31.56 84.05, -30.88 84.63, -30.49 84.97 M-30.49 84.97 C-30.12 85.26, -29.74 85.56, -28.68 86.39 M-30.49 84.97 C-30.12 85.26, -29.75 85.55, -28.68 86.39 M-28.68 86.39 C-28.05 86.84, -27.42 87.29, -26.8 87.73 M-28.68 86.39 C-28.17 86.75, -27.66 87.12, -26.8 87.73 M-26.8 87.73 C-26.13 88.16, -25.45 88.6, -24.86 88.97 M-26.8 87.73 C-26.11 88.17, -25.41 88.62, -24.86 88.97 M-24.86 88.97 C-24.14 89.39, -23.42 89.8, -22.85 90.13 M-24.86 88.97 C-24.06 89.43, -23.26 89.9, -22.85 90.13 M-22.85 90.13 C-22.35 90.39, -21.84 90.65, -20.78 91.19 M-22.85 90.13 C-22.32 90.4, -21.78 90.67, -20.78 91.19 M-20.78 91.19 C-20.27 91.42, -19.76 91.65, -18.66 92.15 M-20.78 91.19 C-19.99 91.55, -19.2 91.9, -18.66 92.15 M-18.66 92.15 C-18.13 92.35, -17.6 92.56, -16.48 93 M-18.66 92.15 C-17.97 92.42, -17.28 92.69, -16.48 93 M-16.48 93 C-16.03 93.16, -15.58 93.31, -14.26 93.76 M-16.48 93 C-15.95 93.19, -15.41 93.37, -14.26 93.76 M-14.26 93.76 C-13.74 93.9, -13.23 94.05, -11.98 94.4 M-14.26 93.76 C-13.72 93.91, -13.19 94.06, -11.98 94.4 M-11.98 94.4 C-11.15 94.6, -10.31 94.79, -9.66 94.94 M-11.98 94.4 C-11.1 94.61, -10.22 94.81, -9.66 94.94 M-9.66 94.94 C-8.94 95.07, -8.21 95.2, -7.3 95.36 M-9.66 94.94 C-8.95 95.07, -8.25 95.19, -7.3 95.36 M-7.3 95.36 C-6.8 95.42, -6.3 95.49, -4.9 95.67 M-7.3 95.36 C-6.79 95.43, -6.27 95.49, -4.9 95.67 M-4.9 95.67 C-4.07 95.73, -3.23 95.79, -2.47 95.85 M-4.9 95.67 C-4.19 95.72, -3.48 95.77, -2.47 95.85 M-2.47 95.85 C-1.65 95.87, -0.84 95.89, 0 95.91 M-2.47 95.85 C-1.72 95.87, -0.97 95.89, 0 95.91 M0 95.91 C0.55 95.9, 1.09 95.89, 2.47 95.85 M0 95.91 C0.93 95.89, 1.87 95.87, 2.47 95.85 M2.47 95.85 C3.19 95.8, 3.92 95.74, 4.9 95.67 M2.47 95.85 C3.08 95.8, 3.68 95.76, 4.9 95.67 M4.9 95.67 C5.78 95.55, 6.67 95.44, 7.3 95.36 M4.9 95.67 C5.42 95.6, 5.94 95.53, 7.3 95.36 M7.3 95.36 C8.16 95.21, 9.02 95.05, 9.66 94.94 M7.3 95.36 C8.22 95.2, 9.14 95.03, 9.66 94.94 M9.66 94.94 C10.23 94.81, 10.79 94.68, 11.98 94.4 M9.66 94.94 C10.24 94.81, 10.82 94.67, 11.98 94.4 M11.98 94.4 C12.83 94.16, 13.68 93.92, 14.26 93.76 M11.98 94.4 C12.67 94.21, 13.35 94.02, 14.26 93.76 M14.26 93.76 C14.8 93.57, 15.34 93.39, 16.48 93 M14.26 93.76 C14.74 93.6, 15.22 93.43, 16.48 93 M16.48 93 C17.03 92.79, 17.57 92.58, 18.66 92.15 M16.48 93 C17.14 92.75, 17.79 92.49, 18.66 92.15 M18.66 92.15 C19.09 91.95, 19.51 91.76, 20.78 91.19 M18.66 92.15 C19.16 91.92, 19.67 91.69, 20.78 91.19 M20.78 91.19 C21.42 90.86, 22.06 90.53, 22.85 90.13 M20.78 91.19 C21.5 90.82, 22.21 90.46, 22.85 90.13 M22.85 90.13 C23.43 89.8, 24 89.47, 24.86 88.97 M22.85 90.13 C23.51 89.75, 24.16 89.37, 24.86 88.97 M24.86 88.97 C25.54 88.54, 26.21 88.11, 26.8 87.73 M24.86 88.97 C25.5 88.56, 26.13 88.16, 26.8 87.73 M26.8 87.73 C27.37 87.32, 27.94 86.92, 28.68 86.39 M26.8 87.73 C27.34 87.34, 27.88 86.96, 28.68 86.39 M28.68 86.39 C29.32 85.89, 29.96 85.38, 30.49 84.97 M28.68 86.39 C29.38 85.84, 30.08 85.29, 30.49 84.97 M30.49 84.97 C31.18 84.38, 31.86 83.79, 32.23 83.46 M30.49 84.97 C30.85 84.66, 31.21 84.34, 32.23 83.46 M32.23 83.46 C32.89 82.83, 33.55 82.2, 33.9 81.87 M32.23 83.46 C32.88 82.84, 33.53 82.23, 33.9 81.87 M33.9 81.87 C34.42 81.32, 34.94 80.78, 35.49 80.21 M33.9 81.87 C34.49 81.26, 35.07 80.64, 35.49 80.21 M35.49 80.21 C35.99 79.63, 36.49 79.05, 36.99 78.47 M35.49 80.21 C35.86 79.77, 36.24 79.34, 36.99 78.47 M36.99 78.47 C37.32 78.06, 37.64 77.64, 38.42 76.66 M36.99 78.47 C37.48 77.85, 37.97 77.23, 38.42 76.66 M38.42 76.66 C38.83 76.08, 39.24 75.5, 39.75 74.78 M38.42 76.66 C38.71 76.24, 39.01 75.82, 39.75 74.78 M39.75 74.78 C40.05 74.32, 40.34 73.86, 41 72.83 M39.75 74.78 C40.11 74.23, 40.46 73.67, 41 72.83 M41 72.83 C41.28 72.34, 41.57 71.84, 42.15 70.83 M41 72.83 C41.45 72.04, 41.91 71.25, 42.15 70.83 M42.15 70.83 C42.41 70.33, 42.66 69.84, 43.21 68.76 M42.15 70.83 C42.41 70.33, 42.67 69.83, 43.21 68.76 M43.21 68.76 C43.57 67.98, 43.92 67.19, 44.17 66.64 M43.21 68.76 C43.59 67.92, 43.97 67.08, 44.17 66.64 M44.17 66.64 C44.48 65.86, 44.78 65.09, 45.03 64.46 M44.17 66.64 C44.39 66.09, 44.6 65.54, 45.03 64.46 M45.03 64.46 C45.23 63.85, 45.44 63.25, 45.78 62.23 M45.03 64.46 C45.25 63.8, 45.47 63.15, 45.78 62.23 M45.78 62.23 C45.94 61.68, 46.1 61.13, 46.43 59.96 M45.78 62.23 C45.94 61.68, 46.09 61.14, 46.43 59.96 M46.43 59.96 C46.56 59.39, 46.69 58.83, 46.96 57.64 M46.43 59.96 C46.59 59.26, 46.75 58.57, 46.96 57.64 M46.96 57.64 C47.13 56.71, 47.29 55.79, 47.39 55.28 M46.96 57.64 C47.1 56.88, 47.23 56.12, 47.39 55.28 M47.39 55.28 C47.49 54.43, 47.6 53.58, 47.69 52.88 M47.39 55.28 C47.46 54.67, 47.54 54.06, 47.69 52.88 M47.69 52.88 C47.73 52.31, 47.78 51.75, 47.88 50.44 M47.69 52.88 C47.75 52.15, 47.8 51.43, 47.88 50.44 M47.88 50.44 C47.9 49.54, 47.92 48.64, 47.94 47.97 M47.88 50.44 C47.9 49.58, 47.92 48.73, 47.94 47.97 M47.94 47.97 C47.92 47.41, 47.91 46.85, 47.88 45.51 M47.94 47.97 C47.92 47.08, 47.89 46.19, 47.88 45.51 M47.88 45.51 C47.84 44.97, 47.79 44.43, 47.69 43.07 M47.88 45.51 C47.84 45.01, 47.8 44.52, 47.69 43.07 M47.69 43.07 C47.58 42.17, 47.46 41.26, 47.39 40.67 M47.69 43.07 C47.57 42.12, 47.45 41.17, 47.39 40.67 M47.39 40.67 C47.24 39.85, 47.09 39.02, 46.96 38.31 M47.39 40.67 C47.22 39.77, 47.06 38.86, 46.96 38.31 M46.96 38.31 C46.79 37.58, 46.63 36.84, 46.43 35.99 M46.96 38.31 C46.82 37.68, 46.67 37.05, 46.43 35.99 M46.43 35.99 C46.19 35.15, 45.95 34.3, 45.78 33.71 M46.43 35.99 C46.24 35.32, 46.05 34.66, 45.78 33.71 M45.78 33.71 C45.62 33.22, 45.45 32.73, 45.03 31.49 M45.78 33.71 C45.52 32.94, 45.26 32.16, 45.03 31.49 M45.03 31.49 C44.7 30.65, 44.37 29.81, 44.17 29.31 M45.03 31.49 C44.8 30.89, 44.56 30.3, 44.17 29.31 M44.17 29.31 C43.89 28.69, 43.61 28.06, 43.21 27.18 M44.17 29.31 C43.81 28.51, 43.45 27.72, 43.21 27.18 M43.21 27.18 C42.92 26.6, 42.62 26.03, 42.15 25.11 M43.21 27.18 C42.89 26.56, 42.57 25.93, 42.15 25.11 M42.15 25.11 C41.83 24.55, 41.51 23.99, 41 23.11 M42.15 25.11 C41.71 24.34, 41.26 23.56, 41 23.11 M41 23.11 C40.71 22.66, 40.42 22.21, 39.75 21.16 M41 23.11 C40.62 22.51, 40.24 21.92, 39.75 21.16 M39.75 21.16 C39.27 20.48, 38.79 19.8, 38.42 19.28 M39.75 21.16 C39.46 20.75, 39.18 20.35, 38.42 19.28 M38.42 19.28 C37.85 18.56, 37.29 17.84, 36.99 17.47 M38.42 19.28 C38.08 18.85, 37.75 18.43, 36.99 17.47 M36.99 17.47 C36.61 17.03, 36.24 16.59, 35.49 15.72 M36.99 17.47 C36.43 16.82, 35.87 16.16, 35.49 15.72 M35.49 15.72 C35.13 15.35, 34.77 14.97, 33.9 14.06 M35.49 15.72 C34.86 15.07, 34.23 14.41, 33.9 14.06 M33.9 14.06 C33.4 13.58, 32.89 13.1, 32.23 12.47 M33.9 14.06 C33.29 13.47, 32.68 12.89, 32.23 12.47 M32.23 12.47 C31.63 11.95, 31.03 11.42, 30.49 10.96 M32.23 12.47 C31.68 11.99, 31.12 11.51, 30.49 10.96 M30.49 10.96 C30.13 10.67, 29.77 10.39, 28.68 9.54 M30.49 10.96 C29.79 10.4, 29.08 9.85, 28.68 9.54 M28.68 9.54 C28.16 9.16, 27.63 8.78, 26.8 8.2 M28.68 9.54 C28.15 9.15, 27.61 8.77, 26.8 8.2 M26.8 8.2 C26.27 7.86, 25.75 7.52, 24.86 6.95 M26.8 8.2 C26.36 7.91, 25.92 7.63, 24.86 6.95 M24.86 6.95 C24.2 6.57, 23.53 6.19, 22.85 5.79 M24.86 6.95 C24.44 6.71, 24.02 6.47, 22.85 5.79 M22.85 5.79 C22.08 5.4, 21.31 5, 20.78 4.73 M22.85 5.79 C22.13 5.42, 21.41 5.06, 20.78 4.73 M20.78 4.73 C20.18 4.46, 19.57 4.19, 18.66 3.77 M20.78 4.73 C20.06 4.4, 19.33 4.08, 18.66 3.77 M18.66 3.77 C18.22 3.6, 17.78 3.42, 16.48 2.91 M18.66 3.77 C18.19 3.59, 17.72 3.4, 16.48 2.91 M16.48 2.91 C15.77 2.67, 15.05 2.43, 14.26 2.16 M16.48 2.91 C15.64 2.63, 14.79 2.34, 14.26 2.16 M14.26 2.16 C13.37 1.91, 12.49 1.66, 11.98 1.51 M14.26 2.16 C13.39 1.91, 12.52 1.66, 11.98 1.51 M11.98 1.51 C11.29 1.35, 10.59 1.19, 9.66 0.98 M11.98 1.51 C11.16 1.32, 10.33 1.13, 9.66 0.98 M9.66 0.98 C8.72 0.81, 7.78 0.64, 7.3 0.55 M9.66 0.98 C8.76 0.81, 7.85 0.65, 7.3 0.55 M7.3 0.55 C6.66 0.47, 6.01 0.39, 4.9 0.25 M7.3 0.55 C6.49 0.45, 5.67 0.35, 4.9 0.25 M4.9 0.25 C4.32 0.2, 3.75 0.16, 2.47 0.06 M4.9 0.25 C4.29 0.2, 3.69 0.16, 2.47 0.06 M2.47 0.06 C1.57 0.04, 0.68 0.02, 0 0 M2.47 0.06 C1.62 0.04, 0.78 0.02, 0 0 M0 0 C0 0, 0 0, 0 0 M0 0 C0 0, 0 0, 0 0 M0 0 C0 0, 0 0, 0 0 M0 0 C0 0, 0 0, 0 0" stroke="#000000" stroke-width="1" fill="none"></path></g></g><mask></mask><g stroke-linecap="round"><g transform="translate(118.33746542454355 75.47041050570608) rotate(0 0.03637011720173078 24.132775653800337)" fill-rule="evenodd"><path d="M0 0 L0 0 L-2.63 0.14 L-3.94 0.31 L-5.24 0.55 L-2.69 12.15 L-2.69 12.15 L-1.45 11.93 L-0.21 11.85 L1.02 11.89 L2.21 12.04 L3.38 12.31 L4.51 12.7 L5.6 13.18 L6.63 13.77 L7.6 14.45 L8.5 15.22 L9.33 16.08 L10.08 17.02 L10.73 18.03 L11.29 19.12 L11.74 20.28 L12.08 21.5 L12.29 22.74 L12.37 23.98 L12.34 25.2 L12.18 26.4 L11.91 27.57 L11.53 28.7 L11.04 29.78 L10.46 30.82 L9.78 31.79 L9 32.69 L8.15 33.52 L7.21 34.26 L6.19 34.92 L5.1 35.47 L3.95 35.92 L2.73 36.26 L1.48 36.48 L0.24 36.56 L-0.98 36.52 L-2.18 36.37 L-3.35 36.1 L-4.48 35.72 L-5.56 35.23 L-6.59 34.64 L-7.56 33.96 L-8.47 33.19 L-9.29 32.33 L-10.04 31.39 L-10.69 30.38 L-11.25 29.29 L-11.7 28.13 L-12.04 26.92 L-12.04 26.84 L-12.04 26.84 L-12.12 25.48 L-12.04 24.11 L-24.11 24.11 L-24.11 24.11 L-23.99 26.59 L-23.62 28.98 L-23.03 31.3 L-22.22 33.52 L-21.2 35.63 L-19.99 37.62 L-18.6 39.48 L-17.04 41.2 L-15.33 42.75 L-13.47 44.14 L-11.48 45.35 L-9.37 46.37 L-7.15 47.18 L-4.83 47.78 L-2.43 48.14 L0.04 48.27 L2.51 48.14 L4.91 47.78 L7.22 47.18 L9.44 46.37 L11.55 45.35 L13.54 44.14 L15.4 42.75 L17.12 41.2 L18.68 39.48 L20.07 37.62 L21.27 35.63 L22.29 33.52 L23.1 31.3 L23.7 28.98 L24.06 26.59 L24.19 24.11 L24.06 21.64 L23.7 19.25 L23.1 16.93 L22.29 14.72 L21.27 12.61 L20.05 10.62 L18.66 8.76 L17.1 7.05 L15.38 5.5 L13.52 4.11 L11.52 2.9 L9.41 1.89 L7.19 1.08 L4.87 0.49 L2.47 0.12 L0 0 L0 0" stroke="none" stroke-width="0" fill="#aecbfa" fill-rule="evenodd"></path><path d="M0 0 C0 0, 0 0, 0 0 M0 0 C0 0, 0 0, 0 0 M0 0 C-0.58 0.03, -1.16 0.06, -2.63 0.14 M0 0 C-0.69 0.04, -1.39 0.07, -2.63 0.14 M-2.63 0.14 C-3.08 0.19, -3.53 0.25, -3.94 0.31 M-2.63 0.14 C-3.13 0.2, -3.62 0.26, -3.94 0.31 M-3.94 0.31 C-4.45 0.4, -4.95 0.49, -5.24 0.55 M-3.94 0.31 C-4.3 0.37, -4.66 0.44, -5.24 0.55 M-5.24 0.55 C-4.52 3.83, -3.8 7.12, -2.69 12.15 M-5.24 0.55 C-4.35 4.58, -3.47 8.61, -2.69 12.15 M-2.69 12.15 C-2.69 12.15, -2.69 12.15, -2.69 12.15 M-2.69 12.15 C-2.69 12.15, -2.69 12.15, -2.69 12.15 M-2.69 12.15 C-2.26 12.07, -1.82 12, -1.45 11.93 M-2.69 12.15 C-2.42 12.1, -2.16 12.06, -1.45 11.93 M-1.45 11.93 C-0.95 11.9, -0.46 11.87, -0.21 11.85 M-1.45 11.93 C-1.04 11.91, -0.63 11.88, -0.21 11.85 M-0.21 11.85 C0.09 11.86, 0.38 11.87, 1.02 11.89 M-0.21 11.85 C0.21 11.86, 0.63 11.87, 1.02 11.89 M1.02 11.89 C1.32 11.93, 1.62 11.97, 2.21 12.04 M1.02 11.89 C1.34 11.93, 1.67 11.97, 2.21 12.04 M2.21 12.04 C2.49 12.11, 2.78 12.17, 3.38 12.31 M2.21 12.04 C2.55 12.12, 2.88 12.2, 3.38 12.31 M3.38 12.31 C3.71 12.42, 4.04 12.53, 4.51 12.7 M3.38 12.31 C3.83 12.47, 4.28 12.62, 4.51 12.7 M4.51 12.7 C4.86 12.85, 5.22 13.01, 5.6 13.18 M4.51 12.7 C4.81 12.83, 5.11 12.96, 5.6 13.18 M5.6 13.18 C5.97 13.39, 6.34 13.61, 6.63 13.77 M5.6 13.18 C5.94 13.38, 6.29 13.57, 6.63 13.77 M6.63 13.77 C6.88 13.94, 7.13 14.12, 7.6 14.45 M6.63 13.77 C6.96 14, 7.28 14.22, 7.6 14.45 M7.6 14.45 C7.93 14.73, 8.27 15.02, 8.5 15.22 M7.6 14.45 C7.85 14.66, 8.09 14.87, 8.5 15.22 M8.5 15.22 C8.75 15.47, 8.99 15.73, 9.33 16.08 M8.5 15.22 C8.82 15.54, 9.13 15.87, 9.33 16.08 M9.33 16.08 C9.59 16.4, 9.84 16.73, 10.08 17.02 M9.33 16.08 C9.49 16.28, 9.66 16.49, 10.08 17.02 M10.08 17.02 C10.26 17.3, 10.44 17.58, 10.73 18.03 M10.08 17.02 C10.27 17.32, 10.46 17.61, 10.73 18.03 M10.73 18.03 C10.93 18.43, 11.14 18.83, 11.29 19.12 M10.73 18.03 C10.91 18.39, 11.09 18.74, 11.29 19.12 M11.29 19.12 C11.44 19.51, 11.59 19.9, 11.74 20.28 M11.29 19.12 C11.4 19.43, 11.52 19.73, 11.74 20.28 M11.74 20.28 C11.82 20.57, 11.9 20.87, 12.08 21.5 M11.74 20.28 C11.86 20.74, 11.99 21.2, 12.08 21.5 M12.08 21.5 C12.16 21.99, 12.24 22.48, 12.29 22.74 M12.08 21.5 C12.13 21.81, 12.18 22.13, 12.29 22.74 M12.29 22.74 C12.31 23.03, 12.33 23.31, 12.37 23.98 M12.29 22.74 C12.31 23.11, 12.34 23.48, 12.37 23.98 M12.37 23.98 C12.37 24.3, 12.36 24.61, 12.34 25.2 M12.37 23.98 C12.36 24.37, 12.35 24.76, 12.34 25.2 M12.34 25.2 C12.29 25.59, 12.24 25.97, 12.18 26.4 M12.34 25.2 C12.3 25.5, 12.26 25.79, 12.18 26.4 M12.18 26.4 C12.09 26.79, 12 27.18, 11.91 27.57 M12.18 26.4 C12.1 26.75, 12.02 27.1, 11.91 27.57 M11.91 27.57 C11.78 27.96, 11.65 28.35, 11.53 28.7 M11.91 27.57 C11.79 27.92, 11.67 28.27, 11.53 28.7 M11.53 28.7 C11.38 29.02, 11.24 29.34, 11.04 29.78 M11.53 28.7 C11.38 29.04, 11.23 29.38, 11.04 29.78 M11.04 29.78 C10.88 30.06, 10.73 30.34, 10.46 30.82 M11.04 29.78 C10.91 30.02, 10.78 30.25, 10.46 30.82 M10.46 30.82 C10.3 31.04, 10.14 31.27, 9.78 31.79 M10.46 30.82 C10.27 31.08, 10.09 31.34, 9.78 31.79 M9.78 31.79 C9.54 32.07, 9.3 32.34, 9 32.69 M9.78 31.79 C9.58 32.02, 9.38 32.25, 9 32.69 M9 32.69 C8.74 32.95, 8.47 33.2, 8.15 33.52 M9 32.69 C8.68 33, 8.36 33.31, 8.15 33.52 M8.15 33.52 C7.95 33.67, 7.76 33.83, 7.21 34.26 M8.15 33.52 C7.86 33.74, 7.58 33.97, 7.21 34.26 M7.21 34.26 C6.92 34.44, 6.64 34.63, 6.19 34.92 M7.21 34.26 C6.8 34.52, 6.4 34.78, 6.19 34.92 M6.19 34.92 C5.81 35.11, 5.42 35.31, 5.1 35.47 M6.19 34.92 C5.97 35.03, 5.75 35.14, 5.1 35.47 M5.1 35.47 C4.66 35.65, 4.22 35.82, 3.95 35.92 M5.1 35.47 C4.85 35.57, 4.6 35.67, 3.95 35.92 M3.95 35.92 C3.61 36.02, 3.28 36.11, 2.73 36.26 M3.95 35.92 C3.67 36, 3.39 36.08, 2.73 36.26 M2.73 36.26 C2.41 36.32, 2.09 36.37, 1.48 36.48 M2.73 36.26 C2.38 36.32, 2.03 36.38, 1.48 36.48 M1.48 36.48 C1.07 36.51, 0.66 36.53, 0.24 36.56 M1.48 36.48 C1 36.51, 0.51 36.54, 0.24 36.56 M0.24 36.56 C-0.03 36.55, -0.3 36.55, -0.98 36.52 M0.24 36.56 C-0.16 36.55, -0.57 36.54, -0.98 36.52 M-0.98 36.52 C-1.26 36.49, -1.53 36.45, -2.18 36.37 M-0.98 36.52 C-1.38 36.47, -1.79 36.42, -2.18 36.37 M-2.18 36.37 C-2.64 36.26, -3.09 36.15, -3.35 36.1 M-2.18 36.37 C-2.52 36.29, -2.86 36.21, -3.35 36.1 M-3.35 36.1 C-3.71 35.97, -4.07 35.85, -4.48 35.72 M-3.35 36.1 C-3.62 36, -3.9 35.91, -4.48 35.72 M-4.48 35.72 C-4.87 35.54, -5.27 35.36, -5.56 35.23 M-4.48 35.72 C-4.89 35.53, -5.3 35.35, -5.56 35.23 M-5.56 35.23 C-5.85 35.07, -6.13 34.91, -6.59 34.64 M-5.56 35.23 C-5.9 35.03, -6.25 34.84, -6.59 34.64 M-6.59 34.64 C-6.92 34.42, -7.24 34.19, -7.56 33.96 M-6.59 34.64 C-6.97 34.38, -7.34 34.12, -7.56 33.96 M-7.56 33.96 C-7.76 33.79, -7.97 33.62, -8.47 33.19 M-7.56 33.96 C-7.88 33.69, -8.2 33.41, -8.47 33.19 M-8.47 33.19 C-8.78 32.87, -9.08 32.55, -9.29 32.33 M-8.47 33.19 C-8.79 32.85, -9.12 32.51, -9.29 32.33 M-9.29 32.33 C-9.46 32.13, -9.62 31.92, -10.04 31.39 M-9.29 32.33 C-9.52 32.05, -9.74 31.77, -10.04 31.39 M-10.04 31.39 C-10.27 31.04, -10.5 30.68, -10.69 30.38 M-10.04 31.39 C-10.22 31.11, -10.41 30.82, -10.69 30.38 M-10.69 30.38 C-10.9 29.98, -11.1 29.58, -11.25 29.29 M-10.69 30.38 C-10.85 30.06, -11.02 29.74, -11.25 29.29 M-11.25 29.29 C-11.35 29.03, -11.46 28.76, -11.7 28.13 M-11.25 29.29 C-11.43 28.83, -11.61 28.37, -11.7 28.13 M-11.7 28.13 C-11.8 27.76, -11.91 27.39, -12.04 26.92 M-11.7 28.13 C-11.8 27.78, -11.9 27.43, -12.04 26.92 M-12.04 26.92 C-12.04 26.89, -12.04 26.86, -12.04 26.84 M-12.04 26.92 C-12.04 26.89, -12.04 26.87, -12.04 26.84 M-12.04 26.84 C-12.04 26.84, -12.04 26.84, -12.04 26.84 M-12.04 26.84 C-12.04 26.84, -12.04 26.84, -12.04 26.84 M-12.04 26.84 C-12.07 26.38, -12.09 25.91, -12.12 25.48 M-12.04 26.84 C-12.07 26.34, -12.1 25.85, -12.12 25.48 M-12.12 25.48 C-12.09 24.93, -12.06 24.39, -12.04 24.11 M-12.12 25.48 C-12.09 25.02, -12.07 24.56, -12.04 24.11 M-12.04 24.11 C-14.88 24.11, -17.72 24.11, -24.11 24.11 M-12.04 24.11 C-15.18 24.11, -18.33 24.11, -24.11 24.11 M-24.11 24.11 C-24.11 24.11, -24.11 24.11, -24.11 24.11 M-24.11 24.11 C-24.11 24.11, -24.11 24.11, -24.11 24.11 M-24.11 24.11 C-24.07 24.96, -24.03 25.81, -23.99 26.59 M-24.11 24.11 C-24.08 24.77, -24.05 25.43, -23.99 26.59 M-23.99 26.59 C-23.85 27.52, -23.7 28.46, -23.62 28.98 M-23.99 26.59 C-23.9 27.18, -23.81 27.77, -23.62 28.98 M-23.62 28.98 C-23.41 29.84, -23.19 30.69, -23.03 31.3 M-23.62 28.98 C-23.47 29.6, -23.31 30.23, -23.03 31.3 M-23.03 31.3 C-22.77 32.02, -22.51 32.73, -22.22 33.52 M-23.03 31.3 C-22.74 32.1, -22.45 32.89, -22.22 33.52 M-22.22 33.52 C-21.91 34.15, -21.61 34.78, -21.2 35.63 M-22.22 33.52 C-21.98 34.02, -21.74 34.52, -21.2 35.63 M-21.2 35.63 C-20.72 36.42, -20.24 37.21, -19.99 37.62 M-21.2 35.63 C-20.72 36.43, -20.24 37.22, -19.99 37.62 M-19.99 37.62 C-19.55 38.21, -19.11 38.8, -18.6 39.48 M-19.99 37.62 C-19.54 38.23, -19.08 38.84, -18.6 39.48 M-18.6 39.48 C-18.26 39.86, -17.91 40.25, -17.04 41.2 M-18.6 39.48 C-18.01 40.13, -17.42 40.79, -17.04 41.2 M-17.04 41.2 C-16.55 41.65, -16.05 42.1, -15.33 42.75 M-17.04 41.2 C-16.38 41.8, -15.71 42.4, -15.33 42.75 M-15.33 42.75 C-14.67 43.25, -14.01 43.74, -13.47 44.14 M-15.33 42.75 C-14.68 43.24, -14.02 43.73, -13.47 44.14 M-13.47 44.14 C-12.92 44.48, -12.37 44.81, -11.48 45.35 M-13.47 44.14 C-12.99 44.44, -12.5 44.73, -11.48 45.35 M-11.48 45.35 C-10.67 45.74, -9.86 46.13, -9.37 46.37 M-11.48 45.35 C-10.86 45.65, -10.23 45.95, -9.37 46.37 M-9.37 46.37 C-8.87 46.55, -8.36 46.74, -7.15 47.18 M-9.37 46.37 C-8.91 46.54, -8.44 46.71, -7.15 47.18 M-7.15 47.18 C-6.6 47.32, -6.06 47.46, -4.83 47.78 M-7.15 47.18 C-6.61 47.32, -6.06 47.46, -4.83 47.78 M-4.83 47.78 C-4.18 47.88, -3.52 47.98, -2.43 48.14 M-4.83 47.78 C-3.91 47.92, -2.99 48.06, -2.43 48.14 M-2.43 48.14 C-1.74 48.18, -1.04 48.21, 0.04 48.27 M-2.43 48.14 C-1.64 48.18, -0.84 48.22, 0.04 48.27 M0.04 48.27 C0.64 48.24, 1.24 48.21, 2.51 48.14 M0.04 48.27 C0.92 48.22, 1.81 48.18, 2.51 48.14 M2.51 48.14 C3.05 48.06, 3.6 47.97, 4.91 47.78 M2.51 48.14 C3.35 48.01, 4.2 47.88, 4.91 47.78 M4.91 47.78 C5.72 47.57, 6.53 47.36, 7.22 47.18 M4.91 47.78 C5.61 47.59, 6.32 47.41, 7.22 47.18 M7.22 47.18 C7.71 47, 8.2 46.82, 9.44 46.37 M7.22 47.18 C7.79 46.97, 8.35 46.77, 9.44 46.37 M9.44 46.37 C10.07 46.07, 10.7 45.76, 11.55 45.35 M9.44 46.37 C10.03 46.09, 10.62 45.8, 11.55 45.35 M11.55 45.35 C12.24 44.93, 12.93 44.51, 13.54 44.14 M11.55 45.35 C12.33 44.88, 13.11 44.41, 13.54 44.14 M13.54 44.14 C14.25 43.61, 14.96 43.08, 15.4 42.75 M13.54 44.14 C14.15 43.69, 14.76 43.23, 15.4 42.75 M15.4 42.75 C15.97 42.24, 16.53 41.73, 17.12 41.2 M15.4 42.75 C15.85 42.35, 16.29 41.94, 17.12 41.2 M17.12 41.2 C17.71 40.55, 18.3 39.89, 18.68 39.48 M17.12 41.2 C17.71 40.54, 18.3 39.89, 18.68 39.48 M18.68 39.48 C19 39.05, 19.32 38.61, 20.07 37.62 M18.68 39.48 C18.95 39.11, 19.23 38.74, 20.07 37.62 M20.07 37.62 C20.38 37.1, 20.7 36.57, 21.27 35.63 M20.07 37.62 C20.49 36.92, 20.92 36.22, 21.27 35.63 M21.27 35.63 C21.64 34.87, 22.01 34.11, 22.29 33.52 M21.27 35.63 C21.56 35.03, 21.85 34.44, 22.29 33.52 M22.29 33.52 C22.53 32.87, 22.77 32.22, 23.1 31.3 M22.29 33.52 C22.49 32.97, 22.69 32.42, 23.1 31.3 M23.1 31.3 C23.31 30.48, 23.52 29.66, 23.7 28.98 M23.1 31.3 C23.23 30.8, 23.36 30.3, 23.7 28.98 M23.7 28.98 C23.81 28.22, 23.93 27.46, 24.06 26.59 M23.7 28.98 C23.79 28.37, 23.88 27.76, 24.06 26.59 M24.06 26.59 C24.1 25.86, 24.14 25.13, 24.19 24.11 M24.06 26.59 C24.09 25.99, 24.12 25.39, 24.19 24.11 M24.19 24.11 C24.15 23.43, 24.12 22.75, 24.06 21.64 M24.19 24.11 C24.16 23.51, 24.13 22.9, 24.06 21.64 M24.06 21.64 C23.92 20.69, 23.77 19.73, 23.7 19.25 M24.06 21.64 C23.97 21.07, 23.89 20.49, 23.7 19.25 M23.7 19.25 C23.52 18.57, 23.35 17.89, 23.1 16.93 M23.7 19.25 C23.53 18.59, 23.36 17.93, 23.1 16.93 M23.1 16.93 C22.83 16.2, 22.56 15.47, 22.29 14.72 M23.1 16.93 C22.91 16.42, 22.73 15.92, 22.29 14.72 M22.29 14.72 C21.89 13.9, 21.5 13.09, 21.27 12.61 M22.29 14.72 C21.97 14.06, 21.65 13.4, 21.27 12.61 M21.27 12.61 C20.92 12.04, 20.57 11.47, 20.05 10.62 M21.27 12.61 C20.95 12.09, 20.64 11.58, 20.05 10.62 M20.05 10.62 C19.55 9.95, 19.05 9.28, 18.66 8.76 M20.05 10.62 C19.68 10.13, 19.31 9.63, 18.66 8.76 M18.66 8.76 C18.19 8.25, 17.72 7.73, 17.1 7.05 M18.66 8.76 C18.17 8.22, 17.68 7.69, 17.1 7.05 M17.1 7.05 C16.57 6.57, 16.04 6.09, 15.38 5.5 M17.1 7.05 C16.48 6.49, 15.87 5.94, 15.38 5.5 M15.38 5.5 C14.73 5.01, 14.07 4.52, 13.52 4.11 M15.38 5.5 C14.97 5.19, 14.55 4.88, 13.52 4.11 M13.52 4.11 C12.89 3.73, 12.26 3.35, 11.52 2.9 M13.52 4.11 C12.72 3.63, 11.93 3.15, 11.52 2.9 M11.52 2.9 C10.98 2.64, 10.44 2.39, 9.41 1.89 M11.52 2.9 C10.8 2.56, 10.08 2.21, 9.41 1.89 M9.41 1.89 C8.63 1.6, 7.84 1.32, 7.19 1.08 M9.41 1.89 C8.81 1.67, 8.2 1.45, 7.19 1.08 M7.19 1.08 C6.34 0.86, 5.49 0.65, 4.87 0.49 M7.19 1.08 C6.57 0.92, 5.95 0.77, 4.87 0.49 M4.87 0.49 C3.95 0.35, 3.03 0.21, 2.47 0.12 M4.87 0.49 C4.25 0.39, 3.64 0.3, 2.47 0.12 M2.47 0.12 C1.79 0.09, 1.11 0.06, 0 0 M2.47 0.12 C1.66 0.08, 0.84 0.04, 0 0 M0 0 C0 0, 0 0, 0 0 M0 0 C0 0, 0 0, 0 0 M0 0 C0 0, 0 0, 0 0 M0 0 C0 0, 0 0, 0 0" stroke="#000000" stroke-width="1" fill="none"></path></g></g><mask></mask><g transform="translate(6 199.0674261396096) rotate(0 112 20.5)"><text x="0" y="0" font-family="Helvetica, Segoe UI Emoji" font-size="35.793220782620054px" fill="#000000" text-anchor="start" style="white-space: pre;" direction="ltr" dominant-baseline="text-before-edge">Apigee Sense</text></g></svg>