<svg xmlns="http://www.w3.org/2000/svg" viewBox="1188.97 3218.97 128.82 143.31" width="129" height="143"><rect x="1247.94" y="3249.93" width="10.57" height="33.33" rx="0" stroke="#1864ab" stroke-width="1" opacity="1.0" fill="#4285f4"/><rect x="1217.98" y="3225.46" width="34.72" height="29.31" rx="0" stroke="#669df6" stroke-width="1" opacity="1.0" fill="#aecbfa"/><rect x="1253.00" y="3224.97" width="34.72" height="29.31" rx="0" stroke="#1864ab" stroke-width="1" opacity="1.0" fill="#669df6"/><polyline points="1206.44,3313.44 1206.31,3278.97 1299.79,3279.21 1300.47,3318.89 1287.83,3318.57 1288.24,3290.47 1258.69,3291.01 1259.48,3321.81 1247.84,3320.12 1247.56,3290.74 1217.51,3290.56 1217.98,3316.58 1207.32,3315.64" fill="#669df6" stroke="#1864ab" stroke-width="1" opacity="1.0" stroke-linecap="round" stroke-linejoin="round"/><rect x="1194.97" y="3308.52" width="17.02" height="34.03" rx="0" stroke="#669df6" stroke-width="1" opacity="1.0" fill="#aecbfa"/><rect x="1212.64" y="3308.25" width="17.02" height="34.03" rx="0" stroke="#1864ab" stroke-width="1" opacity="1.0" fill="#669df6"/><rect x="1235.44" y="3308.84" width="17.02" height="34.03" rx="0" stroke="#669df6" stroke-width="1" opacity="1.0" fill="#aecbfa"/><rect x="1253.11" y="3308.57" width="17.02" height="34.03" rx="0" stroke="#1864ab" stroke-width="1" opacity="1.0" fill="#669df6"/><rect x="1277.10" y="3308.33" width="17.02" height="34.03" rx="0" stroke="#669df6" stroke-width="1" opacity="1.0" fill="#aecbfa"/><rect x="1294.77" y="3308.06" width="17.02" height="34.03" rx="0" stroke="#1864ab" stroke-width="1" opacity="1.0" fill="#669df6"/></svg>