<svg xmlns="http://www.w3.org/2000/svg" viewBox="328.17 1168.75 172.00 84.00" width="172" height="84"><rect x="334.17" y="1174.75" width="160.00" height="72.00" rx="0" stroke="#4285f4" stroke-width="2" opacity="1.0" fill="#FFF"/><text x="399.17" y="1215.75" font-size="12" fill="#000000" opacity="1.0" font-family="sans-serif">Cloud SQL</text><polyline points="356.89,1208.67 356.89,1212.69 366.67,1217.89 366.67,1213.87 356.89,1208.67 356.89,1208.67" fill="none" stroke="#00000000" stroke-width="1" opacity="1.0" stroke-linecap="round" stroke-linejoin="round"/><polyline points="356.89,1214.87 356.89,1218.89 366.67,1224.09 366.67,1220.07 356.89,1214.87 356.89,1214.87" fill="none" stroke="#00000000" stroke-width="1" opacity="1.0" stroke-linecap="round" stroke-linejoin="round"/><polyline points="366.67,1217.89 376.44,1212.69 376.44,1208.67 366.67,1213.87 366.67,1217.89 366.67,1217.89" fill="none" stroke="#00000000" stroke-width="1" opacity="1.0" stroke-linecap="round" stroke-linejoin="round"/><polyline points="366.67,1224.09 376.44,1218.89 376.44,1214.87 366.67,1220.07 366.67,1224.09 366.67,1224.09" fill="none" stroke="#00000000" stroke-width="1" opacity="1.0" stroke-linecap="round" stroke-linejoin="round"/><polyline points="376.44,1206.63 376.44,1202.62 366.67,1197.42 366.67,1201.43 376.44,1206.63 376.44,1206.63" fill="none" stroke="#00000000" stroke-width="1" opacity="1.0" stroke-linecap="round" stroke-linejoin="round"/><polyline points="366.67,1197.42 356.89,1202.62 356.89,1206.63 366.67,1201.43 366.67,1197.42 366.67,1197.42" fill="none" stroke="#00000000" stroke-width="1" opacity="1.0" stroke-linecap="round" stroke-linejoin="round"/><polyline points="356.89,1202.58 356.89,1206.61 366.67,1211.81 366.67,1207.78 356.89,1202.58 356.89,1202.58" fill="none" stroke="#00000000" stroke-width="1" opacity="1.0" stroke-linecap="round" stroke-linejoin="round"/><polyline points="366.67,1211.81 376.44,1206.61 376.44,1202.58 366.67,1207.78 366.67,1211.81 366.67,1211.81" fill="none" stroke="#00000000" stroke-width="1" opacity="1.0" stroke-linecap="round" stroke-linejoin="round"/></svg>