<svg version="1.1" xmlns="http://www.w3.org/2000/svg" viewBox="0 0 172 84" width="172" height="84">
  <!-- svg-source:excalidraw -->
  
  <defs>
    
    
  </defs>
  <g stroke-linecap="round" transform="translate(6 6) rotate(0 80 36)"><path d="M18 0 C63.65 0, 109.3 0, 142 0 C154 0, 160 6, 160 18 C160 28.54, 160 39.08, 160 54 C160 66, 154 72, 142 72 C94.35 72, 46.7 72, 18 72 C6 72, 0 66, 0 54 C0 41.76, 0 29.52, 0 18 C0 6, 6 0, 18 0" stroke="none" stroke-width="0" fill="#FFF"></path><path d="M18 0 C44.93 0, 71.87 0, 142 0 M18 0 C67.33 0, 116.67 0, 142 0 M142 0 C154 0, 160 6, 160 18 M142 0 C154 0, 160 6, 160 18 M160 18 C160 30.35, 160 42.71, 160 54 M160 18 C160 29.12, 160 40.24, 160 54 M160 54 C160 66, 154 72, 142 72 M160 54 C160 66, 154 72, 142 72 M142 72 C100.58 72, 59.16 72, 18 72 M142 72 C99.62 72, 57.24 72, 18 72 M18 72 C6 72, 0 66, 0 54 M18 72 C6 72, 0 66, 0 54 M0 54 C0 44.43, 0 34.87, 0 18 M0 54 C0 43.47, 0 32.93, 0 18 M0 18 C0 6, 6 0, 18 0 M0 18 C0 6, 6 0, 18 0" stroke="#4285f4" stroke-width="2" fill="none"></path></g><g transform="translate(71 35) rotate(0 42 7)"><text x="0" y="0" font-family="Helvetica, Segoe UI Emoji" font-size="12px" fill="#000000" text-anchor="start" style="white-space: pre;" direction="ltr" dominant-baseline="text-before-edge">Speech-To-Text</text></g><g stroke-linecap="round"><g transform="translate(37.166666984558105 28.666666746139526) rotate(0 1.3333334922790527 13.333333611488342)" fill-rule="evenodd"><path d="M0 0 L2.67 0 L2.67 26.67 L0 26.67 L0 0" stroke="none" stroke-width="0" fill="#4285f4" fill-rule="evenodd"></path><path d="M0 0 C0.6 0, 1.2 0, 2.67 0 M0 0 C0.58 0, 1.15 0, 2.67 0 M2.67 0 C2.67 8.92, 2.67 17.85, 2.67 26.67 M2.67 0 C2.67 7.66, 2.67 15.32, 2.67 26.67 M2.67 26.67 C1.63 26.67, 0.58 26.67, 0 26.67 M2.67 26.67 C1.79 26.67, 0.92 26.67, 0 26.67 M0 26.67 C0 17.76, 0 8.85, 0 0 M0 26.67 C0 17.55, 0 8.44, 0 0 M0 0 C0 0, 0 0, 0 0 M0 0 C0 0, 0 0, 0 0" stroke="#00000000" stroke-width="1" fill="none"></path></g></g><mask></mask><g stroke-linecap="round"><g transform="translate(31.83333396911621 36.666666984558105) rotate(0 1.3333330154418945 5.333333492279053)" fill-rule="evenodd"><path d="M0 0 L2.67 0 L2.67 10.67 L0 10.67 L0 0" stroke="none" stroke-width="0" fill="#4285f4" fill-rule="evenodd"></path><path d="M0 0 C0.98 0, 1.96 0, 2.67 0 M0 0 C0.75 0, 1.51 0, 2.67 0 M2.67 0 C2.67 2.32, 2.67 4.64, 2.67 10.67 M2.67 0 C2.67 2.66, 2.67 5.33, 2.67 10.67 M2.67 10.67 C1.75 10.67, 0.84 10.67, 0 10.67 M2.67 10.67 C1.9 10.67, 1.14 10.67, 0 10.67 M0 10.67 C0 6.73, 0 2.79, 0 0 M0 10.67 C0 6.96, 0 3.25, 0 0 M0 0 C0 0, 0 0, 0 0 M0 0 C0 0, 0 0, 0 0" stroke="#00000000" stroke-width="1" fill="none"></path></g></g><mask></mask><g stroke-linecap="round"><g transform="translate(42.5 36.666666984558105) rotate(0 1.333333969116211 5.333333492279053)" fill-rule="evenodd"><path d="M0 0 L2.67 0 L2.67 10.67 L0 10.67 L0 0" stroke="none" stroke-width="0" fill="#4285f4" fill-rule="evenodd"></path><path d="M0 0 C1.01 0, 2.02 0, 2.67 0 M0 0 C0.84 0, 1.69 0, 2.67 0 M2.67 0 C2.67 3.82, 2.67 7.64, 2.67 10.67 M2.67 0 C2.67 4.21, 2.67 8.41, 2.67 10.67 M2.67 10.67 C1.95 10.67, 1.24 10.67, 0 10.67 M2.67 10.67 C1.86 10.67, 1.06 10.67, 0 10.67 M0 10.67 C0 7.14, 0 3.62, 0 0 M0 10.67 C0 7.37, 0 4.07, 0 0 M0 0 C0 0, 0 0, 0 0 M0 0 C0 0, 0 0, 0 0" stroke="#00000000" stroke-width="1" fill="none"></path></g></g><mask></mask><g stroke-linecap="round"><g transform="translate(26.5 32.666666984558105) rotate(0 1.3333334922790527 9.333333492279053)" fill-rule="evenodd"><path d="M0 0 L2.67 0 L2.67 18.67 L0 18.67 L0 0" stroke="none" stroke-width="0" fill="#4285f4" fill-rule="evenodd"></path><path d="M0 0 C0.65 0, 1.29 0, 2.67 0 M0 0 C0.65 0, 1.31 0, 2.67 0 M2.67 0 C2.67 4.54, 2.67 9.09, 2.67 18.67 M2.67 0 C2.67 5.84, 2.67 11.69, 2.67 18.67 M2.67 18.67 C1.98 18.67, 1.29 18.67, 0 18.67 M2.67 18.67 C1.72 18.67, 0.78 18.67, 0 18.67 M0 18.67 C0 13.64, 0 8.6, 0 0 M0 18.67 C0 11.28, 0 3.9, 0 0 M0 0 C0 0, 0 0, 0 0 M0 0 C0 0, 0 0, 0 0" stroke="#00000000" stroke-width="1" fill="none"></path></g></g><mask></mask><g stroke-linecap="round"><g transform="translate(47.83333396911621 32.666666984558105) rotate(0 1.3333330154418945 9.333333492279053)" fill-rule="evenodd"><path d="M0 0 L2.67 0 L2.67 18.67 L0 18.67 L0 0" stroke="none" stroke-width="0" fill="#4285f4" fill-rule="evenodd"></path><path d="M0 0 C0.74 0, 1.48 0, 2.67 0 M0 0 C1.01 0, 2.01 0, 2.67 0 M2.67 0 C2.67 6.39, 2.67 12.78, 2.67 18.67 M2.67 0 C2.67 5.41, 2.67 10.82, 2.67 18.67 M2.67 18.67 C1.64 18.67, 0.62 18.67, 0 18.67 M2.67 18.67 C1.75 18.67, 0.84 18.67, 0 18.67 M0 18.67 C0 13.92, 0 9.18, 0 0 M0 18.67 C0 11.65, 0 4.62, 0 0 M0 0 C0 0, 0 0, 0 0 M0 0 C0 0, 0 0, 0 0" stroke="#00000000" stroke-width="1" fill="none"></path></g></g><mask></mask><g stroke-linecap="round"><g transform="translate(37.166666984558105 28.666666746139526) rotate(0 1.3333334922790527 6.666666626930237)" fill-rule="evenodd"><path d="M0 0 L2.67 0 L2.67 13.33 L0 13.33 L0 0" stroke="none" stroke-width="0" fill="#669df6" fill-rule="evenodd"></path><path d="M0 0 C1.06 0, 2.12 0, 2.67 0 M0 0 C0.59 0, 1.18 0, 2.67 0 M2.67 0 C2.67 3.56, 2.67 7.11, 2.67 13.33 M2.67 0 C2.67 4.98, 2.67 9.97, 2.67 13.33 M2.67 13.33 C2.07 13.33, 1.48 13.33, 0 13.33 M2.67 13.33 C1.65 13.33, 0.64 13.33, 0 13.33 M0 13.33 C0 10.53, 0 7.72, 0 0 M0 13.33 C0 9.56, 0 5.78, 0 0 M0 0 C0 0, 0 0, 0 0 M0 0 C0 0, 0 0, 0 0" stroke="#00000000" stroke-width="1" fill="none"></path></g></g><mask></mask><g stroke-linecap="round"><g transform="translate(31.83333396911621 36.666666984558105) rotate(0 1.3333330154418945 2.6666665077209473)" fill-rule="evenodd"><path d="M0 0 L2.67 0 L2.67 5.33 L0 5.33 L0 0" stroke="none" stroke-width="0" fill="#669df6" fill-rule="evenodd"></path><path d="M0 0 C0.88 0, 1.76 0, 2.67 0 M0 0 C0.69 0, 1.37 0, 2.67 0 M2.67 0 C2.67 1.83, 2.67 3.66, 2.67 5.33 M2.67 0 C2.67 1.65, 2.67 3.29, 2.67 5.33 M2.67 5.33 C2.08 5.33, 1.5 5.33, 0 5.33 M2.67 5.33 C2.04 5.33, 1.42 5.33, 0 5.33 M0 5.33 C0 3.79, 0 2.25, 0 0 M0 5.33 C0 4.02, 0 2.7, 0 0 M0 0 C0 0, 0 0, 0 0 M0 0 C0 0, 0 0, 0 0" stroke="#00000000" stroke-width="1" fill="none"></path></g></g><mask></mask><g stroke-linecap="round"><g transform="translate(42.5 36.666666984558105) rotate(0 1.333333969116211 2.6666665077209473)" fill-rule="evenodd"><path d="M0 0 L2.67 0 L2.67 5.33 L0 5.33 L0 0" stroke="none" stroke-width="0" fill="#669df6" fill-rule="evenodd"></path><path d="M0 0 C0.58 0, 1.15 0, 2.67 0 M0 0 C0.89 0, 1.78 0, 2.67 0 M2.67 0 C2.67 1.53, 2.67 3.06, 2.67 5.33 M2.67 0 C2.67 2.08, 2.67 4.16, 2.67 5.33 M2.67 5.33 C1.79 5.33, 0.92 5.33, 0 5.33 M2.67 5.33 C1.78 5.33, 0.89 5.33, 0 5.33 M0 5.33 C0 3.51, 0 1.69, 0 0 M0 5.33 C0 3.88, 0 2.42, 0 0 M0 0 C0 0, 0 0, 0 0 M0 0 C0 0, 0 0, 0 0" stroke="#00000000" stroke-width="1" fill="none"></path></g></g><mask></mask><g stroke-linecap="round"><g transform="translate(26.5 32.666666984558105) rotate(0 1.3333334922790527 4.666666507720947)" fill-rule="evenodd"><path d="M0 0 L2.67 0 L2.67 9.33 L0 9.33 L0 0" stroke="none" stroke-width="0" fill="#669df6" fill-rule="evenodd"></path><path d="M0 0 C0.75 0, 1.51 0, 2.67 0 M0 0 C0.58 0, 1.16 0, 2.67 0 M2.67 0 C2.67 2.33, 2.67 4.66, 2.67 9.33 M2.67 0 C2.67 3.19, 2.67 6.38, 2.67 9.33 M2.67 9.33 C1.9 9.33, 1.14 9.33, 0 9.33 M2.67 9.33 C1.68 9.33, 0.7 9.33, 0 9.33 M0 9.33 C0 6.09, 0 2.84, 0 0 M0 9.33 C0 5.73, 0 2.12, 0 0 M0 0 C0 0, 0 0, 0 0 M0 0 C0 0, 0 0, 0 0" stroke="#00000000" stroke-width="1" fill="none"></path></g></g><mask></mask><g stroke-linecap="round"><g transform="translate(47.83333396911621 32.666666984558105) rotate(0 1.3333330154418945 4.666666507720947)" fill-rule="evenodd"><path d="M0 0 L2.67 0 L2.67 9.33 L0 9.33 L0 0" stroke="none" stroke-width="0" fill="#669df6" fill-rule="evenodd"></path><path d="M0 0 C0.84 0, 1.69 0, 2.67 0 M0 0 C0.96 0, 1.91 0, 2.67 0 M2.67 0 C2.67 3.68, 2.67 7.36, 2.67 9.33 M2.67 0 C2.67 2.49, 2.67 4.99, 2.67 9.33 M2.67 9.33 C1.86 9.33, 1.06 9.33, 0 9.33 M2.67 9.33 C1.79 9.33, 0.9 9.33, 0 9.33 M0 9.33 C0 6.45, 0 3.56, 0 0 M0 9.33 C0 6.86, 0 4.38, 0 0 M0 0 C0 0, 0 0, 0 0 M0 0 C0 0, 0 0, 0 0" stroke="#00000000" stroke-width="1" fill="none"></path></g></g><mask></mask></svg>