<svg version="1.1" xmlns="http://www.w3.org/2000/svg" viewBox="0 0 200 210.20883938433622" width="200" height="210.20883938433622">
  <!-- svg-source:excalidraw -->
  
  <defs>
    
    
  </defs>
  <g stroke-linecap="round"><g transform="translate(14.91103275333171 56.487775021094194) rotate(0 11.45532757935004 6.873194413155943)" fill-rule="evenodd"><path d="M0 0 L22.91 0 L22.91 13.75 L0 13.75 L0 0" stroke="none" stroke-width="0" fill="#669df6" fill-rule="evenodd"></path><path d="M0 0 C7.04 0, 14.08 0, 22.91 0 M0 0 C6.03 0, 12.07 0, 22.91 0 M22.91 0 C22.91 3.34, 22.91 6.68, 22.91 13.75 M22.91 0 C22.91 3.4, 22.91 6.81, 22.91 13.75 M22.91 13.75 C16.77 13.75, 10.63 13.75, 0 13.75 M22.91 13.75 C17.97 13.75, 13.03 13.75, 0 13.75 M0 13.75 C0 9.81, 0 5.88, 0 0 M0 13.75 C0 8.37, 0 2.99, 0 0 M0 0 C0 0, 0 0, 0 0 M0 0 C0 0, 0 0, 0 0" stroke="#000000" stroke-width="1" fill="none"></path></g></g><mask></mask><g stroke-linecap="round"><g transform="translate(37.5686865983389 35.85412821093291) rotate(0 18.581524050775414 27.520894866316667)" fill-rule="evenodd"><path d="M0 0 L37.16 0 L37.16 0 L37.57 0.04 L37.95 0.16 L38.3 0.34 L38.6 0.59 L38.84 0.89 L39.03 1.23 L39.15 1.61 L39.19 2.02 L39.19 53.02 L39.19 53.02 L39.15 53.43 L39.03 53.81 L38.84 54.15 L38.6 54.45 L38.3 54.7 L37.95 54.88 L37.57 55 L37.16 55.04 L0 55.04 L0 55.04 L-0.41 55 L-0.79 54.88 L-1.13 54.7 L-1.43 54.45 L-1.68 54.15 L-1.87 53.81 L-1.98 53.43 L-2.02 53.02 L-2.02 2.05 L-2.02 2.05 L-1.99 1.64 L-1.88 1.26 L-1.69 0.91 L-1.44 0.6 L-1.14 0.35 L-0.79 0.16 L-0.41 0.04 L0 0 L0 0" stroke="none" stroke-width="0" fill="#4285f4" fill-rule="evenodd"></path><path d="M0 0 C10.4 0, 20.79 0, 37.16 0 M0 0 C10.47 0, 20.93 0, 37.16 0 M37.16 0 C37.16 0, 37.16 0, 37.16 0 M37.16 0 C37.16 0, 37.16 0, 37.16 0 M37.16 0 C37.31 0.01, 37.46 0.03, 37.57 0.04 M37.16 0 C37.25 0.01, 37.33 0.02, 37.57 0.04 M37.57 0.04 C37.71 0.08, 37.84 0.12, 37.95 0.16 M37.57 0.04 C37.67 0.07, 37.76 0.1, 37.95 0.16 M37.95 0.16 C38.03 0.2, 38.1 0.24, 38.3 0.34 M37.95 0.16 C38.02 0.2, 38.09 0.23, 38.3 0.34 M38.3 0.34 C38.36 0.4, 38.42 0.45, 38.6 0.59 M38.3 0.34 C38.36 0.39, 38.42 0.44, 38.6 0.59 M38.6 0.59 C38.69 0.7, 38.78 0.81, 38.84 0.89 M38.6 0.59 C38.68 0.69, 38.75 0.78, 38.84 0.89 M38.84 0.89 C38.9 0.99, 38.95 1.08, 39.03 1.23 M38.84 0.89 C38.89 0.98, 38.94 1.07, 39.03 1.23 M39.03 1.23 C39.07 1.36, 39.11 1.49, 39.15 1.61 M39.03 1.23 C39.07 1.37, 39.11 1.51, 39.15 1.61 M39.15 1.61 C39.16 1.74, 39.17 1.86, 39.19 2.02 M39.15 1.61 C39.16 1.74, 39.17 1.86, 39.19 2.02 M39.19 2.02 C39.19 18.86, 39.19 35.69, 39.19 53.02 M39.19 2.02 C39.19 14.81, 39.19 27.59, 39.19 53.02 M39.19 53.02 C39.19 53.02, 39.19 53.02, 39.19 53.02 M39.19 53.02 C39.19 53.02, 39.19 53.02, 39.19 53.02 M39.19 53.02 C39.17 53.16, 39.16 53.3, 39.15 53.43 M39.19 53.02 C39.18 53.13, 39.17 53.24, 39.15 53.43 M39.15 53.43 C39.12 53.51, 39.1 53.59, 39.03 53.81 M39.15 53.43 C39.11 53.54, 39.08 53.66, 39.03 53.81 M39.03 53.81 C38.98 53.9, 38.93 53.99, 38.84 54.15 M39.03 53.81 C38.96 53.94, 38.89 54.07, 38.84 54.15 M38.84 54.15 C38.77 54.24, 38.7 54.32, 38.6 54.45 M38.84 54.15 C38.75 54.27, 38.65 54.39, 38.6 54.45 M38.6 54.45 C38.49 54.54, 38.37 54.64, 38.3 54.7 M38.6 54.45 C38.48 54.54, 38.37 54.64, 38.3 54.7 M38.3 54.7 C38.19 54.75, 38.09 54.81, 37.95 54.88 M38.3 54.7 C38.19 54.76, 38.08 54.82, 37.95 54.88 M37.95 54.88 C37.87 54.91, 37.79 54.93, 37.57 55 M37.95 54.88 C37.84 54.92, 37.73 54.95, 37.57 55 M37.57 55 C37.45 55.01, 37.32 55.03, 37.16 55.04 M37.57 55 C37.43 55.02, 37.29 55.03, 37.16 55.04 M37.16 55.04 C23.9 55.04, 10.63 55.04, 0 55.04 M37.16 55.04 C24.01 55.04, 10.86 55.04, 0 55.04 M0 55.04 C0 55.04, 0 55.04, 0 55.04 M0 55.04 C0 55.04, 0 55.04, 0 55.04 M0 55.04 C-0.1 55.03, -0.19 55.02, -0.41 55 M0 55.04 C-0.12 55.03, -0.24 55.02, -0.41 55 M-0.41 55 C-0.55 54.96, -0.69 54.92, -0.79 54.88 M-0.41 55 C-0.52 54.97, -0.62 54.93, -0.79 54.88 M-0.79 54.88 C-0.88 54.83, -0.98 54.78, -1.13 54.7 M-0.79 54.88 C-0.87 54.84, -0.94 54.8, -1.13 54.7 M-1.13 54.7 C-1.22 54.62, -1.31 54.55, -1.43 54.45 M-1.13 54.7 C-1.25 54.6, -1.36 54.51, -1.43 54.45 M-1.43 54.45 C-1.53 54.33, -1.63 54.21, -1.68 54.15 M-1.43 54.45 C-1.51 54.36, -1.59 54.26, -1.68 54.15 M-1.68 54.15 C-1.75 54.02, -1.83 53.88, -1.87 53.81 M-1.68 54.15 C-1.75 54.03, -1.81 53.91, -1.87 53.81 M-1.87 53.81 C-1.9 53.69, -1.94 53.57, -1.98 53.43 M-1.87 53.81 C-1.91 53.67, -1.95 53.53, -1.98 53.43 M-1.98 53.43 C-1.99 53.31, -2.01 53.2, -2.02 53.02 M-1.98 53.43 C-2 53.29, -2.01 53.16, -2.02 53.02 M-2.02 53.02 C-2.02 41.56, -2.02 30.1, -2.02 2.05 M-2.02 53.02 C-2.02 40.75, -2.02 28.49, -2.02 2.05 M-2.02 2.05 C-2.02 2.05, -2.02 2.05, -2.02 2.05 M-2.02 2.05 C-2.02 2.05, -2.02 2.05, -2.02 2.05 M-2.02 2.05 C-2.01 1.92, -2 1.8, -1.99 1.64 M-2.02 2.05 C-2.01 1.89, -2 1.74, -1.99 1.64 M-1.99 1.64 C-1.97 1.56, -1.94 1.47, -1.88 1.26 M-1.99 1.64 C-1.95 1.52, -1.92 1.39, -1.88 1.26 M-1.88 1.26 C-1.83 1.17, -1.79 1.08, -1.69 0.91 M-1.88 1.26 C-1.82 1.14, -1.76 1.03, -1.69 0.91 M-1.69 0.91 C-1.63 0.83, -1.57 0.76, -1.44 0.6 M-1.69 0.91 C-1.6 0.79, -1.5 0.67, -1.44 0.6 M-1.44 0.6 C-1.35 0.53, -1.26 0.45, -1.14 0.35 M-1.44 0.6 C-1.38 0.55, -1.32 0.5, -1.14 0.35 M-1.14 0.35 C-1.07 0.31, -0.99 0.27, -0.79 0.16 M-1.14 0.35 C-1.02 0.29, -0.9 0.22, -0.79 0.16 M-0.79 0.16 C-0.71 0.14, -0.62 0.11, -0.41 0.04 M-0.79 0.16 C-0.71 0.14, -0.62 0.11, -0.41 0.04 M-0.41 0.04 C-0.3 0.03, -0.19 0.02, 0 0 M-0.41 0.04 C-0.27 0.03, -0.13 0.01, 0 0 M0 0 C0 0, 0 0, 0 0 M0 0 C0 0, 0 0, 0 0 M0 0 C0 0, 0 0, 0 0 M0 0 C0 0, 0 0, 0 0" stroke="#000000" stroke-width="1" fill="none"></path></g></g><mask></mask><g stroke-linecap="round"><g transform="translate(161.6797674606869 56.487775021094194) rotate(0 11.455327331157704 6.873194413155943)" fill-rule="evenodd"><path d="M0 0 L22.91 0 L22.91 13.75 L0 13.75 L0 0" stroke="none" stroke-width="0" fill="#669df6" fill-rule="evenodd"></path><path d="M0 0 C5.15 0, 10.3 0, 22.91 0 M0 0 C7.2 0, 14.4 0, 22.91 0 M22.91 0 C22.91 3.8, 22.91 7.61, 22.91 13.75 M22.91 0 C22.91 2.9, 22.91 5.8, 22.91 13.75 M22.91 13.75 C14.6 13.75, 6.3 13.75, 0 13.75 M22.91 13.75 C17.81 13.75, 12.7 13.75, 0 13.75 M0 13.75 C0 9.91, 0 6.07, 0 0 M0 13.75 C0 9.91, 0 6.06, 0 0 M0 0 C0 0, 0 0, 0 0 M0 0 C0 0, 0 0, 0 0" stroke="#000000" stroke-width="1" fill="none"></path></g></g><mask></mask><g stroke-linecap="round"><g transform="translate(106.60987441313137 106.75065105064846) rotate(0 -6.873198384233348 -43.5021291266296)" fill-rule="evenodd"><path d="M0 0 L0 -87 L39.02 -87 L39.02 -98.28 L39.02 -98.28 L38.97 -98.77 L38.83 -99.23 L38.6 -99.65 L38.3 -100.02 L37.93 -100.32 L37.51 -100.55 L37.05 -100.7 L36.54 -100.75 L-50.32 -100.75 L-50.32 -100.75 L-50.81 -100.7 L-51.27 -100.56 L-51.69 -100.33 L-52.06 -100.03 L-52.37 -99.66 L-52.6 -99.24 L-52.74 -98.78 L-52.79 -98.28 L-52.79 -87 L-13.77 -87 L-13.77 0 L-52.76 0 L-52.76 11.27 L-52.76 11.27 L-52.71 11.77 L-52.57 12.23 L-52.35 12.65 L-52.04 13.02 L-51.68 13.32 L-51.26 13.55 L-50.79 13.7 L-50.29 13.75 L36.57 13.75 L36.57 13.75 L37.07 13.7 L37.53 13.55 L37.95 13.33 L38.32 13.03 L38.62 12.66 L38.85 12.24 L39 11.77 L39.05 11.27 L39.05 0 L0 0 L0 0" stroke="none" stroke-width="0" fill="#669df6" fill-rule="evenodd"></path><path d="M0 0 C0 -32.83, 0 -65.66, 0 -87 M0 0 C0 -22.3, 0 -44.59, 0 -87 M0 -87 C9.62 -87, 19.23 -87, 39.02 -87 M0 -87 C12.57 -87, 25.14 -87, 39.02 -87 M39.02 -87 C39.02 -89.32, 39.02 -91.63, 39.02 -98.28 M39.02 -87 C39.02 -90.06, 39.02 -93.13, 39.02 -98.28 M39.02 -98.28 C39.02 -98.28, 39.02 -98.28, 39.02 -98.28 M39.02 -98.28 C39.02 -98.28, 39.02 -98.28, 39.02 -98.28 M39.02 -98.28 C39.01 -98.4, 38.99 -98.52, 38.97 -98.77 M39.02 -98.28 C39.01 -98.39, 39 -98.5, 38.97 -98.77 M38.97 -98.77 C38.94 -98.87, 38.91 -98.96, 38.83 -99.23 M38.97 -98.77 C38.92 -98.92, 38.88 -99.06, 38.83 -99.23 M38.83 -99.23 C38.77 -99.34, 38.71 -99.44, 38.6 -99.65 M38.83 -99.23 C38.75 -99.38, 38.67 -99.52, 38.6 -99.65 M38.6 -99.65 C38.49 -99.79, 38.38 -99.92, 38.3 -100.02 M38.6 -99.65 C38.48 -99.8, 38.36 -99.94, 38.3 -100.02 M38.3 -100.02 C38.18 -100.12, 38.05 -100.22, 37.93 -100.32 M38.3 -100.02 C38.21 -100.09, 38.12 -100.17, 37.93 -100.32 M37.93 -100.32 C37.82 -100.38, 37.71 -100.45, 37.51 -100.55 M37.93 -100.32 C37.8 -100.39, 37.68 -100.46, 37.51 -100.55 M37.51 -100.55 C37.4 -100.59, 37.29 -100.63, 37.05 -100.7 M37.51 -100.55 C37.36 -100.6, 37.2 -100.65, 37.05 -100.7 M37.05 -100.7 C36.9 -100.72, 36.74 -100.73, 36.54 -100.75 M37.05 -100.7 C36.92 -100.71, 36.8 -100.73, 36.54 -100.75 M36.54 -100.75 C14.45 -100.75, -7.64 -100.75, -50.32 -100.75 M36.54 -100.75 C17.82 -100.75, -0.9 -100.75, -50.32 -100.75 M-50.32 -100.75 C-50.32 -100.75, -50.32 -100.75, -50.32 -100.75 M-50.32 -100.75 C-50.32 -100.75, -50.32 -100.75, -50.32 -100.75 M-50.32 -100.75 C-50.46 -100.74, -50.61 -100.72, -50.81 -100.7 M-50.32 -100.75 C-50.44 -100.74, -50.56 -100.73, -50.81 -100.7 M-50.81 -100.7 C-50.92 -100.67, -51.03 -100.63, -51.27 -100.56 M-50.81 -100.7 C-50.97 -100.65, -51.12 -100.6, -51.27 -100.56 M-51.27 -100.56 C-51.36 -100.51, -51.45 -100.46, -51.69 -100.33 M-51.27 -100.56 C-51.37 -100.51, -51.46 -100.46, -51.69 -100.33 M-51.69 -100.33 C-51.8 -100.25, -51.9 -100.16, -52.06 -100.03 M-51.69 -100.33 C-51.78 -100.26, -51.86 -100.19, -52.06 -100.03 M-52.06 -100.03 C-52.16 -99.91, -52.25 -99.8, -52.37 -99.66 M-52.06 -100.03 C-52.14 -99.94, -52.21 -99.85, -52.37 -99.66 M-52.37 -99.66 C-52.45 -99.52, -52.53 -99.37, -52.6 -99.24 M-52.37 -99.66 C-52.43 -99.55, -52.49 -99.44, -52.6 -99.24 M-52.6 -99.24 C-52.63 -99.13, -52.67 -99.02, -52.74 -98.78 M-52.6 -99.24 C-52.64 -99.1, -52.68 -98.96, -52.74 -98.78 M-52.74 -98.78 C-52.75 -98.68, -52.76 -98.57, -52.79 -98.28 M-52.74 -98.78 C-52.76 -98.58, -52.78 -98.39, -52.79 -98.28 M-52.79 -98.28 C-52.79 -95.17, -52.79 -92.07, -52.79 -87 M-52.79 -98.28 C-52.79 -95.13, -52.79 -91.98, -52.79 -87 M-52.79 -87 C-42.33 -87, -31.88 -87, -13.77 -87 M-52.79 -87 C-43.85 -87, -34.92 -87, -13.77 -87 M-13.77 -87 C-13.77 -67.49, -13.77 -47.98, -13.77 0 M-13.77 -87 C-13.77 -60.1, -13.77 -33.2, -13.77 0 M-13.77 0 C-28.03 0, -42.29 0, -52.76 0 M-13.77 0 C-29.15 0, -44.53 0, -52.76 0 M-52.76 0 C-52.76 3.91, -52.76 7.83, -52.76 11.27 M-52.76 0 C-52.76 2.95, -52.76 5.89, -52.76 11.27 M-52.76 11.27 C-52.76 11.27, -52.76 11.27, -52.76 11.27 M-52.76 11.27 C-52.76 11.27, -52.76 11.27, -52.76 11.27 M-52.76 11.27 C-52.75 11.39, -52.74 11.51, -52.71 11.77 M-52.76 11.27 C-52.75 11.39, -52.74 11.51, -52.71 11.77 M-52.71 11.77 C-52.67 11.91, -52.63 12.05, -52.57 12.23 M-52.71 11.77 C-52.67 11.9, -52.63 12.03, -52.57 12.23 M-52.57 12.23 C-52.5 12.37, -52.42 12.51, -52.35 12.65 M-52.57 12.23 C-52.51 12.35, -52.44 12.47, -52.35 12.65 M-52.35 12.65 C-52.27 12.74, -52.2 12.83, -52.04 13.02 M-52.35 12.65 C-52.26 12.75, -52.18 12.85, -52.04 13.02 M-52.04 13.02 C-51.97 13.08, -51.89 13.14, -51.68 13.32 M-52.04 13.02 C-51.94 13.1, -51.84 13.18, -51.68 13.32 M-51.68 13.32 C-51.59 13.37, -51.51 13.41, -51.26 13.55 M-51.68 13.32 C-51.55 13.39, -51.43 13.46, -51.26 13.55 M-51.26 13.55 C-51.14 13.59, -51.01 13.63, -50.79 13.7 M-51.26 13.55 C-51.15 13.58, -51.05 13.61, -50.79 13.7 M-50.79 13.7 C-50.67 13.71, -50.54 13.72, -50.29 13.75 M-50.79 13.7 C-50.69 13.71, -50.59 13.72, -50.29 13.75 M-50.29 13.75 C-27.34 13.75, -4.38 13.75, 36.57 13.75 M-50.29 13.75 C-17.65 13.75, 15 13.75, 36.57 13.75 M36.57 13.75 C36.57 13.75, 36.57 13.75, 36.57 13.75 M36.57 13.75 C36.57 13.75, 36.57 13.75, 36.57 13.75 M36.57 13.75 C36.77 13.73, 36.96 13.71, 37.07 13.7 M36.57 13.75 C36.73 13.73, 36.89 13.71, 37.07 13.7 M37.07 13.7 C37.22 13.65, 37.38 13.6, 37.53 13.55 M37.07 13.7 C37.19 13.66, 37.32 13.62, 37.53 13.55 M37.53 13.55 C37.69 13.47, 37.85 13.38, 37.95 13.33 M37.53 13.55 C37.64 13.49, 37.75 13.43, 37.95 13.33 M37.95 13.33 C38.04 13.25, 38.14 13.17, 38.32 13.03 M37.95 13.33 C38.04 13.25, 38.13 13.18, 38.32 13.03 M38.32 13.03 C38.44 12.88, 38.56 12.74, 38.62 12.66 M38.32 13.03 C38.43 12.89, 38.55 12.75, 38.62 12.66 M38.62 12.66 C38.68 12.56, 38.73 12.46, 38.85 12.24 M38.62 12.66 C38.7 12.52, 38.77 12.38, 38.85 12.24 M38.85 12.24 C38.9 12.08, 38.95 11.92, 39 11.77 M38.85 12.24 C38.89 12.12, 38.93 12, 39 11.77 M39 11.77 C39.01 11.63, 39.03 11.48, 39.05 11.27 M39 11.77 C39.01 11.62, 39.03 11.47, 39.05 11.27 M39.05 11.27 C39.05 7.01, 39.05 2.75, 39.05 0 M39.05 11.27 C39.05 8.81, 39.05 6.35, 39.05 0 M39.05 0 C26.33 0, 13.62 0, 0 0 M39.05 0 C30.6 0, 22.16 0, 0 0 M0 0 C0 0, 0 0, 0 0 M0 0 C0 0, 0 0, 0 0 M0 0 C0 0, 0 0, 0 0 M0 0 C0 0, 0 0, 0 0" stroke="#000000" stroke-width="1" fill="none"></path></g></g><mask></mask><g stroke-linecap="round"><g transform="translate(124.68539285821407 35.85412821093291) rotate(0 18.581525043544758 27.520894866316667)" fill-rule="evenodd"><path d="M0 0 L37.16 0 L37.16 0 L37.57 0.04 L37.95 0.16 L38.3 0.34 L38.6 0.59 L38.84 0.89 L39.03 1.23 L39.15 1.61 L39.19 2.02 L39.19 53.02 L39.19 53.02 L39.15 53.43 L39.03 53.81 L38.84 54.15 L38.6 54.45 L38.3 54.7 L37.95 54.88 L37.57 55 L37.16 55.04 L0 55.04 L0 55.04 L-0.41 55 L-0.79 54.88 L-1.13 54.7 L-1.43 54.45 L-1.68 54.15 L-1.87 53.81 L-1.98 53.43 L-2.02 53.02 L-2.02 2.05 L-2.02 2.05 L-1.98 1.64 L-1.87 1.26 L-1.68 0.91 L-1.43 0.6 L-1.13 0.35 L-0.79 0.16 L-0.41 0.04 L0 0 L0 0" stroke="none" stroke-width="0" fill="#4285f4" fill-rule="evenodd"></path><path d="M0 0 C11.48 0, 22.95 0, 37.16 0 M0 0 C11.25 0, 22.49 0, 37.16 0 M37.16 0 C37.16 0, 37.16 0, 37.16 0 M37.16 0 C37.16 0, 37.16 0, 37.16 0 M37.16 0 C37.25 0.01, 37.35 0.02, 37.57 0.04 M37.16 0 C37.26 0.01, 37.35 0.02, 37.57 0.04 M37.57 0.04 C37.69 0.08, 37.8 0.11, 37.95 0.16 M37.57 0.04 C37.72 0.08, 37.86 0.13, 37.95 0.16 M37.95 0.16 C38.09 0.23, 38.23 0.31, 38.3 0.34 M37.95 0.16 C38.05 0.21, 38.15 0.26, 38.3 0.34 M38.3 0.34 C38.39 0.42, 38.49 0.5, 38.6 0.59 M38.3 0.34 C38.37 0.41, 38.45 0.47, 38.6 0.59 M38.6 0.59 C38.66 0.66, 38.72 0.74, 38.84 0.89 M38.6 0.59 C38.66 0.66, 38.72 0.74, 38.84 0.89 M38.84 0.89 C38.89 0.97, 38.93 1.06, 39.03 1.23 M38.84 0.89 C38.88 0.96, 38.92 1.04, 39.03 1.23 M39.03 1.23 C39.06 1.33, 39.09 1.42, 39.15 1.61 M39.03 1.23 C39.08 1.39, 39.12 1.54, 39.15 1.61 M39.15 1.61 C39.16 1.77, 39.18 1.92, 39.19 2.02 M39.15 1.61 C39.16 1.72, 39.17 1.82, 39.19 2.02 M39.19 2.02 C39.19 17.03, 39.19 32.03, 39.19 53.02 M39.19 2.02 C39.19 16.91, 39.19 31.79, 39.19 53.02 M39.19 53.02 C39.19 53.02, 39.19 53.02, 39.19 53.02 M39.19 53.02 C39.19 53.02, 39.19 53.02, 39.19 53.02 M39.19 53.02 C39.17 53.16, 39.16 53.3, 39.15 53.43 M39.19 53.02 C39.18 53.1, 39.17 53.18, 39.15 53.43 M39.15 53.43 C39.12 53.52, 39.09 53.61, 39.03 53.81 M39.15 53.43 C39.11 53.56, 39.06 53.69, 39.03 53.81 M39.03 53.81 C38.96 53.93, 38.9 54.05, 38.84 54.15 M39.03 53.81 C38.98 53.89, 38.94 53.98, 38.84 54.15 M38.84 54.15 C38.78 54.23, 38.72 54.3, 38.6 54.45 M38.84 54.15 C38.78 54.23, 38.71 54.32, 38.6 54.45 M38.6 54.45 C38.49 54.54, 38.39 54.62, 38.3 54.7 M38.6 54.45 C38.51 54.52, 38.42 54.59, 38.3 54.7 M38.3 54.7 C38.22 54.74, 38.15 54.78, 37.95 54.88 M38.3 54.7 C38.23 54.74, 38.16 54.77, 37.95 54.88 M37.95 54.88 C37.81 54.93, 37.68 54.97, 37.57 55 M37.95 54.88 C37.87 54.91, 37.79 54.94, 37.57 55 M37.57 55 C37.44 55.01, 37.3 55.03, 37.16 55.04 M37.57 55 C37.41 55.02, 37.25 55.03, 37.16 55.04 M37.16 55.04 C25.91 55.04, 14.66 55.04, 0 55.04 M37.16 55.04 C26.92 55.04, 16.67 55.04, 0 55.04 M0 55.04 C0 55.04, 0 55.04, 0 55.04 M0 55.04 C0 55.04, 0 55.04, 0 55.04 M0 55.04 C-0.11 55.03, -0.21 55.02, -0.41 55 M0 55.04 C-0.14 55.03, -0.27 55.01, -0.41 55 M-0.41 55 C-0.55 54.96, -0.69 54.92, -0.79 54.88 M-0.41 55 C-0.49 54.98, -0.57 54.95, -0.79 54.88 M-0.79 54.88 C-0.86 54.84, -0.94 54.8, -1.13 54.7 M-0.79 54.88 C-0.86 54.85, -0.93 54.81, -1.13 54.7 M-1.13 54.7 C-1.2 54.64, -1.27 54.59, -1.43 54.45 M-1.13 54.7 C-1.22 54.63, -1.3 54.56, -1.43 54.45 M-1.43 54.45 C-1.52 54.35, -1.6 54.25, -1.68 54.15 M-1.43 54.45 C-1.52 54.35, -1.6 54.25, -1.68 54.15 M-1.68 54.15 C-1.73 54.05, -1.79 53.95, -1.87 53.81 M-1.68 54.15 C-1.74 54.04, -1.8 53.93, -1.87 53.81 M-1.87 53.81 C-1.9 53.71, -1.93 53.6, -1.98 53.43 M-1.87 53.81 C-1.9 53.68, -1.94 53.55, -1.98 53.43 M-1.98 53.43 C-2 53.29, -2.01 53.15, -2.02 53.02 M-1.98 53.43 C-2 53.29, -2.01 53.16, -2.02 53.02 M-2.02 53.02 C-2.02 39.58, -2.02 26.14, -2.02 2.05 M-2.02 53.02 C-2.02 41.93, -2.02 30.84, -2.02 2.05 M-2.02 2.05 C-2.02 2.05, -2.02 2.05, -2.02 2.05 M-2.02 2.05 C-2.02 2.05, -2.02 2.05, -2.02 2.05 M-2.02 2.05 C-2.01 1.95, -2 1.86, -1.98 1.64 M-2.02 2.05 C-2.01 1.9, -1.99 1.76, -1.98 1.64 M-1.98 1.64 C-1.94 1.51, -1.9 1.38, -1.87 1.26 M-1.98 1.64 C-1.94 1.5, -1.9 1.36, -1.87 1.26 M-1.87 1.26 C-1.81 1.15, -1.75 1.05, -1.68 0.91 M-1.87 1.26 C-1.8 1.13, -1.73 1, -1.68 0.91 M-1.68 0.91 C-1.61 0.82, -1.54 0.73, -1.43 0.6 M-1.68 0.91 C-1.62 0.83, -1.56 0.76, -1.43 0.6 M-1.43 0.6 C-1.36 0.54, -1.29 0.48, -1.13 0.35 M-1.43 0.6 C-1.37 0.55, -1.31 0.5, -1.13 0.35 M-1.13 0.35 C-1.06 0.31, -0.99 0.28, -0.79 0.16 M-1.13 0.35 C-1.01 0.28, -0.88 0.21, -0.79 0.16 M-0.79 0.16 C-0.69 0.13, -0.59 0.1, -0.41 0.04 M-0.79 0.16 C-0.7 0.13, -0.61 0.11, -0.41 0.04 M-0.41 0.04 C-0.28 0.03, -0.15 0.02, 0 0 M-0.41 0.04 C-0.25 0.03, -0.09 0.01, 0 0 M0 0 C0 0, 0 0, 0 0 M0 0 C0 0, 0 0, 0 0 M0 0 C0 0, 0 0, 0 0 M0 0 C0 0, 0 0, 0 0" stroke="#000000" stroke-width="1" fill="none"></path></g></g><mask></mask><g transform="translate(6 126.20883938433622) rotate(0 94 39)"><text x="94" y="0" font-family="Helvetica, Segoe UI Emoji" font-size="33.94285714285716px" fill="#000000" text-anchor="middle" style="white-space: pre;" direction="ltr" dominant-baseline="text-before-edge">Partner</text><text x="94" y="39" font-family="Helvetica, Segoe UI Emoji" font-size="33.94285714285716px" fill="#000000" text-anchor="middle" style="white-space: pre;" direction="ltr" dominant-baseline="text-before-edge">Interconnect</text></g></svg>