<svg version="1.1" xmlns="http://www.w3.org/2000/svg" viewBox="0 0 239.8828359444941 326.75831323915827" width="239.8828359444941" height="326.75831323915827">
  <!-- svg-source:excalidraw -->
  
  <defs>
    
    
  </defs>
  <g stroke-linecap="round"><g transform="translate(128.73450730507147 128.16061357156104) rotate(0 6.9893992793033135 -26.617592408795986)" fill-rule="evenodd"><path d="M0 0 L0 0 L-0.92 0.84 L-1.91 1.58 L-2.95 2.2 L-4.03 2.7 L-5.14 3.1 L-6.29 3.39 L-7.45 3.56 L-8.61 3.62 L-9.78 3.57 L-10.94 3.41 L-12.09 3.14 L-13.21 2.75 L-14.29 2.25 L-15.33 1.64 L-16.33 0.92 L-17.26 0.08 L-17.34 0 L-34.31 -16.97 L-25.66 -25.62 L-8.81 -8.98 L39.07 -56.86 L48.29 -47.84 L0 0 L0 0" stroke="none" stroke-width="0" fill="#4285f4" fill-rule="evenodd"></path><path d="M0 0 C0 0, 0 0, 0 0 M0 0 C0 0, 0 0, 0 0 M0 0 C-0.28 0.25, -0.56 0.51, -0.92 0.84 M0 0 C-0.24 0.22, -0.48 0.44, -0.92 0.84 M-0.92 0.84 C-1.25 1.08, -1.57 1.32, -1.91 1.58 M-0.92 0.84 C-1.18 1.03, -1.44 1.23, -1.91 1.58 M-1.91 1.58 C-2.26 1.78, -2.61 1.99, -2.95 2.2 M-1.91 1.58 C-2.27 1.79, -2.63 2, -2.95 2.2 M-2.95 2.2 C-3.2 2.32, -3.46 2.44, -4.03 2.7 M-2.95 2.2 C-3.19 2.31, -3.44 2.43, -4.03 2.7 M-4.03 2.7 C-4.37 2.83, -4.72 2.95, -5.14 3.1 M-4.03 2.7 C-4.3 2.8, -4.58 2.9, -5.14 3.1 M-5.14 3.1 C-5.58 3.21, -6.01 3.32, -6.29 3.39 M-5.14 3.1 C-5.4 3.17, -5.66 3.23, -6.29 3.39 M-6.29 3.39 C-6.67 3.45, -7.05 3.5, -7.45 3.56 M-6.29 3.39 C-6.56 3.43, -6.83 3.47, -7.45 3.56 M-7.45 3.56 C-7.79 3.58, -8.13 3.6, -8.61 3.62 M-7.45 3.56 C-7.7 3.57, -7.96 3.59, -8.61 3.62 M-8.61 3.62 C-9.01 3.61, -9.41 3.59, -9.78 3.57 M-8.61 3.62 C-9.06 3.6, -9.5 3.58, -9.78 3.57 M-9.78 3.57 C-10.13 3.52, -10.47 3.48, -10.94 3.41 M-9.78 3.57 C-10.02 3.54, -10.25 3.51, -10.94 3.41 M-10.94 3.41 C-11.19 3.35, -11.44 3.29, -12.09 3.14 M-10.94 3.41 C-11.21 3.35, -11.47 3.28, -12.09 3.14 M-12.09 3.14 C-12.54 2.98, -12.98 2.83, -13.21 2.75 M-12.09 3.14 C-12.43 3.02, -12.78 2.9, -13.21 2.75 M-13.21 2.75 C-13.5 2.61, -13.8 2.48, -14.29 2.25 M-13.21 2.75 C-13.57 2.58, -13.93 2.42, -14.29 2.25 M-14.29 2.25 C-14.71 2.01, -15.12 1.76, -15.33 1.64 M-14.29 2.25 C-14.62 2.06, -14.94 1.87, -15.33 1.64 M-15.33 1.64 C-15.69 1.38, -16.05 1.12, -16.33 0.92 M-15.33 1.64 C-15.65 1.41, -15.96 1.19, -16.33 0.92 M-16.33 0.92 C-16.67 0.61, -17.02 0.3, -17.26 0.08 M-16.33 0.92 C-16.63 0.64, -16.94 0.37, -17.26 0.08 M-17.26 0.08 C-17.29 0.05, -17.32 0.02, -17.34 0 M-17.26 0.08 C-17.27 0.07, -17.29 0.05, -17.34 0 M-17.34 0 C-23.92 -6.58, -30.5 -13.16, -34.31 -16.97 M-17.34 0 C-22.57 -5.23, -27.81 -10.47, -34.31 -16.97 M-34.31 -16.97 C-31.66 -19.62, -29.01 -22.27, -25.66 -25.62 M-34.31 -16.97 C-31.73 -19.55, -29.15 -22.14, -25.66 -25.62 M-25.66 -25.62 C-18.97 -19.01, -12.28 -12.4, -8.81 -8.98 M-25.66 -25.62 C-19.82 -19.85, -13.98 -14.09, -8.81 -8.98 M-8.81 -8.98 C2.89 -20.68, 14.58 -32.38, 39.07 -56.86 M-8.81 -8.98 C5.93 -23.72, 20.68 -38.47, 39.07 -56.86 M39.07 -56.86 C42.19 -53.8, 45.31 -50.75, 48.29 -47.84 M39.07 -56.86 C42.5 -53.5, 45.94 -50.14, 48.29 -47.84 M48.29 -47.84 C30.32 -30.04, 12.36 -12.24, 0 0 M48.29 -47.84 C37.84 -37.48, 27.38 -27.13, 0 0 M0 0 C0 0, 0 0, 0 0 M0 0 C0 0, 0 0, 0 0 M0 0 C0 0, 0 0, 0 0 M0 0 C0 0, 0 0, 0 0" stroke="#000000" stroke-width="1" fill="none"></path></g></g><mask></mask><g stroke-linecap="round"><g transform="translate(165.54668131874905 115.28865183429616) rotate(0 -45.74963772350344 4.5309668340293)" fill-rule="evenodd"><path d="M0 0 L0 0 L-0.9 0.13 L-1.78 0.34 L-3.43 0.96 L-4.93 1.85 L-6.26 2.97 L-7.38 4.29 L-8.26 5.79 L-8.89 7.45 L-9.09 8.32 L-9.22 9.22 L-9.78 12.32 L-10.59 15.32 L-11.64 18.21 L-12.92 20.97 L-14.41 23.61 L-16.11 26.1 L-18 28.43 L-20.08 30.6 L-22.32 32.59 L-24.72 34.4 L-27.27 36.01 L-29.95 37.4 L-32.76 38.58 L-35.68 39.52 L-38.7 40.22 L-41.81 40.67 L-44.53 40.84 L-47.25 40.81 L-49.95 40.59 L-52.62 40.17 L-55.25 39.55 L-57.83 38.75 L-60.35 37.75 L-62.8 36.57 L-64.43 35.65 L-66 34.67 L-67.5 33.62 L-68.94 32.5 L-70.3 31.32 L-71.6 30.09 L-72.83 28.8 L-73.99 27.45 L-75.07 26.06 L-76.09 24.62 L-77.03 23.13 L-77.89 21.61 L-78.68 20.05 L-79.39 18.46 L-80.03 16.83 L-80.59 15.18 L-81.07 13.5 L-81.46 11.8 L-81.78 10.08 L-82.01 8.35 L-82.16 6.6 L-82.23 4.85 L-82.21 3.09 L-82.11 1.32 L-81.92 -0.44 L-81.64 -2.21 L-81.27 -3.96 L-80.81 -5.71 L-80.26 -7.44 L-79.62 -9.16 L-78.88 -10.86 L-78.05 -12.54 L-76.92 -14.55 L-75.66 -16.46 L-74.3 -18.28 L-72.84 -20 L-71.27 -21.62 L-69.62 -23.14 L-67.87 -24.55 L-66.05 -25.85 L-64.14 -27.04 L-62.17 -28.1 L-60.13 -29.05 L-58.03 -29.87 L-55.88 -30.56 L-53.68 -31.11 L-51.43 -31.53 L-49.15 -31.81 L-47.41 -31.93 L-45.67 -31.97 L-43.92 -31.91 L-42.19 -31.76 L-40.46 -31.53 L-38.75 -31.22 L-37.05 -30.82 L-35.38 -30.34 L-33.82 -29.91 L-32.25 -29.74 L-30.69 -29.81 L-29.17 -30.12 L-27.71 -30.65 L-26.34 -31.41 L-25.09 -32.37 L-23.98 -33.53 L-23.34 -34.38 L-22.79 -35.27 L-22.35 -36.19 L-22 -37.15 L-21.75 -38.12 L-21.59 -39.11 L-21.53 -40.1 L-21.56 -41.1 L-21.69 -42.08 L-21.91 -43.05 L-22.23 -44 L-22.63 -44.92 L-23.13 -45.81 L-23.72 -46.65 L-24.4 -47.44 L-25.17 -48.17 L-25.94 -48.77 L-26.76 -49.28 L-27.63 -49.72 L-28.53 -50.09 L-31.35 -50.92 L-34.17 -51.6 L-37 -52.12 L-39.82 -52.51 L-42.64 -52.74 L-45.45 -52.84 L-48.24 -52.79 L-51.02 -52.61 L-53.77 -52.3 L-56.5 -51.85 L-59.19 -51.27 L-61.84 -50.57 L-64.46 -49.74 L-67.02 -48.78 L-69.54 -47.71 L-72 -46.52 L-74.4 -45.21 L-76.74 -43.79 L-79.01 -42.25 L-81.2 -40.61 L-83.32 -38.86 L-85.35 -37.01 L-87.3 -35.05 L-89.16 -33 L-90.92 -30.84 L-92.58 -28.6 L-94.14 -26.25 L-95.58 -23.82 L-96.92 -21.3 L-98.13 -18.7 L-99.22 -16.01 L-100.19 -13.24 L-101.02 -10.39 L-101.7 -7.51 L-102.23 -4.59 L-102.61 -1.66 L-102.84 1.3 L-102.91 4.27 L-102.84 7.24 L-102.61 10.21 L-102.26 13.12 L-101.77 15.98 L-101.15 18.78 L-100.39 21.53 L-99.5 24.21 L-98.49 26.83 L-97.35 29.39 L-96.09 31.87 L-94.72 34.27 L-93.24 36.6 L-91.65 38.85 L-89.96 41.02 L-88.17 43.09 L-86.29 45.08 L-84.31 46.97 L-82.25 48.77 L-80.1 50.46 L-77.88 52.05 L-75.58 53.54 L-73.2 54.91 L-70.76 56.17 L-68.26 57.32 L-65.7 58.35 L-63.08 59.25 L-60.41 60.02 L-57.69 60.67 L-54.92 61.19 L-52.12 61.56 L-49.28 61.8 L-46.41 61.9 L-43.51 61.85 L-40.58 61.65 L-40.17 61.61 L-37.68 61.34 L-35.22 60.96 L-32.79 60.47 L-30.41 59.89 L-28.06 59.2 L-25.76 58.42 L-23.5 57.55 L-21.29 56.58 L-19.13 55.53 L-17.02 54.38 L-14.97 53.16 L-12.97 51.85 L-11.03 50.46 L-9.16 48.99 L-7.35 47.44 L-5.6 45.83 L-3.92 44.14 L-2.32 42.38 L-0.79 40.55 L0.67 38.67 L2.05 36.72 L3.34 34.7 L4.56 32.64 L5.68 30.51 L6.73 28.34 L7.68 26.11 L8.53 23.83 L9.3 21.51 L9.96 19.14 L10.53 16.74 L10.99 14.29 L11.36 11.81 L11.42 10.75 L11.37 9.71 L11.22 8.69 L10.97 7.71 L10.64 6.76 L10.21 5.86 L9.7 5 L9.11 4.2 L8.45 3.46 L7.72 2.78 L6.92 2.18 L6.06 1.65 L5.15 1.2 L4.19 0.84 L3.18 0.58 L2.13 0.41 L1.05 0.35 L-0.04 0.41 L-0.04 0 L0 0" stroke="none" stroke-width="0" fill="#669df6" fill-rule="evenodd"></path><path d="M0 0 C0 0, 0 0, 0 0 M0 0 C0 0, 0 0, 0 0 M0 0 C-0.27 0.04, -0.54 0.08, -0.9 0.13 M0 0 C-0.35 0.05, -0.7 0.1, -0.9 0.13 M-0.9 0.13 C-1.22 0.21, -1.53 0.28, -1.78 0.34 M-0.9 0.13 C-1.18 0.2, -1.45 0.26, -1.78 0.34 M-1.78 0.34 C-2.4 0.57, -3.02 0.81, -3.43 0.96 M-1.78 0.34 C-2.43 0.58, -3.08 0.83, -3.43 0.96 M-3.43 0.96 C-3.95 1.27, -4.47 1.58, -4.93 1.85 M-3.43 0.96 C-4 1.3, -4.58 1.64, -4.93 1.85 M-4.93 1.85 C-5.25 2.12, -5.57 2.38, -6.26 2.97 M-4.93 1.85 C-5.33 2.19, -5.73 2.53, -6.26 2.97 M-6.26 2.97 C-6.64 3.42, -7.02 3.87, -7.38 4.29 M-6.26 2.97 C-6.53 3.29, -6.81 3.62, -7.38 4.29 M-7.38 4.29 C-7.65 4.75, -7.92 5.21, -8.26 5.79 M-7.38 4.29 C-7.62 4.7, -7.86 5.11, -8.26 5.79 M-8.26 5.79 C-8.46 6.31, -8.65 6.83, -8.89 7.45 M-8.26 5.79 C-8.51 6.45, -8.76 7.11, -8.89 7.45 M-8.89 7.45 C-8.95 7.73, -9.02 8.02, -9.09 8.32 M-8.89 7.45 C-8.95 7.71, -9.01 7.97, -9.09 8.32 M-9.09 8.32 C-9.12 8.53, -9.15 8.74, -9.22 9.22 M-9.09 8.32 C-9.13 8.6, -9.17 8.88, -9.22 9.22 M-9.22 9.22 C-9.39 10.15, -9.56 11.07, -9.78 12.32 M-9.22 9.22 C-9.4 10.19, -9.57 11.15, -9.78 12.32 M-9.78 12.32 C-10.06 13.34, -10.33 14.36, -10.59 15.32 M-9.78 12.32 C-10.06 13.35, -10.34 14.37, -10.59 15.32 M-10.59 15.32 C-10.96 16.34, -11.33 17.36, -11.64 18.21 M-10.59 15.32 C-10.89 16.12, -11.18 16.93, -11.64 18.21 M-11.64 18.21 C-12 18.98, -12.36 19.76, -12.92 20.97 M-11.64 18.21 C-11.96 18.89, -12.27 19.57, -12.92 20.97 M-12.92 20.97 C-13.31 21.66, -13.7 22.34, -14.41 23.61 M-12.92 20.97 C-13.37 21.77, -13.83 22.57, -14.41 23.61 M-14.41 23.61 C-15.06 24.55, -15.71 25.5, -16.11 26.1 M-14.41 23.61 C-14.84 24.24, -15.27 24.87, -16.11 26.1 M-16.11 26.1 C-16.74 26.87, -17.37 27.65, -18 28.43 M-16.11 26.1 C-16.73 26.86, -17.34 27.62, -18 28.43 M-18 28.43 C-18.75 29.21, -19.49 29.99, -20.08 30.6 M-18 28.43 C-18.8 29.26, -19.59 30.1, -20.08 30.6 M-20.08 30.6 C-20.79 31.23, -21.5 31.87, -22.32 32.59 M-20.08 30.6 C-20.57 31.04, -21.06 31.47, -22.32 32.59 M-22.32 32.59 C-22.85 33, -23.39 33.4, -24.72 34.4 M-22.32 32.59 C-23.14 33.21, -23.97 33.83, -24.72 34.4 M-24.72 34.4 C-25.5 34.89, -26.28 35.38, -27.27 36.01 M-24.72 34.4 C-25.47 34.87, -26.22 35.34, -27.27 36.01 M-27.27 36.01 C-28.25 36.52, -29.23 37.03, -29.95 37.4 M-27.27 36.01 C-27.87 36.32, -28.47 36.63, -29.95 37.4 M-29.95 37.4 C-30.58 37.66, -31.21 37.93, -32.76 38.58 M-29.95 37.4 C-31.07 37.87, -32.19 38.34, -32.76 38.58 M-32.76 38.58 C-33.56 38.84, -34.36 39.09, -35.68 39.52 M-32.76 38.58 C-33.35 38.77, -33.93 38.95, -35.68 39.52 M-35.68 39.52 C-36.71 39.76, -37.73 39.99, -38.7 40.22 M-35.68 39.52 C-36.33 39.67, -36.98 39.82, -38.7 40.22 M-38.7 40.22 C-39.39 40.32, -40.08 40.42, -41.81 40.67 M-38.7 40.22 C-39.44 40.33, -40.18 40.43, -41.81 40.67 M-41.81 40.67 C-42.79 40.73, -43.76 40.79, -44.53 40.84 M-41.81 40.67 C-42.8 40.73, -43.79 40.79, -44.53 40.84 M-44.53 40.84 C-45.54 40.83, -46.55 40.82, -47.25 40.81 M-44.53 40.84 C-45.58 40.83, -46.63 40.82, -47.25 40.81 M-47.25 40.81 C-48.12 40.74, -49 40.67, -49.95 40.59 M-47.25 40.81 C-48.05 40.75, -48.85 40.68, -49.95 40.59 M-49.95 40.59 C-50.68 40.47, -51.41 40.36, -52.62 40.17 M-49.95 40.59 C-50.69 40.47, -51.43 40.36, -52.62 40.17 M-52.62 40.17 C-53.47 39.97, -54.32 39.77, -55.25 39.55 M-52.62 40.17 C-53.16 40.04, -53.7 39.92, -55.25 39.55 M-55.25 39.55 C-56.21 39.25, -57.17 38.95, -57.83 38.75 M-55.25 39.55 C-55.86 39.36, -56.47 39.17, -57.83 38.75 M-57.83 38.75 C-58.78 38.37, -59.73 37.99, -60.35 37.75 M-57.83 38.75 C-58.63 38.43, -59.43 38.11, -60.35 37.75 M-60.35 37.75 C-61.08 37.4, -61.8 37.05, -62.8 36.57 M-60.35 37.75 C-61.25 37.31, -62.16 36.88, -62.8 36.57 M-62.8 36.57 C-63.37 36.25, -63.94 35.93, -64.43 35.65 M-62.8 36.57 C-63.44 36.21, -64.09 35.85, -64.43 35.65 M-64.43 35.65 C-65 35.3, -65.57 34.94, -66 34.67 M-64.43 35.65 C-64.85 35.39, -65.27 35.13, -66 34.67 M-66 34.67 C-66.36 34.42, -66.71 34.17, -67.5 33.62 M-66 34.67 C-66.35 34.42, -66.7 34.18, -67.5 33.62 M-67.5 33.62 C-67.91 33.3, -68.31 32.99, -68.94 32.5 M-67.5 33.62 C-67.95 33.27, -68.39 32.93, -68.94 32.5 M-68.94 32.5 C-69.33 32.17, -69.72 31.83, -70.3 31.32 M-68.94 32.5 C-69.45 32.06, -69.95 31.63, -70.3 31.32 M-70.3 31.32 C-70.63 31.01, -70.96 30.7, -71.6 30.09 M-70.3 31.32 C-70.77 30.88, -71.24 30.43, -71.6 30.09 M-71.6 30.09 C-71.93 29.74, -72.27 29.39, -72.83 28.8 M-71.6 30.09 C-72.07 29.6, -72.53 29.11, -72.83 28.8 M-72.83 28.8 C-73.13 28.45, -73.43 28.1, -73.99 27.45 M-72.83 28.8 C-73.15 28.43, -73.47 28.06, -73.99 27.45 M-73.99 27.45 C-74.22 27.15, -74.45 26.86, -75.07 26.06 M-73.99 27.45 C-74.38 26.95, -74.77 26.45, -75.07 26.06 M-75.07 26.06 C-75.45 25.52, -75.83 24.98, -76.09 24.62 M-75.07 26.06 C-75.46 25.5, -75.86 24.95, -76.09 24.62 M-76.09 24.62 C-76.34 24.22, -76.59 23.82, -77.03 23.13 M-76.09 24.62 C-76.33 24.24, -76.57 23.86, -77.03 23.13 M-77.03 23.13 C-77.26 22.73, -77.49 22.32, -77.89 21.61 M-77.03 23.13 C-77.21 22.81, -77.4 22.48, -77.89 21.61 M-77.89 21.61 C-78.08 21.24, -78.26 20.88, -78.68 20.05 M-77.89 21.61 C-78.17 21.07, -78.44 20.52, -78.68 20.05 M-78.68 20.05 C-78.89 19.59, -79.09 19.13, -79.39 18.46 M-78.68 20.05 C-78.95 19.45, -79.22 18.86, -79.39 18.46 M-79.39 18.46 C-79.55 18.05, -79.71 17.65, -80.03 16.83 M-79.39 18.46 C-79.62 17.89, -79.84 17.32, -80.03 16.83 M-80.03 16.83 C-80.24 16.2, -80.46 15.56, -80.59 15.18 M-80.03 16.83 C-80.17 16.41, -80.32 15.99, -80.59 15.18 M-80.59 15.18 C-80.72 14.71, -80.86 14.24, -81.07 13.5 M-80.59 15.18 C-80.74 14.66, -80.88 14.15, -81.07 13.5 M-81.07 13.5 C-81.22 12.85, -81.37 12.2, -81.46 11.8 M-81.07 13.5 C-81.2 12.92, -81.34 12.34, -81.46 11.8 M-81.46 11.8 C-81.54 11.38, -81.62 10.95, -81.78 10.08 M-81.46 11.8 C-81.56 11.27, -81.66 10.73, -81.78 10.08 M-81.78 10.08 C-81.85 9.56, -81.92 9.03, -82.01 8.35 M-81.78 10.08 C-81.85 9.57, -81.92 9.06, -82.01 8.35 M-82.01 8.35 C-82.06 7.82, -82.1 7.3, -82.16 6.6 M-82.01 8.35 C-82.07 7.68, -82.13 7.02, -82.16 6.6 M-82.16 6.6 C-82.18 6.15, -82.2 5.69, -82.23 4.85 M-82.16 6.6 C-82.18 6.13, -82.2 5.65, -82.23 4.85 M-82.23 4.85 C-82.23 4.26, -82.22 3.67, -82.21 3.09 M-82.23 4.85 C-82.22 4.19, -82.22 3.52, -82.21 3.09 M-82.21 3.09 C-82.18 2.47, -82.14 1.85, -82.11 1.32 M-82.21 3.09 C-82.19 2.72, -82.17 2.35, -82.11 1.32 M-82.11 1.32 C-82.06 0.83, -82 0.35, -81.92 -0.44 M-82.11 1.32 C-82.05 0.81, -82 0.31, -81.92 -0.44 M-81.92 -0.44 C-81.81 -1.08, -81.71 -1.72, -81.64 -2.21 M-81.92 -0.44 C-81.82 -1.03, -81.73 -1.61, -81.64 -2.21 M-81.64 -2.21 C-81.49 -2.9, -81.34 -3.6, -81.27 -3.96 M-81.64 -2.21 C-81.51 -2.82, -81.38 -3.43, -81.27 -3.96 M-81.27 -3.96 C-81.14 -4.43, -81.02 -4.91, -80.81 -5.71 M-81.27 -3.96 C-81.15 -4.39, -81.04 -4.82, -80.81 -5.71 M-80.81 -5.71 C-80.69 -6.07, -80.58 -6.43, -80.26 -7.44 M-80.81 -5.71 C-80.63 -6.26, -80.46 -6.82, -80.26 -7.44 M-80.26 -7.44 C-80.04 -8.03, -79.82 -8.62, -79.62 -9.16 M-80.26 -7.44 C-80.1 -7.88, -79.93 -8.31, -79.62 -9.16 M-79.62 -9.16 C-79.35 -9.77, -79.09 -10.37, -78.88 -10.86 M-79.62 -9.16 C-79.46 -9.52, -79.31 -9.87, -78.88 -10.86 M-78.88 -10.86 C-78.69 -11.26, -78.49 -11.65, -78.05 -12.54 M-78.88 -10.86 C-78.69 -11.25, -78.5 -11.64, -78.05 -12.54 M-78.05 -12.54 C-77.68 -13.2, -77.31 -13.85, -76.92 -14.55 M-78.05 -12.54 C-77.66 -13.24, -77.26 -13.94, -76.92 -14.55 M-76.92 -14.55 C-76.55 -15.1, -76.19 -15.65, -75.66 -16.46 M-76.92 -14.55 C-76.48 -15.22, -76.04 -15.89, -75.66 -16.46 M-75.66 -16.46 C-75.19 -17.09, -74.72 -17.72, -74.3 -18.28 M-75.66 -16.46 C-75.24 -17.03, -74.81 -17.6, -74.3 -18.28 M-74.3 -18.28 C-73.95 -18.69, -73.6 -19.11, -72.84 -20 M-74.3 -18.28 C-73.77 -18.91, -73.23 -19.54, -72.84 -20 M-72.84 -20 C-72.39 -20.46, -71.95 -20.92, -71.27 -21.62 M-72.84 -20 C-72.5 -20.35, -72.17 -20.69, -71.27 -21.62 M-71.27 -21.62 C-70.76 -22.1, -70.24 -22.57, -69.62 -23.14 M-71.27 -21.62 C-70.75 -22.1, -70.23 -22.58, -69.62 -23.14 M-69.62 -23.14 C-69.02 -23.62, -68.43 -24.1, -67.87 -24.55 M-69.62 -23.14 C-68.93 -23.7, -68.24 -24.25, -67.87 -24.55 M-67.87 -24.55 C-67.3 -24.96, -66.73 -25.37, -66.05 -25.85 M-67.87 -24.55 C-67.46 -24.84, -67.05 -25.14, -66.05 -25.85 M-66.05 -25.85 C-65.36 -26.28, -64.68 -26.7, -64.14 -27.04 M-66.05 -25.85 C-65.41 -26.25, -64.77 -26.65, -64.14 -27.04 M-64.14 -27.04 C-63.46 -27.4, -62.78 -27.77, -62.17 -28.1 M-64.14 -27.04 C-63.74 -27.26, -63.33 -27.47, -62.17 -28.1 M-62.17 -28.1 C-61.51 -28.41, -60.85 -28.72, -60.13 -29.05 M-62.17 -28.1 C-61.44 -28.44, -60.71 -28.78, -60.13 -29.05 M-60.13 -29.05 C-59.51 -29.29, -58.89 -29.53, -58.03 -29.87 M-60.13 -29.05 C-59.38 -29.34, -58.64 -29.63, -58.03 -29.87 M-58.03 -29.87 C-57.48 -30.04, -56.93 -30.22, -55.88 -30.56 M-58.03 -29.87 C-57.37 -30.08, -56.7 -30.29, -55.88 -30.56 M-55.88 -30.56 C-55.12 -30.75, -54.36 -30.94, -53.68 -31.11 M-55.88 -30.56 C-55.31 -30.7, -54.74 -30.84, -53.68 -31.11 M-53.68 -31.11 C-52.97 -31.24, -52.27 -31.38, -51.43 -31.53 M-53.68 -31.11 C-53.04 -31.23, -52.41 -31.35, -51.43 -31.53 M-51.43 -31.53 C-50.84 -31.61, -50.24 -31.68, -49.15 -31.81 M-51.43 -31.53 C-50.78 -31.61, -50.13 -31.69, -49.15 -31.81 M-49.15 -31.81 C-48.63 -31.85, -48.11 -31.88, -47.41 -31.93 M-49.15 -31.81 C-48.63 -31.85, -48.1 -31.89, -47.41 -31.93 M-47.41 -31.93 C-46.89 -31.94, -46.36 -31.95, -45.67 -31.97 M-47.41 -31.93 C-46.91 -31.94, -46.4 -31.95, -45.67 -31.97 M-45.67 -31.97 C-45.05 -31.95, -44.44 -31.93, -43.92 -31.91 M-45.67 -31.97 C-45.27 -31.95, -44.88 -31.94, -43.92 -31.91 M-43.92 -31.91 C-43.39 -31.86, -42.85 -31.82, -42.19 -31.76 M-43.92 -31.91 C-43.38 -31.86, -42.84 -31.82, -42.19 -31.76 M-42.19 -31.76 C-41.76 -31.71, -41.33 -31.65, -40.46 -31.53 M-42.19 -31.76 C-41.75 -31.71, -41.3 -31.65, -40.46 -31.53 M-40.46 -31.53 C-40.08 -31.46, -39.71 -31.39, -38.75 -31.22 M-40.46 -31.53 C-39.98 -31.44, -39.5 -31.36, -38.75 -31.22 M-38.75 -31.22 C-38.23 -31.1, -37.72 -30.97, -37.05 -30.82 M-38.75 -31.22 C-38.37 -31.13, -38 -31.04, -37.05 -30.82 M-37.05 -30.82 C-36.45 -30.64, -35.85 -30.47, -35.38 -30.34 M-37.05 -30.82 C-36.53 -30.67, -36.01 -30.52, -35.38 -30.34 M-35.38 -30.34 C-34.95 -30.22, -34.52 -30.1, -33.82 -29.91 M-35.38 -30.34 C-34.92 -30.21, -34.47 -30.09, -33.82 -29.91 M-33.82 -29.91 C-33.3 -29.85, -32.77 -29.8, -32.25 -29.74 M-33.82 -29.91 C-33.2 -29.84, -32.57 -29.77, -32.25 -29.74 M-32.25 -29.74 C-31.85 -29.76, -31.45 -29.78, -30.69 -29.81 M-32.25 -29.74 C-31.83 -29.76, -31.41 -29.78, -30.69 -29.81 M-30.69 -29.81 C-30.15 -29.92, -29.61 -30.03, -29.17 -30.12 M-30.69 -29.81 C-30.19 -29.91, -29.68 -30.02, -29.17 -30.12 M-29.17 -30.12 C-28.61 -30.33, -28.04 -30.53, -27.71 -30.65 M-29.17 -30.12 C-28.73 -30.28, -28.29 -30.44, -27.71 -30.65 M-27.71 -30.65 C-27.29 -30.89, -26.86 -31.12, -26.34 -31.41 M-27.71 -30.65 C-27.19 -30.94, -26.67 -31.23, -26.34 -31.41 M-26.34 -31.41 C-25.92 -31.73, -25.5 -32.05, -25.09 -32.37 M-26.34 -31.41 C-25.89 -31.75, -25.45 -32.1, -25.09 -32.37 M-25.09 -32.37 C-24.78 -32.69, -24.47 -33.02, -23.98 -33.53 M-25.09 -32.37 C-24.87 -32.6, -24.64 -32.84, -23.98 -33.53 M-23.98 -33.53 C-23.84 -33.71, -23.71 -33.89, -23.34 -34.38 M-23.98 -33.53 C-23.75 -33.83, -23.52 -34.13, -23.34 -34.38 M-23.34 -34.38 C-23.22 -34.58, -23.09 -34.78, -22.79 -35.27 M-23.34 -34.38 C-23.16 -34.68, -22.97 -34.98, -22.79 -35.27 M-22.79 -35.27 C-22.67 -35.52, -22.55 -35.77, -22.35 -36.19 M-22.79 -35.27 C-22.69 -35.49, -22.58 -35.71, -22.35 -36.19 M-22.35 -36.19 C-22.24 -36.49, -22.13 -36.8, -22 -37.15 M-22.35 -36.19 C-22.24 -36.5, -22.13 -36.8, -22 -37.15 M-22 -37.15 C-21.95 -37.34, -21.9 -37.54, -21.75 -38.12 M-22 -37.15 C-21.92 -37.43, -21.85 -37.72, -21.75 -38.12 M-21.75 -38.12 C-21.68 -38.51, -21.62 -38.9, -21.59 -39.11 M-21.75 -38.12 C-21.69 -38.47, -21.64 -38.82, -21.59 -39.11 M-21.59 -39.11 C-21.58 -39.34, -21.56 -39.58, -21.53 -40.1 M-21.59 -39.11 C-21.58 -39.35, -21.56 -39.59, -21.53 -40.1 M-21.53 -40.1 C-21.54 -40.4, -21.55 -40.69, -21.56 -41.1 M-21.53 -40.1 C-21.54 -40.36, -21.55 -40.61, -21.56 -41.1 M-21.56 -41.1 C-21.59 -41.33, -21.62 -41.56, -21.69 -42.08 M-21.56 -41.1 C-21.61 -41.43, -21.65 -41.77, -21.69 -42.08 M-21.69 -42.08 C-21.77 -42.42, -21.84 -42.76, -21.91 -43.05 M-21.69 -42.08 C-21.76 -42.37, -21.82 -42.67, -21.91 -43.05 M-21.91 -43.05 C-21.98 -43.26, -22.05 -43.47, -22.23 -44 M-21.91 -43.05 C-22 -43.32, -22.09 -43.58, -22.23 -44 M-22.23 -44 C-22.33 -44.25, -22.44 -44.49, -22.63 -44.92 M-22.23 -44 C-22.37 -44.34, -22.52 -44.68, -22.63 -44.92 M-22.63 -44.92 C-22.74 -45.12, -22.85 -45.31, -23.13 -45.81 M-22.63 -44.92 C-22.77 -45.18, -22.92 -45.43, -23.13 -45.81 M-23.13 -45.81 C-23.28 -46.02, -23.43 -46.23, -23.72 -46.65 M-23.13 -45.81 C-23.25 -45.98, -23.37 -46.15, -23.72 -46.65 M-23.72 -46.65 C-23.88 -46.83, -24.03 -47.01, -24.4 -47.44 M-23.72 -46.65 C-23.87 -46.83, -24.03 -47, -24.4 -47.44 M-24.4 -47.44 C-24.63 -47.65, -24.85 -47.87, -25.17 -48.17 M-24.4 -47.44 C-24.69 -47.71, -24.97 -47.98, -25.17 -48.17 M-25.17 -48.17 C-25.38 -48.33, -25.6 -48.5, -25.94 -48.77 M-25.17 -48.17 C-25.4 -48.35, -25.63 -48.53, -25.94 -48.77 M-25.94 -48.77 C-26.17 -48.91, -26.4 -49.06, -26.76 -49.28 M-25.94 -48.77 C-26.17 -48.92, -26.41 -49.06, -26.76 -49.28 M-26.76 -49.28 C-27.04 -49.43, -27.31 -49.57, -27.63 -49.72 M-26.76 -49.28 C-27.05 -49.43, -27.35 -49.58, -27.63 -49.72 M-27.63 -49.72 C-27.88 -49.83, -28.13 -49.93, -28.53 -50.09 M-27.63 -49.72 C-27.96 -49.86, -28.3 -50, -28.53 -50.09 M-28.53 -50.09 C-29.56 -50.39, -30.58 -50.7, -31.35 -50.92 M-28.53 -50.09 C-29.44 -50.36, -30.34 -50.62, -31.35 -50.92 M-31.35 -50.92 C-32.06 -51.09, -32.77 -51.26, -34.17 -51.6 M-31.35 -50.92 C-32.28 -51.14, -33.21 -51.37, -34.17 -51.6 M-34.17 -51.6 C-35.16 -51.78, -36.14 -51.97, -37 -52.12 M-34.17 -51.6 C-34.88 -51.73, -35.59 -51.86, -37 -52.12 M-37 -52.12 C-37.97 -52.26, -38.94 -52.39, -39.82 -52.51 M-37 -52.12 C-37.69 -52.22, -38.38 -52.31, -39.82 -52.51 M-39.82 -52.51 C-40.55 -52.57, -41.27 -52.63, -42.64 -52.74 M-39.82 -52.51 C-40.59 -52.57, -41.36 -52.64, -42.64 -52.74 M-42.64 -52.74 C-43.76 -52.78, -44.87 -52.82, -45.45 -52.84 M-42.64 -52.74 C-43.47 -52.77, -44.3 -52.8, -45.45 -52.84 M-45.45 -52.84 C-46.03 -52.83, -46.62 -52.82, -48.24 -52.79 M-45.45 -52.84 C-46.48 -52.82, -47.51 -52.81, -48.24 -52.79 M-48.24 -52.79 C-48.9 -52.75, -49.55 -52.71, -51.02 -52.61 M-48.24 -52.79 C-48.91 -52.75, -49.57 -52.71, -51.02 -52.61 M-51.02 -52.61 C-52.02 -52.5, -53.02 -52.39, -53.77 -52.3 M-51.02 -52.61 C-51.71 -52.54, -52.39 -52.46, -53.77 -52.3 M-53.77 -52.3 C-54.8 -52.13, -55.82 -51.96, -56.5 -51.85 M-53.77 -52.3 C-54.65 -52.15, -55.53 -52.01, -56.5 -51.85 M-56.5 -51.85 C-57.08 -51.73, -57.66 -51.6, -59.19 -51.27 M-56.5 -51.85 C-57.22 -51.7, -57.95 -51.54, -59.19 -51.27 M-59.19 -51.27 C-60.05 -51.04, -60.91 -50.82, -61.84 -50.57 M-59.19 -51.27 C-60.19 -51.01, -61.2 -50.74, -61.84 -50.57 M-61.84 -50.57 C-62.64 -50.31, -63.44 -50.06, -64.46 -49.74 M-61.84 -50.57 C-62.67 -50.31, -63.5 -50.04, -64.46 -49.74 M-64.46 -49.74 C-65.16 -49.48, -65.86 -49.21, -67.02 -48.78 M-64.46 -49.74 C-65.29 -49.43, -66.12 -49.12, -67.02 -48.78 M-67.02 -48.78 C-67.8 -48.45, -68.58 -48.12, -69.54 -47.71 M-67.02 -48.78 C-67.81 -48.45, -68.6 -48.11, -69.54 -47.71 M-69.54 -47.71 C-70.05 -47.46, -70.57 -47.21, -72 -46.52 M-69.54 -47.71 C-70.19 -47.4, -70.84 -47.08, -72 -46.52 M-72 -46.52 C-72.82 -46.07, -73.64 -45.62, -74.4 -45.21 M-72 -46.52 C-72.77 -46.1, -73.53 -45.68, -74.4 -45.21 M-74.4 -45.21 C-74.87 -44.92, -75.34 -44.64, -76.74 -43.79 M-74.4 -45.21 C-75.3 -44.66, -76.21 -44.11, -76.74 -43.79 M-76.74 -43.79 C-77.32 -43.39, -77.9 -43, -79.01 -42.25 M-76.74 -43.79 C-77.26 -43.43, -77.78 -43.08, -79.01 -42.25 M-79.01 -42.25 C-79.69 -41.74, -80.37 -41.23, -81.2 -40.61 M-79.01 -42.25 C-79.6 -41.81, -80.19 -41.37, -81.2 -40.61 M-81.2 -40.61 C-81.94 -40, -82.68 -39.39, -83.32 -38.86 M-81.2 -40.61 C-81.78 -40.13, -82.37 -39.65, -83.32 -38.86 M-83.32 -38.86 C-83.91 -38.32, -84.5 -37.79, -85.35 -37.01 M-83.32 -38.86 C-84.08 -38.17, -84.83 -37.48, -85.35 -37.01 M-85.35 -37.01 C-85.84 -36.52, -86.32 -36.04, -87.3 -35.05 M-85.35 -37.01 C-85.99 -36.37, -86.62 -35.74, -87.3 -35.05 M-87.3 -35.05 C-87.82 -34.48, -88.33 -33.91, -89.16 -33 M-87.3 -35.05 C-87.94 -34.35, -88.58 -33.64, -89.16 -33 M-89.16 -33 C-89.56 -32.5, -89.96 -32.01, -90.92 -30.84 M-89.16 -33 C-89.83 -32.18, -90.49 -31.36, -90.92 -30.84 M-90.92 -30.84 C-91.42 -30.16, -91.92 -29.49, -92.58 -28.6 M-90.92 -30.84 C-91.45 -30.13, -91.98 -29.41, -92.58 -28.6 M-92.58 -28.6 C-93.05 -27.89, -93.51 -27.19, -94.14 -26.25 M-92.58 -28.6 C-93.02 -27.94, -93.45 -27.29, -94.14 -26.25 M-94.14 -26.25 C-94.69 -25.33, -95.24 -24.4, -95.58 -23.82 M-94.14 -26.25 C-94.45 -25.74, -94.76 -25.22, -95.58 -23.82 M-95.58 -23.82 C-96 -23.04, -96.41 -22.25, -96.92 -21.3 M-95.58 -23.82 C-96.12 -22.82, -96.65 -21.81, -96.92 -21.3 M-96.92 -21.3 C-97.19 -20.73, -97.45 -20.15, -98.13 -18.7 M-96.92 -21.3 C-97.2 -20.69, -97.49 -20.07, -98.13 -18.7 M-98.13 -18.7 C-98.41 -18.02, -98.68 -17.34, -99.22 -16.01 M-98.13 -18.7 C-98.51 -17.76, -98.89 -16.82, -99.22 -16.01 M-99.22 -16.01 C-99.53 -15.13, -99.84 -14.25, -100.19 -13.24 M-99.22 -16.01 C-99.59 -14.96, -99.95 -13.92, -100.19 -13.24 M-100.19 -13.24 C-100.48 -12.24, -100.77 -11.25, -101.02 -10.39 M-100.19 -13.24 C-100.42 -12.45, -100.65 -11.66, -101.02 -10.39 M-101.02 -10.39 C-101.19 -9.65, -101.37 -8.92, -101.7 -7.51 M-101.02 -10.39 C-101.24 -9.48, -101.45 -8.57, -101.7 -7.51 M-101.7 -7.51 C-101.9 -6.43, -102.1 -5.35, -102.23 -4.59 M-101.7 -7.51 C-101.9 -6.44, -102.09 -5.37, -102.23 -4.59 M-102.23 -4.59 C-102.31 -3.98, -102.39 -3.36, -102.61 -1.66 M-102.23 -4.59 C-102.35 -3.68, -102.47 -2.76, -102.61 -1.66 M-102.61 -1.66 C-102.69 -0.7, -102.76 0.25, -102.84 1.3 M-102.61 -1.66 C-102.69 -0.67, -102.76 0.32, -102.84 1.3 M-102.84 1.3 C-102.86 2.02, -102.88 2.74, -102.91 4.27 M-102.84 1.3 C-102.86 2.24, -102.89 3.18, -102.91 4.27 M-102.91 4.27 C-102.89 5.3, -102.86 6.33, -102.84 7.24 M-102.91 4.27 C-102.89 5.27, -102.86 6.27, -102.84 7.24 M-102.84 7.24 C-102.79 7.85, -102.74 8.46, -102.61 10.21 M-102.84 7.24 C-102.78 8.03, -102.72 8.81, -102.61 10.21 M-102.61 10.21 C-102.53 10.88, -102.45 11.55, -102.26 13.12 M-102.61 10.21 C-102.52 10.97, -102.43 11.74, -102.26 13.12 M-102.26 13.12 C-102.14 13.8, -102.03 14.49, -101.77 15.98 M-102.26 13.12 C-102.08 14.2, -101.89 15.28, -101.77 15.98 M-101.77 15.98 C-101.59 16.81, -101.4 17.64, -101.15 18.78 M-101.77 15.98 C-101.62 16.65, -101.47 17.33, -101.15 18.78 M-101.15 18.78 C-100.94 19.54, -100.73 20.3, -100.39 21.53 M-101.15 18.78 C-100.95 19.5, -100.75 20.23, -100.39 21.53 M-100.39 21.53 C-100.12 22.35, -99.85 23.17, -99.5 24.21 M-100.39 21.53 C-100.1 22.42, -99.8 23.31, -99.5 24.21 M-99.5 24.21 C-99.16 25.08, -98.83 25.95, -98.49 26.83 M-99.5 24.21 C-99.29 24.77, -99.07 25.32, -98.49 26.83 M-98.49 26.83 C-98.08 27.75, -97.67 28.67, -97.35 29.39 M-98.49 26.83 C-98.22 27.43, -97.95 28.03, -97.35 29.39 M-97.35 29.39 C-97.07 29.93, -96.8 30.47, -96.09 31.87 M-97.35 29.39 C-96.97 30.14, -96.59 30.89, -96.09 31.87 M-96.09 31.87 C-95.54 32.83, -95 33.79, -94.72 34.27 M-96.09 31.87 C-95.57 32.79, -95.04 33.72, -94.72 34.27 M-94.72 34.27 C-94.38 34.81, -94.04 35.34, -93.24 36.6 M-94.72 34.27 C-94.27 34.98, -93.82 35.69, -93.24 36.6 M-93.24 36.6 C-92.76 37.29, -92.27 37.97, -91.65 38.85 M-93.24 36.6 C-92.84 37.17, -92.45 37.73, -91.65 38.85 M-91.65 38.85 C-91.22 39.4, -90.79 39.95, -89.96 41.02 M-91.65 38.85 C-91.04 39.64, -90.42 40.43, -89.96 41.02 M-89.96 41.02 C-89.26 41.83, -88.56 42.64, -88.17 43.09 M-89.96 41.02 C-89.53 41.51, -89.11 42.01, -88.17 43.09 M-88.17 43.09 C-87.67 43.62, -87.17 44.15, -86.29 45.08 M-88.17 43.09 C-87.57 43.73, -86.97 44.36, -86.29 45.08 M-86.29 45.08 C-85.66 45.68, -85.03 46.28, -84.31 46.97 M-86.29 45.08 C-85.51 45.82, -84.74 46.56, -84.31 46.97 M-84.31 46.97 C-83.84 47.39, -83.36 47.8, -82.25 48.77 M-84.31 46.97 C-83.5 47.67, -82.69 48.38, -82.25 48.77 M-82.25 48.77 C-81.43 49.42, -80.61 50.06, -80.1 50.46 M-82.25 48.77 C-81.63 49.26, -81.01 49.75, -80.1 50.46 M-80.1 50.46 C-79.65 50.78, -79.2 51.1, -77.88 52.05 M-80.1 50.46 C-79.45 50.93, -78.8 51.39, -77.88 52.05 M-77.88 52.05 C-77.37 52.38, -76.87 52.7, -75.58 53.54 M-77.88 52.05 C-77.09 52.56, -76.3 53.07, -75.58 53.54 M-75.58 53.54 C-75.05 53.84, -74.53 54.15, -73.2 54.91 M-75.58 53.54 C-74.83 53.97, -74.09 54.4, -73.2 54.91 M-73.2 54.91 C-72.47 55.3, -71.73 55.68, -70.76 56.17 M-73.2 54.91 C-72.46 55.3, -71.72 55.68, -70.76 56.17 M-70.76 56.17 C-70.21 56.43, -69.66 56.68, -68.26 57.32 M-70.76 56.17 C-70.17 56.45, -69.58 56.72, -68.26 57.32 M-68.26 57.32 C-67.63 57.57, -66.99 57.83, -65.7 58.35 M-68.26 57.32 C-67.34 57.69, -66.43 58.05, -65.7 58.35 M-65.7 58.35 C-64.85 58.64, -64.01 58.93, -63.08 59.25 M-65.7 58.35 C-65.1 58.55, -64.5 58.76, -63.08 59.25 M-63.08 59.25 C-62.26 59.48, -61.45 59.72, -60.41 60.02 M-63.08 59.25 C-62.47 59.42, -61.87 59.6, -60.41 60.02 M-60.41 60.02 C-59.5 60.24, -58.59 60.46, -57.69 60.67 M-60.41 60.02 C-59.48 60.24, -58.56 60.46, -57.69 60.67 M-57.69 60.67 C-56.95 60.81, -56.2 60.95, -54.92 61.19 M-57.69 60.67 C-56.95 60.81, -56.21 60.95, -54.92 61.19 M-54.92 61.19 C-54.21 61.28, -53.5 61.38, -52.12 61.56 M-54.92 61.19 C-54.33 61.26, -53.74 61.34, -52.12 61.56 M-52.12 61.56 C-51.08 61.65, -50.03 61.74, -49.28 61.8 M-52.12 61.56 C-51.06 61.65, -49.99 61.74, -49.28 61.8 M-49.28 61.8 C-48.21 61.84, -47.14 61.88, -46.41 61.9 M-49.28 61.8 C-48.24 61.84, -47.19 61.87, -46.41 61.9 M-46.41 61.9 C-45.32 61.88, -44.24 61.86, -43.51 61.85 M-46.41 61.9 C-45.6 61.89, -44.79 61.87, -43.51 61.85 M-43.51 61.85 C-42.44 61.78, -41.36 61.71, -40.58 61.65 M-43.51 61.85 C-42.6 61.79, -41.69 61.73, -40.58 61.65 M-40.58 61.65 C-40.46 61.64, -40.34 61.63, -40.17 61.61 M-40.58 61.65 C-40.48 61.64, -40.38 61.63, -40.17 61.61 M-40.17 61.61 C-39.67 61.56, -39.17 61.5, -37.68 61.34 M-40.17 61.61 C-39.56 61.55, -38.94 61.48, -37.68 61.34 M-37.68 61.34 C-36.99 61.23, -36.31 61.12, -35.22 60.96 M-37.68 61.34 C-36.76 61.19, -35.85 61.05, -35.22 60.96 M-35.22 60.96 C-34.66 60.84, -34.1 60.73, -32.79 60.47 M-35.22 60.96 C-34.36 60.78, -33.51 60.61, -32.79 60.47 M-32.79 60.47 C-32.05 60.29, -31.3 60.1, -30.41 59.89 M-32.79 60.47 C-32.08 60.29, -31.36 60.12, -30.41 59.89 M-30.41 59.89 C-29.71 59.68, -29 59.47, -28.06 59.2 M-30.41 59.89 C-29.71 59.68, -29 59.48, -28.06 59.2 M-28.06 59.2 C-27.31 58.95, -26.57 58.69, -25.76 58.42 M-28.06 59.2 C-27.36 58.96, -26.66 58.73, -25.76 58.42 M-25.76 58.42 C-25.21 58.21, -24.66 58, -23.5 57.55 M-25.76 58.42 C-25 58.13, -24.23 57.83, -23.5 57.55 M-23.5 57.55 C-22.89 57.28, -22.27 57.01, -21.29 56.58 M-23.5 57.55 C-22.64 57.17, -21.78 56.79, -21.29 56.58 M-21.29 56.58 C-20.47 56.18, -19.65 55.78, -19.13 55.53 M-21.29 56.58 C-20.84 56.36, -20.38 56.14, -19.13 55.53 M-19.13 55.53 C-18.55 55.21, -17.96 54.89, -17.02 54.38 M-19.13 55.53 C-18.7 55.29, -18.26 55.06, -17.02 54.38 M-17.02 54.38 C-16.56 54.11, -16.1 53.83, -14.97 53.16 M-17.02 54.38 C-16.53 54.09, -16.03 53.79, -14.97 53.16 M-14.97 53.16 C-14.44 52.81, -13.91 52.46, -12.97 51.85 M-14.97 53.16 C-14.31 52.72, -13.65 52.29, -12.97 51.85 M-12.97 51.85 C-12.24 51.32, -11.51 50.8, -11.03 50.46 M-12.97 51.85 C-12.5 51.51, -12.04 51.18, -11.03 50.46 M-11.03 50.46 C-10.42 49.98, -9.81 49.5, -9.16 48.99 M-11.03 50.46 C-10.32 49.89, -9.6 49.33, -9.16 48.99 M-9.16 48.99 C-8.75 48.64, -8.34 48.29, -7.35 47.44 M-9.16 48.99 C-8.78 48.66, -8.4 48.34, -7.35 47.44 M-7.35 47.44 C-6.68 46.83, -6.02 46.21, -5.6 45.83 M-7.35 47.44 C-6.8 46.93, -6.25 46.42, -5.6 45.83 M-5.6 45.83 C-5.18 45.4, -4.77 44.98, -3.92 44.14 M-5.6 45.83 C-5.22 45.44, -4.83 45.05, -3.92 44.14 M-3.92 44.14 C-3.46 43.63, -3 43.12, -2.32 42.38 M-3.92 44.14 C-3.42 43.58, -2.91 43.03, -2.32 42.38 M-2.32 42.38 C-1.84 41.8, -1.35 41.23, -0.79 40.55 M-2.32 42.38 C-1.75 41.7, -1.19 41.03, -0.79 40.55 M-0.79 40.55 C-0.28 39.89, 0.23 39.23, 0.67 38.67 M-0.79 40.55 C-0.33 39.97, 0.12 39.38, 0.67 38.67 M0.67 38.67 C1.19 37.92, 1.72 37.18, 2.05 36.72 M0.67 38.67 C1.2 37.91, 1.73 37.16, 2.05 36.72 M2.05 36.72 C2.31 36.3, 2.58 35.89, 3.34 34.7 M2.05 36.72 C2.39 36.19, 2.73 35.66, 3.34 34.7 M3.34 34.7 C3.82 33.89, 4.29 33.08, 4.56 32.64 M3.34 34.7 C3.61 34.24, 3.88 33.79, 4.56 32.64 M4.56 32.64 C4.93 31.93, 5.3 31.23, 5.68 30.51 M4.56 32.64 C4.86 32.07, 5.15 31.51, 5.68 30.51 M5.68 30.51 C6.08 29.68, 6.48 28.84, 6.73 28.34 M5.68 30.51 C6 29.85, 6.31 29.2, 6.73 28.34 M6.73 28.34 C7.05 27.57, 7.38 26.81, 7.68 26.11 M6.73 28.34 C6.97 27.77, 7.21 27.21, 7.68 26.11 M7.68 26.11 C8 25.25, 8.32 24.39, 8.53 23.83 M7.68 26.11 C7.88 25.56, 8.09 25.01, 8.53 23.83 M8.53 23.83 C8.76 23.14, 8.99 22.46, 9.3 21.51 M8.53 23.83 C8.76 23.15, 8.98 22.47, 9.3 21.51 M9.3 21.51 C9.49 20.83, 9.68 20.14, 9.96 19.14 M9.3 21.51 C9.52 20.71, 9.75 19.92, 9.96 19.14 M9.96 19.14 C10.18 18.21, 10.4 17.27, 10.53 16.74 M9.96 19.14 C10.13 18.44, 10.29 17.74, 10.53 16.74 M10.53 16.74 C10.63 16.2, 10.73 15.66, 10.99 14.29 M10.53 16.74 C10.66 16.06, 10.79 15.39, 10.99 14.29 M10.99 14.29 C11.09 13.66, 11.18 13.03, 11.36 11.81 M10.99 14.29 C11.1 13.57, 11.2 12.85, 11.36 11.81 M11.36 11.81 C11.38 11.43, 11.4 11.04, 11.42 10.75 M11.36 11.81 C11.37 11.56, 11.38 11.32, 11.42 10.75 M11.42 10.75 C11.4 10.47, 11.39 10.2, 11.37 9.71 M11.42 10.75 C11.4 10.37, 11.38 9.99, 11.37 9.71 M11.37 9.71 C11.33 9.41, 11.28 9.12, 11.22 8.69 M11.37 9.71 C11.32 9.35, 11.26 8.99, 11.22 8.69 M11.22 8.69 C11.16 8.47, 11.11 8.24, 10.97 7.71 M11.22 8.69 C11.14 8.37, 11.06 8.05, 10.97 7.71 M10.97 7.71 C10.88 7.45, 10.79 7.18, 10.64 6.76 M10.97 7.71 C10.88 7.44, 10.78 7.16, 10.64 6.76 M10.64 6.76 C10.51 6.49, 10.38 6.22, 10.21 5.86 M10.64 6.76 C10.54 6.56, 10.45 6.36, 10.21 5.86 M10.21 5.86 C10.01 5.53, 9.82 5.2, 9.7 5 M10.21 5.86 C10.07 5.63, 9.94 5.4, 9.7 5 M9.7 5 C9.54 4.78, 9.38 4.56, 9.11 4.2 M9.7 5 C9.56 4.81, 9.42 4.62, 9.11 4.2 M9.11 4.2 C8.88 3.94, 8.64 3.68, 8.45 3.46 M9.11 4.2 C8.98 4.05, 8.84 3.9, 8.45 3.46 M8.45 3.46 C8.25 3.27, 8.04 3.09, 7.72 2.78 M8.45 3.46 C8.16 3.19, 7.87 2.92, 7.72 2.78 M7.72 2.78 C7.46 2.59, 7.2 2.39, 6.92 2.18 M7.72 2.78 C7.4 2.54, 7.08 2.3, 6.92 2.18 M6.92 2.18 C6.69 2.03, 6.45 1.89, 6.06 1.65 M6.92 2.18 C6.7 2.04, 6.49 1.91, 6.06 1.65 M6.06 1.65 C5.77 1.5, 5.47 1.36, 5.15 1.2 M6.06 1.65 C5.85 1.54, 5.63 1.44, 5.15 1.2 M5.15 1.2 C4.79 1.07, 4.43 0.93, 4.19 0.84 M5.15 1.2 C4.77 1.06, 4.39 0.92, 4.19 0.84 M4.19 0.84 C3.82 0.75, 3.46 0.65, 3.18 0.58 M4.19 0.84 C3.89 0.76, 3.59 0.68, 3.18 0.58 M3.18 0.58 C2.84 0.52, 2.5 0.47, 2.13 0.41 M3.18 0.58 C2.81 0.52, 2.43 0.46, 2.13 0.41 M2.13 0.41 C1.76 0.39, 1.38 0.37, 1.05 0.35 M2.13 0.41 C1.88 0.4, 1.63 0.38, 1.05 0.35 M1.05 0.35 C0.82 0.36, 0.59 0.37, -0.04 0.41 M1.05 0.35 C0.72 0.37, 0.39 0.39, -0.04 0.41 M-0.04 0.41 C-0.04 0.26, -0.04 0.11, -0.04 0 M-0.04 0.41 C-0.04 0.29, -0.04 0.18, -0.04 0 M-0.04 0 C-0.03 0, -0.01 0, 0 0 M-0.04 0 C-0.03 0, -0.01 0, 0 0 M0 0 C0 0, 0 0, 0 0 M0 0 C0 0, 0 0, 0 0" stroke="#000000" stroke-width="1" fill="none"></path></g></g><mask></mask><g stroke-linecap="round"><g transform="translate(119.96190524637905 188.33904361368786) rotate(0 0.0000036773209330931422 22.792388036185457)" fill-rule="evenodd"><path d="M0 0 L0 0 L2.33 0.12 L4.59 0.46 L6.78 1.02 L8.87 1.79 L10.86 2.75 L12.74 3.89 L14.5 5.21 L16.12 6.68 L17.59 8.3 L18.9 10.05 L20.04 11.93 L21 13.92 L21.77 16.02 L22.33 18.2 L22.67 20.46 L22.79 22.79 L22.67 25.12 L22.33 27.39 L21.77 29.57 L21 31.66 L20.04 33.66 L18.9 35.53 L17.59 37.29 L16.12 38.91 L14.5 40.38 L12.74 41.69 L10.86 42.83 L8.87 43.79 L6.78 44.56 L4.59 45.12 L2.33 45.47 L0 45.58 L-2.33 45.47 L-4.59 45.12 L-6.78 44.56 L-8.87 43.79 L-10.86 42.83 L-12.74 41.69 L-14.5 40.38 L-16.12 38.91 L-17.59 37.29 L-18.9 35.53 L-20.04 33.66 L-21 31.66 L-21.77 29.57 L-22.33 27.39 L-22.67 25.12 L-22.79 22.79 L-22.67 20.46 L-22.33 18.2 L-21.77 16.02 L-21 13.92 L-20.04 11.93 L-18.9 10.05 L-17.59 8.3 L-16.12 6.68 L-14.5 5.21 L-12.74 3.89 L-10.86 2.75 L-8.87 1.79 L-6.78 1.02 L-4.59 0.46 L-2.33 0.12 L0 0" stroke="none" stroke-width="0" fill="#aecbfa" fill-rule="evenodd"></path><path d="M0 0 C0 0, 0 0, 0 0 M0 0 C0 0, 0 0, 0 0 M0 0 C0.72 0.04, 1.44 0.07, 2.33 0.12 M0 0 C0.66 0.03, 1.31 0.07, 2.33 0.12 M2.33 0.12 C3.02 0.22, 3.71 0.33, 4.59 0.46 M2.33 0.12 C3 0.22, 3.68 0.32, 4.59 0.46 M4.59 0.46 C5.11 0.6, 5.63 0.73, 6.78 1.02 M4.59 0.46 C5.21 0.62, 5.84 0.78, 6.78 1.02 M6.78 1.02 C7.53 1.3, 8.28 1.58, 8.87 1.79 M6.78 1.02 C7.33 1.23, 7.87 1.43, 8.87 1.79 M8.87 1.79 C9.29 1.99, 9.71 2.2, 10.86 2.75 M8.87 1.79 C9.47 2.08, 10.07 2.37, 10.86 2.75 M10.86 2.75 C11.46 3.12, 12.06 3.48, 12.74 3.89 M10.86 2.75 C11.4 3.08, 11.93 3.4, 12.74 3.89 M12.74 3.89 C13.42 4.4, 14.1 4.91, 14.5 5.21 M12.74 3.89 C13.35 4.35, 13.95 4.8, 14.5 5.21 M14.5 5.21 C15.14 5.79, 15.79 6.38, 16.12 6.68 M14.5 5.21 C14.88 5.55, 15.25 5.89, 16.12 6.68 M16.12 6.68 C16.42 7.01, 16.73 7.35, 17.59 8.3 M16.12 6.68 C16.65 7.27, 17.19 7.86, 17.59 8.3 M17.59 8.3 C17.91 8.73, 18.23 9.16, 18.9 10.05 M17.59 8.3 C18.07 8.94, 18.56 9.59, 18.9 10.05 M18.9 10.05 C19.25 10.62, 19.59 11.19, 20.04 11.93 M18.9 10.05 C19.3 10.71, 19.7 11.37, 20.04 11.93 M20.04 11.93 C20.27 12.41, 20.51 12.9, 21 13.92 M20.04 11.93 C20.27 12.41, 20.5 12.88, 21 13.92 M21 13.92 C21.3 14.73, 21.59 15.54, 21.77 16.02 M21 13.92 C21.18 14.42, 21.36 14.91, 21.77 16.02 M21.77 16.02 C21.89 16.48, 22.01 16.95, 22.33 18.2 M21.77 16.02 C21.98 16.84, 22.19 17.67, 22.33 18.2 M22.33 18.2 C22.45 19.01, 22.58 19.83, 22.67 20.46 M22.33 18.2 C22.46 19.07, 22.59 19.94, 22.67 20.46 M22.67 20.46 C22.71 21.19, 22.75 21.92, 22.79 22.79 M22.67 20.46 C22.7 20.96, 22.72 21.45, 22.79 22.79 M22.79 22.79 C22.77 23.28, 22.74 23.76, 22.67 25.12 M22.79 22.79 C22.76 23.5, 22.72 24.22, 22.67 25.12 M22.67 25.12 C22.56 25.87, 22.45 26.62, 22.33 27.39 M22.67 25.12 C22.55 25.93, 22.43 26.73, 22.33 27.39 M22.33 27.39 C22.16 28.05, 21.98 28.72, 21.77 29.57 M22.33 27.39 C22.14 28.14, 21.94 28.89, 21.77 29.57 M21.77 29.57 C21.46 30.4, 21.16 31.24, 21 31.66 M21.77 29.57 C21.53 30.22, 21.29 30.87, 21 31.66 M21 31.66 C20.7 32.28, 20.4 32.9, 20.04 33.66 M21 31.66 C20.63 32.44, 20.25 33.22, 20.04 33.66 M20.04 33.66 C19.72 34.18, 19.4 34.7, 18.9 35.53 M20.04 33.66 C19.61 34.36, 19.19 35.06, 18.9 35.53 M18.9 35.53 C18.55 36.01, 18.2 36.48, 17.59 37.29 M18.9 35.53 C18.42 36.17, 17.94 36.81, 17.59 37.29 M17.59 37.29 C17.19 37.73, 16.79 38.17, 16.12 38.91 M17.59 37.29 C17.11 37.81, 16.64 38.34, 16.12 38.91 M16.12 38.91 C15.62 39.36, 15.12 39.81, 14.5 40.38 M16.12 38.91 C15.58 39.39, 15.05 39.88, 14.5 40.38 M14.5 40.38 C13.95 40.79, 13.4 41.2, 12.74 41.69 M14.5 40.38 C13.92 40.81, 13.34 41.25, 12.74 41.69 M12.74 41.69 C12.09 42.09, 11.45 42.48, 10.86 42.83 M12.74 41.69 C12.01 42.14, 11.27 42.59, 10.86 42.83 M10.86 42.83 C10.32 43.1, 9.77 43.36, 8.87 43.79 M10.86 42.83 C10.35 43.08, 9.84 43.32, 8.87 43.79 M8.87 43.79 C8.07 44.09, 7.26 44.38, 6.78 44.56 M8.87 43.79 C8.05 44.09, 7.23 44.39, 6.78 44.56 M6.78 44.56 C6.2 44.71, 5.62 44.86, 4.59 45.12 M6.78 44.56 C6.02 44.76, 5.26 44.95, 4.59 45.12 M4.59 45.12 C4.11 45.19, 3.64 45.27, 2.33 45.47 M4.59 45.12 C4.12 45.19, 3.65 45.27, 2.33 45.47 M2.33 45.47 C1.57 45.51, 0.82 45.54, 0 45.58 M2.33 45.47 C1.53 45.51, 0.73 45.55, 0 45.58 M0 45.58 C-0.7 45.55, -1.41 45.51, -2.33 45.47 M0 45.58 C-0.62 45.55, -1.23 45.52, -2.33 45.47 M-2.33 45.47 C-3.09 45.35, -3.86 45.23, -4.59 45.12 M-2.33 45.47 C-3.17 45.34, -4.02 45.21, -4.59 45.12 M-4.59 45.12 C-5.29 44.94, -5.98 44.77, -6.78 44.56 M-4.59 45.12 C-5.07 45, -5.54 44.88, -6.78 44.56 M-6.78 44.56 C-7.44 44.32, -8.11 44.07, -8.87 43.79 M-6.78 44.56 C-7.3 44.37, -7.82 44.18, -8.87 43.79 M-8.87 43.79 C-9.27 43.6, -9.67 43.41, -10.86 42.83 M-8.87 43.79 C-9.4 43.54, -9.93 43.28, -10.86 42.83 M-10.86 42.83 C-11.46 42.47, -12.05 42.11, -12.74 41.69 M-10.86 42.83 C-11.57 42.4, -12.28 41.97, -12.74 41.69 M-12.74 41.69 C-13.25 41.31, -13.75 40.94, -14.5 40.38 M-12.74 41.69 C-13.17 41.37, -13.61 41.04, -14.5 40.38 M-14.5 40.38 C-15.02 39.91, -15.54 39.44, -16.12 38.91 M-14.5 40.38 C-14.9 40.01, -15.31 39.64, -16.12 38.91 M-16.12 38.91 C-16.69 38.27, -17.27 37.63, -17.59 37.29 M-16.12 38.91 C-16.61 38.36, -17.1 37.82, -17.59 37.29 M-17.59 37.29 C-18.05 36.67, -18.52 36.04, -18.9 35.53 M-17.59 37.29 C-18.06 36.66, -18.53 36.03, -18.9 35.53 M-18.9 35.53 C-19.27 34.93, -19.63 34.32, -20.04 33.66 M-18.9 35.53 C-19.3 34.88, -19.7 34.22, -20.04 33.66 M-20.04 33.66 C-20.4 32.9, -20.77 32.15, -21 31.66 M-20.04 33.66 C-20.3 33.13, -20.55 32.6, -21 31.66 M-21 31.66 C-21.28 30.9, -21.56 30.14, -21.77 29.57 M-21 31.66 C-21.19 31.16, -21.37 30.66, -21.77 29.57 M-21.77 29.57 C-21.98 28.73, -22.2 27.89, -22.33 27.39 M-21.77 29.57 C-21.96 28.83, -22.15 28.1, -22.33 27.39 M-22.33 27.39 C-22.47 26.49, -22.6 25.59, -22.67 25.12 M-22.33 27.39 C-22.4 26.92, -22.47 26.46, -22.67 25.12 M-22.67 25.12 C-22.71 24.41, -22.75 23.69, -22.79 22.79 M-22.67 25.12 C-22.7 24.6, -22.73 24.08, -22.79 22.79 M-22.79 22.79 C-22.75 21.91, -22.7 21.03, -22.67 20.46 M-22.79 22.79 C-22.75 21.93, -22.71 21.07, -22.67 20.46 M-22.67 20.46 C-22.57 19.76, -22.46 19.05, -22.33 18.2 M-22.67 20.46 C-22.55 19.64, -22.42 18.82, -22.33 18.2 M-22.33 18.2 C-22.18 17.64, -22.04 17.07, -21.77 16.02 M-22.33 18.2 C-22.15 17.52, -21.98 16.83, -21.77 16.02 M-21.77 16.02 C-21.54 15.38, -21.3 14.75, -21 13.92 M-21.77 16.02 C-21.55 15.42, -21.33 14.83, -21 13.92 M-21 13.92 C-20.74 13.38, -20.48 12.84, -20.04 11.93 M-21 13.92 C-20.67 13.24, -20.34 12.56, -20.04 11.93 M-20.04 11.93 C-19.79 11.52, -19.54 11.11, -18.9 10.05 M-20.04 11.93 C-19.69 11.35, -19.34 10.78, -18.9 10.05 M-18.9 10.05 C-18.59 9.64, -18.28 9.23, -17.59 8.3 M-18.9 10.05 C-18.63 9.69, -18.36 9.33, -17.59 8.3 M-17.59 8.3 C-17.1 7.76, -16.61 7.22, -16.12 6.68 M-17.59 8.3 C-17.24 7.92, -16.9 7.54, -16.12 6.68 M-16.12 6.68 C-15.7 6.3, -15.29 5.93, -14.5 5.21 M-16.12 6.68 C-15.48 6.1, -14.84 5.51, -14.5 5.21 M-14.5 5.21 C-13.87 4.74, -13.24 4.26, -12.74 3.89 M-14.5 5.21 C-14.03 4.86, -13.57 4.51, -12.74 3.89 M-12.74 3.89 C-12.32 3.64, -11.9 3.38, -10.86 2.75 M-12.74 3.89 C-12.3 3.62, -11.86 3.35, -10.86 2.75 M-10.86 2.75 C-10.18 2.42, -9.5 2.1, -8.87 1.79 M-10.86 2.75 C-10.3 2.48, -9.74 2.21, -8.87 1.79 M-8.87 1.79 C-8.21 1.55, -7.54 1.3, -6.78 1.02 M-8.87 1.79 C-8.04 1.49, -7.21 1.18, -6.78 1.02 M-6.78 1.02 C-5.98 0.82, -5.18 0.62, -4.59 0.46 M-6.78 1.02 C-5.99 0.82, -5.21 0.62, -4.59 0.46 M-4.59 0.46 C-3.91 0.36, -3.23 0.26, -2.33 0.12 M-4.59 0.46 C-3.73 0.33, -2.87 0.2, -2.33 0.12 M-2.33 0.12 C-1.76 0.09, -1.18 0.06, 0 0 M-2.33 0.12 C-1.72 0.09, -1.12 0.06, 0 0 M0 0 C0 0, 0 0, 0 0 M0 0 C0 0, 0 0, 0 0" stroke="#000000" stroke-width="1" fill="none"></path></g></g><mask></mask><g stroke-linecap="round"><g transform="translate(119.96190524637905 6) rotate(0 0.0000036773209330931422 22.792381600873796)" fill-rule="evenodd"><path d="M0 0 L0 0 L2.33 0.12 L4.59 0.46 L6.78 1.02 L8.87 1.79 L10.86 2.75 L12.74 3.89 L14.5 5.21 L16.12 6.68 L17.59 8.3 L18.9 10.05 L20.04 11.93 L21 13.92 L21.77 16.02 L22.33 18.2 L22.67 20.46 L22.79 22.79 L22.67 25.12 L22.33 27.39 L21.77 29.57 L21 31.66 L20.04 33.66 L18.9 35.53 L17.59 37.29 L16.12 38.91 L14.5 40.38 L12.74 41.69 L10.86 42.83 L8.87 43.79 L6.78 44.56 L4.59 45.12 L2.33 45.47 L0 45.58 L-2.33 45.47 L-4.59 45.12 L-6.78 44.56 L-8.87 43.79 L-10.86 42.83 L-12.74 41.69 L-14.5 40.38 L-16.12 38.91 L-17.59 37.29 L-18.9 35.53 L-20.04 33.66 L-21 31.66 L-21.77 29.57 L-22.33 27.39 L-22.67 25.12 L-22.79 22.79 L-22.67 20.46 L-22.33 18.2 L-21.77 16.02 L-21 13.92 L-20.04 11.93 L-18.9 10.05 L-17.59 8.3 L-16.12 6.68 L-14.5 5.21 L-12.74 3.89 L-10.86 2.75 L-8.87 1.79 L-6.78 1.02 L-4.59 0.46 L-2.33 0.12 L0 0" stroke="none" stroke-width="0" fill="#aecbfa" fill-rule="evenodd"></path><path d="M0 0 C0 0, 0 0, 0 0 M0 0 C0 0, 0 0, 0 0 M0 0 C0.59 0.03, 1.17 0.06, 2.33 0.12 M0 0 C0.91 0.05, 1.81 0.09, 2.33 0.12 M2.33 0.12 C3.15 0.24, 3.97 0.37, 4.59 0.46 M2.33 0.12 C3.08 0.23, 3.84 0.35, 4.59 0.46 M4.59 0.46 C5.4 0.67, 6.21 0.88, 6.78 1.02 M4.59 0.46 C5.21 0.62, 5.83 0.78, 6.78 1.02 M6.78 1.02 C7.36 1.24, 7.95 1.45, 8.87 1.79 M6.78 1.02 C7.44 1.27, 8.11 1.51, 8.87 1.79 M8.87 1.79 C9.62 2.15, 10.38 2.52, 10.86 2.75 M8.87 1.79 C9.51 2.1, 10.14 2.4, 10.86 2.75 M10.86 2.75 C11.42 3.09, 11.97 3.42, 12.74 3.89 M10.86 2.75 C11.35 3.05, 11.84 3.34, 12.74 3.89 M12.74 3.89 C13.36 4.35, 13.97 4.81, 14.5 5.21 M12.74 3.89 C13.11 4.17, 13.47 4.44, 14.5 5.21 M14.5 5.21 C14.84 5.52, 15.19 5.84, 16.12 6.68 M14.5 5.21 C14.85 5.53, 15.21 5.86, 16.12 6.68 M16.12 6.68 C16.49 7.09, 16.86 7.5, 17.59 8.3 M16.12 6.68 C16.62 7.23, 17.13 7.79, 17.59 8.3 M17.59 8.3 C18.1 8.98, 18.61 9.66, 18.9 10.05 M17.59 8.3 C17.99 8.83, 18.39 9.37, 18.9 10.05 M18.9 10.05 C19.18 10.51, 19.46 10.97, 20.04 11.93 M18.9 10.05 C19.26 10.64, 19.61 11.22, 20.04 11.93 M20.04 11.93 C20.24 12.34, 20.43 12.74, 21 13.92 M20.04 11.93 C20.38 12.63, 20.71 13.32, 21 13.92 M21 13.92 C21.28 14.69, 21.56 15.45, 21.77 16.02 M21 13.92 C21.29 14.71, 21.58 15.5, 21.77 16.02 M21.77 16.02 C21.98 16.86, 22.2 17.7, 22.33 18.2 M21.77 16.02 C21.9 16.51, 22.02 17.01, 22.33 18.2 M22.33 18.2 C22.42 18.76, 22.5 19.33, 22.67 20.46 M22.33 18.2 C22.47 19.1, 22.6 19.99, 22.67 20.46 M22.67 20.46 C22.71 21.16, 22.75 21.87, 22.79 22.79 M22.67 20.46 C22.72 21.27, 22.76 22.08, 22.79 22.79 M22.79 22.79 C22.77 23.3, 22.74 23.81, 22.67 25.12 M22.79 22.79 C22.76 23.51, 22.72 24.22, 22.67 25.12 M22.67 25.12 C22.59 25.7, 22.5 26.27, 22.33 27.39 M22.67 25.12 C22.55 25.93, 22.43 26.74, 22.33 27.39 M22.33 27.39 C22.11 28.23, 21.89 29.07, 21.77 29.57 M22.33 27.39 C22.2 27.9, 22.06 28.41, 21.77 29.57 M21.77 29.57 C21.47 30.38, 21.18 31.18, 21 31.66 M21.77 29.57 C21.59 30.06, 21.41 30.55, 21 31.66 M21 31.66 C20.66 32.36, 20.32 33.07, 20.04 33.66 M21 31.66 C20.62 32.45, 20.25 33.23, 20.04 33.66 M20.04 33.66 C19.61 34.37, 19.17 35.08, 18.9 35.53 M20.04 33.66 C19.59 34.4, 19.13 35.15, 18.9 35.53 M18.9 35.53 C18.5 36.07, 18.1 36.6, 17.59 37.29 M18.9 35.53 C18.4 36.2, 17.9 36.86, 17.59 37.29 M17.59 37.29 C17.06 37.87, 16.53 38.45, 16.12 38.91 M17.59 37.29 C17.29 37.62, 16.99 37.95, 16.12 38.91 M16.12 38.91 C15.59 39.38, 15.07 39.86, 14.5 40.38 M16.12 38.91 C15.67 39.31, 15.22 39.72, 14.5 40.38 M14.5 40.38 C13.83 40.88, 13.16 41.38, 12.74 41.69 M14.5 40.38 C14.08 40.69, 13.67 41, 12.74 41.69 M12.74 41.69 C12.23 42.01, 11.71 42.32, 10.86 42.83 M12.74 41.69 C12.08 42.09, 11.42 42.49, 10.86 42.83 M10.86 42.83 C10.17 43.17, 9.47 43.5, 8.87 43.79 M10.86 42.83 C10.42 43.05, 9.98 43.26, 8.87 43.79 M8.87 43.79 C8.21 44.04, 7.54 44.28, 6.78 44.56 M8.87 43.79 C8.11 44.07, 7.35 44.35, 6.78 44.56 M6.78 44.56 C6.12 44.73, 5.46 44.9, 4.59 45.12 M6.78 44.56 C6.07 44.74, 5.37 44.92, 4.59 45.12 M4.59 45.12 C3.7 45.26, 2.81 45.39, 2.33 45.47 M4.59 45.12 C4.02 45.21, 3.45 45.3, 2.33 45.47 M2.33 45.47 C1.6 45.5, 0.87 45.54, 0 45.58 M2.33 45.47 C1.79 45.49, 1.24 45.52, 0 45.58 M0 45.58 C-0.8 45.54, -1.6 45.5, -2.33 45.47 M0 45.58 C-0.58 45.56, -1.15 45.53, -2.33 45.47 M-2.33 45.47 C-2.79 45.4, -3.24 45.33, -4.59 45.12 M-2.33 45.47 C-2.98 45.37, -3.64 45.27, -4.59 45.12 M-4.59 45.12 C-5.43 44.91, -6.28 44.69, -6.78 44.56 M-4.59 45.12 C-5.38 44.92, -6.16 44.72, -6.78 44.56 M-6.78 44.56 C-7.25 44.39, -7.72 44.22, -8.87 43.79 M-6.78 44.56 C-7.53 44.29, -8.28 44.01, -8.87 43.79 M-8.87 43.79 C-9.34 43.57, -9.81 43.34, -10.86 42.83 M-8.87 43.79 C-9.44 43.52, -10.02 43.24, -10.86 42.83 M-10.86 42.83 C-11.57 42.4, -12.27 41.98, -12.74 41.69 M-10.86 42.83 C-11.51 42.44, -12.16 42.05, -12.74 41.69 M-12.74 41.69 C-13.43 41.17, -14.13 40.66, -14.5 40.38 M-12.74 41.69 C-13.3 41.27, -13.86 40.86, -14.5 40.38 M-14.5 40.38 C-14.96 39.95, -15.43 39.53, -16.12 38.91 M-14.5 40.38 C-14.96 39.95, -15.43 39.53, -16.12 38.91 M-16.12 38.91 C-16.49 38.5, -16.86 38.08, -17.59 37.29 M-16.12 38.91 C-16.44 38.55, -16.77 38.19, -17.59 37.29 M-17.59 37.29 C-18.03 36.7, -18.47 36.1, -18.9 35.53 M-17.59 37.29 C-17.94 36.82, -18.29 36.35, -18.9 35.53 M-18.9 35.53 C-19.35 34.79, -19.8 34.05, -20.04 33.66 M-18.9 35.53 C-19.31 34.87, -19.71 34.2, -20.04 33.66 M-20.04 33.66 C-20.36 32.99, -20.68 32.32, -21 31.66 M-20.04 33.66 C-20.32 33.07, -20.6 32.49, -21 31.66 M-21 31.66 C-21.22 31.07, -21.44 30.47, -21.77 29.57 M-21 31.66 C-21.28 30.9, -21.56 30.14, -21.77 29.57 M-21.77 29.57 C-21.9 29.07, -22.03 28.56, -22.33 27.39 M-21.77 29.57 C-21.89 29.1, -22.01 28.63, -22.33 27.39 M-22.33 27.39 C-22.46 26.52, -22.59 25.66, -22.67 25.12 M-22.33 27.39 C-22.42 26.77, -22.52 26.16, -22.67 25.12 M-22.67 25.12 C-22.7 24.62, -22.73 24.12, -22.79 22.79 M-22.67 25.12 C-22.7 24.62, -22.73 24.11, -22.79 22.79 M-22.79 22.79 C-22.76 22.25, -22.74 21.7, -22.67 20.46 M-22.79 22.79 C-22.75 21.87, -22.7 20.94, -22.67 20.46 M-22.67 20.46 C-22.6 19.97, -22.52 19.47, -22.33 18.2 M-22.67 20.46 C-22.56 19.74, -22.45 19.02, -22.33 18.2 M-22.33 18.2 C-22.12 17.37, -21.9 16.55, -21.77 16.02 M-22.33 18.2 C-22.19 17.67, -22.06 17.15, -21.77 16.02 M-21.77 16.02 C-21.61 15.58, -21.45 15.14, -21 13.92 M-21.77 16.02 C-21.56 15.44, -21.34 14.86, -21 13.92 M-21 13.92 C-20.77 13.44, -20.54 12.97, -20.04 11.93 M-21 13.92 C-20.63 13.15, -20.26 12.38, -20.04 11.93 M-20.04 11.93 C-19.71 11.38, -19.37 10.83, -18.9 10.05 M-20.04 11.93 C-19.72 11.4, -19.4 10.87, -18.9 10.05 M-18.9 10.05 C-18.59 9.64, -18.29 9.24, -17.59 8.3 M-18.9 10.05 C-18.62 9.68, -18.34 9.31, -17.59 8.3 M-17.59 8.3 C-17.27 7.94, -16.95 7.59, -16.12 6.68 M-17.59 8.3 C-17.2 7.87, -16.8 7.43, -16.12 6.68 M-16.12 6.68 C-15.7 6.29, -15.27 5.91, -14.5 5.21 M-16.12 6.68 C-15.51 6.13, -14.91 5.58, -14.5 5.21 M-14.5 5.21 C-14.02 4.85, -13.55 4.5, -12.74 3.89 M-14.5 5.21 C-13.81 4.69, -13.13 4.18, -12.74 3.89 M-12.74 3.89 C-12.34 3.65, -11.94 3.4, -10.86 2.75 M-12.74 3.89 C-12.16 3.54, -11.57 3.18, -10.86 2.75 M-10.86 2.75 C-10.12 2.39, -9.38 2.04, -8.87 1.79 M-10.86 2.75 C-10.16 2.41, -9.45 2.07, -8.87 1.79 M-8.87 1.79 C-8.29 1.58, -7.7 1.36, -6.78 1.02 M-8.87 1.79 C-8.11 1.51, -7.36 1.24, -6.78 1.02 M-6.78 1.02 C-5.93 0.81, -5.08 0.59, -4.59 0.46 M-6.78 1.02 C-6.13 0.86, -5.49 0.69, -4.59 0.46 M-4.59 0.46 C-4.09 0.39, -3.58 0.31, -2.33 0.12 M-4.59 0.46 C-4.05 0.38, -3.51 0.3, -2.33 0.12 M-2.33 0.12 C-1.81 0.09, -1.29 0.07, 0 0 M-2.33 0.12 C-1.67 0.08, -1 0.05, 0 0 M0 0 C0 0, 0 0, 0 0 M0 0 C0 0, 0 0, 0 0" stroke="#000000" stroke-width="1" fill="none"></path></g></g><mask></mask><g stroke-linecap="round"><g transform="translate(188.3390546456517 211.1314463591575) rotate(0 17.094291027139036 -91.19771490694723)" fill-rule="evenodd"><path d="M0 0 L0 0 L-1.17 -0.07 L-2.3 -0.25 L-3.39 -0.53 L-4.44 -0.92 L-5.43 -1.41 L-6.37 -1.98 L-7.24 -2.64 L-8.04 -3.38 L-8.78 -4.19 L-9.43 -5.07 L-9.99 -6.01 L-10.47 -7.01 L-10.85 -8.06 L-11.13 -9.15 L-11.3 -10.28 L-11.36 -11.44 L-11.3 -12.54 L-11.14 -13.62 L-10.87 -14.69 L-10.5 -15.72 L-10.04 -16.71 L-9.49 -17.65 L-8.84 -18.53 L-8.12 -19.35 L22.75 -50.22 L22.75 -132.08 L-7.91 -162.95 L-7.91 -162.95 L-8.69 -163.81 L-9.36 -164.73 L-9.94 -165.7 L-10.4 -166.71 L-10.77 -167.75 L-11.02 -168.81 L-11.18 -169.89 L-11.23 -170.98 L-11.18 -172.07 L-11.02 -173.16 L-10.77 -174.22 L-10.4 -175.26 L-9.94 -176.27 L-9.36 -177.24 L-8.69 -178.16 L-7.91 -179.02 L-7.05 -179.8 L-6.13 -180.49 L-5.16 -181.06 L-4.16 -181.54 L-3.11 -181.91 L-2.05 -182.18 L-0.96 -182.34 L0.13 -182.4 L1.22 -182.35 L2.31 -182.2 L3.37 -181.94 L4.42 -181.58 L5.43 -181.12 L6.41 -180.55 L7.33 -179.88 L8.2 -179.1 L8.28 -179.02 L42.47 -144.83 L42.47 -144.83 L43.19 -143.98 L43.83 -143.07 L44.36 -142.11 L44.81 -141.1 L45.15 -140.05 L45.39 -138.97 L45.52 -137.87 L45.54 -136.75 L45.54 -45.58 L45.54 -45.58 L45.49 -44.47 L45.32 -43.37 L45.06 -42.3 L44.68 -41.27 L44.21 -40.27 L43.64 -39.32 L42.98 -38.42 L42.22 -37.59 L8.03 -3.4 L8.03 -3.4 L7.21 -2.63 L6.32 -1.95 L5.37 -1.37 L4.37 -0.89 L3.32 -0.5 L2.24 -0.23 L1.13 -0.06 L0 0 L0 0" stroke="none" stroke-width="0" fill="#4285f4" fill-rule="evenodd"></path><path d="M0 0 C0 0, 0 0, 0 0 M0 0 C0 0, 0 0, 0 0 M0 0 C-0.43 -0.02, -0.85 -0.05, -1.17 -0.07 M0 0 C-0.41 -0.02, -0.82 -0.05, -1.17 -0.07 M-1.17 -0.07 C-1.41 -0.11, -1.66 -0.14, -2.3 -0.25 M-1.17 -0.07 C-1.47 -0.11, -1.78 -0.16, -2.3 -0.25 M-2.3 -0.25 C-2.64 -0.34, -2.99 -0.43, -3.39 -0.53 M-2.3 -0.25 C-2.63 -0.33, -2.96 -0.42, -3.39 -0.53 M-3.39 -0.53 C-3.6 -0.61, -3.81 -0.69, -4.44 -0.92 M-3.39 -0.53 C-3.68 -0.64, -3.97 -0.75, -4.44 -0.92 M-4.44 -0.92 C-4.77 -1.08, -5.1 -1.24, -5.43 -1.41 M-4.44 -0.92 C-4.64 -1.02, -4.84 -1.12, -5.43 -1.41 M-5.43 -1.41 C-5.68 -1.56, -5.94 -1.72, -6.37 -1.98 M-5.43 -1.41 C-5.73 -1.59, -6.03 -1.78, -6.37 -1.98 M-6.37 -1.98 C-6.71 -2.24, -7.06 -2.5, -7.24 -2.64 M-6.37 -1.98 C-6.57 -2.14, -6.78 -2.3, -7.24 -2.64 M-7.24 -2.64 C-7.47 -2.85, -7.7 -3.06, -8.04 -3.38 M-7.24 -2.64 C-7.41 -2.79, -7.57 -2.95, -8.04 -3.38 M-8.04 -3.38 C-8.21 -3.56, -8.37 -3.75, -8.78 -4.19 M-8.04 -3.38 C-8.24 -3.59, -8.43 -3.8, -8.78 -4.19 M-8.78 -4.19 C-9.03 -4.54, -9.29 -4.89, -9.43 -5.07 M-8.78 -4.19 C-8.96 -4.44, -9.14 -4.68, -9.43 -5.07 M-9.43 -5.07 C-9.64 -5.43, -9.85 -5.78, -9.99 -6.01 M-9.43 -5.07 C-9.61 -5.38, -9.8 -5.69, -9.99 -6.01 M-9.99 -6.01 C-10.15 -6.35, -10.31 -6.69, -10.47 -7.01 M-9.99 -6.01 C-10.15 -6.33, -10.3 -6.65, -10.47 -7.01 M-10.47 -7.01 C-10.6 -7.37, -10.73 -7.72, -10.85 -8.06 M-10.47 -7.01 C-10.61 -7.4, -10.75 -7.8, -10.85 -8.06 M-10.85 -8.06 C-10.94 -8.42, -11.03 -8.78, -11.13 -9.15 M-10.85 -8.06 C-10.92 -8.34, -10.99 -8.62, -11.13 -9.15 M-11.13 -9.15 C-11.17 -9.42, -11.21 -9.7, -11.3 -10.28 M-11.13 -9.15 C-11.18 -9.53, -11.24 -9.92, -11.3 -10.28 M-11.3 -10.28 C-11.32 -10.72, -11.34 -11.17, -11.36 -11.44 M-11.3 -10.28 C-11.31 -10.57, -11.33 -10.86, -11.36 -11.44 M-11.36 -11.44 C-11.34 -11.82, -11.32 -12.2, -11.3 -12.54 M-11.36 -11.44 C-11.34 -11.7, -11.33 -11.96, -11.3 -12.54 M-11.3 -12.54 C-11.24 -12.96, -11.17 -13.39, -11.14 -13.62 M-11.3 -12.54 C-11.27 -12.76, -11.23 -12.98, -11.14 -13.62 M-11.14 -13.62 C-11.04 -14, -10.95 -14.37, -10.87 -14.69 M-11.14 -13.62 C-11.06 -13.92, -10.99 -14.21, -10.87 -14.69 M-10.87 -14.69 C-10.79 -14.92, -10.71 -15.15, -10.5 -15.72 M-10.87 -14.69 C-10.78 -14.95, -10.69 -15.21, -10.5 -15.72 M-10.5 -15.72 C-10.37 -16, -10.24 -16.28, -10.04 -16.71 M-10.5 -15.72 C-10.34 -16.07, -10.18 -16.42, -10.04 -16.71 M-10.04 -16.71 C-9.9 -16.95, -9.76 -17.19, -9.49 -17.65 M-10.04 -16.71 C-9.89 -16.97, -9.73 -17.23, -9.49 -17.65 M-9.49 -17.65 C-9.34 -17.85, -9.2 -18.05, -8.84 -18.53 M-9.49 -17.65 C-9.26 -17.96, -9.03 -18.28, -8.84 -18.53 M-8.84 -18.53 C-8.67 -18.72, -8.5 -18.92, -8.12 -19.35 M-8.84 -18.53 C-8.7 -18.69, -8.55 -18.86, -8.12 -19.35 M-8.12 -19.35 C3.53 -31, 15.18 -42.65, 22.75 -50.22 M-8.12 -19.35 C-0.08 -27.39, 7.96 -35.42, 22.75 -50.22 M22.75 -50.22 C22.75 -82.65, 22.75 -115.09, 22.75 -132.08 M22.75 -50.22 C22.75 -72.76, 22.75 -95.3, 22.75 -132.08 M22.75 -132.08 C11.08 -143.84, -0.6 -155.59, -7.91 -162.95 M22.75 -132.08 C15.74 -139.14, 8.74 -146.19, -7.91 -162.95 M-7.91 -162.95 C-7.91 -162.95, -7.91 -162.95, -7.91 -162.95 M-7.91 -162.95 C-7.91 -162.95, -7.91 -162.95, -7.91 -162.95 M-7.91 -162.95 C-8.08 -163.13, -8.25 -163.32, -8.69 -163.81 M-7.91 -162.95 C-8.16 -163.22, -8.4 -163.49, -8.69 -163.81 M-8.69 -163.81 C-8.85 -164.03, -9.02 -164.26, -9.36 -164.73 M-8.69 -163.81 C-8.83 -164, -8.97 -164.19, -9.36 -164.73 M-9.36 -164.73 C-9.53 -165.01, -9.7 -165.3, -9.94 -165.7 M-9.36 -164.73 C-9.57 -165.08, -9.78 -165.43, -9.94 -165.7 M-9.94 -165.7 C-10.09 -166.03, -10.25 -166.37, -10.4 -166.71 M-9.94 -165.7 C-10.11 -166.08, -10.29 -166.46, -10.4 -166.71 M-10.4 -166.71 C-10.54 -167.09, -10.67 -167.47, -10.77 -167.75 M-10.4 -166.71 C-10.51 -167.02, -10.62 -167.34, -10.77 -167.75 M-10.77 -167.75 C-10.82 -167.97, -10.88 -168.2, -11.02 -168.81 M-10.77 -167.75 C-10.85 -168.08, -10.93 -168.42, -11.02 -168.81 M-11.02 -168.81 C-11.06 -169.05, -11.09 -169.29, -11.18 -169.89 M-11.02 -168.81 C-11.06 -169.09, -11.1 -169.37, -11.18 -169.89 M-11.18 -169.89 C-11.19 -170.16, -11.21 -170.44, -11.23 -170.98 M-11.18 -169.89 C-11.2 -170.2, -11.21 -170.52, -11.23 -170.98 M-11.23 -170.98 C-11.21 -171.39, -11.19 -171.8, -11.18 -172.07 M-11.23 -170.98 C-11.22 -171.24, -11.21 -171.5, -11.18 -172.07 M-11.18 -172.07 C-11.13 -172.39, -11.09 -172.7, -11.02 -173.16 M-11.18 -172.07 C-11.14 -172.37, -11.1 -172.66, -11.02 -173.16 M-11.02 -173.16 C-10.92 -173.57, -10.82 -173.99, -10.77 -174.22 M-11.02 -173.16 C-10.96 -173.41, -10.9 -173.66, -10.77 -174.22 M-10.77 -174.22 C-10.63 -174.62, -10.49 -175.01, -10.4 -175.26 M-10.77 -174.22 C-10.65 -174.54, -10.54 -174.86, -10.4 -175.26 M-10.4 -175.26 C-10.23 -175.63, -10.06 -175.99, -9.94 -176.27 M-10.4 -175.26 C-10.24 -175.61, -10.08 -175.96, -9.94 -176.27 M-9.94 -176.27 C-9.8 -176.5, -9.66 -176.74, -9.36 -177.24 M-9.94 -176.27 C-9.73 -176.62, -9.53 -176.96, -9.36 -177.24 M-9.36 -177.24 C-9.22 -177.44, -9.07 -177.63, -8.69 -178.16 M-9.36 -177.24 C-9.2 -177.46, -9.04 -177.68, -8.69 -178.16 M-8.69 -178.16 C-8.39 -178.48, -8.1 -178.81, -7.91 -179.02 M-8.69 -178.16 C-8.5 -178.36, -8.32 -178.57, -7.91 -179.02 M-7.91 -179.02 C-7.72 -179.19, -7.54 -179.36, -7.05 -179.8 M-7.91 -179.02 C-7.66 -179.25, -7.41 -179.48, -7.05 -179.8 M-7.05 -179.8 C-6.69 -180.08, -6.32 -180.35, -6.13 -180.49 M-7.05 -179.8 C-6.78 -180.01, -6.51 -180.21, -6.13 -180.49 M-6.13 -180.49 C-5.87 -180.64, -5.61 -180.8, -5.16 -181.06 M-6.13 -180.49 C-5.89 -180.63, -5.65 -180.77, -5.16 -181.06 M-5.16 -181.06 C-4.89 -181.19, -4.61 -181.32, -4.16 -181.54 M-5.16 -181.06 C-4.85 -181.21, -4.53 -181.36, -4.16 -181.54 M-4.16 -181.54 C-3.93 -181.62, -3.71 -181.7, -3.11 -181.91 M-4.16 -181.54 C-3.78 -181.67, -3.41 -181.8, -3.11 -181.91 M-3.11 -181.91 C-2.82 -181.98, -2.53 -182.06, -2.05 -182.18 M-3.11 -181.91 C-2.88 -181.97, -2.64 -182.03, -2.05 -182.18 M-2.05 -182.18 C-1.71 -182.23, -1.36 -182.28, -0.96 -182.34 M-2.05 -182.18 C-1.77 -182.22, -1.49 -182.26, -0.96 -182.34 M-0.96 -182.34 C-0.68 -182.35, -0.4 -182.37, 0.13 -182.4 M-0.96 -182.34 C-0.54 -182.36, -0.12 -182.38, 0.13 -182.4 M0.13 -182.4 C0.55 -182.38, 0.98 -182.36, 1.22 -182.35 M0.13 -182.4 C0.41 -182.38, 0.69 -182.37, 1.22 -182.35 M1.22 -182.35 C1.61 -182.29, 2 -182.24, 2.31 -182.2 M1.22 -182.35 C1.55 -182.3, 1.88 -182.26, 2.31 -182.2 M2.31 -182.2 C2.6 -182.13, 2.9 -182.06, 3.37 -181.94 M2.31 -182.2 C2.61 -182.13, 2.91 -182.05, 3.37 -181.94 M3.37 -181.94 C3.7 -181.83, 4.02 -181.72, 4.42 -181.58 M3.37 -181.94 C3.72 -181.83, 4.06 -181.71, 4.42 -181.58 M4.42 -181.58 C4.79 -181.41, 5.16 -181.24, 5.43 -181.12 M4.42 -181.58 C4.75 -181.43, 5.08 -181.28, 5.43 -181.12 M5.43 -181.12 C5.74 -180.94, 6.05 -180.76, 6.41 -180.55 M5.43 -181.12 C5.76 -180.93, 6.09 -180.74, 6.41 -180.55 M6.41 -180.55 C6.65 -180.37, 6.9 -180.19, 7.33 -179.88 M6.41 -180.55 C6.75 -180.3, 7.1 -180.04, 7.33 -179.88 M7.33 -179.88 C7.66 -179.58, 7.99 -179.29, 8.2 -179.1 M7.33 -179.88 C7.55 -179.68, 7.77 -179.49, 8.2 -179.1 M8.2 -179.1 C8.23 -179.07, 8.25 -179.05, 8.28 -179.02 M8.2 -179.1 C8.22 -179.07, 8.25 -179.05, 8.28 -179.02 M8.28 -179.02 C21.22 -166.08, 34.16 -153.14, 42.47 -144.83 M8.28 -179.02 C19.6 -167.7, 30.91 -156.39, 42.47 -144.83 M42.47 -144.83 C42.47 -144.83, 42.47 -144.83, 42.47 -144.83 M42.47 -144.83 C42.47 -144.83, 42.47 -144.83, 42.47 -144.83 M42.47 -144.83 C42.75 -144.5, 43.03 -144.17, 43.19 -143.98 M42.47 -144.83 C42.67 -144.59, 42.87 -144.36, 43.19 -143.98 M43.19 -143.98 C43.37 -143.73, 43.54 -143.49, 43.83 -143.07 M43.19 -143.98 C43.33 -143.78, 43.47 -143.59, 43.83 -143.07 M43.83 -143.07 C44.02 -142.72, 44.21 -142.38, 44.36 -142.11 M43.83 -143.07 C44 -142.76, 44.18 -142.44, 44.36 -142.11 M44.36 -142.11 C44.46 -141.88, 44.56 -141.66, 44.81 -141.1 M44.36 -142.11 C44.49 -141.82, 44.61 -141.54, 44.81 -141.1 M44.81 -141.1 C44.89 -140.85, 44.97 -140.6, 45.15 -140.05 M44.81 -141.1 C44.93 -140.72, 45.05 -140.34, 45.15 -140.05 M45.15 -140.05 C45.22 -139.71, 45.3 -139.38, 45.39 -138.97 M45.15 -140.05 C45.2 -139.79, 45.26 -139.54, 45.39 -138.97 M45.39 -138.97 C45.42 -138.7, 45.45 -138.42, 45.52 -137.87 M45.39 -138.97 C45.44 -138.54, 45.49 -138.1, 45.52 -137.87 M45.52 -137.87 C45.53 -137.56, 45.53 -137.26, 45.54 -136.75 M45.52 -137.87 C45.53 -137.52, 45.53 -137.18, 45.54 -136.75 M45.54 -136.75 C45.54 -117.82, 45.54 -98.88, 45.54 -45.58 M45.54 -136.75 C45.54 -110.67, 45.54 -84.58, 45.54 -45.58 M45.54 -45.58 C45.54 -45.58, 45.54 -45.58, 45.54 -45.58 M45.54 -45.58 C45.54 -45.58, 45.54 -45.58, 45.54 -45.58 M45.54 -45.58 C45.53 -45.35, 45.52 -45.12, 45.49 -44.47 M45.54 -45.58 C45.53 -45.33, 45.52 -45.08, 45.49 -44.47 M45.49 -44.47 C45.44 -44.11, 45.38 -43.75, 45.32 -43.37 M45.49 -44.47 C45.45 -44.2, 45.41 -43.93, 45.32 -43.37 M45.32 -43.37 C45.23 -43.01, 45.14 -42.64, 45.06 -42.3 M45.32 -43.37 C45.26 -43.11, 45.19 -42.84, 45.06 -42.3 M45.06 -42.3 C44.92 -41.93, 44.79 -41.55, 44.68 -41.27 M45.06 -42.3 C44.98 -42.09, 44.9 -41.88, 44.68 -41.27 M44.68 -41.27 C44.51 -40.89, 44.33 -40.52, 44.21 -40.27 M44.68 -41.27 C44.53 -40.94, 44.37 -40.61, 44.21 -40.27 M44.21 -40.27 C44.01 -39.93, 43.8 -39.59, 43.64 -39.32 M44.21 -40.27 C44.06 -40.02, 43.91 -39.77, 43.64 -39.32 M43.64 -39.32 C43.46 -39.08, 43.29 -38.84, 42.98 -38.42 M43.64 -39.32 C43.45 -39.07, 43.27 -38.82, 42.98 -38.42 M42.98 -38.42 C42.73 -38.15, 42.48 -37.87, 42.22 -37.59 M42.98 -38.42 C42.76 -38.18, 42.54 -37.94, 42.22 -37.59 M42.22 -37.59 C33.33 -28.7, 24.44 -19.81, 8.03 -3.4 M42.22 -37.59 C33.59 -28.96, 24.96 -20.33, 8.03 -3.4 M8.03 -3.4 C8.03 -3.4, 8.03 -3.4, 8.03 -3.4 M8.03 -3.4 C8.03 -3.4, 8.03 -3.4, 8.03 -3.4 M8.03 -3.4 C7.72 -3.11, 7.41 -2.81, 7.21 -2.63 M8.03 -3.4 C7.84 -3.22, 7.65 -3.04, 7.21 -2.63 M7.21 -2.63 C6.92 -2.41, 6.62 -2.18, 6.32 -1.95 M7.21 -2.63 C6.87 -2.37, 6.53 -2.11, 6.32 -1.95 M6.32 -1.95 C5.99 -1.75, 5.66 -1.54, 5.37 -1.37 M6.32 -1.95 C5.98 -1.75, 5.64 -1.54, 5.37 -1.37 M5.37 -1.37 C5.01 -1.19, 4.64 -1.02, 4.37 -0.89 M5.37 -1.37 C5.04 -1.21, 4.7 -1.05, 4.37 -0.89 M4.37 -0.89 C4.09 -0.79, 3.82 -0.68, 3.32 -0.5 M4.37 -0.89 C3.96 -0.74, 3.56 -0.59, 3.32 -0.5 M3.32 -0.5 C2.91 -0.4, 2.49 -0.29, 2.24 -0.23 M3.32 -0.5 C3.08 -0.44, 2.84 -0.38, 2.24 -0.23 M2.24 -0.23 C1.9 -0.17, 1.55 -0.12, 1.13 -0.06 M2.24 -0.23 C1.98 -0.19, 1.72 -0.15, 1.13 -0.06 M1.13 -0.06 C0.7 -0.04, 0.28 -0.01, 0 0 M1.13 -0.06 C0.83 -0.04, 0.53 -0.03, 0 0 M0 0 C0 0, 0 0, 0 0 M0 0 C0 0, 0 0, 0 0 M0 0 C0 0, 0 0, 0 0 M0 0 C0 0, 0 0, 0 0" stroke="#000000" stroke-width="1" fill="none"></path></g></g><mask></mask><g stroke-linecap="round"><g transform="translate(51.58476320174759 211.1314463591575) rotate(0 -17.07378720506324 -91.19771490694723)" fill-rule="evenodd"><path d="M0 0 L0 0 L-1.13 -0.06 L-2.24 -0.23 L-3.33 -0.5 L-4.38 -0.89 L-5.38 -1.37 L-6.34 -1.95 L-7.24 -2.63 L-8.08 -3.4 L-42.26 -37.59 L-42.26 -37.59 L-43.01 -38.42 L-43.66 -39.32 L-44.22 -40.27 L-44.69 -41.27 L-45.07 -42.3 L-45.34 -43.37 L-45.52 -44.47 L-45.58 -45.58 L-45.58 -136.75 L-45.58 -136.75 L-45.53 -137.88 L-45.37 -139 L-45.1 -140.08 L-44.72 -141.13 L-44.25 -142.14 L-43.68 -143.1 L-43.02 -144 L-42.26 -144.83 L-8.08 -179.02 L-8.08 -179.02 L-7.21 -179.8 L-6.3 -180.49 L-5.33 -181.06 L-4.32 -181.54 L-3.28 -181.91 L-2.21 -182.18 L-1.13 -182.34 L-0.04 -182.4 L1.06 -182.35 L2.14 -182.2 L3.21 -181.94 L4.25 -181.58 L5.27 -181.12 L6.24 -180.55 L7.17 -179.88 L8.03 -179.1 L8.12 -179.02 L8.12 -179.02 L8.89 -178.16 L9.57 -177.24 L10.14 -176.27 L10.61 -175.26 L10.97 -174.22 L11.23 -173.16 L11.39 -172.07 L11.44 -170.98 L11.39 -169.89 L11.23 -168.81 L10.97 -167.75 L10.61 -166.71 L10.14 -165.7 L9.57 -164.73 L8.89 -163.81 L8.12 -162.95 L-22.75 -132.08 L-22.75 -50.26 L7.91 -19.39 L7.91 -19.39 L8.7 -18.53 L9.38 -17.61 L9.96 -16.64 L10.43 -15.63 L10.8 -14.59 L11.07 -13.53 L11.23 -12.44 L11.29 -11.35 L11.24 -10.26 L11.09 -9.17 L10.84 -8.1 L10.48 -7.06 L10.01 -6.05 L9.44 -5.07 L8.77 -4.15 L7.99 -3.28 L7.91 -3.2 L7.91 -3.2 L7.07 -2.47 L6.17 -1.83 L5.23 -1.29 L4.25 -0.83 L3.23 -0.47 L2.18 -0.21 L1.1 -0.05 L0 0 L0 0" stroke="none" stroke-width="0" fill="#669df6" fill-rule="evenodd"></path><path d="M0 0 C0 0, 0 0, 0 0 M0 0 C0 0, 0 0, 0 0 M0 0 C-0.42 -0.02, -0.83 -0.04, -1.13 -0.06 M0 0 C-0.3 -0.02, -0.61 -0.03, -1.13 -0.06 M-1.13 -0.06 C-1.43 -0.1, -1.73 -0.15, -2.24 -0.23 M-1.13 -0.06 C-1.48 -0.11, -1.82 -0.16, -2.24 -0.23 M-2.24 -0.23 C-2.63 -0.33, -3.02 -0.43, -3.33 -0.5 M-2.24 -0.23 C-2.54 -0.3, -2.84 -0.38, -3.33 -0.5 M-3.33 -0.5 C-3.57 -0.59, -3.82 -0.68, -4.38 -0.89 M-3.33 -0.5 C-3.67 -0.63, -4.01 -0.75, -4.38 -0.89 M-4.38 -0.89 C-4.6 -0.99, -4.82 -1.1, -5.38 -1.37 M-4.38 -0.89 C-4.61 -1, -4.85 -1.11, -5.38 -1.37 M-5.38 -1.37 C-5.65 -1.53, -5.92 -1.7, -6.34 -1.95 M-5.38 -1.37 C-5.58 -1.49, -5.78 -1.61, -6.34 -1.95 M-6.34 -1.95 C-6.62 -2.16, -6.9 -2.37, -7.24 -2.63 M-6.34 -1.95 C-6.68 -2.21, -7.02 -2.46, -7.24 -2.63 M-7.24 -2.63 C-7.46 -2.84, -7.69 -3.04, -8.08 -3.4 M-7.24 -2.63 C-7.56 -2.92, -7.87 -3.21, -8.08 -3.4 M-8.08 -3.4 C-16.1 -11.42, -24.12 -19.45, -42.26 -37.59 M-8.08 -3.4 C-17.4 -12.72, -26.72 -22.05, -42.26 -37.59 M-42.26 -37.59 C-42.26 -37.59, -42.26 -37.59, -42.26 -37.59 M-42.26 -37.59 C-42.26 -37.59, -42.26 -37.59, -42.26 -37.59 M-42.26 -37.59 C-42.51 -37.87, -42.76 -38.15, -43.01 -38.42 M-42.26 -37.59 C-42.51 -37.87, -42.76 -38.15, -43.01 -38.42 M-43.01 -38.42 C-43.21 -38.71, -43.42 -38.99, -43.66 -39.32 M-43.01 -38.42 C-43.24 -38.75, -43.48 -39.07, -43.66 -39.32 M-43.66 -39.32 C-43.88 -39.69, -44.11 -40.07, -44.22 -40.27 M-43.66 -39.32 C-43.83 -39.61, -44 -39.89, -44.22 -40.27 M-44.22 -40.27 C-44.39 -40.63, -44.56 -40.99, -44.69 -41.27 M-44.22 -40.27 C-44.34 -40.51, -44.45 -40.75, -44.69 -41.27 M-44.69 -41.27 C-44.82 -41.61, -44.94 -41.96, -45.07 -42.3 M-44.69 -41.27 C-44.83 -41.64, -44.96 -42.01, -45.07 -42.3 M-45.07 -42.3 C-45.16 -42.65, -45.25 -43, -45.34 -43.37 M-45.07 -42.3 C-45.16 -42.66, -45.25 -43.01, -45.34 -43.37 M-45.34 -43.37 C-45.4 -43.71, -45.45 -44.04, -45.52 -44.47 M-45.34 -43.37 C-45.38 -43.61, -45.42 -43.85, -45.52 -44.47 M-45.52 -44.47 C-45.54 -44.84, -45.56 -45.21, -45.58 -45.58 M-45.52 -44.47 C-45.53 -44.78, -45.55 -45.08, -45.58 -45.58 M-45.58 -45.58 C-45.58 -65, -45.58 -84.41, -45.58 -136.75 M-45.58 -45.58 C-45.58 -66.84, -45.58 -88.1, -45.58 -136.75 M-45.58 -136.75 C-45.58 -136.75, -45.58 -136.75, -45.58 -136.75 M-45.58 -136.75 C-45.58 -136.75, -45.58 -136.75, -45.58 -136.75 M-45.58 -136.75 C-45.56 -137.2, -45.54 -137.64, -45.53 -137.88 M-45.58 -136.75 C-45.57 -137.08, -45.55 -137.41, -45.53 -137.88 M-45.53 -137.88 C-45.47 -138.28, -45.41 -138.67, -45.37 -139 M-45.53 -137.88 C-45.47 -138.27, -45.42 -138.65, -45.37 -139 M-45.37 -139 C-45.28 -139.34, -45.19 -139.69, -45.1 -140.08 M-45.37 -139 C-45.28 -139.33, -45.2 -139.67, -45.1 -140.08 M-45.1 -140.08 C-44.96 -140.45, -44.83 -140.82, -44.72 -141.13 M-45.1 -140.08 C-44.99 -140.39, -44.88 -140.69, -44.72 -141.13 M-44.72 -141.13 C-44.58 -141.44, -44.43 -141.75, -44.25 -142.14 M-44.72 -141.13 C-44.56 -141.49, -44.39 -141.85, -44.25 -142.14 M-44.25 -142.14 C-44.05 -142.47, -43.86 -142.8, -43.68 -143.1 M-44.25 -142.14 C-44.06 -142.46, -43.87 -142.79, -43.68 -143.1 M-43.68 -143.1 C-43.54 -143.29, -43.4 -143.48, -43.02 -144 M-43.68 -143.1 C-43.47 -143.39, -43.25 -143.68, -43.02 -144 M-43.02 -144 C-42.72 -144.32, -42.43 -144.65, -42.26 -144.83 M-43.02 -144 C-42.82 -144.21, -42.63 -144.43, -42.26 -144.83 M-42.26 -144.83 C-30.93 -156.16, -19.59 -167.5, -8.08 -179.02 M-42.26 -144.83 C-34.01 -153.08, -25.76 -161.33, -8.08 -179.02 M-8.08 -179.02 C-8.08 -179.02, -8.08 -179.02, -8.08 -179.02 M-8.08 -179.02 C-8.08 -179.02, -8.08 -179.02, -8.08 -179.02 M-8.08 -179.02 C-7.82 -179.25, -7.57 -179.48, -7.21 -179.8 M-8.08 -179.02 C-7.75 -179.32, -7.43 -179.61, -7.21 -179.8 M-7.21 -179.8 C-7.01 -179.96, -6.8 -180.11, -6.3 -180.49 M-7.21 -179.8 C-6.88 -180.05, -6.56 -180.29, -6.3 -180.49 M-6.3 -180.49 C-5.94 -180.7, -5.59 -180.91, -5.33 -181.06 M-6.3 -180.49 C-5.97 -180.68, -5.65 -180.87, -5.33 -181.06 M-5.33 -181.06 C-4.94 -181.25, -4.55 -181.43, -4.32 -181.54 M-5.33 -181.06 C-5.01 -181.22, -4.68 -181.37, -4.32 -181.54 M-4.32 -181.54 C-3.94 -181.67, -3.55 -181.81, -3.28 -181.91 M-4.32 -181.54 C-3.95 -181.67, -3.58 -181.8, -3.28 -181.91 M-3.28 -181.91 C-2.92 -182, -2.56 -182.09, -2.21 -182.18 M-3.28 -181.91 C-2.94 -181.99, -2.6 -182.08, -2.21 -182.18 M-2.21 -182.18 C-1.84 -182.23, -1.47 -182.29, -1.13 -182.34 M-2.21 -182.18 C-1.99 -182.21, -1.76 -182.24, -1.13 -182.34 M-1.13 -182.34 C-0.71 -182.36, -0.29 -182.38, -0.04 -182.4 M-1.13 -182.34 C-0.74 -182.36, -0.35 -182.38, -0.04 -182.4 M-0.04 -182.4 C0.27 -182.38, 0.58 -182.37, 1.06 -182.35 M-0.04 -182.4 C0.3 -182.38, 0.64 -182.37, 1.06 -182.35 M1.06 -182.35 C1.3 -182.32, 1.53 -182.28, 2.14 -182.2 M1.06 -182.35 C1.31 -182.31, 1.56 -182.28, 2.14 -182.2 M2.14 -182.2 C2.37 -182.14, 2.59 -182.09, 3.21 -181.94 M2.14 -182.2 C2.36 -182.15, 2.57 -182.1, 3.21 -181.94 M3.21 -181.94 C3.45 -181.86, 3.7 -181.78, 4.25 -181.58 M3.21 -181.94 C3.44 -181.87, 3.66 -181.79, 4.25 -181.58 M4.25 -181.58 C4.56 -181.45, 4.86 -181.31, 5.27 -181.12 M4.25 -181.58 C4.53 -181.46, 4.81 -181.33, 5.27 -181.12 M5.27 -181.12 C5.65 -180.89, 6.04 -180.67, 6.24 -180.55 M5.27 -181.12 C5.63 -180.91, 6 -180.69, 6.24 -180.55 M6.24 -180.55 C6.56 -180.32, 6.89 -180.08, 7.17 -179.88 M6.24 -180.55 C6.46 -180.39, 6.68 -180.23, 7.17 -179.88 M7.17 -179.88 C7.49 -179.59, 7.81 -179.3, 8.03 -179.1 M7.17 -179.88 C7.39 -179.68, 7.62 -179.47, 8.03 -179.1 M8.03 -179.1 C8.06 -179.08, 8.09 -179.05, 8.12 -179.02 M8.03 -179.1 C8.06 -179.08, 8.08 -179.06, 8.12 -179.02 M8.12 -179.02 C8.12 -179.02, 8.12 -179.02, 8.12 -179.02 M8.12 -179.02 C8.12 -179.02, 8.12 -179.02, 8.12 -179.02 M8.12 -179.02 C8.4 -178.7, 8.68 -178.39, 8.89 -178.16 M8.12 -179.02 C8.28 -178.84, 8.44 -178.66, 8.89 -178.16 M8.89 -178.16 C9.07 -177.92, 9.24 -177.68, 9.57 -177.24 M8.89 -178.16 C9.05 -177.95, 9.2 -177.74, 9.57 -177.24 M9.57 -177.24 C9.7 -177.01, 9.84 -176.79, 10.14 -176.27 M9.57 -177.24 C9.7 -177.02, 9.83 -176.8, 10.14 -176.27 M10.14 -176.27 C10.25 -176.03, 10.36 -175.79, 10.61 -175.26 M10.14 -176.27 C10.3 -175.93, 10.46 -175.59, 10.61 -175.26 M10.61 -175.26 C10.71 -174.97, 10.81 -174.68, 10.97 -174.22 M10.61 -175.26 C10.74 -174.87, 10.88 -174.48, 10.97 -174.22 M10.97 -174.22 C11.07 -173.82, 11.17 -173.42, 11.23 -173.16 M10.97 -174.22 C11.03 -173.98, 11.09 -173.73, 11.23 -173.16 M11.23 -173.16 C11.26 -172.93, 11.29 -172.7, 11.39 -172.07 M11.23 -173.16 C11.28 -172.77, 11.34 -172.39, 11.39 -172.07 M11.39 -172.07 C11.4 -171.77, 11.41 -171.47, 11.44 -170.98 M11.39 -172.07 C11.4 -171.66, 11.42 -171.25, 11.44 -170.98 M11.44 -170.98 C11.42 -170.6, 11.4 -170.21, 11.39 -169.89 M11.44 -170.98 C11.42 -170.55, 11.4 -170.12, 11.39 -169.89 M11.39 -169.89 C11.35 -169.64, 11.31 -169.38, 11.23 -168.81 M11.39 -169.89 C11.33 -169.51, 11.28 -169.13, 11.23 -168.81 M11.23 -168.81 C11.18 -168.6, 11.13 -168.38, 10.97 -167.75 M11.23 -168.81 C11.13 -168.42, 11.04 -168.03, 10.97 -167.75 M10.97 -167.75 C10.84 -167.39, 10.72 -167.02, 10.61 -166.71 M10.97 -167.75 C10.86 -167.43, 10.75 -167.12, 10.61 -166.71 M10.61 -166.71 C10.48 -166.44, 10.36 -166.17, 10.14 -165.7 M10.61 -166.71 C10.48 -166.43, 10.35 -166.15, 10.14 -165.7 M10.14 -165.7 C9.92 -165.33, 9.71 -164.97, 9.57 -164.73 M10.14 -165.7 C9.99 -165.44, 9.84 -165.19, 9.57 -164.73 M9.57 -164.73 C9.43 -164.54, 9.3 -164.36, 8.89 -163.81 M9.57 -164.73 C9.32 -164.39, 9.07 -164.05, 8.89 -163.81 M8.89 -163.81 C8.67 -163.56, 8.44 -163.3, 8.12 -162.95 M8.89 -163.81 C8.7 -163.59, 8.5 -163.37, 8.12 -162.95 M8.12 -162.95 C-1.47 -153.36, -11.05 -143.78, -22.75 -132.08 M8.12 -162.95 C1.4 -156.23, -5.32 -149.51, -22.75 -132.08 M-22.75 -132.08 C-22.75 -103.24, -22.75 -74.41, -22.75 -50.26 M-22.75 -132.08 C-22.75 -100.13, -22.75 -68.18, -22.75 -50.26 M-22.75 -50.26 C-15.82 -43.28, -8.88 -36.29, 7.91 -19.39 M-22.75 -50.26 C-15.39 -42.85, -8.03 -35.44, 7.91 -19.39 M7.91 -19.39 C7.91 -19.39, 7.91 -19.39, 7.91 -19.39 M7.91 -19.39 C7.91 -19.39, 7.91 -19.39, 7.91 -19.39 M7.91 -19.39 C8.09 -19.2, 8.26 -19.01, 8.7 -18.53 M7.91 -19.39 C8.21 -19.06, 8.52 -18.73, 8.7 -18.53 M8.7 -18.53 C8.94 -18.21, 9.17 -17.89, 9.38 -17.61 M8.7 -18.53 C8.94 -18.2, 9.18 -17.88, 9.38 -17.61 M9.38 -17.61 C9.56 -17.3, 9.74 -17, 9.96 -16.64 M9.38 -17.61 C9.52 -17.38, 9.66 -17.15, 9.96 -16.64 M9.96 -16.64 C10.12 -16.3, 10.28 -15.96, 10.43 -15.63 M9.96 -16.64 C10.11 -16.31, 10.27 -15.98, 10.43 -15.63 M10.43 -15.63 C10.56 -15.26, 10.7 -14.89, 10.8 -14.59 M10.43 -15.63 C10.55 -15.3, 10.67 -14.96, 10.8 -14.59 M10.8 -14.59 C10.9 -14.19, 11 -13.79, 11.07 -13.53 M10.8 -14.59 C10.89 -14.23, 10.98 -13.87, 11.07 -13.53 M11.07 -13.53 C11.12 -13.16, 11.18 -12.8, 11.23 -12.44 M11.07 -13.53 C11.13 -13.1, 11.2 -12.67, 11.23 -12.44 M11.23 -12.44 C11.25 -12.16, 11.26 -11.88, 11.29 -11.35 M11.23 -12.44 C11.24 -12.2, 11.26 -11.96, 11.29 -11.35 M11.29 -11.35 C11.28 -11.04, 11.26 -10.73, 11.24 -10.26 M11.29 -11.35 C11.27 -10.97, 11.26 -10.59, 11.24 -10.26 M11.24 -10.26 C11.2 -9.97, 11.16 -9.68, 11.09 -9.17 M11.24 -10.26 C11.2 -9.93, 11.15 -9.6, 11.09 -9.17 M11.09 -9.17 C11 -8.77, 10.9 -8.37, 10.84 -8.1 M11.09 -9.17 C11.01 -8.84, 10.93 -8.5, 10.84 -8.1 M10.84 -8.1 C10.73 -7.8, 10.63 -7.5, 10.48 -7.06 M10.84 -8.1 C10.73 -7.79, 10.62 -7.48, 10.48 -7.06 M10.48 -7.06 C10.38 -6.84, 10.27 -6.62, 10.01 -6.05 M10.48 -7.06 C10.31 -6.7, 10.14 -6.33, 10.01 -6.05 M10.01 -6.05 C9.85 -5.77, 9.69 -5.49, 9.44 -5.07 M10.01 -6.05 C9.79 -5.66, 9.57 -5.28, 9.44 -5.07 M9.44 -5.07 C9.2 -4.74, 8.97 -4.41, 8.77 -4.15 M9.44 -5.07 C9.19 -4.72, 8.93 -4.37, 8.77 -4.15 M8.77 -4.15 C8.61 -3.97, 8.45 -3.78, 7.99 -3.28 M8.77 -4.15 C8.48 -3.82, 8.18 -3.49, 7.99 -3.28 M7.99 -3.28 C7.96 -3.25, 7.93 -3.22, 7.91 -3.2 M7.99 -3.28 C7.98 -3.26, 7.96 -3.24, 7.91 -3.2 M7.91 -3.2 C7.91 -3.2, 7.91 -3.2, 7.91 -3.2 M7.91 -3.2 C7.91 -3.2, 7.91 -3.2, 7.91 -3.2 M7.91 -3.2 C7.73 -3.04, 7.55 -2.89, 7.07 -2.47 M7.91 -3.2 C7.62 -2.95, 7.33 -2.69, 7.07 -2.47 M7.07 -2.47 C6.87 -2.33, 6.68 -2.19, 6.17 -1.83 M7.07 -2.47 C6.83 -2.3, 6.6 -2.14, 6.17 -1.83 M6.17 -1.83 C5.96 -1.71, 5.75 -1.59, 5.23 -1.29 M6.17 -1.83 C5.82 -1.63, 5.47 -1.42, 5.23 -1.29 M5.23 -1.29 C4.98 -1.17, 4.73 -1.05, 4.25 -0.83 M5.23 -1.29 C4.88 -1.12, 4.53 -0.96, 4.25 -0.83 M4.25 -0.83 C3.93 -0.72, 3.61 -0.6, 3.23 -0.47 M4.25 -0.83 C3.9 -0.71, 3.54 -0.58, 3.23 -0.47 M3.23 -0.47 C2.88 -0.38, 2.53 -0.3, 2.18 -0.21 M3.23 -0.47 C2.88 -0.39, 2.54 -0.3, 2.18 -0.21 M2.18 -0.21 C1.93 -0.18, 1.68 -0.14, 1.1 -0.05 M2.18 -0.21 C1.92 -0.17, 1.66 -0.14, 1.1 -0.05 M1.1 -0.05 C0.82 -0.04, 0.54 -0.03, 0 0 M1.1 -0.05 C0.68 -0.03, 0.26 -0.01, 0 0 M0 0 C0 0, 0 0, 0 0 M0 0 C0 0, 0 0, 0 0 M0 0 C0 0, 0 0, 0 0 M0 0 C0 0, 0 0, 0 0" stroke="#000000" stroke-width="1" fill="none"></path></g></g><mask></mask><g transform="translate(36.68625917641248 244.75831323915827) rotate(0 85.5 38)"><text x="85.5" y="0" font-family="Helvetica, Segoe UI Emoji" font-size="33.4285714285714px" fill="#000000" text-anchor="middle" style="white-space: pre;" direction="ltr" dominant-baseline="text-before-edge">Cloud Audit</text><text x="85.5" y="38" font-family="Helvetica, Segoe UI Emoji" font-size="33.4285714285714px" fill="#000000" text-anchor="middle" style="white-space: pre;" direction="ltr" dominant-baseline="text-before-edge">Logs</text></g></svg>