<svg version="1.1" xmlns="http://www.w3.org/2000/svg" viewBox="0 0 172 84" width="172" height="84">
  <!-- svg-source:excalidraw -->
  
  <defs>
    
    
  </defs>
  <g stroke-linecap="round" transform="translate(6 6) rotate(0 80 36)"><path d="M18 0 C52.64 0, 87.27 0, 142 0 C154 0, 160 6, 160 18 C160 26.29, 160 34.59, 160 54 C160 66, 154 72, 142 72 C98.96 72, 55.92 72, 18 72 C6 72, 0 66, 0 54 C0 41.33, 0 28.65, 0 18 C0 6, 6 0, 18 0" stroke="none" stroke-width="0" fill="#FFF"></path><path d="M18 0 C45.52 0, 73.04 0, 142 0 M18 0 C46.54 0, 75.09 0, 142 0 M142 0 C154 0, 160 6, 160 18 M142 0 C154 0, 160 6, 160 18 M160 18 C160 25.82, 160 33.63, 160 54 M160 18 C160 29.1, 160 40.19, 160 54 M160 54 C160 66, 154 72, 142 72 M160 54 C160 66, 154 72, 142 72 M142 72 C97.88 72, 53.76 72, 18 72 M142 72 C104.08 72, 66.16 72, 18 72 M18 72 C6 72, 0 66, 0 54 M18 72 C6 72, 0 66, 0 54 M0 54 C0 44.99, 0 35.98, 0 18 M0 54 C0 46.75, 0 39.49, 0 18 M0 18 C0 6, 6 0, 18 0 M0 18 C0 6, 6 0, 18 0" stroke="#4285f4" stroke-width="2" fill="none"></path></g><g transform="translate(71 28.5) rotate(0 37 14)"><text x="0" y="0" font-family="Helvetica, Segoe UI Emoji" font-size="12px" fill="#000000" text-anchor="start" style="white-space: pre;" direction="ltr" dominant-baseline="text-before-edge">Access</text><text x="0" y="14" font-family="Helvetica, Segoe UI Emoji" font-size="12px" fill="#000000" text-anchor="start" style="white-space: pre;" direction="ltr" dominant-baseline="text-before-edge">Transparency</text></g><g stroke-linecap="round"><g transform="translate(29.112967828637466 51.20555114746094) rotate(0 2.3040363788604736 0.09881305694580078)" fill-rule="evenodd"><path d="M0 0 L2.21 -2.21 L4.61 0.2 L2.4 2.4 L0 0" stroke="none" stroke-width="0" fill="#579bfb" fill-rule="evenodd"></path><path d="M0 0 C0.87 -0.87, 1.74 -1.74, 2.21 -2.21 M0 0 C0.54 -0.54, 1.07 -1.07, 2.21 -2.21 M2.21 -2.21 C3.07 -1.34, 3.94 -0.47, 4.61 0.2 M2.21 -2.21 C3.09 -1.32, 3.97 -0.44, 4.61 0.2 M4.61 0.2 C4.06 0.74, 3.52 1.29, 2.4 2.4 M4.61 0.2 C4.04 0.77, 3.47 1.34, 2.4 2.4 M2.4 2.4 C1.55 1.55, 0.69 0.69, 0 0 M2.4 2.4 C1.67 1.67, 0.93 0.93, 0 0 M0 0 C0 0, 0 0, 0 0 M0 0 C0 0, 0 0, 0 0" stroke="#00000000" stroke-width="1" fill="none"></path></g></g><mask></mask><g stroke-linecap="round"><g transform="translate(27.811415056115493 57.313241958618164) rotate(0 1.7351598739624023 -6.798173904418945)" fill-rule="evenodd"><path d="M0 0 L-4.11 -4.11 L5.38 -13.6 L7.58 -11.39 L0.3 -4.11 L2.2 -2.21 L0 0" stroke="none" stroke-width="0" fill="#abc9f8" fill-rule="evenodd"></path><path d="M0 0 C-1.54 -1.54, -3.09 -3.09, -4.11 -4.11 M0 0 C-1.19 -1.19, -2.38 -2.38, -4.11 -4.11 M-4.11 -4.11 C-1.45 -6.77, 1.21 -9.43, 5.38 -13.6 M-4.11 -4.11 C-2.06 -6.17, -0.01 -8.22, 5.38 -13.6 M5.38 -13.6 C6.18 -12.8, 6.98 -12, 7.58 -11.39 M5.38 -13.6 C5.95 -13.02, 6.53 -12.44, 7.58 -11.39 M7.58 -11.39 C5.43 -9.24, 3.28 -7.09, 0.3 -4.11 M7.58 -11.39 C5.49 -9.3, 3.4 -7.21, 0.3 -4.11 M0.3 -4.11 C0.68 -3.73, 1.07 -3.34, 2.2 -2.21 M0.3 -4.11 C0.78 -3.64, 1.25 -3.16, 2.2 -2.21 M2.2 -2.21 C1.76 -1.76, 1.31 -1.32, 0 0 M2.2 -2.21 C1.34 -1.34, 0.48 -0.48, 0 0 M0 0 C0 0, 0 0, 0 0 M0 0 C0 0, 0 0, 0 0" stroke="#00000000" stroke-width="1" fill="none"></path></g></g><mask></mask><g stroke-linecap="round"><g transform="translate(53.2287653483213 41.21095848083496) rotate(0 -12.81095814704895 -1.559816688299179)" fill-rule="evenodd"><path d="M0 0 L0 -3.12 L-2.32 -3.12 L-2.32 -3.12 L-2.43 -3.75 L-2.58 -4.37 L-2.77 -4.99 L-2.99 -5.6 L-3.26 -6.19 L-3.56 -6.77 L-3.9 -7.34 L-4.28 -7.88 L-2.65 -9.51 L-4.86 -11.72 L-6.49 -10.08 L-6.49 -10.08 L-7.03 -10.45 L-7.59 -10.79 L-8.16 -11.09 L-8.76 -11.36 L-9.36 -11.59 L-9.98 -11.78 L-10.62 -11.93 L-11.26 -12.05 L-11.26 -14.37 L-14.38 -14.37 L-14.38 -12.05 L-14.38 -12.05 L-15.01 -11.94 L-15.63 -11.79 L-16.25 -11.6 L-16.85 -11.38 L-17.45 -11.11 L-18.03 -10.81 L-18.59 -10.47 L-19.13 -10.09 L-20.77 -11.73 L-22.97 -9.51 L-21.33 -7.88 L-21.33 -7.88 L-21.71 -7.34 L-22.05 -6.78 L-22.35 -6.21 L-22.62 -5.62 L-22.84 -5.01 L-23.04 -4.39 L-23.19 -3.76 L-23.31 -3.12 L-25.62 -3.12 L-25.62 0 L-23.31 0 L-23.31 0 L-23.24 0.42 L-23.15 0.83 L-23.05 1.24 L-22.93 1.64 L-22.8 2.04 L-22.65 2.43 L-22.48 2.82 L-22.3 3.19 L-22.1 3.57 L-21.89 3.93 L-21.67 4.29 L-21.43 4.64 L-21.17 4.98 L-20.9 5.31 L-20.62 5.63 L-20.32 5.94 L-20.01 6.24 L-19.69 6.52 L-19.36 6.8 L-19.02 7.05 L-18.67 7.29 L-18.31 7.52 L-17.95 7.73 L-17.57 7.93 L-17.19 8.11 L-16.81 8.27 L-16.42 8.42 L-16.02 8.56 L-15.61 8.68 L-15.2 8.78 L-14.79 8.87 L-14.37 8.94 L-14.37 11.25 L-11.25 11.25 L-11.25 8.94 L-11.25 8.94 L-10.61 8.82 L-9.97 8.67 L-9.35 8.47 L-8.75 8.24 L-8.15 7.98 L-7.58 7.68 L-7.02 7.34 L-6.49 6.96 L-4.85 8.6 L-2.64 6.39 L-4.28 4.76 L-4.28 4.76 L-3.9 4.21 L-3.56 3.65 L-3.26 3.07 L-2.99 2.47 L-2.77 1.87 L-2.58 1.25 L-2.43 0.63 L-2.32 -0.01 L0 -0.01 L0 0" stroke="none" stroke-width="0" fill="#579bfb" fill-rule="evenodd"></path><path d="M0 0 C0 -1.16, 0 -2.33, 0 -3.12 M0 0 C0 -0.98, 0 -1.96, 0 -3.12 M0 -3.12 C-0.92 -3.12, -1.85 -3.12, -2.32 -3.12 M0 -3.12 C-0.68 -3.12, -1.36 -3.12, -2.32 -3.12 M-2.32 -3.12 C-2.32 -3.12, -2.32 -3.12, -2.32 -3.12 M-2.32 -3.12 C-2.32 -3.12, -2.32 -3.12, -2.32 -3.12 M-2.32 -3.12 C-2.35 -3.33, -2.39 -3.54, -2.43 -3.75 M-2.32 -3.12 C-2.35 -3.32, -2.39 -3.52, -2.43 -3.75 M-2.43 -3.75 C-2.47 -3.93, -2.52 -4.11, -2.58 -4.37 M-2.43 -3.75 C-2.46 -3.9, -2.5 -4.04, -2.58 -4.37 M-2.58 -4.37 C-2.63 -4.55, -2.68 -4.72, -2.77 -4.99 M-2.58 -4.37 C-2.62 -4.52, -2.67 -4.67, -2.77 -4.99 M-2.77 -4.99 C-2.83 -5.16, -2.89 -5.33, -2.99 -5.6 M-2.77 -4.99 C-2.83 -5.16, -2.89 -5.32, -2.99 -5.6 M-2.99 -5.6 C-3.09 -5.82, -3.19 -6.03, -3.26 -6.19 M-2.99 -5.6 C-3.09 -5.8, -3.18 -6.01, -3.26 -6.19 M-3.26 -6.19 C-3.35 -6.37, -3.45 -6.55, -3.56 -6.77 M-3.26 -6.19 C-3.33 -6.32, -3.4 -6.46, -3.56 -6.77 M-3.56 -6.77 C-3.65 -6.92, -3.74 -7.07, -3.9 -7.34 M-3.56 -6.77 C-3.7 -6.99, -3.83 -7.21, -3.9 -7.34 M-3.9 -7.34 C-4.05 -7.54, -4.19 -7.75, -4.28 -7.88 M-3.9 -7.34 C-4 -7.47, -4.09 -7.61, -4.28 -7.88 M-4.28 -7.88 C-3.84 -8.33, -3.39 -8.77, -2.65 -9.51 M-4.28 -7.88 C-3.73 -8.43, -3.19 -8.98, -2.65 -9.51 M-2.65 -9.51 C-3.23 -10.09, -3.8 -10.66, -4.86 -11.72 M-2.65 -9.51 C-3.37 -10.23, -4.1 -10.96, -4.86 -11.72 M-4.86 -11.72 C-5.23 -11.35, -5.6 -10.97, -6.49 -10.08 M-4.86 -11.72 C-5.22 -11.35, -5.59 -10.99, -6.49 -10.08 M-6.49 -10.08 C-6.49 -10.08, -6.49 -10.08, -6.49 -10.08 M-6.49 -10.08 C-6.49 -10.08, -6.49 -10.08, -6.49 -10.08 M-6.49 -10.08 C-6.6 -10.16, -6.71 -10.23, -7.03 -10.45 M-6.49 -10.08 C-6.65 -10.19, -6.8 -10.3, -7.03 -10.45 M-7.03 -10.45 C-7.22 -10.57, -7.41 -10.68, -7.59 -10.79 M-7.03 -10.45 C-7.25 -10.58, -7.46 -10.71, -7.59 -10.79 M-7.59 -10.79 C-7.71 -10.85, -7.83 -10.92, -8.16 -11.09 M-7.59 -10.79 C-7.73 -10.87, -7.88 -10.94, -8.16 -11.09 M-8.16 -11.09 C-8.36 -11.18, -8.56 -11.27, -8.76 -11.36 M-8.16 -11.09 C-8.3 -11.16, -8.44 -11.22, -8.76 -11.36 M-8.76 -11.36 C-8.93 -11.43, -9.11 -11.49, -9.36 -11.59 M-8.76 -11.36 C-8.89 -11.41, -9.03 -11.46, -9.36 -11.59 M-9.36 -11.59 C-9.57 -11.65, -9.77 -11.71, -9.98 -11.78 M-9.36 -11.59 C-9.54 -11.64, -9.71 -11.69, -9.98 -11.78 M-9.98 -11.78 C-10.13 -11.81, -10.27 -11.85, -10.62 -11.93 M-9.98 -11.78 C-10.11 -11.81, -10.24 -11.84, -10.62 -11.93 M-10.62 -11.93 C-10.83 -11.97, -11.05 -12.01, -11.26 -12.05 M-10.62 -11.93 C-10.87 -11.98, -11.13 -12.02, -11.26 -12.05 M-11.26 -12.05 C-11.26 -12.61, -11.26 -13.18, -11.26 -14.37 M-11.26 -12.05 C-11.26 -12.95, -11.26 -13.85, -11.26 -14.37 M-11.26 -14.37 C-12.41 -14.37, -13.55 -14.37, -14.38 -14.37 M-11.26 -14.37 C-12.23 -14.37, -13.2 -14.37, -14.38 -14.37 M-14.38 -14.37 C-14.38 -13.72, -14.38 -13.06, -14.38 -12.05 M-14.38 -14.37 C-14.38 -13.79, -14.38 -13.22, -14.38 -12.05 M-14.38 -12.05 C-14.38 -12.05, -14.38 -12.05, -14.38 -12.05 M-14.38 -12.05 C-14.38 -12.05, -14.38 -12.05, -14.38 -12.05 M-14.38 -12.05 C-14.59 -12.02, -14.8 -11.98, -15.01 -11.94 M-14.38 -12.05 C-14.54 -12.03, -14.7 -12, -15.01 -11.94 M-15.01 -11.94 C-15.25 -11.88, -15.49 -11.83, -15.63 -11.79 M-15.01 -11.94 C-15.14 -11.91, -15.27 -11.88, -15.63 -11.79 M-15.63 -11.79 C-15.84 -11.73, -16.05 -11.67, -16.25 -11.6 M-15.63 -11.79 C-15.86 -11.72, -16.08 -11.65, -16.25 -11.6 M-16.25 -11.6 C-16.37 -11.56, -16.5 -11.51, -16.85 -11.38 M-16.25 -11.6 C-16.45 -11.53, -16.66 -11.45, -16.85 -11.38 M-16.85 -11.38 C-16.99 -11.31, -17.13 -11.25, -17.45 -11.11 M-16.85 -11.38 C-17.05 -11.29, -17.24 -11.21, -17.45 -11.11 M-17.45 -11.11 C-17.61 -11.03, -17.78 -10.94, -18.03 -10.81 M-17.45 -11.11 C-17.64 -11.01, -17.84 -10.91, -18.03 -10.81 M-18.03 -10.81 C-18.21 -10.7, -18.4 -10.58, -18.59 -10.47 M-18.03 -10.81 C-18.23 -10.69, -18.44 -10.56, -18.59 -10.47 M-18.59 -10.47 C-18.73 -10.37, -18.87 -10.27, -19.13 -10.09 M-18.59 -10.47 C-18.71 -10.38, -18.83 -10.3, -19.13 -10.09 M-19.13 -10.09 C-19.72 -10.68, -20.31 -11.27, -20.77 -11.73 M-19.13 -10.09 C-19.64 -10.6, -20.15 -11.1, -20.77 -11.73 M-20.77 -11.73 C-21.51 -10.98, -22.25 -10.23, -22.97 -9.51 M-20.77 -11.73 C-21.33 -11.16, -21.9 -10.59, -22.97 -9.51 M-22.97 -9.51 C-22.33 -8.87, -21.69 -8.24, -21.33 -7.88 M-22.97 -9.51 C-22.52 -9.06, -22.06 -8.6, -21.33 -7.88 M-21.33 -7.88 C-21.33 -7.88, -21.33 -7.88, -21.33 -7.88 M-21.33 -7.88 C-21.33 -7.88, -21.33 -7.88, -21.33 -7.88 M-21.33 -7.88 C-21.45 -7.7, -21.58 -7.53, -21.71 -7.34 M-21.33 -7.88 C-21.47 -7.68, -21.61 -7.48, -21.71 -7.34 M-21.71 -7.34 C-21.84 -7.12, -21.97 -6.9, -22.05 -6.78 M-21.71 -7.34 C-21.84 -7.13, -21.97 -6.92, -22.05 -6.78 M-22.05 -6.78 C-22.11 -6.67, -22.17 -6.55, -22.35 -6.21 M-22.05 -6.78 C-22.16 -6.57, -22.27 -6.36, -22.35 -6.21 M-22.35 -6.21 C-22.41 -6.08, -22.47 -5.94, -22.62 -5.62 M-22.35 -6.21 C-22.42 -6.04, -22.5 -5.88, -22.62 -5.62 M-22.62 -5.62 C-22.69 -5.43, -22.76 -5.25, -22.84 -5.01 M-22.62 -5.62 C-22.68 -5.46, -22.74 -5.3, -22.84 -5.01 M-22.84 -5.01 C-22.9 -4.84, -22.95 -4.67, -23.04 -4.39 M-22.84 -5.01 C-22.91 -4.8, -22.97 -4.6, -23.04 -4.39 M-23.04 -4.39 C-23.07 -4.24, -23.11 -4.09, -23.19 -3.76 M-23.04 -4.39 C-23.09 -4.19, -23.14 -3.99, -23.19 -3.76 M-23.19 -3.76 C-23.24 -3.51, -23.28 -3.26, -23.31 -3.12 M-23.19 -3.76 C-23.23 -3.57, -23.26 -3.37, -23.31 -3.12 M-23.31 -3.12 C-23.92 -3.12, -24.53 -3.12, -25.62 -3.12 M-23.31 -3.12 C-24.23 -3.12, -25.15 -3.12, -25.62 -3.12 M-25.62 -3.12 C-25.62 -1.91, -25.62 -0.69, -25.62 0 M-25.62 -3.12 C-25.62 -1.94, -25.62 -0.77, -25.62 0 M-25.62 0 C-24.81 0, -24 0, -23.31 0 M-25.62 0 C-25.06 0, -24.49 0, -23.31 0 M-23.31 0 C-23.31 0, -23.31 0, -23.31 0 M-23.31 0 C-23.31 0, -23.31 0, -23.31 0 M-23.31 0 C-23.28 0.14, -23.26 0.27, -23.24 0.42 M-23.31 0 C-23.28 0.16, -23.25 0.33, -23.24 0.42 M-23.24 0.42 C-23.21 0.54, -23.18 0.67, -23.15 0.83 M-23.24 0.42 C-23.2 0.57, -23.17 0.73, -23.15 0.83 M-23.15 0.83 C-23.11 0.97, -23.08 1.11, -23.05 1.24 M-23.15 0.83 C-23.12 0.94, -23.09 1.05, -23.05 1.24 M-23.05 1.24 C-23.01 1.36, -22.98 1.48, -22.93 1.64 M-23.05 1.24 C-23 1.39, -22.96 1.55, -22.93 1.64 M-22.93 1.64 C-22.88 1.8, -22.82 1.96, -22.8 2.04 M-22.93 1.64 C-22.89 1.76, -22.85 1.87, -22.8 2.04 M-22.8 2.04 C-22.74 2.18, -22.68 2.33, -22.65 2.43 M-22.8 2.04 C-22.76 2.14, -22.72 2.23, -22.65 2.43 M-22.65 2.43 C-22.61 2.51, -22.57 2.6, -22.48 2.82 M-22.65 2.43 C-22.59 2.57, -22.53 2.71, -22.48 2.82 M-22.48 2.82 C-22.41 2.95, -22.35 3.09, -22.3 3.19 M-22.48 2.82 C-22.44 2.91, -22.39 3, -22.3 3.19 M-22.3 3.19 C-22.23 3.33, -22.16 3.47, -22.1 3.57 M-22.3 3.19 C-22.23 3.33, -22.15 3.47, -22.1 3.57 M-22.1 3.57 C-22.04 3.68, -21.97 3.8, -21.89 3.93 M-22.1 3.57 C-22.04 3.68, -21.97 3.79, -21.89 3.93 M-21.89 3.93 C-21.82 4.05, -21.74 4.17, -21.67 4.29 M-21.89 3.93 C-21.82 4.04, -21.75 4.15, -21.67 4.29 M-21.67 4.29 C-21.58 4.42, -21.49 4.55, -21.43 4.64 M-21.67 4.29 C-21.59 4.39, -21.52 4.5, -21.43 4.64 M-21.43 4.64 C-21.35 4.73, -21.28 4.83, -21.17 4.98 M-21.43 4.64 C-21.34 4.75, -21.26 4.86, -21.17 4.98 M-21.17 4.98 C-21.11 5.06, -21.04 5.14, -20.9 5.31 M-21.17 4.98 C-21.08 5.08, -21 5.19, -20.9 5.31 M-20.9 5.31 C-20.83 5.39, -20.76 5.47, -20.62 5.63 M-20.9 5.31 C-20.81 5.4, -20.73 5.5, -20.62 5.63 M-20.62 5.63 C-20.52 5.73, -20.42 5.83, -20.32 5.94 M-20.62 5.63 C-20.55 5.7, -20.49 5.76, -20.32 5.94 M-20.32 5.94 C-20.2 6.05, -20.09 6.16, -20.01 6.24 M-20.32 5.94 C-20.23 6.02, -20.14 6.11, -20.01 6.24 M-20.01 6.24 C-19.94 6.3, -19.87 6.36, -19.69 6.52 M-20.01 6.24 C-19.92 6.31, -19.84 6.39, -19.69 6.52 M-19.69 6.52 C-19.59 6.6, -19.5 6.68, -19.36 6.8 M-19.69 6.52 C-19.55 6.63, -19.42 6.74, -19.36 6.8 M-19.36 6.8 C-19.22 6.89, -19.09 6.99, -19.02 7.05 M-19.36 6.8 C-19.26 6.87, -19.17 6.94, -19.02 7.05 M-19.02 7.05 C-18.93 7.11, -18.84 7.17, -18.67 7.29 M-19.02 7.05 C-18.88 7.14, -18.75 7.24, -18.67 7.29 M-18.67 7.29 C-18.56 7.36, -18.46 7.43, -18.31 7.52 M-18.67 7.29 C-18.55 7.37, -18.43 7.44, -18.31 7.52 M-18.31 7.52 C-18.2 7.59, -18.09 7.65, -17.95 7.73 M-18.31 7.52 C-18.22 7.57, -18.13 7.62, -17.95 7.73 M-17.95 7.73 C-17.84 7.79, -17.73 7.84, -17.57 7.93 M-17.95 7.73 C-17.87 7.77, -17.79 7.81, -17.57 7.93 M-17.57 7.93 C-17.46 7.98, -17.35 8.04, -17.19 8.11 M-17.57 7.93 C-17.42 8, -17.27 8.07, -17.19 8.11 M-17.19 8.11 C-17.08 8.16, -16.96 8.21, -16.81 8.27 M-17.19 8.11 C-17.06 8.17, -16.92 8.23, -16.81 8.27 M-16.81 8.27 C-16.72 8.31, -16.64 8.34, -16.42 8.42 M-16.81 8.27 C-16.68 8.32, -16.55 8.37, -16.42 8.42 M-16.42 8.42 C-16.28 8.47, -16.14 8.52, -16.02 8.56 M-16.42 8.42 C-16.28 8.47, -16.14 8.52, -16.02 8.56 M-16.02 8.56 C-15.91 8.59, -15.8 8.62, -15.61 8.68 M-16.02 8.56 C-15.89 8.6, -15.75 8.64, -15.61 8.68 M-15.61 8.68 C-15.52 8.7, -15.42 8.72, -15.2 8.78 M-15.61 8.68 C-15.45 8.72, -15.29 8.76, -15.2 8.78 M-15.2 8.78 C-15.11 8.8, -15.01 8.82, -14.79 8.87 M-15.2 8.78 C-15.05 8.81, -14.91 8.84, -14.79 8.87 M-14.79 8.87 C-14.69 8.88, -14.58 8.9, -14.37 8.94 M-14.79 8.87 C-14.69 8.88, -14.58 8.9, -14.37 8.94 M-14.37 8.94 C-14.37 9.62, -14.37 10.3, -14.37 11.25 M-14.37 8.94 C-14.37 9.84, -14.37 10.75, -14.37 11.25 M-14.37 11.25 C-13.55 11.25, -12.73 11.25, -11.25 11.25 M-14.37 11.25 C-13.39 11.25, -12.42 11.25, -11.25 11.25 M-11.25 11.25 C-11.25 10.36, -11.25 9.46, -11.25 8.94 M-11.25 11.25 C-11.25 10.62, -11.25 9.99, -11.25 8.94 M-11.25 8.94 C-11.25 8.94, -11.25 8.94, -11.25 8.94 M-11.25 8.94 C-11.25 8.94, -11.25 8.94, -11.25 8.94 M-11.25 8.94 C-11.07 8.9, -10.89 8.87, -10.61 8.82 M-11.25 8.94 C-11.1 8.91, -10.94 8.88, -10.61 8.82 M-10.61 8.82 C-10.39 8.77, -10.17 8.71, -9.97 8.67 M-10.61 8.82 C-10.46 8.78, -10.31 8.75, -9.97 8.67 M-9.97 8.67 C-9.81 8.61, -9.64 8.56, -9.35 8.47 M-9.97 8.67 C-9.83 8.62, -9.69 8.58, -9.35 8.47 M-9.35 8.47 C-9.11 8.38, -8.88 8.29, -8.75 8.24 M-9.35 8.47 C-9.13 8.39, -8.91 8.31, -8.75 8.24 M-8.75 8.24 C-8.57 8.16, -8.39 8.08, -8.15 7.98 M-8.75 8.24 C-8.54 8.15, -8.34 8.06, -8.15 7.98 M-8.15 7.98 C-8.04 7.92, -7.92 7.85, -7.58 7.68 M-8.15 7.98 C-8 7.9, -7.84 7.81, -7.58 7.68 M-7.58 7.68 C-7.44 7.59, -7.3 7.51, -7.02 7.34 M-7.58 7.68 C-7.47 7.61, -7.35 7.54, -7.02 7.34 M-7.02 7.34 C-6.87 7.23, -6.71 7.12, -6.49 6.96 M-7.02 7.34 C-6.9 7.25, -6.77 7.16, -6.49 6.96 M-6.49 6.96 C-6.12 7.33, -5.76 7.69, -4.85 8.6 M-6.49 6.96 C-6.16 7.29, -5.83 7.62, -4.85 8.6 M-4.85 8.6 C-4.09 7.84, -3.34 7.09, -2.64 6.39 M-4.85 8.6 C-4.01 7.75, -3.16 6.91, -2.64 6.39 M-2.64 6.39 C-3.09 5.95, -3.53 5.51, -4.28 4.76 M-2.64 6.39 C-3 6.03, -3.37 5.67, -4.28 4.76 M-4.28 4.76 C-4.28 4.76, -4.28 4.76, -4.28 4.76 M-4.28 4.76 C-4.28 4.76, -4.28 4.76, -4.28 4.76 M-4.28 4.76 C-4.18 4.61, -4.08 4.46, -3.9 4.21 M-4.28 4.76 C-4.16 4.57, -4.03 4.39, -3.9 4.21 M-3.9 4.21 C-3.82 4.08, -3.75 3.95, -3.56 3.65 M-3.9 4.21 C-3.78 4.01, -3.67 3.82, -3.56 3.65 M-3.56 3.65 C-3.49 3.5, -3.41 3.36, -3.26 3.07 M-3.56 3.65 C-3.47 3.47, -3.38 3.29, -3.26 3.07 M-3.26 3.07 C-3.19 2.9, -3.11 2.74, -2.99 2.47 M-3.26 3.07 C-3.18 2.88, -3.09 2.69, -2.99 2.47 M-2.99 2.47 C-2.94 2.32, -2.88 2.16, -2.77 1.87 M-2.99 2.47 C-2.93 2.3, -2.86 2.13, -2.77 1.87 M-2.77 1.87 C-2.71 1.67, -2.65 1.48, -2.58 1.25 M-2.77 1.87 C-2.7 1.64, -2.63 1.41, -2.58 1.25 M-2.58 1.25 C-2.54 1.07, -2.49 0.9, -2.43 0.63 M-2.58 1.25 C-2.53 1.05, -2.48 0.85, -2.43 0.63 M-2.43 0.63 C-2.4 0.46, -2.37 0.29, -2.32 -0.01 M-2.43 0.63 C-2.39 0.41, -2.35 0.2, -2.32 -0.01 M-2.32 -0.01 C-1.49 -0.01, -0.67 -0.01, 0 -0.01 M-2.32 -0.01 C-1.78 -0.01, -1.24 -0.01, 0 -0.01 M0 -0.01 C0 -0.01, 0 0, 0 0 M0 -0.01 C0 -0.01, 0 0, 0 0 M0 0 C0 0, 0 0, 0 0 M0 0 C0 0, 0 0, 0 0" stroke="#00000000" stroke-width="1" fill="none"></path></g></g><mask></mask><g stroke-linecap="round"><g transform="translate(40.421460965997085 47.14337730407715) rotate(0 0.0018262863159179688 -7.48858380317688)" fill-rule="evenodd"><path d="M0 0 L0 0 L0 0 L-0.37 -0.01 L-0.74 -0.04 L-1.11 -0.08 L-1.47 -0.14 L-1.83 -0.22 L-2.18 -0.32 L-2.53 -0.44 L-2.87 -0.57 L-3.2 -0.72 L-3.53 -0.88 L-3.85 -1.06 L-4.16 -1.26 L-4.46 -1.47 L-4.75 -1.7 L-5.03 -1.94 L-5.3 -2.2 L-5.55 -2.47 L-5.8 -2.75 L-6.03 -3.04 L-6.24 -3.34 L-6.43 -3.65 L-6.61 -3.97 L-6.78 -4.3 L-6.92 -4.63 L-7.05 -4.97 L-7.17 -5.31 L-7.27 -5.67 L-7.35 -6.02 L-7.41 -6.39 L-7.45 -6.75 L-7.48 -7.12 L-7.49 -7.5 L-7.48 -7.87 L-7.45 -8.24 L-7.41 -8.61 L-7.34 -8.97 L-7.26 -9.33 L-7.17 -9.68 L-7.05 -10.02 L-6.92 -10.36 L-6.77 -10.7 L-6.61 -11.02 L-6.43 -11.34 L-6.23 -11.65 L-6.02 -11.95 L-5.79 -12.24 L-5.55 -12.52 L-5.29 -12.79 L-5.01 -13.06 L-4.72 -13.31 L-4.42 -13.54 L-4.12 -13.75 L-3.8 -13.95 L-3.48 -14.13 L-3.15 -14.29 L-2.81 -14.43 L-2.47 -14.56 L-2.13 -14.67 L-1.78 -14.76 L-1.43 -14.84 L-1.07 -14.9 L-0.71 -14.94 L-0.35 -14.97 L0.01 -14.98 L0.37 -14.97 L0.73 -14.94 L1.08 -14.9 L1.44 -14.84 L1.79 -14.76 L2.14 -14.67 L2.49 -14.56 L2.83 -14.43 L3.16 -14.28 L3.49 -14.12 L3.82 -13.94 L4.13 -13.74 L4.44 -13.53 L4.74 -13.3 L5.02 -13.05 L5.3 -12.79 L5.57 -12.51 L5.82 -12.22 L6.05 -11.92 L6.26 -11.61 L6.46 -11.3 L6.64 -10.97 L6.8 -10.64 L6.95 -10.31 L7.07 -9.97 L7.19 -9.62 L7.28 -9.27 L7.36 -8.92 L7.42 -8.56 L7.46 -8.2 L7.48 -7.85 L7.49 -7.49 L7.48 -7.13 L7.46 -6.77 L7.41 -6.41 L7.35 -6.05 L7.28 -5.7 L7.18 -5.35 L7.07 -5.01 L6.94 -4.67 L6.8 -4.33 L6.63 -4 L6.45 -3.68 L6.26 -3.36 L6.04 -3.06 L5.81 -2.76 L5.56 -2.47 L5.3 -2.19 L5.03 -1.93 L4.74 -1.69 L4.45 -1.47 L4.15 -1.25 L3.84 -1.06 L3.52 -0.88 L3.2 -0.71 L2.86 -0.57 L2.52 -0.44 L2.18 -0.32 L1.83 -0.22 L1.47 -0.14 L1.11 -0.08 L0.74 -0.04 L0.37 -0.01 L0 0 L0 0" stroke="none" stroke-width="0" fill="#579bfb" fill-rule="evenodd"></path><path d="M0 0 C0 0, 0 0, 0 0 M0 0 C0 0, 0 0, 0 0 M0 0 C0 0, 0 0, 0 0 M0 0 C0 0, 0 0, 0 0 M0 0 C-0.08 0, -0.16 0, -0.37 -0.01 M0 0 C-0.13 0, -0.25 -0.01, -0.37 -0.01 M-0.37 -0.01 C-0.49 -0.02, -0.61 -0.03, -0.74 -0.04 M-0.37 -0.01 C-0.49 -0.02, -0.6 -0.03, -0.74 -0.04 M-0.74 -0.04 C-0.84 -0.05, -0.93 -0.06, -1.11 -0.08 M-0.74 -0.04 C-0.86 -0.05, -0.98 -0.06, -1.11 -0.08 M-1.11 -0.08 C-1.23 -0.1, -1.34 -0.12, -1.47 -0.14 M-1.11 -0.08 C-1.22 -0.1, -1.34 -0.12, -1.47 -0.14 M-1.47 -0.14 C-1.56 -0.16, -1.65 -0.18, -1.83 -0.22 M-1.47 -0.14 C-1.6 -0.17, -1.73 -0.2, -1.83 -0.22 M-1.83 -0.22 C-1.96 -0.26, -2.08 -0.29, -2.18 -0.32 M-1.83 -0.22 C-1.95 -0.26, -2.08 -0.29, -2.18 -0.32 M-2.18 -0.32 C-2.32 -0.37, -2.45 -0.41, -2.53 -0.44 M-2.18 -0.32 C-2.3 -0.36, -2.42 -0.4, -2.53 -0.44 M-2.53 -0.44 C-2.62 -0.47, -2.7 -0.5, -2.87 -0.57 M-2.53 -0.44 C-2.65 -0.48, -2.76 -0.53, -2.87 -0.57 M-2.87 -0.57 C-2.98 -0.62, -3.08 -0.66, -3.2 -0.72 M-2.87 -0.57 C-2.94 -0.6, -3.01 -0.63, -3.2 -0.72 M-3.2 -0.72 C-3.32 -0.77, -3.43 -0.83, -3.53 -0.88 M-3.2 -0.72 C-3.28 -0.76, -3.36 -0.79, -3.53 -0.88 M-3.53 -0.88 C-3.63 -0.94, -3.73 -1, -3.85 -1.06 M-3.53 -0.88 C-3.62 -0.93, -3.72 -0.99, -3.85 -1.06 M-3.85 -1.06 C-3.92 -1.11, -3.99 -1.15, -4.16 -1.26 M-3.85 -1.06 C-3.95 -1.13, -4.06 -1.19, -4.16 -1.26 M-4.16 -1.26 C-4.25 -1.32, -4.34 -1.39, -4.46 -1.47 M-4.16 -1.26 C-4.22 -1.3, -4.29 -1.35, -4.46 -1.47 M-4.46 -1.47 C-4.52 -1.52, -4.58 -1.57, -4.75 -1.7 M-4.46 -1.47 C-4.56 -1.55, -4.67 -1.64, -4.75 -1.7 M-4.75 -1.7 C-4.81 -1.75, -4.87 -1.81, -5.03 -1.94 M-4.75 -1.7 C-4.86 -1.79, -4.96 -1.89, -5.03 -1.94 M-5.03 -1.94 C-5.1 -2.01, -5.17 -2.08, -5.3 -2.2 M-5.03 -1.94 C-5.13 -2.04, -5.23 -2.14, -5.3 -2.2 M-5.3 -2.2 C-5.37 -2.28, -5.45 -2.36, -5.55 -2.47 M-5.3 -2.2 C-5.37 -2.28, -5.45 -2.36, -5.55 -2.47 M-5.55 -2.47 C-5.63 -2.55, -5.7 -2.64, -5.8 -2.75 M-5.55 -2.47 C-5.62 -2.55, -5.69 -2.63, -5.8 -2.75 M-5.8 -2.75 C-5.87 -2.84, -5.94 -2.93, -6.03 -3.04 M-5.8 -2.75 C-5.85 -2.82, -5.9 -2.88, -6.03 -3.04 M-6.03 -3.04 C-6.07 -3.11, -6.12 -3.18, -6.24 -3.34 M-6.03 -3.04 C-6.09 -3.13, -6.15 -3.22, -6.24 -3.34 M-6.24 -3.34 C-6.31 -3.46, -6.39 -3.58, -6.43 -3.65 M-6.24 -3.34 C-6.3 -3.45, -6.37 -3.55, -6.43 -3.65 M-6.43 -3.65 C-6.5 -3.77, -6.56 -3.88, -6.61 -3.97 M-6.43 -3.65 C-6.49 -3.75, -6.55 -3.85, -6.61 -3.97 M-6.61 -3.97 C-6.68 -4.1, -6.74 -4.22, -6.78 -4.3 M-6.61 -3.97 C-6.68 -4.09, -6.74 -4.22, -6.78 -4.3 M-6.78 -4.3 C-6.83 -4.43, -6.89 -4.56, -6.92 -4.63 M-6.78 -4.3 C-6.82 -4.4, -6.87 -4.51, -6.92 -4.63 M-6.92 -4.63 C-6.96 -4.73, -7.01 -4.84, -7.05 -4.97 M-6.92 -4.63 C-6.98 -4.76, -7.03 -4.9, -7.05 -4.97 M-7.05 -4.97 C-7.1 -5.1, -7.14 -5.24, -7.17 -5.31 M-7.05 -4.97 C-7.1 -5.1, -7.14 -5.23, -7.17 -5.31 M-7.17 -5.31 C-7.2 -5.42, -7.23 -5.53, -7.27 -5.67 M-7.17 -5.31 C-7.19 -5.39, -7.21 -5.46, -7.27 -5.67 M-7.27 -5.67 C-7.29 -5.75, -7.31 -5.84, -7.35 -6.02 M-7.27 -5.67 C-7.29 -5.75, -7.31 -5.84, -7.35 -6.02 M-7.35 -6.02 C-7.36 -6.11, -7.38 -6.2, -7.41 -6.39 M-7.35 -6.02 C-7.37 -6.14, -7.38 -6.25, -7.41 -6.39 M-7.41 -6.39 C-7.42 -6.46, -7.43 -6.54, -7.45 -6.75 M-7.41 -6.39 C-7.42 -6.51, -7.44 -6.64, -7.45 -6.75 M-7.45 -6.75 C-7.46 -6.88, -7.47 -7, -7.48 -7.12 M-7.45 -6.75 C-7.46 -6.83, -7.46 -6.92, -7.48 -7.12 M-7.48 -7.12 C-7.48 -7.25, -7.49 -7.37, -7.49 -7.5 M-7.48 -7.12 C-7.48 -7.21, -7.48 -7.3, -7.49 -7.5 M-7.49 -7.5 C-7.49 -7.63, -7.48 -7.76, -7.48 -7.87 M-7.49 -7.5 C-7.49 -7.61, -7.48 -7.72, -7.48 -7.87 M-7.48 -7.87 C-7.47 -7.96, -7.47 -8.06, -7.45 -8.24 M-7.48 -7.87 C-7.47 -7.98, -7.46 -8.08, -7.45 -8.24 M-7.45 -8.24 C-7.43 -8.38, -7.42 -8.52, -7.41 -8.61 M-7.45 -8.24 C-7.44 -8.36, -7.42 -8.48, -7.41 -8.61 M-7.41 -8.61 C-7.39 -8.68, -7.38 -8.75, -7.34 -8.97 M-7.41 -8.61 C-7.39 -8.69, -7.38 -8.77, -7.34 -8.97 M-7.34 -8.97 C-7.32 -9.06, -7.3 -9.15, -7.26 -9.33 M-7.34 -8.97 C-7.32 -9.1, -7.29 -9.22, -7.26 -9.33 M-7.26 -9.33 C-7.23 -9.46, -7.19 -9.6, -7.17 -9.68 M-7.26 -9.33 C-7.24 -9.4, -7.22 -9.48, -7.17 -9.68 M-7.17 -9.68 C-7.13 -9.8, -7.08 -9.92, -7.05 -10.02 M-7.17 -9.68 C-7.14 -9.75, -7.12 -9.82, -7.05 -10.02 M-7.05 -10.02 C-7.02 -10.1, -6.99 -10.18, -6.92 -10.36 M-7.05 -10.02 C-7.01 -10.14, -6.96 -10.26, -6.92 -10.36 M-6.92 -10.36 C-6.86 -10.49, -6.81 -10.62, -6.77 -10.7 M-6.92 -10.36 C-6.89 -10.44, -6.85 -10.51, -6.77 -10.7 M-6.77 -10.7 C-6.72 -10.8, -6.67 -10.9, -6.61 -11.02 M-6.77 -10.7 C-6.72 -10.81, -6.66 -10.92, -6.61 -11.02 M-6.61 -11.02 C-6.57 -11.09, -6.53 -11.16, -6.43 -11.34 M-6.61 -11.02 C-6.55 -11.12, -6.5 -11.22, -6.43 -11.34 M-6.43 -11.34 C-6.38 -11.41, -6.34 -11.48, -6.23 -11.65 M-6.43 -11.34 C-6.37 -11.43, -6.31 -11.52, -6.23 -11.65 M-6.23 -11.65 C-6.19 -11.71, -6.15 -11.77, -6.02 -11.95 M-6.23 -11.65 C-6.18 -11.73, -6.12 -11.8, -6.02 -11.95 M-6.02 -11.95 C-5.94 -12.05, -5.87 -12.14, -5.79 -12.24 M-6.02 -11.95 C-5.96 -12.03, -5.9 -12.1, -5.79 -12.24 M-5.79 -12.24 C-5.71 -12.33, -5.64 -12.42, -5.55 -12.52 M-5.79 -12.24 C-5.73 -12.31, -5.67 -12.38, -5.55 -12.52 M-5.55 -12.52 C-5.49 -12.58, -5.44 -12.64, -5.29 -12.79 M-5.55 -12.52 C-5.47 -12.61, -5.38 -12.69, -5.29 -12.79 M-5.29 -12.79 C-5.18 -12.9, -5.07 -13, -5.01 -13.06 M-5.29 -12.79 C-5.19 -12.89, -5.09 -12.98, -5.01 -13.06 M-5.01 -13.06 C-4.9 -13.16, -4.78 -13.25, -4.72 -13.31 M-5.01 -13.06 C-4.92 -13.14, -4.83 -13.22, -4.72 -13.31 M-4.72 -13.31 C-4.64 -13.37, -4.56 -13.43, -4.42 -13.54 M-4.72 -13.31 C-4.65 -13.36, -4.59 -13.41, -4.42 -13.54 M-4.42 -13.54 C-4.35 -13.59, -4.27 -13.64, -4.12 -13.75 M-4.42 -13.54 C-4.34 -13.6, -4.25 -13.65, -4.12 -13.75 M-4.12 -13.75 C-4.03 -13.8, -3.95 -13.85, -3.8 -13.95 M-4.12 -13.75 C-4.05 -13.79, -3.98 -13.83, -3.8 -13.95 M-3.8 -13.95 C-3.72 -13.99, -3.63 -14.04, -3.48 -14.13 M-3.8 -13.95 C-3.72 -13.99, -3.65 -14.03, -3.48 -14.13 M-3.48 -14.13 C-3.38 -14.17, -3.29 -14.22, -3.15 -14.29 M-3.48 -14.13 C-3.4 -14.16, -3.33 -14.2, -3.15 -14.29 M-3.15 -14.29 C-3.02 -14.35, -2.88 -14.4, -2.81 -14.43 M-3.15 -14.29 C-3.02 -14.34, -2.89 -14.4, -2.81 -14.43 M-2.81 -14.43 C-2.69 -14.48, -2.57 -14.52, -2.47 -14.56 M-2.81 -14.43 C-2.72 -14.47, -2.62 -14.51, -2.47 -14.56 M-2.47 -14.56 C-2.36 -14.6, -2.25 -14.63, -2.13 -14.67 M-2.47 -14.56 C-2.36 -14.6, -2.24 -14.64, -2.13 -14.67 M-2.13 -14.67 C-2.05 -14.69, -1.96 -14.72, -1.78 -14.76 M-2.13 -14.67 C-1.99 -14.71, -1.85 -14.74, -1.78 -14.76 M-1.78 -14.76 C-1.64 -14.79, -1.51 -14.82, -1.43 -14.84 M-1.78 -14.76 C-1.69 -14.78, -1.61 -14.8, -1.43 -14.84 M-1.43 -14.84 C-1.35 -14.85, -1.27 -14.87, -1.07 -14.9 M-1.43 -14.84 C-1.35 -14.85, -1.27 -14.87, -1.07 -14.9 M-1.07 -14.9 C-1 -14.91, -0.92 -14.92, -0.71 -14.94 M-1.07 -14.9 C-0.97 -14.91, -0.86 -14.93, -0.71 -14.94 M-0.71 -14.94 C-0.58 -14.95, -0.45 -14.96, -0.35 -14.97 M-0.71 -14.94 C-0.62 -14.95, -0.53 -14.96, -0.35 -14.97 M-0.35 -14.97 C-0.24 -14.97, -0.13 -14.97, 0.01 -14.98 M-0.35 -14.97 C-0.28 -14.97, -0.2 -14.97, 0.01 -14.98 M0.01 -14.98 C0.09 -14.98, 0.18 -14.97, 0.37 -14.97 M0.01 -14.98 C0.09 -14.98, 0.17 -14.97, 0.37 -14.97 M0.37 -14.97 C0.49 -14.96, 0.61 -14.95, 0.73 -14.94 M0.37 -14.97 C0.5 -14.96, 0.63 -14.95, 0.73 -14.94 M0.73 -14.94 C0.86 -14.93, 1 -14.91, 1.08 -14.9 M0.73 -14.94 C0.83 -14.93, 0.94 -14.92, 1.08 -14.9 M1.08 -14.9 C1.21 -14.88, 1.34 -14.86, 1.44 -14.84 M1.08 -14.9 C1.17 -14.89, 1.25 -14.87, 1.44 -14.84 M1.44 -14.84 C1.52 -14.82, 1.6 -14.8, 1.79 -14.76 M1.44 -14.84 C1.54 -14.82, 1.64 -14.8, 1.79 -14.76 M1.79 -14.76 C1.93 -14.73, 2.07 -14.69, 2.14 -14.67 M1.79 -14.76 C1.92 -14.73, 2.05 -14.69, 2.14 -14.67 M2.14 -14.67 C2.22 -14.65, 2.29 -14.62, 2.49 -14.56 M2.14 -14.67 C2.22 -14.65, 2.29 -14.62, 2.49 -14.56 M2.49 -14.56 C2.59 -14.52, 2.69 -14.48, 2.83 -14.43 M2.49 -14.56 C2.57 -14.53, 2.65 -14.5, 2.83 -14.43 M2.83 -14.43 C2.91 -14.4, 2.98 -14.36, 3.16 -14.28 M2.83 -14.43 C2.95 -14.38, 3.07 -14.32, 3.16 -14.28 M3.16 -14.28 C3.25 -14.24, 3.33 -14.2, 3.49 -14.12 M3.16 -14.28 C3.27 -14.23, 3.38 -14.18, 3.49 -14.12 M3.49 -14.12 C3.62 -14.05, 3.75 -13.98, 3.82 -13.94 M3.49 -14.12 C3.57 -14.08, 3.65 -14.03, 3.82 -13.94 M3.82 -13.94 C3.91 -13.88, 4.01 -13.82, 4.13 -13.74 M3.82 -13.94 C3.91 -13.88, 4.01 -13.82, 4.13 -13.74 M4.13 -13.74 C4.22 -13.68, 4.31 -13.62, 4.44 -13.53 M4.13 -13.74 C4.19 -13.7, 4.26 -13.66, 4.44 -13.53 M4.44 -13.53 C4.51 -13.47, 4.58 -13.42, 4.74 -13.3 M4.44 -13.53 C4.5 -13.48, 4.57 -13.43, 4.74 -13.3 M4.74 -13.3 C4.82 -13.22, 4.91 -13.15, 5.02 -13.05 M4.74 -13.3 C4.8 -13.25, 4.86 -13.19, 5.02 -13.05 M5.02 -13.05 C5.1 -12.98, 5.17 -12.91, 5.3 -12.79 M5.02 -13.05 C5.11 -12.97, 5.2 -12.89, 5.3 -12.79 M5.3 -12.79 C5.38 -12.7, 5.46 -12.62, 5.57 -12.51 M5.3 -12.79 C5.39 -12.7, 5.47 -12.61, 5.57 -12.51 M5.57 -12.51 C5.64 -12.42, 5.72 -12.33, 5.82 -12.22 M5.57 -12.51 C5.62 -12.45, 5.67 -12.39, 5.82 -12.22 M5.82 -12.22 C5.9 -12.11, 5.98 -12.01, 6.05 -11.92 M5.82 -12.22 C5.89 -12.12, 5.97 -12.02, 6.05 -11.92 M6.05 -11.92 C6.13 -11.8, 6.21 -11.69, 6.26 -11.61 M6.05 -11.92 C6.11 -11.83, 6.17 -11.74, 6.26 -11.61 M6.26 -11.61 C6.34 -11.49, 6.41 -11.38, 6.46 -11.3 M6.26 -11.61 C6.34 -11.49, 6.41 -11.38, 6.46 -11.3 M6.46 -11.3 C6.53 -11.17, 6.6 -11.04, 6.64 -10.97 M6.46 -11.3 C6.53 -11.17, 6.6 -11.04, 6.64 -10.97 M6.64 -10.97 C6.69 -10.87, 6.74 -10.76, 6.8 -10.64 M6.64 -10.97 C6.7 -10.86, 6.75 -10.74, 6.8 -10.64 M6.8 -10.64 C6.85 -10.53, 6.9 -10.42, 6.95 -10.31 M6.8 -10.64 C6.84 -10.55, 6.88 -10.46, 6.95 -10.31 M6.95 -10.31 C6.98 -10.23, 7.01 -10.15, 7.07 -9.97 M6.95 -10.31 C6.98 -10.22, 7.01 -10.13, 7.07 -9.97 M7.07 -9.97 C7.11 -9.86, 7.14 -9.75, 7.19 -9.62 M7.07 -9.97 C7.11 -9.86, 7.15 -9.75, 7.19 -9.62 M7.19 -9.62 C7.21 -9.51, 7.24 -9.41, 7.28 -9.27 M7.19 -9.62 C7.21 -9.53, 7.23 -9.45, 7.28 -9.27 M7.28 -9.27 C7.3 -9.18, 7.32 -9.09, 7.36 -8.92 M7.28 -9.27 C7.3 -9.18, 7.32 -9.09, 7.36 -8.92 M7.36 -8.92 C7.37 -8.83, 7.39 -8.75, 7.42 -8.56 M7.36 -8.92 C7.38 -8.78, 7.4 -8.64, 7.42 -8.56 M7.42 -8.56 C7.43 -8.47, 7.44 -8.38, 7.46 -8.2 M7.42 -8.56 C7.43 -8.47, 7.44 -8.39, 7.46 -8.2 M7.46 -8.2 C7.47 -8.08, 7.48 -7.96, 7.48 -7.85 M7.46 -8.2 C7.47 -8.09, 7.48 -7.97, 7.48 -7.85 M7.48 -7.85 C7.49 -7.75, 7.49 -7.66, 7.49 -7.49 M7.48 -7.85 C7.49 -7.7, 7.49 -7.56, 7.49 -7.49 M7.49 -7.49 C7.49 -7.34, 7.49 -7.2, 7.48 -7.13 M7.49 -7.49 C7.49 -7.34, 7.49 -7.2, 7.48 -7.13 M7.48 -7.13 C7.48 -7.02, 7.47 -6.92, 7.46 -6.77 M7.48 -7.13 C7.48 -7.04, 7.47 -6.96, 7.46 -6.77 M7.46 -6.77 C7.44 -6.64, 7.43 -6.52, 7.41 -6.41 M7.46 -6.77 C7.44 -6.66, 7.43 -6.55, 7.41 -6.41 M7.41 -6.41 C7.4 -6.31, 7.38 -6.21, 7.35 -6.05 M7.41 -6.41 C7.4 -6.33, 7.39 -6.24, 7.35 -6.05 M7.35 -6.05 C7.33 -5.95, 7.31 -5.85, 7.28 -5.7 M7.35 -6.05 C7.33 -5.96, 7.31 -5.87, 7.28 -5.7 M7.28 -5.7 C7.25 -5.61, 7.22 -5.51, 7.18 -5.35 M7.28 -5.7 C7.25 -5.59, 7.22 -5.48, 7.18 -5.35 M7.18 -5.35 C7.15 -5.27, 7.13 -5.18, 7.07 -5.01 M7.18 -5.35 C7.16 -5.27, 7.13 -5.18, 7.07 -5.01 M7.07 -5.01 C7.03 -4.89, 6.98 -4.78, 6.94 -4.67 M7.07 -5.01 C7.03 -4.9, 6.99 -4.8, 6.94 -4.67 M6.94 -4.67 C6.89 -4.54, 6.84 -4.42, 6.8 -4.33 M6.94 -4.67 C6.89 -4.55, 6.84 -4.44, 6.8 -4.33 M6.8 -4.33 C6.75 -4.23, 6.7 -4.14, 6.63 -4 M6.8 -4.33 C6.75 -4.24, 6.7 -4.14, 6.63 -4 M6.63 -4 C6.57 -3.88, 6.5 -3.76, 6.45 -3.68 M6.63 -4 C6.56 -3.87, 6.49 -3.75, 6.45 -3.68 M6.45 -3.68 C6.41 -3.62, 6.37 -3.55, 6.26 -3.36 M6.45 -3.68 C6.4 -3.59, 6.34 -3.5, 6.26 -3.36 M6.26 -3.36 C6.2 -3.28, 6.14 -3.19, 6.04 -3.06 M6.26 -3.36 C6.18 -3.25, 6.1 -3.14, 6.04 -3.06 M6.04 -3.06 C5.98 -2.98, 5.92 -2.9, 5.81 -2.76 M6.04 -3.06 C5.96 -2.95, 5.88 -2.85, 5.81 -2.76 M5.81 -2.76 C5.74 -2.67, 5.66 -2.59, 5.56 -2.47 M5.81 -2.76 C5.71 -2.65, 5.62 -2.54, 5.56 -2.47 M5.56 -2.47 C5.48 -2.38, 5.4 -2.3, 5.3 -2.19 M5.56 -2.47 C5.5 -2.4, 5.43 -2.33, 5.3 -2.19 M5.3 -2.19 C5.21 -2.11, 5.12 -2.03, 5.03 -1.93 M5.3 -2.19 C5.22 -2.12, 5.15 -2.05, 5.03 -1.93 M5.03 -1.93 C4.93 -1.86, 4.84 -1.78, 4.74 -1.69 M5.03 -1.93 C4.96 -1.88, 4.89 -1.82, 4.74 -1.69 M4.74 -1.69 C4.68 -1.64, 4.61 -1.59, 4.45 -1.47 M4.74 -1.69 C4.68 -1.64, 4.62 -1.59, 4.45 -1.47 M4.45 -1.47 C4.36 -1.4, 4.26 -1.33, 4.15 -1.25 M4.45 -1.47 C4.38 -1.41, 4.3 -1.36, 4.15 -1.25 M4.15 -1.25 C4.03 -1.18, 3.91 -1.1, 3.84 -1.06 M4.15 -1.25 C4.05 -1.19, 3.95 -1.13, 3.84 -1.06 M3.84 -1.06 C3.76 -1.01, 3.68 -0.97, 3.52 -0.88 M3.84 -1.06 C3.75 -1.01, 3.66 -0.95, 3.52 -0.88 M3.52 -0.88 C3.4 -0.82, 3.27 -0.75, 3.2 -0.71 M3.52 -0.88 C3.44 -0.84, 3.35 -0.79, 3.2 -0.71 M3.2 -0.71 C3.1 -0.67, 2.99 -0.62, 2.86 -0.57 M3.2 -0.71 C3.1 -0.67, 3 -0.63, 2.86 -0.57 M2.86 -0.57 C2.78 -0.54, 2.7 -0.5, 2.52 -0.44 M2.86 -0.57 C2.73 -0.52, 2.6 -0.46, 2.52 -0.44 M2.52 -0.44 C2.45 -0.41, 2.37 -0.39, 2.18 -0.32 M2.52 -0.44 C2.45 -0.41, 2.37 -0.39, 2.18 -0.32 M2.18 -0.32 C2.1 -0.3, 2.03 -0.28, 1.83 -0.22 M2.18 -0.32 C2.08 -0.3, 1.99 -0.27, 1.83 -0.22 M1.83 -0.22 C1.69 -0.19, 1.56 -0.16, 1.47 -0.14 M1.83 -0.22 C1.69 -0.19, 1.55 -0.16, 1.47 -0.14 M1.47 -0.14 C1.39 -0.13, 1.31 -0.12, 1.11 -0.08 M1.47 -0.14 C1.35 -0.12, 1.24 -0.1, 1.11 -0.08 M1.11 -0.08 C1.01 -0.07, 0.92 -0.06, 0.74 -0.04 M1.11 -0.08 C1 -0.07, 0.88 -0.05, 0.74 -0.04 M0.74 -0.04 C0.6 -0.03, 0.46 -0.02, 0.37 -0.01 M0.74 -0.04 C0.61 -0.03, 0.47 -0.02, 0.37 -0.01 M0.37 -0.01 C0.28 -0.01, 0.19 0, 0 0 M0.37 -0.01 C0.27 -0.01, 0.17 0, 0 0 M0 0 C0 0, 0 0, 0 0 M0 0 C0 0, 0 0, 0 0 M0 0 C0 0, 0 0, 0 0 M0 0 C0 0, 0 0, 0 0" stroke="#00000000" stroke-width="1" fill="none"></path></g></g><mask></mask><g stroke-linecap="round"><g transform="translate(40.421460965997085 47.14337730407715) rotate(0 0.0018262863159179688 -7.48858380317688)" fill-rule="evenodd"><path d="M0 0 L0 0 L0 0 L-0.37 -0.01 L-0.74 -0.04 L-1.11 -0.08 L-1.47 -0.14 L-1.83 -0.22 L-2.18 -0.32 L-2.53 -0.44 L-2.87 -0.57 L-3.2 -0.72 L-3.53 -0.88 L-3.85 -1.06 L-4.16 -1.26 L-4.46 -1.47 L-4.75 -1.7 L-5.03 -1.94 L-5.3 -2.2 L-5.55 -2.47 L-5.8 -2.75 L-6.03 -3.04 L-6.24 -3.34 L-6.43 -3.65 L-6.61 -3.97 L-6.78 -4.3 L-6.92 -4.63 L-7.05 -4.97 L-7.17 -5.31 L-7.27 -5.67 L-7.35 -6.02 L-7.41 -6.39 L-7.45 -6.75 L-7.48 -7.12 L-7.49 -7.5 L-7.48 -7.87 L-7.45 -8.24 L-7.41 -8.61 L-7.34 -8.97 L-7.26 -9.33 L-7.17 -9.68 L-7.05 -10.02 L-6.92 -10.36 L-6.77 -10.7 L-6.61 -11.02 L-6.43 -11.34 L-6.23 -11.65 L-6.02 -11.95 L-5.79 -12.24 L-5.55 -12.52 L-5.29 -12.79 L-5.01 -13.06 L-4.72 -13.31 L-4.42 -13.54 L-4.12 -13.75 L-3.8 -13.95 L-3.48 -14.13 L-3.15 -14.29 L-2.81 -14.43 L-2.47 -14.56 L-2.13 -14.67 L-1.78 -14.76 L-1.43 -14.84 L-1.07 -14.9 L-0.71 -14.94 L-0.35 -14.97 L0.01 -14.98 L0.37 -14.97 L0.73 -14.94 L1.08 -14.9 L1.44 -14.84 L1.79 -14.76 L2.14 -14.67 L2.49 -14.56 L2.83 -14.43 L3.16 -14.28 L3.49 -14.12 L3.82 -13.94 L4.13 -13.74 L4.44 -13.53 L4.74 -13.3 L5.02 -13.05 L5.3 -12.79 L5.57 -12.51 L5.82 -12.22 L6.05 -11.92 L6.26 -11.61 L6.46 -11.3 L6.64 -10.97 L6.8 -10.64 L6.95 -10.31 L7.07 -9.97 L7.19 -9.62 L7.28 -9.27 L7.36 -8.92 L7.42 -8.56 L7.46 -8.2 L7.48 -7.85 L7.49 -7.49 L7.48 -7.13 L7.46 -6.77 L7.41 -6.41 L7.35 -6.05 L7.28 -5.7 L7.18 -5.35 L7.07 -5.01 L6.94 -4.67 L6.8 -4.33 L6.63 -4 L6.45 -3.68 L6.26 -3.36 L6.04 -3.06 L5.81 -2.76 L5.56 -2.47 L5.3 -2.19 L5.03 -1.93 L4.74 -1.69 L4.45 -1.47 L4.15 -1.25 L3.84 -1.06 L3.52 -0.88 L3.2 -0.71 L2.86 -0.57 L2.52 -0.44 L2.18 -0.32 L1.83 -0.22 L1.47 -0.14 L1.11 -0.08 L0.74 -0.04 L0.37 -0.01 L0 0 L0 0" stroke="none" stroke-width="0" fill="#fff" fill-rule="evenodd"></path><path d="M0 0 C0 0, 0 0, 0 0 M0 0 C0 0, 0 0, 0 0 M0 0 C0 0, 0 0, 0 0 M0 0 C0 0, 0 0, 0 0 M0 0 C-0.14 0, -0.29 -0.01, -0.37 -0.01 M0 0 C-0.08 0, -0.16 0, -0.37 -0.01 M-0.37 -0.01 C-0.47 -0.02, -0.57 -0.02, -0.74 -0.04 M-0.37 -0.01 C-0.51 -0.02, -0.65 -0.03, -0.74 -0.04 M-0.74 -0.04 C-0.82 -0.05, -0.9 -0.06, -1.11 -0.08 M-0.74 -0.04 C-0.83 -0.05, -0.92 -0.06, -1.11 -0.08 M-1.11 -0.08 C-1.22 -0.1, -1.33 -0.12, -1.47 -0.14 M-1.11 -0.08 C-1.25 -0.11, -1.4 -0.13, -1.47 -0.14 M-1.47 -0.14 C-1.61 -0.18, -1.75 -0.21, -1.83 -0.22 M-1.47 -0.14 C-1.6 -0.17, -1.72 -0.2, -1.83 -0.22 M-1.83 -0.22 C-1.97 -0.26, -2.1 -0.3, -2.18 -0.32 M-1.83 -0.22 C-1.92 -0.25, -2.02 -0.28, -2.18 -0.32 M-2.18 -0.32 C-2.3 -0.36, -2.41 -0.4, -2.53 -0.44 M-2.18 -0.32 C-2.26 -0.35, -2.33 -0.37, -2.53 -0.44 M-2.53 -0.44 C-2.65 -0.48, -2.76 -0.53, -2.87 -0.57 M-2.53 -0.44 C-2.66 -0.49, -2.78 -0.53, -2.87 -0.57 M-2.87 -0.57 C-2.94 -0.6, -3.01 -0.63, -3.2 -0.72 M-2.87 -0.57 C-3 -0.63, -3.14 -0.69, -3.2 -0.72 M-3.2 -0.72 C-3.29 -0.76, -3.38 -0.81, -3.53 -0.88 M-3.2 -0.72 C-3.29 -0.76, -3.38 -0.81, -3.53 -0.88 M-3.53 -0.88 C-3.61 -0.92, -3.68 -0.97, -3.85 -1.06 M-3.53 -0.88 C-3.61 -0.93, -3.69 -0.97, -3.85 -1.06 M-3.85 -1.06 C-3.93 -1.11, -4.02 -1.17, -4.16 -1.26 M-3.85 -1.06 C-3.95 -1.13, -4.06 -1.2, -4.16 -1.26 M-4.16 -1.26 C-4.27 -1.34, -4.38 -1.41, -4.46 -1.47 M-4.16 -1.26 C-4.22 -1.3, -4.29 -1.35, -4.46 -1.47 M-4.46 -1.47 C-4.55 -1.54, -4.64 -1.61, -4.75 -1.7 M-4.46 -1.47 C-4.54 -1.54, -4.63 -1.61, -4.75 -1.7 M-4.75 -1.7 C-4.85 -1.79, -4.96 -1.88, -5.03 -1.94 M-4.75 -1.7 C-4.83 -1.77, -4.92 -1.85, -5.03 -1.94 M-5.03 -1.94 C-5.12 -2.03, -5.21 -2.12, -5.3 -2.2 M-5.03 -1.94 C-5.11 -2.02, -5.2 -2.1, -5.3 -2.2 M-5.3 -2.2 C-5.39 -2.3, -5.49 -2.4, -5.55 -2.47 M-5.3 -2.2 C-5.36 -2.27, -5.43 -2.34, -5.55 -2.47 M-5.55 -2.47 C-5.61 -2.53, -5.66 -2.59, -5.8 -2.75 M-5.55 -2.47 C-5.62 -2.55, -5.69 -2.62, -5.8 -2.75 M-5.8 -2.75 C-5.87 -2.84, -5.94 -2.93, -6.03 -3.04 M-5.8 -2.75 C-5.88 -2.86, -5.96 -2.96, -6.03 -3.04 M-6.03 -3.04 C-6.1 -3.15, -6.18 -3.26, -6.24 -3.34 M-6.03 -3.04 C-6.09 -3.14, -6.16 -3.23, -6.24 -3.34 M-6.24 -3.34 C-6.29 -3.43, -6.34 -3.51, -6.43 -3.65 M-6.24 -3.34 C-6.28 -3.41, -6.32 -3.47, -6.43 -3.65 M-6.43 -3.65 C-6.49 -3.75, -6.54 -3.85, -6.61 -3.97 M-6.43 -3.65 C-6.49 -3.75, -6.54 -3.85, -6.61 -3.97 M-6.61 -3.97 C-6.68 -4.1, -6.74 -4.23, -6.78 -4.3 M-6.61 -3.97 C-6.68 -4.1, -6.74 -4.22, -6.78 -4.3 M-6.78 -4.3 C-6.83 -4.41, -6.88 -4.52, -6.92 -4.63 M-6.78 -4.3 C-6.83 -4.42, -6.89 -4.55, -6.92 -4.63 M-6.92 -4.63 C-6.97 -4.74, -7.01 -4.85, -7.05 -4.97 M-6.92 -4.63 C-6.97 -4.75, -7.02 -4.88, -7.05 -4.97 M-7.05 -4.97 C-7.09 -5.06, -7.12 -5.15, -7.17 -5.31 M-7.05 -4.97 C-7.1 -5.1, -7.14 -5.24, -7.17 -5.31 M-7.17 -5.31 C-7.2 -5.44, -7.24 -5.57, -7.27 -5.67 M-7.17 -5.31 C-7.19 -5.39, -7.21 -5.47, -7.27 -5.67 M-7.27 -5.67 C-7.29 -5.76, -7.31 -5.85, -7.35 -6.02 M-7.27 -5.67 C-7.28 -5.74, -7.3 -5.82, -7.35 -6.02 M-7.35 -6.02 C-7.37 -6.15, -7.39 -6.27, -7.41 -6.39 M-7.35 -6.02 C-7.36 -6.13, -7.38 -6.23, -7.41 -6.39 M-7.41 -6.39 C-7.42 -6.52, -7.44 -6.66, -7.45 -6.75 M-7.41 -6.39 C-7.42 -6.5, -7.43 -6.61, -7.45 -6.75 M-7.45 -6.75 C-7.46 -6.87, -7.47 -6.99, -7.48 -7.12 M-7.45 -6.75 C-7.46 -6.86, -7.47 -6.98, -7.48 -7.12 M-7.48 -7.12 C-7.48 -7.22, -7.48 -7.31, -7.49 -7.5 M-7.48 -7.12 C-7.48 -7.24, -7.49 -7.36, -7.49 -7.5 M-7.49 -7.5 C-7.49 -7.62, -7.48 -7.74, -7.48 -7.87 M-7.49 -7.5 C-7.49 -7.61, -7.48 -7.73, -7.48 -7.87 M-7.48 -7.87 C-7.47 -7.96, -7.47 -8.05, -7.45 -8.24 M-7.48 -7.87 C-7.47 -7.97, -7.47 -8.06, -7.45 -8.24 M-7.45 -8.24 C-7.44 -8.37, -7.42 -8.51, -7.41 -8.61 M-7.45 -8.24 C-7.44 -8.35, -7.42 -8.47, -7.41 -8.61 M-7.41 -8.61 C-7.39 -8.7, -7.37 -8.79, -7.34 -8.97 M-7.41 -8.61 C-7.38 -8.75, -7.36 -8.9, -7.34 -8.97 M-7.34 -8.97 C-7.33 -9.05, -7.31 -9.13, -7.26 -9.33 M-7.34 -8.97 C-7.33 -9.05, -7.31 -9.13, -7.26 -9.33 M-7.26 -9.33 C-7.23 -9.43, -7.21 -9.54, -7.17 -9.68 M-7.26 -9.33 C-7.23 -9.44, -7.2 -9.54, -7.17 -9.68 M-7.17 -9.68 C-7.13 -9.79, -7.09 -9.9, -7.05 -10.02 M-7.17 -9.68 C-7.13 -9.8, -7.09 -9.91, -7.05 -10.02 M-7.05 -10.02 C-7 -10.15, -6.96 -10.27, -6.92 -10.36 M-7.05 -10.02 C-7.02 -10.1, -6.99 -10.18, -6.92 -10.36 M-6.92 -10.36 C-6.89 -10.43, -6.86 -10.5, -6.77 -10.7 M-6.92 -10.36 C-6.88 -10.45, -6.85 -10.53, -6.77 -10.7 M-6.77 -10.7 C-6.72 -10.8, -6.66 -10.91, -6.61 -11.02 M-6.77 -10.7 C-6.72 -10.8, -6.67 -10.9, -6.61 -11.02 M-6.61 -11.02 C-6.56 -11.1, -6.52 -11.18, -6.43 -11.34 M-6.61 -11.02 C-6.55 -11.12, -6.49 -11.22, -6.43 -11.34 M-6.43 -11.34 C-6.38 -11.42, -6.33 -11.5, -6.23 -11.65 M-6.43 -11.34 C-6.35 -11.46, -6.28 -11.57, -6.23 -11.65 M-6.23 -11.65 C-6.15 -11.76, -6.07 -11.87, -6.02 -11.95 M-6.23 -11.65 C-6.19 -11.71, -6.14 -11.77, -6.02 -11.95 M-6.02 -11.95 C-5.95 -12.04, -5.88 -12.12, -5.79 -12.24 M-6.02 -11.95 C-5.94 -12.05, -5.85 -12.16, -5.79 -12.24 M-5.79 -12.24 C-5.71 -12.34, -5.63 -12.43, -5.55 -12.52 M-5.79 -12.24 C-5.7 -12.35, -5.61 -12.45, -5.55 -12.52 M-5.55 -12.52 C-5.45 -12.63, -5.35 -12.73, -5.29 -12.79 M-5.55 -12.52 C-5.48 -12.59, -5.42 -12.66, -5.29 -12.79 M-5.29 -12.79 C-5.23 -12.85, -5.16 -12.91, -5.01 -13.06 M-5.29 -12.79 C-5.19 -12.89, -5.08 -12.99, -5.01 -13.06 M-5.01 -13.06 C-4.91 -13.14, -4.81 -13.23, -4.72 -13.31 M-5.01 -13.06 C-4.9 -13.15, -4.8 -13.24, -4.72 -13.31 M-4.72 -13.31 C-4.61 -13.39, -4.5 -13.48, -4.42 -13.54 M-4.72 -13.31 C-4.63 -13.38, -4.54 -13.45, -4.42 -13.54 M-4.42 -13.54 C-4.31 -13.62, -4.2 -13.69, -4.12 -13.75 M-4.42 -13.54 C-4.34 -13.6, -4.25 -13.66, -4.12 -13.75 M-4.12 -13.75 C-4.04 -13.8, -3.97 -13.84, -3.8 -13.95 M-4.12 -13.75 C-4.05 -13.79, -3.98 -13.83, -3.8 -13.95 M-3.8 -13.95 C-3.68 -14.01, -3.57 -14.08, -3.48 -14.13 M-3.8 -13.95 C-3.71 -14, -3.62 -14.05, -3.48 -14.13 M-3.48 -14.13 C-3.38 -14.18, -3.27 -14.23, -3.15 -14.29 M-3.48 -14.13 C-3.38 -14.17, -3.29 -14.22, -3.15 -14.29 M-3.15 -14.29 C-3.08 -14.32, -3.01 -14.35, -2.81 -14.43 M-3.15 -14.29 C-3.04 -14.33, -2.94 -14.38, -2.81 -14.43 M-2.81 -14.43 C-2.73 -14.46, -2.65 -14.49, -2.47 -14.56 M-2.81 -14.43 C-2.73 -14.46, -2.65 -14.49, -2.47 -14.56 M-2.47 -14.56 C-2.38 -14.59, -2.3 -14.62, -2.13 -14.67 M-2.47 -14.56 C-2.39 -14.59, -2.3 -14.62, -2.13 -14.67 M-2.13 -14.67 C-2.03 -14.7, -1.93 -14.72, -1.78 -14.76 M-2.13 -14.67 C-2 -14.7, -1.88 -14.74, -1.78 -14.76 M-1.78 -14.76 C-1.68 -14.79, -1.59 -14.81, -1.43 -14.84 M-1.78 -14.76 C-1.7 -14.78, -1.62 -14.8, -1.43 -14.84 M-1.43 -14.84 C-1.34 -14.86, -1.25 -14.87, -1.07 -14.9 M-1.43 -14.84 C-1.35 -14.85, -1.28 -14.87, -1.07 -14.9 M-1.07 -14.9 C-0.97 -14.91, -0.87 -14.93, -0.71 -14.94 M-1.07 -14.9 C-0.97 -14.91, -0.86 -14.93, -0.71 -14.94 M-0.71 -14.94 C-0.57 -14.95, -0.43 -14.96, -0.35 -14.97 M-0.71 -14.94 C-0.59 -14.95, -0.46 -14.96, -0.35 -14.97 M-0.35 -14.97 C-0.24 -14.97, -0.12 -14.97, 0.01 -14.98 M-0.35 -14.97 C-0.23 -14.97, -0.11 -14.97, 0.01 -14.98 M0.01 -14.98 C0.11 -14.97, 0.21 -14.97, 0.37 -14.97 M0.01 -14.98 C0.1 -14.98, 0.19 -14.97, 0.37 -14.97 M0.37 -14.97 C0.47 -14.96, 0.57 -14.95, 0.73 -14.94 M0.37 -14.97 C0.51 -14.96, 0.65 -14.95, 0.73 -14.94 M0.73 -14.94 C0.84 -14.93, 0.96 -14.92, 1.08 -14.9 M0.73 -14.94 C0.85 -14.93, 0.97 -14.91, 1.08 -14.9 M1.08 -14.9 C1.18 -14.88, 1.28 -14.87, 1.44 -14.84 M1.08 -14.9 C1.21 -14.88, 1.34 -14.86, 1.44 -14.84 M1.44 -14.84 C1.54 -14.82, 1.64 -14.8, 1.79 -14.76 M1.44 -14.84 C1.57 -14.81, 1.7 -14.78, 1.79 -14.76 M1.79 -14.76 C1.89 -14.74, 1.98 -14.71, 2.14 -14.67 M1.79 -14.76 C1.87 -14.74, 1.95 -14.72, 2.14 -14.67 M2.14 -14.67 C2.26 -14.63, 2.37 -14.6, 2.49 -14.56 M2.14 -14.67 C2.22 -14.64, 2.31 -14.62, 2.49 -14.56 M2.49 -14.56 C2.57 -14.53, 2.65 -14.5, 2.83 -14.43 M2.49 -14.56 C2.57 -14.53, 2.66 -14.49, 2.83 -14.43 M2.83 -14.43 C2.96 -14.37, 3.1 -14.31, 3.16 -14.28 M2.83 -14.43 C2.95 -14.38, 3.07 -14.32, 3.16 -14.28 M3.16 -14.28 C3.24 -14.25, 3.31 -14.21, 3.49 -14.12 M3.16 -14.28 C3.24 -14.25, 3.31 -14.21, 3.49 -14.12 M3.49 -14.12 C3.57 -14.08, 3.65 -14.03, 3.82 -13.94 M3.49 -14.12 C3.61 -14.06, 3.72 -13.99, 3.82 -13.94 M3.82 -13.94 C3.9 -13.89, 3.99 -13.83, 4.13 -13.74 M3.82 -13.94 C3.94 -13.86, 4.06 -13.79, 4.13 -13.74 M4.13 -13.74 C4.24 -13.67, 4.35 -13.59, 4.44 -13.53 M4.13 -13.74 C4.22 -13.68, 4.3 -13.62, 4.44 -13.53 M4.44 -13.53 C4.53 -13.46, 4.63 -13.38, 4.74 -13.3 M4.44 -13.53 C4.53 -13.46, 4.62 -13.39, 4.74 -13.3 M4.74 -13.3 C4.81 -13.23, 4.89 -13.16, 5.02 -13.05 M4.74 -13.3 C4.8 -13.24, 4.87 -13.18, 5.02 -13.05 M5.02 -13.05 C5.09 -12.98, 5.16 -12.92, 5.3 -12.79 M5.02 -13.05 C5.13 -12.95, 5.24 -12.85, 5.3 -12.79 M5.3 -12.79 C5.37 -12.71, 5.44 -12.64, 5.57 -12.51 M5.3 -12.79 C5.4 -12.68, 5.5 -12.58, 5.57 -12.51 M5.57 -12.51 C5.64 -12.43, 5.71 -12.35, 5.82 -12.22 M5.57 -12.51 C5.66 -12.4, 5.75 -12.29, 5.82 -12.22 M5.82 -12.22 C5.91 -12.1, 6 -11.98, 6.05 -11.92 M5.82 -12.22 C5.88 -12.14, 5.93 -12.07, 6.05 -11.92 M6.05 -11.92 C6.13 -11.8, 6.21 -11.69, 6.26 -11.61 M6.05 -11.92 C6.1 -11.84, 6.16 -11.76, 6.26 -11.61 M6.26 -11.61 C6.33 -11.5, 6.4 -11.39, 6.46 -11.3 M6.26 -11.61 C6.33 -11.51, 6.39 -11.41, 6.46 -11.3 M6.46 -11.3 C6.5 -11.22, 6.54 -11.15, 6.64 -10.97 M6.46 -11.3 C6.52 -11.18, 6.59 -11.06, 6.64 -10.97 M6.64 -10.97 C6.7 -10.85, 6.76 -10.73, 6.8 -10.64 M6.64 -10.97 C6.67 -10.9, 6.71 -10.84, 6.8 -10.64 M6.8 -10.64 C6.84 -10.56, 6.88 -10.47, 6.95 -10.31 M6.8 -10.64 C6.84 -10.56, 6.88 -10.47, 6.95 -10.31 M6.95 -10.31 C6.98 -10.21, 7.02 -10.11, 7.07 -9.97 M6.95 -10.31 C6.98 -10.23, 7.01 -10.15, 7.07 -9.97 M7.07 -9.97 C7.1 -9.89, 7.13 -9.81, 7.19 -9.62 M7.07 -9.97 C7.1 -9.88, 7.13 -9.8, 7.19 -9.62 M7.19 -9.62 C7.22 -9.51, 7.25 -9.39, 7.28 -9.27 M7.19 -9.62 C7.22 -9.51, 7.25 -9.4, 7.28 -9.27 M7.28 -9.27 C7.3 -9.18, 7.32 -9.08, 7.36 -8.92 M7.28 -9.27 C7.3 -9.17, 7.32 -9.08, 7.36 -8.92 M7.36 -8.92 C7.37 -8.82, 7.39 -8.71, 7.42 -8.56 M7.36 -8.92 C7.37 -8.83, 7.39 -8.74, 7.42 -8.56 M7.42 -8.56 C7.43 -8.43, 7.45 -8.29, 7.46 -8.2 M7.42 -8.56 C7.43 -8.48, 7.43 -8.41, 7.46 -8.2 M7.46 -8.2 C7.47 -8.07, 7.48 -7.94, 7.48 -7.85 M7.46 -8.2 C7.46 -8.12, 7.47 -8.03, 7.48 -7.85 M7.48 -7.85 C7.49 -7.72, 7.49 -7.59, 7.49 -7.49 M7.48 -7.85 C7.49 -7.77, 7.49 -7.7, 7.49 -7.49 M7.49 -7.49 C7.49 -7.36, 7.49 -7.24, 7.48 -7.13 M7.49 -7.49 C7.49 -7.36, 7.49 -7.24, 7.48 -7.13 M7.48 -7.13 C7.48 -7.02, 7.47 -6.92, 7.46 -6.77 M7.48 -7.13 C7.48 -7.02, 7.47 -6.92, 7.46 -6.77 M7.46 -6.77 C7.44 -6.63, 7.42 -6.49, 7.41 -6.41 M7.46 -6.77 C7.45 -6.68, 7.44 -6.6, 7.41 -6.41 M7.41 -6.41 C7.4 -6.32, 7.38 -6.23, 7.35 -6.05 M7.41 -6.41 C7.39 -6.28, 7.37 -6.14, 7.35 -6.05 M7.35 -6.05 C7.34 -5.97, 7.32 -5.89, 7.28 -5.7 M7.35 -6.05 C7.33 -5.96, 7.31 -5.86, 7.28 -5.7 M7.28 -5.7 C7.24 -5.56, 7.2 -5.43, 7.18 -5.35 M7.28 -5.7 C7.25 -5.6, 7.22 -5.49, 7.18 -5.35 M7.18 -5.35 C7.16 -5.27, 7.13 -5.19, 7.07 -5.01 M7.18 -5.35 C7.16 -5.28, 7.14 -5.21, 7.07 -5.01 M7.07 -5.01 C7.04 -4.92, 7.01 -4.84, 6.94 -4.67 M7.07 -5.01 C7.03 -4.89, 6.98 -4.77, 6.94 -4.67 M6.94 -4.67 C6.9 -4.57, 6.86 -4.48, 6.8 -4.33 M6.94 -4.67 C6.9 -4.58, 6.87 -4.49, 6.8 -4.33 M6.8 -4.33 C6.75 -4.25, 6.71 -4.16, 6.63 -4 M6.8 -4.33 C6.74 -4.23, 6.69 -4.12, 6.63 -4 M6.63 -4 C6.57 -3.9, 6.52 -3.79, 6.45 -3.68 M6.63 -4 C6.58 -3.91, 6.54 -3.83, 6.45 -3.68 M6.45 -3.68 C6.41 -3.61, 6.36 -3.54, 6.26 -3.36 M6.45 -3.68 C6.4 -3.59, 6.34 -3.5, 6.26 -3.36 M6.26 -3.36 C6.21 -3.3, 6.16 -3.23, 6.04 -3.06 M6.26 -3.36 C6.18 -3.26, 6.11 -3.16, 6.04 -3.06 M6.04 -3.06 C5.98 -2.98, 5.92 -2.9, 5.81 -2.76 M6.04 -3.06 C5.99 -2.99, 5.93 -2.92, 5.81 -2.76 M5.81 -2.76 C5.74 -2.68, 5.67 -2.6, 5.56 -2.47 M5.81 -2.76 C5.72 -2.65, 5.62 -2.54, 5.56 -2.47 M5.56 -2.47 C5.5 -2.41, 5.44 -2.34, 5.3 -2.19 M5.56 -2.47 C5.51 -2.41, 5.45 -2.35, 5.3 -2.19 M5.3 -2.19 C5.2 -2.1, 5.11 -2.02, 5.03 -1.93 M5.3 -2.19 C5.2 -2.1, 5.09 -2, 5.03 -1.93 M5.03 -1.93 C4.93 -1.86, 4.84 -1.78, 4.74 -1.69 M5.03 -1.93 C4.92 -1.85, 4.82 -1.76, 4.74 -1.69 M4.74 -1.69 C4.66 -1.63, 4.58 -1.56, 4.45 -1.47 M4.74 -1.69 C4.66 -1.62, 4.57 -1.56, 4.45 -1.47 M4.45 -1.47 C4.36 -1.4, 4.28 -1.34, 4.15 -1.25 M4.45 -1.47 C4.35 -1.4, 4.25 -1.32, 4.15 -1.25 M4.15 -1.25 C4.05 -1.19, 3.96 -1.13, 3.84 -1.06 M4.15 -1.25 C4.08 -1.21, 4 -1.16, 3.84 -1.06 M3.84 -1.06 C3.72 -0.99, 3.6 -0.92, 3.52 -0.88 M3.84 -1.06 C3.76 -1.01, 3.68 -0.97, 3.52 -0.88 M3.52 -0.88 C3.43 -0.83, 3.34 -0.79, 3.2 -0.71 M3.52 -0.88 C3.45 -0.84, 3.37 -0.8, 3.2 -0.71 M3.2 -0.71 C3.13 -0.68, 3.06 -0.65, 2.86 -0.57 M3.2 -0.71 C3.09 -0.67, 2.98 -0.62, 2.86 -0.57 M2.86 -0.57 C2.74 -0.52, 2.61 -0.47, 2.52 -0.44 M2.86 -0.57 C2.78 -0.53, 2.69 -0.5, 2.52 -0.44 M2.52 -0.44 C2.42 -0.4, 2.32 -0.37, 2.18 -0.32 M2.52 -0.44 C2.43 -0.41, 2.34 -0.38, 2.18 -0.32 M2.18 -0.32 C2.1 -0.3, 2.03 -0.28, 1.83 -0.22 M2.18 -0.32 C2.1 -0.3, 2.03 -0.28, 1.83 -0.22 M1.83 -0.22 C1.7 -0.2, 1.58 -0.17, 1.47 -0.14 M1.83 -0.22 C1.74 -0.2, 1.65 -0.18, 1.47 -0.14 M1.47 -0.14 C1.34 -0.12, 1.21 -0.1, 1.11 -0.08 M1.47 -0.14 C1.34 -0.12, 1.22 -0.1, 1.11 -0.08 M1.11 -0.08 C0.98 -0.07, 0.86 -0.05, 0.74 -0.04 M1.11 -0.08 C0.97 -0.06, 0.83 -0.05, 0.74 -0.04 M0.74 -0.04 C0.6 -0.03, 0.46 -0.02, 0.37 -0.01 M0.74 -0.04 C0.64 -0.03, 0.55 -0.02, 0.37 -0.01 M0.37 -0.01 C0.27 -0.01, 0.18 0, 0 0 M0.37 -0.01 C0.29 -0.01, 0.21 -0.01, 0 0 M0 0 C0 0, 0 0, 0 0 M0 0 C0 0, 0 0, 0 0 M0 0 C0 0, 0 0, 0 0 M0 0 C0 0, 0 0, 0 0" stroke="#00000000" stroke-width="1" fill="none"></path></g></g><mask></mask><g stroke-linecap="round"><g transform="translate(38.719177106744155 43.93607139587402) rotate(0 1.6986303329467773 -3.9963459968566895)" fill-rule="evenodd"><path d="M0 0 L-3.32 -3.45 L-2.2 -4.53 L0.01 -2.24 L5.6 -7.99 L6.71 -6.9 L0 0" stroke="none" stroke-width="0" fill="#4283f2" fill-rule="evenodd"></path><path d="M0 0 C-0.76 -0.79, -1.53 -1.59, -3.32 -3.45 M0 0 C-0.9 -0.94, -1.8 -1.88, -3.32 -3.45 M-3.32 -3.45 C-2.9 -3.85, -2.49 -4.25, -2.2 -4.53 M-3.32 -3.45 C-2.92 -3.83, -2.52 -4.22, -2.2 -4.53 M-2.2 -4.53 C-1.37 -3.67, -0.53 -2.8, 0.01 -2.24 M-2.2 -4.53 C-1.63 -3.94, -1.07 -3.36, 0.01 -2.24 M0.01 -2.24 C1.49 -3.77, 2.97 -5.29, 5.6 -7.99 M0.01 -2.24 C1.66 -3.94, 3.31 -5.64, 5.6 -7.99 M5.6 -7.99 C5.86 -7.73, 6.13 -7.47, 6.71 -6.9 M5.6 -7.99 C5.88 -7.72, 6.15 -7.45, 6.71 -6.9 M6.71 -6.9 C5.05 -5.19, 3.38 -3.48, 0 0 M6.71 -6.9 C4.47 -4.59, 2.22 -2.28, 0 0 M0 0 C0 0, 0 0, 0 0 M0 0 C0 0, 0 0, 0 0" stroke="#00000000" stroke-width="1" fill="none"></path></g></g><mask></mask></svg>