<svg version="1.1" xmlns="http://www.w3.org/2000/svg" viewBox="0 0 89.95594822302996 110.21631641995191" width="89.95594822302996" height="110.21631641995191">
  <!-- svg-source:excalidraw -->
  
  <defs>
    
    
  </defs>
  <g stroke-linecap="round"><g transform="translate(6.829330791389339 46.643936683391985) rotate(0 38.49722500505118 -20.299927283977922)" fill-rule="evenodd"><path d="M0.98 -1.95 L18.63 -0.03 L19.4 -21.7 L75.49 -19.91 L77.24 -40.4 L-0.15 -40.92 L0.97 -0.94" stroke="none" stroke-width="0" fill="#aecbfa" fill-rule="evenodd"></path><path d="M0 0 C6.98 0.01, 12.13 0.27, 18 0.04 M0 0 C5.67 -0.39, 9.99 -0.71, 18 0.04 M18 0.04 C17.45 -3.12, 18.54 -7.65, 18.13 -22.58 M18 0.04 C18.65 -7.21, 17.65 -13.11, 18.13 -22.58 M18.13 -22.58 C33.18 -24.27, 51.24 -22.31, 77.13 -21.89 M18.13 -22.58 C33.86 -21.71, 49.85 -20.84, 77.13 -21.89 M77.13 -21.89 C75.97 -26.17, 78.1 -34.31, 76.45 -40.49 M77.13 -21.89 C76.59 -25.54, 76.12 -29.4, 76.45 -40.49 M76.45 -40.49 C49.01 -40.38, 24.77 -39.91, -0.13 -40.64 M76.45 -40.49 C46.29 -40.85, 15.84 -40.34, -0.13 -40.64 M-0.13 -40.64 C0.41 -31.52, 0.71 -20.87, 0 0 M-0.13 -40.64 C-0.57 -29.65, -0.98 -18.55, 0 0 M0 0 C0 0, 0 0, 0 0 M0 0 C0 0, 0 0, 0 0" stroke="#669df6" stroke-width="1" fill="none"></path></g></g><mask></mask><g stroke-linecap="round"><g transform="translate(6.7138848980032435 75.000859753839) rotate(0 38.345605258283854 -20.226045805832655)" fill-rule="evenodd"><path d="M-1.17 -1.91 L46.46 1.42 L46.97 -23.65 L75.66 -23.23 L77.76 -38.79 L29.06 -38.25 L29.72 -19.19 L-0.31 -18.63 L1.71 -0.96" stroke="none" stroke-width="0" fill="#669df6" fill-rule="evenodd"></path><path d="M0 0 C13.29 0.66, 28.07 -1.36, 48.36 0.03 M0 0 C19.17 -0.33, 39.45 0.41, 48.36 0.03 M48.36 0.03 C48.13 -9, 49.49 -14.41, 48.79 -22.44 M48.36 0.03 C49.48 -7.26, 48.13 -15.73, 48.79 -22.44 M48.79 -22.44 C52.84 -22.06, 60.19 -22.36, 76.93 -22.38 M48.79 -22.44 C56 -21.55, 65.01 -21.47, 76.93 -22.38 M76.93 -22.38 C75.51 -28.49, 75.69 -34.84, 76.46 -40.48 M76.93 -22.38 C76.1 -28.44, 76.39 -34.68, 76.46 -40.48 M76.46 -40.48 C59.74 -41.4, 48.76 -41.92, 28.59 -40.1 M76.46 -40.48 C64.63 -40.52, 52.31 -40.98, 28.59 -40.1 M28.59 -40.1 C30.55 -33.51, 30.18 -30.19, 28.92 -18.46 M28.59 -40.1 C29.53 -32.11, 28.96 -26.14, 28.92 -18.46 M28.92 -18.46 C17.35 -16.93, 6.71 -19.79, -0.24 -18.36 M28.92 -18.46 C21.63 -18.81, 15.8 -19.09, -0.24 -18.36 M-0.24 -18.36 C1.18 -11.69, -0.7 -5.51, 0 0 M-0.24 -18.36 C-0.9 -12.81, -0.35 -4.89, 0 0 M0 0 C0 0, 0 0, 0 0 M0 0 C0 0, 0 0, 0 0" stroke="#1864ab" stroke-width="1" fill="none"></path></g></g><mask></mask><g stroke-linecap="round"><g transform="translate(6.7084917053173285 102.96466643234726) rotate(180 38.49722500505118 -20.299927283977922)" fill-rule="evenodd"><path d="M-1.18 -0.31 L19.42 -0.13 L19.46 -21.02 L76.49 -20.81 L74.48 -41.34 L1.41 -40.56 L1.76 0.89" stroke="none" stroke-width="0" fill="#4285f4" fill-rule="evenodd"></path><path d="M0 0 C3.52 1.98, 8.4 -0.54, 18 0.04 M0 0 C4.9 -0.25, 9.88 0.81, 18 0.04 M18 0.04 C17 -7.27, 19.83 -18.67, 18.13 -22.58 M18 0.04 C18.84 -6.81, 17.33 -16.3, 18.13 -22.58 M18.13 -22.58 C32.15 -22.92, 47.57 -22.05, 77.13 -21.89 M18.13 -22.58 C33.77 -22.73, 49.71 -22.4, 77.13 -21.89 M77.13 -21.89 C78.69 -29.74, 76.6 -35.33, 76.45 -40.49 M77.13 -21.89 C76.66 -29.19, 75.81 -35.17, 76.45 -40.49 M76.45 -40.49 C53.53 -42.13, 32.89 -42.42, -0.13 -40.64 M76.45 -40.49 C60.57 -40.14, 44.64 -41.05, -0.13 -40.64 M-0.13 -40.64 C1.2 -27.87, 1.18 -15.66, 0 0 M-0.13 -40.64 C-0.03 -30.78, -0.19 -22.34, 0 0 M0 0 C0 0, 0 0, 0 0 M0 0 C0 0, 0 0, 0 0" stroke="#1864ab" stroke-width="1" fill="none"></path></g></g><mask></mask></svg>