<svg version="1.1" xmlns="http://www.w3.org/2000/svg" viewBox="0 0 172 84" width="172" height="84">
  <!-- svg-source:excalidraw -->
  
  <defs>
    
    
  </defs>
  <g stroke-linecap="round" transform="translate(6 6) rotate(0 80 36)"><path d="M18 0 C51.53 0, 85.06 0, 142 0 C154 0, 160 6, 160 18 C160 29.54, 160 41.08, 160 54 C160 66, 154 72, 142 72 C96.76 72, 51.52 72, 18 72 C6 72, 0 66, 0 54 C0 43.82, 0 33.65, 0 18 C0 6, 6 0, 18 0" stroke="none" stroke-width="0" fill="#FFF"></path><path d="M18 0 C61.49 0, 104.97 0, 142 0 M18 0 C51.09 0, 84.18 0, 142 0 M142 0 C154 0, 160 6, 160 18 M142 0 C154 0, 160 6, 160 18 M160 18 C160 31.87, 160 45.73, 160 54 M160 18 C160 28.1, 160 38.21, 160 54 M160 54 C160 66, 154 72, 142 72 M160 54 C160 66, 154 72, 142 72 M142 72 C96.58 72, 51.15 72, 18 72 M142 72 C104.72 72, 67.44 72, 18 72 M18 72 C6 72, 0 66, 0 54 M18 72 C6 72, 0 66, 0 54 M0 54 C0 45.6, 0 37.19, 0 18 M0 54 C0 42.46, 0 30.92, 0 18 M0 18 C0 6, 6 0, 18 0 M0 18 C0 6, 6 0, 18 0" stroke="#4285f4" stroke-width="2" fill="none"></path></g><g transform="translate(71 35) rotate(0 31.5 7)"><text x="0" y="0" font-family="Helvetica, Segoe UI Emoji" font-size="12px" fill="#000000" text-anchor="start" style="white-space: pre;" direction="ltr" dominant-baseline="text-before-edge">Datastream</text></g><g stroke-linecap="round" transform="translate(26.751234531402588 32.08086442947388) rotate(0 2.409876585006714 2.409876585006714)"><path d="M4.82 2.41 C4.82 2.55, 4.81 2.69, 4.78 2.83 C4.76 2.97, 4.72 3.1, 4.67 3.23 C4.63 3.37, 4.57 3.49, 4.5 3.61 C4.43 3.74, 4.35 3.85, 4.26 3.96 C4.17 4.07, 4.07 4.17, 3.96 4.26 C3.85 4.35, 3.74 4.43, 3.61 4.5 C3.49 4.57, 3.37 4.63, 3.23 4.67 C3.1 4.72, 2.97 4.76, 2.83 4.78 C2.69 4.81, 2.55 4.82, 2.41 4.82 C2.27 4.82, 2.13 4.81, 1.99 4.78 C1.85 4.76, 1.72 4.72, 1.59 4.67 C1.45 4.63, 1.33 4.57, 1.2 4.5 C1.08 4.43, 0.97 4.35, 0.86 4.26 C0.75 4.17, 0.65 4.07, 0.56 3.96 C0.47 3.85, 0.39 3.74, 0.32 3.61 C0.25 3.49, 0.19 3.37, 0.15 3.23 C0.1 3.1, 0.06 2.97, 0.04 2.83 C0.01 2.69, 0 2.55, 0 2.41 C0 2.27, 0.01 2.13, 0.04 1.99 C0.06 1.85, 0.1 1.72, 0.15 1.59 C0.19 1.45, 0.25 1.33, 0.32 1.2 C0.39 1.08, 0.47 0.97, 0.56 0.86 C0.65 0.75, 0.75 0.65, 0.86 0.56 C0.97 0.47, 1.08 0.39, 1.2 0.32 C1.33 0.25, 1.45 0.19, 1.59 0.15 C1.72 0.1, 1.85 0.06, 1.99 0.04 C2.13 0.01, 2.27 0, 2.41 0 C2.55 0, 2.69 0.01, 2.83 0.04 C2.97 0.06, 3.1 0.1, 3.23 0.15 C3.37 0.19, 3.49 0.25, 3.61 0.32 C3.74 0.39, 3.85 0.47, 3.96 0.56 C4.07 0.65, 4.17 0.75, 4.26 0.86 C4.35 0.97, 4.43 1.08, 4.5 1.2 C4.57 1.33, 4.63 1.45, 4.67 1.59 C4.72 1.72, 4.76 1.85, 4.78 1.99 C4.81 2.13, 4.81 2.34, 4.82 2.41 C4.83 2.48, 4.83 2.34, 4.82 2.41" stroke="none" stroke-width="0" fill="#185abc"></path><path d="M4.82 2.41 C4.82 2.55, 4.81 2.69, 4.78 2.83 C4.76 2.97, 4.72 3.1, 4.67 3.23 C4.63 3.37, 4.57 3.49, 4.5 3.61 C4.43 3.74, 4.35 3.85, 4.26 3.96 C4.17 4.07, 4.07 4.17, 3.96 4.26 C3.85 4.35, 3.74 4.43, 3.61 4.5 C3.49 4.57, 3.37 4.63, 3.23 4.67 C3.1 4.72, 2.97 4.76, 2.83 4.78 C2.69 4.81, 2.55 4.82, 2.41 4.82 C2.27 4.82, 2.13 4.81, 1.99 4.78 C1.85 4.76, 1.72 4.72, 1.59 4.67 C1.45 4.63, 1.33 4.57, 1.2 4.5 C1.08 4.43, 0.97 4.35, 0.86 4.26 C0.75 4.17, 0.65 4.07, 0.56 3.96 C0.47 3.85, 0.39 3.74, 0.32 3.61 C0.25 3.49, 0.19 3.37, 0.15 3.23 C0.1 3.1, 0.06 2.97, 0.04 2.83 C0.01 2.69, 0 2.55, 0 2.41 C0 2.27, 0.01 2.13, 0.04 1.99 C0.06 1.85, 0.1 1.72, 0.15 1.59 C0.19 1.45, 0.25 1.33, 0.32 1.2 C0.39 1.08, 0.47 0.97, 0.56 0.86 C0.65 0.75, 0.75 0.65, 0.86 0.56 C0.97 0.47, 1.08 0.39, 1.2 0.32 C1.33 0.25, 1.45 0.19, 1.59 0.15 C1.72 0.1, 1.85 0.06, 1.99 0.04 C2.13 0.01, 2.27 0, 2.41 0 C2.55 0, 2.69 0.01, 2.83 0.04 C2.97 0.06, 3.1 0.1, 3.23 0.15 C3.37 0.19, 3.49 0.25, 3.61 0.32 C3.74 0.39, 3.85 0.47, 3.96 0.56 C4.07 0.65, 4.17 0.75, 4.26 0.86 C4.35 0.97, 4.43 1.08, 4.5 1.2 C4.57 1.33, 4.63 1.45, 4.67 1.59 C4.72 1.72, 4.76 1.85, 4.78 1.99 C4.81 2.13, 4.81 2.34, 4.82 2.41 C4.83 2.48, 4.83 2.34, 4.82 2.41" stroke="transparent" stroke-width="1" fill="none"></path></g><g stroke-linecap="round" transform="translate(26.751234531402588 43.00432014465332) rotate(0 2.409876585006714 2.409876585006714)"><path d="M4.82 2.41 C4.82 2.55, 4.81 2.69, 4.78 2.83 C4.76 2.97, 4.72 3.1, 4.67 3.23 C4.63 3.37, 4.57 3.49, 4.5 3.61 C4.43 3.74, 4.35 3.85, 4.26 3.96 C4.17 4.07, 4.07 4.17, 3.96 4.26 C3.85 4.35, 3.74 4.43, 3.61 4.5 C3.49 4.57, 3.37 4.63, 3.23 4.67 C3.1 4.72, 2.97 4.76, 2.83 4.78 C2.69 4.81, 2.55 4.82, 2.41 4.82 C2.27 4.82, 2.13 4.81, 1.99 4.78 C1.85 4.76, 1.72 4.72, 1.59 4.67 C1.45 4.63, 1.33 4.57, 1.2 4.5 C1.08 4.43, 0.97 4.35, 0.86 4.26 C0.75 4.17, 0.65 4.07, 0.56 3.96 C0.47 3.85, 0.39 3.74, 0.32 3.61 C0.25 3.49, 0.19 3.37, 0.15 3.23 C0.1 3.1, 0.06 2.97, 0.04 2.83 C0.01 2.69, 0 2.55, 0 2.41 C0 2.27, 0.01 2.13, 0.04 1.99 C0.06 1.85, 0.1 1.72, 0.15 1.59 C0.19 1.45, 0.25 1.33, 0.32 1.2 C0.39 1.08, 0.47 0.97, 0.56 0.86 C0.65 0.75, 0.75 0.65, 0.86 0.56 C0.97 0.47, 1.08 0.39, 1.2 0.32 C1.33 0.25, 1.45 0.19, 1.59 0.15 C1.72 0.1, 1.85 0.06, 1.99 0.04 C2.13 0.01, 2.27 0, 2.41 0 C2.55 0, 2.69 0.01, 2.83 0.04 C2.97 0.06, 3.1 0.1, 3.23 0.15 C3.37 0.19, 3.49 0.25, 3.61 0.32 C3.74 0.39, 3.85 0.47, 3.96 0.56 C4.07 0.65, 4.17 0.75, 4.26 0.86 C4.35 0.97, 4.43 1.08, 4.5 1.2 C4.57 1.33, 4.63 1.45, 4.67 1.59 C4.72 1.72, 4.76 1.85, 4.78 1.99 C4.81 2.13, 4.81 2.34, 4.82 2.41 C4.83 2.48, 4.83 2.34, 4.82 2.41" stroke="none" stroke-width="0" fill="#185abc"></path><path d="M4.82 2.41 C4.82 2.55, 4.81 2.69, 4.78 2.83 C4.76 2.97, 4.72 3.1, 4.67 3.23 C4.63 3.37, 4.57 3.49, 4.5 3.61 C4.43 3.74, 4.35 3.85, 4.26 3.96 C4.17 4.07, 4.07 4.17, 3.96 4.26 C3.85 4.35, 3.74 4.43, 3.61 4.5 C3.49 4.57, 3.37 4.63, 3.23 4.67 C3.1 4.72, 2.97 4.76, 2.83 4.78 C2.69 4.81, 2.55 4.82, 2.41 4.82 C2.27 4.82, 2.13 4.81, 1.99 4.78 C1.85 4.76, 1.72 4.72, 1.59 4.67 C1.45 4.63, 1.33 4.57, 1.2 4.5 C1.08 4.43, 0.97 4.35, 0.86 4.26 C0.75 4.17, 0.65 4.07, 0.56 3.96 C0.47 3.85, 0.39 3.74, 0.32 3.61 C0.25 3.49, 0.19 3.37, 0.15 3.23 C0.1 3.1, 0.06 2.97, 0.04 2.83 C0.01 2.69, 0 2.55, 0 2.41 C0 2.27, 0.01 2.13, 0.04 1.99 C0.06 1.85, 0.1 1.72, 0.15 1.59 C0.19 1.45, 0.25 1.33, 0.32 1.2 C0.39 1.08, 0.47 0.97, 0.56 0.86 C0.65 0.75, 0.75 0.65, 0.86 0.56 C0.97 0.47, 1.08 0.39, 1.2 0.32 C1.33 0.25, 1.45 0.19, 1.59 0.15 C1.72 0.1, 1.85 0.06, 1.99 0.04 C2.13 0.01, 2.27 0, 2.41 0 C2.55 0, 2.69 0.01, 2.83 0.04 C2.97 0.06, 3.1 0.1, 3.23 0.15 C3.37 0.19, 3.49 0.25, 3.61 0.32 C3.74 0.39, 3.85 0.47, 3.96 0.56 C4.07 0.65, 4.17 0.75, 4.26 0.86 C4.35 0.97, 4.43 1.08, 4.5 1.2 C4.57 1.33, 4.63 1.45, 4.67 1.59 C4.72 1.72, 4.76 1.85, 4.78 1.99 C4.81 2.13, 4.81 2.34, 4.82 2.41 C4.83 2.48, 4.83 2.34, 4.82 2.41" stroke="transparent" stroke-width="1" fill="none"></path></g><g stroke-linecap="round" transform="translate(26.751234531402588 53.932716369628906) rotate(0 2.409876585006714 2.409876585006714)"><path d="M4.82 2.41 C4.82 2.55, 4.81 2.69, 4.78 2.83 C4.76 2.97, 4.72 3.1, 4.67 3.23 C4.63 3.37, 4.57 3.49, 4.5 3.61 C4.43 3.74, 4.35 3.85, 4.26 3.96 C4.17 4.07, 4.07 4.17, 3.96 4.26 C3.85 4.35, 3.74 4.43, 3.61 4.5 C3.49 4.57, 3.37 4.63, 3.23 4.67 C3.1 4.72, 2.97 4.76, 2.83 4.78 C2.69 4.81, 2.55 4.82, 2.41 4.82 C2.27 4.82, 2.13 4.81, 1.99 4.78 C1.85 4.76, 1.72 4.72, 1.59 4.67 C1.45 4.63, 1.33 4.57, 1.2 4.5 C1.08 4.43, 0.97 4.35, 0.86 4.26 C0.75 4.17, 0.65 4.07, 0.56 3.96 C0.47 3.85, 0.39 3.74, 0.32 3.61 C0.25 3.49, 0.19 3.37, 0.15 3.23 C0.1 3.1, 0.06 2.97, 0.04 2.83 C0.01 2.69, 0 2.55, 0 2.41 C0 2.27, 0.01 2.13, 0.04 1.99 C0.06 1.85, 0.1 1.72, 0.15 1.59 C0.19 1.45, 0.25 1.33, 0.32 1.2 C0.39 1.08, 0.47 0.97, 0.56 0.86 C0.65 0.75, 0.75 0.65, 0.86 0.56 C0.97 0.47, 1.08 0.39, 1.2 0.32 C1.33 0.25, 1.45 0.19, 1.59 0.15 C1.72 0.1, 1.85 0.06, 1.99 0.04 C2.13 0.01, 2.27 0, 2.41 0 C2.55 0, 2.69 0.01, 2.83 0.04 C2.97 0.06, 3.1 0.1, 3.23 0.15 C3.37 0.19, 3.49 0.25, 3.61 0.32 C3.74 0.39, 3.85 0.47, 3.96 0.56 C4.07 0.65, 4.17 0.75, 4.26 0.86 C4.35 0.97, 4.43 1.08, 4.5 1.2 C4.57 1.33, 4.63 1.45, 4.67 1.59 C4.72 1.72, 4.76 1.85, 4.78 1.99 C4.81 2.13, 4.81 2.34, 4.82 2.41 C4.83 2.48, 4.83 2.34, 4.82 2.41" stroke="none" stroke-width="0" fill="#185abc"></path><path d="M4.82 2.41 C4.82 2.55, 4.81 2.69, 4.78 2.83 C4.76 2.97, 4.72 3.1, 4.67 3.23 C4.63 3.37, 4.57 3.49, 4.5 3.61 C4.43 3.74, 4.35 3.85, 4.26 3.96 C4.17 4.07, 4.07 4.17, 3.96 4.26 C3.85 4.35, 3.74 4.43, 3.61 4.5 C3.49 4.57, 3.37 4.63, 3.23 4.67 C3.1 4.72, 2.97 4.76, 2.83 4.78 C2.69 4.81, 2.55 4.82, 2.41 4.82 C2.27 4.82, 2.13 4.81, 1.99 4.78 C1.85 4.76, 1.72 4.72, 1.59 4.67 C1.45 4.63, 1.33 4.57, 1.2 4.5 C1.08 4.43, 0.97 4.35, 0.86 4.26 C0.75 4.17, 0.65 4.07, 0.56 3.96 C0.47 3.85, 0.39 3.74, 0.32 3.61 C0.25 3.49, 0.19 3.37, 0.15 3.23 C0.1 3.1, 0.06 2.97, 0.04 2.83 C0.01 2.69, 0 2.55, 0 2.41 C0 2.27, 0.01 2.13, 0.04 1.99 C0.06 1.85, 0.1 1.72, 0.15 1.59 C0.19 1.45, 0.25 1.33, 0.32 1.2 C0.39 1.08, 0.47 0.97, 0.56 0.86 C0.65 0.75, 0.75 0.65, 0.86 0.56 C0.97 0.47, 1.08 0.39, 1.2 0.32 C1.33 0.25, 1.45 0.19, 1.59 0.15 C1.72 0.1, 1.85 0.06, 1.99 0.04 C2.13 0.01, 2.27 0, 2.41 0 C2.55 0, 2.69 0.01, 2.83 0.04 C2.97 0.06, 3.1 0.1, 3.23 0.15 C3.37 0.19, 3.49 0.25, 3.61 0.32 C3.74 0.39, 3.85 0.47, 3.96 0.56 C4.07 0.65, 4.17 0.75, 4.26 0.86 C4.35 0.97, 4.43 1.08, 4.5 1.2 C4.57 1.33, 4.63 1.45, 4.67 1.59 C4.72 1.72, 4.76 1.85, 4.78 1.99 C4.81 2.13, 4.81 2.34, 4.82 2.41 C4.83 2.48, 4.83 2.34, 4.82 2.41" stroke="transparent" stroke-width="1" fill="none"></path></g><g stroke-linecap="round" transform="translate(49.58086585998535 42.406789779663086) rotate(0 3.012345790863037 3.012345790863037)"><path d="M6.02 3.01 C6.02 3.19, 6.01 3.36, 5.98 3.54 C5.95 3.71, 5.9 3.88, 5.84 4.04 C5.78 4.21, 5.71 4.37, 5.62 4.52 C5.53 4.67, 5.43 4.82, 5.32 4.95 C5.21 5.08, 5.08 5.21, 4.95 5.32 C4.82 5.43, 4.67 5.53, 4.52 5.62 C4.37 5.71, 4.21 5.78, 4.04 5.84 C3.88 5.9, 3.71 5.95, 3.54 5.98 C3.36 6.01, 3.19 6.02, 3.01 6.02 C2.84 6.02, 2.66 6.01, 2.49 5.98 C2.32 5.95, 2.15 5.9, 1.98 5.84 C1.82 5.78, 1.66 5.71, 1.51 5.62 C1.36 5.53, 1.21 5.43, 1.08 5.32 C0.94 5.21, 0.82 5.08, 0.7 4.95 C0.59 4.82, 0.49 4.67, 0.4 4.52 C0.32 4.37, 0.24 4.21, 0.18 4.04 C0.12 3.88, 0.08 3.71, 0.05 3.54 C0.02 3.36, 0 3.19, 0 3.01 C0 2.84, 0.02 2.66, 0.05 2.49 C0.08 2.32, 0.12 2.15, 0.18 1.98 C0.24 1.82, 0.32 1.66, 0.4 1.51 C0.49 1.36, 0.59 1.21, 0.7 1.08 C0.82 0.94, 0.94 0.82, 1.08 0.7 C1.21 0.59, 1.36 0.49, 1.51 0.4 C1.66 0.32, 1.82 0.24, 1.98 0.18 C2.15 0.12, 2.32 0.08, 2.49 0.05 C2.66 0.02, 2.84 0, 3.01 0 C3.19 0, 3.36 0.02, 3.54 0.05 C3.71 0.08, 3.88 0.12, 4.04 0.18 C4.21 0.24, 4.37 0.32, 4.52 0.4 C4.67 0.49, 4.82 0.59, 4.95 0.7 C5.08 0.82, 5.21 0.94, 5.32 1.08 C5.43 1.21, 5.53 1.36, 5.62 1.51 C5.71 1.66, 5.78 1.82, 5.84 1.98 C5.9 2.15, 5.95 2.32, 5.98 2.49 C6.01 2.66, 6.02 2.93, 6.02 3.01 C6.03 3.1, 6.03 2.93, 6.02 3.01" stroke="none" stroke-width="0" fill="#185abc"></path><path d="M6.02 3.01 C6.02 3.19, 6.01 3.36, 5.98 3.54 C5.95 3.71, 5.9 3.88, 5.84 4.04 C5.78 4.21, 5.71 4.37, 5.62 4.52 C5.53 4.67, 5.43 4.82, 5.32 4.95 C5.21 5.08, 5.08 5.21, 4.95 5.32 C4.82 5.43, 4.67 5.53, 4.52 5.62 C4.37 5.71, 4.21 5.78, 4.04 5.84 C3.88 5.9, 3.71 5.95, 3.54 5.98 C3.36 6.01, 3.19 6.02, 3.01 6.02 C2.84 6.02, 2.66 6.01, 2.49 5.98 C2.32 5.95, 2.15 5.9, 1.98 5.84 C1.82 5.78, 1.66 5.71, 1.51 5.62 C1.36 5.53, 1.21 5.43, 1.08 5.32 C0.94 5.21, 0.82 5.08, 0.7 4.95 C0.59 4.82, 0.49 4.67, 0.4 4.52 C0.32 4.37, 0.24 4.21, 0.18 4.04 C0.12 3.88, 0.08 3.71, 0.05 3.54 C0.02 3.36, 0 3.19, 0 3.01 C0 2.84, 0.02 2.66, 0.05 2.49 C0.08 2.32, 0.12 2.15, 0.18 1.98 C0.24 1.82, 0.32 1.66, 0.4 1.51 C0.49 1.36, 0.59 1.21, 0.7 1.08 C0.82 0.94, 0.94 0.82, 1.08 0.7 C1.21 0.59, 1.36 0.49, 1.51 0.4 C1.66 0.32, 1.82 0.24, 1.98 0.18 C2.15 0.12, 2.32 0.08, 2.49 0.05 C2.66 0.02, 2.84 0, 3.01 0 C3.19 0, 3.36 0.02, 3.54 0.05 C3.71 0.08, 3.88 0.12, 4.04 0.18 C4.21 0.24, 4.37 0.32, 4.52 0.4 C4.67 0.49, 4.82 0.59, 4.95 0.7 C5.08 0.82, 5.21 0.94, 5.32 1.08 C5.43 1.21, 5.53 1.36, 5.62 1.51 C5.71 1.66, 5.78 1.82, 5.84 1.98 C5.9 2.15, 5.95 2.32, 5.98 2.49 C6.01 2.66, 6.02 2.93, 6.02 3.01 C6.03 3.1, 6.03 2.93, 6.02 3.01" stroke="transparent" stroke-width="1" fill="none"></path></g><g stroke-linecap="round"><g transform="translate(33.89197540283203 46.86111068725586) rotate(0 3.02716064453125 -1.459259033203125)" fill-rule="evenodd"><path d="M0 0 L5.1 0 L5.1 0 L5.41 -0.51 L5.75 -1.01 L6.05 -1.45 L6.05 -1.45 L5.82 -1.79 L5.58 -2.14 L5.36 -2.51 L5.24 -2.71 L5.13 -2.92 L0 -2.92 L0 -2.92 L0.07 -2.63 L0.13 -2.35 L0.18 -2.05 L0.2 -1.76 L0.2 -1.14 L0.2 -1.14 L0.18 -0.85 L0.14 -0.56 L0.08 -0.28 L0 0 L0 0" stroke="none" stroke-width="0" fill="#669df6" fill-rule="evenodd"></path><path d="M0 0 C1.51 0, 3.03 0, 5.1 0 M0 0 C1.58 0, 3.15 0, 5.1 0 M5.1 0 C5.1 0, 5.1 0, 5.1 0 M5.1 0 C5.1 0, 5.1 0, 5.1 0 M5.1 0 C5.17 -0.13, 5.25 -0.26, 5.41 -0.51 M5.1 0 C5.19 -0.16, 5.29 -0.32, 5.41 -0.51 M5.41 -0.51 C5.54 -0.7, 5.67 -0.89, 5.75 -1.01 M5.41 -0.51 C5.48 -0.62, 5.55 -0.72, 5.75 -1.01 M5.75 -1.01 C5.83 -1.13, 5.91 -1.24, 6.05 -1.45 M5.75 -1.01 C5.87 -1.19, 5.99 -1.36, 6.05 -1.45 M6.05 -1.45 C6.05 -1.45, 6.05 -1.45, 6.05 -1.45 M6.05 -1.45 C6.05 -1.45, 6.05 -1.45, 6.05 -1.45 M6.05 -1.45 C5.96 -1.58, 5.87 -1.71, 5.82 -1.79 M6.05 -1.45 C5.97 -1.57, 5.88 -1.69, 5.82 -1.79 M5.82 -1.79 C5.73 -1.92, 5.64 -2.05, 5.58 -2.14 M5.82 -1.79 C5.74 -1.9, 5.67 -2.01, 5.58 -2.14 M5.58 -2.14 C5.53 -2.22, 5.48 -2.3, 5.36 -2.51 M5.58 -2.14 C5.51 -2.26, 5.43 -2.39, 5.36 -2.51 M5.36 -2.51 C5.31 -2.58, 5.27 -2.66, 5.24 -2.71 M5.36 -2.51 C5.33 -2.55, 5.31 -2.59, 5.24 -2.71 M5.24 -2.71 C5.21 -2.77, 5.17 -2.83, 5.13 -2.92 M5.24 -2.71 C5.21 -2.77, 5.17 -2.84, 5.13 -2.92 M5.13 -2.92 C3.13 -2.92, 1.13 -2.92, 0 -2.92 M5.13 -2.92 C3.19 -2.92, 1.25 -2.92, 0 -2.92 M0 -2.92 C0 -2.92, 0 -2.92, 0 -2.92 M0 -2.92 C0 -2.92, 0 -2.92, 0 -2.92 M0 -2.92 C0.03 -2.81, 0.06 -2.7, 0.07 -2.63 M0 -2.92 C0.03 -2.82, 0.05 -2.71, 0.07 -2.63 M0.07 -2.63 C0.09 -2.56, 0.1 -2.49, 0.13 -2.35 M0.07 -2.63 C0.09 -2.56, 0.11 -2.48, 0.13 -2.35 M0.13 -2.35 C0.14 -2.29, 0.15 -2.23, 0.18 -2.05 M0.13 -2.35 C0.15 -2.24, 0.16 -2.13, 0.18 -2.05 M0.18 -2.05 C0.18 -1.97, 0.19 -1.88, 0.2 -1.76 M0.18 -2.05 C0.18 -1.96, 0.19 -1.87, 0.2 -1.76 M0.2 -1.76 C0.2 -1.52, 0.2 -1.28, 0.2 -1.14 M0.2 -1.76 C0.2 -1.53, 0.2 -1.3, 0.2 -1.14 M0.2 -1.14 C0.2 -1.14, 0.2 -1.14, 0.2 -1.14 M0.2 -1.14 C0.2 -1.14, 0.2 -1.14, 0.2 -1.14 M0.2 -1.14 C0.19 -1.04, 0.19 -0.93, 0.18 -0.85 M0.2 -1.14 C0.2 -1.06, 0.19 -0.98, 0.18 -0.85 M0.18 -0.85 C0.16 -0.74, 0.15 -0.63, 0.14 -0.56 M0.18 -0.85 C0.17 -0.78, 0.16 -0.71, 0.14 -0.56 M0.14 -0.56 C0.12 -0.5, 0.11 -0.44, 0.08 -0.28 M0.14 -0.56 C0.12 -0.46, 0.09 -0.36, 0.08 -0.28 M0.08 -0.28 C0.05 -0.17, 0.02 -0.06, 0 0 M0.08 -0.28 C0.05 -0.19, 0.03 -0.11, 0 0 M0 0 C0 0, 0 0, 0 0 M0 0 C0 0, 0 0, 0 0 M0 0 C0 0, 0 0, 0 0 M0 0 C0 0, 0 0, 0 0" stroke="#00000000" stroke-width="1" fill="none"></path></g></g><mask></mask><g stroke-linecap="round"><g transform="translate(43.4574089050293 40.984567642211914) rotate(0 -2.841977119445801 -0.9901230335235596)" fill-rule="evenodd"><path d="M0 0 L-0.34 -0.6 L-0.74 -1.28 L-1.38 -2.55 L-1.38 -2.55 L-1.55 -2.89 L-1.72 -3.22 L-1.89 -3.53 L-2.07 -3.84 L-2.25 -4.13 L-2.42 -4.41 L-2.6 -4.68 L-2.79 -4.94 L-2.97 -5.18 L-3.16 -5.42 L-3.36 -5.64 L-3.56 -5.86 L-3.76 -6.06 L-3.97 -6.25 L-4.18 -6.43 L-4.4 -6.6 L-4.62 -6.76 L-4.85 -6.91 L-5.08 -7.05 L-5.33 -7.18 L-5.58 -7.3 L-5.83 -7.4 L-6.1 -7.5 L-6.37 -7.59 L-6.65 -7.66 L-6.94 -7.73 L-7.24 -7.78 L-7.55 -7.83 L-7.87 -7.86 L-8.2 -7.89 L-8.54 -7.9 L-8.89 -7.91 L-9.57 -7.91 L-9.57 -7.91 L-9.47 -7.55 L-9.41 -7.18 L-9.37 -6.81 L-9.36 -6.44 L-9.37 -6.07 L-9.41 -5.7 L-9.47 -5.33 L-9.57 -4.97 L-8.9 -4.97 L-8.9 -4.97 L-8.47 -4.96 L-8.08 -4.94 L-7.7 -4.89 L-7.36 -4.82 L-7.03 -4.72 L-6.72 -4.6 L-6.43 -4.45 L-6.15 -4.28 L-5.88 -4.07 L-5.62 -3.83 L-5.37 -3.56 L-5.11 -3.25 L-4.86 -2.9 L-4.74 -2.72 L-4.61 -2.52 L-4.48 -2.31 L-4.36 -2.1 L-4.23 -1.87 L-4.09 -1.63 L-3.74 -1 L-3.39 -0.29 L-3.39 -0.29 L-3.2 0.1 L-3 0.48 L-2.81 0.84 L-2.63 1.18 L-2.44 1.51 L-2.25 1.83 L-2.07 2.13 L-1.88 2.42 L-1.7 2.7 L-1.51 2.96 L-1.32 3.21 L-1.13 3.45 L-0.94 3.68 L-0.75 3.89 L-0.55 4.09 L-0.35 4.28 L-0.14 4.46 L0.07 4.62 L0.28 4.78 L0.5 4.93 L0.73 5.06 L0.96 5.18 L1.21 5.3 L1.45 5.4 L1.71 5.5 L1.97 5.59 L2.25 5.66 L2.53 5.73 L2.82 5.79 L3.12 5.85 L3.44 5.89 L3.76 5.93 L3.69 5.56 L3.63 5.2 L3.6 4.83 L3.59 4.46 L3.6 4.09 L3.64 3.72 L3.7 3.35 L3.79 2.99 L3.88 2.99 L3.88 2.99 L3.57 2.95 L3.27 2.9 L2.99 2.83 L2.72 2.75 L2.46 2.65 L2.21 2.52 L1.97 2.38 L1.74 2.21 L1.51 2.03 L1.29 1.82 L1.07 1.58 L0.86 1.32 L0.65 1.03 L0.43 0.72 L0.22 0.37 L0 0 L0 0" stroke="none" stroke-width="0" fill="#185abc" fill-rule="evenodd"></path><path d="M0 0 C-0.09 -0.16, -0.18 -0.32, -0.34 -0.6 M0 0 C-0.09 -0.16, -0.18 -0.32, -0.34 -0.6 M-0.34 -0.6 C-0.48 -0.85, -0.63 -1.1, -0.74 -1.28 M-0.34 -0.6 C-0.43 -0.76, -0.52 -0.91, -0.74 -1.28 M-0.74 -1.28 C-0.96 -1.72, -1.18 -2.15, -1.38 -2.55 M-0.74 -1.28 C-0.93 -1.65, -1.11 -2.02, -1.38 -2.55 M-1.38 -2.55 C-1.38 -2.55, -1.38 -2.55, -1.38 -2.55 M-1.38 -2.55 C-1.38 -2.55, -1.38 -2.55, -1.38 -2.55 M-1.38 -2.55 C-1.43 -2.65, -1.47 -2.74, -1.55 -2.89 M-1.38 -2.55 C-1.43 -2.66, -1.49 -2.78, -1.55 -2.89 M-1.55 -2.89 C-1.6 -2.99, -1.65 -3.09, -1.72 -3.22 M-1.55 -2.89 C-1.6 -2.99, -1.65 -3.08, -1.72 -3.22 M-1.72 -3.22 C-1.78 -3.32, -1.84 -3.43, -1.89 -3.53 M-1.72 -3.22 C-1.76 -3.28, -1.8 -3.35, -1.89 -3.53 M-1.89 -3.53 C-1.95 -3.63, -2.01 -3.73, -2.07 -3.84 M-1.89 -3.53 C-1.95 -3.63, -2 -3.72, -2.07 -3.84 M-2.07 -3.84 C-2.11 -3.91, -2.16 -3.98, -2.25 -4.13 M-2.07 -3.84 C-2.11 -3.91, -2.16 -3.98, -2.25 -4.13 M-2.25 -4.13 C-2.31 -4.23, -2.38 -4.33, -2.42 -4.41 M-2.25 -4.13 C-2.29 -4.2, -2.34 -4.28, -2.42 -4.41 M-2.42 -4.41 C-2.49 -4.51, -2.56 -4.61, -2.6 -4.68 M-2.42 -4.41 C-2.49 -4.5, -2.55 -4.6, -2.6 -4.68 M-2.6 -4.68 C-2.64 -4.73, -2.68 -4.79, -2.79 -4.94 M-2.6 -4.68 C-2.67 -4.76, -2.73 -4.85, -2.79 -4.94 M-2.79 -4.94 C-2.85 -5.01, -2.9 -5.09, -2.97 -5.18 M-2.79 -4.94 C-2.84 -5.01, -2.9 -5.08, -2.97 -5.18 M-2.97 -5.18 C-3.04 -5.27, -3.11 -5.35, -3.16 -5.42 M-2.97 -5.18 C-3.03 -5.25, -3.08 -5.31, -3.16 -5.42 M-3.16 -5.42 C-3.22 -5.49, -3.28 -5.55, -3.36 -5.64 M-3.16 -5.42 C-3.21 -5.48, -3.26 -5.53, -3.36 -5.64 M-3.36 -5.64 C-3.43 -5.72, -3.5 -5.8, -3.56 -5.86 M-3.36 -5.64 C-3.41 -5.7, -3.45 -5.75, -3.56 -5.86 M-3.56 -5.86 C-3.6 -5.9, -3.65 -5.95, -3.76 -6.06 M-3.56 -5.86 C-3.62 -5.92, -3.67 -5.98, -3.76 -6.06 M-3.76 -6.06 C-3.82 -6.12, -3.88 -6.17, -3.97 -6.25 M-3.76 -6.06 C-3.84 -6.13, -3.92 -6.21, -3.97 -6.25 M-3.97 -6.25 C-4.05 -6.32, -4.13 -6.39, -4.18 -6.43 M-3.97 -6.25 C-4.02 -6.3, -4.07 -6.34, -4.18 -6.43 M-4.18 -6.43 C-4.24 -6.48, -4.3 -6.53, -4.4 -6.6 M-4.18 -6.43 C-4.22 -6.47, -4.27 -6.51, -4.4 -6.6 M-4.4 -6.6 C-4.48 -6.66, -4.56 -6.72, -4.62 -6.76 M-4.4 -6.6 C-4.45 -6.64, -4.51 -6.69, -4.62 -6.76 M-4.62 -6.76 C-4.66 -6.79, -4.71 -6.82, -4.85 -6.91 M-4.62 -6.76 C-4.68 -6.8, -4.74 -6.84, -4.85 -6.91 M-4.85 -6.91 C-4.93 -6.96, -5.01 -7.01, -5.08 -7.05 M-4.85 -6.91 C-4.9 -6.94, -4.96 -6.98, -5.08 -7.05 M-5.08 -7.05 C-5.17 -7.1, -5.25 -7.14, -5.33 -7.18 M-5.08 -7.05 C-5.18 -7.1, -5.28 -7.15, -5.33 -7.18 M-5.33 -7.18 C-5.42 -7.22, -5.51 -7.27, -5.58 -7.3 M-5.33 -7.18 C-5.42 -7.22, -5.52 -7.27, -5.58 -7.3 M-5.58 -7.3 C-5.67 -7.33, -5.76 -7.37, -5.83 -7.4 M-5.58 -7.3 C-5.66 -7.33, -5.74 -7.37, -5.83 -7.4 M-5.83 -7.4 C-5.91 -7.43, -5.99 -7.46, -6.1 -7.5 M-5.83 -7.4 C-5.91 -7.43, -5.98 -7.46, -6.1 -7.5 M-6.1 -7.5 C-6.19 -7.53, -6.28 -7.55, -6.37 -7.59 M-6.1 -7.5 C-6.18 -7.52, -6.26 -7.55, -6.37 -7.59 M-6.37 -7.59 C-6.44 -7.6, -6.52 -7.62, -6.65 -7.66 M-6.37 -7.59 C-6.43 -7.6, -6.49 -7.62, -6.65 -7.66 M-6.65 -7.66 C-6.73 -7.68, -6.8 -7.69, -6.94 -7.73 M-6.65 -7.66 C-6.77 -7.69, -6.88 -7.71, -6.94 -7.73 M-6.94 -7.73 C-7.06 -7.75, -7.17 -7.77, -7.24 -7.78 M-6.94 -7.73 C-7.02 -7.74, -7.09 -7.75, -7.24 -7.78 M-7.24 -7.78 C-7.31 -7.79, -7.38 -7.8, -7.55 -7.83 M-7.24 -7.78 C-7.31 -7.79, -7.38 -7.8, -7.55 -7.83 M-7.55 -7.83 C-7.64 -7.84, -7.73 -7.85, -7.87 -7.86 M-7.55 -7.83 C-7.65 -7.84, -7.75 -7.85, -7.87 -7.86 M-7.87 -7.86 C-7.94 -7.87, -8.01 -7.87, -8.2 -7.89 M-7.87 -7.86 C-7.95 -7.87, -8.02 -7.87, -8.2 -7.89 M-8.2 -7.89 C-8.32 -7.89, -8.45 -7.9, -8.54 -7.9 M-8.2 -7.89 C-8.32 -7.89, -8.44 -7.9, -8.54 -7.9 M-8.54 -7.9 C-8.63 -7.9, -8.72 -7.9, -8.89 -7.91 M-8.54 -7.9 C-8.62 -7.9, -8.7 -7.9, -8.89 -7.91 M-8.89 -7.91 C-9.11 -7.91, -9.32 -7.91, -9.57 -7.91 M-8.89 -7.91 C-9.14 -7.91, -9.39 -7.91, -9.57 -7.91 M-9.57 -7.91 C-9.57 -7.91, -9.57 -7.91, -9.57 -7.91 M-9.57 -7.91 C-9.57 -7.91, -9.57 -7.91, -9.57 -7.91 M-9.57 -7.91 C-9.54 -7.82, -9.52 -7.73, -9.47 -7.55 M-9.57 -7.91 C-9.53 -7.77, -9.5 -7.63, -9.47 -7.55 M-9.47 -7.55 C-9.46 -7.44, -9.44 -7.34, -9.41 -7.18 M-9.47 -7.55 C-9.45 -7.42, -9.43 -7.29, -9.41 -7.18 M-9.41 -7.18 C-9.4 -7.07, -9.39 -6.96, -9.37 -6.81 M-9.41 -7.18 C-9.4 -7.08, -9.39 -6.97, -9.37 -6.81 M-9.37 -6.81 C-9.37 -6.72, -9.37 -6.63, -9.36 -6.44 M-9.37 -6.81 C-9.37 -6.72, -9.37 -6.63, -9.36 -6.44 M-9.36 -6.44 C-9.37 -6.35, -9.37 -6.26, -9.37 -6.07 M-9.36 -6.44 C-9.37 -6.31, -9.37 -6.19, -9.37 -6.07 M-9.37 -6.07 C-9.38 -5.99, -9.39 -5.92, -9.41 -5.7 M-9.37 -6.07 C-9.38 -5.98, -9.39 -5.9, -9.41 -5.7 M-9.41 -5.7 C-9.43 -5.57, -9.45 -5.45, -9.47 -5.33 M-9.41 -5.7 C-9.43 -5.58, -9.45 -5.47, -9.47 -5.33 M-9.47 -5.33 C-9.5 -5.23, -9.53 -5.12, -9.57 -4.97 M-9.47 -5.33 C-9.5 -5.24, -9.52 -5.14, -9.57 -4.97 M-9.57 -4.97 C-9.42 -4.97, -9.27 -4.97, -8.9 -4.97 M-9.57 -4.97 C-9.32 -4.97, -9.08 -4.97, -8.9 -4.97 M-8.9 -4.97 C-8.9 -4.97, -8.9 -4.97, -8.9 -4.97 M-8.9 -4.97 C-8.9 -4.97, -8.9 -4.97, -8.9 -4.97 M-8.9 -4.97 C-8.81 -4.97, -8.71 -4.97, -8.47 -4.96 M-8.9 -4.97 C-8.77 -4.97, -8.64 -4.97, -8.47 -4.96 M-8.47 -4.96 C-8.35 -4.96, -8.22 -4.95, -8.08 -4.94 M-8.47 -4.96 C-8.34 -4.95, -8.21 -4.95, -8.08 -4.94 M-8.08 -4.94 C-7.98 -4.92, -7.89 -4.91, -7.7 -4.89 M-8.08 -4.94 C-7.94 -4.92, -7.8 -4.9, -7.7 -4.89 M-7.7 -4.89 C-7.6 -4.87, -7.5 -4.84, -7.36 -4.82 M-7.7 -4.89 C-7.57 -4.86, -7.44 -4.83, -7.36 -4.82 M-7.36 -4.82 C-7.26 -4.79, -7.15 -4.76, -7.03 -4.72 M-7.36 -4.82 C-7.27 -4.79, -7.19 -4.77, -7.03 -4.72 M-7.03 -4.72 C-6.93 -4.68, -6.82 -4.64, -6.72 -4.6 M-7.03 -4.72 C-6.93 -4.68, -6.84 -4.65, -6.72 -4.6 M-6.72 -4.6 C-6.66 -4.57, -6.6 -4.54, -6.43 -4.45 M-6.72 -4.6 C-6.64 -4.56, -6.56 -4.52, -6.43 -4.45 M-6.43 -4.45 C-6.33 -4.39, -6.23 -4.32, -6.15 -4.28 M-6.43 -4.45 C-6.33 -4.39, -6.22 -4.32, -6.15 -4.28 M-6.15 -4.28 C-6.09 -4.23, -6.03 -4.18, -5.88 -4.07 M-6.15 -4.28 C-6.05 -4.2, -5.95 -4.12, -5.88 -4.07 M-5.88 -4.07 C-5.82 -4.01, -5.76 -3.96, -5.62 -3.83 M-5.88 -4.07 C-5.82 -4.01, -5.76 -3.96, -5.62 -3.83 M-5.62 -3.83 C-5.56 -3.77, -5.5 -3.7, -5.37 -3.56 M-5.62 -3.83 C-5.54 -3.74, -5.45 -3.65, -5.37 -3.56 M-5.37 -3.56 C-5.3 -3.47, -5.23 -3.39, -5.11 -3.25 M-5.37 -3.56 C-5.28 -3.46, -5.2 -3.36, -5.11 -3.25 M-5.11 -3.25 C-5.02 -3.11, -4.92 -2.98, -4.86 -2.9 M-5.11 -3.25 C-5.02 -3.11, -4.92 -2.98, -4.86 -2.9 M-4.86 -2.9 C-4.83 -2.85, -4.79 -2.79, -4.74 -2.72 M-4.86 -2.9 C-4.83 -2.85, -4.79 -2.79, -4.74 -2.72 M-4.74 -2.72 C-4.71 -2.66, -4.67 -2.61, -4.61 -2.52 M-4.74 -2.72 C-4.69 -2.64, -4.64 -2.56, -4.61 -2.52 M-4.61 -2.52 C-4.59 -2.48, -4.56 -2.43, -4.48 -2.31 M-4.61 -2.52 C-4.57 -2.45, -4.52 -2.38, -4.48 -2.31 M-4.48 -2.31 C-4.45 -2.25, -4.41 -2.19, -4.36 -2.1 M-4.48 -2.31 C-4.45 -2.25, -4.42 -2.2, -4.36 -2.1 M-4.36 -2.1 C-4.33 -2.04, -4.29 -1.99, -4.23 -1.87 M-4.36 -2.1 C-4.32 -2.03, -4.28 -1.96, -4.23 -1.87 M-4.23 -1.87 C-4.19 -1.8, -4.15 -1.74, -4.09 -1.63 M-4.23 -1.87 C-4.19 -1.79, -4.14 -1.72, -4.09 -1.63 M-4.09 -1.63 C-4.01 -1.48, -3.93 -1.34, -3.74 -1 M-4.09 -1.63 C-3.99 -1.44, -3.89 -1.25, -3.74 -1 M-3.74 -1 C-3.61 -0.74, -3.49 -0.48, -3.39 -0.29 M-3.74 -1 C-3.63 -0.78, -3.53 -0.56, -3.39 -0.29 M-3.39 -0.29 C-3.39 -0.29, -3.39 -0.29, -3.39 -0.29 M-3.39 -0.29 C-3.39 -0.29, -3.39 -0.29, -3.39 -0.29 M-3.39 -0.29 C-3.34 -0.19, -3.29 -0.08, -3.2 0.1 M-3.39 -0.29 C-3.34 -0.19, -3.29 -0.09, -3.2 0.1 M-3.2 0.1 C-3.12 0.24, -3.05 0.38, -3 0.48 M-3.2 0.1 C-3.15 0.19, -3.11 0.27, -3 0.48 M-3 0.48 C-2.93 0.61, -2.87 0.74, -2.81 0.84 M-3 0.48 C-2.97 0.55, -2.93 0.62, -2.81 0.84 M-2.81 0.84 C-2.75 0.96, -2.68 1.07, -2.63 1.18 M-2.81 0.84 C-2.77 0.93, -2.72 1.01, -2.63 1.18 M-2.63 1.18 C-2.58 1.27, -2.53 1.35, -2.44 1.51 M-2.63 1.18 C-2.59 1.25, -2.55 1.32, -2.44 1.51 M-2.44 1.51 C-2.38 1.62, -2.32 1.72, -2.25 1.83 M-2.44 1.51 C-2.37 1.63, -2.31 1.74, -2.25 1.83 M-2.25 1.83 C-2.21 1.9, -2.18 1.96, -2.07 2.13 M-2.25 1.83 C-2.21 1.9, -2.17 1.96, -2.07 2.13 M-2.07 2.13 C-2.02 2.21, -1.97 2.29, -1.88 2.42 M-2.07 2.13 C-2.02 2.21, -1.97 2.29, -1.88 2.42 M-1.88 2.42 C-1.83 2.51, -1.77 2.59, -1.7 2.7 M-1.88 2.42 C-1.82 2.52, -1.76 2.61, -1.7 2.7 M-1.7 2.7 C-1.63 2.8, -1.56 2.9, -1.51 2.96 M-1.7 2.7 C-1.65 2.77, -1.59 2.85, -1.51 2.96 M-1.51 2.96 C-1.46 3.03, -1.41 3.09, -1.32 3.21 M-1.51 2.96 C-1.44 3.06, -1.37 3.16, -1.32 3.21 M-1.32 3.21 C-1.25 3.31, -1.18 3.4, -1.13 3.45 M-1.32 3.21 C-1.27 3.28, -1.21 3.35, -1.13 3.45 M-1.13 3.45 C-1.09 3.51, -1.04 3.57, -0.94 3.68 M-1.13 3.45 C-1.07 3.53, -1 3.61, -0.94 3.68 M-0.94 3.68 C-0.89 3.73, -0.84 3.79, -0.75 3.89 M-0.94 3.68 C-0.87 3.75, -0.81 3.83, -0.75 3.89 M-0.75 3.89 C-0.69 3.95, -0.63 4.01, -0.55 4.09 M-0.75 3.89 C-0.69 3.95, -0.62 4.02, -0.55 4.09 M-0.55 4.09 C-0.48 4.15, -0.41 4.22, -0.35 4.28 M-0.55 4.09 C-0.48 4.16, -0.4 4.23, -0.35 4.28 M-0.35 4.28 C-0.3 4.32, -0.26 4.36, -0.14 4.46 M-0.35 4.28 C-0.28 4.34, -0.21 4.4, -0.14 4.46 M-0.14 4.46 C-0.07 4.52, 0 4.57, 0.07 4.62 M-0.14 4.46 C-0.07 4.51, 0 4.57, 0.07 4.62 M0.07 4.62 C0.14 4.68, 0.21 4.73, 0.28 4.78 M0.07 4.62 C0.15 4.69, 0.24 4.75, 0.28 4.78 M0.28 4.78 C0.37 4.84, 0.45 4.89, 0.5 4.93 M0.28 4.78 C0.35 4.83, 0.42 4.87, 0.5 4.93 M0.5 4.93 C0.58 4.97, 0.66 5.02, 0.73 5.06 M0.5 4.93 C0.55 4.95, 0.6 4.98, 0.73 5.06 M0.73 5.06 C0.82 5.11, 0.91 5.16, 0.96 5.18 M0.73 5.06 C0.81 5.1, 0.88 5.14, 0.96 5.18 M0.96 5.18 C1.02 5.21, 1.07 5.23, 1.21 5.3 M0.96 5.18 C1.06 5.23, 1.15 5.27, 1.21 5.3 M1.21 5.3 C1.26 5.32, 1.32 5.35, 1.45 5.4 M1.21 5.3 C1.3 5.34, 1.39 5.38, 1.45 5.4 M1.45 5.4 C1.54 5.44, 1.63 5.47, 1.71 5.5 M1.45 5.4 C1.55 5.44, 1.64 5.48, 1.71 5.5 M1.71 5.5 C1.76 5.52, 1.82 5.54, 1.97 5.59 M1.71 5.5 C1.77 5.52, 1.84 5.54, 1.97 5.59 M1.97 5.59 C2.08 5.62, 2.18 5.65, 2.25 5.66 M1.97 5.59 C2.04 5.6, 2.1 5.62, 2.25 5.66 M2.25 5.66 C2.35 5.69, 2.46 5.71, 2.53 5.73 M2.25 5.66 C2.33 5.69, 2.42 5.71, 2.53 5.73 M2.53 5.73 C2.64 5.76, 2.76 5.78, 2.82 5.79 M2.53 5.73 C2.61 5.75, 2.69 5.77, 2.82 5.79 M2.82 5.79 C2.89 5.8, 2.95 5.82, 3.12 5.85 M2.82 5.79 C2.92 5.81, 3.02 5.83, 3.12 5.85 M3.12 5.85 C3.23 5.86, 3.33 5.87, 3.44 5.89 M3.12 5.85 C3.2 5.86, 3.28 5.87, 3.44 5.89 M3.44 5.89 C3.56 5.9, 3.68 5.92, 3.76 5.93 M3.44 5.89 C3.53 5.9, 3.62 5.91, 3.76 5.93 M3.76 5.93 C3.74 5.82, 3.72 5.71, 3.69 5.56 M3.76 5.93 C3.74 5.81, 3.72 5.7, 3.69 5.56 M3.69 5.56 C3.67 5.46, 3.66 5.36, 3.63 5.2 M3.69 5.56 C3.67 5.47, 3.66 5.38, 3.63 5.2 M3.63 5.2 C3.62 5.07, 3.61 4.93, 3.6 4.83 M3.63 5.2 C3.62 5.08, 3.61 4.97, 3.6 4.83 M3.6 4.83 C3.6 4.69, 3.59 4.55, 3.59 4.46 M3.6 4.83 C3.6 4.75, 3.6 4.68, 3.59 4.46 M3.59 4.46 C3.59 4.35, 3.6 4.24, 3.6 4.09 M3.59 4.46 C3.59 4.36, 3.6 4.26, 3.6 4.09 M3.6 4.09 C3.61 3.99, 3.62 3.89, 3.64 3.72 M3.6 4.09 C3.61 4.01, 3.62 3.93, 3.64 3.72 M3.64 3.72 C3.65 3.64, 3.67 3.57, 3.7 3.35 M3.64 3.72 C3.66 3.61, 3.68 3.51, 3.7 3.35 M3.7 3.35 C3.74 3.22, 3.77 3.08, 3.79 2.99 M3.7 3.35 C3.72 3.28, 3.74 3.21, 3.79 2.99 M3.79 2.99 C3.81 2.99, 3.83 2.99, 3.88 2.99 M3.79 2.99 C3.82 2.99, 3.84 2.99, 3.88 2.99 M3.88 2.99 C3.88 2.99, 3.88 2.99, 3.88 2.99 M3.88 2.99 C3.88 2.99, 3.88 2.99, 3.88 2.99 M3.88 2.99 C3.8 2.98, 3.73 2.97, 3.57 2.95 M3.88 2.99 C3.81 2.98, 3.74 2.98, 3.57 2.95 M3.57 2.95 C3.51 2.94, 3.44 2.93, 3.27 2.9 M3.57 2.95 C3.46 2.94, 3.36 2.92, 3.27 2.9 M3.27 2.9 C3.18 2.88, 3.09 2.86, 2.99 2.83 M3.27 2.9 C3.19 2.88, 3.11 2.86, 2.99 2.83 M2.99 2.83 C2.91 2.81, 2.83 2.78, 2.72 2.75 M2.99 2.83 C2.92 2.81, 2.86 2.8, 2.72 2.75 M2.72 2.75 C2.65 2.72, 2.58 2.7, 2.46 2.65 M2.72 2.75 C2.63 2.72, 2.55 2.68, 2.46 2.65 M2.46 2.65 C2.38 2.61, 2.31 2.57, 2.21 2.52 M2.46 2.65 C2.38 2.61, 2.31 2.57, 2.21 2.52 M2.21 2.52 C2.13 2.48, 2.06 2.43, 1.97 2.38 M2.21 2.52 C2.12 2.47, 2.03 2.42, 1.97 2.38 M1.97 2.38 C1.88 2.31, 1.78 2.25, 1.74 2.21 M1.97 2.38 C1.88 2.32, 1.79 2.25, 1.74 2.21 M1.74 2.21 C1.69 2.17, 1.63 2.13, 1.51 2.03 M1.74 2.21 C1.66 2.15, 1.58 2.08, 1.51 2.03 M1.51 2.03 C1.44 1.96, 1.37 1.9, 1.29 1.82 M1.51 2.03 C1.45 1.97, 1.38 1.9, 1.29 1.82 M1.29 1.82 C1.22 1.74, 1.15 1.66, 1.07 1.58 M1.29 1.82 C1.25 1.77, 1.2 1.72, 1.07 1.58 M1.07 1.58 C0.99 1.48, 0.91 1.38, 0.86 1.32 M1.07 1.58 C1.03 1.53, 0.98 1.47, 0.86 1.32 M0.86 1.32 C0.81 1.26, 0.77 1.2, 0.65 1.03 M0.86 1.32 C0.79 1.23, 0.73 1.14, 0.65 1.03 M0.65 1.03 C0.57 0.93, 0.5 0.82, 0.43 0.72 M0.65 1.03 C0.58 0.93, 0.51 0.82, 0.43 0.72 M0.43 0.72 C0.37 0.61, 0.3 0.51, 0.22 0.37 M0.43 0.72 C0.38 0.63, 0.32 0.54, 0.22 0.37 M0.22 0.37 C0.15 0.27, 0.09 0.16, 0 0 M0.22 0.37 C0.17 0.3, 0.13 0.22, 0 0 M0 0 C0 0, 0 0, 0 0 M0 0 C0 0, 0 0, 0 0 M0 0 C0 0, 0 0, 0 0 M0 0 C0 0, 0 0, 0 0" stroke="#00000000" stroke-width="1" fill="none"></path></g></g><mask></mask><g stroke-linecap="round"><g transform="translate(40.78580284118652 48.85617256164551) rotate(0 -1.7185182571411133 3.7135801315307617)" fill-rule="evenodd"><path d="M0 0 L-0.35 0.66 L-0.9 1.78 L-1.25 2.44 L-1.59 3.04 L-1.59 3.04 L-1.71 3.26 L-1.84 3.47 L-2.08 3.85 L-2.32 4.2 L-2.56 4.51 L-2.8 4.8 L-3.05 5.04 L-3.3 5.26 L-3.56 5.45 L-3.84 5.61 L-4.12 5.75 L-4.42 5.86 L-4.74 5.95 L-5.08 6.01 L-5.44 6.06 L-5.82 6.09 L-6.23 6.09 L-6.89 6.09 L-6.89 6.09 L-6.82 6.38 L-6.76 6.67 L-6.72 6.96 L-6.69 7.25 L-6.69 7.8 L-6.69 7.8 L-6.72 8.09 L-6.76 8.38 L-6.82 8.67 L-6.89 8.96 L-5.85 8.96 L-5.85 8.96 L-5.52 8.94 L-5.21 8.92 L-4.9 8.89 L-4.61 8.84 L-4.32 8.79 L-4.04 8.73 L-3.77 8.66 L-3.5 8.58 L-3.24 8.49 L-2.99 8.39 L-2.75 8.28 L-2.51 8.16 L-2.28 8.03 L-2.05 7.89 L-1.83 7.74 L-1.61 7.58 L-1.4 7.41 L-1.19 7.23 L-0.99 7.04 L-0.79 6.84 L-0.59 6.62 L-0.4 6.4 L-0.21 6.17 L-0.02 5.93 L0.16 5.68 L0.34 5.42 L0.52 5.14 L0.7 4.86 L0.88 4.57 L1.06 4.26 L1.23 3.95 L1.41 3.62 L2.19 2.05 L2.5 1.48 L2.76 0.99 L2.76 0.99 L3.09 0.45 L3.27 0.19 L3.46 -0.06 L3.12 -0.2 L2.8 -0.35 L2.47 -0.51 L2.16 -0.69 L1.86 -0.88 L1.56 -1.08 L1.27 -1.3 L0.99 -1.53 L0.72 -1.17 L0.46 -0.79 L0.22 -0.4 L0 0 L0 0" stroke="none" stroke-width="0" fill="#669df6" fill-rule="evenodd"></path><path d="M0 0 C-0.12 0.23, -0.24 0.45, -0.35 0.66 M0 0 C-0.13 0.25, -0.27 0.51, -0.35 0.66 M-0.35 0.66 C-0.56 1.09, -0.78 1.52, -0.9 1.78 M-0.35 0.66 C-0.51 0.97, -0.66 1.29, -0.9 1.78 M-0.9 1.78 C-1.03 2.02, -1.16 2.26, -1.25 2.44 M-0.9 1.78 C-0.99 1.94, -1.08 2.11, -1.25 2.44 M-1.25 2.44 C-1.35 2.61, -1.45 2.78, -1.59 3.04 M-1.25 2.44 C-1.32 2.57, -1.39 2.69, -1.59 3.04 M-1.59 3.04 C-1.59 3.04, -1.59 3.04, -1.59 3.04 M-1.59 3.04 C-1.59 3.04, -1.59 3.04, -1.59 3.04 M-1.59 3.04 C-1.62 3.09, -1.64 3.13, -1.71 3.26 M-1.59 3.04 C-1.63 3.11, -1.67 3.18, -1.71 3.26 M-1.71 3.26 C-1.75 3.31, -1.78 3.37, -1.84 3.47 M-1.71 3.26 C-1.75 3.32, -1.79 3.39, -1.84 3.47 M-1.84 3.47 C-1.92 3.59, -1.99 3.71, -2.08 3.85 M-1.84 3.47 C-1.89 3.55, -1.94 3.62, -2.08 3.85 M-2.08 3.85 C-2.15 3.96, -2.22 4.06, -2.32 4.2 M-2.08 3.85 C-2.16 3.96, -2.24 4.08, -2.32 4.2 M-2.32 4.2 C-2.39 4.3, -2.47 4.39, -2.56 4.51 M-2.32 4.2 C-2.41 4.32, -2.51 4.45, -2.56 4.51 M-2.56 4.51 C-2.64 4.61, -2.72 4.7, -2.8 4.8 M-2.56 4.51 C-2.62 4.58, -2.67 4.64, -2.8 4.8 M-2.8 4.8 C-2.85 4.85, -2.91 4.9, -3.05 5.04 M-2.8 4.8 C-2.86 4.86, -2.92 4.91, -3.05 5.04 M-3.05 5.04 C-3.14 5.13, -3.24 5.21, -3.3 5.26 M-3.05 5.04 C-3.14 5.12, -3.22 5.2, -3.3 5.26 M-3.3 5.26 C-3.4 5.34, -3.5 5.41, -3.56 5.45 M-3.3 5.26 C-3.37 5.31, -3.43 5.36, -3.56 5.45 M-3.56 5.45 C-3.64 5.5, -3.71 5.54, -3.84 5.61 M-3.56 5.45 C-3.67 5.52, -3.78 5.58, -3.84 5.61 M-3.84 5.61 C-3.93 5.66, -4.03 5.71, -4.12 5.75 M-3.84 5.61 C-3.94 5.67, -4.05 5.72, -4.12 5.75 M-4.12 5.75 C-4.18 5.77, -4.25 5.8, -4.42 5.86 M-4.12 5.75 C-4.23 5.79, -4.34 5.83, -4.42 5.86 M-4.42 5.86 C-4.51 5.89, -4.6 5.91, -4.74 5.95 M-4.42 5.86 C-4.52 5.89, -4.61 5.91, -4.74 5.95 M-4.74 5.95 C-4.81 5.96, -4.88 5.98, -5.08 6.01 M-4.74 5.95 C-4.83 5.97, -4.92 5.98, -5.08 6.01 M-5.08 6.01 C-5.16 6.03, -5.25 6.04, -5.44 6.06 M-5.08 6.01 C-5.2 6.03, -5.32 6.04, -5.44 6.06 M-5.44 6.06 C-5.52 6.06, -5.59 6.07, -5.82 6.09 M-5.44 6.06 C-5.57 6.07, -5.71 6.08, -5.82 6.09 M-5.82 6.09 C-5.93 6.09, -6.04 6.09, -6.23 6.09 M-5.82 6.09 C-5.97 6.09, -6.11 6.09, -6.23 6.09 M-6.23 6.09 C-6.37 6.09, -6.5 6.09, -6.89 6.09 M-6.23 6.09 C-6.44 6.09, -6.64 6.09, -6.89 6.09 M-6.89 6.09 C-6.89 6.09, -6.89 6.09, -6.89 6.09 M-6.89 6.09 C-6.89 6.09, -6.89 6.09, -6.89 6.09 M-6.89 6.09 C-6.87 6.19, -6.84 6.28, -6.82 6.38 M-6.89 6.09 C-6.87 6.18, -6.85 6.26, -6.82 6.38 M-6.82 6.38 C-6.8 6.47, -6.78 6.56, -6.76 6.67 M-6.82 6.38 C-6.8 6.45, -6.79 6.52, -6.76 6.67 M-6.76 6.67 C-6.74 6.76, -6.73 6.86, -6.72 6.96 M-6.76 6.67 C-6.75 6.73, -6.74 6.8, -6.72 6.96 M-6.72 6.96 C-6.71 7.03, -6.7 7.11, -6.69 7.25 M-6.72 6.96 C-6.71 7.03, -6.7 7.1, -6.69 7.25 M-6.69 7.25 C-6.69 7.42, -6.69 7.59, -6.69 7.8 M-6.69 7.25 C-6.69 7.46, -6.69 7.67, -6.69 7.8 M-6.69 7.8 C-6.69 7.8, -6.69 7.8, -6.69 7.8 M-6.69 7.8 C-6.69 7.8, -6.69 7.8, -6.69 7.8 M-6.69 7.8 C-6.7 7.86, -6.7 7.92, -6.72 8.09 M-6.69 7.8 C-6.7 7.9, -6.71 8, -6.72 8.09 M-6.72 8.09 C-6.73 8.19, -6.75 8.29, -6.76 8.38 M-6.72 8.09 C-6.73 8.18, -6.74 8.27, -6.76 8.38 M-6.76 8.38 C-6.78 8.47, -6.79 8.55, -6.82 8.67 M-6.76 8.38 C-6.77 8.46, -6.79 8.53, -6.82 8.67 M-6.82 8.67 C-6.83 8.73, -6.85 8.79, -6.89 8.96 M-6.82 8.67 C-6.84 8.74, -6.85 8.8, -6.89 8.96 M-6.89 8.96 C-6.63 8.96, -6.37 8.96, -5.85 8.96 M-6.89 8.96 C-6.67 8.96, -6.45 8.96, -5.85 8.96 M-5.85 8.96 C-5.85 8.96, -5.85 8.96, -5.85 8.96 M-5.85 8.96 C-5.85 8.96, -5.85 8.96, -5.85 8.96 M-5.85 8.96 C-5.74 8.95, -5.63 8.95, -5.52 8.94 M-5.85 8.96 C-5.72 8.95, -5.59 8.95, -5.52 8.94 M-5.52 8.94 C-5.42 8.94, -5.31 8.93, -5.21 8.92 M-5.52 8.94 C-5.42 8.94, -5.31 8.93, -5.21 8.92 M-5.21 8.92 C-5.14 8.91, -5.07 8.9, -4.9 8.89 M-5.21 8.92 C-5.09 8.91, -4.97 8.89, -4.9 8.89 M-4.9 8.89 C-4.81 8.87, -4.71 8.86, -4.61 8.84 M-4.9 8.89 C-4.81 8.87, -4.72 8.86, -4.61 8.84 M-4.61 8.84 C-4.51 8.83, -4.41 8.81, -4.32 8.79 M-4.61 8.84 C-4.53 8.83, -4.45 8.82, -4.32 8.79 M-4.32 8.79 C-4.22 8.77, -4.13 8.75, -4.04 8.73 M-4.32 8.79 C-4.23 8.77, -4.15 8.75, -4.04 8.73 M-4.04 8.73 C-3.95 8.71, -3.86 8.68, -3.77 8.66 M-4.04 8.73 C-3.96 8.71, -3.89 8.69, -3.77 8.66 M-3.77 8.66 C-3.7 8.64, -3.64 8.62, -3.5 8.58 M-3.77 8.66 C-3.68 8.63, -3.6 8.61, -3.5 8.58 M-3.5 8.58 C-3.41 8.55, -3.32 8.51, -3.24 8.49 M-3.5 8.58 C-3.4 8.54, -3.3 8.51, -3.24 8.49 M-3.24 8.49 C-3.16 8.45, -3.08 8.42, -2.99 8.39 M-3.24 8.49 C-3.17 8.46, -3.1 8.43, -2.99 8.39 M-2.99 8.39 C-2.93 8.36, -2.88 8.33, -2.75 8.28 M-2.99 8.39 C-2.92 8.35, -2.84 8.32, -2.75 8.28 M-2.75 8.28 C-2.68 8.24, -2.61 8.2, -2.51 8.16 M-2.75 8.28 C-2.66 8.23, -2.57 8.19, -2.51 8.16 M-2.51 8.16 C-2.43 8.11, -2.34 8.06, -2.28 8.03 M-2.51 8.16 C-2.44 8.12, -2.38 8.08, -2.28 8.03 M-2.28 8.03 C-2.2 7.98, -2.12 7.93, -2.05 7.89 M-2.28 8.03 C-2.21 7.99, -2.15 7.95, -2.05 7.89 M-2.05 7.89 C-1.98 7.84, -1.92 7.8, -1.83 7.74 M-2.05 7.89 C-1.98 7.84, -1.91 7.79, -1.83 7.74 M-1.83 7.74 C-1.78 7.7, -1.73 7.66, -1.61 7.58 M-1.83 7.74 C-1.75 7.68, -1.67 7.62, -1.61 7.58 M-1.61 7.58 C-1.53 7.51, -1.45 7.45, -1.4 7.41 M-1.61 7.58 C-1.54 7.52, -1.48 7.47, -1.4 7.41 M-1.4 7.41 C-1.35 7.37, -1.31 7.33, -1.19 7.23 M-1.4 7.41 C-1.33 7.35, -1.27 7.3, -1.19 7.23 M-1.19 7.23 C-1.12 7.16, -1.04 7.09, -0.99 7.04 M-1.19 7.23 C-1.12 7.16, -1.04 7.08, -0.99 7.04 M-0.99 7.04 C-0.92 6.96, -0.85 6.89, -0.79 6.84 M-0.99 7.04 C-0.94 6.99, -0.9 6.94, -0.79 6.84 M-0.79 6.84 C-0.72 6.76, -0.65 6.68, -0.59 6.62 M-0.79 6.84 C-0.74 6.78, -0.68 6.72, -0.59 6.62 M-0.59 6.62 C-0.52 6.54, -0.45 6.46, -0.4 6.4 M-0.59 6.62 C-0.52 6.54, -0.44 6.45, -0.4 6.4 M-0.4 6.4 C-0.34 6.33, -0.28 6.26, -0.21 6.17 M-0.4 6.4 C-0.33 6.32, -0.26 6.23, -0.21 6.17 M-0.21 6.17 C-0.14 6.08, -0.07 5.98, -0.02 5.93 M-0.21 6.17 C-0.15 6.1, -0.09 6.02, -0.02 5.93 M-0.02 5.93 C0.03 5.86, 0.07 5.8, 0.16 5.68 M-0.02 5.93 C0.04 5.84, 0.11 5.75, 0.16 5.68 M0.16 5.68 C0.2 5.63, 0.23 5.57, 0.34 5.42 M0.16 5.68 C0.2 5.62, 0.24 5.56, 0.34 5.42 M0.34 5.42 C0.41 5.32, 0.47 5.22, 0.52 5.14 M0.34 5.42 C0.39 5.34, 0.44 5.27, 0.52 5.14 M0.52 5.14 C0.59 5.03, 0.67 4.92, 0.7 4.86 M0.52 5.14 C0.56 5.09, 0.6 5.03, 0.7 4.86 M0.7 4.86 C0.74 4.8, 0.78 4.74, 0.88 4.57 M0.7 4.86 C0.74 4.79, 0.78 4.73, 0.88 4.57 M0.88 4.57 C0.92 4.49, 0.97 4.41, 1.06 4.26 M0.88 4.57 C0.93 4.48, 0.98 4.4, 1.06 4.26 M1.06 4.26 C1.11 4.16, 1.17 4.06, 1.23 3.95 M1.06 4.26 C1.12 4.14, 1.19 4.03, 1.23 3.95 M1.23 3.95 C1.27 3.87, 1.32 3.79, 1.41 3.62 M1.23 3.95 C1.28 3.85, 1.33 3.75, 1.41 3.62 M1.41 3.62 C1.63 3.18, 1.85 2.74, 2.19 2.05 M1.41 3.62 C1.65 3.13, 1.9 2.63, 2.19 2.05 M2.19 2.05 C2.28 1.89, 2.37 1.73, 2.5 1.48 M2.19 2.05 C2.27 1.9, 2.35 1.75, 2.5 1.48 M2.5 1.48 C2.59 1.3, 2.69 1.12, 2.76 0.99 M2.5 1.48 C2.57 1.35, 2.64 1.22, 2.76 0.99 M2.76 0.99 C2.76 0.99, 2.76 0.99, 2.76 0.99 M2.76 0.99 C2.76 0.99, 2.76 0.99, 2.76 0.99 M2.76 0.99 C2.88 0.8, 2.99 0.61, 3.09 0.45 M2.76 0.99 C2.87 0.82, 2.97 0.65, 3.09 0.45 M3.09 0.45 C3.16 0.35, 3.23 0.25, 3.27 0.19 M3.09 0.45 C3.15 0.37, 3.21 0.28, 3.27 0.19 M3.27 0.19 C3.32 0.12, 3.37 0.06, 3.46 -0.06 M3.27 0.19 C3.34 0.1, 3.4 0.01, 3.46 -0.06 M3.46 -0.06 C3.37 -0.1, 3.28 -0.14, 3.12 -0.2 M3.46 -0.06 C3.38 -0.09, 3.31 -0.13, 3.12 -0.2 M3.12 -0.2 C3.04 -0.24, 2.95 -0.28, 2.8 -0.35 M3.12 -0.2 C3.01 -0.25, 2.9 -0.3, 2.8 -0.35 M2.8 -0.35 C2.71 -0.39, 2.63 -0.43, 2.47 -0.51 M2.8 -0.35 C2.71 -0.39, 2.63 -0.43, 2.47 -0.51 M2.47 -0.51 C2.37 -0.57, 2.26 -0.63, 2.16 -0.69 M2.47 -0.51 C2.4 -0.55, 2.32 -0.6, 2.16 -0.69 M2.16 -0.69 C2.09 -0.73, 2.02 -0.78, 1.86 -0.88 M2.16 -0.69 C2.1 -0.73, 2.04 -0.76, 1.86 -0.88 M1.86 -0.88 C1.79 -0.93, 1.72 -0.97, 1.56 -1.08 M1.86 -0.88 C1.76 -0.94, 1.66 -1.01, 1.56 -1.08 M1.56 -1.08 C1.45 -1.16, 1.35 -1.24, 1.27 -1.3 M1.56 -1.08 C1.5 -1.13, 1.44 -1.17, 1.27 -1.3 M1.27 -1.3 C1.18 -1.37, 1.1 -1.44, 0.99 -1.53 M1.27 -1.3 C1.21 -1.35, 1.16 -1.39, 0.99 -1.53 M0.99 -1.53 C0.88 -1.39, 0.78 -1.25, 0.72 -1.17 M0.99 -1.53 C0.92 -1.44, 0.86 -1.35, 0.72 -1.17 M0.72 -1.17 C0.65 -1.07, 0.59 -0.97, 0.46 -0.79 M0.72 -1.17 C0.66 -1.08, 0.61 -1, 0.46 -0.79 M0.46 -0.79 C0.38 -0.66, 0.3 -0.53, 0.22 -0.4 M0.46 -0.79 C0.41 -0.7, 0.36 -0.62, 0.22 -0.4 M0.22 -0.4 C0.17 -0.31, 0.12 -0.21, 0 0 M0.22 -0.4 C0.16 -0.28, 0.1 -0.17, 0 0 M0 0 C0 0, 0 0, 0 0 M0 0 C0 0, 0 0, 0 0 M0 0 C0 0, 0 0, 0 0 M0 0 C0 0, 0 0, 0 0" stroke="#00000000" stroke-width="1" fill="none"></path></g></g><mask></mask></svg>