<svg version="1.1" xmlns="http://www.w3.org/2000/svg" viewBox="0 0 172 84" width="172" height="84">
  <!-- svg-source:excalidraw -->
  
  <defs>
    
    
  </defs>
  <g stroke-linecap="round" transform="translate(6 6) rotate(0 80 36)"><path d="M18 0 C63.24 0, 108.48 0, 142 0 C154 0, 160 6, 160 18 C160 28.18, 160 38.35, 160 54 C160 66, 154 72, 142 72 C96.43 72, 50.85 72, 18 72 C6 72, 0 66, 0 54 C0 46.71, 0 39.43, 0 18 C0 6, 6 0, 18 0" stroke="none" stroke-width="0" fill="#FFF"></path><path d="M18 0 C65.76 0, 113.53 0, 142 0 M18 0 C52.8 0, 87.6 0, 142 0 M142 0 C154 0, 160 6, 160 18 M142 0 C154 0, 160 6, 160 18 M160 18 C160 31.19, 160 44.38, 160 54 M160 18 C160 28.82, 160 39.65, 160 54 M160 54 C160 66, 154 72, 142 72 M160 54 C160 66, 154 72, 142 72 M142 72 C113.05 72, 84.1 72, 18 72 M142 72 C102.25 72, 62.49 72, 18 72 M18 72 C6 72, 0 66, 0 54 M18 72 C6 72, 0 66, 0 54 M0 54 C0 44.27, 0 34.53, 0 18 M0 54 C0 46.67, 0 39.33, 0 18 M0 18 C0 6, 6 0, 18 0 M0 18 C0 6, 6 0, 18 0" stroke="#4285f4" stroke-width="2" fill="none"></path></g><g transform="translate(71 28) rotate(0 32.5 14)"><text x="0" y="0" font-family="Helvetica, Segoe UI Emoji" font-size="12px" fill="#000000" text-anchor="start" style="white-space: pre;" direction="ltr" dominant-baseline="text-before-edge">Dataprep by</text><text x="0" y="14" font-family="Helvetica, Segoe UI Emoji" font-size="12px" fill="#000000" text-anchor="start" style="white-space: pre;" direction="ltr" dominant-baseline="text-before-edge">Trifacta</text></g><g stroke-linecap="round"><g transform="translate(36.524301528930664 40.36059093475342) rotate(0 4.76837158203125e-7 1.3661742210388184)" fill-rule="evenodd"><path d="M0 0 L0 0 L0.14 0.01 L0.28 0.03 L0.41 0.06 L0.53 0.11 L0.65 0.16 L0.76 0.23 L0.87 0.31 L0.97 0.4 L1.05 0.5 L1.13 0.6 L1.2 0.71 L1.26 0.83 L1.3 0.96 L1.34 1.09 L1.36 1.23 L1.37 1.37 L1.36 1.51 L1.34 1.64 L1.3 1.77 L1.26 1.9 L1.2 2.02 L1.13 2.13 L1.05 2.24 L0.97 2.33 L0.87 2.42 L0.76 2.5 L0.65 2.57 L0.53 2.63 L0.41 2.67 L0.28 2.7 L0.14 2.73 L0 2.73 L-0.14 2.73 L-0.28 2.7 L-0.41 2.67 L-0.53 2.63 L-0.65 2.57 L-0.76 2.5 L-0.87 2.42 L-0.97 2.33 L-1.05 2.24 L-1.13 2.13 L-1.2 2.02 L-1.26 1.9 L-1.3 1.77 L-1.34 1.64 L-1.36 1.51 L-1.37 1.37 L-1.36 1.23 L-1.34 1.09 L-1.3 0.96 L-1.26 0.83 L-1.2 0.71 L-1.13 0.6 L-1.05 0.5 L-0.97 0.4 L-0.87 0.31 L-0.76 0.23 L-0.65 0.16 L-0.53 0.11 L-0.41 0.06 L-0.28 0.03 L-0.14 0.01 L0 0 L0 0" stroke="none" stroke-width="0" fill="#669df6" fill-rule="evenodd"></path><path d="M0 0 C0 0, 0 0, 0 0 M0 0 C0 0, 0 0, 0 0 M0 0 C0.05 0, 0.09 0, 0.14 0.01 M0 0 C0.04 0, 0.09 0, 0.14 0.01 M0.14 0.01 C0.18 0.01, 0.22 0.02, 0.28 0.03 M0.14 0.01 C0.17 0.01, 0.2 0.02, 0.28 0.03 M0.28 0.03 C0.31 0.04, 0.34 0.04, 0.41 0.06 M0.28 0.03 C0.32 0.04, 0.36 0.05, 0.41 0.06 M0.41 0.06 C0.45 0.08, 0.5 0.09, 0.53 0.11 M0.41 0.06 C0.43 0.07, 0.46 0.08, 0.53 0.11 M0.53 0.11 C0.57 0.12, 0.6 0.14, 0.65 0.16 M0.53 0.11 C0.56 0.12, 0.59 0.13, 0.65 0.16 M0.65 0.16 C0.69 0.19, 0.73 0.21, 0.76 0.23 M0.65 0.16 C0.7 0.19, 0.74 0.22, 0.76 0.23 M0.76 0.23 C0.79 0.25, 0.81 0.26, 0.87 0.31 M0.76 0.23 C0.79 0.25, 0.82 0.27, 0.87 0.31 M0.87 0.31 C0.89 0.33, 0.92 0.35, 0.97 0.4 M0.87 0.31 C0.89 0.33, 0.91 0.35, 0.97 0.4 M0.97 0.4 C1 0.43, 1.02 0.46, 1.05 0.5 M0.97 0.4 C0.99 0.42, 1.01 0.45, 1.05 0.5 M1.05 0.5 C1.08 0.54, 1.11 0.58, 1.13 0.6 M1.05 0.5 C1.08 0.52, 1.1 0.55, 1.13 0.6 M1.13 0.6 C1.15 0.63, 1.16 0.65, 1.2 0.71 M1.13 0.6 C1.15 0.63, 1.17 0.65, 1.2 0.71 M1.2 0.71 C1.22 0.75, 1.23 0.78, 1.26 0.83 M1.2 0.71 C1.22 0.75, 1.23 0.78, 1.26 0.83 M1.26 0.83 C1.28 0.88, 1.29 0.92, 1.3 0.96 M1.26 0.83 C1.27 0.87, 1.28 0.9, 1.3 0.96 M1.3 0.96 C1.32 1, 1.33 1.04, 1.34 1.09 M1.3 0.96 C1.32 1.01, 1.33 1.06, 1.34 1.09 M1.34 1.09 C1.35 1.14, 1.35 1.18, 1.36 1.23 M1.34 1.09 C1.35 1.13, 1.35 1.18, 1.36 1.23 M1.36 1.23 C1.36 1.28, 1.36 1.33, 1.37 1.37 M1.36 1.23 C1.36 1.28, 1.36 1.32, 1.37 1.37 M1.37 1.37 C1.36 1.41, 1.36 1.45, 1.36 1.51 M1.37 1.37 C1.36 1.4, 1.36 1.44, 1.36 1.51 M1.36 1.51 C1.35 1.55, 1.35 1.6, 1.34 1.64 M1.36 1.51 C1.35 1.56, 1.34 1.61, 1.34 1.64 M1.34 1.64 C1.33 1.68, 1.32 1.73, 1.3 1.77 M1.34 1.64 C1.33 1.69, 1.31 1.74, 1.3 1.77 M1.3 1.77 C1.29 1.81, 1.28 1.85, 1.26 1.9 M1.3 1.77 C1.29 1.81, 1.28 1.85, 1.26 1.9 M1.26 1.9 C1.25 1.93, 1.23 1.95, 1.2 2.02 M1.26 1.9 C1.24 1.94, 1.22 1.98, 1.2 2.02 M1.2 2.02 C1.18 2.06, 1.15 2.1, 1.13 2.13 M1.2 2.02 C1.19 2.04, 1.17 2.07, 1.13 2.13 M1.13 2.13 C1.1 2.17, 1.07 2.21, 1.05 2.24 M1.13 2.13 C1.11 2.16, 1.09 2.19, 1.05 2.24 M1.05 2.24 C1.03 2.27, 1 2.3, 0.97 2.33 M1.05 2.24 C1.03 2.26, 1 2.29, 0.97 2.33 M0.97 2.33 C0.94 2.35, 0.92 2.37, 0.87 2.42 M0.97 2.33 C0.93 2.36, 0.9 2.39, 0.87 2.42 M0.87 2.42 C0.84 2.44, 0.81 2.47, 0.76 2.5 M0.87 2.42 C0.85 2.44, 0.82 2.46, 0.76 2.5 M0.76 2.5 C0.74 2.52, 0.71 2.53, 0.65 2.57 M0.76 2.5 C0.73 2.52, 0.7 2.54, 0.65 2.57 M0.65 2.57 C0.62 2.58, 0.59 2.6, 0.53 2.63 M0.65 2.57 C0.62 2.58, 0.59 2.6, 0.53 2.63 M0.53 2.63 C0.49 2.64, 0.45 2.65, 0.41 2.67 M0.53 2.63 C0.5 2.64, 0.46 2.65, 0.41 2.67 M0.41 2.67 C0.38 2.68, 0.34 2.69, 0.28 2.7 M0.41 2.67 C0.38 2.68, 0.35 2.69, 0.28 2.7 M0.28 2.7 C0.25 2.71, 0.22 2.71, 0.14 2.73 M0.28 2.7 C0.23 2.71, 0.18 2.72, 0.14 2.73 M0.14 2.73 C0.11 2.73, 0.08 2.73, 0 2.73 M0.14 2.73 C0.09 2.73, 0.03 2.73, 0 2.73 M0 2.73 C-0.05 2.73, -0.09 2.73, -0.14 2.73 M0 2.73 C-0.05 2.73, -0.1 2.73, -0.14 2.73 M-0.14 2.73 C-0.17 2.72, -0.2 2.72, -0.28 2.7 M-0.14 2.73 C-0.18 2.72, -0.22 2.71, -0.28 2.7 M-0.28 2.7 C-0.31 2.7, -0.34 2.69, -0.41 2.67 M-0.28 2.7 C-0.31 2.7, -0.35 2.69, -0.41 2.67 M-0.41 2.67 C-0.46 2.65, -0.51 2.63, -0.53 2.63 M-0.41 2.67 C-0.45 2.66, -0.48 2.64, -0.53 2.63 M-0.53 2.63 C-0.56 2.61, -0.59 2.6, -0.65 2.57 M-0.53 2.63 C-0.56 2.61, -0.6 2.59, -0.65 2.57 M-0.65 2.57 C-0.69 2.55, -0.72 2.53, -0.76 2.5 M-0.65 2.57 C-0.7 2.54, -0.74 2.51, -0.76 2.5 M-0.76 2.5 C-0.8 2.47, -0.84 2.44, -0.87 2.42 M-0.76 2.5 C-0.8 2.47, -0.84 2.44, -0.87 2.42 M-0.87 2.42 C-0.9 2.4, -0.92 2.37, -0.97 2.33 M-0.87 2.42 C-0.89 2.4, -0.92 2.38, -0.97 2.33 M-0.97 2.33 C-1 2.29, -1.04 2.26, -1.05 2.24 M-0.97 2.33 C-0.99 2.3, -1.02 2.27, -1.05 2.24 M-1.05 2.24 C-1.08 2.21, -1.1 2.18, -1.13 2.13 M-1.05 2.24 C-1.08 2.21, -1.1 2.18, -1.13 2.13 M-1.13 2.13 C-1.15 2.1, -1.17 2.07, -1.2 2.02 M-1.13 2.13 C-1.15 2.1, -1.17 2.07, -1.2 2.02 M-1.2 2.02 C-1.22 1.97, -1.24 1.93, -1.26 1.9 M-1.2 2.02 C-1.22 1.99, -1.23 1.96, -1.26 1.9 M-1.26 1.9 C-1.28 1.85, -1.29 1.81, -1.3 1.77 M-1.26 1.9 C-1.28 1.85, -1.29 1.81, -1.3 1.77 M-1.3 1.77 C-1.32 1.73, -1.33 1.69, -1.34 1.64 M-1.3 1.77 C-1.31 1.74, -1.32 1.7, -1.34 1.64 M-1.34 1.64 C-1.35 1.6, -1.35 1.56, -1.36 1.51 M-1.34 1.64 C-1.35 1.59, -1.35 1.54, -1.36 1.51 M-1.36 1.51 C-1.36 1.46, -1.36 1.41, -1.37 1.37 M-1.36 1.51 C-1.36 1.45, -1.36 1.4, -1.37 1.37 M-1.37 1.37 C-1.36 1.33, -1.36 1.3, -1.36 1.23 M-1.37 1.37 C-1.36 1.34, -1.36 1.31, -1.36 1.23 M-1.36 1.23 C-1.35 1.17, -1.34 1.12, -1.34 1.09 M-1.36 1.23 C-1.35 1.2, -1.35 1.17, -1.34 1.09 M-1.34 1.09 C-1.33 1.04, -1.31 0.99, -1.3 0.96 M-1.34 1.09 C-1.33 1.04, -1.31 0.99, -1.3 0.96 M-1.3 0.96 C-1.29 0.93, -1.28 0.9, -1.26 0.83 M-1.3 0.96 C-1.29 0.93, -1.28 0.9, -1.26 0.83 M-1.26 0.83 C-1.24 0.8, -1.22 0.76, -1.2 0.71 M-1.26 0.83 C-1.25 0.81, -1.24 0.78, -1.2 0.71 M-1.2 0.71 C-1.19 0.69, -1.17 0.67, -1.13 0.6 M-1.2 0.71 C-1.18 0.68, -1.16 0.64, -1.13 0.6 M-1.13 0.6 C-1.1 0.56, -1.08 0.52, -1.05 0.5 M-1.13 0.6 C-1.1 0.56, -1.08 0.52, -1.05 0.5 M-1.05 0.5 C-1.03 0.47, -1.01 0.44, -0.97 0.4 M-1.05 0.5 C-1.03 0.47, -1.01 0.45, -0.97 0.4 M-0.97 0.4 C-0.94 0.38, -0.92 0.36, -0.87 0.31 M-0.97 0.4 C-0.94 0.37, -0.9 0.34, -0.87 0.31 M-0.87 0.31 C-0.84 0.29, -0.81 0.27, -0.76 0.23 M-0.87 0.31 C-0.85 0.29, -0.83 0.28, -0.76 0.23 M-0.76 0.23 C-0.73 0.21, -0.7 0.19, -0.65 0.16 M-0.76 0.23 C-0.72 0.21, -0.68 0.18, -0.65 0.16 M-0.65 0.16 C-0.62 0.15, -0.59 0.14, -0.53 0.11 M-0.65 0.16 C-0.62 0.15, -0.59 0.14, -0.53 0.11 M-0.53 0.11 C-0.5 0.1, -0.47 0.08, -0.41 0.06 M-0.53 0.11 C-0.48 0.09, -0.43 0.07, -0.41 0.06 M-0.41 0.06 C-0.36 0.05, -0.32 0.04, -0.28 0.03 M-0.41 0.06 C-0.36 0.05, -0.31 0.04, -0.28 0.03 M-0.28 0.03 C-0.25 0.02, -0.22 0.02, -0.14 0.01 M-0.28 0.03 C-0.25 0.02, -0.22 0.02, -0.14 0.01 M-0.14 0.01 C-0.1 0, -0.05 0, 0 0 M-0.14 0.01 C-0.09 0, -0.03 0, 0 0 M0 0 C0 0, 0 0, 0 0 M0 0 C0 0, 0 0, 0 0 M0 0 C0 0, 0 0, 0 0 M0 0 C0 0, 0 0, 0 0" stroke="transparent" stroke-width="1" fill="none"></path></g></g><mask></mask><g stroke-linecap="round"><g transform="translate(36.524301528930664 39.15730667114258) rotate(0 -0.015762805938720703 2.5694589614868164)" fill-rule="evenodd"><path d="M0 0 L0 0 L-0.26 0.01 L-0.52 0.05 L-0.76 0.11 L-1 0.2 L-1.23 0.3 L-1.44 0.43 L-1.64 0.58 L-1.82 0.74 L-1.99 0.92 L-2.14 1.12 L-2.27 1.33 L-2.38 1.55 L-2.46 1.79 L-2.53 2.04 L-2.57 2.29 L-2.59 2.55 L-2.57 2.82 L-2.54 3.07 L-2.48 3.32 L-2.39 3.55 L-2.28 3.78 L-2.16 3.99 L-2.01 4.19 L-1.84 4.37 L-1.66 4.54 L-1.47 4.69 L-1.25 4.82 L-1.03 4.93 L-0.79 5.02 L-0.55 5.08 L-0.29 5.12 L-0.03 5.14 L0.23 5.13 L0.49 5.09 L0.73 5.03 L0.97 4.94 L1.19 4.84 L1.41 4.71 L1.61 4.56 L1.79 4.4 L1.96 4.22 L2.11 4.02 L2.24 3.81 L2.34 3.58 L2.43 3.35 L2.5 3.1 L2.54 2.85 L2.55 2.59 L2.55 2.57 L2.55 2.57 L2.54 2.31 L2.51 2.06 L2.44 1.81 L2.36 1.58 L2.25 1.35 L2.13 1.14 L1.98 0.94 L1.82 0.76 L1.64 0.59 L1.44 0.45 L1.23 0.32 L1.01 0.21 L0.77 0.12 L0.53 0.06 L0.28 0.02 L0.02 0 L0 0 L0 0" stroke="none" stroke-width="0" fill="#669df6" fill-rule="evenodd"></path><path d="M0 0 C0 0, 0 0, 0 0 M0 0 C0 0, 0 0, 0 0 M0 0 C-0.09 0, -0.17 0.01, -0.26 0.01 M0 0 C-0.06 0, -0.11 0, -0.26 0.01 M-0.26 0.01 C-0.34 0.02, -0.42 0.03, -0.52 0.05 M-0.26 0.01 C-0.35 0.02, -0.45 0.04, -0.52 0.05 M-0.52 0.05 C-0.61 0.07, -0.69 0.09, -0.76 0.11 M-0.52 0.05 C-0.58 0.07, -0.65 0.08, -0.76 0.11 M-0.76 0.11 C-0.83 0.13, -0.89 0.15, -1 0.2 M-0.76 0.11 C-0.83 0.13, -0.89 0.16, -1 0.2 M-1 0.2 C-1.05 0.22, -1.09 0.24, -1.23 0.3 M-1 0.2 C-1.05 0.22, -1.1 0.24, -1.23 0.3 M-1.23 0.3 C-1.3 0.35, -1.38 0.4, -1.44 0.43 M-1.23 0.3 C-1.31 0.35, -1.4 0.4, -1.44 0.43 M-1.44 0.43 C-1.5 0.47, -1.56 0.52, -1.64 0.58 M-1.44 0.43 C-1.5 0.47, -1.56 0.52, -1.64 0.58 M-1.64 0.58 C-1.71 0.64, -1.78 0.71, -1.82 0.74 M-1.64 0.58 C-1.7 0.63, -1.76 0.69, -1.82 0.74 M-1.82 0.74 C-1.89 0.81, -1.95 0.89, -1.99 0.92 M-1.82 0.74 C-1.86 0.79, -1.9 0.83, -1.99 0.92 M-1.99 0.92 C-2.03 0.98, -2.07 1.03, -2.14 1.12 M-1.99 0.92 C-2.04 0.99, -2.09 1.06, -2.14 1.12 M-2.14 1.12 C-2.16 1.16, -2.19 1.21, -2.27 1.33 M-2.14 1.12 C-2.18 1.2, -2.23 1.27, -2.27 1.33 M-2.27 1.33 C-2.31 1.41, -2.35 1.49, -2.38 1.55 M-2.27 1.33 C-2.3 1.41, -2.34 1.49, -2.38 1.55 M-2.38 1.55 C-2.41 1.63, -2.44 1.71, -2.46 1.79 M-2.38 1.55 C-2.4 1.61, -2.42 1.67, -2.46 1.79 M-2.46 1.79 C-2.49 1.88, -2.51 1.96, -2.53 2.04 M-2.46 1.79 C-2.49 1.88, -2.51 1.98, -2.53 2.04 M-2.53 2.04 C-2.54 2.09, -2.55 2.14, -2.57 2.29 M-2.53 2.04 C-2.54 2.11, -2.55 2.18, -2.57 2.29 M-2.57 2.29 C-2.58 2.39, -2.58 2.48, -2.59 2.55 M-2.57 2.29 C-2.58 2.39, -2.58 2.49, -2.59 2.55 M-2.59 2.55 C-2.58 2.63, -2.58 2.7, -2.57 2.82 M-2.59 2.55 C-2.58 2.65, -2.58 2.74, -2.57 2.82 M-2.57 2.82 C-2.56 2.89, -2.55 2.96, -2.54 3.07 M-2.57 2.82 C-2.56 2.9, -2.55 2.98, -2.54 3.07 M-2.54 3.07 C-2.52 3.14, -2.5 3.21, -2.48 3.32 M-2.54 3.07 C-2.52 3.15, -2.5 3.23, -2.48 3.32 M-2.48 3.32 C-2.46 3.37, -2.44 3.42, -2.39 3.55 M-2.48 3.32 C-2.45 3.39, -2.42 3.46, -2.39 3.55 M-2.39 3.55 C-2.36 3.63, -2.32 3.7, -2.28 3.78 M-2.39 3.55 C-2.36 3.62, -2.33 3.69, -2.28 3.78 M-2.28 3.78 C-2.25 3.83, -2.22 3.88, -2.16 3.99 M-2.28 3.78 C-2.25 3.84, -2.21 3.9, -2.16 3.99 M-2.16 3.99 C-2.12 4.03, -2.09 4.08, -2.01 4.19 M-2.16 3.99 C-2.12 4.04, -2.09 4.09, -2.01 4.19 M-2.01 4.19 C-1.98 4.23, -1.94 4.27, -1.84 4.37 M-2.01 4.19 C-1.95 4.26, -1.89 4.32, -1.84 4.37 M-1.84 4.37 C-1.78 4.44, -1.71 4.5, -1.66 4.54 M-1.84 4.37 C-1.78 4.43, -1.72 4.49, -1.66 4.54 M-1.66 4.54 C-1.59 4.59, -1.52 4.65, -1.47 4.69 M-1.66 4.54 C-1.62 4.58, -1.57 4.61, -1.47 4.69 M-1.47 4.69 C-1.41 4.72, -1.36 4.75, -1.25 4.82 M-1.47 4.69 C-1.42 4.72, -1.37 4.75, -1.25 4.82 M-1.25 4.82 C-1.17 4.86, -1.09 4.9, -1.03 4.93 M-1.25 4.82 C-1.17 4.86, -1.09 4.9, -1.03 4.93 M-1.03 4.93 C-0.95 4.96, -0.87 4.99, -0.79 5.02 M-1.03 4.93 C-0.94 4.96, -0.85 5, -0.79 5.02 M-0.79 5.02 C-0.73 5.03, -0.67 5.05, -0.55 5.08 M-0.79 5.02 C-0.73 5.04, -0.66 5.05, -0.55 5.08 M-0.55 5.08 C-0.5 5.09, -0.44 5.1, -0.29 5.12 M-0.55 5.08 C-0.49 5.09, -0.42 5.1, -0.29 5.12 M-0.29 5.12 C-0.23 5.13, -0.17 5.13, -0.03 5.14 M-0.29 5.12 C-0.21 5.13, -0.12 5.13, -0.03 5.14 M-0.03 5.14 C0.03 5.14, 0.09 5.13, 0.23 5.13 M-0.03 5.14 C0.02 5.14, 0.08 5.13, 0.23 5.13 M0.23 5.13 C0.32 5.12, 0.4 5.1, 0.49 5.09 M0.23 5.13 C0.3 5.12, 0.36 5.11, 0.49 5.09 M0.49 5.09 C0.58 5.07, 0.68 5.04, 0.73 5.03 M0.49 5.09 C0.54 5.08, 0.59 5.06, 0.73 5.03 M0.73 5.03 C0.81 5, 0.89 4.97, 0.97 4.94 M0.73 5.03 C0.79 5.01, 0.84 4.99, 0.97 4.94 M0.97 4.94 C1.06 4.9, 1.14 4.86, 1.19 4.84 M0.97 4.94 C1.03 4.91, 1.09 4.89, 1.19 4.84 M1.19 4.84 C1.24 4.81, 1.29 4.78, 1.41 4.71 M1.19 4.84 C1.25 4.8, 1.31 4.77, 1.41 4.71 M1.41 4.71 C1.46 4.67, 1.52 4.63, 1.61 4.56 M1.41 4.71 C1.45 4.68, 1.49 4.65, 1.61 4.56 M1.61 4.56 C1.64 4.53, 1.68 4.49, 1.79 4.4 M1.61 4.56 C1.67 4.5, 1.74 4.44, 1.79 4.4 M1.79 4.4 C1.83 4.36, 1.86 4.32, 1.96 4.22 M1.79 4.4 C1.85 4.34, 1.9 4.27, 1.96 4.22 M1.96 4.22 C1.99 4.17, 2.02 4.13, 2.11 4.02 M1.96 4.22 C2 4.15, 2.05 4.09, 2.11 4.02 M2.11 4.02 C2.16 3.94, 2.21 3.86, 2.24 3.81 M2.11 4.02 C2.15 3.95, 2.2 3.87, 2.24 3.81 M2.24 3.81 C2.26 3.75, 2.29 3.7, 2.34 3.58 M2.24 3.81 C2.27 3.74, 2.3 3.68, 2.34 3.58 M2.34 3.58 C2.38 3.49, 2.41 3.4, 2.43 3.35 M2.34 3.58 C2.38 3.49, 2.41 3.4, 2.43 3.35 M2.43 3.35 C2.46 3.25, 2.48 3.15, 2.5 3.1 M2.43 3.35 C2.45 3.29, 2.46 3.23, 2.5 3.1 M2.5 3.1 C2.51 3.03, 2.52 2.96, 2.54 2.85 M2.5 3.1 C2.51 3.04, 2.52 2.98, 2.54 2.85 M2.54 2.85 C2.54 2.79, 2.55 2.72, 2.55 2.59 M2.54 2.85 C2.54 2.77, 2.55 2.7, 2.55 2.59 M2.55 2.59 C2.55 2.58, 2.55 2.57, 2.55 2.57 M2.55 2.59 C2.55 2.58, 2.55 2.57, 2.55 2.57 M2.55 2.57 C2.55 2.57, 2.55 2.57, 2.55 2.57 M2.55 2.57 C2.55 2.57, 2.55 2.57, 2.55 2.57 M2.55 2.57 C2.55 2.49, 2.55 2.4, 2.54 2.31 M2.55 2.57 C2.55 2.48, 2.55 2.39, 2.54 2.31 M2.54 2.31 C2.53 2.25, 2.53 2.2, 2.51 2.06 M2.54 2.31 C2.53 2.25, 2.53 2.2, 2.51 2.06 M2.51 2.06 C2.48 1.96, 2.46 1.87, 2.44 1.81 M2.51 2.06 C2.48 1.97, 2.46 1.89, 2.44 1.81 M2.44 1.81 C2.41 1.72, 2.38 1.64, 2.36 1.58 M2.44 1.81 C2.42 1.74, 2.39 1.66, 2.36 1.58 M2.36 1.58 C2.33 1.51, 2.3 1.44, 2.25 1.35 M2.36 1.58 C2.33 1.52, 2.31 1.47, 2.25 1.35 M2.25 1.35 C2.22 1.3, 2.19 1.25, 2.13 1.14 M2.25 1.35 C2.21 1.28, 2.17 1.21, 2.13 1.14 M2.13 1.14 C2.07 1.07, 2.02 0.99, 1.98 0.94 M2.13 1.14 C2.09 1.1, 2.06 1.05, 1.98 0.94 M1.98 0.94 C1.94 0.89, 1.89 0.84, 1.82 0.76 M1.98 0.94 C1.92 0.87, 1.86 0.81, 1.82 0.76 M1.82 0.76 C1.77 0.72, 1.73 0.68, 1.64 0.59 M1.82 0.76 C1.76 0.71, 1.71 0.66, 1.64 0.59 M1.64 0.59 C1.56 0.54, 1.49 0.48, 1.44 0.45 M1.64 0.59 C1.58 0.56, 1.53 0.52, 1.44 0.45 M1.44 0.45 C1.38 0.41, 1.32 0.37, 1.23 0.32 M1.44 0.45 C1.38 0.41, 1.32 0.37, 1.23 0.32 M1.23 0.32 C1.15 0.28, 1.06 0.23, 1.01 0.21 M1.23 0.32 C1.17 0.29, 1.11 0.26, 1.01 0.21 M1.01 0.21 C0.96 0.19, 0.91 0.17, 0.77 0.12 M1.01 0.21 C0.94 0.18, 0.88 0.16, 0.77 0.12 M0.77 0.12 C0.69 0.1, 0.6 0.08, 0.53 0.06 M0.77 0.12 C0.68 0.1, 0.59 0.07, 0.53 0.06 M0.53 0.06 C0.46 0.04, 0.39 0.03, 0.28 0.02 M0.53 0.06 C0.43 0.04, 0.34 0.03, 0.28 0.02 M0.28 0.02 C0.2 0.01, 0.12 0.01, 0.02 0 M0.28 0.02 C0.21 0.01, 0.14 0.01, 0.02 0 M0.02 0 C0.01 0, 0.01 0, 0 0 M0.02 0 C0.01 0, 0.01 0, 0 0 M0 0 C0 0, 0 0, 0 0 M0 0 C0 0, 0 0, 0 0 M0 0 C0 0, 0 0, 0 0 M0 0 C0 0, 0 0, 0 0" stroke="transparent" stroke-width="1" fill="none"></path></g></g><mask></mask><g stroke-linecap="round"><g transform="translate(27.649425506591797 40.36059093475342) rotate(0 -2.384185791015625e-7 1.3661742210388184)" fill-rule="evenodd"><path d="M0 0 L0 0 L0.14 0.01 L0.28 0.03 L0.41 0.06 L0.53 0.11 L0.65 0.16 L0.76 0.23 L0.87 0.31 L0.97 0.4 L1.05 0.5 L1.13 0.6 L1.2 0.71 L1.26 0.83 L1.3 0.96 L1.34 1.09 L1.36 1.23 L1.37 1.37 L1.36 1.51 L1.34 1.64 L1.3 1.77 L1.26 1.9 L1.2 2.02 L1.13 2.13 L1.05 2.24 L0.97 2.33 L0.87 2.42 L0.76 2.5 L0.65 2.57 L0.53 2.63 L0.41 2.67 L0.28 2.7 L0.14 2.73 L0 2.73 L-0.14 2.73 L-0.28 2.7 L-0.41 2.67 L-0.53 2.63 L-0.65 2.57 L-0.76 2.5 L-0.87 2.42 L-0.97 2.33 L-1.05 2.24 L-1.13 2.13 L-1.2 2.02 L-1.26 1.9 L-1.3 1.77 L-1.34 1.64 L-1.36 1.51 L-1.37 1.37 L-1.36 1.23 L-1.34 1.09 L-1.31 0.96 L-1.26 0.83 L-1.2 0.71 L-1.14 0.6 L-1.06 0.5 L-0.97 0.4 L-0.87 0.31 L-0.77 0.23 L-0.65 0.16 L-0.53 0.11 L-0.41 0.06 L-0.28 0.03 L-0.14 0.01 L0 0 L0 0" stroke="none" stroke-width="0" fill="#669df6" fill-rule="evenodd"></path><path d="M0 0 C0 0, 0 0, 0 0 M0 0 C0 0, 0 0, 0 0 M0 0 C0.03 0, 0.07 0, 0.14 0.01 M0 0 C0.04 0, 0.08 0, 0.14 0.01 M0.14 0.01 C0.19 0.01, 0.24 0.02, 0.28 0.03 M0.14 0.01 C0.19 0.01, 0.23 0.02, 0.28 0.03 M0.28 0.03 C0.32 0.04, 0.37 0.05, 0.41 0.06 M0.28 0.03 C0.31 0.04, 0.35 0.05, 0.41 0.06 M0.41 0.06 C0.44 0.07, 0.46 0.08, 0.53 0.11 M0.41 0.06 C0.44 0.07, 0.48 0.09, 0.53 0.11 M0.53 0.11 C0.57 0.13, 0.62 0.15, 0.65 0.16 M0.53 0.11 C0.57 0.12, 0.61 0.14, 0.65 0.16 M0.65 0.16 C0.69 0.19, 0.73 0.21, 0.76 0.23 M0.65 0.16 C0.68 0.18, 0.71 0.2, 0.76 0.23 M0.76 0.23 C0.79 0.25, 0.82 0.27, 0.87 0.31 M0.76 0.23 C0.8 0.26, 0.83 0.28, 0.87 0.31 M0.87 0.31 C0.91 0.34, 0.94 0.38, 0.97 0.4 M0.87 0.31 C0.9 0.34, 0.93 0.36, 0.97 0.4 M0.97 0.4 C1 0.44, 1.04 0.47, 1.05 0.5 M0.97 0.4 C1 0.43, 1.03 0.46, 1.05 0.5 M1.05 0.5 C1.08 0.53, 1.1 0.56, 1.13 0.6 M1.05 0.5 C1.08 0.52, 1.1 0.55, 1.13 0.6 M1.13 0.6 C1.16 0.65, 1.19 0.69, 1.2 0.71 M1.13 0.6 C1.16 0.65, 1.19 0.69, 1.2 0.71 M1.2 0.71 C1.22 0.75, 1.23 0.78, 1.26 0.83 M1.2 0.71 C1.22 0.75, 1.24 0.79, 1.26 0.83 M1.26 0.83 C1.27 0.87, 1.29 0.91, 1.3 0.96 M1.26 0.83 C1.28 0.88, 1.29 0.93, 1.3 0.96 M1.3 0.96 C1.32 1.01, 1.33 1.06, 1.34 1.09 M1.3 0.96 C1.32 1.01, 1.33 1.06, 1.34 1.09 M1.34 1.09 C1.35 1.14, 1.35 1.2, 1.36 1.23 M1.34 1.09 C1.34 1.12, 1.35 1.15, 1.36 1.23 M1.36 1.23 C1.36 1.28, 1.36 1.34, 1.37 1.37 M1.36 1.23 C1.36 1.28, 1.36 1.32, 1.37 1.37 M1.37 1.37 C1.36 1.4, 1.36 1.43, 1.36 1.51 M1.37 1.37 C1.36 1.41, 1.36 1.45, 1.36 1.51 M1.36 1.51 C1.35 1.55, 1.35 1.6, 1.34 1.64 M1.36 1.51 C1.35 1.55, 1.35 1.59, 1.34 1.64 M1.34 1.64 C1.33 1.68, 1.32 1.71, 1.3 1.77 M1.34 1.64 C1.33 1.69, 1.31 1.74, 1.3 1.77 M1.3 1.77 C1.3 1.8, 1.29 1.83, 1.26 1.9 M1.3 1.77 C1.29 1.82, 1.27 1.87, 1.26 1.9 M1.26 1.9 C1.25 1.93, 1.23 1.95, 1.2 2.02 M1.26 1.9 C1.24 1.94, 1.22 1.98, 1.2 2.02 M1.2 2.02 C1.18 2.05, 1.16 2.09, 1.13 2.13 M1.2 2.02 C1.18 2.06, 1.15 2.1, 1.13 2.13 M1.13 2.13 C1.1 2.17, 1.08 2.21, 1.05 2.24 M1.13 2.13 C1.1 2.17, 1.07 2.21, 1.05 2.24 M1.05 2.24 C1.02 2.27, 0.99 2.3, 0.97 2.33 M1.05 2.24 C1.04 2.26, 1.02 2.28, 0.97 2.33 M0.97 2.33 C0.93 2.37, 0.89 2.4, 0.87 2.42 M0.97 2.33 C0.93 2.36, 0.9 2.39, 0.87 2.42 M0.87 2.42 C0.84 2.44, 0.82 2.46, 0.76 2.5 M0.87 2.42 C0.84 2.45, 0.81 2.47, 0.76 2.5 M0.76 2.5 C0.73 2.52, 0.7 2.54, 0.65 2.57 M0.76 2.5 C0.73 2.52, 0.7 2.54, 0.65 2.57 M0.65 2.57 C0.61 2.59, 0.56 2.61, 0.53 2.63 M0.65 2.57 C0.61 2.59, 0.57 2.61, 0.53 2.63 M0.53 2.63 C0.49 2.64, 0.44 2.66, 0.41 2.67 M0.53 2.63 C0.5 2.64, 0.46 2.65, 0.41 2.67 M0.41 2.67 C0.36 2.68, 0.3 2.7, 0.28 2.7 M0.41 2.67 C0.37 2.68, 0.33 2.69, 0.28 2.7 M0.28 2.7 C0.23 2.71, 0.18 2.72, 0.14 2.73 M0.28 2.7 C0.23 2.71, 0.19 2.72, 0.14 2.73 M0.14 2.73 C0.1 2.73, 0.05 2.73, 0 2.73 M0.14 2.73 C0.11 2.73, 0.08 2.73, 0 2.73 M0 2.73 C-0.05 2.73, -0.1 2.73, -0.14 2.73 M0 2.73 C-0.04 2.73, -0.08 2.73, -0.14 2.73 M-0.14 2.73 C-0.17 2.72, -0.2 2.72, -0.28 2.7 M-0.14 2.73 C-0.18 2.72, -0.22 2.71, -0.28 2.7 M-0.28 2.7 C-0.31 2.7, -0.34 2.69, -0.41 2.67 M-0.28 2.7 C-0.31 2.7, -0.35 2.69, -0.41 2.67 M-0.41 2.67 C-0.44 2.66, -0.48 2.65, -0.53 2.63 M-0.41 2.67 C-0.45 2.66, -0.49 2.64, -0.53 2.63 M-0.53 2.63 C-0.57 2.61, -0.61 2.59, -0.65 2.57 M-0.53 2.63 C-0.57 2.61, -0.6 2.59, -0.65 2.57 M-0.65 2.57 C-0.68 2.55, -0.7 2.54, -0.76 2.5 M-0.65 2.57 C-0.69 2.55, -0.73 2.52, -0.76 2.5 M-0.76 2.5 C-0.79 2.48, -0.82 2.46, -0.87 2.42 M-0.76 2.5 C-0.79 2.48, -0.82 2.46, -0.87 2.42 M-0.87 2.42 C-0.91 2.39, -0.95 2.35, -0.97 2.33 M-0.87 2.42 C-0.89 2.4, -0.92 2.38, -0.97 2.33 M-0.97 2.33 C-0.99 2.3, -1.02 2.27, -1.05 2.24 M-0.97 2.33 C-0.99 2.31, -1.01 2.28, -1.05 2.24 M-1.05 2.24 C-1.08 2.2, -1.1 2.17, -1.13 2.13 M-1.05 2.24 C-1.07 2.21, -1.09 2.18, -1.13 2.13 M-1.13 2.13 C-1.15 2.1, -1.17 2.07, -1.2 2.02 M-1.13 2.13 C-1.16 2.09, -1.18 2.05, -1.2 2.02 M-1.2 2.02 C-1.22 1.97, -1.25 1.93, -1.26 1.9 M-1.2 2.02 C-1.22 1.98, -1.24 1.94, -1.26 1.9 M-1.26 1.9 C-1.27 1.87, -1.28 1.85, -1.3 1.77 M-1.26 1.9 C-1.27 1.87, -1.28 1.84, -1.3 1.77 M-1.3 1.77 C-1.32 1.73, -1.33 1.68, -1.34 1.64 M-1.3 1.77 C-1.32 1.73, -1.33 1.69, -1.34 1.64 M-1.34 1.64 C-1.34 1.6, -1.35 1.56, -1.36 1.51 M-1.34 1.64 C-1.34 1.6, -1.35 1.56, -1.36 1.51 M-1.36 1.51 C-1.36 1.46, -1.36 1.42, -1.37 1.37 M-1.36 1.51 C-1.36 1.47, -1.36 1.43, -1.37 1.37 M-1.37 1.37 C-1.36 1.32, -1.36 1.27, -1.36 1.23 M-1.37 1.37 C-1.36 1.33, -1.36 1.29, -1.36 1.23 M-1.36 1.23 C-1.35 1.19, -1.35 1.16, -1.34 1.09 M-1.36 1.23 C-1.35 1.19, -1.35 1.16, -1.34 1.09 M-1.34 1.09 C-1.33 1.04, -1.32 1, -1.31 0.96 M-1.34 1.09 C-1.33 1.06, -1.33 1.03, -1.31 0.96 M-1.31 0.96 C-1.3 0.93, -1.29 0.91, -1.26 0.83 M-1.31 0.96 C-1.29 0.91, -1.27 0.86, -1.26 0.83 M-1.26 0.83 C-1.25 0.8, -1.23 0.78, -1.2 0.71 M-1.26 0.83 C-1.24 0.79, -1.22 0.74, -1.2 0.71 M-1.2 0.71 C-1.19 0.69, -1.18 0.67, -1.14 0.6 M-1.2 0.71 C-1.18 0.68, -1.16 0.64, -1.14 0.6 M-1.14 0.6 C-1.1 0.56, -1.07 0.52, -1.06 0.5 M-1.14 0.6 C-1.11 0.57, -1.09 0.54, -1.06 0.5 M-1.06 0.5 C-1.03 0.47, -1 0.44, -0.97 0.4 M-1.06 0.5 C-1.04 0.47, -1.02 0.45, -0.97 0.4 M-0.97 0.4 C-0.94 0.37, -0.9 0.34, -0.87 0.31 M-0.97 0.4 C-0.94 0.37, -0.91 0.35, -0.87 0.31 M-0.87 0.31 C-0.84 0.29, -0.81 0.27, -0.77 0.23 M-0.87 0.31 C-0.84 0.29, -0.81 0.26, -0.77 0.23 M-0.77 0.23 C-0.72 0.21, -0.68 0.18, -0.65 0.16 M-0.77 0.23 C-0.73 0.21, -0.69 0.19, -0.65 0.16 M-0.65 0.16 C-0.62 0.15, -0.6 0.14, -0.53 0.11 M-0.65 0.16 C-0.62 0.15, -0.59 0.13, -0.53 0.11 M-0.53 0.11 C-0.5 0.09, -0.47 0.08, -0.41 0.06 M-0.53 0.11 C-0.5 0.09, -0.46 0.08, -0.41 0.06 M-0.41 0.06 C-0.36 0.05, -0.3 0.03, -0.28 0.03 M-0.41 0.06 C-0.36 0.05, -0.31 0.04, -0.28 0.03 M-0.28 0.03 C-0.24 0.02, -0.2 0.02, -0.14 0.01 M-0.28 0.03 C-0.23 0.02, -0.18 0.01, -0.14 0.01 M-0.14 0.01 C-0.09 0, -0.04 0, 0 0 M-0.14 0.01 C-0.11 0.01, -0.08 0, 0 0 M0 0 C0 0, 0 0, 0 0 M0 0 C0 0, 0 0, 0 0 M0 0 C0 0, 0 0, 0 0 M0 0 C0 0, 0 0, 0 0" stroke="transparent" stroke-width="1" fill="none"></path></g></g><mask></mask><g stroke-linecap="round"><g transform="translate(27.649425506591797 39.15730667114258) rotate(0 -0.01576364040374756 2.5694589614868164)" fill-rule="evenodd"><path d="M0 0 L0 0 L-0.26 0.01 L-0.52 0.05 L-0.76 0.11 L-1 0.2 L-1.23 0.3 L-1.44 0.43 L-1.64 0.58 L-1.82 0.74 L-1.99 0.92 L-2.14 1.12 L-2.27 1.33 L-2.38 1.55 L-2.46 1.79 L-2.53 2.04 L-2.57 2.29 L-2.59 2.55 L-2.57 2.82 L-2.54 3.07 L-2.48 3.32 L-2.39 3.55 L-2.28 3.78 L-2.16 3.99 L-2.01 4.19 L-1.84 4.37 L-1.66 4.54 L-1.47 4.69 L-1.25 4.82 L-1.03 4.93 L-0.79 5.02 L-0.55 5.08 L-0.29 5.12 L-0.03 5.14 L0.23 5.13 L0.49 5.09 L0.73 5.03 L0.97 4.94 L1.19 4.84 L1.41 4.71 L1.61 4.56 L1.79 4.4 L1.96 4.22 L2.11 4.02 L2.24 3.81 L2.34 3.58 L2.43 3.35 L2.5 3.1 L2.54 2.85 L2.55 2.59 L2.55 2.57 L2.55 2.57 L2.54 2.31 L2.51 2.06 L2.44 1.81 L2.36 1.58 L2.25 1.35 L2.13 1.14 L1.98 0.94 L1.82 0.76 L1.64 0.59 L1.44 0.45 L1.23 0.32 L1.01 0.21 L0.77 0.12 L0.53 0.06 L0.28 0.02 L0.02 0 L0 0 L0 0" stroke="none" stroke-width="0" fill="#669df6" fill-rule="evenodd"></path><path d="M0 0 C0 0, 0 0, 0 0 M0 0 C0 0, 0 0, 0 0 M0 0 C-0.08 0, -0.16 0.01, -0.26 0.01 M0 0 C-0.1 0, -0.2 0.01, -0.26 0.01 M-0.26 0.01 C-0.32 0.02, -0.37 0.03, -0.52 0.05 M-0.26 0.01 C-0.33 0.02, -0.39 0.03, -0.52 0.05 M-0.52 0.05 C-0.61 0.07, -0.71 0.1, -0.76 0.11 M-0.52 0.05 C-0.59 0.07, -0.67 0.09, -0.76 0.11 M-0.76 0.11 C-0.81 0.13, -0.86 0.14, -1 0.2 M-0.76 0.11 C-0.86 0.14, -0.95 0.18, -1 0.2 M-1 0.2 C-1.08 0.23, -1.16 0.27, -1.23 0.3 M-1 0.2 C-1.08 0.23, -1.17 0.27, -1.23 0.3 M-1.23 0.3 C-1.29 0.34, -1.36 0.38, -1.44 0.43 M-1.23 0.3 C-1.27 0.33, -1.32 0.36, -1.44 0.43 M-1.44 0.43 C-1.51 0.48, -1.57 0.53, -1.64 0.58 M-1.44 0.43 C-1.51 0.48, -1.58 0.54, -1.64 0.58 M-1.64 0.58 C-1.67 0.61, -1.71 0.64, -1.82 0.74 M-1.64 0.58 C-1.69 0.62, -1.74 0.67, -1.82 0.74 M-1.82 0.74 C-1.87 0.8, -1.92 0.85, -1.99 0.92 M-1.82 0.74 C-1.89 0.81, -1.95 0.88, -1.99 0.92 M-1.99 0.92 C-2.04 1, -2.1 1.07, -2.14 1.12 M-1.99 0.92 C-2.02 0.97, -2.05 1.01, -2.14 1.12 M-2.14 1.12 C-2.18 1.2, -2.23 1.27, -2.27 1.33 M-2.14 1.12 C-2.19 1.2, -2.23 1.28, -2.27 1.33 M-2.27 1.33 C-2.31 1.41, -2.35 1.49, -2.38 1.55 M-2.27 1.33 C-2.29 1.39, -2.32 1.45, -2.38 1.55 M-2.38 1.55 C-2.4 1.62, -2.42 1.68, -2.46 1.79 M-2.38 1.55 C-2.39 1.6, -2.41 1.65, -2.46 1.79 M-2.46 1.79 C-2.49 1.88, -2.51 1.97, -2.53 2.04 M-2.46 1.79 C-2.48 1.86, -2.5 1.93, -2.53 2.04 M-2.53 2.04 C-2.54 2.12, -2.55 2.19, -2.57 2.29 M-2.53 2.04 C-2.54 2.13, -2.56 2.23, -2.57 2.29 M-2.57 2.29 C-2.58 2.39, -2.58 2.49, -2.59 2.55 M-2.57 2.29 C-2.57 2.34, -2.58 2.4, -2.59 2.55 M-2.59 2.55 C-2.58 2.61, -2.58 2.66, -2.57 2.82 M-2.59 2.55 C-2.58 2.65, -2.58 2.74, -2.57 2.82 M-2.57 2.82 C-2.56 2.89, -2.55 2.96, -2.54 3.07 M-2.57 2.82 C-2.56 2.92, -2.55 3.01, -2.54 3.07 M-2.54 3.07 C-2.52 3.13, -2.51 3.19, -2.48 3.32 M-2.54 3.07 C-2.52 3.13, -2.51 3.18, -2.48 3.32 M-2.48 3.32 C-2.44 3.4, -2.41 3.49, -2.39 3.55 M-2.48 3.32 C-2.44 3.41, -2.41 3.51, -2.39 3.55 M-2.39 3.55 C-2.36 3.62, -2.33 3.69, -2.28 3.78 M-2.39 3.55 C-2.35 3.64, -2.31 3.72, -2.28 3.78 M-2.28 3.78 C-2.24 3.86, -2.19 3.93, -2.16 3.99 M-2.28 3.78 C-2.25 3.84, -2.21 3.9, -2.16 3.99 M-2.16 3.99 C-2.12 4.04, -2.08 4.09, -2.01 4.19 M-2.16 3.99 C-2.11 4.05, -2.07 4.11, -2.01 4.19 M-2.01 4.19 C-1.97 4.24, -1.92 4.29, -1.84 4.37 M-2.01 4.19 C-1.96 4.25, -1.91 4.3, -1.84 4.37 M-1.84 4.37 C-1.78 4.43, -1.72 4.49, -1.66 4.54 M-1.84 4.37 C-1.78 4.43, -1.72 4.49, -1.66 4.54 M-1.66 4.54 C-1.61 4.58, -1.55 4.63, -1.47 4.69 M-1.66 4.54 C-1.6 4.59, -1.53 4.64, -1.47 4.69 M-1.47 4.69 C-1.41 4.72, -1.36 4.75, -1.25 4.82 M-1.47 4.69 C-1.39 4.74, -1.31 4.79, -1.25 4.82 M-1.25 4.82 C-1.2 4.85, -1.14 4.88, -1.03 4.93 M-1.25 4.82 C-1.18 4.86, -1.11 4.89, -1.03 4.93 M-1.03 4.93 C-0.94 4.96, -0.85 5, -0.79 5.02 M-1.03 4.93 C-0.95 4.96, -0.87 4.99, -0.79 5.02 M-0.79 5.02 C-0.72 5.04, -0.64 5.06, -0.55 5.08 M-0.79 5.02 C-0.74 5.03, -0.68 5.05, -0.55 5.08 M-0.55 5.08 C-0.45 5.1, -0.36 5.11, -0.29 5.12 M-0.55 5.08 C-0.49 5.09, -0.43 5.1, -0.29 5.12 M-0.29 5.12 C-0.2 5.13, -0.11 5.13, -0.03 5.14 M-0.29 5.12 C-0.22 5.13, -0.15 5.13, -0.03 5.14 M-0.03 5.14 C0.04 5.14, 0.1 5.13, 0.23 5.13 M-0.03 5.14 C0.07 5.13, 0.17 5.13, 0.23 5.13 M0.23 5.13 C0.32 5.11, 0.42 5.1, 0.49 5.09 M0.23 5.13 C0.3 5.12, 0.37 5.11, 0.49 5.09 M0.49 5.09 C0.54 5.08, 0.59 5.06, 0.73 5.03 M0.49 5.09 C0.58 5.07, 0.68 5.04, 0.73 5.03 M0.73 5.03 C0.82 5, 0.9 4.97, 0.97 4.94 M0.73 5.03 C0.81 5, 0.88 4.98, 0.97 4.94 M0.97 4.94 C1.02 4.92, 1.08 4.89, 1.19 4.84 M0.97 4.94 C1.04 4.91, 1.12 4.87, 1.19 4.84 M1.19 4.84 C1.27 4.79, 1.36 4.74, 1.41 4.71 M1.19 4.84 C1.26 4.8, 1.33 4.76, 1.41 4.71 M1.41 4.71 C1.47 4.66, 1.54 4.61, 1.61 4.56 M1.41 4.71 C1.48 4.66, 1.55 4.61, 1.61 4.56 M1.61 4.56 C1.66 4.51, 1.72 4.46, 1.79 4.4 M1.61 4.56 C1.64 4.53, 1.68 4.49, 1.79 4.4 M1.79 4.4 C1.83 4.35, 1.87 4.31, 1.96 4.22 M1.79 4.4 C1.85 4.34, 1.9 4.28, 1.96 4.22 M1.96 4.22 C2 4.16, 2.05 4.1, 2.11 4.02 M1.96 4.22 C1.99 4.18, 2.02 4.14, 2.11 4.02 M2.11 4.02 C2.15 3.95, 2.2 3.87, 2.24 3.81 M2.11 4.02 C2.13 3.98, 2.16 3.93, 2.24 3.81 M2.24 3.81 C2.27 3.74, 2.3 3.67, 2.34 3.58 M2.24 3.81 C2.27 3.74, 2.3 3.68, 2.34 3.58 M2.34 3.58 C2.36 3.54, 2.38 3.49, 2.43 3.35 M2.34 3.58 C2.38 3.49, 2.41 3.4, 2.43 3.35 M2.43 3.35 C2.45 3.27, 2.48 3.18, 2.5 3.1 M2.43 3.35 C2.45 3.27, 2.48 3.18, 2.5 3.1 M2.5 3.1 C2.51 3.02, 2.52 2.94, 2.54 2.85 M2.5 3.1 C2.51 3.05, 2.51 3, 2.54 2.85 M2.54 2.85 C2.54 2.79, 2.55 2.73, 2.55 2.59 M2.54 2.85 C2.54 2.79, 2.55 2.73, 2.55 2.59 M2.55 2.59 C2.55 2.58, 2.55 2.58, 2.55 2.57 M2.55 2.59 C2.55 2.58, 2.55 2.58, 2.55 2.57 M2.55 2.57 C2.55 2.57, 2.55 2.57, 2.55 2.57 M2.55 2.57 C2.55 2.57, 2.55 2.57, 2.55 2.57 M2.55 2.57 C2.55 2.49, 2.55 2.41, 2.54 2.31 M2.55 2.57 C2.55 2.47, 2.55 2.37, 2.54 2.31 M2.54 2.31 C2.53 2.26, 2.53 2.21, 2.51 2.06 M2.54 2.31 C2.53 2.23, 2.52 2.14, 2.51 2.06 M2.51 2.06 C2.48 1.96, 2.46 1.86, 2.44 1.81 M2.51 2.06 C2.49 2, 2.48 1.95, 2.44 1.81 M2.44 1.81 C2.41 1.72, 2.38 1.63, 2.36 1.58 M2.44 1.81 C2.42 1.74, 2.4 1.67, 2.36 1.58 M2.36 1.58 C2.32 1.49, 2.28 1.4, 2.25 1.35 M2.36 1.58 C2.32 1.5, 2.29 1.42, 2.25 1.35 M2.25 1.35 C2.21 1.27, 2.16 1.19, 2.13 1.14 M2.25 1.35 C2.23 1.31, 2.2 1.26, 2.13 1.14 M2.13 1.14 C2.1 1.1, 2.07 1.06, 1.98 0.94 M2.13 1.14 C2.07 1.07, 2.02 1, 1.98 0.94 M1.98 0.94 C1.94 0.89, 1.89 0.84, 1.82 0.76 M1.98 0.94 C1.95 0.91, 1.91 0.87, 1.82 0.76 M1.82 0.76 C1.76 0.71, 1.71 0.66, 1.64 0.59 M1.82 0.76 C1.77 0.72, 1.72 0.67, 1.64 0.59 M1.64 0.59 C1.57 0.55, 1.51 0.5, 1.44 0.45 M1.64 0.59 C1.57 0.54, 1.5 0.49, 1.44 0.45 M1.44 0.45 C1.37 0.4, 1.3 0.36, 1.23 0.32 M1.44 0.45 C1.36 0.4, 1.28 0.35, 1.23 0.32 M1.23 0.32 C1.17 0.29, 1.12 0.26, 1.01 0.21 M1.23 0.32 C1.15 0.28, 1.06 0.23, 1.01 0.21 M1.01 0.21 C0.92 0.18, 0.84 0.15, 0.77 0.12 M1.01 0.21 C0.94 0.18, 0.86 0.15, 0.77 0.12 M0.77 0.12 C0.72 0.11, 0.66 0.09, 0.53 0.06 M0.77 0.12 C0.71 0.1, 0.64 0.08, 0.53 0.06 M0.53 0.06 C0.47 0.05, 0.41 0.04, 0.28 0.02 M0.53 0.06 C0.45 0.04, 0.36 0.03, 0.28 0.02 M0.28 0.02 C0.21 0.01, 0.15 0.01, 0.02 0 M0.28 0.02 C0.2 0.01, 0.13 0.01, 0.02 0 M0.02 0 C0.01 0, 0 0, 0 0 M0.02 0 C0.01 0, 0.01 0, 0 0 M0 0 C0 0, 0 0, 0 0 M0 0 C0 0, 0 0, 0 0 M0 0 C0 0, 0 0, 0 0 M0 0 C0 0, 0 0, 0 0" stroke="transparent" stroke-width="1" fill="none"></path></g></g><mask></mask><g stroke-linecap="round"><g transform="translate(32.215599060058594 48.33694648742676) rotate(0 0 1.3661737442016602)" fill-rule="evenodd"><path d="M0 0 L0 0 L0.14 0.01 L0.28 0.03 L0.41 0.06 L0.53 0.11 L0.65 0.17 L0.76 0.23 L0.87 0.31 L0.97 0.4 L1.05 0.5 L1.13 0.6 L1.2 0.72 L1.26 0.84 L1.3 0.96 L1.34 1.09 L1.36 1.23 L1.37 1.37 L1.36 1.51 L1.34 1.64 L1.3 1.77 L1.26 1.9 L1.2 2.02 L1.13 2.13 L1.05 2.24 L0.97 2.33 L0.87 2.42 L0.76 2.5 L0.65 2.57 L0.53 2.63 L0.41 2.67 L0.28 2.7 L0.14 2.73 L0 2.73 L-0.14 2.73 L-0.28 2.7 L-0.41 2.67 L-0.53 2.63 L-0.65 2.57 L-0.76 2.5 L-0.87 2.42 L-0.97 2.33 L-1.05 2.24 L-1.13 2.13 L-1.2 2.02 L-1.26 1.9 L-1.3 1.77 L-1.34 1.64 L-1.36 1.51 L-1.37 1.37 L-1.36 1.23 L-1.34 1.09 L-1.31 0.96 L-1.26 0.84 L-1.2 0.72 L-1.14 0.6 L-1.06 0.5 L-0.97 0.4 L-0.87 0.31 L-0.77 0.23 L-0.65 0.17 L-0.53 0.11 L-0.41 0.06 L-0.28 0.03 L-0.14 0.01 L0 0 L0 0 L0 0" stroke="none" stroke-width="0" fill="#669df6" fill-rule="evenodd"></path><path d="M0 0 C0 0, 0 0, 0 0 M0 0 C0 0, 0 0, 0 0 M0 0 C0.04 0, 0.08 0, 0.14 0.01 M0 0 C0.05 0, 0.11 0.01, 0.14 0.01 M0.14 0.01 C0.19 0.02, 0.25 0.02, 0.28 0.03 M0.14 0.01 C0.18 0.01, 0.22 0.02, 0.28 0.03 M0.28 0.03 C0.32 0.04, 0.36 0.05, 0.41 0.06 M0.28 0.03 C0.32 0.04, 0.36 0.05, 0.41 0.06 M0.41 0.06 C0.44 0.08, 0.48 0.09, 0.53 0.11 M0.41 0.06 C0.45 0.08, 0.49 0.09, 0.53 0.11 M0.53 0.11 C0.56 0.12, 0.58 0.13, 0.65 0.17 M0.53 0.11 C0.57 0.13, 0.61 0.14, 0.65 0.17 M0.65 0.17 C0.69 0.19, 0.72 0.21, 0.76 0.23 M0.65 0.17 C0.68 0.18, 0.71 0.2, 0.76 0.23 M0.76 0.23 C0.79 0.25, 0.82 0.27, 0.87 0.31 M0.76 0.23 C0.8 0.26, 0.84 0.29, 0.87 0.31 M0.87 0.31 C0.9 0.34, 0.92 0.36, 0.97 0.4 M0.87 0.31 C0.91 0.35, 0.94 0.38, 0.97 0.4 M0.97 0.4 C1 0.44, 1.03 0.47, 1.05 0.5 M0.97 0.4 C0.99 0.42, 1 0.44, 1.05 0.5 M1.05 0.5 C1.08 0.53, 1.11 0.57, 1.13 0.6 M1.05 0.5 C1.08 0.53, 1.1 0.56, 1.13 0.6 M1.13 0.6 C1.15 0.64, 1.17 0.67, 1.2 0.72 M1.13 0.6 C1.16 0.64, 1.18 0.68, 1.2 0.72 M1.2 0.72 C1.22 0.75, 1.23 0.78, 1.26 0.84 M1.2 0.72 C1.22 0.75, 1.24 0.79, 1.26 0.84 M1.26 0.84 C1.27 0.87, 1.28 0.9, 1.3 0.96 M1.26 0.84 C1.28 0.88, 1.29 0.93, 1.3 0.96 M1.3 0.96 C1.31 0.99, 1.32 1.02, 1.34 1.09 M1.3 0.96 C1.31 0.99, 1.32 1.02, 1.34 1.09 M1.34 1.09 C1.34 1.13, 1.35 1.17, 1.36 1.23 M1.34 1.09 C1.34 1.13, 1.35 1.17, 1.36 1.23 M1.36 1.23 C1.36 1.28, 1.36 1.34, 1.37 1.37 M1.36 1.23 C1.36 1.28, 1.36 1.34, 1.37 1.37 M1.37 1.37 C1.36 1.4, 1.36 1.44, 1.36 1.51 M1.37 1.37 C1.36 1.41, 1.36 1.45, 1.36 1.51 M1.36 1.51 C1.35 1.54, 1.35 1.56, 1.34 1.64 M1.36 1.51 C1.35 1.56, 1.34 1.61, 1.34 1.64 M1.34 1.64 C1.33 1.68, 1.32 1.71, 1.3 1.77 M1.34 1.64 C1.33 1.67, 1.32 1.7, 1.3 1.77 M1.3 1.77 C1.29 1.81, 1.28 1.84, 1.26 1.9 M1.3 1.77 C1.29 1.82, 1.27 1.86, 1.26 1.9 M1.26 1.9 C1.25 1.93, 1.23 1.95, 1.2 2.02 M1.26 1.9 C1.24 1.94, 1.22 1.98, 1.2 2.02 M1.2 2.02 C1.17 2.06, 1.15 2.11, 1.13 2.13 M1.2 2.02 C1.18 2.06, 1.15 2.1, 1.13 2.13 M1.13 2.13 C1.1 2.17, 1.07 2.21, 1.05 2.24 M1.13 2.13 C1.11 2.17, 1.08 2.21, 1.05 2.24 M1.05 2.24 C1.03 2.27, 1 2.3, 0.97 2.33 M1.05 2.24 C1.03 2.26, 1 2.29, 0.97 2.33 M0.97 2.33 C0.94 2.36, 0.91 2.38, 0.87 2.42 M0.97 2.33 C0.94 2.36, 0.9 2.39, 0.87 2.42 M0.87 2.42 C0.84 2.44, 0.81 2.47, 0.76 2.5 M0.87 2.42 C0.84 2.44, 0.82 2.46, 0.76 2.5 M0.76 2.5 C0.74 2.51, 0.72 2.53, 0.65 2.57 M0.76 2.5 C0.74 2.52, 0.71 2.53, 0.65 2.57 M0.65 2.57 C0.61 2.59, 0.56 2.61, 0.53 2.63 M0.65 2.57 C0.61 2.59, 0.56 2.61, 0.53 2.63 M0.53 2.63 C0.5 2.64, 0.47 2.65, 0.41 2.67 M0.53 2.63 C0.51 2.64, 0.48 2.64, 0.41 2.67 M0.41 2.67 C0.38 2.68, 0.35 2.69, 0.28 2.7 M0.41 2.67 C0.37 2.68, 0.34 2.69, 0.28 2.7 M0.28 2.7 C0.23 2.71, 0.19 2.72, 0.14 2.73 M0.28 2.7 C0.25 2.71, 0.22 2.71, 0.14 2.73 M0.14 2.73 C0.11 2.73, 0.08 2.73, 0 2.73 M0.14 2.73 C0.09 2.73, 0.04 2.73, 0 2.73 M0 2.73 C-0.05 2.73, -0.1 2.73, -0.14 2.73 M0 2.73 C-0.04 2.73, -0.07 2.73, -0.14 2.73 M-0.14 2.73 C-0.17 2.72, -0.2 2.72, -0.28 2.7 M-0.14 2.73 C-0.18 2.72, -0.23 2.71, -0.28 2.7 M-0.28 2.7 C-0.32 2.69, -0.37 2.68, -0.41 2.67 M-0.28 2.7 C-0.32 2.69, -0.37 2.68, -0.41 2.67 M-0.41 2.67 C-0.43 2.66, -0.46 2.65, -0.53 2.63 M-0.41 2.67 C-0.44 2.66, -0.47 2.65, -0.53 2.63 M-0.53 2.63 C-0.58 2.6, -0.63 2.58, -0.65 2.57 M-0.53 2.63 C-0.57 2.61, -0.6 2.59, -0.65 2.57 M-0.65 2.57 C-0.69 2.54, -0.73 2.52, -0.76 2.5 M-0.65 2.57 C-0.69 2.55, -0.72 2.53, -0.76 2.5 M-0.76 2.5 C-0.79 2.48, -0.82 2.45, -0.87 2.42 M-0.76 2.5 C-0.79 2.48, -0.82 2.46, -0.87 2.42 M-0.87 2.42 C-0.89 2.4, -0.92 2.38, -0.97 2.33 M-0.87 2.42 C-0.89 2.4, -0.92 2.38, -0.97 2.33 M-0.97 2.33 C-1 2.3, -1.03 2.27, -1.05 2.24 M-0.97 2.33 C-0.98 2.31, -1 2.29, -1.05 2.24 M-1.05 2.24 C-1.07 2.21, -1.09 2.19, -1.13 2.13 M-1.05 2.24 C-1.08 2.2, -1.11 2.16, -1.13 2.13 M-1.13 2.13 C-1.16 2.1, -1.18 2.06, -1.2 2.02 M-1.13 2.13 C-1.15 2.1, -1.17 2.06, -1.2 2.02 M-1.2 2.02 C-1.22 1.99, -1.23 1.96, -1.26 1.9 M-1.2 2.02 C-1.21 1.99, -1.23 1.96, -1.26 1.9 M-1.26 1.9 C-1.28 1.85, -1.29 1.81, -1.3 1.77 M-1.26 1.9 C-1.27 1.86, -1.29 1.82, -1.3 1.77 M-1.3 1.77 C-1.31 1.74, -1.32 1.71, -1.34 1.64 M-1.3 1.77 C-1.31 1.74, -1.32 1.72, -1.34 1.64 M-1.34 1.64 C-1.34 1.6, -1.35 1.56, -1.36 1.51 M-1.34 1.64 C-1.34 1.6, -1.35 1.56, -1.36 1.51 M-1.36 1.51 C-1.36 1.46, -1.36 1.41, -1.37 1.37 M-1.36 1.51 C-1.36 1.47, -1.36 1.44, -1.37 1.37 M-1.37 1.37 C-1.36 1.31, -1.36 1.26, -1.36 1.23 M-1.37 1.37 C-1.36 1.32, -1.36 1.28, -1.36 1.23 M-1.36 1.23 C-1.35 1.18, -1.34 1.12, -1.34 1.09 M-1.36 1.23 C-1.35 1.19, -1.35 1.14, -1.34 1.09 M-1.34 1.09 C-1.33 1.06, -1.32 1.02, -1.31 0.96 M-1.34 1.09 C-1.33 1.05, -1.32 1, -1.31 0.96 M-1.31 0.96 C-1.29 0.92, -1.28 0.88, -1.26 0.84 M-1.31 0.96 C-1.3 0.94, -1.29 0.91, -1.26 0.84 M-1.26 0.84 C-1.25 0.8, -1.23 0.77, -1.2 0.72 M-1.26 0.84 C-1.24 0.79, -1.22 0.75, -1.2 0.72 M-1.2 0.72 C-1.18 0.68, -1.15 0.63, -1.14 0.6 M-1.2 0.72 C-1.19 0.69, -1.17 0.67, -1.14 0.6 M-1.14 0.6 C-1.11 0.57, -1.08 0.53, -1.06 0.5 M-1.14 0.6 C-1.12 0.58, -1.1 0.55, -1.06 0.5 M-1.06 0.5 C-1.04 0.48, -1.02 0.45, -0.97 0.4 M-1.06 0.5 C-1.04 0.48, -1.02 0.45, -0.97 0.4 M-0.97 0.4 C-0.94 0.37, -0.91 0.34, -0.87 0.31 M-0.97 0.4 C-0.94 0.38, -0.92 0.35, -0.87 0.31 M-0.87 0.31 C-0.84 0.29, -0.8 0.26, -0.77 0.23 M-0.87 0.31 C-0.83 0.28, -0.79 0.25, -0.77 0.23 M-0.77 0.23 C-0.72 0.21, -0.68 0.18, -0.65 0.17 M-0.77 0.23 C-0.73 0.21, -0.7 0.19, -0.65 0.17 M-0.65 0.17 C-0.62 0.15, -0.58 0.13, -0.53 0.11 M-0.65 0.17 C-0.62 0.15, -0.59 0.14, -0.53 0.11 M-0.53 0.11 C-0.48 0.09, -0.43 0.07, -0.41 0.06 M-0.53 0.11 C-0.51 0.1, -0.48 0.09, -0.41 0.06 M-0.41 0.06 C-0.36 0.05, -0.32 0.04, -0.28 0.03 M-0.41 0.06 C-0.37 0.05, -0.33 0.04, -0.28 0.03 M-0.28 0.03 C-0.24 0.02, -0.2 0.02, -0.14 0.01 M-0.28 0.03 C-0.24 0.02, -0.21 0.02, -0.14 0.01 M-0.14 0.01 C-0.1 0.01, -0.06 0, 0 0 M-0.14 0.01 C-0.1 0.01, -0.06 0, 0 0 M0 0 C0 0, 0 0, 0 0 M0 0 C0 0, 0 0, 0 0 M0 0 C0 0, 0 0, 0 0 M0 0 C0 0, 0 0, 0 0 M0 0 C0 0, 0 0, 0 0 M0 0 C0 0, 0 0, 0 0" stroke="transparent" stroke-width="1" fill="none"></path></g></g><mask></mask><g stroke-linecap="round"><g transform="translate(32.215599060058594 47.1494255065918) rotate(0 -0.013135910034179688 2.566831588745117)" fill-rule="evenodd"><path d="M0 0 L0 0 L-0.26 0.01 L-0.52 0.05 L-0.76 0.11 L-1 0.2 L-1.23 0.3 L-1.44 0.43 L-1.64 0.58 L-1.82 0.74 L-1.99 0.92 L-2.14 1.12 L-2.27 1.33 L-2.37 1.56 L-2.46 1.79 L-2.53 2.04 L-2.57 2.29 L-2.58 2.55 L-2.57 2.82 L-2.53 3.07 L-2.47 3.32 L-2.38 3.55 L-2.28 3.78 L-2.15 3.99 L-2 4.19 L-1.84 4.37 L-1.66 4.54 L-1.46 4.69 L-1.25 4.82 L-1.02 4.93 L-0.79 5.02 L-0.54 5.08 L-0.29 5.12 L-0.03 5.13 L0.24 5.12 L0.49 5.08 L0.74 5.02 L0.97 4.94 L1.2 4.83 L1.41 4.7 L1.61 4.56 L1.79 4.39 L1.96 4.21 L2.11 4.01 L2.24 3.8 L2.35 3.58 L2.44 3.34 L2.5 3.1 L2.54 2.84 L2.55 2.58 L2.54 2.32 L2.51 2.07 L2.45 1.83 L2.36 1.59 L2.25 1.36 L2.12 1.14 L1.97 0.94 L1.8 0.75 L1.62 0.58 L1.41 0.43 L1.2 0.3 L0.97 0.2 L0.74 0.11 L0.5 0.05 L0.25 0.01 L0 0 L0 0" stroke="none" stroke-width="0" fill="#669df6" fill-rule="evenodd"></path><path d="M0 0 C0 0, 0 0, 0 0 M0 0 C0 0, 0 0, 0 0 M0 0 C-0.07 0, -0.13 0.01, -0.26 0.01 M0 0 C-0.08 0, -0.15 0.01, -0.26 0.01 M-0.26 0.01 C-0.32 0.02, -0.37 0.03, -0.52 0.05 M-0.26 0.01 C-0.36 0.03, -0.45 0.04, -0.52 0.05 M-0.52 0.05 C-0.61 0.07, -0.7 0.1, -0.76 0.11 M-0.52 0.05 C-0.57 0.06, -0.62 0.08, -0.76 0.11 M-0.76 0.11 C-0.84 0.14, -0.92 0.17, -1 0.2 M-0.76 0.11 C-0.83 0.14, -0.89 0.16, -1 0.2 M-1 0.2 C-1.07 0.23, -1.15 0.27, -1.23 0.3 M-1 0.2 C-1.07 0.23, -1.15 0.27, -1.23 0.3 M-1.23 0.3 C-1.27 0.33, -1.31 0.36, -1.44 0.43 M-1.23 0.3 C-1.29 0.34, -1.35 0.38, -1.44 0.43 M-1.44 0.43 C-1.5 0.48, -1.57 0.53, -1.64 0.58 M-1.44 0.43 C-1.5 0.48, -1.56 0.52, -1.64 0.58 M-1.64 0.58 C-1.71 0.64, -1.78 0.71, -1.82 0.74 M-1.64 0.58 C-1.7 0.63, -1.76 0.69, -1.82 0.74 M-1.82 0.74 C-1.86 0.78, -1.9 0.83, -1.99 0.92 M-1.82 0.74 C-1.86 0.78, -1.89 0.82, -1.99 0.92 M-1.99 0.92 C-2.02 0.97, -2.06 1.02, -2.14 1.12 M-1.99 0.92 C-2.04 1, -2.1 1.07, -2.14 1.12 M-2.14 1.12 C-2.18 1.19, -2.23 1.27, -2.27 1.33 M-2.14 1.12 C-2.18 1.2, -2.23 1.28, -2.27 1.33 M-2.27 1.33 C-2.29 1.39, -2.32 1.45, -2.37 1.56 M-2.27 1.33 C-2.29 1.39, -2.32 1.45, -2.37 1.56 M-2.37 1.56 C-2.41 1.65, -2.44 1.74, -2.46 1.79 M-2.37 1.56 C-2.4 1.63, -2.43 1.71, -2.46 1.79 M-2.46 1.79 C-2.49 1.88, -2.51 1.98, -2.53 2.04 M-2.46 1.79 C-2.48 1.84, -2.49 1.89, -2.53 2.04 M-2.53 2.04 C-2.54 2.13, -2.56 2.22, -2.57 2.29 M-2.53 2.04 C-2.54 2.11, -2.55 2.18, -2.57 2.29 M-2.57 2.29 C-2.57 2.37, -2.57 2.45, -2.58 2.55 M-2.57 2.29 C-2.57 2.34, -2.57 2.4, -2.58 2.55 M-2.58 2.55 C-2.58 2.62, -2.57 2.69, -2.57 2.82 M-2.58 2.55 C-2.58 2.62, -2.57 2.68, -2.57 2.82 M-2.57 2.82 C-2.55 2.9, -2.54 2.99, -2.53 3.07 M-2.57 2.82 C-2.56 2.87, -2.55 2.92, -2.53 3.07 M-2.53 3.07 C-2.51 3.16, -2.49 3.25, -2.47 3.32 M-2.53 3.07 C-2.51 3.14, -2.5 3.2, -2.47 3.32 M-2.47 3.32 C-2.44 3.4, -2.41 3.48, -2.38 3.55 M-2.47 3.32 C-2.45 3.37, -2.43 3.41, -2.38 3.55 M-2.38 3.55 C-2.35 3.62, -2.32 3.69, -2.28 3.78 M-2.38 3.55 C-2.36 3.61, -2.33 3.66, -2.28 3.78 M-2.28 3.78 C-2.25 3.83, -2.22 3.88, -2.15 3.99 M-2.28 3.78 C-2.23 3.85, -2.19 3.92, -2.15 3.99 M-2.15 3.99 C-2.11 4.05, -2.06 4.11, -2 4.19 M-2.15 3.99 C-2.1 4.06, -2.05 4.12, -2 4.19 M-2 4.19 C-1.96 4.23, -1.92 4.28, -1.84 4.37 M-2 4.19 C-1.95 4.25, -1.89 4.31, -1.84 4.37 M-1.84 4.37 C-1.79 4.41, -1.75 4.45, -1.66 4.54 M-1.84 4.37 C-1.79 4.42, -1.75 4.46, -1.66 4.54 M-1.66 4.54 C-1.61 4.58, -1.56 4.61, -1.46 4.69 M-1.66 4.54 C-1.59 4.59, -1.53 4.63, -1.46 4.69 M-1.46 4.69 C-1.38 4.74, -1.3 4.79, -1.25 4.82 M-1.46 4.69 C-1.41 4.72, -1.35 4.75, -1.25 4.82 M-1.25 4.82 C-1.2 4.84, -1.14 4.87, -1.02 4.93 M-1.25 4.82 C-1.2 4.84, -1.16 4.86, -1.02 4.93 M-1.02 4.93 C-0.94 4.96, -0.86 4.99, -0.79 5.02 M-1.02 4.93 C-0.95 4.96, -0.87 4.99, -0.79 5.02 M-0.79 5.02 C-0.71 5.03, -0.64 5.05, -0.54 5.08 M-0.79 5.02 C-0.72 5.03, -0.65 5.05, -0.54 5.08 M-0.54 5.08 C-0.48 5.09, -0.41 5.1, -0.29 5.12 M-0.54 5.08 C-0.49 5.09, -0.44 5.1, -0.29 5.12 M-0.29 5.12 C-0.23 5.12, -0.17 5.13, -0.03 5.13 M-0.29 5.12 C-0.22 5.12, -0.16 5.13, -0.03 5.13 M-0.03 5.13 C0.03 5.13, 0.09 5.13, 0.24 5.12 M-0.03 5.13 C0.07 5.13, 0.16 5.13, 0.24 5.12 M0.24 5.12 C0.3 5.11, 0.37 5.1, 0.49 5.08 M0.24 5.12 C0.32 5.11, 0.41 5.1, 0.49 5.08 M0.49 5.08 C0.59 5.06, 0.69 5.03, 0.74 5.02 M0.49 5.08 C0.57 5.06, 0.66 5.04, 0.74 5.02 M0.74 5.02 C0.82 4.99, 0.9 4.96, 0.97 4.94 M0.74 5.02 C0.79 5, 0.85 4.98, 0.97 4.94 M0.97 4.94 C1.06 4.89, 1.15 4.85, 1.2 4.83 M0.97 4.94 C1.05 4.9, 1.12 4.87, 1.2 4.83 M1.2 4.83 C1.27 4.79, 1.33 4.75, 1.41 4.7 M1.2 4.83 C1.27 4.79, 1.35 4.74, 1.41 4.7 M1.41 4.7 C1.47 4.66, 1.52 4.62, 1.61 4.56 M1.41 4.7 C1.48 4.65, 1.55 4.6, 1.61 4.56 M1.61 4.56 C1.67 4.51, 1.72 4.45, 1.79 4.39 M1.61 4.56 C1.67 4.5, 1.73 4.45, 1.79 4.39 M1.79 4.39 C1.84 4.34, 1.89 4.29, 1.96 4.21 M1.79 4.39 C1.83 4.35, 1.88 4.3, 1.96 4.21 M1.96 4.21 C2.01 4.15, 2.06 4.08, 2.11 4.01 M1.96 4.21 C2.01 4.14, 2.06 4.07, 2.11 4.01 M2.11 4.01 C2.16 3.93, 2.21 3.85, 2.24 3.8 M2.11 4.01 C2.15 3.94, 2.19 3.88, 2.24 3.8 M2.24 3.8 C2.27 3.74, 2.3 3.67, 2.35 3.58 M2.24 3.8 C2.26 3.75, 2.29 3.7, 2.35 3.58 M2.35 3.58 C2.37 3.51, 2.4 3.43, 2.44 3.34 M2.35 3.58 C2.37 3.51, 2.4 3.44, 2.44 3.34 M2.44 3.34 C2.46 3.25, 2.48 3.16, 2.5 3.1 M2.44 3.34 C2.46 3.26, 2.48 3.17, 2.5 3.1 M2.5 3.1 C2.51 3.03, 2.52 2.96, 2.54 2.84 M2.5 3.1 C2.51 3.01, 2.53 2.93, 2.54 2.84 M2.54 2.84 C2.54 2.77, 2.55 2.69, 2.55 2.58 M2.54 2.84 C2.54 2.77, 2.55 2.69, 2.55 2.58 M2.55 2.58 C2.55 2.5, 2.55 2.42, 2.54 2.32 M2.55 2.58 C2.55 2.52, 2.55 2.47, 2.54 2.32 M2.54 2.32 C2.53 2.23, 2.52 2.14, 2.51 2.07 M2.54 2.32 C2.53 2.23, 2.52 2.14, 2.51 2.07 M2.51 2.07 C2.49 2, 2.47 1.92, 2.45 1.83 M2.51 2.07 C2.49 2.02, 2.48 1.97, 2.45 1.83 M2.45 1.83 C2.42 1.75, 2.39 1.68, 2.36 1.59 M2.45 1.83 C2.42 1.74, 2.38 1.65, 2.36 1.59 M2.36 1.59 C2.32 1.5, 2.28 1.42, 2.25 1.36 M2.36 1.59 C2.32 1.51, 2.29 1.43, 2.25 1.36 M2.25 1.36 C2.22 1.31, 2.19 1.26, 2.12 1.14 M2.25 1.36 C2.21 1.28, 2.16 1.2, 2.12 1.14 M2.12 1.14 C2.08 1.09, 2.04 1.03, 1.97 0.94 M2.12 1.14 C2.07 1.07, 2.01 0.99, 1.97 0.94 M1.97 0.94 C1.91 0.87, 1.84 0.79, 1.8 0.75 M1.97 0.94 C1.92 0.88, 1.87 0.82, 1.8 0.75 M1.8 0.75 C1.73 0.69, 1.66 0.62, 1.62 0.58 M1.8 0.75 C1.73 0.69, 1.66 0.62, 1.62 0.58 M1.62 0.58 C1.55 0.53, 1.49 0.49, 1.41 0.43 M1.62 0.58 C1.56 0.54, 1.51 0.5, 1.41 0.43 M1.41 0.43 C1.34 0.39, 1.26 0.34, 1.2 0.3 M1.41 0.43 C1.37 0.41, 1.33 0.38, 1.2 0.3 M1.2 0.3 C1.15 0.28, 1.1 0.26, 0.97 0.2 M1.2 0.3 C1.12 0.27, 1.04 0.23, 0.97 0.2 M0.97 0.2 C0.91 0.17, 0.85 0.15, 0.74 0.11 M0.97 0.2 C0.88 0.16, 0.79 0.13, 0.74 0.11 M0.74 0.11 C0.69 0.1, 0.64 0.09, 0.5 0.05 M0.74 0.11 C0.69 0.1, 0.64 0.09, 0.5 0.05 M0.5 0.05 C0.44 0.04, 0.39 0.03, 0.25 0.01 M0.5 0.05 C0.43 0.04, 0.37 0.03, 0.25 0.01 M0.25 0.01 C0.18 0.01, 0.11 0.01, 0 0 M0.25 0.01 C0.17 0.01, 0.09 0, 0 0 M0 0 C0 0, 0 0, 0 0 M0 0 C0 0, 0 0, 0 0 M0 0 C0 0, 0 0, 0 0 M0 0 C0 0, 0 0, 0 0" stroke="transparent" stroke-width="1" fill="none"></path></g></g><mask></mask><g stroke-linecap="round"><g transform="translate(32.215599060058594 32.531363010406494) rotate(0 -0.04991769790649414 1.3661739826202393)" fill-rule="evenodd"><path d="M0 0 L0 0 L0.14 0.01 L0.27 0.04 L0.4 0.08 L0.53 0.13 L0.65 0.19 L0.76 0.26 L0.86 0.34 L0.95 0.43 L1.04 0.53 L1.11 0.64 L1.18 0.76 L1.23 0.88 L1.27 1 L1.3 1.14 L1.32 1.27 L1.32 1.41 L1.31 1.55 L1.28 1.69 L1.24 1.82 L1.19 1.94 L1.13 2.06 L1.06 2.17 L0.98 2.27 L0.89 2.37 L0.79 2.45 L0.68 2.53 L0.56 2.59 L0.44 2.64 L0.31 2.69 L0.18 2.71 L0.05 2.73 L-0.09 2.73 L-0.23 2.72 L-0.36 2.7 L-0.49 2.66 L-0.61 2.61 L-0.73 2.55 L-0.84 2.48 L-0.94 2.4 L-1.03 2.32 L-1.12 2.22 L-1.19 2.11 L-1.26 2 L-1.31 1.89 L-1.36 1.76 L-1.39 1.64 L-1.41 1.5 L-1.42 1.37 L-1.41 1.23 L-1.39 1.09 L-1.35 0.96 L-1.3 0.83 L-1.24 0.71 L-1.17 0.6 L-1.09 0.49 L-1 0.39 L-0.9 0.31 L-0.8 0.23 L-0.68 0.16 L-0.56 0.1 L-0.43 0.06 L-0.3 0.02 L-0.16 0.01 L-0.02 0 L0 0 L0 0" stroke="none" stroke-width="0" fill="#669df6" fill-rule="evenodd"></path><path d="M0 0 C0 0, 0 0, 0 0 M0 0 C0 0, 0 0, 0 0 M0 0 C0.05 0, 0.1 0.01, 0.14 0.01 M0 0 C0.04 0, 0.08 0.01, 0.14 0.01 M0.14 0.01 C0.17 0.02, 0.2 0.02, 0.27 0.04 M0.14 0.01 C0.18 0.02, 0.22 0.03, 0.27 0.04 M0.27 0.04 C0.3 0.05, 0.33 0.05, 0.4 0.08 M0.27 0.04 C0.32 0.05, 0.37 0.07, 0.4 0.08 M0.4 0.08 C0.44 0.09, 0.47 0.1, 0.53 0.13 M0.4 0.08 C0.45 0.09, 0.49 0.11, 0.53 0.13 M0.53 0.13 C0.57 0.15, 0.61 0.17, 0.65 0.19 M0.53 0.13 C0.56 0.14, 0.59 0.16, 0.65 0.19 M0.65 0.19 C0.68 0.21, 0.72 0.23, 0.76 0.26 M0.65 0.19 C0.68 0.21, 0.71 0.23, 0.76 0.26 M0.76 0.26 C0.78 0.28, 0.81 0.3, 0.86 0.34 M0.76 0.26 C0.78 0.28, 0.8 0.29, 0.86 0.34 M0.86 0.34 C0.88 0.36, 0.9 0.38, 0.95 0.43 M0.86 0.34 C0.88 0.37, 0.91 0.39, 0.95 0.43 M0.95 0.43 C0.98 0.46, 1 0.49, 1.04 0.53 M0.95 0.43 C0.97 0.46, 0.99 0.48, 1.04 0.53 M1.04 0.53 C1.06 0.57, 1.08 0.6, 1.11 0.64 M1.04 0.53 C1.05 0.56, 1.07 0.58, 1.11 0.64 M1.11 0.64 C1.13 0.67, 1.15 0.7, 1.18 0.76 M1.11 0.64 C1.13 0.68, 1.15 0.71, 1.18 0.76 M1.18 0.76 C1.19 0.8, 1.21 0.84, 1.23 0.88 M1.18 0.76 C1.19 0.79, 1.21 0.82, 1.23 0.88 M1.23 0.88 C1.24 0.92, 1.26 0.96, 1.27 1 M1.23 0.88 C1.24 0.91, 1.25 0.95, 1.27 1 M1.27 1 C1.28 1.05, 1.29 1.1, 1.3 1.14 M1.27 1 C1.28 1.05, 1.29 1.1, 1.3 1.14 M1.3 1.14 C1.31 1.17, 1.31 1.21, 1.32 1.27 M1.3 1.14 C1.31 1.19, 1.31 1.25, 1.32 1.27 M1.32 1.27 C1.32 1.32, 1.32 1.37, 1.32 1.41 M1.32 1.27 C1.32 1.32, 1.32 1.37, 1.32 1.41 M1.32 1.41 C1.32 1.44, 1.31 1.47, 1.31 1.55 M1.32 1.41 C1.31 1.47, 1.31 1.52, 1.31 1.55 M1.31 1.55 C1.3 1.59, 1.29 1.62, 1.28 1.69 M1.31 1.55 C1.3 1.6, 1.29 1.65, 1.28 1.69 M1.28 1.69 C1.27 1.73, 1.26 1.77, 1.24 1.82 M1.28 1.69 C1.27 1.74, 1.25 1.79, 1.24 1.82 M1.24 1.82 C1.23 1.86, 1.21 1.89, 1.19 1.94 M1.24 1.82 C1.23 1.85, 1.22 1.88, 1.19 1.94 M1.19 1.94 C1.18 1.97, 1.16 2, 1.13 2.06 M1.19 1.94 C1.18 1.97, 1.17 1.99, 1.13 2.06 M1.13 2.06 C1.11 2.1, 1.08 2.13, 1.06 2.17 M1.13 2.06 C1.11 2.1, 1.08 2.14, 1.06 2.17 M1.06 2.17 C1.03 2.21, 1 2.25, 0.98 2.27 M1.06 2.17 C1.04 2.2, 1.02 2.22, 0.98 2.27 M0.98 2.27 C0.96 2.3, 0.93 2.32, 0.89 2.37 M0.98 2.27 C0.96 2.3, 0.93 2.32, 0.89 2.37 M0.89 2.37 C0.85 2.39, 0.82 2.42, 0.79 2.45 M0.89 2.37 C0.86 2.38, 0.84 2.4, 0.79 2.45 M0.79 2.45 C0.75 2.48, 0.71 2.5, 0.68 2.53 M0.79 2.45 C0.76 2.47, 0.74 2.49, 0.68 2.53 M0.68 2.53 C0.65 2.54, 0.63 2.56, 0.56 2.59 M0.68 2.53 C0.63 2.55, 0.59 2.58, 0.56 2.59 M0.56 2.59 C0.52 2.61, 0.47 2.63, 0.44 2.64 M0.56 2.59 C0.52 2.61, 0.48 2.63, 0.44 2.64 M0.44 2.64 C0.41 2.66, 0.37 2.67, 0.31 2.69 M0.44 2.64 C0.4 2.66, 0.36 2.67, 0.31 2.69 M0.31 2.69 C0.27 2.7, 0.22 2.71, 0.18 2.71 M0.31 2.69 C0.27 2.7, 0.22 2.71, 0.18 2.71 M0.18 2.71 C0.15 2.72, 0.12 2.72, 0.05 2.73 M0.18 2.71 C0.13 2.72, 0.08 2.73, 0.05 2.73 M0.05 2.73 C0 2.73, -0.04 2.73, -0.09 2.73 M0.05 2.73 C-0.01 2.73, -0.06 2.73, -0.09 2.73 M-0.09 2.73 C-0.14 2.73, -0.19 2.72, -0.23 2.72 M-0.09 2.73 C-0.12 2.73, -0.15 2.73, -0.23 2.72 M-0.23 2.72 C-0.27 2.71, -0.3 2.71, -0.36 2.7 M-0.23 2.72 C-0.28 2.71, -0.32 2.7, -0.36 2.7 M-0.36 2.7 C-0.39 2.69, -0.43 2.68, -0.49 2.66 M-0.36 2.7 C-0.4 2.69, -0.44 2.68, -0.49 2.66 M-0.49 2.66 C-0.53 2.64, -0.58 2.62, -0.61 2.61 M-0.49 2.66 C-0.52 2.65, -0.56 2.63, -0.61 2.61 M-0.61 2.61 C-0.65 2.59, -0.7 2.57, -0.73 2.55 M-0.61 2.61 C-0.64 2.59, -0.68 2.58, -0.73 2.55 M-0.73 2.55 C-0.76 2.53, -0.8 2.51, -0.84 2.48 M-0.73 2.55 C-0.77 2.53, -0.81 2.5, -0.84 2.48 M-0.84 2.48 C-0.86 2.46, -0.88 2.45, -0.94 2.4 M-0.84 2.48 C-0.87 2.45, -0.91 2.43, -0.94 2.4 M-0.94 2.4 C-0.97 2.38, -1 2.35, -1.03 2.32 M-0.94 2.4 C-0.97 2.37, -1.01 2.34, -1.03 2.32 M-1.03 2.32 C-1.06 2.29, -1.08 2.26, -1.12 2.22 M-1.03 2.32 C-1.05 2.29, -1.08 2.26, -1.12 2.22 M-1.12 2.22 C-1.14 2.18, -1.17 2.15, -1.19 2.11 M-1.12 2.22 C-1.13 2.19, -1.15 2.17, -1.19 2.11 M-1.19 2.11 C-1.21 2.09, -1.22 2.06, -1.26 2 M-1.19 2.11 C-1.21 2.09, -1.23 2.06, -1.26 2 M-1.26 2 C-1.27 1.97, -1.29 1.94, -1.31 1.89 M-1.26 2 C-1.28 1.96, -1.3 1.92, -1.31 1.89 M-1.31 1.89 C-1.33 1.85, -1.34 1.82, -1.36 1.76 M-1.31 1.89 C-1.33 1.84, -1.35 1.79, -1.36 1.76 M-1.36 1.76 C-1.37 1.72, -1.38 1.68, -1.39 1.64 M-1.36 1.76 C-1.37 1.73, -1.37 1.7, -1.39 1.64 M-1.39 1.64 C-1.4 1.6, -1.4 1.56, -1.41 1.5 M-1.39 1.64 C-1.4 1.59, -1.4 1.55, -1.41 1.5 M-1.41 1.5 C-1.41 1.46, -1.42 1.42, -1.42 1.37 M-1.41 1.5 C-1.41 1.47, -1.41 1.44, -1.42 1.37 M-1.42 1.37 C-1.42 1.33, -1.41 1.29, -1.41 1.23 M-1.42 1.37 C-1.42 1.33, -1.41 1.3, -1.41 1.23 M-1.41 1.23 C-1.4 1.19, -1.4 1.15, -1.39 1.09 M-1.41 1.23 C-1.4 1.19, -1.4 1.15, -1.39 1.09 M-1.39 1.09 C-1.38 1.06, -1.37 1.03, -1.35 0.96 M-1.39 1.09 C-1.38 1.05, -1.37 1.01, -1.35 0.96 M-1.35 0.96 C-1.34 0.92, -1.32 0.89, -1.3 0.83 M-1.35 0.96 C-1.33 0.91, -1.31 0.86, -1.3 0.83 M-1.3 0.83 C-1.28 0.79, -1.26 0.75, -1.24 0.71 M-1.3 0.83 C-1.29 0.8, -1.27 0.76, -1.24 0.71 M-1.24 0.71 C-1.22 0.68, -1.2 0.64, -1.17 0.6 M-1.24 0.71 C-1.22 0.67, -1.19 0.63, -1.17 0.6 M-1.17 0.6 C-1.16 0.58, -1.14 0.55, -1.09 0.49 M-1.17 0.6 C-1.15 0.57, -1.13 0.54, -1.09 0.49 M-1.09 0.49 C-1.07 0.47, -1.05 0.45, -1 0.39 M-1.09 0.49 C-1.07 0.47, -1.05 0.44, -1 0.39 M-1 0.39 C-0.96 0.36, -0.92 0.32, -0.9 0.31 M-1 0.39 C-0.96 0.36, -0.93 0.33, -0.9 0.31 M-0.9 0.31 C-0.87 0.28, -0.83 0.25, -0.8 0.23 M-0.9 0.31 C-0.87 0.28, -0.84 0.26, -0.8 0.23 M-0.8 0.23 C-0.77 0.21, -0.74 0.19, -0.68 0.16 M-0.8 0.23 C-0.76 0.2, -0.72 0.18, -0.68 0.16 M-0.68 0.16 C-0.63 0.14, -0.59 0.12, -0.56 0.1 M-0.68 0.16 C-0.66 0.15, -0.63 0.14, -0.56 0.1 M-0.56 0.1 C-0.52 0.09, -0.49 0.08, -0.43 0.06 M-0.56 0.1 C-0.53 0.09, -0.49 0.08, -0.43 0.06 M-0.43 0.06 C-0.39 0.05, -0.35 0.04, -0.3 0.02 M-0.43 0.06 C-0.4 0.05, -0.37 0.04, -0.3 0.02 M-0.3 0.02 C-0.26 0.02, -0.23 0.01, -0.16 0.01 M-0.3 0.02 C-0.27 0.02, -0.24 0.02, -0.16 0.01 M-0.16 0.01 C-0.12 0, -0.07 0, -0.02 0 M-0.16 0.01 C-0.11 0, -0.06 0, -0.02 0 M-0.02 0 C-0.02 0, -0.01 0, 0 0 M-0.02 0 C-0.02 0, -0.01 0, 0 0 M0 0 C0 0, 0 0, 0 0 M0 0 C0 0, 0 0, 0 0 M0 0 C0 0, 0 0, 0 0 M0 0 C0 0, 0 0, 0 0" stroke="transparent" stroke-width="1" fill="none"></path></g></g><mask></mask><g stroke-linecap="round"><g transform="translate(32.215599060058594 31.333333492279053) rotate(0 -0.013135910034179688 2.56683087348938)" fill-rule="evenodd"><path d="M0 0 L0 0 L-0.26 0.01 L-0.52 0.05 L-0.76 0.11 L-1 0.2 L-1.23 0.3 L-1.44 0.43 L-1.64 0.58 L-1.82 0.74 L-1.99 0.92 L-2.14 1.12 L-2.27 1.33 L-2.37 1.56 L-2.46 1.79 L-2.53 2.04 L-2.57 2.29 L-2.58 2.55 L-2.57 2.82 L-2.53 3.07 L-2.47 3.32 L-2.38 3.55 L-2.28 3.78 L-2.15 3.99 L-2 4.19 L-1.84 4.37 L-1.66 4.54 L-1.46 4.69 L-1.25 4.82 L-1.02 4.93 L-0.79 5.02 L-0.54 5.08 L-0.29 5.12 L-0.03 5.13 L0.24 5.12 L0.49 5.08 L0.74 5.02 L0.97 4.94 L1.2 4.83 L1.41 4.7 L1.61 4.56 L1.79 4.39 L1.96 4.21 L2.11 4.01 L2.24 3.8 L2.35 3.58 L2.44 3.34 L2.5 3.1 L2.54 2.84 L2.55 2.58 L2.54 2.32 L2.51 2.07 L2.45 1.83 L2.36 1.59 L2.25 1.36 L2.12 1.14 L1.97 0.94 L1.8 0.75 L1.62 0.58 L1.41 0.44 L1.2 0.31 L0.97 0.2 L0.74 0.12 L0.5 0.06 L0.25 0.03 L0 0.02 L0 0 L0 0" stroke="none" stroke-width="0" fill="#669df6" fill-rule="evenodd"></path><path d="M0 0 C0 0, 0 0, 0 0 M0 0 C0 0, 0 0, 0 0 M0 0 C-0.08 0, -0.16 0.01, -0.26 0.01 M0 0 C-0.08 0, -0.15 0.01, -0.26 0.01 M-0.26 0.01 C-0.32 0.02, -0.38 0.03, -0.52 0.05 M-0.26 0.01 C-0.32 0.02, -0.38 0.03, -0.52 0.05 M-0.52 0.05 C-0.6 0.07, -0.68 0.09, -0.76 0.11 M-0.52 0.05 C-0.61 0.07, -0.7 0.09, -0.76 0.11 M-0.76 0.11 C-0.82 0.13, -0.87 0.15, -1 0.2 M-0.76 0.11 C-0.83 0.14, -0.9 0.16, -1 0.2 M-1 0.2 C-1.05 0.22, -1.11 0.25, -1.23 0.3 M-1 0.2 C-1.08 0.24, -1.16 0.28, -1.23 0.3 M-1.23 0.3 C-1.31 0.35, -1.39 0.41, -1.44 0.43 M-1.23 0.3 C-1.27 0.33, -1.31 0.36, -1.44 0.43 M-1.44 0.43 C-1.49 0.47, -1.53 0.5, -1.64 0.58 M-1.44 0.43 C-1.49 0.47, -1.53 0.5, -1.64 0.58 M-1.64 0.58 C-1.67 0.61, -1.71 0.64, -1.82 0.74 M-1.64 0.58 C-1.7 0.63, -1.76 0.68, -1.82 0.74 M-1.82 0.74 C-1.86 0.79, -1.9 0.83, -1.99 0.92 M-1.82 0.74 C-1.88 0.81, -1.95 0.88, -1.99 0.92 M-1.99 0.92 C-2.03 0.98, -2.06 1.03, -2.14 1.12 M-1.99 0.92 C-2.02 0.97, -2.05 1.01, -2.14 1.12 M-2.14 1.12 C-2.17 1.17, -2.2 1.22, -2.27 1.33 M-2.14 1.12 C-2.17 1.18, -2.21 1.24, -2.27 1.33 M-2.27 1.33 C-2.3 1.4, -2.33 1.46, -2.37 1.56 M-2.27 1.33 C-2.3 1.41, -2.34 1.49, -2.37 1.56 M-2.37 1.56 C-2.4 1.62, -2.42 1.69, -2.46 1.79 M-2.37 1.56 C-2.4 1.63, -2.43 1.7, -2.46 1.79 M-2.46 1.79 C-2.49 1.89, -2.51 1.98, -2.53 2.04 M-2.46 1.79 C-2.48 1.87, -2.5 1.95, -2.53 2.04 M-2.53 2.04 C-2.54 2.12, -2.55 2.2, -2.57 2.29 M-2.53 2.04 C-2.54 2.13, -2.55 2.22, -2.57 2.29 M-2.57 2.29 C-2.57 2.38, -2.58 2.48, -2.58 2.55 M-2.57 2.29 C-2.57 2.37, -2.57 2.44, -2.58 2.55 M-2.58 2.55 C-2.58 2.62, -2.57 2.69, -2.57 2.82 M-2.58 2.55 C-2.58 2.64, -2.57 2.73, -2.57 2.82 M-2.57 2.82 C-2.55 2.91, -2.54 3, -2.53 3.07 M-2.57 2.82 C-2.56 2.9, -2.54 2.98, -2.53 3.07 M-2.53 3.07 C-2.51 3.17, -2.48 3.26, -2.47 3.32 M-2.53 3.07 C-2.51 3.15, -2.49 3.22, -2.47 3.32 M-2.47 3.32 C-2.44 3.39, -2.42 3.46, -2.38 3.55 M-2.47 3.32 C-2.45 3.37, -2.43 3.43, -2.38 3.55 M-2.38 3.55 C-2.35 3.63, -2.31 3.71, -2.28 3.78 M-2.38 3.55 C-2.34 3.63, -2.31 3.71, -2.28 3.78 M-2.28 3.78 C-2.25 3.83, -2.22 3.88, -2.15 3.99 M-2.28 3.78 C-2.23 3.86, -2.18 3.94, -2.15 3.99 M-2.15 3.99 C-2.11 4.04, -2.07 4.1, -2 4.19 M-2.15 3.99 C-2.1 4.06, -2.05 4.12, -2 4.19 M-2 4.19 C-1.95 4.24, -1.91 4.3, -1.84 4.37 M-2 4.19 C-1.96 4.23, -1.93 4.27, -1.84 4.37 M-1.84 4.37 C-1.77 4.43, -1.71 4.49, -1.66 4.54 M-1.84 4.37 C-1.78 4.42, -1.73 4.47, -1.66 4.54 M-1.66 4.54 C-1.61 4.57, -1.57 4.61, -1.46 4.69 M-1.66 4.54 C-1.61 4.57, -1.56 4.61, -1.46 4.69 M-1.46 4.69 C-1.4 4.73, -1.34 4.76, -1.25 4.82 M-1.46 4.69 C-1.41 4.72, -1.35 4.75, -1.25 4.82 M-1.25 4.82 C-1.19 4.85, -1.13 4.87, -1.02 4.93 M-1.25 4.82 C-1.18 4.85, -1.1 4.89, -1.02 4.93 M-1.02 4.93 C-0.96 4.95, -0.9 4.97, -0.79 5.02 M-1.02 4.93 C-0.97 4.95, -0.91 4.97, -0.79 5.02 M-0.79 5.02 C-0.74 5.03, -0.69 5.04, -0.54 5.08 M-0.79 5.02 C-0.74 5.03, -0.68 5.04, -0.54 5.08 M-0.54 5.08 C-0.45 5.09, -0.36 5.11, -0.29 5.12 M-0.54 5.08 C-0.49 5.09, -0.43 5.1, -0.29 5.12 M-0.29 5.12 C-0.19 5.12, -0.08 5.13, -0.03 5.13 M-0.29 5.12 C-0.2 5.12, -0.12 5.13, -0.03 5.13 M-0.03 5.13 C0.07 5.13, 0.16 5.12, 0.24 5.12 M-0.03 5.13 C0.03 5.13, 0.09 5.13, 0.24 5.12 M0.24 5.12 C0.31 5.11, 0.39 5.1, 0.49 5.08 M0.24 5.12 C0.3 5.11, 0.36 5.1, 0.49 5.08 M0.49 5.08 C0.56 5.07, 0.62 5.05, 0.74 5.02 M0.49 5.08 C0.59 5.06, 0.69 5.03, 0.74 5.02 M0.74 5.02 C0.81 5, 0.88 4.97, 0.97 4.94 M0.74 5.02 C0.79 5, 0.85 4.98, 0.97 4.94 M0.97 4.94 C1.04 4.91, 1.1 4.88, 1.2 4.83 M0.97 4.94 C1.04 4.9, 1.11 4.87, 1.2 4.83 M1.2 4.83 C1.28 4.78, 1.37 4.73, 1.41 4.7 M1.2 4.83 C1.28 4.78, 1.36 4.74, 1.41 4.7 M1.41 4.7 C1.48 4.65, 1.56 4.59, 1.61 4.56 M1.41 4.7 C1.47 4.66, 1.52 4.62, 1.61 4.56 M1.61 4.56 C1.65 4.52, 1.7 4.48, 1.79 4.39 M1.61 4.56 C1.68 4.49, 1.76 4.42, 1.79 4.39 M1.79 4.39 C1.84 4.34, 1.89 4.28, 1.96 4.21 M1.79 4.39 C1.84 4.34, 1.88 4.29, 1.96 4.21 M1.96 4.21 C2 4.16, 2.04 4.11, 2.11 4.01 M1.96 4.21 C2 4.16, 2.04 4.11, 2.11 4.01 M2.11 4.01 C2.14 3.96, 2.18 3.9, 2.24 3.8 M2.11 4.01 C2.16 3.93, 2.21 3.85, 2.24 3.8 M2.24 3.8 C2.26 3.75, 2.29 3.7, 2.35 3.58 M2.24 3.8 C2.28 3.72, 2.32 3.64, 2.35 3.58 M2.35 3.58 C2.38 3.49, 2.41 3.4, 2.44 3.34 M2.35 3.58 C2.38 3.5, 2.4 3.43, 2.44 3.34 M2.44 3.34 C2.45 3.28, 2.47 3.21, 2.5 3.1 M2.44 3.34 C2.46 3.26, 2.48 3.19, 2.5 3.1 M2.5 3.1 C2.52 3, 2.53 2.9, 2.54 2.84 M2.5 3.1 C2.51 3.01, 2.53 2.92, 2.54 2.84 M2.54 2.84 C2.55 2.74, 2.55 2.64, 2.55 2.58 M2.54 2.84 C2.54 2.78, 2.55 2.72, 2.55 2.58 M2.55 2.58 C2.55 2.52, 2.55 2.47, 2.54 2.32 M2.55 2.58 C2.55 2.48, 2.55 2.39, 2.54 2.32 M2.54 2.32 C2.54 2.27, 2.53 2.22, 2.51 2.07 M2.54 2.32 C2.53 2.23, 2.52 2.14, 2.51 2.07 M2.51 2.07 C2.48 1.97, 2.46 1.88, 2.45 1.83 M2.51 2.07 C2.49 2.01, 2.48 1.95, 2.45 1.83 M2.45 1.83 C2.43 1.77, 2.41 1.72, 2.36 1.59 M2.45 1.83 C2.42 1.76, 2.4 1.68, 2.36 1.59 M2.36 1.59 C2.34 1.54, 2.32 1.49, 2.25 1.36 M2.36 1.59 C2.34 1.54, 2.32 1.5, 2.25 1.36 M2.25 1.36 C2.21 1.29, 2.17 1.23, 2.12 1.14 M2.25 1.36 C2.21 1.28, 2.16 1.2, 2.12 1.14 M2.12 1.14 C2.07 1.07, 2.01 1, 1.97 0.94 M2.12 1.14 C2.08 1.09, 2.04 1.03, 1.97 0.94 M1.97 0.94 C1.93 0.89, 1.89 0.85, 1.8 0.75 M1.97 0.94 C1.93 0.9, 1.9 0.86, 1.8 0.75 M1.8 0.75 C1.74 0.7, 1.68 0.64, 1.62 0.58 M1.8 0.75 C1.75 0.7, 1.69 0.65, 1.62 0.58 M1.62 0.58 C1.57 0.55, 1.53 0.52, 1.41 0.44 M1.62 0.58 C1.56 0.54, 1.5 0.5, 1.41 0.44 M1.41 0.44 C1.33 0.39, 1.24 0.34, 1.2 0.31 M1.41 0.44 C1.36 0.41, 1.31 0.38, 1.2 0.31 M1.2 0.31 C1.15 0.28, 1.09 0.26, 0.97 0.2 M1.2 0.31 C1.14 0.28, 1.09 0.26, 0.97 0.2 M0.97 0.2 C0.88 0.17, 0.79 0.14, 0.74 0.12 M0.97 0.2 C0.9 0.18, 0.82 0.15, 0.74 0.12 M0.74 0.12 C0.65 0.1, 0.55 0.08, 0.5 0.06 M0.74 0.12 C0.69 0.11, 0.63 0.1, 0.5 0.06 M0.5 0.06 C0.44 0.05, 0.39 0.05, 0.25 0.03 M0.5 0.06 C0.42 0.05, 0.35 0.04, 0.25 0.03 M0.25 0.03 C0.16 0.02, 0.06 0.02, 0 0.02 M0.25 0.03 C0.16 0.02, 0.06 0.02, 0 0.02 M0 0.02 C0 0.01, 0 0.01, 0 0 M0 0.02 C0 0.01, 0 0, 0 0 M0 0 C0 0, 0 0, 0 0 M0 0 C0 0, 0 0, 0 0 M0 0 C0 0, 0 0, 0 0 M0 0 C0 0, 0 0, 0 0" stroke="transparent" stroke-width="1" fill="none"></path></g></g><mask></mask><g stroke-linecap="round"><g transform="translate(36.524301528930664 40.36059093475342) rotate(0 4.76837158203125e-7 1.3661742210388184)" fill-rule="evenodd"><path d="M0 0 L0 0 L0.14 0.01 L0.28 0.03 L0.41 0.06 L0.53 0.11 L0.65 0.16 L0.76 0.23 L0.87 0.31 L0.97 0.4 L1.05 0.5 L1.13 0.6 L1.2 0.71 L1.26 0.83 L1.3 0.96 L1.34 1.09 L1.36 1.23 L1.37 1.37 L1.36 1.51 L1.34 1.64 L1.3 1.77 L1.26 1.9 L1.2 2.02 L1.13 2.13 L1.05 2.24 L0.97 2.33 L0.87 2.42 L0.76 2.5 L0.65 2.57 L0.53 2.63 L0.41 2.67 L0.28 2.7 L0.14 2.73 L0 2.73 L-0.14 2.73 L-0.28 2.7 L-0.41 2.67 L-0.53 2.63 L-0.65 2.57 L-0.76 2.5 L-0.87 2.42 L-0.97 2.33 L-1.05 2.24 L-1.13 2.13 L-1.2 2.02 L-1.26 1.9 L-1.3 1.77 L-1.34 1.64 L-1.36 1.51 L-1.37 1.37 L-1.36 1.23 L-1.34 1.09 L-1.3 0.96 L-1.26 0.83 L-1.2 0.71 L-1.13 0.6 L-1.05 0.5 L-0.97 0.4 L-0.87 0.31 L-0.76 0.23 L-0.65 0.16 L-0.53 0.11 L-0.41 0.06 L-0.28 0.03 L-0.14 0.01 L0 0 L0 0" stroke="none" stroke-width="0" fill="#fff" fill-rule="evenodd"></path><path d="M0 0 C0 0, 0 0, 0 0 M0 0 C0 0, 0 0, 0 0 M0 0 C0.03 0, 0.06 0, 0.14 0.01 M0 0 C0.04 0, 0.09 0, 0.14 0.01 M0.14 0.01 C0.19 0.01, 0.24 0.02, 0.28 0.03 M0.14 0.01 C0.19 0.01, 0.24 0.02, 0.28 0.03 M0.28 0.03 C0.31 0.04, 0.35 0.05, 0.41 0.06 M0.28 0.03 C0.31 0.04, 0.35 0.05, 0.41 0.06 M0.41 0.06 C0.44 0.07, 0.47 0.09, 0.53 0.11 M0.41 0.06 C0.43 0.07, 0.46 0.08, 0.53 0.11 M0.53 0.11 C0.56 0.12, 0.59 0.13, 0.65 0.16 M0.53 0.11 C0.58 0.13, 0.62 0.15, 0.65 0.16 M0.65 0.16 C0.7 0.19, 0.74 0.22, 0.76 0.23 M0.65 0.16 C0.69 0.19, 0.72 0.21, 0.76 0.23 M0.76 0.23 C0.8 0.26, 0.83 0.28, 0.87 0.31 M0.76 0.23 C0.81 0.26, 0.85 0.3, 0.87 0.31 M0.87 0.31 C0.9 0.34, 0.94 0.37, 0.97 0.4 M0.87 0.31 C0.91 0.35, 0.95 0.38, 0.97 0.4 M0.97 0.4 C0.99 0.42, 1.01 0.45, 1.05 0.5 M0.97 0.4 C0.99 0.43, 1.02 0.45, 1.05 0.5 M1.05 0.5 C1.08 0.53, 1.11 0.57, 1.13 0.6 M1.05 0.5 C1.07 0.52, 1.09 0.54, 1.13 0.6 M1.13 0.6 C1.16 0.64, 1.18 0.68, 1.2 0.71 M1.13 0.6 C1.16 0.64, 1.18 0.68, 1.2 0.71 M1.2 0.71 C1.22 0.76, 1.24 0.8, 1.26 0.83 M1.2 0.71 C1.22 0.75, 1.24 0.79, 1.26 0.83 M1.26 0.83 C1.27 0.86, 1.28 0.9, 1.3 0.96 M1.26 0.83 C1.28 0.88, 1.29 0.92, 1.3 0.96 M1.3 0.96 C1.32 1.01, 1.33 1.06, 1.34 1.09 M1.3 0.96 C1.31 0.99, 1.32 1.01, 1.34 1.09 M1.34 1.09 C1.34 1.13, 1.35 1.17, 1.36 1.23 M1.34 1.09 C1.35 1.14, 1.35 1.19, 1.36 1.23 M1.36 1.23 C1.36 1.28, 1.36 1.33, 1.37 1.37 M1.36 1.23 C1.36 1.27, 1.36 1.31, 1.37 1.37 M1.37 1.37 C1.36 1.42, 1.36 1.47, 1.36 1.51 M1.37 1.37 C1.36 1.41, 1.36 1.45, 1.36 1.51 M1.36 1.51 C1.35 1.55, 1.35 1.59, 1.34 1.64 M1.36 1.51 C1.35 1.54, 1.35 1.58, 1.34 1.64 M1.34 1.64 C1.33 1.68, 1.32 1.72, 1.3 1.77 M1.34 1.64 C1.33 1.67, 1.32 1.7, 1.3 1.77 M1.3 1.77 C1.29 1.81, 1.28 1.85, 1.26 1.9 M1.3 1.77 C1.29 1.81, 1.27 1.86, 1.26 1.9 M1.26 1.9 C1.24 1.93, 1.23 1.97, 1.2 2.02 M1.26 1.9 C1.25 1.93, 1.23 1.95, 1.2 2.02 M1.2 2.02 C1.18 2.05, 1.16 2.08, 1.13 2.13 M1.2 2.02 C1.19 2.04, 1.17 2.07, 1.13 2.13 M1.13 2.13 C1.11 2.16, 1.1 2.18, 1.05 2.24 M1.13 2.13 C1.12 2.15, 1.1 2.17, 1.05 2.24 M1.05 2.24 C1.02 2.27, 0.99 2.31, 0.97 2.33 M1.05 2.24 C1.02 2.27, 0.99 2.31, 0.97 2.33 M0.97 2.33 C0.93 2.36, 0.9 2.39, 0.87 2.42 M0.97 2.33 C0.93 2.36, 0.9 2.4, 0.87 2.42 M0.87 2.42 C0.84 2.44, 0.82 2.46, 0.76 2.5 M0.87 2.42 C0.84 2.44, 0.82 2.46, 0.76 2.5 M0.76 2.5 C0.74 2.52, 0.71 2.53, 0.65 2.57 M0.76 2.5 C0.72 2.53, 0.68 2.55, 0.65 2.57 M0.65 2.57 C0.61 2.59, 0.56 2.61, 0.53 2.63 M0.65 2.57 C0.61 2.59, 0.57 2.61, 0.53 2.63 M0.53 2.63 C0.49 2.64, 0.44 2.66, 0.41 2.67 M0.53 2.63 C0.5 2.64, 0.47 2.65, 0.41 2.67 M0.41 2.67 C0.37 2.68, 0.34 2.69, 0.28 2.7 M0.41 2.67 C0.38 2.68, 0.35 2.69, 0.28 2.7 M0.28 2.7 C0.24 2.71, 0.21 2.71, 0.14 2.73 M0.28 2.7 C0.24 2.71, 0.21 2.71, 0.14 2.73 M0.14 2.73 C0.09 2.73, 0.04 2.73, 0 2.73 M0.14 2.73 C0.11 2.73, 0.08 2.73, 0 2.73 M0 2.73 C-0.03 2.73, -0.06 2.73, -0.14 2.73 M0 2.73 C-0.05 2.73, -0.09 2.73, -0.14 2.73 M-0.14 2.73 C-0.18 2.72, -0.21 2.71, -0.28 2.7 M-0.14 2.73 C-0.19 2.72, -0.25 2.71, -0.28 2.7 M-0.28 2.7 C-0.3 2.7, -0.33 2.69, -0.41 2.67 M-0.28 2.7 C-0.32 2.69, -0.36 2.68, -0.41 2.67 M-0.41 2.67 C-0.43 2.66, -0.46 2.65, -0.53 2.63 M-0.41 2.67 C-0.45 2.65, -0.5 2.64, -0.53 2.63 M-0.53 2.63 C-0.57 2.61, -0.6 2.59, -0.65 2.57 M-0.53 2.63 C-0.56 2.61, -0.59 2.6, -0.65 2.57 M-0.65 2.57 C-0.68 2.55, -0.71 2.53, -0.76 2.5 M-0.65 2.57 C-0.68 2.55, -0.71 2.53, -0.76 2.5 M-0.76 2.5 C-0.79 2.48, -0.81 2.47, -0.87 2.42 M-0.76 2.5 C-0.79 2.48, -0.81 2.47, -0.87 2.42 M-0.87 2.42 C-0.91 2.39, -0.94 2.36, -0.97 2.33 M-0.87 2.42 C-0.89 2.4, -0.91 2.38, -0.97 2.33 M-0.97 2.33 C-1 2.3, -1.03 2.27, -1.05 2.24 M-0.97 2.33 C-0.99 2.31, -1.01 2.29, -1.05 2.24 M-1.05 2.24 C-1.08 2.2, -1.11 2.17, -1.13 2.13 M-1.05 2.24 C-1.09 2.2, -1.12 2.15, -1.13 2.13 M-1.13 2.13 C-1.16 2.09, -1.18 2.05, -1.2 2.02 M-1.13 2.13 C-1.15 2.1, -1.17 2.08, -1.2 2.02 M-1.2 2.02 C-1.22 1.98, -1.23 1.95, -1.26 1.9 M-1.2 2.02 C-1.22 1.97, -1.25 1.92, -1.26 1.9 M-1.26 1.9 C-1.28 1.85, -1.3 1.8, -1.3 1.77 M-1.26 1.9 C-1.28 1.85, -1.3 1.8, -1.3 1.77 M-1.3 1.77 C-1.31 1.74, -1.32 1.71, -1.34 1.64 M-1.3 1.77 C-1.31 1.74, -1.32 1.7, -1.34 1.64 M-1.34 1.64 C-1.34 1.61, -1.35 1.57, -1.36 1.51 M-1.34 1.64 C-1.34 1.61, -1.35 1.58, -1.36 1.51 M-1.36 1.51 C-1.36 1.47, -1.36 1.43, -1.37 1.37 M-1.36 1.51 C-1.36 1.46, -1.36 1.41, -1.37 1.37 M-1.37 1.37 C-1.36 1.32, -1.36 1.27, -1.36 1.23 M-1.37 1.37 C-1.36 1.33, -1.36 1.29, -1.36 1.23 M-1.36 1.23 C-1.35 1.17, -1.34 1.12, -1.34 1.09 M-1.36 1.23 C-1.35 1.18, -1.35 1.14, -1.34 1.09 M-1.34 1.09 C-1.33 1.05, -1.32 1, -1.3 0.96 M-1.34 1.09 C-1.33 1.06, -1.32 1.03, -1.3 0.96 M-1.3 0.96 C-1.3 0.93, -1.29 0.9, -1.26 0.83 M-1.3 0.96 C-1.29 0.91, -1.27 0.87, -1.26 0.83 M-1.26 0.83 C-1.24 0.79, -1.22 0.75, -1.2 0.71 M-1.26 0.83 C-1.24 0.79, -1.22 0.75, -1.2 0.71 M-1.2 0.71 C-1.18 0.68, -1.16 0.64, -1.13 0.6 M-1.2 0.71 C-1.18 0.68, -1.16 0.65, -1.13 0.6 M-1.13 0.6 C-1.11 0.58, -1.1 0.55, -1.05 0.5 M-1.13 0.6 C-1.11 0.58, -1.1 0.55, -1.05 0.5 M-1.05 0.5 C-1.03 0.46, -1 0.43, -0.97 0.4 M-1.05 0.5 C-1.02 0.46, -0.99 0.42, -0.97 0.4 M-0.97 0.4 C-0.94 0.38, -0.92 0.36, -0.87 0.31 M-0.97 0.4 C-0.94 0.37, -0.91 0.35, -0.87 0.31 M-0.87 0.31 C-0.83 0.28, -0.79 0.25, -0.76 0.23 M-0.87 0.31 C-0.84 0.29, -0.82 0.27, -0.76 0.23 M-0.76 0.23 C-0.73 0.21, -0.7 0.19, -0.65 0.16 M-0.76 0.23 C-0.72 0.21, -0.68 0.18, -0.65 0.16 M-0.65 0.16 C-0.62 0.15, -0.59 0.13, -0.53 0.11 M-0.65 0.16 C-0.62 0.15, -0.58 0.13, -0.53 0.11 M-0.53 0.11 C-0.5 0.09, -0.46 0.08, -0.41 0.06 M-0.53 0.11 C-0.48 0.09, -0.44 0.07, -0.41 0.06 M-0.41 0.06 C-0.37 0.05, -0.34 0.04, -0.28 0.03 M-0.41 0.06 C-0.38 0.05, -0.35 0.05, -0.28 0.03 M-0.28 0.03 C-0.24 0.02, -0.2 0.02, -0.14 0.01 M-0.28 0.03 C-0.23 0.02, -0.18 0.01, -0.14 0.01 M-0.14 0.01 C-0.09 0, -0.03 0, 0 0 M-0.14 0.01 C-0.1 0.01, -0.06 0, 0 0 M0 0 C0 0, 0 0, 0 0 M0 0 C0 0, 0 0, 0 0 M0 0 C0 0, 0 0, 0 0 M0 0 C0 0, 0 0, 0 0" stroke="transparent" stroke-width="1" fill="none"></path></g></g><mask></mask><g stroke-linecap="round"><g transform="translate(27.649425506591797 40.36059093475342) rotate(0 -2.384185791015625e-7 1.3661742210388184)" fill-rule="evenodd"><path d="M0 0 L0 0 L0.14 0.01 L0.28 0.03 L0.41 0.06 L0.53 0.11 L0.65 0.16 L0.76 0.23 L0.87 0.31 L0.97 0.4 L1.05 0.5 L1.13 0.6 L1.2 0.71 L1.26 0.83 L1.3 0.96 L1.34 1.09 L1.36 1.23 L1.37 1.37 L1.36 1.51 L1.34 1.64 L1.3 1.77 L1.26 1.9 L1.2 2.02 L1.13 2.13 L1.05 2.24 L0.97 2.33 L0.87 2.42 L0.76 2.5 L0.65 2.57 L0.53 2.63 L0.41 2.67 L0.28 2.7 L0.14 2.73 L0 2.73 L-0.14 2.73 L-0.28 2.7 L-0.41 2.67 L-0.53 2.63 L-0.65 2.57 L-0.76 2.5 L-0.87 2.42 L-0.97 2.33 L-1.05 2.24 L-1.13 2.13 L-1.2 2.02 L-1.26 1.9 L-1.3 1.77 L-1.34 1.64 L-1.36 1.51 L-1.37 1.37 L-1.36 1.23 L-1.34 1.09 L-1.31 0.96 L-1.26 0.83 L-1.2 0.71 L-1.14 0.6 L-1.06 0.5 L-0.97 0.4 L-0.87 0.31 L-0.77 0.23 L-0.65 0.16 L-0.53 0.11 L-0.41 0.06 L-0.28 0.03 L-0.14 0.01 L0 0 L0 0" stroke="none" stroke-width="0" fill="#fff" fill-rule="evenodd"></path><path d="M0 0 C0 0, 0 0, 0 0 M0 0 C0 0, 0 0, 0 0 M0 0 C0.04 0, 0.08 0, 0.14 0.01 M0 0 C0.05 0, 0.1 0.01, 0.14 0.01 M0.14 0.01 C0.19 0.01, 0.23 0.02, 0.28 0.03 M0.14 0.01 C0.19 0.01, 0.24 0.02, 0.28 0.03 M0.28 0.03 C0.31 0.04, 0.35 0.05, 0.41 0.06 M0.28 0.03 C0.31 0.04, 0.34 0.04, 0.41 0.06 M0.41 0.06 C0.44 0.07, 0.48 0.09, 0.53 0.11 M0.41 0.06 C0.45 0.08, 0.49 0.09, 0.53 0.11 M0.53 0.11 C0.57 0.12, 0.61 0.14, 0.65 0.16 M0.53 0.11 C0.58 0.13, 0.62 0.15, 0.65 0.16 M0.65 0.16 C0.68 0.18, 0.71 0.2, 0.76 0.23 M0.65 0.16 C0.68 0.18, 0.71 0.2, 0.76 0.23 M0.76 0.23 C0.8 0.26, 0.83 0.28, 0.87 0.31 M0.76 0.23 C0.8 0.26, 0.84 0.29, 0.87 0.31 M0.87 0.31 C0.9 0.34, 0.93 0.36, 0.97 0.4 M0.87 0.31 C0.91 0.35, 0.95 0.38, 0.97 0.4 M0.97 0.4 C1 0.43, 1.03 0.46, 1.05 0.5 M0.97 0.4 C0.99 0.43, 1.02 0.46, 1.05 0.5 M1.05 0.5 C1.08 0.52, 1.1 0.55, 1.13 0.6 M1.05 0.5 C1.09 0.54, 1.12 0.58, 1.13 0.6 M1.13 0.6 C1.16 0.65, 1.19 0.69, 1.2 0.71 M1.13 0.6 C1.15 0.63, 1.17 0.66, 1.2 0.71 M1.2 0.71 C1.22 0.75, 1.24 0.79, 1.26 0.83 M1.2 0.71 C1.22 0.75, 1.24 0.79, 1.26 0.83 M1.26 0.83 C1.28 0.88, 1.29 0.93, 1.3 0.96 M1.26 0.83 C1.28 0.88, 1.29 0.93, 1.3 0.96 M1.3 0.96 C1.32 1.01, 1.33 1.06, 1.34 1.09 M1.3 0.96 C1.32 1.01, 1.33 1.06, 1.34 1.09 M1.34 1.09 C1.34 1.12, 1.35 1.15, 1.36 1.23 M1.34 1.09 C1.35 1.14, 1.35 1.2, 1.36 1.23 M1.36 1.23 C1.36 1.28, 1.36 1.32, 1.37 1.37 M1.36 1.23 C1.36 1.26, 1.36 1.29, 1.37 1.37 M1.37 1.37 C1.36 1.41, 1.36 1.45, 1.36 1.51 M1.37 1.37 C1.36 1.41, 1.36 1.46, 1.36 1.51 M1.36 1.51 C1.35 1.55, 1.35 1.59, 1.34 1.64 M1.36 1.51 C1.35 1.54, 1.35 1.57, 1.34 1.64 M1.34 1.64 C1.33 1.69, 1.31 1.74, 1.3 1.77 M1.34 1.64 C1.33 1.67, 1.32 1.7, 1.3 1.77 M1.3 1.77 C1.29 1.82, 1.27 1.87, 1.26 1.9 M1.3 1.77 C1.29 1.8, 1.28 1.83, 1.26 1.9 M1.26 1.9 C1.24 1.94, 1.22 1.98, 1.2 2.02 M1.26 1.9 C1.24 1.94, 1.22 1.98, 1.2 2.02 M1.2 2.02 C1.18 2.06, 1.15 2.1, 1.13 2.13 M1.2 2.02 C1.18 2.06, 1.15 2.1, 1.13 2.13 M1.13 2.13 C1.1 2.17, 1.07 2.21, 1.05 2.24 M1.13 2.13 C1.11 2.17, 1.08 2.2, 1.05 2.24 M1.05 2.24 C1.04 2.26, 1.02 2.28, 0.97 2.33 M1.05 2.24 C1.02 2.27, 0.99 2.31, 0.97 2.33 M0.97 2.33 C0.93 2.36, 0.9 2.39, 0.87 2.42 M0.97 2.33 C0.94 2.35, 0.92 2.38, 0.87 2.42 M0.87 2.42 C0.84 2.45, 0.81 2.47, 0.76 2.5 M0.87 2.42 C0.84 2.44, 0.81 2.47, 0.76 2.5 M0.76 2.5 C0.73 2.52, 0.7 2.54, 0.65 2.57 M0.76 2.5 C0.72 2.53, 0.68 2.55, 0.65 2.57 M0.65 2.57 C0.61 2.59, 0.57 2.61, 0.53 2.63 M0.65 2.57 C0.61 2.59, 0.57 2.61, 0.53 2.63 M0.53 2.63 C0.5 2.64, 0.46 2.65, 0.41 2.67 M0.53 2.63 C0.48 2.64, 0.43 2.66, 0.41 2.67 M0.41 2.67 C0.37 2.68, 0.33 2.69, 0.28 2.7 M0.41 2.67 C0.36 2.68, 0.32 2.69, 0.28 2.7 M0.28 2.7 C0.23 2.71, 0.19 2.72, 0.14 2.73 M0.28 2.7 C0.23 2.71, 0.19 2.72, 0.14 2.73 M0.14 2.73 C0.11 2.73, 0.08 2.73, 0 2.73 M0.14 2.73 C0.09 2.73, 0.04 2.73, 0 2.73 M0 2.73 C-0.04 2.73, -0.08 2.73, -0.14 2.73 M0 2.73 C-0.03 2.73, -0.07 2.73, -0.14 2.73 M-0.14 2.73 C-0.18 2.72, -0.22 2.71, -0.28 2.7 M-0.14 2.73 C-0.17 2.72, -0.21 2.71, -0.28 2.7 M-0.28 2.7 C-0.31 2.7, -0.35 2.69, -0.41 2.67 M-0.28 2.7 C-0.31 2.7, -0.35 2.69, -0.41 2.67 M-0.41 2.67 C-0.45 2.66, -0.49 2.64, -0.53 2.63 M-0.41 2.67 C-0.45 2.66, -0.49 2.64, -0.53 2.63 M-0.53 2.63 C-0.57 2.61, -0.6 2.59, -0.65 2.57 M-0.53 2.63 C-0.56 2.61, -0.58 2.6, -0.65 2.57 M-0.65 2.57 C-0.69 2.55, -0.73 2.52, -0.76 2.5 M-0.65 2.57 C-0.68 2.55, -0.72 2.53, -0.76 2.5 M-0.76 2.5 C-0.79 2.48, -0.82 2.46, -0.87 2.42 M-0.76 2.5 C-0.81 2.47, -0.85 2.44, -0.87 2.42 M-0.87 2.42 C-0.89 2.4, -0.92 2.38, -0.97 2.33 M-0.87 2.42 C-0.9 2.39, -0.93 2.37, -0.97 2.33 M-0.97 2.33 C-0.99 2.31, -1.01 2.28, -1.05 2.24 M-0.97 2.33 C-0.99 2.3, -1.02 2.27, -1.05 2.24 M-1.05 2.24 C-1.07 2.21, -1.09 2.18, -1.13 2.13 M-1.05 2.24 C-1.08 2.21, -1.1 2.17, -1.13 2.13 M-1.13 2.13 C-1.16 2.09, -1.18 2.05, -1.2 2.02 M-1.13 2.13 C-1.16 2.09, -1.19 2.05, -1.2 2.02 M-1.2 2.02 C-1.22 1.98, -1.24 1.94, -1.26 1.9 M-1.2 2.02 C-1.21 1.99, -1.23 1.97, -1.26 1.9 M-1.26 1.9 C-1.27 1.87, -1.28 1.84, -1.3 1.77 M-1.26 1.9 C-1.27 1.86, -1.29 1.81, -1.3 1.77 M-1.3 1.77 C-1.32 1.73, -1.33 1.69, -1.34 1.64 M-1.3 1.77 C-1.32 1.73, -1.33 1.69, -1.34 1.64 M-1.34 1.64 C-1.34 1.6, -1.35 1.56, -1.36 1.51 M-1.34 1.64 C-1.34 1.6, -1.35 1.56, -1.36 1.51 M-1.36 1.51 C-1.36 1.47, -1.36 1.43, -1.37 1.37 M-1.36 1.51 C-1.36 1.46, -1.36 1.41, -1.37 1.37 M-1.37 1.37 C-1.36 1.33, -1.36 1.29, -1.36 1.23 M-1.37 1.37 C-1.36 1.33, -1.36 1.29, -1.36 1.23 M-1.36 1.23 C-1.35 1.19, -1.35 1.16, -1.34 1.09 M-1.36 1.23 C-1.35 1.18, -1.35 1.13, -1.34 1.09 M-1.34 1.09 C-1.33 1.06, -1.33 1.03, -1.31 0.96 M-1.34 1.09 C-1.33 1.06, -1.33 1.04, -1.31 0.96 M-1.31 0.96 C-1.29 0.91, -1.27 0.86, -1.26 0.83 M-1.31 0.96 C-1.3 0.93, -1.28 0.9, -1.26 0.83 M-1.26 0.83 C-1.24 0.79, -1.22 0.74, -1.2 0.71 M-1.26 0.83 C-1.25 0.81, -1.24 0.79, -1.2 0.71 M-1.2 0.71 C-1.18 0.68, -1.16 0.64, -1.14 0.6 M-1.2 0.71 C-1.18 0.67, -1.15 0.62, -1.14 0.6 M-1.14 0.6 C-1.11 0.57, -1.09 0.54, -1.06 0.5 M-1.14 0.6 C-1.11 0.57, -1.09 0.54, -1.06 0.5 M-1.06 0.5 C-1.04 0.47, -1.02 0.45, -0.97 0.4 M-1.06 0.5 C-1.03 0.46, -1 0.43, -0.97 0.4 M-0.97 0.4 C-0.94 0.37, -0.91 0.35, -0.87 0.31 M-0.97 0.4 C-0.94 0.37, -0.91 0.35, -0.87 0.31 M-0.87 0.31 C-0.84 0.29, -0.81 0.26, -0.77 0.23 M-0.87 0.31 C-0.83 0.28, -0.79 0.25, -0.77 0.23 M-0.77 0.23 C-0.73 0.21, -0.69 0.19, -0.65 0.16 M-0.77 0.23 C-0.74 0.22, -0.71 0.2, -0.65 0.16 M-0.65 0.16 C-0.62 0.15, -0.59 0.13, -0.53 0.11 M-0.65 0.16 C-0.62 0.15, -0.59 0.13, -0.53 0.11 M-0.53 0.11 C-0.5 0.09, -0.46 0.08, -0.41 0.06 M-0.53 0.11 C-0.48 0.09, -0.43 0.07, -0.41 0.06 M-0.41 0.06 C-0.36 0.05, -0.31 0.04, -0.28 0.03 M-0.41 0.06 C-0.37 0.05, -0.33 0.04, -0.28 0.03 M-0.28 0.03 C-0.23 0.02, -0.18 0.01, -0.14 0.01 M-0.28 0.03 C-0.23 0.02, -0.18 0.01, -0.14 0.01 M-0.14 0.01 C-0.11 0.01, -0.08 0, 0 0 M-0.14 0.01 C-0.1 0.01, -0.06 0, 0 0 M0 0 C0 0, 0 0, 0 0 M0 0 C0 0, 0 0, 0 0 M0 0 C0 0, 0 0, 0 0 M0 0 C0 0, 0 0, 0 0" stroke="transparent" stroke-width="1" fill="none"></path></g></g><mask></mask><g stroke-linecap="round"><g transform="translate(32.215599060058594 48.33694648742676) rotate(0 0 1.3661737442016602)" fill-rule="evenodd"><path d="M0 0 L0 0 L0.14 0.01 L0.28 0.03 L0.41 0.06 L0.53 0.11 L0.65 0.17 L0.76 0.23 L0.87 0.31 L0.97 0.4 L1.05 0.5 L1.13 0.6 L1.2 0.72 L1.26 0.84 L1.3 0.96 L1.34 1.09 L1.36 1.23 L1.37 1.37 L1.36 1.51 L1.34 1.64 L1.3 1.77 L1.26 1.9 L1.2 2.02 L1.13 2.13 L1.05 2.24 L0.97 2.33 L0.87 2.42 L0.76 2.5 L0.65 2.57 L0.53 2.63 L0.41 2.67 L0.28 2.7 L0.14 2.73 L0 2.73 L-0.14 2.73 L-0.28 2.7 L-0.41 2.67 L-0.53 2.63 L-0.65 2.57 L-0.76 2.5 L-0.87 2.42 L-0.97 2.33 L-1.05 2.24 L-1.13 2.13 L-1.2 2.02 L-1.26 1.9 L-1.3 1.77 L-1.34 1.64 L-1.36 1.51 L-1.37 1.37 L-1.36 1.23 L-1.34 1.09 L-1.31 0.96 L-1.26 0.84 L-1.2 0.72 L-1.14 0.6 L-1.06 0.5 L-0.97 0.4 L-0.87 0.31 L-0.77 0.23 L-0.65 0.17 L-0.53 0.11 L-0.41 0.06 L-0.28 0.03 L-0.14 0.01 L0 0 L0 0 L0 0" stroke="none" stroke-width="0" fill="#fff" fill-rule="evenodd"></path><path d="M0 0 C0 0, 0 0, 0 0 M0 0 C0 0, 0 0, 0 0 M0 0 C0.05 0, 0.11 0.01, 0.14 0.01 M0 0 C0.03 0, 0.06 0, 0.14 0.01 M0.14 0.01 C0.17 0.01, 0.21 0.02, 0.28 0.03 M0.14 0.01 C0.19 0.02, 0.25 0.02, 0.28 0.03 M0.28 0.03 C0.32 0.04, 0.35 0.05, 0.41 0.06 M0.28 0.03 C0.3 0.03, 0.33 0.04, 0.41 0.06 M0.41 0.06 C0.46 0.08, 0.51 0.1, 0.53 0.11 M0.41 0.06 C0.45 0.08, 0.5 0.09, 0.53 0.11 M0.53 0.11 C0.58 0.13, 0.62 0.15, 0.65 0.17 M0.53 0.11 C0.57 0.13, 0.61 0.15, 0.65 0.17 M0.65 0.17 C0.68 0.18, 0.7 0.2, 0.76 0.23 M0.65 0.17 C0.69 0.19, 0.73 0.21, 0.76 0.23 M0.76 0.23 C0.8 0.26, 0.84 0.29, 0.87 0.31 M0.76 0.23 C0.79 0.25, 0.81 0.27, 0.87 0.31 M0.87 0.31 C0.9 0.34, 0.93 0.36, 0.97 0.4 M0.87 0.31 C0.9 0.34, 0.93 0.37, 0.97 0.4 M0.97 0.4 C1 0.44, 1.04 0.48, 1.05 0.5 M0.97 0.4 C1 0.44, 1.03 0.47, 1.05 0.5 M1.05 0.5 C1.07 0.52, 1.09 0.55, 1.13 0.6 M1.05 0.5 C1.08 0.54, 1.11 0.58, 1.13 0.6 M1.13 0.6 C1.16 0.65, 1.18 0.69, 1.2 0.72 M1.13 0.6 C1.16 0.64, 1.18 0.69, 1.2 0.72 M1.2 0.72 C1.22 0.75, 1.23 0.78, 1.26 0.84 M1.2 0.72 C1.22 0.75, 1.23 0.78, 1.26 0.84 M1.26 0.84 C1.27 0.86, 1.28 0.89, 1.3 0.96 M1.26 0.84 C1.28 0.88, 1.29 0.93, 1.3 0.96 M1.3 0.96 C1.31 1, 1.32 1.04, 1.34 1.09 M1.3 0.96 C1.32 1, 1.33 1.04, 1.34 1.09 M1.34 1.09 C1.35 1.14, 1.35 1.2, 1.36 1.23 M1.34 1.09 C1.35 1.14, 1.35 1.19, 1.36 1.23 M1.36 1.23 C1.36 1.26, 1.36 1.28, 1.37 1.37 M1.36 1.23 C1.36 1.26, 1.36 1.29, 1.37 1.37 M1.37 1.37 C1.36 1.42, 1.36 1.47, 1.36 1.51 M1.37 1.37 C1.36 1.41, 1.36 1.44, 1.36 1.51 M1.36 1.51 C1.35 1.56, 1.34 1.61, 1.34 1.64 M1.36 1.51 C1.35 1.54, 1.35 1.57, 1.34 1.64 M1.34 1.64 C1.33 1.67, 1.32 1.7, 1.3 1.77 M1.34 1.64 C1.33 1.69, 1.31 1.74, 1.3 1.77 M1.3 1.77 C1.29 1.82, 1.27 1.87, 1.26 1.9 M1.3 1.77 C1.29 1.81, 1.28 1.85, 1.26 1.9 M1.26 1.9 C1.24 1.94, 1.22 1.99, 1.2 2.02 M1.26 1.9 C1.24 1.94, 1.22 1.99, 1.2 2.02 M1.2 2.02 C1.18 2.05, 1.16 2.08, 1.13 2.13 M1.2 2.02 C1.18 2.05, 1.17 2.07, 1.13 2.13 M1.13 2.13 C1.11 2.16, 1.09 2.19, 1.05 2.24 M1.13 2.13 C1.11 2.16, 1.09 2.19, 1.05 2.24 M1.05 2.24 C1.03 2.26, 1 2.29, 0.97 2.33 M1.05 2.24 C1.02 2.27, 0.99 2.3, 0.97 2.33 M0.97 2.33 C0.93 2.36, 0.9 2.39, 0.87 2.42 M0.97 2.33 C0.94 2.36, 0.91 2.38, 0.87 2.42 M0.87 2.42 C0.83 2.45, 0.8 2.47, 0.76 2.5 M0.87 2.42 C0.84 2.44, 0.82 2.46, 0.76 2.5 M0.76 2.5 C0.72 2.52, 0.68 2.55, 0.65 2.57 M0.76 2.5 C0.74 2.52, 0.71 2.53, 0.65 2.57 M0.65 2.57 C0.61 2.59, 0.58 2.6, 0.53 2.63 M0.65 2.57 C0.61 2.59, 0.56 2.61, 0.53 2.63 M0.53 2.63 C0.49 2.64, 0.45 2.66, 0.41 2.67 M0.53 2.63 C0.49 2.64, 0.45 2.65, 0.41 2.67 M0.41 2.67 C0.38 2.68, 0.35 2.69, 0.28 2.7 M0.41 2.67 C0.36 2.68, 0.31 2.7, 0.28 2.7 M0.28 2.7 C0.25 2.71, 0.21 2.71, 0.14 2.73 M0.28 2.7 C0.23 2.71, 0.18 2.72, 0.14 2.73 M0.14 2.73 C0.1 2.73, 0.07 2.73, 0 2.73 M0.14 2.73 C0.1 2.73, 0.07 2.73, 0 2.73 M0 2.73 C-0.05 2.73, -0.11 2.73, -0.14 2.73 M0 2.73 C-0.05 2.73, -0.1 2.73, -0.14 2.73 M-0.14 2.73 C-0.18 2.72, -0.22 2.71, -0.28 2.7 M-0.14 2.73 C-0.17 2.72, -0.2 2.72, -0.28 2.7 M-0.28 2.7 C-0.33 2.69, -0.38 2.68, -0.41 2.67 M-0.28 2.7 C-0.32 2.69, -0.37 2.68, -0.41 2.67 M-0.41 2.67 C-0.45 2.66, -0.49 2.64, -0.53 2.63 M-0.41 2.67 C-0.44 2.66, -0.47 2.65, -0.53 2.63 M-0.53 2.63 C-0.57 2.61, -0.61 2.59, -0.65 2.57 M-0.53 2.63 C-0.58 2.6, -0.62 2.58, -0.65 2.57 M-0.65 2.57 C-0.69 2.55, -0.72 2.52, -0.76 2.5 M-0.65 2.57 C-0.69 2.55, -0.73 2.52, -0.76 2.5 M-0.76 2.5 C-0.8 2.47, -0.84 2.44, -0.87 2.42 M-0.76 2.5 C-0.8 2.48, -0.83 2.45, -0.87 2.42 M-0.87 2.42 C-0.89 2.4, -0.91 2.38, -0.97 2.33 M-0.87 2.42 C-0.89 2.4, -0.92 2.38, -0.97 2.33 M-0.97 2.33 C-1 2.3, -1.03 2.27, -1.05 2.24 M-0.97 2.33 C-0.99 2.3, -1.02 2.27, -1.05 2.24 M-1.05 2.24 C-1.07 2.21, -1.09 2.19, -1.13 2.13 M-1.05 2.24 C-1.08 2.2, -1.11 2.16, -1.13 2.13 M-1.13 2.13 C-1.15 2.11, -1.16 2.08, -1.2 2.02 M-1.13 2.13 C-1.15 2.1, -1.18 2.06, -1.2 2.02 M-1.2 2.02 C-1.22 1.98, -1.23 1.95, -1.26 1.9 M-1.2 2.02 C-1.21 1.99, -1.23 1.97, -1.26 1.9 M-1.26 1.9 C-1.28 1.85, -1.3 1.8, -1.3 1.77 M-1.26 1.9 C-1.27 1.86, -1.29 1.81, -1.3 1.77 M-1.3 1.77 C-1.32 1.73, -1.33 1.68, -1.34 1.64 M-1.3 1.77 C-1.32 1.73, -1.33 1.69, -1.34 1.64 M-1.34 1.64 C-1.34 1.61, -1.35 1.59, -1.36 1.51 M-1.34 1.64 C-1.34 1.61, -1.35 1.58, -1.36 1.51 M-1.36 1.51 C-1.36 1.47, -1.36 1.44, -1.37 1.37 M-1.36 1.51 C-1.36 1.47, -1.36 1.43, -1.37 1.37 M-1.37 1.37 C-1.36 1.33, -1.36 1.3, -1.36 1.23 M-1.37 1.37 C-1.36 1.33, -1.36 1.29, -1.36 1.23 M-1.36 1.23 C-1.35 1.18, -1.35 1.14, -1.34 1.09 M-1.36 1.23 C-1.35 1.19, -1.35 1.14, -1.34 1.09 M-1.34 1.09 C-1.33 1.04, -1.31 0.99, -1.31 0.96 M-1.34 1.09 C-1.33 1.07, -1.33 1.04, -1.31 0.96 M-1.31 0.96 C-1.29 0.92, -1.28 0.88, -1.26 0.84 M-1.31 0.96 C-1.29 0.91, -1.27 0.86, -1.26 0.84 M-1.26 0.84 C-1.25 0.81, -1.24 0.79, -1.2 0.72 M-1.26 0.84 C-1.24 0.79, -1.22 0.75, -1.2 0.72 M-1.2 0.72 C-1.18 0.68, -1.16 0.65, -1.14 0.6 M-1.2 0.72 C-1.18 0.67, -1.15 0.63, -1.14 0.6 M-1.14 0.6 C-1.11 0.57, -1.08 0.53, -1.06 0.5 M-1.14 0.6 C-1.11 0.56, -1.08 0.52, -1.06 0.5 M-1.06 0.5 C-1.04 0.48, -1.02 0.46, -0.97 0.4 M-1.06 0.5 C-1.04 0.48, -1.02 0.46, -0.97 0.4 M-0.97 0.4 C-0.93 0.37, -0.9 0.34, -0.87 0.31 M-0.97 0.4 C-0.94 0.38, -0.92 0.35, -0.87 0.31 M-0.87 0.31 C-0.85 0.3, -0.83 0.28, -0.77 0.23 M-0.87 0.31 C-0.84 0.29, -0.81 0.27, -0.77 0.23 M-0.77 0.23 C-0.74 0.22, -0.71 0.2, -0.65 0.17 M-0.77 0.23 C-0.73 0.21, -0.69 0.19, -0.65 0.17 M-0.65 0.17 C-0.61 0.15, -0.57 0.13, -0.53 0.11 M-0.65 0.17 C-0.61 0.15, -0.57 0.13, -0.53 0.11 M-0.53 0.11 C-0.48 0.09, -0.43 0.07, -0.41 0.06 M-0.53 0.11 C-0.5 0.1, -0.47 0.08, -0.41 0.06 M-0.41 0.06 C-0.36 0.05, -0.31 0.04, -0.28 0.03 M-0.41 0.06 C-0.36 0.05, -0.31 0.04, -0.28 0.03 M-0.28 0.03 C-0.23 0.02, -0.19 0.01, -0.14 0.01 M-0.28 0.03 C-0.25 0.02, -0.21 0.02, -0.14 0.01 M-0.14 0.01 C-0.1 0.01, -0.06 0, 0 0 M-0.14 0.01 C-0.11 0.01, -0.08 0, 0 0 M0 0 C0 0, 0 0, 0 0 M0 0 C0 0, 0 0, 0 0 M0 0 C0 0, 0 0, 0 0 M0 0 C0 0, 0 0, 0 0 M0 0 C0 0, 0 0, 0 0 M0 0 C0 0, 0 0, 0 0" stroke="transparent" stroke-width="1" fill="none"></path></g></g><mask></mask><g stroke-linecap="round"><g transform="translate(32.215599060058594 32.531363010406494) rotate(0 -0.04991769790649414 1.3661739826202393)" fill-rule="evenodd"><path d="M0 0 L0 0 L0.14 0.01 L0.27 0.04 L0.4 0.08 L0.53 0.13 L0.65 0.19 L0.76 0.26 L0.86 0.34 L0.95 0.43 L1.04 0.53 L1.11 0.64 L1.18 0.76 L1.23 0.88 L1.27 1 L1.3 1.14 L1.32 1.27 L1.32 1.41 L1.31 1.55 L1.28 1.69 L1.24 1.82 L1.19 1.94 L1.13 2.06 L1.06 2.17 L0.98 2.27 L0.89 2.37 L0.79 2.45 L0.68 2.53 L0.56 2.59 L0.44 2.64 L0.31 2.69 L0.18 2.71 L0.05 2.73 L-0.09 2.73 L-0.23 2.72 L-0.36 2.7 L-0.49 2.66 L-0.61 2.61 L-0.73 2.55 L-0.84 2.48 L-0.94 2.4 L-1.03 2.32 L-1.12 2.22 L-1.19 2.11 L-1.26 2 L-1.31 1.89 L-1.36 1.76 L-1.39 1.64 L-1.41 1.5 L-1.42 1.37 L-1.41 1.23 L-1.39 1.09 L-1.35 0.96 L-1.3 0.83 L-1.24 0.71 L-1.17 0.6 L-1.09 0.49 L-1 0.39 L-0.9 0.31 L-0.8 0.23 L-0.68 0.16 L-0.56 0.1 L-0.43 0.06 L-0.3 0.02 L-0.16 0.01 L-0.02 0 L0 0 L0 0" stroke="none" stroke-width="0" fill="#fff" fill-rule="evenodd"></path><path d="M0 0 C0 0, 0 0, 0 0 M0 0 C0 0, 0 0, 0 0 M0 0 C0.05 0, 0.11 0.01, 0.14 0.01 M0 0 C0.05 0, 0.11 0.01, 0.14 0.01 M0.14 0.01 C0.18 0.02, 0.22 0.03, 0.27 0.04 M0.14 0.01 C0.18 0.02, 0.23 0.03, 0.27 0.04 M0.27 0.04 C0.31 0.05, 0.35 0.06, 0.4 0.08 M0.27 0.04 C0.31 0.05, 0.35 0.06, 0.4 0.08 M0.4 0.08 C0.45 0.09, 0.49 0.11, 0.53 0.13 M0.4 0.08 C0.43 0.09, 0.46 0.1, 0.53 0.13 M0.53 0.13 C0.57 0.15, 0.6 0.17, 0.65 0.19 M0.53 0.13 C0.57 0.14, 0.6 0.16, 0.65 0.19 M0.65 0.19 C0.67 0.21, 0.7 0.22, 0.76 0.26 M0.65 0.19 C0.67 0.21, 0.7 0.22, 0.76 0.26 M0.76 0.26 C0.79 0.29, 0.83 0.32, 0.86 0.34 M0.76 0.26 C0.78 0.28, 0.81 0.3, 0.86 0.34 M0.86 0.34 C0.89 0.38, 0.93 0.41, 0.95 0.43 M0.86 0.34 C0.89 0.37, 0.93 0.41, 0.95 0.43 M0.95 0.43 C0.97 0.45, 0.99 0.48, 1.04 0.53 M0.95 0.43 C0.98 0.47, 1.01 0.5, 1.04 0.53 M1.04 0.53 C1.06 0.57, 1.08 0.6, 1.11 0.64 M1.04 0.53 C1.06 0.56, 1.08 0.6, 1.11 0.64 M1.11 0.64 C1.14 0.68, 1.16 0.72, 1.18 0.76 M1.11 0.64 C1.13 0.67, 1.15 0.7, 1.18 0.76 M1.18 0.76 C1.19 0.79, 1.21 0.83, 1.23 0.88 M1.18 0.76 C1.19 0.79, 1.2 0.82, 1.23 0.88 M1.23 0.88 C1.25 0.92, 1.26 0.97, 1.27 1 M1.23 0.88 C1.24 0.91, 1.25 0.94, 1.27 1 M1.27 1 C1.28 1.03, 1.28 1.06, 1.3 1.14 M1.27 1 C1.28 1.04, 1.29 1.08, 1.3 1.14 M1.3 1.14 C1.31 1.18, 1.31 1.22, 1.32 1.27 M1.3 1.14 C1.31 1.19, 1.31 1.24, 1.32 1.27 M1.32 1.27 C1.32 1.33, 1.32 1.38, 1.32 1.41 M1.32 1.27 C1.32 1.31, 1.32 1.34, 1.32 1.41 M1.32 1.41 C1.32 1.45, 1.31 1.49, 1.31 1.55 M1.32 1.41 C1.32 1.44, 1.31 1.47, 1.31 1.55 M1.31 1.55 C1.3 1.6, 1.29 1.66, 1.28 1.69 M1.31 1.55 C1.3 1.59, 1.29 1.62, 1.28 1.69 M1.28 1.69 C1.27 1.71, 1.27 1.74, 1.24 1.82 M1.28 1.69 C1.27 1.72, 1.26 1.76, 1.24 1.82 M1.24 1.82 C1.23 1.86, 1.21 1.91, 1.19 1.94 M1.24 1.82 C1.23 1.85, 1.22 1.88, 1.19 1.94 M1.19 1.94 C1.17 1.98, 1.15 2.02, 1.13 2.06 M1.19 1.94 C1.17 1.99, 1.14 2.04, 1.13 2.06 M1.13 2.06 C1.1 2.1, 1.08 2.14, 1.06 2.17 M1.13 2.06 C1.1 2.1, 1.08 2.14, 1.06 2.17 M1.06 2.17 C1.03 2.21, 1 2.24, 0.98 2.27 M1.06 2.17 C1.03 2.2, 1.01 2.24, 0.98 2.27 M0.98 2.27 C0.95 2.3, 0.92 2.33, 0.89 2.37 M0.98 2.27 C0.95 2.3, 0.93 2.33, 0.89 2.37 M0.89 2.37 C0.85 2.39, 0.82 2.42, 0.79 2.45 M0.89 2.37 C0.86 2.39, 0.83 2.42, 0.79 2.45 M0.79 2.45 C0.76 2.47, 0.73 2.49, 0.68 2.53 M0.79 2.45 C0.76 2.47, 0.74 2.48, 0.68 2.53 M0.68 2.53 C0.65 2.54, 0.62 2.56, 0.56 2.59 M0.68 2.53 C0.63 2.55, 0.59 2.58, 0.56 2.59 M0.56 2.59 C0.52 2.61, 0.47 2.63, 0.44 2.64 M0.56 2.59 C0.53 2.6, 0.5 2.62, 0.44 2.64 M0.44 2.64 C0.41 2.65, 0.39 2.66, 0.31 2.69 M0.44 2.64 C0.41 2.65, 0.39 2.66, 0.31 2.69 M0.31 2.69 C0.28 2.69, 0.24 2.7, 0.18 2.71 M0.31 2.69 C0.27 2.69, 0.23 2.7, 0.18 2.71 M0.18 2.71 C0.15 2.72, 0.13 2.72, 0.05 2.73 M0.18 2.71 C0.15 2.72, 0.12 2.72, 0.05 2.73 M0.05 2.73 C0 2.73, -0.05 2.73, -0.09 2.73 M0.05 2.73 C0 2.73, -0.05 2.73, -0.09 2.73 M-0.09 2.73 C-0.13 2.73, -0.16 2.73, -0.23 2.72 M-0.09 2.73 C-0.12 2.73, -0.15 2.73, -0.23 2.72 M-0.23 2.72 C-0.27 2.71, -0.31 2.71, -0.36 2.7 M-0.23 2.72 C-0.28 2.71, -0.33 2.7, -0.36 2.7 M-0.36 2.7 C-0.41 2.68, -0.45 2.67, -0.49 2.66 M-0.36 2.7 C-0.39 2.69, -0.41 2.68, -0.49 2.66 M-0.49 2.66 C-0.52 2.65, -0.55 2.64, -0.61 2.61 M-0.49 2.66 C-0.54 2.64, -0.58 2.62, -0.61 2.61 M-0.61 2.61 C-0.64 2.59, -0.68 2.58, -0.73 2.55 M-0.61 2.61 C-0.65 2.59, -0.69 2.57, -0.73 2.55 M-0.73 2.55 C-0.76 2.53, -0.79 2.51, -0.84 2.48 M-0.73 2.55 C-0.76 2.53, -0.79 2.51, -0.84 2.48 M-0.84 2.48 C-0.86 2.46, -0.88 2.44, -0.94 2.4 M-0.84 2.48 C-0.86 2.46, -0.89 2.44, -0.94 2.4 M-0.94 2.4 C-0.96 2.38, -0.98 2.36, -1.03 2.32 M-0.94 2.4 C-0.97 2.37, -1 2.34, -1.03 2.32 M-1.03 2.32 C-1.05 2.3, -1.06 2.28, -1.12 2.22 M-1.03 2.32 C-1.05 2.29, -1.07 2.27, -1.12 2.22 M-1.12 2.22 C-1.14 2.18, -1.17 2.15, -1.19 2.11 M-1.12 2.22 C-1.14 2.19, -1.16 2.15, -1.19 2.11 M-1.19 2.11 C-1.21 2.08, -1.23 2.05, -1.26 2 M-1.19 2.11 C-1.21 2.09, -1.23 2.06, -1.26 2 M-1.26 2 C-1.27 1.98, -1.28 1.95, -1.31 1.89 M-1.26 2 C-1.28 1.96, -1.3 1.92, -1.31 1.89 M-1.31 1.89 C-1.33 1.85, -1.34 1.81, -1.36 1.76 M-1.31 1.89 C-1.32 1.86, -1.34 1.82, -1.36 1.76 M-1.36 1.76 C-1.36 1.74, -1.37 1.71, -1.39 1.64 M-1.36 1.76 C-1.37 1.72, -1.38 1.68, -1.39 1.64 M-1.39 1.64 C-1.4 1.59, -1.4 1.55, -1.41 1.5 M-1.39 1.64 C-1.4 1.59, -1.4 1.55, -1.41 1.5 M-1.41 1.5 C-1.41 1.47, -1.41 1.44, -1.42 1.37 M-1.41 1.5 C-1.41 1.45, -1.42 1.4, -1.42 1.37 M-1.42 1.37 C-1.42 1.32, -1.41 1.28, -1.41 1.23 M-1.42 1.37 C-1.42 1.31, -1.41 1.26, -1.41 1.23 M-1.41 1.23 C-1.4 1.18, -1.4 1.14, -1.39 1.09 M-1.41 1.23 C-1.4 1.19, -1.4 1.15, -1.39 1.09 M-1.39 1.09 C-1.37 1.04, -1.36 1, -1.35 0.96 M-1.39 1.09 C-1.38 1.05, -1.36 1.01, -1.35 0.96 M-1.35 0.96 C-1.34 0.93, -1.33 0.9, -1.3 0.83 M-1.35 0.96 C-1.34 0.92, -1.33 0.89, -1.3 0.83 M-1.3 0.83 C-1.28 0.79, -1.26 0.74, -1.24 0.71 M-1.3 0.83 C-1.28 0.79, -1.26 0.74, -1.24 0.71 M-1.24 0.71 C-1.23 0.68, -1.21 0.66, -1.17 0.6 M-1.24 0.71 C-1.22 0.67, -1.19 0.63, -1.17 0.6 M-1.17 0.6 C-1.15 0.57, -1.13 0.55, -1.09 0.49 M-1.17 0.6 C-1.15 0.57, -1.14 0.55, -1.09 0.49 M-1.09 0.49 C-1.07 0.47, -1.05 0.45, -1 0.39 M-1.09 0.49 C-1.06 0.46, -1.03 0.43, -1 0.39 M-1 0.39 C-0.98 0.37, -0.95 0.35, -0.9 0.31 M-1 0.39 C-0.97 0.37, -0.94 0.34, -0.9 0.31 M-0.9 0.31 C-0.86 0.27, -0.82 0.24, -0.8 0.23 M-0.9 0.31 C-0.86 0.27, -0.82 0.24, -0.8 0.23 M-0.8 0.23 C-0.76 0.21, -0.73 0.19, -0.68 0.16 M-0.8 0.23 C-0.76 0.21, -0.73 0.19, -0.68 0.16 M-0.68 0.16 C-0.65 0.14, -0.62 0.13, -0.56 0.1 M-0.68 0.16 C-0.63 0.14, -0.58 0.11, -0.56 0.1 M-0.56 0.1 C-0.53 0.09, -0.51 0.08, -0.43 0.06 M-0.56 0.1 C-0.52 0.09, -0.47 0.07, -0.43 0.06 M-0.43 0.06 C-0.4 0.05, -0.36 0.04, -0.3 0.02 M-0.43 0.06 C-0.4 0.05, -0.36 0.04, -0.3 0.02 M-0.3 0.02 C-0.27 0.02, -0.23 0.02, -0.16 0.01 M-0.3 0.02 C-0.26 0.02, -0.22 0.01, -0.16 0.01 M-0.16 0.01 C-0.12 0, -0.09 0, -0.02 0 M-0.16 0.01 C-0.12 0, -0.08 0, -0.02 0 M-0.02 0 C-0.02 0, -0.01 0, 0 0 M-0.02 0 C-0.01 0, -0.01 0, 0 0 M0 0 C0 0, 0 0, 0 0 M0 0 C0 0, 0 0, 0 0 M0 0 C0 0, 0 0, 0 0 M0 0 C0 0, 0 0, 0 0" stroke="transparent" stroke-width="1" fill="none"></path></g></g><mask></mask><g stroke-linecap="round"><g transform="translate(36.7975378036499 26.840722501277924) rotate(0 1.2610831260681152 15.022659569978714)" fill-rule="evenodd"><path d="M0 0 L2.52 0 L2.52 30.05 L0 30.05 L0 0" stroke="none" stroke-width="0" fill="#4285f4" fill-rule="evenodd"></path><path d="M0 0 C0.91 0, 1.82 0, 2.52 0 M0 0 C0.63 0, 1.26 0, 2.52 0 M2.52 0 C2.52 8.61, 2.52 17.22, 2.52 30.05 M2.52 0 C2.52 6.27, 2.52 12.53, 2.52 30.05 M2.52 30.05 C1.59 30.05, 0.66 30.05, 0 30.05 M2.52 30.05 C1.57 30.05, 0.63 30.05, 0 30.05 M0 30.05 C0 23.88, 0 17.72, 0 0 M0 30.05 C0 20.38, 0 10.72, 0 0 M0 0 C0 0, 0 0, 0 0 M0 0 C0 0, 0 0, 0 0" stroke="#00000000" stroke-width="1" fill="none"></path></g></g><mask></mask><g stroke-linecap="round"><g transform="translate(45.194252014160156 31.149425506591797) rotate(0 -3.3825273513793945 2.70870304107666)" fill-rule="evenodd"><path d="M0 0 L-6.78 0 L-6.78 0 L-6.88 0.03 L-6.97 0.08 L-7.05 0.14 L-7.12 0.21 L-7.17 0.3 L-7.21 0.39 L-7.23 0.49 L-7.23 0.6 L-7.23 4.83 L-7.23 4.83 L-7.23 4.94 L-7.21 5.04 L-7.17 5.13 L-7.12 5.22 L-7.05 5.29 L-6.97 5.35 L-6.88 5.39 L-6.78 5.42 L-0.01 5.42 L-0.01 5.42 L0.1 5.39 L0.19 5.35 L0.28 5.29 L0.35 5.22 L0.4 5.13 L0.44 5.04 L0.46 4.94 L0.46 4.83 L0.46 0.61 L0.46 0.61 L0.47 0.51 L0.45 0.4 L0.41 0.3 L0.36 0.21 L0.29 0.14 L0.2 0.07 L0.11 0.03 L0 0 L0 0" stroke="none" stroke-width="0" fill="#4285f4" fill-rule="evenodd"></path><path d="M0 0 C-2.39 0, -4.78 0, -6.78 0 M0 0 C-2.48 0, -4.97 0, -6.78 0 M-6.78 0 C-6.78 0, -6.78 0, -6.78 0 M-6.78 0 C-6.78 0, -6.78 0, -6.78 0 M-6.78 0 C-6.81 0.01, -6.84 0.02, -6.88 0.03 M-6.78 0 C-6.8 0.01, -6.82 0.01, -6.88 0.03 M-6.88 0.03 C-6.92 0.05, -6.95 0.07, -6.97 0.08 M-6.88 0.03 C-6.91 0.04, -6.93 0.05, -6.97 0.08 M-6.97 0.08 C-7 0.1, -7.03 0.12, -7.05 0.14 M-6.97 0.08 C-7 0.1, -7.03 0.12, -7.05 0.14 M-7.05 0.14 C-7.07 0.16, -7.09 0.17, -7.12 0.21 M-7.05 0.14 C-7.07 0.16, -7.1 0.19, -7.12 0.21 M-7.12 0.21 C-7.14 0.24, -7.15 0.26, -7.17 0.3 M-7.12 0.21 C-7.13 0.23, -7.15 0.26, -7.17 0.3 M-7.17 0.3 C-7.18 0.32, -7.19 0.34, -7.21 0.39 M-7.17 0.3 C-7.18 0.32, -7.19 0.34, -7.21 0.39 M-7.21 0.39 C-7.22 0.42, -7.22 0.45, -7.23 0.49 M-7.21 0.39 C-7.22 0.42, -7.22 0.45, -7.23 0.49 M-7.23 0.49 C-7.23 0.52, -7.23 0.54, -7.23 0.6 M-7.23 0.49 C-7.23 0.53, -7.23 0.56, -7.23 0.6 M-7.23 0.6 C-7.23 1.54, -7.23 2.49, -7.23 4.83 M-7.23 0.6 C-7.23 1.67, -7.23 2.75, -7.23 4.83 M-7.23 4.83 C-7.23 4.83, -7.23 4.83, -7.23 4.83 M-7.23 4.83 C-7.23 4.83, -7.23 4.83, -7.23 4.83 M-7.23 4.83 C-7.23 4.86, -7.23 4.89, -7.23 4.94 M-7.23 4.83 C-7.23 4.87, -7.23 4.9, -7.23 4.94 M-7.23 4.94 C-7.22 4.97, -7.22 4.99, -7.21 5.04 M-7.23 4.94 C-7.22 4.97, -7.22 5.01, -7.21 5.04 M-7.21 5.04 C-7.2 5.07, -7.18 5.11, -7.17 5.13 M-7.21 5.04 C-7.2 5.06, -7.19 5.09, -7.17 5.13 M-7.17 5.13 C-7.15 5.17, -7.13 5.2, -7.12 5.22 M-7.17 5.13 C-7.16 5.16, -7.14 5.19, -7.12 5.22 M-7.12 5.22 C-7.1 5.24, -7.07 5.27, -7.05 5.29 M-7.12 5.22 C-7.11 5.23, -7.09 5.25, -7.05 5.29 M-7.05 5.29 C-7.02 5.31, -6.99 5.33, -6.97 5.35 M-7.05 5.29 C-7.03 5.3, -7.01 5.32, -6.97 5.35 M-6.97 5.35 C-6.94 5.36, -6.91 5.38, -6.88 5.39 M-6.97 5.35 C-6.94 5.36, -6.92 5.38, -6.88 5.39 M-6.88 5.39 C-6.84 5.4, -6.8 5.41, -6.78 5.42 M-6.88 5.39 C-6.85 5.4, -6.82 5.41, -6.78 5.42 M-6.78 5.42 C-4.99 5.42, -3.2 5.42, -0.01 5.42 M-6.78 5.42 C-5.13 5.42, -3.49 5.42, -0.01 5.42 M-0.01 5.42 C-0.01 5.42, -0.01 5.42, -0.01 5.42 M-0.01 5.42 C-0.01 5.42, -0.01 5.42, -0.01 5.42 M-0.01 5.42 C0.03 5.41, 0.07 5.4, 0.1 5.39 M-0.01 5.42 C0.03 5.41, 0.07 5.4, 0.1 5.39 M0.1 5.39 C0.12 5.38, 0.15 5.37, 0.19 5.35 M0.1 5.39 C0.12 5.38, 0.14 5.37, 0.19 5.35 M0.19 5.35 C0.21 5.34, 0.23 5.32, 0.28 5.29 M0.19 5.35 C0.22 5.33, 0.25 5.31, 0.28 5.29 M0.28 5.29 C0.29 5.28, 0.31 5.26, 0.35 5.22 M0.28 5.29 C0.3 5.27, 0.32 5.24, 0.35 5.22 M0.35 5.22 C0.36 5.2, 0.37 5.18, 0.4 5.13 M0.35 5.22 C0.36 5.2, 0.37 5.18, 0.4 5.13 M0.4 5.13 C0.42 5.1, 0.43 5.06, 0.44 5.04 M0.4 5.13 C0.42 5.1, 0.43 5.06, 0.44 5.04 M0.44 5.04 C0.45 5.01, 0.45 4.97, 0.46 4.94 M0.44 5.04 C0.45 5.01, 0.45 4.98, 0.46 4.94 M0.46 4.94 C0.46 4.91, 0.46 4.87, 0.46 4.83 M0.46 4.94 C0.46 4.9, 0.46 4.87, 0.46 4.83 M0.46 4.83 C0.46 3.26, 0.46 1.68, 0.46 0.61 M0.46 4.83 C0.46 3.94, 0.46 3.05, 0.46 0.61 M0.46 0.61 C0.46 0.61, 0.46 0.61, 0.46 0.61 M0.46 0.61 C0.46 0.61, 0.46 0.61, 0.46 0.61 M0.46 0.61 C0.46 0.57, 0.46 0.53, 0.47 0.51 M0.46 0.61 C0.46 0.57, 0.46 0.53, 0.47 0.51 M0.47 0.51 C0.46 0.48, 0.46 0.46, 0.45 0.4 M0.47 0.51 C0.46 0.48, 0.46 0.45, 0.45 0.4 M0.45 0.4 C0.43 0.37, 0.42 0.33, 0.41 0.3 M0.45 0.4 C0.44 0.38, 0.43 0.35, 0.41 0.3 M0.41 0.3 C0.39 0.28, 0.38 0.25, 0.36 0.21 M0.41 0.3 C0.39 0.27, 0.37 0.24, 0.36 0.21 M0.36 0.21 C0.34 0.19, 0.32 0.17, 0.29 0.14 M0.36 0.21 C0.33 0.19, 0.3 0.16, 0.29 0.14 M0.29 0.14 C0.26 0.12, 0.24 0.1, 0.2 0.07 M0.29 0.14 C0.26 0.12, 0.23 0.1, 0.2 0.07 M0.2 0.07 C0.17 0.06, 0.13 0.04, 0.11 0.03 M0.2 0.07 C0.18 0.06, 0.16 0.05, 0.11 0.03 M0.11 0.03 C0.07 0.02, 0.03 0.01, 0 0 M0.11 0.03 C0.07 0.02, 0.04 0.01, 0 0 M0 0 C0 0, 0 0, 0 0 M0 0 C0 0, 0 0, 0 0 M0 0 C0 0, 0 0, 0 0 M0 0 C0 0, 0 0, 0 0" stroke="transparent" stroke-width="1" fill="none"></path></g></g><mask></mask><g stroke-linecap="round"><g transform="translate(51.68358039855957 39.099507331848145) rotate(0 -6.250246524810791 2.708702564239502)" fill-rule="evenodd"><path d="M0 0 L-12.5 0 L-12.5 0 L-12.67 0.01 L-12.83 0.05 L-12.97 0.1 L-13.1 0.17 L-13.2 0.26 L-13.28 0.36 L-13.32 0.47 L-13.34 0.58 L-13.34 4.82 L-13.34 4.82 L-13.32 4.94 L-13.28 5.05 L-13.2 5.15 L-13.1 5.24 L-12.97 5.32 L-12.83 5.37 L-12.67 5.41 L-12.5 5.42 L0 5.42 L0 5.42 L0.17 5.4 L0.33 5.37 L0.47 5.31 L0.6 5.24 L0.7 5.15 L0.78 5.04 L0.82 4.93 L0.84 4.82 L0.84 0.58 L0.84 0.58 L0.82 0.46 L0.77 0.35 L0.7 0.25 L0.59 0.17 L0.47 0.1 L0.33 0.04 L0.17 0.01 L0 0 L0 0" stroke="none" stroke-width="0" fill="#4285f4" fill-rule="evenodd"></path><path d="M0 0 C-4.09 0, -8.19 0, -12.5 0 M0 0 C-3.91 0, -7.81 0, -12.5 0 M-12.5 0 C-12.5 0, -12.5 0, -12.5 0 M-12.5 0 C-12.5 0, -12.5 0, -12.5 0 M-12.5 0 C-12.54 0, -12.58 0.01, -12.67 0.01 M-12.5 0 C-12.56 0, -12.61 0.01, -12.67 0.01 M-12.67 0.01 C-12.73 0.02, -12.79 0.04, -12.83 0.05 M-12.67 0.01 C-12.7 0.02, -12.74 0.03, -12.83 0.05 M-12.83 0.05 C-12.87 0.06, -12.91 0.08, -12.97 0.1 M-12.83 0.05 C-12.86 0.06, -12.9 0.07, -12.97 0.1 M-12.97 0.1 C-13.02 0.13, -13.06 0.15, -13.1 0.17 M-12.97 0.1 C-13.02 0.13, -13.07 0.16, -13.1 0.17 M-13.1 0.17 C-13.12 0.19, -13.14 0.21, -13.2 0.26 M-13.1 0.17 C-13.12 0.19, -13.15 0.22, -13.2 0.26 M-13.2 0.26 C-13.22 0.28, -13.24 0.31, -13.28 0.36 M-13.2 0.26 C-13.21 0.28, -13.23 0.3, -13.28 0.36 M-13.28 0.36 C-13.29 0.39, -13.31 0.43, -13.32 0.47 M-13.28 0.36 C-13.29 0.39, -13.3 0.41, -13.32 0.47 M-13.32 0.47 C-13.33 0.51, -13.34 0.55, -13.34 0.58 M-13.32 0.47 C-13.33 0.5, -13.33 0.53, -13.34 0.58 M-13.34 0.58 C-13.34 1.54, -13.34 2.5, -13.34 4.82 M-13.34 0.58 C-13.34 1.58, -13.34 2.57, -13.34 4.82 M-13.34 4.82 C-13.34 4.82, -13.34 4.82, -13.34 4.82 M-13.34 4.82 C-13.34 4.82, -13.34 4.82, -13.34 4.82 M-13.34 4.82 C-13.34 4.86, -13.33 4.9, -13.32 4.94 M-13.34 4.82 C-13.34 4.85, -13.33 4.89, -13.32 4.94 M-13.32 4.94 C-13.31 4.97, -13.29 5.01, -13.28 5.05 M-13.32 4.94 C-13.31 4.98, -13.29 5.03, -13.28 5.05 M-13.28 5.05 C-13.25 5.09, -13.22 5.12, -13.2 5.15 M-13.28 5.05 C-13.25 5.09, -13.22 5.12, -13.2 5.15 M-13.2 5.15 C-13.16 5.18, -13.13 5.22, -13.1 5.24 M-13.2 5.15 C-13.16 5.18, -13.13 5.22, -13.1 5.24 M-13.1 5.24 C-13.06 5.26, -13.02 5.28, -12.97 5.32 M-13.1 5.24 C-13.06 5.26, -13.03 5.28, -12.97 5.32 M-12.97 5.32 C-12.92 5.33, -12.88 5.35, -12.83 5.37 M-12.97 5.32 C-12.92 5.34, -12.87 5.36, -12.83 5.37 M-12.83 5.37 C-12.78 5.38, -12.73 5.39, -12.67 5.41 M-12.83 5.37 C-12.77 5.38, -12.71 5.4, -12.67 5.41 M-12.67 5.41 C-12.62 5.41, -12.57 5.41, -12.5 5.42 M-12.67 5.41 C-12.62 5.41, -12.57 5.41, -12.5 5.42 M-12.5 5.42 C-9.65 5.42, -6.79 5.42, 0 5.42 M-12.5 5.42 C-8.14 5.42, -3.77 5.42, 0 5.42 M0 5.42 C0 5.42, 0 5.42, 0 5.42 M0 5.42 C0 5.42, 0 5.42, 0 5.42 M0 5.42 C0.06 5.41, 0.13 5.41, 0.17 5.4 M0 5.42 C0.04 5.41, 0.09 5.41, 0.17 5.4 M0.17 5.4 C0.22 5.39, 0.28 5.38, 0.33 5.37 M0.17 5.4 C0.22 5.39, 0.26 5.38, 0.33 5.37 M0.33 5.37 C0.36 5.36, 0.39 5.34, 0.47 5.31 M0.33 5.37 C0.38 5.35, 0.43 5.33, 0.47 5.31 M0.47 5.31 C0.51 5.29, 0.55 5.27, 0.6 5.24 M0.47 5.31 C0.5 5.29, 0.53 5.28, 0.6 5.24 M0.6 5.24 C0.62 5.22, 0.64 5.19, 0.7 5.15 M0.6 5.24 C0.62 5.21, 0.65 5.19, 0.7 5.15 M0.7 5.15 C0.72 5.12, 0.74 5.1, 0.78 5.04 M0.7 5.15 C0.72 5.12, 0.74 5.09, 0.78 5.04 M0.78 5.04 C0.79 5.01, 0.81 4.97, 0.82 4.93 M0.78 5.04 C0.79 5.02, 0.8 4.99, 0.82 4.93 M0.82 4.93 C0.83 4.91, 0.83 4.88, 0.84 4.82 M0.82 4.93 C0.83 4.91, 0.83 4.89, 0.84 4.82 M0.84 4.82 C0.84 3.89, 0.84 2.95, 0.84 0.58 M0.84 4.82 C0.84 3.27, 0.84 1.73, 0.84 0.58 M0.84 0.58 C0.84 0.58, 0.84 0.58, 0.84 0.58 M0.84 0.58 C0.84 0.58, 0.84 0.58, 0.84 0.58 M0.84 0.58 C0.84 0.54, 0.83 0.5, 0.82 0.46 M0.84 0.58 C0.83 0.54, 0.83 0.5, 0.82 0.46 M0.82 0.46 C0.81 0.44, 0.8 0.41, 0.77 0.35 M0.82 0.46 C0.81 0.43, 0.79 0.4, 0.77 0.35 M0.77 0.35 C0.76 0.33, 0.74 0.3, 0.7 0.25 M0.77 0.35 C0.75 0.33, 0.73 0.3, 0.7 0.25 M0.7 0.25 C0.66 0.22, 0.62 0.19, 0.59 0.17 M0.7 0.25 C0.67 0.23, 0.63 0.2, 0.59 0.17 M0.59 0.17 C0.56 0.15, 0.54 0.13, 0.47 0.1 M0.59 0.17 C0.56 0.15, 0.53 0.13, 0.47 0.1 M0.47 0.1 C0.43 0.08, 0.38 0.07, 0.33 0.04 M0.47 0.1 C0.41 0.08, 0.36 0.06, 0.33 0.04 M0.33 0.04 C0.27 0.03, 0.21 0.02, 0.17 0.01 M0.33 0.04 C0.27 0.03, 0.21 0.02, 0.17 0.01 M0.17 0.01 C0.12 0.01, 0.07 0.01, 0 0 M0.17 0.01 C0.13 0.01, 0.09 0.01, 0 0 M0 0 C0 0, 0 0, 0 0 M0 0 C0 0, 0 0, 0 0 M0 0 C0 0, 0 0, 0 0 M0 0 C0 0, 0 0, 0 0" stroke="transparent" stroke-width="1" fill="none"></path></g></g><mask></mask><g stroke-linecap="round"><g transform="translate(42.80344772338867 47.02857208251953) rotate(0 -2.6430211067199707 2.7034482955932617)" fill-rule="evenodd"><path d="M0 0 L-5.3 0 L-5.3 0 L-5.37 0.01 L-5.44 0.05 L-5.5 0.1 L-5.55 0.17 L-5.59 0.26 L-5.62 0.36 L-5.64 0.47 L-5.65 0.58 L-5.65 4.82 L-5.65 4.82 L-5.64 4.94 L-5.62 5.05 L-5.59 5.15 L-5.55 5.24 L-5.5 5.31 L-5.44 5.36 L-5.37 5.4 L-5.3 5.41 L0 5.41 L0 5.41 L0.07 5.39 L0.14 5.36 L0.2 5.31 L0.25 5.23 L0.3 5.15 L0.33 5.05 L0.35 4.94 L0.36 4.82 L0.36 0.59 L0.36 0.59 L0.35 0.47 L0.33 0.36 L0.29 0.26 L0.25 0.17 L0.2 0.1 L0.14 0.05 L0.07 0.01 L0 0 L0 0" stroke="none" stroke-width="0" fill="#4285f4" fill-rule="evenodd"></path><path d="M0 0 C-1.72 0, -3.43 0, -5.3 0 M0 0 C-1.11 0, -2.22 0, -5.3 0 M-5.3 0 C-5.3 0, -5.3 0, -5.3 0 M-5.3 0 C-5.3 0, -5.3 0, -5.3 0 M-5.3 0 C-5.33 0, -5.35 0.01, -5.37 0.01 M-5.3 0 C-5.32 0, -5.34 0.01, -5.37 0.01 M-5.37 0.01 C-5.39 0.02, -5.41 0.03, -5.44 0.05 M-5.37 0.01 C-5.39 0.02, -5.41 0.03, -5.44 0.05 M-5.44 0.05 C-5.45 0.06, -5.46 0.07, -5.5 0.1 M-5.44 0.05 C-5.45 0.06, -5.46 0.07, -5.5 0.1 M-5.5 0.1 C-5.52 0.13, -5.53 0.15, -5.55 0.17 M-5.5 0.1 C-5.52 0.13, -5.54 0.16, -5.55 0.17 M-5.55 0.17 C-5.56 0.2, -5.57 0.23, -5.59 0.26 M-5.55 0.17 C-5.56 0.2, -5.57 0.23, -5.59 0.26 M-5.59 0.26 C-5.6 0.3, -5.62 0.34, -5.62 0.36 M-5.59 0.26 C-5.6 0.29, -5.61 0.33, -5.62 0.36 M-5.62 0.36 C-5.63 0.4, -5.64 0.45, -5.64 0.47 M-5.62 0.36 C-5.63 0.39, -5.63 0.41, -5.64 0.47 M-5.64 0.47 C-5.64 0.5, -5.65 0.53, -5.65 0.58 M-5.64 0.47 C-5.64 0.51, -5.65 0.55, -5.65 0.58 M-5.65 0.58 C-5.65 1.45, -5.65 2.31, -5.65 4.82 M-5.65 0.58 C-5.65 2.11, -5.65 3.63, -5.65 4.82 M-5.65 4.82 C-5.65 4.82, -5.65 4.82, -5.65 4.82 M-5.65 4.82 C-5.65 4.82, -5.65 4.82, -5.65 4.82 M-5.65 4.82 C-5.65 4.86, -5.64 4.9, -5.64 4.94 M-5.65 4.82 C-5.65 4.85, -5.65 4.88, -5.64 4.94 M-5.64 4.94 C-5.63 4.98, -5.63 5.02, -5.62 5.05 M-5.64 4.94 C-5.63 4.99, -5.63 5.03, -5.62 5.05 M-5.62 5.05 C-5.62 5.07, -5.61 5.09, -5.59 5.15 M-5.62 5.05 C-5.61 5.08, -5.6 5.11, -5.59 5.15 M-5.59 5.15 C-5.57 5.18, -5.56 5.22, -5.55 5.24 M-5.59 5.15 C-5.57 5.19, -5.56 5.22, -5.55 5.24 M-5.55 5.24 C-5.53 5.26, -5.52 5.28, -5.5 5.31 M-5.55 5.24 C-5.53 5.26, -5.51 5.29, -5.5 5.31 M-5.5 5.31 C-5.48 5.32, -5.46 5.34, -5.44 5.36 M-5.5 5.31 C-5.48 5.33, -5.46 5.34, -5.44 5.36 M-5.44 5.36 C-5.42 5.37, -5.4 5.38, -5.37 5.4 M-5.44 5.36 C-5.42 5.37, -5.4 5.38, -5.37 5.4 M-5.37 5.4 C-5.36 5.4, -5.34 5.4, -5.3 5.41 M-5.37 5.4 C-5.35 5.4, -5.33 5.4, -5.3 5.41 M-5.3 5.41 C-3.56 5.41, -1.82 5.41, 0 5.41 M-5.3 5.41 C-3.73 5.41, -2.16 5.41, 0 5.41 M0 5.41 C0 5.41, 0 5.41, 0 5.41 M0 5.41 C0 5.41, 0 5.41, 0 5.41 M0 5.41 C0.02 5.4, 0.03 5.4, 0.07 5.39 M0 5.41 C0.02 5.4, 0.03 5.4, 0.07 5.39 M0.07 5.39 C0.09 5.39, 0.1 5.38, 0.14 5.36 M0.07 5.39 C0.1 5.38, 0.12 5.37, 0.14 5.36 M0.14 5.36 C0.16 5.34, 0.18 5.32, 0.2 5.31 M0.14 5.36 C0.16 5.34, 0.18 5.32, 0.2 5.31 M0.2 5.31 C0.22 5.28, 0.24 5.25, 0.25 5.23 M0.2 5.31 C0.21 5.29, 0.23 5.27, 0.25 5.23 M0.25 5.23 C0.27 5.21, 0.28 5.19, 0.3 5.15 M0.25 5.23 C0.26 5.21, 0.27 5.19, 0.3 5.15 M0.3 5.15 C0.31 5.11, 0.32 5.07, 0.33 5.05 M0.3 5.15 C0.31 5.11, 0.32 5.07, 0.33 5.05 M0.33 5.05 C0.34 5.01, 0.35 4.97, 0.35 4.94 M0.33 5.05 C0.34 5.01, 0.35 4.97, 0.35 4.94 M0.35 4.94 C0.36 4.91, 0.36 4.88, 0.36 4.82 M0.35 4.94 C0.36 4.91, 0.36 4.88, 0.36 4.82 M0.36 4.82 C0.36 3.93, 0.36 3.05, 0.36 0.59 M0.36 4.82 C0.36 3.78, 0.36 2.74, 0.36 0.59 M0.36 0.59 C0.36 0.59, 0.36 0.59, 0.36 0.59 M0.36 0.59 C0.36 0.59, 0.36 0.59, 0.36 0.59 M0.36 0.59 C0.36 0.56, 0.36 0.53, 0.35 0.47 M0.36 0.59 C0.36 0.56, 0.36 0.54, 0.35 0.47 M0.35 0.47 C0.34 0.43, 0.33 0.39, 0.33 0.36 M0.35 0.47 C0.34 0.44, 0.34 0.41, 0.33 0.36 M0.33 0.36 C0.31 0.32, 0.3 0.28, 0.29 0.26 M0.33 0.36 C0.32 0.34, 0.31 0.32, 0.29 0.26 M0.29 0.26 C0.28 0.23, 0.26 0.2, 0.25 0.17 M0.29 0.26 C0.28 0.24, 0.27 0.22, 0.25 0.17 M0.25 0.17 C0.23 0.14, 0.21 0.12, 0.2 0.1 M0.25 0.17 C0.23 0.15, 0.22 0.13, 0.2 0.1 M0.2 0.1 C0.18 0.09, 0.17 0.07, 0.14 0.05 M0.2 0.1 C0.18 0.08, 0.16 0.07, 0.14 0.05 M0.14 0.05 C0.12 0.04, 0.1 0.03, 0.07 0.01 M0.14 0.05 C0.12 0.04, 0.11 0.03, 0.07 0.01 M0.07 0.01 C0.06 0.01, 0.04 0.01, 0 0 M0.07 0.01 C0.05 0.01, 0.02 0, 0 0 M0 0 C0 0, 0 0, 0 0 M0 0 C0 0, 0 0, 0 0 M0 0 C0 0, 0 0, 0 0 M0 0 C0 0, 0 0, 0 0" stroke="transparent" stroke-width="1" fill="none"></path></g></g><mask></mask></svg>