<svg xmlns="http://www.w3.org/2000/svg" viewBox="2303.99 1923.91 132.39 122.96" width="132" height="123"><ellipse cx="2418.27" cy="1985.85" rx="12.11" ry="12.11" stroke="#1864ab" stroke-width="1" opacity="1.0" fill="#4285f4"/><ellipse cx="2319.62" cy="1939.54" rx="9.63" ry="9.63" stroke="#1864ab" stroke-width="1" opacity="1.0" fill="#4285f4"/><ellipse cx="2319.64" cy="1985.87" rx="9.63" ry="9.63" stroke="#1864ab" stroke-width="1" opacity="1.0" fill="#4285f4"/><ellipse cx="2319.99" cy="2031.25" rx="9.63" ry="9.63" stroke="#1864ab" stroke-width="1" opacity="1.0" fill="#4285f4"/><polyline points="2339.47,1933.05 2348.11,1934.00 2356.63,1936.82 2363.75,1941.40 2368.90,1947.97 2379.39,1968.68 2384.46,1974.80 2390.57,1978.58 2396.02,1979.27 2394.98,1991.56 2387.38,1990.13 2380.29,1986.97 2373.56,1981.07 2368.03,1971.81 2359.95,1956.49 2354.01,1949.85 2348.34,1946.43 2339.75,1946.11 2339.35,1933.27" fill="none" stroke="#1864ab" stroke-width="1" opacity="1.0" stroke-linecap="round" stroke-linejoin="round"/><polyline points="2339.33,1979.41 2360.81,1979.68 2364.51,1985.73 2360.36,1991.22 2339.37,1991.63 2339.06,1979.72" fill="none" stroke="#1864ab" stroke-width="1" opacity="1.0" stroke-linecap="round" stroke-linejoin="round"/><polyline points="2372.41,1993.84 2382.58,2000.02 2376.93,2009.70 2371.13,2020.83 2364.48,2029.67 2355.95,2035.07 2347.81,2037.11 2339.24,2037.66 2339.26,2025.52 2347.45,2025.20 2354.18,2022.77 2359.23,2016.98 2372.27,1994.28" fill="none" stroke="#669df6" stroke-width="1" opacity="1.0" stroke-linecap="round" stroke-linejoin="round"/></svg>