<svg version="1.1" xmlns="http://www.w3.org/2000/svg" viewBox="0 0 175.4166667136053 277.75000027815474" width="175.4166667136053" height="277.75000027815474">
  <!-- svg-source:excalidraw -->
  
  <defs>
    
    
  </defs>
  <g stroke-linecap="round"><g transform="translate(169.4166667136053 105.8657445573549) rotate(0 -40.85416667840181 0)" fill-rule="evenodd"><path d="M0 0 L-81.71 -36.31 L-81.71 0 L0 36.31 L0 0" stroke="none" stroke-width="0" fill="#669df6" fill-rule="evenodd"></path><path d="M0 0 C-26.78 -11.9, -53.56 -23.81, -81.71 -36.31 M0 0 C-16.39 -7.28, -32.78 -14.57, -81.71 -36.31 M-81.71 -36.31 C-81.71 -23.17, -81.71 -10.02, -81.71 0 M-81.71 -36.31 C-81.71 -23.24, -81.71 -10.17, -81.71 0 M-81.71 0 C-59.47 9.89, -37.22 19.77, 0 36.31 M-81.71 0 C-56.64 11.14, -31.57 22.28, 0 36.31 M0 36.31 C0 23.42, 0 10.52, 0 0 M0 36.31 C0 22.25, 0 8.18, 0 0 M0 0 C0 0, 0 0, 0 0 M0 0 C0 0, 0 0, 0 0" stroke="#000000" stroke-width="1" fill="none"></path></g></g><mask></mask><g stroke-linecap="round"><g transform="translate(169.4166667136053 42.31481428411314) rotate(0 -40.85416667840181 0.0000024350981107090774)" fill-rule="evenodd"><path d="M0 0 L-81.71 -36.31 L-81.71 0 L0 36.31 L0 0" stroke="none" stroke-width="0" fill="#669df6" fill-rule="evenodd"></path><path d="M0 0 C-30.13 -13.39, -60.26 -26.78, -81.71 -36.31 M0 0 C-31.92 -14.19, -63.84 -28.37, -81.71 -36.31 M-81.71 -36.31 C-81.71 -23.28, -81.71 -10.24, -81.71 0 M-81.71 -36.31 C-81.71 -26.69, -81.71 -17.07, -81.71 0 M-81.71 0 C-65.14 7.36, -48.57 14.73, 0 36.31 M-81.71 0 C-58.93 10.12, -36.15 20.25, 0 36.31 M0 36.31 C0 26.42, 0 16.53, 0 0 M0 36.31 C0 27.35, 0 18.38, 0 0 M0 0 C0 0, 0 0, 0 0 M0 0 C0 0, 0 0, 0 0" stroke="#000000" stroke-width="1" fill="none"></path></g></g><mask></mask><g stroke-linecap="round"><g transform="translate(6 42.31481428411314) rotate(0 40.85416667840181 0.0000024350981107090774)" fill-rule="evenodd"><path d="M0 0 L81.71 -36.31 L81.71 0 L0 36.31 L0 0 L0 0" stroke="none" stroke-width="0" fill="#aecbfa" fill-rule="evenodd"></path><path d="M0 0 C25.7 -11.42, 51.4 -22.84, 81.71 -36.31 M0 0 C19.3 -8.58, 38.6 -17.16, 81.71 -36.31 M81.71 -36.31 C81.71 -24.22, 81.71 -12.12, 81.71 0 M81.71 -36.31 C81.71 -27.71, 81.71 -19.11, 81.71 0 M81.71 0 C49.27 14.41, 16.84 28.83, 0 36.31 M81.71 0 C60.06 9.62, 38.41 19.25, 0 36.31 M0 36.31 C0 22.61, 0 8.9, 0 0 M0 36.31 C0 28.39, 0 20.46, 0 0 M0 0 C0 0, 0 0, 0 0 M0 0 C0 0, 0 0, 0 0 M0 0 C0 0, 0 0, 0 0 M0 0 C0 0, 0 0, 0 0" stroke="#000000" stroke-width="1" fill="none"></path></g></g><mask></mask><g stroke-linecap="round"><g transform="translate(6 105.8657445573549) rotate(0 40.85416667840181 0)" fill-rule="evenodd"><path d="M0 0 L81.71 -36.31 L81.71 0 L0 36.31 L0 0 L0 0" stroke="none" stroke-width="0" fill="#aecbfa" fill-rule="evenodd"></path><path d="M0 0 C28.5 -12.66, 56.99 -25.33, 81.71 -36.31 M0 0 C19.96 -8.87, 39.93 -17.75, 81.71 -36.31 M81.71 -36.31 C81.71 -28.09, 81.71 -19.87, 81.71 0 M81.71 -36.31 C81.71 -27.79, 81.71 -19.26, 81.71 0 M81.71 0 C54.52 12.09, 27.32 24.17, 0 36.31 M81.71 0 C62.83 8.39, 43.96 16.78, 0 36.31 M0 36.31 C0 23.55, 0 10.79, 0 0 M0 36.31 C0 27.76, 0 19.21, 0 0 M0 0 C0 0, 0 0, 0 0 M0 0 C0 0, 0 0, 0 0 M0 0 C0 0, 0 0, 0 0 M0 0 C0 0, 0 0, 0 0" stroke="#000000" stroke-width="1" fill="none"></path></g></g><mask></mask><g stroke-linecap="round"><g transform="translate(87.70833335680186 151.25925875984967) rotate(0 35.77009095782333 11.348381797421041)" fill-rule="evenodd"><path d="M0 0 L30.6 -13.62 L71.54 4.54 L0 36.31 L0 0 L0 0" stroke="none" stroke-width="0" fill="#4285f4" fill-rule="evenodd"></path><path d="M0 0 C9.52 -4.24, 19.03 -8.47, 30.6 -13.62 M0 0 C6.27 -2.79, 12.53 -5.58, 30.6 -13.62 M30.6 -13.62 C45.54 -6.99, 60.49 -0.36, 71.54 4.54 M30.6 -13.62 C43.16 -8.05, 55.72 -2.48, 71.54 4.54 M71.54 4.54 C42.92 17.25, 14.31 29.96, 0 36.31 M71.54 4.54 C48.63 14.72, 25.71 24.9, 0 36.31 M0 36.31 C0 26.68, 0 17.04, 0 0 M0 36.31 C0 27.53, 0 18.75, 0 0 M0 0 C0 0, 0 0, 0 0 M0 0 C0 0, 0 0, 0 0 M0 0 C0 0, 0 0, 0 0 M0 0 C0 0, 0 0, 0 0" stroke="#000000" stroke-width="1" fill="none"></path></g></g><mask></mask><g transform="translate(16.58333338027205 189.75000027815486) rotate(0 71 40.99999999999994)"><text x="71" y="0" font-family="Helvetica, Segoe UI Emoji" font-size="35.62781954887215px" fill="#000000" text-anchor="middle" style="white-space: pre;" direction="ltr" dominant-baseline="text-before-edge">Cloud </text><text x="71" y="41" font-family="Helvetica, Segoe UI Emoji" font-size="35.62781954887215px" fill="#000000" text-anchor="middle" style="white-space: pre;" direction="ltr" dominant-baseline="text-before-edge">Firestore</text></g></svg>