<svg version="1.1" xmlns="http://www.w3.org/2000/svg" viewBox="0 0 178.66666722297668 294.66666666666663" width="178.66666722297668" height="294.66666666666663">
  <!-- svg-source:excalidraw -->
  
  <defs>
    
    
  </defs>
  <g transform="translate(13.833333611488342 210.66666666666652) rotate(0 76.5 39.00000000000006)"><text x="76.5" y="0" font-family="Helvetica, Segoe UI Emoji" font-size="34.19428571428574px" fill="#000000" text-anchor="middle" style="white-space: pre;" direction="ltr" dominant-baseline="text-before-edge">Google</text><text x="76.5" y="39" font-family="Helvetica, Segoe UI Emoji" font-size="34.19428571428574px" fill="#000000" text-anchor="middle" style="white-space: pre;" direction="ltr" dominant-baseline="text-before-edge">Chats API</text></g><g stroke-linecap="round"><g transform="translate(89.33333137631416 6) rotate(0 0.0000022351741790771484 99.99999824762347)" fill-rule="evenodd"><path d="M0 0 L0 0 L-8.52 0.43 L-16.79 1.69 L-24.78 3.75 L-32.44 6.55 L-46.59 14.23 L-58.93 24.41 L-69.1 36.75 L-76.78 50.9 L-79.59 58.56 L-81.64 66.55 L-82.9 74.82 L-83.33 83.35 L-82.9 91.87 L-81.64 100.14 L-79.59 108.13 L-76.78 115.79 L-69.1 129.95 L-58.93 142.28 L-46.59 152.46 L-32.44 160.14 L-24.78 162.94 L-16.79 165 L-8.52 166.26 L0 166.69 L0 200 L0 200 L1.59 199.52 L4.72 198.08 L9.16 195.7 L14.69 192.38 L21.09 188.13 L28.11 182.97 L35.54 176.91 L43.15 169.95 L50.72 162.11 L58.01 153.39 L64.8 143.81 L70.87 133.38 L75.98 122.11 L79.92 110.01 L82.44 97.08 L83.33 83.35 L82.9 74.82 L81.64 66.55 L79.59 58.56 L76.78 50.9 L69.1 36.75 L58.93 24.41 L46.59 14.23 L32.44 6.55 L24.78 3.75 L16.79 1.69 L8.52 0.43 L0 0 L0 0" stroke="none" stroke-width="0" fill="#00897b" fill-rule="evenodd"></path><path d="M0 0 C0 0, 0 0, 0 0 M0 0 C0 0, 0 0, 0 0 M0 0 C-3.12 0.16, -6.25 0.32, -8.52 0.43 M0 0 C-3.13 0.16, -6.26 0.32, -8.52 0.43 M-8.52 0.43 C-11.34 0.86, -14.16 1.29, -16.79 1.69 M-8.52 0.43 C-11.74 0.92, -14.95 1.41, -16.79 1.69 M-16.79 1.69 C-18.54 2.14, -20.29 2.59, -24.78 3.75 M-16.79 1.69 C-19.17 2.3, -21.54 2.91, -24.78 3.75 M-24.78 3.75 C-26.5 4.38, -28.22 5, -32.44 6.55 M-24.78 3.75 C-26.47 4.37, -28.17 4.99, -32.44 6.55 M-32.44 6.55 C-35.32 8.12, -38.21 9.68, -46.59 14.23 M-32.44 6.55 C-35.31 8.11, -38.18 9.67, -46.59 14.23 M-46.59 14.23 C-51.24 18.06, -55.88 21.89, -58.93 24.41 M-46.59 14.23 C-51.5 18.28, -56.4 22.33, -58.93 24.41 M-58.93 24.41 C-62.89 29.21, -66.85 34.02, -69.1 36.75 M-58.93 24.41 C-62.67 28.95, -66.41 33.48, -69.1 36.75 M-69.1 36.75 C-71.18 40.57, -73.26 44.4, -76.78 50.9 M-69.1 36.75 C-71.27 40.74, -73.43 44.73, -76.78 50.9 M-76.78 50.9 C-77.57 53.06, -78.36 55.21, -79.59 58.56 M-76.78 50.9 C-77.37 52.51, -77.96 54.12, -79.59 58.56 M-79.59 58.56 C-80.14 60.71, -80.69 62.87, -81.64 66.55 M-79.59 58.56 C-80.25 61.14, -80.91 63.72, -81.64 66.55 M-81.64 66.55 C-82.05 69.23, -82.46 71.91, -82.9 74.82 M-81.64 66.55 C-82.13 69.74, -82.61 72.92, -82.9 74.82 M-82.9 74.82 C-83.04 77.6, -83.18 80.37, -83.33 83.35 M-82.9 74.82 C-83.06 77.86, -83.21 80.89, -83.33 83.35 M-83.33 83.35 C-83.25 85.07, -83.16 86.79, -82.9 91.87 M-83.33 83.35 C-83.21 85.76, -83.09 88.17, -82.9 91.87 M-82.9 91.87 C-82.55 94.18, -82.2 96.5, -81.64 100.14 M-82.9 91.87 C-82.52 94.36, -82.14 96.86, -81.64 100.14 M-81.64 100.14 C-80.95 102.84, -80.25 105.54, -79.59 108.13 M-81.64 100.14 C-80.96 102.78, -80.28 105.42, -79.59 108.13 M-79.59 108.13 C-78.57 110.9, -77.56 113.67, -76.78 115.79 M-79.59 108.13 C-78.84 110.18, -78.09 112.23, -76.78 115.79 M-76.78 115.79 C-73.75 121.37, -70.72 126.96, -69.1 129.95 M-76.78 115.79 C-74.56 119.89, -72.34 123.98, -69.1 129.95 M-69.1 129.95 C-66.14 133.54, -63.17 137.13, -58.93 142.28 M-69.1 129.95 C-66.6 132.98, -64.09 136.02, -58.93 142.28 M-58.93 142.28 C-54.33 146.07, -49.74 149.86, -46.59 152.46 M-58.93 142.28 C-54.5 145.93, -50.07 149.59, -46.59 152.46 M-46.59 152.46 C-41.27 155.35, -35.94 158.24, -32.44 160.14 M-46.59 152.46 C-43.53 154.12, -40.46 155.79, -32.44 160.14 M-32.44 160.14 C-30.05 161.02, -27.66 161.89, -24.78 162.94 M-32.44 160.14 C-30.35 160.91, -28.25 161.67, -24.78 162.94 M-24.78 162.94 C-23.07 163.38, -21.36 163.82, -16.79 165 M-24.78 162.94 C-22.83 163.45, -20.89 163.95, -16.79 165 M-16.79 165 C-13.54 165.49, -10.29 165.99, -8.52 166.26 M-16.79 165 C-15.12 165.25, -13.44 165.51, -8.52 166.26 M-8.52 166.26 C-5.19 166.43, -1.86 166.6, 0 166.69 M-8.52 166.26 C-5.3 166.42, -2.07 166.59, 0 166.69 M0 166.69 C0 174.46, 0 182.23, 0 200 M0 166.69 C0 175.12, 0 183.55, 0 200 M0 200 C0 200, 0 200, 0 200 M0 200 C0 200, 0 200, 0 200 M0 200 C0.62 199.81, 1.24 199.62, 1.59 199.52 M0 200 C0.58 199.82, 1.17 199.65, 1.59 199.52 M1.59 199.52 C2.38 199.15, 3.17 198.79, 4.72 198.08 M1.59 199.52 C2.54 199.08, 3.48 198.65, 4.72 198.08 M4.72 198.08 C5.88 197.46, 7.04 196.84, 9.16 195.7 M4.72 198.08 C5.71 197.55, 6.7 197.02, 9.16 195.7 M9.16 195.7 C11.13 194.51, 13.1 193.33, 14.69 192.38 M9.16 195.7 C10.4 194.96, 11.63 194.22, 14.69 192.38 M14.69 192.38 C17.13 190.76, 19.56 189.14, 21.09 188.13 M14.69 192.38 C16.82 190.96, 18.96 189.55, 21.09 188.13 M21.09 188.13 C22.73 186.92, 24.38 185.71, 28.11 182.97 M21.09 188.13 C23.29 186.52, 25.49 184.9, 28.11 182.97 M28.11 182.97 C30.52 181.01, 32.93 179.04, 35.54 176.91 M28.11 182.97 C30.71 180.85, 33.31 178.73, 35.54 176.91 M35.54 176.91 C37.97 174.69, 40.4 172.46, 43.15 169.95 M35.54 176.91 C37.47 175.14, 39.41 173.37, 43.15 169.95 M43.15 169.95 C44.7 168.34, 46.25 166.74, 50.72 162.11 M43.15 169.95 C45.86 167.14, 48.57 164.34, 50.72 162.11 M50.72 162.11 C52.41 160.08, 54.1 158.06, 58.01 153.39 M50.72 162.11 C52.99 159.4, 55.26 156.69, 58.01 153.39 M58.01 153.39 C60.56 149.8, 63.11 146.2, 64.8 143.81 M58.01 153.39 C60.59 149.76, 63.16 146.14, 64.8 143.81 M64.8 143.81 C66.52 140.87, 68.23 137.93, 70.87 133.38 M64.8 143.81 C66.24 141.34, 67.68 138.87, 70.87 133.38 M70.87 133.38 C72.55 129.69, 74.22 125.99, 75.98 122.11 M70.87 133.38 C72.26 130.33, 73.64 127.27, 75.98 122.11 M75.98 122.11 C77.43 117.65, 78.88 113.19, 79.92 110.01 M75.98 122.11 C77.44 117.63, 78.9 113.14, 79.92 110.01 M79.92 110.01 C80.91 104.92, 81.9 99.84, 82.44 97.08 M79.92 110.01 C80.49 107.06, 81.07 104.11, 82.44 97.08 M82.44 97.08 C82.69 93.25, 82.94 89.42, 83.33 83.35 M82.44 97.08 C82.74 92.48, 83.04 87.87, 83.33 83.35 M83.33 83.35 C83.23 81.29, 83.13 79.23, 82.9 74.82 M83.33 83.35 C83.21 80.96, 83.09 78.58, 82.9 74.82 M82.9 74.82 C82.41 71.59, 81.92 68.36, 81.64 66.55 M82.9 74.82 C82.47 72, 82.04 69.17, 81.64 66.55 M81.64 66.55 C80.86 63.5, 80.07 60.45, 79.59 58.56 M81.64 66.55 C80.84 63.43, 80.03 60.3, 79.59 58.56 M79.59 58.56 C78.55 55.73, 77.52 52.91, 76.78 50.9 M79.59 58.56 C78.79 56.38, 77.99 54.19, 76.78 50.9 M76.78 50.9 C74.78 47.2, 72.77 43.51, 69.1 36.75 M76.78 50.9 C73.99 45.75, 71.19 40.6, 69.1 36.75 M69.1 36.75 C66.35 33.41, 63.6 30.08, 58.93 24.41 M69.1 36.75 C66.57 33.68, 64.05 30.62, 58.93 24.41 M58.93 24.41 C54.39 20.67, 49.85 16.92, 46.59 14.23 M58.93 24.41 C54.78 20.99, 50.63 17.57, 46.59 14.23 M46.59 14.23 C43.23 12.41, 39.87 10.58, 32.44 6.55 M46.59 14.23 C40.94 11.17, 35.29 8.1, 32.44 6.55 M32.44 6.55 C29.93 5.63, 27.42 4.71, 24.78 3.75 M32.44 6.55 C30.29 5.76, 28.14 4.98, 24.78 3.75 M24.78 3.75 C23.15 3.33, 21.51 2.91, 16.79 1.69 M24.78 3.75 C22.45 3.15, 20.12 2.55, 16.79 1.69 M16.79 1.69 C15.09 1.43, 13.39 1.17, 8.52 0.43 M16.79 1.69 C14.25 1.31, 11.71 0.92, 8.52 0.43 M8.52 0.43 C5.17 0.26, 1.81 0.09, 0 0 M8.52 0.43 C5.41 0.27, 2.3 0.12, 0 0 M0 0 C0 0, 0 0, 0 0 M0 0 C0 0, 0 0, 0 0 M0 0 C0 0, 0 0, 0 0 M0 0 C0 0, 0 0, 0 0" stroke="#000000" stroke-width="1" fill="none"></path></g></g><mask></mask><g stroke-linecap="round"><g transform="translate(171.2916596176774 106.458334116056) rotate(0 -63.90624530384321 8.281251643020653)" fill-rule="evenodd"><path d="M0 0 L0 0 L-3.03 13.08 L-7.47 25.29 L-13.09 36.61 L-19.64 47.04 L-26.86 56.55 L-34.52 65.15 L-42.35 72.82 L-50.12 79.54 L-114.37 15.29 L-114.37 15.29 L-120.25 8.1 L-124.45 0.12 L-126.97 -8.37 L-127.81 -17.12 L-126.97 -25.88 L-124.45 -34.37 L-120.25 -42.35 L-114.37 -49.54 L-107.18 -55.42 L-99.21 -59.62 L-90.71 -62.14 L-81.96 -62.98 L-73.2 -62.14 L-64.71 -59.62 L-56.74 -55.42 L-49.54 -49.54 L0 0 L0 0" stroke="none" stroke-width="0" fill="#00796b" fill-rule="evenodd"></path><path d="M0 0 C0 0, 0 0, 0 0 M0 0 C0 0, 0 0, 0 0 M0 0 C-0.8 3.44, -1.59 6.89, -3.03 13.08 M0 0 C-1.14 4.92, -2.28 9.84, -3.03 13.08 M-3.03 13.08 C-4.78 17.89, -6.53 22.69, -7.47 25.29 M-3.03 13.08 C-4.51 17.15, -5.99 21.21, -7.47 25.29 M-7.47 25.29 C-9.33 29.03, -11.19 32.77, -13.09 36.61 M-7.47 25.29 C-8.76 27.87, -10.04 30.45, -13.09 36.61 M-13.09 36.61 C-14.95 39.57, -16.81 42.53, -19.64 47.04 M-13.09 36.61 C-14.92 39.52, -16.75 42.43, -19.64 47.04 M-19.64 47.04 C-22.5 50.8, -25.36 54.57, -26.86 56.55 M-19.64 47.04 C-21.17 49.06, -22.71 51.07, -26.86 56.55 M-26.86 56.55 C-28.66 58.57, -30.45 60.58, -34.52 65.15 M-26.86 56.55 C-28.51 58.41, -30.16 60.26, -34.52 65.15 M-34.52 65.15 C-37.58 68.15, -40.64 71.14, -42.35 72.82 M-34.52 65.15 C-37.59 68.16, -40.66 71.16, -42.35 72.82 M-42.35 72.82 C-45.3 75.37, -48.25 77.92, -50.12 79.54 M-42.35 72.82 C-44.79 74.92, -47.22 77.03, -50.12 79.54 M-50.12 79.54 C-64.98 64.69, -79.83 49.84, -114.37 15.29 M-50.12 79.54 C-67.54 62.13, -84.95 44.72, -114.37 15.29 M-114.37 15.29 C-114.37 15.29, -114.37 15.29, -114.37 15.29 M-114.37 15.29 C-114.37 15.29, -114.37 15.29, -114.37 15.29 M-114.37 15.29 C-116.25 12.99, -118.13 10.7, -120.25 8.1 M-114.37 15.29 C-116.08 13.2, -117.79 11.11, -120.25 8.1 M-120.25 8.1 C-121.85 5.07, -123.44 2.05, -124.45 0.12 M-120.25 8.1 C-121.18 6.34, -122.11 4.58, -124.45 0.12 M-124.45 0.12 C-125.07 -1.95, -125.68 -4.02, -126.97 -8.37 M-124.45 0.12 C-125.29 -2.69, -126.12 -5.5, -126.97 -8.37 M-126.97 -8.37 C-127.3 -11.75, -127.62 -15.12, -127.81 -17.12 M-126.97 -8.37 C-127.15 -10.27, -127.34 -12.16, -127.81 -17.12 M-127.81 -17.12 C-127.58 -19.56, -127.35 -21.99, -126.97 -25.88 M-127.81 -17.12 C-127.63 -18.99, -127.45 -20.85, -126.97 -25.88 M-126.97 -25.88 C-126.24 -28.34, -125.51 -30.81, -124.45 -34.37 M-126.97 -25.88 C-126.1 -28.83, -125.22 -31.78, -124.45 -34.37 M-124.45 -34.37 C-123.26 -36.63, -122.08 -38.89, -120.25 -42.35 M-124.45 -34.37 C-122.79 -37.52, -121.13 -40.68, -120.25 -42.35 M-120.25 -42.35 C-118.44 -44.57, -116.63 -46.79, -114.37 -49.54 M-120.25 -42.35 C-118.91 -44, -117.56 -45.65, -114.37 -49.54 M-114.37 -49.54 C-112.9 -50.74, -111.43 -51.95, -107.18 -55.42 M-114.37 -49.54 C-112.39 -51.16, -110.4 -52.79, -107.18 -55.42 M-107.18 -55.42 C-104.85 -56.65, -102.51 -57.88, -99.21 -59.62 M-107.18 -55.42 C-105.05 -56.54, -102.92 -57.66, -99.21 -59.62 M-99.21 -59.62 C-96.02 -60.56, -92.84 -61.51, -90.71 -62.14 M-99.21 -59.62 C-96.72 -60.36, -94.24 -61.09, -90.71 -62.14 M-90.71 -62.14 C-88.7 -62.33, -86.69 -62.52, -81.96 -62.98 M-90.71 -62.14 C-87.61 -62.44, -84.51 -62.73, -81.96 -62.98 M-81.96 -62.98 C-80.11 -62.8, -78.27 -62.62, -73.2 -62.14 M-81.96 -62.98 C-80.03 -62.79, -78.1 -62.61, -73.2 -62.14 M-73.2 -62.14 C-70.29 -61.28, -67.38 -60.41, -64.71 -59.62 M-73.2 -62.14 C-70.02 -61.19, -66.83 -60.25, -64.71 -59.62 M-64.71 -59.62 C-62.18 -58.29, -59.65 -56.95, -56.74 -55.42 M-64.71 -59.62 C-62.52 -58.46, -60.32 -57.31, -56.74 -55.42 M-56.74 -55.42 C-53.92 -53.12, -51.1 -50.81, -49.54 -49.54 M-56.74 -55.42 C-54.57 -53.65, -52.4 -51.88, -49.54 -49.54 M-49.54 -49.54 C-30.5 -30.5, -11.46 -11.46, 0 0 M-49.54 -49.54 C-39.05 -39.05, -28.56 -28.56, 0 0 M0 0 C0 0, 0 0, 0 0 M0 0 C0 0, 0 0, 0 0 M0 0 C0 0, 0 0, 0 0 M0 0 C0 0, 0 0, 0 0" stroke="#000000" stroke-width="1" fill="none"></path></g></g><mask></mask><g stroke-linecap="round"><g transform="translate(89.33333137631416 114.33333540856893) rotate(0 0 -24.999999561905895)" fill-rule="evenodd"><path d="M0 0 L0 0 L-5.03 -0.51 L-9.72 -1.97 L-13.97 -4.27 L-17.67 -7.33 L-20.73 -11.03 L-23.03 -15.28 L-24.49 -19.97 L-25 -25 L-24.49 -30.03 L-23.03 -34.72 L-20.73 -38.97 L-17.67 -42.67 L-13.97 -45.73 L-9.72 -48.03 L-5.03 -49.49 L0 -50 L4.31 -49.49 L8.67 -48.03 L12.87 -45.73 L16.73 -42.67 L20.06 -38.97 L22.68 -34.72 L24.39 -30.03 L25 -25 L24.49 -19.97 L23.03 -15.28 L20.73 -11.03 L17.67 -7.33 L13.97 -4.27 L9.72 -1.97 L5.03 -0.51 L0 0 L0 0" stroke="none" stroke-width="0" fill="#fff" fill-rule="evenodd"></path><path d="M0 0 C0 0, 0 0, 0 0 M0 0 C0 0, 0 0, 0 0 M0 0 C-2.01 -0.2, -4.02 -0.41, -5.03 -0.51 M0 0 C-2 -0.2, -4 -0.4, -5.03 -0.51 M-5.03 -0.51 C-6.02 -0.81, -7 -1.12, -9.72 -1.97 M-5.03 -0.51 C-6.26 -0.89, -7.49 -1.27, -9.72 -1.97 M-9.72 -1.97 C-10.95 -2.63, -12.18 -3.3, -13.97 -4.27 M-9.72 -1.97 C-11.31 -2.83, -12.89 -3.69, -13.97 -4.27 M-13.97 -4.27 C-15.28 -5.36, -16.6 -6.45, -17.67 -7.33 M-13.97 -4.27 C-15.42 -5.48, -16.88 -6.68, -17.67 -7.33 M-17.67 -7.33 C-18.49 -8.33, -19.32 -9.32, -20.73 -11.03 M-17.67 -7.33 C-18.35 -8.16, -19.04 -8.99, -20.73 -11.03 M-20.73 -11.03 C-21.39 -12.26, -22.06 -13.48, -23.03 -15.28 M-20.73 -11.03 C-21.44 -12.35, -22.16 -13.67, -23.03 -15.28 M-23.03 -15.28 C-23.35 -16.3, -23.67 -17.33, -24.49 -19.97 M-23.03 -15.28 C-23.37 -16.37, -23.71 -17.46, -24.49 -19.97 M-24.49 -19.97 C-24.63 -21.32, -24.77 -22.68, -25 -25 M-24.49 -19.97 C-24.59 -20.99, -24.7 -22.01, -25 -25 M-25 -25 C-24.9 -26.03, -24.79 -27.06, -24.49 -30.03 M-25 -25 C-24.86 -26.35, -24.73 -27.69, -24.49 -30.03 M-24.49 -30.03 C-23.91 -31.9, -23.33 -33.76, -23.03 -34.72 M-24.49 -30.03 C-23.91 -31.89, -23.33 -33.75, -23.03 -34.72 M-23.03 -34.72 C-22.15 -36.35, -21.26 -37.98, -20.73 -38.97 M-23.03 -34.72 C-22.37 -35.94, -21.71 -37.15, -20.73 -38.97 M-20.73 -38.97 C-19.77 -40.12, -18.82 -41.28, -17.67 -42.67 M-20.73 -38.97 C-19.96 -39.9, -19.19 -40.83, -17.67 -42.67 M-17.67 -42.67 C-16.55 -43.59, -15.44 -44.51, -13.97 -45.73 M-17.67 -42.67 C-16.83 -43.37, -15.98 -44.06, -13.97 -45.73 M-13.97 -45.73 C-12.74 -46.4, -11.5 -47.07, -9.72 -48.03 M-13.97 -45.73 C-12.85 -46.34, -11.72 -46.95, -9.72 -48.03 M-9.72 -48.03 C-7.88 -48.61, -6.04 -49.18, -5.03 -49.49 M-9.72 -48.03 C-8.22 -48.5, -6.71 -48.97, -5.03 -49.49 M-5.03 -49.49 C-3.27 -49.67, -1.51 -49.85, 0 -50 M-5.03 -49.49 C-3.18 -49.68, -1.33 -49.87, 0 -50 M0 -50 C1.22 -49.86, 2.44 -49.71, 4.31 -49.49 M0 -50 C1.64 -49.81, 3.27 -49.61, 4.31 -49.49 M4.31 -49.49 C5.82 -48.99, 7.32 -48.48, 8.67 -48.03 M4.31 -49.49 C5.32 -49.15, 6.33 -48.81, 8.67 -48.03 M8.67 -48.03 C9.85 -47.38, 11.04 -46.73, 12.87 -45.73 M8.67 -48.03 C9.93 -47.34, 11.2 -46.64, 12.87 -45.73 M12.87 -45.73 C13.92 -44.89, 14.98 -44.06, 16.73 -42.67 M12.87 -45.73 C14.26 -44.63, 15.65 -43.53, 16.73 -42.67 M16.73 -42.67 C17.71 -41.58, 18.69 -40.49, 20.06 -38.97 M16.73 -42.67 C17.97 -41.29, 19.21 -39.92, 20.06 -38.97 M20.06 -38.97 C21.02 -37.42, 21.98 -35.86, 22.68 -34.72 M20.06 -38.97 C21.09 -37.3, 22.12 -35.63, 22.68 -34.72 M22.68 -34.72 C23.21 -33.27, 23.74 -31.82, 24.39 -30.03 M22.68 -34.72 C23.3 -33.02, 23.92 -31.32, 24.39 -30.03 M24.39 -30.03 C24.63 -28.03, 24.87 -26.03, 25 -25 M24.39 -30.03 C24.52 -28.99, 24.64 -27.95, 25 -25 M25 -25 C24.84 -23.45, 24.69 -21.89, 24.49 -19.97 M25 -25 C24.88 -23.84, 24.77 -22.68, 24.49 -19.97 M24.49 -19.97 C23.94 -18.18, 23.38 -16.4, 23.03 -15.28 M24.49 -19.97 C24.18 -18.96, 23.86 -17.94, 23.03 -15.28 M23.03 -15.28 C22.2 -13.75, 21.37 -12.21, 20.73 -11.03 M23.03 -15.28 C22.53 -14.35, 22.02 -13.42, 20.73 -11.03 M20.73 -11.03 C19.92 -10.05, 19.11 -9.07, 17.67 -7.33 M20.73 -11.03 C19.91 -10.04, 19.1 -9.06, 17.67 -7.33 M17.67 -7.33 C16.47 -6.34, 15.28 -5.35, 13.97 -4.27 M17.67 -7.33 C16.36 -6.25, 15.04 -5.16, 13.97 -4.27 M13.97 -4.27 C12.95 -3.72, 11.92 -3.16, 9.72 -1.97 M13.97 -4.27 C12.51 -3.48, 11.05 -2.69, 9.72 -1.97 M9.72 -1.97 C8.11 -1.46, 6.49 -0.96, 5.03 -0.51 M9.72 -1.97 C8.06 -1.45, 6.39 -0.93, 5.03 -0.51 M5.03 -0.51 C3.83 -0.39, 2.63 -0.27, 0 0 M5.03 -0.51 C3.68 -0.37, 2.33 -0.24, 0 0 M0 0 C0 0, 0 0, 0 0 M0 0 C0 0, 0 0, 0 0 M0 0 C0 0, 0 0, 0 0 M0 0 C0 0, 0 0, 0 0" stroke="#000000" stroke-width="1" fill="none"></path></g></g><mask></mask><g stroke-linecap="round"><g transform="translate(89.33333137631416 74.74999879524148) rotate(0 0.0000029802321250826935 14.583334071189142)" fill-rule="evenodd"><path d="M0 0 L0 0 L-5.71 1.11 L-10.34 4.17 L-13.45 8.79 L-14.58 14.58 L-13.49 20.38 L-10.45 25 L-5.83 28.06 L0 29.17 L6.16 28.18 L10.74 25.32 L13.6 20.74 L14.58 14.58 L13.6 8.43 L10.74 3.84 L6.16 0.99 L0 0 L0 0" stroke="none" stroke-width="0" fill="#fff" fill-rule="evenodd"></path><path d="M0 0 C0 0, 0 0, 0 0 M0 0 C0 0, 0 0, 0 0 M0 0 C-1.26 0.24, -2.52 0.49, -5.71 1.11 M0 0 C-1.56 0.3, -3.12 0.61, -5.71 1.11 M-5.71 1.11 C-7.47 2.27, -9.23 3.43, -10.34 4.17 M-5.71 1.11 C-7.03 1.97, -8.34 2.84, -10.34 4.17 M-10.34 4.17 C-11.38 5.71, -12.42 7.25, -13.45 8.79 M-10.34 4.17 C-11.02 5.18, -11.71 6.2, -13.45 8.79 M-13.45 8.79 C-13.89 11.02, -14.32 13.26, -14.58 14.58 M-13.45 8.79 C-13.68 9.98, -13.91 11.16, -14.58 14.58 M-14.58 14.58 C-14.15 16.89, -13.71 19.19, -13.49 20.38 M-14.58 14.58 C-14.15 16.86, -13.72 19.15, -13.49 20.38 M-13.49 20.38 C-12.32 22.16, -11.15 23.94, -10.45 25 M-13.49 20.38 C-12.81 21.41, -12.13 22.45, -10.45 25 M-10.45 25 C-9.44 25.67, -8.44 26.33, -5.83 28.06 M-10.45 25 C-8.73 26.14, -7.02 27.27, -5.83 28.06 M-5.83 28.06 C-4.58 28.3, -3.33 28.53, 0 29.17 M-5.83 28.06 C-3.5 28.5, -1.17 28.95, 0 29.17 M0 29.17 C1.47 28.93, 2.93 28.7, 6.16 28.18 M0 29.17 C1.95 28.85, 3.91 28.54, 6.16 28.18 M6.16 28.18 C7.51 27.33, 8.87 26.49, 10.74 25.32 M6.16 28.18 C7.2 27.53, 8.25 26.88, 10.74 25.32 M10.74 25.32 C11.41 24.24, 12.09 23.16, 13.6 20.74 M10.74 25.32 C11.55 24.02, 12.37 22.71, 13.6 20.74 M13.6 20.74 C13.93 18.65, 14.27 16.56, 14.58 14.58 M13.6 20.74 C13.94 18.62, 14.28 16.5, 14.58 14.58 M14.58 14.58 C14.36 13.2, 14.14 11.82, 13.6 8.43 M14.58 14.58 C14.27 12.63, 13.96 10.68, 13.6 8.43 M13.6 8.43 C12.92 7.33, 12.23 6.24, 10.74 3.84 M13.6 8.43 C12.96 7.41, 12.32 6.38, 10.74 3.84 M10.74 3.84 C9.11 2.83, 7.48 1.81, 6.16 0.99 M10.74 3.84 C9.16 2.86, 7.58 1.87, 6.16 0.99 M6.16 0.99 C3.86 0.62, 1.56 0.25, 0 0 M6.16 0.99 C4.44 0.71, 2.73 0.44, 0 0 M0 0 C0 0, 0 0, 0 0 M0 0 C0 0, 0 0, 0 0 M0 0 C0 0, 0 0, 0 0 M0 0 C0 0, 0 0, 0 0" stroke="#000000" stroke-width="1" fill="none"></path></g></g><mask></mask><g stroke-linecap="round"><g transform="translate(89.33333137631416 135.1666723504659) rotate(0 0.0000029802321250826935 -45.83333650380365)" fill-rule="evenodd"><path d="M0 0 L0 0 L-9.1 -0.95 L-17.64 -3.67 L-25.42 -7.95 L-32.23 -13.6 L-37.88 -20.41 L-42.17 -28.19 L-44.88 -36.73 L-45.83 -45.83 L-44.88 -54.94 L-42.17 -63.47 L-37.88 -71.25 L-32.23 -78.07 L-25.42 -83.71 L-17.64 -88 L-9.1 -90.72 L0 -91.67 L9.1 -90.72 L17.64 -88 L25.42 -83.71 L32.23 -78.07 L37.88 -71.25 L42.17 -63.47 L44.88 -54.94 L45.83 -45.83 L45.57 -40.26 L44.81 -35.32 L43.56 -31.04 L41.86 -27.46 L39.71 -24.62 L37.14 -22.54 L34.17 -21.27 L30.83 -20.83 L26.39 -21.68 L24.03 -23.01 L21.77 -25.18 L19.75 -28.36 L18.14 -32.75 L17.06 -38.51 L16.67 -45.83 L16.67 -66.67 L25 -66.67 L25 -45.83 L25 -45.83 L25.4 -38.83 L26.55 -33.59 L28.38 -30.3 L30.83 -29.17 L33.82 -30.6 L35.89 -34.39 L37.11 -39.73 L37.5 -45.83 L36.72 -53.28 L34.5 -60.27 L30.99 -66.63 L26.37 -72.21 L20.8 -76.83 L14.44 -80.33 L7.45 -82.56 L0 -83.33 L-7.45 -82.56 L-14.44 -80.33 L-20.8 -76.83 L-26.37 -72.21 L-30.99 -66.63 L-34.5 -60.27 L-36.72 -53.28 L-37.5 -45.83 L-36.72 -38.39 L-34.5 -31.4 L-30.99 -25.04 L-26.37 -19.46 L-20.8 -14.84 L-14.44 -11.33 L-7.45 -9.11 L0 -8.33 L6.99 -8.85 L12.36 -9.99 L15.83 -11.14 L17.08 -11.68 L20.81 -4.23 L20.81 -4.23 L19.13 -3.49 L14.85 -2.05 L8.35 -0.64 L0 0 L0 0" stroke="none" stroke-width="0" fill="#fff" fill-rule="evenodd"></path><path d="M0 0 C0 0, 0 0, 0 0 M0 0 C0 0, 0 0, 0 0 M0 0 C-2.06 -0.22, -4.12 -0.43, -9.1 -0.95 M0 0 C-3.25 -0.34, -6.49 -0.68, -9.1 -0.95 M-9.1 -0.95 C-11.39 -1.68, -13.67 -2.4, -17.64 -3.67 M-9.1 -0.95 C-11.16 -1.61, -13.22 -2.26, -17.64 -3.67 M-17.64 -3.67 C-19.52 -4.7, -21.39 -5.73, -25.42 -7.95 M-17.64 -3.67 C-20.33 -5.15, -23.01 -6.62, -25.42 -7.95 M-25.42 -7.95 C-27.87 -9.99, -30.33 -12.02, -32.23 -13.6 M-25.42 -7.95 C-26.85 -9.13, -28.27 -10.32, -32.23 -13.6 M-32.23 -13.6 C-33.4 -15, -34.56 -16.41, -37.88 -20.41 M-32.23 -13.6 C-33.62 -15.28, -35.01 -16.95, -37.88 -20.41 M-37.88 -20.41 C-39.06 -22.55, -40.24 -24.7, -42.17 -28.19 M-37.88 -20.41 C-39.31 -23.01, -40.74 -25.61, -42.17 -28.19 M-42.17 -28.19 C-42.81 -30.22, -43.45 -32.24, -44.88 -36.73 M-42.17 -28.19 C-43.03 -30.91, -43.9 -33.63, -44.88 -36.73 M-44.88 -36.73 C-45.15 -39.32, -45.42 -41.91, -45.83 -45.83 M-44.88 -36.73 C-45.08 -38.59, -45.27 -40.46, -45.83 -45.83 M-45.83 -45.83 C-45.46 -49.37, -45.09 -52.91, -44.88 -54.94 M-45.83 -45.83 C-45.59 -48.18, -45.34 -50.52, -44.88 -54.94 M-44.88 -54.94 C-44.2 -57.07, -43.52 -59.21, -42.17 -63.47 M-44.88 -54.94 C-43.8 -58.33, -42.72 -61.72, -42.17 -63.47 M-42.17 -63.47 C-40.65 -66.23, -39.13 -68.98, -37.88 -71.25 M-42.17 -63.47 C-40.9 -65.77, -39.64 -68.07, -37.88 -71.25 M-37.88 -71.25 C-36.06 -73.45, -34.24 -75.64, -32.23 -78.07 M-37.88 -71.25 C-35.77 -73.8, -33.67 -76.34, -32.23 -78.07 M-32.23 -78.07 C-29.74 -80.13, -27.25 -82.2, -25.42 -83.71 M-32.23 -78.07 C-30.2 -79.75, -28.17 -81.44, -25.42 -83.71 M-25.42 -83.71 C-23.56 -84.74, -21.69 -85.77, -17.64 -88 M-25.42 -83.71 C-22.46 -85.34, -19.5 -86.97, -17.64 -88 M-17.64 -88 C-15.12 -88.8, -12.6 -89.6, -9.1 -90.72 M-17.64 -88 C-15.34 -88.73, -13.04 -89.46, -9.1 -90.72 M-9.1 -90.72 C-6.99 -90.94, -4.88 -91.16, 0 -91.67 M-9.1 -90.72 C-5.89 -91.05, -2.69 -91.39, 0 -91.67 M0 -91.67 C3.21 -91.33, 6.42 -91, 9.1 -90.72 M0 -91.67 C2.26 -91.43, 4.53 -91.19, 9.1 -90.72 M9.1 -90.72 C11.8 -89.86, 14.5 -89, 17.64 -88 M9.1 -90.72 C10.88 -90.15, 12.67 -89.58, 17.64 -88 M17.64 -88 C20.66 -86.33, 23.68 -84.67, 25.42 -83.71 M17.64 -88 C19.28 -87.1, 20.91 -86.2, 25.42 -83.71 M25.42 -83.71 C28.14 -81.46, 30.85 -79.21, 32.23 -78.07 M25.42 -83.71 C27.84 -81.71, 30.25 -79.71, 32.23 -78.07 M32.23 -78.07 C34.44 -75.4, 36.65 -72.74, 37.88 -71.25 M32.23 -78.07 C34.29 -75.58, 36.35 -73.1, 37.88 -71.25 M37.88 -71.25 C39.49 -68.33, 41.1 -65.41, 42.17 -63.47 M37.88 -71.25 C39.52 -68.29, 41.15 -65.32, 42.17 -63.47 M42.17 -63.47 C43.22 -60.17, 44.27 -56.86, 44.88 -54.94 M42.17 -63.47 C42.87 -61.26, 43.58 -59.04, 44.88 -54.94 M44.88 -54.94 C45.1 -52.82, 45.32 -50.71, 45.83 -45.83 M44.88 -54.94 C45.23 -51.6, 45.58 -48.26, 45.83 -45.83 M45.83 -45.83 C45.74 -43.91, 45.65 -41.99, 45.57 -40.26 M45.83 -45.83 C45.76 -44.29, 45.69 -42.74, 45.57 -40.26 M45.57 -40.26 C45.31 -38.58, 45.05 -36.89, 44.81 -35.32 M45.57 -40.26 C45.29 -38.42, 45 -36.57, 44.81 -35.32 M44.81 -35.32 C44.47 -34.17, 44.14 -33.01, 43.56 -31.04 M44.81 -35.32 C44.39 -33.88, 43.97 -32.44, 43.56 -31.04 M43.56 -31.04 C42.94 -29.73, 42.31 -28.42, 41.86 -27.46 M43.56 -31.04 C42.96 -29.79, 42.36 -28.53, 41.86 -27.46 M41.86 -27.46 C41.2 -26.59, 40.54 -25.72, 39.71 -24.62 M41.86 -27.46 C41.01 -26.34, 40.16 -25.22, 39.71 -24.62 M39.71 -24.62 C38.78 -23.87, 37.86 -23.12, 37.14 -22.54 M39.71 -24.62 C39.1 -24.13, 38.5 -23.64, 37.14 -22.54 M37.14 -22.54 C36.43 -22.23, 35.72 -21.93, 34.17 -21.27 M37.14 -22.54 C36.14 -22.11, 35.14 -21.68, 34.17 -21.27 M34.17 -21.27 C33.3 -21.15, 32.43 -21.04, 30.83 -20.83 M34.17 -21.27 C33.35 -21.16, 32.53 -21.05, 30.83 -20.83 M30.83 -20.83 C29.09 -21.17, 27.35 -21.5, 26.39 -21.68 M30.83 -20.83 C29.53 -21.08, 28.23 -21.33, 26.39 -21.68 M26.39 -21.68 C25.91 -21.95, 25.43 -22.22, 24.03 -23.01 M26.39 -21.68 C25.47 -22.2, 24.54 -22.72, 24.03 -23.01 M24.03 -23.01 C23.29 -23.71, 22.56 -24.42, 21.77 -25.18 M24.03 -23.01 C23.29 -23.71, 22.55 -24.42, 21.77 -25.18 M21.77 -25.18 C21.36 -25.82, 20.95 -26.46, 19.75 -28.36 M21.77 -25.18 C21.04 -26.33, 20.31 -27.48, 19.75 -28.36 M19.75 -28.36 C19.2 -29.86, 18.65 -31.36, 18.14 -32.75 M19.75 -28.36 C19.22 -29.82, 18.68 -31.28, 18.14 -32.75 M18.14 -32.75 C17.85 -34.29, 17.56 -35.84, 17.06 -38.51 M18.14 -32.75 C17.88 -34.13, 17.62 -35.51, 17.06 -38.51 M17.06 -38.51 C16.91 -41.29, 16.76 -44.07, 16.67 -45.83 M17.06 -38.51 C16.92 -41.07, 16.79 -43.62, 16.67 -45.83 M16.67 -45.83 C16.67 -52.03, 16.67 -58.23, 16.67 -66.67 M16.67 -45.83 C16.67 -53.92, 16.67 -62, 16.67 -66.67 M16.67 -66.67 C19.34 -66.67, 22 -66.67, 25 -66.67 M16.67 -66.67 C18.7 -66.67, 20.73 -66.67, 25 -66.67 M25 -66.67 C25 -58.81, 25 -50.95, 25 -45.83 M25 -66.67 C25 -59.21, 25 -51.76, 25 -45.83 M25 -45.83 C25 -45.83, 25 -45.83, 25 -45.83 M25 -45.83 C25 -45.83, 25 -45.83, 25 -45.83 M25 -45.83 C25.11 -43.86, 25.22 -41.88, 25.4 -38.83 M25 -45.83 C25.15 -43.13, 25.31 -40.43, 25.4 -38.83 M25.4 -38.83 C25.77 -37.15, 26.13 -35.47, 26.55 -33.59 M25.4 -38.83 C25.78 -37.09, 26.16 -35.35, 26.55 -33.59 M26.55 -33.59 C27.24 -32.35, 27.93 -31.11, 28.38 -30.3 M26.55 -33.59 C27.09 -32.62, 27.63 -31.65, 28.38 -30.3 M28.38 -30.3 C29.2 -29.92, 30.02 -29.55, 30.83 -29.17 M28.38 -30.3 C29.23 -29.91, 30.07 -29.52, 30.83 -29.17 M30.83 -29.17 C31.78 -29.62, 32.72 -30.08, 33.82 -30.6 M30.83 -29.17 C32 -29.73, 33.17 -30.29, 33.82 -30.6 M33.82 -30.6 C34.56 -31.95, 35.3 -33.3, 35.89 -34.39 M33.82 -30.6 C34.39 -31.66, 34.97 -32.71, 35.89 -34.39 M35.89 -34.39 C36.31 -36.21, 36.72 -38.03, 37.11 -39.73 M35.89 -34.39 C36.35 -36.39, 36.8 -38.38, 37.11 -39.73 M37.11 -39.73 C37.21 -41.34, 37.31 -42.95, 37.5 -45.83 M37.11 -39.73 C37.22 -41.44, 37.33 -43.15, 37.5 -45.83 M37.5 -45.83 C37.2 -48.69, 36.9 -51.54, 36.72 -53.28 M37.5 -45.83 C37.33 -47.47, 37.16 -49.11, 36.72 -53.28 M36.72 -53.28 C36.12 -55.17, 35.52 -57.05, 34.5 -60.27 M36.72 -53.28 C35.97 -55.64, 35.22 -58, 34.5 -60.27 M34.5 -60.27 C33.22 -62.59, 31.95 -64.9, 30.99 -66.63 M34.5 -60.27 C33.46 -62.16, 32.42 -64.04, 30.99 -66.63 M30.99 -66.63 C29.95 -67.9, 28.9 -69.16, 26.37 -72.21 M30.99 -66.63 C29.27 -68.71, 27.54 -70.79, 26.37 -72.21 M26.37 -72.21 C24.74 -73.56, 23.1 -74.92, 20.8 -76.83 M26.37 -72.21 C24.94 -73.39, 23.51 -74.58, 20.8 -76.83 M20.8 -76.83 C18.72 -77.97, 16.64 -79.12, 14.44 -80.33 M20.8 -76.83 C18.61 -78.03, 16.43 -79.24, 14.44 -80.33 M14.44 -80.33 C11.85 -81.16, 9.26 -81.98, 7.45 -82.56 M14.44 -80.33 C12.08 -81.08, 9.72 -81.83, 7.45 -82.56 M7.45 -82.56 C5.95 -82.71, 4.46 -82.87, 0 -83.33 M7.45 -82.56 C4.89 -82.82, 2.34 -83.09, 0 -83.33 M0 -83.33 C-2.1 -83.11, -4.2 -82.9, -7.45 -82.56 M0 -83.33 C-1.97 -83.13, -3.93 -82.92, -7.45 -82.56 M-7.45 -82.56 C-8.97 -82.07, -10.49 -81.59, -14.44 -80.33 M-7.45 -82.56 C-9.55 -81.89, -11.65 -81.22, -14.44 -80.33 M-14.44 -80.33 C-16.38 -79.26, -18.32 -78.19, -20.8 -76.83 M-14.44 -80.33 C-16.64 -79.12, -18.84 -77.91, -20.8 -76.83 M-20.8 -76.83 C-22.96 -75.03, -25.12 -73.24, -26.37 -72.21 M-20.8 -76.83 C-22.37 -75.52, -23.95 -74.22, -26.37 -72.21 M-26.37 -72.21 C-27.33 -71.05, -28.29 -69.9, -30.99 -66.63 M-26.37 -72.21 C-28.13 -70.09, -29.88 -67.97, -30.99 -66.63 M-30.99 -66.63 C-31.9 -64.99, -32.81 -63.34, -34.5 -60.27 M-30.99 -66.63 C-32.36 -64.15, -33.73 -61.67, -34.5 -60.27 M-34.5 -60.27 C-35.26 -57.88, -36.02 -55.49, -36.72 -53.28 M-34.5 -60.27 C-35.27 -57.84, -36.04 -55.42, -36.72 -53.28 M-36.72 -53.28 C-36.89 -51.66, -37.06 -50.05, -37.5 -45.83 M-36.72 -53.28 C-36.93 -51.34, -37.13 -49.4, -37.5 -45.83 M-37.5 -45.83 C-37.22 -43.19, -36.95 -40.55, -36.72 -38.39 M-37.5 -45.83 C-37.25 -43.48, -37.01 -41.13, -36.72 -38.39 M-36.72 -38.39 C-35.86 -35.66, -34.99 -32.94, -34.5 -31.4 M-36.72 -38.39 C-35.91 -35.82, -35.09 -33.25, -34.5 -31.4 M-34.5 -31.4 C-33.53 -29.63, -32.56 -27.87, -30.99 -25.04 M-34.5 -31.4 C-33.31 -29.24, -32.12 -27.07, -30.99 -25.04 M-30.99 -25.04 C-29.41 -23.13, -27.83 -21.22, -26.37 -19.46 M-30.99 -25.04 C-29.51 -23.25, -28.03 -21.46, -26.37 -19.46 M-26.37 -19.46 C-25.07 -18.38, -23.78 -17.31, -20.8 -14.84 M-26.37 -19.46 C-24.37 -17.8, -22.36 -16.14, -20.8 -14.84 M-20.8 -14.84 C-18.4 -13.52, -15.99 -12.19, -14.44 -11.33 M-20.8 -14.84 C-18.48 -13.56, -16.16 -12.28, -14.44 -11.33 M-14.44 -11.33 C-12.11 -10.59, -9.78 -9.85, -7.45 -9.11 M-14.44 -11.33 C-12.34 -10.67, -10.24 -10, -7.45 -9.11 M-7.45 -9.11 C-5.66 -8.92, -3.87 -8.74, 0 -8.33 M-7.45 -9.11 C-5.35 -8.89, -3.26 -8.67, 0 -8.33 M0 -8.33 C2.64 -8.53, 5.28 -8.72, 6.99 -8.85 M0 -8.33 C2.61 -8.53, 5.22 -8.72, 6.99 -8.85 M6.99 -8.85 C8.13 -9.09, 9.27 -9.34, 12.36 -9.99 M6.99 -8.85 C8.53 -9.18, 10.08 -9.51, 12.36 -9.99 M12.36 -9.99 C13.6 -10.4, 14.83 -10.81, 15.83 -11.14 M12.36 -9.99 C13.67 -10.43, 14.98 -10.86, 15.83 -11.14 M15.83 -11.14 C16.1 -11.26, 16.37 -11.38, 17.08 -11.68 M15.83 -11.14 C16.25 -11.33, 16.67 -11.51, 17.08 -11.68 M17.08 -11.68 C18.38 -9.09, 19.67 -6.5, 20.81 -4.23 M17.08 -11.68 C18.55 -8.74, 20.03 -5.79, 20.81 -4.23 M20.81 -4.23 C20.81 -4.23, 20.81 -4.23, 20.81 -4.23 M20.81 -4.23 C20.81 -4.23, 20.81 -4.23, 20.81 -4.23 M20.81 -4.23 C20.44 -4.07, 20.07 -3.91, 19.13 -3.49 M20.81 -4.23 C20.31 -4.01, 19.81 -3.79, 19.13 -3.49 M19.13 -3.49 C17.43 -2.92, 15.73 -2.35, 14.85 -2.05 M19.13 -3.49 C18.04 -3.13, 16.95 -2.76, 14.85 -2.05 M14.85 -2.05 C12.72 -1.59, 10.59 -1.12, 8.35 -0.64 M14.85 -2.05 C13.32 -1.72, 11.78 -1.38, 8.35 -0.64 M8.35 -0.64 C5.74 -0.44, 3.13 -0.24, 0 0 M8.35 -0.64 C6.61 -0.5, 4.86 -0.37, 0 0 M0 0 C0 0, 0 0, 0 0 M0 0 C0 0, 0 0, 0 0 M0 0 C0 0, 0 0, 0 0 M0 0 C0 0, 0 0, 0 0" stroke="#000000" stroke-width="1" fill="none"></path></g></g><mask></mask></svg>