<svg xmlns="http://www.w3.org/2000/svg" viewBox="173.99 -185.87 172.00 84.00" width="172" height="84"><rect x="179.99" y="-179.87" width="160.00" height="72.00" rx="0" stroke="#4285f4" stroke-width="2" opacity="1.0" fill="#FFF"/><text x="244.99" y="-145.87" font-size="12" fill="#000000" opacity="1.0" font-family="sans-serif">Binary
Authorization</text><polyline points="216.81,-144.51 219.91,-144.51 219.91,-144.51 219.89,-143.66 219.85,-142.84 219.77,-142.06 219.67,-141.32 219.55,-140.60 219.40,-139.92 219.23,-139.26 219.04,-138.64 218.60,-137.49 218.11,-136.45 217.56,-135.51 216.98,-134.68 216.39,-133.95 215.78,-133.31 215.18,-132.76 214.60,-132.29 214.05,-131.90 213.55,-131.58 213.10,-131.33 212.73,-131.14 212.73,-128.76 213.13,-128.90 213.13,-128.90 213.19,-128.92 213.29,-128.96 213.44,-129.02 213.62,-129.10 213.85,-129.20 214.10,-129.33 214.38,-129.48 214.69,-129.65 215.39,-130.08 216.15,-130.63 216.95,-131.30 217.78,-132.11 218.19,-132.57 218.60,-133.06 219.00,-133.60 219.40,-134.17 219.77,-134.78 220.14,-135.43 220.48,-136.13 220.80,-136.87 221.09,-137.66 221.35,-138.49 221.59,-139.37 221.78,-140.30 221.94,-141.28 222.06,-142.31 222.13,-143.39 222.16,-144.52 222.16,-146.73 215.68,-146.73 216.81,-144.51 216.81,-144.51" fill="none" stroke="#00000000" stroke-width="1" opacity="1.0" stroke-linecap="round" stroke-linejoin="round"/><polyline points="215.66,-146.73 216.77,-148.83 216.77,-159.24 215.02,-157.89 215.02,-157.89 214.31,-157.32 213.59,-156.71 212.89,-156.04 212.20,-155.33 211.54,-154.57 210.90,-153.76 210.29,-152.92 209.72,-152.04 209.21,-151.12 208.74,-150.17 208.34,-149.18 208.00,-148.16 207.74,-147.11 207.56,-146.04 207.46,-144.94 207.46,-143.82 207.50,-143.08 207.58,-142.34 207.70,-141.62 207.86,-140.90 208.07,-140.20 208.32,-139.52 208.60,-138.85 208.92,-138.19 209.28,-137.56 209.68,-136.95 210.11,-136.36 210.58,-135.80 211.08,-135.26 211.61,-134.75 212.18,-134.27 212.77,-133.83 212.94,-133.73 214.08,-135.58 213.93,-135.67 213.93,-135.67 213.27,-136.20 212.66,-136.78 216.86,-139.16 216.86,-144.49 215.66,-146.73 215.66,-146.73" fill="none" stroke="#00000000" stroke-width="1" opacity="1.0" stroke-linecap="round" stroke-linejoin="round"/><polyline points="214.58,-144.51 214.58,-140.51 211.27,-138.58 211.27,-138.58 210.90,-139.20 210.59,-139.83 210.31,-140.48 210.09,-141.14 209.91,-141.82 209.78,-142.51 209.70,-143.21 209.67,-143.92 209.70,-144.67 209.77,-145.42 209.87,-146.17 210.02,-146.90 210.20,-147.63 210.42,-148.34 210.67,-149.04 210.96,-149.73 211.28,-150.40 211.64,-151.05 212.02,-151.68 212.45,-152.30 212.90,-152.89 213.38,-153.47 213.90,-154.01 214.45,-154.54 214.45,-149.34 211.89,-144.51 214.58,-144.51" fill="none" stroke="#00000000" stroke-width="1" opacity="1.0" stroke-linecap="round" stroke-linejoin="round"/><polyline points="214.58,-144.51 214.58,-140.51 211.27,-138.58 211.27,-138.58 210.90,-139.20 210.59,-139.83 210.31,-140.48 210.09,-141.14 209.91,-141.82 209.78,-142.51 209.70,-143.21 209.67,-143.92 209.70,-144.67 209.77,-145.42 209.87,-146.17 210.02,-146.90 210.20,-147.63 210.42,-148.34 210.67,-149.04 210.96,-149.73 211.28,-150.40 211.64,-151.05 212.02,-151.68 212.45,-152.30 212.90,-152.89 213.38,-153.47 213.90,-154.01 214.45,-154.54 214.45,-149.34 211.89,-144.51 214.58,-144.51" fill="none" stroke="#00000000" stroke-width="1" opacity="1.0" stroke-linecap="round" stroke-linejoin="round"/><polyline points="212.73,-131.05 212.73,-131.05 211.80,-131.57 210.92,-132.15 210.08,-132.79 209.30,-133.48 208.58,-134.23 207.91,-135.02 207.30,-135.85 206.75,-136.73 206.27,-137.64 205.85,-138.59 205.50,-139.56 205.21,-140.56 205.00,-141.58 204.86,-142.63 204.80,-143.68 204.81,-144.75 204.81,-146.85 202.57,-146.85 202.57,-144.75 202.57,-144.75 202.55,-143.48 202.63,-142.22 202.80,-140.98 203.06,-139.77 203.41,-138.58 203.85,-137.43 204.37,-136.32 204.98,-135.26 205.65,-134.24 206.41,-133.27 207.23,-132.36 208.13,-131.50 209.09,-130.72 210.12,-130.00 211.21,-129.36 212.35,-128.80 212.71,-128.67" fill="none" stroke="#00000000" stroke-width="1" opacity="1.0" stroke-linecap="round" stroke-linejoin="round"/></svg>