<svg version="1.1" xmlns="http://www.w3.org/2000/svg" viewBox="0 0 142.2342347393694 131.1981502299568" width="142.2342347393694" height="131.1981502299568">
  <!-- svg-source:excalidraw -->
  
  <defs>
    
    
  </defs>
  <g stroke-linecap="round"><g transform="translate(106.93063751120167 14.663218855367177) rotate(0 0.27002622003419674 51.41561952355801)" fill-rule="evenodd"><path d="M0.73 1.64 L28.24 51.12 L0.12 102.57 L-28.86 50.83 L-0.45 2.14" stroke="none" stroke-width="0" fill="#4285f4" fill-rule="evenodd"></path><path d="M0 0 C10.06 18.44, 18.68 37, 29.3 52.15 M0 0 C11.32 19.64, 22.64 39.4, 29.3 52.15 M29.3 52.15 C21.06 69.32, 9.03 88.68, -0.49 102.83 M29.3 52.15 C20.24 67.47, 10.54 84.13, -0.49 102.83 M-0.49 102.83 C-7.34 85.32, -16.64 69.79, -28.76 50.99 M-0.49 102.83 C-6.57 89.58, -14.89 77.18, -28.76 50.99 M-28.76 50.99 C-20.95 35.52, -10.26 18.23, -1.59 2.11 M-28.76 50.99 C-20.97 38.61, -14.83 27.76, -1.59 2.11 M-1.59 2.11 C-1.31 1.54, -0.82 1.47, 0 0 M-1.59 2.11 C-1.31 1.66, -1.02 1.37, 0 0" stroke="#1864ab" stroke-width="1" fill="none"></path></g></g><mask></mask><g stroke-linecap="round"><g transform="translate(38.66951263928013 7.2872082757421595) rotate(0 13.004368015977207 26.479636020347698)" fill-rule="evenodd"><path d="M1.85 2 L58.75 -1.19 L27.6 52.7 L-34.49 52.15 L-1.44 -1.03" stroke="none" stroke-width="0" fill="#aecbfa" fill-rule="evenodd"></path><path d="M0 0 C11.79 -1.55, 27.02 -1.92, 58.68 0.11 M0 0 C11.4 0.89, 23.5 0.86, 58.68 0.11 M58.68 0.11 C48.53 20.2, 36.61 36.42, 25.6 52.96 M58.68 0.11 C46.54 19.24, 34.24 39.2, 25.6 52.96 M25.6 52.96 C6.54 52.38, -14.41 53.19, -32.67 52.63 M25.6 52.96 C3.97 52.91, -16.54 52.85, -32.67 52.63 M-32.67 52.63 C-22.38 39.25, -11.66 23.43, 0 0 M-32.67 52.63 C-24.66 38.37, -15.94 26.05, 0 0 M0 0 C0 0, 0 0, 0 0 M0 0 C0 0, 0 0, 0 0" stroke="#669df6" stroke-width="1" fill="none"></path></g></g><mask></mask><g stroke-linecap="round"><g transform="translate(64.54704809970531 72.94374394028455) rotate(0 -12.853373543160842 25.879006307633517)" fill-rule="evenodd"><path d="M-1.05 -1.01 L-59.4 -1.86 L-27.47 50.38 L31.06 51.99 L2.58 0.64" stroke="none" stroke-width="0" fill="#669df6" fill-rule="evenodd"></path><path d="M0 0 C-19.2 0.76, -39.59 -1.31, -58.2 -0.24 M0 0 C-11.96 -0.33, -25.95 -1, -58.2 -0.24 M-58.2 -0.24 C-47.87 17.38, -36.72 34.23, -26.27 51.93 M-58.2 -0.24 C-45.86 18.18, -36.28 35.18, -26.27 51.93 M-26.27 51.93 C-13.25 52.37, -3.51 52.23, 32.49 52 M-26.27 51.93 C-10.19 52.53, 5.1 52.15, 32.49 52 M32.49 52 C20.44 33.68, 8.77 14.89, 1.43 1.19 M32.49 52 C26.5 40.66, 18.24 29.3, 1.43 1.19 M1.43 1.19 C1.18 0.81, 0.45 0.38, 0 0 M1.43 1.19 C0.95 0.67, 0.37 0.29, 0 0" stroke="#1864ab" stroke-width="1" fill="none"></path></g></g><mask></mask></svg>