<svg version="1.1" xmlns="http://www.w3.org/2000/svg" viewBox="0 0 172 84" width="172" height="84">
  <!-- svg-source:excalidraw -->
  
  <defs>
    
    
  </defs>
  <g stroke-linecap="round" transform="translate(6 6) rotate(0 80 36)"><path d="M18 0 C48.21 0, 78.42 0, 142 0 C154 0, 160 6, 160 18 C160 28.94, 160 39.88, 160 54 C160 66, 154 72, 142 72 C93.97 72, 45.95 72, 18 72 C6 72, 0 66, 0 54 C0 43, 0 32.01, 0 18 C0 6, 6 0, 18 0" stroke="none" stroke-width="0" fill="#FFF"></path><path d="M18 0 C48.37 0, 78.75 0, 142 0 M18 0 C49.98 0, 81.97 0, 142 0 M142 0 C154 0, 160 6, 160 18 M142 0 C154 0, 160 6, 160 18 M160 18 C160 26.13, 160 34.25, 160 54 M160 18 C160 27.36, 160 36.73, 160 54 M160 54 C160 66, 154 72, 142 72 M160 54 C160 66, 154 72, 142 72 M142 72 C113.98 72, 85.95 72, 18 72 M142 72 C107.4 72, 72.8 72, 18 72 M18 72 C6 72, 0 66, 0 54 M18 72 C6 72, 0 66, 0 54 M0 54 C0 44.04, 0 34.08, 0 18 M0 54 C0 45.8, 0 37.6, 0 18 M0 18 C0 6, 6 0, 18 0 M0 18 C0 6, 6 0, 18 0" stroke="#4285f4" stroke-width="2" fill="none"></path></g><g transform="translate(71 35) rotate(0 35 7)"><text x="0" y="0" font-family="Helvetica, Segoe UI Emoji" font-size="12px" fill="#000000" text-anchor="start" style="white-space: pre;" direction="ltr" dominant-baseline="text-before-edge">Document AI</text></g><g stroke-linecap="round"><g transform="translate(38.36046504974365 27.674418568611145) rotate(0 -5.455813884735107 14.186046063899994)" fill-rule="evenodd"><path d="M0 0 L0 3.27 L-7.64 3.27 L-7.64 25.1 L0 25.1 L0 28.37 L-8.33 28.37 L-8.33 28.37 L-8.59 28.36 L-8.83 28.32 L-9.07 28.25 L-9.3 28.17 L-9.52 28.05 L-9.73 27.92 L-9.92 27.77 L-10.1 27.6 L-10.27 27.41 L-10.41 27.21 L-10.55 26.99 L-10.66 26.76 L-10.75 26.51 L-10.83 26.26 L-10.88 25.99 L-10.91 25.72 L-10.91 25.53 L-10.91 2.84 L-10.91 2.84 L-10.9 2.55 L-10.86 2.27 L-10.79 2 L-10.71 1.74 L-10.6 1.49 L-10.47 1.25 L-10.32 1.04 L-10.15 0.83 L-9.97 0.65 L-9.77 0.49 L-9.55 0.34 L-9.33 0.22 L-9.09 0.13 L-8.84 0.06 L-8.58 0.01 L-8.32 0 L0 0 L0 0" stroke="none" stroke-width="0" fill="#0677f2" fill-rule="evenodd"></path><path d="M0 0 C0 1.21, 0 2.42, 0 3.27 M0 0 C0 1.03, 0 2.06, 0 3.27 M0 3.27 C-1.53 3.27, -3.06 3.27, -7.64 3.27 M0 3.27 C-1.56 3.27, -3.12 3.27, -7.64 3.27 M-7.64 3.27 C-7.64 11.16, -7.64 19.04, -7.64 25.1 M-7.64 3.27 C-7.64 10.33, -7.64 17.38, -7.64 25.1 M-7.64 25.1 C-5.91 25.1, -4.19 25.1, 0 25.1 M-7.64 25.1 C-5.51 25.1, -3.38 25.1, 0 25.1 M0 25.1 C0 26.13, 0 27.16, 0 28.37 M0 25.1 C0 26.16, 0 27.22, 0 28.37 M0 28.37 C-2.44 28.37, -4.88 28.37, -8.33 28.37 M0 28.37 C-1.71 28.37, -3.42 28.37, -8.33 28.37 M-8.33 28.37 C-8.33 28.37, -8.33 28.37, -8.33 28.37 M-8.33 28.37 C-8.33 28.37, -8.33 28.37, -8.33 28.37 M-8.33 28.37 C-8.43 28.37, -8.52 28.36, -8.59 28.36 M-8.33 28.37 C-8.43 28.37, -8.52 28.36, -8.59 28.36 M-8.59 28.36 C-8.65 28.35, -8.72 28.34, -8.83 28.32 M-8.59 28.36 C-8.66 28.35, -8.74 28.33, -8.83 28.32 M-8.83 28.32 C-8.92 28.29, -9.01 28.27, -9.07 28.25 M-8.83 28.32 C-8.93 28.29, -9.02 28.27, -9.07 28.25 M-9.07 28.25 C-9.14 28.23, -9.22 28.2, -9.3 28.17 M-9.07 28.25 C-9.15 28.22, -9.24 28.19, -9.3 28.17 M-9.3 28.17 C-9.38 28.13, -9.46 28.09, -9.52 28.05 M-9.3 28.17 C-9.35 28.14, -9.41 28.11, -9.52 28.05 M-9.52 28.05 C-9.57 28.02, -9.63 27.99, -9.73 27.92 M-9.52 28.05 C-9.59 28.01, -9.67 27.96, -9.73 27.92 M-9.73 27.92 C-9.79 27.87, -9.85 27.82, -9.92 27.77 M-9.73 27.92 C-9.79 27.87, -9.85 27.82, -9.92 27.77 M-9.92 27.77 C-9.97 27.72, -10.02 27.68, -10.1 27.6 M-9.92 27.77 C-9.97 27.73, -10.01 27.68, -10.1 27.6 M-10.1 27.6 C-10.17 27.52, -10.23 27.45, -10.27 27.41 M-10.1 27.6 C-10.16 27.53, -10.22 27.46, -10.27 27.41 M-10.27 27.41 C-10.32 27.34, -10.37 27.27, -10.41 27.21 M-10.27 27.41 C-10.33 27.33, -10.38 27.25, -10.41 27.21 M-10.41 27.21 C-10.45 27.15, -10.48 27.1, -10.55 26.99 M-10.41 27.21 C-10.46 27.13, -10.51 27.04, -10.55 26.99 M-10.55 26.99 C-10.57 26.93, -10.6 26.88, -10.66 26.76 M-10.55 26.99 C-10.57 26.94, -10.6 26.88, -10.66 26.76 M-10.66 26.76 C-10.68 26.7, -10.71 26.63, -10.75 26.51 M-10.66 26.76 C-10.68 26.7, -10.71 26.64, -10.75 26.51 M-10.75 26.51 C-10.78 26.43, -10.8 26.35, -10.83 26.26 M-10.75 26.51 C-10.78 26.42, -10.81 26.32, -10.83 26.26 M-10.83 26.26 C-10.85 26.16, -10.87 26.06, -10.88 25.99 M-10.83 26.26 C-10.85 26.17, -10.86 26.07, -10.88 25.99 M-10.88 25.99 C-10.89 25.91, -10.9 25.82, -10.91 25.72 M-10.88 25.99 C-10.89 25.9, -10.9 25.8, -10.91 25.72 M-10.91 25.72 C-10.91 25.67, -10.91 25.63, -10.91 25.53 M-10.91 25.72 C-10.91 25.65, -10.91 25.58, -10.91 25.53 M-10.91 25.53 C-10.91 17.08, -10.91 8.62, -10.91 2.84 M-10.91 25.53 C-10.91 19.33, -10.91 13.12, -10.91 2.84 M-10.91 2.84 C-10.91 2.84, -10.91 2.84, -10.91 2.84 M-10.91 2.84 C-10.91 2.84, -10.91 2.84, -10.91 2.84 M-10.91 2.84 C-10.91 2.73, -10.9 2.62, -10.9 2.55 M-10.91 2.84 C-10.91 2.75, -10.9 2.65, -10.9 2.55 M-10.9 2.55 C-10.89 2.46, -10.87 2.37, -10.86 2.27 M-10.9 2.55 C-10.89 2.46, -10.87 2.37, -10.86 2.27 M-10.86 2.27 C-10.84 2.2, -10.83 2.13, -10.79 2 M-10.86 2.27 C-10.84 2.19, -10.82 2.12, -10.79 2 M-10.79 2 C-10.77 1.91, -10.74 1.83, -10.71 1.74 M-10.79 2 C-10.78 1.94, -10.76 1.89, -10.71 1.74 M-10.71 1.74 C-10.68 1.67, -10.65 1.61, -10.6 1.49 M-10.71 1.74 C-10.68 1.68, -10.66 1.63, -10.6 1.49 M-10.6 1.49 C-10.55 1.41, -10.51 1.33, -10.47 1.25 M-10.6 1.49 C-10.57 1.44, -10.54 1.39, -10.47 1.25 M-10.47 1.25 C-10.42 1.19, -10.38 1.13, -10.32 1.04 M-10.47 1.25 C-10.44 1.21, -10.41 1.17, -10.32 1.04 M-10.32 1.04 C-10.26 0.97, -10.21 0.9, -10.15 0.83 M-10.32 1.04 C-10.28 0.99, -10.25 0.95, -10.15 0.83 M-10.15 0.83 C-10.08 0.76, -10.01 0.69, -9.97 0.65 M-10.15 0.83 C-10.08 0.76, -10.01 0.69, -9.97 0.65 M-9.97 0.65 C-9.89 0.59, -9.82 0.53, -9.77 0.49 M-9.97 0.65 C-9.91 0.61, -9.86 0.57, -9.77 0.49 M-9.77 0.49 C-9.68 0.43, -9.6 0.37, -9.55 0.34 M-9.77 0.49 C-9.7 0.44, -9.63 0.4, -9.55 0.34 M-9.55 0.34 C-9.49 0.31, -9.42 0.28, -9.33 0.22 M-9.55 0.34 C-9.5 0.32, -9.46 0.29, -9.33 0.22 M-9.33 0.22 C-9.25 0.19, -9.16 0.16, -9.09 0.13 M-9.33 0.22 C-9.23 0.19, -9.14 0.15, -9.09 0.13 M-9.09 0.13 C-9.03 0.11, -8.97 0.1, -8.84 0.06 M-9.09 0.13 C-9.02 0.11, -8.95 0.09, -8.84 0.06 M-8.84 0.06 C-8.78 0.05, -8.71 0.04, -8.58 0.01 M-8.84 0.06 C-8.77 0.05, -8.7 0.03, -8.58 0.01 M-8.58 0.01 C-8.5 0.01, -8.41 0.01, -8.32 0 M-8.58 0.01 C-8.5 0.01, -8.41 0.01, -8.32 0 M-8.32 0 C-5.81 0, -3.3 0, 0 0 M-8.32 0 C-6.44 0, -4.55 0, 0 0 M0 0 C0 0, 0 0, 0 0 M0 0 C0 0, 0 0, 0 0 M0 0 C0 0, 0 0, 0 0 M0 0 C0 0, 0 0, 0 0" stroke="#00000000" stroke-width="1" fill="none"></path></g></g><mask></mask><g stroke-linecap="round"><g transform="translate(32.90465068817139 47.3162784576416) rotate(0 2.727907180786133 1.6372098922729492)" fill-rule="evenodd"><path d="M0 0 L5.46 0 L5.46 3.27 L0 3.27 L0 0 L0 0" stroke="none" stroke-width="0" fill="#0677f2" fill-rule="evenodd"></path><path d="M0 0 C1.42 0, 2.83 0, 5.46 0 M0 0 C1.3 0, 2.6 0, 5.46 0 M5.46 0 C5.46 0.78, 5.46 1.57, 5.46 3.27 M5.46 0 C5.46 1.1, 5.46 2.21, 5.46 3.27 M5.46 3.27 C4.34 3.27, 3.22 3.27, 0 3.27 M5.46 3.27 C3.32 3.27, 1.18 3.27, 0 3.27 M0 3.27 C0 1.99, 0 0.7, 0 0 M0 3.27 C0 2.41, 0 1.54, 0 0 M0 0 C0 0, 0 0, 0 0 M0 0 C0 0, 0 0, 0 0 M0 0 C0 0, 0 0, 0 0 M0 0 C0 0, 0 0, 0 0" stroke="#00000000" stroke-width="1" fill="none"></path></g></g><mask></mask><g stroke-linecap="round"><g transform="translate(32.90465068817139 41.86046504974365) rotate(0 2.727907180786133 1.637209415435791)" fill-rule="evenodd"><path d="M0 0 L5.46 0 L5.46 3.27 L0 3.27 L0 0 L0 0" stroke="none" stroke-width="0" fill="#0677f2" fill-rule="evenodd"></path><path d="M0 0 C1.51 0, 3.01 0, 5.46 0 M0 0 C1.84 0, 3.68 0, 5.46 0 M5.46 0 C5.46 1.24, 5.46 2.47, 5.46 3.27 M5.46 0 C5.46 0.71, 5.46 1.42, 5.46 3.27 M5.46 3.27 C3.85 3.27, 2.24 3.27, 0 3.27 M5.46 3.27 C3.98 3.27, 2.5 3.27, 0 3.27 M0 3.27 C0 2.44, 0 1.6, 0 0 M0 3.27 C0 2.27, 0 1.27, 0 0 M0 0 C0 0, 0 0, 0 0 M0 0 C0 0, 0 0, 0 0 M0 0 C0 0, 0 0, 0 0 M0 0 C0 0, 0 0, 0 0" stroke="#00000000" stroke-width="1" fill="none"></path></g></g><mask></mask><g stroke-linecap="round"><g transform="translate(32.90465068817139 36.40465068817139) rotate(0 2.727907180786133 1.6372098922729492)" fill-rule="evenodd"><path d="M0 0 L5.46 0 L5.46 3.27 L0 3.27 L0 0 L0 0" stroke="none" stroke-width="0" fill="#0677f2" fill-rule="evenodd"></path><path d="M0 0 C1.81 0, 3.63 0, 5.46 0 M0 0 C2.09 0, 4.18 0, 5.46 0 M5.46 0 C5.46 0.81, 5.46 1.62, 5.46 3.27 M5.46 0 C5.46 0.94, 5.46 1.87, 5.46 3.27 M5.46 3.27 C3.72 3.27, 1.98 3.27, 0 3.27 M5.46 3.27 C3.94 3.27, 2.42 3.27, 0 3.27 M0 3.27 C0 2.39, 0 1.51, 0 0 M0 3.27 C0 2.42, 0 1.57, 0 0 M0 0 C0 0, 0 0, 0 0 M0 0 C0 0, 0 0, 0 0 M0 0 C0 0, 0 0, 0 0 M0 0 C0 0, 0 0, 0 0" stroke="#00000000" stroke-width="1" fill="none"></path></g></g><mask></mask><g stroke-linecap="round"><g transform="translate(45.927907943725586 51.753488540649414) rotate(0 -2.106978416442871 -0.0354156494140625)" fill-rule="evenodd"><path d="M0 0 L0 0 L0 -0.24 L0 -0.48 L-0.01 -0.7 L-0.02 -0.91 L-0.03 -1.12 L-0.05 -1.31 L-0.07 -1.49 L-0.1 -1.67 L-0.13 -1.83 L-0.18 -1.98 L-0.22 -2.13 L-0.28 -2.27 L-0.34 -2.39 L-0.42 -2.51 L-0.5 -2.62 L-0.59 -2.72 L-0.7 -2.82 L-0.82 -2.91 L-0.95 -2.99 L-1.09 -3.05 L-1.24 -3.1 L-1.4 -3.15 L-1.57 -3.19 L-1.75 -3.21 L-1.95 -3.24 L-2.15 -3.25 L-2.38 -3.26 L-2.61 -3.27 L-2.87 -3.27 L-3.13 -3.27 L-3.42 -3.27 L-3.72 -3.27 L-3.94 -3.26 L-4.17 -3.26 L-4.66 -3.26 L-5.38 -3.26 L-5.38 -2.31 L-4.66 -2.31 L-4.66 -2.31 L-4.4 -2.31 L-4.16 -2.31 L-3.93 -2.32 L-3.71 -2.32 L-3.46 -2.32 L-3.23 -2.33 L-3.01 -2.33 L-2.8 -2.33 L-2.6 -2.32 L-2.42 -2.32 L-2.25 -2.31 L-2.09 -2.3 L-1.94 -2.29 L-1.81 -2.27 L-1.69 -2.25 L-1.58 -2.22 L-1.48 -2.19 L-1.39 -2.15 L-1.32 -2.11 L-1.26 -2.06 L-1.22 -2 L-1.17 -1.94 L-1.14 -1.87 L-1.11 -1.79 L-1.08 -1.7 L-1.05 -1.59 L-1.03 -1.48 L-1.01 -1.36 L-0.99 -1.23 L-0.98 -1.08 L-0.97 -0.93 L-0.96 -0.77 L-0.95 -0.59 L-0.95 -0.41 L-0.94 -0.21 L-0.94 0 L-1.07 0.04 L-1.19 0.09 L-1.3 0.15 L-1.41 0.22 L-1.51 0.3 L-1.61 0.39 L-1.7 0.48 L-1.78 0.58 L-1.85 0.68 L-1.92 0.8 L-1.97 0.91 L-2.02 1.03 L-2.06 1.16 L-2.08 1.29 L-2.1 1.43 L-2.11 1.56 L-2.1 1.73 L-2.07 1.89 L-2.03 2.05 L-1.98 2.2 L-1.91 2.34 L-1.83 2.48 L-1.73 2.6 L-1.63 2.72 L-1.51 2.83 L-1.38 2.92 L-1.25 3 L-1.11 3.07 L-0.96 3.13 L-0.8 3.17 L-0.64 3.19 L-0.47 3.2 L-0.3 3.19 L-0.14 3.17 L0.02 3.13 L0.17 3.07 L0.31 3 L0.44 2.92 L0.57 2.83 L0.69 2.72 L0.79 2.6 L0.89 2.48 L0.97 2.34 L1.04 2.2 L1.09 2.05 L1.13 1.89 L1.16 1.73 L1.17 1.56 L1.16 1.43 L1.14 1.29 L1.12 1.16 L1.08 1.03 L1.03 0.91 L0.97 0.8 L0.91 0.68 L0.83 0.58 L0.75 0.48 L0.66 0.39 L0.57 0.3 L0.46 0.22 L0.36 0.16 L0.24 0.09 L0.12 0.04 L0 0 L0 0" stroke="none" stroke-width="0" fill="#0677f2" fill-rule="evenodd"></path><path d="M0 0 C0 0, 0 0, 0 0 M0 0 C0 0, 0 0, 0 0 M0 0 C0 -0.07, 0 -0.14, 0 -0.24 M0 0 C0 -0.07, 0 -0.14, 0 -0.24 M0 -0.24 C0 -0.3, 0 -0.36, 0 -0.48 M0 -0.24 C0 -0.3, 0 -0.36, 0 -0.48 M0 -0.48 C0 -0.54, -0.01 -0.6, -0.01 -0.7 M0 -0.48 C0 -0.54, -0.01 -0.61, -0.01 -0.7 M-0.01 -0.7 C-0.01 -0.76, -0.01 -0.83, -0.02 -0.91 M-0.01 -0.7 C-0.01 -0.77, -0.01 -0.84, -0.02 -0.91 M-0.02 -0.91 C-0.02 -0.98, -0.03 -1.06, -0.03 -1.12 M-0.02 -0.91 C-0.02 -0.97, -0.03 -1.03, -0.03 -1.12 M-0.03 -1.12 C-0.04 -1.16, -0.04 -1.21, -0.05 -1.31 M-0.03 -1.12 C-0.04 -1.17, -0.04 -1.23, -0.05 -1.31 M-0.05 -1.31 C-0.05 -1.35, -0.06 -1.39, -0.07 -1.49 M-0.05 -1.31 C-0.06 -1.37, -0.06 -1.43, -0.07 -1.49 M-0.07 -1.49 C-0.08 -1.55, -0.09 -1.61, -0.1 -1.67 M-0.07 -1.49 C-0.08 -1.55, -0.09 -1.61, -0.1 -1.67 M-0.1 -1.67 C-0.11 -1.7, -0.12 -1.74, -0.13 -1.83 M-0.1 -1.67 C-0.11 -1.73, -0.13 -1.78, -0.13 -1.83 M-0.13 -1.83 C-0.14 -1.87, -0.15 -1.9, -0.18 -1.98 M-0.13 -1.83 C-0.14 -1.86, -0.15 -1.9, -0.18 -1.98 M-0.18 -1.98 C-0.19 -2.03, -0.21 -2.08, -0.22 -2.13 M-0.18 -1.98 C-0.19 -2.02, -0.2 -2.05, -0.22 -2.13 M-0.22 -2.13 C-0.24 -2.18, -0.26 -2.23, -0.28 -2.27 M-0.22 -2.13 C-0.24 -2.16, -0.25 -2.19, -0.28 -2.27 M-0.28 -2.27 C-0.29 -2.29, -0.31 -2.32, -0.34 -2.39 M-0.28 -2.27 C-0.3 -2.3, -0.31 -2.33, -0.34 -2.39 M-0.34 -2.39 C-0.37 -2.44, -0.4 -2.48, -0.42 -2.51 M-0.34 -2.39 C-0.36 -2.42, -0.38 -2.45, -0.42 -2.51 M-0.42 -2.51 C-0.44 -2.54, -0.46 -2.57, -0.5 -2.62 M-0.42 -2.51 C-0.44 -2.54, -0.46 -2.56, -0.5 -2.62 M-0.5 -2.62 C-0.52 -2.64, -0.54 -2.67, -0.59 -2.72 M-0.5 -2.62 C-0.53 -2.66, -0.56 -2.69, -0.59 -2.72 M-0.59 -2.72 C-0.61 -2.74, -0.64 -2.76, -0.7 -2.82 M-0.59 -2.72 C-0.63 -2.75, -0.66 -2.79, -0.7 -2.82 M-0.7 -2.82 C-0.75 -2.85, -0.79 -2.89, -0.82 -2.91 M-0.7 -2.82 C-0.74 -2.85, -0.78 -2.88, -0.82 -2.91 M-0.82 -2.91 C-0.87 -2.94, -0.91 -2.96, -0.95 -2.99 M-0.82 -2.91 C-0.86 -2.93, -0.89 -2.95, -0.95 -2.99 M-0.95 -2.99 C-1 -3.01, -1.04 -3.03, -1.09 -3.05 M-0.95 -2.99 C-0.98 -3, -1.01 -3.01, -1.09 -3.05 M-1.09 -3.05 C-1.13 -3.07, -1.17 -3.08, -1.24 -3.1 M-1.09 -3.05 C-1.14 -3.07, -1.2 -3.09, -1.24 -3.1 M-1.24 -3.1 C-1.29 -3.12, -1.34 -3.13, -1.4 -3.15 M-1.24 -3.1 C-1.3 -3.12, -1.36 -3.14, -1.4 -3.15 M-1.4 -3.15 C-1.46 -3.16, -1.52 -3.18, -1.57 -3.19 M-1.4 -3.15 C-1.46 -3.16, -1.53 -3.18, -1.57 -3.19 M-1.57 -3.19 C-1.62 -3.19, -1.67 -3.2, -1.75 -3.21 M-1.57 -3.19 C-1.63 -3.2, -1.7 -3.21, -1.75 -3.21 M-1.75 -3.21 C-1.8 -3.22, -1.85 -3.23, -1.95 -3.24 M-1.75 -3.21 C-1.79 -3.22, -1.83 -3.22, -1.95 -3.24 M-1.95 -3.24 C-2.02 -3.24, -2.09 -3.25, -2.15 -3.25 M-1.95 -3.24 C-2 -3.24, -2.05 -3.24, -2.15 -3.25 M-2.15 -3.25 C-2.2 -3.25, -2.25 -3.26, -2.38 -3.26 M-2.15 -3.25 C-2.23 -3.26, -2.31 -3.26, -2.38 -3.26 M-2.38 -3.26 C-2.44 -3.26, -2.49 -3.27, -2.61 -3.27 M-2.38 -3.26 C-2.43 -3.26, -2.48 -3.26, -2.61 -3.27 M-2.61 -3.27 C-2.7 -3.27, -2.79 -3.27, -2.87 -3.27 M-2.61 -3.27 C-2.68 -3.27, -2.75 -3.27, -2.87 -3.27 M-2.87 -3.27 C-2.94 -3.27, -3.02 -3.27, -3.13 -3.27 M-2.87 -3.27 C-2.93 -3.27, -2.99 -3.27, -3.13 -3.27 M-3.13 -3.27 C-3.24 -3.27, -3.35 -3.27, -3.42 -3.27 M-3.13 -3.27 C-3.21 -3.27, -3.3 -3.27, -3.42 -3.27 M-3.42 -3.27 C-3.52 -3.27, -3.63 -3.27, -3.72 -3.27 M-3.42 -3.27 C-3.52 -3.27, -3.63 -3.27, -3.72 -3.27 M-3.72 -3.27 C-3.79 -3.26, -3.87 -3.26, -3.94 -3.26 M-3.72 -3.27 C-3.77 -3.26, -3.82 -3.26, -3.94 -3.26 M-3.94 -3.26 C-4.02 -3.26, -4.11 -3.26, -4.17 -3.26 M-3.94 -3.26 C-3.99 -3.26, -4.05 -3.26, -4.17 -3.26 M-4.17 -3.26 C-4.36 -3.26, -4.55 -3.26, -4.66 -3.26 M-4.17 -3.26 C-4.36 -3.26, -4.55 -3.26, -4.66 -3.26 M-4.66 -3.26 C-4.91 -3.26, -5.17 -3.26, -5.38 -3.26 M-4.66 -3.26 C-4.82 -3.26, -4.98 -3.26, -5.38 -3.26 M-5.38 -3.26 C-5.38 -3.06, -5.38 -2.87, -5.38 -2.31 M-5.38 -3.26 C-5.38 -2.89, -5.38 -2.53, -5.38 -2.31 M-5.38 -2.31 C-5.1 -2.31, -4.81 -2.31, -4.66 -2.31 M-5.38 -2.31 C-5.21 -2.31, -5.04 -2.31, -4.66 -2.31 M-4.66 -2.31 C-4.66 -2.31, -4.66 -2.31, -4.66 -2.31 M-4.66 -2.31 C-4.66 -2.31, -4.66 -2.31, -4.66 -2.31 M-4.66 -2.31 C-4.58 -2.31, -4.5 -2.31, -4.4 -2.31 M-4.66 -2.31 C-4.58 -2.31, -4.51 -2.31, -4.4 -2.31 M-4.4 -2.31 C-4.34 -2.31, -4.27 -2.31, -4.16 -2.31 M-4.4 -2.31 C-4.34 -2.31, -4.29 -2.31, -4.16 -2.31 M-4.16 -2.31 C-4.08 -2.32, -4 -2.32, -3.93 -2.32 M-4.16 -2.31 C-4.07 -2.32, -3.98 -2.32, -3.93 -2.32 M-3.93 -2.32 C-3.88 -2.32, -3.84 -2.32, -3.71 -2.32 M-3.93 -2.32 C-3.85 -2.32, -3.78 -2.32, -3.71 -2.32 M-3.71 -2.32 C-3.63 -2.32, -3.56 -2.32, -3.46 -2.32 M-3.71 -2.32 C-3.65 -2.32, -3.6 -2.32, -3.46 -2.32 M-3.46 -2.32 C-3.4 -2.32, -3.34 -2.32, -3.23 -2.33 M-3.46 -2.32 C-3.38 -2.32, -3.31 -2.32, -3.23 -2.33 M-3.23 -2.33 C-3.14 -2.33, -3.06 -2.33, -3.01 -2.33 M-3.23 -2.33 C-3.17 -2.33, -3.1 -2.33, -3.01 -2.33 M-3.01 -2.33 C-2.96 -2.33, -2.9 -2.33, -2.8 -2.33 M-3.01 -2.33 C-2.95 -2.33, -2.9 -2.33, -2.8 -2.33 M-2.8 -2.33 C-2.73 -2.33, -2.65 -2.32, -2.6 -2.32 M-2.8 -2.33 C-2.73 -2.33, -2.66 -2.32, -2.6 -2.32 M-2.6 -2.32 C-2.56 -2.32, -2.51 -2.32, -2.42 -2.32 M-2.6 -2.32 C-2.56 -2.32, -2.52 -2.32, -2.42 -2.32 M-2.42 -2.32 C-2.38 -2.32, -2.34 -2.32, -2.25 -2.31 M-2.42 -2.32 C-2.36 -2.32, -2.3 -2.31, -2.25 -2.31 M-2.25 -2.31 C-2.19 -2.31, -2.14 -2.3, -2.09 -2.3 M-2.25 -2.31 C-2.2 -2.31, -2.15 -2.31, -2.09 -2.3 M-2.09 -2.3 C-2.04 -2.3, -1.99 -2.29, -1.94 -2.29 M-2.09 -2.3 C-2.03 -2.3, -1.98 -2.29, -1.94 -2.29 M-1.94 -2.29 C-1.9 -2.28, -1.86 -2.28, -1.81 -2.27 M-1.94 -2.29 C-1.9 -2.28, -1.85 -2.28, -1.81 -2.27 M-1.81 -2.27 C-1.78 -2.27, -1.75 -2.26, -1.69 -2.25 M-1.81 -2.27 C-1.78 -2.26, -1.75 -2.26, -1.69 -2.25 M-1.69 -2.25 C-1.66 -2.24, -1.63 -2.23, -1.58 -2.22 M-1.69 -2.25 C-1.65 -2.24, -1.61 -2.23, -1.58 -2.22 M-1.58 -2.22 C-1.56 -2.21, -1.54 -2.21, -1.48 -2.19 M-1.58 -2.22 C-1.55 -2.21, -1.52 -2.2, -1.48 -2.19 M-1.48 -2.19 C-1.46 -2.18, -1.43 -2.17, -1.39 -2.15 M-1.48 -2.19 C-1.46 -2.18, -1.43 -2.17, -1.39 -2.15 M-1.39 -2.15 C-1.38 -2.14, -1.36 -2.13, -1.32 -2.11 M-1.39 -2.15 C-1.38 -2.14, -1.36 -2.13, -1.32 -2.11 M-1.32 -2.11 C-1.3 -2.09, -1.28 -2.07, -1.26 -2.06 M-1.32 -2.11 C-1.3 -2.09, -1.27 -2.07, -1.26 -2.06 M-1.26 -2.06 C-1.25 -2.04, -1.23 -2.02, -1.22 -2 M-1.26 -2.06 C-1.25 -2.04, -1.24 -2.03, -1.22 -2 M-1.22 -2 C-1.2 -1.98, -1.19 -1.96, -1.17 -1.94 M-1.22 -2 C-1.21 -1.99, -1.2 -1.97, -1.17 -1.94 M-1.17 -1.94 C-1.17 -1.92, -1.16 -1.91, -1.14 -1.87 M-1.17 -1.94 C-1.17 -1.93, -1.16 -1.91, -1.14 -1.87 M-1.14 -1.87 C-1.13 -1.85, -1.12 -1.83, -1.11 -1.79 M-1.14 -1.87 C-1.13 -1.84, -1.12 -1.81, -1.11 -1.79 M-1.11 -1.79 C-1.1 -1.77, -1.09 -1.74, -1.08 -1.7 M-1.11 -1.79 C-1.1 -1.76, -1.09 -1.73, -1.08 -1.7 M-1.08 -1.7 C-1.07 -1.66, -1.06 -1.63, -1.05 -1.59 M-1.08 -1.7 C-1.07 -1.66, -1.06 -1.62, -1.05 -1.59 M-1.05 -1.59 C-1.04 -1.55, -1.03 -1.51, -1.03 -1.48 M-1.05 -1.59 C-1.04 -1.56, -1.04 -1.52, -1.03 -1.48 M-1.03 -1.48 C-1.02 -1.45, -1.02 -1.42, -1.01 -1.36 M-1.03 -1.48 C-1.02 -1.44, -1.01 -1.39, -1.01 -1.36 M-1.01 -1.36 C-1 -1.32, -1 -1.28, -0.99 -1.23 M-1.01 -1.36 C-1 -1.32, -1 -1.28, -0.99 -1.23 M-0.99 -1.23 C-0.99 -1.17, -0.98 -1.12, -0.98 -1.08 M-0.99 -1.23 C-0.99 -1.19, -0.98 -1.15, -0.98 -1.08 M-0.98 -1.08 C-0.98 -1.05, -0.97 -1.02, -0.97 -0.93 M-0.98 -1.08 C-0.98 -1.04, -0.97 -1, -0.97 -0.93 M-0.97 -0.93 C-0.97 -0.9, -0.96 -0.86, -0.96 -0.77 M-0.97 -0.93 C-0.96 -0.88, -0.96 -0.83, -0.96 -0.77 M-0.96 -0.77 C-0.96 -0.71, -0.95 -0.65, -0.95 -0.59 M-0.96 -0.77 C-0.96 -0.73, -0.96 -0.69, -0.95 -0.59 M-0.95 -0.59 C-0.95 -0.55, -0.95 -0.5, -0.95 -0.41 M-0.95 -0.59 C-0.95 -0.53, -0.95 -0.48, -0.95 -0.41 M-0.95 -0.41 C-0.95 -0.34, -0.95 -0.28, -0.94 -0.21 M-0.95 -0.41 C-0.95 -0.36, -0.95 -0.31, -0.94 -0.21 M-0.94 -0.21 C-0.94 -0.13, -0.94 -0.06, -0.94 0 M-0.94 -0.21 C-0.94 -0.14, -0.94 -0.07, -0.94 0 M-0.94 0 C-0.98 0.01, -1.02 0.02, -1.07 0.04 M-0.94 0 C-0.97 0, -1 0.01, -1.07 0.04 M-1.07 0.04 C-1.09 0.05, -1.12 0.06, -1.19 0.09 M-1.07 0.04 C-1.1 0.05, -1.12 0.06, -1.19 0.09 M-1.19 0.09 C-1.22 0.11, -1.25 0.12, -1.3 0.15 M-1.19 0.09 C-1.22 0.11, -1.24 0.12, -1.3 0.15 M-1.3 0.15 C-1.34 0.18, -1.37 0.2, -1.41 0.22 M-1.3 0.15 C-1.34 0.18, -1.38 0.21, -1.41 0.22 M-1.41 0.22 C-1.45 0.25, -1.48 0.28, -1.51 0.3 M-1.41 0.22 C-1.45 0.25, -1.48 0.28, -1.51 0.3 M-1.51 0.3 C-1.55 0.33, -1.59 0.37, -1.61 0.39 M-1.51 0.3 C-1.55 0.33, -1.59 0.37, -1.61 0.39 M-1.61 0.39 C-1.64 0.42, -1.67 0.45, -1.7 0.48 M-1.61 0.39 C-1.64 0.41, -1.66 0.44, -1.7 0.48 M-1.7 0.48 C-1.72 0.5, -1.74 0.53, -1.78 0.58 M-1.7 0.48 C-1.72 0.5, -1.74 0.53, -1.78 0.58 M-1.78 0.58 C-1.81 0.62, -1.83 0.66, -1.85 0.68 M-1.78 0.58 C-1.81 0.62, -1.84 0.66, -1.85 0.68 M-1.85 0.68 C-1.87 0.71, -1.88 0.73, -1.92 0.8 M-1.85 0.68 C-1.88 0.72, -1.9 0.76, -1.92 0.8 M-1.92 0.8 C-1.94 0.84, -1.96 0.88, -1.97 0.91 M-1.92 0.8 C-1.93 0.83, -1.95 0.86, -1.97 0.91 M-1.97 0.91 C-1.99 0.94, -2 0.98, -2.02 1.03 M-1.97 0.91 C-1.99 0.95, -2 0.98, -2.02 1.03 M-2.02 1.03 C-2.03 1.08, -2.05 1.12, -2.06 1.16 M-2.02 1.03 C-2.03 1.07, -2.04 1.11, -2.06 1.16 M-2.06 1.16 C-2.07 1.21, -2.08 1.26, -2.08 1.29 M-2.06 1.16 C-2.07 1.21, -2.08 1.26, -2.08 1.29 M-2.08 1.29 C-2.09 1.33, -2.09 1.36, -2.1 1.43 M-2.08 1.29 C-2.09 1.34, -2.1 1.4, -2.1 1.43 M-2.1 1.43 C-2.1 1.47, -2.1 1.51, -2.11 1.56 M-2.1 1.43 C-2.1 1.45, -2.1 1.48, -2.11 1.56 M-2.11 1.56 C-2.11 1.6, -2.1 1.63, -2.1 1.73 M-2.11 1.56 C-2.11 1.6, -2.1 1.63, -2.1 1.73 M-2.1 1.73 C-2.09 1.77, -2.09 1.8, -2.07 1.89 M-2.1 1.73 C-2.09 1.78, -2.08 1.82, -2.07 1.89 M-2.07 1.89 C-2.07 1.92, -2.06 1.96, -2.03 2.05 M-2.07 1.89 C-2.06 1.95, -2.04 2.01, -2.03 2.05 M-2.03 2.05 C-2.02 2.1, -2 2.14, -1.98 2.2 M-2.03 2.05 C-2.01 2.1, -1.99 2.16, -1.98 2.2 M-1.98 2.2 C-1.96 2.24, -1.93 2.29, -1.91 2.34 M-1.98 2.2 C-1.95 2.26, -1.92 2.31, -1.91 2.34 M-1.91 2.34 C-1.88 2.39, -1.85 2.44, -1.83 2.48 M-1.91 2.34 C-1.88 2.39, -1.85 2.43, -1.83 2.48 M-1.83 2.48 C-1.79 2.53, -1.75 2.57, -1.73 2.6 M-1.83 2.48 C-1.79 2.52, -1.76 2.57, -1.73 2.6 M-1.73 2.6 C-1.7 2.64, -1.66 2.68, -1.63 2.72 M-1.73 2.6 C-1.7 2.64, -1.66 2.68, -1.63 2.72 M-1.63 2.72 C-1.6 2.74, -1.58 2.76, -1.51 2.83 M-1.63 2.72 C-1.6 2.75, -1.57 2.78, -1.51 2.83 M-1.51 2.83 C-1.46 2.86, -1.41 2.9, -1.38 2.92 M-1.51 2.83 C-1.48 2.85, -1.45 2.87, -1.38 2.92 M-1.38 2.92 C-1.36 2.94, -1.33 2.95, -1.25 3 M-1.38 2.92 C-1.35 2.94, -1.31 2.97, -1.25 3 M-1.25 3 C-1.19 3.03, -1.14 3.06, -1.11 3.07 M-1.25 3 C-1.2 3.03, -1.15 3.05, -1.11 3.07 M-1.11 3.07 C-1.05 3.09, -1 3.11, -0.96 3.13 M-1.11 3.07 C-1.07 3.09, -1.02 3.1, -0.96 3.13 M-0.96 3.13 C-0.92 3.14, -0.89 3.14, -0.8 3.17 M-0.96 3.13 C-0.91 3.14, -0.87 3.15, -0.8 3.17 M-0.8 3.17 C-0.76 3.17, -0.72 3.18, -0.64 3.19 M-0.8 3.17 C-0.75 3.17, -0.7 3.18, -0.64 3.19 M-0.64 3.19 C-0.58 3.19, -0.52 3.2, -0.47 3.2 M-0.64 3.19 C-0.57 3.19, -0.51 3.2, -0.47 3.2 M-0.47 3.2 C-0.43 3.2, -0.39 3.2, -0.3 3.19 M-0.47 3.2 C-0.42 3.2, -0.37 3.19, -0.3 3.19 M-0.3 3.19 C-0.24 3.18, -0.19 3.17, -0.14 3.17 M-0.3 3.19 C-0.26 3.19, -0.23 3.18, -0.14 3.17 M-0.14 3.17 C-0.1 3.16, -0.05 3.14, 0.02 3.13 M-0.14 3.17 C-0.1 3.16, -0.07 3.15, 0.02 3.13 M0.02 3.13 C0.08 3.1, 0.14 3.08, 0.17 3.07 M0.02 3.13 C0.07 3.11, 0.11 3.09, 0.17 3.07 M0.17 3.07 C0.21 3.05, 0.25 3.03, 0.31 3 M0.17 3.07 C0.21 3.05, 0.25 3.03, 0.31 3 M0.31 3 C0.35 2.98, 0.39 2.95, 0.44 2.92 M0.31 3 C0.34 2.98, 0.38 2.96, 0.44 2.92 M0.44 2.92 C0.47 2.9, 0.5 2.88, 0.57 2.83 M0.44 2.92 C0.48 2.89, 0.52 2.87, 0.57 2.83 M0.57 2.83 C0.61 2.79, 0.64 2.76, 0.69 2.72 M0.57 2.83 C0.6 2.8, 0.63 2.77, 0.69 2.72 M0.69 2.72 C0.72 2.68, 0.76 2.64, 0.79 2.6 M0.69 2.72 C0.72 2.68, 0.76 2.64, 0.79 2.6 M0.79 2.6 C0.82 2.56, 0.85 2.53, 0.89 2.48 M0.79 2.6 C0.82 2.56, 0.85 2.52, 0.89 2.48 M0.89 2.48 C0.92 2.43, 0.95 2.37, 0.97 2.34 M0.89 2.48 C0.91 2.43, 0.94 2.39, 0.97 2.34 M0.97 2.34 C0.98 2.31, 1 2.28, 1.04 2.2 M0.97 2.34 C0.99 2.31, 1.01 2.27, 1.04 2.2 M1.04 2.2 C1.06 2.14, 1.08 2.08, 1.09 2.05 M1.04 2.2 C1.05 2.17, 1.06 2.14, 1.09 2.05 M1.09 2.05 C1.1 2.02, 1.11 1.98, 1.13 1.89 M1.09 2.05 C1.1 2.01, 1.11 1.97, 1.13 1.89 M1.13 1.89 C1.14 1.85, 1.15 1.81, 1.16 1.73 M1.13 1.89 C1.14 1.83, 1.15 1.77, 1.16 1.73 M1.16 1.73 C1.16 1.69, 1.16 1.64, 1.17 1.56 M1.16 1.73 C1.16 1.68, 1.16 1.64, 1.17 1.56 M1.17 1.56 C1.16 1.51, 1.16 1.46, 1.16 1.43 M1.17 1.56 C1.17 1.52, 1.16 1.48, 1.16 1.43 M1.16 1.43 C1.16 1.39, 1.15 1.36, 1.14 1.29 M1.16 1.43 C1.16 1.39, 1.15 1.35, 1.14 1.29 M1.14 1.29 C1.14 1.26, 1.13 1.22, 1.12 1.16 M1.14 1.29 C1.14 1.26, 1.13 1.24, 1.12 1.16 M1.12 1.16 C1.1 1.12, 1.09 1.07, 1.08 1.03 M1.12 1.16 C1.11 1.13, 1.1 1.09, 1.08 1.03 M1.08 1.03 C1.06 1, 1.05 0.97, 1.03 0.91 M1.08 1.03 C1.07 1.01, 1.06 0.98, 1.03 0.91 M1.03 0.91 C1.01 0.87, 0.99 0.83, 0.97 0.8 M1.03 0.91 C1.01 0.88, 0.99 0.84, 0.97 0.8 M0.97 0.8 C0.95 0.77, 0.94 0.74, 0.91 0.68 M0.97 0.8 C0.95 0.76, 0.93 0.73, 0.91 0.68 M0.91 0.68 C0.88 0.65, 0.86 0.61, 0.83 0.58 M0.91 0.68 C0.88 0.64, 0.85 0.6, 0.83 0.58 M0.83 0.58 C0.8 0.54, 0.77 0.5, 0.75 0.48 M0.83 0.58 C0.82 0.56, 0.8 0.54, 0.75 0.48 M0.75 0.48 C0.72 0.45, 0.69 0.42, 0.66 0.39 M0.75 0.48 C0.72 0.44, 0.68 0.41, 0.66 0.39 M0.66 0.39 C0.64 0.36, 0.61 0.34, 0.57 0.3 M0.66 0.39 C0.63 0.35, 0.59 0.32, 0.57 0.3 M0.57 0.3 C0.54 0.28, 0.51 0.26, 0.46 0.22 M0.57 0.3 C0.54 0.28, 0.51 0.26, 0.46 0.22 M0.46 0.22 C0.44 0.21, 0.42 0.19, 0.36 0.16 M0.46 0.22 C0.43 0.2, 0.4 0.18, 0.36 0.16 M0.36 0.16 C0.32 0.14, 0.28 0.12, 0.24 0.09 M0.36 0.16 C0.33 0.14, 0.3 0.12, 0.24 0.09 M0.24 0.09 C0.21 0.08, 0.18 0.07, 0.12 0.04 M0.24 0.09 C0.21 0.08, 0.18 0.07, 0.12 0.04 M0.12 0.04 C0.09 0.03, 0.06 0.02, 0 0 M0.12 0.04 C0.08 0.03, 0.05 0.02, 0 0 M0 0 C0 0, 0 0, 0 0 M0 0 C0 0, 0 0, 0 0 M0 0 C0 0, 0 0, 0 0 M0 0 C0 0, 0 0, 0 0" stroke="#00000000" stroke-width="1" fill="none"></path></g></g><mask></mask><g stroke-linecap="round"><g transform="translate(49.272090911865234 39.130231857299805) rotate(0 -4.362790107727051 1.6000008583068848)" fill-rule="evenodd"><path d="M0 0 L0 0 L-0.01 -0.17 L-0.03 -0.33 L-0.07 -0.49 L-0.13 -0.64 L-0.2 -0.78 L-0.28 -0.91 L-0.37 -1.04 L-0.48 -1.16 L-0.6 -1.26 L-0.72 -1.36 L-0.86 -1.44 L-1 -1.51 L-1.15 -1.56 L-1.31 -1.6 L-1.47 -1.63 L-1.64 -1.64 L-1.8 -1.63 L-1.97 -1.6 L-2.12 -1.56 L-2.27 -1.51 L-2.42 -1.44 L-2.55 -1.36 L-2.68 -1.26 L-2.79 -1.16 L-2.9 -1.04 L-2.99 -0.91 L-3.08 -0.78 L-3.15 -0.64 L-3.2 -0.49 L-3.24 -0.33 L-3.27 -0.17 L-3.27 0 L-3.27 0.14 L-3.25 0.27 L-3.22 0.4 L-3.19 0.53 L-3.14 0.65 L-3.08 0.77 L-3.02 0.88 L-2.95 0.98 L-2.86 1.08 L-2.78 1.18 L-2.68 1.26 L-2.58 1.34 L-2.47 1.41 L-2.36 1.47 L-2.24 1.52 L-2.11 1.57 L-2.12 1.74 L-2.12 1.91 L-2.14 2.06 L-2.15 2.21 L-2.17 2.35 L-2.19 2.48 L-2.24 2.72 L-2.3 2.93 L-2.38 3.11 L-2.47 3.26 L-2.57 3.38 L-2.68 3.47 L-2.8 3.56 L-2.95 3.63 L-3.11 3.69 L-3.28 3.74 L-3.48 3.78 L-3.69 3.81 L-3.93 3.84 L-4.18 3.86 L-4.45 3.87 L-4.73 3.88 L-5.04 3.89 L-5.37 3.89 L-5.71 3.89 L-6.08 3.89 L-6.46 3.89 L-7.05 3.88 L-7.36 3.88 L-7.68 3.88 L-8.73 3.88 L-8.73 4.83 L-7.68 4.83 L-7.68 4.83 L-7.36 4.83 L-7.06 4.83 L-6.47 4.83 L-5.99 4.84 L-5.53 4.84 L-5.2 4.84 L-4.88 4.83 L-4.57 4.82 L-4.28 4.81 L-4.01 4.8 L-3.75 4.77 L-3.51 4.74 L-3.28 4.71 L-3.07 4.66 L-2.87 4.61 L-2.68 4.54 L-2.5 4.47 L-2.33 4.38 L-2.18 4.28 L-2.03 4.17 L-1.9 4.05 L-1.73 3.85 L-1.65 3.74 L-1.58 3.63 L-1.52 3.51 L-1.46 3.38 L-1.4 3.24 L-1.36 3.09 L-1.31 2.94 L-1.28 2.77 L-1.25 2.6 L-1.22 2.41 L-1.2 2.22 L-1.18 2.01 L-1.17 1.8 L-1.16 1.57 L-1.04 1.53 L-0.92 1.47 L-0.81 1.41 L-0.7 1.34 L-0.6 1.27 L-0.5 1.18 L-0.41 1.09 L-0.33 0.99 L-0.26 0.88 L-0.19 0.77 L-0.13 0.65 L-0.09 0.53 L-0.05 0.4 L-0.02 0.27 L-0.01 0.14 L0 0 L0 0" stroke="none" stroke-width="0" fill="#0677f2" fill-rule="evenodd"></path><path d="M0 0 C0 0, 0 0, 0 0 M0 0 C0 0, 0 0, 0 0 M0 0 C0 -0.07, -0.01 -0.13, -0.01 -0.17 M0 0 C0 -0.05, -0.01 -0.1, -0.01 -0.17 M-0.01 -0.17 C-0.01 -0.2, -0.02 -0.23, -0.03 -0.33 M-0.01 -0.17 C-0.02 -0.21, -0.02 -0.26, -0.03 -0.33 M-0.03 -0.33 C-0.05 -0.38, -0.06 -0.43, -0.07 -0.49 M-0.03 -0.33 C-0.04 -0.36, -0.05 -0.4, -0.07 -0.49 M-0.07 -0.49 C-0.09 -0.52, -0.1 -0.56, -0.13 -0.64 M-0.07 -0.49 C-0.09 -0.52, -0.1 -0.55, -0.13 -0.64 M-0.13 -0.64 C-0.15 -0.67, -0.16 -0.7, -0.2 -0.78 M-0.13 -0.64 C-0.14 -0.67, -0.16 -0.7, -0.2 -0.78 M-0.2 -0.78 C-0.23 -0.83, -0.26 -0.89, -0.28 -0.91 M-0.2 -0.78 C-0.23 -0.83, -0.26 -0.89, -0.28 -0.91 M-0.28 -0.91 C-0.31 -0.96, -0.35 -1, -0.37 -1.04 M-0.28 -0.91 C-0.31 -0.95, -0.34 -1, -0.37 -1.04 M-0.37 -1.04 C-0.4 -1.07, -0.43 -1.1, -0.48 -1.16 M-0.37 -1.04 C-0.41 -1.08, -0.44 -1.11, -0.48 -1.16 M-0.48 -1.16 C-0.52 -1.19, -0.56 -1.23, -0.6 -1.26 M-0.48 -1.16 C-0.51 -1.19, -0.55 -1.22, -0.6 -1.26 M-0.6 -1.26 C-0.62 -1.28, -0.65 -1.3, -0.72 -1.36 M-0.6 -1.26 C-0.63 -1.29, -0.67 -1.31, -0.72 -1.36 M-0.72 -1.36 C-0.76 -1.38, -0.8 -1.41, -0.86 -1.44 M-0.72 -1.36 C-0.75 -1.37, -0.78 -1.39, -0.86 -1.44 M-0.86 -1.44 C-0.89 -1.46, -0.93 -1.47, -1 -1.51 M-0.86 -1.44 C-0.91 -1.46, -0.96 -1.49, -1 -1.51 M-1 -1.51 C-1.06 -1.53, -1.12 -1.55, -1.15 -1.56 M-1 -1.51 C-1.04 -1.52, -1.08 -1.54, -1.15 -1.56 M-1.15 -1.56 C-1.21 -1.58, -1.26 -1.59, -1.31 -1.6 M-1.15 -1.56 C-1.2 -1.58, -1.24 -1.59, -1.31 -1.6 M-1.31 -1.6 C-1.36 -1.61, -1.42 -1.62, -1.47 -1.63 M-1.31 -1.6 C-1.35 -1.61, -1.4 -1.62, -1.47 -1.63 M-1.47 -1.63 C-1.52 -1.63, -1.56 -1.63, -1.64 -1.64 M-1.47 -1.63 C-1.52 -1.63, -1.57 -1.63, -1.64 -1.64 M-1.64 -1.64 C-1.67 -1.64, -1.71 -1.63, -1.8 -1.63 M-1.64 -1.64 C-1.69 -1.63, -1.74 -1.63, -1.8 -1.63 M-1.8 -1.63 C-1.87 -1.62, -1.93 -1.61, -1.97 -1.6 M-1.8 -1.63 C-1.84 -1.62, -1.88 -1.62, -1.97 -1.6 M-1.97 -1.6 C-2.01 -1.59, -2.05 -1.58, -2.12 -1.56 M-1.97 -1.6 C-2.03 -1.59, -2.09 -1.57, -2.12 -1.56 M-2.12 -1.56 C-2.18 -1.54, -2.24 -1.52, -2.27 -1.51 M-2.12 -1.56 C-2.17 -1.55, -2.21 -1.53, -2.27 -1.51 M-2.27 -1.51 C-2.33 -1.48, -2.38 -1.45, -2.42 -1.44 M-2.27 -1.51 C-2.31 -1.49, -2.35 -1.47, -2.42 -1.44 M-2.42 -1.44 C-2.45 -1.42, -2.48 -1.4, -2.55 -1.36 M-2.42 -1.44 C-2.47 -1.41, -2.52 -1.38, -2.55 -1.36 M-2.55 -1.36 C-2.59 -1.33, -2.63 -1.3, -2.68 -1.26 M-2.55 -1.36 C-2.58 -1.33, -2.62 -1.31, -2.68 -1.26 M-2.68 -1.26 C-2.71 -1.23, -2.74 -1.21, -2.79 -1.16 M-2.68 -1.26 C-2.7 -1.24, -2.73 -1.21, -2.79 -1.16 M-2.79 -1.16 C-2.82 -1.13, -2.84 -1.11, -2.9 -1.04 M-2.79 -1.16 C-2.84 -1.11, -2.88 -1.07, -2.9 -1.04 M-2.9 -1.04 C-2.93 -1, -2.97 -0.95, -2.99 -0.91 M-2.9 -1.04 C-2.93 -1.01, -2.95 -0.97, -2.99 -0.91 M-2.99 -0.91 C-3.02 -0.88, -3.04 -0.84, -3.08 -0.78 M-2.99 -0.91 C-3.02 -0.88, -3.04 -0.85, -3.08 -0.78 M-3.08 -0.78 C-3.09 -0.75, -3.1 -0.72, -3.15 -0.64 M-3.08 -0.78 C-3.09 -0.74, -3.11 -0.7, -3.15 -0.64 M-3.15 -0.64 C-3.16 -0.6, -3.17 -0.57, -3.2 -0.49 M-3.15 -0.64 C-3.16 -0.59, -3.18 -0.53, -3.2 -0.49 M-3.2 -0.49 C-3.21 -0.44, -3.22 -0.39, -3.24 -0.33 M-3.2 -0.49 C-3.22 -0.43, -3.23 -0.37, -3.24 -0.33 M-3.24 -0.33 C-3.25 -0.28, -3.26 -0.23, -3.27 -0.17 M-3.24 -0.33 C-3.25 -0.28, -3.26 -0.23, -3.27 -0.17 M-3.27 -0.17 C-3.27 -0.11, -3.27 -0.06, -3.27 0 M-3.27 -0.17 C-3.27 -0.11, -3.27 -0.04, -3.27 0 M-3.27 0 C-3.27 0.04, -3.27 0.07, -3.27 0.14 M-3.27 0 C-3.27 0.04, -3.27 0.09, -3.27 0.14 M-3.27 0.14 C-3.26 0.18, -3.26 0.23, -3.25 0.27 M-3.27 0.14 C-3.26 0.19, -3.26 0.24, -3.25 0.27 M-3.25 0.27 C-3.25 0.3, -3.24 0.33, -3.22 0.4 M-3.25 0.27 C-3.24 0.31, -3.23 0.36, -3.22 0.4 M-3.22 0.4 C-3.22 0.43, -3.21 0.45, -3.19 0.53 M-3.22 0.4 C-3.21 0.44, -3.2 0.48, -3.19 0.53 M-3.19 0.53 C-3.17 0.56, -3.16 0.6, -3.14 0.65 M-3.19 0.53 C-3.17 0.57, -3.16 0.61, -3.14 0.65 M-3.14 0.65 C-3.12 0.69, -3.1 0.73, -3.08 0.77 M-3.14 0.65 C-3.13 0.68, -3.11 0.71, -3.08 0.77 M-3.08 0.77 C-3.07 0.79, -3.05 0.82, -3.02 0.88 M-3.08 0.77 C-3.06 0.81, -3.04 0.85, -3.02 0.88 M-3.02 0.88 C-3 0.9, -2.99 0.92, -2.95 0.98 M-3.02 0.88 C-2.99 0.92, -2.97 0.95, -2.95 0.98 M-2.95 0.98 C-2.92 1.02, -2.89 1.06, -2.86 1.08 M-2.95 0.98 C-2.92 1.02, -2.89 1.05, -2.86 1.08 M-2.86 1.08 C-2.83 1.12, -2.79 1.16, -2.78 1.18 M-2.86 1.08 C-2.84 1.11, -2.82 1.13, -2.78 1.18 M-2.78 1.18 C-2.76 1.19, -2.74 1.21, -2.68 1.26 M-2.78 1.18 C-2.75 1.2, -2.72 1.22, -2.68 1.26 M-2.68 1.26 C-2.65 1.29, -2.61 1.32, -2.58 1.34 M-2.68 1.26 C-2.65 1.28, -2.63 1.3, -2.58 1.34 M-2.58 1.34 C-2.54 1.36, -2.5 1.39, -2.47 1.41 M-2.58 1.34 C-2.55 1.36, -2.53 1.37, -2.47 1.41 M-2.47 1.41 C-2.45 1.42, -2.42 1.44, -2.36 1.47 M-2.47 1.41 C-2.43 1.43, -2.38 1.46, -2.36 1.47 M-2.36 1.47 C-2.31 1.49, -2.27 1.51, -2.24 1.52 M-2.36 1.47 C-2.32 1.49, -2.28 1.5, -2.24 1.52 M-2.24 1.52 C-2.21 1.53, -2.18 1.54, -2.11 1.57 M-2.24 1.52 C-2.21 1.53, -2.17 1.55, -2.11 1.57 M-2.11 1.57 C-2.11 1.62, -2.11 1.67, -2.12 1.74 M-2.11 1.57 C-2.11 1.63, -2.12 1.69, -2.12 1.74 M-2.12 1.74 C-2.12 1.8, -2.12 1.85, -2.12 1.91 M-2.12 1.74 C-2.12 1.8, -2.12 1.85, -2.12 1.91 M-2.12 1.91 C-2.13 1.95, -2.13 1.99, -2.14 2.06 M-2.12 1.91 C-2.13 1.94, -2.13 1.98, -2.14 2.06 M-2.14 2.06 C-2.14 2.11, -2.14 2.16, -2.15 2.21 M-2.14 2.06 C-2.14 2.12, -2.15 2.18, -2.15 2.21 M-2.15 2.21 C-2.16 2.26, -2.16 2.31, -2.17 2.35 M-2.15 2.21 C-2.15 2.24, -2.16 2.27, -2.17 2.35 M-2.17 2.35 C-2.17 2.39, -2.18 2.44, -2.19 2.48 M-2.17 2.35 C-2.17 2.38, -2.18 2.42, -2.19 2.48 M-2.19 2.48 C-2.2 2.57, -2.22 2.65, -2.24 2.72 M-2.19 2.48 C-2.2 2.54, -2.21 2.59, -2.24 2.72 M-2.24 2.72 C-2.26 2.78, -2.28 2.84, -2.3 2.93 M-2.24 2.72 C-2.26 2.78, -2.27 2.84, -2.3 2.93 M-2.3 2.93 C-2.32 2.97, -2.34 3.02, -2.38 3.11 M-2.3 2.93 C-2.32 2.97, -2.34 3.02, -2.38 3.11 M-2.38 3.11 C-2.41 3.16, -2.44 3.22, -2.47 3.26 M-2.38 3.11 C-2.4 3.15, -2.43 3.19, -2.47 3.26 M-2.47 3.26 C-2.5 3.29, -2.52 3.32, -2.57 3.38 M-2.47 3.26 C-2.49 3.29, -2.52 3.32, -2.57 3.38 M-2.57 3.38 C-2.6 3.41, -2.63 3.43, -2.68 3.47 M-2.57 3.38 C-2.61 3.41, -2.64 3.44, -2.68 3.47 M-2.68 3.47 C-2.72 3.5, -2.76 3.53, -2.8 3.56 M-2.68 3.47 C-2.72 3.5, -2.75 3.52, -2.8 3.56 M-2.8 3.56 C-2.85 3.58, -2.89 3.6, -2.95 3.63 M-2.8 3.56 C-2.84 3.57, -2.88 3.59, -2.95 3.63 M-2.95 3.63 C-2.99 3.64, -3.04 3.66, -3.11 3.69 M-2.95 3.63 C-2.98 3.64, -3.02 3.65, -3.11 3.69 M-3.11 3.69 C-3.17 3.7, -3.24 3.72, -3.28 3.74 M-3.11 3.69 C-3.16 3.7, -3.22 3.72, -3.28 3.74 M-3.28 3.74 C-3.36 3.75, -3.43 3.77, -3.48 3.78 M-3.28 3.74 C-3.36 3.75, -3.44 3.77, -3.48 3.78 M-3.48 3.78 C-3.55 3.79, -3.63 3.8, -3.69 3.81 M-3.48 3.78 C-3.54 3.79, -3.59 3.8, -3.69 3.81 M-3.69 3.81 C-3.77 3.82, -3.85 3.83, -3.93 3.84 M-3.69 3.81 C-3.76 3.82, -3.82 3.83, -3.93 3.84 M-3.93 3.84 C-4.01 3.85, -4.09 3.85, -4.18 3.86 M-3.93 3.84 C-4.02 3.85, -4.11 3.85, -4.18 3.86 M-4.18 3.86 C-4.24 3.86, -4.29 3.87, -4.45 3.87 M-4.18 3.86 C-4.26 3.86, -4.33 3.87, -4.45 3.87 M-4.45 3.87 C-4.55 3.88, -4.66 3.88, -4.73 3.88 M-4.45 3.87 C-4.54 3.88, -4.63 3.88, -4.73 3.88 M-4.73 3.88 C-4.82 3.89, -4.91 3.89, -5.04 3.89 M-4.73 3.88 C-4.81 3.89, -4.88 3.89, -5.04 3.89 M-5.04 3.89 C-5.16 3.89, -5.27 3.89, -5.37 3.89 M-5.04 3.89 C-5.17 3.89, -5.3 3.89, -5.37 3.89 M-5.37 3.89 C-5.46 3.89, -5.55 3.89, -5.71 3.89 M-5.37 3.89 C-5.5 3.89, -5.63 3.89, -5.71 3.89 M-5.71 3.89 C-5.81 3.89, -5.91 3.89, -6.08 3.89 M-5.71 3.89 C-5.8 3.89, -5.89 3.89, -6.08 3.89 M-6.08 3.89 C-6.19 3.89, -6.31 3.89, -6.46 3.89 M-6.08 3.89 C-6.22 3.89, -6.36 3.89, -6.46 3.89 M-6.46 3.89 C-6.59 3.89, -6.72 3.89, -7.05 3.88 M-6.46 3.89 C-6.64 3.89, -6.82 3.89, -7.05 3.88 M-7.05 3.88 C-7.11 3.88, -7.17 3.88, -7.36 3.88 M-7.05 3.88 C-7.17 3.88, -7.28 3.88, -7.36 3.88 M-7.36 3.88 C-7.48 3.88, -7.6 3.88, -7.68 3.88 M-7.36 3.88 C-7.43 3.88, -7.49 3.88, -7.68 3.88 M-7.68 3.88 C-8.06 3.88, -8.45 3.88, -8.73 3.88 M-7.68 3.88 C-8.01 3.88, -8.33 3.88, -8.73 3.88 M-8.73 3.88 C-8.73 4.24, -8.73 4.59, -8.73 4.83 M-8.73 3.88 C-8.73 4.22, -8.73 4.56, -8.73 4.83 M-8.73 4.83 C-8.42 4.83, -8.11 4.83, -7.68 4.83 M-8.73 4.83 C-8.51 4.83, -8.3 4.83, -7.68 4.83 M-7.68 4.83 C-7.68 4.83, -7.68 4.83, -7.68 4.83 M-7.68 4.83 C-7.68 4.83, -7.68 4.83, -7.68 4.83 M-7.68 4.83 C-7.59 4.83, -7.51 4.83, -7.36 4.83 M-7.68 4.83 C-7.6 4.83, -7.52 4.83, -7.36 4.83 M-7.36 4.83 C-7.28 4.83, -7.2 4.83, -7.06 4.83 M-7.36 4.83 C-7.3 4.83, -7.23 4.83, -7.06 4.83 M-7.06 4.83 C-6.9 4.83, -6.75 4.83, -6.47 4.83 M-7.06 4.83 C-6.85 4.83, -6.64 4.83, -6.47 4.83 M-6.47 4.83 C-6.31 4.83, -6.16 4.84, -5.99 4.84 M-6.47 4.83 C-6.34 4.83, -6.22 4.83, -5.99 4.84 M-5.99 4.84 C-5.88 4.84, -5.78 4.84, -5.53 4.84 M-5.99 4.84 C-5.82 4.84, -5.65 4.84, -5.53 4.84 M-5.53 4.84 C-5.41 4.84, -5.29 4.84, -5.2 4.84 M-5.53 4.84 C-5.44 4.84, -5.35 4.84, -5.2 4.84 M-5.2 4.84 C-5.12 4.84, -5.05 4.83, -4.88 4.83 M-5.2 4.84 C-5.11 4.83, -5.02 4.83, -4.88 4.83 M-4.88 4.83 C-4.77 4.83, -4.67 4.83, -4.57 4.82 M-4.88 4.83 C-4.76 4.83, -4.64 4.83, -4.57 4.82 M-4.57 4.82 C-4.48 4.82, -4.4 4.82, -4.28 4.81 M-4.57 4.82 C-4.51 4.82, -4.45 4.82, -4.28 4.81 M-4.28 4.81 C-4.18 4.81, -4.07 4.8, -4.01 4.8 M-4.28 4.81 C-4.19 4.81, -4.1 4.8, -4.01 4.8 M-4.01 4.8 C-3.92 4.79, -3.82 4.78, -3.75 4.77 M-4.01 4.8 C-3.95 4.79, -3.9 4.78, -3.75 4.77 M-3.75 4.77 C-3.69 4.76, -3.63 4.76, -3.51 4.74 M-3.75 4.77 C-3.7 4.77, -3.64 4.76, -3.51 4.74 M-3.51 4.74 C-3.43 4.73, -3.35 4.72, -3.28 4.71 M-3.51 4.74 C-3.44 4.73, -3.37 4.72, -3.28 4.71 M-3.28 4.71 C-3.23 4.69, -3.17 4.68, -3.07 4.66 M-3.28 4.71 C-3.2 4.69, -3.13 4.67, -3.07 4.66 M-3.07 4.66 C-3.02 4.65, -2.96 4.63, -2.87 4.61 M-3.07 4.66 C-2.99 4.64, -2.91 4.62, -2.87 4.61 M-2.87 4.61 C-2.81 4.59, -2.75 4.57, -2.68 4.54 M-2.87 4.61 C-2.82 4.59, -2.77 4.57, -2.68 4.54 M-2.68 4.54 C-2.63 4.52, -2.58 4.5, -2.5 4.47 M-2.68 4.54 C-2.61 4.51, -2.55 4.49, -2.5 4.47 M-2.5 4.47 C-2.45 4.44, -2.39 4.41, -2.33 4.38 M-2.5 4.47 C-2.45 4.44, -2.39 4.41, -2.33 4.38 M-2.33 4.38 C-2.29 4.35, -2.24 4.32, -2.18 4.28 M-2.33 4.38 C-2.27 4.34, -2.21 4.3, -2.18 4.28 M-2.18 4.28 C-2.12 4.24, -2.07 4.2, -2.03 4.17 M-2.18 4.28 C-2.14 4.25, -2.1 4.22, -2.03 4.17 M-2.03 4.17 C-2 4.14, -1.97 4.12, -1.9 4.05 M-2.03 4.17 C-2 4.14, -1.97 4.11, -1.9 4.05 M-1.9 4.05 C-1.83 3.97, -1.77 3.9, -1.73 3.85 M-1.9 4.05 C-1.85 3.99, -1.79 3.93, -1.73 3.85 M-1.73 3.85 C-1.7 3.81, -1.67 3.77, -1.65 3.74 M-1.73 3.85 C-1.7 3.81, -1.67 3.77, -1.65 3.74 M-1.65 3.74 C-1.63 3.7, -1.6 3.66, -1.58 3.63 M-1.65 3.74 C-1.63 3.71, -1.61 3.68, -1.58 3.63 M-1.58 3.63 C-1.56 3.59, -1.54 3.56, -1.52 3.51 M-1.58 3.63 C-1.56 3.58, -1.53 3.53, -1.52 3.51 M-1.52 3.51 C-1.49 3.45, -1.47 3.4, -1.46 3.38 M-1.52 3.51 C-1.5 3.48, -1.49 3.45, -1.46 3.38 M-1.46 3.38 C-1.44 3.34, -1.43 3.3, -1.4 3.24 M-1.46 3.38 C-1.44 3.34, -1.43 3.31, -1.4 3.24 M-1.4 3.24 C-1.39 3.19, -1.37 3.14, -1.36 3.09 M-1.4 3.24 C-1.39 3.19, -1.37 3.15, -1.36 3.09 M-1.36 3.09 C-1.34 3.05, -1.33 3, -1.31 2.94 M-1.36 3.09 C-1.35 3.05, -1.34 3.02, -1.31 2.94 M-1.31 2.94 C-1.31 2.9, -1.3 2.86, -1.28 2.77 M-1.31 2.94 C-1.3 2.88, -1.29 2.83, -1.28 2.77 M-1.28 2.77 C-1.27 2.72, -1.26 2.67, -1.25 2.6 M-1.28 2.77 C-1.27 2.71, -1.25 2.65, -1.25 2.6 M-1.25 2.6 C-1.24 2.55, -1.23 2.49, -1.22 2.41 M-1.25 2.6 C-1.24 2.55, -1.23 2.5, -1.22 2.41 M-1.22 2.41 C-1.21 2.34, -1.2 2.26, -1.2 2.22 M-1.22 2.41 C-1.21 2.34, -1.2 2.26, -1.2 2.22 M-1.2 2.22 C-1.19 2.15, -1.19 2.08, -1.18 2.01 M-1.2 2.22 C-1.19 2.16, -1.19 2.11, -1.18 2.01 M-1.18 2.01 C-1.18 1.93, -1.17 1.85, -1.17 1.8 M-1.18 2.01 C-1.18 1.93, -1.17 1.85, -1.17 1.8 M-1.17 1.8 C-1.17 1.72, -1.16 1.64, -1.16 1.57 M-1.17 1.8 C-1.17 1.73, -1.17 1.65, -1.16 1.57 M-1.16 1.57 C-1.13 1.56, -1.1 1.55, -1.04 1.53 M-1.16 1.57 C-1.14 1.56, -1.11 1.55, -1.04 1.53 M-1.04 1.53 C-1 1.51, -0.95 1.49, -0.92 1.47 M-1.04 1.53 C-1.01 1.51, -0.97 1.5, -0.92 1.47 M-0.92 1.47 C-0.89 1.46, -0.86 1.44, -0.81 1.41 M-0.92 1.47 C-0.88 1.45, -0.83 1.43, -0.81 1.41 M-0.81 1.41 C-0.77 1.39, -0.73 1.37, -0.7 1.34 M-0.81 1.41 C-0.77 1.39, -0.73 1.37, -0.7 1.34 M-0.7 1.34 C-0.67 1.32, -0.64 1.3, -0.6 1.27 M-0.7 1.34 C-0.67 1.32, -0.65 1.3, -0.6 1.27 M-0.6 1.27 C-0.57 1.24, -0.55 1.22, -0.5 1.18 M-0.6 1.27 C-0.56 1.24, -0.53 1.21, -0.5 1.18 M-0.5 1.18 C-0.48 1.16, -0.45 1.13, -0.41 1.09 M-0.5 1.18 C-0.48 1.16, -0.46 1.14, -0.41 1.09 M-0.41 1.09 C-0.39 1.06, -0.37 1.04, -0.33 0.99 M-0.41 1.09 C-0.39 1.07, -0.38 1.04, -0.33 0.99 M-0.33 0.99 C-0.3 0.95, -0.28 0.91, -0.26 0.88 M-0.33 0.99 C-0.31 0.96, -0.29 0.93, -0.26 0.88 M-0.26 0.88 C-0.24 0.85, -0.22 0.81, -0.19 0.77 M-0.26 0.88 C-0.24 0.86, -0.23 0.83, -0.19 0.77 M-0.19 0.77 C-0.18 0.75, -0.17 0.72, -0.13 0.65 M-0.19 0.77 C-0.18 0.74, -0.16 0.71, -0.13 0.65 M-0.13 0.65 C-0.12 0.61, -0.1 0.57, -0.09 0.53 M-0.13 0.65 C-0.12 0.62, -0.11 0.6, -0.09 0.53 M-0.09 0.53 C-0.08 0.5, -0.07 0.48, -0.05 0.4 M-0.09 0.53 C-0.08 0.49, -0.06 0.45, -0.05 0.4 M-0.05 0.4 C-0.04 0.37, -0.03 0.33, -0.02 0.27 M-0.05 0.4 C-0.04 0.37, -0.04 0.33, -0.02 0.27 M-0.02 0.27 C-0.02 0.23, -0.01 0.2, -0.01 0.14 M-0.02 0.27 C-0.02 0.23, -0.01 0.18, -0.01 0.14 M-0.01 0.14 C0 0.1, 0 0.07, 0 0 M-0.01 0.14 C0 0.08, 0 0.03, 0 0 M0 0 C0 0, 0 0, 0 0 M0 0 C0 0, 0 0, 0 0 M0 0 C0 0, 0 0, 0 0 M0 0 C0 0, 0 0, 0 0" stroke="#00000000" stroke-width="1" fill="none"></path></g></g><mask></mask><g stroke-linecap="round"><g transform="translate(43.06279182434082 38) rotate(0 -0.3418617248535156 -4.365116596221924)" fill-rule="evenodd"><path d="M0 0 L0 0 L0.12 -0.14 L0.23 -0.29 L0.32 -0.47 L0.4 -0.66 L0.47 -0.87 L0.52 -1.1 L0.57 -1.35 L0.61 -1.63 L0.63 -1.94 L0.65 -2.27 L0.67 -2.63 L0.67 -3.02 L0.68 -3.44 L0.68 -3.89 L0.68 -4.38 L0.68 -4.63 L0.67 -4.9 L0.67 -5.16 L0.67 -5.44 L0.67 -5.73 L0.67 -6.03 L0.8 -6.07 L0.92 -6.12 L1.04 -6.19 L1.15 -6.26 L1.25 -6.34 L1.35 -6.42 L1.44 -6.52 L1.52 -6.62 L1.59 -6.73 L1.66 -6.84 L1.71 -6.96 L1.76 -7.08 L1.79 -7.2 L1.82 -7.33 L1.84 -7.46 L1.84 -7.6 L1.83 -7.77 L1.81 -7.93 L1.77 -8.09 L1.71 -8.24 L1.64 -8.38 L1.56 -8.51 L1.47 -8.64 L1.36 -8.76 L1.25 -8.86 L1.12 -8.96 L0.98 -9.04 L0.84 -9.11 L0.69 -9.16 L0.53 -9.2 L0.37 -9.23 L0.2 -9.24 L0.04 -9.23 L-0.12 -9.2 L-0.28 -9.16 L-0.43 -9.11 L-0.57 -9.04 L-0.71 -8.96 L-0.84 -8.86 L-0.95 -8.76 L-1.06 -8.64 L-1.15 -8.51 L-1.23 -8.38 L-1.3 -8.24 L-1.36 -8.09 L-1.4 -7.93 L-1.42 -7.77 L-1.43 -7.6 L-1.43 -7.46 L-1.41 -7.33 L-1.38 -7.2 L-1.35 -7.07 L-1.3 -6.95 L-1.24 -6.84 L-1.18 -6.73 L-1.11 -6.62 L-1.03 -6.52 L-0.94 -6.43 L-0.84 -6.34 L-0.74 -6.26 L-0.63 -6.19 L-0.52 -6.13 L-0.4 -6.08 L-0.28 -6.04 L-0.28 -5.74 L-0.28 -5.44 L-0.28 -5.17 L-0.27 -4.9 L-0.27 -4.46 L-0.27 -4.05 L-0.27 -3.66 L-0.27 -3.3 L-0.28 -2.95 L-0.28 -2.63 L-0.29 -2.33 L-0.31 -2.06 L-0.33 -1.8 L-0.36 -1.57 L-0.39 -1.36 L-0.43 -1.18 L-0.48 -1.02 L-0.54 -0.88 L-0.6 -0.77 L-0.67 -0.67 L-0.72 -0.63 L-0.78 -0.59 L-0.86 -0.55 L-0.95 -0.51 L-1.08 -0.48 L-1.23 -0.46 L-1.32 -0.45 L-1.41 -0.44 L-1.52 -0.44 L-1.64 -0.44 L-2.53 -0.44 L-2.53 0.51 L-1.63 0.51 L-1.63 0.51 L-1.43 0.51 L-1.22 0.5 L-1 0.47 L-0.79 0.43 L-0.58 0.36 L-0.37 0.27 L-0.18 0.15 L-0.09 0.08 L0 0 L0 0" stroke="none" stroke-width="0" fill="#0677f2" fill-rule="evenodd"></path><path d="M0 0 C0 0, 0 0, 0 0 M0 0 C0 0, 0 0, 0 0 M0 0 C0.03 -0.03, 0.06 -0.06, 0.12 -0.14 M0 0 C0.03 -0.04, 0.06 -0.07, 0.12 -0.14 M0.12 -0.14 C0.17 -0.2, 0.21 -0.26, 0.23 -0.29 M0.12 -0.14 C0.16 -0.19, 0.2 -0.25, 0.23 -0.29 M0.23 -0.29 C0.25 -0.34, 0.27 -0.38, 0.32 -0.47 M0.23 -0.29 C0.26 -0.34, 0.28 -0.39, 0.32 -0.47 M0.32 -0.47 C0.34 -0.52, 0.36 -0.56, 0.4 -0.66 M0.32 -0.47 C0.35 -0.52, 0.37 -0.58, 0.4 -0.66 M0.4 -0.66 C0.42 -0.71, 0.44 -0.77, 0.47 -0.87 M0.4 -0.66 C0.43 -0.74, 0.45 -0.82, 0.47 -0.87 M0.47 -0.87 C0.48 -0.92, 0.5 -0.98, 0.52 -1.1 M0.47 -0.87 C0.49 -0.94, 0.5 -1.01, 0.52 -1.1 M0.52 -1.1 C0.54 -1.18, 0.55 -1.27, 0.57 -1.35 M0.52 -1.1 C0.54 -1.16, 0.55 -1.22, 0.57 -1.35 M0.57 -1.35 C0.58 -1.45, 0.59 -1.54, 0.61 -1.63 M0.57 -1.35 C0.58 -1.46, 0.6 -1.56, 0.61 -1.63 M0.61 -1.63 C0.62 -1.74, 0.63 -1.85, 0.63 -1.94 M0.61 -1.63 C0.61 -1.71, 0.62 -1.78, 0.63 -1.94 M0.63 -1.94 C0.64 -2.01, 0.64 -2.08, 0.65 -2.27 M0.63 -1.94 C0.64 -2.02, 0.64 -2.11, 0.65 -2.27 M0.65 -2.27 C0.66 -2.39, 0.66 -2.51, 0.67 -2.63 M0.65 -2.27 C0.66 -2.4, 0.66 -2.53, 0.67 -2.63 M0.67 -2.63 C0.67 -2.76, 0.67 -2.9, 0.67 -3.02 M0.67 -2.63 C0.67 -2.78, 0.67 -2.93, 0.67 -3.02 M0.67 -3.02 C0.68 -3.18, 0.68 -3.34, 0.68 -3.44 M0.67 -3.02 C0.68 -3.13, 0.68 -3.25, 0.68 -3.44 M0.68 -3.44 C0.68 -3.56, 0.68 -3.69, 0.68 -3.89 M0.68 -3.44 C0.68 -3.57, 0.68 -3.7, 0.68 -3.89 M0.68 -3.89 C0.68 -4.02, 0.68 -4.15, 0.68 -4.38 M0.68 -3.89 C0.68 -4, 0.68 -4.11, 0.68 -4.38 M0.68 -4.38 C0.68 -4.47, 0.68 -4.56, 0.68 -4.63 M0.68 -4.38 C0.68 -4.47, 0.68 -4.56, 0.68 -4.63 M0.68 -4.63 C0.68 -4.7, 0.68 -4.77, 0.67 -4.9 M0.68 -4.63 C0.68 -4.73, 0.67 -4.82, 0.67 -4.9 M0.67 -4.9 C0.67 -5, 0.67 -5.1, 0.67 -5.16 M0.67 -4.9 C0.67 -4.98, 0.67 -5.07, 0.67 -5.16 M0.67 -5.16 C0.67 -5.25, 0.67 -5.33, 0.67 -5.44 M0.67 -5.16 C0.67 -5.27, 0.67 -5.38, 0.67 -5.44 M0.67 -5.44 C0.67 -5.55, 0.67 -5.66, 0.67 -5.73 M0.67 -5.44 C0.67 -5.54, 0.67 -5.63, 0.67 -5.73 M0.67 -5.73 C0.67 -5.81, 0.67 -5.88, 0.67 -6.03 M0.67 -5.73 C0.67 -5.83, 0.67 -5.94, 0.67 -6.03 M0.67 -6.03 C0.7 -6.04, 0.73 -6.05, 0.8 -6.07 M0.67 -6.03 C0.71 -6.04, 0.75 -6.05, 0.8 -6.07 M0.8 -6.07 C0.82 -6.08, 0.85 -6.09, 0.92 -6.12 M0.8 -6.07 C0.83 -6.08, 0.86 -6.1, 0.92 -6.12 M0.92 -6.12 C0.95 -6.14, 0.97 -6.15, 1.04 -6.19 M0.92 -6.12 C0.96 -6.15, 1 -6.17, 1.04 -6.19 M1.04 -6.19 C1.06 -6.2, 1.08 -6.22, 1.15 -6.26 M1.04 -6.19 C1.08 -6.21, 1.12 -6.24, 1.15 -6.26 M1.15 -6.26 C1.18 -6.28, 1.22 -6.31, 1.25 -6.34 M1.15 -6.26 C1.19 -6.29, 1.22 -6.32, 1.25 -6.34 M1.25 -6.34 C1.28 -6.37, 1.31 -6.39, 1.35 -6.42 M1.25 -6.34 C1.27 -6.36, 1.29 -6.38, 1.35 -6.42 M1.35 -6.42 C1.37 -6.45, 1.4 -6.48, 1.44 -6.52 M1.35 -6.42 C1.37 -6.45, 1.4 -6.48, 1.44 -6.52 M1.44 -6.52 C1.46 -6.55, 1.49 -6.59, 1.52 -6.62 M1.44 -6.52 C1.47 -6.55, 1.49 -6.59, 1.52 -6.62 M1.52 -6.62 C1.54 -6.65, 1.56 -6.69, 1.59 -6.73 M1.52 -6.62 C1.54 -6.66, 1.57 -6.69, 1.59 -6.73 M1.59 -6.73 C1.61 -6.76, 1.63 -6.8, 1.66 -6.84 M1.59 -6.73 C1.61 -6.77, 1.64 -6.81, 1.66 -6.84 M1.66 -6.84 C1.67 -6.87, 1.68 -6.9, 1.71 -6.96 M1.66 -6.84 C1.67 -6.87, 1.68 -6.9, 1.71 -6.96 M1.71 -6.96 C1.72 -6.99, 1.73 -7.02, 1.76 -7.08 M1.71 -6.96 C1.72 -6.99, 1.74 -7.02, 1.76 -7.08 M1.76 -7.08 C1.77 -7.11, 1.77 -7.14, 1.79 -7.2 M1.76 -7.08 C1.77 -7.11, 1.77 -7.13, 1.79 -7.2 M1.79 -7.2 C1.8 -7.24, 1.81 -7.28, 1.82 -7.33 M1.79 -7.2 C1.8 -7.25, 1.81 -7.29, 1.82 -7.33 M1.82 -7.33 C1.83 -7.37, 1.83 -7.42, 1.84 -7.46 M1.82 -7.33 C1.83 -7.38, 1.83 -7.43, 1.84 -7.46 M1.84 -7.46 C1.84 -7.5, 1.84 -7.54, 1.84 -7.6 M1.84 -7.46 C1.84 -7.5, 1.84 -7.54, 1.84 -7.6 M1.84 -7.6 C1.84 -7.65, 1.84 -7.7, 1.83 -7.77 M1.84 -7.6 C1.84 -7.64, 1.84 -7.69, 1.83 -7.77 M1.83 -7.77 C1.82 -7.82, 1.82 -7.88, 1.81 -7.93 M1.83 -7.77 C1.83 -7.81, 1.82 -7.85, 1.81 -7.93 M1.81 -7.93 C1.79 -7.98, 1.78 -8.04, 1.77 -8.09 M1.81 -7.93 C1.79 -7.99, 1.78 -8.05, 1.77 -8.09 M1.77 -8.09 C1.76 -8.12, 1.74 -8.15, 1.71 -8.24 M1.77 -8.09 C1.76 -8.12, 1.74 -8.16, 1.71 -8.24 M1.71 -8.24 C1.69 -8.28, 1.67 -8.32, 1.64 -8.38 M1.71 -8.24 C1.69 -8.28, 1.67 -8.33, 1.64 -8.38 M1.64 -8.38 C1.62 -8.41, 1.6 -8.45, 1.56 -8.51 M1.64 -8.38 C1.63 -8.41, 1.61 -8.44, 1.56 -8.51 M1.56 -8.51 C1.54 -8.54, 1.52 -8.57, 1.47 -8.64 M1.56 -8.51 C1.53 -8.55, 1.51 -8.59, 1.47 -8.64 M1.47 -8.64 C1.43 -8.68, 1.4 -8.72, 1.36 -8.76 M1.47 -8.64 C1.43 -8.68, 1.4 -8.72, 1.36 -8.76 M1.36 -8.76 C1.32 -8.8, 1.27 -8.84, 1.25 -8.86 M1.36 -8.76 C1.33 -8.79, 1.3 -8.82, 1.25 -8.86 M1.25 -8.86 C1.22 -8.88, 1.19 -8.9, 1.12 -8.96 M1.25 -8.86 C1.22 -8.88, 1.19 -8.9, 1.12 -8.96 M1.12 -8.96 C1.07 -8.99, 1.02 -9.02, 0.98 -9.04 M1.12 -8.96 C1.08 -8.98, 1.04 -9, 0.98 -9.04 M0.98 -9.04 C0.93 -9.06, 0.88 -9.09, 0.84 -9.11 M0.98 -9.04 C0.95 -9.06, 0.92 -9.07, 0.84 -9.11 M0.84 -9.11 C0.79 -9.13, 0.75 -9.14, 0.69 -9.16 M0.84 -9.11 C0.8 -9.12, 0.76 -9.14, 0.69 -9.16 M0.69 -9.16 C0.65 -9.17, 0.61 -9.18, 0.53 -9.2 M0.69 -9.16 C0.63 -9.18, 0.58 -9.19, 0.53 -9.2 M0.53 -9.2 C0.5 -9.21, 0.46 -9.22, 0.37 -9.23 M0.53 -9.2 C0.5 -9.21, 0.47 -9.21, 0.37 -9.23 M0.37 -9.23 C0.31 -9.23, 0.26 -9.23, 0.2 -9.24 M0.37 -9.23 C0.33 -9.23, 0.29 -9.23, 0.2 -9.24 M0.2 -9.24 C0.14 -9.23, 0.07 -9.23, 0.04 -9.23 M0.2 -9.24 C0.17 -9.24, 0.13 -9.23, 0.04 -9.23 M0.04 -9.23 C-0.01 -9.22, -0.06 -9.21, -0.12 -9.2 M0.04 -9.23 C-0.01 -9.22, -0.05 -9.21, -0.12 -9.2 M-0.12 -9.2 C-0.16 -9.19, -0.2 -9.19, -0.28 -9.16 M-0.12 -9.2 C-0.17 -9.19, -0.22 -9.18, -0.28 -9.16 M-0.28 -9.16 C-0.33 -9.15, -0.38 -9.13, -0.43 -9.11 M-0.28 -9.16 C-0.32 -9.15, -0.35 -9.14, -0.43 -9.11 M-0.43 -9.11 C-0.47 -9.09, -0.52 -9.07, -0.57 -9.04 M-0.43 -9.11 C-0.48 -9.09, -0.52 -9.07, -0.57 -9.04 M-0.57 -9.04 C-0.61 -9.02, -0.65 -8.99, -0.71 -8.96 M-0.57 -9.04 C-0.6 -9.02, -0.63 -9.01, -0.71 -8.96 M-0.71 -8.96 C-0.75 -8.93, -0.79 -8.9, -0.84 -8.86 M-0.71 -8.96 C-0.74 -8.94, -0.77 -8.92, -0.84 -8.86 M-0.84 -8.86 C-0.88 -8.83, -0.92 -8.79, -0.95 -8.76 M-0.84 -8.86 C-0.88 -8.82, -0.93 -8.78, -0.95 -8.76 M-0.95 -8.76 C-0.98 -8.72, -1.02 -8.69, -1.06 -8.64 M-0.95 -8.76 C-0.99 -8.72, -1.02 -8.68, -1.06 -8.64 M-1.06 -8.64 C-1.09 -8.6, -1.12 -8.56, -1.15 -8.51 M-1.06 -8.64 C-1.09 -8.59, -1.13 -8.55, -1.15 -8.51 M-1.15 -8.51 C-1.17 -8.48, -1.19 -8.45, -1.23 -8.38 M-1.15 -8.51 C-1.18 -8.47, -1.2 -8.43, -1.23 -8.38 M-1.23 -8.38 C-1.26 -8.32, -1.29 -8.27, -1.3 -8.24 M-1.23 -8.38 C-1.25 -8.35, -1.27 -8.31, -1.3 -8.24 M-1.3 -8.24 C-1.32 -8.2, -1.33 -8.17, -1.36 -8.09 M-1.3 -8.24 C-1.32 -8.2, -1.33 -8.16, -1.36 -8.09 M-1.36 -8.09 C-1.37 -8.04, -1.38 -7.99, -1.4 -7.93 M-1.36 -8.09 C-1.37 -8.05, -1.38 -8.01, -1.4 -7.93 M-1.4 -7.93 C-1.41 -7.87, -1.42 -7.82, -1.42 -7.77 M-1.4 -7.93 C-1.41 -7.88, -1.41 -7.84, -1.42 -7.77 M-1.42 -7.77 C-1.43 -7.73, -1.43 -7.7, -1.43 -7.6 M-1.42 -7.77 C-1.43 -7.71, -1.43 -7.64, -1.43 -7.6 M-1.43 -7.6 C-1.43 -7.56, -1.43 -7.52, -1.43 -7.46 M-1.43 -7.6 C-1.43 -7.55, -1.43 -7.49, -1.43 -7.46 M-1.43 -7.46 C-1.42 -7.43, -1.42 -7.39, -1.41 -7.33 M-1.43 -7.46 C-1.42 -7.42, -1.42 -7.37, -1.41 -7.33 M-1.41 -7.33 C-1.4 -7.29, -1.39 -7.25, -1.38 -7.2 M-1.41 -7.33 C-1.4 -7.29, -1.4 -7.26, -1.38 -7.2 M-1.38 -7.2 C-1.37 -7.15, -1.36 -7.11, -1.35 -7.07 M-1.38 -7.2 C-1.37 -7.15, -1.35 -7.1, -1.35 -7.07 M-1.35 -7.07 C-1.33 -7.04, -1.32 -7, -1.3 -6.95 M-1.35 -7.07 C-1.33 -7.03, -1.31 -6.99, -1.3 -6.95 M-1.3 -6.95 C-1.29 -6.93, -1.27 -6.9, -1.24 -6.84 M-1.3 -6.95 C-1.28 -6.91, -1.26 -6.87, -1.24 -6.84 M-1.24 -6.84 C-1.22 -6.79, -1.19 -6.75, -1.18 -6.73 M-1.24 -6.84 C-1.23 -6.8, -1.21 -6.77, -1.18 -6.73 M-1.18 -6.73 C-1.15 -6.69, -1.13 -6.65, -1.11 -6.62 M-1.18 -6.73 C-1.15 -6.69, -1.13 -6.65, -1.11 -6.62 M-1.11 -6.62 C-1.09 -6.6, -1.07 -6.58, -1.03 -6.52 M-1.11 -6.62 C-1.09 -6.59, -1.07 -6.57, -1.03 -6.52 M-1.03 -6.52 C-1 -6.5, -0.98 -6.48, -0.94 -6.43 M-1.03 -6.52 C-1 -6.5, -0.98 -6.47, -0.94 -6.43 M-0.94 -6.43 C-0.91 -6.4, -0.88 -6.38, -0.84 -6.34 M-0.94 -6.43 C-0.91 -6.4, -0.88 -6.37, -0.84 -6.34 M-0.84 -6.34 C-0.81 -6.32, -0.78 -6.29, -0.74 -6.26 M-0.84 -6.34 C-0.81 -6.32, -0.78 -6.3, -0.74 -6.26 M-0.74 -6.26 C-0.7 -6.24, -0.66 -6.21, -0.63 -6.19 M-0.74 -6.26 C-0.72 -6.25, -0.7 -6.23, -0.63 -6.19 M-0.63 -6.19 C-0.61 -6.18, -0.58 -6.16, -0.52 -6.13 M-0.63 -6.19 C-0.61 -6.18, -0.58 -6.17, -0.52 -6.13 M-0.52 -6.13 C-0.47 -6.11, -0.43 -6.09, -0.4 -6.08 M-0.52 -6.13 C-0.48 -6.11, -0.43 -6.09, -0.4 -6.08 M-0.4 -6.08 C-0.37 -6.07, -0.33 -6.06, -0.28 -6.04 M-0.4 -6.08 C-0.36 -6.07, -0.32 -6.05, -0.28 -6.04 M-0.28 -6.04 C-0.28 -5.96, -0.28 -5.89, -0.28 -5.74 M-0.28 -6.04 C-0.28 -5.93, -0.28 -5.82, -0.28 -5.74 M-0.28 -5.74 C-0.28 -5.67, -0.28 -5.6, -0.28 -5.44 M-0.28 -5.74 C-0.28 -5.67, -0.28 -5.6, -0.28 -5.44 M-0.28 -5.44 C-0.28 -5.36, -0.28 -5.27, -0.28 -5.17 M-0.28 -5.44 C-0.28 -5.35, -0.28 -5.25, -0.28 -5.17 M-0.28 -5.17 C-0.27 -5.09, -0.27 -5.01, -0.27 -4.9 M-0.28 -5.17 C-0.27 -5.08, -0.27 -4.99, -0.27 -4.9 M-0.27 -4.9 C-0.27 -4.74, -0.27 -4.59, -0.27 -4.46 M-0.27 -4.9 C-0.27 -4.78, -0.27 -4.66, -0.27 -4.46 M-0.27 -4.46 C-0.27 -4.35, -0.27 -4.23, -0.27 -4.05 M-0.27 -4.46 C-0.27 -4.33, -0.27 -4.2, -0.27 -4.05 M-0.27 -4.05 C-0.27 -3.96, -0.27 -3.87, -0.27 -3.66 M-0.27 -4.05 C-0.27 -3.94, -0.27 -3.82, -0.27 -3.66 M-0.27 -3.66 C-0.27 -3.52, -0.27 -3.39, -0.27 -3.3 M-0.27 -3.66 C-0.27 -3.57, -0.27 -3.48, -0.27 -3.3 M-0.27 -3.3 C-0.27 -3.17, -0.27 -3.05, -0.28 -2.95 M-0.27 -3.3 C-0.27 -3.18, -0.27 -3.07, -0.28 -2.95 M-0.28 -2.95 C-0.28 -2.84, -0.28 -2.73, -0.28 -2.63 M-0.28 -2.95 C-0.28 -2.85, -0.28 -2.75, -0.28 -2.63 M-0.28 -2.63 C-0.29 -2.54, -0.29 -2.46, -0.29 -2.33 M-0.28 -2.63 C-0.29 -2.54, -0.29 -2.44, -0.29 -2.33 M-0.29 -2.33 C-0.3 -2.24, -0.31 -2.15, -0.31 -2.06 M-0.29 -2.33 C-0.3 -2.26, -0.3 -2.2, -0.31 -2.06 M-0.31 -2.06 C-0.32 -1.98, -0.32 -1.91, -0.33 -1.8 M-0.31 -2.06 C-0.32 -1.97, -0.32 -1.88, -0.33 -1.8 M-0.33 -1.8 C-0.34 -1.73, -0.35 -1.67, -0.36 -1.57 M-0.33 -1.8 C-0.34 -1.73, -0.35 -1.66, -0.36 -1.57 M-0.36 -1.57 C-0.37 -1.53, -0.37 -1.48, -0.39 -1.36 M-0.36 -1.57 C-0.37 -1.5, -0.38 -1.43, -0.39 -1.36 M-0.39 -1.36 C-0.4 -1.3, -0.42 -1.24, -0.43 -1.18 M-0.39 -1.36 C-0.4 -1.31, -0.42 -1.25, -0.43 -1.18 M-0.43 -1.18 C-0.45 -1.12, -0.47 -1.06, -0.48 -1.02 M-0.43 -1.18 C-0.45 -1.12, -0.47 -1.06, -0.48 -1.02 M-0.48 -1.02 C-0.5 -0.97, -0.52 -0.91, -0.54 -0.88 M-0.48 -1.02 C-0.5 -0.96, -0.52 -0.91, -0.54 -0.88 M-0.54 -0.88 C-0.55 -0.85, -0.57 -0.81, -0.6 -0.77 M-0.54 -0.88 C-0.56 -0.84, -0.58 -0.8, -0.6 -0.77 M-0.6 -0.77 C-0.62 -0.74, -0.65 -0.71, -0.67 -0.67 M-0.6 -0.77 C-0.62 -0.74, -0.63 -0.72, -0.67 -0.67 M-0.67 -0.67 C-0.69 -0.66, -0.71 -0.64, -0.72 -0.63 M-0.67 -0.67 C-0.69 -0.66, -0.7 -0.65, -0.72 -0.63 M-0.72 -0.63 C-0.73 -0.62, -0.75 -0.61, -0.78 -0.59 M-0.72 -0.63 C-0.74 -0.62, -0.75 -0.61, -0.78 -0.59 M-0.78 -0.59 C-0.8 -0.58, -0.81 -0.57, -0.86 -0.55 M-0.78 -0.59 C-0.8 -0.58, -0.82 -0.57, -0.86 -0.55 M-0.86 -0.55 C-0.89 -0.54, -0.93 -0.52, -0.95 -0.51 M-0.86 -0.55 C-0.88 -0.54, -0.91 -0.53, -0.95 -0.51 M-0.95 -0.51 C-0.99 -0.51, -1.02 -0.5, -1.08 -0.48 M-0.95 -0.51 C-0.99 -0.5, -1.03 -0.49, -1.08 -0.48 M-1.08 -0.48 C-1.11 -0.48, -1.15 -0.47, -1.23 -0.46 M-1.08 -0.48 C-1.13 -0.47, -1.18 -0.47, -1.23 -0.46 M-1.23 -0.46 C-1.25 -0.46, -1.27 -0.45, -1.32 -0.45 M-1.23 -0.46 C-1.26 -0.46, -1.29 -0.45, -1.32 -0.45 M-1.32 -0.45 C-1.34 -0.45, -1.36 -0.45, -1.41 -0.44 M-1.32 -0.45 C-1.34 -0.45, -1.37 -0.45, -1.41 -0.44 M-1.41 -0.44 C-1.44 -0.44, -1.46 -0.44, -1.52 -0.44 M-1.41 -0.44 C-1.44 -0.44, -1.47 -0.44, -1.52 -0.44 M-1.52 -0.44 C-1.55 -0.44, -1.57 -0.44, -1.64 -0.44 M-1.52 -0.44 C-1.56 -0.44, -1.59 -0.44, -1.64 -0.44 M-1.64 -0.44 C-1.96 -0.44, -2.28 -0.44, -2.53 -0.44 M-1.64 -0.44 C-1.96 -0.44, -2.29 -0.44, -2.53 -0.44 M-2.53 -0.44 C-2.53 -0.1, -2.53 0.25, -2.53 0.51 M-2.53 -0.44 C-2.53 -0.13, -2.53 0.18, -2.53 0.51 M-2.53 0.51 C-2.27 0.51, -2.01 0.51, -1.63 0.51 M-2.53 0.51 C-2.33 0.51, -2.13 0.51, -1.63 0.51 M-1.63 0.51 C-1.63 0.51, -1.63 0.51, -1.63 0.51 M-1.63 0.51 C-1.63 0.51, -1.63 0.51, -1.63 0.51 M-1.63 0.51 C-1.59 0.51, -1.55 0.51, -1.43 0.51 M-1.63 0.51 C-1.59 0.51, -1.54 0.51, -1.43 0.51 M-1.43 0.51 C-1.35 0.5, -1.27 0.5, -1.22 0.5 M-1.43 0.51 C-1.36 0.5, -1.29 0.5, -1.22 0.5 M-1.22 0.5 C-1.13 0.49, -1.05 0.48, -1 0.47 M-1.22 0.5 C-1.14 0.49, -1.06 0.48, -1 0.47 M-1 0.47 C-0.96 0.46, -0.91 0.45, -0.79 0.43 M-1 0.47 C-0.95 0.46, -0.89 0.45, -0.79 0.43 M-0.79 0.43 C-0.72 0.41, -0.65 0.38, -0.58 0.36 M-0.79 0.43 C-0.7 0.4, -0.62 0.38, -0.58 0.36 M-0.58 0.36 C-0.51 0.33, -0.44 0.3, -0.37 0.27 M-0.58 0.36 C-0.53 0.34, -0.48 0.32, -0.37 0.27 M-0.37 0.27 C-0.3 0.23, -0.22 0.18, -0.18 0.15 M-0.37 0.27 C-0.32 0.24, -0.27 0.21, -0.18 0.15 M-0.18 0.15 C-0.15 0.13, -0.12 0.11, -0.09 0.08 M-0.18 0.15 C-0.15 0.13, -0.12 0.11, -0.09 0.08 M-0.09 0.08 C-0.06 0.06, -0.03 0.03, 0 0 M-0.09 0.08 C-0.06 0.05, -0.02 0.02, 0 0 M0 0 C0 0, 0 0, 0 0 M0 0 C0 0, 0 0, 0 0 M0 0 C0 0, 0 0, 0 0 M0 0 C0 0, 0 0, 0 0" stroke="#00000000" stroke-width="1" fill="none"></path></g></g><mask></mask></svg>