<svg xmlns="http://www.w3.org/2000/svg" viewBox="331.50 1026.76 172.00 84.00" width="172" height="84"><rect x="337.50" y="1032.76" width="160.00" height="72.00" rx="0" stroke="#4285f4" stroke-width="2" opacity="1.0" fill="#FFF"/><text x="402.50" y="1073.76" font-size="12" fill="#000000" opacity="1.0" font-family="sans-serif">Cloud Spanner</text><polyline points="371.79,1069.77 371.79,1063.96 368.21,1063.96 368.21,1069.77 363.19,1072.68 364.97,1075.77 370.00,1072.86 375.03,1075.77 376.81,1072.68 371.79,1069.77 371.79,1069.77" fill="none" stroke="#00000000" stroke-width="1" opacity="1.0" stroke-linecap="round" stroke-linejoin="round"/><polyline points="371.79,1069.77 371.79,1063.96 370.00,1063.96 370.00,1070.78 364.08,1074.22 364.97,1075.77 370.00,1072.86 375.03,1075.77 376.81,1072.68 371.79,1069.77 371.79,1069.77" fill="none" stroke="#00000000" stroke-width="1" opacity="1.0" stroke-linecap="round" stroke-linejoin="round"/><polyline points="368.20,1056.45 365.49,1058.08 365.49,1063.05 370.00,1065.49 370.00,1061.34 368.20,1060.52 368.20,1056.45 368.20,1056.45" fill="none" stroke="#00000000" stroke-width="1" opacity="1.0" stroke-linecap="round" stroke-linejoin="round"/><polyline points="371.80,1060.52 370.00,1061.34 370.00,1065.49 374.51,1063.05 374.51,1058.08 371.80,1056.45 371.80,1060.52 371.80,1060.52" fill="none" stroke="#00000000" stroke-width="1" opacity="1.0" stroke-linecap="round" stroke-linejoin="round"/><polyline points="378.19,1075.53 378.08,1077.38 381.68,1079.42 378.77,1081.02 374.45,1078.53 374.60,1073.42 378.96,1070.76 383.33,1073.26 383.33,1076.58 379.75,1074.52 378.19,1075.53" fill="none" stroke="#00000000" stroke-width="1" opacity="1.0" stroke-linecap="round" stroke-linejoin="round"/><polyline points="361.81,1075.53 360.25,1074.52 356.67,1076.58 356.67,1073.26 360.97,1070.77 365.33,1073.44 365.48,1078.54 361.23,1081.06 358.32,1079.42 361.92,1077.34 361.81,1075.53" fill="none" stroke="#00000000" stroke-width="1" opacity="1.0" stroke-linecap="round" stroke-linejoin="round"/><polyline points="383.33,1076.58 383.27,1073.26 378.96,1070.78 374.60,1073.46 378.19,1075.53 379.73,1074.52 383.33,1076.58 383.33,1076.58" fill="none" stroke="#00000000" stroke-width="1" opacity="1.0" stroke-linecap="round" stroke-linejoin="round"/><polyline points="356.67,1076.58 360.27,1074.52 361.81,1075.53 365.40,1073.46 361.04,1070.78 356.73,1073.26 356.67,1076.58 356.67,1076.58" fill="none" stroke="#00000000" stroke-width="1" opacity="1.0" stroke-linecap="round" stroke-linejoin="round"/></svg>