<svg version="1.1" xmlns="http://www.w3.org/2000/svg" viewBox="0 0 306.79092360905054 290.2112726143432" width="306.79092360905054" height="290.2112726143432">
  <!-- svg-source:excalidraw -->
  
  <defs>
    
    
  </defs>
  <g stroke-linecap="round" transform="translate(6 62.47798466152108) rotate(0 20.110992169867373 20.11099216986736)"><path d="M40.22 20.11 C40.22 21.28, 40.12 22.46, 39.92 23.6 C39.71 24.75, 39.41 25.9, 39.01 26.99 C38.61 28.08, 38.11 29.16, 37.53 30.17 C36.95 31.17, 36.27 32.15, 35.52 33.04 C34.77 33.93, 33.93 34.77, 33.04 35.52 C32.15 36.27, 31.17 36.95, 30.17 37.53 C29.16 38.11, 28.08 38.61, 26.99 39.01 C25.9 39.41, 24.75 39.71, 23.6 39.92 C22.46 40.12, 21.28 40.22, 20.11 40.22 C18.95 40.22, 17.77 40.12, 16.62 39.92 C15.47 39.71, 14.33 39.41, 13.23 39.01 C12.14 38.61, 11.06 38.11, 10.06 37.53 C9.05 36.95, 8.08 36.27, 7.18 35.52 C6.29 34.77, 5.45 33.93, 4.71 33.04 C3.96 32.15, 3.28 31.17, 2.69 30.17 C2.11 29.16, 1.61 28.08, 1.21 26.99 C0.81 25.9, 0.51 24.75, 0.31 23.6 C0.1 22.46, 0 21.28, 0 20.11 C0 18.95, 0.1 17.77, 0.31 16.62 C0.51 15.47, 0.81 14.33, 1.21 13.23 C1.61 12.14, 2.11 11.06, 2.69 10.06 C3.28 9.05, 3.96 8.08, 4.71 7.18 C5.45 6.29, 6.29 5.45, 7.18 4.71 C8.08 3.96, 9.05 3.28, 10.06 2.69 C11.06 2.11, 12.14 1.61, 13.23 1.21 C14.33 0.81, 15.47 0.51, 16.62 0.31 C17.77 0.1, 18.95 0, 20.11 0 C21.28 0, 22.46 0.1, 23.6 0.31 C24.75 0.51, 25.9 0.81, 26.99 1.21 C28.08 1.61, 29.16 2.11, 30.17 2.69 C31.17 3.28, 32.15 3.96, 33.04 4.71 C33.93 5.45, 34.77 6.29, 35.52 7.18 C36.27 8.08, 36.95 9.05, 37.53 10.06 C38.11 11.06, 38.61 12.14, 39.01 13.23 C39.41 14.33, 39.71 15.47, 39.92 16.62 C40.12 17.77, 40.17 19.53, 40.22 20.11 C40.27 20.69, 40.27 19.53, 40.22 20.11" stroke="none" stroke-width="0" fill="#669df6"></path><path d="M40.22 20.11 C40.22 21.28, 40.12 22.46, 39.92 23.6 C39.71 24.75, 39.41 25.9, 39.01 26.99 C38.61 28.08, 38.11 29.16, 37.53 30.17 C36.95 31.17, 36.27 32.15, 35.52 33.04 C34.77 33.93, 33.93 34.77, 33.04 35.52 C32.15 36.27, 31.17 36.95, 30.17 37.53 C29.16 38.11, 28.08 38.61, 26.99 39.01 C25.9 39.41, 24.75 39.71, 23.6 39.92 C22.46 40.12, 21.28 40.22, 20.11 40.22 C18.95 40.22, 17.77 40.12, 16.62 39.92 C15.47 39.71, 14.33 39.41, 13.23 39.01 C12.14 38.61, 11.06 38.11, 10.06 37.53 C9.05 36.95, 8.08 36.27, 7.18 35.52 C6.29 34.77, 5.45 33.93, 4.71 33.04 C3.96 32.15, 3.28 31.17, 2.69 30.17 C2.11 29.16, 1.61 28.08, 1.21 26.99 C0.81 25.9, 0.51 24.75, 0.31 23.6 C0.1 22.46, 0 21.28, 0 20.11 C0 18.95, 0.1 17.77, 0.31 16.62 C0.51 15.47, 0.81 14.33, 1.21 13.23 C1.61 12.14, 2.11 11.06, 2.69 10.06 C3.28 9.05, 3.96 8.08, 4.71 7.18 C5.45 6.29, 6.29 5.45, 7.18 4.71 C8.08 3.96, 9.05 3.28, 10.06 2.69 C11.06 2.11, 12.14 1.61, 13.23 1.21 C14.33 0.81, 15.47 0.51, 16.62 0.31 C17.77 0.1, 18.95 0, 20.11 0 C21.28 0, 22.46 0.1, 23.6 0.31 C24.75 0.51, 25.9 0.81, 26.99 1.21 C28.08 1.61, 29.16 2.11, 30.17 2.69 C31.17 3.28, 32.15 3.96, 33.04 4.71 C33.93 5.45, 34.77 6.29, 35.52 7.18 C36.27 8.08, 36.95 9.05, 37.53 10.06 C38.11 11.06, 38.61 12.14, 39.01 13.23 C39.41 14.33, 39.71 15.47, 39.92 16.62 C40.12 17.77, 40.17 19.53, 40.22 20.11 C40.27 20.69, 40.27 19.53, 40.22 20.11" stroke="#000000" stroke-width="1" fill="none"></path></g><g stroke-linecap="round" transform="translate(14.731792489433701 71.20978123708437) rotate(0 11.379198999411543 11.379198999411528)"><path d="M22.76 11.38 C22.76 12.04, 22.7 12.71, 22.59 13.36 C22.47 14, 22.3 14.65, 22.07 15.27 C21.85 15.89, 21.56 16.5, 21.23 17.07 C20.9 17.64, 20.52 18.19, 20.1 18.69 C19.67 19.2, 19.2 19.67, 18.69 20.1 C18.19 20.52, 17.64 20.9, 17.07 21.23 C16.5 21.56, 15.89 21.85, 15.27 22.07 C14.65 22.3, 14 22.47, 13.36 22.59 C12.71 22.7, 12.04 22.76, 11.38 22.76 C10.72 22.76, 10.05 22.7, 9.4 22.59 C8.75 22.47, 8.11 22.3, 7.49 22.07 C6.87 21.85, 6.26 21.56, 5.69 21.23 C5.12 20.9, 4.57 20.52, 4.06 20.1 C3.56 19.67, 3.09 19.2, 2.66 18.69 C2.24 18.19, 1.85 17.64, 1.52 17.07 C1.2 16.5, 0.91 15.89, 0.69 15.27 C0.46 14.65, 0.29 14, 0.17 13.36 C0.06 12.71, 0 12.04, 0 11.38 C0 10.72, 0.06 10.05, 0.17 9.4 C0.29 8.75, 0.46 8.11, 0.69 7.49 C0.91 6.87, 1.2 6.26, 1.52 5.69 C1.85 5.12, 2.24 4.57, 2.66 4.06 C3.09 3.56, 3.56 3.09, 4.06 2.66 C4.57 2.24, 5.12 1.85, 5.69 1.52 C6.26 1.2, 6.87 0.91, 7.49 0.69 C8.11 0.46, 8.75 0.29, 9.4 0.17 C10.05 0.06, 10.72 0, 11.38 0 C12.04 0, 12.71 0.06, 13.36 0.17 C14 0.29, 14.65 0.46, 15.27 0.69 C15.89 0.91, 16.5 1.2, 17.07 1.52 C17.64 1.85, 18.19 2.24, 18.69 2.66 C19.2 3.09, 19.67 3.56, 20.1 4.06 C20.52 4.57, 20.9 5.12, 21.23 5.69 C21.56 6.26, 21.85 6.87, 22.07 7.49 C22.3 8.11, 22.47 8.75, 22.59 9.4 C22.7 10.05, 22.73 11.05, 22.76 11.38 C22.79 11.71, 22.79 11.05, 22.76 11.38" stroke="none" stroke-width="0" fill="#fff"></path><path d="M22.76 11.38 C22.76 12.04, 22.7 12.71, 22.59 13.36 C22.47 14, 22.3 14.65, 22.07 15.27 C21.85 15.89, 21.56 16.5, 21.23 17.07 C20.9 17.64, 20.52 18.19, 20.1 18.69 C19.67 19.2, 19.2 19.67, 18.69 20.1 C18.19 20.52, 17.64 20.9, 17.07 21.23 C16.5 21.56, 15.89 21.85, 15.27 22.07 C14.65 22.3, 14 22.47, 13.36 22.59 C12.71 22.7, 12.04 22.76, 11.38 22.76 C10.72 22.76, 10.05 22.7, 9.4 22.59 C8.75 22.47, 8.11 22.3, 7.49 22.07 C6.87 21.85, 6.26 21.56, 5.69 21.23 C5.12 20.9, 4.57 20.52, 4.06 20.1 C3.56 19.67, 3.09 19.2, 2.66 18.69 C2.24 18.19, 1.85 17.64, 1.52 17.07 C1.2 16.5, 0.91 15.89, 0.69 15.27 C0.46 14.65, 0.29 14, 0.17 13.36 C0.06 12.71, 0 12.04, 0 11.38 C0 10.72, 0.06 10.05, 0.17 9.4 C0.29 8.75, 0.46 8.11, 0.69 7.49 C0.91 6.87, 1.2 6.26, 1.52 5.69 C1.85 5.12, 2.24 4.57, 2.66 4.06 C3.09 3.56, 3.56 3.09, 4.06 2.66 C4.57 2.24, 5.12 1.85, 5.69 1.52 C6.26 1.2, 6.87 0.91, 7.49 0.69 C8.11 0.46, 8.75 0.29, 9.4 0.17 C10.05 0.06, 10.72 0, 11.38 0 C12.04 0, 12.71 0.06, 13.36 0.17 C14 0.29, 14.65 0.46, 15.27 0.69 C15.89 0.91, 16.5 1.2, 17.07 1.52 C17.64 1.85, 18.19 2.24, 18.69 2.66 C19.2 3.09, 19.67 3.56, 20.1 4.06 C20.52 4.57, 20.9 5.12, 21.23 5.69 C21.56 6.26, 21.85 6.87, 22.07 7.49 C22.3 8.11, 22.47 8.75, 22.59 9.4 C22.7 10.05, 22.73 11.05, 22.76 11.38 C22.79 11.71, 22.79 11.05, 22.76 11.38" stroke="#000000" stroke-width="1" fill="none"></path></g><g stroke-linecap="round"><g transform="translate(203.1620303413215 30.987794173263865) rotate(0 -52.66942349947243 52.66943780092447)" fill-rule="evenodd"><path d="M0 0 L0 0 L-2.69 -2.56 L-5.49 -4.98 L-8.38 -7.24 L-11.37 -9.35 L-14.45 -11.3 L-17.61 -13.09 L-20.85 -14.72 L-24.16 -16.19 L-27.54 -17.5 L-30.98 -18.63 L-34.48 -19.6 L-38.03 -20.4 L-41.63 -21.02 L-45.28 -21.47 L-48.96 -21.74 L-52.67 -21.83 L-56.38 -21.74 L-60.06 -21.47 L-63.71 -21.02 L-67.31 -20.4 L-70.86 -19.6 L-74.36 -18.63 L-77.8 -17.5 L-81.18 -16.19 L-84.49 -14.72 L-87.73 -13.09 L-90.89 -11.3 L-93.97 -9.35 L-96.96 -7.24 L-99.85 -4.98 L-102.65 -2.56 L-105.34 0 L-107.9 2.69 L-110.32 5.49 L-112.58 8.38 L-114.69 11.37 L-116.64 14.45 L-118.43 17.61 L-120.06 20.85 L-121.53 24.16 L-122.84 27.54 L-123.97 30.98 L-124.94 34.48 L-125.74 38.03 L-126.36 41.63 L-126.81 45.28 L-127.08 48.96 L-127.17 52.67 L-127.08 56.38 L-126.81 60.06 L-126.36 63.71 L-125.74 67.31 L-124.94 70.86 L-123.97 74.36 L-122.84 77.8 L-121.53 81.18 L-120.06 84.49 L-118.43 87.73 L-116.64 90.89 L-114.69 93.97 L-112.58 96.96 L-110.32 99.85 L-107.9 102.65 L-105.34 105.34 L-102.65 107.9 L-99.85 110.32 L-96.96 112.58 L-93.97 114.69 L-90.89 116.64 L-87.73 118.43 L-84.49 120.06 L-81.18 121.53 L-77.8 122.84 L-74.36 123.97 L-70.86 124.94 L-67.31 125.74 L-63.71 126.36 L-60.06 126.81 L-56.38 127.08 L-52.67 127.17 L-48.96 127.08 L-45.28 126.81 L-41.63 126.36 L-38.03 125.74 L-34.48 124.94 L-30.98 123.97 L-27.54 122.84 L-24.16 121.53 L-20.85 120.06 L-17.61 118.43 L-14.45 116.64 L-11.37 114.69 L-8.38 112.58 L-5.49 110.32 L-2.69 107.9 L0 105.34 L2.56 102.65 L4.98 99.85 L7.24 96.96 L9.35 93.97 L11.3 90.89 L13.09 87.73 L14.72 84.49 L16.19 81.18 L17.5 77.8 L18.63 74.36 L19.6 70.86 L20.4 67.31 L21.02 63.71 L21.47 60.06 L21.74 56.38 L21.83 52.67 L21.74 48.96 L21.47 45.28 L21.02 41.63 L20.4 38.03 L19.6 34.48 L18.63 30.98 L17.5 27.54 L16.19 24.16 L14.72 20.85 L13.09 17.61 L11.3 14.45 L9.35 11.37 L7.24 8.38 L4.98 5.49 L2.56 2.69 L0 0 L0 0" stroke="none" stroke-width="0" fill="#4285f4" fill-rule="evenodd"></path><path d="M0 0 C0 0, 0 0, 0 0 M0 0 C0 0, 0 0, 0 0 M0 0 C-1.04 -0.99, -2.08 -1.98, -2.69 -2.56 M0 0 C-0.96 -0.92, -1.93 -1.84, -2.69 -2.56 M-2.69 -2.56 C-3.75 -3.47, -4.8 -4.38, -5.49 -4.98 M-2.69 -2.56 C-3.42 -3.19, -4.15 -3.82, -5.49 -4.98 M-5.49 -4.98 C-6.1 -5.46, -6.72 -5.94, -8.38 -7.24 M-5.49 -4.98 C-6.42 -5.7, -7.35 -6.43, -8.38 -7.24 M-8.38 -7.24 C-9.06 -7.72, -9.74 -8.19, -11.37 -9.35 M-8.38 -7.24 C-9.41 -7.97, -10.44 -8.69, -11.37 -9.35 M-11.37 -9.35 C-12.25 -9.91, -13.13 -10.46, -14.45 -11.3 M-11.37 -9.35 C-12.58 -10.11, -13.78 -10.88, -14.45 -11.3 M-14.45 -11.3 C-15.67 -11.99, -16.9 -12.69, -17.61 -13.09 M-14.45 -11.3 C-15.19 -11.72, -15.92 -12.14, -17.61 -13.09 M-17.61 -13.09 C-18.76 -13.67, -19.92 -14.26, -20.85 -14.72 M-17.61 -13.09 C-18.59 -13.58, -19.56 -14.08, -20.85 -14.72 M-20.85 -14.72 C-21.65 -15.08, -22.45 -15.43, -24.16 -16.19 M-20.85 -14.72 C-21.98 -15.23, -23.12 -15.73, -24.16 -16.19 M-24.16 -16.19 C-24.87 -16.47, -25.59 -16.74, -27.54 -17.5 M-24.16 -16.19 C-25.42 -16.68, -26.68 -17.16, -27.54 -17.5 M-27.54 -17.5 C-28.76 -17.9, -29.98 -18.3, -30.98 -18.63 M-27.54 -17.5 C-28.66 -17.87, -29.78 -18.24, -30.98 -18.63 M-30.98 -18.63 C-32.28 -18.99, -33.58 -19.35, -34.48 -19.6 M-30.98 -18.63 C-31.73 -18.84, -32.48 -19.05, -34.48 -19.6 M-34.48 -19.6 C-35.82 -19.9, -37.17 -20.2, -38.03 -20.4 M-34.48 -19.6 C-35.81 -19.9, -37.14 -20.2, -38.03 -20.4 M-38.03 -20.4 C-39.46 -20.64, -40.88 -20.89, -41.63 -21.02 M-38.03 -20.4 C-38.84 -20.54, -39.65 -20.68, -41.63 -21.02 M-41.63 -21.02 C-42.91 -21.18, -44.19 -21.34, -45.28 -21.47 M-41.63 -21.02 C-42.79 -21.16, -43.94 -21.3, -45.28 -21.47 M-45.28 -21.47 C-46.66 -21.57, -48.04 -21.67, -48.96 -21.74 M-45.28 -21.47 C-46.35 -21.55, -47.42 -21.63, -48.96 -21.74 M-48.96 -21.74 C-50.44 -21.78, -51.91 -21.81, -52.67 -21.83 M-48.96 -21.74 C-50.17 -21.77, -51.37 -21.8, -52.67 -21.83 M-52.67 -21.83 C-53.57 -21.81, -54.48 -21.79, -56.38 -21.74 M-52.67 -21.83 C-53.75 -21.8, -54.84 -21.78, -56.38 -21.74 M-56.38 -21.74 C-57.22 -21.68, -58.07 -21.62, -60.06 -21.47 M-56.38 -21.74 C-57.15 -21.68, -57.92 -21.63, -60.06 -21.47 M-60.06 -21.47 C-61.02 -21.35, -61.98 -21.23, -63.71 -21.02 M-60.06 -21.47 C-61.49 -21.29, -62.93 -21.12, -63.71 -21.02 M-63.71 -21.02 C-64.57 -20.87, -65.43 -20.72, -67.31 -20.4 M-63.71 -21.02 C-64.84 -20.82, -65.97 -20.63, -67.31 -20.4 M-67.31 -20.4 C-68.5 -20.13, -69.69 -19.86, -70.86 -19.6 M-67.31 -20.4 C-68.55 -20.12, -69.79 -19.84, -70.86 -19.6 M-70.86 -19.6 C-71.6 -19.4, -72.34 -19.19, -74.36 -18.63 M-70.86 -19.6 C-71.66 -19.38, -72.47 -19.16, -74.36 -18.63 M-74.36 -18.63 C-75.39 -18.29, -76.43 -17.95, -77.8 -17.5 M-74.36 -18.63 C-75.06 -18.4, -75.76 -18.17, -77.8 -17.5 M-77.8 -17.5 C-78.52 -17.22, -79.24 -16.94, -81.18 -16.19 M-77.8 -17.5 C-78.75 -17.13, -79.71 -16.76, -81.18 -16.19 M-81.18 -16.19 C-81.94 -15.86, -82.7 -15.52, -84.49 -14.72 M-81.18 -16.19 C-82.48 -15.62, -83.78 -15.04, -84.49 -14.72 M-84.49 -14.72 C-85.46 -14.24, -86.42 -13.75, -87.73 -13.09 M-84.49 -14.72 C-85.25 -14.34, -86.01 -13.96, -87.73 -13.09 M-87.73 -13.09 C-88.78 -12.5, -89.83 -11.9, -90.89 -11.3 M-87.73 -13.09 C-88.47 -12.67, -89.21 -12.25, -90.89 -11.3 M-90.89 -11.3 C-91.53 -10.9, -92.16 -10.49, -93.97 -9.35 M-90.89 -11.3 C-92.1 -10.53, -93.31 -9.77, -93.97 -9.35 M-93.97 -9.35 C-94.73 -8.81, -95.49 -8.27, -96.96 -7.24 M-93.97 -9.35 C-94.69 -8.84, -95.42 -8.32, -96.96 -7.24 M-96.96 -7.24 C-97.72 -6.64, -98.49 -6.04, -99.85 -4.98 M-96.96 -7.24 C-97.82 -6.56, -98.69 -5.88, -99.85 -4.98 M-99.85 -4.98 C-100.91 -4.07, -101.96 -3.16, -102.65 -2.56 M-99.85 -4.98 C-100.46 -4.45, -101.07 -3.93, -102.65 -2.56 M-102.65 -2.56 C-103.41 -1.84, -104.17 -1.11, -105.34 0 M-102.65 -2.56 C-103.29 -1.95, -103.93 -1.34, -105.34 0 M-105.34 0 C-106.15 0.86, -106.97 1.71, -107.9 2.69 M-105.34 0 C-106.23 0.94, -107.13 1.88, -107.9 2.69 M-107.9 2.69 C-108.53 3.42, -109.16 4.15, -110.32 5.49 M-107.9 2.69 C-108.7 3.62, -109.5 4.54, -110.32 5.49 M-110.32 5.49 C-110.84 6.15, -111.36 6.82, -112.58 8.38 M-110.32 5.49 C-111.03 6.4, -111.74 7.31, -112.58 8.38 M-112.58 8.38 C-113.17 9.22, -113.76 10.06, -114.69 11.37 M-112.58 8.38 C-113.07 9.09, -113.57 9.79, -114.69 11.37 M-114.69 11.37 C-115.27 12.3, -115.86 13.22, -116.64 14.45 M-114.69 11.37 C-115.43 12.55, -116.18 13.72, -116.64 14.45 M-116.64 14.45 C-117.02 15.11, -117.39 15.78, -118.43 17.61 M-116.64 14.45 C-117.09 15.25, -117.55 16.05, -118.43 17.61 M-118.43 17.61 C-118.85 18.44, -119.27 19.27, -120.06 20.85 M-118.43 17.61 C-118.93 18.61, -119.44 19.61, -120.06 20.85 M-120.06 20.85 C-120.37 21.54, -120.68 22.23, -121.53 24.16 M-120.06 20.85 C-120.39 21.59, -120.72 22.32, -121.53 24.16 M-121.53 24.16 C-121.87 25.03, -122.21 25.91, -122.84 27.54 M-121.53 24.16 C-121.84 24.97, -122.16 25.78, -122.84 27.54 M-122.84 27.54 C-123.08 28.28, -123.32 29.02, -123.97 30.98 M-122.84 27.54 C-123.09 28.3, -123.34 29.07, -123.97 30.98 M-123.97 30.98 C-124.17 31.69, -124.36 32.4, -124.94 34.48 M-123.97 30.98 C-124.18 31.71, -124.38 32.45, -124.94 34.48 M-124.94 34.48 C-125.14 35.39, -125.35 36.31, -125.74 38.03 M-124.94 34.48 C-125.15 35.43, -125.37 36.39, -125.74 38.03 M-125.74 38.03 C-125.88 38.83, -126.01 39.63, -126.36 41.63 M-125.74 38.03 C-125.89 38.91, -126.04 39.79, -126.36 41.63 M-126.36 41.63 C-126.52 42.9, -126.67 44.17, -126.81 45.28 M-126.36 41.63 C-126.46 42.42, -126.55 43.21, -126.81 45.28 M-126.81 45.28 C-126.91 46.7, -127.02 48.12, -127.08 48.96 M-126.81 45.28 C-126.88 46.21, -126.94 47.14, -127.08 48.96 M-127.08 48.96 C-127.11 50.4, -127.15 51.83, -127.17 52.67 M-127.08 48.96 C-127.1 49.93, -127.13 50.9, -127.17 52.67 M-127.17 52.67 C-127.13 54.15, -127.1 55.63, -127.08 56.38 M-127.17 52.67 C-127.14 53.94, -127.11 55.2, -127.08 56.38 M-127.08 56.38 C-127.01 57.34, -126.94 58.3, -126.81 60.06 M-127.08 56.38 C-127.01 57.26, -126.95 58.13, -126.81 60.06 M-126.81 60.06 C-126.67 61.16, -126.54 62.25, -126.36 63.71 M-126.81 60.06 C-126.67 61.15, -126.54 62.23, -126.36 63.71 M-126.36 63.71 C-126.15 64.92, -125.94 66.13, -125.74 67.31 M-126.36 63.71 C-126.16 64.85, -125.96 66, -125.74 67.31 M-125.74 67.31 C-125.44 68.62, -125.15 69.92, -124.94 70.86 M-125.74 67.31 C-125.49 68.39, -125.25 69.47, -124.94 70.86 M-124.94 70.86 C-124.58 72.17, -124.21 73.49, -123.97 74.36 M-124.94 70.86 C-124.63 71.96, -124.33 73.07, -123.97 74.36 M-123.97 74.36 C-123.73 75.1, -123.48 75.84, -122.84 77.8 M-123.97 74.36 C-123.71 75.15, -123.45 75.93, -122.84 77.8 M-122.84 77.8 C-122.55 78.54, -122.27 79.27, -121.53 81.18 M-122.84 77.8 C-122.34 79.09, -121.84 80.37, -121.53 81.18 M-121.53 81.18 C-121.11 82.13, -120.69 83.08, -120.06 84.49 M-121.53 81.18 C-121.05 82.27, -120.56 83.36, -120.06 84.49 M-120.06 84.49 C-119.58 85.44, -119.1 86.39, -118.43 87.73 M-120.06 84.49 C-119.57 85.47, -119.07 86.46, -118.43 87.73 M-118.43 87.73 C-117.76 88.9, -117.1 90.08, -116.64 90.89 M-118.43 87.73 C-117.8 88.85, -117.16 89.97, -116.64 90.89 M-116.64 90.89 C-116.02 91.87, -115.4 92.84, -114.69 93.97 M-116.64 90.89 C-116.22 91.55, -115.81 92.2, -114.69 93.97 M-114.69 93.97 C-114.08 94.82, -113.48 95.68, -112.58 96.96 M-114.69 93.97 C-114.18 94.68, -113.68 95.4, -112.58 96.96 M-112.58 96.96 C-111.7 98.08, -110.82 99.21, -110.32 99.85 M-112.58 96.96 C-111.95 97.76, -111.32 98.57, -110.32 99.85 M-110.32 99.85 C-109.38 100.94, -108.44 102.03, -107.9 102.65 M-110.32 99.85 C-109.81 100.44, -109.3 101.03, -107.9 102.65 M-107.9 102.65 C-107.14 103.45, -106.38 104.25, -105.34 105.34 M-107.9 102.65 C-107.37 103.2, -106.84 103.76, -105.34 105.34 M-105.34 105.34 C-104.61 106.04, -103.87 106.74, -102.65 107.9 M-105.34 105.34 C-104.58 106.06, -103.83 106.78, -102.65 107.9 M-102.65 107.9 C-102.05 108.42, -101.45 108.94, -99.85 110.32 M-102.65 107.9 C-101.68 108.73, -100.72 109.57, -99.85 110.32 M-99.85 110.32 C-99.09 110.91, -98.33 111.51, -96.96 112.58 M-99.85 110.32 C-98.82 111.12, -97.79 111.93, -96.96 112.58 M-96.96 112.58 C-95.77 113.42, -94.58 114.25, -93.97 114.69 M-96.96 112.58 C-95.83 113.37, -94.7 114.17, -93.97 114.69 M-93.97 114.69 C-92.97 115.32, -91.96 115.96, -90.89 116.64 M-93.97 114.69 C-92.96 115.32, -91.96 115.96, -90.89 116.64 M-90.89 116.64 C-89.97 117.16, -89.05 117.68, -87.73 118.43 M-90.89 116.64 C-90.16 117.05, -89.44 117.46, -87.73 118.43 M-87.73 118.43 C-86.56 119.02, -85.4 119.61, -84.49 120.06 M-87.73 118.43 C-86.52 119.04, -85.3 119.66, -84.49 120.06 M-84.49 120.06 C-83.74 120.39, -82.99 120.73, -81.18 121.53 M-84.49 120.06 C-83.28 120.6, -82.07 121.14, -81.18 121.53 M-81.18 121.53 C-80.16 121.93, -79.13 122.32, -77.8 122.84 M-81.18 121.53 C-80.26 121.89, -79.34 122.24, -77.8 122.84 M-77.8 122.84 C-76.7 123.2, -75.6 123.56, -74.36 123.97 M-77.8 122.84 C-76.81 123.16, -75.82 123.49, -74.36 123.97 M-74.36 123.97 C-73.57 124.19, -72.78 124.41, -70.86 124.94 M-74.36 123.97 C-73.38 124.24, -72.41 124.51, -70.86 124.94 M-70.86 124.94 C-69.53 125.24, -68.2 125.54, -67.31 125.74 M-70.86 124.94 C-70.01 125.13, -69.16 125.32, -67.31 125.74 M-67.31 125.74 C-66.46 125.88, -65.62 126.03, -63.71 126.36 M-67.31 125.74 C-66.43 125.89, -65.56 126.04, -63.71 126.36 M-63.71 126.36 C-62.33 126.53, -60.96 126.7, -60.06 126.81 M-63.71 126.36 C-62.62 126.49, -61.54 126.63, -60.06 126.81 M-60.06 126.81 C-58.68 126.91, -57.3 127.01, -56.38 127.08 M-60.06 126.81 C-58.96 126.89, -57.85 126.97, -56.38 127.08 M-56.38 127.08 C-55.63 127.1, -54.88 127.11, -52.67 127.17 M-56.38 127.08 C-55.32 127.1, -54.26 127.13, -52.67 127.17 M-52.67 127.17 C-51.46 127.14, -50.24 127.11, -48.96 127.08 M-52.67 127.17 C-51.25 127.13, -49.84 127.1, -48.96 127.08 M-48.96 127.08 C-47.81 126.99, -46.67 126.91, -45.28 126.81 M-48.96 127.08 C-47.99 127.01, -47.03 126.94, -45.28 126.81 M-45.28 126.81 C-44.17 126.67, -43.05 126.53, -41.63 126.36 M-45.28 126.81 C-44.18 126.67, -43.09 126.54, -41.63 126.36 M-41.63 126.36 C-40.74 126.21, -39.85 126.05, -38.03 125.74 M-41.63 126.36 C-40.83 126.22, -40.02 126.08, -38.03 125.74 M-38.03 125.74 C-36.75 125.45, -35.47 125.16, -34.48 124.94 M-38.03 125.74 C-37.1 125.53, -36.16 125.32, -34.48 124.94 M-34.48 124.94 C-33.27 124.6, -32.06 124.27, -30.98 123.97 M-34.48 124.94 C-33.75 124.74, -33.02 124.54, -30.98 123.97 M-30.98 123.97 C-30.01 123.65, -29.03 123.33, -27.54 122.84 M-30.98 123.97 C-29.73 123.56, -28.48 123.15, -27.54 122.84 M-27.54 122.84 C-26.78 122.54, -26.03 122.25, -24.16 121.53 M-27.54 122.84 C-26.21 122.32, -24.88 121.81, -24.16 121.53 M-24.16 121.53 C-23.19 121.1, -22.22 120.67, -20.85 120.06 M-24.16 121.53 C-23.22 121.11, -22.28 120.7, -20.85 120.06 M-20.85 120.06 C-19.93 119.6, -19.01 119.14, -17.61 118.43 M-20.85 120.06 C-19.58 119.42, -18.31 118.79, -17.61 118.43 M-17.61 118.43 C-16.5 117.8, -15.39 117.17, -14.45 116.64 M-17.61 118.43 C-16.35 117.72, -15.1 117.01, -14.45 116.64 M-14.45 116.64 C-13.78 116.22, -13.12 115.8, -11.37 114.69 M-14.45 116.64 C-13.34 115.94, -12.24 115.24, -11.37 114.69 M-11.37 114.69 C-10.61 114.15, -9.86 113.62, -8.38 112.58 M-11.37 114.69 C-10.58 114.13, -9.79 113.57, -8.38 112.58 M-8.38 112.58 C-7.52 111.91, -6.66 111.24, -5.49 110.32 M-8.38 112.58 C-7.55 111.93, -6.71 111.28, -5.49 110.32 M-5.49 110.32 C-4.56 109.52, -3.64 108.72, -2.69 107.9 M-5.49 110.32 C-4.54 109.5, -3.6 108.69, -2.69 107.9 M-2.69 107.9 C-1.92 107.16, -1.14 106.43, 0 105.34 M-2.69 107.9 C-1.85 107.1, -1.01 106.3, 0 105.34 M0 105.34 C0.9 104.4, 1.79 103.46, 2.56 102.65 M0 105.34 C0.65 104.65, 1.31 103.97, 2.56 102.65 M2.56 102.65 C3.38 101.7, 4.19 100.76, 4.98 99.85 M2.56 102.65 C3.05 102.08, 3.54 101.51, 4.98 99.85 M4.98 99.85 C5.46 99.23, 5.94 98.62, 7.24 96.96 M4.98 99.85 C5.76 98.85, 6.54 97.85, 7.24 96.96 M7.24 96.96 C7.82 96.13, 8.41 95.3, 9.35 93.97 M7.24 96.96 C7.81 96.15, 8.38 95.34, 9.35 93.97 M9.35 93.97 C9.86 93.16, 10.37 92.36, 11.3 90.89 M9.35 93.97 C9.98 92.97, 10.62 91.97, 11.3 90.89 M11.3 90.89 C11.89 89.85, 12.47 88.82, 13.09 87.73 M11.3 90.89 C11.77 90.06, 12.24 89.22, 13.09 87.73 M13.09 87.73 C13.69 86.54, 14.29 85.35, 14.72 84.49 M13.09 87.73 C13.42 87.08, 13.75 86.42, 14.72 84.49 M14.72 84.49 C15.3 83.18, 15.88 81.88, 16.19 81.18 M14.72 84.49 C15.12 83.59, 15.52 82.69, 16.19 81.18 M16.19 81.18 C16.51 80.35, 16.83 79.53, 17.5 77.8 M16.19 81.18 C16.68 79.92, 17.16 78.66, 17.5 77.8 M17.5 77.8 C17.92 76.53, 18.34 75.26, 18.63 74.36 M17.5 77.8 C17.75 77.03, 18.01 76.26, 18.63 74.36 M18.63 74.36 C18.96 73.18, 19.29 71.99, 19.6 70.86 M18.63 74.36 C18.94 73.24, 19.25 72.12, 19.6 70.86 M19.6 70.86 C19.78 70.04, 19.97 69.23, 20.4 67.31 M19.6 70.86 C19.91 69.49, 20.21 68.12, 20.4 67.31 M20.4 67.31 C20.6 66.11, 20.81 64.92, 21.02 63.71 M20.4 67.31 C20.6 66.15, 20.8 65, 21.02 63.71 M21.02 63.71 C21.17 62.48, 21.32 61.25, 21.47 60.06 M21.02 63.71 C21.14 62.75, 21.26 61.8, 21.47 60.06 M21.47 60.06 C21.53 59.17, 21.6 58.27, 21.74 56.38 M21.47 60.06 C21.56 58.84, 21.65 57.61, 21.74 56.38 M21.74 56.38 C21.77 55.11, 21.8 53.84, 21.83 52.67 M21.74 56.38 C21.77 55.27, 21.79 54.16, 21.83 52.67 M21.83 52.67 C21.8 51.45, 21.77 50.24, 21.74 48.96 M21.83 52.67 C21.8 51.51, 21.77 50.34, 21.74 48.96 M21.74 48.96 C21.66 47.92, 21.59 46.89, 21.47 45.28 M21.74 48.96 C21.64 47.56, 21.53 46.16, 21.47 45.28 M21.47 45.28 C21.3 43.91, 21.13 42.54, 21.02 41.63 M21.47 45.28 C21.33 44.18, 21.2 43.08, 21.02 41.63 M21.02 41.63 C20.85 40.65, 20.68 39.67, 20.4 38.03 M21.02 41.63 C20.82 40.45, 20.61 39.26, 20.4 38.03 M20.4 38.03 C20.23 37.27, 20.06 36.51, 19.6 34.48 M20.4 38.03 C20.14 36.87, 19.88 35.72, 19.6 34.48 M19.6 34.48 C19.38 33.7, 19.17 32.91, 18.63 30.98 M19.6 34.48 C19.4 33.75, 19.2 33.02, 18.63 30.98 M18.63 30.98 C18.4 30.28, 18.17 29.57, 17.5 27.54 M18.63 30.98 C18.28 29.92, 17.93 28.86, 17.5 27.54 M17.5 27.54 C17.07 26.42, 16.64 25.31, 16.19 24.16 M17.5 27.54 C17.21 26.8, 16.93 26.06, 16.19 24.16 M16.19 24.16 C15.68 23.01, 15.18 21.87, 14.72 20.85 M16.19 24.16 C15.67 22.99, 15.15 21.81, 14.72 20.85 M14.72 20.85 C14.12 19.66, 13.52 18.47, 13.09 17.61 M14.72 20.85 C14.07 19.55, 13.42 18.26, 13.09 17.61 M13.09 17.61 C12.42 16.43, 11.75 15.25, 11.3 14.45 M13.09 17.61 C12.62 16.78, 12.15 15.95, 11.3 14.45 M11.3 14.45 C10.9 13.82, 10.51 13.2, 9.35 11.37 M11.3 14.45 C10.65 13.43, 10.01 12.42, 9.35 11.37 M9.35 11.37 C8.81 10.61, 8.27 9.84, 7.24 8.38 M9.35 11.37 C8.89 10.72, 8.42 10.06, 7.24 8.38 M7.24 8.38 C6.59 7.56, 5.95 6.73, 4.98 5.49 M7.24 8.38 C6.72 7.72, 6.2 7.05, 4.98 5.49 M4.98 5.49 C4.25 4.65, 3.53 3.81, 2.56 2.69 M4.98 5.49 C4.25 4.65, 3.53 3.81, 2.56 2.69 M2.56 2.69 C1.66 1.74, 0.75 0.79, 0 0 M2.56 2.69 C1.91 2, 1.25 1.31, 0 0 M0 0 C0 0, 0 0, 0 0 M0 0 C0 0, 0 0, 0 0 M0 0 C0 0, 0 0, 0 0 M0 0 C0 0, 0 0, 0 0" stroke="#000000" stroke-width="1" fill="none"></path></g></g><mask></mask><g stroke-linecap="round" transform="translate(91.50655608097713 24.67117780820945) rotate(0 58.986053484957154 58.98605348495721)"><path d="M117.97 58.99 C117.97 61.36, 117.83 63.74, 117.54 66.1 C117.26 68.45, 116.83 70.8, 116.26 73.1 C115.69 75.4, 114.98 77.69, 114.14 79.9 C113.3 82.12, 112.32 84.3, 111.22 86.4 C110.11 88.5, 108.88 90.54, 107.53 92.49 C106.18 94.44, 104.71 96.33, 103.14 98.1 C101.57 99.88, 99.88 101.57, 98.1 103.14 C96.33 104.71, 94.44 106.18, 92.49 107.53 C90.54 108.88, 88.5 110.11, 86.4 111.22 C84.3 112.32, 82.12 113.3, 79.9 114.14 C77.69 114.98, 75.4 115.69, 73.1 116.26 C70.8 116.83, 68.45 117.26, 66.1 117.54 C63.74 117.83, 61.36 117.97, 58.99 117.97 C56.62 117.97, 54.23 117.83, 51.88 117.54 C49.52 117.26, 47.17 116.83, 44.87 116.26 C42.57 115.69, 40.29 114.98, 38.07 114.14 C35.85 113.3, 33.67 112.32, 31.57 111.22 C29.48 110.11, 27.43 108.88, 25.48 107.53 C23.53 106.18, 21.65 104.71, 19.87 103.14 C18.1 101.57, 16.41 99.88, 14.83 98.1 C13.26 96.33, 11.79 94.44, 10.44 92.49 C9.1 90.54, 7.86 88.5, 6.76 86.4 C5.66 84.3, 4.67 82.12, 3.83 79.9 C2.99 77.69, 2.28 75.4, 1.71 73.1 C1.15 70.8, 0.72 68.45, 0.43 66.1 C0.14 63.74, 0 61.36, 0 58.99 C0 56.62, 0.14 54.23, 0.43 51.88 C0.72 49.52, 1.15 47.17, 1.71 44.87 C2.28 42.57, 2.99 40.29, 3.83 38.07 C4.67 35.85, 5.66 33.67, 6.76 31.57 C7.86 29.48, 9.1 27.43, 10.44 25.48 C11.79 23.53, 13.26 21.65, 14.83 19.87 C16.41 18.1, 18.1 16.41, 19.87 14.83 C21.65 13.26, 23.53 11.79, 25.48 10.44 C27.43 9.1, 29.48 7.86, 31.57 6.76 C33.67 5.66, 35.85 4.67, 38.07 3.83 C40.29 2.99, 42.57 2.28, 44.87 1.71 C47.17 1.15, 49.52 0.72, 51.88 0.43 C54.23 0.14, 56.62 0, 58.99 0 C61.36 0, 63.74 0.14, 66.1 0.43 C68.45 0.72, 70.8 1.15, 73.1 1.71 C75.4 2.28, 77.69 2.99, 79.9 3.83 C82.12 4.67, 84.3 5.66, 86.4 6.76 C88.5 7.86, 90.54 9.1, 92.49 10.44 C94.44 11.79, 96.33 13.26, 98.1 14.83 C99.88 16.41, 101.57 18.1, 103.14 19.87 C104.71 21.65, 106.18 23.53, 107.53 25.48 C108.88 27.43, 110.11 29.48, 111.22 31.57 C112.32 33.67, 113.3 35.85, 114.14 38.07 C114.98 40.29, 115.69 42.57, 116.26 44.87 C116.83 47.17, 117.26 49.52, 117.54 51.88 C117.83 54.23, 117.97 56.62, 117.97 58.99" stroke="none" stroke-width="0" fill="#fff"></path><path d="M117.97 58.99 C117.97 61.36, 117.83 63.74, 117.54 66.1 C117.26 68.45, 116.83 70.8, 116.26 73.1 C115.69 75.4, 114.98 77.69, 114.14 79.9 C113.3 82.12, 112.32 84.3, 111.22 86.4 C110.11 88.5, 108.88 90.54, 107.53 92.49 C106.18 94.44, 104.71 96.33, 103.14 98.1 C101.57 99.88, 99.88 101.57, 98.1 103.14 C96.33 104.71, 94.44 106.18, 92.49 107.53 C90.54 108.88, 88.5 110.11, 86.4 111.22 C84.3 112.32, 82.12 113.3, 79.9 114.14 C77.69 114.98, 75.4 115.69, 73.1 116.26 C70.8 116.83, 68.45 117.26, 66.1 117.54 C63.74 117.83, 61.36 117.97, 58.99 117.97 C56.62 117.97, 54.23 117.83, 51.88 117.54 C49.52 117.26, 47.17 116.83, 44.87 116.26 C42.57 115.69, 40.29 114.98, 38.07 114.14 C35.85 113.3, 33.67 112.32, 31.57 111.22 C29.48 110.11, 27.43 108.88, 25.48 107.53 C23.53 106.18, 21.65 104.71, 19.87 103.14 C18.1 101.57, 16.41 99.88, 14.83 98.1 C13.26 96.33, 11.79 94.44, 10.44 92.49 C9.1 90.54, 7.86 88.5, 6.76 86.4 C5.66 84.3, 4.67 82.12, 3.83 79.9 C2.99 77.69, 2.28 75.4, 1.71 73.1 C1.15 70.8, 0.72 68.45, 0.43 66.1 C0.14 63.74, 0 61.36, 0 58.99 C0 56.62, 0.14 54.23, 0.43 51.88 C0.72 49.52, 1.15 47.17, 1.71 44.87 C2.28 42.57, 2.99 40.29, 3.83 38.07 C4.67 35.85, 5.66 33.67, 6.76 31.57 C7.86 29.48, 9.1 27.43, 10.44 25.48 C11.79 23.53, 13.26 21.65, 14.83 19.87 C16.41 18.1, 18.1 16.41, 19.87 14.83 C21.65 13.26, 23.53 11.79, 25.48 10.44 C27.43 9.1, 29.48 7.86, 31.57 6.76 C33.67 5.66, 35.85 4.67, 38.07 3.83 C40.29 2.99, 42.57 2.28, 44.87 1.71 C47.17 1.15, 49.52 0.72, 51.88 0.43 C54.23 0.14, 56.62 0, 58.99 0 C61.36 0, 63.74 0.14, 66.1 0.43 C68.45 0.72, 70.8 1.15, 73.1 1.71 C75.4 2.28, 77.69 2.99, 79.9 3.83 C82.12 4.67, 84.3 5.66, 86.4 6.76 C88.5 7.86, 90.54 9.1, 92.49 10.44 C94.44 11.79, 96.33 13.26, 98.1 14.83 C99.88 16.41, 101.57 18.1, 103.14 19.87 C104.71 21.65, 106.18 23.53, 107.53 25.48 C108.88 27.43, 110.11 29.48, 111.22 31.57 C112.32 33.67, 113.3 35.85, 114.14 38.07 C114.98 40.29, 115.69 42.57, 116.26 44.87 C116.83 47.17, 117.26 49.52, 117.54 51.88 C117.83 54.23, 117.97 56.62, 117.97 58.99" stroke="#000000" stroke-width="1" fill="none"></path></g><g stroke-linecap="round" transform="translate(132.9825761944735 41.34518369838179) rotate(0 17.417142034448247 17.41714203444826)"><path d="M34.83 17.42 C34.83 18.43, 34.74 19.45, 34.57 20.44 C34.39 21.43, 34.13 22.43, 33.78 23.37 C33.44 24.32, 33 25.25, 32.5 26.13 C32 27, 31.41 27.84, 30.76 28.61 C30.11 29.38, 29.38 30.11, 28.61 30.76 C27.84 31.41, 27 32, 26.13 32.5 C25.25 33, 24.32 33.44, 23.37 33.78 C22.43 34.13, 21.43 34.39, 20.44 34.57 C19.45 34.74, 18.43 34.83, 17.42 34.83 C16.41 34.83, 15.39 34.74, 14.39 34.57 C13.4 34.39, 12.41 34.13, 11.46 33.78 C10.51 33.44, 9.58 33, 8.71 32.5 C7.84 32, 6.99 31.41, 6.22 30.76 C5.45 30.11, 4.72 29.38, 4.07 28.61 C3.43 27.84, 2.84 27, 2.33 26.13 C1.83 25.25, 1.4 24.32, 1.05 23.37 C0.71 22.43, 0.44 21.43, 0.26 20.44 C0.09 19.45, 0 18.43, 0 17.42 C0 16.41, 0.09 15.39, 0.26 14.39 C0.44 13.4, 0.71 12.41, 1.05 11.46 C1.4 10.51, 1.83 9.58, 2.33 8.71 C2.84 7.84, 3.43 6.99, 4.07 6.22 C4.72 5.45, 5.45 4.72, 6.22 4.07 C6.99 3.43, 7.84 2.84, 8.71 2.33 C9.58 1.83, 10.51 1.4, 11.46 1.05 C12.41 0.71, 13.4 0.44, 14.39 0.26 C15.39 0.09, 16.41 0, 17.42 0 C18.43 0, 19.45 0.09, 20.44 0.26 C21.43 0.44, 22.43 0.71, 23.37 1.05 C24.32 1.4, 25.25 1.83, 26.13 2.33 C27 2.84, 27.84 3.43, 28.61 4.07 C29.38 4.72, 30.11 5.45, 30.76 6.22 C31.41 6.99, 32 7.84, 32.5 8.71 C33 9.58, 33.44 10.51, 33.78 11.46 C34.13 12.41, 34.39 13.4, 34.57 14.39 C34.74 15.39, 34.79 16.91, 34.83 17.42 C34.88 17.92, 34.88 16.91, 34.83 17.42" stroke="none" stroke-width="0" fill="#669df6"></path><path d="M34.83 17.42 C34.83 18.43, 34.74 19.45, 34.57 20.44 C34.39 21.43, 34.13 22.43, 33.78 23.37 C33.44 24.32, 33 25.25, 32.5 26.13 C32 27, 31.41 27.84, 30.76 28.61 C30.11 29.38, 29.38 30.11, 28.61 30.76 C27.84 31.41, 27 32, 26.13 32.5 C25.25 33, 24.32 33.44, 23.37 33.78 C22.43 34.13, 21.43 34.39, 20.44 34.57 C19.45 34.74, 18.43 34.83, 17.42 34.83 C16.41 34.83, 15.39 34.74, 14.39 34.57 C13.4 34.39, 12.41 34.13, 11.46 33.78 C10.51 33.44, 9.58 33, 8.71 32.5 C7.84 32, 6.99 31.41, 6.22 30.76 C5.45 30.11, 4.72 29.38, 4.07 28.61 C3.43 27.84, 2.84 27, 2.33 26.13 C1.83 25.25, 1.4 24.32, 1.05 23.37 C0.71 22.43, 0.44 21.43, 0.26 20.44 C0.09 19.45, 0 18.43, 0 17.42 C0 16.41, 0.09 15.39, 0.26 14.39 C0.44 13.4, 0.71 12.41, 1.05 11.46 C1.4 10.51, 1.83 9.58, 2.33 8.71 C2.84 7.84, 3.43 6.99, 4.07 6.22 C4.72 5.45, 5.45 4.72, 6.22 4.07 C6.99 3.43, 7.84 2.84, 8.71 2.33 C9.58 1.83, 10.51 1.4, 11.46 1.05 C12.41 0.71, 13.4 0.44, 14.39 0.26 C15.39 0.09, 16.41 0, 17.42 0 C18.43 0, 19.45 0.09, 20.44 0.26 C21.43 0.44, 22.43 0.71, 23.37 1.05 C24.32 1.4, 25.25 1.83, 26.13 2.33 C27 2.84, 27.84 3.43, 28.61 4.07 C29.38 4.72, 30.11 5.45, 30.76 6.22 C31.41 6.99, 32 7.84, 32.5 8.71 C33 9.58, 33.44 10.51, 33.78 11.46 C34.13 12.41, 34.39 13.4, 34.57 14.39 C34.74 15.39, 34.79 16.91, 34.83 17.42 C34.88 17.92, 34.88 16.91, 34.83 17.42" stroke="#000000" stroke-width="1" fill="none"></path></g><g stroke-linecap="round"><g transform="translate(150.77128357697347 82.86765492855648) rotate(0 0.06967122684585547 16.92945979104411)" fill-rule="evenodd"><path d="M0 0 L0 0 L-3.18 0.13 L-6.31 0.5 L-9.38 1.08 L-12.36 1.85 L-15.22 2.79 L-17.95 3.86 L-20.53 5.05 L-22.93 6.33 L-25.12 7.67 L-27.1 9.04 L-28.83 10.42 L-30.3 11.8 L-31.48 13.13 L-32.35 14.39 L-32.66 14.99 L-32.89 15.57 L-33.02 16.11 L-33.07 16.63 L-33.07 33.86 L33.21 33.86 L33.21 18.16 L33.21 18.16 L33.06 17.02 L32.62 15.75 L31.89 14.38 L30.89 12.93 L29.61 11.44 L28.08 9.92 L26.29 8.42 L24.25 6.96 L21.97 5.56 L19.47 4.25 L16.74 3.07 L13.79 2.04 L10.64 1.19 L7.28 0.55 L3.73 0.14 L0 0 L0 0" stroke="none" stroke-width="0" fill="#669df6" fill-rule="evenodd"></path><path d="M0 0 C0 0, 0 0, 0 0 M0 0 C0 0, 0 0, 0 0 M0 0 C-1.2 0.05, -2.4 0.1, -3.18 0.13 M0 0 C-1.19 0.05, -2.37 0.1, -3.18 0.13 M-3.18 0.13 C-3.93 0.22, -4.68 0.3, -6.31 0.5 M-3.18 0.13 C-3.93 0.22, -4.67 0.3, -6.31 0.5 M-6.31 0.5 C-7.23 0.67, -8.15 0.85, -9.38 1.08 M-6.31 0.5 C-7.36 0.7, -8.4 0.89, -9.38 1.08 M-9.38 1.08 C-10.28 1.31, -11.18 1.55, -12.36 1.85 M-9.38 1.08 C-10.29 1.32, -11.19 1.55, -12.36 1.85 M-12.36 1.85 C-13.24 2.14, -14.13 2.43, -15.22 2.79 M-12.36 1.85 C-13.29 2.16, -14.22 2.46, -15.22 2.79 M-15.22 2.79 C-16.16 3.16, -17.09 3.52, -17.95 3.86 M-15.22 2.79 C-15.96 3.08, -16.7 3.37, -17.95 3.86 M-17.95 3.86 C-18.83 4.27, -19.71 4.68, -20.53 5.05 M-17.95 3.86 C-18.67 4.19, -19.38 4.52, -20.53 5.05 M-20.53 5.05 C-21.06 5.33, -21.59 5.62, -22.93 6.33 M-20.53 5.05 C-21.12 5.37, -21.71 5.68, -22.93 6.33 M-22.93 6.33 C-23.4 6.62, -23.88 6.91, -25.12 7.67 M-22.93 6.33 C-23.46 6.65, -23.98 6.97, -25.12 7.67 M-25.12 7.67 C-25.8 8.14, -26.48 8.61, -27.1 9.04 M-25.12 7.67 C-25.87 8.19, -26.62 8.71, -27.1 9.04 M-27.1 9.04 C-27.7 9.52, -28.3 10, -28.83 10.42 M-27.1 9.04 C-27.51 9.37, -27.93 9.7, -28.83 10.42 M-28.83 10.42 C-29.35 10.91, -29.88 11.4, -30.3 11.8 M-28.83 10.42 C-29.34 10.9, -29.85 11.38, -30.3 11.8 M-30.3 11.8 C-30.57 12.11, -30.85 12.42, -31.48 13.13 M-30.3 11.8 C-30.75 12.31, -31.2 12.81, -31.48 13.13 M-31.48 13.13 C-31.68 13.43, -31.89 13.73, -32.35 14.39 M-31.48 13.13 C-31.71 13.47, -31.95 13.81, -32.35 14.39 M-32.35 14.39 C-32.46 14.61, -32.58 14.83, -32.66 14.99 M-32.35 14.39 C-32.46 14.62, -32.58 14.84, -32.66 14.99 M-32.66 14.99 C-32.71 15.12, -32.75 15.24, -32.89 15.57 M-32.66 14.99 C-32.75 15.22, -32.84 15.45, -32.89 15.57 M-32.89 15.57 C-32.93 15.74, -32.97 15.92, -33.02 16.11 M-32.89 15.57 C-32.94 15.78, -32.99 15.99, -33.02 16.11 M-33.02 16.11 C-33.03 16.24, -33.04 16.36, -33.07 16.63 M-33.02 16.11 C-33.03 16.23, -33.04 16.34, -33.07 16.63 M-33.07 16.63 C-33.07 21.22, -33.07 25.82, -33.07 33.86 M-33.07 16.63 C-33.07 20.13, -33.07 23.62, -33.07 33.86 M-33.07 33.86 C-12.08 33.86, 8.91 33.86, 33.21 33.86 M-33.07 33.86 C-8.77 33.86, 15.53 33.86, 33.21 33.86 M33.21 33.86 C33.21 29.77, 33.21 25.67, 33.21 18.16 M33.21 33.86 C33.21 29.61, 33.21 25.37, 33.21 18.16 M33.21 18.16 C33.21 18.16, 33.21 18.16, 33.21 18.16 M33.21 18.16 C33.21 18.16, 33.21 18.16, 33.21 18.16 M33.21 18.16 C33.16 17.76, 33.1 17.37, 33.06 17.02 M33.21 18.16 C33.17 17.9, 33.14 17.63, 33.06 17.02 M33.06 17.02 C32.96 16.74, 32.86 16.45, 32.62 15.75 M33.06 17.02 C32.88 16.52, 32.71 16.01, 32.62 15.75 M32.62 15.75 C32.43 15.39, 32.23 15.03, 31.89 14.38 M32.62 15.75 C32.46 15.46, 32.3 15.16, 31.89 14.38 M31.89 14.38 C31.54 13.88, 31.19 13.37, 30.89 12.93 M31.89 14.38 C31.57 13.92, 31.26 13.47, 30.89 12.93 M30.89 12.93 C30.46 12.43, 30.04 11.94, 29.61 11.44 M30.89 12.93 C30.46 12.43, 30.04 11.93, 29.61 11.44 M29.61 11.44 C29.13 10.96, 28.65 10.49, 28.08 9.92 M29.61 11.44 C29.29 11.12, 28.96 10.8, 28.08 9.92 M28.08 9.92 C27.42 9.37, 26.77 8.82, 26.29 8.42 M28.08 9.92 C27.39 9.34, 26.69 8.76, 26.29 8.42 M26.29 8.42 C25.85 8.11, 25.42 7.79, 24.25 6.96 M26.29 8.42 C25.69 7.99, 25.09 7.56, 24.25 6.96 M24.25 6.96 C23.42 6.44, 22.58 5.93, 21.97 5.56 M24.25 6.96 C23.44 6.45, 22.62 5.95, 21.97 5.56 M21.97 5.56 C21.01 5.05, 20.04 4.55, 19.47 4.25 M21.97 5.56 C21.22 5.17, 20.47 4.78, 19.47 4.25 M19.47 4.25 C18.85 3.99, 18.23 3.72, 16.74 3.07 M19.47 4.25 C18.59 3.87, 17.72 3.5, 16.74 3.07 M16.74 3.07 C15.85 2.76, 14.97 2.45, 13.79 2.04 M16.74 3.07 C16.13 2.86, 15.51 2.64, 13.79 2.04 M13.79 2.04 C13.09 1.85, 12.38 1.66, 10.64 1.19 M13.79 2.04 C12.75 1.76, 11.71 1.48, 10.64 1.19 M10.64 1.19 C9.73 1.02, 8.82 0.84, 7.28 0.55 M10.64 1.19 C9.53 0.98, 8.42 0.77, 7.28 0.55 M7.28 0.55 C6.12 0.41, 4.96 0.28, 3.73 0.14 M7.28 0.55 C6.11 0.41, 4.95 0.28, 3.73 0.14 M3.73 0.14 C2.44 0.09, 1.14 0.04, 0 0 M3.73 0.14 C2.93 0.11, 2.12 0.08, 0 0 M0 0 C0 0, 0 0, 0 0 M0 0 C0 0, 0 0, 0 0 M0 0 C0 0, 0 0, 0 0 M0 0 C0 0, 0 0, 0 0" stroke="#000000" stroke-width="1" fill="none"></path></g></g><mask></mask><g stroke-linecap="round"><g transform="translate(242.54800082019779 6) rotate(0 7.477768974060666 17.951268584315812)" fill-rule="evenodd"><path d="M0 0 L25.92 0 L25.92 25.27 L14.63 35.9 L14.63 20.81 L0.84 34.23 L-8.64 25.13 L5.48 11.47 L-10.96 11.47 L0 0" stroke="none" stroke-width="0" fill="#669df6" fill-rule="evenodd"></path><path d="M0 0 C8.71 0, 17.43 0, 25.92 0 M0 0 C5.32 0, 10.65 0, 25.92 0 M25.92 0 C25.92 9.59, 25.92 19.18, 25.92 25.27 M25.92 0 C25.92 7.03, 25.92 14.06, 25.92 25.27 M25.92 25.27 C23.42 27.62, 20.93 29.97, 14.63 35.9 M25.92 25.27 C21.65 29.29, 17.39 33.3, 14.63 35.9 M14.63 35.9 C14.63 31.73, 14.63 27.56, 14.63 20.81 M14.63 35.9 C14.63 30.83, 14.63 25.77, 14.63 20.81 M14.63 20.81 C9.75 25.56, 4.86 30.31, 0.84 34.23 M14.63 20.81 C11.47 23.88, 8.31 26.96, 0.84 34.23 M0.84 34.23 C-2.5 31.02, -5.84 27.82, -8.64 25.13 M0.84 34.23 C-2.34 31.18, -5.51 28.13, -8.64 25.13 M-8.64 25.13 C-5.02 21.63, -1.4 18.13, 5.48 11.47 M-8.64 25.13 C-3.24 19.91, 2.16 14.68, 5.48 11.47 M5.48 11.47 C1.63 11.47, -2.22 11.47, -10.96 11.47 M5.48 11.47 C0.45 11.47, -4.59 11.47, -10.96 11.47 M-10.96 11.47 C-8.39 8.78, -5.82 6.09, 0 0 M-10.96 11.47 C-7.68 8.03, -4.39 4.6, 0 0 M0 0 C0 0, 0 0, 0 0 M0 0 C0 0, 0 0, 0 0" stroke="#000000" stroke-width="1" fill="none"></path></g></g><mask></mask><g stroke-linecap="round"><g transform="translate(243.19825107563224 159.03861665725708) rotate(0 7.4777471813716545 -17.951269946358934)" fill-rule="evenodd"><path d="M0 0 L25.92 0 L25.92 -25.27 L14.63 -35.9 L14.63 -20.81 L0.84 -34.23 L-8.64 -25.13 L5.48 -11.47 L-10.96 -11.47 L0 0" stroke="none" stroke-width="0" fill="#669df6" fill-rule="evenodd"></path><path d="M0 0 C8.27 0, 16.54 0, 25.92 0 M0 0 C5.25 0, 10.49 0, 25.92 0 M25.92 0 C25.92 -6.48, 25.92 -12.96, 25.92 -25.27 M25.92 0 C25.92 -6.87, 25.92 -13.74, 25.92 -25.27 M25.92 -25.27 C23.57 -27.48, 21.22 -29.69, 14.63 -35.9 M25.92 -25.27 C22.28 -28.69, 18.65 -32.12, 14.63 -35.9 M14.63 -35.9 C14.63 -32.61, 14.63 -29.33, 14.63 -20.81 M14.63 -35.9 C14.63 -30.33, 14.63 -24.77, 14.63 -20.81 M14.63 -20.81 C11.73 -23.63, 8.82 -26.46, 0.84 -34.23 M14.63 -20.81 C10.02 -25.29, 5.42 -29.77, 0.84 -34.23 M0.84 -34.23 C-1.48 -32.01, -3.79 -29.78, -8.64 -25.13 M0.84 -34.23 C-2.39 -31.13, -5.62 -28.03, -8.64 -25.13 M-8.64 -25.13 C-4.91 -21.52, -1.17 -17.91, 5.48 -11.47 M-8.64 -25.13 C-4.23 -20.86, 0.18 -16.6, 5.48 -11.47 M5.48 -11.47 C-0.37 -11.47, -6.22 -11.47, -10.96 -11.47 M5.48 -11.47 C1.09 -11.47, -3.31 -11.47, -10.96 -11.47 M-10.96 -11.47 C-7.71 -8.07, -4.45 -4.66, 0 0 M-10.96 -11.47 C-7.48 -7.83, -4 -4.19, 0 0 M0 0 C0 0, 0 0, 0 0 M0 0 C0 0, 0 0, 0 0" stroke="#000000" stroke-width="1" fill="none"></path></g></g><mask></mask><g stroke-linecap="round"><g transform="translate(245.38120294360942 74.83254882876236) rotate(0 27.704860332720557 6.873961663045748)" fill-rule="evenodd"><path d="M0 0 L0 13.75 L31.77 13.75 L20.81 24.71 L36.92 24.71 L55.41 6.78 L36.83 -10.96 L21.18 -10.96 L30.42 -0.09 L0 0" stroke="none" stroke-width="0" fill="#aecbfa" fill-rule="evenodd"></path><path d="M0 0 C0 5.2, 0 10.4, 0 13.75 M0 0 C0 4.68, 0 9.36, 0 13.75 M0 13.75 C12.1 13.75, 24.21 13.75, 31.77 13.75 M0 13.75 C6.97 13.75, 13.93 13.75, 31.77 13.75 M31.77 13.75 C29.44 16.08, 27.11 18.4, 20.81 24.71 M31.77 13.75 C28.46 17.06, 25.15 20.37, 20.81 24.71 M20.81 24.71 C24.32 24.71, 27.83 24.71, 36.92 24.71 M20.81 24.71 C25.46 24.71, 30.1 24.71, 36.92 24.71 M36.92 24.71 C43.65 18.18, 50.39 11.65, 55.41 6.78 M36.92 24.71 C41.48 20.29, 46.03 15.88, 55.41 6.78 M55.41 6.78 C51.04 2.61, 46.67 -1.56, 36.83 -10.96 M55.41 6.78 C50.48 2.08, 45.56 -2.63, 36.83 -10.96 M36.83 -10.96 C31.66 -10.96, 26.49 -10.96, 21.18 -10.96 M36.83 -10.96 C33.57 -10.96, 30.31 -10.96, 21.18 -10.96 M21.18 -10.96 C23.58 -8.14, 25.99 -5.31, 30.42 -0.09 M21.18 -10.96 C24.57 -6.98, 27.95 -3, 30.42 -0.09 M30.42 -0.09 C23.01 -0.07, 15.6 -0.05, 0 0 M30.42 -0.09 C23.99 -0.07, 17.56 -0.05, 0 0 M0 0 C0 0, 0 0, 0 0 M0 0 C0 0, 0 0, 0 0" stroke="#000000" stroke-width="1" fill="none"></path></g></g><mask></mask><g transform="translate(49.378207402271755 170.21127261434322) rotate(0 106.5 57)"><text x="106.5" y="0" font-family="Helvetica, Segoe UI Emoji" font-size="33.4285714285714px" fill="#000000" text-anchor="middle" style="white-space: pre;" direction="ltr" dominant-baseline="text-before-edge">Cloud</text><text x="106.5" y="38" font-family="Helvetica, Segoe UI Emoji" font-size="33.4285714285714px" fill="#000000" text-anchor="middle" style="white-space: pre;" direction="ltr" dominant-baseline="text-before-edge">Identity-Aware</text><text x="106.5" y="76" font-family="Helvetica, Segoe UI Emoji" font-size="33.4285714285714px" fill="#000000" text-anchor="middle" style="white-space: pre;" direction="ltr" dominant-baseline="text-before-edge">Proxy</text></g></svg>