<svg version="1.1" xmlns="http://www.w3.org/2000/svg" viewBox="0 0 213 249.30341470137" width="213" height="249.30341470137">
  <!-- svg-source:excalidraw -->
  
  <defs>
    
    
  </defs>
  <g stroke-linecap="round"><g transform="translate(173.33914081006196 120.51810317391528) rotate(0 -9.525596326968582 -19.086350793054635)" fill-rule="evenodd"><path d="M0 0 L0 28.65 L-47.7 -19.09 L0.04 -66.82 L0.04 -38.21 L28.65 -38.21 L28.65 -0.04 L0 -0.04 L0 0" stroke="none" stroke-width="0" fill="#4285f4" fill-rule="evenodd"></path><path d="M0 0 C0 10.56, 0 21.12, 0 28.65 M0 0 C0 8.43, 0 16.86, 0 28.65 M0 28.65 C-17.74 10.89, -35.48 -6.86, -47.7 -19.09 M0 28.65 C-11.65 16.99, -23.31 5.32, -47.7 -19.09 M-47.7 -19.09 C-35.11 -31.68, -22.52 -44.27, 0.04 -66.82 M-47.7 -19.09 C-34.59 -32.19, -21.49 -45.29, 0.04 -66.82 M0.04 -66.82 C0.04 -55.78, 0.04 -44.74, 0.04 -38.21 M0.04 -66.82 C0.04 -58.59, 0.04 -50.37, 0.04 -38.21 M0.04 -38.21 C6.96 -38.21, 13.88 -38.21, 28.65 -38.21 M0.04 -38.21 C8.91 -38.21, 17.78 -38.21, 28.65 -38.21 M28.65 -38.21 C28.65 -24.82, 28.65 -11.43, 28.65 -0.04 M28.65 -38.21 C28.65 -23.33, 28.65 -8.45, 28.65 -0.04 M28.65 -0.04 C17.22 -0.04, 5.8 -0.04, 0 -0.04 M28.65 -0.04 C17.41 -0.04, 6.17 -0.04, 0 -0.04 M0 -0.04 C0 -0.02, 0 -0.01, 0 0 M0 -0.04 C0 -0.02, 0 -0.01, 0 0 M0 0 C0 0, 0 0, 0 0 M0 0 C0 0, 0 0, 0 0" stroke="#000000" stroke-width="1" fill="none"></path></g></g><mask></mask><g stroke-linecap="round"><g transform="translate(39.73468525867838 82.34540158780555) rotate(0 9.560748920638332 19.10392510937254)" fill-rule="evenodd"><path d="M0 0 L-28.61 0 L-28.61 38.17 L0 38.17 L0 66.82 L47.73 19.09 L0 -28.61 L0 0 L0 0" stroke="none" stroke-width="0" fill="#4285f4" fill-rule="evenodd"></path><path d="M0 0 C-10.61 0, -21.23 0, -28.61 0 M0 0 C-6.79 0, -13.58 0, -28.61 0 M-28.61 0 C-28.61 9.51, -28.61 19.02, -28.61 38.17 M-28.61 0 C-28.61 12.31, -28.61 24.62, -28.61 38.17 M-28.61 38.17 C-20.44 38.17, -12.27 38.17, 0 38.17 M-28.61 38.17 C-22.16 38.17, -15.71 38.17, 0 38.17 M0 38.17 C0 44.42, 0 50.67, 0 66.82 M0 38.17 C0 44.44, 0 50.71, 0 66.82 M0 66.82 C10.75 56.07, 21.49 45.33, 47.73 19.09 M0 66.82 C10.74 56.08, 21.48 45.34, 47.73 19.09 M47.73 19.09 C32.41 3.77, 17.09 -11.54, 0 -28.61 M47.73 19.09 C34.93 6.29, 22.13 -6.5, 0 -28.61 M0 -28.61 C0 -21.35, 0 -14.08, 0 0 M0 -28.61 C0 -22.07, 0 -15.53, 0 0 M0 0 C0 0, 0 0, 0 0 M0 0 C0 0, 0 0, 0 0 M0 0 C0 0, 0 0, 0 0 M0 0 C0 0, 0 0, 0 0" stroke="#000000" stroke-width="1" fill="none"></path></g></g><mask></mask><g stroke-linecap="round"><g transform="translate(125.64083655932882 149.13006613807465) rotate(0 -19.068776476736957 9.543176980941098)" fill-rule="evenodd"><path d="M0 0 L0 -28.65 L-38.17 -28.65 L-38.17 0 L-66.78 0 L-19.09 47.73 L28.65 0 L0 0 L0 0" stroke="none" stroke-width="0" fill="#4285f4" fill-rule="evenodd"></path><path d="M0 0 C0 -10.1, 0 -20.2, 0 -28.65 M0 0 C0 -9.34, 0 -18.67, 0 -28.65 M0 -28.65 C-14.35 -28.65, -28.7 -28.65, -38.17 -28.65 M0 -28.65 C-13.47 -28.65, -26.94 -28.65, -38.17 -28.65 M-38.17 -28.65 C-38.17 -18.89, -38.17 -9.14, -38.17 0 M-38.17 -28.65 C-38.17 -18.56, -38.17 -8.48, -38.17 0 M-38.17 0 C-47.22 0, -56.28 0, -66.78 0 M-38.17 0 C-48.89 0, -59.6 0, -66.78 0 M-66.78 0 C-49.75 17.04, -32.72 34.09, -19.09 47.73 M-66.78 0 C-56.11 10.68, -45.43 21.37, -19.09 47.73 M-19.09 47.73 C-7.01 35.66, 5.07 23.58, 28.65 0 M-19.09 47.73 C-7.04 35.69, 5.01 23.64, 28.65 0 M28.65 0 C17.63 0, 6.61 0, 0 0 M28.65 0 C21.24 0, 13.83 0, 0 0 M0 0 C0 0, 0 0, 0 0 M0 0 C0 0, 0 0, 0 0 M0 0 C0 0, 0 0, 0 0 M0 0 C0 0, 0 0, 0 0" stroke="#000000" stroke-width="1" fill="none"></path></g></g><mask></mask><g stroke-linecap="round"><g transform="translate(125.64083655932882 53.733451298954606) rotate(0 -19.068776476736957 -9.560750505052056)" fill-rule="evenodd"><path d="M0 0 L0 28.61 L-38.17 28.61 L-38.17 0 L-66.78 0 L-19.09 -47.73 L28.65 0 L0 0 L0 0" stroke="none" stroke-width="0" fill="#4285f4" fill-rule="evenodd"></path><path d="M0 0 C0 7.27, 0 14.54, 0 28.61 M0 0 C0 6.87, 0 13.73, 0 28.61 M0 28.61 C-9.55 28.61, -19.1 28.61, -38.17 28.61 M0 28.61 C-8.4 28.61, -16.8 28.61, -38.17 28.61 M-38.17 28.61 C-38.17 21.53, -38.17 14.45, -38.17 0 M-38.17 28.61 C-38.17 21.3, -38.17 13.99, -38.17 0 M-38.17 0 C-49.4 0, -60.62 0, -66.78 0 M-38.17 0 C-48.47 0, -58.76 0, -66.78 0 M-66.78 0 C-47.78 -19.02, -28.78 -38.03, -19.09 -47.73 M-66.78 0 C-56.42 -10.37, -46.05 -20.75, -19.09 -47.73 M-19.09 -47.73 C-7.41 -36.05, 4.27 -24.37, 28.65 0 M-19.09 -47.73 C-3.01 -31.66, 13.07 -15.58, 28.65 0 M28.65 0 C18 0, 7.36 0, 0 0 M28.65 0 C19.92 0, 11.2 0, 0 0 M0 0 C0 0, 0 0, 0 0 M0 0 C0 0, 0 0, 0 0 M0 0 C0 0, 0 0, 0 0 M0 0 C0 0, 0 0, 0 0" stroke="#000000" stroke-width="1" fill="none"></path></g></g><mask></mask><g transform="translate(6 204.30341470137) rotate(0 100.5 19.5)"><text x="100.5" y="0" font-family="Helvetica, Segoe UI Emoji" font-size="33.94285714285716px" fill="#000000" text-anchor="middle" style="white-space: pre;" direction="ltr" dominant-baseline="text-before-edge">Cloud Router</text></g></svg>