<svg version="1.1" xmlns="http://www.w3.org/2000/svg" viewBox="0 0 208 230.06792029223033" width="208" height="230.06792029223033">
  <!-- svg-source:excalidraw -->
  
  <defs>
    
    
  </defs>
  <g stroke-linecap="round"><g transform="translate(9.531127465099871 68.15713448563105) rotate(0 27.181254294035057 -9.893178405281958)" fill-rule="evenodd"><path d="M0 0 L23.78 -42.37 L54.36 -42.37 L54.36 -23.68 L34.48 -23.68 L21.29 -0.3 L29.38 13.29 L13.49 22.58 L0 0 L0 0" stroke="none" stroke-width="0" fill="#4285f4" fill-rule="evenodd"></path><path d="M0 0 C5.79 -10.31, 11.57 -20.62, 23.78 -42.37 M0 0 C7.8 -13.9, 15.61 -27.81, 23.78 -42.37 M23.78 -42.37 C30.22 -42.37, 36.66 -42.37, 54.36 -42.37 M23.78 -42.37 C32.52 -42.37, 41.25 -42.37, 54.36 -42.37 M54.36 -42.37 C54.36 -35.44, 54.36 -28.51, 54.36 -23.68 M54.36 -42.37 C54.36 -35.54, 54.36 -28.71, 54.36 -23.68 M54.36 -23.68 C46.44 -23.68, 38.51 -23.68, 34.48 -23.68 M54.36 -23.68 C49.92 -23.68, 45.48 -23.68, 34.48 -23.68 M34.48 -23.68 C30.91 -17.36, 27.34 -11.03, 21.29 -0.3 M34.48 -23.68 C30.51 -16.65, 26.54 -9.61, 21.29 -0.3 M21.29 -0.3 C23.41 3.27, 25.54 6.84, 29.38 13.29 M21.29 -0.3 C23.55 3.51, 25.82 7.32, 29.38 13.29 M29.38 13.29 C25.45 15.59, 21.53 17.88, 13.49 22.58 M29.38 13.29 C25.63 15.49, 21.87 17.68, 13.49 22.58 M13.49 22.58 C9.6 16.07, 5.71 9.56, 0 0 M13.49 22.58 C9.58 16.03, 5.66 9.48, 0 0 M0 0 C0 0, 0 0, 0 0 M0 0 C0 0, 0 0, 0 0 M0 0 C0 0, 0 0, 0 0 M0 0 C0 0, 0 0, 0 0" stroke="#000000" stroke-width="1" fill="none"></path></g></g><mask></mask><g stroke-linecap="round"><g transform="translate(126.35056707273225 105.13162815716004) rotate(0 24.982768119247595 14.44004902182212)" fill-rule="evenodd"><path d="M0 0 L24.98 -14.39 L49.97 0 L49.97 28.88 L24.98 43.27 L0 28.88 L0 0 L0 0" stroke="none" stroke-width="0" fill="#aecbfa" fill-rule="evenodd"></path><path d="M0 0 C7.77 -4.47, 15.53 -8.95, 24.98 -14.39 M0 0 C5.53 -3.19, 11.06 -6.37, 24.98 -14.39 M24.98 -14.39 C32.45 -10.09, 39.91 -5.79, 49.97 0 M24.98 -14.39 C30.92 -10.97, 36.85 -7.56, 49.97 0 M49.97 0 C49.97 9.98, 49.97 19.97, 49.97 28.88 M49.97 0 C49.97 8.03, 49.97 16.05, 49.97 28.88 M49.97 28.88 C44.56 31.99, 39.15 35.11, 24.98 43.27 M49.97 28.88 C42.97 32.91, 35.98 36.94, 24.98 43.27 M24.98 43.27 C15.06 37.56, 5.14 31.84, 0 28.88 M24.98 43.27 C15.09 37.57, 5.19 31.87, 0 28.88 M0 28.88 C0 21.72, 0 14.56, 0 0 M0 28.88 C0 17.62, 0 6.36, 0 0 M0 0 C0 0, 0 0, 0 0 M0 0 C0 0, 0 0, 0 0 M0 0 C0 0, 0 0, 0 0 M0 0 C0 0, 0 0, 0 0" stroke="#000000" stroke-width="1" fill="none"></path></g></g><mask></mask><g stroke-linecap="round"><g transform="translate(26.419480300484793 105.13162815716004) rotate(0 24.98277169306158 14.44004902182212)" fill-rule="evenodd"><path d="M0 0 L24.98 -14.39 L49.97 0 L49.97 28.88 L24.98 43.27 L0 28.88 L0 0 L0 0" stroke="none" stroke-width="0" fill="#aecbfa" fill-rule="evenodd"></path><path d="M0 0 C5.03 -2.9, 10.07 -5.8, 24.98 -14.39 M0 0 C5.99 -3.45, 11.97 -6.9, 24.98 -14.39 M24.98 -14.39 C31.8 -10.46, 38.62 -6.54, 49.97 0 M24.98 -14.39 C33.86 -9.28, 42.73 -4.17, 49.97 0 M49.97 0 C49.97 6.96, 49.97 13.91, 49.97 28.88 M49.97 0 C49.97 8.72, 49.97 17.43, 49.97 28.88 M49.97 28.88 C44.33 32.12, 38.7 35.37, 24.98 43.27 M49.97 28.88 C44.03 32.3, 38.1 35.72, 24.98 43.27 M24.98 43.27 C15.57 37.85, 6.15 32.42, 0 28.88 M24.98 43.27 C16.75 38.53, 8.53 33.79, 0 28.88 M0 28.88 C0 18.11, 0 7.34, 0 0 M0 28.88 C0 20.04, 0 11.21, 0 0 M0 0 C0 0, 0 0, 0 0 M0 0 C0 0, 0 0, 0 0 M0 0 C0 0, 0 0, 0 0 M0 0 C0 0, 0 0, 0 0" stroke="#000000" stroke-width="1" fill="none"></path></g></g><mask></mask><g stroke-linecap="round"><g transform="translate(76.38502368660647 20.39007638084138) rotate(0 24.98277169306158 14.440040087287173)" fill-rule="evenodd"><path d="M0 0 L24.98 -14.39 L49.97 0 L49.97 28.78 L24.98 43.27 L0 28.78 L0 0 L0 0" stroke="none" stroke-width="0" fill="#aecbfa" fill-rule="evenodd"></path><path d="M0 0 C6.88 -3.96, 13.76 -7.93, 24.98 -14.39 M0 0 C6.35 -3.66, 12.7 -7.31, 24.98 -14.39 M24.98 -14.39 C31.23 -10.79, 37.48 -7.19, 49.97 0 M24.98 -14.39 C34.57 -8.87, 44.16 -3.34, 49.97 0 M49.97 0 C49.97 8.15, 49.97 16.3, 49.97 28.78 M49.97 0 C49.97 9.01, 49.97 18.02, 49.97 28.78 M49.97 28.78 C41.63 33.61, 33.3 38.44, 24.98 43.27 M49.97 28.78 C44.67 31.85, 39.37 34.92, 24.98 43.27 M24.98 43.27 C19.93 40.34, 14.88 37.41, 0 28.78 M24.98 43.27 C15.14 37.56, 5.29 31.85, 0 28.78 M0 28.78 C0 17.63, 0 6.49, 0 0 M0 28.78 C0 22.67, 0 16.57, 0 0 M0 0 C0 0, 0 0, 0 0 M0 0 C0 0, 0 0, 0 0 M0 0 C0 0, 0 0, 0 0 M0 0 C0 0, 0 0, 0 0" stroke="#000000" stroke-width="1" fill="none"></path></g></g><mask></mask><g stroke-linecap="round"><g transform="translate(151.3333423396075 90.74155892394668) rotate(0 12.491380485809799 28.830118255035558)" fill-rule="evenodd"><path d="M0 0 L24.98 14.39 L24.98 43.27 L0 57.66 L0 0 L0 0" stroke="none" stroke-width="0" fill="#4285f4" fill-rule="evenodd"></path><path d="M0 0 C8.27 4.76, 16.54 9.53, 24.98 14.39 M0 0 C6.93 3.99, 13.86 7.98, 24.98 14.39 M24.98 14.39 C24.98 20.82, 24.98 27.26, 24.98 43.27 M24.98 14.39 C24.98 24.76, 24.98 35.13, 24.98 43.27 M24.98 43.27 C17.1 47.81, 9.22 52.35, 0 57.66 M24.98 43.27 C17.65 47.5, 10.31 51.72, 0 57.66 M0 57.66 C0 39.13, 0 20.59, 0 0 M0 57.66 C0 43.52, 0 29.39, 0 0 M0 0 C0 0, 0 0, 0 0 M0 0 C0 0, 0 0, 0 0 M0 0 C0 0, 0 0, 0 0 M0 0 C0 0, 0 0, 0 0" stroke="#000000" stroke-width="1" fill="none"></path></g></g><mask></mask><g stroke-linecap="round"><g transform="translate(51.402255567360044 90.74155892394668) rotate(0 12.491384059623783 28.830118255035558)" fill-rule="evenodd"><path d="M0 0 L24.98 14.39 L24.98 43.27 L0 57.66 L0 0 L0 0" stroke="none" stroke-width="0" fill="#4285f4" fill-rule="evenodd"></path><path d="M0 0 C6.51 3.75, 13.01 7.5, 24.98 14.39 M0 0 C8.96 5.16, 17.92 10.32, 24.98 14.39 M24.98 14.39 C24.98 20.36, 24.98 26.34, 24.98 43.27 M24.98 14.39 C24.98 24.13, 24.98 33.87, 24.98 43.27 M24.98 43.27 C19.76 46.28, 14.54 49.28, 0 57.66 M24.98 43.27 C19.89 46.2, 14.8 49.14, 0 57.66 M0 57.66 C0 44.86, 0 32.06, 0 0 M0 57.66 C0 39.88, 0 22.09, 0 0 M0 0 C0 0, 0 0, 0 0 M0 0 C0 0, 0 0, 0 0 M0 0 C0 0, 0 0, 0 0 M0 0 C0 0, 0 0, 0 0" stroke="#000000" stroke-width="1" fill="none"></path></g></g><mask></mask><g stroke-linecap="round"><g transform="translate(101.36779180585518 6.000000000000227) rotate(0 12.491387633437768 28.83011646812855)" fill-rule="evenodd"><path d="M0 0 L24.98 14.39 L24.98 43.17 L0 57.66 L0 0 L0 0" stroke="none" stroke-width="0" fill="#4285f4" fill-rule="evenodd"></path><path d="M0 0 C6.06 3.49, 12.13 6.99, 24.98 14.39 M0 0 C9.17 5.28, 18.34 10.56, 24.98 14.39 M24.98 14.39 C24.98 22.47, 24.98 30.54, 24.98 43.17 M24.98 14.39 C24.98 24.08, 24.98 33.78, 24.98 43.17 M24.98 43.17 C19.92 46.11, 14.86 49.04, 0 57.66 M24.98 43.17 C18.33 47.03, 11.68 50.89, 0 57.66 M0 57.66 C0 36.89, 0 16.12, 0 0 M0 57.66 C0 38.68, 0 19.7, 0 0 M0 0 C0 0, 0 0, 0 0 M0 0 C0 0, 0 0, 0 0 M0 0 C0 0, 0 0, 0 0 M0 0 C0 0, 0 0, 0 0" stroke="#000000" stroke-width="1" fill="none"></path></g></g><mask></mask><g stroke-linecap="round"><g transform="translate(163.82472282541562 81.44796286508443) rotate(0 2.198481707520017 -23.184006784735374)" fill-rule="evenodd"><path d="M0 0 L8.09 -13.49 L-5.1 -36.97 L-24.98 -36.97 L-24.98 -55.66 L5.6 -55.66 L29.38 -13.29 L15.89 9.29 L0 0 L0 0" stroke="none" stroke-width="0" fill="#4285f4" fill-rule="evenodd"></path><path d="M0 0 C2.66 -4.43, 5.31 -8.85, 8.09 -13.49 M0 0 C1.7 -2.84, 3.41 -5.68, 8.09 -13.49 M8.09 -13.49 C4.33 -20.2, 0.56 -26.9, -5.1 -36.97 M8.09 -13.49 C3.2 -22.2, -1.69 -30.91, -5.1 -36.97 M-5.1 -36.97 C-12.37 -36.97, -19.64 -36.97, -24.98 -36.97 M-5.1 -36.97 C-13.02 -36.97, -20.95 -36.97, -24.98 -36.97 M-24.98 -36.97 C-24.98 -41.15, -24.98 -45.32, -24.98 -55.66 M-24.98 -36.97 C-24.98 -42.03, -24.98 -47.09, -24.98 -55.66 M-24.98 -55.66 C-15.78 -55.66, -6.58 -55.66, 5.6 -55.66 M-24.98 -55.66 C-16.95 -55.66, -8.91 -55.66, 5.6 -55.66 M5.6 -55.66 C12.26 -43.79, 18.93 -31.91, 29.38 -13.29 M5.6 -55.66 C11.47 -45.19, 17.35 -34.72, 29.38 -13.29 M29.38 -13.29 C26.19 -7.96, 23.01 -2.62, 15.89 9.29 M29.38 -13.29 C25.49 -6.78, 21.6 -0.26, 15.89 9.29 M15.89 9.29 C11.28 6.6, 6.67 3.9, 0 0 M15.89 9.29 C10.47 6.12, 5.05 2.95, 0 0 M0 0 C0 0, 0 0, 0 0 M0 0 C0 0, 0 0, 0 0 M0 0 C0 0, 0 0, 0 0 M0 0 C0 0, 0 0, 0 0" stroke="#000000" stroke-width="1" fill="none"></path></g></g><mask></mask><g stroke-linecap="round"><g transform="translate(77.4842645403678 181.8787117184849) rotate(0 23.78360342641011 -16.9383201156445)" fill-rule="evenodd"><path d="M0 0 L-14.79 -24.58 L1.2 -33.88 L10.49 -18.69 L36.97 -18.69 L46.37 -33.88 L62.36 -24.68 L47.47 0 L0 0 L0 0" stroke="none" stroke-width="0" fill="#4285f4" fill-rule="evenodd"></path><path d="M0 0 C-3.27 -5.44, -6.55 -10.89, -14.79 -24.58 M0 0 C-4.42 -7.34, -8.84 -14.69, -14.79 -24.58 M-14.79 -24.58 C-10.99 -26.79, -7.2 -29, 1.2 -33.88 M-14.79 -24.58 C-9.26 -27.8, -3.74 -31.01, 1.2 -33.88 M1.2 -33.88 C3.78 -29.66, 6.36 -25.44, 10.49 -18.69 M1.2 -33.88 C3.21 -30.59, 5.22 -27.3, 10.49 -18.69 M10.49 -18.69 C17.91 -18.69, 25.32 -18.69, 36.97 -18.69 M10.49 -18.69 C21.01 -18.69, 31.52 -18.69, 36.97 -18.69 M36.97 -18.69 C40.69 -24.7, 44.42 -30.72, 46.37 -33.88 M36.97 -18.69 C39.3 -22.45, 41.63 -26.22, 46.37 -33.88 M46.37 -33.88 C52.6 -30.29, 58.84 -26.71, 62.36 -24.68 M46.37 -33.88 C50.48 -31.51, 54.58 -29.15, 62.36 -24.68 M62.36 -24.68 C57.39 -16.44, 52.42 -8.21, 47.47 0 M62.36 -24.68 C56.52 -15, 50.67 -5.32, 47.47 0 M47.47 0 C37.72 0, 27.97 0, 0 0 M47.47 0 C30.56 0, 13.66 0, 0 0 M0 0 C0 0, 0 0, 0 0 M0 0 C0 0, 0 0, 0 0 M0 0 C0 0, 0 0, 0 0 M0 0 C0 0, 0 0, 0 0" stroke="#000000" stroke-width="1" fill="none"></path></g></g><mask></mask><g transform="translate(6 186.06792029223033) rotate(0 98 19)"><text x="0" y="0" font-family="Helvetica, Segoe UI Emoji" font-size="33.4285714285714px" fill="#000000" text-anchor="start" style="white-space: pre;" direction="ltr" dominant-baseline="text-before-edge">Data Catalog</text></g></svg>