<svg xmlns="http://www.w3.org/2000/svg" viewBox="698.54 1631.04 232.88 294.57" width="233" height="295"><polyline points="834.34,1680.52 792.83,1655.83 792.83,1655.83 785.07,1648.60 780.54,1639.01 781.59,1637.59 784.27,1637.04 786.41,1638.27 790.83,1640.87 804.45,1648.90 820.89,1658.62 835.91,1667.54 838.90,1672.15 839.42,1678.74 838.78,1684.65 838.27,1687.21 837.23,1683.32 834.34,1680.52 834.34,1680.52" fill="none" stroke="#000000" stroke-width="1" opacity="1.0" stroke-linecap="round" stroke-linejoin="round"/><polyline points="846.83,1741.90 846.83,1741.90 845.26,1745.14 835.42,1751.83 835.42,1673.64 835.42,1673.64 835.97,1669.71 834.83,1666.75 843.88,1673.44 843.88,1673.44 846.47,1676.17 847.32,1679.83 846.83,1741.90" fill="none" stroke="#000000" stroke-width="1" opacity="1.0" stroke-linecap="round" stroke-linejoin="round"/><polyline points="792.83,1750.85 792.83,1750.85 790.86,1750.26 756.83,1730.00 756.83,1738.85 792.83,1760.29 795.68,1754.69 795.68,1754.69 794.52,1752.77 792.83,1750.85 792.83,1750.85" fill="none" stroke="#000000" stroke-width="1" opacity="1.0" stroke-linecap="round" stroke-linejoin="round"/><polyline points="794.80,1768.55 794.80,1768.55 790.86,1768.55 756.83,1748.29 756.83,1754.78 756.83,1754.78 758.70,1758.23 790.96,1777.90 790.96,1777.90 794.70,1777.90 796.67,1772.78 794.80,1768.95 794.80,1768.55" fill="none" stroke="#000000" stroke-width="1" opacity="1.0" stroke-linecap="round" stroke-linejoin="round"/><polyline points="792.83,1742.29 828.83,1720.85 828.83,1716.62 828.83,1716.62 826.96,1713.27 794.70,1693.60 794.70,1693.60 790.96,1693.60 758.70,1713.27 758.70,1713.27 756.83,1716.62 756.83,1720.85 792.83,1742.29 792.83,1742.29" fill="none" stroke="#000000" stroke-width="1" opacity="1.0" stroke-linecap="round" stroke-linejoin="round"/><polyline points="792.83,1733.44 758.70,1713.27 758.70,1713.27 756.83,1716.62 756.83,1720.85 792.83,1742.29 795.59,1736.78 792.83,1733.44 792.83,1733.44" fill="none" stroke="#000000" stroke-width="1" opacity="1.0" stroke-linecap="round" stroke-linejoin="round"/><polyline points="792.83,1750.85 792.83,1760.69 828.83,1739.24 828.83,1730.39 794.80,1750.26 794.80,1750.26 792.83,1750.85 792.83,1750.85" fill="none" stroke="#000000" stroke-width="1" opacity="1.0" stroke-linecap="round" stroke-linejoin="round"/><polyline points="794.80,1768.55 794.80,1768.55 792.83,1769.14 792.83,1774.60 792.83,1778.00 794.90,1777.50 827.16,1757.83 827.16,1757.83 829.03,1754.39 829.03,1747.90 794.80,1768.55 794.80,1768.55" fill="none" stroke="#000000" stroke-width="1" opacity="1.0" stroke-linecap="round" stroke-linejoin="round"/><polyline points="826.96,1713.27 792.83,1733.44 792.83,1742.29 828.83,1720.85 828.83,1716.62 828.83,1716.62 826.96,1713.27 826.96,1713.27" fill="none" stroke="#000000" stroke-width="1" opacity="1.0" stroke-linecap="round" stroke-linejoin="round"/><polyline points="751.32,1789.50 792.14,1813.80 792.14,1813.80 800.32,1821.32 804.73,1831.51 804.14,1833.17 802.40,1833.49 801.98,1833.28 748.37,1801.51 748.37,1801.51 746.06,1797.29 746.07,1791.08 747.06,1785.46 747.68,1783.01 748.65,1786.74 751.32,1789.50 751.32,1789.50" fill="none" stroke="#000000" stroke-width="1" opacity="1.0" stroke-linecap="round" stroke-linejoin="round"/><polyline points="738.83,1791.47 738.83,1726.95 738.83,1726.95 740.70,1723.70 750.54,1717.90 750.54,1795.70 750.54,1795.70 750.79,1800.26 752.60,1803.87 742.17,1797.37 742.17,1797.37 738.83,1791.47 738.83,1791.47" fill="none" stroke="#000000" stroke-width="1" opacity="1.0" stroke-linecap="round" stroke-linejoin="round"/><polyline points="774.73,1670.78 774.73,1670.78 771.09,1669.82 767.45,1670.78 726.14,1695.77 726.14,1695.77 716.18,1699.17 705.68,1698.32 704.54,1696.37 705.65,1694.41 705.68,1694.39 708.86,1692.55 716.14,1688.27 726.13,1682.36 737.43,1675.66 748.64,1669.01 758.38,1663.23 765.25,1659.15 767.85,1657.60 769.94,1659.16 772.33,1663.92 774.31,1668.94 775.13,1671.27 774.73,1670.78" fill="none" stroke="#000000" stroke-width="1" opacity="1.0" stroke-linecap="round" stroke-linejoin="round"/><polyline points="774.63,1657.21 826.96,1688.19 826.96,1688.19 828.93,1691.24 828.93,1702.85 763.32,1663.90 763.32,1663.90 759.68,1662.94 756.04,1663.90 767.65,1657.11 767.65,1657.11 771.24,1656.12 774.83,1657.11 774.63,1657.21" fill="none" stroke="#000000" stroke-width="1" opacity="1.0" stroke-linecap="round" stroke-linejoin="round"/><polyline points="810.73,1798.95 810.73,1798.95 814.37,1799.94 818.01,1798.95 859.32,1774.46 859.32,1774.46 869.39,1771.06 879.98,1772.00 881.16,1773.69 880.28,1775.56 879.98,1775.73 817.72,1812.62 817.72,1812.62 815.67,1811.05 813.27,1806.25 811.27,1801.19 810.44,1798.85 810.73,1798.95" fill="none" stroke="#000000" stroke-width="1" opacity="1.0" stroke-linecap="round" stroke-linejoin="round"/><polyline points="758.50,1781.83 758.50,1781.83 756.83,1778.59 756.83,1767.18 822.34,1805.83 822.34,1805.83 825.93,1806.86 829.52,1805.83 817.91,1812.72 817.91,1812.72 814.27,1813.76 810.63,1812.72 758.50,1781.83" fill="none" stroke="#000000" stroke-width="1" opacity="1.0" stroke-linecap="round" stroke-linejoin="round"/><polyline points="736.37,1713.57 736.37,1713.57 733.71,1716.29 732.73,1719.96 732.73,1769.14 732.73,1769.14 730.49,1779.86 724.17,1788.82 722.44,1789.18 721.26,1787.86 721.22,1787.54 721.22,1713.18 721.22,1713.18 723.59,1712.01 728.80,1712.14 734.00,1712.79 736.37,1713.18 736.37,1713.57" fill="none" stroke="#000000" stroke-width="1" opacity="1.0" stroke-linecap="round" stroke-linejoin="round"/><polyline points="770.90,1681.21 770.90,1681.21 774.44,1681.21 784.27,1687.01 724.47,1722.03 724.47,1722.03 721.80,1724.80 720.83,1728.52 720.83,1714.85 720.83,1714.85 721.82,1711.18 724.57,1708.55 770.90,1681.21" fill="none" stroke="#000000" stroke-width="1" opacity="1.0" stroke-linecap="round" stroke-linejoin="round"/><polyline points="853.52,1749.28 853.52,1700.09 853.52,1700.09 855.68,1689.43 861.78,1680.42 863.38,1680.27 864.83,1682.49 864.78,1686.51 864.75,1695.14 864.75,1706.81 864.76,1719.91 864.78,1732.87 864.80,1744.10 864.82,1751.99 864.83,1754.98 861.07,1756.52 855.77,1756.34 851.04,1755.49 849.00,1754.98 851.95,1752.67 853.52,1749.28 853.52,1749.28" fill="none" stroke="#000000" stroke-width="1" opacity="1.0" stroke-linecap="round" stroke-linejoin="round"/><polyline points="861.68,1760.78 815.06,1788.82 815.06,1788.82 811.42,1788.82 801.59,1783.21 861.68,1747.11 861.68,1747.11 864.36,1744.34 865.32,1740.62 865.32,1754.78 865.32,1754.78 863.43,1758.63 861.68,1760.78 861.68,1760.78" fill="none" stroke="#000000" stroke-width="1" opacity="1.0" stroke-linecap="round" stroke-linejoin="round"/><text x="722.79" y="1870.18" font-size="38.5601503759398" fill="#000000" opacity="1.0" font-family="sans-serif">Cloud 
Bigtable</text></svg>