<svg version="1.1" xmlns="http://www.w3.org/2000/svg" viewBox="0 0 172 84" width="172" height="84">
  <!-- svg-source:excalidraw -->
  
  <defs>
    
    
  </defs>
  <g stroke-linecap="round" transform="translate(6 6) rotate(0 80 36)"><path d="M18 0 C64.52 0, 111.04 0, 142 0 C154 0, 160 6, 160 18 C160 27.52, 160 37.04, 160 54 C160 66, 154 72, 142 72 C113.21 72, 84.43 72, 18 72 C6 72, 0 66, 0 54 C0 39.72, 0 25.44, 0 18 C0 6, 6 0, 18 0" stroke="none" stroke-width="0" fill="#FFF"></path><path d="M18 0 C49.85 0, 81.71 0, 142 0 M18 0 C46.46 0, 74.93 0, 142 0 M142 0 C154 0, 160 6, 160 18 M142 0 C154 0, 160 6, 160 18 M160 18 C160 25.9, 160 33.8, 160 54 M160 18 C160 30.42, 160 42.85, 160 54 M160 54 C160 66, 154 72, 142 72 M160 54 C160 66, 154 72, 142 72 M142 72 C96.05 72, 50.1 72, 18 72 M142 72 C111.23 72, 80.46 72, 18 72 M18 72 C6 72, 0 66, 0 54 M18 72 C6 72, 0 66, 0 54 M0 54 C0 46.08, 0 38.16, 0 18 M0 54 C0 44.22, 0 34.45, 0 18 M0 18 C0 6, 6 0, 18 0 M0 18 C0 6, 6 0, 18 0" stroke="#4285f4" stroke-width="2" fill="none"></path></g><g transform="translate(71 35) rotate(0 32 7)"><text x="0" y="0" font-family="Helvetica, Segoe UI Emoji" font-size="12px" fill="#000000" text-anchor="start" style="white-space: pre;" direction="ltr" dominant-baseline="text-before-edge">Cloud Code</text></g><g stroke-linecap="round"><g transform="translate(29.766666412353516 37.37333297729492) rotate(0 4.133333206176758 0.006666898727416992)" fill-rule="evenodd"><path d="M0 0 L4.13 -4.15 L8.27 0 L4.13 4.16 L0 0 L0 0" stroke="none" stroke-width="0" fill="#aecbfa" fill-rule="evenodd"></path><path d="M0 0 C1 -1, 2 -2, 4.13 -4.15 M0 0 C1.38 -1.38, 2.76 -2.76, 4.13 -4.15 M4.13 -4.15 C5.75 -2.52, 7.37 -0.9, 8.27 0 M4.13 -4.15 C5.43 -2.84, 6.73 -1.54, 8.27 0 M8.27 0 C7.15 1.12, 6.04 2.24, 4.13 4.16 M8.27 0 C6.91 1.37, 5.55 2.73, 4.13 4.16 M4.13 4.16 C2.6 2.62, 1.07 1.08, 0 0 M4.13 4.16 C3.11 3.13, 2.08 2.1, 0 0 M0 0 C0 0, 0 0, 0 0 M0 0 C0 0, 0 0, 0 0 M0 0 C0 0, 0 0, 0 0 M0 0 C0 0, 0 0, 0 0" stroke="#00000000" stroke-width="1" fill="none"></path></g></g><mask></mask><g stroke-linecap="round"><g transform="translate(25.166666746139526 42) rotate(0 4.133333325386047 0)" fill-rule="evenodd"><path d="M0 0 L4.13 -4.16 L8.27 0 L4.13 4.16 L0 0 L0 0" stroke="none" stroke-width="0" fill="#669df6" fill-rule="evenodd"></path><path d="M0 0 C1.01 -1.02, 2.03 -2.04, 4.13 -4.16 M0 0 C1.27 -1.28, 2.55 -2.56, 4.13 -4.16 M4.13 -4.16 C5.48 -2.8, 6.83 -1.45, 8.27 0 M4.13 -4.16 C5.48 -2.8, 6.84 -1.44, 8.27 0 M8.27 0 C6.75 1.52, 5.24 3.04, 4.13 4.16 M8.27 0 C6.89 1.39, 5.51 2.78, 4.13 4.16 M4.13 4.16 C3.21 3.23, 2.29 2.3, 0 0 M4.13 4.16 C2.66 2.68, 1.19 1.2, 0 0 M0 0 C0 0, 0 0, 0 0 M0 0 C0 0, 0 0, 0 0 M0 0 C0 0, 0 0, 0 0 M0 0 C0 0, 0 0, 0 0" stroke="#00000000" stroke-width="1" fill="none"></path></g></g><mask></mask><g stroke-linecap="round"><g transform="translate(29.766666412353516 46.62666702270508) rotate(0 4.133333206176758 0)" fill-rule="evenodd"><path d="M0 0 L4.13 -4.16 L8.27 0 L4.13 4.16 L0 0 L0 0" stroke="none" stroke-width="0" fill="#4285f4" fill-rule="evenodd"></path><path d="M0 0 C1.47 -1.48, 2.94 -2.96, 4.13 -4.16 M0 0 C1.4 -1.41, 2.8 -2.81, 4.13 -4.16 M4.13 -4.16 C5.28 -3, 6.43 -1.85, 8.27 0 M4.13 -4.16 C5.36 -2.93, 6.58 -1.69, 8.27 0 M8.27 0 C7.28 0.99, 6.3 1.98, 4.13 4.16 M8.27 0 C6.63 1.65, 4.99 3.3, 4.13 4.16 M4.13 4.16 C2.85 2.87, 1.56 1.57, 0 0 M4.13 4.16 C3.26 3.29, 2.4 2.41, 0 0 M0 0 C0 0, 0 0, 0 0 M0 0 C0 0, 0 0, 0 0 M0 0 C0 0, 0 0, 0 0 M0 0 C0 0, 0 0, 0 0" stroke="#00000000" stroke-width="1" fill="none"></path></g></g><mask></mask><g stroke-linecap="round"><g transform="translate(38.96666717529297 37.37333297729492) rotate(0 4.133333206176758 0.006666898727416992)" fill-rule="evenodd"><path d="M0 0 L4.13 -4.15 L8.27 0 L4.13 4.16 L0 0 L0 0" stroke="none" stroke-width="0" fill="#aecbfa" fill-rule="evenodd"></path><path d="M0 0 C1.2 -1.21, 2.41 -2.42, 4.13 -4.15 M0 0 C0.83 -0.84, 1.67 -1.67, 4.13 -4.15 M4.13 -4.15 C4.98 -3.3, 5.82 -2.45, 8.27 0 M4.13 -4.15 C5.32 -2.96, 6.5 -1.77, 8.27 0 M8.27 0 C6.67 1.61, 5.07 3.22, 4.13 4.16 M8.27 0 C7.21 1.06, 6.16 2.12, 4.13 4.16 M4.13 4.16 C3.08 3.1, 2.03 2.04, 0 0 M4.13 4.16 C2.79 2.81, 1.45 1.46, 0 0 M0 0 C0 0, 0 0, 0 0 M0 0 C0 0, 0 0, 0 0 M0 0 C0 0, 0 0, 0 0 M0 0 C0 0, 0 0, 0 0" stroke="#00000000" stroke-width="1" fill="none"></path></g></g><mask></mask><g stroke-linecap="round"><g transform="translate(43.566667556762695 42) rotate(0 4.133333206176758 0)" fill-rule="evenodd"><path d="M0 0 L4.13 -4.16 L8.27 0 L4.13 4.16 L0 0 L0 0" stroke="none" stroke-width="0" fill="#669df6" fill-rule="evenodd"></path><path d="M0 0 C1.22 -1.23, 2.45 -2.46, 4.13 -4.16 M0 0 C1.11 -1.12, 2.22 -2.24, 4.13 -4.16 M4.13 -4.16 C4.97 -3.32, 5.81 -2.48, 8.27 0 M4.13 -4.16 C5.19 -3.1, 6.24 -2.04, 8.27 0 M8.27 0 C7.04 1.23, 5.82 2.46, 4.13 4.16 M8.27 0 C6.97 1.31, 5.67 2.62, 4.13 4.16 M4.13 4.16 C2.76 2.78, 1.39 1.4, 0 0 M4.13 4.16 C2.63 2.64, 1.12 1.13, 0 0 M0 0 C0 0, 0 0, 0 0 M0 0 C0 0, 0 0, 0 0 M0 0 C0 0, 0 0, 0 0 M0 0 C0 0, 0 0, 0 0" stroke="#00000000" stroke-width="1" fill="none"></path></g></g><mask></mask><g stroke-linecap="round"><g transform="translate(38.96666717529297 46.62666702270508) rotate(0 4.133333206176758 0)" fill-rule="evenodd"><path d="M0 0 L4.13 -4.16 L8.27 0 L4.13 4.16 L0 0 L0 0" stroke="none" stroke-width="0" fill="#4285f4" fill-rule="evenodd"></path><path d="M0 0 C0.95 -0.95, 1.9 -1.91, 4.13 -4.16 M0 0 C1.29 -1.29, 2.57 -2.59, 4.13 -4.16 M4.13 -4.16 C5.24 -3.04, 6.35 -1.93, 8.27 0 M4.13 -4.16 C5.57 -2.71, 7.01 -1.26, 8.27 0 M8.27 0 C7.13 1.15, 5.99 2.29, 4.13 4.16 M8.27 0 C7.07 1.21, 5.87 2.41, 4.13 4.16 M4.13 4.16 C2.6 2.61, 1.06 1.07, 0 0 M4.13 4.16 C3.11 3.13, 2.08 2.09, 0 0 M0 0 C0 0, 0 0, 0 0 M0 0 C0 0, 0 0, 0 0 M0 0 C0 0, 0 0, 0 0 M0 0 C0 0, 0 0, 0 0" stroke="#00000000" stroke-width="1" fill="none"></path></g></g><mask></mask></svg>