<svg version="1.1" xmlns="http://www.w3.org/2000/svg" viewBox="0 0 172 84" width="172" height="84">
  <!-- svg-source:excalidraw -->
  
  <defs>
    
    
  </defs>
  <g stroke-linecap="round" transform="translate(6 6) rotate(0 80 36)"><path d="M18 0 C65.63 0, 113.26 0, 142 0 C154 0, 160 6, 160 18 C160 28.66, 160 39.32, 160 54 C160 66, 154 72, 142 72 C94.99 72, 47.99 72, 18 72 C6 72, 0 66, 0 54 C0 41.52, 0 29.05, 0 18 C0 6, 6 0, 18 0" stroke="none" stroke-width="0" fill="#FFF"></path><path d="M18 0 C65 0, 112.01 0, 142 0 M18 0 C57.89 0, 97.78 0, 142 0 M142 0 C154 0, 160 6, 160 18 M142 0 C154 0, 160 6, 160 18 M160 18 C160 27.92, 160 37.83, 160 54 M160 18 C160 26.78, 160 35.56, 160 54 M160 54 C160 66, 154 72, 142 72 M160 54 C160 66, 154 72, 142 72 M142 72 C115.15 72, 88.3 72, 18 72 M142 72 C94.63 72, 47.26 72, 18 72 M18 72 C6 72, 0 66, 0 54 M18 72 C6 72, 0 66, 0 54 M0 54 C0 43.56, 0 33.13, 0 18 M0 54 C0 46.04, 0 38.09, 0 18 M0 18 C0 6, 6 0, 18 0 M0 18 C0 6, 6 0, 18 0" stroke="#4285f4" stroke-width="2" fill="none"></path></g><g transform="translate(71 21.00000000000003) rotate(0 30.5 21)"><text x="0" y="0" font-family="Helvetica, Segoe UI Emoji" font-size="12px" fill="#000000" text-anchor="start" style="white-space: pre;" direction="ltr" dominant-baseline="text-before-edge">Network</text><text x="0" y="14" font-family="Helvetica, Segoe UI Emoji" font-size="12px" fill="#000000" text-anchor="start" style="white-space: pre;" direction="ltr" dominant-baseline="text-before-edge">Intelligence</text><text x="0" y="28" font-family="Helvetica, Segoe UI Emoji" font-size="12px" fill="#000000" text-anchor="start" style="white-space: pre;" direction="ltr" dominant-baseline="text-before-edge">Center</text></g><g stroke-linecap="round"><g transform="translate(38.35343551635742 49.75816726684573) rotate(0 0 2.5844268798828125)" fill-rule="evenodd"><path d="M0 0 L0 0 L0.28 0.01 L0.54 0.05 L0.8 0.12 L1.05 0.2 L1.29 0.31 L1.51 0.44 L1.72 0.59 L1.91 0.76 L2.08 0.94 L2.24 1.14 L2.37 1.35 L2.48 1.58 L2.58 1.82 L2.64 2.06 L2.68 2.32 L2.7 2.58 L2.68 2.85 L2.64 3.11 L2.58 3.35 L2.48 3.59 L2.37 3.82 L2.24 4.03 L2.08 4.23 L1.91 4.41 L1.72 4.58 L1.51 4.73 L1.29 4.86 L1.05 4.97 L0.8 5.05 L0.54 5.12 L0.28 5.16 L0 5.17 L-0.28 5.16 L-0.54 5.12 L-0.8 5.05 L-1.05 4.97 L-1.29 4.86 L-1.51 4.73 L-1.72 4.58 L-1.91 4.41 L-2.08 4.23 L-2.24 4.03 L-2.37 3.82 L-2.48 3.59 L-2.58 3.35 L-2.64 3.11 L-2.68 2.85 L-2.7 2.58 L-2.68 2.32 L-2.64 2.06 L-2.58 1.81 L-2.48 1.58 L-2.37 1.35 L-2.24 1.14 L-2.08 0.94 L-1.91 0.76 L-1.72 0.59 L-1.51 0.44 L-1.29 0.31 L-1.05 0.2 L-0.8 0.12 L-0.54 0.05 L-0.28 0.01 L0 0 L0 0" stroke="none" stroke-width="0" fill="#4285f4" fill-rule="evenodd"></path><path d="M0 0 C0 0, 0 0, 0 0 M0 0 C0 0, 0 0, 0 0 M0 0 C0.07 0, 0.14 0.01, 0.28 0.01 M0 0 C0.06 0, 0.13 0.01, 0.28 0.01 M0.28 0.01 C0.37 0.03, 0.47 0.04, 0.54 0.05 M0.28 0.01 C0.35 0.02, 0.43 0.04, 0.54 0.05 M0.54 0.05 C0.6 0.07, 0.66 0.08, 0.8 0.12 M0.54 0.05 C0.64 0.08, 0.74 0.1, 0.8 0.12 M0.8 0.12 C0.89 0.15, 0.97 0.18, 1.05 0.2 M0.8 0.12 C0.89 0.15, 0.98 0.18, 1.05 0.2 M1.05 0.2 C1.12 0.23, 1.19 0.27, 1.29 0.31 M1.05 0.2 C1.14 0.24, 1.23 0.29, 1.29 0.31 M1.29 0.31 C1.34 0.34, 1.4 0.38, 1.51 0.44 M1.29 0.31 C1.36 0.35, 1.43 0.39, 1.51 0.44 M1.51 0.44 C1.56 0.48, 1.62 0.52, 1.72 0.59 M1.51 0.44 C1.57 0.48, 1.62 0.53, 1.72 0.59 M1.72 0.59 C1.76 0.63, 1.81 0.67, 1.91 0.76 M1.72 0.59 C1.78 0.65, 1.85 0.71, 1.91 0.76 M1.91 0.76 C1.96 0.82, 2.02 0.88, 2.08 0.94 M1.91 0.76 C1.97 0.82, 2.03 0.88, 2.08 0.94 M2.08 0.94 C2.13 1.01, 2.19 1.08, 2.24 1.14 M2.08 0.94 C2.14 1.01, 2.19 1.08, 2.24 1.14 M2.24 1.14 C2.28 1.22, 2.33 1.29, 2.37 1.35 M2.24 1.14 C2.28 1.2, 2.32 1.27, 2.37 1.35 M2.37 1.35 C2.41 1.42, 2.44 1.49, 2.48 1.58 M2.37 1.35 C2.4 1.41, 2.43 1.47, 2.48 1.58 M2.48 1.58 C2.5 1.63, 2.52 1.68, 2.58 1.82 M2.48 1.58 C2.51 1.64, 2.53 1.71, 2.58 1.82 M2.58 1.82 C2.6 1.9, 2.62 1.99, 2.64 2.06 M2.58 1.82 C2.6 1.91, 2.62 2, 2.64 2.06 M2.64 2.06 C2.65 2.13, 2.66 2.19, 2.68 2.32 M2.64 2.06 C2.65 2.13, 2.66 2.2, 2.68 2.32 M2.68 2.32 C2.69 2.42, 2.69 2.52, 2.7 2.58 M2.68 2.32 C2.69 2.42, 2.69 2.52, 2.7 2.58 M2.7 2.58 C2.69 2.64, 2.69 2.7, 2.68 2.85 M2.7 2.58 C2.69 2.66, 2.69 2.73, 2.68 2.85 M2.68 2.85 C2.67 2.95, 2.65 3.04, 2.64 3.11 M2.68 2.85 C2.67 2.94, 2.65 3.03, 2.64 3.11 M2.64 3.11 C2.62 3.19, 2.6 3.27, 2.58 3.35 M2.64 3.11 C2.62 3.2, 2.59 3.3, 2.58 3.35 M2.58 3.35 C2.55 3.42, 2.53 3.48, 2.48 3.59 M2.58 3.35 C2.54 3.44, 2.51 3.52, 2.48 3.59 M2.48 3.59 C2.46 3.64, 2.43 3.7, 2.37 3.82 M2.48 3.59 C2.45 3.65, 2.42 3.72, 2.37 3.82 M2.37 3.82 C2.34 3.86, 2.32 3.9, 2.24 4.03 M2.37 3.82 C2.34 3.86, 2.31 3.91, 2.24 4.03 M2.24 4.03 C2.2 4.07, 2.17 4.12, 2.08 4.23 M2.24 4.03 C2.19 4.08, 2.15 4.14, 2.08 4.23 M2.08 4.23 C2.03 4.28, 1.99 4.33, 1.91 4.41 M2.08 4.23 C2.04 4.27, 2 4.31, 1.91 4.41 M1.91 4.41 C1.83 4.48, 1.75 4.54, 1.72 4.58 M1.91 4.41 C1.84 4.47, 1.78 4.53, 1.72 4.58 M1.72 4.58 C1.63 4.64, 1.55 4.7, 1.51 4.73 M1.72 4.58 C1.65 4.63, 1.58 4.68, 1.51 4.73 M1.51 4.73 C1.43 4.77, 1.35 4.82, 1.29 4.86 M1.51 4.73 C1.45 4.76, 1.38 4.8, 1.29 4.86 M1.29 4.86 C1.23 4.88, 1.16 4.91, 1.05 4.97 M1.29 4.86 C1.2 4.9, 1.11 4.94, 1.05 4.97 M1.05 4.97 C0.99 4.99, 0.93 5.01, 0.8 5.05 M1.05 4.97 C0.97 4.99, 0.9 5.02, 0.8 5.05 M0.8 5.05 C0.71 5.08, 0.62 5.1, 0.54 5.12 M0.8 5.05 C0.71 5.07, 0.62 5.1, 0.54 5.12 M0.54 5.12 C0.45 5.13, 0.35 5.14, 0.28 5.16 M0.54 5.12 C0.45 5.13, 0.37 5.14, 0.28 5.16 M0.28 5.16 C0.18 5.16, 0.08 5.16, 0 5.17 M0.28 5.16 C0.22 5.16, 0.16 5.16, 0 5.17 M0 5.17 C-0.1 5.16, -0.19 5.16, -0.28 5.16 M0 5.17 C-0.06 5.17, -0.12 5.16, -0.28 5.16 M-0.28 5.16 C-0.36 5.14, -0.45 5.13, -0.54 5.12 M-0.28 5.16 C-0.37 5.14, -0.46 5.13, -0.54 5.12 M-0.54 5.12 C-0.63 5.09, -0.72 5.07, -0.8 5.05 M-0.54 5.12 C-0.63 5.09, -0.72 5.07, -0.8 5.05 M-0.8 5.05 C-0.87 5.03, -0.95 5, -1.05 4.97 M-0.8 5.05 C-0.87 5.03, -0.94 5, -1.05 4.97 M-1.05 4.97 C-1.12 4.93, -1.19 4.9, -1.29 4.86 M-1.05 4.97 C-1.11 4.94, -1.18 4.91, -1.29 4.86 M-1.29 4.86 C-1.36 4.81, -1.43 4.77, -1.51 4.73 M-1.29 4.86 C-1.37 4.81, -1.45 4.76, -1.51 4.73 M-1.51 4.73 C-1.56 4.69, -1.6 4.66, -1.72 4.58 M-1.51 4.73 C-1.55 4.7, -1.6 4.66, -1.72 4.58 M-1.72 4.58 C-1.76 4.54, -1.81 4.5, -1.91 4.41 M-1.72 4.58 C-1.78 4.53, -1.84 4.47, -1.91 4.41 M-1.91 4.41 C-1.97 4.35, -2.03 4.29, -2.08 4.23 M-1.91 4.41 C-1.95 4.37, -1.98 4.33, -2.08 4.23 M-2.08 4.23 C-2.12 4.17, -2.17 4.12, -2.24 4.03 M-2.08 4.23 C-2.12 4.18, -2.15 4.14, -2.24 4.03 M-2.24 4.03 C-2.28 3.96, -2.33 3.89, -2.37 3.82 M-2.24 4.03 C-2.29 3.94, -2.34 3.86, -2.37 3.82 M-2.37 3.82 C-2.42 3.73, -2.46 3.64, -2.48 3.59 M-2.37 3.82 C-2.4 3.77, -2.42 3.72, -2.48 3.59 M-2.48 3.59 C-2.51 3.52, -2.54 3.45, -2.58 3.35 M-2.48 3.59 C-2.51 3.53, -2.53 3.48, -2.58 3.35 M-2.58 3.35 C-2.59 3.29, -2.61 3.23, -2.64 3.11 M-2.58 3.35 C-2.6 3.27, -2.62 3.19, -2.64 3.11 M-2.64 3.11 C-2.65 3.05, -2.66 2.99, -2.68 2.85 M-2.64 3.11 C-2.66 3.02, -2.67 2.94, -2.68 2.85 M-2.68 2.85 C-2.69 2.75, -2.69 2.65, -2.7 2.58 M-2.68 2.85 C-2.69 2.78, -2.69 2.71, -2.7 2.58 M-2.7 2.58 C-2.69 2.52, -2.69 2.45, -2.68 2.32 M-2.7 2.58 C-2.69 2.52, -2.69 2.46, -2.68 2.32 M-2.68 2.32 C-2.67 2.22, -2.65 2.12, -2.64 2.06 M-2.68 2.32 C-2.67 2.26, -2.66 2.19, -2.64 2.06 M-2.64 2.06 C-2.62 2, -2.61 1.93, -2.58 1.81 M-2.64 2.06 C-2.63 2.01, -2.61 1.95, -2.58 1.81 M-2.58 1.81 C-2.56 1.76, -2.54 1.71, -2.48 1.58 M-2.58 1.81 C-2.55 1.74, -2.52 1.66, -2.48 1.58 M-2.48 1.58 C-2.45 1.51, -2.42 1.44, -2.37 1.35 M-2.48 1.58 C-2.45 1.5, -2.41 1.43, -2.37 1.35 M-2.37 1.35 C-2.34 1.3, -2.31 1.25, -2.24 1.14 M-2.37 1.35 C-2.33 1.29, -2.29 1.22, -2.24 1.14 M-2.24 1.14 C-2.19 1.08, -2.15 1.02, -2.08 0.94 M-2.24 1.14 C-2.19 1.08, -2.15 1.03, -2.08 0.94 M-2.08 0.94 C-2.02 0.87, -1.95 0.8, -1.91 0.76 M-2.08 0.94 C-2.04 0.9, -2 0.86, -1.91 0.76 M-1.91 0.76 C-1.84 0.7, -1.77 0.63, -1.72 0.59 M-1.91 0.76 C-1.84 0.69, -1.76 0.63, -1.72 0.59 M-1.72 0.59 C-1.64 0.53, -1.56 0.48, -1.51 0.44 M-1.72 0.59 C-1.67 0.55, -1.62 0.52, -1.51 0.44 M-1.51 0.44 C-1.44 0.4, -1.36 0.36, -1.29 0.31 M-1.51 0.44 C-1.46 0.41, -1.41 0.38, -1.29 0.31 M-1.29 0.31 C-1.2 0.27, -1.12 0.23, -1.05 0.2 M-1.29 0.31 C-1.2 0.27, -1.12 0.23, -1.05 0.2 M-1.05 0.2 C-0.95 0.17, -0.86 0.14, -0.8 0.12 M-1.05 0.2 C-0.99 0.18, -0.94 0.16, -0.8 0.12 M-0.8 0.12 C-0.75 0.1, -0.69 0.09, -0.54 0.05 M-0.8 0.12 C-0.72 0.09, -0.63 0.07, -0.54 0.05 M-0.54 0.05 C-0.48 0.04, -0.42 0.03, -0.28 0.01 M-0.54 0.05 C-0.48 0.04, -0.41 0.03, -0.28 0.01 M-0.28 0.01 C-0.2 0.01, -0.13 0.01, 0 0 M-0.28 0.01 C-0.19 0.01, -0.1 0, 0 0 M0 0 C0 0, 0 0, 0 0 M0 0 C0 0, 0 0, 0 0 M0 0 C0 0, 0 0, 0 0 M0 0 C0 0, 0 0, 0 0" stroke="#00000000" stroke-width="1" fill="none"></path></g></g><mask></mask><g stroke-linecap="round"><g transform="translate(42.10061073303223 46.40671730041507) rotate(0 -3.551754653453827 -4.43847393989563)" fill-rule="evenodd"><path d="M0 0 L1.33 2.21 L2.87 2.21 L2.87 2.21 L2.95 2.03 L3.04 1.85 L3.14 1.67 L3.26 1.51 L3.39 1.36 L3.53 1.21 L3.68 1.08 L3.84 0.96 L4.01 0.85 L4.19 0.75 L4.38 0.67 L4.58 0.6 L4.78 0.54 L4.99 0.5 L5.2 0.48 L5.42 0.47 L5.7 0.48 L5.97 0.52 L6.23 0.59 L6.47 0.67 L6.71 0.78 L6.93 0.91 L7.14 1.06 L7.33 1.23 L7.5 1.41 L7.66 1.61 L7.79 1.82 L7.91 2.05 L8 2.29 L8.06 2.53 L8.11 2.79 L8.12 3.05 L8.11 3.32 L8.06 3.57 L8 3.82 L7.91 4.06 L7.79 4.28 L7.66 4.5 L7.5 4.7 L7.33 4.88 L7.14 5.05 L6.93 5.2 L6.71 5.33 L6.47 5.43 L6.23 5.52 L5.97 5.59 L5.7 5.62 L5.42 5.64 L5.21 5.63 L5 5.61 L4.79 5.57 L4.59 5.51 L4.4 5.44 L4.21 5.36 L4.03 5.27 L3.86 5.16 L3.7 5.04 L3.55 4.91 L3.41 4.77 L3.28 4.62 L3.16 4.47 L3.06 4.3 L2.97 4.12 L2.89 3.94 L1.14 3.94 L1.14 3.94 L0.94 3.93 L0.75 3.89 L0.56 3.82 L0.39 3.74 L0.23 3.63 L0.08 3.51 L-0.05 3.36 L-0.16 3.2 L-1.63 0.75 L-5.87 0.75 L-7.34 3.2 L-7.34 3.2 L-7.45 3.36 L-7.58 3.5 L-7.72 3.63 L-7.88 3.74 L-8.06 3.82 L-8.24 3.89 L-8.44 3.93 L-8.64 3.94 L-10.38 3.94 L-10.38 3.94 L-10.46 4.12 L-10.55 4.3 L-10.66 4.47 L-10.77 4.62 L-10.9 4.77 L-11.04 4.91 L-11.19 5.04 L-11.35 5.16 L-11.52 5.27 L-11.7 5.36 L-11.89 5.44 L-12.08 5.51 L-12.28 5.57 L-12.49 5.61 L-12.7 5.63 L-12.92 5.64 L-13.19 5.62 L-13.46 5.59 L-13.72 5.52 L-13.97 5.43 L-14.2 5.33 L-14.43 5.2 L-14.63 5.05 L-14.82 4.88 L-15 4.7 L-15.15 4.5 L-15.29 4.28 L-15.4 4.06 L-15.49 3.82 L-15.56 3.57 L-15.6 3.32 L-15.61 3.05 L-15.6 2.79 L-15.56 2.53 L-15.49 2.29 L-15.4 2.05 L-15.29 1.82 L-15.15 1.61 L-15 1.41 L-14.82 1.23 L-14.63 1.06 L-14.43 0.91 L-14.2 0.78 L-13.97 0.67 L-13.72 0.59 L-13.46 0.52 L-13.19 0.48 L-12.92 0.47 L-12.7 0.48 L-12.48 0.5 L-12.27 0.54 L-12.07 0.6 L-11.87 0.67 L-11.69 0.75 L-11.51 0.85 L-11.33 0.96 L-11.17 1.08 L-11.02 1.21 L-10.88 1.36 L-10.75 1.51 L-10.64 1.67 L-10.53 1.85 L-10.44 2.03 L-10.37 2.21 L-8.82 2.21 L-7.45 -0.08 L-9.57 -3.6 L-13.04 -3.6 L-13.04 -3.6 L-13.11 -3.43 L-13.19 -3.26 L-13.29 -3.11 L-13.39 -2.96 L-13.51 -2.81 L-13.63 -2.68 L-13.77 -2.55 L-13.91 -2.43 L-14.07 -2.33 L-14.23 -2.23 L-14.39 -2.15 L-14.57 -2.07 L-14.75 -2.01 L-14.93 -1.96 L-15.13 -1.92 L-15.32 -1.9 L-15.58 -1.89 L-15.58 -1.89 L-15.86 -1.9 L-16.12 -1.94 L-16.38 -2 L-16.63 -2.09 L-16.87 -2.2 L-17.09 -2.33 L-17.3 -2.48 L-17.49 -2.64 L-17.66 -2.83 L-17.82 -3.03 L-17.95 -3.24 L-18.06 -3.46 L-18.16 -3.7 L-18.22 -3.95 L-18.26 -4.21 L-18.28 -4.47 L-18.26 -4.73 L-18.22 -4.99 L-18.16 -5.24 L-18.06 -5.48 L-17.95 -5.7 L-17.82 -5.91 L-17.66 -6.11 L-17.49 -6.3 L-17.3 -6.46 L-17.09 -6.61 L-16.87 -6.74 L-16.63 -6.85 L-16.38 -6.94 L-16.12 -7 L-15.86 -7.04 L-15.58 -7.05 L-15.36 -7.05 L-15.15 -7.02 L-14.94 -6.98 L-14.74 -6.93 L-14.54 -6.86 L-14.36 -6.77 L-14.18 -6.68 L-14.01 -6.57 L-13.85 -6.45 L-13.69 -6.32 L-13.55 -6.18 L-13.42 -6.03 L-13.31 -5.87 L-13.2 -5.7 L-13.11 -5.52 L-13.03 -5.33 L-9.7 -5.33 L-7.52 -8.9 L-8.82 -11.06 L-10.37 -11.06 L-10.37 -11.06 L-10.44 -10.88 L-10.53 -10.7 L-10.64 -10.53 L-10.76 -10.37 L-10.88 -10.22 L-11.03 -10.08 L-11.18 -9.95 L-11.34 -9.83 L-11.51 -9.72 L-11.69 -9.62 L-11.88 -9.54 L-12.07 -9.47 L-12.27 -9.41 L-12.48 -9.37 L-12.69 -9.35 L-12.91 -9.34 L-13.19 -9.35 L-13.46 -9.39 L-13.71 -9.46 L-13.96 -9.54 L-14.2 -9.65 L-14.42 -9.78 L-14.63 -9.93 L-14.82 -10.1 L-14.99 -10.28 L-15.15 -10.48 L-15.28 -10.69 L-15.4 -10.92 L-15.49 -11.16 L-15.55 -11.4 L-15.6 -11.66 L-15.61 -11.93 L-15.6 -12.19 L-15.55 -12.45 L-15.49 -12.69 L-15.4 -12.93 L-15.28 -13.16 L-15.15 -13.37 L-14.99 -13.57 L-14.82 -13.75 L-14.63 -13.92 L-14.42 -14.07 L-14.2 -14.2 L-13.96 -14.31 L-13.71 -14.39 L-13.46 -14.46 L-13.19 -14.5 L-12.91 -14.51 L-12.69 -14.5 L-12.48 -14.48 L-12.27 -14.44 L-12.07 -14.38 L-11.88 -14.31 L-11.69 -14.23 L-11.51 -14.13 L-11.34 -14.03 L-11.18 -13.91 L-11.03 -13.77 L-10.89 -13.63 L-10.76 -13.48 L-10.64 -13.32 L-10.53 -13.15 L-10.44 -12.97 L-10.37 -12.79 L-8.63 -12.79 L-8.63 -12.79 L-8.43 -12.77 L-8.24 -12.73 L-8.05 -12.67 L-7.88 -12.59 L-7.71 -12.48 L-7.57 -12.36 L-7.44 -12.21 L-7.33 -12.05 L-5.91 -9.69 L-1.56 -9.69 L-0.15 -12.05 L-0.15 -12.05 L-0.04 -12.21 L0.09 -12.36 L0.24 -12.48 L0.4 -12.59 L0.57 -12.67 L0.76 -12.74 L0.95 -12.78 L1.15 -12.8 L2.89 -12.8 L2.89 -12.8 L2.97 -12.98 L3.06 -13.16 L3.16 -13.33 L3.28 -13.49 L3.41 -13.64 L3.55 -13.78 L3.7 -13.91 L3.86 -14.03 L4.03 -14.14 L4.21 -14.23 L4.4 -14.32 L4.6 -14.39 L4.8 -14.44 L5.01 -14.48 L5.22 -14.51 L5.44 -14.51 L5.71 -14.5 L5.98 -14.46 L6.24 -14.4 L6.49 -14.31 L6.72 -14.2 L6.95 -14.07 L7.15 -13.92 L7.34 -13.76 L7.52 -13.57 L7.67 -13.38 L7.81 -13.16 L7.92 -12.94 L8.01 -12.7 L8.08 -12.45 L8.12 -12.19 L8.13 -11.93 L8.12 -11.67 L8.08 -11.41 L8.01 -11.16 L7.92 -10.92 L7.81 -10.7 L7.67 -10.49 L7.52 -10.29 L7.34 -10.1 L7.15 -9.94 L6.95 -9.79 L6.72 -9.66 L6.49 -9.55 L6.24 -9.46 L5.98 -9.4 L5.71 -9.36 L5.44 -9.35 L5.22 -9.35 L5.01 -9.38 L4.8 -9.42 L4.6 -9.47 L4.4 -9.54 L4.21 -9.63 L4.04 -9.72 L3.86 -9.83 L3.7 -9.95 L3.55 -10.08 L3.41 -10.22 L3.28 -10.37 L3.16 -10.54 L3.06 -10.7 L2.97 -10.88 L2.89 -11.07 L1.34 -11.07 L0 -8.82 L2.09 -5.34 L5.94 -5.34 L5.94 -5.34 L6.01 -5.51 L6.09 -5.68 L6.18 -5.83 L6.29 -5.98 L6.4 -6.13 L6.53 -6.26 L6.67 -6.39 L6.81 -6.51 L6.96 -6.61 L7.12 -6.71 L7.29 -6.8 L7.46 -6.87 L7.64 -6.94 L7.83 -6.99 L8.02 -7.02 L8.22 -7.05 L8.48 -7.06 L8.48 -7.06 L8.75 -7.05 L9.02 -7.01 L9.28 -6.94 L9.53 -6.86 L9.76 -6.75 L9.98 -6.62 L10.19 -6.47 L10.38 -6.3 L10.56 -6.12 L10.71 -5.92 L10.85 -5.71 L10.96 -5.48 L11.05 -5.24 L11.12 -5 L11.16 -4.74 L11.17 -4.48 L11.16 -4.21 L11.12 -3.95 L11.05 -3.71 L10.96 -3.47 L10.85 -3.24 L10.71 -3.03 L10.56 -2.83 L10.38 -2.65 L10.19 -2.48 L9.98 -2.33 L9.76 -2.2 L9.53 -2.09 L9.28 -2.01 L9.02 -1.94 L8.75 -1.9 L8.48 -1.89 L8.26 -1.9 L8.05 -1.92 L7.84 -1.96 L7.64 -2.02 L7.44 -2.09 L7.25 -2.17 L7.07 -2.27 L6.9 -2.37 L6.74 -2.49 L6.59 -2.63 L6.45 -2.77 L6.32 -2.92 L6.2 -3.08 L6.1 -3.25 L6.01 -3.43 L5.93 -3.61 L2.22 -3.61 L0 0 L0 0" stroke="none" stroke-width="0" fill="#4285f4" fill-rule="evenodd"></path><path d="M0 0 C0.4 0.66, 0.79 1.32, 1.33 2.21 M0 0 C0.47 0.78, 0.94 1.56, 1.33 2.21 M1.33 2.21 C1.74 2.21, 2.15 2.21, 2.87 2.21 M1.33 2.21 C1.83 2.21, 2.33 2.21, 2.87 2.21 M2.87 2.21 C2.87 2.21, 2.87 2.21, 2.87 2.21 M2.87 2.21 C2.87 2.21, 2.87 2.21, 2.87 2.21 M2.87 2.21 C2.9 2.15, 2.92 2.09, 2.95 2.03 M2.87 2.21 C2.9 2.15, 2.92 2.08, 2.95 2.03 M2.95 2.03 C2.98 1.97, 3.01 1.91, 3.04 1.85 M2.95 2.03 C2.97 1.97, 3 1.92, 3.04 1.85 M3.04 1.85 C3.06 1.81, 3.08 1.77, 3.14 1.67 M3.04 1.85 C3.07 1.8, 3.09 1.75, 3.14 1.67 M3.14 1.67 C3.17 1.64, 3.19 1.6, 3.26 1.51 M3.14 1.67 C3.19 1.61, 3.23 1.55, 3.26 1.51 M3.26 1.51 C3.3 1.46, 3.34 1.42, 3.39 1.36 M3.26 1.51 C3.31 1.45, 3.36 1.39, 3.39 1.36 M3.39 1.36 C3.42 1.32, 3.45 1.29, 3.53 1.21 M3.39 1.36 C3.43 1.31, 3.47 1.27, 3.53 1.21 M3.53 1.21 C3.56 1.19, 3.6 1.16, 3.68 1.08 M3.53 1.21 C3.59 1.16, 3.65 1.11, 3.68 1.08 M3.68 1.08 C3.74 1.04, 3.8 0.99, 3.84 0.96 M3.68 1.08 C3.73 1.04, 3.79 1, 3.84 0.96 M3.84 0.96 C3.9 0.92, 3.95 0.89, 4.01 0.85 M3.84 0.96 C3.89 0.93, 3.93 0.9, 4.01 0.85 M4.01 0.85 C4.07 0.82, 4.12 0.79, 4.19 0.75 M4.01 0.85 C4.08 0.81, 4.15 0.78, 4.19 0.75 M4.19 0.75 C4.23 0.74, 4.27 0.72, 4.38 0.67 M4.19 0.75 C4.26 0.72, 4.32 0.7, 4.38 0.67 M4.38 0.67 C4.45 0.65, 4.51 0.62, 4.58 0.6 M4.38 0.67 C4.43 0.65, 4.48 0.63, 4.58 0.6 M4.58 0.6 C4.66 0.58, 4.74 0.55, 4.78 0.54 M4.58 0.6 C4.64 0.58, 4.69 0.57, 4.78 0.54 M4.78 0.54 C4.82 0.53, 4.87 0.53, 4.99 0.5 M4.78 0.54 C4.84 0.53, 4.89 0.52, 4.99 0.5 M4.99 0.5 C5.05 0.5, 5.1 0.49, 5.2 0.48 M4.99 0.5 C5.06 0.49, 5.14 0.49, 5.2 0.48 M5.2 0.48 C5.27 0.48, 5.33 0.47, 5.42 0.47 M5.2 0.48 C5.25 0.48, 5.31 0.47, 5.42 0.47 M5.42 0.47 C5.51 0.47, 5.6 0.48, 5.7 0.48 M5.42 0.47 C5.49 0.47, 5.55 0.48, 5.7 0.48 M5.7 0.48 C5.8 0.5, 5.91 0.51, 5.97 0.52 M5.7 0.48 C5.76 0.49, 5.82 0.5, 5.97 0.52 M5.97 0.52 C6.04 0.54, 6.12 0.56, 6.23 0.59 M5.97 0.52 C6.04 0.54, 6.11 0.56, 6.23 0.59 M6.23 0.59 C6.31 0.61, 6.39 0.64, 6.47 0.67 M6.23 0.59 C6.28 0.6, 6.33 0.62, 6.47 0.67 M6.47 0.67 C6.54 0.7, 6.6 0.73, 6.71 0.78 M6.47 0.67 C6.54 0.7, 6.6 0.73, 6.71 0.78 M6.71 0.78 C6.76 0.81, 6.81 0.84, 6.93 0.91 M6.71 0.78 C6.77 0.82, 6.83 0.85, 6.93 0.91 M6.93 0.91 C7 0.96, 7.08 1.02, 7.14 1.06 M6.93 0.91 C6.98 0.95, 7.03 0.98, 7.14 1.06 M7.14 1.06 C7.21 1.12, 7.29 1.19, 7.33 1.23 M7.14 1.06 C7.21 1.12, 7.27 1.18, 7.33 1.23 M7.33 1.23 C7.4 1.3, 7.47 1.37, 7.5 1.41 M7.33 1.23 C7.37 1.27, 7.41 1.31, 7.5 1.41 M7.5 1.41 C7.56 1.48, 7.61 1.55, 7.66 1.61 M7.5 1.41 C7.55 1.47, 7.6 1.53, 7.66 1.61 M7.66 1.61 C7.69 1.66, 7.73 1.72, 7.79 1.82 M7.66 1.61 C7.71 1.68, 7.75 1.75, 7.79 1.82 M7.79 1.82 C7.83 1.89, 7.86 1.96, 7.91 2.05 M7.79 1.82 C7.82 1.87, 7.84 1.92, 7.91 2.05 M7.91 2.05 C7.94 2.14, 7.98 2.23, 8 2.29 M7.91 2.05 C7.94 2.13, 7.97 2.2, 8 2.29 M8 2.29 C8.02 2.36, 8.04 2.43, 8.06 2.53 M8 2.29 C8.02 2.37, 8.05 2.46, 8.06 2.53 M8.06 2.53 C8.07 2.59, 8.08 2.65, 8.11 2.79 M8.06 2.53 C8.08 2.62, 8.09 2.71, 8.11 2.79 M8.11 2.79 C8.11 2.88, 8.12 2.98, 8.12 3.05 M8.11 2.79 C8.11 2.84, 8.11 2.9, 8.12 3.05 M8.12 3.05 C8.11 3.15, 8.11 3.25, 8.11 3.32 M8.12 3.05 C8.12 3.12, 8.11 3.18, 8.11 3.32 M8.11 3.32 C8.1 3.37, 8.09 3.43, 8.06 3.57 M8.11 3.32 C8.09 3.42, 8.07 3.52, 8.06 3.57 M8.06 3.57 C8.05 3.63, 8.03 3.69, 8 3.82 M8.06 3.57 C8.05 3.63, 8.04 3.68, 8 3.82 M8 3.82 C7.97 3.91, 7.93 3.99, 7.91 4.06 M8 3.82 C7.97 3.91, 7.93 3.99, 7.91 4.06 M7.91 4.06 C7.86 4.15, 7.82 4.24, 7.79 4.28 M7.91 4.06 C7.88 4.11, 7.86 4.16, 7.79 4.28 M7.79 4.28 C7.74 4.37, 7.69 4.46, 7.66 4.5 M7.79 4.28 C7.75 4.35, 7.71 4.42, 7.66 4.5 M7.66 4.5 C7.62 4.54, 7.59 4.59, 7.5 4.7 M7.66 4.5 C7.6 4.57, 7.55 4.64, 7.5 4.7 M7.5 4.7 C7.45 4.75, 7.4 4.81, 7.33 4.88 M7.5 4.7 C7.45 4.76, 7.39 4.82, 7.33 4.88 M7.33 4.88 C7.27 4.93, 7.21 4.98, 7.14 5.05 M7.33 4.88 C7.29 4.92, 7.25 4.95, 7.14 5.05 M7.14 5.05 C7.06 5.1, 6.99 5.15, 6.93 5.2 M7.14 5.05 C7.07 5.1, 7 5.15, 6.93 5.2 M6.93 5.2 C6.85 5.24, 6.77 5.29, 6.71 5.33 M6.93 5.2 C6.84 5.25, 6.76 5.3, 6.71 5.33 M6.71 5.33 C6.62 5.37, 6.53 5.41, 6.47 5.43 M6.71 5.33 C6.62 5.37, 6.53 5.41, 6.47 5.43 M6.47 5.43 C6.39 5.46, 6.31 5.49, 6.23 5.52 M6.47 5.43 C6.39 5.46, 6.3 5.49, 6.23 5.52 M6.23 5.52 C6.14 5.54, 6.05 5.56, 5.97 5.59 M6.23 5.52 C6.17 5.54, 6.12 5.55, 5.97 5.59 M5.97 5.59 C5.88 5.6, 5.79 5.61, 5.7 5.62 M5.97 5.59 C5.87 5.6, 5.78 5.61, 5.7 5.62 M5.7 5.62 C5.61 5.63, 5.51 5.63, 5.42 5.64 M5.7 5.62 C5.64 5.63, 5.57 5.63, 5.42 5.64 M5.42 5.64 C5.37 5.64, 5.32 5.63, 5.21 5.63 M5.42 5.64 C5.35 5.63, 5.27 5.63, 5.21 5.63 M5.21 5.63 C5.13 5.62, 5.04 5.61, 5 5.61 M5.21 5.63 C5.13 5.62, 5.05 5.61, 5 5.61 M5 5.61 C4.95 5.6, 4.91 5.59, 4.79 5.57 M5 5.61 C4.93 5.59, 4.86 5.58, 4.79 5.57 M4.79 5.57 C4.73 5.55, 4.68 5.53, 4.59 5.51 M4.79 5.57 C4.75 5.56, 4.71 5.54, 4.59 5.51 M4.59 5.51 C4.54 5.5, 4.5 5.48, 4.4 5.44 M4.59 5.51 C4.54 5.49, 4.49 5.48, 4.4 5.44 M4.4 5.44 C4.34 5.42, 4.28 5.39, 4.21 5.36 M4.4 5.44 C4.35 5.42, 4.31 5.4, 4.21 5.36 M4.21 5.36 C4.16 5.34, 4.12 5.31, 4.03 5.27 M4.21 5.36 C4.14 5.32, 4.07 5.29, 4.03 5.27 M4.03 5.27 C3.97 5.23, 3.92 5.2, 3.86 5.16 M4.03 5.27 C3.99 5.24, 3.95 5.21, 3.86 5.16 M3.86 5.16 C3.82 5.13, 3.78 5.1, 3.7 5.04 M3.86 5.16 C3.82 5.13, 3.79 5.1, 3.7 5.04 M3.7 5.04 C3.66 5, 3.61 4.96, 3.55 4.91 M3.7 5.04 C3.66 5, 3.61 4.96, 3.55 4.91 M3.55 4.91 C3.51 4.87, 3.47 4.83, 3.41 4.77 M3.55 4.91 C3.51 4.87, 3.47 4.83, 3.41 4.77 M3.41 4.77 C3.36 4.72, 3.32 4.67, 3.28 4.62 M3.41 4.77 C3.36 4.72, 3.32 4.67, 3.28 4.62 M3.28 4.62 C3.23 4.56, 3.19 4.5, 3.16 4.47 M3.28 4.62 C3.24 4.57, 3.2 4.52, 3.16 4.47 M3.16 4.47 C3.13 4.41, 3.1 4.36, 3.06 4.3 M3.16 4.47 C3.14 4.42, 3.11 4.38, 3.06 4.3 M3.06 4.3 C3.02 4.24, 2.99 4.17, 2.97 4.12 M3.06 4.3 C3.02 4.24, 2.99 4.17, 2.97 4.12 M2.97 4.12 C2.95 4.09, 2.93 4.05, 2.89 3.94 M2.97 4.12 C2.94 4.07, 2.92 4.01, 2.89 3.94 M2.89 3.94 C2.26 3.94, 1.62 3.94, 1.14 3.94 M2.89 3.94 C2.5 3.94, 2.11 3.94, 1.14 3.94 M1.14 3.94 C1.14 3.94, 1.14 3.94, 1.14 3.94 M1.14 3.94 C1.14 3.94, 1.14 3.94, 1.14 3.94 M1.14 3.94 C1.1 3.94, 1.06 3.94, 0.94 3.93 M1.14 3.94 C1.07 3.94, 0.99 3.93, 0.94 3.93 M0.94 3.93 C0.88 3.91, 0.82 3.9, 0.75 3.89 M0.94 3.93 C0.87 3.91, 0.8 3.9, 0.75 3.89 M0.75 3.89 C0.71 3.87, 0.67 3.86, 0.56 3.82 M0.75 3.89 C0.68 3.86, 0.61 3.84, 0.56 3.82 M0.56 3.82 C0.5 3.79, 0.44 3.76, 0.39 3.74 M0.56 3.82 C0.52 3.8, 0.47 3.78, 0.39 3.74 M0.39 3.74 C0.33 3.7, 0.26 3.65, 0.23 3.63 M0.39 3.74 C0.33 3.7, 0.28 3.67, 0.23 3.63 M0.23 3.63 C0.19 3.6, 0.16 3.57, 0.08 3.51 M0.23 3.63 C0.18 3.59, 0.13 3.55, 0.08 3.51 M0.08 3.51 C0.05 3.47, 0.02 3.44, -0.05 3.36 M0.08 3.51 C0.04 3.46, 0.01 3.42, -0.05 3.36 M-0.05 3.36 C-0.09 3.3, -0.13 3.24, -0.16 3.2 M-0.05 3.36 C-0.07 3.33, -0.1 3.29, -0.16 3.2 M-0.16 3.2 C-0.54 2.56, -0.93 1.92, -1.63 0.75 M-0.16 3.2 C-0.54 2.56, -0.93 1.91, -1.63 0.75 M-1.63 0.75 C-2.55 0.75, -3.47 0.75, -5.87 0.75 M-1.63 0.75 C-3.08 0.75, -4.54 0.75, -5.87 0.75 M-5.87 0.75 C-6.43 1.69, -7 2.63, -7.34 3.2 M-5.87 0.75 C-6.36 1.56, -6.85 2.38, -7.34 3.2 M-7.34 3.2 C-7.34 3.2, -7.34 3.2, -7.34 3.2 M-7.34 3.2 C-7.34 3.2, -7.34 3.2, -7.34 3.2 M-7.34 3.2 C-7.37 3.25, -7.41 3.3, -7.45 3.36 M-7.34 3.2 C-7.38 3.26, -7.42 3.33, -7.45 3.36 M-7.45 3.36 C-7.49 3.41, -7.54 3.46, -7.58 3.5 M-7.45 3.36 C-7.48 3.4, -7.52 3.44, -7.58 3.5 M-7.58 3.5 C-7.62 3.54, -7.66 3.58, -7.72 3.63 M-7.58 3.5 C-7.61 3.53, -7.64 3.56, -7.72 3.63 M-7.72 3.63 C-7.78 3.67, -7.84 3.71, -7.88 3.74 M-7.72 3.63 C-7.76 3.66, -7.8 3.68, -7.88 3.74 M-7.88 3.74 C-7.92 3.76, -7.96 3.77, -8.06 3.82 M-7.88 3.74 C-7.92 3.75, -7.96 3.77, -8.06 3.82 M-8.06 3.82 C-8.13 3.85, -8.2 3.87, -8.24 3.89 M-8.06 3.82 C-8.1 3.84, -8.15 3.85, -8.24 3.89 M-8.24 3.89 C-8.3 3.9, -8.37 3.91, -8.44 3.93 M-8.24 3.89 C-8.32 3.9, -8.4 3.92, -8.44 3.93 M-8.44 3.93 C-8.51 3.93, -8.57 3.94, -8.64 3.94 M-8.44 3.93 C-8.51 3.93, -8.58 3.94, -8.64 3.94 M-8.64 3.94 C-9.07 3.94, -9.51 3.94, -10.38 3.94 M-8.64 3.94 C-9.01 3.94, -9.39 3.94, -10.38 3.94 M-10.38 3.94 C-10.38 3.94, -10.38 3.94, -10.38 3.94 M-10.38 3.94 C-10.38 3.94, -10.38 3.94, -10.38 3.94 M-10.38 3.94 C-10.4 3.98, -10.41 4.02, -10.46 4.12 M-10.38 3.94 C-10.4 3.98, -10.41 4.02, -10.46 4.12 M-10.46 4.12 C-10.5 4.19, -10.53 4.26, -10.55 4.3 M-10.46 4.12 C-10.49 4.18, -10.51 4.23, -10.55 4.3 M-10.55 4.3 C-10.57 4.34, -10.6 4.38, -10.66 4.47 M-10.55 4.3 C-10.58 4.35, -10.62 4.4, -10.66 4.47 M-10.66 4.47 C-10.7 4.52, -10.74 4.57, -10.77 4.62 M-10.66 4.47 C-10.7 4.52, -10.74 4.58, -10.77 4.62 M-10.77 4.62 C-10.81 4.67, -10.84 4.71, -10.9 4.77 M-10.77 4.62 C-10.82 4.67, -10.86 4.72, -10.9 4.77 M-10.9 4.77 C-10.94 4.81, -10.98 4.85, -11.04 4.91 M-10.9 4.77 C-10.95 4.82, -10.99 4.86, -11.04 4.91 M-11.04 4.91 C-11.1 4.96, -11.15 5.01, -11.19 5.04 M-11.04 4.91 C-11.08 4.95, -11.12 4.98, -11.19 5.04 M-11.19 5.04 C-11.25 5.09, -11.31 5.13, -11.35 5.16 M-11.19 5.04 C-11.24 5.08, -11.29 5.12, -11.35 5.16 M-11.35 5.16 C-11.39 5.18, -11.43 5.21, -11.52 5.27 M-11.35 5.16 C-11.39 5.18, -11.42 5.21, -11.52 5.27 M-11.52 5.27 C-11.58 5.3, -11.64 5.33, -11.7 5.36 M-11.52 5.27 C-11.59 5.3, -11.66 5.34, -11.7 5.36 M-11.7 5.36 C-11.75 5.38, -11.79 5.4, -11.89 5.44 M-11.7 5.36 C-11.75 5.38, -11.79 5.4, -11.89 5.44 M-11.89 5.44 C-11.96 5.47, -12.03 5.49, -12.08 5.51 M-11.89 5.44 C-11.94 5.46, -11.99 5.48, -12.08 5.51 M-12.08 5.51 C-12.14 5.53, -12.21 5.55, -12.28 5.57 M-12.08 5.51 C-12.15 5.53, -12.21 5.55, -12.28 5.57 M-12.28 5.57 C-12.33 5.58, -12.38 5.58, -12.49 5.61 M-12.28 5.57 C-12.36 5.58, -12.45 5.6, -12.49 5.61 M-12.49 5.61 C-12.53 5.61, -12.57 5.62, -12.7 5.63 M-12.49 5.61 C-12.54 5.61, -12.59 5.62, -12.7 5.63 M-12.7 5.63 C-12.76 5.63, -12.82 5.63, -12.92 5.64 M-12.7 5.63 C-12.76 5.63, -12.82 5.63, -12.92 5.64 M-12.92 5.64 C-13.02 5.63, -13.13 5.63, -13.19 5.62 M-12.92 5.64 C-13.03 5.63, -13.14 5.63, -13.19 5.62 M-13.19 5.62 C-13.28 5.61, -13.36 5.6, -13.46 5.59 M-13.19 5.62 C-13.28 5.61, -13.37 5.6, -13.46 5.59 M-13.46 5.59 C-13.56 5.56, -13.66 5.54, -13.72 5.52 M-13.46 5.59 C-13.53 5.57, -13.6 5.55, -13.72 5.52 M-13.72 5.52 C-13.8 5.49, -13.88 5.46, -13.97 5.43 M-13.72 5.52 C-13.78 5.5, -13.84 5.48, -13.97 5.43 M-13.97 5.43 C-14.03 5.41, -14.09 5.38, -14.2 5.33 M-13.97 5.43 C-14.05 5.4, -14.14 5.36, -14.2 5.33 M-14.2 5.33 C-14.25 5.3, -14.3 5.27, -14.43 5.2 M-14.2 5.33 C-14.29 5.27, -14.38 5.22, -14.43 5.2 M-14.43 5.2 C-14.49 5.15, -14.56 5.1, -14.63 5.05 M-14.43 5.2 C-14.51 5.14, -14.59 5.08, -14.63 5.05 M-14.63 5.05 C-14.68 5.01, -14.73 4.96, -14.82 4.88 M-14.63 5.05 C-14.68 5.01, -14.73 4.96, -14.82 4.88 M-14.82 4.88 C-14.89 4.82, -14.95 4.75, -15 4.7 M-14.82 4.88 C-14.89 4.81, -14.95 4.75, -15 4.7 M-15 4.7 C-15.06 4.62, -15.12 4.54, -15.15 4.5 M-15 4.7 C-15.06 4.62, -15.12 4.54, -15.15 4.5 M-15.15 4.5 C-15.19 4.45, -15.22 4.39, -15.29 4.28 M-15.15 4.5 C-15.19 4.44, -15.23 4.38, -15.29 4.28 M-15.29 4.28 C-15.33 4.2, -15.37 4.12, -15.4 4.06 M-15.29 4.28 C-15.32 4.23, -15.34 4.18, -15.4 4.06 M-15.4 4.06 C-15.44 3.96, -15.47 3.87, -15.49 3.82 M-15.4 4.06 C-15.44 3.97, -15.47 3.87, -15.49 3.82 M-15.49 3.82 C-15.51 3.77, -15.52 3.71, -15.56 3.57 M-15.49 3.82 C-15.52 3.73, -15.54 3.65, -15.56 3.57 M-15.56 3.57 C-15.57 3.51, -15.58 3.45, -15.6 3.32 M-15.56 3.57 C-15.57 3.52, -15.58 3.47, -15.6 3.32 M-15.6 3.32 C-15.61 3.22, -15.61 3.12, -15.61 3.05 M-15.6 3.32 C-15.6 3.23, -15.61 3.13, -15.61 3.05 M-15.61 3.05 C-15.61 2.96, -15.6 2.87, -15.6 2.79 M-15.61 3.05 C-15.61 2.98, -15.61 2.91, -15.6 2.79 M-15.6 2.79 C-15.59 2.71, -15.57 2.62, -15.56 2.53 M-15.6 2.79 C-15.59 2.7, -15.57 2.6, -15.56 2.53 M-15.56 2.53 C-15.54 2.45, -15.51 2.36, -15.49 2.29 M-15.56 2.53 C-15.54 2.45, -15.52 2.37, -15.49 2.29 M-15.49 2.29 C-15.46 2.2, -15.43 2.11, -15.4 2.05 M-15.49 2.29 C-15.46 2.2, -15.43 2.11, -15.4 2.05 M-15.4 2.05 C-15.36 1.97, -15.32 1.89, -15.29 1.82 M-15.4 2.05 C-15.38 2, -15.35 1.95, -15.29 1.82 M-15.29 1.82 C-15.25 1.77, -15.22 1.71, -15.15 1.61 M-15.29 1.82 C-15.25 1.76, -15.21 1.7, -15.15 1.61 M-15.15 1.61 C-15.1 1.54, -15.05 1.47, -15 1.41 M-15.15 1.61 C-15.1 1.54, -15.04 1.46, -15 1.41 M-15 1.41 C-14.94 1.34, -14.87 1.28, -14.82 1.23 M-15 1.41 C-14.95 1.35, -14.89 1.3, -14.82 1.23 M-14.82 1.23 C-14.78 1.18, -14.73 1.14, -14.63 1.06 M-14.82 1.23 C-14.77 1.18, -14.71 1.13, -14.63 1.06 M-14.63 1.06 C-14.56 1.01, -14.49 0.96, -14.43 0.91 M-14.63 1.06 C-14.57 1.02, -14.52 0.98, -14.43 0.91 M-14.43 0.91 C-14.37 0.88, -14.32 0.85, -14.2 0.78 M-14.43 0.91 C-14.36 0.87, -14.29 0.83, -14.2 0.78 M-14.2 0.78 C-14.15 0.76, -14.1 0.73, -13.97 0.67 M-14.2 0.78 C-14.12 0.74, -14.03 0.7, -13.97 0.67 M-13.97 0.67 C-13.88 0.64, -13.79 0.61, -13.72 0.59 M-13.97 0.67 C-13.87 0.64, -13.77 0.6, -13.72 0.59 M-13.72 0.59 C-13.64 0.57, -13.56 0.55, -13.46 0.52 M-13.72 0.59 C-13.65 0.57, -13.59 0.55, -13.46 0.52 M-13.46 0.52 C-13.36 0.51, -13.27 0.49, -13.19 0.48 M-13.46 0.52 C-13.37 0.51, -13.28 0.49, -13.19 0.48 M-13.19 0.48 C-13.11 0.48, -13.02 0.47, -12.92 0.47 M-13.19 0.48 C-13.13 0.48, -13.06 0.48, -12.92 0.47 M-12.92 0.47 C-12.85 0.47, -12.79 0.47, -12.7 0.48 M-12.92 0.47 C-12.87 0.47, -12.82 0.47, -12.7 0.48 M-12.7 0.48 C-12.65 0.48, -12.6 0.49, -12.48 0.5 M-12.7 0.48 C-12.62 0.49, -12.54 0.5, -12.48 0.5 M-12.48 0.5 C-12.43 0.51, -12.37 0.52, -12.27 0.54 M-12.48 0.5 C-12.42 0.51, -12.36 0.53, -12.27 0.54 M-12.27 0.54 C-12.23 0.56, -12.18 0.57, -12.07 0.6 M-12.27 0.54 C-12.2 0.56, -12.12 0.58, -12.07 0.6 M-12.07 0.6 C-12.01 0.62, -11.96 0.64, -11.87 0.67 M-12.07 0.6 C-12.01 0.62, -11.95 0.64, -11.87 0.67 M-11.87 0.67 C-11.81 0.7, -11.74 0.73, -11.69 0.75 M-11.87 0.67 C-11.83 0.69, -11.78 0.71, -11.69 0.75 M-11.69 0.75 C-11.64 0.78, -11.6 0.8, -11.51 0.85 M-11.69 0.75 C-11.65 0.77, -11.61 0.8, -11.51 0.85 M-11.51 0.85 C-11.45 0.88, -11.4 0.92, -11.33 0.96 M-11.51 0.85 C-11.46 0.88, -11.41 0.91, -11.33 0.96 M-11.33 0.96 C-11.28 1, -11.23 1.04, -11.17 1.08 M-11.33 0.96 C-11.3 0.99, -11.26 1.02, -11.17 1.08 M-11.17 1.08 C-11.12 1.13, -11.06 1.18, -11.02 1.21 M-11.17 1.08 C-11.13 1.12, -11.09 1.15, -11.02 1.21 M-11.02 1.21 C-10.97 1.27, -10.91 1.32, -10.88 1.36 M-11.02 1.21 C-10.97 1.27, -10.92 1.32, -10.88 1.36 M-10.88 1.36 C-10.84 1.4, -10.81 1.45, -10.75 1.51 M-10.88 1.36 C-10.84 1.4, -10.81 1.45, -10.75 1.51 M-10.75 1.51 C-10.71 1.57, -10.66 1.64, -10.64 1.67 M-10.75 1.51 C-10.71 1.57, -10.67 1.63, -10.64 1.67 M-10.64 1.67 C-10.61 1.72, -10.58 1.76, -10.53 1.85 M-10.64 1.67 C-10.6 1.73, -10.57 1.78, -10.53 1.85 M-10.53 1.85 C-10.5 1.91, -10.47 1.97, -10.44 2.03 M-10.53 1.85 C-10.51 1.89, -10.49 1.94, -10.44 2.03 M-10.44 2.03 C-10.42 2.08, -10.4 2.12, -10.37 2.21 M-10.44 2.03 C-10.42 2.09, -10.39 2.16, -10.37 2.21 M-10.37 2.21 C-9.76 2.21, -9.15 2.21, -8.82 2.21 M-10.37 2.21 C-9.92 2.21, -9.48 2.21, -8.82 2.21 M-8.82 2.21 C-8.28 1.31, -7.74 0.41, -7.45 -0.08 M-8.82 2.21 C-8.55 1.75, -8.27 1.29, -7.45 -0.08 M-7.45 -0.08 C-8.17 -1.27, -8.88 -2.45, -9.57 -3.6 M-7.45 -0.08 C-7.89 -0.8, -8.32 -1.53, -9.57 -3.6 M-9.57 -3.6 C-10.64 -3.6, -11.7 -3.6, -13.04 -3.6 M-9.57 -3.6 C-10.45 -3.6, -11.32 -3.6, -13.04 -3.6 M-13.04 -3.6 C-13.04 -3.6, -13.04 -3.6, -13.04 -3.6 M-13.04 -3.6 C-13.04 -3.6, -13.04 -3.6, -13.04 -3.6 M-13.04 -3.6 C-13.06 -3.54, -13.09 -3.48, -13.11 -3.43 M-13.04 -3.6 C-13.06 -3.56, -13.08 -3.51, -13.11 -3.43 M-13.11 -3.43 C-13.14 -3.36, -13.17 -3.3, -13.19 -3.26 M-13.11 -3.43 C-13.14 -3.37, -13.17 -3.31, -13.19 -3.26 M-13.19 -3.26 C-13.22 -3.22, -13.24 -3.18, -13.29 -3.11 M-13.19 -3.26 C-13.23 -3.2, -13.27 -3.14, -13.29 -3.11 M-13.29 -3.11 C-13.32 -3.05, -13.36 -3, -13.39 -2.96 M-13.29 -3.11 C-13.33 -3.05, -13.37 -2.99, -13.39 -2.96 M-13.39 -2.96 C-13.42 -2.92, -13.46 -2.88, -13.51 -2.81 M-13.39 -2.96 C-13.44 -2.9, -13.48 -2.85, -13.51 -2.81 M-13.51 -2.81 C-13.54 -2.77, -13.58 -2.74, -13.63 -2.68 M-13.51 -2.81 C-13.54 -2.78, -13.58 -2.74, -13.63 -2.68 M-13.63 -2.68 C-13.68 -2.63, -13.74 -2.58, -13.77 -2.55 M-13.63 -2.68 C-13.69 -2.63, -13.74 -2.58, -13.77 -2.55 M-13.77 -2.55 C-13.81 -2.52, -13.84 -2.49, -13.91 -2.43 M-13.77 -2.55 C-13.81 -2.52, -13.85 -2.49, -13.91 -2.43 M-13.91 -2.43 C-13.95 -2.41, -13.99 -2.38, -14.07 -2.33 M-13.91 -2.43 C-13.96 -2.4, -14.01 -2.37, -14.07 -2.33 M-14.07 -2.33 C-14.12 -2.29, -14.18 -2.26, -14.23 -2.23 M-14.07 -2.33 C-14.12 -2.29, -14.18 -2.26, -14.23 -2.23 M-14.23 -2.23 C-14.26 -2.21, -14.3 -2.19, -14.39 -2.15 M-14.23 -2.23 C-14.28 -2.2, -14.33 -2.18, -14.39 -2.15 M-14.39 -2.15 C-14.43 -2.13, -14.48 -2.11, -14.57 -2.07 M-14.39 -2.15 C-14.44 -2.12, -14.49 -2.1, -14.57 -2.07 M-14.57 -2.07 C-14.61 -2.06, -14.65 -2.04, -14.75 -2.01 M-14.57 -2.07 C-14.61 -2.06, -14.66 -2.04, -14.75 -2.01 M-14.75 -2.01 C-14.82 -1.99, -14.88 -1.97, -14.93 -1.96 M-14.75 -2.01 C-14.8 -1.99, -14.84 -1.98, -14.93 -1.96 M-14.93 -1.96 C-15.01 -1.94, -15.09 -1.93, -15.13 -1.92 M-14.93 -1.96 C-14.98 -1.95, -15.02 -1.94, -15.13 -1.92 M-15.13 -1.92 C-15.19 -1.91, -15.25 -1.9, -15.32 -1.9 M-15.13 -1.92 C-15.19 -1.91, -15.25 -1.9, -15.32 -1.9 M-15.32 -1.9 C-15.42 -1.89, -15.53 -1.89, -15.58 -1.89 M-15.32 -1.9 C-15.41 -1.89, -15.49 -1.89, -15.58 -1.89 M-15.58 -1.89 C-15.58 -1.89, -15.58 -1.89, -15.58 -1.89 M-15.58 -1.89 C-15.58 -1.89, -15.58 -1.89, -15.58 -1.89 M-15.58 -1.89 C-15.65 -1.89, -15.71 -1.89, -15.86 -1.9 M-15.58 -1.89 C-15.65 -1.89, -15.72 -1.89, -15.86 -1.9 M-15.86 -1.9 C-15.94 -1.91, -16.02 -1.92, -16.12 -1.94 M-15.86 -1.9 C-15.95 -1.91, -16.04 -1.93, -16.12 -1.94 M-16.12 -1.94 C-16.18 -1.95, -16.24 -1.97, -16.38 -2 M-16.12 -1.94 C-16.18 -1.95, -16.23 -1.97, -16.38 -2 M-16.38 -2 C-16.46 -2.03, -16.54 -2.06, -16.63 -2.09 M-16.38 -2 C-16.44 -2.02, -16.5 -2.04, -16.63 -2.09 M-16.63 -2.09 C-16.69 -2.12, -16.76 -2.15, -16.87 -2.2 M-16.63 -2.09 C-16.7 -2.12, -16.77 -2.15, -16.87 -2.2 M-16.87 -2.2 C-16.95 -2.25, -17.03 -2.29, -17.09 -2.33 M-16.87 -2.2 C-16.95 -2.25, -17.03 -2.29, -17.09 -2.33 M-17.09 -2.33 C-17.16 -2.38, -17.23 -2.43, -17.3 -2.48 M-17.09 -2.33 C-17.15 -2.37, -17.22 -2.42, -17.3 -2.48 M-17.3 -2.48 C-17.34 -2.51, -17.38 -2.55, -17.49 -2.64 M-17.3 -2.48 C-17.35 -2.52, -17.4 -2.57, -17.49 -2.64 M-17.49 -2.64 C-17.56 -2.72, -17.62 -2.79, -17.66 -2.83 M-17.49 -2.64 C-17.54 -2.7, -17.6 -2.76, -17.66 -2.83 M-17.66 -2.83 C-17.7 -2.87, -17.73 -2.92, -17.82 -3.03 M-17.66 -2.83 C-17.72 -2.9, -17.78 -2.98, -17.82 -3.03 M-17.82 -3.03 C-17.86 -3.09, -17.9 -3.15, -17.95 -3.24 M-17.82 -3.03 C-17.86 -3.09, -17.9 -3.16, -17.95 -3.24 M-17.95 -3.24 C-17.99 -3.31, -18.02 -3.38, -18.06 -3.46 M-17.95 -3.24 C-17.98 -3.3, -18.01 -3.36, -18.06 -3.46 M-18.06 -3.46 C-18.09 -3.53, -18.12 -3.6, -18.16 -3.7 M-18.06 -3.46 C-18.09 -3.54, -18.12 -3.62, -18.16 -3.7 M-18.16 -3.7 C-18.17 -3.75, -18.18 -3.8, -18.22 -3.95 M-18.16 -3.7 C-18.17 -3.76, -18.19 -3.81, -18.22 -3.95 M-18.22 -3.95 C-18.23 -4.02, -18.24 -4.09, -18.26 -4.21 M-18.22 -3.95 C-18.23 -4.03, -18.25 -4.1, -18.26 -4.21 M-18.26 -4.21 C-18.27 -4.26, -18.27 -4.32, -18.28 -4.47 M-18.26 -4.21 C-18.27 -4.29, -18.27 -4.38, -18.28 -4.47 M-18.28 -4.47 C-18.27 -4.58, -18.27 -4.68, -18.26 -4.73 M-18.28 -4.47 C-18.27 -4.54, -18.27 -4.61, -18.26 -4.73 M-18.26 -4.73 C-18.25 -4.79, -18.25 -4.84, -18.22 -4.99 M-18.26 -4.73 C-18.25 -4.83, -18.23 -4.92, -18.22 -4.99 M-18.22 -4.99 C-18.21 -5.05, -18.19 -5.1, -18.16 -5.24 M-18.22 -4.99 C-18.2 -5.09, -18.17 -5.18, -18.16 -5.24 M-18.16 -5.24 C-18.13 -5.31, -18.1 -5.38, -18.06 -5.48 M-18.16 -5.24 C-18.13 -5.3, -18.11 -5.36, -18.06 -5.48 M-18.06 -5.48 C-18.03 -5.55, -17.99 -5.63, -17.95 -5.7 M-18.06 -5.48 C-18.04 -5.53, -18.02 -5.57, -17.95 -5.7 M-17.95 -5.7 C-17.91 -5.77, -17.87 -5.83, -17.82 -5.91 M-17.95 -5.7 C-17.92 -5.76, -17.88 -5.81, -17.82 -5.91 M-17.82 -5.91 C-17.78 -5.96, -17.74 -6.01, -17.66 -6.11 M-17.82 -5.91 C-17.77 -5.98, -17.72 -6.04, -17.66 -6.11 M-17.66 -6.11 C-17.61 -6.17, -17.55 -6.23, -17.49 -6.3 M-17.66 -6.11 C-17.62 -6.15, -17.59 -6.19, -17.49 -6.3 M-17.49 -6.3 C-17.42 -6.35, -17.35 -6.41, -17.3 -6.46 M-17.49 -6.3 C-17.45 -6.33, -17.41 -6.37, -17.3 -6.46 M-17.3 -6.46 C-17.23 -6.51, -17.16 -6.56, -17.09 -6.61 M-17.3 -6.46 C-17.25 -6.5, -17.2 -6.54, -17.09 -6.61 M-17.09 -6.61 C-17.04 -6.64, -16.99 -6.67, -16.87 -6.74 M-17.09 -6.61 C-17.04 -6.64, -16.98 -6.67, -16.87 -6.74 M-16.87 -6.74 C-16.77 -6.79, -16.68 -6.83, -16.63 -6.85 M-16.87 -6.74 C-16.81 -6.77, -16.75 -6.8, -16.63 -6.85 M-16.63 -6.85 C-16.54 -6.88, -16.45 -6.91, -16.38 -6.94 M-16.63 -6.85 C-16.55 -6.88, -16.47 -6.91, -16.38 -6.94 M-16.38 -6.94 C-16.3 -6.96, -16.23 -6.98, -16.12 -7 M-16.38 -6.94 C-16.32 -6.95, -16.26 -6.97, -16.12 -7 M-16.12 -7 C-16.07 -7.01, -16.02 -7.02, -15.86 -7.04 M-16.12 -7 C-16.03 -7.02, -15.93 -7.03, -15.86 -7.04 M-15.86 -7.04 C-15.78 -7.04, -15.71 -7.05, -15.58 -7.05 M-15.86 -7.04 C-15.8 -7.04, -15.74 -7.05, -15.58 -7.05 M-15.58 -7.05 C-15.51 -7.05, -15.43 -7.05, -15.36 -7.05 M-15.58 -7.05 C-15.52 -7.05, -15.46 -7.05, -15.36 -7.05 M-15.36 -7.05 C-15.31 -7.04, -15.27 -7.04, -15.15 -7.02 M-15.36 -7.05 C-15.32 -7.04, -15.27 -7.04, -15.15 -7.02 M-15.15 -7.02 C-15.1 -7.01, -15.05 -7, -14.94 -6.98 M-15.15 -7.02 C-15.09 -7.01, -15.02 -7, -14.94 -6.98 M-14.94 -6.98 C-14.86 -6.96, -14.79 -6.94, -14.74 -6.93 M-14.94 -6.98 C-14.87 -6.96, -14.8 -6.94, -14.74 -6.93 M-14.74 -6.93 C-14.7 -6.91, -14.66 -6.9, -14.54 -6.86 M-14.74 -6.93 C-14.67 -6.9, -14.6 -6.88, -14.54 -6.86 M-14.54 -6.86 C-14.5 -6.84, -14.45 -6.82, -14.36 -6.77 M-14.54 -6.86 C-14.48 -6.83, -14.41 -6.8, -14.36 -6.77 M-14.36 -6.77 C-14.29 -6.74, -14.23 -6.7, -14.18 -6.68 M-14.36 -6.77 C-14.3 -6.75, -14.25 -6.72, -14.18 -6.68 M-14.18 -6.68 C-14.14 -6.66, -14.11 -6.63, -14.01 -6.57 M-14.18 -6.68 C-14.11 -6.64, -14.05 -6.6, -14.01 -6.57 M-14.01 -6.57 C-13.96 -6.54, -13.92 -6.51, -13.85 -6.45 M-14.01 -6.57 C-13.95 -6.53, -13.89 -6.48, -13.85 -6.45 M-13.85 -6.45 C-13.79 -6.41, -13.74 -6.36, -13.69 -6.32 M-13.85 -6.45 C-13.81 -6.42, -13.77 -6.38, -13.69 -6.32 M-13.69 -6.32 C-13.65 -6.27, -13.6 -6.22, -13.55 -6.18 M-13.69 -6.32 C-13.66 -6.29, -13.64 -6.26, -13.55 -6.18 M-13.55 -6.18 C-13.5 -6.12, -13.45 -6.06, -13.42 -6.03 M-13.55 -6.18 C-13.53 -6.15, -13.5 -6.11, -13.42 -6.03 M-13.42 -6.03 C-13.38 -5.96, -13.33 -5.9, -13.31 -5.87 M-13.42 -6.03 C-13.39 -5.98, -13.36 -5.94, -13.31 -5.87 M-13.31 -5.87 C-13.29 -5.83, -13.26 -5.8, -13.2 -5.7 M-13.31 -5.87 C-13.27 -5.8, -13.23 -5.74, -13.2 -5.7 M-13.2 -5.7 C-13.17 -5.64, -13.14 -5.58, -13.11 -5.52 M-13.2 -5.7 C-13.17 -5.64, -13.14 -5.58, -13.11 -5.52 M-13.11 -5.52 C-13.09 -5.46, -13.06 -5.4, -13.03 -5.33 M-13.11 -5.52 C-13.1 -5.48, -13.08 -5.44, -13.03 -5.33 M-13.03 -5.33 C-12.22 -5.33, -11.41 -5.33, -9.7 -5.33 M-13.03 -5.33 C-12.2 -5.33, -11.37 -5.33, -9.7 -5.33 M-9.7 -5.33 C-8.96 -6.54, -8.22 -7.75, -7.52 -8.9 M-9.7 -5.33 C-8.97 -6.52, -8.24 -7.71, -7.52 -8.9 M-7.52 -8.9 C-7.89 -9.52, -8.27 -10.14, -8.82 -11.06 M-7.52 -8.9 C-8.02 -9.73, -8.52 -10.56, -8.82 -11.06 M-8.82 -11.06 C-9.39 -11.06, -9.95 -11.06, -10.37 -11.06 M-8.82 -11.06 C-9.33 -11.06, -9.83 -11.06, -10.37 -11.06 M-10.37 -11.06 C-10.37 -11.06, -10.37 -11.06, -10.37 -11.06 M-10.37 -11.06 C-10.37 -11.06, -10.37 -11.06, -10.37 -11.06 M-10.37 -11.06 C-10.38 -11.02, -10.4 -10.98, -10.44 -10.88 M-10.37 -11.06 C-10.39 -11.01, -10.41 -10.97, -10.44 -10.88 M-10.44 -10.88 C-10.47 -10.82, -10.5 -10.77, -10.53 -10.7 M-10.44 -10.88 C-10.47 -10.82, -10.5 -10.77, -10.53 -10.7 M-10.53 -10.7 C-10.57 -10.65, -10.6 -10.59, -10.64 -10.53 M-10.53 -10.7 C-10.57 -10.64, -10.61 -10.57, -10.64 -10.53 M-10.64 -10.53 C-10.68 -10.47, -10.72 -10.42, -10.76 -10.37 M-10.64 -10.53 C-10.67 -10.49, -10.69 -10.46, -10.76 -10.37 M-10.76 -10.37 C-10.79 -10.33, -10.82 -10.29, -10.88 -10.22 M-10.76 -10.37 C-10.79 -10.33, -10.82 -10.3, -10.88 -10.22 M-10.88 -10.22 C-10.92 -10.18, -10.96 -10.14, -11.03 -10.08 M-10.88 -10.22 C-10.92 -10.18, -10.96 -10.15, -11.03 -10.08 M-11.03 -10.08 C-11.07 -10.04, -11.11 -10.01, -11.18 -9.95 M-11.03 -10.08 C-11.08 -10.03, -11.14 -9.98, -11.18 -9.95 M-11.18 -9.95 C-11.24 -9.9, -11.3 -9.85, -11.34 -9.83 M-11.18 -9.95 C-11.23 -9.9, -11.29 -9.86, -11.34 -9.83 M-11.34 -9.83 C-11.39 -9.79, -11.44 -9.76, -11.51 -9.72 M-11.34 -9.83 C-11.37 -9.8, -11.41 -9.78, -11.51 -9.72 M-11.51 -9.72 C-11.56 -9.69, -11.61 -9.66, -11.69 -9.62 M-11.51 -9.72 C-11.55 -9.7, -11.59 -9.67, -11.69 -9.62 M-11.69 -9.62 C-11.75 -9.59, -11.82 -9.56, -11.88 -9.54 M-11.69 -9.62 C-11.75 -9.59, -11.82 -9.56, -11.88 -9.54 M-11.88 -9.54 C-11.93 -9.52, -11.99 -9.5, -12.07 -9.47 M-11.88 -9.54 C-11.92 -9.52, -11.96 -9.51, -12.07 -9.47 M-12.07 -9.47 C-12.14 -9.45, -12.21 -9.43, -12.27 -9.41 M-12.07 -9.47 C-12.14 -9.45, -12.2 -9.43, -12.27 -9.41 M-12.27 -9.41 C-12.34 -9.4, -12.41 -9.39, -12.48 -9.37 M-12.27 -9.41 C-12.32 -9.4, -12.37 -9.39, -12.48 -9.37 M-12.48 -9.37 C-12.53 -9.37, -12.58 -9.36, -12.69 -9.35 M-12.48 -9.37 C-12.53 -9.37, -12.57 -9.36, -12.69 -9.35 M-12.69 -9.35 C-12.74 -9.35, -12.78 -9.35, -12.91 -9.34 M-12.69 -9.35 C-12.78 -9.35, -12.86 -9.34, -12.91 -9.34 M-12.91 -9.34 C-13.01 -9.35, -13.1 -9.35, -13.19 -9.35 M-12.91 -9.34 C-13.02 -9.35, -13.13 -9.35, -13.19 -9.35 M-13.19 -9.35 C-13.26 -9.36, -13.32 -9.37, -13.46 -9.39 M-13.19 -9.35 C-13.28 -9.37, -13.37 -9.38, -13.46 -9.39 M-13.46 -9.39 C-13.56 -9.42, -13.66 -9.44, -13.71 -9.46 M-13.46 -9.39 C-13.52 -9.41, -13.57 -9.42, -13.71 -9.46 M-13.71 -9.46 C-13.81 -9.49, -13.91 -9.53, -13.96 -9.54 M-13.71 -9.46 C-13.81 -9.49, -13.91 -9.52, -13.96 -9.54 M-13.96 -9.54 C-14.02 -9.57, -14.08 -9.6, -14.2 -9.65 M-13.96 -9.54 C-14.06 -9.59, -14.15 -9.63, -14.2 -9.65 M-14.2 -9.65 C-14.25 -9.68, -14.3 -9.71, -14.42 -9.78 M-14.2 -9.65 C-14.28 -9.7, -14.37 -9.75, -14.42 -9.78 M-14.42 -9.78 C-14.47 -9.82, -14.52 -9.85, -14.63 -9.93 M-14.42 -9.78 C-14.49 -9.83, -14.56 -9.88, -14.63 -9.93 M-14.63 -9.93 C-14.69 -9.99, -14.76 -10.05, -14.82 -10.1 M-14.63 -9.93 C-14.7 -10, -14.78 -10.06, -14.82 -10.1 M-14.82 -10.1 C-14.89 -10.17, -14.95 -10.24, -14.99 -10.28 M-14.82 -10.1 C-14.89 -10.17, -14.95 -10.24, -14.99 -10.28 M-14.99 -10.28 C-15.03 -10.32, -15.06 -10.37, -15.15 -10.48 M-14.99 -10.28 C-15.03 -10.33, -15.07 -10.38, -15.15 -10.48 M-15.15 -10.48 C-15.2 -10.56, -15.25 -10.64, -15.28 -10.69 M-15.15 -10.48 C-15.19 -10.54, -15.22 -10.6, -15.28 -10.69 M-15.28 -10.69 C-15.32 -10.76, -15.35 -10.83, -15.4 -10.92 M-15.28 -10.69 C-15.31 -10.74, -15.33 -10.79, -15.4 -10.92 M-15.4 -10.92 C-15.42 -10.98, -15.44 -11.03, -15.49 -11.16 M-15.4 -10.92 C-15.42 -10.97, -15.44 -11.02, -15.49 -11.16 M-15.49 -11.16 C-15.51 -11.25, -15.54 -11.34, -15.55 -11.4 M-15.49 -11.16 C-15.51 -11.23, -15.53 -11.3, -15.55 -11.4 M-15.55 -11.4 C-15.57 -11.51, -15.59 -11.61, -15.6 -11.66 M-15.55 -11.4 C-15.56 -11.46, -15.57 -11.51, -15.6 -11.66 M-15.6 -11.66 C-15.6 -11.74, -15.6 -11.83, -15.61 -11.93 M-15.6 -11.66 C-15.6 -11.74, -15.6 -11.82, -15.61 -11.93 M-15.61 -11.93 C-15.61 -12, -15.6 -12.07, -15.6 -12.19 M-15.61 -11.93 C-15.6 -12.02, -15.6 -12.12, -15.6 -12.19 M-15.6 -12.19 C-15.58 -12.29, -15.56 -12.38, -15.55 -12.45 M-15.6 -12.19 C-15.59 -12.24, -15.58 -12.3, -15.55 -12.45 M-15.55 -12.45 C-15.54 -12.51, -15.52 -12.57, -15.49 -12.69 M-15.55 -12.45 C-15.53 -12.53, -15.51 -12.62, -15.49 -12.69 M-15.49 -12.69 C-15.46 -12.78, -15.42 -12.86, -15.4 -12.93 M-15.49 -12.69 C-15.46 -12.76, -15.44 -12.82, -15.4 -12.93 M-15.4 -12.93 C-15.36 -13, -15.32 -13.08, -15.28 -13.16 M-15.4 -12.93 C-15.36 -13.01, -15.32 -13.09, -15.28 -13.16 M-15.28 -13.16 C-15.24 -13.23, -15.19 -13.31, -15.15 -13.37 M-15.28 -13.16 C-15.23 -13.24, -15.18 -13.33, -15.15 -13.37 M-15.15 -13.37 C-15.11 -13.43, -15.06 -13.48, -14.99 -13.57 M-15.15 -13.37 C-15.1 -13.43, -15.05 -13.5, -14.99 -13.57 M-14.99 -13.57 C-14.96 -13.61, -14.92 -13.65, -14.82 -13.75 M-14.99 -13.57 C-14.96 -13.61, -14.92 -13.65, -14.82 -13.75 M-14.82 -13.75 C-14.77 -13.79, -14.73 -13.83, -14.63 -13.92 M-14.82 -13.75 C-14.76 -13.8, -14.7 -13.85, -14.63 -13.92 M-14.63 -13.92 C-14.56 -13.97, -14.49 -14.02, -14.42 -14.07 M-14.63 -13.92 C-14.58 -13.95, -14.53 -13.99, -14.42 -14.07 M-14.42 -14.07 C-14.34 -14.12, -14.26 -14.16, -14.2 -14.2 M-14.42 -14.07 C-14.34 -14.11, -14.26 -14.16, -14.2 -14.2 M-14.2 -14.2 C-14.14 -14.22, -14.08 -14.25, -13.96 -14.31 M-14.2 -14.2 C-14.14 -14.22, -14.09 -14.25, -13.96 -14.31 M-13.96 -14.31 C-13.87 -14.34, -13.77 -14.37, -13.71 -14.39 M-13.96 -14.31 C-13.87 -14.34, -13.77 -14.37, -13.71 -14.39 M-13.71 -14.39 C-13.62 -14.42, -13.52 -14.44, -13.46 -14.46 M-13.71 -14.39 C-13.63 -14.41, -13.54 -14.44, -13.46 -14.46 M-13.46 -14.46 C-13.4 -14.47, -13.34 -14.47, -13.19 -14.5 M-13.46 -14.46 C-13.37 -14.47, -13.28 -14.48, -13.19 -14.5 M-13.19 -14.5 C-13.09 -14.5, -12.99 -14.51, -12.91 -14.51 M-13.19 -14.5 C-13.11 -14.5, -13.04 -14.5, -12.91 -14.51 M-12.91 -14.51 C-12.84 -14.51, -12.76 -14.5, -12.69 -14.5 M-12.91 -14.51 C-12.83 -14.51, -12.74 -14.5, -12.69 -14.5 M-12.69 -14.5 C-12.63 -14.49, -12.57 -14.49, -12.48 -14.48 M-12.69 -14.5 C-12.62 -14.49, -12.55 -14.48, -12.48 -14.48 M-12.48 -14.48 C-12.42 -14.47, -12.37 -14.45, -12.27 -14.44 M-12.48 -14.48 C-12.41 -14.46, -12.34 -14.45, -12.27 -14.44 M-12.27 -14.44 C-12.22 -14.42, -12.17 -14.41, -12.07 -14.38 M-12.27 -14.44 C-12.22 -14.42, -12.17 -14.41, -12.07 -14.38 M-12.07 -14.38 C-12.02 -14.36, -11.97 -14.35, -11.88 -14.31 M-12.07 -14.38 C-12.01 -14.36, -11.95 -14.34, -11.88 -14.31 M-11.88 -14.31 C-11.83 -14.29, -11.79 -14.27, -11.69 -14.23 M-11.88 -14.31 C-11.82 -14.29, -11.76 -14.26, -11.69 -14.23 M-11.69 -14.23 C-11.62 -14.19, -11.56 -14.16, -11.51 -14.13 M-11.69 -14.23 C-11.63 -14.2, -11.57 -14.17, -11.51 -14.13 M-11.51 -14.13 C-11.47 -14.11, -11.44 -14.09, -11.34 -14.03 M-11.51 -14.13 C-11.47 -14.11, -11.44 -14.09, -11.34 -14.03 M-11.34 -14.03 C-11.3 -14, -11.26 -13.97, -11.18 -13.91 M-11.34 -14.03 C-11.28 -13.98, -11.21 -13.93, -11.18 -13.91 M-11.18 -13.91 C-11.14 -13.88, -11.11 -13.85, -11.03 -13.77 M-11.18 -13.91 C-11.12 -13.86, -11.07 -13.81, -11.03 -13.77 M-11.03 -13.77 C-10.98 -13.73, -10.94 -13.68, -10.89 -13.63 M-11.03 -13.77 C-10.99 -13.74, -10.96 -13.71, -10.89 -13.63 M-10.89 -13.63 C-10.85 -13.59, -10.81 -13.54, -10.76 -13.48 M-10.89 -13.63 C-10.85 -13.59, -10.81 -13.55, -10.76 -13.48 M-10.76 -13.48 C-10.71 -13.42, -10.66 -13.36, -10.64 -13.32 M-10.76 -13.48 C-10.72 -13.44, -10.69 -13.39, -10.64 -13.32 M-10.64 -13.32 C-10.6 -13.26, -10.57 -13.2, -10.53 -13.15 M-10.64 -13.32 C-10.6 -13.25, -10.56 -13.19, -10.53 -13.15 M-10.53 -13.15 C-10.51 -13.1, -10.48 -13.05, -10.44 -12.97 M-10.53 -13.15 C-10.5 -13.08, -10.46 -13.01, -10.44 -12.97 M-10.44 -12.97 C-10.42 -12.92, -10.4 -12.86, -10.37 -12.79 M-10.44 -12.97 C-10.42 -12.91, -10.39 -12.85, -10.37 -12.79 M-10.37 -12.79 C-9.71 -12.79, -9.06 -12.79, -8.63 -12.79 M-10.37 -12.79 C-9.88 -12.79, -9.4 -12.79, -8.63 -12.79 M-8.63 -12.79 C-8.63 -12.79, -8.63 -12.79, -8.63 -12.79 M-8.63 -12.79 C-8.63 -12.79, -8.63 -12.79, -8.63 -12.79 M-8.63 -12.79 C-8.58 -12.79, -8.53 -12.78, -8.43 -12.77 M-8.63 -12.79 C-8.58 -12.79, -8.53 -12.78, -8.43 -12.77 M-8.43 -12.77 C-8.38 -12.76, -8.33 -12.75, -8.24 -12.73 M-8.43 -12.77 C-8.39 -12.77, -8.34 -12.76, -8.24 -12.73 M-8.24 -12.73 C-8.19 -12.72, -8.15 -12.7, -8.05 -12.67 M-8.24 -12.73 C-8.18 -12.72, -8.13 -12.7, -8.05 -12.67 M-8.05 -12.67 C-8 -12.65, -7.95 -12.62, -7.88 -12.59 M-8.05 -12.67 C-7.99 -12.64, -7.92 -12.61, -7.88 -12.59 M-7.88 -12.59 C-7.82 -12.55, -7.77 -12.52, -7.71 -12.48 M-7.88 -12.59 C-7.81 -12.54, -7.75 -12.5, -7.71 -12.48 M-7.71 -12.48 C-7.67 -12.44, -7.62 -12.4, -7.57 -12.36 M-7.71 -12.48 C-7.66 -12.43, -7.6 -12.38, -7.57 -12.36 M-7.57 -12.36 C-7.52 -12.3, -7.46 -12.24, -7.44 -12.21 M-7.57 -12.36 C-7.54 -12.32, -7.5 -12.29, -7.44 -12.21 M-7.44 -12.21 C-7.41 -12.17, -7.38 -12.13, -7.33 -12.05 M-7.44 -12.21 C-7.41 -12.17, -7.38 -12.13, -7.33 -12.05 M-7.33 -12.05 C-7.03 -11.56, -6.73 -11.06, -5.91 -9.69 M-7.33 -12.05 C-6.92 -11.37, -6.5 -10.68, -5.91 -9.69 M-5.91 -9.69 C-4.83 -9.69, -3.74 -9.69, -1.56 -9.69 M-5.91 -9.69 C-4.23 -9.69, -2.55 -9.69, -1.56 -9.69 M-1.56 -9.69 C-1.22 -10.26, -0.88 -10.83, -0.15 -12.05 M-1.56 -9.69 C-1.14 -10.4, -0.72 -11.11, -0.15 -12.05 M-0.15 -12.05 C-0.15 -12.05, -0.15 -12.05, -0.15 -12.05 M-0.15 -12.05 C-0.15 -12.05, -0.15 -12.05, -0.15 -12.05 M-0.15 -12.05 C-0.12 -12.09, -0.1 -12.12, -0.04 -12.21 M-0.15 -12.05 C-0.12 -12.09, -0.1 -12.12, -0.04 -12.21 M-0.04 -12.21 C0.01 -12.27, 0.06 -12.32, 0.09 -12.36 M-0.04 -12.21 C0 -12.26, 0.04 -12.3, 0.09 -12.36 M0.09 -12.36 C0.14 -12.4, 0.19 -12.44, 0.24 -12.48 M0.09 -12.36 C0.13 -12.39, 0.16 -12.42, 0.24 -12.48 M0.24 -12.48 C0.3 -12.52, 0.36 -12.56, 0.4 -12.59 M0.24 -12.48 C0.27 -12.5, 0.3 -12.53, 0.4 -12.59 M0.4 -12.59 C0.46 -12.62, 0.52 -12.65, 0.57 -12.67 M0.4 -12.59 C0.44 -12.61, 0.48 -12.63, 0.57 -12.67 M0.57 -12.67 C0.64 -12.7, 0.71 -12.72, 0.76 -12.74 M0.57 -12.67 C0.63 -12.69, 0.69 -12.72, 0.76 -12.74 M0.76 -12.74 C0.81 -12.75, 0.86 -12.76, 0.95 -12.78 M0.76 -12.74 C0.82 -12.75, 0.87 -12.76, 0.95 -12.78 M0.95 -12.78 C1.01 -12.78, 1.07 -12.79, 1.15 -12.8 M0.95 -12.78 C1.02 -12.78, 1.09 -12.79, 1.15 -12.8 M1.15 -12.8 C1.67 -12.8, 2.18 -12.8, 2.89 -12.8 M1.15 -12.8 C1.7 -12.8, 2.24 -12.8, 2.89 -12.8 M2.89 -12.8 C2.89 -12.8, 2.89 -12.8, 2.89 -12.8 M2.89 -12.8 C2.89 -12.8, 2.89 -12.8, 2.89 -12.8 M2.89 -12.8 C2.91 -12.85, 2.94 -12.9, 2.97 -12.98 M2.89 -12.8 C2.91 -12.85, 2.93 -12.9, 2.97 -12.98 M2.97 -12.98 C2.99 -13.02, 3.02 -13.07, 3.06 -13.16 M2.97 -12.98 C3 -13.04, 3.04 -13.11, 3.06 -13.16 M3.06 -13.16 C3.08 -13.2, 3.11 -13.24, 3.16 -13.33 M3.06 -13.16 C3.1 -13.22, 3.14 -13.28, 3.16 -13.33 M3.16 -13.33 C3.2 -13.37, 3.23 -13.42, 3.28 -13.49 M3.16 -13.33 C3.2 -13.38, 3.25 -13.44, 3.28 -13.49 M3.28 -13.49 C3.32 -13.53, 3.36 -13.58, 3.41 -13.64 M3.28 -13.49 C3.31 -13.52, 3.35 -13.56, 3.41 -13.64 M3.41 -13.64 C3.46 -13.69, 3.51 -13.74, 3.55 -13.78 M3.41 -13.64 C3.47 -13.69, 3.52 -13.75, 3.55 -13.78 M3.55 -13.78 C3.6 -13.82, 3.65 -13.87, 3.7 -13.91 M3.55 -13.78 C3.61 -13.83, 3.67 -13.88, 3.7 -13.91 M3.7 -13.91 C3.75 -13.95, 3.8 -13.98, 3.86 -14.03 M3.7 -13.91 C3.76 -13.96, 3.83 -14.01, 3.86 -14.03 M3.86 -14.03 C3.9 -14.06, 3.95 -14.08, 4.03 -14.14 M3.86 -14.03 C3.91 -14.06, 3.97 -14.1, 4.03 -14.14 M4.03 -14.14 C4.09 -14.17, 4.15 -14.2, 4.21 -14.23 M4.03 -14.14 C4.1 -14.17, 4.17 -14.21, 4.21 -14.23 M4.21 -14.23 C4.29 -14.27, 4.36 -14.3, 4.4 -14.32 M4.21 -14.23 C4.28 -14.26, 4.35 -14.29, 4.4 -14.32 M4.4 -14.32 C4.47 -14.34, 4.54 -14.37, 4.6 -14.39 M4.4 -14.32 C4.48 -14.34, 4.55 -14.37, 4.6 -14.39 M4.6 -14.39 C4.65 -14.4, 4.71 -14.42, 4.8 -14.44 M4.6 -14.39 C4.67 -14.41, 4.74 -14.43, 4.8 -14.44 M4.8 -14.44 C4.85 -14.45, 4.9 -14.46, 5.01 -14.48 M4.8 -14.44 C4.85 -14.45, 4.91 -14.46, 5.01 -14.48 M5.01 -14.48 C5.07 -14.49, 5.13 -14.5, 5.22 -14.51 M5.01 -14.48 C5.07 -14.49, 5.13 -14.5, 5.22 -14.51 M5.22 -14.51 C5.26 -14.51, 5.31 -14.51, 5.44 -14.51 M5.22 -14.51 C5.27 -14.51, 5.32 -14.51, 5.44 -14.51 M5.44 -14.51 C5.52 -14.51, 5.59 -14.51, 5.71 -14.5 M5.44 -14.51 C5.52 -14.51, 5.61 -14.51, 5.71 -14.5 M5.71 -14.5 C5.81 -14.49, 5.91 -14.47, 5.98 -14.46 M5.71 -14.5 C5.78 -14.49, 5.85 -14.48, 5.98 -14.46 M5.98 -14.46 C6.08 -14.44, 6.17 -14.41, 6.24 -14.4 M5.98 -14.46 C6.05 -14.45, 6.12 -14.43, 6.24 -14.4 M6.24 -14.4 C6.3 -14.38, 6.35 -14.36, 6.49 -14.31 M6.24 -14.4 C6.33 -14.37, 6.43 -14.33, 6.49 -14.31 M6.49 -14.31 C6.54 -14.29, 6.59 -14.26, 6.72 -14.2 M6.49 -14.31 C6.57 -14.27, 6.66 -14.23, 6.72 -14.2 M6.72 -14.2 C6.8 -14.16, 6.88 -14.11, 6.95 -14.07 M6.72 -14.2 C6.8 -14.16, 6.89 -14.11, 6.95 -14.07 M6.95 -14.07 C7.01 -14.03, 7.07 -13.98, 7.15 -13.92 M6.95 -14.07 C7.02 -14.02, 7.09 -13.97, 7.15 -13.92 M7.15 -13.92 C7.22 -13.87, 7.28 -13.81, 7.34 -13.76 M7.15 -13.92 C7.19 -13.89, 7.23 -13.86, 7.34 -13.76 M7.34 -13.76 C7.39 -13.71, 7.43 -13.67, 7.52 -13.57 M7.34 -13.76 C7.39 -13.71, 7.44 -13.66, 7.52 -13.57 M7.52 -13.57 C7.55 -13.53, 7.58 -13.49, 7.67 -13.38 M7.52 -13.57 C7.56 -13.53, 7.59 -13.48, 7.67 -13.38 M7.67 -13.38 C7.72 -13.3, 7.76 -13.23, 7.81 -13.16 M7.67 -13.38 C7.73 -13.29, 7.78 -13.21, 7.81 -13.16 M7.81 -13.16 C7.83 -13.11, 7.86 -13.06, 7.92 -12.94 M7.81 -13.16 C7.84 -13.11, 7.86 -13.05, 7.92 -12.94 M7.92 -12.94 C7.95 -12.86, 7.98 -12.78, 8.01 -12.7 M7.92 -12.94 C7.95 -12.88, 7.97 -12.81, 8.01 -12.7 M8.01 -12.7 C8.03 -12.62, 8.05 -12.55, 8.08 -12.45 M8.01 -12.7 C8.04 -12.62, 8.06 -12.53, 8.08 -12.45 M8.08 -12.45 C8.09 -12.37, 8.1 -12.3, 8.12 -12.19 M8.08 -12.45 C8.09 -12.36, 8.11 -12.26, 8.12 -12.19 M8.12 -12.19 C8.13 -12.1, 8.13 -12, 8.13 -11.93 M8.12 -12.19 C8.12 -12.12, 8.13 -12.05, 8.13 -11.93 M8.13 -11.93 C8.13 -11.83, 8.12 -11.72, 8.12 -11.67 M8.13 -11.93 C8.13 -11.84, 8.12 -11.74, 8.12 -11.67 M8.12 -11.67 C8.11 -11.61, 8.1 -11.56, 8.08 -11.41 M8.12 -11.67 C8.11 -11.58, 8.09 -11.49, 8.08 -11.41 M8.08 -11.41 C8.07 -11.36, 8.05 -11.3, 8.01 -11.16 M8.08 -11.41 C8.07 -11.36, 8.05 -11.31, 8.01 -11.16 M8.01 -11.16 C7.99 -11.11, 7.97 -11.06, 7.92 -10.92 M8.01 -11.16 C7.99 -11.09, 7.96 -11.02, 7.92 -10.92 M7.92 -10.92 C7.89 -10.85, 7.85 -10.78, 7.81 -10.7 M7.92 -10.92 C7.9 -10.87, 7.87 -10.82, 7.81 -10.7 M7.81 -10.7 C7.77 -10.64, 7.74 -10.58, 7.67 -10.49 M7.81 -10.7 C7.75 -10.61, 7.7 -10.53, 7.67 -10.49 M7.67 -10.49 C7.63 -10.43, 7.59 -10.38, 7.52 -10.29 M7.67 -10.49 C7.63 -10.43, 7.59 -10.38, 7.52 -10.29 M7.52 -10.29 C7.48 -10.25, 7.44 -10.21, 7.34 -10.1 M7.52 -10.29 C7.46 -10.22, 7.39 -10.16, 7.34 -10.1 M7.34 -10.1 C7.28 -10.04, 7.21 -9.98, 7.15 -9.94 M7.34 -10.1 C7.28 -10.05, 7.21 -9.99, 7.15 -9.94 M7.15 -9.94 C7.07 -9.88, 6.99 -9.82, 6.95 -9.79 M7.15 -9.94 C7.11 -9.9, 7.06 -9.87, 6.95 -9.79 M6.95 -9.79 C6.86 -9.74, 6.78 -9.69, 6.72 -9.66 M6.95 -9.79 C6.86 -9.74, 6.78 -9.69, 6.72 -9.66 M6.72 -9.66 C6.64 -9.62, 6.56 -9.58, 6.49 -9.55 M6.72 -9.66 C6.66 -9.63, 6.59 -9.6, 6.49 -9.55 M6.49 -9.55 C6.39 -9.52, 6.3 -9.48, 6.24 -9.46 M6.49 -9.55 C6.43 -9.53, 6.37 -9.51, 6.24 -9.46 M6.24 -9.46 C6.17 -9.45, 6.1 -9.43, 5.98 -9.4 M6.24 -9.46 C6.14 -9.44, 6.04 -9.41, 5.98 -9.4 M5.98 -9.4 C5.9 -9.39, 5.82 -9.37, 5.71 -9.36 M5.98 -9.4 C5.89 -9.39, 5.8 -9.37, 5.71 -9.36 M5.71 -9.36 C5.61 -9.35, 5.51 -9.35, 5.44 -9.35 M5.71 -9.36 C5.61 -9.35, 5.51 -9.35, 5.44 -9.35 M5.44 -9.35 C5.39 -9.35, 5.35 -9.35, 5.22 -9.35 M5.44 -9.35 C5.39 -9.35, 5.34 -9.35, 5.22 -9.35 M5.22 -9.35 C5.14 -9.36, 5.07 -9.37, 5.01 -9.38 M5.22 -9.35 C5.16 -9.36, 5.1 -9.37, 5.01 -9.38 M5.01 -9.38 C4.93 -9.39, 4.86 -9.41, 4.8 -9.42 M5.01 -9.38 C4.93 -9.39, 4.84 -9.41, 4.8 -9.42 M4.8 -9.42 C4.74 -9.43, 4.69 -9.45, 4.6 -9.47 M4.8 -9.42 C4.73 -9.44, 4.67 -9.45, 4.6 -9.47 M4.6 -9.47 C4.56 -9.49, 4.52 -9.5, 4.4 -9.54 M4.6 -9.47 C4.55 -9.49, 4.5 -9.51, 4.4 -9.54 M4.4 -9.54 C4.35 -9.57, 4.29 -9.59, 4.21 -9.63 M4.4 -9.54 C4.34 -9.57, 4.29 -9.59, 4.21 -9.63 M4.21 -9.63 C4.18 -9.65, 4.14 -9.67, 4.04 -9.72 M4.21 -9.63 C4.18 -9.65, 4.14 -9.67, 4.04 -9.72 M4.04 -9.72 C3.98 -9.76, 3.92 -9.8, 3.86 -9.83 M4.04 -9.72 C3.99 -9.75, 3.95 -9.78, 3.86 -9.83 M3.86 -9.83 C3.81 -9.87, 3.75 -9.92, 3.7 -9.95 M3.86 -9.83 C3.81 -9.87, 3.75 -9.91, 3.7 -9.95 M3.7 -9.95 C3.66 -9.99, 3.62 -10.03, 3.55 -10.08 M3.7 -9.95 C3.65 -9.99, 3.6 -10.04, 3.55 -10.08 M3.55 -10.08 C3.51 -10.12, 3.47 -10.17, 3.41 -10.22 M3.55 -10.08 C3.51 -10.13, 3.46 -10.17, 3.41 -10.22 M3.41 -10.22 C3.37 -10.27, 3.33 -10.32, 3.28 -10.37 M3.41 -10.22 C3.37 -10.27, 3.32 -10.32, 3.28 -10.37 M3.28 -10.37 C3.26 -10.41, 3.23 -10.44, 3.16 -10.54 M3.28 -10.37 C3.25 -10.42, 3.21 -10.47, 3.16 -10.54 M3.16 -10.54 C3.13 -10.59, 3.09 -10.65, 3.06 -10.7 M3.16 -10.54 C3.14 -10.57, 3.12 -10.61, 3.06 -10.7 M3.06 -10.7 C3.03 -10.76, 3.01 -10.81, 2.97 -10.88 M3.06 -10.7 C3.04 -10.74, 3.02 -10.78, 2.97 -10.88 M2.97 -10.88 C2.95 -10.92, 2.93 -10.97, 2.89 -11.07 M2.97 -10.88 C2.94 -10.94, 2.92 -11, 2.89 -11.07 M2.89 -11.07 C2.44 -11.07, 2 -11.07, 1.34 -11.07 M2.89 -11.07 C2.4 -11.07, 1.92 -11.07, 1.34 -11.07 M1.34 -11.07 C0.81 -10.19, 0.29 -9.31, 0 -8.82 M1.34 -11.07 C1.04 -10.56, 0.73 -10.04, 0 -8.82 M0 -8.82 C0.78 -7.51, 1.57 -6.2, 2.09 -5.34 M0 -8.82 C0.49 -8, 0.99 -7.18, 2.09 -5.34 M2.09 -5.34 C3.49 -5.34, 4.9 -5.34, 5.94 -5.34 M2.09 -5.34 C3.06 -5.34, 4.04 -5.34, 5.94 -5.34 M5.94 -5.34 C5.94 -5.34, 5.94 -5.34, 5.94 -5.34 M5.94 -5.34 C5.94 -5.34, 5.94 -5.34, 5.94 -5.34 M5.94 -5.34 C5.96 -5.41, 5.99 -5.48, 6.01 -5.51 M5.94 -5.34 C5.96 -5.39, 5.98 -5.44, 6.01 -5.51 M6.01 -5.51 C6.03 -5.57, 6.06 -5.62, 6.09 -5.68 M6.01 -5.51 C6.04 -5.57, 6.07 -5.63, 6.09 -5.68 M6.09 -5.68 C6.12 -5.73, 6.15 -5.78, 6.18 -5.83 M6.09 -5.68 C6.12 -5.73, 6.15 -5.78, 6.18 -5.83 M6.18 -5.83 C6.21 -5.87, 6.23 -5.9, 6.29 -5.98 M6.18 -5.83 C6.21 -5.88, 6.24 -5.92, 6.29 -5.98 M6.29 -5.98 C6.32 -6.02, 6.35 -6.06, 6.4 -6.13 M6.29 -5.98 C6.33 -6.04, 6.38 -6.1, 6.4 -6.13 M6.4 -6.13 C6.44 -6.17, 6.48 -6.21, 6.53 -6.26 M6.4 -6.13 C6.43 -6.16, 6.46 -6.19, 6.53 -6.26 M6.53 -6.26 C6.57 -6.3, 6.62 -6.34, 6.67 -6.39 M6.53 -6.26 C6.56 -6.29, 6.58 -6.31, 6.67 -6.39 M6.67 -6.39 C6.7 -6.42, 6.73 -6.44, 6.81 -6.51 M6.67 -6.39 C6.7 -6.42, 6.73 -6.44, 6.81 -6.51 M6.81 -6.51 C6.85 -6.54, 6.9 -6.57, 6.96 -6.61 M6.81 -6.51 C6.84 -6.53, 6.88 -6.56, 6.96 -6.61 M6.96 -6.61 C7 -6.64, 7.04 -6.66, 7.12 -6.71 M6.96 -6.61 C7.03 -6.65, 7.09 -6.69, 7.12 -6.71 M7.12 -6.71 C7.18 -6.74, 7.23 -6.77, 7.29 -6.8 M7.12 -6.71 C7.18 -6.74, 7.24 -6.77, 7.29 -6.8 M7.29 -6.8 C7.33 -6.82, 7.38 -6.83, 7.46 -6.87 M7.29 -6.8 C7.33 -6.82, 7.38 -6.84, 7.46 -6.87 M7.46 -6.87 C7.52 -6.89, 7.58 -6.91, 7.64 -6.94 M7.46 -6.87 C7.51 -6.89, 7.55 -6.9, 7.64 -6.94 M7.64 -6.94 C7.69 -6.95, 7.74 -6.96, 7.83 -6.99 M7.64 -6.94 C7.71 -6.95, 7.78 -6.97, 7.83 -6.99 M7.83 -6.99 C7.89 -7, 7.94 -7.01, 8.02 -7.02 M7.83 -6.99 C7.89 -7, 7.95 -7.01, 8.02 -7.02 M8.02 -7.02 C8.08 -7.03, 8.14 -7.04, 8.22 -7.05 M8.02 -7.02 C8.08 -7.03, 8.14 -7.04, 8.22 -7.05 M8.22 -7.05 C8.32 -7.05, 8.42 -7.06, 8.48 -7.06 M8.22 -7.05 C8.27 -7.05, 8.32 -7.05, 8.48 -7.06 M8.48 -7.06 C8.48 -7.06, 8.48 -7.06, 8.48 -7.06 M8.48 -7.06 C8.48 -7.06, 8.48 -7.06, 8.48 -7.06 M8.48 -7.06 C8.57 -7.06, 8.66 -7.05, 8.75 -7.05 M8.48 -7.06 C8.58 -7.05, 8.68 -7.05, 8.75 -7.05 M8.75 -7.05 C8.85 -7.03, 8.95 -7.02, 9.02 -7.01 M8.75 -7.05 C8.86 -7.03, 8.96 -7.02, 9.02 -7.01 M9.02 -7.01 C9.1 -6.99, 9.19 -6.97, 9.28 -6.94 M9.02 -7.01 C9.12 -6.98, 9.22 -6.96, 9.28 -6.94 M9.28 -6.94 C9.37 -6.91, 9.47 -6.88, 9.53 -6.86 M9.28 -6.94 C9.35 -6.92, 9.43 -6.89, 9.53 -6.86 M9.53 -6.86 C9.61 -6.82, 9.69 -6.78, 9.76 -6.75 M9.53 -6.86 C9.6 -6.82, 9.67 -6.79, 9.76 -6.75 M9.76 -6.75 C9.85 -6.7, 9.93 -6.65, 9.98 -6.62 M9.76 -6.75 C9.83 -6.71, 9.89 -6.67, 9.98 -6.62 M9.98 -6.62 C10.05 -6.57, 10.11 -6.53, 10.19 -6.47 M9.98 -6.62 C10.04 -6.58, 10.09 -6.54, 10.19 -6.47 M10.19 -6.47 C10.26 -6.41, 10.33 -6.34, 10.38 -6.3 M10.19 -6.47 C10.25 -6.42, 10.32 -6.36, 10.38 -6.3 M10.38 -6.3 C10.42 -6.26, 10.47 -6.21, 10.56 -6.12 M10.38 -6.3 C10.43 -6.25, 10.48 -6.2, 10.56 -6.12 M10.56 -6.12 C10.6 -6.07, 10.64 -6.01, 10.71 -5.92 M10.56 -6.12 C10.6 -6.07, 10.64 -6.01, 10.71 -5.92 M10.71 -5.92 C10.75 -5.86, 10.79 -5.79, 10.85 -5.71 M10.71 -5.92 C10.75 -5.86, 10.79 -5.8, 10.85 -5.71 M10.85 -5.71 C10.87 -5.66, 10.89 -5.61, 10.96 -5.48 M10.85 -5.71 C10.89 -5.63, 10.93 -5.55, 10.96 -5.48 M10.96 -5.48 C10.98 -5.43, 11 -5.37, 11.05 -5.24 M10.96 -5.48 C10.99 -5.41, 11.02 -5.34, 11.05 -5.24 M11.05 -5.24 C11.07 -5.17, 11.09 -5.1, 11.12 -5 M11.05 -5.24 C11.08 -5.16, 11.1 -5.07, 11.12 -5 M11.12 -5 C11.13 -4.93, 11.14 -4.87, 11.16 -4.74 M11.12 -5 C11.13 -4.94, 11.14 -4.89, 11.16 -4.74 M11.16 -4.74 C11.16 -4.67, 11.17 -4.6, 11.17 -4.48 M11.16 -4.74 C11.16 -4.64, 11.17 -4.54, 11.17 -4.48 M11.17 -4.48 C11.17 -4.38, 11.16 -4.29, 11.16 -4.21 M11.17 -4.48 C11.17 -4.42, 11.17 -4.37, 11.16 -4.21 M11.16 -4.21 C11.14 -4.12, 11.13 -4.03, 11.12 -3.95 M11.16 -4.21 C11.15 -4.15, 11.14 -4.08, 11.12 -3.95 M11.12 -3.95 C11.1 -3.89, 11.09 -3.83, 11.05 -3.71 M11.12 -3.95 C11.09 -3.87, 11.07 -3.78, 11.05 -3.71 M11.05 -3.71 C11.03 -3.64, 11 -3.57, 10.96 -3.47 M11.05 -3.71 C11.02 -3.62, 10.98 -3.53, 10.96 -3.47 M10.96 -3.47 C10.94 -3.42, 10.92 -3.38, 10.85 -3.24 M10.96 -3.47 C10.93 -3.42, 10.91 -3.36, 10.85 -3.24 M10.85 -3.24 C10.81 -3.18, 10.77 -3.12, 10.71 -3.03 M10.85 -3.24 C10.81 -3.19, 10.78 -3.13, 10.71 -3.03 M10.71 -3.03 C10.65 -2.95, 10.59 -2.88, 10.56 -2.83 M10.71 -3.03 C10.67 -2.97, 10.62 -2.91, 10.56 -2.83 M10.56 -2.83 C10.52 -2.79, 10.48 -2.74, 10.38 -2.65 M10.56 -2.83 C10.49 -2.76, 10.42 -2.69, 10.38 -2.65 M10.38 -2.65 C10.31 -2.59, 10.25 -2.53, 10.19 -2.48 M10.38 -2.65 C10.33 -2.6, 10.28 -2.55, 10.19 -2.48 M10.19 -2.48 C10.13 -2.43, 10.06 -2.39, 9.98 -2.33 M10.19 -2.48 C10.12 -2.43, 10.05 -2.38, 9.98 -2.33 M9.98 -2.33 C9.91 -2.29, 9.83 -2.24, 9.76 -2.2 M9.98 -2.33 C9.93 -2.3, 9.88 -2.27, 9.76 -2.2 M9.76 -2.2 C9.67 -2.16, 9.58 -2.12, 9.53 -2.09 M9.76 -2.2 C9.7 -2.17, 9.64 -2.15, 9.53 -2.09 M9.53 -2.09 C9.43 -2.06, 9.34 -2.03, 9.28 -2.01 M9.53 -2.09 C9.47 -2.07, 9.41 -2.05, 9.28 -2.01 M9.28 -2.01 C9.22 -1.99, 9.16 -1.98, 9.02 -1.94 M9.28 -2.01 C9.22 -1.99, 9.17 -1.98, 9.02 -1.94 M9.02 -1.94 C8.93 -1.93, 8.83 -1.92, 8.75 -1.9 M9.02 -1.94 C8.93 -1.93, 8.83 -1.92, 8.75 -1.9 M8.75 -1.9 C8.68 -1.9, 8.62 -1.9, 8.48 -1.89 M8.75 -1.9 C8.68 -1.9, 8.62 -1.9, 8.48 -1.89 M8.48 -1.89 C8.4 -1.89, 8.32 -1.9, 8.26 -1.9 M8.48 -1.89 C8.43 -1.89, 8.37 -1.89, 8.26 -1.9 M8.26 -1.9 C8.18 -1.91, 8.09 -1.92, 8.05 -1.92 M8.26 -1.9 C8.2 -1.91, 8.13 -1.91, 8.05 -1.92 M8.05 -1.92 C8 -1.93, 7.96 -1.94, 7.84 -1.96 M8.05 -1.92 C7.98 -1.94, 7.92 -1.95, 7.84 -1.96 M7.84 -1.96 C7.79 -1.98, 7.74 -1.99, 7.64 -2.02 M7.84 -1.96 C7.79 -1.98, 7.73 -1.99, 7.64 -2.02 M7.64 -2.02 C7.59 -2.04, 7.54 -2.05, 7.44 -2.09 M7.64 -2.02 C7.59 -2.03, 7.55 -2.05, 7.44 -2.09 M7.44 -2.09 C7.38 -2.12, 7.31 -2.14, 7.25 -2.17 M7.44 -2.09 C7.37 -2.12, 7.3 -2.15, 7.25 -2.17 M7.25 -2.17 C7.2 -2.2, 7.14 -2.23, 7.07 -2.27 M7.25 -2.17 C7.19 -2.21, 7.12 -2.24, 7.07 -2.27 M7.07 -2.27 C7.03 -2.29, 6.99 -2.32, 6.9 -2.37 M7.07 -2.27 C7.04 -2.29, 7 -2.31, 6.9 -2.37 M6.9 -2.37 C6.86 -2.41, 6.81 -2.44, 6.74 -2.49 M6.9 -2.37 C6.84 -2.42, 6.78 -2.47, 6.74 -2.49 M6.74 -2.49 C6.71 -2.52, 6.68 -2.55, 6.59 -2.63 M6.74 -2.49 C6.7 -2.53, 6.65 -2.57, 6.59 -2.63 M6.59 -2.63 C6.56 -2.66, 6.52 -2.69, 6.45 -2.77 M6.59 -2.63 C6.56 -2.66, 6.52 -2.7, 6.45 -2.77 M6.45 -2.77 C6.42 -2.8, 6.4 -2.83, 6.32 -2.92 M6.45 -2.77 C6.41 -2.81, 6.38 -2.85, 6.32 -2.92 M6.32 -2.92 C6.28 -2.97, 6.25 -3.02, 6.2 -3.08 M6.32 -2.92 C6.28 -2.97, 6.24 -3.03, 6.2 -3.08 M6.2 -3.08 C6.17 -3.13, 6.14 -3.18, 6.1 -3.25 M6.2 -3.08 C6.17 -3.13, 6.14 -3.19, 6.1 -3.25 M6.1 -3.25 C6.07 -3.3, 6.05 -3.35, 6.01 -3.43 M6.1 -3.25 C6.08 -3.29, 6.06 -3.33, 6.01 -3.43 M6.01 -3.43 C5.98 -3.49, 5.95 -3.56, 5.93 -3.61 M6.01 -3.43 C5.98 -3.5, 5.95 -3.57, 5.93 -3.61 M5.93 -3.61 C4.54 -3.61, 3.14 -3.61, 2.22 -3.61 M5.93 -3.61 C4.88 -3.61, 3.82 -3.61, 2.22 -3.61 M2.22 -3.61 C1.68 -2.73, 1.14 -1.86, 0 0 M2.22 -3.61 C1.51 -2.46, 0.8 -1.3, 0 0 M0 0 C0 0, 0 0, 0 0 M0 0 C0 0, 0 0, 0 0 M0 0 C0 0, 0 0, 0 0 M0 0 C0 0, 0 0, 0 0" stroke="#00000000" stroke-width="1" fill="none"></path></g></g><mask></mask><g stroke-linecap="round"><g transform="translate(38.35343551635742 29.156030416488676) rotate(0 0 2.5844274759292603)" fill-rule="evenodd"><path d="M0 0 L0 0 L0.28 0.01 L0.54 0.05 L0.8 0.12 L1.05 0.2 L1.29 0.31 L1.51 0.44 L1.72 0.59 L1.91 0.76 L2.08 0.94 L2.24 1.14 L2.37 1.35 L2.48 1.58 L2.58 1.82 L2.64 2.06 L2.68 2.32 L2.7 2.58 L2.68 2.85 L2.64 3.11 L2.58 3.35 L2.48 3.59 L2.37 3.82 L2.24 4.03 L2.08 4.23 L1.91 4.41 L1.72 4.58 L1.51 4.73 L1.29 4.86 L1.05 4.97 L0.8 5.05 L0.54 5.12 L0.28 5.16 L0 5.17 L-0.28 5.16 L-0.54 5.12 L-0.8 5.05 L-1.05 4.97 L-1.29 4.86 L-1.51 4.73 L-1.72 4.58 L-1.91 4.41 L-2.08 4.23 L-2.24 4.03 L-2.37 3.82 L-2.48 3.59 L-2.58 3.35 L-2.64 3.11 L-2.68 2.85 L-2.7 2.58 L-2.68 2.32 L-2.64 2.06 L-2.58 1.82 L-2.48 1.58 L-2.37 1.35 L-2.24 1.14 L-2.08 0.94 L-1.91 0.76 L-1.72 0.59 L-1.51 0.44 L-1.29 0.31 L-1.05 0.2 L-0.8 0.12 L-0.54 0.05 L-0.28 0.01 L0 0 L0 0" stroke="none" stroke-width="0" fill="#4285f4" fill-rule="evenodd"></path><path d="M0 0 C0 0, 0 0, 0 0 M0 0 C0 0, 0 0, 0 0 M0 0 C0.09 0, 0.18 0.01, 0.28 0.01 M0 0 C0.08 0, 0.16 0.01, 0.28 0.01 M0.28 0.01 C0.37 0.03, 0.46 0.04, 0.54 0.05 M0.28 0.01 C0.36 0.03, 0.44 0.04, 0.54 0.05 M0.54 0.05 C0.64 0.08, 0.74 0.1, 0.8 0.12 M0.54 0.05 C0.62 0.07, 0.7 0.09, 0.8 0.12 M0.8 0.12 C0.9 0.15, 0.99 0.18, 1.05 0.2 M0.8 0.12 C0.85 0.13, 0.91 0.15, 1.05 0.2 M1.05 0.2 C1.13 0.24, 1.2 0.27, 1.29 0.31 M1.05 0.2 C1.1 0.23, 1.16 0.25, 1.29 0.31 M1.29 0.31 C1.37 0.36, 1.46 0.41, 1.51 0.44 M1.29 0.31 C1.35 0.35, 1.42 0.39, 1.51 0.44 M1.51 0.44 C1.59 0.5, 1.67 0.55, 1.72 0.59 M1.51 0.44 C1.57 0.49, 1.64 0.53, 1.72 0.59 M1.72 0.59 C1.78 0.65, 1.84 0.7, 1.91 0.76 M1.72 0.59 C1.79 0.65, 1.86 0.71, 1.91 0.76 M1.91 0.76 C1.96 0.82, 2.02 0.88, 2.08 0.94 M1.91 0.76 C1.95 0.8, 1.98 0.84, 2.08 0.94 M2.08 0.94 C2.12 0.99, 2.15 1.03, 2.24 1.14 M2.08 0.94 C2.14 1.01, 2.19 1.09, 2.24 1.14 M2.24 1.14 C2.29 1.22, 2.34 1.3, 2.37 1.35 M2.24 1.14 C2.29 1.22, 2.34 1.3, 2.37 1.35 M2.37 1.35 C2.41 1.42, 2.44 1.49, 2.48 1.58 M2.37 1.35 C2.41 1.43, 2.45 1.5, 2.48 1.58 M2.48 1.58 C2.51 1.64, 2.53 1.7, 2.58 1.82 M2.48 1.58 C2.51 1.63, 2.53 1.69, 2.58 1.82 M2.58 1.82 C2.59 1.88, 2.61 1.95, 2.64 2.06 M2.58 1.82 C2.59 1.89, 2.61 1.96, 2.64 2.06 M2.64 2.06 C2.65 2.12, 2.66 2.17, 2.68 2.32 M2.64 2.06 C2.66 2.16, 2.67 2.25, 2.68 2.32 M2.68 2.32 C2.69 2.38, 2.69 2.44, 2.7 2.58 M2.68 2.32 C2.69 2.42, 2.69 2.51, 2.7 2.58 M2.7 2.58 C2.69 2.67, 2.69 2.75, 2.68 2.85 M2.7 2.58 C2.69 2.69, 2.69 2.79, 2.68 2.85 M2.68 2.85 C2.67 2.93, 2.66 3.01, 2.64 3.11 M2.68 2.85 C2.67 2.91, 2.66 2.98, 2.64 3.11 M2.64 3.11 C2.62 3.19, 2.59 3.28, 2.58 3.35 M2.64 3.11 C2.62 3.17, 2.61 3.24, 2.58 3.35 M2.58 3.35 C2.54 3.45, 2.5 3.54, 2.48 3.59 M2.58 3.35 C2.54 3.44, 2.51 3.52, 2.48 3.59 M2.48 3.59 C2.46 3.65, 2.43 3.71, 2.37 3.82 M2.48 3.59 C2.44 3.68, 2.4 3.77, 2.37 3.82 M2.37 3.82 C2.34 3.87, 2.3 3.92, 2.24 4.03 M2.37 3.82 C2.34 3.86, 2.31 3.91, 2.24 4.03 M2.24 4.03 C2.18 4.1, 2.13 4.17, 2.08 4.23 M2.24 4.03 C2.19 4.09, 2.15 4.14, 2.08 4.23 M2.08 4.23 C2.01 4.3, 1.94 4.37, 1.91 4.41 M2.08 4.23 C2.03 4.29, 1.97 4.34, 1.91 4.41 M1.91 4.41 C1.85 4.47, 1.78 4.52, 1.72 4.58 M1.91 4.41 C1.85 4.47, 1.78 4.52, 1.72 4.58 M1.72 4.58 C1.65 4.63, 1.58 4.67, 1.51 4.73 M1.72 4.58 C1.66 4.62, 1.6 4.66, 1.51 4.73 M1.51 4.73 C1.44 4.77, 1.38 4.8, 1.29 4.86 M1.51 4.73 C1.42 4.78, 1.33 4.83, 1.29 4.86 M1.29 4.86 C1.24 4.88, 1.19 4.9, 1.05 4.97 M1.29 4.86 C1.22 4.89, 1.16 4.92, 1.05 4.97 M1.05 4.97 C0.97 5, 0.88 5.02, 0.8 5.05 M1.05 4.97 C0.99 4.99, 0.93 5.01, 0.8 5.05 M0.8 5.05 C0.74 5.07, 0.68 5.08, 0.54 5.12 M0.8 5.05 C0.71 5.08, 0.61 5.1, 0.54 5.12 M0.54 5.12 C0.45 5.13, 0.36 5.14, 0.28 5.16 M0.54 5.12 C0.45 5.13, 0.36 5.14, 0.28 5.16 M0.28 5.16 C0.21 5.16, 0.14 5.16, 0 5.17 M0.28 5.16 C0.22 5.16, 0.16 5.16, 0 5.17 M0 5.17 C-0.1 5.16, -0.21 5.16, -0.28 5.16 M0 5.17 C-0.1 5.16, -0.21 5.16, -0.28 5.16 M-0.28 5.16 C-0.36 5.14, -0.44 5.13, -0.54 5.12 M-0.28 5.16 C-0.37 5.14, -0.46 5.13, -0.54 5.12 M-0.54 5.12 C-0.62 5.1, -0.7 5.08, -0.8 5.05 M-0.54 5.12 C-0.6 5.1, -0.66 5.09, -0.8 5.05 M-0.8 5.05 C-0.89 5.02, -0.97 4.99, -1.05 4.97 M-0.8 5.05 C-0.87 5.03, -0.94 5, -1.05 4.97 M-1.05 4.97 C-1.13 4.93, -1.2 4.89, -1.29 4.86 M-1.05 4.97 C-1.13 4.93, -1.21 4.89, -1.29 4.86 M-1.29 4.86 C-1.35 4.82, -1.41 4.79, -1.51 4.73 M-1.29 4.86 C-1.34 4.82, -1.4 4.79, -1.51 4.73 M-1.51 4.73 C-1.58 4.68, -1.65 4.63, -1.72 4.58 M-1.51 4.73 C-1.58 4.68, -1.65 4.62, -1.72 4.58 M-1.72 4.58 C-1.78 4.52, -1.85 4.46, -1.91 4.41 M-1.72 4.58 C-1.76 4.54, -1.81 4.5, -1.91 4.41 M-1.91 4.41 C-1.96 4.36, -2.01 4.3, -2.08 4.23 M-1.91 4.41 C-1.96 4.36, -2.01 4.3, -2.08 4.23 M-2.08 4.23 C-2.13 4.16, -2.18 4.1, -2.24 4.03 M-2.08 4.23 C-2.14 4.16, -2.19 4.09, -2.24 4.03 M-2.24 4.03 C-2.28 3.97, -2.31 3.91, -2.37 3.82 M-2.24 4.03 C-2.29 3.95, -2.34 3.86, -2.37 3.82 M-2.37 3.82 C-2.41 3.74, -2.45 3.66, -2.48 3.59 M-2.37 3.82 C-2.42 3.73, -2.46 3.64, -2.48 3.59 M-2.48 3.59 C-2.51 3.53, -2.53 3.47, -2.58 3.35 M-2.48 3.59 C-2.51 3.54, -2.53 3.48, -2.58 3.35 M-2.58 3.35 C-2.59 3.29, -2.61 3.22, -2.64 3.11 M-2.58 3.35 C-2.6 3.26, -2.63 3.16, -2.64 3.11 M-2.64 3.11 C-2.65 3.05, -2.66 2.99, -2.68 2.85 M-2.64 3.11 C-2.66 3.01, -2.67 2.91, -2.68 2.85 M-2.68 2.85 C-2.69 2.78, -2.69 2.71, -2.7 2.58 M-2.68 2.85 C-2.69 2.79, -2.69 2.73, -2.7 2.58 M-2.7 2.58 C-2.69 2.5, -2.69 2.41, -2.68 2.32 M-2.7 2.58 C-2.69 2.52, -2.69 2.46, -2.68 2.32 M-2.68 2.32 C-2.67 2.24, -2.66 2.17, -2.64 2.06 M-2.68 2.32 C-2.67 2.22, -2.65 2.13, -2.64 2.06 M-2.64 2.06 C-2.62 1.96, -2.59 1.87, -2.58 1.82 M-2.64 2.06 C-2.62 1.98, -2.6 1.89, -2.58 1.82 M-2.58 1.82 C-2.56 1.76, -2.54 1.71, -2.48 1.58 M-2.58 1.82 C-2.54 1.72, -2.5 1.63, -2.48 1.58 M-2.48 1.58 C-2.45 1.5, -2.41 1.42, -2.37 1.35 M-2.48 1.58 C-2.46 1.52, -2.43 1.46, -2.37 1.35 M-2.37 1.35 C-2.33 1.29, -2.3 1.24, -2.24 1.14 M-2.37 1.35 C-2.34 1.3, -2.3 1.25, -2.24 1.14 M-2.24 1.14 C-2.18 1.07, -2.13 1.01, -2.08 0.94 M-2.24 1.14 C-2.19 1.09, -2.15 1.03, -2.08 0.94 M-2.08 0.94 C-2.01 0.87, -1.95 0.8, -1.91 0.76 M-2.08 0.94 C-2.02 0.88, -1.96 0.81, -1.91 0.76 M-1.91 0.76 C-1.85 0.71, -1.8 0.66, -1.72 0.59 M-1.91 0.76 C-1.84 0.7, -1.78 0.64, -1.72 0.59 M-1.72 0.59 C-1.66 0.55, -1.6 0.51, -1.51 0.44 M-1.72 0.59 C-1.65 0.54, -1.58 0.49, -1.51 0.44 M-1.51 0.44 C-1.43 0.4, -1.35 0.35, -1.29 0.31 M-1.51 0.44 C-1.43 0.4, -1.36 0.35, -1.29 0.31 M-1.29 0.31 C-1.21 0.28, -1.13 0.24, -1.05 0.2 M-1.29 0.31 C-1.22 0.28, -1.15 0.25, -1.05 0.2 M-1.05 0.2 C-0.99 0.18, -0.94 0.16, -0.8 0.12 M-1.05 0.2 C-0.96 0.17, -0.87 0.14, -0.8 0.12 M-0.8 0.12 C-0.7 0.09, -0.6 0.07, -0.54 0.05 M-0.8 0.12 C-0.72 0.1, -0.63 0.07, -0.54 0.05 M-0.54 0.05 C-0.49 0.04, -0.43 0.04, -0.28 0.01 M-0.54 0.05 C-0.47 0.04, -0.39 0.03, -0.28 0.01 M-0.28 0.01 C-0.2 0.01, -0.12 0.01, 0 0 M-0.28 0.01 C-0.22 0.01, -0.15 0.01, 0 0 M0 0 C0 0, 0 0, 0 0 M0 0 C0 0, 0 0, 0 0 M0 0 C0 0, 0 0, 0 0 M0 0 C0 0, 0 0, 0 0" stroke="#00000000" stroke-width="1" fill="none"></path></g></g><mask></mask></svg>