<svg version="1.1" xmlns="http://www.w3.org/2000/svg" viewBox="0 0 172 84" width="172" height="84">
  <!-- svg-source:excalidraw -->
  
  <defs>
    
    
  </defs>
  <g stroke-linecap="round" transform="translate(6 6) rotate(0 80 36)"><path d="M18 0 C49.88 0, 81.76 0, 142 0 C154 0, 160 6, 160 18 C160 31.94, 160 45.88, 160 54 C160 66, 154 72, 142 72 C116.68 72, 91.35 72, 18 72 C6 72, 0 66, 0 54 C0 46.73, 0 39.45, 0 18 C0 6, 6 0, 18 0" stroke="none" stroke-width="0" fill="#FFF"></path><path d="M18 0 C50.85 0, 83.71 0, 142 0 M18 0 C53.02 0, 88.04 0, 142 0 M142 0 C154 0, 160 6, 160 18 M142 0 C154 0, 160 6, 160 18 M160 18 C160 27.04, 160 36.08, 160 54 M160 18 C160 27.4, 160 36.8, 160 54 M160 54 C160 66, 154 72, 142 72 M160 54 C160 66, 154 72, 142 72 M142 72 C108.36 72, 74.72 72, 18 72 M142 72 C112.2 72, 82.39 72, 18 72 M18 72 C6 72, 0 66, 0 54 M18 72 C6 72, 0 66, 0 54 M0 54 C0 45.02, 0 36.04, 0 18 M0 54 C0 42.7, 0 31.4, 0 18 M0 18 C0 6, 6 0, 18 0 M0 18 C0 6, 6 0, 18 0" stroke="#4285f4" stroke-width="2" fill="none"></path></g><g transform="translate(70.99999999999989 28) rotate(0 35.5 14)"><text x="0" y="0" font-family="Helvetica, Segoe UI Emoji" font-size="12px" fill="#000000" text-anchor="start" style="white-space: pre;" direction="ltr" dominant-baseline="text-before-edge">Binary</text><text x="0" y="14" font-family="Helvetica, Segoe UI Emoji" font-size="12px" fill="#000000" text-anchor="start" style="white-space: pre;" direction="ltr" dominant-baseline="text-before-edge">Authorization</text></g><g stroke-linecap="round"><g transform="translate(42.811716943579654 41.36228275299061) rotate(0 0.6377177238464355 6.757882118225098)" fill-rule="evenodd"><path d="M0 0 L3.1 0 L3.1 0 L3.09 0.85 L3.04 1.66 L2.97 2.44 L2.87 3.19 L2.74 3.9 L2.59 4.59 L2.42 5.24 L2.23 5.86 L1.79 7.02 L1.3 8.06 L0.76 8.99 L0.18 9.82 L-0.42 10.55 L-1.03 11.19 L-1.62 11.74 L-2.21 12.21 L-2.75 12.6 L-3.26 12.92 L-3.7 13.17 L-4.07 13.36 L-4.07 15.74 L-3.67 15.61 L-3.67 15.61 L-3.62 15.59 L-3.51 15.55 L-3.37 15.49 L-3.18 15.41 L-2.96 15.31 L-2.71 15.18 L-2.42 15.03 L-2.11 14.85 L-1.42 14.42 L-0.66 13.87 L0.15 13.2 L0.97 12.39 L1.39 11.94 L1.8 11.44 L2.2 10.91 L2.59 10.34 L2.97 9.72 L3.33 9.07 L3.67 8.37 L3.99 7.63 L4.28 6.85 L4.55 6.01 L4.78 5.13 L4.98 4.21 L5.13 3.23 L5.25 2.2 L5.32 1.12 L5.35 -0.02 L5.35 -2.23 L-1.12 -2.23 L0 0 L0 0" stroke="none" stroke-width="0" fill="#669df6" fill-rule="evenodd"></path><path d="M0 0 C0.71 0, 1.43 0, 3.1 0 M0 0 C1.11 0, 2.21 0, 3.1 0 M3.1 0 C3.1 0, 3.1 0, 3.1 0 M3.1 0 C3.1 0, 3.1 0, 3.1 0 M3.1 0 C3.1 0.26, 3.09 0.52, 3.09 0.85 M3.1 0 C3.1 0.22, 3.09 0.44, 3.09 0.85 M3.09 0.85 C3.07 1.07, 3.06 1.29, 3.04 1.66 M3.09 0.85 C3.08 1.04, 3.07 1.24, 3.04 1.66 M3.04 1.66 C3.02 1.91, 2.99 2.16, 2.97 2.44 M3.04 1.66 C3.01 1.97, 2.98 2.27, 2.97 2.44 M2.97 2.44 C2.94 2.63, 2.92 2.82, 2.87 3.19 M2.97 2.44 C2.94 2.64, 2.91 2.84, 2.87 3.19 M2.87 3.19 C2.84 3.37, 2.8 3.55, 2.74 3.9 M2.87 3.19 C2.84 3.37, 2.81 3.54, 2.74 3.9 M2.74 3.9 C2.69 4.12, 2.65 4.33, 2.59 4.59 M2.74 3.9 C2.71 4.06, 2.67 4.21, 2.59 4.59 M2.59 4.59 C2.56 4.72, 2.52 4.85, 2.42 5.24 M2.59 4.59 C2.56 4.72, 2.52 4.85, 2.42 5.24 M2.42 5.24 C2.36 5.44, 2.3 5.64, 2.23 5.86 M2.42 5.24 C2.35 5.49, 2.27 5.73, 2.23 5.86 M2.23 5.86 C2.13 6.14, 2.02 6.41, 1.79 7.02 M2.23 5.86 C2.13 6.12, 2.04 6.38, 1.79 7.02 M1.79 7.02 C1.61 7.41, 1.43 7.79, 1.3 8.06 M1.79 7.02 C1.69 7.23, 1.59 7.44, 1.3 8.06 M1.3 8.06 C1.12 8.36, 0.95 8.66, 0.76 8.99 M1.3 8.06 C1.11 8.39, 0.91 8.72, 0.76 8.99 M0.76 8.99 C0.57 9.26, 0.38 9.53, 0.18 9.82 M0.76 8.99 C0.58 9.24, 0.41 9.49, 0.18 9.82 M0.18 9.82 C0.06 9.97, -0.07 10.12, -0.42 10.55 M0.18 9.82 C0.04 10, -0.1 10.17, -0.42 10.55 M-0.42 10.55 C-0.57 10.71, -0.72 10.87, -1.03 11.19 M-0.42 10.55 C-0.58 10.73, -0.75 10.9, -1.03 11.19 M-1.03 11.19 C-1.22 11.38, -1.42 11.56, -1.62 11.74 M-1.03 11.19 C-1.26 11.41, -1.49 11.62, -1.62 11.74 M-1.62 11.74 C-1.85 11.92, -2.07 12.1, -2.21 12.21 M-1.62 11.74 C-1.83 11.91, -2.03 12.07, -2.21 12.21 M-2.21 12.21 C-2.39 12.34, -2.57 12.47, -2.75 12.6 M-2.21 12.21 C-2.38 12.34, -2.55 12.46, -2.75 12.6 M-2.75 12.6 C-2.94 12.72, -3.13 12.84, -3.26 12.92 M-2.75 12.6 C-2.91 12.7, -3.06 12.79, -3.26 12.92 M-3.26 12.92 C-3.4 13, -3.54 13.08, -3.7 13.17 M-3.26 12.92 C-3.35 12.97, -3.44 13.03, -3.7 13.17 M-3.7 13.17 C-3.79 13.22, -3.87 13.26, -4.07 13.36 M-3.7 13.17 C-3.82 13.23, -3.94 13.29, -4.07 13.36 M-4.07 13.36 C-4.07 13.85, -4.07 14.34, -4.07 15.74 M-4.07 13.36 C-4.07 13.97, -4.07 14.58, -4.07 15.74 M-4.07 15.74 C-3.92 15.69, -3.76 15.64, -3.67 15.61 M-4.07 15.74 C-3.94 15.7, -3.81 15.65, -3.67 15.61 M-3.67 15.61 C-3.67 15.61, -3.67 15.61, -3.67 15.61 M-3.67 15.61 C-3.67 15.61, -3.67 15.61, -3.67 15.61 M-3.67 15.61 C-3.66 15.6, -3.65 15.6, -3.62 15.59 M-3.67 15.61 C-3.66 15.6, -3.64 15.6, -3.62 15.59 M-3.62 15.59 C-3.59 15.58, -3.56 15.57, -3.51 15.55 M-3.62 15.59 C-3.59 15.58, -3.57 15.57, -3.51 15.55 M-3.51 15.55 C-3.45 15.52, -3.4 15.5, -3.37 15.49 M-3.51 15.55 C-3.46 15.53, -3.4 15.5, -3.37 15.49 M-3.37 15.49 C-3.31 15.47, -3.26 15.44, -3.18 15.41 M-3.37 15.49 C-3.3 15.46, -3.24 15.43, -3.18 15.41 M-3.18 15.41 C-3.14 15.39, -3.09 15.36, -2.96 15.31 M-3.18 15.41 C-3.12 15.38, -3.06 15.35, -2.96 15.31 M-2.96 15.31 C-2.88 15.26, -2.79 15.22, -2.71 15.18 M-2.96 15.31 C-2.86 15.26, -2.76 15.21, -2.71 15.18 M-2.71 15.18 C-2.63 15.14, -2.55 15.09, -2.42 15.03 M-2.71 15.18 C-2.64 15.14, -2.56 15.1, -2.42 15.03 M-2.42 15.03 C-2.31 14.97, -2.2 14.9, -2.11 14.85 M-2.42 15.03 C-2.31 14.96, -2.19 14.9, -2.11 14.85 M-2.11 14.85 C-1.87 14.7, -1.63 14.55, -1.42 14.42 M-2.11 14.85 C-1.94 14.75, -1.78 14.64, -1.42 14.42 M-1.42 14.42 C-1.19 14.26, -0.96 14.09, -0.66 13.87 M-1.42 14.42 C-1.21 14.27, -1 14.12, -0.66 13.87 M-0.66 13.87 C-0.36 13.62, -0.05 13.37, 0.15 13.2 M-0.66 13.87 C-0.42 13.67, -0.18 13.47, 0.15 13.2 M0.15 13.2 C0.47 12.88, 0.8 12.56, 0.97 12.39 M0.15 13.2 C0.46 12.89, 0.78 12.58, 0.97 12.39 M0.97 12.39 C1.09 12.26, 1.21 12.13, 1.39 11.94 M0.97 12.39 C1.1 12.25, 1.22 12.12, 1.39 11.94 M1.39 11.94 C1.49 11.81, 1.6 11.68, 1.8 11.44 M1.39 11.94 C1.53 11.76, 1.68 11.58, 1.8 11.44 M1.8 11.44 C1.89 11.32, 1.98 11.19, 2.2 10.91 M1.8 11.44 C1.91 11.29, 2.02 11.15, 2.2 10.91 M2.2 10.91 C2.28 10.79, 2.36 10.67, 2.59 10.34 M2.2 10.91 C2.34 10.7, 2.49 10.49, 2.59 10.34 M2.59 10.34 C2.71 10.15, 2.82 9.96, 2.97 9.72 M2.59 10.34 C2.69 10.17, 2.8 10, 2.97 9.72 M2.97 9.72 C3.09 9.51, 3.21 9.29, 3.33 9.07 M2.97 9.72 C3.09 9.5, 3.21 9.28, 3.33 9.07 M3.33 9.07 C3.41 8.91, 3.49 8.74, 3.67 8.37 M3.33 9.07 C3.43 8.86, 3.53 8.66, 3.67 8.37 M3.67 8.37 C3.74 8.2, 3.82 8.03, 3.99 7.63 M3.67 8.37 C3.77 8.16, 3.86 7.94, 3.99 7.63 M3.99 7.63 C4.07 7.41, 4.16 7.18, 4.28 6.85 M3.99 7.63 C4.1 7.34, 4.21 7.05, 4.28 6.85 M4.28 6.85 C4.35 6.62, 4.43 6.4, 4.55 6.01 M4.28 6.85 C4.35 6.64, 4.41 6.43, 4.55 6.01 M4.55 6.01 C4.64 5.68, 4.72 5.35, 4.78 5.13 M4.55 6.01 C4.61 5.79, 4.67 5.56, 4.78 5.13 M4.78 5.13 C4.84 4.84, 4.91 4.54, 4.98 4.21 M4.78 5.13 C4.84 4.86, 4.9 4.58, 4.98 4.21 M4.98 4.21 C5.03 3.86, 5.09 3.52, 5.13 3.23 M4.98 4.21 C5.03 3.85, 5.09 3.5, 5.13 3.23 M5.13 3.23 C5.16 2.98, 5.19 2.74, 5.25 2.2 M5.13 3.23 C5.17 2.9, 5.21 2.56, 5.25 2.2 M5.25 2.2 C5.27 1.88, 5.29 1.56, 5.32 1.12 M5.25 2.2 C5.27 1.96, 5.28 1.71, 5.32 1.12 M5.32 1.12 C5.33 0.7, 5.34 0.29, 5.35 -0.02 M5.32 1.12 C5.33 0.79, 5.34 0.46, 5.35 -0.02 M5.35 -0.02 C5.35 -0.54, 5.35 -1.06, 5.35 -2.23 M5.35 -0.02 C5.35 -0.49, 5.35 -0.96, 5.35 -2.23 M5.35 -2.23 C3.84 -2.23, 2.34 -2.23, -1.12 -2.23 M5.35 -2.23 C3.05 -2.23, 0.74 -2.23, -1.12 -2.23 M-1.12 -2.23 C-0.85 -1.69, -0.59 -1.16, 0 0 M-1.12 -2.23 C-0.85 -1.69, -0.58 -1.15, 0 0 M0 0 C0 0, 0 0, 0 0 M0 0 C0 0, 0 0, 0 0 M0 0 C0 0, 0 0, 0 0 M0 0 C0 0, 0 0, 0 0" stroke="#00000000" stroke-width="1" fill="none"></path></g></g><mask></mask><g stroke-linecap="round"><g transform="translate(41.66954031546686 39.13503837585438) rotate(0 -3.502676486968994 0.24747219681739807)" fill-rule="evenodd"><path d="M0 0 L1.1 -2.09 L1.1 -12.51 L-0.65 -11.16 L-0.65 -11.16 L-1.36 -10.59 L-2.07 -9.97 L-2.77 -9.31 L-3.46 -8.59 L-4.13 -7.83 L-4.77 -7.03 L-5.37 -6.19 L-5.94 -5.31 L-6.46 -4.39 L-6.92 -3.43 L-7.32 -2.45 L-7.66 -1.43 L-7.92 -0.38 L-8.11 0.69 L-8.2 1.79 L-8.2 2.91 L-8.17 3.66 L-8.09 4.39 L-7.97 5.11 L-7.8 5.83 L-7.59 6.53 L-7.35 7.22 L-7.06 7.89 L-6.74 8.54 L-6.38 9.17 L-5.98 9.78 L-5.55 10.37 L-5.09 10.93 L-4.59 11.47 L-4.05 11.98 L-3.49 12.46 L-2.89 12.91 L-2.72 13 L-1.58 11.16 L-1.73 11.06 L-1.73 11.06 L-2.39 10.53 L-3.01 9.96 L1.2 7.58 L1.2 2.25 L0 0 L0 0" stroke="none" stroke-width="0" fill="#4285f4" fill-rule="evenodd"></path><path d="M0 0 C0.43 -0.82, 0.86 -1.64, 1.1 -2.09 M0 0 C0.43 -0.82, 0.86 -1.64, 1.1 -2.09 M1.1 -2.09 C1.1 -6.06, 1.1 -10.02, 1.1 -12.51 M1.1 -2.09 C1.1 -5.94, 1.1 -9.79, 1.1 -12.51 M1.1 -12.51 C0.58 -12.1, 0.06 -11.7, -0.65 -11.16 M1.1 -12.51 C0.42 -11.98, -0.26 -11.45, -0.65 -11.16 M-0.65 -11.16 C-0.65 -11.16, -0.65 -11.16, -0.65 -11.16 M-0.65 -11.16 C-0.65 -11.16, -0.65 -11.16, -0.65 -11.16 M-0.65 -11.16 C-0.9 -10.95, -1.15 -10.75, -1.36 -10.59 M-0.65 -11.16 C-0.82 -11.01, -1 -10.87, -1.36 -10.59 M-1.36 -10.59 C-1.58 -10.4, -1.81 -10.2, -2.07 -9.97 M-1.36 -10.59 C-1.51 -10.46, -1.66 -10.33, -2.07 -9.97 M-2.07 -9.97 C-2.3 -9.75, -2.53 -9.53, -2.77 -9.31 M-2.07 -9.97 C-2.25 -9.8, -2.44 -9.63, -2.77 -9.31 M-2.77 -9.31 C-3.04 -9.03, -3.31 -8.75, -3.46 -8.59 M-2.77 -9.31 C-2.97 -9.11, -3.16 -8.91, -3.46 -8.59 M-3.46 -8.59 C-3.67 -8.35, -3.89 -8.11, -4.13 -7.83 M-3.46 -8.59 C-3.6 -8.44, -3.74 -8.28, -4.13 -7.83 M-4.13 -7.83 C-4.35 -7.55, -4.58 -7.27, -4.77 -7.03 M-4.13 -7.83 C-4.32 -7.6, -4.5 -7.37, -4.77 -7.03 M-4.77 -7.03 C-4.93 -6.81, -5.08 -6.6, -5.37 -6.19 M-4.77 -7.03 C-4.92 -6.81, -5.08 -6.6, -5.37 -6.19 M-5.37 -6.19 C-5.55 -5.91, -5.73 -5.63, -5.94 -5.31 M-5.37 -6.19 C-5.57 -5.88, -5.77 -5.58, -5.94 -5.31 M-5.94 -5.31 C-6.05 -5.1, -6.17 -4.9, -6.46 -4.39 M-5.94 -5.31 C-6.08 -5.06, -6.22 -4.8, -6.46 -4.39 M-6.46 -4.39 C-6.59 -4.12, -6.72 -3.84, -6.92 -3.43 M-6.46 -4.39 C-6.59 -4.12, -6.72 -3.85, -6.92 -3.43 M-6.92 -3.43 C-7.05 -3.12, -7.18 -2.8, -7.32 -2.45 M-6.92 -3.43 C-7.04 -3.13, -7.16 -2.84, -7.32 -2.45 M-7.32 -2.45 C-7.41 -2.2, -7.49 -1.95, -7.66 -1.43 M-7.32 -2.45 C-7.45 -2.05, -7.58 -1.66, -7.66 -1.43 M-7.66 -1.43 C-7.76 -1.02, -7.87 -0.61, -7.92 -0.38 M-7.66 -1.43 C-7.74 -1.13, -7.81 -0.84, -7.92 -0.38 M-7.92 -0.38 C-7.97 -0.09, -8.02 0.2, -8.11 0.69 M-7.92 -0.38 C-7.97 -0.09, -8.02 0.21, -8.11 0.69 M-8.11 0.69 C-8.14 1.04, -8.17 1.38, -8.2 1.79 M-8.11 0.69 C-8.14 1.07, -8.17 1.44, -8.2 1.79 M-8.2 1.79 C-8.2 2.04, -8.2 2.3, -8.2 2.91 M-8.2 1.79 C-8.2 2.02, -8.2 2.26, -8.2 2.91 M-8.2 2.91 C-8.19 3.14, -8.18 3.37, -8.17 3.66 M-8.2 2.91 C-8.19 3.13, -8.18 3.35, -8.17 3.66 M-8.17 3.66 C-8.15 3.84, -8.13 4.02, -8.09 4.39 M-8.17 3.66 C-8.14 3.94, -8.11 4.22, -8.09 4.39 M-8.09 4.39 C-8.06 4.55, -8.03 4.72, -7.97 5.11 M-8.09 4.39 C-8.05 4.64, -8 4.89, -7.97 5.11 M-7.97 5.11 C-7.92 5.32, -7.87 5.52, -7.8 5.83 M-7.97 5.11 C-7.93 5.28, -7.89 5.45, -7.8 5.83 M-7.8 5.83 C-7.75 6.01, -7.7 6.18, -7.59 6.53 M-7.8 5.83 C-7.72 6.11, -7.64 6.38, -7.59 6.53 M-7.59 6.53 C-7.51 6.76, -7.43 6.99, -7.35 7.22 M-7.59 6.53 C-7.51 6.77, -7.43 7, -7.35 7.22 M-7.35 7.22 C-7.29 7.36, -7.23 7.5, -7.06 7.89 M-7.35 7.22 C-7.26 7.43, -7.17 7.64, -7.06 7.89 M-7.06 7.89 C-6.99 8.03, -6.92 8.17, -6.74 8.54 M-7.06 7.89 C-6.96 8.1, -6.85 8.31, -6.74 8.54 M-6.74 8.54 C-6.65 8.7, -6.55 8.87, -6.38 9.17 M-6.74 8.54 C-6.64 8.72, -6.53 8.91, -6.38 9.17 M-6.38 9.17 C-6.3 9.3, -6.21 9.43, -5.98 9.78 M-6.38 9.17 C-6.25 9.37, -6.12 9.57, -5.98 9.78 M-5.98 9.78 C-5.81 10.02, -5.64 10.25, -5.55 10.37 M-5.98 9.78 C-5.87 9.94, -5.75 10.11, -5.55 10.37 M-5.55 10.37 C-5.46 10.48, -5.36 10.6, -5.09 10.93 M-5.55 10.37 C-5.39 10.57, -5.22 10.77, -5.09 10.93 M-5.09 10.93 C-4.91 11.12, -4.73 11.31, -4.59 11.47 M-5.09 10.93 C-4.93 11.1, -4.77 11.28, -4.59 11.47 M-4.59 11.47 C-4.4 11.65, -4.22 11.82, -4.05 11.98 M-4.59 11.47 C-4.41 11.64, -4.24 11.8, -4.05 11.98 M-4.05 11.98 C-3.89 12.12, -3.72 12.26, -3.49 12.46 M-4.05 11.98 C-3.9 12.11, -3.75 12.23, -3.49 12.46 M-3.49 12.46 C-3.26 12.63, -3.03 12.81, -2.89 12.91 M-3.49 12.46 C-3.36 12.56, -3.22 12.66, -2.89 12.91 M-2.89 12.91 C-2.84 12.94, -2.78 12.97, -2.72 13 M-2.89 12.91 C-2.85 12.93, -2.81 12.95, -2.72 13 M-2.72 13 C-2.3 12.32, -1.88 11.64, -1.58 11.16 M-2.72 13 C-2.32 12.35, -1.91 11.69, -1.58 11.16 M-1.58 11.16 C-1.64 11.12, -1.7 11.08, -1.73 11.06 M-1.58 11.16 C-1.64 11.12, -1.69 11.09, -1.73 11.06 M-1.73 11.06 C-1.73 11.06, -1.73 11.06, -1.73 11.06 M-1.73 11.06 C-1.73 11.06, -1.73 11.06, -1.73 11.06 M-1.73 11.06 C-1.96 10.87, -2.19 10.69, -2.39 10.53 M-1.73 11.06 C-1.89 10.94, -2.04 10.81, -2.39 10.53 M-2.39 10.53 C-2.57 10.36, -2.75 10.19, -3.01 9.96 M-2.39 10.53 C-2.55 10.39, -2.7 10.24, -3.01 9.96 M-3.01 9.96 C-1.64 9.19, -0.28 8.41, 1.2 7.58 M-3.01 9.96 C-1.92 9.34, -0.83 8.72, 1.2 7.58 M1.2 7.58 C1.2 6.3, 1.2 5.02, 1.2 2.25 M1.2 7.58 C1.2 6.34, 1.2 5.09, 1.2 2.25 M1.2 2.25 C0.77 1.44, 0.34 0.63, 0 0 M1.2 2.25 C0.82 1.54, 0.44 0.83, 0 0 M0 0 C0 0, 0 0, 0 0 M0 0 C0 0, 0 0, 0 0 M0 0 C0 0, 0 0, 0 0 M0 0 C0 0, 0 0, 0 0" stroke="#00000000" stroke-width="1" fill="none"></path></g></g><mask></mask><g stroke-linecap="round"><g transform="translate(40.584472566443424 41.36228275299061) rotate(0 -2.4556808471679688 -2.055917739868164)" fill-rule="evenodd"><path d="M0 0 L0 4 L-3.31 5.92 L-3.31 5.92 L-3.68 5.31 L-3.99 4.68 L-4.26 4.03 L-4.49 3.36 L-4.67 2.68 L-4.8 1.99 L-4.88 1.29 L-4.91 0.59 L-4.88 -0.17 L-4.81 -0.92 L-4.71 -1.66 L-4.56 -2.4 L-4.38 -3.12 L-4.16 -3.83 L-3.91 -4.53 L-3.62 -5.22 L-3.3 -5.89 L-2.94 -6.54 L-2.55 -7.18 L-2.13 -7.79 L-1.68 -8.39 L-1.19 -8.96 L-0.68 -9.51 L-0.13 -10.03 L-0.13 -4.84 L-2.68 0 L0 0" stroke="none" stroke-width="0" fill="#4285f4" fill-rule="evenodd"></path><path d="M0 0 C0 1.19, 0 2.38, 0 4 M0 0 C0 1.14, 0 2.29, 0 4 M0 4 C-1.05 4.6, -2.09 5.21, -3.31 5.92 M0 4 C-1.19 4.69, -2.39 5.38, -3.31 5.92 M-3.31 5.92 C-3.31 5.92, -3.31 5.92, -3.31 5.92 M-3.31 5.92 C-3.31 5.92, -3.31 5.92, -3.31 5.92 M-3.31 5.92 C-3.42 5.74, -3.53 5.56, -3.68 5.31 M-3.31 5.92 C-3.44 5.71, -3.56 5.5, -3.68 5.31 M-3.68 5.31 C-3.79 5.09, -3.9 4.86, -3.99 4.68 M-3.68 5.31 C-3.78 5.1, -3.89 4.88, -3.99 4.68 M-3.99 4.68 C-4.08 4.47, -4.17 4.26, -4.26 4.03 M-3.99 4.68 C-4.09 4.44, -4.19 4.2, -4.26 4.03 M-4.26 4.03 C-4.32 3.86, -4.38 3.69, -4.49 3.36 M-4.26 4.03 C-4.34 3.8, -4.42 3.58, -4.49 3.36 M-4.49 3.36 C-4.56 3.11, -4.62 2.85, -4.67 2.68 M-4.49 3.36 C-4.53 3.22, -4.57 3.07, -4.67 2.68 M-4.67 2.68 C-4.71 2.48, -4.74 2.28, -4.8 1.99 M-4.67 2.68 C-4.7 2.49, -4.74 2.29, -4.8 1.99 M-4.8 1.99 C-4.83 1.75, -4.85 1.51, -4.88 1.29 M-4.8 1.99 C-4.83 1.73, -4.86 1.47, -4.88 1.29 M-4.88 1.29 C-4.89 1.07, -4.9 0.85, -4.91 0.59 M-4.88 1.29 C-4.89 1.04, -4.9 0.79, -4.91 0.59 M-4.91 0.59 C-4.9 0.36, -4.89 0.13, -4.88 -0.17 M-4.91 0.59 C-4.9 0.35, -4.89 0.1, -4.88 -0.17 M-4.88 -0.17 C-4.87 -0.34, -4.85 -0.51, -4.81 -0.92 M-4.88 -0.17 C-4.86 -0.39, -4.84 -0.61, -4.81 -0.92 M-4.81 -0.92 C-4.77 -1.21, -4.73 -1.5, -4.71 -1.66 M-4.81 -0.92 C-4.79 -1.07, -4.77 -1.23, -4.71 -1.66 M-4.71 -1.66 C-4.67 -1.87, -4.63 -2.07, -4.56 -2.4 M-4.71 -1.66 C-4.67 -1.84, -4.64 -2.02, -4.56 -2.4 M-4.56 -2.4 C-4.5 -2.66, -4.43 -2.92, -4.38 -3.12 M-4.56 -2.4 C-4.49 -2.67, -4.43 -2.94, -4.38 -3.12 M-4.38 -3.12 C-4.31 -3.36, -4.24 -3.59, -4.16 -3.83 M-4.38 -3.12 C-4.31 -3.34, -4.25 -3.56, -4.16 -3.83 M-4.16 -3.83 C-4.1 -4.01, -4.04 -4.18, -3.91 -4.53 M-4.16 -3.83 C-4.1 -4.01, -4.04 -4.18, -3.91 -4.53 M-3.91 -4.53 C-3.85 -4.68, -3.79 -4.82, -3.62 -5.22 M-3.91 -4.53 C-3.85 -4.68, -3.78 -4.83, -3.62 -5.22 M-3.62 -5.22 C-3.53 -5.41, -3.44 -5.59, -3.3 -5.89 M-3.62 -5.22 C-3.54 -5.38, -3.47 -5.54, -3.3 -5.89 M-3.3 -5.89 C-3.17 -6.13, -3.04 -6.37, -2.94 -6.54 M-3.3 -5.89 C-3.21 -6.05, -3.12 -6.21, -2.94 -6.54 M-2.94 -6.54 C-2.8 -6.77, -2.66 -7, -2.55 -7.18 M-2.94 -6.54 C-2.84 -6.71, -2.74 -6.87, -2.55 -7.18 M-2.55 -7.18 C-2.39 -7.42, -2.22 -7.67, -2.13 -7.79 M-2.55 -7.18 C-2.43 -7.36, -2.31 -7.54, -2.13 -7.79 M-2.13 -7.79 C-2.04 -7.91, -1.95 -8.03, -1.68 -8.39 M-2.13 -7.79 C-1.96 -8.02, -1.79 -8.24, -1.68 -8.39 M-1.68 -8.39 C-1.51 -8.58, -1.35 -8.78, -1.19 -8.96 M-1.68 -8.39 C-1.58 -8.5, -1.48 -8.62, -1.19 -8.96 M-1.19 -8.96 C-0.99 -9.17, -0.79 -9.39, -0.68 -9.51 M-1.19 -8.96 C-1 -9.16, -0.81 -9.37, -0.68 -9.51 M-0.68 -9.51 C-0.48 -9.7, -0.28 -9.89, -0.13 -10.03 M-0.68 -9.51 C-0.54 -9.64, -0.4 -9.77, -0.13 -10.03 M-0.13 -10.03 C-0.13 -8.45, -0.13 -6.87, -0.13 -4.84 M-0.13 -10.03 C-0.13 -7.96, -0.13 -5.88, -0.13 -4.84 M-0.13 -4.84 C-0.87 -3.45, -1.6 -2.06, -2.68 0 M-0.13 -4.84 C-0.77 -3.63, -1.4 -2.43, -2.68 0 M-2.68 0 C-2.11 0, -1.53 0, 0 0 M-2.68 0 C-1.87 0, -1.05 0, 0 0 M0 0 C0 0, 0 0, 0 0 M0 0 C0 0, 0 0, 0 0" stroke="#00000000" stroke-width="1" fill="none"></path></g></g><mask></mask><g stroke-linecap="round"><g transform="translate(40.584472566443424 41.36228275299061) rotate(0 -2.4556808471679688 -2.055917739868164)" fill-rule="evenodd"><path d="M0 0 L0 4 L-3.31 5.92 L-3.31 5.92 L-3.68 5.31 L-3.99 4.68 L-4.26 4.03 L-4.49 3.36 L-4.67 2.68 L-4.8 1.99 L-4.88 1.29 L-4.91 0.59 L-4.88 -0.17 L-4.81 -0.92 L-4.71 -1.66 L-4.56 -2.4 L-4.38 -3.12 L-4.16 -3.83 L-3.91 -4.53 L-3.62 -5.22 L-3.3 -5.89 L-2.94 -6.54 L-2.55 -7.18 L-2.13 -7.79 L-1.68 -8.39 L-1.19 -8.96 L-0.68 -9.51 L-0.13 -10.03 L-0.13 -4.84 L-2.68 0 L0 0" stroke="none" stroke-width="0" fill="#fff" fill-rule="evenodd"></path><path d="M0 0 C0 1.33, 0 2.67, 0 4 M0 0 C0 0.9, 0 1.8, 0 4 M0 4 C-1.18 4.68, -2.36 5.37, -3.31 5.92 M0 4 C-0.79 4.46, -1.59 4.92, -3.31 5.92 M-3.31 5.92 C-3.31 5.92, -3.31 5.92, -3.31 5.92 M-3.31 5.92 C-3.31 5.92, -3.31 5.92, -3.31 5.92 M-3.31 5.92 C-3.43 5.72, -3.55 5.51, -3.68 5.31 M-3.31 5.92 C-3.4 5.77, -3.49 5.62, -3.68 5.31 M-3.68 5.31 C-3.79 5.07, -3.91 4.84, -3.99 4.68 M-3.68 5.31 C-3.77 5.11, -3.87 4.91, -3.99 4.68 M-3.99 4.68 C-4.09 4.45, -4.18 4.23, -4.26 4.03 M-3.99 4.68 C-4.09 4.46, -4.18 4.24, -4.26 4.03 M-4.26 4.03 C-4.31 3.89, -4.36 3.75, -4.49 3.36 M-4.26 4.03 C-4.31 3.89, -4.36 3.76, -4.49 3.36 M-4.49 3.36 C-4.54 3.18, -4.59 3, -4.67 2.68 M-4.49 3.36 C-4.53 3.22, -4.56 3.08, -4.67 2.68 M-4.67 2.68 C-4.72 2.41, -4.77 2.14, -4.8 1.99 M-4.67 2.68 C-4.71 2.45, -4.75 2.22, -4.8 1.99 M-4.8 1.99 C-4.82 1.78, -4.85 1.57, -4.88 1.29 M-4.8 1.99 C-4.82 1.84, -4.83 1.69, -4.88 1.29 M-4.88 1.29 C-4.89 1.04, -4.9 0.78, -4.91 0.59 M-4.88 1.29 C-4.89 1.04, -4.9 0.78, -4.91 0.59 M-4.91 0.59 C-4.9 0.37, -4.89 0.14, -4.88 -0.17 M-4.91 0.59 C-4.9 0.33, -4.89 0.07, -4.88 -0.17 M-4.88 -0.17 C-4.86 -0.43, -4.83 -0.69, -4.81 -0.92 M-4.88 -0.17 C-4.85 -0.46, -4.83 -0.76, -4.81 -0.92 M-4.81 -0.92 C-4.79 -1.08, -4.77 -1.25, -4.71 -1.66 M-4.81 -0.92 C-4.79 -1.09, -4.76 -1.26, -4.71 -1.66 M-4.71 -1.66 C-4.67 -1.84, -4.63 -2.02, -4.56 -2.4 M-4.71 -1.66 C-4.67 -1.85, -4.63 -2.04, -4.56 -2.4 M-4.56 -2.4 C-4.51 -2.61, -4.46 -2.82, -4.38 -3.12 M-4.56 -2.4 C-4.5 -2.63, -4.44 -2.87, -4.38 -3.12 M-4.38 -3.12 C-4.3 -3.38, -4.23 -3.63, -4.16 -3.83 M-4.38 -3.12 C-4.33 -3.28, -4.28 -3.44, -4.16 -3.83 M-4.16 -3.83 C-4.1 -4.02, -4.03 -4.2, -3.91 -4.53 M-4.16 -3.83 C-4.07 -4.09, -3.98 -4.34, -3.91 -4.53 M-3.91 -4.53 C-3.84 -4.71, -3.76 -4.89, -3.62 -5.22 M-3.91 -4.53 C-3.82 -4.74, -3.73 -4.95, -3.62 -5.22 M-3.62 -5.22 C-3.52 -5.43, -3.42 -5.64, -3.3 -5.89 M-3.62 -5.22 C-3.54 -5.4, -3.45 -5.57, -3.3 -5.89 M-3.3 -5.89 C-3.19 -6.1, -3.07 -6.31, -2.94 -6.54 M-3.3 -5.89 C-3.17 -6.13, -3.04 -6.37, -2.94 -6.54 M-2.94 -6.54 C-2.8 -6.78, -2.65 -7.02, -2.55 -7.18 M-2.94 -6.54 C-2.85 -6.69, -2.77 -6.83, -2.55 -7.18 M-2.55 -7.18 C-2.39 -7.42, -2.22 -7.66, -2.13 -7.79 M-2.55 -7.18 C-2.39 -7.42, -2.23 -7.66, -2.13 -7.79 M-2.13 -7.79 C-1.95 -8.03, -1.77 -8.26, -1.68 -8.39 M-2.13 -7.79 C-2.01 -7.95, -1.89 -8.11, -1.68 -8.39 M-1.68 -8.39 C-1.53 -8.57, -1.38 -8.75, -1.19 -8.96 M-1.68 -8.39 C-1.58 -8.51, -1.48 -8.63, -1.19 -8.96 M-1.19 -8.96 C-1.05 -9.11, -0.91 -9.26, -0.68 -9.51 M-1.19 -8.96 C-1.06 -9.1, -0.93 -9.24, -0.68 -9.51 M-0.68 -9.51 C-0.57 -9.62, -0.45 -9.73, -0.13 -10.03 M-0.68 -9.51 C-0.46 -9.72, -0.25 -9.92, -0.13 -10.03 M-0.13 -10.03 C-0.13 -8.27, -0.13 -6.5, -0.13 -4.84 M-0.13 -10.03 C-0.13 -8.54, -0.13 -7.05, -0.13 -4.84 M-0.13 -4.84 C-1.12 -2.97, -2.11 -1.09, -2.68 0 M-0.13 -4.84 C-1.04 -3.12, -1.94 -1.41, -2.68 0 M-2.68 0 C-1.99 0, -1.3 0, 0 0 M-2.68 0 C-1.84 0, -1 0, 0 0 M0 0 C0 0, 0 0, 0 0 M0 0 C0 0, 0 0, 0 0" stroke="#00000000" stroke-width="1" fill="none"></path></g></g><mask></mask><g stroke-linecap="round"><g transform="translate(38.73795309622858 54.82093811035145) rotate(0 -5.091951251029968 -6.710290908813477)" fill-rule="evenodd"><path d="M0 0 L0 0 L-0.93 -0.52 L-1.82 -1.1 L-2.65 -1.74 L-3.43 -2.44 L-4.15 -3.18 L-4.82 -3.97 L-5.43 -4.81 L-5.98 -5.68 L-6.46 -6.59 L-6.88 -7.54 L-7.24 -8.51 L-7.52 -9.51 L-7.73 -10.54 L-7.87 -11.58 L-7.93 -12.64 L-7.92 -13.71 L-7.92 -15.8 L-10.17 -15.8 L-10.17 -13.71 L-10.17 -13.71 L-10.18 -12.43 L-10.11 -11.17 L-9.93 -9.93 L-9.67 -8.72 L-9.32 -7.54 L-8.88 -6.39 L-8.36 -5.28 L-7.76 -4.21 L-7.08 -3.19 L-6.32 -2.22 L-5.5 -1.31 L-4.6 -0.46 L-3.64 0.33 L-2.61 1.04 L-1.53 1.68 L-0.38 2.25 L-0.02 2.38" stroke="none" stroke-width="0" fill="#aecbfa" fill-rule="evenodd"></path><path d="M0 0 C0 0, 0 0, 0 0 M0 0 C0 0, 0 0, 0 0 M0 0 C-0.23 -0.13, -0.45 -0.25, -0.93 -0.52 M0 0 C-0.29 -0.16, -0.58 -0.33, -0.93 -0.52 M-0.93 -0.52 C-1.13 -0.65, -1.33 -0.78, -1.82 -1.1 M-0.93 -0.52 C-1.22 -0.71, -1.51 -0.9, -1.82 -1.1 M-1.82 -1.1 C-2.05 -1.28, -2.28 -1.46, -2.65 -1.74 M-1.82 -1.1 C-2.02 -1.26, -2.23 -1.42, -2.65 -1.74 M-2.65 -1.74 C-2.88 -1.95, -3.11 -2.15, -3.43 -2.44 M-2.65 -1.74 C-2.89 -1.95, -3.13 -2.17, -3.43 -2.44 M-3.43 -2.44 C-3.67 -2.68, -3.9 -2.92, -4.15 -3.18 M-3.43 -2.44 C-3.66 -2.68, -3.9 -2.92, -4.15 -3.18 M-4.15 -3.18 C-4.39 -3.45, -4.62 -3.73, -4.82 -3.97 M-4.15 -3.18 C-4.35 -3.41, -4.54 -3.64, -4.82 -3.97 M-4.82 -3.97 C-4.99 -4.2, -5.16 -4.43, -5.43 -4.81 M-4.82 -3.97 C-4.99 -4.2, -5.15 -4.42, -5.43 -4.81 M-5.43 -4.81 C-5.63 -5.12, -5.83 -5.44, -5.98 -5.68 M-5.43 -4.81 C-5.65 -5.15, -5.86 -5.49, -5.98 -5.68 M-5.98 -5.68 C-6.09 -5.89, -6.2 -6.1, -6.46 -6.59 M-5.98 -5.68 C-6.15 -6, -6.31 -6.31, -6.46 -6.59 M-6.46 -6.59 C-6.56 -6.8, -6.65 -7.01, -6.88 -7.54 M-6.46 -6.59 C-6.63 -6.96, -6.79 -7.33, -6.88 -7.54 M-6.88 -7.54 C-6.97 -7.78, -7.06 -8.03, -7.24 -8.51 M-6.88 -7.54 C-6.97 -7.77, -7.05 -8.01, -7.24 -8.51 M-7.24 -8.51 C-7.34 -8.89, -7.45 -9.26, -7.52 -9.51 M-7.24 -8.51 C-7.31 -8.78, -7.39 -9.05, -7.52 -9.51 M-7.52 -9.51 C-7.57 -9.75, -7.62 -9.98, -7.73 -10.54 M-7.52 -9.51 C-7.6 -9.92, -7.69 -10.32, -7.73 -10.54 M-7.73 -10.54 C-7.78 -10.93, -7.84 -11.33, -7.87 -11.58 M-7.73 -10.54 C-7.77 -10.84, -7.81 -11.13, -7.87 -11.58 M-7.87 -11.58 C-7.9 -12, -7.92 -12.42, -7.93 -12.64 M-7.87 -11.58 C-7.89 -11.86, -7.9 -12.14, -7.93 -12.64 M-7.93 -12.64 C-7.93 -13.04, -7.92 -13.44, -7.92 -13.71 M-7.93 -12.64 C-7.93 -12.95, -7.92 -13.26, -7.92 -13.71 M-7.92 -13.71 C-7.92 -14.18, -7.92 -14.65, -7.92 -15.8 M-7.92 -13.71 C-7.92 -14.26, -7.92 -14.81, -7.92 -15.8 M-7.92 -15.8 C-8.8 -15.8, -9.67 -15.8, -10.17 -15.8 M-7.92 -15.8 C-8.41 -15.8, -8.9 -15.8, -10.17 -15.8 M-10.17 -15.8 C-10.17 -15.12, -10.17 -14.43, -10.17 -13.71 M-10.17 -15.8 C-10.17 -15.33, -10.17 -14.85, -10.17 -13.71 M-10.17 -13.71 C-10.17 -13.71, -10.17 -13.71, -10.17 -13.71 M-10.17 -13.71 C-10.17 -13.71, -10.17 -13.71, -10.17 -13.71 M-10.17 -13.71 C-10.17 -13.26, -10.18 -12.82, -10.18 -12.43 M-10.17 -13.71 C-10.17 -13.29, -10.18 -12.87, -10.18 -12.43 M-10.18 -12.43 C-10.17 -12.14, -10.15 -11.85, -10.11 -11.17 M-10.18 -12.43 C-10.15 -11.93, -10.12 -11.43, -10.11 -11.17 M-10.11 -11.17 C-10.06 -10.82, -10.01 -10.47, -9.93 -9.93 M-10.11 -11.17 C-10.04 -10.71, -9.98 -10.24, -9.93 -9.93 M-9.93 -9.93 C-9.86 -9.62, -9.8 -9.3, -9.67 -8.72 M-9.93 -9.93 C-9.87 -9.63, -9.8 -9.33, -9.67 -8.72 M-9.67 -8.72 C-9.55 -8.3, -9.42 -7.88, -9.32 -7.54 M-9.67 -8.72 C-9.56 -8.34, -9.44 -7.96, -9.32 -7.54 M-9.32 -7.54 C-9.18 -7.18, -9.04 -6.81, -8.88 -6.39 M-9.32 -7.54 C-9.22 -7.29, -9.13 -7.04, -8.88 -6.39 M-8.88 -6.39 C-8.71 -6.02, -8.54 -5.65, -8.36 -5.28 M-8.88 -6.39 C-8.7 -6, -8.52 -5.61, -8.36 -5.28 M-8.36 -5.28 C-8.14 -4.89, -7.92 -4.5, -7.76 -4.21 M-8.36 -5.28 C-8.14 -4.9, -7.93 -4.51, -7.76 -4.21 M-7.76 -4.21 C-7.61 -3.99, -7.46 -3.76, -7.08 -3.19 M-7.76 -4.21 C-7.5 -3.83, -7.25 -3.45, -7.08 -3.19 M-7.08 -3.19 C-6.87 -2.92, -6.66 -2.66, -6.32 -2.22 M-7.08 -3.19 C-6.91 -2.97, -6.73 -2.75, -6.32 -2.22 M-6.32 -2.22 C-6.03 -1.89, -5.73 -1.56, -5.5 -1.31 M-6.32 -2.22 C-6.04 -1.9, -5.75 -1.58, -5.5 -1.31 M-5.5 -1.31 C-5.23 -1.06, -4.97 -0.81, -4.6 -0.46 M-5.5 -1.31 C-5.18 -1, -4.85 -0.7, -4.6 -0.46 M-4.6 -0.46 C-4.27 -0.19, -3.94 0.08, -3.64 0.33 M-4.6 -0.46 C-4.25 -0.17, -3.89 0.12, -3.64 0.33 M-3.64 0.33 C-3.26 0.59, -2.88 0.86, -2.61 1.04 M-3.64 0.33 C-3.26 0.6, -2.87 0.86, -2.61 1.04 M-2.61 1.04 C-2.3 1.23, -1.98 1.41, -1.53 1.68 M-2.61 1.04 C-2.22 1.27, -1.83 1.5, -1.53 1.68 M-1.53 1.68 C-1.27 1.81, -1.01 1.94, -0.38 2.25 M-1.53 1.68 C-1.2 1.84, -0.88 2, -0.38 2.25 M-0.38 2.25 C-0.25 2.29, -0.12 2.34, -0.02 2.38 M-0.38 2.25 C-0.24 2.3, -0.11 2.35, -0.02 2.38 M-0.02 2.38 C-0.01 1.7, -0.01 1.02, 0 0 M-0.02 2.38 C-0.01 1.5, 0 0.62, 0 0" stroke="#00000000" stroke-width="1" fill="none"></path></g></g><mask></mask></svg>