<svg xmlns="http://www.w3.org/2000/svg" viewBox="2268.92 995.48 161.32 138.91" width="161" height="139"><ellipse cx="2309.49" cy="1059.20" rx="5.04" ry="5.04" stroke="#669df6" stroke-width="1" opacity="1.0" fill="#aecbfa"/><ellipse cx="2332.55" cy="1058.72" rx="5.04" ry="5.04" stroke="#669df6" stroke-width="1" opacity="1.0" fill="#aecbfa"/><ellipse cx="2355.60" cy="1058.84" rx="5.04" ry="5.04" stroke="#669df6" stroke-width="1" opacity="1.0" fill="#aecbfa"/><polyline points="2309.08,1013.37 2275.18,1047.99 2275.48,1024.90 2297.61,1001.89 2309.08,1013.37" fill="none" stroke="#669df6" stroke-width="1" opacity="1.0" stroke-linecap="round" stroke-linejoin="round"/><polyline points="2274.92,1082.30 2308.82,1116.92 2308.53,1093.83 2286.40,1070.82 2274.92,1082.30" fill="none" stroke="#669df6" stroke-width="1" opacity="1.0" stroke-linecap="round" stroke-linejoin="round" transform="rotate(180.00 2291.87 1105.35)"/><polyline points="2292.27,1030.39 2291.99,1087.70 2275.36,1072.39 2275.59,1047.65 2292.27,1030.39" fill="none" stroke="#1864ab" stroke-width="1" opacity="1.0" stroke-linecap="round" stroke-linejoin="round"/><polyline points="2355.46,1012.96 2389.36,1047.59 2389.06,1024.50 2366.93,1001.48 2355.46,1012.96" fill="none" stroke="#669df6" stroke-width="1" opacity="1.0" stroke-linecap="round" stroke-linejoin="round"/><polyline points="2390.35,1081.21 2356.44,1115.83 2356.74,1092.74 2378.87,1069.73 2390.35,1081.21" fill="none" stroke="#669df6" stroke-width="1" opacity="1.0" stroke-linecap="round" stroke-linejoin="round" transform="rotate(180.00 2407.30 1104.26)"/><polyline points="2372.51,1030.35 2372.79,1087.66 2389.43,1072.35 2389.19,1047.61 2372.51,1030.35" fill="none" stroke="#1864ab" stroke-width="1" opacity="1.0" stroke-linecap="round" stroke-linejoin="round"/></svg>