<svg xmlns="http://www.w3.org/2000/svg" viewBox="-253.00 -27.69 172.00 84.00" width="172" height="84"><rect x="-247.00" y="-21.69" width="160.00" height="72.00" rx="0" stroke="#4285f4" stroke-width="2" opacity="1.0" fill="#FFF"/><text x="-182.00" y="12.31" font-size="12" fill="#000000" opacity="1.0" font-family="sans-serif">Cloud Data
Fusion</text><polyline points="-222.50,8.98 -217.17,8.98 -217.17,3.64 -226.50,3.64 -226.50,3.64 -227.44,4.03 -227.83,4.98 -227.83,26.31 -227.83,26.31 -227.46,27.22 -222.50,22.31 -222.50,8.98" fill="#aecbfa" stroke="none" stroke-width="1" opacity="1.0" stroke-linecap="round" stroke-linejoin="round"/><polyline points="-209.17,22.31 -204.21,27.27 -204.21,27.27 -203.83,26.31 -203.83,16.98 -209.17,16.98 -209.17,22.31" fill="#4285f4" stroke="none" stroke-width="1" opacity="1.0" stroke-linecap="round" stroke-linejoin="round"/><polyline points="-201.55,1.35 -206.50,6.31 -206.50,6.31 -206.50,11.64 -201.17,11.64 -201.17,2.31 -201.17,2.31 -201.55,1.35 -201.55,1.35" fill="#669df6" stroke="none" stroke-width="1" opacity="1.0" stroke-linecap="round" stroke-linejoin="round"/><polyline points="-206.50,6.31 -201.54,1.35 -201.54,1.35 -202.50,0.98 -211.83,0.98 -211.83,6.31 -206.50,6.31" fill="#aecbfa" stroke="none" stroke-width="1" opacity="1.0" stroke-linecap="round" stroke-linejoin="round"/><polyline points="-227.83,27.64 -222.50,22.31 -209.17,22.31 -203.83,27.64 -227.83,27.64 -227.83,27.64" fill="#669df6" stroke="none" stroke-width="1" opacity="1.0" stroke-linecap="round" stroke-linejoin="round"/></svg>