<svg xmlns="http://www.w3.org/2000/svg" viewBox="242.82 1105.48 250.91 232.83" width="251" height="233"><polyline points="315.92,1190.65 315.92,1190.65 316.74,1190.69 317.54,1190.81 318.31,1191.01 319.04,1191.27 319.74,1191.61 320.40,1192.01 321.02,1192.47 321.59,1192.98 322.10,1193.55 322.56,1194.17 322.96,1194.83 323.30,1195.53 323.57,1196.26 323.76,1197.03 323.88,1197.83 323.92,1198.65 323.88,1199.47 323.76,1200.26 323.57,1201.03 323.30,1201.77 322.96,1202.46 322.56,1203.12 322.10,1203.74 321.59,1204.31 321.02,1204.82 320.40,1205.28 319.74,1205.68 319.04,1206.02 318.31,1206.29 317.54,1206.48 316.74,1206.60 315.92,1206.65 315.10,1206.60 314.31,1206.48 313.54,1206.29 312.81,1206.02 312.11,1205.68 311.45,1205.28 310.83,1204.82 310.26,1204.31 309.75,1203.74 309.29,1203.12 308.89,1202.46 308.55,1201.77 308.28,1201.03 308.09,1200.26 307.97,1199.47 307.92,1198.65 307.97,1197.83 308.09,1197.03 308.28,1196.26 308.55,1195.53 308.89,1194.83 309.29,1194.17 309.75,1193.55 310.26,1192.98 310.83,1192.47 311.45,1192.01 312.11,1191.61 312.81,1191.27 313.54,1191.01 314.31,1190.81 315.10,1190.69 315.92,1190.65 315.92,1190.65" fill="#669df6" stroke="#000000" stroke-width="1" opacity="1.0" stroke-linecap="round" stroke-linejoin="round"/><polyline points="315.92,1183.60 315.92,1183.60 314.39,1183.67 312.89,1183.88 311.45,1184.25 310.06,1184.74 308.74,1185.37 307.50,1186.11 306.34,1186.97 305.26,1187.94 304.29,1189.00 303.41,1190.16 302.65,1191.39 302.01,1192.70 301.49,1194.08 301.11,1195.52 300.88,1197.02 300.79,1198.55 300.85,1200.09 301.07,1201.59 301.43,1203.03 301.93,1204.42 302.55,1205.73 303.30,1206.98 304.16,1208.14 305.12,1209.22 306.19,1210.19 307.34,1211.07 308.58,1211.83 309.89,1212.47 311.27,1212.98 312.71,1213.36 314.20,1213.60 315.74,1213.69 317.28,1213.63 318.77,1213.41 320.22,1213.05 321.60,1212.55 322.92,1211.92 324.16,1211.18 325.33,1210.32 326.40,1209.35 327.38,1208.29 328.25,1207.14 329.01,1205.90 329.65,1204.59 330.17,1203.21 330.55,1201.77 330.79,1200.28 330.88,1198.74 330.88,1198.65 330.88,1198.65 330.81,1197.12 330.60,1195.63 330.24,1194.20 329.74,1192.83 329.12,1191.52 328.38,1190.28 327.52,1189.12 326.56,1188.05 325.51,1187.08 324.36,1186.21 323.13,1185.46 321.83,1184.82 320.46,1184.31 319.03,1183.93 317.54,1183.69 316.02,1183.60 315.92,1183.60 315.92,1183.60" fill="#669df6" stroke="#000000" stroke-width="1" opacity="1.0" stroke-linecap="round" stroke-linejoin="round"/><polyline points="263.96,1190.65 263.96,1190.65 264.78,1190.69 265.57,1190.81 266.34,1191.01 267.08,1191.27 267.78,1191.61 268.44,1192.01 269.05,1192.47 269.62,1192.98 270.13,1193.55 270.59,1194.17 270.99,1194.83 271.33,1195.53 271.60,1196.26 271.79,1197.03 271.92,1197.83 271.96,1198.65 271.92,1199.47 271.79,1200.26 271.60,1201.03 271.33,1201.77 270.99,1202.46 270.59,1203.12 270.13,1203.74 269.62,1204.31 269.05,1204.82 268.44,1205.28 267.78,1205.68 267.08,1206.02 266.34,1206.29 265.57,1206.48 264.78,1206.60 263.96,1206.65 263.14,1206.60 262.34,1206.48 261.57,1206.29 260.84,1206.02 260.14,1205.68 259.48,1205.28 258.86,1204.82 258.30,1204.31 257.78,1203.74 257.32,1203.12 256.92,1202.46 256.58,1201.77 256.32,1201.03 256.12,1200.26 256.00,1199.47 255.96,1198.65 255.99,1197.83 256.11,1197.03 256.30,1196.26 256.57,1195.53 256.91,1194.83 257.31,1194.17 257.77,1193.55 258.28,1192.98 258.85,1192.47 259.47,1192.01 260.13,1191.61 260.83,1191.27 261.57,1191.01 262.34,1190.81 263.14,1190.69 263.96,1190.65 263.96,1190.65" fill="#669df6" stroke="#000000" stroke-width="1" opacity="1.0" stroke-linecap="round" stroke-linejoin="round"/><polyline points="263.96,1183.60 263.96,1183.60 262.42,1183.67 260.92,1183.88 259.48,1184.25 258.10,1184.74 256.78,1185.37 255.53,1186.11 254.37,1186.97 253.30,1187.94 252.32,1189.00 251.45,1190.16 250.68,1191.39 250.04,1192.70 249.53,1194.08 249.15,1195.52 248.91,1197.02 248.82,1198.55 248.89,1200.09 249.10,1201.59 249.46,1203.03 249.96,1204.42 250.59,1205.73 251.33,1206.98 252.19,1208.14 253.16,1209.22 254.22,1210.19 255.37,1211.07 256.61,1211.83 257.92,1212.47 259.30,1212.98 260.74,1213.36 262.23,1213.60 263.77,1213.69 265.31,1213.63 266.81,1213.41 268.25,1213.05 269.63,1212.55 270.95,1211.92 272.20,1211.18 273.36,1210.32 274.43,1209.35 275.41,1208.29 276.28,1207.14 277.05,1205.90 277.69,1204.59 278.20,1203.21 278.58,1201.77 278.82,1200.28 278.91,1198.74 278.91,1198.65 278.91,1198.65 278.84,1197.12 278.63,1195.63 278.27,1194.20 277.77,1192.83 277.15,1191.52 276.41,1190.28 275.55,1189.12 274.60,1188.05 273.54,1187.08 272.39,1186.21 271.16,1185.46 269.86,1184.82 268.49,1184.31 267.06,1183.93 265.58,1183.69 264.05,1183.60 263.96,1183.60 263.96,1183.60" fill="#669df6" stroke="#000000" stroke-width="1" opacity="1.0" stroke-linecap="round" stroke-linejoin="round"/><polyline points="290.69,1237.35 290.69,1237.35 291.51,1237.39 292.31,1237.52 293.08,1237.71 293.81,1237.98 294.51,1238.32 295.17,1238.72 295.79,1239.19 296.36,1239.70 296.87,1240.27 297.33,1240.89 297.73,1241.55 298.07,1242.25 298.34,1242.98 298.53,1243.75 298.65,1244.54 298.69,1245.35 298.65,1246.17 298.53,1246.97 298.34,1247.74 298.07,1248.47 297.73,1249.17 297.33,1249.83 296.87,1250.45 296.36,1251.01 295.79,1251.53 295.17,1251.99 294.51,1252.39 293.81,1252.73 293.08,1252.99 292.31,1253.19 291.51,1253.31 290.69,1253.35 289.87,1253.31 289.08,1253.19 288.31,1252.99 287.58,1252.73 286.88,1252.39 286.22,1251.99 285.60,1251.53 285.03,1251.01 284.52,1250.45 284.06,1249.83 283.66,1249.17 283.32,1248.47 283.05,1247.74 282.86,1246.97 282.74,1246.17 282.69,1245.35 282.73,1244.54 282.85,1243.75 283.04,1242.98 283.31,1242.25 283.64,1241.55 284.04,1240.89 284.50,1240.27 285.02,1239.70 285.59,1239.19 286.21,1238.72 286.87,1238.32 287.57,1237.98 288.31,1237.71 289.08,1237.52 289.87,1237.39 290.69,1237.35 290.69,1237.35 290.69,1237.35" fill="#669df6" stroke="#000000" stroke-width="1" opacity="1.0" stroke-linecap="round" stroke-linejoin="round"/><polyline points="290.69,1230.40 290.69,1230.40 289.16,1230.47 287.66,1230.69 286.22,1231.06 284.83,1231.55 283.52,1232.18 282.27,1232.93 281.11,1233.79 280.04,1234.75 279.06,1235.81 278.19,1236.96 277.43,1238.20 276.79,1239.51 276.28,1240.88 275.90,1242.32 275.67,1243.82 275.59,1245.35 275.66,1246.89 275.88,1248.39 276.24,1249.83 276.74,1251.21 277.37,1252.53 278.11,1253.77 278.97,1254.94 279.94,1256.01 281.00,1256.99 282.15,1257.86 283.39,1258.62 284.70,1259.25 286.07,1259.77 287.51,1260.14 289.00,1260.38 290.54,1260.46 292.08,1260.39 293.57,1260.17 295.02,1259.80 296.40,1259.30 297.72,1258.68 298.96,1257.93 300.13,1257.07 301.20,1256.11 302.17,1255.05 303.04,1253.90 303.80,1252.66 304.44,1251.35 304.95,1249.97 305.33,1248.54 305.56,1247.04 305.65,1245.51 305.58,1244.01 305.37,1242.53 305.02,1241.09 304.52,1239.70 303.89,1238.37 303.13,1237.10 302.25,1235.91 301.25,1234.80 300.15,1233.81 298.97,1232.93 297.72,1232.18 296.40,1231.55 295.03,1231.05 293.61,1230.69 292.16,1230.47 290.69,1230.40 290.69,1230.40" fill="#669df6" stroke="#000000" stroke-width="1" opacity="1.0" stroke-linecap="round" stroke-linejoin="round"/><polyline points="290.69,1144.80 290.69,1144.80 291.51,1144.87 292.30,1145.02 293.07,1145.24 293.79,1145.54 294.48,1145.90 295.13,1146.32 295.73,1146.80 296.28,1147.34 296.77,1147.92 297.21,1148.55 297.59,1149.23 297.90,1149.94 298.14,1150.68 298.31,1151.46 298.40,1152.26 298.42,1153.08 298.35,1153.90 298.20,1154.69 297.98,1155.45 297.68,1156.18 297.32,1156.86 296.90,1157.51 296.42,1158.11 295.88,1158.66 295.30,1159.16 294.67,1159.59 293.99,1159.97 293.28,1160.28 292.54,1160.53 291.76,1160.70 290.96,1160.79 290.14,1160.80 289.34,1160.73 288.57,1160.59 287.83,1160.38 287.12,1160.09 286.44,1159.75 285.80,1159.34 285.21,1158.88 284.66,1158.36 284.16,1157.79 283.72,1157.19 283.33,1156.53 283.01,1155.85 282.75,1155.13 282.55,1154.38 282.43,1153.60 282.39,1152.80 282.44,1151.98 282.57,1151.17 282.78,1150.40 283.06,1149.66 283.41,1148.96 283.83,1148.29 284.30,1147.68 284.83,1147.11 285.41,1146.59 286.04,1146.13 286.71,1145.73 287.42,1145.40 288.16,1145.14 288.94,1144.95 289.75,1144.83 290.57,1144.80 290.69,1144.80 290.69,1144.80" fill="#669df6" stroke="#000000" stroke-width="1" opacity="1.0" stroke-linecap="round" stroke-linejoin="round"/><polyline points="290.69,1137.79 290.69,1137.79 289.16,1137.86 287.66,1138.08 286.22,1138.44 284.83,1138.94 283.52,1139.57 282.27,1140.31 281.11,1141.17 280.04,1142.14 279.06,1143.20 278.19,1144.35 277.43,1145.58 276.79,1146.89 276.28,1148.27 275.90,1149.71 275.67,1151.20 275.59,1152.74 275.66,1154.28 275.88,1155.77 276.24,1157.22 276.74,1158.60 277.37,1159.92 278.11,1161.16 278.97,1162.32 279.94,1163.40 281.00,1164.37 282.15,1165.24 283.39,1166.00 284.70,1166.64 286.07,1167.15 287.51,1167.53 289.00,1167.76 290.54,1167.85 292.08,1167.78 293.57,1167.55 295.02,1167.19 296.40,1166.69 297.72,1166.07 298.96,1165.32 300.13,1164.46 301.20,1163.50 302.17,1162.44 303.04,1161.28 303.80,1160.05 304.44,1158.74 304.95,1157.36 305.33,1155.92 305.56,1154.43 305.65,1152.89 305.58,1151.39 305.37,1149.92 305.02,1148.48 304.52,1147.09 303.89,1145.76 303.13,1144.49 302.25,1143.29 301.25,1142.19 300.15,1141.21 298.97,1140.34 297.72,1139.60 296.40,1138.98 295.03,1138.50 293.61,1138.15 292.16,1137.94 290.69,1137.88 290.69,1137.79 290.69,1137.79" fill="#669df6" stroke="#000000" stroke-width="1" opacity="1.0" stroke-linecap="round" stroke-linejoin="round"/><polyline points="315.92,1190.65 315.92,1190.65 316.74,1190.69 317.54,1190.81 318.31,1191.01 319.04,1191.27 319.74,1191.61 320.40,1192.01 321.02,1192.47 321.59,1192.98 322.10,1193.55 322.56,1194.17 322.96,1194.83 323.30,1195.53 323.57,1196.26 323.76,1197.03 323.88,1197.83 323.92,1198.65 323.88,1199.47 323.76,1200.26 323.57,1201.03 323.30,1201.77 322.96,1202.46 322.56,1203.12 322.10,1203.74 321.59,1204.31 321.02,1204.82 320.40,1205.28 319.74,1205.68 319.04,1206.02 318.31,1206.29 317.54,1206.48 316.74,1206.60 315.92,1206.65 315.10,1206.60 314.31,1206.48 313.54,1206.29 312.81,1206.02 312.11,1205.68 311.45,1205.28 310.83,1204.82 310.26,1204.31 309.75,1203.74 309.29,1203.12 308.89,1202.46 308.55,1201.77 308.28,1201.03 308.09,1200.26 307.97,1199.47 307.92,1198.65 307.97,1197.83 308.09,1197.03 308.28,1196.26 308.55,1195.53 308.89,1194.83 309.29,1194.17 309.75,1193.55 310.26,1192.98 310.83,1192.47 311.45,1192.01 312.11,1191.61 312.81,1191.27 313.54,1191.01 314.31,1190.81 315.10,1190.69 315.92,1190.65 315.92,1190.65" fill="#fff" stroke="#000000" stroke-width="1" opacity="1.0" stroke-linecap="round" stroke-linejoin="round"/><polyline points="263.96,1190.65 263.96,1190.65 264.78,1190.69 265.57,1190.81 266.34,1191.01 267.08,1191.27 267.78,1191.61 268.44,1192.01 269.05,1192.47 269.62,1192.98 270.13,1193.55 270.59,1194.17 270.99,1194.83 271.33,1195.53 271.60,1196.26 271.79,1197.03 271.92,1197.83 271.96,1198.65 271.92,1199.47 271.79,1200.26 271.60,1201.03 271.33,1201.77 270.99,1202.46 270.59,1203.12 270.13,1203.74 269.62,1204.31 269.05,1204.82 268.44,1205.28 267.78,1205.68 267.08,1206.02 266.34,1206.29 265.57,1206.48 264.78,1206.60 263.96,1206.65 263.14,1206.60 262.34,1206.48 261.57,1206.29 260.84,1206.02 260.14,1205.68 259.48,1205.28 258.86,1204.82 258.30,1204.31 257.78,1203.74 257.32,1203.12 256.92,1202.46 256.58,1201.77 256.32,1201.03 256.12,1200.26 256.00,1199.47 255.96,1198.65 255.99,1197.83 256.11,1197.03 256.30,1196.26 256.57,1195.53 256.91,1194.83 257.31,1194.17 257.77,1193.55 258.28,1192.98 258.85,1192.47 259.47,1192.01 260.13,1191.61 260.83,1191.27 261.57,1191.01 262.34,1190.81 263.14,1190.69 263.96,1190.65 263.96,1190.65" fill="#fff" stroke="#000000" stroke-width="1" opacity="1.0" stroke-linecap="round" stroke-linejoin="round"/><polyline points="290.69,1237.35 290.69,1237.35 291.51,1237.39 292.31,1237.52 293.08,1237.71 293.81,1237.98 294.51,1238.32 295.17,1238.72 295.79,1239.19 296.36,1239.70 296.87,1240.27 297.33,1240.89 297.73,1241.55 298.07,1242.25 298.34,1242.98 298.53,1243.75 298.65,1244.54 298.69,1245.35 298.65,1246.17 298.53,1246.97 298.34,1247.74 298.07,1248.47 297.73,1249.17 297.33,1249.83 296.87,1250.45 296.36,1251.01 295.79,1251.53 295.17,1251.99 294.51,1252.39 293.81,1252.73 293.08,1252.99 292.31,1253.19 291.51,1253.31 290.69,1253.35 289.87,1253.31 289.08,1253.19 288.31,1252.99 287.58,1252.73 286.88,1252.39 286.22,1251.99 285.60,1251.53 285.03,1251.01 284.52,1250.45 284.06,1249.83 283.66,1249.17 283.32,1248.47 283.05,1247.74 282.86,1246.97 282.74,1246.17 282.69,1245.35 282.73,1244.54 282.85,1243.75 283.04,1242.98 283.31,1242.25 283.64,1241.55 284.04,1240.89 284.50,1240.27 285.02,1239.70 285.59,1239.19 286.21,1238.72 286.87,1238.32 287.57,1237.98 288.31,1237.71 289.08,1237.52 289.87,1237.39 290.69,1237.35 290.69,1237.35 290.69,1237.35" fill="#fff" stroke="#000000" stroke-width="1" opacity="1.0" stroke-linecap="round" stroke-linejoin="round"/><polyline points="290.69,1144.80 290.69,1144.80 291.51,1144.87 292.30,1145.02 293.07,1145.24 293.79,1145.54 294.48,1145.90 295.13,1146.32 295.73,1146.80 296.28,1147.34 296.77,1147.92 297.21,1148.55 297.59,1149.23 297.90,1149.94 298.14,1150.68 298.31,1151.46 298.40,1152.26 298.42,1153.08 298.35,1153.90 298.20,1154.69 297.98,1155.45 297.68,1156.18 297.32,1156.86 296.90,1157.51 296.42,1158.11 295.88,1158.66 295.30,1159.16 294.67,1159.59 293.99,1159.97 293.28,1160.28 292.54,1160.53 291.76,1160.70 290.96,1160.79 290.14,1160.80 289.34,1160.73 288.57,1160.59 287.83,1160.38 287.12,1160.09 286.44,1159.75 285.80,1159.34 285.21,1158.88 284.66,1158.36 284.16,1157.79 283.72,1157.19 283.33,1156.53 283.01,1155.85 282.75,1155.13 282.55,1154.38 282.43,1153.60 282.39,1152.80 282.44,1151.98 282.57,1151.17 282.78,1150.40 283.06,1149.66 283.41,1148.96 283.83,1148.29 284.30,1147.68 284.83,1147.11 285.41,1146.59 286.04,1146.13 286.71,1145.73 287.42,1145.40 288.16,1145.14 288.94,1144.95 289.75,1144.83 290.57,1144.80 290.69,1144.80 290.69,1144.80" fill="#fff" stroke="#000000" stroke-width="1" opacity="1.0" stroke-linecap="round" stroke-linejoin="round"/><polyline points="317.52,1111.48 332.29,1111.48 332.29,1287.41 317.52,1287.41 317.52,1111.48" fill="#4285f4" stroke="#000000" stroke-width="1" opacity="1.0" stroke-linecap="round" stroke-linejoin="round"/><polyline points="366.69,1136.71 327.00,1136.71 327.00,1136.71 326.40,1136.88 325.87,1137.15 325.39,1137.52 325.00,1137.96 324.69,1138.46 324.47,1139.01 324.36,1139.60 324.36,1140.22 324.36,1165.02 324.36,1165.02 324.36,1165.63 324.47,1166.22 324.69,1166.76 325.00,1167.26 325.39,1167.68 325.87,1168.03 326.40,1168.28 327.00,1168.43 366.66,1168.43 366.66,1168.43 367.27,1168.29 367.82,1168.04 368.31,1167.69 368.72,1167.27 369.05,1166.77 369.27,1166.22 369.40,1165.63 369.40,1165.02 369.40,1140.31 369.40,1140.31 369.42,1139.67 369.31,1139.06 369.09,1138.49 368.77,1137.97 368.36,1137.52 367.87,1137.15 367.31,1136.87 366.69,1136.71 366.69,1136.71" fill="#4285f4" stroke="#000000" stroke-width="1" opacity="1.0" stroke-linecap="round" stroke-linejoin="round"/><polyline points="404.69,1183.26 331.49,1183.26 331.49,1183.26 330.50,1183.33 329.57,1183.54 328.73,1183.86 328.00,1184.28 327.41,1184.79 326.95,1185.37 326.67,1186.00 326.57,1186.68 326.57,1211.48 326.57,1211.48 326.67,1212.18 326.95,1212.84 327.41,1213.44 328.00,1213.96 328.73,1214.39 329.57,1214.71 330.50,1214.91 331.49,1214.98 404.69,1214.98 404.69,1214.98 405.69,1214.91 406.62,1214.70 407.45,1214.36 408.18,1213.92 408.78,1213.40 409.23,1212.80 409.51,1212.16 409.61,1211.48 409.61,1186.68 409.61,1186.68 409.51,1185.97 409.23,1185.33 408.77,1184.75 408.17,1184.24 407.44,1183.83 406.60,1183.52 405.68,1183.33 404.69,1183.26 404.69,1183.26" fill="#4285f4" stroke="#000000" stroke-width="1" opacity="1.0" stroke-linecap="round" stroke-linejoin="round"/><polyline points="352.69,1229.69 321.65,1229.69 321.65,1229.69 321.23,1229.76 320.85,1229.97 320.50,1230.29 320.21,1230.71 319.96,1231.21 319.77,1231.79 319.66,1232.43 319.62,1233.11 319.62,1257.94 319.62,1257.94 319.66,1258.64 319.77,1259.29 319.96,1259.87 320.21,1260.37 320.50,1260.78 320.85,1261.09 321.23,1261.28 321.65,1261.35 352.69,1261.35 352.69,1261.35 353.11,1261.28 353.50,1261.08 353.86,1260.76 354.18,1260.34 354.44,1259.83 354.64,1259.25 354.77,1258.61 354.82,1257.94 354.82,1233.14 354.82,1233.14 354.74,1232.43 354.60,1231.78 354.40,1231.20 354.15,1230.69 353.84,1230.27 353.49,1229.96 353.11,1229.76 352.69,1229.69 352.69,1229.69" fill="#4285f4" stroke="#000000" stroke-width="1" opacity="1.0" stroke-linecap="round" stroke-linejoin="round"/><text x="259.95" y="1327.74" font-size="33.4285714285714" fill="#000000" opacity="1.0" font-family="sans-serif">Dataprep</text></svg>