<svg version="1.1" xmlns="http://www.w3.org/2000/svg" viewBox="0 0 173.4105931520471 254.91059309244156" width="173.4105931520471" height="254.91059309244156">
  <!-- svg-source:excalidraw -->
  
  <defs>
    
    
  </defs>
  <g stroke-linecap="round"><g transform="translate(76.4570365975951 6) rotate(0 7.828554628343749 15.657118566205355)" fill-rule="evenodd"><path d="M0 0 L15.66 0 L15.66 31.31 L0 31.31 L0 0" stroke="none" stroke-width="0" fill="#669df6" fill-rule="evenodd"></path><path d="M0 0 C4.98 0, 9.95 0, 15.66 0 M0 0 C5.16 0, 10.32 0, 15.66 0 M15.66 0 C15.66 9.4, 15.66 18.8, 15.66 31.31 M15.66 0 C15.66 10.53, 15.66 21.05, 15.66 31.31 M15.66 31.31 C12.52 31.31, 9.39 31.31, 0 31.31 M15.66 31.31 C11.89 31.31, 8.12 31.31, 0 31.31 M0 31.31 C0 19.86, 0 8.41, 0 0 M0 31.31 C0 21.81, 0 12.3, 0 0 M0 0 C0 0, 0 0, 0 0 M0 0 C0 0, 0 0, 0 0" stroke="#000000" stroke-width="1" fill="none"></path></g></g><mask></mask><g stroke-linecap="round"><g transform="translate(45.14279753907704 6) rotate(0 7.828559764629468 15.657118566205355)" fill-rule="evenodd"><path d="M0 0 L15.66 0 L15.66 31.31 L0 31.31 L0 0" stroke="none" stroke-width="0" fill="#669df6" fill-rule="evenodd"></path><path d="M0 0 C5.2 0, 10.41 0, 15.66 0 M0 0 C3.92 0, 7.84 0, 15.66 0 M15.66 0 C15.66 11.1, 15.66 22.21, 15.66 31.31 M15.66 0 C15.66 8.17, 15.66 16.33, 15.66 31.31 M15.66 31.31 C11.36 31.31, 7.07 31.31, 0 31.31 M15.66 31.31 C11.42 31.31, 7.17 31.31, 0 31.31 M0 31.31 C0 20.98, 0 10.64, 0 0 M0 31.31 C0 21.4, 0 11.49, 0 0 M0 0 C0 0, 0 0, 0 0 M0 0 C0 0, 0 0, 0 0" stroke="#000000" stroke-width="1" fill="none"></path></g></g><mask></mask><g stroke-linecap="round"><g transform="translate(107.77127051982734 6) rotate(0 7.8285571964866065 15.657118566205355)" fill-rule="evenodd"><path d="M0 0 L15.66 0 L15.66 31.31 L0 31.31 L0 0" stroke="none" stroke-width="0" fill="#669df6" fill-rule="evenodd"></path><path d="M0 0 C3.95 0, 7.9 0, 15.66 0 M0 0 C5.27 0, 10.54 0, 15.66 0 M15.66 0 C15.66 10.08, 15.66 20.17, 15.66 31.31 M15.66 0 C15.66 8.66, 15.66 17.32, 15.66 31.31 M15.66 31.31 C11.19 31.31, 6.73 31.31, 0 31.31 M15.66 31.31 C10.21 31.31, 4.77 31.31, 0 31.31 M0 31.31 C0 19.06, 0 6.81, 0 0 M0 31.31 C0 20.14, 0 8.97, 0 0 M0 0 C0 0, 0 0, 0 0 M0 0 C0 0, 0 0, 0 0" stroke="#000000" stroke-width="1" fill="none"></path></g></g><mask></mask><g stroke-linecap="round"><g transform="translate(76.4570365975951 131.25694660353452) rotate(0 7.828554628343749 15.657119529258921)" fill-rule="evenodd"><path d="M0 0 L15.66 0 L15.66 31.31 L0 31.31 L0 0" stroke="none" stroke-width="0" fill="#4285f4" fill-rule="evenodd"></path><path d="M0 0 C5.01 0, 10.02 0, 15.66 0 M0 0 C3.22 0, 6.44 0, 15.66 0 M15.66 0 C15.66 9.17, 15.66 18.34, 15.66 31.31 M15.66 0 C15.66 10.37, 15.66 20.73, 15.66 31.31 M15.66 31.31 C11.45 31.31, 7.25 31.31, 0 31.31 M15.66 31.31 C11.3 31.31, 6.94 31.31, 0 31.31 M0 31.31 C0 21.19, 0 11.08, 0 0 M0 31.31 C0 19.65, 0 7.98, 0 0 M0 0 C0 0, 0 0, 0 0 M0 0 C0 0, 0 0, 0 0" stroke="#000000" stroke-width="1" fill="none"></path></g></g><mask></mask><g stroke-linecap="round"><g transform="translate(45.14279753907704 131.25694660353452) rotate(0 7.828559764629468 15.657119529258921)" fill-rule="evenodd"><path d="M0 0 L15.66 0 L15.66 31.31 L0 31.31 L0 0" stroke="none" stroke-width="0" fill="#4285f4" fill-rule="evenodd"></path><path d="M0 0 C3.14 0, 6.28 0, 15.66 0 M0 0 C5.74 0, 11.47 0, 15.66 0 M15.66 0 C15.66 7.64, 15.66 15.29, 15.66 31.31 M15.66 0 C15.66 6.44, 15.66 12.88, 15.66 31.31 M15.66 31.31 C11.72 31.31, 7.79 31.31, 0 31.31 M15.66 31.31 C10.51 31.31, 5.36 31.31, 0 31.31 M0 31.31 C0 21.29, 0 11.26, 0 0 M0 31.31 C0 19.01, 0 6.71, 0 0 M0 0 C0 0, 0 0, 0 0 M0 0 C0 0, 0 0, 0 0" stroke="#000000" stroke-width="1" fill="none"></path></g></g><mask></mask><g stroke-linecap="round"><g transform="translate(107.77127051982734 131.25694660353452) rotate(0 7.8285571964866065 15.657119529258921)" fill-rule="evenodd"><path d="M0 0 L15.66 0 L15.66 31.31 L0 31.31 L0 0" stroke="none" stroke-width="0" fill="#4285f4" fill-rule="evenodd"></path><path d="M0 0 C5.05 0, 10.1 0, 15.66 0 M0 0 C3.74 0, 7.47 0, 15.66 0 M15.66 0 C15.66 11.19, 15.66 22.37, 15.66 31.31 M15.66 0 C15.66 6.56, 15.66 13.12, 15.66 31.31 M15.66 31.31 C10.89 31.31, 6.12 31.31, 0 31.31 M15.66 31.31 C12.03 31.31, 8.41 31.31, 0 31.31 M0 31.31 C0 22.52, 0 13.73, 0 0 M0 31.31 C0 23, 0 14.69, 0 0 M0 0 C0 0, 0 0, 0 0 M0 0 C0 0, 0 0, 0 0" stroke="#000000" stroke-width="1" fill="none"></path></g></g><mask></mask><g stroke-linecap="round"><g transform="translate(131.25694724557434 76.45703595555847) rotate(0 15.657119529258933 7.828554628343738)" fill-rule="evenodd"><path d="M0 0 L31.31 0 L31.31 15.66 L0 15.66 L0 0" stroke="none" stroke-width="0" fill="#4285f4" fill-rule="evenodd"></path><path d="M0 0 C8.57 0, 17.13 0, 31.31 0 M0 0 C12.25 0, 24.5 0, 31.31 0 M31.31 0 C31.31 5.37, 31.31 10.75, 31.31 15.66 M31.31 0 C31.31 5.53, 31.31 11.07, 31.31 15.66 M31.31 15.66 C21.32 15.66, 11.32 15.66, 0 15.66 M31.31 15.66 C23.67 15.66, 16.03 15.66, 0 15.66 M0 15.66 C0 9.47, 0 3.29, 0 0 M0 15.66 C0 9.82, 0 3.99, 0 0 M0 0 C0 0, 0 0, 0 0 M0 0 C0 0, 0 0, 0 0" stroke="#000000" stroke-width="1" fill="none"></path></g></g><mask></mask><g stroke-linecap="round"><g transform="translate(131.25694724557434 107.77126987779093) rotate(0 15.657119529258933 7.828557196486599)" fill-rule="evenodd"><path d="M0 0 L31.31 0 L31.31 15.66 L0 15.66 L0 0" stroke="none" stroke-width="0" fill="#4285f4" fill-rule="evenodd"></path><path d="M0 0 C10.32 0, 20.64 0, 31.31 0 M0 0 C9.4 0, 18.8 0, 31.31 0 M31.31 0 C31.31 5.26, 31.31 10.53, 31.31 15.66 M31.31 0 C31.31 3.14, 31.31 6.27, 31.31 15.66 M31.31 15.66 C23.77 15.66, 16.23 15.66, 0 15.66 M31.31 15.66 C19.86 15.66, 8.41 15.66, 0 15.66 M0 15.66 C0 10.9, 0 6.15, 0 0 M0 15.66 C0 11.89, 0 8.13, 0 0 M0 0 C0 0, 0 0, 0 0 M0 0 C0 0, 0 0, 0 0" stroke="#000000" stroke-width="1" fill="none"></path></g></g><mask></mask><g stroke-linecap="round"><g transform="translate(131.25694724557434 45.14279689703881) rotate(0 15.657119529258933 7.8285597646294605)" fill-rule="evenodd"><path d="M0 0 L31.31 0 L31.31 15.66 L0 15.66 L0 0" stroke="none" stroke-width="0" fill="#4285f4" fill-rule="evenodd"></path><path d="M0 0 C7.84 0, 15.68 0, 31.31 0 M0 0 C11.1 0, 22.21 0, 31.31 0 M31.31 0 C31.31 4.08, 31.31 8.17, 31.31 15.66 M31.31 0 C31.31 4.29, 31.31 8.59, 31.31 15.66 M31.31 15.66 C22.83 15.66, 14.35 15.66, 0 15.66 M31.31 15.66 C20.98 15.66, 10.64 15.66, 0 15.66 M0 15.66 C0 10.7, 0 5.75, 0 0 M0 15.66 C0 9.59, 0 3.52, 0 0 M0 0 C0 0, 0 0, 0 0 M0 0 C0 0, 0 0, 0 0" stroke="#000000" stroke-width="1" fill="none"></path></g></g><mask></mask><g stroke-linecap="round"><g transform="translate(6 76.45703595555847) rotate(0 15.65711760315179 7.828554628343738)" fill-rule="evenodd"><path d="M0 0 L31.31 0 L31.31 15.66 L0 15.66 L0 0" stroke="none" stroke-width="0" fill="#669df6" fill-rule="evenodd"></path><path d="M0 0 C10.54 0, 21.08 0, 31.31 0 M0 0 C10.08 0, 20.17 0, 31.31 0 M31.31 0 C31.31 4.33, 31.31 8.66, 31.31 15.66 M31.31 0 C31.31 4.47, 31.31 8.93, 31.31 15.66 M31.31 15.66 C20.43 15.66, 9.54 15.66, 0 15.66 M31.31 15.66 C19.06 15.66, 6.81 15.66, 0 15.66 M0 15.66 C0 10.07, 0 4.48, 0 0 M0 15.66 C0 10.74, 0 5.83, 0 0 M0 0 C0 0, 0 0, 0 0 M0 0 C0 0, 0 0, 0 0" stroke="#000000" stroke-width="1" fill="none"></path></g></g><mask></mask><g stroke-linecap="round"><g transform="translate(6 107.77126987779093) rotate(0 15.65711760315179 7.828557196486599)" fill-rule="evenodd"><path d="M0 0 L31.31 0 L31.31 15.66 L0 15.66 L0 0" stroke="none" stroke-width="0" fill="#669df6" fill-rule="evenodd"></path><path d="M0 0 C6.44 0, 12.89 0, 31.31 0 M0 0 C9.17 0, 18.34 0, 31.31 0 M31.31 0 C31.31 5.18, 31.31 10.37, 31.31 15.66 M31.31 0 C31.31 4.2, 31.31 8.41, 31.31 15.66 M31.31 15.66 C22.6 15.66, 13.88 15.66, 0 15.66 M31.31 15.66 C21.19 15.66, 11.08 15.66, 0 15.66 M0 15.66 C0 9.82, 0 3.99, 0 0 M0 15.66 C0 11.24, 0 6.83, 0 0 M0 0 C0 0, 0 0, 0 0 M0 0 C0 0, 0 0, 0 0" stroke="#000000" stroke-width="1" fill="none"></path></g></g><mask></mask><g stroke-linecap="round"><g transform="translate(6 45.14279689703881) rotate(0 15.65711760315179 7.8285597646294605)" fill-rule="evenodd"><path d="M0 0 L31.31 0 L31.31 15.66 L0 15.66 L0 0" stroke="none" stroke-width="0" fill="#669df6" fill-rule="evenodd"></path><path d="M0 0 C11.47 0, 22.94 0, 31.31 0 M0 0 C7.64 0, 15.29 0, 31.31 0 M31.31 0 C31.31 3.22, 31.31 6.44, 31.31 15.66 M31.31 0 C31.31 3.94, 31.31 7.87, 31.31 15.66 M31.31 15.66 C21.02 15.66, 10.72 15.66, 0 15.66 M31.31 15.66 C21.29 15.66, 11.26 15.66, 0 15.66 M0 15.66 C0 9.51, 0 3.36, 0 0 M0 15.66 C0 12.51, 0 9.37, 0 0 M0 0 C0 0, 0 0, 0 0 M0 0 C0 0, 0 0, 0 0" stroke="#000000" stroke-width="1" fill="none"></path></g></g><mask></mask><g stroke-linecap="round"><g transform="translate(29.48567800982437 29.485677367780454) rotate(0 54.799915784263405 54.79991578426342)" fill-rule="evenodd"><path d="M0 0 L0 109.6 L109.6 109.6 L109.6 0 L0 0 L0 0" stroke="none" stroke-width="0" fill="#aecbfa" fill-rule="evenodd"></path><path d="M0 0 C0 26.16, 0 52.31, 0 109.6 M0 0 C0 39.15, 0 78.31, 0 109.6 M0 109.6 C22.95 109.6, 45.91 109.6, 109.6 109.6 M0 109.6 C33.38 109.6, 66.76 109.6, 109.6 109.6 M109.6 109.6 C109.6 84.24, 109.6 58.88, 109.6 0 M109.6 109.6 C109.6 78.82, 109.6 48.04, 109.6 0 M109.6 0 C80.5 0, 51.41 0, 0 0 M109.6 0 C68.64 0, 27.68 0, 0 0 M0 0 C0 0, 0 0, 0 0 M0 0 C0 0, 0 0, 0 0 M0 0 C0 0, 0 0, 0 0 M0 0 C0 0, 0 0, 0 0" stroke="#000000" stroke-width="1" fill="none"></path></g></g><mask></mask><g stroke-linecap="round"><g transform="translate(123.42838491280054 123.42838427076208) rotate(0 -39.14279368686164 -39.14279368686164)" fill-rule="evenodd"><path d="M0 0 L-78.29 0 L-78.29 -78.29 L0 -78.29 L0 0 L0 0" stroke="none" stroke-width="0" fill="#aecbfa" fill-rule="evenodd"></path><path d="M0 0 C-30.63 0, -61.26 0, -78.29 0 M0 0 C-26.87 0, -53.74 0, -78.29 0 M-78.29 0 C-78.29 -27.67, -78.29 -55.35, -78.29 -78.29 M-78.29 0 C-78.29 -24.99, -78.29 -49.98, -78.29 -78.29 M-78.29 -78.29 C-59.18 -78.29, -40.08 -78.29, 0 -78.29 M-78.29 -78.29 C-47.37 -78.29, -16.45 -78.29, 0 -78.29 M0 -78.29 C0 -49.11, 0 -19.94, 0 0 M0 -78.29 C0 -51.34, 0 -24.4, 0 0 M0 0 C0 0, 0 0, 0 0 M0 0 C0 0, 0 0, 0 0 M0 0 C0 0, 0 0, 0 0 M0 0 C0 0, 0 0, 0 0" stroke="#000000" stroke-width="1" fill="none"></path></g></g><mask></mask><g stroke-linecap="round"><g transform="translate(123.42838491280054 123.42838427076208) rotate(0 -39.14279368686164 -39.14279368686164)" fill-rule="evenodd"><path d="M0 0 L-78.29 0 L-78.29 -78.29 L0 -78.29 L0 0 L0 0" stroke="none" stroke-width="0" fill="#fff" fill-rule="evenodd"></path><path d="M0 0 C-23.5 0, -47 0, -78.29 0 M0 0 C-26.32 0, -52.64 0, -78.29 0 M-78.29 0 C-78.29 -15.68, -78.29 -31.35, -78.29 -78.29 M-78.29 0 C-78.29 -18.85, -78.29 -37.71, -78.29 -78.29 M-78.29 -78.29 C-49.65 -78.29, -21.02 -78.29, 0 -78.29 M-78.29 -78.29 C-54.52 -78.29, -30.76 -78.29, 0 -78.29 M0 -78.29 C0 -59.46, 0 -40.63, 0 0 M0 -78.29 C0 -56.56, 0 -34.84, 0 0 M0 0 C0 0, 0 0, 0 0 M0 0 C0 0, 0 0, 0 0 M0 0 C0 0, 0 0, 0 0 M0 0 C0 0, 0 0, 0 0" stroke="#000000" stroke-width="1" fill="none"></path></g></g><mask></mask><g stroke-linecap="round"><g transform="translate(60.799917068329705 60.79991642629784) rotate(0 23.485676725745535 23.48567672574552)" fill-rule="evenodd"><path d="M0 0 L46.97 0 L46.97 46.97 L0 46.97 L0 0" stroke="none" stroke-width="0" fill="#aecbfa" fill-rule="evenodd"></path><path d="M0 0 C16.65 0, 33.31 0, 46.97 0 M0 0 C12.25 0, 24.5 0, 46.97 0 M46.97 0 C46.97 12.88, 46.97 25.77, 46.97 46.97 M46.97 0 C46.97 12.72, 46.97 25.45, 46.97 46.97 M46.97 46.97 C31.47 46.97, 15.97 46.97, 0 46.97 M46.97 46.97 C32.11 46.97, 17.24 46.97, 0 46.97 M0 46.97 C0 28.76, 0 10.55, 0 0 M0 46.97 C0 35.62, 0 24.26, 0 0 M0 0 C0 0, 0 0, 0 0 M0 0 C0 0, 0 0, 0 0" stroke="#000000" stroke-width="1" fill="none"></path></g></g><mask></mask><g stroke-linecap="round"><g transform="translate(60.799917068329705 107.77126987779036) rotate(0 23.485676725745535 -11.74283836287276)" fill-rule="evenodd"><path d="M0 0 L46.97 0 L23.49 -23.49 L0 0" stroke="none" stroke-width="0" fill="#669df6" fill-rule="evenodd"></path><path d="M0 0 C15.12 0, 30.25 0, 46.97 0 M0 0 C12.99 0, 25.97 0, 46.97 0 M46.97 0 C40.27 -6.7, 33.57 -13.4, 23.49 -23.49 M46.97 0 C38.81 -8.16, 30.64 -16.33, 23.49 -23.49 M23.49 -23.49 C14.3 -14.3, 5.11 -5.11, 0 0 M23.49 -23.49 C15.11 -15.11, 6.73 -6.73, 0 0 M0 0 C0 0, 0 0, 0 0 M0 0 C0 0, 0 0, 0 0" stroke="#000000" stroke-width="1" fill="none"></path></g></g><mask></mask><g stroke-linecap="round"><g transform="translate(84.28559379407943 84.28559315204336) rotate(0 11.742838362872767 0)" fill-rule="evenodd"><path d="M0 0 L23.49 23.49 L23.49 -23.49 L0 0" stroke="none" stroke-width="0" fill="#4285f4" fill-rule="evenodd"></path><path d="M0 0 C6.88 6.88, 13.75 13.75, 23.49 23.49 M0 0 C7.78 7.78, 15.55 15.55, 23.49 23.49 M23.49 23.49 C23.49 10.87, 23.49 -1.74, 23.49 -23.49 M23.49 23.49 C23.49 10.41, 23.49 -2.67, 23.49 -23.49 M23.49 -23.49 C15.9 -15.9, 8.31 -8.31, 0 0 M23.49 -23.49 C14.74 -14.74, 5.99 -5.99, 0 0 M0 0 C0 0, 0 0, 0 0 M0 0 C0 0, 0 0, 0 0" stroke="#000000" stroke-width="1" fill="none"></path></g></g><mask></mask><g transform="translate(11.410593152047113 164.91059309244156) rotate(0 78 42)"><text x="78" y="0" font-family="Helvetica, Segoe UI Emoji" font-size="35.99999999999998px" fill="#000000" text-anchor="middle" style="white-space: pre;" direction="ltr" dominant-baseline="text-before-edge">Compute </text><text x="78" y="42" font-family="Helvetica, Segoe UI Emoji" font-size="35.99999999999998px" fill="#000000" text-anchor="middle" style="white-space: pre;" direction="ltr" dominant-baseline="text-before-edge">Engine</text></g></svg>