<svg version="1.1" xmlns="http://www.w3.org/2000/svg" viewBox="0 0 118.47981851828445 119.30580871199618" width="118.47981851828445" height="119.30580871199618">
  <!-- svg-source:excalidraw -->
  
  <defs>
    
    
  </defs>
  <g stroke-linecap="round"><g transform="translate(62.56666079144884 46.589691808525004) rotate(0 -23.289781050248507 -3.3511124835006285)" fill-rule="evenodd"><path d="M-0.35 0.03 L0.18 -7.44 L-42.95 -7.03 L-45.34 -7.06 L-45.78 -3.96 L-45.28 -0.78 L-40.78 1.06 L-0.77 1.55" stroke="none" stroke-width="0" fill="#4285f4" fill-rule="evenodd"></path><path d="M0 0 C0.01 -2.68, -0.36 -4.93, -0.06 -7.52 M0 0 C-0.05 -2.66, 0.03 -5.54, -0.06 -7.52 M-0.06 -7.52 C-12.18 -8.11, -24.31 -8.5, -42.37 -7.85 M-0.06 -7.52 C-9.58 -7.92, -19.15 -7.35, -42.37 -7.85 M-42.37 -7.85 C-43.47 -7.32, -44.77 -6.67, -45.85 -6.35 M-42.37 -7.85 C-43.34 -7.46, -44.23 -7.05, -45.85 -6.35 M-45.85 -6.35 C-46.08 -5.29, -46.47 -4.35, -46.58 -3.45 M-45.85 -6.35 C-46.13 -5.48, -46.27 -4.57, -46.58 -3.45 M-46.58 -3.45 C-46.03 -2.7, -45.68 -2.14, -44.34 -0.7 M-46.58 -3.45 C-45.98 -2.86, -45.58 -2.07, -44.34 -0.7 M-44.34 -0.7 C-42.62 -0.52, -40.85 -0.24, -39.97 0.07 M-44.34 -0.7 C-42.72 -0.33, -41.16 -0.16, -39.97 0.07 M-39.97 0.07 C-32.37 0.43, -23.04 0.17, -0.43 1.15 M-39.97 0.07 C-30.02 0.59, -21.34 0.53, -0.43 1.15 M-0.43 1.15 C-0.34 0.8, -0.1 0.31, 0 0 M-0.43 1.15 C-0.35 0.88, -0.2 0.56, 0 0" stroke="#1864ab" stroke-width="1" fill="none"></path></g></g><mask></mask><g stroke-linecap="round"><g transform="translate(62.35650715414545 63.429395017138404) rotate(0 -28.17824218121848 -3.3519157291889314)" fill-rule="evenodd"><path d="M1.49 -1.53 L0.93 -8.8 L-52.89 -7.78 L-54.96 -6.21 L-57.39 -2.43 L-53.68 -0.46 L-50.71 1.71 L-0.98 -0.67" stroke="none" stroke-width="0" fill="#4285f4" fill-rule="evenodd"></path><path d="M0 0 C0.43 -2.43, -0.67 -4.57, -0.06 -7.52 M0 0 C0.1 -1.84, 0.26 -4.11, -0.06 -7.52 M-0.06 -7.52 C-15.8 -6.7, -32.62 -7.31, -52.15 -7.86 M-0.06 -7.52 C-18.22 -7.4, -37.4 -7.58, -52.15 -7.86 M-52.15 -7.86 C-53.29 -7.31, -54.86 -6.65, -55.63 -6.35 M-52.15 -7.86 C-53.24 -7.65, -53.81 -7.2, -55.63 -6.35 M-55.63 -6.35 C-56.04 -5.19, -56.36 -4.34, -56.36 -3.45 M-55.63 -6.35 C-55.82 -5.28, -56.03 -4.44, -56.36 -3.45 M-56.36 -3.45 C-55.77 -2.16, -54.33 -1.17, -54.12 -0.71 M-56.36 -3.45 C-55.61 -2.52, -55.06 -1.86, -54.12 -0.71 M-54.12 -0.71 C-52.9 -0.2, -51.28 0.12, -49.74 0.07 M-54.12 -0.71 C-53.09 -0.35, -52.12 -0.53, -49.74 0.07 M-49.74 0.07 C-34.19 0.43, -18.83 1.74, -0.43 1.15 M-49.74 0.07 C-38.9 1.26, -29.62 -0.33, -0.43 1.15 M-0.43 1.15 C-0.38 0.92, -0.06 0.37, 0 0 M-0.43 1.15 C-0.27 0.89, -0.26 0.59, 0 0" stroke="#1864ab" stroke-width="1" fill="none"></path></g></g><mask></mask><g stroke-linecap="round"><g transform="translate(62.08252264095245 80.9906489786656) rotate(0 -23.289781050248507 -3.3511124835006285)" fill-rule="evenodd"><path d="M0.03 0.24 L-0.95 -7.47 L-41.6 -7.19 L-45.95 -6.1 L-47.18 -2.5 L-44.59 -0.44 L-39.41 0.65 L-0.29 1.67" stroke="none" stroke-width="0" fill="#4285f4" fill-rule="evenodd"></path><path d="M0 0 C0.28 -1.46, -0.02 -3.06, -0.06 -7.52 M0 0 C-0.06 -2.13, 0.01 -4.39, -0.06 -7.52 M-0.06 -7.52 C-9.48 -6.86, -19.22 -7.67, -42.37 -7.85 M-0.06 -7.52 C-10.14 -7.96, -19.77 -7.21, -42.37 -7.85 M-42.37 -7.85 C-43.35 -7.45, -44.15 -7.16, -45.85 -6.35 M-42.37 -7.85 C-43.39 -7.51, -44.32 -7.04, -45.85 -6.35 M-45.85 -6.35 C-45.96 -5.56, -46.42 -4.55, -46.58 -3.45 M-45.85 -6.35 C-46.11 -5.46, -46.24 -4.59, -46.58 -3.45 M-46.58 -3.45 C-45.8 -2.43, -45.01 -1.62, -44.34 -0.7 M-46.58 -3.45 C-45.83 -2.41, -45.03 -1.6, -44.34 -0.7 M-44.34 -0.7 C-43.01 -0.69, -41.79 -0.02, -39.97 0.07 M-44.34 -0.7 C-42.75 -0.42, -41.32 -0.21, -39.97 0.07 M-39.97 0.07 C-24.7 0.14, -9.06 1.61, -0.43 1.15 M-39.97 0.07 C-25.41 0.84, -11.49 1.01, -0.43 1.15 M-0.43 1.15 C-0.3 0.91, -0.18 0.66, 0 0 M-0.43 1.15 C-0.31 0.86, -0.25 0.59, 0 0" stroke="#1864ab" stroke-width="1" fill="none"></path></g></g><mask></mask><g stroke-linecap="round"><g transform="translate(112.47981851828422 53.8738534862257) rotate(180 -11.872654124762562 -3.185277189644239)" fill-rule="evenodd"><path d="M-0.82 0 L0.1 -7.11 L-19.67 -6.5 L-23.5 -5.17 L-23.73 -3.08 L-21.97 0.45 L-18.04 1.98 L-0.37 0.79" stroke="none" stroke-width="0" fill="#4285f4" fill-rule="evenodd"></path><path d="M0 0 C-0.32 -2.88, -0.04 -5.49, -0.06 -7.52 M0 0 C-0.15 -2.96, -0.05 -6.14, -0.06 -7.52 M-0.06 -7.52 C-7.55 -7.44, -13.72 -6.13, -19.54 -6.9 M-0.06 -7.52 C-4.39 -7.25, -9.8 -7.31, -19.54 -6.9 M-19.54 -6.9 C-20.38 -6.67, -21.25 -6.07, -23.02 -5.39 M-19.54 -6.9 C-20.34 -6.47, -20.95 -6.29, -23.02 -5.39 M-23.02 -5.39 C-23.34 -4.3, -23.36 -3.4, -23.75 -2.49 M-23.02 -5.39 C-23.23 -4.61, -23.37 -3.88, -23.75 -2.49 M-23.75 -2.49 C-22.93 -1.44, -22.27 -0.54, -21.51 0.25 M-23.75 -2.49 C-22.96 -1.53, -22.09 -0.38, -21.51 0.25 M-21.51 0.25 C-20.07 0.58, -18.24 0.82, -17.13 1.02 M-21.51 0.25 C-20.49 0.48, -19.49 0.68, -17.13 1.02 M-17.13 1.02 C-13.06 0.88, -10.32 0.93, -0.43 1.15 M-17.13 1.02 C-11.31 0.88, -4.51 1.09, -0.43 1.15 M-0.43 1.15 C-0.3 0.67, -0.1 0.32, 0 0 M-0.43 1.15 C-0.27 0.74, -0.11 0.31, 0 0" stroke="#1864ab" stroke-width="1" fill="none"></path></g></g><mask></mask><g stroke-linecap="round"><g transform="translate(112.12688828990599 71.79970059702873) rotate(180 -11.872654124762562 -3.185277189644239)" fill-rule="evenodd"><path d="M-0.88 0.78 L-0.04 -7.12 L-19.67 -6.16 L-23.62 -6.22 L-24.01 -3.27 L-21.68 0.37 L-17.25 1.36 L0.4 0.35" stroke="none" stroke-width="0" fill="#4285f4" fill-rule="evenodd"></path><path d="M0 0 C0.15 -2.17, -0.08 -4.1, -0.06 -7.52 M0 0 C0.12 -2.92, -0.09 -5.73, -0.06 -7.52 M-0.06 -7.52 C-7.02 -6.48, -13.99 -8.03, -19.54 -6.9 M-0.06 -7.52 C-4.69 -7.71, -9.76 -7.09, -19.54 -6.9 M-19.54 -6.9 C-20.97 -6.31, -22.29 -5.92, -23.02 -5.39 M-19.54 -6.9 C-20.6 -6.43, -21.81 -5.9, -23.02 -5.39 M-23.02 -5.39 C-23.24 -4.51, -23.31 -3.82, -23.75 -2.49 M-23.02 -5.39 C-23.22 -4.57, -23.5 -3.7, -23.75 -2.49 M-23.75 -2.49 C-22.92 -1.74, -22.53 -0.78, -21.51 0.25 M-23.75 -2.49 C-22.95 -1.58, -22.32 -0.77, -21.51 0.25 M-21.51 0.25 C-20.72 0.41, -19.81 0.53, -17.13 1.02 M-21.51 0.25 C-20.58 0.52, -19.62 0.61, -17.13 1.02 M-17.13 1.02 C-11.64 0.89, -5.15 0.36, -0.43 1.15 M-17.13 1.02 C-12.65 1.01, -8.57 1.01, -0.43 1.15 M-0.43 1.15 C-0.32 0.91, -0.26 0.67, 0 0 M-0.43 1.15 C-0.32 0.89, -0.26 0.62, 0 0" stroke="#1864ab" stroke-width="1" fill="none"></path></g></g><mask></mask><g stroke-linecap="round"><g transform="translate(44.07699569393321 28.36567402775154) rotate(0 18.448108491443463 31.329143160865215)" fill-rule="evenodd"><path d="M0.59 0.45 L6.56 1.56 L11.34 -6.49 L12.47 -13.14 L16.66 -15.82 L17.72 -11.77 L21.61 -10.54 L25.49 1.24 L28.97 16.43 L26.27 27.38 L26.85 44.69 L26.27 55.47 L23.32 63.49 L20.93 72.82 L18.06 74.89 L15.62 78.85 L14 77.56 L9.54 71.47 L10.68 64.67 L0.97 63.16 L1.01 69.48 L2.61 76.66 L11.63 82.46 L13.64 85.09 L19.52 83.27 L24.87 80.25 L29.02 76.05 L35.58 63.95 L35.1 50.78 L38.6 34.24 L37.28 23.1 L34.99 8.75 L32.08 -6.67 L29.03 -15.3 L23.72 -18.64 L20.01 -22.48 L12.75 -23.39 L8.15 -19.56 L5.24 -13.13 L0.23 -8.76 L-0.08 -0.17" stroke="none" stroke-width="0" fill="#4285f4" fill-rule="evenodd"></path><path d="M0 0 C2 -0.66, 4.47 0.02, 8.47 0.07 M0 0 C1.57 -0.33, 3.66 0.05, 8.47 0.07 M8.47 0.07 C9.27 -1.96, 9.23 -4.35, 10.62 -6.73 M8.47 0.07 C9.11 -2.15, 9.68 -4.17, 10.62 -6.73 M10.62 -6.73 C11.76 -8.42, 12.03 -8.77, 13.53 -11.62 M10.62 -6.73 C11.36 -7.96, 11.96 -9.53, 13.53 -11.62 M13.53 -11.62 C14.48 -12.21, 15.39 -13.48, 16.68 -14.05 M13.53 -11.62 C14.66 -12.54, 15.78 -13.56, 16.68 -14.05 M16.68 -14.05 C17.37 -13.73, 18.1 -13.33, 18.98 -12.71 M16.68 -14.05 C17.53 -13.45, 18.34 -13.16, 18.98 -12.71 M18.98 -12.71 C19.54 -11.78, 20.16 -10.42, 20.94 -9.14 M18.98 -12.71 C19.24 -12.02, 20.03 -11.16, 20.94 -9.14 M20.94 -9.14 C21.47 -7.27, 21.68 -5.19, 24.91 0.43 M20.94 -9.14 C22.66 -5.53, 23.85 -1.77, 24.91 0.43 M24.91 0.43 C25.22 4.2, 26.29 8.72, 27.35 14.43 M24.91 0.43 C25.92 3.16, 25.65 5.51, 27.35 14.43 M27.35 14.43 C27.73 17.48, 27.21 20.23, 28.2 26.95 M27.35 14.43 C27 16.88, 27.2 19.63, 28.2 26.95 M28.2 26.95 C29.08 31.33, 27.93 33.77, 28.59 43.22 M28.2 26.95 C27.51 31.56, 27.53 35.49, 28.59 43.22 M28.59 43.22 C29.18 47.03, 28.12 50.04, 26.86 54.87 M28.59 43.22 C27.76 46.19, 28.05 49.29, 26.86 54.87 M26.86 54.87 C26.4 59.1, 25.18 61.16, 24.76 64.93 M26.86 54.87 C26.26 59.29, 25.51 62.82, 24.76 64.93 M24.76 64.93 C24.68 66.28, 22.61 67.55, 21.56 72.29 M24.76 64.93 C23.74 66.67, 23.02 68.79, 21.56 72.29 M21.56 72.29 C21.46 72.67, 20.21 73.67, 19 75.69 M21.56 72.29 C20.65 73.52, 19.7 74.75, 19 75.69 M19 75.69 C18.46 75.91, 17.74 75.96, 16.36 76.95 M19 75.69 C18.23 75.98, 17.13 76.6, 16.36 76.95 M16.36 76.95 C15.97 76.96, 15.28 76.6, 13.14 75.79 M16.36 76.95 C15.69 76.74, 14.74 76.3, 13.14 75.79 M13.14 75.79 C13.1 74.67, 11.5 73.58, 10.59 70.66 M13.14 75.79 C12.68 74.49, 12.04 73.47, 10.59 70.66 M10.59 70.66 C10.24 68.22, 9.49 66.67, 9.06 63.58 M10.59 70.66 C10.25 68.96, 9.92 66.62, 9.06 63.58 M9.06 63.58 C6.64 63.56, 4.54 62.95, 0.07 63.37 M9.06 63.58 C7.23 63.18, 4.78 63.74, 0.07 63.37 M0.07 63.37 C0.23 64.89, 0.33 66.05, 1.44 69.06 M0.07 63.37 C0.23 65.06, 0.74 66.48, 1.44 69.06 M1.44 69.06 C2.35 71.45, 2.6 73.05, 4.5 76.83 M1.44 69.06 C2.84 71.97, 3.21 74.28, 4.5 76.83 M4.5 76.83 C6.1 78.98, 6.62 79.43, 10.13 83 M4.5 76.83 C5.92 78.1, 7.14 79.04, 10.13 83 M10.13 83 C11.37 83.72, 12.87 83.25, 15.49 84.75 M10.13 83 C11.7 83.51, 13.06 84.17, 15.49 84.75 M15.49 84.75 C16.32 84.95, 17.86 84.6, 20.77 84.94 M15.49 84.75 C17.02 84.77, 19.02 84.67, 20.77 84.94 M20.77 84.94 C22.05 83.36, 23.63 82.55, 25.72 81.09 M20.77 84.94 C22.21 83.97, 23.85 82.59, 25.72 81.09 M25.72 81.09 C26.69 79.18, 29 76.24, 29.78 74.43 M25.72 81.09 C27.04 78.72, 28.5 75.81, 29.78 74.43 M29.78 74.43 C31.96 69.44, 33.16 65.96, 33.76 63.34 M29.78 74.43 C31.6 70.48, 33.45 65.63, 33.76 63.34 M33.76 63.34 C34.75 61.95, 33.93 59.13, 35.65 52.45 M33.76 63.34 C34.34 59.62, 34.76 56.12, 35.65 52.45 M35.65 52.45 C35.77 45.2, 36.82 39.1, 37.21 34.85 M35.65 52.45 C35.77 44.9, 36.26 39.19, 37.21 34.85 M37.21 34.85 C37.79 31.37, 36.97 28.46, 36.87 21.19 M37.21 34.85 C36.8 29.73, 37.44 25.06, 36.87 21.19 M36.87 21.19 C35.07 16.83, 36.46 11.12, 35.29 8.07 M36.87 21.19 C35.74 16.21, 35.63 10.62, 35.29 8.07 M35.29 8.07 C33.19 2.43, 33.46 0.71, 32.35 -4.91 M35.29 8.07 C34.66 4.69, 33.75 2.42, 32.35 -4.91 M32.35 -4.91 C30.59 -9.74, 28.92 -14.02, 27.9 -15.38 M32.35 -4.91 C30.88 -6.76, 29.95 -9.23, 27.9 -15.38 M27.9 -15.38 C27.47 -16.47, 25.74 -18.01, 24.15 -20.29 M27.9 -15.38 C27.21 -16.37, 26.36 -17.22, 24.15 -20.29 M24.15 -20.29 C22.51 -20.65, 21.18 -20.92, 19.4 -22.1 M24.15 -20.29 C22.82 -20.68, 21.59 -20.97, 19.4 -22.1 M19.4 -22.1 C17.92 -21.77, 17.06 -22.63, 14.11 -22.28 M19.4 -22.1 C17.47 -22.14, 16.04 -22.02, 14.11 -22.28 M14.11 -22.28 C12.06 -20.67, 9.56 -19.29, 8.48 -19.34 M14.11 -22.28 C12.04 -21.23, 9.7 -19.9, 8.48 -19.34 M8.48 -19.34 C7.36 -17.89, 6.43 -15.88, 5 -14.29 M8.48 -19.34 C7.49 -18.24, 6.61 -16.82, 5 -14.29 M5 -14.29 C4.44 -12.36, 3 -10.75, 1.88 -8.25 M5 -14.29 C3.84 -11.84, 2.67 -9.74, 1.88 -8.25 M1.88 -8.25 C0.67 -5.16, 0.14 -3.17, -0.31 -0.24 M1.88 -8.25 C0.91 -6.33, 1.07 -4.86, -0.31 -0.24 M-0.31 -0.24 C-0.24 -0.14, -0.09 -0.1, 0 0 M-0.31 -0.24 C-0.19 -0.17, -0.1 -0.07, 0 0" stroke="#1864ab" stroke-width="1" fill="none"></path></g></g><mask></mask></svg>