<svg xmlns="http://www.w3.org/2000/svg" viewBox="668.24 2397.21 251.52 277.44" width="252" height="277"><polyline points="777.85,2403.21 777.85,2428.19 810.27,2461.55 810.27,2436.46 777.85,2403.21" fill="none" stroke="#000000" stroke-width="1" opacity="1.0" stroke-linecap="round" stroke-linejoin="round"/><polyline points="855.53,2506.82 823.23,2539.23 849.15,2539.23 881.45,2506.82 855.53,2506.82" fill="none" stroke="#000000" stroke-width="1" opacity="1.0" stroke-linecap="round" stroke-linejoin="round"/><polyline points="700.16,2506.82 732.58,2539.23 706.66,2539.23 674.24,2506.82 700.16,2506.82" fill="none" stroke="#000000" stroke-width="1" opacity="1.0" stroke-linecap="round" stroke-linejoin="round"/><polyline points="777.85,2610.42 777.85,2585.44 810.27,2552.19 810.27,2577.17 777.85,2610.42" fill="none" stroke="#000000" stroke-width="1" opacity="1.0" stroke-linecap="round" stroke-linejoin="round"/><polyline points="777.85,2403.21 745.54,2436.46 745.54,2461.55 777.85,2428.19 777.85,2403.21" fill="none" stroke="#000000" stroke-width="1" opacity="1.0" stroke-linecap="round" stroke-linejoin="round"/><polyline points="849.15,2474.51 823.23,2474.51 855.53,2506.82 881.45,2506.82 849.15,2474.51" fill="none" stroke="#000000" stroke-width="1" opacity="1.0" stroke-linecap="round" stroke-linejoin="round"/><polyline points="706.66,2474.51 732.58,2474.51 700.16,2506.82 674.24,2506.82 706.66,2474.51" fill="none" stroke="#000000" stroke-width="1" opacity="1.0" stroke-linecap="round" stroke-linejoin="round"/><polyline points="777.85,2610.42 745.54,2577.17 745.54,2552.19 777.85,2585.44 777.85,2610.42" fill="none" stroke="#000000" stroke-width="1" opacity="1.0" stroke-linecap="round" stroke-linejoin="round"/><polyline points="810.27,2539.23 745.54,2539.23 745.54,2474.51 810.27,2474.51 810.27,2539.23" fill="none" stroke="#000000" stroke-width="1" opacity="1.0" stroke-linecap="round" stroke-linejoin="round"/><polyline points="810.27,2474.51 810.27,2539.23 745.54,2539.23 810.27,2474.51" fill="none" stroke="#000000" stroke-width="1" opacity="1.0" stroke-linecap="round" stroke-linejoin="round"/><polyline points="810.27,2474.51 810.27,2539.23 777.85,2506.82 810.27,2474.51" fill="none" stroke="#000000" stroke-width="1" opacity="1.0" stroke-linecap="round" stroke-linejoin="round"/><text x="689.35" y="2652.51" font-size="33.94285714285716" fill="#000000" opacity="1.0" font-family="sans-serif">Cloud CDN</text></svg>