<svg version="1.1" xmlns="http://www.w3.org/2000/svg" viewBox="0 0 127.05835456464524 142.70354959239125" width="127.05835456464524" height="142.70354959239125">
  <!-- svg-source:excalidraw -->
  
  <defs>
    
    
  </defs>
  <g stroke-linecap="round"><g transform="translate(63.55026961786075 6) rotate(0 0.15661267266762025 65.35177479619563)" fill-rule="evenodd"><path d="M-0.18 1.74 L55.33 32.95 L56.79 98.03 L-2.1 128.71 L-58.12 99.12 L-55.85 32.68 L-1 1.29" stroke="none" stroke-width="0" fill="#aecbfa" fill-rule="evenodd"></path><path d="M0 0 C11.78 8.54, 21.31 15.59, 57.19 33.12 M0 0 C19.37 11.58, 38.36 22.43, 57.19 33.12 M57.19 33.12 C56.86 49.79, 56.95 66.91, 57.51 98.48 M57.19 33.12 C57.38 56.01, 56.21 80.01, 57.51 98.48 M57.51 98.48 C42.26 108.73, 27.44 113.68, -0.1 130.7 M57.51 98.48 C38.27 109.68, 17.82 120.33, -0.1 130.7 M-0.1 130.7 C-11.27 122.75, -25.9 118.18, -57.19 98.55 M-0.1 130.7 C-11.83 123.62, -23.9 117.66, -57.19 98.55 M-57.19 98.55 C-57.73 71.89, -57.64 48.35, -57.06 32.72 M-57.19 98.55 C-56.33 82.65, -57.24 65.89, -57.06 32.72 M-57.06 32.72 C-38.15 24.02, -21.91 12.88, 0 0 M-57.06 32.72 C-39.55 22.35, -23.74 13.1, 0 0 M0 0 C0 0, 0 0, 0 0 M0 0 C0 0, 0 0, 0 0" stroke="#669df6" stroke-width="1" fill="none"></path></g></g><mask></mask><g stroke-linecap="round"><g transform="translate(37.53848364073178 53.140078337296245) rotate(0 25.754942963088865 19.208665930706502)" fill-rule="evenodd"><path d="M0.99 1.41 L27.01 15.94 L51.12 0.63 L29.89 -13.47 L26.69 -29.8 L70.65 -7.93 L72.63 44.48 L26.82 67.98 L-18.94 43.93 L-17.82 -7.93 L21.44 -29.02 L21.89 -14.76 L-1.94 -1.65" stroke="none" stroke-width="0" fill="white" fill-rule="evenodd"></path><path d="M0 0 C5.92 5.59, 17.43 10.22, 25.81 14.85 M0 0 C7.17 4.45, 12.4 7.57, 25.81 14.85 M25.81 14.85 C32.59 7.77, 43.53 4.74, 51.47 -0.03 M25.81 14.85 C34.75 9, 43.25 4.32, 51.47 -0.03 M51.47 -0.03 C44.68 -2.71, 43.02 -6.14, 29.13 -13.24 M51.47 -0.03 C44.3 -3.59, 38.05 -7.76, 29.13 -13.24 M29.13 -13.24 C27.64 -18.15, 28.88 -23.62, 28.67 -30.11 M29.13 -13.24 C29.8 -17.7, 29.57 -22.93, 28.67 -30.11 M28.67 -30.11 C45.68 -22.39, 60.83 -14.6, 70.72 -7.36 M28.67 -30.11 C38.22 -25.2, 46.95 -21.04, 70.72 -7.36 M70.72 -7.36 C71.45 10.4, 71.02 25.46, 70.71 43.84 M70.72 -7.36 C70.39 6.13, 71.49 19.6, 70.71 43.84 M70.71 43.84 C51.55 54.38, 34.46 63.92, 26.54 69.16 M70.71 43.84 C55.45 53.03, 41.35 60.92, 26.54 69.16 M26.54 69.16 C12.18 59.17, -2.9 51.69, -19.09 44.55 M26.54 69.16 C15.71 63.51, 7.21 58.19, -19.09 44.55 M-19.09 44.55 C-18.67 26, -19.87 7.37, -19.21 -7.1 M-19.09 44.55 C-19.48 27.42, -19.11 10.73, -19.21 -7.1 M-19.21 -7.1 C-4.79 -13.28, 6.23 -19.34, 22.87 -30.74 M-19.21 -7.1 C-4.25 -16.08, 10.22 -23.23, 22.87 -30.74 M22.87 -30.74 C21.81 -26.63, 23.08 -20.55, 23.02 -12.92 M22.87 -30.74 C22.67 -26.31, 22.32 -21, 23.02 -12.92 M23.02 -12.92 C16 -7, 7.23 -2.81, 0 0 M23.02 -12.92 C18.51 -10.38, 13.45 -7.58, 0 0 M0 0 C0 0, 0 0, 0 0 M0 0 C0 0, 0 0, 0 0" stroke="#669df6" stroke-width="1" fill="none"></path></g></g><mask></mask><g stroke-linecap="round"><g transform="translate(18.410271144371336 94.23388772814292) rotate(0 21.008409772600544 -13.10763222830633)" fill-rule="evenodd"><path d="M-0.76 -0.34 L16.4 -10.62 L16.94 -34.41 L42.03 -19.09 L41.47 9.99 L18.64 -3.86 L0.9 4.42" stroke="none" stroke-width="0" fill="#669df6" fill-rule="evenodd"></path><path d="M0 0 C6.14 -3.4, 10.27 -7.11, 16.86 -9.83 M0 0 C5.81 -3.49, 10.96 -6.09, 16.86 -9.83 M16.86 -9.83 C16.54 -17.21, 16.53 -25.09, 16.44 -35.25 M16.86 -9.83 C17.06 -16, 16.52 -21.45, 16.44 -35.25 M16.44 -35.25 C24.42 -31.6, 31.09 -26.31, 42.02 -20.04 M16.44 -35.25 C26.39 -29.03, 37.06 -22.92, 42.02 -20.04 M42.02 -20.04 C42.18 -13.58, 41.36 -6.42, 41.94 9.04 M42.02 -20.04 C42.15 -13.69, 41.53 -7.95, 41.94 9.04 M41.94 9.04 C35.55 5.32, 29.86 2.16, 19.58 -3.74 M41.94 9.04 C34.99 4.8, 28.85 0.96, 19.58 -3.74 M19.58 -3.74 C14.1 -0.81, 8.11 1.42, 1.72 4.57 M19.58 -3.74 C15.06 -1.16, 10 1.15, 1.72 4.57 M1.72 4.57 C0.99 2.94, 0.31 1, 0 0 M1.72 4.57 C1.43 3.65, 0.95 2.59, 0 0" stroke="#1864ab" stroke-width="1" fill="none"></path></g></g><mask></mask><g stroke-linecap="round"><g transform="translate(107.79548332305944 92.54721398943366) rotate(0 -20.806715508469097 -12.140673789657512)" fill-rule="evenodd"><path d="M0.94 -0.86 L-17.24 -8.86 L-16.73 -34.26 L-41.9 -18.12 L-41.23 10.28 L-18.86 -1.96 L-2.17 2.94" stroke="none" stroke-width="0" fill="#4285f4" fill-rule="evenodd"></path><path d="M0 0 C-6.06 -3.01, -10.25 -5.19, -16.46 -8.87 M0 0 C-4.72 -2.54, -9.18 -4.71, -16.46 -8.87 M-16.46 -8.87 C-17.41 -14.85, -16.59 -21.5, -16.04 -34.29 M-16.46 -8.87 C-16.22 -14.74, -16.05 -19.87, -16.04 -34.29 M-16.04 -34.29 C-25 -28.15, -34.95 -22.38, -41.61 -19.07 M-16.04 -34.29 C-21.43 -30.99, -26.93 -28.2, -41.61 -19.07 M-41.61 -19.07 C-42.19 -13.39, -40.79 -7.08, -41.54 10.01 M-41.61 -19.07 C-41.33 -7.91, -41.31 3.52, -41.54 10.01 M-41.54 10.01 C-33.04 5.02, -26.82 1.39, -19.17 -2.77 M-41.54 10.01 C-35.83 6.74, -29.22 2.93, -19.17 -2.77 M-19.17 -2.77 C-15.24 -0.27, -9.72 1.23, -1.42 3.74 M-19.17 -2.77 C-14.61 -1.04, -10.8 0.09, -1.42 3.74 M-1.42 3.74 C-0.95 2.75, -0.83 1.88, 0 0 M-1.42 3.74 C-0.97 2.6, -0.47 1.46, 0 0" stroke="#1864ab" stroke-width="1" fill="none"></path></g></g><mask></mask></svg>