<svg version="1.1" xmlns="http://www.w3.org/2000/svg" viewBox="0 0 185.49999999999994 232.31421356421447" width="185.49999999999994" height="232.31421356421447">
  <!-- svg-source:excalidraw -->
  
  <defs>
    
    
  </defs>
  <g stroke-linecap="round"><g transform="translate(179.49999999999994 6) rotate(0 -86.74999999999997 86.75)" fill-rule="evenodd"><path d="M0 0 L0 173.5 L-173.5 173.5 L-173.5 0 L0 0 L0 0" stroke="none" stroke-width="0" fill="#4285f4" fill-rule="evenodd"></path><path d="M0 0 C0 54.85, 0 109.69, 0 173.5 M0 0 C0 62.72, 0 125.44, 0 173.5 M0 173.5 C-61.38 173.5, -122.76 173.5, -173.5 173.5 M0 173.5 C-45.67 173.5, -91.33 173.5, -173.5 173.5 M-173.5 173.5 C-173.5 130.08, -173.5 86.66, -173.5 0 M-173.5 173.5 C-173.5 133.12, -173.5 92.74, -173.5 0 M-173.5 0 C-133.64 0, -93.78 0, 0 0 M-173.5 0 C-124.58 0, -75.67 0, 0 0 M0 0 C0 0, 0 0, 0 0 M0 0 C0 0, 0 0, 0 0 M0 0 C0 0, 0 0, 0 0 M0 0 C0 0, 0 0, 0 0" stroke="#000000" stroke-width="1" fill="none"></path></g></g><mask></mask><g stroke-linecap="round"><g transform="translate(92.75000000000176 46.01957672047138) rotate(0 0.0000015609669077321087 43.374996878066156)" fill-rule="evenodd"><path d="M0 0 L0 0 L-2.88 0.11 L-5.7 0.45 L-8.44 1 L-11.11 1.75 L-13.69 2.7 L-16.17 3.83 L-18.55 5.15 L-20.81 6.63 L-22.95 8.27 L-24.95 10.07 L-26.82 12.01 L-28.54 14.09 L-30.1 16.29 L-31.5 18.61 L-32.72 21.04 L-33.76 23.57 L-35.15 23.57 L-35.15 23.57 L-36.77 23.61 L-38.38 23.73 L-39.96 23.93 L-41.51 24.21 L-43.04 24.57 L-44.54 24.99 L-47.44 26.05 L-50.2 27.39 L-52.81 28.97 L-55.24 30.79 L-57.48 32.83 L-59.52 35.07 L-61.34 37.5 L-62.92 40.11 L-64.26 42.87 L-65.32 45.77 L-65.74 47.27 L-66.1 48.8 L-66.38 50.35 L-66.58 51.93 L-66.7 53.54 L-66.74 55.16 L-66.7 56.78 L-66.58 58.39 L-66.38 59.97 L-66.1 61.52 L-65.74 63.05 L-65.32 64.55 L-64.26 67.45 L-62.92 70.21 L-61.34 72.82 L-59.52 75.25 L-57.48 77.49 L-55.24 79.53 L-52.81 81.35 L-50.2 82.93 L-47.44 84.27 L-44.54 85.33 L-43.04 85.75 L-41.51 86.11 L-39.96 86.39 L-38.38 86.59 L-36.77 86.71 L-35.15 86.75 L35.15 86.75 L35.15 86.75 L36.77 86.71 L38.38 86.59 L39.96 86.39 L41.51 86.11 L43.04 85.75 L44.54 85.33 L47.44 84.27 L50.2 82.93 L52.81 81.35 L55.24 79.53 L57.48 77.49 L59.52 75.25 L61.34 72.82 L62.92 70.21 L64.26 67.45 L65.32 64.55 L65.74 63.05 L66.1 61.52 L66.38 59.97 L66.58 58.39 L66.7 56.78 L66.74 55.16 L66.7 53.54 L66.58 51.93 L66.38 50.35 L66.1 48.8 L65.74 47.27 L65.32 45.77 L64.26 42.87 L62.92 40.11 L61.34 37.5 L59.52 35.07 L57.48 32.83 L55.24 30.79 L52.81 28.97 L50.2 27.39 L47.44 26.05 L44.54 24.99 L43.04 24.57 L41.51 24.21 L39.96 23.93 L38.38 23.73 L36.77 23.61 L35.15 23.57 L33.76 23.57 L33.76 23.57 L32.72 21.04 L31.5 18.61 L30.1 16.29 L28.54 14.09 L26.82 12.01 L24.95 10.07 L22.95 8.27 L20.81 6.63 L18.55 5.15 L16.17 3.83 L13.69 2.7 L11.11 1.75 L8.44 1 L5.7 0.45 L2.88 0.11 L0 0 L0 0" stroke="none" stroke-width="0" fill="#4285f4" fill-rule="evenodd"></path><path d="M0 0 C0 0, 0 0, 0 0 M0 0 C0 0, 0 0, 0 0 M0 0 C-1.06 0.04, -2.11 0.08, -2.88 0.11 M0 0 C-0.83 0.03, -1.66 0.07, -2.88 0.11 M-2.88 0.11 C-3.58 0.2, -4.29 0.28, -5.7 0.45 M-2.88 0.11 C-3.65 0.21, -4.43 0.3, -5.7 0.45 M-5.7 0.45 C-6.49 0.61, -7.27 0.76, -8.44 1 M-5.7 0.45 C-6.46 0.6, -7.22 0.75, -8.44 1 M-8.44 1 C-9.17 1.2, -9.9 1.41, -11.11 1.75 M-8.44 1 C-9.34 1.25, -10.23 1.5, -11.11 1.75 M-11.11 1.75 C-12.1 2.11, -13.09 2.48, -13.69 2.7 M-11.11 1.75 C-12.11 2.12, -13.11 2.48, -13.69 2.7 M-13.69 2.7 C-14.29 2.97, -14.9 3.25, -16.17 3.83 M-13.69 2.7 C-14.6 3.12, -15.51 3.53, -16.17 3.83 M-16.17 3.83 C-16.79 4.18, -17.42 4.52, -18.55 5.15 M-16.17 3.83 C-16.66 4.1, -17.14 4.37, -18.55 5.15 M-18.55 5.15 C-19.22 5.59, -19.9 6.03, -20.81 6.63 M-18.55 5.15 C-19.25 5.61, -19.96 6.08, -20.81 6.63 M-20.81 6.63 C-21.26 6.97, -21.71 7.32, -22.95 8.27 M-20.81 6.63 C-21.66 7.28, -22.51 7.94, -22.95 8.27 M-22.95 8.27 C-23.57 8.83, -24.19 9.38, -24.95 10.07 M-22.95 8.27 C-23.65 8.9, -24.34 9.52, -24.95 10.07 M-24.95 10.07 C-25.53 10.67, -26.11 11.27, -26.82 12.01 M-24.95 10.07 C-25.38 10.51, -25.81 10.96, -26.82 12.01 M-26.82 12.01 C-27.49 12.81, -28.15 13.62, -28.54 14.09 M-26.82 12.01 C-27.48 12.81, -28.14 13.61, -28.54 14.09 M-28.54 14.09 C-29.05 14.81, -29.57 15.53, -30.1 16.29 M-28.54 14.09 C-28.91 14.61, -29.28 15.12, -30.1 16.29 M-30.1 16.29 C-30.64 17.18, -31.18 18.07, -31.5 18.61 M-30.1 16.29 C-30.62 17.15, -31.14 18.01, -31.5 18.61 M-31.5 18.61 C-31.77 19.16, -32.05 19.7, -32.72 21.04 M-31.5 18.61 C-31.93 19.46, -32.35 20.31, -32.72 21.04 M-32.72 21.04 C-33.13 22.03, -33.53 23.02, -33.76 23.57 M-32.72 21.04 C-33.13 22.03, -33.54 23.03, -33.76 23.57 M-33.76 23.57 C-34.1 23.57, -34.45 23.57, -35.15 23.57 M-33.76 23.57 C-34.29 23.57, -34.83 23.57, -35.15 23.57 M-35.15 23.57 C-35.15 23.57, -35.15 23.57, -35.15 23.57 M-35.15 23.57 C-35.15 23.57, -35.15 23.57, -35.15 23.57 M-35.15 23.57 C-35.53 23.58, -35.9 23.59, -36.77 23.61 M-35.15 23.57 C-35.71 23.58, -36.26 23.6, -36.77 23.61 M-36.77 23.61 C-37.4 23.66, -38.02 23.71, -38.38 23.73 M-36.77 23.61 C-37.34 23.65, -37.92 23.7, -38.38 23.73 M-38.38 23.73 C-38.86 23.79, -39.33 23.85, -39.96 23.93 M-38.38 23.73 C-38.87 23.8, -39.35 23.86, -39.96 23.93 M-39.96 23.93 C-40.36 24.01, -40.75 24.08, -41.51 24.21 M-39.96 23.93 C-40.34 24, -40.72 24.07, -41.51 24.21 M-41.51 24.21 C-42.09 24.34, -42.66 24.48, -43.04 24.57 M-41.51 24.21 C-42.06 24.34, -42.6 24.46, -43.04 24.57 M-43.04 24.57 C-43.47 24.69, -43.89 24.81, -44.54 24.99 M-43.04 24.57 C-43.44 24.68, -43.84 24.79, -44.54 24.99 M-44.54 24.99 C-45.28 25.26, -46.01 25.53, -47.44 26.05 M-44.54 24.99 C-45.25 25.25, -45.96 25.51, -47.44 26.05 M-47.44 26.05 C-48.16 26.4, -48.87 26.75, -50.2 27.39 M-47.44 26.05 C-48.23 26.43, -49.01 26.81, -50.2 27.39 M-50.2 27.39 C-51.06 27.91, -51.92 28.43, -52.81 28.97 M-50.2 27.39 C-51.03 27.89, -51.86 28.39, -52.81 28.97 M-52.81 28.97 C-53.31 29.34, -53.81 29.72, -55.24 30.79 M-52.81 28.97 C-53.53 29.51, -54.25 30.05, -55.24 30.79 M-55.24 30.79 C-55.88 31.37, -56.52 31.96, -57.48 32.83 M-55.24 30.79 C-55.7 31.21, -56.16 31.63, -57.48 32.83 M-57.48 32.83 C-58.07 33.47, -58.65 34.12, -59.52 35.07 M-57.48 32.83 C-58.18 33.59, -58.87 34.36, -59.52 35.07 M-59.52 35.07 C-60.24 36.03, -60.95 36.98, -61.34 37.5 M-59.52 35.07 C-60.11 35.86, -60.7 36.65, -61.34 37.5 M-61.34 37.5 C-61.83 38.3, -62.31 39.1, -62.92 40.11 M-61.34 37.5 C-61.96 38.52, -62.57 39.53, -62.92 40.11 M-62.92 40.11 C-63.2 40.68, -63.48 41.26, -64.26 42.87 M-62.92 40.11 C-63.43 41.15, -63.93 42.19, -64.26 42.87 M-64.26 42.87 C-64.47 43.46, -64.69 44.06, -65.32 45.77 M-64.26 42.87 C-64.52 43.58, -64.78 44.3, -65.32 45.77 M-65.32 45.77 C-65.44 46.2, -65.56 46.62, -65.74 47.27 M-65.32 45.77 C-65.43 46.15, -65.53 46.53, -65.74 47.27 M-65.74 47.27 C-65.87 47.83, -66 48.38, -66.1 48.8 M-65.74 47.27 C-65.84 47.66, -65.93 48.06, -66.1 48.8 M-66.1 48.8 C-66.17 49.19, -66.24 49.59, -66.38 50.35 M-66.1 48.8 C-66.19 49.3, -66.28 49.8, -66.38 50.35 M-66.38 50.35 C-66.44 50.83, -66.5 51.31, -66.58 51.93 M-66.38 50.35 C-66.42 50.68, -66.46 51, -66.58 51.93 M-66.58 51.93 C-66.62 52.49, -66.66 53.05, -66.7 53.54 M-66.58 51.93 C-66.62 52.5, -66.66 53.06, -66.7 53.54 M-66.7 53.54 C-66.71 54.16, -66.73 54.78, -66.74 55.16 M-66.7 53.54 C-66.71 53.86, -66.72 54.19, -66.74 55.16 M-66.74 55.16 C-66.73 55.62, -66.72 56.09, -66.7 56.78 M-66.74 55.16 C-66.72 55.78, -66.71 56.4, -66.7 56.78 M-66.7 56.78 C-66.66 57.26, -66.63 57.74, -66.58 58.39 M-66.7 56.78 C-66.65 57.42, -66.6 58.07, -66.58 58.39 M-66.58 58.39 C-66.5 58.96, -66.43 59.54, -66.38 59.97 M-66.58 58.39 C-66.53 58.78, -66.48 59.16, -66.38 59.97 M-66.38 59.97 C-66.27 60.57, -66.16 61.18, -66.1 61.52 M-66.38 59.97 C-66.3 60.41, -66.22 60.86, -66.1 61.52 M-66.1 61.52 C-65.96 62.11, -65.83 62.7, -65.74 63.05 M-66.1 61.52 C-66.01 61.92, -65.91 62.32, -65.74 63.05 M-65.74 63.05 C-65.6 63.55, -65.46 64.04, -65.32 64.55 M-65.74 63.05 C-65.58 63.63, -65.42 64.21, -65.32 64.55 M-65.32 64.55 C-64.97 65.49, -64.63 66.44, -64.26 67.45 M-65.32 64.55 C-64.96 65.52, -64.6 66.5, -64.26 67.45 M-64.26 67.45 C-63.94 68.11, -63.62 68.77, -62.92 70.21 M-64.26 67.45 C-63.78 68.43, -63.31 69.42, -62.92 70.21 M-62.92 70.21 C-62.51 70.89, -62.09 71.58, -61.34 72.82 M-62.92 70.21 C-62.52 70.87, -62.12 71.54, -61.34 72.82 M-61.34 72.82 C-60.67 73.71, -60.01 74.6, -59.52 75.25 M-61.34 72.82 C-60.81 73.53, -60.27 74.25, -59.52 75.25 M-59.52 75.25 C-59 75.82, -58.48 76.39, -57.48 77.49 M-59.52 75.25 C-58.71 76.14, -57.91 77.02, -57.48 77.49 M-57.48 77.49 C-57.01 77.92, -56.54 78.34, -55.24 79.53 M-57.48 77.49 C-56.96 77.96, -56.45 78.43, -55.24 79.53 M-55.24 79.53 C-54.62 79.99, -54.01 80.45, -52.81 81.35 M-55.24 79.53 C-54.7 79.93, -54.17 80.33, -52.81 81.35 M-52.81 81.35 C-51.77 81.98, -50.74 82.61, -50.2 82.93 M-52.81 81.35 C-52.2 81.72, -51.6 82.09, -50.2 82.93 M-50.2 82.93 C-49.1 83.46, -48.01 83.99, -47.44 84.27 M-50.2 82.93 C-49.16 83.43, -48.13 83.94, -47.44 84.27 M-47.44 84.27 C-46.85 84.48, -46.26 84.7, -44.54 85.33 M-47.44 84.27 C-46.56 84.59, -45.69 84.91, -44.54 85.33 M-44.54 85.33 C-44.07 85.46, -43.59 85.6, -43.04 85.75 M-44.54 85.33 C-43.94 85.5, -43.35 85.67, -43.04 85.75 M-43.04 85.75 C-42.68 85.84, -42.31 85.92, -41.51 86.11 M-43.04 85.75 C-42.61 85.85, -42.19 85.95, -41.51 86.11 M-41.51 86.11 C-41.16 86.17, -40.81 86.23, -39.96 86.39 M-41.51 86.11 C-41.2 86.16, -40.89 86.22, -39.96 86.39 M-39.96 86.39 C-39.41 86.46, -38.85 86.53, -38.38 86.59 M-39.96 86.39 C-39.42 86.45, -38.89 86.52, -38.38 86.59 M-38.38 86.59 C-38 86.62, -37.62 86.64, -36.77 86.71 M-38.38 86.59 C-37.74 86.63, -37.11 86.68, -36.77 86.71 M-36.77 86.71 C-36.24 86.72, -35.71 86.74, -35.15 86.75 M-36.77 86.71 C-36.3 86.72, -35.83 86.73, -35.15 86.75 M-35.15 86.75 C-18.33 86.75, -1.51 86.75, 35.15 86.75 M-35.15 86.75 C-9.1 86.75, 16.95 86.75, 35.15 86.75 M35.15 86.75 C35.15 86.75, 35.15 86.75, 35.15 86.75 M35.15 86.75 C35.15 86.75, 35.15 86.75, 35.15 86.75 M35.15 86.75 C35.51 86.74, 35.87 86.73, 36.77 86.71 M35.15 86.75 C35.48 86.74, 35.81 86.73, 36.77 86.71 M36.77 86.71 C37.31 86.67, 37.85 86.63, 38.38 86.59 M36.77 86.71 C37.26 86.67, 37.74 86.64, 38.38 86.59 M38.38 86.59 C38.94 86.51, 39.51 86.44, 39.96 86.39 M38.38 86.59 C38.95 86.51, 39.51 86.44, 39.96 86.39 M39.96 86.39 C40.48 86.29, 41.01 86.2, 41.51 86.11 M39.96 86.39 C40.36 86.31, 40.77 86.24, 41.51 86.11 M41.51 86.11 C41.99 86, 42.46 85.89, 43.04 85.75 M41.51 86.11 C42.1 85.97, 42.69 85.84, 43.04 85.75 M43.04 85.75 C43.57 85.61, 44.09 85.46, 44.54 85.33 M43.04 85.75 C43.51 85.62, 43.98 85.49, 44.54 85.33 M44.54 85.33 C45.49 84.98, 46.45 84.63, 47.44 84.27 M44.54 85.33 C45.17 85.1, 45.8 84.87, 47.44 84.27 M47.44 84.27 C48.44 83.79, 49.43 83.31, 50.2 82.93 M47.44 84.27 C48.42 83.79, 49.41 83.32, 50.2 82.93 M50.2 82.93 C51.13 82.37, 52.07 81.8, 52.81 81.35 M50.2 82.93 C50.92 82.5, 51.64 82.06, 52.81 81.35 M52.81 81.35 C53.51 80.83, 54.21 80.3, 55.24 79.53 M52.81 81.35 C53.56 80.78, 54.32 80.22, 55.24 79.53 M55.24 79.53 C55.97 78.87, 56.7 78.2, 57.48 77.49 M55.24 79.53 C56.07 78.78, 56.9 78.02, 57.48 77.49 M57.48 77.49 C58.09 76.82, 58.7 76.15, 59.52 75.25 M57.48 77.49 C57.98 76.95, 58.47 76.4, 59.52 75.25 M59.52 75.25 C59.98 74.64, 60.44 74.02, 61.34 72.82 M59.52 75.25 C60.23 74.3, 60.94 73.35, 61.34 72.82 M61.34 72.82 C61.8 72.06, 62.26 71.3, 62.92 70.21 M61.34 72.82 C61.73 72.17, 62.13 71.52, 62.92 70.21 M62.92 70.21 C63.38 69.26, 63.84 68.31, 64.26 67.45 M62.92 70.21 C63.21 69.61, 63.5 69.02, 64.26 67.45 M64.26 67.45 C64.48 66.85, 64.69 66.25, 65.32 64.55 M64.26 67.45 C64.64 66.4, 65.03 65.35, 65.32 64.55 M65.32 64.55 C65.45 64.1, 65.57 63.65, 65.74 63.05 M65.32 64.55 C65.41 64.23, 65.5 63.91, 65.74 63.05 M65.74 63.05 C65.86 62.56, 65.97 62.06, 66.1 61.52 M65.74 63.05 C65.84 62.66, 65.93 62.27, 66.1 61.52 M66.1 61.52 C66.16 61.2, 66.21 60.88, 66.38 59.97 M66.1 61.52 C66.19 61.01, 66.28 60.49, 66.38 59.97 M66.38 59.97 C66.45 59.4, 66.52 58.83, 66.58 58.39 M66.38 59.97 C66.44 59.44, 66.51 58.91, 66.58 58.39 M66.58 58.39 C66.61 58.01, 66.64 57.62, 66.7 56.78 M66.58 58.39 C66.6 58.05, 66.63 57.72, 66.7 56.78 M66.7 56.78 C66.71 56.17, 66.73 55.56, 66.74 55.16 M66.7 56.78 C66.71 56.39, 66.72 56, 66.74 55.16 M66.74 55.16 C66.73 54.58, 66.71 53.99, 66.7 53.54 M66.74 55.16 C66.73 54.73, 66.72 54.3, 66.7 53.54 M66.7 53.54 C66.67 53.11, 66.63 52.68, 66.58 51.93 M66.7 53.54 C66.66 52.97, 66.61 52.41, 66.58 51.93 M66.58 51.93 C66.53 51.58, 66.49 51.22, 66.38 50.35 M66.58 51.93 C66.53 51.6, 66.49 51.27, 66.38 50.35 M66.38 50.35 C66.3 49.94, 66.23 49.53, 66.1 48.8 M66.38 50.35 C66.3 49.91, 66.22 49.47, 66.1 48.8 M66.1 48.8 C66 48.38, 65.9 47.95, 65.74 47.27 M66.1 48.8 C65.98 48.28, 65.86 47.75, 65.74 47.27 M65.74 47.27 C65.64 46.9, 65.53 46.52, 65.32 45.77 M65.74 47.27 C65.58 46.69, 65.42 46.12, 65.32 45.77 M65.32 45.77 C65.06 45.06, 64.8 44.35, 64.26 42.87 M65.32 45.77 C65.07 45.09, 64.82 44.4, 64.26 42.87 M64.26 42.87 C63.95 42.23, 63.64 41.58, 62.92 40.11 M64.26 42.87 C63.94 42.21, 63.62 41.54, 62.92 40.11 M62.92 40.11 C62.52 39.45, 62.12 38.79, 61.34 37.5 M62.92 40.11 C62.51 39.43, 62.1 38.75, 61.34 37.5 M61.34 37.5 C60.86 36.86, 60.37 36.21, 59.52 35.07 M61.34 37.5 C60.66 36.59, 59.98 35.68, 59.52 35.07 M59.52 35.07 C58.89 34.38, 58.26 33.69, 57.48 32.83 M59.52 35.07 C58.97 34.47, 58.42 33.86, 57.48 32.83 M57.48 32.83 C56.71 32.13, 55.94 31.43, 55.24 30.79 M57.48 32.83 C56.71 32.13, 55.94 31.43, 55.24 30.79 M55.24 30.79 C54.72 30.4, 54.21 30.02, 52.81 28.97 M55.24 30.79 C54.51 30.24, 53.79 29.7, 52.81 28.97 M52.81 28.97 C52.04 28.51, 51.28 28.04, 50.2 27.39 M52.81 28.97 C52.18 28.59, 51.55 28.21, 50.2 27.39 M50.2 27.39 C49.51 27.05, 48.82 26.72, 47.44 26.05 M50.2 27.39 C49.45 27.02, 48.69 26.66, 47.44 26.05 M47.44 26.05 C46.61 25.75, 45.78 25.44, 44.54 24.99 M47.44 26.05 C46.29 25.63, 45.14 25.21, 44.54 24.99 M44.54 24.99 C44.09 24.86, 43.64 24.74, 43.04 24.57 M44.54 24.99 C44.08 24.86, 43.63 24.73, 43.04 24.57 M43.04 24.57 C42.53 24.45, 42.02 24.33, 41.51 24.21 M43.04 24.57 C42.62 24.47, 42.19 24.37, 41.51 24.21 M41.51 24.21 C41 24.12, 40.49 24.03, 39.96 23.93 M41.51 24.21 C40.91 24.1, 40.31 24, 39.96 23.93 M39.96 23.93 C39.36 23.86, 38.75 23.78, 38.38 23.73 M39.96 23.93 C39.35 23.86, 38.75 23.78, 38.38 23.73 M38.38 23.73 C37.91 23.7, 37.45 23.66, 36.77 23.61 M38.38 23.73 C37.89 23.7, 37.41 23.66, 36.77 23.61 M36.77 23.61 C36.42 23.6, 36.07 23.59, 35.15 23.57 M36.77 23.61 C36.2 23.6, 35.63 23.58, 35.15 23.57 M35.15 23.57 C34.83 23.57, 34.51 23.57, 33.76 23.57 M35.15 23.57 C34.71 23.57, 34.26 23.57, 33.76 23.57 M33.76 23.57 C33.76 23.57, 33.76 23.57, 33.76 23.57 M33.76 23.57 C33.76 23.57, 33.76 23.57, 33.76 23.57 M33.76 23.57 C33.37 22.61, 32.97 21.66, 32.72 21.04 M33.76 23.57 C33.46 22.83, 33.15 22.09, 32.72 21.04 M32.72 21.04 C32.24 20.08, 31.76 19.13, 31.5 18.61 M32.72 21.04 C32.34 20.29, 31.97 19.54, 31.5 18.61 M31.5 18.61 C31.14 18, 30.77 17.4, 30.1 16.29 M31.5 18.61 C31 17.77, 30.5 16.94, 30.1 16.29 M30.1 16.29 C29.78 15.84, 29.46 15.38, 28.54 14.09 M30.1 16.29 C29.55 15.51, 29 14.74, 28.54 14.09 M28.54 14.09 C27.88 13.28, 27.21 12.48, 26.82 12.01 M28.54 14.09 C28.11 13.57, 27.69 13.05, 26.82 12.01 M26.82 12.01 C26.18 11.34, 25.53 10.67, 24.95 10.07 M26.82 12.01 C26.14 11.3, 25.45 10.59, 24.95 10.07 M24.95 10.07 C24.24 9.43, 23.52 8.78, 22.95 8.27 M24.95 10.07 C24.21 9.4, 23.47 8.74, 22.95 8.27 M22.95 8.27 C22.32 7.79, 21.69 7.31, 20.81 6.63 M22.95 8.27 C22.15 7.66, 21.36 7.05, 20.81 6.63 M20.81 6.63 C19.99 6.09, 19.16 5.55, 18.55 5.15 M20.81 6.63 C20.08 6.15, 19.35 5.67, 18.55 5.15 M18.55 5.15 C17.66 4.65, 16.77 4.16, 16.17 3.83 M18.55 5.15 C17.79 4.73, 17.03 4.31, 16.17 3.83 M16.17 3.83 C15.47 3.51, 14.77 3.19, 13.69 2.7 M16.17 3.83 C15.2 3.39, 14.24 2.95, 13.69 2.7 M13.69 2.7 C13.06 2.46, 12.42 2.23, 11.11 1.75 M13.69 2.7 C12.66 2.32, 11.64 1.94, 11.11 1.75 M11.11 1.75 C10.1 1.46, 9.08 1.18, 8.44 1 M11.11 1.75 C10.47 1.57, 9.84 1.39, 8.44 1 M8.44 1 C7.87 0.88, 7.3 0.77, 5.7 0.45 M8.44 1 C7.53 0.81, 6.61 0.63, 5.7 0.45 M5.7 0.45 C5.09 0.38, 4.49 0.3, 2.88 0.11 M5.7 0.45 C5.06 0.37, 4.42 0.3, 2.88 0.11 M2.88 0.11 C2.01 0.08, 1.15 0.05, 0 0 M2.88 0.11 C2.05 0.08, 1.23 0.05, 0 0 M0 0 C0 0, 0 0, 0 0 M0 0 C0 0, 0 0, 0 0 M0 0 C0 0, 0 0, 0 0 M0 0 C0 0, 0 0, 0 0" stroke="#000000" stroke-width="1" fill="none"></path></g></g><mask></mask><g stroke-linecap="round"><g transform="translate(57.59988457302046 69.58938429490536) rotate(0 35.15011698794814 19.805189303632062)" fill-rule="evenodd"><path d="M0 0 L1.39 0 L1.39 0 L2.43 -2.53 L3.65 -4.96 L5.05 -7.28 L6.61 -9.48 L8.33 -11.56 L10.2 -13.5 L12.2 -15.3 L14.34 -16.94 L16.6 -18.42 L18.98 -19.74 L21.46 -20.87 L24.04 -21.82 L26.71 -22.57 L29.45 -23.12 L32.27 -23.46 L35.15 -23.57 L38.03 -23.46 L40.85 -23.12 L43.59 -22.57 L46.26 -21.82 L48.84 -20.87 L51.32 -19.74 L53.7 -18.42 L55.96 -16.94 L58.1 -15.3 L60.1 -13.5 L61.97 -11.56 L63.69 -9.48 L65.25 -7.28 L66.65 -4.96 L67.87 -2.53 L68.91 0 L70.3 0 L70.3 0 L71.92 0.04 L73.53 0.16 L75.11 0.36 L76.66 0.64 L78.19 1 L79.69 1.42 L82.59 2.48 L85.35 3.82 L87.96 5.4 L90.39 7.22 L92.63 9.26 L94.67 11.5 L96.49 13.93 L98.07 16.54 L99.41 19.3 L100.47 22.2 L100.89 23.7 L101.25 25.23 L101.53 26.78 L101.73 28.36 L101.85 29.97 L101.89 31.59 L101.85 33.21 L101.73 34.82 L101.53 36.4 L101.25 37.95 L100.89 39.48 L100.47 40.98 L99.41 43.88 L98.07 46.64 L96.49 49.25 L94.67 51.68 L92.63 53.92 L90.39 55.96 L87.96 57.78 L85.35 59.36 L82.59 60.7 L79.69 61.76 L78.19 62.18 L76.66 62.54 L75.11 62.82 L73.53 63.02 L71.92 63.14 L70.3 63.18 L0 63.18 L0 63.18 L-1.62 63.14 L-3.23 63.02 L-4.81 62.82 L-6.36 62.54 L-7.89 62.18 L-9.39 61.76 L-12.29 60.7 L-15.05 59.36 L-17.66 57.78 L-20.09 55.96 L-22.33 53.92 L-24.37 51.68 L-26.19 49.25 L-27.77 46.64 L-29.11 43.88 L-30.17 40.98 L-30.59 39.48 L-30.95 37.95 L-31.23 36.4 L-31.43 34.82 L-31.55 33.21 L-31.59 31.59 L-31.55 29.97 L-31.43 28.36 L-31.23 26.78 L-30.95 25.23 L-30.59 23.7 L-30.17 22.2 L-29.11 19.3 L-27.77 16.54 L-26.19 13.93 L-24.37 11.5 L-22.33 9.26 L-20.09 7.22 L-17.66 5.4 L-15.05 3.82 L-12.29 2.48 L-9.39 1.42 L-7.89 1 L-6.36 0.64 L-4.81 0.36 L-3.23 0.16 L-1.62 0.04 L0 0 L0 0" stroke="none" stroke-width="0" fill="#fff" fill-rule="evenodd"></path><path d="M0 0 C0.55 0, 1.11 0, 1.39 0 M0 0 C0.33 0, 0.67 0, 1.39 0 M1.39 0 C1.39 0, 1.39 0, 1.39 0 M1.39 0 C1.39 0, 1.39 0, 1.39 0 M1.39 0 C1.77 -0.92, 2.15 -1.84, 2.43 -2.53 M1.39 0 C1.8 -1, 2.21 -2.01, 2.43 -2.53 M2.43 -2.53 C2.92 -3.5, 3.4 -4.46, 3.65 -4.96 M2.43 -2.53 C2.9 -3.46, 3.36 -4.39, 3.65 -4.96 M3.65 -4.96 C4.06 -5.64, 4.47 -6.31, 5.05 -7.28 M3.65 -4.96 C4.07 -5.65, 4.48 -6.34, 5.05 -7.28 M5.05 -7.28 C5.45 -7.86, 5.86 -8.43, 6.61 -9.48 M5.05 -7.28 C5.42 -7.81, 5.8 -8.35, 6.61 -9.48 M6.61 -9.48 C7.18 -10.17, 7.75 -10.86, 8.33 -11.56 M6.61 -9.48 C7.02 -9.98, 7.43 -10.47, 8.33 -11.56 M8.33 -11.56 C8.77 -12.02, 9.22 -12.49, 10.2 -13.5 M8.33 -11.56 C9.06 -12.32, 9.8 -13.09, 10.2 -13.5 M10.2 -13.5 C10.64 -13.9, 11.09 -14.3, 12.2 -15.3 M10.2 -13.5 C10.89 -14.12, 11.59 -14.75, 12.2 -15.3 M12.2 -15.3 C12.9 -15.83, 13.6 -16.37, 14.34 -16.94 M12.2 -15.3 C12.69 -15.67, 13.17 -16.04, 14.34 -16.94 M14.34 -16.94 C15.22 -17.52, 16.1 -18.09, 16.6 -18.42 M14.34 -16.94 C15.01 -17.38, 15.68 -17.82, 16.6 -18.42 M16.6 -18.42 C17.44 -18.88, 18.27 -19.34, 18.98 -19.74 M16.6 -18.42 C17.36 -18.84, 18.11 -19.25, 18.98 -19.74 M18.98 -19.74 C19.58 -20.01, 20.17 -20.28, 21.46 -20.87 M18.98 -19.74 C19.95 -20.18, 20.93 -20.63, 21.46 -20.87 M21.46 -20.87 C22.18 -21.14, 22.9 -21.4, 24.04 -21.82 M21.46 -20.87 C22.31 -21.18, 23.16 -21.5, 24.04 -21.82 M24.04 -21.82 C24.77 -22.03, 25.5 -22.23, 26.71 -22.57 M24.04 -21.82 C24.8 -22.03, 25.56 -22.25, 26.71 -22.57 M26.71 -22.57 C27.57 -22.74, 28.43 -22.92, 29.45 -23.12 M26.71 -22.57 C27.59 -22.75, 28.47 -22.92, 29.45 -23.12 M29.45 -23.12 C30.49 -23.24, 31.53 -23.37, 32.27 -23.46 M29.45 -23.12 C30.19 -23.21, 30.92 -23.3, 32.27 -23.46 M32.27 -23.46 C33.39 -23.5, 34.51 -23.54, 35.15 -23.57 M32.27 -23.46 C32.95 -23.48, 33.63 -23.51, 35.15 -23.57 M35.15 -23.57 C36 -23.54, 36.86 -23.5, 38.03 -23.46 M35.15 -23.57 C36.14 -23.53, 37.14 -23.49, 38.03 -23.46 M38.03 -23.46 C38.83 -23.36, 39.62 -23.27, 40.85 -23.12 M38.03 -23.46 C38.61 -23.39, 39.19 -23.32, 40.85 -23.12 M40.85 -23.12 C41.42 -23.01, 41.99 -22.89, 43.59 -22.57 M40.85 -23.12 C41.41 -23.01, 41.97 -22.9, 43.59 -22.57 M43.59 -22.57 C44.4 -22.35, 45.2 -22.12, 46.26 -21.82 M43.59 -22.57 C44.27 -22.38, 44.95 -22.19, 46.26 -21.82 M46.26 -21.82 C47.15 -21.49, 48.05 -21.16, 48.84 -20.87 M46.26 -21.82 C46.89 -21.59, 47.51 -21.36, 48.84 -20.87 M48.84 -20.87 C49.81 -20.43, 50.78 -19.99, 51.32 -19.74 M48.84 -20.87 C49.81 -20.43, 50.78 -19.98, 51.32 -19.74 M51.32 -19.74 C52.12 -19.3, 52.91 -18.86, 53.7 -18.42 M51.32 -19.74 C52.04 -19.34, 52.77 -18.94, 53.7 -18.42 M53.7 -18.42 C54.22 -18.08, 54.75 -17.74, 55.96 -16.94 M53.7 -18.42 C54.42 -17.95, 55.14 -17.47, 55.96 -16.94 M55.96 -16.94 C56.57 -16.47, 57.18 -16, 58.1 -15.3 M55.96 -16.94 C56.75 -16.33, 57.54 -15.72, 58.1 -15.3 M58.1 -15.3 C58.79 -14.68, 59.47 -14.06, 60.1 -13.5 M58.1 -15.3 C58.75 -14.71, 59.41 -14.12, 60.1 -13.5 M60.1 -13.5 C60.66 -12.93, 61.21 -12.35, 61.97 -11.56 M60.1 -13.5 C60.59 -12.99, 61.08 -12.48, 61.97 -11.56 M61.97 -11.56 C62.62 -10.78, 63.26 -10, 63.69 -9.48 M61.97 -11.56 C62.65 -10.74, 63.32 -9.93, 63.69 -9.48 M63.69 -9.48 C64.24 -8.71, 64.79 -7.94, 65.25 -7.28 M63.69 -9.48 C64.22 -8.73, 64.76 -7.98, 65.25 -7.28 M65.25 -7.28 C65.56 -6.77, 65.87 -6.26, 66.65 -4.96 M65.25 -7.28 C65.65 -6.62, 66.05 -5.96, 66.65 -4.96 M66.65 -4.96 C66.92 -4.43, 67.18 -3.9, 67.87 -2.53 M66.65 -4.96 C66.9 -4.46, 67.15 -3.96, 67.87 -2.53 M67.87 -2.53 C68.18 -1.77, 68.5 -1.01, 68.91 0 M67.87 -2.53 C68.14 -1.88, 68.4 -1.23, 68.91 0 M68.91 0 C69.4 0, 69.89 0, 70.3 0 M68.91 0 C69.46 0, 70.01 0, 70.3 0 M70.3 0 C70.3 0, 70.3 0, 70.3 0 M70.3 0 C70.3 0, 70.3 0, 70.3 0 M70.3 0 C70.95 0.02, 71.6 0.03, 71.92 0.04 M70.3 0 C70.77 0.01, 71.25 0.02, 71.92 0.04 M71.92 0.04 C72.49 0.08, 73.05 0.13, 73.53 0.16 M71.92 0.04 C72.44 0.08, 72.96 0.12, 73.53 0.16 M73.53 0.16 C73.97 0.22, 74.42 0.28, 75.11 0.36 M73.53 0.16 C73.85 0.2, 74.17 0.25, 75.11 0.36 M75.11 0.36 C75.65 0.46, 76.2 0.56, 76.66 0.64 M75.11 0.36 C75.53 0.44, 75.96 0.52, 76.66 0.64 M76.66 0.64 C77.15 0.75, 77.63 0.87, 78.19 1 M76.66 0.64 C77.11 0.75, 77.56 0.85, 78.19 1 M78.19 1 C78.56 1.1, 78.93 1.2, 79.69 1.42 M78.19 1 C78.52 1.09, 78.86 1.19, 79.69 1.42 M79.69 1.42 C80.56 1.74, 81.43 2.06, 82.59 2.48 M79.69 1.42 C80.42 1.69, 81.16 1.96, 82.59 2.48 M82.59 2.48 C83.26 2.81, 83.92 3.13, 85.35 3.82 M82.59 2.48 C83.62 2.98, 84.66 3.48, 85.35 3.82 M85.35 3.82 C85.92 4.16, 86.49 4.51, 87.96 5.4 M85.35 3.82 C85.92 4.16, 86.49 4.51, 87.96 5.4 M87.96 5.4 C88.63 5.9, 89.3 6.41, 90.39 7.22 M87.96 5.4 C88.49 5.8, 89.02 6.19, 90.39 7.22 M90.39 7.22 C91.16 7.92, 91.93 8.62, 92.63 9.26 M90.39 7.22 C90.97 7.75, 91.56 8.28, 92.63 9.26 M92.63 9.26 C93.31 10, 93.98 10.74, 94.67 11.5 M92.63 9.26 C93.11 9.79, 93.59 10.31, 94.67 11.5 M94.67 11.5 C95.27 12.31, 95.87 13.11, 96.49 13.93 M94.67 11.5 C95.2 12.21, 95.74 12.92, 96.49 13.93 M96.49 13.93 C96.99 14.75, 97.48 15.57, 98.07 16.54 M96.49 13.93 C97.11 14.96, 97.74 15.98, 98.07 16.54 M98.07 16.54 C98.51 17.43, 98.94 18.33, 99.41 19.3 M98.07 16.54 C98.56 17.55, 99.05 18.56, 99.41 19.3 M99.41 19.3 C99.8 20.39, 100.2 21.48, 100.47 22.2 M99.41 19.3 C99.67 20.03, 99.94 20.76, 100.47 22.2 M100.47 22.2 C100.58 22.58, 100.68 22.96, 100.89 23.7 M100.47 22.2 C100.63 22.76, 100.78 23.31, 100.89 23.7 M100.89 23.7 C101.04 24.31, 101.18 24.92, 101.25 25.23 M100.89 23.7 C100.99 24.09, 101.08 24.49, 101.25 25.23 M101.25 25.23 C101.34 25.74, 101.43 26.25, 101.53 26.78 M101.25 25.23 C101.34 25.75, 101.43 26.27, 101.53 26.78 M101.53 26.78 C101.59 27.27, 101.65 27.75, 101.73 28.36 M101.53 26.78 C101.58 27.17, 101.63 27.57, 101.73 28.36 M101.73 28.36 C101.77 28.94, 101.81 29.51, 101.85 29.97 M101.73 28.36 C101.77 28.89, 101.81 29.42, 101.85 29.97 M101.85 29.97 C101.86 30.54, 101.88 31.12, 101.89 31.59 M101.85 29.97 C101.86 30.53, 101.88 31.09, 101.89 31.59 M101.89 31.59 C101.88 31.95, 101.87 32.31, 101.85 33.21 M101.89 31.59 C101.88 32.17, 101.86 32.76, 101.85 33.21 M101.85 33.21 C101.82 33.59, 101.79 33.96, 101.73 34.82 M101.85 33.21 C101.82 33.65, 101.78 34.08, 101.73 34.82 M101.73 34.82 C101.65 35.44, 101.57 36.07, 101.53 36.4 M101.73 34.82 C101.67 35.25, 101.62 35.68, 101.53 36.4 M101.53 36.4 C101.42 36.97, 101.32 37.55, 101.25 37.95 M101.53 36.4 C101.47 36.74, 101.4 37.08, 101.25 37.95 M101.25 37.95 C101.16 38.32, 101.08 38.68, 100.89 39.48 M101.25 37.95 C101.16 38.34, 101.07 38.73, 100.89 39.48 M100.89 39.48 C100.8 39.82, 100.7 40.17, 100.47 40.98 M100.89 39.48 C100.73 40.06, 100.56 40.64, 100.47 40.98 M100.47 40.98 C100.16 41.83, 99.84 42.69, 99.41 43.88 M100.47 40.98 C100.12 41.94, 99.77 42.89, 99.41 43.88 M99.41 43.88 C99.12 44.47, 98.83 45.07, 98.07 46.64 M99.41 43.88 C99.06 44.59, 98.72 45.3, 98.07 46.64 M98.07 46.64 C97.45 47.67, 96.83 48.69, 96.49 49.25 M98.07 46.64 C97.66 47.32, 97.25 48, 96.49 49.25 M96.49 49.25 C95.84 50.12, 95.19 50.99, 94.67 51.68 M96.49 49.25 C95.94 49.98, 95.4 50.71, 94.67 51.68 M94.67 51.68 C93.95 52.47, 93.24 53.26, 92.63 53.92 M94.67 51.68 C94.16 52.25, 93.64 52.82, 92.63 53.92 M92.63 53.92 C92.11 54.4, 91.58 54.87, 90.39 55.96 M92.63 53.92 C92.02 54.48, 91.4 55.04, 90.39 55.96 M90.39 55.96 C89.73 56.46, 89.06 56.95, 87.96 57.78 M90.39 55.96 C89.79 56.41, 89.19 56.86, 87.96 57.78 M87.96 57.78 C87.31 58.17, 86.67 58.57, 85.35 59.36 M87.96 57.78 C87.1 58.3, 86.24 58.83, 85.35 59.36 M85.35 59.36 C84.68 59.69, 84.01 60.01, 82.59 60.7 M85.35 59.36 C84.74 59.66, 84.13 59.96, 82.59 60.7 M82.59 60.7 C81.59 61.06, 80.59 61.43, 79.69 61.76 M82.59 60.7 C81.71 61.02, 80.83 61.34, 79.69 61.76 M79.69 61.76 C79.33 61.86, 78.98 61.96, 78.19 62.18 M79.69 61.76 C79.24 61.89, 78.79 62.01, 78.19 62.18 M78.19 62.18 C77.73 62.29, 77.26 62.4, 76.66 62.54 M78.19 62.18 C77.85 62.26, 77.51 62.34, 76.66 62.54 M76.66 62.54 C76.33 62.6, 75.99 62.66, 75.11 62.82 M76.66 62.54 C76.29 62.6, 75.92 62.67, 75.11 62.82 M75.11 62.82 C74.73 62.86, 74.35 62.91, 73.53 63.02 M75.11 62.82 C74.78 62.86, 74.46 62.9, 73.53 63.02 M73.53 63.02 C73.16 63.04, 72.8 63.07, 71.92 63.14 M73.53 63.02 C72.99 63.06, 72.45 63.1, 71.92 63.14 M71.92 63.14 C71.42 63.15, 70.92 63.16, 70.3 63.18 M71.92 63.14 C71.35 63.15, 70.78 63.17, 70.3 63.18 M70.3 63.18 C49.29 63.18, 28.29 63.18, 0 63.18 M70.3 63.18 C46.99 63.18, 23.68 63.18, 0 63.18 M0 63.18 C0 63.18, 0 63.18, 0 63.18 M0 63.18 C0 63.18, 0 63.18, 0 63.18 M0 63.18 C-0.57 63.17, -1.14 63.15, -1.62 63.14 M0 63.18 C-0.49 63.17, -0.97 63.16, -1.62 63.14 M-1.62 63.14 C-1.97 63.11, -2.32 63.09, -3.23 63.02 M-1.62 63.14 C-2.13 63.1, -2.64 63.06, -3.23 63.02 M-3.23 63.02 C-3.68 62.96, -4.14 62.9, -4.81 62.82 M-3.23 63.02 C-3.79 62.95, -4.35 62.87, -4.81 62.82 M-4.81 62.82 C-5.18 62.75, -5.55 62.68, -6.36 62.54 M-4.81 62.82 C-5.41 62.71, -6 62.6, -6.36 62.54 M-6.36 62.54 C-6.82 62.43, -7.28 62.33, -7.89 62.18 M-6.36 62.54 C-6.9 62.41, -7.44 62.29, -7.89 62.18 M-7.89 62.18 C-8.43 62.03, -8.97 61.88, -9.39 61.76 M-7.89 62.18 C-8.39 62.04, -8.89 61.9, -9.39 61.76 M-9.39 61.76 C-10.44 61.37, -11.49 60.99, -12.29 60.7 M-9.39 61.76 C-10.51 61.35, -11.63 60.94, -12.29 60.7 M-12.29 60.7 C-12.85 60.42, -13.42 60.15, -15.05 59.36 M-12.29 60.7 C-13.14 60.29, -13.99 59.88, -15.05 59.36 M-15.05 59.36 C-15.92 58.83, -16.79 58.31, -17.66 57.78 M-15.05 59.36 C-15.8 58.91, -16.55 58.46, -17.66 57.78 M-17.66 57.78 C-18.25 57.34, -18.84 56.9, -20.09 55.96 M-17.66 57.78 C-18.27 57.32, -18.88 56.87, -20.09 55.96 M-20.09 55.96 C-20.69 55.42, -21.29 54.87, -22.33 53.92 M-20.09 55.96 C-20.82 55.29, -21.56 54.62, -22.33 53.92 M-22.33 53.92 C-22.9 53.3, -23.47 52.67, -24.37 51.68 M-22.33 53.92 C-23.13 53.04, -23.93 52.17, -24.37 51.68 M-24.37 51.68 C-24.9 50.97, -25.43 50.26, -26.19 49.25 M-24.37 51.68 C-24.95 50.9, -25.53 50.13, -26.19 49.25 M-26.19 49.25 C-26.75 48.33, -27.3 47.42, -27.77 46.64 M-26.19 49.25 C-26.74 48.35, -27.28 47.45, -27.77 46.64 M-27.77 46.64 C-28.21 45.73, -28.65 44.82, -29.11 43.88 M-27.77 46.64 C-28.19 45.78, -28.6 44.93, -29.11 43.88 M-29.11 43.88 C-29.35 43.21, -29.6 42.53, -30.17 40.98 M-29.11 43.88 C-29.34 43.25, -29.57 42.61, -30.17 40.98 M-30.17 40.98 C-30.33 40.4, -30.5 39.83, -30.59 39.48 M-30.17 40.98 C-30.29 40.54, -30.42 40.11, -30.59 39.48 M-30.59 39.48 C-30.71 38.97, -30.83 38.46, -30.95 37.95 M-30.59 39.48 C-30.7 39.01, -30.81 38.54, -30.95 37.95 M-30.95 37.95 C-31.02 37.57, -31.09 37.18, -31.23 36.4 M-30.95 37.95 C-31.03 37.51, -31.11 37.06, -31.23 36.4 M-31.23 36.4 C-31.27 36.07, -31.31 35.74, -31.43 34.82 M-31.23 36.4 C-31.27 36.08, -31.31 35.76, -31.43 34.82 M-31.43 34.82 C-31.48 34.18, -31.52 33.54, -31.55 33.21 M-31.43 34.82 C-31.46 34.39, -31.49 33.97, -31.55 33.21 M-31.55 33.21 C-31.56 32.84, -31.57 32.47, -31.59 31.59 M-31.55 33.21 C-31.56 32.78, -31.57 32.35, -31.59 31.59 M-31.59 31.59 C-31.58 31.1, -31.57 30.61, -31.55 29.97 M-31.59 31.59 C-31.58 31.21, -31.57 30.84, -31.55 29.97 M-31.55 29.97 C-31.51 29.45, -31.47 28.93, -31.43 28.36 M-31.55 29.97 C-31.5 29.37, -31.46 28.78, -31.43 28.36 M-31.43 28.36 C-31.37 27.89, -31.31 27.41, -31.23 26.78 M-31.43 28.36 C-31.36 27.84, -31.29 27.31, -31.23 26.78 M-31.23 26.78 C-31.16 26.41, -31.09 26.04, -30.95 25.23 M-31.23 26.78 C-31.12 26.22, -31.02 25.65, -30.95 25.23 M-30.95 25.23 C-30.83 24.72, -30.71 24.21, -30.59 23.7 M-30.95 25.23 C-30.82 24.69, -30.7 24.15, -30.59 23.7 M-30.59 23.7 C-30.48 23.29, -30.36 22.89, -30.17 22.2 M-30.59 23.7 C-30.43 23.12, -30.26 22.53, -30.17 22.2 M-30.17 22.2 C-29.93 21.55, -29.69 20.91, -29.11 19.3 M-30.17 22.2 C-29.94 21.58, -29.71 20.96, -29.11 19.3 M-29.11 19.3 C-28.65 18.35, -28.19 17.39, -27.77 16.54 M-29.11 19.3 C-28.61 18.26, -28.11 17.23, -27.77 16.54 M-27.77 16.54 C-27.18 15.56, -26.59 14.59, -26.19 13.93 M-27.77 16.54 C-27.33 15.82, -26.89 15.09, -26.19 13.93 M-26.19 13.93 C-25.6 13.15, -25.02 12.36, -24.37 11.5 M-26.19 13.93 C-25.57 13.11, -24.95 12.28, -24.37 11.5 M-24.37 11.5 C-23.8 10.87, -23.23 10.24, -22.33 9.26 M-24.37 11.5 C-23.87 10.95, -23.37 10.4, -22.33 9.26 M-22.33 9.26 C-21.65 8.64, -20.97 8.02, -20.09 7.22 M-22.33 9.26 C-21.67 8.66, -21.01 8.06, -20.09 7.22 M-20.09 7.22 C-19.55 6.82, -19.02 6.42, -17.66 5.4 M-20.09 7.22 C-19.46 6.75, -18.83 6.28, -17.66 5.4 M-17.66 5.4 C-16.82 4.89, -15.98 4.38, -15.05 3.82 M-17.66 5.4 C-16.78 4.87, -15.91 4.34, -15.05 3.82 M-15.05 3.82 C-14.06 3.34, -13.07 2.86, -12.29 2.48 M-15.05 3.82 C-13.96 3.29, -12.87 2.76, -12.29 2.48 M-12.29 2.48 C-11.58 2.22, -10.86 1.96, -9.39 1.42 M-12.29 2.48 C-11.29 2.12, -10.28 1.75, -9.39 1.42 M-9.39 1.42 C-9.02 1.32, -8.65 1.21, -7.89 1 M-9.39 1.42 C-8.83 1.26, -8.27 1.1, -7.89 1 M-7.89 1 C-7.46 0.9, -7.02 0.79, -6.36 0.64 M-7.89 1 C-7.42 0.89, -6.96 0.78, -6.36 0.64 M-6.36 0.64 C-5.86 0.55, -5.36 0.46, -4.81 0.36 M-6.36 0.64 C-5.97 0.57, -5.58 0.5, -4.81 0.36 M-4.81 0.36 C-4.37 0.31, -3.93 0.25, -3.23 0.16 M-4.81 0.36 C-4.21 0.29, -3.62 0.21, -3.23 0.16 M-3.23 0.16 C-2.9 0.14, -2.57 0.11, -1.62 0.04 M-3.23 0.16 C-2.7 0.12, -2.18 0.08, -1.62 0.04 M-1.62 0.04 C-1.29 0.03, -0.96 0.02, 0 0 M-1.62 0.04 C-1.28 0.03, -0.94 0.02, 0 0 M0 0 C0 0, 0 0, 0 0 M0 0 C0 0, 0 0, 0 0 M0 0 C0 0, 0 0, 0 0 M0 0 C0 0, 0 0, 0 0" stroke="#000000" stroke-width="1" fill="none"></path></g></g><mask></mask><g transform="translate(25.683621933622078 184.31421356421447) rotate(0 67 21)"><text x="67" y="0" font-family="Helvetica, Segoe UI Emoji" font-size="36.20250408274359px" fill="#000000" text-anchor="middle" style="white-space: pre;" direction="ltr" dominant-baseline="text-before-edge">Console</text></g></svg>