<svg xmlns="http://www.w3.org/2000/svg" viewBox="950.27 1540.86 367.44 285.23" width="367" height="285"><polyline points="1099.79,1678.21 1120.96,1699.37 1074.79,1736.59 956.27,1641.69 1030.89,1641.69 1030.89,1641.69 1030.94,1643.95 1031.11,1646.17 1031.39,1648.37 1031.78,1650.53 1032.27,1652.66 1032.86,1654.74 1033.55,1656.78 1034.34,1658.77 1035.22,1660.72 1036.19,1662.61 1037.24,1664.45 1038.39,1666.23 1039.61,1667.95 1040.91,1669.61 1042.29,1671.20 1043.75,1672.73 1045.27,1674.18 1046.87,1675.56 1048.53,1676.87 1050.25,1678.09 1052.03,1679.23 1053.87,1680.29 1055.76,1681.26 1057.70,1682.14 1059.70,1682.93 1061.74,1683.62 1063.82,1684.21 1065.94,1684.70 1068.11,1685.09 1070.30,1685.37 1072.53,1685.53 1074.79,1685.59 1078.11,1685.50 1081.40,1685.16 1084.65,1684.58 1087.84,1683.76 1090.96,1682.72 1094.01,1681.44 1096.95,1679.93 1099.79,1678.21 1099.79,1678.21" fill="#669df6" stroke="#000000" stroke-width="1" opacity="1.0" stroke-linecap="round" stroke-linejoin="round"/><polyline points="1118.69,1641.69 1118.69,1641.69 1118.59,1644.86 1118.26,1648.00 1117.70,1651.10 1116.93,1654.15 1115.93,1657.13 1114.72,1660.05 1113.30,1662.87 1111.68,1665.60 1134.49,1688.63 1193.42,1641.69 1118.69,1641.69 1118.69,1641.69" fill="#669df6" stroke="#000000" stroke-width="1" opacity="1.0" stroke-linecap="round" stroke-linejoin="round"/><polyline points="1074.79,1546.86 956.27,1641.69 1030.89,1641.69 1030.89,1641.69 1030.94,1639.43 1031.11,1637.20 1031.39,1635.00 1031.78,1632.84 1032.27,1630.72 1032.86,1628.64 1033.55,1626.60 1034.34,1624.60 1035.22,1622.66 1036.19,1620.76 1037.24,1618.93 1038.39,1617.14 1039.61,1615.42 1040.91,1613.76 1042.29,1612.17 1043.75,1610.65 1045.27,1609.19 1046.87,1607.81 1048.53,1606.51 1050.25,1605.28 1052.03,1604.14 1053.87,1603.08 1055.76,1602.11 1057.70,1601.23 1059.70,1600.45 1061.74,1599.76 1063.82,1599.17 1065.94,1598.68 1068.11,1598.29 1070.30,1598.01 1072.53,1597.84 1074.79,1597.78 1077.05,1597.84 1079.28,1598.01 1081.47,1598.29 1083.64,1598.68 1085.76,1599.17 1087.84,1599.76 1089.88,1600.45 1091.88,1601.23 1093.82,1602.11 1095.71,1603.08 1097.55,1604.14 1099.33,1605.28 1101.05,1606.51 1102.71,1607.81 1104.31,1609.19 1105.83,1610.65 1107.29,1612.17 1108.67,1613.76 1109.97,1615.42 1111.19,1617.14 1112.34,1618.93 1113.39,1620.76 1114.36,1622.66 1115.24,1624.60 1116.03,1626.60 1116.72,1628.64 1117.31,1630.72 1117.80,1632.84 1118.19,1635.00 1118.47,1637.20 1118.64,1639.43 1118.69,1641.69 1193.20,1641.69 1074.79,1546.86 1074.79,1546.86" fill="#aecbfa" stroke="#000000" stroke-width="1" opacity="1.0" stroke-linecap="round" stroke-linejoin="round"/><polyline points="1074.79,1615.00 1074.79,1615.00 1077.42,1615.12 1080.00,1615.49 1082.52,1616.12 1084.96,1616.99 1087.30,1618.10 1089.52,1619.44 1091.61,1621.00 1093.54,1622.79 1095.37,1624.77 1096.96,1626.88 1098.31,1629.11 1099.42,1631.43 1100.28,1633.83 1100.91,1636.29 1101.30,1638.79 1101.45,1641.32 1101.36,1643.84 1101.02,1646.35 1100.45,1648.83 1099.63,1651.25 1098.57,1653.60 1097.27,1655.86 1095.73,1658.02 1093.95,1660.04 1093.54,1660.44 1093.54,1660.44 1091.54,1662.27 1089.40,1663.85 1087.15,1665.19 1084.81,1666.29 1082.39,1667.14 1079.91,1667.76 1077.39,1668.13 1074.86,1668.26 1072.32,1668.15 1069.81,1667.79 1067.33,1667.20 1064.90,1666.36 1062.56,1665.28 1060.30,1663.96 1058.16,1662.39 1056.15,1660.59 1056.00,1660.44 1056.00,1660.44 1054.17,1658.46 1052.59,1656.35 1051.24,1654.12 1050.13,1651.80 1049.26,1649.40 1048.63,1646.94 1048.24,1644.43 1048.09,1641.91 1048.19,1639.39 1048.52,1636.88 1049.10,1634.40 1049.91,1631.98 1050.97,1629.63 1052.27,1627.36 1053.81,1625.21 1055.60,1623.19 1056.00,1622.79 1056.00,1622.79 1057.95,1621.01 1060.04,1619.45 1062.27,1618.11 1064.61,1617.00 1067.06,1616.13 1069.58,1615.50 1072.16,1615.12 1074.79,1615.00 1074.79,1615.00" fill="#4285f4" stroke="#000000" stroke-width="1" opacity="1.0" stroke-linecap="round" stroke-linejoin="round"/><text x="966.87" y="1777.52" font-size="33.4285714285714" fill="#000000" opacity="1.0" font-family="sans-serif">Vision Product
Search</text></svg>