<svg xmlns="http://www.w3.org/2000/svg" viewBox="-370.71 620.84 406.14 289.95" width="406" height="290"><polyline points="-212.02,776.69 -212.02,776.69 -210.01,776.78 -208.06,777.07 -206.18,777.53 -204.38,778.16 -202.67,778.96 -201.05,779.90 -199.54,780.98 -198.15,782.19 -196.88,783.53 -195.75,784.98 -194.77,786.53 -193.94,788.17 -193.29,789.90 -192.80,791.70 -192.51,793.56 -192.40,795.48 -192.51,797.40 -192.80,799.27 -193.29,801.07 -193.94,802.80 -194.77,804.44 -195.75,805.99 -196.88,807.44 -198.15,808.77 -199.54,809.99 -201.05,811.07 -202.67,812.01 -204.38,812.80 -206.18,813.44 -208.06,813.90 -210.01,814.18 -212.02,814.28 -214.02,814.18 -215.97,813.90 -217.85,813.44 -219.66,812.80 -221.37,812.01 -222.99,811.07 -224.50,809.99 -225.89,808.77 -227.16,807.44 -228.28,805.99 -229.27,804.44 -230.09,802.80 -230.75,801.07 -231.23,799.27 -231.53,797.40 -231.63,795.48 -231.53,793.56 -231.23,791.69 -230.75,789.88 -230.09,788.15 -229.27,786.51 -228.28,784.96 -227.16,783.51 -225.89,782.18 -224.50,780.97 -222.99,779.89 -221.37,778.95 -219.66,778.16 -217.85,777.53 -215.97,777.07 -214.02,776.78 -212.02,776.69 -212.02,776.69" fill="none" stroke="#000000" stroke-width="1" opacity="1.0" stroke-linecap="round" stroke-linejoin="round"/><polyline points="-184.76,752.31 -175.10,768.41 -163.87,768.41 -163.87,768.41 -163.32,767.05 -162.66,765.74 -161.91,764.49 -161.06,763.31 -160.12,762.19 -159.10,761.15 -158.00,760.18 -156.82,759.29 -155.58,758.49 -154.27,757.79 -152.90,757.18 -151.47,756.67 -150.00,756.26 -148.48,755.96 -146.92,755.78 -145.32,755.72 -143.32,755.82 -141.37,756.10 -139.49,756.57 -137.69,757.20 -135.97,757.99 -134.35,758.93 -132.84,760.02 -131.45,761.23 -130.19,762.57 -129.06,764.01 -128.07,765.56 -127.25,767.21 -126.59,768.93 -126.11,770.73 -125.81,772.60 -125.71,774.52 -125.81,776.44 -126.11,778.31 -126.59,780.11 -127.25,781.83 -128.07,783.48 -129.06,785.03 -130.19,786.47 -131.45,787.81 -132.84,789.02 -134.35,790.10 -135.97,791.05 -137.69,791.84 -139.49,792.47 -141.37,792.93 -143.32,793.22 -145.32,793.32 -146.89,793.26 -148.43,793.08 -149.93,792.79 -151.38,792.40 -152.79,791.90 -154.14,791.31 -155.44,790.62 -156.68,789.84 -157.84,788.98 -158.94,788.04 -159.96,787.03 -160.90,785.94 -161.76,784.79 -162.52,783.58 -163.19,782.31 -163.76,780.99 -176.45,780.99 -176.45,780.99 -177.91,780.87 -179.32,780.58 -180.67,780.12 -181.94,779.50 -183.11,778.73 -184.17,777.81 -185.11,776.76 -185.90,775.59 -196.60,757.75 -227.48,757.75 -238.14,775.59 -238.14,775.59 -238.93,776.75 -239.87,777.80 -240.93,778.71 -242.10,779.49 -243.37,780.11 -244.72,780.57 -246.13,780.87 -247.59,780.99 -260.27,780.99 -260.27,780.99 -260.84,782.31 -261.50,783.58 -262.26,784.79 -263.11,785.94 -264.05,787.03 -265.07,788.04 -266.17,788.98 -267.33,789.84 -268.57,790.62 -269.87,791.31 -271.22,791.90 -272.63,792.40 -274.09,792.79 -275.60,793.08 -277.14,793.26 -278.71,793.32 -280.72,793.22 -282.67,792.93 -284.55,792.47 -286.35,791.84 -288.07,791.05 -289.68,790.10 -291.19,789.02 -292.59,787.81 -293.85,786.47 -294.98,785.03 -295.96,783.48 -296.79,781.83 -297.45,780.11 -297.93,778.31 -298.23,776.44 -298.33,774.52 -298.23,772.60 -297.93,770.73 -297.45,768.93 -296.79,767.21 -295.96,765.56 -294.98,764.01 -293.85,762.57 -292.59,761.23 -291.19,760.02 -289.68,758.93 -288.07,757.99 -286.35,757.20 -284.55,756.57 -282.67,756.10 -280.72,755.82 -278.71,755.72 -277.12,755.78 -275.56,755.96 -274.03,756.26 -272.56,756.67 -271.13,757.18 -269.76,757.79 -268.45,758.49 -267.20,759.29 -266.02,760.18 -264.92,761.15 -263.90,762.19 -262.96,763.31 -262.12,764.49 -261.37,765.74 -260.71,767.05 -260.17,768.41 -248.94,768.41 -238.95,751.74 -254.37,726.12 -279.60,726.12 -279.60,726.12 -280.11,727.37 -280.71,728.57 -281.40,729.72 -282.17,730.81 -283.01,731.85 -283.92,732.84 -284.91,733.75 -285.95,734.60 -287.06,735.38 -288.23,736.08 -289.45,736.71 -290.72,737.25 -292.03,737.71 -293.38,738.07 -294.77,738.35 -296.20,738.52 -298.08,738.60 -298.08,738.60 -300.09,738.50 -302.03,738.21 -303.91,737.75 -305.72,737.12 -307.43,736.33 -309.05,735.38 -310.56,734.30 -311.95,733.09 -313.22,731.75 -314.35,730.31 -315.33,728.76 -316.15,727.11 -316.81,725.39 -317.30,723.58 -317.59,721.72 -317.69,719.80 -317.59,717.88 -317.30,716.01 -316.81,714.21 -316.15,712.48 -315.33,710.84 -314.35,709.29 -313.22,707.84 -311.95,706.51 -310.56,705.30 -309.05,704.21 -307.43,703.27 -305.72,702.48 -303.91,701.85 -302.03,701.38 -300.09,701.10 -298.08,701.00 -296.50,701.06 -294.95,701.24 -293.44,701.53 -291.97,701.93 -290.55,702.43 -289.19,703.04 -287.88,703.74 -286.64,704.52 -285.46,705.40 -284.36,706.35 -283.34,707.38 -282.40,708.48 -281.55,709.65 -280.79,710.88 -280.13,712.17 -279.57,713.51 -255.30,713.51 -239.45,687.61 -248.90,671.86 -260.17,671.86 -260.17,671.86 -260.72,673.20 -261.39,674.49 -262.14,675.72 -262.99,676.89 -263.93,677.99 -264.95,679.02 -266.05,679.98 -267.22,680.85 -268.46,681.64 -269.77,682.33 -271.13,682.94 -272.55,683.44 -274.02,683.84 -275.54,684.13 -277.09,684.31 -278.68,684.37 -280.69,684.27 -282.63,683.99 -284.51,683.53 -286.32,682.89 -288.03,682.10 -289.65,681.16 -291.16,680.08 -292.55,678.86 -293.82,677.53 -294.94,676.08 -295.93,674.53 -296.75,672.89 -297.41,671.16 -297.89,669.36 -298.19,667.50 -298.29,665.57 -298.19,663.65 -297.89,661.79 -297.41,659.99 -296.75,658.26 -295.93,656.62 -294.94,655.07 -293.82,653.62 -292.55,652.29 -291.16,651.07 -289.65,649.99 -288.03,649.05 -286.32,648.26 -284.51,647.62 -282.63,647.16 -280.69,646.87 -278.68,646.78 -277.10,646.84 -275.55,647.02 -274.03,647.31 -272.57,647.71 -271.15,648.21 -269.79,648.81 -268.48,649.51 -267.24,650.30 -266.06,651.17 -264.96,652.13 -263.94,653.16 -263.00,654.26 -262.15,655.43 -261.39,656.66 -260.73,657.94 -260.17,659.29 -247.52,659.29 -247.52,659.29 -246.07,659.40 -244.66,659.69 -243.31,660.15 -242.04,660.77 -240.87,661.54 -239.80,662.44 -238.86,663.48 -238.06,664.65 -227.76,681.81 -196.14,681.81 -185.83,664.65 -185.83,664.65 -185.04,663.48 -184.10,662.44 -183.04,661.52 -181.86,660.75 -180.60,660.13 -179.25,659.66 -177.84,659.37 -176.38,659.25 -163.73,659.25 -163.73,659.25 -163.17,657.91 -162.51,656.62 -161.75,655.39 -160.90,654.22 -159.96,653.12 -158.94,652.09 -157.84,651.14 -156.67,650.26 -155.43,649.48 -154.12,648.78 -152.76,648.18 -151.34,647.67 -149.87,647.27 -148.36,646.98 -146.81,646.80 -145.22,646.74 -143.21,646.84 -141.26,647.12 -139.38,647.59 -137.58,648.22 -135.86,649.01 -134.25,649.95 -132.74,651.04 -131.34,652.25 -130.08,653.58 -128.95,655.03 -127.97,656.58 -127.14,658.22 -126.48,659.95 -126.00,661.75 -125.70,663.62 -125.60,665.54 -125.70,667.46 -126.00,669.33 -126.48,671.13 -127.14,672.85 -127.97,674.50 -128.95,676.05 -130.08,677.49 -131.34,678.83 -132.74,680.04 -134.25,681.12 -135.86,682.07 -137.58,682.86 -139.38,683.49 -141.26,683.95 -143.21,684.24 -145.22,684.34 -146.80,684.28 -148.35,684.10 -149.86,683.81 -151.33,683.41 -152.74,682.90 -154.11,682.30 -155.42,681.60 -156.66,680.81 -157.83,679.94 -158.93,678.99 -159.96,677.96 -160.90,676.86 -161.75,675.69 -162.51,674.46 -163.17,673.17 -163.73,671.83 -174.99,671.83 -184.80,688.14 -169.56,713.47 -141.59,713.47 -141.59,713.47 -141.08,712.23 -140.48,711.03 -139.79,709.88 -139.03,708.78 -138.19,707.74 -137.27,706.76 -136.29,705.84 -135.24,704.99 -134.13,704.21 -132.97,703.50 -131.75,702.88 -130.48,702.33 -129.17,701.87 -127.81,701.50 -126.42,701.22 -125.00,701.04 -123.11,700.97 -123.11,700.97 -121.11,701.06 -119.16,701.35 -117.28,701.81 -115.48,702.44 -113.76,703.24 -112.15,704.18 -110.64,705.26 -109.24,706.47 -107.98,707.81 -106.85,709.26 -105.87,710.81 -105.04,712.45 -104.38,714.18 -103.90,715.98 -103.60,717.84 -103.50,719.76 -103.60,721.68 -103.90,723.55 -104.38,725.35 -105.04,727.08 -105.87,728.72 -106.85,730.27 -107.98,731.72 -109.24,733.05 -110.64,734.27 -112.15,735.35 -113.76,736.29 -115.48,737.08 -117.28,737.71 -119.16,738.18 -121.11,738.46 -123.11,738.56 -124.70,738.50 -126.25,738.32 -127.76,738.03 -129.22,737.63 -130.64,737.13 -132.01,736.52 -133.31,735.83 -134.56,735.04 -135.73,734.16 -136.83,733.21 -137.85,732.18 -138.79,731.08 -139.65,729.91 -140.41,728.68 -141.07,727.39 -141.63,726.05 -168.63,726.05 -184.76,752.31 -184.76,752.31" fill="none" stroke="#000000" stroke-width="1" opacity="1.0" stroke-linecap="round" stroke-linejoin="round"/><polyline points="-212.02,626.84 -212.02,626.84 -210.01,626.94 -208.06,627.23 -206.18,627.69 -204.38,628.32 -202.67,629.11 -201.05,630.06 -199.54,631.14 -198.15,632.35 -196.88,633.69 -195.75,635.13 -194.77,636.68 -193.94,638.33 -193.29,640.05 -192.80,641.85 -192.51,643.72 -192.40,645.64 -192.51,647.56 -192.80,649.43 -193.29,651.23 -193.94,652.95 -194.77,654.60 -195.75,656.15 -196.88,657.59 -198.15,658.93 -199.54,660.14 -201.05,661.23 -202.67,662.17 -204.38,662.96 -206.18,663.59 -208.06,664.06 -210.01,664.34 -212.02,664.44 -214.02,664.34 -215.97,664.06 -217.85,663.59 -219.66,662.96 -221.37,662.17 -222.99,661.23 -224.50,660.14 -225.89,658.93 -227.16,657.59 -228.28,656.15 -229.27,654.60 -230.09,652.95 -230.75,651.23 -231.23,649.43 -231.53,647.56 -231.63,645.64 -231.53,643.72 -231.23,641.85 -230.75,640.05 -230.09,638.33 -229.27,636.68 -228.28,635.13 -227.16,633.69 -225.89,632.35 -224.50,631.14 -222.99,630.06 -221.37,629.11 -219.66,628.32 -217.85,627.69 -215.97,627.23 -214.02,626.94 -212.02,626.84 -212.02,626.84" fill="none" stroke="#000000" stroke-width="1" opacity="1.0" stroke-linecap="round" stroke-linejoin="round"/><text x="-364.71" y="860.73" font-size="33.94285714285716" fill="#000000" opacity="1.0" font-family="sans-serif">Network Intelligence
Center</text></svg>