<svg xmlns="http://www.w3.org/2000/svg" viewBox="392.60 478.37 172.00 84.00" width="172" height="84"><rect x="398.60" y="484.37" width="160.00" height="72.00" rx="0" stroke="#4285f4" stroke-width="2" opacity="1.0" fill="#FFF"/><text x="463.60" y="525.37" font-size="12" fill="#000000" opacity="1.0" font-family="sans-serif">Vault API</text><polyline points="443.64,507.30 420.74,507.30 420.74,507.30 420.25,507.34 419.80,507.49 419.39,507.71 419.03,508.00 418.74,508.36 418.52,508.77 418.38,509.22 418.33,509.71 418.33,512.10 416.30,512.10 416.30,512.10 416.11,512.14 415.95,512.25 415.84,512.41 415.81,512.60 415.81,516.96 415.81,516.96 415.84,517.16 415.95,517.32 416.11,517.42 416.30,517.46 418.33,517.46 418.33,523.21 416.30,523.21 416.30,523.21 416.11,523.25 415.95,523.36 415.84,523.52 415.81,523.71 415.81,528.06 415.81,528.06 415.84,528.26 415.95,528.41 416.11,528.52 416.30,528.56 418.33,528.56 418.33,530.89 418.33,530.89 418.38,531.37 418.52,531.82 418.74,532.23 419.03,532.59 419.39,532.89 419.80,533.11 420.25,533.25 420.74,533.30 443.64,533.30 443.64,533.30 444.12,533.25 444.57,533.11 444.98,532.89 445.34,532.59 445.63,532.23 445.86,531.82 446.00,531.37 446.05,530.89 446.05,509.71 446.05,509.71 446.00,509.22 445.86,508.77 445.63,508.36 445.34,508.00 444.98,507.71 444.57,507.49 444.12,507.34 443.64,507.30 443.64,507.30" fill="#4285f4" stroke="none" stroke-width="1" opacity="1.0" stroke-linecap="round" stroke-linejoin="round"/><polyline points="446.05,530.89 446.05,517.20 440.87,512.38 440.87,512.38 440.85,512.39 440.81,512.42 440.75,512.47 440.66,512.54 440.43,512.73 440.12,512.98 439.75,513.27 439.33,513.62 438.88,513.99 438.39,514.39 437.37,515.23 436.38,516.07 435.93,516.47 435.51,516.84 435.14,517.17 434.84,517.46 434.30,517.20 433.77,517.01 433.25,516.88 432.76,516.82 432.28,516.82 431.82,516.87 431.38,516.97 430.98,517.11 430.59,517.30 430.24,517.52 429.92,517.77 429.64,518.04 429.39,518.34 429.17,518.66 429.00,518.98 428.87,519.32 428.77,519.66 428.70,519.99 428.63,520.62 428.63,521.20 428.68,521.71 428.75,522.14 428.79,522.31 428.83,522.46 428.87,522.58 428.90,522.67 428.92,522.72 428.92,522.74 423.59,528.13 428.85,533.28 443.65,533.28 443.65,533.28 444.13,533.24 444.58,533.10 444.99,532.88 445.34,532.59 445.63,532.23 445.86,531.82 446.00,531.37 446.05,530.89 446.05,530.89" fill="#2c75ce" stroke="none" stroke-width="1" opacity="1.0" stroke-linecap="round" stroke-linejoin="round"/><polyline points="436.52,522.96 436.52,522.96 436.50,522.98 436.85,522.39 437.11,521.75 437.21,521.42 437.28,521.08 437.32,520.73 437.33,520.37 437.32,520.01 437.27,519.65 437.20,519.30 437.10,518.95 436.98,518.62 436.83,518.30 436.66,517.99 436.46,517.70 440.80,513.67 440.80,513.67 440.94,513.51 441.04,513.33 441.11,513.13 441.14,512.93 441.12,512.73 441.07,512.53 440.98,512.34 440.85,512.17 440.69,512.03 440.51,511.93 440.31,511.86 440.11,511.83 439.91,511.84 439.71,511.90 439.53,511.99 439.36,512.12 434.89,516.27 434.89,516.27 435.21,516.48 434.88,516.27 434.52,516.08 434.15,515.92 433.77,515.79 433.37,515.68 432.96,515.60 432.54,515.55 432.11,515.54 431.68,515.55 431.27,515.60 430.86,515.68 430.47,515.78 430.09,515.92 429.73,516.08 429.38,516.26 429.05,516.47 429.34,516.27 424.88,512.12 424.88,512.12 424.71,511.99 424.52,511.90 424.32,511.84 424.12,511.83 423.92,511.86 423.73,511.93 423.54,512.03 423.38,512.17 423.25,512.34 423.16,512.53 423.11,512.73 423.10,512.93 423.13,513.13 423.19,513.33 423.30,513.51 423.44,513.67 427.77,517.70 427.77,517.70 427.58,517.99 427.40,518.30 427.25,518.62 427.12,518.95 427.02,519.30 426.95,519.65 426.90,520.01 426.89,520.37 426.90,520.73 426.94,521.08 427.01,521.42 427.10,521.75 427.36,522.39 427.71,522.98 423.58,526.83 423.58,526.83 423.43,526.99 423.33,527.17 423.26,527.36 423.24,527.57 423.25,527.77 423.30,527.97 423.39,528.15 423.52,528.32 423.69,528.47 423.88,528.57 424.08,528.64 424.30,528.66 424.49,528.64 424.68,528.59 424.85,528.50 425.02,528.38 429.26,524.43 429.26,524.43 429.90,524.76 430.60,525.01 431.34,525.16 432.11,525.21 432.67,525.18 433.21,525.10 433.74,524.97 434.23,524.79 434.71,524.57 435.15,524.30 435.56,524.00 435.93,523.66 435.48,524.07 434.98,524.42 439.23,528.38 439.23,528.38 439.39,528.50 439.57,528.59 439.76,528.64 439.95,528.66 440.16,528.64 440.36,528.57 440.56,528.47 440.73,528.32 440.86,528.15 440.95,527.97 441.00,527.77 441.01,527.57 440.98,527.36 440.92,527.17 440.81,526.99 440.67,526.83 436.52,522.96 436.52,522.96" fill="#fff" stroke="none" stroke-width="1" opacity="1.0" stroke-linecap="round" stroke-linejoin="round"/><polyline points="435.34,516.58 435.34,516.58 435.34,516.58 435.34,516.58 435.34,516.58" fill="#fff" stroke="none" stroke-width="1" opacity="1.0" stroke-linecap="round" stroke-linejoin="round"/><polyline points="428.88,516.58 428.88,516.58" fill="#fff" stroke="none" stroke-width="1" opacity="1.0" stroke-linecap="round" stroke-linejoin="round"/><polyline points="432.11,522.64 432.11,522.64 431.62,522.60 431.15,522.47 430.74,522.26 430.38,521.98 430.08,521.65 429.85,521.26 429.71,520.83 429.66,520.37 429.71,519.91 429.85,519.49 430.08,519.10 430.38,518.76 430.74,518.49 431.16,518.28 431.62,518.15 432.11,518.10 432.61,518.15 433.07,518.28 433.48,518.49 433.85,518.76 434.14,519.10 434.37,519.49 434.51,519.91 434.56,520.37 434.51,520.83 434.37,521.26 434.14,521.65 433.84,521.98 433.48,522.26 433.06,522.47 432.60,522.60 432.11,522.64 432.11,522.64" fill="#fff" stroke="none" stroke-width="1" opacity="1.0" stroke-linecap="round" stroke-linejoin="round"/><polyline points="435.99,523.60 436.07,523.52 435.99,523.60 435.99,523.60" fill="#fff" stroke="none" stroke-width="1" opacity="1.0" stroke-linecap="round" stroke-linejoin="round"/><polyline points="436.36,523.16 436.36,523.16 436.35,523.18 436.36,523.16 436.36,523.16" fill="#fff" stroke="none" stroke-width="1" opacity="1.0" stroke-linecap="round" stroke-linejoin="round"/><polyline points="436.21,523.35 436.17,523.39 436.21,523.35 436.21,523.35" fill="#fff" stroke="none" stroke-width="1" opacity="1.0" stroke-linecap="round" stroke-linejoin="round"/><polyline points="432.11,522.64 432.11,522.64 431.62,522.60 431.15,522.47 430.74,522.26 430.38,521.98 430.08,521.65 429.85,521.26 429.71,520.83 429.66,520.37 429.71,519.91 429.85,519.49 430.08,519.10 430.38,518.76 430.74,518.49 431.16,518.28 431.62,518.15 432.11,518.10 432.61,518.15 433.07,518.28 433.48,518.49 433.85,518.76 434.14,519.10 434.37,519.49 434.51,519.91 434.56,520.37 434.51,520.83 434.37,521.26 434.14,521.65 433.84,521.98 433.48,522.26 433.06,522.47 432.60,522.60 432.11,522.64 432.11,522.64" fill="#2c75ce" stroke="none" stroke-width="1" opacity="1.0" stroke-linecap="round" stroke-linejoin="round"/><polyline points="442.80,523.77 442.80,523.77 442.59,523.75 442.39,523.68 442.22,523.59 442.06,523.46 441.93,523.30 441.83,523.12 441.77,522.93 441.75,522.71 441.75,517.95 441.75,517.95 441.77,517.74 441.83,517.54 441.93,517.36 442.06,517.20 442.22,517.08 442.39,516.98 442.59,516.92 442.80,516.90 443.02,516.92 443.21,516.98 443.39,517.08 443.55,517.20 443.68,517.36 443.77,517.54 443.84,517.74 443.86,517.95 443.86,522.70 443.86,522.70 443.84,522.92 443.77,523.12 443.68,523.30 443.55,523.46 443.39,523.59 443.21,523.68 443.02,523.75 442.80,523.77 442.80,523.77" fill="#d7d5e7" stroke="none" stroke-width="1" opacity="1.0" stroke-linecap="round" stroke-linejoin="round"/></svg>