<svg version="1.1" xmlns="http://www.w3.org/2000/svg" viewBox="0 0 132.38618299696236 122.96217685275587" width="132.38618299696236" height="122.96217685275587">
  <!-- svg-source:excalidraw -->
  
  <defs>
    
    
  </defs>
  <g stroke-linecap="round" transform="translate(102.16495768229242 49.821216159396954) rotate(0 12.110612657334968 12.110612657334855)"><path d="M10.84 0.24 C13.22 0.02, 17.05 1.3, 19.28 2.81 C21.52 4.32, 23.59 6.86, 24.26 9.31 C24.94 11.75, 24.62 15.24, 23.34 17.48 C22.07 19.73, 18.97 21.71, 16.6 22.77 C14.24 23.83, 11.67 24.53, 9.18 23.86 C6.68 23.2, 3.18 20.97, 1.64 18.78 C0.09 16.6, -0.4 13.4, -0.08 10.75 C0.25 8.1, 1.65 4.64, 3.58 2.9 C5.52 1.16, 10.08 0.77, 11.52 0.29 C12.95 -0.18, 12.16 -0.19, 12.22 0.05 M11.36 -0.58 C13.68 -0.96, 17.27 0.25, 19.42 2 C21.56 3.75, 23.74 7.35, 24.25 9.92 C24.76 12.48, 23.68 15.01, 22.47 17.37 C21.26 19.74, 19.5 23.13, 17.01 24.11 C14.51 25.1, 9.98 24.19, 7.47 23.28 C4.97 22.36, 3.23 20.73, 1.99 18.64 C0.74 16.56, -0.34 13.39, 0.01 10.75 C0.37 8.12, 2.15 4.61, 4.12 2.82 C6.09 1.02, 10.63 0.4, 11.85 0.01 C13.08 -0.38, 11.47 0.29, 11.45 0.48" stroke="none" stroke-width="0" fill="#4285f4"></path><path d="M10.82 0.15 C13.32 -0.31, 16.86 0.94, 19.08 2.3 C21.31 3.66, 23.54 5.81, 24.16 8.3 C24.77 10.79, 23.96 14.8, 22.77 17.23 C21.58 19.66, 19.32 21.69, 17.03 22.87 C14.73 24.05, 11.48 24.96, 9 24.31 C6.53 23.67, 3.62 21.1, 2.2 19.02 C0.78 16.93, 0.3 14.37, 0.47 11.81 C0.64 9.24, 1.41 5.68, 3.23 3.65 C5.04 1.62, 9.81 0.14, 11.35 -0.37 C12.9 -0.88, 12.48 0.36, 12.5 0.57 M12.29 -0.14 C14.79 -0.43, 18.11 0.55, 20.1 2.27 C22.09 3.99, 23.82 7.45, 24.24 10.18 C24.67 12.91, 23.9 16.41, 22.65 18.63 C21.4 20.86, 19.22 22.81, 16.75 23.54 C14.29 24.27, 10.41 23.91, 7.87 23.01 C5.32 22.11, 2.68 20.39, 1.47 18.15 C0.25 15.91, 0.15 12.04, 0.56 9.59 C0.98 7.14, 2.13 5.03, 3.97 3.46 C5.82 1.88, 10.4 0.68, 11.64 0.15 C12.89 -0.37, 11.38 0.05, 11.45 0.32" stroke="#1864ab" stroke-width="1" fill="none"></path></g><g stroke-linecap="round" transform="translate(6 6) rotate(0 9.625108506944343 9.62510850694423)"><path d="M9.75 -0.31 C11.7 -0.45, 14.96 0.81, 16.61 2.27 C18.27 3.72, 19.43 6.38, 19.68 8.41 C19.94 10.44, 19.43 12.73, 18.16 14.44 C16.9 16.15, 14.15 17.99, 12.09 18.68 C10.03 19.36, 7.73 19.29, 5.81 18.53 C3.9 17.77, 1.57 15.89, 0.59 14.1 C-0.38 12.32, -0.51 9.81, -0.04 7.82 C0.44 5.82, 1.71 3.46, 3.45 2.13 C5.19 0.81, 9.18 0.19, 10.42 -0.13 C11.66 -0.44, 10.94 0.1, 10.91 0.25 M11.43 0.1 C13.28 0.37, 15.56 1.91, 16.97 3.72 C18.37 5.53, 19.96 8.86, 19.86 10.94 C19.76 13.02, 17.98 14.76, 16.38 16.21 C14.79 17.66, 12.3 19.42, 10.28 19.64 C8.25 19.85, 6 18.6, 4.24 17.5 C2.48 16.41, 0.24 15.08, -0.28 13.06 C-0.8 11.04, 0.16 7.33, 1.11 5.38 C2.06 3.43, 3.53 2.18, 5.43 1.36 C7.34 0.54, 11.59 0.63, 12.54 0.47 C13.49 0.31, 11.24 0.17, 11.13 0.4" stroke="none" stroke-width="0" fill="#4285f4"></path><path d="M7.87 0.39 C9.72 -0.05, 12.1 0.68, 13.83 1.64 C15.55 2.59, 17.43 4.22, 18.23 6.13 C19.02 8.03, 19.24 11.1, 18.59 13.08 C17.93 15.07, 15.99 17.06, 14.27 18.05 C12.56 19.05, 10.32 19.33, 8.32 19.07 C6.33 18.81, 3.74 17.99, 2.3 16.49 C0.87 14.98, -0.31 12.15, -0.28 10.02 C-0.25 7.9, 1.13 5.36, 2.5 3.76 C3.87 2.16, 6.79 1, 7.94 0.43 C9.09 -0.13, 9.27 0.27, 9.39 0.38 M7.94 -0.02 C9.73 -0.43, 12.43 -0.46, 14.31 0.73 C16.19 1.92, 18.43 4.95, 19.25 7.12 C20.07 9.28, 19.95 11.79, 19.23 13.73 C18.51 15.67, 16.84 17.86, 14.91 18.74 C12.98 19.62, 9.69 19.58, 7.63 19.01 C5.57 18.43, 3.94 16.93, 2.56 15.3 C1.18 13.67, -0.64 11.18, -0.65 9.22 C-0.67 7.27, 0.96 5, 2.44 3.58 C3.93 2.16, 7.36 1.36, 8.27 0.7 C9.19 0.04, 7.93 -0.49, 7.91 -0.4" stroke="#1864ab" stroke-width="1" fill="none"></path></g><g stroke-linecap="round" transform="translate(6.0286441379116695 52.3335333930122) rotate(0 9.625108506944343 9.62510850694423)"><path d="M9.46 -0.41 C11.42 -0.72, 13.67 0.21, 15.23 1.46 C16.8 2.7, 18.42 4.92, 18.85 7.04 C19.29 9.16, 18.81 12.24, 17.85 14.18 C16.89 16.12, 14.84 17.95, 13.08 18.68 C11.33 19.4, 9.18 19.19, 7.31 18.53 C5.45 17.87, 3.1 16.3, 1.88 14.72 C0.65 13.14, -0.25 10.98, -0.03 9.04 C0.18 7.1, 1.62 4.67, 3.19 3.09 C4.75 1.5, 8.16 0.04, 9.33 -0.44 C10.51 -0.92, 10.15 0, 10.22 0.22 M11.1 -0.46 C13.12 -0.29, 16.42 1.6, 17.72 3.25 C19.03 4.9, 19.21 7.28, 18.94 9.44 C18.67 11.6, 17.49 14.56, 16.1 16.21 C14.72 17.85, 12.54 19.09, 10.62 19.31 C8.7 19.52, 6.25 18.58, 4.58 17.5 C2.91 16.43, 1.34 14.86, 0.61 12.84 C-0.12 10.82, -0.61 7.42, 0.19 5.4 C0.99 3.38, 3.57 1.55, 5.41 0.74 C7.25 -0.07, 10.29 0.54, 11.22 0.53 C12.16 0.52, 10.9 0.49, 11.01 0.7" stroke="none" stroke-width="0" fill="#4285f4"></path><path d="M9.97 0.47 C11.86 0.29, 13.86 0.66, 15.47 1.9 C17.08 3.15, 19.22 5.89, 19.6 7.92 C19.99 9.96, 18.94 12.38, 17.78 14.12 C16.63 15.85, 14.53 17.54, 12.67 18.32 C10.81 19.11, 8.52 19.54, 6.63 18.84 C4.73 18.14, 2.42 16.01, 1.31 14.12 C0.2 12.24, -0.49 9.52, -0.05 7.53 C0.4 5.54, 2.33 3.39, 4 2.19 C5.67 1, 8.9 0.76, 10 0.36 C11.1 -0.04, 10.52 -0.23, 10.62 -0.19 M11.62 -0.08 C13.42 0.23, 15.38 1.8, 16.73 3.51 C18.08 5.22, 19.75 8.02, 19.74 10.18 C19.73 12.34, 18.08 14.94, 16.68 16.47 C15.28 17.99, 13.48 18.98, 11.34 19.32 C9.21 19.65, 5.82 19.65, 3.89 18.48 C1.96 17.31, 0.34 14.38, -0.22 12.29 C-0.78 10.2, -0.42 7.83, 0.53 5.95 C1.48 4.07, 3.65 1.83, 5.48 1 C7.31 0.16, 10.59 1.02, 11.5 0.92 C12.42 0.83, 10.93 0.37, 10.97 0.44" stroke="#1864ab" stroke-width="1" fill="none"></path></g><g stroke-linecap="round" transform="translate(6.377426147461847 97.71195983886719) rotate(0 9.625108506944343 9.62510850694423)"><path d="M7.45 0.2 C9.34 -0.4, 11.87 0.06, 13.67 1.08 C15.46 2.11, 17.4 4.51, 18.2 6.34 C18.99 8.17, 18.99 10.17, 18.42 12.06 C17.86 13.95, 16.43 16.49, 14.81 17.68 C13.19 18.86, 10.81 19.45, 8.68 19.18 C6.56 18.9, 3.52 17.51, 2.08 16.02 C0.63 14.53, 0.03 12.31, 0.02 10.22 C0 8.13, 0.73 5.09, 1.99 3.48 C3.25 1.86, 6.47 1.08, 7.59 0.53 C8.71 -0.03, 8.69 0.13, 8.71 0.15 M10.44 0.01 C12.34 0.03, 14.36 1.54, 15.91 2.98 C17.47 4.42, 19.49 6.59, 19.79 8.65 C20.09 10.72, 18.96 13.73, 17.73 15.38 C16.5 17.03, 14.48 17.94, 12.43 18.56 C10.38 19.19, 7.23 19.99, 5.44 19.15 C3.65 18.31, 2.56 15.38, 1.69 13.55 C0.82 11.71, -0.05 10.17, 0.21 8.13 C0.48 6.09, 1.67 2.72, 3.29 1.32 C4.91 -0.08, 8.76 -0.15, 9.93 -0.27 C11.09 -0.39, 10.37 0.3, 10.3 0.62" stroke="none" stroke-width="0" fill="#4285f4"></path><path d="M9.17 -0.4 C11.02 -0.58, 13.82 0.34, 15.4 1.72 C16.98 3.1, 18.24 5.78, 18.62 7.88 C19.01 9.99, 18.55 12.63, 17.72 14.35 C16.89 16.07, 15.44 17.51, 13.65 18.2 C11.85 18.9, 8.98 19.04, 6.94 18.54 C4.9 18.04, 2.5 16.86, 1.39 15.22 C0.28 13.59, 0.02 10.93, 0.3 8.74 C0.59 6.54, 1.48 3.5, 3.09 2.05 C4.7 0.6, 8.78 0.35, 9.96 0.03 C11.15 -0.3, 10.18 -0.06, 10.19 0.1 M10.97 -0.49 C12.99 -0.41, 14.9 0.67, 16.17 2.24 C17.44 3.8, 18.43 6.73, 18.61 8.91 C18.79 11.1, 18.3 13.7, 17.23 15.33 C16.16 16.96, 14.12 18.15, 12.2 18.71 C10.27 19.26, 7.65 19.59, 5.67 18.66 C3.7 17.73, 1.18 15.1, 0.33 13.11 C-0.53 11.13, 0 8.59, 0.56 6.74 C1.11 4.89, 2.1 3.07, 3.65 2 C5.2 0.93, 8.65 0.52, 9.85 0.32 C11.05 0.12, 10.76 0.81, 10.87 0.8" stroke="#1864ab" stroke-width="1" fill="none"></path></g><g stroke-linecap="round"><g transform="translate(35.47619967990477 9.13889397515186) rotate(0 28.222427237746615 29.255249368110526)" fill-rule="evenodd"><path d="M-0.03 1.18 L7.66 0.06 L15.39 5.69 L24.2 9.08 L30.25 13.1 L39.09 34.97 L46.87 40.31 L50.75 43.87 L54.6 46.44 L56.2 58.17 L48.26 57.97 L38.87 53.73 L32.34 46.87 L28.48 40.62 L20.16 24.4 L13.47 16.25 L7.86 12.02 L0.45 13.83 L0.85 0.07" stroke="none" stroke-width="0" fill="#4285f4" fill-rule="evenodd"></path><path d="M0 0 C3.29 0.3, 7.06 0.81, 8.65 0.94 M0 0 C2.01 0.19, 3.45 0, 8.65 0.94 M8.65 0.94 C11.02 1.19, 15.34 3.11, 17.16 3.76 M8.65 0.94 C11.23 2.07, 14.56 2.85, 17.16 3.76 M17.16 3.76 C19.07 4.78, 22.4 7.37, 24.28 8.35 M17.16 3.76 C18.6 4.52, 20.56 5.82, 24.28 8.35 M24.28 8.35 C26.67 10.57, 27.04 11.88, 29.44 14.92 M24.28 8.35 C26.34 10.48, 28 12.13, 29.44 14.92 M29.44 14.92 C30.67 19.35, 32.76 22.81, 39.93 35.63 M29.44 14.92 C31.56 21.04, 35.73 27.75, 39.93 35.63 M39.93 35.63 C40.6 37.99, 43.46 38.85, 44.99 41.75 M39.93 35.63 C41.65 37.73, 43.6 40.15, 44.99 41.75 M44.99 41.75 C45.93 42.98, 47.33 43.69, 51.1 45.53 M44.99 41.75 C46.06 42.44, 47.1 43.28, 51.1 45.53 M51.1 45.53 C52.64 45.92, 54.37 46.32, 56.56 46.22 M51.1 45.53 C52.96 45.77, 54.15 45.87, 56.56 46.22 M56.56 46.22 C56.03 50.29, 57.35 53.02, 55.51 58.51 M56.56 46.22 C56.48 51.69, 55.22 56.39, 55.51 58.51 M55.51 58.51 C52.92 57.57, 51.8 58.02, 47.92 57.08 M55.51 58.51 C53.28 58.02, 50.21 57.14, 47.92 57.08 M47.92 57.08 C46.68 56.81, 44.2 55.01, 40.82 53.91 M47.92 57.08 C46.52 56.1, 44.68 55.97, 40.82 53.91 M40.82 53.91 C38.59 51.8, 38 51.46, 34.09 48.01 M40.82 53.91 C38.64 51.57, 35.94 49.44, 34.09 48.01 M34.09 48.01 C33.38 45.03, 30.52 41.89, 28.56 38.76 M34.09 48.01 C32.77 45.31, 31.07 42.72, 28.56 38.76 M28.56 38.76 C26.83 36.4, 26.56 32.67, 20.48 23.43 M28.56 38.76 C26.98 34.98, 23.56 30.06, 20.48 23.43 M20.48 23.43 C18.04 21.83, 16.45 19.86, 14.54 16.8 M20.48 23.43 C19.18 22.39, 18.41 20.83, 14.54 16.8 M14.54 16.8 C12.53 15.66, 11.04 15.51, 8.88 13.38 M14.54 16.8 C13.24 16.19, 12.43 15.51, 8.88 13.38 M8.88 13.38 C6.23 14.1, 1.55 13.02, 0.29 13.06 M8.88 13.38 C5.8 13.17, 3.27 13.6, 0.29 13.06 M0.29 13.06 C1.47 9.12, 0.12 6.75, -0.11 0.22 M0.29 13.06 C-0.01 8.96, 0.09 5.84, -0.11 0.22 M-0.11 0.22 C-0.09 0.15, -0.03 0.07, 0 0 M-0.11 0.22 C-0.09 0.17, -0.07 0.13, 0 0" stroke="#1864ab" stroke-width="1" fill="none"></path></g></g><mask></mask><g stroke-linecap="round"><g transform="translate(35.34166515382958 55.49994108877672) rotate(0 12.454580453725839 6.1077740009016)" fill-rule="evenodd"><path d="M0.39 -0.65 L22.35 -0.03 L25.2 5.76 L21.15 11.66 L0.52 11.37 L0.72 0.25" stroke="none" stroke-width="0" fill="#669df6" fill-rule="evenodd"></path><path d="M0 0 C7.28 -0.7, 16.11 0.36, 21.48 0.27 M0 0 C4.05 -0.27, 8.74 0.31, 21.48 0.27 M21.48 0.27 C23.14 2.59, 24.5 4.71, 25.18 6.31 M21.48 0.27 C22.9 2.54, 24.31 4.59, 25.18 6.31 M25.18 6.31 C23.92 8.31, 22.64 10.04, 21.03 11.81 M25.18 6.31 C23.94 7.96, 22.78 9.32, 21.03 11.81 M21.03 11.81 C16.83 12.7, 11.62 11.74, 0.03 12.22 M21.03 11.81 C13.1 12.26, 4.36 12.1, 0.03 12.22 M0.03 12.22 C-0.05 8.25, -0.38 3.41, -0.27 0.3 M0.03 12.22 C0.05 7.44, -0.12 3.04, -0.27 0.3 M-0.27 0.3 C-0.2 0.21, -0.11 0.1, 0 0 M-0.27 0.3 C-0.21 0.23, -0.15 0.17, 0 0" stroke="#1864ab" stroke-width="1" fill="none"></path></g></g><mask></mask><g stroke-linecap="round"><g transform="translate(68.419499063084 69.92279265127672) rotate(0 -11.498460036057622 21.910292405348628)" fill-rule="evenodd"><path d="M0.62 0.82 L10.7 5.3 L5.42 15.22 L-0.85 26.1 L-8.02 36.14 L-16.71 42.12 L-25.25 43.49 L-32.58 44.65 L-33.94 31.52 L-24.63 31.94 L-18.45 29.06 L-13.55 24.08 L-0.56 0.74" stroke="none" stroke-width="0" fill="#aecbfa" fill-rule="evenodd"></path><path d="M0 0 C4.38 2.27, 7.35 5.19, 10.17 6.18 M0 0 C2.78 1.81, 6.37 3.68, 10.17 6.18 M10.17 6.18 C9.3 8, 7.86 10.55, 4.52 15.86 M10.17 6.18 C8.94 8.72, 7.1 11.14, 4.52 15.86 M4.52 15.86 C2.17 20.67, 0.16 24.83, -1.28 26.99 M4.52 15.86 C2.48 19.63, 0.88 22.79, -1.28 26.99 M-1.28 26.99 C-2.29 28.99, -4.75 31.64, -7.93 35.83 M-1.28 26.99 C-3.06 29.56, -5.12 31.95, -7.93 35.83 M-7.93 35.83 C-10.78 37.63, -12.28 38.88, -16.46 41.24 M-7.93 35.83 C-11.04 37.7, -14.76 39.89, -16.46 41.24 M-16.46 41.24 C-19.36 42.23, -21.79 42.76, -24.6 43.27 M-16.46 41.24 C-18.65 41.61, -20.56 42.44, -24.6 43.27 M-24.6 43.27 C-28.21 43.09, -31.2 43.39, -33.17 43.82 M-24.6 43.27 C-26.79 43.35, -29.4 43.6, -33.17 43.82 M-33.17 43.82 C-33.22 41.04, -33.32 36.88, -33.15 31.69 M-33.17 43.82 C-33.18 40.97, -33.07 38.6, -33.15 31.69 M-33.15 31.69 C-31.29 31.36, -29.61 31.12, -24.96 31.36 M-33.15 31.69 C-30.93 31.61, -28.92 31.52, -24.96 31.36 M-24.96 31.36 C-23.63 31.14, -22.11 30.69, -18.23 28.93 M-24.96 31.36 C-23.04 30.67, -21.33 30.01, -18.23 28.93 M-18.23 28.93 C-16.22 27.23, -15.01 25.38, -13.18 23.15 M-18.23 28.93 C-16.26 26.74, -14.62 24.78, -13.18 23.15 M-13.18 23.15 C-8.31 14.61, -3.26 4.77, -0.14 0.44 M-13.18 23.15 C-8.91 15.88, -5.01 9.18, -0.14 0.44 M-0.14 0.44 C-0.11 0.3, -0.05 0.19, 0 0 M-0.14 0.44 C-0.1 0.32, -0.07 0.18, 0 0" stroke="#669df6" stroke-width="1" fill="none"></path></g></g><mask></mask></svg>