<svg xmlns="http://www.w3.org/2000/svg" viewBox="498.24 -55.71 172.00 84.00" width="172" height="84"><rect x="504.24" y="-49.71" width="160.00" height="72.00" rx="0" stroke="#4285f4" stroke-width="2" opacity="1.0" fill="#FFF"/><text x="569.24" y="-8.71" font-size="12" fill="#000000" opacity="1.0" font-family="sans-serif">Cloud CDN</text><polyline points="536.80,-28.38 536.80,-24.83 541.40,-20.09 541.40,-23.65 536.80,-28.38" fill="none" stroke="transparent" stroke-width="1" opacity="1.0" stroke-linecap="round" stroke-linejoin="round"/><polyline points="547.83,-13.66 543.24,-9.05 546.92,-9.05 551.51,-13.66 547.83,-13.66" fill="none" stroke="transparent" stroke-width="1" opacity="1.0" stroke-linecap="round" stroke-linejoin="round"/><polyline points="525.76,-13.66 530.37,-9.05 526.68,-9.05 522.08,-13.66 525.76,-13.66" fill="none" stroke="transparent" stroke-width="1" opacity="1.0" stroke-linecap="round" stroke-linejoin="round"/><polyline points="536.80,1.06 536.80,-2.49 541.40,-7.21 541.40,-3.66 536.80,1.06" fill="none" stroke="transparent" stroke-width="1" opacity="1.0" stroke-linecap="round" stroke-linejoin="round"/><polyline points="536.80,-28.38 532.21,-23.65 532.21,-20.09 536.80,-24.83 536.80,-28.38" fill="none" stroke="transparent" stroke-width="1" opacity="1.0" stroke-linecap="round" stroke-linejoin="round"/><polyline points="546.92,-18.25 543.24,-18.25 547.83,-13.66 551.51,-13.66 546.92,-18.25" fill="none" stroke="transparent" stroke-width="1" opacity="1.0" stroke-linecap="round" stroke-linejoin="round"/><polyline points="526.68,-18.25 530.37,-18.25 525.76,-13.66 522.08,-13.66 526.68,-18.25" fill="none" stroke="transparent" stroke-width="1" opacity="1.0" stroke-linecap="round" stroke-linejoin="round"/><polyline points="536.80,1.06 532.21,-3.66 532.21,-7.21 536.80,-2.49 536.80,1.06" fill="none" stroke="transparent" stroke-width="1" opacity="1.0" stroke-linecap="round" stroke-linejoin="round"/><polyline points="541.40,-9.05 532.21,-9.05 532.21,-18.25 541.40,-18.25 541.40,-9.05" fill="none" stroke="transparent" stroke-width="1" opacity="1.0" stroke-linecap="round" stroke-linejoin="round"/><polyline points="541.40,-18.25 541.40,-9.05 532.21,-9.05 541.40,-18.25" fill="none" stroke="transparent" stroke-width="1" opacity="1.0" stroke-linecap="round" stroke-linejoin="round"/><polyline points="541.40,-18.25 541.40,-9.05 536.80,-13.66 541.40,-18.25" fill="none" stroke="transparent" stroke-width="1" opacity="1.0" stroke-linecap="round" stroke-linejoin="round"/></svg>