<svg version="1.1" xmlns="http://www.w3.org/2000/svg" viewBox="0 0 106.72454941379192 126.3903126436121" width="106.72454941379192" height="126.3903126436121">
  <!-- svg-source:excalidraw -->
  
  <defs>
    
    
  </defs>
  <g stroke-linecap="round"><g transform="translate(7.294732038965776 28.952150831035397) rotate(0 46.04145124846832 0.009496352251971985)" fill-rule="evenodd"><path d="M0.05 -0.33 L44.86 -21.65 L92.41 -1.08 L45.32 23.01 L2.04 1.87" stroke="none" stroke-width="0" fill="#669df6" fill-rule="evenodd"></path><path d="M0 0 C20 -7.53, 38.24 -16.96, 46.78 -22.95 M0 0 C10.68 -3.95, 20.36 -9.83, 46.78 -22.95 M46.78 -22.95 C62.4 -13.03, 80.25 -6.24, 92.08 -0.16 M46.78 -22.95 C62.58 -16.57, 75.76 -8.08, 92.08 -0.16 M92.08 -0.16 C75.8 7.03, 62.43 15.91, 46.45 22.97 M92.08 -0.16 C77.4 7.62, 62.79 14.05, 46.45 22.97 M46.45 22.97 C31.58 14.06, 15.78 7.82, 2.21 0.74 M46.45 22.97 C34.38 16.32, 22.61 10.95, 2.21 0.74 M2.21 0.74 C1.5 0.37, 0.96 0.42, 0 0 M2.21 0.74 C1.58 0.61, 1.05 0.24, 0 0" stroke="#1864ab" stroke-width="1" fill="none"></path></g></g><mask></mask><g stroke-linecap="round"><g transform="translate(7.200235255877942 40.717437145756776) rotate(0 46.71977922028168 39.75164376053158)" fill-rule="evenodd"><path d="M0.56 -1.14 L-0.62 39.89 L28.99 57.92 L30.29 77.87 L92.08 38.9 L93.19 0.49 L46.57 24.2 L0.74 1.15" stroke="none" stroke-width="0" fill="#4285f4" fill-rule="evenodd"></path><path d="M0 0 C-1.78 12.92, -1.56 28.95, 0.5 40.95 M0 0 C1.45 13.26, 1.15 25.49, 0.5 40.95 M0.5 40.95 C11.24 47.62, 24.43 53.26, 29.66 58.7 M0.5 40.95 C9.35 46.8, 17.46 50.72, 29.66 58.7 M29.66 58.7 C29.64 63.16, 28.09 69.53, 29.98 79.67 M29.66 58.7 C29.27 63.44, 29.07 67.89, 29.98 79.67 M29.98 79.67 C47.82 70.3, 63.58 60.69, 93.44 39.86 M29.98 79.67 C47.71 69.34, 66.09 57.04, 93.44 39.86 M93.44 39.86 C92.3 30.91, 94 20.4, 92.79 -0.17 M93.44 39.86 C93.84 28.3, 92.67 18.07, 92.79 -0.17 M92.79 -0.17 C77.3 7.79, 63.25 14.69, 46.72 23.29 M92.79 -0.17 C78.89 7.72, 63.95 13.99, 46.72 23.29 M46.72 23.29 C36.64 19.32, 27.6 14.04, 2.45 1.5 M46.72 23.29 C33.71 16.6, 21.13 11.33, 2.45 1.5 M2.45 1.5 C1.87 0.94, 1.21 0.57, 0 0 M2.45 1.5 C1.9 1.29, 1.52 0.7, 0 0" stroke="#1864ab" stroke-width="1" fill="none"></path></g></g><mask></mask></svg>