<svg xmlns="http://www.w3.org/2000/svg" viewBox="-287.80 1548.60 190.21 273.70" width="190" height="274"><ellipse cx="-201.47" cy="1582.14" rx="27.54" ry="27.54" stroke="#000000" stroke-width="1" opacity="1.0" fill="#4385f4"/><ellipse cx="-201.47" cy="1706.69" rx="27.54" ry="27.54" stroke="#000000" stroke-width="1" opacity="1.0" fill="#4385f4"/><ellipse cx="-201.47" cy="1582.14" rx="9.77" ry="9.77" stroke="#000000" stroke-width="1" opacity="1.0" fill="#fff"/><ellipse cx="-201.47" cy="1706.69" rx="9.77" ry="9.77" stroke="#000000" stroke-width="1" opacity="1.0" fill="#fff"/><polyline points="-165.80,1688.92 -165.80,1688.92 -165.76,1689.82 -165.62,1690.69 -165.40,1691.54 -165.11,1692.35 -164.74,1693.12 -164.30,1693.84 -163.79,1694.52 -163.22,1695.14 -162.60,1695.71 -161.92,1696.22 -161.19,1696.66 -160.42,1697.03 -159.62,1697.33 -158.77,1697.54 -157.90,1697.68 -157.00,1697.72 -156.09,1697.68 -155.22,1697.54 -154.38,1697.33 -153.57,1697.03 -152.80,1696.66 -152.07,1696.22 -151.39,1695.71 -150.77,1695.14 -150.20,1694.52 -149.69,1693.84 -149.25,1693.12 -148.88,1692.35 -148.59,1691.54 -148.37,1690.69 -148.24,1689.82 -148.19,1688.92 -148.19,1644.03 -165.80,1644.03 -165.80,1688.92 -165.80,1688.92" fill="#4385f4" stroke="#000000" stroke-width="1" opacity="1.0" stroke-linecap="round" stroke-linejoin="round"/><polyline points="-157.00,1591.30 -157.00,1591.30 -157.90,1591.34 -158.77,1591.47 -159.62,1591.69 -160.42,1591.99 -161.19,1592.36 -161.92,1592.80 -162.60,1593.30 -163.22,1593.87 -163.79,1594.50 -164.30,1595.18 -164.74,1595.90 -165.11,1596.67 -165.40,1597.48 -165.62,1598.32 -165.76,1599.20 -165.80,1600.10 -165.80,1644.00 -148.19,1644.00 -148.19,1600.10 -148.19,1600.10 -148.24,1599.20 -148.37,1598.33 -148.59,1597.49 -148.88,1596.68 -149.25,1595.92 -149.69,1595.19 -150.20,1594.51 -150.77,1593.88 -151.39,1593.32 -152.07,1592.81 -152.80,1592.36 -153.57,1591.99 -154.38,1591.69 -155.22,1591.48 -156.09,1591.34 -157.00,1591.30 -157.00,1591.30" fill="#aecbfa" stroke="#000000" stroke-width="1" opacity="1.0" stroke-linecap="round" stroke-linejoin="round"/><polyline points="-138.81,1644.03 -138.81,1662.41 -138.81,1662.41 -138.76,1663.31 -138.63,1664.18 -138.41,1665.03 -138.12,1665.84 -137.75,1666.60 -137.31,1667.33 -136.80,1668.01 -136.23,1668.63 -135.61,1669.20 -134.93,1669.71 -134.20,1670.15 -133.43,1670.52 -132.62,1670.82 -131.78,1671.03 -130.91,1671.17 -130.00,1671.21 -129.10,1671.17 -128.23,1671.03 -127.39,1670.82 -126.58,1670.52 -125.81,1670.15 -125.08,1669.71 -124.40,1669.20 -123.78,1668.63 -123.21,1668.01 -122.70,1667.33 -122.26,1666.60 -121.89,1665.84 -121.60,1665.03 -121.38,1664.18 -121.25,1663.31 -121.20,1662.41 -121.20,1644.03 -138.81,1644.03 -138.81,1644.03" fill="#4385f4" stroke="#000000" stroke-width="1" opacity="1.0" stroke-linecap="round" stroke-linejoin="round"/><polyline points="-121.20,1626.19 -121.20,1626.19 -121.25,1625.29 -121.38,1624.42 -121.60,1623.57 -121.89,1622.77 -122.26,1622.00 -122.70,1621.27 -123.21,1620.59 -123.78,1619.97 -124.40,1619.40 -125.08,1618.89 -125.81,1618.45 -126.58,1618.08 -127.39,1617.79 -128.23,1617.57 -129.10,1617.44 -130.00,1617.39 -130.91,1617.44 -131.78,1617.57 -132.62,1617.79 -133.43,1618.08 -134.20,1618.45 -134.93,1618.89 -135.61,1619.40 -136.23,1619.97 -136.80,1620.59 -137.31,1621.27 -137.75,1622.00 -138.12,1622.77 -138.41,1623.57 -138.63,1624.42 -138.76,1625.29 -138.81,1626.19 -138.81,1644.03 -121.20,1644.03 -121.20,1626.19 -121.20,1626.19" fill="#aecbfa" stroke="#000000" stroke-width="1" opacity="1.0" stroke-linecap="round" stroke-linejoin="round"/><polyline points="-183.22,1617.39 -183.22,1617.39 -184.12,1617.44 -184.99,1617.57 -185.84,1617.79 -186.65,1618.08 -187.42,1618.45 -188.14,1618.89 -188.82,1619.40 -189.45,1619.97 -190.01,1620.59 -190.52,1621.27 -190.96,1622.00 -191.33,1622.77 -191.63,1623.57 -191.84,1624.42 -191.98,1625.29 -192.02,1626.19 -192.02,1644.03 -174.41,1644.03 -174.41,1626.19 -174.41,1626.19 -174.46,1625.29 -174.59,1624.42 -174.81,1623.57 -175.10,1622.77 -175.48,1622.00 -175.92,1621.27 -176.42,1620.59 -176.99,1619.97 -177.62,1619.40 -178.29,1618.89 -179.02,1618.45 -179.79,1618.08 -180.60,1617.79 -181.44,1617.57 -182.32,1617.44 -183.22,1617.39 -183.22,1617.39" fill="#aecbfa" stroke="#000000" stroke-width="1" opacity="1.0" stroke-linecap="round" stroke-linejoin="round"/><polyline points="-192.02,1662.41 -192.02,1662.41 -191.98,1663.31 -191.84,1664.18 -191.63,1665.03 -191.33,1665.84 -190.96,1666.60 -190.52,1667.33 -190.01,1668.01 -189.45,1668.63 -188.82,1669.20 -188.14,1669.71 -187.42,1670.15 -186.65,1670.52 -185.84,1670.82 -184.99,1671.03 -184.12,1671.17 -183.22,1671.21 -182.32,1671.17 -181.44,1671.03 -180.60,1670.82 -179.79,1670.52 -179.02,1670.15 -178.29,1669.71 -177.62,1669.20 -176.99,1668.63 -176.42,1668.01 -175.92,1667.33 -175.48,1666.60 -175.10,1665.84 -174.81,1665.03 -174.59,1664.18 -174.46,1663.31 -174.41,1662.41 -174.41,1644.03 -192.02,1644.03 -192.02,1662.41 -192.02,1662.41" fill="#4385f4" stroke="#000000" stroke-width="1" opacity="1.0" stroke-linecap="round" stroke-linejoin="round"/><polyline points="-228.33,1662.41 -228.33,1662.41 -228.29,1663.31 -228.15,1664.18 -227.94,1665.03 -227.64,1665.84 -227.27,1666.60 -226.83,1667.33 -226.32,1668.01 -225.75,1668.63 -225.13,1669.20 -224.45,1669.71 -223.72,1670.15 -222.95,1670.52 -222.15,1670.82 -221.30,1671.03 -220.43,1671.17 -219.53,1671.21 -218.62,1671.17 -217.75,1671.03 -216.91,1670.82 -216.10,1670.52 -215.33,1670.15 -214.60,1669.71 -213.92,1669.20 -213.30,1668.63 -212.73,1668.01 -212.22,1667.33 -211.78,1666.60 -211.41,1665.84 -211.12,1665.03 -210.90,1664.18 -210.77,1663.31 -210.72,1662.41 -210.72,1644.03 -228.33,1644.03 -228.33,1662.41 -228.33,1662.41" fill="#4385f4" stroke="#000000" stroke-width="1" opacity="1.0" stroke-linecap="round" stroke-linejoin="round"/><polyline points="-219.53,1617.39 -219.53,1617.39 -220.43,1617.44 -221.30,1617.57 -222.15,1617.79 -222.95,1618.08 -223.72,1618.45 -224.45,1618.89 -225.13,1619.40 -225.75,1619.97 -226.32,1620.59 -226.83,1621.27 -227.27,1622.00 -227.64,1622.77 -227.94,1623.57 -228.15,1624.42 -228.29,1625.29 -228.33,1626.19 -228.33,1644.03 -210.72,1644.03 -210.72,1626.19 -210.72,1626.19 -210.77,1625.29 -210.90,1624.42 -211.12,1623.57 -211.41,1622.77 -211.78,1622.00 -212.22,1621.27 -212.73,1620.59 -213.30,1619.97 -213.92,1619.40 -214.60,1618.89 -215.33,1618.45 -216.10,1618.08 -216.91,1617.79 -217.75,1617.57 -218.62,1617.44 -219.53,1617.39 -219.53,1617.39" fill="#aecbfa" stroke="#000000" stroke-width="1" opacity="1.0" stroke-linecap="round" stroke-linejoin="round"/><polyline points="-281.80,1662.41 -281.80,1662.41 -281.75,1663.31 -281.62,1664.18 -281.40,1665.03 -281.11,1665.84 -280.74,1666.60 -280.30,1667.33 -279.79,1668.01 -279.22,1668.63 -278.60,1669.20 -277.92,1669.71 -277.19,1670.15 -276.42,1670.52 -275.61,1670.82 -274.77,1671.03 -273.90,1671.17 -273.00,1671.21 -272.09,1671.17 -271.22,1671.03 -270.38,1670.82 -269.57,1670.52 -268.80,1670.15 -268.07,1669.71 -267.39,1669.20 -266.77,1668.63 -266.20,1668.01 -265.69,1667.33 -265.25,1666.60 -264.88,1665.84 -264.59,1665.03 -264.37,1664.18 -264.24,1663.31 -264.19,1662.41 -264.19,1644.03 -281.80,1644.03 -281.80,1662.41 -281.80,1662.41" fill="#4385f4" stroke="#000000" stroke-width="1" opacity="1.0" stroke-linecap="round" stroke-linejoin="round"/><polyline points="-273.00,1617.39 -273.00,1617.39 -273.90,1617.44 -274.77,1617.57 -275.61,1617.79 -276.42,1618.08 -277.19,1618.45 -277.92,1618.89 -278.60,1619.40 -279.22,1619.97 -279.79,1620.59 -280.30,1621.27 -280.74,1622.00 -281.11,1622.77 -281.40,1623.57 -281.62,1624.42 -281.75,1625.29 -281.80,1626.19 -281.80,1644.03 -264.19,1644.03 -264.19,1626.19 -264.19,1626.19 -264.24,1625.29 -264.37,1624.42 -264.59,1623.57 -264.88,1622.77 -265.25,1622.00 -265.69,1621.27 -266.20,1620.59 -266.77,1619.97 -267.39,1619.40 -268.07,1618.89 -268.80,1618.45 -269.57,1618.08 -270.38,1617.79 -271.22,1617.57 -272.09,1617.44 -273.00,1617.39 -273.00,1617.39" fill="#aecbfa" stroke="#000000" stroke-width="1" opacity="1.0" stroke-linecap="round" stroke-linejoin="round"/><polyline points="-246.10,1591.30 -246.10,1591.30 -247.00,1591.34 -247.88,1591.47 -248.72,1591.69 -249.53,1591.99 -250.30,1592.36 -251.03,1592.80 -251.70,1593.30 -252.33,1593.87 -252.90,1594.50 -253.40,1595.18 -253.84,1595.90 -254.21,1596.67 -254.51,1597.48 -254.73,1598.32 -254.86,1599.20 -254.91,1600.10 -254.91,1644.00 -237.30,1644.00 -237.30,1600.10 -237.30,1600.10 -237.34,1599.20 -237.47,1598.33 -237.69,1597.49 -237.99,1596.68 -238.36,1595.92 -238.80,1595.19 -239.30,1594.51 -239.87,1593.88 -240.50,1593.32 -241.18,1592.81 -241.90,1592.36 -242.67,1591.99 -243.48,1591.69 -244.32,1591.48 -245.20,1591.34 -246.10,1591.30 -246.10,1591.30" fill="#aecbfa" stroke="#000000" stroke-width="1" opacity="1.0" stroke-linecap="round" stroke-linejoin="round"/><polyline points="-254.91,1688.92 -254.91,1688.92 -254.86,1689.82 -254.73,1690.69 -254.51,1691.54 -254.21,1692.35 -253.84,1693.12 -253.40,1693.84 -252.90,1694.52 -252.33,1695.14 -251.70,1695.71 -251.03,1696.22 -250.30,1696.66 -249.53,1697.03 -248.72,1697.33 -247.88,1697.54 -247.00,1697.68 -246.10,1697.72 -245.20,1697.68 -244.32,1697.54 -243.48,1697.33 -242.67,1697.03 -241.90,1696.66 -241.18,1696.22 -240.50,1695.71 -239.87,1695.14 -239.30,1694.52 -238.80,1693.84 -238.36,1693.12 -237.99,1692.35 -237.69,1691.54 -237.47,1690.69 -237.34,1689.82 -237.30,1688.92 -237.30,1644.03 -254.91,1644.03 -254.91,1688.92 -254.91,1688.92" fill="#4385f4" stroke="#000000" stroke-width="1" opacity="1.0" stroke-linecap="round" stroke-linejoin="round"/><text x="-268.79" y="1772.25" font-size="33.94285714285716" fill="#000000" opacity="1.0" font-family="sans-serif">Packet
Mirroring</text></svg>