<svg version="1.1" xmlns="http://www.w3.org/2000/svg" viewBox="0 0 172 84" width="172" height="84">
  <!-- svg-source:excalidraw -->
  
  <defs>
    
    
  </defs>
  <g stroke-linecap="round" transform="translate(6 6) rotate(0 80 36)"><path d="M18 0 C53.54 0, 89.09 0, 142 0 C154 0, 160 6, 160 18 C160 26.81, 160 35.61, 160 54 C160 66, 154 72, 142 72 C105.24 72, 68.49 72, 18 72 C6 72, 0 66, 0 54 C0 46.49, 0 38.98, 0 18 C0 6, 6 0, 18 0" stroke="none" stroke-width="0" fill="#FFF"></path><path d="M18 0 C45.87 0, 73.75 0, 142 0 M18 0 C42.91 0, 67.83 0, 142 0 M142 0 C154 0, 160 6, 160 18 M142 0 C154 0, 160 6, 160 18 M160 18 C160 25.37, 160 32.75, 160 54 M160 18 C160 26.24, 160 34.48, 160 54 M160 54 C160 66, 154 72, 142 72 M160 54 C160 66, 154 72, 142 72 M142 72 C115.82 72, 89.64 72, 18 72 M142 72 C108.56 72, 75.13 72, 18 72 M18 72 C6 72, 0 66, 0 54 M18 72 C6 72, 0 66, 0 54 M0 54 C0 40.65, 0 27.3, 0 18 M0 54 C0 44.06, 0 34.12, 0 18 M0 18 C0 6, 6 0, 18 0 M0 18 C0 6, 6 0, 18 0" stroke="#4285f4" stroke-width="2" fill="none"></path></g><g transform="translate(71 21) rotate(0 38 21)"><text x="0" y="0" font-family="Helvetica, Segoe UI Emoji" font-size="12px" fill="#000000" text-anchor="start" style="white-space: pre;" direction="ltr" dominant-baseline="text-before-edge">Cloud</text><text x="0" y="14" font-family="Helvetica, Segoe UI Emoji" font-size="12px" fill="#000000" text-anchor="start" style="white-space: pre;" direction="ltr" dominant-baseline="text-before-edge">Identity-Aware</text><text x="0" y="28" font-family="Helvetica, Segoe UI Emoji" font-size="12px" fill="#000000" text-anchor="start" style="white-space: pre;" direction="ltr" dominant-baseline="text-before-edge">Proxy</text></g><g stroke-linecap="round" transform="translate(12.101626374446823 38.658535957336426) rotate(0 3.520324945449829 3.520324945449829)"><path d="M7.04 3.52 C7.04 3.72, 7.02 3.93, 6.99 4.13 C6.95 4.33, 6.9 4.53, 6.83 4.72 C6.76 4.92, 6.67 5.1, 6.57 5.28 C6.47 5.46, 6.35 5.63, 6.22 5.78 C6.09 5.94, 5.94 6.09, 5.78 6.22 C5.63 6.35, 5.46 6.47, 5.28 6.57 C5.1 6.67, 4.92 6.76, 4.72 6.83 C4.53 6.9, 4.33 6.95, 4.13 6.99 C3.93 7.02, 3.72 7.04, 3.52 7.04 C3.32 7.04, 3.11 7.02, 2.91 6.99 C2.71 6.95, 2.51 6.9, 2.32 6.83 C2.12 6.76, 1.94 6.67, 1.76 6.57 C1.58 6.47, 1.41 6.35, 1.26 6.22 C1.1 6.09, 0.95 5.94, 0.82 5.78 C0.69 5.63, 0.57 5.46, 0.47 5.28 C0.37 5.1, 0.28 4.92, 0.21 4.72 C0.14 4.53, 0.09 4.33, 0.05 4.13 C0.02 3.93, 0 3.72, 0 3.52 C0 3.32, 0.02 3.11, 0.05 2.91 C0.09 2.71, 0.14 2.51, 0.21 2.32 C0.28 2.12, 0.37 1.94, 0.47 1.76 C0.57 1.58, 0.69 1.41, 0.82 1.26 C0.95 1.1, 1.1 0.95, 1.26 0.82 C1.41 0.69, 1.58 0.57, 1.76 0.47 C1.94 0.37, 2.12 0.28, 2.32 0.21 C2.51 0.14, 2.71 0.09, 2.91 0.05 C3.11 0.02, 3.32 0, 3.52 0 C3.72 0, 3.93 0.02, 4.13 0.05 C4.33 0.09, 4.53 0.14, 4.72 0.21 C4.92 0.28, 5.1 0.37, 5.28 0.47 C5.46 0.57, 5.63 0.69, 5.78 0.82 C5.94 0.95, 6.09 1.1, 6.22 1.26 C6.35 1.41, 6.47 1.58, 6.57 1.76 C6.67 1.94, 6.76 2.12, 6.83 2.32 C6.9 2.51, 6.95 2.71, 6.99 2.91 C7.02 3.11, 7.03 3.42, 7.04 3.52 C7.05 3.62, 7.05 3.42, 7.04 3.52" stroke="none" stroke-width="0" fill="#669df6"></path><path d="M7.04 3.52 C7.04 3.72, 7.02 3.93, 6.99 4.13 C6.95 4.33, 6.9 4.53, 6.83 4.72 C6.76 4.92, 6.67 5.1, 6.57 5.28 C6.47 5.46, 6.35 5.63, 6.22 5.78 C6.09 5.94, 5.94 6.09, 5.78 6.22 C5.63 6.35, 5.46 6.47, 5.28 6.57 C5.1 6.67, 4.92 6.76, 4.72 6.83 C4.53 6.9, 4.33 6.95, 4.13 6.99 C3.93 7.02, 3.72 7.04, 3.52 7.04 C3.32 7.04, 3.11 7.02, 2.91 6.99 C2.71 6.95, 2.51 6.9, 2.32 6.83 C2.12 6.76, 1.94 6.67, 1.76 6.57 C1.58 6.47, 1.41 6.35, 1.26 6.22 C1.1 6.09, 0.95 5.94, 0.82 5.78 C0.69 5.63, 0.57 5.46, 0.47 5.28 C0.37 5.1, 0.28 4.92, 0.21 4.72 C0.14 4.53, 0.09 4.33, 0.05 4.13 C0.02 3.93, 0 3.72, 0 3.52 C0 3.32, 0.02 3.11, 0.05 2.91 C0.09 2.71, 0.14 2.51, 0.21 2.32 C0.28 2.12, 0.37 1.94, 0.47 1.76 C0.57 1.58, 0.69 1.41, 0.82 1.26 C0.95 1.1, 1.1 0.95, 1.26 0.82 C1.41 0.69, 1.58 0.57, 1.76 0.47 C1.94 0.37, 2.12 0.28, 2.32 0.21 C2.51 0.14, 2.71 0.09, 2.91 0.05 C3.11 0.02, 3.32 0, 3.52 0 C3.72 0, 3.93 0.02, 4.13 0.05 C4.33 0.09, 4.53 0.14, 4.72 0.21 C4.92 0.28, 5.1 0.37, 5.28 0.47 C5.46 0.57, 5.63 0.69, 5.78 0.82 C5.94 0.95, 6.09 1.1, 6.22 1.26 C6.35 1.41, 6.47 1.58, 6.57 1.76 C6.67 1.94, 6.76 2.12, 6.83 2.32 C6.9 2.51, 6.95 2.71, 6.99 2.91 C7.02 3.11, 7.03 3.42, 7.04 3.52 C7.05 3.62, 7.05 3.42, 7.04 3.52" stroke="transparent" stroke-width="1" fill="none"></path></g><g stroke-linecap="round" transform="translate(13.630081393444016 40.186991691589355) rotate(0 1.9918698072433472 1.9918698072433472)"><path d="M3.98 1.99 C3.98 2.11, 3.97 2.22, 3.95 2.34 C3.93 2.45, 3.9 2.56, 3.86 2.67 C3.82 2.78, 3.77 2.89, 3.72 2.99 C3.66 3.09, 3.59 3.18, 3.52 3.27 C3.44 3.36, 3.36 3.44, 3.27 3.52 C3.18 3.59, 3.09 3.66, 2.99 3.72 C2.89 3.77, 2.78 3.82, 2.67 3.86 C2.56 3.9, 2.45 3.93, 2.34 3.95 C2.22 3.97, 2.11 3.98, 1.99 3.98 C1.88 3.98, 1.76 3.97, 1.65 3.95 C1.53 3.93, 1.42 3.9, 1.31 3.86 C1.2 3.82, 1.1 3.77, 1 3.72 C0.9 3.66, 0.8 3.59, 0.71 3.52 C0.62 3.44, 0.54 3.36, 0.47 3.27 C0.39 3.18, 0.32 3.09, 0.27 2.99 C0.21 2.89, 0.16 2.78, 0.12 2.67 C0.08 2.56, 0.05 2.45, 0.03 2.34 C0.01 2.22, 0 2.11, 0 1.99 C0 1.88, 0.01 1.76, 0.03 1.65 C0.05 1.53, 0.08 1.42, 0.12 1.31 C0.16 1.2, 0.21 1.1, 0.27 1 C0.32 0.9, 0.39 0.8, 0.47 0.71 C0.54 0.62, 0.62 0.54, 0.71 0.47 C0.8 0.39, 0.9 0.32, 1 0.27 C1.1 0.21, 1.2 0.16, 1.31 0.12 C1.42 0.08, 1.53 0.05, 1.65 0.03 C1.76 0.01, 1.88 0, 1.99 0 C2.11 0, 2.22 0.01, 2.34 0.03 C2.45 0.05, 2.56 0.08, 2.67 0.12 C2.78 0.16, 2.89 0.21, 2.99 0.27 C3.09 0.32, 3.18 0.39, 3.27 0.47 C3.36 0.54, 3.44 0.62, 3.52 0.71 C3.59 0.8, 3.66 0.9, 3.72 1 C3.77 1.1, 3.82 1.2, 3.86 1.31 C3.9 1.42, 3.93 1.53, 3.95 1.65 C3.97 1.76, 3.98 1.93, 3.98 1.99 C3.99 2.05, 3.99 1.93, 3.98 1.99" stroke="none" stroke-width="0" fill="#fff"></path><path d="M3.98 1.99 C3.98 2.11, 3.97 2.22, 3.95 2.34 C3.93 2.45, 3.9 2.56, 3.86 2.67 C3.82 2.78, 3.77 2.89, 3.72 2.99 C3.66 3.09, 3.59 3.18, 3.52 3.27 C3.44 3.36, 3.36 3.44, 3.27 3.52 C3.18 3.59, 3.09 3.66, 2.99 3.72 C2.89 3.77, 2.78 3.82, 2.67 3.86 C2.56 3.9, 2.45 3.93, 2.34 3.95 C2.22 3.97, 2.11 3.98, 1.99 3.98 C1.88 3.98, 1.76 3.97, 1.65 3.95 C1.53 3.93, 1.42 3.9, 1.31 3.86 C1.2 3.82, 1.1 3.77, 1 3.72 C0.9 3.66, 0.8 3.59, 0.71 3.52 C0.62 3.44, 0.54 3.36, 0.47 3.27 C0.39 3.18, 0.32 3.09, 0.27 2.99 C0.21 2.89, 0.16 2.78, 0.12 2.67 C0.08 2.56, 0.05 2.45, 0.03 2.34 C0.01 2.22, 0 2.11, 0 1.99 C0 1.88, 0.01 1.76, 0.03 1.65 C0.05 1.53, 0.08 1.42, 0.12 1.31 C0.16 1.2, 0.21 1.1, 0.27 1 C0.32 0.9, 0.39 0.8, 0.47 0.71 C0.54 0.62, 0.62 0.54, 0.71 0.47 C0.8 0.39, 0.9 0.32, 1 0.27 C1.1 0.21, 1.2 0.16, 1.31 0.12 C1.42 0.08, 1.53 0.05, 1.65 0.03 C1.76 0.01, 1.88 0, 1.99 0 C2.11 0, 2.22 0.01, 2.34 0.03 C2.45 0.05, 2.56 0.08, 2.67 0.12 C2.78 0.16, 2.89 0.21, 2.99 0.27 C3.09 0.32, 3.18 0.39, 3.27 0.47 C3.36 0.54, 3.44 0.62, 3.52 0.71 C3.59 0.8, 3.66 0.9, 3.72 1 C3.77 1.1, 3.82 1.2, 3.86 1.31 C3.9 1.42, 3.93 1.53, 3.95 1.65 C3.97 1.76, 3.98 1.93, 3.98 1.99 C3.99 2.05, 3.99 1.93, 3.98 1.99" stroke="transparent" stroke-width="1" fill="none"></path></g><g stroke-linecap="round"><g transform="translate(46.61381790848918 33.14634132385254) rotate(0 -9.219509601593018 9.219512104988098)" fill-rule="evenodd"><path d="M0 0 L0 0 L-0.47 -0.45 L-0.96 -0.87 L-1.47 -1.27 L-1.99 -1.64 L-2.53 -1.98 L-3.08 -2.29 L-3.65 -2.58 L-4.23 -2.83 L-4.82 -3.06 L-5.42 -3.26 L-6.04 -3.43 L-6.66 -3.57 L-7.29 -3.68 L-7.93 -3.76 L-8.57 -3.81 L-9.22 -3.82 L-9.87 -3.81 L-10.51 -3.76 L-11.15 -3.68 L-11.78 -3.57 L-12.4 -3.43 L-13.02 -3.26 L-13.62 -3.06 L-14.21 -2.83 L-14.79 -2.58 L-15.36 -2.29 L-15.91 -1.98 L-16.45 -1.64 L-16.97 -1.27 L-17.48 -0.87 L-17.97 -0.45 L-18.44 0 L-18.89 0.47 L-19.31 0.96 L-19.71 1.47 L-20.08 1.99 L-20.42 2.53 L-20.73 3.08 L-21.02 3.65 L-21.27 4.23 L-21.5 4.82 L-21.7 5.42 L-21.87 6.04 L-22.01 6.66 L-22.12 7.29 L-22.2 7.93 L-22.24 8.57 L-22.26 9.22 L-22.24 9.87 L-22.2 10.51 L-22.12 11.15 L-22.01 11.78 L-21.87 12.4 L-21.7 13.02 L-21.5 13.62 L-21.27 14.21 L-21.02 14.79 L-20.73 15.36 L-20.42 15.91 L-20.08 16.45 L-19.71 16.97 L-19.31 17.48 L-18.89 17.97 L-18.44 18.44 L-17.97 18.89 L-17.48 19.31 L-16.97 19.71 L-16.45 20.08 L-15.91 20.42 L-15.36 20.73 L-14.79 21.02 L-14.21 21.27 L-13.62 21.5 L-13.02 21.7 L-12.4 21.87 L-11.78 22.01 L-11.15 22.12 L-10.51 22.2 L-9.87 22.24 L-9.22 22.26 L-8.57 22.24 L-7.93 22.2 L-7.29 22.12 L-6.66 22.01 L-6.04 21.87 L-5.42 21.7 L-4.82 21.5 L-4.23 21.27 L-3.65 21.02 L-3.08 20.73 L-2.53 20.42 L-1.99 20.08 L-1.47 19.71 L-0.96 19.31 L-0.47 18.89 L0 18.44 L0.45 17.97 L0.87 17.48 L1.27 16.97 L1.64 16.45 L1.98 15.91 L2.29 15.36 L2.58 14.79 L2.83 14.21 L3.06 13.62 L3.26 13.02 L3.43 12.4 L3.57 11.78 L3.68 11.15 L3.76 10.51 L3.81 9.87 L3.82 9.22 L3.81 8.57 L3.76 7.93 L3.68 7.29 L3.57 6.66 L3.43 6.04 L3.26 5.42 L3.06 4.82 L2.83 4.23 L2.58 3.65 L2.29 3.08 L1.98 2.53 L1.64 1.99 L1.27 1.47 L0.87 0.96 L0.45 0.47 L0 0 L0 0" stroke="none" stroke-width="0" fill="#4285f4" fill-rule="evenodd"></path><path d="M0 0 C0 0, 0 0, 0 0 M0 0 C0 0, 0 0, 0 0 M0 0 C-0.1 -0.1, -0.21 -0.2, -0.47 -0.45 M0 0 C-0.18 -0.17, -0.36 -0.34, -0.47 -0.45 M-0.47 -0.45 C-0.61 -0.57, -0.75 -0.69, -0.96 -0.87 M-0.47 -0.45 C-0.63 -0.59, -0.79 -0.73, -0.96 -0.87 M-0.96 -0.87 C-1.11 -0.99, -1.26 -1.1, -1.47 -1.27 M-0.96 -0.87 C-1.11 -0.99, -1.27 -1.11, -1.47 -1.27 M-1.47 -1.27 C-1.66 -1.4, -1.86 -1.54, -1.99 -1.64 M-1.47 -1.27 C-1.65 -1.4, -1.84 -1.53, -1.99 -1.64 M-1.99 -1.64 C-2.16 -1.74, -2.33 -1.85, -2.53 -1.98 M-1.99 -1.64 C-2.11 -1.71, -2.22 -1.78, -2.53 -1.98 M-2.53 -1.98 C-2.69 -2.07, -2.85 -2.16, -3.08 -2.29 M-2.53 -1.98 C-2.66 -2.05, -2.79 -2.13, -3.08 -2.29 M-3.08 -2.29 C-3.3 -2.4, -3.52 -2.51, -3.65 -2.58 M-3.08 -2.29 C-3.24 -2.37, -3.4 -2.45, -3.65 -2.58 M-3.65 -2.58 C-3.87 -2.68, -4.1 -2.78, -4.23 -2.83 M-3.65 -2.58 C-3.77 -2.63, -3.89 -2.69, -4.23 -2.83 M-4.23 -2.83 C-4.4 -2.9, -4.58 -2.97, -4.82 -3.06 M-4.23 -2.83 C-4.35 -2.88, -4.47 -2.93, -4.82 -3.06 M-4.82 -3.06 C-4.98 -3.12, -5.15 -3.17, -5.42 -3.26 M-4.82 -3.06 C-4.99 -3.12, -5.16 -3.17, -5.42 -3.26 M-5.42 -3.26 C-5.55 -3.3, -5.69 -3.33, -6.04 -3.43 M-5.42 -3.26 C-5.63 -3.32, -5.84 -3.38, -6.04 -3.43 M-6.04 -3.43 C-6.2 -3.47, -6.36 -3.5, -6.66 -3.57 M-6.04 -3.43 C-6.26 -3.48, -6.48 -3.53, -6.66 -3.57 M-6.66 -3.57 C-6.91 -3.61, -7.16 -3.66, -7.29 -3.68 M-6.66 -3.57 C-6.9 -3.61, -7.13 -3.65, -7.29 -3.68 M-7.29 -3.68 C-7.5 -3.71, -7.7 -3.73, -7.93 -3.76 M-7.29 -3.68 C-7.5 -3.71, -7.7 -3.73, -7.93 -3.76 M-7.93 -3.76 C-8.11 -3.77, -8.3 -3.79, -8.57 -3.81 M-7.93 -3.76 C-8.07 -3.77, -8.22 -3.78, -8.57 -3.81 M-8.57 -3.81 C-8.8 -3.81, -9.04 -3.82, -9.22 -3.82 M-8.57 -3.81 C-8.81 -3.81, -9.06 -3.82, -9.22 -3.82 M-9.22 -3.82 C-9.37 -3.82, -9.51 -3.81, -9.87 -3.81 M-9.22 -3.82 C-9.46 -3.82, -9.7 -3.81, -9.87 -3.81 M-9.87 -3.81 C-10.06 -3.79, -10.26 -3.78, -10.51 -3.76 M-9.87 -3.81 C-10.05 -3.79, -10.22 -3.78, -10.51 -3.76 M-10.51 -3.76 C-10.72 -3.73, -10.92 -3.71, -11.15 -3.68 M-10.51 -3.76 C-10.7 -3.74, -10.88 -3.71, -11.15 -3.68 M-11.15 -3.68 C-11.29 -3.66, -11.43 -3.63, -11.78 -3.57 M-11.15 -3.68 C-11.33 -3.65, -11.5 -3.62, -11.78 -3.57 M-11.78 -3.57 C-12.01 -3.52, -12.25 -3.47, -12.4 -3.43 M-11.78 -3.57 C-11.93 -3.54, -12.08 -3.5, -12.4 -3.43 M-12.4 -3.43 C-12.55 -3.39, -12.69 -3.35, -13.02 -3.26 M-12.4 -3.43 C-12.55 -3.39, -12.7 -3.35, -13.02 -3.26 M-13.02 -3.26 C-13.24 -3.19, -13.47 -3.11, -13.62 -3.06 M-13.02 -3.26 C-13.2 -3.2, -13.38 -3.14, -13.62 -3.06 M-13.62 -3.06 C-13.84 -2.98, -14.06 -2.89, -14.21 -2.83 M-13.62 -3.06 C-13.8 -2.99, -13.97 -2.93, -14.21 -2.83 M-14.21 -2.83 C-14.33 -2.78, -14.44 -2.73, -14.79 -2.58 M-14.21 -2.83 C-14.38 -2.76, -14.54 -2.69, -14.79 -2.58 M-14.79 -2.58 C-14.98 -2.48, -15.16 -2.39, -15.36 -2.29 M-14.79 -2.58 C-15.01 -2.47, -15.22 -2.36, -15.36 -2.29 M-15.36 -2.29 C-15.53 -2.19, -15.7 -2.1, -15.91 -1.98 M-15.36 -2.29 C-15.5 -2.21, -15.65 -2.13, -15.91 -1.98 M-15.91 -1.98 C-16.07 -1.87, -16.24 -1.77, -16.45 -1.64 M-15.91 -1.98 C-16.07 -1.88, -16.23 -1.77, -16.45 -1.64 M-16.45 -1.64 C-16.58 -1.54, -16.71 -1.45, -16.97 -1.27 M-16.45 -1.64 C-16.57 -1.55, -16.68 -1.47, -16.97 -1.27 M-16.97 -1.27 C-17.15 -1.12, -17.34 -0.98, -17.48 -0.87 M-16.97 -1.27 C-17.1 -1.16, -17.24 -1.06, -17.48 -0.87 M-17.48 -0.87 C-17.65 -0.73, -17.82 -0.58, -17.97 -0.45 M-17.48 -0.87 C-17.58 -0.78, -17.68 -0.7, -17.97 -0.45 M-17.97 -0.45 C-18.1 -0.32, -18.23 -0.2, -18.44 0 M-17.97 -0.45 C-18.14 -0.29, -18.31 -0.12, -18.44 0 M-18.44 0 C-18.54 0.11, -18.64 0.21, -18.89 0.47 M-18.44 0 C-18.62 0.19, -18.79 0.37, -18.89 0.47 M-18.89 0.47 C-19.01 0.61, -19.14 0.76, -19.31 0.96 M-18.89 0.47 C-19.01 0.61, -19.13 0.75, -19.31 0.96 M-19.31 0.96 C-19.42 1.1, -19.53 1.25, -19.71 1.47 M-19.31 0.96 C-19.47 1.16, -19.62 1.36, -19.71 1.47 M-19.71 1.47 C-19.84 1.65, -19.97 1.84, -20.08 1.99 M-19.71 1.47 C-19.85 1.68, -20 1.88, -20.08 1.99 M-20.08 1.99 C-20.15 2.11, -20.22 2.22, -20.42 2.53 M-20.08 1.99 C-20.2 2.18, -20.32 2.38, -20.42 2.53 M-20.42 2.53 C-20.5 2.67, -20.58 2.81, -20.73 3.08 M-20.42 2.53 C-20.5 2.68, -20.58 2.82, -20.73 3.08 M-20.73 3.08 C-20.82 3.25, -20.9 3.42, -21.02 3.65 M-20.73 3.08 C-20.81 3.25, -20.9 3.41, -21.02 3.65 M-21.02 3.65 C-21.1 3.84, -21.19 4.03, -21.27 4.23 M-21.02 3.65 C-21.1 3.84, -21.19 4.04, -21.27 4.23 M-21.27 4.23 C-21.34 4.4, -21.4 4.57, -21.5 4.82 M-21.27 4.23 C-21.34 4.41, -21.42 4.6, -21.5 4.82 M-21.5 4.82 C-21.57 5.03, -21.64 5.24, -21.7 5.42 M-21.5 4.82 C-21.55 4.97, -21.6 5.13, -21.7 5.42 M-21.7 5.42 C-21.76 5.63, -21.81 5.84, -21.87 6.04 M-21.7 5.42 C-21.74 5.55, -21.77 5.67, -21.87 6.04 M-21.87 6.04 C-21.9 6.17, -21.93 6.3, -22.01 6.66 M-21.87 6.04 C-21.92 6.25, -21.97 6.46, -22.01 6.66 M-22.01 6.66 C-22.04 6.83, -22.07 7.01, -22.12 7.29 M-22.01 6.66 C-22.04 6.83, -22.07 7, -22.12 7.29 M-22.12 7.29 C-22.14 7.45, -22.16 7.62, -22.2 7.93 M-22.12 7.29 C-22.14 7.49, -22.17 7.7, -22.2 7.93 M-22.2 7.93 C-22.21 8.14, -22.23 8.35, -22.24 8.57 M-22.2 7.93 C-22.21 8.1, -22.22 8.27, -22.24 8.57 M-22.24 8.57 C-22.25 8.81, -22.26 9.05, -22.26 9.22 M-22.24 8.57 C-22.25 8.7, -22.25 8.83, -22.26 9.22 M-22.26 9.22 C-22.25 9.48, -22.25 9.73, -22.24 9.87 M-22.26 9.22 C-22.26 9.4, -22.25 9.57, -22.24 9.87 M-22.24 9.87 C-22.23 10.03, -22.22 10.18, -22.2 10.51 M-22.24 9.87 C-22.23 10.11, -22.21 10.35, -22.2 10.51 M-22.2 10.51 C-22.17 10.75, -22.14 10.99, -22.12 11.15 M-22.2 10.51 C-22.18 10.66, -22.16 10.8, -22.12 11.15 M-22.12 11.15 C-22.08 11.36, -22.04 11.58, -22.01 11.78 M-22.12 11.15 C-22.08 11.35, -22.05 11.56, -22.01 11.78 M-22.01 11.78 C-21.98 11.92, -21.95 12.07, -21.87 12.4 M-22.01 11.78 C-21.96 12.02, -21.9 12.26, -21.87 12.4 M-21.87 12.4 C-21.81 12.61, -21.76 12.81, -21.7 13.02 M-21.87 12.4 C-21.82 12.6, -21.76 12.8, -21.7 13.02 M-21.7 13.02 C-21.63 13.22, -21.57 13.42, -21.5 13.62 M-21.7 13.02 C-21.65 13.17, -21.6 13.33, -21.5 13.62 M-21.5 13.62 C-21.45 13.76, -21.39 13.91, -21.27 14.21 M-21.5 13.62 C-21.43 13.82, -21.35 14.01, -21.27 14.21 M-21.27 14.21 C-21.19 14.41, -21.1 14.61, -21.02 14.79 M-21.27 14.21 C-21.2 14.38, -21.12 14.56, -21.02 14.79 M-21.02 14.79 C-20.92 14.98, -20.83 15.16, -20.73 15.36 M-21.02 14.79 C-20.93 14.97, -20.84 15.15, -20.73 15.36 M-20.73 15.36 C-20.64 15.51, -20.55 15.67, -20.42 15.91 M-20.73 15.36 C-20.61 15.57, -20.49 15.78, -20.42 15.91 M-20.42 15.91 C-20.29 16.11, -20.16 16.31, -20.08 16.45 M-20.42 15.91 C-20.31 16.07, -20.21 16.23, -20.08 16.45 M-20.08 16.45 C-19.97 16.59, -19.87 16.73, -19.71 16.97 M-20.08 16.45 C-19.95 16.62, -19.83 16.79, -19.71 16.97 M-19.71 16.97 C-19.62 17.08, -19.54 17.19, -19.31 17.48 M-19.71 16.97 C-19.58 17.14, -19.45 17.3, -19.31 17.48 M-19.31 17.48 C-19.22 17.59, -19.12 17.7, -18.89 17.97 M-19.31 17.48 C-19.22 17.58, -19.13 17.68, -18.89 17.97 M-18.89 17.97 C-18.8 18.06, -18.7 18.16, -18.44 18.44 M-18.89 17.97 C-18.75 18.11, -18.61 18.26, -18.44 18.44 M-18.44 18.44 C-18.28 18.59, -18.13 18.73, -17.97 18.89 M-18.44 18.44 C-18.34 18.54, -18.23 18.63, -17.97 18.89 M-17.97 18.89 C-17.8 19.03, -17.63 19.18, -17.48 19.31 M-17.97 18.89 C-17.79 19.04, -17.62 19.19, -17.48 19.31 M-17.48 19.31 C-17.29 19.46, -17.11 19.6, -16.97 19.71 M-17.48 19.31 C-17.28 19.47, -17.07 19.63, -16.97 19.71 M-16.97 19.71 C-16.78 19.84, -16.58 19.98, -16.45 20.08 M-16.97 19.71 C-16.83 19.8, -16.7 19.9, -16.45 20.08 M-16.45 20.08 C-16.34 20.14, -16.23 20.21, -15.91 20.42 M-16.45 20.08 C-16.27 20.19, -16.09 20.3, -15.91 20.42 M-15.91 20.42 C-15.77 20.5, -15.63 20.58, -15.36 20.73 M-15.91 20.42 C-15.79 20.49, -15.67 20.55, -15.36 20.73 M-15.36 20.73 C-15.19 20.81, -15.03 20.89, -14.79 21.02 M-15.36 20.73 C-15.23 20.8, -15.1 20.86, -14.79 21.02 M-14.79 21.02 C-14.62 21.09, -14.44 21.17, -14.21 21.27 M-14.79 21.02 C-14.62 21.09, -14.44 21.17, -14.21 21.27 M-14.21 21.27 C-14 21.35, -13.79 21.43, -13.62 21.5 M-14.21 21.27 C-14.06 21.33, -13.91 21.39, -13.62 21.5 M-13.62 21.5 C-13.47 21.55, -13.32 21.6, -13.02 21.7 M-13.62 21.5 C-13.4 21.58, -13.17 21.65, -13.02 21.7 M-13.02 21.7 C-12.81 21.76, -12.61 21.81, -12.4 21.87 M-13.02 21.7 C-12.89 21.74, -12.76 21.77, -12.4 21.87 M-12.4 21.87 C-12.17 21.92, -11.93 21.98, -11.78 22.01 M-12.4 21.87 C-12.17 21.92, -11.93 21.98, -11.78 22.01 M-11.78 22.01 C-11.64 22.03, -11.5 22.06, -11.15 22.12 M-11.78 22.01 C-11.65 22.03, -11.51 22.06, -11.15 22.12 M-11.15 22.12 C-11.02 22.13, -10.89 22.15, -10.51 22.2 M-11.15 22.12 C-10.97 22.14, -10.8 22.16, -10.51 22.2 M-10.51 22.2 C-10.37 22.21, -10.23 22.22, -9.87 22.24 M-10.51 22.2 C-10.35 22.21, -10.19 22.22, -9.87 22.24 M-9.87 22.24 C-9.62 22.25, -9.38 22.26, -9.22 22.26 M-9.87 22.24 C-9.68 22.25, -9.49 22.25, -9.22 22.26 M-9.22 22.26 C-9.08 22.26, -8.94 22.25, -8.57 22.24 M-9.22 22.26 C-9.06 22.26, -8.9 22.25, -8.57 22.24 M-8.57 22.24 C-8.32 22.23, -8.07 22.21, -7.93 22.2 M-8.57 22.24 C-8.42 22.23, -8.26 22.22, -7.93 22.2 M-7.93 22.2 C-7.76 22.18, -7.59 22.16, -7.29 22.12 M-7.93 22.2 C-7.72 22.17, -7.51 22.15, -7.29 22.12 M-7.29 22.12 C-7.13 22.09, -6.98 22.07, -6.66 22.01 M-7.29 22.12 C-7.14 22.09, -6.99 22.07, -6.66 22.01 M-6.66 22.01 C-6.46 21.96, -6.26 21.92, -6.04 21.87 M-6.66 22.01 C-6.53 21.98, -6.4 21.95, -6.04 21.87 M-6.04 21.87 C-5.9 21.83, -5.77 21.8, -5.42 21.7 M-6.04 21.87 C-5.8 21.81, -5.57 21.74, -5.42 21.7 M-5.42 21.7 C-5.22 21.63, -5.03 21.57, -4.82 21.5 M-5.42 21.7 C-5.3 21.66, -5.17 21.62, -4.82 21.5 M-4.82 21.5 C-4.65 21.44, -4.48 21.37, -4.23 21.27 M-4.82 21.5 C-4.67 21.44, -4.52 21.39, -4.23 21.27 M-4.23 21.27 C-4.05 21.19, -3.87 21.11, -3.65 21.02 M-4.23 21.27 C-4 21.17, -3.76 21.07, -3.65 21.02 M-3.65 21.02 C-3.48 20.93, -3.31 20.84, -3.08 20.73 M-3.65 21.02 C-3.51 20.95, -3.38 20.88, -3.08 20.73 M-3.08 20.73 C-2.93 20.65, -2.78 20.56, -2.53 20.42 M-3.08 20.73 C-2.92 20.64, -2.76 20.55, -2.53 20.42 M-2.53 20.42 C-2.41 20.34, -2.3 20.27, -1.99 20.08 M-2.53 20.42 C-2.31 20.28, -2.1 20.14, -1.99 20.08 M-1.99 20.08 C-1.83 19.96, -1.67 19.85, -1.47 19.71 M-1.99 20.08 C-1.81 19.95, -1.64 19.83, -1.47 19.71 M-1.47 19.71 C-1.35 19.62, -1.24 19.53, -0.96 19.31 M-1.47 19.71 C-1.27 19.55, -1.07 19.4, -0.96 19.31 M-0.96 19.31 C-0.81 19.18, -0.66 19.05, -0.47 18.89 M-0.96 19.31 C-0.86 19.22, -0.75 19.13, -0.47 18.89 M-0.47 18.89 C-0.34 18.76, -0.21 18.64, 0 18.44 M-0.47 18.89 C-0.3 18.73, -0.13 18.56, 0 18.44 M0 18.44 C0.11 18.33, 0.21 18.22, 0.45 17.97 M0 18.44 C0.16 18.27, 0.32 18.1, 0.45 17.97 M0.45 17.97 C0.6 17.8, 0.74 17.63, 0.87 17.48 M0.45 17.97 C0.55 17.85, 0.65 17.73, 0.87 17.48 M0.87 17.48 C0.97 17.35, 1.07 17.23, 1.27 16.97 M0.87 17.48 C0.96 17.36, 1.05 17.25, 1.27 16.97 M1.27 16.97 C1.39 16.8, 1.52 16.62, 1.64 16.45 M1.27 16.97 C1.36 16.84, 1.45 16.71, 1.64 16.45 M1.64 16.45 C1.77 16.25, 1.89 16.04, 1.98 15.91 M1.64 16.45 C1.71 16.33, 1.79 16.2, 1.98 15.91 M1.98 15.91 C2.1 15.69, 2.22 15.48, 2.29 15.36 M1.98 15.91 C2.04 15.8, 2.11 15.69, 2.29 15.36 M2.29 15.36 C2.36 15.21, 2.44 15.07, 2.58 14.79 M2.29 15.36 C2.35 15.24, 2.41 15.12, 2.58 14.79 M2.58 14.79 C2.68 14.56, 2.78 14.33, 2.83 14.21 M2.58 14.79 C2.68 14.56, 2.78 14.33, 2.83 14.21 M2.83 14.21 C2.92 13.98, 3.01 13.74, 3.06 13.62 M2.83 14.21 C2.91 14.01, 2.99 13.81, 3.06 13.62 M3.06 13.62 C3.12 13.46, 3.17 13.29, 3.26 13.02 M3.06 13.62 C3.13 13.42, 3.19 13.22, 3.26 13.02 M3.26 13.02 C3.31 12.84, 3.36 12.66, 3.43 12.4 M3.26 13.02 C3.3 12.86, 3.35 12.7, 3.43 12.4 M3.43 12.4 C3.47 12.24, 3.5 12.08, 3.57 11.78 M3.43 12.4 C3.48 12.18, 3.53 11.95, 3.57 11.78 M3.57 11.78 C3.61 11.58, 3.64 11.37, 3.68 11.15 M3.57 11.78 C3.6 11.59, 3.64 11.39, 3.68 11.15 M3.68 11.15 C3.7 10.98, 3.72 10.82, 3.76 10.51 M3.68 11.15 C3.7 10.97, 3.72 10.79, 3.76 10.51 M3.76 10.51 C3.77 10.34, 3.78 10.16, 3.81 9.87 M3.76 10.51 C3.77 10.32, 3.79 10.12, 3.81 9.87 M3.81 9.87 C3.81 9.68, 3.81 9.49, 3.82 9.22 M3.81 9.87 C3.81 9.65, 3.82 9.43, 3.82 9.22 M3.82 9.22 C3.82 8.97, 3.81 8.72, 3.81 8.57 M3.82 9.22 C3.82 8.98, 3.81 8.73, 3.81 8.57 M3.81 8.57 C3.79 8.43, 3.78 8.28, 3.76 7.93 M3.81 8.57 C3.79 8.33, 3.77 8.09, 3.76 7.93 M3.76 7.93 C3.73 7.73, 3.71 7.54, 3.68 7.29 M3.76 7.93 C3.73 7.73, 3.71 7.54, 3.68 7.29 M3.68 7.29 C3.65 7.14, 3.63 6.99, 3.57 6.66 M3.68 7.29 C3.64 7.08, 3.61 6.88, 3.57 6.66 M3.57 6.66 C3.52 6.44, 3.47 6.22, 3.43 6.04 M3.57 6.66 C3.54 6.53, 3.51 6.4, 3.43 6.04 M3.43 6.04 C3.37 5.8, 3.3 5.57, 3.26 5.42 M3.43 6.04 C3.38 5.84, 3.33 5.65, 3.26 5.42 M3.26 5.42 C3.21 5.27, 3.16 5.12, 3.06 4.82 M3.26 5.42 C3.21 5.28, 3.17 5.14, 3.06 4.82 M3.06 4.82 C3.01 4.69, 2.96 4.57, 2.83 4.23 M3.06 4.82 C2.98 4.61, 2.9 4.4, 2.83 4.23 M2.83 4.23 C2.78 4.11, 2.73 4, 2.58 3.65 M2.83 4.23 C2.76 4.06, 2.69 3.89, 2.58 3.65 M2.58 3.65 C2.48 3.45, 2.38 3.26, 2.29 3.08 M2.58 3.65 C2.51 3.51, 2.43 3.36, 2.29 3.08 M2.29 3.08 C2.17 2.87, 2.05 2.66, 1.98 2.53 M2.29 3.08 C2.2 2.92, 2.1 2.75, 1.98 2.53 M1.98 2.53 C1.87 2.36, 1.76 2.19, 1.64 1.99 M1.98 2.53 C1.88 2.37, 1.78 2.21, 1.64 1.99 M1.64 1.99 C1.54 1.85, 1.44 1.72, 1.27 1.47 M1.64 1.99 C1.51 1.81, 1.38 1.63, 1.27 1.47 M1.27 1.47 C1.15 1.32, 1.03 1.16, 0.87 0.96 M1.27 1.47 C1.12 1.28, 0.98 1.1, 0.87 0.96 M0.87 0.96 C0.74 0.81, 0.62 0.67, 0.45 0.47 M0.87 0.96 C0.73 0.8, 0.59 0.64, 0.45 0.47 M0.45 0.47 C0.35 0.37, 0.26 0.27, 0 0 M0.45 0.47 C0.35 0.36, 0.24 0.26, 0 0 M0 0 C0 0, 0 0, 0 0 M0 0 C0 0, 0 0, 0 0 M0 0 C0 0, 0 0, 0 0 M0 0 C0 0, 0 0, 0 0" stroke="#00000000" stroke-width="1" fill="none"></path></g></g><mask></mask><g stroke-linecap="round" transform="translate(27.06910584183879 32.040650367736816) rotate(0 10.325202941894531 10.325202941894531)"><path d="M20.65 10.33 C20.65 10.92, 20.6 11.53, 20.49 12.12 C20.39 12.71, 20.23 13.3, 20.03 13.86 C19.82 14.42, 19.57 14.97, 19.27 15.49 C18.97 16.01, 18.62 16.5, 18.23 16.96 C17.85 17.42, 17.42 17.85, 16.96 18.23 C16.5 18.62, 16.01 18.97, 15.49 19.27 C14.97 19.57, 14.42 19.82, 13.86 20.03 C13.3 20.23, 12.71 20.39, 12.12 20.49 C11.53 20.6, 10.92 20.65, 10.33 20.65 C9.73 20.65, 9.12 20.6, 8.53 20.49 C7.94 20.39, 7.36 20.23, 6.79 20.03 C6.23 19.82, 5.68 19.57, 5.16 19.27 C4.65 18.97, 4.15 18.62, 3.69 18.23 C3.23 17.85, 2.8 17.42, 2.42 16.96 C2.03 16.5, 1.68 16.01, 1.38 15.49 C1.08 14.97, 0.83 14.42, 0.62 13.86 C0.42 13.3, 0.26 12.71, 0.16 12.12 C0.05 11.53, 0 10.92, 0 10.33 C0 9.73, 0.05 9.12, 0.16 8.53 C0.26 7.94, 0.42 7.36, 0.62 6.79 C0.83 6.23, 1.08 5.68, 1.38 5.16 C1.68 4.65, 2.03 4.15, 2.42 3.69 C2.8 3.23, 3.23 2.8, 3.69 2.42 C4.15 2.03, 4.65 1.68, 5.16 1.38 C5.68 1.08, 6.23 0.83, 6.79 0.62 C7.36 0.42, 7.94 0.26, 8.53 0.16 C9.12 0.05, 9.73 0, 10.33 0 C10.92 0, 11.53 0.05, 12.12 0.16 C12.71 0.26, 13.3 0.42, 13.86 0.62 C14.42 0.83, 14.97 1.08, 15.49 1.38 C16.01 1.68, 16.5 2.03, 16.96 2.42 C17.42 2.8, 17.85 3.23, 18.23 3.69 C18.62 4.15, 18.97 4.65, 19.27 5.16 C19.57 5.68, 19.82 6.23, 20.03 6.79 C20.23 7.36, 20.39 7.94, 20.49 8.53 C20.6 9.12, 20.62 10.03, 20.65 10.33 C20.68 10.62, 20.68 10.03, 20.65 10.33" stroke="none" stroke-width="0" fill="#fff"></path><path d="M20.65 10.33 C20.65 10.92, 20.6 11.53, 20.49 12.12 C20.39 12.71, 20.23 13.3, 20.03 13.86 C19.82 14.42, 19.57 14.97, 19.27 15.49 C18.97 16.01, 18.62 16.5, 18.23 16.96 C17.85 17.42, 17.42 17.85, 16.96 18.23 C16.5 18.62, 16.01 18.97, 15.49 19.27 C14.97 19.57, 14.42 19.82, 13.86 20.03 C13.3 20.23, 12.71 20.39, 12.12 20.49 C11.53 20.6, 10.92 20.65, 10.33 20.65 C9.73 20.65, 9.12 20.6, 8.53 20.49 C7.94 20.39, 7.36 20.23, 6.79 20.03 C6.23 19.82, 5.68 19.57, 5.16 19.27 C4.65 18.97, 4.15 18.62, 3.69 18.23 C3.23 17.85, 2.8 17.42, 2.42 16.96 C2.03 16.5, 1.68 16.01, 1.38 15.49 C1.08 14.97, 0.83 14.42, 0.62 13.86 C0.42 13.3, 0.26 12.71, 0.16 12.12 C0.05 11.53, 0 10.92, 0 10.33 C0 9.73, 0.05 9.12, 0.16 8.53 C0.26 7.94, 0.42 7.36, 0.62 6.79 C0.83 6.23, 1.08 5.68, 1.38 5.16 C1.68 4.65, 2.03 4.15, 2.42 3.69 C2.8 3.23, 3.23 2.8, 3.69 2.42 C4.15 2.03, 4.65 1.68, 5.16 1.38 C5.68 1.08, 6.23 0.83, 6.79 0.62 C7.36 0.42, 7.94 0.26, 8.53 0.16 C9.12 0.05, 9.73 0, 10.33 0 C10.92 0, 11.53 0.05, 12.12 0.16 C12.71 0.26, 13.3 0.42, 13.86 0.62 C14.42 0.83, 14.97 1.08, 15.49 1.38 C16.01 1.68, 16.5 2.03, 16.96 2.42 C17.42 2.8, 17.85 3.23, 18.23 3.69 C18.62 4.15, 18.97 4.65, 19.27 5.16 C19.57 5.68, 19.82 6.23, 20.03 6.79 C20.23 7.36, 20.39 7.94, 20.49 8.53 C20.6 9.12, 20.62 10.03, 20.65 10.33 C20.68 10.62, 20.68 10.03, 20.65 10.33" stroke="transparent" stroke-width="1" fill="none"></path></g><g stroke-linecap="round" transform="translate(34.329268195354416 34.95934867858887) rotate(0 3.0487804412841797 3.0487804412841797)"><path d="M6.1 3.05 C6.1 3.23, 6.08 3.4, 6.05 3.58 C6.02 3.75, 5.97 3.93, 5.91 4.09 C5.85 4.26, 5.78 4.42, 5.69 4.57 C5.6 4.73, 5.5 4.87, 5.38 5.01 C5.27 5.14, 5.14 5.27, 5.01 5.38 C4.87 5.5, 4.73 5.6, 4.57 5.69 C4.42 5.78, 4.26 5.85, 4.09 5.91 C3.93 5.97, 3.75 6.02, 3.58 6.05 C3.4 6.08, 3.23 6.1, 3.05 6.1 C2.87 6.1, 2.69 6.08, 2.52 6.05 C2.35 6.02, 2.17 5.97, 2.01 5.91 C1.84 5.85, 1.68 5.78, 1.52 5.69 C1.37 5.6, 1.22 5.5, 1.09 5.38 C0.95 5.27, 0.83 5.14, 0.71 5.01 C0.6 4.87, 0.5 4.73, 0.41 4.57 C0.32 4.42, 0.24 4.26, 0.18 4.09 C0.12 3.93, 0.08 3.75, 0.05 3.58 C0.02 3.4, 0 3.23, 0 3.05 C0 2.87, 0.02 2.69, 0.05 2.52 C0.08 2.35, 0.12 2.17, 0.18 2.01 C0.24 1.84, 0.32 1.68, 0.41 1.52 C0.5 1.37, 0.6 1.22, 0.71 1.09 C0.83 0.95, 0.95 0.83, 1.09 0.71 C1.22 0.6, 1.37 0.5, 1.52 0.41 C1.68 0.32, 1.84 0.24, 2.01 0.18 C2.17 0.12, 2.35 0.08, 2.52 0.05 C2.69 0.02, 2.87 0, 3.05 0 C3.23 0, 3.4 0.02, 3.58 0.05 C3.75 0.08, 3.93 0.12, 4.09 0.18 C4.26 0.24, 4.42 0.32, 4.57 0.41 C4.73 0.5, 4.87 0.6, 5.01 0.71 C5.14 0.83, 5.27 0.95, 5.38 1.09 C5.5 1.22, 5.6 1.37, 5.69 1.52 C5.78 1.68, 5.85 1.84, 5.91 2.01 C5.97 2.17, 6.02 2.35, 6.05 2.52 C6.08 2.69, 6.09 2.96, 6.1 3.05 C6.11 3.14, 6.11 2.96, 6.1 3.05" stroke="none" stroke-width="0" fill="#669df6"></path><path d="M6.1 3.05 C6.1 3.23, 6.08 3.4, 6.05 3.58 C6.02 3.75, 5.97 3.93, 5.91 4.09 C5.85 4.26, 5.78 4.42, 5.69 4.57 C5.6 4.73, 5.5 4.87, 5.38 5.01 C5.27 5.14, 5.14 5.27, 5.01 5.38 C4.87 5.5, 4.73 5.6, 4.57 5.69 C4.42 5.78, 4.26 5.85, 4.09 5.91 C3.93 5.97, 3.75 6.02, 3.58 6.05 C3.4 6.08, 3.23 6.1, 3.05 6.1 C2.87 6.1, 2.69 6.08, 2.52 6.05 C2.35 6.02, 2.17 5.97, 2.01 5.91 C1.84 5.85, 1.68 5.78, 1.52 5.69 C1.37 5.6, 1.22 5.5, 1.09 5.38 C0.95 5.27, 0.83 5.14, 0.71 5.01 C0.6 4.87, 0.5 4.73, 0.41 4.57 C0.32 4.42, 0.24 4.26, 0.18 4.09 C0.12 3.93, 0.08 3.75, 0.05 3.58 C0.02 3.4, 0 3.23, 0 3.05 C0 2.87, 0.02 2.69, 0.05 2.52 C0.08 2.35, 0.12 2.17, 0.18 2.01 C0.24 1.84, 0.32 1.68, 0.41 1.52 C0.5 1.37, 0.6 1.22, 0.71 1.09 C0.83 0.95, 0.95 0.83, 1.09 0.71 C1.22 0.6, 1.37 0.5, 1.52 0.41 C1.68 0.32, 1.84 0.24, 2.01 0.18 C2.17 0.12, 2.35 0.08, 2.52 0.05 C2.69 0.02, 2.87 0, 3.05 0 C3.23 0, 3.4 0.02, 3.58 0.05 C3.75 0.08, 3.93 0.12, 4.09 0.18 C4.26 0.24, 4.42 0.32, 4.57 0.41 C4.73 0.5, 4.87 0.6, 5.01 0.71 C5.14 0.83, 5.27 0.95, 5.38 1.09 C5.5 1.22, 5.6 1.37, 5.69 1.52 C5.78 1.68, 5.85 1.84, 5.91 2.01 C5.97 2.17, 6.02 2.35, 6.05 2.52 C6.08 2.69, 6.09 2.96, 6.1 3.05 C6.11 3.14, 6.11 2.96, 6.1 3.05" stroke="transparent" stroke-width="1" fill="none"></path></g><g stroke-linecap="round"><g transform="translate(37.4430892250175 42.22764205932617) rotate(0 0.012195587158203125 2.963414192199707)" fill-rule="evenodd"><path d="M0 0 L0 0 L-0.56 0.02 L-1.11 0.09 L-1.64 0.19 L-2.16 0.32 L-2.66 0.49 L-3.14 0.68 L-3.59 0.88 L-4.01 1.11 L-4.4 1.34 L-4.74 1.58 L-5.05 1.82 L-5.3 2.06 L-5.51 2.3 L-5.66 2.52 L-5.72 2.62 L-5.76 2.73 L-5.78 2.82 L-5.79 2.91 L-5.79 5.93 L5.81 5.93 L5.81 3.18 L5.81 3.18 L5.79 2.98 L5.71 2.76 L5.58 2.52 L5.41 2.26 L5.18 2 L4.91 1.74 L4.6 1.47 L4.24 1.22 L3.85 0.97 L3.41 0.74 L2.93 0.54 L2.41 0.36 L1.86 0.21 L1.27 0.1 L0.65 0.02 L0 0 L0 0" stroke="none" stroke-width="0" fill="#669df6" fill-rule="evenodd"></path><path d="M0 0 C0 0, 0 0, 0 0 M0 0 C0 0, 0 0, 0 0 M0 0 C-0.12 0, -0.25 0.01, -0.56 0.02 M0 0 C-0.16 0.01, -0.31 0.01, -0.56 0.02 M-0.56 0.02 C-0.76 0.05, -0.97 0.07, -1.11 0.09 M-0.56 0.02 C-0.71 0.04, -0.87 0.06, -1.11 0.09 M-1.11 0.09 C-1.25 0.12, -1.4 0.14, -1.64 0.19 M-1.11 0.09 C-1.3 0.12, -1.5 0.16, -1.64 0.19 M-1.64 0.19 C-1.75 0.22, -1.85 0.24, -2.16 0.32 M-1.64 0.19 C-1.79 0.23, -1.94 0.27, -2.16 0.32 M-2.16 0.32 C-2.35 0.39, -2.54 0.45, -2.66 0.49 M-2.16 0.32 C-2.27 0.36, -2.38 0.39, -2.66 0.49 M-2.66 0.49 C-2.81 0.55, -2.96 0.6, -3.14 0.68 M-2.66 0.49 C-2.81 0.54, -2.95 0.6, -3.14 0.68 M-3.14 0.68 C-3.25 0.73, -3.36 0.78, -3.59 0.88 M-3.14 0.68 C-3.24 0.72, -3.33 0.76, -3.59 0.88 M-3.59 0.88 C-3.73 0.96, -3.87 1.03, -4.01 1.11 M-3.59 0.88 C-3.71 0.95, -3.83 1.01, -4.01 1.11 M-4.01 1.11 C-4.11 1.16, -4.2 1.22, -4.4 1.34 M-4.01 1.11 C-4.12 1.17, -4.22 1.23, -4.4 1.34 M-4.4 1.34 C-4.53 1.43, -4.66 1.52, -4.74 1.58 M-4.4 1.34 C-4.5 1.41, -4.59 1.48, -4.74 1.58 M-4.74 1.58 C-4.82 1.65, -4.9 1.71, -5.05 1.82 M-4.74 1.58 C-4.85 1.66, -4.95 1.75, -5.05 1.82 M-5.05 1.82 C-5.14 1.91, -5.23 1.99, -5.3 2.06 M-5.05 1.82 C-5.13 1.9, -5.21 1.98, -5.3 2.06 M-5.3 2.06 C-5.35 2.12, -5.4 2.18, -5.51 2.3 M-5.3 2.06 C-5.37 2.14, -5.43 2.21, -5.51 2.3 M-5.51 2.3 C-5.55 2.35, -5.59 2.41, -5.66 2.52 M-5.51 2.3 C-5.56 2.37, -5.61 2.45, -5.66 2.52 M-5.66 2.52 C-5.68 2.55, -5.69 2.58, -5.72 2.62 M-5.66 2.52 C-5.68 2.55, -5.7 2.58, -5.72 2.62 M-5.72 2.62 C-5.73 2.65, -5.74 2.68, -5.76 2.73 M-5.72 2.62 C-5.73 2.65, -5.73 2.67, -5.76 2.73 M-5.76 2.73 C-5.76 2.75, -5.77 2.77, -5.78 2.82 M-5.76 2.73 C-5.77 2.76, -5.78 2.8, -5.78 2.82 M-5.78 2.82 C-5.78 2.84, -5.78 2.87, -5.79 2.91 M-5.78 2.82 C-5.78 2.85, -5.79 2.88, -5.79 2.91 M-5.79 2.91 C-5.79 3.58, -5.79 4.26, -5.79 5.93 M-5.79 2.91 C-5.79 3.67, -5.79 4.43, -5.79 5.93 M-5.79 5.93 C-2.22 5.93, 1.36 5.93, 5.81 5.93 M-5.79 5.93 C-2.08 5.93, 1.63 5.93, 5.81 5.93 M5.81 5.93 C5.81 5.08, 5.81 4.24, 5.81 3.18 M5.81 5.93 C5.81 5.04, 5.81 4.15, 5.81 3.18 M5.81 3.18 C5.81 3.18, 5.81 3.18, 5.81 3.18 M5.81 3.18 C5.81 3.18, 5.81 3.18, 5.81 3.18 M5.81 3.18 C5.8 3.11, 5.8 3.05, 5.79 2.98 M5.81 3.18 C5.81 3.12, 5.8 3.07, 5.79 2.98 M5.79 2.98 C5.76 2.91, 5.74 2.84, 5.71 2.76 M5.79 2.98 C5.76 2.89, 5.73 2.8, 5.71 2.76 M5.71 2.76 C5.67 2.67, 5.62 2.59, 5.58 2.52 M5.71 2.76 C5.67 2.68, 5.63 2.61, 5.58 2.52 M5.58 2.52 C5.54 2.46, 5.5 2.4, 5.41 2.26 M5.58 2.52 C5.53 2.45, 5.48 2.37, 5.41 2.26 M5.41 2.26 C5.32 2.16, 5.23 2.06, 5.18 2 M5.41 2.26 C5.35 2.2, 5.29 2.13, 5.18 2 M5.18 2 C5.09 1.91, 5 1.82, 4.91 1.74 M5.18 2 C5.08 1.9, 4.99 1.81, 4.91 1.74 M4.91 1.74 C4.82 1.66, 4.73 1.58, 4.6 1.47 M4.91 1.74 C4.82 1.66, 4.73 1.58, 4.6 1.47 M4.6 1.47 C4.48 1.39, 4.36 1.3, 4.24 1.22 M4.6 1.47 C4.51 1.41, 4.42 1.34, 4.24 1.22 M4.24 1.22 C4.15 1.16, 4.05 1.1, 3.85 0.97 M4.24 1.22 C4.14 1.16, 4.04 1.09, 3.85 0.97 M3.85 0.97 C3.71 0.9, 3.57 0.83, 3.41 0.74 M3.85 0.97 C3.7 0.9, 3.55 0.82, 3.41 0.74 M3.41 0.74 C3.27 0.68, 3.13 0.62, 2.93 0.54 M3.41 0.74 C3.28 0.69, 3.16 0.64, 2.93 0.54 M2.93 0.54 C2.79 0.49, 2.66 0.44, 2.41 0.36 M2.93 0.54 C2.78 0.49, 2.63 0.43, 2.41 0.36 M2.41 0.36 C2.21 0.3, 2 0.24, 1.86 0.21 M2.41 0.36 C2.25 0.31, 2.08 0.27, 1.86 0.21 M1.86 0.21 C1.66 0.17, 1.45 0.13, 1.27 0.1 M1.86 0.21 C1.64 0.17, 1.42 0.12, 1.27 0.1 M1.27 0.1 C1.07 0.07, 0.88 0.05, 0.65 0.02 M1.27 0.1 C1.09 0.08, 0.91 0.05, 0.65 0.02 M0.65 0.02 C0.5 0.02, 0.35 0.01, 0 0 M0.65 0.02 C0.43 0.02, 0.21 0.01, 0 0 M0 0 C0 0, 0 0, 0 0 M0 0 C0 0, 0 0, 0 0 M0 0 C0 0, 0 0, 0 0 M0 0 C0 0, 0 0, 0 0" stroke="#00000000" stroke-width="1" fill="none"></path></g></g><mask></mask><g stroke-linecap="round"><g transform="translate(53.508127906047775 28.77235746383667) rotate(0 1.3089447021484375 3.1422765254974365)" fill-rule="evenodd"><path d="M0 0 L4.54 0 L4.54 4.42 L2.56 6.28 L2.56 3.64 L0.15 5.99 L-1.51 4.4 L0.96 2.01 L-1.92 2.01 L0 0" stroke="none" stroke-width="0" fill="#669df6" fill-rule="evenodd"></path><path d="M0 0 C0.98 0, 1.96 0, 4.54 0 M0 0 C1.3 0, 2.6 0, 4.54 0 M4.54 0 C4.54 0.91, 4.54 1.81, 4.54 4.42 M4.54 0 C4.54 1.01, 4.54 2.02, 4.54 4.42 M4.54 4.42 C3.98 4.95, 3.42 5.48, 2.56 6.28 M4.54 4.42 C4.05 4.88, 3.57 5.34, 2.56 6.28 M2.56 6.28 C2.56 5.67, 2.56 5.05, 2.56 3.64 M2.56 6.28 C2.56 5.23, 2.56 4.18, 2.56 3.64 M2.56 3.64 C1.93 4.25, 1.31 4.86, 0.15 5.99 M2.56 3.64 C1.79 4.39, 1.02 5.15, 0.15 5.99 M0.15 5.99 C-0.49 5.38, -1.13 4.77, -1.51 4.4 M0.15 5.99 C-0.28 5.58, -0.72 5.16, -1.51 4.4 M-1.51 4.4 C-0.66 3.58, 0.18 2.76, 0.96 2.01 M-1.51 4.4 C-0.91 3.81, -0.3 3.23, 0.96 2.01 M0.96 2.01 C-0.15 2.01, -1.26 2.01, -1.92 2.01 M0.96 2.01 C0.02 2.01, -0.93 2.01, -1.92 2.01 M-1.92 2.01 C-1.22 1.27, -0.51 0.54, 0 0 M-1.92 2.01 C-1.26 1.32, -0.6 0.63, 0 0 M0 0 C0 0, 0 0, 0 0 M0 0 C0 0, 0 0, 0 0" stroke="#00000000" stroke-width="1" fill="none"></path></g></g><mask></mask><g stroke-linecap="round"><g transform="translate(53.621950843059494 55.56097412109375) rotate(0 1.3089408874511719 -3.1422767639160156)" fill-rule="evenodd"><path d="M0 0 L4.54 0 L4.54 -4.42 L2.56 -6.28 L2.56 -3.64 L0.15 -5.99 L-1.51 -4.4 L0.96 -2.01 L-1.92 -2.01 L0 0" stroke="none" stroke-width="0" fill="#669df6" fill-rule="evenodd"></path><path d="M0 0 C1.66 0, 3.33 0, 4.54 0 M0 0 C1.41 0, 2.83 0, 4.54 0 M4.54 0 C4.54 -0.89, 4.54 -1.77, 4.54 -4.42 M4.54 0 C4.54 -1.7, 4.54 -3.39, 4.54 -4.42 M4.54 -4.42 C3.85 -5.07, 3.17 -5.71, 2.56 -6.28 M4.54 -4.42 C4.12 -4.82, 3.7 -5.21, 2.56 -6.28 M2.56 -6.28 C2.56 -5.57, 2.56 -4.86, 2.56 -3.64 M2.56 -6.28 C2.56 -5.32, 2.56 -4.35, 2.56 -3.64 M2.56 -3.64 C1.74 -4.44, 0.92 -5.24, 0.15 -5.99 M2.56 -3.64 C1.72 -4.47, 0.87 -5.29, 0.15 -5.99 M0.15 -5.99 C-0.48 -5.39, -1.11 -4.78, -1.51 -4.4 M0.15 -5.99 C-0.19 -5.67, -0.52 -5.35, -1.51 -4.4 M-1.51 -4.4 C-0.71 -3.63, 0.08 -2.86, 0.96 -2.01 M-1.51 -4.4 C-0.57 -3.49, 0.36 -2.58, 0.96 -2.01 M0.96 -2.01 C-0.08 -2.01, -1.13 -2.01, -1.92 -2.01 M0.96 -2.01 C-0.11 -2.01, -1.18 -2.01, -1.92 -2.01 M-1.92 -2.01 C-1.52 -1.59, -1.12 -1.17, 0 0 M-1.92 -2.01 C-1.18 -1.24, -0.44 -0.46, 0 0 M0 0 C0 0, 0 0, 0 0 M0 0 C0 0, 0 0, 0 0" stroke="#00000000" stroke-width="1" fill="none"></path></g></g><mask></mask><g stroke-linecap="round"><g transform="translate(54.004065253459885 40.82113838195801) rotate(0 4.849592208862305 1.2032513618469238)" fill-rule="evenodd"><path d="M0 0 L0 2.41 L5.56 2.41 L3.64 4.33 L6.46 4.33 L9.7 1.19 L6.45 -1.92 L3.71 -1.92 L5.33 -0.02 L0 0" stroke="none" stroke-width="0" fill="#aecbfa" fill-rule="evenodd"></path><path d="M0 0 C0 0.88, 0 1.77, 0 2.41 M0 0 C0 0.55, 0 1.09, 0 2.41 M0 2.41 C1.59 2.41, 3.18 2.41, 5.56 2.41 M0 2.41 C1.89 2.41, 3.78 2.41, 5.56 2.41 M5.56 2.41 C4.93 3.04, 4.3 3.67, 3.64 4.33 M5.56 2.41 C4.86 3.11, 4.16 3.81, 3.64 4.33 M3.64 4.33 C4.36 4.33, 5.07 4.33, 6.46 4.33 M3.64 4.33 C4.31 4.33, 4.97 4.33, 6.46 4.33 M6.46 4.33 C7.66 3.16, 8.86 2, 9.7 1.19 M6.46 4.33 C7.36 3.46, 8.25 2.59, 9.7 1.19 M9.7 1.19 C8.94 0.46, 8.17 -0.27, 6.45 -1.92 M9.7 1.19 C8.55 0.09, 7.4 -1.01, 6.45 -1.92 M6.45 -1.92 C5.78 -1.92, 5.12 -1.92, 3.71 -1.92 M6.45 -1.92 C5.54 -1.92, 4.63 -1.92, 3.71 -1.92 M3.71 -1.92 C4.25 -1.29, 4.78 -0.65, 5.33 -0.02 M3.71 -1.92 C4.07 -1.5, 4.43 -1.07, 5.33 -0.02 M5.33 -0.02 C3.31 -0.01, 1.29 0, 0 0 M5.33 -0.02 C4.04 -0.01, 2.75 -0.01, 0 0 M0 0 C0 0, 0 0, 0 0 M0 0 C0 0, 0 0, 0 0" stroke="#00000000" stroke-width="1" fill="none"></path></g></g><mask></mask></svg>