<svg version="1.1" xmlns="http://www.w3.org/2000/svg" viewBox="0 0 231.07499829261582 325.1804959019887" width="231.07499829261582" height="325.1804959019887">
  <!-- svg-source:excalidraw -->
  
  <defs>
    
    
  </defs>
  <g stroke-linecap="round"><g transform="translate(114.80371117798138 160.8611015976221) rotate(0 -27.20092779449537 -43.5001682284626)" fill-rule="evenodd"><path d="M0 0 L0 0 L-1.23 -0.07 L-2.49 -0.28 L-5.11 -1.07 L-7.81 -2.36 L-10.55 -4.09 L-13.29 -6.23 L-16 -8.73 L-18.64 -11.56 L-21.16 -14.68 L-23.54 -18.05 L-25.72 -21.63 L-27.67 -25.38 L-29.36 -29.26 L-30.74 -33.24 L-31.77 -37.27 L-32.42 -41.31 L-32.64 -45.32 L-32.64 -76.51 L0 -87.44 L0 -109.3 L-54.4 -87.44 L-54.4 -45.54 L-54.4 -45.54 L-54.33 -42.74 L-54.1 -39.9 L-53.73 -37.03 L-53.21 -34.13 L-51.78 -28.29 L-49.84 -22.46 L-47.42 -16.7 L-44.57 -11.08 L-41.32 -5.66 L-37.7 -0.53 L-33.75 4.26 L-29.52 8.63 L-27.3 10.64 L-25.02 12.52 L-22.69 14.26 L-20.31 15.86 L-17.89 17.3 L-15.42 18.57 L-12.91 19.67 L-10.38 20.6 L-7.81 21.33 L-5.22 21.86 L-2.62 22.19 L0 22.3 L0 0 L0 0" stroke="none" stroke-width="0" fill="#669DF6" fill-rule="evenodd"></path><path d="M0 0 C0 0, 0 0, 0 0 M0 0 C0 0, 0 0, 0 0 M0 0 C-0.46 -0.03, -0.93 -0.05, -1.23 -0.07 M0 0 C-0.41 -0.02, -0.81 -0.05, -1.23 -0.07 M-1.23 -0.07 C-1.56 -0.12, -1.88 -0.18, -2.49 -0.28 M-1.23 -0.07 C-1.65 -0.14, -2.07 -0.21, -2.49 -0.28 M-2.49 -0.28 C-3.27 -0.51, -4.04 -0.75, -5.11 -1.07 M-2.49 -0.28 C-3.13 -0.47, -3.76 -0.66, -5.11 -1.07 M-5.11 -1.07 C-5.71 -1.36, -6.31 -1.64, -7.81 -2.36 M-5.11 -1.07 C-5.94 -1.47, -6.78 -1.87, -7.81 -2.36 M-7.81 -2.36 C-8.45 -2.77, -9.1 -3.17, -10.55 -4.09 M-7.81 -2.36 C-8.54 -2.82, -9.27 -3.28, -10.55 -4.09 M-10.55 -4.09 C-11.35 -4.71, -12.15 -5.34, -13.29 -6.23 M-10.55 -4.09 C-11.29 -4.67, -12.04 -5.25, -13.29 -6.23 M-13.29 -6.23 C-14.1 -6.98, -14.92 -7.73, -16 -8.73 M-13.29 -6.23 C-14.3 -7.15, -15.3 -8.08, -16 -8.73 M-16 -8.73 C-16.59 -9.36, -17.18 -10, -18.64 -11.56 M-16 -8.73 C-16.65 -9.42, -17.29 -10.11, -18.64 -11.56 M-18.64 -11.56 C-19.33 -12.42, -20.03 -13.28, -21.16 -14.68 M-18.64 -11.56 C-19.3 -12.38, -19.97 -13.21, -21.16 -14.68 M-21.16 -14.68 C-21.66 -15.39, -22.16 -16.1, -23.54 -18.05 M-21.16 -14.68 C-21.74 -15.5, -22.31 -16.32, -23.54 -18.05 M-23.54 -18.05 C-24.26 -19.24, -24.99 -20.43, -25.72 -21.63 M-23.54 -18.05 C-24.17 -19.09, -24.81 -20.14, -25.72 -21.63 M-25.72 -21.63 C-26.46 -23.06, -27.21 -24.49, -27.67 -25.38 M-25.72 -21.63 C-26.44 -23.02, -27.16 -24.4, -27.67 -25.38 M-27.67 -25.38 C-28.23 -26.67, -28.79 -27.96, -29.36 -29.26 M-27.67 -25.38 C-28.24 -26.7, -28.81 -28.01, -29.36 -29.26 M-29.36 -29.26 C-29.77 -30.45, -30.18 -31.63, -30.74 -33.24 M-29.36 -29.26 C-29.79 -30.52, -30.23 -31.78, -30.74 -33.24 M-30.74 -33.24 C-31.06 -34.52, -31.39 -35.8, -31.77 -37.27 M-30.74 -33.24 C-31.08 -34.57, -31.42 -35.9, -31.77 -37.27 M-31.77 -37.27 C-31.94 -38.32, -32.11 -39.38, -32.42 -41.31 M-31.77 -37.27 C-31.94 -38.35, -32.12 -39.43, -32.42 -41.31 M-32.42 -41.31 C-32.47 -42.19, -32.52 -43.08, -32.64 -45.32 M-32.42 -41.31 C-32.49 -42.64, -32.57 -43.97, -32.64 -45.32 M-32.64 -45.32 C-32.64 -51.82, -32.64 -58.32, -32.64 -76.51 M-32.64 -45.32 C-32.64 -57.55, -32.64 -69.78, -32.64 -76.51 M-32.64 -76.51 C-21.01 -80.4, -9.39 -84.29, 0 -87.44 M-32.64 -76.51 C-24.71 -79.16, -16.79 -81.82, 0 -87.44 M0 -87.44 C0 -92.03, 0 -96.61, 0 -109.3 M0 -87.44 C0 -95.09, 0 -102.74, 0 -109.3 M0 -109.3 C-17.79 -102.15, -35.58 -95, -54.4 -87.44 M0 -109.3 C-16.74 -102.57, -33.47 -95.85, -54.4 -87.44 M-54.4 -87.44 C-54.4 -71.78, -54.4 -56.13, -54.4 -45.54 M-54.4 -87.44 C-54.4 -71.09, -54.4 -54.73, -54.4 -45.54 M-54.4 -45.54 C-54.4 -45.54, -54.4 -45.54, -54.4 -45.54 M-54.4 -45.54 C-54.4 -45.54, -54.4 -45.54, -54.4 -45.54 M-54.4 -45.54 C-54.38 -44.58, -54.35 -43.62, -54.33 -42.74 M-54.4 -45.54 C-54.38 -44.84, -54.36 -44.14, -54.33 -42.74 M-54.33 -42.74 C-54.28 -42.14, -54.23 -41.53, -54.1 -39.9 M-54.33 -42.74 C-54.24 -41.72, -54.16 -40.71, -54.1 -39.9 M-54.1 -39.9 C-53.95 -38.76, -53.8 -37.61, -53.73 -37.03 M-54.1 -39.9 C-54 -39.16, -53.91 -38.42, -53.73 -37.03 M-53.73 -37.03 C-53.59 -36.27, -53.46 -35.5, -53.21 -34.13 M-53.73 -37.03 C-53.61 -36.38, -53.5 -35.73, -53.21 -34.13 M-53.21 -34.13 C-52.7 -32.05, -52.19 -29.96, -51.78 -28.29 M-53.21 -34.13 C-52.88 -32.79, -52.56 -31.45, -51.78 -28.29 M-51.78 -28.29 C-51.36 -27.02, -50.94 -25.75, -49.84 -22.46 M-51.78 -28.29 C-51.39 -27.13, -51 -25.96, -49.84 -22.46 M-49.84 -22.46 C-49.19 -20.92, -48.55 -19.38, -47.42 -16.7 M-49.84 -22.46 C-48.95 -20.34, -48.06 -18.21, -47.42 -16.7 M-47.42 -16.7 C-46.83 -15.53, -46.24 -14.36, -44.57 -11.08 M-47.42 -16.7 C-46.5 -14.87, -45.57 -13.05, -44.57 -11.08 M-44.57 -11.08 C-43.54 -9.35, -42.5 -7.63, -41.32 -5.66 M-44.57 -11.08 C-43.37 -9.07, -42.16 -7.06, -41.32 -5.66 M-41.32 -5.66 C-40.41 -4.37, -39.5 -3.08, -37.7 -0.53 M-41.32 -5.66 C-39.97 -3.75, -38.62 -1.83, -37.7 -0.53 M-37.7 -0.53 C-36.39 1.07, -35.07 2.66, -33.75 4.26 M-37.7 -0.53 C-36.45 0.99, -35.19 2.52, -33.75 4.26 M-33.75 4.26 C-32.26 5.81, -30.76 7.35, -29.52 8.63 M-33.75 4.26 C-32.22 5.84, -30.69 7.42, -29.52 8.63 M-29.52 8.63 C-28.92 9.18, -28.32 9.72, -27.3 10.64 M-29.52 8.63 C-28.67 9.4, -27.82 10.17, -27.3 10.64 M-27.3 10.64 C-26.84 11.02, -26.38 11.41, -25.02 12.52 M-27.3 10.64 C-26.75 11.1, -26.19 11.56, -25.02 12.52 M-25.02 12.52 C-24.26 13.09, -23.5 13.66, -22.69 14.26 M-25.02 12.52 C-24.26 13.09, -23.49 13.67, -22.69 14.26 M-22.69 14.26 C-22.04 14.7, -21.38 15.14, -20.31 15.86 M-22.69 14.26 C-22.19 14.6, -21.68 14.94, -20.31 15.86 M-20.31 15.86 C-19.75 16.19, -19.18 16.53, -17.89 17.3 M-20.31 15.86 C-19.82 16.15, -19.33 16.44, -17.89 17.3 M-17.89 17.3 C-17.06 17.72, -16.24 18.15, -15.42 18.57 M-17.89 17.3 C-17.39 17.55, -16.89 17.81, -15.42 18.57 M-15.42 18.57 C-14.52 18.96, -13.63 19.36, -12.91 19.67 M-15.42 18.57 C-14.8 18.84, -14.18 19.12, -12.91 19.67 M-12.91 19.67 C-12.09 19.97, -11.27 20.27, -10.38 20.6 M-12.91 19.67 C-11.95 20.02, -10.98 20.38, -10.38 20.6 M-10.38 20.6 C-9.35 20.89, -8.33 21.18, -7.81 21.33 M-10.38 20.6 C-9.38 20.88, -8.38 21.16, -7.81 21.33 M-7.81 21.33 C-7.08 21.48, -6.36 21.63, -5.22 21.86 M-7.81 21.33 C-7.13 21.47, -6.45 21.61, -5.22 21.86 M-5.22 21.86 C-4.44 21.96, -3.65 22.06, -2.62 22.19 M-5.22 21.86 C-4.32 21.97, -3.42 22.09, -2.62 22.19 M-2.62 22.19 C-2.03 22.21, -1.45 22.24, 0 22.3 M-2.62 22.19 C-1.58 22.23, -0.55 22.27, 0 22.3 M0 22.3 C0 14.76, 0 7.23, 0 0 M0 22.3 C0 15.03, 0 7.76, 0 0 M0 0 C0 0, 0 0, 0 0 M0 0 C0 0, 0 0, 0 0 M0 0 C0 0, 0 0, 0 0 M0 0 C0 0, 0 0, 0 0" stroke="#000000" stroke-width="1" fill="none"></path></g></g><mask></mask><g stroke-linecap="round"><g transform="translate(169.94072438461768 73.88649734456385) rotate(0 -27.20092779449537 43.842011525086775)" fill-rule="evenodd"><path d="M0 0 L-54.4 -22.32 L-54.4 -0.44 L-21.76 10.72 L-21.76 41.8 L-21.76 41.8 L-21.99 45.86 L-22.63 49.94 L-23.67 54.01 L-25.05 58.02 L-26.73 61.94 L-28.68 65.73 L-30.87 69.34 L-33.24 72.74 L-35.76 75.89 L-38.4 78.74 L-41.11 81.26 L-43.85 83.42 L-46.59 85.16 L-49.29 86.46 L-51.91 87.26 L-53.17 87.47 L-54.4 87.54 L-54.4 110.01 L-54.4 110.01 L-51.78 109.9 L-49.18 109.57 L-46.6 109.04 L-44.03 108.3 L-41.5 107.38 L-39 106.28 L-36.54 105 L-34.12 103.56 L-31.75 101.96 L-29.43 100.22 L-27.16 98.34 L-24.95 96.33 L-20.74 91.96 L-16.81 87.16 L-13.21 82.03 L-9.98 76.61 L-7.15 70.99 L-4.75 65.23 L-2.82 59.4 L-1.4 53.56 L-0.89 50.67 L-0.52 47.79 L-0.29 44.96 L-0.22 42.16 L0 0 L0 0" stroke="none" stroke-width="0" fill="#AECBFA" fill-rule="evenodd"></path><path d="M0 0 C-18.74 -7.69, -37.49 -15.38, -54.4 -22.32 M0 0 C-19.68 -8.07, -39.36 -16.15, -54.4 -22.32 M-54.4 -22.32 C-54.4 -15.57, -54.4 -8.81, -54.4 -0.44 M-54.4 -22.32 C-54.4 -15.5, -54.4 -8.68, -54.4 -0.44 M-54.4 -0.44 C-43.08 3.43, -31.76 7.3, -21.76 10.72 M-54.4 -0.44 C-45.98 2.44, -37.56 5.32, -21.76 10.72 M-21.76 10.72 C-21.76 17.23, -21.76 23.74, -21.76 41.8 M-21.76 10.72 C-21.76 19.53, -21.76 28.34, -21.76 41.8 M-21.76 41.8 C-21.76 41.8, -21.76 41.8, -21.76 41.8 M-21.76 41.8 C-21.76 41.8, -21.76 41.8, -21.76 41.8 M-21.76 41.8 C-21.84 43.25, -21.92 44.69, -21.99 45.86 M-21.76 41.8 C-21.85 43.37, -21.94 44.95, -21.99 45.86 M-21.99 45.86 C-22.15 46.87, -22.31 47.88, -22.63 49.94 M-21.99 45.86 C-22.12 46.71, -22.25 47.55, -22.63 49.94 M-22.63 49.94 C-23.03 51.5, -23.42 53.06, -23.67 54.01 M-22.63 49.94 C-22.92 51.08, -23.21 52.21, -23.67 54.01 M-23.67 54.01 C-23.99 54.96, -24.32 55.92, -25.05 58.02 M-23.67 54.01 C-24.14 55.39, -24.61 56.76, -25.05 58.02 M-25.05 58.02 C-25.4 58.85, -25.76 59.68, -26.73 61.94 M-25.05 58.02 C-25.55 59.19, -26.05 60.35, -26.73 61.94 M-26.73 61.94 C-27.28 63, -27.82 64.06, -28.68 65.73 M-26.73 61.94 C-27.32 63.08, -27.9 64.22, -28.68 65.73 M-28.68 65.73 C-29.45 67, -30.22 68.27, -30.87 69.34 M-28.68 65.73 C-29.49 67.05, -30.29 68.38, -30.87 69.34 M-30.87 69.34 C-31.62 70.42, -32.37 71.5, -33.24 72.74 M-30.87 69.34 C-31.49 70.23, -32.11 71.12, -33.24 72.74 M-33.24 72.74 C-33.76 73.39, -34.28 74.03, -35.76 75.89 M-33.24 72.74 C-34 73.69, -34.76 74.63, -35.76 75.89 M-35.76 75.89 C-36.38 76.55, -37 77.22, -38.4 78.74 M-35.76 75.89 C-36.41 76.58, -37.05 77.28, -38.4 78.74 M-38.4 78.74 C-39.38 79.66, -40.37 80.57, -41.11 81.26 M-38.4 78.74 C-39.2 79.49, -40.01 80.24, -41.11 81.26 M-41.11 81.26 C-42.07 82.02, -43.03 82.77, -43.85 83.42 M-41.11 81.26 C-41.66 81.7, -42.21 82.13, -43.85 83.42 M-43.85 83.42 C-44.68 83.94, -45.51 84.47, -46.59 85.16 M-43.85 83.42 C-44.51 83.83, -45.16 84.25, -46.59 85.16 M-46.59 85.16 C-47.48 85.58, -48.36 86.01, -49.29 86.46 M-46.59 85.16 C-47.46 85.58, -48.32 85.99, -49.29 86.46 M-49.29 86.46 C-50.05 86.69, -50.8 86.92, -51.91 87.26 M-49.29 86.46 C-50.32 86.77, -51.35 87.09, -51.91 87.26 M-51.91 87.26 C-52.24 87.32, -52.57 87.37, -53.17 87.47 M-51.91 87.26 C-52.32 87.33, -52.74 87.4, -53.17 87.47 M-53.17 87.47 C-53.52 87.49, -53.87 87.51, -54.4 87.54 M-53.17 87.47 C-53.56 87.49, -53.96 87.51, -54.4 87.54 M-54.4 87.54 C-54.4 96.48, -54.4 105.42, -54.4 110.01 M-54.4 87.54 C-54.4 96.16, -54.4 104.78, -54.4 110.01 M-54.4 110.01 C-54.4 110.01, -54.4 110.01, -54.4 110.01 M-54.4 110.01 C-54.4 110.01, -54.4 110.01, -54.4 110.01 M-54.4 110.01 C-53.85 109.98, -53.31 109.96, -51.78 109.9 M-54.4 110.01 C-53.39 109.96, -52.38 109.92, -51.78 109.9 M-51.78 109.9 C-50.85 109.78, -49.92 109.66, -49.18 109.57 M-51.78 109.9 C-50.92 109.79, -50.05 109.68, -49.18 109.57 M-49.18 109.57 C-48.37 109.4, -47.56 109.23, -46.6 109.04 M-49.18 109.57 C-48.49 109.43, -47.81 109.29, -46.6 109.04 M-46.6 109.04 C-45.83 108.82, -45.06 108.6, -44.03 108.3 M-46.6 109.04 C-45.93 108.84, -45.26 108.65, -44.03 108.3 M-44.03 108.3 C-43.1 107.96, -42.17 107.62, -41.5 107.38 M-44.03 108.3 C-43.29 108.03, -42.55 107.76, -41.5 107.38 M-41.5 107.38 C-40.6 106.98, -39.69 106.58, -39 106.28 M-41.5 107.38 C-40.9 107.12, -40.3 106.85, -39 106.28 M-39 106.28 C-38.1 105.81, -37.2 105.34, -36.54 105 M-39 106.28 C-38.09 105.8, -37.17 105.33, -36.54 105 M-36.54 105 C-35.93 104.64, -35.33 104.28, -34.12 103.56 M-36.54 105 C-35.68 104.49, -34.82 103.98, -34.12 103.56 M-34.12 103.56 C-33.31 103.02, -32.5 102.47, -31.75 101.96 M-34.12 103.56 C-33.31 103.01, -32.49 102.46, -31.75 101.96 M-31.75 101.96 C-30.92 101.34, -30.09 100.72, -29.43 100.22 M-31.75 101.96 C-30.87 101.3, -29.99 100.64, -29.43 100.22 M-29.43 100.22 C-28.82 99.72, -28.21 99.21, -27.16 98.34 M-29.43 100.22 C-28.78 99.69, -28.14 99.15, -27.16 98.34 M-27.16 98.34 C-26.59 97.82, -26.02 97.31, -24.95 96.33 M-27.16 98.34 C-26.57 97.8, -25.98 97.27, -24.95 96.33 M-24.95 96.33 C-23.44 94.76, -21.92 93.19, -20.74 91.96 M-24.95 96.33 C-24.08 95.42, -23.2 94.52, -20.74 91.96 M-20.74 91.96 C-19.86 90.88, -18.98 89.81, -16.81 87.16 M-20.74 91.96 C-19.71 90.7, -18.68 89.44, -16.81 87.16 M-16.81 87.16 C-15.5 85.29, -14.19 83.42, -13.21 82.03 M-16.81 87.16 C-15.52 85.32, -14.22 83.47, -13.21 82.03 M-13.21 82.03 C-12.2 80.33, -11.19 78.64, -9.98 76.61 M-13.21 82.03 C-11.94 79.89, -10.66 77.76, -9.98 76.61 M-9.98 76.61 C-9.2 75.07, -8.43 73.53, -7.15 70.99 M-9.98 76.61 C-9.06 74.78, -8.13 72.95, -7.15 70.99 M-7.15 70.99 C-6.49 69.41, -5.83 67.84, -4.75 65.23 M-7.15 70.99 C-6.24 68.82, -5.34 66.65, -4.75 65.23 M-4.75 65.23 C-4.33 63.96, -3.91 62.69, -2.82 59.4 M-4.75 65.23 C-4.12 63.32, -3.49 61.41, -2.82 59.4 M-2.82 59.4 C-2.48 57.99, -2.13 56.58, -1.4 53.56 M-2.82 59.4 C-2.38 57.58, -1.93 55.76, -1.4 53.56 M-1.4 53.56 C-1.21 52.51, -1.03 51.46, -0.89 50.67 M-1.4 53.56 C-1.24 52.64, -1.07 51.72, -0.89 50.67 M-0.89 50.67 C-0.8 49.97, -0.71 49.28, -0.52 47.79 M-0.89 50.67 C-0.75 49.56, -0.6 48.45, -0.52 47.79 M-0.52 47.79 C-0.47 47.17, -0.42 46.55, -0.29 44.96 M-0.52 47.79 C-0.45 46.96, -0.39 46.13, -0.29 44.96 M-0.29 44.96 C-0.27 44.15, -0.25 43.35, -0.22 42.16 M-0.29 44.96 C-0.27 43.93, -0.24 42.89, -0.22 42.16 M-0.22 42.16 C-0.15 28.16, -0.07 14.16, 0 0 M-0.22 42.16 C-0.14 26.18, -0.05 10.19, 0 0 M0 0 C0 0, 0 0, 0 0 M0 0 C0 0, 0 0, 0 0 M0 0 C0 0, 0 0, 0 0 M0 0 C0 0, 0 0, 0 0" stroke="#000000" stroke-width="1" fill="none"></path></g></g><mask></mask><g stroke-linecap="round"><g transform="translate(123.5212445749681 126.77685558541589) rotate(0 5.618089772071187 -24.48644826142032)" fill-rule="evenodd"><path d="M0 0 L0 0 L-1.84 1.51 L-3.89 2.59 L-6.07 3.23 L-8.32 3.45 L-10.56 3.23 L-12.74 2.59 L-14.79 1.51 L-16.63 0 L-32.98 -16.41 L-24.66 -24.72 L-8.32 -8.24 L35.9 -52.42 L44.21 -44.11 L0 0 L0 0" stroke="none" stroke-width="0" fill="#4285F4" fill-rule="evenodd"></path><path d="M0 0 C0 0, 0 0, 0 0 M0 0 C0 0, 0 0, 0 0 M0 0 C-0.48 0.4, -0.97 0.79, -1.84 1.51 M0 0 C-0.48 0.39, -0.96 0.79, -1.84 1.51 M-1.84 1.51 C-2.46 1.83, -3.07 2.16, -3.89 2.59 M-1.84 1.51 C-2.44 1.82, -3.04 2.14, -3.89 2.59 M-3.89 2.59 C-4.34 2.72, -4.79 2.85, -6.07 3.23 M-3.89 2.59 C-4.67 2.82, -5.45 3.05, -6.07 3.23 M-6.07 3.23 C-6.58 3.28, -7.09 3.33, -8.32 3.45 M-6.07 3.23 C-6.74 3.3, -7.41 3.36, -8.32 3.45 M-8.32 3.45 C-8.99 3.39, -9.66 3.32, -10.56 3.23 M-8.32 3.45 C-9.11 3.37, -9.9 3.3, -10.56 3.23 M-10.56 3.23 C-11.09 3.08, -11.62 2.92, -12.74 2.59 M-10.56 3.23 C-11.03 3.1, -11.49 2.96, -12.74 2.59 M-12.74 2.59 C-13.28 2.3, -13.82 2.02, -14.79 1.51 M-12.74 2.59 C-13.52 2.18, -14.29 1.77, -14.79 1.51 M-14.79 1.51 C-15.43 0.98, -16.07 0.46, -16.63 0 M-14.79 1.51 C-15.16 1.21, -15.53 0.9, -16.63 0 M-16.63 0 C-22.55 -5.94, -28.46 -11.87, -32.98 -16.41 M-16.63 0 C-20.74 -4.12, -24.84 -8.24, -32.98 -16.41 M-32.98 -16.41 C-30.97 -18.41, -28.96 -20.42, -24.66 -24.72 M-32.98 -16.41 C-29.97 -19.41, -26.97 -22.41, -24.66 -24.72 M-24.66 -24.72 C-19.83 -19.85, -15.01 -14.99, -8.32 -8.24 M-24.66 -24.72 C-18.42 -18.42, -12.18 -12.13, -8.32 -8.24 M-8.32 -8.24 C0.53 -17.08, 9.37 -25.91, 35.9 -52.42 M-8.32 -8.24 C2.08 -18.63, 12.48 -29.02, 35.9 -52.42 M35.9 -52.42 C38.37 -49.96, 40.83 -47.49, 44.21 -44.11 M35.9 -52.42 C38.12 -50.2, 40.34 -47.98, 44.21 -44.11 M44.21 -44.11 C27.03 -26.97, 9.84 -9.82, 0 0 M44.21 -44.11 C30.87 -30.8, 17.53 -17.49, 0 0 M0 0 C0 0, 0 0, 0 0 M0 0 C0 0, 0 0, 0 0 M0 0 C0 0, 0 0, 0 0 M0 0 C0 0, 0 0, 0 0" stroke="#000000" stroke-width="1" fill="none"></path></g></g><mask></mask><g stroke-linecap="round"><g transform="translate(6.9329183135444765 131.69655653821837) rotate(0 97.58655854803385 -62.84827826910919)" fill-rule="evenodd"><path d="M0 0 L21.88 0 L21.88 0 L21.33 -3.59 L20.93 -7.17 L20.67 -10.74 L20.55 -14.3 L20.58 -17.85 L20.75 -21.38 L21.5 -28.36 L22.8 -35.23 L24.62 -41.94 L26.96 -48.47 L29.79 -54.8 L33.1 -60.88 L36.89 -66.7 L41.12 -72.21 L45.8 -77.4 L50.9 -82.23 L53.6 -84.5 L56.4 -86.67 L59.31 -88.73 L62.31 -90.69 L65.4 -92.54 L68.59 -94.27 L71.85 -95.87 L75.14 -97.32 L78.47 -98.64 L81.84 -99.81 L85.23 -100.84 L88.65 -101.73 L95.53 -103.1 L102.47 -103.91 L109.41 -104.17 L116.34 -103.9 L123.22 -103.08 L130.01 -101.73 L136.69 -99.85 L143.22 -97.45 L149.56 -94.54 L155.69 -91.11 L158.66 -89.21 L161.57 -87.17 L164.4 -85.02 L167.17 -82.74 L169.85 -80.33 L172.45 -77.81 L180.48 -69.78 L196.09 -85.25 L188.43 -93.06 L184.78 -96.35 L182.89 -98.24 L182.89 -98.24 L179.59 -101.02 L176.19 -103.65 L172.7 -106.15 L169.13 -108.5 L165.47 -110.72 L161.73 -112.78 L157.92 -114.71 L154.04 -116.48 L150.1 -118.1 L146.09 -119.57 L142.03 -120.89 L137.91 -122.05 L133.75 -123.06 L129.55 -123.9 L125.3 -124.58 L121.02 -125.1 L116.55 -125.48 L112.07 -125.68 L107.58 -125.7 L103.1 -125.53 L98.64 -125.18 L94.18 -124.66 L89.75 -123.95 L85.35 -123.06 L84.48 -123.06 L84.48 -123.06 L79.45 -121.75 L74.48 -120.21 L72.07 -119.41 L72.07 -119.41 L67.96 -117.81 L63.9 -116.05 L60.77 -114.59 L60.77 -114.59 L57.15 -112.71 L53.47 -110.65 L50.12 -108.68 L50.12 -108.68 L46.68 -106.34 L43.33 -103.86 L40.34 -101.67 L35.8 -97.65 L31.51 -93.35 L27.22 -88.7 L23.2 -83.94 L21.23 -81.24 L21.23 -81.24 L15.98 -73.94 L14.3 -71.02 L14.3 -71.02 L12.01 -66.95 L9.92 -62.77 L8.83 -60.44 L6.66 -55.34 L4.74 -50.14 L4.74 -49.56 L2.93 -43.53 L1.47 -37.43 L0.35 -31.26 L-0.42 -25.05 L-0.85 -18.8 L-0.92 -12.53 L-0.64 -6.26 L0 0" stroke="none" stroke-width="0" fill="#2683FB" fill-rule="evenodd"></path><path d="M0 0 C5.36 0, 10.73 0, 21.88 0 M0 0 C4.88 0, 9.75 0, 21.88 0 M21.88 0 C21.88 0, 21.88 0, 21.88 0 M21.88 0 C21.88 0, 21.88 0, 21.88 0 M21.88 0 C21.68 -1.34, 21.47 -2.68, 21.33 -3.59 M21.88 0 C21.71 -1.11, 21.54 -2.22, 21.33 -3.59 M21.33 -3.59 C21.22 -4.55, 21.11 -5.51, 20.93 -7.17 M21.33 -3.59 C21.18 -4.94, 21.02 -6.3, 20.93 -7.17 M20.93 -7.17 C20.85 -8.15, 20.78 -9.12, 20.67 -10.74 M20.93 -7.17 C20.85 -8.26, 20.77 -9.36, 20.67 -10.74 M20.67 -10.74 C20.64 -11.49, 20.62 -12.23, 20.55 -14.3 M20.67 -10.74 C20.64 -11.65, 20.61 -12.57, 20.55 -14.3 M20.55 -14.3 C20.56 -15.66, 20.57 -17.02, 20.58 -17.85 M20.55 -14.3 C20.56 -15.68, 20.57 -17.05, 20.58 -17.85 M20.58 -17.85 C20.62 -18.71, 20.66 -19.56, 20.75 -21.38 M20.58 -17.85 C20.64 -19.11, 20.7 -20.36, 20.75 -21.38 M20.75 -21.38 C21 -23.67, 21.24 -25.97, 21.5 -28.36 M20.75 -21.38 C20.98 -23.55, 21.22 -25.73, 21.5 -28.36 M21.5 -28.36 C21.93 -30.61, 22.35 -32.87, 22.8 -35.23 M21.5 -28.36 C22.01 -31.06, 22.52 -33.76, 22.8 -35.23 M22.8 -35.23 C23.21 -36.75, 23.62 -38.27, 24.62 -41.94 M22.8 -35.23 C23.39 -37.41, 23.98 -39.6, 24.62 -41.94 M24.62 -41.94 C25.47 -44.31, 26.32 -46.69, 26.96 -48.47 M24.62 -41.94 C25.36 -44.02, 26.11 -46.11, 26.96 -48.47 M26.96 -48.47 C28.04 -50.89, 29.12 -53.3, 29.79 -54.8 M26.96 -48.47 C27.7 -50.13, 28.44 -51.78, 29.79 -54.8 M29.79 -54.8 C30.73 -56.53, 31.68 -58.27, 33.1 -60.88 M29.79 -54.8 C30.52 -56.14, 31.25 -57.49, 33.1 -60.88 M33.1 -60.88 C34.57 -63.14, 36.04 -65.4, 36.89 -66.7 M33.1 -60.88 C34 -62.26, 34.9 -63.65, 36.89 -66.7 M36.89 -66.7 C38.46 -68.74, 40.03 -70.79, 41.12 -72.21 M36.89 -66.7 C37.83 -67.93, 38.78 -69.16, 41.12 -72.21 M41.12 -72.21 C42.2 -73.41, 43.28 -74.6, 45.8 -77.4 M41.12 -72.21 C42.79 -74.07, 44.46 -75.92, 45.8 -77.4 M45.8 -77.4 C47.51 -79.02, 49.22 -80.64, 50.9 -82.23 M45.8 -77.4 C47.76 -79.26, 49.72 -81.11, 50.9 -82.23 M50.9 -82.23 C51.92 -83.09, 52.95 -83.95, 53.6 -84.5 M50.9 -82.23 C51.47 -82.71, 52.04 -83.18, 53.6 -84.5 M53.6 -84.5 C54.25 -85, 54.91 -85.51, 56.4 -86.67 M53.6 -84.5 C54.16 -84.93, 54.72 -85.37, 56.4 -86.67 M56.4 -86.67 C57.27 -87.28, 58.13 -87.89, 59.31 -88.73 M56.4 -86.67 C57.49 -87.44, 58.57 -88.21, 59.31 -88.73 M59.31 -88.73 C60.38 -89.43, 61.44 -90.13, 62.31 -90.69 M59.31 -88.73 C60.21 -89.32, 61.12 -89.92, 62.31 -90.69 M62.31 -90.69 C63.34 -91.31, 64.37 -91.92, 65.4 -92.54 M62.31 -90.69 C63.26 -91.26, 64.21 -91.83, 65.4 -92.54 M65.4 -92.54 C66.48 -93.12, 67.56 -93.71, 68.59 -94.27 M65.4 -92.54 C66.54 -93.15, 67.67 -93.77, 68.59 -94.27 M68.59 -94.27 C69.33 -94.63, 70.07 -94.99, 71.85 -95.87 M68.59 -94.27 C69.43 -94.68, 70.28 -95.1, 71.85 -95.87 M71.85 -95.87 C72.67 -96.23, 73.5 -96.6, 75.14 -97.32 M71.85 -95.87 C73.05 -96.4, 74.26 -96.93, 75.14 -97.32 M75.14 -97.32 C75.84 -97.6, 76.53 -97.87, 78.47 -98.64 M75.14 -97.32 C76.35 -97.8, 77.57 -98.28, 78.47 -98.64 M78.47 -98.64 C79.5 -98.99, 80.52 -99.35, 81.84 -99.81 M78.47 -98.64 C79.72 -99.07, 80.97 -99.51, 81.84 -99.81 M81.84 -99.81 C82.84 -100.11, 83.83 -100.42, 85.23 -100.84 M81.84 -99.81 C82.99 -100.16, 84.15 -100.51, 85.23 -100.84 M85.23 -100.84 C86.42 -101.15, 87.6 -101.46, 88.65 -101.73 M85.23 -100.84 C86.41 -101.15, 87.6 -101.46, 88.65 -101.73 M88.65 -101.73 C91.34 -102.27, 94.04 -102.8, 95.53 -103.1 M88.65 -101.73 C91.36 -102.27, 94.07 -102.81, 95.53 -103.1 M95.53 -103.1 C98.1 -103.4, 100.66 -103.7, 102.47 -103.91 M95.53 -103.1 C97.63 -103.35, 99.74 -103.59, 102.47 -103.91 M102.47 -103.91 C105.21 -104.02, 107.96 -104.12, 109.41 -104.17 M102.47 -103.91 C104.66 -103.99, 106.85 -104.08, 109.41 -104.17 M109.41 -104.17 C112.18 -104.06, 114.95 -103.95, 116.34 -103.9 M109.41 -104.17 C112.1 -104.07, 114.78 -103.96, 116.34 -103.9 M116.34 -103.9 C118.34 -103.66, 120.34 -103.42, 123.22 -103.08 M116.34 -103.9 C118.98 -103.58, 121.62 -103.27, 123.22 -103.08 M123.22 -103.08 C124.6 -102.8, 125.98 -102.53, 130.01 -101.73 M123.22 -103.08 C125.81 -102.56, 128.4 -102.05, 130.01 -101.73 M130.01 -101.73 C131.69 -101.26, 133.37 -100.78, 136.69 -99.85 M130.01 -101.73 C131.75 -101.24, 133.49 -100.75, 136.69 -99.85 M136.69 -99.85 C139.21 -98.93, 141.73 -98, 143.22 -97.45 M136.69 -99.85 C138.03 -99.36, 139.36 -98.87, 143.22 -97.45 M143.22 -97.45 C145.38 -96.46, 147.54 -95.46, 149.56 -94.54 M143.22 -97.45 C145.09 -96.59, 146.97 -95.73, 149.56 -94.54 M149.56 -94.54 C151.36 -93.53, 153.15 -92.53, 155.69 -91.11 M149.56 -94.54 C150.86 -93.81, 152.16 -93.08, 155.69 -91.11 M155.69 -91.11 C156.32 -90.71, 156.94 -90.31, 158.66 -89.21 M155.69 -91.11 C156.36 -90.68, 157.02 -90.25, 158.66 -89.21 M158.66 -89.21 C159.56 -88.58, 160.46 -87.95, 161.57 -87.17 M158.66 -89.21 C159.52 -88.61, 160.37 -88.01, 161.57 -87.17 M161.57 -87.17 C162.14 -86.74, 162.72 -86.3, 164.4 -85.02 M161.57 -87.17 C162.33 -86.6, 163.09 -86.02, 164.4 -85.02 M164.4 -85.02 C165.39 -84.21, 166.38 -83.39, 167.17 -82.74 M164.4 -85.02 C165.45 -84.16, 166.49 -83.3, 167.17 -82.74 M167.17 -82.74 C167.83 -82.15, 168.48 -81.56, 169.85 -80.33 M167.17 -82.74 C167.79 -82.18, 168.42 -81.62, 169.85 -80.33 M169.85 -80.33 C170.89 -79.33, 171.93 -78.32, 172.45 -77.81 M169.85 -80.33 C170.69 -79.52, 171.54 -78.7, 172.45 -77.81 M172.45 -77.81 C175.33 -74.93, 178.21 -72.04, 180.48 -69.78 M172.45 -77.81 C174.16 -76.1, 175.86 -74.4, 180.48 -69.78 M180.48 -69.78 C185.7 -74.96, 190.93 -80.14, 196.09 -85.25 M180.48 -69.78 C184.11 -73.37, 187.73 -76.97, 196.09 -85.25 M196.09 -85.25 C193.4 -88, 190.71 -90.74, 188.43 -93.06 M196.09 -85.25 C193.91 -87.48, 191.72 -89.7, 188.43 -93.06 M188.43 -93.06 C187.31 -94.07, 186.2 -95.07, 184.78 -96.35 M188.43 -93.06 C187.2 -94.17, 185.97 -95.28, 184.78 -96.35 M184.78 -96.35 C184.18 -96.95, 183.57 -97.56, 182.89 -98.24 M184.78 -96.35 C184.37 -96.76, 183.96 -97.17, 182.89 -98.24 M182.89 -98.24 C182.89 -98.24, 182.89 -98.24, 182.89 -98.24 M182.89 -98.24 C182.89 -98.24, 182.89 -98.24, 182.89 -98.24 M182.89 -98.24 C181.73 -99.22, 180.57 -100.19, 179.59 -101.02 M182.89 -98.24 C181.71 -99.23, 180.54 -100.22, 179.59 -101.02 M179.59 -101.02 C178.53 -101.84, 177.47 -102.66, 176.19 -103.65 M179.59 -101.02 C178.39 -101.94, 177.19 -102.87, 176.19 -103.65 M176.19 -103.65 C175.42 -104.2, 174.65 -104.75, 172.7 -106.15 M176.19 -103.65 C175 -104.5, 173.81 -105.35, 172.7 -106.15 M172.7 -106.15 C171.55 -106.9, 170.41 -107.66, 169.13 -108.5 M172.7 -106.15 C171.59 -106.88, 170.47 -107.61, 169.13 -108.5 M169.13 -108.5 C168.05 -109.15, 166.98 -109.8, 165.47 -110.72 M169.13 -108.5 C167.68 -109.38, 166.24 -110.25, 165.47 -110.72 M165.47 -110.72 C164.28 -111.37, 163.1 -112.03, 161.73 -112.78 M165.47 -110.72 C164.11 -111.47, 162.75 -112.22, 161.73 -112.78 M161.73 -112.78 C160.89 -113.21, 160.05 -113.63, 157.92 -114.71 M161.73 -112.78 C160.87 -113.22, 160.01 -113.65, 157.92 -114.71 M157.92 -114.71 C156.62 -115.3, 155.32 -115.9, 154.04 -116.48 M157.92 -114.71 C156.67 -115.28, 155.42 -115.85, 154.04 -116.48 M154.04 -116.48 C153.07 -116.88, 152.09 -117.28, 150.1 -118.1 M154.04 -116.48 C152.75 -117.01, 151.46 -117.54, 150.1 -118.1 M150.1 -118.1 C149.09 -118.47, 148.08 -118.84, 146.09 -119.57 M150.1 -118.1 C148.74 -118.6, 147.38 -119.1, 146.09 -119.57 M146.09 -119.57 C144.86 -119.97, 143.62 -120.38, 142.03 -120.89 M146.09 -119.57 C144.95 -119.94, 143.81 -120.32, 142.03 -120.89 M142.03 -120.89 C140.89 -121.21, 139.74 -121.54, 137.91 -122.05 M142.03 -120.89 C140.39 -121.35, 138.75 -121.82, 137.91 -122.05 M137.91 -122.05 C136.62 -122.37, 135.32 -122.68, 133.75 -123.06 M137.91 -122.05 C136.86 -122.31, 135.81 -122.56, 133.75 -123.06 M133.75 -123.06 C132.63 -123.28, 131.5 -123.51, 129.55 -123.9 M133.75 -123.06 C132.82 -123.25, 131.88 -123.43, 129.55 -123.9 M129.55 -123.9 C128.36 -124.09, 127.17 -124.28, 125.3 -124.58 M129.55 -123.9 C128.29 -124.1, 127.04 -124.31, 125.3 -124.58 M125.3 -124.58 C124.39 -124.7, 123.48 -124.81, 121.02 -125.1 M125.3 -124.58 C123.72 -124.78, 122.14 -124.97, 121.02 -125.1 M121.02 -125.1 C120.09 -125.18, 119.15 -125.26, 116.55 -125.48 M121.02 -125.1 C119.92 -125.2, 118.82 -125.29, 116.55 -125.48 M116.55 -125.48 C115 -125.55, 113.46 -125.62, 112.07 -125.68 M116.55 -125.48 C115.06 -125.55, 113.57 -125.61, 112.07 -125.68 M112.07 -125.68 C110.34 -125.69, 108.62 -125.69, 107.58 -125.7 M112.07 -125.68 C111.03 -125.68, 110 -125.69, 107.58 -125.7 M107.58 -125.7 C106.54 -125.66, 105.5 -125.62, 103.1 -125.53 M107.58 -125.7 C106.5 -125.66, 105.42 -125.62, 103.1 -125.53 M103.1 -125.53 C101.83 -125.43, 100.56 -125.33, 98.64 -125.18 M103.1 -125.53 C101.51 -125.41, 99.91 -125.28, 98.64 -125.18 M98.64 -125.18 C97.37 -125.03, 96.09 -124.88, 94.18 -124.66 M98.64 -125.18 C97.02 -124.99, 95.41 -124.8, 94.18 -124.66 M94.18 -124.66 C92.96 -124.46, 91.74 -124.27, 89.75 -123.95 M94.18 -124.66 C93.19 -124.5, 92.2 -124.34, 89.75 -123.95 M89.75 -123.95 C88.65 -123.72, 87.54 -123.5, 85.35 -123.06 M89.75 -123.95 C88.01 -123.6, 86.27 -123.24, 85.35 -123.06 M85.35 -123.06 C85.08 -123.06, 84.8 -123.06, 84.48 -123.06 M85.35 -123.06 C85.17 -123.06, 84.98 -123.06, 84.48 -123.06 M84.48 -123.06 C84.48 -123.06, 84.48 -123.06, 84.48 -123.06 M84.48 -123.06 C84.48 -123.06, 84.48 -123.06, 84.48 -123.06 M84.48 -123.06 C83.27 -122.75, 82.07 -122.43, 79.45 -121.75 M84.48 -123.06 C82.53 -122.55, 80.58 -122.05, 79.45 -121.75 M79.45 -121.75 C78.4 -121.43, 77.35 -121.1, 74.48 -120.21 M79.45 -121.75 C77.52 -121.15, 75.58 -120.56, 74.48 -120.21 M74.48 -120.21 C73.79 -119.98, 73.09 -119.75, 72.07 -119.41 M74.48 -120.21 C73.98 -120.05, 73.48 -119.88, 72.07 -119.41 M72.07 -119.41 C72.07 -119.41, 72.07 -119.41, 72.07 -119.41 M72.07 -119.41 C72.07 -119.41, 72.07 -119.41, 72.07 -119.41 M72.07 -119.41 C70.49 -118.8, 68.92 -118.18, 67.96 -117.81 M72.07 -119.41 C71.21 -119.08, 70.35 -118.74, 67.96 -117.81 M67.96 -117.81 C66.83 -117.32, 65.71 -116.84, 63.9 -116.05 M67.96 -117.81 C66.54 -117.2, 65.11 -116.58, 63.9 -116.05 M63.9 -116.05 C63.16 -115.71, 62.42 -115.37, 60.77 -114.59 M63.9 -116.05 C62.9 -115.59, 61.89 -115.12, 60.77 -114.59 M60.77 -114.59 C60.77 -114.59, 60.77 -114.59, 60.77 -114.59 M60.77 -114.59 C60.77 -114.59, 60.77 -114.59, 60.77 -114.59 M60.77 -114.59 C59.88 -114.13, 59 -113.67, 57.15 -112.71 M60.77 -114.59 C59.5 -113.93, 58.22 -113.27, 57.15 -112.71 M57.15 -112.71 C56.26 -112.21, 55.37 -111.71, 53.47 -110.65 M57.15 -112.71 C55.72 -111.91, 54.28 -111.11, 53.47 -110.65 M53.47 -110.65 C52.8 -110.26, 52.13 -109.86, 50.12 -108.68 M53.47 -110.65 C52.46 -110.06, 51.46 -109.47, 50.12 -108.68 M50.12 -108.68 C50.12 -108.68, 50.12 -108.68, 50.12 -108.68 M50.12 -108.68 C50.12 -108.68, 50.12 -108.68, 50.12 -108.68 M50.12 -108.68 C48.81 -107.79, 47.5 -106.9, 46.68 -106.34 M50.12 -108.68 C49.25 -108.09, 48.39 -107.51, 46.68 -106.34 M46.68 -106.34 C45.61 -105.55, 44.55 -104.76, 43.33 -103.86 M46.68 -106.34 C45.39 -105.39, 44.11 -104.44, 43.33 -103.86 M43.33 -103.86 C42.57 -103.31, 41.81 -102.75, 40.34 -101.67 M43.33 -103.86 C42.52 -103.27, 41.71 -102.67, 40.34 -101.67 M40.34 -101.67 C39.38 -100.82, 38.41 -99.97, 35.8 -97.65 M40.34 -101.67 C39.27 -100.73, 38.21 -99.78, 35.8 -97.65 M35.8 -97.65 C34.18 -96.03, 32.57 -94.41, 31.51 -93.35 M35.8 -97.65 C34.43 -96.28, 33.06 -94.9, 31.51 -93.35 M31.51 -93.35 C30.02 -91.73, 28.52 -90.11, 27.22 -88.7 M31.51 -93.35 C29.83 -91.53, 28.15 -89.71, 27.22 -88.7 M27.22 -88.7 C26.03 -87.29, 24.85 -85.89, 23.2 -83.94 M27.22 -88.7 C25.87 -87.11, 24.53 -85.51, 23.2 -83.94 M23.2 -83.94 C22.79 -83.38, 22.39 -82.83, 21.23 -81.24 M23.2 -83.94 C22.51 -82.99, 21.82 -82.05, 21.23 -81.24 M21.23 -81.24 C21.23 -81.24, 21.23 -81.24, 21.23 -81.24 M21.23 -81.24 C21.23 -81.24, 21.23 -81.24, 21.23 -81.24 M21.23 -81.24 C19.13 -78.33, 17.04 -75.41, 15.98 -73.94 M21.23 -81.24 C19.95 -79.47, 18.68 -77.7, 15.98 -73.94 M15.98 -73.94 C15.57 -73.22, 15.15 -72.51, 14.3 -71.02 M15.98 -73.94 C15.36 -72.87, 14.75 -71.81, 14.3 -71.02 M14.3 -71.02 C14.3 -71.02, 14.3 -71.02, 14.3 -71.02 M14.3 -71.02 C14.3 -71.02, 14.3 -71.02, 14.3 -71.02 M14.3 -71.02 C13.81 -70.15, 13.32 -69.28, 12.01 -66.95 M14.3 -71.02 C13.63 -69.83, 12.97 -68.65, 12.01 -66.95 M12.01 -66.95 C11.26 -65.44, 10.51 -63.94, 9.92 -62.77 M12.01 -66.95 C11.3 -65.51, 10.58 -64.08, 9.92 -62.77 M9.92 -62.77 C9.65 -62.19, 9.37 -61.6, 8.83 -60.44 M9.92 -62.77 C9.69 -62.28, 9.46 -61.79, 8.83 -60.44 M8.83 -60.44 C8.05 -58.62, 7.28 -56.81, 6.66 -55.34 M8.83 -60.44 C8.18 -58.93, 7.54 -57.42, 6.66 -55.34 M6.66 -55.34 C5.99 -53.54, 5.33 -51.73, 4.74 -50.14 M6.66 -55.34 C6.1 -53.82, 5.54 -52.3, 4.74 -50.14 M4.74 -50.14 C4.74 -49.94, 4.74 -49.74, 4.74 -49.56 M4.74 -50.14 C4.74 -49.98, 4.74 -49.82, 4.74 -49.56 M4.74 -49.56 C4.23 -47.85, 3.71 -46.14, 2.93 -43.53 M4.74 -49.56 C4.2 -47.77, 3.67 -45.99, 2.93 -43.53 M2.93 -43.53 C2.42 -41.43, 1.92 -39.32, 1.47 -37.43 M2.93 -43.53 C2.5 -41.76, 2.08 -39.98, 1.47 -37.43 M1.47 -37.43 C1.1 -35.4, 0.73 -33.36, 0.35 -31.26 M1.47 -37.43 C1.17 -35.8, 0.87 -34.18, 0.35 -31.26 M0.35 -31.26 C0.11 -29.39, -0.12 -27.51, -0.42 -25.05 M0.35 -31.26 C0.04 -28.82, -0.26 -26.38, -0.42 -25.05 M-0.42 -25.05 C-0.57 -22.91, -0.71 -20.76, -0.85 -18.8 M-0.42 -25.05 C-0.52 -23.65, -0.61 -22.25, -0.85 -18.8 M-0.85 -18.8 C-0.86 -17.5, -0.88 -16.21, -0.92 -12.53 M-0.85 -18.8 C-0.87 -16.51, -0.9 -14.21, -0.92 -12.53 M-0.92 -12.53 C-0.84 -10.84, -0.76 -9.14, -0.64 -6.26 M-0.92 -12.53 C-0.83 -10.71, -0.75 -8.88, -0.64 -6.26 M-0.64 -6.26 C-0.39 -3.82, -0.14 -1.39, 0 0 M-0.64 -6.26 C-0.49 -4.82, -0.34 -3.39, 0 0 M0 0 C0 0, 0 0, 0 0 M0 0 C0 0, 0 0, 0 0" stroke="#000000" stroke-width="1" fill="none"></path></g></g><mask></mask><g stroke-linecap="round"><g transform="translate(173.0673624960064 60.28309399461159) rotate(0 18.54851890677965 -9.824833667018709)" fill-rule="evenodd"><path d="M0 0 L28.18 -28.21 L28.18 -28.21 L28.66 -28.52 L29.21 -28.55 L29.69 -28.3 L30.01 -27.82 L30.05 -27.63 L37.28 7.59 L37.28 7.59 L37.26 8.15 L36.99 8.61 L36.54 8.88 L35.98 8.9 L0.65 1.66 L0.65 1.66 L0.18 1.42 L-0.11 1 L-0.18 0.5 L0 0 L0 0" stroke="none" stroke-width="0" fill="#2683FB" fill-rule="evenodd"></path><path d="M0 0 C6.88 -6.89, 13.76 -13.78, 28.18 -28.21 M0 0 C9.03 -9.04, 18.07 -18.09, 28.18 -28.21 M28.18 -28.21 C28.18 -28.21, 28.18 -28.21, 28.18 -28.21 M28.18 -28.21 C28.18 -28.21, 28.18 -28.21, 28.18 -28.21 M28.18 -28.21 C28.29 -28.28, 28.41 -28.36, 28.66 -28.52 M28.18 -28.21 C28.36 -28.33, 28.55 -28.45, 28.66 -28.52 M28.66 -28.52 C28.82 -28.53, 28.97 -28.54, 29.21 -28.55 M28.66 -28.52 C28.77 -28.53, 28.89 -28.53, 29.21 -28.55 M29.21 -28.55 C29.31 -28.49, 29.42 -28.44, 29.69 -28.3 M29.21 -28.55 C29.34 -28.48, 29.48 -28.41, 29.69 -28.3 M29.69 -28.3 C29.78 -28.17, 29.87 -28.04, 30.01 -27.82 M29.69 -28.3 C29.78 -28.18, 29.86 -28.06, 30.01 -27.82 M30.01 -27.82 C30.03 -27.75, 30.04 -27.68, 30.05 -27.63 M30.01 -27.82 C30.03 -27.75, 30.04 -27.68, 30.05 -27.63 M30.05 -27.63 C32.9 -13.76, 35.74 0.1, 37.28 7.59 M30.05 -27.63 C31.79 -19.16, 33.53 -10.69, 37.28 7.59 M37.28 7.59 C37.28 7.59, 37.28 7.59, 37.28 7.59 M37.28 7.59 C37.28 7.59, 37.28 7.59, 37.28 7.59 M37.28 7.59 C37.27 7.79, 37.27 7.98, 37.26 8.15 M37.28 7.59 C37.27 7.77, 37.27 7.94, 37.26 8.15 M37.26 8.15 C37.17 8.3, 37.09 8.44, 36.99 8.61 M37.26 8.15 C37.2 8.25, 37.14 8.35, 36.99 8.61 M36.99 8.61 C36.83 8.7, 36.68 8.79, 36.54 8.88 M36.99 8.61 C36.82 8.7, 36.66 8.8, 36.54 8.88 M36.54 8.88 C36.39 8.88, 36.24 8.89, 35.98 8.9 M36.54 8.88 C36.41 8.88, 36.29 8.89, 35.98 8.9 M35.98 8.9 C23.37 6.31, 10.75 3.73, 0.65 1.66 M35.98 8.9 C24.11 6.47, 12.25 4.04, 0.65 1.66 M0.65 1.66 C0.65 1.66, 0.65 1.66, 0.65 1.66 M0.65 1.66 C0.65 1.66, 0.65 1.66, 0.65 1.66 M0.65 1.66 C0.52 1.6, 0.4 1.53, 0.18 1.42 M0.65 1.66 C0.51 1.59, 0.37 1.52, 0.18 1.42 M0.18 1.42 C0.08 1.28, -0.01 1.15, -0.11 1 M0.18 1.42 C0.08 1.28, -0.01 1.15, -0.11 1 M-0.11 1 C-0.13 0.84, -0.16 0.68, -0.18 0.5 M-0.11 1 C-0.14 0.82, -0.16 0.64, -0.18 0.5 M-0.18 0.5 C-0.12 0.34, -0.06 0.17, 0 0 M-0.18 0.5 C-0.13 0.37, -0.08 0.23, 0 0 M0 0 C0 0, 0 0, 0 0 M0 0 C0 0, 0 0, 0 0 M0 0 C0 0, 0 0, 0 0 M0 0 C0 0, 0 0, 0 0" stroke="#000000" stroke-width="1" fill="none"></path></g></g><mask></mask><g stroke-linecap="round"><g transform="translate(59.59171132531249 61.685039247244504) rotate(0 -9.84356130561978 -18.563150003668397)" fill-rule="evenodd"><path d="M0 0 L-28.24 -28.19 L-28.24 -28.19 L-28.55 -28.68 L-28.57 -29.22 L-28.33 -29.71 L-27.84 -30.03 L-27.66 -30.07 L7.58 -37.3 L7.58 -37.3 L8.12 -37.28 L8.56 -37.03 L8.84 -36.6 L8.88 -36.07 L1.66 -0.8 L1.66 -0.8 L1.46 -0.27 L1.05 0.06 L0.53 0.17 L0 0 L0 0" stroke="none" stroke-width="0" fill="#559CFC" fill-rule="evenodd"></path><path d="M0 0 C-10.92 -10.9, -21.83 -21.79, -28.24 -28.19 M0 0 C-8.12 -8.11, -16.25 -16.22, -28.24 -28.19 M-28.24 -28.19 C-28.24 -28.19, -28.24 -28.19, -28.24 -28.19 M-28.24 -28.19 C-28.24 -28.19, -28.24 -28.19, -28.24 -28.19 M-28.24 -28.19 C-28.32 -28.31, -28.4 -28.44, -28.55 -28.68 M-28.24 -28.19 C-28.35 -28.37, -28.47 -28.55, -28.55 -28.68 M-28.55 -28.68 C-28.55 -28.81, -28.56 -28.94, -28.57 -29.22 M-28.55 -28.68 C-28.56 -28.86, -28.56 -29.05, -28.57 -29.22 M-28.57 -29.22 C-28.51 -29.35, -28.44 -29.48, -28.33 -29.71 M-28.57 -29.22 C-28.48 -29.4, -28.4 -29.57, -28.33 -29.71 M-28.33 -29.71 C-28.17 -29.82, -28 -29.92, -27.84 -30.03 M-28.33 -29.71 C-28.2 -29.79, -28.07 -29.88, -27.84 -30.03 M-27.84 -30.03 C-27.77 -30.04, -27.7 -30.06, -27.66 -30.07 M-27.84 -30.03 C-27.78 -30.04, -27.73 -30.05, -27.66 -30.07 M-27.66 -30.07 C-20.01 -31.64, -12.36 -33.21, 7.58 -37.3 M-27.66 -30.07 C-20.5 -31.54, -13.35 -33, 7.58 -37.3 M7.58 -37.3 C7.58 -37.3, 7.58 -37.3, 7.58 -37.3 M7.58 -37.3 C7.58 -37.3, 7.58 -37.3, 7.58 -37.3 M7.58 -37.3 C7.75 -37.29, 7.93 -37.29, 8.12 -37.28 M7.58 -37.3 C7.7 -37.29, 7.81 -37.29, 8.12 -37.28 M8.12 -37.28 C8.24 -37.21, 8.35 -37.14, 8.56 -37.03 M8.12 -37.28 C8.21 -37.23, 8.3 -37.17, 8.56 -37.03 M8.56 -37.03 C8.66 -36.88, 8.75 -36.73, 8.84 -36.6 M8.56 -37.03 C8.63 -36.92, 8.7 -36.81, 8.84 -36.6 M8.84 -36.6 C8.85 -36.46, 8.86 -36.31, 8.88 -36.07 M8.84 -36.6 C8.85 -36.48, 8.86 -36.37, 8.88 -36.07 M8.88 -36.07 C7.38 -28.72, 5.87 -21.37, 1.66 -0.8 M8.88 -36.07 C6.96 -26.69, 5.04 -17.32, 1.66 -0.8 M1.66 -0.8 C1.66 -0.8, 1.66 -0.8, 1.66 -0.8 M1.66 -0.8 C1.66 -0.8, 1.66 -0.8, 1.66 -0.8 M1.66 -0.8 C1.6 -0.65, 1.55 -0.5, 1.46 -0.27 M1.66 -0.8 C1.61 -0.66, 1.55 -0.52, 1.46 -0.27 M1.46 -0.27 C1.31 -0.15, 1.17 -0.03, 1.05 0.06 M1.46 -0.27 C1.36 -0.19, 1.26 -0.11, 1.05 0.06 M1.05 0.06 C0.87 0.1, 0.69 0.14, 0.53 0.17 M1.05 0.06 C0.91 0.09, 0.78 0.12, 0.53 0.17 M0.53 0.17 C0.42 0.13, 0.3 0.1, 0 0 M0.53 0.17 C0.4 0.13, 0.26 0.08, 0 0 M0 0 C0 0, 0 0, 0 0 M0 0 C0 0, 0 0, 0 0 M0 0 C0 0, 0 0, 0 0 M0 0 C0 0, 0 0, 0 0" stroke="#000000" stroke-width="1" fill="none"></path></g></g><mask></mask><g stroke-linecap="round"><g transform="translate(47.32114879570129 203.80695223515113) rotate(0 21.535049171195702 -70.27531538891981)" fill-rule="evenodd"><path d="M0 0 L4.66 3.36 L4.66 3.36 L7.09 5.14 L9.62 6.79 L12.62 8.67 L15.67 10.44 L19.31 12.34 L19.31 12.34 L23.01 14.17 L26.6 15.84 L28.57 16.57 L28.57 16.57 L35.29 18.95 L42.12 20.89 L49.05 22.38 L56.06 23.43 L63.12 24.04 L70.21 24.19 L77.3 23.89 L84.39 23.14 L84.39 0.95 L84.39 0.95 L80.81 1.51 L77.24 1.91 L73.67 2.18 L70.12 2.3 L63.06 2.11 L56.08 1.37 L49.23 0.09 L42.52 -1.71 L35.99 -4.02 L29.67 -6.83 L23.58 -10.12 L17.76 -13.88 L12.24 -18.09 L7.03 -22.74 L2.18 -27.81 L-0.1 -30.5 L-2.28 -33.3 L-4.36 -36.19 L-6.34 -39.17 L-8.2 -42.25 L-9.95 -45.43 L-11.57 -48.67 L-13.05 -51.96 L-14.38 -55.28 L-15.58 -58.63 L-17.56 -65.43 L-18.98 -72.3 L-19.86 -79.23 L-20.18 -86.18 L-19.98 -93.11 L-19.23 -100 L-17.96 -106.81 L-16.16 -113.51 L-13.84 -120.06 L-11 -126.44 L-7.66 -132.62 L-3.81 -138.55 L-1.69 -141.41 L0.54 -144.21 L2.91 -146.92 L5.39 -149.56 L0.97 -154.04 L-1.1 -156.13 L-3.06 -158.11 L-4.9 -159.97 L-6.6 -161.7 L-8.15 -163.29 L-9.55 -164.74 L-12.97 -161.13 L-16.22 -157.39 L-19.28 -153.52 L-22.16 -149.52 L-24.86 -145.4 L-27.36 -141.18 L-29.68 -136.85 L-31.79 -132.43 L-33.71 -127.92 L-35.43 -123.32 L-36.94 -118.65 L-38.24 -113.91 L-39.34 -109.1 L-40.22 -104.24 L-40.88 -99.33 L-41.32 -94.38 L-41.32 -82.04 L-41.32 -82.04 L-41.32 -81.41 L-41.31 -80.64 L-41.27 -78.8 L-41.14 -76.76 L-40.88 -74.74 L-40.74 -73.88 L-40.63 -73.2 L-40.47 -72.19 L-40.36 -71.4 L-40.23 -70.51 L-40.13 -69.9 L-40.01 -69.12 L-39.72 -67.24 L-39.37 -65.17 L-38.99 -63.21 L-38.88 -62.22 L-38.62 -61.23 L-38.04 -59.2 L-37.9 -58.58 L-37.7 -57.81 L-37.18 -55.93 L-36.56 -53.86 L-35.93 -51.9 L-34.62 -48.17 L-34.62 -48.17 L-33.16 -44.49 L-31.56 -40.87 L-29.95 -37.52 L-27.99 -33.79 L-25.87 -30.22 L-24.19 -27.3 L-24.19 -27.3 L-21.53 -23.4 L-18.66 -19.56 L-17.2 -17.52 L-17.2 -17.52 L-13.2 -12.78 L-8.96 -8.25 L-8.02 -7.44 L-8.02 -7.44 L-3.99 -3.71 L0.15 -0.15" stroke="none" stroke-width="0" fill="#559CFC" fill-rule="evenodd"></path><path d="M0 0 C1.42 1.02, 2.84 2.04, 4.66 3.36 M0 0 C1.68 1.21, 3.37 2.43, 4.66 3.36 M4.66 3.36 C4.66 3.36, 4.66 3.36, 4.66 3.36 M4.66 3.36 C4.66 3.36, 4.66 3.36, 4.66 3.36 M4.66 3.36 C5.29 3.82, 5.91 4.27, 7.09 5.14 M4.66 3.36 C5.49 3.96, 6.31 4.57, 7.09 5.14 M7.09 5.14 C7.87 5.65, 8.64 6.15, 9.62 6.79 M7.09 5.14 C7.98 5.72, 8.87 6.3, 9.62 6.79 M9.62 6.79 C10.72 7.48, 11.82 8.17, 12.62 8.67 M9.62 6.79 C10.26 7.19, 10.91 7.59, 12.62 8.67 M12.62 8.67 C13.81 9.36, 15.01 10.06, 15.67 10.44 M12.62 8.67 C13.83 9.37, 15.03 10.07, 15.67 10.44 M15.67 10.44 C17.05 11.16, 18.44 11.88, 19.31 12.34 M15.67 10.44 C16.98 11.12, 18.29 11.8, 19.31 12.34 M19.31 12.34 C19.31 12.34, 19.31 12.34, 19.31 12.34 M19.31 12.34 C19.31 12.34, 19.31 12.34, 19.31 12.34 M19.31 12.34 C20.54 12.95, 21.77 13.56, 23.01 14.17 M19.31 12.34 C20.36 12.86, 21.41 13.38, 23.01 14.17 M23.01 14.17 C24.01 14.63, 25 15.1, 26.6 15.84 M23.01 14.17 C23.84 14.56, 24.67 14.94, 26.6 15.84 M26.6 15.84 C27.08 16.02, 27.55 16.19, 28.57 16.57 M26.6 15.84 C27.27 16.09, 27.93 16.33, 28.57 16.57 M28.57 16.57 C28.57 16.57, 28.57 16.57, 28.57 16.57 M28.57 16.57 C28.57 16.57, 28.57 16.57, 28.57 16.57 M28.57 16.57 C30.02 17.08, 31.46 17.59, 35.29 18.95 M28.57 16.57 C29.98 17.07, 31.4 17.57, 35.29 18.95 M35.29 18.95 C36.81 19.38, 38.34 19.81, 42.12 20.89 M35.29 18.95 C37.04 19.44, 38.79 19.94, 42.12 20.89 M42.12 20.89 C44.5 21.4, 46.88 21.91, 49.05 22.38 M42.12 20.89 C43.71 21.23, 45.29 21.57, 49.05 22.38 M49.05 22.38 C51.28 22.71, 53.51 23.05, 56.06 23.43 M49.05 22.38 C50.79 22.64, 52.52 22.9, 56.06 23.43 M56.06 23.43 C57.49 23.55, 58.91 23.68, 63.12 24.04 M56.06 23.43 C57.89 23.59, 59.73 23.75, 63.12 24.04 M63.12 24.04 C64.95 24.08, 66.79 24.12, 70.21 24.19 M63.12 24.04 C65.91 24.1, 68.69 24.16, 70.21 24.19 M70.21 24.19 C72.74 24.08, 75.27 23.98, 77.3 23.89 M70.21 24.19 C71.69 24.13, 73.18 24.06, 77.3 23.89 M77.3 23.89 C79.18 23.69, 81.07 23.49, 84.39 23.14 M77.3 23.89 C79.12 23.7, 80.94 23.5, 84.39 23.14 M84.39 23.14 C84.39 17.48, 84.39 11.82, 84.39 0.95 M84.39 23.14 C84.39 15.97, 84.39 8.81, 84.39 0.95 M84.39 0.95 C84.39 0.95, 84.39 0.95, 84.39 0.95 M84.39 0.95 C84.39 0.95, 84.39 0.95, 84.39 0.95 M84.39 0.95 C83.2 1.13, 82.01 1.32, 80.81 1.51 M84.39 0.95 C83.38 1.11, 82.36 1.27, 80.81 1.51 M80.81 1.51 C80 1.6, 79.18 1.69, 77.24 1.91 M80.81 1.51 C79.98 1.6, 79.15 1.7, 77.24 1.91 M77.24 1.91 C76.13 2, 75.02 2.08, 73.67 2.18 M77.24 1.91 C76.11 2, 74.99 2.08, 73.67 2.18 M73.67 2.18 C72.96 2.2, 72.24 2.23, 70.12 2.3 M73.67 2.18 C72.9 2.2, 72.13 2.23, 70.12 2.3 M70.12 2.3 C68.02 2.24, 65.92 2.19, 63.06 2.11 M70.12 2.3 C68.14 2.25, 66.16 2.19, 63.06 2.11 M63.06 2.11 C61.14 1.91, 59.22 1.71, 56.08 1.37 M63.06 2.11 C61.24 1.92, 59.42 1.73, 56.08 1.37 M56.08 1.37 C54.14 1.01, 52.19 0.65, 49.23 0.09 M56.08 1.37 C53.49 0.89, 50.9 0.4, 49.23 0.09 M49.23 0.09 C47.58 -0.35, 45.93 -0.79, 42.52 -1.71 M49.23 0.09 C47.4 -0.4, 45.58 -0.89, 42.52 -1.71 M42.52 -1.71 C40.89 -2.29, 39.26 -2.86, 35.99 -4.02 M42.52 -1.71 C40.88 -2.29, 39.24 -2.87, 35.99 -4.02 M35.99 -4.02 C34.42 -4.72, 32.84 -5.42, 29.67 -6.83 M35.99 -4.02 C34.42 -4.72, 32.84 -5.42, 29.67 -6.83 M29.67 -6.83 C28.09 -7.69, 26.51 -8.54, 23.58 -10.12 M29.67 -6.83 C27.98 -7.75, 26.29 -8.66, 23.58 -10.12 M23.58 -10.12 C22.1 -11.08, 20.62 -12.04, 17.76 -13.88 M23.58 -10.12 C21.38 -11.54, 19.18 -12.96, 17.76 -13.88 M17.76 -13.88 C15.75 -15.41, 13.74 -16.95, 12.24 -18.09 M17.76 -13.88 C16.24 -15.04, 14.71 -16.2, 12.24 -18.09 M12.24 -18.09 C10.32 -19.81, 8.4 -21.52, 7.03 -22.74 M12.24 -18.09 C10.5 -19.64, 8.76 -21.19, 7.03 -22.74 M7.03 -22.74 C5.58 -24.26, 4.12 -25.79, 2.18 -27.81 M7.03 -22.74 C6.05 -23.77, 5.06 -24.81, 2.18 -27.81 M2.18 -27.81 C1.42 -28.71, 0.66 -29.61, -0.1 -30.5 M2.18 -27.81 C1.31 -28.84, 0.44 -29.86, -0.1 -30.5 M-0.1 -30.5 C-0.95 -31.6, -1.81 -32.69, -2.28 -33.3 M-0.1 -30.5 C-0.66 -31.22, -1.22 -31.94, -2.28 -33.3 M-2.28 -33.3 C-2.76 -33.96, -3.23 -34.62, -4.36 -36.19 M-2.28 -33.3 C-2.85 -34.09, -3.42 -34.88, -4.36 -36.19 M-4.36 -36.19 C-4.84 -36.91, -5.33 -37.64, -6.34 -39.17 M-4.36 -36.19 C-5.1 -37.3, -5.83 -38.41, -6.34 -39.17 M-6.34 -39.17 C-7.02 -40.3, -7.7 -41.43, -8.2 -42.25 M-6.34 -39.17 C-7 -40.26, -7.65 -41.35, -8.2 -42.25 M-8.2 -42.25 C-8.64 -43.06, -9.09 -43.87, -9.95 -45.43 M-8.2 -42.25 C-8.77 -43.28, -9.33 -44.31, -9.95 -45.43 M-9.95 -45.43 C-10.59 -46.71, -11.23 -48, -11.57 -48.67 M-9.95 -45.43 C-10.36 -46.25, -10.77 -47.07, -11.57 -48.67 M-11.57 -48.67 C-12.02 -49.67, -12.46 -50.66, -13.05 -51.96 M-11.57 -48.67 C-11.9 -49.41, -12.23 -50.15, -13.05 -51.96 M-13.05 -51.96 C-13.32 -52.64, -13.6 -53.32, -14.38 -55.28 M-13.05 -51.96 C-13.57 -53.26, -14.1 -54.56, -14.38 -55.28 M-14.38 -55.28 C-14.69 -56.13, -15 -56.99, -15.58 -58.63 M-14.38 -55.28 C-14.66 -56.04, -14.93 -56.81, -15.58 -58.63 M-15.58 -58.63 C-16.01 -60.1, -16.43 -61.56, -17.56 -65.43 M-15.58 -58.63 C-16.14 -60.55, -16.69 -62.46, -17.56 -65.43 M-17.56 -65.43 C-17.93 -67.24, -18.31 -69.05, -18.98 -72.3 M-17.56 -65.43 C-17.88 -66.98, -18.2 -68.54, -18.98 -72.3 M-18.98 -72.3 C-19.23 -74.27, -19.48 -76.24, -19.86 -79.23 M-18.98 -72.3 C-19.17 -73.82, -19.37 -75.35, -19.86 -79.23 M-19.86 -79.23 C-19.94 -81.09, -20.03 -82.94, -20.18 -86.18 M-19.86 -79.23 C-19.97 -81.66, -20.09 -84.09, -20.18 -86.18 M-20.18 -86.18 C-20.14 -87.6, -20.1 -89.02, -19.98 -93.11 M-20.18 -86.18 C-20.1 -88.91, -20.02 -91.65, -19.98 -93.11 M-19.98 -93.11 C-19.76 -95.1, -19.54 -97.1, -19.23 -100 M-19.98 -93.11 C-19.78 -94.96, -19.58 -96.81, -19.23 -100 M-19.23 -100 C-18.97 -101.41, -18.7 -102.83, -17.96 -106.81 M-19.23 -100 C-18.74 -102.61, -18.26 -105.21, -17.96 -106.81 M-17.96 -106.81 C-17.34 -109.09, -16.73 -111.37, -16.16 -113.51 M-17.96 -106.81 C-17.43 -108.76, -16.91 -110.72, -16.16 -113.51 M-16.16 -113.51 C-15.56 -115.2, -14.96 -116.89, -13.84 -120.06 M-16.16 -113.51 C-15.58 -115.15, -15 -116.79, -13.84 -120.06 M-13.84 -120.06 C-12.94 -122.09, -12.04 -124.11, -11 -126.44 M-13.84 -120.06 C-13.08 -121.77, -12.33 -123.47, -11 -126.44 M-11 -126.44 C-9.81 -128.65, -8.61 -130.86, -7.66 -132.62 M-11 -126.44 C-10.16 -128.01, -9.31 -129.57, -7.66 -132.62 M-7.66 -132.62 C-6.5 -134.4, -5.35 -136.18, -3.81 -138.55 M-7.66 -132.62 C-6.57 -134.29, -5.49 -135.96, -3.81 -138.55 M-3.81 -138.55 C-3.29 -139.25, -2.78 -139.94, -1.69 -141.41 M-3.81 -138.55 C-3.1 -139.51, -2.39 -140.47, -1.69 -141.41 M-1.69 -141.41 C-1.11 -142.14, -0.53 -142.86, 0.54 -144.21 M-1.69 -141.41 C-0.88 -142.42, -0.07 -143.43, 0.54 -144.21 M0.54 -144.21 C1.23 -144.99, 1.91 -145.78, 2.91 -146.92 M0.54 -144.21 C1.08 -144.83, 1.63 -145.45, 2.91 -146.92 M2.91 -146.92 C3.77 -147.84, 4.63 -148.75, 5.39 -149.56 M2.91 -146.92 C3.83 -147.91, 4.76 -148.89, 5.39 -149.56 M5.39 -149.56 C4.49 -150.48, 3.58 -151.39, 0.97 -154.04 M5.39 -149.56 C3.81 -151.16, 2.23 -152.76, 0.97 -154.04 M0.97 -154.04 C0.55 -154.46, 0.13 -154.88, -1.1 -156.13 M0.97 -154.04 C0.31 -154.7, -0.36 -155.37, -1.1 -156.13 M-1.1 -156.13 C-1.76 -156.79, -2.41 -157.45, -3.06 -158.11 M-1.1 -156.13 C-1.75 -156.78, -2.4 -157.44, -3.06 -158.11 M-3.06 -158.11 C-3.53 -158.58, -3.99 -159.05, -4.9 -159.97 M-3.06 -158.11 C-3.51 -158.56, -3.96 -159.02, -4.9 -159.97 M-4.9 -159.97 C-5.51 -160.59, -6.12 -161.22, -6.6 -161.7 M-4.9 -159.97 C-5.32 -160.4, -5.75 -160.84, -6.6 -161.7 M-6.6 -161.7 C-6.92 -162.04, -7.25 -162.37, -8.15 -163.29 M-6.6 -161.7 C-7.11 -162.23, -7.63 -162.76, -8.15 -163.29 M-8.15 -163.29 C-8.71 -163.87, -9.27 -164.45, -9.55 -164.74 M-8.15 -163.29 C-8.44 -163.59, -8.73 -163.89, -9.55 -164.74 M-9.55 -164.74 C-10.82 -163.4, -12.08 -162.07, -12.97 -161.13 M-9.55 -164.74 C-10.92 -163.3, -12.28 -161.86, -12.97 -161.13 M-12.97 -161.13 C-13.96 -159.99, -14.94 -158.86, -16.22 -157.39 M-12.97 -161.13 C-14.19 -159.72, -15.42 -158.31, -16.22 -157.39 M-16.22 -157.39 C-17.19 -156.16, -18.17 -154.92, -19.28 -153.52 M-16.22 -157.39 C-16.86 -156.57, -17.51 -155.75, -19.28 -153.52 M-19.28 -153.52 C-20.33 -152.06, -21.38 -150.6, -22.16 -149.52 M-19.28 -153.52 C-20.23 -152.2, -21.18 -150.88, -22.16 -149.52 M-22.16 -149.52 C-22.76 -148.6, -23.36 -147.68, -24.86 -145.4 M-22.16 -149.52 C-23.15 -148.01, -24.14 -146.5, -24.86 -145.4 M-24.86 -145.4 C-25.37 -144.54, -25.88 -143.68, -27.36 -141.18 M-24.86 -145.4 C-25.66 -144.05, -26.46 -142.7, -27.36 -141.18 M-27.36 -141.18 C-28.15 -139.71, -28.94 -138.23, -29.68 -136.85 M-27.36 -141.18 C-27.83 -140.3, -28.3 -139.43, -29.68 -136.85 M-29.68 -136.85 C-30.28 -135.59, -30.88 -134.33, -31.79 -132.43 M-29.68 -136.85 C-30.51 -135.11, -31.35 -133.36, -31.79 -132.43 M-31.79 -132.43 C-32.39 -131.02, -32.99 -129.62, -33.71 -127.92 M-31.79 -132.43 C-32.36 -131.09, -32.93 -129.74, -33.71 -127.92 M-33.71 -127.92 C-34.06 -126.98, -34.41 -126.04, -35.43 -123.32 M-33.71 -127.92 C-34.21 -126.59, -34.7 -125.27, -35.43 -123.32 M-35.43 -123.32 C-35.83 -122.09, -36.22 -120.86, -36.94 -118.65 M-35.43 -123.32 C-35.99 -121.6, -36.54 -119.87, -36.94 -118.65 M-36.94 -118.65 C-37.45 -116.78, -37.97 -114.91, -38.24 -113.91 M-36.94 -118.65 C-37.36 -117.11, -37.79 -115.57, -38.24 -113.91 M-38.24 -113.91 C-38.58 -112.42, -38.92 -110.93, -39.34 -109.1 M-38.24 -113.91 C-38.65 -112.12, -39.06 -110.33, -39.34 -109.1 M-39.34 -109.1 C-39.53 -108.02, -39.73 -106.93, -40.22 -104.24 M-39.34 -109.1 C-39.62 -107.56, -39.89 -106.02, -40.22 -104.24 M-40.22 -104.24 C-40.38 -103.02, -40.55 -101.79, -40.88 -99.33 M-40.22 -104.24 C-40.35 -103.24, -40.48 -102.25, -40.88 -99.33 M-40.88 -99.33 C-41.01 -97.86, -41.14 -96.39, -41.32 -94.38 M-40.88 -99.33 C-41 -98.01, -41.12 -96.68, -41.32 -94.38 M-41.32 -94.38 C-41.32 -91.08, -41.32 -87.78, -41.32 -82.04 M-41.32 -94.38 C-41.32 -89.52, -41.32 -84.66, -41.32 -82.04 M-41.32 -82.04 C-41.32 -82.04, -41.32 -82.04, -41.32 -82.04 M-41.32 -82.04 C-41.32 -82.04, -41.32 -82.04, -41.32 -82.04 M-41.32 -82.04 C-41.32 -81.89, -41.32 -81.75, -41.32 -81.41 M-41.32 -82.04 C-41.32 -81.9, -41.32 -81.77, -41.32 -81.41 M-41.32 -81.41 C-41.32 -81.13, -41.32 -80.84, -41.31 -80.64 M-41.32 -81.41 C-41.32 -81.11, -41.32 -80.81, -41.31 -80.64 M-41.31 -80.64 C-41.3 -80.26, -41.29 -79.87, -41.27 -78.8 M-41.31 -80.64 C-41.3 -79.93, -41.28 -79.21, -41.27 -78.8 M-41.27 -78.8 C-41.23 -78.26, -41.2 -77.71, -41.14 -76.76 M-41.27 -78.8 C-41.24 -78.35, -41.21 -77.9, -41.14 -76.76 M-41.14 -76.76 C-41.05 -76.08, -40.97 -75.41, -40.88 -74.74 M-41.14 -76.76 C-41.05 -76.03, -40.96 -75.31, -40.88 -74.74 M-40.88 -74.74 C-40.83 -74.42, -40.77 -74.09, -40.74 -73.88 M-40.88 -74.74 C-40.84 -74.48, -40.8 -74.22, -40.74 -73.88 M-40.74 -73.88 C-40.7 -73.65, -40.66 -73.42, -40.63 -73.2 M-40.74 -73.88 C-40.71 -73.74, -40.69 -73.59, -40.63 -73.2 M-40.63 -73.2 C-40.6 -72.99, -40.57 -72.79, -40.47 -72.19 M-40.63 -73.2 C-40.58 -72.91, -40.54 -72.62, -40.47 -72.19 M-40.47 -72.19 C-40.45 -72, -40.42 -71.82, -40.36 -71.4 M-40.47 -72.19 C-40.43 -71.88, -40.39 -71.57, -40.36 -71.4 M-40.36 -71.4 C-40.33 -71.17, -40.29 -70.95, -40.23 -70.51 M-40.36 -71.4 C-40.33 -71.21, -40.3 -71.02, -40.23 -70.51 M-40.23 -70.51 C-40.21 -70.37, -40.19 -70.23, -40.13 -69.9 M-40.23 -70.51 C-40.2 -70.3, -40.16 -70.09, -40.13 -69.9 M-40.13 -69.9 C-40.09 -69.6, -40.04 -69.31, -40.01 -69.12 M-40.13 -69.9 C-40.11 -69.74, -40.08 -69.58, -40.01 -69.12 M-40.01 -69.12 C-39.9 -68.38, -39.78 -67.64, -39.72 -67.24 M-40.01 -69.12 C-39.93 -68.56, -39.84 -68.01, -39.72 -67.24 M-39.72 -67.24 C-39.62 -66.65, -39.52 -66.06, -39.37 -65.17 M-39.72 -67.24 C-39.59 -66.47, -39.45 -65.69, -39.37 -65.17 M-39.37 -65.17 C-39.28 -64.74, -39.2 -64.31, -38.99 -63.21 M-39.37 -65.17 C-39.26 -64.61, -39.15 -64.05, -38.99 -63.21 M-38.99 -63.21 C-38.95 -62.82, -38.9 -62.43, -38.88 -62.22 M-38.99 -63.21 C-38.95 -62.89, -38.92 -62.56, -38.88 -62.22 M-38.88 -62.22 C-38.82 -61.97, -38.75 -61.71, -38.62 -61.23 M-38.88 -62.22 C-38.8 -61.92, -38.73 -61.62, -38.62 -61.23 M-38.62 -61.23 C-38.41 -60.47, -38.19 -59.71, -38.04 -59.2 M-38.62 -61.23 C-38.47 -60.7, -38.32 -60.17, -38.04 -59.2 M-38.04 -59.2 C-38.01 -59.04, -37.97 -58.89, -37.9 -58.58 M-38.04 -59.2 C-37.99 -58.97, -37.94 -58.75, -37.9 -58.58 M-37.9 -58.58 C-37.86 -58.42, -37.81 -58.25, -37.7 -57.81 M-37.9 -58.58 C-37.85 -58.39, -37.8 -58.2, -37.7 -57.81 M-37.7 -57.81 C-37.58 -57.38, -37.46 -56.95, -37.18 -55.93 M-37.7 -57.81 C-37.57 -57.35, -37.45 -56.89, -37.18 -55.93 M-37.18 -55.93 C-36.95 -55.18, -36.73 -54.43, -36.56 -53.86 M-37.18 -55.93 C-36.95 -55.18, -36.73 -54.42, -36.56 -53.86 M-36.56 -53.86 C-36.42 -53.44, -36.29 -53.03, -35.93 -51.9 M-36.56 -53.86 C-36.34 -53.2, -36.13 -52.54, -35.93 -51.9 M-35.93 -51.9 C-35.42 -50.46, -34.92 -49.03, -34.62 -48.17 M-35.93 -51.9 C-35.45 -50.53, -34.96 -49.16, -34.62 -48.17 M-34.62 -48.17 C-34.62 -48.17, -34.62 -48.17, -34.62 -48.17 M-34.62 -48.17 C-34.62 -48.17, -34.62 -48.17, -34.62 -48.17 M-34.62 -48.17 C-34.2 -47.11, -33.77 -46.04, -33.16 -44.49 M-34.62 -48.17 C-34.31 -47.41, -34.01 -46.64, -33.16 -44.49 M-33.16 -44.49 C-32.55 -43.1, -31.93 -41.72, -31.56 -40.87 M-33.16 -44.49 C-32.56 -43.13, -31.95 -41.76, -31.56 -40.87 M-31.56 -40.87 C-31.2 -40.13, -30.85 -39.39, -29.95 -37.52 M-31.56 -40.87 C-31.03 -39.78, -30.51 -38.69, -29.95 -37.52 M-29.95 -37.52 C-29.49 -36.64, -29.03 -35.77, -27.99 -33.79 M-29.95 -37.52 C-29.51 -36.68, -29.07 -35.84, -27.99 -33.79 M-27.99 -33.79 C-27.23 -32.51, -26.48 -31.23, -25.87 -30.22 M-27.99 -33.79 C-27.27 -32.56, -26.54 -31.34, -25.87 -30.22 M-25.87 -30.22 C-25.51 -29.59, -25.15 -28.97, -24.19 -27.3 M-25.87 -30.22 C-25.38 -29.37, -24.9 -28.52, -24.19 -27.3 M-24.19 -27.3 C-24.19 -27.3, -24.19 -27.3, -24.19 -27.3 M-24.19 -27.3 C-24.19 -27.3, -24.19 -27.3, -24.19 -27.3 M-24.19 -27.3 C-23.22 -25.87, -22.24 -24.44, -21.53 -23.4 M-24.19 -27.3 C-23.47 -26.24, -22.75 -25.18, -21.53 -23.4 M-21.53 -23.4 C-20.53 -22.06, -19.52 -20.72, -18.66 -19.56 M-21.53 -23.4 C-20.56 -22.1, -19.59 -20.8, -18.66 -19.56 M-18.66 -19.56 C-18.18 -18.89, -17.7 -18.22, -17.2 -17.52 M-18.66 -19.56 C-18.21 -18.94, -17.76 -18.31, -17.2 -17.52 M-17.2 -17.52 C-17.2 -17.52, -17.2 -17.52, -17.2 -17.52 M-17.2 -17.52 C-17.2 -17.52, -17.2 -17.52, -17.2 -17.52 M-17.2 -17.52 C-16.36 -16.52, -15.51 -15.52, -13.2 -12.78 M-17.2 -17.52 C-16.12 -16.24, -15.05 -14.97, -13.2 -12.78 M-13.2 -12.78 C-12.27 -11.78, -11.34 -10.79, -8.96 -8.25 M-13.2 -12.78 C-11.54 -11, -9.88 -9.23, -8.96 -8.25 M-8.96 -8.25 C-8.66 -7.99, -8.35 -7.73, -8.02 -7.44 M-8.96 -8.25 C-8.7 -8.03, -8.44 -7.8, -8.02 -7.44 M-8.02 -7.44 C-8.02 -7.44, -8.02 -7.44, -8.02 -7.44 M-8.02 -7.44 C-8.02 -7.44, -8.02 -7.44, -8.02 -7.44 M-8.02 -7.44 C-7 -6.5, -5.98 -5.56, -3.99 -3.71 M-8.02 -7.44 C-6.48 -6.02, -4.94 -4.6, -3.99 -3.71 M-3.99 -3.71 C-2.75 -2.64, -1.51 -1.57, 0.15 -0.15 M-3.99 -3.71 C-2.65 -2.56, -1.31 -1.4, 0.15 -0.15 M0.15 -0.15 C0.09 -0.09, 0.04 -0.04, 0 0 M0.15 -0.15 C0.1 -0.1, 0.06 -0.06, 0 0" stroke="#000000" stroke-width="1" fill="none"></path></g></g><mask></mask><g stroke-linecap="round"><g transform="translate(60.96278322663632 173.68964734967676) rotate(0 -18.928537869830876 9.823574846811539)" fill-rule="evenodd"><path d="M0 0 L-28.76 28.21 L-28.76 28.21 L-29.27 28.54 L-29.88 28.54 L-30.4 28.24 L-30.67 27.71 L-38.03 -7.6 L-38.03 -7.6 L-38.01 -8.12 L-37.75 -8.57 L-37.31 -8.85 L-36.78 -8.9 L-0.81 -1.66 L-0.81 -1.66 L-0.29 -1.47 L0.07 -1.05 L0.17 -0.52 L0 0 L0 0" stroke="none" stroke-width="0" fill="#A6CAFD" fill-rule="evenodd"></path><path d="M0 0 C-5.89 5.78, -11.78 11.56, -28.76 28.21 M0 0 C-10.85 10.65, -21.71 21.29, -28.76 28.21 M-28.76 28.21 C-28.76 28.21, -28.76 28.21, -28.76 28.21 M-28.76 28.21 C-28.76 28.21, -28.76 28.21, -28.76 28.21 M-28.76 28.21 C-28.93 28.32, -29.1 28.43, -29.27 28.54 M-28.76 28.21 C-28.91 28.31, -29.06 28.4, -29.27 28.54 M-29.27 28.54 C-29.42 28.54, -29.57 28.54, -29.88 28.54 M-29.27 28.54 C-29.41 28.54, -29.54 28.54, -29.88 28.54 M-29.88 28.54 C-30.04 28.45, -30.2 28.36, -30.4 28.24 M-29.88 28.54 C-30 28.47, -30.12 28.4, -30.4 28.24 M-30.4 28.24 C-30.47 28.1, -30.54 27.96, -30.67 27.71 M-30.4 28.24 C-30.48 28.08, -30.56 27.93, -30.67 27.71 M-30.67 27.71 C-32.67 18.11, -34.67 8.52, -38.03 -7.6 M-30.67 27.71 C-32.88 17.12, -35.09 6.53, -38.03 -7.6 M-38.03 -7.6 C-38.03 -7.6, -38.03 -7.6, -38.03 -7.6 M-38.03 -7.6 C-38.03 -7.6, -38.03 -7.6, -38.03 -7.6 M-38.03 -7.6 C-38.03 -7.72, -38.02 -7.85, -38.01 -8.12 M-38.03 -7.6 C-38.02 -7.74, -38.02 -7.88, -38.01 -8.12 M-38.01 -8.12 C-37.94 -8.24, -37.88 -8.36, -37.75 -8.57 M-38.01 -8.12 C-37.96 -8.21, -37.9 -8.31, -37.75 -8.57 M-37.75 -8.57 C-37.64 -8.64, -37.54 -8.71, -37.31 -8.85 M-37.75 -8.57 C-37.6 -8.66, -37.46 -8.76, -37.31 -8.85 M-37.31 -8.85 C-37.15 -8.87, -37 -8.88, -36.78 -8.9 M-37.31 -8.85 C-37.11 -8.87, -36.9 -8.89, -36.78 -8.9 M-36.78 -8.9 C-23.51 -6.23, -10.24 -3.56, -0.81 -1.66 M-36.78 -8.9 C-24.82 -6.49, -12.87 -4.09, -0.81 -1.66 M-0.81 -1.66 C-0.81 -1.66, -0.81 -1.66, -0.81 -1.66 M-0.81 -1.66 C-0.81 -1.66, -0.81 -1.66, -0.81 -1.66 M-0.81 -1.66 C-0.65 -1.6, -0.48 -1.54, -0.29 -1.47 M-0.81 -1.66 C-0.65 -1.6, -0.48 -1.54, -0.29 -1.47 M-0.29 -1.47 C-0.17 -1.33, -0.06 -1.2, 0.07 -1.05 M-0.29 -1.47 C-0.2 -1.36, -0.1 -1.25, 0.07 -1.05 M0.07 -1.05 C0.09 -0.91, 0.12 -0.77, 0.17 -0.52 M0.07 -1.05 C0.09 -0.94, 0.11 -0.82, 0.17 -0.52 M0.17 -0.52 C0.12 -0.35, 0.06 -0.18, 0 0 M0.17 -0.52 C0.14 -0.41, 0.1 -0.3, 0 0 M0 0 C0 0, 0 0, 0 0 M0 0 C0 0, 0 0, 0 0 M0 0 C0 0, 0 0, 0 0 M0 0 C0 0, 0 0, 0 0" stroke="#000000" stroke-width="1" fill="none"></path></g></g><mask></mask><g stroke-linecap="round"><g transform="translate(215.81693643116893 130.44457796098754) rotate(0 -84.1059134550257 48.654469597901766)" fill-rule="evenodd"><path d="M0 0 L0 0 L-2.15 -0.22 L-4.29 -0.01 L-6.34 0.6 L-8.26 1.62 L-9.93 2.99 L-11.29 4.64 L-12.3 6.53 L-12.93 8.6 L-14.53 14.36 L-16.53 19.98 L-18.9 25.44 L-21.63 30.71 L-24.72 35.78 L-28.15 40.64 L-31.92 45.26 L-36.01 49.63 L-39.33 52.75 L-42.77 55.67 L-46.32 58.38 L-49.97 60.9 L-53.71 63.21 L-57.54 65.33 L-61.44 67.24 L-65.42 68.95 L-69.46 70.46 L-73.55 71.77 L-77.69 72.87 L-81.87 73.78 L-86.08 74.48 L-90.31 74.99 L-94.56 75.29 L-98.81 75.39 L-103.07 75.29 L-107.32 74.99 L-111.55 74.48 L-115.76 73.78 L-119.94 72.87 L-124.08 71.77 L-128.17 70.46 L-132.21 68.95 L-136.18 67.24 L-140.09 65.33 L-143.92 63.21 L-147.66 60.9 L-151.31 58.38 L-154.86 55.67 L-158.3 52.75 L-161.62 49.63 L-177.47 65.23 L-173.01 69.41 L-168.36 73.33 L-163.52 76.97 L-158.5 80.33 L-153.33 83.41 L-148 86.2 L-142.54 88.69 L-136.96 90.89 L-131.27 92.78 L-125.48 94.36 L-119.6 95.63 L-113.66 96.59 L-107.65 97.22 L-101.59 97.53 L-95.5 97.5 L-89.39 97.15 L-88.08 97.15 L-88.08 97.15 L-85.88 97.02 L-83.66 96.71 L-79.24 95.83 L-77.12 95.83 L-77.12 95.83 L-72.85 94.86 L-68.58 93.72 L-66.39 93.06 L-66.39 93.06 L-62.2 91.73 L-58.06 90.22 L-55.94 89.35 L-55.94 89.35 L-51.85 87.53 L-47.76 85.56 L-46.01 84.61 L-46.01 84.61 L-41.94 82.3 L-37.98 79.87 L-36.59 78.93 L-36.59 78.93 L-32.26 75.76 L-28.08 72.39 L-24.07 68.83 L-20.23 65.08 L-18.49 63.18 L-16.8 61.29 L-15.79 60.22 L-14.61 58.92 L-12.2 56.12 L-11.29 54.95 L-10.66 54.08 L-10.14 53.34 L-9.57 52.54 L-7.11 49.15 L-4.82 45.69 L-3.14 42.93 L-3.14 42.93 L-0.68 38.53 L1.61 34.03 L2.19 32.72 L2.19 32.72 L4.27 27.99 L6.09 23.17 L7.67 18.26 L8.98 13.26 L9.26 11.06 L9.09 8.87 L8.49 6.76 L7.46 4.79 L6.06 3.06 L4.36 1.66 L2.42 0.63 L0.29 0 L0 0 L0 0" stroke="none" stroke-width="0" fill="#A6CAFD" fill-rule="evenodd"></path><path d="M0 0 C0 0, 0 0, 0 0 M0 0 C0 0, 0 0, 0 0 M0 0 C-0.67 -0.07, -1.34 -0.14, -2.15 -0.22 M0 0 C-0.75 -0.08, -1.49 -0.15, -2.15 -0.22 M-2.15 -0.22 C-2.7 -0.17, -3.26 -0.11, -4.29 -0.01 M-2.15 -0.22 C-2.6 -0.18, -3.05 -0.13, -4.29 -0.01 M-4.29 -0.01 C-4.87 0.16, -5.45 0.34, -6.34 0.6 M-4.29 -0.01 C-4.71 0.11, -5.13 0.24, -6.34 0.6 M-6.34 0.6 C-6.82 0.85, -7.29 1.11, -8.26 1.62 M-6.34 0.6 C-7.02 0.96, -7.71 1.33, -8.26 1.62 M-8.26 1.62 C-8.9 2.15, -9.55 2.68, -9.93 2.99 M-8.26 1.62 C-8.67 1.96, -9.08 2.3, -9.93 2.99 M-9.93 2.99 C-10.21 3.33, -10.49 3.67, -11.29 4.64 M-9.93 2.99 C-10.45 3.62, -10.97 4.25, -11.29 4.64 M-11.29 4.64 C-11.57 5.17, -11.85 5.7, -12.3 6.53 M-11.29 4.64 C-11.53 5.09, -11.77 5.54, -12.3 6.53 M-12.3 6.53 C-12.51 7.24, -12.73 7.95, -12.93 8.6 M-12.3 6.53 C-12.43 6.97, -12.56 7.4, -12.93 8.6 M-12.93 8.6 C-13.4 10.31, -13.88 12.02, -14.53 14.36 M-12.93 8.6 C-13.38 10.21, -13.83 11.82, -14.53 14.36 M-14.53 14.36 C-15.13 16.05, -15.73 17.74, -16.53 19.98 M-14.53 14.36 C-15.23 16.34, -15.94 18.31, -16.53 19.98 M-16.53 19.98 C-17.4 21.98, -18.27 23.98, -18.9 25.44 M-16.53 19.98 C-17.28 21.71, -18.03 23.45, -18.9 25.44 M-18.9 25.44 C-19.61 26.82, -20.33 28.2, -21.63 30.71 M-18.9 25.44 C-19.46 26.52, -20.02 27.61, -21.63 30.71 M-21.63 30.71 C-22.56 32.24, -23.49 33.77, -24.72 35.78 M-21.63 30.71 C-22.35 31.9, -23.07 33.08, -24.72 35.78 M-24.72 35.78 C-25.56 36.97, -26.4 38.16, -28.15 40.64 M-24.72 35.78 C-25.96 37.55, -27.21 39.31, -28.15 40.64 M-28.15 40.64 C-29.27 42.01, -30.38 43.38, -31.92 45.26 M-28.15 40.64 C-29.47 42.26, -30.79 43.88, -31.92 45.26 M-31.92 45.26 C-32.74 46.14, -33.56 47.02, -36.01 49.63 M-31.92 45.26 C-33.15 46.58, -34.38 47.9, -36.01 49.63 M-36.01 49.63 C-36.79 50.37, -37.58 51.11, -39.33 52.75 M-36.01 49.63 C-37.09 50.65, -38.18 51.67, -39.33 52.75 M-39.33 52.75 C-40.43 53.68, -41.53 54.62, -42.77 55.67 M-39.33 52.75 C-40.32 53.59, -41.32 54.44, -42.77 55.67 M-42.77 55.67 C-44.16 56.73, -45.56 57.8, -46.32 58.38 M-42.77 55.67 C-43.7 56.38, -44.63 57.09, -46.32 58.38 M-46.32 58.38 C-47.51 59.21, -48.71 60.03, -49.97 60.9 M-46.32 58.38 C-47.35 59.09, -48.38 59.8, -49.97 60.9 M-49.97 60.9 C-51.16 61.64, -52.35 62.37, -53.71 63.21 M-49.97 60.9 C-51.46 61.82, -52.95 62.74, -53.71 63.21 M-53.71 63.21 C-55.18 64.02, -56.65 64.83, -57.54 65.33 M-53.71 63.21 C-54.58 63.69, -55.45 64.17, -57.54 65.33 M-57.54 65.33 C-58.93 66.01, -60.32 66.69, -61.44 67.24 M-57.54 65.33 C-58.36 65.73, -59.17 66.13, -61.44 67.24 M-61.44 67.24 C-62.98 67.9, -64.51 68.56, -65.42 68.95 M-61.44 67.24 C-62.87 67.85, -64.29 68.46, -65.42 68.95 M-65.42 68.95 C-66.76 69.45, -68.1 69.95, -69.46 70.46 M-65.42 68.95 C-66.69 69.42, -67.96 69.9, -69.46 70.46 M-69.46 70.46 C-70.55 70.8, -71.63 71.15, -73.55 71.77 M-69.46 70.46 C-70.68 70.85, -71.91 71.24, -73.55 71.77 M-73.55 71.77 C-74.63 72.05, -75.71 72.34, -77.69 72.87 M-73.55 71.77 C-75.07 72.17, -76.6 72.58, -77.69 72.87 M-77.69 72.87 C-78.91 73.14, -80.14 73.4, -81.87 73.78 M-77.69 72.87 C-79.21 73.2, -80.72 73.53, -81.87 73.78 M-81.87 73.78 C-82.88 73.95, -83.89 74.12, -86.08 74.48 M-81.87 73.78 C-83.41 74.04, -84.95 74.29, -86.08 74.48 M-86.08 74.48 C-87.65 74.67, -89.23 74.86, -90.31 74.99 M-86.08 74.48 C-87.14 74.61, -88.21 74.74, -90.31 74.99 M-90.31 74.99 C-91.82 75.09, -93.33 75.2, -94.56 75.29 M-90.31 74.99 C-91.76 75.09, -93.21 75.19, -94.56 75.29 M-94.56 75.29 C-96.02 75.32, -97.49 75.36, -98.81 75.39 M-94.56 75.29 C-96.07 75.32, -97.59 75.36, -98.81 75.39 M-98.81 75.39 C-100.43 75.35, -102.04 75.31, -103.07 75.29 M-98.81 75.39 C-99.96 75.36, -101.1 75.33, -103.07 75.29 M-103.07 75.29 C-104.28 75.2, -105.49 75.11, -107.32 74.99 M-103.07 75.29 C-104.16 75.21, -105.26 75.13, -107.32 74.99 M-107.32 74.99 C-108.45 74.85, -109.58 74.72, -111.55 74.48 M-107.32 74.99 C-108.84 74.8, -110.36 74.62, -111.55 74.48 M-111.55 74.48 C-112.42 74.34, -113.3 74.19, -115.76 73.78 M-111.55 74.48 C-112.49 74.32, -113.43 74.17, -115.76 73.78 M-115.76 73.78 C-116.86 73.54, -117.95 73.3, -119.94 72.87 M-115.76 73.78 C-117.28 73.45, -118.8 73.12, -119.94 72.87 M-119.94 72.87 C-121.43 72.47, -122.91 72.08, -124.08 71.77 M-119.94 72.87 C-121.23 72.53, -122.53 72.18, -124.08 71.77 M-124.08 71.77 C-125.69 71.25, -127.3 70.73, -128.17 70.46 M-124.08 71.77 C-125.2 71.41, -126.32 71.05, -128.17 70.46 M-128.17 70.46 C-129.49 69.97, -130.8 69.47, -132.21 68.95 M-128.17 70.46 C-129.27 70.04, -130.38 69.63, -132.21 68.95 M-132.21 68.95 C-133.71 68.3, -135.2 67.66, -136.18 67.24 M-132.21 68.95 C-133.07 68.58, -133.94 68.2, -136.18 67.24 M-136.18 67.24 C-137.46 66.61, -138.74 65.99, -140.09 65.33 M-136.18 67.24 C-137.12 66.78, -138.07 66.32, -140.09 65.33 M-140.09 65.33 C-141.28 64.67, -142.48 64.01, -143.92 63.21 M-140.09 65.33 C-141.48 64.56, -142.87 63.79, -143.92 63.21 M-143.92 63.21 C-145.11 62.48, -146.3 61.74, -147.66 60.9 M-143.92 63.21 C-144.82 62.65, -145.72 62.1, -147.66 60.9 M-147.66 60.9 C-149.07 59.93, -150.47 58.96, -151.31 58.38 M-147.66 60.9 C-148.46 60.35, -149.26 59.79, -151.31 58.38 M-151.31 58.38 C-152.35 57.59, -153.39 56.79, -154.86 55.67 M-151.31 58.38 C-152.33 57.6, -153.36 56.82, -154.86 55.67 M-154.86 55.67 C-156.13 54.59, -157.4 53.51, -158.3 52.75 M-154.86 55.67 C-156 54.7, -157.14 53.73, -158.3 52.75 M-158.3 52.75 C-159.56 51.57, -160.82 50.38, -161.62 49.63 M-158.3 52.75 C-159.25 51.86, -160.2 50.96, -161.62 49.63 M-161.62 49.63 C-166.76 54.68, -171.89 59.74, -177.47 65.23 M-161.62 49.63 C-167.75 55.66, -173.87 61.69, -177.47 65.23 M-177.47 65.23 C-175.95 66.65, -174.44 68.07, -173.01 69.41 M-177.47 65.23 C-176.01 66.59, -174.56 67.96, -173.01 69.41 M-173.01 69.41 C-171.65 70.56, -170.29 71.71, -168.36 73.33 M-173.01 69.41 C-171.58 70.62, -170.15 71.82, -168.36 73.33 M-168.36 73.33 C-167.02 74.34, -165.69 75.34, -163.52 76.97 M-168.36 73.33 C-166.46 74.76, -164.56 76.19, -163.52 76.97 M-163.52 76.97 C-162.48 77.67, -161.45 78.36, -158.5 80.33 M-163.52 76.97 C-161.72 78.18, -159.92 79.39, -158.5 80.33 M-158.5 80.33 C-156.83 81.33, -155.16 82.32, -153.33 83.41 M-158.5 80.33 C-157.19 81.11, -155.88 81.89, -153.33 83.41 M-153.33 83.41 C-151.3 84.47, -149.27 85.53, -148 86.2 M-153.33 83.41 C-152.03 84.09, -150.74 84.77, -148 86.2 M-148 86.2 C-146.08 87.08, -144.16 87.95, -142.54 88.69 M-148 86.2 C-145.98 87.12, -143.96 88.04, -142.54 88.69 M-142.54 88.69 C-141.32 89.17, -140.1 89.65, -136.96 90.89 M-142.54 88.69 C-141.41 89.14, -140.28 89.58, -136.96 90.89 M-136.96 90.89 C-135.41 91.4, -133.86 91.92, -131.27 92.78 M-136.96 90.89 C-134.74 91.62, -132.52 92.36, -131.27 92.78 M-131.27 92.78 C-129.48 93.27, -127.7 93.75, -125.48 94.36 M-131.27 92.78 C-129.43 93.28, -127.59 93.78, -125.48 94.36 M-125.48 94.36 C-123.56 94.78, -121.64 95.19, -119.6 95.63 M-125.48 94.36 C-123.99 94.68, -122.5 95, -119.6 95.63 M-119.6 95.63 C-117.68 95.94, -115.75 96.25, -113.66 96.59 M-119.6 95.63 C-118.37 95.83, -117.13 96.03, -113.66 96.59 M-113.66 96.59 C-111.28 96.84, -108.91 97.09, -107.65 97.22 M-113.66 96.59 C-111.94 96.77, -110.23 96.95, -107.65 97.22 M-107.65 97.22 C-105.68 97.32, -103.7 97.42, -101.59 97.53 M-107.65 97.22 C-105.63 97.32, -103.61 97.43, -101.59 97.53 M-101.59 97.53 C-99.81 97.52, -98.02 97.51, -95.5 97.5 M-101.59 97.53 C-99.75 97.52, -97.91 97.51, -95.5 97.5 M-95.5 97.5 C-93.92 97.41, -92.33 97.32, -89.39 97.15 M-95.5 97.5 C-93.72 97.4, -91.94 97.3, -89.39 97.15 M-89.39 97.15 C-89.03 97.15, -88.68 97.15, -88.08 97.15 M-89.39 97.15 C-88.99 97.15, -88.58 97.15, -88.08 97.15 M-88.08 97.15 C-88.08 97.15, -88.08 97.15, -88.08 97.15 M-88.08 97.15 C-88.08 97.15, -88.08 97.15, -88.08 97.15 M-88.08 97.15 C-87.37 97.11, -86.67 97.07, -85.88 97.02 M-88.08 97.15 C-87.63 97.12, -87.19 97.1, -85.88 97.02 M-85.88 97.02 C-85.13 96.92, -84.38 96.81, -83.66 96.71 M-85.88 97.02 C-85 96.9, -84.13 96.78, -83.66 96.71 M-83.66 96.71 C-82.51 96.48, -81.36 96.25, -79.24 95.83 M-83.66 96.71 C-82.51 96.48, -81.36 96.25, -79.24 95.83 M-79.24 95.83 C-78.6 95.83, -77.96 95.83, -77.12 95.83 M-79.24 95.83 C-78.54 95.83, -77.84 95.83, -77.12 95.83 M-77.12 95.83 C-77.12 95.83, -77.12 95.83, -77.12 95.83 M-77.12 95.83 C-77.12 95.83, -77.12 95.83, -77.12 95.83 M-77.12 95.83 C-76.08 95.6, -75.03 95.36, -72.85 94.86 M-77.12 95.83 C-75.92 95.56, -74.72 95.29, -72.85 94.86 M-72.85 94.86 C-71.62 94.53, -70.38 94.2, -68.58 93.72 M-72.85 94.86 C-71.31 94.45, -69.78 94.04, -68.58 93.72 M-68.58 93.72 C-68.06 93.56, -67.53 93.41, -66.39 93.06 M-68.58 93.72 C-68.05 93.56, -67.52 93.4, -66.39 93.06 M-66.39 93.06 C-66.39 93.06, -66.39 93.06, -66.39 93.06 M-66.39 93.06 C-66.39 93.06, -66.39 93.06, -66.39 93.06 M-66.39 93.06 C-65.36 92.74, -64.34 92.41, -62.2 91.73 M-66.39 93.06 C-64.95 92.6, -63.51 92.14, -62.2 91.73 M-62.2 91.73 C-61.1 91.33, -60.01 90.93, -58.06 90.22 M-62.2 91.73 C-61.14 91.34, -60.09 90.96, -58.06 90.22 M-58.06 90.22 C-57.61 90.04, -57.16 89.85, -55.94 89.35 M-58.06 90.22 C-57.3 89.91, -56.54 89.59, -55.94 89.35 M-55.94 89.35 C-55.94 89.35, -55.94 89.35, -55.94 89.35 M-55.94 89.35 C-55.94 89.35, -55.94 89.35, -55.94 89.35 M-55.94 89.35 C-54.42 88.67, -52.89 87.99, -51.85 87.53 M-55.94 89.35 C-54.32 88.63, -52.69 87.91, -51.85 87.53 M-51.85 87.53 C-50.75 87, -49.65 86.47, -47.76 85.56 M-51.85 87.53 C-50.96 87.1, -50.07 86.67, -47.76 85.56 M-47.76 85.56 C-47.15 85.23, -46.54 84.9, -46.01 84.61 M-47.76 85.56 C-47.4 85.36, -47.03 85.16, -46.01 84.61 M-46.01 84.61 C-46.01 84.61, -46.01 84.61, -46.01 84.61 M-46.01 84.61 C-46.01 84.61, -46.01 84.61, -46.01 84.61 M-46.01 84.61 C-45.02 84.05, -44.02 83.48, -41.94 82.3 M-46.01 84.61 C-44.86 83.96, -43.7 83.3, -41.94 82.3 M-41.94 82.3 C-40.52 81.43, -39.1 80.56, -37.98 79.87 M-41.94 82.3 C-40.57 81.46, -39.2 80.62, -37.98 79.87 M-37.98 79.87 C-37.49 79.54, -37.01 79.21, -36.59 78.93 M-37.98 79.87 C-37.5 79.55, -37.01 79.22, -36.59 78.93 M-36.59 78.93 C-36.59 78.93, -36.59 78.93, -36.59 78.93 M-36.59 78.93 C-36.59 78.93, -36.59 78.93, -36.59 78.93 M-36.59 78.93 C-35.53 78.15, -34.48 77.38, -32.26 75.76 M-36.59 78.93 C-35.43 78.08, -34.28 77.24, -32.26 75.76 M-32.26 75.76 C-30.74 74.53, -29.22 73.31, -28.08 72.39 M-32.26 75.76 C-30.75 74.54, -29.24 73.33, -28.08 72.39 M-28.08 72.39 C-26.92 71.36, -25.77 70.33, -24.07 68.83 M-28.08 72.39 C-26.68 71.15, -25.28 69.9, -24.07 68.83 M-24.07 68.83 C-23.15 67.93, -22.24 67.04, -20.23 65.08 M-24.07 68.83 C-22.81 67.6, -21.54 66.36, -20.23 65.08 M-20.23 65.08 C-19.65 64.45, -19.06 63.81, -18.49 63.18 M-20.23 65.08 C-19.81 64.63, -19.4 64.17, -18.49 63.18 M-18.49 63.18 C-18 62.64, -17.51 62.09, -16.8 61.29 M-18.49 63.18 C-18.13 62.79, -17.78 62.39, -16.8 61.29 M-16.8 61.29 C-16.58 61.06, -16.36 60.83, -15.79 60.22 M-16.8 61.29 C-16.58 61.05, -16.35 60.82, -15.79 60.22 M-15.79 60.22 C-15.43 59.82, -15.06 59.42, -14.61 58.92 M-15.79 60.22 C-15.5 59.9, -15.21 59.58, -14.61 58.92 M-14.61 58.92 C-14 58.21, -13.38 57.5, -12.2 56.12 M-14.61 58.92 C-13.85 58.04, -13.08 57.15, -12.2 56.12 M-12.2 56.12 C-11.91 55.74, -11.62 55.37, -11.29 54.95 M-12.2 56.12 C-11.96 55.81, -11.72 55.5, -11.29 54.95 M-11.29 54.95 C-11.07 54.64, -10.85 54.34, -10.66 54.08 M-11.29 54.95 C-11.05 54.62, -10.8 54.28, -10.66 54.08 M-10.66 54.08 C-10.51 53.87, -10.36 53.66, -10.14 53.34 M-10.66 54.08 C-10.46 53.79, -10.26 53.5, -10.14 53.34 M-10.14 53.34 C-9.96 53.09, -9.78 52.84, -9.57 52.54 M-10.14 53.34 C-10.01 53.15, -9.87 52.96, -9.57 52.54 M-9.57 52.54 C-9.06 51.84, -8.55 51.14, -7.11 49.15 M-9.57 52.54 C-8.77 51.44, -7.98 50.35, -7.11 49.15 M-7.11 49.15 C-6.41 48.09, -5.7 47.03, -4.82 45.69 M-7.11 49.15 C-6.41 48.09, -5.71 47.04, -4.82 45.69 M-4.82 45.69 C-4.46 45.09, -4.09 44.49, -3.14 42.93 M-4.82 45.69 C-4.37 44.95, -3.92 44.21, -3.14 42.93 M-3.14 42.93 C-3.14 42.93, -3.14 42.93, -3.14 42.93 M-3.14 42.93 C-3.14 42.93, -3.14 42.93, -3.14 42.93 M-3.14 42.93 C-2.44 41.67, -1.74 40.42, -0.68 38.53 M-3.14 42.93 C-2.63 42.01, -2.12 41.1, -0.68 38.53 M-0.68 38.53 C-0.12 37.42, 0.45 36.31, 1.61 34.03 M-0.68 38.53 C-0.11 37.4, 0.47 36.27, 1.61 34.03 M1.61 34.03 C1.79 33.62, 1.98 33.2, 2.19 32.72 M1.61 34.03 C1.73 33.75, 1.86 33.46, 2.19 32.72 M2.19 32.72 C2.19 32.72, 2.19 32.72, 2.19 32.72 M2.19 32.72 C2.19 32.72, 2.19 32.72, 2.19 32.72 M2.19 32.72 C2.73 31.5, 3.27 30.28, 4.27 27.99 M2.19 32.72 C2.95 31, 3.7 29.29, 4.27 27.99 M4.27 27.99 C4.86 26.43, 5.45 24.87, 6.09 23.17 M4.27 27.99 C4.87 26.4, 5.47 24.81, 6.09 23.17 M6.09 23.17 C6.7 21.28, 7.3 19.39, 7.67 18.26 M6.09 23.17 C6.72 21.21, 7.34 19.26, 7.67 18.26 M7.67 18.26 C8.04 16.83, 8.42 15.4, 8.98 13.26 M7.67 18.26 C8.01 16.96, 8.35 15.67, 8.98 13.26 M8.98 13.26 C9.04 12.8, 9.1 12.34, 9.26 11.06 M8.98 13.26 C9.06 12.68, 9.13 12.1, 9.26 11.06 M9.26 11.06 C9.21 10.49, 9.17 9.91, 9.09 8.87 M9.26 11.06 C9.21 10.47, 9.17 9.89, 9.09 8.87 M9.09 8.87 C8.86 8.06, 8.63 7.25, 8.49 6.76 M9.09 8.87 C8.85 8.04, 8.62 7.21, 8.49 6.76 M8.49 6.76 C8.15 6.1, 7.8 5.45, 7.46 4.79 M8.49 6.76 C8.21 6.22, 7.93 5.69, 7.46 4.79 M7.46 4.79 C6.91 4.11, 6.36 3.43, 6.06 3.06 M7.46 4.79 C7.18 4.43, 6.89 4.08, 6.06 3.06 M6.06 3.06 C5.45 2.55, 4.83 2.05, 4.36 1.66 M6.06 3.06 C5.69 2.76, 5.32 2.45, 4.36 1.66 M4.36 1.66 C3.86 1.4, 3.36 1.13, 2.42 0.63 M4.36 1.66 C3.95 1.45, 3.54 1.23, 2.42 0.63 M2.42 0.63 C1.77 0.44, 1.12 0.24, 0.29 0 M2.42 0.63 C1.98 0.5, 1.54 0.37, 0.29 0 M0.29 0 C0.22 0, 0.15 0, 0 0 M0.29 0 C0.2 0, 0.11 0, 0 0 M0 0 C0 0, 0 0, 0 0 M0 0 C0 0, 0 0, 0 0 M0 0 C0 0, 0 0, 0 0 M0 0 C0 0, 0 0, 0 0" stroke="#000000" stroke-width="1" fill="none"></path></g></g><mask></mask><g transform="translate(20.889087128909367 243.1804959019887) rotate(0 94.5 38)"><text x="94.5" y="0" font-family="Helvetica, Segoe UI Emoji" font-size="33.4285714285714px" fill="#000000" text-anchor="middle" style="white-space: pre;" direction="ltr" dominant-baseline="text-before-edge">reCAPTCHA</text><text x="94.5" y="38" font-family="Helvetica, Segoe UI Emoji" font-size="33.4285714285714px" fill="#000000" text-anchor="middle" style="white-space: pre;" direction="ltr" dominant-baseline="text-before-edge">Enterprise</text></g></svg>