<svg xmlns="http://www.w3.org/2000/svg" viewBox="510.20 1244.78 276.04 226.57" width="276" height="227"><text x="516.20" y="1457.20" font-size="34.19428571428574" fill="#000000" opacity="1.0" font-family="sans-serif">Slides API</text><polyline points="658.22,1296.91 658.22,1408.37 658.22,1408.37 658.17,1409.48 658.00,1410.55 657.74,1411.59 657.37,1412.59 656.91,1413.54 656.37,1414.43 655.74,1415.27 655.04,1416.04 654.27,1416.74 653.43,1417.37 652.54,1417.91 651.59,1418.37 650.59,1418.74 649.55,1419.00 648.48,1419.17 647.37,1419.22 547.06,1419.22 547.06,1419.22 545.95,1419.17 544.87,1419.00 543.83,1418.74 542.84,1418.37 541.89,1417.91 540.99,1417.37 540.16,1416.74 539.39,1416.04 538.68,1415.27 538.06,1414.43 537.52,1413.54 537.06,1412.59 536.69,1411.59 536.42,1410.55 536.26,1409.48 536.20,1408.37 536.20,1261.64 536.20,1261.64 536.26,1260.53 536.42,1259.45 536.69,1258.41 537.06,1257.42 537.52,1256.47 538.06,1255.57 538.68,1254.74 539.39,1253.97 540.16,1253.27 540.99,1252.64 541.89,1252.10 542.84,1251.64 543.83,1251.27 544.87,1251.00 545.95,1250.84 547.06,1250.78 612.07,1250.78 658.22,1296.91 658.22,1296.91" fill="#f5b912" stroke="#000000" stroke-width="1" opacity="1.0" stroke-linecap="round" stroke-linejoin="round"/><polyline points="618.35,1295.00 658.19,1327.27 658.19,1296.94 635.59,1283.85 618.35,1295.00 618.35,1295.00" fill="#b78302" stroke="#000000" stroke-width="1" opacity="1.0" stroke-linecap="round" stroke-linejoin="round"/><polyline points="658.42,1296.91 623.15,1296.91 623.15,1296.91 622.05,1296.85 620.97,1296.69 619.93,1296.42 618.93,1296.05 617.98,1295.60 617.09,1295.05 616.25,1294.43 615.48,1293.72 614.78,1292.95 614.15,1292.12 613.61,1291.22 613.15,1290.27 612.79,1289.28 612.52,1288.24 612.35,1287.16 612.30,1286.05 612.30,1250.78 658.42,1296.91 658.42,1296.91" fill="#fadc87" stroke="#000000" stroke-width="1" opacity="1.0" stroke-linecap="round" stroke-linejoin="round"/><polyline points="619.67,1327.60 575.42,1327.60 575.42,1327.60 574.66,1327.64 573.92,1327.75 573.21,1327.94 572.52,1328.19 571.87,1328.50 571.26,1328.87 570.69,1329.30 570.16,1329.78 569.68,1330.31 569.25,1330.88 568.88,1331.49 568.57,1332.14 568.32,1332.82 568.13,1333.54 568.02,1334.28 567.98,1335.04 567.98,1379.29 567.98,1379.29 568.02,1380.05 568.13,1380.79 568.32,1381.50 568.57,1382.18 568.88,1382.83 569.25,1383.45 569.68,1384.02 570.16,1384.55 570.69,1385.03 571.26,1385.45 571.87,1385.82 572.52,1386.14 573.21,1386.39 573.92,1386.57 574.66,1386.68 575.42,1386.72 619.67,1386.72 619.67,1386.72 620.43,1386.68 621.17,1386.57 621.88,1386.39 622.56,1386.14 623.21,1385.82 623.83,1385.45 624.40,1385.03 624.93,1384.55 625.41,1384.02 625.83,1383.45 626.21,1382.83 626.52,1382.18 626.77,1381.50 626.95,1380.79 627.06,1380.05 627.10,1379.29 627.10,1335.00 627.10,1335.00 627.06,1334.25 626.95,1333.51 626.77,1332.81 626.52,1332.13 626.21,1331.48 625.83,1330.87 625.41,1330.30 624.93,1329.77 624.40,1329.29 623.83,1328.87 623.21,1328.50 622.56,1328.18 621.88,1327.94 621.17,1327.75 620.43,1327.64 619.67,1327.60 619.67,1327.60" fill="#fff" stroke="#000000" stroke-width="1" opacity="1.0" stroke-linecap="round" stroke-linejoin="round"/><polyline points="619.44,1373.50 575.68,1373.50 575.68,1343.72 619.44,1343.72 619.44,1373.50 619.44,1373.50" fill="#fff" stroke="#000000" stroke-width="1" opacity="1.0" stroke-linecap="round" stroke-linejoin="round"/><polyline points="619.44,1373.50 575.68,1373.50 575.68,1343.72 619.44,1343.72 619.44,1373.50 619.44,1373.50" fill="#f5b912" stroke="#000000" stroke-width="1" opacity="1.0" stroke-linecap="round" stroke-linejoin="round"/></svg>