<svg xmlns="http://www.w3.org/2000/svg" viewBox="30.46 107.46 172.00 84.00" width="172" height="84"><rect x="36.46" y="113.46" width="160.00" height="72.00" rx="0" stroke="#4285f4" stroke-width="2" opacity="1.0" fill="#FFF"/><text x="101.46" y="147.46" font-size="12" fill="#000000" opacity="1.0" font-family="sans-serif">Cloud
Healthcare API</text><polyline points="67.89,147.77 70.39,147.77 70.39,157.45 67.89,157.45 67.89,147.77" fill="#aecbfa" stroke="none" stroke-width="1" opacity="1.0" stroke-linecap="round" stroke-linejoin="round"/><polyline points="67.89,163.27 69.14,164.42 70.33,163.27 70.33,159.73 67.89,159.73 67.89,163.27" fill="#aecbfa" stroke="none" stroke-width="1" opacity="1.0" stroke-linecap="round" stroke-linejoin="round"/><polyline points="67.89,143.24 67.89,145.43 70.39,145.43 70.39,143.24 70.39,143.24 69.76,143.38 69.14,143.45 68.47,143.40 67.89,143.24 67.89,143.24" fill="#aecbfa" stroke="none" stroke-width="1" opacity="1.0" stroke-linecap="round" stroke-linejoin="round"/><polyline points="72.99,139.44 72.99,139.44 72.63,140.37 72.04,141.18 71.28,141.82 70.39,142.25 69.76,142.40 69.14,142.46 68.51,142.41 67.89,142.25 66.98,141.83 66.22,141.20 65.64,140.39 65.29,139.44 65.18,139.44 65.18,139.44 65.24,140.09 65.39,140.71 65.63,141.28 65.96,141.81 66.83,142.68 67.36,143.00 67.94,143.24 68.57,143.38 69.19,143.45 69.81,143.40 70.44,143.24 71.02,143.00 71.55,142.68 72.42,141.81 72.75,141.28 72.99,140.71 73.14,140.09 73.20,139.44 72.99,139.44 72.99,139.44" fill="#4285f4" stroke="none" stroke-width="1" opacity="1.0" stroke-linecap="round" stroke-linejoin="round"/><polyline points="67.89,157.45 70.39,157.45 70.39,159.73 67.89,159.73 67.89,157.45" fill="#4285f4" stroke="none" stroke-width="1" opacity="1.0" stroke-linecap="round" stroke-linejoin="round"/><polyline points="67.89,145.48 70.39,145.48 70.39,147.77 67.89,147.77 67.89,145.48" fill="#4285f4" stroke="none" stroke-width="1" opacity="1.0" stroke-linecap="round" stroke-linejoin="round"/><polyline points="69.14,134.50 69.14,134.50 68.34,134.58 67.59,134.81 66.91,135.18 66.32,135.66 65.82,136.25 65.45,136.94 65.21,137.69 65.13,138.51 65.24,139.49 65.60,140.42 66.19,141.23 66.95,141.87 67.84,142.30 68.46,142.45 69.09,142.51 69.71,142.47 70.33,142.30 71.25,141.88 72.01,141.25 72.58,140.45 72.94,139.49 73.03,139.02 73.04,138.51 72.98,137.69 72.76,136.94 72.40,136.25 71.93,135.66 71.35,135.18 70.68,134.81 69.94,134.58 69.14,134.50 69.14,134.50" fill="#aecbfa" stroke="none" stroke-width="1" opacity="1.0" stroke-linecap="round" stroke-linejoin="round"/><polyline points="76.11,146.73 61.39,146.73 61.39,146.73 60.71,146.93 60.19,147.36 59.89,147.95 59.82,148.65 59.97,149.24 60.31,149.73 60.80,150.06 61.39,150.21 66.12,150.21 66.12,152.71 61.39,152.71 61.39,152.71 60.54,152.57 59.76,152.27 59.06,151.84 58.46,151.29 57.98,150.64 57.63,149.90 57.42,149.09 57.38,148.24 57.49,147.46 57.74,146.73 58.12,146.07 58.60,145.49 59.18,145.00 59.85,144.62 60.59,144.36 61.39,144.23 76.11,144.23 76.11,142.46 81.11,145.48 76.11,148.50 76.11,146.73 76.11,146.73" fill="#669df6" stroke="none" stroke-width="1" opacity="1.0" stroke-linecap="round" stroke-linejoin="round"/><polyline points="69.14,142.46 69.14,142.46 69.94,142.38 70.69,142.15 71.37,141.78 71.96,141.30 72.45,140.70 72.83,140.02 73.06,139.27 73.14,138.45 65.13,138.45 65.13,138.45 65.21,139.27 65.44,140.02 65.81,140.70 66.30,141.30 66.89,141.78 67.57,142.15 68.32,142.38 69.14,142.46 69.14,142.46" fill="#669df6" stroke="none" stroke-width="1" opacity="1.0" stroke-linecap="round" stroke-linejoin="round"/><polyline points="71.17,156.20 72.10,156.20 72.10,156.20 72.78,155.99 73.29,155.57 73.60,154.97 73.66,154.27 73.52,153.68 73.18,153.20 72.69,152.86 72.10,152.71 70.33,152.71 70.33,150.21 72.10,150.21 72.10,150.21 72.95,150.35 73.73,150.65 74.43,151.08 75.02,151.63 75.51,152.28 75.86,153.02 76.06,153.83 76.11,154.69 76.00,155.47 75.75,156.19 75.37,156.85 74.89,157.43 74.30,157.92 73.64,158.30 72.90,158.56 72.10,158.69 66.12,158.69 66.12,160.41 61.12,157.39 66.12,154.38 66.12,156.14 71.17,156.14 71.17,156.20" fill="#669df6" stroke="none" stroke-width="1" opacity="1.0" stroke-linecap="round" stroke-linejoin="round"/></svg>