<svg xmlns="http://www.w3.org/2000/svg" viewBox="261.80 657.57 172.00 84.00" width="172" height="84"><rect x="267.80" y="663.57" width="160.00" height="72.00" rx="0" stroke="#4285f4" stroke-width="2" opacity="1.0" fill="#FFF"/><text x="332.80" y="690.57" font-size="12" fill="#000000" opacity="1.0" font-family="sans-serif">Cloud
Deployment
Manager</text><polyline points="297.29,706.26 303.14,706.26 303.14,712.11 297.29,712.11 297.29,706.26" fill="none" stroke="#00000000" stroke-width="1" opacity="1.0" stroke-linecap="round" stroke-linejoin="round"/><polyline points="314.83,687.35 314.83,687.35 314.79,687.21 314.75,687.08 314.70,686.95 314.64,686.83 314.58,686.71 314.50,686.59 314.41,686.49 314.32,686.39 314.22,686.30 314.12,686.21 314.01,686.13 313.89,686.07 313.76,686.01 313.63,685.96 313.50,685.92 313.36,685.88 287.07,685.88 287.07,685.88 286.93,685.92 286.80,685.96 286.67,686.01 286.54,686.07 286.43,686.13 286.31,686.21 286.21,686.29 286.11,686.39 286.02,686.49 285.93,686.59 285.85,686.70 285.79,686.82 285.73,686.95 285.68,687.08 285.64,687.21 285.60,687.35 285.60,706.27 285.60,706.27 285.63,706.41 285.67,706.54 285.72,706.67 285.78,706.80 285.84,706.92 285.92,707.03 286.00,707.14 286.10,707.24 286.19,707.33 286.30,707.42 286.42,707.49 286.54,707.56 286.66,707.62 286.79,707.67 286.93,707.70 287.07,707.73 313.36,707.73 313.36,707.73 313.50,707.70 313.64,707.67 313.77,707.62 313.89,707.56 314.01,707.49 314.13,707.42 314.23,707.33 314.33,707.24 314.43,707.14 314.51,707.03 314.59,706.92 314.65,706.80 314.71,706.68 314.76,706.54 314.80,706.41 314.83,706.27 314.83,687.35 314.83,687.35" fill="none" stroke="transparent" stroke-width="1" opacity="1.0" stroke-linecap="round" stroke-linejoin="round"/><polyline points="311.90,704.81 288.53,704.81 288.53,688.73 311.90,688.73 311.90,704.81 311.90,704.81" fill="none" stroke="transparent" stroke-width="1" opacity="1.0" stroke-linecap="round" stroke-linejoin="round"/><polyline points="294.37,713.57 294.37,713.57 294.38,713.39 294.39,713.22 294.42,713.06 294.46,712.91 294.51,712.78 294.57,712.66 294.64,712.55 294.73,712.46 294.82,712.37 294.93,712.30 295.05,712.24 295.18,712.19 295.33,712.15 295.48,712.13 295.65,712.11 295.84,712.11 304.60,712.11 304.60,712.11 304.78,712.11 304.95,712.13 305.11,712.15 305.25,712.19 305.39,712.24 305.51,712.30 305.61,712.37 305.71,712.46 305.79,712.55 305.87,712.66 305.93,712.78 305.98,712.91 306.01,713.06 306.04,713.22 306.06,713.39 306.06,713.57 294.37,713.57 294.37,713.57" fill="none" stroke="transparent" stroke-width="1" opacity="1.0" stroke-linecap="round" stroke-linejoin="round"/><polyline points="311.90,704.81 288.53,704.81 288.53,688.73 311.90,688.73 311.90,704.81 311.90,704.81" fill="none" stroke="transparent" stroke-width="1" opacity="1.0" stroke-linecap="round" stroke-linejoin="round"/><polyline points="310.44,697.26 304.10,690.94 302.63,692.42 310.44,700.20 310.44,697.26" fill="none" stroke="transparent" stroke-width="1" opacity="1.0" stroke-linecap="round" stroke-linejoin="round"/><polyline points="305.58,695.35 302.63,692.42 304.10,690.94 305.58,692.42 305.58,695.35" fill="none" stroke="transparent" stroke-width="1" opacity="1.0" stroke-linecap="round" stroke-linejoin="round"/><polyline points="298.67,699.31 297.19,697.84 304.10,690.94 305.58,692.42 298.67,699.31" fill="none" stroke="transparent" stroke-width="1" opacity="1.0" stroke-linecap="round" stroke-linejoin="round"/><polyline points="298.67,699.31 294.49,695.15 295.98,693.67 300.14,697.84 298.67,699.31" fill="none" stroke="transparent" stroke-width="1" opacity="1.0" stroke-linecap="round" stroke-linejoin="round"/><polyline points="297.41,698.05 294.49,695.15 295.98,693.67 297.41,695.10 297.41,698.05" fill="none" stroke="transparent" stroke-width="1" opacity="1.0" stroke-linecap="round" stroke-linejoin="round"/><polyline points="290.63,701.87 297.41,695.10 295.94,693.63 289.99,699.56 289.99,701.87 290.63,701.87" fill="none" stroke="transparent" stroke-width="1" opacity="1.0" stroke-linecap="round" stroke-linejoin="round"/></svg>