<svg xmlns="http://www.w3.org/2000/svg" viewBox="14.31 790.89 172.00 84.00" width="172" height="84"><rect x="20.31" y="796.89" width="160.00" height="72.00" rx="0" stroke="#4285f4" stroke-width="2" opacity="1.0" fill="#FFF"/><text x="85.31" y="837.89" font-size="12" fill="#000000" opacity="1.0" font-family="sans-serif">Data Catalog</text><polyline points="40.56,829.38 43.73,823.73 47.81,823.73 47.81,826.22 45.16,826.22 43.40,829.34 44.48,831.16 42.36,832.40 40.56,829.38 40.56,829.38" fill="#4285f4" stroke="none" stroke-width="1" opacity="1.0" stroke-linecap="round" stroke-linejoin="round"/><polyline points="56.15,834.32 59.48,832.40 62.81,834.32 62.81,838.17 59.48,840.09 56.15,838.17 56.15,834.32 56.15,834.32" fill="#aecbfa" stroke="none" stroke-width="1" opacity="1.0" stroke-linecap="round" stroke-linejoin="round"/><polyline points="42.81,834.32 46.15,832.40 49.48,834.32 49.48,838.17 46.15,840.09 42.81,838.17 42.81,834.32 42.81,834.32" fill="#aecbfa" stroke="none" stroke-width="1" opacity="1.0" stroke-linecap="round" stroke-linejoin="round"/><polyline points="49.48,823.01 52.81,821.09 56.15,823.01 56.15,826.85 52.81,828.78 49.48,826.85 49.48,823.01 49.48,823.01" fill="#aecbfa" stroke="none" stroke-width="1" opacity="1.0" stroke-linecap="round" stroke-linejoin="round"/><polyline points="59.48,832.40 62.81,834.32 62.81,838.17 59.48,840.09 59.48,832.40 59.48,832.40" fill="#4285f4" stroke="none" stroke-width="1" opacity="1.0" stroke-linecap="round" stroke-linejoin="round"/><polyline points="46.15,832.40 49.48,834.32 49.48,838.17 46.15,840.09 46.15,832.40 46.15,832.40" fill="#4285f4" stroke="none" stroke-width="1" opacity="1.0" stroke-linecap="round" stroke-linejoin="round"/><polyline points="52.81,821.09 56.15,823.01 56.15,826.85 52.81,828.78 52.81,821.09 52.81,821.09" fill="#4285f4" stroke="none" stroke-width="1" opacity="1.0" stroke-linecap="round" stroke-linejoin="round"/><polyline points="61.15,831.16 62.23,829.36 60.47,826.22 57.81,826.22 57.81,823.73 61.89,823.73 65.07,829.38 63.27,832.40 61.15,831.16 61.15,831.16" fill="#4285f4" stroke="none" stroke-width="1" opacity="1.0" stroke-linecap="round" stroke-linejoin="round"/><polyline points="49.63,844.56 47.65,841.28 49.79,840.04 51.03,842.06 54.56,842.06 55.81,840.04 57.95,841.26 55.96,844.56 49.63,844.56 49.63,844.56" fill="#4285f4" stroke="none" stroke-width="1" opacity="1.0" stroke-linecap="round" stroke-linejoin="round"/></svg>