<svg xmlns="http://www.w3.org/2000/svg" viewBox="1044.06 -455.66 246.12 260.81" width="246" height="261"><polyline points="1192.00,-278.01 1192.00,-278.01 1188.97,-276.03 1185.95,-274.25 1182.92,-272.67 1179.91,-271.26 1176.91,-270.02 1173.93,-268.95 1170.97,-268.03 1168.05,-267.25 1165.17,-266.61 1162.34,-266.10 1159.56,-265.71 1156.83,-265.43 1154.17,-265.26 1151.58,-265.17 1149.07,-265.17 1146.64,-265.25 1144.30,-265.40 1142.06,-265.60 1139.92,-265.85 1137.88,-266.15 1135.96,-266.48 1134.16,-266.83 1132.48,-267.20 1130.94,-267.58 1129.54,-267.95 1128.28,-268.31 1127.17,-268.66 1126.23,-268.98 1125.44,-269.26 1124.82,-269.50 1124.38,-269.68 1124.13,-269.80 1119.53,-257.93 1119.53,-257.93 1119.84,-257.71 1120.42,-257.43 1121.26,-257.08 1122.34,-256.68 1123.66,-256.25 1125.20,-255.79 1126.96,-255.32 1128.92,-254.84 1131.07,-254.38 1133.41,-253.94 1135.92,-253.54 1138.59,-253.18 1141.40,-252.88 1144.36,-252.65 1147.45,-252.51 1150.66,-252.46 1153.45,-252.50 1156.31,-252.62 1159.24,-252.83 1162.21,-253.14 1165.23,-253.55 1168.29,-254.08 1171.38,-254.72 1174.49,-255.48 1177.61,-256.38 1180.74,-257.41 1183.86,-258.59 1186.98,-259.93 1190.07,-261.42 1193.14,-263.07 1196.18,-264.90 1199.17,-266.91 1197.96,-268.04 1196.82,-269.25 1195.78,-270.55 1194.83,-271.92 1193.97,-273.35 1193.21,-274.85 1192.55,-276.40 1192.00,-278.01 1192.00,-278.01" fill="none" stroke="#000000" stroke-width="1" opacity="1.0" stroke-linecap="round" stroke-linejoin="round"/><polyline points="1234.73,-301.03 1234.73,-301.03 1236.46,-304.08 1238.05,-307.11 1239.52,-310.11 1240.87,-313.09 1242.10,-316.05 1243.22,-318.97 1244.23,-321.87 1245.13,-324.74 1245.93,-327.57 1246.63,-330.38 1247.75,-335.88 1248.52,-341.25 1248.97,-346.45 1249.14,-351.50 1249.06,-356.37 1248.75,-361.05 1248.24,-365.54 1247.57,-369.83 1246.78,-373.91 1245.87,-377.77 1244.90,-381.39 1232.10,-377.72 1232.10,-377.72 1233.06,-374.48 1233.94,-371.05 1234.72,-367.43 1235.36,-363.64 1235.85,-359.69 1236.17,-355.59 1236.29,-351.35 1236.19,-346.97 1235.84,-342.47 1235.23,-337.86 1234.33,-333.14 1233.11,-328.33 1231.56,-323.44 1229.65,-318.47 1228.56,-315.96 1227.36,-313.44 1226.07,-310.90 1224.67,-308.36 1226.12,-307.73 1227.52,-307.01 1228.87,-306.21 1230.17,-305.33 1231.40,-304.37 1232.58,-303.33 1233.69,-302.21 1234.73,-301.03 1234.73,-301.03" fill="none" stroke="#000000" stroke-width="1" opacity="1.0" stroke-linecap="round" stroke-linejoin="round"/><polyline points="1076.49,-394.34 1076.49,-394.34 1074.77,-394.90 1073.12,-395.57 1071.54,-396.34 1070.03,-397.22 1068.60,-398.19 1067.25,-399.26 1065.99,-400.42 1064.82,-401.67 1062.53,-398.15 1060.47,-394.60 1058.63,-391.05 1057.00,-387.51 1055.58,-383.97 1054.34,-380.45 1053.28,-376.95 1052.39,-373.49 1051.67,-370.07 1051.09,-366.70 1050.65,-363.39 1050.34,-360.14 1050.15,-356.96 1050.06,-353.87 1050.08,-350.86 1050.18,-347.95 1050.36,-345.14 1050.61,-342.45 1050.92,-339.88 1051.27,-337.44 1051.66,-335.13 1052.08,-332.97 1052.51,-330.96 1052.95,-329.11 1053.39,-327.43 1053.81,-325.93 1054.21,-324.61 1054.57,-323.48 1054.89,-322.55 1055.16,-321.83 1055.36,-321.33 1055.48,-321.05 1068.28,-325.65 1068.28,-325.65 1068.24,-325.75 1068.13,-326.05 1067.96,-326.56 1067.73,-327.26 1067.46,-328.14 1067.15,-329.20 1066.81,-330.43 1066.46,-331.81 1066.10,-333.36 1065.74,-335.05 1065.40,-336.88 1065.07,-338.84 1064.76,-340.93 1064.50,-343.13 1064.28,-345.44 1064.12,-347.86 1064.02,-350.37 1064.00,-352.97 1064.05,-355.64 1064.20,-358.40 1064.46,-361.21 1064.82,-364.08 1065.30,-367.01 1065.91,-369.97 1066.65,-372.97 1067.54,-376.00 1068.59,-379.05 1069.81,-382.11 1071.19,-385.18 1072.76,-388.25 1074.52,-391.30 1076.49,-394.34 1076.49,-394.34" fill="none" stroke="#000000" stroke-width="1" opacity="1.0" stroke-linecap="round" stroke-linejoin="round"/><polyline points="1107.04,-425.62 1107.04,-425.62 1109.62,-426.99 1112.18,-428.25 1117.27,-430.48 1122.29,-432.33 1127.24,-433.83 1132.10,-434.99 1136.87,-435.84 1141.53,-436.40 1146.07,-436.68 1150.50,-436.71 1154.78,-436.52 1158.93,-436.11 1162.92,-435.52 1166.74,-434.77 1170.39,-433.86 1173.86,-432.84 1177.13,-431.71 1181.73,-444.51 1181.73,-444.51 1177.89,-445.67 1173.83,-446.73 1169.56,-447.67 1165.09,-448.46 1160.43,-449.07 1155.59,-449.48 1150.58,-449.66 1145.42,-449.57 1140.10,-449.19 1134.65,-448.50 1129.08,-447.45 1126.25,-446.79 1123.39,-446.04 1120.50,-445.18 1117.59,-444.22 1114.65,-443.14 1111.69,-441.96 1108.71,-440.67 1105.71,-439.25 1102.70,-437.71 1099.66,-436.05 1100.88,-435.00 1102.02,-433.87 1103.08,-432.66 1104.05,-431.38 1104.93,-430.03 1105.73,-428.62 1106.43,-427.15 1107.04,-425.62 1107.04,-425.62" fill="none" stroke="#000000" stroke-width="1" opacity="1.0" stroke-linecap="round" stroke-linejoin="round"/><polyline points="1105.80,-294.73 1136.41,-325.13 1136.41,-325.13 1134.78,-326.03 1133.21,-327.03 1131.72,-328.13 1130.29,-329.31 1128.95,-330.58 1127.69,-331.94 1126.51,-333.37 1125.42,-334.88 1096.46,-306.08 1096.46,-306.08 1097.97,-305.00 1099.39,-303.82 1100.73,-302.53 1101.96,-301.14 1103.10,-299.66 1104.12,-298.10 1105.02,-296.45 1105.80,-294.73 1105.80,-294.73" fill="none" stroke="#000000" stroke-width="1" opacity="1.0" stroke-linecap="round" stroke-linejoin="round"/><polyline points="1175.89,-364.41 1206.66,-394.96 1206.66,-394.96 1204.91,-395.71 1203.25,-396.58 1201.66,-397.58 1200.17,-398.69 1198.76,-399.91 1197.45,-401.23 1196.25,-402.64 1195.15,-404.15 1166.24,-375.45 1166.24,-375.45 1167.74,-374.35 1169.15,-373.15 1170.49,-371.88 1171.75,-370.53 1172.92,-369.10 1174.00,-367.61 1175.00,-366.04 1175.89,-364.41 1175.89,-364.41" fill="none" stroke="#000000" stroke-width="1" opacity="1.0" stroke-linecap="round" stroke-linejoin="round"/><polyline points="1107.04,-425.62 1107.04,-425.62 1106.43,-427.14 1105.72,-428.61 1104.92,-430.02 1104.03,-431.36 1103.05,-432.65 1102.00,-433.87 1100.87,-435.02 1099.66,-436.10 1098.00,-437.37 1096.23,-438.50 1094.36,-439.48 1092.40,-440.30 1090.35,-440.96 1088.24,-441.43 1086.05,-441.73 1083.82,-441.83 1081.28,-441.70 1078.81,-441.33 1076.44,-440.72 1074.16,-439.90 1072.00,-438.86 1069.96,-437.63 1068.06,-436.21 1066.31,-434.62 1064.71,-432.86 1063.29,-430.96 1062.06,-428.92 1061.02,-426.76 1060.20,-424.49 1059.59,-422.11 1059.22,-419.65 1059.09,-417.11 1059.19,-414.88 1059.48,-412.72 1059.95,-410.64 1060.60,-408.65 1061.41,-406.76 1062.38,-404.96 1063.50,-403.26 1064.77,-401.67 1065.96,-400.42 1067.23,-399.25 1068.59,-398.17 1070.03,-397.20 1071.54,-396.32 1073.12,-395.55 1074.77,-394.89 1076.49,-394.34 1078.26,-393.90 1080.08,-393.58 1081.95,-393.38 1083.87,-393.31 1086.25,-393.43 1088.60,-393.77 1090.90,-394.33 1093.13,-395.10 1095.27,-396.07 1097.31,-397.22 1099.24,-398.56 1101.03,-400.06 1102.67,-401.73 1104.14,-403.54 1105.43,-405.50 1106.53,-407.60 1107.41,-409.81 1108.05,-412.14 1108.45,-414.58 1108.59,-417.11 1108.46,-419.33 1108.16,-421.50 1107.69,-423.60 1107.04,-425.62 1107.04,-425.62" fill="none" stroke="#000000" stroke-width="1" opacity="1.0" stroke-linecap="round" stroke-linejoin="round"/><polyline points="1215.59,-442.71 1215.59,-442.71 1213.05,-442.58 1210.58,-442.21 1208.21,-441.60 1205.93,-440.77 1203.77,-439.74 1201.73,-438.50 1199.83,-437.08 1198.08,-435.49 1196.48,-433.74 1195.07,-431.84 1193.83,-429.80 1192.79,-427.64 1191.97,-425.36 1191.36,-422.99 1190.99,-420.52 1190.86,-417.98 1190.93,-416.07 1191.15,-414.20 1191.49,-412.37 1191.97,-410.60 1192.58,-408.88 1193.30,-407.22 1194.14,-405.62 1195.09,-404.10 1196.20,-402.59 1197.41,-401.18 1198.72,-399.87 1200.13,-398.65 1201.63,-397.55 1203.22,-396.55 1204.88,-395.67 1206.60,-394.91 1208.73,-394.20 1210.93,-393.68 1213.20,-393.37 1215.53,-393.26 1218.07,-393.39 1220.54,-393.76 1222.91,-394.37 1225.19,-395.19 1227.35,-396.23 1229.39,-397.46 1231.29,-398.88 1233.04,-400.47 1234.64,-402.23 1236.05,-404.13 1237.29,-406.17 1238.32,-408.33 1239.15,-410.60 1239.76,-412.98 1240.13,-415.44 1240.26,-417.98 1240.14,-420.52 1239.77,-422.99 1239.18,-425.36 1238.35,-427.64 1237.32,-429.80 1236.09,-431.84 1234.68,-433.74 1233.09,-435.49 1231.34,-437.08 1229.44,-438.50 1227.40,-439.74 1225.24,-440.77 1222.97,-441.60 1220.59,-442.21 1218.13,-442.58 1215.59,-442.71 1215.59,-442.71" fill="none" stroke="#000000" stroke-width="1" opacity="1.0" stroke-linecap="round" stroke-linejoin="round"/><polyline points="1234.73,-301.03 1234.73,-301.03 1233.71,-302.21 1232.60,-303.33 1231.42,-304.37 1230.18,-305.33 1228.87,-306.21 1227.51,-307.01 1226.09,-307.73 1224.62,-308.36 1222.48,-309.08 1220.26,-309.61 1217.96,-309.94 1215.59,-310.06 1213.05,-309.93 1210.58,-309.56 1208.21,-308.95 1205.93,-308.13 1203.77,-307.09 1201.73,-305.86 1199.83,-304.44 1198.08,-302.85 1196.48,-301.09 1195.07,-299.19 1193.83,-297.15 1192.79,-294.99 1191.97,-292.72 1191.36,-290.34 1190.99,-287.88 1190.86,-285.34 1190.93,-283.43 1191.13,-281.57 1191.47,-279.77 1191.95,-278.01 1192.50,-276.39 1193.17,-274.83 1193.94,-273.33 1194.80,-271.89 1195.75,-270.52 1196.80,-269.22 1197.92,-268.00 1199.12,-266.86 1200.81,-265.48 1202.63,-264.25 1204.56,-263.18 1206.60,-262.28 1208.73,-261.57 1210.94,-261.04 1213.23,-260.72 1215.59,-260.61 1218.13,-260.74 1220.59,-261.11 1222.97,-261.72 1225.24,-262.54 1227.40,-263.58 1229.44,-264.81 1231.34,-266.23 1233.10,-267.83 1234.69,-269.58 1236.11,-271.48 1237.34,-273.52 1238.38,-275.68 1239.20,-277.96 1239.81,-280.33 1240.18,-282.80 1240.31,-285.34 1240.21,-287.56 1239.92,-289.72 1239.46,-291.82 1238.82,-293.84 1238.02,-295.78 1237.06,-297.63 1235.97,-299.38 1234.73,-301.03 1234.73,-301.03" fill="none" stroke="#000000" stroke-width="1" opacity="1.0" stroke-linecap="round" stroke-linejoin="round"/><polyline points="1105.80,-294.73 1105.80,-294.73 1105.02,-296.45 1104.12,-298.10 1103.09,-299.66 1101.96,-301.14 1100.72,-302.52 1099.37,-303.79 1097.93,-304.97 1096.41,-306.03 1094.92,-306.93 1093.37,-307.72 1091.75,-308.40 1090.07,-308.97 1088.34,-309.42 1086.57,-309.74 1084.75,-309.94 1082.89,-310.01 1080.35,-309.88 1077.88,-309.51 1075.51,-308.90 1073.23,-308.07 1071.07,-307.04 1069.03,-305.80 1067.13,-304.39 1065.38,-302.79 1063.78,-301.04 1062.37,-299.14 1061.13,-297.10 1060.10,-294.94 1059.27,-292.66 1058.66,-290.29 1058.29,-287.82 1058.16,-285.28 1058.29,-282.74 1058.66,-280.28 1059.27,-277.90 1060.10,-275.63 1061.13,-273.47 1062.37,-271.43 1063.78,-269.53 1065.38,-267.77 1067.13,-266.18 1069.03,-264.76 1071.07,-263.53 1073.23,-262.49 1075.51,-261.67 1077.88,-261.06 1080.35,-260.69 1082.89,-260.56 1085.26,-260.69 1087.59,-261.06 1089.84,-261.67 1092.02,-262.49 1094.11,-263.53 1096.09,-264.76 1097.96,-266.18 1099.70,-267.77 1101.30,-269.53 1102.75,-271.43 1104.04,-273.47 1105.15,-275.63 1106.08,-277.90 1106.81,-280.28 1107.32,-282.74 1107.61,-285.28 1107.52,-287.79 1107.17,-290.20 1106.59,-292.51 1105.80,-294.73 1105.80,-294.73" fill="none" stroke="#000000" stroke-width="1" opacity="1.0" stroke-linecap="round" stroke-linejoin="round"/><polyline points="1175.89,-364.41 1175.89,-364.41 1175.01,-366.04 1174.02,-367.61 1172.94,-369.12 1171.77,-370.55 1170.50,-371.90 1169.16,-373.18 1167.74,-374.36 1166.24,-375.45 1164.44,-376.59 1162.55,-377.59 1160.58,-378.46 1158.53,-379.18 1156.43,-379.75 1154.26,-380.17 1152.04,-380.43 1149.78,-380.51 1146.79,-380.36 1143.88,-379.92 1141.08,-379.20 1138.39,-378.21 1135.83,-376.98 1133.42,-375.51 1131.17,-373.83 1129.09,-371.94 1127.20,-369.86 1125.51,-367.61 1124.05,-365.19 1122.81,-362.63 1121.83,-359.95 1121.11,-357.14 1120.66,-354.24 1120.51,-351.25 1120.60,-349.00 1120.85,-346.80 1121.26,-344.66 1121.83,-342.57 1122.54,-340.55 1123.39,-338.60 1124.37,-336.72 1125.47,-334.94 1126.56,-333.42 1127.74,-331.99 1129.00,-330.63 1130.35,-329.36 1131.77,-328.18 1133.26,-327.08 1134.83,-326.08 1136.46,-325.18 1137.98,-324.45 1139.54,-323.81 1141.16,-323.26 1142.81,-322.81 1144.50,-322.45 1146.23,-322.19 1147.99,-322.03 1149.78,-321.98 1152.77,-322.13 1155.67,-322.58 1158.48,-323.30 1161.17,-324.28 1163.72,-325.51 1166.14,-326.98 1168.39,-328.67 1170.47,-330.56 1172.36,-332.63 1174.04,-334.89 1175.51,-337.30 1176.74,-339.86 1177.73,-342.55 1178.45,-345.35 1178.89,-348.26 1179.04,-351.25 1178.97,-353.00 1178.81,-354.73 1178.18,-358.10 1177.21,-361.34 1175.89,-364.41 1175.89,-364.41" fill="none" stroke="#000000" stroke-width="1" opacity="1.0" stroke-linecap="round" stroke-linejoin="round"/><polyline points="1083.87,-428.05 1083.87,-428.05 1084.89,-427.99 1085.91,-427.84 1086.91,-427.58 1087.89,-427.23 1089.75,-426.26 1091.42,-424.95 1092.16,-424.18 1092.82,-423.35 1093.41,-422.44 1093.91,-421.47 1094.32,-420.45 1094.61,-419.36 1094.80,-418.23 1094.86,-417.05 1094.81,-415.88 1094.65,-414.74 1094.39,-413.66 1094.04,-412.64 1093.60,-411.67 1093.07,-410.76 1092.46,-409.92 1091.76,-409.16 1091.00,-408.46 1090.16,-407.85 1089.25,-407.32 1088.28,-406.88 1087.26,-406.53 1086.18,-406.27 1085.05,-406.11 1083.87,-406.06 1082.68,-406.11 1081.52,-406.27 1080.39,-406.53 1079.31,-406.88 1078.28,-407.32 1077.30,-407.85 1076.38,-408.46 1075.53,-409.16 1074.76,-409.92 1074.06,-410.76 1073.46,-411.67 1072.95,-412.64 1072.54,-413.66 1072.24,-414.74 1072.06,-415.88 1072.00,-417.05 1072.05,-418.24 1072.23,-419.38 1072.52,-420.46 1072.93,-421.49 1073.44,-422.46 1074.04,-423.37 1074.74,-424.20 1075.51,-424.97 1076.36,-425.66 1077.28,-426.27 1078.27,-426.80 1079.30,-427.24 1080.39,-427.59 1081.52,-427.84 1082.68,-428.00 1083.87,-428.05 1083.87,-428.05" fill="none" stroke="#000000" stroke-width="1" opacity="1.0" stroke-linecap="round" stroke-linejoin="round"/><polyline points="1226.58,-285.34 1226.58,-285.34 1226.53,-284.16 1226.37,-283.03 1226.11,-281.94 1225.76,-280.92 1225.32,-279.95 1224.79,-279.04 1224.18,-278.21 1223.48,-277.44 1222.72,-276.75 1221.88,-276.13 1220.97,-275.60 1220.00,-275.16 1218.98,-274.81 1217.90,-274.55 1216.76,-274.39 1215.59,-274.34 1214.41,-274.39 1213.28,-274.55 1212.19,-274.81 1211.17,-275.16 1210.20,-275.60 1209.29,-276.13 1208.46,-276.75 1207.69,-277.44 1207.00,-278.21 1206.38,-279.04 1205.85,-279.95 1205.41,-280.92 1205.06,-281.94 1204.80,-283.03 1204.65,-284.16 1204.59,-285.34 1204.65,-286.51 1204.80,-287.65 1205.06,-288.73 1205.41,-289.75 1205.85,-290.72 1206.38,-291.63 1207.00,-292.46 1207.69,-293.23 1208.46,-293.92 1209.29,-294.54 1210.20,-295.07 1211.17,-295.51 1212.19,-295.86 1213.28,-296.12 1214.41,-296.28 1215.59,-296.33 1216.77,-296.27 1217.93,-296.08 1219.06,-295.79 1220.13,-295.39 1221.16,-294.89 1222.12,-294.31 1223.02,-293.64 1223.83,-292.90 1224.56,-292.10 1225.20,-291.24 1225.73,-290.33 1226.15,-289.38 1226.46,-288.40 1226.64,-287.39 1226.68,-286.37 1226.58,-285.34 1226.58,-285.34" fill="none" stroke="#000000" stroke-width="1" opacity="1.0" stroke-linecap="round" stroke-linejoin="round"/><ellipse cx="1082.94" cy="-285.34" rx="10.99" ry="10.99" stroke="#000000" stroke-width="1" opacity="1.0" fill="#fff"/><polyline points="1215.59,-296.33 1215.59,-296.33 1214.41,-296.28 1213.28,-296.12 1212.19,-295.86 1211.17,-295.51 1210.20,-295.07 1209.29,-294.54 1208.46,-293.92 1207.69,-293.23 1207.00,-292.46 1206.38,-291.63 1205.85,-290.72 1205.41,-289.75 1205.06,-288.73 1204.80,-287.65 1204.65,-286.51 1204.59,-285.34 1204.65,-284.16 1204.80,-283.03 1205.06,-281.94 1205.41,-280.92 1205.85,-279.95 1206.38,-279.04 1207.00,-278.21 1207.69,-277.44 1208.46,-276.75 1209.29,-276.13 1210.20,-275.60 1211.17,-275.16 1212.19,-274.81 1213.28,-274.55 1214.41,-274.39 1215.59,-274.34 1216.76,-274.39 1217.90,-274.55 1218.98,-274.81 1220.00,-275.16 1220.97,-275.60 1221.88,-276.13 1222.72,-276.75 1223.48,-277.44 1224.18,-278.21 1224.79,-279.04 1225.32,-279.95 1225.76,-280.92 1226.11,-281.94 1226.37,-283.03 1226.53,-284.16 1226.58,-285.34 1226.68,-286.37 1226.64,-287.39 1226.46,-288.40 1226.15,-289.38 1225.73,-290.33 1225.20,-291.24 1224.56,-292.10 1223.83,-292.90 1223.02,-293.64 1222.12,-294.31 1221.16,-294.89 1220.13,-295.39 1219.06,-295.79 1217.93,-296.08 1216.77,-296.27 1215.59,-296.33 1215.59,-296.33" fill="none" stroke="#000000" stroke-width="1" opacity="1.0" stroke-linecap="round" stroke-linejoin="round"/><polyline points="1083.87,-406.11 1083.87,-406.11 1085.05,-406.17 1086.18,-406.32 1087.26,-406.58 1088.28,-406.93 1089.25,-407.37 1090.16,-407.90 1091.00,-408.52 1091.76,-409.21 1092.46,-409.98 1093.07,-410.81 1093.60,-411.72 1094.04,-412.69 1094.39,-413.71 1094.65,-414.80 1094.81,-415.93 1094.86,-417.11 1094.80,-418.28 1094.61,-419.42 1094.32,-420.50 1093.92,-421.52 1093.42,-422.49 1092.84,-423.40 1092.17,-424.24 1091.43,-425.00 1090.63,-425.70 1089.77,-426.31 1087.91,-427.28 1086.93,-427.63 1085.93,-427.89 1084.90,-428.05 1083.87,-428.10 1082.68,-428.05 1081.52,-427.89 1080.39,-427.63 1079.31,-427.28 1078.28,-426.84 1077.30,-426.31 1076.38,-425.70 1075.53,-425.00 1074.76,-424.24 1074.06,-423.40 1073.46,-422.49 1072.95,-421.52 1072.54,-420.50 1072.24,-419.42 1072.06,-418.28 1072.00,-417.11 1072.05,-415.93 1072.23,-414.80 1072.52,-413.71 1072.93,-412.69 1073.44,-411.72 1074.04,-410.81 1074.74,-409.98 1075.51,-409.21 1076.36,-408.52 1077.28,-407.90 1078.27,-407.37 1079.30,-406.93 1080.39,-406.58 1081.52,-406.32 1082.68,-406.17 1083.87,-406.11 1083.87,-406.11" fill="none" stroke="#000000" stroke-width="1" opacity="1.0" stroke-linecap="round" stroke-linejoin="round"/><ellipse cx="1085.53" cy="-285.34" rx="10.99" ry="10.99" stroke="#000000" stroke-width="1" opacity="1.0" fill="#fff"/><text x="1078.10" y="-206.91" font-size="35.93495934959351" fill="#000000" opacity="1.0" font-family="sans-serif">Eventarc</text></svg>