<svg xmlns="http://www.w3.org/2000/svg" viewBox="31.14 232.51 172.00 84.00" width="172" height="84"><rect x="37.14" y="238.51" width="160.00" height="72.00" rx="0" stroke="#4285f4" stroke-width="2" opacity="1.0" fill="#FFF"/><text x="102.14" y="279.51" font-size="12" fill="#000000" opacity="1.0" font-family="sans-serif">Cloud IAM</text><polyline points="69.48,259.71 57.65,264.64 57.65,272.76 57.65,272.76 57.66,273.44 57.71,274.12 57.78,274.79 57.88,275.46 58.00,276.12 58.16,276.78 58.34,277.43 58.54,278.07 58.77,278.70 59.02,279.32 59.30,279.93 59.60,280.52 59.92,281.11 60.27,281.68 60.63,282.23 61.02,282.77 61.42,283.30 61.85,283.80 62.29,284.29 62.75,284.76 63.23,285.21 63.73,285.64 64.24,286.05 64.77,286.43 65.31,286.80 65.87,287.13 66.44,287.45 67.03,287.74 67.62,288.00 68.23,288.23 68.85,288.44 69.48,288.62 70.12,288.45 70.74,288.24 71.35,288.02 71.94,287.76 72.53,287.48 73.10,287.17 73.66,286.83 74.20,286.47 74.73,286.09 75.24,285.69 75.73,285.26 76.21,284.81 76.68,284.35 77.12,283.86 77.54,283.36 77.95,282.83 78.34,282.30 78.70,281.74 79.04,281.17 79.37,280.59 79.67,279.99 79.94,279.39 80.20,278.77 80.43,278.14 80.63,277.50 80.81,276.85 80.97,276.19 81.09,275.53 81.19,274.86 81.26,274.19 81.31,273.51 81.32,272.82 81.32,264.64 69.48,259.71 69.48,259.71" fill="none" stroke="transparent" stroke-width="1" opacity="1.0" stroke-linecap="round" stroke-linejoin="round"/><polyline points="69.48,265.17 69.48,265.17 69.67,265.17 69.87,265.19 70.06,265.21 70.24,265.25 70.61,265.34 70.96,265.47 71.29,265.63 71.60,265.82 71.89,266.04 72.16,266.28 72.41,266.55 72.62,266.84 72.81,267.15 72.97,267.49 73.10,267.83 73.20,268.20 73.23,268.38 73.25,268.57 73.27,268.77 73.27,268.96 73.27,269.16 73.25,269.35 73.23,269.54 73.20,269.73 73.10,270.09 72.97,270.44 72.81,270.77 72.62,271.08 72.41,271.37 72.16,271.64 71.89,271.89 71.60,272.11 71.29,272.30 70.96,272.46 70.61,272.58 70.24,272.68 70.06,272.71 69.87,272.74 69.67,272.75 69.48,272.76 69.28,272.75 69.09,272.74 68.90,272.71 68.72,272.68 68.35,272.58 68.00,272.46 67.67,272.30 67.36,272.11 67.07,271.89 66.80,271.64 66.55,271.37 66.33,271.08 66.14,270.77 65.99,270.44 65.86,270.09 65.76,269.73 65.73,269.54 65.71,269.35 65.69,269.16 65.69,268.96 65.71,268.59 65.76,268.22 65.85,267.86 65.98,267.51 66.13,267.18 66.32,266.86 66.55,266.56 66.80,266.28 67.08,266.03 67.38,265.81 67.70,265.62 68.03,265.46 68.38,265.33 68.74,265.24 69.11,265.19 69.48,265.17 69.48,265.17" fill="none" stroke="transparent" stroke-width="1" opacity="1.0" stroke-linecap="round" stroke-linejoin="round"/><polyline points="75.41,281.25 75.41,281.25 75.12,281.61 74.81,281.96 74.50,282.30 74.17,282.63 73.84,282.94 73.49,283.24 73.13,283.53 72.76,283.81 72.38,284.07 71.99,284.31 71.59,284.54 71.19,284.76 70.77,284.96 70.35,285.15 69.92,285.32 69.48,285.48 69.04,285.32 68.61,285.15 68.19,284.96 67.77,284.76 67.37,284.54 66.97,284.31 66.58,284.07 66.20,283.81 65.83,283.53 65.47,283.24 65.12,282.94 64.79,282.63 64.46,282.30 64.15,281.96 63.84,281.61 63.55,281.25 63.55,278.00 63.55,278.00 63.56,277.78 63.60,277.57 63.65,277.36 63.73,277.16 63.82,276.96 63.93,276.77 64.06,276.59 64.20,276.42 64.36,276.25 64.53,276.09 64.71,275.94 64.91,275.80 65.11,275.66 65.33,275.53 65.55,275.40 65.78,275.28 66.25,275.07 66.74,274.89 67.23,274.73 67.72,274.60 68.20,274.50 68.43,274.46 68.66,274.43 68.88,274.40 69.09,274.38 69.29,274.37 69.48,274.37 69.67,274.37 69.87,274.38 70.08,274.40 70.30,274.43 70.53,274.46 70.76,274.50 71.24,274.60 71.73,274.73 72.22,274.89 72.71,275.07 73.18,275.28 73.41,275.40 73.63,275.53 73.85,275.66 74.05,275.80 74.25,275.94 74.43,276.09 74.60,276.25 74.76,276.42 74.90,276.59 75.03,276.77 75.14,276.96 75.23,277.16 75.31,277.36 75.36,277.57 75.39,277.78 75.41,278.00 75.41,281.25 75.41,281.25" fill="none" stroke="transparent" stroke-width="1" opacity="1.0" stroke-linecap="round" stroke-linejoin="round"/><polyline points="69.48,259.71 69.48,265.17 69.48,265.17 69.67,265.17 69.87,265.19 70.06,265.21 70.24,265.25 70.61,265.34 70.96,265.47 71.29,265.63 71.60,265.82 71.89,266.04 72.16,266.28 72.41,266.55 72.62,266.84 72.81,267.15 72.97,267.49 73.10,267.83 73.20,268.20 73.23,268.38 73.25,268.57 73.27,268.77 73.27,268.96 73.27,269.16 73.25,269.35 73.23,269.54 73.20,269.73 73.10,270.09 72.97,270.44 72.81,270.77 72.62,271.08 72.41,271.37 72.16,271.64 71.89,271.89 71.60,272.11 71.29,272.30 70.96,272.46 70.61,272.58 70.24,272.68 70.06,272.71 69.87,272.74 69.67,272.75 69.48,272.76 69.48,274.37 69.48,274.37 69.67,274.37 69.87,274.38 70.08,274.40 70.30,274.43 70.53,274.46 70.76,274.50 71.24,274.60 71.73,274.73 72.22,274.89 72.71,275.07 73.18,275.28 73.41,275.40 73.63,275.53 73.85,275.66 74.05,275.80 74.25,275.94 74.43,276.09 74.60,276.25 74.76,276.42 74.90,276.59 75.03,276.77 75.14,276.96 75.23,277.16 75.31,277.36 75.36,277.57 75.39,277.78 75.41,278.00 75.41,281.25 75.41,281.25 75.12,281.61 74.81,281.96 74.50,282.30 74.17,282.63 73.84,282.94 73.49,283.24 73.13,283.53 72.76,283.81 72.38,284.07 71.99,284.31 71.59,284.54 71.19,284.76 70.77,284.96 70.35,285.15 69.92,285.32 69.48,285.48 69.48,288.55 69.48,288.55 70.11,288.38 70.73,288.18 71.34,287.95 71.94,287.69 72.52,287.41 73.09,287.10 73.65,286.76 74.19,286.40 74.72,286.02 75.23,285.62 75.73,285.19 76.21,284.74 76.67,284.28 77.11,283.79 77.54,283.29 77.94,282.76 78.33,282.23 78.70,281.67 79.04,281.10 79.36,280.52 79.66,279.92 79.94,279.32 80.19,278.70 80.42,278.07 80.63,277.43 80.81,276.78 80.96,276.12 81.09,275.46 81.19,274.79 81.26,274.12 81.30,273.44 81.32,272.76 81.32,264.64 69.48,259.71 69.48,259.71" fill="none" stroke="transparent" stroke-width="1" opacity="1.0" stroke-linecap="round" stroke-linejoin="round"/><polyline points="69.48,265.17 69.48,265.17 69.67,265.17 69.87,265.19 70.06,265.21 70.24,265.25 70.61,265.34 70.96,265.47 71.29,265.63 71.60,265.82 71.89,266.04 72.16,266.28 72.41,266.55 72.62,266.84 72.81,267.15 72.97,267.49 73.10,267.83 73.20,268.20 73.23,268.38 73.25,268.57 73.27,268.77 73.27,268.96 73.27,269.16 73.25,269.35 73.23,269.54 73.20,269.73 73.10,270.09 72.97,270.44 72.81,270.77 72.62,271.08 72.41,271.37 72.16,271.64 71.89,271.89 71.60,272.11 71.29,272.30 70.96,272.46 70.61,272.58 70.24,272.68 70.06,272.71 69.87,272.74 69.67,272.75 69.48,272.76 69.28,272.75 69.09,272.74 68.90,272.71 68.72,272.68 68.35,272.58 68.00,272.46 67.67,272.30 67.36,272.11 67.07,271.89 66.80,271.64 66.55,271.37 66.33,271.08 66.14,270.77 65.99,270.44 65.86,270.09 65.76,269.73 65.73,269.54 65.71,269.35 65.69,269.16 65.69,268.96 65.71,268.59 65.76,268.22 65.85,267.86 65.98,267.51 66.13,267.18 66.32,266.86 66.55,266.56 66.80,266.28 67.08,266.03 67.38,265.81 67.70,265.62 68.03,265.46 68.38,265.33 68.74,265.24 69.11,265.19 69.48,265.17 69.48,265.17" fill="none" stroke="transparent" stroke-width="1" opacity="1.0" stroke-linecap="round" stroke-linejoin="round"/><polyline points="75.41,281.25 75.41,281.25 75.12,281.61 74.81,281.96 74.50,282.30 74.17,282.63 73.84,282.94 73.49,283.24 73.13,283.53 72.76,283.81 72.38,284.07 71.99,284.31 71.59,284.54 71.19,284.76 70.77,284.96 70.35,285.15 69.92,285.32 69.48,285.48 69.04,285.32 68.61,285.15 68.19,284.96 67.77,284.76 67.37,284.54 66.97,284.31 66.58,284.07 66.20,283.81 65.83,283.53 65.47,283.24 65.12,282.94 64.79,282.63 64.46,282.30 64.15,281.96 63.84,281.61 63.55,281.25 63.55,278.00 63.55,278.00 63.56,277.78 63.60,277.57 63.65,277.36 63.73,277.16 63.82,276.96 63.93,276.77 64.06,276.59 64.20,276.42 64.36,276.25 64.53,276.09 64.71,275.94 64.91,275.80 65.11,275.66 65.33,275.53 65.55,275.40 65.78,275.28 66.25,275.07 66.74,274.89 67.23,274.73 67.72,274.60 68.20,274.50 68.43,274.46 68.66,274.43 68.88,274.40 69.09,274.38 69.29,274.37 69.48,274.37 69.67,274.37 69.87,274.38 70.08,274.40 70.30,274.43 70.53,274.46 70.76,274.50 71.24,274.60 71.73,274.73 72.22,274.89 72.71,275.07 73.18,275.28 73.41,275.40 73.63,275.53 73.85,275.66 74.05,275.80 74.25,275.94 74.43,276.09 74.60,276.25 74.76,276.42 74.90,276.59 75.03,276.77 75.14,276.96 75.23,277.16 75.31,277.36 75.36,277.57 75.39,277.78 75.41,278.00 75.41,281.25 75.41,281.25" fill="none" stroke="transparent" stroke-width="1" opacity="1.0" stroke-linecap="round" stroke-linejoin="round"/></svg>