<svg version="1.1" xmlns="http://www.w3.org/2000/svg" viewBox="0 0 277.4275906154505 229.33462750098897" width="277.4275906154505" height="229.33462750098897">
  <!-- svg-source:excalidraw -->
  
  <defs>
    
    
  </defs>
  <g stroke-linecap="round"><g transform="translate(148.37362865094133 6) rotate(0 -34.63613073692967 84.74102631945334)" fill-rule="evenodd"><path d="M0 0 L-19.32 169.48 L-69.27 169.48 L0 0" stroke="none" stroke-width="0" fill="#aecbfa" fill-rule="evenodd"></path><path d="M0 0 C-4.81 42.23, -9.63 84.46, -19.32 169.48 M0 0 C-6.51 57.12, -13.02 114.25, -19.32 169.48 M-19.32 169.48 C-33.03 169.48, -46.73 169.48, -69.27 169.48 M-19.32 169.48 C-33.66 169.48, -48 169.48, -69.27 169.48 M-69.27 169.48 C-45.6 111.58, -21.94 53.67, 0 0 M-69.27 169.48 C-45.64 111.66, -22 53.84, 0 0 M0 0 C0 0, 0 0, 0 0 M0 0 C0 0, 0 0, 0 0" stroke="#000000" stroke-width="1" fill="none"></path></g></g><mask></mask><g stroke-linecap="round"><g transform="translate(25.88531264355288 126.87833587964451) rotate(0 0.4133719664697253 24.301858379631312)" fill-rule="evenodd"><path d="M0 0 L-19.89 48.6 L15.1 48.6 L20.71 0 L0 0 L0 0" stroke="none" stroke-width="0" fill="#aecbfa" fill-rule="evenodd"></path><path d="M0 0 C-5.16 12.62, -10.32 25.23, -19.89 48.6 M0 0 C-4.69 11.47, -9.38 22.94, -19.89 48.6 M-19.89 48.6 C-7.97 48.6, 3.95 48.6, 15.1 48.6 M-19.89 48.6 C-9.82 48.6, 0.25 48.6, 15.1 48.6 M15.1 48.6 C16.78 34.06, 18.46 19.52, 20.71 0 M15.1 48.6 C17.09 31.34, 19.09 14.08, 20.71 0 M20.71 0 C13.93 0, 7.15 0, 0 0 M20.71 0 C15.17 0, 9.62 0, 0 0 M0 0 C0 0, 0 0, 0 0 M0 0 C0 0, 0 0, 0 0 M0 0 C0 0, 0 0, 0 0 M0 0 C0 0, 0 0, 0 0" stroke="#000000" stroke-width="1" fill="none"></path></g></g><mask></mask><g stroke-linecap="round"><g transform="translate(54.734246159307645 56.64880932032156) rotate(0 -10.073196031223944 24.367121017773798)" fill-rule="evenodd"><path d="M0 0 L-5.57 48.73 L-20.15 48.73 L0 0" stroke="none" stroke-width="0" fill="#aecbfa" fill-rule="evenodd"></path><path d="M0 0 C-2.07 18.11, -4.14 36.21, -5.57 48.73 M0 0 C-1.45 12.65, -2.89 25.29, -5.57 48.73 M-5.57 48.73 C-11.01 48.73, -16.44 48.73, -20.15 48.73 M-5.57 48.73 C-9.77 48.73, -13.97 48.73, -20.15 48.73 M-20.15 48.73 C-14.4 34.84, -8.66 20.95, 0 0 M-20.15 48.73 C-13.68 33.1, -7.22 17.46, 0 0 M0 0 C0 0, 0 0, 0 0 M0 0 C0 0, 0 0, 0 0" stroke="#000000" stroke-width="1" fill="none"></path></g></g><mask></mask><g stroke-linecap="round"><g transform="translate(221.4749917042618 6) rotate(0 -34.701397498832875 84.80628895759583)" fill-rule="evenodd"><path d="M0 0 L-19.45 169.61 L-69.4 169.61 L0 0" stroke="none" stroke-width="0" fill="#aecbfa" fill-rule="evenodd"></path><path d="M0 0 C-6.03 52.62, -12.07 105.23, -19.45 169.61 M0 0 C-6.98 60.88, -13.96 121.75, -19.45 169.61 M-19.45 169.61 C-38.37 169.61, -57.28 169.61, -69.4 169.61 M-19.45 169.61 C-34.55 169.61, -49.64 169.61, -69.4 169.61 M-69.4 169.61 C-47.46 115.99, -25.52 62.37, 0 0 M-69.4 169.61 C-48.45 118.41, -27.5 67.2, 0 0 M0 0 C0 0, 0 0, 0 0 M0 0 C0 0, 0 0, 0 0" stroke="#000000" stroke-width="1" fill="none"></path></g></g><mask></mask><g stroke-linecap="round"><g transform="translate(198.32621106708655 6) rotate(0 -34.63612248940811 84.74102631945334)" fill-rule="evenodd"><path d="M0 0 L-69.27 169.48 L-49.95 0 L0 0" stroke="none" stroke-width="0" fill="#669df6" fill-rule="evenodd"></path><path d="M0 0 C-25.68 62.84, -51.37 125.67, -69.27 169.48 M0 0 C-23.42 57.31, -46.84 114.61, -69.27 169.48 M-69.27 169.48 C-62.54 110.43, -55.81 51.38, -49.95 0 M-69.27 169.48 C-64.98 131.84, -60.69 94.19, -49.95 0 M-49.95 0 C-35.43 0, -20.92 0, 0 0 M-49.95 0 C-33.2 0, -16.45 0, 0 0 M0 0 C0 0, 0 0, 0 0 M0 0 C0 0, 0 0, 0 0" stroke="#000000" stroke-width="1" fill="none"></path></g></g><mask></mask><g stroke-linecap="round"><g transform="translate(104.42576977536214 56.64880932032156) rotate(0 -27.63057664011444 24.367121017773798)" fill-rule="evenodd"><path d="M0 0 L-0.13 0.39 L-19.89 48.73 L-55.26 48.73 L-49.69 0 L0 0" stroke="none" stroke-width="0" fill="#669df6" fill-rule="evenodd"></path><path d="M0 0 C-0.05 0.16, -0.1 0.31, -0.13 0.39 M0 0 C-0.03 0.08, -0.06 0.17, -0.13 0.39 M-0.13 0.39 C-7.2 17.68, -14.26 34.97, -19.89 48.73 M-0.13 0.39 C-4.84 11.91, -9.55 23.43, -19.89 48.73 M-19.89 48.73 C-32.96 48.73, -46.04 48.73, -55.26 48.73 M-19.89 48.73 C-28.03 48.73, -36.18 48.73, -55.26 48.73 M-55.26 48.73 C-53.97 37.43, -52.68 26.12, -49.69 0 M-55.26 48.73 C-53.8 35.94, -52.34 23.15, -49.69 0 M-49.69 0 C-32.66 0, -15.63 0, 0 0 M-49.69 0 C-32.56 0, -15.42 0, 0 0 M0 0 C0 0, 0 0, 0 0 M0 0 C0 0, 0 0, 0 0" stroke="#000000" stroke-width="1" fill="none"></path></g></g><mask></mask><g stroke-linecap="round"><g transform="translate(271.4275906154505 6) rotate(0 -34.70139749883287 84.80628895759583)" fill-rule="evenodd"><path d="M0 0 L-69.4 169.61 L-49.95 0 L0 0" stroke="none" stroke-width="0" fill="#669df6" fill-rule="evenodd"></path><path d="M0 0 C-16.25 39.72, -32.51 79.44, -69.4 169.61 M0 0 C-15.08 36.86, -30.17 73.73, -69.4 169.61 M-69.4 169.61 C-62.49 109.36, -55.58 49.1, -49.95 0 M-69.4 169.61 C-65.17 132.73, -60.94 95.84, -49.95 0 M-49.95 0 C-32.38 0, -14.8 0, 0 0 M-49.95 0 C-31.16 0, -12.38 0, 0 0 M0 0 C0 0, 0 0, 0 0 M0 0 C0 0, 0 0, 0 0" stroke="#000000" stroke-width="1" fill="none"></path></g></g><mask></mask><g stroke-linecap="round"><g transform="translate(75.83791361662043 126.87833587964451) rotate(0 -17.4268439922636 24.301858379631312)" fill-rule="evenodd"><path d="M0 0 L-20.02 48.6 L-34.85 48.6 L-29.24 0 L0 0" stroke="none" stroke-width="0" fill="#669df6" fill-rule="evenodd"></path><path d="M0 0 C-6.75 16.38, -13.49 32.76, -20.02 48.6 M0 0 C-5.49 13.34, -10.99 26.67, -20.02 48.6 M-20.02 48.6 C-24.28 48.6, -28.54 48.6, -34.85 48.6 M-20.02 48.6 C-25.09 48.6, -30.15 48.6, -34.85 48.6 M-34.85 48.6 C-32.94 32.02, -31.02 15.44, -29.24 0 M-34.85 48.6 C-33.52 37.07, -32.19 25.54, -29.24 0 M-29.24 0 C-18.38 0, -7.52 0, 0 0 M-29.24 0 C-21.75 0, -14.26 0, 0 0 M0 0 C0 0, 0 0, 0 0 M0 0 C0 0, 0 0, 0 0" stroke="#000000" stroke-width="1" fill="none"></path></g></g><mask></mask><g transform="translate(23.234800630145628 184.33462750098897) rotate(0 116.5 19.5)"><text x="116.5" y="0" font-family="Helvetica, Segoe UI Emoji" font-size="33.94285714285716px" fill="#000000" text-anchor="middle" style="white-space: pre;" direction="ltr" dominant-baseline="text-before-edge">Cloud Domains</text></g></svg>