<svg xmlns="http://www.w3.org/2000/svg" viewBox="1066.25 206.86 230.04 218.84" width="230" height="219"><polyline points="1144.96,212.86 1072.25,254.16 1072.25,336.59 1144.82,377.94 1217.58,336.31 1217.58,253.38 1144.96,212.86" fill="none" stroke="#000000" stroke-width="1" opacity="1.0" stroke-linecap="round" stroke-linejoin="round"/><polyline points="1145.00,230.81 1087.90,263.28 1087.90,327.47 1144.77,359.93 1201.92,327.24 1201.92,262.59 1145.00,230.81" fill="none" stroke="#000000" stroke-width="1" opacity="1.0" stroke-linecap="round" stroke-linejoin="round"/><polyline points="1148.55,297.35 1148.55,335.71 1180.83,316.79 1180.83,278.24 1148.55,297.35" fill="none" stroke="#000000" stroke-width="1" opacity="1.0" stroke-linecap="round" stroke-linejoin="round"/><polyline points="1111.90,272.03 1144.64,291.00 1177.93,271.98 1144.64,253.19 1111.90,272.03" fill="none" stroke="#000000" stroke-width="1" opacity="1.0" stroke-linecap="round" stroke-linejoin="round"/><polyline points="1108.81,278.43 1140.86,297.58 1140.86,335.71 1108.58,316.19 1108.81,278.43" fill="none" stroke="#000000" stroke-width="1" opacity="1.0" stroke-linecap="round" stroke-linejoin="round"/><polyline points="1148.55,257.80 1148.55,232.80 1145.00,230.81 1141.14,233.07 1141.14,257.80 1148.55,257.80" fill="none" stroke="#000000" stroke-width="1" opacity="1.0" stroke-linecap="round" stroke-linejoin="round"/><polyline points="1201.92,324.15 1175.72,308.91 1172.26,314.90 1197.68,329.68 1201.92,327.24 1201.92,324.15" fill="none" stroke="#000000" stroke-width="1" opacity="1.0" stroke-linecap="round" stroke-linejoin="round"/><polyline points="1113.14,309.05 1087.90,324.25 1087.90,327.47 1092.00,329.82 1116.68,314.99 1113.14,309.05" fill="none" stroke="#000000" stroke-width="1" opacity="1.0" stroke-linecap="round" stroke-linejoin="round"/><text x="1107.04" y="413.70" font-size="35.99999999999998" fill="#000000" opacity="1.0" font-family="sans-serif">GKE</text></svg>