<svg version="1.1" xmlns="http://www.w3.org/2000/svg" viewBox="0 0 227.7291613067501 232.41666722297674" width="227.7291613067501" height="232.41666722297674">
  <!-- svg-source:excalidraw -->
  
  <defs>
    
    
  </defs>
  <g stroke-linecap="round"><g transform="translate(49.14583071833499 92.29166143666981) rotate(0 10.786458161775982 43.145836504641785)" fill-rule="evenodd"><path d="M0 0 L64.72 53.93 L64.72 86.29 L-43.15 0 L0 0" stroke="none" stroke-width="0" fill="#669df6" fill-rule="evenodd"></path><path d="M0 0 C23.48 19.56, 46.96 39.13, 64.72 53.93 M0 0 C16.79 13.99, 33.59 27.99, 64.72 53.93 M64.72 53.93 C64.72 64.53, 64.72 75.13, 64.72 86.29 M64.72 53.93 C64.72 61.46, 64.72 68.98, 64.72 86.29 M64.72 86.29 C35.05 62.56, 5.39 38.83, -43.15 0 M64.72 86.29 C41.43 67.66, 18.15 49.03, -43.15 0 M-43.15 0 C-26.56 0, -9.98 0, 0 0 M-43.15 0 C-29 0, -14.85 0, 0 0 M0 0 C0 0, 0 0, 0 0 M0 0 C0 0, 0 0, 0 0" stroke="#000000" stroke-width="1" fill="none"></path></g></g><mask></mask><g stroke-linecap="round"><g transform="translate(113.86457776022144 146.22396092500986) rotate(0 53.93229177326432 -10.78646298369835)" fill-rule="evenodd"><path d="M0 0 L64.72 -53.93 L107.86 -53.93 L0 32.36 L0 0" stroke="none" stroke-width="0" fill="#669df6" fill-rule="evenodd"></path><path d="M0 0 C20.46 -17.05, 40.92 -34.1, 64.72 -53.93 M0 0 C21.68 -18.07, 43.36 -36.13, 64.72 -53.93 M64.72 -53.93 C74.75 -53.93, 84.78 -53.93, 107.86 -53.93 M64.72 -53.93 C73.73 -53.93, 82.75 -53.93, 107.86 -53.93 M107.86 -53.93 C70.61 -24.13, 33.36 5.67, 0 32.36 M107.86 -53.93 C82.04 -33.27, 56.21 -12.61, 0 32.36 M0 32.36 C0 21.76, 0 11.16, 0 0 M0 32.36 C0 20.66, 0 8.96, 0 0 M0 0 C0 0, 0 0, 0 0 M0 0 C0 0, 0 0, 0 0" stroke="#000000" stroke-width="1" fill="none"></path></g></g><mask></mask><g stroke-linecap="round"><g transform="translate(6 92.29166143666981) rotate(0 53.93228888011086 -43.145830718334906)" fill-rule="evenodd"><path d="M0 0 L107.86 -86.29 L107.86 -53.93 L43.15 0 L0 0" stroke="none" stroke-width="0" fill="#aecbfa" fill-rule="evenodd"></path><path d="M0 0 C37.41 -29.93, 74.82 -59.85, 107.86 -86.29 M0 0 C26.78 -21.43, 53.57 -42.85, 107.86 -86.29 M107.86 -86.29 C107.86 -73.56, 107.86 -60.84, 107.86 -53.93 M107.86 -86.29 C107.86 -79.76, 107.86 -73.22, 107.86 -53.93 M107.86 -53.93 C93.56 -42.02, 79.26 -30.1, 43.15 0 M107.86 -53.93 C86.23 -35.9, 64.6 -17.88, 43.15 0 M43.15 0 C28.34 0, 13.53 0, 0 0 M43.15 0 C34.26 0, 25.37 0, 0 0 M0 0 C0 0, 0 0, 0 0 M0 0 C0 0, 0 0, 0 0" stroke="#000000" stroke-width="1" fill="none"></path></g></g><mask></mask><g stroke-linecap="round"><g transform="translate(113.86457776022144 38.3593773784815) rotate(0 53.93229177326432 10.786453339853566)" fill-rule="evenodd"><path d="M0 0 L64.72 53.93 L107.86 53.93 L0 -32.36 L0 0" stroke="none" stroke-width="0" fill="#aecbfa" fill-rule="evenodd"></path><path d="M0 0 C20.28 16.9, 40.55 33.79, 64.72 53.93 M0 0 C24.67 20.56, 49.34 41.11, 64.72 53.93 M64.72 53.93 C81.2 53.93, 97.67 53.93, 107.86 53.93 M64.72 53.93 C77.06 53.93, 89.4 53.93, 107.86 53.93 M107.86 53.93 C75.75 28.24, 43.63 2.54, 0 -32.36 M107.86 53.93 C74.89 27.55, 41.91 1.17, 0 -32.36 M0 -32.36 C0 -24.74, 0 -17.12, 0 0 M0 -32.36 C0 -21.94, 0 -11.52, 0 0 M0 0 C0 0, 0 0, 0 0 M0 0 C0 0, 0 0, 0 0" stroke="#000000" stroke-width="1" fill="none"></path></g></g><mask></mask><g stroke-linecap="round" transform="translate(92.29166722297668 70.71875089942483) rotate(0 21.57291632355193 21.57291632355193)"><path d="M43.15 21.57 C43.15 22.82, 43.03 24.09, 42.82 25.32 C42.6 26.55, 42.27 27.78, 41.84 28.95 C41.42 30.12, 40.88 31.28, 40.26 32.36 C39.63 33.44, 38.9 34.48, 38.1 35.44 C37.3 36.4, 36.4 37.3, 35.44 38.1 C34.48 38.9, 33.44 39.63, 32.36 40.26 C31.28 40.88, 30.12 41.42, 28.95 41.84 C27.78 42.27, 26.55 42.6, 25.32 42.82 C24.09 43.03, 22.82 43.15, 21.57 43.15 C20.32 43.15, 19.06 43.03, 17.83 42.82 C16.6 42.6, 15.37 42.27, 14.19 41.84 C13.02 41.42, 11.87 40.88, 10.79 40.26 C9.71 39.63, 8.66 38.9, 7.71 38.1 C6.75 37.3, 5.85 36.4, 5.05 35.44 C4.24 34.48, 3.51 33.44, 2.89 32.36 C2.27 31.28, 1.73 30.12, 1.3 28.95 C0.87 27.78, 0.54 26.55, 0.33 25.32 C0.11 24.09, 0 22.82, 0 21.57 C0 20.32, 0.11 19.06, 0.33 17.83 C0.54 16.6, 0.87 15.37, 1.3 14.19 C1.73 13.02, 2.27 11.87, 2.89 10.79 C3.51 9.71, 4.24 8.66, 5.05 7.71 C5.85 6.75, 6.75 5.85, 7.71 5.05 C8.66 4.24, 9.71 3.51, 10.79 2.89 C11.87 2.27, 13.02 1.73, 14.19 1.3 C15.37 0.87, 16.6 0.54, 17.83 0.33 C19.06 0.11, 20.32 0, 21.57 0 C22.82 0, 24.09 0.11, 25.32 0.33 C26.55 0.54, 27.78 0.87, 28.95 1.3 C30.12 1.73, 31.28 2.27, 32.36 2.89 C33.44 3.51, 34.48 4.24, 35.44 5.05 C36.4 5.85, 37.3 6.75, 38.1 7.71 C38.9 8.66, 39.63 9.71, 40.26 10.79 C40.88 11.87, 41.42 13.02, 41.84 14.19 C42.27 15.37, 42.6 16.6, 42.82 17.83 C43.03 19.06, 43.09 20.95, 43.15 21.57 C43.2 22.2, 43.2 20.95, 43.15 21.57" stroke="none" stroke-width="0" fill="#4285f4"></path><path d="M43.15 21.57 C43.15 22.82, 43.03 24.09, 42.82 25.32 C42.6 26.55, 42.27 27.78, 41.84 28.95 C41.42 30.12, 40.88 31.28, 40.26 32.36 C39.63 33.44, 38.9 34.48, 38.1 35.44 C37.3 36.4, 36.4 37.3, 35.44 38.1 C34.48 38.9, 33.44 39.63, 32.36 40.26 C31.28 40.88, 30.12 41.42, 28.95 41.84 C27.78 42.27, 26.55 42.6, 25.32 42.82 C24.09 43.03, 22.82 43.15, 21.57 43.15 C20.32 43.15, 19.06 43.03, 17.83 42.82 C16.6 42.6, 15.37 42.27, 14.19 41.84 C13.02 41.42, 11.87 40.88, 10.79 40.26 C9.71 39.63, 8.66 38.9, 7.71 38.1 C6.75 37.3, 5.85 36.4, 5.05 35.44 C4.24 34.48, 3.51 33.44, 2.89 32.36 C2.27 31.28, 1.73 30.12, 1.3 28.95 C0.87 27.78, 0.54 26.55, 0.33 25.32 C0.11 24.09, 0 22.82, 0 21.57 C0 20.32, 0.11 19.06, 0.33 17.83 C0.54 16.6, 0.87 15.37, 1.3 14.19 C1.73 13.02, 2.27 11.87, 2.89 10.79 C3.51 9.71, 4.24 8.66, 5.05 7.71 C5.85 6.75, 6.75 5.85, 7.71 5.05 C8.66 4.24, 9.71 3.51, 10.79 2.89 C11.87 2.27, 13.02 1.73, 14.19 1.3 C15.37 0.87, 16.6 0.54, 17.83 0.33 C19.06 0.11, 20.32 0, 21.57 0 C22.82 0, 24.09 0.11, 25.32 0.33 C26.55 0.54, 27.78 0.87, 28.95 1.3 C30.12 1.73, 31.28 2.27, 32.36 2.89 C33.44 3.51, 34.48 4.24, 35.44 5.05 C36.4 5.85, 37.3 6.75, 38.1 7.71 C38.9 8.66, 39.63 9.71, 40.26 10.79 C40.88 11.87, 41.42 13.02, 41.84 14.19 C42.27 15.37, 42.6 16.6, 42.82 17.83 C43.03 19.06, 43.09 20.95, 43.15 21.57 C43.2 22.2, 43.2 20.95, 43.15 21.57" stroke="#000000" stroke-width="1" fill="none"></path></g><g transform="translate(13.083333611488342 184.41666722297674) rotate(0 101 21)"><text x="0" y="0" font-family="Helvetica, Segoe UI Emoji" font-size="35.99999999999998px" fill="#000000" text-anchor="start" style="white-space: pre;" direction="ltr" dominant-baseline="text-before-edge">Cloud Vision</text></g></svg>