<svg version="1.1" xmlns="http://www.w3.org/2000/svg" viewBox="0 0 150.1706093294988 141.94506297392036" width="150.1706093294988" height="141.94506297392036">
  <!-- svg-source:excalidraw -->
  
  <defs>
    
    
  </defs>
  <g stroke-linecap="round" transform="translate(36.05182047082576 66.30449123360222) rotate(0 41.384268032336536 6.002824252128448)"><path d="M-0.05 0.11 L83.49 0.28 L82.66 12.36 L-0.98 11.4" stroke="none" stroke-width="0" fill="#669df6"></path><path d="M0 0 C20.76 -1.03, 42.39 0.59, 82.77 0 M0 0 C24.09 0.13, 47.53 -0.21, 82.77 0 M82.77 0 C82.42 3.48, 82.68 7.16, 82.77 12.01 M82.77 0 C82.97 4.41, 82.87 8.5, 82.77 12.01 M82.77 12.01 C59.43 12.11, 34.51 11.56, 0 12.01 M82.77 12.01 C64.55 12.72, 47.15 12.45, 0 12.01 M0 12.01 C0.56 8.56, 0.44 4.8, 0 0 M0 12.01 C-0.04 8.09, -0.27 4.73, 0 0" stroke="#1864ab" stroke-width="1" fill="none"></path></g><g stroke-linecap="round" transform="translate(62.35465209281733 42.497952749688466) rotate(44.99999999999995 41.384268032336536 4.892863909227344)"><path d="M0.57 -0.11 L83.19 0.39 L82.55 10.68 L0.44 9.2" stroke="none" stroke-width="0" fill="#669df6"></path><path d="M0 0 C30.2 0.92, 61.58 0.16, 82.77 0 M0 0 C31.21 0.1, 61.65 -0.45, 82.77 0 M82.77 0 C82.83 2.56, 82.91 4.36, 82.77 9.79 M82.77 0 C82.59 3.23, 82.67 6.64, 82.77 9.79 M82.77 9.79 C54.93 9.52, 26.02 9.2, 0 9.79 M82.77 9.79 C51.07 9.07, 19.24 9.6, 0 9.79 M0 9.79 C0.24 6.72, -0.44 4.13, 0 0 M0 9.79 C0.01 6.24, 0.08 2.9, 0 0" stroke="#1864ab" stroke-width="1" fill="none"></path></g><g stroke-linecap="round" transform="translate(8.847110611648759 93.11601328619918) rotate(44.99999999999995 41.384268032336536 4.892863909227344)"><path d="M0.67 -0.39 L81.99 0.47 L83.08 9.51 L0.5 8.96" stroke="none" stroke-width="0" fill="#669df6"></path><path d="M0 0 C28.89 0.9, 57.27 0.31, 82.77 0 M0 0 C31.58 -0.19, 63.53 0.43, 82.77 0 M82.77 0 C82.42 2.59, 82.79 3.92, 82.77 9.79 M82.77 0 C82.55 2.91, 82.55 5.59, 82.77 9.79 M82.77 9.79 C59.86 10.57, 34.56 9.26, 0 9.79 M82.77 9.79 C56.7 9.76, 30.48 9.47, 0 9.79 M0 9.79 C0.19 7.27, 0.27 5.75, 0 0 M0 9.79 C-0.02 6.84, -0.14 3.55, 0 0" stroke="#1864ab" stroke-width="1" fill="none"></path></g><g stroke-linecap="round" transform="translate(55.28196894292637 33.5110040532486) rotate(89.99999999999994 20.41825681746093 3.370056564384413)"><path d="M-0.17 -0.44 L39.98 0.62 L41.7 6.08 L-0.99 7" stroke="none" stroke-width="0" fill="#4285f4"></path><path d="M0 0 C7.94 -0.06, 18.57 -0.71, 40.84 0 M0 0 C14.07 -0.26, 28.18 -0.3, 40.84 0 M40.84 0 C41.17 1.46, 41.1 3.43, 40.84 6.74 M40.84 0 C40.97 2.28, 40.92 4.47, 40.84 6.74 M40.84 6.74 C24.71 6.69, 8.8 6.26, 0 6.74 M40.84 6.74 C25.44 6.52, 10.2 6.66, 0 6.74 M0 6.74 C-0.36 4.15, -0.1 2.13, 0 0 M0 6.74 C0.01 4.33, -0.15 1.82, 0 0" stroke="#1864ab" stroke-width="1" fill="none"></path></g><g stroke-linecap="round" transform="translate(55.01953386463197 105.21302831369712) rotate(89.99999999999994 20.41825681746093 3.370056564384413)"><path d="M0.05 -0.04 L40.68 -0.98 L41.63 6.43 L0.84 7.65" stroke="none" stroke-width="0" fill="#4285f4"></path><path d="M0 0 C13.42 0.91, 28.75 0.91, 40.84 0 M0 0 C13.59 -0.36, 28.36 -0.07, 40.84 0 M40.84 0 C40.89 1.45, 40.54 2.75, 40.84 6.74 M40.84 0 C40.89 2.69, 40.75 5.3, 40.84 6.74 M40.84 6.74 C25.84 6.91, 12.79 6.09, 0 6.74 M40.84 6.74 C30.77 6.86, 20.68 6.71, 0 6.74 M0 6.74 C-0.19 4.57, -0.26 3.22, 0 0 M0 6.74 C0.04 4.55, -0.13 2.27, 0 0" stroke="#1864ab" stroke-width="1" fill="none"></path></g><g stroke-linecap="round" transform="translate(62.65733232965454 6.000000000000455) rotate(0 12.672942633765274 12.672942633765388)"><path d="M13.26 -0.29 C15.96 -0.25, 19.88 1.44, 21.81 3.48 C23.74 5.52, 24.58 9.14, 24.85 11.94 C25.13 14.74, 24.93 18.16, 23.46 20.27 C22 22.37, 18.77 23.99, 16.07 24.57 C13.36 25.16, 9.76 24.84, 7.23 23.76 C4.7 22.68, 1.97 20.54, 0.87 18.08 C-0.23 15.62, -0.1 11.63, 0.63 9 C1.37 6.38, 3.02 3.77, 5.3 2.32 C7.59 0.88, 12.8 0.68, 14.33 0.33 C15.85 -0.01, 14.48 0.09, 14.44 0.26 M14.21 0.55 C16.96 0.66, 21.22 2.02, 22.99 3.96 C24.76 5.89, 24.99 9.46, 24.81 12.15 C24.62 14.85, 23.57 17.9, 21.9 20.14 C20.23 22.37, 17.29 25.01, 14.81 25.56 C12.32 26.11, 9.17 24.82, 6.96 23.43 C4.76 22.05, 2.66 19.72, 1.57 17.24 C0.48 14.76, -0.26 11.22, 0.42 8.55 C1.1 5.88, 3.32 2.66, 5.66 1.22 C7.99 -0.23, 13.05 0.13, 14.45 -0.12 C15.85 -0.37, 14.03 -0.51, 14.07 -0.3" stroke="none" stroke-width="0" fill="#aecbfa"></path><path d="M11 0.57 C13.62 0.09, 17.61 0.68, 19.97 2.06 C22.33 3.43, 24.41 6.17, 25.14 8.81 C25.87 11.46, 25.51 15.34, 24.35 17.94 C23.2 20.54, 20.72 23.24, 18.22 24.39 C15.72 25.54, 11.93 25.47, 9.35 24.83 C6.78 24.19, 4.28 22.74, 2.78 20.54 C1.29 18.33, 0.34 14.29, 0.37 11.59 C0.4 8.9, 1.12 6.19, 2.98 4.35 C4.83 2.51, 10.02 1.19, 11.52 0.54 C13.02 -0.1, 12.01 0.43, 11.98 0.5 M12.59 -0.43 C15.35 -0.58, 19.19 0.82, 21.17 2.55 C23.16 4.27, 24.19 7.18, 24.5 9.91 C24.8 12.64, 24.16 16.59, 23 18.93 C21.84 21.27, 19.99 22.99, 17.54 23.93 C15.1 24.87, 10.85 25.36, 8.31 24.57 C5.77 23.78, 3.66 21.41, 2.32 19.18 C0.98 16.96, -0.02 13.9, 0.27 11.24 C0.55 8.58, 1.98 5.15, 4.03 3.23 C6.08 1.32, 11.05 0.32, 12.57 -0.26 C14.1 -0.85, 13.24 -0.66, 13.2 -0.29" stroke="#669df6" stroke-width="1" fill="none"></path></g><g stroke-linecap="round" transform="translate(62.46264717415329 110.59917770638958) rotate(0 12.672942633765274 12.672942633765388)"><path d="M13.98 -0.23 C16.59 -0.14, 20.06 1.65, 21.91 3.63 C23.75 5.62, 24.95 9, 25.05 11.68 C25.15 14.36, 24.15 17.56, 22.51 19.7 C20.88 21.84, 17.87 23.84, 15.27 24.51 C12.67 25.18, 9.32 24.76, 6.92 23.72 C4.52 22.68, 1.91 20.68, 0.89 18.27 C-0.13 15.86, -0.04 11.97, 0.8 9.27 C1.64 6.57, 3.62 3.55, 5.91 2.06 C8.2 0.58, 13.16 0.61, 14.56 0.37 C15.97 0.12, 14.41 0.38, 14.33 0.58 M14.15 0.55 C16.83 0.54, 20.3 2.06, 22.14 3.77 C23.97 5.48, 25.1 8.04, 25.18 10.79 C25.26 13.55, 24.06 17.9, 22.61 20.29 C21.15 22.69, 19.01 24.59, 16.46 25.16 C13.91 25.73, 9.77 24.75, 7.3 23.72 C4.83 22.7, 2.81 21.29, 1.65 19.01 C0.48 16.74, -0.17 12.86, 0.31 10.07 C0.78 7.27, 2.32 3.96, 4.49 2.23 C6.66 0.5, 11.75 0.02, 13.32 -0.3 C14.88 -0.61, 13.9 0, 13.89 0.33" stroke="none" stroke-width="0" fill="#aecbfa"></path><path d="M10.32 0.13 C12.91 -0.45, 17.03 -0.07, 19.42 1.32 C21.8 2.72, 23.74 5.83, 24.63 8.51 C25.51 11.2, 25.7 14.94, 24.72 17.45 C23.75 19.97, 21.16 22.35, 18.77 23.62 C16.37 24.9, 12.96 25.62, 10.35 25.1 C7.75 24.57, 4.83 22.63, 3.15 20.47 C1.46 18.32, 0.22 14.76, 0.25 12.16 C0.29 9.56, 1.56 6.94, 3.36 4.86 C5.16 2.79, 9.65 0.55, 11.05 -0.29 C12.45 -1.12, 11.77 -0.38, 11.78 -0.14 M15.27 0.18 C17.73 0.46, 20.29 2.36, 21.88 4.29 C23.48 6.22, 24.76 9.08, 24.84 11.75 C24.92 14.41, 24.07 18.18, 22.38 20.28 C20.68 22.39, 17.24 23.84, 14.64 24.38 C12.05 24.92, 9.02 24.79, 6.83 23.52 C4.63 22.25, 2.55 19.21, 1.49 16.78 C0.43 14.36, -0.38 11.54, 0.45 8.97 C1.29 6.4, 4.06 2.75, 6.48 1.37 C8.91 -0.01, 13.57 0.94, 14.99 0.7 C16.41 0.46, 15.07 -0.24, 15.01 -0.06" stroke="#669df6" stroke-width="1" fill="none"></path></g><g stroke-linecap="round" transform="translate(110.59918036951422 56.0308865495831) rotate(0 16.785714479992407 16.785714479992293)"><path d="M15.6 -0.46 C19.12 -0.8, 24.59 1.27, 27.45 3.5 C30.32 5.72, 32.08 9.39, 32.79 12.89 C33.5 16.4, 33.3 21.23, 31.69 24.52 C30.09 27.82, 26.48 31.2, 23.15 32.65 C19.81 34.11, 15.04 34.36, 11.7 33.25 C8.35 32.14, 5.08 29.01, 3.08 25.98 C1.08 22.95, -0.64 18.72, -0.3 15.05 C0.04 11.38, 2.26 6.51, 5.12 3.98 C7.99 1.45, 14.9 0.47, 16.89 -0.12 C18.88 -0.71, 17.11 0.14, 17.04 0.46 M17.64 0.25 C20.96 0.17, 24.73 1.82, 27.37 4.18 C30 6.54, 32.87 10.75, 33.47 14.41 C34.06 18.07, 32.9 22.98, 30.95 26.15 C28.99 29.31, 25.21 32.27, 21.76 33.41 C18.3 34.56, 13.47 34.36, 10.21 33.01 C6.94 31.67, 3.87 28.46, 2.15 25.32 C0.43 22.19, -0.74 17.91, -0.12 14.21 C0.5 10.51, 3.05 5.48, 5.87 3.12 C8.69 0.76, 14.98 0.52, 16.8 0.05 C18.62 -0.41, 16.68 0.12, 16.79 0.33" stroke="none" stroke-width="0" fill="#aecbfa"></path><path d="M16.76 -0.3 C20.17 -0.54, 24.92 1.19, 27.72 3.57 C30.52 5.96, 32.95 10.38, 33.56 14.01 C34.18 17.65, 33.21 22.35, 31.41 25.38 C29.6 28.4, 26.13 31.01, 22.72 32.14 C19.3 33.27, 14.38 33.26, 10.92 32.17 C7.45 31.08, 3.81 28.69, 1.95 25.6 C0.09 22.52, -0.88 17.2, -0.23 13.66 C0.42 10.12, 2.92 6.68, 5.86 4.36 C8.8 2.04, 15.36 0.37, 17.41 -0.24 C19.47 -0.86, 18.24 0.37, 18.17 0.67 M15.85 -0.07 C19.04 -0.66, 22.81 0.51, 25.72 2.48 C28.63 4.44, 32.35 8.26, 33.33 11.7 C34.31 15.15, 33.13 19.86, 31.6 23.14 C30.07 26.43, 27.42 29.83, 24.17 31.44 C20.91 33.04, 15.49 33.7, 12.05 32.78 C8.62 31.86, 5.54 28.83, 3.55 25.94 C1.56 23.06, -0.03 18.97, 0.12 15.49 C0.27 12, 1.86 7.72, 4.47 5.03 C7.08 2.34, 14.05 0.15, 15.78 -0.68 C17.52 -1.5, 14.99 -0.25, 14.89 0.07" stroke="#669df6" stroke-width="1" fill="none"></path></g><g stroke-linecap="round" transform="translate(6.000000000000227 55.42570716847649) rotate(0 16.785714479992407 16.785714479992293)"><path d="M19.57 0.3 C23.12 0.55, 27.44 2.72, 29.7 5.46 C31.97 8.2, 33.17 13.16, 33.14 16.73 C33.11 20.3, 31.74 24.05, 29.5 26.87 C27.26 29.7, 23.18 32.88, 19.71 33.69 C16.25 34.5, 11.79 33.46, 8.72 31.75 C5.65 30.03, 2.58 26.73, 1.31 23.4 C0.04 20.06, 0.01 15.22, 1.1 11.71 C2.2 8.2, 4.76 4.22, 7.9 2.36 C11.04 0.49, 17.83 0.72, 19.97 0.5 C22.1 0.27, 20.73 0.7, 20.7 1.03 M19.36 0.65 C22.81 0.79, 26.97 3.17, 29.33 5.63 C31.69 8.09, 33.48 11.78, 33.49 15.43 C33.51 19.09, 31.55 24.6, 29.45 27.58 C27.35 30.55, 24.29 32.7, 20.9 33.28 C17.51 33.87, 12.31 32.69, 9.09 31.1 C5.87 29.51, 3.03 26.85, 1.58 23.75 C0.13 20.66, -0.72 16, 0.38 12.54 C1.48 9.08, 5.1 5.07, 8.17 2.98 C11.25 0.9, 16.93 0.34, 18.82 0.03 C20.7 -0.27, 19.51 0.77, 19.5 1.16" stroke="none" stroke-width="0" fill="#aecbfa"></path><path d="M17.34 0.44 C20.75 0.37, 25.53 2.2, 28.26 4.55 C31 6.9, 33.2 11.1, 33.74 14.56 C34.29 18.01, 33.47 22.25, 31.52 25.29 C29.58 28.34, 25.56 31.68, 22.06 32.81 C18.55 33.94, 13.89 33.49, 10.5 32.08 C7.11 30.67, 3.42 27.47, 1.71 24.34 C-0.01 21.2, -0.56 16.81, 0.22 13.28 C0.99 9.75, 3.44 5.44, 6.36 3.15 C9.27 0.85, 15.84 0.04, 17.73 -0.47 C19.62 -0.98, 17.67 -0.29, 17.68 0.08 M19.13 0.73 C22.52 1.06, 26.8 2.97, 29.11 5.42 C31.41 7.87, 32.82 11.9, 32.94 15.42 C33.07 18.94, 32.01 23.54, 29.87 26.52 C27.72 29.51, 23.45 32.36, 20.08 33.34 C16.71 34.32, 12.77 34.04, 9.66 32.41 C6.56 30.79, 2.87 27, 1.43 23.6 C-0.01 20.2, -0.09 15.41, 1.03 12.01 C2.15 8.62, 5.16 5.23, 8.16 3.21 C11.15 1.18, 17.13 0.23, 18.98 -0.14 C20.83 -0.51, 19.35 0.73, 19.27 0.99" stroke="#669df6" stroke-width="1" fill="none"></path></g></svg>