<svg xmlns="http://www.w3.org/2000/svg" viewBox="244.32 1787.26 197.10 214.16" width="197" height="214"><ellipse cx="269.92" cy="1807.64" rx="14.38" ry="14.38" stroke="#000000" stroke-width="1" opacity="1.0" fill="#185abc"/><ellipse cx="269.92" cy="1872.79" rx="14.38" ry="14.38" stroke="#000000" stroke-width="1" opacity="1.0" fill="#185abc"/><ellipse cx="269.92" cy="1937.98" rx="14.38" ry="14.38" stroke="#000000" stroke-width="1" opacity="1.0" fill="#185abc"/><ellipse cx="409.70" cy="1872.82" rx="17.97" ry="17.97" stroke="#000000" stroke-width="1" opacity="1.0" fill="#185abc"/><polyline points="298.14,1881.43 328.54,1881.43 328.54,1881.43 330.42,1878.36 332.43,1875.39 334.26,1872.76 334.26,1872.76 332.84,1870.77 331.45,1868.69 330.08,1866.46 329.40,1865.27 328.72,1864.02 298.14,1864.02 298.14,1864.02 298.58,1865.71 298.93,1867.43 299.19,1869.18 299.35,1870.94 299.35,1874.62 299.35,1874.62 299.21,1876.34 298.96,1878.06 298.60,1879.75 298.14,1881.43 298.14,1881.43" fill="#669df6" stroke="#000000" stroke-width="1" opacity="1.0" stroke-linecap="round" stroke-linejoin="round"/><polyline points="355.20,1846.37 353.20,1842.78 350.78,1838.74 346.98,1831.14 346.98,1831.14 345.96,1829.13 344.93,1827.18 343.90,1825.30 342.86,1823.49 341.80,1821.75 340.74,1820.08 339.66,1818.47 338.57,1816.93 337.46,1815.46 336.32,1814.05 335.17,1812.71 333.99,1811.43 332.78,1810.22 331.55,1809.08 330.28,1808.00 328.98,1806.98 327.65,1806.03 326.28,1805.14 324.88,1804.31 323.43,1803.55 321.94,1802.85 320.40,1802.21 318.82,1801.64 317.19,1801.13 315.51,1800.67 313.77,1800.28 311.99,1799.95 310.14,1799.69 308.24,1799.48 306.27,1799.33 304.24,1799.24 302.15,1799.21 298.14,1799.21 298.14,1799.21 298.68,1801.35 299.07,1803.53 299.29,1805.73 299.35,1807.96 299.29,1810.17 299.07,1812.37 298.68,1814.55 298.14,1816.71 302.12,1816.71 302.12,1816.71 304.66,1816.76 307.03,1816.93 309.24,1817.22 311.32,1817.65 313.27,1818.21 315.11,1818.93 316.86,1819.81 318.53,1820.87 320.13,1822.10 321.68,1823.53 323.20,1825.16 324.69,1827.00 326.19,1829.06 326.94,1830.17 327.69,1831.35 328.45,1832.58 329.21,1833.87 329.99,1835.23 330.78,1836.65 332.87,1840.42 334.96,1844.63 334.96,1844.63 336.13,1846.97 337.28,1849.21 338.41,1851.36 339.54,1853.42 340.65,1855.40 341.76,1857.29 342.86,1859.11 343.97,1860.83 345.08,1862.48 346.19,1864.05 347.31,1865.54 348.44,1866.96 349.58,1868.30 350.74,1869.58 351.92,1870.77 353.12,1871.90 354.35,1872.96 355.60,1873.96 356.89,1874.89 358.21,1875.75 359.56,1876.56 360.95,1877.30 362.39,1877.98 363.87,1878.61 365.40,1879.18 366.97,1879.69 368.60,1880.16 370.29,1880.57 372.03,1880.93 373.84,1881.24 375.71,1881.50 377.65,1881.72 377.20,1879.56 376.88,1877.38 376.68,1875.18 376.62,1872.97 376.69,1870.76 376.92,1868.56 377.30,1866.38 377.82,1864.22 378.35,1864.22 378.35,1864.22 376.48,1864.00 374.70,1863.68 373.01,1863.28 371.40,1862.77 369.85,1862.15 368.37,1861.42 366.94,1860.56 365.56,1859.58 364.22,1858.47 362.90,1857.21 361.61,1855.81 360.33,1854.26 359.06,1852.54 357.79,1850.66 356.50,1848.60 355.20,1846.37 355.20,1846.37" fill="#185abc" stroke="#000000" stroke-width="1" opacity="1.0" stroke-linecap="round" stroke-linejoin="round"/><polyline points="339.26,1893.33 337.17,1897.27 333.87,1903.93 331.78,1907.88 329.78,1911.47 329.78,1911.47 329.04,1912.76 328.31,1914.00 326.86,1916.30 325.43,1918.38 323.99,1920.26 322.55,1921.93 321.08,1923.42 319.57,1924.72 318.01,1925.85 316.39,1926.82 314.68,1927.63 312.89,1928.29 310.99,1928.81 308.97,1929.20 306.83,1929.47 304.54,1929.63 302.09,1929.68 298.14,1929.68 298.14,1929.68 298.60,1931.37 298.96,1933.09 299.21,1934.84 299.35,1936.60 299.35,1939.84 299.35,1939.84 299.19,1941.60 298.94,1943.33 298.60,1945.05 298.14,1946.76 304.39,1946.76 304.39,1946.76 306.31,1946.68 308.19,1946.53 310.01,1946.34 311.78,1946.08 313.50,1945.77 315.17,1945.40 316.79,1944.97 318.38,1944.49 319.92,1943.95 321.42,1943.35 322.88,1942.69 324.30,1941.98 325.69,1941.20 327.04,1940.36 328.36,1939.47 329.66,1938.52 330.92,1937.50 332.16,1936.43 333.37,1935.29 334.56,1934.10 335.73,1932.84 336.88,1931.52 338.01,1930.15 339.12,1928.70 340.22,1927.20 341.31,1925.64 342.38,1924.01 343.45,1922.32 344.51,1920.56 345.56,1918.74 346.61,1916.86 347.66,1914.92 352.34,1905.55 354.17,1902.13 355.73,1899.25 355.73,1899.25 357.72,1896.03 358.78,1894.47 359.88,1892.94 357.89,1892.14 355.94,1891.25 354.02,1890.28 352.16,1889.22 350.33,1888.08 348.55,1886.87 346.83,1885.57 345.16,1884.19 343.54,1886.38 342.02,1888.63 340.59,1890.95 339.26,1893.33 339.26,1893.33" fill="#669df6" stroke="#000000" stroke-width="1" opacity="1.0" stroke-linecap="round" stroke-linejoin="round"/><text x="250.32" y="1990.85" font-size="33.4285714285714" fill="#000000" opacity="1.0" font-family="sans-serif">Datastream</text></svg>