<svg xmlns="http://www.w3.org/2000/svg" viewBox="529.52 49.28 172.00 84.00" width="172" height="84"><rect x="535.52" y="55.28" width="160.00" height="72.00" rx="0" stroke="#4285f4" stroke-width="2" opacity="1.0" fill="#FFF"/><text x="600.52" y="96.28" font-size="12" fill="#000000" opacity="1.0" font-family="sans-serif">Error Reporting</text><polyline points="561.06,77.41 554.16,84.32 554.16,98.14 561.06,105.05 567.98,105.05 564.52,101.09 562.80,101.09 558.11,96.41 558.11,86.05 562.80,81.37 564.52,81.37 567.98,77.41 561.06,77.41" fill="#669df6" stroke="none" stroke-width="1" opacity="1.0" stroke-linecap="round" stroke-linejoin="round"/><polyline points="571.43,77.41 567.98,81.37 573.15,81.37 577.84,86.05 577.84,96.41 573.15,101.09 567.98,101.09 571.43,105.05 574.89,105.05 581.79,98.14 581.79,84.32 574.89,77.41 571.43,77.41" fill="#669df6" stroke="none" stroke-width="1" opacity="1.0" stroke-linecap="round" stroke-linejoin="round"/><polyline points="567.98,98.14 564.52,94.68 567.98,91.23 564.52,87.78 567.98,84.32 564.52,84.32 561.06,87.78 561.06,94.68 564.52,98.14 567.98,98.14" fill="#4285f4" stroke="none" stroke-width="1" opacity="1.0" stroke-linecap="round" stroke-linejoin="round"/><polyline points="571.43,84.32 567.98,87.78 571.43,91.23 567.98,94.68 571.43,98.14 574.89,94.68 574.89,87.78 571.43,84.32" fill="#4285f4" stroke="none" stroke-width="1" opacity="1.0" stroke-linecap="round" stroke-linejoin="round"/></svg>