<svg version="1.1" xmlns="http://www.w3.org/2000/svg" viewBox="0 0 122.15939193989652 121.84062265455123" width="122.15939193989652" height="121.84062265455123">
  <!-- svg-source:excalidraw -->
  
  <defs>
    
    
  </defs>
  <g stroke-linecap="round" transform="translate(6 6) rotate(0 24.31947382594467 5.972847463232483)"><path d="M-0.28 0.22 L48.16 -0.64 L47.75 11.12 L-0.83 11.03" stroke="none" stroke-width="0" fill="#4285f4"></path><path d="M0 0 C17.34 -0.04, 35.06 0.48, 48.64 0 M0 0 C19.01 -0.19, 37.53 0, 48.64 0 M48.64 0 C48.55 3.63, 48.1 7.77, 48.64 11.95 M48.64 0 C48.61 2.45, 48.46 5.34, 48.64 11.95 M48.64 11.95 C37.74 11.93, 27.61 12.52, 0 11.95 M48.64 11.95 C34.18 11.59, 19.86 12.01, 0 11.95 M0 11.95 C0.29 8.79, 0.54 5.45, 0 0 M0 11.95 C-0.3 8.58, -0.16 5.12, 0 0" stroke="#1864ab" stroke-width="1" fill="none"></path></g><g stroke-linecap="round" transform="translate(67.52044428800718 6.255389973768615) rotate(0 24.31947382594467 5.972847463232483)"><path d="M-0.07 -0.04 L47.78 -0.92 L47.92 11.98 L0.87 11.02" stroke="none" stroke-width="0" fill="#4285f4"></path><path d="M0 0 C10.06 0.97, 21.01 -0.19, 48.64 0 M0 0 C10.65 -0.53, 21.72 -0.09, 48.64 0 M48.64 0 C48.1 4.13, 48.58 8.28, 48.64 11.95 M48.64 0 C48.6 4.47, 48.46 9.62, 48.64 11.95 M48.64 11.95 C34.62 11.11, 21.64 12.62, 0 11.95 M48.64 11.95 C34.75 12.18, 20.69 12.38, 0 11.95 M0 11.95 C0.19 9.42, 0.33 6.28, 0 0 M0 11.95 C-0.13 9.44, 0.32 6.33, 0 0" stroke="#1864ab" stroke-width="1" fill="none"></path></g><g stroke-linecap="round" transform="translate(67.20989612944823 103.83447739394978) rotate(0 24.31947382594467 5.972847463232483)"><path d="M0.73 0.98 L48 0.97 L47.91 11.17 L-0.37 11.99" stroke="none" stroke-width="0" fill="#4285f4"></path><path d="M0 0 C16.73 -0.9, 32.46 0.56, 48.64 0 M0 0 C11.71 -0.27, 24.2 -0.67, 48.64 0 M48.64 0 C49.12 1.93, 48.14 4.85, 48.64 11.95 M48.64 0 C48.51 4.4, 48.97 8.24, 48.64 11.95 M48.64 11.95 C37.45 11.4, 24.31 11.4, 0 11.95 M48.64 11.95 C37.77 11.68, 27.44 11.67, 0 11.95 M0 11.95 C0.2 7.25, 0.16 3.19, 0 0 M0 11.95 C0.09 9.02, -0.14 6.62, 0 0" stroke="#1864ab" stroke-width="1" fill="none"></path></g><g stroke-linecap="round" transform="translate(6.60122883492204 103.89492772808626) rotate(0 24.31947382594467 5.972847463232483)"><path d="M0.03 -0.22 L49.27 0.73 L48.32 11.99 L-0.95 11.82" stroke="none" stroke-width="0" fill="#4285f4"></path><path d="M0 0 C18.32 0.58, 38.24 -0.68, 48.64 0 M0 0 C15.93 0.32, 31.31 0.16, 48.64 0 M48.64 0 C48.76 3.79, 48.19 8.42, 48.64 11.95 M48.64 0 C48.63 2.3, 48.79 4.94, 48.64 11.95 M48.64 11.95 C31.03 12.45, 15.75 11.78, 0 11.95 M48.64 11.95 C34 12.2, 18.24 11.62, 0 11.95 M0 11.95 C-0.35 8.78, -0.03 6.16, 0 0 M0 11.95 C0.16 8.98, 0.07 5.53, 0 0" stroke="#1864ab" stroke-width="1" fill="none"></path></g><g stroke-linecap="round" transform="translate(37.246394787581266 79.46539614451649) rotate(0 24.31947382594467 5.972847463232483)"><path d="M-0.89 0.35 L49.2 0.44 L49.29 12.65 L0.93 11.6" stroke="none" stroke-width="0" fill="#4285f4"></path><path d="M0 0 C15.71 0.83, 29.71 0.08, 48.64 0 M0 0 C14.58 0.26, 30.35 -0.18, 48.64 0 M48.64 0 C48.7 4.58, 49.03 8.74, 48.64 11.95 M48.64 0 C48.93 2.37, 48.61 5.14, 48.64 11.95 M48.64 11.95 C36.15 12.23, 23.58 12.21, 0 11.95 M48.64 11.95 C35.24 11.7, 22.88 12.31, 0 11.95 M0 11.95 C0.19 7.8, -0.5 3.48, 0 0 M0 11.95 C0.01 7.94, -0.02 3.42, 0 0" stroke="#1864ab" stroke-width="1" fill="none"></path></g><g stroke-linecap="round" transform="translate(67.39287497354417 55.49674036192209) rotate(0 24.31947382594467 5.972847463232483)"><path d="M-0.53 0.3 L48.62 0.89 L49.47 12.71 L-0.36 12.72" stroke="none" stroke-width="0" fill="#4285f4"></path><path d="M0 0 C10.9 0.37, 22.74 -0.24, 48.64 0 M0 0 C9.37 -0.55, 19.76 -0.25, 48.64 0 M48.64 0 C48.31 2.33, 49.03 5.18, 48.64 11.95 M48.64 0 C48.81 3.04, 48.45 5.38, 48.64 11.95 M48.64 11.95 C36.65 12.69, 26.43 12.29, 0 11.95 M48.64 11.95 C38.3 12.06, 27.64 11.75, 0 11.95 M0 11.95 C-0.07 8.35, 0.34 4.08, 0 0 M0 11.95 C0.24 7.65, 0.26 3.87, 0 0" stroke="#1864ab" stroke-width="1" fill="none"></path></g><g stroke-linecap="round" transform="translate(6.517257367789625 55.740751473895216) rotate(0 24.31947382594467 5.972847463232483)"><path d="M-0.83 -0.88 L48.31 -0.64 L48.55 12.58 L-0.79 11.93" stroke="none" stroke-width="0" fill="#4285f4"></path><path d="M0 0 C9.23 -0.62, 20.8 0.33, 48.64 0 M0 0 C16.76 0.19, 34.52 -0.05, 48.64 0 M48.64 0 C48.09 3.46, 48.88 7.39, 48.64 11.95 M48.64 0 C48.53 3.34, 48.51 6.51, 48.64 11.95 M48.64 11.95 C30.5 12.91, 13.22 12.79, 0 11.95 M48.64 11.95 C35.93 11.39, 23.02 11.84, 0 11.95 M0 11.95 C0.2 7.21, 0.37 2.75, 0 0 M0 11.95 C0.26 8.02, -0.25 4.56, 0 0" stroke="#1864ab" stroke-width="1" fill="none"></path></g><g stroke-linecap="round" transform="translate(36.93106533552191 30.45345740882567) rotate(0 24.31947382594467 5.972847463232483)"><path d="M-0.88 -0.67 L49.14 0.97 L47.67 12.03 L0.46 12.56" stroke="none" stroke-width="0" fill="#4285f4"></path><path d="M0 0 C10.11 -0.13, 21.36 0.11, 48.64 0 M0 0 C17.68 0.25, 35.27 0.38, 48.64 0 M48.64 0 C49.15 4.58, 48.34 7.57, 48.64 11.95 M48.64 0 C48.38 3.05, 48.88 5.78, 48.64 11.95 M48.64 11.95 C36.33 11.77, 24.19 11.52, 0 11.95 M48.64 11.95 C30.34 12.17, 11.16 11.83, 0 11.95 M0 11.95 C0.41 7.92, 0.31 4.44, 0 0 M0 11.95 C0.17 8.34, 0.18 4.48, 0 0" stroke="#1864ab" stroke-width="1" fill="none"></path></g><g stroke-linecap="round" transform="translate(6.530248645530037 31.051630254624797) rotate(0 8.524753844208703 5.972847463232483)"><path d="M-0.57 0.46 L17.57 -0.3 L16.75 12.78 L-0.66 12.82" stroke="none" stroke-width="0" fill="#4285f4"></path><path d="M0 0 C4.3 -0.71, 8.26 0.65, 17.05 0 M0 0 C6.81 0.14, 13.12 -0.24, 17.05 0 M17.05 0 C17.63 5.16, 17.42 9.11, 17.05 11.95 M17.05 0 C16.94 4.09, 16.81 8.23, 17.05 11.95 M17.05 11.95 C13.28 11.92, 7.89 11.27, 0 11.95 M17.05 11.95 C11.91 11.55, 7.6 12.06, 0 11.95 M0 11.95 C-0.22 9.83, 0.2 6.57, 0 0 M0 11.95 C0.21 8.81, 0.04 5.79, 0 0" stroke="#1864ab" stroke-width="1" fill="none"></path></g><g stroke-linecap="round" transform="translate(98.67981948330475 30.02536649701142) rotate(0 8.524753844208703 5.972847463232483)"><path d="M0.22 -0.43 L17.57 -0.93 L17.98 11.65 L-0.83 11.99" stroke="none" stroke-width="0" fill="#4285f4"></path><path d="M0 0 C4.79 -0.27, 8.65 0.7, 17.05 0 M0 0 C5.18 -0.13, 11.12 -0.08, 17.05 0 M17.05 0 C17.59 2.41, 16.78 6, 17.05 11.95 M17.05 0 C16.83 4.12, 16.88 8.73, 17.05 11.95 M17.05 11.95 C12.35 12.33, 6.41 12.67, 0 11.95 M17.05 11.95 C12.74 11.8, 8.83 12.33, 0 11.95 M0 11.95 C-0.19 9.39, -0.56 7.05, 0 0 M0 11.95 C0.06 7.97, 0.06 4.46, 0 0" stroke="#1864ab" stroke-width="1" fill="none"></path></g><g stroke-linecap="round" transform="translate(98.62307307884362 80.01949144084574) rotate(0 8.524753844208703 5.972847463232483)"><path d="M-0.2 0.86 L17.59 -0.41 L17.26 12.73 L0.78 11.6" stroke="none" stroke-width="0" fill="#4285f4"></path><path d="M0 0 C5.38 -0.73, 10.99 -0.62, 17.05 0 M0 0 C5.99 0.09, 11.72 -0.22, 17.05 0 M17.05 0 C16.56 4.23, 16.83 7.72, 17.05 11.95 M17.05 0 C16.92 3.58, 16.75 7.69, 17.05 11.95 M17.05 11.95 C12.33 12.02, 5.22 12.29, 0 11.95 M17.05 11.95 C12.51 12.31, 7.12 12.02, 0 11.95 M0 11.95 C-0.29 7.82, -0.09 4.48, 0 0 M0 11.95 C-0.22 8.05, 0.24 4.41, 0 0" stroke="#1864ab" stroke-width="1" fill="none"></path></g><g stroke-linecap="round" transform="translate(7.103484843805973 79.50344989329096) rotate(0 8.524753844208703 5.972847463232483)"><path d="M-0.39 0.29 L16.44 -0.47 L16.92 12.57 L0.96 12.26" stroke="none" stroke-width="0" fill="#4285f4"></path><path d="M0 0 C4.7 -0.34, 8.8 0.24, 17.05 0 M0 0 C7.07 -0.25, 13.58 -0.05, 17.05 0 M17.05 0 C16.52 3.24, 16.96 7.35, 17.05 11.95 M17.05 0 C17.19 2.93, 17.25 5.73, 17.05 11.95 M17.05 11.95 C10.28 12.14, 4.73 12.07, 0 11.95 M17.05 11.95 C11.18 12.27, 5.15 11.94, 0 11.95 M0 11.95 C-0.42 7.63, -0.01 4.64, 0 0 M0 11.95 C-0.23 8.29, 0.08 5.15, 0 0" stroke="#1864ab" stroke-width="1" fill="none"></path></g></svg>