<svg xmlns="http://www.w3.org/2000/svg" viewBox="723.51 466.06 262.67 250.76" width="263" height="251"><polyline points="824.70,487.22 888.59,515.50 888.59,558.38 888.59,558.38 888.54,562.13 888.34,565.85 887.99,569.53 887.49,573.18 886.85,576.79 886.07,580.35 885.15,583.87 884.10,587.33 882.91,590.74 881.59,594.10 880.15,597.39 878.58,600.62 876.88,603.78 875.07,606.86 873.13,609.88 871.09,612.81 868.92,615.66 866.65,618.43 864.27,621.11 861.79,623.69 859.20,626.18 856.52,628.57 853.73,630.86 850.85,633.04 847.88,635.11 844.82,637.06 841.67,638.90 838.44,640.62 835.12,642.22 831.72,643.69 828.25,645.03 824.70,646.23 821.15,645.03 817.68,643.69 814.29,642.23 810.97,640.64 807.74,638.92 804.59,637.08 801.53,635.13 798.56,633.06 795.68,630.89 792.90,628.60 790.21,626.22 787.63,623.73 785.14,621.15 782.76,618.48 780.49,615.72 778.33,612.87 776.28,609.94 774.35,606.93 772.54,603.85 770.84,600.69 769.27,597.47 767.82,594.18 766.50,590.83 765.31,587.42 764.26,583.96 763.34,580.45 762.56,576.89 761.91,573.28 761.42,569.64 761.06,565.96 760.86,562.24 760.80,558.50 760.80,515.70 824.70,487.43" fill="#669df6" stroke="#000000" stroke-width="1" opacity="1.0" stroke-linecap="round" stroke-linejoin="round"/><polyline points="824.70,472.06 746.97,506.74 746.97,558.47 746.97,558.47 747.03,562.89 747.26,567.27 747.68,571.61 748.27,575.91 749.04,580.15 749.98,584.35 751.08,588.48 752.34,592.55 753.76,596.56 755.34,600.49 757.08,604.35 758.96,608.13 760.99,611.83 763.17,615.43 765.48,618.95 767.94,622.37 770.52,625.69 773.24,628.90 776.09,632.01 779.06,635.00 782.15,637.87 785.37,640.63 788.69,643.25 792.13,645.75 795.68,648.11 799.34,650.33 803.10,652.41 806.95,654.35 810.91,656.13 814.95,657.76 819.09,659.22 823.31,660.52 826.14,660.52 826.14,660.52 830.34,659.23 834.46,657.77 838.50,656.16 842.43,654.39 846.28,652.46 850.02,650.39 853.66,648.18 857.20,645.83 860.63,643.35 863.95,640.74 867.16,638.00 870.24,635.14 873.21,632.16 876.05,629.07 878.77,625.87 881.35,622.57 883.81,619.17 886.12,615.67 888.30,612.08 890.33,608.40 892.22,604.64 893.96,600.80 895.55,596.88 896.98,592.89 898.25,588.84 899.36,584.72 900.31,580.55 901.09,576.32 901.69,572.05 902.13,567.72 902.38,563.36 902.46,558.96 902.46,506.74 824.70,472.06 824.70,472.06" fill="#669df6" stroke="#000000" stroke-width="1" opacity="1.0" stroke-linecap="round" stroke-linejoin="round"/><polyline points="824.70,487.22 888.59,515.50 888.59,558.38 888.59,558.38 888.54,562.13 888.34,565.85 887.99,569.53 887.49,573.18 886.85,576.79 886.07,580.35 885.15,583.87 884.10,587.33 882.91,590.74 881.59,594.10 880.15,597.39 878.58,600.62 876.88,603.78 875.07,606.86 873.13,609.88 871.09,612.81 868.92,615.66 866.65,618.43 864.27,621.11 861.79,623.69 859.20,626.18 856.52,628.57 853.73,630.86 850.85,633.04 847.88,635.11 844.82,637.06 841.67,638.90 838.44,640.62 835.12,642.22 831.72,643.69 828.25,645.03 824.70,646.23 821.15,645.03 817.68,643.69 814.29,642.23 810.97,640.64 807.74,638.92 804.59,637.08 801.53,635.13 798.56,633.06 795.68,630.89 792.90,628.60 790.21,626.22 787.63,623.73 785.14,621.15 782.76,618.48 780.49,615.72 778.33,612.87 776.28,609.94 774.35,606.93 772.54,603.85 770.84,600.69 769.27,597.47 767.82,594.18 766.50,590.83 765.31,587.42 764.26,583.96 763.34,580.45 762.56,576.89 761.91,573.28 761.42,569.64 761.06,565.96 760.86,562.24 760.80,558.50 760.80,515.70 824.70,487.43" fill="#fff" stroke="#000000" stroke-width="1" opacity="1.0" stroke-linecap="round" stroke-linejoin="round"/><polyline points="845.16,585.82 798.33,632.88 798.33,632.88 801.25,634.93 804.25,636.86 807.34,638.68 810.52,640.38 854.96,595.71 845.16,585.82 845.16,585.82" fill="#aecbfa" stroke="#000000" stroke-width="1" opacity="1.0" stroke-linecap="round" stroke-linejoin="round"/><polyline points="837.32,546.34 775.41,608.59 775.41,608.59 777.38,611.51 779.45,614.36 781.63,617.12 783.92,619.80 847.15,556.22 837.32,546.34 837.32,546.34" fill="#aecbfa" stroke="#000000" stroke-width="1" opacity="1.0" stroke-linecap="round" stroke-linejoin="round"/><polyline points="798.13,538.32 762.10,574.49 762.10,574.49 762.88,578.49 763.83,582.42 764.94,586.29 766.22,590.09 807.92,548.21 798.13,538.32 798.13,538.32" fill="#aecbfa" stroke="#000000" stroke-width="1" opacity="1.0" stroke-linecap="round" stroke-linejoin="round"/><ellipse cx="850.06" cy="591.01" rx="13.37" ry="13.37" stroke="#000000" stroke-width="1" opacity="1.0" fill="#669df6"/><ellipse cx="842.13" cy="551.70" rx="13.37" ry="13.37" stroke="#000000" stroke-width="1" opacity="1.0" fill="#669df6"/><ellipse cx="802.94" cy="543.68" rx="13.37" ry="13.37" stroke="#000000" stroke-width="1" opacity="1.0" fill="#669df6"/><text x="729.51" y="705.77" font-size="33.94285714285716" fill="#000000" opacity="1.0" font-family="sans-serif">Cloud Armor</text></svg>