<svg version="1.1" xmlns="http://www.w3.org/2000/svg" viewBox="0 0 173 253.51354720992447" width="173" height="253.51354720992447">
  <!-- svg-source:excalidraw -->
  
  <defs>
    
    
  </defs>
  <g stroke-linecap="round"><g transform="translate(108.34653376283427 9.24837608343023) rotate(0 -36.91665609443976 22.83043355076785)" fill-rule="evenodd"><path d="M0 0 L0 0 L-20.26 -3.25 L-40.17 -0.51 L-58.46 7.84 L-73.83 21.42 L-41.14 48.91 L0 0" stroke="none" stroke-width="0" fill="#1a73e8" fill-rule="evenodd"></path><path d="M0 0 C0 0, 0 0, 0 0 M0 0 C0 0, 0 0, 0 0 M0 0 C-4.31 -0.69, -8.62 -1.38, -20.26 -3.25 M0 0 C-6.34 -1.02, -12.69 -2.03, -20.26 -3.25 M-20.26 -3.25 C-27.43 -2.26, -34.61 -1.28, -40.17 -0.51 M-20.26 -3.25 C-27.75 -2.22, -35.24 -1.19, -40.17 -0.51 M-40.17 -0.51 C-43.88 1.18, -47.58 2.87, -58.46 7.84 M-40.17 -0.51 C-45.61 1.97, -51.04 4.45, -58.46 7.84 M-58.46 7.84 C-62.3 11.23, -66.14 14.62, -73.83 21.42 M-58.46 7.84 C-64.04 12.77, -69.62 17.7, -73.83 21.42 M-73.83 21.42 C-66.7 27.42, -59.57 33.41, -41.14 48.91 M-73.83 21.42 C-65.95 28.05, -58.07 34.67, -41.14 48.91 M-41.14 48.91 C-29.53 35.11, -17.92 21.3, 0 0 M-41.14 48.91 C-29.77 35.39, -18.41 21.88, 0 0 M0 0 C0 0, 0 0, 0 0 M0 0 C0 0, 0 0, 0 0" stroke="#000000" stroke-width="1" fill="none"></path></g></g><mask></mask><g stroke-linecap="round"><g transform="translate(34.51322157395407 30.67284304978193) rotate(0 8.279573912046658 38.666465228007155)" fill-rule="evenodd"><path d="M0 0 L0 0 L-6.93 9.9 L-11.99 20.77 L-15.09 32.35 L-16.13 44.39 L-14.53 61.24 L-9.3 77.33 L32.69 27.48 L0 0" stroke="none" stroke-width="0" fill="#ea4335" fill-rule="evenodd"></path><path d="M0 0 C0 0, 0 0, 0 0 M0 0 C0 0, 0 0, 0 0 M0 0 C-2.18 3.12, -4.36 6.23, -6.93 9.9 M0 0 C-1.85 2.64, -3.7 5.28, -6.93 9.9 M-6.93 9.9 C-8.18 12.58, -9.42 15.26, -11.99 20.77 M-6.93 9.9 C-8.23 12.69, -9.53 15.49, -11.99 20.77 M-11.99 20.77 C-13.16 25.15, -14.33 29.53, -15.09 32.35 M-11.99 20.77 C-13.2 25.3, -14.41 29.83, -15.09 32.35 M-15.09 32.35 C-15.46 36.59, -15.82 40.83, -16.13 44.39 M-15.09 32.35 C-15.44 36.38, -15.79 40.41, -16.13 44.39 M-16.13 44.39 C-15.64 49.53, -15.16 54.67, -14.53 61.24 M-16.13 44.39 C-15.74 48.56, -15.34 52.73, -14.53 61.24 M-14.53 61.24 C-13.13 65.55, -11.73 69.86, -9.3 77.33 M-14.53 61.24 C-13.3 65.02, -12.07 68.81, -9.3 77.33 M-9.3 77.33 C1.64 64.34, 12.59 51.34, 32.69 27.48 M-9.3 77.33 C3.41 62.24, 16.12 47.15, 32.69 27.48 M32.69 27.48 C23.21 19.51, 13.72 11.54, 0 0 M32.69 27.48 C25.92 21.79, 19.15 16.1, 0 0 M0 0 C0 0, 0 0, 0 0 M0 0 C0 0, 0 0, 0 0" stroke="#000000" stroke-width="1" fill="none"></path></g></g><mask></mask><g stroke-linecap="round"><g transform="translate(87.4342094197541 48.683051188952504) rotate(0 20.528229363377704 1.920517501137624)" fill-rule="evenodd"><path d="M0 0 L0 0 L10.29 2.05 L18.71 7.69 L24.38 16.09 L26.46 26.38 L24.84 35.48 L20.14 43.45 L61.29 -5.46 L61.29 -5.46 L53.88 -16.87 L44.48 -26.54 L33.39 -34.2 L20.91 -39.61 L-20.23 9.47 L-20.23 9.47 L-11.17 2.47 L0 0 L0 0" stroke="none" stroke-width="0" fill="#4285f4" fill-rule="evenodd"></path><path d="M0 0 C0 0, 0 0, 0 0 M0 0 C0 0, 0 0, 0 0 M0 0 C2.9 0.58, 5.81 1.16, 10.29 2.05 M0 0 C3.22 0.64, 6.44 1.28, 10.29 2.05 M10.29 2.05 C13.22 4.01, 16.15 5.98, 18.71 7.69 M10.29 2.05 C13.54 4.23, 16.78 6.41, 18.71 7.69 M18.71 7.69 C20.55 10.43, 22.4 13.16, 24.38 16.09 M18.71 7.69 C20.78 10.77, 22.86 13.84, 24.38 16.09 M24.38 16.09 C24.92 18.76, 25.46 21.43, 26.46 26.38 M24.38 16.09 C25.18 20.03, 25.97 23.97, 26.46 26.38 M26.46 26.38 C26.1 28.4, 25.74 30.43, 24.84 35.48 M26.46 26.38 C25.85 29.79, 25.24 33.2, 24.84 35.48 M24.84 35.48 C23.59 37.6, 22.33 39.73, 20.14 43.45 M24.84 35.48 C23.5 37.75, 22.16 40.02, 20.14 43.45 M20.14 43.45 C31.62 29.81, 43.09 16.17, 61.29 -5.46 M20.14 43.45 C34.89 25.91, 49.64 8.38, 61.29 -5.46 M61.29 -5.46 C61.29 -5.46, 61.29 -5.46, 61.29 -5.46 M61.29 -5.46 C61.29 -5.46, 61.29 -5.46, 61.29 -5.46 M61.29 -5.46 C58.77 -9.33, 56.26 -13.21, 53.88 -16.87 M61.29 -5.46 C58.54 -9.7, 55.79 -13.93, 53.88 -16.87 M53.88 -16.87 C51.93 -18.88, 49.99 -20.88, 44.48 -26.54 M53.88 -16.87 C50.27 -20.59, 46.65 -24.3, 44.48 -26.54 M44.48 -26.54 C41.29 -28.74, 38.1 -30.95, 33.39 -34.2 M44.48 -26.54 C42.23 -28.1, 39.97 -29.66, 33.39 -34.2 M33.39 -34.2 C29.23 -36, 25.07 -37.8, 20.91 -39.61 M33.39 -34.2 C29.17 -36.03, 24.94 -37.86, 20.91 -39.61 M20.91 -39.61 C6.59 -22.52, -7.72 -5.44, -20.23 9.47 M20.91 -39.61 C9.29 -25.74, -2.33 -11.88, -20.23 9.47 M-20.23 9.47 C-20.23 9.47, -20.23 9.47, -20.23 9.47 M-20.23 9.47 C-20.23 9.47, -20.23 9.47, -20.23 9.47 M-20.23 9.47 C-16.78 6.8, -13.32 4.13, -11.17 2.47 M-20.23 9.47 C-16.88 6.88, -13.53 4.29, -11.17 2.47 M-11.17 2.47 C-7.27 1.61, -3.37 0.75, 0 0 M-11.17 2.47 C-7.93 1.76, -4.69 1.04, 0 0 M0 0 C0 0, 0 0, 0 0 M0 0 C0 0, 0 0, 0 0 M0 0 C0 0, 0 0, 0 0 M0 0 C0 0, 0 0, 0 0" stroke="#000000" stroke-width="1" fill="none"></path></g></g><mask></mask><g stroke-linecap="round"><g transform="translate(87.43420941975523 101.51868918500304) rotate(0 -20.95500369420222 3.8837132468364075)" fill-rule="evenodd"><path d="M0 0 L0 0 L-10.3 -2.08 L-18.71 -7.75 L-24.38 -16.16 L-26.46 -26.46 L-24.87 -35.55 L-20.23 -43.53 L-62.22 6.49 L-62.22 6.49 L-47.82 29.77 L-30.9 51.3 L20.31 -9.39 L20.31 -9.39 L11.21 -2.42 L0 0 L0 0" stroke="none" stroke-width="0" fill="#fbbc04" fill-rule="evenodd"></path><path d="M0 0 C0 0, 0 0, 0 0 M0 0 C0 0, 0 0, 0 0 M0 0 C-3.25 -0.66, -6.49 -1.31, -10.3 -2.08 M0 0 C-2.28 -0.46, -4.56 -0.92, -10.3 -2.08 M-10.3 -2.08 C-12.17 -3.34, -14.03 -4.6, -18.71 -7.75 M-10.3 -2.08 C-12.02 -3.24, -13.73 -4.39, -18.71 -7.75 M-18.71 -7.75 C-20.19 -9.94, -21.67 -12.14, -24.38 -16.16 M-18.71 -7.75 C-20.45 -10.34, -22.2 -12.92, -24.38 -16.16 M-24.38 -16.16 C-25.16 -20.03, -25.94 -23.89, -26.46 -26.46 M-24.38 -16.16 C-25.1 -19.71, -25.81 -23.25, -26.46 -26.46 M-26.46 -26.46 C-25.93 -29.49, -25.4 -32.51, -24.87 -35.55 M-26.46 -26.46 C-26.08 -28.67, -25.69 -30.87, -24.87 -35.55 M-24.87 -35.55 C-23.85 -37.32, -22.82 -39.08, -20.23 -43.53 M-24.87 -35.55 C-23.02 -38.73, -21.17 -41.91, -20.23 -43.53 M-20.23 -43.53 C-30.59 -31.19, -40.96 -18.85, -62.22 6.49 M-20.23 -43.53 C-34.07 -27.05, -47.91 -10.56, -62.22 6.49 M-62.22 6.49 C-62.22 6.49, -62.22 6.49, -62.22 6.49 M-62.22 6.49 C-62.22 6.49, -62.22 6.49, -62.22 6.49 M-62.22 6.49 C-59.26 11.27, -56.3 16.06, -47.82 29.77 M-62.22 6.49 C-59.2 11.38, -56.17 16.28, -47.82 29.77 M-47.82 29.77 C-42.53 36.5, -37.25 43.22, -30.9 51.3 M-47.82 29.77 C-43.1 35.77, -38.39 41.76, -30.9 51.3 M-30.9 51.3 C-10.55 27.18, 9.81 3.06, 20.31 -9.39 M-30.9 51.3 C-12.19 29.13, 6.53 6.95, 20.31 -9.39 M20.31 -9.39 C20.31 -9.39, 20.31 -9.39, 20.31 -9.39 M20.31 -9.39 C20.31 -9.39, 20.31 -9.39, 20.31 -9.39 M20.31 -9.39 C17.62 -7.32, 14.92 -5.26, 11.21 -2.42 M20.31 -9.39 C18.36 -7.89, 16.4 -6.39, 11.21 -2.42 M11.21 -2.42 C7.83 -1.69, 4.44 -0.96, 0 0 M11.21 -2.42 C6.83 -1.47, 2.44 -0.53, 0 0 M0 0 C0 0, 0 0, 0 0 M0 0 C0 0, 0 0, 0 0 M0 0 C0 0, 0 0, 0 0 M0 0 C0 0, 0 0, 0 0" stroke="#000000" stroke-width="1" fill="none"></path></g></g><mask></mask><g stroke-linecap="round"><g transform="translate(106.63940693122026 169.3770604140667) rotate(0 -0.12803215170583826 -45.537666659739386)" fill-rule="evenodd"><path d="M0 0 L0 0 L17.51 -24.03 L33.57 -44.9 L40.15 -55.45 L45.3 -66.79 L48.65 -79.42 L49.85 -93.89 L47.88 -110.28 L42.08 -125.73 L-50.1 -16.56 L-50.1 -16.56 L-38.41 0 L-33.91 7.71 L-30.74 14.56 L-26.92 25.46 L-24.04 32.29 L-19.21 34.65 L-14.37 32.29 L-11.49 25.46 L-7.67 14.56 L-4.5 7.71 L0 0 L0 0" stroke="none" stroke-width="0" fill="#34a853" fill-rule="evenodd"></path><path d="M0 0 C0 0, 0 0, 0 0 M0 0 C0 0, 0 0, 0 0 M0 0 C5.85 -8.02, 11.69 -16.04, 17.51 -24.03 M0 0 C6.82 -9.37, 13.65 -18.73, 17.51 -24.03 M17.51 -24.03 C22.18 -30.1, 26.84 -36.16, 33.57 -44.9 M17.51 -24.03 C21.37 -29.04, 25.22 -34.06, 33.57 -44.9 M33.57 -44.9 C34.94 -47.1, 36.31 -49.3, 40.15 -55.45 M33.57 -44.9 C36.05 -48.87, 38.53 -52.85, 40.15 -55.45 M40.15 -55.45 C42.05 -59.64, 43.96 -63.83, 45.3 -66.79 M40.15 -55.45 C41.27 -57.92, 42.39 -60.38, 45.3 -66.79 M45.3 -66.79 C45.99 -69.38, 46.67 -71.97, 48.65 -79.42 M45.3 -66.79 C46.37 -70.8, 47.43 -74.82, 48.65 -79.42 M48.65 -79.42 C49.07 -84.48, 49.49 -89.53, 49.85 -93.89 M48.65 -79.42 C48.97 -83.29, 49.29 -87.15, 49.85 -93.89 M49.85 -93.89 C49.08 -100.3, 48.31 -106.72, 47.88 -110.28 M49.85 -93.89 C49.29 -98.54, 48.73 -103.18, 47.88 -110.28 M47.88 -110.28 C45.97 -115.37, 44.06 -120.46, 42.08 -125.73 M47.88 -110.28 C46.06 -115.13, 44.24 -119.97, 42.08 -125.73 M42.08 -125.73 C12.22 -90.37, -17.64 -55.01, -50.1 -16.56 M42.08 -125.73 C21.02 -100.79, -0.03 -75.85, -50.1 -16.56 M-50.1 -16.56 C-50.1 -16.56, -50.1 -16.56, -50.1 -16.56 M-50.1 -16.56 C-50.1 -16.56, -50.1 -16.56, -50.1 -16.56 M-50.1 -16.56 C-46.03 -10.79, -41.95 -5.02, -38.41 0 M-50.1 -16.56 C-46.66 -11.69, -43.22 -6.81, -38.41 0 M-38.41 0 C-37.12 2.21, -35.84 4.41, -33.91 7.71 M-38.41 0 C-36.71 2.92, -35 5.85, -33.91 7.71 M-33.91 7.71 C-32.96 9.77, -32.01 11.82, -30.74 14.56 M-33.91 7.71 C-32.93 9.83, -31.96 11.94, -30.74 14.56 M-30.74 14.56 C-29.38 18.45, -28.02 22.33, -26.92 25.46 M-30.74 14.56 C-29.87 17.03, -29.01 19.51, -26.92 25.46 M-26.92 25.46 C-26.34 26.84, -25.76 28.22, -24.04 32.29 M-26.92 25.46 C-26.1 27.4, -25.29 29.34, -24.04 32.29 M-24.04 32.29 C-22.99 32.8, -21.94 33.31, -19.21 34.65 M-24.04 32.29 C-22.44 33.07, -20.84 33.86, -19.21 34.65 M-19.21 34.65 C-17.43 33.78, -15.65 32.91, -14.37 32.29 M-19.21 34.65 C-17.66 33.9, -16.11 33.14, -14.37 32.29 M-14.37 32.29 C-13.61 30.5, -12.86 28.71, -11.49 25.46 M-14.37 32.29 C-13.22 29.57, -12.08 26.86, -11.49 25.46 M-11.49 25.46 C-10.35 22.2, -9.21 18.94, -7.67 14.56 M-11.49 25.46 C-10.34 22.16, -9.18 18.87, -7.67 14.56 M-7.67 14.56 C-6.64 12.33, -5.6 10.1, -4.5 7.71 M-7.67 14.56 C-6.83 12.75, -5.99 10.93, -4.5 7.71 M-4.5 7.71 C-2.76 4.73, -1.02 1.74, 0 0 M-4.5 7.71 C-3.59 6.16, -2.69 4.61, 0 0 M0 0 C0 0, 0 0, 0 0 M0 0 C0 0, 0 0, 0 0 M0 0 C0 0, 0 0, 0 0 M0 0 C0 0, 0 0, 0 0" stroke="#000000" stroke-width="1" fill="none"></path></g></g><mask></mask><g transform="translate(6 209.51354720992447) rotate(0 80.5 19)"><text x="0" y="0" font-family="Helvetica, Segoe UI Emoji" font-size="33.4285714285714px" fill="#000000" text-anchor="start" style="white-space: pre;" direction="ltr" dominant-baseline="text-before-edge">Maps SDK</text></g></svg>