<svg version="1.1" xmlns="http://www.w3.org/2000/svg" viewBox="0 0 190.2231318473083 216.41507181544762" width="190.2231318473083" height="216.41507181544762">
  <!-- svg-source:excalidraw -->
  
  <defs>
    
    
  </defs>
  <g stroke-linecap="round"><g transform="translate(94.31614773924912 55.719217622211545) rotate(0 -44.15807386962456 6.198145772959265)" fill-rule="evenodd"><path d="M0 0 L-28.05 -47.84 L-28.05 -47.84 L-28.98 -47.18 L-29.89 -46.44 L-30.79 -45.63 L-31.66 -44.74 L-32.49 -43.78 L-33.28 -42.74 L-34.01 -41.62 L-34.67 -40.42 L-34.82 -40.13 L-35.03 -39.73 L-35.3 -39.22 L-35.64 -38.61 L-36.03 -37.9 L-36.48 -37.09 L-36.99 -36.19 L-37.54 -35.2 L-38.15 -34.12 L-38.8 -32.97 L-39.5 -31.73 L-40.24 -30.42 L-41.02 -29.04 L-41.84 -27.59 L-42.7 -26.07 L-43.6 -24.5 L-44.52 -22.87 L-45.48 -21.19 L-47.48 -17.68 L-49.58 -14 L-51.76 -10.18 L-54.01 -6.25 L-56.3 -2.25 L-60.96 5.89 L-65.62 13.99 L-67.9 17.96 L-70.13 21.84 L-72.28 25.59 L-74.36 29.19 L-75.36 30.92 L-76.33 32.6 L-77.27 34.23 L-78.18 35.81 L-79.05 37.32 L-79.89 38.77 L-80.69 40.15 L-81.45 41.46 L-82.17 42.7 L-82.84 43.86 L-83.47 44.93 L-84.05 45.92 L-84.57 46.82 L-85.05 47.63 L-85.46 48.34 L-85.82 48.96 L-86.13 49.46 L-86.37 49.86 L-86.54 50.15 L-86.66 50.33 L-86.97 51.06 L-87.27 52 L-87.55 53.1 L-87.8 54.36 L-88.01 55.72 L-88.17 57.18 L-88.28 58.69 L-88.32 60.23 L-34.7 60.23 L0 0 L0 0" stroke="none" stroke-width="0" fill="#34a853" fill-rule="evenodd"></path><path d="M0 0 C-6.51 -11.09, -13.01 -22.19, -28.05 -47.84 M0 0 C-9.93 -16.93, -19.86 -33.86, -28.05 -47.84 M-28.05 -47.84 C-28.05 -47.84, -28.05 -47.84, -28.05 -47.84 M-28.05 -47.84 C-28.05 -47.84, -28.05 -47.84, -28.05 -47.84 M-28.05 -47.84 C-28.41 -47.58, -28.77 -47.32, -28.98 -47.18 M-28.05 -47.84 C-28.33 -47.64, -28.61 -47.44, -28.98 -47.18 M-28.98 -47.18 C-29.22 -46.98, -29.46 -46.79, -29.89 -46.44 M-28.98 -47.18 C-29.18 -47.01, -29.39 -46.84, -29.89 -46.44 M-29.89 -46.44 C-30.21 -46.15, -30.52 -45.87, -30.79 -45.63 M-29.89 -46.44 C-30.12 -46.23, -30.35 -46.03, -30.79 -45.63 M-30.79 -45.63 C-31.13 -45.28, -31.46 -44.94, -31.66 -44.74 M-30.79 -45.63 C-31.13 -45.28, -31.48 -44.93, -31.66 -44.74 M-31.66 -44.74 C-31.9 -44.47, -32.13 -44.2, -32.49 -43.78 M-31.66 -44.74 C-31.98 -44.38, -32.29 -44.01, -32.49 -43.78 M-32.49 -43.78 C-32.73 -43.46, -32.97 -43.15, -33.28 -42.74 M-32.49 -43.78 C-32.74 -43.45, -32.99 -43.12, -33.28 -42.74 M-33.28 -42.74 C-33.55 -42.32, -33.82 -41.9, -34.01 -41.62 M-33.28 -42.74 C-33.45 -42.47, -33.63 -42.2, -34.01 -41.62 M-34.01 -41.62 C-34.19 -41.28, -34.38 -40.95, -34.67 -40.42 M-34.01 -41.62 C-34.26 -41.17, -34.51 -40.72, -34.67 -40.42 M-34.67 -40.42 C-34.72 -40.32, -34.77 -40.21, -34.82 -40.13 M-34.67 -40.42 C-34.71 -40.34, -34.75 -40.26, -34.82 -40.13 M-34.82 -40.13 C-34.88 -40.02, -34.94 -39.9, -35.03 -39.73 M-34.82 -40.13 C-34.88 -40.01, -34.95 -39.88, -35.03 -39.73 M-35.03 -39.73 C-35.09 -39.63, -35.14 -39.52, -35.3 -39.22 M-35.03 -39.73 C-35.13 -39.55, -35.23 -39.37, -35.3 -39.22 M-35.3 -39.22 C-35.4 -39.06, -35.49 -38.89, -35.64 -38.61 M-35.3 -39.22 C-35.41 -39.04, -35.51 -38.86, -35.64 -38.61 M-35.64 -38.61 C-35.72 -38.46, -35.81 -38.31, -36.03 -37.9 M-35.64 -38.61 C-35.79 -38.34, -35.94 -38.07, -36.03 -37.9 M-36.03 -37.9 C-36.15 -37.68, -36.28 -37.46, -36.48 -37.09 M-36.03 -37.9 C-36.14 -37.7, -36.25 -37.5, -36.48 -37.09 M-36.48 -37.09 C-36.65 -36.8, -36.81 -36.5, -36.99 -36.19 M-36.48 -37.09 C-36.62 -36.84, -36.77 -36.58, -36.99 -36.19 M-36.99 -36.19 C-37.15 -35.9, -37.32 -35.6, -37.54 -35.2 M-36.99 -36.19 C-37.15 -35.9, -37.32 -35.6, -37.54 -35.2 M-37.54 -35.2 C-37.67 -34.97, -37.81 -34.73, -38.15 -34.12 M-37.54 -35.2 C-37.7 -34.92, -37.85 -34.64, -38.15 -34.12 M-38.15 -34.12 C-38.31 -33.83, -38.48 -33.53, -38.8 -32.97 M-38.15 -34.12 C-38.37 -33.72, -38.6 -33.32, -38.8 -32.97 M-38.8 -32.97 C-39.08 -32.47, -39.35 -31.98, -39.5 -31.73 M-38.8 -32.97 C-39.01 -32.58, -39.23 -32.2, -39.5 -31.73 M-39.5 -31.73 C-39.68 -31.41, -39.86 -31.09, -40.24 -30.42 M-39.5 -31.73 C-39.73 -31.31, -39.97 -30.89, -40.24 -30.42 M-40.24 -30.42 C-40.48 -29.99, -40.73 -29.55, -41.02 -29.04 M-40.24 -30.42 C-40.49 -29.98, -40.74 -29.54, -41.02 -29.04 M-41.02 -29.04 C-41.21 -28.7, -41.41 -28.36, -41.84 -27.59 M-41.02 -29.04 C-41.25 -28.63, -41.48 -28.22, -41.84 -27.59 M-41.84 -27.59 C-42.05 -27.21, -42.27 -26.84, -42.7 -26.07 M-41.84 -27.59 C-42.15 -27.04, -42.46 -26.49, -42.7 -26.07 M-42.7 -26.07 C-43.05 -25.46, -43.4 -24.84, -43.6 -24.5 M-42.7 -26.07 C-43.01 -25.53, -43.31 -25, -43.6 -24.5 M-43.6 -24.5 C-43.8 -24.14, -44 -23.79, -44.52 -22.87 M-43.6 -24.5 C-43.97 -23.85, -44.33 -23.2, -44.52 -22.87 M-44.52 -22.87 C-44.87 -22.25, -45.22 -21.64, -45.48 -21.19 M-44.52 -22.87 C-44.85 -22.29, -45.18 -21.71, -45.48 -21.19 M-45.48 -21.19 C-46.04 -20.21, -46.6 -19.23, -47.48 -17.68 M-45.48 -21.19 C-46.25 -19.84, -47.02 -18.49, -47.48 -17.68 M-47.48 -17.68 C-48.3 -16.24, -49.12 -14.8, -49.58 -14 M-47.48 -17.68 C-48.26 -16.31, -49.04 -14.95, -49.58 -14 M-49.58 -14 C-50.07 -13.14, -50.56 -12.29, -51.76 -10.18 M-49.58 -14 C-50.36 -12.63, -51.14 -11.27, -51.76 -10.18 M-51.76 -10.18 C-52.63 -8.66, -53.5 -7.14, -54.01 -6.25 M-51.76 -10.18 C-52.32 -9.21, -52.87 -8.24, -54.01 -6.25 M-54.01 -6.25 C-54.64 -5.15, -55.28 -4.04, -56.3 -2.25 M-54.01 -6.25 C-54.81 -4.85, -55.61 -3.45, -56.3 -2.25 M-56.3 -2.25 C-57.53 -0.1, -58.76 2.05, -60.96 5.89 M-56.3 -2.25 C-57.39 -0.34, -58.48 1.56, -60.96 5.89 M-60.96 5.89 C-61.9 7.52, -62.84 9.15, -65.62 13.99 M-60.96 5.89 C-62.27 8.16, -63.57 10.43, -65.62 13.99 M-65.62 13.99 C-66.1 14.84, -66.59 15.69, -67.9 17.96 M-65.62 13.99 C-66.38 15.32, -67.14 16.64, -67.9 17.96 M-67.9 17.96 C-68.78 19.5, -69.66 21.03, -70.13 21.84 M-67.9 17.96 C-68.47 18.96, -69.04 19.95, -70.13 21.84 M-70.13 21.84 C-70.59 22.64, -71.05 23.44, -72.28 25.59 M-70.13 21.84 C-70.96 23.28, -71.79 24.73, -72.28 25.59 M-72.28 25.59 C-73.1 27.01, -73.92 28.42, -74.36 29.19 M-72.28 25.59 C-72.86 26.58, -73.43 27.58, -74.36 29.19 M-74.36 29.19 C-74.69 29.76, -75.02 30.33, -75.36 30.92 M-74.36 29.19 C-74.73 29.82, -75.09 30.46, -75.36 30.92 M-75.36 30.92 C-75.71 31.54, -76.07 32.15, -76.33 32.6 M-75.36 30.92 C-75.67 31.47, -75.99 32.02, -76.33 32.6 M-76.33 32.6 C-76.53 32.95, -76.73 33.29, -77.27 34.23 M-76.33 32.6 C-76.61 33.09, -76.9 33.59, -77.27 34.23 M-77.27 34.23 C-77.47 34.58, -77.67 34.92, -78.18 35.81 M-77.27 34.23 C-77.52 34.67, -77.78 35.12, -78.18 35.81 M-78.18 35.81 C-78.53 36.41, -78.87 37.01, -79.05 37.32 M-78.18 35.81 C-78.48 36.32, -78.78 36.84, -79.05 37.32 M-79.05 37.32 C-79.3 37.75, -79.55 38.18, -79.89 38.77 M-79.05 37.32 C-79.23 37.62, -79.4 37.92, -79.89 38.77 M-79.89 38.77 C-80.06 39.06, -80.23 39.35, -80.69 40.15 M-79.89 38.77 C-80.12 39.17, -80.35 39.57, -80.69 40.15 M-80.69 40.15 C-80.9 40.51, -81.11 40.87, -81.45 41.46 M-80.69 40.15 C-80.89 40.48, -81.08 40.82, -81.45 41.46 M-81.45 41.46 C-81.64 41.78, -81.82 42.1, -82.17 42.7 M-81.45 41.46 C-81.65 41.8, -81.84 42.14, -82.17 42.7 M-82.17 42.7 C-82.35 43.01, -82.53 43.31, -82.84 43.86 M-82.17 42.7 C-82.42 43.12, -82.66 43.55, -82.84 43.86 M-82.84 43.86 C-83.05 44.22, -83.26 44.57, -83.47 44.93 M-82.84 43.86 C-83.01 44.15, -83.18 44.44, -83.47 44.93 M-83.47 44.93 C-83.65 45.25, -83.84 45.57, -84.05 45.92 M-83.47 44.93 C-83.69 45.31, -83.91 45.68, -84.05 45.92 M-84.05 45.92 C-84.21 46.21, -84.38 46.5, -84.57 46.82 M-84.05 45.92 C-84.26 46.28, -84.47 46.64, -84.57 46.82 M-84.57 46.82 C-84.73 47.09, -84.88 47.36, -85.05 47.63 M-84.57 46.82 C-84.72 47.07, -84.86 47.32, -85.05 47.63 M-85.05 47.63 C-85.16 47.83, -85.28 48.03, -85.46 48.34 M-85.05 47.63 C-85.13 47.78, -85.22 47.93, -85.46 48.34 M-85.46 48.34 C-85.58 48.53, -85.69 48.72, -85.82 48.96 M-85.46 48.34 C-85.56 48.51, -85.66 48.67, -85.82 48.96 M-85.82 48.96 C-85.94 49.14, -86.05 49.33, -86.13 49.46 M-85.82 48.96 C-85.94 49.15, -86.06 49.35, -86.13 49.46 M-86.13 49.46 C-86.2 49.59, -86.28 49.72, -86.37 49.86 M-86.13 49.46 C-86.21 49.6, -86.3 49.74, -86.37 49.86 M-86.37 49.86 C-86.42 49.96, -86.48 50.05, -86.54 50.15 M-86.37 49.86 C-86.41 49.94, -86.46 50.02, -86.54 50.15 M-86.54 50.15 C-86.58 50.21, -86.62 50.28, -86.66 50.33 M-86.54 50.15 C-86.58 50.21, -86.62 50.27, -86.66 50.33 M-86.66 50.33 C-86.77 50.6, -86.89 50.88, -86.97 51.06 M-86.66 50.33 C-86.76 50.57, -86.86 50.81, -86.97 51.06 M-86.97 51.06 C-87.04 51.29, -87.11 51.52, -87.27 52 M-86.97 51.06 C-87.04 51.28, -87.11 51.51, -87.27 52 M-87.27 52 C-87.36 52.35, -87.45 52.71, -87.55 53.1 M-87.27 52 C-87.34 52.29, -87.41 52.59, -87.55 53.1 M-87.55 53.1 C-87.63 53.55, -87.72 53.99, -87.8 54.36 M-87.55 53.1 C-87.62 53.46, -87.69 53.83, -87.8 54.36 M-87.8 54.36 C-87.85 54.72, -87.91 55.09, -88.01 55.72 M-87.8 54.36 C-87.87 54.82, -87.94 55.28, -88.01 55.72 M-88.01 55.72 C-88.06 56.13, -88.1 56.54, -88.17 57.18 M-88.01 55.72 C-88.07 56.23, -88.12 56.74, -88.17 57.18 M-88.17 57.18 C-88.2 57.62, -88.23 58.06, -88.28 58.69 M-88.17 57.18 C-88.2 57.52, -88.22 57.86, -88.28 58.69 M-88.28 58.69 C-88.29 59.26, -88.31 59.83, -88.32 60.23 M-88.28 58.69 C-88.29 59.26, -88.31 59.82, -88.32 60.23 M-88.32 60.23 C-68.89 60.23, -49.47 60.23, -34.7 60.23 M-88.32 60.23 C-69.28 60.23, -50.24 60.23, -34.7 60.23 M-34.7 60.23 C-21.21 36.83, -7.73 13.42, 0 0 M-34.7 60.23 C-25.1 43.57, -15.5 26.9, 0 0 M0 0 C0 0, 0 0, 0 0 M0 0 C0 0, 0 0, 0 0 M0 0 C0 0, 0 0, 0 0 M0 0 C0 0, 0 0, 0 0" stroke="#000000" stroke-width="1" fill="none"></path></g></g><mask></mask><g stroke-linecap="round"><g transform="translate(130.2784380281587 116.05763607752942) rotate(0 8.644783834720613 -53.61839798400206)" fill-rule="evenodd"><path d="M0 0 L53.62 0 L53.62 0 L53.58 -1.51 L53.48 -2.92 L53.31 -4.24 L53.1 -5.46 L52.85 -6.56 L52.57 -7.54 L52.27 -8.38 L51.96 -9.07 L51.85 -9.29 L51.67 -9.61 L51.43 -10.05 L51.13 -10.59 L50.77 -11.24 L50.35 -11.98 L49.88 -12.82 L49.35 -13.75 L48.77 -14.77 L48.15 -15.87 L47.47 -17.06 L46.76 -18.32 L46 -19.65 L45.2 -21.06 L44.36 -22.53 L43.48 -24.06 L42.58 -25.66 L41.63 -27.3 L39.67 -30.75 L37.59 -34.38 L35.44 -38.15 L33.21 -42.04 L30.93 -46.02 L26.28 -54.14 L21.61 -62.26 L19.32 -66.26 L17.08 -70.17 L14.9 -73.96 L12.8 -77.61 L10.8 -81.09 L9.84 -82.76 L8.91 -84.37 L8.02 -85.92 L7.16 -87.41 L6.33 -88.84 L5.55 -90.2 L4.81 -91.49 L4.11 -92.7 L3.46 -93.83 L2.85 -94.87 L2.3 -95.84 L1.79 -96.71 L1.34 -97.48 L0.95 -98.16 L0.61 -98.74 L0.33 -99.21 L0.12 -99.57 L-0.03 -99.82 L-0.73 -101.02 L-1.56 -102.14 L-2.5 -103.19 L-3.54 -104.15 L-4.66 -105.04 L-5.83 -105.85 L-7.04 -106.58 L-8.27 -107.24 L-36.33 -60.2 L0 0 L0 0" stroke="none" stroke-width="0" fill="#ffba03" fill-rule="evenodd"></path><path d="M0 0 C15.58 0, 31.17 0, 53.62 0 M0 0 C13.31 0, 26.61 0, 53.62 0 M53.62 0 C53.62 0, 53.62 0, 53.62 0 M53.62 0 C53.62 0, 53.62 0, 53.62 0 M53.62 0 C53.61 -0.49, 53.59 -0.97, 53.58 -1.51 M53.62 0 C53.61 -0.51, 53.59 -1.01, 53.58 -1.51 M53.58 -1.51 C53.55 -1.98, 53.51 -2.46, 53.48 -2.92 M53.58 -1.51 C53.56 -1.82, 53.53 -2.13, 53.48 -2.92 M53.48 -2.92 C53.42 -3.4, 53.36 -3.88, 53.31 -4.24 M53.48 -2.92 C53.44 -3.24, 53.4 -3.55, 53.31 -4.24 M53.31 -4.24 C53.26 -4.52, 53.21 -4.8, 53.1 -5.46 M53.31 -4.24 C53.24 -4.66, 53.17 -5.08, 53.1 -5.46 M53.1 -5.46 C53.04 -5.7, 52.99 -5.95, 52.85 -6.56 M53.1 -5.46 C53.01 -5.86, 52.92 -6.26, 52.85 -6.56 M52.85 -6.56 C52.78 -6.8, 52.71 -7.03, 52.57 -7.54 M52.85 -6.56 C52.79 -6.77, 52.73 -6.98, 52.57 -7.54 M52.57 -7.54 C52.49 -7.75, 52.42 -7.96, 52.27 -8.38 M52.57 -7.54 C52.46 -7.84, 52.35 -8.15, 52.27 -8.38 M52.27 -8.38 C52.19 -8.54, 52.12 -8.7, 51.96 -9.07 M52.27 -8.38 C52.18 -8.56, 52.1 -8.75, 51.96 -9.07 M51.96 -9.07 C51.93 -9.13, 51.9 -9.18, 51.85 -9.29 M51.96 -9.07 C51.93 -9.12, 51.91 -9.17, 51.85 -9.29 M51.85 -9.29 C51.78 -9.4, 51.72 -9.52, 51.67 -9.61 M51.85 -9.29 C51.81 -9.36, 51.77 -9.43, 51.67 -9.61 M51.67 -9.61 C51.59 -9.75, 51.51 -9.9, 51.43 -10.05 M51.67 -9.61 C51.58 -9.77, 51.5 -9.93, 51.43 -10.05 M51.43 -10.05 C51.33 -10.23, 51.23 -10.42, 51.13 -10.59 M51.43 -10.05 C51.32 -10.24, 51.21 -10.43, 51.13 -10.59 M51.13 -10.59 C51.03 -10.76, 50.94 -10.93, 50.77 -11.24 M51.13 -10.59 C51.01 -10.81, 50.89 -11.02, 50.77 -11.24 M50.77 -11.24 C50.68 -11.39, 50.59 -11.55, 50.35 -11.98 M50.77 -11.24 C50.65 -11.44, 50.53 -11.65, 50.35 -11.98 M50.35 -11.98 C50.17 -12.29, 50 -12.6, 49.88 -12.82 M50.35 -11.98 C50.19 -12.26, 50.04 -12.54, 49.88 -12.82 M49.88 -12.82 C49.67 -13.18, 49.47 -13.54, 49.35 -13.75 M49.88 -12.82 C49.69 -13.15, 49.5 -13.49, 49.35 -13.75 M49.35 -13.75 C49.12 -14.15, 48.9 -14.54, 48.77 -14.77 M49.35 -13.75 C49.19 -14.04, 49.02 -14.33, 48.77 -14.77 M48.77 -14.77 C48.54 -15.17, 48.31 -15.58, 48.15 -15.87 M48.77 -14.77 C48.61 -15.05, 48.45 -15.33, 48.15 -15.87 M48.15 -15.87 C48.01 -16.12, 47.87 -16.36, 47.47 -17.06 M48.15 -15.87 C47.91 -16.29, 47.67 -16.71, 47.47 -17.06 M47.47 -17.06 C47.3 -17.37, 47.12 -17.68, 46.76 -18.32 M47.47 -17.06 C47.33 -17.32, 47.18 -17.57, 46.76 -18.32 M46.76 -18.32 C46.49 -18.78, 46.23 -19.24, 46 -19.65 M46.76 -18.32 C46.57 -18.65, 46.38 -18.97, 46 -19.65 M46 -19.65 C45.83 -19.95, 45.66 -20.25, 45.2 -21.06 M46 -19.65 C45.72 -20.14, 45.45 -20.62, 45.2 -21.06 M45.2 -21.06 C44.97 -21.46, 44.74 -21.86, 44.36 -22.53 M45.2 -21.06 C44.95 -21.49, 44.71 -21.91, 44.36 -22.53 M44.36 -22.53 C44.16 -22.88, 43.96 -23.22, 43.48 -24.06 M44.36 -22.53 C44.02 -23.13, 43.68 -23.72, 43.48 -24.06 M43.48 -24.06 C43.22 -24.52, 42.96 -24.98, 42.58 -25.66 M43.48 -24.06 C43.16 -24.64, 42.83 -25.22, 42.58 -25.66 M42.58 -25.66 C42.25 -26.24, 41.91 -26.81, 41.63 -27.3 M42.58 -25.66 C42.25 -26.22, 41.93 -26.78, 41.63 -27.3 M41.63 -27.3 C41.17 -28.11, 40.71 -28.92, 39.67 -30.75 M41.63 -27.3 C40.91 -28.57, 40.18 -29.84, 39.67 -30.75 M39.67 -30.75 C39.17 -31.61, 38.68 -32.48, 37.59 -34.38 M39.67 -30.75 C38.86 -32.16, 38.05 -33.57, 37.59 -34.38 M37.59 -34.38 C36.74 -35.86, 35.89 -37.35, 35.44 -38.15 M37.59 -34.38 C36.83 -35.7, 36.07 -37.03, 35.44 -38.15 M35.44 -38.15 C34.94 -39.01, 34.44 -39.88, 33.21 -42.04 M35.44 -38.15 C34.98 -38.95, 34.52 -39.75, 33.21 -42.04 M33.21 -42.04 C32.33 -43.57, 31.45 -45.1, 30.93 -46.02 M33.21 -42.04 C32.31 -43.61, 31.41 -45.18, 30.93 -46.02 M30.93 -46.02 C29.84 -47.91, 28.76 -49.8, 26.28 -54.14 M30.93 -46.02 C29.75 -48.08, 28.57 -50.13, 26.28 -54.14 M26.28 -54.14 C25.03 -56.3, 23.79 -58.47, 21.61 -62.26 M26.28 -54.14 C24.83 -56.65, 23.39 -59.16, 21.61 -62.26 M21.61 -62.26 C20.96 -63.4, 20.31 -64.53, 19.32 -66.26 M21.61 -62.26 C20.98 -63.37, 20.35 -64.47, 19.32 -66.26 M19.32 -66.26 C18.79 -67.18, 18.26 -68.11, 17.08 -70.17 M19.32 -66.26 C18.54 -67.62, 17.75 -68.99, 17.08 -70.17 M17.08 -70.17 C16.24 -71.62, 15.41 -73.07, 14.9 -73.96 M17.08 -70.17 C16.63 -70.95, 16.18 -71.73, 14.9 -73.96 M14.9 -73.96 C14.19 -75.18, 13.49 -76.4, 12.8 -77.61 M14.9 -73.96 C14.26 -75.06, 13.63 -76.16, 12.8 -77.61 M12.8 -77.61 C12.36 -78.38, 11.91 -79.15, 10.8 -81.09 M12.8 -77.61 C12.27 -78.53, 11.75 -79.44, 10.8 -81.09 M10.8 -81.09 C10.48 -81.65, 10.16 -82.2, 9.84 -82.76 M10.8 -81.09 C10.42 -81.74, 10.05 -82.39, 9.84 -82.76 M9.84 -82.76 C9.58 -83.21, 9.31 -83.67, 8.91 -84.37 M9.84 -82.76 C9.61 -83.16, 9.38 -83.56, 8.91 -84.37 M8.91 -84.37 C8.69 -84.76, 8.46 -85.15, 8.02 -85.92 M8.91 -84.37 C8.58 -84.95, 8.24 -85.53, 8.02 -85.92 M8.02 -85.92 C7.72 -86.43, 7.43 -86.94, 7.16 -87.41 M8.02 -85.92 C7.8 -86.3, 7.58 -86.68, 7.16 -87.41 M7.16 -87.41 C6.96 -87.76, 6.76 -88.1, 6.33 -88.84 M7.16 -87.41 C6.95 -87.77, 6.75 -88.12, 6.33 -88.84 M6.33 -88.84 C6.05 -89.33, 5.77 -89.81, 5.55 -90.2 M6.33 -88.84 C6.06 -89.32, 5.78 -89.81, 5.55 -90.2 M5.55 -90.2 C5.33 -90.58, 5.11 -90.96, 4.81 -91.49 M5.55 -90.2 C5.3 -90.64, 5.04 -91.08, 4.81 -91.49 M4.81 -91.49 C4.54 -91.95, 4.28 -92.41, 4.11 -92.7 M4.81 -91.49 C4.59 -91.87, 4.37 -92.24, 4.11 -92.7 M4.11 -92.7 C3.88 -93.09, 3.66 -93.48, 3.46 -93.83 M4.11 -92.7 C3.96 -92.95, 3.82 -93.21, 3.46 -93.83 M3.46 -93.83 C3.3 -94.09, 3.15 -94.36, 2.85 -94.87 M3.46 -93.83 C3.29 -94.12, 3.12 -94.41, 2.85 -94.87 M2.85 -94.87 C2.65 -95.23, 2.44 -95.58, 2.3 -95.84 M2.85 -94.87 C2.74 -95.07, 2.63 -95.26, 2.3 -95.84 M2.3 -95.84 C2.14 -96.1, 1.99 -96.36, 1.79 -96.71 M2.3 -95.84 C2.16 -96.08, 2.02 -96.32, 1.79 -96.71 M1.79 -96.71 C1.67 -96.91, 1.55 -97.12, 1.34 -97.48 M1.79 -96.71 C1.7 -96.87, 1.6 -97.03, 1.34 -97.48 M1.34 -97.48 C1.25 -97.65, 1.15 -97.81, 0.95 -98.16 M1.34 -97.48 C1.21 -97.71, 1.08 -97.94, 0.95 -98.16 M0.95 -98.16 C0.81 -98.39, 0.68 -98.62, 0.61 -98.74 M0.95 -98.16 C0.84 -98.35, 0.73 -98.53, 0.61 -98.74 M0.61 -98.74 C0.53 -98.87, 0.45 -99, 0.33 -99.21 M0.61 -98.74 C0.51 -98.91, 0.41 -99.07, 0.33 -99.21 M0.33 -99.21 C0.28 -99.3, 0.23 -99.39, 0.12 -99.57 M0.33 -99.21 C0.28 -99.3, 0.23 -99.39, 0.12 -99.57 M0.12 -99.57 C0.09 -99.63, 0.05 -99.68, -0.03 -99.82 M0.12 -99.57 C0.09 -99.63, 0.05 -99.69, -0.03 -99.82 M-0.03 -99.82 C-0.27 -100.23, -0.51 -100.64, -0.73 -101.02 M-0.03 -99.82 C-0.2 -100.11, -0.37 -100.41, -0.73 -101.02 M-0.73 -101.02 C-1.01 -101.4, -1.29 -101.78, -1.56 -102.14 M-0.73 -101.02 C-1.01 -101.4, -1.29 -101.78, -1.56 -102.14 M-1.56 -102.14 C-1.89 -102.51, -2.22 -102.87, -2.5 -103.19 M-1.56 -102.14 C-1.92 -102.54, -2.28 -102.94, -2.5 -103.19 M-2.5 -103.19 C-2.82 -103.49, -3.15 -103.79, -3.54 -104.15 M-2.5 -103.19 C-2.75 -103.42, -3 -103.65, -3.54 -104.15 M-3.54 -104.15 C-3.96 -104.49, -4.38 -104.82, -4.66 -105.04 M-3.54 -104.15 C-3.86 -104.41, -4.18 -104.67, -4.66 -105.04 M-4.66 -105.04 C-5.01 -105.29, -5.36 -105.53, -5.83 -105.85 M-4.66 -105.04 C-5.11 -105.36, -5.57 -105.67, -5.83 -105.85 M-5.83 -105.85 C-6.15 -106.05, -6.48 -106.24, -7.04 -106.58 M-5.83 -105.85 C-6.09 -106.01, -6.35 -106.16, -7.04 -106.58 M-7.04 -106.58 C-7.36 -106.75, -7.68 -106.92, -8.27 -107.24 M-7.04 -106.58 C-7.31 -106.73, -7.58 -106.87, -8.27 -107.24 M-8.27 -107.24 C-16.82 -92.92, -25.36 -78.6, -36.33 -60.2 M-8.27 -107.24 C-18.03 -90.87, -27.79 -74.51, -36.33 -60.2 M-36.33 -60.2 C-28 -46.41, -19.68 -32.61, 0 0 M-36.33 -60.2 C-27.5 -45.57, -18.67 -30.94, 0 0 M0 0 C0 0, 0 0, 0 0 M0 0 C0 0, 0 0, 0 0 M0 0 C0 0, 0 0, 0 0 M0 0 C0 0, 0 0, 0 0" stroke="#000000" stroke-width="1" fill="none"></path></g></g><mask></mask><g stroke-linecap="round"><g transform="translate(121.03859461846105 7.660746641141031) rotate(0 -26.39400459903402 23.1021759926374)" fill-rule="evenodd"><path d="M0 0 L0 0 L-0.7 -0.31 L-1.54 -0.61 L-2.51 -0.89 L-3.61 -1.14 L-4.83 -1.35 L-6.15 -1.52 L-7.57 -1.62 L-9.07 -1.66 L-48.67 -1.66 L-48.67 -1.66 L-49.89 -1.65 L-51.04 -1.56 L-51.56 -1.46 L-52.03 -1.31 L-52.44 -1.1 L-52.79 -0.83 L-53.1 -0.56 L-53.4 -0.35 L-53.68 -0.2 L-53.93 -0.1 L-54.14 -0.04 L-54.31 -0.01 L-54.41 0 L-54.45 0 L-26.39 47.87 L1.66 0.83 L1.66 0.83 L1.58 0.79 L1.39 0.69 L0.82 0.4 L0.52 0.25 L0.26 0.13 L0.07 0.03 L0 0 L0 0" stroke="none" stroke-width="0" fill="#00832d" fill-rule="evenodd"></path><path d="M0 0 C0 0, 0 0, 0 0 M0 0 C0 0, 0 0, 0 0 M0 0 C-0.28 -0.12, -0.55 -0.25, -0.7 -0.31 M0 0 C-0.25 -0.11, -0.49 -0.22, -0.7 -0.31 M-0.7 -0.31 C-0.97 -0.41, -1.24 -0.5, -1.54 -0.61 M-0.7 -0.31 C-0.91 -0.39, -1.13 -0.46, -1.54 -0.61 M-1.54 -0.61 C-1.84 -0.7, -2.13 -0.78, -2.51 -0.89 M-1.54 -0.61 C-1.88 -0.71, -2.22 -0.8, -2.51 -0.89 M-2.51 -0.89 C-2.82 -0.96, -3.13 -1.03, -3.61 -1.14 M-2.51 -0.89 C-2.74 -0.94, -2.96 -0.99, -3.61 -1.14 M-3.61 -1.14 C-3.95 -1.2, -4.28 -1.26, -4.83 -1.35 M-3.61 -1.14 C-3.98 -1.21, -4.35 -1.27, -4.83 -1.35 M-4.83 -1.35 C-5.1 -1.39, -5.36 -1.42, -6.15 -1.52 M-4.83 -1.35 C-5.17 -1.4, -5.5 -1.44, -6.15 -1.52 M-6.15 -1.52 C-6.68 -1.56, -7.21 -1.6, -7.57 -1.62 M-6.15 -1.52 C-6.69 -1.56, -7.23 -1.6, -7.57 -1.62 M-7.57 -1.62 C-7.99 -1.63, -8.41 -1.64, -9.07 -1.66 M-7.57 -1.62 C-8.1 -1.64, -8.63 -1.65, -9.07 -1.66 M-9.07 -1.66 C-20.86 -1.66, -32.65 -1.66, -48.67 -1.66 M-9.07 -1.66 C-22.54 -1.66, -36 -1.66, -48.67 -1.66 M-48.67 -1.66 C-48.67 -1.66, -48.67 -1.66, -48.67 -1.66 M-48.67 -1.66 C-48.67 -1.66, -48.67 -1.66, -48.67 -1.66 M-48.67 -1.66 C-49.02 -1.66, -49.38 -1.65, -49.89 -1.65 M-48.67 -1.66 C-48.94 -1.66, -49.22 -1.65, -49.89 -1.65 M-49.89 -1.65 C-50.25 -1.62, -50.6 -1.59, -51.04 -1.56 M-49.89 -1.65 C-50.32 -1.61, -50.75 -1.58, -51.04 -1.56 M-51.04 -1.56 C-51.15 -1.54, -51.27 -1.51, -51.56 -1.46 M-51.04 -1.56 C-51.18 -1.53, -51.31 -1.5, -51.56 -1.46 M-51.56 -1.46 C-51.74 -1.4, -51.92 -1.35, -52.03 -1.31 M-51.56 -1.46 C-51.74 -1.4, -51.93 -1.34, -52.03 -1.31 M-52.03 -1.31 C-52.15 -1.25, -52.28 -1.19, -52.44 -1.1 M-52.03 -1.31 C-52.19 -1.23, -52.35 -1.15, -52.44 -1.1 M-52.44 -1.1 C-52.53 -1.03, -52.62 -0.96, -52.79 -0.83 M-52.44 -1.1 C-52.53 -1.04, -52.61 -0.97, -52.79 -0.83 M-52.79 -0.83 C-52.9 -0.73, -53.02 -0.62, -53.1 -0.56 M-52.79 -0.83 C-52.88 -0.75, -52.97 -0.67, -53.1 -0.56 M-53.1 -0.56 C-53.17 -0.5, -53.25 -0.45, -53.4 -0.35 M-53.1 -0.56 C-53.18 -0.5, -53.26 -0.45, -53.4 -0.35 M-53.4 -0.35 C-53.46 -0.32, -53.53 -0.28, -53.68 -0.2 M-53.4 -0.35 C-53.45 -0.32, -53.51 -0.29, -53.68 -0.2 M-53.68 -0.2 C-53.78 -0.16, -53.87 -0.13, -53.93 -0.1 M-53.68 -0.2 C-53.77 -0.17, -53.85 -0.13, -53.93 -0.1 M-53.93 -0.1 C-53.99 -0.09, -54.05 -0.07, -54.14 -0.04 M-53.93 -0.1 C-53.99 -0.09, -54.05 -0.07, -54.14 -0.04 M-54.14 -0.04 C-54.18 -0.04, -54.23 -0.03, -54.31 -0.01 M-54.14 -0.04 C-54.18 -0.04, -54.21 -0.03, -54.31 -0.01 M-54.31 -0.01 C-54.33 -0.01, -54.36 -0.01, -54.41 0 M-54.31 -0.01 C-54.33 -0.01, -54.35 -0.01, -54.41 0 M-54.41 0 C-54.42 0, -54.44 0, -54.45 0 M-54.41 0 C-54.42 0, -54.43 0, -54.45 0 M-54.45 0 C-43.66 18.41, -32.86 36.82, -26.39 47.87 M-54.45 0 C-45.99 14.43, -37.53 28.86, -26.39 47.87 M-26.39 47.87 C-17.65 33.2, -8.9 18.53, 1.66 0.83 M-26.39 47.87 C-17.03 32.17, -7.67 16.47, 1.66 0.83 M1.66 0.83 C1.66 0.83, 1.66 0.83, 1.66 0.83 M1.66 0.83 C1.66 0.83, 1.66 0.83, 1.66 0.83 M1.66 0.83 C1.63 0.82, 1.61 0.8, 1.58 0.79 M1.66 0.83 C1.63 0.82, 1.61 0.8, 1.58 0.79 M1.58 0.79 C1.51 0.75, 1.44 0.71, 1.39 0.69 M1.58 0.79 C1.53 0.76, 1.49 0.74, 1.39 0.69 M1.39 0.69 C1.21 0.6, 1.02 0.51, 0.82 0.4 M1.39 0.69 C1.27 0.63, 1.15 0.57, 0.82 0.4 M0.82 0.4 C0.73 0.36, 0.64 0.32, 0.52 0.25 M0.82 0.4 C0.73 0.36, 0.64 0.32, 0.52 0.25 M0.52 0.25 C0.43 0.21, 0.35 0.17, 0.26 0.13 M0.52 0.25 C0.43 0.21, 0.34 0.17, 0.26 0.13 M0.26 0.13 C0.21 0.1, 0.16 0.08, 0.07 0.03 M0.26 0.13 C0.21 0.1, 0.17 0.08, 0.07 0.03 M0.07 0.03 C0.04 0.02, 0.02 0.01, 0 0 M0.07 0.03 C0.06 0.03, 0.04 0.02, 0 0 M0 0 C0 0, 0 0, 0 0 M0 0 C0 0, 0 0, 0 0 M0 0 C0 0, 0 0, 0 0 M0 0 C0 0, 0 0, 0 0" stroke="#000000" stroke-width="1" fill="none"></path></g></g><mask></mask><g stroke-linecap="round"><g transform="translate(59.068234227640914 115.95094803945904) rotate(0 36.31400746672739 23.517362652922657)" fill-rule="evenodd"><path d="M0 0 L-27.22 46.2 L-27.22 46.2 L-26.91 46.2 L-26.44 46.21 L-25.82 46.21 L-25.04 46.21 L-24.13 46.22 L-23.08 46.22 L-21.89 46.23 L-20.58 46.24 L-19.14 46.25 L-17.59 46.26 L-15.93 46.27 L-14.15 46.28 L-12.28 46.29 L-10.31 46.31 L-8.24 46.32 L-6.09 46.33 L-3.86 46.35 L-1.55 46.36 L0.83 46.38 L3.28 46.4 L5.79 46.41 L8.35 46.43 L13.64 46.47 L19.08 46.5 L24.65 46.54 L36 46.62 L47.36 46.7 L52.95 46.73 L58.41 46.77 L63.71 46.81 L68.81 46.84 L71.28 46.86 L73.67 46.87 L76 46.89 L78.25 46.9 L80.42 46.92 L82.51 46.93 L84.5 46.95 L86.4 46.96 L88.2 46.97 L89.89 46.98 L91.47 46.99 L92.93 47 L94.28 47.01 L95.49 47.01 L96.58 47.02 L97.53 47.03 L98.33 47.03 L98.99 47.03 L99.5 47.03 L99.85 47.03 L71.8 0 L0 0 L0 0" stroke="none" stroke-width="0" fill="#2684fc" fill-rule="evenodd"></path><path d="M0 0 C-10.36 17.59, -20.72 35.17, -27.22 46.2 M0 0 C-6.45 10.95, -12.91 21.91, -27.22 46.2 M-27.22 46.2 C-27.22 46.2, -27.22 46.2, -27.22 46.2 M-27.22 46.2 C-27.22 46.2, -27.22 46.2, -27.22 46.2 M-27.22 46.2 C-27.15 46.2, -27.08 46.2, -26.91 46.2 M-27.22 46.2 C-27.12 46.2, -27.02 46.2, -26.91 46.2 M-26.91 46.2 C-26.74 46.21, -26.57 46.21, -26.44 46.21 M-26.91 46.2 C-26.75 46.21, -26.58 46.21, -26.44 46.21 M-26.44 46.21 C-26.29 46.21, -26.14 46.21, -25.82 46.21 M-26.44 46.21 C-26.31 46.21, -26.18 46.21, -25.82 46.21 M-25.82 46.21 C-25.62 46.21, -25.42 46.21, -25.04 46.21 M-25.82 46.21 C-25.56 46.21, -25.3 46.21, -25.04 46.21 M-25.04 46.21 C-24.71 46.22, -24.37 46.22, -24.13 46.22 M-25.04 46.21 C-24.73 46.22, -24.41 46.22, -24.13 46.22 M-24.13 46.22 C-23.73 46.22, -23.32 46.22, -23.08 46.22 M-24.13 46.22 C-23.72 46.22, -23.32 46.22, -23.08 46.22 M-23.08 46.22 C-22.74 46.23, -22.41 46.23, -21.89 46.23 M-23.08 46.22 C-22.74 46.23, -22.41 46.23, -21.89 46.23 M-21.89 46.23 C-21.51 46.23, -21.13 46.24, -20.58 46.24 M-21.89 46.23 C-21.54 46.23, -21.19 46.24, -20.58 46.24 M-20.58 46.24 C-20.25 46.24, -19.92 46.24, -19.14 46.25 M-20.58 46.24 C-20.07 46.24, -19.56 46.25, -19.14 46.25 M-19.14 46.25 C-18.58 46.25, -18.02 46.26, -17.59 46.26 M-19.14 46.25 C-18.73 46.25, -18.32 46.25, -17.59 46.26 M-17.59 46.26 C-17 46.26, -16.41 46.27, -15.93 46.27 M-17.59 46.26 C-16.94 46.26, -16.3 46.27, -15.93 46.27 M-15.93 46.27 C-15.35 46.27, -14.78 46.28, -14.15 46.28 M-15.93 46.27 C-15.38 46.27, -14.83 46.28, -14.15 46.28 M-14.15 46.28 C-13.43 46.29, -12.7 46.29, -12.28 46.29 M-14.15 46.28 C-13.43 46.29, -12.7 46.29, -12.28 46.29 M-12.28 46.29 C-11.62 46.3, -10.97 46.3, -10.31 46.31 M-12.28 46.29 C-11.77 46.3, -11.25 46.3, -10.31 46.31 M-10.31 46.31 C-9.59 46.31, -8.87 46.32, -8.24 46.32 M-10.31 46.31 C-9.81 46.31, -9.31 46.31, -8.24 46.32 M-8.24 46.32 C-7.61 46.32, -6.98 46.33, -6.09 46.33 M-8.24 46.32 C-7.78 46.32, -7.31 46.33, -6.09 46.33 M-6.09 46.33 C-5.55 46.34, -5 46.34, -3.86 46.35 M-6.09 46.33 C-5.57 46.34, -5.04 46.34, -3.86 46.35 M-3.86 46.35 C-3.06 46.35, -2.26 46.36, -1.55 46.36 M-3.86 46.35 C-3.37 46.35, -2.87 46.36, -1.55 46.36 M-1.55 46.36 C-0.66 46.37, 0.23 46.38, 0.83 46.38 M-1.55 46.36 C-0.76 46.37, 0.02 46.38, 0.83 46.38 M0.83 46.38 C1.74 46.39, 2.65 46.39, 3.28 46.4 M0.83 46.38 C1.62 46.39, 2.4 46.39, 3.28 46.4 M3.28 46.4 C3.83 46.4, 4.38 46.4, 5.79 46.41 M3.28 46.4 C3.98 46.4, 4.67 46.41, 5.79 46.41 M5.79 46.41 C6.52 46.42, 7.24 46.42, 8.35 46.43 M5.79 46.41 C6.67 46.42, 7.56 46.43, 8.35 46.43 M8.35 46.43 C10.26 46.44, 12.17 46.46, 13.64 46.47 M8.35 46.43 C10.02 46.44, 11.68 46.45, 13.64 46.47 M13.64 46.47 C15.5 46.48, 17.37 46.49, 19.08 46.5 M13.64 46.47 C15.42 46.48, 17.2 46.49, 19.08 46.5 M19.08 46.5 C21.09 46.52, 23.11 46.53, 24.65 46.54 M19.08 46.5 C20.55 46.51, 22.02 46.52, 24.65 46.54 M24.65 46.54 C27.44 46.56, 30.23 46.58, 36 46.62 M24.65 46.54 C27.45 46.56, 30.24 46.58, 36 46.62 M36 46.62 C39.11 46.64, 42.23 46.66, 47.36 46.7 M36 46.62 C38.65 46.64, 41.3 46.66, 47.36 46.7 M47.36 46.7 C48.63 46.71, 49.9 46.71, 52.95 46.73 M47.36 46.7 C49.13 46.71, 50.9 46.72, 52.95 46.73 M52.95 46.73 C54.81 46.75, 56.67 46.76, 58.41 46.77 M52.95 46.73 C54.68 46.75, 56.42 46.76, 58.41 46.77 M58.41 46.77 C60.33 46.78, 62.24 46.8, 63.71 46.81 M58.41 46.77 C59.93 46.78, 61.46 46.79, 63.71 46.81 M63.71 46.81 C65.22 46.82, 66.72 46.83, 68.81 46.84 M63.71 46.81 C65.23 46.82, 66.75 46.83, 68.81 46.84 M68.81 46.84 C69.46 46.85, 70.11 46.85, 71.28 46.86 M68.81 46.84 C69.66 46.85, 70.51 46.85, 71.28 46.86 M71.28 46.86 C71.89 46.86, 72.5 46.87, 73.67 46.87 M71.28 46.86 C72.09 46.86, 72.91 46.87, 73.67 46.87 M73.67 46.87 C74.57 46.88, 75.46 46.89, 76 46.89 M73.67 46.87 C74.17 46.88, 74.66 46.88, 76 46.89 M76 46.89 C76.53 46.89, 77.06 46.9, 78.25 46.9 M76 46.89 C76.67 46.89, 77.34 46.9, 78.25 46.9 M78.25 46.9 C78.94 46.91, 79.63 46.91, 80.42 46.92 M78.25 46.9 C78.78 46.91, 79.31 46.91, 80.42 46.92 M80.42 46.92 C80.9 46.92, 81.38 46.93, 82.51 46.93 M80.42 46.92 C80.85 46.92, 81.28 46.92, 82.51 46.93 M82.51 46.93 C83.09 46.94, 83.68 46.94, 84.5 46.95 M82.51 46.93 C83.18 46.94, 83.85 46.94, 84.5 46.95 M84.5 46.95 C85.12 46.95, 85.74 46.95, 86.4 46.96 M84.5 46.95 C85.25 46.95, 85.99 46.96, 86.4 46.96 M86.4 46.96 C86.91 46.96, 87.41 46.96, 88.2 46.97 M86.4 46.96 C86.8 46.96, 87.19 46.96, 88.2 46.97 M88.2 46.97 C88.55 46.97, 88.89 46.97, 89.89 46.98 M88.2 46.97 C88.81 46.97, 89.43 46.98, 89.89 46.98 M89.89 46.98 C90.35 46.98, 90.81 46.99, 91.47 46.99 M89.89 46.98 C90.45 46.98, 91.02 46.99, 91.47 46.99 M91.47 46.99 C91.81 46.99, 92.14 46.99, 92.93 47 M91.47 46.99 C91.94 46.99, 92.4 47, 92.93 47 M92.93 47 C93.3 47, 93.66 47, 94.28 47.01 M92.93 47 C93.27 47, 93.61 47, 94.28 47.01 M94.28 47.01 C94.71 47.01, 95.15 47.01, 95.49 47.01 M94.28 47.01 C94.57 47.01, 94.86 47.01, 95.49 47.01 M95.49 47.01 C95.72 47.02, 95.94 47.02, 96.58 47.02 M95.49 47.01 C95.86 47.02, 96.23 47.02, 96.58 47.02 M96.58 47.02 C96.8 47.02, 97.02 47.02, 97.53 47.03 M96.58 47.02 C96.95 47.02, 97.32 47.02, 97.53 47.03 M97.53 47.03 C97.71 47.03, 97.89 47.03, 98.33 47.03 M97.53 47.03 C97.77 47.03, 98.01 47.03, 98.33 47.03 M98.33 47.03 C98.52 47.03, 98.71 47.03, 98.99 47.03 M98.33 47.03 C98.49 47.03, 98.64 47.03, 98.99 47.03 M98.99 47.03 C99.14 47.03, 99.29 47.03, 99.5 47.03 M98.99 47.03 C99.16 47.03, 99.33 47.03, 99.5 47.03 M99.5 47.03 C99.58 47.03, 99.67 47.03, 99.85 47.03 M99.5 47.03 C99.61 47.03, 99.71 47.03, 99.85 47.03 M99.85 47.03 C91.21 32.55, 82.57 18.07, 71.8 0 M99.85 47.03 C91.79 33.52, 83.73 20, 71.8 0 M71.8 0 C57.03 0, 42.26 0, 0 0 M71.8 0 C49.14 0, 26.48 0, 0 0 M0 0 C0 0, 0 0, 0 0 M0 0 C0 0, 0 0, 0 0 M0 0 C0 0, 0 0, 0 0 M0 0 C0 0, 0 0, 0 0" stroke="#000000" stroke-width="1" fill="none"></path></g></g><mask></mask><g stroke-linecap="round"><g transform="translate(6.328444389091146 116.15171023835137) rotate(0 26.809199694972108 23.102182319376993)" fill-rule="evenodd"><path d="M0 0 L0 0 L0.04 1.27 L0.16 2.57 L0.35 3.88 L0.62 5.15 L0.97 6.34 L1.39 7.42 L1.89 8.34 L2.17 8.74 L2.46 9.07 L2.8 9.68 L3.21 10.42 L3.68 11.27 L4.2 12.23 L4.77 13.29 L5.4 14.44 L6.07 15.67 L6.78 16.97 L7.52 18.33 L8.31 19.75 L9.96 22.72 L11.69 25.78 L13.49 28.89 L15.32 31.95 L17.15 34.9 L18.05 36.31 L18.94 37.67 L19.82 38.96 L20.68 40.18 L21.51 41.31 L22.32 42.36 L23.1 43.3 L23.84 44.14 L24.55 44.86 L25.21 45.45 L25.83 45.9 L26.39 46.2 L53.62 0 L0 0 L0 0" stroke="none" stroke-width="0" fill="#0066da" fill-rule="evenodd"></path><path d="M0 0 C0 0, 0 0, 0 0 M0 0 C0 0, 0 0, 0 0 M0 0 C0.01 0.45, 0.03 0.91, 0.04 1.27 M0 0 C0.01 0.47, 0.03 0.93, 0.04 1.27 M0.04 1.27 C0.07 1.61, 0.1 1.95, 0.16 2.57 M0.04 1.27 C0.07 1.67, 0.11 2.06, 0.16 2.57 M0.16 2.57 C0.23 3.05, 0.3 3.54, 0.35 3.88 M0.16 2.57 C0.23 3.09, 0.31 3.6, 0.35 3.88 M0.35 3.88 C0.43 4.28, 0.52 4.68, 0.62 5.15 M0.35 3.88 C0.45 4.34, 0.54 4.8, 0.62 5.15 M0.62 5.15 C0.74 5.57, 0.86 5.99, 0.97 6.34 M0.62 5.15 C0.7 5.44, 0.79 5.73, 0.97 6.34 M0.97 6.34 C1.08 6.62, 1.19 6.9, 1.39 7.42 M0.97 6.34 C1.12 6.73, 1.27 7.11, 1.39 7.42 M1.39 7.42 C1.55 7.72, 1.72 8.03, 1.89 8.34 M1.39 7.42 C1.55 7.72, 1.71 8.02, 1.89 8.34 M1.89 8.34 C1.96 8.45, 2.04 8.55, 2.17 8.74 M1.89 8.34 C1.96 8.44, 2.03 8.54, 2.17 8.74 M2.17 8.74 C2.28 8.87, 2.4 9, 2.46 9.07 M2.17 8.74 C2.28 8.86, 2.39 8.99, 2.46 9.07 M2.46 9.07 C2.58 9.28, 2.7 9.49, 2.8 9.68 M2.46 9.07 C2.6 9.32, 2.73 9.56, 2.8 9.68 M2.8 9.68 C2.9 9.86, 3 10.04, 3.21 10.42 M2.8 9.68 C2.96 9.96, 3.11 10.23, 3.21 10.42 M3.21 10.42 C3.32 10.62, 3.43 10.82, 3.68 11.27 M3.21 10.42 C3.32 10.62, 3.43 10.81, 3.68 11.27 M3.68 11.27 C3.81 11.51, 3.94 11.75, 4.2 12.23 M3.68 11.27 C3.8 11.51, 3.93 11.74, 4.2 12.23 M4.2 12.23 C4.38 12.57, 4.57 12.91, 4.77 13.29 M4.2 12.23 C4.42 12.63, 4.64 13.04, 4.77 13.29 M4.77 13.29 C5.01 13.72, 5.24 14.15, 5.4 14.44 M4.77 13.29 C4.99 13.69, 5.21 14.09, 5.4 14.44 M5.4 14.44 C5.61 14.83, 5.82 15.22, 6.07 15.67 M5.4 14.44 C5.64 14.88, 5.88 15.32, 6.07 15.67 M6.07 15.67 C6.25 16, 6.43 16.33, 6.78 16.97 M6.07 15.67 C6.33 16.16, 6.6 16.65, 6.78 16.97 M6.78 16.97 C7.06 17.48, 7.33 17.99, 7.52 18.33 M6.78 16.97 C6.98 17.34, 7.19 17.72, 7.52 18.33 M7.52 18.33 C7.78 18.81, 8.04 19.28, 8.31 19.75 M7.52 18.33 C7.74 18.72, 7.95 19.11, 8.31 19.75 M8.31 19.75 C8.93 20.87, 9.55 21.98, 9.96 22.72 M8.31 19.75 C8.83 20.69, 9.35 21.63, 9.96 22.72 M9.96 22.72 C10.51 23.7, 11.07 24.68, 11.69 25.78 M9.96 22.72 C10.49 23.67, 11.03 24.62, 11.69 25.78 M11.69 25.78 C12.15 26.57, 12.6 27.35, 13.49 28.89 M11.69 25.78 C12.19 26.63, 12.68 27.48, 13.49 28.89 M13.49 28.89 C14.09 29.88, 14.68 30.88, 15.32 31.95 M13.49 28.89 C13.86 29.51, 14.24 30.13, 15.32 31.95 M15.32 31.95 C15.79 32.71, 16.27 33.47, 17.15 34.9 M15.32 31.95 C15.72 32.58, 16.11 33.22, 17.15 34.9 M17.15 34.9 C17.45 35.37, 17.75 35.84, 18.05 36.31 M17.15 34.9 C17.34 35.19, 17.52 35.48, 18.05 36.31 M18.05 36.31 C18.31 36.71, 18.57 37.1, 18.94 37.67 M18.05 36.31 C18.23 36.59, 18.42 36.86, 18.94 37.67 M18.94 37.67 C19.23 38.09, 19.51 38.51, 19.82 38.96 M18.94 37.67 C19.13 37.95, 19.32 38.22, 19.82 38.96 M19.82 38.96 C20.15 39.42, 20.48 39.89, 20.68 40.18 M19.82 38.96 C20.15 39.43, 20.49 39.91, 20.68 40.18 M20.68 40.18 C20.98 40.59, 21.28 40.99, 21.51 41.31 M20.68 40.18 C20.9 40.47, 21.11 40.77, 21.51 41.31 M21.51 41.31 C21.83 41.73, 22.15 42.14, 22.32 42.36 M21.51 41.31 C21.76 41.64, 22.02 41.96, 22.32 42.36 M22.32 42.36 C22.54 42.63, 22.76 42.89, 23.1 43.3 M22.32 42.36 C22.49 42.56, 22.65 42.77, 23.1 43.3 M23.1 43.3 C23.35 43.59, 23.6 43.87, 23.84 44.14 M23.1 43.3 C23.39 43.64, 23.69 43.97, 23.84 44.14 M23.84 44.14 C24 44.31, 24.17 44.47, 24.55 44.86 M23.84 44.14 C24.04 44.35, 24.25 44.55, 24.55 44.86 M24.55 44.86 C24.71 45, 24.88 45.15, 25.21 45.45 M24.55 44.86 C24.72 45.01, 24.9 45.17, 25.21 45.45 M25.21 45.45 C25.41 45.59, 25.61 45.74, 25.83 45.9 M25.21 45.45 C25.41 45.59, 25.61 45.74, 25.83 45.9 M25.83 45.9 C26 45.99, 26.17 46.08, 26.39 46.2 M25.83 45.9 C25.95 45.97, 26.08 46.04, 26.39 46.2 M26.39 46.2 C36.3 29.39, 46.21 12.58, 53.62 0 M26.39 46.2 C35.32 31.06, 44.24 15.92, 53.62 0 M53.62 0 C37.19 0, 20.75 0, 0 0 M53.62 0 C33.78 0, 13.93 0, 0 0 M0 0 C0 0, 0 0, 0 0 M0 0 C0 0, 0 0, 0 0 M0 0 C0 0, 0 0, 0 0 M0 0 C0 0, 0 0, 0 0" stroke="#000000" stroke-width="1" fill="none"></path></g></g><mask></mask><g stroke-linecap="round"><g transform="translate(182.56238801805148 125.62341298497995) rotate(0 -25.148457974628457 13.612196692484076)" fill-rule="evenodd"><path d="M0 0 L0 0 L0.55 -0.96 L0.96 -2.01 L1.26 -3.13 L1.45 -4.33 L1.57 -5.61 L1.63 -6.96 L1.66 -8.4 L1.66 -9.91 L-51.96 -9.91 L-23.9 37.13 L-23.9 37.13 L-23.34 36.82 L-22.71 36.37 L-22.04 35.78 L-21.32 35.06 L-20.57 34.23 L-19.77 33.28 L-18.94 32.24 L-18.09 31.1 L-17.21 29.88 L-16.31 28.59 L-15.39 27.24 L-14.46 25.82 L-12.59 22.87 L-10.72 19.81 L-8.89 16.71 L-7.13 13.64 L-5.48 10.68 L-4.7 9.26 L-3.96 7.9 L-3.27 6.59 L-2.63 5.36 L-2.03 4.21 L-1.5 3.15 L-1.02 2.19 L-0.61 1.34 L-0.27 0.61 L0 0 L0 0" stroke="none" stroke-width="0" fill="#ea4335" fill-rule="evenodd"></path><path d="M0 0 C0 0, 0 0, 0 0 M0 0 C0 0, 0 0, 0 0 M0 0 C0.13 -0.23, 0.27 -0.47, 0.55 -0.96 M0 0 C0.14 -0.25, 0.29 -0.51, 0.55 -0.96 M0.55 -0.96 C0.7 -1.35, 0.85 -1.74, 0.96 -2.01 M0.55 -0.96 C0.71 -1.38, 0.88 -1.79, 0.96 -2.01 M0.96 -2.01 C1.06 -2.37, 1.15 -2.74, 1.26 -3.13 M0.96 -2.01 C1.06 -2.39, 1.16 -2.77, 1.26 -3.13 M1.26 -3.13 C1.32 -3.5, 1.38 -3.87, 1.45 -4.33 M1.26 -3.13 C1.3 -3.37, 1.34 -3.62, 1.45 -4.33 M1.45 -4.33 C1.48 -4.66, 1.52 -5, 1.57 -5.61 M1.45 -4.33 C1.48 -4.62, 1.51 -4.9, 1.57 -5.61 M1.57 -5.61 C1.59 -6.05, 1.61 -6.5, 1.63 -6.96 M1.57 -5.61 C1.59 -5.99, 1.61 -6.37, 1.63 -6.96 M1.63 -6.96 C1.64 -7.27, 1.64 -7.57, 1.66 -8.4 M1.63 -6.96 C1.64 -7.36, 1.65 -7.76, 1.66 -8.4 M1.66 -8.4 C1.66 -8.73, 1.66 -9.07, 1.66 -9.91 M1.66 -8.4 C1.66 -8.78, 1.66 -9.16, 1.66 -9.91 M1.66 -9.91 C-10.87 -9.91, -23.39 -9.91, -51.96 -9.91 M1.66 -9.91 C-17.72 -9.91, -37.11 -9.91, -51.96 -9.91 M-51.96 -9.91 C-42.62 5.74, -33.29 21.39, -23.9 37.13 M-51.96 -9.91 C-41.22 8.1, -30.48 26.1, -23.9 37.13 M-23.9 37.13 C-23.9 37.13, -23.9 37.13, -23.9 37.13 M-23.9 37.13 C-23.9 37.13, -23.9 37.13, -23.9 37.13 M-23.9 37.13 C-23.77 37.06, -23.63 36.98, -23.34 36.82 M-23.9 37.13 C-23.75 37.05, -23.6 36.97, -23.34 36.82 M-23.34 36.82 C-23.11 36.66, -22.88 36.49, -22.71 36.37 M-23.34 36.82 C-23.17 36.7, -23.01 36.59, -22.71 36.37 M-22.71 36.37 C-22.54 36.22, -22.38 36.07, -22.04 35.78 M-22.71 36.37 C-22.49 36.17, -22.26 35.98, -22.04 35.78 M-22.04 35.78 C-21.8 35.54, -21.55 35.29, -21.32 35.06 M-22.04 35.78 C-21.81 35.55, -21.58 35.32, -21.32 35.06 M-21.32 35.06 C-21.07 34.79, -20.82 34.51, -20.57 34.23 M-21.32 35.06 C-21.05 34.76, -20.78 34.46, -20.57 34.23 M-20.57 34.23 C-20.33 33.94, -20.08 33.66, -19.77 33.28 M-20.57 34.23 C-20.34 33.96, -20.11 33.68, -19.77 33.28 M-19.77 33.28 C-19.46 32.89, -19.15 32.5, -18.94 32.24 M-19.77 33.28 C-19.49 32.93, -19.2 32.57, -18.94 32.24 M-18.94 32.24 C-18.72 31.95, -18.5 31.65, -18.09 31.1 M-18.94 32.24 C-18.64 31.84, -18.34 31.44, -18.09 31.1 M-18.09 31.1 C-17.81 30.72, -17.54 30.34, -17.21 29.88 M-18.09 31.1 C-17.89 30.83, -17.69 30.55, -17.21 29.88 M-17.21 29.88 C-16.94 29.5, -16.68 29.12, -16.31 28.59 M-17.21 29.88 C-16.87 29.4, -16.53 28.91, -16.31 28.59 M-16.31 28.59 C-16.11 28.3, -15.91 28, -15.39 27.24 M-16.31 28.59 C-15.95 28.07, -15.59 27.54, -15.39 27.24 M-15.39 27.24 C-15.11 26.82, -14.84 26.4, -14.46 25.82 M-15.39 27.24 C-15.18 26.92, -14.97 26.59, -14.46 25.82 M-14.46 25.82 C-14.08 25.22, -13.7 24.62, -12.59 22.87 M-14.46 25.82 C-13.83 24.82, -13.19 23.82, -12.59 22.87 M-12.59 22.87 C-12.16 22.17, -11.73 21.47, -10.72 19.81 M-12.59 22.87 C-12.13 22.13, -11.68 21.39, -10.72 19.81 M-10.72 19.81 C-10.13 18.81, -9.54 17.82, -8.89 16.71 M-10.72 19.81 C-10.3 19.11, -9.89 18.4, -8.89 16.71 M-8.89 16.71 C-8.44 15.93, -8 15.16, -7.13 13.64 M-8.89 16.71 C-8.27 15.63, -7.65 14.55, -7.13 13.64 M-7.13 13.64 C-6.7 12.87, -6.26 12.09, -5.48 10.68 M-7.13 13.64 C-6.57 12.64, -6.01 11.64, -5.48 10.68 M-5.48 10.68 C-5.31 10.38, -5.14 10.07, -4.7 9.26 M-5.48 10.68 C-5.19 10.16, -4.9 9.63, -4.7 9.26 M-4.7 9.26 C-4.51 8.92, -4.33 8.57, -3.96 7.9 M-4.7 9.26 C-4.41 8.73, -4.13 8.2, -3.96 7.9 M-3.96 7.9 C-3.72 7.44, -3.48 6.98, -3.27 6.59 M-3.96 7.9 C-3.76 7.51, -3.55 7.12, -3.27 6.59 M-3.27 6.59 C-3.04 6.15, -2.8 5.7, -2.63 5.36 M-3.27 6.59 C-3.12 6.3, -2.96 6, -2.63 5.36 M-2.63 5.36 C-2.4 4.92, -2.17 4.48, -2.03 4.21 M-2.63 5.36 C-2.5 5.11, -2.37 4.86, -2.03 4.21 M-2.03 4.21 C-1.93 4, -1.82 3.79, -1.5 3.15 M-2.03 4.21 C-1.83 3.81, -1.62 3.4, -1.5 3.15 M-1.5 3.15 C-1.39 2.93, -1.27 2.7, -1.02 2.19 M-1.5 3.15 C-1.4 2.95, -1.29 2.74, -1.02 2.19 M-1.02 2.19 C-0.93 2.01, -0.85 1.83, -0.61 1.34 M-1.02 2.19 C-0.92 1.99, -0.82 1.78, -0.61 1.34 M-0.61 1.34 C-0.51 1.12, -0.4 0.9, -0.27 0.61 M-0.61 1.34 C-0.53 1.17, -0.45 1, -0.27 0.61 M-0.27 0.61 C-0.17 0.38, -0.06 0.14, 0 0 M-0.27 0.61 C-0.19 0.43, -0.11 0.26, 0 0 M0 0 C0 0, 0 0, 0 0 M0 0 C0 0, 0 0, 0 0 M0 0 C0 0, 0 0, 0 0 M0 0 C0 0, 0 0, 0 0" stroke="#000000" stroke-width="1" fill="none"></path></g></g><mask></mask><g stroke-linecap="round"><g transform="translate(58.7168798032576 116.31601012374631) rotate(0 35.89882291535531 -30.11586520862329)" fill-rule="evenodd"><path d="M0 0 L71.8 0 L35.47 -60.23 L0 0" stroke="none" stroke-width="0" fill="#fff" fill-rule="evenodd"></path><path d="M0 0 C17.49 0, 34.98 0, 71.8 0 M0 0 C25.01 0, 50.03 0, 71.8 0 M71.8 0 C58.37 -22.26, 44.95 -44.51, 35.47 -60.23 M71.8 0 C58.79 -21.57, 45.77 -43.15, 35.47 -60.23 M35.47 -60.23 C27.76 -47.14, 20.05 -34.05, 0 0 M35.47 -60.23 C24.39 -41.42, 13.31 -22.61, 0 0 M0 0 C0 0, 0 0, 0 0 M0 0 C0 0, 0 0, 0 0" stroke="#000000" stroke-width="1" fill="none"></path></g></g><mask></mask><g transform="translate(20.321436614149206 171.41507181544762) rotate(0 72.5 19.5)"><text x="0" y="0" font-family="Helvetica, Segoe UI Emoji" font-size="34.48337065812577px" fill="#000000" text-anchor="start" style="white-space: pre;" direction="ltr" dominant-baseline="text-before-edge">Drive API</text></g></svg>