<svg version="1.1" xmlns="http://www.w3.org/2000/svg" viewBox="0 0 128.35419751960285 121.91082535593068" width="128.35419751960285" height="121.91082535593068">
  <!-- svg-source:excalidraw -->
  
  <defs>
    
    
  </defs>
  <g stroke-linecap="round"><g transform="translate(16.75581041273199 36.57183609811818) rotate(0 24.082140800280513 36.14375970302535)" fill-rule="evenodd"><path d="M1.87 1.47 L-0.11 73.41 L49.42 72.85 L47 62.38 L13.64 62.05 L12.7 33.29 L40.47 31.77 L40.21 22.5 L12.55 20.37 L11.33 -2.73 L-0.89 -0.92" stroke="none" stroke-width="0" fill="#4285f4" fill-rule="evenodd"></path><path d="M0 0 C-1.82 30.37, -0.43 60.31, 0.88 73.72 M0 0 C-0.01 23.56, 1.61 46.31, 0.88 73.72 M0.88 73.72 C17.24 74.78, 34.15 74.7, 48.16 73.16 M0.88 73.72 C17.75 74.63, 33.98 73.89, 48.16 73.16 M48.16 73.16 C46.51 69.1, 45.84 65.06, 46.27 62.61 M48.16 73.16 C47.99 70.36, 47.06 67.6, 46.27 62.61 M46.27 62.61 C38.23 64.18, 32.46 60.87, 11.65 62.27 M46.27 62.61 C38.97 63.34, 31 61.78, 11.65 62.27 M11.65 62.27 C11.75 55.94, 10.97 45.37, 11.62 33.34 M11.65 62.27 C11.71 51.39, 10.83 41.55, 11.62 33.34 M11.62 33.34 C22.4 33.99, 31.89 31.36, 39.73 31.94 M11.62 33.34 C20.77 33.52, 29.74 33.2, 39.73 31.94 M39.73 31.94 C39.35 26.83, 38.27 23.63, 38.77 21.38 M39.73 31.94 C39.38 29.93, 38.81 27.13, 38.77 21.38 M38.77 21.38 C27.7 19.83, 19.38 20, 11.95 21.85 M38.77 21.38 C33.29 21.19, 26.83 21.01, 11.95 21.85 M11.95 21.85 C10.34 13.98, 10.62 9.85, 11.7 -1.44 M11.95 21.85 C11.57 13.38, 10.58 3.5, 11.7 -1.44 M11.7 -1.44 C9.41 -1.16, 5.19 0.27, 0 0 M11.7 -1.44 C8.88 -0.69, 6.6 -0.43, 0 0 M0 0 C0 0, 0 0, 0 0 M0 0 C0 0, 0 0, 0 0" stroke="#1864ab" stroke-width="1" fill="none"></path></g></g><mask></mask><g stroke-linecap="round" transform="translate(46.00108723064068 11.838888381772449) rotate(0 37.744571001101804 11.241877629206556)"><path d="M-0.65 -1.48 L73.93 1.5 L76.3 21.13 L0.2 23.21" stroke="none" stroke-width="0" fill="#669df6"></path><path d="M0 0 C25.2 0.33, 50.79 -0.02, 75.49 0 M0 0 C22.32 -1.16, 43.87 -1.07, 75.49 0 M75.49 0 C74.12 6.01, 76.67 10.46, 75.49 22.48 M75.49 0 C76.29 8.19, 74.6 17.74, 75.49 22.48 M75.49 22.48 C58.88 22.82, 43.08 22.48, 0 22.48 M75.49 22.48 C60 23.34, 44.7 23.47, 0 22.48 M0 22.48 C1.74 15.4, -0.85 7.05, 0 0 M0 22.48 C-0.37 14.65, -0.24 6.13, 0 0" stroke="#1864ab" stroke-width="1" fill="none"></path></g><g stroke-linecap="round" transform="translate(45.451669099130186 53.009464428447245) rotate(0 37.744571001101804 11.241877629206556)"><path d="M-0.3 -1.98 L75.19 -1.32 L74.88 21.29 L1.08 21.32" stroke="none" stroke-width="0" fill="#669df6"></path><path d="M0 0 C26.71 1.72, 52.13 1.72, 75.49 0 M0 0 C19.17 0.86, 39.12 -0.11, 75.49 0 M75.49 0 C77.28 4.22, 75.04 11.64, 75.49 22.48 M75.49 0 C74.61 5.91, 76.1 13.78, 75.49 22.48 M75.49 22.48 C57.55 23.91, 38.86 21.68, 0 22.48 M75.49 22.48 C53.75 23.48, 33.42 23.54, 0 22.48 M0 22.48 C0.76 15.58, 1.26 6.18, 0 0 M0 22.48 C-0.27 17.09, -0.58 12.96, 0 0" stroke="#1864ab" stroke-width="1" fill="none"></path></g><g stroke-linecap="round" transform="translate(46.86505551739924 93.42707009751757) rotate(0 37.744571001101804 11.241877629206556)"><path d="M-1.66 -1.54 L76.46 1.92 L74.05 20.64 L0.08 20.82" stroke="none" stroke-width="0" fill="#669df6"></path><path d="M0 0 C28.03 -0.52, 51.35 -0.49, 75.49 0 M0 0 C17.39 0.37, 35.81 -0.45, 75.49 0 M75.49 0 C74.14 7.49, 74.18 12.59, 75.49 22.48 M75.49 0 C76.05 9.45, 74.73 17.59, 75.49 22.48 M75.49 22.48 C49.9 23.11, 25.03 23.75, 0 22.48 M75.49 22.48 C59.67 23.38, 42.17 22.44, 0 22.48 M0 22.48 C1.86 13, 0.59 7.77, 0 0 M0 22.48 C0.09 14.64, -0.71 8.94, 0 0" stroke="#1864ab" stroke-width="1" fill="none"></path></g><g stroke-linecap="round" transform="translate(6 6) rotate(0 16.672561645507812 17.032943725585938)"><path d="M0.59 0.99 L33.87 0.45 L33.9 35.01 L-0.77 33.25" stroke="none" stroke-width="0" fill="#aecbfa"></path><path d="M0 0 C10.91 -0.13, 23.96 0.77, 33.35 0 M0 0 C10.49 -0.2, 20.53 0.43, 33.35 0 M33.35 0 C33.27 13.42, 32.95 26.6, 33.35 34.07 M33.35 0 C33.14 9.65, 33.67 19.7, 33.35 34.07 M33.35 34.07 C20.83 35.16, 9.41 33.64, 0 34.07 M33.35 34.07 C26.93 34.05, 20.25 33.82, 0 34.07 M0 34.07 C0.34 27.6, 0.82 19.39, 0 0 M0 34.07 C0.19 25.09, -0.46 15.56, 0 0" stroke="#669df6" stroke-width="1" fill="none"></path></g></svg>