<svg xmlns="http://www.w3.org/2000/svg" viewBox="-446.17 2363.57 240.43 307.28" width="240" height="307"><polyline points="-404.02,2564.06 -404.02,2564.06 -407.17,2571.91 -413.49,2576.81 -421.37,2578.06 -429.26,2574.98 -433.55,2570.17 -435.57,2564.06 -435.57,2564.06 -435.57,2519.04 -435.57,2519.04 -434.29,2510.67 -429.26,2504.46 -421.87,2501.44 -413.49,2502.64 -406.04,2509.27 -404.02,2519.04 -404.02,2564.06" fill="none" stroke="#000000" stroke-width="1" opacity="1.0" stroke-linecap="round" stroke-linejoin="round"/><polyline points="-350.06,2564.06 -350.06,2564.06 -353.21,2571.91 -359.53,2576.81 -367.41,2578.06 -375.30,2574.98 -379.59,2570.17 -381.61,2564.06 -381.61,2564.06 -381.61,2519.04 -381.61,2519.04 -378.45,2511.18 -372.14,2506.29 -364.25,2505.04 -356.36,2508.11 -352.08,2512.92 -350.06,2519.04 -350.06,2564.06" fill="none" stroke="#000000" stroke-width="1" opacity="1.0" stroke-linecap="round" stroke-linejoin="round"/><polyline points="-296.83,2564.06 -296.83,2564.06 -299.99,2571.91 -306.30,2576.81 -314.19,2578.06 -322.08,2574.98 -326.37,2570.17 -328.39,2564.06 -328.39,2519.04 -328.39,2519.04 -325.23,2511.18 -318.92,2506.29 -311.03,2505.04 -303.14,2508.11 -298.86,2512.92 -296.83,2519.04 -296.83,2564.06" fill="none" stroke="#000000" stroke-width="1" opacity="1.0" stroke-linecap="round" stroke-linejoin="round"/><polyline points="-243.29,2564.06 -243.29,2564.06 -246.45,2571.91 -252.76,2576.81 -260.65,2578.06 -268.54,2574.98 -272.83,2570.17 -274.85,2564.06 -274.85,2519.04 -274.85,2519.04 -273.57,2510.67 -268.54,2504.46 -261.14,2501.44 -252.76,2502.64 -245.32,2509.27 -243.29,2519.04 -243.29,2564.06" fill="none" stroke="#000000" stroke-width="1" opacity="1.0" stroke-linecap="round" stroke-linejoin="round"/><ellipse cx="-366.36" cy="2474.44" rx="15.88" ry="15.88" stroke="#000000" stroke-width="1" opacity="1.0" fill="#aecbfa"/><ellipse cx="-312.72" cy="2474.44" rx="15.88" ry="15.88" stroke="#000000" stroke-width="1" opacity="1.0" fill="#669df6"/><ellipse cx="-312.72" cy="2429.95" rx="15.88" ry="15.88" stroke="#000000" stroke-width="1" opacity="1.0" fill="#aecbfa"/><ellipse cx="-259.18" cy="2474.44" rx="15.88" ry="15.88" stroke="#000000" stroke-width="1" opacity="1.0" fill="#669df6"/><ellipse cx="-259.18" cy="2429.95" rx="15.88" ry="15.88" stroke="#000000" stroke-width="1" opacity="1.0" fill="#669df6"/><ellipse cx="-259.18" cy="2385.45" rx="15.88" ry="15.88" stroke="#000000" stroke-width="1" opacity="1.0" fill="#aecbfa"/><text x="-440.17" y="2618.61" font-size="35.76686764283662" fill="#000000" opacity="1.0" font-family="sans-serif">API
Monetization</text></svg>