<svg xmlns="http://www.w3.org/2000/svg" viewBox="23.71 499.34 172.00 84.00" width="172" height="84"><rect x="29.71" y="505.34" width="160.00" height="72.00" rx="0" stroke="#4285f4" stroke-width="2" opacity="1.0" fill="#FFF"/><text x="94.71" y="546.34" font-size="12" fill="#000000" opacity="1.0" font-family="sans-serif">Cloud IDS</text><polyline points="52.73,534.81 52.73,540.80 52.73,540.80 52.71,541.40 52.73,541.99 52.81,542.52 52.91,543.04 53.03,543.55 53.18,544.05 53.35,544.55 53.54,545.04 53.75,545.52 53.98,545.99 54.23,546.45 54.50,546.90 54.79,547.34 55.11,547.76 55.43,548.17 55.78,548.57 56.15,548.95 56.53,549.32 56.82,549.58 57.12,549.84 57.42,550.09 57.73,550.33 58.05,550.55 58.38,550.76 58.71,550.97 59.05,551.16 59.40,551.34 59.75,551.51 60.11,551.67 60.47,551.81 60.84,551.94 61.21,552.06 61.59,552.17 61.97,552.27 62.24,552.27 62.24,546.34 62.24,546.34 61.99,546.33 61.73,546.31 61.49,546.28 61.24,546.24 61.00,546.18 60.77,546.12 60.54,546.04 60.31,545.95 60.10,545.85 59.88,545.74 59.67,545.62 59.47,545.50 59.28,545.36 59.09,545.21 58.91,545.05 58.74,544.89 58.58,544.72 58.42,544.54 58.28,544.35 58.14,544.16 58.01,543.96 57.89,543.75 57.78,543.54 57.68,543.32 57.59,543.09 57.52,542.86 57.45,542.63 57.39,542.39 57.35,542.15 57.32,541.90 57.30,541.65 57.29,541.39 57.30,541.14 57.32,540.89 57.35,540.64 57.39,540.40 57.45,540.16 57.52,539.92 57.59,539.69 57.68,539.47 57.78,539.25 57.89,539.03 58.01,538.83 58.14,538.63 58.28,538.43 58.42,538.25 58.58,538.07 58.74,537.89 58.91,537.73 59.09,537.57 59.28,537.43 59.47,537.29 59.67,537.16 59.88,537.04 60.10,536.93 60.31,536.83 60.54,536.75 60.77,536.67 61.00,536.60 61.24,536.55 61.49,536.50 61.73,536.47 61.99,536.45 62.24,536.45 62.24,530.39 52.73,534.81 52.73,534.81" fill="#aecbfa" stroke="none" stroke-width="1" opacity="1.0" stroke-linecap="round" stroke-linejoin="round"/><polyline points="75.27,540.15 75.27,540.15 75.40,540.16 75.52,540.18 75.64,540.21 75.75,540.25 75.86,540.30 75.97,540.36 76.06,540.44 76.15,540.52 76.23,540.60 76.30,540.70 76.36,540.80 76.42,540.91 76.46,541.02 76.49,541.14 76.51,541.27 76.51,541.39 76.51,541.52 76.49,541.64 76.46,541.76 76.42,541.88 76.36,541.98 76.30,542.09 76.23,542.18 76.15,542.27 76.06,542.35 75.97,542.42 75.87,542.48 75.76,542.53 75.64,542.58 75.52,542.61 75.40,542.63 75.27,542.63 75.15,542.63 75.03,542.61 74.91,542.58 74.79,542.53 74.69,542.48 74.58,542.42 74.49,542.35 74.40,542.27 74.32,542.18 74.25,542.09 74.19,541.98 74.14,541.88 74.10,541.76 74.06,541.64 74.05,541.52 74.04,541.39 74.05,541.27 74.06,541.14 74.10,541.02 74.14,540.91 74.19,540.80 74.25,540.70 74.32,540.61 74.40,540.52 74.49,540.44 74.58,540.37 74.69,540.30 74.79,540.25 74.91,540.21 75.03,540.18 75.15,540.16 75.27,540.15" fill="#aecbfa" stroke="none" stroke-width="1" opacity="1.0" stroke-linecap="round" stroke-linejoin="round"/><polyline points="75.27,538.96 75.27,538.96 75.03,538.98 74.78,539.01 74.55,539.07 74.33,539.16 74.12,539.26 73.92,539.38 73.73,539.52 73.56,539.68 73.40,539.85 73.26,540.04 73.14,540.24 73.04,540.45 72.96,540.67 72.90,540.90 72.86,541.14 72.85,541.39 72.86,541.64 72.90,541.88 72.96,542.11 73.04,542.34 73.14,542.55 73.26,542.75 73.40,542.94 73.56,543.11 73.73,543.27 73.92,543.41 74.12,543.53 74.33,543.63 74.55,543.71 74.78,543.77 75.03,543.81 75.27,543.82 75.52,543.81 75.76,543.77 76.00,543.71 76.22,543.63 76.43,543.53 76.63,543.41 76.82,543.27 76.99,543.11 77.15,542.94 77.29,542.75 77.41,542.55 77.51,542.34 77.59,542.11 77.65,541.88 77.69,541.64 77.70,541.39 77.69,541.14 77.65,540.90 77.59,540.67 77.51,540.45 77.41,540.24 77.29,540.04 77.15,539.85 76.99,539.68 76.82,539.52 76.63,539.38 76.43,539.26 76.22,539.16 76.00,539.07 75.76,539.01 75.52,538.98 75.27,538.96 75.27,538.96" fill="#aecbfa" stroke="none" stroke-width="1" opacity="1.0" stroke-linecap="round" stroke-linejoin="round"/><polyline points="62.24,530.39 62.24,536.45 62.24,536.45 62.49,536.45 62.75,536.47 62.99,536.50 63.24,536.55 63.48,536.60 63.71,536.67 63.94,536.75 64.17,536.83 64.39,536.93 64.60,537.04 64.81,537.16 65.01,537.29 65.20,537.43 65.39,537.57 65.57,537.73 65.74,537.89 65.90,538.07 66.06,538.25 66.20,538.43 66.34,538.63 66.47,538.83 66.59,539.03 66.70,539.25 66.80,539.47 66.89,539.69 66.97,539.92 67.03,540.16 67.09,540.40 67.13,540.64 67.16,540.89 67.18,541.14 67.19,541.39 67.18,541.65 67.16,541.90 67.13,542.15 67.09,542.39 67.03,542.63 66.97,542.86 66.89,543.09 66.80,543.32 66.70,543.54 66.59,543.75 66.47,543.96 66.34,544.16 66.20,544.35 66.06,544.54 65.90,544.72 65.74,544.89 65.57,545.05 65.39,545.21 65.20,545.36 65.01,545.50 64.81,545.62 64.60,545.74 64.39,545.85 64.17,545.95 63.94,546.04 63.71,546.12 63.48,546.18 63.24,546.24 62.99,546.28 62.75,546.31 62.49,546.33 62.24,546.34 62.24,552.30 62.51,552.30 62.51,552.30 62.89,552.21 63.27,552.10 63.64,551.97 64.01,551.84 64.37,551.69 64.73,551.53 65.08,551.36 65.43,551.18 65.77,550.99 66.10,550.78 66.43,550.57 66.75,550.34 67.06,550.10 67.37,549.85 67.66,549.59 67.95,549.32 68.33,548.95 68.68,548.57 69.02,548.17 69.35,547.76 69.65,547.34 69.93,546.90 70.20,546.46 70.44,546.00 70.67,545.53 70.87,545.05 71.06,544.57 71.22,544.07 71.37,543.57 71.49,543.06 71.59,542.55 71.66,542.03 71.68,541.43 71.66,540.84 71.66,534.81 62.24,530.39 62.24,530.39" fill="#4285f4" stroke="none" stroke-width="1" opacity="1.0" stroke-linecap="round" stroke-linejoin="round"/><polyline points="75.27,529.83 75.27,529.83 75.40,529.84 75.52,529.86 75.64,529.89 75.75,529.93 75.86,529.98 75.97,530.04 76.06,530.11 76.15,530.19 76.23,530.28 76.30,530.38 76.36,530.48 76.42,530.59 76.46,530.70 76.49,530.82 76.51,530.94 76.51,531.07 76.51,531.20 76.49,531.32 76.46,531.44 76.42,531.55 76.36,531.66 76.30,531.76 76.23,531.86 76.15,531.95 76.06,532.03 75.97,532.10 75.87,532.16 75.76,532.21 75.64,532.25 75.52,532.29 75.40,532.30 75.27,532.31 75.15,532.30 75.02,532.29 74.90,532.26 74.79,532.21 74.68,532.16 74.58,532.10 74.48,532.03 74.40,531.95 74.32,531.86 74.25,531.76 74.18,531.66 74.13,531.55 74.09,531.44 74.06,531.32 74.04,531.20 74.03,531.07 74.04,530.94 74.06,530.82 74.09,530.70 74.13,530.59 74.19,530.48 74.25,530.38 74.32,530.28 74.40,530.19 74.49,530.11 74.58,530.04 74.69,529.98 74.79,529.93 74.91,529.89 75.03,529.86 75.15,529.84 75.27,529.83" fill="#4285f4" stroke="none" stroke-width="1" opacity="1.0" stroke-linecap="round" stroke-linejoin="round"/><polyline points="75.27,528.64 75.27,528.64 75.03,528.66 74.78,528.69 74.55,528.75 74.33,528.83 74.12,528.94 73.92,529.06 73.73,529.20 73.56,529.35 73.40,529.53 73.26,529.71 73.14,529.91 73.04,530.13 72.96,530.35 72.90,530.58 72.86,530.82 72.85,531.07 72.86,531.32 72.90,531.56 72.96,531.79 73.04,532.02 73.14,532.23 73.26,532.43 73.40,532.62 73.56,532.79 73.73,532.94 73.92,533.08 74.12,533.21 74.33,533.31 74.55,533.39 74.78,533.45 75.03,533.49 75.27,533.50 75.52,533.49 75.76,533.45 76.00,533.39 76.22,533.31 76.43,533.21 76.63,533.08 76.82,532.94 76.99,532.79 77.15,532.62 77.29,532.43 77.41,532.23 77.51,532.02 77.59,531.79 77.65,531.56 77.69,531.32 77.70,531.07 77.68,530.83 77.64,530.59 77.58,530.36 77.50,530.14 77.39,529.94 77.27,529.74 77.13,529.56 76.97,529.39 76.80,529.24 76.62,529.10 76.42,528.99 76.21,528.89 75.99,528.81 75.76,528.75 75.52,528.72 75.27,528.71 75.27,528.64 75.27,528.64" fill="#4285f4" stroke="none" stroke-width="1" opacity="1.0" stroke-linecap="round" stroke-linejoin="round"/><polyline points="49.21,550.48 49.21,550.48 49.33,550.49 49.46,550.50 49.57,550.54 49.69,550.58 49.79,550.63 49.90,550.69 49.99,550.76 50.08,550.84 50.16,550.93 50.23,551.03 50.29,551.13 50.34,551.24 50.39,551.35 50.42,551.47 50.43,551.59 50.44,551.72 50.43,551.85 50.42,551.97 50.39,552.09 50.34,552.20 50.29,552.31 50.23,552.41 50.16,552.50 50.08,552.59 49.99,552.67 49.90,552.74 49.79,552.80 49.69,552.86 49.57,552.90 49.46,552.93 49.33,552.95 49.21,552.95 49.08,552.95 48.96,552.93 48.84,552.90 48.73,552.86 48.62,552.80 48.52,552.74 48.42,552.67 48.33,552.59 48.25,552.50 48.18,552.41 48.12,552.31 48.07,552.20 48.02,552.09 47.99,551.97 47.97,551.85 47.97,551.72 47.97,551.59 47.99,551.47 48.02,551.35 48.06,551.24 48.12,551.13 48.18,551.03 48.25,550.93 48.33,550.84 48.42,550.76 48.51,550.69 48.62,550.63 48.72,550.58 48.84,550.54 48.96,550.50 49.08,550.49 49.21,550.48" fill="#4285f4" stroke="none" stroke-width="1" opacity="1.0" stroke-linecap="round" stroke-linejoin="round"/><polyline points="49.21,549.29 49.21,549.29 48.96,549.30 48.72,549.34 48.48,549.40 48.26,549.48 48.05,549.58 47.85,549.70 47.66,549.84 47.49,549.99 47.33,550.16 47.19,550.35 47.06,550.55 46.96,550.76 46.88,550.98 46.82,551.21 46.78,551.46 46.76,551.70 46.77,551.95 46.81,552.19 46.87,552.43 46.95,552.65 47.05,552.86 47.17,553.06 47.31,553.25 47.46,553.42 47.63,553.58 47.82,553.72 48.02,553.85 48.23,553.95 48.45,554.03 48.69,554.09 48.93,554.13 49.18,554.15 49.42,554.14 49.67,554.10 49.90,554.04 50.12,553.96 50.33,553.86 50.54,553.74 50.72,553.60 50.90,553.45 51.05,553.28 51.20,553.09 51.32,552.89 51.42,552.68 51.50,552.46 51.57,552.22 51.60,551.98 51.62,551.73 51.62,551.72 51.62,551.72 51.60,551.47 51.57,551.24 51.50,551.01 51.42,550.79 51.32,550.58 51.20,550.38 51.06,550.20 50.90,550.03 50.73,549.88 50.55,549.74 50.35,549.62 50.14,549.52 49.92,549.44 49.69,549.38 49.45,549.34 49.21,549.33 49.21,549.29 49.21,549.29" fill="#4285f4" stroke="none" stroke-width="1" opacity="1.0" stroke-linecap="round" stroke-linejoin="round"/><polyline points="49.21,540.15 49.21,540.15 49.33,540.16 49.46,540.18 49.57,540.21 49.69,540.25 49.80,540.30 49.90,540.36 49.99,540.44 50.08,540.52 50.16,540.60 50.23,540.70 50.30,540.80 50.35,540.91 50.39,541.02 50.42,541.14 50.44,541.27 50.45,541.39 50.44,541.52 50.42,541.64 50.39,541.76 50.35,541.88 50.30,541.98 50.23,542.09 50.16,542.18 50.08,542.27 50.00,542.35 49.90,542.42 49.80,542.48 49.69,542.53 49.58,542.58 49.46,542.61 49.33,542.63 49.21,542.63 49.08,542.63 48.96,542.61 48.84,542.58 48.73,542.53 48.62,542.48 48.52,542.42 48.42,542.35 48.33,542.27 48.25,542.18 48.18,542.09 48.12,541.98 48.07,541.88 48.03,541.76 48.00,541.64 47.98,541.52 47.97,541.39 47.98,541.27 48.00,541.14 48.03,541.02 48.07,540.91 48.12,540.80 48.18,540.70 48.25,540.61 48.33,540.52 48.42,540.44 48.52,540.37 48.62,540.30 48.73,540.25 48.84,540.21 48.96,540.18 49.08,540.16 49.21,540.15" fill="#aecbfa" stroke="none" stroke-width="1" opacity="1.0" stroke-linecap="round" stroke-linejoin="round"/><polyline points="49.21,538.96 49.21,538.96 48.96,538.98 48.72,539.01 48.48,539.07 48.26,539.15 48.05,539.25 47.85,539.37 47.66,539.51 47.49,539.66 47.33,539.84 47.19,540.02 47.06,540.22 46.96,540.43 46.88,540.66 46.82,540.89 46.78,541.13 46.76,541.38 46.77,541.63 46.81,541.87 46.87,542.10 46.95,542.32 47.05,542.54 47.17,542.74 47.31,542.92 47.46,543.10 47.63,543.26 47.82,543.40 48.02,543.52 48.23,543.62 48.45,543.71 48.69,543.77 48.93,543.81 49.18,543.82 49.42,543.81 49.67,543.77 49.90,543.72 50.12,543.64 50.33,543.54 50.54,543.42 50.72,543.28 50.90,543.12 51.05,542.95 51.20,542.76 51.32,542.56 51.42,542.35 51.50,542.13 51.57,541.90 51.60,541.66 51.62,541.41 51.62,541.39 51.62,541.39 51.61,541.15 51.57,540.91 51.51,540.67 51.43,540.45 51.33,540.24 51.21,540.04 51.07,539.85 50.91,539.68 50.74,539.53 50.56,539.39 50.36,539.26 50.15,539.16 49.92,539.08 49.69,539.02 49.45,538.98 49.21,538.96 49.21,538.96" fill="#aecbfa" stroke="none" stroke-width="1" opacity="1.0" stroke-linecap="round" stroke-linejoin="round"/><polyline points="72.94,540.80 71.75,540.80 71.75,540.80 71.77,541.40 71.75,541.99 73.04,541.99 73.04,541.99 72.93,541.70 72.89,541.54 72.87,541.39 72.89,541.10 72.94,540.80 72.94,540.80" fill="#669df6" stroke="none" stroke-width="1" opacity="1.0" stroke-linecap="round" stroke-linejoin="round"/><polyline points="51.54,542.00 52.82,542.00 52.82,542.00 52.80,541.40 52.82,540.81 51.54,540.81 51.54,540.81 51.56,541.10 51.54,541.40 51.55,541.69 51.54,542.00 51.54,542.00" fill="#669df6" stroke="none" stroke-width="1" opacity="1.0" stroke-linecap="round" stroke-linejoin="round"/><polyline points="54.11,530.47 51.54,530.47 51.54,530.47 51.56,530.77 51.54,531.07 51.56,531.36 51.54,531.66 53.76,531.66 56.13,533.25 57.48,532.64 54.11,530.47 54.11,530.47" fill="#669df6" stroke="none" stroke-width="1" opacity="1.0" stroke-linecap="round" stroke-linejoin="round"/><polyline points="72.94,530.47 70.37,530.47 67.08,532.64 68.35,533.25 70.72,531.66 72.94,531.66 72.94,531.66 72.88,531.37 72.86,531.07 72.88,530.77 72.94,530.47 72.94,530.47" fill="#669df6" stroke="none" stroke-width="1" opacity="1.0" stroke-linecap="round" stroke-linejoin="round"/><polyline points="57.49,550.10 57.49,550.10 57.00,549.72 56.54,549.32 53.76,551.13 51.54,551.13 51.54,551.13 51.56,551.42 51.54,551.72 51.56,552.02 51.54,552.32 54.11,552.32 57.49,550.10 57.49,550.10" fill="#669df6" stroke="none" stroke-width="1" opacity="1.0" stroke-linecap="round" stroke-linejoin="round"/><polyline points="72.94,551.13 70.72,551.13 67.95,549.32 67.95,549.32 67.49,549.74 67.26,549.94 67.01,550.13 70.38,552.35 72.95,552.35 72.95,552.35 72.89,552.05 72.87,551.74 72.89,551.44 72.94,551.13 72.94,551.13" fill="#669df6" stroke="none" stroke-width="1" opacity="1.0" stroke-linecap="round" stroke-linejoin="round"/><polyline points="62.24,538.82 62.24,538.82 61.98,538.84 61.72,538.87 61.48,538.94 61.24,539.02 61.02,539.13 60.80,539.26 60.61,539.41 60.42,539.57 60.26,539.76 60.11,539.95 59.98,540.17 59.87,540.39 59.79,540.63 59.72,540.87 59.68,541.13 59.67,541.39 59.68,541.66 59.72,541.91 59.79,542.16 59.87,542.39 59.98,542.62 60.11,542.83 60.26,543.03 60.42,543.21 60.60,543.38 60.80,543.52 61.01,543.65 61.24,543.76 61.47,543.85 61.72,543.91 61.98,543.95 62.24,543.96 62.50,543.95 62.76,543.91 63.00,543.85 63.24,543.76 63.46,543.65 63.68,543.52 63.87,543.38 64.06,543.21 64.22,543.03 64.37,542.83 64.50,542.62 64.61,542.39 64.69,542.16 64.76,541.91 64.80,541.66 64.81,541.39 64.80,541.13 64.76,540.88 64.69,540.63 64.60,540.39 64.50,540.17 64.37,539.96 64.22,539.76 64.05,539.58 63.87,539.41 63.67,539.27 63.46,539.14 63.24,539.03 63.00,538.94 62.76,538.88 62.50,538.84 62.24,538.82 62.24,538.82" fill="#669df6" stroke="none" stroke-width="1" opacity="1.0" stroke-linecap="round" stroke-linejoin="round"/><polyline points="75.27,550.48 75.27,550.48 75.40,550.49 75.52,550.50 75.64,550.54 75.75,550.58 75.86,550.63 75.97,550.69 76.06,550.76 76.15,550.84 76.23,550.93 76.30,551.02 76.36,551.13 76.42,551.23 76.46,551.35 76.49,551.47 76.51,551.59 76.51,551.71 76.51,551.84 76.49,551.96 76.46,552.08 76.42,552.19 76.36,552.30 76.30,552.41 76.23,552.50 76.15,552.59 76.06,552.67 75.97,552.74 75.87,552.80 75.76,552.86 75.65,552.90 75.53,552.93 75.40,552.95 75.28,552.95 75.15,552.95 75.03,552.93 74.91,552.90 74.80,552.86 74.69,552.80 74.59,552.74 74.49,552.67 74.41,552.59 74.33,552.50 74.26,552.41 74.19,552.31 74.14,552.20 74.10,552.08 74.07,551.96 74.05,551.84 74.04,551.71 74.05,551.59 74.07,551.47 74.10,551.35 74.14,551.23 74.19,551.13 74.25,551.02 74.32,550.93 74.40,550.84 74.49,550.76 74.58,550.69 74.69,550.63 74.79,550.58 74.91,550.54 75.03,550.50 75.15,550.49 75.27,550.48" fill="#669df6" stroke="none" stroke-width="1" opacity="1.0" stroke-linecap="round" stroke-linejoin="round"/><polyline points="75.27,549.29 75.27,549.29 75.03,549.30 74.78,549.34 74.55,549.40 74.33,549.48 74.12,549.58 73.92,549.71 73.73,549.85 73.56,550.00 73.40,550.17 73.26,550.36 73.14,550.56 73.04,550.77 72.96,551.00 72.90,551.23 72.86,551.47 72.85,551.72 72.86,551.97 72.90,552.21 72.96,552.44 73.04,552.66 73.14,552.88 73.26,553.08 73.40,553.26 73.56,553.44 73.73,553.59 73.92,553.73 74.12,553.85 74.33,553.96 74.55,554.04 74.78,554.10 75.03,554.13 75.27,554.15 75.52,554.13 75.76,554.10 76.00,554.04 76.22,553.96 76.43,553.85 76.63,553.73 76.82,553.59 76.99,553.44 77.15,553.26 77.29,553.08 77.41,552.88 77.51,552.66 77.59,552.44 77.65,552.21 77.69,551.97 77.70,551.72 77.69,551.47 77.65,551.24 77.59,551.01 77.50,550.79 77.40,550.58 77.28,550.38 77.14,550.20 76.98,550.03 76.81,549.87 76.62,549.73 76.42,549.61 76.21,549.51 75.99,549.43 75.76,549.38 75.52,549.34 75.27,549.33 75.27,549.29 75.27,549.29" fill="#669df6" stroke="none" stroke-width="1" opacity="1.0" stroke-linecap="round" stroke-linejoin="round"/><polyline points="49.21,529.83 49.21,529.83 49.33,529.84 49.46,529.86 49.57,529.89 49.69,529.93 49.80,529.98 49.90,530.04 49.99,530.11 50.08,530.19 50.16,530.28 50.23,530.38 50.30,530.48 50.35,530.59 50.39,530.70 50.42,530.82 50.44,530.94 50.45,531.07 50.44,531.20 50.42,531.32 50.39,531.44 50.35,531.55 50.30,531.66 50.23,531.76 50.16,531.86 50.08,531.95 50.00,532.03 49.90,532.10 49.80,532.16 49.69,532.21 49.58,532.25 49.46,532.29 49.33,532.30 49.21,532.31 49.08,532.30 48.96,532.29 48.84,532.26 48.72,532.21 48.62,532.16 48.51,532.10 48.42,532.03 48.33,531.95 48.25,531.86 48.18,531.76 48.12,531.66 48.06,531.55 48.02,531.44 47.99,531.32 47.97,531.20 47.97,531.07 47.97,530.94 47.99,530.82 48.02,530.70 48.06,530.59 48.12,530.48 48.18,530.38 48.25,530.28 48.33,530.19 48.42,530.11 48.51,530.04 48.62,529.98 48.72,529.93 48.84,529.89 48.96,529.86 49.08,529.84 49.21,529.83" fill="#669df6" stroke="none" stroke-width="1" opacity="1.0" stroke-linecap="round" stroke-linejoin="round"/><polyline points="49.21,528.64 49.21,528.64 48.96,528.65 48.72,528.69 48.48,528.75 48.26,528.83 48.05,528.93 47.85,529.05 47.66,529.19 47.49,529.34 47.33,529.51 47.19,529.70 47.06,529.90 46.96,530.11 46.88,530.33 46.82,530.57 46.78,530.81 46.76,531.06 46.77,531.30 46.81,531.55 46.87,531.78 46.95,532.00 47.05,532.21 47.17,532.42 47.31,532.60 47.46,532.78 47.63,532.93 47.82,533.08 48.02,533.20 48.23,533.30 48.45,533.39 48.69,533.45 48.93,533.48 49.18,533.50 49.42,533.49 49.67,533.45 49.90,533.40 50.12,533.32 50.33,533.21 50.54,533.09 50.72,532.96 50.90,532.80 51.05,532.63 51.20,532.44 51.32,532.24 51.42,532.03 51.50,531.81 51.57,531.58 51.60,531.33 51.62,531.09 51.62,531.07 51.62,531.07 51.60,530.83 51.56,530.59 51.50,530.37 51.42,530.15 51.31,529.94 51.19,529.75 51.05,529.57 50.90,529.40 50.73,529.25 50.54,529.11 50.34,528.99 50.13,528.89 49.92,528.82 49.69,528.76 49.45,528.72 49.21,528.71 49.21,528.64 49.21,528.64" fill="#669df6" stroke="none" stroke-width="1" opacity="1.0" stroke-linecap="round" stroke-linejoin="round"/><polyline points="75.27,540.15 75.27,540.15 75.40,540.16 75.52,540.18 75.64,540.21 75.75,540.25 75.86,540.30 75.97,540.36 76.06,540.44 76.15,540.52 76.23,540.60 76.30,540.70 76.36,540.80 76.42,540.91 76.46,541.02 76.49,541.14 76.51,541.27 76.51,541.39 76.51,541.52 76.49,541.64 76.46,541.76 76.42,541.88 76.36,541.98 76.30,542.09 76.23,542.18 76.15,542.27 76.06,542.35 75.97,542.42 75.87,542.48 75.76,542.53 75.64,542.58 75.52,542.61 75.40,542.63 75.27,542.63 75.15,542.63 75.03,542.61 74.91,542.58 74.79,542.53 74.69,542.48 74.58,542.42 74.49,542.35 74.40,542.27 74.32,542.18 74.25,542.09 74.19,541.98 74.14,541.88 74.10,541.76 74.06,541.64 74.05,541.52 74.04,541.39 74.05,541.27 74.06,541.14 74.10,541.02 74.14,540.91 74.19,540.80 74.25,540.70 74.32,540.61 74.40,540.52 74.49,540.44 74.58,540.37 74.69,540.30 74.79,540.25 74.91,540.21 75.03,540.18 75.15,540.16 75.27,540.15" fill="#fff" stroke="none" stroke-width="1" opacity="1.0" stroke-linecap="round" stroke-linejoin="round"/><polyline points="75.27,529.83 75.27,529.83 75.40,529.84 75.52,529.86 75.64,529.89 75.75,529.93 75.86,529.98 75.97,530.04 76.06,530.11 76.15,530.19 76.23,530.28 76.30,530.38 76.36,530.48 76.42,530.59 76.46,530.70 76.49,530.82 76.51,530.94 76.51,531.07 76.51,531.20 76.49,531.32 76.46,531.44 76.42,531.55 76.36,531.66 76.30,531.76 76.23,531.86 76.15,531.95 76.06,532.03 75.97,532.10 75.87,532.16 75.76,532.21 75.64,532.25 75.52,532.29 75.40,532.30 75.27,532.31 75.15,532.30 75.02,532.29 74.90,532.26 74.79,532.21 74.68,532.16 74.58,532.10 74.48,532.03 74.40,531.95 74.32,531.86 74.25,531.76 74.18,531.66 74.13,531.55 74.09,531.44 74.06,531.32 74.04,531.20 74.03,531.07 74.04,530.94 74.06,530.82 74.09,530.70 74.13,530.59 74.19,530.48 74.25,530.38 74.32,530.28 74.40,530.19 74.49,530.11 74.58,530.04 74.69,529.98 74.79,529.93 74.91,529.89 75.03,529.86 75.15,529.84 75.27,529.83" fill="#fff" stroke="none" stroke-width="1" opacity="1.0" stroke-linecap="round" stroke-linejoin="round"/><polyline points="49.21,550.48 49.21,550.48 49.33,550.49 49.46,550.50 49.57,550.54 49.69,550.58 49.79,550.63 49.90,550.69 49.99,550.76 50.08,550.84 50.16,550.93 50.23,551.03 50.29,551.13 50.34,551.24 50.39,551.35 50.42,551.47 50.43,551.59 50.44,551.72 50.43,551.85 50.42,551.97 50.39,552.09 50.34,552.20 50.29,552.31 50.23,552.41 50.16,552.50 50.08,552.59 49.99,552.67 49.90,552.74 49.79,552.80 49.69,552.86 49.57,552.90 49.46,552.93 49.33,552.95 49.21,552.95 49.08,552.95 48.96,552.93 48.84,552.90 48.73,552.86 48.62,552.80 48.52,552.74 48.42,552.67 48.33,552.59 48.25,552.50 48.18,552.41 48.12,552.31 48.07,552.20 48.02,552.09 47.99,551.97 47.97,551.85 47.97,551.72 47.97,551.59 47.99,551.47 48.02,551.35 48.06,551.24 48.12,551.13 48.18,551.03 48.25,550.93 48.33,550.84 48.42,550.76 48.51,550.69 48.62,550.63 48.72,550.58 48.84,550.54 48.96,550.50 49.08,550.49 49.21,550.48" fill="#fff" stroke="none" stroke-width="1" opacity="1.0" stroke-linecap="round" stroke-linejoin="round"/><polyline points="49.21,540.15 49.21,540.15 49.33,540.16 49.46,540.18 49.57,540.21 49.69,540.25 49.80,540.30 49.90,540.36 49.99,540.44 50.08,540.52 50.16,540.60 50.23,540.70 50.30,540.80 50.35,540.91 50.39,541.02 50.42,541.14 50.44,541.27 50.45,541.39 50.44,541.52 50.42,541.64 50.39,541.76 50.35,541.88 50.30,541.98 50.23,542.09 50.16,542.18 50.08,542.27 50.00,542.35 49.90,542.42 49.80,542.48 49.69,542.53 49.58,542.58 49.46,542.61 49.33,542.63 49.21,542.63 49.08,542.63 48.96,542.61 48.84,542.58 48.73,542.53 48.62,542.48 48.52,542.42 48.42,542.35 48.33,542.27 48.25,542.18 48.18,542.09 48.12,541.98 48.07,541.88 48.03,541.76 48.00,541.64 47.98,541.52 47.97,541.39 47.98,541.27 48.00,541.14 48.03,541.02 48.07,540.91 48.12,540.80 48.18,540.70 48.25,540.61 48.33,540.52 48.42,540.44 48.52,540.37 48.62,540.30 48.73,540.25 48.84,540.21 48.96,540.18 49.08,540.16 49.21,540.15" fill="#fff" stroke="none" stroke-width="1" opacity="1.0" stroke-linecap="round" stroke-linejoin="round"/><polyline points="75.27,550.48 75.27,550.48 75.40,550.49 75.52,550.50 75.64,550.54 75.75,550.58 75.86,550.63 75.97,550.69 76.06,550.76 76.15,550.84 76.23,550.93 76.30,551.02 76.36,551.13 76.42,551.23 76.46,551.35 76.49,551.47 76.51,551.59 76.51,551.71 76.51,551.84 76.49,551.96 76.46,552.08 76.42,552.19 76.36,552.30 76.30,552.41 76.23,552.50 76.15,552.59 76.06,552.67 75.97,552.74 75.87,552.80 75.76,552.86 75.65,552.90 75.53,552.93 75.40,552.95 75.28,552.95 75.15,552.95 75.03,552.93 74.91,552.90 74.80,552.86 74.69,552.80 74.59,552.74 74.49,552.67 74.41,552.59 74.33,552.50 74.26,552.41 74.19,552.31 74.14,552.20 74.10,552.08 74.07,551.96 74.05,551.84 74.04,551.71 74.05,551.59 74.07,551.47 74.10,551.35 74.14,551.23 74.19,551.13 74.25,551.02 74.32,550.93 74.40,550.84 74.49,550.76 74.58,550.69 74.69,550.63 74.79,550.58 74.91,550.54 75.03,550.50 75.15,550.49 75.27,550.48" fill="#fff" stroke="none" stroke-width="1" opacity="1.0" stroke-linecap="round" stroke-linejoin="round"/><polyline points="49.21,529.83 49.21,529.83 49.33,529.84 49.46,529.86 49.57,529.89 49.69,529.93 49.80,529.98 49.90,530.04 49.99,530.11 50.08,530.19 50.16,530.28 50.23,530.38 50.30,530.48 50.35,530.59 50.39,530.70 50.42,530.82 50.44,530.94 50.45,531.07 50.44,531.20 50.42,531.32 50.39,531.44 50.35,531.55 50.30,531.66 50.23,531.76 50.16,531.86 50.08,531.95 50.00,532.03 49.90,532.10 49.80,532.16 49.69,532.21 49.58,532.25 49.46,532.29 49.33,532.30 49.21,532.31 49.08,532.30 48.96,532.29 48.84,532.26 48.72,532.21 48.62,532.16 48.51,532.10 48.42,532.03 48.33,531.95 48.25,531.86 48.18,531.76 48.12,531.66 48.06,531.55 48.02,531.44 47.99,531.32 47.97,531.20 47.97,531.07 47.97,530.94 47.99,530.82 48.02,530.70 48.06,530.59 48.12,530.48 48.18,530.38 48.25,530.28 48.33,530.19 48.42,530.11 48.51,530.04 48.62,529.98 48.72,529.93 48.84,529.89 48.96,529.86 49.08,529.84 49.21,529.83" fill="#fff" stroke="none" stroke-width="1" opacity="1.0" stroke-linecap="round" stroke-linejoin="round"/></svg>