<svg version="1.1" xmlns="http://www.w3.org/2000/svg" viewBox="0 0 208 383.10535823509736" width="208" height="383.10535823509736">
  <!-- svg-source:excalidraw -->
  
  <defs>
    
    
  </defs>
  <g stroke-linecap="round"><g transform="translate(147.15270310137134 143.70285433861318) rotate(0 5.960027329522859 63.15829184012796)" fill-rule="evenodd"><path d="M0 0 L29 0 L29 0 L28.85 7.93 L28.43 15.53 L27.74 22.83 L26.8 29.81 L25.62 36.49 L24.23 42.88 L22.63 48.98 L20.85 54.79 L16.78 65.59 L12.14 75.33 L7.06 84.05 L1.67 91.8 L-3.92 98.64 L-9.58 104.61 L-15.18 109.76 L-20.61 114.14 L-25.74 117.79 L-30.44 120.77 L-34.59 123.12 L-38.07 124.89 L-38.07 147.13 L-34.34 145.89 L-34.34 145.89 L-33.8 145.69 L-32.83 145.31 L-31.47 144.76 L-29.74 144 L-27.68 143.04 L-25.3 141.87 L-22.64 140.47 L-19.73 138.83 L-13.28 134.79 L-6.17 129.66 L1.37 123.37 L9.1 115.82 L12.96 111.55 L16.78 106.93 L20.54 101.95 L24.2 96.61 L27.74 90.88 L31.11 84.77 L34.31 78.26 L37.29 71.33 L40.03 63.98 L42.5 56.2 L44.67 47.98 L46.51 39.3 L47.99 30.16 L49.08 20.54 L49.76 10.43 L49.99 -0.18 L49.99 -20.82 L-10.5 -20.82 L0 0 L0 0" stroke="none" stroke-width="0" fill="#669df6" fill-rule="evenodd"></path><path d="M0 0 C10.37 0, 20.74 0, 29 0 M0 0 C6.47 0, 12.95 0, 29 0 M29 0 C29 0, 29 0, 29 0 M29 0 C29 0, 29 0, 29 0 M29 0 C28.94 3.03, 28.89 6.06, 28.85 7.93 M29 0 C28.97 1.75, 28.94 3.51, 28.85 7.93 M28.85 7.93 C28.69 10.84, 28.53 13.75, 28.43 15.53 M28.85 7.93 C28.71 10.43, 28.57 12.93, 28.43 15.53 M28.43 15.53 C28.25 17.4, 28.07 19.27, 27.74 22.83 M28.43 15.53 C28.21 17.84, 27.99 20.14, 27.74 22.83 M27.74 22.83 C27.43 25.1, 27.13 27.37, 26.8 29.81 M27.74 22.83 C27.52 24.44, 27.3 26.05, 26.8 29.81 M26.8 29.81 C26.36 32.29, 25.92 34.77, 25.62 36.49 M26.8 29.81 C26.5 31.49, 26.21 33.17, 25.62 36.49 M25.62 36.49 C25.23 38.3, 24.83 40.1, 24.23 42.88 M25.62 36.49 C25.09 38.94, 24.55 41.39, 24.23 42.88 M24.23 42.88 C23.89 44.16, 23.56 45.43, 22.63 48.98 M24.23 42.88 C23.82 44.45, 23.4 46.02, 22.63 48.98 M22.63 48.98 C22.24 50.25, 21.85 51.51, 20.85 54.79 M22.63 48.98 C22.23 50.28, 21.83 51.59, 20.85 54.79 M20.85 54.79 C19.86 57.4, 18.88 60.01, 16.78 65.59 M20.85 54.79 C19.41 58.59, 17.98 62.39, 16.78 65.59 M16.78 65.59 C15.22 68.86, 13.67 72.12, 12.14 75.33 M16.78 65.59 C15.27 68.75, 13.77 71.91, 12.14 75.33 M12.14 75.33 C10.98 77.31, 9.82 79.3, 7.06 84.05 M12.14 75.33 C10.94 77.39, 9.74 79.45, 7.06 84.05 M7.06 84.05 C5.03 86.96, 3 89.88, 1.67 91.8 M7.06 84.05 C5.49 86.31, 3.92 88.57, 1.67 91.8 M1.67 91.8 C-0.1 93.97, -1.87 96.13, -3.92 98.64 M1.67 91.8 C-0.56 94.53, -2.79 97.26, -3.92 98.64 M-3.92 98.64 C-5.74 100.56, -7.55 102.47, -9.58 104.61 M-3.92 98.64 C-5.45 100.25, -6.97 101.86, -9.58 104.61 M-9.58 104.61 C-11.52 106.39, -13.46 108.17, -15.18 109.76 M-9.58 104.61 C-10.78 105.71, -11.98 106.81, -15.18 109.76 M-15.18 109.76 C-16.76 111.03, -18.33 112.3, -20.61 114.14 M-15.18 109.76 C-16.48 110.8, -17.77 111.85, -20.61 114.14 M-20.61 114.14 C-22.37 115.39, -24.13 116.64, -25.74 117.79 M-20.61 114.14 C-21.85 115.02, -23.09 115.9, -25.74 117.79 M-25.74 117.79 C-26.88 118.51, -28.02 119.23, -30.44 120.77 M-25.74 117.79 C-27.21 118.72, -28.68 119.65, -30.44 120.77 M-30.44 120.77 C-31.37 121.29, -32.3 121.82, -34.59 123.12 M-30.44 120.77 C-31.8 121.54, -33.17 122.31, -34.59 123.12 M-34.59 123.12 C-35.55 123.61, -36.51 124.1, -38.07 124.89 M-34.59 123.12 C-35.45 123.56, -36.3 123.99, -38.07 124.89 M-38.07 124.89 C-38.07 131.4, -38.07 137.91, -38.07 147.13 M-38.07 124.89 C-38.07 131.68, -38.07 138.47, -38.07 147.13 M-38.07 147.13 C-36.85 146.72, -35.63 146.32, -34.34 145.89 M-38.07 147.13 C-36.86 146.73, -35.66 146.33, -34.34 145.89 M-34.34 145.89 C-34.34 145.89, -34.34 145.89, -34.34 145.89 M-34.34 145.89 C-34.34 145.89, -34.34 145.89, -34.34 145.89 M-34.34 145.89 C-34.19 145.83, -34.04 145.78, -33.8 145.69 M-34.34 145.89 C-34.19 145.83, -34.05 145.78, -33.8 145.69 M-33.8 145.69 C-33.45 145.55, -33.1 145.42, -32.83 145.31 M-33.8 145.69 C-33.42 145.54, -33.05 145.4, -32.83 145.31 M-32.83 145.31 C-32.52 145.19, -32.21 145.06, -31.47 144.76 M-32.83 145.31 C-32.36 145.12, -31.9 144.93, -31.47 144.76 M-31.47 144.76 C-31.09 144.59, -30.71 144.43, -29.74 144 M-31.47 144.76 C-30.8 144.46, -30.12 144.17, -29.74 144 M-29.74 144 C-29.23 143.76, -28.71 143.52, -27.68 143.04 M-29.74 144 C-29.24 143.77, -28.75 143.54, -27.68 143.04 M-27.68 143.04 C-26.78 142.6, -25.89 142.16, -25.3 141.87 M-27.68 143.04 C-27.04 142.73, -26.4 142.41, -25.3 141.87 M-25.3 141.87 C-24.69 141.55, -24.09 141.23, -22.64 140.47 M-25.3 141.87 C-24.26 141.32, -23.21 140.77, -22.64 140.47 M-22.64 140.47 C-21.53 139.84, -20.43 139.22, -19.73 138.83 M-22.64 140.47 C-21.81 140, -20.98 139.53, -19.73 138.83 M-19.73 138.83 C-17.18 137.23, -14.63 135.63, -13.28 134.79 M-19.73 138.83 C-18.02 137.75, -16.3 136.67, -13.28 134.79 M-13.28 134.79 C-10.6 132.86, -7.92 130.93, -6.17 129.66 M-13.28 134.79 C-11.2 133.29, -9.12 131.79, -6.17 129.66 M-6.17 129.66 C-4.47 128.25, -2.78 126.83, 1.37 123.37 M-6.17 129.66 C-4.18 128, -2.19 126.34, 1.37 123.37 M1.37 123.37 C4.39 120.42, 7.4 117.47, 9.1 115.82 M1.37 123.37 C3.06 121.72, 4.75 120.06, 9.1 115.82 M9.1 115.82 C10.36 114.43, 11.62 113.03, 12.96 111.55 M9.1 115.82 C9.97 114.85, 10.84 113.89, 12.96 111.55 M12.96 111.55 C13.88 110.44, 14.8 109.33, 16.78 106.93 M12.96 111.55 C14.44 109.76, 15.91 107.98, 16.78 106.93 M16.78 106.93 C18.1 105.19, 19.41 103.45, 20.54 101.95 M16.78 106.93 C18.01 105.3, 19.24 103.68, 20.54 101.95 M20.54 101.95 C21.39 100.71, 22.24 99.47, 24.2 96.61 M20.54 101.95 C22 99.82, 23.46 97.68, 24.2 96.61 M24.2 96.61 C25.2 94.99, 26.2 93.37, 27.74 90.88 M24.2 96.61 C25.53 94.45, 26.86 92.29, 27.74 90.88 M27.74 90.88 C28.62 89.28, 29.51 87.68, 31.11 84.77 M27.74 90.88 C28.58 89.36, 29.42 87.83, 31.11 84.77 M31.11 84.77 C32.25 82.46, 33.38 80.16, 34.31 78.26 M31.11 84.77 C32.15 82.66, 33.18 80.56, 34.31 78.26 M34.31 78.26 C35.25 76.07, 36.19 73.89, 37.29 71.33 M34.31 78.26 C34.95 76.77, 35.59 75.28, 37.29 71.33 M37.29 71.33 C38.2 68.9, 39.1 66.47, 40.03 63.98 M37.29 71.33 C38.25 68.77, 39.21 66.2, 40.03 63.98 M40.03 63.98 C40.93 61.14, 41.83 58.3, 42.5 56.2 M40.03 63.98 C40.91 61.2, 41.8 58.42, 42.5 56.2 M42.5 56.2 C42.97 54.41, 43.45 52.62, 44.67 47.98 M42.5 56.2 C43.31 53.13, 44.12 50.07, 44.67 47.98 M44.67 47.98 C45.17 45.6, 45.68 43.21, 46.51 39.3 M44.67 47.98 C45.09 46, 45.51 44.03, 46.51 39.3 M46.51 39.3 C47.04 36, 47.58 32.7, 47.99 30.16 M46.51 39.3 C47.03 36.1, 47.54 32.91, 47.99 30.16 M47.99 30.16 C48.31 27.31, 48.64 24.46, 49.08 20.54 M47.99 30.16 C48.38 26.69, 48.78 23.23, 49.08 20.54 M49.08 20.54 C49.32 17.06, 49.55 13.58, 49.76 10.43 M49.08 20.54 C49.33 16.8, 49.58 13.07, 49.76 10.43 M49.76 10.43 C49.85 6.51, 49.93 2.59, 49.99 -0.18 M49.76 10.43 C49.85 6.45, 49.94 2.46, 49.99 -0.18 M49.99 -0.18 C49.99 -6.16, 49.99 -12.13, 49.99 -20.82 M49.99 -0.18 C49.99 -7.59, 49.99 -14.99, 49.99 -20.82 M49.99 -20.82 C36.3 -20.82, 22.62 -20.82, -10.5 -20.82 M49.99 -20.82 C32.98 -20.82, 15.97 -20.82, -10.5 -20.82 M-10.5 -20.82 C-6.71 -13.31, -2.93 -5.81, 0 0 M-10.5 -20.82 C-6.5 -12.89, -2.5 -4.96, 0 0 M0 0 C0 0, 0 0, 0 0 M0 0 C0 0, 0 0, 0 0 M0 0 C0 0, 0 0, 0 0 M0 0 C0 0, 0 0, 0 0" stroke="#000000" stroke-width="1" fill="none"></path></g></g><mask></mask><g stroke-linecap="round"><g transform="translate(136.47806812708268 122.88731658439701) rotate(0 -32.735561218052766 2.3128431297667476)" fill-rule="evenodd"><path d="M0 0 L10.32 -19.57 L10.32 -116.89 L-6.05 -104.26 L-6.05 -104.26 L-12.7 -98.97 L-19.34 -93.21 L-25.91 -86.98 L-32.35 -80.31 L-38.58 -73.22 L-44.57 -65.72 L-50.23 -57.84 L-55.51 -49.59 L-60.35 -41 L-64.68 -32.08 L-68.45 -22.85 L-71.6 -13.34 L-74.05 -3.55 L-75.76 6.48 L-76.66 16.74 L-76.68 27.22 L-76.34 34.16 L-75.59 41.03 L-74.44 47.8 L-72.9 54.47 L-70.98 61.02 L-68.68 67.44 L-66.02 73.7 L-63 79.79 L-59.64 85.7 L-55.93 91.41 L-51.89 96.91 L-47.53 102.18 L-42.86 107.2 L-37.88 111.95 L-32.61 116.44 L-27.04 120.62 L-25.44 121.51 L-14.77 104.26 L-16.19 103.37 L-16.19 103.37 L-22.35 98.41 L-28.11 93.05 L11.21 70.81 L11.21 20.99 L0 0 L0 0" stroke="none" stroke-width="0" fill="#4285f4" fill-rule="evenodd"></path><path d="M0 0 C3.84 -7.29, 7.69 -14.58, 10.32 -19.57 M0 0 C3.88 -7.36, 7.77 -14.73, 10.32 -19.57 M10.32 -19.57 C10.32 -45.41, 10.32 -71.25, 10.32 -116.89 M10.32 -19.57 C10.32 -57.72, 10.32 -95.87, 10.32 -116.89 M10.32 -116.89 C6.69 -114.09, 3.07 -111.29, -6.05 -104.26 M10.32 -116.89 C5.76 -113.37, 1.21 -109.86, -6.05 -104.26 M-6.05 -104.26 C-6.05 -104.26, -6.05 -104.26, -6.05 -104.26 M-6.05 -104.26 C-6.05 -104.26, -6.05 -104.26, -6.05 -104.26 M-6.05 -104.26 C-7.9 -102.78, -9.76 -101.31, -12.7 -98.97 M-6.05 -104.26 C-7.47 -103.13, -8.9 -101.99, -12.7 -98.97 M-12.7 -98.97 C-14.93 -97.04, -17.16 -95.1, -19.34 -93.21 M-12.7 -98.97 C-14.26 -97.62, -15.81 -96.27, -19.34 -93.21 M-19.34 -93.21 C-21.06 -91.58, -22.78 -89.95, -25.91 -86.98 M-19.34 -93.21 C-21.14 -91.51, -22.93 -89.81, -25.91 -86.98 M-25.91 -86.98 C-28.46 -84.33, -31.02 -81.69, -32.35 -80.31 M-25.91 -86.98 C-28.16 -84.65, -30.41 -82.32, -32.35 -80.31 M-32.35 -80.31 C-33.74 -78.73, -35.12 -77.15, -38.58 -73.22 M-32.35 -80.31 C-33.8 -78.65, -35.26 -77, -38.58 -73.22 M-38.58 -73.22 C-40.72 -70.54, -42.86 -67.86, -44.57 -65.72 M-38.58 -73.22 C-40.35 -71, -42.12 -68.78, -44.57 -65.72 M-44.57 -65.72 C-45.99 -63.74, -47.41 -61.75, -50.23 -57.84 M-44.57 -65.72 C-46.06 -63.65, -47.55 -61.57, -50.23 -57.84 M-50.23 -57.84 C-52.27 -54.65, -54.32 -51.45, -55.51 -49.59 M-50.23 -57.84 C-51.66 -55.6, -53.1 -53.35, -55.51 -49.59 M-55.51 -49.59 C-57.31 -46.39, -59.12 -43.18, -60.35 -41 M-55.51 -49.59 C-56.57 -47.71, -57.63 -45.83, -60.35 -41 M-60.35 -41 C-61.83 -37.95, -63.31 -34.9, -64.68 -32.08 M-60.35 -41 C-61.29 -39.06, -62.23 -37.12, -64.68 -32.08 M-64.68 -32.08 C-65.62 -29.79, -66.56 -27.5, -68.45 -22.85 M-64.68 -32.08 C-65.99 -28.88, -67.3 -25.68, -68.45 -22.85 M-68.45 -22.85 C-69.28 -20.35, -70.11 -17.84, -71.6 -13.34 M-68.45 -22.85 C-69.43 -19.91, -70.4 -16.97, -71.6 -13.34 M-71.6 -13.34 C-72.27 -10.66, -72.94 -7.98, -74.05 -3.55 M-71.6 -13.34 C-72.53 -9.61, -73.47 -5.88, -74.05 -3.55 M-74.05 -3.55 C-74.53 -0.76, -75 2.02, -75.76 6.48 M-74.05 -3.55 C-74.51 -0.89, -74.96 1.76, -75.76 6.48 M-75.76 6.48 C-76.01 9.38, -76.27 12.28, -76.66 16.74 M-75.76 6.48 C-75.98 9, -76.2 11.52, -76.66 16.74 M-76.66 16.74 C-76.66 19.88, -76.67 23.02, -76.68 27.22 M-76.66 16.74 C-76.66 19.26, -76.67 21.77, -76.68 27.22 M-76.68 27.22 C-76.6 28.91, -76.51 30.59, -76.34 34.16 M-76.68 27.22 C-76.56 29.67, -76.44 32.12, -76.34 34.16 M-76.34 34.16 C-76.09 36.4, -75.85 38.65, -75.59 41.03 M-76.34 34.16 C-76.09 36.42, -75.85 38.68, -75.59 41.03 M-75.59 41.03 C-75.18 43.47, -74.76 45.91, -74.44 47.8 M-75.59 41.03 C-75.24 43.1, -74.89 45.18, -74.44 47.8 M-74.44 47.8 C-73.91 50.11, -73.38 52.41, -72.9 54.47 M-74.44 47.8 C-74.03 49.59, -73.62 51.37, -72.9 54.47 M-72.9 54.47 C-72.18 56.93, -71.46 59.38, -70.98 61.02 M-72.9 54.47 C-72.14 57.06, -71.38 59.66, -70.98 61.02 M-70.98 61.02 C-70.46 62.47, -69.94 63.92, -68.68 67.44 M-70.98 61.02 C-70.23 63.12, -69.48 65.21, -68.68 67.44 M-68.68 67.44 C-67.98 69.08, -67.29 70.72, -66.02 73.7 M-68.68 67.44 C-67.88 69.32, -67.08 71.21, -66.02 73.7 M-66.02 73.7 C-65.34 75.08, -64.66 76.45, -63 79.79 M-66.02 73.7 C-65.36 75.04, -64.7 76.37, -63 79.79 M-63 79.79 C-61.87 81.78, -60.74 83.77, -59.64 85.7 M-63 79.79 C-61.68 82.11, -60.36 84.43, -59.64 85.7 M-59.64 85.7 C-58.57 87.35, -57.5 88.99, -55.93 91.41 M-59.64 85.7 C-58.16 87.97, -56.69 90.24, -55.93 91.41 M-55.93 91.41 C-54.54 93.31, -53.14 95.21, -51.89 96.91 M-55.93 91.41 C-55.01 92.67, -54.09 93.92, -51.89 96.91 M-51.89 96.91 C-50.41 98.71, -48.92 100.5, -47.53 102.18 M-51.89 96.91 C-50.37 98.75, -48.84 100.59, -47.53 102.18 M-47.53 102.18 C-45.79 104.05, -44.05 105.92, -42.86 107.2 M-47.53 102.18 C-46.35 103.45, -45.16 104.72, -42.86 107.2 M-42.86 107.2 C-40.87 109.1, -38.88 111, -37.88 111.95 M-42.86 107.2 C-41.33 108.66, -39.8 110.12, -37.88 111.95 M-37.88 111.95 C-36.09 113.48, -34.3 115, -32.61 116.44 M-37.88 111.95 C-36.26 113.33, -34.64 114.71, -32.61 116.44 M-32.61 116.44 C-31.13 117.55, -29.65 118.66, -27.04 120.62 M-32.61 116.44 C-30.73 117.85, -28.86 119.26, -27.04 120.62 M-27.04 120.62 C-26.56 120.89, -26.08 121.16, -25.44 121.51 M-27.04 120.62 C-26.54 120.9, -26.04 121.18, -25.44 121.51 M-25.44 121.51 C-23.05 117.65, -20.66 113.78, -14.77 104.26 M-25.44 121.51 C-22.81 117.25, -20.17 112.99, -14.77 104.26 M-14.77 104.26 C-15.27 103.94, -15.77 103.63, -16.19 103.37 M-14.77 104.26 C-15.32 103.91, -15.87 103.57, -16.19 103.37 M-16.19 103.37 C-16.19 103.37, -16.19 103.37, -16.19 103.37 M-16.19 103.37 C-16.19 103.37, -16.19 103.37, -16.19 103.37 M-16.19 103.37 C-18.15 101.79, -20.1 100.22, -22.35 98.41 M-16.19 103.37 C-18.24 101.72, -20.28 100.07, -22.35 98.41 M-22.35 98.41 C-24.64 96.27, -26.93 94.14, -28.11 93.05 M-22.35 98.41 C-23.69 97.16, -25.03 95.91, -28.11 93.05 M-28.11 93.05 C-17.77 87.2, -7.43 81.35, 11.21 70.81 M-28.11 93.05 C-14.73 85.48, -1.36 77.92, 11.21 70.81 M11.21 70.81 C11.21 55.06, 11.21 39.31, 11.21 20.99 M11.21 70.81 C11.21 54.94, 11.21 39.07, 11.21 20.99 M11.21 20.99 C6.86 12.84, 2.51 4.7, 0 0 M11.21 20.99 C7.92 14.83, 4.63 8.67, 0 0 M0 0 C0 0, 0 0, 0 0 M0 0 C0 0, 0 0, 0 0 M0 0 C0 0, 0 0, 0 0 M0 0 C0 0, 0 0, 0 0" stroke="#000000" stroke-width="1" fill="none"></path></g></g><mask></mask><g stroke-linecap="round"><g transform="translate(126.3371653471545 143.70285433861227) rotate(0 -22.95047544457347 -19.214341171134947)" fill-rule="evenodd"><path d="M0 0 L0 37.36 L-30.96 55.33 L-30.96 55.33 L-34.35 49.62 L-37.32 43.72 L-39.86 37.65 L-41.96 31.42 L-43.63 25.08 L-44.84 18.63 L-45.6 12.1 L-45.9 5.52 L-45.62 -1.57 L-44.97 -8.59 L-43.98 -15.54 L-42.63 -22.41 L-40.93 -29.18 L-38.9 -35.84 L-36.54 -42.38 L-33.85 -48.79 L-30.84 -55.06 L-27.51 -61.16 L-23.87 -67.09 L-19.93 -72.84 L-15.69 -78.4 L-11.16 -83.74 L-6.34 -88.87 L-1.25 -93.76 L-1.25 -45.19 L-25.09 0 L0 0" stroke="none" stroke-width="0" fill="#4285f4" fill-rule="evenodd"></path><path d="M0 0 C0 11.82, 0 23.63, 0 37.36 M0 0 C0 13, 0 26, 0 37.36 M0 37.36 C-7.76 41.86, -15.51 46.36, -30.96 55.33 M0 37.36 C-10.8 43.63, -21.6 49.9, -30.96 55.33 M-30.96 55.33 C-30.96 55.33, -30.96 55.33, -30.96 55.33 M-30.96 55.33 C-30.96 55.33, -30.96 55.33, -30.96 55.33 M-30.96 55.33 C-31.9 53.75, -32.84 52.17, -34.35 49.62 M-30.96 55.33 C-31.9 53.74, -32.85 52.15, -34.35 49.62 M-34.35 49.62 C-35.14 48.05, -35.93 46.47, -37.32 43.72 M-34.35 49.62 C-35.24 47.85, -36.14 46.07, -37.32 43.72 M-37.32 43.72 C-38.28 41.42, -39.24 39.13, -39.86 37.65 M-37.32 43.72 C-38.32 41.33, -39.32 38.94, -39.86 37.65 M-39.86 37.65 C-40.48 35.8, -41.11 33.95, -41.96 31.42 M-39.86 37.65 C-40.4 36.05, -40.94 34.45, -41.96 31.42 M-41.96 31.42 C-42.53 29.27, -43.09 27.11, -43.63 25.08 M-41.96 31.42 C-42.54 29.24, -43.11 27.06, -43.63 25.08 M-43.63 25.08 C-44 23.09, -44.38 21.1, -44.84 18.63 M-43.63 25.08 C-44.07 22.74, -44.51 20.41, -44.84 18.63 M-44.84 18.63 C-45.02 17.07, -45.2 15.52, -45.6 12.1 M-44.84 18.63 C-45.04 16.89, -45.25 15.15, -45.6 12.1 M-45.6 12.1 C-45.68 10.4, -45.76 8.7, -45.9 5.52 M-45.6 12.1 C-45.71 9.74, -45.82 7.38, -45.9 5.52 M-45.9 5.52 C-45.81 3.12, -45.71 0.73, -45.62 -1.57 M-45.9 5.52 C-45.82 3.51, -45.74 1.5, -45.62 -1.57 M-45.62 -1.57 C-45.4 -3.98, -45.18 -6.39, -44.97 -8.59 M-45.62 -1.57 C-45.41 -3.85, -45.2 -6.13, -44.97 -8.59 M-44.97 -8.59 C-44.58 -11.31, -44.19 -14.03, -43.98 -15.54 M-44.97 -8.59 C-44.77 -10.01, -44.57 -11.42, -43.98 -15.54 M-43.98 -15.54 C-43.57 -17.6, -43.17 -19.66, -42.63 -22.41 M-43.98 -15.54 C-43.47 -18.11, -42.96 -20.69, -42.63 -22.41 M-42.63 -22.41 C-42.05 -24.72, -41.47 -27.04, -40.93 -29.18 M-42.63 -22.41 C-42.25 -23.91, -41.87 -25.42, -40.93 -29.18 M-40.93 -29.18 C-40.32 -31.19, -39.71 -33.2, -38.9 -35.84 M-40.93 -29.18 C-40.2 -31.57, -39.48 -33.96, -38.9 -35.84 M-38.9 -35.84 C-38.38 -37.29, -37.85 -38.75, -36.54 -42.38 M-38.9 -35.84 C-38.38 -37.28, -37.86 -38.71, -36.54 -42.38 M-36.54 -42.38 C-35.83 -44.07, -35.12 -45.75, -33.85 -48.79 M-36.54 -42.38 C-35.56 -44.7, -34.59 -47.02, -33.85 -48.79 M-33.85 -48.79 C-33.09 -50.36, -32.34 -51.94, -30.84 -55.06 M-33.85 -48.79 C-33.06 -50.43, -32.27 -52.06, -30.84 -55.06 M-30.84 -55.06 C-29.72 -57.1, -28.6 -59.15, -27.51 -61.16 M-30.84 -55.06 C-30.15 -56.32, -29.46 -57.58, -27.51 -61.16 M-27.51 -61.16 C-26.27 -63.17, -25.04 -65.19, -23.87 -67.09 M-27.51 -61.16 C-26.42 -62.94, -25.33 -64.72, -23.87 -67.09 M-23.87 -67.09 C-23.03 -68.32, -22.2 -69.54, -19.93 -72.84 M-23.87 -67.09 C-22.49 -69.11, -21.11 -71.12, -19.93 -72.84 M-19.93 -72.84 C-18.3 -74.99, -16.66 -77.13, -15.69 -78.4 M-19.93 -72.84 C-18.77 -74.36, -17.61 -75.88, -15.69 -78.4 M-15.69 -78.4 C-14.68 -79.59, -13.66 -80.79, -11.16 -83.74 M-15.69 -78.4 C-13.94 -80.47, -12.18 -82.54, -11.16 -83.74 M-11.16 -83.74 C-9.34 -85.68, -7.52 -87.62, -6.34 -88.87 M-11.16 -83.74 C-10.16 -84.81, -9.16 -85.87, -6.34 -88.87 M-6.34 -88.87 C-5.12 -90.04, -3.9 -91.22, -1.25 -93.76 M-6.34 -88.87 C-4.58 -90.56, -2.81 -92.26, -1.25 -93.76 M-1.25 -93.76 C-1.25 -79.49, -1.25 -65.23, -1.25 -45.19 M-1.25 -93.76 C-1.25 -78.69, -1.25 -63.61, -1.25 -45.19 M-1.25 -45.19 C-10.06 -28.48, -18.88 -11.77, -25.09 0 M-1.25 -45.19 C-10.64 -27.39, -20.03 -9.58, -25.09 0 M-25.09 0 C-15.1 0, -5.11 0, 0 0 M-25.09 0 C-18.08 0, -11.08 0, 0 0 M0 0 C0 0, 0 0, 0 0 M0 0 C0 0, 0 0, 0 0" stroke="#000000" stroke-width="1" fill="none"></path></g></g><mask></mask><g stroke-linecap="round"><g transform="translate(126.3371653471545 143.70285433861227) rotate(0 -22.95047544457347 -19.214341171134947)" fill-rule="evenodd"><path d="M0 0 L0 37.36 L-30.96 55.33 L-30.96 55.33 L-34.35 49.62 L-37.32 43.72 L-39.86 37.65 L-41.96 31.42 L-43.63 25.08 L-44.84 18.63 L-45.6 12.1 L-45.9 5.52 L-45.62 -1.57 L-44.97 -8.59 L-43.98 -15.54 L-42.63 -22.41 L-40.93 -29.18 L-38.9 -35.84 L-36.54 -42.38 L-33.85 -48.79 L-30.84 -55.06 L-27.51 -61.16 L-23.87 -67.09 L-19.93 -72.84 L-15.69 -78.4 L-11.16 -83.74 L-6.34 -88.87 L-1.25 -93.76 L-1.25 -45.19 L-25.09 0 L0 0" stroke="none" stroke-width="0" fill="#fff" fill-rule="evenodd"></path><path d="M0 0 C0 9.13, 0 18.26, 0 37.36 M0 0 C0 11.82, 0 23.64, 0 37.36 M0 37.36 C-7.86 41.92, -15.71 46.48, -30.96 55.33 M0 37.36 C-7.46 41.69, -14.92 46.02, -30.96 55.33 M-30.96 55.33 C-30.96 55.33, -30.96 55.33, -30.96 55.33 M-30.96 55.33 C-30.96 55.33, -30.96 55.33, -30.96 55.33 M-30.96 55.33 C-31.98 53.61, -33.01 51.88, -34.35 49.62 M-30.96 55.33 C-31.72 54.04, -32.49 52.75, -34.35 49.62 M-34.35 49.62 C-35.28 47.77, -36.21 45.92, -37.32 43.72 M-34.35 49.62 C-35.12 48.1, -35.89 46.57, -37.32 43.72 M-37.32 43.72 C-38.16 41.71, -39 39.7, -39.86 37.65 M-37.32 43.72 C-38.29 41.39, -39.27 39.06, -39.86 37.65 M-39.86 37.65 C-40.56 35.58, -41.26 33.52, -41.96 31.42 M-39.86 37.65 C-40.58 35.52, -41.3 33.39, -41.96 31.42 M-41.96 31.42 C-42.57 29.11, -43.18 26.79, -43.63 25.08 M-41.96 31.42 C-42.62 28.91, -43.28 26.41, -43.63 25.08 M-43.63 25.08 C-44.05 22.83, -44.47 20.59, -44.84 18.63 M-43.63 25.08 C-44.08 22.66, -44.54 20.25, -44.84 18.63 M-44.84 18.63 C-45.12 16.26, -45.39 13.9, -45.6 12.1 M-44.84 18.63 C-45.02 17.09, -45.2 15.56, -45.6 12.1 M-45.6 12.1 C-45.68 10.44, -45.75 8.78, -45.9 5.52 M-45.6 12.1 C-45.69 10.06, -45.79 8.02, -45.9 5.52 M-45.9 5.52 C-45.81 3.26, -45.72 1, -45.62 -1.57 M-45.9 5.52 C-45.83 3.65, -45.75 1.79, -45.62 -1.57 M-45.62 -1.57 C-45.41 -3.82, -45.21 -6.07, -44.97 -8.59 M-45.62 -1.57 C-45.4 -3.97, -45.18 -6.37, -44.97 -8.59 M-44.97 -8.59 C-44.61 -11.13, -44.24 -13.68, -43.98 -15.54 M-44.97 -8.59 C-44.64 -10.89, -44.31 -13.18, -43.98 -15.54 M-43.98 -15.54 C-43.55 -17.7, -43.13 -19.86, -42.63 -22.41 M-43.98 -15.54 C-43.7 -16.93, -43.43 -18.33, -42.63 -22.41 M-42.63 -22.41 C-42.17 -24.24, -41.71 -26.07, -40.93 -29.18 M-42.63 -22.41 C-42.16 -24.28, -41.69 -26.16, -40.93 -29.18 M-40.93 -29.18 C-40.16 -31.72, -39.38 -34.27, -38.9 -35.84 M-40.93 -29.18 C-40.4 -30.94, -39.86 -32.71, -38.9 -35.84 M-38.9 -35.84 C-38.11 -38.04, -37.31 -40.24, -36.54 -42.38 M-38.9 -35.84 C-38.36 -37.35, -37.81 -38.85, -36.54 -42.38 M-36.54 -42.38 C-35.58 -44.67, -34.62 -46.95, -33.85 -48.79 M-36.54 -42.38 C-35.9 -43.91, -35.26 -45.43, -33.85 -48.79 M-33.85 -48.79 C-32.94 -50.68, -32.04 -52.56, -30.84 -55.06 M-33.85 -48.79 C-32.92 -50.72, -31.99 -52.65, -30.84 -55.06 M-30.84 -55.06 C-29.98 -56.62, -29.13 -58.19, -27.51 -61.16 M-30.84 -55.06 C-29.93 -56.71, -29.03 -58.37, -27.51 -61.16 M-27.51 -61.16 C-26.63 -62.59, -25.76 -64.01, -23.87 -67.09 M-27.51 -61.16 C-26.35 -63.05, -25.2 -64.93, -23.87 -67.09 M-23.87 -67.09 C-22.34 -69.33, -20.8 -71.58, -19.93 -72.84 M-23.87 -67.09 C-22.87 -68.56, -21.87 -70.02, -19.93 -72.84 M-19.93 -72.84 C-18.81 -74.32, -17.68 -75.79, -15.69 -78.4 M-19.93 -72.84 C-18.85 -74.26, -17.77 -75.67, -15.69 -78.4 M-15.69 -78.4 C-14.58 -79.71, -13.47 -81.02, -11.16 -83.74 M-15.69 -78.4 C-14.27 -80.08, -12.84 -81.76, -11.16 -83.74 M-11.16 -83.74 C-10.09 -84.89, -9.01 -86.03, -6.34 -88.87 M-11.16 -83.74 C-10.18 -84.79, -9.2 -85.83, -6.34 -88.87 M-6.34 -88.87 C-5.31 -89.86, -4.28 -90.84, -1.25 -93.76 M-6.34 -88.87 C-4.72 -90.43, -3.09 -91.99, -1.25 -93.76 M-1.25 -93.76 C-1.25 -74.54, -1.25 -55.32, -1.25 -45.19 M-1.25 -93.76 C-1.25 -82.2, -1.25 -70.63, -1.25 -45.19 M-1.25 -45.19 C-6.55 -35.14, -11.85 -25.1, -25.09 0 M-1.25 -45.19 C-10.13 -28.34, -19.02 -11.49, -25.09 0 M-25.09 0 C-20.01 0, -14.93 0, 0 0 M-25.09 0 C-17.02 0, -8.96 0, 0 0 M0 0 C0 0, 0 0, 0 0 M0 0 C0 0, 0 0, 0 0" stroke="#000000" stroke-width="1" fill="none"></path></g></g><mask></mask><g stroke-linecap="round"><g transform="translate(109.07983330909065 269.48570582450884) rotate(0 -47.58871751860636 -62.71351055503601)"><path d="M0 0 C0 0, 0 0, 0 0 M0 0 C0 0, 0 0, 0 0 M0 0 C-3.08 -1.72, -6.16 -3.44, -8.72 -4.87 M0 0 C-3.28 -1.83, -6.56 -3.66, -8.72 -4.87 M-8.72 -4.87 C-10.65 -6.14, -12.58 -7.41, -16.98 -10.31 M-8.72 -4.87 C-11.06 -6.41, -13.4 -7.95, -16.98 -10.31 M-16.98 -10.31 C-20.08 -12.69, -23.19 -15.07, -24.76 -16.28 M-16.98 -10.31 C-19.02 -11.87, -21.06 -13.44, -24.76 -16.28 M-24.76 -16.28 C-27.68 -18.87, -30.59 -21.46, -32.05 -22.77 M-24.76 -16.28 C-26.96 -18.24, -29.16 -20.19, -32.05 -22.77 M-32.05 -22.77 C-33.62 -24.38, -35.19 -25.99, -38.83 -29.72 M-32.05 -22.77 C-33.96 -24.72, -35.86 -26.68, -38.83 -29.72 M-38.83 -29.72 C-40.65 -31.88, -42.46 -34.03, -45.07 -37.12 M-38.83 -29.72 C-41.12 -32.44, -43.41 -35.16, -45.07 -37.12 M-45.07 -37.12 C-46.35 -38.88, -47.63 -40.63, -50.77 -44.93 M-45.07 -37.12 C-46.84 -39.54, -48.6 -41.95, -50.77 -44.93 M-50.77 -44.93 C-52.24 -47.28, -53.71 -49.63, -55.89 -53.11 M-50.77 -44.93 C-51.98 -46.87, -53.2 -48.82, -55.89 -53.11 M-55.89 -53.11 C-57.66 -56.44, -59.43 -59.77, -60.42 -61.63 M-55.89 -53.11 C-57.52 -56.18, -59.15 -59.24, -60.42 -61.63 M-60.42 -61.63 C-61.43 -63.91, -62.45 -66.2, -64.34 -70.46 M-60.42 -61.63 C-61.82 -64.78, -63.22 -67.94, -64.34 -70.46 M-64.34 -70.46 C-65.26 -73.01, -66.19 -75.57, -67.63 -79.57 M-64.34 -70.46 C-65.26 -73.02, -66.19 -75.58, -67.63 -79.57 M-67.63 -79.57 C-68.33 -82.03, -69.02 -84.49, -70.28 -88.92 M-67.63 -79.57 C-68.57 -82.87, -69.5 -86.17, -70.28 -88.92 M-70.28 -88.92 C-70.84 -91.64, -71.4 -94.36, -72.26 -98.48 M-70.28 -88.92 C-70.79 -91.38, -71.3 -93.84, -72.26 -98.48 M-72.26 -98.48 C-72.58 -100.89, -72.9 -103.3, -73.55 -108.22 M-72.26 -98.48 C-72.7 -101.8, -73.14 -105.12, -73.55 -108.22 M-73.55 -108.22 C-73.75 -111.5, -73.94 -114.78, -74.14 -118.1 M-73.55 -108.22 C-73.73 -111.27, -73.92 -114.32, -74.14 -118.1 M-74.14 -118.1 C-74.1 -121.58, -74.05 -125.06, -74.01 -128.1 M-74.14 -118.1 C-74.11 -120.31, -74.08 -122.52, -74.01 -128.1 M-74.01 -128.1 C-74.01 -135.75, -74.01 -143.4, -74.01 -147.67 M-74.01 -128.1 C-74.01 -135.75, -74.01 -143.41, -74.01 -147.67 M-74.01 -147.67 C-82.22 -147.67, -90.44 -147.67, -95 -147.67 M-74.01 -147.67 C-82 -147.67, -90 -147.67, -95 -147.67 M-95 -147.67 C-95 -140.43, -95 -133.2, -95 -128.1 M-95 -147.67 C-95 -141.85, -95 -136.02, -95 -128.1 M-95 -128.1 C-95 -128.1, -95 -128.1, -95 -128.1 M-95 -128.1 C-95 -128.1, -95 -128.1, -95 -128.1 M-95 -128.1 C-95.04 -125.55, -95.08 -123, -95.18 -116.18 M-95 -128.1 C-95.07 -123.86, -95.13 -119.63, -95.18 -116.18 M-95.18 -116.18 C-95 -113.25, -94.81 -110.31, -94.45 -104.42 M-95.18 -116.18 C-94.95 -112.49, -94.72 -108.8, -94.45 -104.42 M-94.45 -104.42 C-94.11 -101.99, -93.77 -99.57, -92.84 -92.85 M-94.45 -104.42 C-93.92 -100.61, -93.39 -96.81, -92.84 -92.85 M-92.84 -92.85 C-92.19 -89.89, -91.55 -86.93, -90.37 -81.51 M-92.84 -92.85 C-91.87 -88.42, -90.91 -83.99, -90.37 -81.51 M-90.37 -81.51 C-89.45 -78.4, -88.52 -75.29, -87.08 -70.45 M-90.37 -81.51 C-89.33 -77.99, -88.28 -74.47, -87.08 -70.45 M-87.08 -70.45 C-86.24 -68.22, -85.39 -66, -82.99 -59.7 M-87.08 -70.45 C-85.64 -66.66, -84.19 -62.87, -82.99 -59.7 M-82.99 -59.7 C-81.57 -56.67, -80.14 -53.64, -78.12 -49.32 M-82.99 -59.7 C-81.73 -57.02, -80.47 -54.33, -78.12 -49.32 M-78.12 -49.32 C-76.67 -46.75, -75.22 -44.18, -72.5 -39.34 M-78.12 -49.32 C-76.34 -46.16, -74.56 -43, -72.5 -39.34 M-72.5 -39.34 C-70.3 -36.04, -68.11 -32.75, -66.15 -29.8 M-72.5 -39.34 C-71.08 -37.22, -69.67 -35.09, -66.15 -29.8 M-66.15 -29.8 C-64.23 -27.33, -62.3 -24.86, -59.11 -20.75 M-66.15 -29.8 C-64.15 -27.23, -62.14 -24.65, -59.11 -20.75 M-59.11 -20.75 C-56.92 -18.34, -54.73 -15.92, -51.39 -12.23 M-59.11 -20.75 C-56.65 -18.04, -54.19 -15.33, -51.39 -12.23 M-51.39 -12.23 C-48.86 -9.83, -46.33 -7.43, -43.02 -4.28 M-51.39 -12.23 C-49.33 -10.28, -47.28 -8.33, -43.02 -4.28 M-43.02 -4.28 C-39.54 -1.44, -36.06 1.4, -34.02 3.06 M-43.02 -4.28 C-39.52 -1.43, -36.03 1.43, -34.02 3.06 M-34.02 3.06 C-31.31 4.95, -28.6 6.84, -24.43 9.75 M-34.02 3.06 C-31.42 4.88, -28.81 6.7, -24.43 9.75 M-24.43 9.75 C-21.64 11.4, -18.84 13.04, -14.27 15.74 M-24.43 9.75 C-21.25 11.63, -18.06 13.51, -14.27 15.74 M-14.27 15.74 C-10.61 17.53, -6.95 19.33, -3.56 20.99 M-14.27 15.74 C-11.86 16.92, -9.44 18.11, -3.56 20.99 M-3.56 20.99 C-2.86 21.25, -2.16 21.51, -0.18 22.24 M-3.56 20.99 C-2.51 21.38, -1.47 21.76, -0.18 22.24" stroke="#000000" stroke-width="1" fill="none"></path></g></g><mask></mask><g transform="translate(6 301.10535823509736) rotate(0 98 38)"><text x="98" y="0" font-family="Helvetica, Segoe UI Emoji" font-size="33.4285714285714px" fill="#000000" text-anchor="middle" style="white-space: pre;" direction="ltr" dominant-baseline="text-before-edge">Binary </text><text x="98" y="38" font-family="Helvetica, Segoe UI Emoji" font-size="33.4285714285714px" fill="#000000" text-anchor="middle" style="white-space: pre;" direction="ltr" dominant-baseline="text-before-edge">Authorization</text></g></svg>