<svg xmlns="http://www.w3.org/2000/svg" viewBox="-202.30 -91.68 172.00 84.00" width="172" height="84"><rect x="-196.30" y="-85.68" width="160.00" height="72.00" rx="0" stroke="#4285f4" stroke-width="2" opacity="1.0" fill="#FFF"/><text x="-131.30" y="-51.68" font-size="12" fill="#000000" opacity="1.0" font-family="sans-serif">Migrate for
Compute Engine</text><polyline points="-166.98,-62.27 -166.98,-62.27 -166.90,-62.26 -166.82,-62.24 -166.74,-62.21 -166.68,-62.16 -166.62,-62.10 -166.57,-62.04 -166.53,-61.96 -166.51,-61.88 -166.50,-61.78 -166.50,-59.30 -163.89,-59.30 -163.89,-61.78 -163.89,-61.78 -163.88,-61.87 -163.86,-61.95 -163.83,-62.02 -163.78,-62.09 -163.72,-62.15 -163.66,-62.20 -163.58,-62.23 -163.50,-62.26 -163.40,-62.27 -162.61,-62.27 -162.61,-62.27 -162.53,-62.26 -162.45,-62.24 -162.37,-62.21 -162.31,-62.16 -162.25,-62.10 -162.20,-62.04 -162.16,-61.96 -162.14,-61.88 -162.13,-61.78 -162.13,-59.30 -159.52,-59.30 -159.52,-61.78 -159.52,-61.78 -159.51,-61.87 -159.49,-61.95 -159.46,-62.02 -159.41,-62.09 -159.35,-62.15 -159.29,-62.20 -159.21,-62.23 -159.13,-62.26 -159.04,-62.27 -158.25,-62.27 -158.25,-62.27 -158.16,-62.26 -158.08,-62.24 -158.01,-62.21 -157.94,-62.16 -157.88,-62.10 -157.83,-62.04 -157.80,-61.96 -157.77,-61.88 -157.76,-61.78 -157.76,-59.30 -155.45,-59.30 -155.45,-59.30 -155.35,-59.30 -155.26,-59.27 -155.17,-59.23 -155.10,-59.18 -155.03,-59.11 -154.98,-59.04 -154.94,-58.95 -154.92,-58.86 -154.91,-58.77 -154.91,-56.46 -152.44,-56.46 -152.44,-56.46 -152.35,-56.45 -152.27,-56.43 -152.20,-56.39 -152.13,-56.35 -152.07,-56.29 -152.03,-56.22 -151.99,-56.15 -151.96,-56.07 -151.95,-55.97 -151.95,-55.18 -151.95,-55.18 -151.96,-55.10 -151.98,-55.01 -152.02,-54.94 -152.06,-54.87 -152.12,-54.81 -152.19,-54.77 -152.26,-54.73 -152.34,-54.71 -152.44,-54.70 -154.91,-54.70 -154.91,-52.08 -152.44,-52.08 -152.44,-52.08 -152.35,-52.08 -152.27,-52.05 -152.20,-52.02 -152.13,-51.97 -152.07,-51.92 -152.03,-51.85 -151.99,-51.77 -151.96,-51.69 -151.95,-51.60 -151.95,-50.81 -151.95,-50.81 -151.96,-50.72 -151.98,-50.64 -152.02,-50.57 -152.06,-50.50 -152.12,-50.44 -152.19,-50.39 -152.26,-50.36 -152.34,-50.33 -152.44,-50.32 -154.91,-50.32 -154.91,-47.71 -152.44,-47.71 -152.44,-47.71 -152.35,-47.70 -152.27,-47.68 -152.20,-47.65 -152.13,-47.60 -152.07,-47.54 -152.03,-47.48 -151.99,-47.40 -151.96,-47.32 -151.95,-47.22 -151.95,-46.43 -151.95,-46.43 -151.96,-46.34 -151.98,-46.26 -152.02,-46.19 -152.06,-46.12 -152.12,-46.06 -152.19,-46.01 -152.26,-45.98 -152.34,-45.95 -152.44,-45.94 -154.91,-45.94 -154.91,-43.63 -154.91,-43.63 -154.92,-43.53 -154.94,-43.44 -154.98,-43.36 -155.04,-43.28 -155.10,-43.22 -155.18,-43.16 -155.26,-43.12 -155.35,-43.10 -155.45,-43.09 -157.76,-43.09 -157.76,-40.61 -157.76,-40.61 -157.77,-40.52 -157.79,-40.44 -157.83,-40.36 -157.87,-40.30 -157.93,-40.24 -158.00,-40.19 -158.07,-40.15 -158.15,-40.13 -158.25,-40.12 -159.04,-40.12 -159.04,-40.12 -159.12,-40.13 -159.20,-40.15 -159.28,-40.18 -159.34,-40.23 -159.40,-40.29 -159.45,-40.35 -159.49,-40.43 -159.51,-40.51 -159.52,-40.61 -159.52,-43.09 -162.13,-43.09 -162.13,-40.61 -162.13,-40.61 -162.14,-40.52 -162.16,-40.44 -162.19,-40.36 -162.24,-40.30 -162.30,-40.24 -162.36,-40.19 -162.43,-40.15 -162.51,-40.13 -162.61,-40.12 -163.40,-40.12 -163.40,-40.12 -163.48,-40.13 -163.57,-40.15 -163.64,-40.18 -163.71,-40.23 -163.76,-40.29 -163.81,-40.35 -163.85,-40.43 -163.87,-40.51 -163.88,-40.61 -163.88,-43.09 -165.17,-43.09 -165.17,-43.02 -165.17,-43.02 -165.18,-42.71 -165.20,-42.41 -165.24,-42.10 -165.29,-41.81 -165.35,-41.51 -165.43,-41.23 -165.52,-40.95 -165.63,-40.67 -165.74,-40.40 -165.87,-40.14 -166.01,-39.89 -166.16,-39.64 -166.32,-39.40 -166.50,-39.17 -166.68,-38.95 -166.87,-38.73 -167.07,-38.53 -167.29,-38.34 -167.51,-38.15 -167.73,-37.98 -167.97,-37.81 -168.22,-37.66 -168.47,-37.52 -168.73,-37.39 -168.99,-37.28 -169.26,-37.17 -169.54,-37.08 -169.83,-37.00 -170.11,-36.94 -170.41,-36.89 -170.71,-36.85 -171.01,-36.83 -171.28,-36.82 -171.28,-36.82 -171.60,-36.83 -171.91,-36.86 -172.21,-36.90 -172.52,-36.95 -172.81,-37.02 -173.10,-37.11 -173.39,-37.20 -173.66,-37.31 -173.93,-37.44 -174.20,-37.58 -174.45,-37.72 -174.70,-37.89 -174.94,-38.06 -175.17,-38.24 -175.40,-38.44 -175.61,-38.64 -175.81,-38.86 -176.00,-39.08 -176.18,-39.32 -176.35,-39.56 -176.51,-39.81 -176.66,-40.07 -176.80,-40.34 -176.92,-40.61 -177.03,-40.90 -177.12,-41.18 -177.21,-41.48 -177.27,-41.78 -177.33,-42.08 -177.37,-42.39 -177.39,-42.71 -177.40,-43.03 -177.39,-43.35 -177.37,-43.66 -177.33,-43.97 -177.27,-44.28 -177.21,-44.58 -177.12,-44.87 -177.03,-45.16 -176.92,-45.44 -176.80,-45.71 -176.66,-45.98 -176.51,-46.24 -176.36,-46.49 -176.18,-46.74 -176.00,-46.97 -175.81,-47.19 -175.61,-47.41 -175.40,-47.61 -175.17,-47.81 -174.94,-47.99 -174.70,-48.17 -174.46,-48.33 -174.20,-48.48 -173.94,-48.61 -173.67,-48.74 -173.39,-48.85 -173.10,-48.95 -172.81,-49.03 -172.52,-49.10 -172.22,-49.15 -171.91,-49.19 -171.60,-49.22 -171.29,-49.22 -171.11,-49.22 -171.11,-50.32 -173.58,-50.32 -173.58,-50.32 -173.67,-50.33 -173.75,-50.35 -173.82,-50.39 -173.89,-50.43 -173.95,-50.49 -173.99,-50.56 -174.03,-50.63 -174.05,-50.71 -174.07,-50.81 -174.07,-51.60 -174.07,-51.60 -174.06,-51.68 -174.04,-51.76 -174.00,-51.84 -173.96,-51.90 -173.90,-51.96 -173.83,-52.01 -173.76,-52.05 -173.68,-52.07 -173.59,-52.08 -171.12,-52.08 -171.12,-54.70 -173.59,-54.70 -173.59,-54.70 -173.67,-54.70 -173.75,-54.73 -173.83,-54.76 -173.89,-54.81 -173.95,-54.86 -174.00,-54.93 -174.04,-55.00 -174.06,-55.09 -174.07,-55.18 -174.07,-55.98 -174.07,-55.98 -174.06,-56.06 -174.04,-56.14 -174.01,-56.22 -173.96,-56.28 -173.90,-56.34 -173.84,-56.39 -173.77,-56.43 -173.69,-56.45 -173.59,-56.46 -171.12,-56.46 -171.12,-58.77 -171.12,-58.77 -171.11,-58.87 -171.09,-58.96 -171.05,-59.04 -170.99,-59.12 -170.93,-59.18 -170.85,-59.24 -170.77,-59.28 -170.68,-59.30 -170.58,-59.31 -168.27,-59.31 -168.27,-61.79 -168.27,-61.79 -168.26,-61.88 -168.24,-61.96 -168.20,-62.04 -168.16,-62.10 -168.10,-62.16 -168.03,-62.21 -167.96,-62.24 -167.88,-62.27 -167.78,-62.28 -166.98,-62.27 -166.98,-62.27" fill="#4285f4" stroke="none" stroke-width="1" opacity="1.0" stroke-linecap="round" stroke-linejoin="round"/><polyline points="-171.38,-46.38 -172.31,-45.44 -170.35,-43.45 -174.77,-43.45 -174.77,-42.13 -170.35,-42.13 -172.31,-40.14 -171.38,-39.20 -167.84,-42.79 -171.38,-46.38 -171.38,-46.38" fill="#4285f4" stroke="none" stroke-width="1" opacity="1.0" stroke-linecap="round" stroke-linejoin="round"/><polyline points="-156.73,-57.49 -169.29,-57.49 -169.29,-48.88 -169.29,-48.88 -168.96,-48.75 -168.63,-48.61 -168.32,-48.44 -168.01,-48.26 -167.72,-48.05 -167.44,-47.84 -167.17,-47.60 -166.92,-47.35 -166.68,-47.09 -166.46,-46.81 -166.25,-46.52 -166.06,-46.22 -165.88,-45.91 -165.73,-45.58 -165.59,-45.25 -165.47,-44.90 -156.74,-44.90 -156.73,-57.49 -156.73,-57.49" fill="#4285f4" stroke="none" stroke-width="1" opacity="1.0" stroke-linecap="round" stroke-linejoin="round"/><polyline points="-171.38,-46.38 -172.31,-45.44 -170.35,-43.45 -174.77,-43.45 -174.77,-42.13 -170.35,-42.13 -172.31,-40.14 -171.38,-39.20 -167.84,-42.79 -171.38,-46.38 -171.38,-46.38" fill="#fff" stroke="none" stroke-width="1" opacity="1.0" stroke-linecap="round" stroke-linejoin="round"/><polyline points="-156.73,-57.49 -169.29,-57.49 -169.29,-48.88 -169.29,-48.88 -168.96,-48.75 -168.63,-48.61 -168.32,-48.44 -168.01,-48.26 -167.72,-48.05 -167.44,-47.84 -167.17,-47.60 -166.92,-47.35 -166.68,-47.09 -166.46,-46.81 -166.25,-46.52 -166.06,-46.22 -165.88,-45.91 -165.73,-45.58 -165.59,-45.25 -165.47,-44.90 -156.74,-44.90 -156.73,-57.49 -156.73,-57.49" fill="#fff" stroke="none" stroke-width="1" opacity="1.0" stroke-linecap="round" stroke-linejoin="round"/><polyline points="-160.48,-54.28 -160.48,-54.28 -160.38,-54.27 -160.29,-54.25 -160.20,-54.21 -160.13,-54.15 -160.06,-54.09 -160.01,-54.01 -159.97,-53.93 -159.94,-53.84 -159.93,-53.74 -159.93,-48.66 -159.93,-48.66 -159.94,-48.56 -159.97,-48.47 -160.01,-48.39 -160.06,-48.31 -160.12,-48.25 -160.20,-48.19 -160.28,-48.15 -160.37,-48.13 -160.47,-48.11 -165.54,-48.11 -165.54,-48.11 -165.64,-48.12 -165.73,-48.15 -165.82,-48.19 -165.89,-48.24 -165.96,-48.31 -166.01,-48.38 -166.05,-48.47 -166.08,-48.56 -166.09,-48.65 -166.09,-53.74 -166.09,-53.74 -166.08,-53.83 -166.05,-53.93 -166.01,-54.01 -165.96,-54.08 -165.89,-54.15 -165.82,-54.20 -165.74,-54.24 -165.64,-54.27 -165.55,-54.28 -160.48,-54.28 -160.48,-54.28" fill="#4285f4" stroke="none" stroke-width="1" opacity="1.0" stroke-linecap="round" stroke-linejoin="round"/></svg>