<svg xmlns="http://www.w3.org/2000/svg" viewBox="-152.21 472.38 207.71 254.91" width="208" height="255"><polyline points="-75.75,478.38 -60.09,478.38 -60.09,509.69 -75.75,509.69 -75.75,478.38" fill="#669df6" stroke="#000000" stroke-width="1" opacity="1.0" stroke-linecap="round" stroke-linejoin="round"/><polyline points="-107.06,478.38 -91.41,478.38 -91.41,509.69 -107.06,509.69 -107.06,478.38" fill="#669df6" stroke="#000000" stroke-width="1" opacity="1.0" stroke-linecap="round" stroke-linejoin="round"/><polyline points="-44.43,478.38 -28.78,478.38 -28.78,509.69 -44.43,509.69 -44.43,478.38" fill="#669df6" stroke="#000000" stroke-width="1" opacity="1.0" stroke-linecap="round" stroke-linejoin="round"/><polyline points="-75.75,603.63 -60.09,603.63 -60.09,634.95 -75.75,634.95 -75.75,603.63" fill="#4285f4" stroke="#000000" stroke-width="1" opacity="1.0" stroke-linecap="round" stroke-linejoin="round"/><polyline points="-107.06,603.63 -91.41,603.63 -91.41,634.95 -107.06,634.95 -107.06,603.63" fill="#4285f4" stroke="#000000" stroke-width="1" opacity="1.0" stroke-linecap="round" stroke-linejoin="round"/><polyline points="-44.43,603.63 -28.78,603.63 -28.78,634.95 -44.43,634.95 -44.43,603.63" fill="#4285f4" stroke="#000000" stroke-width="1" opacity="1.0" stroke-linecap="round" stroke-linejoin="round"/><polyline points="-20.95,548.83 10.37,548.83 10.37,564.49 -20.95,564.49 -20.95,548.83" fill="#4285f4" stroke="#000000" stroke-width="1" opacity="1.0" stroke-linecap="round" stroke-linejoin="round"/><polyline points="-20.95,580.15 10.37,580.15 10.37,595.80 -20.95,595.80 -20.95,580.15" fill="#4285f4" stroke="#000000" stroke-width="1" opacity="1.0" stroke-linecap="round" stroke-linejoin="round"/><polyline points="-20.95,517.52 10.37,517.52 10.37,533.18 -20.95,533.18 -20.95,517.52" fill="#4285f4" stroke="#000000" stroke-width="1" opacity="1.0" stroke-linecap="round" stroke-linejoin="round"/><polyline points="-146.21,548.83 -114.89,548.83 -114.89,564.49 -146.21,564.49 -146.21,548.83" fill="#669df6" stroke="#000000" stroke-width="1" opacity="1.0" stroke-linecap="round" stroke-linejoin="round"/><polyline points="-146.21,580.15 -114.89,580.15 -114.89,595.80 -146.21,595.80 -146.21,580.15" fill="#669df6" stroke="#000000" stroke-width="1" opacity="1.0" stroke-linecap="round" stroke-linejoin="round"/><polyline points="-146.21,517.52 -114.89,517.52 -114.89,533.18 -146.21,533.18 -146.21,517.52" fill="#669df6" stroke="#000000" stroke-width="1" opacity="1.0" stroke-linecap="round" stroke-linejoin="round"/><polyline points="-122.72,501.86 -122.72,611.46 -13.12,611.46 -13.12,501.86 -122.72,501.86 -122.72,501.86" fill="#aecbfa" stroke="#000000" stroke-width="1" opacity="1.0" stroke-linecap="round" stroke-linejoin="round"/><polyline points="-28.78,595.80 -107.06,595.80 -107.06,517.52 -28.78,517.52 -28.78,595.80 -28.78,595.80" fill="#aecbfa" stroke="#000000" stroke-width="1" opacity="1.0" stroke-linecap="round" stroke-linejoin="round"/><polyline points="-28.78,595.80 -107.06,595.80 -107.06,517.52 -28.78,517.52 -28.78,595.80 -28.78,595.80" fill="#fff" stroke="#000000" stroke-width="1" opacity="1.0" stroke-linecap="round" stroke-linejoin="round"/><polyline points="-91.41,533.18 -44.43,533.18 -44.43,580.15 -91.41,580.15 -91.41,533.18" fill="#aecbfa" stroke="#000000" stroke-width="1" opacity="1.0" stroke-linecap="round" stroke-linejoin="round"/><polyline points="-91.41,580.15 -44.43,580.15 -67.92,556.66 -91.41,580.15" fill="#669df6" stroke="#000000" stroke-width="1" opacity="1.0" stroke-linecap="round" stroke-linejoin="round"/><polyline points="-67.92,556.66 -44.43,580.15 -44.43,533.18 -67.92,556.66" fill="#4285f4" stroke="#000000" stroke-width="1" opacity="1.0" stroke-linecap="round" stroke-linejoin="round"/><text x="-140.79" y="673.29" font-size="35.99999999999998" fill="#000000" opacity="1.0" font-family="sans-serif">Compute 
Engine</text></svg>