<svg version="1.1" xmlns="http://www.w3.org/2000/svg" viewBox="0 0 181.84955205067217 182.91974295510158" width="181.84955205067217" height="182.91974295510158">
  <!-- svg-source:excalidraw -->
  
  <defs>
    
    
  </defs>
  <g stroke-linecap="round"><g transform="translate(175.84955205067217 16.61362853350579) rotate(0 -84.92477602533609 53.08389219937385)" fill-rule="evenodd"><path d="M0 0 L0 106.17 L0 106.17 L-0.05 107.28 L-0.21 108.35 L-0.46 109.38 L-0.81 110.36 L-1.25 111.29 L-1.77 112.17 L-2.37 112.98 L-3.05 113.73 L-3.8 114.41 L-4.61 115.01 L-5.49 115.53 L-6.42 115.97 L-7.4 116.32 L-8.43 116.57 L-9.5 116.73 L-10.61 116.78 L-21.23 116.78 L-21.23 20.41 L-84.91 66.17 L-148.62 20.41 L-148.62 116.75 L-159.24 116.75 L-159.24 116.75 L-160.35 116.7 L-161.42 116.54 L-162.45 116.29 L-163.43 115.94 L-164.36 115.5 L-165.24 114.98 L-166.05 114.38 L-166.8 113.7 L-167.48 112.95 L-168.08 112.14 L-168.6 111.26 L-169.04 110.33 L-169.39 109.35 L-169.64 108.32 L-169.8 107.25 L-169.85 106.14 L-169.85 0 L-169.85 0 L-169.8 -1.12 L-169.64 -2.19 L-169.39 -3.22 L-169.04 -4.2 L-168.61 -5.13 L-168.08 -6.01 L-167.48 -6.82 L-166.79 -7.56 L-166.05 -8.24 L-165.24 -8.85 L-164.36 -9.37 L-163.43 -9.81 L-162.44 -10.15 L-161.41 -10.41 L-160.34 -10.56 L-159.24 -10.61 L-155.71 -10.61 L-84.94 40.69 L-14.14 -10.61 L-10.61 -10.61 L-10.61 -10.61 L-9.5 -10.56 L-8.42 -10.41 L-7.39 -10.15 L-6.41 -9.81 L-5.48 -9.37 L-4.61 -8.85 L-3.8 -8.24 L-3.05 -7.56 L-2.37 -6.82 L-1.77 -6.01 L-1.24 -5.13 L-0.81 -4.2 L-0.46 -3.22 L-0.21 -2.19 L-0.05 -1.12 L0 0 L0 0" stroke="none" stroke-width="0" fill="#4788f4" fill-rule="evenodd"></path><path d="M0 0 C0 37.9, 0 75.79, 0 106.17 M0 0 C0 22.72, 0 45.44, 0 106.17 M0 106.17 C0 106.17, 0 106.17, 0 106.17 M0 106.17 C0 106.17, 0 106.17, 0 106.17 M0 106.17 C-0.02 106.56, -0.04 106.96, -0.05 107.28 M0 106.17 C-0.01 106.46, -0.03 106.76, -0.05 107.28 M-0.05 107.28 C-0.09 107.54, -0.13 107.8, -0.21 108.35 M-0.05 107.28 C-0.09 107.54, -0.13 107.79, -0.21 108.35 M-0.21 108.35 C-0.3 108.71, -0.39 109.06, -0.46 109.38 M-0.21 108.35 C-0.3 108.72, -0.39 109.09, -0.46 109.38 M-0.46 109.38 C-0.54 109.59, -0.61 109.79, -0.81 110.36 M-0.46 109.38 C-0.54 109.58, -0.61 109.79, -0.81 110.36 M-0.81 110.36 C-0.92 110.59, -1.03 110.82, -1.25 111.29 M-0.81 110.36 C-0.93 110.62, -1.05 110.88, -1.25 111.29 M-1.25 111.29 C-1.42 111.59, -1.6 111.88, -1.77 112.17 M-1.25 111.29 C-1.37 111.5, -1.5 111.71, -1.77 112.17 M-1.77 112.17 C-1.96 112.43, -2.16 112.69, -2.37 112.98 M-1.77 112.17 C-1.94 112.4, -2.11 112.63, -2.37 112.98 M-2.37 112.98 C-2.51 113.14, -2.65 113.29, -3.05 113.73 M-2.37 112.98 C-2.64 113.27, -2.9 113.56, -3.05 113.73 M-3.05 113.73 C-3.24 113.9, -3.44 114.08, -3.8 114.41 M-3.05 113.73 C-3.24 113.9, -3.43 114.07, -3.8 114.41 M-3.8 114.41 C-4.12 114.65, -4.44 114.89, -4.61 115.01 M-3.8 114.41 C-4.09 114.62, -4.37 114.83, -4.61 115.01 M-4.61 115.01 C-4.87 115.16, -5.13 115.32, -5.49 115.53 M-4.61 115.01 C-4.89 115.18, -5.18 115.35, -5.49 115.53 M-5.49 115.53 C-5.83 115.69, -6.18 115.86, -6.42 115.97 M-5.49 115.53 C-5.83 115.69, -6.17 115.85, -6.42 115.97 M-6.42 115.97 C-6.71 116.07, -7 116.18, -7.4 116.32 M-6.42 115.97 C-6.65 116.05, -6.89 116.14, -7.4 116.32 M-7.4 116.32 C-7.79 116.41, -8.18 116.51, -8.43 116.57 M-7.4 116.32 C-7.7 116.39, -8.01 116.47, -8.43 116.57 M-8.43 116.57 C-8.72 116.61, -9.01 116.66, -9.5 116.73 M-8.43 116.57 C-8.68 116.61, -8.93 116.64, -9.5 116.73 M-9.5 116.73 C-9.89 116.75, -10.29 116.77, -10.61 116.78 M-9.5 116.73 C-9.89 116.75, -10.29 116.77, -10.61 116.78 M-10.61 116.78 C-13.25 116.78, -15.89 116.78, -21.23 116.78 M-10.61 116.78 C-13.97 116.78, -17.32 116.78, -21.23 116.78 M-21.23 116.78 C-21.23 96.68, -21.23 76.58, -21.23 20.41 M-21.23 116.78 C-21.23 79.35, -21.23 41.93, -21.23 20.41 M-21.23 20.41 C-34.6 30.02, -47.97 39.62, -84.91 66.17 M-21.23 20.41 C-46.62 38.65, -72 56.9, -84.91 66.17 M-84.91 66.17 C-107.49 49.95, -130.07 33.73, -148.62 20.41 M-84.91 66.17 C-109.79 48.3, -134.68 30.42, -148.62 20.41 M-148.62 20.41 C-148.62 55.54, -148.62 90.68, -148.62 116.75 M-148.62 20.41 C-148.62 56.61, -148.62 92.81, -148.62 116.75 M-148.62 116.75 C-152.67 116.75, -156.72 116.75, -159.24 116.75 M-148.62 116.75 C-152.73 116.75, -156.84 116.75, -159.24 116.75 M-159.24 116.75 C-159.24 116.75, -159.24 116.75, -159.24 116.75 M-159.24 116.75 C-159.24 116.75, -159.24 116.75, -159.24 116.75 M-159.24 116.75 C-159.64 116.73, -160.05 116.71, -160.35 116.7 M-159.24 116.75 C-159.62 116.73, -160 116.71, -160.35 116.7 M-160.35 116.7 C-160.64 116.65, -160.94 116.61, -161.42 116.54 M-160.35 116.7 C-160.71 116.64, -161.08 116.59, -161.42 116.54 M-161.42 116.54 C-161.8 116.45, -162.19 116.35, -162.45 116.29 M-161.42 116.54 C-161.7 116.47, -161.98 116.4, -162.45 116.29 M-162.45 116.29 C-162.78 116.17, -163.11 116.05, -163.43 115.94 M-162.45 116.29 C-162.81 116.16, -163.17 116.03, -163.43 115.94 M-163.43 115.94 C-163.76 115.78, -164.09 115.63, -164.36 115.5 M-163.43 115.94 C-163.72 115.8, -164 115.67, -164.36 115.5 M-164.36 115.5 C-164.71 115.29, -165.05 115.09, -165.24 114.98 M-164.36 115.5 C-164.68 115.31, -164.99 115.12, -165.24 114.98 M-165.24 114.98 C-165.43 114.84, -165.62 114.7, -166.05 114.38 M-165.24 114.98 C-165.43 114.83, -165.63 114.69, -166.05 114.38 M-166.05 114.38 C-166.3 114.15, -166.55 113.92, -166.8 113.7 M-166.05 114.38 C-166.25 114.2, -166.44 114.02, -166.8 113.7 M-166.8 113.7 C-166.96 113.52, -167.13 113.33, -167.48 112.95 M-166.8 113.7 C-167.06 113.41, -167.33 113.11, -167.48 112.95 M-167.48 112.95 C-167.65 112.71, -167.83 112.47, -168.08 112.14 M-167.48 112.95 C-167.6 112.79, -167.72 112.62, -168.08 112.14 M-168.08 112.14 C-168.28 111.8, -168.49 111.46, -168.6 111.26 M-168.08 112.14 C-168.25 111.85, -168.42 111.57, -168.6 111.26 M-168.6 111.26 C-168.74 110.96, -168.88 110.66, -169.04 110.33 M-168.6 111.26 C-168.69 111.08, -168.78 110.89, -169.04 110.33 M-169.04 110.33 C-169.16 109.98, -169.29 109.62, -169.39 109.35 M-169.04 110.33 C-169.16 110, -169.27 109.66, -169.39 109.35 M-169.39 109.35 C-169.47 109.01, -169.56 108.66, -169.64 108.32 M-169.39 109.35 C-169.45 109.07, -169.52 108.8, -169.64 108.32 M-169.64 108.32 C-169.68 108.06, -169.72 107.81, -169.8 107.25 M-169.64 108.32 C-169.7 107.91, -169.76 107.5, -169.8 107.25 M-169.8 107.25 C-169.81 106.86, -169.83 106.47, -169.85 106.14 M-169.8 107.25 C-169.81 106.92, -169.83 106.59, -169.85 106.14 M-169.85 106.14 C-169.85 64.95, -169.85 23.77, -169.85 0 M-169.85 106.14 C-169.85 72.15, -169.85 38.16, -169.85 0 M-169.85 0 C-169.85 0, -169.85 0, -169.85 0 M-169.85 0 C-169.85 0, -169.85 0, -169.85 0 M-169.85 0 C-169.83 -0.4, -169.81 -0.8, -169.8 -1.12 M-169.85 0 C-169.83 -0.31, -169.82 -0.63, -169.8 -1.12 M-169.8 -1.12 C-169.76 -1.36, -169.73 -1.6, -169.64 -2.19 M-169.8 -1.12 C-169.75 -1.42, -169.71 -1.72, -169.64 -2.19 M-169.64 -2.19 C-169.54 -2.59, -169.45 -2.99, -169.39 -3.22 M-169.64 -2.19 C-169.56 -2.52, -169.48 -2.85, -169.39 -3.22 M-169.39 -3.22 C-169.27 -3.55, -169.16 -3.87, -169.04 -4.2 M-169.39 -3.22 C-169.26 -3.59, -169.13 -3.96, -169.04 -4.2 M-169.04 -4.2 C-168.91 -4.48, -168.79 -4.75, -168.61 -5.13 M-169.04 -4.2 C-168.9 -4.51, -168.75 -4.82, -168.61 -5.13 M-168.61 -5.13 C-168.43 -5.43, -168.24 -5.74, -168.08 -6.01 M-168.61 -5.13 C-168.44 -5.41, -168.27 -5.68, -168.08 -6.01 M-168.08 -6.01 C-167.85 -6.32, -167.61 -6.64, -167.48 -6.82 M-168.08 -6.01 C-167.87 -6.29, -167.65 -6.58, -167.48 -6.82 M-167.48 -6.82 C-167.29 -7.02, -167.1 -7.23, -166.79 -7.56 M-167.48 -6.82 C-167.24 -7.07, -167.01 -7.32, -166.79 -7.56 M-166.79 -7.56 C-166.52 -7.81, -166.24 -8.07, -166.05 -8.24 M-166.79 -7.56 C-166.6 -7.74, -166.4 -7.92, -166.05 -8.24 M-166.05 -8.24 C-165.82 -8.41, -165.59 -8.58, -165.24 -8.85 M-166.05 -8.24 C-165.74 -8.47, -165.43 -8.71, -165.24 -8.85 M-165.24 -8.85 C-165.04 -8.96, -164.85 -9.08, -164.36 -9.37 M-165.24 -8.85 C-165 -8.99, -164.76 -9.13, -164.36 -9.37 M-164.36 -9.37 C-164.05 -9.52, -163.73 -9.67, -163.43 -9.81 M-164.36 -9.37 C-164.02 -9.53, -163.68 -9.69, -163.43 -9.81 M-163.43 -9.81 C-163.14 -9.91, -162.84 -10.01, -162.44 -10.15 M-163.43 -9.81 C-163.21 -9.89, -162.98 -9.96, -162.44 -10.15 M-162.44 -10.15 C-162.06 -10.25, -161.67 -10.34, -161.41 -10.41 M-162.44 -10.15 C-162.14 -10.23, -161.84 -10.3, -161.41 -10.41 M-161.41 -10.41 C-161.14 -10.45, -160.86 -10.49, -160.34 -10.56 M-161.41 -10.41 C-161.06 -10.46, -160.71 -10.51, -160.34 -10.56 M-160.34 -10.56 C-159.96 -10.58, -159.58 -10.6, -159.24 -10.61 M-160.34 -10.56 C-159.93 -10.58, -159.52 -10.6, -159.24 -10.61 M-159.24 -10.61 C-158.05 -10.61, -156.85 -10.61, -155.71 -10.61 M-159.24 -10.61 C-158.53 -10.61, -157.82 -10.61, -155.71 -10.61 M-155.71 -10.61 C-131.44 6.98, -107.18 24.57, -84.94 40.69 M-155.71 -10.61 C-135.77 3.84, -115.82 18.3, -84.94 40.69 M-84.94 40.69 C-66.26 27.15, -47.57 13.61, -14.14 -10.61 M-84.94 40.69 C-69.52 29.52, -54.1 18.34, -14.14 -10.61 M-14.14 -10.61 C-13.08 -10.61, -12.02 -10.61, -10.61 -10.61 M-14.14 -10.61 C-13.06 -10.61, -11.99 -10.61, -10.61 -10.61 M-10.61 -10.61 C-10.61 -10.61, -10.61 -10.61, -10.61 -10.61 M-10.61 -10.61 C-10.61 -10.61, -10.61 -10.61, -10.61 -10.61 M-10.61 -10.61 C-10.3 -10.6, -9.98 -10.58, -9.5 -10.56 M-10.61 -10.61 C-10.38 -10.6, -10.15 -10.59, -9.5 -10.56 M-9.5 -10.56 C-9.09 -10.5, -8.68 -10.44, -8.42 -10.41 M-9.5 -10.56 C-9.22 -10.52, -8.94 -10.48, -8.42 -10.41 M-8.42 -10.41 C-8.02 -10.31, -7.62 -10.21, -7.39 -10.15 M-8.42 -10.41 C-8.07 -10.32, -7.72 -10.23, -7.39 -10.15 M-7.39 -10.15 C-7.05 -10.03, -6.71 -9.91, -6.41 -9.81 M-7.39 -10.15 C-7.18 -10.08, -6.96 -10, -6.41 -9.81 M-6.41 -9.81 C-6.17 -9.69, -5.92 -9.58, -5.48 -9.37 M-6.41 -9.81 C-6.08 -9.65, -5.75 -9.5, -5.48 -9.37 M-5.48 -9.37 C-5.2 -9.2, -4.93 -9.04, -4.61 -8.85 M-5.48 -9.37 C-5.14 -9.17, -4.8 -8.96, -4.61 -8.85 M-4.61 -8.85 C-4.31 -8.62, -4.01 -8.4, -3.8 -8.24 M-4.61 -8.85 C-4.38 -8.68, -4.16 -8.51, -3.8 -8.24 M-3.8 -8.24 C-3.55 -8.01, -3.29 -7.78, -3.05 -7.56 M-3.8 -8.24 C-3.54 -8.01, -3.29 -7.77, -3.05 -7.56 M-3.05 -7.56 C-2.84 -7.32, -2.62 -7.08, -2.37 -6.82 M-3.05 -7.56 C-2.9 -7.39, -2.74 -7.21, -2.37 -6.82 M-2.37 -6.82 C-2.15 -6.52, -1.94 -6.23, -1.77 -6.01 M-2.37 -6.82 C-2.14 -6.51, -1.92 -6.2, -1.77 -6.01 M-1.77 -6.01 C-1.58 -5.69, -1.39 -5.37, -1.24 -5.13 M-1.77 -6.01 C-1.59 -5.72, -1.42 -5.42, -1.24 -5.13 M-1.24 -5.13 C-1.11 -4.85, -0.98 -4.58, -0.81 -4.2 M-1.24 -5.13 C-1.14 -4.91, -1.03 -4.69, -0.81 -4.2 M-0.81 -4.2 C-0.71 -3.93, -0.61 -3.65, -0.46 -3.22 M-0.81 -4.2 C-0.68 -3.83, -0.54 -3.46, -0.46 -3.22 M-0.46 -3.22 C-0.37 -2.84, -0.27 -2.45, -0.21 -2.19 M-0.46 -3.22 C-0.41 -3, -0.35 -2.78, -0.21 -2.19 M-0.21 -2.19 C-0.16 -1.88, -0.12 -1.57, -0.05 -1.12 M-0.21 -2.19 C-0.15 -1.81, -0.1 -1.42, -0.05 -1.12 M-0.05 -1.12 C-0.03 -0.69, -0.01 -0.27, 0 0 M-0.05 -1.12 C-0.04 -0.87, -0.03 -0.63, 0 0 M0 0 C0 0, 0 0, 0 0 M0 0 C0 0, 0 0, 0 0 M0 0 C0 0, 0 0, 0 0 M0 0 C0 0, 0 0, 0 0" stroke="#000000" stroke-width="1" fill="none"></path></g></g><mask></mask><g transform="translate(13.873590118355423 137.91974295510158) rotate(0 76.5 19.5)"><text x="76.5" y="0" font-family="Helvetica, Segoe UI Emoji" font-size="34.19428571428574px" fill="#000000" text-anchor="middle" style="white-space: pre;" direction="ltr" dominant-baseline="text-before-edge">Gmail API</text></g></svg>