<svg version="1.1" xmlns="http://www.w3.org/2000/svg" viewBox="0 0 172 84" width="172" height="84">
  <!-- svg-source:excalidraw -->
  
  <defs>
    
    
  </defs>
  <g stroke-linecap="round" transform="translate(6 6) rotate(0 80 36)"><path d="M18 0 C51.3 0, 84.59 0, 142 0 C154 0, 160 6, 160 18 C160 32.05, 160 46.1, 160 54 C160 66, 154 72, 142 72 C109.91 72, 77.83 72, 18 72 C6 72, 0 66, 0 54 C0 40.69, 0 27.38, 0 18 C0 6, 6 0, 18 0" stroke="none" stroke-width="0" fill="#FFF"></path><path d="M18 0 C54.06 0, 90.12 0, 142 0 M18 0 C62.63 0, 107.26 0, 142 0 M142 0 C154 0, 160 6, 160 18 M142 0 C154 0, 160 6, 160 18 M160 18 C160 26.91, 160 35.81, 160 54 M160 18 C160 30.76, 160 43.51, 160 54 M160 54 C160 66, 154 72, 142 72 M160 54 C160 66, 154 72, 142 72 M142 72 C108.97 72, 75.93 72, 18 72 M142 72 C108.05 72, 74.1 72, 18 72 M18 72 C6 72, 0 66, 0 54 M18 72 C6 72, 0 66, 0 54 M0 54 C0 46.22, 0 38.44, 0 18 M0 54 C0 45.1, 0 36.2, 0 18 M0 18 C0 6, 6 0, 18 0 M0 18 C0 6, 6 0, 18 0" stroke="#4285f4" stroke-width="2" fill="none"></path></g><g transform="translate(59.5 28.5) rotate(0 50 14)"><text x="0" y="0" font-family="Helvetica, Segoe UI Emoji" font-size="12px" fill="#000000" text-anchor="start" style="white-space: pre;" direction="ltr" dominant-baseline="text-before-edge">Recommendations</text><text x="0" y="14" font-family="Helvetica, Segoe UI Emoji" font-size="12px" fill="#000000" text-anchor="start" style="white-space: pre;" direction="ltr" dominant-baseline="text-before-edge">AI</text></g><g stroke-linecap="round"><g transform="translate(38.5 28.666666746139526) rotate(0 6.6666669845581055 6.666666626930237)" fill-rule="evenodd"><path d="M0 0 L13.33 0 L13.33 13.33 L0 13.33 L0 0" stroke="none" stroke-width="0" fill="#aecbfa" fill-rule="evenodd"></path><path d="M0 0 C4.35 0, 8.71 0, 13.33 0 M0 0 C3.52 0, 7.04 0, 13.33 0 M13.33 0 C13.33 4.88, 13.33 9.76, 13.33 13.33 M13.33 0 C13.33 5.32, 13.33 10.64, 13.33 13.33 M13.33 13.33 C8.23 13.33, 3.13 13.33, 0 13.33 M13.33 13.33 C10.12 13.33, 6.9 13.33, 0 13.33 M0 13.33 C0 9.78, 0 6.23, 0 0 M0 13.33 C0 9.68, 0 6.03, 0 0 M0 0 C0 0, 0 0, 0 0 M0 0 C0 0, 0 0, 0 0" stroke="#00000000" stroke-width="1" fill="none"></path></g></g><mask></mask><g stroke-linecap="round"><g transform="translate(44.455556869506836 37.68000030517578) rotate(0 0.7377767562866211 -2.422222375869751)" fill-rule="evenodd"><path d="M0 0 L3.82 -3.78 L2.76 -4.84 L0 -2.12 L-1.29 -3.41 L-2.35 -2.35 L0 0" stroke="none" stroke-width="0" fill="#aecbfa" fill-rule="evenodd"></path><path d="M0 0 C1.1 -1.08, 2.19 -2.17, 3.82 -3.78 M0 0 C1.51 -1.5, 3.03 -2.99, 3.82 -3.78 M3.82 -3.78 C3.47 -4.13, 3.12 -4.48, 2.76 -4.84 M3.82 -3.78 C3.55 -4.05, 3.28 -4.32, 2.76 -4.84 M2.76 -4.84 C1.92 -4.02, 1.09 -3.2, 0 -2.12 M2.76 -4.84 C1.73 -3.83, 0.7 -2.82, 0 -2.12 M0 -2.12 C-0.33 -2.46, -0.67 -2.79, -1.29 -3.41 M0 -2.12 C-0.32 -2.45, -0.64 -2.77, -1.29 -3.41 M-1.29 -3.41 C-1.68 -3.02, -2.06 -2.63, -2.35 -2.35 M-1.29 -3.41 C-1.52 -3.18, -1.75 -2.95, -2.35 -2.35 M-2.35 -2.35 C-1.77 -1.77, -1.19 -1.19, 0 0 M-2.35 -2.35 C-1.81 -1.81, -1.27 -1.27, 0 0 M0 0 C0 0, 0 0, 0 0 M0 0 C0 0, 0 0, 0 0" stroke="#00000000" stroke-width="1" fill="none"></path></g></g><mask></mask><g stroke-linecap="round"><g transform="translate(25.166666746139526 44.66666603088379) rotate(0 5.333333134651184 5.333333969116211)" fill-rule="evenodd"><path d="M0 0 L0 10.67 L10.67 10.67 L10.67 0 L0 0" stroke="none" stroke-width="0" fill="#4285f4" fill-rule="evenodd"></path><path d="M0 0 C0 3.98, 0 7.96, 0 10.67 M0 0 C0 4.18, 0 8.35, 0 10.67 M0 10.67 C2.55 10.67, 5.1 10.67, 10.67 10.67 M0 10.67 C3.49 10.67, 6.97 10.67, 10.67 10.67 M10.67 10.67 C10.67 6.63, 10.67 2.59, 10.67 0 M10.67 10.67 C10.67 7.56, 10.67 4.46, 10.67 0 M10.67 0 C8.37 0, 6.07 0, 0 0 M10.67 0 C6.59 0, 2.52 0, 0 0 M0 0 C0 0, 0 0, 0 0 M0 0 C0 0, 0 0, 0 0" stroke="#00000000" stroke-width="1" fill="none"></path></g></g><mask></mask><g stroke-linecap="round"><g transform="translate(33.166666984558105 52.66666603088379) rotate(0 -2.6666667461395264 -2.666666030883789)" fill-rule="evenodd"><path d="M0 0 L-5.33 0 L-5.33 -5.33 L0 -5.33 L0 0" stroke="none" stroke-width="0" fill="#4285f4" fill-rule="evenodd"></path><path d="M0 0 C-1.73 0, -3.45 0, -5.33 0 M0 0 C-1.64 0, -3.28 0, -5.33 0 M-5.33 0 C-5.33 -1.63, -5.33 -3.26, -5.33 -5.33 M-5.33 0 C-5.33 -1.16, -5.33 -2.31, -5.33 -5.33 M-5.33 -5.33 C-3.91 -5.33, -2.48 -5.33, 0 -5.33 M-5.33 -5.33 C-4.26 -5.33, -3.18 -5.33, 0 -5.33 M0 -5.33 C0 -3.35, 0 -1.38, 0 0 M0 -5.33 C0 -3.81, 0 -2.29, 0 0 M0 0 C0 0, 0 0, 0 0 M0 0 C0 0, 0 0, 0 0" stroke="#00000000" stroke-width="1" fill="none"></path></g></g><mask></mask><g stroke-linecap="round"><g transform="translate(38.5 42) rotate(0 6.6666669845581055 -1.3333334922790527)" fill-rule="evenodd"><path d="M0 0 L13.33 0 L13.33 -2.62 L2.67 -2.67 L0 0 L0 0" stroke="none" stroke-width="0" fill="#4285f4" fill-rule="evenodd"></path><path d="M0 0 C2.94 0, 5.89 0, 13.33 0 M0 0 C2.75 0, 5.5 0, 13.33 0 M13.33 0 C13.33 -0.66, 13.33 -1.32, 13.33 -2.62 M13.33 0 C13.33 -0.71, 13.33 -1.42, 13.33 -2.62 M13.33 -2.62 C10.5 -2.63, 7.67 -2.65, 2.67 -2.67 M13.33 -2.62 C9.2 -2.64, 5.06 -2.66, 2.67 -2.67 M2.67 -2.67 C1.69 -1.69, 0.71 -0.71, 0 0 M2.67 -2.67 C1.68 -1.68, 0.68 -0.68, 0 0 M0 0 C0 0, 0 0, 0 0 M0 0 C0 0, 0 0, 0 0 M0 0 C0 0, 0 0, 0 0 M0 0 C0 0, 0 0, 0 0" stroke="#00000000" stroke-width="1" fill="none"></path></g></g><mask></mask><g stroke-linecap="round"><g transform="translate(49.16666603088379 31.333333492279053) rotate(0 1.333333969116211 3.9999998807907104)" fill-rule="evenodd"><path d="M0 0 L0 8.04 L2.67 10.67 L2.67 -2.67 L0 0 L0 0" stroke="none" stroke-width="0" fill="#669df6" fill-rule="evenodd"></path><path d="M0 0 C0 2.89, 0 5.78, 0 8.04 M0 0 C0 2.76, 0 5.51, 0 8.04 M0 8.04 C0.67 8.69, 1.34 9.35, 2.67 10.67 M0 8.04 C0.56 8.59, 1.12 9.14, 2.67 10.67 M2.67 10.67 C2.67 5.92, 2.67 1.17, 2.67 -2.67 M2.67 10.67 C2.67 6.72, 2.67 2.77, 2.67 -2.67 M2.67 -2.67 C1.74 -1.74, 0.81 -0.81, 0 0 M2.67 -2.67 C1.89 -1.89, 1.11 -1.11, 0 0 M0 0 C0 0, 0 0, 0 0 M0 0 C0 0, 0 0, 0 0 M0 0 C0 0, 0 0, 0 0 M0 0 C0 0, 0 0, 0 0" stroke="#00000000" stroke-width="1" fill="none"></path></g></g><mask></mask><g stroke-linecap="round"><g transform="translate(35.833333015441895 55.33333396911621) rotate(0 -1.3333330154418945 -5.333333969116211)" fill-rule="evenodd"><path d="M0 0 L-2.67 -2.67 L-2.67 -8 L0 -10.67 L0 0 L0 0" stroke="none" stroke-width="0" fill="#aecbfa" fill-rule="evenodd"></path><path d="M0 0 C-0.58 -0.58, -1.16 -1.16, -2.67 -2.67 M0 0 C-0.54 -0.54, -1.08 -1.08, -2.67 -2.67 M-2.67 -2.67 C-2.67 -3.99, -2.67 -5.31, -2.67 -8 M-2.67 -2.67 C-2.67 -4.56, -2.67 -6.45, -2.67 -8 M-2.67 -8 C-1.7 -8.97, -0.73 -9.94, 0 -10.67 M-2.67 -8 C-2 -8.67, -1.33 -9.34, 0 -10.67 M0 -10.67 C0 -6.45, 0 -2.24, 0 0 M0 -10.67 C0 -8.19, 0 -5.71, 0 0 M0 0 C0 0, 0 0, 0 0 M0 0 C0 0, 0 0, 0 0 M0 0 C0 0, 0 0, 0 0 M0 0 C0 0, 0 0, 0 0" stroke="#00000000" stroke-width="1" fill="none"></path></g></g><mask></mask><g stroke-linecap="round"><g transform="translate(25.166666746139526 55.33333396911621) rotate(0 5.333333134651184 -1.333333969116211)" fill-rule="evenodd"><path d="M0 0 L2.67 -2.67 L8 -2.67 L10.67 0 L0 0 L0 0" stroke="none" stroke-width="0" fill="#669df6" fill-rule="evenodd"></path><path d="M0 0 C0.7 -0.7, 1.41 -1.41, 2.67 -2.67 M0 0 C0.98 -0.98, 1.95 -1.95, 2.67 -2.67 M2.67 -2.67 C4.79 -2.67, 6.92 -2.67, 8 -2.67 M2.67 -2.67 C4.71 -2.67, 6.75 -2.67, 8 -2.67 M8 -2.67 C8.64 -2.02, 9.29 -1.38, 10.67 0 M8 -2.67 C8.71 -1.96, 9.42 -1.25, 10.67 0 M10.67 0 C7.75 0, 4.83 0, 0 0 M10.67 0 C8.29 0, 5.91 0, 0 0 M0 0 C0 0, 0 0, 0 0 M0 0 C0 0, 0 0, 0 0 M0 0 C0 0, 0 0, 0 0 M0 0 C0 0, 0 0, 0 0" stroke="#00000000" stroke-width="1" fill="none"></path></g></g><mask></mask><g stroke-linecap="round"><g transform="translate(25.166666746139526 31.333333492279053) rotate(0 5.333333134651184 5.333333253860474)" fill-rule="evenodd"><path d="M0 0 L0 10.67 L10.67 10.67 L10.67 0 L0 0" stroke="none" stroke-width="0" fill="#4285f4" fill-rule="evenodd"></path><path d="M0 0 C0 4.22, 0 8.45, 0 10.67 M0 0 C0 3.51, 0 7.02, 0 10.67 M0 10.67 C2.73 10.67, 5.46 10.67, 10.67 10.67 M0 10.67 C3.22 10.67, 6.44 10.67, 10.67 10.67 M10.67 10.67 C10.67 6.69, 10.67 2.72, 10.67 0 M10.67 10.67 C10.67 7.9, 10.67 5.13, 10.67 0 M10.67 0 C8.01 0, 5.36 0, 0 0 M10.67 0 C6.76 0, 2.86 0, 0 0 M0 0 C0 0, 0 0, 0 0 M0 0 C0 0, 0 0, 0 0" stroke="#00000000" stroke-width="1" fill="none"></path></g></g><mask></mask><g stroke-linecap="round"><g transform="translate(33.166666984558105 39.333333015441895) rotate(0 -2.6666667461395264 -2.6666665077209473)" fill-rule="evenodd"><path d="M0 0 L-5.33 0 L-5.33 -5.33 L0 -5.33 L0 0" stroke="none" stroke-width="0" fill="#4285f4" fill-rule="evenodd"></path><path d="M0 0 C-2.09 0, -4.18 0, -5.33 0 M0 0 C-1.28 0, -2.55 0, -5.33 0 M-5.33 0 C-5.33 -1.74, -5.33 -3.49, -5.33 -5.33 M-5.33 0 C-5.33 -2.02, -5.33 -4.04, -5.33 -5.33 M-5.33 -5.33 C-3.78 -5.33, -2.23 -5.33, 0 -5.33 M-5.33 -5.33 C-4.18 -5.33, -3.04 -5.33, 0 -5.33 M0 -5.33 C0 -3.3, 0 -1.26, 0 0 M0 -5.33 C0 -4.18, 0 -3.03, 0 0 M0 0 C0 0, 0 0, 0 0 M0 0 C0 0, 0 0, 0 0" stroke="#00000000" stroke-width="1" fill="none"></path></g></g><mask></mask><g stroke-linecap="round"><g transform="translate(35.833333015441895 42) rotate(0 -1.3333330154418945 -5.333333253860474)" fill-rule="evenodd"><path d="M0 0 L-2.67 -2.67 L-2.67 -8 L0 -10.67 L0 0 L0 0" stroke="none" stroke-width="0" fill="#aecbfa" fill-rule="evenodd"></path><path d="M0 0 C-0.82 -0.82, -1.64 -1.64, -2.67 -2.67 M0 0 C-0.82 -0.82, -1.63 -1.63, -2.67 -2.67 M-2.67 -2.67 C-2.67 -3.82, -2.67 -4.98, -2.67 -8 M-2.67 -2.67 C-2.67 -4.09, -2.67 -5.52, -2.67 -8 M-2.67 -8 C-2.13 -8.54, -1.59 -9.07, 0 -10.67 M-2.67 -8 C-1.68 -8.99, -0.69 -9.98, 0 -10.67 M0 -10.67 C0 -7.63, 0 -4.58, 0 0 M0 -10.67 C0 -8.46, 0 -6.24, 0 0 M0 0 C0 0, 0 0, 0 0 M0 0 C0 0, 0 0, 0 0 M0 0 C0 0, 0 0, 0 0 M0 0 C0 0, 0 0, 0 0" stroke="#00000000" stroke-width="1" fill="none"></path></g></g><mask></mask><g stroke-linecap="round"><g transform="translate(25.166666746139526 42) rotate(0 5.333333134651184 -1.3333334922790527)" fill-rule="evenodd"><path d="M0 0 L2.67 -2.67 L8 -2.67 L10.67 0 L0 0 L0 0" stroke="none" stroke-width="0" fill="#669df6" fill-rule="evenodd"></path><path d="M0 0 C0.55 -0.55, 1.1 -1.1, 2.67 -2.67 M0 0 C0.67 -0.67, 1.34 -1.34, 2.67 -2.67 M2.67 -2.67 C4.12 -2.67, 5.56 -2.67, 8 -2.67 M2.67 -2.67 C4.08 -2.67, 5.5 -2.67, 8 -2.67 M8 -2.67 C9.03 -1.63, 10.07 -0.6, 10.67 0 M8 -2.67 C8.98 -1.69, 9.96 -0.71, 10.67 0 M10.67 0 C6.7 0, 2.74 0, 0 0 M10.67 0 C7.14 0, 3.62 0, 0 0 M0 0 C0 0, 0 0, 0 0 M0 0 C0 0, 0 0, 0 0 M0 0 C0 0, 0 0, 0 0 M0 0 C0 0, 0 0, 0 0" stroke="#00000000" stroke-width="1" fill="none"></path></g></g><mask></mask><g stroke-linecap="round"><g transform="translate(38.5 44.66666603088379) rotate(0 5.3333330154418945 5.333333969116211)" fill-rule="evenodd"><path d="M0 0 L0 10.67 L10.67 10.67 L10.67 0 L0 0" stroke="none" stroke-width="0" fill="#4285f4" fill-rule="evenodd"></path><path d="M0 0 C0 3.66, 0 7.32, 0 10.67 M0 0 C0 2.67, 0 5.34, 0 10.67 M0 10.67 C2.24 10.67, 4.48 10.67, 10.67 10.67 M0 10.67 C3.8 10.67, 7.6 10.67, 10.67 10.67 M10.67 10.67 C10.67 7.51, 10.67 4.35, 10.67 0 M10.67 10.67 C10.67 6.96, 10.67 3.26, 10.67 0 M10.67 0 C7.54 0, 4.42 0, 0 0 M10.67 0 C6.96 0, 3.26 0, 0 0 M0 0 C0 0, 0 0, 0 0 M0 0 C0 0, 0 0, 0 0" stroke="#00000000" stroke-width="1" fill="none"></path></g></g><mask></mask><g stroke-linecap="round"><g transform="translate(46.5 52.66666603088379) rotate(0 -2.6666669845581055 -2.666666030883789)" fill-rule="evenodd"><path d="M0 0 L-5.33 0 L-5.33 -5.33 L0 -5.33 L0 0" stroke="none" stroke-width="0" fill="#4285f4" fill-rule="evenodd"></path><path d="M0 0 C-1.08 0, -2.17 0, -5.33 0 M0 0 C-1.32 0, -2.64 0, -5.33 0 M-5.33 0 C-5.33 -1.89, -5.33 -3.78, -5.33 -5.33 M-5.33 0 C-5.33 -1.94, -5.33 -3.88, -5.33 -5.33 M-5.33 -5.33 C-3.99 -5.33, -2.65 -5.33, 0 -5.33 M-5.33 -5.33 C-3.23 -5.33, -1.12 -5.33, 0 -5.33 M0 -5.33 C0 -4.09, 0 -2.85, 0 0 M0 -5.33 C0 -3.36, 0 -1.38, 0 0 M0 0 C0 0, 0 0, 0 0 M0 0 C0 0, 0 0, 0 0" stroke="#00000000" stroke-width="1" fill="none"></path></g></g><mask></mask><g stroke-linecap="round"><g transform="translate(49.16666603088379 55.33333396911621) rotate(0 -1.3333330154418945 -5.333333969116211)" fill-rule="evenodd"><path d="M0 0 L-2.67 -2.67 L-2.67 -8 L0 -10.67 L0 0 L0 0" stroke="none" stroke-width="0" fill="#aecbfa" fill-rule="evenodd"></path><path d="M0 0 C-0.98 -0.98, -1.95 -1.95, -2.67 -2.67 M0 0 C-1.06 -1.06, -2.13 -2.13, -2.67 -2.67 M-2.67 -2.67 C-2.67 -4.71, -2.67 -6.75, -2.67 -8 M-2.67 -2.67 C-2.67 -3.95, -2.67 -5.24, -2.67 -8 M-2.67 -8 C-1.96 -8.71, -1.25 -9.42, 0 -10.67 M-2.67 -8 C-1.94 -8.73, -1.21 -9.46, 0 -10.67 M0 -10.67 C0 -8.29, 0 -5.91, 0 0 M0 -10.67 C0 -6.89, 0 -3.12, 0 0 M0 0 C0 0, 0 0, 0 0 M0 0 C0 0, 0 0, 0 0 M0 0 C0 0, 0 0, 0 0 M0 0 C0 0, 0 0, 0 0" stroke="#00000000" stroke-width="1" fill="none"></path></g></g><mask></mask><g stroke-linecap="round"><g transform="translate(38.5 55.33333396911621) rotate(0 5.3333330154418945 -1.333333969116211)" fill-rule="evenodd"><path d="M0 0 L2.67 -2.67 L8 -2.67 L10.67 0 L0 0 L0 0" stroke="none" stroke-width="0" fill="#669df6" fill-rule="evenodd"></path><path d="M0 0 C0.88 -0.88, 1.76 -1.76, 2.67 -2.67 M0 0 C0.68 -0.68, 1.36 -1.36, 2.67 -2.67 M2.67 -2.67 C4.28 -2.67, 5.88 -2.67, 8 -2.67 M2.67 -2.67 C4.65 -2.67, 6.64 -2.67, 8 -2.67 M8 -2.67 C8.69 -1.98, 9.38 -1.28, 10.67 0 M8 -2.67 C8.66 -2, 9.33 -1.34, 10.67 0 M10.67 0 C6.76 0, 2.86 0, 0 0 M10.67 0 C8.36 0, 6.06 0, 0 0 M0 0 C0 0, 0 0, 0 0 M0 0 C0 0, 0 0, 0 0 M0 0 C0 0, 0 0, 0 0 M0 0 C0 0, 0 0, 0 0" stroke="#00000000" stroke-width="1" fill="none"></path></g></g><mask></mask></svg>