<svg xmlns="http://www.w3.org/2000/svg" viewBox="641.43 243.50 172.00 84.00" width="172" height="84"><rect x="647.43" y="249.50" width="160.00" height="72.00" rx="0" stroke="#4285f4" stroke-width="2" opacity="1.0" fill="#FFF"/><text x="712.43" y="290.50" font-size="12" fill="#000000" opacity="1.0" font-family="sans-serif">Cloud TPU</text><polyline points="694.90,280.46 694.90,277.09 691.51,277.09 691.51,275.48 691.51,275.48 691.48,275.13 691.39,274.81 691.25,274.52 691.06,274.27 690.81,274.07 690.52,273.91 690.19,273.82 689.81,273.79 688.12,273.79 688.12,270.48 684.75,270.48 684.75,273.87 681.36,273.87 681.36,270.48 677.97,270.48 677.97,273.87 674.61,273.87 674.61,270.48 671.21,270.48 671.21,273.87 669.77,273.87 669.77,273.87 669.42,273.87 669.11,273.95 668.83,274.09 668.60,274.28 668.41,274.52 668.27,274.81 668.19,275.13 668.16,275.48 668.16,277.18 664.76,277.18 664.76,280.57 668.16,280.57 668.16,283.96 664.76,283.96 664.76,287.35 668.16,287.35 668.16,290.58 664.76,290.58 664.76,293.97 668.16,293.97 668.16,295.67 668.16,295.67 668.19,296.02 668.27,296.34 668.41,296.63 668.61,296.88 668.85,297.08 669.14,297.23 669.48,297.33 669.85,297.36 671.55,297.36 671.55,300.75 674.94,300.75 674.94,297.31 678.33,297.31 678.33,300.70 681.72,300.70 681.72,297.31 685.06,297.31 685.06,300.70 688.45,300.70 688.45,297.31 690.15,297.31 690.15,297.31 690.50,297.28 690.82,297.19 691.11,297.05 691.36,296.85 691.56,296.61 691.72,296.32 691.81,295.99 691.84,295.61 691.84,293.91 695.24,293.91 695.24,290.55 691.84,290.55 691.84,287.16 695.24,287.16 695.24,283.77 691.84,283.77 691.84,280.37 694.90,280.37 694.90,280.46 694.90,280.46" fill="#669df6" stroke="none" stroke-width="1" opacity="1.0" stroke-linecap="round" stroke-linejoin="round"/><polyline points="688.20,283.85 688.20,293.05 688.20,293.05 688.14,293.38 687.98,293.63 687.72,293.80 687.39,293.86 672.24,293.86 672.24,293.86 671.92,293.80 671.66,293.63 671.50,293.38 671.44,293.05 671.44,277.87 671.44,277.87 671.50,277.55 671.66,277.29 671.92,277.13 672.24,277.07 687.34,277.07 687.34,277.07 687.66,277.13 687.92,277.29 688.09,277.55 688.15,277.87 688.15,283.85 688.20,283.85 688.20,283.85" fill="#669df6" stroke="none" stroke-width="1" opacity="1.0" stroke-linecap="round" stroke-linejoin="round"/><polyline points="688.20,283.85 688.20,293.05 688.20,293.05 688.14,293.38 687.98,293.63 687.72,293.80 687.39,293.86 672.24,293.86 672.24,293.86 671.92,293.80 671.66,293.63 671.50,293.38 671.44,293.05 671.44,277.87 671.44,277.87 671.50,277.55 671.66,277.29 671.92,277.13 672.24,277.07 687.34,277.07 687.34,277.07 687.66,277.13 687.92,277.29 688.09,277.55 688.15,277.87 688.15,283.85 688.20,283.85 688.20,283.85" fill="#fff" stroke="none" stroke-width="1" opacity="1.0" stroke-linecap="round" stroke-linejoin="round"/><polyline points="688.20,293.02 688.20,292.64 685.53,290.13 685.53,289.97 685.53,289.97 685.45,289.51 685.21,289.11 684.83,288.80 684.34,288.60 684.50,285.63 684.50,285.63 684.80,285.38 685.16,285.11 685.54,284.81 685.87,284.43 688.20,285.41 688.20,284.13 686.34,283.32 686.34,282.85 686.34,282.85 686.25,282.14 685.99,281.49 685.56,280.94 685.29,280.71 684.98,280.51 686.45,277.09 685.17,277.09 683.95,280.07 683.78,280.07 683.78,280.07 683.41,280.10 683.05,280.18 682.35,280.50 681.74,280.98 681.28,281.60 676.44,279.90 676.44,279.73 676.44,279.73 676.34,279.25 676.11,278.76 676.58,277.07 675.22,277.07 674.88,278.26 674.72,278.26 674.72,278.26 674.41,278.29 674.11,278.38 673.83,278.52 673.57,278.71 673.35,278.96 673.17,279.25 673.06,279.58 673.02,279.96 671.33,280.21 671.33,281.51 673.66,281.26 673.66,281.26 674.00,281.51 674.47,281.74 675.44,286.57 675.44,286.57 675.15,286.72 674.89,286.92 674.46,287.42 674.18,288.04 674.08,288.74 674.10,289.01 674.15,289.18 674.24,289.38 671.27,291.80 671.27,293.08 671.27,293.08 671.28,293.28 671.35,293.41 675.13,290.36 675.13,290.36 675.44,290.60 675.82,290.80 676.24,290.94 676.66,290.99 677.15,290.95 677.60,290.82 678.00,290.61 678.34,290.34 678.62,290.00 678.83,289.60 678.95,289.15 679.00,288.66 678.98,288.34 678.93,288.17 678.83,288.02 682.39,285.05 682.39,285.05 682.79,285.29 683.20,285.52 683.03,289.08 683.03,289.08 682.84,289.32 682.74,289.56 682.70,290.05 682.73,290.34 682.81,290.60 682.94,290.83 683.11,291.03 683.54,291.31 684.06,291.41 684.38,291.39 684.55,291.34 684.70,291.24 687.56,293.83 687.56,293.83 687.84,293.70 688.04,293.53 688.16,293.31 688.20,293.02 688.20,293.02" fill="#4285f4" stroke="none" stroke-width="1" opacity="1.0" stroke-linecap="round" stroke-linejoin="round"/><polyline points="677.97,286.99 677.97,286.99 677.72,286.69 677.46,286.49 677.17,286.39 676.83,286.35 675.86,281.35 676.02,281.35 681.17,283.04 681.17,283.04 681.25,283.53 681.33,284.02 677.97,286.99 677.97,286.99" fill="#4285f4" stroke="none" stroke-width="1" opacity="1.0" stroke-linecap="round" stroke-linejoin="round"/><polyline points="677.97,286.99 677.97,286.99 677.72,286.69 677.46,286.49 677.17,286.39 676.83,286.35 675.86,281.35 676.02,281.35 681.17,283.04 681.17,283.04 681.25,283.53 681.33,284.02 677.97,286.99 677.97,286.99" fill="#fff" stroke="none" stroke-width="1" opacity="1.0" stroke-linecap="round" stroke-linejoin="round"/></svg>