<svg version="1.1" xmlns="http://www.w3.org/2000/svg" viewBox="0 0 172 84" width="172" height="84">
  <!-- svg-source:excalidraw -->
  
  <defs>
    
    
  </defs>
  <g stroke-linecap="round" transform="translate(6 6) rotate(0 80 36)"><path d="M18 0 C53.29 0, 88.57 0, 142 0 C154 0, 160 6, 160 18 C160 30.48, 160 42.97, 160 54 C160 66, 154 72, 142 72 C99.73 72, 57.45 72, 18 72 C6 72, 0 66, 0 54 C0 46.63, 0 39.27, 0 18 C0 6, 6 0, 18 0" stroke="none" stroke-width="0" fill="#FFF"></path><path d="M18 0 C47.66 0, 77.32 0, 142 0 M18 0 C46.68 0, 75.37 0, 142 0 M142 0 C154 0, 160 6, 160 18 M142 0 C154 0, 160 6, 160 18 M160 18 C160 27.99, 160 37.97, 160 54 M160 18 C160 26.67, 160 35.34, 160 54 M160 54 C160 66, 154 72, 142 72 M160 54 C160 66, 154 72, 142 72 M142 72 C102.53 72, 63.06 72, 18 72 M142 72 C101.05 72, 60.09 72, 18 72 M18 72 C6 72, 0 66, 0 54 M18 72 C6 72, 0 66, 0 54 M0 54 C0 45.69, 0 37.38, 0 18 M0 54 C0 43.09, 0 32.18, 0 18 M0 18 C0 6, 6 0, 18 0 M0 18 C0 6, 6 0, 18 0" stroke="#4285f4" stroke-width="2" fill="none"></path></g><g transform="translate(71 35) rotate(0 29 7)"><text x="0" y="0" font-family="Helvetica, Segoe UI Emoji" font-size="12px" fill="#000000" text-anchor="start" style="white-space: pre;" direction="ltr" dominant-baseline="text-before-edge">Cloud Run</text></g><g stroke-linecap="round"><g transform="translate(34.37555503845215 29.502222299575806) rotate(0 8.311112403869629 6.248888850212097)" fill-rule="evenodd"><path d="M0 0 L4.15 12.5 L16.62 12.5 L0 0 L0 0" stroke="none" stroke-width="0" fill="#aecbfa" fill-rule="evenodd"></path><path d="M0 0 C0.98 2.96, 1.97 5.92, 4.15 12.5 M0 0 C1.01 3.04, 2.02 6.09, 4.15 12.5 M4.15 12.5 C7.59 12.5, 11.04 12.5, 16.62 12.5 M4.15 12.5 C7.7 12.5, 11.26 12.5, 16.62 12.5 M16.62 12.5 C11.65 8.76, 6.67 5.01, 0 0 M16.62 12.5 C10.27 7.72, 3.91 2.94, 0 0 M0 0 C0 0, 0 0, 0 0 M0 0 C0 0, 0 0, 0 0 M0 0 C0 0, 0 0, 0 0 M0 0 C0 0, 0 0, 0 0" stroke="transparent" stroke-width="1" fill="none"></path></g></g><mask></mask><g stroke-linecap="round"><g transform="translate(50.997779846191406 41.99999999999977) rotate(0 -8.311112403869629 6.248889923095703)" fill-rule="evenodd"><path d="M0 0 L-12.47 0 L-16.62 12.5 L0 0 L0 0" stroke="none" stroke-width="0" fill="#4285f4" fill-rule="evenodd"></path><path d="M0 0 C-2.89 0, -5.78 0, -12.47 0 M0 0 C-4.46 0, -8.92 0, -12.47 0 M-12.47 0 C-13.72 3.77, -14.98 7.54, -16.62 12.5 M-12.47 0 C-13.36 2.67, -14.24 5.33, -16.62 12.5 M-16.62 12.5 C-13.2 9.93, -9.79 7.36, 0 0 M-16.62 12.5 C-11.1 8.35, -5.58 4.2, 0 0 M0 0 C0 0, 0 0, 0 0 M0 0 C0 0, 0 0, 0 0 M0 0 C0 0, 0 0, 0 0 M0 0 C0 0, 0 0, 0 0" stroke="transparent" stroke-width="1" fill="none"></path></g></g><mask></mask><g stroke-linecap="round"><g transform="translate(27.086666584014893 54.49777984619118) rotate(0 3.644444227218628 -6.248889923095703)" fill-rule="evenodd"><path d="M0 0 L4.17 -2.08 L7.29 -12.5 L3.12 -12.5 L0 0 L0 0" stroke="none" stroke-width="0" fill="#4285f4" fill-rule="evenodd"></path><path d="M0 0 C1.58 -0.79, 3.17 -1.58, 4.17 -2.08 M0 0 C1.2 -0.6, 2.4 -1.2, 4.17 -2.08 M4.17 -2.08 C5.09 -5.14, 6 -8.2, 7.29 -12.5 M4.17 -2.08 C5.03 -4.94, 5.88 -7.8, 7.29 -12.5 M7.29 -12.5 C5.82 -12.5, 4.35 -12.5, 3.12 -12.5 M7.29 -12.5 C6.02 -12.5, 4.75 -12.5, 3.12 -12.5 M3.12 -12.5 C2.28 -9.15, 1.45 -5.81, 0 0 M3.12 -12.5 C1.88 -7.55, 0.65 -2.6, 0 0 M0 0 C0 0, 0 0, 0 0 M0 0 C0 0, 0 0, 0 0 M0 0 C0 0, 0 0, 0 0 M0 0 C0 0, 0 0, 0 0" stroke="transparent" stroke-width="1" fill="none"></path></g></g><mask></mask><g stroke-linecap="round"><g transform="translate(27.086666584014893 29.502222299575806) rotate(0 3.644444227218628 6.248888850212097)" fill-rule="evenodd"><path d="M0 0 L3.12 12.5 L7.29 12.5 L4.17 2.08 L0 0 L0 0" stroke="none" stroke-width="0" fill="#aecbfa" fill-rule="evenodd"></path><path d="M0 0 C0.84 3.36, 1.68 6.71, 3.12 12.5 M0 0 C1.1 4.41, 2.2 8.82, 3.12 12.5 M3.12 12.5 C4.16 12.5, 5.2 12.5, 7.29 12.5 M3.12 12.5 C4.68 12.5, 6.24 12.5, 7.29 12.5 M7.29 12.5 C6.63 10.29, 5.97 8.09, 4.17 2.08 M7.29 12.5 C6.61 10.24, 5.93 7.97, 4.17 2.08 M4.17 2.08 C2.77 1.38, 1.38 0.69, 0 0 M4.17 2.08 C3.24 1.62, 2.31 1.15, 0 0 M0 0 C0 0, 0 0, 0 0 M0 0 C0 0, 0 0, 0 0 M0 0 C0 0, 0 0, 0 0 M0 0 C0 0, 0 0, 0 0" stroke="transparent" stroke-width="1" fill="none"></path></g></g><mask></mask></svg>