<svg xmlns="http://www.w3.org/2000/svg" viewBox="678.75 140.83 172.00 84.00" width="172" height="84"><rect x="684.75" y="146.83" width="160.00" height="72.00" rx="0" stroke="#4285f4" stroke-width="2" opacity="1.0" fill="#FFF"/><text x="749.75" y="180.83" font-size="12" fill="#000000" opacity="1.0" font-family="sans-serif">Web Security
Scanner</text><ellipse cx="716.49" cy="182.16" rx="4.42" ry="4.42" stroke="transparent" stroke-width="1" opacity="1.0" fill="#4285f4"/><ellipse cx="705.46" cy="181.10" rx="3.01" ry="3.01" stroke="transparent" stroke-width="1" opacity="1.0" fill="#669df6"/><ellipse cx="721.07" cy="192.75" rx="3.01" ry="3.01" stroke="transparent" stroke-width="1" opacity="1.0" fill="#669df6"/><polyline points="728.58,171.30 728.58,171.30 728.40,171.31 728.21,171.32 727.86,171.38 727.51,171.47 727.18,171.59 726.86,171.74 726.56,171.92 726.29,172.13 726.03,172.36 725.80,172.62 725.59,172.90 725.41,173.19 725.26,173.51 725.13,173.84 725.04,174.19 724.99,174.55 724.98,174.73 724.97,174.92 724.98,175.10 724.99,175.29 725.04,175.64 725.13,175.99 725.26,176.32 725.41,176.64 725.59,176.94 725.80,177.21 726.03,177.47 726.29,177.70 726.56,177.91 726.86,178.09 727.18,178.24 727.51,178.37 727.86,178.45 728.21,178.51 728.40,178.52 728.58,178.53 728.77,178.52 728.95,178.51 729.31,178.45 729.66,178.37 729.99,178.24 730.30,178.09 730.60,177.91 730.88,177.70 731.14,177.47 731.37,177.21 731.58,176.94 731.76,176.64 731.91,176.32 732.03,175.99 732.12,175.64 732.18,175.29 732.19,175.10 732.20,174.92 732.19,174.73 732.18,174.55 732.12,174.19 732.03,173.84 731.91,173.51 731.76,173.19 731.58,172.90 731.37,172.62 731.14,172.36 730.88,172.13 730.60,171.92 730.31,171.74 729.99,171.59 729.66,171.47 729.31,171.38 728.95,171.32 728.77,171.31 728.58,171.30 728.58,171.30" fill="none" stroke="#00000000" stroke-width="1" opacity="1.0" stroke-linecap="round" stroke-linejoin="round"/><polyline points="728.58,176.96 728.58,176.96 728.37,176.95 728.17,176.92 727.98,176.87 727.79,176.80 727.61,176.72 727.44,176.62 727.28,176.50 727.14,176.37 727.01,176.23 726.89,176.07 726.78,175.90 726.70,175.72 726.63,175.54 726.57,175.34 726.54,175.14 726.53,174.93 726.54,174.72 726.57,174.52 726.62,174.32 726.68,174.14 726.77,173.96 726.87,173.79 726.98,173.63 727.12,173.49 727.26,173.35 727.42,173.23 727.58,173.13 727.76,173.04 727.95,172.97 728.14,172.92 728.35,172.89 728.55,172.88 728.76,172.89 728.96,172.91 729.16,172.96 729.35,173.03 729.53,173.12 729.70,173.22 729.85,173.33 730.00,173.46 730.13,173.61 730.25,173.76 730.35,173.93 730.44,174.11 730.51,174.30 730.56,174.49 730.60,174.69 730.61,174.90 730.61,174.92 730.61,174.92 730.60,175.12 730.57,175.33 730.52,175.52 730.45,175.71 730.36,175.88 730.26,176.05 730.15,176.21 730.02,176.35 729.87,176.48 729.72,176.60 729.55,176.70 729.37,176.79 729.19,176.86 728.99,176.91 728.79,176.94 728.58,176.96 728.58,176.96" fill="none" stroke="#00000000" stroke-width="1" opacity="1.0" stroke-linecap="round" stroke-linejoin="round"/><polyline points="726.55,174.99 726.55,174.99 726.20,174.52 725.83,174.08 725.45,173.65 725.04,173.24 724.62,172.85 724.18,172.48 723.72,172.14 723.25,171.81 722.77,171.51 722.27,171.23 721.75,170.97 721.23,170.74 720.69,170.53 720.15,170.35 719.59,170.19 719.02,170.05 718.61,172.05 718.61,172.05 719.12,172.17 719.63,172.32 720.12,172.49 720.60,172.68 721.07,172.89 721.52,173.13 721.96,173.39 722.38,173.66 722.78,173.96 723.17,174.27 723.55,174.60 723.90,174.95 724.24,175.32 724.56,175.70 724.86,176.09 725.14,176.50 725.40,176.92 725.65,177.36 725.87,177.80 726.07,178.26 726.24,178.72 726.40,179.20 726.53,179.68 726.64,180.17 726.73,180.67 726.79,181.17 726.83,181.68 726.84,182.19 726.82,182.71 726.78,183.23 726.71,183.75 726.62,184.27 726.50,184.79 726.35,185.30 726.18,185.79 725.99,186.27 725.77,186.73 725.54,187.19 725.28,187.62 725.00,188.05 724.71,188.45 724.39,188.84 724.06,189.21 723.71,189.57 723.35,189.91 722.97,190.23 722.57,190.53 722.16,190.81 721.74,191.07 721.31,191.31 720.86,191.54 720.41,191.74 719.94,191.91 719.47,192.07 718.98,192.20 718.49,192.31 718.00,192.40 717.49,192.46 716.98,192.49 716.47,192.50 715.95,192.49 715.43,192.45 714.91,192.38 714.39,192.29 713.87,192.16 713.37,192.02 712.87,191.85 712.39,191.65 711.93,191.44 711.48,191.20 711.04,190.95 710.62,190.67 710.21,190.37 709.82,190.06 709.45,189.73 709.09,189.38 708.76,189.01 708.44,188.63 708.13,188.24 707.85,187.83 707.59,187.41 707.35,186.98 707.13,186.53 706.93,186.07 706.75,185.61 706.60,185.13 706.46,184.65 706.35,184.16 706.27,183.66 706.21,183.16 706.17,182.65 706.16,182.14 706.17,181.62 706.21,181.10 706.28,180.58 706.38,180.06 706.38,180.05 706.38,180.05 706.46,179.68 706.55,179.32 706.66,178.96 706.78,178.61 706.92,178.27 707.06,177.93 707.22,177.59 707.39,177.26 707.57,176.94 707.76,176.62 707.97,176.31 708.19,176.01 708.41,175.72 708.65,175.43 708.90,175.15 709.16,174.89 707.67,173.40 707.67,173.40 707.24,173.86 706.83,174.34 706.45,174.84 706.10,175.35 705.78,175.87 705.48,176.40 705.22,176.95 704.98,177.50 704.77,178.07 704.59,178.64 704.44,179.21 704.32,179.80 704.22,180.38 704.15,180.97 704.11,181.57 704.10,182.16 704.12,182.75 704.17,183.34 704.24,183.93 704.34,184.52 704.47,185.10 704.63,185.67 704.82,186.24 705.04,186.80 705.28,187.36 705.55,187.90 705.85,188.43 706.18,188.95 706.54,189.45 706.92,189.94 707.33,190.42 707.78,190.88 708.24,191.31 708.72,191.72 709.22,192.10 709.72,192.45 710.25,192.77 710.78,193.06 711.33,193.33 711.88,193.57 712.44,193.78 713.02,193.96 713.59,194.11 714.18,194.23 714.76,194.33 715.35,194.40 715.94,194.43 716.54,194.44 717.13,194.43 717.72,194.38 718.31,194.31 718.90,194.20 719.48,194.07 720.05,193.91 720.62,193.73 721.18,193.51 721.73,193.27 722.28,193.00 722.81,192.70 723.33,192.37 723.83,192.01 724.32,191.63 724.80,191.21 725.25,190.77 725.59,190.42 725.91,190.05 726.22,189.67 726.51,189.29 726.78,188.89 727.03,188.49 727.27,188.08 727.50,187.66 727.70,187.23 727.89,186.80 728.06,186.36 728.21,185.91 728.35,185.46 728.47,185.01 728.57,184.55 728.66,184.09 728.73,183.63 728.78,183.16 728.81,182.69 728.82,182.22 728.82,181.75 728.80,181.28 728.76,180.81 728.70,180.34 728.62,179.87 728.53,179.40 728.42,178.94 728.28,178.47 728.13,178.02 727.97,177.56 727.78,177.11 727.57,176.67 727.35,176.53 727.16,176.36 726.99,176.17 726.84,175.96 726.72,175.74 726.63,175.50 726.58,175.25 726.55,174.99 726.55,174.99" fill="none" stroke="#00000000" stroke-width="1" opacity="1.0" stroke-linecap="round" stroke-linejoin="round"/><polyline points="728.58,176.96 728.58,176.96 728.37,176.95 728.17,176.92 727.98,176.87 727.79,176.80 727.61,176.72 727.44,176.62 727.28,176.50 727.14,176.37 727.01,176.23 726.89,176.07 726.78,175.90 726.70,175.72 726.63,175.54 726.57,175.34 726.54,175.14 726.53,174.93 726.54,174.72 726.57,174.52 726.62,174.32 726.68,174.14 726.77,173.96 726.87,173.79 726.98,173.63 727.12,173.49 727.26,173.35 727.42,173.23 727.58,173.13 727.76,173.04 727.95,172.97 728.14,172.92 728.35,172.89 728.55,172.88 728.76,172.89 728.96,172.91 729.16,172.96 729.35,173.03 729.53,173.12 729.70,173.22 729.85,173.33 730.00,173.46 730.13,173.61 730.25,173.76 730.35,173.93 730.44,174.11 730.51,174.30 730.56,174.49 730.60,174.69 730.61,174.90 730.61,174.92 730.61,174.92 730.60,175.12 730.57,175.33 730.52,175.52 730.45,175.71 730.36,175.88 730.26,176.05 730.15,176.21 730.02,176.35 729.87,176.48 729.72,176.60 729.55,176.70 729.37,176.79 729.19,176.86 728.99,176.91 728.79,176.94 728.58,176.96 728.58,176.96" fill="none" stroke="#00000000" stroke-width="1" opacity="1.0" stroke-linecap="round" stroke-linejoin="round"/></svg>