<svg xmlns="http://www.w3.org/2000/svg" viewBox="24.22 635.47 172.00 84.00" width="172" height="84"><rect x="30.22" y="641.47" width="160.00" height="72.00" rx="0" stroke="#4285f4" stroke-width="2" opacity="1.0" fill="#FFF"/><text x="95.22" y="682.47" font-size="12" fill="#000000" opacity="1.0" font-family="sans-serif">Cloud IoT Core</text><polyline points="63.51,678.03 63.51,671.38 63.51,671.38 63.66,671.30 63.81,671.20 63.93,671.09 64.05,670.97 64.15,670.84 64.24,670.70 64.32,670.56 64.38,670.40 64.43,670.25 64.46,670.08 64.47,669.92 64.47,669.75 64.45,669.59 64.42,669.42 64.37,669.26 64.30,669.10 64.21,668.95 64.12,668.81 64.01,668.68 63.89,668.56 63.76,668.46 63.62,668.37 63.47,668.29 63.32,668.23 63.16,668.19 63.00,668.15 62.84,668.14 62.67,668.14 62.51,668.16 62.34,668.19 62.18,668.24 62.02,668.31 61.86,668.40 61.72,668.49 61.59,668.60 61.48,668.72 61.37,668.85 61.28,668.99 61.21,669.14 61.15,669.29 61.10,669.45 61.07,669.61 61.06,669.77 61.06,669.94 61.07,670.11 61.11,670.27 61.16,670.43 61.23,670.60 61.29,670.72 61.37,670.84 61.46,670.95 61.55,671.05 61.66,671.15 61.77,671.24 61.89,671.31 62.02,671.38 62.02,678.01 55.60,678.01 55.60,673.78 55.60,673.78 55.76,673.70 55.89,673.59 56.02,673.48 56.13,673.36 56.23,673.23 56.32,673.08 56.39,672.94 56.44,672.78 56.49,672.62 56.51,672.46 56.52,672.30 56.52,672.13 56.50,671.97 56.46,671.80 56.40,671.64 56.33,671.48 56.21,671.28 56.06,671.10 55.89,670.94 55.70,670.81 55.50,670.70 55.28,670.63 55.05,670.58 54.81,670.56 54.64,670.57 54.47,670.60 54.30,670.64 54.15,670.70 54.00,670.78 53.86,670.86 53.73,670.96 53.61,671.07 53.50,671.20 53.40,671.33 53.31,671.47 53.24,671.62 53.19,671.78 53.15,671.94 53.12,672.11 53.11,672.29 53.13,672.52 53.18,672.75 53.26,672.96 53.36,673.17 53.49,673.35 53.65,673.52 53.83,673.67 54.03,673.79 54.03,678.03 53.70,678.03 53.70,678.03 53.40,678.03 53.11,678.00 52.83,677.96 52.54,677.91 52.27,677.85 52.00,677.77 51.73,677.68 51.47,677.58 51.22,677.46 50.97,677.33 50.73,677.19 50.50,677.04 50.28,676.88 50.06,676.71 49.85,676.53 49.65,676.34 49.47,676.14 49.29,675.93 49.12,675.72 48.96,675.49 48.81,675.26 48.67,675.02 48.55,674.77 48.43,674.51 48.33,674.25 48.24,673.99 48.17,673.72 48.10,673.44 48.05,673.16 48.02,672.87 48.00,672.58 47.99,672.28 48.00,671.99 48.02,671.70 48.06,671.41 48.11,671.13 48.18,670.85 48.25,670.58 48.35,670.32 48.45,670.06 48.56,669.80 48.69,669.56 48.83,669.32 48.98,669.08 49.14,668.86 49.31,668.64 49.49,668.44 49.68,668.24 49.88,668.05 50.09,667.87 50.31,667.70 50.53,667.54 50.77,667.39 51.01,667.26 51.26,667.13 51.51,667.02 51.77,666.92 52.04,666.83 52.31,666.75 52.59,666.69 52.87,666.64 53.16,666.60 53.45,666.58 53.74,666.58 54.00,666.58 54.27,666.60 54.53,666.63 54.79,666.68 55.04,666.73 55.30,666.80 55.55,666.87 55.80,666.96 55.98,666.60 56.17,666.25 56.38,665.92 56.61,665.60 56.85,665.29 57.10,665.00 57.37,664.72 57.64,664.46 57.93,664.21 58.23,663.98 58.54,663.76 58.86,663.56 59.19,663.37 59.52,663.20 59.87,663.05 60.22,662.91 60.57,662.79 60.93,662.69 61.30,662.60 61.67,662.53 62.04,662.48 62.42,662.45 62.80,662.43 63.18,662.44 63.56,662.46 63.94,662.50 64.33,662.57 64.71,662.65 65.09,662.75 65.46,662.87 65.84,663.01 66.21,663.17 66.51,663.32 66.81,663.48 67.10,663.66 67.38,663.84 67.65,664.04 67.91,664.25 68.16,664.47 68.41,664.70 68.64,664.94 68.86,665.19 69.07,665.45 69.27,665.72 69.46,666.00 69.64,666.29 69.81,666.58 69.96,666.88 70.41,666.75 70.87,666.66 71.34,666.61 71.80,666.59 72.10,666.59 72.39,666.62 72.68,666.65 72.96,666.70 73.24,666.77 73.51,666.84 73.78,666.93 74.04,667.04 74.29,667.15 74.54,667.28 74.78,667.42 75.01,667.57 75.24,667.73 75.46,667.90 75.66,668.08 75.86,668.27 76.05,668.47 76.24,668.68 76.41,668.89 76.57,669.12 76.72,669.35 76.85,669.59 76.98,669.84 77.10,670.09 77.20,670.36 77.29,670.62 77.37,670.90 77.43,671.17 77.48,671.46 77.52,671.74 77.54,672.04 77.55,672.33 77.54,672.63 77.52,672.92 77.48,673.21 77.43,673.49 77.37,673.77 77.29,674.04 77.20,674.31 77.10,674.57 76.98,674.82 76.85,675.07 76.72,675.31 76.57,675.54 76.41,675.77 76.24,675.99 76.05,676.19 75.86,676.39 75.66,676.58 75.46,676.76 75.24,676.94 75.01,677.10 74.78,677.24 74.54,677.38 74.29,677.51 74.04,677.62 73.78,677.73 73.51,677.82 73.24,677.90 72.96,677.96 72.68,678.01 72.39,678.05 72.10,678.07 71.80,678.08 71.43,678.08 71.43,673.78 71.43,673.78 71.58,673.70 71.72,673.59 71.84,673.48 71.96,673.36 72.05,673.22 72.14,673.08 72.21,672.93 72.27,672.78 72.31,672.62 72.33,672.46 72.34,672.29 72.34,672.13 72.32,671.96 72.28,671.80 72.22,671.63 72.15,671.47 72.06,671.32 71.96,671.19 71.84,671.06 71.72,670.95 71.59,670.85 71.45,670.76 71.30,670.69 71.14,670.64 70.98,670.60 70.82,670.57 70.66,670.56 70.49,670.57 70.32,670.59 70.16,670.63 70.00,670.68 69.84,670.76 69.69,670.84 69.55,670.95 69.42,671.06 69.31,671.18 69.21,671.32 69.13,671.46 69.06,671.61 69.00,671.76 68.96,671.92 68.93,672.08 68.92,672.25 68.93,672.41 68.95,672.58 68.99,672.74 69.05,672.91 69.12,673.07 69.25,673.29 69.42,673.48 69.62,673.65 69.84,673.78 69.84,678.03 63.51,678.03 63.51,678.03" fill="#4285f4" stroke="none" stroke-width="1" opacity="1.0" stroke-linecap="round" stroke-linejoin="round"/><polyline points="55.60,682.47 55.60,682.47 55.86,682.54 56.10,682.63 56.34,682.74 56.56,682.88 56.76,683.02 56.95,683.19 57.13,683.37 57.29,683.56 57.44,683.76 57.57,683.98 57.68,684.21 57.76,684.45 57.83,684.69 57.88,684.94 57.91,685.20 57.92,685.47 57.90,685.78 57.85,686.09 57.78,686.39 57.67,686.68 57.54,686.95 57.39,687.20 57.21,687.44 57.01,687.66 56.79,687.87 56.55,688.04 56.30,688.20 56.03,688.33 55.74,688.44 55.44,688.51 55.13,688.56 54.82,688.58 54.50,688.56 54.19,688.51 53.89,688.44 53.61,688.34 53.34,688.21 53.08,688.05 52.84,687.87 52.62,687.67 52.42,687.45 52.24,687.21 52.08,686.96 51.95,686.69 51.85,686.40 51.77,686.10 51.72,685.79 51.71,685.48 51.72,685.21 51.75,684.96 51.80,684.70 51.88,684.46 51.97,684.22 52.08,684.00 52.21,683.78 52.36,683.57 52.52,683.38 52.69,683.20 52.89,683.04 53.09,682.89 53.31,682.76 53.54,682.64 53.78,682.55 54.03,682.47 54.03,678.03 55.54,678.03 55.60,682.47 55.60,682.47" fill="#669df6" stroke="none" stroke-width="1" opacity="1.0" stroke-linecap="round" stroke-linejoin="round"/><polyline points="54.81,686.97 54.81,686.97 54.97,686.96 55.11,686.94 55.26,686.90 55.40,686.85 55.53,686.79 55.65,686.71 55.77,686.63 55.87,686.53 55.97,686.42 56.06,686.31 56.13,686.18 56.20,686.05 56.25,685.91 56.28,685.77 56.31,685.62 56.31,685.47 56.31,685.31 56.28,685.16 56.25,685.02 56.20,684.88 56.13,684.75 56.06,684.63 55.97,684.51 55.87,684.40 55.77,684.31 55.65,684.22 55.53,684.15 55.40,684.08 55.26,684.03 55.11,684.00 54.97,683.97 54.81,683.97 54.66,683.97 54.51,684.00 54.36,684.03 54.23,684.08 54.10,684.15 53.97,684.22 53.86,684.31 53.75,684.40 53.65,684.51 53.57,684.63 53.49,684.75 53.43,684.88 53.38,685.02 53.34,685.16 53.32,685.31 53.31,685.47 53.32,685.62 53.34,685.77 53.38,685.91 53.43,686.05 53.49,686.18 53.57,686.31 53.65,686.42 53.75,686.53 53.86,686.63 53.97,686.71 54.10,686.79 54.23,686.85 54.36,686.90 54.51,686.94 54.66,686.96 54.81,686.97 54.81,686.97" fill="#669df6" stroke="none" stroke-width="1" opacity="1.0" stroke-linecap="round" stroke-linejoin="round"/><polyline points="71.43,682.47 71.43,682.47 71.73,682.57 72.02,682.69 72.29,682.84 72.53,683.01 72.76,683.21 72.97,683.43 73.16,683.66 73.32,683.91 73.46,684.17 73.57,684.45 73.65,684.74 73.71,685.04 73.74,685.34 73.73,685.64 73.70,685.95 73.63,686.27 73.54,686.57 73.41,686.85 73.26,687.12 73.09,687.37 72.89,687.60 72.68,687.81 72.44,687.99 72.19,688.15 71.93,688.29 71.65,688.40 71.36,688.49 71.07,688.54 70.76,688.57 70.46,688.57 70.15,688.54 69.84,688.47 69.53,688.37 69.25,688.25 68.98,688.10 68.73,687.93 68.50,687.73 68.30,687.51 68.11,687.28 67.95,687.03 67.81,686.76 67.70,686.49 67.61,686.20 67.56,685.90 67.53,685.60 67.53,685.29 67.57,684.98 67.63,684.67 67.69,684.47 67.77,684.28 67.85,684.09 67.95,683.91 68.05,683.74 68.17,683.58 68.30,683.42 68.44,683.27 68.59,683.13 68.74,683.01 68.91,682.89 69.08,682.78 69.26,682.68 69.45,682.60 69.64,682.53 69.84,682.47 69.84,678.04 71.43,678.04 71.43,682.47 71.43,682.47" fill="#669df6" stroke="none" stroke-width="1" opacity="1.0" stroke-linecap="round" stroke-linejoin="round"/><polyline points="70.64,686.97 70.64,686.97 70.79,686.97 70.94,686.95 71.08,686.92 71.22,686.88 71.36,686.82 71.49,686.76 71.61,686.68 71.72,686.59 71.82,686.48 71.91,686.37 71.99,686.25 72.06,686.13 72.12,685.99 72.17,685.85 72.20,685.70 72.21,685.55 72.21,685.43 72.21,685.31 72.16,685.07 72.08,684.85 71.96,684.64 71.82,684.46 71.64,684.30 71.44,684.16 71.22,684.06 71.07,684.02 70.93,683.99 70.78,683.98 70.63,683.98 70.49,683.99 70.35,684.02 70.21,684.06 70.08,684.12 69.95,684.19 69.83,684.27 69.72,684.36 69.61,684.46 69.52,684.57 69.43,684.69 69.36,684.82 69.30,684.97 69.26,685.11 69.23,685.26 69.22,685.41 69.22,685.55 69.24,685.70 69.26,685.84 69.31,685.98 69.36,686.11 69.43,686.24 69.51,686.36 69.60,686.47 69.70,686.58 69.81,686.67 69.94,686.75 70.07,686.82 70.21,686.88 70.42,686.94 70.64,686.97 70.64,686.97" fill="#669df6" stroke="none" stroke-width="1" opacity="1.0" stroke-linecap="round" stroke-linejoin="round"/><polyline points="63.51,686.32 63.51,686.32 63.81,686.42 64.10,686.54 64.37,686.68 64.62,686.85 64.85,687.04 65.06,687.26 65.25,687.49 65.41,687.73 65.55,687.99 65.67,688.27 65.75,688.55 65.82,688.85 65.85,689.15 65.85,689.45 65.82,689.76 65.76,690.07 65.67,690.38 65.55,690.66 65.40,690.93 65.23,691.18 65.04,691.41 64.83,691.62 64.60,691.81 64.35,691.97 64.09,692.11 63.81,692.23 63.53,692.32 63.24,692.38 62.94,692.41 62.63,692.41 62.32,692.38 62.01,692.32 61.71,692.23 61.42,692.11 61.15,691.96 60.90,691.79 60.67,691.60 60.46,691.39 60.27,691.16 60.11,690.91 59.97,690.65 59.86,690.38 59.77,690.09 59.71,689.80 59.67,689.50 59.67,689.19 59.70,688.88 59.76,688.57 59.82,688.37 59.89,688.17 59.98,687.98 60.08,687.79 60.18,687.61 60.30,687.45 60.43,687.29 60.58,687.14 60.73,687.00 60.89,686.86 61.05,686.74 61.23,686.64 61.42,686.54 61.61,686.45 61.81,686.38 62.01,686.32 62.01,678.07 63.60,678.07 63.51,686.32 63.51,686.32" fill="#669df6" stroke="none" stroke-width="1" opacity="1.0" stroke-linecap="round" stroke-linejoin="round"/><polyline points="62.70,690.82 62.70,690.82 62.86,690.81 63.01,690.79 63.15,690.75 63.29,690.70 63.42,690.64 63.54,690.56 63.66,690.47 63.76,690.38 63.86,690.27 63.94,690.15 64.02,690.03 64.08,689.90 64.13,689.76 64.16,689.62 64.19,689.47 64.19,689.32 64.18,689.16 64.16,689.01 64.12,688.87 64.07,688.73 64.01,688.60 63.93,688.48 63.84,688.36 63.75,688.26 63.64,688.16 63.52,688.08 63.40,688.00 63.27,687.94 63.13,687.89 62.99,687.85 62.84,687.83 62.69,687.83 62.53,687.83 62.38,687.86 62.24,687.90 62.10,687.95 61.97,688.01 61.85,688.09 61.73,688.17 61.63,688.27 61.53,688.38 61.45,688.49 61.37,688.62 61.31,688.75 61.26,688.89 61.22,689.03 61.20,689.18 61.20,689.33 61.20,689.48 61.22,689.62 61.26,689.76 61.31,689.90 61.41,690.09 61.54,690.27 61.70,690.43 61.87,690.56 62.06,690.66 62.26,690.74 62.48,690.78 62.70,690.80 62.70,690.82 62.70,690.82" fill="#669df6" stroke="none" stroke-width="1" opacity="1.0" stroke-linecap="round" stroke-linejoin="round"/><polyline points="54.81,686.97 54.81,686.97 54.97,686.96 55.11,686.94 55.26,686.90 55.40,686.85 55.53,686.79 55.65,686.71 55.77,686.63 55.87,686.53 55.97,686.42 56.06,686.31 56.13,686.18 56.20,686.05 56.25,685.91 56.28,685.77 56.31,685.62 56.31,685.47 56.31,685.31 56.28,685.16 56.25,685.02 56.20,684.88 56.13,684.75 56.06,684.63 55.97,684.51 55.87,684.40 55.77,684.31 55.65,684.22 55.53,684.15 55.40,684.08 55.26,684.03 55.11,684.00 54.97,683.97 54.81,683.97 54.66,683.97 54.51,684.00 54.36,684.03 54.23,684.08 54.10,684.15 53.97,684.22 53.86,684.31 53.75,684.40 53.65,684.51 53.57,684.63 53.49,684.75 53.43,684.88 53.38,685.02 53.34,685.16 53.32,685.31 53.31,685.47 53.32,685.62 53.34,685.77 53.38,685.91 53.43,686.05 53.49,686.18 53.57,686.31 53.65,686.42 53.75,686.53 53.86,686.63 53.97,686.71 54.10,686.79 54.23,686.85 54.36,686.90 54.51,686.94 54.66,686.96 54.81,686.97 54.81,686.97" fill="#fff" stroke="none" stroke-width="1" opacity="1.0" stroke-linecap="round" stroke-linejoin="round"/><polyline points="70.64,686.97 70.64,686.97 70.79,686.97 70.94,686.95 71.08,686.92 71.22,686.88 71.36,686.82 71.49,686.76 71.61,686.68 71.72,686.59 71.82,686.48 71.91,686.37 71.99,686.25 72.06,686.13 72.12,685.99 72.17,685.85 72.20,685.70 72.21,685.55 72.21,685.43 72.21,685.31 72.16,685.07 72.08,684.85 71.96,684.64 71.82,684.46 71.64,684.30 71.44,684.16 71.22,684.06 71.07,684.02 70.93,683.99 70.78,683.98 70.63,683.98 70.49,683.99 70.35,684.02 70.21,684.06 70.08,684.12 69.95,684.19 69.83,684.27 69.72,684.36 69.61,684.46 69.52,684.57 69.43,684.69 69.36,684.82 69.30,684.97 69.26,685.11 69.23,685.26 69.22,685.41 69.22,685.55 69.24,685.70 69.26,685.84 69.31,685.98 69.36,686.11 69.43,686.24 69.51,686.36 69.60,686.47 69.70,686.58 69.81,686.67 69.94,686.75 70.07,686.82 70.21,686.88 70.42,686.94 70.64,686.97 70.64,686.97" fill="#fff" stroke="none" stroke-width="1" opacity="1.0" stroke-linecap="round" stroke-linejoin="round"/><polyline points="62.70,690.82 62.70,690.82 62.86,690.81 63.01,690.79 63.15,690.75 63.29,690.70 63.42,690.64 63.54,690.56 63.66,690.47 63.76,690.38 63.86,690.27 63.94,690.15 64.02,690.03 64.08,689.90 64.13,689.76 64.16,689.62 64.19,689.47 64.19,689.32 64.18,689.16 64.16,689.01 64.12,688.87 64.07,688.73 64.01,688.60 63.93,688.48 63.84,688.36 63.75,688.26 63.64,688.16 63.52,688.08 63.40,688.00 63.27,687.94 63.13,687.89 62.99,687.85 62.84,687.83 62.69,687.83 62.53,687.83 62.38,687.86 62.24,687.90 62.10,687.95 61.97,688.01 61.85,688.09 61.73,688.17 61.63,688.27 61.53,688.38 61.45,688.49 61.37,688.62 61.31,688.75 61.26,688.89 61.22,689.03 61.20,689.18 61.20,689.33 61.20,689.48 61.22,689.62 61.26,689.76 61.31,689.90 61.41,690.09 61.54,690.27 61.70,690.43 61.87,690.56 62.06,690.66 62.26,690.74 62.48,690.78 62.70,690.80 62.70,690.82 62.70,690.82" fill="#fff" stroke="none" stroke-width="1" opacity="1.0" stroke-linecap="round" stroke-linejoin="round"/><polyline points="55.60,678.01 55.60,673.78 55.60,673.78 55.76,673.70 55.89,673.59 56.02,673.48 56.13,673.36 56.23,673.23 56.32,673.08 56.39,672.94 56.44,672.78 56.49,672.62 56.51,672.46 56.52,672.30 56.52,672.13 56.50,671.97 56.46,671.80 56.40,671.64 56.33,671.48 56.21,671.28 56.06,671.10 55.89,670.94 55.70,670.81 55.50,670.70 55.28,670.63 55.05,670.58 54.81,670.56 54.64,670.57 54.47,670.60 54.30,670.64 54.15,670.70 54.00,670.78 53.86,670.86 53.73,670.96 53.61,671.07 53.50,671.20 53.40,671.33 53.31,671.47 53.24,671.62 53.19,671.78 53.15,671.94 53.12,672.11 53.11,672.29 53.13,672.52 53.18,672.75 53.26,672.96 53.36,673.17 53.49,673.35 53.65,673.52 53.83,673.67 54.03,673.79 54.03,678.03 55.60,678.01 55.60,678.01" fill="#fff" stroke="none" stroke-width="1" opacity="1.0" stroke-linecap="round" stroke-linejoin="round"/><polyline points="63.51,678.03 63.51,671.38 63.51,671.38 63.66,671.30 63.81,671.20 63.93,671.09 64.05,670.97 64.15,670.84 64.24,670.70 64.32,670.56 64.38,670.40 64.43,670.25 64.46,670.08 64.47,669.92 64.47,669.75 64.45,669.59 64.42,669.42 64.37,669.26 64.30,669.10 64.21,668.95 64.12,668.81 64.01,668.68 63.89,668.56 63.76,668.46 63.62,668.37 63.47,668.29 63.32,668.23 63.16,668.19 63.00,668.15 62.84,668.14 62.67,668.14 62.51,668.16 62.34,668.19 62.18,668.24 62.02,668.31 61.86,668.40 61.72,668.49 61.59,668.60 61.48,668.72 61.37,668.85 61.28,668.99 61.21,669.14 61.15,669.29 61.10,669.45 61.07,669.61 61.06,669.77 61.06,669.94 61.07,670.11 61.11,670.27 61.16,670.43 61.23,670.60 61.29,670.72 61.37,670.84 61.46,670.95 61.55,671.05 61.66,671.15 61.77,671.24 61.89,671.31 62.02,671.38 62.02,678.01 63.51,678.03 63.51,678.03" fill="#fff" stroke="none" stroke-width="1" opacity="1.0" stroke-linecap="round" stroke-linejoin="round"/><polyline points="71.43,678.07 71.43,673.78 71.43,673.78 71.58,673.69 71.72,673.59 71.84,673.48 71.96,673.35 72.05,673.22 72.14,673.08 72.21,672.93 72.27,672.77 72.31,672.61 72.33,672.45 72.34,672.29 72.34,672.12 72.32,671.95 72.28,671.79 72.22,671.63 72.15,671.47 72.06,671.32 71.96,671.18 71.84,671.05 71.72,670.94 71.59,670.84 71.45,670.76 71.30,670.69 71.14,670.63 70.98,670.59 70.82,670.57 70.66,670.55 70.49,670.56 70.32,670.58 70.16,670.62 70.00,670.68 69.84,670.75 69.69,670.84 69.55,670.94 69.42,671.05 69.31,671.18 69.21,671.31 69.13,671.45 69.06,671.60 69.00,671.76 68.96,671.91 68.93,672.08 68.92,672.24 68.93,672.41 68.95,672.57 68.99,672.74 69.05,672.90 69.12,673.06 69.25,673.28 69.42,673.48 69.62,673.64 69.84,673.78 69.84,678.02 71.43,678.07 71.43,678.07" fill="#fff" stroke="none" stroke-width="1" opacity="1.0" stroke-linecap="round" stroke-linejoin="round"/></svg>