<svg version="1.1" xmlns="http://www.w3.org/2000/svg" viewBox="0 0 194.12121363119618 224.6812129779293" width="194.12121363119618" height="224.6812129779293">
  <!-- svg-source:excalidraw -->
  
  <defs>
    
    
  </defs>
  <g stroke-linecap="round"><g transform="translate(165.35605236109055 127.47485214449347) rotate(0 -45.53029974414579 22.76514824378245)" fill-rule="evenodd"><path d="M0 0 L-66.11 0 L-66.11 0 L-75.63 1.2 L-83.55 5.94 L-88.99 13.4 L-91.06 22.77 L-89.07 32.19 L-83.64 39.69 L-75.68 44.41 L-66.11 45.53 L0 45.53 L0 0" stroke="none" stroke-width="0" fill="#669df6" fill-rule="evenodd"></path><path d="M0 0 C-23.49 0, -46.99 0, -66.11 0 M0 0 C-15.92 0, -31.84 0, -66.11 0 M-66.11 0 C-66.11 0, -66.11 0, -66.11 0 M-66.11 0 C-66.11 0, -66.11 0, -66.11 0 M-66.11 0 C-68.83 0.34, -71.55 0.69, -75.63 1.2 M-66.11 0 C-69.38 0.41, -72.65 0.83, -75.63 1.2 M-75.63 1.2 C-77.77 2.48, -79.92 3.77, -83.55 5.94 M-75.63 1.2 C-78.35 2.83, -81.08 4.46, -83.55 5.94 M-83.55 5.94 C-85.47 8.57, -87.39 11.21, -88.99 13.4 M-83.55 5.94 C-85.48 8.59, -87.41 11.23, -88.99 13.4 M-88.99 13.4 C-89.45 15.47, -89.91 17.55, -91.06 22.77 M-88.99 13.4 C-89.5 15.69, -90.01 17.99, -91.06 22.77 M-91.06 22.77 C-90.34 26.17, -89.63 29.57, -89.07 32.19 M-91.06 22.77 C-90.51 25.38, -89.96 27.99, -89.07 32.19 M-89.07 32.19 C-87.73 34.05, -86.38 35.91, -83.64 39.69 M-89.07 32.19 C-87.12 34.89, -85.16 37.59, -83.64 39.69 M-83.64 39.69 C-81.65 40.87, -79.65 42.05, -75.68 44.41 M-83.64 39.69 C-82.03 40.64, -80.43 41.59, -75.68 44.41 M-75.68 44.41 C-73.56 44.66, -71.45 44.91, -66.11 45.53 M-75.68 44.41 C-72.21 44.82, -68.74 45.22, -66.11 45.53 M-66.11 45.53 C-39.81 45.53, -13.52 45.53, 0 45.53 M-66.11 45.53 C-52.36 45.53, -38.6 45.53, 0 45.53 M0 45.53 C0 27.42, 0 9.31, 0 0 M0 45.53 C0 28.97, 0 12.42, 0 0 M0 0 C0 0, 0 0, 0 0 M0 0 C0 0, 0 0, 0 0" stroke="#000000" stroke-width="1" fill="none"></path></g></g><mask></mask><g stroke-linecap="round" transform="translate(142.5909106304695 127.47485214449347) rotate(0 22.765151500363345 22.765151500363338)"><path d="M45.53 22.77 C45.53 24.08, 45.41 25.42, 45.18 26.72 C44.96 28.02, 44.61 29.31, 44.16 30.55 C43.71 31.79, 43.14 33.01, 42.48 34.15 C41.82 35.29, 41.05 36.39, 40.2 37.4 C39.36 38.41, 38.41 39.36, 37.4 40.2 C36.39 41.05, 35.29 41.82, 34.15 42.48 C33.01 43.14, 31.79 43.71, 30.55 44.16 C29.31 44.61, 28.02 44.96, 26.72 45.18 C25.42 45.41, 24.08 45.53, 22.77 45.53 C21.45 45.53, 20.11 45.41, 18.81 45.18 C17.51 44.96, 16.22 44.61, 14.98 44.16 C13.74 43.71, 12.52 43.14, 11.38 42.48 C10.24 41.82, 9.14 41.05, 8.13 40.2 C7.12 39.36, 6.17 38.41, 5.33 37.4 C4.48 36.39, 3.71 35.29, 3.05 34.15 C2.39 33.01, 1.82 31.79, 1.37 30.55 C0.92 29.31, 0.57 28.02, 0.35 26.72 C0.12 25.42, 0 24.08, 0 22.77 C0 21.45, 0.12 20.11, 0.35 18.81 C0.57 17.51, 0.92 16.22, 1.37 14.98 C1.82 13.74, 2.39 12.52, 3.05 11.38 C3.71 10.24, 4.48 9.14, 5.33 8.13 C6.17 7.12, 7.12 6.17, 8.13 5.33 C9.14 4.48, 10.24 3.71, 11.38 3.05 C12.52 2.39, 13.74 1.82, 14.98 1.37 C16.22 0.92, 17.51 0.57, 18.81 0.35 C20.11 0.12, 21.45 0, 22.77 0 C24.08 0, 25.42 0.12, 26.72 0.35 C28.02 0.57, 29.31 0.92, 30.55 1.37 C31.79 1.82, 33.01 2.39, 34.15 3.05 C35.29 3.71, 36.39 4.48, 37.4 5.33 C38.41 6.17, 39.36 7.12, 40.2 8.13 C41.05 9.14, 41.82 10.24, 42.48 11.38 C43.14 12.52, 43.71 13.74, 44.16 14.98 C44.61 16.22, 44.96 17.51, 45.18 18.81 C45.41 20.11, 45.47 22.11, 45.53 22.77 C45.59 23.42, 45.59 22.11, 45.53 22.77" stroke="none" stroke-width="0" fill="#4285f4"></path><path d="M45.53 22.77 C45.53 24.08, 45.41 25.42, 45.18 26.72 C44.96 28.02, 44.61 29.31, 44.16 30.55 C43.71 31.79, 43.14 33.01, 42.48 34.15 C41.82 35.29, 41.05 36.39, 40.2 37.4 C39.36 38.41, 38.41 39.36, 37.4 40.2 C36.39 41.05, 35.29 41.82, 34.15 42.48 C33.01 43.14, 31.79 43.71, 30.55 44.16 C29.31 44.61, 28.02 44.96, 26.72 45.18 C25.42 45.41, 24.08 45.53, 22.77 45.53 C21.45 45.53, 20.11 45.41, 18.81 45.18 C17.51 44.96, 16.22 44.61, 14.98 44.16 C13.74 43.71, 12.52 43.14, 11.38 42.48 C10.24 41.82, 9.14 41.05, 8.13 40.2 C7.12 39.36, 6.17 38.41, 5.33 37.4 C4.48 36.39, 3.71 35.29, 3.05 34.15 C2.39 33.01, 1.82 31.79, 1.37 30.55 C0.92 29.31, 0.57 28.02, 0.35 26.72 C0.12 25.42, 0 24.08, 0 22.77 C0 21.45, 0.12 20.11, 0.35 18.81 C0.57 17.51, 0.92 16.22, 1.37 14.98 C1.82 13.74, 2.39 12.52, 3.05 11.38 C3.71 10.24, 4.48 9.14, 5.33 8.13 C6.17 7.12, 7.12 6.17, 8.13 5.33 C9.14 4.48, 10.24 3.71, 11.38 3.05 C12.52 2.39, 13.74 1.82, 14.98 1.37 C16.22 0.92, 17.51 0.57, 18.81 0.35 C20.11 0.12, 21.45 0, 22.77 0 C24.08 0, 25.42 0.12, 26.72 0.35 C28.02 0.57, 29.31 0.92, 30.55 1.37 C31.79 1.82, 33.01 2.39, 34.15 3.05 C35.29 3.71, 36.39 4.48, 37.4 5.33 C38.41 6.17, 39.36 7.12, 40.2 8.13 C41.05 9.14, 41.82 10.24, 42.48 11.38 C43.14 12.52, 43.71 13.74, 44.16 14.98 C44.61 16.22, 44.96 17.51, 45.18 18.81 C45.41 20.11, 45.47 22.11, 45.53 22.77 C45.59 23.42, 45.59 22.11, 45.53 22.77" stroke="#000000" stroke-width="1" fill="none"></path></g><g stroke-linecap="round"><g transform="translate(97.06060111658203 66.73742362981164) rotate(0 -45.53030055829102 22.765151500363338)" fill-rule="evenodd"><path d="M0 0 L-66.11 0 L-66.11 0 L-75.63 1.2 L-83.55 5.94 L-88.99 13.4 L-91.06 22.77 L-89.07 32.19 L-83.64 39.69 L-75.68 44.41 L-66.11 45.53 L0 45.53 L0 0" stroke="none" stroke-width="0" fill="#669df6" fill-rule="evenodd"></path><path d="M0 0 C-15.96 0, -31.92 0, -66.11 0 M0 0 C-26.11 0, -52.23 0, -66.11 0 M-66.11 0 C-66.11 0, -66.11 0, -66.11 0 M-66.11 0 C-66.11 0, -66.11 0, -66.11 0 M-66.11 0 C-69.28 0.4, -72.45 0.8, -75.63 1.2 M-66.11 0 C-68.83 0.34, -71.55 0.69, -75.63 1.2 M-75.63 1.2 C-78.25 2.77, -80.86 4.33, -83.55 5.94 M-75.63 1.2 C-78.12 2.69, -80.61 4.18, -83.55 5.94 M-83.55 5.94 C-84.83 7.7, -86.12 9.45, -88.99 13.4 M-83.55 5.94 C-84.65 7.45, -85.76 8.96, -88.99 13.4 M-88.99 13.4 C-89.69 16.57, -90.39 19.75, -91.06 22.77 M-88.99 13.4 C-89.54 15.89, -90.09 18.37, -91.06 22.77 M-91.06 22.77 C-90.56 25.16, -90.05 27.56, -89.07 32.19 M-91.06 22.77 C-90.59 24.98, -90.13 27.19, -89.07 32.19 M-89.07 32.19 C-87.89 33.82, -86.71 35.45, -83.64 39.69 M-89.07 32.19 C-87.94 33.76, -86.8 35.33, -83.64 39.69 M-83.64 39.69 C-81.41 41.01, -79.17 42.34, -75.68 44.41 M-83.64 39.69 C-81.17 41.15, -78.71 42.61, -75.68 44.41 M-75.68 44.41 C-73.65 44.65, -71.61 44.89, -66.11 45.53 M-75.68 44.41 C-73.47 44.67, -71.27 44.93, -66.11 45.53 M-66.11 45.53 C-46.81 45.53, -27.51 45.53, 0 45.53 M-66.11 45.53 C-46.66 45.53, -27.22 45.53, 0 45.53 M0 45.53 C0 36.1, 0 26.67, 0 0 M0 45.53 C0 36.28, 0 27.02, 0 0 M0 0 C0 0, 0 0, 0 0 M0 0 C0 0, 0 0, 0 0" stroke="#000000" stroke-width="1" fill="none"></path></g></g><mask></mask><g stroke-linecap="round" transform="translate(74.2954528727993 66.73742362981164) rotate(0 22.765151500363345 22.765151500363338)"><path d="M45.53 22.77 C45.53 24.08, 45.41 25.42, 45.18 26.72 C44.96 28.02, 44.61 29.31, 44.16 30.55 C43.71 31.79, 43.14 33.01, 42.48 34.15 C41.82 35.29, 41.05 36.39, 40.2 37.4 C39.36 38.41, 38.41 39.36, 37.4 40.2 C36.39 41.05, 35.29 41.82, 34.15 42.48 C33.01 43.14, 31.79 43.71, 30.55 44.16 C29.31 44.61, 28.02 44.96, 26.72 45.18 C25.42 45.41, 24.08 45.53, 22.77 45.53 C21.45 45.53, 20.11 45.41, 18.81 45.18 C17.51 44.96, 16.22 44.61, 14.98 44.16 C13.74 43.71, 12.52 43.14, 11.38 42.48 C10.24 41.82, 9.14 41.05, 8.13 40.2 C7.12 39.36, 6.17 38.41, 5.33 37.4 C4.48 36.39, 3.71 35.29, 3.05 34.15 C2.39 33.01, 1.82 31.79, 1.37 30.55 C0.92 29.31, 0.57 28.02, 0.35 26.72 C0.12 25.42, 0 24.08, 0 22.77 C0 21.45, 0.12 20.11, 0.35 18.81 C0.57 17.51, 0.92 16.22, 1.37 14.98 C1.82 13.74, 2.39 12.52, 3.05 11.38 C3.71 10.24, 4.48 9.14, 5.33 8.13 C6.17 7.12, 7.12 6.17, 8.13 5.33 C9.14 4.48, 10.24 3.71, 11.38 3.05 C12.52 2.39, 13.74 1.82, 14.98 1.37 C16.22 0.92, 17.51 0.57, 18.81 0.35 C20.11 0.12, 21.45 0, 22.77 0 C24.08 0, 25.42 0.12, 26.72 0.35 C28.02 0.57, 29.31 0.92, 30.55 1.37 C31.79 1.82, 33.01 2.39, 34.15 3.05 C35.29 3.71, 36.39 4.48, 37.4 5.33 C38.41 6.17, 39.36 7.12, 40.2 8.13 C41.05 9.14, 41.82 10.24, 42.48 11.38 C43.14 12.52, 43.71 13.74, 44.16 14.98 C44.61 16.22, 44.96 17.51, 45.18 18.81 C45.41 20.11, 45.47 22.11, 45.53 22.77 C45.59 23.42, 45.59 22.11, 45.53 22.77" stroke="none" stroke-width="0" fill="#4285f4"></path><path d="M45.53 22.77 C45.53 24.08, 45.41 25.42, 45.18 26.72 C44.96 28.02, 44.61 29.31, 44.16 30.55 C43.71 31.79, 43.14 33.01, 42.48 34.15 C41.82 35.29, 41.05 36.39, 40.2 37.4 C39.36 38.41, 38.41 39.36, 37.4 40.2 C36.39 41.05, 35.29 41.82, 34.15 42.48 C33.01 43.14, 31.79 43.71, 30.55 44.16 C29.31 44.61, 28.02 44.96, 26.72 45.18 C25.42 45.41, 24.08 45.53, 22.77 45.53 C21.45 45.53, 20.11 45.41, 18.81 45.18 C17.51 44.96, 16.22 44.61, 14.98 44.16 C13.74 43.71, 12.52 43.14, 11.38 42.48 C10.24 41.82, 9.14 41.05, 8.13 40.2 C7.12 39.36, 6.17 38.41, 5.33 37.4 C4.48 36.39, 3.71 35.29, 3.05 34.15 C2.39 33.01, 1.82 31.79, 1.37 30.55 C0.92 29.31, 0.57 28.02, 0.35 26.72 C0.12 25.42, 0 24.08, 0 22.77 C0 21.45, 0.12 20.11, 0.35 18.81 C0.57 17.51, 0.92 16.22, 1.37 14.98 C1.82 13.74, 2.39 12.52, 3.05 11.38 C3.71 10.24, 4.48 9.14, 5.33 8.13 C6.17 7.12, 7.12 6.17, 8.13 5.33 C9.14 4.48, 10.24 3.71, 11.38 3.05 C12.52 2.39, 13.74 1.82, 14.98 1.37 C16.22 0.92, 17.51 0.57, 18.81 0.35 C20.11 0.12, 21.45 0, 22.77 0 C24.08 0, 25.42 0.12, 26.72 0.35 C28.02 0.57, 29.31 0.92, 30.55 1.37 C31.79 1.82, 33.01 2.39, 34.15 3.05 C35.29 3.71, 36.39 4.48, 37.4 5.33 C38.41 6.17, 39.36 7.12, 40.2 8.13 C41.05 9.14, 41.82 10.24, 42.48 11.38 C43.14 12.52, 43.71 13.74, 44.16 14.98 C44.61 16.22, 44.96 17.51, 45.18 18.81 C45.41 20.11, 45.47 22.11, 45.53 22.77 C45.59 23.42, 45.59 22.11, 45.53 22.77" stroke="#000000" stroke-width="1" fill="none"></path></g><g stroke-linecap="round"><g transform="translate(165.35605236109055 6) rotate(0 -45.53029974414579 22.765152314508555)" fill-rule="evenodd"><path d="M0 0 L-66.11 0 L-66.11 0 L-75.61 1.23 L-83.52 5.97 L-88.97 13.42 L-91.06 22.77 L-89.07 32.19 L-83.64 39.69 L-75.68 44.41 L-66.11 45.53 L0 45.53 L0 0" stroke="none" stroke-width="0" fill="#669df6" fill-rule="evenodd"></path><path d="M0 0 C-22.05 0, -44.11 0, -66.11 0 M0 0 C-25.42 0, -50.83 0, -66.11 0 M-66.11 0 C-66.11 0, -66.11 0, -66.11 0 M-66.11 0 C-66.11 0, -66.11 0, -66.11 0 M-66.11 0 C-68.43 0.3, -70.76 0.6, -75.61 1.23 M-66.11 0 C-69.6 0.45, -73.09 0.9, -75.61 1.23 M-75.61 1.23 C-78.23 2.8, -80.86 4.37, -83.52 5.97 M-75.61 1.23 C-78.38 2.89, -81.15 4.55, -83.52 5.97 M-83.52 5.97 C-85.32 8.44, -87.13 10.9, -88.97 13.42 M-83.52 5.97 C-84.94 7.91, -86.36 9.85, -88.97 13.42 M-88.97 13.42 C-89.56 16.05, -90.15 18.69, -91.06 22.77 M-88.97 13.42 C-89.73 16.82, -90.49 20.21, -91.06 22.77 M-91.06 22.77 C-90.32 26.29, -89.57 29.82, -89.07 32.19 M-91.06 22.77 C-90.54 25.25, -90.02 27.73, -89.07 32.19 M-89.07 32.19 C-87.18 34.81, -85.28 37.42, -83.64 39.69 M-89.07 32.19 C-87.16 34.83, -85.25 37.47, -83.64 39.69 M-83.64 39.69 C-80.52 41.54, -77.4 43.39, -75.68 44.41 M-83.64 39.69 C-80.72 41.42, -77.81 43.15, -75.68 44.41 M-75.68 44.41 C-72.51 44.78, -69.34 45.15, -66.11 45.53 M-75.68 44.41 C-73.41 44.68, -71.14 44.94, -66.11 45.53 M-66.11 45.53 C-43.9 45.53, -21.69 45.53, 0 45.53 M-66.11 45.53 C-49.77 45.53, -33.42 45.53, 0 45.53 M0 45.53 C0 31.35, 0 17.17, 0 0 M0 45.53 C0 32.8, 0 20.06, 0 0 M0 0 C0 0, 0 0, 0 0 M0 0 C0 0, 0 0, 0 0" stroke="#000000" stroke-width="1" fill="none"></path></g></g><mask></mask><g stroke-linecap="round" transform="translate(142.5909106304695 6) rotate(0 22.765151500363345 22.765151500363338)"><path d="M45.53 22.77 C45.53 24.08, 45.41 25.42, 45.18 26.72 C44.96 28.02, 44.61 29.31, 44.16 30.55 C43.71 31.79, 43.14 33.01, 42.48 34.15 C41.82 35.29, 41.05 36.39, 40.2 37.4 C39.36 38.41, 38.41 39.36, 37.4 40.2 C36.39 41.05, 35.29 41.82, 34.15 42.48 C33.01 43.14, 31.79 43.71, 30.55 44.16 C29.31 44.61, 28.02 44.96, 26.72 45.18 C25.42 45.41, 24.08 45.53, 22.77 45.53 C21.45 45.53, 20.11 45.41, 18.81 45.18 C17.51 44.96, 16.22 44.61, 14.98 44.16 C13.74 43.71, 12.52 43.14, 11.38 42.48 C10.24 41.82, 9.14 41.05, 8.13 40.2 C7.12 39.36, 6.17 38.41, 5.33 37.4 C4.48 36.39, 3.71 35.29, 3.05 34.15 C2.39 33.01, 1.82 31.79, 1.37 30.55 C0.92 29.31, 0.57 28.02, 0.35 26.72 C0.12 25.42, 0 24.08, 0 22.77 C0 21.45, 0.12 20.11, 0.35 18.81 C0.57 17.51, 0.92 16.22, 1.37 14.98 C1.82 13.74, 2.39 12.52, 3.05 11.38 C3.71 10.24, 4.48 9.14, 5.33 8.13 C6.17 7.12, 7.12 6.17, 8.13 5.33 C9.14 4.48, 10.24 3.71, 11.38 3.05 C12.52 2.39, 13.74 1.82, 14.98 1.37 C16.22 0.92, 17.51 0.57, 18.81 0.35 C20.11 0.12, 21.45 0, 22.77 0 C24.08 0, 25.42 0.12, 26.72 0.35 C28.02 0.57, 29.31 0.92, 30.55 1.37 C31.79 1.82, 33.01 2.39, 34.15 3.05 C35.29 3.71, 36.39 4.48, 37.4 5.33 C38.41 6.17, 39.36 7.12, 40.2 8.13 C41.05 9.14, 41.82 10.24, 42.48 11.38 C43.14 12.52, 43.71 13.74, 44.16 14.98 C44.61 16.22, 44.96 17.51, 45.18 18.81 C45.41 20.11, 45.47 22.11, 45.53 22.77 C45.59 23.42, 45.59 22.11, 45.53 22.77" stroke="none" stroke-width="0" fill="#4285f4"></path><path d="M45.53 22.77 C45.53 24.08, 45.41 25.42, 45.18 26.72 C44.96 28.02, 44.61 29.31, 44.16 30.55 C43.71 31.79, 43.14 33.01, 42.48 34.15 C41.82 35.29, 41.05 36.39, 40.2 37.4 C39.36 38.41, 38.41 39.36, 37.4 40.2 C36.39 41.05, 35.29 41.82, 34.15 42.48 C33.01 43.14, 31.79 43.71, 30.55 44.16 C29.31 44.61, 28.02 44.96, 26.72 45.18 C25.42 45.41, 24.08 45.53, 22.77 45.53 C21.45 45.53, 20.11 45.41, 18.81 45.18 C17.51 44.96, 16.22 44.61, 14.98 44.16 C13.74 43.71, 12.52 43.14, 11.38 42.48 C10.24 41.82, 9.14 41.05, 8.13 40.2 C7.12 39.36, 6.17 38.41, 5.33 37.4 C4.48 36.39, 3.71 35.29, 3.05 34.15 C2.39 33.01, 1.82 31.79, 1.37 30.55 C0.92 29.31, 0.57 28.02, 0.35 26.72 C0.12 25.42, 0 24.08, 0 22.77 C0 21.45, 0.12 20.11, 0.35 18.81 C0.57 17.51, 0.92 16.22, 1.37 14.98 C1.82 13.74, 2.39 12.52, 3.05 11.38 C3.71 10.24, 4.48 9.14, 5.33 8.13 C6.17 7.12, 7.12 6.17, 8.13 5.33 C9.14 4.48, 10.24 3.71, 11.38 3.05 C12.52 2.39, 13.74 1.82, 14.98 1.37 C16.22 0.92, 17.51 0.57, 18.81 0.35 C20.11 0.12, 21.45 0, 22.77 0 C24.08 0, 25.42 0.12, 26.72 0.35 C28.02 0.57, 29.31 0.92, 30.55 1.37 C31.79 1.82, 33.01 2.39, 34.15 3.05 C35.29 3.71, 36.39 4.48, 37.4 5.33 C38.41 6.17, 39.36 7.12, 40.2 8.13 C41.05 9.14, 41.82 10.24, 42.48 11.38 C43.14 12.52, 43.71 13.74, 44.16 14.98 C44.61 16.22, 44.96 17.51, 45.18 18.81 C45.41 20.11, 45.47 22.11, 45.53 22.77 C45.59 23.42, 45.59 22.11, 45.53 22.77" stroke="#000000" stroke-width="1" fill="none"></path></g><g transform="translate(8.969697724689155 180.6812129779293) rotate(0 88 19)"><text x="0" y="0" font-family="Helvetica, Segoe UI Emoji" font-size="33.4285714285714px" fill="#000000" text-anchor="start" style="white-space: pre;" direction="ltr" dominant-baseline="text-before-edge">Data Studio</text></g></svg>