<svg version="1.1" xmlns="http://www.w3.org/2000/svg" viewBox="0 0 188.21433714376315 276.9594993900546" width="188.21433714376315" height="276.9594993900546">
  <!-- svg-source:excalidraw -->
  
  <defs>
    
    
  </defs>
  <g stroke-linecap="round"><g transform="translate(92.92436666698325 186.96241617514568) rotate(0 -0.00001043053487137513 -28.90718412277772)" fill-rule="evenodd"><path d="M0 0 L-86.92 -43.34 L-43.46 -57.81 L0 -14.35 L43.46 -57.81 L86.92 -43.34 L0 0 L0 0" stroke="none" stroke-width="0" fill="#4285f4" fill-rule="evenodd"></path><path d="M0 0 C-31.75 -15.83, -63.5 -31.66, -86.92 -43.34 M0 0 C-30.21 -15.06, -60.42 -30.12, -86.92 -43.34 M-86.92 -43.34 C-77.06 -46.62, -67.2 -49.91, -43.46 -57.81 M-86.92 -43.34 C-71.21 -48.57, -55.5 -53.81, -43.46 -57.81 M-43.46 -57.81 C-33.88 -48.23, -24.29 -38.65, 0 -14.35 M-43.46 -57.81 C-34.65 -49.01, -25.85 -40.2, 0 -14.35 M0 -14.35 C16.37 -30.72, 32.74 -47.1, 43.46 -57.81 M0 -14.35 C17.23 -31.58, 34.46 -48.81, 43.46 -57.81 M43.46 -57.81 C58.69 -52.74, 73.91 -47.67, 86.92 -43.34 M43.46 -57.81 C60.12 -52.26, 76.79 -46.71, 86.92 -43.34 M86.92 -43.34 C59.36 -29.6, 31.8 -15.86, 0 0 M86.92 -43.34 C63.27 -31.54, 39.62 -19.75, 0 0 M0 0 C0 0, 0 0, 0 0 M0 0 C0 0, 0 0, 0 0 M0 0 C0 0, 0 0, 0 0 M0 0 C0 0, 0 0, 0 0" stroke="#000000" stroke-width="1" fill="none"></path></g></g><mask></mask><g stroke-linecap="round"><g transform="translate(92.92436666698438 6) rotate(0 -0.015611530431016263 72.43176366043373)" fill-rule="evenodd"><path d="M0 0 L72.42 72.42 L0 144.86 L-72.45 72.42 L0 0 L0 0" stroke="none" stroke-width="0" fill="#4285f4" fill-rule="evenodd"></path><path d="M0 0 C20.62 20.62, 41.24 41.24, 72.42 72.42 M0 0 C25.63 25.63, 51.26 51.26, 72.42 72.42 M72.42 72.42 C49.64 95.2, 26.87 117.98, 0 144.86 M72.42 72.42 C47.18 97.66, 21.95 122.9, 0 144.86 M0 144.86 C-18.07 126.8, -36.14 108.73, -72.45 72.42 M0 144.86 C-20.17 124.69, -40.34 104.52, -72.45 72.42 M-72.45 72.42 C-51.86 51.84, -31.28 31.26, 0 0 M-72.45 72.42 C-54.33 54.31, -36.22 36.21, 0 0 M0 0 C0 0, 0 0, 0 0 M0 0 C0 0, 0 0, 0 0 M0 0 C0 0, 0 0, 0 0 M0 0 C0 0, 0 0, 0 0" stroke="#000000" stroke-width="1" fill="none"></path></g></g><mask></mask><g stroke-linecap="round"><g transform="translate(92.92436666698234 20.476993711232808) rotate(0 -0.03121263032713273 57.9391695943427)" fill-rule="evenodd"><path d="M0 0 L-57.97 57.94 L-0.03 115.88 L57.91 57.94 L0 0 L0 0" stroke="none" stroke-width="0" fill="#4285f4" fill-rule="evenodd"></path><path d="M0 0 C-17.96 17.95, -35.93 35.91, -57.97 57.94 M0 0 C-15.41 15.4, -30.83 30.81, -57.97 57.94 M-57.97 57.94 C-35.21 80.7, -12.44 103.46, -0.03 115.88 M-57.97 57.94 C-45.09 70.82, -32.2 83.7, -0.03 115.88 M-0.03 115.88 C14.26 101.59, 28.55 87.29, 57.91 57.94 M-0.03 115.88 C16.77 99.08, 33.57 82.28, 57.91 57.94 M57.91 57.94 C37.61 37.63, 17.31 17.32, 0 0 M57.91 57.94 C43.77 43.79, 29.63 29.64, 0 0 M0 0 C0 0, 0 0, 0 0 M0 0 C0 0, 0 0, 0 0 M0 0 C0 0, 0 0, 0 0 M0 0 C0 0, 0 0, 0 0" stroke="#000000" stroke-width="1" fill="none"></path></g></g><mask></mask><g stroke-linecap="round"><g transform="translate(92.92436666698234 20.476993711232808) rotate(0 -0.03121263032713273 57.9391695943427)" fill-rule="evenodd"><path d="M0 0 L-57.97 57.94 L-0.03 115.88 L57.91 57.94 L0 0 L0 0" stroke="none" stroke-width="0" fill="#fff" fill-rule="evenodd"></path><path d="M0 0 C-23.03 23.02, -46.07 46.04, -57.97 57.94 M0 0 C-18.09 18.08, -36.18 36.16, -57.97 57.94 M-57.97 57.94 C-41.98 73.93, -25.98 89.93, -0.03 115.88 M-57.97 57.94 C-39.17 76.74, -20.37 95.54, -0.03 115.88 M-0.03 115.88 C17.39 98.46, 34.81 81.03, 57.91 57.94 M-0.03 115.88 C15.63 100.21, 31.3 84.55, 57.91 57.94 M57.91 57.94 C40.16 40.18, 22.41 22.42, 0 0 M57.91 57.94 C41.01 41.03, 24.11 24.12, 0 0 M0 0 C0 0, 0 0, 0 0 M0 0 C0 0, 0 0, 0 0 M0 0 C0 0, 0 0, 0 0 M0 0 C0 0, 0 0, 0 0" stroke="#000000" stroke-width="1" fill="none"></path></g></g><mask></mask><g stroke-linecap="round"><g transform="translate(158.97565075387445 100.16285532718041) rotate(0 -66.06689561732134 39.811730098257314)" fill-rule="evenodd"><path d="M0 0 L6.36 6.4 L-66.08 79.65 L-138.5 6.36 L-132.13 -0.03 L-126.08 6.05 L-126.67 6.65 L-66.05 66.36 L-5.43 6.65 L-6.05 6.05 L0 0 L0 0" stroke="none" stroke-width="0" fill="#4285f4" fill-rule="evenodd"></path><path d="M0 0 C1.33 1.33, 2.65 2.67, 6.36 6.4 M0 0 C1.49 1.5, 2.99 3, 6.36 6.4 M6.36 6.4 C-11.47 24.43, -29.3 42.46, -66.08 79.65 M6.36 6.4 C-20.87 33.94, -48.1 61.47, -66.08 79.65 M-66.08 79.65 C-92.6 52.82, -119.11 25.98, -138.5 6.36 M-66.08 79.65 C-80.85 64.71, -95.62 49.76, -138.5 6.36 M-138.5 6.36 C-136.31 4.17, -134.13 1.98, -132.13 -0.03 M-138.5 6.36 C-136.29 4.14, -134.08 1.92, -132.13 -0.03 M-132.13 -0.03 C-130.12 1.99, -128.11 4.01, -126.08 6.05 M-132.13 -0.03 C-130.36 1.75, -128.59 3.53, -126.08 6.05 M-126.08 6.05 C-126.3 6.27, -126.51 6.49, -126.67 6.65 M-126.08 6.05 C-126.28 6.25, -126.48 6.46, -126.67 6.65 M-126.67 6.65 C-105.5 27.5, -84.33 48.36, -66.05 66.36 M-126.67 6.65 C-111.36 21.73, -96.05 36.81, -66.05 66.36 M-66.05 66.36 C-44.15 44.79, -22.26 23.22, -5.43 6.65 M-66.05 66.36 C-53.16 53.67, -40.28 40.97, -5.43 6.65 M-5.43 6.65 C-5.58 6.5, -5.74 6.35, -6.05 6.05 M-5.43 6.65 C-5.6 6.48, -5.77 6.32, -6.05 6.05 M-6.05 6.05 C-4.15 4.15, -2.24 2.24, 0 0 M-6.05 6.05 C-4.16 4.16, -2.27 2.27, 0 0 M0 0 C0 0, 0 0, 0 0 M0 0 C0 0, 0 0, 0 0 M0 0 C0 0, 0 0, 0 0 M0 0 C0 0, 0 0, 0 0" stroke="#000000" stroke-width="1" fill="none"></path></g></g><mask></mask><g transform="translate(8.214337143763146 186.9594993900546) rotate(0 87 42)"><text x="87" y="0" font-family="Helvetica, Segoe UI Emoji" font-size="35.99999999999998px" fill="#000000" text-anchor="middle" style="white-space: pre;" direction="ltr" dominant-baseline="text-before-edge">Bare Metal</text><text x="87" y="42" font-family="Helvetica, Segoe UI Emoji" font-size="35.99999999999998px" fill="#000000" text-anchor="middle" style="white-space: pre;" direction="ltr" dominant-baseline="text-before-edge">Solution</text></g></svg>