<svg version="1.1" xmlns="http://www.w3.org/2000/svg" viewBox="0 0 135.90698680112018 99.9970642112587" width="135.90698680112018" height="99.9970642112587">
  <!-- svg-source:excalidraw -->
  
  <defs>
    
    
  </defs>
  <g stroke-linecap="round"><g transform="translate(129.90698680112018 13.5686485272077) rotate(0 -12.279641594685245 36.79894890583728)" fill-rule="evenodd"><path d="M-1.12 -0.75 L-1.95 72.46 L-22.72 55.17 L-24.86 18.4 L1.43 -0.33" stroke="none" stroke-width="0" fill="#4285f4" fill-rule="evenodd"></path><path d="M0 0 C-1.12 26.57, -0.9 50.26, -0.4 73.6 M0 0 C-0.86 16.6, -0.26 31.83, -0.4 73.6 M-0.4 73.6 C-5.44 69.92, -10.93 65.99, -24.56 55.47 M-0.4 73.6 C-5.98 69.43, -10.96 65.96, -24.56 55.47 M-24.56 55.47 C-23.1 45.22, -23.64 33.74, -24.19 17.9 M-24.56 55.47 C-25.44 44.83, -25.04 34.88, -24.19 17.9 M-24.19 17.9 C-16.27 11.6, -10.17 10, 0 0 M-24.19 17.9 C-16.89 11.41, -9.66 7.59, 0 0 M0 0 C0 0, 0 0, 0 0 M0 0 C0 0, 0 0, 0 0" stroke="#1864ab" stroke-width="1" fill="none"></path></g></g><mask></mask><g stroke-linecap="round"><g transform="translate(6.7152021920660445 6.264669605434449) rotate(0 44.1375497779693 43.46382876070038)" fill-rule="evenodd"><path d="M0.41 0.12 L0.6 26.23 L10.66 26.94 L18.57 12.02 L37.33 12.08 L40.53 22.3 L23.73 23.5 L19.69 36.89 L-1.8 36.91 L-0.06 50.3 L19.84 50.97 L24.93 64.74 L43.3 65.46 L36.32 74.29 L21.15 73.71 L11.07 59.94 L0.95 61.9 L2.42 86.78 L45.74 86.73 L56.76 65.02 L76.96 63.81 L77.42 74.32 L61.41 71.31 L54.32 87.77 L86.88 87.93 L87.41 47.81 L47 45.94 L42.51 56.1 L33.03 54.42 L39.45 43.25 L30.85 29.48 L41.72 30.65 L46.77 41.06 L89.88 40.23 L88.14 1.67 L56.67 -0.64 L63.99 16.46 L77.71 15.38 L77.65 24.56 L58.94 23.15 L43.86 -1.83 L0.39 -0.04" stroke="none" stroke-width="0" fill="#669df6" fill-rule="evenodd"></path><path d="M0 0 C-1.63 7.21, 0.38 16.44, 0.33 27.36 M0 0 C-0.64 8.73, -0.35 16.57, 0.33 27.36 M0.33 27.36 C2.6 26.33, 6.49 26.33, 12.64 26.89 M0.33 27.36 C4.54 26.92, 9.21 26.93, 12.64 26.89 M12.64 26.89 C15.08 23.93, 15.22 21.16, 20.12 12.84 M12.64 26.89 C14.96 21.84, 17.98 16.54, 20.12 12.84 M20.12 12.84 C26.12 11.95, 32.06 14.3, 36.29 13.05 M20.12 12.84 C26.09 12.77, 32.7 13.72, 36.29 13.05 M36.29 13.05 C36.72 15.31, 39.09 17.95, 41.49 21.74 M36.29 13.05 C37.38 16.06, 39.26 17.96, 41.49 21.74 M41.49 21.74 C37.84 20.83, 34.03 21.38, 25.13 21.75 M41.49 21.74 C35.99 22.6, 32.03 21.93, 25.13 21.75 M25.13 21.75 C21.92 27.91, 20.78 31.19, 17.82 36.42 M25.13 21.75 C22.85 25.8, 19.85 31.43, 17.82 36.42 M17.82 36.42 C11.49 34.74, 9.05 35.61, -0.01 35.49 M17.82 36.42 C13.67 36.91, 8.92 35.38, -0.01 35.49 M-0.01 35.49 C-0.17 39.66, 0.76 45.16, 0.74 51.4 M-0.01 35.49 C0.62 40.32, -0.3 44.74, 0.74 51.4 M0.74 51.4 C6.26 52.06, 11.13 50.39, 17.98 51.14 M0.74 51.4 C6.48 52.06, 11.5 50.41, 17.98 51.14 M17.98 51.14 C21.85 58.08, 24.56 62.12, 25.21 66.29 M17.98 51.14 C20.59 56.43, 21.77 60.34, 25.21 66.29 M25.21 66.29 C30.79 65.06, 34.33 67.32, 41.34 66.14 M25.21 66.29 C28.92 65.56, 32.88 65.56, 41.34 66.14 M41.34 66.14 C40.16 67.93, 37.52 71.15, 35.76 74.09 M41.34 66.14 C39.4 69.29, 37.67 72, 35.76 74.09 M35.76 74.09 C31.47 74.6, 30 75.48, 19.77 74.87 M35.76 74.09 C28.72 73.85, 23.59 75.08, 19.77 74.87 M19.77 74.87 C17.13 69.65, 15.86 67.46, 11.77 60.05 M19.77 74.87 C16.35 69.89, 14.68 64.34, 11.77 60.05 M11.77 60.05 C9.03 59.63, 7.07 59.53, -0.44 60.08 M11.77 60.05 C9.49 60.34, 5.89 60.02, -0.44 60.08 M-0.44 60.08 C0.32 68.82, -0.55 76.96, 0.48 87.02 M-0.44 60.08 C-0.99 66.75, -0.74 74.44, 0.48 87.02 M0.48 87.02 C14.08 87.59, 29.75 88.55, 44.02 86.39 M0.48 87.02 C12.8 87.53, 25 87.33, 44.02 86.39 M44.02 86.39 C50.21 80.51, 51.2 71.34, 57.82 64.4 M44.02 86.39 C50.1 78.69, 53.88 70.16, 57.82 64.4 M57.82 64.4 C62.14 62.83, 67.15 63.36, 76.42 64.85 M57.82 64.4 C63.41 64.81, 67.6 65.56, 76.42 64.85 M76.42 64.85 C76.82 66.78, 75.76 68.5, 76.24 72.46 M76.42 64.85 C76.21 67.05, 76.03 69.67, 76.24 72.46 M76.24 72.46 C71.91 71.65, 69.85 71.11, 62.95 72.43 M76.24 72.46 C72.08 73.06, 68.22 72.08, 62.95 72.43 M62.95 72.43 C62.08 76.08, 58.48 80.43, 54.35 86.33 M62.95 72.43 C60.45 75.86, 57.11 80.38, 54.35 86.33 M54.35 86.33 C62.17 87.61, 69.84 88.53, 88.38 86.14 M54.35 86.33 C61.49 85.32, 67.92 86.81, 88.38 86.14 M88.38 86.14 C89.46 75.71, 87.3 65.44, 88.33 47.96 M88.38 86.14 C89.02 74.3, 88.46 65.18, 88.33 47.96 M88.33 47.96 C76.76 48.41, 64.24 47.65, 48.84 47.93 M88.33 47.96 C72.32 48.46, 57.7 47.13, 48.84 47.93 M48.84 47.93 C47.68 50.22, 44.82 53.28, 43.8 55.95 M48.84 47.93 C47 51.16, 44.42 53.94, 43.8 55.95 M43.8 55.95 C40.56 55.93, 38.3 56.94, 31.7 56.05 M43.8 55.95 C41.3 55.95, 38.71 55.94, 31.7 56.05 M31.7 56.05 C34.41 53.48, 36.88 47.64, 39.98 43.27 M31.7 56.05 C34.55 51.16, 37.23 46.86, 39.98 43.27 M39.98 43.27 C38 41.48, 35.59 37.25, 32.46 31.18 M39.98 43.27 C38.27 41.03, 36.92 37, 32.46 31.18 M32.46 31.18 C35.72 30.62, 37.94 30.9, 43.27 31.1 M32.46 31.18 C35.09 30.72, 37.14 30.71, 43.27 31.1 M43.27 31.1 C45.06 33.8, 46.93 38.38, 48.65 39.3 M43.27 31.1 C45.33 34.04, 46.59 36.68, 48.65 39.3 M48.65 39.3 C57.92 37.58, 68.69 37.05, 88.71 38.64 M48.65 39.3 C61.54 38.63, 74.28 39.59, 88.71 38.64 M88.71 38.64 C88.41 28.63, 90.02 21.57, 88.4 0.38 M88.71 38.64 C88.58 25.84, 88.55 15.01, 88.4 0.38 M88.4 0.38 C80.06 0.54, 72.67 1.35, 55.12 -0.09 M88.4 0.38 C76.83 -0.1, 65.31 0.27, 55.12 -0.09 M55.12 -0.09 C58.39 3.48, 58.46 7.75, 63.07 14.47 M55.12 -0.09 C57.13 3.91, 59.9 9.12, 63.07 14.47 M63.07 14.47 C66.11 14.56, 69.72 15.12, 75.73 14.39 M63.07 14.47 C67.64 14.75, 72.82 14.46, 75.73 14.39 M75.73 14.39 C76.27 17.85, 76.66 19.72, 75.89 23.02 M75.73 14.39 C75.68 17.46, 76.21 20.43, 75.89 23.02 M75.89 23.02 C72.9 22.24, 65.6 24.07, 57.64 22.49 M75.89 23.02 C71.4 22.35, 66.62 22.93, 57.64 22.49 M57.64 22.49 C54.65 14.23, 49.26 5.53, 43.06 0.02 M57.64 22.49 C52.83 16.46, 49.09 9.09, 43.06 0.02 M43.06 0.02 C29.97 2.01, 16.36 -0.71, 1.64 0.49 M43.06 0.02 C26.62 -0.94, 11.38 0.86, 1.64 0.49 M1.64 0.49 C1.31 0.44, 0.91 0.38, 0 0 M1.64 0.49 C1.09 0.27, 0.44 0.15, 0 0" stroke="#1864ab" stroke-width="1" fill="none"></path></g></g><mask></mask></svg>