<svg xmlns="http://www.w3.org/2000/svg" viewBox="-198.36 474.07 172.00 84.00" width="172" height="84"><rect x="-192.36" y="480.07" width="160.00" height="72.00" rx="0" stroke="#4285f4" stroke-width="2" opacity="1.0" fill="#FFF"/><text x="-127.36" y="514.07" font-size="12" fill="#000000" opacity="1.0" font-family="sans-serif">Packet
Mirroring</text><ellipse cx="-160.01" cy="506.07" rx="4.39" ry="4.39" stroke="transparent" stroke-width="1" opacity="1.0" fill="#4385f4"/><ellipse cx="-160.01" cy="525.92" rx="4.39" ry="4.39" stroke="transparent" stroke-width="1" opacity="1.0" fill="#4385f4"/><ellipse cx="-160.01" cy="506.07" rx="1.56" ry="1.56" stroke="transparent" stroke-width="1" opacity="1.0" fill="#fff"/><ellipse cx="-160.01" cy="525.92" rx="1.56" ry="1.56" stroke="transparent" stroke-width="1" opacity="1.0" fill="#fff"/><polyline points="-154.32,523.09 -154.32,523.09 -154.32,523.23 -154.30,523.37 -154.26,523.51 -154.21,523.64 -154.16,523.76 -154.09,523.88 -154.00,523.98 -153.91,524.08 -153.81,524.17 -153.71,524.25 -153.59,524.32 -153.47,524.38 -153.34,524.43 -153.20,524.47 -153.06,524.49 -152.92,524.49 -152.78,524.49 -152.64,524.47 -152.50,524.43 -152.37,524.38 -152.25,524.32 -152.14,524.25 -152.03,524.17 -151.93,524.08 -151.84,523.98 -151.76,523.88 -151.69,523.76 -151.63,523.64 -151.58,523.51 -151.55,523.37 -151.52,523.23 -151.52,523.09 -151.52,515.94 -154.32,515.94 -154.32,523.09 -154.32,523.09" fill="none" stroke="#00000000" stroke-width="1" opacity="1.0" stroke-linecap="round" stroke-linejoin="round"/><polyline points="-152.92,507.53 -152.92,507.53 -153.06,507.54 -153.20,507.56 -153.34,507.59 -153.47,507.64 -153.59,507.70 -153.71,507.77 -153.81,507.85 -153.91,507.94 -154.00,508.04 -154.09,508.15 -154.16,508.26 -154.21,508.39 -154.26,508.52 -154.30,508.65 -154.32,508.79 -154.32,508.93 -154.32,515.93 -151.52,515.93 -151.52,508.93 -151.52,508.93 -151.52,508.79 -151.55,508.65 -151.58,508.52 -151.63,508.39 -151.69,508.27 -151.76,508.15 -151.84,508.04 -151.93,507.94 -152.03,507.85 -152.14,507.77 -152.25,507.70 -152.37,507.64 -152.50,507.59 -152.64,507.56 -152.78,507.54 -152.92,507.53 -152.92,507.53" fill="none" stroke="#00000000" stroke-width="1" opacity="1.0" stroke-linecap="round" stroke-linejoin="round"/><polyline points="-150.02,515.94 -150.02,518.86 -150.02,518.86 -150.02,519.01 -149.99,519.15 -149.96,519.28 -149.91,519.41 -149.85,519.53 -149.78,519.65 -149.70,519.76 -149.61,519.86 -149.51,519.95 -149.40,520.03 -149.29,520.10 -149.17,520.16 -149.04,520.21 -148.90,520.24 -148.76,520.26 -148.62,520.27 -148.48,520.26 -148.34,520.24 -148.20,520.21 -148.07,520.16 -147.95,520.10 -147.83,520.03 -147.73,519.95 -147.63,519.86 -147.54,519.76 -147.45,519.65 -147.38,519.53 -147.33,519.41 -147.28,519.28 -147.24,519.15 -147.22,519.01 -147.22,518.86 -147.22,515.94 -150.02,515.94 -150.02,515.94" fill="none" stroke="#00000000" stroke-width="1" opacity="1.0" stroke-linecap="round" stroke-linejoin="round"/><polyline points="-147.22,513.09 -147.22,513.09 -147.22,512.95 -147.24,512.81 -147.28,512.67 -147.33,512.55 -147.38,512.42 -147.45,512.31 -147.54,512.20 -147.63,512.10 -147.73,512.01 -147.83,511.93 -147.95,511.86 -148.07,511.80 -148.20,511.75 -148.34,511.72 -148.48,511.70 -148.62,511.69 -148.76,511.70 -148.90,511.72 -149.04,511.75 -149.17,511.80 -149.29,511.86 -149.40,511.93 -149.51,512.01 -149.61,512.10 -149.70,512.20 -149.78,512.31 -149.85,512.42 -149.91,512.55 -149.96,512.67 -149.99,512.81 -150.02,512.95 -150.02,513.09 -150.02,515.94 -147.22,515.94 -147.22,513.09 -147.22,513.09" fill="none" stroke="#00000000" stroke-width="1" opacity="1.0" stroke-linecap="round" stroke-linejoin="round"/><polyline points="-157.10,511.69 -157.10,511.69 -157.24,511.70 -157.38,511.72 -157.52,511.75 -157.65,511.80 -157.77,511.86 -157.89,511.93 -157.99,512.01 -158.09,512.10 -158.18,512.20 -158.27,512.31 -158.34,512.42 -158.39,512.55 -158.44,512.67 -158.48,512.81 -158.50,512.95 -158.50,513.09 -158.50,515.94 -155.70,515.94 -155.70,513.09 -155.70,513.09 -155.70,512.95 -155.73,512.81 -155.76,512.67 -155.81,512.55 -155.87,512.42 -155.94,512.31 -156.02,512.20 -156.11,512.10 -156.21,512.01 -156.32,511.93 -156.43,511.86 -156.55,511.80 -156.68,511.75 -156.82,511.72 -156.96,511.70 -157.10,511.69 -157.10,511.69" fill="none" stroke="#00000000" stroke-width="1" opacity="1.0" stroke-linecap="round" stroke-linejoin="round"/><polyline points="-158.50,518.86 -158.50,518.86 -158.50,519.01 -158.48,519.15 -158.44,519.28 -158.39,519.41 -158.34,519.53 -158.27,519.65 -158.18,519.76 -158.09,519.86 -157.99,519.95 -157.89,520.03 -157.77,520.10 -157.65,520.16 -157.52,520.21 -157.38,520.24 -157.24,520.26 -157.10,520.27 -156.96,520.26 -156.82,520.24 -156.68,520.21 -156.55,520.16 -156.43,520.10 -156.32,520.03 -156.21,519.95 -156.11,519.86 -156.02,519.76 -155.94,519.65 -155.87,519.53 -155.81,519.41 -155.76,519.28 -155.73,519.15 -155.70,519.01 -155.70,518.86 -155.70,515.94 -158.50,515.94 -158.50,518.86 -158.50,518.86" fill="none" stroke="#00000000" stroke-width="1" opacity="1.0" stroke-linecap="round" stroke-linejoin="round"/><polyline points="-164.29,518.86 -164.29,518.86 -164.28,519.01 -164.26,519.15 -164.23,519.28 -164.18,519.41 -164.12,519.53 -164.05,519.65 -163.97,519.76 -163.88,519.86 -163.78,519.95 -163.67,520.03 -163.56,520.10 -163.44,520.16 -163.31,520.21 -163.17,520.24 -163.03,520.26 -162.89,520.27 -162.75,520.26 -162.61,520.24 -162.47,520.21 -162.34,520.16 -162.22,520.10 -162.10,520.03 -162.00,519.95 -161.90,519.86 -161.81,519.76 -161.72,519.65 -161.65,519.53 -161.60,519.41 -161.55,519.28 -161.51,519.15 -161.49,519.01 -161.49,518.86 -161.49,515.94 -164.29,515.94 -164.29,518.86 -164.29,518.86" fill="none" stroke="#00000000" stroke-width="1" opacity="1.0" stroke-linecap="round" stroke-linejoin="round"/><polyline points="-162.89,511.69 -162.89,511.69 -163.03,511.70 -163.17,511.72 -163.31,511.75 -163.44,511.80 -163.56,511.86 -163.67,511.93 -163.78,512.01 -163.88,512.10 -163.97,512.20 -164.05,512.31 -164.12,512.42 -164.18,512.55 -164.23,512.67 -164.26,512.81 -164.28,512.95 -164.29,513.09 -164.29,515.94 -161.49,515.94 -161.49,513.09 -161.49,513.09 -161.49,512.95 -161.51,512.81 -161.55,512.67 -161.60,512.55 -161.65,512.42 -161.72,512.31 -161.81,512.20 -161.90,512.10 -162.00,512.01 -162.10,511.93 -162.22,511.86 -162.34,511.80 -162.47,511.75 -162.61,511.72 -162.75,511.70 -162.89,511.69 -162.89,511.69" fill="none" stroke="#00000000" stroke-width="1" opacity="1.0" stroke-linecap="round" stroke-linejoin="round"/><polyline points="-172.82,518.86 -172.82,518.86 -172.81,519.01 -172.79,519.15 -172.75,519.28 -172.71,519.41 -172.65,519.53 -172.58,519.65 -172.50,519.76 -172.40,519.86 -172.30,519.95 -172.20,520.03 -172.08,520.10 -171.96,520.16 -171.83,520.21 -171.69,520.24 -171.56,520.26 -171.41,520.27 -171.27,520.26 -171.13,520.24 -170.99,520.21 -170.87,520.16 -170.74,520.10 -170.63,520.03 -170.52,519.95 -170.42,519.86 -170.33,519.76 -170.25,519.65 -170.18,519.53 -170.12,519.41 -170.07,519.28 -170.04,519.15 -170.02,519.01 -170.01,518.86 -170.01,515.94 -172.82,515.94 -172.82,518.86 -172.82,518.86" fill="none" stroke="#00000000" stroke-width="1" opacity="1.0" stroke-linecap="round" stroke-linejoin="round"/><polyline points="-171.41,511.69 -171.41,511.69 -171.56,511.70 -171.69,511.72 -171.83,511.75 -171.96,511.80 -172.08,511.86 -172.20,511.93 -172.30,512.01 -172.40,512.10 -172.50,512.20 -172.58,512.31 -172.65,512.42 -172.71,512.55 -172.75,512.67 -172.79,512.81 -172.81,512.95 -172.82,513.09 -172.82,515.94 -170.01,515.94 -170.01,513.09 -170.01,513.09 -170.02,512.95 -170.04,512.81 -170.07,512.67 -170.12,512.55 -170.18,512.42 -170.25,512.31 -170.33,512.20 -170.42,512.10 -170.52,512.01 -170.63,511.93 -170.74,511.86 -170.87,511.80 -170.99,511.75 -171.13,511.72 -171.27,511.70 -171.41,511.69 -171.41,511.69" fill="none" stroke="#00000000" stroke-width="1" opacity="1.0" stroke-linecap="round" stroke-linejoin="round"/><polyline points="-167.12,507.53 -167.12,507.53 -167.27,507.54 -167.41,507.56 -167.54,507.59 -167.67,507.64 -167.79,507.70 -167.91,507.77 -168.02,507.85 -168.12,507.94 -168.21,508.04 -168.29,508.15 -168.36,508.26 -168.42,508.39 -168.47,508.52 -168.50,508.65 -168.52,508.79 -168.53,508.93 -168.53,515.93 -165.72,515.93 -165.72,508.93 -165.72,508.93 -165.73,508.79 -165.75,508.65 -165.78,508.52 -165.83,508.39 -165.89,508.27 -165.96,508.15 -166.04,508.04 -166.13,507.94 -166.23,507.85 -166.34,507.77 -166.46,507.70 -166.58,507.64 -166.71,507.59 -166.84,507.56 -166.98,507.54 -167.12,507.53 -167.12,507.53" fill="none" stroke="#00000000" stroke-width="1" opacity="1.0" stroke-linecap="round" stroke-linejoin="round"/><polyline points="-168.53,523.09 -168.53,523.09 -168.52,523.23 -168.50,523.37 -168.47,523.51 -168.42,523.64 -168.36,523.76 -168.29,523.88 -168.21,523.98 -168.12,524.08 -168.02,524.17 -167.91,524.25 -167.79,524.32 -167.67,524.38 -167.54,524.43 -167.41,524.47 -167.27,524.49 -167.12,524.49 -166.98,524.49 -166.84,524.47 -166.71,524.43 -166.58,524.38 -166.46,524.32 -166.34,524.25 -166.23,524.17 -166.13,524.08 -166.04,523.98 -165.96,523.88 -165.89,523.76 -165.83,523.64 -165.78,523.51 -165.75,523.37 -165.73,523.23 -165.72,523.09 -165.72,515.94 -168.53,515.94 -168.53,523.09 -168.53,523.09" fill="none" stroke="#00000000" stroke-width="1" opacity="1.0" stroke-linecap="round" stroke-linejoin="round"/></svg>