<svg version="1.1" xmlns="http://www.w3.org/2000/svg" viewBox="0 0 172 84" width="172" height="84">
  <!-- svg-source:excalidraw -->
  
  <defs>
    
    
  </defs>
  <g stroke-linecap="round" transform="translate(6 6) rotate(0 80 36)"><path d="M18 0 C63.11 0, 108.22 0, 142 0 C154 0, 160 6, 160 18 C160 31.39, 160 44.78, 160 54 C160 66, 154 72, 142 72 C116.19 72, 90.37 72, 18 72 C6 72, 0 66, 0 54 C0 39.8, 0 25.59, 0 18 C0 6, 6 0, 18 0" stroke="none" stroke-width="0" fill="#FFF"></path><path d="M18 0 C52.24 0, 86.48 0, 142 0 M18 0 C52.37 0, 86.74 0, 142 0 M142 0 C154 0, 160 6, 160 18 M142 0 C154 0, 160 6, 160 18 M160 18 C160 31.72, 160 45.43, 160 54 M160 18 C160 26.78, 160 35.56, 160 54 M160 54 C160 66, 154 72, 142 72 M160 54 C160 66, 154 72, 142 72 M142 72 C94.38 72, 46.75 72, 18 72 M142 72 C104.98 72, 67.96 72, 18 72 M18 72 C6 72, 0 66, 0 54 M18 72 C6 72, 0 66, 0 54 M0 54 C0 42.54, 0 31.09, 0 18 M0 54 C0 46.05, 0 38.1, 0 18 M0 18 C0 6, 6 0, 18 0 M0 18 C0 6, 6 0, 18 0" stroke="#4285f4" stroke-width="2" fill="none"></path></g><g transform="translate(71 28) rotate(0 28.5 14)"><text x="0" y="0" font-family="Helvetica, Segoe UI Emoji" font-size="12px" fill="#000000" text-anchor="start" style="white-space: pre;" direction="ltr" dominant-baseline="text-before-edge">Cloud</text><text x="0" y="14" font-family="Helvetica, Segoe UI Emoji" font-size="12px" fill="#000000" text-anchor="start" style="white-space: pre;" direction="ltr" dominant-baseline="text-before-edge">Monitoring</text></g><g stroke-linecap="round"><g transform="translate(37.25398254394531 47.74300765991211) rotate(0 1.5886726379394531 1.8010625839233398)" fill-rule="evenodd"><path d="M0 0 L3.18 0 L3.18 3.6 L0 3.6 L0 0" stroke="none" stroke-width="0" fill="#669df6" fill-rule="evenodd"></path><path d="M0 0 C0.72 0, 1.44 0, 3.18 0 M0 0 C1.21 0, 2.42 0, 3.18 0 M3.18 0 C3.18 1.05, 3.18 2.1, 3.18 3.6 M3.18 0 C3.18 0.9, 3.18 1.8, 3.18 3.6 M3.18 3.6 C1.97 3.6, 0.75 3.6, 0 3.6 M3.18 3.6 C2.04 3.6, 0.9 3.6, 0 3.6 M0 3.6 C0 2.22, 0 0.84, 0 0 M0 3.6 C0 2.53, 0 1.45, 0 0 M0 0 C0 0, 0 0, 0 0 M0 0 C0 0, 0 0, 0 0" stroke="#00000000" stroke-width="1" fill="none"></path></g></g><mask></mask><g stroke-linecap="round"><g transform="translate(47.69221115112305 45.058406829833984) rotate(0 -8.84672474861145 -1.3253097534179688)" fill-rule="evenodd"><path d="M0 0 L0 0 L-0.15 -0.02 L-0.3 -0.06 L-0.43 -0.13 L-0.54 -0.23 L-6.11 -6 L-9.85 -2.06 L-9.85 -2.06 L-9.96 -1.97 L-10.08 -1.9 L-10.22 -1.85 L-10.35 -1.83 L-10.49 -1.83 L-10.63 -1.86 L-10.76 -1.92 L-10.89 -1.99 L-13.72 -4.29 L-16.72 -0.31 L-16.72 -0.31 L-16.85 -0.18 L-17 -0.08 L-17.16 -0.03 L-17.34 -0.01 L-22.49 -0.01 L-22.49 2.33 L-22.49 2.33 L-22.47 2.53 L-22.41 2.72 L-22.32 2.9 L-22.2 3.05 L-22.05 3.17 L-21.88 3.27 L-21.69 3.33 L-21.48 3.35 L3.79 3.35 L3.79 3.35 L3.99 3.33 L4.18 3.27 L4.35 3.17 L4.5 3.05 L4.63 2.9 L4.72 2.72 L4.78 2.53 L4.8 2.33 L4.8 -0.01 L0 -0.01 L0 0" stroke="none" stroke-width="0" fill="#4285f4" fill-rule="evenodd"></path><path d="M0 0 C0 0, 0 0, 0 0 M0 0 C0 0, 0 0, 0 0 M0 0 C-0.06 -0.01, -0.12 -0.01, -0.15 -0.02 M0 0 C-0.04 0, -0.09 -0.01, -0.15 -0.02 M-0.15 -0.02 C-0.19 -0.03, -0.22 -0.04, -0.3 -0.06 M-0.15 -0.02 C-0.2 -0.03, -0.25 -0.05, -0.3 -0.06 M-0.3 -0.06 C-0.32 -0.08, -0.35 -0.09, -0.43 -0.13 M-0.3 -0.06 C-0.34 -0.08, -0.38 -0.11, -0.43 -0.13 M-0.43 -0.13 C-0.46 -0.16, -0.5 -0.19, -0.54 -0.23 M-0.43 -0.13 C-0.46 -0.17, -0.5 -0.2, -0.54 -0.23 M-0.54 -0.23 C-1.77 -1.51, -3 -2.78, -6.11 -6 M-0.54 -0.23 C-1.81 -1.55, -3.08 -2.87, -6.11 -6 M-6.11 -6 C-7.14 -4.92, -8.17 -3.83, -9.85 -2.06 M-6.11 -6 C-7.47 -4.57, -8.83 -3.13, -9.85 -2.06 M-9.85 -2.06 C-9.85 -2.06, -9.85 -2.06, -9.85 -2.06 M-9.85 -2.06 C-9.85 -2.06, -9.85 -2.06, -9.85 -2.06 M-9.85 -2.06 C-9.89 -2.03, -9.92 -2, -9.96 -1.97 M-9.85 -2.06 C-9.88 -2.04, -9.9 -2.02, -9.96 -1.97 M-9.96 -1.97 C-9.99 -1.95, -10.02 -1.94, -10.08 -1.9 M-9.96 -1.97 C-9.99 -1.95, -10.02 -1.94, -10.08 -1.9 M-10.08 -1.9 C-10.12 -1.88, -10.16 -1.87, -10.22 -1.85 M-10.08 -1.9 C-10.12 -1.89, -10.15 -1.88, -10.22 -1.85 M-10.22 -1.85 C-10.25 -1.85, -10.29 -1.84, -10.35 -1.83 M-10.22 -1.85 C-10.26 -1.85, -10.29 -1.84, -10.35 -1.83 M-10.35 -1.83 C-10.39 -1.83, -10.43 -1.83, -10.49 -1.83 M-10.35 -1.83 C-10.4 -1.83, -10.44 -1.83, -10.49 -1.83 M-10.49 -1.83 C-10.53 -1.84, -10.56 -1.85, -10.63 -1.86 M-10.49 -1.83 C-10.52 -1.84, -10.55 -1.85, -10.63 -1.86 M-10.63 -1.86 C-10.68 -1.88, -10.72 -1.9, -10.76 -1.92 M-10.63 -1.86 C-10.68 -1.88, -10.72 -1.9, -10.76 -1.92 M-10.76 -1.92 C-10.8 -1.94, -10.83 -1.96, -10.89 -1.99 M-10.76 -1.92 C-10.79 -1.93, -10.82 -1.95, -10.89 -1.99 M-10.89 -1.99 C-11.98 -2.88, -13.08 -3.77, -13.72 -4.29 M-10.89 -1.99 C-11.52 -2.51, -12.16 -3.02, -13.72 -4.29 M-13.72 -4.29 C-14.69 -3.01, -15.65 -1.73, -16.72 -0.31 M-13.72 -4.29 C-14.73 -2.96, -15.73 -1.63, -16.72 -0.31 M-16.72 -0.31 C-16.72 -0.31, -16.72 -0.31, -16.72 -0.31 M-16.72 -0.31 C-16.72 -0.31, -16.72 -0.31, -16.72 -0.31 M-16.72 -0.31 C-16.75 -0.28, -16.78 -0.25, -16.85 -0.18 M-16.72 -0.31 C-16.77 -0.26, -16.82 -0.21, -16.85 -0.18 M-16.85 -0.18 C-16.89 -0.15, -16.94 -0.12, -17 -0.08 M-16.85 -0.18 C-16.88 -0.16, -16.92 -0.13, -17 -0.08 M-17 -0.08 C-17.06 -0.06, -17.13 -0.04, -17.16 -0.03 M-17 -0.08 C-17.04 -0.07, -17.09 -0.05, -17.16 -0.03 M-17.16 -0.03 C-17.2 -0.02, -17.24 -0.02, -17.34 -0.01 M-17.16 -0.03 C-17.21 -0.02, -17.25 -0.02, -17.34 -0.01 M-17.34 -0.01 C-19.08 -0.01, -20.82 -0.01, -22.49 -0.01 M-17.34 -0.01 C-19.09 -0.01, -20.84 -0.01, -22.49 -0.01 M-22.49 -0.01 C-22.49 0.6, -22.49 1.21, -22.49 2.33 M-22.49 -0.01 C-22.49 0.86, -22.49 1.72, -22.49 2.33 M-22.49 2.33 C-22.49 2.33, -22.49 2.33, -22.49 2.33 M-22.49 2.33 C-22.49 2.33, -22.49 2.33, -22.49 2.33 M-22.49 2.33 C-22.48 2.4, -22.48 2.47, -22.47 2.53 M-22.49 2.33 C-22.48 2.4, -22.48 2.47, -22.47 2.53 M-22.47 2.53 C-22.46 2.58, -22.44 2.63, -22.41 2.72 M-22.47 2.53 C-22.46 2.58, -22.44 2.62, -22.41 2.72 M-22.41 2.72 C-22.38 2.79, -22.34 2.85, -22.32 2.9 M-22.41 2.72 C-22.39 2.76, -22.37 2.81, -22.32 2.9 M-22.32 2.9 C-22.27 2.95, -22.23 3.01, -22.2 3.05 M-22.32 2.9 C-22.28 2.94, -22.24 2.99, -22.2 3.05 M-22.2 3.05 C-22.16 3.08, -22.13 3.11, -22.05 3.17 M-22.2 3.05 C-22.14 3.1, -22.08 3.15, -22.05 3.17 M-22.05 3.17 C-22.01 3.19, -21.97 3.21, -21.88 3.27 M-22.05 3.17 C-22.01 3.19, -21.97 3.21, -21.88 3.27 M-21.88 3.27 C-21.81 3.29, -21.74 3.31, -21.69 3.33 M-21.88 3.27 C-21.83 3.28, -21.79 3.29, -21.69 3.33 M-21.69 3.33 C-21.64 3.33, -21.6 3.34, -21.48 3.35 M-21.69 3.33 C-21.63 3.34, -21.57 3.34, -21.48 3.35 M-21.48 3.35 C-14.61 3.35, -7.74 3.35, 3.79 3.35 M-21.48 3.35 C-15 3.35, -8.51 3.35, 3.79 3.35 M3.79 3.35 C3.79 3.35, 3.79 3.35, 3.79 3.35 M3.79 3.35 C3.79 3.35, 3.79 3.35, 3.79 3.35 M3.79 3.35 C3.86 3.34, 3.94 3.34, 3.99 3.33 M3.79 3.35 C3.84 3.35, 3.9 3.34, 3.99 3.33 M3.99 3.33 C4.05 3.31, 4.1 3.3, 4.18 3.27 M3.99 3.33 C4.03 3.32, 4.07 3.3, 4.18 3.27 M4.18 3.27 C4.24 3.24, 4.29 3.21, 4.35 3.17 M4.18 3.27 C4.25 3.23, 4.31 3.2, 4.35 3.17 M4.35 3.17 C4.4 3.14, 4.44 3.1, 4.5 3.05 M4.35 3.17 C4.4 3.14, 4.44 3.1, 4.5 3.05 M4.5 3.05 C4.55 3, 4.59 2.95, 4.63 2.9 M4.5 3.05 C4.54 3, 4.58 2.95, 4.63 2.9 M4.63 2.9 C4.66 2.83, 4.7 2.77, 4.72 2.72 M4.63 2.9 C4.65 2.85, 4.68 2.79, 4.72 2.72 M4.72 2.72 C4.73 2.67, 4.75 2.62, 4.78 2.53 M4.72 2.72 C4.74 2.65, 4.76 2.58, 4.78 2.53 M4.78 2.53 C4.78 2.48, 4.79 2.44, 4.8 2.33 M4.78 2.53 C4.78 2.47, 4.79 2.4, 4.8 2.33 M4.8 2.33 C4.8 1.67, 4.8 1.02, 4.8 -0.01 M4.8 2.33 C4.8 1.66, 4.8 0.99, 4.8 -0.01 M4.8 -0.01 C3.09 -0.01, 1.37 -0.01, 0 -0.01 M4.8 -0.01 C3.44 -0.01, 2.09 -0.01, 0 -0.01 M0 -0.01 C0 0, 0 0, 0 0 M0 -0.01 C0 0, 0 0, 0 0 M0 0 C0 0, 0 0, 0 0 M0 0 C0 0, 0 0, 0 0" stroke="#00000000" stroke-width="1" fill="none"></path></g></g><mask></mask><g stroke-linecap="round"><g transform="translate(29.9761061668396 43.540531158447266) rotate(0 8.866549730300903 -5.07752251625061)" fill-rule="evenodd"><path d="M0 0 L3.25 -4.31 L3.25 -4.31 L3.35 -4.42 L3.47 -4.51 L3.6 -4.57 L3.75 -4.61 L3.9 -4.61 L4.05 -4.58 L4.19 -4.52 L4.32 -4.45 L7.22 -2.1 L11.04 -6.11 L11.04 -6.11 L11.15 -6.21 L11.29 -6.28 L11.43 -6.33 L11.58 -6.34 L11.73 -6.33 L11.88 -6.28 L12.01 -6.21 L12.13 -6.11 L18.03 0 L22.51 0 L22.51 -9.22 L22.51 -9.22 L22.49 -9.42 L22.43 -9.61 L22.33 -9.78 L22.21 -9.93 L22.06 -10.06 L21.89 -10.15 L21.7 -10.21 L21.5 -10.23 L-3.77 -10.23 L-3.77 -10.23 L-3.97 -10.21 L-4.16 -10.15 L-4.33 -10.06 L-4.48 -9.93 L-4.6 -9.78 L-4.7 -9.61 L-4.75 -9.42 L-4.77 -9.22 L-4.77 0.07 L0 0 L0 0" stroke="none" stroke-width="0" fill="#669df6" fill-rule="evenodd"></path><path d="M0 0 C0.8 -1.06, 1.59 -2.12, 3.25 -4.31 M0 0 C0.85 -1.13, 1.71 -2.27, 3.25 -4.31 M3.25 -4.31 C3.25 -4.31, 3.25 -4.31, 3.25 -4.31 M3.25 -4.31 C3.25 -4.31, 3.25 -4.31, 3.25 -4.31 M3.25 -4.31 C3.27 -4.33, 3.29 -4.36, 3.35 -4.42 M3.25 -4.31 C3.27 -4.34, 3.3 -4.37, 3.35 -4.42 M3.35 -4.42 C3.38 -4.45, 3.42 -4.48, 3.47 -4.51 M3.35 -4.42 C3.37 -4.44, 3.4 -4.47, 3.47 -4.51 M3.47 -4.51 C3.49 -4.52, 3.52 -4.54, 3.6 -4.57 M3.47 -4.51 C3.51 -4.53, 3.55 -4.55, 3.6 -4.57 M3.6 -4.57 C3.64 -4.58, 3.68 -4.59, 3.75 -4.61 M3.6 -4.57 C3.64 -4.58, 3.68 -4.59, 3.75 -4.61 M3.75 -4.61 C3.8 -4.61, 3.86 -4.61, 3.9 -4.61 M3.75 -4.61 C3.78 -4.61, 3.81 -4.61, 3.9 -4.61 M3.9 -4.61 C3.96 -4.6, 4.01 -4.59, 4.05 -4.58 M3.9 -4.61 C3.93 -4.6, 3.96 -4.6, 4.05 -4.58 M4.05 -4.58 C4.09 -4.56, 4.13 -4.55, 4.19 -4.52 M4.05 -4.58 C4.1 -4.56, 4.16 -4.54, 4.19 -4.52 M4.19 -4.52 C4.22 -4.5, 4.26 -4.49, 4.32 -4.45 M4.19 -4.52 C4.23 -4.5, 4.27 -4.48, 4.32 -4.45 M4.32 -4.45 C4.91 -3.97, 5.49 -3.5, 7.22 -2.1 M4.32 -4.45 C4.91 -3.97, 5.5 -3.49, 7.22 -2.1 M7.22 -2.1 C8.29 -3.23, 9.36 -4.35, 11.04 -6.11 M7.22 -2.1 C8.58 -3.54, 9.95 -4.97, 11.04 -6.11 M11.04 -6.11 C11.04 -6.11, 11.04 -6.11, 11.04 -6.11 M11.04 -6.11 C11.04 -6.11, 11.04 -6.11, 11.04 -6.11 M11.04 -6.11 C11.07 -6.14, 11.1 -6.16, 11.15 -6.21 M11.04 -6.11 C11.08 -6.14, 11.11 -6.17, 11.15 -6.21 M11.15 -6.21 C11.19 -6.23, 11.24 -6.26, 11.29 -6.28 M11.15 -6.21 C11.2 -6.24, 11.24 -6.26, 11.29 -6.28 M11.29 -6.28 C11.33 -6.3, 11.37 -6.31, 11.43 -6.33 M11.29 -6.28 C11.32 -6.29, 11.35 -6.3, 11.43 -6.33 M11.43 -6.33 C11.48 -6.33, 11.53 -6.34, 11.58 -6.34 M11.43 -6.33 C11.48 -6.33, 11.53 -6.34, 11.58 -6.34 M11.58 -6.34 C11.64 -6.34, 11.7 -6.33, 11.73 -6.33 M11.58 -6.34 C11.63 -6.34, 11.68 -6.33, 11.73 -6.33 M11.73 -6.33 C11.76 -6.32, 11.8 -6.31, 11.88 -6.28 M11.73 -6.33 C11.77 -6.32, 11.81 -6.3, 11.88 -6.28 M11.88 -6.28 C11.93 -6.26, 11.98 -6.23, 12.01 -6.21 M11.88 -6.28 C11.93 -6.26, 11.98 -6.23, 12.01 -6.21 M12.01 -6.21 C12.06 -6.17, 12.1 -6.13, 12.13 -6.11 M12.01 -6.21 C12.04 -6.19, 12.07 -6.16, 12.13 -6.11 M12.13 -6.11 C13.92 -4.25, 15.72 -2.39, 18.03 0 M12.13 -6.11 C13.65 -4.54, 15.16 -2.97, 18.03 0 M18.03 0 C19.26 0, 20.48 0, 22.51 0 M18.03 0 C19.78 0, 21.53 0, 22.51 0 M22.51 0 C22.51 -3.36, 22.51 -6.73, 22.51 -9.22 M22.51 0 C22.51 -3.58, 22.51 -7.16, 22.51 -9.22 M22.51 -9.22 C22.51 -9.22, 22.51 -9.22, 22.51 -9.22 M22.51 -9.22 C22.51 -9.22, 22.51 -9.22, 22.51 -9.22 M22.51 -9.22 C22.5 -9.28, 22.5 -9.34, 22.49 -9.42 M22.51 -9.22 C22.5 -9.29, 22.49 -9.37, 22.49 -9.42 M22.49 -9.42 C22.47 -9.49, 22.44 -9.56, 22.43 -9.61 M22.49 -9.42 C22.47 -9.46, 22.46 -9.5, 22.43 -9.61 M22.43 -9.61 C22.4 -9.67, 22.37 -9.73, 22.33 -9.78 M22.43 -9.61 C22.4 -9.66, 22.38 -9.71, 22.33 -9.78 M22.33 -9.78 C22.3 -9.82, 22.27 -9.86, 22.21 -9.93 M22.33 -9.78 C22.3 -9.83, 22.26 -9.87, 22.21 -9.93 M22.21 -9.93 C22.16 -9.98, 22.1 -10.02, 22.06 -10.06 M22.21 -9.93 C22.15 -9.98, 22.1 -10.03, 22.06 -10.06 M22.06 -10.06 C22 -10.09, 21.94 -10.13, 21.89 -10.15 M22.06 -10.06 C22.01 -10.09, 21.95 -10.12, 21.89 -10.15 M21.89 -10.15 C21.85 -10.16, 21.81 -10.18, 21.7 -10.21 M21.89 -10.15 C21.84 -10.16, 21.79 -10.18, 21.7 -10.21 M21.7 -10.21 C21.62 -10.22, 21.54 -10.22, 21.5 -10.23 M21.7 -10.21 C21.62 -10.22, 21.55 -10.22, 21.5 -10.23 M21.5 -10.23 C12.79 -10.23, 4.08 -10.23, -3.77 -10.23 M21.5 -10.23 C14.83 -10.23, 8.16 -10.23, -3.77 -10.23 M-3.77 -10.23 C-3.77 -10.23, -3.77 -10.23, -3.77 -10.23 M-3.77 -10.23 C-3.77 -10.23, -3.77 -10.23, -3.77 -10.23 M-3.77 -10.23 C-3.83 -10.22, -3.9 -10.22, -3.97 -10.21 M-3.77 -10.23 C-3.81 -10.22, -3.86 -10.22, -3.97 -10.21 M-3.97 -10.21 C-4.03 -10.19, -4.1 -10.17, -4.16 -10.15 M-3.97 -10.21 C-4.01 -10.2, -4.05 -10.18, -4.16 -10.15 M-4.16 -10.15 C-4.23 -10.11, -4.29 -10.08, -4.33 -10.06 M-4.16 -10.15 C-4.22 -10.11, -4.29 -10.08, -4.33 -10.06 M-4.33 -10.06 C-4.37 -10.02, -4.42 -9.98, -4.48 -9.93 M-4.33 -10.06 C-4.37 -10.02, -4.41 -9.99, -4.48 -9.93 M-4.48 -9.93 C-4.52 -9.89, -4.56 -9.84, -4.6 -9.78 M-4.48 -9.93 C-4.51 -9.9, -4.54 -9.86, -4.6 -9.78 M-4.6 -9.78 C-4.62 -9.75, -4.64 -9.71, -4.7 -9.61 M-4.6 -9.78 C-4.63 -9.73, -4.66 -9.68, -4.7 -9.61 M-4.7 -9.61 C-4.71 -9.56, -4.73 -9.51, -4.75 -9.42 M-4.7 -9.61 C-4.71 -9.55, -4.73 -9.49, -4.75 -9.42 M-4.75 -9.42 C-4.76 -9.37, -4.76 -9.33, -4.77 -9.22 M-4.75 -9.42 C-4.76 -9.35, -4.77 -9.27, -4.77 -9.22 M-4.77 -9.22 C-4.77 -7.06, -4.77 -4.9, -4.77 0.07 M-4.77 -9.22 C-4.77 -7.31, -4.77 -5.4, -4.77 0.07 M-4.77 0.07 C-3.47 0.05, -2.17 0.03, 0 0 M-4.77 0.07 C-3.65 0.06, -2.52 0.04, 0 0 M0 0 C0 0, 0 0, 0 0 M0 0 C0 0, 0 0, 0 0 M0 0 C0 0, 0 0, 0 0 M0 0 C0 0, 0 0, 0 0" stroke="#00000000" stroke-width="1" fill="none"></path></g></g><mask></mask><g stroke-linecap="round"><g transform="translate(34.71097373962402 50.93734359741211) rotate(0 4.140176296234131 0.4134521484375)" fill-rule="evenodd"><path d="M0 0 L8.28 0 L8.28 0 L8.36 0.01 L8.44 0.03 L8.51 0.07 L8.57 0.12 L8.62 0.18 L8.66 0.25 L8.68 0.33 L8.69 0.41 L8.69 0.42 L8.69 0.42 L8.68 0.5 L8.66 0.58 L8.62 0.65 L8.57 0.71 L8.51 0.76 L8.44 0.8 L8.36 0.82 L8.28 0.83 L0 0.83 L0 0.83 L-0.08 0.82 L-0.16 0.8 L-0.23 0.76 L-0.29 0.71 L-0.34 0.65 L-0.38 0.58 L-0.4 0.5 L-0.41 0.42 L-0.41 0.41 L-0.41 0.41 L-0.4 0.33 L-0.38 0.25 L-0.34 0.18 L-0.29 0.12 L-0.23 0.07 L-0.16 0.03 L-0.08 0.01 L0 0 L0 0" stroke="none" stroke-width="0" fill="#4285f4" fill-rule="evenodd"></path><path d="M0 0 C2.07 0, 4.14 0, 8.28 0 M0 0 C1.74 0, 3.48 0, 8.28 0 M8.28 0 C8.28 0, 8.28 0, 8.28 0 M8.28 0 C8.28 0, 8.28 0, 8.28 0 M8.28 0 C8.31 0, 8.33 0.01, 8.36 0.01 M8.28 0 C8.3 0, 8.32 0, 8.36 0.01 M8.36 0.01 C8.39 0.02, 8.42 0.03, 8.44 0.03 M8.36 0.01 C8.38 0.01, 8.4 0.02, 8.44 0.03 M8.44 0.03 C8.46 0.05, 8.49 0.06, 8.51 0.07 M8.44 0.03 C8.46 0.04, 8.48 0.05, 8.51 0.07 M8.51 0.07 C8.53 0.09, 8.55 0.1, 8.57 0.12 M8.51 0.07 C8.53 0.09, 8.55 0.11, 8.57 0.12 M8.57 0.12 C8.58 0.13, 8.59 0.15, 8.62 0.18 M8.57 0.12 C8.59 0.14, 8.61 0.16, 8.62 0.18 M8.62 0.18 C8.63 0.21, 8.65 0.23, 8.66 0.25 M8.62 0.18 C8.63 0.19, 8.63 0.21, 8.66 0.25 M8.66 0.25 C8.66 0.28, 8.67 0.3, 8.68 0.33 M8.66 0.25 C8.66 0.27, 8.67 0.29, 8.68 0.33 M8.68 0.33 C8.68 0.35, 8.69 0.38, 8.69 0.41 M8.68 0.33 C8.68 0.34, 8.68 0.36, 8.69 0.41 M8.69 0.41 C8.69 0.41, 8.69 0.41, 8.69 0.42 M8.69 0.41 C8.69 0.41, 8.69 0.42, 8.69 0.42 M8.69 0.42 C8.69 0.42, 8.69 0.42, 8.69 0.42 M8.69 0.42 C8.69 0.42, 8.69 0.42, 8.69 0.42 M8.69 0.42 C8.69 0.45, 8.68 0.48, 8.68 0.5 M8.69 0.42 C8.69 0.45, 8.68 0.47, 8.68 0.5 M8.68 0.5 C8.67 0.52, 8.67 0.54, 8.66 0.58 M8.68 0.5 C8.67 0.53, 8.66 0.55, 8.66 0.58 M8.66 0.58 C8.64 0.6, 8.63 0.63, 8.62 0.65 M8.66 0.58 C8.64 0.6, 8.63 0.62, 8.62 0.65 M8.62 0.65 C8.6 0.67, 8.59 0.69, 8.57 0.71 M8.62 0.65 C8.61 0.66, 8.6 0.68, 8.57 0.71 M8.57 0.71 C8.55 0.72, 8.54 0.73, 8.51 0.76 M8.57 0.71 C8.55 0.72, 8.54 0.74, 8.51 0.76 M8.51 0.76 C8.48 0.77, 8.45 0.79, 8.44 0.8 M8.51 0.76 C8.48 0.77, 8.45 0.79, 8.44 0.8 M8.44 0.8 C8.41 0.8, 8.38 0.81, 8.36 0.82 M8.44 0.8 C8.42 0.8, 8.39 0.81, 8.36 0.82 M8.36 0.82 C8.33 0.82, 8.3 0.83, 8.28 0.83 M8.36 0.82 C8.33 0.82, 8.3 0.82, 8.28 0.83 M8.28 0.83 C5.31 0.83, 2.34 0.83, 0 0.83 M8.28 0.83 C6.58 0.83, 4.89 0.83, 0 0.83 M0 0.83 C0 0.83, 0 0.83, 0 0.83 M0 0.83 C0 0.83, 0 0.83, 0 0.83 M0 0.83 C-0.02 0.83, -0.04 0.82, -0.08 0.82 M0 0.83 C-0.03 0.82, -0.06 0.82, -0.08 0.82 M-0.08 0.82 C-0.1 0.81, -0.12 0.81, -0.16 0.8 M-0.08 0.82 C-0.1 0.81, -0.12 0.81, -0.16 0.8 M-0.16 0.8 C-0.18 0.79, -0.2 0.78, -0.23 0.76 M-0.16 0.8 C-0.18 0.78, -0.21 0.77, -0.23 0.76 M-0.23 0.76 C-0.25 0.74, -0.27 0.72, -0.29 0.71 M-0.23 0.76 C-0.25 0.74, -0.26 0.73, -0.29 0.71 M-0.29 0.71 C-0.31 0.69, -0.33 0.66, -0.34 0.65 M-0.29 0.71 C-0.3 0.69, -0.32 0.67, -0.34 0.65 M-0.34 0.65 C-0.35 0.63, -0.36 0.62, -0.38 0.58 M-0.34 0.65 C-0.35 0.63, -0.36 0.61, -0.38 0.58 M-0.38 0.58 C-0.38 0.55, -0.39 0.53, -0.4 0.5 M-0.38 0.58 C-0.38 0.55, -0.39 0.53, -0.4 0.5 M-0.4 0.5 C-0.4 0.47, -0.41 0.44, -0.41 0.42 M-0.4 0.5 C-0.4 0.48, -0.4 0.46, -0.41 0.42 M-0.41 0.42 C-0.41 0.42, -0.41 0.41, -0.41 0.41 M-0.41 0.42 C-0.41 0.42, -0.41 0.41, -0.41 0.41 M-0.41 0.41 C-0.41 0.41, -0.41 0.41, -0.41 0.41 M-0.41 0.41 C-0.41 0.41, -0.41 0.41, -0.41 0.41 M-0.41 0.41 C-0.41 0.39, -0.4 0.37, -0.4 0.33 M-0.41 0.41 C-0.41 0.38, -0.4 0.35, -0.4 0.33 M-0.4 0.33 C-0.39 0.3, -0.38 0.27, -0.38 0.25 M-0.4 0.33 C-0.39 0.31, -0.39 0.29, -0.38 0.25 M-0.38 0.25 C-0.37 0.23, -0.36 0.22, -0.34 0.18 M-0.38 0.25 C-0.36 0.23, -0.35 0.21, -0.34 0.18 M-0.34 0.18 C-0.32 0.16, -0.3 0.14, -0.29 0.12 M-0.34 0.18 C-0.33 0.16, -0.31 0.15, -0.29 0.12 M-0.29 0.12 C-0.27 0.1, -0.25 0.09, -0.23 0.07 M-0.29 0.12 C-0.27 0.1, -0.25 0.09, -0.23 0.07 M-0.23 0.07 C-0.21 0.06, -0.19 0.05, -0.16 0.03 M-0.23 0.07 C-0.21 0.06, -0.18 0.05, -0.16 0.03 M-0.16 0.03 C-0.13 0.02, -0.1 0.01, -0.08 0.01 M-0.16 0.03 C-0.14 0.03, -0.12 0.02, -0.08 0.01 M-0.08 0.01 C-0.06 0.01, -0.03 0, 0 0 M-0.08 0.01 C-0.06 0.01, -0.05 0, 0 0 M0 0 C0 0, 0 0, 0 0 M0 0 C0 0, 0 0, 0 0 M0 0 C0 0, 0 0, 0 0 M0 0 C0 0, 0 0, 0 0" stroke="#00000000" stroke-width="1" fill="none"></path></g></g><mask></mask></svg>