<svg version="1.1" xmlns="http://www.w3.org/2000/svg" viewBox="0 0 172 84" width="172" height="84">
  <!-- svg-source:excalidraw -->
  
  <defs>
    
    
  </defs>
  <g stroke-linecap="round" transform="translate(6 6) rotate(0 80 36)"><path d="M18 0 C48.58 0, 79.17 0, 142 0 C154 0, 160 6, 160 18 C160 25.92, 160 33.84, 160 54 C160 66, 154 72, 142 72 C93.98 72, 45.96 72, 18 72 C6 72, 0 66, 0 54 C0 41.44, 0 28.88, 0 18 C0 6, 6 0, 18 0" stroke="none" stroke-width="0" fill="#FFF"></path><path d="M18 0 C62.63 0, 107.26 0, 142 0 M18 0 C62 0, 106.01 0, 142 0 M142 0 C154 0, 160 6, 160 18 M142 0 C154 0, 160 6, 160 18 M160 18 C160 29.04, 160 40.08, 160 54 M160 18 C160 25.42, 160 32.85, 160 54 M160 54 C160 66, 154 72, 142 72 M160 54 C160 66, 154 72, 142 72 M142 72 C116.82 72, 91.64 72, 18 72 M142 72 C93.98 72, 45.96 72, 18 72 M18 72 C6 72, 0 66, 0 54 M18 72 C6 72, 0 66, 0 54 M0 54 C0 41.42, 0 28.84, 0 18 M0 54 C0 40.67, 0 27.34, 0 18 M0 18 C0 6, 6 0, 18 0 M0 18 C0 6, 6 0, 18 0" stroke="#4285f4" stroke-width="2" fill="none"></path></g><g transform="translate(71 28) rotate(0 30 14)"><text x="0" y="0" font-family="Helvetica, Segoe UI Emoji" font-size="12px" fill="#000000" text-anchor="start" style="white-space: pre;" direction="ltr" dominant-baseline="text-before-edge">Cloud</text><text x="0" y="14" font-family="Helvetica, Segoe UI Emoji" font-size="12px" fill="#000000" text-anchor="start" style="white-space: pre;" direction="ltr" dominant-baseline="text-before-edge">Translation</text></g><g stroke-linecap="round"><g transform="translate(46.36666679382324 39.60000038146973) rotate(0 -1.1999998092651367 7.199999809265137)" fill-rule="evenodd"><path d="M0 0 L-2.4 0 L-7.87 14.4 L-5.47 14.4 L-4.13 10.8 L1.6 10.8 L2.93 14.4 L5.47 14.4 L0 0 L0 0" stroke="none" stroke-width="0" fill="#4285f4" fill-rule="evenodd"></path><path d="M0 0 C-0.93 0, -1.86 0, -2.4 0 M0 0 C-0.72 0, -1.44 0, -2.4 0 M-2.4 0 C-4.34 5.12, -6.29 10.24, -7.87 14.4 M-2.4 0 C-4.42 5.31, -6.43 10.63, -7.87 14.4 M-7.87 14.4 C-7.34 14.4, -6.8 14.4, -5.47 14.4 M-7.87 14.4 C-7.14 14.4, -6.42 14.4, -5.47 14.4 M-5.47 14.4 C-5.2 13.67, -4.93 12.94, -4.13 10.8 M-5.47 14.4 C-4.95 13.01, -4.43 11.61, -4.13 10.8 M-4.13 10.8 C-1.93 10.8, 0.27 10.8, 1.6 10.8 M-4.13 10.8 C-2.51 10.8, -0.89 10.8, 1.6 10.8 M1.6 10.8 C1.95 11.75, 2.3 12.7, 2.93 14.4 M1.6 10.8 C1.89 11.57, 2.17 12.34, 2.93 14.4 M2.93 14.4 C3.48 14.4, 4.02 14.4, 5.47 14.4 M2.93 14.4 C3.63 14.4, 4.32 14.4, 5.47 14.4 M5.47 14.4 C4.18 11.02, 2.9 7.63, 0 0 M5.47 14.4 C4.29 11.3, 3.11 8.19, 0 0 M0 0 C0 0, 0 0, 0 0 M0 0 C0 0, 0 0, 0 0 M0 0 C0 0, 0 0, 0 0 M0 0 C0 0, 0 0, 0 0" stroke="#00000000" stroke-width="1" fill="none"></path></g></g><mask></mask><g stroke-linecap="round"><g transform="translate(43.16666793823242 48) rotate(0 2 -2.59999942779541)" fill-rule="evenodd"><path d="M0 0 L2 -5.2 L4 0 L0 0 L0 0" stroke="none" stroke-width="0" fill="#4285f4" fill-rule="evenodd"></path><path d="M0 0 C0.52 -1.35, 1.04 -2.7, 2 -5.2 M0 0 C0.41 -1.08, 0.83 -2.15, 2 -5.2 M2 -5.2 C2.46 -3.99, 2.93 -2.78, 4 0 M2 -5.2 C2.78 -3.17, 3.56 -1.15, 4 0 M4 0 C2.49 0, 0.98 0, 0 0 M4 0 C2.7 0, 1.4 0, 0 0 M0 0 C0 0, 0 0, 0 0 M0 0 C0 0, 0 0, 0 0 M0 0 C0 0, 0 0, 0 0 M0 0 C0 0, 0 0, 0 0" stroke="#00000000" stroke-width="1" fill="none"></path></g></g><mask></mask><g stroke-linecap="round"><g transform="translate(39.566667556762695 45.733333587646484) rotate(0 -4.666666626930237 -5.533333778381348)" fill-rule="evenodd"><path d="M0 0 L-3.07 -3.07 L-3.07 -3.07 L-1.59 -4.84 L-0.35 -6.75 L1.47 -10.93 L5.07 -10.93 L5.07 -13.33 L-3.47 -13.33 L-3.47 -15.73 L-5.87 -15.73 L-5.87 -13.33 L-14.4 -13.33 L-14.4 -10.93 L-0.93 -10.93 L-0.93 -10.93 L-2.52 -7.53 L-4.8 -4.53 L-6.3 -6.43 L-7.6 -8.53 L-10 -8.53 L-10 -8.53 L-8.33 -5.65 L-6.27 -3.07 L-12.53 2.93 L-10.8 4.67 L-4.8 -1.33 L-1.07 2.4 L0 0 L0 0" stroke="none" stroke-width="0" fill="#669df6" fill-rule="evenodd"></path><path d="M0 0 C-1.03 -1.03, -2.06 -2.06, -3.07 -3.07 M0 0 C-0.84 -0.84, -1.68 -1.68, -3.07 -3.07 M-3.07 -3.07 C-3.07 -3.07, -3.07 -3.07, -3.07 -3.07 M-3.07 -3.07 C-3.07 -3.07, -3.07 -3.07, -3.07 -3.07 M-3.07 -3.07 C-2.62 -3.61, -2.17 -4.14, -1.59 -4.84 M-3.07 -3.07 C-2.72 -3.49, -2.37 -3.9, -1.59 -4.84 M-1.59 -4.84 C-1.21 -5.43, -0.82 -6.02, -0.35 -6.75 M-1.59 -4.84 C-1.17 -5.49, -0.75 -6.14, -0.35 -6.75 M-0.35 -6.75 C0.27 -8.17, 0.89 -9.6, 1.47 -10.93 M-0.35 -6.75 C0.34 -8.33, 1.03 -9.92, 1.47 -10.93 M1.47 -10.93 C2.69 -10.93, 3.91 -10.93, 5.07 -10.93 M1.47 -10.93 C2.76 -10.93, 4.06 -10.93, 5.07 -10.93 M5.07 -10.93 C5.07 -11.53, 5.07 -12.12, 5.07 -13.33 M5.07 -10.93 C5.07 -11.62, 5.07 -12.31, 5.07 -13.33 M5.07 -13.33 C2.99 -13.33, 0.91 -13.33, -3.47 -13.33 M5.07 -13.33 C2.91 -13.33, 0.76 -13.33, -3.47 -13.33 M-3.47 -13.33 C-3.47 -14.09, -3.47 -14.84, -3.47 -15.73 M-3.47 -13.33 C-3.47 -13.89, -3.47 -14.45, -3.47 -15.73 M-3.47 -15.73 C-4.17 -15.73, -4.88 -15.73, -5.87 -15.73 M-3.47 -15.73 C-4.41 -15.73, -5.35 -15.73, -5.87 -15.73 M-5.87 -15.73 C-5.87 -15.2, -5.87 -14.66, -5.87 -13.33 M-5.87 -15.73 C-5.87 -15.08, -5.87 -14.42, -5.87 -13.33 M-5.87 -13.33 C-7.6 -13.33, -9.33 -13.33, -14.4 -13.33 M-5.87 -13.33 C-8.38 -13.33, -10.9 -13.33, -14.4 -13.33 M-14.4 -13.33 C-14.4 -12.51, -14.4 -11.68, -14.4 -10.93 M-14.4 -13.33 C-14.4 -12.49, -14.4 -11.65, -14.4 -10.93 M-14.4 -10.93 C-11.41 -10.93, -8.43 -10.93, -0.93 -10.93 M-14.4 -10.93 C-10.27 -10.93, -6.15 -10.93, -0.93 -10.93 M-0.93 -10.93 C-0.93 -10.93, -0.93 -10.93, -0.93 -10.93 M-0.93 -10.93 C-0.93 -10.93, -0.93 -10.93, -0.93 -10.93 M-0.93 -10.93 C-1.31 -10.12, -1.69 -9.3, -2.52 -7.53 M-0.93 -10.93 C-1.43 -9.87, -1.92 -8.81, -2.52 -7.53 M-2.52 -7.53 C-3.29 -6.52, -4.05 -5.51, -4.8 -4.53 M-2.52 -7.53 C-3.02 -6.88, -3.51 -6.22, -4.8 -4.53 M-4.8 -4.53 C-5.23 -5.08, -5.67 -5.63, -6.3 -6.43 M-4.8 -4.53 C-5.15 -4.97, -5.49 -5.41, -6.3 -6.43 M-6.3 -6.43 C-6.68 -7.05, -7.06 -7.67, -7.6 -8.53 M-6.3 -6.43 C-6.59 -6.9, -6.88 -7.37, -7.6 -8.53 M-7.6 -8.53 C-8.16 -8.53, -8.73 -8.53, -10 -8.53 M-7.6 -8.53 C-8.37 -8.53, -9.14 -8.53, -10 -8.53 M-10 -8.53 C-10 -8.53, -10 -8.53, -10 -8.53 M-10 -8.53 C-10 -8.53, -10 -8.53, -10 -8.53 M-10 -8.53 C-9.52 -7.71, -9.05 -6.89, -8.33 -5.65 M-10 -8.53 C-9.54 -7.74, -9.09 -6.95, -8.33 -5.65 M-8.33 -5.65 C-7.8 -4.99, -7.27 -4.33, -6.27 -3.07 M-8.33 -5.65 C-7.69 -4.84, -7.04 -4.03, -6.27 -3.07 M-6.27 -3.07 C-8.07 -1.34, -9.88 0.39, -12.53 2.93 M-6.27 -3.07 C-8.26 -1.16, -10.25 0.74, -12.53 2.93 M-12.53 2.93 C-11.88 3.59, -11.22 4.25, -10.8 4.67 M-12.53 2.93 C-12.14 3.33, -11.75 3.72, -10.8 4.67 M-10.8 4.67 C-9.43 3.3, -8.06 1.93, -4.8 -1.33 M-10.8 4.67 C-8.91 2.77, -7.01 0.88, -4.8 -1.33 M-4.8 -1.33 C-3.34 0.13, -1.88 1.58, -1.07 2.4 M-4.8 -1.33 C-3.36 0.11, -1.92 1.55, -1.07 2.4 M-1.07 2.4 C-0.71 1.61, -0.36 0.81, 0 0 M-1.07 2.4 C-0.78 1.76, -0.49 1.11, 0 0 M0 0 C0 0, 0 0, 0 0 M0 0 C0 0, 0 0, 0 0 M0 0 C0 0, 0 0, 0 0 M0 0 C0 0, 0 0, 0 0" stroke="transparent" stroke-width="1" fill="none"></path></g></g><mask></mask><g stroke-linecap="round"><g transform="translate(43.16666793823242 48) rotate(0 2 -2.59999942779541)" fill-rule="evenodd"><path d="M0 0 L4 0 L2 -5.2 L0 0" stroke="none" stroke-width="0" fill="#fff" fill-rule="evenodd"></path><path d="M0 0 C0.81 0, 1.61 0, 4 0 M0 0 C1.35 0, 2.71 0, 4 0 M4 0 C3.47 -1.39, 2.93 -2.78, 2 -5.2 M4 0 C3.29 -1.84, 2.59 -3.67, 2 -5.2 M2 -5.2 C1.58 -4.12, 1.17 -3.04, 0 0 M2 -5.2 C1.56 -4.05, 1.12 -2.9, 0 0 M0 0 C0 0, 0 0, 0 0 M0 0 C0 0, 0 0, 0 0" stroke="#00000000" stroke-width="1" fill="none"></path></g></g><mask></mask></svg>