<svg xmlns="http://www.w3.org/2000/svg" viewBox="827.17 -66.91 172.00 84.00" width="172" height="84"><rect x="833.17" y="-60.91" width="160.00" height="72.00" rx="0" stroke="#4285f4" stroke-width="2" opacity="1.0" fill="#FFF"/><text x="898.17" y="-26.91" font-size="12" fill="#000000" opacity="1.0" font-family="sans-serif">Identity
Platform</text><polyline points="854.11,-31.64 865.67,-38.24 877.22,-31.64 877.22,-18.68 872.78,-22.24 858.56,-22.24 854.11,-18.68 854.11,-31.64" fill="#669df6" stroke="none" stroke-width="1" opacity="1.0" stroke-linecap="round" stroke-linejoin="round"/><polyline points="871.00,-29.35 871.00,-29.35 870.80,-30.81 870.25,-32.09 869.41,-33.16 868.33,-33.97 867.09,-34.49 865.75,-34.69 864.36,-34.53 863.00,-33.97 861.83,-33.07 861.00,-31.95 860.50,-30.69 860.33,-29.35 860.50,-28.02 861.00,-26.75 861.83,-25.63 863.00,-24.73 864.29,-24.20 865.67,-24.02 866.74,-24.13 867.74,-24.44 868.65,-24.93 869.44,-25.58 870.09,-26.37 870.58,-27.27 870.89,-28.28 871.00,-29.35 871.00,-29.35" fill="#fff" stroke="none" stroke-width="1" opacity="1.0" stroke-linecap="round" stroke-linejoin="round"/><polyline points="869.22,-29.35 869.22,-29.35 869.09,-28.38 868.72,-27.52 868.16,-26.81 867.44,-26.27 866.62,-25.92 865.72,-25.79 864.80,-25.90 863.89,-26.27 863.11,-26.87 862.56,-27.62 862.22,-28.46 862.11,-29.35 862.22,-30.24 862.56,-31.08 863.11,-31.83 863.89,-32.43 864.75,-32.79 865.67,-32.91 867.05,-32.63 868.18,-31.86 868.94,-30.73 869.22,-29.35 869.22,-29.35" fill="#669df6" stroke="none" stroke-width="1" opacity="1.0" stroke-linecap="round" stroke-linejoin="round"/><polyline points="865.67,-24.02 865.67,-24.02 867.13,-24.22 868.41,-24.77 869.47,-25.61 870.29,-26.68 870.81,-27.92 871.01,-29.27 870.84,-30.65 870.29,-32.02 869.43,-33.13 868.33,-33.97 867.06,-34.50 865.67,-34.68 865.67,-38.24 877.22,-31.64 877.22,-18.68 872.78,-22.24 865.67,-22.24 865.67,-24.02" fill="#4285f4" stroke="none" stroke-width="1" opacity="1.0" stroke-linecap="round" stroke-linejoin="round"/><polyline points="869.22,-29.35 869.22,-29.35 868.94,-27.97 868.18,-26.84 867.05,-26.07 865.67,-25.80 865.67,-32.91 865.67,-32.91 867.05,-32.63 868.18,-31.86 868.94,-30.73 869.22,-29.35 869.22,-29.35" fill="#4285f4" stroke="none" stroke-width="1" opacity="1.0" stroke-linecap="round" stroke-linejoin="round"/><polyline points="855.00,-16.91 865.67,-11.57 876.33,-16.91 871.89,-20.46 859.44,-20.46 855.00,-16.91 855.00,-16.91" fill="#669df6" stroke="none" stroke-width="1" opacity="1.0" stroke-linecap="round" stroke-linejoin="round"/><polyline points="865.67,-11.57 876.33,-16.91 871.89,-20.46 865.67,-20.46 865.67,-11.57 865.67,-11.57" fill="#4285f4" stroke="none" stroke-width="1" opacity="1.0" stroke-linecap="round" stroke-linejoin="round"/></svg>