<svg version="1.1" xmlns="http://www.w3.org/2000/svg" viewBox="0 0 182 220.00000063578273" width="182" height="220.00000063578273">
  <!-- svg-source:excalidraw -->
  
  <defs>
    
    
  </defs>
  <g stroke-linecap="round" transform="translate(7.222221586439446 6) rotate(0 83.3333339691162 83.3333339691162)"><path d="M166.67 83.33 C166.67 86.24, 166.51 89.16, 166.21 92.04 C165.91 94.93, 165.45 97.82, 164.85 100.66 C164.24 103.5, 163.49 106.32, 162.59 109.08 C161.69 111.85, 160.64 114.58, 159.46 117.23 C158.28 119.88, 156.95 122.49, 155.5 125 C154.05 127.51, 152.46 129.97, 150.75 132.32 C149.04 134.66, 147.2 136.94, 145.26 139.09 C143.32 141.25, 141.25 143.32, 139.09 145.26 C136.94 147.2, 134.66 149.04, 132.32 150.75 C129.97 152.46, 127.51 154.05, 125 155.5 C122.49 156.95, 119.88 158.28, 117.23 159.46 C114.58 160.64, 111.85 161.69, 109.08 162.59 C106.32 163.49, 103.5 164.24, 100.66 164.85 C97.82 165.45, 94.93 165.91, 92.04 166.21 C89.16 166.51, 86.24 166.67, 83.33 166.67 C80.43 166.67, 77.51 166.51, 74.62 166.21 C71.73 165.91, 68.85 165.45, 66.01 164.85 C63.17 164.24, 60.34 163.49, 57.58 162.59 C54.82 161.69, 52.09 160.64, 49.44 159.46 C46.79 158.28, 44.18 156.95, 41.67 155.5 C39.15 154.05, 36.7 152.46, 34.35 150.75 C32 149.04, 29.73 147.2, 27.57 145.26 C25.41 143.32, 23.35 141.25, 21.4 139.09 C19.46 136.94, 17.62 134.66, 15.92 132.32 C14.21 129.97, 12.62 127.51, 11.16 125 C9.71 122.49, 8.39 119.88, 7.2 117.23 C6.02 114.58, 4.98 111.85, 4.08 109.08 C3.18 106.32, 2.42 103.5, 1.82 100.66 C1.22 97.82, 0.76 94.93, 0.46 92.04 C0.15 89.16, 0 86.24, 0 83.33 C0 80.43, 0.15 77.51, 0.46 74.62 C0.76 71.73, 1.22 68.85, 1.82 66.01 C2.42 63.17, 3.18 60.34, 4.08 57.58 C4.98 54.82, 6.02 52.09, 7.2 49.44 C8.39 46.79, 9.71 44.18, 11.16 41.67 C12.62 39.15, 14.21 36.7, 15.92 34.35 C17.62 32, 19.46 29.73, 21.4 27.57 C23.35 25.41, 25.41 23.35, 27.57 21.4 C29.73 19.46, 32 17.62, 34.35 15.92 C36.7 14.21, 39.15 12.62, 41.67 11.16 C44.18 9.71, 46.79 8.39, 49.44 7.2 C52.09 6.02, 54.82 4.98, 57.58 4.08 C60.34 3.18, 63.17 2.42, 66.01 1.82 C68.85 1.22, 71.73 0.76, 74.62 0.46 C77.51 0.15, 80.43 0, 83.33 0 C86.24 0, 89.16 0.15, 92.04 0.46 C94.93 0.76, 97.82 1.22, 100.66 1.82 C103.5 2.42, 106.32 3.18, 109.08 4.08 C111.85 4.98, 114.58 6.02, 117.23 7.2 C119.88 8.39, 122.49 9.71, 125 11.16 C127.51 12.62, 129.97 14.21, 132.32 15.92 C134.66 17.62, 136.94 19.46, 139.09 21.4 C141.25 23.35, 143.32 25.41, 145.26 27.57 C147.2 29.73, 149.04 32, 150.75 34.35 C152.46 36.7, 154.05 39.15, 155.5 41.67 C156.95 44.18, 158.28 46.79, 159.46 49.44 C160.64 52.09, 161.69 54.82, 162.59 57.58 C163.49 60.34, 164.24 63.17, 164.85 66.01 C165.45 68.85, 165.91 71.73, 166.21 74.62 C166.51 77.51, 166.59 81.88, 166.67 83.33 C166.74 84.79, 166.74 81.88, 166.67 83.33" stroke="none" stroke-width="0" fill="#2979ff"></path><path d="M166.67 83.33 C166.67 86.24, 166.51 89.16, 166.21 92.04 C165.91 94.93, 165.45 97.82, 164.85 100.66 C164.24 103.5, 163.49 106.32, 162.59 109.08 C161.69 111.85, 160.64 114.58, 159.46 117.23 C158.28 119.88, 156.95 122.49, 155.5 125 C154.05 127.51, 152.46 129.97, 150.75 132.32 C149.04 134.66, 147.2 136.94, 145.26 139.09 C143.32 141.25, 141.25 143.32, 139.09 145.26 C136.94 147.2, 134.66 149.04, 132.32 150.75 C129.97 152.46, 127.51 154.05, 125 155.5 C122.49 156.95, 119.88 158.28, 117.23 159.46 C114.58 160.64, 111.85 161.69, 109.08 162.59 C106.32 163.49, 103.5 164.24, 100.66 164.85 C97.82 165.45, 94.93 165.91, 92.04 166.21 C89.16 166.51, 86.24 166.67, 83.33 166.67 C80.43 166.67, 77.51 166.51, 74.62 166.21 C71.73 165.91, 68.85 165.45, 66.01 164.85 C63.17 164.24, 60.34 163.49, 57.58 162.59 C54.82 161.69, 52.09 160.64, 49.44 159.46 C46.79 158.28, 44.18 156.95, 41.67 155.5 C39.15 154.05, 36.7 152.46, 34.35 150.75 C32 149.04, 29.73 147.2, 27.57 145.26 C25.41 143.32, 23.35 141.25, 21.4 139.09 C19.46 136.94, 17.62 134.66, 15.92 132.32 C14.21 129.97, 12.62 127.51, 11.16 125 C9.71 122.49, 8.39 119.88, 7.2 117.23 C6.02 114.58, 4.98 111.85, 4.08 109.08 C3.18 106.32, 2.42 103.5, 1.82 100.66 C1.22 97.82, 0.76 94.93, 0.46 92.04 C0.15 89.16, 0 86.24, 0 83.33 C0 80.43, 0.15 77.51, 0.46 74.62 C0.76 71.73, 1.22 68.85, 1.82 66.01 C2.42 63.17, 3.18 60.34, 4.08 57.58 C4.98 54.82, 6.02 52.09, 7.2 49.44 C8.39 46.79, 9.71 44.18, 11.16 41.67 C12.62 39.15, 14.21 36.7, 15.92 34.35 C17.62 32, 19.46 29.73, 21.4 27.57 C23.35 25.41, 25.41 23.35, 27.57 21.4 C29.73 19.46, 32 17.62, 34.35 15.92 C36.7 14.21, 39.15 12.62, 41.67 11.16 C44.18 9.71, 46.79 8.39, 49.44 7.2 C52.09 6.02, 54.82 4.98, 57.58 4.08 C60.34 3.18, 63.17 2.42, 66.01 1.82 C68.85 1.22, 71.73 0.76, 74.62 0.46 C77.51 0.15, 80.43 0, 83.33 0 C86.24 0, 89.16 0.15, 92.04 0.46 C94.93 0.76, 97.82 1.22, 100.66 1.82 C103.5 2.42, 106.32 3.18, 109.08 4.08 C111.85 4.98, 114.58 6.02, 117.23 7.2 C119.88 8.39, 122.49 9.71, 125 11.16 C127.51 12.62, 129.97 14.21, 132.32 15.92 C134.66 17.62, 136.94 19.46, 139.09 21.4 C141.25 23.35, 143.32 25.41, 145.26 27.57 C147.2 29.73, 149.04 32, 150.75 34.35 C152.46 36.7, 154.05 39.15, 155.5 41.67 C156.95 44.18, 158.28 46.79, 159.46 49.44 C160.64 52.09, 161.69 54.82, 162.59 57.58 C163.49 60.34, 164.24 63.17, 164.85 66.01 C165.45 68.85, 165.91 71.73, 166.21 74.62 C166.51 77.51, 166.59 81.88, 166.67 83.33 C166.74 84.79, 166.74 81.88, 166.67 83.33" stroke="#000000" stroke-width="1" fill="none"></path></g><g stroke-linecap="round" transform="translate(73.88888905975546 51.83333100080608) rotate(0 16.66666649580003 16.66666649580003)"><path d="M33.33 16.67 C33.33 17.63, 33.25 18.61, 33.08 19.56 C32.91 20.51, 32.66 21.46, 32.33 22.37 C32 23.27, 31.58 24.16, 31.1 25 C30.62 25.84, 30.05 26.64, 29.43 27.38 C28.81 28.12, 28.12 28.81, 27.38 29.43 C26.64 30.05, 25.84 30.62, 25 31.1 C24.16 31.58, 23.27 32, 22.37 32.33 C21.46 32.66, 20.51 32.91, 19.56 33.08 C18.61 33.25, 17.63 33.33, 16.67 33.33 C15.7 33.33, 14.72 33.25, 13.77 33.08 C12.82 32.91, 11.87 32.66, 10.97 32.33 C10.06 32, 9.17 31.58, 8.33 31.1 C7.5 30.62, 6.69 30.05, 5.95 29.43 C5.21 28.81, 4.52 28.12, 3.9 27.38 C3.28 26.64, 2.72 25.84, 2.23 25 C1.75 24.16, 1.34 23.27, 1.01 22.37 C0.68 21.46, 0.42 20.51, 0.25 19.56 C0.09 18.61, 0 17.63, 0 16.67 C0 15.7, 0.09 14.72, 0.25 13.77 C0.42 12.82, 0.68 11.87, 1.01 10.97 C1.34 10.06, 1.75 9.17, 2.23 8.33 C2.72 7.5, 3.28 6.69, 3.9 5.95 C4.52 5.21, 5.21 4.52, 5.95 3.9 C6.69 3.28, 7.5 2.72, 8.33 2.23 C9.17 1.75, 10.06 1.34, 10.97 1.01 C11.87 0.68, 12.82 0.42, 13.77 0.25 C14.72 0.09, 15.7 0, 16.67 0 C17.63 0, 18.61 0.09, 19.56 0.25 C20.51 0.42, 21.46 0.68, 22.37 1.01 C23.27 1.34, 24.16 1.75, 25 2.23 C25.84 2.72, 26.64 3.28, 27.38 3.9 C28.12 4.52, 28.81 5.21, 29.43 5.95 C30.05 6.69, 30.62 7.5, 31.1 8.33 C31.58 9.17, 32 10.06, 32.33 10.97 C32.66 11.87, 32.91 12.82, 33.08 13.77 C33.25 14.72, 33.29 16.18, 33.33 16.67 C33.38 17.15, 33.38 16.18, 33.33 16.67" stroke="none" stroke-width="0" fill="#2962ff"></path><path d="M33.33 16.67 C33.33 17.63, 33.25 18.61, 33.08 19.56 C32.91 20.51, 32.66 21.46, 32.33 22.37 C32 23.27, 31.58 24.16, 31.1 25 C30.62 25.84, 30.05 26.64, 29.43 27.38 C28.81 28.12, 28.12 28.81, 27.38 29.43 C26.64 30.05, 25.84 30.62, 25 31.1 C24.16 31.58, 23.27 32, 22.37 32.33 C21.46 32.66, 20.51 32.91, 19.56 33.08 C18.61 33.25, 17.63 33.33, 16.67 33.33 C15.7 33.33, 14.72 33.25, 13.77 33.08 C12.82 32.91, 11.87 32.66, 10.97 32.33 C10.06 32, 9.17 31.58, 8.33 31.1 C7.5 30.62, 6.69 30.05, 5.95 29.43 C5.21 28.81, 4.52 28.12, 3.9 27.38 C3.28 26.64, 2.72 25.84, 2.23 25 C1.75 24.16, 1.34 23.27, 1.01 22.37 C0.68 21.46, 0.42 20.51, 0.25 19.56 C0.09 18.61, 0 17.63, 0 16.67 C0 15.7, 0.09 14.72, 0.25 13.77 C0.42 12.82, 0.68 11.87, 1.01 10.97 C1.34 10.06, 1.75 9.17, 2.23 8.33 C2.72 7.5, 3.28 6.69, 3.9 5.95 C4.52 5.21, 5.21 4.52, 5.95 3.9 C6.69 3.28, 7.5 2.72, 8.33 2.23 C9.17 1.75, 10.06 1.34, 10.97 1.01 C11.87 0.68, 12.82 0.42, 13.77 0.25 C14.72 0.09, 15.7 0, 16.67 0 C17.63 0, 18.61 0.09, 19.56 0.25 C20.51 0.42, 21.46 0.68, 22.37 1.01 C23.27 1.34, 24.16 1.75, 25 2.23 C25.84 2.72, 26.64 3.28, 27.38 3.9 C28.12 4.52, 28.81 5.21, 29.43 5.95 C30.05 6.69, 30.62 7.5, 31.1 8.33 C31.58 9.17, 32 10.06, 32.33 10.97 C32.66 11.87, 32.91 12.82, 33.08 13.77 C33.25 14.72, 33.29 16.18, 33.33 16.67 C33.38 17.15, 33.38 16.18, 33.33 16.67" stroke="#000000" stroke-width="1" fill="none"></path></g><g stroke-linecap="round"><g transform="translate(90.5555510852073 97.66666647195825) rotate(0 -1.4210854715202004e-14 18.74999924898151)" fill-rule="evenodd"><path d="M0 0 L0 0 L-0.42 0.01 L-1.61 0.05 L-5.86 0.37 L-11.87 1.26 L-18.75 2.98 L-25.63 5.83 L-31.64 10.07 L-35.89 15.99 L-37.08 19.66 L-37.5 23.86 L-37.15 28.36 L-35.96 31.75 L-33.73 34.17 L-30.26 35.8 L-25.35 36.78 L-18.8 37.29 L-10.42 37.47 L0 37.5 L10.42 37.47 L18.8 37.29 L25.35 36.78 L30.26 35.8 L33.73 34.17 L35.96 31.75 L37.15 28.36 L37.5 23.86 L37.08 19.66 L35.89 15.99 L31.64 10.07 L25.63 5.83 L18.75 2.98 L11.87 1.26 L5.86 0.37 L1.61 0.05 L0.42 0.01 L0 0 L0 0" stroke="none" stroke-width="0" fill="#2962ff" fill-rule="evenodd"></path><path d="M0 0 C0 0, 0 0, 0 0 M0 0 C0 0, 0 0, 0 0 M0 0 C-0.13 0, -0.27 0, -0.42 0.01 M0 0 C-0.14 0, -0.28 0, -0.42 0.01 M-0.42 0.01 C-0.76 0.02, -1.1 0.03, -1.61 0.05 M-0.42 0.01 C-0.87 0.02, -1.32 0.04, -1.61 0.05 M-1.61 0.05 C-3.13 0.16, -4.66 0.28, -5.86 0.37 M-1.61 0.05 C-2.61 0.12, -3.61 0.2, -5.86 0.37 M-5.86 0.37 C-7.56 0.62, -9.27 0.88, -11.87 1.26 M-5.86 0.37 C-7.09 0.55, -8.31 0.73, -11.87 1.26 M-11.87 1.26 C-14.42 1.9, -16.98 2.54, -18.75 2.98 M-11.87 1.26 C-13.71 1.72, -15.55 2.18, -18.75 2.98 M-18.75 2.98 C-20.48 3.7, -22.21 4.41, -25.63 5.83 M-18.75 2.98 C-20.64 3.76, -22.53 4.55, -25.63 5.83 M-25.63 5.83 C-27.58 7.2, -29.52 8.57, -31.64 10.07 M-25.63 5.83 C-27.06 6.83, -28.49 7.84, -31.64 10.07 M-31.64 10.07 C-32.97 11.91, -34.29 13.76, -35.89 15.99 M-31.64 10.07 C-33.05 12.03, -34.46 13.99, -35.89 15.99 M-35.89 15.99 C-36.27 17.16, -36.65 18.33, -37.08 19.66 M-35.89 15.99 C-36.35 17.42, -36.81 18.85, -37.08 19.66 M-37.08 19.66 C-37.24 21.24, -37.4 22.82, -37.5 23.86 M-37.08 19.66 C-37.21 20.92, -37.33 22.18, -37.5 23.86 M-37.5 23.86 C-37.39 25.21, -37.29 26.56, -37.15 28.36 M-37.5 23.86 C-37.39 25.23, -37.29 26.6, -37.15 28.36 M-37.15 28.36 C-36.86 29.19, -36.57 30.01, -35.96 31.75 M-37.15 28.36 C-36.68 29.69, -36.21 31.01, -35.96 31.75 M-35.96 31.75 C-35.18 32.59, -34.39 33.44, -33.73 34.17 M-35.96 31.75 C-35.07 32.71, -34.18 33.68, -33.73 34.17 M-33.73 34.17 C-32.67 34.67, -31.61 35.16, -30.26 35.8 M-33.73 34.17 C-33.02 34.5, -32.31 34.83, -30.26 35.8 M-30.26 35.8 C-28.34 36.18, -26.42 36.56, -25.35 36.78 M-30.26 35.8 C-29.15 36.02, -28.04 36.24, -25.35 36.78 M-25.35 36.78 C-23.79 36.9, -22.23 37.02, -18.8 37.29 M-25.35 36.78 C-23.9 36.89, -22.46 37, -18.8 37.29 M-18.8 37.29 C-16.44 37.34, -14.08 37.39, -10.42 37.47 M-18.8 37.29 C-15.65 37.36, -12.49 37.43, -10.42 37.47 M-10.42 37.47 C-7.18 37.48, -3.94 37.49, 0 37.5 M-10.42 37.47 C-7.17 37.48, -3.91 37.49, 0 37.5 M0 37.5 C3.38 37.49, 6.75 37.48, 10.42 37.47 M0 37.5 C3.9 37.49, 7.8 37.48, 10.42 37.47 M10.42 37.47 C12.77 37.42, 15.12 37.37, 18.8 37.29 M10.42 37.47 C12.37 37.43, 14.33 37.39, 18.8 37.29 M18.8 37.29 C21.13 37.11, 23.46 36.93, 25.35 36.78 M18.8 37.29 C21.29 37.09, 23.78 36.9, 25.35 36.78 M25.35 36.78 C26.78 36.49, 28.21 36.21, 30.26 35.8 M25.35 36.78 C26.94 36.46, 28.54 36.14, 30.26 35.8 M30.26 35.8 C31.14 35.38, 32.02 34.97, 33.73 34.17 M30.26 35.8 C31.27 35.32, 32.28 34.85, 33.73 34.17 M33.73 34.17 C34.57 33.25, 35.42 32.33, 35.96 31.75 M33.73 34.17 C34.2 33.65, 34.68 33.13, 35.96 31.75 M35.96 31.75 C36.24 30.95, 36.52 30.15, 37.15 28.36 M35.96 31.75 C36.24 30.94, 36.53 30.12, 37.15 28.36 M37.15 28.36 C37.28 26.7, 37.41 25.04, 37.5 23.86 M37.15 28.36 C37.26 26.94, 37.37 25.52, 37.5 23.86 M37.5 23.86 C37.35 22.36, 37.2 20.85, 37.08 19.66 M37.5 23.86 C37.38 22.62, 37.25 21.38, 37.08 19.66 M37.08 19.66 C36.64 18.3, 36.2 16.93, 35.89 15.99 M37.08 19.66 C36.69 18.46, 36.3 17.25, 35.89 15.99 M35.89 15.99 C34.98 14.71, 34.06 13.44, 31.64 10.07 M35.89 15.99 C34.35 13.85, 32.82 11.7, 31.64 10.07 M31.64 10.07 C29.9 8.84, 28.17 7.61, 25.63 5.83 M31.64 10.07 C29.62 8.64, 27.61 7.22, 25.63 5.83 M25.63 5.83 C23.98 5.14, 22.33 4.46, 18.75 2.98 M25.63 5.83 C23.71 5.03, 21.78 4.23, 18.75 2.98 M18.75 2.98 C16.59 2.44, 14.43 1.9, 11.87 1.26 M18.75 2.98 C16.61 2.45, 14.47 1.91, 11.87 1.26 M11.87 1.26 C10.62 1.07, 9.37 0.89, 5.86 0.37 M11.87 1.26 C9.9 0.97, 7.94 0.68, 5.86 0.37 M5.86 0.37 C4.9 0.3, 3.95 0.23, 1.61 0.05 M5.86 0.37 C4.97 0.3, 4.08 0.24, 1.61 0.05 M1.61 0.05 C1.22 0.03, 0.83 0.02, 0.42 0.01 M1.61 0.05 C1.24 0.03, 0.86 0.02, 0.42 0.01 M0.42 0.01 C0.3 0, 0.17 0, 0 0 M0.42 0.01 C0.31 0, 0.19 0, 0 0 M0 0 C0 0, 0 0, 0 0 M0 0 C0 0, 0 0, 0 0 M0 0 C0 0, 0 0, 0 0 M0 0 C0 0, 0 0, 0 0" stroke="#000000" stroke-width="1" fill="none"></path></g></g><mask></mask><g stroke-linecap="round" transform="translate(73.88888905975546 47.66666847467286) rotate(0 16.66666649580003 16.66666649580003)"><path d="M33.33 16.67 C33.33 17.63, 33.25 18.61, 33.08 19.56 C32.91 20.51, 32.66 21.46, 32.33 22.37 C32 23.27, 31.58 24.16, 31.1 25 C30.62 25.84, 30.05 26.64, 29.43 27.38 C28.81 28.12, 28.12 28.81, 27.38 29.43 C26.64 30.05, 25.84 30.62, 25 31.1 C24.16 31.58, 23.27 32, 22.37 32.33 C21.46 32.66, 20.51 32.91, 19.56 33.08 C18.61 33.25, 17.63 33.33, 16.67 33.33 C15.7 33.33, 14.72 33.25, 13.77 33.08 C12.82 32.91, 11.87 32.66, 10.97 32.33 C10.06 32, 9.17 31.58, 8.33 31.1 C7.5 30.62, 6.69 30.05, 5.95 29.43 C5.21 28.81, 4.52 28.12, 3.9 27.38 C3.28 26.64, 2.72 25.84, 2.23 25 C1.75 24.16, 1.34 23.27, 1.01 22.37 C0.68 21.46, 0.42 20.51, 0.25 19.56 C0.09 18.61, 0 17.63, 0 16.67 C0 15.7, 0.09 14.72, 0.25 13.77 C0.42 12.82, 0.68 11.87, 1.01 10.97 C1.34 10.06, 1.75 9.17, 2.23 8.33 C2.72 7.5, 3.28 6.69, 3.9 5.95 C4.52 5.21, 5.21 4.52, 5.95 3.9 C6.69 3.28, 7.5 2.72, 8.33 2.23 C9.17 1.75, 10.06 1.34, 10.97 1.01 C11.87 0.68, 12.82 0.42, 13.77 0.25 C14.72 0.09, 15.7 0, 16.67 0 C17.63 0, 18.61 0.09, 19.56 0.25 C20.51 0.42, 21.46 0.68, 22.37 1.01 C23.27 1.34, 24.16 1.75, 25 2.23 C25.84 2.72, 26.64 3.28, 27.38 3.9 C28.12 4.52, 28.81 5.21, 29.43 5.95 C30.05 6.69, 30.62 7.5, 31.1 8.33 C31.58 9.17, 32 10.06, 32.33 10.97 C32.66 11.87, 32.91 12.82, 33.08 13.77 C33.25 14.72, 33.29 16.18, 33.33 16.67 C33.38 17.15, 33.38 16.18, 33.33 16.67" stroke="none" stroke-width="0" fill="#fff"></path><path d="M33.33 16.67 C33.33 17.63, 33.25 18.61, 33.08 19.56 C32.91 20.51, 32.66 21.46, 32.33 22.37 C32 23.27, 31.58 24.16, 31.1 25 C30.62 25.84, 30.05 26.64, 29.43 27.38 C28.81 28.12, 28.12 28.81, 27.38 29.43 C26.64 30.05, 25.84 30.62, 25 31.1 C24.16 31.58, 23.27 32, 22.37 32.33 C21.46 32.66, 20.51 32.91, 19.56 33.08 C18.61 33.25, 17.63 33.33, 16.67 33.33 C15.7 33.33, 14.72 33.25, 13.77 33.08 C12.82 32.91, 11.87 32.66, 10.97 32.33 C10.06 32, 9.17 31.58, 8.33 31.1 C7.5 30.62, 6.69 30.05, 5.95 29.43 C5.21 28.81, 4.52 28.12, 3.9 27.38 C3.28 26.64, 2.72 25.84, 2.23 25 C1.75 24.16, 1.34 23.27, 1.01 22.37 C0.68 21.46, 0.42 20.51, 0.25 19.56 C0.09 18.61, 0 17.63, 0 16.67 C0 15.7, 0.09 14.72, 0.25 13.77 C0.42 12.82, 0.68 11.87, 1.01 10.97 C1.34 10.06, 1.75 9.17, 2.23 8.33 C2.72 7.5, 3.28 6.69, 3.9 5.95 C4.52 5.21, 5.21 4.52, 5.95 3.9 C6.69 3.28, 7.5 2.72, 8.33 2.23 C9.17 1.75, 10.06 1.34, 10.97 1.01 C11.87 0.68, 12.82 0.42, 13.77 0.25 C14.72 0.09, 15.7 0, 16.67 0 C17.63 0, 18.61 0.09, 19.56 0.25 C20.51 0.42, 21.46 0.68, 22.37 1.01 C23.27 1.34, 24.16 1.75, 25 2.23 C25.84 2.72, 26.64 3.28, 27.38 3.9 C28.12 4.52, 28.81 5.21, 29.43 5.95 C30.05 6.69, 30.62 7.5, 31.1 8.33 C31.58 9.17, 32 10.06, 32.33 10.97 C32.66 11.87, 32.91 12.82, 33.08 13.77 C33.25 14.72, 33.29 16.18, 33.33 16.67 C33.38 17.15, 33.38 16.18, 33.33 16.67" stroke="#000000" stroke-width="1" fill="none"></path></g><g stroke-linecap="round"><g transform="translate(90.5555510852073 93.50000394582776) rotate(0 -1.4210854715202004e-14 18.74999924898151)" fill-rule="evenodd"><path d="M0 0 L0 0 L-0.42 0.01 L-1.61 0.05 L-5.86 0.37 L-11.87 1.26 L-18.75 2.98 L-25.63 5.83 L-31.64 10.07 L-35.89 15.99 L-37.08 19.66 L-37.5 23.86 L-37.15 28.36 L-35.96 31.75 L-33.73 34.17 L-30.26 35.8 L-25.35 36.78 L-18.8 37.29 L-10.42 37.47 L0 37.5 L10.42 37.47 L18.8 37.29 L25.35 36.78 L30.26 35.8 L33.73 34.17 L35.96 31.75 L37.15 28.36 L37.5 23.86 L37.08 19.66 L35.89 15.99 L31.64 10.07 L25.63 5.83 L18.75 2.98 L11.87 1.26 L5.86 0.37 L1.61 0.05 L0.42 0.01 L0 0 L0 0" stroke="none" stroke-width="0" fill="#fff" fill-rule="evenodd"></path><path d="M0 0 C0 0, 0 0, 0 0 M0 0 C0 0, 0 0, 0 0 M0 0 C-0.13 0, -0.26 0, -0.42 0.01 M0 0 C-0.11 0, -0.22 0, -0.42 0.01 M-0.42 0.01 C-0.81 0.02, -1.2 0.03, -1.61 0.05 M-0.42 0.01 C-0.66 0.01, -0.9 0.02, -1.61 0.05 M-1.61 0.05 C-2.91 0.15, -4.22 0.25, -5.86 0.37 M-1.61 0.05 C-3.25 0.17, -4.9 0.3, -5.86 0.37 M-5.86 0.37 C-8.19 0.72, -10.52 1.06, -11.87 1.26 M-5.86 0.37 C-7.41 0.6, -8.95 0.83, -11.87 1.26 M-11.87 1.26 C-13.27 1.61, -14.68 1.96, -18.75 2.98 M-11.87 1.26 C-13.58 1.69, -15.3 2.12, -18.75 2.98 M-18.75 2.98 C-21.02 3.92, -23.29 4.86, -25.63 5.83 M-18.75 2.98 C-20.78 3.82, -22.8 4.66, -25.63 5.83 M-25.63 5.83 C-27.01 6.8, -28.39 7.77, -31.64 10.07 M-25.63 5.83 C-26.93 6.74, -28.23 7.66, -31.64 10.07 M-31.64 10.07 C-32.98 11.93, -34.31 13.79, -35.89 15.99 M-31.64 10.07 C-32.61 11.42, -33.58 12.77, -35.89 15.99 M-35.89 15.99 C-36.24 17.08, -36.6 18.17, -37.08 19.66 M-35.89 15.99 C-36.28 17.2, -36.68 18.42, -37.08 19.66 M-37.08 19.66 C-37.18 20.67, -37.28 21.68, -37.5 23.86 M-37.08 19.66 C-37.17 20.54, -37.26 21.43, -37.5 23.86 M-37.5 23.86 C-37.39 25.27, -37.28 26.68, -37.15 28.36 M-37.5 23.86 C-37.42 24.89, -37.34 25.92, -37.15 28.36 M-37.15 28.36 C-36.86 29.19, -36.57 30.01, -35.96 31.75 M-37.15 28.36 C-36.76 29.47, -36.37 30.58, -35.96 31.75 M-35.96 31.75 C-35.35 32.4, -34.75 33.06, -33.73 34.17 M-35.96 31.75 C-35.46 32.29, -34.96 32.83, -33.73 34.17 M-33.73 34.17 C-33.03 34.5, -32.34 34.82, -30.26 35.8 M-33.73 34.17 C-32.67 34.67, -31.61 35.16, -30.26 35.8 M-30.26 35.8 C-28.52 36.14, -26.78 36.49, -25.35 36.78 M-30.26 35.8 C-29.16 36.02, -28.06 36.24, -25.35 36.78 M-25.35 36.78 C-23.87 36.9, -22.38 37.01, -18.8 37.29 M-25.35 36.78 C-24.04 36.88, -22.73 36.98, -18.8 37.29 M-18.8 37.29 C-16.83 37.33, -14.86 37.37, -10.42 37.47 M-18.8 37.29 C-17 37.33, -15.19 37.37, -10.42 37.47 M-10.42 37.47 C-6.5 37.48, -2.58 37.49, 0 37.5 M-10.42 37.47 C-7.2 37.48, -3.97 37.49, 0 37.5 M0 37.5 C3.91 37.49, 7.82 37.48, 10.42 37.47 M0 37.5 C3.92 37.49, 7.84 37.48, 10.42 37.47 M10.42 37.47 C13.29 37.41, 16.17 37.35, 18.8 37.29 M10.42 37.47 C12.63 37.42, 14.84 37.38, 18.8 37.29 M18.8 37.29 C20.93 37.12, 23.06 36.96, 25.35 36.78 M18.8 37.29 C21.21 37.1, 23.62 36.91, 25.35 36.78 M25.35 36.78 C27.11 36.43, 28.87 36.07, 30.26 35.8 M25.35 36.78 C26.97 36.46, 28.59 36.13, 30.26 35.8 M30.26 35.8 C31.03 35.43, 31.81 35.07, 33.73 34.17 M30.26 35.8 C31.08 35.41, 31.9 35.03, 33.73 34.17 M33.73 34.17 C34.38 33.45, 35.04 32.74, 35.96 31.75 M33.73 34.17 C34.42 33.41, 35.12 32.66, 35.96 31.75 M35.96 31.75 C36.31 30.73, 36.67 29.72, 37.15 28.36 M35.96 31.75 C36.33 30.67, 36.71 29.6, 37.15 28.36 M37.15 28.36 C37.28 26.73, 37.4 25.09, 37.5 23.86 M37.15 28.36 C37.23 27.25, 37.32 26.13, 37.5 23.86 M37.5 23.86 C37.34 22.3, 37.19 20.75, 37.08 19.66 M37.5 23.86 C37.36 22.48, 37.22 21.09, 37.08 19.66 M37.08 19.66 C36.83 18.88, 36.57 18.09, 35.89 15.99 M37.08 19.66 C36.71 18.51, 36.33 17.35, 35.89 15.99 M35.89 15.99 C34.43 13.95, 32.97 11.91, 31.64 10.07 M35.89 15.99 C34.71 14.34, 33.52 12.69, 31.64 10.07 M31.64 10.07 C30.25 9.08, 28.85 8.1, 25.63 5.83 M31.64 10.07 C29.72 8.71, 27.8 7.35, 25.63 5.83 M25.63 5.83 C23.47 4.93, 21.3 4.04, 18.75 2.98 M25.63 5.83 C23.19 4.82, 20.75 3.81, 18.75 2.98 M18.75 2.98 C17.04 2.55, 15.32 2.12, 11.87 1.26 M18.75 2.98 C17.28 2.62, 15.82 2.25, 11.87 1.26 M11.87 1.26 C10.26 1.02, 8.65 0.78, 5.86 0.37 M11.87 1.26 C10.45 1.05, 9.03 0.84, 5.86 0.37 M5.86 0.37 C4.88 0.3, 3.91 0.22, 1.61 0.05 M5.86 0.37 C4.26 0.25, 2.67 0.13, 1.61 0.05 M1.61 0.05 C1.16 0.03, 0.72 0.02, 0.42 0.01 M1.61 0.05 C1.15 0.03, 0.69 0.02, 0.42 0.01 M0.42 0.01 C0.26 0, 0.1 0, 0 0 M0.42 0.01 C0.28 0, 0.15 0, 0 0 M0 0 C0 0, 0 0, 0 0 M0 0 C0 0, 0 0, 0 0 M0 0 C0 0, 0 0, 0 0 M0 0 C0 0, 0 0, 0 0" stroke="#000000" stroke-width="1" fill="none"></path></g></g><mask></mask><g transform="translate(6 175.00000063578273) rotate(0 85 19.5)"><text x="85" y="0" font-family="Helvetica, Segoe UI Emoji" font-size="34.19428571428574px" fill="#000000" text-anchor="middle" style="white-space: pre;" direction="ltr" dominant-baseline="text-before-edge">People API</text></g></svg>