<svg version="1.1" xmlns="http://www.w3.org/2000/svg" viewBox="0 0 172 84" width="172" height="84">
  <!-- svg-source:excalidraw -->
  
  <defs>
    
    
  </defs>
  <g stroke-linecap="round" transform="translate(6 6) rotate(0 80 36)"><path d="M18 0 C46.6 0, 75.2 0, 142 0 C154 0, 160 6, 160 18 C160 29.1, 160 40.2, 160 54 C160 66, 154 72, 142 72 C94.19 72, 46.39 72, 18 72 C6 72, 0 66, 0 54 C0 42.87, 0 31.74, 0 18 C0 6, 6 0, 18 0" stroke="none" stroke-width="0" fill="#FFF"></path><path d="M18 0 C59.64 0, 101.29 0, 142 0 M18 0 C53.27 0, 88.54 0, 142 0 M142 0 C154 0, 160 6, 160 18 M142 0 C154 0, 160 6, 160 18 M160 18 C160 27.36, 160 36.71, 160 54 M160 18 C160 32.03, 160 46.07, 160 54 M160 54 C160 66, 154 72, 142 72 M160 54 C160 66, 154 72, 142 72 M142 72 C108.19 72, 74.38 72, 18 72 M142 72 C116.37 72, 90.74 72, 18 72 M18 72 C6 72, 0 66, 0 54 M18 72 C6 72, 0 66, 0 54 M0 54 C0 41.8, 0 29.59, 0 18 M0 54 C0 39.7, 0 25.4, 0 18 M0 18 C0 6, 6 0, 18 0 M0 18 C0 6, 6 0, 18 0" stroke="#4285f4" stroke-width="2" fill="none"></path></g><g transform="translate(71 35) rotate(0 44 7)"><text x="0" y="0" font-family="Helvetica, Segoe UI Emoji" font-size="12px" fill="#000000" text-anchor="start" style="white-space: pre;" direction="ltr" dominant-baseline="text-before-edge">Cloud Functions</text></g><g stroke-linecap="round"><g transform="translate(24.313170075416565 46.983768463134766) rotate(0 2.121898829936981 -5.035223007202148)" fill-rule="evenodd"><path d="M0 0 L4.24 3.45 L4.24 -13.52 L0 -10.09 L0 0" stroke="none" stroke-width="0" fill="#669df6" fill-rule="evenodd"></path><path d="M0 0 C0.95 0.77, 1.9 1.55, 4.24 3.45 M0 0 C1.52 1.24, 3.05 2.48, 4.24 3.45 M4.24 3.45 C4.24 -3.02, 4.24 -9.49, 4.24 -13.52 M4.24 3.45 C4.24 -0.11, 4.24 -3.67, 4.24 -13.52 M4.24 -13.52 C2.55 -12.15, 0.85 -10.77, 0 -10.09 M4.24 -13.52 C3.31 -12.76, 2.37 -12.01, 0 -10.09 M0 -10.09 C0 -7.34, 0 -4.59, 0 0 M0 -10.09 C0 -8, 0 -5.92, 0 0 M0 0 C0 0, 0 0, 0 0 M0 0 C0 0, 0 0, 0 0" stroke="#00000000" stroke-width="1" fill="none"></path></g></g><mask></mask><g stroke-linecap="round"><g transform="translate(24.313170075416565 39.118531227111816) rotate(0 2.121898829936981 -2.8275656700134277)" fill-rule="evenodd"><path d="M0 0 L4.24 -2.83 L4.24 -5.66 L0 0" stroke="none" stroke-width="0" fill="#4285f4" fill-rule="evenodd"></path><path d="M0 0 C1.55 -1.03, 3.09 -2.06, 4.24 -2.83 M0 0 C1.36 -0.91, 2.73 -1.82, 4.24 -2.83 M4.24 -2.83 C4.24 -3.63, 4.24 -4.43, 4.24 -5.66 M4.24 -2.83 C4.24 -3.46, 4.24 -4.09, 4.24 -5.66 M4.24 -5.66 C2.65 -3.53, 1.06 -1.41, 0 0 M4.24 -5.66 C2.83 -3.77, 1.41 -1.88, 0 0 M0 0 C0 0, 0 0, 0 0 M0 0 C0 0, 0 0, 0 0" stroke="#00000000" stroke-width="1" fill="none"></path></g></g><mask></mask><g stroke-linecap="round"><g transform="translate(28.556967735290527 50.43369102478027) rotate(0 -2.121898829936981 -2.830015182495117)" fill-rule="evenodd"><path d="M0 0 L0 -2.83 L-4.24 -5.66 L0 0" stroke="none" stroke-width="0" fill="#4285f4" fill-rule="evenodd"></path><path d="M0 0 C0 -0.99, 0 -1.97, 0 -2.83 M0 0 C0 -0.95, 0 -1.89, 0 -2.83 M0 -2.83 C-1.05 -3.53, -2.1 -4.23, -4.24 -5.66 M0 -2.83 C-1 -3.5, -2 -4.16, -4.24 -5.66 M-4.24 -5.66 C-3.11 -4.15, -1.98 -2.64, 0 0 M-4.24 -5.66 C-2.62 -3.5, -1 -1.34, 0 0 M0 0 C0 0, 0 0, 0 0 M0 0 C0 0, 0 0, 0 0" stroke="#00000000" stroke-width="1" fill="none"></path></g></g><mask></mask><g stroke-linecap="round"><g transform="translate(32.79586601257324 53.26125526428223) rotate(0 -4.241347968578339 -2.830014228820801)" fill-rule="evenodd"><path d="M0 0 L-8.48 -8.49 L-8.48 -2.83 L-2.83 2.83 L0 0" stroke="none" stroke-width="0" fill="#aecbfa" fill-rule="evenodd"></path><path d="M0 0 C-1.88 -1.88, -3.76 -3.76, -8.48 -8.49 M0 0 C-2.91 -2.91, -5.82 -5.83, -8.48 -8.49 M-8.48 -8.49 C-8.48 -7.33, -8.48 -6.18, -8.48 -2.83 M-8.48 -8.49 C-8.48 -6.46, -8.48 -4.44, -8.48 -2.83 M-8.48 -2.83 C-6.61 -0.96, -4.74 0.91, -2.83 2.83 M-8.48 -2.83 C-6.36 -0.71, -4.24 1.41, -2.83 2.83 M-2.83 2.83 C-1.87 1.87, -0.9 0.9, 0 0 M-2.83 2.83 C-1.89 1.89, -0.96 0.96, 0 0 M0 0 C0 0, 0 0, 0 0 M0 0 C0 0, 0 0, 0 0" stroke="#00000000" stroke-width="1" fill="none"></path></g></g><mask></mask><g stroke-linecap="round"><g transform="translate(29.953599452972412 27.822970986366272) rotate(0 -1.4039823412895203 5.647780120372772)" fill-rule="evenodd"><path d="M0 0 L-5.64 5.64 L-5.63 11.3 L2.83 2.83 L0 0" stroke="none" stroke-width="0" fill="#aecbfa" fill-rule="evenodd"></path><path d="M0 0 C-1.52 1.52, -3.03 3.03, -5.64 5.64 M0 0 C-1.73 1.73, -3.47 3.47, -5.64 5.64 M-5.64 5.64 C-5.64 7.49, -5.63 9.34, -5.63 11.3 M-5.64 5.64 C-5.64 7.45, -5.63 9.26, -5.63 11.3 M-5.63 11.3 C-2.4 8.06, 0.83 4.83, 2.83 2.83 M-5.63 11.3 C-3 8.67, -0.37 6.04, 2.83 2.83 M2.83 2.83 C1.75 1.75, 0.67 0.67, 0 0 M2.83 2.83 C1.74 1.74, 0.65 0.64, 0 0 M0 0 C0 0, 0 0, 0 0 M0 0 C0 0, 0 0, 0 0" stroke="#00000000" stroke-width="1" fill="none"></path></g></g><mask></mask><g stroke-linecap="round"><g transform="translate(52.59372138977051 36.928025245666504) rotate(0 -2.119448661804199 5.035222053527832)" fill-rule="evenodd"><path d="M0 0 L-4.24 -3.45 L-4.24 13.52 L0 10.09 L0 0" stroke="none" stroke-width="0" fill="#669df6" fill-rule="evenodd"></path><path d="M0 0 C-1.21 -0.98, -2.41 -1.96, -4.24 -3.45 M0 0 C-1.26 -1.02, -2.52 -2.05, -4.24 -3.45 M-4.24 -3.45 C-4.24 1.56, -4.24 6.57, -4.24 13.52 M-4.24 -3.45 C-4.24 1.61, -4.24 6.67, -4.24 13.52 M-4.24 13.52 C-3.15 12.64, -2.07 11.77, 0 10.09 M-4.24 13.52 C-3.29 12.75, -2.34 11.98, 0 10.09 M0 10.09 C0 6.64, 0 3.18, 0 0 M0 10.09 C0 7.06, 0 4.02, 0 0 M0 0 C0 0, 0 0, 0 0 M0 0 C0 0, 0 0, 0 0" stroke="#00000000" stroke-width="1" fill="none"></path></g></g><mask></mask><g stroke-linecap="round"><g transform="translate(52.59372138977051 44.78836250305176) rotate(0 -2.119448661804199 2.830015182495117)" fill-rule="evenodd"><path d="M0 0 L-4.24 2.83 L-4.24 5.66 L0 0" stroke="none" stroke-width="0" fill="#4285f4" fill-rule="evenodd"></path><path d="M0 0 C-1.08 0.72, -2.17 1.45, -4.24 2.83 M0 0 C-1.69 1.13, -3.39 2.26, -4.24 2.83 M-4.24 2.83 C-4.24 3.56, -4.24 4.3, -4.24 5.66 M-4.24 2.83 C-4.24 3.93, -4.24 5.04, -4.24 5.66 M-4.24 5.66 C-3.26 4.36, -2.28 3.05, 0 0 M-4.24 5.66 C-3.35 4.47, -2.45 3.28, 0 0 M0 0 C0 0, 0 0, 0 0 M0 0 C0 0, 0 0, 0 0" stroke="#00000000" stroke-width="1" fill="none"></path></g></g><mask></mask><g stroke-linecap="round"><g transform="translate(48.35482406616211 33.47810173034668) rotate(0 2.119448661804199 2.8275651931762695)" fill-rule="evenodd"><path d="M0 0 L0 2.83 L4.24 5.66 L0 0" stroke="none" stroke-width="0" fill="#4285f4" fill-rule="evenodd"></path><path d="M0 0 C0 1.01, 0 2.03, 0 2.83 M0 0 C0 1.08, 0 2.16, 0 2.83 M0 2.83 C0.89 3.42, 1.78 4.01, 4.24 5.66 M0 2.83 C1.69 3.96, 3.39 5.09, 4.24 5.66 M4.24 5.66 C3.3 4.41, 2.37 3.16, 0 0 M4.24 5.66 C3.08 4.11, 1.93 2.57, 0 0 M0 0 C0 0, 0 0, 0 0 M0 0 C0 0, 0 0, 0 0" stroke="#00000000" stroke-width="1" fill="none"></path></g></g><mask></mask><g stroke-linecap="round"><g transform="translate(44.111026763916016 30.650536060333252) rotate(0 4.241347312927246 2.8275654911994934)" fill-rule="evenodd"><path d="M0 0 L8.48 8.48 L8.48 2.83 L2.83 -2.83 L0 0" stroke="none" stroke-width="0" fill="#aecbfa" fill-rule="evenodd"></path><path d="M0 0 C2.72 2.72, 5.45 5.45, 8.48 8.48 M0 0 C2.41 2.41, 4.82 4.82, 8.48 8.48 M8.48 8.48 C8.48 7.22, 8.48 5.96, 8.48 2.83 M8.48 8.48 C8.48 6.36, 8.48 4.24, 8.48 2.83 M8.48 2.83 C6.59 0.94, 4.7 -0.95, 2.83 -2.83 M8.48 2.83 C7.12 1.46, 5.75 0.1, 2.83 -2.83 M2.83 -2.83 C1.84 -1.84, 0.86 -0.86, 0 0 M2.83 -2.83 C2 -2, 1.17 -1.17, 0 0 M0 0 C0 0, 0 0, 0 0 M0 0 C0 0, 0 0, 0 0" stroke="#00000000" stroke-width="1" fill="none"></path></g></g><mask></mask><g stroke-linecap="round"><g transform="translate(46.95329284667969 56.08882141113281) rotate(0 1.4064311981201172 -5.650229454040527)" fill-rule="evenodd"><path d="M0 0 L5.64 -5.64 L5.63 -11.3 L-2.83 -2.83 L0 0" stroke="none" stroke-width="0" fill="#aecbfa" fill-rule="evenodd"></path><path d="M0 0 C1.89 -1.89, 3.78 -3.78, 5.64 -5.64 M0 0 C1.4 -1.4, 2.79 -2.79, 5.64 -5.64 M5.64 -5.64 C5.64 -6.97, 5.63 -8.31, 5.63 -11.3 M5.64 -5.64 C5.64 -7.15, 5.63 -8.66, 5.63 -11.3 M5.63 -11.3 C2.4 -8.07, -0.83 -4.83, -2.83 -2.83 M5.63 -11.3 C3.47 -9.14, 1.31 -6.97, -2.83 -2.83 M-2.83 -2.83 C-1.89 -1.89, -0.95 -0.95, 0 0 M-2.83 -2.83 C-1.82 -1.82, -0.81 -0.81, 0 0 M0 0 C0 0, 0 0, 0 0 M0 0 C0 0, 0 0, 0 0" stroke="#00000000" stroke-width="1" fill="none"></path></g></g><mask></mask><g stroke-linecap="round" transform="translate(31.3796329498291 40.52986240386963) rotate(0 1.4162328243255615 1.4162328243255615)"><path d="M2.83 1.42 C2.83 1.5, 2.83 1.58, 2.81 1.66 C2.8 1.74, 2.78 1.82, 2.75 1.9 C2.72 1.98, 2.68 2.05, 2.64 2.12 C2.6 2.2, 2.55 2.26, 2.5 2.33 C2.45 2.39, 2.39 2.45, 2.33 2.5 C2.26 2.55, 2.2 2.6, 2.12 2.64 C2.05 2.68, 1.98 2.72, 1.9 2.75 C1.82 2.78, 1.74 2.8, 1.66 2.81 C1.58 2.83, 1.5 2.83, 1.42 2.83 C1.33 2.83, 1.25 2.83, 1.17 2.81 C1.09 2.8, 1.01 2.78, 0.93 2.75 C0.85 2.72, 0.78 2.68, 0.71 2.64 C0.64 2.6, 0.57 2.55, 0.51 2.5 C0.44 2.45, 0.38 2.39, 0.33 2.33 C0.28 2.26, 0.23 2.2, 0.19 2.12 C0.15 2.05, 0.11 1.98, 0.09 1.9 C0.06 1.82, 0.04 1.74, 0.02 1.66 C0.01 1.58, 0 1.5, 0 1.42 C0 1.33, 0.01 1.25, 0.02 1.17 C0.04 1.09, 0.06 1.01, 0.09 0.93 C0.11 0.85, 0.15 0.78, 0.19 0.71 C0.23 0.64, 0.28 0.57, 0.33 0.51 C0.38 0.44, 0.44 0.38, 0.51 0.33 C0.57 0.28, 0.64 0.23, 0.71 0.19 C0.78 0.15, 0.85 0.11, 0.93 0.09 C1.01 0.06, 1.09 0.04, 1.17 0.02 C1.25 0.01, 1.33 0, 1.42 0 C1.5 0, 1.58 0.01, 1.66 0.02 C1.74 0.04, 1.82 0.06, 1.9 0.09 C1.98 0.11, 2.05 0.15, 2.12 0.19 C2.2 0.23, 2.26 0.28, 2.33 0.33 C2.39 0.38, 2.45 0.44, 2.5 0.51 C2.55 0.57, 2.6 0.64, 2.64 0.71 C2.68 0.78, 2.72 0.85, 2.75 0.93 C2.78 1.01, 2.8 1.09, 2.81 1.17 C2.83 1.25, 2.83 1.38, 2.83 1.42 C2.84 1.46, 2.84 1.38, 2.83 1.42" stroke="none" stroke-width="0" fill="#aecbfa"></path><path d="M2.83 1.42 C2.83 1.5, 2.83 1.58, 2.81 1.66 C2.8 1.74, 2.78 1.82, 2.75 1.9 C2.72 1.98, 2.68 2.05, 2.64 2.12 C2.6 2.2, 2.55 2.26, 2.5 2.33 C2.45 2.39, 2.39 2.45, 2.33 2.5 C2.26 2.55, 2.2 2.6, 2.12 2.64 C2.05 2.68, 1.98 2.72, 1.9 2.75 C1.82 2.78, 1.74 2.8, 1.66 2.81 C1.58 2.83, 1.5 2.83, 1.42 2.83 C1.33 2.83, 1.25 2.83, 1.17 2.81 C1.09 2.8, 1.01 2.78, 0.93 2.75 C0.85 2.72, 0.78 2.68, 0.71 2.64 C0.64 2.6, 0.57 2.55, 0.51 2.5 C0.44 2.45, 0.38 2.39, 0.33 2.33 C0.28 2.26, 0.23 2.2, 0.19 2.12 C0.15 2.05, 0.11 1.98, 0.09 1.9 C0.06 1.82, 0.04 1.74, 0.02 1.66 C0.01 1.58, 0 1.5, 0 1.42 C0 1.33, 0.01 1.25, 0.02 1.17 C0.04 1.09, 0.06 1.01, 0.09 0.93 C0.11 0.85, 0.15 0.78, 0.19 0.71 C0.23 0.64, 0.28 0.57, 0.33 0.51 C0.38 0.44, 0.44 0.38, 0.51 0.33 C0.57 0.28, 0.64 0.23, 0.71 0.19 C0.78 0.15, 0.85 0.11, 0.93 0.09 C1.01 0.06, 1.09 0.04, 1.17 0.02 C1.25 0.01, 1.33 0, 1.42 0 C1.5 0, 1.58 0.01, 1.66 0.02 C1.74 0.04, 1.82 0.06, 1.9 0.09 C1.98 0.11, 2.05 0.15, 2.12 0.19 C2.2 0.23, 2.26 0.28, 2.33 0.33 C2.39 0.38, 2.45 0.44, 2.5 0.51 C2.55 0.57, 2.6 0.64, 2.64 0.71 C2.68 0.78, 2.72 0.85, 2.75 0.93 C2.78 1.01, 2.8 1.09, 2.81 1.17 C2.83 1.25, 2.83 1.38, 2.83 1.42 C2.84 1.46, 2.84 1.38, 2.83 1.42" stroke="transparent" stroke-width="1" fill="none"></path></g><g stroke-linecap="round" transform="translate(37.03966426849365 40.52986240386963) rotate(0 1.4162328243255615 1.4162328243255615)"><path d="M2.83 1.42 C2.83 1.5, 2.83 1.58, 2.81 1.66 C2.8 1.74, 2.78 1.82, 2.75 1.9 C2.72 1.98, 2.68 2.05, 2.64 2.12 C2.6 2.2, 2.55 2.26, 2.5 2.33 C2.45 2.39, 2.39 2.45, 2.33 2.5 C2.26 2.55, 2.2 2.6, 2.12 2.64 C2.05 2.68, 1.98 2.72, 1.9 2.75 C1.82 2.78, 1.74 2.8, 1.66 2.81 C1.58 2.83, 1.5 2.83, 1.42 2.83 C1.33 2.83, 1.25 2.83, 1.17 2.81 C1.09 2.8, 1.01 2.78, 0.93 2.75 C0.85 2.72, 0.78 2.68, 0.71 2.64 C0.64 2.6, 0.57 2.55, 0.51 2.5 C0.44 2.45, 0.38 2.39, 0.33 2.33 C0.28 2.26, 0.23 2.2, 0.19 2.12 C0.15 2.05, 0.11 1.98, 0.09 1.9 C0.06 1.82, 0.04 1.74, 0.02 1.66 C0.01 1.58, 0 1.5, 0 1.42 C0 1.33, 0.01 1.25, 0.02 1.17 C0.04 1.09, 0.06 1.01, 0.09 0.93 C0.11 0.85, 0.15 0.78, 0.19 0.71 C0.23 0.64, 0.28 0.57, 0.33 0.51 C0.38 0.44, 0.44 0.38, 0.51 0.33 C0.57 0.28, 0.64 0.23, 0.71 0.19 C0.78 0.15, 0.85 0.11, 0.93 0.09 C1.01 0.06, 1.09 0.04, 1.17 0.02 C1.25 0.01, 1.33 0, 1.42 0 C1.5 0, 1.58 0.01, 1.66 0.02 C1.74 0.04, 1.82 0.06, 1.9 0.09 C1.98 0.11, 2.05 0.15, 2.12 0.19 C2.2 0.23, 2.26 0.28, 2.33 0.33 C2.39 0.38, 2.45 0.44, 2.5 0.51 C2.55 0.57, 2.6 0.64, 2.64 0.71 C2.68 0.78, 2.72 0.85, 2.75 0.93 C2.78 1.01, 2.8 1.09, 2.81 1.17 C2.83 1.25, 2.83 1.38, 2.83 1.42 C2.84 1.46, 2.84 1.38, 2.83 1.42" stroke="none" stroke-width="0" fill="#aecbfa"></path><path d="M2.83 1.42 C2.83 1.5, 2.83 1.58, 2.81 1.66 C2.8 1.74, 2.78 1.82, 2.75 1.9 C2.72 1.98, 2.68 2.05, 2.64 2.12 C2.6 2.2, 2.55 2.26, 2.5 2.33 C2.45 2.39, 2.39 2.45, 2.33 2.5 C2.26 2.55, 2.2 2.6, 2.12 2.64 C2.05 2.68, 1.98 2.72, 1.9 2.75 C1.82 2.78, 1.74 2.8, 1.66 2.81 C1.58 2.83, 1.5 2.83, 1.42 2.83 C1.33 2.83, 1.25 2.83, 1.17 2.81 C1.09 2.8, 1.01 2.78, 0.93 2.75 C0.85 2.72, 0.78 2.68, 0.71 2.64 C0.64 2.6, 0.57 2.55, 0.51 2.5 C0.44 2.45, 0.38 2.39, 0.33 2.33 C0.28 2.26, 0.23 2.2, 0.19 2.12 C0.15 2.05, 0.11 1.98, 0.09 1.9 C0.06 1.82, 0.04 1.74, 0.02 1.66 C0.01 1.58, 0 1.5, 0 1.42 C0 1.33, 0.01 1.25, 0.02 1.17 C0.04 1.09, 0.06 1.01, 0.09 0.93 C0.11 0.85, 0.15 0.78, 0.19 0.71 C0.23 0.64, 0.28 0.57, 0.33 0.51 C0.38 0.44, 0.44 0.38, 0.51 0.33 C0.57 0.28, 0.64 0.23, 0.71 0.19 C0.78 0.15, 0.85 0.11, 0.93 0.09 C1.01 0.06, 1.09 0.04, 1.17 0.02 C1.25 0.01, 1.33 0, 1.42 0 C1.5 0, 1.58 0.01, 1.66 0.02 C1.74 0.04, 1.82 0.06, 1.9 0.09 C1.98 0.11, 2.05 0.15, 2.12 0.19 C2.2 0.23, 2.26 0.28, 2.33 0.33 C2.39 0.38, 2.45 0.44, 2.5 0.51 C2.55 0.57, 2.6 0.64, 2.64 0.71 C2.68 0.78, 2.72 0.85, 2.75 0.93 C2.78 1.01, 2.8 1.09, 2.81 1.17 C2.83 1.25, 2.83 1.38, 2.83 1.42 C2.84 1.46, 2.84 1.38, 2.83 1.42" stroke="transparent" stroke-width="1" fill="none"></path></g><g stroke-linecap="round" transform="translate(42.680091857910156 40.52986240386963) rotate(0 1.4162328243255615 1.4162328243255615)"><path d="M2.83 1.42 C2.83 1.5, 2.83 1.58, 2.81 1.66 C2.8 1.74, 2.78 1.82, 2.75 1.9 C2.72 1.98, 2.68 2.05, 2.64 2.12 C2.6 2.2, 2.55 2.26, 2.5 2.33 C2.45 2.39, 2.39 2.45, 2.33 2.5 C2.26 2.55, 2.2 2.6, 2.12 2.64 C2.05 2.68, 1.98 2.72, 1.9 2.75 C1.82 2.78, 1.74 2.8, 1.66 2.81 C1.58 2.83, 1.5 2.83, 1.42 2.83 C1.33 2.83, 1.25 2.83, 1.17 2.81 C1.09 2.8, 1.01 2.78, 0.93 2.75 C0.85 2.72, 0.78 2.68, 0.71 2.64 C0.64 2.6, 0.57 2.55, 0.51 2.5 C0.44 2.45, 0.38 2.39, 0.33 2.33 C0.28 2.26, 0.23 2.2, 0.19 2.12 C0.15 2.05, 0.11 1.98, 0.09 1.9 C0.06 1.82, 0.04 1.74, 0.02 1.66 C0.01 1.58, 0 1.5, 0 1.42 C0 1.33, 0.01 1.25, 0.02 1.17 C0.04 1.09, 0.06 1.01, 0.09 0.93 C0.11 0.85, 0.15 0.78, 0.19 0.71 C0.23 0.64, 0.28 0.57, 0.33 0.51 C0.38 0.44, 0.44 0.38, 0.51 0.33 C0.57 0.28, 0.64 0.23, 0.71 0.19 C0.78 0.15, 0.85 0.11, 0.93 0.09 C1.01 0.06, 1.09 0.04, 1.17 0.02 C1.25 0.01, 1.33 0, 1.42 0 C1.5 0, 1.58 0.01, 1.66 0.02 C1.74 0.04, 1.82 0.06, 1.9 0.09 C1.98 0.11, 2.05 0.15, 2.12 0.19 C2.2 0.23, 2.26 0.28, 2.33 0.33 C2.39 0.38, 2.45 0.44, 2.5 0.51 C2.55 0.57, 2.6 0.64, 2.64 0.71 C2.68 0.78, 2.72 0.85, 2.75 0.93 C2.78 1.01, 2.8 1.09, 2.81 1.17 C2.83 1.25, 2.83 1.38, 2.83 1.42 C2.84 1.46, 2.84 1.38, 2.83 1.42" stroke="none" stroke-width="0" fill="#aecbfa"></path><path d="M2.83 1.42 C2.83 1.5, 2.83 1.58, 2.81 1.66 C2.8 1.74, 2.78 1.82, 2.75 1.9 C2.72 1.98, 2.68 2.05, 2.64 2.12 C2.6 2.2, 2.55 2.26, 2.5 2.33 C2.45 2.39, 2.39 2.45, 2.33 2.5 C2.26 2.55, 2.2 2.6, 2.12 2.64 C2.05 2.68, 1.98 2.72, 1.9 2.75 C1.82 2.78, 1.74 2.8, 1.66 2.81 C1.58 2.83, 1.5 2.83, 1.42 2.83 C1.33 2.83, 1.25 2.83, 1.17 2.81 C1.09 2.8, 1.01 2.78, 0.93 2.75 C0.85 2.72, 0.78 2.68, 0.71 2.64 C0.64 2.6, 0.57 2.55, 0.51 2.5 C0.44 2.45, 0.38 2.39, 0.33 2.33 C0.28 2.26, 0.23 2.2, 0.19 2.12 C0.15 2.05, 0.11 1.98, 0.09 1.9 C0.06 1.82, 0.04 1.74, 0.02 1.66 C0.01 1.58, 0 1.5, 0 1.42 C0 1.33, 0.01 1.25, 0.02 1.17 C0.04 1.09, 0.06 1.01, 0.09 0.93 C0.11 0.85, 0.15 0.78, 0.19 0.71 C0.23 0.64, 0.28 0.57, 0.33 0.51 C0.38 0.44, 0.44 0.38, 0.51 0.33 C0.57 0.28, 0.64 0.23, 0.71 0.19 C0.78 0.15, 0.85 0.11, 0.93 0.09 C1.01 0.06, 1.09 0.04, 1.17 0.02 C1.25 0.01, 1.33 0, 1.42 0 C1.5 0, 1.58 0.01, 1.66 0.02 C1.74 0.04, 1.82 0.06, 1.9 0.09 C1.98 0.11, 2.05 0.15, 2.12 0.19 C2.2 0.23, 2.26 0.28, 2.33 0.33 C2.39 0.38, 2.45 0.44, 2.5 0.51 C2.55 0.57, 2.6 0.64, 2.64 0.71 C2.68 0.78, 2.72 0.85, 2.75 0.93 C2.78 1.01, 2.8 1.09, 2.81 1.17 C2.83 1.25, 2.83 1.38, 2.83 1.42 C2.84 1.46, 2.84 1.38, 2.83 1.42" stroke="transparent" stroke-width="1" fill="none"></path></g></svg>