<svg version="1.1" xmlns="http://www.w3.org/2000/svg" viewBox="0 0 172 84" width="172" height="84">
  <!-- svg-source:excalidraw -->
  
  <defs>
    
    
  </defs>
  <g stroke-linecap="round" transform="translate(6 6) rotate(0 80 36)"><path d="M18 0 C48.46 0, 78.92 0, 142 0 C154 0, 160 6, 160 18 C160 28.64, 160 39.27, 160 54 C160 66, 154 72, 142 72 C99.76 72, 57.51 72, 18 72 C6 72, 0 66, 0 54 C0 41.31, 0 28.62, 0 18 C0 6, 6 0, 18 0" stroke="none" stroke-width="0" fill="#FFF"></path><path d="M18 0 C57.31 0, 96.63 0, 142 0 M18 0 C62.58 0, 107.16 0, 142 0 M142 0 C154 0, 160 6, 160 18 M142 0 C154 0, 160 6, 160 18 M160 18 C160 28.39, 160 38.77, 160 54 M160 18 C160 31.48, 160 44.95, 160 54 M160 54 C160 66, 154 72, 142 72 M160 54 C160 66, 154 72, 142 72 M142 72 C116.93 72, 91.87 72, 18 72 M142 72 C105.41 72, 68.82 72, 18 72 M18 72 C6 72, 0 66, 0 54 M18 72 C6 72, 0 66, 0 54 M0 54 C0 45.21, 0 36.41, 0 18 M0 54 C0 42.53, 0 31.06, 0 18 M0 18 C0 6, 6 0, 18 0 M0 18 C0 6, 6 0, 18 0" stroke="#4285f4" stroke-width="2" fill="none"></path></g><g transform="translate(71 35) rotate(0 25.5 7)"><text x="0" y="0" font-family="Helvetica, Segoe UI Emoji" font-size="12px" fill="#000000" text-anchor="start" style="white-space: pre;" direction="ltr" dominant-baseline="text-before-edge">Drive API</text></g><g stroke-linecap="round"><g transform="translate(38.28375026024514 36.98852729797363) rotate(0 -7.488292038440704 1.0510767698287964)" fill-rule="evenodd"><path d="M0 0 L-4.76 -8.11 L-4.76 -8.11 L-4.91 -8 L-5.07 -7.88 L-5.22 -7.74 L-5.37 -7.59 L-5.51 -7.42 L-5.64 -7.25 L-5.77 -7.06 L-5.88 -6.85 L-5.9 -6.81 L-5.94 -6.74 L-5.99 -6.65 L-6.04 -6.55 L-6.11 -6.43 L-6.19 -6.29 L-6.27 -6.14 L-6.37 -5.97 L-6.47 -5.79 L-6.58 -5.59 L-6.7 -5.38 L-6.82 -5.16 L-6.96 -4.92 L-7.1 -4.68 L-7.24 -4.42 L-7.39 -4.15 L-7.55 -3.88 L-7.71 -3.59 L-8.05 -3 L-8.41 -2.37 L-8.78 -1.73 L-9.16 -1.06 L-9.55 -0.38 L-10.34 1 L-11.13 2.37 L-11.51 3.05 L-11.89 3.7 L-12.26 4.34 L-12.61 4.95 L-12.78 5.24 L-12.94 5.53 L-13.1 5.8 L-13.26 6.07 L-13.41 6.33 L-13.55 6.57 L-13.68 6.81 L-13.81 7.03 L-13.93 7.24 L-14.05 7.44 L-14.15 7.62 L-14.25 7.79 L-14.34 7.94 L-14.42 8.08 L-14.49 8.2 L-14.55 8.3 L-14.61 8.39 L-14.65 8.46 L-14.68 8.5 L-14.69 8.53 L-14.75 8.66 L-14.8 8.82 L-14.85 9.01 L-14.89 9.22 L-14.92 9.45 L-14.95 9.7 L-14.97 9.95 L-14.98 10.21 L-5.88 10.21 L0 0 L0 0" stroke="none" stroke-width="0" fill="#34a853" fill-rule="evenodd"></path><path d="M0 0 C-1.83 -3.13, -3.67 -6.26, -4.76 -8.11 M0 0 C-0.96 -1.63, -1.92 -3.27, -4.76 -8.11 M-4.76 -8.11 C-4.76 -8.11, -4.76 -8.11, -4.76 -8.11 M-4.76 -8.11 C-4.76 -8.11, -4.76 -8.11, -4.76 -8.11 M-4.76 -8.11 C-4.81 -8.08, -4.85 -8.04, -4.91 -8 M-4.76 -8.11 C-4.82 -8.07, -4.88 -8.03, -4.91 -8 M-4.91 -8 C-4.95 -7.97, -4.98 -7.95, -5.07 -7.88 M-4.91 -8 C-4.96 -7.96, -5.01 -7.93, -5.07 -7.88 M-5.07 -7.88 C-5.11 -7.84, -5.15 -7.8, -5.22 -7.74 M-5.07 -7.88 C-5.12 -7.83, -5.18 -7.78, -5.22 -7.74 M-5.22 -7.74 C-5.26 -7.7, -5.3 -7.66, -5.37 -7.59 M-5.22 -7.74 C-5.28 -7.68, -5.34 -7.62, -5.37 -7.59 M-5.37 -7.59 C-5.41 -7.54, -5.45 -7.49, -5.51 -7.42 M-5.37 -7.59 C-5.42 -7.53, -5.47 -7.46, -5.51 -7.42 M-5.51 -7.42 C-5.54 -7.38, -5.57 -7.34, -5.64 -7.25 M-5.51 -7.42 C-5.56 -7.36, -5.61 -7.3, -5.64 -7.25 M-5.64 -7.25 C-5.69 -7.17, -5.74 -7.1, -5.77 -7.06 M-5.64 -7.25 C-5.69 -7.18, -5.73 -7.11, -5.77 -7.06 M-5.77 -7.06 C-5.8 -7, -5.83 -6.94, -5.88 -6.85 M-5.77 -7.06 C-5.8 -7, -5.83 -6.95, -5.88 -6.85 M-5.88 -6.85 C-5.89 -6.84, -5.89 -6.83, -5.9 -6.81 M-5.88 -6.85 C-5.89 -6.84, -5.9 -6.82, -5.9 -6.81 M-5.9 -6.81 C-5.91 -6.79, -5.92 -6.77, -5.94 -6.74 M-5.9 -6.81 C-5.92 -6.78, -5.93 -6.76, -5.94 -6.74 M-5.94 -6.74 C-5.96 -6.71, -5.97 -6.67, -5.99 -6.65 M-5.94 -6.74 C-5.95 -6.72, -5.96 -6.7, -5.99 -6.65 M-5.99 -6.65 C-6 -6.63, -6.01 -6.6, -6.04 -6.55 M-5.99 -6.65 C-6.01 -6.61, -6.03 -6.57, -6.04 -6.55 M-6.04 -6.55 C-6.06 -6.51, -6.08 -6.47, -6.11 -6.43 M-6.04 -6.55 C-6.06 -6.52, -6.07 -6.49, -6.11 -6.43 M-6.11 -6.43 C-6.13 -6.39, -6.15 -6.36, -6.19 -6.29 M-6.11 -6.43 C-6.13 -6.39, -6.15 -6.35, -6.19 -6.29 M-6.19 -6.29 C-6.2 -6.26, -6.22 -6.22, -6.27 -6.14 M-6.19 -6.29 C-6.21 -6.26, -6.22 -6.22, -6.27 -6.14 M-6.27 -6.14 C-6.3 -6.08, -6.34 -6.02, -6.37 -5.97 M-6.27 -6.14 C-6.3 -6.09, -6.32 -6.05, -6.37 -5.97 M-6.37 -5.97 C-6.4 -5.91, -6.43 -5.85, -6.47 -5.79 M-6.37 -5.97 C-6.39 -5.93, -6.41 -5.89, -6.47 -5.79 M-6.47 -5.79 C-6.5 -5.73, -6.54 -5.66, -6.58 -5.59 M-6.47 -5.79 C-6.51 -5.72, -6.55 -5.65, -6.58 -5.59 M-6.58 -5.59 C-6.61 -5.53, -6.65 -5.47, -6.7 -5.38 M-6.58 -5.59 C-6.61 -5.54, -6.63 -5.5, -6.7 -5.38 M-6.7 -5.38 C-6.73 -5.33, -6.75 -5.28, -6.82 -5.16 M-6.7 -5.38 C-6.73 -5.33, -6.76 -5.27, -6.82 -5.16 M-6.82 -5.16 C-6.85 -5.11, -6.88 -5.06, -6.96 -4.92 M-6.82 -5.16 C-6.86 -5.1, -6.89 -5.04, -6.96 -4.92 M-6.96 -4.92 C-7.01 -4.83, -7.06 -4.74, -7.1 -4.68 M-6.96 -4.92 C-6.99 -4.87, -7.02 -4.81, -7.1 -4.68 M-7.1 -4.68 C-7.15 -4.59, -7.2 -4.5, -7.24 -4.42 M-7.1 -4.68 C-7.14 -4.59, -7.19 -4.51, -7.24 -4.42 M-7.24 -4.42 C-7.28 -4.35, -7.32 -4.29, -7.39 -4.15 M-7.24 -4.42 C-7.29 -4.34, -7.33 -4.27, -7.39 -4.15 M-7.39 -4.15 C-7.45 -4.06, -7.5 -3.96, -7.55 -3.88 M-7.39 -4.15 C-7.43 -4.1, -7.46 -4.04, -7.55 -3.88 M-7.55 -3.88 C-7.6 -3.79, -7.66 -3.69, -7.71 -3.59 M-7.55 -3.88 C-7.61 -3.77, -7.67 -3.66, -7.71 -3.59 M-7.71 -3.59 C-7.82 -3.4, -7.94 -3.2, -8.05 -3 M-7.71 -3.59 C-7.81 -3.42, -7.91 -3.25, -8.05 -3 M-8.05 -3 C-8.13 -2.86, -8.21 -2.72, -8.41 -2.37 M-8.05 -3 C-8.18 -2.77, -8.31 -2.54, -8.41 -2.37 M-8.41 -2.37 C-8.55 -2.13, -8.68 -1.89, -8.78 -1.73 M-8.41 -2.37 C-8.52 -2.18, -8.63 -1.99, -8.78 -1.73 M-8.78 -1.73 C-8.93 -1.46, -9.08 -1.2, -9.16 -1.06 M-8.78 -1.73 C-8.89 -1.53, -9 -1.33, -9.16 -1.06 M-9.16 -1.06 C-9.28 -0.85, -9.4 -0.63, -9.55 -0.38 M-9.16 -1.06 C-9.24 -0.91, -9.33 -0.76, -9.55 -0.38 M-9.55 -0.38 C-9.75 -0.02, -9.96 0.34, -10.34 1 M-9.55 -0.38 C-9.78 0.03, -10.02 0.45, -10.34 1 M-10.34 1 C-10.56 1.39, -10.78 1.77, -11.13 2.37 M-10.34 1 C-10.64 1.52, -10.94 2.05, -11.13 2.37 M-11.13 2.37 C-11.22 2.53, -11.31 2.69, -11.51 3.05 M-11.13 2.37 C-11.24 2.58, -11.36 2.78, -11.51 3.05 M-11.51 3.05 C-11.66 3.3, -11.81 3.55, -11.89 3.7 M-11.51 3.05 C-11.64 3.26, -11.76 3.48, -11.89 3.7 M-11.89 3.7 C-12 3.89, -12.11 4.08, -12.26 4.34 M-11.89 3.7 C-12.01 3.9, -12.12 4.11, -12.26 4.34 M-12.26 4.34 C-12.34 4.48, -12.42 4.62, -12.61 4.95 M-12.26 4.34 C-12.38 4.56, -12.51 4.78, -12.61 4.95 M-12.61 4.95 C-12.65 5.02, -12.69 5.09, -12.78 5.24 M-12.61 4.95 C-12.67 5.05, -12.73 5.15, -12.78 5.24 M-12.78 5.24 C-12.84 5.35, -12.91 5.47, -12.94 5.53 M-12.78 5.24 C-12.81 5.3, -12.85 5.36, -12.94 5.53 M-12.94 5.53 C-12.98 5.59, -13.01 5.65, -13.1 5.8 M-12.94 5.53 C-12.99 5.61, -13.03 5.68, -13.1 5.8 M-13.1 5.8 C-13.16 5.9, -13.21 5.99, -13.26 6.07 M-13.1 5.8 C-13.16 5.9, -13.21 5.99, -13.26 6.07 M-13.26 6.07 C-13.32 6.17, -13.37 6.27, -13.41 6.33 M-13.26 6.07 C-13.32 6.17, -13.37 6.28, -13.41 6.33 M-13.41 6.33 C-13.46 6.42, -13.51 6.5, -13.55 6.57 M-13.41 6.33 C-13.45 6.4, -13.49 6.47, -13.55 6.57 M-13.55 6.57 C-13.59 6.64, -13.63 6.71, -13.68 6.81 M-13.55 6.57 C-13.58 6.64, -13.62 6.7, -13.68 6.81 M-13.68 6.81 C-13.73 6.89, -13.78 6.97, -13.81 7.03 M-13.68 6.81 C-13.72 6.87, -13.76 6.93, -13.81 7.03 M-13.81 7.03 C-13.84 7.08, -13.87 7.14, -13.93 7.24 M-13.81 7.03 C-13.84 7.08, -13.87 7.14, -13.93 7.24 M-13.93 7.24 C-13.97 7.3, -14 7.35, -14.05 7.44 M-13.93 7.24 C-13.96 7.28, -13.98 7.33, -14.05 7.44 M-14.05 7.44 C-14.09 7.5, -14.13 7.57, -14.15 7.62 M-14.05 7.44 C-14.09 7.51, -14.13 7.58, -14.15 7.62 M-14.15 7.62 C-14.19 7.68, -14.22 7.73, -14.25 7.79 M-14.15 7.62 C-14.19 7.67, -14.22 7.73, -14.25 7.79 M-14.25 7.79 C-14.28 7.84, -14.32 7.9, -14.34 7.94 M-14.25 7.79 C-14.28 7.84, -14.31 7.89, -14.34 7.94 M-14.34 7.94 C-14.37 7.99, -14.4 8.03, -14.42 8.08 M-14.34 7.94 C-14.36 7.98, -14.39 8.02, -14.42 8.08 M-14.42 8.08 C-14.44 8.11, -14.46 8.14, -14.49 8.2 M-14.42 8.08 C-14.44 8.1, -14.45 8.13, -14.49 8.2 M-14.49 8.2 C-14.51 8.24, -14.54 8.27, -14.55 8.3 M-14.49 8.2 C-14.51 8.23, -14.53 8.26, -14.55 8.3 M-14.55 8.3 C-14.57 8.34, -14.59 8.37, -14.61 8.39 M-14.55 8.3 C-14.57 8.33, -14.59 8.35, -14.61 8.39 M-14.61 8.39 C-14.62 8.41, -14.63 8.43, -14.65 8.46 M-14.61 8.39 C-14.62 8.41, -14.64 8.44, -14.65 8.46 M-14.65 8.46 C-14.66 8.47, -14.67 8.49, -14.68 8.5 M-14.65 8.46 C-14.65 8.47, -14.66 8.48, -14.68 8.5 M-14.68 8.5 C-14.68 8.51, -14.69 8.52, -14.69 8.53 M-14.68 8.5 C-14.68 8.52, -14.69 8.53, -14.69 8.53 M-14.69 8.53 C-14.71 8.57, -14.72 8.6, -14.75 8.66 M-14.69 8.53 C-14.71 8.56, -14.72 8.59, -14.75 8.66 M-14.75 8.66 C-14.76 8.7, -14.77 8.73, -14.8 8.82 M-14.75 8.66 C-14.76 8.7, -14.77 8.73, -14.8 8.82 M-14.8 8.82 C-14.81 8.87, -14.82 8.91, -14.85 9.01 M-14.8 8.82 C-14.81 8.87, -14.83 8.93, -14.85 9.01 M-14.85 9.01 C-14.86 9.06, -14.87 9.11, -14.89 9.22 M-14.85 9.01 C-14.86 9.09, -14.88 9.17, -14.89 9.22 M-14.89 9.22 C-14.9 9.31, -14.92 9.4, -14.92 9.45 M-14.89 9.22 C-14.9 9.3, -14.91 9.39, -14.92 9.45 M-14.92 9.45 C-14.93 9.52, -14.94 9.59, -14.95 9.7 M-14.92 9.45 C-14.93 9.5, -14.94 9.55, -14.95 9.7 M-14.95 9.7 C-14.96 9.76, -14.96 9.83, -14.97 9.95 M-14.95 9.7 C-14.96 9.79, -14.97 9.89, -14.97 9.95 M-14.97 9.95 C-14.97 10.03, -14.97 10.11, -14.98 10.21 M-14.97 9.95 C-14.97 10.02, -14.97 10.08, -14.98 10.21 M-14.98 10.21 C-12.66 10.21, -10.35 10.21, -5.88 10.21 M-14.98 10.21 C-12.36 10.21, -9.75 10.21, -5.88 10.21 M-5.88 10.21 C-3.92 6.81, -1.96 3.41, 0 0 M-5.88 10.21 C-4.21 7.31, -2.53 4.4, 0 0 M0 0 C0 0, 0 0, 0 0 M0 0 C0 0, 0 0, 0 0 M0 0 C0 0, 0 0, 0 0 M0 0 C0 0, 0 0, 0 0" stroke="#00000000" stroke-width="1" fill="none"></path></g></g><mask></mask><g stroke-linecap="round"><g transform="translate(44.44436618126565 47.20257759094238) rotate(0 1.4659757614135742 -9.09256649017334)" fill-rule="evenodd"><path d="M0 0 L9.09 0 L9.09 0 L9.09 -0.26 L9.07 -0.5 L9.04 -0.72 L9 -0.93 L8.96 -1.11 L8.91 -1.28 L8.86 -1.42 L8.81 -1.54 L8.79 -1.57 L8.76 -1.63 L8.72 -1.7 L8.67 -1.8 L8.61 -1.91 L8.54 -2.03 L8.46 -2.17 L8.37 -2.33 L8.27 -2.5 L8.16 -2.69 L8.05 -2.89 L7.93 -3.11 L7.8 -3.33 L7.66 -3.57 L7.52 -3.82 L7.37 -4.08 L7.22 -4.35 L7.06 -4.63 L6.73 -5.21 L6.38 -5.83 L6.01 -6.47 L5.63 -7.13 L5.24 -7.8 L4.46 -9.18 L3.67 -10.56 L3.28 -11.24 L2.9 -11.9 L2.53 -12.54 L2.17 -13.16 L1.83 -13.75 L1.67 -14.03 L1.51 -14.31 L1.36 -14.57 L1.21 -14.82 L1.07 -15.07 L0.94 -15.3 L0.82 -15.51 L0.7 -15.72 L0.59 -15.91 L0.48 -16.09 L0.39 -16.25 L0.3 -16.4 L0.23 -16.53 L0.16 -16.65 L0.1 -16.74 L0.06 -16.82 L0.02 -16.89 L-0.01 -16.93 L-0.12 -17.13 L-0.26 -17.32 L-0.42 -17.5 L-0.6 -17.66 L-0.79 -17.81 L-0.99 -17.95 L-1.19 -18.07 L-1.4 -18.19 L-6.16 -10.21 L0 0 L0 0" stroke="none" stroke-width="0" fill="#ffba03" fill-rule="evenodd"></path><path d="M0 0 C2.57 0, 5.14 0, 9.09 0 M0 0 C2.7 0, 5.4 0, 9.09 0 M9.09 0 C9.09 0, 9.09 0, 9.09 0 M9.09 0 C9.09 0, 9.09 0, 9.09 0 M9.09 0 C9.09 -0.07, 9.09 -0.13, 9.09 -0.26 M9.09 0 C9.09 -0.07, 9.09 -0.13, 9.09 -0.26 M9.09 -0.26 C9.08 -0.34, 9.07 -0.42, 9.07 -0.5 M9.09 -0.26 C9.08 -0.35, 9.07 -0.45, 9.07 -0.5 M9.07 -0.5 C9.06 -0.57, 9.05 -0.63, 9.04 -0.72 M9.07 -0.5 C9.06 -0.55, 9.05 -0.61, 9.04 -0.72 M9.04 -0.72 C9.03 -0.79, 9.02 -0.85, 9 -0.93 M9.04 -0.72 C9.03 -0.78, 9.02 -0.85, 9 -0.93 M9 -0.93 C8.99 -0.99, 8.98 -1.04, 8.96 -1.11 M9 -0.93 C8.99 -0.97, 8.98 -1.01, 8.96 -1.11 M8.96 -1.11 C8.95 -1.16, 8.94 -1.21, 8.91 -1.28 M8.96 -1.11 C8.95 -1.15, 8.94 -1.19, 8.91 -1.28 M8.91 -1.28 C8.9 -1.33, 8.88 -1.38, 8.86 -1.42 M8.91 -1.28 C8.89 -1.33, 8.87 -1.39, 8.86 -1.42 M8.86 -1.42 C8.85 -1.46, 8.83 -1.5, 8.81 -1.54 M8.86 -1.42 C8.85 -1.45, 8.84 -1.47, 8.81 -1.54 M8.81 -1.54 C8.8 -1.55, 8.8 -1.57, 8.79 -1.57 M8.81 -1.54 C8.8 -1.55, 8.8 -1.57, 8.79 -1.57 M8.79 -1.57 C8.78 -1.59, 8.77 -1.61, 8.76 -1.63 M8.79 -1.57 C8.78 -1.59, 8.78 -1.61, 8.76 -1.63 M8.76 -1.63 C8.75 -1.66, 8.73 -1.69, 8.72 -1.7 M8.76 -1.63 C8.75 -1.66, 8.73 -1.69, 8.72 -1.7 M8.72 -1.7 C8.7 -1.74, 8.68 -1.77, 8.67 -1.8 M8.72 -1.7 C8.71 -1.72, 8.7 -1.75, 8.67 -1.8 M8.67 -1.8 C8.65 -1.84, 8.63 -1.87, 8.61 -1.91 M8.67 -1.8 C8.65 -1.84, 8.62 -1.88, 8.61 -1.91 M8.61 -1.91 C8.59 -1.94, 8.57 -1.97, 8.54 -2.03 M8.61 -1.91 C8.59 -1.94, 8.57 -1.98, 8.54 -2.03 M8.54 -2.03 C8.51 -2.08, 8.48 -2.13, 8.46 -2.17 M8.54 -2.03 C8.52 -2.07, 8.5 -2.11, 8.46 -2.17 M8.46 -2.17 C8.44 -2.21, 8.42 -2.25, 8.37 -2.33 M8.46 -2.17 C8.44 -2.21, 8.42 -2.24, 8.37 -2.33 M8.37 -2.33 C8.34 -2.38, 8.31 -2.43, 8.27 -2.5 M8.37 -2.33 C8.35 -2.37, 8.33 -2.41, 8.27 -2.5 M8.27 -2.5 C8.24 -2.57, 8.2 -2.63, 8.16 -2.69 M8.27 -2.5 C8.23 -2.58, 8.19 -2.65, 8.16 -2.69 M8.16 -2.69 C8.14 -2.74, 8.11 -2.79, 8.05 -2.89 M8.16 -2.69 C8.14 -2.73, 8.12 -2.78, 8.05 -2.89 M8.05 -2.89 C8 -2.97, 7.96 -3.06, 7.93 -3.11 M8.05 -2.89 C8 -2.98, 7.95 -3.06, 7.93 -3.11 M7.93 -3.11 C7.89 -3.17, 7.86 -3.23, 7.8 -3.33 M7.93 -3.11 C7.89 -3.18, 7.84 -3.26, 7.8 -3.33 M7.8 -3.33 C7.75 -3.42, 7.7 -3.51, 7.66 -3.57 M7.8 -3.33 C7.75 -3.42, 7.7 -3.51, 7.66 -3.57 M7.66 -3.57 C7.62 -3.65, 7.57 -3.73, 7.52 -3.82 M7.66 -3.57 C7.63 -3.62, 7.6 -3.68, 7.52 -3.82 M7.52 -3.82 C7.48 -3.9, 7.43 -3.98, 7.37 -4.08 M7.52 -3.82 C7.49 -3.88, 7.46 -3.94, 7.37 -4.08 M7.37 -4.08 C7.33 -4.16, 7.29 -4.23, 7.22 -4.35 M7.37 -4.08 C7.31 -4.19, 7.25 -4.3, 7.22 -4.35 M7.22 -4.35 C7.17 -4.45, 7.11 -4.54, 7.06 -4.63 M7.22 -4.35 C7.17 -4.43, 7.13 -4.52, 7.06 -4.63 M7.06 -4.63 C6.99 -4.75, 6.92 -4.87, 6.73 -5.21 M7.06 -4.63 C6.99 -4.75, 6.92 -4.88, 6.73 -5.21 M6.73 -5.21 C6.63 -5.39, 6.52 -5.57, 6.38 -5.83 M6.73 -5.21 C6.63 -5.38, 6.53 -5.55, 6.38 -5.83 M6.38 -5.83 C6.28 -5.99, 6.19 -6.15, 6.01 -6.47 M6.38 -5.83 C6.28 -5.99, 6.19 -6.16, 6.01 -6.47 M6.01 -6.47 C5.91 -6.65, 5.8 -6.83, 5.63 -7.13 M6.01 -6.47 C5.91 -6.64, 5.81 -6.82, 5.63 -7.13 M5.63 -7.13 C5.49 -7.38, 5.35 -7.63, 5.24 -7.8 M5.63 -7.13 C5.5 -7.35, 5.37 -7.58, 5.24 -7.8 M5.24 -7.8 C5.03 -8.18, 4.82 -8.55, 4.46 -9.18 M5.24 -7.8 C4.99 -8.25, 4.74 -8.69, 4.46 -9.18 M4.46 -9.18 C4.16 -9.7, 3.86 -10.23, 3.67 -10.56 M4.46 -9.18 C4.2 -9.62, 3.95 -10.06, 3.67 -10.56 M3.67 -10.56 C3.51 -10.83, 3.36 -11.1, 3.28 -11.24 M3.67 -10.56 C3.54 -10.78, 3.41 -11.01, 3.28 -11.24 M3.28 -11.24 C3.16 -11.44, 3.04 -11.64, 2.9 -11.9 M3.28 -11.24 C3.17 -11.42, 3.06 -11.61, 2.9 -11.9 M2.9 -11.9 C2.82 -12.03, 2.74 -12.16, 2.53 -12.54 M2.9 -11.9 C2.78 -12.1, 2.67 -12.3, 2.53 -12.54 M2.53 -12.54 C2.43 -12.71, 2.34 -12.87, 2.17 -13.16 M2.53 -12.54 C2.39 -12.77, 2.26 -13, 2.17 -13.16 M2.17 -13.16 C2.04 -13.39, 1.91 -13.62, 1.83 -13.75 M2.17 -13.16 C2.06 -13.35, 1.95 -13.54, 1.83 -13.75 M1.83 -13.75 C1.77 -13.85, 1.72 -13.95, 1.67 -14.03 M1.83 -13.75 C1.78 -13.84, 1.72 -13.94, 1.67 -14.03 M1.67 -14.03 C1.63 -14.11, 1.58 -14.18, 1.51 -14.31 M1.67 -14.03 C1.61 -14.13, 1.56 -14.23, 1.51 -14.31 M1.51 -14.31 C1.46 -14.4, 1.41 -14.49, 1.36 -14.57 M1.51 -14.31 C1.45 -14.41, 1.4 -14.5, 1.36 -14.57 M1.36 -14.57 C1.31 -14.65, 1.26 -14.74, 1.21 -14.82 M1.36 -14.57 C1.32 -14.63, 1.29 -14.69, 1.21 -14.82 M1.21 -14.82 C1.18 -14.88, 1.15 -14.94, 1.07 -15.07 M1.21 -14.82 C1.17 -14.9, 1.12 -14.98, 1.07 -15.07 M1.07 -15.07 C1.04 -15.13, 1 -15.19, 0.94 -15.3 M1.07 -15.07 C1.03 -15.15, 0.98 -15.23, 0.94 -15.3 M0.94 -15.3 C0.91 -15.36, 0.87 -15.42, 0.82 -15.51 M0.94 -15.3 C0.91 -15.35, 0.87 -15.41, 0.82 -15.51 M0.82 -15.51 C0.78 -15.58, 0.74 -15.65, 0.7 -15.72 M0.82 -15.51 C0.78 -15.57, 0.75 -15.63, 0.7 -15.72 M0.7 -15.72 C0.66 -15.79, 0.62 -15.85, 0.59 -15.91 M0.7 -15.72 C0.66 -15.78, 0.63 -15.83, 0.59 -15.91 M0.59 -15.91 C0.56 -15.95, 0.54 -15.99, 0.48 -16.09 M0.59 -15.91 C0.55 -15.98, 0.51 -16.04, 0.48 -16.09 M0.48 -16.09 C0.45 -16.15, 0.41 -16.21, 0.39 -16.25 M0.48 -16.09 C0.45 -16.15, 0.42 -16.21, 0.39 -16.25 M0.39 -16.25 C0.36 -16.3, 0.33 -16.36, 0.3 -16.4 M0.39 -16.25 C0.36 -16.31, 0.32 -16.37, 0.3 -16.4 M0.3 -16.4 C0.28 -16.44, 0.26 -16.47, 0.23 -16.53 M0.3 -16.4 C0.29 -16.43, 0.27 -16.46, 0.23 -16.53 M0.23 -16.53 C0.2 -16.58, 0.17 -16.62, 0.16 -16.65 M0.23 -16.53 C0.21 -16.56, 0.19 -16.59, 0.16 -16.65 M0.16 -16.65 C0.14 -16.68, 0.13 -16.7, 0.1 -16.74 M0.16 -16.65 C0.14 -16.68, 0.12 -16.71, 0.1 -16.74 M0.1 -16.74 C0.09 -16.77, 0.07 -16.8, 0.06 -16.82 M0.1 -16.74 C0.09 -16.77, 0.08 -16.79, 0.06 -16.82 M0.06 -16.82 C0.05 -16.84, 0.04 -16.85, 0.02 -16.89 M0.06 -16.82 C0.04 -16.84, 0.03 -16.86, 0.02 -16.89 M0.02 -16.89 C0.01 -16.9, 0.01 -16.91, -0.01 -16.93 M0.02 -16.89 C0.01 -16.89, 0.01 -16.9, -0.01 -16.93 M-0.01 -16.93 C-0.03 -16.97, -0.06 -17.01, -0.12 -17.13 M-0.01 -16.93 C-0.04 -16.99, -0.07 -17.04, -0.12 -17.13 M-0.12 -17.13 C-0.17 -17.19, -0.21 -17.25, -0.26 -17.32 M-0.12 -17.13 C-0.17 -17.19, -0.21 -17.25, -0.26 -17.32 M-0.26 -17.32 C-0.31 -17.37, -0.36 -17.43, -0.42 -17.5 M-0.26 -17.32 C-0.31 -17.38, -0.36 -17.43, -0.42 -17.5 M-0.42 -17.5 C-0.48 -17.55, -0.54 -17.6, -0.6 -17.66 M-0.42 -17.5 C-0.47 -17.54, -0.51 -17.58, -0.6 -17.66 M-0.6 -17.66 C-0.65 -17.7, -0.7 -17.74, -0.79 -17.81 M-0.6 -17.66 C-0.64 -17.69, -0.68 -17.72, -0.79 -17.81 M-0.79 -17.81 C-0.84 -17.85, -0.89 -17.88, -0.99 -17.95 M-0.79 -17.81 C-0.85 -17.86, -0.91 -17.9, -0.99 -17.95 M-0.99 -17.95 C-1.05 -17.99, -1.12 -18.03, -1.19 -18.07 M-0.99 -17.95 C-1.06 -17.99, -1.12 -18.03, -1.19 -18.07 M-1.19 -18.07 C-1.26 -18.11, -1.32 -18.14, -1.4 -18.19 M-1.19 -18.07 C-1.26 -18.11, -1.33 -18.15, -1.4 -18.19 M-1.4 -18.19 C-2.64 -16.12, -3.87 -14.05, -6.16 -10.21 M-1.4 -18.19 C-2.98 -15.55, -4.55 -12.91, -6.16 -10.21 M-6.16 -10.21 C-4.84 -8.02, -3.51 -5.82, 0 0 M-6.16 -10.21 C-3.95 -6.54, -1.74 -2.88, 0 0 M0 0 C0 0, 0 0, 0 0 M0 0 C0 0, 0 0, 0 0 M0 0 C0 0, 0 0, 0 0 M0 0 C0 0, 0 0, 0 0" stroke="#00000000" stroke-width="1" fill="none"></path></g></g><mask></mask><g stroke-linecap="round"><g transform="translate(49.201869690787134 55.31950378417969) rotate(0 0 0)"><path d="M0 0 C0 0, 0 0, 0 0 M0 0 C0 0, 0 0, 0 0" stroke="#00000000" stroke-width="1" fill="none"></path></g></g><mask></mask><g stroke-linecap="round"><g transform="translate(42.76465388573342 28.876630544662476) rotate(0 0 0)"><path d="M0 0 C0 0, 0 0, 0 0 M0 0 C0 0, 0 0, 0 0" stroke="#00000000" stroke-width="1" fill="none"></path></g></g><mask></mask><g stroke-linecap="round"><g transform="translate(42.76465388573342 28.876630544662476) rotate(0 -4.475874900817871 3.9176491498947144)" fill-rule="evenodd"><path d="M0 0 L0 0 L-0.12 -0.05 L-0.26 -0.1 L-0.43 -0.15 L-0.61 -0.19 L-0.82 -0.23 L-1.04 -0.26 L-1.28 -0.28 L-1.54 -0.28 L-8.25 -0.28 L-8.25 -0.28 L-8.46 -0.28 L-8.66 -0.26 L-8.74 -0.25 L-8.82 -0.22 L-8.89 -0.19 L-8.95 -0.14 L-9 -0.09 L-9.06 -0.06 L-9.1 -0.03 L-9.15 -0.02 L-9.18 -0.01 L-9.21 0 L-9.23 0 L-9.23 0 L-4.48 8.12 L0.28 0.14 L0.28 0.14 L0.27 0.13 L0.24 0.12 L0.14 0.07 L0.09 0.04 L0.04 0.02 L0.01 0.01 L0 0 L0 0" stroke="none" stroke-width="0" fill="#00832d" fill-rule="evenodd"></path><path d="M0 0 C0 0, 0 0, 0 0 M0 0 C0 0, 0 0, 0 0 M0 0 C-0.03 -0.01, -0.05 -0.02, -0.12 -0.05 M0 0 C-0.03 -0.01, -0.06 -0.03, -0.12 -0.05 M-0.12 -0.05 C-0.15 -0.06, -0.19 -0.08, -0.26 -0.1 M-0.12 -0.05 C-0.17 -0.07, -0.22 -0.09, -0.26 -0.1 M-0.26 -0.1 C-0.3 -0.11, -0.33 -0.12, -0.43 -0.15 M-0.26 -0.1 C-0.32 -0.12, -0.38 -0.14, -0.43 -0.15 M-0.43 -0.15 C-0.49 -0.17, -0.55 -0.18, -0.61 -0.19 M-0.43 -0.15 C-0.5 -0.17, -0.56 -0.18, -0.61 -0.19 M-0.61 -0.19 C-0.68 -0.21, -0.75 -0.22, -0.82 -0.23 M-0.61 -0.19 C-0.66 -0.2, -0.7 -0.21, -0.82 -0.23 M-0.82 -0.23 C-0.88 -0.24, -0.94 -0.25, -1.04 -0.26 M-0.82 -0.23 C-0.88 -0.24, -0.95 -0.25, -1.04 -0.26 M-1.04 -0.26 C-1.13 -0.26, -1.21 -0.27, -1.28 -0.28 M-1.04 -0.26 C-1.13 -0.26, -1.22 -0.27, -1.28 -0.28 M-1.28 -0.28 C-1.36 -0.28, -1.44 -0.28, -1.54 -0.28 M-1.28 -0.28 C-1.37 -0.28, -1.46 -0.28, -1.54 -0.28 M-1.54 -0.28 C-3.73 -0.28, -5.93 -0.28, -8.25 -0.28 M-1.54 -0.28 C-3.97 -0.28, -6.39 -0.28, -8.25 -0.28 M-8.25 -0.28 C-8.25 -0.28, -8.25 -0.28, -8.25 -0.28 M-8.25 -0.28 C-8.25 -0.28, -8.25 -0.28, -8.25 -0.28 M-8.25 -0.28 C-8.3 -0.28, -8.36 -0.28, -8.46 -0.28 M-8.25 -0.28 C-8.31 -0.28, -8.37 -0.28, -8.46 -0.28 M-8.46 -0.28 C-8.51 -0.28, -8.55 -0.27, -8.66 -0.26 M-8.46 -0.28 C-8.5 -0.28, -8.55 -0.27, -8.66 -0.26 M-8.66 -0.26 C-8.68 -0.26, -8.71 -0.25, -8.74 -0.25 M-8.66 -0.26 C-8.69 -0.26, -8.72 -0.25, -8.74 -0.25 M-8.74 -0.25 C-8.77 -0.24, -8.79 -0.23, -8.82 -0.22 M-8.74 -0.25 C-8.77 -0.24, -8.8 -0.23, -8.82 -0.22 M-8.82 -0.22 C-8.84 -0.21, -8.86 -0.2, -8.89 -0.19 M-8.82 -0.22 C-8.84 -0.21, -8.86 -0.2, -8.89 -0.19 M-8.89 -0.19 C-8.91 -0.17, -8.93 -0.16, -8.95 -0.14 M-8.89 -0.19 C-8.91 -0.18, -8.92 -0.16, -8.95 -0.14 M-8.95 -0.14 C-8.97 -0.12, -8.99 -0.11, -9 -0.09 M-8.95 -0.14 C-8.97 -0.13, -8.98 -0.12, -9 -0.09 M-9 -0.09 C-9.02 -0.08, -9.04 -0.07, -9.06 -0.06 M-9 -0.09 C-9.02 -0.08, -9.04 -0.07, -9.06 -0.06 M-9.06 -0.06 C-9.07 -0.05, -9.08 -0.05, -9.1 -0.03 M-9.06 -0.06 C-9.07 -0.05, -9.08 -0.05, -9.1 -0.03 M-9.1 -0.03 C-9.12 -0.03, -9.13 -0.02, -9.15 -0.02 M-9.1 -0.03 C-9.12 -0.03, -9.13 -0.02, -9.15 -0.02 M-9.15 -0.02 C-9.15 -0.02, -9.16 -0.01, -9.18 -0.01 M-9.15 -0.02 C-9.15 -0.02, -9.16 -0.01, -9.18 -0.01 M-9.18 -0.01 C-9.19 -0.01, -9.19 -0.01, -9.21 0 M-9.18 -0.01 C-9.19 -0.01, -9.2 0, -9.21 0 M-9.21 0 C-9.22 0, -9.22 0, -9.23 0 M-9.21 0 C-9.22 0, -9.22 0, -9.23 0 M-9.23 0 C-9.23 0, -9.23 0, -9.23 0 M-9.23 0 C-9.23 0, -9.23 0, -9.23 0 M-9.23 0 C-8.19 1.77, -7.15 3.55, -4.48 8.12 M-9.23 0 C-8.26 1.66, -7.29 3.32, -4.48 8.12 M-4.48 8.12 C-2.75 5.22, -1.02 2.33, 0.28 0.14 M-4.48 8.12 C-3.1 5.8, -1.72 3.49, 0.28 0.14 M0.28 0.14 C0.28 0.14, 0.28 0.14, 0.28 0.14 M0.28 0.14 C0.28 0.14, 0.28 0.14, 0.28 0.14 M0.28 0.14 C0.28 0.14, 0.27 0.14, 0.27 0.13 M0.28 0.14 C0.28 0.14, 0.27 0.14, 0.27 0.13 M0.27 0.13 C0.26 0.13, 0.25 0.12, 0.24 0.12 M0.27 0.13 C0.26 0.13, 0.24 0.12, 0.24 0.12 M0.24 0.12 C0.21 0.11, 0.19 0.09, 0.14 0.07 M0.24 0.12 C0.22 0.11, 0.2 0.1, 0.14 0.07 M0.14 0.07 C0.12 0.06, 0.1 0.05, 0.09 0.04 M0.14 0.07 C0.13 0.06, 0.12 0.06, 0.09 0.04 M0.09 0.04 C0.07 0.03, 0.05 0.03, 0.04 0.02 M0.09 0.04 C0.08 0.04, 0.07 0.03, 0.04 0.02 M0.04 0.02 C0.03 0.02, 0.02 0.01, 0.01 0.01 M0.04 0.02 C0.03 0.02, 0.03 0.01, 0.01 0.01 M0.01 0.01 C0.01 0, 0.01 0, 0 0 M0.01 0.01 C0.01 0, 0.01 0, 0 0 M0 0 C0 0, 0 0, 0 0 M0 0 C0 0, 0 0, 0 0 M0 0 C0 0, 0 0, 0 0 M0 0 C0 0, 0 0, 0 0" stroke="#00000000" stroke-width="1" fill="none"></path></g></g><mask></mask><g stroke-linecap="round"><g transform="translate(32.26897689140969 47.20257759094238) rotate(0 6.158101320266724 3.988056182861328)" fill-rule="evenodd"><path d="M0 0 L-4.62 7.84 L-4.62 7.84 L-4.56 7.84 L-4.48 7.84 L-4.38 7.84 L-4.25 7.84 L-4.09 7.84 L-3.91 7.84 L-3.71 7.84 L-3.49 7.84 L-3.25 7.84 L-2.98 7.84 L-2.7 7.85 L-2.4 7.85 L-2.08 7.85 L-1.75 7.85 L-1.4 7.85 L-1.03 7.86 L-0.65 7.86 L-0.26 7.86 L0.14 7.87 L0.56 7.87 L0.98 7.87 L1.42 7.87 L2.31 7.88 L3.24 7.89 L4.18 7.89 L6.11 7.91 L8.03 7.92 L8.98 7.93 L9.9 7.93 L10.8 7.94 L11.67 7.94 L12.09 7.95 L12.49 7.95 L12.89 7.95 L13.27 7.95 L13.64 7.96 L13.99 7.96 L14.33 7.96 L14.65 7.96 L14.96 7.97 L15.24 7.97 L15.51 7.97 L15.76 7.97 L15.99 7.97 L16.19 7.97 L16.38 7.97 L16.54 7.97 L16.68 7.98 L16.79 7.98 L16.87 7.98 L16.93 7.98 L12.18 0 L0 0 L0 0" stroke="none" stroke-width="0" fill="#2684fc" fill-rule="evenodd"></path><path d="M0 0 C-1.66 2.82, -3.32 5.63, -4.62 7.84 M0 0 C-1.18 2, -2.36 4.01, -4.62 7.84 M-4.62 7.84 C-4.62 7.84, -4.62 7.84, -4.62 7.84 M-4.62 7.84 C-4.62 7.84, -4.62 7.84, -4.62 7.84 M-4.62 7.84 C-4.6 7.84, -4.59 7.84, -4.56 7.84 M-4.62 7.84 C-4.6 7.84, -4.58 7.84, -4.56 7.84 M-4.56 7.84 C-4.54 7.84, -4.52 7.84, -4.48 7.84 M-4.56 7.84 C-4.53 7.84, -4.5 7.84, -4.48 7.84 M-4.48 7.84 C-4.45 7.84, -4.42 7.84, -4.38 7.84 M-4.48 7.84 C-4.45 7.84, -4.42 7.84, -4.38 7.84 M-4.38 7.84 C-4.34 7.84, -4.3 7.84, -4.25 7.84 M-4.38 7.84 C-4.34 7.84, -4.31 7.84, -4.25 7.84 M-4.25 7.84 C-4.2 7.84, -4.16 7.84, -4.09 7.84 M-4.25 7.84 C-4.2 7.84, -4.15 7.84, -4.09 7.84 M-4.09 7.84 C-4.06 7.84, -4.02 7.84, -3.91 7.84 M-4.09 7.84 C-4.05 7.84, -4 7.84, -3.91 7.84 M-3.91 7.84 C-3.87 7.84, -3.83 7.84, -3.71 7.84 M-3.91 7.84 C-3.85 7.84, -3.78 7.84, -3.71 7.84 M-3.71 7.84 C-3.67 7.84, -3.62 7.84, -3.49 7.84 M-3.71 7.84 C-3.65 7.84, -3.58 7.84, -3.49 7.84 M-3.49 7.84 C-3.44 7.84, -3.39 7.84, -3.25 7.84 M-3.49 7.84 C-3.41 7.84, -3.33 7.84, -3.25 7.84 M-3.25 7.84 C-3.19 7.84, -3.13 7.84, -2.98 7.84 M-3.25 7.84 C-3.15 7.84, -3.05 7.84, -2.98 7.84 M-2.98 7.84 C-2.87 7.85, -2.76 7.85, -2.7 7.85 M-2.98 7.84 C-2.88 7.85, -2.78 7.85, -2.7 7.85 M-2.7 7.85 C-2.62 7.85, -2.54 7.85, -2.4 7.85 M-2.7 7.85 C-2.58 7.85, -2.46 7.85, -2.4 7.85 M-2.4 7.85 C-2.3 7.85, -2.2 7.85, -2.08 7.85 M-2.4 7.85 C-2.31 7.85, -2.22 7.85, -2.08 7.85 M-2.08 7.85 C-2.01 7.85, -1.94 7.85, -1.75 7.85 M-2.08 7.85 C-1.97 7.85, -1.85 7.85, -1.75 7.85 M-1.75 7.85 C-1.61 7.85, -1.47 7.85, -1.4 7.85 M-1.75 7.85 C-1.67 7.85, -1.59 7.85, -1.4 7.85 M-1.4 7.85 C-1.29 7.86, -1.19 7.86, -1.03 7.86 M-1.4 7.85 C-1.31 7.86, -1.22 7.86, -1.03 7.86 M-1.03 7.86 C-0.93 7.86, -0.83 7.86, -0.65 7.86 M-1.03 7.86 C-0.91 7.86, -0.79 7.86, -0.65 7.86 M-0.65 7.86 C-0.53 7.86, -0.4 7.86, -0.26 7.86 M-0.65 7.86 C-0.54 7.86, -0.42 7.86, -0.26 7.86 M-0.26 7.86 C-0.17 7.86, -0.08 7.86, 0.14 7.87 M-0.26 7.86 C-0.12 7.86, 0.03 7.86, 0.14 7.87 M0.14 7.87 C0.28 7.87, 0.41 7.87, 0.56 7.87 M0.14 7.87 C0.27 7.87, 0.4 7.87, 0.56 7.87 M0.56 7.87 C0.71 7.87, 0.87 7.87, 0.98 7.87 M0.56 7.87 C0.7 7.87, 0.85 7.87, 0.98 7.87 M0.98 7.87 C1.12 7.87, 1.25 7.87, 1.42 7.87 M0.98 7.87 C1.07 7.87, 1.16 7.87, 1.42 7.87 M1.42 7.87 C1.67 7.88, 1.92 7.88, 2.31 7.88 M1.42 7.87 C1.73 7.88, 2.03 7.88, 2.31 7.88 M2.31 7.88 C2.54 7.88, 2.77 7.88, 3.24 7.89 M2.31 7.88 C2.68 7.88, 3.05 7.88, 3.24 7.89 M3.24 7.89 C3.56 7.89, 3.88 7.89, 4.18 7.89 M3.24 7.89 C3.45 7.89, 3.66 7.89, 4.18 7.89 M4.18 7.89 C4.83 7.9, 5.49 7.9, 6.11 7.91 M4.18 7.89 C4.92 7.9, 5.66 7.9, 6.11 7.91 M6.11 7.91 C6.5 7.91, 6.89 7.91, 8.03 7.92 M6.11 7.91 C6.75 7.91, 7.4 7.91, 8.03 7.92 M8.03 7.92 C8.35 7.92, 8.67 7.92, 8.98 7.93 M8.03 7.92 C8.34 7.92, 8.65 7.92, 8.98 7.93 M8.98 7.93 C9.28 7.93, 9.58 7.93, 9.9 7.93 M8.98 7.93 C9.17 7.93, 9.37 7.93, 9.9 7.93 M9.9 7.93 C10.1 7.93, 10.3 7.93, 10.8 7.94 M9.9 7.93 C10.19 7.93, 10.48 7.94, 10.8 7.94 M10.8 7.94 C11.02 7.94, 11.23 7.94, 11.67 7.94 M10.8 7.94 C11.04 7.94, 11.28 7.94, 11.67 7.94 M11.67 7.94 C11.8 7.94, 11.93 7.95, 12.09 7.95 M11.67 7.94 C11.79 7.94, 11.9 7.95, 12.09 7.95 M12.09 7.95 C12.21 7.95, 12.33 7.95, 12.49 7.95 M12.09 7.95 C12.22 7.95, 12.35 7.95, 12.49 7.95 M12.49 7.95 C12.64 7.95, 12.79 7.95, 12.89 7.95 M12.49 7.95 C12.6 7.95, 12.71 7.95, 12.89 7.95 M12.89 7.95 C13 7.95, 13.12 7.95, 13.27 7.95 M12.89 7.95 C12.99 7.95, 13.09 7.95, 13.27 7.95 M13.27 7.95 C13.38 7.95, 13.5 7.96, 13.64 7.96 M13.27 7.95 C13.35 7.95, 13.42 7.96, 13.64 7.96 M13.64 7.96 C13.73 7.96, 13.82 7.96, 13.99 7.96 M13.64 7.96 C13.77 7.96, 13.9 7.96, 13.99 7.96 M13.99 7.96 C14.08 7.96, 14.17 7.96, 14.33 7.96 M13.99 7.96 C14.1 7.96, 14.2 7.96, 14.33 7.96 M14.33 7.96 C14.42 7.96, 14.5 7.96, 14.65 7.96 M14.33 7.96 C14.4 7.96, 14.47 7.96, 14.65 7.96 M14.65 7.96 C14.75 7.96, 14.84 7.96, 14.96 7.97 M14.65 7.96 C14.73 7.96, 14.8 7.96, 14.96 7.97 M14.96 7.97 C15.02 7.97, 15.08 7.97, 15.24 7.97 M14.96 7.97 C15.05 7.97, 15.15 7.97, 15.24 7.97 M15.24 7.97 C15.34 7.97, 15.44 7.97, 15.51 7.97 M15.24 7.97 C15.31 7.97, 15.37 7.97, 15.51 7.97 M15.51 7.97 C15.58 7.97, 15.66 7.97, 15.76 7.97 M15.51 7.97 C15.6 7.97, 15.69 7.97, 15.76 7.97 M15.76 7.97 C15.82 7.97, 15.89 7.97, 15.99 7.97 M15.76 7.97 C15.83 7.97, 15.9 7.97, 15.99 7.97 M15.99 7.97 C16.04 7.97, 16.09 7.97, 16.19 7.97 M15.99 7.97 C16.06 7.97, 16.13 7.97, 16.19 7.97 M16.19 7.97 C16.26 7.97, 16.33 7.97, 16.38 7.97 M16.19 7.97 C16.24 7.97, 16.28 7.97, 16.38 7.97 M16.38 7.97 C16.43 7.97, 16.48 7.97, 16.54 7.97 M16.38 7.97 C16.44 7.97, 16.5 7.97, 16.54 7.97 M16.54 7.97 C16.57 7.97, 16.61 7.97, 16.68 7.98 M16.54 7.97 C16.57 7.97, 16.61 7.97, 16.68 7.98 M16.68 7.98 C16.72 7.98, 16.76 7.98, 16.79 7.98 M16.68 7.98 C16.71 7.98, 16.75 7.98, 16.79 7.98 M16.79 7.98 C16.81 7.98, 16.83 7.98, 16.87 7.98 M16.79 7.98 C16.81 7.98, 16.84 7.98, 16.87 7.98 M16.87 7.98 C16.89 7.98, 16.92 7.98, 16.93 7.98 M16.87 7.98 C16.89 7.98, 16.9 7.98, 16.93 7.98 M16.93 7.98 C15.63 5.79, 14.33 3.61, 12.18 0 M16.93 7.98 C15.26 5.18, 13.59 2.38, 12.18 0 M12.18 0 C7.91 0, 3.65 0, 0 0 M12.18 0 C9.66 0, 7.14 0, 0 0 M0 0 C0 0, 0 0, 0 0 M0 0 C0 0, 0 0, 0 0 M0 0 C0 0, 0 0, 0 0 M0 0 C0 0, 0 0, 0 0" stroke="#00000000" stroke-width="1" fill="none"></path></g></g><mask></mask><g stroke-linecap="round"><g transform="translate(23.312195265662012 47.20257759094238) rotate(0 4.5462833642959595 3.9176502227783203)" fill-rule="evenodd"><path d="M0 0 L0 0 L0.01 0.21 L0.03 0.44 L0.06 0.66 L0.1 0.87 L0.16 1.08 L0.24 1.26 L0.32 1.41 L0.37 1.48 L0.42 1.54 L0.48 1.64 L0.54 1.77 L0.62 1.91 L0.71 2.07 L0.81 2.25 L0.92 2.45 L1.03 2.66 L1.15 2.88 L1.28 3.11 L1.41 3.35 L1.69 3.85 L1.98 4.37 L2.29 4.9 L2.6 5.42 L2.91 5.92 L3.06 6.16 L3.21 6.39 L3.36 6.61 L3.51 6.81 L3.65 7.01 L3.79 7.18 L3.92 7.34 L4.04 7.49 L4.16 7.61 L4.27 7.71 L4.38 7.78 L4.48 7.84 L9.09 0 L0 0 L0 0" stroke="none" stroke-width="0" fill="#0066da" fill-rule="evenodd"></path><path d="M0 0 C0 0, 0 0, 0 0 M0 0 C0 0, 0 0, 0 0 M0 0 C0 0.06, 0 0.12, 0.01 0.21 M0 0 C0 0.08, 0 0.16, 0.01 0.21 M0.01 0.21 C0.01 0.29, 0.02 0.37, 0.03 0.44 M0.01 0.21 C0.01 0.27, 0.02 0.33, 0.03 0.44 M0.03 0.44 C0.04 0.51, 0.05 0.59, 0.06 0.66 M0.03 0.44 C0.04 0.51, 0.05 0.57, 0.06 0.66 M0.06 0.66 C0.07 0.71, 0.08 0.76, 0.1 0.87 M0.06 0.66 C0.07 0.72, 0.09 0.78, 0.1 0.87 M0.1 0.87 C0.13 0.95, 0.15 1.03, 0.16 1.08 M0.1 0.87 C0.12 0.92, 0.13 0.96, 0.16 1.08 M0.16 1.08 C0.19 1.15, 0.22 1.22, 0.24 1.26 M0.16 1.08 C0.18 1.13, 0.21 1.18, 0.24 1.26 M0.24 1.26 C0.25 1.29, 0.27 1.33, 0.32 1.41 M0.24 1.26 C0.25 1.29, 0.27 1.32, 0.32 1.41 M0.32 1.41 C0.34 1.44, 0.35 1.46, 0.37 1.48 M0.32 1.41 C0.33 1.43, 0.34 1.45, 0.37 1.48 M0.37 1.48 C0.38 1.5, 0.39 1.51, 0.42 1.54 M0.37 1.48 C0.38 1.5, 0.4 1.52, 0.42 1.54 M0.42 1.54 C0.43 1.56, 0.44 1.59, 0.48 1.64 M0.42 1.54 C0.43 1.56, 0.45 1.59, 0.48 1.64 M0.48 1.64 C0.5 1.69, 0.52 1.73, 0.54 1.77 M0.48 1.64 C0.49 1.67, 0.51 1.71, 0.54 1.77 M0.54 1.77 C0.57 1.82, 0.6 1.86, 0.62 1.91 M0.54 1.77 C0.56 1.8, 0.58 1.83, 0.62 1.91 M0.62 1.91 C0.66 1.97, 0.69 2.03, 0.71 2.07 M0.62 1.91 C0.65 1.95, 0.67 1.99, 0.71 2.07 M0.71 2.07 C0.75 2.14, 0.79 2.21, 0.81 2.25 M0.71 2.07 C0.75 2.14, 0.78 2.2, 0.81 2.25 M0.81 2.25 C0.84 2.31, 0.87 2.37, 0.92 2.45 M0.81 2.25 C0.85 2.32, 0.89 2.39, 0.92 2.45 M0.92 2.45 C0.94 2.5, 0.97 2.55, 1.03 2.66 M0.92 2.45 C0.96 2.53, 1 2.61, 1.03 2.66 M1.03 2.66 C1.06 2.71, 1.08 2.75, 1.15 2.88 M1.03 2.66 C1.05 2.7, 1.08 2.75, 1.15 2.88 M1.15 2.88 C1.2 2.97, 1.25 3.05, 1.28 3.11 M1.15 2.88 C1.18 2.93, 1.21 2.99, 1.28 3.11 M1.28 3.11 C1.3 3.16, 1.33 3.21, 1.41 3.35 M1.28 3.11 C1.3 3.16, 1.33 3.21, 1.41 3.35 M1.41 3.35 C1.48 3.47, 1.54 3.59, 1.69 3.85 M1.41 3.35 C1.49 3.5, 1.58 3.65, 1.69 3.85 M1.69 3.85 C1.76 3.97, 1.83 4.1, 1.98 4.37 M1.69 3.85 C1.8 4.05, 1.91 4.25, 1.98 4.37 M1.98 4.37 C2.07 4.52, 2.16 4.67, 2.29 4.9 M1.98 4.37 C2.1 4.57, 2.22 4.77, 2.29 4.9 M2.29 4.9 C2.36 5.02, 2.43 5.13, 2.6 5.42 M2.29 4.9 C2.39 5.07, 2.5 5.25, 2.6 5.42 M2.6 5.42 C2.7 5.57, 2.79 5.73, 2.91 5.92 M2.6 5.42 C2.71 5.59, 2.82 5.77, 2.91 5.92 M2.91 5.92 C2.94 5.97, 2.98 6.02, 3.06 6.16 M2.91 5.92 C2.94 5.98, 2.98 6.03, 3.06 6.16 M3.06 6.16 C3.12 6.24, 3.17 6.32, 3.21 6.39 M3.06 6.16 C3.1 6.22, 3.15 6.29, 3.21 6.39 M3.21 6.39 C3.25 6.44, 3.28 6.49, 3.36 6.61 M3.21 6.39 C3.26 6.45, 3.3 6.51, 3.36 6.61 M3.36 6.61 C3.42 6.69, 3.48 6.77, 3.51 6.81 M3.36 6.61 C3.41 6.68, 3.46 6.75, 3.51 6.81 M3.51 6.81 C3.56 6.89, 3.61 6.96, 3.65 7.01 M3.51 6.81 C3.54 6.86, 3.57 6.9, 3.65 7.01 M3.65 7.01 C3.68 7.05, 3.71 7.09, 3.79 7.18 M3.65 7.01 C3.68 7.05, 3.72 7.1, 3.79 7.18 M3.79 7.18 C3.83 7.23, 3.87 7.29, 3.92 7.34 M3.79 7.18 C3.82 7.22, 3.85 7.26, 3.92 7.34 M3.92 7.34 C3.94 7.37, 3.97 7.4, 4.04 7.49 M3.92 7.34 C3.95 7.39, 3.99 7.43, 4.04 7.49 M4.04 7.49 C4.07 7.52, 4.1 7.55, 4.16 7.61 M4.04 7.49 C4.07 7.52, 4.11 7.55, 4.16 7.61 M4.16 7.61 C4.2 7.64, 4.23 7.67, 4.27 7.71 M4.16 7.61 C4.19 7.63, 4.22 7.66, 4.27 7.71 M4.27 7.71 C4.31 7.73, 4.34 7.76, 4.38 7.78 M4.27 7.71 C4.3 7.72, 4.32 7.74, 4.38 7.78 M4.38 7.78 C4.4 7.8, 4.43 7.81, 4.48 7.84 M4.38 7.78 C4.41 7.8, 4.44 7.81, 4.48 7.84 M4.48 7.84 C6.24 4.84, 8 1.85, 9.09 0 M4.48 7.84 C5.56 5.99, 6.65 4.15, 9.09 0 M9.09 0 C5.8 0, 2.51 0, 0 0 M9.09 0 C6.55 0, 4 0, 0 0 M0 0 C0 0, 0 0, 0 0 M0 0 C0 0, 0 0, 0 0 M0 0 C0 0, 0 0, 0 0 M0 0 C0 0, 0 0, 0 0" stroke="#00000000" stroke-width="1" fill="none"></path></g></g><mask></mask><g stroke-linecap="round"><g transform="translate(53.25530597008401 48.88228797912598) rotate(0 -4.264656066894531 2.3083457946777344)" fill-rule="evenodd"><path d="M0 0 L0 0 L0.09 -0.16 L0.16 -0.34 L0.21 -0.53 L0.25 -0.73 L0.27 -0.95 L0.28 -1.18 L0.28 -1.42 L0.28 -1.68 L-8.81 -1.68 L-4.05 6.3 L-4.05 6.3 L-3.96 6.24 L-3.85 6.17 L-3.74 6.07 L-3.62 5.95 L-3.49 5.8 L-3.35 5.64 L-3.21 5.47 L-3.07 5.27 L-2.92 5.07 L-2.77 4.85 L-2.61 4.62 L-2.45 4.38 L-2.13 3.88 L-1.82 3.36 L-1.51 2.83 L-1.21 2.31 L-0.93 1.81 L-0.8 1.57 L-0.67 1.34 L-0.55 1.12 L-0.45 0.91 L-0.34 0.71 L-0.25 0.53 L-0.17 0.37 L-0.1 0.23 L-0.05 0.1 L0 0 L0 0" stroke="none" stroke-width="0" fill="#ea4335" fill-rule="evenodd"></path><path d="M0 0 C0 0, 0 0, 0 0 M0 0 C0 0, 0 0, 0 0 M0 0 C0.03 -0.05, 0.05 -0.1, 0.09 -0.16 M0 0 C0.03 -0.05, 0.06 -0.1, 0.09 -0.16 M0.09 -0.16 C0.12 -0.23, 0.15 -0.3, 0.16 -0.34 M0.09 -0.16 C0.11 -0.2, 0.12 -0.23, 0.16 -0.34 M0.16 -0.34 C0.18 -0.4, 0.19 -0.45, 0.21 -0.53 M0.16 -0.34 C0.18 -0.39, 0.19 -0.44, 0.21 -0.53 M0.21 -0.53 C0.22 -0.6, 0.24 -0.67, 0.25 -0.73 M0.21 -0.53 C0.22 -0.58, 0.23 -0.63, 0.25 -0.73 M0.25 -0.73 C0.25 -0.82, 0.26 -0.9, 0.27 -0.95 M0.25 -0.73 C0.25 -0.8, 0.26 -0.86, 0.27 -0.95 M0.27 -0.95 C0.27 -1.04, 0.27 -1.12, 0.28 -1.18 M0.27 -0.95 C0.27 -1, 0.27 -1.06, 0.28 -1.18 M0.28 -1.18 C0.28 -1.27, 0.28 -1.36, 0.28 -1.42 M0.28 -1.18 C0.28 -1.28, 0.28 -1.37, 0.28 -1.42 M0.28 -1.42 C0.28 -1.51, 0.28 -1.6, 0.28 -1.68 M0.28 -1.42 C0.28 -1.5, 0.28 -1.58, 0.28 -1.68 M0.28 -1.68 C-2.09 -1.68, -4.46 -1.68, -8.81 -1.68 M0.28 -1.68 C-2.04 -1.68, -4.36 -1.68, -8.81 -1.68 M-8.81 -1.68 C-7.19 1.03, -5.57 3.75, -4.05 6.3 M-8.81 -1.68 C-7.59 0.37, -6.37 2.41, -4.05 6.3 M-4.05 6.3 C-4.05 6.3, -4.05 6.3, -4.05 6.3 M-4.05 6.3 C-4.05 6.3, -4.05 6.3, -4.05 6.3 M-4.05 6.3 C-4.03 6.28, -4.01 6.27, -3.96 6.24 M-4.05 6.3 C-4.03 6.28, -4.01 6.27, -3.96 6.24 M-3.96 6.24 C-3.92 6.22, -3.88 6.19, -3.85 6.17 M-3.96 6.24 C-3.92 6.22, -3.89 6.2, -3.85 6.17 M-3.85 6.17 C-3.83 6.14, -3.8 6.12, -3.74 6.07 M-3.85 6.17 C-3.82 6.14, -3.8 6.12, -3.74 6.07 M-3.74 6.07 C-3.7 6.03, -3.67 6, -3.62 5.95 M-3.74 6.07 C-3.71 6.04, -3.69 6.02, -3.62 5.95 M-3.62 5.95 C-3.59 5.91, -3.56 5.88, -3.49 5.8 M-3.62 5.95 C-3.57 5.9, -3.53 5.85, -3.49 5.8 M-3.49 5.8 C-3.45 5.76, -3.42 5.72, -3.35 5.64 M-3.49 5.8 C-3.44 5.75, -3.4 5.7, -3.35 5.64 M-3.35 5.64 C-3.32 5.61, -3.29 5.57, -3.21 5.47 M-3.35 5.64 C-3.31 5.59, -3.26 5.53, -3.21 5.47 M-3.21 5.47 C-3.16 5.4, -3.11 5.33, -3.07 5.27 M-3.21 5.47 C-3.17 5.41, -3.13 5.35, -3.07 5.27 M-3.07 5.27 C-3.03 5.23, -3 5.18, -2.92 5.07 M-3.07 5.27 C-3.03 5.23, -3 5.18, -2.92 5.07 M-2.92 5.07 C-2.88 5.01, -2.84 4.96, -2.77 4.85 M-2.92 5.07 C-2.89 5.02, -2.86 4.98, -2.77 4.85 M-2.77 4.85 C-2.72 4.79, -2.68 4.73, -2.61 4.62 M-2.77 4.85 C-2.71 4.76, -2.65 4.67, -2.61 4.62 M-2.61 4.62 C-2.57 4.56, -2.54 4.51, -2.45 4.38 M-2.61 4.62 C-2.55 4.53, -2.5 4.45, -2.45 4.38 M-2.45 4.38 C-2.35 4.21, -2.24 4.04, -2.13 3.88 M-2.45 4.38 C-2.37 4.25, -2.29 4.13, -2.13 3.88 M-2.13 3.88 C-2.04 3.73, -1.95 3.58, -1.82 3.36 M-2.13 3.88 C-2.03 3.7, -1.92 3.52, -1.82 3.36 M-1.82 3.36 C-1.75 3.25, -1.69 3.14, -1.51 2.83 M-1.82 3.36 C-1.72 3.19, -1.62 3.02, -1.51 2.83 M-1.51 2.83 C-1.39 2.64, -1.28 2.44, -1.21 2.31 M-1.51 2.83 C-1.41 2.66, -1.31 2.49, -1.21 2.31 M-1.21 2.31 C-1.13 2.17, -1.05 2.03, -0.93 1.81 M-1.21 2.31 C-1.15 2.2, -1.09 2.09, -0.93 1.81 M-0.93 1.81 C-0.88 1.72, -0.83 1.63, -0.8 1.57 M-0.93 1.81 C-0.88 1.72, -0.83 1.63, -0.8 1.57 M-0.8 1.57 C-0.76 1.5, -0.72 1.43, -0.67 1.34 M-0.8 1.57 C-0.75 1.48, -0.7 1.39, -0.67 1.34 M-0.67 1.34 C-0.64 1.27, -0.6 1.21, -0.55 1.12 M-0.67 1.34 C-0.64 1.27, -0.6 1.2, -0.55 1.12 M-0.55 1.12 C-0.53 1.07, -0.51 1.03, -0.45 0.91 M-0.55 1.12 C-0.53 1.06, -0.5 1.01, -0.45 0.91 M-0.45 0.91 C-0.42 0.85, -0.39 0.79, -0.34 0.71 M-0.45 0.91 C-0.42 0.85, -0.39 0.8, -0.34 0.71 M-0.34 0.71 C-0.31 0.65, -0.28 0.58, -0.25 0.53 M-0.34 0.71 C-0.32 0.67, -0.3 0.63, -0.25 0.53 M-0.25 0.53 C-0.23 0.49, -0.21 0.44, -0.17 0.37 M-0.25 0.53 C-0.22 0.47, -0.19 0.41, -0.17 0.37 M-0.17 0.37 C-0.15 0.32, -0.13 0.28, -0.1 0.23 M-0.17 0.37 C-0.15 0.33, -0.13 0.29, -0.1 0.23 M-0.1 0.23 C-0.09 0.19, -0.07 0.15, -0.05 0.1 M-0.1 0.23 C-0.09 0.2, -0.08 0.17, -0.05 0.1 M-0.05 0.1 C-0.03 0.07, -0.01 0.03, 0 0 M-0.05 0.1 C-0.03 0.08, -0.02 0.05, 0 0 M0 0 C0 0, 0 0, 0 0 M0 0 C0 0, 0 0, 0 0 M0 0 C0 0, 0 0, 0 0 M0 0 C0 0, 0 0, 0 0" stroke="#00000000" stroke-width="1" fill="none"></path></g></g><mask></mask><g stroke-linecap="round"><g transform="translate(32.26897689140969 47.20257759094238) rotate(0 6.0876946449279785 -5.107025146484375)" fill-rule="evenodd"><path d="M0 0 L12.18 0 L6.01 -10.21 L0 0" stroke="none" stroke-width="0" fill="#fff" fill-rule="evenodd"></path><path d="M0 0 C3.62 0, 7.23 0, 12.18 0 M0 0 C3.63 0, 7.26 0, 12.18 0 M12.18 0 C10.83 -2.24, 9.48 -4.47, 6.01 -10.21 M12.18 0 C10.58 -2.64, 8.98 -5.29, 6.01 -10.21 M6.01 -10.21 C4.47 -7.58, 2.92 -4.95, 0 0 M6.01 -10.21 C3.93 -6.68, 1.85 -3.14, 0 0 M0 0 C0 0, 0 0, 0 0 M0 0 C0 0, 0 0, 0 0" stroke="#00000000" stroke-width="1" fill="none"></path></g></g><mask></mask></svg>