<svg xmlns="http://www.w3.org/2000/svg" viewBox="127.69 1910.68 294.14 284.79" width="294" height="285"><polyline points="227.71,1916.68 133.69,1955.85 133.69,2020.36 133.69,2020.36 133.81,2025.79 134.15,2031.18 134.72,2036.54 135.52,2041.86 136.53,2047.13 137.74,2052.35 139.17,2057.50 140.80,2062.58 142.62,2067.59 144.63,2072.52 146.83,2077.35 149.22,2082.09 151.78,2086.73 154.51,2091.26 157.41,2095.67 160.48,2099.96 163.70,2104.12 167.07,2108.15 170.60,2112.03 174.27,2115.76 178.07,2119.33 182.01,2122.74 186.08,2125.99 190.28,2129.05 194.59,2131.93 199.02,2134.62 203.56,2137.11 208.21,2139.40 212.96,2141.48 217.80,2143.34 222.73,2144.98 227.75,2146.38 232.77,2145.03 237.70,2143.44 242.53,2141.62 247.28,2139.59 251.92,2137.33 256.46,2134.88 260.89,2132.22 265.20,2129.37 269.40,2126.33 273.47,2123.12 277.41,2119.73 281.22,2116.18 284.88,2112.47 288.41,2108.60 291.78,2104.59 295.01,2100.45 298.07,2096.17 300.97,2091.77 303.71,2087.25 306.27,2082.62 308.66,2077.88 310.86,2073.05 312.87,2068.13 314.70,2063.13 316.33,2058.05 317.75,2052.90 318.97,2047.68 319.98,2042.42 320.77,2037.10 321.35,2031.74 321.69,2026.34 321.81,2020.92 321.81,1955.85 227.71,1916.68 227.71,1916.68" fill="none" stroke="#000000" stroke-width="1" opacity="1.0" stroke-linecap="round" stroke-linejoin="round"/><polyline points="227.71,1960.09 227.71,1960.09 229.26,1960.13 230.79,1960.24 232.30,1960.43 233.78,1960.70 236.67,1961.44 239.44,1962.46 242.07,1963.73 244.56,1965.24 246.88,1966.97 249.02,1968.92 250.96,1971.06 252.70,1973.38 254.21,1975.86 255.48,1978.50 256.49,1981.27 257.24,1984.15 257.50,1985.64 257.69,1987.15 257.81,1988.67 257.85,1990.22 257.81,1991.77 257.69,1993.30 257.50,1994.81 257.24,1996.30 256.49,1999.18 255.48,2001.95 254.21,2004.59 252.70,2007.07 250.96,2009.39 249.02,2011.53 246.88,2013.48 244.56,2015.21 242.07,2016.72 239.44,2017.99 236.67,2019.01 233.78,2019.75 232.30,2020.02 230.79,2020.21 229.26,2020.32 227.71,2020.36 226.16,2020.32 224.63,2020.21 223.12,2020.02 221.64,2019.75 218.75,2019.01 215.98,2017.99 213.35,2016.72 210.86,2015.21 208.54,2013.48 206.40,2011.53 204.46,2009.39 202.72,2007.07 201.21,2004.59 199.94,2001.95 198.93,1999.18 198.18,1996.30 197.92,1994.81 197.73,1993.30 197.61,1991.77 197.57,1990.22 197.72,1987.24 198.15,1984.32 198.87,1981.46 199.86,1978.69 201.12,1976.04 202.63,1973.51 204.40,1971.13 206.40,1968.92 208.62,1966.91 211.00,1965.15 213.53,1963.63 216.20,1962.38 218.96,1961.39 221.82,1960.67 224.74,1960.23 227.71,1960.09 227.71,1960.09" fill="none" stroke="#000000" stroke-width="1" opacity="1.0" stroke-linecap="round" stroke-linejoin="round"/><polyline points="274.80,2087.85 274.80,2087.85 272.50,2090.74 270.10,2093.53 267.60,2096.22 265.01,2098.82 262.33,2101.31 259.56,2103.70 256.70,2105.98 253.76,2108.16 250.75,2110.23 247.66,2112.18 244.50,2114.02 241.27,2115.75 237.97,2117.35 234.61,2118.84 231.19,2120.20 227.71,2121.43 224.23,2120.20 220.81,2118.84 217.45,2117.35 214.15,2115.75 210.92,2114.02 207.76,2112.18 204.67,2110.23 201.66,2108.16 198.72,2105.98 195.86,2103.70 193.09,2101.31 190.41,2098.82 187.82,2096.22 185.32,2093.53 182.92,2090.74 180.62,2087.85 180.62,2062.07 180.62,2062.07 180.71,2060.30 180.98,2058.59 181.41,2056.93 182.00,2055.33 182.74,2053.79 183.62,2052.30 184.64,2050.86 185.77,2049.49 187.02,2048.16 188.38,2046.89 189.84,2045.68 191.38,2044.53 193.01,2043.42 194.71,2042.38 196.47,2041.39 198.28,2040.46 202.04,2038.76 205.92,2037.29 209.84,2036.04 213.74,2035.02 217.54,2034.22 219.39,2033.91 221.18,2033.65 222.92,2033.45 224.60,2033.31 226.20,2033.22 227.71,2033.20 229.23,2033.22 230.82,2033.31 232.50,2033.45 234.24,2033.65 236.03,2033.91 237.88,2034.22 241.68,2035.02 245.58,2036.04 249.50,2037.29 253.38,2038.76 257.14,2040.46 258.95,2041.39 260.71,2042.38 262.41,2043.42 264.04,2044.53 265.58,2045.68 267.04,2046.89 268.40,2048.16 269.65,2049.49 270.78,2050.86 271.80,2052.30 272.68,2053.79 273.42,2055.33 274.01,2056.93 274.44,2058.59 274.71,2060.30 274.80,2062.07 274.80,2087.85 274.80,2087.85" fill="none" stroke="#000000" stroke-width="1" opacity="1.0" stroke-linecap="round" stroke-linejoin="round"/><polyline points="227.71,1916.68 227.71,1960.09 227.71,1960.09 229.26,1960.13 230.79,1960.24 232.30,1960.43 233.78,1960.70 236.67,1961.44 239.44,1962.46 242.07,1963.73 244.56,1965.24 246.88,1966.97 249.02,1968.92 250.96,1971.06 252.70,1973.38 254.21,1975.86 255.48,1978.50 256.49,1981.27 257.24,1984.15 257.50,1985.64 257.69,1987.15 257.81,1988.67 257.85,1990.22 257.81,1991.77 257.69,1993.30 257.50,1994.81 257.24,1996.30 256.49,1999.18 255.48,2001.95 254.21,2004.59 252.70,2007.07 250.96,2009.39 249.02,2011.53 246.88,2013.48 244.56,2015.21 242.07,2016.72 239.44,2017.99 236.67,2019.01 233.78,2019.75 232.30,2020.02 230.79,2020.21 229.26,2020.32 227.71,2020.36 227.71,2033.20 227.71,2033.20 229.23,2033.22 230.82,2033.31 232.50,2033.45 234.24,2033.65 236.03,2033.91 237.88,2034.22 241.68,2035.02 245.58,2036.04 249.50,2037.29 253.38,2038.76 257.14,2040.46 258.95,2041.39 260.71,2042.38 262.41,2043.42 264.04,2044.53 265.58,2045.68 267.04,2046.89 268.40,2048.16 269.65,2049.49 270.78,2050.86 271.80,2052.30 272.68,2053.79 273.42,2055.33 274.01,2056.93 274.44,2058.59 274.71,2060.30 274.80,2062.07 274.80,2087.85 274.80,2087.85 272.50,2090.74 270.10,2093.53 267.60,2096.22 265.01,2098.82 262.33,2101.31 259.56,2103.70 256.70,2105.98 253.76,2108.16 250.75,2110.23 247.66,2112.18 244.50,2114.02 241.27,2115.75 237.97,2117.35 234.61,2118.84 231.19,2120.20 227.71,2121.43 227.71,2145.83 227.71,2145.83 232.73,2144.47 237.66,2142.88 242.49,2141.07 247.24,2139.03 251.88,2136.78 256.42,2134.32 260.85,2131.67 265.16,2128.82 269.36,2125.78 273.43,2122.56 277.37,2119.18 281.18,2115.62 284.84,2111.91 288.37,2108.05 291.75,2104.04 294.97,2099.89 298.03,2095.62 300.94,2091.21 303.67,2086.69 306.23,2082.06 308.62,2077.33 310.82,2072.50 312.83,2067.58 314.66,2062.57 316.29,2057.49 317.71,2052.34 318.93,2047.13 319.94,2041.86 320.73,2036.54 321.31,2031.18 321.65,2025.79 321.77,2020.36 321.77,1955.85 227.71,1916.68 227.71,1916.68" fill="none" stroke="#000000" stroke-width="1" opacity="1.0" stroke-linecap="round" stroke-linejoin="round"/><polyline points="227.71,1960.09 227.71,1960.09 229.26,1960.13 230.79,1960.24 232.30,1960.43 233.78,1960.70 236.67,1961.44 239.44,1962.46 242.07,1963.73 244.56,1965.24 246.88,1966.97 249.02,1968.92 250.96,1971.06 252.70,1973.38 254.21,1975.86 255.48,1978.50 256.49,1981.27 257.24,1984.15 257.50,1985.64 257.69,1987.15 257.81,1988.67 257.85,1990.22 257.81,1991.77 257.69,1993.30 257.50,1994.81 257.24,1996.30 256.49,1999.18 255.48,2001.95 254.21,2004.59 252.70,2007.07 250.96,2009.39 249.02,2011.53 246.88,2013.48 244.56,2015.21 242.07,2016.72 239.44,2017.99 236.67,2019.01 233.78,2019.75 232.30,2020.02 230.79,2020.21 229.26,2020.32 227.71,2020.36 226.16,2020.32 224.63,2020.21 223.12,2020.02 221.64,2019.75 218.75,2019.01 215.98,2017.99 213.35,2016.72 210.86,2015.21 208.54,2013.48 206.40,2011.53 204.46,2009.39 202.72,2007.07 201.21,2004.59 199.94,2001.95 198.93,1999.18 198.18,1996.30 197.92,1994.81 197.73,1993.30 197.61,1991.77 197.57,1990.22 197.72,1987.24 198.15,1984.32 198.87,1981.46 199.86,1978.69 201.12,1976.04 202.63,1973.51 204.40,1971.13 206.40,1968.92 208.62,1966.91 211.00,1965.15 213.53,1963.63 216.20,1962.38 218.96,1961.39 221.82,1960.67 224.74,1960.23 227.71,1960.09 227.71,1960.09" fill="none" stroke="#000000" stroke-width="1" opacity="1.0" stroke-linecap="round" stroke-linejoin="round"/><polyline points="274.80,2087.85 274.80,2087.85 272.50,2090.74 270.10,2093.53 267.60,2096.22 265.01,2098.82 262.33,2101.31 259.56,2103.70 256.70,2105.98 253.76,2108.16 250.75,2110.23 247.66,2112.18 244.50,2114.02 241.27,2115.75 237.97,2117.35 234.61,2118.84 231.19,2120.20 227.71,2121.43 224.23,2120.20 220.81,2118.84 217.45,2117.35 214.15,2115.75 210.92,2114.02 207.76,2112.18 204.67,2110.23 201.66,2108.16 198.72,2105.98 195.86,2103.70 193.09,2101.31 190.41,2098.82 187.82,2096.22 185.32,2093.53 182.92,2090.74 180.62,2087.85 180.62,2062.07 180.62,2062.07 180.71,2060.30 180.98,2058.59 181.41,2056.93 182.00,2055.33 182.74,2053.79 183.62,2052.30 184.64,2050.86 185.77,2049.49 187.02,2048.16 188.38,2046.89 189.84,2045.68 191.38,2044.53 193.01,2043.42 194.71,2042.38 196.47,2041.39 198.28,2040.46 202.04,2038.76 205.92,2037.29 209.84,2036.04 213.74,2035.02 217.54,2034.22 219.39,2033.91 221.18,2033.65 222.92,2033.45 224.60,2033.31 226.20,2033.22 227.71,2033.20 229.23,2033.22 230.82,2033.31 232.50,2033.45 234.24,2033.65 236.03,2033.91 237.88,2034.22 241.68,2035.02 245.58,2036.04 249.50,2037.29 253.38,2038.76 257.14,2040.46 258.95,2041.39 260.71,2042.38 262.41,2043.42 264.04,2044.53 265.58,2045.68 267.04,2046.89 268.40,2048.16 269.65,2049.49 270.78,2050.86 271.80,2052.30 272.68,2053.79 273.42,2055.33 274.01,2056.93 274.44,2058.59 274.71,2060.30 274.80,2062.07 274.80,2087.85 274.80,2087.85" fill="none" stroke="#000000" stroke-width="1" opacity="1.0" stroke-linecap="round" stroke-linejoin="round"/><text x="142.53" y="2183.47" font-size="35.99999999999998" fill="#000000" opacity="1.0" font-family="sans-serif">Cloud IAM</text></svg>