<svg version="1.1" xmlns="http://www.w3.org/2000/svg" viewBox="0 0 185.04348187083738 214.62111801242236" width="185.04348187083738" height="214.62111801242236">
  <!-- svg-source:excalidraw -->
  
  <defs>
    
    
  </defs>
  <g stroke-linecap="round"><g transform="translate(27.630434266898817 124.7078242716575) rotate(0 25.235506129005522 -59.35391213582875)" fill-rule="evenodd"><path d="M0 0 L43.26 -74.24 L57.68 -74.24 L72.1 -96.44 L57.57 -118.71 L21.63 -118.71 L-21.63 -44.53 L0 0 L0 0" stroke="none" stroke-width="0" fill="#4285f4" fill-rule="evenodd"></path><path d="M0 0 C13.61 -23.35, 27.21 -46.7, 43.26 -74.24 M0 0 C15.52 -26.63, 31.04 -53.27, 43.26 -74.24 M43.26 -74.24 C46.88 -74.24, 50.49 -74.24, 57.68 -74.24 M43.26 -74.24 C46.93 -74.24, 50.59 -74.24, 57.68 -74.24 M57.68 -74.24 C61.36 -79.9, 65.04 -85.56, 72.1 -96.44 M57.68 -74.24 C62.07 -81, 66.47 -87.76, 72.1 -96.44 M72.1 -96.44 C66.65 -104.8, 61.19 -113.15, 57.57 -118.71 M72.1 -96.44 C68.62 -101.78, 65.14 -107.11, 57.57 -118.71 M57.57 -118.71 C49.29 -118.71, 41.02 -118.71, 21.63 -118.71 M57.57 -118.71 C44.87 -118.71, 32.17 -118.71, 21.63 -118.71 M21.63 -118.71 C5.92 -91.76, -9.8 -64.82, -21.63 -44.53 M21.63 -118.71 C8.56 -96.3, -4.51 -73.89, -21.63 -44.53 M-21.63 -44.53 C-15.26 -31.41, -8.88 -18.28, 0 0 M-21.63 -44.53 C-17.3 -35.61, -12.97 -26.69, 0 0 M0 0 C0 0, 0 0, 0 0 M0 0 C0 0, 0 0, 0 0 M0 0 C0 0, 0 0, 0 0 M0 0 C0 0, 0 0, 0 0" stroke="#000000" stroke-width="1" fill="none"></path></g></g><mask></mask><g stroke-linecap="round"><g transform="translate(114.15217752301913 28.264925899713035) rotate(0 7.2101421770841725 -0.028838489366762587)" fill-rule="evenodd"><path d="M0 0 L-14.42 22.21 L14.42 22.21 L28.84 0 L14.42 -22.26 L-14.42 -22.26 L0 0 L0 0" stroke="none" stroke-width="0" fill="#669df6cc" fill-rule="evenodd"></path><path d="M0 0 C-5.1 7.85, -10.2 15.7, -14.42 22.21 M0 0 C-5.55 8.55, -11.1 17.09, -14.42 22.21 M-14.42 22.21 C-3.12 22.21, 8.18 22.21, 14.42 22.21 M-14.42 22.21 C-8.45 22.21, -2.47 22.21, 14.42 22.21 M14.42 22.21 C20.14 13.41, 25.85 4.6, 28.84 0 M14.42 22.21 C20.02 13.58, 25.62 4.96, 28.84 0 M28.84 0 C24.09 -7.33, 19.34 -14.67, 14.42 -22.26 M28.84 0 C23.51 -8.23, 18.19 -16.45, 14.42 -22.26 M14.42 -22.26 C4.81 -22.26, -4.81 -22.26, -14.42 -22.26 M14.42 -22.26 C7.2 -22.26, -0.02 -22.26, -14.42 -22.26 M-14.42 -22.26 C-11.13 -17.19, -7.84 -12.11, 0 0 M-14.42 -22.26 C-9.48 -14.64, -4.55 -7.02, 0 0 M0 0 C0 0, 0 0, 0 0 M0 0 C0 0, 0 0, 0 0 M0 0 C0 0, 0 0, 0 0 M0 0 C0 0, 0 0, 0 0" stroke="#000000" stroke-width="1" fill="none"></path></g></g><mask></mask><g stroke-linecap="round"><g transform="translate(157.41304296255083 43.031306163125464) rotate(0 -25.235503808311705 59.35391213582875)" fill-rule="evenodd"><path d="M0 0 L-43.26 74.24 L-57.68 74.24 L-72.1 96.44 L-57.57 118.71 L-21.63 118.71 L21.63 44.53 L0 0 L0 0" stroke="none" stroke-width="0" fill="#aecbfa99" fill-rule="evenodd"></path><path d="M0 0 C-9.57 16.42, -19.14 32.85, -43.26 74.24 M0 0 C-14.67 25.17, -29.34 50.34, -43.26 74.24 M-43.26 74.24 C-48.63 74.24, -53.99 74.24, -57.68 74.24 M-43.26 74.24 C-47.39 74.24, -51.53 74.24, -57.68 74.24 M-57.68 74.24 C-63.38 83.01, -69.08 91.79, -72.1 96.44 M-57.68 74.24 C-61.79 80.56, -65.89 86.88, -72.1 96.44 M-72.1 96.44 C-68 102.73, -63.89 109.01, -57.57 118.71 M-72.1 96.44 C-67.08 104.14, -62.06 111.83, -57.57 118.71 M-57.57 118.71 C-46.16 118.71, -34.76 118.71, -21.63 118.71 M-57.57 118.71 C-44.1 118.71, -30.63 118.71, -21.63 118.71 M-21.63 118.71 C-7.31 94.15, 7.02 69.58, 21.63 44.53 M-21.63 118.71 C-10.05 98.86, 1.53 79, 21.63 44.53 M21.63 44.53 C16.15 33.24, 10.67 21.96, 0 0 M21.63 44.53 C15.02 30.92, 8.4 17.3, 0 0 M0 0 C0 0, 0 0, 0 0 M0 0 C0 0, 0 0, 0 0 M0 0 C0 0, 0 0, 0 0 M0 0 C0 0, 0 0, 0 0" stroke="#000000" stroke-width="1" fill="none"></path></g></g><mask></mask><g stroke-linecap="round"><g transform="translate(85.31159643763448 161.7391304347807) rotate(0 -21.630435814028075 -22.236084316087727)" fill-rule="evenodd"><path d="M0 0 L-14.42 -22.26 L0 -44.47 L-28.84 -44.47 L-43.26 -22.26 L-28.84 0 L0 0 L0 0" stroke="none" stroke-width="0" fill="#669df6cc" fill-rule="evenodd"></path><path d="M0 0 C-5.37 -8.29, -10.74 -16.58, -14.42 -22.26 M0 0 C-3.54 -5.47, -7.08 -10.94, -14.42 -22.26 M-14.42 -22.26 C-10.56 -28.21, -6.69 -34.16, 0 -44.47 M-14.42 -22.26 C-8.75 -30.99, -3.08 -39.72, 0 -44.47 M0 -44.47 C-8.78 -44.47, -17.56 -44.47, -28.84 -44.47 M0 -44.47 C-9.4 -44.47, -18.8 -44.47, -28.84 -44.47 M-28.84 -44.47 C-32.97 -38.11, -37.1 -31.75, -43.26 -22.26 M-28.84 -44.47 C-32.32 -39.11, -35.8 -33.75, -43.26 -22.26 M-43.26 -22.26 C-39.99 -17.21, -36.72 -12.16, -28.84 0 M-43.26 -22.26 C-38.69 -15.2, -34.11 -8.14, -28.84 0 M-28.84 0 C-18.92 0, -9.01 0, 0 0 M-28.84 0 C-18.32 0, -7.8 0, 0 0 M0 0 C0 0, 0 0, 0 0 M0 0 C0 0, 0 0, 0 0 M0 0 C0 0, 0 0, 0 0 M0 0 C0 0, 0 0, 0 0" stroke="#000000" stroke-width="1" fill="none"></path></g></g><mask></mask><g transform="translate(29.997929884779012 166.62111801242236) rotate(0 62.5 21)"><text x="0" y="0" font-family="Helvetica, Segoe UI Emoji" font-size="35.99999999999998px" fill="#000000" text-anchor="start" style="white-space: pre;" direction="ltr" dominant-baseline="text-before-edge">AutoML</text></g></svg>