<svg version="1.1" xmlns="http://www.w3.org/2000/svg" viewBox="0 0 216 307.2767228134826" width="216" height="307.2767228134826">
  <!-- svg-source:excalidraw -->
  
  <defs>
    
    
  </defs>
  <g stroke-linecap="round"><g transform="translate(42.150701957856654 200.4867451527998) rotate(0 -15.777725239011943 -24.305917899853057)" fill-rule="evenodd"><path d="M0 0 L0 0 L-3.16 7.86 L-9.47 12.75 L-17.36 14 L-25.25 10.93 L-29.53 6.12 L-31.56 0 L-31.56 0 L-31.56 -45.02 L-31.56 -45.02 L-30.28 -53.39 L-25.25 -59.6 L-17.85 -62.61 L-9.47 -61.42 L-2.02 -54.79 L0 -45.02 L0 0" stroke="none" stroke-width="0" fill="#4285f4" fill-rule="evenodd"></path><path d="M0 0 C0 0, 0 0, 0 0 M0 0 C0 0, 0 0, 0 0 M0 0 C-1.05 2.6, -2.09 5.21, -3.16 7.86 M0 0 C-1.23 3.06, -2.46 6.12, -3.16 7.86 M-3.16 7.86 C-4.75 9.09, -6.34 10.33, -9.47 12.75 M-3.16 7.86 C-5.58 9.74, -8.01 11.62, -9.47 12.75 M-9.47 12.75 C-11.29 13.04, -13.11 13.33, -17.36 14 M-9.47 12.75 C-11.91 13.14, -14.34 13.52, -17.36 14 M-17.36 14 C-20.02 12.96, -22.68 11.93, -25.25 10.93 M-17.36 14 C-19.76 13.07, -22.16 12.13, -25.25 10.93 M-25.25 10.93 C-26.34 9.7, -27.44 8.47, -29.53 6.12 M-25.25 10.93 C-26.28 9.77, -27.31 8.61, -29.53 6.12 M-29.53 6.12 C-30.29 3.82, -31.05 1.52, -31.56 0 M-29.53 6.12 C-30.07 4.49, -30.61 2.86, -31.56 0 M-31.56 0 C-31.56 0, -31.56 0, -31.56 0 M-31.56 0 C-31.56 0, -31.56 0, -31.56 0 M-31.56 0 C-31.56 -9.49, -31.56 -18.98, -31.56 -45.02 M-31.56 0 C-31.56 -9.36, -31.56 -18.72, -31.56 -45.02 M-31.56 -45.02 C-31.56 -45.02, -31.56 -45.02, -31.56 -45.02 M-31.56 -45.02 C-31.56 -45.02, -31.56 -45.02, -31.56 -45.02 M-31.56 -45.02 C-31.14 -47.72, -30.73 -50.42, -30.28 -53.39 M-31.56 -45.02 C-31.23 -47.16, -30.9 -49.3, -30.28 -53.39 M-30.28 -53.39 C-28.78 -55.24, -27.28 -57.09, -25.25 -59.6 M-30.28 -53.39 C-28.7 -55.34, -27.12 -57.29, -25.25 -59.6 M-25.25 -59.6 C-22.84 -60.58, -20.42 -61.56, -17.85 -62.61 M-25.25 -59.6 C-23.57 -60.28, -21.89 -60.96, -17.85 -62.61 M-17.85 -62.61 C-15.6 -62.29, -13.34 -61.97, -9.47 -61.42 M-17.85 -62.61 C-14.54 -62.14, -11.23 -61.67, -9.47 -61.42 M-9.47 -61.42 C-7.43 -59.61, -5.4 -57.79, -2.02 -54.79 M-9.47 -61.42 C-7.05 -59.26, -4.63 -57.11, -2.02 -54.79 M-2.02 -54.79 C-1.28 -51.21, -0.54 -47.63, 0 -45.02 M-2.02 -54.79 C-1.45 -52.02, -0.88 -49.26, 0 -45.02 M0 -45.02 C0 -29.18, 0 -13.34, 0 0 M0 -45.02 C0 -33.97, 0 -22.92, 0 0 M0 0 C0 0, 0 0, 0 0 M0 0 C0 0, 0 0, 0 0" stroke="#000000" stroke-width="1" fill="none"></path></g></g><mask></mask><g stroke-linecap="round"><g transform="translate(96.11052026276684 200.4867451527998) rotate(0 -15.777724298586293 -22.50954691267725)" fill-rule="evenodd"><path d="M0 0 L0 0 L-3.16 7.86 L-9.47 12.75 L-17.36 14 L-25.25 10.93 L-29.53 6.12 L-31.56 0 L-31.56 0 L-31.56 -45.02 L-31.56 -45.02 L-28.4 -52.88 L-22.09 -57.77 L-14.2 -59.02 L-6.31 -55.95 L-2.02 -51.14 L0 -45.02 L0 0" stroke="none" stroke-width="0" fill="#4285f4" fill-rule="evenodd"></path><path d="M0 0 C0 0, 0 0, 0 0 M0 0 C0 0, 0 0, 0 0 M0 0 C-1.18 2.93, -2.36 5.87, -3.16 7.86 M0 0 C-1.01 2.52, -2.02 5.04, -3.16 7.86 M-3.16 7.86 C-4.94 9.24, -6.73 10.63, -9.47 12.75 M-3.16 7.86 C-4.86 9.18, -6.57 10.51, -9.47 12.75 M-9.47 12.75 C-11.8 13.12, -14.13 13.49, -17.36 14 M-9.47 12.75 C-11.11 13.01, -12.76 13.27, -17.36 14 M-17.36 14 C-20.18 12.9, -23.01 11.8, -25.25 10.93 M-17.36 14 C-19.96 12.99, -22.57 11.97, -25.25 10.93 M-25.25 10.93 C-26.88 9.09, -28.52 7.25, -29.53 6.12 M-25.25 10.93 C-26.78 9.21, -28.31 7.49, -29.53 6.12 M-29.53 6.12 C-30.12 4.33, -30.71 2.55, -31.56 0 M-29.53 6.12 C-30 4.71, -30.46 3.31, -31.56 0 M-31.56 0 C-31.56 0, -31.56 0, -31.56 0 M-31.56 0 C-31.56 0, -31.56 0, -31.56 0 M-31.56 0 C-31.56 -16.23, -31.56 -32.46, -31.56 -45.02 M-31.56 0 C-31.56 -11.94, -31.56 -23.89, -31.56 -45.02 M-31.56 -45.02 C-31.56 -45.02, -31.56 -45.02, -31.56 -45.02 M-31.56 -45.02 C-31.56 -45.02, -31.56 -45.02, -31.56 -45.02 M-31.56 -45.02 C-30.35 -48.02, -29.14 -51.02, -28.4 -52.88 M-31.56 -45.02 C-30.39 -47.93, -29.22 -50.83, -28.4 -52.88 M-28.4 -52.88 C-26.91 -54.03, -25.43 -55.18, -22.09 -57.77 M-28.4 -52.88 C-26.44 -54.4, -24.47 -55.92, -22.09 -57.77 M-22.09 -57.77 C-20.41 -58.04, -18.74 -58.3, -14.2 -59.02 M-22.09 -57.77 C-20.41 -58.04, -18.73 -58.3, -14.2 -59.02 M-14.2 -59.02 C-12.38 -58.31, -10.57 -57.61, -6.31 -55.95 M-14.2 -59.02 C-12.02 -58.17, -9.85 -57.32, -6.31 -55.95 M-6.31 -55.95 C-5.25 -54.76, -4.2 -53.58, -2.02 -51.14 M-6.31 -55.95 C-5.03 -54.51, -3.76 -53.08, -2.02 -51.14 M-2.02 -51.14 C-1.6 -49.86, -1.18 -48.57, 0 -45.02 M-2.02 -51.14 C-1.48 -49.5, -0.94 -47.86, 0 -45.02 M0 -45.02 C0 -30.75, 0 -16.49, 0 0 M0 -45.02 C0 -33.05, 0 -21.09, 0 0 M0 0 C0 0, 0 0, 0 0 M0 0 C0 0, 0 0, 0 0" stroke="#000000" stroke-width="1" fill="none"></path></g></g><mask></mask><g stroke-linecap="round"><g transform="translate(149.33404546925976 200.4867451527998) rotate(0 -15.777724298586293 -22.50954691267725)" fill-rule="evenodd"><path d="M0 0 L0 0 L-3.16 7.86 L-9.47 12.75 L-17.36 14 L-25.25 10.93 L-29.53 6.12 L-31.56 0 L-31.56 -45.02 L-31.56 -45.02 L-28.4 -52.88 L-22.09 -57.77 L-14.2 -59.02 L-6.31 -55.95 L-2.02 -51.14 L0 -45.02 L0 0" stroke="none" stroke-width="0" fill="#4285f4" fill-rule="evenodd"></path><path d="M0 0 C0 0, 0 0, 0 0 M0 0 C0 0, 0 0, 0 0 M0 0 C-0.98 2.44, -1.96 4.87, -3.16 7.86 M0 0 C-1.03 2.57, -2.07 5.14, -3.16 7.86 M-3.16 7.86 C-5.45 9.63, -7.74 11.41, -9.47 12.75 M-3.16 7.86 C-5.16 9.41, -7.17 10.97, -9.47 12.75 M-9.47 12.75 C-11.14 13.02, -12.82 13.28, -17.36 14 M-9.47 12.75 C-11.96 13.15, -14.44 13.54, -17.36 14 M-17.36 14 C-19.65 13.11, -21.95 12.21, -25.25 10.93 M-17.36 14 C-20.5 12.78, -23.65 11.55, -25.25 10.93 M-25.25 10.93 C-26.4 9.63, -27.56 8.33, -29.53 6.12 M-25.25 10.93 C-26.52 9.5, -27.79 8.07, -29.53 6.12 M-29.53 6.12 C-30.06 4.54, -30.58 2.96, -31.56 0 M-29.53 6.12 C-30.02 4.65, -30.5 3.18, -31.56 0 M-31.56 0 C-31.56 -13.39, -31.56 -26.79, -31.56 -45.02 M-31.56 0 C-31.56 -14.16, -31.56 -28.32, -31.56 -45.02 M-31.56 -45.02 C-31.56 -45.02, -31.56 -45.02, -31.56 -45.02 M-31.56 -45.02 C-31.56 -45.02, -31.56 -45.02, -31.56 -45.02 M-31.56 -45.02 C-30.78 -46.94, -30.01 -48.86, -28.4 -52.88 M-31.56 -45.02 C-30.61 -47.38, -29.66 -49.73, -28.4 -52.88 M-28.4 -52.88 C-26.03 -54.71, -23.66 -56.55, -22.09 -57.77 M-28.4 -52.88 C-26.89 -54.05, -25.37 -55.22, -22.09 -57.77 M-22.09 -57.77 C-19.74 -58.14, -17.4 -58.51, -14.2 -59.02 M-22.09 -57.77 C-19.14 -58.24, -16.18 -58.71, -14.2 -59.02 M-14.2 -59.02 C-12.05 -58.19, -9.91 -57.35, -6.31 -55.95 M-14.2 -59.02 C-12.11 -58.21, -10.02 -57.39, -6.31 -55.95 M-6.31 -55.95 C-4.69 -54.13, -3.08 -52.32, -2.02 -51.14 M-6.31 -55.95 C-4.82 -54.28, -3.34 -52.61, -2.02 -51.14 M-2.02 -51.14 C-1.41 -49.3, -0.81 -47.46, 0 -45.02 M-2.02 -51.14 C-1.25 -48.8, -0.48 -46.46, 0 -45.02 M0 -45.02 C0 -34.14, 0 -23.27, 0 0 M0 -45.02 C0 -35.3, 0 -25.58, 0 0 M0 0 C0 0, 0 0, 0 0 M0 0 C0 0, 0 0, 0 0" stroke="#000000" stroke-width="1" fill="none"></path></g></g><mask></mask><g stroke-linecap="round"><g transform="translate(202.87312486078906 200.4867451527998) rotate(0 -15.777724298586293 -24.305917899853057)" fill-rule="evenodd"><path d="M0 0 L0 0 L-3.16 7.86 L-9.47 12.75 L-17.36 14 L-25.25 10.93 L-29.53 6.12 L-31.56 0 L-31.56 -45.02 L-31.56 -45.02 L-30.28 -53.39 L-25.25 -59.6 L-17.85 -62.61 L-9.47 -61.42 L-2.02 -54.79 L0 -45.02 L0 0" stroke="none" stroke-width="0" fill="#4285f4" fill-rule="evenodd"></path><path d="M0 0 C0 0, 0 0, 0 0 M0 0 C0 0, 0 0, 0 0 M0 0 C-0.82 2.03, -1.63 4.07, -3.16 7.86 M0 0 C-0.75 1.85, -1.49 3.71, -3.16 7.86 M-3.16 7.86 C-5.23 9.47, -7.31 11.08, -9.47 12.75 M-3.16 7.86 C-5.21 9.45, -7.27 11.04, -9.47 12.75 M-9.47 12.75 C-11.82 13.12, -14.17 13.5, -17.36 14 M-9.47 12.75 C-11.45 13.07, -13.43 13.38, -17.36 14 M-17.36 14 C-19.27 13.26, -21.19 12.51, -25.25 10.93 M-17.36 14 C-20.18 12.9, -23.01 11.8, -25.25 10.93 M-25.25 10.93 C-26.2 9.86, -27.16 8.78, -29.53 6.12 M-25.25 10.93 C-26.72 9.28, -28.19 7.63, -29.53 6.12 M-29.53 6.12 C-30.01 4.68, -30.48 3.24, -31.56 0 M-29.53 6.12 C-30.04 4.57, -30.55 3.03, -31.56 0 M-31.56 0 C-31.56 -11.95, -31.56 -23.91, -31.56 -45.02 M-31.56 0 C-31.56 -17.01, -31.56 -34.03, -31.56 -45.02 M-31.56 -45.02 C-31.56 -45.02, -31.56 -45.02, -31.56 -45.02 M-31.56 -45.02 C-31.56 -45.02, -31.56 -45.02, -31.56 -45.02 M-31.56 -45.02 C-31.17 -47.51, -30.79 -50.01, -30.28 -53.39 M-31.56 -45.02 C-31.1 -48.03, -30.63 -51.04, -30.28 -53.39 M-30.28 -53.39 C-28.76 -55.26, -27.25 -57.12, -25.25 -59.6 M-30.28 -53.39 C-28.76 -55.26, -27.24 -57.13, -25.25 -59.6 M-25.25 -59.6 C-22.8 -60.59, -20.36 -61.59, -17.85 -62.61 M-25.25 -59.6 C-22.83 -60.58, -20.41 -61.57, -17.85 -62.61 M-17.85 -62.61 C-16 -62.35, -14.15 -62.09, -9.47 -61.42 M-17.85 -62.61 C-15.25 -62.24, -12.65 -61.87, -9.47 -61.42 M-9.47 -61.42 C-7.88 -60.01, -6.3 -58.59, -2.02 -54.79 M-9.47 -61.42 C-7.57 -59.73, -5.68 -58.04, -2.02 -54.79 M-2.02 -54.79 C-1.39 -51.75, -0.76 -48.71, 0 -45.02 M-2.02 -54.79 C-1.44 -51.99, -0.86 -49.19, 0 -45.02 M0 -45.02 C0 -29.99, 0 -14.95, 0 0 M0 -45.02 C0 -29.09, 0 -13.16, 0 0 M0 0 C0 0, 0 0, 0 0 M0 0 C0 0, 0 0, 0 0" stroke="#000000" stroke-width="1" fill="none"></path></g></g><mask></mask><g stroke-linecap="round" transform="translate(63.92396329552321 94.98636481832455) rotate(0 15.882909026931458 15.88290902693143)"><path d="M31.77 15.88 C31.77 16.8, 31.68 17.74, 31.52 18.64 C31.36 19.55, 31.12 20.45, 30.81 21.32 C30.49 22.18, 30.1 23.03, 29.64 23.82 C29.18 24.62, 28.64 25.39, 28.05 26.09 C27.46 26.8, 26.8 27.46, 26.09 28.05 C25.39 28.64, 24.62 29.18, 23.82 29.64 C23.03 30.1, 22.18 30.49, 21.32 30.81 C20.45 31.12, 19.55 31.36, 18.64 31.52 C17.74 31.68, 16.8 31.77, 15.88 31.77 C14.96 31.77, 14.03 31.68, 13.12 31.52 C12.22 31.36, 11.31 31.12, 10.45 30.81 C9.59 30.49, 8.74 30.1, 7.94 29.64 C7.15 29.18, 6.38 28.64, 5.67 28.05 C4.97 27.46, 4.31 26.8, 3.72 26.09 C3.12 25.39, 2.59 24.62, 2.13 23.82 C1.67 23.03, 1.27 22.18, 0.96 21.32 C0.64 20.45, 0.4 19.55, 0.24 18.64 C0.08 17.74, 0 16.8, 0 15.88 C0 14.96, 0.08 14.03, 0.24 13.12 C0.4 12.22, 0.64 11.31, 0.96 10.45 C1.27 9.59, 1.67 8.74, 2.13 7.94 C2.59 7.15, 3.12 6.38, 3.72 5.67 C4.31 4.97, 4.97 4.31, 5.67 3.72 C6.38 3.12, 7.15 2.59, 7.94 2.13 C8.74 1.67, 9.59 1.27, 10.45 0.96 C11.31 0.64, 12.22 0.4, 13.12 0.24 C14.03 0.08, 14.96 0, 15.88 0 C16.8 0, 17.74 0.08, 18.64 0.24 C19.55 0.4, 20.45 0.64, 21.32 0.96 C22.18 1.27, 23.03 1.67, 23.82 2.13 C24.62 2.59, 25.39 3.12, 26.09 3.72 C26.8 4.31, 27.46 4.97, 28.05 5.67 C28.64 6.38, 29.18 7.15, 29.64 7.94 C30.1 8.74, 30.49 9.59, 30.81 10.45 C31.12 11.31, 31.36 12.22, 31.52 13.12 C31.68 14.03, 31.73 15.42, 31.77 15.88 C31.81 16.34, 31.81 15.42, 31.77 15.88" stroke="none" stroke-width="0" fill="#aecbfa"></path><path d="M31.77 15.88 C31.77 16.8, 31.68 17.74, 31.52 18.64 C31.36 19.55, 31.12 20.45, 30.81 21.32 C30.49 22.18, 30.1 23.03, 29.64 23.82 C29.18 24.62, 28.64 25.39, 28.05 26.09 C27.46 26.8, 26.8 27.46, 26.09 28.05 C25.39 28.64, 24.62 29.18, 23.82 29.64 C23.03 30.1, 22.18 30.49, 21.32 30.81 C20.45 31.12, 19.55 31.36, 18.64 31.52 C17.74 31.68, 16.8 31.77, 15.88 31.77 C14.96 31.77, 14.03 31.68, 13.12 31.52 C12.22 31.36, 11.31 31.12, 10.45 30.81 C9.59 30.49, 8.74 30.1, 7.94 29.64 C7.15 29.18, 6.38 28.64, 5.67 28.05 C4.97 27.46, 4.31 26.8, 3.72 26.09 C3.12 25.39, 2.59 24.62, 2.13 23.82 C1.67 23.03, 1.27 22.18, 0.96 21.32 C0.64 20.45, 0.4 19.55, 0.24 18.64 C0.08 17.74, 0 16.8, 0 15.88 C0 14.96, 0.08 14.03, 0.24 13.12 C0.4 12.22, 0.64 11.31, 0.96 10.45 C1.27 9.59, 1.67 8.74, 2.13 7.94 C2.59 7.15, 3.12 6.38, 3.72 5.67 C4.31 4.97, 4.97 4.31, 5.67 3.72 C6.38 3.12, 7.15 2.59, 7.94 2.13 C8.74 1.67, 9.59 1.27, 10.45 0.96 C11.31 0.64, 12.22 0.4, 13.12 0.24 C14.03 0.08, 14.96 0, 15.88 0 C16.8 0, 17.74 0.08, 18.64 0.24 C19.55 0.4, 20.45 0.64, 21.32 0.96 C22.18 1.27, 23.03 1.67, 23.82 2.13 C24.62 2.59, 25.39 3.12, 26.09 3.72 C26.8 4.31, 27.46 4.97, 28.05 5.67 C28.64 6.38, 29.18 7.15, 29.64 7.94 C30.1 8.74, 30.49 9.59, 30.81 10.45 C31.12 11.31, 31.36 12.22, 31.52 13.12 C31.68 14.03, 31.73 15.42, 31.77 15.88 C31.81 16.34, 31.81 15.42, 31.77 15.88" stroke="#000000" stroke-width="1" fill="none"></path></g><g stroke-linecap="round" transform="translate(117.56822741539781 94.98636481832455) rotate(0 15.882909026931458 15.88290902693143)"><path d="M31.77 15.88 C31.77 16.8, 31.68 17.74, 31.52 18.64 C31.36 19.55, 31.12 20.45, 30.81 21.32 C30.49 22.18, 30.1 23.03, 29.64 23.82 C29.18 24.62, 28.64 25.39, 28.05 26.09 C27.46 26.8, 26.8 27.46, 26.09 28.05 C25.39 28.64, 24.62 29.18, 23.82 29.64 C23.03 30.1, 22.18 30.49, 21.32 30.81 C20.45 31.12, 19.55 31.36, 18.64 31.52 C17.74 31.68, 16.8 31.77, 15.88 31.77 C14.96 31.77, 14.03 31.68, 13.12 31.52 C12.22 31.36, 11.31 31.12, 10.45 30.81 C9.59 30.49, 8.74 30.1, 7.94 29.64 C7.15 29.18, 6.38 28.64, 5.67 28.05 C4.97 27.46, 4.31 26.8, 3.72 26.09 C3.12 25.39, 2.59 24.62, 2.13 23.82 C1.67 23.03, 1.27 22.18, 0.96 21.32 C0.64 20.45, 0.4 19.55, 0.24 18.64 C0.08 17.74, 0 16.8, 0 15.88 C0 14.96, 0.08 14.03, 0.24 13.12 C0.4 12.22, 0.64 11.31, 0.96 10.45 C1.27 9.59, 1.67 8.74, 2.13 7.94 C2.59 7.15, 3.12 6.38, 3.72 5.67 C4.31 4.97, 4.97 4.31, 5.67 3.72 C6.38 3.12, 7.15 2.59, 7.94 2.13 C8.74 1.67, 9.59 1.27, 10.45 0.96 C11.31 0.64, 12.22 0.4, 13.12 0.24 C14.03 0.08, 14.96 0, 15.88 0 C16.8 0, 17.74 0.08, 18.64 0.24 C19.55 0.4, 20.45 0.64, 21.32 0.96 C22.18 1.27, 23.03 1.67, 23.82 2.13 C24.62 2.59, 25.39 3.12, 26.09 3.72 C26.8 4.31, 27.46 4.97, 28.05 5.67 C28.64 6.38, 29.18 7.15, 29.64 7.94 C30.1 8.74, 30.49 9.59, 30.81 10.45 C31.12 11.31, 31.36 12.22, 31.52 13.12 C31.68 14.03, 31.73 15.42, 31.77 15.88 C31.81 16.34, 31.81 15.42, 31.77 15.88" stroke="none" stroke-width="0" fill="#669df6"></path><path d="M31.77 15.88 C31.77 16.8, 31.68 17.74, 31.52 18.64 C31.36 19.55, 31.12 20.45, 30.81 21.32 C30.49 22.18, 30.1 23.03, 29.64 23.82 C29.18 24.62, 28.64 25.39, 28.05 26.09 C27.46 26.8, 26.8 27.46, 26.09 28.05 C25.39 28.64, 24.62 29.18, 23.82 29.64 C23.03 30.1, 22.18 30.49, 21.32 30.81 C20.45 31.12, 19.55 31.36, 18.64 31.52 C17.74 31.68, 16.8 31.77, 15.88 31.77 C14.96 31.77, 14.03 31.68, 13.12 31.52 C12.22 31.36, 11.31 31.12, 10.45 30.81 C9.59 30.49, 8.74 30.1, 7.94 29.64 C7.15 29.18, 6.38 28.64, 5.67 28.05 C4.97 27.46, 4.31 26.8, 3.72 26.09 C3.12 25.39, 2.59 24.62, 2.13 23.82 C1.67 23.03, 1.27 22.18, 0.96 21.32 C0.64 20.45, 0.4 19.55, 0.24 18.64 C0.08 17.74, 0 16.8, 0 15.88 C0 14.96, 0.08 14.03, 0.24 13.12 C0.4 12.22, 0.64 11.31, 0.96 10.45 C1.27 9.59, 1.67 8.74, 2.13 7.94 C2.59 7.15, 3.12 6.38, 3.72 5.67 C4.31 4.97, 4.97 4.31, 5.67 3.72 C6.38 3.12, 7.15 2.59, 7.94 2.13 C8.74 1.67, 9.59 1.27, 10.45 0.96 C11.31 0.64, 12.22 0.4, 13.12 0.24 C14.03 0.08, 14.96 0, 15.88 0 C16.8 0, 17.74 0.08, 18.64 0.24 C19.55 0.4, 20.45 0.64, 21.32 0.96 C22.18 1.27, 23.03 1.67, 23.82 2.13 C24.62 2.59, 25.39 3.12, 26.09 3.72 C26.8 4.31, 27.46 4.97, 28.05 5.67 C28.64 6.38, 29.18 7.15, 29.64 7.94 C30.1 8.74, 30.49 9.59, 30.81 10.45 C31.12 11.31, 31.36 12.22, 31.52 13.12 C31.68 14.03, 31.73 15.42, 31.77 15.88 C31.81 16.34, 31.81 15.42, 31.77 15.88" stroke="#000000" stroke-width="1" fill="none"></path></g><g stroke-linecap="round" transform="translate(117.56822741539781 50.493187111290354) rotate(0 15.882909026931458 15.88290902693143)"><path d="M31.77 15.88 C31.77 16.8, 31.68 17.74, 31.52 18.64 C31.36 19.55, 31.12 20.45, 30.81 21.32 C30.49 22.18, 30.1 23.03, 29.64 23.82 C29.18 24.62, 28.64 25.39, 28.05 26.09 C27.46 26.8, 26.8 27.46, 26.09 28.05 C25.39 28.64, 24.62 29.18, 23.82 29.64 C23.03 30.1, 22.18 30.49, 21.32 30.81 C20.45 31.12, 19.55 31.36, 18.64 31.52 C17.74 31.68, 16.8 31.77, 15.88 31.77 C14.96 31.77, 14.03 31.68, 13.12 31.52 C12.22 31.36, 11.31 31.12, 10.45 30.81 C9.59 30.49, 8.74 30.1, 7.94 29.64 C7.15 29.18, 6.38 28.64, 5.67 28.05 C4.97 27.46, 4.31 26.8, 3.72 26.09 C3.12 25.39, 2.59 24.62, 2.13 23.82 C1.67 23.03, 1.27 22.18, 0.96 21.32 C0.64 20.45, 0.4 19.55, 0.24 18.64 C0.08 17.74, 0 16.8, 0 15.88 C0 14.96, 0.08 14.03, 0.24 13.12 C0.4 12.22, 0.64 11.31, 0.96 10.45 C1.27 9.59, 1.67 8.74, 2.13 7.94 C2.59 7.15, 3.12 6.38, 3.72 5.67 C4.31 4.97, 4.97 4.31, 5.67 3.72 C6.38 3.12, 7.15 2.59, 7.94 2.13 C8.74 1.67, 9.59 1.27, 10.45 0.96 C11.31 0.64, 12.22 0.4, 13.12 0.24 C14.03 0.08, 14.96 0, 15.88 0 C16.8 0, 17.74 0.08, 18.64 0.24 C19.55 0.4, 20.45 0.64, 21.32 0.96 C22.18 1.27, 23.03 1.67, 23.82 2.13 C24.62 2.59, 25.39 3.12, 26.09 3.72 C26.8 4.31, 27.46 4.97, 28.05 5.67 C28.64 6.38, 29.18 7.15, 29.64 7.94 C30.1 8.74, 30.49 9.59, 30.81 10.45 C31.12 11.31, 31.36 12.22, 31.52 13.12 C31.68 14.03, 31.73 15.42, 31.77 15.88 C31.81 16.34, 31.81 15.42, 31.77 15.88" stroke="none" stroke-width="0" fill="#aecbfa"></path><path d="M31.77 15.88 C31.77 16.8, 31.68 17.74, 31.52 18.64 C31.36 19.55, 31.12 20.45, 30.81 21.32 C30.49 22.18, 30.1 23.03, 29.64 23.82 C29.18 24.62, 28.64 25.39, 28.05 26.09 C27.46 26.8, 26.8 27.46, 26.09 28.05 C25.39 28.64, 24.62 29.18, 23.82 29.64 C23.03 30.1, 22.18 30.49, 21.32 30.81 C20.45 31.12, 19.55 31.36, 18.64 31.52 C17.74 31.68, 16.8 31.77, 15.88 31.77 C14.96 31.77, 14.03 31.68, 13.12 31.52 C12.22 31.36, 11.31 31.12, 10.45 30.81 C9.59 30.49, 8.74 30.1, 7.94 29.64 C7.15 29.18, 6.38 28.64, 5.67 28.05 C4.97 27.46, 4.31 26.8, 3.72 26.09 C3.12 25.39, 2.59 24.62, 2.13 23.82 C1.67 23.03, 1.27 22.18, 0.96 21.32 C0.64 20.45, 0.4 19.55, 0.24 18.64 C0.08 17.74, 0 16.8, 0 15.88 C0 14.96, 0.08 14.03, 0.24 13.12 C0.4 12.22, 0.64 11.31, 0.96 10.45 C1.27 9.59, 1.67 8.74, 2.13 7.94 C2.59 7.15, 3.12 6.38, 3.72 5.67 C4.31 4.97, 4.97 4.31, 5.67 3.72 C6.38 3.12, 7.15 2.59, 7.94 2.13 C8.74 1.67, 9.59 1.27, 10.45 0.96 C11.31 0.64, 12.22 0.4, 13.12 0.24 C14.03 0.08, 14.96 0, 15.88 0 C16.8 0, 17.74 0.08, 18.64 0.24 C19.55 0.4, 20.45 0.64, 21.32 0.96 C22.18 1.27, 23.03 1.67, 23.82 2.13 C24.62 2.59, 25.39 3.12, 26.09 3.72 C26.8 4.31, 27.46 4.97, 28.05 5.67 C28.64 6.38, 29.18 7.15, 29.64 7.94 C30.1 8.74, 30.49 9.59, 30.81 10.45 C31.12 11.31, 31.36 12.22, 31.52 13.12 C31.68 14.03, 31.73 15.42, 31.77 15.88 C31.81 16.34, 31.81 15.42, 31.77 15.88" stroke="#000000" stroke-width="1" fill="none"></path></g><g stroke-linecap="round" transform="translate(171.1072917601167 94.98636481832455) rotate(0 15.882909026931472 15.88290902693143)"><path d="M31.77 15.88 C31.77 16.8, 31.68 17.74, 31.52 18.64 C31.36 19.55, 31.12 20.45, 30.81 21.32 C30.49 22.18, 30.1 23.03, 29.64 23.82 C29.18 24.62, 28.64 25.39, 28.05 26.09 C27.46 26.8, 26.8 27.46, 26.09 28.05 C25.39 28.64, 24.62 29.18, 23.82 29.64 C23.03 30.1, 22.18 30.49, 21.32 30.81 C20.45 31.12, 19.55 31.36, 18.64 31.52 C17.74 31.68, 16.8 31.77, 15.88 31.77 C14.96 31.77, 14.03 31.68, 13.12 31.52 C12.22 31.36, 11.31 31.12, 10.45 30.81 C9.59 30.49, 8.74 30.1, 7.94 29.64 C7.15 29.18, 6.38 28.64, 5.67 28.05 C4.97 27.46, 4.31 26.8, 3.72 26.09 C3.12 25.39, 2.59 24.62, 2.13 23.82 C1.67 23.03, 1.27 22.18, 0.96 21.32 C0.64 20.45, 0.4 19.55, 0.24 18.64 C0.08 17.74, 0 16.8, 0 15.88 C0 14.96, 0.08 14.03, 0.24 13.12 C0.4 12.22, 0.64 11.31, 0.96 10.45 C1.27 9.59, 1.67 8.74, 2.13 7.94 C2.59 7.15, 3.12 6.38, 3.72 5.67 C4.31 4.97, 4.97 4.31, 5.67 3.72 C6.38 3.12, 7.15 2.59, 7.94 2.13 C8.74 1.67, 9.59 1.27, 10.45 0.96 C11.31 0.64, 12.22 0.4, 13.12 0.24 C14.03 0.08, 14.96 0, 15.88 0 C16.8 0, 17.74 0.08, 18.64 0.24 C19.55 0.4, 20.45 0.64, 21.32 0.96 C22.18 1.27, 23.03 1.67, 23.82 2.13 C24.62 2.59, 25.39 3.12, 26.09 3.72 C26.8 4.31, 27.46 4.97, 28.05 5.67 C28.64 6.38, 29.18 7.15, 29.64 7.94 C30.1 8.74, 30.49 9.59, 30.81 10.45 C31.12 11.31, 31.36 12.22, 31.52 13.12 C31.68 14.03, 31.73 15.42, 31.77 15.88 C31.81 16.34, 31.81 15.42, 31.77 15.88" stroke="none" stroke-width="0" fill="#669df6"></path><path d="M31.77 15.88 C31.77 16.8, 31.68 17.74, 31.52 18.64 C31.36 19.55, 31.12 20.45, 30.81 21.32 C30.49 22.18, 30.1 23.03, 29.64 23.82 C29.18 24.62, 28.64 25.39, 28.05 26.09 C27.46 26.8, 26.8 27.46, 26.09 28.05 C25.39 28.64, 24.62 29.18, 23.82 29.64 C23.03 30.1, 22.18 30.49, 21.32 30.81 C20.45 31.12, 19.55 31.36, 18.64 31.52 C17.74 31.68, 16.8 31.77, 15.88 31.77 C14.96 31.77, 14.03 31.68, 13.12 31.52 C12.22 31.36, 11.31 31.12, 10.45 30.81 C9.59 30.49, 8.74 30.1, 7.94 29.64 C7.15 29.18, 6.38 28.64, 5.67 28.05 C4.97 27.46, 4.31 26.8, 3.72 26.09 C3.12 25.39, 2.59 24.62, 2.13 23.82 C1.67 23.03, 1.27 22.18, 0.96 21.32 C0.64 20.45, 0.4 19.55, 0.24 18.64 C0.08 17.74, 0 16.8, 0 15.88 C0 14.96, 0.08 14.03, 0.24 13.12 C0.4 12.22, 0.64 11.31, 0.96 10.45 C1.27 9.59, 1.67 8.74, 2.13 7.94 C2.59 7.15, 3.12 6.38, 3.72 5.67 C4.31 4.97, 4.97 4.31, 5.67 3.72 C6.38 3.12, 7.15 2.59, 7.94 2.13 C8.74 1.67, 9.59 1.27, 10.45 0.96 C11.31 0.64, 12.22 0.4, 13.12 0.24 C14.03 0.08, 14.96 0, 15.88 0 C16.8 0, 17.74 0.08, 18.64 0.24 C19.55 0.4, 20.45 0.64, 21.32 0.96 C22.18 1.27, 23.03 1.67, 23.82 2.13 C24.62 2.59, 25.39 3.12, 26.09 3.72 C26.8 4.31, 27.46 4.97, 28.05 5.67 C28.64 6.38, 29.18 7.15, 29.64 7.94 C30.1 8.74, 30.49 9.59, 30.81 10.45 C31.12 11.31, 31.36 12.22, 31.52 13.12 C31.68 14.03, 31.73 15.42, 31.77 15.88 C31.81 16.34, 31.81 15.42, 31.77 15.88" stroke="#000000" stroke-width="1" fill="none"></path></g><g stroke-linecap="round" transform="translate(171.1072917601167 50.493187111290354) rotate(0 15.882909026931472 15.88290902693143)"><path d="M31.77 15.88 C31.77 16.8, 31.68 17.74, 31.52 18.64 C31.36 19.55, 31.12 20.45, 30.81 21.32 C30.49 22.18, 30.1 23.03, 29.64 23.82 C29.18 24.62, 28.64 25.39, 28.05 26.09 C27.46 26.8, 26.8 27.46, 26.09 28.05 C25.39 28.64, 24.62 29.18, 23.82 29.64 C23.03 30.1, 22.18 30.49, 21.32 30.81 C20.45 31.12, 19.55 31.36, 18.64 31.52 C17.74 31.68, 16.8 31.77, 15.88 31.77 C14.96 31.77, 14.03 31.68, 13.12 31.52 C12.22 31.36, 11.31 31.12, 10.45 30.81 C9.59 30.49, 8.74 30.1, 7.94 29.64 C7.15 29.18, 6.38 28.64, 5.67 28.05 C4.97 27.46, 4.31 26.8, 3.72 26.09 C3.12 25.39, 2.59 24.62, 2.13 23.82 C1.67 23.03, 1.27 22.18, 0.96 21.32 C0.64 20.45, 0.4 19.55, 0.24 18.64 C0.08 17.74, 0 16.8, 0 15.88 C0 14.96, 0.08 14.03, 0.24 13.12 C0.4 12.22, 0.64 11.31, 0.96 10.45 C1.27 9.59, 1.67 8.74, 2.13 7.94 C2.59 7.15, 3.12 6.38, 3.72 5.67 C4.31 4.97, 4.97 4.31, 5.67 3.72 C6.38 3.12, 7.15 2.59, 7.94 2.13 C8.74 1.67, 9.59 1.27, 10.45 0.96 C11.31 0.64, 12.22 0.4, 13.12 0.24 C14.03 0.08, 14.96 0, 15.88 0 C16.8 0, 17.74 0.08, 18.64 0.24 C19.55 0.4, 20.45 0.64, 21.32 0.96 C22.18 1.27, 23.03 1.67, 23.82 2.13 C24.62 2.59, 25.39 3.12, 26.09 3.72 C26.8 4.31, 27.46 4.97, 28.05 5.67 C28.64 6.38, 29.18 7.15, 29.64 7.94 C30.1 8.74, 30.49 9.59, 30.81 10.45 C31.12 11.31, 31.36 12.22, 31.52 13.12 C31.68 14.03, 31.73 15.42, 31.77 15.88 C31.81 16.34, 31.81 15.42, 31.77 15.88" stroke="none" stroke-width="0" fill="#669df6"></path><path d="M31.77 15.88 C31.77 16.8, 31.68 17.74, 31.52 18.64 C31.36 19.55, 31.12 20.45, 30.81 21.32 C30.49 22.18, 30.1 23.03, 29.64 23.82 C29.18 24.62, 28.64 25.39, 28.05 26.09 C27.46 26.8, 26.8 27.46, 26.09 28.05 C25.39 28.64, 24.62 29.18, 23.82 29.64 C23.03 30.1, 22.18 30.49, 21.32 30.81 C20.45 31.12, 19.55 31.36, 18.64 31.52 C17.74 31.68, 16.8 31.77, 15.88 31.77 C14.96 31.77, 14.03 31.68, 13.12 31.52 C12.22 31.36, 11.31 31.12, 10.45 30.81 C9.59 30.49, 8.74 30.1, 7.94 29.64 C7.15 29.18, 6.38 28.64, 5.67 28.05 C4.97 27.46, 4.31 26.8, 3.72 26.09 C3.12 25.39, 2.59 24.62, 2.13 23.82 C1.67 23.03, 1.27 22.18, 0.96 21.32 C0.64 20.45, 0.4 19.55, 0.24 18.64 C0.08 17.74, 0 16.8, 0 15.88 C0 14.96, 0.08 14.03, 0.24 13.12 C0.4 12.22, 0.64 11.31, 0.96 10.45 C1.27 9.59, 1.67 8.74, 2.13 7.94 C2.59 7.15, 3.12 6.38, 3.72 5.67 C4.31 4.97, 4.97 4.31, 5.67 3.72 C6.38 3.12, 7.15 2.59, 7.94 2.13 C8.74 1.67, 9.59 1.27, 10.45 0.96 C11.31 0.64, 12.22 0.4, 13.12 0.24 C14.03 0.08, 14.96 0, 15.88 0 C16.8 0, 17.74 0.08, 18.64 0.24 C19.55 0.4, 20.45 0.64, 21.32 0.96 C22.18 1.27, 23.03 1.67, 23.82 2.13 C24.62 2.59, 25.39 3.12, 26.09 3.72 C26.8 4.31, 27.46 4.97, 28.05 5.67 C28.64 6.38, 29.18 7.15, 29.64 7.94 C30.1 8.74, 30.49 9.59, 30.81 10.45 C31.12 11.31, 31.36 12.22, 31.52 13.12 C31.68 14.03, 31.73 15.42, 31.77 15.88 C31.81 16.34, 31.81 15.42, 31.77 15.88" stroke="#000000" stroke-width="1" fill="none"></path></g><g stroke-linecap="round" transform="translate(171.1072917601167 6) rotate(0 15.882909026931472 15.88290902693143)"><path d="M31.77 15.88 C31.77 16.8, 31.68 17.74, 31.52 18.64 C31.36 19.55, 31.12 20.45, 30.81 21.32 C30.49 22.18, 30.1 23.03, 29.64 23.82 C29.18 24.62, 28.64 25.39, 28.05 26.09 C27.46 26.8, 26.8 27.46, 26.09 28.05 C25.39 28.64, 24.62 29.18, 23.82 29.64 C23.03 30.1, 22.18 30.49, 21.32 30.81 C20.45 31.12, 19.55 31.36, 18.64 31.52 C17.74 31.68, 16.8 31.77, 15.88 31.77 C14.96 31.77, 14.03 31.68, 13.12 31.52 C12.22 31.36, 11.31 31.12, 10.45 30.81 C9.59 30.49, 8.74 30.1, 7.94 29.64 C7.15 29.18, 6.38 28.64, 5.67 28.05 C4.97 27.46, 4.31 26.8, 3.72 26.09 C3.12 25.39, 2.59 24.62, 2.13 23.82 C1.67 23.03, 1.27 22.18, 0.96 21.32 C0.64 20.45, 0.4 19.55, 0.24 18.64 C0.08 17.74, 0 16.8, 0 15.88 C0 14.96, 0.08 14.03, 0.24 13.12 C0.4 12.22, 0.64 11.31, 0.96 10.45 C1.27 9.59, 1.67 8.74, 2.13 7.94 C2.59 7.15, 3.12 6.38, 3.72 5.67 C4.31 4.97, 4.97 4.31, 5.67 3.72 C6.38 3.12, 7.15 2.59, 7.94 2.13 C8.74 1.67, 9.59 1.27, 10.45 0.96 C11.31 0.64, 12.22 0.4, 13.12 0.24 C14.03 0.08, 14.96 0, 15.88 0 C16.8 0, 17.74 0.08, 18.64 0.24 C19.55 0.4, 20.45 0.64, 21.32 0.96 C22.18 1.27, 23.03 1.67, 23.82 2.13 C24.62 2.59, 25.39 3.12, 26.09 3.72 C26.8 4.31, 27.46 4.97, 28.05 5.67 C28.64 6.38, 29.18 7.15, 29.64 7.94 C30.1 8.74, 30.49 9.59, 30.81 10.45 C31.12 11.31, 31.36 12.22, 31.52 13.12 C31.68 14.03, 31.73 15.42, 31.77 15.88 C31.81 16.34, 31.81 15.42, 31.77 15.88" stroke="none" stroke-width="0" fill="#aecbfa"></path><path d="M31.77 15.88 C31.77 16.8, 31.68 17.74, 31.52 18.64 C31.36 19.55, 31.12 20.45, 30.81 21.32 C30.49 22.18, 30.1 23.03, 29.64 23.82 C29.18 24.62, 28.64 25.39, 28.05 26.09 C27.46 26.8, 26.8 27.46, 26.09 28.05 C25.39 28.64, 24.62 29.18, 23.82 29.64 C23.03 30.1, 22.18 30.49, 21.32 30.81 C20.45 31.12, 19.55 31.36, 18.64 31.52 C17.74 31.68, 16.8 31.77, 15.88 31.77 C14.96 31.77, 14.03 31.68, 13.12 31.52 C12.22 31.36, 11.31 31.12, 10.45 30.81 C9.59 30.49, 8.74 30.1, 7.94 29.64 C7.15 29.18, 6.38 28.64, 5.67 28.05 C4.97 27.46, 4.31 26.8, 3.72 26.09 C3.12 25.39, 2.59 24.62, 2.13 23.82 C1.67 23.03, 1.27 22.18, 0.96 21.32 C0.64 20.45, 0.4 19.55, 0.24 18.64 C0.08 17.74, 0 16.8, 0 15.88 C0 14.96, 0.08 14.03, 0.24 13.12 C0.4 12.22, 0.64 11.31, 0.96 10.45 C1.27 9.59, 1.67 8.74, 2.13 7.94 C2.59 7.15, 3.12 6.38, 3.72 5.67 C4.31 4.97, 4.97 4.31, 5.67 3.72 C6.38 3.12, 7.15 2.59, 7.94 2.13 C8.74 1.67, 9.59 1.27, 10.45 0.96 C11.31 0.64, 12.22 0.4, 13.12 0.24 C14.03 0.08, 14.96 0, 15.88 0 C16.8 0, 17.74 0.08, 18.64 0.24 C19.55 0.4, 20.45 0.64, 21.32 0.96 C22.18 1.27, 23.03 1.67, 23.82 2.13 C24.62 2.59, 25.39 3.12, 26.09 3.72 C26.8 4.31, 27.46 4.97, 28.05 5.67 C28.64 6.38, 29.18 7.15, 29.64 7.94 C30.1 8.74, 30.49 9.59, 30.81 10.45 C31.12 11.31, 31.36 12.22, 31.52 13.12 C31.68 14.03, 31.73 15.42, 31.77 15.88 C31.81 16.34, 31.81 15.42, 31.77 15.88" stroke="#000000" stroke-width="1" fill="none"></path></g><g transform="translate(6 219.2767228134826) rotate(0 102 41)"><text x="102" y="0" font-family="Helvetica, Segoe UI Emoji" font-size="35.76686764283662px" fill="#000000" text-anchor="middle" style="white-space: pre;" direction="ltr" dominant-baseline="text-before-edge">API</text><text x="102" y="41" font-family="Helvetica, Segoe UI Emoji" font-size="35.76686764283662px" fill="#000000" text-anchor="middle" style="white-space: pre;" direction="ltr" dominant-baseline="text-before-edge">Monetization</text></g></svg>