<svg xmlns="http://www.w3.org/2000/svg" viewBox="1226.57 2898.64 240.75 114.56" width="241" height="115"><rect x="1318.28" y="2945.67" width="27.65" height="10.59" rx="0" stroke="#1864ab" stroke-width="1" opacity="1.0" fill="#669df6"/><rect x="1232.95" y="2986.34" width="36.36" height="10.34" rx="0" stroke="#1864ab" stroke-width="1" opacity="1.0" fill="#4285f4"/><ellipse cx="1281.38" cy="2951.01" rx="6.41" ry="6.41" stroke="#1864ab" stroke-width="1" opacity="1.0" fill="#4285f4"/><polyline points="1232.91,2934.06 1286.77,2934.12 1291.40,2936.25 1293.41,2939.52 1299.64,2948.99 1300.24,2951.86 1299.33,2953.87 1291.86,2966.02 1289.06,2967.78 1232.65,2968.65 1233.14,2975.56 1234.99,2978.53 1238.30,2979.20 1293.43,2978.70 1296.20,2977.84 1307.08,2962.82 1320.18,2962.20 1322.83,2960.15 1324.04,2957.54 1324.14,2944.87 1321.96,2941.54 1319.70,2939.77 1306.82,2939.80 1297.31,2925.34 1295.36,2923.38 1293.21,2922.60 1238.23,2922.94 1235.43,2923.33 1233.14,2925.31 1232.57,2927.42" fill="none" stroke="#669df6" stroke-width="1" opacity="1.0" stroke-linecap="round" stroke-linejoin="round"/><polyline points="1232.78,2967.57 1232.66,2957.36 1261.53,2957.03 1264.84,2957.73 1267.48,2959.96 1282.28,2982.66 1284.49,2985.00 1287.03,2985.09 1307.53,2985.60 1306.86,2973.82 1307.57,2970.51 1309.59,2969.24 1312.29,2968.23 1342.76,2968.70 1346.19,2970.85 1346.70,2974.16 1346.44,2977.36 1344.13,2978.83 1341.91,2979.66 1318.67,2979.98 1318.63,2991.66 1317.29,2994.11 1314.92,2996.21 1310.83,2996.66 1280.98,2996.60 1277.50,2995.12 1275.07,2992.15 1257.91,2965.87 1254.90,2963.03 1252.53,2962.79 1244.14,2962.58 1244.36,2967.72 1232.91,2968.07" fill="none" stroke="#1864ab" stroke-width="1" opacity="1.0" stroke-linecap="round" stroke-linejoin="round"/><polyline points="1347.27,2915.18 1347.39,2904.97 1318.53,2904.64 1315.21,2905.35 1312.57,2907.57 1297.77,2930.27 1295.56,2932.62 1293.02,2932.70 1272.52,2933.21 1273.19,2921.44 1272.48,2918.12 1270.46,2916.86 1267.77,2915.84 1237.30,2916.32 1233.86,2918.46 1233.35,2921.77 1233.62,2924.98 1235.92,2926.44 1238.14,2927.27 1261.38,2927.59 1261.42,2939.27 1262.77,2941.72 1265.14,2943.83 1269.22,2944.27 1299.07,2944.21 1302.55,2942.74 1304.80,2939.11 1321.45,2913.10 1325.15,2910.64 1327.53,2910.40 1335.91,2910.19 1335.69,2915.33 1347.14,2915.68" fill="none" stroke="#1864ab" stroke-width="1" opacity="1.0" stroke-linecap="round" stroke-linejoin="round" transform="rotate(180.00 1404.29 2935.00)"/><rect x="1233.44" y="2905.35" width="35.65" height="10.34" rx="0" stroke="#1864ab" stroke-width="1" opacity="1.0" fill="#4285f4"/></svg>