<svg xmlns="http://www.w3.org/2000/svg" viewBox="-438.97 -60.60 172.00 84.00" width="172" height="84"><rect x="-432.97" y="-54.60" width="160.00" height="72.00" rx="0" stroke="#4285f4" stroke-width="2" opacity="1.0" fill="#FFF"/><text x="-367.97" y="-20.10" font-size="12" fill="#000000" opacity="1.0" font-family="sans-serif">Access
Transparency</text><polyline points="-409.86,-9.40 -407.65,-11.60 -405.25,-9.20 -407.46,-6.99 -409.86,-9.40" fill="none" stroke="#00000000" stroke-width="1" opacity="1.0" stroke-linecap="round" stroke-linejoin="round"/><polyline points="-411.16,-3.29 -415.27,-7.40 -405.78,-16.89 -403.58,-14.68 -410.86,-7.40 -408.96,-5.50 -411.16,-3.29" fill="none" stroke="#00000000" stroke-width="1" opacity="1.0" stroke-linecap="round" stroke-linejoin="round"/><polyline points="-385.74,-19.39 -385.74,-22.51 -388.06,-22.51 -388.06,-22.51 -388.17,-23.14 -388.32,-23.77 -388.51,-24.38 -388.74,-24.99 -389.00,-25.58 -389.31,-26.16 -389.65,-26.73 -390.02,-27.28 -388.40,-28.90 -390.60,-31.11 -392.24,-29.47 -392.24,-29.47 -392.77,-29.85 -393.33,-30.18 -393.91,-30.48 -394.50,-30.75 -395.11,-30.98 -395.73,-31.17 -396.36,-31.32 -397.00,-31.44 -397.00,-33.76 -400.12,-33.76 -400.12,-31.45 -400.12,-31.45 -400.75,-31.33 -401.38,-31.18 -401.99,-31.00 -402.60,-30.77 -403.19,-30.50 -403.77,-30.20 -404.33,-29.86 -404.88,-29.48 -406.51,-31.12 -408.71,-28.90 -407.08,-27.27 -407.08,-27.27 -407.45,-26.73 -407.79,-26.18 -408.09,-25.60 -408.36,-25.01 -408.59,-24.40 -408.78,-23.78 -408.93,-23.15 -409.05,-22.51 -411.37,-22.51 -411.37,-19.39 -409.05,-19.39 -409.05,-19.39 -408.98,-18.97 -408.89,-18.56 -408.79,-18.15 -408.67,-17.75 -408.54,-17.35 -408.39,-16.96 -408.22,-16.58 -408.04,-16.20 -407.85,-15.83 -407.64,-15.46 -407.41,-15.10 -407.17,-14.76 -406.91,-14.42 -406.64,-14.09 -406.36,-13.76 -406.06,-13.45 -405.75,-13.15 -405.43,-12.87 -405.10,-12.60 -404.76,-12.34 -404.41,-12.10 -404.05,-11.87 -403.69,-11.66 -403.32,-11.46 -402.94,-11.28 -402.55,-11.12 -402.16,-10.97 -401.76,-10.83 -401.36,-10.72 -400.95,-10.61 -400.53,-10.53 -400.11,-10.46 -400.11,-8.14 -396.99,-8.14 -396.99,-10.46 -396.99,-10.46 -396.35,-10.57 -395.72,-10.73 -395.10,-10.92 -394.49,-11.15 -393.90,-11.41 -393.32,-11.72 -392.77,-12.06 -392.23,-12.43 -390.59,-10.79 -388.39,-13.00 -390.02,-14.64 -390.02,-14.64 -389.65,-15.18 -389.31,-15.75 -389.00,-16.33 -388.74,-16.92 -388.51,-17.52 -388.32,-18.14 -388.17,-18.77 -388.06,-19.40 -385.74,-19.40 -385.74,-19.39" fill="none" stroke="#00000000" stroke-width="1" opacity="1.0" stroke-linecap="round" stroke-linejoin="round"/><polyline points="-398.55,-13.46 -398.55,-13.46 -398.55,-13.46 -398.92,-13.47 -399.30,-13.50 -399.66,-13.54 -400.02,-13.60 -400.38,-13.68 -400.73,-13.78 -401.08,-13.90 -401.42,-14.03 -401.75,-14.18 -402.08,-14.34 -402.40,-14.52 -402.71,-14.72 -403.01,-14.93 -403.30,-15.16 -403.58,-15.40 -403.85,-15.66 -404.11,-15.93 -404.35,-16.21 -404.58,-16.50 -404.79,-16.80 -404.98,-17.11 -405.16,-17.43 -405.33,-17.76 -405.47,-18.09 -405.61,-18.43 -405.72,-18.77 -405.82,-19.13 -405.90,-19.48 -405.96,-19.84 -406.00,-20.21 -406.03,-20.58 -406.04,-20.96 -406.03,-21.33 -406.00,-21.70 -405.96,-22.07 -405.89,-22.43 -405.81,-22.79 -405.72,-23.14 -405.60,-23.48 -405.47,-23.82 -405.32,-24.16 -405.16,-24.48 -404.98,-24.80 -404.78,-25.11 -404.57,-25.41 -404.34,-25.70 -404.10,-25.98 -403.84,-26.25 -403.56,-26.52 -403.27,-26.77 -402.97,-27.00 -402.67,-27.21 -402.35,-27.41 -402.03,-27.59 -401.70,-27.75 -401.36,-27.89 -401.02,-28.02 -400.68,-28.13 -400.33,-28.22 -399.98,-28.30 -399.62,-28.36 -399.26,-28.40 -398.90,-28.43 -398.54,-28.44 -398.18,-28.43 -397.82,-28.40 -397.47,-28.36 -397.11,-28.30 -396.76,-28.22 -396.41,-28.13 -396.06,-28.02 -395.72,-27.89 -395.39,-27.74 -395.06,-27.58 -394.74,-27.40 -394.42,-27.20 -394.11,-26.99 -393.81,-26.76 -393.53,-26.51 -393.25,-26.24 -392.98,-25.97 -392.73,-25.68 -392.50,-25.38 -392.29,-25.07 -392.09,-24.75 -391.91,-24.43 -391.75,-24.10 -391.60,-23.77 -391.48,-23.43 -391.36,-23.08 -391.27,-22.73 -391.19,-22.38 -391.13,-22.02 -391.09,-21.66 -391.07,-21.31 -391.06,-20.95 -391.07,-20.59 -391.09,-20.23 -391.14,-19.87 -391.20,-19.51 -391.27,-19.16 -391.37,-18.81 -391.48,-18.47 -391.61,-18.13 -391.75,-17.79 -391.92,-17.46 -392.10,-17.14 -392.29,-16.82 -392.51,-16.52 -392.74,-16.22 -392.99,-15.93 -393.25,-15.65 -393.53,-15.39 -393.81,-15.15 -394.10,-14.93 -394.40,-14.71 -394.71,-14.52 -395.03,-14.34 -395.35,-14.17 -395.69,-14.03 -396.03,-13.90 -396.37,-13.78 -396.72,-13.68 -397.08,-13.60 -397.44,-13.54 -397.81,-13.50 -398.18,-13.47 -398.55,-13.46 -398.55,-13.46" fill="none" stroke="#00000000" stroke-width="1" opacity="1.0" stroke-linecap="round" stroke-linejoin="round"/><polyline points="-398.55,-13.46 -398.55,-13.46 -398.55,-13.46 -398.92,-13.47 -399.30,-13.50 -399.66,-13.54 -400.02,-13.60 -400.38,-13.68 -400.73,-13.78 -401.08,-13.90 -401.42,-14.03 -401.75,-14.18 -402.08,-14.34 -402.40,-14.52 -402.71,-14.72 -403.01,-14.93 -403.30,-15.16 -403.58,-15.40 -403.85,-15.66 -404.11,-15.93 -404.35,-16.21 -404.58,-16.50 -404.79,-16.80 -404.98,-17.11 -405.16,-17.43 -405.33,-17.76 -405.47,-18.09 -405.61,-18.43 -405.72,-18.77 -405.82,-19.13 -405.90,-19.48 -405.96,-19.84 -406.00,-20.21 -406.03,-20.58 -406.04,-20.96 -406.03,-21.33 -406.00,-21.70 -405.96,-22.07 -405.89,-22.43 -405.81,-22.79 -405.72,-23.14 -405.60,-23.48 -405.47,-23.82 -405.32,-24.16 -405.16,-24.48 -404.98,-24.80 -404.78,-25.11 -404.57,-25.41 -404.34,-25.70 -404.10,-25.98 -403.84,-26.25 -403.56,-26.52 -403.27,-26.77 -402.97,-27.00 -402.67,-27.21 -402.35,-27.41 -402.03,-27.59 -401.70,-27.75 -401.36,-27.89 -401.02,-28.02 -400.68,-28.13 -400.33,-28.22 -399.98,-28.30 -399.62,-28.36 -399.26,-28.40 -398.90,-28.43 -398.54,-28.44 -398.18,-28.43 -397.82,-28.40 -397.47,-28.36 -397.11,-28.30 -396.76,-28.22 -396.41,-28.13 -396.06,-28.02 -395.72,-27.89 -395.39,-27.74 -395.06,-27.58 -394.74,-27.40 -394.42,-27.20 -394.11,-26.99 -393.81,-26.76 -393.53,-26.51 -393.25,-26.24 -392.98,-25.97 -392.73,-25.68 -392.50,-25.38 -392.29,-25.07 -392.09,-24.75 -391.91,-24.43 -391.75,-24.10 -391.60,-23.77 -391.48,-23.43 -391.36,-23.08 -391.27,-22.73 -391.19,-22.38 -391.13,-22.02 -391.09,-21.66 -391.07,-21.31 -391.06,-20.95 -391.07,-20.59 -391.09,-20.23 -391.14,-19.87 -391.20,-19.51 -391.27,-19.16 -391.37,-18.81 -391.48,-18.47 -391.61,-18.13 -391.75,-17.79 -391.92,-17.46 -392.10,-17.14 -392.29,-16.82 -392.51,-16.52 -392.74,-16.22 -392.99,-15.93 -393.25,-15.65 -393.53,-15.39 -393.81,-15.15 -394.10,-14.93 -394.40,-14.71 -394.71,-14.52 -395.03,-14.34 -395.35,-14.17 -395.69,-14.03 -396.03,-13.90 -396.37,-13.78 -396.72,-13.68 -397.08,-13.60 -397.44,-13.54 -397.81,-13.50 -398.18,-13.47 -398.55,-13.46 -398.55,-13.46" fill="none" stroke="#00000000" stroke-width="1" opacity="1.0" stroke-linecap="round" stroke-linejoin="round"/><polyline points="-400.25,-16.67 -403.57,-20.12 -402.45,-21.20 -400.25,-18.91 -394.66,-24.66 -393.54,-23.57 -400.25,-16.67" fill="none" stroke="#00000000" stroke-width="1" opacity="1.0" stroke-linecap="round" stroke-linejoin="round"/></svg>