<svg xmlns="http://www.w3.org/2000/svg" viewBox="390.65 813.95 172.00 84.00" width="172" height="84"><rect x="396.65" y="819.95" width="160.00" height="72.00" rx="0" stroke="#4285f4" stroke-width="2" opacity="1.0" fill="#FFF"/><text x="461.65" y="853.95" font-size="12" fill="#000000" opacity="1.0" font-family="sans-serif">Virtual Private
Cloud</text><polyline points="434.95,841.89 443.46,841.89 443.46,850.40 434.95,850.40 434.95,841.89" fill="none" stroke="#00000000" stroke-width="1" opacity="1.0" stroke-linecap="round" stroke-linejoin="round"/><polyline points="434.95,861.75 443.46,861.75 443.46,870.27 434.95,870.27 434.95,861.75" fill="none" stroke="#00000000" stroke-width="1" opacity="1.0" stroke-linecap="round" stroke-linejoin="round"/><polyline points="415.09,841.89 423.60,841.89 423.60,850.40 415.09,850.40 415.09,841.89" fill="none" stroke="#00000000" stroke-width="1" opacity="1.0" stroke-linecap="round" stroke-linejoin="round"/><polyline points="415.09,861.75 423.60,861.75 423.60,870.27 415.09,870.27 415.09,861.75" fill="none" stroke="#00000000" stroke-width="1" opacity="1.0" stroke-linecap="round" stroke-linejoin="round"/><polyline points="439.21,841.89 443.46,841.89 443.46,850.40 439.21,850.40 439.21,841.89" fill="none" stroke="#00000000" stroke-width="1" opacity="1.0" stroke-linecap="round" stroke-linejoin="round"/><polyline points="439.21,861.75 443.46,861.75 443.46,870.27 439.21,870.27 439.21,861.75" fill="none" stroke="#00000000" stroke-width="1" opacity="1.0" stroke-linecap="round" stroke-linejoin="round"/><polyline points="419.34,841.89 423.60,841.89 423.60,850.40 419.34,850.40 419.34,841.89" fill="none" stroke="#00000000" stroke-width="1" opacity="1.0" stroke-linecap="round" stroke-linejoin="round"/><polyline points="419.34,861.75 423.60,861.75 423.60,870.27 419.34,870.27 419.34,861.75" fill="none" stroke="#00000000" stroke-width="1" opacity="1.0" stroke-linecap="round" stroke-linejoin="round"/><polyline points="423.60,844.73 434.95,844.73 434.95,847.57 423.60,847.57 423.60,844.73" fill="none" stroke="#00000000" stroke-width="1" opacity="1.0" stroke-linecap="round" stroke-linejoin="round"/><polyline points="423.60,864.59 434.95,864.59 434.95,867.43 423.60,867.43 423.60,864.59" fill="none" stroke="#00000000" stroke-width="1" opacity="1.0" stroke-linecap="round" stroke-linejoin="round"/><polyline points="437.79,850.40 440.63,850.40 440.63,861.75 437.79,861.75 437.79,850.40" fill="none" stroke="#00000000" stroke-width="1" opacity="1.0" stroke-linecap="round" stroke-linejoin="round"/><polyline points="417.93,850.40 420.76,850.40 420.76,861.75 417.93,861.75 417.93,850.40" fill="none" stroke="#00000000" stroke-width="1" opacity="1.0" stroke-linecap="round" stroke-linejoin="round"/><polyline points="417.93,850.40 420.76,850.40 420.76,853.24 417.93,853.24 417.93,850.40" fill="none" stroke="#00000000" stroke-width="1" opacity="1.0" stroke-linecap="round" stroke-linejoin="round"/><polyline points="437.79,850.40 440.63,850.40 440.63,853.24 437.79,853.24 437.79,850.40" fill="none" stroke="#00000000" stroke-width="1" opacity="1.0" stroke-linecap="round" stroke-linejoin="round"/><polyline points="423.60,844.73 426.44,844.73 426.44,847.57 423.60,847.57 423.60,844.73" fill="none" stroke="#00000000" stroke-width="1" opacity="1.0" stroke-linecap="round" stroke-linejoin="round"/><polyline points="423.60,864.59 426.44,864.59 426.44,867.43 423.60,867.43 423.60,864.59" fill="none" stroke="#00000000" stroke-width="1" opacity="1.0" stroke-linecap="round" stroke-linejoin="round"/></svg>