<svg version="1.1" xmlns="http://www.w3.org/2000/svg" viewBox="0 0 159.53358953001361 113.49573848097862" width="159.53358953001361" height="113.49573848097862">
  <!-- svg-source:excalidraw -->
  
  <defs>
    
    
  </defs>
  <g stroke-linecap="round"><g transform="translate(6.003716862695228 61.55163558680215) rotate(0 73.18688826127482 -27.00201554731848)" fill-rule="evenodd"><path d="M0.08 -0.75 L25.79 0.09 L43.78 -24.66 L64.14 -12.64 L86 -35.23 L120.47 -1.04 L147.93 0.17 L143.59 -55.11 L0.41 -55.8 L1.94 -1.69" stroke="none" stroke-width="0" fill="#669df6" fill-rule="evenodd"></path><path d="M0 0 C10.73 1.87, 19.5 0.66, 25.92 0.11 M0 0 C9.47 -0.75, 17.39 -0.34, 25.92 0.11 M25.92 0.11 C30.89 -7.64, 37.02 -14.27, 45.57 -24.99 M25.92 0.11 C31.02 -6.64, 35.34 -11.56, 45.57 -24.99 M45.57 -24.99 C51.17 -19.1, 59.39 -15.77, 64.8 -11 M45.57 -24.99 C50.27 -22.19, 55.96 -17.02, 64.8 -11 M64.8 -11 C73.84 -20.71, 80.01 -28.09, 87.92 -33.93 M64.8 -11 C71.46 -17.55, 76.03 -23.46, 87.92 -33.93 M87.92 -33.93 C97.76 -25.05, 104.54 -18.19, 121.82 -0.61 M87.92 -33.93 C100.84 -21.69, 115.64 -7.78, 121.82 -0.61 M121.82 -0.61 C132.32 1.53, 139.03 -1.88, 146.37 0.15 M121.82 -0.61 C128.19 -0.56, 132.64 0.42, 146.37 0.15 M146.37 0.15 C144.54 -15.9, 146.93 -32.8, 145.13 -54.07 M146.37 0.15 C145.05 -18.37, 146.21 -34.82, 145.13 -54.07 M145.13 -54.07 C99.98 -57.03, 51.43 -54.74, 1.36 -54.15 M145.13 -54.07 C106.1 -55.86, 65.84 -54.71, 1.36 -54.15 M1.36 -54.15 C1.15 -36.3, 0.15 -17.5, 0 0 M1.36 -54.15 C1.29 -37.37, -0.08 -20.86, 0 0 M0 0 C0 0, 0 0, 0 0 M0 0 C0 0, 0 0, 0 0" stroke="#1864ab" stroke-width="1" fill="none"></path></g></g><mask></mask><g stroke-linecap="round" transform="translate(69.84692032061412 82.95199014557375) rotate(0 8.710673939098001 10.491887872869256)"><path d="M-0.31 0.3 L17.34 -0.98 L16.85 21.48 L0.82 20.85" stroke="none" stroke-width="0" fill="#669df6"></path><path d="M0 0 C6.03 0.78, 12.11 -0.03, 17.42 0 M0 0 C6.15 0.06, 12.82 -0.13, 17.42 0 M17.42 0 C17.01 7.39, 16.71 14.2, 17.42 20.98 M17.42 0 C17.65 8.42, 17.28 15.57, 17.42 20.98 M17.42 20.98 C14.37 20.66, 9.68 21.66, 0 20.98 M17.42 20.98 C13.95 21.19, 9.9 21.26, 0 20.98 M0 20.98 C-0.16 14.55, -0.37 8.2, 0 0 M0 20.98 C-0.33 15.03, -0.1 7.96, 0 0" stroke="#1864ab" stroke-width="1" fill="none"></path></g><g stroke-linecap="round"><g transform="translate(6.2888897586467465 69.66342979845012) rotate(0 73.28364285555756 -7.59439988569784)" fill-rule="evenodd"><path d="M1.69 -1.66 L30.33 -0.06 L46.56 -20.91 L65.06 -11.64 L87.62 -30.8 L119.48 1.47 L146.17 0.86 L144.37 17.47 L-0.41 18.49 L-1.87 0.21" stroke="none" stroke-width="0" fill="#4285f4" fill-rule="evenodd"></path><path d="M0 0 C6.15 -0.58, 13.88 0.95, 29.15 -0.48 M0 0 C7.28 -1.02, 13.54 0.06, 29.15 -0.48 M29.15 -0.48 C31.1 -6.39, 36.64 -7.67, 47.14 -22.65 M29.15 -0.48 C37.09 -8.39, 42.5 -17.05, 47.14 -22.65 M47.14 -22.65 C52.07 -18.03, 57.55 -17.2, 65.21 -9.9 M47.14 -22.65 C50.87 -20.12, 54.14 -17.1, 65.21 -9.9 M65.21 -9.9 C70.48 -18.26, 79.5 -22.41, 87.28 -32.34 M65.21 -9.9 C74.09 -18.62, 82.06 -27.48, 87.28 -32.34 M87.28 -32.34 C98.79 -20.51, 107.7 -11.71, 119.24 -0.02 M87.28 -32.34 C93.25 -26.31, 100.67 -17.78, 119.24 -0.02 M119.24 -0.02 C127.96 1.93, 138.38 -0.06, 146.57 -0.49 M119.24 -0.02 C130.22 0.44, 141.06 0.12, 146.57 -0.49 M146.57 -0.49 C147.78 6.11, 147.19 10.28, 146.15 16.97 M146.57 -0.49 C145.64 4.55, 146.16 8.82, 146.15 16.97 M146.15 16.97 C104.43 17.38, 59.35 20.18, 0.77 17.15 M146.15 16.97 C112.35 18.1, 79.4 18.16, 0.77 17.15 M0.77 17.15 C0.8 11.42, -0.04 4.53, 0 0 M0.77 17.15 C0.55 11.99, 0.51 6.99, 0 0 M0 0 C0 0, 0 0, 0 0 M0 0 C0 0, 0 0, 0 0" stroke="#1864ab" stroke-width="1" fill="none"></path></g></g><mask></mask><g stroke-linecap="round" transform="translate(54.47657563844086 101.51934244049562) rotate(0 24.225339022549747 2.988198020241498)"><path d="M-0.13 -0.37 L48.83 -0.67 L48.64 6.8 L0 5.74" stroke="none" stroke-width="0" fill="#4285f4"></path><path d="M0 0 C15.32 0.61, 32.3 0.29, 48.45 0 M0 0 C19.01 0.22, 38.19 0.37, 48.45 0 M48.45 0 C48.55 2.56, 48.25 4.84, 48.45 5.98 M48.45 0 C48.44 1.37, 48.32 2.67, 48.45 5.98 M48.45 5.98 C30.61 6.21, 14.21 6.42, 0 5.98 M48.45 5.98 C38.67 5.62, 28.4 6.21, 0 5.98 M0 5.98 C-0.27 4.42, 0.21 2.77, 0 0 M0 5.98 C0.06 4.69, 0.06 3.5, 0 0" stroke="#1864ab" stroke-width="1" fill="none"></path></g></svg>