<svg version="1.1" xmlns="http://www.w3.org/2000/svg" viewBox="0 0 197.0488957010682 213.46285760481965" width="197.0488957010682" height="213.46285760481965">
  <!-- svg-source:excalidraw -->
  
  <defs>
    
    
  </defs>
  <g stroke-linecap="round"><g transform="translate(176.29923936922 6) rotate(0 -77.77479151868613 79.55491978896549)" fill-rule="evenodd"><path d="M0 0 L-140.12 0 L-140.12 0 L-143.09 0.3 L-145.86 1.16 L-148.36 2.52 L-150.55 4.32 L-152.35 6.51 L-153.71 9.01 L-154.57 11.78 L-154.87 14.75 L-154.87 29.41 L-167.25 29.41 L-167.25 29.41 L-168.44 29.65 L-169.41 30.3 L-170.06 31.27 L-170.3 32.47 L-170.3 59.17 L-170.3 59.17 L-170.06 60.36 L-169.41 61.33 L-168.44 61.98 L-167.25 62.22 L-154.87 62.22 L-154.87 97.4 L-167.25 97.4 L-167.25 97.4 L-168.44 97.64 L-169.41 98.29 L-170.06 99.26 L-170.3 100.45 L-170.3 127.07 L-170.3 127.07 L-170.06 128.26 L-169.41 129.23 L-168.44 129.88 L-167.25 130.12 L-154.87 130.12 L-154.87 144.36 L-154.87 144.36 L-154.57 147.33 L-153.71 150.1 L-152.35 152.6 L-150.55 154.79 L-148.36 156.59 L-145.86 157.95 L-143.09 158.81 L-140.12 159.11 L0 159.11 L0 159.11 L2.97 158.81 L5.74 157.95 L8.24 156.59 L10.43 154.79 L12.23 152.6 L13.59 150.1 L14.45 147.33 L14.75 144.36 L14.75 14.75 L14.75 14.75 L14.45 11.78 L13.59 9.01 L12.23 6.51 L10.43 4.32 L8.24 2.52 L5.74 1.16 L2.97 0.3 L0 0 L0 0" stroke="none" stroke-width="0" fill="#4285f4" fill-rule="evenodd"></path><path d="M0 0 C-29.64 0, -59.29 0, -140.12 0 M0 0 C-37.21 0, -74.42 0, -140.12 0 M-140.12 0 C-140.12 0, -140.12 0, -140.12 0 M-140.12 0 C-140.12 0, -140.12 0, -140.12 0 M-140.12 0 C-141.19 0.11, -142.26 0.22, -143.09 0.3 M-140.12 0 C-141.23 0.11, -142.35 0.22, -143.09 0.3 M-143.09 0.3 C-143.96 0.57, -144.83 0.84, -145.86 1.16 M-143.09 0.3 C-144.19 0.64, -145.29 0.98, -145.86 1.16 M-145.86 1.16 C-146.59 1.56, -147.33 1.96, -148.36 2.52 M-145.86 1.16 C-146.69 1.61, -147.51 2.06, -148.36 2.52 M-148.36 2.52 C-148.84 2.92, -149.32 3.31, -150.55 4.32 M-148.36 2.52 C-148.81 2.89, -149.25 3.25, -150.55 4.32 M-150.55 4.32 C-151.07 4.96, -151.6 5.59, -152.35 6.51 M-150.55 4.32 C-150.91 4.77, -151.28 5.21, -152.35 6.51 M-152.35 6.51 C-152.81 7.35, -153.27 8.2, -153.71 9.01 M-152.35 6.51 C-152.72 7.18, -153.08 7.85, -153.71 9.01 M-153.71 9.01 C-153.94 9.76, -154.18 10.51, -154.57 11.78 M-153.71 9.01 C-154.05 10.11, -154.39 11.21, -154.57 11.78 M-154.57 11.78 C-154.64 12.5, -154.72 13.22, -154.87 14.75 M-154.57 11.78 C-154.64 12.46, -154.71 13.15, -154.87 14.75 M-154.87 14.75 C-154.87 19.04, -154.87 23.33, -154.87 29.41 M-154.87 14.75 C-154.87 19.99, -154.87 25.22, -154.87 29.41 M-154.87 29.41 C-158.61 29.41, -162.34 29.41, -167.25 29.41 M-154.87 29.41 C-158.71 29.41, -162.54 29.41, -167.25 29.41 M-167.25 29.41 C-167.25 29.41, -167.25 29.41, -167.25 29.41 M-167.25 29.41 C-167.25 29.41, -167.25 29.41, -167.25 29.41 M-167.25 29.41 C-167.68 29.5, -168.12 29.59, -168.44 29.65 M-167.25 29.41 C-167.51 29.47, -167.76 29.52, -168.44 29.65 M-168.44 29.65 C-168.81 29.9, -169.18 30.15, -169.41 30.3 M-168.44 29.65 C-168.75 29.86, -169.06 30.07, -169.41 30.3 M-169.41 30.3 C-169.59 30.58, -169.77 30.85, -170.06 31.27 M-169.41 30.3 C-169.57 30.54, -169.73 30.78, -170.06 31.27 M-170.06 31.27 C-170.15 31.7, -170.23 32.13, -170.3 32.47 M-170.06 31.27 C-170.13 31.62, -170.2 31.96, -170.3 32.47 M-170.3 32.47 C-170.3 42.43, -170.3 52.39, -170.3 59.17 M-170.3 32.47 C-170.3 42.43, -170.3 52.4, -170.3 59.17 M-170.3 59.17 C-170.3 59.17, -170.3 59.17, -170.3 59.17 M-170.3 59.17 C-170.3 59.17, -170.3 59.17, -170.3 59.17 M-170.3 59.17 C-170.21 59.61, -170.12 60.04, -170.06 60.36 M-170.3 59.17 C-170.21 59.61, -170.12 60.05, -170.06 60.36 M-170.06 60.36 C-169.83 60.7, -169.61 61.04, -169.41 61.33 M-170.06 60.36 C-169.92 60.58, -169.77 60.79, -169.41 61.33 M-169.41 61.33 C-169.14 61.51, -168.88 61.69, -168.44 61.98 M-169.41 61.33 C-169.13 61.52, -168.85 61.71, -168.44 61.98 M-168.44 61.98 C-168.2 62.03, -167.95 62.08, -167.25 62.22 M-168.44 61.98 C-168.12 62.05, -167.8 62.11, -167.25 62.22 M-167.25 62.22 C-163.68 62.22, -160.12 62.22, -154.87 62.22 M-167.25 62.22 C-162.72 62.22, -158.19 62.22, -154.87 62.22 M-154.87 62.22 C-154.87 76.24, -154.87 90.26, -154.87 97.4 M-154.87 62.22 C-154.87 75.71, -154.87 89.19, -154.87 97.4 M-154.87 97.4 C-158.59 97.4, -162.31 97.4, -167.25 97.4 M-154.87 97.4 C-158.9 97.4, -162.94 97.4, -167.25 97.4 M-167.25 97.4 C-167.25 97.4, -167.25 97.4, -167.25 97.4 M-167.25 97.4 C-167.25 97.4, -167.25 97.4, -167.25 97.4 M-167.25 97.4 C-167.71 97.49, -168.17 97.58, -168.44 97.64 M-167.25 97.4 C-167.58 97.47, -167.91 97.53, -168.44 97.64 M-168.44 97.64 C-168.74 97.84, -169.05 98.04, -169.41 98.29 M-168.44 97.64 C-168.7 97.81, -168.95 97.98, -169.41 98.29 M-169.41 98.29 C-169.61 98.59, -169.82 98.9, -170.06 99.26 M-169.41 98.29 C-169.55 98.5, -169.7 98.72, -170.06 99.26 M-170.06 99.26 C-170.15 99.72, -170.25 100.19, -170.3 100.45 M-170.06 99.26 C-170.16 99.73, -170.25 100.21, -170.3 100.45 M-170.3 100.45 C-170.3 106.81, -170.3 113.16, -170.3 127.07 M-170.3 100.45 C-170.3 109.34, -170.3 118.22, -170.3 127.07 M-170.3 127.07 C-170.3 127.07, -170.3 127.07, -170.3 127.07 M-170.3 127.07 C-170.3 127.07, -170.3 127.07, -170.3 127.07 M-170.3 127.07 C-170.25 127.31, -170.2 127.55, -170.06 128.26 M-170.3 127.07 C-170.23 127.41, -170.16 127.75, -170.06 128.26 M-170.06 128.26 C-169.91 128.48, -169.77 128.69, -169.41 129.23 M-170.06 128.26 C-169.84 128.59, -169.61 128.93, -169.41 129.23 M-169.41 129.23 C-169.18 129.38, -168.95 129.54, -168.44 129.88 M-169.41 129.23 C-169.09 129.44, -168.77 129.66, -168.44 129.88 M-168.44 129.88 C-168.12 129.95, -167.79 130.01, -167.25 130.12 M-168.44 129.88 C-168.16 129.94, -167.88 129.99, -167.25 130.12 M-167.25 130.12 C-163.9 130.12, -160.56 130.12, -154.87 130.12 M-167.25 130.12 C-164.66 130.12, -162.07 130.12, -154.87 130.12 M-154.87 130.12 C-154.87 135.3, -154.87 140.48, -154.87 144.36 M-154.87 130.12 C-154.87 133.79, -154.87 137.46, -154.87 144.36 M-154.87 144.36 C-154.87 144.36, -154.87 144.36, -154.87 144.36 M-154.87 144.36 C-154.87 144.36, -154.87 144.36, -154.87 144.36 M-154.87 144.36 C-154.8 145.09, -154.72 145.82, -154.57 147.33 M-154.87 144.36 C-154.75 145.52, -154.64 146.67, -154.57 147.33 M-154.57 147.33 C-154.35 148.03, -154.13 148.74, -153.71 150.1 M-154.57 147.33 C-154.35 148.03, -154.14 148.73, -153.71 150.1 M-153.71 150.1 C-153.44 150.6, -153.17 151.1, -152.35 152.6 M-153.71 150.1 C-153.37 150.72, -153.04 151.34, -152.35 152.6 M-152.35 152.6 C-151.64 153.47, -150.92 154.33, -150.55 154.79 M-152.35 152.6 C-151.94 153.1, -151.53 153.6, -150.55 154.79 M-150.55 154.79 C-149.79 155.41, -149.03 156.04, -148.36 156.59 M-150.55 154.79 C-149.71 155.48, -148.86 156.18, -148.36 156.59 M-148.36 156.59 C-147.58 157.02, -146.79 157.44, -145.86 157.95 M-148.36 156.59 C-147.73 156.93, -147.09 157.28, -145.86 157.95 M-145.86 157.95 C-144.89 158.25, -143.92 158.55, -143.09 158.81 M-145.86 157.95 C-144.77 158.29, -143.68 158.63, -143.09 158.81 M-143.09 158.81 C-142.28 158.89, -141.46 158.97, -140.12 159.11 M-143.09 158.81 C-142.5 158.87, -141.9 158.93, -140.12 159.11 M-140.12 159.11 C-97.16 159.11, -54.2 159.11, 0 159.11 M-140.12 159.11 C-84.7 159.11, -29.28 159.11, 0 159.11 M0 159.11 C0 159.11, 0 159.11, 0 159.11 M0 159.11 C0 159.11, 0 159.11, 0 159.11 M0 159.11 C0.76 159.03, 1.51 158.96, 2.97 158.81 M0 159.11 C1.05 159, 2.09 158.9, 2.97 158.81 M2.97 158.81 C3.91 158.52, 4.84 158.23, 5.74 157.95 M2.97 158.81 C3.7 158.58, 4.44 158.35, 5.74 157.95 M5.74 157.95 C6.42 157.58, 7.11 157.21, 8.24 156.59 M5.74 157.95 C6.64 157.46, 7.55 156.97, 8.24 156.59 M8.24 156.59 C8.73 156.19, 9.22 155.78, 10.43 154.79 M8.24 156.59 C9.01 155.96, 9.78 155.32, 10.43 154.79 M10.43 154.79 C11.11 153.96, 11.79 153.13, 12.23 152.6 M10.43 154.79 C11.07 154.01, 11.71 153.24, 12.23 152.6 M12.23 152.6 C12.65 151.82, 13.08 151.04, 13.59 150.1 M12.23 152.6 C12.63 151.86, 13.03 151.12, 13.59 150.1 M13.59 150.1 C13.78 149.47, 13.98 148.84, 14.45 147.33 M13.59 150.1 C13.76 149.54, 13.94 148.98, 14.45 147.33 M14.45 147.33 C14.54 146.39, 14.64 145.45, 14.75 144.36 M14.45 147.33 C14.57 146.15, 14.69 144.96, 14.75 144.36 M14.75 144.36 C14.75 116.76, 14.75 89.16, 14.75 14.75 M14.75 144.36 C14.75 117.49, 14.75 90.61, 14.75 14.75 M14.75 14.75 C14.75 14.75, 14.75 14.75, 14.75 14.75 M14.75 14.75 C14.75 14.75, 14.75 14.75, 14.75 14.75 M14.75 14.75 C14.64 13.65, 14.53 12.55, 14.45 11.78 M14.75 14.75 C14.69 14.12, 14.62 13.49, 14.45 11.78 M14.45 11.78 C14.13 10.74, 13.81 9.71, 13.59 9.01 M14.45 11.78 C14.19 10.94, 13.93 10.11, 13.59 9.01 M13.59 9.01 C13.22 8.33, 12.84 7.64, 12.23 6.51 M13.59 9.01 C13.19 8.28, 12.8 7.56, 12.23 6.51 M12.23 6.51 C11.51 5.64, 10.8 4.77, 10.43 4.32 M12.23 6.51 C11.81 6, 11.39 5.5, 10.43 4.32 M10.43 4.32 C9.7 3.72, 8.97 3.12, 8.24 2.52 M10.43 4.32 C9.86 3.86, 9.3 3.4, 8.24 2.52 M8.24 2.52 C7.54 2.14, 6.84 1.76, 5.74 1.16 M8.24 2.52 C7.3 2.01, 6.37 1.5, 5.74 1.16 M5.74 1.16 C4.9 0.9, 4.07 0.64, 2.97 0.3 M5.74 1.16 C4.74 0.85, 3.74 0.54, 2.97 0.3 M2.97 0.3 C2.14 0.22, 1.31 0.13, 0 0 M2.97 0.3 C1.9 0.19, 0.83 0.08, 0 0 M0 0 C0 0, 0 0, 0 0 M0 0 C0 0, 0 0, 0 0 M0 0 C0 0, 0 0, 0 0 M0 0 C0 0, 0 0, 0 0" stroke="#000000" stroke-width="1" fill="none"></path></g></g><mask></mask><g stroke-linecap="round"><g transform="translate(191.0488957010682 150.36017157463198) rotate(0 -68.70459243125947 -49.29267864856237)" fill-rule="evenodd"><path d="M0 0 L0 -83.75 L-31.7 -113.25 L-31.7 -113.25 L-31.78 -113.19 L-32.02 -113 L-32.41 -112.69 L-32.93 -112.27 L-34.36 -111.12 L-36.24 -109.61 L-38.5 -107.78 L-41.07 -105.69 L-43.88 -103.39 L-46.87 -100.94 L-53.07 -95.78 L-59.13 -90.65 L-61.93 -88.22 L-64.49 -85.96 L-66.72 -83.91 L-68.58 -82.14 L-71.9 -83.75 L-75.14 -84.93 L-78.29 -85.69 L-81.33 -86.06 L-84.26 -86.08 L-87.06 -85.77 L-89.72 -85.16 L-92.22 -84.28 L-94.55 -83.15 L-96.7 -81.81 L-98.66 -80.28 L-100.42 -78.59 L-101.95 -76.76 L-103.25 -74.84 L-104.31 -72.83 L-105.11 -70.78 L-105.7 -68.72 L-106.12 -66.69 L-106.56 -62.83 L-106.57 -59.28 L-106.28 -56.15 L-105.82 -53.54 L-105.57 -52.46 L-105.33 -51.55 L-105.11 -50.82 L-104.93 -50.29 L-104.82 -49.96 L-104.77 -49.84 L-137.41 -16.87 L-105.2 14.66 L-14.66 14.66 L-14.66 14.66 L-11.72 14.39 L-8.98 13.55 L-6.49 12.21 L-4.31 10.42 L-2.52 8.24 L-1.16 5.74 L-0.3 2.97 L0 0 L0 0" stroke="none" stroke-width="0" fill="#2c75ce" fill-rule="evenodd"></path><path d="M0 0 C0 -33.32, 0 -66.63, 0 -83.75 M0 0 C0 -26.1, 0 -52.19, 0 -83.75 M0 -83.75 C-7.44 -90.67, -14.88 -97.6, -31.7 -113.25 M0 -83.75 C-9.05 -92.18, -18.11 -100.6, -31.7 -113.25 M-31.7 -113.25 C-31.7 -113.25, -31.7 -113.25, -31.7 -113.25 M-31.7 -113.25 C-31.7 -113.25, -31.7 -113.25, -31.7 -113.25 M-31.7 -113.25 C-31.73 -113.23, -31.76 -113.21, -31.78 -113.19 M-31.7 -113.25 C-31.74 -113.22, -31.77 -113.2, -31.78 -113.19 M-31.78 -113.19 C-31.86 -113.12, -31.94 -113.06, -32.02 -113 M-31.78 -113.19 C-31.86 -113.12, -31.94 -113.06, -32.02 -113 M-32.02 -113 C-32.17 -112.88, -32.31 -112.76, -32.41 -112.69 M-32.02 -113 C-32.15 -112.89, -32.27 -112.79, -32.41 -112.69 M-32.41 -112.69 C-32.58 -112.55, -32.75 -112.42, -32.93 -112.27 M-32.41 -112.69 C-32.54 -112.58, -32.67 -112.48, -32.93 -112.27 M-32.93 -112.27 C-33.37 -111.91, -33.81 -111.56, -34.36 -111.12 M-32.93 -112.27 C-33.31 -111.96, -33.7 -111.65, -34.36 -111.12 M-34.36 -111.12 C-34.99 -110.61, -35.62 -110.11, -36.24 -109.61 M-34.36 -111.12 C-34.97 -110.63, -35.58 -110.13, -36.24 -109.61 M-36.24 -109.61 C-37.08 -108.92, -37.93 -108.24, -38.5 -107.78 M-36.24 -109.61 C-36.89 -109.08, -37.54 -108.55, -38.5 -107.78 M-38.5 -107.78 C-39.41 -107.03, -40.33 -106.29, -41.07 -105.69 M-38.5 -107.78 C-39.02 -107.35, -39.54 -106.93, -41.07 -105.69 M-41.07 -105.69 C-41.83 -105.06, -42.6 -104.44, -43.88 -103.39 M-41.07 -105.69 C-41.76 -105.12, -42.46 -104.55, -43.88 -103.39 M-43.88 -103.39 C-44.97 -102.5, -46.06 -101.6, -46.87 -100.94 M-43.88 -103.39 C-45.02 -102.46, -46.15 -101.53, -46.87 -100.94 M-46.87 -100.94 C-48.31 -99.74, -49.76 -98.53, -53.07 -95.78 M-46.87 -100.94 C-48.71 -99.4, -50.56 -97.87, -53.07 -95.78 M-53.07 -95.78 C-54.42 -94.64, -55.77 -93.5, -59.13 -90.65 M-53.07 -95.78 C-54.81 -94.31, -56.55 -92.83, -59.13 -90.65 M-59.13 -90.65 C-60.04 -89.86, -60.96 -89.07, -61.93 -88.22 M-59.13 -90.65 C-60.19 -89.73, -61.25 -88.81, -61.93 -88.22 M-61.93 -88.22 C-62.9 -87.37, -63.86 -86.51, -64.49 -85.96 M-61.93 -88.22 C-62.94 -87.33, -63.96 -86.43, -64.49 -85.96 M-64.49 -85.96 C-65.28 -85.24, -66.06 -84.52, -66.72 -83.91 M-64.49 -85.96 C-65.2 -85.31, -65.91 -84.66, -66.72 -83.91 M-66.72 -83.91 C-67.4 -83.27, -68.07 -82.63, -68.58 -82.14 M-66.72 -83.91 C-67.31 -83.35, -67.9 -82.79, -68.58 -82.14 M-68.58 -82.14 C-69.75 -82.71, -70.92 -83.28, -71.9 -83.75 M-68.58 -82.14 C-69.68 -82.68, -70.79 -83.21, -71.9 -83.75 M-71.9 -83.75 C-72.86 -84.1, -73.82 -84.45, -75.14 -84.93 M-71.9 -83.75 C-72.88 -84.11, -73.86 -84.46, -75.14 -84.93 M-75.14 -84.93 C-76.08 -85.16, -77.03 -85.38, -78.29 -85.69 M-75.14 -84.93 C-76.18 -85.18, -77.22 -85.43, -78.29 -85.69 M-78.29 -85.69 C-79.47 -85.83, -80.65 -85.98, -81.33 -86.06 M-78.29 -85.69 C-79.31 -85.81, -80.34 -85.94, -81.33 -86.06 M-81.33 -86.06 C-81.94 -86.07, -82.54 -86.07, -84.26 -86.08 M-81.33 -86.06 C-81.94 -86.07, -82.55 -86.07, -84.26 -86.08 M-84.26 -86.08 C-84.89 -86.01, -85.52 -85.94, -87.06 -85.77 M-84.26 -86.08 C-84.96 -86, -85.67 -85.93, -87.06 -85.77 M-87.06 -85.77 C-87.64 -85.64, -88.23 -85.5, -89.72 -85.16 M-87.06 -85.77 C-87.99 -85.56, -88.91 -85.35, -89.72 -85.16 M-89.72 -85.16 C-90.43 -84.91, -91.14 -84.66, -92.22 -84.28 M-89.72 -85.16 C-90.24 -84.98, -90.77 -84.79, -92.22 -84.28 M-92.22 -84.28 C-92.97 -83.92, -93.72 -83.56, -94.55 -83.15 M-92.22 -84.28 C-92.98 -83.91, -93.74 -83.54, -94.55 -83.15 M-94.55 -83.15 C-95.05 -82.84, -95.56 -82.53, -96.7 -81.81 M-94.55 -83.15 C-95.03 -82.86, -95.51 -82.56, -96.7 -81.81 M-96.7 -81.81 C-97.16 -81.46, -97.61 -81.11, -98.66 -80.28 M-96.7 -81.81 C-97.11 -81.5, -97.51 -81.18, -98.66 -80.28 M-98.66 -80.28 C-99.05 -79.91, -99.43 -79.54, -100.42 -78.59 M-98.66 -80.28 C-99.07 -79.89, -99.47 -79.5, -100.42 -78.59 M-100.42 -78.59 C-100.88 -78.04, -101.34 -77.49, -101.95 -76.76 M-100.42 -78.59 C-100.78 -78.16, -101.14 -77.73, -101.95 -76.76 M-101.95 -76.76 C-102.44 -76.04, -102.93 -75.32, -103.25 -74.84 M-101.95 -76.76 C-102.23 -76.35, -102.52 -75.93, -103.25 -74.84 M-103.25 -74.84 C-103.49 -74.39, -103.73 -73.94, -104.31 -72.83 M-103.25 -74.84 C-103.64 -74.11, -104.02 -73.39, -104.31 -72.83 M-104.31 -72.83 C-104.57 -72.17, -104.83 -71.51, -105.11 -70.78 M-104.31 -72.83 C-104.56 -72.2, -104.81 -71.57, -105.11 -70.78 M-105.11 -70.78 C-105.3 -70.11, -105.49 -69.43, -105.7 -68.72 M-105.11 -70.78 C-105.29 -70.14, -105.47 -69.51, -105.7 -68.72 M-105.7 -68.72 C-105.81 -68.17, -105.93 -67.62, -106.12 -66.69 M-105.7 -68.72 C-105.81 -68.18, -105.92 -67.64, -106.12 -66.69 M-106.12 -66.69 C-106.24 -65.64, -106.36 -64.59, -106.56 -62.83 M-106.12 -66.69 C-106.25 -65.54, -106.38 -64.39, -106.56 -62.83 M-106.56 -62.83 C-106.56 -61.71, -106.57 -60.6, -106.57 -59.28 M-106.56 -62.83 C-106.56 -61.44, -106.57 -60.06, -106.57 -59.28 M-106.57 -59.28 C-106.47 -58.16, -106.36 -57.05, -106.28 -56.15 M-106.57 -59.28 C-106.47 -58.22, -106.37 -57.15, -106.28 -56.15 M-106.28 -56.15 C-106.13 -55.3, -105.98 -54.45, -105.82 -53.54 M-106.28 -56.15 C-106.18 -55.57, -106.08 -55, -105.82 -53.54 M-105.82 -53.54 C-105.77 -53.31, -105.71 -53.08, -105.57 -52.46 M-105.82 -53.54 C-105.74 -53.19, -105.66 -52.83, -105.57 -52.46 M-105.57 -52.46 C-105.5 -52.21, -105.44 -51.96, -105.33 -51.55 M-105.57 -52.46 C-105.51 -52.25, -105.45 -52.03, -105.33 -51.55 M-105.33 -51.55 C-105.26 -51.32, -105.19 -51.09, -105.11 -50.82 M-105.33 -51.55 C-105.25 -51.3, -105.17 -51.04, -105.11 -50.82 M-105.11 -50.82 C-105.06 -50.66, -105 -50.49, -104.93 -50.29 M-105.11 -50.82 C-105.05 -50.63, -104.98 -50.44, -104.93 -50.29 M-104.93 -50.29 C-104.9 -50.2, -104.87 -50.11, -104.82 -49.96 M-104.93 -50.29 C-104.89 -50.16, -104.84 -50.03, -104.82 -49.96 M-104.82 -49.96 C-104.8 -49.93, -104.79 -49.9, -104.77 -49.84 M-104.82 -49.96 C-104.81 -49.93, -104.8 -49.9, -104.77 -49.84 M-104.77 -49.84 C-115.2 -39.31, -125.62 -28.78, -137.41 -16.87 M-104.77 -49.84 C-117.6 -36.89, -130.42 -23.93, -137.41 -16.87 M-137.41 -16.87 C-125.29 -5, -113.16 6.87, -105.2 14.66 M-137.41 -16.87 C-124.95 -4.67, -112.49 7.52, -105.2 14.66 M-105.2 14.66 C-83.66 14.66, -62.12 14.66, -14.66 14.66 M-105.2 14.66 C-84.5 14.66, -63.81 14.66, -14.66 14.66 M-14.66 14.66 C-14.66 14.66, -14.66 14.66, -14.66 14.66 M-14.66 14.66 C-14.66 14.66, -14.66 14.66, -14.66 14.66 M-14.66 14.66 C-13.95 14.6, -13.24 14.53, -11.72 14.39 M-14.66 14.66 C-13.68 14.57, -12.7 14.48, -11.72 14.39 M-11.72 14.39 C-11.04 14.18, -10.36 13.98, -8.98 13.55 M-11.72 14.39 C-11.09 14.2, -10.46 14.01, -8.98 13.55 M-8.98 13.55 C-8.28 13.18, -7.58 12.8, -6.49 12.21 M-8.98 13.55 C-8.37 13.23, -7.77 12.9, -6.49 12.21 M-6.49 12.21 C-5.86 11.69, -5.23 11.17, -4.31 10.42 M-6.49 12.21 C-6.01 11.81, -5.53 11.42, -4.31 10.42 M-4.31 10.42 C-3.7 9.67, -3.09 8.93, -2.52 8.24 M-4.31 10.42 C-3.82 9.82, -3.33 9.22, -2.52 8.24 M-2.52 8.24 C-2.21 7.68, -1.91 7.11, -1.16 5.74 M-2.52 8.24 C-2.19 7.63, -1.85 7.02, -1.16 5.74 M-1.16 5.74 C-0.86 4.79, -0.57 3.83, -0.3 2.97 M-1.16 5.74 C-0.95 5.08, -0.75 4.42, -0.3 2.97 M-0.3 2.97 C-0.21 2.05, -0.11 1.13, 0 0 M-0.3 2.97 C-0.21 2.09, -0.12 1.22, 0 0 M0 0 C0 0, 0 0, 0 0 M0 0 C0 0, 0 0, 0 0 M0 0 C0 0, 0 0, 0 0 M0 0 C0 0, 0 0, 0 0" stroke="#000000" stroke-width="1" fill="none"></path></g></g><mask></mask><g stroke-linecap="round"><g transform="translate(132.72840502832264 101.872785123119) rotate(0 -26.913893655298466 -16.63574387138138)" fill-rule="evenodd"><path d="M0 0 L0 0 L-0.08 0.08 L2.07 -3.51 L3.67 -7.41 L4.24 -9.45 L4.66 -11.54 L4.91 -13.68 L5 -15.85 L4.91 -18.09 L4.64 -20.29 L4.21 -22.44 L3.6 -24.54 L2.84 -26.57 L1.93 -28.54 L0.86 -30.42 L-0.34 -32.21 L26.19 -56.88 L26.19 -56.88 L27.06 -57.87 L27.7 -58.98 L28.1 -60.16 L28.27 -61.39 L28.2 -62.63 L27.89 -63.84 L27.33 -64.99 L26.53 -66.03 L25.54 -66.9 L24.43 -67.54 L23.25 -67.94 L22.02 -68.11 L20.78 -68.04 L19.57 -67.73 L18.42 -67.17 L17.38 -66.37 L-9.92 -40.94 L-9.92 -40.94 L-7.97 -39.67 L-10.03 -40.97 L-12.19 -42.11 L-14.45 -43.1 L-16.79 -43.92 L-19.23 -44.57 L-21.74 -45.05 L-24.32 -45.34 L-26.96 -45.44 L-29.57 -45.34 L-32.11 -45.05 L-34.59 -44.58 L-36.99 -43.93 L-39.31 -43.12 L-41.54 -42.15 L-43.66 -41.02 L-45.69 -39.76 L-43.91 -40.94 L-71.21 -66.37 L-71.21 -66.37 L-72.25 -67.17 L-73.4 -67.73 L-74.61 -68.04 L-75.85 -68.11 L-77.08 -67.94 L-78.26 -67.54 L-79.37 -66.9 L-80.36 -66.03 L-81.16 -64.99 L-81.71 -63.84 L-82.03 -62.63 L-82.1 -61.39 L-81.93 -60.16 L-81.53 -58.98 L-80.89 -57.87 L-80.02 -56.88 L-53.49 -32.21 L-53.49 -32.21 L-54.7 -30.42 L-55.77 -28.54 L-56.7 -26.57 L-57.47 -24.54 L-58.09 -22.44 L-58.54 -20.29 L-58.82 -18.09 L-58.91 -15.85 L-58.83 -13.68 L-58.57 -11.54 L-58.16 -9.45 L-57.59 -7.41 L-56.02 -3.51 L-53.91 0.08 L-79.17 23.65 L-79.17 23.65 L-80.04 24.64 L-80.68 25.75 L-81.08 26.93 L-81.25 28.16 L-81.18 29.4 L-80.87 30.61 L-80.31 31.76 L-79.51 32.81 L-78.48 33.7 L-77.33 34.33 L-76.08 34.71 L-74.77 34.84 L-73.58 34.73 L-72.43 34.41 L-71.36 33.87 L-70.36 33.14 L-44.42 8.99 L-44.42 8.99 L-40.49 11.01 L-36.23 12.5 L-31.7 13.42 L-26.96 13.73 L-23.53 13.56 L-20.21 13.07 L-17.01 12.27 L-13.95 11.18 L-11.06 9.81 L-8.35 8.19 L-5.84 6.33 L-3.56 4.24 L-6.36 6.76 L-9.41 8.9 L16.61 33.14 L16.61 33.14 L17.61 33.91 L18.69 34.44 L19.83 34.74 L21.02 34.84 L22.3 34.71 L23.55 34.33 L24.73 33.7 L25.77 32.81 L26.57 31.76 L27.12 30.61 L27.44 29.4 L27.51 28.16 L27.34 26.93 L26.94 25.75 L26.3 24.64 L25.43 23.65 L0 0 L0 0" stroke="none" stroke-width="0" fill="#fff" fill-rule="evenodd"></path><path d="M0 0 C0 0, 0 0, 0 0 M0 0 C0 0, 0 0, 0 0 M0 0 C-0.03 0.03, -0.06 0.06, -0.08 0.08 M0 0 C-0.02 0.02, -0.04 0.04, -0.08 0.08 M-0.08 0.08 C0.66 -1.16, 1.4 -2.4, 2.07 -3.51 M-0.08 0.08 C0.52 -0.93, 1.13 -1.94, 2.07 -3.51 M2.07 -3.51 C2.4 -4.33, 2.74 -5.14, 3.67 -7.41 M2.07 -3.51 C2.59 -4.78, 3.11 -6.05, 3.67 -7.41 M3.67 -7.41 C3.79 -7.83, 3.91 -8.25, 4.24 -9.45 M3.67 -7.41 C3.79 -7.86, 3.92 -8.32, 4.24 -9.45 M4.24 -9.45 C4.35 -9.97, 4.45 -10.5, 4.66 -11.54 M4.24 -9.45 C4.39 -10.16, 4.53 -10.88, 4.66 -11.54 M4.66 -11.54 C4.72 -12.07, 4.79 -12.6, 4.91 -13.68 M4.66 -11.54 C4.75 -12.26, 4.83 -12.98, 4.91 -13.68 M4.91 -13.68 C4.95 -14.45, 4.98 -15.23, 5 -15.85 M4.91 -13.68 C4.94 -14.21, 4.96 -14.74, 5 -15.85 M5 -15.85 C4.97 -16.62, 4.94 -17.39, 4.91 -18.09 M5 -15.85 C4.98 -16.48, 4.95 -17.11, 4.91 -18.09 M4.91 -18.09 C4.85 -18.61, 4.79 -19.13, 4.64 -20.29 M4.91 -18.09 C4.82 -18.84, 4.73 -19.59, 4.64 -20.29 M4.64 -20.29 C4.53 -20.87, 4.41 -21.44, 4.21 -22.44 M4.64 -20.29 C4.47 -21.14, 4.3 -21.99, 4.21 -22.44 M4.21 -22.44 C4 -23.16, 3.8 -23.87, 3.6 -24.54 M4.21 -22.44 C3.98 -23.24, 3.75 -24.04, 3.6 -24.54 M3.6 -24.54 C3.32 -25.3, 3.03 -26.06, 2.84 -26.57 M3.6 -24.54 C3.44 -24.97, 3.28 -25.39, 2.84 -26.57 M2.84 -26.57 C2.51 -27.28, 2.18 -27.99, 1.93 -28.54 M2.84 -26.57 C2.61 -27.06, 2.38 -27.56, 1.93 -28.54 M1.93 -28.54 C1.59 -29.12, 1.26 -29.71, 0.86 -30.42 M1.93 -28.54 C1.57 -29.17, 1.21 -29.81, 0.86 -30.42 M0.86 -30.42 C0.47 -31, 0.08 -31.58, -0.34 -32.21 M0.86 -30.42 C0.54 -30.9, 0.22 -31.38, -0.34 -32.21 M-0.34 -32.21 C8.15 -40.1, 16.63 -47.99, 26.19 -56.88 M-0.34 -32.21 C9.87 -41.7, 20.07 -51.19, 26.19 -56.88 M26.19 -56.88 C26.19 -56.88, 26.19 -56.88, 26.19 -56.88 M26.19 -56.88 C26.19 -56.88, 26.19 -56.88, 26.19 -56.88 M26.19 -56.88 C26.47 -57.2, 26.75 -57.51, 27.06 -57.87 M26.19 -56.88 C26.4 -57.11, 26.6 -57.34, 27.06 -57.87 M27.06 -57.87 C27.26 -58.21, 27.45 -58.54, 27.7 -58.98 M27.06 -57.87 C27.2 -58.1, 27.33 -58.33, 27.7 -58.98 M27.7 -58.98 C27.79 -59.25, 27.88 -59.52, 28.1 -60.16 M27.7 -58.98 C27.84 -59.4, 27.99 -59.82, 28.1 -60.16 M28.1 -60.16 C28.17 -60.62, 28.23 -61.07, 28.27 -61.39 M28.1 -60.16 C28.15 -60.48, 28.19 -60.79, 28.27 -61.39 M28.27 -61.39 C28.25 -61.7, 28.23 -62.01, 28.2 -62.63 M28.27 -61.39 C28.25 -61.78, 28.23 -62.17, 28.2 -62.63 M28.2 -62.63 C28.11 -62.98, 28.02 -63.33, 27.89 -63.84 M28.2 -62.63 C28.11 -62.98, 28.02 -63.33, 27.89 -63.84 M27.89 -63.84 C27.68 -64.27, 27.47 -64.69, 27.33 -64.99 M27.89 -63.84 C27.75 -64.13, 27.61 -64.41, 27.33 -64.99 M27.33 -64.99 C27.1 -65.29, 26.87 -65.59, 26.53 -66.03 M27.33 -64.99 C27.08 -65.31, 26.84 -65.64, 26.53 -66.03 M26.53 -66.03 C26.25 -66.28, 25.97 -66.53, 25.54 -66.9 M26.53 -66.03 C26.14 -66.38, 25.75 -66.72, 25.54 -66.9 M25.54 -66.9 C25.18 -67.11, 24.82 -67.32, 24.43 -67.54 M25.54 -66.9 C25.15 -67.13, 24.75 -67.36, 24.43 -67.54 M24.43 -67.54 C24.14 -67.64, 23.85 -67.74, 23.25 -67.94 M24.43 -67.54 C24 -67.69, 23.57 -67.84, 23.25 -67.94 M23.25 -67.94 C22.99 -67.98, 22.74 -68.01, 22.02 -68.11 M23.25 -67.94 C23 -67.98, 22.75 -68.01, 22.02 -68.11 M22.02 -68.11 C21.73 -68.09, 21.45 -68.08, 20.78 -68.04 M22.02 -68.11 C21.69 -68.09, 21.37 -68.07, 20.78 -68.04 M20.78 -68.04 C20.45 -67.95, 20.11 -67.87, 19.57 -67.73 M20.78 -68.04 C20.48 -67.96, 20.17 -67.88, 19.57 -67.73 M19.57 -67.73 C19.14 -67.52, 18.7 -67.31, 18.42 -67.17 M19.57 -67.73 C19.14 -67.52, 18.71 -67.31, 18.42 -67.17 M18.42 -67.17 C18.1 -66.92, 17.77 -66.68, 17.38 -66.37 M18.42 -67.17 C18.16 -66.97, 17.91 -66.78, 17.38 -66.37 M17.38 -66.37 C8.39 -58, -0.59 -49.63, -9.92 -40.94 M17.38 -66.37 C9.77 -59.29, 2.17 -52.2, -9.92 -40.94 M-9.92 -40.94 C-9.92 -40.94, -9.92 -40.94, -9.92 -40.94 M-9.92 -40.94 C-9.92 -40.94, -9.92 -40.94, -9.92 -40.94 M-9.92 -40.94 C-9.31 -40.55, -8.71 -40.16, -7.97 -39.67 M-9.92 -40.94 C-9.27 -40.52, -8.62 -40.1, -7.97 -39.67 M-7.97 -39.67 C-8.79 -40.19, -9.61 -40.7, -10.03 -40.97 M-7.97 -39.67 C-8.67 -40.11, -9.38 -40.56, -10.03 -40.97 M-10.03 -40.97 C-10.54 -41.24, -11.05 -41.51, -12.19 -42.11 M-10.03 -40.97 C-10.85 -41.4, -11.67 -41.84, -12.19 -42.11 M-12.19 -42.11 C-12.89 -42.42, -13.59 -42.72, -14.45 -43.1 M-12.19 -42.11 C-12.88 -42.41, -13.57 -42.72, -14.45 -43.1 M-14.45 -43.1 C-14.95 -43.27, -15.45 -43.45, -16.79 -43.92 M-14.45 -43.1 C-15.05 -43.31, -15.66 -43.52, -16.79 -43.92 M-16.79 -43.92 C-17.53 -44.12, -18.26 -44.31, -19.23 -44.57 M-16.79 -43.92 C-17.66 -44.15, -18.52 -44.38, -19.23 -44.57 M-19.23 -44.57 C-19.82 -44.69, -20.42 -44.8, -21.74 -45.05 M-19.23 -44.57 C-19.94 -44.71, -20.65 -44.84, -21.74 -45.05 M-21.74 -45.05 C-22.38 -45.12, -23.03 -45.19, -24.32 -45.34 M-21.74 -45.05 C-22.27 -45.11, -22.8 -45.17, -24.32 -45.34 M-24.32 -45.34 C-25.08 -45.37, -25.84 -45.39, -26.96 -45.44 M-24.32 -45.34 C-25.26 -45.37, -26.2 -45.41, -26.96 -45.44 M-26.96 -45.44 C-27.67 -45.41, -28.38 -45.38, -29.57 -45.34 M-26.96 -45.44 C-27.81 -45.4, -28.66 -45.37, -29.57 -45.34 M-29.57 -45.34 C-30.18 -45.27, -30.8 -45.2, -32.11 -45.05 M-29.57 -45.34 C-30.25 -45.26, -30.94 -45.18, -32.11 -45.05 M-32.11 -45.05 C-32.66 -44.95, -33.2 -44.84, -34.59 -44.58 M-32.11 -45.05 C-32.62 -44.95, -33.13 -44.86, -34.59 -44.58 M-34.59 -44.58 C-35.45 -44.35, -36.3 -44.12, -36.99 -43.93 M-34.59 -44.58 C-35.55 -44.32, -36.51 -44.06, -36.99 -43.93 M-36.99 -43.93 C-37.89 -43.62, -38.79 -43.3, -39.31 -43.12 M-36.99 -43.93 C-37.63 -43.71, -38.27 -43.48, -39.31 -43.12 M-39.31 -43.12 C-40.16 -42.74, -41.02 -42.37, -41.54 -42.15 M-39.31 -43.12 C-39.77 -42.92, -40.22 -42.72, -41.54 -42.15 M-41.54 -42.15 C-41.98 -41.91, -42.42 -41.68, -43.66 -41.02 M-41.54 -42.15 C-41.97 -41.91, -42.41 -41.68, -43.66 -41.02 M-43.66 -41.02 C-44.2 -40.69, -44.73 -40.35, -45.69 -39.76 M-43.66 -41.02 C-44.35 -40.6, -45.03 -40.17, -45.69 -39.76 M-45.69 -39.76 C-45.06 -40.17, -44.44 -40.59, -43.91 -40.94 M-45.69 -39.76 C-44.98 -40.23, -44.27 -40.7, -43.91 -40.94 M-43.91 -40.94 C-50.02 -46.64, -56.13 -52.33, -71.21 -66.37 M-43.91 -40.94 C-52.83 -49.25, -61.75 -57.56, -71.21 -66.37 M-71.21 -66.37 C-71.21 -66.37, -71.21 -66.37, -71.21 -66.37 M-71.21 -66.37 C-71.21 -66.37, -71.21 -66.37, -71.21 -66.37 M-71.21 -66.37 C-71.5 -66.6, -71.8 -66.82, -72.25 -67.17 M-71.21 -66.37 C-71.51 -66.61, -71.82 -66.84, -72.25 -67.17 M-72.25 -67.17 C-72.59 -67.34, -72.93 -67.5, -73.4 -67.73 M-72.25 -67.17 C-72.55 -67.32, -72.85 -67.46, -73.4 -67.73 M-73.4 -67.73 C-73.82 -67.84, -74.23 -67.94, -74.61 -68.04 M-73.4 -67.73 C-73.7 -67.8, -73.99 -67.88, -74.61 -68.04 M-74.61 -68.04 C-75.02 -68.06, -75.43 -68.09, -75.85 -68.11 M-74.61 -68.04 C-75 -68.06, -75.4 -68.09, -75.85 -68.11 M-75.85 -68.11 C-76.23 -68.06, -76.61 -68.01, -77.08 -67.94 M-75.85 -68.11 C-76.3 -68.05, -76.76 -67.99, -77.08 -67.94 M-77.08 -67.94 C-77.51 -67.8, -77.95 -67.65, -78.26 -67.54 M-77.08 -67.94 C-77.32 -67.86, -77.57 -67.78, -78.26 -67.54 M-78.26 -67.54 C-78.66 -67.31, -79.06 -67.08, -79.37 -66.9 M-78.26 -67.54 C-78.65 -67.32, -79.04 -67.1, -79.37 -66.9 M-79.37 -66.9 C-79.74 -66.58, -80.1 -66.26, -80.36 -66.03 M-79.37 -66.9 C-79.68 -66.63, -80 -66.35, -80.36 -66.03 M-80.36 -66.03 C-80.57 -65.75, -80.79 -65.47, -81.16 -64.99 M-80.36 -66.03 C-80.55 -65.78, -80.75 -65.52, -81.16 -64.99 M-81.16 -64.99 C-81.35 -64.59, -81.55 -64.19, -81.71 -63.84 M-81.16 -64.99 C-81.36 -64.57, -81.56 -64.16, -81.71 -63.84 M-81.71 -63.84 C-81.81 -63.48, -81.9 -63.12, -82.03 -62.63 M-81.71 -63.84 C-81.78 -63.6, -81.84 -63.35, -82.03 -62.63 M-82.03 -62.63 C-82.04 -62.33, -82.06 -62.03, -82.1 -61.39 M-82.03 -62.63 C-82.05 -62.27, -82.07 -61.9, -82.1 -61.39 M-82.1 -61.39 C-82.05 -61.02, -82 -60.65, -81.93 -60.16 M-82.1 -61.39 C-82.04 -60.95, -81.98 -60.51, -81.93 -60.16 M-81.93 -60.16 C-81.83 -59.88, -81.74 -59.59, -81.53 -58.98 M-81.93 -60.16 C-81.85 -59.92, -81.76 -59.67, -81.53 -58.98 M-81.53 -58.98 C-81.39 -58.73, -81.24 -58.48, -80.89 -57.87 M-81.53 -58.98 C-81.31 -58.6, -81.1 -58.23, -80.89 -57.87 M-80.89 -57.87 C-80.66 -57.61, -80.43 -57.35, -80.02 -56.88 M-80.89 -57.87 C-80.69 -57.64, -80.49 -57.42, -80.02 -56.88 M-80.02 -56.88 C-69.71 -47.29, -59.39 -37.7, -53.49 -32.21 M-80.02 -56.88 C-70.88 -48.38, -61.75 -39.89, -53.49 -32.21 M-53.49 -32.21 C-53.49 -32.21, -53.49 -32.21, -53.49 -32.21 M-53.49 -32.21 C-53.49 -32.21, -53.49 -32.21, -53.49 -32.21 M-53.49 -32.21 C-53.75 -31.82, -54.02 -31.43, -54.7 -30.42 M-53.49 -32.21 C-53.82 -31.72, -54.14 -31.24, -54.7 -30.42 M-54.7 -30.42 C-55.1 -29.71, -55.5 -29, -55.77 -28.54 M-54.7 -30.42 C-55 -29.89, -55.3 -29.36, -55.77 -28.54 M-55.77 -28.54 C-56.07 -27.9, -56.36 -27.27, -56.7 -26.57 M-55.77 -28.54 C-56.14 -27.75, -56.51 -26.97, -56.7 -26.57 M-56.7 -26.57 C-56.93 -25.96, -57.17 -25.34, -57.47 -24.54 M-56.7 -26.57 C-56.88 -26.08, -57.07 -25.59, -57.47 -24.54 M-57.47 -24.54 C-57.72 -23.71, -57.96 -22.89, -58.09 -22.44 M-57.47 -24.54 C-57.65 -23.93, -57.83 -23.33, -58.09 -22.44 M-58.09 -22.44 C-58.25 -21.71, -58.4 -20.98, -58.54 -20.29 M-58.09 -22.44 C-58.26 -21.63, -58.43 -20.82, -58.54 -20.29 M-58.54 -20.29 C-58.63 -19.58, -58.72 -18.87, -58.82 -18.09 M-58.54 -20.29 C-58.62 -19.64, -58.71 -18.99, -58.82 -18.09 M-58.82 -18.09 C-58.84 -17.63, -58.86 -17.18, -58.91 -15.85 M-58.82 -18.09 C-58.85 -17.44, -58.87 -16.79, -58.91 -15.85 M-58.91 -15.85 C-58.89 -15.23, -58.86 -14.62, -58.83 -13.68 M-58.91 -15.85 C-58.89 -15.3, -58.87 -14.75, -58.83 -13.68 M-58.83 -13.68 C-58.74 -12.92, -58.65 -12.17, -58.57 -11.54 M-58.83 -13.68 C-58.77 -13.19, -58.71 -12.71, -58.57 -11.54 M-58.57 -11.54 C-58.47 -11.03, -58.37 -10.53, -58.16 -9.45 M-58.57 -11.54 C-58.41 -10.73, -58.25 -9.92, -58.16 -9.45 M-58.16 -9.45 C-58 -8.88, -57.84 -8.31, -57.59 -7.41 M-58.16 -9.45 C-57.95 -8.71, -57.75 -7.98, -57.59 -7.41 M-57.59 -7.41 C-57.2 -6.44, -56.81 -5.48, -56.02 -3.51 M-57.59 -7.41 C-57.27 -6.62, -56.95 -5.83, -56.02 -3.51 M-56.02 -3.51 C-55.55 -2.71, -55.08 -1.9, -53.91 0.08 M-56.02 -3.51 C-55.37 -2.41, -54.72 -1.3, -53.91 0.08 M-53.91 0.08 C-62.66 8.24, -71.4 16.4, -79.17 23.65 M-53.91 0.08 C-63.91 9.41, -73.91 18.74, -79.17 23.65 M-79.17 23.65 C-79.17 23.65, -79.17 23.65, -79.17 23.65 M-79.17 23.65 C-79.17 23.65, -79.17 23.65, -79.17 23.65 M-79.17 23.65 C-79.41 23.92, -79.64 24.18, -80.04 24.64 M-79.17 23.65 C-79.48 23.99, -79.78 24.34, -80.04 24.64 M-80.04 24.64 C-80.3 25.08, -80.55 25.52, -80.68 25.75 M-80.04 24.64 C-80.22 24.95, -80.4 25.26, -80.68 25.75 M-80.68 25.75 C-80.82 26.15, -80.95 26.55, -81.08 26.93 M-80.68 25.75 C-80.77 26.01, -80.86 26.28, -81.08 26.93 M-81.08 26.93 C-81.13 27.3, -81.18 27.66, -81.25 28.16 M-81.08 26.93 C-81.12 27.19, -81.15 27.45, -81.25 28.16 M-81.25 28.16 C-81.22 28.61, -81.2 29.05, -81.18 29.4 M-81.25 28.16 C-81.23 28.51, -81.21 28.85, -81.18 29.4 M-81.18 29.4 C-81.07 29.82, -80.97 30.23, -80.87 30.61 M-81.18 29.4 C-81.06 29.85, -80.95 30.3, -80.87 30.61 M-80.87 30.61 C-80.68 31, -80.49 31.38, -80.31 31.76 M-80.87 30.61 C-80.68 31.01, -80.49 31.4, -80.31 31.76 M-80.31 31.76 C-80.02 32.14, -79.72 32.53, -79.51 32.81 M-80.31 31.76 C-80.11 32.02, -79.91 32.29, -79.51 32.81 M-79.51 32.81 C-79.15 33.12, -78.79 33.43, -78.48 33.7 M-79.51 32.81 C-79.15 33.12, -78.79 33.43, -78.48 33.7 M-78.48 33.7 C-78.09 33.91, -77.69 34.13, -77.33 34.33 M-78.48 33.7 C-78.04 33.94, -77.59 34.19, -77.33 34.33 M-77.33 34.33 C-76.97 34.44, -76.61 34.55, -76.08 34.71 M-77.33 34.33 C-77.07 34.41, -76.81 34.49, -76.08 34.71 M-76.08 34.71 C-75.71 34.75, -75.35 34.78, -74.77 34.84 M-76.08 34.71 C-75.76 34.74, -75.45 34.77, -74.77 34.84 M-74.77 34.84 C-74.4 34.81, -74.03 34.77, -73.58 34.73 M-74.77 34.84 C-74.4 34.81, -74.03 34.77, -73.58 34.73 M-73.58 34.73 C-73.21 34.63, -72.84 34.52, -72.43 34.41 M-73.58 34.73 C-73.22 34.63, -72.86 34.53, -72.43 34.41 M-72.43 34.41 C-72.04 34.21, -71.64 34.02, -71.36 33.87 M-72.43 34.41 C-72.18 34.28, -71.92 34.15, -71.36 33.87 M-71.36 33.87 C-71.1 33.69, -70.84 33.5, -70.36 33.14 M-71.36 33.87 C-71.12 33.7, -70.87 33.52, -70.36 33.14 M-70.36 33.14 C-62.32 25.66, -54.28 18.17, -44.42 8.99 M-70.36 33.14 C-63.59 26.84, -56.82 20.54, -44.42 8.99 M-44.42 8.99 C-44.42 8.99, -44.42 8.99, -44.42 8.99 M-44.42 8.99 C-44.42 8.99, -44.42 8.99, -44.42 8.99 M-44.42 8.99 C-42.97 9.74, -41.51 10.49, -40.49 11.01 M-44.42 8.99 C-43.5 9.46, -42.58 9.94, -40.49 11.01 M-40.49 11.01 C-38.97 11.54, -37.46 12.07, -36.23 12.5 M-40.49 11.01 C-39.21 11.46, -37.93 11.91, -36.23 12.5 M-36.23 12.5 C-35.01 12.75, -33.8 13, -31.7 13.42 M-36.23 12.5 C-34.88 12.78, -33.54 13.05, -31.7 13.42 M-31.7 13.42 C-29.86 13.54, -28.03 13.66, -26.96 13.73 M-31.7 13.42 C-30.35 13.51, -29.01 13.6, -26.96 13.73 M-26.96 13.73 C-25.87 13.68, -24.78 13.63, -23.53 13.56 M-26.96 13.73 C-25.68 13.67, -24.4 13.61, -23.53 13.56 M-23.53 13.56 C-22.7 13.44, -21.86 13.32, -20.21 13.07 M-23.53 13.56 C-22.76 13.45, -21.98 13.33, -20.21 13.07 M-20.21 13.07 C-19.2 12.82, -18.18 12.56, -17.01 12.27 M-20.21 13.07 C-19.32 12.85, -18.43 12.63, -17.01 12.27 M-17.01 12.27 C-16.3 12.02, -15.59 11.76, -13.95 11.18 M-17.01 12.27 C-15.89 11.87, -14.77 11.47, -13.95 11.18 M-13.95 11.18 C-13.21 10.83, -12.46 10.47, -11.06 9.81 M-13.95 11.18 C-13.36 10.9, -12.76 10.62, -11.06 9.81 M-11.06 9.81 C-10.38 9.4, -9.7 9, -8.35 8.19 M-11.06 9.81 C-10.42 9.43, -9.77 9.04, -8.35 8.19 M-8.35 8.19 C-7.8 7.78, -7.26 7.38, -5.84 6.33 M-8.35 8.19 C-7.74 7.74, -7.14 7.29, -5.84 6.33 M-5.84 6.33 C-5 5.56, -4.17 4.79, -3.56 4.24 M-5.84 6.33 C-5.31 5.84, -4.78 5.36, -3.56 4.24 M-3.56 4.24 C-4.3 4.9, -5.04 5.57, -6.36 6.76 M-3.56 4.24 C-4.27 4.88, -4.98 5.52, -6.36 6.76 M-6.36 6.76 C-7.21 7.36, -8.07 7.96, -9.41 8.9 M-6.36 6.76 C-7.21 7.36, -8.05 7.95, -9.41 8.9 M-9.41 8.9 C-0.22 17.46, 8.97 26.02, 16.61 33.14 M-9.41 8.9 C0.99 18.59, 11.39 28.28, 16.61 33.14 M16.61 33.14 C16.61 33.14, 16.61 33.14, 16.61 33.14 M16.61 33.14 C16.61 33.14, 16.61 33.14, 16.61 33.14 M16.61 33.14 C16.85 33.32, 17.08 33.5, 17.61 33.91 M16.61 33.14 C16.83 33.31, 17.05 33.48, 17.61 33.91 M17.61 33.91 C17.93 34.07, 18.25 34.22, 18.69 34.44 M17.61 33.91 C17.94 34.07, 18.26 34.23, 18.69 34.44 M18.69 34.44 C19.07 34.54, 19.45 34.64, 19.83 34.74 M18.69 34.44 C19.08 34.54, 19.47 34.64, 19.83 34.74 M19.83 34.74 C20.18 34.77, 20.52 34.8, 21.02 34.84 M19.83 34.74 C20.2 34.77, 20.56 34.8, 21.02 34.84 M21.02 34.84 C21.38 34.8, 21.74 34.77, 22.3 34.71 M21.02 34.84 C21.5 34.79, 21.98 34.74, 22.3 34.71 M22.3 34.71 C22.64 34.61, 22.98 34.51, 23.55 34.33 M22.3 34.71 C22.58 34.63, 22.86 34.54, 23.55 34.33 M23.55 34.33 C24.02 34.08, 24.48 33.83, 24.73 33.7 M23.55 34.33 C23.82 34.19, 24.08 34.05, 24.73 33.7 M24.73 33.7 C24.97 33.49, 25.21 33.28, 25.77 32.81 M24.73 33.7 C25.1 33.38, 25.46 33.07, 25.77 32.81 M25.77 32.81 C26.06 32.42, 26.35 32.04, 26.57 31.76 M25.77 32.81 C26.07 32.42, 26.36 32.03, 26.57 31.76 M26.57 31.76 C26.69 31.52, 26.8 31.28, 27.12 30.61 M26.57 31.76 C26.76 31.37, 26.94 30.98, 27.12 30.61 M27.12 30.61 C27.24 30.14, 27.37 29.67, 27.44 29.4 M27.12 30.61 C27.25 30.14, 27.37 29.67, 27.44 29.4 M27.44 29.4 C27.46 28.94, 27.49 28.47, 27.51 28.16 M27.44 29.4 C27.45 29.09, 27.47 28.77, 27.51 28.16 M27.51 28.16 C27.47 27.86, 27.42 27.55, 27.34 26.93 M27.51 28.16 C27.47 27.87, 27.43 27.58, 27.34 26.93 M27.34 26.93 C27.2 26.53, 27.06 26.12, 26.94 25.75 M27.34 26.93 C27.21 26.56, 27.09 26.19, 26.94 25.75 M26.94 25.75 C26.8 25.51, 26.67 25.28, 26.3 24.64 M26.94 25.75 C26.71 25.36, 26.49 24.97, 26.3 24.64 M26.3 24.64 C26.07 24.38, 25.84 24.12, 25.43 23.65 M26.3 24.64 C25.98 24.28, 25.66 23.91, 25.43 23.65 M25.43 23.65 C16.93 15.74, 8.42 7.83, 0 0 M25.43 23.65 C16.15 15.02, 6.87 6.39, 0 0 M0 0 C0 0, 0 0, 0 0 M0 0 C0 0, 0 0, 0 0 M0 0 C0 0, 0 0, 0 0 M0 0 C0 0, 0 0, 0 0" stroke="#000000" stroke-width="1" fill="none"></path></g></g><mask></mask><g stroke-linecap="round"><g transform="translate(125.5231163617857 62.794665815820736) rotate(0 0 0)" fill-rule="evenodd"><path d="M0 0 L0 0 L0 0 L0 0 L0 0" stroke="none" stroke-width="0" fill="#fff" fill-rule="evenodd"></path><path d="M0 0 C0 0, 0 0, 0 0 M0 0 C0 0, 0 0, 0 0 M0 0 C0 0, 0 0, 0 0 M0 0 C0 0, 0 0, 0 0 M0 0 C0 0, 0 0, 0 0 M0 0 C0 0, 0 0, 0 0 M0 0 C0 0, 0 0, 0 0 M0 0 C0 0, 0 0, 0 0 M0 0 C0 0, 0 0, 0 0 M0 0 C0 0, 0 0, 0 0" stroke="#000000" stroke-width="1" fill="none"></path></g></g><mask></mask><g stroke-linecap="round"><g transform="translate(86.02114830602022 62.794665815820736) rotate(0 0 0)"><path d="M0 0 C0 0, 0 0, 0 0 M0 0 C0 0, 0 0, 0 0" stroke="#000000" stroke-width="1" fill="none"></path></g></g><mask></mask><g stroke-linecap="round"><g transform="translate(105.77212649817739 99.92311589452083) rotate(0 0 -13.901976342089142)" fill-rule="evenodd"><path d="M0 0 L0 0 L-3.03 -0.28 L-5.85 -1.09 L-8.4 -2.36 L-10.62 -4.06 L-12.45 -6.11 L-13.83 -8.48 L-14.7 -11.09 L-15 -13.9 L-14.7 -16.71 L-13.82 -19.33 L-12.42 -21.69 L-10.59 -23.75 L-8.36 -25.44 L-5.81 -26.72 L-3.01 -27.52 L0 -27.8 L3.03 -27.52 L5.85 -26.72 L8.4 -25.44 L10.62 -23.75 L12.45 -21.69 L13.83 -19.33 L14.7 -16.71 L15 -13.9 L14.7 -11.09 L13.82 -8.48 L12.42 -6.11 L10.59 -4.06 L8.36 -2.36 L5.81 -1.09 L3.01 -0.28 L0 0 L0 0" stroke="none" stroke-width="0" fill="#fff" fill-rule="evenodd"></path><path d="M0 0 C0 0, 0 0, 0 0 M0 0 C0 0, 0 0, 0 0 M0 0 C-1.1 -0.1, -2.21 -0.2, -3.03 -0.28 M0 0 C-0.82 -0.08, -1.65 -0.15, -3.03 -0.28 M-3.03 -0.28 C-3.9 -0.53, -4.77 -0.78, -5.85 -1.09 M-3.03 -0.28 C-3.71 -0.47, -4.39 -0.67, -5.85 -1.09 M-5.85 -1.09 C-6.62 -1.47, -7.38 -1.86, -8.4 -2.36 M-5.85 -1.09 C-6.38 -1.35, -6.9 -1.61, -8.4 -2.36 M-8.4 -2.36 C-9.15 -2.94, -9.91 -3.51, -10.62 -4.06 M-8.4 -2.36 C-8.86 -2.71, -9.32 -3.06, -10.62 -4.06 M-10.62 -4.06 C-11.28 -4.8, -11.94 -5.55, -12.45 -6.11 M-10.62 -4.06 C-11.23 -4.74, -11.84 -5.43, -12.45 -6.11 M-12.45 -6.11 C-12.77 -6.67, -13.09 -7.22, -13.83 -8.48 M-12.45 -6.11 C-12.98 -7.03, -13.52 -7.95, -13.83 -8.48 M-13.83 -8.48 C-14.04 -9.13, -14.26 -9.78, -14.7 -11.09 M-13.83 -8.48 C-14.03 -9.09, -14.24 -9.71, -14.7 -11.09 M-14.7 -11.09 C-14.8 -12, -14.9 -12.91, -15 -13.9 M-14.7 -11.09 C-14.78 -11.8, -14.85 -12.51, -15 -13.9 M-15 -13.9 C-14.91 -14.73, -14.82 -15.57, -14.7 -16.71 M-15 -13.9 C-14.92 -14.7, -14.83 -15.5, -14.7 -16.71 M-14.7 -16.71 C-14.41 -17.56, -14.13 -18.41, -13.82 -19.33 M-14.7 -16.71 C-14.43 -17.49, -14.17 -18.28, -13.82 -19.33 M-13.82 -19.33 C-13.29 -20.22, -12.77 -21.11, -12.42 -21.69 M-13.82 -19.33 C-13.35 -20.13, -12.88 -20.92, -12.42 -21.69 M-12.42 -21.69 C-11.99 -22.18, -11.55 -22.67, -10.59 -23.75 M-12.42 -21.69 C-11.75 -22.45, -11.07 -23.21, -10.59 -23.75 M-10.59 -23.75 C-9.7 -24.42, -8.82 -25.09, -8.36 -25.44 M-10.59 -23.75 C-10.04 -24.16, -9.5 -24.57, -8.36 -25.44 M-8.36 -25.44 C-7.72 -25.76, -7.07 -26.09, -5.81 -26.72 M-8.36 -25.44 C-7.48 -25.88, -6.6 -26.32, -5.81 -26.72 M-5.81 -26.72 C-5.24 -26.88, -4.68 -27.04, -3.01 -27.52 M-5.81 -26.72 C-4.85 -26.99, -3.88 -27.27, -3.01 -27.52 M-3.01 -27.52 C-2.27 -27.59, -1.54 -27.66, 0 -27.8 M-3.01 -27.52 C-2.26 -27.59, -1.51 -27.66, 0 -27.8 M0 -27.8 C0.82 -27.73, 1.65 -27.65, 3.03 -27.52 M0 -27.8 C1.1 -27.7, 2.2 -27.6, 3.03 -27.52 M3.03 -27.52 C3.8 -27.3, 4.56 -27.08, 5.85 -26.72 M3.03 -27.52 C3.98 -27.25, 4.92 -26.98, 5.85 -26.72 M5.85 -26.72 C6.41 -26.43, 6.97 -26.15, 8.4 -25.44 M5.85 -26.72 C6.66 -26.31, 7.46 -25.91, 8.4 -25.44 M8.4 -25.44 C9.02 -24.96, 9.65 -24.49, 10.62 -23.75 M8.4 -25.44 C8.85 -25.09, 9.31 -24.74, 10.62 -23.75 M10.62 -23.75 C11.17 -23.13, 11.72 -22.51, 12.45 -21.69 M10.62 -23.75 C11 -23.31, 11.39 -22.88, 12.45 -21.69 M12.45 -21.69 C12.73 -21.21, 13.01 -20.72, 13.83 -19.33 M12.45 -21.69 C12.86 -20.99, 13.26 -20.29, 13.83 -19.33 M13.83 -19.33 C14.09 -18.55, 14.35 -17.76, 14.7 -16.71 M13.83 -19.33 C14.12 -18.44, 14.42 -17.56, 14.7 -16.71 M14.7 -16.71 C14.78 -15.98, 14.86 -15.25, 15 -13.9 M14.7 -16.71 C14.82 -15.64, 14.93 -14.57, 15 -13.9 M15 -13.9 C14.93 -13.23, 14.86 -12.55, 14.7 -11.09 M15 -13.9 C14.89 -12.82, 14.77 -11.74, 14.7 -11.09 M14.7 -11.09 C14.47 -10.43, 14.25 -9.77, 13.82 -8.48 M14.7 -11.09 C14.45 -10.36, 14.2 -9.63, 13.82 -8.48 M13.82 -8.48 C13.42 -7.81, 13.03 -7.15, 12.42 -6.11 M13.82 -8.48 C13.37 -7.72, 12.92 -6.96, 12.42 -6.11 M12.42 -6.11 C11.93 -5.56, 11.43 -5, 10.59 -4.06 M12.42 -6.11 C11.8 -5.41, 11.17 -4.71, 10.59 -4.06 M10.59 -4.06 C10.1 -3.69, 9.61 -3.31, 8.36 -2.36 M10.59 -4.06 C9.9 -3.54, 9.22 -3.02, 8.36 -2.36 M8.36 -2.36 C7.37 -1.87, 6.38 -1.37, 5.81 -1.09 M8.36 -2.36 C7.43 -1.9, 6.5 -1.43, 5.81 -1.09 M5.81 -1.09 C4.73 -0.78, 3.64 -0.46, 3.01 -0.28 M5.81 -1.09 C4.7 -0.77, 3.59 -0.45, 3.01 -0.28 M3.01 -0.28 C1.89 -0.18, 0.77 -0.07, 0 0 M3.01 -0.28 C2.17 -0.2, 1.33 -0.12, 0 0 M0 0 C0 0, 0 0, 0 0 M0 0 C0 0, 0 0, 0 0 M0 0 C0 0, 0 0, 0 0 M0 0 C0 0, 0 0, 0 0" stroke="#000000" stroke-width="1" fill="none"></path></g></g><mask></mask><g stroke-linecap="round"><g transform="translate(129.50721289722424 105.7721352517658) rotate(0 0.25430341335504636 -0.25430924908062025)" fill-rule="evenodd"><path d="M0 0 L0.51 -0.51 L0 0 L0 0" stroke="none" stroke-width="0" fill="#fff" fill-rule="evenodd"></path><path d="M0 0 C0.1 -0.1, 0.21 -0.21, 0.51 -0.51 M0 0 C0.19 -0.19, 0.39 -0.39, 0.51 -0.51 M0.51 -0.51 C0.36 -0.36, 0.22 -0.22, 0 0 M0.51 -0.51 C0.33 -0.33, 0.14 -0.14, 0 0 M0 0 C0 0, 0 0, 0 0 M0 0 C0 0, 0 0, 0 0 M0 0 C0 0, 0 0, 0 0 M0 0 C0 0, 0 0, 0 0" stroke="#000000" stroke-width="1" fill="none"></path></g></g><mask></mask><g stroke-linecap="round"><g transform="translate(131.7959494531451 103.05954994737726) rotate(0 -0.04238487484678899 0.08476974969354956)" fill-rule="evenodd"><path d="M0 0 L0 0 L-0.08 0.17 L0 0 L0 0" stroke="none" stroke-width="0" fill="#fff" fill-rule="evenodd"></path><path d="M0 0 C0 0, 0 0, 0 0 M0 0 C0 0, 0 0, 0 0 M0 0 C-0.03 0.05, -0.05 0.1, -0.08 0.17 M0 0 C-0.03 0.06, -0.06 0.12, -0.08 0.17 M-0.08 0.17 C-0.05 0.11, -0.02 0.04, 0 0 M-0.08 0.17 C-0.06 0.12, -0.03 0.06, 0 0 M0 0 C0 0, 0 0, 0 0 M0 0 C0 0, 0 0, 0 0 M0 0 C0 0, 0 0, 0 0 M0 0 C0 0, 0 0, 0 0" stroke="#000000" stroke-width="1" fill="none"></path></g></g><mask></mask><g stroke-linecap="round"><g transform="translate(130.86349387796713 104.24630310018438) rotate(0 -0.1271429530891055 0.12715462454031012)" fill-rule="evenodd"><path d="M0 0 L-0.25 0.25 L0 0 L0 0" stroke="none" stroke-width="0" fill="#fff" fill-rule="evenodd"></path><path d="M0 0 C-0.08 0.08, -0.16 0.16, -0.25 0.25 M0 0 C-0.06 0.06, -0.12 0.12, -0.25 0.25 M-0.25 0.25 C-0.18 0.18, -0.11 0.11, 0 0 M-0.25 0.25 C-0.19 0.19, -0.12 0.12, 0 0 M0 0 C0 0, 0 0, 0 0 M0 0 C0 0, 0 0, 0 0 M0 0 C0 0, 0 0, 0 0 M0 0 C0 0, 0 0, 0 0" stroke="#000000" stroke-width="1" fill="none"></path></g></g><mask></mask><g stroke-linecap="round"><g transform="translate(105.77212649817739 99.92311589452083) rotate(0 0 -13.901976342089142)" fill-rule="evenodd"><path d="M0 0 L0 0 L-3.03 -0.28 L-5.85 -1.09 L-8.4 -2.36 L-10.62 -4.06 L-12.45 -6.11 L-13.83 -8.48 L-14.7 -11.09 L-15 -13.9 L-14.7 -16.71 L-13.82 -19.33 L-12.42 -21.69 L-10.59 -23.75 L-8.36 -25.44 L-5.81 -26.72 L-3.01 -27.52 L0 -27.8 L3.03 -27.52 L5.85 -26.72 L8.4 -25.44 L10.62 -23.75 L12.45 -21.69 L13.83 -19.33 L14.7 -16.71 L15 -13.9 L14.7 -11.09 L13.82 -8.48 L12.42 -6.11 L10.59 -4.06 L8.36 -2.36 L5.81 -1.09 L3.01 -0.28 L0 0 L0 0" stroke="none" stroke-width="0" fill="#2c75ce" fill-rule="evenodd"></path><path d="M0 0 C0 0, 0 0, 0 0 M0 0 C0 0, 0 0, 0 0 M0 0 C-0.65 -0.06, -1.3 -0.12, -3.03 -0.28 M0 0 C-1.05 -0.1, -2.09 -0.19, -3.03 -0.28 M-3.03 -0.28 C-3.82 -0.51, -4.62 -0.73, -5.85 -1.09 M-3.03 -0.28 C-3.62 -0.45, -4.21 -0.62, -5.85 -1.09 M-5.85 -1.09 C-6.68 -1.5, -7.51 -1.92, -8.4 -2.36 M-5.85 -1.09 C-6.38 -1.35, -6.91 -1.62, -8.4 -2.36 M-8.4 -2.36 C-8.89 -2.74, -9.39 -3.12, -10.62 -4.06 M-8.4 -2.36 C-8.96 -2.79, -9.51 -3.22, -10.62 -4.06 M-10.62 -4.06 C-11.25 -4.76, -11.87 -5.47, -12.45 -6.11 M-10.62 -4.06 C-11.07 -4.57, -11.52 -5.08, -12.45 -6.11 M-12.45 -6.11 C-12.91 -6.91, -13.38 -7.71, -13.83 -8.48 M-12.45 -6.11 C-12.94 -6.96, -13.43 -7.8, -13.83 -8.48 M-13.83 -8.48 C-14.04 -9.11, -14.25 -9.75, -14.7 -11.09 M-13.83 -8.48 C-14.13 -9.38, -14.43 -10.27, -14.7 -11.09 M-14.7 -11.09 C-14.79 -11.88, -14.87 -12.67, -15 -13.9 M-14.7 -11.09 C-14.77 -11.75, -14.84 -12.41, -15 -13.9 M-15 -13.9 C-14.9 -14.86, -14.79 -15.82, -14.7 -16.71 M-15 -13.9 C-14.92 -14.65, -14.84 -15.4, -14.7 -16.71 M-14.7 -16.71 C-14.35 -17.75, -14 -18.78, -13.82 -19.33 M-14.7 -16.71 C-14.4 -17.6, -14.1 -18.49, -13.82 -19.33 M-13.82 -19.33 C-13.29 -20.23, -12.75 -21.13, -12.42 -21.69 M-13.82 -19.33 C-13.3 -20.21, -12.78 -21.1, -12.42 -21.69 M-12.42 -21.69 C-12.04 -22.12, -11.66 -22.55, -10.59 -23.75 M-12.42 -21.69 C-11.76 -22.43, -11.1 -23.17, -10.59 -23.75 M-10.59 -23.75 C-10.03 -24.17, -9.47 -24.59, -8.36 -25.44 M-10.59 -23.75 C-9.89 -24.28, -9.19 -24.81, -8.36 -25.44 M-8.36 -25.44 C-7.5 -25.87, -6.63 -26.31, -5.81 -26.72 M-8.36 -25.44 C-7.53 -25.85, -6.7 -26.27, -5.81 -26.72 M-5.81 -26.72 C-5.06 -26.93, -4.31 -27.15, -3.01 -27.52 M-5.81 -26.72 C-4.92 -26.97, -4.02 -27.23, -3.01 -27.52 M-3.01 -27.52 C-1.85 -27.63, -0.69 -27.74, 0 -27.8 M-3.01 -27.52 C-2.09 -27.61, -1.18 -27.69, 0 -27.8 M0 -27.8 C0.88 -27.72, 1.76 -27.64, 3.03 -27.52 M0 -27.8 C0.97 -27.71, 1.94 -27.62, 3.03 -27.52 M3.03 -27.52 C3.69 -27.34, 4.34 -27.15, 5.85 -26.72 M3.03 -27.52 C3.88 -27.28, 4.74 -27.03, 5.85 -26.72 M5.85 -26.72 C6.38 -26.45, 6.92 -26.18, 8.4 -25.44 M5.85 -26.72 C6.43 -26.42, 7.01 -26.13, 8.4 -25.44 M8.4 -25.44 C9.19 -24.84, 9.98 -24.23, 10.62 -23.75 M8.4 -25.44 C9.22 -24.81, 10.04 -24.19, 10.62 -23.75 M10.62 -23.75 C11.08 -23.22, 11.55 -22.7, 12.45 -21.69 M10.62 -23.75 C11.07 -23.23, 11.53 -22.72, 12.45 -21.69 M12.45 -21.69 C12.88 -20.95, 13.31 -20.21, 13.83 -19.33 M12.45 -21.69 C12.85 -21.01, 13.25 -20.32, 13.83 -19.33 M13.83 -19.33 C14.08 -18.58, 14.33 -17.83, 14.7 -16.71 M13.83 -19.33 C14.15 -18.35, 14.48 -17.38, 14.7 -16.71 M14.7 -16.71 C14.78 -16.01, 14.85 -15.31, 15 -13.9 M14.7 -16.71 C14.79 -15.91, 14.87 -15.1, 15 -13.9 M15 -13.9 C14.91 -13.03, 14.81 -12.16, 14.7 -11.09 M15 -13.9 C14.92 -13.11, 14.83 -12.31, 14.7 -11.09 M14.7 -11.09 C14.35 -10.06, 14 -9.03, 13.82 -8.48 M14.7 -11.09 C14.41 -10.24, 14.12 -9.39, 13.82 -8.48 M13.82 -8.48 C13.32 -7.63, 12.82 -6.79, 12.42 -6.11 M13.82 -8.48 C13.47 -7.89, 13.12 -7.3, 12.42 -6.11 M12.42 -6.11 C11.75 -5.36, 11.08 -4.61, 10.59 -4.06 M12.42 -6.11 C12.04 -5.69, 11.66 -5.26, 10.59 -4.06 M10.59 -4.06 C10.14 -3.72, 9.69 -3.38, 8.36 -2.36 M10.59 -4.06 C10.07 -3.67, 9.56 -3.28, 8.36 -2.36 M8.36 -2.36 C7.69 -2.03, 7.02 -1.69, 5.81 -1.09 M8.36 -2.36 C7.66 -2.01, 6.96 -1.66, 5.81 -1.09 M5.81 -1.09 C5.11 -0.89, 4.41 -0.68, 3.01 -0.28 M5.81 -1.09 C4.75 -0.78, 3.69 -0.48, 3.01 -0.28 M3.01 -0.28 C1.88 -0.18, 0.75 -0.07, 0 0 M3.01 -0.28 C2.07 -0.19, 1.14 -0.11, 0 0 M0 0 C0 0, 0 0, 0 0 M0 0 C0 0, 0 0, 0 0 M0 0 C0 0, 0 0, 0 0 M0 0 C0 0, 0 0, 0 0" stroke="#000000" stroke-width="1" fill="none"></path></g></g><mask></mask><g stroke-linecap="round"><g transform="translate(171.21314775921724 106.78934890518599) rotate(0 0 -21.02250693038357)" fill-rule="evenodd"><path d="M0 0 L0 0 L-1.3 -0.13 L-2.51 -0.51 L-3.6 -1.1 L-4.56 -1.89 L-5.34 -2.84 L-5.94 -3.93 L-6.31 -5.14 L-6.44 -6.44 L-6.44 -35.6 L-6.44 -35.6 L-6.31 -36.9 L-5.94 -38.11 L-5.34 -39.21 L-4.56 -40.16 L-3.6 -40.95 L-2.51 -41.54 L-1.3 -41.91 L0 -42.05 L1.3 -41.91 L2.51 -41.54 L3.6 -40.95 L4.56 -40.16 L5.34 -39.21 L5.94 -38.11 L6.31 -36.9 L6.44 -35.6 L6.44 -6.53 L6.44 -6.53 L6.31 -5.2 L5.94 -3.97 L5.34 -2.86 L4.56 -1.9 L3.6 -1.1 L2.51 -0.51 L1.3 -0.13 L0 0 L0 0" stroke="none" stroke-width="0" fill="#d7d5e7" fill-rule="evenodd"></path><path d="M0 0 C0 0, 0 0, 0 0 M0 0 C0 0, 0 0, 0 0 M0 0 C-0.34 -0.03, -0.67 -0.07, -1.3 -0.13 M0 0 C-0.34 -0.03, -0.69 -0.07, -1.3 -0.13 M-1.3 -0.13 C-1.57 -0.21, -1.84 -0.3, -2.51 -0.51 M-1.3 -0.13 C-1.67 -0.25, -2.04 -0.36, -2.51 -0.51 M-2.51 -0.51 C-2.91 -0.72, -3.32 -0.94, -3.6 -1.1 M-2.51 -0.51 C-2.77 -0.65, -3.02 -0.78, -3.6 -1.1 M-3.6 -1.1 C-3.84 -1.3, -4.08 -1.49, -4.56 -1.89 M-3.6 -1.1 C-3.83 -1.29, -4.05 -1.47, -4.56 -1.89 M-4.56 -1.89 C-4.83 -2.22, -5.11 -2.56, -5.34 -2.84 M-4.56 -1.89 C-4.8 -2.18, -5.04 -2.47, -5.34 -2.84 M-5.34 -2.84 C-5.5 -3.12, -5.65 -3.41, -5.94 -3.93 M-5.34 -2.84 C-5.48 -3.1, -5.62 -3.35, -5.94 -3.93 M-5.94 -3.93 C-6.04 -4.28, -6.15 -4.62, -6.31 -5.14 M-5.94 -3.93 C-6.05 -4.31, -6.17 -4.68, -6.31 -5.14 M-6.31 -5.14 C-6.34 -5.45, -6.37 -5.75, -6.44 -6.44 M-6.31 -5.14 C-6.35 -5.55, -6.39 -5.95, -6.44 -6.44 M-6.44 -6.44 C-6.44 -14.28, -6.44 -22.12, -6.44 -35.6 M-6.44 -6.44 C-6.44 -12.59, -6.44 -18.73, -6.44 -35.6 M-6.44 -35.6 C-6.44 -35.6, -6.44 -35.6, -6.44 -35.6 M-6.44 -35.6 C-6.44 -35.6, -6.44 -35.6, -6.44 -35.6 M-6.44 -35.6 C-6.4 -36.06, -6.35 -36.53, -6.31 -36.9 M-6.44 -35.6 C-6.41 -35.88, -6.39 -36.15, -6.31 -36.9 M-6.31 -36.9 C-6.19 -37.3, -6.06 -37.7, -5.94 -38.11 M-6.31 -36.9 C-6.21 -37.23, -6.11 -37.56, -5.94 -38.11 M-5.94 -38.11 C-5.8 -38.37, -5.66 -38.62, -5.34 -39.21 M-5.94 -38.11 C-5.79 -38.38, -5.64 -38.65, -5.34 -39.21 M-5.34 -39.21 C-5.15 -39.44, -4.95 -39.68, -4.56 -40.16 M-5.34 -39.21 C-5.18 -39.4, -5.02 -39.6, -4.56 -40.16 M-4.56 -40.16 C-4.25 -40.41, -3.94 -40.67, -3.6 -40.95 M-4.56 -40.16 C-4.28 -40.39, -3.99 -40.62, -3.6 -40.95 M-3.6 -40.95 C-3.24 -41.14, -2.88 -41.34, -2.51 -41.54 M-3.6 -40.95 C-3.25 -41.14, -2.9 -41.33, -2.51 -41.54 M-2.51 -41.54 C-2.15 -41.65, -1.79 -41.76, -1.3 -41.91 M-2.51 -41.54 C-2.19 -41.64, -1.88 -41.73, -1.3 -41.91 M-1.3 -41.91 C-0.79 -41.97, -0.28 -42.02, 0 -42.05 M-1.3 -41.91 C-0.97 -41.95, -0.64 -41.98, 0 -42.05 M0 -42.05 C0.46 -42, 0.92 -41.95, 1.3 -41.91 M0 -42.05 C0.38 -42.01, 0.76 -41.97, 1.3 -41.91 M1.3 -41.91 C1.61 -41.82, 1.91 -41.72, 2.51 -41.54 M1.3 -41.91 C1.58 -41.83, 1.85 -41.74, 2.51 -41.54 M2.51 -41.54 C2.88 -41.34, 3.26 -41.13, 3.6 -40.95 M2.51 -41.54 C2.8 -41.38, 3.09 -41.22, 3.6 -40.95 M3.6 -40.95 C3.8 -40.78, 4.01 -40.61, 4.56 -40.16 M3.6 -40.95 C3.95 -40.66, 4.29 -40.38, 4.56 -40.16 M4.56 -40.16 C4.75 -39.93, 4.93 -39.7, 5.34 -39.21 M4.56 -40.16 C4.8 -39.87, 5.04 -39.57, 5.34 -39.21 M5.34 -39.21 C5.55 -38.82, 5.76 -38.43, 5.94 -38.11 M5.34 -39.21 C5.55 -38.83, 5.76 -38.44, 5.94 -38.11 M5.94 -38.11 C6.04 -37.78, 6.14 -37.46, 6.31 -36.9 M5.94 -38.11 C6.04 -37.79, 6.13 -37.47, 6.31 -36.9 M6.31 -36.9 C6.35 -36.56, 6.38 -36.22, 6.44 -35.6 M6.31 -36.9 C6.36 -36.42, 6.41 -35.94, 6.44 -35.6 M6.44 -35.6 C6.44 -24.14, 6.44 -12.67, 6.44 -6.53 M6.44 -35.6 C6.44 -29.09, 6.44 -22.59, 6.44 -6.53 M6.44 -6.53 C6.44 -6.53, 6.44 -6.53, 6.44 -6.53 M6.44 -6.53 C6.44 -6.53, 6.44 -6.53, 6.44 -6.53 M6.44 -6.53 C6.41 -6.25, 6.39 -5.97, 6.31 -5.2 M6.44 -6.53 C6.41 -6.24, 6.39 -5.96, 6.31 -5.2 M6.31 -5.2 C6.19 -4.8, 6.07 -4.4, 5.94 -3.97 M6.31 -5.2 C6.2 -4.84, 6.09 -4.47, 5.94 -3.97 M5.94 -3.97 C5.78 -3.68, 5.63 -3.4, 5.34 -2.86 M5.94 -3.97 C5.76 -3.64, 5.58 -3.31, 5.34 -2.86 M5.34 -2.86 C5.04 -2.49, 4.73 -2.11, 4.56 -1.9 M5.34 -2.86 C5.11 -2.58, 4.88 -2.3, 4.56 -1.9 M4.56 -1.9 C4.26 -1.65, 3.95 -1.4, 3.6 -1.1 M4.56 -1.9 C4.3 -1.69, 4.05 -1.47, 3.6 -1.1 M3.6 -1.1 C3.36 -0.97, 3.13 -0.84, 2.51 -0.51 M3.6 -1.1 C3.25 -0.91, 2.9 -0.72, 2.51 -0.51 M2.51 -0.51 C2.15 -0.39, 1.79 -0.28, 1.3 -0.13 M2.51 -0.51 C2.08 -0.37, 1.65 -0.24, 1.3 -0.13 M1.3 -0.13 C0.86 -0.09, 0.41 -0.04, 0 0 M1.3 -0.13 C0.92 -0.09, 0.54 -0.05, 0 0 M0 0 C0 0, 0 0, 0 0 M0 0 C0 0, 0 0, 0 0 M0 0 C0 0, 0 0, 0 0 M0 0 C0 0, 0 0, 0 0" stroke="#000000" stroke-width="1" fill="none"></path></g></g><mask></mask><g transform="translate(28.283529988310875 168.46285760481965) rotate(0 69.5 19.5)"><text x="69.5" y="0" font-family="Helvetica, Segoe UI Emoji" font-size="34.19428571428574px" fill="#000000" text-anchor="middle" style="white-space: pre;" direction="ltr" dominant-baseline="text-before-edge">Vault API</text></g></svg>