<svg xmlns="http://www.w3.org/2000/svg" viewBox="-201.96 26.85 172.00 84.00" width="172" height="84"><rect x="-195.96" y="32.85" width="160.00" height="72.00" rx="0" stroke="#4285f4" stroke-width="2" opacity="1.0" fill="#FFF"/><text x="-130.96" y="59.85" font-size="12" fill="#000000" opacity="1.0" font-family="sans-serif">Network
Connectivity
Center</text><polyline points="-163.46,58.89 -163.46,54.74 -163.46,54.74 -163.67,54.75 -163.88,54.78 -164.08,54.84 -164.27,54.91 -164.45,54.99 -164.62,55.10 -164.78,55.22 -164.93,55.35 -165.06,55.50 -165.18,55.66 -165.29,55.83 -165.37,56.01 -165.45,56.20 -165.50,56.40 -165.53,56.61 -165.54,56.82 -165.53,57.03 -165.50,57.24 -165.45,57.44 -165.37,57.63 -165.29,57.81 -165.18,57.98 -165.06,58.14 -164.93,58.29 -164.78,58.42 -164.62,58.54 -164.45,58.64 -164.27,58.73 -164.08,58.80 -163.88,58.85 -163.67,58.88 -163.46,58.89 -163.46,58.89" fill="none" stroke="#00000000" stroke-width="1" opacity="1.0" stroke-linecap="round" stroke-linejoin="round"/><polyline points="-161.38,56.81 -161.38,56.81 -161.40,56.60 -161.43,56.40 -161.48,56.20 -161.55,56.01 -161.63,55.83 -161.74,55.66 -161.86,55.50 -161.99,55.35 -162.14,55.21 -162.30,55.09 -162.47,54.99 -162.65,54.90 -162.84,54.83 -163.04,54.78 -163.24,54.75 -163.46,54.74 -163.46,58.89 -163.46,58.89 -163.24,58.88 -163.04,58.84 -162.84,58.79 -162.65,58.72 -162.47,58.64 -162.30,58.53 -162.14,58.41 -161.99,58.28 -161.86,58.13 -161.74,57.97 -161.63,57.80 -161.55,57.62 -161.48,57.43 -161.43,57.23 -161.40,57.03 -161.38,56.81 -161.38,56.81" fill="none" stroke="#00000000" stroke-width="1" opacity="1.0" stroke-linecap="round" stroke-linejoin="round"/><polyline points="-170.61,61.90 -170.61,61.90 -170.47,61.74 -170.35,61.58 -170.24,61.41 -170.16,61.22 -170.09,61.03 -170.04,60.84 -170.01,60.64 -170.00,60.43 -170.01,60.23 -170.04,60.03 -170.09,59.83 -170.16,59.64 -170.24,59.46 -170.35,59.28 -170.47,59.12 -170.61,58.97 -170.76,58.83 -170.92,58.71 -171.08,58.61 -171.26,58.52 -171.45,58.46 -171.64,58.41 -171.83,58.37 -172.03,58.36 -172.03,62.50 -172.03,62.50 -171.84,62.49 -171.65,62.46 -171.46,62.41 -171.27,62.34 -171.10,62.26 -170.92,62.16 -170.76,62.04 -170.61,61.90 -170.61,61.90" fill="none" stroke="#00000000" stroke-width="1" opacity="1.0" stroke-linecap="round" stroke-linejoin="round"/><polyline points="-172.08,62.50 -172.04,62.50 -172.04,58.36 -172.08,58.36 -172.08,58.36 -172.28,58.37 -172.49,58.40 -172.68,58.45 -172.87,58.52 -173.05,58.60 -173.23,58.71 -173.39,58.83 -173.54,58.97 -173.68,59.12 -173.80,59.29 -173.90,59.46 -173.99,59.64 -174.06,59.83 -174.11,60.03 -174.14,60.23 -174.15,60.43 -174.14,60.64 -174.11,60.84 -174.06,61.04 -173.99,61.23 -173.91,61.41 -173.80,61.58 -173.68,61.75 -173.54,61.90 -173.38,62.04 -173.22,62.16 -173.04,62.27 -172.86,62.35 -172.67,62.42 -172.47,62.47 -172.28,62.50 -172.08,62.50 -172.08,62.50" fill="none" stroke="#00000000" stroke-width="1" opacity="1.0" stroke-linecap="round" stroke-linejoin="round"/><polyline points="-175.65,66.93 -175.65,66.93 -175.86,66.94 -176.07,66.97 -176.27,67.02 -176.46,67.09 -176.64,67.18 -176.81,67.28 -176.97,67.40 -177.12,67.54 -177.25,67.69 -177.37,67.84 -177.47,68.02 -177.56,68.20 -177.63,68.39 -177.68,68.59 -177.72,68.79 -177.73,69.01 -177.72,69.22 -177.68,69.42 -177.63,69.62 -177.56,69.81 -177.48,70.00 -177.37,70.17 -177.25,70.33 -177.12,70.47 -176.97,70.61 -176.81,70.73 -176.64,70.83 -176.46,70.92 -176.27,70.99 -176.07,71.04 -175.86,71.07 -175.65,71.08 -175.57,71.08 -175.57,66.94 -175.57,66.94 -175.61,66.93 -175.65,66.93 -175.65,66.93" fill="none" stroke="#00000000" stroke-width="1" opacity="1.0" stroke-linecap="round" stroke-linejoin="round"/><polyline points="-173.57,69.00 -173.57,69.00 -173.58,68.79 -173.61,68.59 -173.66,68.40 -173.73,68.21 -173.81,68.03 -173.91,67.87 -174.03,67.71 -174.15,67.56 -174.30,67.43 -174.45,67.31 -174.62,67.20 -174.79,67.11 -174.97,67.04 -175.17,66.98 -175.37,66.95 -175.57,66.93 -175.57,71.07 -175.57,71.07 -175.37,71.06 -175.17,71.02 -174.98,70.97 -174.79,70.89 -174.62,70.80 -174.45,70.70 -174.30,70.58 -174.16,70.44 -174.03,70.30 -173.91,70.14 -173.81,69.97 -173.73,69.79 -173.66,69.60 -173.61,69.41 -173.58,69.21 -173.57,69.00 -173.57,69.00" fill="none" stroke="#00000000" stroke-width="1" opacity="1.0" stroke-linecap="round" stroke-linejoin="round"/><polyline points="-173.50,76.15 -173.50,76.15 -173.64,76.31 -173.76,76.47 -173.87,76.64 -173.95,76.82 -174.02,77.01 -174.07,77.21 -174.10,77.41 -174.11,77.62 -174.10,77.82 -174.07,78.02 -174.02,78.22 -173.95,78.41 -173.87,78.59 -173.76,78.77 -173.64,78.93 -173.50,79.08 -173.35,79.22 -173.19,79.34 -173.02,79.44 -172.84,79.53 -172.65,79.60 -172.46,79.65 -172.26,79.68 -172.06,79.69 -172.06,75.54 -172.06,75.54 -172.26,75.55 -172.46,75.58 -172.65,75.64 -172.84,75.70 -173.02,75.79 -173.19,75.89 -173.35,76.01 -173.50,76.15 -173.50,76.15" fill="none" stroke="#00000000" stroke-width="1" opacity="1.0" stroke-linecap="round" stroke-linejoin="round"/><polyline points="-172.03,75.54 -172.06,75.54 -172.06,79.69 -172.03,79.69 -172.03,79.69 -171.82,79.68 -171.62,79.65 -171.42,79.61 -171.24,79.54 -171.05,79.45 -170.88,79.35 -170.72,79.23 -170.57,79.09 -170.42,78.93 -170.30,78.76 -170.20,78.59 -170.11,78.40 -170.05,78.21 -170.00,78.02 -169.97,77.82 -169.96,77.62 -169.97,77.42 -170.00,77.22 -170.05,77.03 -170.11,76.84 -170.20,76.65 -170.30,76.48 -170.42,76.31 -170.57,76.15 -170.72,76.01 -170.88,75.89 -171.06,75.79 -171.24,75.70 -171.43,75.63 -171.62,75.58 -171.83,75.55 -172.03,75.54 -172.03,75.54" fill="none" stroke="#00000000" stroke-width="1" opacity="1.0" stroke-linecap="round" stroke-linejoin="round"/><polyline points="-163.42,79.12 -163.42,83.27 -163.42,83.27 -163.20,83.25 -163.00,83.22 -162.80,83.17 -162.61,83.10 -162.43,83.01 -162.26,82.91 -162.10,82.79 -161.95,82.66 -161.82,82.51 -161.70,82.35 -161.60,82.18 -161.51,82.00 -161.44,81.81 -161.39,81.61 -161.36,81.41 -161.35,81.19 -161.36,80.98 -161.39,80.78 -161.44,80.58 -161.51,80.39 -161.60,80.21 -161.70,80.04 -161.82,79.88 -161.95,79.73 -162.10,79.60 -162.26,79.48 -162.43,79.37 -162.61,79.28 -162.80,79.21 -163.00,79.16 -163.20,79.13 -163.42,79.12 -163.42,79.12" fill="none" stroke="#00000000" stroke-width="1" opacity="1.0" stroke-linecap="round" stroke-linejoin="round"/><polyline points="-163.42,79.12 -163.42,79.12 -163.63,79.13 -163.84,79.16 -164.04,79.21 -164.23,79.28 -164.41,79.37 -164.58,79.47 -164.74,79.59 -164.89,79.73 -165.02,79.87 -165.14,80.03 -165.25,80.20 -165.33,80.39 -165.40,80.58 -165.46,80.78 -165.49,80.98 -165.50,81.19 -165.49,81.41 -165.46,81.61 -165.40,81.81 -165.33,82.00 -165.25,82.18 -165.14,82.36 -165.02,82.52 -164.89,82.66 -164.74,82.80 -164.58,82.92 -164.41,83.02 -164.23,83.11 -164.04,83.18 -163.84,83.23 -163.63,83.26 -163.42,83.27 -163.42,83.27 -163.42,79.12 -163.42,79.12 -163.42,79.12 -163.42,79.12" fill="none" stroke="#00000000" stroke-width="1" opacity="1.0" stroke-linecap="round" stroke-linejoin="round"/><polyline points="-154.78,75.53 -154.78,75.53 -154.99,75.54 -155.19,75.57 -155.39,75.62 -155.58,75.69 -155.76,75.78 -155.93,75.88 -156.09,76.00 -156.24,76.14 -156.38,76.29 -156.51,76.46 -156.61,76.63 -156.70,76.81 -156.76,77.00 -156.81,77.20 -156.84,77.40 -156.85,77.61 -156.84,77.81 -156.81,78.01 -156.76,78.21 -156.70,78.40 -156.61,78.58 -156.51,78.76 -156.38,78.92 -156.24,79.07 -156.09,79.21 -155.93,79.33 -155.75,79.44 -155.57,79.52 -155.38,79.59 -155.19,79.64 -154.99,79.67 -154.78,79.68 -154.78,79.68 -154.78,75.53 -154.78,75.53 -154.78,75.53 -154.78,75.53" fill="none" stroke="#00000000" stroke-width="1" opacity="1.0" stroke-linecap="round" stroke-linejoin="round"/><polyline points="-154.78,75.53 -154.78,79.68 -154.78,79.68 -154.57,79.67 -154.37,79.64 -154.17,79.59 -153.98,79.53 -153.80,79.44 -153.63,79.33 -153.47,79.21 -153.32,79.08 -153.18,78.92 -153.05,78.76 -152.95,78.59 -152.86,78.40 -152.80,78.21 -152.75,78.02 -152.72,77.82 -152.71,77.61 -152.72,77.41 -152.75,77.20 -152.80,77.01 -152.86,76.82 -152.95,76.64 -153.05,76.46 -153.18,76.30 -153.32,76.15 -153.47,76.01 -153.63,75.88 -153.80,75.78 -153.98,75.69 -154.17,75.62 -154.37,75.57 -154.57,75.54 -154.78,75.53 -154.78,75.53" fill="none" stroke="#00000000" stroke-width="1" opacity="1.0" stroke-linecap="round" stroke-linejoin="round"/><polyline points="-151.27,66.89 -151.27,66.89 -151.49,66.90 -151.69,66.93 -151.89,66.98 -152.08,67.05 -152.26,67.14 -152.43,67.24 -152.59,67.36 -152.74,67.50 -152.88,67.64 -153.00,67.80 -153.10,67.98 -153.19,68.16 -153.26,68.35 -153.31,68.55 -153.34,68.75 -153.35,68.97 -153.34,69.18 -153.31,69.38 -153.26,69.58 -153.19,69.77 -153.10,69.95 -153.00,70.13 -152.88,70.29 -152.74,70.43 -152.60,70.57 -152.44,70.69 -152.26,70.79 -152.08,70.88 -151.89,70.95 -151.69,71.00 -151.49,71.03 -151.27,71.04 -151.24,71.04 -151.24,66.89 -151.24,66.89 -151.27,66.89 -151.27,66.89" fill="none" stroke="#00000000" stroke-width="1" opacity="1.0" stroke-linecap="round" stroke-linejoin="round"/><polyline points="-149.20,68.97 -149.20,68.97 -149.21,68.76 -149.24,68.55 -149.29,68.36 -149.36,68.17 -149.44,67.99 -149.54,67.82 -149.66,67.66 -149.79,67.51 -149.94,67.38 -150.09,67.26 -150.26,67.16 -150.44,67.07 -150.63,67.00 -150.82,66.94 -151.02,66.91 -151.23,66.89 -151.23,71.04 -151.23,71.04 -151.03,71.03 -150.82,70.99 -150.63,70.94 -150.44,70.87 -150.26,70.78 -150.10,70.67 -149.94,70.55 -149.79,70.42 -149.66,70.27 -149.55,70.11 -149.44,69.94 -149.36,69.76 -149.29,69.57 -149.24,69.38 -149.21,69.17 -149.20,68.97 -149.20,68.97" fill="none" stroke="#00000000" stroke-width="1" opacity="1.0" stroke-linecap="round" stroke-linejoin="round"/><polyline points="-153.35,61.82 -153.35,61.82 -153.20,61.66 -153.08,61.49 -152.98,61.31 -152.89,61.13 -152.83,60.94 -152.78,60.74 -152.75,60.55 -152.74,60.35 -152.75,60.15 -152.78,59.95 -152.83,59.76 -152.89,59.57 -152.98,59.38 -153.08,59.21 -153.20,59.04 -153.35,58.88 -153.50,58.74 -153.66,58.62 -153.83,58.52 -154.01,58.43 -154.20,58.37 -154.39,58.32 -154.59,58.29 -154.80,58.27 -154.80,62.42 -154.80,62.42 -154.59,62.41 -154.39,62.38 -154.20,62.33 -154.01,62.26 -153.83,62.18 -153.66,62.07 -153.50,61.95 -153.35,61.82 -153.35,61.82" fill="none" stroke="#00000000" stroke-width="1" opacity="1.0" stroke-linecap="round" stroke-linejoin="round"/><polyline points="-154.81,62.42 -154.80,62.42 -154.80,58.27 -154.81,58.27 -154.81,58.27 -155.02,58.28 -155.22,58.31 -155.42,58.36 -155.61,58.43 -155.79,58.52 -155.96,58.62 -156.12,58.74 -156.28,58.88 -156.41,59.03 -156.53,59.20 -156.64,59.37 -156.72,59.55 -156.79,59.74 -156.84,59.94 -156.87,60.14 -156.88,60.35 -156.87,60.55 -156.84,60.75 -156.79,60.95 -156.73,61.14 -156.64,61.32 -156.54,61.50 -156.41,61.66 -156.28,61.81 -156.12,61.95 -155.96,62.07 -155.79,62.18 -155.61,62.27 -155.42,62.33 -155.22,62.38 -155.02,62.41 -154.81,62.42 -154.81,62.42" fill="none" stroke="#00000000" stroke-width="1" opacity="1.0" stroke-linecap="round" stroke-linejoin="round"/><polyline points="-163.98,58.55 -162.87,58.55 -162.87,60.70 -163.98,60.70 -163.98,58.55" fill="none" stroke="#00000000" stroke-width="1" opacity="1.0" stroke-linecap="round" stroke-linejoin="round"/><polyline points="-171.26,62.00 -170.48,61.22 -168.96,62.74 -169.73,63.52 -171.26,62.00" fill="none" stroke="#00000000" stroke-width="1" opacity="1.0" stroke-linecap="round" stroke-linejoin="round"/><polyline points="-173.97,69.59 -173.97,68.49 -171.81,68.49 -171.81,69.59 -173.97,69.59" fill="none" stroke="#00000000" stroke-width="1" opacity="1.0" stroke-linecap="round" stroke-linejoin="round"/><polyline points="-170.52,76.87 -171.30,76.09 -169.77,74.56 -168.99,75.34 -170.52,76.87" fill="none" stroke="#00000000" stroke-width="1" opacity="1.0" stroke-linecap="round" stroke-linejoin="round"/><polyline points="-162.93,79.58 -164.04,79.58 -164.04,77.43 -162.93,77.43 -162.93,79.58" fill="none" stroke="#00000000" stroke-width="1" opacity="1.0" stroke-linecap="round" stroke-linejoin="round"/><polyline points="-155.65,76.13 -156.43,76.91 -157.95,75.38 -157.17,74.61 -155.65,76.13" fill="none" stroke="#00000000" stroke-width="1" opacity="1.0" stroke-linecap="round" stroke-linejoin="round"/><polyline points="-152.94,68.54 -152.94,69.64 -155.10,69.64 -155.10,68.54 -152.94,68.54" fill="none" stroke="#00000000" stroke-width="1" opacity="1.0" stroke-linecap="round" stroke-linejoin="round"/><polyline points="-156.39,61.26 -155.61,62.04 -157.13,63.56 -157.91,62.78 -156.39,61.26" fill="none" stroke="#00000000" stroke-width="1" opacity="1.0" stroke-linecap="round" stroke-linejoin="round"/><ellipse cx="-163.46" cy="56.81" rx="1.06" ry="1.06" stroke="transparent" stroke-width="1" opacity="1.0" fill="#fff"/><ellipse cx="-172.08" cy="60.43" rx="1.06" ry="1.06" stroke="transparent" stroke-width="1" opacity="1.0" fill="#fff"/><ellipse cx="-175.65" cy="69.00" rx="1.06" ry="1.06" stroke="transparent" stroke-width="1" opacity="1.0" fill="#fff"/><ellipse cx="-172.03" cy="77.62" rx="1.06" ry="1.06" stroke="transparent" stroke-width="1" opacity="1.0" fill="#fff"/><ellipse cx="-163.42" cy="81.19" rx="1.06" ry="1.06" stroke="transparent" stroke-width="1" opacity="1.0" fill="#fff"/><ellipse cx="-154.78" cy="77.61" rx="1.06" ry="1.06" stroke="transparent" stroke-width="1" opacity="1.0" fill="#fff"/><ellipse cx="-151.27" cy="68.97" rx="1.06" ry="1.06" stroke="transparent" stroke-width="1" opacity="1.0" fill="#fff"/><ellipse cx="-154.81" cy="60.35" rx="1.06" ry="1.06" stroke="transparent" stroke-width="1" opacity="1.0" fill="#fff"/><ellipse cx="-163.46" cy="68.99" rx="8.66" ry="8.66" stroke="transparent" stroke-width="1" opacity="1.0" fill="#679df6"/><ellipse cx="-163.46" cy="68.99" rx="7.51" ry="7.51" stroke="transparent" stroke-width="1" opacity="1.0" fill="#fff"/><polyline points="-163.46,63.19 -163.47,63.19 -163.47,74.78 -163.46,74.78 -163.46,74.78 -163.16,74.78 -162.86,74.75 -162.57,74.72 -162.29,74.67 -162.01,74.60 -161.73,74.52 -161.46,74.43 -161.20,74.33 -160.94,74.21 -160.69,74.09 -160.45,73.95 -160.22,73.79 -159.99,73.63 -159.77,73.46 -159.56,73.28 -159.36,73.09 -159.17,72.89 -158.98,72.68 -158.81,72.46 -158.65,72.23 -158.50,71.99 -158.36,71.75 -158.23,71.50 -158.11,71.24 -158.01,70.98 -157.92,70.71 -157.84,70.44 -157.78,70.16 -157.73,69.87 -157.69,69.58 -157.67,69.28 -157.66,68.99 -157.67,68.69 -157.69,68.39 -157.73,68.10 -157.78,67.82 -157.84,67.54 -157.92,67.26 -158.01,66.99 -158.11,66.73 -158.23,66.47 -158.36,66.22 -158.50,65.98 -158.65,65.75 -158.81,65.52 -158.98,65.30 -159.17,65.09 -159.36,64.89 -159.56,64.70 -159.77,64.51 -159.99,64.34 -160.22,64.18 -160.45,64.03 -160.69,63.89 -160.94,63.76 -161.20,63.65 -161.46,63.54 -161.73,63.45 -162.01,63.38 -162.29,63.31 -162.57,63.26 -162.86,63.22 -163.16,63.20 -163.46,63.19 -163.46,63.19" fill="none" stroke="#00000000" stroke-width="1" opacity="1.0" stroke-linecap="round" stroke-linejoin="round"/><polyline points="-169.25,68.99 -169.25,68.99 -169.24,69.28 -169.22,69.58 -169.18,69.87 -169.13,70.15 -169.07,70.43 -168.99,70.71 -168.90,70.98 -168.79,71.24 -168.68,71.50 -168.55,71.74 -168.41,71.99 -168.26,72.22 -168.10,72.45 -167.93,72.67 -167.75,72.88 -167.56,73.08 -167.36,73.27 -167.15,73.45 -166.93,73.63 -166.70,73.79 -166.47,73.94 -166.22,74.08 -165.97,74.21 -165.72,74.32 -165.46,74.43 -165.19,74.52 -164.91,74.60 -164.63,74.66 -164.35,74.71 -164.06,74.75 -163.76,74.78 -163.47,74.78 -163.47,63.19 -163.47,63.19 -163.76,63.20 -164.06,63.22 -164.35,63.26 -164.63,63.31 -164.91,63.38 -165.19,63.46 -165.46,63.55 -165.72,63.65 -165.97,63.77 -166.22,63.90 -166.47,64.04 -166.70,64.19 -166.93,64.35 -167.15,64.52 -167.36,64.70 -167.56,64.89 -167.75,65.10 -167.93,65.31 -168.10,65.52 -168.26,65.75 -168.41,65.99 -168.55,66.23 -168.68,66.48 -168.79,66.73 -168.90,67.00 -168.99,67.27 -169.07,67.54 -169.13,67.82 -169.18,68.11 -169.22,68.39 -169.24,68.69 -169.25,68.99 -169.25,68.99" fill="none" stroke="#00000000" stroke-width="1" opacity="1.0" stroke-linecap="round" stroke-linejoin="round"/><polyline points="-166.51,66.52 -163.47,66.52 -163.47,67.68 -166.51,67.68 -166.51,66.52" fill="none" stroke="#00000000" stroke-width="1" opacity="1.0" stroke-linecap="round" stroke-linejoin="round"/><polyline points="-163.47,66.52 -160.35,66.52 -160.35,67.68 -163.47,67.68 -163.47,66.52" fill="none" stroke="#00000000" stroke-width="1" opacity="1.0" stroke-linecap="round" stroke-linejoin="round"/><polyline points="-166.51,68.52 -163.47,68.52 -163.47,69.68 -166.51,69.68 -166.51,68.52" fill="none" stroke="#00000000" stroke-width="1" opacity="1.0" stroke-linecap="round" stroke-linejoin="round"/><polyline points="-163.47,68.52 -160.35,68.52 -160.35,69.68 -163.47,69.68 -163.47,68.52" fill="none" stroke="#00000000" stroke-width="1" opacity="1.0" stroke-linecap="round" stroke-linejoin="round"/><polyline points="-166.51,70.52 -163.47,70.52 -163.47,71.68 -166.51,71.68 -166.51,70.52" fill="none" stroke="#00000000" stroke-width="1" opacity="1.0" stroke-linecap="round" stroke-linejoin="round"/><polyline points="-163.47,70.52 -160.35,70.52 -160.35,71.68 -163.47,71.68 -163.47,70.52" fill="none" stroke="#00000000" stroke-width="1" opacity="1.0" stroke-linecap="round" stroke-linejoin="round"/></svg>