<svg version="1.1" xmlns="http://www.w3.org/2000/svg" viewBox="0 0 249.14348739341847 285.22834031148386" width="249.14348739341847" height="285.22834031148386">
  <!-- svg-source:excalidraw -->
  
  <defs>
    
    
  </defs>
  <g stroke-linecap="round"><g transform="translate(149.52171035176445 137.34831196111645) rotate(0 -61.17768370557269 10.930464179523256)" fill-rule="evenodd"><path d="M0 0 L21.17 21.17 L-25 58.38 L-143.52 -36.52 L-68.91 -36.52 L-68.91 -36.52 L-68.85 -34.26 L-68.68 -32.03 L-68.4 -29.84 L-68.02 -27.67 L-67.53 -25.55 L-66.93 -23.47 L-66.24 -21.43 L-65.46 -19.44 L-64.58 -17.49 L-63.61 -15.6 L-62.55 -13.76 L-61.41 -11.98 L-60.18 -10.26 L-58.88 -8.6 L-57.5 -7 L-56.05 -5.48 L-54.52 -4.02 L-52.93 -2.64 L-51.27 -1.34 L-49.55 -0.12 L-47.77 1.03 L-45.93 2.08 L-44.03 3.05 L-42.09 3.93 L-40.1 4.72 L-38.06 5.41 L-35.97 6 L-33.85 6.49 L-31.69 6.88 L-29.49 7.16 L-27.26 7.33 L-25 7.38 L-21.68 7.29 L-18.39 6.95 L-15.15 6.37 L-11.95 5.56 L-8.83 4.51 L-5.79 3.23 L-2.84 1.73 L0 0 L0 0" stroke="none" stroke-width="0" fill="#669df6" fill-rule="evenodd"></path><path d="M0 0 C6.18 6.18, 12.35 12.35, 21.17 21.17 M0 0 C8.2 8.2, 16.41 16.41, 21.17 21.17 M21.17 21.17 C6.02 33.37, -9.12 45.58, -25 58.38 M21.17 21.17 C2.87 35.92, -15.43 50.67, -25 58.38 M-25 58.38 C-70.87 21.66, -116.73 -15.07, -143.52 -36.52 M-25 58.38 C-50.63 37.87, -76.25 17.35, -143.52 -36.52 M-143.52 -36.52 C-115.68 -36.52, -87.84 -36.52, -68.91 -36.52 M-143.52 -36.52 C-120.11 -36.52, -96.7 -36.52, -68.91 -36.52 M-68.91 -36.52 C-68.91 -36.52, -68.91 -36.52, -68.91 -36.52 M-68.91 -36.52 C-68.91 -36.52, -68.91 -36.52, -68.91 -36.52 M-68.91 -36.52 C-68.89 -35.81, -68.87 -35.09, -68.85 -34.26 M-68.91 -36.52 C-68.89 -35.92, -68.88 -35.31, -68.85 -34.26 M-68.85 -34.26 C-68.82 -33.79, -68.78 -33.32, -68.68 -32.03 M-68.85 -34.26 C-68.82 -33.8, -68.78 -33.34, -68.68 -32.03 M-68.68 -32.03 C-68.59 -31.33, -68.5 -30.63, -68.4 -29.84 M-68.68 -32.03 C-68.6 -31.42, -68.53 -30.8, -68.4 -29.84 M-68.4 -29.84 C-68.29 -29.2, -68.18 -28.56, -68.02 -27.67 M-68.4 -29.84 C-68.25 -29, -68.1 -28.16, -68.02 -27.67 M-68.02 -27.67 C-67.9 -27.17, -67.78 -26.66, -67.53 -25.55 M-68.02 -27.67 C-67.89 -27.12, -67.76 -26.57, -67.53 -25.55 M-67.53 -25.55 C-67.31 -24.8, -67.1 -24.05, -66.93 -23.47 M-67.53 -25.55 C-67.31 -24.79, -67.09 -24.03, -66.93 -23.47 M-66.93 -23.47 C-66.72 -22.82, -66.5 -22.17, -66.24 -21.43 M-66.93 -23.47 C-66.73 -22.85, -66.52 -22.24, -66.24 -21.43 M-66.24 -21.43 C-66.02 -20.87, -65.8 -20.3, -65.46 -19.44 M-66.24 -21.43 C-66.01 -20.85, -65.78 -20.26, -65.46 -19.44 M-65.46 -19.44 C-65.21 -18.88, -64.96 -18.33, -64.58 -17.49 M-65.46 -19.44 C-65.12 -18.68, -64.78 -17.93, -64.58 -17.49 M-64.58 -17.49 C-64.31 -16.97, -64.05 -16.45, -63.61 -15.6 M-64.58 -17.49 C-64.24 -16.82, -63.89 -16.15, -63.61 -15.6 M-63.61 -15.6 C-63.33 -15.11, -63.05 -14.63, -62.55 -13.76 M-63.61 -15.6 C-63.31 -15.08, -63.02 -14.57, -62.55 -13.76 M-62.55 -13.76 C-62.11 -13.07, -61.66 -12.37, -61.41 -11.98 M-62.55 -13.76 C-62.24 -13.28, -61.94 -12.8, -61.41 -11.98 M-61.41 -11.98 C-61.09 -11.53, -60.77 -11.08, -60.18 -10.26 M-61.41 -11.98 C-61.12 -11.57, -60.84 -11.17, -60.18 -10.26 M-60.18 -10.26 C-59.9 -9.89, -59.61 -9.53, -58.88 -8.6 M-60.18 -10.26 C-59.67 -9.6, -59.15 -8.94, -58.88 -8.6 M-58.88 -8.6 C-58.5 -8.15, -58.11 -7.71, -57.5 -7 M-58.88 -8.6 C-58.48 -8.14, -58.09 -7.68, -57.5 -7 M-57.5 -7 C-56.93 -6.4, -56.36 -5.8, -56.05 -5.48 M-57.5 -7 C-57.16 -6.65, -56.82 -6.29, -56.05 -5.48 M-56.05 -5.48 C-55.74 -5.18, -55.43 -4.89, -54.52 -4.02 M-56.05 -5.48 C-55.49 -4.95, -54.93 -4.42, -54.52 -4.02 M-54.52 -4.02 C-54.07 -3.63, -53.62 -3.24, -52.93 -2.64 M-54.52 -4.02 C-54.03 -3.6, -53.54 -3.18, -52.93 -2.64 M-52.93 -2.64 C-52.41 -2.24, -51.9 -1.84, -51.27 -1.34 M-52.93 -2.64 C-52.3 -2.15, -51.68 -1.66, -51.27 -1.34 M-51.27 -1.34 C-50.75 -0.97, -50.24 -0.61, -49.55 -0.12 M-51.27 -1.34 C-50.79 -1, -50.3 -0.65, -49.55 -0.12 M-49.55 -0.12 C-48.89 0.3, -48.24 0.72, -47.77 1.03 M-49.55 -0.12 C-48.98 0.25, -48.42 0.61, -47.77 1.03 M-47.77 1.03 C-47.05 1.44, -46.34 1.84, -45.93 2.08 M-47.77 1.03 C-47.29 1.3, -46.81 1.58, -45.93 2.08 M-45.93 2.08 C-45.3 2.4, -44.67 2.73, -44.03 3.05 M-45.93 2.08 C-45.23 2.44, -44.53 2.8, -44.03 3.05 M-44.03 3.05 C-43.38 3.35, -42.73 3.64, -42.09 3.93 M-44.03 3.05 C-43.49 3.3, -42.95 3.55, -42.09 3.93 M-42.09 3.93 C-41.6 4.12, -41.12 4.32, -40.1 4.72 M-42.09 3.93 C-41.69 4.09, -41.29 4.25, -40.1 4.72 M-40.1 4.72 C-39.55 4.9, -39 5.09, -38.06 5.41 M-40.1 4.72 C-39.66 4.87, -39.22 5.01, -38.06 5.41 M-38.06 5.41 C-37.35 5.61, -36.65 5.81, -35.97 6 M-38.06 5.41 C-37.5 5.57, -36.94 5.73, -35.97 6 M-35.97 6 C-35.22 6.17, -34.47 6.35, -33.85 6.49 M-35.97 6 C-35.39 6.14, -34.82 6.27, -33.85 6.49 M-33.85 6.49 C-33.12 6.62, -32.39 6.75, -31.69 6.88 M-33.85 6.49 C-33.19 6.61, -32.53 6.73, -31.69 6.88 M-31.69 6.88 C-31.04 6.96, -30.4 7.04, -29.49 7.16 M-31.69 6.88 C-31.03 6.96, -30.37 7.05, -29.49 7.16 M-29.49 7.16 C-28.7 7.22, -27.92 7.28, -27.26 7.33 M-29.49 7.16 C-28.95 7.2, -28.4 7.24, -27.26 7.33 M-27.26 7.33 C-26.74 7.34, -26.21 7.35, -25 7.38 M-27.26 7.33 C-26.63 7.34, -26 7.36, -25 7.38 M-25 7.38 C-23.73 7.35, -22.45 7.31, -21.68 7.29 M-25 7.38 C-24.03 7.36, -23.05 7.33, -21.68 7.29 M-21.68 7.29 C-20.85 7.2, -20.02 7.12, -18.39 6.95 M-21.68 7.29 C-20.94 7.21, -20.2 7.14, -18.39 6.95 M-18.39 6.95 C-17.67 6.82, -16.94 6.69, -15.15 6.37 M-18.39 6.95 C-17.58 6.8, -16.76 6.66, -15.15 6.37 M-15.15 6.37 C-14.26 6.15, -13.38 5.92, -11.95 5.56 M-15.15 6.37 C-14.21 6.13, -13.28 5.9, -11.95 5.56 M-11.95 5.56 C-10.87 5.19, -9.79 4.83, -8.83 4.51 M-11.95 5.56 C-11.33 5.35, -10.7 5.13, -8.83 4.51 M-8.83 4.51 C-7.72 4.04, -6.62 3.58, -5.79 3.23 M-8.83 4.51 C-8.01 4.17, -7.2 3.82, -5.79 3.23 M-5.79 3.23 C-5.14 2.9, -4.49 2.57, -2.84 1.73 M-5.79 3.23 C-5.16 2.91, -4.53 2.59, -2.84 1.73 M-2.84 1.73 C-2.23 1.36, -1.62 0.99, 0 0 M-2.84 1.73 C-2.05 1.24, -1.25 0.76, 0 0 M0 0 C0 0, 0 0, 0 0 M0 0 C0 0, 0 0, 0 0 M0 0 C0 0, 0 0, 0 0 M0 0 C0 0, 0 0, 0 0" stroke="#000000" stroke-width="1" fill="none"></path></g></g><mask></mask><g stroke-linecap="round"><g transform="translate(168.42153737375668 100.82814438558489) rotate(0 33.85152975003757 23.469415986527338)" fill-rule="evenodd"><path d="M0 0 L0 0 L-0.1 3.17 L-0.43 6.31 L-0.99 9.41 L-1.77 12.46 L-2.76 15.45 L-3.97 18.36 L-5.39 21.18 L-7.02 23.91 L15.79 46.94 L74.72 0 L0 0 L0 0" stroke="none" stroke-width="0" fill="#669df6" fill-rule="evenodd"></path><path d="M0 0 C0 0, 0 0, 0 0 M0 0 C0 0, 0 0, 0 0 M0 0 C-0.03 0.91, -0.06 1.82, -0.1 3.17 M0 0 C-0.02 0.74, -0.05 1.49, -0.1 3.17 M-0.1 3.17 C-0.22 4.27, -0.33 5.38, -0.43 6.31 M-0.1 3.17 C-0.17 3.83, -0.24 4.49, -0.43 6.31 M-0.43 6.31 C-0.57 7.05, -0.7 7.8, -0.99 9.41 M-0.43 6.31 C-0.62 7.34, -0.8 8.38, -0.99 9.41 M-0.99 9.41 C-1.21 10.27, -1.43 11.13, -1.77 12.46 M-0.99 9.41 C-1.16 10.09, -1.34 10.76, -1.77 12.46 M-1.77 12.46 C-2.14 13.57, -2.51 14.67, -2.76 15.45 M-1.77 12.46 C-1.99 13.12, -2.21 13.77, -2.76 15.45 M-2.76 15.45 C-3.2 16.51, -3.64 17.56, -3.97 18.36 M-2.76 15.45 C-3.06 16.17, -3.36 16.89, -3.97 18.36 M-3.97 18.36 C-4.51 19.42, -5.04 20.48, -5.39 21.18 M-3.97 18.36 C-4.48 19.36, -4.99 20.37, -5.39 21.18 M-5.39 21.18 C-6 22.2, -6.61 23.22, -7.02 23.91 M-5.39 21.18 C-6.01 22.22, -6.63 23.26, -7.02 23.91 M-7.02 23.91 C-0.54 30.45, 5.93 36.98, 15.79 46.94 M-7.02 23.91 C-0.34 30.65, 6.34 37.4, 15.79 46.94 M15.79 46.94 C37.88 29.35, 59.96 11.76, 74.72 0 M15.79 46.94 C30.77 35.01, 45.74 23.09, 74.72 0 M74.72 0 C47.5 0, 20.28 0, 0 0 M74.72 0 C47.14 0, 19.56 0, 0 0 M0 0 C0 0, 0 0, 0 0 M0 0 C0 0, 0 0, 0 0 M0 0 C0 0, 0 0, 0 0 M0 0 C0 0, 0 0, 0 0" stroke="#000000" stroke-width="1" fill="none"></path></g></g><mask></mask><g stroke-linecap="round"><g transform="translate(124.51690800578046 6) rotate(0 -0.05483569092865537 47.41407219279188)" fill-rule="evenodd"><path d="M0 0 L-118.52 94.83 L-43.9 94.83 L-43.9 94.83 L-43.85 92.57 L-43.68 90.34 L-43.4 88.14 L-43.01 85.98 L-42.52 83.86 L-41.93 81.78 L-41.24 79.74 L-40.45 77.74 L-39.57 75.8 L-38.6 73.91 L-37.55 72.07 L-36.4 70.29 L-35.18 68.56 L-33.88 66.91 L-32.5 65.31 L-31.04 63.79 L-29.52 62.33 L-27.92 60.95 L-26.26 59.65 L-24.54 58.42 L-22.76 57.28 L-20.92 56.22 L-19.03 55.25 L-17.09 54.38 L-15.09 53.59 L-13.05 52.9 L-10.97 52.31 L-8.85 51.82 L-6.68 51.43 L-4.49 51.15 L-2.26 50.98 L0 50.92 L2.26 50.98 L4.49 51.15 L6.68 51.43 L8.85 51.82 L10.97 52.31 L13.05 52.9 L15.09 53.59 L17.09 54.38 L19.03 55.25 L20.92 56.22 L22.76 57.28 L24.54 58.42 L26.26 59.65 L27.92 60.95 L29.52 62.33 L31.04 63.79 L32.5 65.31 L33.88 66.91 L35.18 68.56 L36.4 70.29 L37.55 72.07 L38.6 73.91 L39.57 75.8 L40.45 77.74 L41.24 79.74 L41.93 81.78 L42.52 83.86 L43.01 85.98 L43.4 88.14 L43.68 90.34 L43.85 92.57 L43.9 94.83 L118.41 94.83 L0 0 L0 0" stroke="none" stroke-width="0" fill="#aecbfa" fill-rule="evenodd"></path><path d="M0 0 C-31.68 25.35, -63.37 50.7, -118.52 94.83 M0 0 C-47.03 37.63, -94.07 75.27, -118.52 94.83 M-118.52 94.83 C-92.41 94.83, -66.31 94.83, -43.9 94.83 M-118.52 94.83 C-99.07 94.83, -79.61 94.83, -43.9 94.83 M-43.9 94.83 C-43.9 94.83, -43.9 94.83, -43.9 94.83 M-43.9 94.83 C-43.9 94.83, -43.9 94.83, -43.9 94.83 M-43.9 94.83 C-43.89 94.34, -43.88 93.86, -43.85 92.57 M-43.9 94.83 C-43.89 94.25, -43.88 93.67, -43.85 92.57 M-43.85 92.57 C-43.8 91.96, -43.75 91.35, -43.68 90.34 M-43.85 92.57 C-43.8 91.92, -43.75 91.27, -43.68 90.34 M-43.68 90.34 C-43.6 89.76, -43.53 89.19, -43.4 88.14 M-43.68 90.34 C-43.6 89.71, -43.52 89.08, -43.4 88.14 M-43.4 88.14 C-43.28 87.51, -43.17 86.87, -43.01 85.98 M-43.4 88.14 C-43.27 87.42, -43.14 86.69, -43.01 85.98 M-43.01 85.98 C-42.84 85.25, -42.67 84.51, -42.52 83.86 M-43.01 85.98 C-42.86 85.34, -42.72 84.7, -42.52 83.86 M-42.52 83.86 C-42.4 83.42, -42.27 82.98, -41.93 81.78 M-42.52 83.86 C-42.39 83.4, -42.26 82.94, -41.93 81.78 M-41.93 81.78 C-41.69 81.05, -41.44 80.33, -41.24 79.74 M-41.93 81.78 C-41.66 80.99, -41.39 80.2, -41.24 79.74 M-41.24 79.74 C-41.03 79.2, -40.82 78.67, -40.45 77.74 M-41.24 79.74 C-40.95 79.02, -40.67 78.29, -40.45 77.74 M-40.45 77.74 C-40.17 77.13, -39.9 76.51, -39.57 75.8 M-40.45 77.74 C-40.22 77.24, -39.99 76.73, -39.57 75.8 M-39.57 75.8 C-39.28 75.23, -38.99 74.66, -38.6 73.91 M-39.57 75.8 C-39.23 75.12, -38.88 74.44, -38.6 73.91 M-38.6 73.91 C-38.28 73.35, -37.96 72.79, -37.55 72.07 M-38.6 73.91 C-38.2 73.21, -37.8 72.51, -37.55 72.07 M-37.55 72.07 C-37.27 71.64, -37 71.22, -36.4 70.29 M-37.55 72.07 C-37.2 71.53, -36.86 71, -36.4 70.29 M-36.4 70.29 C-36.01 69.74, -35.63 69.19, -35.18 68.56 M-36.4 70.29 C-36.11 69.88, -35.82 69.47, -35.18 68.56 M-35.18 68.56 C-34.67 67.91, -34.16 67.26, -33.88 66.91 M-35.18 68.56 C-34.84 68.14, -34.51 67.71, -33.88 66.91 M-33.88 66.91 C-33.59 66.57, -33.3 66.24, -32.5 65.31 M-33.88 66.91 C-33.52 66.49, -33.16 66.08, -32.5 65.31 M-32.5 65.31 C-31.96 64.75, -31.43 64.19, -31.04 63.79 M-32.5 65.31 C-31.93 64.72, -31.37 64.13, -31.04 63.79 M-31.04 63.79 C-30.49 63.26, -29.93 62.73, -29.52 62.33 M-31.04 63.79 C-30.56 63.33, -30.09 62.88, -29.52 62.33 M-29.52 62.33 C-28.95 61.84, -28.38 61.35, -27.92 60.95 M-29.52 62.33 C-29.14 62, -28.76 61.68, -27.92 60.95 M-27.92 60.95 C-27.58 60.68, -27.24 60.42, -26.26 59.65 M-27.92 60.95 C-27.27 60.44, -26.61 59.92, -26.26 59.65 M-26.26 59.65 C-25.85 59.36, -25.44 59.06, -24.54 58.42 M-26.26 59.65 C-25.85 59.36, -25.45 59.07, -24.54 58.42 M-24.54 58.42 C-24.01 58.08, -23.48 57.74, -22.76 57.28 M-24.54 58.42 C-23.93 58.03, -23.32 57.64, -22.76 57.28 M-22.76 57.28 C-22.23 56.98, -21.7 56.67, -20.92 56.22 M-22.76 57.28 C-22.39 57.07, -22.01 56.85, -20.92 56.22 M-20.92 56.22 C-20.46 55.99, -20 55.75, -19.03 55.25 M-20.92 56.22 C-20.3 55.91, -19.68 55.59, -19.03 55.25 M-19.03 55.25 C-18.52 55.02, -18 54.79, -17.09 54.38 M-19.03 55.25 C-18.57 55.05, -18.11 54.84, -17.09 54.38 M-17.09 54.38 C-16.32 54.07, -15.55 53.77, -15.09 53.59 M-17.09 54.38 C-16.37 54.09, -15.66 53.81, -15.09 53.59 M-15.09 53.59 C-14.45 53.37, -13.81 53.15, -13.05 52.9 M-15.09 53.59 C-14.63 53.43, -14.17 53.28, -13.05 52.9 M-13.05 52.9 C-12.43 52.72, -11.8 52.54, -10.97 52.31 M-13.05 52.9 C-12.26 52.67, -11.48 52.45, -10.97 52.31 M-10.97 52.31 C-10.38 52.17, -9.8 52.04, -8.85 51.82 M-10.97 52.31 C-10.23 52.14, -9.49 51.97, -8.85 51.82 M-8.85 51.82 C-8.17 51.69, -7.49 51.57, -6.68 51.43 M-8.85 51.82 C-8.05 51.67, -7.26 51.53, -6.68 51.43 M-6.68 51.43 C-5.85 51.32, -5.02 51.22, -4.49 51.15 M-6.68 51.43 C-5.9 51.33, -5.11 51.23, -4.49 51.15 M-4.49 51.15 C-3.64 51.09, -2.79 51.02, -2.26 50.98 M-4.49 51.15 C-3.95 51.11, -3.42 51.07, -2.26 50.98 M-2.26 50.98 C-1.5 50.96, -0.75 50.94, 0 50.92 M-2.26 50.98 C-1.57 50.96, -0.87 50.95, 0 50.92 M0 50.92 C0.46 50.94, 0.91 50.95, 2.26 50.98 M0 50.92 C0.78 50.94, 1.57 50.96, 2.26 50.98 M2.26 50.98 C2.82 51.02, 3.38 51.07, 4.49 51.15 M2.26 50.98 C2.76 51.02, 3.26 51.06, 4.49 51.15 M4.49 51.15 C5.18 51.24, 5.86 51.33, 6.68 51.43 M4.49 51.15 C5.32 51.26, 6.15 51.36, 6.68 51.43 M6.68 51.43 C7.38 51.55, 8.09 51.68, 8.85 51.82 M6.68 51.43 C7.18 51.52, 7.67 51.61, 8.85 51.82 M8.85 51.82 C9.67 52.01, 10.5 52.2, 10.97 52.31 M8.85 51.82 C9.39 51.94, 9.94 52.07, 10.97 52.31 M10.97 52.31 C11.67 52.5, 12.36 52.7, 13.05 52.9 M10.97 52.31 C11.43 52.44, 11.89 52.57, 13.05 52.9 M13.05 52.9 C13.77 53.14, 14.48 53.38, 15.09 53.59 M13.05 52.9 C13.54 53.06, 14.04 53.23, 15.09 53.59 M15.09 53.59 C15.8 53.87, 16.51 54.15, 17.09 54.38 M15.09 53.59 C15.88 53.9, 16.67 54.21, 17.09 54.38 M17.09 54.38 C17.56 54.59, 18.04 54.81, 19.03 55.25 M17.09 54.38 C17.53 54.57, 17.97 54.77, 19.03 55.25 M19.03 55.25 C19.5 55.49, 19.96 55.73, 20.92 56.22 M19.03 55.25 C19.65 55.57, 20.27 55.89, 20.92 56.22 M20.92 56.22 C21.6 56.62, 22.28 57.01, 22.76 57.28 M20.92 56.22 C21.37 56.48, 21.82 56.74, 22.76 57.28 M22.76 57.28 C23.4 57.69, 24.05 58.11, 24.54 58.42 M22.76 57.28 C23.25 57.6, 23.75 57.91, 24.54 58.42 M24.54 58.42 C25.16 58.86, 25.77 59.3, 26.26 59.65 M24.54 58.42 C25.17 58.87, 25.79 59.31, 26.26 59.65 M26.26 59.65 C26.66 59.96, 27.05 60.26, 27.92 60.95 M26.26 59.65 C26.75 60.03, 27.23 60.41, 27.92 60.95 M27.92 60.95 C28.36 61.33, 28.8 61.71, 29.52 62.33 M27.92 60.95 C28.53 61.48, 29.15 62.01, 29.52 62.33 M29.52 62.33 C29.98 62.77, 30.44 63.21, 31.04 63.79 M29.52 62.33 C29.98 62.78, 30.44 63.22, 31.04 63.79 M31.04 63.79 C31.54 64.31, 32.03 64.82, 32.5 65.31 M31.04 63.79 C31.55 64.32, 32.05 64.84, 32.5 65.31 M32.5 65.31 C33.01 65.91, 33.53 66.51, 33.88 66.91 M32.5 65.31 C32.82 65.69, 33.15 66.07, 33.88 66.91 M33.88 66.91 C34.39 67.56, 34.91 68.22, 35.18 68.56 M33.88 66.91 C34.17 67.28, 34.47 67.66, 35.18 68.56 M35.18 68.56 C35.62 69.19, 36.06 69.81, 36.4 70.29 M35.18 68.56 C35.54 69.07, 35.9 69.57, 36.4 70.29 M36.4 70.29 C36.67 70.71, 36.94 71.13, 37.55 72.07 M36.4 70.29 C36.67 70.7, 36.94 71.12, 37.55 72.07 M37.55 72.07 C37.93 72.73, 38.31 73.39, 38.6 73.91 M37.55 72.07 C37.83 72.55, 38.1 73.04, 38.6 73.91 M38.6 73.91 C38.88 74.45, 39.16 74.99, 39.57 75.8 M38.6 73.91 C38.91 74.5, 39.21 75.1, 39.57 75.8 M39.57 75.8 C39.88 76.48, 40.19 77.16, 40.45 77.74 M39.57 75.8 C39.77 76.24, 39.98 76.69, 40.45 77.74 M40.45 77.74 C40.7 78.37, 40.94 78.99, 41.24 79.74 M40.45 77.74 C40.65 78.25, 40.85 78.76, 41.24 79.74 M41.24 79.74 C41.45 80.37, 41.67 81.01, 41.93 81.78 M41.24 79.74 C41.41 80.24, 41.58 80.75, 41.93 81.78 M41.93 81.78 C42.12 82.45, 42.31 83.12, 42.52 83.86 M41.93 81.78 C42.15 82.55, 42.37 83.32, 42.52 83.86 M42.52 83.86 C42.67 84.5, 42.82 85.15, 43.01 85.98 M42.52 83.86 C42.66 84.44, 42.79 85.02, 43.01 85.98 M43.01 85.98 C43.11 86.54, 43.21 87.1, 43.4 88.14 M43.01 85.98 C43.1 86.45, 43.18 86.92, 43.4 88.14 M43.4 88.14 C43.5 88.98, 43.61 89.81, 43.68 90.34 M43.4 88.14 C43.47 88.67, 43.53 89.2, 43.68 90.34 M43.68 90.34 C43.73 91.03, 43.78 91.71, 43.85 92.57 M43.68 90.34 C43.73 90.97, 43.77 91.6, 43.85 92.57 M43.85 92.57 C43.86 93.2, 43.88 93.83, 43.9 94.83 M43.85 92.57 C43.87 93.4, 43.89 94.23, 43.9 94.83 M43.9 94.83 C72.99 94.83, 102.07 94.83, 118.41 94.83 M43.9 94.83 C66.15 94.83, 88.4 94.83, 118.41 94.83 M118.41 94.83 C78.72 63.05, 39.04 31.27, 0 0 M118.41 94.83 C87.25 69.88, 56.09 44.92, 0 0 M0 0 C0 0, 0 0, 0 0 M0 0 C0 0, 0 0, 0 0 M0 0 C0 0, 0 0, 0 0 M0 0 C0 0, 0 0, 0 0" stroke="#000000" stroke-width="1" fill="none"></path></g></g><mask></mask><g stroke-linecap="round"><g transform="translate(124.51690800578092 74.14173366427622) rotate(0 -0.018278563642866175 26.62929264490117)" fill-rule="evenodd"><path d="M0 0 L0 0 L2.63 0.12 L5.21 0.49 L7.73 1.12 L10.17 1.99 L12.51 3.1 L14.73 4.44 L16.82 6 L18.75 7.79 L20.58 9.77 L22.17 11.88 L23.52 14.11 L24.63 16.43 L25.49 18.83 L26.12 21.29 L26.51 23.79 L26.66 26.32 L26.57 28.84 L26.23 31.35 L25.66 33.83 L24.84 36.25 L23.78 38.6 L22.48 40.86 L20.94 43.01 L19.16 45.04 L18.75 45.44 L18.75 45.44 L16.75 47.27 L14.61 48.85 L12.36 50.19 L10.02 51.29 L7.6 52.14 L5.12 52.76 L2.6 53.13 L0.07 53.26 L-2.47 53.15 L-4.98 52.79 L-7.46 52.2 L-9.89 51.36 L-12.23 50.28 L-14.49 48.96 L-16.63 47.39 L-18.64 45.59 L-18.79 45.44 L-18.79 45.44 L-20.62 43.46 L-22.21 41.35 L-23.55 39.12 L-24.66 36.8 L-25.53 34.4 L-26.16 31.93 L-26.55 29.43 L-26.7 26.91 L-26.6 24.38 L-26.27 21.87 L-25.69 19.4 L-24.88 16.98 L-23.82 14.62 L-22.52 12.36 L-20.98 10.21 L-19.19 8.19 L-18.79 7.79 L-18.79 7.79 L-16.84 6.01 L-14.75 4.45 L-12.52 3.11 L-10.18 2 L-7.73 1.13 L-5.21 0.5 L-2.63 0.12 L0 0 L0 0" stroke="none" stroke-width="0" fill="#4285f4" fill-rule="evenodd"></path><path d="M0 0 C0 0, 0 0, 0 0 M0 0 C0 0, 0 0, 0 0 M0 0 C0.79 0.04, 1.57 0.07, 2.63 0.12 M0 0 C0.94 0.04, 1.88 0.08, 2.63 0.12 M2.63 0.12 C3.65 0.27, 4.68 0.41, 5.21 0.49 M2.63 0.12 C3.33 0.22, 4.03 0.32, 5.21 0.49 M5.21 0.49 C5.75 0.63, 6.29 0.76, 7.73 1.12 M5.21 0.49 C5.92 0.67, 6.62 0.84, 7.73 1.12 M7.73 1.12 C8.62 1.43, 9.51 1.75, 10.17 1.99 M7.73 1.12 C8.38 1.35, 9.04 1.58, 10.17 1.99 M10.17 1.99 C10.99 2.38, 11.81 2.76, 12.51 3.1 M10.17 1.99 C10.79 2.28, 11.41 2.57, 12.51 3.1 M12.51 3.1 C13.11 3.46, 13.7 3.81, 14.73 4.44 M12.51 3.1 C12.96 3.37, 13.41 3.64, 14.73 4.44 M14.73 4.44 C15.15 4.75, 15.57 5.06, 16.82 6 M14.73 4.44 C15.49 5, 16.24 5.57, 16.82 6 M16.82 6 C17.42 6.56, 18.03 7.12, 18.75 7.79 M16.82 6 C17.46 6.59, 18.1 7.18, 18.75 7.79 M18.75 7.79 C19.21 8.28, 19.66 8.77, 20.58 9.77 M18.75 7.79 C19.22 8.3, 19.69 8.81, 20.58 9.77 M20.58 9.77 C20.95 10.26, 21.32 10.75, 22.17 11.88 M20.58 9.77 C21.21 10.61, 21.85 11.45, 22.17 11.88 M22.17 11.88 C22.52 12.46, 22.88 13.05, 23.52 14.11 M22.17 11.88 C22.68 12.72, 23.19 13.56, 23.52 14.11 M23.52 14.11 C23.74 14.58, 23.97 15.06, 24.63 16.43 M23.52 14.11 C23.89 14.89, 24.27 15.67, 24.63 16.43 M24.63 16.43 C24.97 17.38, 25.31 18.33, 25.49 18.83 M24.63 16.43 C24.96 17.36, 25.3 18.3, 25.49 18.83 M25.49 18.83 C25.71 19.66, 25.92 20.49, 26.12 21.29 M25.49 18.83 C25.73 19.74, 25.96 20.65, 26.12 21.29 M26.12 21.29 C26.24 22.02, 26.35 22.74, 26.51 23.79 M26.12 21.29 C26.24 22.03, 26.35 22.77, 26.51 23.79 M26.51 23.79 C26.57 24.74, 26.62 25.68, 26.66 26.32 M26.51 23.79 C26.56 24.57, 26.6 25.35, 26.66 26.32 M26.66 26.32 C26.62 27.25, 26.59 28.18, 26.57 28.84 M26.66 26.32 C26.63 27.17, 26.6 28.03, 26.57 28.84 M26.57 28.84 C26.43 29.84, 26.3 30.84, 26.23 31.35 M26.57 28.84 C26.48 29.47, 26.4 30.1, 26.23 31.35 M26.23 31.35 C26.03 32.2, 25.84 33.05, 25.66 33.83 M26.23 31.35 C26.06 32.1, 25.88 32.85, 25.66 33.83 M25.66 33.83 C25.39 34.62, 25.13 35.41, 24.84 36.25 M25.66 33.83 C25.42 34.53, 25.18 35.23, 24.84 36.25 M24.84 36.25 C24.51 36.99, 24.18 37.72, 23.78 38.6 M24.84 36.25 C24.62 36.74, 24.4 37.23, 23.78 38.6 M23.78 38.6 C23.51 39.08, 23.24 39.55, 22.48 40.86 M23.78 38.6 C23.52 39.06, 23.26 39.52, 22.48 40.86 M22.48 40.86 C22.08 41.42, 21.68 41.98, 20.94 43.01 M22.48 40.86 C22.15 41.33, 21.81 41.8, 20.94 43.01 M20.94 43.01 C20.33 43.7, 19.73 44.39, 19.16 45.04 M20.94 43.01 C20.31 43.73, 19.67 44.45, 19.16 45.04 M19.16 45.04 C19.01 45.18, 18.87 45.32, 18.75 45.44 M19.16 45.04 C19.02 45.17, 18.89 45.3, 18.75 45.44 M18.75 45.44 C18.75 45.44, 18.75 45.44, 18.75 45.44 M18.75 45.44 C18.75 45.44, 18.75 45.44, 18.75 45.44 M18.75 45.44 C18.25 45.9, 17.74 46.36, 16.75 47.27 M18.75 45.44 C18.19 45.95, 17.63 46.46, 16.75 47.27 M16.75 47.27 C16.17 47.7, 15.59 48.13, 14.61 48.85 M16.75 47.27 C16.32 47.58, 15.89 47.9, 14.61 48.85 M14.61 48.85 C13.72 49.38, 12.83 49.91, 12.36 50.19 M14.61 48.85 C14.05 49.18, 13.49 49.52, 12.36 50.19 M12.36 50.19 C11.58 50.55, 10.8 50.92, 10.02 51.29 M12.36 50.19 C11.72 50.49, 11.07 50.79, 10.02 51.29 M10.02 51.29 C9.27 51.55, 8.52 51.82, 7.6 52.14 M10.02 51.29 C9.16 51.59, 8.3 51.89, 7.6 52.14 M7.6 52.14 C6.72 52.36, 5.84 52.58, 5.12 52.76 M7.6 52.14 C6.73 52.36, 5.86 52.57, 5.12 52.76 M5.12 52.76 C4.34 52.87, 3.57 52.99, 2.6 53.13 M5.12 52.76 C4.23 52.89, 3.35 53.02, 2.6 53.13 M2.6 53.13 C1.83 53.17, 1.05 53.21, 0.07 53.26 M2.6 53.13 C1.99 53.16, 1.38 53.19, 0.07 53.26 M0.07 53.26 C-0.92 53.21, -1.91 53.17, -2.47 53.15 M0.07 53.26 C-0.78 53.22, -1.63 53.18, -2.47 53.15 M-2.47 53.15 C-3.46 53.01, -4.45 52.87, -4.98 52.79 M-2.47 53.15 C-3.34 53.02, -4.22 52.9, -4.98 52.79 M-4.98 52.79 C-5.83 52.59, -6.68 52.38, -7.46 52.2 M-4.98 52.79 C-5.57 52.65, -6.16 52.51, -7.46 52.2 M-7.46 52.2 C-8.32 51.9, -9.18 51.6, -9.89 51.36 M-7.46 52.2 C-8.34 51.89, -9.23 51.59, -9.89 51.36 M-9.89 51.36 C-10.44 51.1, -10.99 50.85, -12.23 50.28 M-9.89 51.36 C-10.67 51, -11.46 50.63, -12.23 50.28 M-12.23 50.28 C-13.07 49.79, -13.9 49.3, -14.49 48.96 M-12.23 50.28 C-13.06 49.79, -13.89 49.3, -14.49 48.96 M-14.49 48.96 C-15.19 48.45, -15.88 47.94, -16.63 47.39 M-14.49 48.96 C-15.21 48.43, -15.93 47.9, -16.63 47.39 M-16.63 47.39 C-17.33 46.76, -18.03 46.14, -18.64 45.59 M-16.63 47.39 C-17.3 46.8, -17.96 46.2, -18.64 45.59 M-18.64 45.59 C-18.7 45.53, -18.75 45.48, -18.79 45.44 M-18.64 45.59 C-18.69 45.54, -18.73 45.5, -18.79 45.44 M-18.79 45.44 C-18.79 45.44, -18.79 45.44, -18.79 45.44 M-18.79 45.44 C-18.79 45.44, -18.79 45.44, -18.79 45.44 M-18.79 45.44 C-19.25 44.94, -19.72 44.43, -20.62 43.46 M-18.79 45.44 C-19.34 44.84, -19.89 44.25, -20.62 43.46 M-20.62 43.46 C-21.13 42.77, -21.65 42.08, -22.21 41.35 M-20.62 43.46 C-21.01 42.94, -21.4 42.42, -22.21 41.35 M-22.21 41.35 C-22.53 40.82, -22.85 40.29, -23.55 39.12 M-22.21 41.35 C-22.72 40.49, -23.24 39.64, -23.55 39.12 M-23.55 39.12 C-23.92 38.35, -24.29 37.58, -24.66 36.8 M-23.55 39.12 C-23.87 38.46, -24.19 37.79, -24.66 36.8 M-24.66 36.8 C-24.93 36.06, -25.19 35.33, -25.53 34.4 M-24.66 36.8 C-24.85 36.29, -25.03 35.79, -25.53 34.4 M-25.53 34.4 C-25.73 33.63, -25.92 32.87, -26.16 31.93 M-25.53 34.4 C-25.69 33.78, -25.85 33.16, -26.16 31.93 M-26.16 31.93 C-26.29 31.07, -26.43 30.21, -26.55 29.43 M-26.16 31.93 C-26.31 30.96, -26.46 29.99, -26.55 29.43 M-26.55 29.43 C-26.6 28.54, -26.65 27.64, -26.7 26.91 M-26.55 29.43 C-26.59 28.79, -26.62 28.15, -26.7 26.91 M-26.7 26.91 C-26.67 26.33, -26.65 25.76, -26.6 24.38 M-26.7 26.91 C-26.66 25.98, -26.63 25.06, -26.6 24.38 M-26.6 24.38 C-26.5 23.65, -26.41 22.91, -26.27 21.87 M-26.6 24.38 C-26.5 23.63, -26.4 22.88, -26.27 21.87 M-26.27 21.87 C-26.09 21.1, -25.91 20.32, -25.69 19.4 M-26.27 21.87 C-26.08 21.06, -25.89 20.25, -25.69 19.4 M-25.69 19.4 C-25.38 18.46, -25.06 17.51, -24.88 16.98 M-25.69 19.4 C-25.38 18.47, -25.07 17.55, -24.88 16.98 M-24.88 16.98 C-24.51 16.16, -24.14 15.34, -23.82 14.62 M-24.88 16.98 C-24.56 16.27, -24.25 15.57, -23.82 14.62 M-23.82 14.62 C-23.5 14.07, -23.19 13.53, -22.52 12.36 M-23.82 14.62 C-23.32 13.77, -22.83 12.91, -22.52 12.36 M-22.52 12.36 C-21.97 11.59, -21.42 10.83, -20.98 10.21 M-22.52 12.36 C-22.15 11.84, -21.77 11.33, -20.98 10.21 M-20.98 10.21 C-20.46 9.62, -19.94 9.03, -19.19 8.19 M-20.98 10.21 C-20.32 9.47, -19.67 8.73, -19.19 8.19 M-19.19 8.19 C-19.05 8.04, -18.9 7.9, -18.79 7.79 M-19.19 8.19 C-19.05 8.04, -18.9 7.9, -18.79 7.79 M-18.79 7.79 C-18.79 7.79, -18.79 7.79, -18.79 7.79 M-18.79 7.79 C-18.79 7.79, -18.79 7.79, -18.79 7.79 M-18.79 7.79 C-18.28 7.32, -17.77 6.85, -16.84 6.01 M-18.79 7.79 C-18.02 7.09, -17.26 6.39, -16.84 6.01 M-16.84 6.01 C-16.23 5.56, -15.62 5.1, -14.75 4.45 M-16.84 6.01 C-16.15 5.5, -15.46 4.98, -14.75 4.45 M-14.75 4.45 C-13.97 3.99, -13.2 3.52, -12.52 3.11 M-14.75 4.45 C-14.02 4.01, -13.29 3.57, -12.52 3.11 M-12.52 3.11 C-11.59 2.67, -10.67 2.23, -10.18 2 M-12.52 3.11 C-11.83 2.79, -11.14 2.46, -10.18 2 M-10.18 2 C-9.22 1.66, -8.26 1.32, -7.73 1.13 M-10.18 2 C-9.5 1.76, -8.82 1.51, -7.73 1.13 M-7.73 1.13 C-6.74 0.88, -5.74 0.63, -5.21 0.5 M-7.73 1.13 C-7.18 0.99, -6.62 0.85, -5.21 0.5 M-5.21 0.5 C-4.29 0.36, -3.38 0.23, -2.63 0.12 M-5.21 0.5 C-4.68 0.42, -4.15 0.34, -2.63 0.12 M-2.63 0.12 C-2.08 0.09, -1.53 0.07, 0 0 M-2.63 0.12 C-2.04 0.09, -1.46 0.07, 0 0 M0 0 C0 0, 0 0, 0 0 M0 0 C0 0, 0 0, 0 0 M0 0 C0 0, 0 0, 0 0 M0 0 C0 0, 0 0, 0 0" stroke="#000000" stroke-width="1" fill="none"></path></g></g><mask></mask><g transform="translate(16.601518970302777 203.22834031148386) rotate(0 107.49999999999994 38)"><text x="107.5" y="0" font-family="Helvetica, Segoe UI Emoji" font-size="33.4285714285714px" fill="#000000" text-anchor="middle" style="white-space: pre;" direction="ltr" dominant-baseline="text-before-edge">Vision Product</text><text x="107.5" y="38" font-family="Helvetica, Segoe UI Emoji" font-size="33.4285714285714px" fill="#000000" text-anchor="middle" style="white-space: pre;" direction="ltr" dominant-baseline="text-before-edge">Search</text></g></svg>