<svg version="1.1" xmlns="http://www.w3.org/2000/svg" viewBox="0 0 172 84" width="172" height="84">
  <!-- svg-source:excalidraw -->
  
  <defs>
    
    
  </defs>
  <g stroke-linecap="round" transform="translate(6 6) rotate(0 80 36)"><path d="M18 0 C65.93 0, 113.85 0, 142 0 C154 0, 160 6, 160 18 C160 31.62, 160 45.25, 160 54 C160 66, 154 72, 142 72 C95.56 72, 49.12 72, 18 72 C6 72, 0 66, 0 54 C0 42.64, 0 31.28, 0 18 C0 6, 6 0, 18 0" stroke="none" stroke-width="0" fill="#FFF"></path><path d="M18 0 C45.28 0, 72.56 0, 142 0 M18 0 C61.29 0, 104.58 0, 142 0 M142 0 C154 0, 160 6, 160 18 M142 0 C154 0, 160 6, 160 18 M160 18 C160 32.22, 160 46.43, 160 54 M160 18 C160 29.7, 160 41.4, 160 54 M160 54 C160 66, 154 72, 142 72 M160 54 C160 66, 154 72, 142 72 M142 72 C114.25 72, 86.49 72, 18 72 M142 72 C104.91 72, 67.81 72, 18 72 M18 72 C6 72, 0 66, 0 54 M18 72 C6 72, 0 66, 0 54 M0 54 C0 45, 0 35.99, 0 18 M0 54 C0 39.64, 0 25.27, 0 18 M0 18 C0 6, 6 0, 18 0 M0 18 C0 6, 6 0, 18 0" stroke="#4285f4" stroke-width="2" fill="none"></path></g><g transform="translate(71.00000000000023 35) rotate(0 24.5 7)"><text x="0" y="0" font-family="Helvetica, Segoe UI Emoji" font-size="12px" fill="#000000" text-anchor="start" style="white-space: pre;" direction="ltr" dominant-baseline="text-before-edge">Vault API</text></g><g stroke-linecap="round"><g transform="translate(51.03679655331075 28.922943830490112) rotate(0 -12.709957003593445 13.000865578651428)" fill-rule="evenodd"><path d="M0 0 L-22.9 0 L-22.9 0 L-23.38 0.05 L-23.84 0.19 L-24.25 0.41 L-24.6 0.71 L-24.9 1.06 L-25.12 1.47 L-25.26 1.92 L-25.31 2.41 L-25.31 4.81 L-27.33 4.81 L-27.33 4.81 L-27.53 4.85 L-27.68 4.95 L-27.79 5.11 L-27.83 5.31 L-27.83 9.67 L-27.83 9.67 L-27.79 9.86 L-27.68 10.02 L-27.53 10.13 L-27.33 10.17 L-25.31 10.17 L-25.31 15.92 L-27.33 15.92 L-27.33 15.92 L-27.53 15.96 L-27.68 16.06 L-27.79 16.22 L-27.83 16.42 L-27.83 20.77 L-27.83 20.77 L-27.79 20.96 L-27.68 21.12 L-27.53 21.23 L-27.33 21.26 L-25.31 21.26 L-25.31 23.59 L-25.31 23.59 L-25.26 24.08 L-25.12 24.53 L-24.9 24.94 L-24.6 25.3 L-24.25 25.59 L-23.84 25.81 L-23.38 25.95 L-22.9 26 L0 26 L0 26 L0.49 25.95 L0.94 25.81 L1.35 25.59 L1.7 25.3 L2 24.94 L2.22 24.53 L2.36 24.08 L2.41 23.59 L2.41 2.41 L2.41 2.41 L2.36 1.92 L2.22 1.47 L2 1.06 L1.7 0.71 L1.35 0.41 L0.94 0.19 L0.49 0.05 L0 0 L0 0" stroke="none" stroke-width="0" fill="#4285f4" fill-rule="evenodd"></path><path d="M0 0 C-7.96 0, -15.92 0, -22.9 0 M0 0 C-6.2 0, -12.4 0, -22.9 0 M-22.9 0 C-22.9 0, -22.9 0, -22.9 0 M-22.9 0 C-22.9 0, -22.9 0, -22.9 0 M-22.9 0 C-23.08 0.02, -23.26 0.04, -23.38 0.05 M-22.9 0 C-23.09 0.02, -23.28 0.04, -23.38 0.05 M-23.38 0.05 C-23.49 0.08, -23.59 0.11, -23.84 0.19 M-23.38 0.05 C-23.52 0.09, -23.65 0.13, -23.84 0.19 M-23.84 0.19 C-23.92 0.23, -24 0.28, -24.25 0.41 M-23.84 0.19 C-23.92 0.24, -24.01 0.28, -24.25 0.41 M-24.25 0.41 C-24.32 0.48, -24.4 0.54, -24.6 0.71 M-24.25 0.41 C-24.36 0.51, -24.48 0.6, -24.6 0.71 M-24.6 0.71 C-24.69 0.81, -24.78 0.92, -24.9 1.06 M-24.6 0.71 C-24.68 0.8, -24.75 0.89, -24.9 1.06 M-24.9 1.06 C-24.96 1.18, -25.03 1.31, -25.12 1.47 M-24.9 1.06 C-24.98 1.22, -25.07 1.38, -25.12 1.47 M-25.12 1.47 C-25.16 1.6, -25.2 1.74, -25.26 1.92 M-25.12 1.47 C-25.16 1.62, -25.21 1.76, -25.26 1.92 M-25.26 1.92 C-25.27 2.05, -25.29 2.18, -25.31 2.41 M-25.26 1.92 C-25.27 2.03, -25.28 2.14, -25.31 2.41 M-25.31 2.41 C-25.31 3.18, -25.31 3.94, -25.31 4.81 M-25.31 2.41 C-25.31 3.13, -25.31 3.84, -25.31 4.81 M-25.31 4.81 C-26.03 4.81, -26.75 4.81, -27.33 4.81 M-25.31 4.81 C-26 4.81, -26.69 4.81, -27.33 4.81 M-27.33 4.81 C-27.33 4.81, -27.33 4.81, -27.33 4.81 M-27.33 4.81 C-27.33 4.81, -27.33 4.81, -27.33 4.81 M-27.33 4.81 C-27.4 4.82, -27.46 4.83, -27.53 4.85 M-27.33 4.81 C-27.4 4.82, -27.48 4.84, -27.53 4.85 M-27.53 4.85 C-27.56 4.87, -27.59 4.89, -27.68 4.95 M-27.53 4.85 C-27.56 4.87, -27.59 4.89, -27.68 4.95 M-27.68 4.95 C-27.71 4.99, -27.73 5.02, -27.79 5.11 M-27.68 4.95 C-27.72 5, -27.75 5.05, -27.79 5.11 M-27.79 5.11 C-27.8 5.16, -27.81 5.21, -27.83 5.31 M-27.79 5.11 C-27.81 5.18, -27.82 5.25, -27.83 5.31 M-27.83 5.31 C-27.83 6.7, -27.83 8.09, -27.83 9.67 M-27.83 5.31 C-27.83 6.37, -27.83 7.43, -27.83 9.67 M-27.83 9.67 C-27.83 9.67, -27.83 9.67, -27.83 9.67 M-27.83 9.67 C-27.83 9.67, -27.83 9.67, -27.83 9.67 M-27.83 9.67 C-27.82 9.72, -27.81 9.76, -27.79 9.86 M-27.83 9.67 C-27.82 9.72, -27.81 9.77, -27.79 9.86 M-27.79 9.86 C-27.75 9.93, -27.71 9.99, -27.68 10.02 M-27.79 9.86 C-27.76 9.92, -27.72 9.97, -27.68 10.02 M-27.68 10.02 C-27.64 10.05, -27.6 10.08, -27.53 10.13 M-27.68 10.02 C-27.63 10.06, -27.58 10.09, -27.53 10.13 M-27.53 10.13 C-27.47 10.14, -27.41 10.15, -27.33 10.17 M-27.53 10.13 C-27.47 10.14, -27.41 10.15, -27.33 10.17 M-27.33 10.17 C-26.53 10.17, -25.72 10.17, -25.31 10.17 M-27.33 10.17 C-26.55 10.17, -25.76 10.17, -25.31 10.17 M-25.31 10.17 C-25.31 12.03, -25.31 13.89, -25.31 15.92 M-25.31 10.17 C-25.31 12.04, -25.31 13.92, -25.31 15.92 M-25.31 15.92 C-25.86 15.92, -26.4 15.92, -27.33 15.92 M-25.31 15.92 C-25.94 15.92, -26.57 15.92, -27.33 15.92 M-27.33 15.92 C-27.33 15.92, -27.33 15.92, -27.33 15.92 M-27.33 15.92 C-27.33 15.92, -27.33 15.92, -27.33 15.92 M-27.33 15.92 C-27.37 15.93, -27.42 15.93, -27.53 15.96 M-27.33 15.92 C-27.39 15.93, -27.46 15.94, -27.53 15.96 M-27.53 15.96 C-27.56 15.98, -27.59 16, -27.68 16.06 M-27.53 15.96 C-27.56 15.98, -27.6 16.01, -27.68 16.06 M-27.68 16.06 C-27.72 16.11, -27.75 16.16, -27.79 16.22 M-27.68 16.06 C-27.72 16.12, -27.76 16.17, -27.79 16.22 M-27.79 16.22 C-27.81 16.29, -27.82 16.36, -27.83 16.42 M-27.79 16.22 C-27.81 16.3, -27.82 16.37, -27.83 16.42 M-27.83 16.42 C-27.83 17.32, -27.83 18.22, -27.83 20.77 M-27.83 16.42 C-27.83 17.76, -27.83 19.1, -27.83 20.77 M-27.83 20.77 C-27.83 20.77, -27.83 20.77, -27.83 20.77 M-27.83 20.77 C-27.83 20.77, -27.83 20.77, -27.83 20.77 M-27.83 20.77 C-27.82 20.84, -27.8 20.91, -27.79 20.96 M-27.83 20.77 C-27.81 20.84, -27.8 20.92, -27.79 20.96 M-27.79 20.96 C-27.76 21.01, -27.72 21.06, -27.68 21.12 M-27.79 20.96 C-27.76 21, -27.73 21.05, -27.68 21.12 M-27.68 21.12 C-27.65 21.14, -27.61 21.17, -27.53 21.23 M-27.68 21.12 C-27.65 21.14, -27.62 21.16, -27.53 21.23 M-27.53 21.23 C-27.48 21.23, -27.43 21.24, -27.33 21.26 M-27.53 21.23 C-27.45 21.24, -27.37 21.26, -27.33 21.26 M-27.33 21.26 C-26.85 21.26, -26.36 21.26, -25.31 21.26 M-27.33 21.26 C-26.84 21.26, -26.36 21.26, -25.31 21.26 M-25.31 21.26 C-25.31 22.19, -25.31 23.11, -25.31 23.59 M-25.31 21.26 C-25.31 21.93, -25.31 22.6, -25.31 23.59 M-25.31 23.59 C-25.31 23.59, -25.31 23.59, -25.31 23.59 M-25.31 23.59 C-25.31 23.59, -25.31 23.59, -25.31 23.59 M-25.31 23.59 C-25.3 23.69, -25.29 23.79, -25.26 24.08 M-25.31 23.59 C-25.29 23.76, -25.28 23.92, -25.26 24.08 M-25.26 24.08 C-25.22 24.19, -25.19 24.31, -25.12 24.53 M-25.26 24.08 C-25.22 24.21, -25.18 24.33, -25.12 24.53 M-25.12 24.53 C-25.04 24.68, -24.96 24.83, -24.9 24.94 M-25.12 24.53 C-25.05 24.65, -24.98 24.78, -24.9 24.94 M-24.9 24.94 C-24.82 25.03, -24.74 25.13, -24.6 25.3 M-24.9 24.94 C-24.83 25.01, -24.77 25.09, -24.6 25.3 M-24.6 25.3 C-24.47 25.41, -24.33 25.52, -24.25 25.59 M-24.6 25.3 C-24.48 25.4, -24.35 25.5, -24.25 25.59 M-24.25 25.59 C-24.1 25.67, -23.96 25.74, -23.84 25.81 M-24.25 25.59 C-24.1 25.67, -23.95 25.75, -23.84 25.81 M-23.84 25.81 C-23.74 25.84, -23.65 25.87, -23.38 25.95 M-23.84 25.81 C-23.74 25.84, -23.64 25.87, -23.38 25.95 M-23.38 25.95 C-23.25 25.97, -23.11 25.98, -22.9 26 M-23.38 25.95 C-23.2 25.97, -23.02 25.99, -22.9 26 M-22.9 26 C-18.09 26, -13.29 26, 0 26 M-22.9 26 C-17.33 26, -11.76 26, 0 26 M0 26 C0 26, 0 26, 0 26 M0 26 C0 26, 0 26, 0 26 M0 26 C0.12 25.99, 0.23 25.98, 0.49 25.95 M0 26 C0.16 25.99, 0.33 25.97, 0.49 25.95 M0.49 25.95 C0.59 25.92, 0.69 25.89, 0.94 25.81 M0.49 25.95 C0.66 25.9, 0.84 25.84, 0.94 25.81 M0.94 25.81 C1.07 25.74, 1.2 25.67, 1.35 25.59 M0.94 25.81 C1.03 25.76, 1.13 25.71, 1.35 25.59 M1.35 25.59 C1.44 25.51, 1.54 25.43, 1.7 25.3 M1.35 25.59 C1.46 25.5, 1.56 25.41, 1.7 25.3 M1.7 25.3 C1.82 25.16, 1.93 25.02, 2 24.94 M1.7 25.3 C1.76 25.22, 1.83 25.15, 2 24.94 M2 24.94 C2.05 24.84, 2.11 24.73, 2.22 24.53 M2 24.94 C2.06 24.83, 2.12 24.72, 2.22 24.53 M2.22 24.53 C2.27 24.38, 2.31 24.24, 2.36 24.08 M2.22 24.53 C2.27 24.36, 2.33 24.19, 2.36 24.08 M2.36 24.08 C2.37 23.97, 2.38 23.86, 2.41 23.59 M2.36 24.08 C2.38 23.91, 2.4 23.73, 2.41 23.59 M2.41 23.59 C2.41 16.65, 2.41 9.7, 2.41 2.41 M2.41 23.59 C2.41 15.28, 2.41 6.97, 2.41 2.41 M2.41 2.41 C2.41 2.41, 2.41 2.41, 2.41 2.41 M2.41 2.41 C2.41 2.41, 2.41 2.41, 2.41 2.41 M2.41 2.41 C2.39 2.23, 2.37 2.04, 2.36 1.92 M2.41 2.41 C2.39 2.24, 2.38 2.07, 2.36 1.92 M2.36 1.92 C2.32 1.81, 2.29 1.69, 2.22 1.47 M2.36 1.92 C2.33 1.82, 2.3 1.72, 2.22 1.47 M2.22 1.47 C2.15 1.34, 2.07 1.2, 2 1.06 M2.22 1.47 C2.16 1.36, 2.09 1.24, 2 1.06 M2 1.06 C1.93 0.98, 1.86 0.9, 1.7 0.71 M2 1.06 C1.91 0.95, 1.82 0.85, 1.7 0.71 M1.7 0.71 C1.62 0.64, 1.53 0.57, 1.35 0.41 M1.7 0.71 C1.61 0.63, 1.52 0.55, 1.35 0.41 M1.35 0.41 C1.19 0.33, 1.03 0.24, 0.94 0.19 M1.35 0.41 C1.23 0.35, 1.11 0.28, 0.94 0.19 M0.94 0.19 C0.83 0.16, 0.73 0.12, 0.49 0.05 M0.94 0.19 C0.8 0.15, 0.67 0.11, 0.49 0.05 M0.49 0.05 C0.3 0.03, 0.12 0.01, 0 0 M0.49 0.05 C0.3 0.03, 0.11 0.01, 0 0 M0 0 C0 0, 0 0, 0 0 M0 0 C0 0, 0 0, 0 0 M0 0 C0 0, 0 0, 0 0 M0 0 C0 0, 0 0, 0 0" stroke="#00000000" stroke-width="1" fill="none"></path></g></g><mask></mask><g stroke-linecap="round"><g transform="translate(53.447185499843954 52.51428413391113) rotate(0 -11.227705001831055 -8.055409908294678)" fill-rule="evenodd"><path d="M0 0 L0 -13.69 L-5.18 -18.51 L-5.18 -18.51 L-5.19 -18.5 L-5.23 -18.47 L-5.3 -18.42 L-5.38 -18.35 L-5.61 -18.16 L-5.92 -17.91 L-6.29 -17.61 L-6.71 -17.27 L-7.17 -16.9 L-7.66 -16.5 L-8.67 -15.65 L-9.66 -14.81 L-10.12 -14.42 L-10.54 -14.05 L-10.9 -13.71 L-11.21 -13.42 L-11.75 -13.69 L-12.28 -13.88 L-12.79 -14 L-13.29 -14.06 L-13.77 -14.07 L-14.23 -14.02 L-14.66 -13.92 L-15.07 -13.77 L-15.45 -13.59 L-15.8 -13.37 L-16.12 -13.12 L-16.41 -12.84 L-16.66 -12.54 L-16.87 -12.23 L-17.05 -11.9 L-17.18 -11.57 L-17.27 -11.23 L-17.34 -10.9 L-17.41 -10.27 L-17.42 -9.69 L-17.37 -9.18 L-17.29 -8.75 L-17.25 -8.57 L-17.21 -8.42 L-17.18 -8.31 L-17.15 -8.22 L-17.13 -8.16 L-17.12 -8.15 L-22.46 -2.76 L-17.19 2.4 L-2.4 2.4 L-2.4 2.4 L-1.92 2.35 L-1.47 2.21 L-1.06 1.99 L-0.7 1.7 L-0.41 1.35 L-0.19 0.94 L-0.05 0.49 L0 0 L0 0" stroke="none" stroke-width="0" fill="#2c75ce" fill-rule="evenodd"></path><path d="M0 0 C0 -4.79, 0 -9.58, 0 -13.69 M0 0 C0 -5.43, 0 -10.86, 0 -13.69 M0 -13.69 C-2.05 -15.59, -4.1 -17.5, -5.18 -18.51 M0 -13.69 C-1.38 -14.97, -2.76 -16.26, -5.18 -18.51 M-5.18 -18.51 C-5.18 -18.51, -5.18 -18.51, -5.18 -18.51 M-5.18 -18.51 C-5.18 -18.51, -5.18 -18.51, -5.18 -18.51 M-5.18 -18.51 C-5.19 -18.5, -5.19 -18.5, -5.19 -18.5 M-5.18 -18.51 C-5.19 -18.5, -5.19 -18.5, -5.19 -18.5 M-5.19 -18.5 C-5.2 -18.49, -5.21 -18.48, -5.23 -18.47 M-5.19 -18.5 C-5.2 -18.49, -5.21 -18.48, -5.23 -18.47 M-5.23 -18.47 C-5.26 -18.45, -5.28 -18.43, -5.3 -18.42 M-5.23 -18.47 C-5.25 -18.45, -5.27 -18.44, -5.3 -18.42 M-5.3 -18.42 C-5.32 -18.4, -5.34 -18.38, -5.38 -18.35 M-5.3 -18.42 C-5.32 -18.4, -5.34 -18.38, -5.38 -18.35 M-5.38 -18.35 C-5.46 -18.28, -5.54 -18.22, -5.61 -18.16 M-5.38 -18.35 C-5.44 -18.3, -5.5 -18.25, -5.61 -18.16 M-5.61 -18.16 C-5.68 -18.11, -5.75 -18.05, -5.92 -17.91 M-5.61 -18.16 C-5.69 -18.1, -5.77 -18.03, -5.92 -17.91 M-5.92 -17.91 C-6.06 -17.8, -6.2 -17.69, -6.29 -17.61 M-5.92 -17.91 C-6.04 -17.82, -6.16 -17.72, -6.29 -17.61 M-6.29 -17.61 C-6.44 -17.49, -6.6 -17.36, -6.71 -17.27 M-6.29 -17.61 C-6.45 -17.48, -6.62 -17.35, -6.71 -17.27 M-6.71 -17.27 C-6.82 -17.18, -6.93 -17.09, -7.17 -16.9 M-6.71 -17.27 C-6.86 -17.15, -7.01 -17.03, -7.17 -16.9 M-7.17 -16.9 C-7.33 -16.77, -7.49 -16.63, -7.66 -16.5 M-7.17 -16.9 C-7.32 -16.77, -7.47 -16.65, -7.66 -16.5 M-7.66 -16.5 C-7.94 -16.26, -8.22 -16.03, -8.67 -15.65 M-7.66 -16.5 C-7.98 -16.23, -8.3 -15.96, -8.67 -15.65 M-8.67 -15.65 C-8.88 -15.48, -9.09 -15.3, -9.66 -14.81 M-8.67 -15.65 C-9.03 -15.35, -9.38 -15.05, -9.66 -14.81 M-9.66 -14.81 C-9.84 -14.66, -10.01 -14.51, -10.12 -14.42 M-9.66 -14.81 C-9.82 -14.68, -9.98 -14.54, -10.12 -14.42 M-10.12 -14.42 C-10.25 -14.3, -10.38 -14.18, -10.54 -14.05 M-10.12 -14.42 C-10.24 -14.31, -10.36 -14.21, -10.54 -14.05 M-10.54 -14.05 C-10.64 -13.95, -10.74 -13.86, -10.9 -13.71 M-10.54 -14.05 C-10.68 -13.91, -10.83 -13.78, -10.9 -13.71 M-10.9 -13.71 C-10.97 -13.65, -11.04 -13.58, -11.21 -13.42 M-10.9 -13.71 C-11 -13.63, -11.09 -13.54, -11.21 -13.42 M-11.21 -13.42 C-11.34 -13.49, -11.48 -13.56, -11.75 -13.69 M-11.21 -13.42 C-11.38 -13.51, -11.55 -13.59, -11.75 -13.69 M-11.75 -13.69 C-11.92 -13.75, -12.1 -13.81, -12.28 -13.88 M-11.75 -13.69 C-11.87 -13.73, -11.99 -13.78, -12.28 -13.88 M-12.28 -13.88 C-12.48 -13.93, -12.69 -13.98, -12.79 -14 M-12.28 -13.88 C-12.41 -13.91, -12.54 -13.94, -12.79 -14 M-12.79 -14 C-12.93 -14.02, -13.07 -14.04, -13.29 -14.06 M-12.79 -14 C-12.97 -14.03, -13.16 -14.05, -13.29 -14.06 M-13.29 -14.06 C-13.47 -14.07, -13.64 -14.07, -13.77 -14.07 M-13.29 -14.06 C-13.4 -14.07, -13.51 -14.07, -13.77 -14.07 M-13.77 -14.07 C-13.92 -14.05, -14.08 -14.03, -14.23 -14.02 M-13.77 -14.07 C-13.94 -14.05, -14.12 -14.03, -14.23 -14.02 M-14.23 -14.02 C-14.33 -13.99, -14.44 -13.97, -14.66 -13.92 M-14.23 -14.02 C-14.38 -13.98, -14.54 -13.95, -14.66 -13.92 M-14.66 -13.92 C-14.76 -13.88, -14.86 -13.85, -15.07 -13.77 M-14.66 -13.92 C-14.76 -13.88, -14.87 -13.85, -15.07 -13.77 M-15.07 -13.77 C-15.17 -13.72, -15.27 -13.68, -15.45 -13.59 M-15.07 -13.77 C-15.16 -13.73, -15.24 -13.69, -15.45 -13.59 M-15.45 -13.59 C-15.57 -13.51, -15.69 -13.44, -15.8 -13.37 M-15.45 -13.59 C-15.57 -13.52, -15.68 -13.44, -15.8 -13.37 M-15.8 -13.37 C-15.89 -13.3, -15.98 -13.23, -16.12 -13.12 M-15.8 -13.37 C-15.91 -13.28, -16.03 -13.2, -16.12 -13.12 M-16.12 -13.12 C-16.19 -13.05, -16.26 -12.99, -16.41 -12.84 M-16.12 -13.12 C-16.2 -13.05, -16.27 -12.98, -16.41 -12.84 M-16.41 -12.84 C-16.49 -12.75, -16.57 -12.66, -16.66 -12.54 M-16.41 -12.84 C-16.48 -12.77, -16.54 -12.69, -16.66 -12.54 M-16.66 -12.54 C-16.74 -12.43, -16.81 -12.32, -16.87 -12.23 M-16.66 -12.54 C-16.71 -12.47, -16.77 -12.39, -16.87 -12.23 M-16.87 -12.23 C-16.94 -12.1, -17.01 -11.98, -17.05 -11.9 M-16.87 -12.23 C-16.92 -12.15, -16.96 -12.07, -17.05 -11.9 M-17.05 -11.9 C-17.1 -11.77, -17.15 -11.64, -17.18 -11.57 M-17.05 -11.9 C-17.08 -11.83, -17.11 -11.75, -17.18 -11.57 M-17.18 -11.57 C-17.21 -11.47, -17.23 -11.36, -17.27 -11.23 M-17.18 -11.57 C-17.2 -11.49, -17.22 -11.42, -17.27 -11.23 M-17.27 -11.23 C-17.29 -11.15, -17.3 -11.08, -17.34 -10.9 M-17.27 -11.23 C-17.29 -11.13, -17.31 -11.04, -17.34 -10.9 M-17.34 -10.9 C-17.36 -10.73, -17.38 -10.56, -17.41 -10.27 M-17.34 -10.9 C-17.36 -10.74, -17.38 -10.59, -17.41 -10.27 M-17.41 -10.27 C-17.41 -10.12, -17.41 -9.97, -17.42 -9.69 M-17.41 -10.27 C-17.41 -10.14, -17.41 -10.01, -17.42 -9.69 M-17.42 -9.69 C-17.4 -9.56, -17.39 -9.44, -17.37 -9.18 M-17.42 -9.69 C-17.4 -9.48, -17.38 -9.28, -17.37 -9.18 M-17.37 -9.18 C-17.35 -9.07, -17.33 -8.97, -17.29 -8.75 M-17.37 -9.18 C-17.34 -9.01, -17.31 -8.85, -17.29 -8.75 M-17.29 -8.75 C-17.28 -8.71, -17.27 -8.66, -17.25 -8.57 M-17.29 -8.75 C-17.28 -8.69, -17.27 -8.64, -17.25 -8.57 M-17.25 -8.57 C-17.24 -8.54, -17.23 -8.51, -17.21 -8.42 M-17.25 -8.57 C-17.24 -8.54, -17.23 -8.5, -17.21 -8.42 M-17.21 -8.42 C-17.2 -8.38, -17.18 -8.33, -17.18 -8.31 M-17.21 -8.42 C-17.2 -8.4, -17.2 -8.37, -17.18 -8.31 M-17.18 -8.31 C-17.17 -8.28, -17.16 -8.26, -17.15 -8.22 M-17.18 -8.31 C-17.17 -8.29, -17.16 -8.27, -17.15 -8.22 M-17.15 -8.22 C-17.14 -8.2, -17.14 -8.19, -17.13 -8.16 M-17.15 -8.22 C-17.14 -8.2, -17.13 -8.18, -17.13 -8.16 M-17.13 -8.16 C-17.13 -8.16, -17.12 -8.15, -17.12 -8.15 M-17.13 -8.16 C-17.13 -8.16, -17.13 -8.15, -17.12 -8.15 M-17.12 -8.15 C-19.24 -6, -21.36 -3.86, -22.46 -2.76 M-17.12 -8.15 C-19.2 -6.05, -21.27 -3.95, -22.46 -2.76 M-22.46 -2.76 C-21.03 -1.36, -19.61 0.03, -17.19 2.4 M-22.46 -2.76 C-20.94 -1.28, -19.43 0.2, -17.19 2.4 M-17.19 2.4 C-12.32 2.4, -7.46 2.4, -2.4 2.4 M-17.19 2.4 C-14.18 2.4, -11.17 2.4, -2.4 2.4 M-2.4 2.4 C-2.4 2.4, -2.4 2.4, -2.4 2.4 M-2.4 2.4 C-2.4 2.4, -2.4 2.4, -2.4 2.4 M-2.4 2.4 C-2.22 2.38, -2.05 2.36, -1.92 2.35 M-2.4 2.4 C-2.28 2.39, -2.17 2.38, -1.92 2.35 M-1.92 2.35 C-1.75 2.3, -1.59 2.25, -1.47 2.21 M-1.92 2.35 C-1.82 2.32, -1.72 2.29, -1.47 2.21 M-1.47 2.21 C-1.38 2.17, -1.29 2.12, -1.06 1.99 M-1.47 2.21 C-1.37 2.16, -1.27 2.11, -1.06 1.99 M-1.06 1.99 C-0.92 1.88, -0.78 1.76, -0.7 1.7 M-1.06 1.99 C-0.92 1.88, -0.78 1.76, -0.7 1.7 M-0.7 1.7 C-0.59 1.56, -0.48 1.42, -0.41 1.35 M-0.7 1.7 C-0.59 1.57, -0.48 1.43, -0.41 1.35 M-0.41 1.35 C-0.34 1.21, -0.27 1.08, -0.19 0.94 M-0.41 1.35 C-0.35 1.24, -0.3 1.14, -0.19 0.94 M-0.19 0.94 C-0.14 0.77, -0.08 0.6, -0.05 0.49 M-0.19 0.94 C-0.14 0.77, -0.09 0.6, -0.05 0.49 M-0.05 0.49 C-0.03 0.33, -0.02 0.17, 0 0 M-0.05 0.49 C-0.03 0.32, -0.02 0.16, 0 0 M0 0 C0 0, 0 0, 0 0 M0 0 C0 0, 0 0, 0 0 M0 0 C0 0, 0 0, 0 0 M0 0 C0 0, 0 0, 0 0" stroke="#00000000" stroke-width="1" fill="none"></path></g></g><mask></mask><g stroke-linecap="round"><g transform="translate(43.91645048397481 44.59047508239746) rotate(0 -4.398268699645996 -2.718613386154175)" fill-rule="evenodd"><path d="M0 0 L0 0 L-0.01 0.01 L0.34 -0.57 L0.6 -1.21 L0.69 -1.54 L0.76 -1.89 L0.8 -2.23 L0.82 -2.59 L0.8 -2.96 L0.76 -3.32 L0.69 -3.67 L0.59 -4.01 L0.46 -4.34 L0.31 -4.66 L0.14 -4.97 L-0.06 -5.26 L4.28 -9.3 L4.28 -9.3 L4.42 -9.46 L4.53 -9.64 L4.59 -9.83 L4.62 -10.03 L4.61 -10.24 L4.56 -10.43 L4.47 -10.62 L4.34 -10.79 L4.17 -10.93 L3.99 -11.04 L3.8 -11.1 L3.6 -11.13 L3.4 -11.12 L3.2 -11.07 L3.01 -10.98 L2.84 -10.85 L-1.62 -6.69 L-1.62 -6.69 L-1.3 -6.48 L-1.64 -6.69 L-1.99 -6.88 L-2.36 -7.04 L-2.74 -7.18 L-3.14 -7.28 L-3.55 -7.36 L-3.97 -7.41 L-4.41 -7.43 L-4.83 -7.41 L-5.25 -7.36 L-5.65 -7.28 L-6.05 -7.18 L-6.42 -7.05 L-6.79 -6.89 L-7.14 -6.7 L-7.47 -6.5 L-7.18 -6.69 L-11.64 -10.85 L-11.64 -10.85 L-11.81 -10.98 L-11.99 -11.07 L-12.19 -11.12 L-12.39 -11.13 L-12.6 -11.1 L-12.79 -11.04 L-12.97 -10.93 L-13.13 -10.79 L-13.26 -10.62 L-13.35 -10.43 L-13.4 -10.24 L-13.42 -10.03 L-13.39 -9.83 L-13.32 -9.64 L-13.22 -9.46 L-13.08 -9.3 L-8.74 -5.26 L-8.74 -5.26 L-8.94 -4.97 L-9.11 -4.66 L-9.27 -4.34 L-9.39 -4.01 L-9.49 -3.67 L-9.57 -3.32 L-9.61 -2.96 L-9.63 -2.59 L-9.61 -2.23 L-9.57 -1.89 L-9.5 -1.54 L-9.41 -1.21 L-9.15 -0.57 L-8.81 0.01 L-12.94 3.86 L-12.94 3.86 L-13.08 4.03 L-13.18 4.21 L-13.25 4.4 L-13.28 4.6 L-13.27 4.8 L-13.22 5 L-13.12 5.19 L-12.99 5.36 L-12.83 5.51 L-12.64 5.61 L-12.43 5.67 L-12.22 5.69 L-12.02 5.68 L-11.84 5.62 L-11.66 5.54 L-11.5 5.42 L-7.26 1.47 L-7.26 1.47 L-6.62 1.8 L-5.92 2.04 L-5.18 2.19 L-4.41 2.24 L-3.85 2.22 L-3.3 2.14 L-2.78 2.01 L-2.28 1.83 L-1.81 1.6 L-1.36 1.34 L-0.95 1.03 L-0.58 0.69 L-1.04 1.1 L-1.54 1.45 L2.72 5.42 L2.72 5.42 L2.88 5.54 L3.05 5.63 L3.24 5.68 L3.44 5.69 L3.64 5.67 L3.85 5.61 L4.04 5.51 L4.21 5.36 L4.34 5.19 L4.43 5 L4.48 4.8 L4.5 4.6 L4.47 4.4 L4.4 4.21 L4.3 4.03 L4.16 3.86 L0 0 L0 0" stroke="none" stroke-width="0" fill="#fff" fill-rule="evenodd"></path><path d="M0 0 C0 0, 0 0, 0 0 M0 0 C0 0, 0 0, 0 0 M0 0 C0 0, -0.01 0.01, -0.01 0.01 M0 0 C0 0, -0.01 0.01, -0.01 0.01 M-0.01 0.01 C0.09 -0.15, 0.18 -0.32, 0.34 -0.57 M-0.01 0.01 C0.1 -0.17, 0.21 -0.36, 0.34 -0.57 M0.34 -0.57 C0.41 -0.75, 0.48 -0.92, 0.6 -1.21 M0.34 -0.57 C0.43 -0.79, 0.52 -1.01, 0.6 -1.21 M0.6 -1.21 C0.62 -1.28, 0.64 -1.36, 0.69 -1.54 M0.6 -1.21 C0.63 -1.31, 0.66 -1.42, 0.69 -1.54 M0.69 -1.54 C0.72 -1.68, 0.75 -1.81, 0.76 -1.89 M0.69 -1.54 C0.72 -1.67, 0.74 -1.79, 0.76 -1.89 M0.76 -1.89 C0.78 -2.02, 0.79 -2.16, 0.8 -2.23 M0.76 -1.89 C0.78 -2.02, 0.79 -2.16, 0.8 -2.23 M0.8 -2.23 C0.81 -2.37, 0.81 -2.5, 0.82 -2.59 M0.8 -2.23 C0.81 -2.33, 0.81 -2.43, 0.82 -2.59 M0.82 -2.59 C0.81 -2.72, 0.81 -2.85, 0.8 -2.96 M0.82 -2.59 C0.81 -2.67, 0.81 -2.76, 0.8 -2.96 M0.8 -2.96 C0.79 -3.09, 0.77 -3.22, 0.76 -3.32 M0.8 -2.96 C0.79 -3.05, 0.78 -3.14, 0.76 -3.32 M0.76 -3.32 C0.74 -3.39, 0.73 -3.46, 0.69 -3.67 M0.76 -3.32 C0.74 -3.43, 0.71 -3.55, 0.69 -3.67 M0.69 -3.67 C0.67 -3.74, 0.65 -3.81, 0.59 -4.01 M0.69 -3.67 C0.67 -3.74, 0.65 -3.81, 0.59 -4.01 M0.59 -4.01 C0.55 -4.11, 0.51 -4.21, 0.46 -4.34 M0.59 -4.01 C0.56 -4.08, 0.54 -4.15, 0.46 -4.34 M0.46 -4.34 C0.42 -4.44, 0.37 -4.54, 0.31 -4.66 M0.46 -4.34 C0.42 -4.43, 0.38 -4.52, 0.31 -4.66 M0.31 -4.66 C0.26 -4.76, 0.21 -4.86, 0.14 -4.97 M0.31 -4.66 C0.26 -4.75, 0.21 -4.84, 0.14 -4.97 M0.14 -4.97 C0.07 -5.08, -0.01 -5.19, -0.06 -5.26 M0.14 -4.97 C0.07 -5.08, 0 -5.18, -0.06 -5.26 M-0.06 -5.26 C1.44 -6.66, 2.94 -8.05, 4.28 -9.3 M-0.06 -5.26 C1.52 -6.73, 3.1 -8.2, 4.28 -9.3 M4.28 -9.3 C4.28 -9.3, 4.28 -9.3, 4.28 -9.3 M4.28 -9.3 C4.28 -9.3, 4.28 -9.3, 4.28 -9.3 M4.28 -9.3 C4.32 -9.34, 4.35 -9.38, 4.42 -9.46 M4.28 -9.3 C4.32 -9.35, 4.37 -9.4, 4.42 -9.46 M4.42 -9.46 C4.45 -9.51, 4.48 -9.56, 4.53 -9.64 M4.42 -9.46 C4.45 -9.5, 4.47 -9.54, 4.53 -9.64 M4.53 -9.64 C4.55 -9.7, 4.57 -9.75, 4.59 -9.83 M4.53 -9.64 C4.54 -9.68, 4.55 -9.72, 4.59 -9.83 M4.59 -9.83 C4.6 -9.88, 4.61 -9.93, 4.62 -10.03 M4.59 -9.83 C4.6 -9.91, 4.61 -9.98, 4.62 -10.03 M4.62 -10.03 C4.62 -10.1, 4.61 -10.17, 4.61 -10.24 M4.62 -10.03 C4.62 -10.07, 4.62 -10.12, 4.61 -10.24 M4.61 -10.24 C4.59 -10.29, 4.58 -10.34, 4.56 -10.43 M4.61 -10.24 C4.59 -10.29, 4.58 -10.34, 4.56 -10.43 M4.56 -10.43 C4.52 -10.5, 4.49 -10.58, 4.47 -10.62 M4.56 -10.43 C4.53 -10.48, 4.51 -10.54, 4.47 -10.62 M4.47 -10.62 C4.42 -10.68, 4.37 -10.75, 4.34 -10.79 M4.47 -10.62 C4.44 -10.66, 4.41 -10.69, 4.34 -10.79 M4.34 -10.79 C4.3 -10.83, 4.26 -10.86, 4.17 -10.93 M4.34 -10.79 C4.3 -10.83, 4.26 -10.86, 4.17 -10.93 M4.17 -10.93 C4.12 -10.96, 4.07 -10.99, 3.99 -11.04 M4.17 -10.93 C4.13 -10.96, 4.1 -10.98, 3.99 -11.04 M3.99 -11.04 C3.92 -11.06, 3.85 -11.09, 3.8 -11.1 M3.99 -11.04 C3.92 -11.06, 3.86 -11.08, 3.8 -11.1 M3.8 -11.1 C3.74 -11.11, 3.67 -11.12, 3.6 -11.13 M3.8 -11.1 C3.73 -11.11, 3.66 -11.12, 3.6 -11.13 M3.6 -11.13 C3.54 -11.13, 3.49 -11.12, 3.4 -11.12 M3.6 -11.13 C3.53 -11.13, 3.47 -11.12, 3.4 -11.12 M3.4 -11.12 C3.35 -11.11, 3.3 -11.09, 3.2 -11.07 M3.4 -11.12 C3.35 -11.11, 3.31 -11.1, 3.2 -11.07 M3.2 -11.07 C3.12 -11.03, 3.05 -11, 3.01 -10.98 M3.2 -11.07 C3.15 -11.05, 3.11 -11.03, 3.01 -10.98 M3.01 -10.98 C2.96 -10.94, 2.92 -10.91, 2.84 -10.85 M3.01 -10.98 C2.97 -10.95, 2.93 -10.91, 2.84 -10.85 M2.84 -10.85 C1.68 -9.77, 0.52 -8.68, -1.62 -6.69 M2.84 -10.85 C1.43 -9.53, 0.02 -8.22, -1.62 -6.69 M-1.62 -6.69 C-1.62 -6.69, -1.62 -6.69, -1.62 -6.69 M-1.62 -6.69 C-1.62 -6.69, -1.62 -6.69, -1.62 -6.69 M-1.62 -6.69 C-1.55 -6.64, -1.47 -6.6, -1.3 -6.48 M-1.62 -6.69 C-1.51 -6.62, -1.4 -6.55, -1.3 -6.48 M-1.3 -6.48 C-1.37 -6.53, -1.44 -6.57, -1.64 -6.69 M-1.3 -6.48 C-1.42 -6.56, -1.55 -6.64, -1.64 -6.69 M-1.64 -6.69 C-1.71 -6.73, -1.79 -6.77, -1.99 -6.88 M-1.64 -6.69 C-1.78 -6.77, -1.91 -6.84, -1.99 -6.88 M-1.99 -6.88 C-2.11 -6.93, -2.23 -6.98, -2.36 -7.04 M-1.99 -6.88 C-2.08 -6.92, -2.16 -6.96, -2.36 -7.04 M-2.36 -7.04 C-2.5 -7.09, -2.63 -7.14, -2.74 -7.18 M-2.36 -7.04 C-2.48 -7.09, -2.61 -7.13, -2.74 -7.18 M-2.74 -7.18 C-2.86 -7.21, -2.97 -7.24, -3.14 -7.28 M-2.74 -7.18 C-2.83 -7.2, -2.91 -7.22, -3.14 -7.28 M-3.14 -7.28 C-3.28 -7.31, -3.41 -7.34, -3.55 -7.36 M-3.14 -7.28 C-3.26 -7.31, -3.38 -7.33, -3.55 -7.36 M-3.55 -7.36 C-3.69 -7.38, -3.83 -7.39, -3.97 -7.41 M-3.55 -7.36 C-3.66 -7.37, -3.77 -7.39, -3.97 -7.41 M-3.97 -7.41 C-4.08 -7.41, -4.19 -7.42, -4.41 -7.43 M-3.97 -7.41 C-4.08 -7.41, -4.19 -7.42, -4.41 -7.43 M-4.41 -7.43 C-4.5 -7.42, -4.6 -7.42, -4.83 -7.41 M-4.41 -7.43 C-4.54 -7.42, -4.68 -7.41, -4.83 -7.41 M-4.83 -7.41 C-4.99 -7.39, -5.15 -7.37, -5.25 -7.36 M-4.83 -7.41 C-4.92 -7.4, -5.01 -7.39, -5.25 -7.36 M-5.25 -7.36 C-5.36 -7.34, -5.47 -7.32, -5.65 -7.28 M-5.25 -7.36 C-5.39 -7.34, -5.52 -7.31, -5.65 -7.28 M-5.65 -7.28 C-5.81 -7.24, -5.96 -7.2, -6.05 -7.18 M-5.65 -7.28 C-5.74 -7.26, -5.82 -7.24, -6.05 -7.18 M-6.05 -7.18 C-6.17 -7.14, -6.3 -7.09, -6.42 -7.05 M-6.05 -7.18 C-6.14 -7.15, -6.23 -7.11, -6.42 -7.05 M-6.42 -7.05 C-6.54 -7, -6.65 -6.95, -6.79 -6.89 M-6.42 -7.05 C-6.55 -6.99, -6.68 -6.93, -6.79 -6.89 M-6.79 -6.89 C-6.91 -6.82, -7.03 -6.76, -7.14 -6.7 M-6.79 -6.89 C-6.91 -6.82, -7.03 -6.76, -7.14 -6.7 M-7.14 -6.7 C-7.26 -6.62, -7.39 -6.54, -7.47 -6.5 M-7.14 -6.7 C-7.25 -6.63, -7.36 -6.56, -7.47 -6.5 M-7.47 -6.5 C-7.39 -6.55, -7.31 -6.6, -7.18 -6.69 M-7.47 -6.5 C-7.36 -6.57, -7.25 -6.64, -7.18 -6.69 M-7.18 -6.69 C-8.21 -7.65, -9.24 -8.61, -11.64 -10.85 M-7.18 -6.69 C-8.76 -8.17, -10.35 -9.65, -11.64 -10.85 M-11.64 -10.85 C-11.64 -10.85, -11.64 -10.85, -11.64 -10.85 M-11.64 -10.85 C-11.64 -10.85, -11.64 -10.85, -11.64 -10.85 M-11.64 -10.85 C-11.68 -10.88, -11.73 -10.91, -11.81 -10.98 M-11.64 -10.85 C-11.7 -10.9, -11.77 -10.95, -11.81 -10.98 M-11.81 -10.98 C-11.86 -11, -11.92 -11.03, -11.99 -11.07 M-11.81 -10.98 C-11.86 -11, -11.91 -11.03, -11.99 -11.07 M-11.99 -11.07 C-12.04 -11.08, -12.09 -11.09, -12.19 -11.12 M-11.99 -11.07 C-12.05 -11.08, -12.1 -11.1, -12.19 -11.12 M-12.19 -11.12 C-12.25 -11.12, -12.32 -11.13, -12.39 -11.13 M-12.19 -11.12 C-12.26 -11.12, -12.33 -11.13, -12.39 -11.13 M-12.39 -11.13 C-12.47 -11.12, -12.55 -11.11, -12.6 -11.1 M-12.39 -11.13 C-12.46 -11.12, -12.52 -11.11, -12.6 -11.1 M-12.6 -11.1 C-12.64 -11.09, -12.69 -11.07, -12.79 -11.04 M-12.6 -11.1 C-12.64 -11.09, -12.68 -11.08, -12.79 -11.04 M-12.79 -11.04 C-12.83 -11.02, -12.87 -10.99, -12.97 -10.93 M-12.79 -11.04 C-12.86 -11, -12.93 -10.95, -12.97 -10.93 M-12.97 -10.93 C-13.01 -10.9, -13.05 -10.87, -13.13 -10.79 M-12.97 -10.93 C-13.03 -10.88, -13.09 -10.83, -13.13 -10.79 M-13.13 -10.79 C-13.17 -10.74, -13.21 -10.69, -13.26 -10.62 M-13.13 -10.79 C-13.17 -10.74, -13.21 -10.69, -13.26 -10.62 M-13.26 -10.62 C-13.29 -10.57, -13.31 -10.52, -13.35 -10.43 M-13.26 -10.62 C-13.28 -10.58, -13.3 -10.54, -13.35 -10.43 M-13.35 -10.43 C-13.37 -10.36, -13.39 -10.28, -13.4 -10.24 M-13.35 -10.43 C-13.37 -10.39, -13.38 -10.34, -13.4 -10.24 M-13.4 -10.24 C-13.41 -10.16, -13.41 -10.07, -13.42 -10.03 M-13.4 -10.24 C-13.41 -10.19, -13.41 -10.15, -13.42 -10.03 M-13.42 -10.03 C-13.41 -9.96, -13.4 -9.88, -13.39 -9.83 M-13.42 -10.03 C-13.41 -9.99, -13.41 -9.95, -13.39 -9.83 M-13.39 -9.83 C-13.38 -9.79, -13.36 -9.75, -13.32 -9.64 M-13.39 -9.83 C-13.36 -9.76, -13.34 -9.68, -13.32 -9.64 M-13.32 -9.64 C-13.28 -9.57, -13.25 -9.5, -13.22 -9.46 M-13.32 -9.64 C-13.29 -9.58, -13.26 -9.52, -13.22 -9.46 M-13.22 -9.46 C-13.18 -9.42, -13.15 -9.38, -13.08 -9.3 M-13.22 -9.46 C-13.17 -9.41, -13.13 -9.35, -13.08 -9.3 M-13.08 -9.3 C-11.85 -8.15, -10.62 -7.01, -8.74 -5.26 M-13.08 -9.3 C-11.95 -8.25, -10.83 -7.2, -8.74 -5.26 M-8.74 -5.26 C-8.74 -5.26, -8.74 -5.26, -8.74 -5.26 M-8.74 -5.26 C-8.74 -5.26, -8.74 -5.26, -8.74 -5.26 M-8.74 -5.26 C-8.81 -5.16, -8.89 -5.05, -8.94 -4.97 M-8.74 -5.26 C-8.78 -5.2, -8.82 -5.14, -8.94 -4.97 M-8.94 -4.97 C-8.98 -4.9, -9.01 -4.84, -9.11 -4.66 M-8.94 -4.97 C-8.98 -4.89, -9.03 -4.81, -9.11 -4.66 M-9.11 -4.66 C-9.16 -4.56, -9.21 -4.46, -9.27 -4.34 M-9.11 -4.66 C-9.16 -4.56, -9.21 -4.45, -9.27 -4.34 M-9.27 -4.34 C-9.3 -4.24, -9.34 -4.14, -9.39 -4.01 M-9.27 -4.34 C-9.29 -4.27, -9.32 -4.19, -9.39 -4.01 M-9.39 -4.01 C-9.43 -3.89, -9.46 -3.77, -9.49 -3.67 M-9.39 -4.01 C-9.42 -3.91, -9.45 -3.81, -9.49 -3.67 M-9.49 -3.67 C-9.52 -3.55, -9.54 -3.44, -9.57 -3.32 M-9.49 -3.67 C-9.51 -3.57, -9.53 -3.47, -9.57 -3.32 M-9.57 -3.32 C-9.58 -3.2, -9.6 -3.07, -9.61 -2.96 M-9.57 -3.32 C-9.58 -3.2, -9.6 -3.08, -9.61 -2.96 M-9.61 -2.96 C-9.62 -2.85, -9.62 -2.74, -9.63 -2.59 M-9.61 -2.96 C-9.62 -2.82, -9.62 -2.68, -9.63 -2.59 M-9.63 -2.59 C-9.62 -2.5, -9.62 -2.4, -9.61 -2.23 M-9.63 -2.59 C-9.62 -2.46, -9.62 -2.33, -9.61 -2.23 M-9.61 -2.23 C-9.6 -2.11, -9.58 -1.98, -9.57 -1.89 M-9.61 -2.23 C-9.6 -2.15, -9.59 -2.06, -9.57 -1.89 M-9.57 -1.89 C-9.55 -1.76, -9.52 -1.64, -9.5 -1.54 M-9.57 -1.89 C-9.55 -1.76, -9.52 -1.64, -9.5 -1.54 M-9.5 -1.54 C-9.48 -1.47, -9.46 -1.39, -9.41 -1.21 M-9.5 -1.54 C-9.48 -1.46, -9.46 -1.38, -9.41 -1.21 M-9.41 -1.21 C-9.36 -1.07, -9.3 -0.94, -9.15 -0.57 M-9.41 -1.21 C-9.34 -1.03, -9.26 -0.84, -9.15 -0.57 M-9.15 -0.57 C-9.05 -0.4, -8.96 -0.23, -8.81 0.01 M-9.15 -0.57 C-9.06 -0.42, -8.97 -0.26, -8.81 0.01 M-8.81 0.01 C-9.69 0.83, -10.57 1.65, -12.94 3.86 M-8.81 0.01 C-10.36 1.46, -11.9 2.9, -12.94 3.86 M-12.94 3.86 C-12.94 3.86, -12.94 3.86, -12.94 3.86 M-12.94 3.86 C-12.94 3.86, -12.94 3.86, -12.94 3.86 M-12.94 3.86 C-12.98 3.91, -13.02 3.96, -13.08 4.03 M-12.94 3.86 C-12.98 3.91, -13.02 3.96, -13.08 4.03 M-13.08 4.03 C-13.11 4.07, -13.13 4.11, -13.18 4.21 M-13.08 4.03 C-13.11 4.07, -13.13 4.11, -13.18 4.21 M-13.18 4.21 C-13.2 4.26, -13.22 4.31, -13.25 4.4 M-13.18 4.21 C-13.21 4.28, -13.23 4.34, -13.25 4.4 M-13.25 4.4 C-13.26 4.45, -13.26 4.5, -13.28 4.6 M-13.25 4.4 C-13.26 4.48, -13.27 4.56, -13.28 4.6 M-13.28 4.6 C-13.27 4.68, -13.27 4.76, -13.27 4.8 M-13.28 4.6 C-13.27 4.66, -13.27 4.72, -13.27 4.8 M-13.27 4.8 C-13.25 4.87, -13.23 4.93, -13.22 5 M-13.27 4.8 C-13.25 4.87, -13.23 4.93, -13.22 5 M-13.22 5 C-13.19 5.05, -13.17 5.1, -13.12 5.19 M-13.22 5 C-13.19 5.06, -13.16 5.11, -13.12 5.19 M-13.12 5.19 C-13.07 5.26, -13.02 5.32, -12.99 5.36 M-13.12 5.19 C-13.08 5.25, -13.04 5.3, -12.99 5.36 M-12.99 5.36 C-12.94 5.41, -12.88 5.46, -12.83 5.51 M-12.99 5.36 C-12.93 5.42, -12.87 5.47, -12.83 5.51 M-12.83 5.51 C-12.78 5.53, -12.73 5.56, -12.64 5.61 M-12.83 5.51 C-12.78 5.53, -12.73 5.56, -12.64 5.61 M-12.64 5.61 C-12.57 5.63, -12.49 5.65, -12.43 5.67 M-12.64 5.61 C-12.56 5.64, -12.47 5.66, -12.43 5.67 M-12.43 5.67 C-12.37 5.68, -12.3 5.69, -12.22 5.69 M-12.43 5.67 C-12.36 5.68, -12.28 5.69, -12.22 5.69 M-12.22 5.69 C-12.15 5.69, -12.08 5.68, -12.02 5.68 M-12.22 5.69 C-12.16 5.69, -12.11 5.68, -12.02 5.68 M-12.02 5.68 C-11.98 5.66, -11.93 5.65, -11.84 5.62 M-12.02 5.68 C-11.98 5.66, -11.93 5.65, -11.84 5.62 M-11.84 5.62 C-11.8 5.6, -11.75 5.58, -11.66 5.54 M-11.84 5.62 C-11.78 5.59, -11.72 5.56, -11.66 5.54 M-11.66 5.54 C-11.6 5.49, -11.55 5.45, -11.5 5.42 M-11.66 5.54 C-11.6 5.49, -11.54 5.45, -11.5 5.42 M-11.5 5.42 C-10.54 4.52, -9.58 3.63, -7.26 1.47 M-11.5 5.42 C-9.92 3.95, -8.35 2.49, -7.26 1.47 M-7.26 1.47 C-7.26 1.47, -7.26 1.47, -7.26 1.47 M-7.26 1.47 C-7.26 1.47, -7.26 1.47, -7.26 1.47 M-7.26 1.47 C-7.01 1.6, -6.76 1.73, -6.62 1.8 M-7.26 1.47 C-7.02 1.59, -6.78 1.72, -6.62 1.8 M-6.62 1.8 C-6.44 1.86, -6.27 1.92, -5.92 2.04 M-6.62 1.8 C-6.41 1.87, -6.21 1.94, -5.92 2.04 M-5.92 2.04 C-5.68 2.09, -5.43 2.14, -5.18 2.19 M-5.92 2.04 C-5.75 2.08, -5.58 2.11, -5.18 2.19 M-5.18 2.19 C-5 2.2, -4.82 2.22, -4.41 2.24 M-5.18 2.19 C-4.96 2.21, -4.75 2.22, -4.41 2.24 M-4.41 2.24 C-4.25 2.24, -4.1 2.23, -3.85 2.22 M-4.41 2.24 C-4.29 2.24, -4.18 2.23, -3.85 2.22 M-3.85 2.22 C-3.67 2.19, -3.5 2.17, -3.3 2.14 M-3.85 2.22 C-3.69 2.19, -3.54 2.17, -3.3 2.14 M-3.3 2.14 C-3.2 2.11, -3.09 2.08, -2.78 2.01 M-3.3 2.14 C-3.17 2.1, -3.03 2.07, -2.78 2.01 M-2.78 2.01 C-2.67 1.97, -2.56 1.93, -2.28 1.83 M-2.78 2.01 C-2.66 1.96, -2.55 1.92, -2.28 1.83 M-2.28 1.83 C-2.13 1.75, -1.97 1.68, -1.81 1.6 M-2.28 1.83 C-2.11 1.75, -1.95 1.67, -1.81 1.6 M-1.81 1.6 C-1.71 1.55, -1.62 1.49, -1.36 1.34 M-1.81 1.6 C-1.67 1.52, -1.53 1.44, -1.36 1.34 M-1.36 1.34 C-1.21 1.22, -1.06 1.11, -0.95 1.03 M-1.36 1.34 C-1.24 1.24, -1.11 1.15, -0.95 1.03 M-0.95 1.03 C-0.85 0.94, -0.74 0.84, -0.58 0.69 M-0.95 1.03 C-0.86 0.95, -0.77 0.86, -0.58 0.69 M-0.58 0.69 C-0.74 0.83, -0.89 0.97, -1.04 1.1 M-0.58 0.69 C-0.75 0.84, -0.91 0.99, -1.04 1.1 M-1.04 1.1 C-1.24 1.24, -1.43 1.38, -1.54 1.45 M-1.04 1.1 C-1.24 1.24, -1.44 1.38, -1.54 1.45 M-1.54 1.45 C-0.14 2.76, 1.26 4.06, 2.72 5.42 M-1.54 1.45 C-0.57 2.35, 0.39 3.25, 2.72 5.42 M2.72 5.42 C2.72 5.42, 2.72 5.42, 2.72 5.42 M2.72 5.42 C2.72 5.42, 2.72 5.42, 2.72 5.42 M2.72 5.42 C2.76 5.45, 2.81 5.49, 2.88 5.54 M2.72 5.42 C2.75 5.44, 2.78 5.47, 2.88 5.54 M2.88 5.54 C2.93 5.57, 2.98 5.59, 3.05 5.63 M2.88 5.54 C2.94 5.57, 3.01 5.6, 3.05 5.63 M3.05 5.63 C3.12 5.64, 3.18 5.66, 3.24 5.68 M3.05 5.63 C3.11 5.64, 3.17 5.66, 3.24 5.68 M3.24 5.68 C3.28 5.68, 3.33 5.68, 3.44 5.69 M3.24 5.68 C3.32 5.68, 3.39 5.69, 3.44 5.69 M3.44 5.69 C3.51 5.69, 3.59 5.68, 3.64 5.67 M3.44 5.69 C3.5 5.69, 3.56 5.68, 3.64 5.67 M3.64 5.67 C3.7 5.65, 3.76 5.64, 3.85 5.61 M3.64 5.67 C3.7 5.66, 3.75 5.64, 3.85 5.61 M3.85 5.61 C3.9 5.59, 3.94 5.56, 4.04 5.51 M3.85 5.61 C3.9 5.59, 3.94 5.56, 4.04 5.51 M4.04 5.51 C4.09 5.47, 4.13 5.43, 4.21 5.36 M4.04 5.51 C4.08 5.48, 4.11 5.45, 4.21 5.36 M4.21 5.36 C4.25 5.32, 4.28 5.27, 4.34 5.19 M4.21 5.36 C4.24 5.32, 4.27 5.29, 4.34 5.19 M4.34 5.19 C4.37 5.12, 4.41 5.05, 4.43 5 M4.34 5.19 C4.37 5.12, 4.4 5.06, 4.43 5 M4.43 5 C4.45 4.95, 4.46 4.9, 4.48 4.8 M4.43 5 C4.45 4.93, 4.47 4.85, 4.48 4.8 M4.48 4.8 C4.49 4.76, 4.49 4.72, 4.5 4.6 M4.48 4.8 C4.49 4.74, 4.49 4.68, 4.5 4.6 M4.5 4.6 C4.49 4.54, 4.48 4.48, 4.47 4.4 M4.5 4.6 C4.49 4.55, 4.48 4.5, 4.47 4.4 M4.47 4.4 C4.45 4.35, 4.43 4.29, 4.4 4.21 M4.47 4.4 C4.44 4.33, 4.42 4.26, 4.4 4.21 M4.4 4.21 C4.36 4.14, 4.32 4.06, 4.3 4.03 M4.4 4.21 C4.37 4.16, 4.34 4.11, 4.3 4.03 M4.3 4.03 C4.26 3.98, 4.22 3.94, 4.16 3.86 M4.3 4.03 C4.25 3.98, 4.21 3.93, 4.16 3.86 M4.16 3.86 C2.6 2.42, 1.05 0.98, 0 0 M4.16 3.86 C3.04 2.83, 1.92 1.79, 0 0 M0 0 C0 0, 0 0, 0 0 M0 0 C0 0, 0 0, 0 0 M0 0 C0 0, 0 0, 0 0 M0 0 C0 0, 0 0, 0 0" stroke="#00000000" stroke-width="1" fill="none"></path></g></g><mask></mask><g stroke-linecap="round"><g transform="translate(42.738962156948446 38.204328536987305) rotate(0 0 0)" fill-rule="evenodd"><path d="M0 0 L0 0 L0 0 L0 0 L0 0" stroke="none" stroke-width="0" fill="#fff" fill-rule="evenodd"></path><path d="M0 0 C0 0, 0 0, 0 0 M0 0 C0 0, 0 0, 0 0 M0 0 C0 0, 0 0, 0 0 M0 0 C0 0, 0 0, 0 0 M0 0 C0 0, 0 0, 0 0 M0 0 C0 0, 0 0, 0 0 M0 0 C0 0, 0 0, 0 0 M0 0 C0 0, 0 0, 0 0 M0 0 C0 0, 0 0, 0 0 M0 0 C0 0, 0 0, 0 0" stroke="#00000000" stroke-width="1" fill="none"></path></g></g><mask></mask><g stroke-linecap="round"><g transform="translate(36.283550245937704 38.204328536987305) rotate(0 0 0)"><path d="M0 0 C0 0, 0 0, 0 0 M0 0 C0 0, 0 0, 0 0" stroke="#00000000" stroke-width="1" fill="none"></path></g></g><mask></mask><g stroke-linecap="round"><g transform="translate(39.51125524776876 44.271860122680664) rotate(0 0 -2.2718610763549805)" fill-rule="evenodd"><path d="M0 0 L0 0 L-0.5 -0.05 L-0.96 -0.18 L-1.37 -0.39 L-1.74 -0.66 L-2.03 -1 L-2.26 -1.39 L-2.4 -1.81 L-2.45 -2.27 L-2.4 -2.73 L-2.26 -3.16 L-2.03 -3.54 L-1.73 -3.88 L-1.37 -4.16 L-0.95 -4.37 L-0.49 -4.5 L0 -4.54 L0.5 -4.5 L0.96 -4.37 L1.37 -4.16 L1.74 -3.88 L2.03 -3.54 L2.26 -3.16 L2.4 -2.73 L2.45 -2.27 L2.4 -1.81 L2.26 -1.39 L2.03 -1 L1.73 -0.66 L1.37 -0.39 L0.95 -0.18 L0.49 -0.05 L0 0 L0 0" stroke="none" stroke-width="0" fill="#fff" fill-rule="evenodd"></path><path d="M0 0 C0 0, 0 0, 0 0 M0 0 C0 0, 0 0, 0 0 M0 0 C-0.1 -0.01, -0.21 -0.02, -0.5 -0.05 M0 0 C-0.16 -0.01, -0.32 -0.03, -0.5 -0.05 M-0.5 -0.05 C-0.65 -0.09, -0.8 -0.13, -0.96 -0.18 M-0.5 -0.05 C-0.6 -0.08, -0.71 -0.11, -0.96 -0.18 M-0.96 -0.18 C-1.05 -0.22, -1.14 -0.27, -1.37 -0.39 M-0.96 -0.18 C-1.05 -0.23, -1.15 -0.27, -1.37 -0.39 M-1.37 -0.39 C-1.45 -0.44, -1.52 -0.5, -1.74 -0.66 M-1.37 -0.39 C-1.45 -0.45, -1.53 -0.51, -1.74 -0.66 M-1.74 -0.66 C-1.8 -0.74, -1.87 -0.82, -2.03 -1 M-1.74 -0.66 C-1.83 -0.76, -1.92 -0.87, -2.03 -1 M-2.03 -1 C-2.09 -1.09, -2.14 -1.18, -2.26 -1.39 M-2.03 -1 C-2.12 -1.14, -2.2 -1.29, -2.26 -1.39 M-2.26 -1.39 C-2.29 -1.48, -2.32 -1.57, -2.4 -1.81 M-2.26 -1.39 C-2.29 -1.48, -2.32 -1.58, -2.4 -1.81 M-2.4 -1.81 C-2.42 -1.98, -2.44 -2.14, -2.45 -2.27 M-2.4 -1.81 C-2.42 -1.96, -2.43 -2.11, -2.45 -2.27 M-2.45 -2.27 C-2.44 -2.41, -2.42 -2.56, -2.4 -2.73 M-2.45 -2.27 C-2.44 -2.42, -2.42 -2.57, -2.4 -2.73 M-2.4 -2.73 C-2.36 -2.86, -2.31 -2.99, -2.26 -3.16 M-2.4 -2.73 C-2.36 -2.85, -2.32 -2.96, -2.26 -3.16 M-2.26 -3.16 C-2.2 -3.26, -2.14 -3.36, -2.03 -3.54 M-2.26 -3.16 C-2.2 -3.26, -2.13 -3.37, -2.03 -3.54 M-2.03 -3.54 C-1.94 -3.64, -1.85 -3.75, -1.73 -3.88 M-2.03 -3.54 C-1.94 -3.65, -1.84 -3.75, -1.73 -3.88 M-1.73 -3.88 C-1.59 -3.99, -1.45 -4.1, -1.37 -4.16 M-1.73 -3.88 C-1.6 -3.98, -1.47 -4.08, -1.37 -4.16 M-1.37 -4.16 C-1.23 -4.23, -1.08 -4.3, -0.95 -4.37 M-1.37 -4.16 C-1.23 -4.23, -1.1 -4.29, -0.95 -4.37 M-0.95 -4.37 C-0.85 -4.4, -0.75 -4.42, -0.49 -4.5 M-0.95 -4.37 C-0.85 -4.39, -0.75 -4.42, -0.49 -4.5 M-0.49 -4.5 C-0.33 -4.51, -0.17 -4.53, 0 -4.54 M-0.49 -4.5 C-0.36 -4.51, -0.22 -4.52, 0 -4.54 M0 -4.54 C0.12 -4.53, 0.24 -4.52, 0.5 -4.5 M0 -4.54 C0.16 -4.53, 0.31 -4.51, 0.5 -4.5 M0.5 -4.5 C0.66 -4.45, 0.82 -4.41, 0.96 -4.37 M0.5 -4.5 C0.64 -4.46, 0.78 -4.42, 0.96 -4.37 M0.96 -4.37 C1.11 -4.29, 1.26 -4.22, 1.37 -4.16 M0.96 -4.37 C1.07 -4.31, 1.18 -4.25, 1.37 -4.16 M1.37 -4.16 C1.51 -4.05, 1.65 -3.94, 1.74 -3.88 M1.37 -4.16 C1.47 -4.08, 1.57 -4.01, 1.74 -3.88 M1.74 -3.88 C1.81 -3.8, 1.88 -3.72, 2.03 -3.54 M1.74 -3.88 C1.83 -3.77, 1.93 -3.67, 2.03 -3.54 M2.03 -3.54 C2.12 -3.39, 2.21 -3.24, 2.26 -3.16 M2.03 -3.54 C2.12 -3.4, 2.2 -3.25, 2.26 -3.16 M2.26 -3.16 C2.31 -2.99, 2.37 -2.83, 2.4 -2.73 M2.26 -3.16 C2.29 -3.06, 2.33 -2.96, 2.4 -2.73 M2.4 -2.73 C2.41 -2.63, 2.42 -2.52, 2.45 -2.27 M2.4 -2.73 C2.42 -2.58, 2.44 -2.42, 2.45 -2.27 M2.45 -2.27 C2.44 -2.17, 2.43 -2.07, 2.4 -1.81 M2.45 -2.27 C2.44 -2.16, 2.43 -2.05, 2.4 -1.81 M2.4 -1.81 C2.35 -1.67, 2.31 -1.53, 2.26 -1.39 M2.4 -1.81 C2.37 -1.71, 2.33 -1.6, 2.26 -1.39 M2.26 -1.39 C2.21 -1.3, 2.15 -1.21, 2.03 -1 M2.26 -1.39 C2.19 -1.28, 2.13 -1.17, 2.03 -1 M2.03 -1 C1.96 -0.92, 1.88 -0.84, 1.73 -0.66 M2.03 -1 C1.94 -0.9, 1.86 -0.81, 1.73 -0.66 M1.73 -0.66 C1.65 -0.6, 1.57 -0.54, 1.37 -0.39 M1.73 -0.66 C1.61 -0.57, 1.48 -0.47, 1.37 -0.39 M1.37 -0.39 C1.25 -0.33, 1.14 -0.27, 0.95 -0.18 M1.37 -0.39 C1.27 -0.34, 1.18 -0.29, 0.95 -0.18 M0.95 -0.18 C0.84 -0.15, 0.73 -0.11, 0.49 -0.05 M0.95 -0.18 C0.79 -0.13, 0.63 -0.09, 0.49 -0.05 M0.49 -0.05 C0.37 -0.03, 0.26 -0.02, 0 0 M0.49 -0.05 C0.34 -0.03, 0.19 -0.02, 0 0 M0 0 C0 0, 0 0, 0 0 M0 0 C0 0, 0 0, 0 0 M0 0 C0 0, 0 0, 0 0 M0 0 C0 0, 0 0, 0 0" stroke="#00000000" stroke-width="1" fill="none"></path></g></g><mask></mask><g stroke-linecap="round"><g transform="translate(43.390043242153524 45.22770690917969) rotate(0 0.041558265686035156 -0.04155921936035156)" fill-rule="evenodd"><path d="M0 0 L0.08 -0.08 L0 0 L0 0" stroke="none" stroke-width="0" fill="#fff" fill-rule="evenodd"></path><path d="M0 0 C0.03 -0.03, 0.05 -0.05, 0.08 -0.08 M0 0 C0.02 -0.02, 0.05 -0.05, 0.08 -0.08 M0.08 -0.08 C0.05 -0.05, 0.02 -0.02, 0 0 M0.08 -0.08 C0.06 -0.06, 0.03 -0.03, 0 0 M0 0 C0 0, 0 0, 0 0 M0 0 C0 0, 0 0, 0 0 M0 0 C0 0, 0 0, 0 0 M0 0 C0 0, 0 0, 0 0" stroke="#00000000" stroke-width="1" fill="none"></path></g></g><mask></mask><g stroke-linecap="round"><g transform="translate(43.76406858700216 44.78441619873047) rotate(0 -0.006926536560058594 0.013853073120117188)" fill-rule="evenodd"><path d="M0 0 L0 0 L-0.01 0.03 L0 0 L0 0" stroke="none" stroke-width="0" fill="#fff" fill-rule="evenodd"></path><path d="M0 0 C0 0, 0 0, 0 0 M0 0 C0 0, 0 0, 0 0 M0 0 C0 0.01, -0.01 0.01, -0.01 0.03 M0 0 C-0.01 0.01, -0.01 0.02, -0.01 0.03 M-0.01 0.03 C-0.01 0.02, 0 0.01, 0 0 M-0.01 0.03 C-0.01 0.02, -0.01 0.02, 0 0 M0 0 C0 0, 0 0, 0 0 M0 0 C0 0, 0 0, 0 0 M0 0 C0 0, 0 0, 0 0 M0 0 C0 0, 0 0, 0 0" stroke="#00000000" stroke-width="1" fill="none"></path></g></g><mask></mask><g stroke-linecap="round"><g transform="translate(43.6116866900295 44.978355407714844) rotate(0 -0.02077770233154297 0.02077960968017578)" fill-rule="evenodd"><path d="M0 0 L-0.04 0.04 L0 0 L0 0" stroke="none" stroke-width="0" fill="#fff" fill-rule="evenodd"></path><path d="M0 0 C-0.02 0.02, -0.03 0.03, -0.04 0.04 M0 0 C-0.02 0.02, -0.03 0.03, -0.04 0.04 M-0.04 0.04 C-0.03 0.03, -0.02 0.02, 0 0 M-0.04 0.04 C-0.03 0.03, -0.02 0.02, 0 0 M0 0 C0 0, 0 0, 0 0 M0 0 C0 0, 0 0, 0 0 M0 0 C0 0, 0 0, 0 0 M0 0 C0 0, 0 0, 0 0" stroke="#00000000" stroke-width="1" fill="none"></path></g></g><mask></mask><g stroke-linecap="round"><g transform="translate(39.51125524776876 44.271860122680664) rotate(0 0 -2.2718610763549805)" fill-rule="evenodd"><path d="M0 0 L0 0 L-0.5 -0.05 L-0.96 -0.18 L-1.37 -0.39 L-1.74 -0.66 L-2.03 -1 L-2.26 -1.39 L-2.4 -1.81 L-2.45 -2.27 L-2.4 -2.73 L-2.26 -3.16 L-2.03 -3.54 L-1.73 -3.88 L-1.37 -4.16 L-0.95 -4.37 L-0.49 -4.5 L0 -4.54 L0.5 -4.5 L0.96 -4.37 L1.37 -4.16 L1.74 -3.88 L2.03 -3.54 L2.26 -3.16 L2.4 -2.73 L2.45 -2.27 L2.4 -1.81 L2.26 -1.39 L2.03 -1 L1.73 -0.66 L1.37 -0.39 L0.95 -0.18 L0.49 -0.05 L0 0 L0 0" stroke="none" stroke-width="0" fill="#2c75ce" fill-rule="evenodd"></path><path d="M0 0 C0 0, 0 0, 0 0 M0 0 C0 0, 0 0, 0 0 M0 0 C-0.14 -0.01, -0.28 -0.03, -0.5 -0.05 M0 0 C-0.14 -0.01, -0.28 -0.03, -0.5 -0.05 M-0.5 -0.05 C-0.64 -0.09, -0.79 -0.13, -0.96 -0.18 M-0.5 -0.05 C-0.62 -0.08, -0.74 -0.12, -0.96 -0.18 M-0.96 -0.18 C-1.1 -0.25, -1.24 -0.32, -1.37 -0.39 M-0.96 -0.18 C-1.05 -0.22, -1.14 -0.27, -1.37 -0.39 M-1.37 -0.39 C-1.48 -0.47, -1.6 -0.56, -1.74 -0.66 M-1.37 -0.39 C-1.51 -0.49, -1.65 -0.6, -1.74 -0.66 M-1.74 -0.66 C-1.84 -0.79, -1.95 -0.91, -2.03 -1 M-1.74 -0.66 C-1.85 -0.79, -1.97 -0.92, -2.03 -1 M-2.03 -1 C-2.12 -1.15, -2.21 -1.31, -2.26 -1.39 M-2.03 -1 C-2.12 -1.14, -2.2 -1.29, -2.26 -1.39 M-2.26 -1.39 C-2.3 -1.5, -2.34 -1.62, -2.4 -1.81 M-2.26 -1.39 C-2.31 -1.53, -2.36 -1.68, -2.4 -1.81 M-2.4 -1.81 C-2.41 -1.92, -2.42 -2.02, -2.45 -2.27 M-2.4 -1.81 C-2.42 -1.98, -2.44 -2.15, -2.45 -2.27 M-2.45 -2.27 C-2.44 -2.39, -2.43 -2.51, -2.4 -2.73 M-2.45 -2.27 C-2.44 -2.37, -2.43 -2.46, -2.4 -2.73 M-2.4 -2.73 C-2.35 -2.87, -2.31 -3.01, -2.26 -3.16 M-2.4 -2.73 C-2.37 -2.82, -2.34 -2.9, -2.26 -3.16 M-2.26 -3.16 C-2.21 -3.24, -2.16 -3.32, -2.03 -3.54 M-2.26 -3.16 C-2.19 -3.28, -2.12 -3.39, -2.03 -3.54 M-2.03 -3.54 C-1.97 -3.62, -1.9 -3.69, -1.73 -3.88 M-2.03 -3.54 C-1.94 -3.65, -1.85 -3.75, -1.73 -3.88 M-1.73 -3.88 C-1.63 -3.96, -1.53 -4.03, -1.37 -4.16 M-1.73 -3.88 C-1.62 -3.97, -1.5 -4.05, -1.37 -4.16 M-1.37 -4.16 C-1.24 -4.22, -1.12 -4.28, -0.95 -4.37 M-1.37 -4.16 C-1.21 -4.24, -1.06 -4.31, -0.95 -4.37 M-0.95 -4.37 C-0.78 -4.41, -0.62 -4.46, -0.49 -4.5 M-0.95 -4.37 C-0.79 -4.41, -0.63 -4.46, -0.49 -4.5 M-0.49 -4.5 C-0.31 -4.51, -0.13 -4.53, 0 -4.54 M-0.49 -4.5 C-0.34 -4.51, -0.19 -4.53, 0 -4.54 M0 -4.54 C0.19 -4.53, 0.39 -4.51, 0.5 -4.5 M0 -4.54 C0.12 -4.53, 0.24 -4.52, 0.5 -4.5 M0.5 -4.5 C0.64 -4.46, 0.78 -4.42, 0.96 -4.37 M0.5 -4.5 C0.62 -4.46, 0.75 -4.43, 0.96 -4.37 M0.96 -4.37 C1.05 -4.32, 1.14 -4.27, 1.37 -4.16 M0.96 -4.37 C1.08 -4.3, 1.21 -4.24, 1.37 -4.16 M1.37 -4.16 C1.45 -4.1, 1.52 -4.05, 1.74 -3.88 M1.37 -4.16 C1.46 -4.09, 1.55 -4.02, 1.74 -3.88 M1.74 -3.88 C1.84 -3.76, 1.95 -3.64, 2.03 -3.54 M1.74 -3.88 C1.83 -3.77, 1.93 -3.66, 2.03 -3.54 M2.03 -3.54 C2.08 -3.46, 2.13 -3.38, 2.26 -3.16 M2.03 -3.54 C2.09 -3.44, 2.15 -3.34, 2.26 -3.16 M2.26 -3.16 C2.3 -3.04, 2.34 -2.93, 2.4 -2.73 M2.26 -3.16 C2.31 -3, 2.37 -2.83, 2.4 -2.73 M2.4 -2.73 C2.42 -2.6, 2.43 -2.48, 2.45 -2.27 M2.4 -2.73 C2.42 -2.56, 2.44 -2.39, 2.45 -2.27 M2.45 -2.27 C2.44 -2.18, 2.43 -2.08, 2.4 -1.81 M2.45 -2.27 C2.44 -2.16, 2.43 -2.04, 2.4 -1.81 M2.4 -1.81 C2.37 -1.71, 2.33 -1.6, 2.26 -1.39 M2.4 -1.81 C2.36 -1.69, 2.32 -1.57, 2.26 -1.39 M2.26 -1.39 C2.21 -1.3, 2.16 -1.22, 2.03 -1 M2.26 -1.39 C2.18 -1.25, 2.09 -1.11, 2.03 -1 M2.03 -1 C1.92 -0.88, 1.82 -0.76, 1.73 -0.66 M2.03 -1 C1.94 -0.89, 1.84 -0.79, 1.73 -0.66 M1.73 -0.66 C1.6 -0.57, 1.47 -0.47, 1.37 -0.39 M1.73 -0.66 C1.63 -0.59, 1.53 -0.51, 1.37 -0.39 M1.37 -0.39 C1.24 -0.32, 1.1 -0.26, 0.95 -0.18 M1.37 -0.39 C1.26 -0.33, 1.16 -0.28, 0.95 -0.18 M0.95 -0.18 C0.85 -0.15, 0.75 -0.12, 0.49 -0.05 M0.95 -0.18 C0.77 -0.13, 0.58 -0.07, 0.49 -0.05 M0.49 -0.05 C0.38 -0.04, 0.26 -0.02, 0 0 M0.49 -0.05 C0.36 -0.03, 0.23 -0.02, 0 0 M0 0 C0 0, 0 0, 0 0 M0 0 C0 0, 0 0, 0 0 M0 0 C0 0, 0 0, 0 0 M0 0 C0 0, 0 0, 0 0" stroke="#00000000" stroke-width="1" fill="none"></path></g></g><mask></mask><g stroke-linecap="round"><g transform="translate(50.20562742489278 45.39393997192383) rotate(0 0 -3.4354982376098633)" fill-rule="evenodd"><path d="M0 0 L0 0 L-0.21 -0.02 L-0.41 -0.08 L-0.59 -0.18 L-0.74 -0.31 L-0.87 -0.46 L-0.97 -0.64 L-1.03 -0.84 L-1.05 -1.05 L-1.05 -5.82 L-1.05 -5.82 L-1.03 -6.03 L-0.97 -6.23 L-0.87 -6.41 L-0.74 -6.56 L-0.59 -6.69 L-0.41 -6.79 L-0.21 -6.85 L0 -6.87 L0.21 -6.85 L0.41 -6.79 L0.59 -6.69 L0.74 -6.56 L0.87 -6.41 L0.97 -6.23 L1.03 -6.03 L1.05 -5.82 L1.05 -1.07 L1.05 -1.07 L1.03 -0.85 L0.97 -0.65 L0.87 -0.47 L0.74 -0.31 L0.59 -0.18 L0.41 -0.08 L0.21 -0.02 L0 0 L0 0" stroke="none" stroke-width="0" fill="#d7d5e7" fill-rule="evenodd"></path><path d="M0 0 C0 0, 0 0, 0 0 M0 0 C0 0, 0 0, 0 0 M0 0 C-0.07 -0.01, -0.15 -0.01, -0.21 -0.02 M0 0 C-0.08 -0.01, -0.15 -0.02, -0.21 -0.02 M-0.21 -0.02 C-0.26 -0.04, -0.31 -0.05, -0.41 -0.08 M-0.21 -0.02 C-0.26 -0.04, -0.31 -0.05, -0.41 -0.08 M-0.41 -0.08 C-0.46 -0.11, -0.52 -0.14, -0.59 -0.18 M-0.41 -0.08 C-0.46 -0.11, -0.5 -0.13, -0.59 -0.18 M-0.59 -0.18 C-0.63 -0.21, -0.67 -0.25, -0.74 -0.31 M-0.59 -0.18 C-0.63 -0.22, -0.68 -0.25, -0.74 -0.31 M-0.74 -0.31 C-0.78 -0.35, -0.81 -0.39, -0.87 -0.46 M-0.74 -0.31 C-0.79 -0.36, -0.83 -0.41, -0.87 -0.46 M-0.87 -0.46 C-0.9 -0.52, -0.93 -0.57, -0.97 -0.64 M-0.87 -0.46 C-0.91 -0.53, -0.94 -0.6, -0.97 -0.64 M-0.97 -0.64 C-0.99 -0.72, -1.02 -0.79, -1.03 -0.84 M-0.97 -0.64 C-0.99 -0.7, -1.01 -0.76, -1.03 -0.84 M-1.03 -0.84 C-1.04 -0.91, -1.05 -0.98, -1.05 -1.05 M-1.03 -0.84 C-1.04 -0.89, -1.04 -0.94, -1.05 -1.05 M-1.05 -1.05 C-1.05 -2.51, -1.05 -3.96, -1.05 -5.82 M-1.05 -1.05 C-1.05 -2.71, -1.05 -4.37, -1.05 -5.82 M-1.05 -5.82 C-1.05 -5.82, -1.05 -5.82, -1.05 -5.82 M-1.05 -5.82 C-1.05 -5.82, -1.05 -5.82, -1.05 -5.82 M-1.05 -5.82 C-1.05 -5.87, -1.04 -5.93, -1.03 -6.03 M-1.05 -5.82 C-1.04 -5.9, -1.04 -5.98, -1.03 -6.03 M-1.03 -6.03 C-1.01 -6.09, -1 -6.15, -0.97 -6.23 M-1.03 -6.03 C-1.01 -6.1, -0.99 -6.18, -0.97 -6.23 M-0.97 -6.23 C-0.93 -6.3, -0.89 -6.37, -0.87 -6.41 M-0.97 -6.23 C-0.94 -6.29, -0.9 -6.35, -0.87 -6.41 M-0.87 -6.41 C-0.83 -6.46, -0.79 -6.51, -0.74 -6.56 M-0.87 -6.41 C-0.82 -6.47, -0.78 -6.53, -0.74 -6.56 M-0.74 -6.56 C-0.69 -6.61, -0.63 -6.66, -0.59 -6.69 M-0.74 -6.56 C-0.7 -6.6, -0.65 -6.64, -0.59 -6.69 M-0.59 -6.69 C-0.54 -6.72, -0.5 -6.74, -0.41 -6.79 M-0.59 -6.69 C-0.55 -6.71, -0.52 -6.73, -0.41 -6.79 M-0.41 -6.79 C-0.36 -6.8, -0.31 -6.82, -0.21 -6.85 M-0.41 -6.79 C-0.37 -6.8, -0.32 -6.82, -0.21 -6.85 M-0.21 -6.85 C-0.15 -6.86, -0.08 -6.86, 0 -6.87 M-0.21 -6.85 C-0.17 -6.85, -0.12 -6.86, 0 -6.87 M0 -6.87 C0.07 -6.86, 0.15 -6.86, 0.21 -6.85 M0 -6.87 C0.07 -6.86, 0.14 -6.86, 0.21 -6.85 M0.21 -6.85 C0.26 -6.83, 0.31 -6.82, 0.41 -6.79 M0.21 -6.85 C0.25 -6.84, 0.29 -6.82, 0.41 -6.79 M0.41 -6.79 C0.48 -6.75, 0.55 -6.71, 0.59 -6.69 M0.41 -6.79 C0.47 -6.75, 0.54 -6.72, 0.59 -6.69 M0.59 -6.69 C0.65 -6.64, 0.7 -6.6, 0.74 -6.56 M0.59 -6.69 C0.62 -6.66, 0.66 -6.64, 0.74 -6.56 M0.74 -6.56 C0.79 -6.5, 0.84 -6.45, 0.87 -6.41 M0.74 -6.56 C0.79 -6.51, 0.83 -6.46, 0.87 -6.41 M0.87 -6.41 C0.91 -6.35, 0.94 -6.29, 0.97 -6.23 M0.87 -6.41 C0.9 -6.35, 0.93 -6.3, 0.97 -6.23 M0.97 -6.23 C0.99 -6.17, 1 -6.12, 1.03 -6.03 M0.97 -6.23 C0.99 -6.17, 1.01 -6.1, 1.03 -6.03 M1.03 -6.03 C1.04 -5.98, 1.04 -5.93, 1.05 -5.82 M1.03 -6.03 C1.04 -5.99, 1.04 -5.94, 1.05 -5.82 M1.05 -5.82 C1.05 -3.92, 1.05 -2.03, 1.05 -1.07 M1.05 -5.82 C1.05 -4.13, 1.05 -2.45, 1.05 -1.07 M1.05 -1.07 C1.05 -1.07, 1.05 -1.07, 1.05 -1.07 M1.05 -1.07 C1.05 -1.07, 1.05 -1.07, 1.05 -1.07 M1.05 -1.07 C1.04 -0.98, 1.04 -0.9, 1.03 -0.85 M1.05 -1.07 C1.05 -1, 1.04 -0.94, 1.03 -0.85 M1.03 -0.85 C1.02 -0.81, 1.01 -0.77, 0.97 -0.65 M1.03 -0.85 C1.02 -0.8, 1 -0.75, 0.97 -0.65 M0.97 -0.65 C0.93 -0.58, 0.9 -0.52, 0.87 -0.47 M0.97 -0.65 C0.94 -0.58, 0.9 -0.52, 0.87 -0.47 M0.87 -0.47 C0.83 -0.41, 0.78 -0.36, 0.74 -0.31 M0.87 -0.47 C0.85 -0.43, 0.82 -0.4, 0.74 -0.31 M0.74 -0.31 C0.7 -0.27, 0.65 -0.23, 0.59 -0.18 M0.74 -0.31 C0.69 -0.26, 0.64 -0.22, 0.59 -0.18 M0.59 -0.18 C0.53 -0.15, 0.47 -0.11, 0.41 -0.08 M0.59 -0.18 C0.55 -0.16, 0.51 -0.14, 0.41 -0.08 M0.41 -0.08 C0.33 -0.06, 0.26 -0.03, 0.21 -0.02 M0.41 -0.08 C0.36 -0.07, 0.31 -0.05, 0.21 -0.02 M0.21 -0.02 C0.17 -0.02, 0.12 -0.01, 0 0 M0.21 -0.02 C0.13 -0.01, 0.05 -0.01, 0 0 M0 0 C0 0, 0 0, 0 0 M0 0 C0 0, 0 0, 0 0 M0 0 C0 0, 0 0, 0 0 M0 0 C0 0, 0 0, 0 0" stroke="#00000000" stroke-width="1" fill="none"></path></g></g><mask></mask></svg>