<svg version="1.1" xmlns="http://www.w3.org/2000/svg" viewBox="0 0 182 276.5833336114881" width="182" height="276.5833336114881">
  <!-- svg-source:excalidraw -->
  
  <defs>
    
    
  </defs>
  <g stroke-linecap="round"><g transform="translate(126.81784869597709 107.33786690581007) rotate(0 -36.210705838834315 36.16728311460545)" fill-rule="evenodd"><path d="M0 0 L0 39.77 L-104.98 39.77 L-104.98 72.33 L32.56 72.33 L32.56 0 L0 0 L0 0" stroke="none" stroke-width="0" fill="#4285f4" fill-rule="evenodd"></path><path d="M0 0 C0 14.04, 0 28.09, 0 39.77 M0 0 C0 15.49, 0 30.98, 0 39.77 M0 39.77 C-39.16 39.77, -78.33 39.77, -104.98 39.77 M0 39.77 C-22.25 39.77, -44.5 39.77, -104.98 39.77 M-104.98 39.77 C-104.98 51.14, -104.98 62.52, -104.98 72.33 M-104.98 39.77 C-104.98 52.68, -104.98 65.59, -104.98 72.33 M-104.98 72.33 C-71.46 72.33, -37.93 72.33, 32.56 72.33 M-104.98 72.33 C-72.33 72.33, -39.68 72.33, 32.56 72.33 M32.56 72.33 C32.56 54.79, 32.56 37.25, 32.56 0 M32.56 72.33 C32.56 47.46, 32.56 22.58, 32.56 0 M32.56 0 C24.33 0, 16.1 0, 0 0 M32.56 0 C19.75 0, 6.94 0, 0 0 M0 0 C0 0, 0 0, 0 0 M0 0 C0 0, 0 0, 0 0 M0 0 C0 0, 0 0, 0 0 M0 0 C0 0, 0 0, 0 0" stroke="#000000" stroke-width="1" fill="none"></path></g></g><mask></mask><g stroke-linecap="round"><g transform="translate(54.39644012381359 78.33456778196341) rotate(0 36.210702733329214 -36.16728389098171)" fill-rule="evenodd"><path d="M0 0 L0 -39.77 L104.98 -39.77 L104.98 -72.33 L-32.56 -72.33 L-32.56 0 L0 0 L0 0" stroke="none" stroke-width="0" fill="#aecbfa" fill-rule="evenodd"></path><path d="M0 0 C0 -12.13, 0 -24.26, 0 -39.77 M0 0 C0 -13.32, 0 -26.63, 0 -39.77 M0 -39.77 C24.24 -39.77, 48.49 -39.77, 104.98 -39.77 M0 -39.77 C38.96 -39.77, 77.93 -39.77, 104.98 -39.77 M104.98 -39.77 C104.98 -51.27, 104.98 -62.78, 104.98 -72.33 M104.98 -39.77 C104.98 -47.66, 104.98 -55.56, 104.98 -72.33 M104.98 -72.33 C72.62 -72.33, 40.25 -72.33, -32.56 -72.33 M104.98 -72.33 C51.91 -72.33, -1.17 -72.33, -32.56 -72.33 M-32.56 -72.33 C-32.56 -44.13, -32.56 -15.93, -32.56 0 M-32.56 -72.33 C-32.56 -45.16, -32.56 -17.99, -32.56 0 M-32.56 0 C-21.75 0, -10.94 0, 0 0 M-32.56 0 C-25.43 0, -18.3 0, 0 0 M0 0 C0 0, 0 0, 0 0 M0 0 C0 0, 0 0, 0 0 M0 0 C0 0, 0 0, 0 0 M0 0 C0 0, 0 0, 0 0" stroke="#000000" stroke-width="1" fill="none"></path></g></g><mask></mask><g stroke-linecap="round"><g transform="translate(72.54521033282572 56.62551616331143) rotate(0 18.0619325243171 36.21070428608175)" fill-rule="evenodd"><path d="M0 0 L0 39.86 L-50.71 39.86 L-50.71 72.42 L36.12 72.42 L36.12 32.56 L86.84 32.56 L86.84 0 L0 0 L0 0" stroke="none" stroke-width="0" fill="#669df6" fill-rule="evenodd"></path><path d="M0 0 C0 9.65, 0 19.31, 0 39.86 M0 0 C0 8.62, 0 17.23, 0 39.86 M0 39.86 C-15.59 39.86, -31.18 39.86, -50.71 39.86 M0 39.86 C-11.3 39.86, -22.59 39.86, -50.71 39.86 M-50.71 39.86 C-50.71 52.45, -50.71 65.04, -50.71 72.42 M-50.71 39.86 C-50.71 51.47, -50.71 63.08, -50.71 72.42 M-50.71 72.42 C-25.5 72.42, -0.28 72.42, 36.12 72.42 M-50.71 72.42 C-19.27 72.42, 12.17 72.42, 36.12 72.42 M36.12 72.42 C36.12 61.21, 36.12 50, 36.12 32.56 M36.12 72.42 C36.12 63.64, 36.12 54.87, 36.12 32.56 M36.12 32.56 C49.88 32.56, 63.64 32.56, 86.84 32.56 M36.12 32.56 C46.37 32.56, 56.61 32.56, 86.84 32.56 M86.84 32.56 C86.84 22.2, 86.84 11.84, 86.84 0 M86.84 32.56 C86.84 25.35, 86.84 18.14, 86.84 0 M86.84 0 C67.49 0, 48.14 0, 0 0 M86.84 0 C61.75 0, 36.67 0, 0 0 M0 0 C0 0, 0 0, 0 0 M0 0 C0 0, 0 0, 0 0 M0 0 C0 0, 0 0, 0 0 M0 0 C0 0, 0 0, 0 0" stroke="#000000" stroke-width="1" fill="none"></path></g></g><mask></mask><g transform="translate(6 182.58333361148811) rotate(0 85 44)"><text x="85" y="0" font-family="Helvetica, Segoe UI Emoji" font-size="38.320132013201324px" fill="#000000" text-anchor="middle" style="white-space: pre;" direction="ltr" dominant-baseline="text-before-edge">Persistent</text><text x="85" y="44" font-family="Helvetica, Segoe UI Emoji" font-size="38.320132013201324px" fill="#000000" text-anchor="middle" style="white-space: pre;" direction="ltr" dominant-baseline="text-before-edge">Disk</text></g></svg>