<svg version="1.1" xmlns="http://www.w3.org/2000/svg" viewBox="0 0 172 84" width="172" height="84">
  <!-- svg-source:excalidraw -->
  
  <defs>
    
    
  </defs>
  <g stroke-linecap="round" transform="translate(6 6) rotate(0 80 36)"><path d="M18 0 C56.36 0, 94.73 0, 142 0 C154 0, 160 6, 160 18 C160 25.51, 160 33.03, 160 54 C160 66, 154 72, 142 72 C106.98 72, 71.95 72, 18 72 C6 72, 0 66, 0 54 C0 45.04, 0 36.09, 0 18 C0 6, 6 0, 18 0" stroke="none" stroke-width="0" fill="#FFF"></path><path d="M18 0 C57.24 0, 96.47 0, 142 0 M18 0 C45.42 0, 72.84 0, 142 0 M142 0 C154 0, 160 6, 160 18 M142 0 C154 0, 160 6, 160 18 M160 18 C160 28.24, 160 38.48, 160 54 M160 18 C160 27.92, 160 37.85, 160 54 M160 54 C160 66, 154 72, 142 72 M160 54 C160 66, 154 72, 142 72 M142 72 C111.66 72, 81.32 72, 18 72 M142 72 C105.62 72, 69.24 72, 18 72 M18 72 C6 72, 0 66, 0 54 M18 72 C6 72, 0 66, 0 54 M0 54 C0 45.49, 0 36.98, 0 18 M0 54 C0 45.31, 0 36.62, 0 18 M0 18 C0 6, 6 0, 18 0 M0 18 C0 6, 6 0, 18 0" stroke="#4285f4" stroke-width="2" fill="none"></path></g><g transform="translate(71 28) rotate(0 27 14)"><text x="0" y="0" font-family="Helvetica, Segoe UI Emoji" font-size="12px" fill="#000000" text-anchor="start" style="white-space: pre;" direction="ltr" dominant-baseline="text-before-edge">Transfer</text><text x="0" y="14" font-family="Helvetica, Segoe UI Emoji" font-size="12px" fill="#000000" text-anchor="start" style="white-space: pre;" direction="ltr" dominant-baseline="text-before-edge">Appliance</text></g><g stroke-linecap="round"><g transform="translate(52.62965393066406 35.577931404113656) rotate(0 -9.119998931884766 2.0850915908813477)" fill-rule="evenodd"><path d="M0 0 L-18.31 0 L-18.31 0 L-18.41 0.01 L-18.5 0.04 L-18.58 0.08 L-18.65 0.14 L-18.7 0.21 L-18.75 0.29 L-18.78 0.38 L-18.79 0.47 L-18.79 3.69 L-18.79 3.69 L-18.78 3.79 L-18.75 3.87 L-18.71 3.96 L-18.65 4.03 L-18.58 4.08 L-18.5 4.13 L-18.41 4.16 L-18.31 4.17 L0 4.17 L0 4.17 L0.1 4.17 L0.19 4.16 L0.27 4.13 L0.35 4.08 L0.42 4.02 L0.48 3.95 L0.52 3.87 L0.54 3.77 L0.55 3.7 L0.55 0.5 L0.55 0.5 L0.54 0.4 L0.52 0.31 L0.47 0.23 L0.42 0.16 L0.35 0.1 L0.27 0.05 L0.18 0.02 L0.09 0.01 L0 0.01 L0 0" stroke="none" stroke-width="0" fill="#4285f4" fill-rule="evenodd"></path><path d="M0 0 C-3.9 0, -7.8 0, -18.31 0 M0 0 C-6.15 0, -12.29 0, -18.31 0 M-18.31 0 C-18.31 0, -18.31 0, -18.31 0 M-18.31 0 C-18.31 0, -18.31 0, -18.31 0 M-18.31 0 C-18.35 0, -18.39 0.01, -18.41 0.01 M-18.31 0 C-18.34 0, -18.36 0.01, -18.41 0.01 M-18.41 0.01 C-18.43 0.02, -18.45 0.02, -18.5 0.04 M-18.41 0.01 C-18.43 0.02, -18.46 0.03, -18.5 0.04 M-18.5 0.04 C-18.51 0.05, -18.53 0.05, -18.58 0.08 M-18.5 0.04 C-18.53 0.05, -18.56 0.07, -18.58 0.08 M-18.58 0.08 C-18.59 0.09, -18.61 0.11, -18.65 0.14 M-18.58 0.08 C-18.59 0.1, -18.61 0.11, -18.65 0.14 M-18.65 0.14 C-18.66 0.16, -18.68 0.18, -18.7 0.21 M-18.65 0.14 C-18.66 0.15, -18.67 0.17, -18.7 0.21 M-18.7 0.21 C-18.72 0.23, -18.73 0.26, -18.75 0.29 M-18.7 0.21 C-18.72 0.24, -18.74 0.27, -18.75 0.29 M-18.75 0.29 C-18.76 0.31, -18.76 0.33, -18.78 0.38 M-18.75 0.29 C-18.76 0.31, -18.76 0.33, -18.78 0.38 M-18.78 0.38 C-18.78 0.4, -18.78 0.42, -18.79 0.47 M-18.78 0.38 C-18.78 0.41, -18.78 0.45, -18.79 0.47 M-18.79 0.47 C-18.79 1.46, -18.79 2.44, -18.79 3.69 M-18.79 0.47 C-18.79 1.31, -18.79 2.15, -18.79 3.69 M-18.79 3.69 C-18.79 3.69, -18.79 3.69, -18.79 3.69 M-18.79 3.69 C-18.79 3.69, -18.79 3.69, -18.79 3.69 M-18.79 3.69 C-18.78 3.72, -18.78 3.75, -18.78 3.79 M-18.79 3.69 C-18.78 3.71, -18.78 3.74, -18.78 3.79 M-18.78 3.79 C-18.77 3.81, -18.76 3.84, -18.75 3.87 M-18.78 3.79 C-18.77 3.81, -18.76 3.83, -18.75 3.87 M-18.75 3.87 C-18.74 3.89, -18.73 3.91, -18.71 3.96 M-18.75 3.87 C-18.74 3.89, -18.73 3.91, -18.71 3.96 M-18.71 3.96 C-18.68 3.98, -18.66 4.01, -18.65 4.03 M-18.71 3.96 C-18.69 3.98, -18.66 4.01, -18.65 4.03 M-18.65 4.03 C-18.63 4.04, -18.62 4.05, -18.58 4.08 M-18.65 4.03 C-18.63 4.04, -18.6 4.06, -18.58 4.08 M-18.58 4.08 C-18.56 4.1, -18.53 4.11, -18.5 4.13 M-18.58 4.08 C-18.56 4.09, -18.54 4.1, -18.5 4.13 M-18.5 4.13 C-18.48 4.13, -18.45 4.14, -18.41 4.16 M-18.5 4.13 C-18.48 4.13, -18.45 4.14, -18.41 4.16 M-18.41 4.16 C-18.39 4.16, -18.37 4.16, -18.31 4.17 M-18.41 4.16 C-18.38 4.16, -18.35 4.16, -18.31 4.17 M-18.31 4.17 C-12.92 4.17, -7.53 4.17, 0 4.17 M-18.31 4.17 C-12.3 4.17, -6.29 4.17, 0 4.17 M0 4.17 C0 4.17, 0 4.17, 0 4.17 M0 4.17 C0 4.17, 0 4.17, 0 4.17 M0 4.17 C0.03 4.17, 0.05 4.17, 0.1 4.17 M0 4.17 C0.04 4.17, 0.08 4.17, 0.1 4.17 M0.1 4.17 C0.12 4.17, 0.14 4.16, 0.19 4.16 M0.1 4.17 C0.13 4.17, 0.16 4.16, 0.19 4.16 M0.19 4.16 C0.21 4.15, 0.24 4.14, 0.27 4.13 M0.19 4.16 C0.21 4.15, 0.23 4.14, 0.27 4.13 M0.27 4.13 C0.29 4.11, 0.31 4.1, 0.35 4.08 M0.27 4.13 C0.3 4.11, 0.33 4.09, 0.35 4.08 M0.35 4.08 C0.37 4.06, 0.39 4.05, 0.42 4.02 M0.35 4.08 C0.37 4.07, 0.38 4.05, 0.42 4.02 M0.42 4.02 C0.44 3.99, 0.46 3.97, 0.48 3.95 M0.42 4.02 C0.43 4, 0.45 3.98, 0.48 3.95 M0.48 3.95 C0.49 3.92, 0.5 3.9, 0.52 3.87 M0.48 3.95 C0.49 3.92, 0.51 3.89, 0.52 3.87 M0.52 3.87 C0.53 3.83, 0.53 3.8, 0.54 3.77 M0.52 3.87 C0.52 3.84, 0.53 3.82, 0.54 3.77 M0.54 3.77 C0.54 3.75, 0.54 3.73, 0.55 3.7 M0.54 3.77 C0.54 3.75, 0.54 3.73, 0.55 3.7 M0.55 3.7 C0.55 2.51, 0.55 1.32, 0.55 0.5 M0.55 3.7 C0.55 2.43, 0.55 1.17, 0.55 0.5 M0.55 0.5 C0.55 0.5, 0.55 0.5, 0.55 0.5 M0.55 0.5 C0.55 0.5, 0.55 0.5, 0.55 0.5 M0.55 0.5 C0.55 0.48, 0.54 0.46, 0.54 0.4 M0.55 0.5 C0.54 0.48, 0.54 0.46, 0.54 0.4 M0.54 0.4 C0.54 0.38, 0.53 0.36, 0.52 0.31 M0.54 0.4 C0.53 0.37, 0.52 0.34, 0.52 0.31 M0.52 0.31 C0.5 0.29, 0.49 0.26, 0.47 0.23 M0.52 0.31 C0.51 0.29, 0.49 0.27, 0.47 0.23 M0.47 0.23 C0.46 0.21, 0.44 0.19, 0.42 0.16 M0.47 0.23 C0.45 0.2, 0.43 0.17, 0.42 0.16 M0.42 0.16 C0.4 0.14, 0.38 0.12, 0.35 0.1 M0.42 0.16 C0.4 0.14, 0.38 0.12, 0.35 0.1 M0.35 0.1 C0.33 0.08, 0.31 0.07, 0.27 0.05 M0.35 0.1 C0.33 0.09, 0.32 0.08, 0.27 0.05 M0.27 0.05 C0.24 0.04, 0.21 0.03, 0.18 0.02 M0.27 0.05 C0.24 0.04, 0.22 0.03, 0.18 0.02 M0.18 0.02 C0.15 0.01, 0.12 0.01, 0.09 0.01 M0.18 0.02 C0.15 0.01, 0.12 0.01, 0.09 0.01 M0.09 0.01 C0.06 0.01, 0.04 0.01, 0 0.01 M0.09 0.01 C0.06 0.01, 0.02 0.01, 0 0.01 M0 0.01 C0 0, 0 0, 0 0 M0 0.01 C0 0, 0 0, 0 0 M0 0 C0 0, 0 0, 0 0 M0 0 C0 0, 0 0, 0 0" stroke="#00000000" stroke-width="1" fill="none"></path></g></g><mask></mask><g stroke-linecap="round"><g transform="translate(36.138620376586914 38.7448272705077) rotate(0 4.76837158203125e-7 -1.0372414588928223)" fill-rule="evenodd"><path d="M0 0 L0 0 L-0.11 -0.01 L-0.21 -0.02 L-0.4 -0.08 L-0.58 -0.18 L-0.73 -0.3 L-0.86 -0.46 L-0.96 -0.63 L-1.02 -0.83 L-1.03 -0.93 L-1.04 -1.04 L-1.03 -1.14 L-1.02 -1.25 L-0.96 -1.44 L-0.86 -1.62 L-0.73 -1.77 L-0.58 -1.9 L-0.4 -1.99 L-0.21 -2.05 L-0.11 -2.07 L0 -2.07 L0.11 -2.07 L0.21 -2.05 L0.4 -1.99 L0.58 -1.9 L0.73 -1.77 L0.86 -1.62 L0.96 -1.44 L1.02 -1.25 L1.03 -1.14 L1.04 -1.04 L1.03 -0.93 L1.02 -0.83 L0.96 -0.63 L0.86 -0.46 L0.73 -0.3 L0.58 -0.18 L0.4 -0.08 L0.21 -0.02 L0.11 -0.01 L0 0 L0 0" stroke="none" stroke-width="0" fill="#4285f4" fill-rule="evenodd"></path><path d="M0 0 C0 0, 0 0, 0 0 M0 0 C0 0, 0 0, 0 0 M0 0 C-0.03 0, -0.07 0, -0.11 -0.01 M0 0 C-0.04 0, -0.08 0, -0.11 -0.01 M-0.11 -0.01 C-0.15 -0.01, -0.18 -0.02, -0.21 -0.02 M-0.11 -0.01 C-0.13 -0.01, -0.15 -0.01, -0.21 -0.02 M-0.21 -0.02 C-0.29 -0.05, -0.36 -0.07, -0.4 -0.08 M-0.21 -0.02 C-0.25 -0.03, -0.29 -0.05, -0.4 -0.08 M-0.4 -0.08 C-0.47 -0.12, -0.53 -0.15, -0.58 -0.18 M-0.4 -0.08 C-0.45 -0.1, -0.49 -0.13, -0.58 -0.18 M-0.58 -0.18 C-0.62 -0.21, -0.65 -0.24, -0.73 -0.3 M-0.58 -0.18 C-0.62 -0.21, -0.67 -0.25, -0.73 -0.3 M-0.73 -0.3 C-0.78 -0.36, -0.83 -0.42, -0.86 -0.46 M-0.73 -0.3 C-0.76 -0.34, -0.79 -0.37, -0.86 -0.46 M-0.86 -0.46 C-0.88 -0.5, -0.91 -0.55, -0.96 -0.63 M-0.86 -0.46 C-0.89 -0.51, -0.92 -0.56, -0.96 -0.63 M-0.96 -0.63 C-0.97 -0.68, -0.99 -0.73, -1.02 -0.83 M-0.96 -0.63 C-0.97 -0.69, -0.99 -0.75, -1.02 -0.83 M-1.02 -0.83 C-1.02 -0.85, -1.02 -0.88, -1.03 -0.93 M-1.02 -0.83 C-1.02 -0.86, -1.03 -0.9, -1.03 -0.93 M-1.03 -0.93 C-1.03 -0.97, -1.04 -1.01, -1.04 -1.04 M-1.03 -0.93 C-1.03 -0.97, -1.04 -1, -1.04 -1.04 M-1.04 -1.04 C-1.04 -1.07, -1.03 -1.1, -1.03 -1.14 M-1.04 -1.04 C-1.04 -1.08, -1.03 -1.12, -1.03 -1.14 M-1.03 -1.14 C-1.03 -1.18, -1.02 -1.21, -1.02 -1.25 M-1.03 -1.14 C-1.03 -1.18, -1.02 -1.22, -1.02 -1.25 M-1.02 -1.25 C-1 -1.29, -0.99 -1.34, -0.96 -1.44 M-1.02 -1.25 C-1 -1.29, -0.99 -1.33, -0.96 -1.44 M-0.96 -1.44 C-0.93 -1.5, -0.9 -1.55, -0.86 -1.62 M-0.96 -1.44 C-0.93 -1.49, -0.9 -1.54, -0.86 -1.62 M-0.86 -1.62 C-0.82 -1.66, -0.79 -1.71, -0.73 -1.77 M-0.86 -1.62 C-0.83 -1.66, -0.8 -1.7, -0.73 -1.77 M-0.73 -1.77 C-0.68 -1.81, -0.63 -1.85, -0.58 -1.9 M-0.73 -1.77 C-0.69 -1.8, -0.65 -1.84, -0.58 -1.9 M-0.58 -1.9 C-0.51 -1.93, -0.44 -1.97, -0.4 -1.99 M-0.58 -1.9 C-0.52 -1.93, -0.45 -1.97, -0.4 -1.99 M-0.4 -1.99 C-0.35 -2.01, -0.3 -2.02, -0.21 -2.05 M-0.4 -1.99 C-0.34 -2.01, -0.27 -2.03, -0.21 -2.05 M-0.21 -2.05 C-0.17 -2.06, -0.13 -2.06, -0.11 -2.07 M-0.21 -2.05 C-0.18 -2.06, -0.16 -2.06, -0.11 -2.07 M-0.11 -2.07 C-0.07 -2.07, -0.03 -2.07, 0 -2.07 M-0.11 -2.07 C-0.07 -2.07, -0.04 -2.07, 0 -2.07 M0 -2.07 C0.03 -2.07, 0.05 -2.07, 0.11 -2.07 M0 -2.07 C0.02 -2.07, 0.05 -2.07, 0.11 -2.07 M0.11 -2.07 C0.13 -2.07, 0.15 -2.06, 0.21 -2.05 M0.11 -2.07 C0.13 -2.07, 0.15 -2.06, 0.21 -2.05 M0.21 -2.05 C0.28 -2.03, 0.35 -2.01, 0.4 -1.99 M0.21 -2.05 C0.26 -2.04, 0.31 -2.02, 0.4 -1.99 M0.4 -1.99 C0.46 -1.96, 0.51 -1.93, 0.58 -1.9 M0.4 -1.99 C0.47 -1.96, 0.53 -1.93, 0.58 -1.9 M0.58 -1.9 C0.62 -1.87, 0.65 -1.84, 0.73 -1.77 M0.58 -1.9 C0.64 -1.85, 0.69 -1.8, 0.73 -1.77 M0.73 -1.77 C0.76 -1.73, 0.79 -1.7, 0.86 -1.62 M0.73 -1.77 C0.77 -1.72, 0.81 -1.68, 0.86 -1.62 M0.86 -1.62 C0.88 -1.58, 0.9 -1.54, 0.96 -1.44 M0.86 -1.62 C0.9 -1.55, 0.94 -1.48, 0.96 -1.44 M0.96 -1.44 C0.98 -1.36, 1 -1.29, 1.02 -1.25 M0.96 -1.44 C0.97 -1.39, 0.99 -1.35, 1.02 -1.25 M1.02 -1.25 C1.02 -1.21, 1.03 -1.17, 1.03 -1.14 M1.02 -1.25 C1.02 -1.21, 1.03 -1.16, 1.03 -1.14 M1.03 -1.14 C1.03 -1.1, 1.04 -1.06, 1.04 -1.04 M1.03 -1.14 C1.03 -1.12, 1.03 -1.09, 1.04 -1.04 M1.04 -1.04 C1.04 -1.01, 1.03 -0.98, 1.03 -0.93 M1.04 -1.04 C1.04 -1, 1.03 -0.97, 1.03 -0.93 M1.03 -0.93 C1.03 -0.89, 1.02 -0.85, 1.02 -0.83 M1.03 -0.93 C1.03 -0.9, 1.02 -0.86, 1.02 -0.83 M1.02 -0.83 C1 -0.78, 0.99 -0.73, 0.96 -0.63 M1.02 -0.83 C1 -0.78, 0.99 -0.73, 0.96 -0.63 M0.96 -0.63 C0.92 -0.56, 0.88 -0.49, 0.86 -0.46 M0.96 -0.63 C0.93 -0.58, 0.9 -0.53, 0.86 -0.46 M0.86 -0.46 C0.83 -0.42, 0.8 -0.38, 0.73 -0.3 M0.86 -0.46 C0.83 -0.42, 0.8 -0.39, 0.73 -0.3 M0.73 -0.3 C0.68 -0.26, 0.63 -0.22, 0.58 -0.18 M0.73 -0.3 C0.69 -0.27, 0.65 -0.24, 0.58 -0.18 M0.58 -0.18 C0.54 -0.16, 0.51 -0.14, 0.4 -0.08 M0.58 -0.18 C0.54 -0.15, 0.49 -0.13, 0.4 -0.08 M0.4 -0.08 C0.33 -0.06, 0.26 -0.04, 0.21 -0.02 M0.4 -0.08 C0.34 -0.06, 0.28 -0.04, 0.21 -0.02 M0.21 -0.02 C0.17 -0.02, 0.13 -0.01, 0.11 -0.01 M0.21 -0.02 C0.17 -0.01, 0.13 -0.01, 0.11 -0.01 M0.11 -0.01 C0.08 0, 0.06 0, 0 0 M0.11 -0.01 C0.07 0, 0.04 0, 0 0 M0 0 C0 0, 0 0, 0 0 M0 0 C0 0, 0 0, 0 0 M0 0 C0 0, 0 0, 0 0 M0 0 C0 0, 0 0, 0 0" stroke="#00000000" stroke-width="1" fill="none"></path></g></g><mask></mask><g stroke-linecap="round"><g transform="translate(52.62965393066406 41.558620452880746) rotate(0 -9.15585994720459 2.066206932067871)" fill-rule="evenodd"><path d="M0 0 L-18.31 0 L-18.31 0 L-18.41 0.01 L-18.5 0.04 L-18.58 0.08 L-18.65 0.14 L-18.7 0.21 L-18.75 0.29 L-18.78 0.38 L-18.79 0.47 L-18.79 3.66 L-18.79 3.66 L-18.78 3.75 L-18.75 3.84 L-18.71 3.92 L-18.65 3.99 L-18.58 4.05 L-18.5 4.09 L-18.41 4.12 L-18.31 4.13 L0 4.13 L0 4.13 L0.09 4.12 L0.18 4.1 L0.26 4.05 L0.33 3.99 L0.39 3.92 L0.44 3.84 L0.46 3.75 L0.47 3.66 L0.47 0.47 L0.47 0.47 L0.46 0.38 L0.44 0.29 L0.39 0.21 L0.33 0.14 L0.26 0.08 L0.18 0.04 L0.09 0.01 L0 0 L0 0" stroke="none" stroke-width="0" fill="#4285f4" fill-rule="evenodd"></path><path d="M0 0 C-7.13 0, -14.26 0, -18.31 0 M0 0 C-5.33 0, -10.65 0, -18.31 0 M-18.31 0 C-18.31 0, -18.31 0, -18.31 0 M-18.31 0 C-18.31 0, -18.31 0, -18.31 0 M-18.31 0 C-18.34 0, -18.36 0, -18.41 0.01 M-18.31 0 C-18.34 0, -18.37 0.01, -18.41 0.01 M-18.41 0.01 C-18.44 0.02, -18.48 0.03, -18.5 0.04 M-18.41 0.01 C-18.43 0.02, -18.45 0.02, -18.5 0.04 M-18.5 0.04 C-18.52 0.05, -18.54 0.06, -18.58 0.08 M-18.5 0.04 C-18.52 0.05, -18.55 0.07, -18.58 0.08 M-18.58 0.08 C-18.6 0.1, -18.63 0.12, -18.65 0.14 M-18.58 0.08 C-18.59 0.1, -18.61 0.11, -18.65 0.14 M-18.65 0.14 C-18.66 0.16, -18.68 0.18, -18.7 0.21 M-18.65 0.14 C-18.66 0.15, -18.67 0.17, -18.7 0.21 M-18.7 0.21 C-18.72 0.23, -18.73 0.26, -18.75 0.29 M-18.7 0.21 C-18.71 0.22, -18.72 0.24, -18.75 0.29 M-18.75 0.29 C-18.76 0.32, -18.77 0.35, -18.78 0.38 M-18.75 0.29 C-18.75 0.31, -18.76 0.33, -18.78 0.38 M-18.78 0.38 C-18.78 0.41, -18.78 0.45, -18.79 0.47 M-18.78 0.38 C-18.78 0.41, -18.78 0.44, -18.79 0.47 M-18.79 0.47 C-18.79 1.22, -18.79 1.96, -18.79 3.66 M-18.79 0.47 C-18.79 1.71, -18.79 2.95, -18.79 3.66 M-18.79 3.66 C-18.79 3.66, -18.79 3.66, -18.79 3.66 M-18.79 3.66 C-18.79 3.66, -18.79 3.66, -18.79 3.66 M-18.79 3.66 C-18.78 3.69, -18.78 3.72, -18.78 3.75 M-18.79 3.66 C-18.78 3.68, -18.78 3.71, -18.78 3.75 M-18.78 3.75 C-18.77 3.78, -18.76 3.81, -18.75 3.84 M-18.78 3.75 C-18.77 3.78, -18.76 3.8, -18.75 3.84 M-18.75 3.84 C-18.74 3.87, -18.72 3.89, -18.71 3.92 M-18.75 3.84 C-18.74 3.87, -18.72 3.89, -18.71 3.92 M-18.71 3.92 C-18.68 3.95, -18.66 3.98, -18.65 3.99 M-18.71 3.92 C-18.69 3.95, -18.67 3.97, -18.65 3.99 M-18.65 3.99 C-18.63 4.01, -18.62 4.02, -18.58 4.05 M-18.65 3.99 C-18.62 4.01, -18.6 4.04, -18.58 4.05 M-18.58 4.05 C-18.55 4.07, -18.51 4.09, -18.5 4.09 M-18.58 4.05 C-18.56 4.06, -18.54 4.07, -18.5 4.09 M-18.5 4.09 C-18.47 4.1, -18.45 4.11, -18.41 4.12 M-18.5 4.09 C-18.47 4.1, -18.44 4.11, -18.41 4.12 M-18.41 4.12 C-18.39 4.12, -18.37 4.13, -18.31 4.13 M-18.41 4.12 C-18.37 4.13, -18.34 4.13, -18.31 4.13 M-18.31 4.13 C-13.84 4.13, -9.36 4.13, 0 4.13 M-18.31 4.13 C-13.76 4.13, -9.2 4.13, 0 4.13 M0 4.13 C0 4.13, 0 4.13, 0 4.13 M0 4.13 C0 4.13, 0 4.13, 0 4.13 M0 4.13 C0.03 4.13, 0.05 4.13, 0.09 4.12 M0 4.13 C0.03 4.13, 0.06 4.13, 0.09 4.12 M0.09 4.12 C0.11 4.12, 0.13 4.11, 0.18 4.1 M0.09 4.12 C0.12 4.11, 0.15 4.11, 0.18 4.1 M0.18 4.1 C0.21 4.08, 0.23 4.07, 0.26 4.05 M0.18 4.1 C0.2 4.09, 0.22 4.08, 0.26 4.05 M0.26 4.05 C0.29 4.03, 0.31 4.02, 0.33 3.99 M0.26 4.05 C0.28 4.04, 0.29 4.03, 0.33 3.99 M0.33 3.99 C0.35 3.98, 0.36 3.97, 0.39 3.92 M0.33 3.99 C0.35 3.97, 0.37 3.95, 0.39 3.92 M0.39 3.92 C0.41 3.9, 0.42 3.88, 0.44 3.84 M0.39 3.92 C0.41 3.9, 0.42 3.87, 0.44 3.84 M0.44 3.84 C0.44 3.82, 0.45 3.8, 0.46 3.75 M0.44 3.84 C0.45 3.81, 0.46 3.78, 0.46 3.75 M0.46 3.75 C0.47 3.73, 0.47 3.71, 0.47 3.66 M0.46 3.75 C0.47 3.72, 0.47 3.68, 0.47 3.66 M0.47 3.66 C0.47 2.85, 0.47 2.05, 0.47 0.47 M0.47 3.66 C0.47 2.77, 0.47 1.88, 0.47 0.47 M0.47 0.47 C0.47 0.47, 0.47 0.47, 0.47 0.47 M0.47 0.47 C0.47 0.47, 0.47 0.47, 0.47 0.47 M0.47 0.47 C0.47 0.45, 0.47 0.42, 0.46 0.38 M0.47 0.47 C0.47 0.44, 0.47 0.41, 0.46 0.38 M0.46 0.38 C0.46 0.36, 0.45 0.34, 0.44 0.29 M0.46 0.38 C0.46 0.35, 0.45 0.33, 0.44 0.29 M0.44 0.29 C0.42 0.26, 0.4 0.23, 0.39 0.21 M0.44 0.29 C0.42 0.26, 0.4 0.23, 0.39 0.21 M0.39 0.21 C0.37 0.18, 0.35 0.16, 0.33 0.14 M0.39 0.21 C0.37 0.18, 0.35 0.15, 0.33 0.14 M0.33 0.14 C0.31 0.12, 0.28 0.1, 0.26 0.08 M0.33 0.14 C0.31 0.12, 0.3 0.11, 0.26 0.08 M0.26 0.08 C0.24 0.07, 0.21 0.05, 0.18 0.04 M0.26 0.08 C0.25 0.07, 0.23 0.06, 0.18 0.04 M0.18 0.04 C0.15 0.03, 0.12 0.02, 0.09 0.01 M0.18 0.04 C0.16 0.03, 0.14 0.02, 0.09 0.01 M0.09 0.01 C0.08 0.01, 0.06 0.01, 0 0 M0.09 0.01 C0.06 0.01, 0.03 0, 0 0 M0 0 C0 0, 0 0, 0 0 M0 0 C0 0, 0 0, 0 0 M0 0 C0 0, 0 0, 0 0 M0 0 C0 0, 0 0, 0 0" stroke="#00000000" stroke-width="1" fill="none"></path></g></g><mask></mask><g stroke-linecap="round"><g transform="translate(36.138620376586914 44.725517272949105) rotate(0 4.76837158203125e-7 -1.0372419357299805)" fill-rule="evenodd"><path d="M0 0 L0 0 L-0.11 -0.01 L-0.21 -0.02 L-0.4 -0.08 L-0.58 -0.18 L-0.73 -0.3 L-0.86 -0.46 L-0.96 -0.63 L-1.02 -0.83 L-1.03 -0.93 L-1.04 -1.04 L-1.03 -1.14 L-1.02 -1.25 L-0.96 -1.44 L-0.86 -1.62 L-0.73 -1.77 L-0.58 -1.9 L-0.4 -1.99 L-0.21 -2.05 L-0.11 -2.07 L0 -2.07 L0.11 -2.07 L0.21 -2.05 L0.4 -1.99 L0.58 -1.9 L0.73 -1.77 L0.86 -1.62 L0.96 -1.44 L1.02 -1.25 L1.03 -1.14 L1.04 -1.04 L1.03 -0.93 L1.02 -0.83 L0.96 -0.63 L0.86 -0.46 L0.73 -0.3 L0.58 -0.18 L0.4 -0.08 L0.21 -0.02 L0.11 -0.01 L0 0 L0 0" stroke="none" stroke-width="0" fill="#4285f4" fill-rule="evenodd"></path><path d="M0 0 C0 0, 0 0, 0 0 M0 0 C0 0, 0 0, 0 0 M0 0 C-0.04 0, -0.08 0, -0.11 -0.01 M0 0 C-0.03 0, -0.06 0, -0.11 -0.01 M-0.11 -0.01 C-0.13 -0.01, -0.15 -0.01, -0.21 -0.02 M-0.11 -0.01 C-0.14 -0.01, -0.17 -0.01, -0.21 -0.02 M-0.21 -0.02 C-0.28 -0.04, -0.35 -0.06, -0.4 -0.08 M-0.21 -0.02 C-0.25 -0.03, -0.3 -0.05, -0.4 -0.08 M-0.4 -0.08 C-0.44 -0.1, -0.48 -0.12, -0.58 -0.18 M-0.4 -0.08 C-0.47 -0.12, -0.54 -0.15, -0.58 -0.18 M-0.58 -0.18 C-0.62 -0.21, -0.67 -0.25, -0.73 -0.3 M-0.58 -0.18 C-0.64 -0.22, -0.69 -0.27, -0.73 -0.3 M-0.73 -0.3 C-0.77 -0.35, -0.81 -0.39, -0.86 -0.46 M-0.73 -0.3 C-0.78 -0.36, -0.83 -0.43, -0.86 -0.46 M-0.86 -0.46 C-0.89 -0.51, -0.91 -0.55, -0.96 -0.63 M-0.86 -0.46 C-0.89 -0.51, -0.91 -0.56, -0.96 -0.63 M-0.96 -0.63 C-0.97 -0.68, -0.99 -0.73, -1.02 -0.83 M-0.96 -0.63 C-0.98 -0.7, -1 -0.77, -1.02 -0.83 M-1.02 -0.83 C-1.02 -0.85, -1.02 -0.87, -1.03 -0.93 M-1.02 -0.83 C-1.02 -0.85, -1.02 -0.87, -1.03 -0.93 M-1.03 -0.93 C-1.03 -0.96, -1.04 -0.99, -1.04 -1.04 M-1.03 -0.93 C-1.03 -0.96, -1.03 -0.98, -1.04 -1.04 M-1.04 -1.04 C-1.04 -1.06, -1.03 -1.09, -1.03 -1.14 M-1.04 -1.04 C-1.04 -1.07, -1.03 -1.1, -1.03 -1.14 M-1.03 -1.14 C-1.03 -1.17, -1.02 -1.2, -1.02 -1.25 M-1.03 -1.14 C-1.03 -1.18, -1.02 -1.22, -1.02 -1.25 M-1.02 -1.25 C-0.99 -1.32, -0.97 -1.39, -0.96 -1.44 M-1.02 -1.25 C-1 -1.3, -0.98 -1.36, -0.96 -1.44 M-0.96 -1.44 C-0.93 -1.5, -0.9 -1.55, -0.86 -1.62 M-0.96 -1.44 C-0.92 -1.51, -0.88 -1.58, -0.86 -1.62 M-0.86 -1.62 C-0.82 -1.67, -0.77 -1.73, -0.73 -1.77 M-0.86 -1.62 C-0.81 -1.67, -0.77 -1.73, -0.73 -1.77 M-0.73 -1.77 C-0.69 -1.81, -0.64 -1.85, -0.58 -1.9 M-0.73 -1.77 C-0.7 -1.8, -0.66 -1.83, -0.58 -1.9 M-0.58 -1.9 C-0.54 -1.92, -0.51 -1.94, -0.4 -1.99 M-0.58 -1.9 C-0.53 -1.92, -0.48 -1.95, -0.4 -1.99 M-0.4 -1.99 C-0.36 -2.01, -0.32 -2.02, -0.21 -2.05 M-0.4 -1.99 C-0.34 -2.01, -0.29 -2.03, -0.21 -2.05 M-0.21 -2.05 C-0.17 -2.06, -0.13 -2.07, -0.11 -2.07 M-0.21 -2.05 C-0.18 -2.06, -0.15 -2.06, -0.11 -2.07 M-0.11 -2.07 C-0.07 -2.07, -0.04 -2.07, 0 -2.07 M-0.11 -2.07 C-0.07 -2.07, -0.03 -2.07, 0 -2.07 M0 -2.07 C0.04 -2.07, 0.08 -2.07, 0.11 -2.07 M0 -2.07 C0.04 -2.07, 0.08 -2.07, 0.11 -2.07 M0.11 -2.07 C0.14 -2.06, 0.18 -2.06, 0.21 -2.05 M0.11 -2.07 C0.13 -2.06, 0.16 -2.06, 0.21 -2.05 M0.21 -2.05 C0.28 -2.03, 0.34 -2.01, 0.4 -1.99 M0.21 -2.05 C0.25 -2.04, 0.29 -2.03, 0.4 -1.99 M0.4 -1.99 C0.46 -1.96, 0.51 -1.93, 0.58 -1.9 M0.4 -1.99 C0.46 -1.96, 0.51 -1.94, 0.58 -1.9 M0.58 -1.9 C0.63 -1.85, 0.68 -1.81, 0.73 -1.77 M0.58 -1.9 C0.62 -1.87, 0.66 -1.83, 0.73 -1.77 M0.73 -1.77 C0.77 -1.73, 0.8 -1.69, 0.86 -1.62 M0.73 -1.77 C0.78 -1.72, 0.82 -1.67, 0.86 -1.62 M0.86 -1.62 C0.9 -1.55, 0.93 -1.48, 0.96 -1.44 M0.86 -1.62 C0.9 -1.55, 0.93 -1.49, 0.96 -1.44 M0.96 -1.44 C0.97 -1.4, 0.98 -1.36, 1.02 -1.25 M0.96 -1.44 C0.98 -1.37, 1 -1.3, 1.02 -1.25 M1.02 -1.25 C1.02 -1.22, 1.02 -1.19, 1.03 -1.14 M1.02 -1.25 C1.02 -1.22, 1.02 -1.2, 1.03 -1.14 M1.03 -1.14 C1.03 -1.11, 1.04 -1.08, 1.04 -1.04 M1.03 -1.14 C1.03 -1.11, 1.04 -1.07, 1.04 -1.04 M1.04 -1.04 C1.04 -1, 1.03 -0.96, 1.03 -0.93 M1.04 -1.04 C1.04 -1.01, 1.03 -0.99, 1.03 -0.93 M1.03 -0.93 C1.03 -0.91, 1.02 -0.88, 1.02 -0.83 M1.03 -0.93 C1.03 -0.9, 1.02 -0.87, 1.02 -0.83 M1.02 -0.83 C1 -0.78, 0.99 -0.73, 0.96 -0.63 M1.02 -0.83 C1 -0.77, 0.98 -0.72, 0.96 -0.63 M0.96 -0.63 C0.93 -0.58, 0.9 -0.53, 0.86 -0.46 M0.96 -0.63 C0.93 -0.58, 0.9 -0.54, 0.86 -0.46 M0.86 -0.46 C0.82 -0.41, 0.78 -0.36, 0.73 -0.3 M0.86 -0.46 C0.82 -0.41, 0.79 -0.37, 0.73 -0.3 M0.73 -0.3 C0.68 -0.26, 0.62 -0.21, 0.58 -0.18 M0.73 -0.3 C0.68 -0.26, 0.62 -0.21, 0.58 -0.18 M0.58 -0.18 C0.53 -0.15, 0.48 -0.12, 0.4 -0.08 M0.58 -0.18 C0.52 -0.15, 0.47 -0.11, 0.4 -0.08 M0.4 -0.08 C0.36 -0.07, 0.32 -0.05, 0.21 -0.02 M0.4 -0.08 C0.34 -0.06, 0.29 -0.04, 0.21 -0.02 M0.21 -0.02 C0.17 -0.02, 0.14 -0.01, 0.11 -0.01 M0.21 -0.02 C0.18 -0.02, 0.14 -0.01, 0.11 -0.01 M0.11 -0.01 C0.08 0, 0.04 0, 0 0 M0.11 -0.01 C0.08 0, 0.05 0, 0 0 M0 0 C0 0, 0 0, 0 0 M0 0 C0 0, 0 0, 0 0 M0 0 C0 0, 0 0, 0 0 M0 0 C0 0, 0 0, 0 0" stroke="#00000000" stroke-width="1" fill="none"></path></g></g><mask></mask><g stroke-linecap="round"><g transform="translate(52.70137977600098 47.49517250061024) rotate(0 -9.147587299346924 2.0799999237060547)" fill-rule="evenodd"><path d="M0 0 L-18.3 0 L-18.3 0 L-18.39 0.01 L-18.48 0.04 L-18.56 0.08 L-18.63 0.14 L-18.69 0.21 L-18.73 0.29 L-18.76 0.38 L-18.77 0.47 L-18.77 3.67 L-18.77 3.67 L-18.76 3.77 L-18.74 3.86 L-18.7 3.94 L-18.64 4.01 L-18.57 4.07 L-18.49 4.12 L-18.41 4.15 L-18.31 4.16 L0 4.16 L0 4.16 L0.09 4.15 L0.18 4.12 L0.26 4.08 L0.33 4.02 L0.39 3.95 L0.44 3.87 L0.46 3.78 L0.47 3.69 L0.47 0.47 L0.47 0.47 L0.46 0.38 L0.44 0.29 L0.39 0.21 L0.34 0.14 L0.27 0.08 L0.19 0.04 L0.1 0.01 L0 0 L0 0" stroke="none" stroke-width="0" fill="#4285f4" fill-rule="evenodd"></path><path d="M0 0 C-7.03 0, -14.07 0, -18.3 0 M0 0 C-4.65 0, -9.3 0, -18.3 0 M-18.3 0 C-18.3 0, -18.3 0, -18.3 0 M-18.3 0 C-18.3 0, -18.3 0, -18.3 0 M-18.3 0 C-18.33 0, -18.37 0.01, -18.39 0.01 M-18.3 0 C-18.33 0, -18.37 0.01, -18.39 0.01 M-18.39 0.01 C-18.42 0.02, -18.45 0.03, -18.48 0.04 M-18.39 0.01 C-18.41 0.02, -18.43 0.02, -18.48 0.04 M-18.48 0.04 C-18.5 0.05, -18.52 0.06, -18.56 0.08 M-18.48 0.04 C-18.51 0.05, -18.53 0.07, -18.56 0.08 M-18.56 0.08 C-18.58 0.1, -18.6 0.11, -18.63 0.14 M-18.56 0.08 C-18.58 0.1, -18.61 0.12, -18.63 0.14 M-18.63 0.14 C-18.65 0.16, -18.67 0.19, -18.69 0.21 M-18.63 0.14 C-18.65 0.16, -18.67 0.18, -18.69 0.21 M-18.69 0.21 C-18.71 0.24, -18.72 0.27, -18.73 0.29 M-18.69 0.21 C-18.7 0.23, -18.71 0.26, -18.73 0.29 M-18.73 0.29 C-18.74 0.32, -18.75 0.35, -18.76 0.38 M-18.73 0.29 C-18.74 0.31, -18.74 0.33, -18.76 0.38 M-18.76 0.38 C-18.76 0.4, -18.76 0.42, -18.77 0.47 M-18.76 0.38 C-18.76 0.41, -18.77 0.43, -18.77 0.47 M-18.77 0.47 C-18.77 1.12, -18.77 1.77, -18.77 3.67 M-18.77 0.47 C-18.77 1.55, -18.77 2.63, -18.77 3.67 M-18.77 3.67 C-18.77 3.67, -18.77 3.67, -18.77 3.67 M-18.77 3.67 C-18.77 3.67, -18.77 3.67, -18.77 3.67 M-18.77 3.67 C-18.77 3.71, -18.76 3.75, -18.76 3.77 M-18.77 3.67 C-18.77 3.7, -18.77 3.72, -18.76 3.77 M-18.76 3.77 C-18.76 3.79, -18.75 3.81, -18.74 3.86 M-18.76 3.77 C-18.75 3.8, -18.75 3.82, -18.74 3.86 M-18.74 3.86 C-18.72 3.89, -18.71 3.92, -18.7 3.94 M-18.74 3.86 C-18.72 3.88, -18.71 3.91, -18.7 3.94 M-18.7 3.94 C-18.68 3.96, -18.66 3.99, -18.64 4.01 M-18.7 3.94 C-18.68 3.96, -18.67 3.98, -18.64 4.01 M-18.64 4.01 C-18.62 4.03, -18.6 4.04, -18.57 4.07 M-18.64 4.01 C-18.62 4.03, -18.59 4.06, -18.57 4.07 M-18.57 4.07 C-18.56 4.08, -18.54 4.09, -18.49 4.12 M-18.57 4.07 C-18.54 4.09, -18.51 4.11, -18.49 4.12 M-18.49 4.12 C-18.47 4.13, -18.44 4.14, -18.41 4.15 M-18.49 4.12 C-18.47 4.13, -18.44 4.14, -18.41 4.15 M-18.41 4.15 C-18.38 4.15, -18.36 4.15, -18.31 4.16 M-18.41 4.15 C-18.37 4.15, -18.34 4.16, -18.31 4.16 M-18.31 4.16 C-13.05 4.16, -7.8 4.16, 0 4.16 M-18.31 4.16 C-11.48 4.16, -4.65 4.16, 0 4.16 M0 4.16 C0 4.16, 0 4.16, 0 4.16 M0 4.16 C0 4.16, 0 4.16, 0 4.16 M0 4.16 C0.03 4.16, 0.07 4.15, 0.09 4.15 M0 4.16 C0.03 4.16, 0.07 4.15, 0.09 4.15 M0.09 4.15 C0.13 4.14, 0.16 4.13, 0.18 4.12 M0.09 4.15 C0.13 4.14, 0.16 4.13, 0.18 4.12 M0.18 4.12 C0.2 4.11, 0.22 4.1, 0.26 4.08 M0.18 4.12 C0.21 4.11, 0.23 4.1, 0.26 4.08 M0.26 4.08 C0.28 4.06, 0.3 4.05, 0.33 4.02 M0.26 4.08 C0.28 4.07, 0.29 4.06, 0.33 4.02 M0.33 4.02 C0.35 4, 0.37 3.98, 0.39 3.95 M0.33 4.02 C0.35 4, 0.37 3.98, 0.39 3.95 M0.39 3.95 C0.41 3.92, 0.42 3.89, 0.44 3.87 M0.39 3.95 C0.41 3.92, 0.43 3.89, 0.44 3.87 M0.44 3.87 C0.45 3.84, 0.46 3.8, 0.46 3.78 M0.44 3.87 C0.45 3.84, 0.45 3.82, 0.46 3.78 M0.46 3.78 C0.47 3.75, 0.47 3.72, 0.47 3.69 M0.46 3.78 C0.47 3.75, 0.47 3.72, 0.47 3.69 M0.47 3.69 C0.47 2.74, 0.47 1.8, 0.47 0.47 M0.47 3.69 C0.47 2.44, 0.47 1.19, 0.47 0.47 M0.47 0.47 C0.47 0.47, 0.47 0.47, 0.47 0.47 M0.47 0.47 C0.47 0.47, 0.47 0.47, 0.47 0.47 M0.47 0.47 C0.47 0.44, 0.47 0.42, 0.46 0.38 M0.47 0.47 C0.47 0.44, 0.47 0.41, 0.46 0.38 M0.46 0.38 C0.46 0.36, 0.45 0.34, 0.44 0.29 M0.46 0.38 C0.45 0.34, 0.44 0.31, 0.44 0.29 M0.44 0.29 C0.42 0.26, 0.4 0.23, 0.39 0.21 M0.44 0.29 C0.43 0.27, 0.42 0.25, 0.39 0.21 M0.39 0.21 C0.37 0.19, 0.36 0.16, 0.34 0.14 M0.39 0.21 C0.38 0.19, 0.36 0.16, 0.34 0.14 M0.34 0.14 C0.31 0.12, 0.29 0.1, 0.27 0.08 M0.34 0.14 C0.32 0.13, 0.31 0.12, 0.27 0.08 M0.27 0.08 C0.24 0.07, 0.22 0.06, 0.19 0.04 M0.27 0.08 C0.25 0.07, 0.23 0.06, 0.19 0.04 M0.19 0.04 C0.16 0.03, 0.12 0.02, 0.1 0.01 M0.19 0.04 C0.16 0.03, 0.14 0.02, 0.1 0.01 M0.1 0.01 C0.06 0.01, 0.03 0, 0 0 M0.1 0.01 C0.07 0.01, 0.04 0, 0 0 M0 0 C0 0, 0 0, 0 0 M0 0 C0 0, 0 0, 0 0 M0 0 C0 0, 0 0, 0 0 M0 0 C0 0, 0 0, 0 0" stroke="#00000000" stroke-width="1" fill="none"></path></g></g><mask></mask><g stroke-linecap="round"><g transform="translate(36.210344314575195 50.651033401489144) rotate(0 0.00827646255493164 -0.9882612228393555)" fill-rule="evenodd"><path d="M0 0 L0 0 L-0.11 -0.01 L-0.21 -0.02 L-0.4 -0.09 L-0.58 -0.18 L-0.73 -0.31 L-0.86 -0.47 L-0.96 -0.64 L-1.02 -0.84 L-1.03 -0.94 L-1.04 -1.05 L-1.02 -1.15 L-0.99 -1.26 L-0.91 -1.44 L-0.79 -1.61 L-0.64 -1.75 L-0.47 -1.86 L-0.29 -1.93 L-0.08 -1.97 L0.02 -1.98 L0.13 -1.97 L0.31 -1.93 L0.47 -1.87 L0.62 -1.78 L0.75 -1.67 L0.86 -1.54 L0.95 -1.39 L1.02 -1.23 L1.05 -1.05 L1.05 -0.94 L1.03 -0.84 L0.97 -0.64 L0.87 -0.46 L0.74 -0.31 L0.59 -0.18 L0.41 -0.08 L0.21 -0.02 L0.11 -0.01 L0 0 L0 0" stroke="none" stroke-width="0" fill="#4285f4" fill-rule="evenodd"></path><path d="M0 0 C0 0, 0 0, 0 0 M0 0 C0 0, 0 0, 0 0 M0 0 C-0.03 0, -0.05 0, -0.11 -0.01 M0 0 C-0.03 0, -0.06 0, -0.11 -0.01 M-0.11 -0.01 C-0.13 -0.01, -0.15 -0.01, -0.21 -0.02 M-0.11 -0.01 C-0.13 -0.01, -0.15 -0.01, -0.21 -0.02 M-0.21 -0.02 C-0.25 -0.04, -0.29 -0.05, -0.4 -0.09 M-0.21 -0.02 C-0.29 -0.05, -0.36 -0.07, -0.4 -0.09 M-0.4 -0.09 C-0.46 -0.12, -0.51 -0.15, -0.58 -0.18 M-0.4 -0.09 C-0.45 -0.11, -0.49 -0.13, -0.58 -0.18 M-0.58 -0.18 C-0.62 -0.22, -0.67 -0.26, -0.73 -0.31 M-0.58 -0.18 C-0.62 -0.22, -0.66 -0.25, -0.73 -0.31 M-0.73 -0.31 C-0.76 -0.35, -0.79 -0.39, -0.86 -0.47 M-0.73 -0.31 C-0.78 -0.36, -0.82 -0.41, -0.86 -0.47 M-0.86 -0.47 C-0.9 -0.54, -0.94 -0.61, -0.96 -0.64 M-0.86 -0.47 C-0.89 -0.53, -0.92 -0.59, -0.96 -0.64 M-0.96 -0.64 C-0.98 -0.71, -1 -0.77, -1.02 -0.84 M-0.96 -0.64 C-0.98 -0.72, -1 -0.79, -1.02 -0.84 M-1.02 -0.84 C-1.02 -0.87, -1.03 -0.91, -1.03 -0.94 M-1.02 -0.84 C-1.02 -0.87, -1.03 -0.91, -1.03 -0.94 M-1.03 -0.94 C-1.03 -0.97, -1.03 -1, -1.04 -1.05 M-1.03 -0.94 C-1.03 -0.97, -1.04 -1.01, -1.04 -1.05 M-1.04 -1.05 C-1.03 -1.08, -1.03 -1.11, -1.02 -1.15 M-1.04 -1.05 C-1.03 -1.08, -1.03 -1.12, -1.02 -1.15 M-1.02 -1.15 C-1.01 -1.19, -1 -1.22, -0.99 -1.26 M-1.02 -1.15 C-1.01 -1.19, -1 -1.23, -0.99 -1.26 M-0.99 -1.26 C-0.97 -1.31, -0.94 -1.36, -0.91 -1.44 M-0.99 -1.26 C-0.96 -1.32, -0.93 -1.39, -0.91 -1.44 M-0.91 -1.44 C-0.88 -1.48, -0.86 -1.51, -0.79 -1.61 M-0.91 -1.44 C-0.88 -1.49, -0.84 -1.53, -0.79 -1.61 M-0.79 -1.61 C-0.75 -1.64, -0.72 -1.68, -0.64 -1.75 M-0.79 -1.61 C-0.74 -1.66, -0.68 -1.71, -0.64 -1.75 M-0.64 -1.75 C-0.58 -1.79, -0.52 -1.83, -0.47 -1.86 M-0.64 -1.75 C-0.61 -1.77, -0.57 -1.8, -0.47 -1.86 M-0.47 -1.86 C-0.42 -1.88, -0.36 -1.9, -0.29 -1.93 M-0.47 -1.86 C-0.43 -1.88, -0.39 -1.89, -0.29 -1.93 M-0.29 -1.93 C-0.23 -1.95, -0.17 -1.96, -0.08 -1.97 M-0.29 -1.93 C-0.22 -1.95, -0.15 -1.96, -0.08 -1.97 M-0.08 -1.97 C-0.04 -1.97, 0 -1.98, 0.02 -1.98 M-0.08 -1.97 C-0.04 -1.97, 0 -1.98, 0.02 -1.98 M0.02 -1.98 C0.07 -1.97, 0.11 -1.97, 0.13 -1.97 M0.02 -1.98 C0.06 -1.97, 0.1 -1.97, 0.13 -1.97 M0.13 -1.97 C0.19 -1.96, 0.24 -1.95, 0.31 -1.93 M0.13 -1.97 C0.2 -1.96, 0.26 -1.94, 0.31 -1.93 M0.31 -1.93 C0.36 -1.91, 0.41 -1.89, 0.47 -1.87 M0.31 -1.93 C0.36 -1.91, 0.42 -1.89, 0.47 -1.87 M0.47 -1.87 C0.52 -1.84, 0.57 -1.81, 0.62 -1.78 M0.47 -1.87 C0.51 -1.84, 0.56 -1.82, 0.62 -1.78 M0.62 -1.78 C0.66 -1.75, 0.7 -1.71, 0.75 -1.67 M0.62 -1.78 C0.66 -1.75, 0.7 -1.71, 0.75 -1.67 M0.75 -1.67 C0.79 -1.63, 0.82 -1.58, 0.86 -1.54 M0.75 -1.67 C0.79 -1.62, 0.84 -1.57, 0.86 -1.54 M0.86 -1.54 C0.89 -1.49, 0.92 -1.44, 0.95 -1.39 M0.86 -1.54 C0.88 -1.51, 0.9 -1.48, 0.95 -1.39 M0.95 -1.39 C0.97 -1.36, 0.98 -1.32, 1.02 -1.23 M0.95 -1.39 C0.97 -1.35, 0.98 -1.32, 1.02 -1.23 M1.02 -1.23 C1.03 -1.18, 1.04 -1.14, 1.05 -1.05 M1.02 -1.23 C1.02 -1.19, 1.03 -1.15, 1.05 -1.05 M1.05 -1.05 C1.05 -1.01, 1.05 -0.97, 1.05 -0.94 M1.05 -1.05 C1.05 -1.02, 1.05 -0.99, 1.05 -0.94 M1.05 -0.94 C1.04 -0.92, 1.04 -0.9, 1.03 -0.84 M1.05 -0.94 C1.04 -0.91, 1.04 -0.88, 1.03 -0.84 M1.03 -0.84 C1.01 -0.77, 0.99 -0.71, 0.97 -0.64 M1.03 -0.84 C1.02 -0.79, 1 -0.75, 0.97 -0.64 M0.97 -0.64 C0.95 -0.6, 0.93 -0.56, 0.87 -0.46 M0.97 -0.64 C0.95 -0.6, 0.93 -0.56, 0.87 -0.46 M0.87 -0.46 C0.85 -0.43, 0.82 -0.4, 0.74 -0.31 M0.87 -0.46 C0.84 -0.43, 0.82 -0.4, 0.74 -0.31 M0.74 -0.31 C0.71 -0.28, 0.67 -0.25, 0.59 -0.18 M0.74 -0.31 C0.7 -0.27, 0.65 -0.23, 0.59 -0.18 M0.59 -0.18 C0.55 -0.16, 0.5 -0.13, 0.41 -0.08 M0.59 -0.18 C0.52 -0.14, 0.45 -0.11, 0.41 -0.08 M0.41 -0.08 C0.37 -0.07, 0.32 -0.06, 0.21 -0.02 M0.41 -0.08 C0.36 -0.07, 0.32 -0.06, 0.21 -0.02 M0.21 -0.02 C0.17 -0.02, 0.14 -0.01, 0.11 -0.01 M0.21 -0.02 C0.18 -0.02, 0.14 -0.01, 0.11 -0.01 M0.11 -0.01 C0.07 0, 0.04 0, 0 0 M0.11 -0.01 C0.07 0, 0.04 0, 0 0 M0 0 C0 0, 0 0, 0 0 M0 0 C0 0, 0 0, 0 0 M0 0 C0 0, 0 0, 0 0 M0 0 C0 0, 0 0, 0 0" stroke="#00000000" stroke-width="1" fill="none"></path></g></g><mask></mask><g stroke-linecap="round"><g transform="translate(30.588275909423828 40.449654579162484) rotate(0 -1.556618332862854 -1.1937255859375)" fill-rule="evenodd"><path d="M0 0 L-3.16 0 L-3.16 0 L-3.28 0.01 L-3.4 0.01 L-3.52 -0.01 L-3.63 -0.03 L-3.74 -0.07 L-3.85 -0.12 L-3.95 -0.17 L-4.04 -0.24 L-4.13 -0.31 L-4.21 -0.4 L-4.29 -0.49 L-4.35 -0.59 L-4.4 -0.69 L-4.45 -0.8 L-4.48 -0.92 L-4.5 -1.04 L-4.51 -1.16 L-4.51 -1.28 L-4.5 -1.4 L-4.47 -1.51 L-4.43 -1.62 L-4.39 -1.73 L-4.33 -1.83 L-4.26 -1.93 L-4.19 -2.01 L-4.1 -2.09 L-4.01 -2.17 L-3.92 -2.23 L-3.81 -2.28 L-3.7 -2.33 L-3.59 -2.36 L-3.46 -2.38 L0 -2.38 L0 -2.38 L0.12 -2.4 L0.24 -2.4 L0.36 -2.39 L0.48 -2.36 L0.59 -2.33 L0.7 -2.29 L0.8 -2.23 L0.9 -2.17 L0.99 -2.1 L1.07 -2.02 L1.15 -1.93 L1.22 -1.83 L1.27 -1.73 L1.32 -1.62 L1.36 -1.51 L1.38 -1.38 L1.4 -1.26 L1.4 -1.14 L1.39 -1.02 L1.37 -0.91 L1.33 -0.79 L1.29 -0.69 L1.23 -0.58 L1.17 -0.49 L1.1 -0.39 L1.02 -0.31 L0.93 -0.24 L0.83 -0.17 L0.73 -0.11 L0.62 -0.06 L0.51 -0.03 L0.39 0 L0 0 L0 0" stroke="none" stroke-width="0" fill="#669df6" fill-rule="evenodd"></path><path d="M0 0 C-0.95 0, -1.91 0, -3.16 0 M0 0 C-1 0, -2 0, -3.16 0 M-3.16 0 C-3.16 0, -3.16 0, -3.16 0 M-3.16 0 C-3.16 0, -3.16 0, -3.16 0 M-3.16 0 C-3.19 0, -3.23 0.01, -3.28 0.01 M-3.16 0 C-3.2 0, -3.24 0.01, -3.28 0.01 M-3.28 0.01 C-3.31 0.01, -3.34 0.01, -3.4 0.01 M-3.28 0.01 C-3.32 0.01, -3.37 0.01, -3.4 0.01 M-3.4 0.01 C-3.43 0, -3.46 0, -3.52 -0.01 M-3.4 0.01 C-3.44 0, -3.48 0, -3.52 -0.01 M-3.52 -0.01 C-3.54 -0.01, -3.57 -0.02, -3.63 -0.03 M-3.52 -0.01 C-3.56 -0.02, -3.6 -0.02, -3.63 -0.03 M-3.63 -0.03 C-3.66 -0.04, -3.69 -0.05, -3.74 -0.07 M-3.63 -0.03 C-3.65 -0.04, -3.68 -0.05, -3.74 -0.07 M-3.74 -0.07 C-3.78 -0.08, -3.81 -0.1, -3.85 -0.12 M-3.74 -0.07 C-3.76 -0.08, -3.79 -0.09, -3.85 -0.12 M-3.85 -0.12 C-3.87 -0.13, -3.89 -0.14, -3.95 -0.17 M-3.85 -0.12 C-3.87 -0.13, -3.9 -0.14, -3.95 -0.17 M-3.95 -0.17 C-3.98 -0.2, -4.01 -0.22, -4.04 -0.24 M-3.95 -0.17 C-3.97 -0.19, -4 -0.21, -4.04 -0.24 M-4.04 -0.24 C-4.07 -0.26, -4.1 -0.29, -4.13 -0.31 M-4.04 -0.24 C-4.08 -0.27, -4.11 -0.29, -4.13 -0.31 M-4.13 -0.31 C-4.15 -0.33, -4.17 -0.35, -4.21 -0.4 M-4.13 -0.31 C-4.16 -0.34, -4.19 -0.37, -4.21 -0.4 M-4.21 -0.4 C-4.23 -0.42, -4.25 -0.45, -4.29 -0.49 M-4.21 -0.4 C-4.23 -0.42, -4.25 -0.44, -4.29 -0.49 M-4.29 -0.49 C-4.31 -0.52, -4.33 -0.55, -4.35 -0.59 M-4.29 -0.49 C-4.3 -0.51, -4.32 -0.54, -4.35 -0.59 M-4.35 -0.59 C-4.37 -0.63, -4.39 -0.67, -4.4 -0.69 M-4.35 -0.59 C-4.37 -0.62, -4.39 -0.66, -4.4 -0.69 M-4.4 -0.69 C-4.42 -0.73, -4.44 -0.77, -4.45 -0.8 M-4.4 -0.69 C-4.42 -0.73, -4.44 -0.77, -4.45 -0.8 M-4.45 -0.8 C-4.45 -0.82, -4.46 -0.85, -4.48 -0.92 M-4.45 -0.8 C-4.46 -0.84, -4.47 -0.88, -4.48 -0.92 M-4.48 -0.92 C-4.49 -0.95, -4.49 -0.98, -4.5 -1.04 M-4.48 -0.92 C-4.49 -0.95, -4.49 -0.99, -4.5 -1.04 M-4.5 -1.04 C-4.51 -1.08, -4.51 -1.12, -4.51 -1.16 M-4.5 -1.04 C-4.51 -1.08, -4.51 -1.12, -4.51 -1.16 M-4.51 -1.16 C-4.51 -1.19, -4.51 -1.22, -4.51 -1.28 M-4.51 -1.16 C-4.51 -1.2, -4.51 -1.24, -4.51 -1.28 M-4.51 -1.28 C-4.5 -1.33, -4.5 -1.37, -4.5 -1.4 M-4.51 -1.28 C-4.51 -1.32, -4.5 -1.35, -4.5 -1.4 M-4.5 -1.4 C-4.49 -1.43, -4.48 -1.46, -4.47 -1.51 M-4.5 -1.4 C-4.49 -1.43, -4.48 -1.47, -4.47 -1.51 M-4.47 -1.51 C-4.46 -1.54, -4.45 -1.56, -4.43 -1.62 M-4.47 -1.51 C-4.46 -1.55, -4.45 -1.58, -4.43 -1.62 M-4.43 -1.62 C-4.42 -1.65, -4.41 -1.67, -4.39 -1.73 M-4.43 -1.62 C-4.42 -1.65, -4.41 -1.67, -4.39 -1.73 M-4.39 -1.73 C-4.37 -1.77, -4.35 -1.8, -4.33 -1.83 M-4.39 -1.73 C-4.36 -1.77, -4.34 -1.8, -4.33 -1.83 M-4.33 -1.83 C-4.31 -1.85, -4.3 -1.88, -4.26 -1.93 M-4.33 -1.83 C-4.31 -1.85, -4.3 -1.88, -4.26 -1.93 M-4.26 -1.93 C-4.24 -1.95, -4.22 -1.98, -4.19 -2.01 M-4.26 -1.93 C-4.24 -1.95, -4.22 -1.98, -4.19 -2.01 M-4.19 -2.01 C-4.16 -2.04, -4.14 -2.06, -4.1 -2.09 M-4.19 -2.01 C-4.16 -2.04, -4.13 -2.07, -4.1 -2.09 M-4.1 -2.09 C-4.08 -2.11, -4.06 -2.13, -4.01 -2.17 M-4.1 -2.09 C-4.08 -2.12, -4.05 -2.14, -4.01 -2.17 M-4.01 -2.17 C-3.98 -2.19, -3.95 -2.21, -3.92 -2.23 M-4.01 -2.17 C-3.99 -2.18, -3.96 -2.2, -3.92 -2.23 M-3.92 -2.23 C-3.88 -2.25, -3.83 -2.27, -3.81 -2.28 M-3.92 -2.23 C-3.88 -2.25, -3.85 -2.27, -3.81 -2.28 M-3.81 -2.28 C-3.77 -2.3, -3.73 -2.32, -3.7 -2.33 M-3.81 -2.28 C-3.78 -2.3, -3.76 -2.31, -3.7 -2.33 M-3.7 -2.33 C-3.66 -2.34, -3.62 -2.35, -3.59 -2.36 M-3.7 -2.33 C-3.68 -2.34, -3.65 -2.34, -3.59 -2.36 M-3.59 -2.36 C-3.56 -2.37, -3.54 -2.37, -3.46 -2.38 M-3.59 -2.36 C-3.56 -2.37, -3.53 -2.37, -3.46 -2.38 M-3.46 -2.38 C-2.56 -2.38, -1.65 -2.38, 0 -2.38 M-3.46 -2.38 C-2.51 -2.38, -1.56 -2.38, 0 -2.38 M0 -2.38 C0 -2.38, 0 -2.38, 0 -2.38 M0 -2.38 C0 -2.38, 0 -2.38, 0 -2.38 M0 -2.38 C0.05 -2.39, 0.09 -2.39, 0.12 -2.4 M0 -2.38 C0.04 -2.39, 0.08 -2.39, 0.12 -2.4 M0.12 -2.4 C0.15 -2.4, 0.18 -2.4, 0.24 -2.4 M0.12 -2.4 C0.16 -2.4, 0.2 -2.4, 0.24 -2.4 M0.24 -2.4 C0.28 -2.39, 0.31 -2.39, 0.36 -2.39 M0.24 -2.4 C0.27 -2.39, 0.3 -2.39, 0.36 -2.39 M0.36 -2.39 C0.41 -2.38, 0.45 -2.37, 0.48 -2.36 M0.36 -2.39 C0.4 -2.38, 0.43 -2.37, 0.48 -2.36 M0.48 -2.36 C0.52 -2.35, 0.55 -2.34, 0.59 -2.33 M0.48 -2.36 C0.52 -2.35, 0.57 -2.34, 0.59 -2.33 M0.59 -2.33 C0.63 -2.32, 0.67 -2.3, 0.7 -2.29 M0.59 -2.33 C0.62 -2.32, 0.64 -2.31, 0.7 -2.29 M0.7 -2.29 C0.74 -2.27, 0.78 -2.25, 0.8 -2.23 M0.7 -2.29 C0.73 -2.27, 0.76 -2.25, 0.8 -2.23 M0.8 -2.23 C0.83 -2.21, 0.86 -2.19, 0.9 -2.17 M0.8 -2.23 C0.82 -2.22, 0.84 -2.21, 0.9 -2.17 M0.9 -2.17 C0.92 -2.15, 0.95 -2.13, 0.99 -2.1 M0.9 -2.17 C0.93 -2.15, 0.95 -2.13, 0.99 -2.1 M0.99 -2.1 C1.02 -2.07, 1.05 -2.04, 1.07 -2.02 M0.99 -2.1 C1.01 -2.08, 1.03 -2.06, 1.07 -2.02 M1.07 -2.02 C1.1 -1.99, 1.12 -1.97, 1.15 -1.93 M1.07 -2.02 C1.09 -1.99, 1.11 -1.97, 1.15 -1.93 M1.15 -1.93 C1.16 -1.91, 1.18 -1.89, 1.22 -1.83 M1.15 -1.93 C1.17 -1.9, 1.19 -1.87, 1.22 -1.83 M1.22 -1.83 C1.24 -1.8, 1.26 -1.76, 1.27 -1.73 M1.22 -1.83 C1.23 -1.8, 1.25 -1.78, 1.27 -1.73 M1.27 -1.73 C1.29 -1.69, 1.31 -1.66, 1.32 -1.62 M1.27 -1.73 C1.29 -1.7, 1.3 -1.68, 1.32 -1.62 M1.32 -1.62 C1.33 -1.59, 1.34 -1.56, 1.36 -1.51 M1.32 -1.62 C1.33 -1.6, 1.34 -1.57, 1.36 -1.51 M1.36 -1.51 C1.36 -1.48, 1.37 -1.46, 1.38 -1.38 M1.36 -1.51 C1.37 -1.46, 1.38 -1.42, 1.38 -1.38 M1.38 -1.38 C1.39 -1.34, 1.4 -1.29, 1.4 -1.26 M1.38 -1.38 C1.39 -1.34, 1.4 -1.29, 1.4 -1.26 M1.4 -1.26 C1.4 -1.23, 1.4 -1.2, 1.4 -1.14 M1.4 -1.26 C1.4 -1.22, 1.4 -1.17, 1.4 -1.14 M1.4 -1.14 C1.4 -1.12, 1.39 -1.09, 1.39 -1.02 M1.4 -1.14 C1.4 -1.12, 1.39 -1.09, 1.39 -1.02 M1.39 -1.02 C1.38 -1, 1.38 -0.97, 1.37 -0.91 M1.39 -1.02 C1.38 -0.99, 1.38 -0.96, 1.37 -0.91 M1.37 -0.91 C1.35 -0.87, 1.34 -0.83, 1.33 -0.79 M1.37 -0.91 C1.35 -0.87, 1.34 -0.83, 1.33 -0.79 M1.33 -0.79 C1.31 -0.75, 1.3 -0.71, 1.29 -0.69 M1.33 -0.79 C1.32 -0.77, 1.31 -0.75, 1.29 -0.69 M1.29 -0.69 C1.27 -0.65, 1.25 -0.62, 1.23 -0.58 M1.29 -0.69 C1.28 -0.66, 1.26 -0.64, 1.23 -0.58 M1.23 -0.58 C1.22 -0.55, 1.2 -0.53, 1.17 -0.49 M1.23 -0.58 C1.22 -0.56, 1.2 -0.53, 1.17 -0.49 M1.17 -0.49 C1.15 -0.46, 1.13 -0.43, 1.1 -0.39 M1.17 -0.49 C1.15 -0.46, 1.13 -0.43, 1.1 -0.39 M1.1 -0.39 C1.08 -0.37, 1.06 -0.35, 1.02 -0.31 M1.1 -0.39 C1.07 -0.37, 1.04 -0.34, 1.02 -0.31 M1.02 -0.31 C1 -0.29, 0.97 -0.27, 0.93 -0.24 M1.02 -0.31 C0.99 -0.29, 0.96 -0.26, 0.93 -0.24 M0.93 -0.24 C0.9 -0.21, 0.87 -0.19, 0.83 -0.17 M0.93 -0.24 C0.9 -0.21, 0.87 -0.19, 0.83 -0.17 M0.83 -0.17 C0.8 -0.15, 0.76 -0.13, 0.73 -0.11 M0.83 -0.17 C0.8 -0.15, 0.76 -0.13, 0.73 -0.11 M0.73 -0.11 C0.71 -0.1, 0.69 -0.09, 0.62 -0.06 M0.73 -0.11 C0.69 -0.09, 0.65 -0.08, 0.62 -0.06 M0.62 -0.06 C0.58 -0.05, 0.54 -0.04, 0.51 -0.03 M0.62 -0.06 C0.58 -0.05, 0.54 -0.04, 0.51 -0.03 M0.51 -0.03 C0.47 -0.02, 0.43 -0.01, 0.39 0 M0.51 -0.03 C0.47 -0.02, 0.44 -0.01, 0.39 0 M0.39 0 C0.29 0, 0.2 0, 0 0 M0.39 0 C0.25 0, 0.12 0, 0 0 M0 0 C0 0, 0 0, 0 0 M0 0 C0 0, 0 0, 0 0 M0 0 C0 0, 0 0, 0 0 M0 0 C0 0, 0 0, 0 0" stroke="#00000000" stroke-width="1" fill="none"></path></g></g><mask></mask><g stroke-linecap="round"><g transform="translate(30.588275909423828 44.81379318237293) rotate(0 -2.768820106983185 -1.2091102600097656)" fill-rule="evenodd"><path d="M0 0 L-5.66 0 L-5.66 0 L-5.78 0 L-5.9 -0.01 L-6.02 -0.04 L-6.13 -0.08 L-6.24 -0.12 L-6.34 -0.18 L-6.44 -0.25 L-6.53 -0.32 L-6.61 -0.4 L-6.68 -0.5 L-6.75 -0.59 L-6.8 -0.7 L-6.85 -0.81 L-6.88 -0.92 L-6.91 -1.04 L-6.92 -1.16 L-6.91 -1.38 L-6.86 -1.59 L-6.78 -1.78 L-6.67 -1.95 L-6.53 -2.11 L-6.36 -2.24 L-6.18 -2.33 L-5.97 -2.4 L-0.05 -2.4 L-0.05 -2.4 L0.07 -2.42 L0.2 -2.42 L0.32 -2.41 L0.43 -2.39 L0.55 -2.36 L0.66 -2.31 L0.76 -2.26 L0.86 -2.2 L0.95 -2.13 L1.04 -2.05 L1.12 -1.96 L1.19 -1.87 L1.25 -1.76 L1.3 -1.65 L1.34 -1.54 L1.36 -1.42 L1.38 -1.29 L1.38 -1.17 L1.37 -1.05 L1.35 -0.93 L1.32 -0.82 L1.28 -0.71 L1.23 -0.61 L1.16 -0.51 L1.09 -0.41 L1.01 -0.33 L0.93 -0.25 L0.83 -0.18 L0.73 -0.12 L0.62 -0.07 L0.5 -0.03 L0.38 -0.01 L0 -0.01 L0 0" stroke="none" stroke-width="0" fill="#aecbfa" fill-rule="evenodd"></path><path d="M0 0 C-1.9 0, -3.8 0, -5.66 0 M0 0 C-1.25 0, -2.5 0, -5.66 0 M-5.66 0 C-5.66 0, -5.66 0, -5.66 0 M-5.66 0 C-5.66 0, -5.66 0, -5.66 0 M-5.66 0 C-5.69 0, -5.72 0, -5.78 0 M-5.66 0 C-5.69 0, -5.72 0, -5.78 0 M-5.78 0 C-5.81 -0.01, -5.85 -0.01, -5.9 -0.01 M-5.78 0 C-5.8 0, -5.83 -0.01, -5.9 -0.01 M-5.9 -0.01 C-5.95 -0.02, -5.99 -0.03, -6.02 -0.04 M-5.9 -0.01 C-5.93 -0.02, -5.95 -0.03, -6.02 -0.04 M-6.02 -0.04 C-6.05 -0.05, -6.08 -0.06, -6.13 -0.08 M-6.02 -0.04 C-6.05 -0.05, -6.08 -0.06, -6.13 -0.08 M-6.13 -0.08 C-6.15 -0.09, -6.18 -0.1, -6.24 -0.12 M-6.13 -0.08 C-6.16 -0.09, -6.2 -0.11, -6.24 -0.12 M-6.24 -0.12 C-6.28 -0.14, -6.31 -0.17, -6.34 -0.18 M-6.24 -0.12 C-6.26 -0.14, -6.29 -0.15, -6.34 -0.18 M-6.34 -0.18 C-6.37 -0.2, -6.39 -0.21, -6.44 -0.25 M-6.34 -0.18 C-6.36 -0.2, -6.39 -0.21, -6.44 -0.25 M-6.44 -0.25 C-6.47 -0.27, -6.5 -0.3, -6.53 -0.32 M-6.44 -0.25 C-6.46 -0.27, -6.49 -0.29, -6.53 -0.32 M-6.53 -0.32 C-6.55 -0.34, -6.57 -0.36, -6.61 -0.4 M-6.53 -0.32 C-6.55 -0.34, -6.57 -0.36, -6.61 -0.4 M-6.61 -0.4 C-6.63 -0.43, -6.65 -0.46, -6.68 -0.5 M-6.61 -0.4 C-6.63 -0.43, -6.65 -0.46, -6.68 -0.5 M-6.68 -0.5 C-6.7 -0.52, -6.71 -0.54, -6.75 -0.59 M-6.68 -0.5 C-6.7 -0.53, -6.72 -0.56, -6.75 -0.59 M-6.75 -0.59 C-6.76 -0.62, -6.78 -0.65, -6.8 -0.7 M-6.75 -0.59 C-6.76 -0.61, -6.77 -0.64, -6.8 -0.7 M-6.8 -0.7 C-6.81 -0.72, -6.83 -0.75, -6.85 -0.81 M-6.8 -0.7 C-6.82 -0.74, -6.84 -0.78, -6.85 -0.81 M-6.85 -0.81 C-6.86 -0.85, -6.87 -0.89, -6.88 -0.92 M-6.85 -0.81 C-6.86 -0.83, -6.86 -0.85, -6.88 -0.92 M-6.88 -0.92 C-6.89 -0.96, -6.9 -1, -6.91 -1.04 M-6.88 -0.92 C-6.89 -0.95, -6.9 -0.99, -6.91 -1.04 M-6.91 -1.04 C-6.91 -1.07, -6.91 -1.1, -6.92 -1.16 M-6.91 -1.04 C-6.91 -1.07, -6.91 -1.1, -6.92 -1.16 M-6.92 -1.16 C-6.92 -1.22, -6.91 -1.27, -6.91 -1.38 M-6.92 -1.16 C-6.92 -1.21, -6.91 -1.25, -6.91 -1.38 M-6.91 -1.38 C-6.89 -1.45, -6.88 -1.51, -6.86 -1.59 M-6.91 -1.38 C-6.89 -1.44, -6.88 -1.5, -6.86 -1.59 M-6.86 -1.59 C-6.83 -1.65, -6.81 -1.71, -6.78 -1.78 M-6.86 -1.59 C-6.83 -1.65, -6.81 -1.71, -6.78 -1.78 M-6.78 -1.78 C-6.75 -1.83, -6.71 -1.88, -6.67 -1.95 M-6.78 -1.78 C-6.75 -1.82, -6.72 -1.87, -6.67 -1.95 M-6.67 -1.95 C-6.61 -2.01, -6.56 -2.07, -6.53 -2.11 M-6.67 -1.95 C-6.63 -1.99, -6.6 -2.03, -6.53 -2.11 M-6.53 -2.11 C-6.47 -2.15, -6.41 -2.2, -6.36 -2.24 M-6.53 -2.11 C-6.48 -2.14, -6.43 -2.18, -6.36 -2.24 M-6.36 -2.24 C-6.32 -2.26, -6.27 -2.29, -6.18 -2.33 M-6.36 -2.24 C-6.32 -2.26, -6.28 -2.28, -6.18 -2.33 M-6.18 -2.33 C-6.11 -2.36, -6.03 -2.38, -5.97 -2.4 M-6.18 -2.33 C-6.12 -2.35, -6.07 -2.37, -5.97 -2.4 M-5.97 -2.4 C-4.72 -2.4, -3.47 -2.4, -0.05 -2.4 M-5.97 -2.4 C-3.83 -2.4, -1.69 -2.4, -0.05 -2.4 M-0.05 -2.4 C-0.05 -2.4, -0.05 -2.4, -0.05 -2.4 M-0.05 -2.4 C-0.05 -2.4, -0.05 -2.4, -0.05 -2.4 M-0.05 -2.4 C-0.01 -2.41, 0.04 -2.41, 0.07 -2.42 M-0.05 -2.4 C-0.01 -2.41, 0.04 -2.41, 0.07 -2.42 M0.07 -2.42 C0.11 -2.42, 0.14 -2.42, 0.2 -2.42 M0.07 -2.42 C0.11 -2.42, 0.14 -2.42, 0.2 -2.42 M0.2 -2.42 C0.23 -2.42, 0.26 -2.41, 0.32 -2.41 M0.2 -2.42 C0.24 -2.41, 0.29 -2.41, 0.32 -2.41 M0.32 -2.41 C0.36 -2.4, 0.41 -2.39, 0.43 -2.39 M0.32 -2.41 C0.34 -2.4, 0.37 -2.4, 0.43 -2.39 M0.43 -2.39 C0.47 -2.38, 0.5 -2.37, 0.55 -2.36 M0.43 -2.39 C0.46 -2.38, 0.48 -2.38, 0.55 -2.36 M0.55 -2.36 C0.57 -2.35, 0.59 -2.34, 0.66 -2.31 M0.55 -2.36 C0.57 -2.35, 0.6 -2.34, 0.66 -2.31 M0.66 -2.31 C0.69 -2.3, 0.73 -2.28, 0.76 -2.26 M0.66 -2.31 C0.69 -2.3, 0.72 -2.28, 0.76 -2.26 M0.76 -2.26 C0.79 -2.25, 0.81 -2.23, 0.86 -2.2 M0.76 -2.26 C0.79 -2.24, 0.82 -2.23, 0.86 -2.2 M0.86 -2.2 C0.9 -2.17, 0.93 -2.15, 0.95 -2.13 M0.86 -2.2 C0.89 -2.18, 0.92 -2.16, 0.95 -2.13 M0.95 -2.13 C0.98 -2.1, 1.01 -2.08, 1.04 -2.05 M0.95 -2.13 C0.98 -2.11, 1 -2.09, 1.04 -2.05 M1.04 -2.05 C1.06 -2.03, 1.07 -2.01, 1.12 -1.96 M1.04 -2.05 C1.06 -2.02, 1.09 -1.99, 1.12 -1.96 M1.12 -1.96 C1.14 -1.93, 1.16 -1.91, 1.19 -1.87 M1.12 -1.96 C1.14 -1.93, 1.17 -1.89, 1.19 -1.87 M1.19 -1.87 C1.21 -1.83, 1.23 -1.8, 1.25 -1.76 M1.19 -1.87 C1.2 -1.84, 1.22 -1.81, 1.25 -1.76 M1.25 -1.76 C1.26 -1.72, 1.28 -1.68, 1.3 -1.65 M1.25 -1.76 C1.26 -1.73, 1.28 -1.69, 1.3 -1.65 M1.3 -1.65 C1.31 -1.61, 1.32 -1.57, 1.34 -1.54 M1.3 -1.65 C1.3 -1.63, 1.31 -1.61, 1.34 -1.54 M1.34 -1.54 C1.34 -1.51, 1.35 -1.49, 1.36 -1.42 M1.34 -1.54 C1.34 -1.51, 1.35 -1.49, 1.36 -1.42 M1.36 -1.42 C1.37 -1.38, 1.37 -1.34, 1.38 -1.29 M1.36 -1.42 C1.37 -1.39, 1.37 -1.36, 1.38 -1.29 M1.38 -1.29 C1.38 -1.25, 1.38 -1.21, 1.38 -1.17 M1.38 -1.29 C1.38 -1.26, 1.38 -1.22, 1.38 -1.17 M1.38 -1.17 C1.38 -1.14, 1.38 -1.11, 1.37 -1.05 M1.38 -1.17 C1.38 -1.14, 1.38 -1.1, 1.37 -1.05 M1.37 -1.05 C1.37 -1.02, 1.36 -0.98, 1.35 -0.93 M1.37 -1.05 C1.37 -1.02, 1.36 -1, 1.35 -0.93 M1.35 -0.93 C1.34 -0.9, 1.34 -0.88, 1.32 -0.82 M1.35 -0.93 C1.34 -0.89, 1.33 -0.84, 1.32 -0.82 M1.32 -0.82 C1.31 -0.78, 1.29 -0.75, 1.28 -0.71 M1.32 -0.82 C1.31 -0.79, 1.3 -0.76, 1.28 -0.71 M1.28 -0.71 C1.26 -0.68, 1.24 -0.64, 1.23 -0.61 M1.28 -0.71 C1.26 -0.68, 1.25 -0.65, 1.23 -0.61 M1.23 -0.61 C1.21 -0.58, 1.19 -0.54, 1.16 -0.51 M1.23 -0.61 C1.2 -0.57, 1.18 -0.53, 1.16 -0.51 M1.16 -0.51 C1.14 -0.47, 1.11 -0.43, 1.09 -0.41 M1.16 -0.51 C1.14 -0.48, 1.12 -0.45, 1.09 -0.41 M1.09 -0.41 C1.07 -0.39, 1.04 -0.36, 1.01 -0.33 M1.09 -0.41 C1.07 -0.39, 1.05 -0.37, 1.01 -0.33 M1.01 -0.33 C0.99 -0.3, 0.96 -0.28, 0.93 -0.25 M1.01 -0.33 C0.99 -0.31, 0.96 -0.28, 0.93 -0.25 M0.93 -0.25 C0.91 -0.24, 0.88 -0.22, 0.83 -0.18 M0.93 -0.25 C0.9 -0.24, 0.88 -0.22, 0.83 -0.18 M0.83 -0.18 C0.8 -0.16, 0.76 -0.14, 0.73 -0.12 M0.83 -0.18 C0.81 -0.17, 0.79 -0.16, 0.73 -0.12 M0.73 -0.12 C0.7 -0.11, 0.68 -0.1, 0.62 -0.07 M0.73 -0.12 C0.69 -0.11, 0.66 -0.09, 0.62 -0.07 M0.62 -0.07 C0.58 -0.06, 0.54 -0.04, 0.5 -0.03 M0.62 -0.07 C0.58 -0.06, 0.53 -0.04, 0.5 -0.03 M0.5 -0.03 C0.45 -0.02, 0.41 -0.01, 0.38 -0.01 M0.5 -0.03 C0.48 -0.03, 0.45 -0.02, 0.38 -0.01 M0.38 -0.01 C0.26 -0.01, 0.15 -0.01, 0 -0.01 M0.38 -0.01 C0.3 -0.01, 0.22 -0.01, 0 -0.01 M0 -0.01 C0 0, 0 0, 0 0 M0 -0.01 C0 0, 0 0, 0 0 M0 0 C0 0, 0 0, 0 0 M0 0 C0 0, 0 0, 0 0" stroke="#00000000" stroke-width="1" fill="none"></path></g></g><mask></mask><g stroke-linecap="round"><g transform="translate(30.588275909423828 49.166896820068246) rotate(0 -1.556618332862854 -1.1937265396118164)" fill-rule="evenodd"><path d="M0 0 L-3.16 0 L-3.16 0 L-3.28 0.01 L-3.4 0.01 L-3.52 -0.01 L-3.63 -0.03 L-3.74 -0.07 L-3.85 -0.12 L-3.95 -0.17 L-4.04 -0.24 L-4.13 -0.31 L-4.21 -0.4 L-4.29 -0.49 L-4.35 -0.59 L-4.4 -0.69 L-4.45 -0.8 L-4.48 -0.92 L-4.5 -1.04 L-4.51 -1.16 L-4.51 -1.28 L-4.5 -1.4 L-4.47 -1.51 L-4.43 -1.62 L-4.39 -1.73 L-4.33 -1.83 L-4.26 -1.93 L-4.19 -2.01 L-4.1 -2.09 L-4.01 -2.17 L-3.92 -2.23 L-3.81 -2.28 L-3.7 -2.33 L-3.59 -2.36 L-3.46 -2.38 L0 -2.38 L0 -2.38 L0.12 -2.4 L0.24 -2.4 L0.36 -2.39 L0.48 -2.36 L0.59 -2.33 L0.7 -2.29 L0.8 -2.23 L0.9 -2.17 L0.99 -2.1 L1.07 -2.02 L1.15 -1.93 L1.22 -1.83 L1.27 -1.73 L1.32 -1.62 L1.36 -1.51 L1.38 -1.38 L1.4 -1.26 L1.4 -1.14 L1.39 -1.02 L1.37 -0.91 L1.33 -0.79 L1.29 -0.69 L1.23 -0.58 L1.17 -0.49 L1.1 -0.39 L1.02 -0.31 L0.93 -0.24 L0.83 -0.17 L0.73 -0.11 L0.62 -0.06 L0.51 -0.03 L0.39 0 L0 0 L0 0" stroke="none" stroke-width="0" fill="#669df6" fill-rule="evenodd"></path><path d="M0 0 C-1.07 0, -2.14 0, -3.16 0 M0 0 C-1.01 0, -2.01 0, -3.16 0 M-3.16 0 C-3.16 0, -3.16 0, -3.16 0 M-3.16 0 C-3.16 0, -3.16 0, -3.16 0 M-3.16 0 C-3.18 0, -3.21 0, -3.28 0.01 M-3.16 0 C-3.2 0, -3.25 0.01, -3.28 0.01 M-3.28 0.01 C-3.3 0.01, -3.33 0.01, -3.4 0.01 M-3.28 0.01 C-3.32 0.01, -3.37 0.01, -3.4 0.01 M-3.4 0.01 C-3.43 0, -3.45 0, -3.52 -0.01 M-3.4 0.01 C-3.43 0, -3.46 0, -3.52 -0.01 M-3.52 -0.01 C-3.55 -0.01, -3.58 -0.02, -3.63 -0.03 M-3.52 -0.01 C-3.56 -0.02, -3.6 -0.03, -3.63 -0.03 M-3.63 -0.03 C-3.66 -0.04, -3.68 -0.05, -3.74 -0.07 M-3.63 -0.03 C-3.66 -0.04, -3.69 -0.05, -3.74 -0.07 M-3.74 -0.07 C-3.77 -0.08, -3.8 -0.1, -3.85 -0.12 M-3.74 -0.07 C-3.77 -0.08, -3.8 -0.09, -3.85 -0.12 M-3.85 -0.12 C-3.88 -0.13, -3.91 -0.15, -3.95 -0.17 M-3.85 -0.12 C-3.87 -0.13, -3.9 -0.14, -3.95 -0.17 M-3.95 -0.17 C-3.98 -0.19, -4.01 -0.22, -4.04 -0.24 M-3.95 -0.17 C-3.98 -0.2, -4.02 -0.22, -4.04 -0.24 M-4.04 -0.24 C-4.07 -0.26, -4.1 -0.29, -4.13 -0.31 M-4.04 -0.24 C-4.07 -0.26, -4.09 -0.28, -4.13 -0.31 M-4.13 -0.31 C-4.16 -0.35, -4.19 -0.38, -4.21 -0.4 M-4.13 -0.31 C-4.16 -0.34, -4.19 -0.37, -4.21 -0.4 M-4.21 -0.4 C-4.24 -0.43, -4.27 -0.47, -4.29 -0.49 M-4.21 -0.4 C-4.23 -0.42, -4.25 -0.44, -4.29 -0.49 M-4.29 -0.49 C-4.3 -0.51, -4.31 -0.53, -4.35 -0.59 M-4.29 -0.49 C-4.31 -0.52, -4.33 -0.55, -4.35 -0.59 M-4.35 -0.59 C-4.36 -0.61, -4.38 -0.64, -4.4 -0.69 M-4.35 -0.59 C-4.37 -0.62, -4.38 -0.65, -4.4 -0.69 M-4.4 -0.69 C-4.41 -0.72, -4.43 -0.75, -4.45 -0.8 M-4.4 -0.69 C-4.42 -0.73, -4.43 -0.76, -4.45 -0.8 M-4.45 -0.8 C-4.46 -0.83, -4.46 -0.86, -4.48 -0.92 M-4.45 -0.8 C-4.46 -0.85, -4.47 -0.89, -4.48 -0.92 M-4.48 -0.92 C-4.49 -0.96, -4.5 -1, -4.5 -1.04 M-4.48 -0.92 C-4.49 -0.95, -4.49 -0.98, -4.5 -1.04 M-4.5 -1.04 C-4.51 -1.08, -4.51 -1.12, -4.51 -1.16 M-4.5 -1.04 C-4.51 -1.08, -4.51 -1.13, -4.51 -1.16 M-4.51 -1.16 C-4.51 -1.19, -4.51 -1.22, -4.51 -1.28 M-4.51 -1.16 C-4.51 -1.2, -4.51 -1.24, -4.51 -1.28 M-4.51 -1.28 C-4.51 -1.32, -4.5 -1.36, -4.5 -1.4 M-4.51 -1.28 C-4.51 -1.31, -4.5 -1.34, -4.5 -1.4 M-4.5 -1.4 C-4.49 -1.42, -4.48 -1.45, -4.47 -1.51 M-4.5 -1.4 C-4.49 -1.42, -4.48 -1.45, -4.47 -1.51 M-4.47 -1.51 C-4.46 -1.54, -4.45 -1.56, -4.43 -1.62 M-4.47 -1.51 C-4.46 -1.55, -4.44 -1.6, -4.43 -1.62 M-4.43 -1.62 C-4.42 -1.65, -4.41 -1.68, -4.39 -1.73 M-4.43 -1.62 C-4.42 -1.66, -4.4 -1.69, -4.39 -1.73 M-4.39 -1.73 C-4.37 -1.76, -4.35 -1.8, -4.33 -1.83 M-4.39 -1.73 C-4.37 -1.75, -4.36 -1.78, -4.33 -1.83 M-4.33 -1.83 C-4.3 -1.87, -4.28 -1.9, -4.26 -1.93 M-4.33 -1.83 C-4.31 -1.85, -4.3 -1.88, -4.26 -1.93 M-4.26 -1.93 C-4.24 -1.95, -4.22 -1.98, -4.19 -2.01 M-4.26 -1.93 C-4.25 -1.95, -4.23 -1.97, -4.19 -2.01 M-4.19 -2.01 C-4.15 -2.05, -4.12 -2.08, -4.1 -2.09 M-4.19 -2.01 C-4.16 -2.05, -4.12 -2.08, -4.1 -2.09 M-4.1 -2.09 C-4.08 -2.11, -4.06 -2.13, -4.01 -2.17 M-4.1 -2.09 C-4.07 -2.12, -4.04 -2.15, -4.01 -2.17 M-4.01 -2.17 C-3.98 -2.19, -3.94 -2.22, -3.92 -2.23 M-4.01 -2.17 C-3.98 -2.19, -3.94 -2.22, -3.92 -2.23 M-3.92 -2.23 C-3.89 -2.24, -3.86 -2.26, -3.81 -2.28 M-3.92 -2.23 C-3.89 -2.25, -3.86 -2.26, -3.81 -2.28 M-3.81 -2.28 C-3.78 -2.3, -3.74 -2.31, -3.7 -2.33 M-3.81 -2.28 C-3.77 -2.3, -3.72 -2.32, -3.7 -2.33 M-3.7 -2.33 C-3.66 -2.34, -3.63 -2.35, -3.59 -2.36 M-3.7 -2.33 C-3.67 -2.34, -3.64 -2.35, -3.59 -2.36 M-3.59 -2.36 C-3.56 -2.37, -3.53 -2.37, -3.46 -2.38 M-3.59 -2.36 C-3.54 -2.37, -3.49 -2.38, -3.46 -2.38 M-3.46 -2.38 C-2.49 -2.38, -1.52 -2.38, 0 -2.38 M-3.46 -2.38 C-2.59 -2.38, -1.71 -2.38, 0 -2.38 M0 -2.38 C0 -2.38, 0 -2.38, 0 -2.38 M0 -2.38 C0 -2.38, 0 -2.38, 0 -2.38 M0 -2.38 C0.03 -2.39, 0.06 -2.39, 0.12 -2.4 M0 -2.38 C0.03 -2.39, 0.05 -2.39, 0.12 -2.4 M0.12 -2.4 C0.15 -2.4, 0.18 -2.4, 0.24 -2.4 M0.12 -2.4 C0.17 -2.4, 0.21 -2.4, 0.24 -2.4 M0.24 -2.4 C0.28 -2.39, 0.32 -2.39, 0.36 -2.39 M0.24 -2.4 C0.29 -2.39, 0.33 -2.39, 0.36 -2.39 M0.36 -2.39 C0.41 -2.38, 0.45 -2.37, 0.48 -2.36 M0.36 -2.39 C0.39 -2.38, 0.42 -2.38, 0.48 -2.36 M0.48 -2.36 C0.52 -2.35, 0.55 -2.34, 0.59 -2.33 M0.48 -2.36 C0.52 -2.35, 0.55 -2.34, 0.59 -2.33 M0.59 -2.33 C0.62 -2.32, 0.66 -2.3, 0.7 -2.29 M0.59 -2.33 C0.62 -2.32, 0.65 -2.31, 0.7 -2.29 M0.7 -2.29 C0.73 -2.27, 0.76 -2.25, 0.8 -2.23 M0.7 -2.29 C0.72 -2.28, 0.74 -2.26, 0.8 -2.23 M0.8 -2.23 C0.84 -2.21, 0.87 -2.19, 0.9 -2.17 M0.8 -2.23 C0.84 -2.21, 0.88 -2.18, 0.9 -2.17 M0.9 -2.17 C0.93 -2.15, 0.96 -2.12, 0.99 -2.1 M0.9 -2.17 C0.93 -2.15, 0.96 -2.12, 0.99 -2.1 M0.99 -2.1 C1.01 -2.07, 1.04 -2.05, 1.07 -2.02 M0.99 -2.1 C1.01 -2.07, 1.04 -2.05, 1.07 -2.02 M1.07 -2.02 C1.1 -1.98, 1.13 -1.95, 1.15 -1.93 M1.07 -2.02 C1.09 -2, 1.11 -1.98, 1.15 -1.93 M1.15 -1.93 C1.17 -1.9, 1.19 -1.87, 1.22 -1.83 M1.15 -1.93 C1.17 -1.9, 1.18 -1.88, 1.22 -1.83 M1.22 -1.83 C1.23 -1.8, 1.25 -1.77, 1.27 -1.73 M1.22 -1.83 C1.24 -1.8, 1.25 -1.76, 1.27 -1.73 M1.27 -1.73 C1.29 -1.7, 1.3 -1.68, 1.32 -1.62 M1.27 -1.73 C1.29 -1.69, 1.31 -1.64, 1.32 -1.62 M1.32 -1.62 C1.33 -1.59, 1.34 -1.56, 1.36 -1.51 M1.32 -1.62 C1.33 -1.59, 1.34 -1.56, 1.36 -1.51 M1.36 -1.51 C1.37 -1.46, 1.38 -1.42, 1.38 -1.38 M1.36 -1.51 C1.37 -1.46, 1.38 -1.42, 1.38 -1.38 M1.38 -1.38 C1.39 -1.36, 1.39 -1.33, 1.4 -1.26 M1.38 -1.38 C1.39 -1.34, 1.39 -1.3, 1.4 -1.26 M1.4 -1.26 C1.4 -1.22, 1.4 -1.17, 1.4 -1.14 M1.4 -1.26 C1.4 -1.23, 1.4 -1.2, 1.4 -1.14 M1.4 -1.14 C1.39 -1.1, 1.39 -1.06, 1.39 -1.02 M1.4 -1.14 C1.4 -1.11, 1.39 -1.08, 1.39 -1.02 M1.39 -1.02 C1.38 -0.99, 1.38 -0.96, 1.37 -0.91 M1.39 -1.02 C1.38 -0.99, 1.38 -0.96, 1.37 -0.91 M1.37 -0.91 C1.36 -0.88, 1.35 -0.85, 1.33 -0.79 M1.37 -0.91 C1.35 -0.87, 1.34 -0.83, 1.33 -0.79 M1.33 -0.79 C1.32 -0.76, 1.3 -0.72, 1.29 -0.69 M1.33 -0.79 C1.32 -0.76, 1.31 -0.73, 1.29 -0.69 M1.29 -0.69 C1.27 -0.65, 1.25 -0.61, 1.23 -0.58 M1.29 -0.69 C1.28 -0.66, 1.26 -0.64, 1.23 -0.58 M1.23 -0.58 C1.22 -0.56, 1.2 -0.53, 1.17 -0.49 M1.23 -0.58 C1.21 -0.55, 1.19 -0.52, 1.17 -0.49 M1.17 -0.49 C1.15 -0.46, 1.13 -0.44, 1.1 -0.39 M1.17 -0.49 C1.15 -0.45, 1.12 -0.42, 1.1 -0.39 M1.1 -0.39 C1.08 -0.37, 1.06 -0.35, 1.02 -0.31 M1.1 -0.39 C1.07 -0.36, 1.04 -0.33, 1.02 -0.31 M1.02 -0.31 C1 -0.29, 0.97 -0.27, 0.93 -0.24 M1.02 -0.31 C0.98 -0.28, 0.95 -0.25, 0.93 -0.24 M0.93 -0.24 C0.91 -0.22, 0.89 -0.2, 0.83 -0.17 M0.93 -0.24 C0.9 -0.22, 0.87 -0.2, 0.83 -0.17 M0.83 -0.17 C0.81 -0.16, 0.79 -0.14, 0.73 -0.11 M0.83 -0.17 C0.81 -0.16, 0.79 -0.14, 0.73 -0.11 M0.73 -0.11 C0.7 -0.1, 0.67 -0.08, 0.62 -0.06 M0.73 -0.11 C0.7 -0.1, 0.67 -0.09, 0.62 -0.06 M0.62 -0.06 C0.59 -0.05, 0.57 -0.04, 0.51 -0.03 M0.62 -0.06 C0.59 -0.05, 0.56 -0.04, 0.51 -0.03 M0.51 -0.03 C0.48 -0.02, 0.45 -0.01, 0.39 0 M0.51 -0.03 C0.48 -0.02, 0.45 -0.01, 0.39 0 M0.39 0 C0.23 0, 0.08 0, 0 0 M0.39 0 C0.29 0, 0.2 0, 0 0 M0 0 C0 0, 0 0, 0 0 M0 0 C0 0, 0 0, 0 0 M0 0 C0 0, 0 0, 0 0 M0 0 C0 0, 0 0, 0 0" stroke="#00000000" stroke-width="1" fill="none"></path></g></g><mask></mask><g stroke-linecap="round"><g transform="translate(36.138620376586914 38.7448272705077) rotate(0 4.76837158203125e-7 -1.0372414588928223)" fill-rule="evenodd"><path d="M0 0 L0 0 L-0.11 -0.01 L-0.21 -0.02 L-0.4 -0.08 L-0.58 -0.18 L-0.73 -0.3 L-0.86 -0.46 L-0.96 -0.63 L-1.02 -0.83 L-1.03 -0.93 L-1.04 -1.04 L-1.03 -1.14 L-1.02 -1.25 L-0.96 -1.44 L-0.86 -1.62 L-0.73 -1.77 L-0.58 -1.9 L-0.4 -1.99 L-0.21 -2.05 L-0.11 -2.07 L0 -2.07 L0.11 -2.07 L0.21 -2.05 L0.4 -1.99 L0.58 -1.9 L0.73 -1.77 L0.86 -1.62 L0.96 -1.44 L1.02 -1.25 L1.03 -1.14 L1.04 -1.04 L1.03 -0.93 L1.02 -0.83 L0.96 -0.63 L0.86 -0.46 L0.73 -0.3 L0.58 -0.18 L0.4 -0.08 L0.21 -0.02 L0.11 -0.01 L0 0 L0 0" stroke="none" stroke-width="0" fill="#fff" fill-rule="evenodd"></path><path d="M0 0 C0 0, 0 0, 0 0 M0 0 C0 0, 0 0, 0 0 M0 0 C-0.02 0, -0.04 0, -0.11 -0.01 M0 0 C-0.03 0, -0.05 0, -0.11 -0.01 M-0.11 -0.01 C-0.14 -0.01, -0.17 -0.01, -0.21 -0.02 M-0.11 -0.01 C-0.15 -0.01, -0.19 -0.02, -0.21 -0.02 M-0.21 -0.02 C-0.26 -0.04, -0.3 -0.05, -0.4 -0.08 M-0.21 -0.02 C-0.27 -0.04, -0.33 -0.06, -0.4 -0.08 M-0.4 -0.08 C-0.47 -0.12, -0.53 -0.15, -0.58 -0.18 M-0.4 -0.08 C-0.47 -0.12, -0.53 -0.15, -0.58 -0.18 M-0.58 -0.18 C-0.62 -0.21, -0.66 -0.25, -0.73 -0.3 M-0.58 -0.18 C-0.63 -0.22, -0.68 -0.26, -0.73 -0.3 M-0.73 -0.3 C-0.76 -0.34, -0.79 -0.38, -0.86 -0.46 M-0.73 -0.3 C-0.77 -0.35, -0.81 -0.4, -0.86 -0.46 M-0.86 -0.46 C-0.88 -0.49, -0.9 -0.53, -0.96 -0.63 M-0.86 -0.46 C-0.89 -0.52, -0.93 -0.58, -0.96 -0.63 M-0.96 -0.63 C-0.97 -0.67, -0.98 -0.71, -1.02 -0.83 M-0.96 -0.63 C-0.98 -0.7, -1 -0.77, -1.02 -0.83 M-1.02 -0.83 C-1.02 -0.86, -1.03 -0.9, -1.03 -0.93 M-1.02 -0.83 C-1.02 -0.85, -1.02 -0.88, -1.03 -0.93 M-1.03 -0.93 C-1.03 -0.97, -1.04 -1.01, -1.04 -1.04 M-1.03 -0.93 C-1.03 -0.96, -1.03 -0.98, -1.04 -1.04 M-1.04 -1.04 C-1.04 -1.06, -1.03 -1.09, -1.03 -1.14 M-1.04 -1.04 C-1.04 -1.07, -1.03 -1.11, -1.03 -1.14 M-1.03 -1.14 C-1.03 -1.17, -1.02 -1.2, -1.02 -1.25 M-1.03 -1.14 C-1.03 -1.17, -1.02 -1.2, -1.02 -1.25 M-1.02 -1.25 C-1 -1.3, -0.98 -1.36, -0.96 -1.44 M-1.02 -1.25 C-1 -1.31, -0.98 -1.37, -0.96 -1.44 M-0.96 -1.44 C-0.93 -1.49, -0.9 -1.55, -0.86 -1.62 M-0.96 -1.44 C-0.92 -1.51, -0.88 -1.57, -0.86 -1.62 M-0.86 -1.62 C-0.82 -1.67, -0.77 -1.72, -0.73 -1.77 M-0.86 -1.62 C-0.83 -1.65, -0.8 -1.69, -0.73 -1.77 M-0.73 -1.77 C-0.68 -1.82, -0.62 -1.86, -0.58 -1.9 M-0.73 -1.77 C-0.67 -1.82, -0.61 -1.87, -0.58 -1.9 M-0.58 -1.9 C-0.54 -1.92, -0.49 -1.94, -0.4 -1.99 M-0.58 -1.9 C-0.54 -1.92, -0.49 -1.95, -0.4 -1.99 M-0.4 -1.99 C-0.34 -2.01, -0.27 -2.03, -0.21 -2.05 M-0.4 -1.99 C-0.36 -2.01, -0.33 -2.02, -0.21 -2.05 M-0.21 -2.05 C-0.17 -2.06, -0.14 -2.06, -0.11 -2.07 M-0.21 -2.05 C-0.18 -2.06, -0.16 -2.06, -0.11 -2.07 M-0.11 -2.07 C-0.08 -2.07, -0.05 -2.07, 0 -2.07 M-0.11 -2.07 C-0.08 -2.07, -0.05 -2.07, 0 -2.07 M0 -2.07 C0.04 -2.07, 0.08 -2.07, 0.11 -2.07 M0 -2.07 C0.03 -2.07, 0.06 -2.07, 0.11 -2.07 M0.11 -2.07 C0.14 -2.06, 0.18 -2.06, 0.21 -2.05 M0.11 -2.07 C0.13 -2.07, 0.15 -2.06, 0.21 -2.05 M0.21 -2.05 C0.27 -2.03, 0.33 -2.02, 0.4 -1.99 M0.21 -2.05 C0.26 -2.04, 0.32 -2.02, 0.4 -1.99 M0.4 -1.99 C0.44 -1.97, 0.48 -1.95, 0.58 -1.9 M0.4 -1.99 C0.46 -1.96, 0.51 -1.94, 0.58 -1.9 M0.58 -1.9 C0.61 -1.87, 0.64 -1.84, 0.73 -1.77 M0.58 -1.9 C0.61 -1.87, 0.64 -1.85, 0.73 -1.77 M0.73 -1.77 C0.77 -1.73, 0.81 -1.68, 0.86 -1.62 M0.73 -1.77 C0.77 -1.73, 0.81 -1.68, 0.86 -1.62 M0.86 -1.62 C0.89 -1.56, 0.93 -1.5, 0.96 -1.44 M0.86 -1.62 C0.89 -1.57, 0.91 -1.53, 0.96 -1.44 M0.96 -1.44 C0.98 -1.37, 1 -1.29, 1.02 -1.25 M0.96 -1.44 C0.97 -1.39, 0.98 -1.35, 1.02 -1.25 M1.02 -1.25 C1.02 -1.21, 1.03 -1.17, 1.03 -1.14 M1.02 -1.25 C1.02 -1.22, 1.02 -1.19, 1.03 -1.14 M1.03 -1.14 C1.03 -1.11, 1.03 -1.08, 1.04 -1.04 M1.03 -1.14 C1.03 -1.11, 1.03 -1.08, 1.04 -1.04 M1.04 -1.04 C1.04 -1, 1.03 -0.97, 1.03 -0.93 M1.04 -1.04 C1.04 -1.01, 1.03 -0.98, 1.03 -0.93 M1.03 -0.93 C1.03 -0.9, 1.02 -0.86, 1.02 -0.83 M1.03 -0.93 C1.03 -0.91, 1.02 -0.89, 1.02 -0.83 M1.02 -0.83 C1 -0.77, 0.98 -0.71, 0.96 -0.63 M1.02 -0.83 C0.99 -0.75, 0.97 -0.68, 0.96 -0.63 M0.96 -0.63 C0.92 -0.57, 0.89 -0.5, 0.86 -0.46 M0.96 -0.63 C0.92 -0.56, 0.88 -0.5, 0.86 -0.46 M0.86 -0.46 C0.81 -0.4, 0.76 -0.34, 0.73 -0.3 M0.86 -0.46 C0.81 -0.4, 0.77 -0.34, 0.73 -0.3 M0.73 -0.3 C0.69 -0.27, 0.65 -0.23, 0.58 -0.18 M0.73 -0.3 C0.68 -0.26, 0.63 -0.22, 0.58 -0.18 M0.58 -0.18 C0.54 -0.16, 0.5 -0.13, 0.4 -0.08 M0.58 -0.18 C0.52 -0.14, 0.45 -0.11, 0.4 -0.08 M0.4 -0.08 C0.35 -0.07, 0.3 -0.05, 0.21 -0.02 M0.4 -0.08 C0.36 -0.07, 0.32 -0.06, 0.21 -0.02 M0.21 -0.02 C0.18 -0.02, 0.14 -0.01, 0.11 -0.01 M0.21 -0.02 C0.19 -0.02, 0.17 -0.01, 0.11 -0.01 M0.11 -0.01 C0.08 0, 0.06 0, 0 0 M0.11 -0.01 C0.07 0, 0.04 0, 0 0 M0 0 C0 0, 0 0, 0 0 M0 0 C0 0, 0 0, 0 0 M0 0 C0 0, 0 0, 0 0 M0 0 C0 0, 0 0, 0 0" stroke="#00000000" stroke-width="1" fill="none"></path></g></g><mask></mask><g stroke-linecap="round"><g transform="translate(36.138620376586914 44.725517272949105) rotate(0 4.76837158203125e-7 -1.0372419357299805)" fill-rule="evenodd"><path d="M0 0 L0 0 L-0.11 -0.01 L-0.21 -0.02 L-0.4 -0.08 L-0.58 -0.18 L-0.73 -0.3 L-0.86 -0.46 L-0.96 -0.63 L-1.02 -0.83 L-1.03 -0.93 L-1.04 -1.04 L-1.03 -1.14 L-1.02 -1.25 L-0.96 -1.44 L-0.86 -1.62 L-0.73 -1.77 L-0.58 -1.9 L-0.4 -1.99 L-0.21 -2.05 L-0.11 -2.07 L0 -2.07 L0.11 -2.07 L0.21 -2.05 L0.4 -1.99 L0.58 -1.9 L0.73 -1.77 L0.86 -1.62 L0.96 -1.44 L1.02 -1.25 L1.03 -1.14 L1.04 -1.04 L1.03 -0.93 L1.02 -0.83 L0.96 -0.63 L0.86 -0.46 L0.73 -0.3 L0.58 -0.18 L0.4 -0.08 L0.21 -0.02 L0.11 -0.01 L0 0 L0 0" stroke="none" stroke-width="0" fill="#fff" fill-rule="evenodd"></path><path d="M0 0 C0 0, 0 0, 0 0 M0 0 C0 0, 0 0, 0 0 M0 0 C-0.03 0, -0.06 0, -0.11 -0.01 M0 0 C-0.02 0, -0.04 0, -0.11 -0.01 M-0.11 -0.01 C-0.14 -0.01, -0.17 -0.01, -0.21 -0.02 M-0.11 -0.01 C-0.14 -0.01, -0.18 -0.02, -0.21 -0.02 M-0.21 -0.02 C-0.25 -0.03, -0.3 -0.05, -0.4 -0.08 M-0.21 -0.02 C-0.25 -0.03, -0.29 -0.05, -0.4 -0.08 M-0.4 -0.08 C-0.47 -0.12, -0.54 -0.15, -0.58 -0.18 M-0.4 -0.08 C-0.45 -0.11, -0.51 -0.14, -0.58 -0.18 M-0.58 -0.18 C-0.64 -0.22, -0.69 -0.27, -0.73 -0.3 M-0.58 -0.18 C-0.62 -0.21, -0.67 -0.25, -0.73 -0.3 M-0.73 -0.3 C-0.78 -0.36, -0.83 -0.43, -0.86 -0.46 M-0.73 -0.3 C-0.77 -0.35, -0.8 -0.39, -0.86 -0.46 M-0.86 -0.46 C-0.89 -0.51, -0.91 -0.56, -0.96 -0.63 M-0.86 -0.46 C-0.88 -0.5, -0.91 -0.55, -0.96 -0.63 M-0.96 -0.63 C-0.98 -0.7, -1 -0.77, -1.02 -0.83 M-0.96 -0.63 C-0.97 -0.68, -0.98 -0.72, -1.02 -0.83 M-1.02 -0.83 C-1.02 -0.85, -1.02 -0.87, -1.03 -0.93 M-1.02 -0.83 C-1.02 -0.86, -1.03 -0.89, -1.03 -0.93 M-1.03 -0.93 C-1.03 -0.96, -1.03 -0.98, -1.04 -1.04 M-1.03 -0.93 C-1.03 -0.96, -1.03 -0.98, -1.04 -1.04 M-1.04 -1.04 C-1.04 -1.07, -1.03 -1.1, -1.03 -1.14 M-1.04 -1.04 C-1.04 -1.07, -1.03 -1.1, -1.03 -1.14 M-1.03 -1.14 C-1.03 -1.18, -1.02 -1.22, -1.02 -1.25 M-1.03 -1.14 C-1.03 -1.18, -1.02 -1.22, -1.02 -1.25 M-1.02 -1.25 C-1 -1.3, -0.98 -1.36, -0.96 -1.44 M-1.02 -1.25 C-1 -1.31, -0.98 -1.37, -0.96 -1.44 M-0.96 -1.44 C-0.92 -1.51, -0.88 -1.58, -0.86 -1.62 M-0.96 -1.44 C-0.92 -1.5, -0.89 -1.57, -0.86 -1.62 M-0.86 -1.62 C-0.81 -1.67, -0.77 -1.73, -0.73 -1.77 M-0.86 -1.62 C-0.82 -1.66, -0.78 -1.71, -0.73 -1.77 M-0.73 -1.77 C-0.7 -1.8, -0.66 -1.83, -0.58 -1.9 M-0.73 -1.77 C-0.7 -1.8, -0.67 -1.82, -0.58 -1.9 M-0.58 -1.9 C-0.53 -1.92, -0.48 -1.95, -0.4 -1.99 M-0.58 -1.9 C-0.54 -1.92, -0.5 -1.94, -0.4 -1.99 M-0.4 -1.99 C-0.34 -2.01, -0.29 -2.03, -0.21 -2.05 M-0.4 -1.99 C-0.33 -2.02, -0.25 -2.04, -0.21 -2.05 M-0.21 -2.05 C-0.18 -2.06, -0.15 -2.06, -0.11 -2.07 M-0.21 -2.05 C-0.18 -2.06, -0.15 -2.06, -0.11 -2.07 M-0.11 -2.07 C-0.07 -2.07, -0.03 -2.07, 0 -2.07 M-0.11 -2.07 C-0.07 -2.07, -0.03 -2.07, 0 -2.07 M0 -2.07 C0.04 -2.07, 0.08 -2.07, 0.11 -2.07 M0 -2.07 C0.04 -2.07, 0.08 -2.07, 0.11 -2.07 M0.11 -2.07 C0.13 -2.06, 0.16 -2.06, 0.21 -2.05 M0.11 -2.07 C0.14 -2.06, 0.18 -2.06, 0.21 -2.05 M0.21 -2.05 C0.25 -2.04, 0.29 -2.03, 0.4 -1.99 M0.21 -2.05 C0.27 -2.03, 0.33 -2.02, 0.4 -1.99 M0.4 -1.99 C0.46 -1.96, 0.51 -1.94, 0.58 -1.9 M0.4 -1.99 C0.46 -1.96, 0.52 -1.93, 0.58 -1.9 M0.58 -1.9 C0.62 -1.87, 0.66 -1.83, 0.73 -1.77 M0.58 -1.9 C0.62 -1.86, 0.66 -1.83, 0.73 -1.77 M0.73 -1.77 C0.78 -1.72, 0.82 -1.67, 0.86 -1.62 M0.73 -1.77 C0.78 -1.71, 0.83 -1.65, 0.86 -1.62 M0.86 -1.62 C0.9 -1.55, 0.93 -1.49, 0.96 -1.44 M0.86 -1.62 C0.88 -1.58, 0.9 -1.55, 0.96 -1.44 M0.96 -1.44 C0.98 -1.37, 1 -1.3, 1.02 -1.25 M0.96 -1.44 C0.97 -1.39, 0.99 -1.34, 1.02 -1.25 M1.02 -1.25 C1.02 -1.22, 1.02 -1.2, 1.03 -1.14 M1.02 -1.25 C1.02 -1.21, 1.03 -1.18, 1.03 -1.14 M1.03 -1.14 C1.03 -1.11, 1.04 -1.07, 1.04 -1.04 M1.03 -1.14 C1.03 -1.1, 1.04 -1.07, 1.04 -1.04 M1.04 -1.04 C1.04 -1.01, 1.03 -0.99, 1.03 -0.93 M1.04 -1.04 C1.04 -1.01, 1.03 -0.98, 1.03 -0.93 M1.03 -0.93 C1.03 -0.9, 1.02 -0.87, 1.02 -0.83 M1.03 -0.93 C1.03 -0.9, 1.02 -0.88, 1.02 -0.83 M1.02 -0.83 C1 -0.77, 0.98 -0.72, 0.96 -0.63 M1.02 -0.83 C1 -0.77, 0.98 -0.72, 0.96 -0.63 M0.96 -0.63 C0.93 -0.58, 0.9 -0.54, 0.86 -0.46 M0.96 -0.63 C0.92 -0.58, 0.89 -0.52, 0.86 -0.46 M0.86 -0.46 C0.82 -0.41, 0.79 -0.37, 0.73 -0.3 M0.86 -0.46 C0.81 -0.4, 0.77 -0.34, 0.73 -0.3 M0.73 -0.3 C0.68 -0.26, 0.62 -0.21, 0.58 -0.18 M0.73 -0.3 C0.69 -0.27, 0.64 -0.23, 0.58 -0.18 M0.58 -0.18 C0.52 -0.15, 0.47 -0.11, 0.4 -0.08 M0.58 -0.18 C0.54 -0.16, 0.5 -0.13, 0.4 -0.08 M0.4 -0.08 C0.34 -0.06, 0.29 -0.04, 0.21 -0.02 M0.4 -0.08 C0.34 -0.06, 0.27 -0.04, 0.21 -0.02 M0.21 -0.02 C0.18 -0.02, 0.14 -0.01, 0.11 -0.01 M0.21 -0.02 C0.18 -0.02, 0.15 -0.01, 0.11 -0.01 M0.11 -0.01 C0.08 0, 0.05 0, 0 0 M0.11 -0.01 C0.07 0, 0.03 0, 0 0 M0 0 C0 0, 0 0, 0 0 M0 0 C0 0, 0 0, 0 0 M0 0 C0 0, 0 0, 0 0 M0 0 C0 0, 0 0, 0 0" stroke="#00000000" stroke-width="1" fill="none"></path></g></g><mask></mask><g stroke-linecap="round"><g transform="translate(36.210344314575195 50.651033401489144) rotate(0 0.00827646255493164 -0.9882612228393555)" fill-rule="evenodd"><path d="M0 0 L0 0 L-0.11 -0.01 L-0.21 -0.02 L-0.4 -0.09 L-0.58 -0.18 L-0.73 -0.31 L-0.86 -0.47 L-0.96 -0.64 L-1.02 -0.84 L-1.03 -0.94 L-1.04 -1.05 L-1.02 -1.15 L-0.99 -1.26 L-0.91 -1.44 L-0.79 -1.61 L-0.64 -1.75 L-0.47 -1.86 L-0.29 -1.93 L-0.08 -1.97 L0.02 -1.98 L0.13 -1.97 L0.31 -1.93 L0.47 -1.87 L0.62 -1.78 L0.75 -1.67 L0.86 -1.54 L0.95 -1.39 L1.02 -1.23 L1.05 -1.05 L1.05 -0.94 L1.03 -0.84 L0.97 -0.64 L0.87 -0.46 L0.74 -0.31 L0.59 -0.18 L0.41 -0.08 L0.21 -0.02 L0.11 -0.01 L0 0 L0 0" stroke="none" stroke-width="0" fill="#fff" fill-rule="evenodd"></path><path d="M0 0 C0 0, 0 0, 0 0 M0 0 C0 0, 0 0, 0 0 M0 0 C-0.03 0, -0.07 0, -0.11 -0.01 M0 0 C-0.04 0, -0.08 0, -0.11 -0.01 M-0.11 -0.01 C-0.15 -0.01, -0.19 -0.02, -0.21 -0.02 M-0.11 -0.01 C-0.14 -0.01, -0.18 -0.02, -0.21 -0.02 M-0.21 -0.02 C-0.25 -0.04, -0.29 -0.05, -0.4 -0.09 M-0.21 -0.02 C-0.26 -0.04, -0.31 -0.06, -0.4 -0.09 M-0.4 -0.09 C-0.46 -0.12, -0.52 -0.15, -0.58 -0.18 M-0.4 -0.09 C-0.46 -0.11, -0.51 -0.14, -0.58 -0.18 M-0.58 -0.18 C-0.64 -0.23, -0.69 -0.28, -0.73 -0.31 M-0.58 -0.18 C-0.64 -0.23, -0.7 -0.28, -0.73 -0.31 M-0.73 -0.31 C-0.77 -0.36, -0.81 -0.41, -0.86 -0.47 M-0.73 -0.31 C-0.78 -0.37, -0.83 -0.43, -0.86 -0.47 M-0.86 -0.47 C-0.89 -0.52, -0.92 -0.57, -0.96 -0.64 M-0.86 -0.47 C-0.89 -0.52, -0.92 -0.58, -0.96 -0.64 M-0.96 -0.64 C-0.97 -0.69, -0.98 -0.73, -1.02 -0.84 M-0.96 -0.64 C-0.97 -0.68, -0.98 -0.72, -1.02 -0.84 M-1.02 -0.84 C-1.02 -0.87, -1.03 -0.9, -1.03 -0.94 M-1.02 -0.84 C-1.02 -0.86, -1.02 -0.88, -1.03 -0.94 M-1.03 -0.94 C-1.03 -0.98, -1.04 -1.01, -1.04 -1.05 M-1.03 -0.94 C-1.03 -0.97, -1.03 -1, -1.04 -1.05 M-1.04 -1.05 C-1.03 -1.08, -1.03 -1.11, -1.02 -1.15 M-1.04 -1.05 C-1.03 -1.09, -1.02 -1.13, -1.02 -1.15 M-1.02 -1.15 C-1.01 -1.18, -1.01 -1.2, -0.99 -1.26 M-1.02 -1.15 C-1.01 -1.18, -1.01 -1.2, -0.99 -1.26 M-0.99 -1.26 C-0.97 -1.31, -0.94 -1.37, -0.91 -1.44 M-0.99 -1.26 C-0.96 -1.32, -0.93 -1.39, -0.91 -1.44 M-0.91 -1.44 C-0.87 -1.49, -0.84 -1.54, -0.79 -1.61 M-0.91 -1.44 C-0.87 -1.49, -0.84 -1.55, -0.79 -1.61 M-0.79 -1.61 C-0.75 -1.64, -0.72 -1.68, -0.64 -1.75 M-0.79 -1.61 C-0.75 -1.65, -0.71 -1.68, -0.64 -1.75 M-0.64 -1.75 C-0.58 -1.79, -0.52 -1.83, -0.47 -1.86 M-0.64 -1.75 C-0.61 -1.77, -0.57 -1.8, -0.47 -1.86 M-0.47 -1.86 C-0.4 -1.89, -0.33 -1.92, -0.29 -1.93 M-0.47 -1.86 C-0.41 -1.88, -0.35 -1.91, -0.29 -1.93 M-0.29 -1.93 C-0.23 -1.95, -0.17 -1.96, -0.08 -1.97 M-0.29 -1.93 C-0.24 -1.94, -0.19 -1.95, -0.08 -1.97 M-0.08 -1.97 C-0.04 -1.97, -0.01 -1.98, 0.02 -1.98 M-0.08 -1.97 C-0.05 -1.97, -0.02 -1.97, 0.02 -1.98 M0.02 -1.98 C0.06 -1.97, 0.11 -1.97, 0.13 -1.97 M0.02 -1.98 C0.06 -1.97, 0.11 -1.97, 0.13 -1.97 M0.13 -1.97 C0.2 -1.96, 0.27 -1.94, 0.31 -1.93 M0.13 -1.97 C0.19 -1.96, 0.25 -1.94, 0.31 -1.93 M0.31 -1.93 C0.37 -1.91, 0.43 -1.89, 0.47 -1.87 M0.31 -1.93 C0.37 -1.91, 0.43 -1.89, 0.47 -1.87 M0.47 -1.87 C0.52 -1.84, 0.57 -1.81, 0.62 -1.78 M0.47 -1.87 C0.5 -1.85, 0.54 -1.83, 0.62 -1.78 M0.62 -1.78 C0.65 -1.75, 0.69 -1.72, 0.75 -1.67 M0.62 -1.78 C0.66 -1.75, 0.69 -1.72, 0.75 -1.67 M0.75 -1.67 C0.77 -1.64, 0.8 -1.62, 0.86 -1.54 M0.75 -1.67 C0.78 -1.63, 0.81 -1.6, 0.86 -1.54 M0.86 -1.54 C0.89 -1.5, 0.91 -1.45, 0.95 -1.39 M0.86 -1.54 C0.89 -1.48, 0.93 -1.43, 0.95 -1.39 M0.95 -1.39 C0.98 -1.32, 1 -1.26, 1.02 -1.23 M0.95 -1.39 C0.98 -1.33, 1 -1.26, 1.02 -1.23 M1.02 -1.23 C1.03 -1.17, 1.04 -1.12, 1.05 -1.05 M1.02 -1.23 C1.03 -1.17, 1.04 -1.11, 1.05 -1.05 M1.05 -1.05 C1.05 -1.02, 1.05 -0.98, 1.05 -0.94 M1.05 -1.05 C1.05 -1.02, 1.05 -0.99, 1.05 -0.94 M1.05 -0.94 C1.04 -0.9, 1.04 -0.86, 1.03 -0.84 M1.05 -0.94 C1.04 -0.91, 1.04 -0.88, 1.03 -0.84 M1.03 -0.84 C1.01 -0.78, 0.99 -0.72, 0.97 -0.64 M1.03 -0.84 C1.02 -0.79, 1 -0.73, 0.97 -0.64 M0.97 -0.64 C0.94 -0.59, 0.91 -0.53, 0.87 -0.46 M0.97 -0.64 C0.95 -0.6, 0.93 -0.56, 0.87 -0.46 M0.87 -0.46 C0.82 -0.4, 0.77 -0.34, 0.74 -0.31 M0.87 -0.46 C0.82 -0.4, 0.77 -0.34, 0.74 -0.31 M0.74 -0.31 C0.71 -0.28, 0.67 -0.25, 0.59 -0.18 M0.74 -0.31 C0.69 -0.27, 0.64 -0.22, 0.59 -0.18 M0.59 -0.18 C0.53 -0.15, 0.47 -0.12, 0.41 -0.08 M0.59 -0.18 C0.53 -0.15, 0.47 -0.12, 0.41 -0.08 M0.41 -0.08 C0.37 -0.07, 0.33 -0.06, 0.21 -0.02 M0.41 -0.08 C0.35 -0.07, 0.3 -0.05, 0.21 -0.02 M0.21 -0.02 C0.19 -0.02, 0.16 -0.01, 0.11 -0.01 M0.21 -0.02 C0.18 -0.02, 0.14 -0.01, 0.11 -0.01 M0.11 -0.01 C0.08 0, 0.06 0, 0 0 M0.11 -0.01 C0.07 0, 0.04 0, 0 0 M0 0 C0 0, 0 0, 0 0 M0 0 C0 0, 0 0, 0 0 M0 0 C0 0, 0 0, 0 0 M0 0 C0 0, 0 0, 0 0" stroke="#00000000" stroke-width="1" fill="none"></path></g></g><mask></mask></svg>