<svg xmlns="http://www.w3.org/2000/svg" viewBox="-90.08 2416.47 257.14 249.42" width="257" height="249"><polyline points="-62.45,2541.18 -19.19,2466.94 -4.77,2466.94 9.65,2444.73 -4.88,2422.47 -40.82,2422.47 -84.08,2496.65 -62.45,2541.18 -62.45,2541.18" fill="none" stroke="#000000" stroke-width="1" opacity="1.0" stroke-linecap="round" stroke-linejoin="round"/><polyline points="24.07,2444.73 9.65,2466.94 38.49,2466.94 52.91,2444.73 38.49,2422.47 9.65,2422.47 24.07,2444.73 24.07,2444.73" fill="none" stroke="#000000" stroke-width="1" opacity="1.0" stroke-linecap="round" stroke-linejoin="round"/><polyline points="67.33,2459.50 24.07,2533.74 9.65,2533.74 -4.77,2555.94 9.77,2578.21 45.70,2578.21 88.96,2504.03 67.33,2459.50 67.33,2459.50" fill="none" stroke="#000000" stroke-width="1" opacity="1.0" stroke-linecap="round" stroke-linejoin="round"/><polyline points="-4.77,2578.21 -19.19,2555.94 -4.77,2533.74 -33.61,2533.74 -48.03,2555.94 -33.61,2578.21 -4.77,2578.21 -4.77,2578.21" fill="none" stroke="#000000" stroke-width="1" opacity="1.0" stroke-linecap="round" stroke-linejoin="round"/><text x="-60.08" y="2619.09" font-size="35.99999999999998" fill="#000000" opacity="1.0" font-family="sans-serif">AutoML</text></svg>