<svg xmlns="http://www.w3.org/2000/svg" viewBox="126.61 179.06 304.41 231.78" width="304" height="232"><polyline points="273.92,228.54 208.70,228.54 197.83,250.28 208.70,272.02 273.92,272.02 284.80,250.28 273.92,228.54 273.92,228.54" fill="#4285f4" stroke="#000000" stroke-width="1" opacity="1.0" stroke-linecap="round" stroke-linejoin="round"/><polyline points="284.80,250.28 273.92,228.54 214.25,228.54 208.70,228.54 197.83,250.28 284.80,250.28 284.80,250.28" fill="#aecbfa" stroke="#000000" stroke-width="1" opacity="1.0" stroke-linecap="round" stroke-linejoin="round"/><polyline points="306.54,185.06 273.92,185.06 317.08,250.28 333.39,225.82 306.54,185.06 306.54,185.06" fill="#4285f4" stroke="#000000" stroke-width="1" opacity="1.0" stroke-linecap="round" stroke-linejoin="round"/><polyline points="349.47,250.28 333.39,225.82 317.08,250.28 317.08,250.28 273.92,315.51 306.54,315.51 349.47,250.28 349.47,250.28" fill="#aecbfa" stroke="#000000" stroke-width="1" opacity="1.0" stroke-linecap="round" stroke-linejoin="round"/><polyline points="175.55,315.51 208.16,315.51 165.00,250.28 148.70,274.74 175.55,315.51 175.55,315.51" fill="#4285f4" stroke="#000000" stroke-width="1" opacity="1.0" stroke-linecap="round" stroke-linejoin="round"/><polyline points="132.61,250.28 148.70,274.74 165.00,250.28 165.00,250.28 208.16,185.06 175.55,185.06 132.61,250.28 132.61,250.28" fill="#aecbfa" stroke="#000000" stroke-width="1" opacity="1.0" stroke-linecap="round" stroke-linejoin="round"/><text x="158.02" y="356.91" font-size="38.06837606837609" fill="#000000" opacity="1.0" font-family="sans-serif">Cloud
Endpoints</text></svg>