<svg version="1.1" xmlns="http://www.w3.org/2000/svg" viewBox="0 0 210.65596406519984 270.9625827269492" width="210.65596406519984" height="270.9625827269492">
  <!-- svg-source:excalidraw -->
  
  <defs>
    
    
  </defs>
  <g stroke-linecap="round"><g transform="translate(105.3535618584242 6) rotate(0 -0.025579825824280533 64.56446204311897)" fill-rule="evenodd"><path d="M0 0 L0 0 L-4.28 0.17 L-8.47 0.67 L-12.56 1.49 L-16.53 2.61 L-20.36 4.02 L-24.05 5.71 L-27.59 7.67 L-30.95 9.87 L-34.13 12.32 L-37.12 15 L-39.9 17.89 L-42.46 20.98 L-44.79 24.26 L-46.87 27.71 L-48.69 31.33 L-50.24 35.1 L-50.24 35.1 L-52.34 35.1 L-52.34 35.1 L-54.76 35.16 L-57.15 35.34 L-59.5 35.64 L-61.82 36.05 L-64.09 36.57 L-66.33 37.21 L-68.51 37.95 L-70.65 38.79 L-72.73 39.73 L-74.76 40.77 L-76.73 41.9 L-78.63 43.12 L-80.48 44.43 L-82.25 45.82 L-83.96 47.3 L-85.59 48.86 L-87.15 50.49 L-88.62 52.2 L-90.02 53.97 L-91.33 55.82 L-92.55 57.72 L-93.68 59.69 L-94.72 61.72 L-95.66 63.8 L-96.5 65.94 L-97.24 68.12 L-97.87 70.35 L-98.4 72.63 L-98.81 74.95 L-99.11 77.3 L-99.29 79.69 L-99.35 82.11 L-99.29 84.53 L-99.11 86.92 L-98.81 89.28 L-98.4 91.59 L-97.87 93.87 L-97.24 96.1 L-96.5 98.29 L-95.66 100.42 L-94.72 102.51 L-93.68 104.53 L-92.55 106.5 L-91.33 108.41 L-90.02 110.25 L-88.62 112.03 L-87.15 113.73 L-85.59 115.37 L-83.96 116.92 L-82.25 118.4 L-80.48 119.8 L-78.63 121.11 L-76.73 122.33 L-74.76 123.46 L-72.73 124.5 L-70.65 125.44 L-68.51 126.28 L-66.33 127.02 L-64.09 127.65 L-61.82 128.17 L-59.5 128.59 L-57.15 128.89 L-54.76 129.07 L-52.34 129.13 L-52.34 129.13 L52.29 129.13 L52.29 129.13 L54.71 129.07 L57.1 128.89 L59.45 128.59 L61.77 128.17 L64.04 127.65 L66.28 127.02 L68.46 126.28 L70.6 125.44 L72.68 124.5 L74.71 123.46 L76.68 122.33 L78.58 121.11 L80.43 119.8 L82.2 118.4 L83.91 116.92 L85.54 115.37 L87.1 113.73 L88.57 112.03 L89.97 110.25 L91.28 108.41 L92.5 106.5 L93.63 104.53 L94.67 102.51 L95.61 100.42 L96.45 98.29 L97.19 96.1 L97.82 93.87 L98.35 91.59 L98.76 89.28 L99.06 86.92 L99.24 84.53 L99.3 82.11 L99.24 79.69 L99.06 77.3 L98.76 74.95 L98.35 72.63 L97.82 70.35 L97.19 68.12 L96.45 65.94 L95.61 63.8 L94.67 61.72 L93.63 59.69 L92.5 57.72 L91.28 55.82 L89.97 53.97 L88.57 52.2 L87.1 50.49 L85.54 48.86 L83.91 47.3 L82.2 45.82 L80.43 44.43 L78.58 43.12 L76.68 41.9 L74.71 40.77 L72.68 39.73 L70.6 38.79 L68.46 37.95 L66.28 37.21 L64.04 36.57 L61.77 36.05 L59.45 35.64 L57.1 35.34 L54.71 35.16 L52.29 35.1 L52.29 35.1 L50.19 35.1 L50.19 35.1 L48.66 31.33 L46.85 27.71 L44.78 24.26 L42.46 20.98 L39.91 17.89 L37.13 15 L34.15 12.32 L30.96 9.87 L27.6 7.67 L24.06 5.71 L20.37 4.02 L16.53 2.61 L12.56 1.49 L8.48 0.67 L4.28 0.17 L0 0 L0 0" stroke="none" stroke-width="0" fill="#4285F4" fill-rule="evenodd"></path><path d="M0 0 C0 0, 0 0, 0 0 M0 0 C0 0, 0 0, 0 0 M0 0 C-1.68 0.07, -3.35 0.13, -4.28 0.17 M0 0 C-1.25 0.05, -2.5 0.1, -4.28 0.17 M-4.28 0.17 C-5.27 0.29, -6.25 0.4, -8.47 0.67 M-4.28 0.17 C-5.94 0.37, -7.6 0.56, -8.47 0.67 M-8.47 0.67 C-10.06 0.98, -11.64 1.3, -12.56 1.49 M-8.47 0.67 C-9.87 0.95, -11.27 1.23, -12.56 1.49 M-12.56 1.49 C-13.61 1.78, -14.66 2.08, -16.53 2.61 M-12.56 1.49 C-13.35 1.71, -14.15 1.93, -16.53 2.61 M-16.53 2.61 C-17.74 3.05, -18.95 3.5, -20.36 4.02 M-16.53 2.61 C-18.03 3.16, -19.54 3.71, -20.36 4.02 M-20.36 4.02 C-21.37 4.48, -22.38 4.94, -24.05 5.71 M-20.36 4.02 C-21.82 4.68, -23.27 5.35, -24.05 5.71 M-24.05 5.71 C-25.13 6.31, -26.21 6.9, -27.59 7.67 M-24.05 5.71 C-25.22 6.35, -26.39 7, -27.59 7.67 M-27.59 7.67 C-28.49 8.26, -29.4 8.85, -30.95 9.87 M-27.59 7.67 C-28.5 8.26, -29.4 8.86, -30.95 9.87 M-30.95 9.87 C-31.8 10.53, -32.65 11.18, -34.13 12.32 M-30.95 9.87 C-31.68 10.43, -32.4 10.99, -34.13 12.32 M-34.13 12.32 C-35.02 13.12, -35.91 13.91, -37.12 15 M-34.13 12.32 C-34.9 13.01, -35.66 13.69, -37.12 15 M-37.12 15 C-37.7 15.59, -38.27 16.19, -39.9 17.89 M-37.12 15 C-37.8 15.7, -38.47 16.4, -39.9 17.89 M-39.9 17.89 C-40.78 18.95, -41.66 20.01, -42.46 20.98 M-39.9 17.89 C-40.45 18.55, -41 19.21, -42.46 20.98 M-42.46 20.98 C-43.2 22.01, -43.93 23.05, -44.79 24.26 M-42.46 20.98 C-43.21 22.03, -43.96 23.08, -44.79 24.26 M-44.79 24.26 C-45.27 25.07, -45.76 25.88, -46.87 27.71 M-44.79 24.26 C-45.51 25.45, -46.23 26.65, -46.87 27.71 M-46.87 27.71 C-47.37 28.71, -47.87 29.71, -48.69 31.33 M-46.87 27.71 C-47.4 28.77, -47.93 29.83, -48.69 31.33 M-48.69 31.33 C-49.2 32.58, -49.72 33.82, -50.24 35.1 M-48.69 31.33 C-49.13 32.41, -49.58 33.49, -50.24 35.1 M-50.24 35.1 C-50.24 35.1, -50.24 35.1, -50.24 35.1 M-50.24 35.1 C-50.24 35.1, -50.24 35.1, -50.24 35.1 M-50.24 35.1 C-50.74 35.1, -51.24 35.1, -52.34 35.1 M-50.24 35.1 C-50.68 35.1, -51.12 35.1, -52.34 35.1 M-52.34 35.1 C-52.34 35.1, -52.34 35.1, -52.34 35.1 M-52.34 35.1 C-52.34 35.1, -52.34 35.1, -52.34 35.1 M-52.34 35.1 C-53.05 35.11, -53.77 35.13, -54.76 35.16 M-52.34 35.1 C-53.12 35.12, -53.89 35.14, -54.76 35.16 M-54.76 35.16 C-55.52 35.21, -56.28 35.27, -57.15 35.34 M-54.76 35.16 C-55.38 35.2, -56 35.25, -57.15 35.34 M-57.15 35.34 C-57.82 35.42, -58.49 35.51, -59.5 35.64 M-57.15 35.34 C-58.01 35.45, -58.87 35.56, -59.5 35.64 M-59.5 35.64 C-60.39 35.79, -61.27 35.95, -61.82 36.05 M-59.5 35.64 C-60.26 35.77, -61.02 35.91, -61.82 36.05 M-61.82 36.05 C-62.57 36.22, -63.31 36.39, -64.09 36.57 M-61.82 36.05 C-62.55 36.22, -63.29 36.39, -64.09 36.57 M-64.09 36.57 C-64.86 36.79, -65.62 37.01, -66.33 37.21 M-64.09 36.57 C-64.61 36.72, -65.12 36.86, -66.33 37.21 M-66.33 37.21 C-67.16 37.49, -68 37.77, -68.51 37.95 M-66.33 37.21 C-67 37.44, -67.67 37.66, -68.51 37.95 M-68.51 37.95 C-69.18 38.21, -69.84 38.47, -70.65 38.79 M-68.51 37.95 C-68.96 38.12, -69.41 38.3, -70.65 38.79 M-70.65 38.79 C-71.37 39.11, -72.08 39.44, -72.73 39.73 M-70.65 38.79 C-71.22 39.04, -71.78 39.3, -72.73 39.73 M-72.73 39.73 C-73.54 40.14, -74.35 40.56, -74.76 40.77 M-72.73 39.73 C-73.35 40.05, -73.97 40.36, -74.76 40.77 M-74.76 40.77 C-75.46 41.17, -76.15 41.57, -76.73 41.9 M-74.76 40.77 C-75.36 41.11, -75.95 41.45, -76.73 41.9 M-76.73 41.9 C-77.49 42.38, -78.25 42.87, -78.63 43.12 M-76.73 41.9 C-77.17 42.18, -77.61 42.46, -78.63 43.12 M-78.63 43.12 C-79.16 43.5, -79.69 43.87, -80.48 44.43 M-78.63 43.12 C-79.24 43.55, -79.84 43.97, -80.48 44.43 M-80.48 44.43 C-81 44.84, -81.51 45.24, -82.25 45.82 M-80.48 44.43 C-81 44.84, -81.51 45.24, -82.25 45.82 M-82.25 45.82 C-82.69 46.2, -83.13 46.58, -83.96 47.3 M-82.25 45.82 C-82.93 46.41, -83.61 47, -83.96 47.3 M-83.96 47.3 C-84.53 47.85, -85.11 48.4, -85.59 48.86 M-83.96 47.3 C-84.41 47.73, -84.86 48.16, -85.59 48.86 M-85.59 48.86 C-86.09 49.38, -86.59 49.9, -87.15 50.49 M-85.59 48.86 C-85.93 49.21, -86.26 49.56, -87.15 50.49 M-87.15 50.49 C-87.5 50.9, -87.85 51.3, -88.62 52.2 M-87.15 50.49 C-87.68 51.1, -88.21 51.72, -88.62 52.2 M-88.62 52.2 C-89.14 52.85, -89.65 53.5, -90.02 53.97 M-88.62 52.2 C-88.91 52.56, -89.2 52.93, -90.02 53.97 M-90.02 53.97 C-90.42 54.53, -90.82 55.09, -91.33 55.82 M-90.02 53.97 C-90.29 54.35, -90.56 54.73, -91.33 55.82 M-91.33 55.82 C-91.62 56.26, -91.9 56.71, -92.55 57.72 M-91.33 55.82 C-91.63 56.28, -91.93 56.75, -92.55 57.72 M-92.55 57.72 C-92.88 58.29, -93.2 58.85, -93.68 59.69 M-92.55 57.72 C-92.85 58.23, -93.14 58.75, -93.68 59.69 M-93.68 59.69 C-94.09 60.48, -94.49 61.27, -94.72 61.72 M-93.68 59.69 C-94.02 60.36, -94.36 61.02, -94.72 61.72 M-94.72 61.72 C-94.93 62.17, -95.13 62.62, -95.66 63.8 M-94.72 61.72 C-94.96 62.26, -95.21 62.79, -95.66 63.8 M-95.66 63.8 C-95.87 64.33, -96.08 64.85, -96.5 65.94 M-95.66 63.8 C-95.91 64.43, -96.16 65.07, -96.5 65.94 M-96.5 65.94 C-96.73 66.62, -96.96 67.29, -97.24 68.12 M-96.5 65.94 C-96.74 66.63, -96.97 67.33, -97.24 68.12 M-97.24 68.12 C-97.4 68.68, -97.56 69.25, -97.87 70.35 M-97.24 68.12 C-97.45 68.85, -97.65 69.58, -97.87 70.35 M-97.87 70.35 C-98.02 70.98, -98.16 71.6, -98.4 72.63 M-97.87 70.35 C-98 70.91, -98.13 71.47, -98.4 72.63 M-98.4 72.63 C-98.56 73.55, -98.73 74.47, -98.81 74.95 M-98.4 72.63 C-98.49 73.15, -98.59 73.68, -98.81 74.95 M-98.81 74.95 C-98.87 75.43, -98.93 75.91, -99.11 77.3 M-98.81 74.95 C-98.88 75.5, -98.95 76.04, -99.11 77.3 M-99.11 77.3 C-99.17 78.03, -99.22 78.77, -99.29 79.69 M-99.11 77.3 C-99.17 78.13, -99.24 78.95, -99.29 79.69 M-99.29 79.69 C-99.31 80.38, -99.33 81.07, -99.35 82.11 M-99.29 79.69 C-99.31 80.55, -99.34 81.42, -99.35 82.11 M-99.35 82.11 C-99.33 82.96, -99.31 83.81, -99.29 84.53 M-99.35 82.11 C-99.34 82.76, -99.32 83.4, -99.29 84.53 M-99.29 84.53 C-99.24 85.23, -99.19 85.93, -99.11 86.92 M-99.29 84.53 C-99.24 85.2, -99.19 85.87, -99.11 86.92 M-99.11 86.92 C-99.01 87.71, -98.91 88.49, -98.81 89.28 M-99.11 86.92 C-99.02 87.64, -98.93 88.37, -98.81 89.28 M-98.81 89.28 C-98.69 89.94, -98.58 90.6, -98.4 91.59 M-98.81 89.28 C-98.67 90.09, -98.52 90.91, -98.4 91.59 M-98.4 91.59 C-98.19 92.5, -97.98 93.41, -97.87 93.87 M-98.4 91.59 C-98.28 92.1, -98.17 92.6, -97.87 93.87 M-97.87 93.87 C-97.67 94.58, -97.47 95.3, -97.24 96.1 M-97.87 93.87 C-97.68 94.56, -97.48 95.25, -97.24 96.1 M-97.24 96.1 C-96.99 96.83, -96.75 97.56, -96.5 98.29 M-97.24 96.1 C-97.02 96.76, -96.8 97.42, -96.5 98.29 M-96.5 98.29 C-96.22 99, -95.94 99.71, -95.66 100.42 M-96.5 98.29 C-96.19 99.08, -95.88 99.87, -95.66 100.42 M-95.66 100.42 C-95.42 100.96, -95.17 101.51, -94.72 102.51 M-95.66 100.42 C-95.41 100.99, -95.15 101.56, -94.72 102.51 M-94.72 102.51 C-94.45 103.03, -94.18 103.56, -93.68 104.53 M-94.72 102.51 C-94.36 103.2, -94.01 103.9, -93.68 104.53 M-93.68 104.53 C-93.3 105.2, -92.92 105.87, -92.55 106.5 M-93.68 104.53 C-93.23 105.32, -92.78 106.1, -92.55 106.5 M-92.55 106.5 C-92.17 107.1, -91.78 107.7, -91.33 108.41 M-92.55 106.5 C-92.16 107.12, -91.76 107.73, -91.33 108.41 M-91.33 108.41 C-90.97 108.91, -90.62 109.41, -90.02 110.25 M-91.33 108.41 C-90.84 109.1, -90.34 109.8, -90.02 110.25 M-90.02 110.25 C-89.59 110.8, -89.16 111.35, -88.62 112.03 M-90.02 110.25 C-89.48 110.94, -88.94 111.62, -88.62 112.03 M-88.62 112.03 C-88.04 112.71, -87.45 113.39, -87.15 113.73 M-88.62 112.03 C-88.27 112.44, -87.91 112.85, -87.15 113.73 M-87.15 113.73 C-86.62 114.29, -86.09 114.84, -85.59 115.37 M-87.15 113.73 C-86.69 114.22, -86.22 114.7, -85.59 115.37 M-85.59 115.37 C-85.26 115.68, -84.94 115.99, -83.96 116.92 M-85.59 115.37 C-85.16 115.78, -84.73 116.19, -83.96 116.92 M-83.96 116.92 C-83.47 117.35, -82.97 117.78, -82.25 118.4 M-83.96 116.92 C-83.6 117.23, -83.25 117.54, -82.25 118.4 M-82.25 118.4 C-81.55 118.95, -80.85 119.5, -80.48 119.8 M-82.25 118.4 C-81.81 118.75, -81.37 119.1, -80.48 119.8 M-80.48 119.8 C-79.85 120.24, -79.23 120.68, -78.63 121.11 M-80.48 119.8 C-79.82 120.26, -79.17 120.73, -78.63 121.11 M-78.63 121.11 C-78.18 121.4, -77.73 121.69, -76.73 122.33 M-78.63 121.11 C-78.18 121.4, -77.72 121.69, -76.73 122.33 M-76.73 122.33 C-76.24 122.61, -75.75 122.89, -74.76 123.46 M-76.73 122.33 C-76.01 122.74, -75.3 123.15, -74.76 123.46 M-74.76 123.46 C-74.3 123.69, -73.84 123.93, -72.73 124.5 M-74.76 123.46 C-74.32 123.68, -73.88 123.91, -72.73 124.5 M-72.73 124.5 C-72.16 124.76, -71.58 125.01, -70.65 125.44 M-72.73 124.5 C-72.03 124.81, -71.33 125.13, -70.65 125.44 M-70.65 125.44 C-69.8 125.77, -68.94 126.11, -68.51 126.28 M-70.65 125.44 C-69.82 125.76, -68.99 126.09, -68.51 126.28 M-68.51 126.28 C-67.95 126.47, -67.38 126.66, -66.33 127.02 M-68.51 126.28 C-67.7 126.55, -66.89 126.83, -66.33 127.02 M-66.33 127.02 C-65.82 127.16, -65.31 127.3, -64.09 127.65 M-66.33 127.02 C-65.64 127.21, -64.95 127.41, -64.09 127.65 M-64.09 127.65 C-63.34 127.82, -62.58 128, -61.82 128.17 M-64.09 127.65 C-63.53 127.78, -62.96 127.91, -61.82 128.17 M-61.82 128.17 C-61.07 128.31, -60.31 128.44, -59.5 128.59 M-61.82 128.17 C-60.98 128.32, -60.14 128.47, -59.5 128.59 M-59.5 128.59 C-58.99 128.65, -58.48 128.72, -57.15 128.89 M-59.5 128.59 C-58.71 128.69, -57.92 128.79, -57.15 128.89 M-57.15 128.89 C-56.32 128.95, -55.49 129.01, -54.76 129.07 M-57.15 128.89 C-56.5 128.94, -55.85 128.99, -54.76 129.07 M-54.76 129.07 C-53.98 129.09, -53.2 129.11, -52.34 129.13 M-54.76 129.07 C-54.07 129.09, -53.38 129.1, -52.34 129.13 M-52.34 129.13 C-52.34 129.13, -52.34 129.13, -52.34 129.13 M-52.34 129.13 C-52.34 129.13, -52.34 129.13, -52.34 129.13 M-52.34 129.13 C-26.72 129.13, -1.11 129.13, 52.29 129.13 M-52.34 129.13 C-17.59 129.13, 17.15 129.13, 52.29 129.13 M52.29 129.13 C52.29 129.13, 52.29 129.13, 52.29 129.13 M52.29 129.13 C52.29 129.13, 52.29 129.13, 52.29 129.13 M52.29 129.13 C52.95 129.11, 53.62 129.1, 54.71 129.07 M52.29 129.13 C52.78 129.12, 53.27 129.1, 54.71 129.07 M54.71 129.07 C55.57 129, 56.43 128.94, 57.1 128.89 M54.71 129.07 C55.4 129.01, 56.1 128.96, 57.1 128.89 M57.1 128.89 C57.78 128.8, 58.46 128.71, 59.45 128.59 M57.1 128.89 C57.59 128.82, 58.08 128.76, 59.45 128.59 M59.45 128.59 C60.1 128.47, 60.76 128.36, 61.77 128.17 M59.45 128.59 C60.05 128.48, 60.66 128.37, 61.77 128.17 M61.77 128.17 C62.35 128.04, 62.92 127.91, 64.04 127.65 M61.77 128.17 C62.55 128, 63.33 127.82, 64.04 127.65 M64.04 127.65 C64.66 127.48, 65.27 127.3, 66.28 127.02 M64.04 127.65 C64.56 127.5, 65.08 127.36, 66.28 127.02 M66.28 127.02 C66.98 126.78, 67.69 126.54, 68.46 126.28 M66.28 127.02 C67.12 126.73, 67.97 126.44, 68.46 126.28 M68.46 126.28 C69.16 126, 69.87 125.72, 70.6 125.44 M68.46 126.28 C68.99 126.07, 69.51 125.86, 70.6 125.44 M70.6 125.44 C71.31 125.12, 72.02 124.8, 72.68 124.5 M70.6 125.44 C71.04 125.24, 71.49 125.03, 72.68 124.5 M72.68 124.5 C73.43 124.11, 74.18 123.73, 74.71 123.46 M72.68 124.5 C73.44 124.11, 74.2 123.72, 74.71 123.46 M74.71 123.46 C75.38 123.07, 76.05 122.68, 76.68 122.33 M74.71 123.46 C75.25 123.15, 75.79 122.84, 76.68 122.33 M76.68 122.33 C77.36 121.89, 78.05 121.45, 78.58 121.11 M76.68 122.33 C77.11 122.05, 77.54 121.77, 78.58 121.11 M78.58 121.11 C79.04 120.78, 79.5 120.46, 80.43 119.8 M78.58 121.11 C79.15 120.7, 79.71 120.3, 80.43 119.8 M80.43 119.8 C80.79 119.51, 81.16 119.22, 82.2 118.4 M80.43 119.8 C80.87 119.45, 81.31 119.1, 82.2 118.4 M82.2 118.4 C82.83 117.85, 83.46 117.31, 83.91 116.92 M82.2 118.4 C82.61 118.05, 83.02 117.69, 83.91 116.92 M83.91 116.92 C84.32 116.53, 84.73 116.14, 85.54 115.37 M83.91 116.92 C84.27 116.58, 84.63 116.24, 85.54 115.37 M85.54 115.37 C86.02 114.86, 86.5 114.36, 87.1 113.73 M85.54 115.37 C85.98 114.91, 86.42 114.45, 87.1 113.73 M87.1 113.73 C87.66 113.09, 88.22 112.44, 88.57 112.03 M87.1 113.73 C87.63 113.12, 88.16 112.51, 88.57 112.03 M88.57 112.03 C88.93 111.58, 89.28 111.13, 89.97 110.25 M88.57 112.03 C88.9 111.61, 89.22 111.2, 89.97 110.25 M89.97 110.25 C90.37 109.68, 90.78 109.11, 91.28 108.41 M89.97 110.25 C90.26 109.85, 90.55 109.44, 91.28 108.41 M91.28 108.41 C91.62 107.87, 91.97 107.34, 92.5 106.5 M91.28 108.41 C91.74 107.69, 92.2 106.97, 92.5 106.5 M92.5 106.5 C92.84 105.91, 93.19 105.31, 93.63 104.53 M92.5 106.5 C92.94 105.73, 93.39 104.96, 93.63 104.53 M93.63 104.53 C93.9 104, 94.18 103.47, 94.67 102.51 M93.63 104.53 C94.03 103.76, 94.43 102.98, 94.67 102.51 M94.67 102.51 C94.91 101.97, 95.16 101.43, 95.61 100.42 M94.67 102.51 C95.04 101.68, 95.42 100.85, 95.61 100.42 M95.61 100.42 C95.91 99.67, 96.2 98.92, 96.45 98.29 M95.61 100.42 C95.78 99.99, 95.95 99.55, 96.45 98.29 M96.45 98.29 C96.61 97.81, 96.77 97.34, 97.19 96.1 M96.45 98.29 C96.75 97.42, 97.04 96.55, 97.19 96.1 M97.19 96.1 C97.38 95.44, 97.57 94.78, 97.82 93.87 M97.19 96.1 C97.43 95.24, 97.68 94.38, 97.82 93.87 M97.82 93.87 C97.96 93.29, 98.09 92.71, 98.35 91.59 M97.82 93.87 C97.98 93.21, 98.13 92.55, 98.35 91.59 M98.35 91.59 C98.48 90.83, 98.62 90.07, 98.76 89.28 M98.35 91.59 C98.49 90.78, 98.64 89.97, 98.76 89.28 M98.76 89.28 C98.88 88.36, 98.99 87.45, 99.06 86.92 M98.76 89.28 C98.82 88.78, 98.89 88.29, 99.06 86.92 M99.06 86.92 C99.11 86.26, 99.16 85.6, 99.24 84.53 M99.06 86.92 C99.12 86.17, 99.17 85.41, 99.24 84.53 M99.24 84.53 C99.26 83.87, 99.27 83.2, 99.3 82.11 M99.24 84.53 C99.25 83.99, 99.27 83.46, 99.3 82.11 M99.3 82.11 C99.29 81.51, 99.27 80.9, 99.24 79.69 M99.3 82.11 C99.28 81.19, 99.26 80.27, 99.24 79.69 M99.24 79.69 C99.19 78.95, 99.13 78.22, 99.06 77.3 M99.24 79.69 C99.2 79.13, 99.16 78.57, 99.06 77.3 M99.06 77.3 C98.96 76.48, 98.85 75.65, 98.76 74.95 M99.06 77.3 C98.99 76.77, 98.92 76.24, 98.76 74.95 M98.76 74.95 C98.63 74.2, 98.49 73.45, 98.35 72.63 M98.76 74.95 C98.64 74.29, 98.53 73.62, 98.35 72.63 M98.35 72.63 C98.15 71.79, 97.96 70.94, 97.82 70.35 M98.35 72.63 C98.23 72.11, 98.11 71.59, 97.82 70.35 M97.82 70.35 C97.64 69.7, 97.45 69.05, 97.19 68.12 M97.82 70.35 C97.66 69.79, 97.5 69.23, 97.19 68.12 M97.19 68.12 C96.98 67.49, 96.76 66.85, 96.45 65.94 M97.19 68.12 C96.94 67.38, 96.69 66.64, 96.45 65.94 M96.45 65.94 C96.26 65.45, 96.07 64.97, 95.61 63.8 M96.45 65.94 C96.16 65.19, 95.87 64.45, 95.61 63.8 M95.61 63.8 C95.26 63.01, 94.9 62.23, 94.67 61.72 M95.61 63.8 C95.42 63.37, 95.22 62.94, 94.67 61.72 M94.67 61.72 C94.38 61.15, 94.09 60.58, 93.63 59.69 M94.67 61.72 C94.44 61.27, 94.21 60.83, 93.63 59.69 M93.63 59.69 C93.3 59.12, 92.97 58.54, 92.5 57.72 M93.63 59.69 C93.34 59.19, 93.05 58.68, 92.5 57.72 M92.5 57.72 C92.21 57.26, 91.91 56.8, 91.28 55.82 M92.5 57.72 C92.19 57.24, 91.88 56.76, 91.28 55.82 M91.28 55.82 C90.78 55.11, 90.28 54.41, 89.97 53.97 M91.28 55.82 C91.01 55.44, 90.74 55.06, 89.97 53.97 M89.97 53.97 C89.63 53.55, 89.3 53.12, 88.57 52.2 M89.97 53.97 C89.6 53.5, 89.22 53.02, 88.57 52.2 M88.57 52.2 C88.01 51.55, 87.45 50.9, 87.1 50.49 M88.57 52.2 C88.05 51.6, 87.53 51, 87.1 50.49 M87.1 50.49 C86.72 50.09, 86.34 49.7, 85.54 48.86 M87.1 50.49 C86.75 50.13, 86.41 49.77, 85.54 48.86 M85.54 48.86 C85.03 48.37, 84.52 47.88, 83.91 47.3 M85.54 48.86 C85.08 48.42, 84.61 47.97, 83.91 47.3 M83.91 47.3 C83.29 46.77, 82.68 46.24, 82.2 45.82 M83.91 47.3 C83.39 46.86, 82.88 46.41, 82.2 45.82 M82.2 45.82 C81.5 45.27, 80.79 44.72, 80.43 44.43 M82.2 45.82 C81.54 45.3, 80.87 44.78, 80.43 44.43 M80.43 44.43 C79.81 43.99, 79.19 43.55, 78.58 43.12 M80.43 44.43 C79.98 44.11, 79.54 43.8, 78.58 43.12 M78.58 43.12 C77.94 42.71, 77.3 42.3, 76.68 41.9 M78.58 43.12 C78.05 42.78, 77.51 42.43, 76.68 41.9 M76.68 41.9 C76.17 41.61, 75.66 41.32, 74.71 40.77 M76.68 41.9 C76.27 41.67, 75.87 41.44, 74.71 40.77 M74.71 40.77 C74.26 40.54, 73.82 40.31, 72.68 39.73 M74.71 40.77 C74.2 40.51, 73.69 40.25, 72.68 39.73 M72.68 39.73 C72.16 39.5, 71.65 39.26, 70.6 38.79 M72.68 39.73 C72.08 39.46, 71.48 39.19, 70.6 38.79 M70.6 38.79 C70.1 38.59, 69.61 38.4, 68.46 37.95 M70.6 38.79 C70.15 38.61, 69.7 38.44, 68.46 37.95 M68.46 37.95 C67.65 37.67, 66.83 37.4, 66.28 37.21 M68.46 37.95 C67.96 37.78, 67.46 37.61, 66.28 37.21 M66.28 37.21 C65.51 36.99, 64.75 36.77, 64.04 36.57 M66.28 37.21 C65.66 37.03, 65.04 36.86, 64.04 36.57 M64.04 36.57 C63.29 36.4, 62.53 36.23, 61.77 36.05 M64.04 36.57 C63.36 36.42, 62.68 36.26, 61.77 36.05 M61.77 36.05 C61.28 35.96, 60.79 35.88, 59.45 35.64 M61.77 36.05 C61.18 35.94, 60.58 35.84, 59.45 35.64 M59.45 35.64 C58.58 35.53, 57.7 35.42, 57.1 35.34 M59.45 35.64 C58.96 35.57, 58.47 35.51, 57.1 35.34 M57.1 35.34 C56.41 35.29, 55.72 35.23, 54.71 35.16 M57.1 35.34 C56.3 35.28, 55.51 35.22, 54.71 35.16 M54.71 35.16 C53.81 35.13, 52.92 35.11, 52.29 35.1 M54.71 35.16 C53.74 35.13, 52.77 35.11, 52.29 35.1 M52.29 35.1 C52.29 35.1, 52.29 35.1, 52.29 35.1 M52.29 35.1 C52.29 35.1, 52.29 35.1, 52.29 35.1 M52.29 35.1 C51.56 35.1, 50.84 35.1, 50.19 35.1 M52.29 35.1 C51.55 35.1, 50.82 35.1, 50.19 35.1 M50.19 35.1 C50.19 35.1, 50.19 35.1, 50.19 35.1 M50.19 35.1 C50.19 35.1, 50.19 35.1, 50.19 35.1 M50.19 35.1 C49.64 33.74, 49.09 32.39, 48.66 31.33 M50.19 35.1 C49.76 34.05, 49.34 33.01, 48.66 31.33 M48.66 31.33 C47.96 29.93, 47.26 28.54, 46.85 27.71 M48.66 31.33 C48.07 30.15, 47.48 28.97, 46.85 27.71 M46.85 27.71 C46.41 26.99, 45.98 26.26, 44.78 24.26 M46.85 27.71 C46.37 26.91, 45.89 26.11, 44.78 24.26 M44.78 24.26 C44.17 23.4, 43.57 22.54, 42.46 20.98 M44.78 24.26 C44.09 23.28, 43.4 22.3, 42.46 20.98 M42.46 20.98 C41.61 19.95, 40.76 18.92, 39.91 17.89 M42.46 20.98 C41.94 20.35, 41.42 19.72, 39.91 17.89 M39.91 17.89 C39.01 16.95, 38.1 16.01, 37.13 15 M39.91 17.89 C38.8 16.73, 37.69 15.58, 37.13 15 M37.13 15 C36.22 14.18, 35.31 13.37, 34.15 12.32 M37.13 15 C36.5 14.43, 35.86 13.86, 34.15 12.32 M34.15 12.32 C33.32 11.69, 32.5 11.06, 30.96 9.87 M34.15 12.32 C33.4 11.75, 32.66 11.18, 30.96 9.87 M30.96 9.87 C29.81 9.12, 28.66 8.36, 27.6 7.67 M30.96 9.87 C30.22 9.39, 29.48 8.9, 27.6 7.67 M27.6 7.67 C26.77 7.2, 25.93 6.74, 24.06 5.71 M27.6 7.67 C26.57 7.1, 25.54 6.53, 24.06 5.71 M24.06 5.71 C22.59 5.04, 21.13 4.36, 20.37 4.02 M24.06 5.71 C23.24 5.33, 22.42 4.96, 20.37 4.02 M20.37 4.02 C19.54 3.71, 18.7 3.41, 16.53 2.61 M20.37 4.02 C19.43 3.67, 18.48 3.32, 16.53 2.61 M16.53 2.61 C15.48 2.31, 14.42 2.01, 12.56 1.49 M16.53 2.61 C15.15 2.22, 13.77 1.83, 12.56 1.49 M12.56 1.49 C11.53 1.28, 10.5 1.07, 8.48 0.67 M12.56 1.49 C11.49 1.27, 10.43 1.06, 8.48 0.67 M8.48 0.67 C7.31 0.53, 6.14 0.39, 4.28 0.17 M8.48 0.67 C6.94 0.49, 5.41 0.3, 4.28 0.17 M4.28 0.17 C2.64 0.1, 1 0.04, 0 0 M4.28 0.17 C3.06 0.12, 1.85 0.07, 0 0 M0 0 C0 0, 0 0, 0 0 M0 0 C0 0, 0 0, 0 0 M0 0 C0 0, 0 0, 0 0 M0 0 C0 0, 0 0, 0 0" stroke="#000000" stroke-width="0.5" fill="none"></path></g></g><mask></mask><g stroke-linecap="round"><g transform="translate(116.19956413716545 96.09352049048198) rotate(0 -24.01662075150881 14.177835580340343)" fill-rule="evenodd"><path d="M0 0 L-21.33 -21.33 L-21.33 -21.33 L-22.01 -21.89 L-22.75 -22.28 L-23.54 -22.52 L-24.35 -22.6 L-25.16 -22.52 L-25.95 -22.28 L-26.7 -21.89 L-27.37 -21.33 L-47.99 -0.72 L-47.99 -0.72 L-48.54 -0.04 L-48.94 0.7 L-49.18 1.49 L-49.25 2.3 L-49.18 3.11 L-48.94 3.9 L-48.54 4.65 L-47.99 5.32 L-47.31 5.87 L-46.57 6.27 L-45.78 6.51 L-44.97 6.59 L-44.16 6.51 L-43.37 6.27 L-42.63 5.87 L-41.95 5.32 L-28.6 -8.03 L-28.6 46.71 L-28.6 46.71 L-28.51 47.57 L-28.27 48.37 L-27.88 49.09 L-27.36 49.72 L-26.73 50.23 L-26.01 50.62 L-25.21 50.87 L-24.35 50.96 L-23.49 50.87 L-22.7 50.62 L-21.97 50.23 L-21.35 49.72 L-20.83 49.09 L-20.44 48.37 L-20.19 47.57 L-20.11 46.71 L-20.11 -8.03 L-6.09 5.99 L-6.09 5.99 L-5.42 6.52 L-4.67 6.91 L-3.88 7.14 L-3.07 7.21 L-2.26 7.14 L-1.46 6.91 L-0.72 6.52 L-0.05 5.99 L0.5 5.33 L0.9 4.59 L1.14 3.8 L1.22 2.99 L1.15 2.18 L0.92 1.4 L0.54 0.66 L0 0 L0 0" stroke="none" stroke-width="0" fill="#FFFFFF" fill-rule="evenodd"></path><path d="M0 0 C-4.7 -4.7, -9.39 -9.39, -21.33 -21.33 M0 0 C-7.23 -7.23, -14.46 -14.46, -21.33 -21.33 M-21.33 -21.33 C-21.33 -21.33, -21.33 -21.33, -21.33 -21.33 M-21.33 -21.33 C-21.33 -21.33, -21.33 -21.33, -21.33 -21.33 M-21.33 -21.33 C-21.5 -21.47, -21.67 -21.61, -22.01 -21.89 M-21.33 -21.33 C-21.56 -21.52, -21.78 -21.7, -22.01 -21.89 M-22.01 -21.89 C-22.29 -22.04, -22.57 -22.18, -22.75 -22.28 M-22.01 -21.89 C-22.16 -21.97, -22.32 -22.05, -22.75 -22.28 M-22.75 -22.28 C-23.05 -22.37, -23.36 -22.47, -23.54 -22.52 M-22.75 -22.28 C-23 -22.36, -23.24 -22.43, -23.54 -22.52 M-23.54 -22.52 C-23.78 -22.54, -24.01 -22.57, -24.35 -22.6 M-23.54 -22.52 C-23.73 -22.54, -23.91 -22.56, -24.35 -22.6 M-24.35 -22.6 C-24.66 -22.57, -24.97 -22.54, -25.16 -22.52 M-24.35 -22.6 C-24.62 -22.57, -24.89 -22.55, -25.16 -22.52 M-25.16 -22.52 C-25.41 -22.45, -25.65 -22.37, -25.95 -22.28 M-25.16 -22.52 C-25.4 -22.45, -25.64 -22.38, -25.95 -22.28 M-25.95 -22.28 C-26.16 -22.17, -26.38 -22.06, -26.7 -21.89 M-25.95 -22.28 C-26.1 -22.2, -26.26 -22.12, -26.7 -21.89 M-26.7 -21.89 C-26.95 -21.68, -27.21 -21.47, -27.37 -21.33 M-26.7 -21.89 C-26.85 -21.76, -27.01 -21.63, -27.37 -21.33 M-27.37 -21.33 C-33.87 -14.83, -40.38 -8.33, -47.99 -0.72 M-27.37 -21.33 C-35.02 -13.69, -42.66 -6.04, -47.99 -0.72 M-47.99 -0.72 C-47.99 -0.72, -47.99 -0.72, -47.99 -0.72 M-47.99 -0.72 C-47.99 -0.72, -47.99 -0.72, -47.99 -0.72 M-47.99 -0.72 C-48.2 -0.45, -48.42 -0.19, -48.54 -0.04 M-47.99 -0.72 C-48.11 -0.57, -48.23 -0.43, -48.54 -0.04 M-48.54 -0.04 C-48.63 0.12, -48.72 0.29, -48.94 0.7 M-48.54 -0.04 C-48.65 0.16, -48.76 0.37, -48.94 0.7 M-48.94 0.7 C-49.03 1.02, -49.13 1.33, -49.18 1.49 M-48.94 0.7 C-49.02 0.98, -49.11 1.26, -49.18 1.49 M-49.18 1.49 C-49.2 1.79, -49.23 2.09, -49.25 2.3 M-49.18 1.49 C-49.2 1.7, -49.22 1.9, -49.25 2.3 M-49.25 2.3 C-49.23 2.57, -49.2 2.84, -49.18 3.11 M-49.25 2.3 C-49.23 2.59, -49.2 2.88, -49.18 3.11 M-49.18 3.11 C-49.1 3.35, -49.03 3.59, -48.94 3.9 M-49.18 3.11 C-49.12 3.29, -49.07 3.47, -48.94 3.9 M-48.94 3.9 C-48.8 4.16, -48.66 4.43, -48.54 4.65 M-48.94 3.9 C-48.85 4.06, -48.77 4.22, -48.54 4.65 M-48.54 4.65 C-48.4 4.82, -48.26 4.99, -47.99 5.32 M-48.54 4.65 C-48.4 4.82, -48.26 4.99, -47.99 5.32 M-47.99 5.32 C-47.77 5.5, -47.55 5.68, -47.31 5.87 M-47.99 5.32 C-47.8 5.47, -47.62 5.62, -47.31 5.87 M-47.31 5.87 C-47.1 5.99, -46.9 6.1, -46.57 6.27 M-47.31 5.87 C-47.03 6.03, -46.75 6.18, -46.57 6.27 M-46.57 6.27 C-46.35 6.34, -46.13 6.4, -45.78 6.51 M-46.57 6.27 C-46.33 6.34, -46.09 6.41, -45.78 6.51 M-45.78 6.51 C-45.47 6.54, -45.17 6.57, -44.97 6.59 M-45.78 6.51 C-45.5 6.53, -45.22 6.56, -44.97 6.59 M-44.97 6.59 C-44.68 6.56, -44.4 6.53, -44.16 6.51 M-44.97 6.59 C-44.79 6.57, -44.6 6.55, -44.16 6.51 M-44.16 6.51 C-43.86 6.42, -43.56 6.33, -43.37 6.27 M-44.16 6.51 C-43.95 6.45, -43.74 6.38, -43.37 6.27 M-43.37 6.27 C-43.18 6.17, -42.99 6.07, -42.63 5.87 M-43.37 6.27 C-43.07 6.11, -42.78 5.96, -42.63 5.87 M-42.63 5.87 C-42.45 5.73, -42.28 5.59, -41.95 5.32 M-42.63 5.87 C-42.39 5.68, -42.15 5.48, -41.95 5.32 M-41.95 5.32 C-36.82 0.19, -31.7 -4.93, -28.6 -8.03 M-41.95 5.32 C-37.81 1.18, -33.66 -2.97, -28.6 -8.03 M-28.6 -8.03 C-28.6 3.69, -28.6 15.42, -28.6 46.71 M-28.6 -8.03 C-28.6 4.12, -28.6 16.27, -28.6 46.71 M-28.6 46.71 C-28.6 46.71, -28.6 46.71, -28.6 46.71 M-28.6 46.71 C-28.6 46.71, -28.6 46.71, -28.6 46.71 M-28.6 46.71 C-28.57 47.04, -28.53 47.38, -28.51 47.57 M-28.6 46.71 C-28.57 47.01, -28.54 47.31, -28.51 47.57 M-28.51 47.57 C-28.43 47.85, -28.34 48.13, -28.27 48.37 M-28.51 47.57 C-28.45 47.76, -28.39 47.95, -28.27 48.37 M-28.27 48.37 C-28.13 48.62, -27.99 48.88, -27.88 49.09 M-28.27 48.37 C-28.18 48.53, -28.09 48.69, -27.88 49.09 M-27.88 49.09 C-27.71 49.29, -27.54 49.49, -27.36 49.72 M-27.88 49.09 C-27.75 49.24, -27.63 49.39, -27.36 49.72 M-27.36 49.72 C-27.21 49.84, -27.06 49.96, -26.73 50.23 M-27.36 49.72 C-27.22 49.83, -27.09 49.94, -26.73 50.23 M-26.73 50.23 C-26.46 50.38, -26.19 50.52, -26.01 50.62 M-26.73 50.23 C-26.48 50.37, -26.22 50.51, -26.01 50.62 M-26.01 50.62 C-25.71 50.71, -25.42 50.81, -25.21 50.87 M-26.01 50.62 C-25.79 50.69, -25.57 50.76, -25.21 50.87 M-25.21 50.87 C-25.01 50.89, -24.8 50.91, -24.35 50.96 M-25.21 50.87 C-24.98 50.89, -24.75 50.92, -24.35 50.96 M-24.35 50.96 C-24.14 50.93, -23.93 50.91, -23.49 50.87 M-24.35 50.96 C-24.13 50.93, -23.92 50.91, -23.49 50.87 M-23.49 50.87 C-23.23 50.79, -22.97 50.71, -22.7 50.62 M-23.49 50.87 C-23.32 50.82, -23.14 50.76, -22.7 50.62 M-22.7 50.62 C-22.42 50.47, -22.14 50.32, -21.97 50.23 M-22.7 50.62 C-22.42 50.47, -22.13 50.32, -21.97 50.23 M-21.97 50.23 C-21.82 50.1, -21.66 49.97, -21.35 49.72 M-21.97 50.23 C-21.81 50.09, -21.64 49.95, -21.35 49.72 M-21.35 49.72 C-21.22 49.57, -21.1 49.42, -20.83 49.09 M-21.35 49.72 C-21.24 49.59, -21.13 49.46, -20.83 49.09 M-20.83 49.09 C-20.72 48.88, -20.6 48.67, -20.44 48.37 M-20.83 49.09 C-20.74 48.92, -20.65 48.76, -20.44 48.37 M-20.44 48.37 C-20.36 48.13, -20.29 47.89, -20.19 47.57 M-20.44 48.37 C-20.39 48.19, -20.33 48.02, -20.19 47.57 M-20.19 47.57 C-20.17 47.3, -20.14 47.03, -20.11 46.71 M-20.19 47.57 C-20.16 47.27, -20.13 46.98, -20.11 46.71 M-20.11 46.71 C-20.11 35.75, -20.11 24.79, -20.11 -8.03 M-20.11 46.71 C-20.11 34.31, -20.11 21.92, -20.11 -8.03 M-20.11 -8.03 C-16.16 -4.09, -12.22 -0.15, -6.09 5.99 M-20.11 -8.03 C-14.56 -2.49, -9.02 3.05, -6.09 5.99 M-6.09 5.99 C-6.09 5.99, -6.09 5.99, -6.09 5.99 M-6.09 5.99 C-6.09 5.99, -6.09 5.99, -6.09 5.99 M-6.09 5.99 C-5.86 6.17, -5.63 6.35, -5.42 6.52 M-6.09 5.99 C-5.95 6.1, -5.8 6.22, -5.42 6.52 M-5.42 6.52 C-5.19 6.64, -4.96 6.76, -4.67 6.91 M-5.42 6.52 C-5.2 6.64, -4.97 6.76, -4.67 6.91 M-4.67 6.91 C-4.42 6.98, -4.16 7.06, -3.88 7.14 M-4.67 6.91 C-4.39 6.99, -4.1 7.07, -3.88 7.14 M-3.88 7.14 C-3.6 7.16, -3.32 7.19, -3.07 7.21 M-3.88 7.14 C-3.62 7.16, -3.36 7.19, -3.07 7.21 M-3.07 7.21 C-2.87 7.19, -2.67 7.18, -2.26 7.14 M-3.07 7.21 C-2.87 7.2, -2.68 7.18, -2.26 7.14 M-2.26 7.14 C-2.02 7.07, -1.78 7, -1.46 6.91 M-2.26 7.14 C-2.06 7.08, -1.87 7.02, -1.46 6.91 M-1.46 6.91 C-1.31 6.83, -1.16 6.75, -0.72 6.52 M-1.46 6.91 C-1.17 6.76, -0.88 6.6, -0.72 6.52 M-0.72 6.52 C-0.47 6.33, -0.23 6.13, -0.05 5.99 M-0.72 6.52 C-0.57 6.4, -0.42 6.29, -0.05 5.99 M-0.05 5.99 C0.11 5.79, 0.27 5.6, 0.5 5.33 M-0.05 5.99 C0.17 5.72, 0.39 5.46, 0.5 5.33 M0.5 5.33 C0.62 5.11, 0.74 4.89, 0.9 4.59 M0.5 5.33 C0.62 5.11, 0.73 4.9, 0.9 4.59 M0.9 4.59 C0.97 4.37, 1.04 4.14, 1.14 3.8 M0.9 4.59 C0.99 4.29, 1.08 3.99, 1.14 3.8 M1.14 3.8 C1.16 3.59, 1.18 3.37, 1.22 2.99 M1.14 3.8 C1.16 3.58, 1.18 3.36, 1.22 2.99 M1.22 2.99 C1.2 2.72, 1.17 2.44, 1.15 2.18 M1.22 2.99 C1.2 2.75, 1.18 2.52, 1.15 2.18 M1.15 2.18 C1.06 1.87, 0.97 1.57, 0.92 1.4 M1.15 2.18 C1.08 1.96, 1.02 1.73, 0.92 1.4 M0.92 1.4 C0.81 1.18, 0.69 0.95, 0.54 0.66 M0.92 1.4 C0.83 1.22, 0.74 1.04, 0.54 0.66 M0.54 0.66 C0.42 0.51, 0.3 0.36, 0 0 M0.54 0.66 C0.41 0.5, 0.28 0.34, 0 0 M0 0 C0 0, 0 0, 0 0 M0 0 C0 0, 0 0, 0 0 M0 0 C0 0, 0 0, 0 0 M0 0 C0 0, 0 0, 0 0" stroke="#000000" stroke-width="0.5" fill="none"></path></g></g><mask></mask><g stroke-linecap="round"><g transform="translate(95.42843330935727 159.53245653602335) rotate(0 23.997444176506946 -14.177839483571574)" fill-rule="evenodd"><path d="M0 0 L21.33 21.33 L21.33 21.33 L22.01 21.89 L22.75 22.28 L23.54 22.52 L24.35 22.6 L25.16 22.52 L25.95 22.28 L26.7 21.89 L27.37 21.33 L47.99 0.72 L47.99 0.72 L48.54 0.04 L48.94 -0.7 L49.18 -1.49 L49.25 -2.3 L49.18 -3.11 L48.94 -3.9 L48.54 -4.65 L47.99 -5.32 L47.31 -5.87 L46.57 -6.27 L45.78 -6.51 L44.97 -6.59 L44.16 -6.51 L43.37 -6.27 L42.63 -5.87 L41.95 -5.32 L28.6 8.03 L28.6 -46.71 L28.6 -46.71 L28.51 -47.57 L28.27 -48.37 L27.88 -49.09 L27.36 -49.72 L26.73 -50.23 L26.01 -50.62 L25.21 -50.87 L24.35 -50.96 L23.49 -50.87 L22.7 -50.62 L21.97 -50.23 L21.35 -49.72 L20.83 -49.09 L20.44 -48.37 L20.19 -47.57 L20.11 -46.71 L20.11 8.03 L6.09 -5.99 L6.09 -5.99 L5.42 -6.52 L4.67 -6.91 L3.88 -7.14 L3.07 -7.21 L2.26 -7.14 L1.46 -6.91 L0.72 -6.52 L0.05 -5.99 L-0.52 -5.33 L-0.93 -4.6 L-1.17 -3.82 L-1.26 -3.01 L-1.18 -2.2 L-0.95 -1.42 L-0.55 -0.67 L0 0 L0 0" stroke="none" stroke-width="0" fill="#4285F4" fill-rule="evenodd"></path><path d="M0 0 C5.92 5.92, 11.84 11.84, 21.33 21.33 M0 0 C5.53 5.53, 11.06 11.06, 21.33 21.33 M21.33 21.33 C21.33 21.33, 21.33 21.33, 21.33 21.33 M21.33 21.33 C21.33 21.33, 21.33 21.33, 21.33 21.33 M21.33 21.33 C21.6 21.56, 21.87 21.78, 22.01 21.89 M21.33 21.33 C21.58 21.54, 21.82 21.74, 22.01 21.89 M22.01 21.89 C22.2 21.99, 22.39 22.09, 22.75 22.28 M22.01 21.89 C22.29 22.04, 22.58 22.19, 22.75 22.28 M22.75 22.28 C22.97 22.35, 23.18 22.41, 23.54 22.52 M22.75 22.28 C23.01 22.36, 23.27 22.44, 23.54 22.52 M23.54 22.52 C23.73 22.54, 23.92 22.56, 24.35 22.6 M23.54 22.52 C23.8 22.55, 24.07 22.57, 24.35 22.6 M24.35 22.6 C24.61 22.57, 24.87 22.55, 25.16 22.52 M24.35 22.6 C24.57 22.58, 24.79 22.56, 25.16 22.52 M25.16 22.52 C25.46 22.43, 25.76 22.34, 25.95 22.28 M25.16 22.52 C25.42 22.44, 25.69 22.36, 25.95 22.28 M25.95 22.28 C26.15 22.18, 26.35 22.07, 26.7 21.89 M25.95 22.28 C26.23 22.14, 26.5 21.99, 26.7 21.89 M26.7 21.89 C26.9 21.72, 27.1 21.56, 27.37 21.33 M26.7 21.89 C26.96 21.67, 27.23 21.45, 27.37 21.33 M27.37 21.33 C31.83 16.88, 36.29 12.42, 47.99 0.72 M27.37 21.33 C31.67 17.03, 35.97 12.73, 47.99 0.72 M47.99 0.72 C47.99 0.72, 47.99 0.72, 47.99 0.72 M47.99 0.72 C47.99 0.72, 47.99 0.72, 47.99 0.72 M47.99 0.72 C48.19 0.47, 48.4 0.22, 48.54 0.04 M47.99 0.72 C48.13 0.54, 48.27 0.37, 48.54 0.04 M48.54 0.04 C48.68 -0.22, 48.82 -0.48, 48.94 -0.7 M48.54 0.04 C48.65 -0.17, 48.77 -0.38, 48.94 -0.7 M48.94 -0.7 C49.01 -0.95, 49.09 -1.2, 49.18 -1.49 M48.94 -0.7 C49.02 -0.99, 49.11 -1.27, 49.18 -1.49 M49.18 -1.49 C49.2 -1.72, 49.22 -1.95, 49.25 -2.3 M49.18 -1.49 C49.21 -1.8, 49.24 -2.11, 49.25 -2.3 M49.25 -2.3 C49.23 -2.56, 49.2 -2.82, 49.18 -3.11 M49.25 -2.3 C49.23 -2.51, 49.21 -2.73, 49.18 -3.11 M49.18 -3.11 C49.08 -3.41, 48.99 -3.72, 48.94 -3.9 M49.18 -3.11 C49.11 -3.34, 49.04 -3.57, 48.94 -3.9 M48.94 -3.9 C48.84 -4.09, 48.73 -4.29, 48.54 -4.65 M48.94 -3.9 C48.83 -4.11, 48.72 -4.32, 48.54 -4.65 M48.54 -4.65 C48.41 -4.81, 48.27 -4.97, 47.99 -5.32 M48.54 -4.65 C48.38 -4.84, 48.22 -5.04, 47.99 -5.32 M47.99 -5.32 C47.8 -5.47, 47.61 -5.63, 47.31 -5.87 M47.99 -5.32 C47.84 -5.44, 47.69 -5.56, 47.31 -5.87 M47.31 -5.87 C47.16 -5.96, 47.01 -6.04, 46.57 -6.27 M47.31 -5.87 C47.09 -5.99, 46.87 -6.11, 46.57 -6.27 M46.57 -6.27 C46.32 -6.35, 46.06 -6.42, 45.78 -6.51 M46.57 -6.27 C46.35 -6.34, 46.13 -6.4, 45.78 -6.51 M45.78 -6.51 C45.59 -6.53, 45.39 -6.55, 44.97 -6.59 M45.78 -6.51 C45.49 -6.54, 45.2 -6.56, 44.97 -6.59 M44.97 -6.59 C44.79 -6.57, 44.61 -6.55, 44.16 -6.51 M44.97 -6.59 C44.69 -6.56, 44.41 -6.53, 44.16 -6.51 M44.16 -6.51 C43.95 -6.45, 43.75 -6.38, 43.37 -6.27 M44.16 -6.51 C43.87 -6.42, 43.58 -6.33, 43.37 -6.27 M43.37 -6.27 C43.22 -6.19, 43.07 -6.11, 42.63 -5.87 M43.37 -6.27 C43.17 -6.16, 42.97 -6.06, 42.63 -5.87 M42.63 -5.87 C42.48 -5.75, 42.32 -5.63, 41.95 -5.32 M42.63 -5.87 C42.4 -5.69, 42.18 -5.51, 41.95 -5.32 M41.95 -5.32 C37.01 -0.38, 32.07 4.56, 28.6 8.03 M41.95 -5.32 C39.03 -2.4, 36.11 0.52, 28.6 8.03 M28.6 8.03 C28.6 -3.88, 28.6 -15.79, 28.6 -46.71 M28.6 8.03 C28.6 -9.46, 28.6 -26.95, 28.6 -46.71 M28.6 -46.71 C28.6 -46.71, 28.6 -46.71, 28.6 -46.71 M28.6 -46.71 C28.6 -46.71, 28.6 -46.71, 28.6 -46.71 M28.6 -46.71 C28.57 -47.03, 28.53 -47.35, 28.51 -47.57 M28.6 -46.71 C28.57 -46.99, 28.54 -47.26, 28.51 -47.57 M28.51 -47.57 C28.43 -47.85, 28.34 -48.13, 28.27 -48.37 M28.51 -47.57 C28.46 -47.73, 28.41 -47.9, 28.27 -48.37 M28.27 -48.37 C28.12 -48.63, 27.98 -48.89, 27.88 -49.09 M28.27 -48.37 C28.12 -48.63, 27.98 -48.9, 27.88 -49.09 M27.88 -49.09 C27.71 -49.29, 27.54 -49.5, 27.36 -49.72 M27.88 -49.09 C27.73 -49.27, 27.58 -49.45, 27.36 -49.72 M27.36 -49.72 C27.17 -49.87, 26.99 -50.02, 26.73 -50.23 M27.36 -49.72 C27.22 -49.83, 27.07 -49.95, 26.73 -50.23 M26.73 -50.23 C26.57 -50.32, 26.41 -50.41, 26.01 -50.62 M26.73 -50.23 C26.55 -50.33, 26.37 -50.43, 26.01 -50.62 M26.01 -50.62 C25.84 -50.68, 25.66 -50.73, 25.21 -50.87 M26.01 -50.62 C25.77 -50.7, 25.53 -50.77, 25.21 -50.87 M25.21 -50.87 C24.96 -50.89, 24.71 -50.92, 24.35 -50.96 M25.21 -50.87 C24.88 -50.9, 24.55 -50.94, 24.35 -50.96 M24.35 -50.96 C24.17 -50.94, 23.98 -50.92, 23.49 -50.87 M24.35 -50.96 C24.08 -50.93, 23.81 -50.9, 23.49 -50.87 M23.49 -50.87 C23.28 -50.8, 23.06 -50.73, 22.7 -50.62 M23.49 -50.87 C23.29 -50.81, 23.08 -50.74, 22.7 -50.62 M22.7 -50.62 C22.47 -50.5, 22.24 -50.38, 21.97 -50.23 M22.7 -50.62 C22.51 -50.52, 22.33 -50.42, 21.97 -50.23 M21.97 -50.23 C21.78 -50.07, 21.59 -49.91, 21.35 -49.72 M21.97 -50.23 C21.84 -50.12, 21.7 -50, 21.35 -49.72 M21.35 -49.72 C21.15 -49.47, 20.95 -49.23, 20.83 -49.09 M21.35 -49.72 C21.23 -49.57, 21.11 -49.43, 20.83 -49.09 M20.83 -49.09 C20.75 -48.93, 20.66 -48.78, 20.44 -48.37 M20.83 -49.09 C20.71 -48.86, 20.58 -48.63, 20.44 -48.37 M20.44 -48.37 C20.38 -48.18, 20.33 -48, 20.19 -47.57 M20.44 -48.37 C20.35 -48.06, 20.25 -47.76, 20.19 -47.57 M20.19 -47.57 C20.17 -47.39, 20.16 -47.22, 20.11 -46.71 M20.19 -47.57 C20.16 -47.25, 20.13 -46.94, 20.11 -46.71 M20.11 -46.71 C20.11 -31.04, 20.11 -15.36, 20.11 8.03 M20.11 -46.71 C20.11 -25.58, 20.11 -4.45, 20.11 8.03 M20.11 8.03 C14.87 2.8, 9.63 -2.44, 6.09 -5.99 M20.11 8.03 C16.08 4, 12.05 -0.02, 6.09 -5.99 M6.09 -5.99 C6.09 -5.99, 6.09 -5.99, 6.09 -5.99 M6.09 -5.99 C6.09 -5.99, 6.09 -5.99, 6.09 -5.99 M6.09 -5.99 C5.94 -6.1, 5.8 -6.22, 5.42 -6.52 M6.09 -5.99 C5.84 -6.19, 5.59 -6.39, 5.42 -6.52 M5.42 -6.52 C5.26 -6.61, 5.09 -6.69, 4.67 -6.91 M5.42 -6.52 C5.14 -6.67, 4.85 -6.82, 4.67 -6.91 M4.67 -6.91 C4.42 -6.98, 4.17 -7.05, 3.88 -7.14 M4.67 -6.91 C4.51 -6.96, 4.34 -7, 3.88 -7.14 M3.88 -7.14 C3.65 -7.16, 3.43 -7.18, 3.07 -7.21 M3.88 -7.14 C3.63 -7.16, 3.38 -7.18, 3.07 -7.21 M3.07 -7.21 C2.88 -7.2, 2.69 -7.18, 2.26 -7.14 M3.07 -7.21 C2.77 -7.19, 2.48 -7.16, 2.26 -7.14 M2.26 -7.14 C2.01 -7.06, 1.76 -6.99, 1.46 -6.91 M2.26 -7.14 C1.95 -7.05, 1.65 -6.96, 1.46 -6.91 M1.46 -6.91 C1.3 -6.82, 1.13 -6.73, 0.72 -6.52 M1.46 -6.91 C1.24 -6.79, 1.02 -6.68, 0.72 -6.52 M0.72 -6.52 C0.53 -6.38, 0.35 -6.23, 0.05 -5.99 M0.72 -6.52 C0.54 -6.38, 0.37 -6.24, 0.05 -5.99 M0.05 -5.99 C-0.14 -5.76, -0.34 -5.54, -0.52 -5.33 M0.05 -5.99 C-0.09 -5.83, -0.23 -5.67, -0.52 -5.33 M-0.52 -5.33 C-0.65 -5.09, -0.79 -4.85, -0.93 -4.6 M-0.52 -5.33 C-0.66 -5.08, -0.79 -4.84, -0.93 -4.6 M-0.93 -4.6 C-1 -4.35, -1.08 -4.11, -1.17 -3.82 M-0.93 -4.6 C-1.01 -4.34, -1.09 -4.08, -1.17 -3.82 M-1.17 -3.82 C-1.21 -3.5, -1.24 -3.18, -1.26 -3.01 M-1.17 -3.82 C-1.2 -3.62, -1.22 -3.42, -1.26 -3.01 M-1.26 -3.01 C-1.24 -2.8, -1.22 -2.59, -1.18 -2.2 M-1.26 -3.01 C-1.24 -2.78, -1.22 -2.56, -1.18 -2.2 M-1.18 -2.2 C-1.13 -2.02, -1.08 -1.84, -0.95 -1.42 M-1.18 -2.2 C-1.1 -1.92, -1.02 -1.64, -0.95 -1.42 M-0.95 -1.42 C-0.87 -1.26, -0.79 -1.11, -0.55 -0.67 M-0.95 -1.42 C-0.84 -1.21, -0.72 -0.99, -0.55 -0.67 M-0.55 -0.67 C-0.37 -0.45, -0.19 -0.23, 0 0 M-0.55 -0.67 C-0.4 -0.49, -0.25 -0.3, 0 0 M0 0 C0 0, 0 0, 0 0 M0 0 C0 0, 0 0, 0 0 M0 0 C0 0, 0 0, 0 0 M0 0 C0 0, 0 0, 0 0" stroke="#000000" stroke-width="0.5" fill="none"></path></g></g><mask></mask><g transform="translate(21.84243966427175 188.96258272694922) rotate(0 83.5 38)"><text x="83.5" y="0" font-family="Helvetica, Segoe UI Emoji" font-size="33.4285714285714px" fill="#000000" text-anchor="middle" style="white-space: pre;" direction="ltr" dominant-baseline="text-before-edge">Cloud Data</text><text x="83.5" y="38" font-family="Helvetica, Segoe UI Emoji" font-size="33.4285714285714px" fill="#000000" text-anchor="middle" style="white-space: pre;" direction="ltr" dominant-baseline="text-before-edge">Transfer</text></g></svg>