<svg version="1.1" xmlns="http://www.w3.org/2000/svg" viewBox="0 0 172 84" width="172" height="84">
  <!-- svg-source:excalidraw -->
  
  <defs>
    
    
  </defs>
  <g stroke-linecap="round" transform="translate(6 6) rotate(0 80 36)"><path d="M18 0 C45.96 0, 73.92 0, 142 0 C154 0, 160 6, 160 18 C160 27.59, 160 37.18, 160 54 C160 66, 154 72, 142 72 C104.92 72, 67.85 72, 18 72 C6 72, 0 66, 0 54 C0 42.98, 0 31.96, 0 18 C0 6, 6 0, 18 0" stroke="none" stroke-width="0" fill="#FFF"></path><path d="M18 0 C67.58 0, 117.16 0, 142 0 M18 0 C50.15 0, 82.29 0, 142 0 M142 0 C154 0, 160 6, 160 18 M142 0 C154 0, 160 6, 160 18 M160 18 C160 27.02, 160 36.05, 160 54 M160 18 C160 30.57, 160 43.14, 160 54 M160 54 C160 66, 154 72, 142 72 M160 54 C160 66, 154 72, 142 72 M142 72 C96.44 72, 50.89 72, 18 72 M142 72 C116.67 72, 91.35 72, 18 72 M18 72 C6 72, 0 66, 0 54 M18 72 C6 72, 0 66, 0 54 M0 54 C0 40.29, 0 26.58, 0 18 M0 54 C0 39.92, 0 25.85, 0 18 M0 18 C0 6, 6 0, 18 0 M0 18 C0 6, 6 0, 18 0" stroke="#4285f4" stroke-width="2" fill="none"></path></g><g transform="translate(71 35) rotate(0 31 7)"><text x="0" y="0" font-family="Helvetica, Segoe UI Emoji" font-size="12px" fill="#000000" text-anchor="start" style="white-space: pre;" direction="ltr" dominant-baseline="text-before-edge">Cloud Build</text></g><g stroke-linecap="round"><g transform="translate(38.70000076293945 47.65333366394043) rotate(0 1.5599994659423828 -4.519999980926514)" fill-rule="evenodd"><path d="M0 0 L4.69 -2.71 L4.69 -8.12 L3.12 -9.04 L-1.57 -0.91 L0 0 L0 0" stroke="none" stroke-width="0" fill="#4285f4" fill-rule="evenodd"></path><path d="M0 0 C1.84 -1.06, 3.68 -2.12, 4.69 -2.71 M0 0 C0.94 -0.54, 1.89 -1.09, 4.69 -2.71 M4.69 -2.71 C4.69 -4.38, 4.69 -6.06, 4.69 -8.12 M4.69 -2.71 C4.69 -4.01, 4.69 -5.31, 4.69 -8.12 M4.69 -8.12 C4.12 -8.46, 3.54 -8.8, 3.12 -9.04 M4.69 -8.12 C4.19 -8.41, 3.69 -8.71, 3.12 -9.04 M3.12 -9.04 C1.4 -6.05, -0.33 -3.06, -1.57 -0.91 M3.12 -9.04 C2.16 -7.38, 1.2 -5.72, -1.57 -0.91 M-1.57 -0.91 C-1.21 -0.7, -0.86 -0.49, 0 0 M-1.57 -0.91 C-1.19 -0.69, -0.81 -0.46, 0 0 M0 0 C0 0, 0 0, 0 0 M0 0 C0 0, 0 0, 0 0 M0 0 C0 0, 0 0, 0 0 M0 0 C0 0, 0 0, 0 0" stroke="#00000000" stroke-width="1" fill="none"></path></g></g><mask></mask><g stroke-linecap="round"><g transform="translate(34.006667137145996 39.53333282470703) rotate(0 3.1399998664855957 1.8000011444091797)" fill-rule="evenodd"><path d="M0 0 L0 5.41 L1.57 6.32 L6.28 -1.8 L4.69 -2.72 L0 0 L0 0" stroke="none" stroke-width="0" fill="#669df6" fill-rule="evenodd"></path><path d="M0 0 C0 1.34, 0 2.67, 0 5.41 M0 0 C0 1.5, 0 3, 0 5.41 M0 5.41 C0.57 5.74, 1.15 6.07, 1.57 6.32 M0 5.41 C0.59 5.75, 1.18 6.09, 1.57 6.32 M1.57 6.32 C3.01 3.84, 4.45 1.37, 6.28 -1.8 M1.57 6.32 C2.72 4.34, 3.87 2.35, 6.28 -1.8 M6.28 -1.8 C5.94 -2, 5.61 -2.19, 4.69 -2.72 M6.28 -1.8 C5.81 -2.07, 5.33 -2.35, 4.69 -2.72 M4.69 -2.72 C3.11 -1.81, 1.54 -0.89, 0 0 M4.69 -2.72 C2.91 -1.68, 1.12 -0.65, 0 0 M0 0 C0 0, 0 0, 0 0 M0 0 C0 0, 0 0, 0 0 M0 0 C0 0, 0 0, 0 0 M0 0 C0 0, 0 0, 0 0" stroke="#00000000" stroke-width="1" fill="none"></path></g></g><mask></mask><g stroke-linecap="round"><g transform="translate(37.78000068664551 49.26666831970215) rotate(0 -5.313333511352539 -3.4266676902770996)" fill-rule="evenodd"><path d="M0 0 L-5.63 -3.25 L-5.63 -9.73 L-10.63 -12.63 L-10.63 -0.36 L0 5.77 L0 0 L0 0" stroke="none" stroke-width="0" fill="#aecbfa" fill-rule="evenodd"></path><path d="M0 0 C-1.84 -1.06, -3.67 -2.12, -5.63 -3.25 M0 0 C-1.29 -0.74, -2.57 -1.49, -5.63 -3.25 M-5.63 -3.25 C-5.63 -4.82, -5.63 -6.38, -5.63 -9.73 M-5.63 -3.25 C-5.63 -4.89, -5.63 -6.54, -5.63 -9.73 M-5.63 -9.73 C-7.53 -10.84, -9.44 -11.94, -10.63 -12.63 M-5.63 -9.73 C-6.88 -10.46, -8.12 -11.18, -10.63 -12.63 M-10.63 -12.63 C-10.63 -9.18, -10.63 -5.73, -10.63 -0.36 M-10.63 -12.63 C-10.63 -10.12, -10.63 -7.62, -10.63 -0.36 M-10.63 -0.36 C-7.23 1.6, -3.83 3.56, 0 5.77 M-10.63 -0.36 C-7.45 1.47, -4.28 3.3, 0 5.77 M0 5.77 C0 4.52, 0 3.28, 0 0 M0 5.77 C0 4.24, 0 2.72, 0 0 M0 0 C0 0, 0 0, 0 0 M0 0 C0 0, 0 0, 0 0 M0 0 C0 0, 0 0, 0 0 M0 0 C0 0, 0 0, 0 0" stroke="#00000000" stroke-width="1" fill="none"></path></g></g><mask></mask><g stroke-linecap="round"><g transform="translate(33.073333740234375 37.93333339691162) rotate(0 5.62666654586792 -4.519999980926514)" fill-rule="evenodd"><path d="M0 0 L5.63 -3.25 L11.25 0 L16.27 -2.89 L5.63 -9.04 L-5.01 -2.89 L0 0 L0 0" stroke="none" stroke-width="0" fill="#aecbfa" fill-rule="evenodd"></path><path d="M0 0 C1.32 -0.76, 2.64 -1.53, 5.63 -3.25 M0 0 C1.56 -0.9, 3.12 -1.8, 5.63 -3.25 M5.63 -3.25 C6.83 -2.56, 8.04 -1.86, 11.25 0 M5.63 -3.25 C7.02 -2.45, 8.41 -1.64, 11.25 0 M11.25 0 C12.65 -0.81, 14.05 -1.62, 16.27 -2.89 M11.25 0 C13.22 -1.14, 15.2 -2.28, 16.27 -2.89 M16.27 -2.89 C13.3 -4.61, 10.32 -6.33, 5.63 -9.04 M16.27 -2.89 C13.6 -4.43, 10.93 -5.98, 5.63 -9.04 M5.63 -9.04 C2.51 -7.24, -0.61 -5.44, -5.01 -2.89 M5.63 -9.04 C2.31 -7.12, -1.01 -5.21, -5.01 -2.89 M-5.01 -2.89 C-3.59 -2.07, -2.17 -1.25, 0 0 M-5.01 -2.89 C-3.41 -1.97, -1.8 -1.04, 0 0 M0 0 C0 0, 0 0, 0 0 M0 0 C0 0, 0 0, 0 0 M0 0 C0 0, 0 0, 0 0 M0 0 C0 0, 0 0, 0 0" stroke="#00000000" stroke-width="1" fill="none"></path></g></g><mask></mask><g stroke-linecap="round"><g transform="translate(45.246665954589844 46.01333427429199) rotate(0 -0.30666542053222656 -0.17333364486694336)" fill-rule="evenodd"><path d="M0 0 L-5.63 3.25 L-5.63 9.03 L5.01 2.89 L5.01 -9.37 L0 -6.48 L0 0 L0 0" stroke="none" stroke-width="0" fill="#aecbfa" fill-rule="evenodd"></path><path d="M0 0 C-2.14 1.24, -4.28 2.48, -5.63 3.25 M0 0 C-1.23 0.71, -2.46 1.42, -5.63 3.25 M-5.63 3.25 C-5.63 5.24, -5.63 7.23, -5.63 9.03 M-5.63 3.25 C-5.63 4.67, -5.63 6.08, -5.63 9.03 M-5.63 9.03 C-3.17 7.61, -0.72 6.2, 5.01 2.89 M-5.63 9.03 C-2.67 7.32, 0.29 5.61, 5.01 2.89 M5.01 2.89 C5.01 -0.22, 5.01 -3.34, 5.01 -9.37 M5.01 2.89 C5.01 0.16, 5.01 -2.57, 5.01 -9.37 M5.01 -9.37 C3.5 -8.5, 1.98 -7.63, 0 -6.48 M5.01 -9.37 C3.5 -8.5, 1.99 -7.63, 0 -6.48 M0 -6.48 C0 -4.35, 0 -2.21, 0 0 M0 -6.48 C0 -4.49, 0 -2.5, 0 0 M0 0 C0 0, 0 0, 0 0 M0 0 C0 0, 0 0, 0 0 M0 0 C0 0, 0 0, 0 0 M0 0 C0 0, 0 0, 0 0" stroke="#00000000" stroke-width="1" fill="none"></path></g></g><mask></mask></svg>