<svg xmlns="http://www.w3.org/2000/svg" viewBox="716.20 345.18 451.65 354.64" width="452" height="355"><ellipse cx="896.00" cy="522.50" rx="173.80" ry="171.32" stroke="#c55124" stroke-width="1" opacity="1.0" fill="none"/><polyline points="865.72,395.56 917.80,394.22 916.66,421.79 947.39,439.08 972.03,420.75 1007.36,463.41 983.47,480.72 990.25,508.53 1019.30,508.42 1019.36,558.21 991.61,558.15 979.98,577.88 998.48,603.33 963.45,635.16 943.86,613.75 921.74,623.46 923.29,650.70 875.89,651.67 875.05,625.68 855.73,615.17 832.33,636.72 796.42,600.75 816.32,584.17 804.78,560.65 778.96,559.16 776.90,510.26 801.10,510.77 810.34,482.81 787.38,468.74 818.88,424.63 842.88,439.03 866.31,424.99 865.72,395.56" fill="#ffffff" stroke="#c55124" stroke-width="1" opacity="1.0" stroke-linecap="round" stroke-linejoin="round"/><ellipse cx="897.96" cy="527.02" rx="67.72" ry="68.57" stroke="#c55124" stroke-width="1" opacity="1.0" fill="none"/></svg>