<svg version="1.1" xmlns="http://www.w3.org/2000/svg" viewBox="0 0 289.5729814587736 316.65124317489597" width="289.5729814587736" height="316.65124317489597">
  <!-- svg-source:excalidraw -->
  
  <defs>
    
    
  </defs>
  <g stroke-linecap="round" transform="translate(94.97703521797098 47.467919437420164) rotate(329.0957986716125 49.489238797598716 82.74116091574905)"><path d="M50.13 -0.15 C50.13 -0.15, 50.13 -0.15, 50.13 -0.15 M50.13 -0.15 C50.13 -0.15, 50.13 -0.15, 50.13 -0.15 M37.28 22.73 C40.77 17.05, 43.58 12.04, 50.82 5.43 M38.19 20.97 C41.48 15.28, 44.6 11.83, 52.95 2.2 M26.66 40.73 C35.93 24.41, 44.28 16.25, 51.46 8.89 M26.96 38.25 C33.51 32.74, 42.19 21.48, 54.39 8.98 M10.98 59.17 C29.05 43.07, 47.06 25.35, 57.03 11.39 M13.35 58.44 C23.02 51.34, 32.03 39.65, 56.48 9.61 M2.1 83 C16.11 59.81, 36.02 43.25, 56.17 16.19 M2.82 79.94 C20.71 59.27, 42.41 33.13, 57.79 13.95 M-0.34 86.66 C17.09 67.37, 40.55 42.06, 61.47 17.39 M3.15 85.5 C14.13 72.77, 27.08 57.24, 62.39 18.55 M4.23 85.81 C23.6 67.65, 50.68 37.55, 63.45 22.38 M4.67 91.01 C23.84 66.87, 41.15 45.18, 64.93 22.21 M2.88 91.61 C25.65 69.79, 40.72 53.29, 62.59 27.64 M4.81 92.76 C24.74 71.91, 43.61 51.93, 65.56 26.67 M11.24 93.28 C26.17 76.12, 48.83 51.38, 69.28 26.43 M9.13 95.02 C21.99 79.85, 40.91 60.94, 68.97 29.41 M12.21 103.85 C29.29 79.23, 48.95 60.49, 65.85 31.34 M9.09 100.75 C25.39 84.88, 38.51 67.64, 69.38 31.11 M12.63 103.15 C30.52 81.44, 47.16 61.25, 70.61 34.03 M13.64 103.64 C30.77 86.53, 43.45 69.74, 69.55 36.45 M13.27 108.33 C36.58 83.72, 54.66 63.06, 73.74 36.94 M14.28 107.6 C28.11 89.9, 42.96 73.26, 71.75 38.79 M16.86 109.61 C37.8 84.61, 61.24 61.75, 79.4 43.87 M16.08 111.52 C37.76 87.35, 55.74 64.25, 74.8 43.72 M20.04 118.01 C39.72 93.34, 65.85 63.08, 73.7 43.66 M20.56 113.97 C39.67 90.55, 58.87 68.91, 77.06 45.83 M23.39 115.86 C40.12 96.66, 54.65 78.09, 80.64 49.94 M22.83 116.79 C42.32 95.12, 62.7 73.41, 79.39 49.39 M24.12 119.83 C37.74 103.57, 54.29 84.78, 84.19 51.68 M23.2 121.01 C46.57 96.69, 66.09 72.8, 82.2 55.9 M28.7 128.37 C50.69 101.3, 70.37 77.9, 84.27 60.91 M26.82 127.38 C38.81 106.72, 55.82 92.9, 84.45 56.84 M29.51 128.75 C46.15 112.17, 57.26 93.87, 88.69 64.47 M27.37 128.37 C43.18 110.71, 58.69 95.78, 86.58 62.39 M30.9 135.57 C47.37 115.02, 57.5 101.39, 91.25 62.5 M32.07 131.66 C44.37 117.76, 54.69 102.43, 87.6 64.96 M33.15 134.48 C41.16 124.52, 58.8 104.85, 87.66 68.22 M32.7 136.94 C44.31 123.13, 57.45 109, 92.07 67.95 M32.47 137.93 C44.15 122.81, 61.94 106.95, 91.57 75.66 M32.51 140.55 C46.18 126.51, 60.01 111.22, 93.02 74.42 M39 143.71 C59.46 117.94, 76.63 97.08, 96.55 74.15 M35.33 143.12 C56.69 119.58, 77.56 92.48, 97.07 74.72 M37.52 149.9 C50.98 135.99, 63.57 120.7, 100.17 80.09 M37.17 145.44 C58.78 123.52, 81.87 101.28, 95.34 79.11 M40.05 150.4 C57.19 129.91, 73.98 111.25, 95.85 80.7 M41.92 149.06 C63.23 122.64, 85.6 95.69, 98.48 82.61 M46.54 157.92 C61.68 130.41, 74.4 115.73, 85.23 104.34 M44.96 152.22 C58.15 137.7, 71.41 121.57, 87.91 104.28 M46.89 154.5 C50.35 151.43, 59.86 136.95, 80.1 124.02 M46.26 157.41 C55.55 141.15, 67.91 129.67, 76.8 123.71 M44.97 163.22 C55.12 158.52, 58.09 146.96, 66.4 139.62 M45.28 160.05 C54.97 154.88, 60.26 147.15, 65.06 140.31 M49.9 165.92 C50.28 163.5, 51.67 162.54, 54.3 161.6 M49.14 165.13 C50.88 164.54, 51.33 162.91, 53.74 160.5 M49.77 165.28 C49.77 165.28, 49.77 165.28, 49.77 165.28 M49.77 165.28 C49.77 165.28, 49.77 165.28, 49.77 165.28 M50.57 160.75 C51.25 157.09, 44.97 158.79, 44.52 155.01 M51.57 161.75 C49.8 159.11, 48.03 157.73, 42.63 153.3 M55.98 156.94 C49.74 154.1, 46.85 154.91, 36.47 139.65 M53.52 160 C49.39 153.61, 43.64 151.51, 35.52 143.98 M55.63 158.75 C50.72 149.65, 39.34 141.15, 27.76 131.7 M57.72 153.49 C47.96 150.47, 44.49 144.75, 28.37 131.19 M55.01 155.12 C47.53 143.01, 33.08 127.22, 21.93 123.64 M59.11 151.79 C45.22 140.97, 33.96 129.88, 21.45 119.57 M60.65 146.59 C48.63 132.84, 33.36 125.26, 17.84 110.09 M59.92 147.01 C44.91 137.23, 32.8 121.77, 15.44 107.67 M61.87 147.64 C46.91 132.65, 31.12 119.09, 6.37 97.01 M61.09 143.82 C50.25 133.12, 38.44 124.77, 8 98.93 M61.34 140.71 C43.99 123.36, 18.38 106.07, 2.51 88.9 M65.77 140.38 C51.36 124.92, 35.46 114.06, 2.77 87.98 M66.01 135.48 C39.69 117.46, 14.27 97.05, -0.7 78.82 M67.35 138.74 C49.99 123.1, 34.24 107.92, 0.36 81.56 M66.67 136.24 C51.65 120.08, 28.98 97.88, 0.82 78.54 M69.93 135.13 C46.61 115.98, 22.02 93.54, 4.34 79.72 M68.88 129.25 C49.94 106.87, 26.57 93.06, 3.2 71.11 M72.31 130.35 C46.53 110.06, 23.48 87.88, 7.21 75.42 M75.57 124.66 C54.92 110.08, 40.25 101.78, 4.9 72.15 M71.53 126.68 C51.89 108.43, 27.96 88.52, 5.73 70.73 M78.69 120.58 C59.43 111, 34.88 92.44, 11.45 67.18 M75.6 122.97 C54.22 104.43, 31.96 86.45, 10.63 69.24 M75.02 123.08 C58.38 104.73, 36.67 82.78, 11.18 63.71 M76.23 121.58 C61.5 104.74, 42.93 86.31, 11.33 63.15 M80.64 116.12 C64.75 105.43, 49.55 90.02, 13.75 61.17 M80.36 117.41 C56.46 95.84, 29.41 70.78, 15.5 58.1 M81.95 112.98 C60.74 100.81, 44.71 85.09, 17.87 54.88 M82.17 112.22 C59.13 96.2, 36.42 75.25, 17.78 56.31 M87.18 107.48 C71.61 102.37, 59.68 86.67, 19.05 56.18 M83.52 108.97 C60.24 89.67, 41.51 72.95, 20.49 51.54 M85.33 109.47 C61.02 85.61, 34.01 65.57, 24.15 46.29 M86 106.16 C64.9 87.44, 41.64 65.31, 21.22 50.04 M84.76 98.65 C72.52 87.49, 50.82 74.16, 18.32 43.71 M86.45 102.81 C58.75 80.32, 36.56 58.06, 20.74 44.96 M88.11 100.03 C71.68 84.1, 53.64 71.23, 24.51 39.55 M88.88 96.8 C64.06 77.94, 40.18 58.15, 23.57 42.61 M87.84 95.22 C72.12 81.17, 46.24 56.37, 30.5 40.87 M93.06 95.22 C72.81 80.67, 55.79 62.15, 25.9 40.9 M97.23 89.78 C74.01 74.61, 61.55 65.34, 27.37 32.64 M94.45 92.69 C74.92 74.89, 51.86 59.16, 27.2 34.21 M92.87 91.19 C67.89 64.14, 47.98 47.15, 33.29 29.78 M95.75 88.36 C76.88 72.13, 57.73 58.69, 30.87 32.44 M94.41 88.86 C73.49 68.24, 60.93 53.13, 29.21 25.17 M99.61 84.9 C79.66 70.47, 63.74 55.73, 33.04 28.1 M100.31 82.17 C74.04 58.74, 51.24 38.42, 37.4 23.6 M101.41 83.53 C81.2 63.99, 60.18 49.5, 34.04 25.16 M94.04 67.19 C75.26 52.39, 58.43 35.5, 41.21 21.79 M92.45 69.77 C71.28 50.04, 50.41 33.08, 39.21 22.12 M84 61.7 C79.12 48.2, 64.46 44.92, 40.78 20.44 M88.84 61.45 C69.87 45.72, 56.04 33.05, 39.57 19.07 M81.33 50.22 C67.68 43.94, 63.85 31.21, 43.59 18.13 M82.37 48.7 C73.22 41.08, 62.14 35.91, 43.38 14.58 M70.25 37.18 C61.97 26.7, 53.29 16.64, 39.39 14.77 M75.79 38.19 C64.19 30.03, 56.5 22.2, 44.1 12.11 M66.03 28.97 C63.37 24.21, 52.89 15.58, 43.79 10.81 M65.83 26.12 C59.64 19.79, 51.18 11.82, 44.94 6.28 M61.05 15.94 C58.18 15.44, 54.71 10.31, 49.03 2.89 M62.08 15.33 C59.11 14.01, 54.25 9.47, 46.88 5.23 M56.19 4.31 C51.88 4.93, 52.3 1.35, 48.79 0.83 M54.75 4.85 C54.12 5.24, 52.13 4.31, 48.97 0.51" stroke="#594be0" stroke-width="0.5" fill="none"></path><path d="M48.17 3.67 C67.97 33.56, 86.72 65.63, 100.26 85.85 M50.01 0.72 C65.21 27.02, 81.53 51.89, 98.29 82.46 M95.7 81.88 C85.01 108.06, 66.77 134.02, 48.26 161.98 M97.36 83.6 C79.79 110.73, 63.94 140.6, 50.24 163.68 M47.69 164.16 C39.5 147.95, 22.22 122.06, -2.25 82.54 M50.31 167.31 C37.87 139.24, 22.42 114.92, -1.1 82.39 M3.54 84.26 C17.44 58.08, 25.24 36.1, 49.78 -2.41 M1.42 83.18 C15.24 63.66, 23.71 43.86, 51.64 -0.39" stroke="#594be0" stroke-width="1" fill="none"></path></g><g stroke-linecap="round" transform="translate(98.09939149407023 156.91591174745497) rotate(329.0957986716125 49.489238797598716 82.74116091574905)"><path d="M50.13 -0.15 C50.13 -0.15, 50.13 -0.15, 50.13 -0.15 M50.13 -0.15 C50.13 -0.15, 50.13 -0.15, 50.13 -0.15 M40.95 18.03 C45.82 10.32, 51.33 7.19, 53.28 2.78 M39.2 19.49 C41.71 14.34, 46.49 11.86, 50.05 5.62 M26.9 38.55 C29.45 28.54, 40.19 22, 55.73 5.73 M24.42 39.98 C35.61 31.57, 41.02 20.73, 55.81 8.68 M13.29 59.88 C30.33 45.51, 45.69 26.06, 57.21 7.82 M12.56 59.31 C29.85 43.76, 42.45 29.7, 55.43 10.95 M5.06 77.74 C24.24 54.56, 50 26.62, 59.58 16.91 M2.01 78.54 C19.7 62, 31.89 42.94, 57.34 15.02 M2.06 84.15 C24.11 66.65, 39.99 40.81, 59.76 14.57 M0.91 86.66 C20.84 65.06, 38 44.3, 60.93 19.73 M0.2 87.26 C25.66 71.27, 39.12 48.08, 63.74 22.56 M5.4 91.32 C25.01 63.99, 47.12 40.78, 63.57 21.72 M4.98 93.59 C17.1 76.36, 34.53 60.77, 66.57 26.57 M6.14 92.21 C22.3 75.43, 39.32 59.01, 65.6 26.17 M5.64 94.58 C25.02 80.41, 36.89 62.98, 64.34 27.99 M7.37 94.47 C30.84 73.81, 50.55 51, 67.33 29.51 M13.78 100.37 C27.66 81.29, 47.41 57.55, 68.24 30.38 M10.68 101.57 C32.23 77.27, 52.26 53.89, 68.01 32.99 M12.07 102.77 C29.79 80.19, 49.02 62.62, 68.5 35.25 M12.55 105.23 C25.83 87.62, 39.26 73.12, 70.92 37.37 M16.23 109.78 C34.89 85.13, 57.35 60.65, 70.4 37.79 M15.5 106.96 C35.95 82.99, 57.48 55.81, 72.24 41.69 M15.08 109.37 C32.09 91.67, 51.32 77.83, 76.32 45.38 M16.99 112.82 C39.25 84.54, 62.54 58.55, 76.16 44.77 M22.46 113.14 C37.13 100.66, 46.25 76.81, 73.67 49.34 M18.43 116.12 C40.15 89.03, 63.71 62.71, 75.85 47.98 M19.3 118.92 C43.5 88.94, 68.42 67.87, 78.94 52.68 M20.23 118.97 C39.89 97.58, 59.48 74.93, 78.39 49.94 M22.25 121.73 C44.89 98.19, 65.01 72.53, 79.66 56.59 M23.43 122.26 C36.1 106.43, 49.16 91.97, 83.88 56.08 M28.37 129.24 C50.48 98.92, 76.15 72.17, 86.47 56.2 M27.38 124.16 C38.72 108.09, 57.05 89.1, 82.39 57.36 M27.73 132.84 C45.39 108.88, 61.22 90.34, 89.01 60.33 M27.35 130.12 C50.33 104.22, 76 76.71, 86.92 60.99 M33.53 134.1 C46.96 109.92, 67.25 96.61, 86.02 61.98 M29.63 134.36 C51.32 106.85, 71.59 82.23, 88.48 63.99 M30.02 132.54 C57.7 111.18, 75.59 84.04, 89.32 66.1 M32.47 134.67 C45.27 121, 57.7 110.51, 89.04 67.92 M32.45 137.32 C55.04 116.8, 76.74 88.21, 95.74 69.32 M35.08 139.06 C52.76 121.44, 69.31 101.22, 94.5 73.58 M37.21 145.85 C51.77 122.48, 71.23 104.32, 93.21 78.46 M36.62 143.38 C59.68 118.15, 79.28 94.08, 93.78 74.59 M42.38 146.68 C65.96 120.97, 88.02 98.84, 96.73 82.27 M37.93 145.22 C53.29 133.22, 68.23 114.35, 95.75 80.09 M40.46 151.08 C61.82 125.44, 85.05 96.54, 96.32 87.2 M39.12 150.49 C56.62 128.91, 73.72 108.28, 98.23 85.49 M46.97 155.99 C57.2 130.25, 80.24 110.6, 89.32 103.72 M41.27 155.33 C59.14 135.04, 75.52 116.69, 89.25 101.85 M42.53 154.53 C57.28 145.75, 60.7 140.31, 78.35 125.81 M45.44 155.71 C53.77 143.4, 66.97 133.06, 78.04 122.29 M48.82 163.79 C54.81 156.39, 53.99 153.18, 63.31 145.22 M45.66 162.12 C53.07 155.58, 57.9 151.87, 64.01 139.33 M50.51 164.88 C50.09 164.2, 51.13 163.26, 54.65 159.65 M49.71 165.42 C51.44 163.57, 52.11 162.36, 53.55 160.97 M49.77 165.28 C49.77 165.28, 49.77 165.28, 49.77 165.28 M49.77 165.28 C49.77 165.28, 49.77 165.28, 49.77 165.28 M50.88 164.45 C46.6 158.07, 47.45 157.02, 43.96 153.6 M51.88 162.03 C49.02 160.48, 47.36 157.29, 42.25 153.46 M52.61 158.38 C46.07 153.54, 43.32 146.79, 32.96 142.06 M55.67 158.8 C47.73 153.24, 44.57 148.3, 37.29 143.1 M59.97 157.76 C51.05 147.75, 41.89 139.23, 29.47 129.65 M54.71 153.06 C50.67 149.98, 43.12 141.12, 28.95 132.56 M61.89 151.94 C53.07 142.2, 40.01 137.14, 25.77 122 M58.56 150.05 C49.76 144.25, 41.1 136.57, 21.69 121.04 M58.99 150.54 C48.82 140.62, 43.24 131.13, 16.68 110.93 M59.42 146.81 C51.89 140.8, 39.6 130.19, 14.25 108.93 M65.6 144.28 C41.29 124.78, 19.58 105.74, 7.96 94.73 M61.77 144.38 C42.98 127.82, 26.73 111.43, 9.88 99 M64.21 142.9 C43.12 118.69, 22.41 101.13, 4.31 85.35 M63.87 142.73 C50.98 132.63, 41.33 120.1, 3.38 88.59 M64.52 134.55 C50.51 118.89, 34.55 105.99, -0.62 78.45 M67.78 137.13 C44.25 118.5, 20.5 98.32, 2.12 80.64 M70.93 137.11 C47.35 110.22, 15.76 85.27, 4.74 79.5 M69.82 134.51 C50.12 114.54, 25.94 98.53, 5.92 78.81 M69.48 133.52 C44.35 110.84, 25.59 84.08, 2.86 76.38 M70.58 129.76 C51.82 112.69, 28.82 96.42, 7.16 73.1 M70.43 125.79 C46.5 109.63, 30.79 87.5, 9.43 72.66 M72.46 128.74 C55.77 112.84, 39.4 95.36, 8.01 70.08 M72 126.98 C56.44 102.31, 31.28 86.75, 10.11 68.96 M74.38 125.26 C52.7 106.17, 31.91 86.19, 12.18 67.29 M80.04 121.23 C56.77 97.77, 28.2 78, 12.19 62.99 M78.54 122.13 C63.2 107.86, 45.22 91.84, 11.62 62.25 M78.63 117.72 C56.14 97.14, 29.77 75.38, 15.19 63.49 M79.91 118.12 C67.35 104.68, 49.86 94.08, 12.12 59.45 M81.02 110.05 C62.79 94.9, 42.79 80.67, 14.55 58.28 M80.27 112.28 C63.23 95.28, 41.91 81.94, 15.98 55.31 M81.18 111.52 C68.43 99.36, 47.16 80.75, 21.39 54.24 M82.66 108.3 C58.6 89.45, 35.8 69.58, 16.74 55.28 M88.7 106.53 C71.17 93.37, 59.81 86.01, 17.04 51.32 M85.4 106.88 C72.67 93.92, 55.66 82.75, 20.79 48.74 M83.43 104.51 C62.98 79.96, 42.66 60.62, 20.01 49.85 M87.59 100.64 C64.55 82.01, 39.71 57.02, 21.25 45.38 M90.36 99.3 C67.4 78.14, 46.44 57.85, 21.49 45.88 M87.13 98.53 C63.07 77.27, 39.71 54.95, 24.55 43.51 M91.19 96.46 C81.07 78.12, 60.42 73.34, 28.35 38.58 M91.19 94.1 C79.97 84.52, 63.83 72.23, 28.39 38.46 M91.3 88.64 C75.02 80.11, 64.2 63.98, 25.67 36.11 M94.21 93.93 C71.46 73.43, 52.32 54.63, 27.23 37.46 M98.25 85.51 C77.63 75.42, 65.83 60.61, 28.45 31.73 M95.42 88.52 C70 66.33, 47.81 46.01, 31.12 32.75 M101.56 81.83 C70.43 65.54, 46.8 35.31, 29.39 27.76 M97.6 85.34 C72.01 67.07, 48.48 44.4, 32.32 30.54 M100.41 81.43 C73.45 61.85, 49.75 40.99, 33.36 25.59 M101.77 81.86 C85.41 70.47, 75.26 58.98, 34.92 26 M89.89 71.96 C72.61 56.66, 52.01 39.59, 37.19 25.64 M92.48 69.27 C80.55 58.86, 70.25 50.85, 37.52 20.25 M88.87 61.92 C66 41.56, 54.32 31.42, 41.38 19.44 M88.61 58.51 C68.4 45.96, 51.93 31.06, 40.02 17.42 M81.84 45.64 C71.62 41.04, 55.17 30.45, 44.63 11.55 M80.32 50.28 C67.15 37.19, 56.5 29.32, 41.08 15.58 M73.26 36.52 C61.66 28.15, 49.75 14.78, 46.8 10.92 M74.27 37.22 C64.35 30.69, 54.74 22.69, 44.15 11.1 M69.51 29.03 C65.7 20.3, 57.49 15.94, 48.49 10.23 M66.66 26.98 C60.11 19.07, 51.11 12.45, 43.96 6.99 M60.94 16.66 C57.56 11.79, 49.92 8.31, 46.11 1.6 M60.33 17.06 C57.84 11.87, 51.96 8.75, 48.45 5.18 M53.77 4.27 C54.13 4.84, 50.11 1.27, 49.6 -0.55 M54.31 5.73 C53.82 3.35, 52.18 1.93, 49.28 1.19" stroke="#594be0" stroke-width="0.5" fill="none"></path><path d="M53.67 -0.12 C65.73 24.65, 80.88 49.46, 101.83 83.52 M50.72 -0.87 C66.59 28.78, 82.39 56.63, 98.44 83.51 M97.86 86.02 C85.61 102.42, 73.14 119.46, 46.5 167.61 M99.58 81.56 C84.01 104.74, 71.37 127.47, 48.2 164.65 M48.68 167.19 C40.65 141.1, 23.25 120.36, -0.46 83.09 M51.82 167.04 C38.24 149.2, 28.14 129.24, -0.61 82.73 M1.26 86.59 C15.56 51.87, 33.82 27.26, 47.59 -2.4 M0.18 84.66 C10.71 63.47, 21.04 50.02, 49.61 -0.55" stroke="#594be0" stroke-width="1" fill="none"></path></g><g stroke-linecap="round" transform="translate(-0.9930335194483177 -5.746990404057101) rotate(329.0957986716125 49.489238797598716 82.74116091574905)"><path d="M50.13 -0.15 C50.13 -0.15, 50.13 -0.15, 50.13 -0.15 M50.13 -0.15 C50.13 -0.15, 50.13 -0.15, 50.13 -0.15 M36.26 22.28 C37.51 18.94, 43.32 13.93, 50.63 3.43 M37.72 19.63 C41.61 15.11, 48.18 7.51, 53.47 2.6 M24.72 36.91 C31.3 30.54, 41.35 20.27, 52.57 7.08 M26.15 41.07 C35.21 29.45, 41.88 23.46, 55.51 8.46 M14 60.61 C27.95 48.53, 36.72 35.71, 53.63 11.08 M13.43 61.69 C21.96 51.46, 31.93 38.75, 56.77 12.6 M-0.2 79.53 C16.92 65.18, 29.29 46.11, 60.3 13.91 M0.61 81.77 C17.51 60.34, 31.98 42.83, 58.41 15.76 M-0.44 87.29 C18.56 67.71, 29.14 55.19, 56.94 18.83 M2.06 86.99 C19.96 64.96, 38.84 44.82, 62.1 18.42 M1.65 92.74 C22.84 70.41, 36.84 53.98, 63.92 24.44 M5.71 89.14 C22.8 66.29, 44.07 44.78, 63.08 20.26 M6.96 90.24 C23 74.34, 40.52 54.74, 65.51 24.39 M5.58 93.41 C24.26 74.91, 43.18 53.69, 65.1 24.95 M6.94 98.18 C30.37 72.44, 50.67 47.72, 65.91 31.13 M6.83 97.98 C26.73 78.34, 44.52 57.95, 67.43 28.86 M10.3 100.78 C27.87 82.72, 40.86 58.37, 67.28 34.45 M11.5 100.72 C24.18 84.81, 37.67 68.43, 69.89 32.59 M11.68 103.06 C26.49 85.22, 46.3 62.23, 69.72 33.18 M14.14 103.22 C22.8 90.47, 34.66 76.02, 71.85 37.71 M17.68 105.37 C29.74 92.01, 41.89 73.96, 71.25 42.97 M14.86 106.3 C33.7 85.48, 49.26 65.07, 75.15 39.49 M14.84 111.1 C35.86 91.49, 60.74 65.84, 77.82 46.78 M18.29 110.75 C32.36 92.63, 48.64 74.29, 77.21 42.45 M17.6 118.45 C41.54 89.42, 54.16 64.85, 79.36 50.65 M20.57 114.07 C38.01 93.83, 56.34 69.04, 77.99 49.05 M22.36 118.97 C38.58 98.38, 63.8 69.24, 81.68 51.4 M22.41 117.97 C38.16 101.35, 52.76 79.79, 78.94 52.49 M24.15 120.49 C43.91 98.41, 61.55 78.11, 84.57 51.19 M24.68 120.4 C40.02 102.14, 56.68 86.08, 84.07 56.17 M29.24 126.66 C38.91 112.77, 52.3 95.69, 81.76 57.24 M24.16 124.03 C48.25 100.09, 69.53 72.03, 82.91 58.48 M31.82 127.93 C41.83 110.37, 57.33 100.02, 84.87 65.56 M29.1 128.22 C46.51 111.92, 62.25 91.2, 85.53 61.5 M32.07 132.09 C42.99 116.39, 64.81 91.76, 85.5 67.49 M32.33 132.57 C46.54 111.83, 63.8 91.41, 87.51 66.55 M28.07 139.98 C45.73 120.47, 57.64 102.92, 87.2 65.45 M30.2 137.66 C46.63 118.99, 66.3 96.83, 89.01 70.93 M31.84 137.24 C49.63 122.71, 59.27 114.13, 89.4 72.62 M33.58 141.76 C57.59 115.84, 78.83 91.82, 93.66 72.62 M39.35 140.84 C52.45 123.67, 70.86 102.71, 97.52 79.56 M36.88 144.37 C58.58 117.51, 81.3 94.05, 93.65 77.86 M39.17 150.05 C52.26 133.85, 68.87 115.78, 98.91 77.83 M37.71 146.22 C56.03 131.65, 67.31 113.55, 96.73 81.83 M41.15 149.96 C60.38 128.9, 76.33 103.57, 102.82 83.85 M40.55 149.75 C61.57 124.52, 83.65 99.84, 101.11 85.44 M45.03 150.47 C51.83 140.78, 64.82 125.99, 88.7 105.16 M44.38 155.12 C60.14 135.92, 77.97 115.53, 86.82 102.67 M42.56 160.8 C55.74 142.29, 72.3 133.18, 80.14 123.96 M43.74 155.7 C55.91 144.2, 70.1 131.17, 76.62 121.02 M49.39 165.22 C54.15 151.73, 63.05 143.6, 68.91 139.33 M47.72 162.85 C50.93 158.26, 56.9 150.45, 63.02 140.8 M49.47 164.37 C51.02 163.14, 52.32 163.8, 52.7 160.78 M50 165.52 C50.51 163.89, 51.65 162.98, 54.02 161.05 M49.77 165.28 C49.77 165.28, 49.77 165.28, 49.77 165.28 M49.77 165.28 C49.77 165.28, 49.77 165.28, 49.77 165.28 M54.58 159.98 C49.52 162.52, 49.53 159.15, 42.55 153.51 M52.16 161.24 C50.38 159.68, 46.72 156.68, 42.41 155.47 M54.05 157.53 C49.22 156.61, 42.78 145.1, 35.37 142.94 M54.47 157.76 C47.17 154.45, 40.23 148.24, 36.41 142.79 M58.98 157.29 C50.28 151.58, 42.95 145.36, 27.42 131.16 M54.28 156.47 C51.09 150.94, 42.91 143.77, 30.33 130.16 M58.7 153.51 C47.31 140.65, 39.6 139.29, 24.12 117.48 M56.82 151.23 C45.53 140.6, 33.09 130.18, 23.16 119.27 M62.95 146.52 C53.29 143.45, 44.07 132.53, 17.52 106.33 M59.22 149.72 C46.49 132.94, 28.59 118.32, 15.52 111.27 M62.23 144.64 C41.92 127.86, 21.76 111.09, 5.67 99.47 M62.34 143.21 C46.29 130.21, 28.99 116.22, 9.95 99.19 M66.4 142.11 C43.98 126.84, 26.46 108.96, 0.76 83.23 M66.22 139.46 C50.51 129.12, 33.98 115.47, 3.99 86.23 M63.6 138.42 C41.96 120.69, 22.95 98.77, -0.99 82.47 M66.17 137.12 C47.84 121.23, 29.32 108.28, 1.19 82.76 M71.79 137.67 C54.4 120.19, 37.61 110.65, 4.94 78.12 M69.19 136 C49.83 119.26, 35.73 108.17, 4.25 78.76 M73.75 127.94 C60.23 121.83, 41.52 103.56, 8.12 75.02 M69.99 131.49 C56.09 117.93, 44.9 108.86, 4.84 74.73 M71.57 123.19 C47.66 106.89, 19.6 84.95, 9.95 68.62 M74.51 127.48 C49.59 106.09, 21.79 84.07, 7.37 71.38 M78.39 127.35 C53.26 108.09, 39.35 91.23, 11.14 68.26 M76.67 123.39 C55.62 106.09, 34.12 89.3, 9.47 67.9 M78.19 122.28 C61.3 104.97, 46.84 95.16, 11.46 61.24 M79.09 121.21 C62.66 105.15, 43.42 91.56, 10.73 65.04 M80.23 117.79 C57.57 96.19, 34.75 79.72, 17.51 56.81 M80.62 118.4 C62.2 102.15, 48.3 87.92, 13.47 60.07 M78.1 114.93 C54.78 93.21, 33.06 68.43, 17.18 56.12 M80.33 114.34 C56.94 93.1, 38.83 74.9, 14.22 55.81 M85.21 113.37 C60.88 87.06, 32.38 67.94, 18.69 55.64 M81.99 108.56 C67.96 95.42, 52.98 79.28, 19.73 50.91 M85.77 106.73 C58.71 87.74, 37.46 58.95, 22.07 46.38 M86.12 107.16 C67.5 89.44, 51.49 76.73, 19.49 50.23 M89.29 100.57 C59.13 78.07, 32.7 54.39, 26.14 49.37 M85.42 103.77 C75.34 91.92, 58 77.24, 21.68 47.2 M89.63 99.68 C72.54 87.83, 55.75 66.89, 27.07 45.5 M88.85 97.85 C65.08 76.8, 40.02 55.57, 24.7 40.72 M92.43 99.5 C68.79 75.54, 56.38 62.26, 26.06 35.63 M90.07 97.08 C73.61 79.38, 56.11 67.51, 25.94 38.26 M90.15 89.39 C75.12 78.05, 54.71 56.57, 29.14 36.58 M95.45 91.68 C68.56 73.48, 44.45 50.06, 30.49 34.82 M92.57 86.65 C82.41 78.43, 65.97 58.48, 29.64 35.07 M95.58 87.39 C73.42 71.49, 53.52 52.28, 30.67 33.91 M94.53 84.49 C78.1 66.27, 45.51 39.59, 31.98 31.77 M98.04 84.48 C73 62.29, 45.45 39.36, 34.76 30.59 M97.41 78.16 C80 62.77, 61.54 44.83, 35.35 21.3 M97.84 78.8 C74.19 63.88, 52.21 42.81, 35.76 26.45 M92.4 67.45 C81.19 54.57, 68.49 44.64, 40.29 18.21 M89.71 67.38 C77.51 56.98, 66.64 44.98, 34.9 22.6 M86.82 54.01 C66 45.25, 54.05 31.85, 39.64 20.3 M83.41 56.7 C68.6 44.51, 52.99 32.07, 37.62 18.03 M74.99 50.15 C68.97 35.83, 57.2 30.29, 38.04 16 M79.64 46.46 C65.21 38.75, 57.24 27.01, 42.08 15.9 M70.34 34.12 C65.72 27.03, 54.99 27.77, 42.95 11.68 M71.04 35.94 C63.43 28.55, 55.24 22.16, 43.14 9.95 M67.31 28.13 C58.63 21.11, 53.98 19.71, 47.16 9.64 M65.26 24.93 C60.73 19.87, 56.73 16.01, 43.92 9.4 M59.34 15.81 C54.96 10.2, 51.71 5.63, 45.31 4.19 M59.67 14.66 C55 10.28, 52.22 9.58, 48.29 5.65 M51.97 4.12 C52.54 2.35, 50.84 2.31, 48.82 0.92 M52.8 3.83 C51.13 2.78, 49.98 1.23, 49.81 0.9" stroke="#594be0" stroke-width="0.5" fill="none"></path><path d="M49.88 2.22 C62.57 24.41, 76.5 45.98, 99.5 84.81 M49.13 0.53 C62.29 19.68, 73.64 40.32, 99.49 81.73 M102 81.23 C83.71 104.71, 66.63 128.5, 52.13 164.4 M97.54 81.85 C84.31 105.37, 71.17 126.47, 49.17 164.61 M51.7 169.14 C32.7 138.5, 17.5 113.23, 0.09 79.56 M51.56 164.26 C36.44 141.82, 19.6 117.88, -0.27 83.58 M3.59 81.51 C8.83 61.04, 24.77 36.35, 47.6 -3.83 M1.66 83.68 C12.53 57.86, 31.61 30.83, 49.45 -0.74" stroke="#594be0" stroke-width="1" fill="none"></path></g><g stroke-linecap="round" transform="translate(191.45084198243126 50.173836009251204) rotate(210.5193166923191 49.489238797598716 82.74116091574905)"><path d="M50.13 -0.15 C50.13 -0.15, 50.13 -0.15, 50.13 -0.15 M50.13 -0.15 C50.13 -0.15, 50.13 -0.15, 50.13 -0.15 M40.51 16.11 C44.58 14.5, 47.01 9.86, 51.29 5.09 M37.85 18.89 C42.73 16.14, 44.54 11.8, 50.45 4.44 M23.09 36.13 C36.1 26.98, 45.25 17.8, 53.91 6.71 M27.24 41.35 C34.73 28.66, 47.77 18.47, 55.3 6.43 M14.73 62.3 C24.76 49.14, 34.03 34.63, 56.9 7.1 M15.8 58.65 C27.5 46.6, 36.62 33.57, 58.42 9.99 M1.59 80.13 C21.43 58.38, 36.69 42.62, 57.3 13.95 M3.84 80.46 C20.02 57.39, 40.14 35.39, 59.15 13.29 M2.7 89.47 C12.96 70.5, 30.31 48.87, 61.21 18.64 M2.4 87.34 C23.77 61.98, 46.99 36.01, 60.79 17.77 M7.13 92.28 C21.81 69.83, 42.24 49.44, 65.8 22.74 M3.53 89.56 C22.64 67.62, 43.23 42.94, 61.62 21.66 M3.61 90.89 C20.51 76.25, 33.65 64.77, 63.32 25.75 M6.79 92.38 C21.55 79.13, 33.57 63.58, 63.88 26.73 M10.54 98.55 C29.57 74.58, 49.49 46.76, 69.05 28.88 M10.34 97.56 C29.35 77.63, 47.49 54.41, 66.77 29.02 M10.71 101.22 C32.86 73.41, 48.88 51.35, 71.35 29.49 M10.65 100.14 C23.83 83.75, 36.56 68.28, 69.49 32.36 M11.98 100.52 C31.09 83.66, 45.04 62.81, 67.65 32.91 M12.13 102.44 C33.39 78.28, 52.91 57.43, 72.18 35.1 M13.27 108.26 C29.61 89.63, 41.31 70.07, 76.42 40.15 M14.2 107.58 C28.79 88.22, 43.83 74.22, 72.95 40.88 M16.57 110.21 C38.07 95, 53.44 72.96, 79.22 42.39 M16.22 110.19 C32.26 91.54, 48.08 76.07, 74.89 44.12 M22.91 117.8 C35.02 89.72, 51.73 73.78, 80.66 48.77 M18.52 115.19 C42.1 88.61, 61.06 64.75, 79.07 48.77 M22.41 114.68 C46.4 95.3, 61.74 73.08, 80.4 50.11 M21.41 119.27 C44.97 92.56, 63.47 67.61, 81.49 51.07 M22.91 123.65 C39.35 102.78, 57.5 82.64, 79.17 53.4 M22.83 120.93 C38.7 103.15, 56.73 87.23, 84.15 53.01 M26.65 126.23 C50.47 99.48, 71.22 71.62, 82.79 61.61 M24.03 126.93 C46.46 102.69, 64.92 76.94, 84.03 57.16 M26.91 129.6 C44.96 107.47, 70.22 80.9, 90.1 61.35 M27.2 130.3 C46.08 110.43, 60.46 91.25, 86.04 61.33 M30.05 129.14 C51.04 113.29, 63.24 86.45, 91.01 65.45 M30.54 131.87 C53.02 104.09, 75.76 78.01, 90.07 64.12 M35.52 136.19 C51.77 112.88, 69.89 90.4, 86.54 68.66 M33.2 135 C52.94 116.85, 69.25 91.42, 92.02 67.69 M31.76 141.74 C46.63 122.5, 67.38 103.44, 92.7 75.42 M36.28 140.33 C46.98 126.8, 59.65 113.64, 92.7 72.44 M34.34 142.97 C57.18 120, 76.23 97.06, 98.62 78.36 M37.87 143.28 C48.32 129.78, 62.14 111.03, 96.92 74.58 M42.54 146.29 C56.09 132.69, 67.9 114.18, 94.47 78.07 M38.71 148.04 C52.25 132.52, 62.15 120.48, 98.47 80.84 M40.02 150.75 C57.55 128.48, 70.79 116.62, 99.47 86.77 M39.81 150.1 C60.88 126.41, 82.35 105.25, 101.06 83.22 M39.52 151.11 C61.22 131.49, 77.95 115.28, 90.14 106.78 M44.16 154.22 C62.88 133.8, 80.28 112.78, 87.65 104.38 M48.83 156.31 C54.06 149.88, 68.61 138.1, 78.3 125.87 M43.73 155.94 C56.58 146.62, 67.9 134.57, 75.36 124.04 M50.82 161.24 C49.74 157.95, 54.04 155.52, 63.02 139.62 M48.45 160.35 C52.72 157.58, 53.73 151.45, 64.49 140.3 M48.96 165.47 C50.12 164.33, 53.18 161.27, 53.84 159.62 M50.1 164.97 C50.36 164.18, 51.33 163.46, 54.1 160 M49.77 165.28 C49.77 165.28, 49.77 165.28, 49.77 165.28 M49.77 165.28 C49.77 165.28, 49.77 165.28, 49.77 165.28 M50.11 161.35 C52.65 161.85, 49.06 158.11, 42.46 153.92 M51.38 162.68 C50.07 159.7, 47.18 157.66, 44.42 154.66 M53.2 159.52 C51.43 153.49, 38.78 146.99, 36.25 145.77 M53.43 158.13 C50.77 153.85, 45.66 150.61, 36.1 141.12 M58.51 154.64 C49.17 146.73, 40.25 139.79, 28.93 128.67 M57.69 155.99 C47.85 144.37, 35.67 137.62, 27.93 131.1 M60.27 149.21 C46.08 143.81, 44.66 139.07, 19.6 121.65 M57.99 150.85 C44.6 138.78, 31.8 129.54, 21.4 118.51 M58.92 150.03 C51.11 138.84, 34.76 126.89, 12.91 111.73 M62.13 149.64 C48.33 136.69, 35.68 126.52, 17.85 110.67 M62.59 143 C45.69 128.69, 30.35 114.74, 10.42 98.38 M61.16 144.3 C51.05 132.86, 39.21 124.11, 10.13 98.23 M65.6 139.05 C53.39 129.46, 38.47 115.64, -1.37 84.74 M62.96 142.72 C43.28 122.39, 19.71 103.7, 1.64 87.44 M67.46 133.52 C49.62 117.7, 26.56 100.81, 3.03 79.66 M66.16 137.09 C40.67 116.11, 19.98 96.88, 3.32 79.15 M72.35 133.46 C50 118.02, 36.87 108.9, 4.22 75.12 M70.68 132.21 C43.88 114.61, 23.89 95.11, 4.86 75.28 M68.17 133.03 C58.13 114.54, 35.17 105.14, 6.76 70.19 M71.72 129.91 C45.21 110.04, 22.99 86.3, 6.47 75.69 M68.97 127.41 C51.14 102.58, 26.37 86.52, 5.91 73.64 M73.25 127.94 C57.55 112.21, 41.03 99.95, 8.66 69.89 M78.76 120.84 C51.75 103.91, 25.16 82.28, 11.09 67.28 M74.81 125.01 C55.54 106.89, 35.74 88.3, 10.73 65.33 M79.24 118.67 C57.01 105.48, 44.06 91.77, 9.71 61.98 M78.17 121.86 C58.18 106.1, 42.41 91.02, 13.51 64.41 M80.29 117.25 C55.6 97.27, 35.82 81.75, 10.83 57.69 M80.91 116.14 C53.1 98.11, 28.47 75.2, 14.09 61.53 M82.98 111.37 C61 94.58, 36.08 76.15, 15.69 57.41 M82.39 110.82 C56.44 92.86, 32.85 69.37, 15.37 58.06 M87.06 113.51 C58.31 88.41, 35.34 66.38, 20.75 50.55 M82.25 110.5 C64.28 93.45, 42.32 76.16, 16.02 54.64 M85.97 105.27 C67.88 93.03, 42.04 74.02, 17.13 48.23 M86.4 105.77 C61.81 88.57, 42.32 68, 20.99 51.56 M85.35 99.27 C71.88 85.64, 54.95 79.98, 25.66 42.64 M88.55 104.17 C71.39 84.9, 51.86 71.03, 23.5 45.11 M90.01 98.53 C73.88 82.95, 49.45 70.69, 27.34 45.05 M88.17 98.55 C71.39 80.85, 52.07 66.34, 22.57 42.5 M95.47 91.79 C76.02 88.18, 66.95 72.25, 23.11 37.76 M93.04 95.38 C66.79 73, 45.75 52.25, 25.74 38.93 M90.9 92.9 C71.38 67.55, 40.35 47.21, 29.61 38.16 M93.19 91.13 C72.35 72.38, 47.06 56.23, 27.85 34.59 M93.71 90.72 C82.45 76.14, 61.17 59.93, 33.65 32.69 M94.45 87.2 C76.03 70.25, 54.28 52.98, 32.49 33.6 M97.19 89.19 C84.85 68.48, 66.18 59.46, 35.98 32.84 M97.18 86.99 C73.46 63.92, 48.45 44.33, 34.81 29.06 M96.1 81.35 C77.72 65.15, 57.07 46.24, 31.06 27.2 M96.74 78.89 C75.19 58.46, 49.65 39.8, 36.21 24.08 M89.86 72 C73.13 57.88, 57.53 42.9, 33.51 19.39 M89.79 67.94 C78.54 57.86, 64.65 42.59, 37.91 22.67 M80.87 54.83 C75.23 50.72, 65.72 41.38, 41.15 19.44 M83.56 58.02 C65.67 41.78, 48.85 25.01, 38.88 18.2 M81.47 49.38 C65.09 38.41, 57.92 22.65, 42.49 15.09 M77.79 45.72 C65.77 37.05, 49.51 23.3, 42.4 13.62 M69.91 36.23 C63.19 27.03, 64.05 25.58, 43.72 11.17 M71.73 36.61 C60.84 27.26, 51.01 16.83, 41.99 9.92 M68.38 23.03 C59.96 18.8, 57.5 18.38, 47.22 3.56 M65.18 24.23 C59.94 20.66, 55.49 16.8, 46.98 9 M60.52 14.46 C55.32 12.58, 51.11 6.2, 47.42 3.52 M59.37 13.4 C53.98 10.37, 52.02 8.27, 48.87 3.19 M53.28 4.06 C50.98 1.92, 50.3 0.56, 49.69 1.49 M53 3.1 C52.2 2.4, 50.8 2.23, 49.67 1.08" stroke="#3e44ac" stroke-width="0.5" fill="none"></path><path d="M52.22 0.34 C67.26 22.4, 79.27 42.74, 100.79 80.93 M50.53 0.12 C64.74 24.68, 79.49 50.81, 97.71 82.97 M97.21 83.72 C85.18 99.98, 73.66 121.84, 48.92 164.39 M97.83 83.02 C88.33 100.6, 76.21 117.6, 49.13 165.72 M53.66 162.83 C37.51 143.67, 25.85 126.02, -3.44 82.62 M48.77 166.69 C32.1 139.14, 16.34 113.96, 0.58 82.29 M-1.49 80.07 C19.23 49.63, 35.92 15.2, 46.17 0.46 M0.68 81.14 C19.2 53.02, 36.57 20.03, 49.26 0.29" stroke="#3e44ac" stroke-width="1" fill="none"></path></g></svg>