<svg version="1.1" xmlns="http://www.w3.org/2000/svg" viewBox="0 0 111 119.20313389865316" width="111" height="119.20313389865316">
  <!-- svg-source:excalidraw -->
  
  <defs>
    
    
  </defs>
  <g transform="translate(6 93.20313389865316) rotate(0 49.5 10)"><text x="0" y="0" font-family="Virgil, Segoe UI Emoji" font-size="16px" fill="#000000" text-anchor="start" style="white-space: pre;" direction="ltr" dominant-baseline="text-before-edge">Notifications</text></g><g stroke-linecap="round"><g transform="translate(71.51791704915968 70.78260869565224) rotate(0 10 -7.482555018786968)" fill-rule="evenodd"><path d="M0.35 -0.31 L19.89 -0.39 L8.99 -15.23 L-0.45 -0.8" stroke="none" stroke-width="0" fill="#868e96" fill-rule="evenodd"></path><path d="M0 0 C6.71 0.88, 14.44 -0.19, 20 0.43 M0 0 C7.35 -0.03, 14.85 0.61, 20 0.43 M20 0.43 C17.33 -4.26, 12.92 -8.68, 8.87 -15.4 M20 0.43 C17.19 -3.23, 15.33 -5.92, 8.87 -15.4 M8.87 -15.4 C5.48 -11.57, 3.55 -6.99, 0 0 M8.87 -15.4 C6.17 -10.57, 2.76 -5.29, 0 0 M0 0 C0 0, 0 0, 0 0 M0 0 C0 0, 0 0, 0 0" stroke="#000000" stroke-width="1" fill="none"></path></g></g><mask></mask><g stroke-linecap="round"><g transform="translate(43.2551589037671 52.296303848929256) rotate(0 -5.931198726472985 9.349798654957056)" fill-rule="evenodd"><path d="M-0.6 0.15 L-14.6 18.67 L2.66 18.41 L-0.74 -0.79" stroke="none" stroke-width="0" fill="#868e96" fill-rule="evenodd"></path><path d="M0 0 C-5.43 7.25, -10.56 12.94, -15.4 18.7 M0 0 C-4.01 5.67, -8.55 10.86, -15.4 18.7 M-15.4 18.7 C-9 18.87, -2.57 18.08, 3.54 18.24 M-15.4 18.7 C-10.67 18.86, -5.35 18.18, 3.54 18.24 M3.54 18.24 C3.33 12.44, 1.96 8.35, 0 0 M3.54 18.24 C2.41 13.54, 2 8.69, 0 0 M0 0 C0 0, 0 0, 0 0 M0 0 C0 0, 0 0, 0 0" stroke="#000000" stroke-width="1" fill="none"></path></g></g><mask></mask><g stroke-linecap="round" transform="translate(39.77878661437717 11.652173913043384) rotate(0 20 20)"><path d="M14.85 0.11 C18.87 -1.14, 25.34 -0.44, 29.22 1.6 C33.1 3.65, 36.45 8.37, 38.14 12.37 C39.83 16.36, 40.6 21.48, 39.35 25.57 C38.1 29.67, 34.22 34.55, 30.64 36.94 C27.05 39.34, 21.97 40.54, 17.85 39.94 C13.72 39.34, 8.93 36.48, 5.9 33.35 C2.88 30.22, -0.02 25.32, -0.29 21.19 C-0.56 17.05, 1.59 11.92, 4.29 8.53 C6.99 5.14, 13.84 2.19, 15.9 0.87 C17.96 -0.46, 16.58 0.3, 16.64 0.6 M22.9 0.78 C27.1 1.02, 32.7 3.1, 35.47 6.2 C38.24 9.3, 39.39 15.02, 39.51 19.36 C39.64 23.71, 38.68 29.02, 36.23 32.26 C33.78 35.51, 29.04 37.96, 24.8 38.83 C20.55 39.71, 14.76 39.3, 10.77 37.51 C6.77 35.71, 2.35 32, 0.8 28.07 C-0.74 24.14, 0.19 18.16, 1.49 13.94 C2.8 9.71, 5.15 5.05, 8.63 2.7 C12.1 0.36, 20.1 0.28, 22.34 -0.16 C24.58 -0.59, 22.11 -0.32, 22.05 0.1" stroke="none" stroke-width="0" fill="#868e96"></path><path d="M18.46 -0.24 C22.53 -0.83, 28.05 0.97, 31.45 3.38 C34.86 5.79, 37.8 10.06, 38.91 14.24 C40.03 18.43, 39.8 24.5, 38.13 28.47 C36.46 32.45, 32.74 36.3, 28.91 38.09 C25.07 39.87, 19.37 40.33, 15.12 39.19 C10.88 38.05, 5.94 34.68, 3.44 31.26 C0.94 27.84, -0.21 22.86, 0.12 18.65 C0.45 14.45, 2.24 9.2, 5.41 6.04 C8.58 2.88, 16.75 0.69, 19.14 -0.31 C21.53 -1.32, 19.85 -0.39, 19.74 0 M19.81 -0.02 C23.72 -0.46, 28.97 1.06, 32.14 3.63 C35.32 6.19, 37.94 11.03, 38.84 15.38 C39.75 19.73, 39.38 25.91, 37.58 29.72 C35.79 33.53, 32.1 36.56, 28.07 38.23 C24.03 39.9, 17.63 41.09, 13.38 39.74 C9.13 38.38, 4.73 33.89, 2.56 30.1 C0.39 26.3, -0.33 21.03, 0.35 16.96 C1.03 12.88, 3.51 8.4, 6.65 5.65 C9.78 2.9, 17.09 1.26, 19.17 0.48 C21.25 -0.31, 19.14 0.57, 19.13 0.94" stroke="#000000" stroke-width="1" fill="none"></path></g><g stroke-linecap="round" transform="translate(55.43096052742044 5.999999999999886) rotate(0 3.695652173913004 3.695652173912947)"><path d="M4.31 -0.01 C5.08 0.09, 6.09 0.64, 6.55 1.26 C7.02 1.88, 7.11 2.94, 7.1 3.7 C7.08 4.46, 6.85 5.19, 6.45 5.8 C6.05 6.41, 5.42 7.12, 4.69 7.34 C3.96 7.56, 2.85 7.48, 2.08 7.13 C1.31 6.78, 0.38 5.96, 0.07 5.23 C-0.24 4.49, -0.09 3.49, 0.22 2.71 C0.53 1.93, 1.32 0.97, 1.94 0.54 C2.56 0.12, 3.55 0.27, 3.94 0.17 C4.32 0.08, 4.18 -0.06, 4.24 -0.03 M3.4 0.5 C4.17 0.36, 4.89 0.66, 5.55 0.94 C6.21 1.23, 7.07 1.45, 7.37 2.23 C7.68 3.01, 7.7 4.84, 7.37 5.63 C7.04 6.42, 6.21 6.68, 5.4 6.94 C4.59 7.21, 3.35 7.32, 2.5 7.22 C1.65 7.13, 0.66 7.01, 0.27 6.36 C-0.11 5.72, 0.08 4.22, 0.18 3.35 C0.28 2.48, 0.42 1.65, 0.86 1.15 C1.3 0.65, 2.47 0.49, 2.83 0.35 C3.19 0.22, 2.92 0.3, 3.03 0.33" stroke="none" stroke-width="0" fill="#868e96"></path><path d="M3.39 -0.27 C4.13 -0.37, 5.41 0.22, 6.07 0.78 C6.72 1.34, 7.22 2.36, 7.33 3.09 C7.44 3.81, 7.09 4.41, 6.72 5.11 C6.36 5.82, 5.78 6.97, 5.15 7.33 C4.52 7.69, 3.64 7.53, 2.94 7.29 C2.23 7.05, 1.41 6.56, 0.91 5.9 C0.41 5.24, -0.13 4.11, -0.06 3.32 C0.01 2.54, 0.73 1.76, 1.32 1.2 C1.91 0.65, 3.06 0.13, 3.45 -0.02 C3.84 -0.16, 3.59 0.3, 3.65 0.34 M3.34 0.37 C3.99 0.2, 4.67 0.36, 5.29 0.66 C5.92 0.97, 6.76 1.39, 7.11 2.21 C7.46 3.03, 7.68 4.84, 7.38 5.57 C7.08 6.3, 6.12 6.32, 5.31 6.57 C4.51 6.82, 3.34 7.25, 2.53 7.07 C1.73 6.89, 0.95 6.15, 0.48 5.49 C0.01 4.84, -0.42 3.88, -0.31 3.13 C-0.2 2.38, 0.61 1.44, 1.15 0.99 C1.69 0.54, 2.65 0.54, 2.93 0.44 C3.21 0.34, 2.83 0.36, 2.83 0.38" stroke="#000000" stroke-width="1" fill="none"></path></g><g stroke-linecap="round" transform="translate(57.17009096220295 69.0434782608695) rotate(0 3.695652173913004 3.695652173912947)"><path d="M2.83 -0.19 C3.56 -0.31, 4.93 0.35, 5.64 0.75 C6.35 1.15, 6.87 1.55, 7.11 2.21 C7.35 2.87, 7.38 3.95, 7.08 4.71 C6.79 5.48, 6.01 6.34, 5.32 6.8 C4.63 7.25, 3.69 7.63, 2.95 7.45 C2.22 7.26, 1.38 6.4, 0.92 5.71 C0.46 5.03, 0.22 4.13, 0.21 3.35 C0.19 2.57, 0.33 1.64, 0.82 1.05 C1.31 0.45, 2.78 -0.01, 3.13 -0.22 C3.48 -0.43, 2.93 -0.28, 2.92 -0.22 M3.02 0.2 C3.72 0.03, 4.85 0.27, 5.59 0.73 C6.33 1.19, 7.25 2.21, 7.46 2.97 C7.67 3.72, 7.31 4.56, 6.86 5.25 C6.42 5.95, 5.48 6.83, 4.8 7.13 C4.12 7.42, 3.53 7.24, 2.77 7.02 C2.01 6.81, 0.73 6.49, 0.24 5.87 C-0.25 5.24, -0.26 4.01, -0.17 3.28 C-0.09 2.55, 0.14 2.04, 0.73 1.47 C1.32 0.91, 2.98 0.08, 3.37 -0.13 C3.75 -0.34, 3.01 0.16, 3.02 0.2" stroke="none" stroke-width="0" fill="#868e96"></path><path d="M4.27 0.32 C4.98 0.36, 5.61 0.44, 6.17 1.01 C6.73 1.58, 7.61 2.95, 7.63 3.75 C7.65 4.54, 6.85 5.17, 6.3 5.78 C5.74 6.4, 4.99 7.21, 4.3 7.44 C3.62 7.67, 2.93 7.57, 2.2 7.18 C1.48 6.8, 0.23 5.86, -0.05 5.14 C-0.33 4.42, 0.24 3.58, 0.51 2.87 C0.78 2.15, 0.93 1.36, 1.58 0.86 C2.23 0.35, 3.91 -0.1, 4.42 -0.19 C4.92 -0.28, 4.66 0.23, 4.61 0.33 M3.28 0.01 C3.92 -0.21, 4.69 0, 5.4 0.48 C6.11 0.97, 7.21 2.09, 7.56 2.93 C7.92 3.77, 7.94 4.79, 7.52 5.53 C7.11 6.27, 5.86 7.1, 5.05 7.36 C4.24 7.63, 3.32 7.39, 2.68 7.09 C2.04 6.8, 1.66 6.25, 1.19 5.61 C0.71 4.97, -0.09 4.06, -0.16 3.26 C-0.24 2.45, 0.13 1.33, 0.73 0.77 C1.33 0.21, 2.96 0.09, 3.44 -0.1 C3.92 -0.3, 3.58 -0.44, 3.59 -0.38" stroke="#000000" stroke-width="1" fill="none"></path></g><g stroke-linecap="round" transform="translate(39.77878661437717 34.26086956521726) rotate(0 20 18.260869565217433)"><path d="M-0.5 -0.52 L40.15 0.72 L40.86 36.28 L0.38 35.73" stroke="none" stroke-width="0" fill="#868e96"></path><path d="M0 0 C9.3 -0.07, 18.59 -0.82, 40 0 M0 0 C12.7 -0.16, 24.16 0.2, 40 0 M40 0 C39.83 10.76, 39.2 23.57, 40 36.52 M40 0 C40.5 11.88, 39.74 23.79, 40 36.52 M40 36.52 C23.79 36.37, 7.97 37.46, 0 36.52 M40 36.52 C26.64 35.99, 13.59 36.18, 0 36.52 M0 36.52 C-0.75 23.39, -0.09 11.55, 0 0 M0 36.52 C0.13 28.55, -0.25 20.21, 0 0" stroke="#000000" stroke-width="1" fill="none"></path></g><g stroke-linecap="round" transform="translate(38.529857406603696 56.699584360623135) rotate(40.28644796306108 2.8395061728393785 4.629629629629619)"><path d="M0 0 L5.68 0 L5.68 9.26 L0 9.26" stroke="none" stroke-width="0" fill="#868e96"></path><path d="M0 0 C1.9 0, 3.8 0, 5.68 0 M0 0 C2.21 0, 4.43 0, 5.68 0 M5.68 0 C5.68 3.38, 5.68 6.76, 5.68 9.26 M5.68 0 C5.68 2, 5.68 3.99, 5.68 9.26 M5.68 9.26 C4.37 9.26, 3.06 9.26, 0 9.26 M5.68 9.26 C3.54 9.26, 1.4 9.26, 0 9.26 M0 9.26 C0 5.57, 0 1.89, 0 0 M0 9.26 C0 6.97, 0 4.68, 0 0" stroke="#868e96" stroke-width="1" fill="none"></path></g><g stroke-linecap="round" transform="translate(40.32985740660342 61.49958436062332) rotate(89.99999999999994 2.8395061728393785 4.629629629629619)"><path d="M0 0 L5.68 0 L5.68 9.26 L0 9.26" stroke="none" stroke-width="0" fill="#868e96"></path><path d="M0 0 C1.63 0, 3.27 0, 5.68 0 M0 0 C2.07 0, 4.14 0, 5.68 0 M5.68 0 C5.68 2.92, 5.68 5.84, 5.68 9.26 M5.68 0 C5.68 2, 5.68 4, 5.68 9.26 M5.68 9.26 C3.65 9.26, 1.63 9.26, 0 9.26 M5.68 9.26 C3.81 9.26, 1.95 9.26, 0 9.26 M0 9.26 C0 6.1, 0 2.95, 0 0 M0 9.26 C0 6.3, 0 3.33, 0 0" stroke="#868e96" stroke-width="1" fill="none"></path></g><g stroke-linecap="round" transform="translate(56.71874629549211 16.036621397660383) rotate(89.99999999999994 2.4691358024689407 18.240740740740648)"><path d="M0 0 L4.94 0 L4.94 36.48 L0 36.48" stroke="none" stroke-width="0" fill="#868e96"></path><path d="M0 0 C1.94 0, 3.88 0, 4.94 0 M0 0 C1.33 0, 2.66 0, 4.94 0 M4.94 0 C4.94 10.23, 4.94 20.47, 4.94 36.48 M4.94 0 C4.94 10.1, 4.94 20.2, 4.94 36.48 M4.94 36.48 C2.96 36.48, 0.99 36.48, 0 36.48 M4.94 36.48 C3.16 36.48, 1.39 36.48, 0 36.48 M0 36.48 C0 28.97, 0 21.47, 0 0 M0 36.48 C0 27.52, 0 18.55, 0 0" stroke="#868e96" stroke-width="1" fill="none"></path></g><g stroke-linecap="round" transform="translate(76.31380802388753 54.9057572001293) rotate(318.1672250384163 2.037037037036953 4.999999999999886)"><path d="M0 0 L4.07 0 L4.07 10 L0 10" stroke="none" stroke-width="0" fill="#868e96"></path><path d="M0 0 C1.06 0, 2.13 0, 4.07 0 M0 0 C1.23 0, 2.46 0, 4.07 0 M4.07 0 C4.07 2.48, 4.07 4.97, 4.07 10 M4.07 0 C4.07 3.81, 4.07 7.63, 4.07 10 M4.07 10 C3.13 10, 2.18 10, 0 10 M4.07 10 C2.51 10, 0.95 10, 0 10 M0 10 C0 6.9, 0 3.81, 0 0 M0 10 C0 7.88, 0 5.76, 0 0" stroke="#868e96" stroke-width="1" fill="none"></path></g><g stroke-linecap="round" transform="translate(73.91380802388744 61.9057572001293) rotate(270 2.037037037036953 4.999999999999886)"><path d="M0 0 L4.07 0 L4.07 10 L0 10" stroke="none" stroke-width="0" fill="#868e96"></path><path d="M0 0 C1.53 0, 3.06 0, 4.07 0 M0 0 C1.43 0, 2.86 0, 4.07 0 M4.07 0 C4.07 3.73, 4.07 7.46, 4.07 10 M4.07 0 C4.07 2.29, 4.07 4.59, 4.07 10 M4.07 10 C3.2 10, 2.32 10, 0 10 M4.07 10 C2.49 10, 0.9 10, 0 10 M0 10 C0 6.45, 0 2.91, 0 0 M0 10 C0 7.81, 0 5.62, 0 0" stroke="#868e96" stroke-width="1" fill="none"></path></g></svg>