<svg xmlns="http://www.w3.org/2000/svg" viewBox="4624.32 27.37 558.17 385.58" width="558" height="386"><polyline points="4769.41,171.09 4911.42,171.15 4916.97,170.93 4921.54,170.19 4927.05,169.26 4931.88,167.98 4936.86,166.19 4940.73,164.20 4937.65,159.32 4935.72,155.30 4933.89,149.60 4932.67,143.70 4931.85,135.74 4932.17,128.30 4932.94,122.09 4934.62,114.98 4936.60,109.59 4939.06,103.92 4941.99,98.46 4944.92,93.54 4948.17,89.22 4954.75,93.12 4958.88,96.10 4963.80,100.39 4967.87,104.16 4970.96,108.33 4974.62,113.88 4976.97,117.96 4978.96,122.14 4981.10,127.06 4982.46,131.77 4982.53,136.25 4989.51,135.20 4998.69,134.49 5007.80,134.86 5017.05,136.19 5024.26,138.61 5030.08,141.36 5034.10,144.00 5037.41,146.52 5035.91,151.53 5033.66,156.48 5029.57,162.93 5024.64,168.08 5020.08,172.20 5015.19,176.27 5009.30,179.77 5000.95,182.76 4995.39,184.35 4989.73,185.51 4984.51,186.28 4980.71,186.33 4977.42,186.00 4974.50,185.67 4970.15,197.74 4959.34,219.31 4947.97,238.96 4939.09,251.89 4927.14,265.24 4914.44,277.23 4899.87,288.95 4883.53,298.83 4869.28,306.10 4851.52,313.00 4832.99,317.82 4815.58,321.44 4800.93,323.94 4766.43,325.08 4742.93,323.77 4733.10,322.04 4721.07,319.82 4708.46,316.87 4697.08,312.91 4687.94,308.69 4678.49,303.30 4668.29,294.55 4660.11,286.02 4653.90,276.40 4649.92,270.07 4646.66,263.36 4644.08,257.94 4641.66,251.33 4639.69,245.60 4637.78,239.51 4636.13,233.36 4634.53,226.39 4632.73,216.64 4631.90,210.91 4631.52,205.82 4630.74,197.82 4630.32,189.95 4630.38,184.41 4630.99,179.78 4633.21,176.05 4635.50,173.69 4638.55,171.68 4642.32,171.25 4646.74,171.19 4707.28,171.22 4769.41,171.09" fill="none" stroke="#0091e2" stroke-width="2" opacity="1.0" stroke-linecap="round" stroke-linejoin="round"/><rect x="4664.30" y="125.27" width="41.94" height="38.22" rx="8" stroke="#0091e2" stroke-width="2" opacity="1.0" fill="none"/><rect x="4714.24" y="125.27" width="41.94" height="38.22" rx="8" stroke="#0091e2" stroke-width="2" opacity="1.0" fill="none"/><rect x="4764.19" y="125.27" width="41.94" height="38.22" rx="8" stroke="#0091e2" stroke-width="2" opacity="1.0" fill="none"/><rect x="4814.14" y="125.27" width="41.94" height="38.22" rx="8" stroke="#0091e2" stroke-width="2" opacity="1.0" fill="none"/><rect x="4864.09" y="125.27" width="41.94" height="38.22" rx="8" stroke="#0091e2" stroke-width="2" opacity="1.0" fill="none"/><rect x="4714.27" y="79.92" width="41.94" height="38.22" rx="8" stroke="#0091e2" stroke-width="2" opacity="1.0" fill="none"/><rect x="4764.54" y="79.28" width="41.94" height="38.22" rx="8" stroke="#0091e2" stroke-width="2" opacity="1.0" fill="none"/><rect x="4813.95" y="79.17" width="41.94" height="38.22" rx="8" stroke="#0091e2" stroke-width="2" opacity="1.0" fill="none"/><rect x="4813.93" y="33.37" width="41.94" height="38.22" rx="8" stroke="#0091e2" stroke-width="2" opacity="1.0" fill="none"/></svg>