<svg version="1.1" xmlns="http://www.w3.org/2000/svg" viewBox="0 0 93.04460524781621 112.52562929324932" width="93.04460524781621" height="112.52562929324932">
  <!-- svg-source:excalidraw -->
  
  <defs>
    
    
  </defs>
  <g transform="translate(7.044605247816207 81.52562929324932) rotate(0 40 12.5)"><text x="0" y="0" font-family="Virgil, Segoe UI Emoji" font-size="20px" fill="#000000" text-anchor="start" style="white-space: pre;" direction="ltr" dominant-baseline="text-before-edge">Payment</text></g><g stroke-linecap="round" transform="translate(6 6) rotate(0 39.821428571428555 25.00000000000003)"><path d="M1.1 -1.72 L78.15 0.5 L77.65 49.67 L1.73 49.1" stroke="none" stroke-width="0" fill="white"></path><path d="M0 0 C17.83 -0.28, 32.26 -1.05, 79.64 0 M0 0 C20.55 0.4, 42.48 0.1, 79.64 0 M79.64 0 C80.49 21.14, 78.99 40.96, 79.64 50 M79.64 0 C78.67 9.42, 78.43 19.55, 79.64 50 M79.64 50 C59.17 48.87, 34.37 49.74, 0 50 M79.64 50 C58.99 49.4, 39.01 50.13, 0 50 M0 50 C-1.86 33.17, 0.1 17.96, 0 0 M0 50 C-0.32 31.6, -0.15 13.62, 0 0" stroke="#000000" stroke-width="1" fill="none"></path></g><g stroke-linecap="round" transform="translate(6.35714285714289 13.85714285714289) rotate(0 38.928571428571445 3.75)"><path d="M-0.88 -0.47 L78.43 -0.78 L77.79 8.16 L-0.05 6.87" stroke="none" stroke-width="0" fill="#868e96"></path><path d="M0 0 C26.12 -0.56, 50.72 0.59, 77.86 0 M0 0 C17.39 0.4, 35.03 0.31, 77.86 0 M77.86 0 C77.61 1.86, 77.87 3.43, 77.86 7.5 M77.86 0 C77.95 2.68, 77.72 5.49, 77.86 7.5 M77.86 7.5 C57.17 7.51, 36.35 7.78, 0 7.5 M77.86 7.5 C54.49 7.38, 31.49 8.06, 0 7.5 M0 7.5 C-0.03 5.53, 0.04 4.01, 0 0 M0 7.5 C-0.06 4.9, 0.08 2.18, 0 0" stroke="#000000" stroke-width="1" fill="none"></path></g></svg>