<svg version="1.1" xmlns="http://www.w3.org/2000/svg" viewBox="0 0 303.8085256825534 361.8560408075673" width="303.8085256825534" height="361.8560408075673">
  <!-- svg-source:excalidraw -->
  
  <defs>
    
    
  </defs>
  <g stroke-linecap="round"><g transform="translate(104.14647578177483 43.49589225759928) rotate(0 46.65423397791983 139.38758236514514)" fill-rule="evenodd"><path d="M-75.99 55.85 C-75.99 55.85, -75.99 55.85, -75.99 55.85 M-75.99 55.85 C-75.99 55.85, -75.99 55.85, -75.99 55.85 M-87.7 81.83 C-72.45 68.06, -56.32 43.56, -41.18 27.57 M-88.78 84.2 C-69.08 63.95, -51.33 41.29, -39.5 26.07 M-88.99 97.76 C-59.2 67.77, -32.17 28.36, -16.04 9.33 M-91.48 98.7 C-72.69 75.08, -51.8 53.37, -17.68 10.39 M-93.4 112.83 C-70.3 80.74, -42.9 51.43, 10.59 -4.35 M-90.96 110.07 C-72.45 85.37, -48.08 58.24, 10.04 -3.26 M-90 120.69 C-49.1 67.42, 0.93 14.95, 30.03 -17 M-89.65 121.69 C-67.84 90.16, -43.45 63.62, 31.08 -16.84 M-92.22 130.85 C-44.41 75.33, 6.78 19.65, 49.96 -24.67 M-90.24 134.02 C-57.18 96.25, -26.13 58.34, 49.01 -28.91 M-85.41 145.36 C-51.78 105.07, -18.67 65.39, 66.23 -31.83 M-86.8 142.25 C-45.08 96.9, -3.99 48.59, 63.97 -33.02 M-81.91 153.5 C-50.89 112.99, -13.76 75.03, 75.3 -32.69 M-86.18 152.16 C-31.41 84.9, 20.68 21.71, 75.16 -32.19 M-87.75 164.55 C-41.27 118.34, 0.7 74.09, 90.07 -33.61 M-84.06 164.03 C-40.34 115.07, 2.24 64.79, 88.55 -35.74 M-91.7 187.27 C-39.97 118.77, 19.9 56.53, 96.67 -32.1 M-94.39 186.62 C-25.47 108.45, 41.92 32.26, 95.69 -31.37 M-92.24 199.48 C-32.74 126.41, 28.96 54.78, 105.95 -30.45 M-94.32 198.26 C-23.23 119.6, 46.71 39.64, 105.94 -30.41 M-96.92 212.55 C-30.42 129.83, 38.52 52.26, 114.84 -31.47 M-96.21 214.09 C-26.68 125.29, 45.79 43.1, 114.01 -30.38 M-92.55 223.55 C-43.44 155.38, 12.37 95.09, 123.3 -25.41 M-94.98 222.97 C-22.09 145.3, 46.5 64.43, 122.92 -25.97 M-90.04 230.92 C-22.74 153.4, 48.57 74.53, 130.32 -23.21 M-93.72 234 C-11.91 132.12, 73.75 34.06, 130.51 -23.6 M-90.15 244.91 C-43.76 187.54, 4.62 131.14, 135.17 -18.24 M-90.13 244.57 C-5.26 145.43, 82.89 45.06, 136.95 -19.65 M-86.88 254.2 C-3.38 154.09, 84.12 57.17, 146.65 -16.26 M-86.61 253 C-34.61 193.06, 16.64 132.94, 145.33 -15.44 M-84.3 260.67 C-25.48 195.8, 33.81 129.75, 151.28 -11.81 M-84.17 259.84 C-17.89 188.38, 45.24 113.19, 151.14 -9.32 M-79.59 268.5 C-24.94 204.01, 26.61 141.9, 158.78 -7.11 M-78.22 265.48 C-20 198.22, 37.9 131.56, 158.44 -6.11 M-71.96 273.89 C14.86 174.3, 104.78 71.91, 162.88 -2.35 M-73.27 273.81 C-30.82 217.89, 17.59 164.12, 164.41 0.12 M-68.76 277.47 C21.31 176.47, 115.03 69.67, 169.99 7.66 M-68.19 279.41 C-1.33 198.24, 67.62 122.04, 169.51 5.47 M-62.15 282.59 C7.44 203.22, 76.28 124.66, 173.46 14.86 M-64.05 284.99 C3.77 199.49, 76.2 119.76, 172.34 13.06 M-56.79 289.05 C24.4 196.42, 106.71 104.31, 178.22 19.9 M-55.8 290.08 C-7.72 231.85, 41.36 176.38, 178.52 21.16 M-47.54 291.85 C16.78 217.7, 87.88 137.6, 183.21 31.03 M-48.81 293.79 C30.29 199.76, 113.85 106.15, 180.96 29.51 M-45.05 298.34 C35.1 211.45, 113.49 123.48, 181.88 38.94 M-43.17 299.29 C37.75 203.63, 118.29 112.47, 185.28 36.05 M-36.92 300.53 C41.59 209.23, 120.86 120.73, 189.65 47.62 M-36.69 303.01 C27.89 227.62, 95.14 148.92, 188.61 45.04 M-28.42 307.4 C24.94 244.49, 75.25 185.76, 191.15 55.68 M-28.87 306.01 C32.69 238.98, 92.17 170.42, 188.51 54.78 M-21.14 308.13 C66.78 217.97, 144.66 120.51, 192.65 67.82 M-18.26 308.09 C43.07 230.65, 109.21 155.27, 191.86 66.41 M-10.34 308.96 C39.11 259.71, 82.16 208.81, 188.27 82.26 M-10.91 309.83 C65.56 222.55, 144.04 133.45, 190.33 81.02 M1.04 310.22 C45.27 258.89, 87.74 208.84, 187.8 96.94 M-1.79 309.68 C59.07 241.61, 120 172.21, 188.2 95.01 M11.08 310.06 C62.54 242.98, 123.73 174.51, 176.36 118.59 M9.97 311.62 C67.73 248.17, 125.58 181.75, 176.08 119.56 M22.14 307.48 C68.83 252.27, 119.65 193.76, 182.23 126.11 M22.52 308.48 C69.85 260, 112.92 208.14, 178.81 128.89 M31.6 310.05 C89.06 252.7, 136.84 190.29, 183.66 138.8 M34.48 308.08 C70.04 262.6, 108.94 217.76, 183.4 138.72 M52.15 299.31 C85.34 262.03, 122.22 218.52, 181.38 149.35 M47.9 301.79 C87.93 251.39, 130.19 205.79, 182.44 146.95 M63.84 294.76 C111.91 239.82, 163.89 188.84, 188.07 160.17 M66.91 293.47 C99.52 258.97, 130.57 224.12, 184.92 158.77 M86.23 276.41 C103.95 253.08, 127.56 230.76, 186.26 168.44 M90.06 281.27 C125.78 241.09, 160.69 195.58, 184.72 168.08 M109.91 265.04 C129.68 246.24, 144.27 231.5, 181.63 183.74 M111.08 266.95 C140.71 234.82, 168.79 202.41, 185.42 182.96 M134.13 252.19 C143.47 237.84, 159.72 227.33, 181.81 204.42 M134.44 250.19 C150.73 234.37, 168 214.71, 179.33 199.8 M-54.77 291.65 C-54.77 291.65, -54.77 291.65, -54.77 291.65 M-54.77 291.65 C-54.77 291.65, -54.77 291.65, -54.77 291.65 M-31.01 297.07 C-45.81 287.01, -62.67 277.1, -76.03 258.7 M-34.56 301.25 C-49.36 285.07, -63.75 271.79, -79.75 261.4 M-12.17 304.14 C-39.11 284.53, -59.1 270.75, -89.51 243.09 M-11.95 306.85 C-29.13 292.18, -46.47 276.61, -86.96 244.78 M2.85 308.01 C-17.69 292.39, -32.92 275.04, -85.25 231.11 M-0.94 307.88 C-25.71 287.5, -52.17 262.81, -86.44 232.65 M13.96 310.44 C-20.96 284.77, -47.47 258.33, -90.69 217.94 M10.77 307.25 C-23.54 277.23, -59.33 246.47, -90.98 217.29 M23.07 302.69 C-20.99 267.5, -65.7 223.78, -93.91 205.41 M20.07 304.27 C-7.92 279.16, -37.55 253.86, -91.73 207.81 M34.61 301.15 C-17.21 262.92, -65.88 216.52, -94.29 194.11 M33.17 305.04 C-11.41 265.55, -57.49 229.85, -90.61 195.08 M45.23 298.66 C18.88 276.67, -9.62 253.59, -88.17 185.01 M41.47 302.58 C-11.17 258.61, -61.96 215.42, -89.88 188.14 M47.38 302.74 C16.36 259.22, -22.73 231.52, -89.16 176.11 M53.36 297.91 C0.03 253.02, -51.21 208.99, -90.17 175.67 M61.23 296.89 C24.91 266.16, -8.02 231.42, -89.53 171.19 M60.3 294.15 C19.05 258.59, -23.29 222.74, -87.75 169.56 M64.79 293.51 C15.94 248.92, -29.2 205.38, -79.9 164.16 M67.12 292.21 C30.5 254.34, -9.87 221.88, -84.01 162.07 M72.93 287.36 C31.74 247.44, -15.09 206.98, -76.6 152.43 M73.24 288.93 C21.17 243.26, -32.09 197.43, -80.19 153.83 M82.61 283.45 C20.21 226.18, -45.05 167.99, -88.66 139.53 M82.27 284.53 C33.33 240.25, -15.66 197.66, -84.92 138.31 M86.24 278.01 C38.98 241.93, -4.62 197.95, -85.53 125.35 M88.51 279.15 C47.85 245.05, 8.86 208.7, -86.39 124.42 M98.06 276.27 C53.76 242.47, 16.16 203.77, -92.39 109.55 M95.17 274.97 C33.59 221.13, -27.89 166.63, -92.4 111.12 M101.06 267.41 C56.01 225.54, 5.8 187.03, -92.66 102.54 M102.96 268.83 C32.03 202.69, -43.52 138.14, -91.41 102.02 M112.33 265.47 C58.11 216.61, 8.27 170.45, -92.99 94.13 M109.45 265.91 C31.18 198.2, -43.71 129.31, -91.2 90.99 M118.71 259.4 C74.96 222.6, 33.81 185.71, -86.98 82.64 M118.24 259.8 C50.07 200.38, -15.81 143.65, -86.04 83.2 M127.1 259.26 C69.26 206.57, 14.09 154.44, -84 74.21 M125.09 255.24 C70.82 209.97, 16.06 162.28, -83.8 76.42 M133.01 253.6 C60.15 186.96, -17.13 116.58, -80.42 68.45 M129.62 251.2 C49.53 177.44, -33.45 105.64, -83.35 65.04 M136.44 245.89 C84.04 198.38, 22.3 143.49, -77.8 60.57 M138.27 248.23 C61.07 183.77, -10.97 119.61, -78.7 60.63 M142.9 245.5 C76.88 181.6, -0.97 115.42, -73.55 54.04 M146.09 243.9 C72.01 178.12, -0.57 114.75, -74.03 51.88 M149.81 236.39 C101.23 195.89, 52.1 154.16, -65.78 49.74 M150.57 239.49 C106.78 202.16, 61.13 161.38, -68.42 46.12 M160.76 230.5 C113.59 193.72, 64.26 151.06, -63.04 39.02 M158.31 233.79 C86.69 170.22, 15.19 106.2, -62.68 40.21 M166.74 225.69 C93.11 160.52, 15.84 97.08, -57.38 37.24 M163.36 228.25 C83.57 158.56, 5 90.36, -57.73 36.76 M166.86 222.93 C84.53 147.5, -3.25 69.67, -49.28 31.45 M169.72 220.73 C120.16 180.23, 68.78 134.63, -49.37 29.84 M171.36 212.25 C103.92 154.37, 32.29 89.5, -45.43 25.95 M173.46 214.68 C93.52 148.4, 16.75 78.68, -42.42 27.25 M177.58 204.65 C132.73 170.97, 88.75 134.78, -34.72 19.81 M176.16 206.42 C124.95 159.94, 69.13 111.35, -35.73 21.02 M183.2 199.51 C130.05 153.8, 79.55 110.77, -29.25 15.97 M180.62 199.91 C124.48 146.41, 65.57 94.49, -28.1 18.3 M182.37 194.33 C118.69 135.14, 52.31 83.05, -20.21 12.68 M182.43 189.87 C118.61 134.85, 54.67 81.16, -22.79 13.64 M189.58 184.39 C104.98 115.37, 30.26 47.41, -14.88 10.54 M187.64 182.2 C136.87 142.21, 90.05 98.19, -13.68 8.88 M187.54 176.21 C121.05 111.67, 48.24 44.13, -10.42 3.56 M187.25 173.8 C131.35 127.58, 77.44 81.99, -8.48 3.58 M186.54 166.75 C121.89 107.45, 56.25 50.75, -3.17 -3.59 M188.67 165.06 C139.48 118.82, 89.01 76.71, -2.19 0.25 M184.13 154.53 C128.71 104.86, 72.59 54.81, 5.97 -4.56 M186.31 152.97 C126.83 101.03, 67.66 51.7, 5.29 -6.24 M186.1 137.16 C131.83 97.22, 86.4 56.8, 14.47 -7.23 M182.49 137.18 C148.04 105.1, 109.81 73.2, 13.97 -10.99 M184.95 125.08 C138.25 85.52, 90.16 43.84, 18.8 -17.17 M181.88 127.96 C117.27 72.82, 56.56 18.16, 17.84 -15.5 M184.23 114.95 C125.18 69.18, 67.28 20.38, 25.81 -17.93 M182.06 114.65 C133.59 77.9, 86.31 35.23, 28.24 -19.22 M183.42 108.81 C128.48 61.03, 79.57 13.09, 37.67 -26.21 M183.89 106.57 C139.53 70.7, 97.52 34.1, 33.96 -22.82 M190 100.47 C145.52 62.25, 103.2 28.92, 44.48 -23.8 M185.36 98.31 C140.82 58.18, 91.98 18.53, 43.92 -24.55 M190.12 93.08 C143.57 53.3, 97.26 14.83, 50.88 -27.35 M189.6 89.72 C158.23 58.76, 123.72 29.32, 49.63 -30.56 M191.11 82.43 C162.86 57.52, 132.2 29.69, 56.38 -36.56 M192.28 80.68 C153.89 49.59, 117.8 17.92, 57.98 -33.35 M195.78 71.64 C156.81 37.86, 110.94 7.18, 66.84 -36.01 M193.95 70.47 C154.75 37.77, 111.62 1.69, 71.26 -34.79 M194.72 59.45 C156.71 31.49, 115.07 -1.99, 83.02 -35.54 M192.47 60.9 C160.73 31.96, 122.62 1.63, 81.93 -33.82 M192.5 51.54 C162.84 27.16, 137.46 -2.43, 92.01 -36.85 M191.42 48.48 C170.19 31.21, 148.02 14.51, 88.16 -38.2 M192.55 39.3 C166.05 19.63, 138.29 -7.04, 101.68 -38.93 M193.13 42 C160.8 14.69, 127.45 -16.45, 106.53 -37.1 M182.86 22.95 C161.6 5.99, 137.79 -16.4, 125.13 -31.55 M186.64 22.4 C170.92 14.67, 160.6 3.15, 124.64 -31.79" stroke="#f73c00" stroke-width="1" fill="none"></path><path d="M2.14 -1.85 C-9.08 5.38, -52.48 29.22, -67.97 43.99 C-83.46 58.76, -86.83 71.83, -90.79 86.79 C-94.75 101.75, -92.78 122.55, -91.72 133.75 C-90.67 144.94, -86.29 150.01, -84.48 153.98 C-82.68 157.94, -80.93 156.49, -80.89 157.53 C-80.85 158.57, -82.31 156.37, -84.24 160.22 C-86.17 164.07, -90.14 172.09, -92.45 180.63 C-94.75 189.17, -98.66 200.25, -98.09 211.48 C-97.52 222.7, -93.61 236.47, -89.05 247.98 C-84.48 259.5, -79.65 271.68, -70.68 280.55 C-61.71 289.42, -48.02 295.91, -35.2 301.21 C-22.39 306.51, -8.49 312.3, 6.21 312.36 C20.92 312.42, 36.05 308.75, 53.02 301.58 C69.99 294.41, 89.94 281.87, 108.03 269.34 C126.12 256.8, 148.39 241.66, 161.57 226.37 C174.76 211.08, 183.76 192.69, 187.14 177.58 C190.51 162.48, 183.69 144.89, 181.83 135.72 C179.96 126.55, 177.3 125.05, 175.95 122.57 C174.59 120.1, 172.82 122.84, 173.72 120.88 C174.62 118.93, 178.72 118.05, 181.34 110.84 C183.95 103.63, 187.81 88.66, 189.41 77.63 C191.02 66.6, 193.5 55.08, 190.95 44.68 C188.41 34.27, 180.73 24.84, 174.12 15.21 C167.5 5.59, 161.36 -5.28, 151.26 -13.1 C141.16 -20.91, 129.16 -28.05, 113.53 -31.7 C97.91 -35.35, 76.51 -40.69, 57.49 -35.02 C38.47 -29.35, 8.87 -3.84, -0.58 2.32 M-0.14 3.32 C-11.8 10.86, -55.51 32.56, -70.92 46.88 C-86.33 61.19, -89.13 74.28, -92.6 89.21 C-96.06 104.14, -92.48 125.4, -91.7 136.43 C-90.91 147.46, -88.95 152.21, -87.89 155.38 C-86.83 158.54, -84.98 153.91, -85.35 155.42 C-85.71 156.93, -88.62 160.38, -90.09 164.44 C-91.56 168.5, -93.49 171.11, -94.15 179.78 C-94.82 188.44, -95.31 205.29, -94.1 216.42 C-92.88 227.55, -90.76 236.77, -86.86 246.55 C-82.96 256.33, -78.87 266.23, -70.69 275.08 C-62.52 283.93, -50.54 293.65, -37.82 299.63 C-25.1 305.62, -9.34 310.71, 5.63 310.99 C20.6 311.27, 34.91 308.26, 52 301.32 C69.1 294.39, 89.76 281.54, 108.19 269.39 C126.63 257.24, 149.85 243.45, 162.63 228.42 C175.41 213.39, 182.15 194.47, 184.88 179.2 C187.61 163.92, 181.05 146.06, 179.02 136.77 C177 127.48, 173.66 126.68, 172.71 123.45 C171.77 120.22, 172.44 119.82, 173.36 117.41 C174.28 114.99, 175.52 114.87, 178.25 108.96 C180.98 103.05, 187.37 91.78, 189.71 81.93 C192.05 72.09, 195.65 61.17, 192.3 49.89 C188.95 38.6, 177.09 24.72, 169.61 14.24 C162.13 3.75, 157.54 -5.27, 147.41 -13.03 C137.28 -20.8, 123.33 -29.74, 108.82 -32.37 C94.32 -34.99, 78.14 -34.13, 60.4 -28.77 C42.66 -23.42, 12.23 -4.72, 2.39 -0.25" stroke="#f73c00" stroke-width="2" fill="none"></path></g></g><mask></mask><g stroke-linecap="round"><g transform="translate(170.7629412299002 100.96196496061475) rotate(0 -20.452401919289514 80.92156621134518)" fill-rule="evenodd"><path d="M2.56 3.29 C-6.02 8.3, -35.51 25.16, -48.83 33.33 C-62.15 41.5, -73.17 47.2, -77.36 52.31 C-81.54 57.42, -78.95 60.31, -73.94 63.99 C-68.94 67.66, -59.01 76.56, -47.33 74.35 C-35.64 72.13, -17.76 55.76, -3.84 50.68 C10.08 45.6, 24.29 40.84, 36.21 43.86 C48.13 46.87, 60.63 57.9, 67.68 68.75 C74.73 79.61, 78.84 96.26, 78.48 109 C78.13 121.74, 75.3 134.37, 65.56 145.19 C55.82 156.01, 38.24 162.87, 20.02 173.92 C1.81 184.96, -26.28 206.23, -43.75 211.45 C-61.21 216.67, -72.22 210.52, -84.76 205.23 C-97.3 199.94, -112.32 187.97, -118.98 179.71 C-125.64 171.44, -124.31 163.25, -124.73 155.64 C-125.15 148.04, -122.19 137.93, -121.5 134.07 C-120.8 130.21, -123.44 131.35, -120.55 132.48 C-117.67 133.6, -110.75 138.13, -104.17 140.83 C-97.59 143.53, -84.38 146.53, -81.07 148.69 C-77.76 150.85, -84 150.66, -84.31 153.8 C-84.62 156.95, -85.08 165.07, -82.94 167.57 C-80.79 170.07, -76.18 168.68, -71.46 168.81 C-66.75 168.95, -64.63 172.23, -54.63 168.37 C-44.64 164.52, -26.47 153.93, -11.49 145.69 C3.5 137.44, 27.73 127.97, 35.29 118.9 C42.85 109.83, 38.06 96.53, 33.88 91.27 C29.69 86, 23.34 83.28, 10.19 87.31 C-2.96 91.35, -29.68 110.92, -45.03 115.49 C-60.38 120.05, -70.64 119.14, -81.93 114.71 C-93.22 110.29, -105.89 99.72, -112.8 88.93 C-119.7 78.14, -125.25 61.27, -123.36 50 C-121.47 38.72, -113.11 33.07, -101.45 21.28 C-89.79 9.49, -70.3 -8.26, -53.4 -20.74 C-36.49 -33.22, -16.95 -49.4, 0.01 -53.59 C16.97 -57.77, 35.3 -51.77, 48.39 -45.86 C61.47 -39.94, 72.23 -27.1, 78.5 -18.1 C84.77 -9.09, 86.28 0.52, 86.01 8.17 C85.74 15.82, 78.78 24.33, 76.89 27.81 C75 31.29, 77.69 30.69, 74.67 29.06 C71.66 27.42, 64.4 20.04, 58.79 18 C53.18 15.96, 44.68 17.7, 41.02 16.81 C37.35 15.92, 36.53 14.72, 36.79 12.64 C37.05 10.56, 42.13 6.51, 42.59 4.31 C43.04 2.12, 42.73 1.52, 39.55 -0.52 C36.36 -2.56, 30.23 -7.62, 23.47 -7.93 C16.72 -8.25, 3.28 -3.23, -0.97 -2.42" stroke="none" stroke-width="0" fill="#ffff" fill-rule="evenodd"></path><path d="M-1.31 -1.37 C-9.42 3.71, -34.34 20.26, -46.52 28.61 C-58.71 36.95, -69.92 42.03, -74.4 48.69 C-78.89 55.36, -77.74 64.15, -73.42 68.59 C-69.1 73.02, -59.91 79.01, -48.46 75.28 C-37.02 71.56, -18.9 50.77, -4.72 46.23 C9.45 41.7, 24.72 44.09, 36.58 48.06 C48.43 52.03, 59.05 59.81, 66.41 70.05 C73.78 80.29, 81.07 96.72, 80.77 109.51 C80.47 122.3, 74.74 135.65, 64.6 146.78 C54.45 157.91, 38.22 165.13, 19.9 176.29 C1.59 187.46, -27.7 208.29, -45.28 213.78 C-62.86 219.26, -73.42 214.12, -85.58 209.22 C-97.74 204.31, -111.37 194.16, -118.23 184.34 C-125.09 174.52, -126.56 158.93, -126.75 150.28 C-126.94 141.63, -121.09 135.37, -119.37 132.43 C-117.65 129.5, -119.24 131.19, -116.43 132.66 C-113.62 134.12, -107.56 138.37, -102.53 141.22 C-97.5 144.06, -89.64 147.81, -86.26 149.72 C-82.87 151.62, -83.37 150.64, -82.23 152.65 C-81.1 154.66, -82.22 158.94, -79.44 161.77 C-76.67 164.61, -70.32 168.05, -65.58 169.65 C-60.85 171.25, -60.99 176.15, -51.05 171.37 C-41.11 166.58, -20.2 150.4, -5.94 140.93 C8.32 131.45, 28.58 122.89, 34.5 114.5 C40.42 106.11, 33.97 94.47, 29.6 90.58 C25.23 86.7, 20.05 86.49, 8.29 91.2 C-3.46 95.91, -25.98 114.68, -40.91 118.85 C-55.85 123.02, -69.86 121.24, -81.3 116.23 C-92.75 111.22, -103.41 99.78, -109.57 88.79 C-115.72 77.8, -119.35 61.86, -118.23 50.28 C-117.11 38.69, -113.66 30.72, -102.83 19.28 C-92 7.83, -71.12 -6.72, -53.26 -18.39 C-35.41 -30.06, -12.27 -46.46, 4.28 -50.72 C20.84 -54.98, 34.15 -49.21, 46.08 -43.96 C58 -38.71, 69.17 -27.66, 75.83 -19.22 C82.49 -10.79, 85.62 -1.38, 86.03 6.67 C86.45 14.72, 79.94 25.27, 78.34 29.09 C76.74 32.9, 79.63 31.16, 76.43 29.56 C73.22 27.97, 64.78 22.38, 59.1 19.5 C53.42 16.62, 45.37 13.64, 42.34 12.29 C39.31 10.93, 41.18 12.12, 40.94 11.37 C40.7 10.63, 41.54 10.68, 40.9 7.8 C40.26 4.91, 40.55 -2.92, 37.12 -5.94 C33.68 -8.96, 26.13 -11.06, 20.28 -10.33 C14.42 -9.6, 5.47 -3.35, 1.98 -1.58 M3.18 4.06 C-5.5 9.67, -35.44 23.58, -48.76 31.55 C-62.08 39.52, -72.76 45.19, -76.76 51.88 C-80.77 58.57, -77.05 67.56, -72.77 71.67 C-68.49 75.78, -61.76 79.97, -51.09 76.55 C-40.42 73.13, -23.74 56.45, -8.75 51.17 C6.23 45.88, 25.36 41.89, 38.81 44.84 C52.26 47.78, 65.53 58.64, 71.93 68.81 C78.33 78.99, 78.25 92.92, 77.2 105.87 C76.15 118.83, 74.95 134.53, 65.64 146.56 C56.34 158.59, 39.17 166.91, 21.38 178.04 C3.59 189.17, -23.47 208.45, -41.1 213.35 C-58.72 218.26, -71.16 212.15, -84.39 207.47 C-97.63 202.79, -113.35 195.16, -120.51 185.26 C-127.67 175.36, -126.64 156.4, -127.36 148.06 C-128.09 139.73, -126.23 137.48, -124.87 135.23 C-123.5 132.99, -122.38 133.42, -119.16 134.6 C-115.93 135.79, -111.65 139.61, -105.52 142.35 C-99.39 145.09, -86.38 149.88, -82.4 151.05 C-78.41 152.21, -81.62 146.8, -81.61 149.37 C-81.61 151.94, -83.96 162.41, -82.38 166.47 C-80.8 170.53, -77.41 173.05, -72.16 173.72 C-66.9 174.38, -61.21 176.35, -50.82 170.44 C-40.44 164.52, -23.46 147.47, -9.83 138.21 C3.8 128.95, 24.03 123.09, 30.97 114.87 C37.9 106.64, 35.04 92.78, 31.79 88.87 C28.53 84.96, 24.37 86.88, 11.43 91.42 C-1.51 95.95, -30.46 112.57, -45.85 116.08 C-61.24 119.59, -69.74 117.45, -80.93 112.48 C-92.12 107.52, -106.7 97.33, -112.99 86.28 C-119.28 75.23, -120.56 57.89, -118.67 46.16 C-116.78 34.43, -113.1 26.85, -101.64 15.89 C-90.19 4.93, -66.94 -8.96, -49.95 -19.59 C-32.96 -30.22, -16.18 -43.78, 0.29 -47.88 C16.75 -51.99, 36.03 -48.2, 48.83 -44.23 C61.63 -40.25, 71.29 -32, 77.08 -24.04 C82.87 -16.08, 83.24 -4.97, 83.59 3.54 C83.94 12.04, 80.66 22.45, 79.18 27 C77.7 31.54, 78.47 31.96, 74.72 30.79 C70.96 29.62, 61.77 22.83, 56.65 19.97 C51.53 17.11, 47.46 15.08, 44.01 13.64 C40.56 12.21, 36.78 12.14, 35.94 11.37 C35.09 10.59, 38.49 11.55, 38.92 8.99 C39.35 6.43, 41.96 -0.69, 38.51 -3.99 C35.05 -7.3, 24.71 -11.2, 18.18 -10.86 C11.64 -10.51, 2.87 -3.64, -0.71 -1.93" stroke="#444444" stroke-width="2" fill="none"></path></g></g><mask></mask></svg>