<svg xmlns="http://www.w3.org/2000/svg" viewBox="684.72 -2788.20 400.58 336.62" width="401" height="337"><polygon points="878.17,-2782.20 1049.19,-2708.15 878.17,-2634.10 707.16,-2708.15" stroke="#c13b3c" stroke-width="2" opacity="1.0" fill="#c13b3c"/><polygon points="881.86,-2648.64 1052.88,-2574.58 881.86,-2500.53 710.85,-2574.58" stroke="#c13b3c" stroke-width="2" opacity="1.0" fill="#c13b3c"/><polygon points="879.19,-2717.80 1050.20,-2643.75 879.19,-2569.70 708.17,-2643.75" stroke="#c13b3c" stroke-width="2" opacity="1.0" fill="#c13b3c"/><polyline points="960.79,-2725.88 960.79,-2688.41 916.25,-2706.70 960.79,-2725.88" fill="none" stroke="#9a2e20" stroke-width="2" opacity="1.0" stroke-linecap="round" stroke-linejoin="round"/><polyline points="960.71,-2723.72 960.71,-2688.70 1003.08,-2705.95 960.71,-2723.72" fill="none" stroke="#571f1e" stroke-width="2" opacity="1.0" stroke-linecap="round" stroke-linejoin="round"/><polyline points="862.31,-2751.16 868.39,-2741.33 849.14,-2733.72 873.04,-2731.32 881.37,-2716.90 889.46,-2731.81 916.54,-2733.84 892.01,-2740.76 900.08,-2754.01 881.26,-2746.23 862.31,-2751.16" fill="#ffff" stroke="#ffff" stroke-width="2" opacity="1.0" stroke-linecap="round" stroke-linejoin="round"/><ellipse cx="803.00" cy="-2706.04" rx="36.06" ry="11.25" stroke="#ffff" stroke-width="2" opacity="1.0" fill="#ffffff"/><polyline points="960.66,-2725.32 960.66,-2687.85 916.12,-2706.15 960.66,-2725.32" fill="#9a2e20" stroke="#9a2e20" stroke-width="2" opacity="1.0" stroke-linecap="round" stroke-linejoin="round"/><polyline points="960.50,-2723.05 960.50,-2688.03 1002.87,-2705.28 960.50,-2723.05" fill="#571f1e" stroke="#571f1e" stroke-width="2" opacity="1.0" stroke-linecap="round" stroke-linejoin="round"/><polyline points="886.28,-2652.41 840.00,-2671.14 910.17,-2681.07 886.28,-2652.41" fill="#ffffff" stroke="#ffffff" stroke-width="2" opacity="1.0" stroke-linecap="round" stroke-linejoin="round"/><polyline points="707.82,-2702.77 709.39,-2661.79 880.11,-2587.40 1049.92,-2661.06 1050.45,-2703.15 878.55,-2630.40 707.82,-2702.77" fill="#922b1c" stroke="#922b1c" stroke-width="2" opacity="1.0" stroke-linecap="round" stroke-linejoin="round"/><polyline points="708.86,-2638.58 710.43,-2597.60 881.15,-2523.21 1050.97,-2596.87 1051.50,-2638.95 879.60,-2566.21 708.86,-2638.58" fill="#922b1c" stroke="#922b1c" stroke-width="2" opacity="1.0" stroke-linecap="round" stroke-linejoin="round"/><polyline points="712.02,-2571.31 713.59,-2535.03 884.52,-2457.93 1053.82,-2531.13 1054.65,-2571.69 882.75,-2498.94 712.02,-2571.31" fill="#922b1c" stroke="#922b1c" stroke-width="2" opacity="1.0" stroke-linecap="round" stroke-linejoin="round"/><rect x="690.72" y="-2548.33" width="388.58" height="83.73" rx="0" stroke="#ffffff" stroke-width="4" opacity="1.0" fill="#465282"/><text x="710.28" y="-2487.11" font-size="59.04253016979389" fill="#ffffff" opacity="1.0" font-family="sans-serif">Enterprise</text></svg>