<svg version="1.1" xmlns="http://www.w3.org/2000/svg" viewBox="0 0 807.3046318604884 245.0131734212241" width="807.3046318604884" height="245.0131734212241">
  <!-- svg-source:excalidraw -->
  
  <defs>
    
    
  </defs>
  <g stroke-linecap="round" transform="translate(6 6) rotate(0 123.56760329522945 114.91919213942333)"><path d="M10.67 18.55 C10.67 18.55, 10.67 18.55, 10.67 18.55 M10.67 18.55 C10.67 18.55, 10.67 18.55, 10.67 18.55 M3.85 32.5 C9.38 26.14, 14.9 19.79, 27.47 5.33 M3.85 32.5 C10.6 24.74, 17.34 16.98, 27.47 5.33 M2.28 40.41 C14 26.92, 25.72 13.44, 34.43 3.42 M2.28 40.41 C13.08 27.98, 23.88 15.56, 34.43 3.42 M2.02 46.8 C12.72 34.49, 23.43 22.17, 40.72 2.28 M2.02 46.8 C12.25 35.03, 22.48 23.26, 40.72 2.28 M1.1 53.96 C18.77 33.63, 36.44 13.3, 47.02 1.13 M1.1 53.96 C16 36.82, 30.9 19.68, 47.02 1.13 M0.18 61.11 C17 41.76, 33.81 22.42, 52.67 0.73 M0.18 61.11 C21.03 37.12, 41.88 13.13, 52.67 0.73 M0.58 66.75 C20.37 43.98, 40.17 21.2, 58.31 0.34 M0.58 66.75 C22.48 41.55, 44.39 16.35, 58.31 0.34 M0.31 73.15 C22.54 47.58, 44.77 22.01, 63.3 0.7 M0.31 73.15 C23.63 46.33, 46.94 19.51, 63.3 0.7 M0.71 78.79 C21.49 54.89, 42.27 30.98, 68.94 0.3 M0.71 78.79 C18.37 58.48, 36.03 38.16, 68.94 0.3 M0.45 85.19 C16.47 66.76, 32.49 48.34, 73.93 0.66 M0.45 85.19 C23.42 58.77, 46.39 32.34, 73.93 0.66 M0.19 91.59 C31.29 55.81, 62.4 20.02, 79.57 0.27 M0.19 91.59 C29.08 58.35, 57.97 25.12, 79.57 0.27 M0.58 97.23 C18.7 76.39, 36.82 55.55, 84.56 0.63 M0.58 97.23 C34 58.79, 67.42 20.35, 84.56 0.63 M0.32 103.63 C34.48 64.33, 68.65 25.03, 89.54 0.99 M0.32 103.63 C30.66 68.73, 61 33.83, 89.54 0.99 M0.71 109.27 C29.29 76.4, 57.87 43.53, 95.19 0.59 M0.71 109.27 C23.7 82.83, 46.68 56.39, 95.19 0.59 M0.45 115.67 C31.59 79.85, 62.72 44.04, 100.17 0.95 M0.45 115.67 C27.98 84, 55.51 52.33, 100.17 0.95 M0.19 122.07 C30.91 86.73, 61.63 51.39, 105.82 0.56 M0.19 122.07 C32.88 84.47, 65.56 46.87, 105.82 0.56 M0.59 127.71 C30.4 93.41, 60.22 59.11, 110.8 0.92 M0.59 127.71 C34.18 89.07, 67.77 50.43, 110.8 0.92 M0.32 134.11 C29.31 100.76, 58.3 67.42, 116.45 0.52 M0.32 134.11 C35.28 93.89, 70.24 53.68, 116.45 0.52 M0.72 139.75 C25.44 111.31, 50.17 82.87, 121.43 0.88 M0.72 139.75 C25.18 111.62, 49.63 83.48, 121.43 0.88 M0.46 146.15 C38.94 101.88, 77.43 57.6, 127.08 0.49 M0.46 146.15 C46.85 92.78, 93.25 39.41, 127.08 0.49 M0.85 151.79 C42.62 103.75, 84.38 55.7, 132.06 0.85 M0.85 151.79 C51.99 92.96, 103.14 34.13, 132.06 0.85 M0.59 158.19 C32.84 121.09, 65.09 84, 137.71 0.46 M0.59 158.19 C41.4 111.24, 82.21 64.29, 137.71 0.46 M0.33 164.59 C38.83 120.3, 77.33 76.01, 142.69 0.82 M0.33 164.59 C47.34 110.5, 94.36 56.42, 142.69 0.82 M0.72 170.23 C42.19 122.53, 83.65 74.83, 148.34 0.42 M0.72 170.23 C49.52 114.1, 98.31 57.97, 148.34 0.42 M0.46 176.63 C58.08 110.34, 115.71 44.06, 153.32 0.78 M0.46 176.63 C51.17 118.29, 101.89 59.95, 153.32 0.78 M0.86 182.27 C53.82 121.35, 106.78 60.42, 158.97 0.39 M0.86 182.27 C55.37 119.57, 109.88 56.86, 158.97 0.39 M1.91 187.16 C35.91 148.05, 69.91 108.93, 163.95 0.75 M1.91 187.16 C57.93 122.71, 113.96 58.26, 163.95 0.75 M2.96 192.05 C60.63 125.7, 118.3 59.36, 168.94 1.11 M2.96 192.05 C46.71 141.72, 90.46 91.39, 168.94 1.11 M4.01 196.94 C71.78 118.98, 139.54 41.02, 174.58 0.71 M4.01 196.94 C66.68 124.84, 129.36 52.74, 174.58 0.71 M5.72 201.07 C62.17 136.12, 118.63 71.18, 179.57 1.07 M5.72 201.07 C49.9 150.25, 94.08 99.42, 179.57 1.07 M7.42 205.2 C47.21 159.43, 87 113.66, 185.21 0.68 M7.42 205.2 C49.34 156.98, 91.26 108.76, 185.21 0.68 M9.13 209.34 C68.77 140.72, 128.42 72.11, 190.2 1.04 M9.13 209.34 C68.38 141.18, 127.63 73.02, 190.2 1.04 M11.49 212.72 C53.91 163.93, 96.32 115.13, 195.84 0.64 M11.49 212.72 C54.54 163.2, 97.59 113.67, 195.84 0.64 M14.51 215.34 C66.74 155.26, 118.96 95.19, 200.83 1 M14.51 215.34 C77.39 143.01, 140.26 70.68, 200.83 1 M17.53 217.97 C57.51 171.97, 97.5 125.97, 205.16 2.12 M17.53 217.97 C71.4 156, 125.27 94.03, 205.16 2.12 M20.55 220.59 C87.39 143.7, 154.22 66.82, 210.15 2.48 M20.55 220.59 C93.2 137.01, 165.85 53.44, 210.15 2.48 M24.22 222.46 C67.24 172.97, 110.26 123.49, 214.48 3.59 M24.22 222.46 C94 142.19, 163.77 61.93, 214.48 3.59 M27.9 224.33 C99.7 141.73, 171.51 59.12, 218.16 5.46 M27.9 224.33 C67.18 179.14, 106.47 133.95, 218.16 5.46 M31.57 226.2 C103.59 143.35, 175.61 60.5, 221.83 7.33 M31.57 226.2 C86.06 163.52, 140.55 100.83, 221.83 7.33 M35.9 227.31 C81.9 174.4, 127.89 121.5, 225.51 9.2 M35.9 227.31 C110.45 141.55, 185 55.79, 225.51 9.2 M40.24 228.43 C84.85 177.1, 129.47 125.77, 229.18 11.07 M40.24 228.43 C97.64 162.39, 155.04 96.36, 229.18 11.07 M45.22 228.79 C99.79 166.01, 154.37 103.23, 232.2 13.7 M45.22 228.79 C114.95 148.58, 184.67 68.37, 232.2 13.7 M49.55 229.9 C90.42 182.89, 131.28 135.88, 234.56 17.07 M49.55 229.9 C108.83 161.71, 168.11 93.52, 234.56 17.07 M54.54 230.26 C114.1 161.75, 173.65 93.24, 237.58 19.7 M54.54 230.26 C94.62 184.16, 134.7 138.05, 237.58 19.7 M60.18 229.87 C97.97 186.4, 135.76 142.93, 239.29 23.83 M60.18 229.87 C110.59 171.88, 161 113.89, 239.29 23.83 M65.17 230.23 C135.66 149.14, 206.16 68.04, 241.65 27.21 M65.17 230.23 C109.02 179.79, 152.87 129.34, 241.65 27.21 M70.81 229.83 C129.64 162.16, 188.46 94.49, 243.36 31.35 M70.81 229.83 C135.67 155.23, 200.52 80.62, 243.36 31.35 M75.8 230.19 C114.02 186.23, 152.24 142.26, 244.41 36.23 M75.8 230.19 C113.27 187.09, 150.74 143.99, 244.41 36.23 M81.44 229.8 C114.48 191.8, 147.51 153.79, 245.46 41.12 M81.44 229.8 C120.21 185.2, 158.98 140.6, 245.46 41.12 M86.43 230.16 C146.61 160.93, 206.78 91.71, 246.51 46.01 M86.43 230.16 C141.64 166.65, 196.84 103.15, 246.51 46.01 M92.07 229.76 C129.3 186.94, 166.53 144.11, 247.56 50.9 M92.07 229.76 C144.85 169.05, 197.64 108.33, 247.56 50.9 M97.06 230.12 C137.97 183.07, 178.87 136.01, 247.3 57.3 M97.06 230.12 C136.83 184.38, 176.59 138.63, 247.3 57.3 M102.7 229.73 C154.64 169.98, 206.58 110.24, 247.69 62.94 M102.7 229.73 C132.47 195.48, 162.24 161.24, 247.69 62.94 M107.69 230.09 C163.18 166.26, 218.67 102.43, 247.43 69.34 M107.69 230.09 C145.95 186.07, 184.22 142.06, 247.43 69.34 M113.33 229.7 C155.79 180.86, 198.24 132.02, 247.17 75.73 M113.33 229.7 C166.59 168.43, 219.85 107.17, 247.17 75.73 M118.32 230.06 C155.54 187.25, 192.75 144.44, 247.56 81.38 M118.32 230.06 C158.14 184.25, 197.96 138.45, 247.56 81.38 M123.96 229.66 C164.93 182.53, 205.9 135.41, 247.3 87.78 M123.96 229.66 C164.05 183.55, 204.13 137.44, 247.3 87.78 M128.95 230.02 C169.17 183.75, 209.39 137.49, 247.7 93.42 M128.95 230.02 C170.16 182.61, 211.38 135.2, 247.7 93.42 M134.59 229.63 C165.63 193.93, 196.66 158.23, 247.44 99.82 M134.59 229.63 C161.45 198.74, 188.3 167.84, 247.44 99.82 M139.58 229.99 C182.56 180.54, 225.54 131.1, 247.17 106.21 M139.58 229.99 C162.62 203.49, 185.65 176.99, 247.17 106.21 M145.22 229.59 C173.27 197.33, 201.31 165.07, 247.57 111.86 M145.22 229.59 C168.98 202.27, 192.73 174.94, 247.57 111.86 M150.21 229.95 C186.78 187.89, 223.34 145.83, 247.31 118.26 M150.21 229.95 C186.75 187.92, 223.29 145.89, 247.31 118.26 M155.85 229.56 C184.66 196.42, 213.47 163.28, 247.7 123.9 M155.85 229.56 C178.48 203.53, 201.1 177.51, 247.7 123.9 M160.84 229.92 C180.99 206.74, 201.13 183.57, 247.44 130.3 M160.84 229.92 C190.67 195.6, 220.51 161.28, 247.44 130.3 M165.83 230.28 C184.91 208.32, 203.99 186.37, 247.18 136.69 M165.83 230.28 C187.25 205.63, 208.68 180.98, 247.18 136.69 M171.47 229.88 C200.88 196.05, 230.3 162.21, 247.57 142.34 M171.47 229.88 C192.27 205.96, 213.06 182.04, 247.57 142.34 M176.46 230.24 C200.11 203.03, 223.77 175.82, 247.31 148.73 M176.46 230.24 C198.4 205, 220.35 179.76, 247.31 148.73 M182.1 229.85 C202.65 206.21, 223.2 182.57, 247.71 154.38 M182.1 229.85 C205.78 202.61, 229.46 175.37, 247.71 154.38 M187.09 230.21 C209.1 204.89, 231.11 179.57, 247.45 160.78 M187.09 230.21 C202.51 212.47, 217.93 194.72, 247.45 160.78 M192.73 229.81 C211.47 208.25, 230.22 186.69, 247.18 167.17 M192.73 229.81 C206.33 214.18, 219.92 198.54, 247.18 167.17 M198.37 229.42 C214.93 210.38, 231.48 191.33, 247.58 172.82 M198.37 229.42 C208.94 217.26, 219.51 205.1, 247.58 172.82 M204.02 229.03 C215.58 215.73, 227.14 202.43, 247.32 179.21 M204.02 229.03 C213.77 217.81, 223.52 206.59, 247.32 179.21 M209.66 228.63 C221.03 215.56, 232.39 202.48, 245.74 187.12 M209.66 228.63 C222.12 214.3, 234.58 199.97, 245.74 187.12 M217.27 225.97 C226.24 215.65, 235.21 205.34, 244.83 194.27 M217.27 225.97 C223.26 219.09, 229.24 212.2, 244.83 194.27 M228.16 219.54 C231.22 216.02, 234.29 212.5, 241.94 203.69 M228.16 219.54 C231.59 215.6, 235.01 211.67, 241.94 203.69 M17.96 218.65 C17.96 218.65, 17.96 218.65, 17.96 218.65 M17.96 218.65 C17.96 218.65, 17.96 218.65, 17.96 218.65 M31.9 225.47 C26.2 220.51, 20.49 215.55, 7.75 204.48 M31.9 225.47 C22.98 217.72, 14.06 209.96, 7.75 204.48 M40.57 227.7 C29.24 217.86, 17.92 208.02, 3.59 195.55 M40.57 227.7 C26.23 215.24, 11.9 202.78, 3.59 195.55 M47.72 228.62 C29.68 212.93, 11.64 197.25, 1.68 188.6 M47.72 228.62 C29.43 212.72, 11.15 196.83, 1.68 188.6 M54.12 228.88 C32.83 210.37, 11.54 191.87, 0.53 182.3 M54.12 228.88 C41.04 217.51, 27.97 206.15, 0.53 182.3 M60.51 229.14 C37.88 209.47, 15.25 189.8, 0.89 177.31 M60.51 229.14 C44.75 215.43, 28.98 201.72, 0.89 177.31 M66.16 228.75 C42.39 208.08, 18.62 187.42, 0.5 171.67 M66.16 228.75 C48.25 213.18, 30.35 197.62, 0.5 171.67 M72.56 229.01 C47.73 207.42, 22.9 185.84, 0.86 166.68 M72.56 229.01 C47.62 207.33, 22.68 185.65, 0.86 166.68 M78.2 228.61 C52.91 206.63, 27.62 184.64, 0.46 161.04 M78.2 228.61 C60.94 213.61, 43.69 198.62, 0.46 161.04 M84.6 228.87 C59.85 207.36, 35.11 185.85, 0.82 156.05 M84.6 228.87 C62.2 209.4, 39.8 189.93, 0.82 156.05 M90.99 229.14 C66.86 208.15, 42.72 187.17, 1.18 151.06 M90.99 229.14 C65.49 206.96, 39.98 184.79, 1.18 151.06 M96.64 228.74 C69.2 204.89, 41.77 181.04, 0.79 145.42 M96.64 228.74 C69.12 204.82, 41.6 180.9, 0.79 145.42 M103.03 229 C79.63 208.65, 56.22 188.31, 1.15 140.43 M103.03 229 C73.02 202.91, 43.01 176.82, 1.15 140.43 M108.68 228.61 C83.36 206.6, 58.04 184.59, 0.75 134.79 M108.68 228.61 C74.71 199.08, 40.75 169.56, 0.75 134.79 M115.08 228.87 C80.64 198.93, 46.19 168.99, 1.11 129.8 M115.08 228.87 C77.09 195.85, 39.1 162.82, 1.11 129.8 M121.47 229.13 C83.74 196.33, 46.01 163.53, 0.72 124.16 M121.47 229.13 C85.04 197.46, 48.61 165.79, 0.72 124.16 M127.12 228.74 C97.34 202.85, 67.57 176.97, 1.08 119.17 M127.12 228.74 C86.33 193.28, 45.54 157.82, 1.08 119.17 M133.51 229 C87.29 188.81, 41.06 148.63, 0.69 113.53 M133.51 229 C101.2 200.91, 68.89 172.82, 0.69 113.53 M139.16 228.6 C106.26 200.01, 73.37 171.41, 1.05 108.54 M139.16 228.6 C107.05 200.69, 74.94 172.78, 1.05 108.54 M145.55 228.86 C112.85 200.43, 80.14 172, 0.65 102.9 M145.55 228.86 C90.73 181.21, 35.9 133.55, 0.65 102.9 M151.95 229.13 C96.01 180.49, 40.07 131.86, 1.01 97.91 M151.95 229.13 C111.09 193.6, 70.22 158.08, 1.01 97.91 M157.6 228.73 C112.64 189.65, 67.69 150.58, 0.62 92.27 M157.6 228.73 C96.42 175.55, 35.24 122.37, 0.62 92.27 M163.99 228.99 C106.54 179.05, 49.09 129.11, 0.98 87.28 M163.99 228.99 C116.22 187.46, 68.45 145.94, 0.98 87.28 M169.64 228.6 C114.38 180.56, 59.12 132.53, 0.58 81.64 M169.64 228.6 C135.18 198.65, 100.73 168.7, 0.58 81.64 M176.03 228.86 C113.23 174.27, 50.43 119.67, 0.94 76.65 M176.03 228.86 C106.4 168.33, 36.76 107.79, 0.94 76.65 M182.43 229.12 C145.97 197.43, 109.51 165.73, 0.55 71.01 M182.43 229.12 C111.35 167.33, 40.27 105.54, 0.55 71.01 M188.08 228.73 C146.76 192.81, 105.45 156.9, 0.91 66.02 M188.08 228.73 C126.91 175.55, 65.74 122.38, 0.91 66.02 M194.47 228.99 C152.46 192.47, 110.45 155.94, 0.51 60.38 M194.47 228.99 C123.73 167.49, 52.99 106, 0.51 60.38 M200.87 229.25 C155.46 189.78, 110.06 150.31, 0.12 54.74 M200.87 229.25 C147.43 182.79, 93.98 136.33, 0.12 54.74 M205.76 228.2 C135.75 167.34, 65.73 106.47, 0.48 49.75 M205.76 228.2 C127.09 159.81, 48.41 91.42, 0.48 49.75 M210.65 227.15 C143.98 169.2, 77.32 111.25, 1.59 45.42 M210.65 227.15 C159.33 182.53, 108 137.92, 1.59 45.42 M215.54 226.1 C131.01 152.62, 46.47 79.13, 1.95 40.43 M215.54 226.1 C141.24 161.51, 66.94 96.93, 1.95 40.43 M218.91 223.73 C154.17 167.45, 89.42 111.17, 2.31 35.45 M218.91 223.73 C145.71 160.09, 72.5 96.46, 2.31 35.45 M223.05 222.03 C166.37 172.76, 109.69 123.48, 4.18 31.77 M223.05 222.03 C178.45 183.26, 133.86 144.49, 4.18 31.77 M227.18 220.32 C177.95 177.52, 128.72 134.73, 6.05 28.1 M227.18 220.32 C169.51 170.19, 111.84 120.06, 6.05 28.1 M229.81 217.3 C170.98 166.16, 112.15 115.02, 7.92 24.42 M229.81 217.3 C154.38 151.74, 78.96 86.17, 7.92 24.42 M233.19 214.94 C187.91 175.58, 142.64 136.23, 9.79 20.75 M233.19 214.94 C149.47 142.17, 65.75 69.39, 9.79 20.75 M235.81 211.92 C189.87 171.98, 143.92 132.04, 11.66 17.07 M235.81 211.92 C148.6 136.11, 61.39 60.3, 11.66 17.07 M238.43 208.9 C192.01 168.55, 145.59 128.19, 15.04 14.71 M238.43 208.9 C174.89 153.67, 111.35 98.43, 15.04 14.71 M240.3 205.23 C167.84 142.24, 95.38 79.25, 17.66 11.69 M240.3 205.23 C189.62 161.17, 138.94 117.11, 17.66 11.69 M242.17 201.55 C183.97 150.96, 125.77 100.36, 21.04 9.33 M242.17 201.55 C189.5 155.76, 136.82 109.97, 21.04 9.33 M243.29 197.22 C171.1 134.47, 98.91 71.72, 24.42 6.96 M243.29 197.22 C161.02 125.71, 78.76 54.19, 24.42 6.96 M245.16 193.55 C190.97 146.44, 136.78 99.34, 28.56 5.26 M245.16 193.55 C174.08 131.76, 103.01 69.97, 28.56 5.26 M246.27 189.21 C165.63 119.12, 85 49.02, 32.69 3.55 M246.27 189.21 C161.32 115.37, 76.38 41.53, 32.69 3.55 M246.63 184.23 C182.36 128.36, 118.1 72.49, 36.82 1.84 M246.63 184.23 C185.77 131.32, 124.91 78.41, 36.82 1.84 M246.99 179.24 C188.84 128.69, 130.69 78.14, 42.47 1.45 M246.99 179.24 C185.45 125.74, 123.9 72.24, 42.47 1.45 M247.35 174.25 C202.43 135.2, 157.5 96.15, 48.11 1.05 M247.35 174.25 C186.86 121.67, 126.36 69.08, 48.11 1.05 M246.96 168.61 C184.47 114.29, 121.98 59.97, 53 0 M246.96 168.61 C181.61 111.81, 116.27 55, 53 0 M247.32 163.62 C198.87 121.51, 150.43 79.4, 59.4 0.27 M247.32 163.62 C173.63 99.57, 99.95 35.52, 59.4 0.27 M246.92 157.98 C207.04 123.31, 167.16 88.65, 65.04 -0.13 M246.92 157.98 C210.38 126.22, 173.84 94.45, 65.04 -0.13 M247.28 152.99 C192.85 105.68, 138.42 58.36, 71.44 0.13 M247.28 152.99 C208.14 118.96, 168.99 84.94, 71.44 0.13 M246.89 147.35 C185.74 94.2, 124.59 41.04, 77.08 -0.26 M246.89 147.35 C207.52 113.12, 168.14 78.9, 77.08 -0.26 M247.25 142.36 C191.01 93.48, 134.77 44.59, 83.48 0 M247.25 142.36 C197.14 98.8, 147.02 55.24, 83.48 0 M246.85 136.72 C186.35 84.13, 125.85 31.54, 89.87 0.26 M246.85 136.72 C213.49 107.72, 180.13 78.71, 89.87 0.26 M247.21 131.73 C189.85 81.87, 132.49 32, 95.52 -0.13 M247.21 131.73 C187.02 79.41, 126.82 27.08, 95.52 -0.13 M246.82 126.09 C190 76.7, 133.18 27.3, 101.92 0.13 M246.82 126.09 C193.3 79.56, 139.77 33.04, 101.92 0.13 M247.18 121.1 C206.84 86.04, 166.5 50.97, 107.56 -0.27 M247.18 121.1 C206.21 85.49, 165.24 49.87, 107.56 -0.27 M246.79 115.46 C202.48 76.95, 158.18 38.44, 113.96 -0.01 M246.79 115.46 C197.3 72.44, 147.81 29.42, 113.96 -0.01 M247.15 110.47 C220.89 87.65, 194.64 64.83, 120.35 0.26 M247.15 110.47 C216.97 84.25, 186.8 58.02, 120.35 0.26 M246.75 104.83 C220.3 81.84, 193.85 58.84, 126 -0.14 M246.75 104.83 C206.16 69.55, 165.58 34.27, 126 -0.14 M247.11 99.84 C210.39 67.92, 173.66 36, 132.4 0.12 M247.11 99.84 C210.84 68.31, 174.56 36.78, 132.4 0.12 M246.72 94.2 C212.78 64.7, 178.85 35.2, 138.79 0.38 M246.72 94.2 C223.22 73.78, 199.73 53.35, 138.79 0.38 M247.08 89.21 C219.15 64.94, 191.23 40.67, 144.44 -0.01 M247.08 89.21 C220.62 66.21, 194.16 43.22, 144.44 -0.01 M246.68 83.57 C213.94 55.11, 181.19 26.64, 150.83 0.25 M246.68 83.57 C225.71 65.34, 204.74 47.11, 150.83 0.25 M247.04 78.58 C214.18 50.02, 181.32 21.45, 156.48 -0.14 M247.04 78.58 C225.67 60.01, 204.3 41.43, 156.48 -0.14 M246.65 72.94 C223.29 52.63, 199.92 32.32, 162.87 0.12 M246.65 72.94 C214.42 44.93, 182.2 16.92, 162.87 0.12 M247.01 67.95 C219.89 44.38, 192.76 20.8, 169.27 0.38 M247.01 67.95 C226.18 49.85, 205.35 31.74, 169.27 0.38 M247.37 62.97 C221.24 40.25, 195.11 17.54, 174.92 -0.02 M247.37 62.97 C232.57 50.11, 217.78 37.25, 174.92 -0.02 M246.97 57.32 C231.03 43.46, 215.09 29.61, 181.31 0.25 M246.97 57.32 C232.89 45.08, 218.81 32.84, 181.31 0.25 M247.33 52.34 C230.57 37.76, 213.81 23.19, 186.96 -0.15 M247.33 52.34 C234.65 41.31, 221.96 30.28, 186.96 -0.15 M246.94 46.69 C230.14 32.09, 213.35 17.5, 193.35 0.11 M246.94 46.69 C226.57 28.98, 206.19 11.27, 193.35 0.11 M245.79 40.39 C228.15 25.06, 210.52 9.73, 199 -0.28 M245.79 40.39 C228.06 24.98, 210.32 9.56, 199 -0.28 M243.89 33.44 C233.1 24.06, 222.31 14.69, 206.15 0.64 M243.89 33.44 C232.06 23.16, 220.23 12.88, 206.15 0.64 M240.47 25.17 C234.16 19.68, 227.84 14.19, 216.32 4.18 M240.47 25.17 C232.48 18.22, 224.49 11.28, 216.32 4.18" stroke="#d00000" stroke-width="0.5" fill="none"></path><path d="M57.46 0 C98.24 0, 139.03 0, 189.68 0 M57.46 0 C105.82 0, 154.19 0, 189.68 0 M189.68 0 C227.98 0, 247.14 19.15, 247.14 57.46 M189.68 0 C227.98 0, 247.14 19.15, 247.14 57.46 M247.14 57.46 C247.14 83.09, 247.14 108.72, 247.14 172.38 M247.14 57.46 C247.14 99.23, 247.14 141, 247.14 172.38 M247.14 172.38 C247.14 210.69, 227.98 229.84, 189.68 229.84 M247.14 172.38 C247.14 210.69, 227.98 229.84, 189.68 229.84 M189.68 229.84 C163.22 229.84, 136.77 229.84, 57.46 229.84 M189.68 229.84 C153.28 229.84, 116.88 229.84, 57.46 229.84 M57.46 229.84 C19.15 229.84, 0 210.69, 0 172.38 M57.46 229.84 C19.15 229.84, 0 210.69, 0 172.38 M0 172.38 C0 137.76, 0 103.15, 0 57.46 M0 172.38 C0 137.76, 0 103.15, 0 57.46 M0 57.46 C0 19.15, 19.15 0, 57.46 0 M0 57.46 C0 19.15, 19.15 0, 57.46 0" stroke="#d00000" stroke-width="1" fill="none"></path></g><g transform="translate(68.21059202209972 12.810506270008318) rotate(0 65.64312693799991 113.1013335756079)"><text x="65.64312693799991" y="0" font-family="Helvetica, Segoe UI Emoji" font-size="196.96294910961893px" fill="white" text-anchor="middle" style="white-space: pre;" direction="ltr" dominant-baseline="text-before-edge">K</text></g><g transform="translate(286.8044477518406 12.033520495039738) rotate(0 257.2500920543239 113.1013335756079)"><text x="257.2500920543239" y="0" font-family="Helvetica, Segoe UI Emoji" font-size="196.96294910961888px" fill="#000000" text-anchor="middle" style="white-space: pre;" direction="ltr" dominant-baseline="text-before-edge">Keras</text></g></svg>