<svg version="1.1" xmlns="http://www.w3.org/2000/svg" viewBox="0 0 330.20606913846154 354.5976562500002" width="330.20606913846154" height="354.5976562500002">
  <!-- svg-source:excalidraw -->
  
  <defs>
    
    
  </defs>
  <g stroke-linecap="round" transform="translate(11.39612322152243 15.927915170236247) rotate(0 143.2886798132339 142.7534287956692)"><path d="M34.46 51.15 C34.46 51.15, 34.46 51.15, 34.46 51.15 M34.46 51.15 C34.46 51.15, 34.46 51.15, 34.46 51.15 M21.73 71.89 C36.1 56.74, 49.11 43.09, 57.81 30.38 M21.73 71.89 C34.48 56.49, 46.34 43.2, 57.81 30.38 M11.63 89.61 C26.01 73.9, 35.66 60.83, 72.64 19.42 M11.63 89.61 C31.64 66.58, 52.14 43.81, 72.64 19.42 M10.06 97.52 C36.24 68.7, 62.15 37.33, 80.91 16.01 M10.06 97.52 C28.75 74.2, 48.47 52.22, 80.91 16.01 M7.83 106.18 C36.93 72.49, 68.49 37.68, 89.18 12.6 M7.83 106.18 C24.15 86.58, 41.69 68.3, 89.18 12.6 M5.6 114.84 C37.28 80.37, 65.12 47.88, 97.44 9.18 M5.6 114.84 C27.9 88.33, 49.84 63, 97.44 9.18 M3.37 123.5 C30.57 94.65, 53.57 62.4, 105.06 6.52 M3.37 123.5 C35.28 86.25, 68.11 47.52, 105.06 6.52 M1.79 131.41 C42.76 82.91, 84.52 37, 112.01 4.62 M1.79 131.41 C40.4 87.83, 76.16 47.07, 112.01 4.62 M1.53 137.81 C43.14 87.91, 83.34 39.93, 118.31 3.47 M1.53 137.81 C39.11 93.79, 76.26 51.43, 118.31 3.47 M1.93 143.45 C49.53 86.68, 98.08 35.59, 123.95 3.08 M1.93 143.45 C47.08 91.2, 92.52 37.18, 123.95 3.08 M2.32 149.09 C28.89 118.44, 54.35 89.99, 129.6 2.68 M2.32 149.09 C31.76 115.29, 60.87 81.81, 129.6 2.68 M2.72 154.74 C44.17 106.26, 86.92 56.86, 135.24 2.29 M2.72 154.74 C53.1 96.39, 103.53 39.58, 135.24 2.29 M3.11 160.38 C50.88 105.81, 96.8 50.92, 141.54 1.14 M3.11 160.38 C38.48 120.42, 72.03 81.66, 141.54 1.14 M3.5 166.02 C52.14 109.06, 99.59 54.01, 147.18 0.74 M3.5 166.02 C51.46 112.52, 98.24 58.28, 147.18 0.74 M3.9 171.67 C55.01 110.88, 107.39 52.05, 152.82 0.35 M3.9 171.67 C55.65 111.68, 105.65 54.05, 152.82 0.35 M4.29 177.31 C34.94 139.47, 67.98 105.05, 157.81 0.71 M4.29 177.31 C62.5 109.65, 119.88 42.7, 157.81 0.71 M6 181.44 C36.55 141.78, 71.07 105.41, 162.14 1.82 M6 181.44 C45.04 136.15, 85.57 89.83, 162.14 1.82 M8.36 184.82 C61.87 121.51, 114.52 61.45, 166.47 2.94 M8.36 184.82 C50.46 134.97, 93.75 86.72, 166.47 2.94 M10.07 188.96 C67.12 123.64, 124.29 58.17, 170.8 4.05 M10.07 188.96 C61.58 131.12, 112.74 71.27, 170.8 4.05 M11.78 193.09 C73.77 122.64, 134.99 50.64, 175.14 5.17 M11.78 193.09 C62.54 138.04, 111.09 80.07, 175.14 5.17 M13.48 197.22 C50.05 153.55, 89.14 111.61, 179.47 6.28 M13.48 197.22 C49.94 155.66, 87.12 112.56, 179.47 6.28 M15.19 201.36 C78.3 125.03, 143.94 49.86, 183.8 7.4 M15.19 201.36 C77.53 131.56, 138.88 59.81, 183.8 7.4 M16.9 205.49 C70.43 145.22, 122.49 83.12, 188.13 8.51 M16.9 205.49 C58.28 156.92, 99.74 109.7, 188.13 8.51 M18.6 209.62 C59.99 161.89, 100.63 114.16, 192.46 9.63 M18.6 209.62 C76.6 144.25, 131.7 79.91, 192.46 9.63 M20.31 213.76 C70.42 153.58, 121.28 96.49, 196.79 10.74 M20.31 213.76 C58.51 170.59, 97.89 126.8, 196.79 10.74 M22.02 217.89 C67.09 165.55, 111.25 116.35, 200.47 12.61 M22.02 217.89 C57.84 176.81, 94.11 135.55, 200.47 12.61 M24.38 221.27 C75.43 162.85, 126.24 104.85, 203.48 15.23 M24.38 221.27 C91.54 142.95, 158.69 66.59, 203.48 15.23 M27.4 223.89 C89.6 152.89, 153.73 80.68, 207.16 17.1 M27.4 223.89 C66.36 178.92, 103.94 135.06, 207.16 17.1 M29.76 227.27 C72.9 171.91, 120.92 121.71, 210.83 18.97 M29.76 227.27 C86.56 163.99, 143.63 99.06, 210.83 18.97 M32.12 230.65 C87.76 167.61, 141.9 103.61, 214.51 20.84 M32.12 230.65 C93.65 158.93, 155.62 88.64, 214.51 20.84 M34.49 234.03 C103.54 156.59, 170.01 81.75, 217.53 23.47 M34.49 234.03 C106.39 150.76, 178.4 68.36, 217.53 23.47 M37.51 236.66 C90.86 172.23, 145.29 108.78, 221.2 25.34 M37.51 236.66 C99.56 163.99, 162.18 92.29, 221.2 25.34 M39.87 240.03 C77.91 192.88, 118.31 147.12, 224.88 27.21 M39.87 240.03 C110.81 159.26, 178.98 81.19, 224.88 27.21 M42.23 243.41 C105.08 172.35, 165.44 99.81, 228.55 29.08 M42.23 243.41 C107.13 168.41, 173.92 93.9, 228.55 29.08 M45.25 246.04 C86.99 199.51, 129.64 149.01, 231.57 31.7 M45.25 246.04 C115.47 167.29, 183.54 88.03, 231.57 31.7 M47.61 249.42 C95.99 195.1, 144.13 138.47, 235.25 33.57 M47.61 249.42 C98.99 189.44, 153.13 127.68, 235.25 33.57 M49.98 252.8 C94.69 198.75, 142 145.83, 238.27 36.19 M49.98 252.8 C104.73 190.74, 156.66 130.44, 238.27 36.19 M53.65 254.67 C113.49 186.06, 172.46 115.77, 241.28 38.82 M53.65 254.67 C94.69 208.15, 135.77 162, 241.28 38.82 M57.33 256.53 C121.85 182.69, 187.22 107.73, 243.65 42.2 M57.33 256.53 C126.99 177.15, 196.82 96.9, 243.65 42.2 M61 258.4 C98.14 213.6, 136.61 169.39, 246.67 44.82 M61 258.4 C100.07 215.07, 139.44 169.41, 246.67 44.82 M64.02 261.03 C105 211.05, 148.27 165.38, 249.03 48.2 M64.02 261.03 C121.13 197.23, 175.92 133.33, 249.03 48.2 M67.69 262.9 C108.14 213.89, 148.99 166.44, 252.05 50.82 M67.69 262.9 C121.48 198.66, 177.79 136.13, 252.05 50.82 M71.37 264.77 C146.95 181.69, 219.98 97.97, 254.41 54.2 M71.37 264.77 C123.16 206.24, 174.68 147.16, 254.41 54.2 M75.04 266.64 C133.53 198.79, 191.3 132.11, 256.77 57.58 M75.04 266.64 C129.27 205.89, 181.39 145.18, 256.77 57.58 M78.06 269.26 C119.12 220.28, 158.92 173.1, 259.79 60.21 M78.06 269.26 C132.68 205.13, 188.25 139.23, 259.79 60.21 M81.74 271.13 C125.41 217.88, 170.34 166.77, 262.15 63.59 M81.74 271.13 C148.5 192.99, 216.57 115.48, 262.15 63.59 M85.41 273 C135.27 215.42, 181.85 160.76, 265.17 66.21 M85.41 273 C151.47 197.56, 214.86 123.81, 265.17 66.21 M89.09 274.87 C155.71 194.51, 225.46 116, 266.88 70.34 M89.09 274.87 C143.68 212.65, 198.09 150.04, 266.88 70.34 M93.42 275.98 C152.85 208.84, 210 144.63, 268.59 74.48 M93.42 275.98 C159 200.39, 224.22 124.44, 268.59 74.48 M97.75 277.1 C156.28 207.47, 216.58 138, 270.29 78.61 M97.75 277.1 C133.05 236.19, 170.89 192.84, 270.29 78.61 M102.08 278.21 C140.34 233.96, 180.45 187.76, 272 82.74 M102.08 278.21 C150.22 225.29, 198.12 169.38, 272 82.74 M106.41 279.33 C170.29 207.67, 231.25 135.98, 273.71 86.88 M106.41 279.33 C141.99 239.02, 177.38 197.8, 273.71 86.88 M110.74 280.44 C148.64 239.72, 182.86 196.85, 275.41 91.01 M110.74 280.44 C171.32 208.35, 232.63 138.81, 275.41 91.01 M115.73 280.8 C166.69 219.89, 219.7 163.63, 277.12 95.15 M115.73 280.8 C178.94 209.22, 241.81 136.94, 277.12 95.15 M120.06 281.92 C177.36 215.53, 234.82 148.45, 278.17 100.03 M120.06 281.92 C170.81 223.63, 221.24 165.31, 278.17 100.03 M124.39 283.03 C164.34 235.78, 204.35 190.42, 279.88 104.17 M124.39 283.03 C185.42 212.18, 247.25 140.95, 279.88 104.17 M128.72 284.15 C184.81 219.78, 238.39 154.58, 281.58 108.3 M128.72 284.15 C185.69 216.97, 241.04 151.69, 281.58 108.3 M133.05 285.26 C181.33 228.7, 231.44 172.23, 282.63 113.19 M133.05 285.26 C175.15 239.12, 214.45 191.05, 282.63 113.19 M138.7 284.87 C187.48 229.17, 237.6 171.69, 283.03 118.83 M138.7 284.87 C188.21 226.67, 238.79 169.62, 283.03 118.83 M144.34 284.47 C178.52 246.33, 208.96 209.06, 283.42 124.48 M144.34 284.47 C174.35 248.77, 205.16 214.31, 283.42 124.48 M149.98 284.08 C180.99 243.57, 217.39 204.47, 283.82 130.12 M149.98 284.08 C182.28 244.89, 214.33 208.23, 283.82 130.12 M155.63 283.68 C200.34 230.41, 246.15 180.83, 284.87 135.01 M155.63 283.68 C186.57 248.66, 217.93 213.37, 284.87 135.01 M161.27 283.29 C190.31 246.75, 221.97 210.06, 285.26 140.65 M161.27 283.29 C188.61 248, 219.06 214.86, 285.26 140.65 M166.26 283.65 C195.93 248.71, 227.67 209.16, 285.66 146.29 M166.26 283.65 C196.85 245.89, 229.69 209.61, 285.66 146.29 M171.9 283.26 C210.37 236.82, 252.13 192.35, 286.05 151.94 M171.9 283.26 C202.5 248.91, 232.39 213.73, 286.05 151.94 M177.54 282.86 C217.89 237.3, 258.29 190.11, 285.14 159.09 M177.54 282.86 C202.42 253.16, 230.23 220.56, 285.14 159.09 M186.47 278.69 C221.18 237.93, 258.45 196.83, 283.56 167 M186.47 278.69 C211.56 249.6, 235.52 220.93, 283.56 167 M194.73 275.28 C223.88 243.8, 253.37 208.3, 281.33 175.66 M194.73 275.28 C221.46 246.05, 246.47 215.57, 281.33 175.66 M203 271.87 C231.66 240.23, 256.58 209.62, 279.1 184.32 M203 271.87 C227.21 245.83, 249.01 219.59, 279.1 184.32 M211.27 268.45 C239.25 240.79, 262.47 211.62, 277.53 192.23 M211.27 268.45 C230.84 245.56, 249.24 225.02, 277.53 192.23 M223.47 260.51 C240.81 238.21, 261.2 220.71, 272.68 203.91 M223.47 260.51 C236.98 244.16, 251.95 228.36, 272.68 203.91 M244.86 242 C246.49 238.01, 250.94 235.04, 259.95 224.65 M244.86 242 C249.7 236.95, 253.67 232.63, 259.95 224.65 M49.85 252.08 C49.85 252.08, 49.85 252.08, 49.85 252.08 M49.85 252.08 C49.85 252.08, 49.85 252.08, 49.85 252.08 M69.08 263.49 C57.86 252.1, 42.52 241.31, 34.36 233.31 M69.08 263.49 C61.93 256.53, 53.88 249.59, 34.36 233.31 M87.55 274.25 C66.25 256.32, 49.35 241.7, 21.89 217.17 M87.55 274.25 C73.64 262.84, 60.14 250.87, 21.89 217.17 M96.21 276.48 C75.74 256.43, 54.61 237.31, 18.48 208.9 M96.21 276.48 C64.67 249.34, 34.16 223.61, 18.48 208.9 M104.12 278.05 C75.46 254.86, 45.21 228.1, 15.07 200.64 M104.12 278.05 C72.92 252.36, 43.23 225.99, 15.07 200.64 M112.78 280.28 C86.76 259.86, 58.82 236.26, 10.9 191.71 M112.78 280.28 C87.91 258.82, 61.42 236.87, 10.9 191.71 M120.69 281.85 C86.78 252.28, 54.33 221.47, 7.48 183.45 M120.69 281.85 C84.54 249.18, 48.89 218.89, 7.48 183.45 M129.35 284.08 C87.17 246.19, 41.82 206.88, 4.07 175.18 M129.35 284.08 C88.03 248.14, 46.44 213.05, 4.07 175.18 M135.75 284.35 C107.11 260.88, 77.52 231.99, 3.68 169.54 M135.75 284.35 C96.62 250.94, 56.71 215.49, 3.68 169.54 M141.39 283.95 C95.66 244.12, 50.35 203, 3.28 163.89 M141.39 283.95 C89.74 238.42, 37.01 192.97, 3.28 163.89 M147.04 283.56 C103.97 248.07, 63.08 211.62, 2.89 158.25 M147.04 283.56 C112.04 252.98, 74.95 221.68, 2.89 158.25 M152.68 283.16 C92.32 230.7, 37.8 182.65, 2.49 152.61 M152.68 283.16 C92.7 230.85, 34.62 177.32, 2.49 152.61 M158.32 282.77 C119.47 249.24, 81.33 212.87, 2.1 146.96 M158.32 282.77 C101.55 231.6, 43.68 182.82, 2.1 146.96 M164.72 283.03 C124.59 245.8, 79.88 209.11, 1.7 141.32 M164.72 283.03 C99.92 226.16, 36.43 170.87, 1.7 141.32 M170.36 282.63 C128.17 247.07, 86.31 211.46, 2.06 136.33 M170.36 282.63 C125.4 242.67, 79.57 202.1, 2.06 136.33 M176.01 282.24 C130.82 243.68, 82.82 200.74, 1.67 130.69 M176.01 282.24 C107.85 222.02, 38.13 160.83, 1.67 130.69 M180.14 280.53 C111.34 222.9, 44.58 163.1, 2.78 126.36 M180.14 280.53 C142.1 247.7, 102.45 213.81, 2.78 126.36 M184.27 278.83 C128.64 229.19, 70.47 177.54, 3.9 122.03 M184.27 278.83 C135.34 235.67, 85.84 193.6, 3.9 122.03 M188.41 277.12 C126.6 222.8, 63.73 170.71, 5.01 117.7 M188.41 277.12 C140.59 234.39, 92.55 191.76, 5.01 117.7 M192.54 275.41 C141.94 231.39, 90.24 186.14, 6.13 113.37 M192.54 275.41 C135.54 225.58, 79.14 177.41, 6.13 113.37 M196.68 273.71 C123.79 212.03, 55.08 150.85, 7.24 109.04 M196.68 273.71 C135.94 218.88, 74.16 165.64, 7.24 109.04 M200.81 272 C125.29 208.04, 52.34 143.08, 8.36 104.7 M200.81 272 C124.45 208.11, 49.52 142.07, 8.36 104.7 M204.94 270.29 C141.21 214.18, 75.94 158.97, 8.72 99.72 M204.94 270.29 C143.81 218.12, 83.7 164.42, 8.72 99.72 M209.08 268.59 C155.83 224.59, 104.23 178.37, 9.83 95.39 M209.08 268.59 C153.39 219.62, 97.24 170.82, 9.83 95.39 M213.21 266.88 C171.54 228.79, 127.24 190.27, 10.95 91.06 M213.21 266.88 C136.9 199.87, 63.53 135.48, 10.95 91.06 M217.34 265.17 C152.69 207.21, 86.91 150.33, 12.82 87.38 M217.34 265.17 C149.82 204.79, 81.39 145.6, 12.82 87.38 M220.72 262.81 C178.42 224.89, 133.99 189.84, 14.69 83.71 M220.72 262.81 C161.6 213.9, 104.27 164.85, 14.69 83.71 M223.35 259.79 C156.93 201.19, 91.57 145.7, 16.56 80.03 M223.35 259.79 C156.04 201.48, 89.75 142.38, 16.56 80.03 M226.73 257.43 C169.59 208.91, 112.48 159.66, 19.18 77.01 M226.73 257.43 C179.34 214.89, 129.99 173.34, 19.18 77.01 M229.35 254.41 C189.28 215.25, 145 178.21, 21.05 73.34 M229.35 254.41 C173.24 204.79, 115.84 156.48, 21.05 73.34 M232.73 252.05 C160.61 190.22, 89.29 128.16, 22.92 69.66 M232.73 252.05 C178.02 203.98, 125.11 157.62, 22.92 69.66 M236.11 249.68 C172.59 194.35, 110.17 139.08, 25.54 66.64 M236.11 249.68 C193.9 210.79, 151.74 173.5, 25.54 66.64 M238.73 246.67 C172.48 188.34, 106.42 130.58, 27.41 62.97 M238.73 246.67 C157.51 176.4, 75.72 104.94, 27.41 62.97 M242.11 244.3 C175.75 188.22, 111.43 131.79, 29.28 59.29 M242.11 244.3 C160.22 171.5, 77.83 101.44, 29.28 59.29 M244.73 241.28 C185.8 189.69, 122.04 136.62, 31.91 56.27 M244.73 241.28 C179.45 182.34, 113.4 124.65, 31.91 56.27 M248.11 238.92 C186.56 185.71, 123.48 131.24, 33.78 52.6 M248.11 238.92 C183.43 182.65, 120.19 127.17, 33.78 52.6 M250.74 235.9 C183.45 177.62, 113.84 117.35, 36.4 49.58 M250.74 235.9 C181.21 175.58, 113.66 116.65, 36.4 49.58 M254.12 233.54 C190.16 175.96, 125.86 122.66, 39.02 46.56 M254.12 233.54 C199.68 186.3, 144.1 139.44, 39.02 46.56 M255.99 229.86 C207.84 186.35, 155.57 143.13, 42.4 44.2 M255.99 229.86 C184.96 166.49, 115.11 105.35, 42.4 44.2 M257.86 226.19 C182.04 159.36, 108.49 95.7, 45.03 41.18 M257.86 226.19 C177.06 153.78, 94.75 82.6, 45.03 41.18 M260.48 223.17 C206.28 175.84, 153.74 130.25, 48.41 38.82 M260.48 223.17 C196.25 169.18, 133.41 114.89, 48.41 38.82 M262.35 219.5 C208.34 174.2, 154.86 126.92, 51.03 35.8 M262.35 219.5 C209.1 171.95, 154.79 126.37, 51.03 35.8 M264.22 215.82 C189.97 150.94, 118.63 88.63, 54.41 33.44 M264.22 215.82 C183.41 144.51, 102.86 73.59, 54.41 33.44 M266.84 212.8 C191.64 146.71, 113.75 79.4, 57.79 31.07 M266.84 212.8 C215.52 168.4, 164.77 123.53, 57.79 31.07 M268.71 209.13 C208.53 157.67, 151.38 106.57, 60.41 28.05 M268.71 209.13 C227.18 172.79, 184.46 135.48, 60.41 28.05 M270.58 205.45 C221.26 162.55, 173.95 120.05, 63.79 25.69 M270.58 205.45 C196.5 141.11, 119.64 74.49, 63.79 25.69 M273.21 202.43 C231.72 167.57, 191.77 129.68, 66.42 22.67 M273.21 202.43 C197.78 135.89, 121.16 70.37, 66.42 22.67 M275.08 198.76 C194.84 128.33, 113.49 59.76, 69.8 20.31 M275.08 198.76 C222.57 155.73, 170.85 109.61, 69.8 20.31 M276.95 195.08 C194.39 124.97, 113.35 55.82, 73.93 18.6 M276.95 195.08 C211.34 139.34, 147.24 83.55, 73.93 18.6 M278.06 190.75 C213.48 135.68, 146.37 77.25, 78.06 16.9 M278.06 190.75 C205.37 125.55, 133.06 61.85, 78.06 16.9 M278.42 185.77 C205.72 122.7, 133.11 59.65, 82.2 15.19 M278.42 185.77 C210.36 129.65, 145.44 71.9, 82.2 15.19 M279.54 181.43 C218.52 127.09, 158.67 73.7, 86.33 13.48 M279.54 181.43 C203.34 115.89, 128.19 51.47, 86.33 13.48 M280.65 177.1 C212.34 119.95, 144.48 60.9, 90.46 11.78 M280.65 177.1 C221.5 123.54, 159.43 71.32, 90.46 11.78 M281.77 172.77 C205.73 110.22, 132.61 44.83, 94.6 10.07 M281.77 172.77 C237.46 135.58, 194.11 97.3, 94.6 10.07 M282.88 168.44 C243.18 133.94, 205.97 99.46, 98.73 8.36 M282.88 168.44 C211.24 107.65, 140.13 46.01, 98.73 8.36 M284 164.11 C248.77 132.81, 210.49 101.54, 102.86 6.66 M284 164.11 C242.2 128.36, 199.35 91.71, 102.86 6.66 M285.11 159.78 C227.2 107.97, 165.99 54.93, 107 4.95 M285.11 159.78 C236.38 115.99, 185.28 72.75, 107 4.95 M286.22 155.45 C230.9 108.22, 174.3 60.75, 111.89 3.9 M286.22 155.45 C226.7 103.22, 165.73 49.92, 111.89 3.9 M285.83 149.81 C233.2 103.49, 179.04 58.19, 117.53 3.5 M285.83 149.81 C221.89 93.95, 156.77 37.26, 117.53 3.5 M285.44 144.16 C232.4 101.27, 182.26 54.92, 123.17 3.11 M285.44 144.16 C227.19 93.12, 168.9 42.18, 123.17 3.11 M285.04 138.52 C237.73 95.4, 190.32 57.05, 128.82 2.72 M285.04 138.52 C240.33 100.77, 195.49 62.97, 128.82 2.72 M284.65 132.88 C231.03 84.83, 175.68 38.53, 133.7 1.66 M284.65 132.88 C242.91 97.83, 200.84 61.69, 133.7 1.66 M283.5 126.58 C250.82 96.64, 213.28 63.37, 139.35 1.27 M283.5 126.58 C253.63 100.12, 222.65 74.51, 139.35 1.27 M283.1 120.93 C235.42 81.71, 188.28 36.55, 144.99 0.88 M283.1 120.93 C235.63 77.94, 187.38 37.63, 144.99 0.88 M282.71 115.29 C251.56 88.91, 220.17 61.86, 150.63 0.48 M282.71 115.29 C254.85 91.66, 227.09 67.28, 150.63 0.48 M282.31 109.65 C233.22 65.98, 183.89 24.53, 157.03 0.74 M282.31 109.65 C255.47 85.99, 229.31 62.59, 157.03 0.74 M279.65 102.04 C239.34 67.53, 194.3 29.41, 165.69 2.97 M279.65 102.04 C240.55 68.46, 200.41 33.87, 165.69 2.97 M276.24 93.77 C239.08 60.06, 202.91 28.72, 174.36 5.2 M276.24 93.77 C239.22 59.63, 200.44 26.61, 174.36 5.2 M273.58 86.16 C245.9 60.78, 217.61 39.68, 183.02 7.43 M273.58 86.16 C243.81 61.27, 214.07 34.24, 183.02 7.43 M270.17 77.89 C248.1 58.69, 225.4 38.99, 191.68 9.66 M270.17 77.89 C244.42 56.12, 218.52 31.71, 191.68 9.66 M267.51 70.28 C249.59 56.99, 231.68 40.76, 202.61 13.86 M267.51 70.28 C249.81 54.51, 232.46 40.41, 202.61 13.86 M251.27 50.86 C245.65 46.02, 240.37 39.4, 221.08 24.62 M251.27 50.86 C244.66 45.58, 238.19 38.94, 221.08 24.62" stroke="#3c8cbf" stroke-width="0.5" fill="none"></path><path d="M197.87 11.23 C211.78 14.29, 225.15 24.5, 236.47 33.89 C247.8 43.27, 258.19 54.83, 265.81 67.54 C273.42 80.25, 278.8 95.71, 282.16 110.16 C285.52 124.61, 287.08 139.65, 285.98 154.25 C284.89 168.84, 281.14 184.28, 275.59 197.71 C270.05 211.14, 262.33 223.59, 252.69 234.82 C243.05 246.05, 230.32 257.2, 217.76 265.09 C205.21 272.98, 191.77 278.91, 177.35 282.16 C162.92 285.4, 146.19 285.85, 131.21 284.56 C116.24 283.27, 101.07 279.85, 87.48 274.41 C73.88 268.96, 60.61 261.34, 49.65 251.9 C38.69 242.46, 29.45 230.49, 21.74 217.75 C14.03 205, 6.83 189.82, 3.37 175.42 C-0.08 161.01, -0.31 145.74, 1.02 131.34 C2.35 116.93, 5.74 102.38, 11.34 88.98 C16.95 75.58, 25.12 62.27, 34.63 50.95 C44.15 39.63, 56 28.81, 68.44 21.07 C80.88 13.32, 94.95 8, 109.29 4.48 C123.63 0.95, 138.53 -1.53, 154.49 -0.09 C170.45 1.35, 195.64 9.84, 205.03 13.09 C214.41 16.35, 211.84 17, 210.82 19.44 M97.24 7.16 C109.65 0.74, 126.37 1.14, 141.12 1.12 C155.87 1.09, 171.73 3.04, 185.73 7.02 C199.73 11, 212.98 16.56, 225.13 25 C237.28 33.45, 249.49 45.59, 258.62 57.68 C267.75 69.78, 275.16 83.58, 279.92 97.56 C284.68 111.55, 287.01 127.06, 287.19 141.62 C287.37 156.18, 285.68 170.8, 281.01 184.91 C276.33 199.01, 267.76 214.41, 259.15 226.23 C250.54 238.06, 241.07 247.05, 229.33 255.85 C217.59 264.66, 202.7 274.08, 188.72 279.07 C174.73 284.07, 160.06 285.65, 145.41 285.83 C130.76 286, 115.22 284.7, 100.79 280.12 C86.37 275.54, 70.74 267.28, 58.87 258.34 C47 249.39, 38.03 238.33, 29.58 226.45 C21.13 214.58, 13.16 200.75, 8.18 187.08 C3.19 173.41, -0.19 158.91, -0.33 144.42 C-0.47 129.93, 2.71 114.01, 7.35 100.13 C11.99 86.26, 18.86 72.93, 27.5 61.17 C36.14 49.41, 47.74 38.54, 59.2 29.59 C70.65 20.64, 89.95 10.9, 96.24 7.45 C102.53 4, 95.86 6.83, 96.93 8.89" stroke="#ffffff" stroke-width="1" fill="none"></path></g><g stroke-linecap="round" transform="translate(10.981138481978178 17.369788899034006) rotate(0 143.2886798132339 142.7534287956692)"><path d="M33.45 51.61 C33.45 51.61, 33.45 51.61, 33.45 51.61 M33.45 51.61 C33.45 51.61, 33.45 51.61, 33.45 51.61 M20.73 72.34 C29.24 63.05, 39.26 53.9, 58.78 28.57 M20.73 72.34 C33.62 55.92, 48.58 40.41, 58.78 28.57 M10.63 90.06 C26.37 68.74, 44.67 52.11, 70.33 21.38 M10.63 90.06 C30.6 67.62, 50.84 45.46, 70.33 21.38 M9.05 97.97 C23.08 82.78, 34.66 64.9, 79.25 17.22 M9.05 97.97 C27.76 75.27, 47.89 53.02, 79.25 17.22 M7.48 105.88 C36.87 74.41, 65.09 38.46, 87.52 13.8 M7.48 105.88 C26.03 84.68, 45.96 63.25, 87.52 13.8 M5.91 113.78 C27.27 87.71, 50.57 63.13, 95.79 10.39 M5.91 113.78 C32.19 82.18, 59.7 51.2, 95.79 10.39 M4.33 121.69 C25.37 95.74, 43.1 74.3, 104.05 6.98 M4.33 121.69 C38.58 82.63, 71.48 43.52, 104.05 6.98 M2.76 129.6 C28.36 99.13, 56.56 67.28, 111.01 5.07 M2.76 129.6 C27.11 99.05, 54.32 70.6, 111.01 5.07 M1.84 136.75 C38.33 91.15, 76.84 47.45, 116.65 4.68 M1.84 136.75 C34.79 97.32, 69.52 59.28, 116.65 4.68 M2.24 142.39 C41.85 95.67, 87.18 47.52, 122.95 3.53 M2.24 142.39 C45.14 93.38, 86.21 44.83, 122.95 3.53 M2.63 148.04 C31.25 113.71, 61.96 78.91, 128.59 3.13 M2.63 148.04 C49 94.32, 95.58 40.75, 128.59 3.13 M3.02 153.68 C54.68 94.95, 105.46 39.15, 134.24 2.74 M3.02 153.68 C45.42 104.42, 89.37 55.3, 134.24 2.74 M4.07 158.57 C52.1 102.3, 99.67 46.16, 139.88 2.34 M4.07 158.57 C37.87 118.22, 72.84 79.34, 139.88 2.34 M4.47 164.21 C33.7 127.72, 64.98 94.19, 145.52 1.95 M4.47 164.21 C44.1 118.87, 83.01 74.3, 145.52 1.95 M4.86 169.85 C51.59 115.06, 100.4 58.12, 151.82 0.8 M4.86 169.85 C43.68 122.11, 85.05 74.75, 151.82 0.8 M5.26 175.5 C43.87 130.37, 85.97 84.75, 156.15 1.91 M5.26 175.5 C54.87 116.34, 105.31 57.74, 156.15 1.91 M6.31 180.39 C61.86 115.5, 120.86 46.13, 161.14 2.27 M6.31 180.39 C66.99 112.15, 126.53 43.75, 161.14 2.27 M8.02 184.52 C58.66 123.52, 112.57 64.96, 165.47 3.39 M8.02 184.52 C47.79 138.73, 89.25 91.71, 165.47 3.39 M9.72 188.65 C52.93 139.16, 96.1 89.07, 169.8 4.5 M9.72 188.65 C67.18 123.43, 122.54 59.16, 169.8 4.5 M11.43 192.79 C73.84 121.73, 134.5 52.7, 174.13 5.62 M11.43 192.79 C52.36 146.78, 90.23 101.74, 174.13 5.62 M13.14 196.92 C75.7 126.15, 139.9 52.1, 179.12 5.98 M13.14 196.92 C75.82 126.08, 136.85 55.79, 179.12 5.98 M14.84 201.05 C71.98 133.85, 130.45 68.62, 183.45 7.09 M14.84 201.05 C63.92 145.85, 110.91 92.02, 183.45 7.09 M16.55 205.19 C55.14 160.28, 92.09 115.74, 187.78 8.21 M16.55 205.19 C60.82 153.23, 106.63 100.41, 187.78 8.21 M18.26 209.32 C83.37 133.94, 148.3 59.72, 192.11 9.32 M18.26 209.32 C55.55 163.94, 93.94 120.28, 192.11 9.32 M19.96 213.46 C75.19 147.68, 133.66 79.38, 196.44 10.44 M19.96 213.46 C71.61 156.55, 122.52 97.2, 196.44 10.44 M21.67 217.59 C82.27 146.39, 145.97 72.67, 200.12 12.31 M21.67 217.59 C78.16 153.15, 134.41 87.75, 200.12 12.31 M23.38 221.72 C89.76 145.79, 156.39 70.59, 203.79 14.18 M23.38 221.72 C76.87 158.69, 132.44 95.93, 203.79 14.18 M26.4 224.35 C89.34 154.94, 150.94 82.58, 206.81 16.8 M26.4 224.35 C70.62 171.4, 116.06 119.04, 206.81 16.8 M28.76 227.73 C98.82 146.11, 174.16 62.47, 210.49 18.67 M28.76 227.73 C68.94 184.62, 107.32 139.65, 210.49 18.67 M31.78 230.35 C105.42 145.43, 178.11 62.87, 214.16 20.54 M31.78 230.35 C93.35 158.66, 156.34 87.08, 214.16 20.54 M34.14 233.73 C82.02 177.94, 132.38 122.98, 217.84 22.41 M34.14 233.73 C96.03 161.55, 158.86 89.34, 217.84 22.41 M37.16 236.35 C98.79 163.28, 161.5 91.92, 221.51 24.28 M37.16 236.35 C94.72 169.62, 153.38 102.48, 221.51 24.28 M39.52 239.73 C105.52 162.63, 173.07 86.44, 224.53 26.9 M39.52 239.73 C80.29 189.65, 123.87 141.44, 224.53 26.9 M42.54 242.36 C112.73 160.58, 181.42 82.52, 228.2 28.77 M42.54 242.36 C105.97 171.69, 169.69 98.56, 228.2 28.77 M44.9 245.74 C101.11 183.95, 153.22 122.87, 231.88 30.64 M44.9 245.74 C92.57 190.15, 139.73 135.74, 231.88 30.64 M47.27 249.11 C96.83 193.4, 143.97 137.48, 235.55 32.51 M47.27 249.11 C121.74 166.28, 194.29 81.16, 235.55 32.51 M50.28 251.74 C123.48 167.42, 197.98 80.46, 237.92 35.89 M50.28 251.74 C87.82 205.36, 127.29 160.44, 237.92 35.89 M53.3 254.36 C117.66 179.56, 180.44 103.39, 240.94 38.52 M53.3 254.36 C106.15 194.19, 159.27 133.23, 240.94 38.52 M56.98 256.23 C97.54 210.53, 137.13 164.93, 243.3 41.9 M56.98 256.23 C117.75 187.41, 177.49 117.7, 243.3 41.9 M60.65 258.1 C124.86 183.22, 189.87 105.84, 245.66 45.27 M60.65 258.1 C108.17 206.34, 153.22 153.31, 245.66 45.27 M63.67 260.73 C109.84 206.46, 160.47 148.75, 248.68 47.9 M63.67 260.73 C107.14 209.75, 150.55 159.88, 248.68 47.9 M67.35 262.6 C137.01 180.35, 208.34 100.47, 251.04 51.28 M67.35 262.6 C130.86 190.13, 196.18 116.17, 251.04 51.28 M71.02 264.47 C112.6 218.04, 153.37 170.51, 254.06 53.9 M71.02 264.47 C112.17 218.63, 152.66 172.59, 254.06 53.9 M74.7 266.33 C129.47 202.02, 185.35 138.67, 256.43 57.28 M74.7 266.33 C124.81 207.7, 174.87 150.49, 256.43 57.28 M78.37 268.2 C138.41 195.78, 200.35 124.69, 259.44 59.9 M78.37 268.2 C147.78 188.42, 215.45 109.34, 259.44 59.9 M82.05 270.07 C144.88 195.65, 210.01 120.67, 261.81 63.28 M82.05 270.07 C139.99 203.72, 198.59 136.13, 261.81 63.28 M85.72 271.94 C131.58 215.07, 180.54 161.87, 264.83 65.91 M85.72 271.94 C126.17 222.15, 168.52 174.96, 264.83 65.91 M89.4 273.81 C155.09 197.49, 222.75 119.1, 266.53 70.04 M89.4 273.81 C131.85 225.34, 174.02 176.22, 266.53 70.04 M93.07 275.68 C128.19 234.07, 166.11 195.4, 268.24 74.18 M93.07 275.68 C150.6 208.68, 207.88 143.04, 268.24 74.18 M97.4 276.8 C158.17 206.47, 219.09 135.55, 269.95 78.31 M97.4 276.8 C164.87 202.2, 229.8 125.17, 269.95 78.31 M101.73 277.91 C159.3 213.7, 214.77 148.37, 271.65 82.44 M101.73 277.91 C144.15 232.23, 183.39 187.07, 271.65 82.44 M106.06 279.03 C148.73 228.74, 191.4 178.98, 273.36 86.58 M106.06 279.03 C162.56 214.7, 217.93 150.51, 273.36 86.58 M110.4 280.14 C146.56 237.75, 180.51 199.43, 275.07 90.71 M110.4 280.14 C167.11 212.82, 226.55 145.59, 275.07 90.71 M114.73 281.26 C149.41 240.37, 188.92 198.39, 276.77 94.84 M114.73 281.26 C163.96 225.33, 212.35 169.55, 276.77 94.84 M119.06 282.37 C180.36 211.72, 241.01 140.57, 278.48 98.98 M119.06 282.37 C167.93 225.87, 216.7 169.41, 278.48 98.98 M123.39 283.49 C185.79 210.8, 249.99 141.24, 280.19 103.11 M123.39 283.49 C173.81 226, 223.82 168.94, 280.19 103.11 M127.72 284.6 C181.91 219.92, 235.44 160.12, 281.89 107.24 M127.72 284.6 C177.77 222.84, 229.91 163.88, 281.89 107.24 M132.05 285.72 C170.43 242.02, 208.97 196.17, 282.94 112.13 M132.05 285.72 C171.18 239.67, 208.4 196.33, 282.94 112.13 M137.04 286.08 C197.4 219, 255.89 152.11, 283.34 117.78 M137.04 286.08 C183.59 232.48, 231.34 177.74, 283.34 117.78 M143.34 284.93 C182.67 237.34, 222.76 191.48, 283.73 123.42 M143.34 284.93 C197.89 221.98, 253.57 158.92, 283.73 123.42 M148.98 284.53 C199.34 226.65, 251.26 164.28, 284.13 129.06 M148.98 284.53 C195.45 228.44, 244.54 174.16, 284.13 129.06 M154.62 284.14 C195.25 236.66, 239.39 188.93, 284.52 134.71 M154.62 284.14 C183.95 251.23, 213.16 216.06, 284.52 134.71 M160.92 282.99 C203.59 232.83, 246.29 183.84, 284.92 140.35 M160.92 282.99 C203.8 233, 248.98 180.84, 284.92 140.35 M166.56 282.59 C213.33 230.16, 255.52 178.55, 285.31 145.99 M166.56 282.59 C202 241.49, 239.04 199.25, 285.31 145.99 M172.86 281.44 C205.64 244.42, 240.24 206.59, 285.71 151.63 M172.86 281.44 C205.62 243.97, 237.46 207.79, 285.71 151.63 M179.16 280.29 C209.4 246.29, 238 213.99, 284.13 159.54 M179.16 280.29 C221.82 233.58, 261.56 186.08, 284.13 159.54 M187.43 276.88 C226.02 234.41, 264.3 188.03, 283.21 166.69 M187.43 276.88 C215.63 242.8, 244.39 210.23, 283.21 166.69 M196.35 272.71 C229.25 238.09, 258.04 200.91, 281.64 174.6 M196.35 272.71 C219.27 246.06, 240.98 219.83, 281.64 174.6 M205.28 268.55 C221.64 247.8, 239.02 227.82, 280.07 182.51 M205.28 268.55 C221.29 249.59, 237.02 233.38, 280.07 182.51 M213.54 265.13 C228.21 249.1, 241.35 234.39, 278.49 190.42 M213.54 265.13 C234.33 239.71, 257.49 214.87, 278.49 190.42 M225.09 257.94 C239.64 241.44, 258.95 220.56, 274.3 201.34 M225.09 257.94 C235.48 246.25, 246.43 232.09, 274.3 201.34 M245.17 240.95 C249.96 234.88, 255.75 229.29, 261.57 222.08 M245.17 240.95 C248.96 236.55, 253.44 232.08, 261.57 222.08 M51.41 253.33 C51.41 253.33, 51.41 253.33, 51.41 253.33 M51.41 253.33 C51.41 253.33, 51.41 253.33, 51.41 253.33 M67.62 262.12 C60.36 254.82, 53.35 248.05, 32.9 231.94 M67.62 262.12 C55.7 252.5, 43.21 240.84, 32.9 231.94 M83.83 270.91 C64.36 256.79, 49.36 237.71, 23.45 218.42 M83.83 270.91 C61.29 250.66, 38 230.71, 23.45 218.42 M92.49 273.14 C67.65 253.63, 43 233.78, 20.04 210.16 M92.49 273.14 C71.45 254.61, 52.55 238.07, 20.04 210.16 M101.15 275.37 C81.6 257.18, 59.95 240.66, 16.63 201.89 M101.15 275.37 C69.96 247.81, 39.31 221.57, 16.63 201.89 M109.82 277.6 C71.79 243.57, 32.27 209.98, 13.21 193.62 M109.82 277.6 C83.86 255.19, 58.73 233.84, 13.21 193.62 M118.48 279.83 C87.83 255.48, 56.8 228.24, 9.8 185.36 M118.48 279.83 C86.05 252.28, 55.04 224.3, 9.8 185.36 M127.14 282.06 C93.35 249.84, 55.98 221.48, 6.39 177.09 M127.14 282.06 C79.69 240.92, 32.83 199.8, 6.39 177.09 M136.56 284.94 C101.12 255.59, 62.01 222.58, 5.99 171.44 M136.56 284.94 C103.63 255.91, 69.86 228.16, 5.99 171.44 M141.44 283.89 C101.76 246.97, 58.23 212.61, 5.6 165.8 M141.44 283.89 C98.57 249.32, 57.12 212.67, 5.6 165.8 M147.09 283.5 C94.84 239.41, 43.7 193.34, 5.2 160.16 M147.09 283.5 C110.7 251.82, 74.21 221.56, 5.2 160.16 M151.98 282.45 C96.91 235.81, 45.16 189.44, 4.81 154.52 M151.98 282.45 C119.69 252.45, 84.35 221.59, 4.81 154.52 M157.62 282.05 C120.49 248.8, 78.72 214.4, 3.66 148.22 M157.62 282.05 C107.35 240.13, 58.44 196.14, 3.66 148.22 M163.26 281.66 C129.56 250.79, 94.93 223.99, 3.26 142.57 M163.26 281.66 C106.3 232.55, 49.08 181.03, 3.26 142.57 M168.15 280.61 C111.94 231.31, 57.83 185.24, 2.87 136.93 M168.15 280.61 C129.89 247.19, 90.25 212.84, 2.87 136.93 M173.79 280.21 C134.88 247.79, 93.94 214.94, 3.23 131.94 M173.79 280.21 C129.12 242.4, 82.49 202.76, 3.23 131.94 M179.44 279.82 C118.83 223.03, 54.43 168.35, 4.34 127.61 M179.44 279.82 C118.63 227.19, 56.5 174.6, 4.34 127.61 M183.57 278.11 C147.85 247.41, 109.96 215.12, 4.7 122.63 M183.57 278.11 C129.93 231.37, 76.95 185.46, 4.7 122.63 M187.7 276.4 C124.07 218.48, 60.31 163.23, 5.82 118.29 M187.7 276.4 C151.1 244.53, 113.97 211.51, 5.82 118.29 M191.84 274.7 C124.2 219.01, 56.88 160.26, 6.93 113.96 M191.84 274.7 C122.26 213.56, 53.24 154.38, 6.93 113.96 M195.97 272.99 C128.88 213.54, 61.58 154.54, 7.29 108.98 M195.97 272.99 C139.76 224.77, 82.77 175.65, 7.29 108.98 M199.35 270.63 C132.53 211.46, 65.38 155.8, 8.41 104.65 M199.35 270.63 C123.24 206.73, 47.62 140.86, 8.41 104.65 M203.48 268.92 C158.54 230.94, 116.38 193.8, 9.52 100.31 M203.48 268.92 C139.07 213.46, 73.74 156.67, 9.52 100.31 M207.62 267.22 C162.09 225.96, 115.39 184.89, 10.64 95.98 M207.62 267.22 C163.43 227.66, 119.38 188.84, 10.64 95.98 M211.75 265.51 C166.65 224.53, 118.23 184.78, 11 91 M211.75 265.51 C141.76 203.55, 72.01 141.73, 11 91 M215.89 263.8 C148.53 208.45, 82.3 150.26, 12.11 86.67 M215.89 263.8 C152.42 209.1, 88.06 152.64, 12.11 86.67 M220.02 262.09 C156.41 206.49, 95.4 152.62, 14.74 83.65 M220.02 262.09 C138.04 190.89, 58.21 121.12, 14.74 83.65 M223.4 259.73 C152.18 199.13, 84.18 138.86, 16.61 79.97 M223.4 259.73 C165.42 207.64, 105.39 155.62, 16.61 79.97 M226.02 256.71 C149.35 188.39, 71.86 121.81, 18.48 76.3 M226.02 256.71 C170.58 208.58, 115.35 160.14, 18.48 76.3 M229.4 254.35 C184.96 215.93, 139.68 176.65, 21.1 73.28 M229.4 254.35 C159.4 194.18, 90.07 134.36, 21.1 73.28 M232.03 251.33 C151.58 179.12, 69.99 109.76, 22.97 69.6 M232.03 251.33 C157.4 184.23, 82.19 119.36, 22.97 69.6 M235.4 248.97 C166.01 188.94, 94.54 123.93, 24.84 65.93 M235.4 248.97 C187.07 205.62, 137.79 162.78, 24.84 65.93 M238.78 246.61 C168.57 185.51, 96.8 124.1, 27.46 62.91 M238.78 246.61 C190.47 205.43, 142.78 163.61, 27.46 62.91 M241.41 243.59 C175.46 186.42, 112.07 133.06, 29.33 59.23 M241.41 243.59 C172.85 183.25, 104.46 123.34, 29.33 59.23 M244.79 241.22 C193.26 197.04, 142.5 154.44, 31.2 55.56 M244.79 241.22 C202.16 202.8, 159.02 165.41, 31.2 55.56 M247.41 238.21 C179.88 178.73, 110.62 119.59, 33.83 52.54 M247.41 238.21 C175.91 174.52, 103.69 111.98, 33.83 52.54 M250.79 235.84 C183.66 175.83, 113.72 117.69, 35.7 48.87 M250.79 235.84 C165.92 162.32, 81.05 87.69, 35.7 48.87 M254.17 233.48 C199.48 184.57, 147.7 138.03, 39.08 46.5 M254.17 233.48 C175.8 166.89, 98.36 99.33, 39.08 46.5 M256.79 230.46 C205.72 185.19, 154.13 141.91, 41.7 43.48 M256.79 230.46 C194.71 175, 132.04 120.38, 41.7 43.48 M258.66 226.79 C181.49 160.97, 105.7 93.74, 45.08 41.12 M258.66 226.79 C201.43 178.09, 143.61 127.29, 45.08 41.12 M260.53 223.11 C197.84 167.37, 136.81 114.68, 47.7 38.1 M260.53 223.11 C185.63 156.9, 111.51 91.97, 47.7 38.1 M263.16 220.09 C187.71 153.81, 111.88 89.37, 50.33 35.08 M263.16 220.09 C197.03 163.18, 131.8 106.33, 50.33 35.08 M265.03 216.42 C186.55 149.17, 108.85 80.47, 53.71 32.72 M265.03 216.42 C221.71 178.79, 178.76 141.1, 53.71 32.72 M266.89 212.74 C196.31 151.23, 123.65 89.18, 56.33 29.7 M266.89 212.74 C203.77 156.12, 139.07 100.49, 56.33 29.7 M269.52 209.72 C219.95 168.01, 173.02 123.67, 59.71 27.34 M269.52 209.72 C212.97 163.96, 157.94 115.2, 59.71 27.34 M271.39 206.05 C214.91 156.39, 157.6 106.55, 62.33 24.32 M271.39 206.05 C219.96 161.71, 167.28 116.8, 62.33 24.32 M273.26 202.37 C228.9 163.39, 182.97 125.39, 65.71 21.96 M273.26 202.37 C208.86 147.03, 145.36 92.96, 65.71 21.96 M275.88 199.36 C206.24 141.51, 139.86 81.35, 69.85 20.25 M275.88 199.36 C210.89 141.93, 145.75 87.6, 69.85 20.25 M277.75 195.68 C211.88 137.58, 149.36 83.66, 73.98 18.54 M277.75 195.68 C215.03 140.98, 154.42 88, 73.98 18.54 M278.11 190.69 C218.37 139.26, 156.65 87.8, 78.11 16.84 M278.11 190.69 C230.89 147.96, 182.32 106.2, 78.11 16.84 M279.23 186.36 C212.76 126.51, 145.37 70.58, 82.25 15.13 M279.23 186.36 C204.8 121.46, 130.9 56.77, 82.25 15.13 M280.34 182.03 C239.17 144.42, 197.19 110.04, 86.38 13.42 M280.34 182.03 C209.26 120.11, 139.95 59.99, 86.38 13.42 M280.7 177.04 C218.93 124.16, 157.63 70.6, 90.52 11.72 M280.7 177.04 C234.79 137.93, 189.78 99.99, 90.52 11.72 M281.82 172.71 C223.19 120.83, 164.21 68.83, 94.65 10.01 M281.82 172.71 C212.26 113.23, 143.08 52.68, 94.65 10.01 M282.93 168.38 C222.93 117.31, 162.1 64.66, 98.78 8.3 M282.93 168.38 C213.62 107.74, 143.84 46.73, 98.78 8.3 M283.29 163.4 C234.43 120.4, 186.2 78.53, 102.92 6.6 M283.29 163.4 C224.16 111.84, 164.52 61.24, 102.92 6.6 M284.41 159.06 C244.06 123.4, 201.18 86.95, 107.05 4.89 M284.41 159.06 C239.9 121.26, 195.84 83.3, 107.05 4.89 M285.52 154.73 C217.81 96.92, 151.3 39.73, 109.67 1.87 M285.52 154.73 C234.91 109.87, 182.02 65.57, 109.67 1.87 M286.64 150.4 C226.76 97.32, 165.94 45.8, 115.32 1.48 M286.64 150.4 C237.36 107.02, 187.03 64.81, 115.32 1.48 M286.24 144.76 C225.27 92.77, 162.58 38.63, 120.96 1.08 M286.24 144.76 C239.85 102.19, 192.26 62.22, 120.96 1.08 M285.85 139.12 C248.37 106.35, 214.77 74.77, 126.6 0.69 M285.85 139.12 C236 95.82, 188.31 54.91, 126.6 0.69 M285.45 133.47 C226.83 82.42, 167.77 30.54, 132.25 0.29 M285.45 133.47 C239.26 95.03, 194.42 54.67, 132.25 0.29 M284.3 127.17 C256.21 99.5, 222.43 72.59, 137.13 -0.76 M284.3 127.17 C243.34 90.98, 202.85 56.25, 137.13 -0.76 M283.91 121.53 C256.74 96.03, 224.67 72.07, 142.78 -1.15 M283.91 121.53 C242.31 84.73, 201.12 47.57, 142.78 -1.15 M283.51 115.89 C246.18 81.89, 207.99 47.53, 148.42 -1.55 M283.51 115.89 C232.26 72.06, 181.01 29.21, 148.42 -1.55 M283.12 110.25 C253.38 83.78, 226.97 60.16, 154.06 -1.94 M283.12 110.25 C252.72 82.68, 221.34 55.67, 154.06 -1.94 M284.23 105.91 C254.67 77.38, 221.46 52.7, 161.97 -0.37 M284.23 105.91 C246.1 72.24, 206.41 38.67, 161.97 -0.37 M280.07 96.99 C252.99 71.38, 226.68 51.86, 169.88 1.21 M280.07 96.99 C252.24 73.91, 225.04 50.22, 169.88 1.21 M276.65 88.72 C239.83 55.76, 205.59 25.34, 177.79 2.78 M276.65 88.72 C254.35 67.06, 230.06 47.97, 177.79 2.78 M273.24 80.46 C244.48 56.1, 215.49 31.2, 185.69 4.35 M273.24 80.46 C255.86 63.89, 235.73 47.92, 185.69 4.35 M269.07 71.53 C249.29 51.67, 227.27 34.55, 195.86 7.9 M269.07 71.53 C240.86 47.36, 213.53 21.45, 195.86 7.9 M266.41 63.92 C247.91 49.93, 228.2 30.22, 214.34 18.65 M266.41 63.92 C246 46.54, 224.36 27.65, 214.34 18.65" stroke="#3c8cbf" stroke-width="0.5" fill="none"></path><path d="M107.71 4.6 C120.52 -0.98, 137.07 -0.25, 151.63 0.56 C166.19 1.37, 181.17 4.13, 195.07 9.44 C208.97 14.75, 223.5 23.02, 235.04 32.44 C246.59 41.87, 256.45 53.49, 264.31 66 C272.18 78.51, 278.7 93.31, 282.24 107.5 C285.79 121.69, 286.44 136.43, 285.59 151.14 C284.75 165.85, 282.37 182.15, 277.18 195.76 C271.99 209.37, 264 221.73, 254.44 232.81 C244.87 243.89, 232.37 254.32, 219.8 262.26 C207.22 270.2, 193.09 276.51, 178.99 280.45 C164.9 284.4, 149.84 286.83, 135.23 285.92 C120.61 285.01, 105.22 280.42, 91.29 275.02 C77.35 269.61, 63.09 262.68, 51.6 253.49 C40.11 244.3, 30.02 232.33, 22.34 219.87 C14.66 207.41, 9.03 193.07, 5.52 178.75 C2.01 164.44, 0.5 148.82, 1.25 133.99 C2.01 119.17, 4.71 103.5, 10.04 89.8 C15.38 76.11, 23.98 63.09, 33.26 51.83 C42.55 40.56, 51.22 30.53, 65.74 22.22 C80.27 13.9, 108.86 5.12, 120.42 1.91 C131.98 -1.29, 134.44 0.77, 135.1 2.98 M159.07 0.33 C173.45 -0.36, 190.13 6.49, 203.71 12.49 C217.28 18.49, 230.03 26.3, 240.52 36.34 C251 46.37, 259.4 59.59, 266.61 72.71 C273.82 85.82, 280.55 100.58, 283.79 115.03 C287.04 129.49, 287.7 144.79, 286.1 159.42 C284.5 174.05, 280.44 189.69, 274.18 202.8 C267.92 215.92, 258.46 227.34, 248.56 238.12 C238.67 248.9, 227.82 260.12, 214.81 267.48 C201.81 274.83, 184.95 279.31, 170.52 282.25 C156.09 285.2, 142.61 286.68, 128.24 285.13 C113.87 283.58, 97.73 279.39, 84.31 272.97 C70.88 266.54, 58.77 256.35, 47.69 246.59 C36.6 236.83, 25.51 226.85, 17.8 214.42 C10.09 201.99, 4.44 186.67, 1.41 171.99 C-1.62 157.32, -2.3 140.95, -0.38 126.37 C1.54 111.78, 6.61 97.63, 12.93 84.48 C19.25 71.33, 27.42 58.21, 37.55 47.46 C47.67 36.71, 60.59 27.62, 73.66 19.98 C86.73 12.34, 101.71 5.06, 115.99 1.63 C130.27 -1.79, 152.39 -1.02, 159.35 -0.58 C166.31 -0.13, 158.23 1.73, 157.77 4.31" stroke="#ffffff" stroke-width="1" fill="none"></path></g><g stroke-linecap="round" transform="translate(160.37828793270273 48.202890725659245) rotate(0 81.22202910239724 80.86519509068751)"><path d="M19.93 26.6 C19.93 26.6, 19.93 26.6, 19.93 26.6 M19.93 26.6 C19.93 26.6, 19.93 26.6, 19.93 26.6 M12.45 41.3 C16.61 36.41, 20.07 31.11, 33.45 17.15 M12.45 41.3 C19.88 32.11, 28.02 23.95, 33.45 17.15 M4.98 56 C13.52 45.75, 23.8 32.8, 46.31 8.45 M4.98 56 C19.85 40.29, 33.58 23.23, 46.31 8.45 M7.34 59.38 C22.72 42.45, 34.24 26.98, 50.64 9.57 M7.34 59.38 C23.8 41.72, 39.95 22.97, 50.64 9.57 M6.42 66.53 C22.71 50.68, 33.6 34.5, 56.94 8.42 M6.42 66.53 C21.19 47.7, 37.83 30.55, 56.94 8.42 M5.5 73.68 C18.55 59.36, 34.47 41.27, 63.24 7.27 M5.5 73.68 C21.71 53.63, 37.34 36.32, 63.24 7.27 M4.59 80.84 C19.65 66.33, 29.6 49.91, 69.54 6.12 M4.59 80.84 C28.46 54.24, 50.6 28.85, 69.54 6.12 M1.04 91.01 C23.18 65.73, 42.48 43.46, 75.83 4.97 M1.04 91.01 C24.38 63.5, 50.33 35.78, 75.83 4.97 M2.09 95.9 C24.32 69.41, 48.19 40.6, 82.79 3.07 M2.09 95.9 C25.85 68.88, 49.14 41.81, 82.79 3.07 M3.8 100.03 C38.74 64.18, 70.05 27.21, 87.78 3.43 M3.8 100.03 C31.68 68.19, 60.59 36.4, 87.78 3.43 M5.51 104.16 C33.56 75.34, 60.08 43.18, 92.11 4.54 M5.51 104.16 C36.33 70.81, 64.95 36.33, 92.11 4.54 M6.56 109.05 C29.9 79.05, 55.01 50.88, 97.1 4.9 M6.56 109.05 C33.52 78.33, 60.79 48.06, 97.1 4.9 M8.27 113.19 C45.37 70.37, 85.1 27.74, 101.43 6.02 M8.27 113.19 C33.6 85.39, 58.18 55.49, 101.43 6.02 M9.32 118.07 C44.16 81.13, 75.94 41.24, 106.41 6.38 M9.32 118.07 C45.14 76.15, 81.66 35.01, 106.41 6.38 M11.02 122.21 C46.61 83.1, 80.2 43.78, 110.74 7.49 M11.02 122.21 C37.01 93.77, 62.57 64.02, 110.74 7.49 M14.04 124.83 C51.07 83.76, 86.19 42.58, 115.73 7.85 M14.04 124.83 C46.93 86.63, 79.97 49.52, 115.73 7.85 M16.4 128.21 C56.07 82.56, 92.56 41.25, 118.75 10.48 M16.4 128.21 C40.93 101.81, 64.45 74.85, 118.75 10.48 M19.42 130.84 C57.19 86.03, 95.82 46.33, 122.42 12.35 M19.42 130.84 C47.34 97.99, 75.88 66.46, 122.42 12.35 M21.79 134.21 C53.54 98.63, 84.6 61.75, 125.44 14.97 M21.79 134.21 C53.55 99.93, 82.89 65.74, 125.44 14.97 M24.81 136.84 C46.63 112.84, 68.27 88.31, 129.12 16.84 M24.81 136.84 C55.48 101.18, 86.64 64.99, 129.12 16.84 M27.17 140.22 C68.21 93.08, 111.11 41.31, 132.14 19.46 M27.17 140.22 C62.22 100.35, 96.63 59.23, 132.14 19.46 M30.19 142.84 C65.27 99.29, 104.68 56.96, 135.16 22.09 M30.19 142.84 C61.57 106.7, 91.9 72.14, 135.16 22.09 M33.21 145.47 C69.31 104.7, 106.5 62.53, 138.83 23.96 M33.21 145.47 C55.59 121.04, 77.99 93.9, 138.83 23.96 M36.22 148.09 C67.84 112.26, 97.76 77.05, 141.85 26.58 M36.22 148.09 C65.22 113.27, 95.18 80.02, 141.85 26.58 M39.9 149.96 C66.92 118.48, 94.19 87.41, 144.21 29.96 M39.9 149.96 C77.72 106.93, 115.18 63.74, 144.21 29.96 M43.57 151.83 C82.29 107.55, 122.1 64.9, 145.92 34.09 M43.57 151.83 C76.12 113.87, 108.11 77.49, 145.92 34.09 M47.25 153.7 C74.19 121.85, 99.86 92.67, 148.28 37.47 M47.25 153.7 C87.82 106.91, 126.85 62.42, 148.28 37.47 M50.92 155.57 C82.73 117.48, 117.17 79.17, 149.99 41.61 M50.92 155.57 C87.35 114.68, 123.13 73.28, 149.99 41.61 M55.25 156.68 C87.67 122.18, 117.93 84.48, 152.35 44.99 M55.25 156.68 C82.55 124.28, 108.39 94.53, 152.35 44.99 M58.93 158.55 C88.29 123.41, 121.9 90.79, 154.06 49.12 M58.93 158.55 C80.65 135.64, 98.63 112.05, 154.06 49.12 M62.6 160.42 C81.83 136.89, 104.73 113.47, 156.42 52.5 M62.6 160.42 C99.42 118.69, 135.74 75.95, 156.42 52.5 M66.94 161.54 C100.08 125.42, 131.13 86.22, 158.13 56.63 M66.94 161.54 C104.53 120.32, 140.41 78.17, 158.13 56.63 M71.92 161.9 C105.08 124.77, 136.21 89.3, 159.18 61.52 M71.92 161.9 C94.31 136.59, 118.15 110.59, 159.18 61.52 M77.57 161.5 C99.52 136.88, 119.21 116.47, 159.57 67.16 M77.57 161.5 C98.01 138.93, 117.82 115.23, 159.57 67.16 M82.55 161.86 C116.13 126.96, 146.93 90.39, 160.62 72.05 M82.55 161.86 C113.12 127.29, 144.16 90.26, 160.62 72.05 M88.2 161.47 C109.09 137.77, 126.3 116.33, 161.02 77.7 M88.2 161.47 C106.02 140.33, 125.19 117.73, 161.02 77.7 M93.84 161.07 C119.81 131.16, 143.36 101.72, 161.41 83.34 M93.84 161.07 C111.79 139.29, 132.38 117.12, 161.41 83.34 M99.48 160.68 C114.24 140.92, 132.72 125.47, 162.46 88.23 M99.48 160.68 C118.93 137.83, 136.95 116.79, 162.46 88.23 M108.41 156.51 C130.3 132.04, 152.72 107.89, 164.83 91.61 M108.41 156.51 C128.25 131.39, 149.82 107.75, 164.83 91.61 M117.33 152.34 C132.19 136.14, 144.98 119.95, 161.94 101.02 M117.33 152.34 C127.19 141.36, 137.55 128.03, 161.94 101.02 M126.25 148.17 C136.36 133.71, 149.13 125, 159.06 110.44 M126.25 148.17 C135.95 135.64, 145.71 124.48, 159.06 110.44 M33.27 146.16 C33.27 146.16, 33.27 146.16, 33.27 146.16 M33.27 146.16 C33.27 146.16, 33.27 146.16, 33.27 146.16 M45.71 151.67 C31.46 142.37, 21 129.21, 10.99 121.49 M45.71 151.67 C35.5 143.28, 25.45 132.99, 10.99 121.49 M58.14 157.18 C46.47 144.43, 29.7 135.86, 8.33 113.88 M58.14 157.18 C42.36 143.27, 26.78 129.75, 8.33 113.88 M67.56 160.07 C51.06 144.93, 32.69 130.04, 5.67 106.27 M67.56 160.07 C53.66 147.38, 39.36 136.29, 5.67 106.27 M73.96 160.33 C52.48 143.84, 34.49 126.44, 3.01 98.66 M73.96 160.33 C59.17 147.43, 44.33 133.37, 3.01 98.66 M79.6 159.93 C48.55 133.92, 20.51 106.54, 1.11 91.7 M79.6 159.93 C62.73 144.55, 44.95 128.89, 1.11 91.7 M86 160.19 C62.78 139.92, 42.65 122.2, 0.72 86.06 M86 160.19 C65.05 140.65, 43.45 122.93, 0.72 86.06 M91.64 159.8 C66.53 138.16, 38.57 112.2, 1.83 81.73 M91.64 159.8 C69.85 140.16, 48.98 121.76, 1.83 81.73 M98.04 160.06 C61.9 126.42, 23.58 96.47, 2.19 76.74 M98.04 160.06 C78.04 142.64, 56.54 124.26, 2.19 76.74 M102.17 158.35 C64.74 126.33, 24.93 90.59, 3.31 72.41 M102.17 158.35 C75 135.53, 48.63 111.15, 3.31 72.41 M106.31 156.65 C63.09 121.41, 21.88 84.34, 3.67 67.42 M106.31 156.65 C75.34 128.73, 43.93 101.91, 3.67 67.42 M109.69 154.28 C69.55 116.51, 26.33 81.73, 4.03 62.44 M109.69 154.28 C74.97 125.15, 40.65 95.39, 4.03 62.44 M113.82 152.58 C84.94 126.45, 58.35 104.98, 5.14 58.1 M113.82 152.58 C81.28 122.78, 47.45 92.85, 5.14 58.1 M117.95 150.87 C90.31 126.04, 63.85 101.87, 6.26 53.77 M117.95 150.87 C92.22 129.06, 64.42 106.88, 6.26 53.77 M121.33 148.51 C93.76 125.01, 64.66 99.95, 8.12 50.1 M121.33 148.51 C86.05 117.7, 50.46 87.44, 8.12 50.1 M125.47 146.8 C97.32 124.1, 69.72 98.78, 9.99 46.42 M125.47 146.8 C96.71 121.65, 65.4 94.87, 9.99 46.42 M129.6 145.09 C99.08 117.54, 67.23 89.64, 11.86 42.75 M129.6 145.09 C88.64 108.63, 46.35 72.09, 11.86 42.75 M132.22 142.08 C105.66 116.27, 77.8 91.63, 13.73 39.07 M132.22 142.08 C97.52 111.47, 63.72 83.15, 13.73 39.07 M134.85 139.06 C90.85 100.57, 43.32 59.22, 15.6 35.4 M134.85 139.06 C91.33 102.04, 47.41 63.38, 15.6 35.4 M138.23 136.69 C101.77 106.66, 66.59 77.82, 17.47 31.72 M138.23 136.69 C110.78 113.2, 83.58 88.8, 17.47 31.72 M140.85 133.68 C114.02 113.58, 90.53 87.71, 19.34 28.05 M140.85 133.68 C109.53 107.24, 80.69 80.87, 19.34 28.05 M143.47 130.66 C117.97 107.88, 87.87 83.1, 21.97 25.03 M143.47 130.66 C117.66 108.49, 93.43 86.55, 21.97 25.03 M146.1 127.64 C99.58 89.86, 57.44 47.95, 25.35 22.67 M146.1 127.64 C104.16 91.92, 63.41 53.63, 25.35 22.67 M148.72 124.62 C120.01 101.82, 93.59 75.11, 28.72 20.31 M148.72 124.62 C100.94 82.42, 53.98 39.7, 28.72 20.31 M151.35 121.6 C122.87 95.48, 90.86 68.32, 32.1 17.94 M151.35 121.6 C121.79 96.34, 92.17 71.07, 32.1 17.94 M153.22 117.93 C121.53 87.63, 86.4 58.1, 35.48 15.58 M153.22 117.93 C108.87 80.99, 64.55 40.5, 35.48 15.58 M154.33 113.59 C110.29 75.35, 64.52 34.25, 38.86 13.22 M154.33 113.59 C114.28 80.31, 76.86 46.91, 38.86 13.22 M155.45 109.26 C119.23 78.22, 79.8 45.38, 42.24 10.85 M155.45 109.26 C114.07 73.04, 73.87 38.96, 42.24 10.85 M156.56 104.93 C119.25 69.87, 80.16 39.82, 45.62 8.49 M156.56 104.93 C130.02 80.17, 102.71 58.39, 45.62 8.49 M158.43 101.26 C129.49 72.09, 95.85 48.55, 49.75 6.78 M158.43 101.26 C118 67.26, 77.84 32.54, 49.75 6.78 M159.55 96.93 C138.76 78.9, 114.42 58.89, 54.64 5.73 M159.55 96.93 C137 78.19, 116.14 59.69, 54.64 5.73 M160.66 92.6 C132.28 69.47, 105.83 45.04, 59.53 4.68 M160.66 92.6 C132.22 67.43, 103.07 43.77, 59.53 4.68 M162.53 88.92 C135.89 67.7, 110.14 40.9, 64.42 3.63 M162.53 88.92 C132.89 63.93, 103.62 37.77, 64.42 3.63 M161.38 82.62 C133.52 59.42, 102.41 32.07, 69.31 2.58 M161.38 82.62 C127.57 51.85, 93.97 22.09, 69.31 2.58 M160.99 76.98 C127.06 48.09, 92.26 20.22, 74.95 2.19 M160.99 76.98 C142.21 59.37, 122.23 42.79, 74.95 2.19 M159.84 70.68 C136.32 49.77, 113.87 29.14, 79.84 1.14 M159.84 70.68 C131.61 47.97, 104.65 23.46, 79.84 1.14 M159.44 65.04 C145.12 51.8, 127.79 39.55, 86.99 2.05 M159.44 65.04 C136.3 45.35, 113.86 25.9, 86.99 2.05 M158.29 58.74 C143.05 45.27, 132.32 35.74, 94.14 2.97 M158.29 58.74 C135.89 38.62, 113.09 20.5, 94.14 2.97 M154.88 50.47 C137.84 34.95, 119.42 20.55, 102.05 4.55 M154.88 50.47 C138.45 37.4, 123.4 23.03, 102.05 4.55 M149.96 40.89 C139.01 31.46, 126 18.26, 109.2 5.46 M149.96 40.89 C135.65 29.05, 123.82 16.98, 109.2 5.46 M144.28 30.65 C136.46 22.5, 128.83 18.83, 121.64 10.97 M144.28 30.65 C135.51 23.84, 127.58 17.36, 121.64 10.97" stroke="#77b153" stroke-width="0.5" fill="none"></path><path d="M113.72 6.35 C123.91 9.21, 134.1 17.31, 141.45 25.57 C148.79 33.83, 154.37 45.35, 157.78 55.9 C161.2 66.45, 162.91 78.03, 161.92 88.87 C160.93 99.72, 157.16 111.6, 151.84 120.98 C146.52 130.37, 138.89 138.62, 129.99 145.19 C121.09 151.76, 109.15 157.82, 98.43 160.4 C87.71 162.97, 76.53 163.03, 65.67 160.66 C54.81 158.29, 42.49 152.66, 33.27 146.16 C24.05 139.66, 15.86 130.91, 10.32 121.65 C4.78 112.39, 0.99 101.39, 0.01 90.61 C-0.96 79.83, 1.15 67.63, 4.46 56.97 C7.77 46.32, 12.59 34.97, 19.87 26.67 C27.16 18.36, 37.99 11.42, 48.18 7.14 C58.36 2.85, 69.24 0.49, 80.98 0.95 C92.72 1.42, 111.77 7.95, 118.62 9.95 C125.46 11.95, 122.8 11.82, 122.03 12.95 M74.06 0.55 C84.41 -1.41, 97.29 1.19, 108.08 4.71 C118.87 8.22, 130.7 14.01, 138.82 21.63 C146.94 29.25, 152.93 40.16, 156.82 50.43 C160.71 60.7, 162.66 72.09, 162.14 83.24 C161.62 94.38, 158.53 107.31, 153.71 117.31 C148.89 127.31, 141.72 136.59, 133.21 143.24 C124.7 149.9, 113.11 154.26, 102.64 157.23 C92.17 160.2, 80.98 162.29, 70.4 161.08 C59.81 159.86, 48.45 155.68, 39.15 149.94 C29.84 144.2, 20.74 135.87, 14.58 126.65 C8.43 117.42, 4.41 105.31, 2.21 94.59 C0.02 83.86, -1.18 73.1, 1.39 62.29 C3.97 51.48, 10.8 38.35, 17.67 29.73 C24.54 21.11, 32.9 15.45, 42.61 10.58 C52.33 5.71, 70.42 1.81, 75.96 0.54 C81.49 -0.74, 76.05 1.78, 75.81 2.94" stroke="#ffffff" stroke-width="1" fill="none"></path></g><g stroke-linecap="round" transform="translate(6 6.1400903897822445) rotate(0 49.13527834530149 47.83105660123522)"><path d="M18.16 10.48 C18.16 10.48, 18.16 10.48, 18.16 10.48 M18.16 10.48 C18.16 10.48, 18.16 10.48, 18.16 10.48 M4.12 32.73 C10.26 26.91, 17.85 20.27, 26.42 7.07 M4.12 32.73 C12.1 21.8, 22.22 11.81, 26.42 7.07 M3.2 39.88 C12.4 30.29, 20.43 20.53, 35.35 2.9 M3.2 39.88 C12.71 27.8, 23.93 16.1, 35.35 2.9 M2.28 47.04 C11.29 37.83, 20.06 27.28, 41.65 1.75 M2.28 47.04 C16.92 29.43, 31.73 10.93, 41.65 1.75 M1.37 54.19 C17.13 36.07, 34.45 13.27, 46.63 2.11 M1.37 54.19 C15.28 37.71, 29.75 21.66, 46.63 2.11 M3.07 58.32 C23.46 37.33, 41.27 16.39, 51.62 2.47 M3.07 58.32 C14.19 46.12, 22.83 34.99, 51.62 2.47 M5.44 61.7 C16.65 46.59, 30.6 33.71, 56.61 2.83 M5.44 61.7 C22.08 43.11, 37.21 26.01, 56.61 2.83 M7.14 65.83 C27.81 42.39, 49.83 15.41, 61.59 3.19 M7.14 65.83 C28.66 41.86, 48.65 17.52, 61.59 3.19 M8.85 69.97 C29.04 49.99, 47.16 26.35, 66.58 3.55 M8.85 69.97 C22.19 55.2, 34.87 41.1, 66.58 3.55 M10.56 74.1 C25.63 56.45, 39.16 39.91, 70.26 5.42 M10.56 74.1 C25.49 58.16, 39.36 39.81, 70.26 5.42 M12.26 78.23 C36.99 51.34, 57.97 22.75, 73.28 8.05 M12.26 78.23 C25.74 63.49, 37.82 48.33, 73.28 8.05 M15.28 80.86 C37.15 55.89, 56.98 31.49, 76.95 9.92 M15.28 80.86 C38.41 52.71, 63.09 24.47, 76.95 9.92 M18.96 82.73 C32.53 66.65, 46.17 50.02, 79.97 12.54 M18.96 82.73 C35.26 64.31, 51.62 45.01, 79.97 12.54 M21.97 85.35 C38.09 66.17, 54.89 47.65, 83.64 14.41 M21.97 85.35 C45.75 57.51, 69.73 29.47, 83.64 14.41 M25.65 87.22 C47.65 60.79, 71.87 31.73, 86.66 17.03 M25.65 87.22 C38.27 73.67, 50.04 58.52, 86.66 17.03 M28.67 89.85 C47.39 69.41, 62.69 48.46, 90.34 18.9 M28.67 89.85 C46.47 69.96, 65.23 48.97, 90.34 18.9 M32.34 91.72 C56.84 65.12, 77.6 39.66, 92.04 23.04 M32.34 91.72 C47.83 75.57, 61.24 57.67, 92.04 23.04 M35.36 94.34 C57.22 69.48, 75.53 47.83, 93.75 27.17 M35.36 94.34 C54.38 73.16, 72.72 50.58, 93.75 27.17 M40.35 94.7 C60.55 72.98, 75.07 55.05, 95.46 31.3 M40.35 94.7 C54.44 77.74, 69.75 61.52, 95.46 31.3 M44.68 95.82 C62.54 74.73, 79.25 52.24, 97.16 35.44 M44.68 95.82 C64.3 73.21, 82.09 52.54, 97.16 35.44 M49.67 96.18 C63.57 81.39, 76.09 67.14, 98.22 40.33 M49.67 96.18 C65.05 78.62, 82.36 59.96, 98.22 40.33 M54.65 96.54 C66.13 80.96, 82.19 63.39, 97.95 46.72 M54.65 96.54 C67.28 81.96, 82.36 65.55, 97.95 46.72 M59.64 96.9 C68.58 85.17, 78.47 75.38, 97.04 53.88 M59.64 96.9 C72.83 81.66, 87.35 66.25, 97.04 53.88 M69.22 91.97 C79.15 80.16, 85.98 70.7, 96.78 60.28 M69.22 91.97 C76.14 83.08, 85.41 73.29, 96.78 60.28 M10.79 77.52 C10.79 77.52, 10.79 77.52, 10.79 77.52 M10.79 77.52 C10.79 77.52, 10.79 77.52, 10.79 77.52 M33.03 91.56 C27.76 84.34, 20.24 78.99, 6.62 68.6 M33.03 91.56 C25.47 83.67, 15.68 76.51, 6.62 68.6 M40.19 92.48 C29.56 81.89, 19.45 73.58, 2.45 59.68 M40.19 92.48 C31.61 85.4, 24.77 78.65, 2.45 59.68 M48.09 94.05 C38.01 82.01, 26.01 74.34, 1.3 53.38 M48.09 94.05 C38.88 85.2, 29.98 77.04, 1.3 53.38 M55.25 94.97 C40.88 80.36, 25.17 68.12, 1.66 48.39 M55.25 94.97 C35.32 77.37, 15.31 60.98, 1.66 48.39 M60.89 94.58 C39.58 77.09, 20.15 59.68, 2.02 43.4 M60.89 94.58 C48.84 83.38, 35.75 72.45, 2.02 43.4 M64.27 92.21 C46.32 77.14, 33.14 67.33, 3.14 39.07 M64.27 92.21 C44.95 75.48, 27.33 58.46, 3.14 39.07 M68.4 90.51 C49.83 74.64, 27.82 57.63, 3.5 34.08 M68.4 90.51 C46.68 70.37, 24.9 52.3, 3.5 34.08 M71.78 88.14 C49.63 65.11, 24.69 46.84, 5.37 30.41 M71.78 88.14 C46.05 65.79, 19.87 43.69, 5.37 30.41 M75.91 86.44 C54.44 67.95, 33.72 49.43, 7.23 26.73 M75.91 86.44 C51.86 66.9, 28.31 47.08, 7.23 26.73 M79.29 84.07 C62.91 71.08, 48.63 58.22, 9.86 23.72 M79.29 84.07 C54.8 60.99, 27.77 40.22, 9.86 23.72 M81.92 81.05 C59.8 61.62, 33.3 40.41, 11.73 20.04 M81.92 81.05 C56.48 57.9, 32.97 37.93, 11.73 20.04 M84.54 78.04 C67.95 65.14, 52.71 48.71, 14.35 17.02 M84.54 78.04 C59.65 56.02, 32.67 33.42, 14.35 17.02 M87.17 75.02 C68.86 59.01, 50.89 41.38, 16.22 13.35 M87.17 75.02 C66.02 57.47, 47.18 39.22, 16.22 13.35 M89.79 72 C71.91 57.79, 55.98 42.96, 18.85 10.33 M89.79 72 C71.35 55.12, 50.59 38.2, 18.85 10.33 M92.41 68.98 C71.31 50.79, 48.36 29, 22.23 7.97 M92.41 68.98 C77.62 54.91, 63.18 42.36, 22.23 7.97 M95.04 65.96 C70.41 47.25, 48.16 25.31, 26.36 6.26 M95.04 65.96 C69.49 42.55, 43.86 20.21, 26.36 6.26 M96.15 61.63 C82.52 50.73, 69.78 38.34, 30.49 4.55 M96.15 61.63 C81.69 50.25, 68.42 37.18, 30.49 4.55 M96.51 56.64 C81.96 43.22, 70.98 33.43, 34.63 2.85 M96.51 56.64 C78.75 41.35, 59 25.33, 34.63 2.85 M96.87 51.66 C83.03 40.49, 68.36 30.06, 38.76 1.14 M96.87 51.66 C78.53 36.45, 62.68 22.52, 38.76 1.14 M97.23 46.67 C77.87 28.07, 56.5 10.34, 44.4 0.74 M97.23 46.67 C81.82 33.36, 67.35 20.36, 44.4 0.74 M97.59 41.68 C82.75 26.97, 66.9 14.55, 50.8 1.01 M97.59 41.68 C84.81 29.47, 69.75 18.16, 50.8 1.01 M95.69 34.73 C88.02 25.58, 77.97 17.85, 57.2 1.27 M95.69 34.73 C83.28 25.37, 70.69 13.29, 57.2 1.27 M91.52 25.8 C85.01 18.42, 78.98 12.26, 63.6 1.53 M91.52 25.8 C80.51 16.38, 70.76 7.54, 63.6 1.53" stroke="#77b153" stroke-width="0.5" fill="none"></path><path d="M40.17 1.03 C47.53 -1.06, 57.31 -0.26, 65.18 2.38 C73.04 5.03, 81.95 10.72, 87.37 16.9 C92.79 23.07, 96.34 31.48, 97.7 39.44 C99.07 47.4, 98.51 57.21, 95.56 64.65 C92.62 72.1, 86.25 78.97, 80.04 84.13 C73.83 89.3, 66.14 94.31, 58.29 95.63 C50.44 96.96, 40.83 95.05, 32.95 92.07 C25.07 89.08, 16.43 83.8, 11.03 77.73 C5.63 71.67, 1.8 63.28, 0.56 55.69 C-0.68 48.1, 0.7 39.7, 3.61 32.2 C6.52 24.7, 10.86 15.93, 18 10.66 C25.15 5.4, 40.59 2.14, 46.48 0.62 C52.38 -0.9, 53.08 0.8, 53.37 1.54 M71.46 6.55 C78.63 9.38, 86.31 15.48, 90.73 21.9 C95.16 28.32, 97.69 37.09, 98.02 45.06 C98.35 53.03, 96.6 62.26, 92.73 69.72 C88.86 77.17, 82 85.42, 74.82 89.8 C67.63 94.18, 57.77 96, 49.61 95.98 C41.44 95.96, 32.91 93.62, 25.81 89.68 C18.71 85.75, 11.12 79.18, 7 72.38 C2.89 65.59, 1.23 56.98, 1.13 48.92 C1.03 40.87, 2.91 30.96, 6.39 24.06 C9.87 17.15, 15.09 11.35, 21.99 7.48 C28.9 3.62, 39.33 1.07, 47.81 0.88 C56.29 0.69, 68.77 5.24, 72.87 6.35 C76.98 7.45, 72.96 7.09, 72.43 7.52" stroke="#ffffff" stroke-width="1" fill="none"></path></g><g stroke-linecap="round" transform="translate(59.2409561545478 226.39918813626457) rotate(0 63.17151453968606 61.09923405686783)"><path d="M16.76 18.54 C16.76 18.54, 16.76 18.54, 16.76 18.54 M16.76 18.54 C16.76 18.54, 16.76 18.54, 16.76 18.54 M8.62 34 C13.76 25.69, 20.48 15.94, 27.65 12.11 M8.62 34 C15.28 25.99, 21.64 19.65, 27.65 12.11 M3.11 46.43 C9.52 38.97, 17.97 26.66, 37.88 6.43 M3.11 46.43 C17.53 30.5, 30.42 16.28, 37.88 6.43 M2.85 52.83 C16.96 38.45, 28.29 22.51, 45.5 3.77 M2.85 52.83 C12.08 41.14, 21.79 30.9, 45.5 3.77 M1.93 59.98 C14.43 47.49, 25.01 33.7, 51.8 2.62 M1.93 59.98 C18.9 39.57, 35.74 21.74, 51.8 2.62 M1.67 66.38 C19.35 45.18, 40.2 22.81, 57.44 2.23 M1.67 66.38 C15.53 52.18, 27.46 36.37, 57.44 2.23 M0.76 73.53 C18.41 49.25, 41.29 25.56, 63.08 1.84 M0.76 73.53 C19.98 50.6, 38.2 30.05, 63.08 1.84 M2.46 77.67 C20.44 55.65, 41.14 33.89, 68.72 1.44 M2.46 77.67 C20.36 56.01, 39.52 36.63, 68.72 1.44 M4.83 81.05 C31.25 53.41, 57.9 23.4, 74.37 1.05 M4.83 81.05 C32.87 49.06, 59.9 17.63, 74.37 1.05 M6.53 85.18 C22.14 66.62, 37.24 51.99, 78.7 2.16 M6.53 85.18 C23.04 66.85, 38.86 48.76, 78.7 2.16 M8.24 89.31 C25.74 70.5, 43.6 51.36, 82.37 4.03 M8.24 89.31 C30.57 64.88, 51.15 40.32, 82.37 4.03 M10.6 92.69 C27.2 74.83, 40.79 55.24, 86.05 5.9 M10.6 92.69 C35.68 63.44, 61.32 34.89, 86.05 5.9 M12.31 96.83 C27.4 79.71, 43.64 61.65, 89.72 7.77 M12.31 96.83 C28.75 78.72, 45.57 58.27, 89.72 7.77 M14.67 100.2 C46.86 65.31, 75.33 30.85, 93.4 9.64 M14.67 100.2 C35.07 76.66, 54.14 53.47, 93.4 9.64 M17.69 102.83 C35.18 81.37, 54.3 62.04, 97.07 11.51 M17.69 102.83 C34.93 83.05, 51.93 64.34, 97.07 11.51 M21.36 104.7 C43.92 79.89, 64.77 57.1, 100.75 13.38 M21.36 104.7 C52.93 68.3, 84.51 32.21, 100.75 13.38 M24.38 107.32 C43.74 84.97, 64.25 64.62, 103.77 16 M24.38 107.32 C44.24 82.83, 66.19 58.67, 103.77 16 M27.4 109.95 C46.29 90.27, 63.76 70.69, 106.13 19.38 M27.4 109.95 C52.57 80.8, 80.17 49.99, 106.13 19.38 M31.08 111.82 C46.17 94.47, 62.75 73.48, 109.15 22.01 M31.08 111.82 C57.88 81.08, 84.14 50.04, 109.15 22.01 M34.1 114.44 C52.41 92.3, 72.02 70.34, 111.51 25.38 M34.1 114.44 C51.3 94.96, 68.33 75.75, 111.51 25.38 M37.77 116.31 C64.37 86.69, 89.58 57.26, 114.53 28.01 M37.77 116.31 C68.73 81.59, 97.59 45.91, 114.53 28.01 M41.45 118.18 C65.39 89.89, 87.39 65.14, 116.89 31.39 M41.45 118.18 C71.32 84.56, 101.64 48.99, 116.89 31.39 M46.43 118.54 C62.85 98.31, 81.7 76.63, 119.26 34.77 M46.43 118.54 C72.84 89.09, 98.68 57.91, 119.26 34.77 M50.76 119.65 C72.9 96.09, 90.47 73.22, 120.96 38.9 M50.76 119.65 C78.18 87.99, 105.68 57.88, 120.96 38.9 M55.09 120.77 C80.29 90.25, 109.26 60.06, 122.01 43.79 M55.09 120.77 C75.17 97.64, 95.41 73.87, 122.01 43.79 M60.08 121.13 C74.76 103.58, 89.11 90.37, 123.06 48.68 M60.08 121.13 C75.7 103.86, 92.02 85.99, 123.06 48.68 M64.41 122.24 C75.82 106.75, 89.78 90.78, 124.11 53.57 M64.41 122.24 C82.64 100.06, 102.36 78.19, 124.11 53.57 M69.4 122.6 C78.57 109.39, 91.35 96.24, 125.16 58.45 M69.4 122.6 C82.79 107.38, 96.18 91.21, 125.16 58.45 M77.01 119.95 C90.84 105.51, 103.05 91.3, 126.22 63.34 M77.01 119.95 C89.91 105.64, 101.23 90.64, 126.22 63.34 M83.97 118.04 C96.03 100.65, 112.8 85.81, 124.64 71.25 M83.97 118.04 C93.28 108.34, 103.87 95.44, 124.64 71.25 M91.58 115.38 C98.02 106.06, 102.67 98.78, 122.41 79.91 M91.58 115.38 C101.3 105.18, 111.02 93.82, 122.41 79.91 M109.69 100.65 C113.94 96.98, 116.88 92.93, 119.53 89.33 M109.69 100.65 C112.1 98.05, 113.2 96.74, 119.53 89.33 M13.06 99.3 C13.06 99.3, 13.06 99.3, 13.06 99.3 M13.06 99.3 C13.06 99.3, 13.06 99.3, 13.06 99.3 M39.83 117.27 C32.77 111.98, 23.8 104.99, 8.89 90.37 M39.83 117.27 C32.86 111.29, 24.36 104.01, 8.89 90.37 M47.74 118.85 C33.98 109.36, 24.99 95.84, 3.97 80.8 M47.74 118.85 C35.63 108.06, 23.35 97.81, 3.97 80.8 M54.89 119.76 C42.2 106.48, 27.28 95.05, 1.31 73.18 M54.89 119.76 C33.78 100.73, 12.81 84.08, 1.31 73.18 M62.8 121.34 C44.25 106.11, 28.78 91.7, 1.67 68.2 M62.8 121.34 C45.49 106.07, 29.09 92.26, 1.67 68.2 M69.95 122.26 C52.63 103.82, 30.29 88.87, 2.03 63.21 M69.95 122.26 C45.48 100.4, 18.92 77.45, 2.03 63.21 M74.09 120.55 C44.85 98.55, 21.12 72.51, 2.39 58.22 M74.09 120.55 C53.71 103.13, 33.18 84.91, 2.39 58.22 M78.22 118.84 C53 95.34, 28.51 72.89, 2.75 53.24 M78.22 118.84 C47.43 93.83, 17.58 67.81, 2.75 53.24 M83.11 117.79 C59.45 95.75, 35.57 75.65, 3.11 48.25 M83.11 117.79 C56.94 94.45, 29.44 70.15, 3.11 48.25 M87.24 116.08 C58.01 89.56, 28.7 67.9, 3.47 43.26 M87.24 116.08 C65.75 97.78, 44.38 77.54, 3.47 43.26 M91.38 114.38 C56.39 85.66, 25.11 57.47, 5.34 39.59 M91.38 114.38 C71.15 96.58, 49.83 78.32, 5.34 39.59 M96.26 113.33 C77.61 97.37, 55.95 79.2, 7.96 36.57 M96.26 113.33 C61.05 84.14, 28.8 55.61, 7.96 36.57 M98.89 110.31 C65.14 81.55, 32.89 54.3, 9.83 32.89 M98.89 110.31 C78.26 91.96, 57.38 73.35, 9.83 32.89 M102.27 107.95 C77.61 85.88, 55.32 65.12, 11.7 29.22 M102.27 107.95 C80.34 88.56, 58.47 68.12, 11.7 29.22 M104.89 104.93 C81.09 82.61, 52.74 61.23, 13.57 25.54 M104.89 104.93 C87.52 88.93, 68.46 71.14, 13.57 25.54 M107.52 101.91 C75.04 73.52, 39.85 43.25, 15.44 21.87 M107.52 101.91 C77.79 76.84, 49.19 49.92, 15.44 21.87 M110.14 98.89 C86.61 82.26, 67.42 61.26, 17.31 18.19 M110.14 98.89 C88.05 80.62, 64.42 59.94, 17.31 18.19 M113.52 96.53 C79.96 69.23, 47.62 41.19, 20.69 15.83 M113.52 96.53 C82.37 70.08, 53.19 43.7, 20.69 15.83 M116.14 93.51 C94.04 76.01, 72.14 57.67, 24.82 14.12 M116.14 93.51 C91.53 72.36, 65.72 50.63, 24.82 14.12 M118.77 90.49 C97.86 68.81, 72.68 51.95, 28.2 11.76 M118.77 90.49 C83.97 58.45, 48.02 28.55, 28.2 11.76 M119.88 86.16 C91.71 60.39, 64.07 40.42, 31.58 9.4 M119.88 86.16 C98.6 68.77, 78.56 50.57, 31.58 9.4 M121 81.83 C99.18 59.87, 76.93 41.51, 35.71 7.69 M121 81.83 C97.02 60.34, 74.73 40.41, 35.71 7.69 M122.11 77.5 C105.02 63.52, 85.49 44.51, 39.09 5.33 M122.11 77.5 C94.79 55.78, 68.69 31.59, 39.09 5.33 M123.98 73.82 C95.2 48.5, 68.1 24.52, 43.23 3.62 M123.98 73.82 C95.6 48.75, 65.66 22.86, 43.23 3.62 M125.1 69.49 C98.67 45.6, 72.23 21.8, 48.12 2.57 M125.1 69.49 C103.54 48.77, 79.8 28.83, 48.12 2.57 M126.21 65.16 C107.05 48.71, 86.66 32.04, 53.76 2.18 M126.21 65.16 C107.2 49.12, 87.29 31.64, 53.76 2.18 M125.82 59.52 C112.29 49.65, 99.06 34.04, 58.65 1.13 M125.82 59.52 C111.43 47.56, 96.96 34.7, 58.65 1.13 M124.67 53.22 C104.21 35.96, 87.15 20.31, 64.29 0.73 M124.67 53.22 C111.99 40.8, 97.11 29.76, 64.29 0.73 M123.52 46.92 C106.28 32.69, 87.66 16.8, 69.93 0.34 M123.52 46.92 C106.72 31.73, 91.26 17.5, 69.93 0.34 M121.61 39.96 C113.07 29.26, 101.33 19.63, 77.09 1.25 M121.61 39.96 C108.91 28.82, 93.84 15.97, 77.09 1.25 M115.18 29.07 C107.22 22.2, 97.46 11.37, 90.28 7.42 M115.18 29.07 C109.15 22.99, 102.48 17.71, 90.28 7.42" stroke="#77b153" stroke-width="0.5" fill="none"></path><path d="M73.54 0.07 C82.78 0.78, 92.83 7.02, 100.59 12.85 C108.34 18.68, 115.79 26.56, 120.07 35.04 C124.35 43.52, 126.53 54.43, 126.26 63.74 C125.98 73.04, 123.35 82.62, 118.42 90.88 C113.49 99.14, 104.91 107.99, 96.68 113.28 C88.45 118.56, 78.85 121.97, 69.02 122.56 C59.2 123.16, 47.01 120.66, 37.74 116.83 C28.46 113, 19.55 106.72, 13.39 99.59 C7.24 92.46, 2.49 83.2, 0.79 74.04 C-0.92 64.88, 0.45 53.95, 3.16 44.65 C5.86 35.35, 10.25 25.19, 17.01 18.25 C23.76 11.32, 33.31 5.61, 43.68 3.05 C54.06 0.48, 72.5 2.43, 79.24 2.86 C85.98 3.3, 84.46 4.82, 84.12 5.66 M42.17 2.98 C50.31 -0.66, 62.08 -0.41, 71.74 1.1 C81.41 2.6, 91.88 6.57, 100.16 12.01 C108.44 17.45, 117.01 25.2, 121.43 33.75 C125.84 42.31, 127.25 53.77, 126.64 63.34 C126.02 72.91, 122.74 82.76, 117.72 91.16 C112.71 99.56, 104.8 108.52, 96.53 113.74 C88.27 118.97, 77.98 122.11, 68.14 122.5 C58.3 122.88, 46.41 119.8, 37.51 116.05 C28.6 112.31, 20.61 107.03, 14.72 100.01 C8.83 92.99, 4.12 83.16, 2.17 73.94 C0.23 64.73, 0.35 53.99, 3.06 44.74 C5.77 35.5, 11.94 25.25, 18.43 18.47 C24.92 11.69, 37.74 6.66, 41.99 4.07 C46.23 1.48, 43.47 1.92, 43.91 2.92" stroke="#ffffff" stroke-width="1" fill="none"></path></g><g stroke-linecap="round" transform="translate(118.93294519468236 36.2392457072458) rotate(0 10.309859723510726 10.250387388225818)"><path d="M10.72 0.15 C12.83 0.01, 15.84 0.91, 17.41 2.38 C18.98 3.85, 19.85 6.84, 20.17 8.96 C20.48 11.07, 20.42 13.17, 19.31 15.07 C18.21 16.96, 15.62 19.49, 13.52 20.3 C11.43 21.11, 8.8 20.71, 6.77 19.92 C4.74 19.13, 2.55 17.56, 1.37 15.57 C0.19 13.58, -0.79 10.29, -0.3 7.99 C0.18 5.7, 2.37 3.18, 4.26 1.77 C6.15 0.37, 9.92 -0.17, 11.04 -0.42 C12.17 -0.67, 11 0.02, 11 0.26 M12.82 -0.47 C14.82 -0.47, 17.02 1.1, 18.21 2.94 C19.4 4.78, 20.07 8.26, 19.97 10.57 C19.87 12.87, 18.91 15.22, 17.6 16.78 C16.29 18.33, 14.19 19.44, 12.11 19.88 C10.02 20.33, 7.1 20.35, 5.11 19.44 C3.11 18.53, 0.86 16.61, 0.12 14.4 C-0.62 12.19, -0.29 8.44, 0.67 6.19 C1.64 3.95, 4.06 1.84, 5.91 0.94 C7.76 0.04, 10.85 0.99, 11.77 0.8 C12.68 0.61, 11.31 -0.14, 11.42 -0.18" stroke="none" stroke-width="0" fill="#ffffff"></path><path d="M10.07 -0.24 C12.25 -0.39, 15.59 0.93, 17.34 2.4 C19.09 3.87, 20.25 6.34, 20.58 8.57 C20.9 10.79, 20.5 13.87, 19.3 15.73 C18.1 17.6, 15.42 19.03, 13.37 19.77 C11.31 20.51, 8.92 21.01, 6.96 20.2 C5 19.39, 2.78 16.96, 1.61 14.91 C0.44 12.86, -0.42 10.05, -0.07 7.91 C0.27 5.77, 1.8 3.33, 3.68 2.07 C5.55 0.81, 9.87 0.7, 11.17 0.35 C12.47 0, 11.59 -0.2, 11.48 -0.03 M10.19 0.75 C12.23 0.45, 15.04 0.97, 16.66 2.27 C18.28 3.58, 19.48 6.52, 19.92 8.6 C20.36 10.67, 20.26 12.96, 19.28 14.71 C18.29 16.46, 16.01 18.28, 14 19.1 C11.99 19.91, 9.32 20.05, 7.23 19.58 C5.15 19.11, 2.74 18.04, 1.47 16.26 C0.2 14.49, -0.71 11.23, -0.38 8.93 C-0.05 6.63, 1.74 4, 3.45 2.46 C5.15 0.93, 8.66 0.12, 9.85 -0.28 C11.04 -0.68, 10.5 -0.08, 10.57 0.05" stroke="#ffffff" stroke-width="1" fill="none"></path></g><g stroke-linecap="round" transform="translate(152.22980547248335 49.44473600359345) rotate(0 10.309859723510726 10.250387388225818)"><path d="M11.93 0.42 C13.98 0.5, 16.35 1.47, 17.84 3.09 C19.34 4.7, 20.89 7.87, 20.9 10.1 C20.92 12.33, 19.29 14.74, 17.93 16.47 C16.58 18.19, 14.84 19.97, 12.77 20.46 C10.71 20.94, 7.49 20.52, 5.55 19.37 C3.61 18.22, 2 15.54, 1.11 13.56 C0.22 11.58, -0.31 9.44, 0.24 7.47 C0.78 5.51, 2.45 3, 4.38 1.76 C6.31 0.53, 10.42 0.23, 11.8 0.06 C13.18 -0.1, 12.62 0.5, 12.65 0.75 M11.45 0.13 C13.3 0.14, 15.88 1.41, 17.45 2.99 C19.03 4.58, 20.79 7.33, 20.91 9.64 C21.02 11.95, 19.68 15.08, 18.14 16.86 C16.59 18.64, 13.76 20.02, 11.65 20.32 C9.55 20.62, 7.23 19.73, 5.5 18.65 C3.78 17.57, 2.2 15.68, 1.3 13.82 C0.4 11.96, -0.48 9.63, 0.09 7.5 C0.66 5.36, 2.61 2.36, 4.72 1.02 C6.82 -0.31, 11.58 -0.49, 12.72 -0.52 C13.85 -0.55, 11.73 0.55, 11.5 0.86" stroke="none" stroke-width="0" fill="#ffffff"></path><path d="M9.09 0.36 C11.12 0.11, 14.22 0.69, 16.08 1.9 C17.94 3.11, 19.58 5.59, 20.23 7.63 C20.87 9.68, 20.89 12.12, 19.95 14.15 C19.01 16.17, 16.57 18.74, 14.59 19.79 C12.61 20.84, 10.25 21.1, 8.08 20.46 C5.9 19.82, 2.96 17.8, 1.55 15.95 C0.13 14.1, -0.6 11.44, -0.41 9.34 C-0.22 7.25, 0.95 4.91, 2.71 3.39 C4.47 1.88, 8.92 0.84, 10.13 0.26 C11.33 -0.32, 9.97 -0.2, 9.97 -0.08 M12.07 0 C14.06 -0.03, 16.26 1.04, 17.75 2.6 C19.24 4.16, 20.92 7.12, 21.01 9.37 C21.1 11.62, 19.75 14.28, 18.28 16.11 C16.81 17.94, 14.32 19.8, 12.18 20.35 C10.04 20.9, 7.21 20.49, 5.44 19.42 C3.67 18.36, 2.36 15.98, 1.55 13.98 C0.74 11.99, 0.08 9.53, 0.55 7.47 C1.02 5.41, 2.62 2.77, 4.37 1.62 C6.12 0.48, 9.91 0.79, 11.04 0.6 C12.17 0.42, 11.21 0.54, 11.15 0.51" stroke="#ffffff" stroke-width="1" fill="none"></path></g><g stroke-linecap="round" transform="translate(43.42921088449884 112.39245782087426) rotate(0 10.309859723510726 10.250387388225818)"><path d="M11.37 -0.12 C13.38 -0.08, 15.6 1.71, 17.16 3.18 C18.72 4.65, 20.48 6.52, 20.74 8.72 C21 10.91, 19.96 14.44, 18.72 16.35 C17.48 18.27, 15.39 19.62, 13.3 20.22 C11.21 20.82, 8.31 20.94, 6.18 19.98 C4.05 19.01, 1.44 16.57, 0.54 14.45 C-0.37 12.32, 0.08 9.41, 0.73 7.25 C1.39 5.1, 2.7 2.7, 4.49 1.51 C6.28 0.32, 10.17 0.3, 11.49 0.11 C12.8 -0.09, 12.32 0.14, 12.38 0.36 M12.7 -0.46 C14.55 0.06, 16.73 2.57, 17.95 4.44 C19.17 6.32, 20.03 8.73, 20.01 10.79 C19.99 12.86, 19.25 15.18, 17.82 16.84 C16.4 18.5, 13.74 20.33, 11.45 20.76 C9.17 21.2, 5.96 20.82, 4.13 19.47 C2.3 18.11, 0.89 14.92, 0.46 12.63 C0.04 10.35, 0.77 7.56, 1.59 5.74 C2.4 3.92, 3.6 2.71, 5.35 1.71 C7.09 0.71, 10.74 0.04, 12.05 -0.26 C13.35 -0.56, 13.08 -0.41, 13.17 -0.1" stroke="none" stroke-width="0" fill="#ffffff"></path><path d="M11.38 -0.05 C13.56 0.01, 16.04 1.3, 17.59 2.88 C19.14 4.47, 20.54 7.31, 20.69 9.47 C20.83 11.63, 19.69 14.03, 18.48 15.86 C17.26 17.69, 15.42 19.9, 13.4 20.47 C11.38 21.03, 8.47 20.27, 6.37 19.24 C4.26 18.2, 1.8 16.23, 0.78 14.27 C-0.25 12.31, -0.42 9.48, 0.22 7.49 C0.86 5.49, 2.71 3.56, 4.61 2.28 C6.51 0.99, 10.5 0.06, 11.63 -0.23 C12.76 -0.51, 11.47 0.33, 11.4 0.58 M12.69 0.35 C14.65 0.66, 16.82 2.9, 18.12 4.59 C19.42 6.28, 20.57 8.49, 20.49 10.49 C20.41 12.5, 19.14 15.05, 17.66 16.64 C16.18 18.23, 13.81 19.57, 11.62 20.04 C9.44 20.5, 6.49 20.54, 4.54 19.42 C2.59 18.3, 0.54 15.54, -0.07 13.31 C-0.68 11.07, -0.09 8.1, 0.85 6.01 C1.79 3.93, 3.5 1.76, 5.57 0.78 C7.64 -0.2, 12.06 0.27, 13.29 0.13 C14.52 -0.01, 13.19 -0.28, 12.95 -0.06" stroke="#ffffff" stroke-width="1" fill="none"></path></g><g stroke-linecap="round" transform="translate(78.45580688139398 206.75349338046533) rotate(0 10.309859723510726 10.250387388225818)"><path d="M11.23 -0.27 C13.36 -0.21, 16.53 1.69, 18.01 3.3 C19.49 4.92, 19.95 7.22, 20.11 9.41 C20.28 11.6, 20.2 14.63, 19.01 16.45 C17.81 18.26, 15.06 19.86, 12.92 20.28 C10.78 20.7, 8.22 19.87, 6.17 18.97 C4.12 18.06, 1.66 16.73, 0.62 14.85 C-0.43 12.96, -0.68 9.85, -0.1 7.65 C0.48 5.45, 2.1 2.85, 4.11 1.64 C6.12 0.43, 10.58 0.54, 11.97 0.4 C13.36 0.26, 12.43 0.59, 12.45 0.79 M11.93 -0.38 C14.16 -0.12, 17.42 1.65, 18.86 3.53 C20.29 5.4, 20.77 8.58, 20.52 10.86 C20.27 13.15, 18.8 15.74, 17.35 17.25 C15.91 18.76, 13.86 19.67, 11.85 19.94 C9.85 20.21, 7.32 19.86, 5.33 18.86 C3.34 17.86, 0.73 16.11, -0.09 13.94 C-0.91 11.77, -0.65 8.09, 0.42 5.84 C1.48 3.59, 4.35 1.27, 6.31 0.43 C8.26 -0.42, 11.17 0.75, 12.13 0.78 C13.08 0.8, 11.94 0.51, 12.04 0.6" stroke="none" stroke-width="0" fill="#ffffff"></path><path d="M8.41 0.26 C10.49 -0.27, 13.44 0.46, 15.41 1.47 C17.38 2.49, 19.5 4.26, 20.24 6.35 C20.98 8.44, 20.59 11.83, 19.86 14 C19.13 16.18, 17.8 18.38, 15.85 19.39 C13.91 20.41, 10.5 20.54, 8.19 20.1 C5.88 19.66, 3.4 18.35, 2 16.77 C0.59 15.19, -0.37 12.76, -0.25 10.62 C-0.13 8.48, 1.25 5.74, 2.73 3.94 C4.2 2.14, 7.45 0.44, 8.6 -0.18 C9.74 -0.81, 9.48 -0.1, 9.59 0.2 M10.98 -0.47 C13.03 -0.49, 16.28 1.12, 17.81 2.69 C19.33 4.26, 20.08 6.73, 20.15 8.95 C20.22 11.18, 19.45 14.22, 18.24 16.06 C17.02 17.9, 14.76 19.49, 12.86 20.01 C10.96 20.53, 8.79 20.03, 6.85 19.17 C4.92 18.31, 2.38 16.74, 1.26 14.83 C0.15 12.92, -0.28 9.76, 0.15 7.72 C0.59 5.68, 2.1 3.82, 3.87 2.58 C5.64 1.34, 9.68 0.78, 10.76 0.27 C11.84 -0.23, 10.31 -0.58, 10.36 -0.44" stroke="#ffffff" stroke-width="1" fill="none"></path></g><g stroke-linecap="round" transform="translate(59.69162429526477 177.95422574934844) rotate(0 10.309859723510726 10.250387388225818)"><path d="M10.76 0.32 C12.84 0.29, 16.08 0.89, 17.69 2.44 C19.31 3.98, 20.23 7.31, 20.45 9.59 C20.67 11.88, 20.21 14.33, 19 16.14 C17.79 17.96, 15.42 19.96, 13.18 20.49 C10.94 21.02, 7.52 20.36, 5.56 19.31 C3.6 18.26, 2.28 16.2, 1.44 14.19 C0.6 12.19, 0.08 9.32, 0.54 7.28 C1 5.24, 2.29 3.15, 4.19 1.95 C6.08 0.75, 10.53 0.28, 11.91 0.08 C13.3 -0.13, 12.49 0.47, 12.51 0.72 M7.51 0.51 C9.44 0.06, 12.49 0.21, 14.56 1.11 C16.62 2.02, 18.98 3.83, 19.9 5.94 C20.83 8.05, 20.86 11.47, 20.09 13.74 C19.32 16.02, 17.15 18.59, 15.29 19.61 C13.42 20.63, 10.9 20.36, 8.92 19.88 C6.93 19.39, 4.92 18.13, 3.38 16.69 C1.83 15.26, -0.05 13.46, -0.36 11.25 C-0.67 9.03, 0.01 5.33, 1.51 3.4 C3.02 1.46, 7.53 0.08, 8.67 -0.36 C9.81 -0.81, 8.38 0.42, 8.34 0.72" stroke="none" stroke-width="0" fill="#ffffff"></path><path d="M9.16 0.06 C11.19 -0.27, 14.28 0.74, 16.05 1.92 C17.83 3.09, 19.14 4.99, 19.81 7.11 C20.48 9.23, 20.84 12.63, 20.08 14.62 C19.32 16.61, 17.32 18.16, 15.26 19.02 C13.21 19.89, 9.94 20.27, 7.73 19.79 C5.51 19.32, 3.2 17.78, 1.97 16.16 C0.74 14.53, 0.17 12.24, 0.35 10.04 C0.52 7.84, 1.57 4.59, 3.02 2.97 C4.47 1.35, 7.95 0.76, 9.04 0.33 C10.12 -0.09, 9.39 0.29, 9.53 0.43 M12.34 0.73 C14.4 1.03, 17.2 2.25, 18.56 3.84 C19.92 5.44, 20.59 8.12, 20.48 10.31 C20.36 12.5, 19.41 15.2, 17.88 16.99 C16.35 18.79, 13.6 20.76, 11.3 21.08 C8.99 21.4, 5.85 20.26, 4.03 18.9 C2.21 17.54, 0.93 15.11, 0.38 12.92 C-0.17 10.73, -0.26 7.78, 0.74 5.77 C1.74 3.76, 4.31 1.87, 6.37 0.87 C8.43 -0.13, 12.13 -0.2, 13.09 -0.23 C14.05 -0.26, 12.19 0.36, 12.11 0.69" stroke="#ffffff" stroke-width="1" fill="none"></path></g><g stroke-linecap="round" transform="translate(48.00955301454451 146.01653836403182) rotate(0 10.309859723510726 10.250387388225818)"><path d="M12.24 0.31 C14.27 0.55, 16.17 1.76, 17.63 3.43 C19.08 5.09, 20.84 8.04, 20.97 10.27 C21.1 12.51, 19.81 15.22, 18.42 16.81 C17.02 18.4, 14.86 19.35, 12.62 19.82 C10.39 20.29, 7.08 20.57, 5.01 19.62 C2.94 18.67, 0.99 16.26, 0.18 14.12 C-0.63 11.98, -0.67 8.84, 0.14 6.77 C0.95 4.71, 2.99 2.75, 5.05 1.72 C7.11 0.69, 11.1 0.7, 12.48 0.59 C13.86 0.47, 13.27 0.99, 13.31 1.03 M10.53 -0.59 C12.73 -0.62, 15.22 0.89, 16.8 2.39 C18.37 3.88, 19.51 6.31, 19.98 8.38 C20.45 10.45, 20.5 12.91, 19.6 14.83 C18.7 16.75, 16.78 18.93, 14.57 19.9 C12.36 20.87, 8.59 21.44, 6.32 20.64 C4.06 19.83, 1.92 17.2, 1 15.07 C0.08 12.94, 0.43 9.89, 0.78 7.87 C1.13 5.84, 1.61 4.24, 3.09 2.95 C4.57 1.66, 8.41 0.58, 9.65 0.13 C10.9 -0.32, 10.41 0.01, 10.54 0.26" stroke="none" stroke-width="0" fill="#ffffff"></path><path d="M11.91 0.25 C14.06 0.37, 16.92 1.48, 18.35 3.17 C19.78 4.86, 20.41 8.06, 20.47 10.36 C20.52 12.66, 20.1 15.37, 18.67 16.99 C17.25 18.61, 14.21 19.71, 11.91 20.06 C9.61 20.42, 6.78 20.08, 4.87 19.12 C2.95 18.15, 1.09 16.24, 0.43 14.25 C-0.23 12.26, 0.19 9.33, 0.9 7.15 C1.62 4.98, 2.8 2.35, 4.72 1.18 C6.65 0.01, 11.15 0.16, 12.46 0.11 C13.76 0.06, 12.63 0.63, 12.57 0.89 M10.55 -0.11 C12.57 -0.21, 14.87 0.75, 16.4 2.18 C17.93 3.61, 19.33 6.31, 19.75 8.47 C20.17 10.64, 19.78 13.35, 18.92 15.16 C18.07 16.97, 16.6 18.54, 14.63 19.34 C12.66 20.13, 9.33 20.59, 7.11 19.93 C4.9 19.26, 2.55 17.15, 1.34 15.36 C0.13 13.57, -0.5 11.29, -0.16 9.19 C0.18 7.09, 1.77 4.41, 3.39 2.77 C5.02 1.12, 8.44 -0.25, 9.59 -0.66 C10.75 -1.08, 10.15 -0.05, 10.32 0.27" stroke="#ffffff" stroke-width="1" fill="none"></path></g><g stroke-linecap="round" transform="translate(192.83828853123623 243.67656234027083) rotate(0 10.309859723510726 10.250387388225818)"><path d="M9.72 -0.45 C11.84 -0.73, 14.42 0.9, 16.21 2.28 C18 3.66, 19.9 5.7, 20.48 7.83 C21.06 9.96, 20.76 13.16, 19.69 15.07 C18.61 16.98, 16.01 18.56, 14.05 19.32 C12.09 20.07, 9.95 20.24, 7.94 19.62 C5.93 19, 3.35 17.32, 2.01 15.59 C0.68 13.87, -0.29 11.37, -0.06 9.26 C0.17 7.14, 1.62 4.39, 3.38 2.91 C5.15 1.42, 9.2 0.72, 10.51 0.35 C11.82 -0.03, 11.36 0.57, 11.23 0.68 M7.2 0.22 C9.32 -0.54, 12.76 -0.47, 14.84 0.56 C16.92 1.59, 18.88 4.19, 19.7 6.39 C20.51 8.58, 20.33 11.75, 19.74 13.72 C19.14 15.69, 17.76 17.16, 16.13 18.21 C14.51 19.26, 12.25 20.06, 9.99 20.03 C7.72 20, 4.32 19.62, 2.55 18.03 C0.77 16.43, -0.63 12.84, -0.65 10.45 C-0.66 8.05, 1.03 5.3, 2.46 3.66 C3.89 2.02, 7.02 1.1, 7.92 0.61 C8.83 0.12, 7.77 0.53, 7.9 0.72" stroke="none" stroke-width="0" fill="#ffffff"></path><path d="M10.05 0.26 C12.07 0.03, 14.51 0.64, 16.28 2.01 C18.05 3.38, 20.1 6.34, 20.67 8.46 C21.24 10.57, 20.83 12.87, 19.71 14.68 C18.58 16.49, 16.05 18.46, 13.94 19.31 C11.83 20.15, 9.05 20.3, 7.04 19.75 C5.04 19.21, 3.02 17.9, 1.91 16.04 C0.79 14.17, 0.14 10.74, 0.34 8.56 C0.55 6.38, 1.46 4.32, 3.12 2.93 C4.78 1.54, 8.96 0.63, 10.32 0.2 C11.68 -0.23, 11.19 0.2, 11.28 0.33 M10.42 -0.4 C12.58 -0.67, 15.28 0.41, 16.98 1.85 C18.69 3.3, 20.32 5.89, 20.67 8.28 C21.01 10.67, 20.32 14.22, 19.07 16.19 C17.81 18.17, 15.23 19.54, 13.15 20.12 C11.06 20.7, 8.58 20.55, 6.57 19.68 C4.57 18.81, 2.09 16.83, 1.12 14.9 C0.14 12.98, 0.25 10.3, 0.75 8.1 C1.25 5.91, 2.59 3.04, 4.1 1.72 C5.62 0.4, 8.78 0.36, 9.86 0.18 C10.94 0, 10.43 0.44, 10.58 0.64" stroke="#ffffff" stroke-width="1" fill="none"></path></g><g stroke-linecap="round" transform="translate(215.12851979603965 219.55722636359212) rotate(0 10.309859723510726 10.250387388225818)"><path d="M8.13 0.02 C10.19 -0.45, 13.9 0.45, 15.9 1.6 C17.9 2.75, 19.4 4.97, 20.14 6.92 C20.88 8.88, 21.18 11.24, 20.34 13.35 C19.5 15.46, 17.17 18.4, 15.1 19.6 C13.03 20.8, 10.12 21.04, 7.93 20.55 C5.73 20.06, 3.24 18.34, 1.92 16.65 C0.6 14.96, -0.06 12.54, 0.03 10.43 C0.12 8.31, 0.91 5.59, 2.47 3.94 C4.02 2.3, 8.12 1.24, 9.35 0.55 C10.59 -0.13, 9.92 -0.18, 9.89 -0.18 M8.01 0.27 C9.9 -0.21, 12.59 0.21, 14.61 1.14 C16.64 2.07, 19.14 3.81, 20.17 5.85 C21.2 7.89, 21.62 11.09, 20.81 13.38 C20 15.68, 17.36 18.52, 15.31 19.63 C13.27 20.74, 10.53 20.57, 8.53 20.05 C6.54 19.52, 4.85 17.97, 3.34 16.49 C1.83 15.02, -0.24 13.25, -0.53 11.19 C-0.83 9.13, 0.06 5.94, 1.55 4.13 C3.04 2.31, 7.26 0.8, 8.39 0.3 C9.52 -0.21, 8.29 0.86, 8.35 1.09" stroke="none" stroke-width="0" fill="#ffffff"></path><path d="M11.05 -0.35 C13.13 -0.35, 15.51 1.4, 17.15 3 C18.79 4.6, 20.64 7.14, 20.89 9.23 C21.14 11.32, 19.95 13.75, 18.62 15.54 C17.29 17.32, 15.02 19.19, 12.93 19.94 C10.84 20.69, 7.99 20.83, 6.08 20.04 C4.17 19.25, 2.51 17.25, 1.49 15.2 C0.47 13.14, -0.51 9.91, -0.03 7.71 C0.45 5.52, 2.44 3.24, 4.35 2.04 C6.26 0.84, 10.2 0.73, 11.44 0.52 C12.68 0.31, 11.83 0.69, 11.77 0.79 M8.24 0.02 C10.1 -0.4, 12.99 0.48, 14.89 1.6 C16.79 2.73, 18.69 4.83, 19.64 6.79 C20.59 8.76, 21.28 11.32, 20.59 13.38 C19.91 15.45, 17.58 18.05, 15.53 19.18 C13.47 20.31, 10.52 20.47, 8.27 20.16 C6.02 19.85, 3.45 18.93, 2.05 17.3 C0.64 15.67, -0.14 12.78, -0.16 10.39 C-0.17 7.99, 0.45 4.6, 1.95 2.9 C3.44 1.2, 7.62 0.59, 8.82 0.19 C10.01 -0.2, 9.05 0.36, 9.1 0.55" stroke="#ffffff" stroke-width="1" fill="none"></path></g><g stroke-linecap="round" transform="translate(57.94974567514055 225.70666583205696) rotate(0 63.17151453968606 61.09923405686783)"><path d="M10.72 26.55 C10.72 26.55, 10.72 26.55, 10.72 26.55 M10.72 26.55 C10.72 26.55, 10.72 26.55, 10.72 26.55 M7.18 36.72 C13.93 29.9, 19.49 22.98, 30.8 9.55 M7.18 36.72 C14.02 27.71, 22.64 19.01, 30.8 9.55 M4.3 46.14 C12.29 38.1, 20.02 28.75, 39.07 6.14 M4.3 46.14 C17.18 30.6, 30.23 14.14, 39.07 6.14 M2.07 54.8 C17.32 37.24, 34.15 15.01, 46.02 4.23 M2.07 54.8 C15.58 38.8, 29.64 23.22, 46.02 4.23 M2.46 60.44 C23.61 38.59, 42.18 16.77, 52.98 2.33 M2.46 60.44 C13.99 47.77, 23.05 36.17, 52.98 2.33 M3.51 65.33 C15.98 48.71, 31.21 34.34, 59.93 0.42 M3.51 65.33 C21.82 44.93, 38.54 25.99, 59.93 0.42 M3.91 70.97 C27.16 44.57, 51.78 14.6, 64.92 0.78 M3.91 70.97 C27.97 44.13, 50.45 16.91, 64.92 0.78 M4.96 75.86 C27.27 53.54, 47.48 27.51, 69.25 1.9 M4.96 75.86 C19.71 59.42, 33.83 43.68, 69.25 1.9 M5.35 81.5 C22.56 61.36, 38.3 42.28, 73.58 3.01 M5.35 81.5 C22.38 63.16, 38.39 42.36, 73.58 3.01 M7.06 85.64 C35.55 54.29, 60.38 21.29, 77.91 4.13 M7.06 85.64 C22.6 68.5, 36.76 50.94, 77.91 4.13 M9.42 89.02 C35.16 59.4, 58.99 30.41, 82.24 5.24 M9.42 89.02 C36.8 55.82, 65.82 22.59, 82.24 5.24 M11.78 92.39 C28.71 72.72, 45.55 52.42, 86.58 6.36 M11.78 92.39 C31.92 69.6, 52.02 46.01, 86.58 6.36 M14.15 95.77 C34.06 72.03, 54.71 49.09, 90.91 7.47 M14.15 95.77 C43.75 61.03, 73.69 26.13, 90.91 7.47 M16.51 99.15 C45.11 64.94, 76.02 28.18, 94.58 9.34 M16.51 99.15 C32.72 81.67, 47.97 62.51, 94.58 9.34 M18.87 102.53 C42.35 76.68, 62.48 50.18, 97.6 11.97 M18.87 102.53 C41.58 76.99, 65.29 50.29, 97.6 11.97 M21.24 105.91 C53.58 70.11, 82.29 35.49, 101.27 13.84 M21.24 105.91 C41.66 84.02, 60.12 60.32, 101.27 13.84 M23.6 109.29 C53.54 75.48, 79.69 44.8, 104.29 16.46 M23.6 109.29 C49.6 79.77, 75.12 48.93, 104.29 16.46 M27.93 110.4 C56.28 79.42, 78.69 52.41, 107.31 19.08 M27.93 110.4 C48.46 85.96, 70.1 62.46, 107.31 19.08 M31.6 112.27 C58.37 80.72, 84.12 47.84, 110.33 21.71 M31.6 112.27 C60.83 78.83, 88.13 47.23, 110.33 21.71 M35.28 114.14 C57.03 90.21, 77.57 66.72, 114.01 23.58 M35.28 114.14 C60.48 85.06, 87.68 55.03, 114.01 23.58 M38.95 116.01 C61.02 87.62, 88.01 57.49, 116.37 26.96 M38.95 116.01 C62.1 89.53, 87.71 61.01, 116.37 26.96 M42.63 117.88 C61.79 94.48, 81.58 73.29, 118.08 31.09 M42.63 117.88 C69.8 86.68, 97.97 55.57, 118.08 31.09 M46.3 119.75 C69.96 91.41, 90.96 65.64, 119.13 35.98 M46.3 119.75 C65.68 96.21, 87.77 71.67, 119.13 35.98 M49.98 121.62 C75.01 95.02, 98.37 67.52, 120.83 40.11 M49.98 121.62 C71.78 97.89, 91.41 74.67, 120.83 40.11 M55.62 121.23 C76.49 96.36, 99.1 69.57, 122.54 44.25 M55.62 121.23 C71.33 104.6, 86.08 85.4, 122.54 44.25 M61.26 120.83 C79.89 101.36, 93.82 82.47, 124.25 48.38 M61.26 120.83 C78.77 100.44, 96.96 81.74, 124.25 48.38 M66.91 120.44 C88.06 97.62, 107.66 72.97, 125.3 53.27 M66.91 120.44 C86.49 98.38, 105.72 76.67, 125.3 53.27 M72.55 120.04 C84.18 105.87, 97.95 90.38, 124.38 60.42 M72.55 120.04 C88.65 101.81, 103.6 83.5, 124.38 60.42 M78.19 119.65 C93.1 100.01, 111.91 82.22, 124.12 66.82 M78.19 119.65 C96.31 100.3, 112.32 79.94, 124.12 66.82 M85.15 117.74 C95.07 105.67, 100.61 98.22, 123.2 73.97 M85.15 117.74 C99.3 100.03, 115.19 84.14, 123.2 73.97 M94.07 113.58 C101.37 106.63, 110.25 95.99, 122.28 81.12 M94.07 113.58 C104.69 101.52, 114.63 89.28, 122.28 81.12 M103 109.41 C105.27 107.26, 108.15 103.03, 113.49 97.33 M103 109.41 C107 105.47, 110.66 101.02, 113.49 97.33 M21.69 107.66 C21.69 107.66, 21.69 107.66, 21.69 107.66 M21.69 107.66 C21.69 107.66, 21.69 107.66, 21.69 107.66 M36.39 115.14 C30.19 110.46, 25.83 106.23, 12.99 94.8 M36.39 115.14 C28.78 106.76, 18.93 100.93, 12.99 94.8 M48.82 120.65 C36.01 109.16, 18.63 95.89, 5.81 83.25 M48.82 120.65 C33.07 106.11, 19.16 94.48, 5.81 83.25 M54.47 120.25 C42.64 111.65, 32.18 99.38, 5.41 77.61 M54.47 120.25 C37.3 105.03, 18.13 89.22, 5.41 77.61 M60.87 120.51 C46.17 107.77, 31.88 93.33, 4.26 71.31 M60.87 120.51 C43.89 106.59, 29.12 91.87, 4.26 71.31 M66.51 120.12 C50.54 107.46, 36.47 94.23, 3.11 65.01 M66.51 120.12 C50.12 105, 31.47 89.92, 3.11 65.01 M72.15 119.72 C51.29 101.74, 28.58 80.16, 2.72 59.37 M72.15 119.72 C57.52 105.8, 43.24 93.4, 2.72 59.37 M77.79 119.33 C50.87 98.63, 26.28 74.65, 2.32 53.72 M77.79 119.33 C49.69 93.65, 21.51 69.1, 2.32 53.72 M81.93 117.62 C65.61 104.56, 50.25 89.89, 3.44 49.39 M81.93 117.62 C64.83 103.84, 48.87 88.42, 3.44 49.39 M85.31 115.26 C66.78 98.48, 51.77 85.19, 5.31 45.72 M85.31 115.26 C62.2 95.27, 37 74.51, 5.31 45.72 M89.44 113.55 C69.75 97.6, 49.41 82.24, 6.42 41.39 M89.44 113.55 C63.54 91.97, 40.24 71.56, 6.42 41.39 M93.57 111.85 C61.16 81.46, 26.5 52.19, 7.54 37.06 M93.57 111.85 C69.09 90.31, 45.31 69.22, 7.54 37.06 M97.71 110.14 C69.51 83.7, 40.32 59.68, 9.41 33.38 M97.71 110.14 C72.88 87.22, 45.67 65.34, 9.41 33.38 M101.09 107.78 C81.51 88.66, 59.75 70.75, 10.52 29.05 M101.09 107.78 C72.23 84.54, 43.56 58.49, 10.52 29.05 M105.22 106.07 C82.42 85.32, 60.45 65.31, 12.39 25.38 M105.22 106.07 C69.78 75.6, 35.72 45.64, 12.39 25.38 M108.6 103.71 C84.79 81.74, 57.16 61.2, 15.02 22.36 M108.6 103.71 C76.34 75.5, 41.48 46.8, 15.02 22.36 M111.22 100.69 C74.21 68.87, 40.19 38.07, 18.39 19.99 M111.22 100.69 C83.17 77.56, 55.62 52.36, 18.39 19.99 M113.09 97.01 C83.28 68.43, 51.76 45.09, 21.02 16.98 M113.09 97.01 C78.68 68.34, 43.46 37.9, 21.02 16.98 M115.72 94 C82.37 65.62, 50.59 37.68, 24.4 14.61 M115.72 94 C95.22 77.57, 76.94 59.43, 24.4 14.61 M117.59 90.32 C95.8 71.54, 75.93 52.3, 27.78 12.25 M117.59 90.32 C92.06 68.55, 66.96 45.41, 27.78 12.25 M119.46 86.65 C87.57 58.44, 52.6 29.66, 30.4 9.23 M119.46 86.65 C100.45 68.75, 80.83 52.15, 30.4 9.23 M122.08 83.63 C104.13 66.76, 82.63 48.21, 33.78 6.87 M122.08 83.63 C88.93 55.3, 56.05 27.93, 33.78 6.87 M123.95 79.95 C96.1 55.91, 71.52 35.44, 38.67 5.82 M123.95 79.95 C91.33 49.96, 58.31 21.03, 38.67 5.82 M124.31 74.96 C95.16 49.49, 65.26 22.71, 42.8 4.11 M124.31 74.96 C98.4 51.34, 72.04 28.57, 42.8 4.11 M124.67 69.98 C104.2 51.19, 82.69 35.71, 47.69 3.06 M124.67 69.98 C93.57 42.96, 63.2 16.09, 47.69 3.06 M125.03 64.99 C99.22 43.73, 69.87 19.72, 52.58 2.01 M125.03 64.99 C98.73 41.67, 70.07 18.34, 52.58 2.01 M125.39 60 C102.14 40.56, 81.51 20.55, 56.71 0.3 M125.39 60 C107.9 44.64, 87.65 26.89, 56.71 0.3 M125.75 55.02 C103.29 36.74, 81.27 17.42, 61.6 -0.75 M125.75 55.02 C102.91 35.73, 81.06 17.13, 61.6 -0.75 M126.11 50.03 C114.39 36.75, 98.61 25.79, 70.26 1.48 M126.11 50.03 C113.48 37.98, 100.77 28.55, 70.26 1.48 M123.45 42.42 C110.26 31.93, 102.12 21.8, 78.92 3.71 M123.45 42.42 C112.61 32.45, 100.86 24.16, 78.92 3.71 M120.79 34.81 C107.88 22.25, 95.89 14.88, 86.83 5.28 M120.79 34.81 C112.62 28.84, 105.71 21.49, 86.83 5.28" stroke="#77b153" stroke-width="0.5" fill="none"></path><path d="M61.27 -0.29 C70.6 -1.33, 83.08 3.01, 92.04 7.18 C101.01 11.35, 109.52 17.3, 115.05 24.73 C120.58 32.15, 123.99 42.31, 125.23 51.72 C126.46 61.13, 125.56 72.02, 122.45 81.19 C119.35 90.36, 113.69 100.35, 106.6 106.74 C99.52 113.14, 89.59 117.16, 79.93 119.58 C70.27 122, 58.29 123.19, 48.64 121.26 C39 119.33, 29.25 114.18, 22.06 107.98 C14.87 101.78, 8.94 92.93, 5.49 84.07 C2.03 75.2, 0.46 64.37, 1.32 54.8 C2.17 45.24, 5.27 34.59, 10.6 26.69 C15.94 18.79, 23.76 11.83, 33.33 7.4 C42.9 2.96, 61.25 0.88, 68.02 0.07 C74.78 -0.74, 74 1.49, 73.92 2.52 M89.1 5.14 C98.07 7.86, 106.37 15.42, 112.59 22.87 C118.81 30.31, 124.52 40.57, 126.42 49.8 C128.32 59.02, 127.31 69.07, 123.99 78.21 C120.67 87.36, 113.48 97.66, 106.49 104.67 C99.5 111.69, 91.11 117.44, 82.06 120.3 C73.01 123.15, 61.76 123.51, 52.19 121.82 C42.62 120.12, 32.49 116.25, 24.65 110.14 C16.8 104.03, 9.05 93.86, 5.11 85.16 C1.16 76.46, 0.55 67.26, 0.98 57.92 C1.41 48.58, 2.58 37.2, 7.68 29.11 C12.77 21.01, 22.89 14.11, 31.57 9.33 C40.24 4.54, 49.94 1.28, 59.72 0.37 C69.49 -0.53, 85.56 2.67, 90.24 3.9 C94.91 5.13, 88.64 6.49, 87.77 7.78" stroke="#ffffff" stroke-width="1" fill="none"></path></g><g stroke-linecap="round" transform="translate(161.76201093366717 47.09406207445761) rotate(0 81.22202910239724 80.86519509068751)"><path d="M27.79 18.85 C27.79 18.85, 27.79 18.85, 27.79 18.85 M27.79 18.85 C27.79 18.85, 27.79 18.85, 27.79 18.85 M7.19 48.65 C21.07 33.21, 29.91 22.55, 37.37 13.93 M7.19 48.65 C13.9 41.11, 21.38 33.69, 37.37 13.93 M4.96 57.31 C18.76 38.14, 36.84 20.74, 47.6 8.25 M4.96 57.31 C16.51 42.47, 29.22 30.06, 47.6 8.25 M3.38 65.22 C21.72 45.11, 40.6 25.62, 57.18 3.33 M3.38 65.22 C13.96 53.28, 23.49 40.03, 57.18 3.33 M1.15 73.88 C16.68 54.03, 34.3 35.59, 62.17 3.69 M1.15 73.88 C23.45 49.57, 45.05 22.99, 62.17 3.69 M-0.42 81.79 C15.43 63.56, 33.49 45.75, 67.81 3.3 M-0.42 81.79 C15.89 62.27, 33.07 43.62, 67.81 3.3 M0.63 86.68 C21.57 60.33, 44.43 35.38, 73.45 2.9 M0.63 86.68 C15.7 68.16, 29.32 51.98, 73.45 2.9 M1.68 91.56 C29.47 61.67, 53.3 31.71, 79.1 2.51 M1.68 91.56 C20.37 69.56, 40.37 46.84, 79.1 2.51 M2.73 96.45 C20.16 72.91, 42.91 52.44, 84.74 2.11 M2.73 96.45 C29.11 64, 56.68 32.58, 84.74 2.11 M3.78 101.34 C28.66 71.12, 55.94 43.58, 91.04 0.96 M3.78 101.34 C32.82 67.19, 64.78 32.42, 91.04 0.96 M4.83 106.23 C37.22 68.66, 66.51 32.36, 94.71 2.83 M4.83 106.23 C25.64 81.84, 47.3 57.2, 94.71 2.83 M5.89 111.12 C39.13 72.23, 74.06 32.09, 99.05 3.95 M5.89 111.12 C42.3 69.59, 78.32 29.6, 99.05 3.95 M8.25 114.5 C38.42 79.23, 72.09 43.7, 103.38 5.06 M8.25 114.5 C42.15 75.02, 75.55 35.81, 103.38 5.06 M10.61 117.87 C33.4 88.75, 59.24 62.04, 107.05 6.93 M10.61 117.87 C30.56 93.15, 51.9 69.99, 107.05 6.93 M12.97 121.25 C41.92 89.79, 69.02 59.06, 111.38 8.05 M12.97 121.25 C44.23 84.39, 76.91 46.34, 111.38 8.05 M15.34 124.63 C41.13 91.69, 70.67 58.22, 115.71 9.16 M15.34 124.63 C41.06 94.68, 68.94 64.27, 115.71 9.16 M17.7 128.01 C51.4 87.62, 85.35 47.23, 119.39 11.03 M17.7 128.01 C54.11 85.35, 92.82 39.94, 119.39 11.03 M20.06 131.39 C61.38 86.16, 101.29 40.51, 123.72 12.15 M20.06 131.39 C53.46 91.33, 88.83 52.72, 123.72 12.15 M22.42 134.77 C47.51 104.99, 75.67 74.21, 126.74 14.77 M22.42 134.77 C50.41 102.5, 78.56 69.87, 126.74 14.77 M24.79 138.15 C64 96.11, 99.14 54.26, 129.76 17.4 M24.79 138.15 C65.26 92.27, 104.4 47.7, 129.76 17.4 M27.15 141.53 C55.34 110.81, 77.88 81.27, 132.78 20.02 M27.15 141.53 C67.11 96.5, 107.92 49.42, 132.78 20.02 M30.17 144.15 C70.77 99.96, 108.73 56.1, 135.14 23.4 M30.17 144.15 C65.56 102.49, 101.96 61.88, 135.14 23.4 M33.84 146.02 C65.57 110.67, 93.88 78.67, 138.16 26.02 M33.84 146.02 C57.17 118.68, 79.65 91.54, 138.16 26.02 M37.52 147.89 C64.22 116.28, 92.33 83.64, 141.18 28.65 M37.52 147.89 C76.53 102.81, 115.25 58.57, 141.18 28.65 M41.19 149.76 C62.37 121.96, 85.5 96.61, 144.2 31.27 M41.19 149.76 C73.17 111.38, 107.34 71.41, 144.2 31.27 M44.21 152.38 C74.87 120.69, 105.16 83.84, 147.21 33.9 M44.21 152.38 C79.14 111.16, 116.03 68.44, 147.21 33.9 M47.89 154.25 C79.22 118.9, 111.08 80.46, 148.92 38.03 M47.89 154.25 C85.21 111.64, 122.59 69.58, 148.92 38.03 M51.56 156.12 C80.07 121.83, 112.25 87.82, 150.63 42.16 M51.56 156.12 C86.37 118.12, 120.23 78.2, 150.63 42.16 M55.24 157.99 C77.89 128.74, 102.19 100.57, 152.33 46.3 M55.24 157.99 C92.36 114.64, 132.94 69.92, 152.33 46.3 M59.57 159.11 C80.94 137.62, 99.99 113.6, 154.04 50.43 M59.57 159.11 C97.87 114.89, 135.54 72.24, 154.04 50.43 M64.56 159.47 C93.81 124.68, 126.99 88.79, 155.75 54.56 M64.56 159.47 C88.28 131.72, 113.62 104.51, 155.75 54.56 M69.54 159.83 C99.3 126.13, 130.38 90.56, 157.45 58.7 M69.54 159.83 C98.67 124.92, 128.47 91.15, 157.45 58.7 M74.53 160.19 C101.52 128.63, 129.37 97.44, 159.16 62.83 M74.53 160.19 C104.5 124.97, 135.42 90.39, 159.16 62.83 M79.52 160.55 C95.85 138.1, 117.92 117.74, 160.87 66.96 M79.52 160.55 C110.47 124.36, 140.45 90.51, 160.87 66.96 M84.5 160.91 C109.18 133.47, 137.97 100.8, 160.61 73.36 M84.5 160.91 C107.78 135.81, 128.49 111.24, 160.61 73.36 M89.49 161.27 C108.68 139.4, 126.62 118.31, 161 79.01 M89.49 161.27 C108.46 140.09, 125.97 118.84, 161 79.01 M97.1 158.61 C123.07 132.05, 146.24 100.97, 160.74 85.4 M97.1 158.61 C121.86 130.39, 147.2 100.41, 160.74 85.4 M104.06 156.71 C114.69 142.47, 127.15 129.44, 160.48 91.8 M104.06 156.71 C123.54 134.31, 141.75 110.75, 160.48 91.8 M111.67 154.05 C124.5 139.98, 139.56 123.06, 160.87 97.44 M111.67 154.05 C122.71 142.07, 132.76 130.47, 160.87 97.44 M119.28 151.39 C130.71 138.24, 142.75 121.79, 156.67 108.37 M119.28 151.39 C132.23 136.52, 145.12 119.98, 156.67 108.37 M133.45 141.18 C139.88 135.37, 142.09 129.7, 151.16 120.81 M133.45 141.18 C136.99 136.78, 142.77 130.49, 151.16 120.81 M25.93 140.89 C25.93 140.89, 25.93 140.89, 25.93 140.89 M25.93 140.89 C25.93 140.89, 25.93 140.89, 25.93 140.89 M45.16 152.3 C37.5 145.69, 28.38 134.14, 17.23 128.03 M45.16 152.3 C39.23 147.22, 32.12 140.53, 17.23 128.03 M57.59 157.81 C43.95 145.92, 32.92 135.62, 7.78 114.51 M57.59 157.81 C43.98 145.5, 30.95 134.12, 7.78 114.51 M64.74 158.73 C47.74 146.13, 31.93 132.65, 5.88 107.56 M64.74 158.73 C44.2 139.72, 24.3 124.03, 5.88 107.56 M71.14 158.99 C48.17 139.46, 27.77 123.97, 4.73 101.26 M71.14 158.99 C46.81 135.93, 22.04 115.5, 4.73 101.26 M78.29 159.91 C55.5 138.94, 30.96 118.08, 2.82 94.3 M78.29 159.91 C48.18 134.56, 20.29 108.33, 2.82 94.3 M84.69 160.17 C50 132.5, 19.86 104.45, 1.67 88.01 M84.69 160.17 C56.39 133.9, 26.82 108.53, 1.67 88.01 M91.09 160.43 C59.14 132.92, 26.55 102.33, -0.23 81.05 M91.09 160.43 C68.35 141.21, 47.49 121.41, -0.23 81.05 M95.22 158.73 C61.38 131.96, 29.98 103.37, 0.88 76.72 M95.22 158.73 C67.68 134.13, 39.79 111.45, 0.88 76.72 M99.36 157.02 C77.19 136.55, 49.8 116.49, 2 72.39 M99.36 157.02 C77.97 137.47, 55.88 118.48, 2 72.39 M104.25 155.97 C82.38 138.06, 63.79 119.04, 2.36 67.4 M104.25 155.97 C70.77 128.12, 37.66 99.76, 2.36 67.4 M108.38 154.26 C86.11 134.09, 63.46 114.67, 3.47 63.07 M108.38 154.26 C79.74 129.67, 53.64 107.01, 3.47 63.07 M112.51 152.56 C71.05 117.23, 29.48 78.23, 4.59 58.74 M112.51 152.56 C72.2 116.62, 31.13 79.74, 4.59 58.74 M117.4 151.5 C93.33 128.06, 68.36 109.35, 5.7 54.41 M117.4 151.5 C81.62 120.19, 45.65 89.61, 5.7 54.41 M121.54 149.8 C91.12 121.47, 60.26 98.62, 6.82 50.08 M121.54 149.8 C91.66 124.59, 63.71 98.66, 6.82 50.08 M124.91 147.44 C92.75 118.05, 62.49 92.38, 7.93 45.75 M124.91 147.44 C79.16 109.76, 36.42 71.45, 7.93 45.75 M127.54 144.42 C78.15 101.87, 33.62 61.52, 10.56 42.73 M127.54 144.42 C89.74 110.25, 50.51 76.61, 10.56 42.73 M130.92 142.05 C92.43 110.17, 58.5 82.09, 12.43 39.05 M130.92 142.05 C101.28 117.67, 71.8 91.39, 12.43 39.05 M134.3 139.69 C95.38 106.71, 54.58 70.69, 15.05 36.03 M134.3 139.69 C105.23 114.21, 77.37 91.49, 15.05 36.03 M137.68 137.33 C108.85 112.5, 79.3 88.35, 17.68 33.01 M137.68 137.33 C94.86 97.39, 49.23 60.09, 17.68 33.01 M140.3 134.31 C94.92 96.03, 53.14 57.26, 19.55 29.34 M140.3 134.31 C115.16 112, 89.74 88.74, 19.55 29.34 M143.68 131.95 C100.61 94.49, 53.67 55.92, 22.17 26.32 M143.68 131.95 C95.68 91.07, 47.85 49.56, 22.17 26.32 M147.06 129.58 C101.72 87.34, 53.42 48.65, 24.79 23.3 M147.06 129.58 C106.65 95.17, 66.4 60.64, 24.79 23.3 M148.93 125.91 C105.46 85.24, 60.89 46.76, 26.66 19.63 M148.93 125.91 C123.63 103, 97.43 79.76, 26.66 19.63 M150.04 121.58 C119.55 94.11, 91.39 68.63, 30.04 17.26 M150.04 121.58 C114.21 92.43, 78.97 61.69, 30.04 17.26 M151.91 117.9 C119.94 88.06, 87.16 62.85, 34.18 15.56 M151.91 117.9 C113.5 84.69, 73.14 50.29, 34.18 15.56 M153.78 114.23 C106.89 75.02, 62.67 36.37, 38.31 13.85 M153.78 114.23 C127.78 91.55, 100.75 68.91, 38.31 13.85 M155.65 110.55 C117.23 76.2, 78.98 42.99, 41.69 11.49 M155.65 110.55 C122.04 80.7, 89.29 51.9, 41.69 11.49 M156.76 106.22 C129.25 84.11, 107.01 59.72, 45.82 9.78 M156.76 106.22 C125.5 81.62, 95.47 54.97, 45.82 9.78 M158.63 102.55 C123.05 71.5, 88.34 40.57, 49.2 7.42 M158.63 102.55 C133.64 79.39, 106.29 55.22, 49.2 7.42 M160.5 98.87 C126.29 66.09, 87.19 35.71, 53.34 5.71 M160.5 98.87 C139.45 80.13, 117.92 60.52, 53.34 5.71 M160.11 93.23 C137.75 74.26, 115.52 56.06, 56.71 3.35 M160.11 93.23 C121.53 59.75, 83.36 27.49, 56.71 3.35 M160.47 88.24 C133.07 65.08, 106.25 42.39, 61.6 2.3 M160.47 88.24 C139.83 70.03, 118.92 51.51, 61.6 2.3 M160.83 83.26 C128.78 56.95, 95.41 26.32, 68 2.56 M160.83 83.26 C132.15 59.76, 106.23 34.21, 68 2.56 M160.43 77.61 C128.2 48.36, 94.52 19.68, 73.64 2.17 M160.43 77.61 C131.53 53.57, 102.5 29.12, 73.64 2.17 M160.8 72.63 C136.48 51.32, 116.16 33.44, 79.29 1.77 M160.8 72.63 C141.22 55.34, 120.89 38.82, 79.29 1.77 M160.4 66.98 C132.18 41.77, 104.43 18.46, 84.93 1.38 M160.4 66.98 C130.32 40.66, 99.71 14.43, 84.93 1.38 M158.5 60.03 C140.24 43.41, 122.86 29.28, 90.57 0.98 M158.5 60.03 C139.39 44.6, 120.14 27.73, 90.57 0.98 M155.08 51.76 C137.79 38.67, 123.99 24.63, 100.74 4.52 M155.08 51.76 C139.91 37.17, 122.99 24.52, 100.74 4.52 M151.67 43.49 C134.61 28.39, 118.95 14.01, 110.16 7.41 M151.67 43.49 C140.71 34.43, 127.76 23.66, 110.16 7.41 M148.26 35.22 C141.86 28.24, 132.79 23.58, 120.33 10.95 M148.26 35.22 C140.37 27.53, 130.9 21.04, 120.33 10.95" stroke="#77b153" stroke-width="0.5" fill="none"></path><path d="M90.5 1.13 C101.07 1.35, 114.1 6.53, 123.49 11.96 C132.88 17.39, 140.76 24.9, 146.85 33.73 C152.93 42.56, 157.83 53.99, 160.01 64.93 C162.19 75.88, 162.11 88.61, 159.93 99.42 C157.76 110.22, 153.56 121.2, 146.96 129.77 C140.35 138.35, 129.94 145.63, 120.31 150.88 C110.68 156.13, 99.99 160.03, 89.19 161.28 C78.38 162.53, 65.95 161.72, 55.47 158.38 C44.99 155.03, 34.45 148.8, 26.29 141.21 C18.13 133.62, 11 122.98, 6.51 112.83 C2.02 102.68, -0.78 91.39, -0.64 80.32 C-0.51 69.25, 2.64 56.63, 7.34 46.43 C12.03 36.24, 19.2 26.35, 27.55 19.13 C35.89 11.91, 45.71 5.85, 57.4 3.09 C69.1 0.33, 90.02 2.19, 97.71 2.55 C105.39 2.9, 103.79 4.06, 103.53 5.21 M72.2 0.98 C82.38 -1.77, 94.43 -0.74, 105.02 2.56 C115.61 5.85, 127.23 13.13, 135.76 20.74 C144.28 28.35, 151.64 38.14, 156.19 48.2 C160.74 58.26, 163.02 70.28, 163.07 81.1 C163.12 91.92, 161.19 103.01, 156.47 113.11 C151.75 123.2, 142.98 134.48, 134.75 141.67 C126.51 148.87, 117.43 152.81, 107.07 156.25 C96.71 159.7, 83.55 163.18, 72.59 162.36 C61.63 161.54, 50.78 156.78, 41.33 151.34 C31.88 145.89, 22.74 138.74, 15.91 129.69 C9.07 120.65, 2.48 108.21, 0.33 97.06 C-1.82 85.91, 0.38 73.59, 3 62.78 C5.62 51.97, 9.86 40.85, 16.04 32.22 C22.22 23.6, 30.53 16.32, 40.08 11.03 C49.62 5.73, 67.72 1.77, 73.33 0.45 C78.94 -0.87, 73.5 1.53, 73.75 3.11" stroke="#ffffff" stroke-width="1" fill="none"></path></g><g stroke-linecap="round" transform="translate(7.87800418755387 6) rotate(0 48.24335126196817 48.07356962206853)"><path d="M14.08 13.56 C14.08 13.56, 14.08 13.56, 14.08 13.56 M14.08 13.56 C14.08 13.56, 14.08 13.56, 14.08 13.56 M5.94 29.02 C12.41 20.64, 18.48 15.62, 24.31 7.88 M5.94 29.02 C9.37 25.02, 13.82 18.6, 24.31 7.88 M2.4 39.19 C16.45 23.62, 27.83 11.74, 34.55 2.21 M2.4 39.19 C12.75 28.07, 21.75 16.27, 34.55 2.21 M2.8 44.83 C9.88 34.33, 18.42 26.38, 40.19 1.81 M2.8 44.83 C12 35.31, 20.12 25.17, 40.19 1.81 M2.53 51.23 C17.67 32.63, 32.47 18.69, 45.18 2.17 M2.53 51.23 C16.21 35.1, 31.55 18.25, 45.18 2.17 M2.93 56.87 C15.61 45.32, 24.54 30.89, 50.82 1.78 M2.93 56.87 C17 38.55, 33.81 20.53, 50.82 1.78 M3.32 62.51 C19.82 42.47, 34.41 26.52, 55.81 2.14 M3.32 62.51 C17.89 45.07, 33.7 27.91, 55.81 2.14 M5.69 65.89 C19.99 46.79, 37.38 32.12, 60.79 2.5 M5.69 65.89 C26.51 43.74, 47.23 20.23, 60.79 2.5 M7.39 70.03 C31.22 43.23, 52.67 17.86, 64.47 4.37 M7.39 70.03 C19.53 55.73, 31.54 43.29, 64.47 4.37 M9.76 73.41 C23.77 59.03, 36.71 44.34, 68.14 6.24 M9.76 73.41 C23.42 58.61, 37.2 43.46, 68.14 6.24 M11.46 77.54 C30.7 58.19, 46.65 38.07, 71.82 8.11 M11.46 77.54 C24.28 62.96, 35.81 47.71, 71.82 8.11 M13.82 80.92 C33.17 56.23, 54.52 33.56, 75.49 9.98 M13.82 80.92 C26.26 66.88, 39.19 52.32, 75.49 9.98 M16.19 84.3 C29.87 70.58, 43.59 52.59, 79.17 11.85 M16.19 84.3 C41.46 56.23, 64.73 28.6, 79.17 11.85 M19.86 86.17 C36.68 67.98, 50.46 49.63, 82.84 13.71 M19.86 86.17 C34.05 69.42, 49.03 53.52, 82.84 13.71 M23.54 88.04 C37.36 71.68, 51.06 57.62, 85.21 17.09 M23.54 88.04 C40.91 68.89, 57.21 50.74, 85.21 17.09 M27.21 89.91 C51.5 62.93, 75.61 35.67, 86.91 21.23 M27.21 89.91 C41.57 73.22, 56.7 57.43, 86.91 21.23 M30.23 92.53 C43.8 73.91, 61.76 55.45, 89.28 24.61 M30.23 92.53 C44 77.6, 57.13 62.76, 89.28 24.61 M33.91 94.4 C50.96 74.24, 73.25 50.48, 90.98 28.74 M33.91 94.4 C45.13 81.33, 57.31 66.36, 90.98 28.74 M38.24 95.51 C57.7 74.19, 75.72 51.82, 93.35 32.12 M38.24 95.51 C51.41 79.92, 65.06 64.52, 93.35 32.12 M43.88 95.12 C55.95 81.86, 67.36 69.5, 95.05 36.25 M43.88 95.12 C61.54 75.21, 78.56 55.43, 95.05 36.25 M49.52 94.73 C68.95 75.28, 83.41 53.69, 94.79 42.65 M49.52 94.73 C63.88 77.87, 77.23 62.79, 94.79 42.65 M55.17 94.33 C69.97 77.62, 86.29 57.45, 95.19 48.29 M55.17 94.33 C64.26 83.15, 74.6 71.26, 95.19 48.29 M60.81 93.94 C74.51 80.86, 86.5 64.19, 94.92 54.69 M60.81 93.94 C71.59 82.48, 80.09 71.37, 94.92 54.69 M69.08 90.52 C79.44 77.47, 91.03 67.2, 95.32 60.33 M69.08 90.52 C78.83 78.48, 90.51 66.62, 95.32 60.33 M78.66 85.6 C80.64 83.34, 83.02 79.93, 87.84 75.03 M78.66 85.6 C80.89 82.71, 83.01 81.43, 87.84 75.03 M14.25 82.69 C14.25 82.69, 14.25 82.69, 14.25 82.69 M14.25 82.69 C14.25 82.69, 14.25 82.69, 14.25 82.69 M33.48 94.1 C24.49 85.16, 15.55 75.14, 8.57 72.45 M33.48 94.1 C24.33 85.43, 15.21 77.33, 8.57 72.45 M39.87 94.36 C27.69 80.9, 14.01 69.73, 3.65 62.87 M39.87 94.36 C27.52 84.45, 15.28 72.68, 3.65 62.87 M45.52 93.97 C32.19 80.75, 17.1 70.95, 2.5 56.57 M45.52 93.97 C30.09 81.32, 16.06 67.42, 2.5 56.57 M51.91 94.23 C41.71 84.3, 25.4 70.4, 2.86 51.58 M51.91 94.23 C34.55 79.52, 18.46 66.46, 2.86 51.58 M57.56 93.83 C40.63 77.23, 21.45 62.14, 2.46 45.94 M57.56 93.83 C41.9 80.35, 26.33 65.85, 2.46 45.94 M62.45 92.78 C39.47 72.79, 19.98 53.08, 2.82 40.95 M62.45 92.78 C40.79 74.82, 19.32 55.72, 2.82 40.95 M66.58 91.08 C43.96 72.04, 19.24 49.88, 2.43 35.31 M66.58 91.08 C51.44 78.21, 34.96 64.28, 2.43 35.31 M70.71 89.37 C55.66 76.44, 37.57 60.94, 4.3 31.64 M70.71 89.37 C51.29 74, 34.2 56.29, 4.3 31.64 M74.09 87.01 C55.63 70.25, 36.67 54.61, 6.17 27.96 M74.09 87.01 C57.43 71.68, 39.73 57.06, 6.17 27.96 M78.23 85.3 C50.79 60.17, 23.42 39.54, 8.79 24.94 M78.23 85.3 C57.76 68.05, 38.62 50.93, 8.79 24.94 M81.6 82.94 C61.16 64.76, 42.3 49.26, 10.66 21.27 M81.6 82.94 C62.55 64.39, 40.72 47.64, 10.66 21.27 M84.23 79.92 C59.3 57.62, 30.42 32.79, 12.53 17.59 M84.23 79.92 C55.9 57.02, 30.43 32.17, 12.53 17.59 M86.1 76.24 C66.16 59.35, 45.9 41, 14.4 13.92 M86.1 76.24 C62.32 54.28, 38.65 33.13, 14.4 13.92 M87.97 72.57 C58.45 50.05, 30.81 25.87, 17.78 11.56 M87.97 72.57 C67.05 53.88, 46.04 35.94, 17.78 11.56 M89.84 68.89 C67.99 49.89, 43.82 28.09, 21.16 9.19 M89.84 68.89 C66.21 47.5, 42.47 28.77, 21.16 9.19 M91.71 65.22 C74.24 51.69, 57.14 33.48, 25.29 7.49 M91.71 65.22 C65.06 42.92, 40.28 20.89, 25.29 7.49 M93.58 61.54 C79.37 48.79, 62.12 34.36, 28.67 5.12 M93.58 61.54 C79.63 49.63, 64.28 36.62, 28.67 5.12 M95.45 57.87 C69.44 36.22, 48.49 17.03, 32.81 3.42 M95.45 57.87 C72.03 37.82, 49.42 18.56, 32.81 3.42 M95.05 52.23 C81.48 39.65, 67.76 26.81, 36.18 1.05 M95.05 52.23 C79.11 38, 64.29 24.43, 36.18 1.05 M95.41 47.24 C83.23 36.52, 70.66 22.74, 42.58 1.32 M95.41 47.24 C81.51 34.3, 65.28 21.82, 42.58 1.32 M95.02 41.6 C87.2 34.64, 77.03 23.35, 48.98 1.58 M95.02 41.6 C78.78 27.4, 61.18 12.27, 48.98 1.58 M94.62 35.95 C81.44 26.62, 70.67 13.13, 55.38 1.84 M94.62 35.95 C84.58 29.07, 76.68 20.05, 55.38 1.84 M90.45 27.03 C85 22.23, 75.78 13.96, 61.78 2.1 M90.45 27.03 C79.86 18.82, 69.96 10.25, 61.78 2.1 M84.78 16.79 C80.66 13.59, 78.83 10.78, 75.72 8.92 M84.78 16.79 C82.7 15.26, 80.56 13.61, 75.72 8.92" stroke="#77b153" stroke-width="0.5" fill="none"></path><path d="M61.07 2.29 C68.85 3.48, 77.22 7.81, 82.76 13.19 C88.29 18.56, 92.29 26.76, 94.28 34.52 C96.27 42.29, 96.56 51.78, 94.71 59.79 C92.86 67.8, 88.73 76.9, 83.19 82.58 C77.64 88.26, 69.41 91.79, 61.45 93.89 C53.49 95.98, 43.3 97.02, 35.42 95.14 C27.54 93.27, 19.64 88.32, 14.18 82.63 C8.72 76.93, 4.59 68.78, 2.66 60.98 C0.72 53.17, 0.67 43.69, 2.57 35.79 C4.47 27.89, 8.46 19.3, 14.05 13.6 C19.63 7.89, 27.5 3.28, 36.09 1.56 C44.67 -0.17, 59.88 2.35, 65.53 3.25 C71.18 4.15, 70.29 6.2, 70 6.95 M68.04 3.99 C75.4 6.33, 82.19 12.92, 87.08 19.42 C91.96 25.91, 96.41 35.06, 97.35 42.95 C98.3 50.83, 96.45 59.32, 92.74 66.73 C89.03 74.15, 81.69 82.44, 75.09 87.44 C68.5 92.45, 60.9 95.92, 53.19 96.76 C45.48 97.61, 36.13 95.8, 28.86 92.53 C21.58 89.25, 14.39 83.89, 9.54 77.12 C4.7 70.34, 0.53 59.94, -0.21 51.9 C-0.94 43.85, 1.99 36.06, 5.12 28.86 C8.26 21.66, 12.05 13.37, 18.61 8.69 C25.17 4.01, 36.17 1.47, 44.47 0.77 C52.76 0.07, 64.34 4.03, 68.39 4.51 C72.44 4.98, 69.31 2.73, 68.78 3.63" stroke="#ffffff" stroke-width="1" fill="none"></path></g></svg>