<svg version="1.1" xmlns="http://www.w3.org/2000/svg" viewBox="0 0 90.16900758373254 139.98136645962745" width="90.16900758373254" height="139.98136645962745">
  <!-- svg-source:excalidraw -->
  
  <defs>
    
    
  </defs>
  <g transform="translate(13.282608695652584 108.98136645962745) rotate(0 32.5 12.5)"><text x="0" y="0" font-family="Virgil, Segoe UI Emoji" font-size="20px" fill="#000000" text-anchor="start" style="white-space: pre;" direction="ltr" dominant-baseline="text-before-edge">Search</text></g><g stroke-linecap="round" transform="translate(32.023721414063175 56.64181284002518) rotate(45.161171448428654 29.383687475545116 2.8807536740730484)"><path d="M1.44 0 C16.39 1.86, 25.48 2.71, 57.33 0 C58.09 1.19, 57.24 1.73, 58.77 1.44 C58.98 2.47, 59 2.7, 58.77 4.32 C57.79 4.57, 59.59 6.61, 57.33 5.76 C42.91 6.09, 31.03 8.39, 1.44 5.76 C1.06 3.59, 2.31 5.35, 0 4.32 C0.09 3.39, 0.23 2.89, 0 1.44 C1.12 1.28, -0.76 -1.32, 1.44 0" stroke="none" stroke-width="0" fill="#868e96"></path><path d="M1.44 0 C17.06 0.29, 30.84 0.28, 57.33 0 M1.44 0 C13.66 0.06, 26.09 -0.07, 57.33 0 M57.33 0 C58.57 0.01, 59.7 -0.28, 58.77 1.44 M57.33 0 C58.95 -0.67, 59.35 0.73, 58.77 1.44 M58.77 1.44 C58.84 2.56, 58.83 3.61, 58.77 4.32 M58.77 1.44 C58.74 2.04, 58.82 2.66, 58.77 4.32 M58.77 4.32 C58.98 4.9, 58.55 6.51, 57.33 5.76 M58.77 4.32 C57.87 6.41, 58.01 5.85, 57.33 5.76 M57.33 5.76 C43.93 6.75, 31.24 6.72, 1.44 5.76 M57.33 5.76 C43.94 5.58, 30.35 5.21, 1.44 5.76 M1.44 5.76 C0.99 6.5, -0.91 5.86, 0 4.32 M1.44 5.76 C1 5.23, 0.02 5.36, 0 4.32 M0 4.32 C0.07 3.34, -0.14 2.66, 0 1.44 M0 4.32 C-0.06 3.59, -0.03 2.71, 0 1.44 M0 1.44 C0.14 -0.06, 0.02 -0.4, 1.44 0 M0 1.44 C0.78 0.03, -0.56 -0.86, 1.44 0" stroke="#000000" stroke-width="1" fill="none"></path></g><g stroke-linecap="round" transform="translate(5.999999999999886 6.000000000000028) rotate(0 27.555900621117928 27.555900621117942)"><path d="M17.32 1.98 C22.67 -0.12, 31.47 0.46, 37.26 2.24 C43.05 4.01, 49.14 7.58, 52.05 12.62 C54.97 17.66, 55.83 26.52, 54.75 32.48 C53.67 38.44, 50.19 44.49, 45.58 48.38 C40.97 52.27, 32.94 55.81, 27.09 55.83 C21.25 55.84, 14.98 52.24, 10.5 48.47 C6.03 44.69, 1.26 38.86, 0.23 33.17 C-0.79 27.48, 0.58 19.79, 4.36 14.32 C8.13 8.84, 18.6 2.71, 22.9 0.32 C27.19 -2.08, 29.85 -0.66, 30.14 -0.06 M14.61 2.79 C19.63 -0.02, 27.88 0.49, 33.77 2.07 C39.66 3.65, 46.32 7.89, 49.95 12.27 C53.59 16.65, 56.06 22.64, 55.58 28.34 C55.11 34.04, 51.1 42.26, 47.1 46.46 C43.09 50.67, 37.32 53.03, 31.55 53.57 C25.79 54.11, 17.64 52.73, 12.48 49.7 C7.33 46.67, 2.14 40.78, 0.62 35.4 C-0.91 30.02, 0.84 22.83, 3.34 17.41 C5.83 11.99, 13.46 5.01, 15.6 2.88 C17.73 0.74, 15.94 4.39, 16.15 4.6" stroke="none" stroke-width="0" fill="#868e96"></path><path d="M35.41 1.55 C41.11 2.76, 48.68 7.37, 51.84 12.55 C55 17.73, 55.4 26.59, 54.39 32.62 C53.38 38.65, 50.14 44.91, 45.76 48.72 C41.39 52.54, 34.17 55.53, 28.13 55.52 C22.08 55.51, 14.14 52.26, 9.5 48.64 C4.86 45.03, 1.25 39.4, 0.29 33.83 C-0.66 28.27, 0.78 20.63, 3.78 15.25 C6.79 9.88, 11.89 3.38, 18.31 1.58 C24.73 -0.22, 37.43 3.27, 42.33 4.46 C47.23 5.65, 48.03 8.33, 47.71 8.73 M29.41 1.33 C35.43 1.18, 44.2 3.44, 48.54 7.29 C52.87 11.14, 55.01 18.35, 55.45 24.44 C55.9 30.53, 54.81 38.86, 51.2 43.83 C47.58 48.79, 39.89 52.76, 33.75 54.23 C27.6 55.7, 19.71 55.33, 14.3 52.66 C8.89 49.99, 3.39 43.46, 1.3 38.22 C-0.8 32.98, -0.01 26.63, 1.74 21.22 C3.48 15.8, 6.92 9.09, 11.78 5.75 C16.64 2.4, 27.56 2.2, 30.9 1.14 C34.24 0.08, 31.97 -0.89, 31.8 -0.6" stroke="#000000" stroke-width="1" fill="none"></path></g><g stroke-linecap="round" transform="translate(14.260869565217263 15.130434782608802) rotate(0 19.768633540372605 19.768633540372576)"><path d="M18.47 0.42 C22.39 -0.16, 27.83 0.9, 31.29 3.36 C34.76 5.83, 38.25 11.02, 39.26 15.19 C40.28 19.37, 39.24 24.72, 37.36 28.44 C35.49 32.15, 31.92 35.83, 28.01 37.5 C24.11 39.16, 18.07 39.54, 13.95 38.4 C9.82 37.27, 5.65 34.19, 3.27 30.69 C0.9 27.19, -0.81 21.66, -0.31 17.41 C0.2 13.15, 3.04 8.05, 6.31 5.15 C9.59 2.25, 16.91 0.77, 19.34 -0.01 C21.77 -0.78, 20.83 0.21, 20.89 0.48 M19.27 -0.17 C23.27 -0.51, 29.02 1.92, 32.43 4.74 C35.83 7.56, 39.03 12.48, 39.71 16.74 C40.39 21, 38.77 26.59, 36.52 30.29 C34.27 33.99, 30.09 37.57, 26.23 38.94 C22.37 40.3, 17.31 40.11, 13.37 38.5 C9.43 36.88, 4.83 32.97, 2.58 29.24 C0.33 25.51, -0.88 20.3, -0.14 16.13 C0.6 11.95, 3.76 6.82, 7.03 4.2 C10.29 1.58, 17.19 0.94, 19.46 0.42 C21.72 -0.1, 20.59 0.7, 20.6 1.08" stroke="none" stroke-width="0" fill="white"></path><path d="M20.95 -0.32 C25.09 -0.27, 30.9 2.39, 33.91 5.43 C36.91 8.48, 38.6 13.75, 38.99 17.95 C39.38 22.16, 38.58 27.2, 36.25 30.66 C33.92 34.12, 29.16 37.54, 25.01 38.71 C20.87 39.87, 15.22 39.43, 11.39 37.64 C7.55 35.85, 3.85 31.79, 2 27.97 C0.15 24.16, -0.8 18.87, 0.28 14.76 C1.36 10.66, 4.8 5.76, 8.49 3.36 C12.18 0.95, 20.08 0.81, 22.41 0.33 C24.73 -0.14, 22.51 0.25, 22.45 0.51 M24.69 1.09 C28.65 1.68, 32.79 4.84, 35.25 8.23 C37.71 11.61, 39.53 17.33, 39.47 21.42 C39.4 25.51, 37.63 29.67, 34.86 32.77 C32.09 35.87, 27.18 39.48, 22.84 40.03 C18.5 40.58, 12.5 38.49, 8.83 36.08 C5.16 33.67, 2.01 29.5, 0.82 25.59 C-0.37 21.68, 0.13 16.63, 1.69 12.64 C3.25 8.65, 6.51 3.63, 10.17 1.65 C13.84 -0.34, 21.36 0.86, 23.68 0.72 C25.99 0.57, 24.13 0.51, 24.06 0.79" stroke="#000000" stroke-width="1" fill="none"></path></g></svg>