<svg version="1.1" xmlns="http://www.w3.org/2000/svg" viewBox="0 0 180.02224668086274 137.6332872311059" width="180.02224668086274" height="137.6332872311059">
  <!-- svg-source:excalidraw -->
  
  <defs>
    
    
  </defs>
  <g stroke-linecap="round"><g transform="translate(40.522952135597734 50.761686080403706) rotate(0 49.380001609548344 18.15457049539532)" fill-rule="evenodd"><path d="M0 0 C-3.39 0.57, -15.23 1.8, -20.32 3.39 C-25.41 4.99, -28.24 7.22, -30.52 9.56 C-32.8 11.89, -33.58 14.4, -34.02 17.4 C-34.45 20.41, -35.22 23.34, -33.14 27.56 C-31.05 31.78, -28.06 37.23, -21.51 42.73 C-14.95 48.22, -6.34 54.77, 6.17 60.54 C18.69 66.31, 40.13 73.94, 53.58 77.32 C67.02 80.71, 76.93 80.95, 86.85 80.86 C96.76 80.76, 105.86 79.75, 113.05 76.73 C120.24 73.72, 126.69 68.29, 129.98 62.75 C133.27 57.2, 134.37 49.52, 132.78 43.46 C131.18 37.4, 124.85 30.56, 120.41 26.38 C115.97 22.21, 108.73 20.18, 106.13 18.44 C103.53 16.69, 106.4 22.29, 104.81 15.93 C103.21 9.58, 98.43 -12.58, 96.56 -19.69 C94.7 -26.81, 94.87 -24.97, 93.62 -26.76 C92.37 -28.55, 95 -27.71, 89.06 -30.44 C83.11 -33.17, 64.4 -40.79, 57.93 -43.14 C51.46 -45.49, 52.16 -44.62, 50.25 -44.55 C48.33 -44.47, 47.92 -43.69, 46.42 -42.71 C44.91 -41.72, 42.58 -39.41, 41.22 -38.65 C39.86 -37.88, 39.36 -38.1, 38.23 -38.11 C37.11 -38.12, 36.41 -38.02, 34.47 -38.71 C32.53 -39.39, 28.77 -41.54, 26.59 -42.23 C24.41 -42.92, 23.04 -43.02, 21.39 -42.83 C19.74 -42.64, 18 -42.19, 16.67 -41.09 C15.34 -40, 15.02 -40.09, 13.39 -36.26 C11.75 -32.42, 8.83 -23.45, 6.88 -18.1 C4.92 -12.74, 2.84 -7.14, 1.68 -4.12 C0.51 -1.11, 0.19 -0.69, -0.11 0" stroke="none" stroke-width="0" fill="#ee0000" fill-rule="evenodd"></path><path d="M0 0 C-3.39 0.57, -15.23 1.8, -20.32 3.39 C-25.41 4.99, -28.24 7.22, -30.52 9.56 C-32.8 11.89, -33.58 14.4, -34.02 17.4 C-34.45 20.41, -35.22 23.34, -33.14 27.56 C-31.05 31.78, -28.06 37.23, -21.51 42.73 C-14.95 48.22, -6.34 54.77, 6.17 60.54 C18.69 66.31, 40.13 73.94, 53.58 77.32 C67.02 80.71, 76.93 80.95, 86.85 80.86 C96.76 80.76, 105.86 79.75, 113.05 76.73 C120.24 73.72, 126.69 68.29, 129.98 62.75 C133.27 57.2, 134.37 49.52, 132.78 43.46 C131.18 37.4, 124.85 30.56, 120.41 26.38 C115.97 22.21, 108.73 20.18, 106.13 18.44 C103.53 16.69, 106.4 22.29, 104.81 15.93 C103.21 9.58, 98.43 -12.58, 96.56 -19.69 C94.7 -26.81, 94.87 -24.97, 93.62 -26.76 C92.37 -28.55, 95 -27.71, 89.06 -30.44 C83.11 -33.17, 64.4 -40.79, 57.93 -43.14 C51.46 -45.49, 52.16 -44.62, 50.25 -44.55 C48.33 -44.47, 47.92 -43.69, 46.42 -42.71 C44.91 -41.72, 42.58 -39.41, 41.22 -38.65 C39.86 -37.88, 39.36 -38.1, 38.23 -38.11 C37.11 -38.12, 36.41 -38.02, 34.47 -38.71 C32.53 -39.39, 28.77 -41.54, 26.59 -42.23 C24.41 -42.92, 23.04 -43.02, 21.39 -42.83 C19.74 -42.64, 18 -42.19, 16.67 -41.09 C15.34 -40, 15.02 -40.09, 13.39 -36.26 C11.75 -32.42, 8.83 -23.45, 6.88 -18.1 C4.92 -12.74, 2.84 -7.14, 1.68 -4.12 C0.51 -1.11, 0.19 -0.69, -0.11 0 M0 0 C-3.39 0.57, -15.23 1.8, -20.32 3.39 C-25.41 4.99, -28.24 7.22, -30.52 9.56 C-32.8 11.89, -33.58 14.4, -34.02 17.4 C-34.45 20.41, -35.22 23.34, -33.14 27.56 C-31.05 31.78, -28.06 37.23, -21.51 42.73 C-14.95 48.22, -6.34 54.77, 6.17 60.54 C18.69 66.31, 40.13 73.94, 53.58 77.32 C67.02 80.71, 76.93 80.95, 86.85 80.86 C96.76 80.76, 105.86 79.75, 113.05 76.73 C120.24 73.72, 126.69 68.29, 129.98 62.75 C133.27 57.2, 134.37 49.52, 132.78 43.46 C131.18 37.4, 124.85 30.56, 120.41 26.38 C115.97 22.21, 108.73 20.18, 106.13 18.44 C103.53 16.69, 106.4 22.29, 104.81 15.93 C103.21 9.58, 98.43 -12.58, 96.56 -19.69 C94.7 -26.81, 94.87 -24.97, 93.62 -26.76 C92.37 -28.55, 95 -27.71, 89.06 -30.44 C83.11 -33.17, 64.4 -40.79, 57.93 -43.14 C51.46 -45.49, 52.16 -44.62, 50.25 -44.55 C48.33 -44.47, 47.92 -43.69, 46.42 -42.71 C44.91 -41.72, 42.58 -39.41, 41.22 -38.65 C39.86 -37.88, 39.36 -38.1, 38.23 -38.11 C37.11 -38.12, 36.41 -38.02, 34.47 -38.71 C32.53 -39.39, 28.77 -41.54, 26.59 -42.23 C24.41 -42.92, 23.04 -43.02, 21.39 -42.83 C19.74 -42.64, 18 -42.19, 16.67 -41.09 C15.34 -40, 15.02 -40.09, 13.39 -36.26 C11.75 -32.42, 8.83 -23.45, 6.88 -18.1 C4.92 -12.74, 2.84 -7.14, 1.68 -4.12 C0.51 -1.11, 0.19 -0.69, -0.11 0" stroke="#ee0000" stroke-width="1" fill="none"></path></g></g><mask></mask><g stroke-linecap="round"><g transform="translate(41.86577485590897 46.30297568400874) rotate(0 51.03317095080274 24.558455113727405)" fill-rule="evenodd"><path d="M0 0 C0.82 0.95, 2.26 3.33, 4.95 5.7 C7.63 8.07, 10.71 10.91, 16.09 14.2 C21.47 17.49, 28.89 22.43, 37.22 25.46 C45.55 28.48, 58.15 31.16, 66.05 32.35 C73.96 33.53, 79.47 33.29, 84.66 32.58 C89.85 31.86, 94.18 30.25, 97.17 28.06 C100.15 25.87, 101.44 20.51, 102.56 19.44 C103.69 18.36, 103.5 19.36, 103.89 21.61 C104.28 23.86, 105.74 29.5, 104.9 32.94 C104.05 36.37, 102.31 39.64, 98.84 42.23 C95.37 44.81, 90.07 47.28, 84.09 48.43 C78.1 49.58, 70.99 49.94, 62.95 49.12 C54.91 48.29, 43.73 46.17, 35.84 43.49 C27.96 40.81, 21.06 36.52, 15.63 33.04 C10.19 29.55, 6.3 26.24, 3.22 22.58 C0.15 18.92, -2.29 14.83, -2.83 11.07 C-3.37 7.31, -0.47 1.85, 0 0" stroke="none" stroke-width="0" fill="#000000" fill-rule="evenodd"></path><path d="M0 0 C0.82 0.95, 2.26 3.33, 4.95 5.7 C7.63 8.07, 10.71 10.91, 16.09 14.2 C21.47 17.49, 28.89 22.43, 37.22 25.46 C45.55 28.48, 58.15 31.16, 66.05 32.35 C73.96 33.53, 79.47 33.29, 84.66 32.58 C89.85 31.86, 94.18 30.25, 97.17 28.06 C100.15 25.87, 101.44 20.51, 102.56 19.44 C103.69 18.36, 103.5 19.36, 103.89 21.61 C104.28 23.86, 105.74 29.5, 104.9 32.94 C104.05 36.37, 102.31 39.64, 98.84 42.23 C95.37 44.81, 90.07 47.28, 84.09 48.43 C78.1 49.58, 70.99 49.94, 62.95 49.12 C54.91 48.29, 43.73 46.17, 35.84 43.49 C27.96 40.81, 21.06 36.52, 15.63 33.04 C10.19 29.55, 6.3 26.24, 3.22 22.58 C0.15 18.92, -2.29 14.83, -2.83 11.07 C-3.37 7.31, -0.47 1.85, 0 0 M0 0 C0.82 0.95, 2.26 3.33, 4.95 5.7 C7.63 8.07, 10.71 10.91, 16.09 14.2 C21.47 17.49, 28.89 22.43, 37.22 25.46 C45.55 28.48, 58.15 31.16, 66.05 32.35 C73.96 33.53, 79.47 33.29, 84.66 32.58 C89.85 31.86, 94.18 30.25, 97.17 28.06 C100.15 25.87, 101.44 20.51, 102.56 19.44 C103.69 18.36, 103.5 19.36, 103.89 21.61 C104.28 23.86, 105.74 29.5, 104.9 32.94 C104.05 36.37, 102.31 39.64, 98.84 42.23 C95.37 44.81, 90.07 47.28, 84.09 48.43 C78.1 49.58, 70.99 49.94, 62.95 49.12 C54.91 48.29, 43.73 46.17, 35.84 43.49 C27.96 40.81, 21.06 36.52, 15.63 33.04 C10.19 29.55, 6.3 26.24, 3.22 22.58 C0.15 18.92, -2.29 14.83, -2.83 11.07 C-3.37 7.31, -0.47 1.85, 0 0" stroke="#000000" stroke-width="1" fill="none"></path></g></g><mask></mask></svg>