<svg version="1.1" xmlns="http://www.w3.org/2000/svg" viewBox="0 0 203.41597756015472 354.6238586282062" width="203.41597756015472" height="354.6238586282062">
  <!-- svg-source:excalidraw -->
  
  <defs>
    
    
  </defs>
  <g stroke-linecap="round"><g transform="translate(68.26289714890322 281.6147952665501) rotate(359.4727933177862 31.305982199213304 12.70888230555795)" fill-rule="evenodd"><path d="M0.68 -1.45 L62.92 -38.83 L61.45 32.42 L-1.51 65.55 L0.61 1.28" stroke="none" stroke-width="0" fill="#ecc75c" fill-rule="evenodd"></path><path d="M0 0 C15.33 -11.16, 31.39 -18.17, 64.69 -39.3 M0 0 C13.86 -8.64, 27.45 -15.77, 64.69 -39.3 M64.69 -39.3 C65.07 -21.62, 62.82 -3.53, 61.3 31.28 M64.69 -39.3 C63.43 -22.95, 62.76 -6.77, 61.3 31.28 M61.3 31.28 C39.92 44.25, 17.65 53.13, -2.08 64.72 M61.3 31.28 C44.66 40.18, 30 48.36, -2.08 64.72 M-2.08 64.72 C-1.44 49.72, 1.2 33.63, 0 0 M-2.08 64.72 C-1.86 39.46, -0.52 12.56, 0 0 M0 0 C0 0, 0 0, 0 0 M0 0 C0 0, 0 0, 0 0" stroke="#000000" stroke-width="1" fill="none"></path></g></g><mask></mask><g stroke-linecap="round"><g transform="translate(70.21394806642411 282.07973034731106) rotate(359.4727933177862 -31.539600912934247 16.579921643060857)" fill-rule="evenodd"><path d="M-1.45 -1.78 L-1.7 66.97 L-61.94 35.11 L-61.23 -33.05 L1.28 -0.6" stroke="none" stroke-width="0" fill="#ecc75c" fill-rule="evenodd"></path><path d="M0 0 C-2.06 21.5, -0.64 38.22, -2.17 66.82 M0 0 C-1 17.52, -0.4 34.56, -2.17 66.82 M-2.17 66.82 C-25.25 53.91, -48.03 40.91, -63.08 34.53 M-2.17 66.82 C-17.51 58.57, -32.79 51, -63.08 34.53 M-63.08 34.53 C-61.23 20.11, -63.87 2.41, -62.07 -33.66 M-63.08 34.53 C-62.07 20.78, -62.03 5.1, -62.07 -33.66 M-62.07 -33.66 C-45.95 -23.48, -31.14 -15.2, 0 0 M-62.07 -33.66 C-43.28 -23.52, -26.16 -13.66, 0 0 M0 0 C0 0, 0 0, 0 0 M0 0 C0 0, 0 0, 0 0" stroke="#000000" stroke-width="1" fill="none"></path></g></g><mask></mask><g stroke-linecap="round"><g transform="translate(68.52389382892602 281.65534992782864) rotate(359.4727933177862 1.7280126933640076 -36.23407382394197)" fill-rule="evenodd"><path d="M-1.78 0.47 L65.16 -35.65 L5.38 -71.63 L-60.94 -33.65 L-0.6 -1.32" stroke="none" stroke-width="0" fill="#ecc75c" fill-rule="evenodd"></path><path d="M0 0 C24.25 -12.03, 43.78 -26.01, 65 -36.79 M0 0 C19.03 -9.75, 37.59 -20.5, 65 -36.79 M65 -36.79 C48.18 -45.63, 31.57 -56.63, 4.8 -72.47 M65 -36.79 C43.16 -49.39, 21.86 -63.3, 4.8 -72.47 M4.8 -72.47 C-11.72 -63.34, -31.74 -53.53, -61.55 -34.93 M4.8 -72.47 C-13.31 -61.01, -33.16 -51.54, -61.55 -34.93 M-61.55 -34.93 C-37.69 -22.22, -15.63 -10.35, 0 0 M-61.55 -34.93 C-42.94 -25.04, -23.98 -14.65, 0 0 M0 0 C0 0, 0 0, 0 0 M0 0 C0 0, 0 0, 0 0" stroke="#000000" stroke-width="1" fill="none"></path></g></g><mask></mask><g stroke-linecap="round"><g transform="translate(69.45768105741377 214.9884210642549) rotate(359.4727933177862 61.151075958068986 -4.396658530985235)" fill-rule="evenodd"><path d="M0.47 0.16 L125.53 -72.94 L122.28 -4.66 L-0.8 64.12 L-1.32 1.15" stroke="none" stroke-width="0" fill="#344385" fill-rule="evenodd"></path><path d="M0 0 C40.63 -26.16, 79.22 -47.96, 124.38 -73.51 M0 0 C39.02 -22.92, 77 -45.19, 124.38 -73.51 M124.38 -73.51 C124.03 -52.29, 121.5 -26.95, 121.45 -5.27 M124.38 -73.51 C123.91 -53.53, 122.12 -34.87, 121.45 -5.27 M121.45 -5.27 C76.42 19.4, 32.06 44.97, -2.08 64.72 M121.45 -5.27 C91.54 12.49, 59.62 31.12, -2.08 64.72 M-2.08 64.72 C-1.27 48.01, -1.27 27.52, 0 0 M-2.08 64.72 C-2.49 49.37, -2.37 34.54, 0 0 M0 0 C0 0, 0 0, 0 0 M0 0 C0 0, 0 0, 0 0" stroke="#000000" stroke-width="1" fill="none"></path></g></g><mask></mask><g stroke-linecap="round"><g transform="translate(71.13666404754554 215.65569682310434) rotate(359.4727933177862 -32.1383925298187 15.096597653777678)" fill-rule="evenodd"><path d="M0.16 1.14 L-3.1 67.18 L-63.3 35.02 L-64.87 -37.48 L1.15 0.71" stroke="none" stroke-width="0" fill="#344385" fill-rule="evenodd"></path><path d="M0 0 C-2.06 13.36, -1.2 28.32, -3.67 66.35 M0 0 C-1.47 18.19, -2.28 35.02, -3.67 66.35 M-3.67 66.35 C-23.32 55.63, -38.98 46.37, -63.9 33.74 M-3.67 66.35 C-22.35 55.38, -42.38 46.26, -63.9 33.74 M-63.9 33.74 C-65.44 6.06, -64.97 -19.09, -64.28 -36.15 M-63.9 33.74 C-65.08 7.58, -64.08 -17.58, -64.28 -36.15 M-64.28 -36.15 C-40.12 -24.16, -20.1 -13.05, 0 0 M-64.28 -36.15 C-41.63 -23.86, -18.4 -10.63, 0 0 M0 0 C0 0, 0 0, 0 0 M0 0 C0 0, 0 0, 0 0" stroke="#000000" stroke-width="1" fill="none"></path></g></g><mask></mask><g stroke-linecap="round"><g transform="translate(69.35989399759933 214.0654843457927) rotate(359.4727933177862 30.61971001253653 -50.6911597864775)" fill-rule="evenodd"><path d="M1.14 0.58 L123.62 -70.74 L66.32 -101.98 L-62.87 -33.78 L0.71 -1.93" stroke="none" stroke-width="0" fill="#344385" fill-rule="evenodd"></path><path d="M0 0 C45.2 -25.81, 92.12 -53.22, 122.79 -71.35 M0 0 C36.93 -21.04, 73.11 -41.95, 122.79 -71.35 M122.79 -71.35 C106.61 -78.36, 92.17 -87.11, 65.04 -101.38 M122.79 -71.35 C104.89 -80.25, 89.07 -88.14, 65.04 -101.38 M65.04 -101.38 C17.62 -78.69, -26.8 -53.26, -61.55 -34.93 M65.04 -101.38 C18.24 -77.08, -27.87 -52.81, -61.55 -34.93 M-61.55 -34.93 C-37.28 -21.57, -14.13 -6.82, 0 0 M-61.55 -34.93 C-45.06 -24.63, -27.1 -14.96, 0 0 M0 0 C0 0, 0 0, 0 0 M0 0 C0 0, 0 0, 0 0" stroke="#000000" stroke-width="1" fill="none"></path></g></g><mask></mask><g stroke-linecap="round"><g transform="translate(141.72678638305183 107.64294555176934) rotate(359.4727933177862 -37.59663325856661 -50.971500923208)" fill-rule="evenodd"><path d="M0.58 0.83 L55.74 -33.35 L-70.57 -103.26 L-129.18 -71.8 L-1.93 -0.48" stroke="none" stroke-width="0" fill="#66a7c4" fill-rule="evenodd"></path><path d="M0 0 C17.59 -10.63, 34.37 -21.7, 55.13 -34.63 M0 0 C20.7 -13.25, 41.98 -27.06, 55.13 -34.63 M55.13 -34.63 C15.68 -57.7, -26.41 -79.65, -69.97 -101.94 M55.13 -34.63 C13.99 -56.75, -25.49 -78.53, -69.97 -101.94 M-69.97 -101.94 C-84.21 -96.8, -96.2 -87.76, -130.33 -72.52 M-69.97 -101.94 C-90.64 -92.12, -111.89 -80.78, -130.33 -72.52 M-130.33 -72.52 C-87.28 -50.27, -44.16 -25.79, 0 0 M-130.33 -72.52 C-98.13 -54.02, -66.37 -34.79, 0 0 M0 0 C0 0, 0 0, 0 0 M0 0 C0 0, 0 0, 0 0" stroke="#000000" stroke-width="1" fill="none"></path></g></g><mask></mask><g stroke-linecap="round"><g transform="translate(141.2405957143676 106.8291424578083) rotate(359.4727933177862 26.485770671040086 16.549674166166085)" fill-rule="evenodd"><path d="M0.83 0.61 L57.92 -34.54 L48.91 33.79 L-2.96 65.11 L-0.48 1.41" stroke="none" stroke-width="0" fill="#66a7c4" fill-rule="evenodd"></path><path d="M0 0 C12.19 -7.9, 24.02 -12.72, 56.64 -33.94 M0 0 C14.17 -8.22, 27.59 -16.44, 56.64 -33.94 M56.64 -33.94 C54.56 -18.3, 53.31 -2.98, 50.23 32.64 M56.64 -33.94 C54.48 -9.86, 52.22 12.1, 50.23 32.64 M50.23 32.64 C35.45 42.46, 24.34 50.71, -3.67 67.04 M50.23 32.64 C36.78 41.73, 24.71 49.96, -3.67 67.04 M-3.67 67.04 C-3.46 41.41, -0.98 12.49, 0 0 M-3.67 67.04 C-2.55 47.86, -0.12 28.2, 0 0 M0 0 C0 0, 0 0, 0 0 M0 0 C0 0, 0 0, 0 0" stroke="#000000" stroke-width="1" fill="none"></path></g></g><mask></mask><g stroke-linecap="round"><g transform="translate(140.9882225305389 107.93823576286252) rotate(359.4727933177862 -64.44715544392272 -3.4366720943002633)" fill-rule="evenodd"><path d="M0.61 1.28 L-4.27 65.03 L-127.74 -7.46 L-130.15 -73.71 L1.41 0.7" stroke="none" stroke-width="0" fill="#66a7c4" fill-rule="evenodd"></path><path d="M0 0 C-1.78 17.38, -0.4 33.81, -3.67 66.35 M0 0 C-1.59 24.99, -2.75 50.01, -3.67 66.35 M-3.67 66.35 C-35.27 47.34, -66.68 29.7, -128.89 -8.17 M-3.67 66.35 C-31.31 50.62, -61.32 32.55, -128.89 -8.17 M-128.89 -8.17 C-127.3 -20.58, -127.5 -36.84, -128.22 -73.22 M-128.89 -8.17 C-128.71 -23.07, -128.7 -38.9, -128.22 -73.22 M-128.22 -73.22 C-89.43 -51.19, -54.01 -29.73, 0 0 M-128.22 -73.22 C-101.34 -56.38, -75.1 -41.7, 0 0 M0 0 C0 0, 0 0, 0 0 M0 0 C0 0, 0 0, 0 0" stroke="#000000" stroke-width="1" fill="none"></path></g></g><mask></mask></svg>