<svg version="1.1" xmlns="http://www.w3.org/2000/svg" viewBox="0 0 102.60347993692767 174.0930226354752" width="102.60347993692767" height="174.0930226354752">
  <!-- svg-source:excalidraw -->
  
  <defs>
    
    
  </defs>
  <g stroke-linecap="round"><g transform="translate(49.37961435612283 6) rotate(0 -21.056457556367093 45.05726564412228)" fill-rule="evenodd"><path d="M0 0 L-43.38 90.11 L1.27 69 L0 0" stroke="none" stroke-width="0" fill="#868eac" fill-rule="evenodd"></path><path d="M0 0 C-14.07 29.24, -28.15 58.47, -43.38 90.11 M0 0 C-17.06 35.44, -34.12 70.88, -43.38 90.11 M-43.38 90.11 C-29.16 83.39, -14.93 76.66, 1.27 69 M-43.38 90.11 C-31.27 84.39, -19.15 78.66, 1.27 69 M1.27 69 C0.93 50.43, 0.58 31.85, 0 0 M1.27 69 C0.92 50.38, 0.58 31.77, 0 0 M0 0 C0 0, 0 0, 0 0 M0 0 C0 0, 0 0, 0 0" stroke="#868eac" stroke-width="2" fill="none"></path></g></g><mask></mask><g stroke-linecap="round"><g transform="translate(49.71538992121759 6.122420997887531) rotate(0 23.173464927354814 44.37073399312537)" fill-rule="evenodd"><path d="M0 0 L46.35 88.74 L2.15 68.79 L0 0" stroke="none" stroke-width="0" fill="#5f658b" fill-rule="evenodd"></path><path d="M0 0 C13.07 25.02, 26.13 50.04, 46.35 88.74 M0 0 C11.94 22.85, 23.87 45.71, 46.35 88.74 M46.35 88.74 C32.27 82.39, 18.18 76.03, 2.15 68.79 M46.35 88.74 C35.35 83.78, 24.34 78.81, 2.15 68.79 M2.15 68.79 C1.3 41.51, 0.44 14.23, 0 0 M2.15 68.79 C1.3 41.68, 0.46 14.58, 0 0 M0 0 C0 0, 0 0, 0 0 M0 0 C0 0, 0 0, 0 0" stroke="#5f658b" stroke-width="2" fill="none"></path></g></g><mask></mask><g stroke-linecap="round"><g transform="translate(51.80412888048147 75.16763822518172) rotate(0 -22.639227269360788 19.490005056909453)" fill-rule="evenodd"><path d="M0 0 L-1 38.98 L-45.28 20.28 L0 0" stroke="none" stroke-width="0" fill="#5f658b" fill-rule="evenodd"></path><path d="M0 0 C-0.22 8.45, -0.43 16.89, -1 38.98 M0 0 C-0.22 8.47, -0.44 16.93, -1 38.98 M-1 38.98 C-11.56 34.52, -22.13 30.06, -45.28 20.28 M-1 38.98 C-13.78 33.58, -26.57 28.18, -45.28 20.28 M-45.28 20.28 C-30.44 13.63, -15.6 6.99, 0 0 M-45.28 20.28 C-30.63 13.72, -15.99 7.16, 0 0 M0 0 C0 0, 0 0, 0 0 M0 0 C0 0, 0 0, 0 0" stroke="#5f658b" stroke-width="2" fill="none"></path></g></g><mask></mask><g stroke-linecap="round"><g transform="translate(51.79399420205607 75.46475178402167) rotate(0 22.190201726499254 19.29903322441386)" fill-rule="evenodd"><path d="M0 0 L-0.43 38.6 L44.81 18.72 L0 0" stroke="none" stroke-width="0" fill="#434871" fill-rule="evenodd"></path><path d="M0 0 C-0.15 13.37, -0.3 26.74, -0.43 38.6 M0 0 C-0.15 13.81, -0.31 27.62, -0.43 38.6 M-0.43 38.6 C9.66 34.16, 19.76 29.73, 44.81 18.72 M-0.43 38.6 C15.17 31.74, 30.76 24.89, 44.81 18.72 M44.81 18.72 C35.02 14.63, 25.23 10.54, 0 0 M44.81 18.72 C33.79 14.11, 22.76 9.51, 0 0 M0 0 C0 0, 0 0, 0 0 M0 0 C0 0, 0 0, 0 0" stroke="#434871" stroke-width="2" fill="none"></path></g></g><mask></mask><g stroke-linecap="round"><g transform="translate(49.93116707029003 126.6448828890232) rotate(0 -20.32339162973045 10.305831201100048)" fill-rule="evenodd"><path d="M0 0 L0.04 41.45 L-40.69 -20.84 L0 0" stroke="none" stroke-width="0" fill="#868eac" fill-rule="evenodd"></path><path d="M0 0 C0.01 11.42, 0.02 22.83, 0.04 41.45 M0 0 C0.02 15.37, 0.03 30.74, 0.04 41.45 M0.04 41.45 C-13.97 20.02, -27.98 -1.4, -40.69 -20.84 M0.04 41.45 C-15.69 17.39, -31.42 -6.66, -40.69 -20.84 M-40.69 -20.84 C-24.72 -12.66, -8.74 -4.48, 0 0 M-40.69 -20.84 C-29.52 -15.12, -18.36 -9.4, 0 0 M0 0 C0 0, 0 0, 0 0 M0 0 C0 0, 0 0, 0 0" stroke="#868eac" stroke-width="2" fill="none"></path></g></g><mask></mask><g stroke-linecap="round"><g transform="translate(50.48042208959191 166.59202530279475) rotate(0 21.340497940142257 -31.083687444870762)" fill-rule="evenodd"><path d="M0 0 L42.89 -62.17 L-0.21 -40.3 L0 0" stroke="none" stroke-width="0" fill="#5f658b" fill-rule="evenodd"></path><path d="M0 0 C9.81 -14.22, 19.62 -28.44, 42.89 -62.17 M0 0 C15.82 -22.93, 31.63 -45.85, 42.89 -62.17 M42.89 -62.17 C28.48 -54.86, 14.08 -47.55, -0.21 -40.3 M42.89 -62.17 C29.4 -55.32, 15.91 -48.48, -0.21 -40.3 M-0.21 -40.3 C-0.13 -25.17, -0.05 -10.04, 0 0 M-0.21 -40.3 C-0.15 -29.76, -0.1 -19.23, 0 0 M0 0 C0 0, 0 0, 0 0 M0 0 C0 0, 0 0, 0 0" stroke="#5f658b" stroke-width="2" fill="none"></path></g></g><mask></mask></svg>