<svg xmlns="http://www.w3.org/2000/svg" viewBox="3537.19 -35.48 409.62 591.50" width="410" height="591"><ellipse cx="3707.34" cy="123.37" rx="152.47" ry="150.40" stroke="#e2f5fc" stroke-width="2" opacity="1.0" fill="none"/><polyline points="3637.28,260.00 3599.23,230.53 3571.13,190.99 3555.36,129.79 3574.17,42.73 3636.11,-12.05 3705.80,-29.48 3782.37,-10.47 3842.45,49.62 3858.90,124.02 3847.30,186.12 3814.63,232.50 3776.01,260.55" fill="none" stroke="#b5d2f3" stroke-width="2" opacity="1.0" stroke-linecap="round" stroke-linejoin="round"/><ellipse cx="3706.83" cy="124.04" rx="120.71" ry="118.34" stroke="#cdecf6" stroke-width="2" opacity="1.0" fill="none"/><polyline points="3636.18,185.24 3640.66,275.36 3645.19,339.32 3645.85,350.18 3641.46,356.22 3622.73,362.10 3609.53,364.89 3641.72,364.96 3655.70,361.27 3659.91,345.57 3663.67,290.38 3664.64,295.74 3665.58,348.00 3663.27,367.16 3640.15,373.76 3627.19,376.25 3645.50,376.23 3664.78,376.07 3677.29,367.93 3680.76,334.74 3682.69,302.55 3683.78,315.59 3683.89,330.91 3684.34,370.12 3676.01,380.82 3657.43,385.72 3642.40,388.99 3649.66,389.32 3668.19,389.59 3686.32,388.70 3698.56,378.76 3704.23,354.90 3707.41,338.85 3709.27,344.25 3713.64,372.08 3722.73,385.90 3739.30,389.59 3767.44,389.89 3772.62,389.96 3753.23,384.80 3740.76,381.36 3732.02,375.92 3730.34,361.84 3731.55,305.54 3732.88,310.84 3735.69,343.05 3737.59,367.35 3748.66,375.84 3781.26,376.93 3788.29,376.60 3762.83,372.07 3751.22,365.47 3749.22,350.57 3750.29,288.86 3751.89,298.46 3754.77,347.17 3761.02,362.73 3777.23,364.98 3795.66,365.56 3803.56,364.60 3785.06,360.22 3774.07,356.49 3770.18,351.16 3770.35,330.13 3779.98,183.33 3781.13,109.45 3776.85,79.36 3759.30,53.00 3739.22,38.70 3717.33,32.94 3684.07,36.68 3653.26,59.00 3641.14,81.26 3637.11,106.34 3636.18,185.24" fill="none" stroke="#fe6143" stroke-width="2" opacity="1.0" stroke-linecap="round" stroke-linejoin="round"/><polyline points="3774.39,270.56 3779.93,279.62 3791.00,284.15 3810.52,287.17 3803.97,288.68 3786.22,290.45 3774.89,289.57 3774.39,270.56" fill="none" stroke="#fe6446" stroke-width="2" opacity="1.0" stroke-linecap="round" stroke-linejoin="round"/><polyline points="3639.58,267.68 3634.04,276.74 3622.96,281.27 3603.45,284.29 3609.99,285.80 3627.74,287.57 3639.07,286.68 3639.58,267.68" fill="none" stroke="#fe6446" stroke-width="2" opacity="1.0" stroke-linecap="round" stroke-linejoin="round"/><polyline points="3682.05,210.12 3683.78,228.65 3689.98,241.66 3701.99,251.74 3718.99,248.76 3730.28,232.42 3733.60,213.18 3731.44,223.35 3723.90,232.71 3712.47,236.87 3697.10,235.34 3686.84,225.60 3682.05,210.12" fill="#000000" stroke="#000000" stroke-width="2" opacity="1.0" stroke-linecap="round" stroke-linejoin="round"/><polyline points="3682.07,210.01 3688.51,216.30 3704.41,224.75 3717.98,224.28 3728.37,218.55 3733.34,212.50 3731.71,223.66 3721.78,234.29 3707.20,237.00 3696.11,234.60 3686.80,225.53 3682.07,210.01" fill="#ffffff" stroke="#000000" stroke-width="2" opacity="1.0" stroke-linecap="round" stroke-linejoin="round"/><ellipse cx="3654.81" cy="144.34" rx="40.68" ry="39.94" stroke="#fe6143" stroke-width="2" opacity="1.0" fill="#ffff"/><ellipse cx="3653.76" cy="140.83" rx="10.55" ry="9.91" stroke="#000000" stroke-width="2" opacity="1.0" fill="#000000"/><ellipse cx="3758.39" cy="144.59" rx="40.68" ry="39.94" stroke="#fe6143" stroke-width="2" opacity="1.0" fill="#ffffff"/><ellipse cx="3757.61" cy="141.15" rx="10.55" ry="9.91" stroke="#000000" stroke-width="2" opacity="1.0" fill="#000000"/><ellipse cx="3679.16" cy="65.40" rx="10.40" ry="10.23" stroke="none" stroke-width="2" opacity="1.0" fill="#fea777"/><polyline points="3870.28,96.67 3870.76,149.12 3868.33,161.14 3860.05,160.97 3858.42,157.56 3860.37,133.04 3858.91,108.04 3858.75,93.59 3862.16,90.02 3867.35,90.34 3870.28,96.67" fill="none" stroke="#b5d2f3" stroke-width="2" opacity="1.0" stroke-linecap="round" stroke-linejoin="round"/><polyline points="3543.68,97.20 3543.19,149.65 3545.63,161.66 3553.91,161.50 3555.53,158.09 3553.58,133.57 3555.04,108.57 3555.21,94.11 3551.80,90.54 3546.60,90.87 3543.68,97.20" fill="none" stroke="#b5d2f3" stroke-width="2" opacity="1.0" stroke-linecap="round" stroke-linejoin="round"/><ellipse cx="3641.24" cy="24.16" rx="1.69" ry="1.69" stroke="#ffffff" stroke-width="2" opacity="1.0" fill="none"/><polyline points="3631.27,31.01 3610.44,51.80 3594.09,82.77 3585.80,121.95 3591.57,157.73 3600.55,180.64 3611.07,196.92" fill="none" stroke="#ffffff" stroke-width="2" opacity="1.0" stroke-linecap="round" stroke-linejoin="round"/></svg>