<svg version="1.1" xmlns="http://www.w3.org/2000/svg" viewBox="0 0 88.42857142857156 109.01888284100653" width="88.42857142857156" height="109.01888284100653">
  <!-- svg-source:excalidraw -->
  
  <defs>
    
    
  </defs>
  <g transform="translate(22.906573818338074 83.01888284100653) rotate(0 18.5 10)"><text x="0" y="0" font-family="Virgil, Segoe UI Emoji" font-size="16px" fill="#000000" text-anchor="start" style="white-space: pre;" direction="ltr" dominant-baseline="text-before-edge">email</text></g><g stroke-linecap="round" transform="translate(6 6.34859846851657) rotate(0 38.21428571428578 25.357142857142833)"><path d="M-0.76 1.4 L76.14 -1.12 L74.48 51.13 L-1.8 49.01" stroke="none" stroke-width="0" fill="#868e96"></path><path d="M0 0 C21.26 -0.42, 43.13 0.09, 76.43 0 M0 0 C29.8 -0.3, 60.2 -0.4, 76.43 0 M76.43 0 C74.8 18, 76.16 36.77, 76.43 50.71 M76.43 0 C75.78 15.68, 76.96 33.15, 76.43 50.71 M76.43 50.71 C51.46 52.76, 27.22 49.38, 0 50.71 M76.43 50.71 C45.41 50.59, 16.67 50.56, 0 50.71 M0 50.71 C-0.65 31.21, 1.82 13.1, 0 0 M0 50.71 C0.23 35.83, -0.16 19.43, 0 0" stroke="#000000" stroke-width="1" fill="none"></path></g><g stroke-linecap="round"><g transform="translate(6.975701514099001 10.864956985626804) rotate(0 18.79450681560479 14.632002554414669)"><path d="M0 0 C13.71 10.41, 28.03 22.96, 37.59 29.26 M0 0 C10.73 8.15, 21.29 17.01, 37.59 29.26" stroke="#000000" stroke-width="1" fill="none"></path></g></g><mask></mask><g stroke-linecap="round"><g transform="translate(45.8985824794604 41.75429957750271) rotate(0 17.92046567467878 -17.877149788751353)"><path d="M0 0 C9.2 -9.73, 20.54 -19.57, 35.84 -35.75 M0 0 C12.5 -12.6, 25.71 -25.61, 35.84 -35.75" stroke="#000000" stroke-width="1" fill="none"></path></g></g><mask></mask></svg>