<svg version="1.1" xmlns="http://www.w3.org/2000/svg" viewBox="0 0 342.41144606586704 358.33596270844373" width="342.41144606586704" height="358.33596270844373">
  <!-- svg-source:excalidraw -->
  
  <defs>
    
    
  </defs>
  <g stroke-linecap="round"><g transform="translate(132.57769908546425 10.176067299904929) rotate(0 -62.80981810472417 127.32407077783188)" fill-rule="evenodd"><path d="M0.02 -3.92 L-125.08 54.48 L-113.18 254.67 L1.58 1.51" stroke="none" stroke-width="0" fill="#e8035c" fill-rule="evenodd"></path><path d="M3.96 -2.93 C-35.95 19.5, -69.41 30.19, -125.63 57.33 M1.31 1.19 C-44.49 17.26, -88.24 37.15, -124.03 57.31 M-126.58 57.13 C-118.42 120.83, -114.12 188.1, -110.32 253.52 M-125.12 55.73 C-122.3 106.62, -117.91 155.69, -114.61 254.54 M-111.53 257.13 C-82.17 201.46, -59.22 143.49, -0.46 -0.06 M-112.36 256.14 C-80.15 185.47, -49.9 115.48, 0.05 -0.09 M0 0 C0 0, 0 0, 0 0 M0 0 C0 0, 0 0, 0 0" stroke="#e8035c" stroke-width="2" fill="none"></path></g></g><mask></mask><g stroke-linecap="round"><g transform="translate(201.79989423701136 8.283230733126416) rotate(0 65.4281086009862 129.420064784758)" fill-rule="evenodd"><path d="M0.54 -1.31 L115.59 258.86 L132.44 61.23 L-3.71 -2.12" stroke="none" stroke-width="0" fill="#e8035c" fill-rule="evenodd"></path><path d="M-1.47 2.48 C42.04 86.63, 81.29 175.33, 117.47 259.64 M-0.43 -0.07 C26.77 53.29, 52.34 108.53, 116.29 259.7 M116.67 258.83 C121.5 211.49, 126.87 158.45, 128.9 60.24 M115.5 259.78 C120.4 196.36, 122.58 133.61, 129.23 58.1 M134.61 61.48 C100.8 46.38, 67.63 33.41, -1.12 -2.28 M130.6 61.06 C83.24 41.51, 37.8 19.84, 0.84 0 M0 0 C0 0, 0 0, 0 0 M0 0 C0 0, 0 0, 0 0" stroke="#e8035c" stroke-width="2" fill="none"></path></g></g><mask></mask><g stroke-linecap="round"><g transform="translate(167.01886893158417 101.59227835560216) rotate(0 -0.48686778706746736 54.195513801315954)" fill-rule="evenodd"><path d="M-0.29 0.02 L-42.44 109.9 L39.34 106.01 L-1.63 0.73" stroke="none" stroke-width="0" fill="#e8035c" fill-rule="evenodd"></path><path d="M-0.73 -1.43 C-11.04 26.84, -18.93 50.94, -47.64 111.02 M-0.11 0.16 C-14.84 40.43, -31.72 78.99, -45.04 107.91 M-43.09 110.72 C-12.4 107.18, 12.13 108.74, 43.62 109.13 M-43.21 108.47 C-19.86 107.39, 6.1 105.8, 41.79 109.02 M44.57 106.86 C24.04 67.29, 7.13 23.93, 2.17 1.38 M42.19 108.53 C26.28 65.63, 9.97 22.78, -1.73 -1.79 M0 0 C0 0, 0 0, 0 0 M0 0 C0 0, 0 0, 0 0" stroke="#e8035c" stroke-width="2" fill="none"></path></g></g><mask></mask><g stroke-linecap="round"><g transform="translate(105.10309770630056 261.2760904887275) rotate(0 61.94013246222676 45.00333392825212)" fill-rule="evenodd"><path d="M1.96 -2.47 L120.19 2.13 L144.8 44.31 L67.71 90.56 L-19.12 46.1 L1.5 2.32" stroke="none" stroke-width="0" fill="#e8035c" fill-rule="evenodd"></path><path d="M-0.01 1.54 C48.82 1.98, 89.86 3.61, 124.86 -0.99 M1.59 1.52 C36.69 0.98, 71.3 -0.59, 123.16 0.53 M125.06 -0.99 C126.38 14.43, 134.53 28.9, 141.16 46.03 M120.77 0.03 C127.75 14.69, 134.64 33.39, 142.88 48.69 M140.68 46.74 C114.04 58.9, 90.9 77.41, 68.3 89.49 M141.33 46.69 C113.54 62.96, 82.76 77.03, 63.09 91.06 M66.33 90.42 C39.6 75.71, 21.16 66.12, -16.53 41.07 M65.28 88.19 C37.64 73.59, 11.74 59.72, -17.54 42.58 M-19.51 40.94 C-11.07 29.61, -3.72 13.2, -1.53 -1.41 M-18.61 41.1 C-11.09 26.59, -3.43 12.5, -0.25 -1.69 M0 0 C0 0, 0 0, 0 0 M0 0 C0 0, 0 0, 0 0" stroke="#e8035c" stroke-width="2" fill="none"></path></g></g><mask></mask></svg>