<svg xmlns="http://www.w3.org/2000/svg" viewBox="681.75 617.62 185.67 214.44" width="186" height="214"><polyline points="687.75,659.19 831.72,658.37 821.08,806.02 760.55,825.24 698.38,807.25 687.75,659.19" fill="#e44d26" stroke="#e44d26" stroke-width="1" opacity="1.0" stroke-linecap="round" stroke-linejoin="round"/><polyline points="757.69,671.46 761.78,807.25 812.90,792.93 820.27,670.23 757.69,671.46" fill="#f16529" stroke="#f16529" stroke-width="1" opacity="1.0" stroke-linecap="round" stroke-linejoin="round"/><text x="727.12" y="651.62" font-size="28" fill="#000000" opacity="0.6" font-family="sans-serif">HTML</text><polyline points="794.09,676.33 792.09,692.99 750.09,690.99 748.75,710.33 794.75,714.99 794.09,771.66 763.42,783.66 734.09,773.99 727.42,743.66 743.42,743.33 744.42,758.83 762.09,768.99 782.75,754.99 780.75,730.33 728.09,726.99 731.42,676.33 794.09,676.33" fill="#fff" stroke="#0000" stroke-width="1" opacity="0.6" stroke-linecap="round" stroke-linejoin="round"/></svg>