<svg version="1.1" xmlns="http://www.w3.org/2000/svg" viewBox="0 0 399.02846629407986 369.6096086447012" width="399.02846629407986" height="369.6096086447012">
  <!-- svg-source:excalidraw -->
  
  <defs>
    
    
  </defs>
  <g stroke-linecap="round" transform="translate(51.000326309430875 32.355559703324616) rotate(0 142.1190952605998 142.1190952605998)"><path d="M157.24 -0.26 C171.26 -1.55, 187 5.46, 200.14 11.17 C213.28 16.87, 225.18 24.26, 236.08 33.96 C246.97 43.66, 257.99 56.61, 265.49 69.36 C272.99 82.12, 277.99 95.76, 281.09 110.49 C284.18 125.22, 285.21 142.78, 284.06 157.74 C282.92 172.7, 279.91 187.31, 274.2 200.25 C268.5 213.19, 259.92 224.39, 249.83 235.38 C239.74 246.36, 226.55 258.6, 213.65 266.17 C200.75 273.74, 186.94 278.18, 172.44 280.8 C157.95 283.43, 141.08 283.08, 126.68 281.9 C112.29 280.73, 99.35 279.51, 86.09 273.77 C72.83 268.03, 58.05 257.13, 47.12 247.45 C36.19 237.78, 27.55 227.99, 20.5 215.73 C13.44 203.48, 7.86 188.77, 4.8 173.92 C1.74 159.08, 0.95 141.55, 2.13 126.64 C3.3 111.72, 6.45 97.79, 11.87 84.42 C17.28 71.05, 24.89 56.98, 34.62 46.41 C44.35 35.84, 57.67 27.98, 70.24 20.99 C82.8 13.99, 90.37 6.43, 110 4.46 C129.62 2.49, 169.86 6, 187.99 9.14 C206.13 12.29, 219.46 21.6, 218.81 23.34 M107.2 2.56 C119.6 -4.01, 135.4 -3.73, 149.49 -2.49 C163.58 -1.24, 177.75 4.66, 191.75 10.05 C205.76 15.45, 222.08 20.53, 233.54 29.89 C245 39.25, 252.86 53.07, 260.5 66.21 C268.13 79.36, 275.47 94.45, 279.35 108.76 C283.22 123.08, 284.13 138.08, 283.75 152.1 C283.37 166.12, 282.69 179.86, 277.07 192.88 C271.45 205.89, 259.34 218.52, 250.02 230.18 C240.69 241.84, 233.11 254.91, 221.14 262.84 C209.18 270.76, 193.32 274.38, 178.22 277.72 C163.11 281.07, 144.88 283.91, 130.5 282.91 C116.13 281.92, 105.47 277.27, 91.96 271.77 C78.45 266.27, 60.79 259.03, 49.42 249.9 C38.05 240.76, 31.64 229.38, 23.76 216.95 C15.87 204.53, 6.2 188.86, 2.11 175.33 C-1.99 161.8, -1.74 150.01, -0.8 135.76 C0.14 121.5, 2.62 103.87, 7.77 89.8 C12.92 75.73, 20.61 62.47, 30.11 51.35 C39.61 40.24, 51.73 31.32, 64.76 23.12 C77.79 14.93, 101.64 4.77, 108.31 2.18 C114.98 -0.42, 104.29 5.02, 104.78 7.56" stroke="#dc372d" stroke-width="2" fill="none"></path></g><g stroke-linecap="round" transform="translate(111.96910819313553 90.36590635869607) rotate(0 80.84848772401574 82.85522044322738)"><path d="M135.8 24.27 C143.79 30.45, 151 40.86, 155.02 51.19 C159.04 61.51, 160.25 74.92, 159.92 86.23 C159.58 97.53, 157.64 108.96, 153.03 119.01 C148.41 129.06, 140.14 139.02, 132.21 146.54 C124.29 154.07, 115.61 160.87, 105.48 164.16 C95.35 167.44, 82.76 168.16, 71.42 166.26 C60.07 164.37, 46.7 158.96, 37.4 152.78 C28.1 146.59, 21.65 138.62, 15.62 129.13 C9.59 119.65, 3.72 106.75, 1.22 95.88 C-1.28 85.01, -2.2 74.64, 0.63 63.89 C3.46 53.14, 11.42 40.23, 18.23 31.37 C25.03 22.52, 31.78 15.7, 41.46 10.75 C51.14 5.8, 65.03 2.41, 76.33 1.67 C87.62 0.94, 96.58 -1.31, 109.21 6.32 C121.84 13.96, 143.84 35.93, 152.11 47.48 C160.39 59.02, 160.03 74.98, 158.86 75.6 M129.79 19.84 C139.3 24.75, 148.76 32.55, 154.01 41.77 C159.27 50.98, 161.02 63.18, 161.32 75.14 C161.62 87.1, 159.17 102.45, 155.82 113.52 C152.46 124.59, 149.08 134.05, 141.19 141.57 C133.31 149.08, 119.62 155.01, 108.51 158.61 C97.41 162.21, 85.16 163.25, 74.56 163.15 C63.96 163.05, 54.7 162.85, 44.92 158 C35.14 153.15, 22.8 142.95, 15.88 134.05 C8.95 125.15, 5.5 115.23, 3.37 104.62 C1.24 94, 1.33 80.97, 3.09 70.38 C4.85 59.78, 8.64 50.79, 13.94 41.06 C19.24 31.33, 26.34 18.22, 34.87 12.01 C43.41 5.81, 53.97 5.29, 65.15 3.82 C76.33 2.35, 91.27 1.3, 101.94 3.18 C112.61 5.07, 124.66 12.09, 129.19 15.11 C133.72 18.12, 130.05 20.09, 129.12 21.27" stroke="#dc372d" stroke-width="2" fill="none"></path></g><g stroke-linecap="round"><g transform="translate(208.70522792685597 34.893653252574495) rotate(0 0.09163182683664672 -14.049503124050261)"><path d="M0.12 0.92 C0.38 -3.66, 1.27 -22.52, 1.19 -27.23 M-1.28 0.35 C-1.06 -4.57, 0.79 -23.96, 0.77 -28.89" stroke="#dc372d" stroke-width="2" fill="none"></path></g></g><mask></mask><g stroke-linecap="round"><g transform="translate(218.68447096129375 325.0179632955628) rotate(0 0.23656605226483407 18.94703738139242)"><path d="M0.92 1.01 C1.1 7.21, 1.29 31.26, 1.34 37.34 M-0.06 0.49 C0.02 6.84, 0.69 32.24, 0.85 38.59" stroke="#dc372d" stroke-width="2" fill="none"></path></g></g><mask></mask><g stroke-linecap="round"><g transform="translate(179.9017440429152 30.56503897491757) rotate(0 -1.2807146029963405 -11.65215881727704)"><path d="M1.01 0.87 C0.47 -3.04, -2.45 -18.47, -3.11 -22.52 M0.08 0.28 C-0.68 -4.04, -3.69 -20.48, -4.35 -24.23" stroke="#dc372d" stroke-width="2" fill="none"></path></g></g><mask></mask><g stroke-linecap="round"><g transform="translate(174.22779249129098 320.73391361914037) rotate(0 0.054383000520601854 20.252229393887887)"><path d="M0.87 -0.55 C0.87 5.97, 1.04 33.45, 0.89 40.12 M-0.13 1.77 C-0.3 8.99, 0.48 35.05, 0.36 41.46" stroke="#dc372d" stroke-width="2" fill="none"></path></g></g><mask></mask><g stroke-linecap="round"><g transform="translate(336.6575044673232 161.49386418298354) rotate(0 24.194996931634705 1.223617511714565)"><path d="M-0.55 0.78 C7.28 1.02, 40.03 1.93, 48.01 2.3 M1.36 0.15 C8.92 0.5, 38.8 3.63, 46.86 3.76" stroke="#dc372d" stroke-width="2" fill="none"></path></g></g><mask></mask><g stroke-linecap="round"><g transform="translate(338.4029666969768 210.79264374279228) rotate(0 27.485168463133505 0.3453320533060378)"><path d="M1.83 -0.89 C10.59 -0.97, 45.56 -1.86, 54.63 -1.75 M-0.62 -3.84 C7.56 -3.54, 42.91 -0.48, 52.2 0.55" stroke="#dc372d" stroke-width="2" fill="none"></path></g></g><mask></mask><g stroke-linecap="round"><g transform="translate(50.23241903453982 154.4196993482401) rotate(0 -21.592770356721758 -0.1685873016140249)"><path d="M-0.38 -0.15 C-7.66 -0.25, -37.03 0.21, -44.23 0.2 M1.62 -1.27 C-5.25 -1.8, -34.37 -2.05, -42.07 -1.64" stroke="#dc372d" stroke-width="2" fill="none"></path></g></g><mask></mask><g stroke-linecap="round"><g transform="translate(49.78589367452196 205.06259904480385) rotate(0 -19.822603689774724 0.2501618023950414)"><path d="M-0.15 -1.05 C-6.8 -0.97, -32.55 -0.06, -39.11 0.1 M-1.68 1.02 C-8.51 1.3, -33.35 1.44, -39.77 1.43" stroke="#dc372d" stroke-width="2" fill="none"></path></g></g><mask></mask><g stroke-linecap="round"><g transform="translate(285.1177326249458 60.1162197785975) rotate(0 12.13012826612976 -15.33872529684777)"><path d="M-2.44 1.25 C1.59 -3.76, 19.09 -25.18, 23.33 -30.39 M1.43 -0.54 C5.09 -5, 17.41 -22.27, 20.59 -26.6" stroke="#dc372d" stroke-width="2" fill="none"></path></g></g><mask></mask><g stroke-linecap="round"><g transform="translate(313.0391016862027 100.20542396820792) rotate(0 17.94095187176049 -14.642622890183475)"><path d="M1.25 -0.93 C7.34 -5.62, 30.29 -26.29, 36.17 -30.56 M-1.51 -3.9 C4.26 -8, 27.98 -23.18, 34.09 -27.63" stroke="#dc372d" stroke-width="2" fill="none"></path></g></g><mask></mask><g stroke-linecap="round"><g transform="translate(312.39967945434137 261.3234182205583) rotate(0 23.857822328406655 11.287191758059748)"><path d="M-0.93 0.29 C7.22 3.96, 37.87 19.12, 46.44 23.25 M3.76 -2.02 C11.64 0.64, 35.78 14.79, 43.51 18.61" stroke="#dc372d" stroke-width="2" fill="none"></path></g></g><mask></mask><g stroke-linecap="round"><g transform="translate(276.3608166969375 294.12161140384114) rotate(0 18.0823476731141 14.958044293203216)"><path d="M0.29 -1.28 C6.22 4.32, 30.45 27.12, 36.84 32.66 M-3 4.2 C2.51 9.17, 28.11 25.26, 34.97 29.13" stroke="#dc372d" stroke-width="2" fill="none"></path></g></g><mask></mask><g stroke-linecap="round"><g transform="translate(119.67071299401414 59.870397138907265) rotate(0 -13.598469280187146 -17.17415156441939)"><path d="M-1.28 0.68 C-5.2 -4.68, -20.47 -26.34, -24.46 -31.87 M3.22 -1.42 C-0.74 -7.54, -20.35 -29.59, -25.21 -35.53" stroke="#dc372d" stroke-width="2" fill="none"></path></g></g><mask></mask><g stroke-linecap="round"><g transform="translate(85.68214747997126 97.26603343866236) rotate(0 -16.943023812206775 -16.25779800564669)"><path d="M0.68 2.74 C-4.61 -2.13, -25.95 -24.43, -31.41 -30.52 M-2.4 1.76 C-7.86 -3.78, -27.22 -28.92, -32.3 -34.45" stroke="#dc372d" stroke-width="2" fill="none"></path></g></g><mask></mask><g stroke-linecap="round"><g transform="translate(82.8402059914547 269.47023944490456) rotate(0 -19.588756787536113 13.56312032984863)"><path d="M2.74 2.48 C-3.24 7.19, -29.98 24.97, -37.19 28.95 M0.78 1.36 C-5.28 5.21, -31.04 20.32, -38.34 24.93" stroke="#dc372d" stroke-width="2" fill="none"></path></g></g><mask></mask><g stroke-linecap="round"><g transform="translate(113.49511465728801 299.8829055822712) rotate(0 -17.187747314549597 16.907674861868372)"><path d="M2.48 1.99 C-3.06 6.95, -26.28 26.82, -32.55 32.49 M0.38 0.6 C-5.43 7.12, -27.51 30.22, -33.8 35.4" stroke="#dc372d" stroke-width="2" fill="none"></path></g></g><mask></mask><g stroke-linecap="round" transform="translate(185.44054189651206 27.531787557145435) rotate(0 9.000386586166542 5.5715384033399005)"><path d="M0 0 C7.16 0, 14.32 0, 18 0 M0 0 C5.04 0, 10.09 0, 18 0 M18 0 C18 2.74, 18 5.49, 18 11.14 M18 0 C18 3.38, 18 6.75, 18 11.14 M18 11.14 C11.61 11.14, 5.22 11.14, 0 11.14 M18 11.14 C13.06 11.14, 8.11 11.14, 0 11.14 M0 11.14 C0 8.72, 0 6.3, 0 0 M0 11.14 C0 6.98, 0 2.82, 0 0" stroke="#ffffff" stroke-width="2" fill="none"></path></g><g stroke-linecap="round" transform="translate(180.45362074878767 298.4624578509388) rotate(0 12.929558373783266 12.853422173054241)"><path d="M0 0 C10.05 0, 20.09 0, 25.86 0 M0 0 C7.66 0, 15.32 0, 25.86 0 M25.86 0 C25.86 8.81, 25.86 17.62, 25.86 25.71 M25.86 0 C25.86 6.44, 25.86 12.88, 25.86 25.71 M25.86 25.71 C19.3 25.71, 12.75 25.71, 0 25.71 M25.86 25.71 C16.69 25.71, 7.51 25.71, 0 25.71 M0 25.71 C0 17.86, 0 10.02, 0 0 M0 25.71 C0 18.19, 0 10.67, 0 0" stroke="#ffffff" stroke-width="2" fill="none"></path></g><g stroke-linecap="round" transform="translate(291.43781618454113 170.58544947959444) rotate(0 22.22361316276124 14.542014339220259)"><path d="M0 0 C16.5 0, 32.99 0, 44.45 0 M0 0 C9.4 0, 18.8 0, 44.45 0 M44.45 0 C44.45 10.93, 44.45 21.87, 44.45 29.08 M44.45 0 C44.45 7.14, 44.45 14.28, 44.45 29.08 M44.45 29.08 C28.41 29.08, 12.37 29.08, 0 29.08 M44.45 29.08 C27.13 29.08, 9.82 29.08, 0 29.08 M0 29.08 C0 19.39, 0 9.7, 0 0 M0 29.08 C0 19.12, 0 9.17, 0 0" stroke="#ffffff" stroke-width="2" fill="none"></path></g><g stroke-linecap="round" transform="translate(50.103006800849016 148.17503591213062) rotate(0 10.096204046657476 19.93408884084215)"><path d="M0 0 C7.37 0, 14.74 0, 20.19 0 M0 0 C4.37 0, 8.73 0, 20.19 0 M20.19 0 C20.19 14.83, 20.19 29.67, 20.19 39.87 M20.19 0 C20.19 8.96, 20.19 17.92, 20.19 39.87 M20.19 39.87 C13.16 39.87, 6.13 39.87, 0 39.87 M20.19 39.87 C13.71 39.87, 7.23 39.87, 0 39.87 M0 39.87 C0 31.34, 0 22.81, 0 0 M0 39.87 C0 24.28, 0 8.69, 0 0" stroke="#ffffff" stroke-width="2" fill="none"></path></g><g stroke-linecap="round" transform="translate(83.66681212389767 57.55992595139787) rotate(42.1725370692617 20.560875945113594 13.935079226628886)"><path d="M0 0 C10.39 0, 20.78 0, 41.12 0 M0 0 C13.74 0, 27.48 0, 41.12 0 M41.12 0 C41.12 9.88, 41.12 19.76, 41.12 27.87 M41.12 0 C41.12 8.66, 41.12 17.31, 41.12 27.87 M41.12 27.87 C32.68 27.87, 24.23 27.87, 0 27.87 M41.12 27.87 C31.47 27.87, 21.82 27.87, 0 27.87 M0 27.87 C0 20.9, 0 13.93, 0 0 M0 27.87 C0 20.77, 0 13.67, 0 0" stroke="#ffffff" stroke-width="2" fill="none"></path></g><g stroke-linecap="round" transform="translate(285.4344868688863 254.18978441828358) rotate(36.210563334212885 9.832524579083156 15.096193653330033)"><path d="M0 0 C5.35 0, 10.69 0, 19.67 0 M0 0 C7.21 0, 14.42 0, 19.67 0 M19.67 0 C19.67 11.27, 19.67 22.55, 19.67 30.19 M19.67 0 C19.67 11.09, 19.67 22.17, 19.67 30.19 M19.67 30.19 C13.91 30.19, 8.16 30.19, 0 30.19 M19.67 30.19 C14.64 30.19, 9.62 30.19, 0 30.19 M0 30.19 C0 20.7, 0 11.21, 0 0 M0 30.19 C0 22.89, 0 15.59, 0 0" stroke="#ffffff" stroke-width="2" fill="none"></path></g><g stroke-linecap="round" transform="translate(90.98315937854886 260.74808776877944) rotate(322.01096334920885 8.71442474709579 11.936827835386453)"><path d="M0 0 C6.6 0, 13.2 0, 17.43 0 M0 0 C4.53 0, 9.07 0, 17.43 0 M17.43 0 C17.43 4.99, 17.43 9.98, 17.43 23.87 M17.43 0 C17.43 5.48, 17.43 10.97, 17.43 23.87 M17.43 23.87 C13.75 23.87, 10.07 23.87, 0 23.87 M17.43 23.87 C13.8 23.87, 10.17 23.87, 0 23.87 M0 23.87 C0 17.01, 0 10.14, 0 0 M0 23.87 C0 18.59, 0 13.32, 0 0" stroke="#ffffff" stroke-width="2" fill="none"></path></g><g stroke-linecap="round" transform="translate(289.6731413378998 64.30959430207076) rotate(311.79260417256035 8.865110294970009 10.902488961554127)"><path d="M0 0 C4.97 0, 9.94 0, 17.73 0 M0 0 C4.36 0, 8.73 0, 17.73 0 M17.73 0 C17.73 6.61, 17.73 13.22, 17.73 21.8 M17.73 0 C17.73 7.74, 17.73 15.48, 17.73 21.8 M17.73 21.8 C12.86 21.8, 7.99 21.8, 0 21.8 M17.73 21.8 C13.88 21.8, 10.02 21.8, 0 21.8 M0 21.8 C0 13.67, 0 5.53, 0 0 M0 21.8 C0 13.31, 0 4.81, 0 0" stroke="#ffffff" stroke-width="2" fill="none"></path></g></svg>