<svg version="1.1" xmlns="http://www.w3.org/2000/svg" viewBox="0 0 155.97058823529426 212.6249999999999" width="155.97058823529426" height="212.6249999999999">
  <!-- svg-source:excalidraw -->
  
  <defs>
    
    
  </defs>
  <g stroke-linecap="round"><g transform="translate(6 40.568014705882206) rotate(0 71.98529411764713 82.61948529411768)" fill-rule="evenodd"><path d="M0 0 L143.97 -0.82 L133.34 146.83 L72.8 166.06 L10.63 148.06 L0 0" stroke="none" stroke-width="0" fill="#e7c62f" fill-rule="evenodd"></path><path d="M0 0 C45.19 -0.26, 90.39 -0.51, 143.97 -0.82 M0 0 C35.33 -0.2, 70.66 -0.4, 143.97 -0.82 M143.97 -0.82 C141.15 38.4, 138.32 77.61, 133.34 146.83 M143.97 -0.82 C140.95 41.11, 137.93 83.03, 133.34 146.83 M133.34 146.83 C112.95 153.31, 92.57 159.78, 72.8 166.06 M133.34 146.83 C117.6 151.83, 101.86 156.83, 72.8 166.06 M72.8 166.06 C59.61 162.24, 46.41 158.42, 10.63 148.06 M72.8 166.06 C49.62 159.35, 26.45 152.64, 10.63 148.06 M10.63 148.06 C7.11 98.93, 3.58 49.79, 0 0 M10.63 148.06 C8.02 111.69, 5.41 75.32, 0 0 M0 0 C0 0, 0 0, 0 0 M0 0 C0 0, 0 0, 0 0" stroke="#e7c62f" stroke-width="1" fill="none"></path></g></g><mask></mask><g stroke-linecap="round"><g transform="translate(75.94025735294008 52.83823529411745) rotate(0 31.289062500000057 67.28170955882348)" fill-rule="evenodd"><path d="M0 0 L4.09 135.79 L55.22 121.48 L62.58 -1.23 L0 0" stroke="none" stroke-width="0" fill="#fedd25" fill-rule="evenodd"></path><path d="M0 0 C1.31 43.38, 2.61 86.76, 4.09 135.79 M0 0 C1.21 40.17, 2.42 80.33, 4.09 135.79 M4.09 135.79 C22.22 130.71, 40.35 125.64, 55.22 121.48 M4.09 135.79 C23.74 130.29, 43.39 124.79, 55.22 121.48 M55.22 121.48 C57.09 90.22, 58.97 58.96, 62.58 -1.23 M55.22 121.48 C57.14 89.42, 59.06 57.36, 62.58 -1.23 M62.58 -1.23 C38.26 -0.75, 13.94 -0.27, 0 0 M62.58 -1.23 C41.46 -0.81, 20.35 -0.4, 0 0 M0 0 C0 0, 0 0, 0 0 M0 0 C0 0, 0 0, 0 0" stroke="#fedd25" stroke-width="1" fill="none"></path></g></g><mask></mask><g stroke-opacity="0.6" fill-opacity="0.6" transform="translate(54.375 6) rotate(0 16.5 16)"><text x="0" y="0" font-family="Helvetica, Segoe UI Emoji" font-size="28px" fill="#000000" text-anchor="start" style="white-space: pre;" direction="ltr" dominant-baseline="text-before-edge">JS</text></g><g stroke-linecap="round"><g stroke-opacity="0.5" fill-opacity="0.5" transform="translate(49.985294117646845 65.8125) rotate(0 -4.5 52)" fill-rule="evenodd"><path d="M0 0 L17 0 L17 104 L-26 95 L-26 76 L2 83 L0 0" stroke="none" stroke-width="0" fill="#fff" fill-rule="evenodd"></path><path d="M0 0 C5.85 0, 11.69 0, 17 0 M0 0 C4.76 0, 9.53 0, 17 0 M17 0 C17 37.96, 17 75.93, 17 104 M17 0 C17 28.64, 17 57.29, 17 104 M17 104 C1.7 100.8, -13.61 97.59, -26 95 M17 104 C1.66 100.79, -13.69 97.58, -26 95 M-26 95 C-26 87.6, -26 80.2, -26 76 M-26 95 C-26 90.02, -26 85.03, -26 76 M-26 76 C-18.47 77.88, -10.95 79.76, 2 83 M-26 76 C-18.4 77.9, -10.8 79.8, 2 83 M2 83 C1.53 63.68, 1.07 44.36, 0 0 M2 83 C1.2 49.81, 0.4 16.61, 0 0 M0 0 C0 0, 0 0, 0 0 M0 0 C0 0, 0 0, 0 0" stroke="#0000" stroke-width="1" fill="none"></path></g></g><mask></mask><g stroke-linecap="round"><g stroke-opacity="0.6" fill-opacity="0.6" transform="translate(129.98529411764684 69.8125) rotate(0 -24 48)" fill-rule="evenodd"><path d="M0 0 L-48 0 L-46.77 54.13 L-20.31 51.06 L-22.15 70.47 L-46.15 78.64 L-44.77 96 L-9.23 89.87 L-3.69 34.72 L-33.85 33.7 L-33.23 17.36 L-2.46 16.34 L0 0" stroke="none" stroke-width="0" fill="#fff" fill-rule="evenodd"></path><path d="M0 0 C-17.17 0, -34.34 0, -48 0 M0 0 C-10.27 0, -20.53 0, -48 0 M-48 0 C-47.74 11.41, -47.48 22.82, -46.77 54.13 M-48 0 C-47.75 10.95, -47.5 21.9, -46.77 54.13 M-46.77 54.13 C-41.05 53.47, -35.33 52.8, -20.31 51.06 M-46.77 54.13 C-36.92 52.99, -27.06 51.85, -20.31 51.06 M-20.31 51.06 C-20.76 55.85, -21.22 60.64, -22.15 70.47 M-20.31 51.06 C-21 58.36, -21.7 65.66, -22.15 70.47 M-22.15 70.47 C-31.73 73.73, -41.31 76.99, -46.15 78.64 M-22.15 70.47 C-29.85 73.09, -37.54 75.71, -46.15 78.64 M-46.15 78.64 C-45.62 85.35, -45.08 92.06, -44.77 96 M-46.15 78.64 C-45.78 83.38, -45.4 88.13, -44.77 96 M-44.77 96 C-32.93 93.96, -21.09 91.92, -9.23 89.87 M-44.77 96 C-31.62 93.73, -18.47 91.47, -9.23 89.87 M-9.23 89.87 C-7.19 69.6, -5.16 49.33, -3.69 34.72 M-9.23 89.87 C-7.46 72.25, -5.69 54.63, -3.69 34.72 M-3.69 34.72 C-10.23 34.5, -16.76 34.28, -33.85 33.7 M-3.69 34.72 C-13.06 34.41, -22.43 34.09, -33.85 33.7 M-33.85 33.7 C-33.6 27.18, -33.35 20.65, -33.23 17.36 M-33.85 33.7 C-33.65 28.49, -33.45 23.29, -33.23 17.36 M-33.23 17.36 C-26.46 17.14, -19.7 16.91, -2.46 16.34 M-33.23 17.36 C-26.74 17.15, -20.26 16.93, -2.46 16.34 M-2.46 16.34 C-1.57 10.41, -0.68 4.49, 0 0 M-2.46 16.34 C-1.84 12.21, -1.22 8.07, 0 0 M0 0 C0 0, 0 0, 0 0 M0 0 C0 0, 0 0, 0 0" stroke="#0000" stroke-width="1" fill="none"></path></g></g><mask></mask></svg>