<svg xmlns="http://www.w3.org/2000/svg" viewBox="711.13 345.93 369.75 397.82" width="370" height="398"><ellipse cx="897.15" cy="599.56" rx="6.11" ry="5.34" stroke="#000000" stroke-width="1" opacity="1.0" fill="#000000"/><ellipse cx="938.68" cy="585.84" rx="6.11" ry="5.34" stroke="#000000" stroke-width="1" opacity="1.0" fill="#000000"/><ellipse cx="964.15" cy="559.57" rx="6.11" ry="5.34" stroke="#000000" stroke-width="1" opacity="1.0" fill="#000000"/><ellipse cx="973.04" cy="524.79" rx="6.11" ry="5.34" stroke="#000000" stroke-width="1" opacity="1.0" fill="#000000"/><ellipse cx="963.26" cy="486.25" rx="6.11" ry="5.34" stroke="#000000" stroke-width="1" opacity="1.0" fill="#000000"/><ellipse cx="937.14" cy="456.22" rx="6.11" ry="5.34" stroke="#000000" stroke-width="1" opacity="1.0" fill="#000000"/><ellipse cx="896.63" cy="445.16" rx="6.11" ry="5.34" stroke="#000000" stroke-width="1" opacity="1.0" fill="#000000"/><ellipse cx="857.16" cy="454.50" rx="6.11" ry="5.34" stroke="#000000" stroke-width="1" opacity="1.0" fill="#000000"/><ellipse cx="829.21" cy="480.34" rx="6.11" ry="5.34" stroke="#000000" stroke-width="1" opacity="1.0" fill="#000000"/><ellipse cx="818.02" cy="520.60" rx="6.11" ry="5.34" stroke="#000000" stroke-width="1" opacity="1.0" fill="#000000"/><ellipse cx="828.86" cy="561.88" rx="6.11" ry="5.34" stroke="#000000" stroke-width="1" opacity="1.0" fill="#000000"/><ellipse cx="856.68" cy="588.21" rx="6.11" ry="5.34" stroke="#000000" stroke-width="1" opacity="1.0" fill="#000000"/><ellipse cx="1003.39" cy="527.00" rx="7.59" ry="6.76" stroke="#000000" stroke-width="1" opacity="1.0" fill="#000000"/><ellipse cx="988.91" cy="574.89" rx="7.59" ry="6.76" stroke="#000000" stroke-width="1" opacity="1.0" fill="#000000"/><ellipse cx="952.68" cy="609.97" rx="7.59" ry="6.76" stroke="#000000" stroke-width="1" opacity="1.0" fill="#000000"/><ellipse cx="895.76" cy="623.15" rx="7.59" ry="6.76" stroke="#000000" stroke-width="1" opacity="1.0" fill="#000000"/><ellipse cx="840.73" cy="610.07" rx="7.59" ry="6.76" stroke="#000000" stroke-width="1" opacity="1.0" fill="#000000"/><ellipse cx="802.90" cy="569.88" rx="7.59" ry="6.76" stroke="#000000" stroke-width="1" opacity="1.0" fill="#000000"/><ellipse cx="787.30" cy="518.92" rx="7.59" ry="6.76" stroke="#000000" stroke-width="1" opacity="1.0" fill="#000000"/><ellipse cx="803.34" cy="466.38" rx="7.59" ry="6.76" stroke="#000000" stroke-width="1" opacity="1.0" fill="#000000"/><ellipse cx="846.61" cy="430.41" rx="7.59" ry="6.76" stroke="#000000" stroke-width="1" opacity="1.0" fill="#000000"/><ellipse cx="900.22" cy="419.45" rx="7.59" ry="6.76" stroke="#000000" stroke-width="1" opacity="1.0" fill="#000000"/><ellipse cx="956.18" cy="439.36" rx="7.59" ry="6.76" stroke="#000000" stroke-width="1" opacity="1.0" fill="#000000"/><ellipse cx="991.33" cy="474.73" rx="7.59" ry="6.76" stroke="#000000" stroke-width="1" opacity="1.0" fill="#000000"/><ellipse cx="1031.18" cy="539.85" rx="8.75" ry="8.86" stroke="#000000" stroke-width="1" opacity="1.0" fill="#000000"/><ellipse cx="1006.60" cy="599.33" rx="8.75" ry="8.86" stroke="#000000" stroke-width="1" opacity="1.0" fill="#000000"/><ellipse cx="956.02" cy="638.61" rx="8.75" ry="8.86" stroke="#000000" stroke-width="1" opacity="1.0" fill="#000000"/><ellipse cx="883.81" cy="651.76" rx="8.75" ry="8.86" stroke="#000000" stroke-width="1" opacity="1.0" fill="#000000"/><ellipse cx="814.10" cy="628.56" rx="8.75" ry="8.86" stroke="#000000" stroke-width="1" opacity="1.0" fill="#000000"/><ellipse cx="767.09" cy="566.46" rx="8.75" ry="8.86" stroke="#000000" stroke-width="1" opacity="1.0" fill="#000000"/><ellipse cx="760.45" cy="503.76" rx="8.75" ry="8.86" stroke="#000000" stroke-width="1" opacity="1.0" fill="#000000"/><ellipse cx="785.73" cy="439.56" rx="8.75" ry="8.86" stroke="#000000" stroke-width="1" opacity="1.0" fill="#000000"/><ellipse cx="846.53" cy="398.11" rx="8.75" ry="8.86" stroke="#000000" stroke-width="1" opacity="1.0" fill="#000000"/><ellipse cx="913.88" cy="391.81" rx="8.75" ry="8.86" stroke="#000000" stroke-width="1" opacity="1.0" fill="#000000"/><ellipse cx="984.69" cy="424.78" rx="8.75" ry="8.86" stroke="#000000" stroke-width="1" opacity="1.0" fill="#000000"/><ellipse cx="1024.10" cy="475.52" rx="8.75" ry="8.86" stroke="#000000" stroke-width="1" opacity="1.0" fill="#000000"/><ellipse cx="1061.28" cy="562.30" rx="11.03" ry="10.49" stroke="#000000" stroke-width="1" opacity="1.0" fill="#000000"/><ellipse cx="1017.65" cy="635.53" rx="11.03" ry="10.49" stroke="#000000" stroke-width="1" opacity="1.0" fill="#000000"/><ellipse cx="945.25" cy="677.85" rx="11.03" ry="10.49" stroke="#000000" stroke-width="1" opacity="1.0" fill="#000000"/><ellipse cx="862.73" cy="682.58" rx="11.03" ry="10.49" stroke="#000000" stroke-width="1" opacity="1.0" fill="#000000"/><ellipse cx="773.75" cy="637.54" rx="11.03" ry="10.49" stroke="#000000" stroke-width="1" opacity="1.0" fill="#000000"/><ellipse cx="728.16" cy="555.26" rx="11.03" ry="10.49" stroke="#000000" stroke-width="1" opacity="1.0" fill="#000000"/><ellipse cx="730.30" cy="477.21" rx="11.03" ry="10.49" stroke="#000000" stroke-width="1" opacity="1.0" fill="#000000"/><ellipse cx="782.08" cy="399.85" rx="11.03" ry="10.49" stroke="#000000" stroke-width="1" opacity="1.0" fill="#000000"/><ellipse cx="856.76" cy="362.42" rx="11.03" ry="10.49" stroke="#000000" stroke-width="1" opacity="1.0" fill="#000000"/><ellipse cx="937.60" cy="363.17" rx="11.03" ry="10.49" stroke="#000000" stroke-width="1" opacity="1.0" fill="#000000"/><ellipse cx="1021.05" cy="412.91" rx="11.03" ry="10.49" stroke="#000000" stroke-width="1" opacity="1.0" fill="#000000"/><ellipse cx="1063.84" cy="490.42" rx="11.03" ry="10.49" stroke="#000000" stroke-width="1" opacity="1.0" fill="#000000"/><polyline points="874.01,565.68 884.94,498.72 889.75,496.14 887.05,523.07 889.80,533.99 907.58,531.14 913.64,493.49 920.51,494.17 915.58,534.05 926.93,530.00 929.81,531.93 917.45,542.45 907.76,539.04 895.65,542.79 887.42,540.51 881.47,560.51 874.01,565.68" fill="none" stroke="#000000" stroke-width="1" opacity="1.0" stroke-linecap="round" stroke-linejoin="round" transform="rotate(3.80 901.91 701.66)"/></svg>