<svg version="1.1" xmlns="http://www.w3.org/2000/svg" viewBox="0 0 401.55598958333303 401.55598958333303" width="401.55598958333303" height="401.55598958333303">
  <!-- svg-source:excalidraw -->
  
  <defs>
    
    
  </defs>
  <g stroke-linecap="round" transform="translate(6 6) rotate(0 194.77799479166652 194.77799479166652)"><path d="M36.51 80.76 C36.51 80.76, 36.51 80.76, 36.51 80.76 M36.51 80.76 C36.51 80.76, 36.51 80.76, 36.51 80.76 M27.86 98.35 C45.78 82.86, 59.83 60.74, 76.87 43.64 M28.16 98.32 C41.61 79.47, 54.66 64.95, 76.5 38.99 M20.65 114.34 C40.57 88.97, 54.34 68.61, 84.36 31.85 M18.09 112.13 C34.3 96.3, 51.32 76.09, 88.47 36.59 M8.69 126.01 C41.22 95.03, 64.49 64.54, 94.92 31.61 M10.5 126.02 C38.15 97.7, 62.05 70.18, 96.88 29.89 M6.86 138.7 C38.74 109.69, 60.72 72.07, 105.82 19.39 M9.17 135.74 C39.68 107.32, 63.61 75.62, 109.58 21.39 M9.53 143.48 C37.81 108.14, 75.34 64.5, 115.6 18.33 M8.99 143.93 C31.35 115.88, 57.94 87.96, 117.41 17.34 M6.25 151.54 C52.89 103.61, 93.35 54.3, 126.76 12.79 M4.83 151.42 C39.74 109.38, 76.63 66.31, 126.11 15.1 M1.83 163.29 C37.83 122.55, 68.06 90.95, 135.41 8 M4.65 159.16 C44.22 113.58, 83.52 70.32, 135.03 11.7 M-0.29 172.2 C42.06 120.76, 80.13 78.42, 140.77 10.97 M1.85 169.33 C40.92 125.46, 81.23 82.17, 139.9 9.8 M1.07 178.3 C44.39 125.26, 91.07 69.15, 149.48 5.8 M0.87 177.89 C37.84 132.51, 76.21 90.05, 149.64 8.56 M-0.57 182.08 C31.34 145.89, 61.46 109.02, 157.98 5.56 M-1.88 184.37 C46.88 130.38, 91.12 77.92, 155.62 4.55 M1.85 188.22 C41.84 143.65, 82.09 96.73, 161.24 3.87 M-1.05 190.97 C35.32 148.11, 71.42 106.64, 161.73 4.78 M-0.25 196.46 C37.79 149.05, 82.9 100.55, 172.99 -0.81 M2.51 194.56 C37.29 147.64, 77.01 101.26, 168.66 0.05 M-0.36 202.02 C63.03 127.33, 127.14 51.16, 171.28 0.18 M0.79 200.44 C46.53 151.53, 92.66 97.83, 173.06 1.45 M3.19 204.59 C40.39 166.79, 71.37 128.51, 178.45 -0.9 M2.05 206.12 C68.27 129.13, 135.94 54.77, 180.3 1.12 M1.5 211.51 C61.93 136.85, 127.89 61.96, 186.88 -0.37 M2.67 212.15 C58.48 144.9, 114.15 78.79, 182.92 0.89 M3.24 218.79 C79.06 132.45, 151.19 42.88, 186.71 4.83 M4.2 216.38 C69.48 143.05, 136.23 69.45, 188.09 4.13 M5.86 224.49 C47.68 172.09, 97.22 114.02, 191.86 0.48 M4.21 221.36 C72.66 141.63, 144.58 60.35, 195.23 2.57 M4.71 229.14 C85.7 141.26, 158.11 54.96, 199.32 4.16 M2.79 229.26 C76.35 143.24, 152 53.82, 199.81 4.91 M2.68 234.58 C65.1 167.98, 122.71 101.52, 204.42 5.26 M3.94 232.89 C72.62 155.25, 139.12 74.73, 205.5 4.8 M8.16 237.37 C56.26 183.77, 99.89 133.18, 208.97 1.98 M6 236.26 C66.7 170.17, 122.44 103.84, 209.6 3.1 M6.72 242.31 C64.92 171.79, 125.53 108.88, 211.8 6.94 M8.89 242.17 C89.94 152.57, 165.79 61.32, 214.99 5.78 M8.46 247.13 C90.67 154.77, 175.87 59.59, 216.88 7.51 M10.21 243.6 C54.82 191.6, 99.84 139.67, 218.86 5.05 M9.96 248.87 C94.47 158.85, 171.36 67.22, 224.77 5.96 M11.23 250.43 C75.62 169.23, 144.5 92.97, 225.07 5.57 M13.73 255.5 C78.68 177.04, 142.43 105.8, 226.33 6.36 M14.15 253.88 C94.51 166.23, 170.67 78.24, 229.81 6.62 M13.19 259.38 C87.73 173.04, 159.02 88.61, 232.98 8.37 M16.23 259.26 C81.95 187.93, 142.24 113.64, 233.43 7.67 M14 262.51 C99.16 165.81, 180.1 67.98, 235.03 8.44 M15.6 261.86 C68.04 206.42, 117.32 151.34, 238.12 7.35 M15.83 264.97 C76.91 195.48, 137.87 129.59, 240.75 12.04 M18.25 266.25 C82.93 194, 144.8 120.59, 241.24 10.69 M22.57 267.86 C101.33 175.91, 183.24 82.8, 247.4 11.71 M19.34 270.81 C98.07 186.99, 170 100.35, 245.18 10.65 M22.74 274.51 C75.32 207.01, 132.99 142.21, 251.61 11.49 M21.64 275 C110.26 174.09, 198.66 73.53, 249.37 12.94 M23.38 280.45 C85.62 211.02, 145.9 141.17, 256.1 11.94 M22.41 277.81 C106.83 181.58, 191.18 83.82, 255.3 13.88 M25.62 284.56 C109.98 183.64, 190.77 88.51, 260.57 16.72 M24.23 283.96 C107.52 188.78, 189.19 96.13, 258.26 15.49 M27.02 289.34 C103.89 199.72, 180.35 109.36, 261.38 14.69 M27.35 286.84 C77.18 229.61, 127.35 173.34, 263.18 15.63 M29.49 290.44 C79.38 237.84, 125.98 179.55, 265.02 15.71 M28.12 289.46 C125.8 184.21, 220.27 75.41, 265.47 16.16 M29.14 294.63 C104.35 210.77, 176.21 125.57, 272.29 17.26 M32.52 294.8 C105.23 210.21, 179.09 124.42, 271.7 18.36 M34.72 298.49 C83.21 242.97, 131.9 182.81, 274.94 21.05 M32.4 297.91 C94.12 227.7, 155.29 158.75, 276.42 19.75 M36.65 301.85 C84.61 243.96, 136.81 185.31, 276.37 20.07 M35.31 302.2 C100.66 221.67, 168.94 144.94, 278.8 21.63 M39.99 302.7 C118.47 213.72, 197.57 118.51, 283.14 23.44 M38.34 305.03 C108 223.85, 181.4 139.25, 282.28 24.73 M39.32 309.46 C123.43 218.22, 201.23 123.84, 285.73 24.84 M40.92 308.06 C123.37 214.41, 205.07 121.29, 285.89 25.48 M43.96 313.45 C117.69 218.82, 199.2 127.58, 291.01 30.72 M41.28 312.38 C96.26 257.42, 145.9 196.79, 287.85 27.39 M43.55 315.84 C95.08 253.89, 149.63 193.21, 290.35 31.74 M44.18 316.5 C104.19 246.01, 164.19 177.15, 293.47 30.14 M45.01 317.84 C117.05 234.16, 193.44 148.45, 297.44 35.1 M47.39 319.43 C127.21 230.18, 205.82 138.02, 295.47 33.28 M47.33 323.76 C118.76 240.57, 197.39 153.36, 299.07 33.63 M48.89 321.87 C143.41 216.55, 237.2 107.83, 297.95 34.93 M50.37 324.82 C138.44 225.99, 229.93 122.86, 301.48 34.82 M51.34 327.18 C117.94 251.13, 183.64 174.69, 302.98 37.22 M53.61 327.3 C126.26 247.32, 195.8 166.95, 305.21 39.76 M54.31 329.51 C122.42 256.02, 188.61 181.38, 305.7 40.27 M58.6 333.11 C144.08 230.68, 232.41 128.15, 309.21 41.51 M57.47 330.68 C143.01 235.72, 227.31 139.17, 308.39 40.89 M58.1 334.06 C146.15 234.98, 227.53 140.76, 313.56 44.24 M59.82 334.81 C116.24 271.16, 172.6 207.81, 312.01 42.78 M60.92 336.69 C143.92 243.58, 224.46 151.15, 313.85 47.2 M63.96 335.9 C141.82 242.5, 224.36 149.25, 316.02 45.8 M65.49 339.09 C143.75 250.61, 221.65 165.77, 319.31 47.62 M66.83 340.05 C156.65 236.98, 245.91 132.68, 320.57 46.99 M71.25 340.78 C133.22 271.06, 200.05 196.34, 321.7 51.18 M69.44 342.76 C134.81 259.3, 204.28 180.64, 322.14 49.21 M71.79 342.4 C144.56 254.89, 219.68 169.87, 325.52 52.98 M72.98 343.37 C151.62 250.32, 232.92 155.16, 325.42 52.09 M77.69 344.46 C167.69 243.64, 254.61 144.92, 328.39 55.18 M76.43 346.61 C156.45 251.01, 240.82 155.27, 329.1 55.99 M79.96 347.94 C157.45 258.28, 240.66 164.95, 332.4 58 M78.35 349.64 C173.36 235.92, 268.28 124.72, 330.86 58.23 M82.34 353.11 C163.03 253.25, 252.12 151.79, 334.47 61.87 M81.59 353.08 C156.65 261.54, 234.05 173.06, 334.87 60.52 M84.99 354.39 C137.16 295.89, 190.94 232.12, 338.56 62.92 M84.66 354.13 C175.84 247.54, 267.29 144.11, 336.31 64.95 M86.42 355.04 C180 252.75, 269.63 145.95, 340.6 65.39 M86.75 357 C162.8 271.3, 237.54 186.15, 340.08 67.99 M90.13 358.13 C171.37 266.07, 249.69 172.18, 341.85 70.34 M90.27 359.68 C155.38 283.53, 221.44 206, 341.74 71.01 M92.34 362.27 C170.35 274.3, 248.48 185.28, 346.91 71.09 M93.98 361.98 C162.32 286.42, 230.69 208.92, 345.05 71.53 M98.8 365.99 C161.66 295.44, 219.54 227.56, 348.66 75.18 M98.61 363.39 C163.89 284.43, 233.75 206.12, 347.61 76.19 M101.61 364.95 C156.17 302.43, 211.83 243.23, 351.06 78.79 M101 365.56 C170.71 286.17, 238.34 208.7, 350.14 78.07 M104.34 367.48 C166.78 297.04, 227.11 225.26, 352.34 81.95 M105.64 366.85 C195.32 266.3, 284.45 162.96, 354.56 81.95 M108.2 367.33 C196.76 268.47, 280.76 172.57, 356.91 82.95 M108.98 369.1 C163.88 302.91, 223.04 235.29, 357.42 84.96 M111.29 371.14 C189.71 288.72, 258.78 203.41, 358.3 89 M113.88 372.05 C176.31 296.48, 241.3 220.92, 359.96 87.58 M116.05 374.07 C190.54 287.86, 265.4 203.12, 361.73 90.89 M116.01 373.53 C200.84 271.21, 289.49 169.14, 360.02 90.72 M121.6 374.65 C165.46 317.92, 212.5 264.9, 365.19 93.6 M121 375.26 C189.97 295.59, 259.03 213.99, 362.88 95.39 M125.56 375.34 C189.93 300.18, 255.71 227.16, 362.78 101.33 M122.8 376.62 C200.71 288.56, 280.35 195, 365.96 97.67 M126.12 378.17 C189.09 306.57, 251.69 239.81, 365.33 104.37 M128.43 378.02 C206.99 283.91, 293 188.06, 367.47 103.55 M129.07 380.15 C223.39 272.53, 316.3 167.09, 367.38 103.94 M131.01 379.51 C206.28 293.01, 278.86 210.98, 368.88 107.26 M134.92 383.7 C186.11 327.22, 237.74 265.05, 368.72 109.09 M134.85 381.72 C212.75 300.61, 287.28 214.72, 369.84 110.78 M140.86 382.02 C229.13 274.17, 321.04 168.35, 371.1 116.7 M138.19 384.42 C215.42 293.71, 293.53 205.87, 373.13 114.6 M143.96 383.4 C219.71 299.09, 295.04 212.4, 373.21 119.06 M142.33 383.43 C195.27 322.53, 250.23 260.08, 375.2 118.51 M149.68 385.86 C237.21 284.07, 317.51 185.62, 375.9 121.93 M147.9 383.89 C224.15 301.58, 295.73 217.11, 377.2 122.31 M151.54 383.62 C217.8 312.56, 281.4 234.12, 377.92 125.35 M153.32 384.74 C230.52 294.84, 309.48 206.25, 378.92 127.44 M155.24 387.34 C245.08 284.96, 332.45 182.3, 381.25 131.47 M158.81 385.95 C215.34 317.13, 275.66 249.86, 379.64 129.96 M161.31 386.99 C226.33 314.91, 286.22 245.38, 381.34 130.6 M162.72 386.28 C216.72 318.57, 274.49 252.68, 382.33 133.58 M169.75 386.25 C236.41 309.5, 302.46 229.86, 385.39 139.04 M167.16 386.59 C221.01 326.56, 273.89 265.25, 383.36 137.49 M169.83 388.83 C245.63 302.19, 317.51 219.31, 382.66 144.66 M171.57 387.16 C246.55 300.61, 321.84 213.75, 383.86 144.18 M178.02 390.32 C245.43 313.29, 311.52 234.36, 387.85 148.53 M178.3 388.49 C223.27 337.68, 266.75 288.05, 384.88 147.7 M181.13 388.54 C229.53 334.63, 277.79 283.77, 385.98 156.7 M183.33 388.62 C223.49 342.48, 264.99 293.92, 385.5 153.03 M184.9 387.59 C228.73 346.06, 270.14 295.09, 386.73 161.42 M186.84 390.4 C264.72 297.36, 343.8 207.52, 387.83 158.44 M190.43 390.73 C250.57 325.08, 309.34 254.29, 389.23 163.07 M192.85 389.02 C262.14 311.06, 333.15 230.29, 387.51 163.74 M197.4 388.48 C258.6 317.15, 318.95 244.43, 385.89 168.82 M196.07 390 C252.65 327.42, 308.65 263.01, 387.6 169.24 M201.17 392.74 C246.5 333.13, 294.12 281.97, 390.43 173.33 M203.41 391.33 C264.14 320.09, 323.75 251.54, 389.23 174.74 M209.98 388.56 C245.7 346.37, 286.86 300.35, 388.88 181.5 M207.23 388.96 C264.75 325.74, 319.78 261.78, 390.77 179.29 M214.38 390.15 C285.32 314.93, 350.1 235.85, 391.26 183.14 M212.89 388.62 C250.45 345.27, 284.68 304.79, 389.36 186.96 M220.28 387.59 C281.21 320.6, 342.48 248.41, 388.67 193.11 M221.14 386.58 C269.81 330.54, 318.06 272.79, 390.81 191.97 M229.84 387.43 C280.43 324.57, 339.35 259, 389.01 200.43 M227.55 386.32 C271.66 334.74, 318.42 284.2, 390.23 196.95 M229.06 383.28 C266.7 344.33, 307.38 308.64, 388.87 205.39 M230.9 385.59 C292.59 314.02, 353.15 245.03, 388.76 204.2 M239.22 386.08 C297.85 317.96, 357.15 254.3, 391.42 211.43 M240 384.25 C269.15 349.68, 299.17 312.66, 390.35 210.6 M242.81 382.6 C285.49 335.78, 322.05 293.73, 391.89 217.05 M246.48 383.78 C280.31 345.64, 312.1 309.3, 387.86 220.09 M250.32 378.53 C286.91 335.48, 329.53 293.42, 389.55 226.79 M252.39 380.54 C282.89 341.23, 317.77 303.61, 389.83 224.92 M257.68 377.61 C301.78 333.01, 338.32 287.5, 390.58 231.76 M259.48 379.58 C296.16 334.22, 337.19 289.78, 389.32 232.14 M267.83 377.8 C298.63 335.86, 324.67 300.29, 387.16 239.83 M266.57 376.98 C314.91 323.04, 357.36 275.12, 386.58 238.09 M275.64 371.37 C312.51 329.73, 349.01 292.97, 384.87 246.94 M275.57 374.13 C313.73 322.69, 355.57 275.97, 380.78 251.87 M279.57 371.85 C320.61 325.68, 358.86 285.55, 379.6 261.72 M283.41 372.45 C318.58 329.52, 353.06 289.47, 375.25 262.41 M290.47 367.66 C318.59 340.94, 336.21 315.3, 368.39 276.23 M292.4 364.19 C322.32 332.38, 347.36 302.97, 373.48 273.84 M314.34 344.15 C327.84 329.98, 343.77 316.18, 362.68 288.49 M313.94 347.32 C327.66 332.69, 339.36 316.28, 365.53 288.94 M332.8 332.38 C335.56 329.58, 336.84 325.21, 342.65 321.42 M333.59 331.72 C335.41 328.16, 336.5 326.7, 340.9 323.35 M48.78 324.94 C48.78 324.94, 48.78 324.94, 48.78 324.94 M48.78 324.94 C48.78 324.94, 48.78 324.94, 48.78 324.94 M102.71 360.09 C80.89 350.32, 71.18 337.62, 41.24 312.01 M98.5 362.18 C76.13 345, 54.85 327.79, 41.66 313.94 M112.74 374.61 C88.54 352.36, 64.87 324.01, 34.65 305.8 M114.67 372.67 C85.24 347.86, 56.21 320.4, 37.1 303.09 M126.37 378.93 C102.01 359.32, 76.32 332.7, 26.72 292.07 M126.75 376.69 C91.24 345.53, 58 316.15, 29.55 292.21 M142.54 381.32 C97.78 350.88, 64.83 309.57, 25.81 277.62 M137.42 380.87 C102.3 348.14, 65.61 315.3, 22.47 278.77 M147.11 385 C100.32 340.73, 45.82 301.19, 19.42 270.77 M147.24 384.06 C116.8 358.04, 87.2 333.63, 21.33 273.14 M152.45 381.27 C112.61 343.53, 65.66 303.82, 13.97 268.73 M155.02 383.59 C113.51 345.97, 71.69 309.73, 18.11 263.09 M162.8 382.97 C131.67 356.18, 103.77 332.45, 17.09 256.63 M160.12 385.82 C112.9 342.9, 64.77 301.58, 14.6 257.98 M171.16 383.9 C115.5 336.94, 63.51 298.16, 13.71 251.38 M168.57 386.43 C108 331.9, 42.73 275.66, 11.56 249.9 M177.73 385 C128.21 343.33, 83.38 298.66, 10.4 243.61 M175.06 386.96 C139.04 353.07, 98.7 320.71, 8.84 240.3 M180.82 390.36 C133 341.61, 85.15 298.91, 5.1 234.34 M183.53 386.97 C123.57 337.57, 65.97 285.75, 5.42 233.3 M191.01 388.42 C121.28 329.85, 57.81 269.58, 0.66 226.94 M189.79 387.44 C116.9 327.64, 41.69 264.29, 4.94 227.08 M193.72 390.61 C123.24 322.48, 48.81 258.59, 3.85 222.37 M195.71 389.64 C129.13 333.43, 66.71 277.77, 2.71 220.51 M200.2 391.06 C130.55 329.89, 60.16 261.97, 1.56 216.88 M200.6 386.47 C129.77 326.45, 58.41 265.67, 1.88 217.73 M204.16 385.1 C138.33 331.97, 75.13 278.8, 0.65 211.2 M204.93 387.28 C142.73 331.46, 78.68 276.61, 1.46 209.23 M208.51 383.96 C128.22 317.61, 50.49 245.35, -1.66 202.29 M211.49 386 C146.67 331.03, 82.33 275.66, 0.23 202.94 M218.44 385.1 C168.88 341.7, 113.85 296.07, 3.44 200.57 M216.66 386.37 C131.02 309.34, 46.13 235.52, -0.28 198.13 M221.61 385.68 C153.33 333.66, 90.46 278.02, 3.03 191.9 M221.81 384.52 C147.45 318.91, 71.16 254.43, 2.02 191.77 M224.56 383.47 C177.08 343.16, 134.35 300.24, -0.73 188.36 M227.48 383.11 C171.41 336.42, 115.9 286.24, 1.45 187.29 M228.65 385.77 C147.49 317.43, 66.28 244.03, -2.77 182.24 M231.65 383.15 C147.34 308.99, 60.91 234.29, 0.8 182.7 M236.03 381.17 C162.94 316.62, 90.73 254.79, -0.56 178.37 M236.21 383.08 C153.98 307.83, 68.33 234.43, 0.46 177.01 M242.41 380.64 C150.58 300.77, 56.85 225.63, 2.59 174.35 M242.83 380.24 C180.75 325.67, 117.32 273.8, 1.22 171.7 M246.1 382.44 C151.27 299.26, 64.39 220.01, -0.45 164.94 M245.65 379.6 C172.18 313.24, 94.03 245.44, 0.97 166.98 M250.15 381.52 C152.18 291.06, 55.69 204.99, 0.77 164.67 M251.06 378.08 C195.11 324.3, 137.44 275.19, 3.02 163.18 M254.64 375.77 C191.56 321.73, 127.29 263.46, 5.4 158.96 M253.89 377.23 C163.2 296.85, 72 218.74, 4.71 159.7 M257.75 373.08 C164.58 288.65, 68.86 202.82, 2.32 156.09 M258.31 374.88 C178.63 299.4, 96.62 227.81, 4.14 155.41 M264.88 375.2 C180.58 309.37, 103.42 239.64, 8.39 151.02 M263.02 374.36 C205.77 320.78, 145.56 266.39, 6.5 148.84 M270.7 372.95 C184.29 298.31, 101.44 229.71, 9.67 143.97 M268.21 371.95 C183.43 305.65, 103.69 234.48, 6.43 146.35 M275.01 373.55 C177.03 285.05, 83.27 204.65, 10.31 142.29 M273.19 371.78 C187.97 299.7, 104.31 228.25, 7.78 141.21 M275.69 369.14 C187.97 292.97, 100.51 216.95, 11.47 136.39 M277.83 370.87 C189.71 288.23, 98.26 208.67, 8.75 137.61 M282.27 368.15 C190.03 286.48, 103.86 211.97, 12.05 133.3 M281.39 367.99 C207.14 303.71, 134.63 241.51, 10.86 132.56 M284.96 365.17 C192.39 280.6, 92.05 193.79, 9.18 127.6 M285.39 367.62 C192.92 286.09, 97.63 204.52, 12.27 129.06 M288.82 366.61 C180.77 268.06, 72.53 175.38, 13.76 124.01 M289.92 365.59 C225.42 304.05, 159.63 248.17, 13.87 123.6 M296.43 365.63 C219.09 293.08, 137.46 227.1, 16.51 119.84 M294.89 362.56 C229.54 311.93, 167.85 256.83, 13.63 119.66 M296.77 361.82 C235.87 310.1, 173.67 257.11, 16.41 115.13 M296.61 361.64 C233.75 308.54, 171.02 252.04, 17.56 115.94 M302.42 360.11 C191.41 261.68, 78.35 165.56, 18.92 112.26 M300.96 358.42 C230.92 299.45, 161.16 238.43, 19.2 114.21 M303.87 357.02 C206.32 275.38, 111.41 189.59, 22.86 109.75 M302.8 354.96 C206.33 277.49, 113.45 194.29, 21.37 108.88 M306.26 353.53 C209.52 271.39, 111.44 182.37, 20.62 108.2 M306.05 353.6 C234.87 288.15, 163.52 225.2, 22.13 105.88 M309.77 352.39 C197.58 256.26, 84.89 156.37, 24.78 104.82 M309.59 350.19 C226.48 278.45, 141.85 204.95, 24.92 103.13 M312.43 347.57 C200.11 253.21, 92.34 154.78, 25.54 100.9 M312.96 348.47 C235.45 285.13, 160.08 219.38, 25.72 98.76 M317.66 347.44 C239.69 281.14, 165.1 214.47, 30.02 94.04 M317.19 345.26 C216.1 260.45, 116.69 174.87, 28.6 96.17 M320.56 343.99 C236.91 265.59, 150.07 188.49, 28.92 89.8 M318.9 343.71 C242.6 275.7, 168 209.29, 29.77 92.21 M320.29 340.71 C219.36 258.49, 124.02 173.26, 30.56 89.12 M323.02 340.99 C215.19 243.87, 107.35 149.96, 32.98 87 M327.38 337.33 C234.38 262.29, 149.18 188.61, 32.59 85.68 M324.61 337.73 C262.56 281.88, 201.3 228.94, 33.81 84.13 M325.75 336.7 C248.5 263.97, 174.01 197.21, 37.52 82.71 M328.3 333.63 C222.93 243.95, 119.28 152.8, 35.59 82.01 M331.29 333.04 C232.76 246.69, 131.2 157.8, 41.49 78.66 M331.59 332.89 C264.67 271.31, 197.45 210.61, 38.66 79.31 M334.98 328.21 C225.3 231.7, 114.63 135.91, 41.63 75.88 M334.72 330.44 C236.71 247.61, 138.27 162.57, 41.21 74.75 M337.93 325.34 C221.94 226.33, 110.28 129.57, 45.18 72.38 M336.05 325.22 C266.37 266.07, 197.32 208.98, 44.22 71.34 M337.46 320.74 C251.04 249.59, 166.89 178.72, 46.39 68.51 M339.91 322.04 C272.61 265.71, 210.57 211.99, 47.7 69.59 M339.63 318.62 C238.57 231.67, 137.19 144.78, 50.5 64.14 M341.34 321.14 C259.75 247.4, 177.05 174.42, 49.28 65.36 M343.79 316.84 C259.11 242.47, 177.48 166.91, 51.41 65.96 M344.2 316.31 C231.9 216.89, 118.03 117.31, 53.01 64.84 M345.38 315.49 C249.42 226.51, 148.62 140.05, 57.35 58.45 M345.52 313.64 C274.15 254.38, 204.2 193.49, 55.48 60.98 M349.88 309.47 C247.89 227.73, 145.37 137.49, 58.12 56.97 M347.72 310.57 C257.88 228.9, 165.82 147.4, 58.44 58.84 M350.94 305.15 C282.1 246.66, 212.44 190.84, 60.31 55.05 M351.43 306.12 C258.99 228.78, 170.01 149.76, 61.95 54.3 M354.02 303.53 C264.1 225.45, 174.63 149.32, 64.83 50.62 M353.49 303.62 C262.34 219.84, 170.58 139.99, 63.77 51.54 M355.31 299.31 C270.08 224.31, 186.98 148.75, 68.15 48.61 M354.98 301.04 C274.5 226.46, 193.78 155.95, 68.2 49.65 M358.73 299.1 C277.16 222.13, 195.55 150.98, 69.14 46.02 M357.27 297.91 C241.45 197.85, 126.16 98.32, 69.71 47.35 M362.33 295.6 C257.69 203.88, 155.51 113.88, 74.12 42.53 M360.88 294.01 C265.91 210.22, 172.03 128.69, 72.82 42.44 M360.98 290.55 C281.01 220.8, 194.54 149.08, 75.23 39.79 M361.55 289.17 C298.33 233.7, 234.62 177.33, 75.63 41.24 M363.39 289.15 C296.29 232.42, 232.34 169.11, 76.15 39.97 M365.38 287.88 C259.79 193.78, 153.86 102.65, 77.17 38.72 M368.26 282.98 C311.33 235.62, 252.81 185.81, 81.62 36.73 M367.84 282.9 C265.49 198.34, 167.36 111.88, 81.57 36.5 M369.08 279.95 C273.52 198.34, 180.05 115.52, 87.52 35.76 M368.79 278.64 C279.24 203.59, 191.07 125.63, 86.41 32.8 M369.06 277.36 C259.55 177.66, 153.73 88.48, 90.47 31.71 M371.1 274.57 C266.13 181.74, 158.45 88.3, 90.45 31.52 M373.18 270.06 C311.51 216.26, 250.36 166.39, 92.08 29.25 M373 271.81 C301.71 211.22, 232.31 151.92, 93.53 29.9 M371.85 270.07 C303.9 204.77, 229.59 140, 95.79 25.81 M374.53 268.67 C313.29 214.89, 254.23 162.07, 96.26 28.8 M374.51 262.73 C313.08 210.25, 249.95 151.33, 101.24 28.16 M374.56 264.45 C315.52 215.81, 258.71 163.99, 99.97 25.29 M378.41 260.95 C277.49 172.48, 183.4 90.93, 104.94 24.04 M377.35 259.85 C319.4 208.93, 262.64 160.23, 103.01 22.4 M379.33 258.48 C292.73 183.28, 208.62 109.8, 108.51 22.27 M379.01 255.78 C318.97 198.92, 255.38 147.13, 109.53 22.52 M379.45 253.84 C310.21 192.76, 242.99 133.01, 111.91 17.74 M380.81 253.12 C275.53 162.61, 170.06 72.61, 110.52 20.49 M380.07 249.4 C289.12 164.98, 193.13 85.23, 114.08 18.28 M382.38 249.7 C302.76 178.58, 224.7 111.59, 115.6 18.55 M382.58 244.41 C322.94 190.63, 258.18 136.6, 117.66 15.95 M383.29 244.29 C313.25 181.96, 244.13 121.16, 119.92 16.32 M386.1 239.08 C313.87 184.71, 249.48 125.95, 125.26 14.86 M383.84 241.5 C289.86 160.13, 196.8 79.86, 124.01 13.68 M384.86 238.7 C325.21 180.71, 264.83 126.67, 130.06 13.86 M385.77 235.75 C332.95 190.54, 281.39 146.38, 127.76 12.27 M388.31 228.71 C310.62 165, 239.21 106.46, 131.92 8.6 M386.55 231.79 C290.7 148.59, 193.02 64.24, 131.51 10.53 M384.44 228.57 C308.37 166.13, 236.23 100.93, 137.48 8.36 M385.63 225.08 C317.01 165.06, 248.58 108.14, 136.41 10.51 M389.43 221.13 C324.99 166.6, 258.81 110.82, 143.85 6.21 M386.48 220.16 C322.83 165.58, 259.35 110.63, 142.1 7.43 M387.62 218.22 C311.52 149.69, 235.4 85.04, 144.74 8.01 M386 216.1 C300.42 138.74, 212.16 62.69, 145.59 6.08 M385.88 213.1 C338.09 164.46, 286.14 121.02, 152.89 7.44 M388.65 211.36 C326.97 159.66, 262.04 103.54, 150.22 5 M386.94 204.56 C326.12 153.89, 266.23 98.37, 156.39 4.44 M387.94 206.9 C319.18 148.99, 250.08 88.17, 156.16 4.59 M389.57 199.68 C307.41 129.87, 227.04 61.57, 157.91 2.6 M387.31 200.78 C330.48 149.68, 271.28 98.24, 158.13 2.09 M388.95 199.02 C337.27 155.49, 288.3 106.92, 164.81 -0.5 M387.24 197.13 C317.09 135.64, 247.74 74.21, 164.26 0.03 M388.89 192.67 C340.2 142.71, 289.02 98.63, 165.8 1.26 M389.23 191.85 C327.24 137.06, 268.05 85.27, 168.02 -1.54 M390.94 186.28 C321.61 121.68, 246.13 57.77, 173.6 1.35 M388.01 187.52 C313.42 125.47, 238.72 59.66, 173.66 -1.9 M387.79 179.29 C346.96 140.52, 301.74 98.03, 183.3 0.64 M390.06 181.17 C327 126.2, 267.06 75.12, 181.94 0.7 M389.91 174.75 C309.3 105.81, 226.1 38.98, 187.29 0.87 M389.11 174.91 C345.91 134.35, 301.3 95.42, 188.08 -0.3 M389.91 169.99 C340.7 129.69, 297.26 87.89, 195.59 1.53 M386.23 167.69 C332.77 125.36, 278.94 78.11, 192.97 -0.33 M382.99 161.18 C324.42 108.75, 267.63 59.39, 198.78 2.3 M387.22 161.03 C348.41 130.88, 309.26 97.86, 201.68 1.24 M386.83 157.53 C343.62 124.21, 308.26 89.34, 203.81 3.05 M386.57 154.48 C318.67 100.12, 248.28 41.55, 205.39 1.67 M386.5 148.35 C337.39 113.34, 299.57 72.69, 213.66 3.96 M384.96 149.64 C341.61 114.72, 298.83 76.97, 213.52 2.4 M381.52 146.49 C315.04 83.83, 253.44 26.78, 217.36 -1.43 M381.68 144.54 C332.02 99.98, 282.28 56.29, 218.81 3.49 M381.63 137.26 C337.08 96.43, 294.88 63.91, 227.95 7.25 M383.84 137.77 C326.81 85.23, 268.63 35.99, 228.7 2.93 M383.13 133.67 C340.38 90.01, 294.49 52.08, 235.58 4.36 M379.19 129 C329.46 85.52, 279.6 38.93, 236.43 5.76 M378.61 117.49 C335.58 92.06, 296.57 56.01, 248.93 11.33 M373.56 120.11 C339.32 89.97, 301.06 56.11, 249.05 11.52 M369.96 114.63 C332.7 74.76, 299.35 44.69, 257.27 10.42 M371.06 109.94 C330.1 77.69, 289.5 39.91, 258.12 12.25 M361.8 104.67 C325.92 71.91, 294.46 41.13, 262.36 16.94 M367.07 100.3 C329.19 74.7, 299.09 42.53, 264.29 17.05 M357.19 90.62 C333.82 70.93, 310.72 48.85, 282.14 21.56 M361.06 90.94 C331.82 66.59, 303.02 41.1, 277.91 23.01 M352.35 80.94 C333.1 60.08, 314.49 53.12, 303.5 33.47 M348.18 78.75 C329.96 60.31, 313.59 45.45, 300.72 35.54" stroke="#e14b2d" stroke-width="0.5" fill="none"></path><path d="M320.38 47.32 C335.53 55.5, 347.29 71.92, 357.27 85.84 C367.25 99.77, 375.01 114.41, 380.26 130.85 C385.51 147.29, 387.86 166.64, 388.79 184.5 C389.72 202.37, 389.78 220.97, 385.83 238.03 C381.89 255.1, 373.72 271.57, 365.1 286.89 C356.48 302.21, 346.09 316.99, 334.12 329.94 C322.15 342.88, 308.5 355.91, 293.26 364.56 C278.02 373.2, 259.35 377.66, 242.69 381.81 C226.03 385.96, 210.82 389.26, 193.28 389.45 C175.74 389.63, 154.33 387.78, 137.45 382.92 C120.56 378.07, 106.74 369.94, 91.99 360.3 C77.24 350.66, 60.53 338.3, 48.93 325.07 C37.33 311.84, 29.97 296.7, 22.38 280.93 C14.8 265.16, 7.31 247.65, 3.42 230.44 C-0.46 213.23, -2.23 194.95, -0.9 177.69 C0.42 160.42, 5.18 143, 11.4 126.86 C17.62 110.72, 25.74 95.36, 36.43 80.85 C47.12 66.35, 61.85 50.66, 75.55 39.83 C89.26 29.01, 102.67 22.58, 118.67 15.89 C134.67 9.19, 154.13 1.79, 171.55 -0.35 C188.96 -2.48, 206.24 -0.01, 223.19 3.08 C240.14 6.17, 253.22 7.38, 273.25 18.2 C293.29 29.02, 328.72 54.38, 343.41 67.99 C358.11 81.6, 364.04 97.48, 361.42 99.86 M297.35 29.17 C313.29 34.38, 323.42 46.25, 335.36 58.87 C347.3 71.49, 360.67 89.07, 369 104.91 C377.32 120.76, 382 136.9, 385.3 153.92 C388.61 170.93, 390.38 189.19, 388.83 207.02 C387.29 224.86, 382.24 244.29, 376.04 260.9 C369.84 277.51, 360.84 292.34, 351.65 306.7 C342.45 321.05, 333.53 336.32, 320.85 347.01 C308.17 357.7, 291.95 363.93, 275.55 370.86 C259.14 377.79, 240.18 385.61, 222.42 388.57 C204.66 391.53, 186.79 391.31, 169.01 388.6 C151.23 385.9, 131.91 379.32, 115.74 372.35 C99.56 365.38, 85.25 358, 71.95 346.79 C58.64 335.59, 46.09 319.38, 35.92 305.13 C25.75 290.88, 16.35 277.75, 10.93 261.31 C5.51 244.87, 4.71 224.14, 3.38 206.51 C2.06 188.88, -0.29 172.74, 2.97 155.54 C6.23 138.34, 15.03 118.36, 22.93 103.29 C30.83 88.21, 38.75 77.78, 50.38 65.08 C62.01 52.38, 77.77 37.14, 92.73 27.1 C107.69 17.07, 123.25 9.43, 140.14 4.86 C157.04 0.29, 176.13 -1.06, 194.11 -0.33 C212.08 0.4, 230.73 4.8, 247.98 9.24 C265.24 13.68, 290.5 22.62, 297.63 26.3 C304.76 29.97, 293.07 28.1, 290.74 31.29" stroke="#e14b2d" stroke-width="1" fill="none"></path></g><g stroke-linecap="round" transform="translate(92.91688560544026 260.61957202527765) rotate(0 105.64297029575982 19.538453425135003)"><path d="M-3.14 -0.63 L212.44 3.86 L208.58 37.73 L-0.09 40.82" stroke="none" stroke-width="0" fill="#ffffff"></path><path d="M2.46 -1.27 C76.6 -1.16, 150.21 1.12, 212.87 1.69 M0.88 0.58 C45.75 -0.14, 92.8 0.03, 211.18 1.59 M211.12 -3.73 C213.64 10.38, 212.16 13.9, 210.45 42.92 M209.7 -0.77 C210.38 10.41, 210.27 21.37, 212.61 37.12 M208.17 37.11 C163.14 36.25, 113.56 38.58, -2.79 41.49 M212.24 37.94 C142.74 40.46, 72.78 38.57, -1.54 39.95 M-0.4 38.31 C-3.21 28.93, -3.35 15.17, 3.72 1.92 M0.59 39.27 C1.15 22.54, -0.22 8.31, 0.42 0" stroke="#e14b2d" stroke-width="1" fill="none"></path></g><g stroke-linecap="round"><g transform="translate(142.73026214539186 357.3760696054442) rotate(181.11973861006382 58.91630657422456 -20.196557367870355)" fill-rule="evenodd"><path d="M3.93 -3.73 C3.51 -4.29, -6.88 2.26, -2.53 -3.65 C1.81 -9.56, 19.36 -33.42, 30.01 -39.18 C40.67 -44.94, 49.33 -39.44, 61.39 -38.22 C73.46 -36.99, 93.12 -38.71, 102.38 -31.83 C111.63 -24.96, 134.26 -2.24, 116.92 3.05 C99.58 8.33, 18.2 0.97, -1.65 -0.12" stroke="none" stroke-width="0" fill="#ffffff" fill-rule="evenodd"></path><path d="M1.96 -1.01 C2.85 -2.32, -2.38 -1.23, 2.72 -6.54 C7.83 -11.84, 23.11 -27.4, 32.58 -32.82 C42.04 -38.24, 48.51 -39.63, 59.52 -39.05 C70.53 -38.48, 88.94 -35.94, 98.66 -29.39 C108.37 -22.84, 134.1 -4.37, 117.81 0.25 C101.52 4.87, 20.6 -1.42, 0.92 -1.68 M-0.43 -4.02 C0.55 -6.36, -3.64 -5.77, 1.78 -11.29 C7.19 -16.8, 22.23 -31.6, 32.06 -37.11 C41.9 -42.62, 49.02 -45.74, 60.78 -44.36 C72.55 -42.98, 92.57 -35.99, 102.63 -28.84 C112.69 -21.69, 137.75 -6.74, 121.14 -1.45 C104.52 3.83, 23.59 3.1, 2.93 2.88" stroke="#e14b2d" stroke-width="1" fill="none"></path></g></g><mask></mask><g stroke-linecap="round"><g transform="translate(140.93513192870773 247.08897894755592) rotate(0 63.13923671883879 -108.08591660817524)" fill-rule="evenodd"><path d="M-0.1 1.9 C-0.53 1.26, -4.65 -3.6, -5.54 -5.34 C-6.43 -7.08, -2.69 -1.93, -5.44 -8.54 C-8.19 -15.14, -20.24 -40.47, -22.06 -44.96 C-23.88 -49.44, -21.09 -38.78, -16.36 -35.45 C-11.64 -32.11, 4.36 -21.57, 6.29 -24.95 C8.22 -28.33, -1.46 -43.14, -4.79 -55.73 C-8.12 -68.32, -14.07 -84.26, -13.7 -100.48 C-13.34 -116.7, -3.6 -143.29, -2.61 -153.05 C-1.62 -162.82, -7.81 -158.6, -7.76 -159.09 C-7.72 -159.57, -6.88 -160.25, -2.34 -155.97 C2.21 -151.69, 15.1 -139.25, 19.52 -133.42 C23.95 -127.59, 21.68 -122.32, 24.22 -120.99 C26.76 -119.66, 33.34 -121.13, 34.75 -125.44 C36.15 -129.76, 33.5 -139.92, 32.64 -146.89 C31.79 -153.87, 30.19 -163.05, 29.63 -167.29 C29.07 -171.53, 23.44 -164.14, 29.31 -172.32 C35.17 -180.5, 59.48 -213.87, 64.83 -216.38 C70.18 -218.89, 63.9 -194, 61.42 -187.36 C58.94 -180.73, 51.53 -181.93, 49.95 -176.56 C48.37 -171.18, 49.23 -163.93, 51.95 -155.14 C54.67 -146.34, 64.5 -132.96, 66.28 -123.81 C68.05 -114.66, 61.46 -97.46, 62.58 -100.22 C63.71 -102.98, 68.79 -125.56, 73.01 -140.38 C77.23 -155.2, 84.74 -179.78, 87.91 -189.13 C91.07 -198.48, 91.39 -196.52, 92.01 -196.47 C92.62 -196.42, 91.63 -193.73, 91.59 -188.81 C91.55 -183.88, 90.99 -174.11, 91.77 -166.9 C92.55 -159.7, 91.17 -155.22, 96.27 -145.57 C101.38 -135.93, 117.29 -120.19, 122.41 -109.01 C127.52 -97.84, 126.78 -88.71, 126.95 -78.51 C127.11 -68.31, 125.83 -57.07, 123.4 -47.81 C120.97 -38.56, 114.89 -27.36, 112.35 -22.99 C109.81 -18.62, 107.04 -21.91, 108.17 -21.59 C109.29 -21.26, 113.84 -18.01, 119.11 -21.05 C124.38 -24.1, 135.1 -35.54, 139.78 -39.85 C144.45 -44.15, 146.77 -47.95, 147.18 -46.89 C147.58 -45.82, 145.5 -40.98, 142.21 -33.48 C138.93 -25.97, 132.66 -6.67, 127.46 -1.86 C122.26 2.95, 132.44 -5.74, 111 -4.61 C89.56 -3.47, 18.02 4.46, -1.17 4.94 C-20.36 5.42, -4.81 -1.61, -4.14 -1.74 C-3.46 -1.87, 1.98 3.95, 2.86 4.16" stroke="none" stroke-width="0" fill="#ffffff" fill-rule="evenodd"></path><path d="M-1.01 2.38 C-1.51 1.98, -0.66 1.06, -1.72 -0.44 C-2.79 -1.95, -4.58 0.76, -7.38 -6.63 C-10.18 -14.02, -17.53 -40.02, -18.54 -44.77 C-19.54 -49.53, -17.88 -38.36, -13.44 -35.17 C-8.99 -31.98, 7.51 -21.68, 8.16 -25.64 C8.8 -29.61, -6.17 -47.18, -9.59 -58.97 C-13.01 -70.76, -13.52 -81.55, -12.34 -96.37 C-11.17 -111.18, -2.76 -136.59, -2.55 -147.86 C-2.34 -159.14, -11.91 -162.19, -11.11 -164.01 C-10.31 -165.83, -2.55 -163.66, 2.27 -158.78 C7.09 -153.9, 13.91 -141.03, 17.83 -134.72 C21.74 -128.41, 23.8 -121.68, 25.74 -120.93 C27.67 -120.18, 28.23 -126.21, 29.43 -130.2 C30.63 -134.2, 33.61 -138.97, 32.92 -144.89 C32.23 -150.81, 26.56 -160.74, 25.3 -165.7 C24.03 -170.67, 18.61 -166.18, 25.33 -174.7 C32.05 -183.22, 60.55 -214.26, 65.63 -216.82 C70.71 -219.37, 58.67 -196.27, 55.83 -190.04 C52.99 -183.8, 49.49 -185.43, 48.62 -179.42 C47.74 -173.42, 47.64 -163.02, 50.58 -154.03 C53.52 -145.04, 63.87 -134.64, 66.28 -125.5 C68.69 -116.37, 64.6 -96.45, 65.03 -99.22 C65.46 -101.98, 65.62 -126.47, 68.84 -142.1 C72.07 -157.73, 79.83 -184.08, 84.41 -192.99 C88.98 -201.91, 96.02 -196.42, 96.29 -195.6 C96.57 -194.78, 87 -192.92, 86.07 -188.07 C85.13 -183.22, 88.86 -173.38, 90.67 -166.52 C92.48 -159.65, 91.6 -156.83, 96.93 -146.87 C102.25 -136.92, 117.74 -118.34, 122.64 -106.79 C127.54 -95.24, 126.01 -87.91, 126.32 -77.59 C126.63 -67.27, 126.84 -53.31, 124.48 -44.87 C122.13 -36.44, 115.18 -30.17, 112.17 -26.98 C109.16 -23.79, 105.28 -25.71, 106.43 -25.73 C107.59 -25.75, 113.32 -25.61, 119.1 -27.08 C124.88 -28.54, 136.4 -32.16, 141.13 -34.52 C145.86 -36.89, 147.17 -42.09, 147.5 -41.27 C147.82 -40.46, 145.81 -35.71, 143.09 -29.63 C140.37 -23.56, 136.09 -9.07, 131.17 -4.81 C126.25 -0.54, 135.44 -4.97, 113.58 -4.06 C91.72 -3.16, 19.72 0.01, 0.01 0.62 C-19.7 1.22, -4.32 -0.25, -4.69 -0.42 C-5.06 -0.6, -3.11 -0.96, -2.2 -0.44 M3.64 1.2 C2.69 -0.12, -1.77 -2.05, -3.7 -4.16 C-5.63 -6.28, -5.69 -4.95, -7.94 -11.48 C-10.2 -18.01, -17.11 -39.56, -17.22 -43.36 C-17.34 -47.16, -12.12 -36.89, -8.65 -34.26 C-5.17 -31.63, 3.66 -22.93, 3.6 -27.6 C3.55 -32.27, -7.25 -50.69, -8.98 -62.29 C-10.72 -73.88, -7.22 -82.59, -6.82 -97.17 C-6.42 -111.75, -5.96 -138.27, -6.58 -149.76 C-7.21 -161.25, -12.39 -164.95, -10.59 -166.08 C-8.8 -167.2, -1.19 -161.76, 4.2 -156.52 C9.58 -151.28, 17.91 -140.33, 21.72 -134.63 C25.52 -128.94, 24.77 -122.96, 27.04 -122.35 C29.3 -121.74, 35.4 -126.9, 35.32 -130.97 C35.23 -135.05, 27.79 -141.36, 26.52 -146.78 C25.25 -152.2, 27.15 -159.05, 27.7 -163.5 C28.24 -167.96, 22.66 -164.8, 29.8 -173.52 C36.95 -182.24, 65.46 -213.28, 70.56 -215.82 C75.67 -218.37, 63.74 -195.33, 60.44 -188.77 C57.14 -182.21, 51.57 -181.92, 50.77 -176.47 C49.97 -171.03, 52.93 -165.29, 55.67 -156.11 C58.4 -146.93, 65.75 -130.65, 67.16 -121.4 C68.58 -112.15, 63.45 -96.94, 64.14 -100.63 C64.82 -104.32, 67.3 -128.07, 71.26 -143.55 C75.22 -159.03, 84.51 -184.85, 87.87 -193.51 C91.23 -202.17, 91.32 -196.26, 91.42 -195.51 C91.52 -194.75, 89.33 -194.44, 88.45 -188.97 C87.58 -183.5, 84.55 -169.02, 86.15 -162.68 C87.75 -156.34, 92.67 -161.02, 98.05 -150.92 C103.44 -140.81, 112.69 -113.69, 118.48 -102.06 C124.26 -90.44, 131.78 -90.02, 132.75 -81.18 C133.72 -72.35, 127.17 -57.86, 124.3 -49.05 C121.43 -40.24, 117.88 -32.46, 115.53 -28.32 C113.18 -24.18, 110.3 -25.36, 110.19 -24.19 C110.08 -23.03, 109.53 -18.94, 114.85 -21.32 C120.17 -23.69, 137.23 -34.85, 142.14 -38.45 C147.05 -42.05, 144.05 -44.19, 144.29 -42.92 C144.54 -41.66, 145.99 -37.48, 143.6 -30.87 C141.21 -24.25, 135.46 -7.55, 129.96 -3.25 C124.46 1.06, 132.21 -5.89, 110.61 -5.02 C89 -4.15, 18.97 1.14, 0.33 1.97 C-18.3 2.81, -1.63 0.45, -1.22 0 C-0.8 -0.45, 2.28 -0.5, 2.83 -0.73" stroke="#e14b2d" stroke-width="1" fill="none"></path></g></g><mask></mask></svg>