<svg version="1.1" xmlns="http://www.w3.org/2000/svg" viewBox="0 0 90.695652173913 125.74750487879794" width="90.695652173913" height="125.74750487879794">
  <!-- svg-source:excalidraw -->
  
  <defs>
    
    
  </defs>
  <g transform="translate(14.932376230431828 79.74750487879794) rotate(0 30.5 20)"><text x="0" y="0" font-family="Virgil, Segoe UI Emoji" font-size="16px" fill="#000000" text-anchor="start" style="white-space: pre;" direction="ltr" dominant-baseline="text-before-edge">Shopping</text><text x="0" y="20" font-family="Virgil, Segoe UI Emoji" font-size="16px" fill="#000000" text-anchor="start" style="white-space: pre;" direction="ltr" dominant-baseline="text-before-edge">Basket</text></g><g stroke-linecap="round"><g transform="translate(6 32.52173913043475) rotate(0 39.3478260869565 18.043478260869563)" fill-rule="evenodd"><path d="M-0.98 -0.18 L20.06 34.17 L56.63 36.24 L78.77 2.87 L1.53 -0.75" stroke="none" stroke-width="0" fill="#868e96" fill-rule="evenodd"></path><path d="M0 0 C5.6 11, 12.88 22.17, 18.26 35.22 M0 0 C5.86 10.19, 10.87 22.37, 18.26 35.22 M18.26 35.22 C26.45 35.29, 36.68 36.99, 57.39 36.09 M18.26 35.22 C27.84 36.5, 38.07 35.19, 57.39 36.09 M57.39 36.09 C63.91 27.02, 68.59 17.59, 78.7 0.87 M57.39 36.09 C63.91 25.21, 70.27 15.43, 78.7 0.87 M78.7 0.87 C47.51 2.1, 17.56 1.61, 0 0 M78.7 0.87 C52.72 0.95, 27.48 -0.26, 0 0 M0 0 C0 0, 0 0, 0 0 M0 0 C0 0, 0 0, 0 0" stroke="#000000" stroke-width="1" fill="none"></path></g></g><mask></mask><g stroke-linecap="round"><g transform="translate(61.65217391304327 33.82608695652175) rotate(0 -6.95652173913038 -13.913043478260875)"><path d="M0 0 C-3.48 -5.76, -7.01 -13.98, -13.91 -27.83 M0 0 C-2.66 -5.94, -5.3 -11.75, -13.91 -27.83" stroke="#000000" stroke-width="1" fill="none"></path></g></g><mask></mask><g stroke-linecap="round"><g transform="translate(43.39130434782601 33.826086956521635) rotate(63.943248364688976 -6.95652173913038 -13.913043478260875)"><path d="M0 0 C-4.21 -7.84, -8.64 -17.04, -13.91 -27.83 M0 0 C-3.66 -8.61, -8.61 -16.74, -13.91 -27.83" stroke="#000000" stroke-width="1" fill="none"></path></g></g><mask></mask><g stroke-linecap="round" transform="translate(40.3478260869565 46.869565217391255) rotate(0 5.652173913043498 5.652173913043498)"><path d="M5.26 0.33 C6.28 0.08, 7.17 0.65, 8.19 1.21 C9.22 1.77, 10.95 2.68, 11.41 3.7 C11.87 4.73, 11.47 6.24, 10.93 7.37 C10.38 8.5, 9.19 9.87, 8.15 10.49 C7.11 11.11, 5.78 11.37, 4.69 11.09 C3.59 10.81, 2.31 9.79, 1.58 8.8 C0.84 7.8, 0.25 6.22, 0.29 5.12 C0.32 4.02, 0.95 3.03, 1.79 2.21 C2.63 1.4, 4.76 0.57, 5.3 0.23 C5.85 -0.12, 5.14 0.1, 5.04 0.16 M6.65 -0.44 C7.76 -0.41, 8.52 1.35, 9.29 2.28 C10.07 3.2, 11.07 3.87, 11.31 5.12 C11.54 6.38, 11.33 8.76, 10.7 9.78 C10.08 10.8, 8.91 11.14, 7.55 11.25 C6.19 11.35, 3.63 10.92, 2.54 10.4 C1.45 9.89, 1.37 9.29, 1.02 8.16 C0.68 7.02, 0.28 4.86, 0.47 3.59 C0.67 2.31, 1.1 1.05, 2.2 0.52 C3.29 -0.01, 6.28 0.54, 7.05 0.42 C7.81 0.3, 6.88 -0.24, 6.76 -0.2" stroke="none" stroke-width="0" fill="white"></path><path d="M4.69 -0.43 C5.87 -0.7, 7.53 0.2, 8.6 0.91 C9.66 1.62, 10.73 2.71, 11.11 3.83 C11.48 4.95, 11.35 6.59, 10.86 7.65 C10.36 8.71, 9.17 9.66, 8.13 10.19 C7.1 10.71, 5.87 10.97, 4.64 10.8 C3.42 10.63, 1.63 10.03, 0.78 9.17 C-0.06 8.31, -0.59 6.85, -0.42 5.63 C-0.25 4.42, 0.95 2.77, 1.8 1.9 C2.66 1.03, 4.21 0.71, 4.72 0.4 C5.23 0.09, 4.72 0.07, 4.88 0.05 M4.1 0.4 C5.34 0.2, 7.99 0.77, 9.1 1.24 C10.2 1.7, 10.53 2.26, 10.74 3.2 C10.95 4.15, 10.84 5.64, 10.37 6.9 C9.91 8.17, 8.78 9.99, 7.93 10.78 C7.09 11.57, 6.37 11.85, 5.28 11.66 C4.2 11.46, 2.4 10.5, 1.44 9.63 C0.49 8.76, -0.53 7.75, -0.45 6.45 C-0.38 5.16, 1.16 2.93, 1.88 1.84 C2.6 0.75, 3.46 0.2, 3.87 -0.09 C4.28 -0.38, 4.27 0.01, 4.31 0.09" stroke="#000000" stroke-width="1" fill="none"></path></g></svg>