<svg version="1.1" xmlns="http://www.w3.org/2000/svg" viewBox="0 0 400.5807291666664 336.2764785537893" width="400.5807291666664" height="336.2764785537893">
  <!-- svg-source:excalidraw -->
  
  <defs>
    
    
  </defs>
  <g stroke-linecap="round" transform="translate(22.44210031877458 6) rotate(0 171.01362902868868 74.05346736041497)"><path d="M171.04 -0.98 L341.79 75.49 L172.68 148.26 L1.11 73.01" stroke="none" stroke-width="0" fill="#c13b3c" fill-rule="evenodd"></path><path d="M172 0 C235.56 25.47, 296.1 54.15, 342.03 75 M172 0 C238.19 28.59, 303.52 57, 342.03 75 M342.03 75 C302.84 89.95, 263.78 107.95, 172 148.11 M342.03 75 C278.15 102.32, 215.09 128.66, 172 148.11 M172 148.11 C105.51 120.58, 42.11 93.32, 0 75 M172 148.11 C112.73 122.12, 53.45 97.9, 0 75 M0 75 C42.87 57.43, 87.88 38.45, 172 0 M0 75 C36.39 56.27, 75.08 41.28, 172 0" stroke="#c13b3c" stroke-width="2" fill="none"></path></g><g stroke-linecap="round" transform="translate(26.131402300025343 139.5669248150025) rotate(0 171.01362902868868 74.05346736041497)"><path d="M171.02 -0.24 L342.52 75.68 L172.15 149.22 L-1.99 75.93" stroke="none" stroke-width="0" fill="#c13b3c" fill-rule="evenodd"></path><path d="M172 0 C218.69 20.39, 268.7 43.11, 342.03 75 M172 0 C220.62 20.49, 268.33 40.76, 342.03 75 M342.03 75 C306.31 87.75, 273.46 105.78, 172 148.11 M342.03 75 C282.26 101.48, 220.91 127.2, 172 148.11 M172 148.11 C114.63 122.1, 58.29 99.47, 0 75 M172 148.11 C126.46 128.23, 82.72 109.14, 0 75 M0 75 C56.58 51.34, 112.36 26.09, 172 0 M0 75 C52.48 53.41, 107.75 28.99, 172 0" stroke="#c13b3c" stroke-width="2" fill="none"></path></g><g stroke-linecap="round" transform="translate(23.457757790550886 70.40164090386725) rotate(0 171.01362902868874 74.05346736041497)"><path d="M171.76 0.49 L342.7 75.15 L173.11 146.12 L0.93 73.61" stroke="none" stroke-width="0" fill="#c13b3c" fill-rule="evenodd"></path><path d="M172 0 C223.24 23.2, 274.6 45.5, 342.03 75 M172 0 C228.78 24.08, 283.82 48.28, 342.03 75 M342.03 75 C292.33 95.31, 247.66 116.33, 172 148.11 M342.03 75 C302.6 93.3, 262.26 111.27, 172 148.11 M172 148.11 C115.27 123.02, 59.84 98.47, 0 75 M172 148.11 C120.02 124.77, 68.05 102.81, 0 75 M0 75 C40.77 57.62, 80.56 39.05, 172 0 M0 75 C69.5 47.02, 137.02 16.13, 172 0" stroke="#c13b3c" stroke-width="2" fill="none"></path></g><g stroke-linecap="round"><g transform="translate(276.0694486472845 62.32500464159011) rotate(0 -22.266087606655958 18.73440951695102)" fill-rule="evenodd"><path d="M-44.74 19.41 C-44.74 19.41, -44.74 19.41, -44.74 19.41 M-44.74 19.41 C-44.74 19.41, -44.74 19.41, -44.74 19.41 M-36.73 22.4 C-33.82 18.79, -30.65 15.11, -27.55 11.83 M-36.73 22.4 C-33.8 19.36, -31.29 16.32, -27.55 11.83 M-28.72 25.38 C-24.39 20.33, -20.37 15.48, -10.35 4.25 M-28.72 25.38 C-22.17 17.85, -15.82 10.55, -10.35 4.25 M-21.37 29.12 C-15.88 23.08, -8.61 14.93, 0.93 3.46 M-21.37 29.12 C-15.96 22.46, -10.16 16.47, 0.93 3.46 M-13.37 32.1 C-10.66 27.95, -7.06 23.73, 0.41 16.26 M-13.37 32.1 C-9.17 27.56, -6.28 23.48, 0.41 16.26 M-5.36 35.09 C-3.44 32.78, -1.2 30.02, 0.54 28.3 M-5.36 35.09 C-4.34 33.7, -2.8 32.13, 0.54 28.3 M-44.51 19.2 C-44.51 19.2, -44.51 19.2, -44.51 19.2 M-44.51 19.2 C-44.51 19.2, -44.51 19.2, -44.51 19.2 M-21.15 28.9 C-25.62 25.08, -31.76 20, -36.24 15.78 M-21.15 28.9 C-26.31 24.16, -31.69 19.48, -36.24 15.78 M0.7 37.3 C-6.86 31.36, -12.69 24.72, -27.98 12.37 M0.7 37.3 C-6.91 30.01, -14.65 23.7, -27.98 12.37 M0.67 26.67 C-5.53 20.99, -13.88 14.16, -19.71 8.96 M0.67 26.67 C-5.01 21.57, -10.28 17.68, -19.71 8.96 M0.63 16.04 C-3.62 11.8, -9.05 6.62, -12.2 4.89 M0.63 16.04 C-3.11 13.23, -6.41 9.57, -12.2 4.89 M0.6 5.41 C-1.1 3.98, -2.76 2.27, -3.93 1.47 M0.6 5.41 C-1.18 3.79, -2.74 2.34, -3.93 1.47" stroke="#9a2e20" stroke-width="1" fill="none"></path><path d="M0 0 C-0.44 15.47, -0.34 29.5, 0 37.47 M0 0 C-0.2 13.19, -0.46 27.06, 0 37.47 M0 37.47 C-11.81 33.06, -23.76 26.65, -44.53 19.18 M0 37.47 C-12.93 32.85, -25.24 27.42, -44.53 19.18 M-44.53 19.18 C-35.13 15.56, -25.76 11.01, 0 0 M-44.53 19.18 C-32.41 13.89, -20.4 8.63, 0 0 M0 0 C0 0, 0 0, 0 0 M0 0 C0 0, 0 0, 0 0" stroke="#9a2e20" stroke-width="2" fill="none"></path></g></g><mask></mask><g stroke-linecap="round"><g transform="translate(275.99355514432295 64.48644845890658) rotate(0 21.186908870460115 17.50991649954767)" fill-rule="evenodd"><path d="M0 0 C0 0, 0 0, 0 0 M0 0 C0 0, 0 0, 0 0 M0.13 12.04 C1.55 10.31, 2.92 8.24, 8.01 2.98 M0.13 12.04 C1.96 10.06, 3.78 7.4, 8.01 2.98 M0.27 24.08 C4.79 18.64, 9.52 13.3, 15.36 6.72 M0.27 24.08 C5.81 17.75, 11.59 10.34, 15.36 6.72 M2.37 33.86 C9.97 26.94, 15.46 17.94, 23.36 9.71 M2.37 33.86 C9.98 25.04, 18.27 15.22, 23.36 9.71 M18.25 27.79 C21.65 23.19, 24.98 18.93, 31.37 12.69 M18.25 27.79 C22.02 22.7, 26.25 18.82, 31.37 12.69 M34.78 20.96 C36.28 19.34, 37.47 17.27, 38.72 16.43 M34.78 20.96 C35.97 19.71, 37.05 18.21, 38.72 16.43 M0.02 35.04 C0.02 35.04, 0.02 35.04, 0.02 35.04 M0.02 35.04 C0.02 35.04, 0.02 35.04, 0.02 35.04 M8.29 31.62 C6.18 29.21, 3.37 27.78, -0.02 24.41 M8.29 31.62 C6.43 30.15, 4.6 28.29, -0.02 24.41 M16.55 28.21 C9.94 23.02, 2.7 16.35, -0.05 13.78 M16.55 28.21 C10.12 23.37, 4.63 18.08, -0.05 13.78 M24.82 24.8 C19.62 19.31, 13.45 15.3, -0.08 3.15 M24.82 24.8 C18.84 19.37, 13.87 15.23, -0.08 3.15 M33.09 21.38 C27.91 17.25, 21.61 11.89, 14.98 5.64 M33.09 21.38 C28.37 16.87, 22.61 13.02, 14.98 5.64 M41.36 17.97 C40.47 17.24, 39.38 16.46, 38.34 15.34 M41.36 17.97 C40.15 17.1, 39.08 16.12, 38.34 15.34" stroke="#571f1e" stroke-width="1" fill="none"></path><path d="M0 0 C0.9 7.01, 0.34 14.96, 0 35.02 M0 0 C-0.34 10.44, -0.05 21.72, 0 35.02 M0 35.02 C11.32 31.22, 20.39 26.26, 42.37 17.76 M0 35.02 C16.52 28.64, 32.52 21.46, 42.37 17.76 M42.37 17.76 C31.41 12.53, 19.54 7.82, 0 0 M42.37 17.76 C32.99 14.05, 23.69 9.76, 0 0 M0 0 C0 0, 0 0, 0 0 M0 0 C0 0, 0 0, 0 0" stroke="#571f1e" stroke-width="2" fill="none"></path></g></g><mask></mask><g stroke-linecap="round"><g transform="translate(177.58798990877995 37.04613858195307) rotate(0 20.539531065883693 15.70538981255936)" fill-rule="evenodd"><path d="M-0.43 1.03 L7.15 8.56 L-13.57 18.59 L9.16 19.53 L19.82 34.07 L27.92 19.21 L53.08 19.31 L30.31 9.4 L37.87 -1.62 L17.83 4.36 L1.17 -0.37" stroke="none" stroke-width="0" fill="#ffff" fill-rule="evenodd"></path><path d="M0 0 C1.76 3.47, 4.63 6.44, 6.09 9.83 M0 0 C1.38 3.14, 3.77 6.14, 6.09 9.83 M6.09 9.83 C2.99 10.37, -2.59 14.95, -13.16 17.44 M6.09 9.83 C-1.15 13.25, -9.79 15.61, -13.16 17.44 M-13.16 17.44 C-7.41 18.03, -0.68 16.99, 10.73 19.84 M-13.16 17.44 C-6.57 17.56, -1.07 19.16, 10.73 19.84 M10.73 19.84 C13.3 25.45, 13.86 26.49, 19.07 34.26 M10.73 19.84 C13.25 24.7, 16.7 30, 19.07 34.26 M19.07 34.26 C22.26 28.57, 23.47 23.57, 27.15 19.35 M19.07 34.26 C20.64 30.86, 22.65 27.25, 27.15 19.35 M27.15 19.35 C35.5 17.45, 42.74 17.06, 54.24 17.32 M27.15 19.35 C35.38 18.31, 41.23 18.53, 54.24 17.32 M54.24 17.32 C48.29 14.48, 42.52 15.49, 29.71 10.4 M54.24 17.32 C46.12 13.86, 35.77 12.27, 29.71 10.4 M29.71 10.4 C32.61 6.9, 32.29 6.06, 37.78 -2.85 M29.71 10.4 C33.05 5.87, 34.84 1.13, 37.78 -2.85 M37.78 -2.85 C32.01 -2.41, 27.04 1.34, 18.96 4.93 M37.78 -2.85 C31.33 -0.49, 27.1 2.44, 18.96 4.93 M18.96 4.93 C12.86 1.62, 3.8 1.69, 0 0 M18.96 4.93 C13.33 2.23, 6.09 0.61, 0 0 M0 0 C0 0, 0 0, 0 0 M0 0 C0 0, 0 0, 0 0" stroke="#ffff" stroke-width="2" fill="none"></path></g></g><mask></mask><g stroke-linecap="round" transform="translate(82.21836331536156 70.90936993410651) rotate(0 36.06081888854993 11.252323436494635)"><path d="M30.66 0.04 C37.99 -0.34, 48.24 0.2, 54.88 1.32 C61.53 2.44, 68.1 4.44, 70.53 6.77 C72.97 9.1, 72.46 12.86, 69.5 15.29 C66.55 17.72, 59.72 20.21, 52.81 21.34 C45.89 22.47, 35.61 22.62, 28 22.05 C20.39 21.49, 11.64 19.86, 7.14 17.96 C2.64 16.05, 0.51 13.07, 0.99 10.61 C1.46 8.15, 4.68 4.93, 9.98 3.2 C15.29 1.47, 28.5 0.7, 32.8 0.24 C37.1 -0.21, 35.67 0.29, 35.78 0.47 M28.34 1.52 C35.11 0.84, 44.43 1.83, 51.01 2.62 C57.59 3.4, 64.5 4.49, 67.84 6.22 C71.18 7.94, 73.08 10.37, 71.03 12.96 C68.97 15.55, 61.76 20.28, 55.49 21.75 C49.23 23.22, 41.13 22.04, 33.44 21.79 C25.75 21.54, 14.77 21.88, 9.33 20.27 C3.89 18.66, 1.36 14.57, 0.8 12.14 C0.24 9.71, 1.54 7.82, 5.96 5.7 C10.39 3.59, 23.82 0.37, 27.37 -0.56 C30.92 -1.5, 27.29 -0.13, 27.27 0.11" stroke="none" stroke-width="0" fill="#ffffff"></path><path d="M46.68 -0.23 C53.62 0.27, 61.49 3, 65.63 5.08 C69.77 7.16, 72.55 9.79, 71.52 12.26 C70.48 14.74, 64.99 18.12, 59.43 19.91 C53.88 21.71, 45.87 23.02, 38.18 23.03 C30.49 23.04, 19.38 21.4, 13.29 19.98 C7.2 18.56, 3.22 16.72, 1.64 14.51 C0.05 12.31, 0.27 8.98, 3.79 6.75 C7.31 4.52, 14.79 2.1, 22.76 1.13 C30.73 0.16, 45.94 0.76, 51.59 0.93 C57.24 1.1, 56.72 2, 56.67 2.15 M35.84 0.21 C43.16 0.35, 53.02 1.65, 58.82 3.03 C64.63 4.4, 69.22 6.19, 70.69 8.44 C72.16 10.69, 71.29 14.5, 67.65 16.53 C64.02 18.56, 56.22 19.49, 48.89 20.62 C41.56 21.74, 31.25 24.09, 23.66 23.26 C16.07 22.44, 7.1 17.88, 3.36 15.68 C-0.38 13.48, -0.29 12.36, 1.22 10.06 C2.72 7.75, 6.55 3.45, 12.38 1.84 C18.21 0.22, 32.09 0.62, 36.17 0.37 C40.25 0.12, 36.69 0.46, 36.85 0.34" stroke="#ffff" stroke-width="2" fill="none"></path></g><g stroke-linecap="round"><g transform="translate(275.9387963206526 62.88126324064797) rotate(0 -22.266087606655958 18.73440951695102)" fill-rule="evenodd"><path d="M-0.99 0.47 L-0.7 37.18 L-45.47 18.26 L-0.24 -0.08" stroke="none" stroke-width="0" fill="#9a2e20" fill-rule="evenodd"></path><path d="M0 0 C0.59 14.6, 0.23 28.51, 0 37.47 M0 0 C-0.31 8.1, -0.59 16.88, 0 37.47 M0 37.47 C-17 31.26, -32.74 23.14, -44.53 19.18 M0 37.47 C-17.17 30.52, -33.6 23.7, -44.53 19.18 M-44.53 19.18 C-29.46 11.74, -14.15 6.1, 0 0 M-44.53 19.18 C-33.4 14.55, -21.75 9.69, 0 0 M0 0 C0 0, 0 0, 0 0 M0 0 C0 0, 0 0, 0 0" stroke="#9a2e20" stroke-width="2" fill="none"></path></g></g><mask></mask><g stroke-linecap="round"><g transform="translate(275.78164820088375 65.1596273171076) rotate(0 21.186908870460115 17.50991649954767)" fill-rule="evenodd"><path d="M0.47 -0.7 L-0.29 34.08 L41.45 17.52 L-0.08 -0.17" stroke="none" stroke-width="0" fill="#571f1e" fill-rule="evenodd"></path><path d="M0 0 C0.17 10.2, -0.39 19.12, 0 35.02 M0 0 C-0.3 6.7, 0.13 14.61, 0 35.02 M0 35.02 C15.87 29.85, 29.64 23.6, 42.37 17.76 M0 35.02 C13.75 29.4, 27.73 24.08, 42.37 17.76 M42.37 17.76 C30.53 12.74, 20.48 8.04, 0 0 M42.37 17.76 C28.94 11.76, 15.37 5.77, 0 0 M0 0 C0 0, 0 0, 0 0 M0 0 C0 0, 0 0, 0 0" stroke="#571f1e" stroke-width="2" fill="none"></path></g></g><mask></mask><g stroke-linecap="round"><g transform="translate(201.5660080303253 135.79555490185658) rotate(0 -11.199247219177721 -14.328570199563046)" fill-rule="evenodd"><path d="M-1.39 -0.57 L-48.17 -20.57 L23.39 -28.81 L-0.35 -0.74" stroke="none" stroke-width="0" fill="#ffffff" fill-rule="evenodd"></path><path d="M0 0 C-14.87 -7.01, -32.17 -14.23, -46.28 -18.73 M0 0 C-13.8 -5.2, -25.23 -10.25, -46.28 -18.73 M-46.28 -18.73 C-27.88 -22.44, -11.57 -23.43, 23.88 -28.66 M-46.28 -18.73 C-23.27 -22, 0.62 -25.48, 23.88 -28.66 M23.88 -28.66 C15.92 -19.93, 8.54 -11.12, 0 0 M23.88 -28.66 C17.74 -21.26, 11.53 -14.82, 0 0 M0 0 C0 0, 0 0, 0 0 M0 0 C0 0, 0 0, 0 0" stroke="#ffffff" stroke-width="2" fill="none"></path></g></g><mask></mask><g stroke-linecap="round"><g transform="translate(23.098995172442983 85.43081737882676) rotate(0 171.31724991311313 57.49874439817063)" fill-rule="evenodd"><path d="M-1.08 1.59 L2.52 41.1 L171.08 116.78 L342.19 40.51 L342.36 -0.97 L169.52 71.63 L-0.64 -1.59" stroke="none" stroke-width="0" fill="#922b1c" fill-rule="evenodd"></path><path d="M0 0 C-0.27 13.31, -0.75 29.32, 1.57 40.98 M0 0 C0.53 11.99, 1.18 21.78, 1.57 40.98 M1.57 40.98 C49.92 62.1, 99.8 82.34, 172.29 115.37 M1.57 40.98 C37.84 57.85, 74.34 73.42, 172.29 115.37 M172.29 115.37 C218.82 95.3, 264.64 75.1, 342.11 41.71 M172.29 115.37 C212.74 97.6, 252.57 81.97, 342.11 41.71 M342.11 41.71 C343.66 31.85, 341.66 23.69, 342.63 -0.37 M342.11 41.71 C342.69 27.06, 342.77 13.7, 342.63 -0.37 M342.63 -0.37 C294.82 17.63, 248.32 36.78, 170.74 72.37 M342.63 -0.37 C286.47 22.66, 231.46 45.68, 170.74 72.37 M170.74 72.37 C125.5 51.18, 77.6 30.48, 0 0 M170.74 72.37 C132.64 55.05, 94.36 38.74, 0 0 M0 0 C0 0, 0 0, 0 0 M0 0 C0 0, 0 0, 0 0" stroke="#922b1c" stroke-width="2" fill="none"></path></g></g><mask></mask><g stroke-linecap="round"><g transform="translate(24.14481934989692 149.62429964999592) rotate(0 171.31724991311307 57.49874439817063)" fill-rule="evenodd"><path d="M1.59 0.95 L1.69 39.78 L173.7 115.46 L340.91 41.44 L342.04 -1.59 L170 71.73 L-1.59 -0.52" stroke="none" stroke-width="0" fill="#922b1c" fill-rule="evenodd"></path><path d="M0 0 C-0.94 10.86, 0.71 25.05, 1.57 40.98 M0 0 C0.82 10.66, -0.19 20.1, 1.57 40.98 M1.57 40.98 C69.11 70.71, 133.58 96.92, 172.29 115.37 M1.57 40.98 C47.9 61, 93.54 81.17, 172.29 115.37 M172.29 115.37 C208.56 99.59, 245.03 81.88, 342.11 41.71 M172.29 115.37 C228.38 90.05, 286.89 64.43, 342.11 41.71 M342.11 41.71 C341.09 31.26, 341.94 23.26, 342.63 -0.37 M342.11 41.71 C341.26 28.13, 341.73 13.32, 342.63 -0.37 M342.63 -0.37 C306.43 13.83, 270.45 29.59, 170.74 72.37 M342.63 -0.37 C307.35 14.35, 272.01 28.75, 170.74 72.37 M170.74 72.37 C129.13 58.18, 87.38 37.56, 0 0 M170.74 72.37 C115.8 49.68, 60.77 26.66, 0 0 M0 0 C0 0, 0 0, 0 0 M0 0 C0 0, 0 0, 0 0" stroke="#922b1c" stroke-width="2" fill="none"></path></g></g><mask></mask><g stroke-linecap="round"><g transform="translate(27.299738863509106 216.89249917596953) rotate(0 171.31724991311307 56.50519782104789)" fill-rule="evenodd"><path d="M0.95 0.12 L0.37 37.7 L172.59 112.18 L341.53 39.59 L341.42 -1.11 L170.1 70.78 L-0.52 0.05" stroke="none" stroke-width="0" fill="#922b1c" fill-rule="evenodd"></path><path d="M0 0 C-1.59 11.46, 0.33 22.59, 1.57 36.29 M0 0 C0.99 7.26, 0.64 16.63, 1.57 36.29 M1.57 36.29 C68.44 65.64, 132.76 94.47, 172.5 113.38 M1.57 36.29 C47.92 56.7, 94.91 77.01, 172.5 113.38 M172.5 113.38 C217.92 93.37, 261.28 75.8, 341.8 40.18 M172.5 113.38 C218.22 95.89, 263.15 74.29, 341.8 40.18 M341.8 40.18 C340.87 26.12, 342.63 13.2, 342.63 -0.37 M341.8 40.18 C342.3 27.02, 341.8 14.29, 342.63 -0.37 M342.63 -0.37 C306.39 13.87, 271.45 27.8, 170.74 72.37 M342.63 -0.37 C291.91 19.91, 240.74 41.5, 170.74 72.37 M170.74 72.37 C124.81 50.91, 74.82 32.6, 0 0 M170.74 72.37 C127.17 52.8, 83.88 35.73, 0 0 M0 0 C0 0, 0 0, 0 0 M0 0 C0 0, 0 0, 0 0" stroke="#922b1c" stroke-width="2" fill="none"></path></g></g><mask></mask><g stroke-linecap="round" transform="translate(6 239.87219349921315) rotate(0 194.2903645833332 41.863690699442486)"><path d="M-1.2 0.78 L384.89 -2.03 L391.72 86.71 L-1.74 81.56" stroke="none" stroke-width="0" fill="#465282"></path><path d="M-0.43 -0.62 C98.09 2.49, 199.4 6.22, 389.84 -1.49 M-0.46 0.88 C110.77 -3.72, 219.88 -4.43, 388.28 -0.24 M387.33 -3.32 C386.56 29.4, 386.21 58.58, 386.09 81.2 M386.93 0.27 C390.06 26.19, 386.6 56.74, 389.71 82.76 M389.37 83.91 C292.42 82.51, 194.75 83.21, -0.67 81.52 M388.38 83.29 C308.08 82.25, 227.02 83.22, -0.36 83.93 M-1.03 87.6 C-0.8 67.65, -1.86 42.03, 0.86 -1.8 M-0.98 84.53 C2.41 57.92, 2.19 28.24, 1.98 -1.53" stroke="#ffffff" stroke-width="4" fill="none"></path></g><g transform="translate(25.566518595981734 242.0524848818941) rotate(0 172.85682336666144 35.60998936308897)"><text x="0" y="0" font-family="Cascadia, Segoe UI Emoji" font-size="59.04253016979389px" fill="#ffffff" text-anchor="start" style="white-space: pre;" direction="ltr" dominant-baseline="text-before-edge">Enterprise</text></g></svg>