<svg xmlns="http://www.w3.org/2000/svg" viewBox="640.64 5433.76 524.46 373.43" width="524" height="373"><rect x="646.64" y="5764.44" width="408.76" height="24.67" rx="0" stroke="#000000" stroke-width="1" opacity="1.0" fill="#fff"/><polyline points="658.36,5784.77 658.36,5768.63" fill="#fff" stroke="#000000" stroke-width="1" opacity="1.0" stroke-linecap="round" stroke-linejoin="round"/><polyline points="669.98,5785.05 669.98,5768.91" fill="#fff" stroke="#000000" stroke-width="1" opacity="1.0" stroke-linecap="round" stroke-linejoin="round"/><polyline points="681.60,5784.91 681.60,5768.77" fill="#fff" stroke="#000000" stroke-width="1" opacity="1.0" stroke-linecap="round" stroke-linejoin="round"/><polyline points="693.22,5784.91 693.22,5768.77" fill="#fff" stroke="#000000" stroke-width="1" opacity="1.0" stroke-linecap="round" stroke-linejoin="round"/><polyline points="704.85,5784.91 704.85,5768.77" fill="#fff" stroke="#000000" stroke-width="1" opacity="1.0" stroke-linecap="round" stroke-linejoin="round"/><polyline points="716.60,5784.91 716.60,5768.77" fill="#fff" stroke="#000000" stroke-width="1" opacity="1.0" stroke-linecap="round" stroke-linejoin="round"/><polyline points="728.23,5784.64 728.23,5768.50" fill="#fff" stroke="#000000" stroke-width="1" opacity="1.0" stroke-linecap="round" stroke-linejoin="round"/><polyline points="739.85,5784.91 739.85,5768.77" fill="#fff" stroke="#000000" stroke-width="1" opacity="1.0" stroke-linecap="round" stroke-linejoin="round"/><polyline points="751.47,5784.91 751.47,5768.77" fill="#fff" stroke="#000000" stroke-width="1" opacity="1.0" stroke-linecap="round" stroke-linejoin="round"/><polyline points="763.09,5784.91 763.09,5768.77" fill="#fff" stroke="#000000" stroke-width="1" opacity="1.0" stroke-linecap="round" stroke-linejoin="round"/><polyline points="774.85,5784.91 774.85,5768.77" fill="#fff" stroke="#000000" stroke-width="1" opacity="1.0" stroke-linecap="round" stroke-linejoin="round"/><polyline points="786.51,5785.05 786.51,5768.91" fill="#fff" stroke="#000000" stroke-width="1" opacity="1.0" stroke-linecap="round" stroke-linejoin="round"/><polyline points="798.13,5784.91 798.13,5768.77" fill="#fff" stroke="#000000" stroke-width="1" opacity="1.0" stroke-linecap="round" stroke-linejoin="round"/><polyline points="809.75,5784.91 809.75,5768.77" fill="#fff" stroke="#000000" stroke-width="1" opacity="1.0" stroke-linecap="round" stroke-linejoin="round"/><polyline points="821.37,5784.91 821.37,5768.77" fill="#fff" stroke="#000000" stroke-width="1" opacity="1.0" stroke-linecap="round" stroke-linejoin="round"/><polyline points="833.13,5784.91 833.13,5768.77" fill="#fff" stroke="#000000" stroke-width="1" opacity="1.0" stroke-linecap="round" stroke-linejoin="round"/><polyline points="844.75,5784.64 844.75,5768.50" fill="#fff" stroke="#000000" stroke-width="1" opacity="1.0" stroke-linecap="round" stroke-linejoin="round"/><polyline points="856.37,5784.91 856.37,5768.77" fill="#fff" stroke="#000000" stroke-width="1" opacity="1.0" stroke-linecap="round" stroke-linejoin="round"/><polyline points="867.99,5784.91 867.99,5768.77" fill="#fff" stroke="#000000" stroke-width="1" opacity="1.0" stroke-linecap="round" stroke-linejoin="round"/><polyline points="879.61,5784.91 879.61,5768.77" fill="#fff" stroke="#000000" stroke-width="1" opacity="1.0" stroke-linecap="round" stroke-linejoin="round"/><polyline points="891.37,5784.91 891.37,5768.77" fill="#fff" stroke="#000000" stroke-width="1" opacity="1.0" stroke-linecap="round" stroke-linejoin="round"/><polyline points="902.95,5784.91 902.95,5768.77" fill="#fff" stroke="#000000" stroke-width="1" opacity="1.0" stroke-linecap="round" stroke-linejoin="round"/><polyline points="914.58,5784.91 914.58,5768.77" fill="#fff" stroke="#000000" stroke-width="1" opacity="1.0" stroke-linecap="round" stroke-linejoin="round"/><polyline points="926.33,5784.91 926.33,5768.77" fill="#fff" stroke="#000000" stroke-width="1" opacity="1.0" stroke-linecap="round" stroke-linejoin="round"/><polyline points="937.99,5785.05 937.99,5768.91" fill="#fff" stroke="#000000" stroke-width="1" opacity="1.0" stroke-linecap="round" stroke-linejoin="round"/><polyline points="949.61,5784.91 949.61,5768.77" fill="#fff" stroke="#000000" stroke-width="1" opacity="1.0" stroke-linecap="round" stroke-linejoin="round"/><polyline points="961.23,5784.91 961.23,5768.77" fill="#fff" stroke="#000000" stroke-width="1" opacity="1.0" stroke-linecap="round" stroke-linejoin="round"/><polyline points="972.86,5784.91 972.86,5768.77" fill="#fff" stroke="#000000" stroke-width="1" opacity="1.0" stroke-linecap="round" stroke-linejoin="round"/><polyline points="984.61,5784.91 984.61,5768.77" fill="#fff" stroke="#000000" stroke-width="1" opacity="1.0" stroke-linecap="round" stroke-linejoin="round"/><polyline points="996.23,5784.64 996.23,5768.50" fill="#fff" stroke="#000000" stroke-width="1" opacity="1.0" stroke-linecap="round" stroke-linejoin="round"/><polyline points="1007.86,5784.91 1007.86,5768.77" fill="#fff" stroke="#000000" stroke-width="1" opacity="1.0" stroke-linecap="round" stroke-linejoin="round"/><polyline points="1019.48,5784.91 1019.48,5768.77" fill="#fff" stroke="#000000" stroke-width="1" opacity="1.0" stroke-linecap="round" stroke-linejoin="round"/><polyline points="1031.10,5784.91 1031.10,5768.77" fill="#fff" stroke="#000000" stroke-width="1" opacity="1.0" stroke-linecap="round" stroke-linejoin="round"/><polyline points="1042.86,5784.91 1042.86,5768.77" fill="#fff" stroke="#000000" stroke-width="1" opacity="1.0" stroke-linecap="round" stroke-linejoin="round"/><rect x="700.86" y="5625.01" width="408.76" height="24.67" rx="0" stroke="#000000" stroke-width="1" opacity="1.0" fill="#fab005" transform="rotate(45.00 905.24 5637.35)"/><polyline points="769.06,5509.14 769.06,5493.00" fill="#fab005" stroke="#000000" stroke-width="1" opacity="1.0" stroke-linecap="round" stroke-linejoin="round" transform="rotate(45.00 769.06 5517.20)"/><polyline points="777.09,5517.55 777.09,5501.41" fill="#fab005" stroke="#000000" stroke-width="1" opacity="1.0" stroke-linecap="round" stroke-linejoin="round" transform="rotate(45.00 777.09 5525.62)"/><polyline points="785.40,5525.67 785.40,5509.53" fill="#fab005" stroke="#000000" stroke-width="1" opacity="1.0" stroke-linecap="round" stroke-linejoin="round" transform="rotate(45.00 785.40 5533.74)"/><polyline points="793.62,5533.89 793.62,5517.75" fill="#fab005" stroke="#000000" stroke-width="1" opacity="1.0" stroke-linecap="round" stroke-linejoin="round" transform="rotate(45.00 793.62 5541.95)"/><polyline points="801.83,5542.10 801.83,5525.97" fill="#fab005" stroke="#000000" stroke-width="1" opacity="1.0" stroke-linecap="round" stroke-linejoin="round" transform="rotate(45.00 801.83 5550.17)"/><polyline points="810.15,5550.42 810.15,5534.28" fill="#fab005" stroke="#000000" stroke-width="1" opacity="1.0" stroke-linecap="round" stroke-linejoin="round" transform="rotate(45.00 810.15 5558.49)"/><polyline points="818.56,5558.44 818.56,5542.30" fill="#fab005" stroke="#000000" stroke-width="1" opacity="1.0" stroke-linecap="round" stroke-linejoin="round" transform="rotate(45.00 818.56 5566.51)"/><polyline points="826.58,5566.85 826.58,5550.71" fill="#fab005" stroke="#000000" stroke-width="1" opacity="1.0" stroke-linecap="round" stroke-linejoin="round" transform="rotate(45.00 826.58 5574.92)"/><polyline points="834.80,5575.07 834.80,5558.93" fill="#fab005" stroke="#000000" stroke-width="1" opacity="1.0" stroke-linecap="round" stroke-linejoin="round" transform="rotate(45.00 834.80 5583.14)"/><polyline points="843.02,5583.29 843.02,5567.15" fill="#fab005" stroke="#000000" stroke-width="1" opacity="1.0" stroke-linecap="round" stroke-linejoin="round" transform="rotate(45.00 843.02 5591.36)"/><polyline points="851.33,5591.60 851.33,5575.46" fill="#fab005" stroke="#000000" stroke-width="1" opacity="1.0" stroke-linecap="round" stroke-linejoin="round" transform="rotate(45.00 851.33 5599.67)"/><polyline points="859.48,5599.94 859.48,5583.80" fill="#fab005" stroke="#000000" stroke-width="1" opacity="1.0" stroke-linecap="round" stroke-linejoin="round" transform="rotate(45.00 859.48 5608.01)"/><polyline points="867.79,5608.06 867.79,5591.92" fill="#fab005" stroke="#000000" stroke-width="1" opacity="1.0" stroke-linecap="round" stroke-linejoin="round" transform="rotate(45.00 867.79 5616.13)"/><polyline points="876.01,5616.28 876.01,5600.14" fill="#fab005" stroke="#000000" stroke-width="1" opacity="1.0" stroke-linecap="round" stroke-linejoin="round" transform="rotate(45.00 876.01 5624.35)"/><polyline points="884.23,5624.50 884.23,5608.36" fill="#fab005" stroke="#000000" stroke-width="1" opacity="1.0" stroke-linecap="round" stroke-linejoin="round" transform="rotate(45.00 884.23 5632.57)"/><polyline points="892.54,5632.81 892.54,5616.67" fill="#fab005" stroke="#000000" stroke-width="1" opacity="1.0" stroke-linecap="round" stroke-linejoin="round" transform="rotate(45.00 892.54 5640.88)"/><polyline points="900.96,5640.84 900.96,5624.70" fill="#fab005" stroke="#000000" stroke-width="1" opacity="1.0" stroke-linecap="round" stroke-linejoin="round" transform="rotate(45.00 900.96 5648.91)"/><polyline points="908.98,5649.25 908.98,5633.11" fill="#fab005" stroke="#000000" stroke-width="1" opacity="1.0" stroke-linecap="round" stroke-linejoin="round" transform="rotate(45.00 908.98 5657.32)"/><polyline points="917.20,5657.47 917.20,5641.33" fill="#fab005" stroke="#000000" stroke-width="1" opacity="1.0" stroke-linecap="round" stroke-linejoin="round" transform="rotate(45.00 917.20 5665.53)"/><polyline points="925.41,5665.68 925.41,5649.55" fill="#fab005" stroke="#000000" stroke-width="1" opacity="1.0" stroke-linecap="round" stroke-linejoin="round" transform="rotate(45.00 925.41 5673.75)"/><polyline points="933.73,5674.00 933.73,5657.86" fill="#fab005" stroke="#000000" stroke-width="1" opacity="1.0" stroke-linecap="round" stroke-linejoin="round" transform="rotate(45.00 933.73 5682.07)"/><polyline points="941.92,5682.19 941.92,5666.05" fill="#fab005" stroke="#000000" stroke-width="1" opacity="1.0" stroke-linecap="round" stroke-linejoin="round" transform="rotate(45.00 941.92 5690.26)"/><polyline points="950.14,5690.40 950.14,5674.27" fill="#fab005" stroke="#000000" stroke-width="1" opacity="1.0" stroke-linecap="round" stroke-linejoin="round" transform="rotate(45.00 950.14 5698.47)"/><polyline points="958.45,5698.72 958.45,5682.58" fill="#fab005" stroke="#000000" stroke-width="1" opacity="1.0" stroke-linecap="round" stroke-linejoin="round" transform="rotate(45.00 958.45 5706.79)"/><polyline points="966.60,5707.06 966.60,5690.92" fill="#fab005" stroke="#000000" stroke-width="1" opacity="1.0" stroke-linecap="round" stroke-linejoin="round" transform="rotate(45.00 966.60 5715.13)"/><polyline points="974.91,5715.18 974.91,5699.04" fill="#fab005" stroke="#000000" stroke-width="1" opacity="1.0" stroke-linecap="round" stroke-linejoin="round" transform="rotate(45.00 974.91 5723.25)"/><polyline points="983.13,5723.40 983.13,5707.26" fill="#fab005" stroke="#000000" stroke-width="1" opacity="1.0" stroke-linecap="round" stroke-linejoin="round" transform="rotate(45.00 983.13 5731.47)"/><polyline points="991.35,5731.61 991.35,5715.48" fill="#fab005" stroke="#000000" stroke-width="1" opacity="1.0" stroke-linecap="round" stroke-linejoin="round" transform="rotate(45.00 991.35 5739.68)"/><polyline points="999.66,5739.93 999.66,5723.79" fill="#fab005" stroke="#000000" stroke-width="1" opacity="1.0" stroke-linecap="round" stroke-linejoin="round" transform="rotate(45.00 999.66 5748.00)"/><polyline points="1008.07,5747.95 1008.07,5731.81" fill="#fab005" stroke="#000000" stroke-width="1" opacity="1.0" stroke-linecap="round" stroke-linejoin="round" transform="rotate(45.00 1008.07 5756.02)"/><polyline points="1016.10,5756.36 1016.10,5740.23" fill="#fab005" stroke="#000000" stroke-width="1" opacity="1.0" stroke-linecap="round" stroke-linejoin="round" transform="rotate(45.00 1016.10 5764.43)"/><polyline points="1024.31,5764.58 1024.31,5748.44" fill="#fab005" stroke="#000000" stroke-width="1" opacity="1.0" stroke-linecap="round" stroke-linejoin="round" transform="rotate(45.00 1024.31 5772.65)"/><polyline points="1032.53,5772.80 1032.53,5756.66" fill="#fab005" stroke="#000000" stroke-width="1" opacity="1.0" stroke-linecap="round" stroke-linejoin="round" transform="rotate(45.00 1032.53 5780.87)"/><polyline points="1040.85,5781.11 1040.85,5764.98" fill="#fab005" stroke="#000000" stroke-width="1" opacity="1.0" stroke-linecap="round" stroke-linejoin="round" transform="rotate(45.00 1040.85 5789.18)"/><rect x="731.84" y="5584.99" width="408.76" height="24.67" rx="0" stroke="#000000" stroke-width="1" opacity="1.0" fill="#fff" transform="rotate(30.00 936.22 5597.33)"/><polyline points="769.41,5509.00 769.41,5492.87" fill="#fff" stroke="#000000" stroke-width="1" opacity="1.0" stroke-linecap="round" stroke-linejoin="round" transform="rotate(30.00 769.41 5517.07)"/><polyline points="779.34,5515.05 779.34,5498.91" fill="#fff" stroke="#000000" stroke-width="1" opacity="1.0" stroke-linecap="round" stroke-linejoin="round" transform="rotate(30.00 779.34 5523.12)"/><polyline points="789.47,5520.74 789.47,5504.61" fill="#fff" stroke="#000000" stroke-width="1" opacity="1.0" stroke-linecap="round" stroke-linejoin="round" transform="rotate(30.00 789.47 5528.81)"/><polyline points="799.54,5526.55 799.54,5510.42" fill="#fff" stroke="#000000" stroke-width="1" opacity="1.0" stroke-linecap="round" stroke-linejoin="round" transform="rotate(30.00 799.54 5534.62)"/><polyline points="809.60,5532.37 809.60,5516.23" fill="#fff" stroke="#000000" stroke-width="1" opacity="1.0" stroke-linecap="round" stroke-linejoin="round" transform="rotate(30.00 809.60 5540.43)"/><polyline points="819.79,5538.24 819.79,5522.11" fill="#fff" stroke="#000000" stroke-width="1" opacity="1.0" stroke-linecap="round" stroke-linejoin="round" transform="rotate(30.00 819.79 5546.31)"/><polyline points="829.99,5543.82 829.99,5527.68" fill="#fff" stroke="#000000" stroke-width="1" opacity="1.0" stroke-linecap="round" stroke-linejoin="round" transform="rotate(30.00 829.99 5551.89)"/><polyline points="839.91,5549.87 839.91,5533.73" fill="#fff" stroke="#000000" stroke-width="1" opacity="1.0" stroke-linecap="round" stroke-linejoin="round" transform="rotate(30.00 839.91 5557.94)"/><polyline points="849.98,5555.68 849.98,5539.54" fill="#fff" stroke="#000000" stroke-width="1" opacity="1.0" stroke-linecap="round" stroke-linejoin="round" transform="rotate(30.00 849.98 5563.75)"/><polyline points="860.04,5561.49 860.04,5545.35" fill="#fff" stroke="#000000" stroke-width="1" opacity="1.0" stroke-linecap="round" stroke-linejoin="round" transform="rotate(30.00 860.04 5569.56)"/><polyline points="870.23,5567.37 870.23,5551.23" fill="#fff" stroke="#000000" stroke-width="1" opacity="1.0" stroke-linecap="round" stroke-linejoin="round" transform="rotate(30.00 870.23 5575.44)"/><polyline points="880.25,5573.31 880.25,5557.18" fill="#fff" stroke="#000000" stroke-width="1" opacity="1.0" stroke-linecap="round" stroke-linejoin="round" transform="rotate(30.00 880.25 5581.38)"/><polyline points="890.39,5579.01 890.39,5562.87" fill="#fff" stroke="#000000" stroke-width="1" opacity="1.0" stroke-linecap="round" stroke-linejoin="round" transform="rotate(30.00 890.39 5587.07)"/><polyline points="900.45,5584.82 900.45,5568.68" fill="#fff" stroke="#000000" stroke-width="1" opacity="1.0" stroke-linecap="round" stroke-linejoin="round" transform="rotate(30.00 900.45 5592.89)"/><polyline points="910.52,5590.63 910.52,5574.49" fill="#fff" stroke="#000000" stroke-width="1" opacity="1.0" stroke-linecap="round" stroke-linejoin="round" transform="rotate(30.00 910.52 5598.70)"/><polyline points="920.70,5596.51 920.70,5580.37" fill="#fff" stroke="#000000" stroke-width="1" opacity="1.0" stroke-linecap="round" stroke-linejoin="round" transform="rotate(30.00 920.70 5604.58)"/><polyline points="930.90,5602.08 930.90,5585.94" fill="#fff" stroke="#000000" stroke-width="1" opacity="1.0" stroke-linecap="round" stroke-linejoin="round" transform="rotate(30.00 930.90 5610.15)"/><polyline points="940.83,5608.13 940.83,5591.99" fill="#fff" stroke="#000000" stroke-width="1" opacity="1.0" stroke-linecap="round" stroke-linejoin="round" transform="rotate(30.00 940.83 5616.20)"/><polyline points="950.89,5613.94 950.89,5597.80" fill="#fff" stroke="#000000" stroke-width="1" opacity="1.0" stroke-linecap="round" stroke-linejoin="round" transform="rotate(30.00 950.89 5622.01)"/><polyline points="960.96,5619.75 960.96,5603.61" fill="#fff" stroke="#000000" stroke-width="1" opacity="1.0" stroke-linecap="round" stroke-linejoin="round" transform="rotate(30.00 960.96 5627.82)"/><polyline points="971.14,5625.63 971.14,5609.49" fill="#fff" stroke="#000000" stroke-width="1" opacity="1.0" stroke-linecap="round" stroke-linejoin="round" transform="rotate(30.00 971.14 5633.70)"/><polyline points="981.17,5631.42 981.17,5615.28" fill="#fff" stroke="#000000" stroke-width="1" opacity="1.0" stroke-linecap="round" stroke-linejoin="round" transform="rotate(30.00 981.17 5639.49)"/><polyline points="991.23,5637.23 991.23,5621.09" fill="#fff" stroke="#000000" stroke-width="1" opacity="1.0" stroke-linecap="round" stroke-linejoin="round" transform="rotate(30.00 991.23 5645.30)"/><polyline points="1001.42,5643.11 1001.42,5626.97" fill="#fff" stroke="#000000" stroke-width="1" opacity="1.0" stroke-linecap="round" stroke-linejoin="round" transform="rotate(30.00 1001.42 5651.18)"/><polyline points="1011.44,5649.06 1011.44,5632.92" fill="#fff" stroke="#000000" stroke-width="1" opacity="1.0" stroke-linecap="round" stroke-linejoin="round" transform="rotate(30.00 1011.44 5657.13)"/><polyline points="1021.58,5654.75 1021.58,5638.61" fill="#fff" stroke="#000000" stroke-width="1" opacity="1.0" stroke-linecap="round" stroke-linejoin="round" transform="rotate(30.00 1021.58 5662.82)"/><polyline points="1031.64,5660.56 1031.64,5644.42" fill="#fff" stroke="#000000" stroke-width="1" opacity="1.0" stroke-linecap="round" stroke-linejoin="round" transform="rotate(30.00 1031.64 5668.63)"/><polyline points="1041.71,5666.37 1041.71,5650.23" fill="#fff" stroke="#000000" stroke-width="1" opacity="1.0" stroke-linecap="round" stroke-linejoin="round" transform="rotate(30.00 1041.71 5674.44)"/><polyline points="1051.89,5672.25 1051.89,5656.11" fill="#fff" stroke="#000000" stroke-width="1" opacity="1.0" stroke-linecap="round" stroke-linejoin="round" transform="rotate(30.00 1051.89 5680.32)"/><polyline points="1062.09,5677.82 1062.09,5661.69" fill="#fff" stroke="#000000" stroke-width="1" opacity="1.0" stroke-linecap="round" stroke-linejoin="round" transform="rotate(30.00 1062.09 5685.89)"/><polyline points="1072.02,5683.87 1072.02,5667.73" fill="#fff" stroke="#000000" stroke-width="1" opacity="1.0" stroke-linecap="round" stroke-linejoin="round" transform="rotate(30.00 1072.02 5691.94)"/><polyline points="1082.08,5689.68 1082.08,5673.54" fill="#fff" stroke="#000000" stroke-width="1" opacity="1.0" stroke-linecap="round" stroke-linejoin="round" transform="rotate(30.00 1082.08 5697.75)"/><polyline points="1092.15,5695.49 1092.15,5679.35" fill="#fff" stroke="#000000" stroke-width="1" opacity="1.0" stroke-linecap="round" stroke-linejoin="round" transform="rotate(30.00 1092.15 5703.56)"/><polyline points="1102.33,5701.37 1102.33,5685.23" fill="#fff" stroke="#000000" stroke-width="1" opacity="1.0" stroke-linecap="round" stroke-linejoin="round" transform="rotate(30.00 1102.33 5709.44)"/><rect x="750.33" y="5558.07" width="408.76" height="24.67" rx="0" stroke="#000000" stroke-width="1" opacity="1.0" fill="#fab005" transform="rotate(39.49 954.71 5570.41)"/><polyline points="806.08,5455.89 806.08,5439.76" fill="#fab005" stroke="#000000" stroke-width="1" opacity="1.0" stroke-linecap="round" stroke-linejoin="round" transform="rotate(39.49 806.08 5463.96)"/><polyline points="814.88,5463.50 814.88,5447.36" fill="#fab005" stroke="#000000" stroke-width="1" opacity="1.0" stroke-linecap="round" stroke-linejoin="round" transform="rotate(39.49 814.88 5471.56)"/><polyline points="823.93,5470.78 823.93,5454.64" fill="#fab005" stroke="#000000" stroke-width="1" opacity="1.0" stroke-linecap="round" stroke-linejoin="round" transform="rotate(39.49 823.93 5478.85)"/><polyline points="832.90,5478.17 832.90,5462.03" fill="#fab005" stroke="#000000" stroke-width="1" opacity="1.0" stroke-linecap="round" stroke-linejoin="round" transform="rotate(39.49 832.90 5486.24)"/><polyline points="841.87,5485.56 841.87,5469.43" fill="#fab005" stroke="#000000" stroke-width="1" opacity="1.0" stroke-linecap="round" stroke-linejoin="round" transform="rotate(39.49 841.87 5493.63)"/><polyline points="850.94,5493.04 850.94,5476.90" fill="#fab005" stroke="#000000" stroke-width="1" opacity="1.0" stroke-linecap="round" stroke-linejoin="round" transform="rotate(39.49 850.94 5501.11)"/><polyline points="860.09,5500.22 860.09,5484.08" fill="#fab005" stroke="#000000" stroke-width="1" opacity="1.0" stroke-linecap="round" stroke-linejoin="round" transform="rotate(39.49 860.09 5508.29)"/><polyline points="868.88,5507.82 868.88,5491.69" fill="#fab005" stroke="#000000" stroke-width="1" opacity="1.0" stroke-linecap="round" stroke-linejoin="round" transform="rotate(39.49 868.88 5515.89)"/><polyline points="877.85,5515.22 877.85,5499.08" fill="#fab005" stroke="#000000" stroke-width="1" opacity="1.0" stroke-linecap="round" stroke-linejoin="round" transform="rotate(39.49 877.85 5523.28)"/><polyline points="886.82,5522.61 886.82,5506.47" fill="#fab005" stroke="#000000" stroke-width="1" opacity="1.0" stroke-linecap="round" stroke-linejoin="round" transform="rotate(39.49 886.82 5530.68)"/><polyline points="895.89,5530.08 895.89,5513.95" fill="#fab005" stroke="#000000" stroke-width="1" opacity="1.0" stroke-linecap="round" stroke-linejoin="round" transform="rotate(39.49 895.89 5538.15)"/><polyline points="904.80,5537.60 904.80,5521.47" fill="#fab005" stroke="#000000" stroke-width="1" opacity="1.0" stroke-linecap="round" stroke-linejoin="round" transform="rotate(39.49 904.80 5545.67)"/><polyline points="913.86,5544.89 913.86,5528.75" fill="#fab005" stroke="#000000" stroke-width="1" opacity="1.0" stroke-linecap="round" stroke-linejoin="round" transform="rotate(39.49 913.86 5552.96)"/><polyline points="922.82,5552.28 922.82,5536.14" fill="#fab005" stroke="#000000" stroke-width="1" opacity="1.0" stroke-linecap="round" stroke-linejoin="round" transform="rotate(39.49 922.82 5560.35)"/><polyline points="931.79,5559.67 931.79,5543.53" fill="#fab005" stroke="#000000" stroke-width="1" opacity="1.0" stroke-linecap="round" stroke-linejoin="round" transform="rotate(39.49 931.79 5567.74)"/><polyline points="940.87,5567.15 940.87,5551.01" fill="#fab005" stroke="#000000" stroke-width="1" opacity="1.0" stroke-linecap="round" stroke-linejoin="round" transform="rotate(39.49 940.87 5575.22)"/><polyline points="950.01,5574.33 950.01,5558.19" fill="#fab005" stroke="#000000" stroke-width="1" opacity="1.0" stroke-linecap="round" stroke-linejoin="round" transform="rotate(39.49 950.01 5582.40)"/><polyline points="958.80,5581.93 958.80,5565.79" fill="#fab005" stroke="#000000" stroke-width="1" opacity="1.0" stroke-linecap="round" stroke-linejoin="round" transform="rotate(39.49 958.80 5590.00)"/><polyline points="967.77,5589.32 967.77,5573.19" fill="#fab005" stroke="#000000" stroke-width="1" opacity="1.0" stroke-linecap="round" stroke-linejoin="round" transform="rotate(39.49 967.77 5597.39)"/><polyline points="976.74,5596.72 976.74,5580.58" fill="#fab005" stroke="#000000" stroke-width="1" opacity="1.0" stroke-linecap="round" stroke-linejoin="round" transform="rotate(39.49 976.74 5604.78)"/><polyline points="985.81,5604.19 985.81,5588.06" fill="#fab005" stroke="#000000" stroke-width="1" opacity="1.0" stroke-linecap="round" stroke-linejoin="round" transform="rotate(39.49 985.81 5612.26)"/><polyline points="994.75,5611.56 994.75,5595.42" fill="#fab005" stroke="#000000" stroke-width="1" opacity="1.0" stroke-linecap="round" stroke-linejoin="round" transform="rotate(39.49 994.75 5619.63)"/><polyline points="1003.72,5618.95 1003.72,5602.81" fill="#fab005" stroke="#000000" stroke-width="1" opacity="1.0" stroke-linecap="round" stroke-linejoin="round" transform="rotate(39.49 1003.72 5627.02)"/><polyline points="1012.79,5626.43 1012.79,5610.29" fill="#fab005" stroke="#000000" stroke-width="1" opacity="1.0" stroke-linecap="round" stroke-linejoin="round" transform="rotate(39.49 1012.79 5634.50)"/><polyline points="1021.70,5633.95 1021.70,5617.81" fill="#fab005" stroke="#000000" stroke-width="1" opacity="1.0" stroke-linecap="round" stroke-linejoin="round" transform="rotate(39.49 1021.70 5642.02)"/><polyline points="1030.76,5641.23 1030.76,5625.10" fill="#fab005" stroke="#000000" stroke-width="1" opacity="1.0" stroke-linecap="round" stroke-linejoin="round" transform="rotate(39.49 1030.76 5649.30)"/><polyline points="1039.72,5648.62 1039.72,5632.49" fill="#fab005" stroke="#000000" stroke-width="1" opacity="1.0" stroke-linecap="round" stroke-linejoin="round" transform="rotate(39.49 1039.72 5656.69)"/><polyline points="1048.69,5656.02 1048.69,5639.88" fill="#fab005" stroke="#000000" stroke-width="1" opacity="1.0" stroke-linecap="round" stroke-linejoin="round" transform="rotate(39.49 1048.69 5664.08)"/><polyline points="1057.77,5663.49 1057.77,5647.36" fill="#fab005" stroke="#000000" stroke-width="1" opacity="1.0" stroke-linecap="round" stroke-linejoin="round" transform="rotate(39.49 1057.77 5671.56)"/><polyline points="1066.91,5670.67 1066.91,5654.54" fill="#fab005" stroke="#000000" stroke-width="1" opacity="1.0" stroke-linecap="round" stroke-linejoin="round" transform="rotate(39.49 1066.91 5678.74)"/><polyline points="1075.70,5678.28 1075.70,5662.14" fill="#fab005" stroke="#000000" stroke-width="1" opacity="1.0" stroke-linecap="round" stroke-linejoin="round" transform="rotate(39.49 1075.70 5686.34)"/><polyline points="1084.67,5685.67 1084.67,5669.53" fill="#fab005" stroke="#000000" stroke-width="1" opacity="1.0" stroke-linecap="round" stroke-linejoin="round" transform="rotate(39.49 1084.67 5693.74)"/><polyline points="1093.64,5693.06 1093.64,5676.92" fill="#fab005" stroke="#000000" stroke-width="1" opacity="1.0" stroke-linecap="round" stroke-linejoin="round" transform="rotate(39.49 1093.64 5701.13)"/><polyline points="1102.71,5700.54 1102.71,5684.40" fill="#fab005" stroke="#000000" stroke-width="1" opacity="1.0" stroke-linecap="round" stroke-linejoin="round" transform="rotate(39.49 1102.71 5708.61)"/></svg>