<svg xmlns="http://www.w3.org/2000/svg" viewBox="892.18 253.57 148.97 130.59" width="149" height="131"><ellipse cx="942.41" cy="317.28" rx="9.48" ry="8.44" stroke="#2495d4" stroke-width="1" opacity="1.0" fill="#2495d4"/><ellipse cx="979.88" cy="297.21" rx="9.48" ry="8.44" stroke="#2495d4" stroke-width="1" opacity="1.0" fill="#2495d4"/><ellipse cx="954.86" cy="298.11" rx="9.48" ry="8.44" stroke="#2495d4" stroke-width="1" opacity="1.0" fill="#2495d4"/><ellipse cx="989.97" cy="317.47" rx="9.48" ry="8.44" stroke="#2495d4" stroke-width="1" opacity="1.0" fill="#2495d4"/><ellipse cx="956.79" cy="337.31" rx="9.48" ry="8.44" stroke="#2495d4" stroke-width="1" opacity="1.0" fill="#2495d4"/><ellipse cx="979.80" cy="336.92" rx="9.48" ry="8.44" stroke="#2495d4" stroke-width="1" opacity="1.0" fill="#2495d4"/><ellipse cx="966.73" cy="282.29" rx="5.03" ry="4.40" stroke="#2495d4" stroke-width="1" opacity="1.0" fill="#2495d4"/><ellipse cx="968.09" cy="353.23" rx="5.03" ry="4.40" stroke="#2495d4" stroke-width="1" opacity="1.0" fill="#2495d4"/><ellipse cx="999.17" cy="302.00" rx="5.03" ry="4.40" stroke="#2495d4" stroke-width="1" opacity="1.0" fill="#2495d4"/><ellipse cx="998.72" cy="334.19" rx="5.03" ry="4.40" stroke="#2495d4" stroke-width="1" opacity="1.0" fill="#2495d4"/><ellipse cx="934.07" cy="301.11" rx="5.03" ry="4.40" stroke="#2495d4" stroke-width="1" opacity="1.0" fill="#2495d4"/><ellipse cx="936.33" cy="335.24" rx="5.03" ry="4.40" stroke="#2495d4" stroke-width="1" opacity="1.0" fill="#2495d4"/><ellipse cx="939.87" cy="280.32" rx="4.03" ry="3.52" stroke="#2495d4" stroke-width="1" opacity="1.0" fill="#2495d4"/><ellipse cx="993.58" cy="281.34" rx="4.03" ry="3.52" stroke="#2495d4" stroke-width="1" opacity="1.0" fill="#2495d4"/><ellipse cx="1014.86" cy="317.60" rx="4.03" ry="3.52" stroke="#2495d4" stroke-width="1" opacity="1.0" fill="#2495d4"/><ellipse cx="992.57" cy="353.99" rx="4.03" ry="3.52" stroke="#2495d4" stroke-width="1" opacity="1.0" fill="#2495d4"/><ellipse cx="941.49" cy="354.80" rx="4.03" ry="3.52" stroke="#2495d4" stroke-width="1" opacity="1.0" fill="#2495d4"/><ellipse cx="917.82" cy="317.40" rx="4.03" ry="3.52" stroke="#2495d4" stroke-width="1" opacity="1.0" fill="#2495d4"/><ellipse cx="900.68" cy="318.93" rx="2.50" ry="2.18" stroke="#2495d4" stroke-width="1" opacity="1.0" fill="#2495d4"/><ellipse cx="1032.65" cy="317.61" rx="2.50" ry="2.18" stroke="#2495d4" stroke-width="1" opacity="1.0" fill="#2495d4"/><ellipse cx="966.83" cy="262.53" rx="3.39" ry="2.96" stroke="#2495d4" stroke-width="1" opacity="1.0" fill="#2495d4"/><ellipse cx="1002.58" cy="267.97" rx="2.50" ry="2.18" stroke="#2495d4" stroke-width="1" opacity="1.0" fill="#2495d4"/><ellipse cx="930.38" cy="267.46" rx="2.50" ry="2.18" stroke="#2495d4" stroke-width="1" opacity="1.0" fill="#2495d4"/><ellipse cx="1018.70" cy="290.95" rx="3.39" ry="2.96" stroke="#2495d4" stroke-width="1" opacity="1.0" fill="#2495d4"/><ellipse cx="914.18" cy="291.42" rx="3.39" ry="2.96" stroke="#2495d4" stroke-width="1" opacity="1.0" fill="#2495d4"/><ellipse cx="1002.37" cy="368.04" rx="2.50" ry="2.18" stroke="#2495d4" stroke-width="1" opacity="1.0" fill="#2495d4"/><ellipse cx="931.58" cy="368.57" rx="2.50" ry="2.18" stroke="#2495d4" stroke-width="1" opacity="1.0" fill="#2495d4"/><ellipse cx="967.92" cy="375.19" rx="3.39" ry="2.96" stroke="#2495d4" stroke-width="1" opacity="1.0" fill="#2495d4"/><ellipse cx="1018.15" cy="347.70" rx="3.39" ry="2.96" stroke="#2495d4" stroke-width="1" opacity="1.0" fill="#2495d4"/><ellipse cx="914.35" cy="347.23" rx="3.39" ry="2.96" stroke="#2495d4" stroke-width="1" opacity="1.0" fill="#2495d4"/></svg>