<svg version="1.1" xmlns="http://www.w3.org/2000/svg" viewBox="0 0 379.7382812500001 352.0459247878845" width="379.7382812500001" height="352.0459247878845">
  <!-- svg-source:excalidraw -->
  
  <defs>
    
    
  </defs>
  <g stroke-linecap="round"><g transform="translate(168.7578125000001 6) rotate(0 21.111328124999943 169.7109375)" fill-rule="evenodd"><path d="M-129.83 80.59 C-129.83 80.59, -129.83 80.59, -129.83 80.59 M-129.83 80.59 C-129.83 80.59, -129.83 80.59, -129.83 80.59 M-132.06 89.25 C-126.29 85.87, -122.19 79.41, -118.28 73.4 M-132.06 89.25 C-126.51 83.53, -121.62 76.88, -118.28 73.4 M-133.63 97.16 C-123.61 87.78, -114.3 78.36, -106.74 66.22 M-133.63 97.16 C-123.83 86.58, -115.64 75.47, -106.74 66.22 M-135.86 105.82 C-120.95 87.87, -106.41 69.88, -95.19 59.03 M-135.86 105.82 C-127.03 94.31, -115.61 82.88, -95.19 59.03 M-138.09 114.48 C-116.51 88.89, -96.86 65.65, -83.64 51.84 M-138.09 114.48 C-119.64 92.91, -102.63 72.88, -83.64 51.84 M-139.67 122.39 C-123.57 105.79, -111.69 87.6, -72.09 44.66 M-139.67 122.39 C-113.43 94.6, -90.18 64.67, -72.09 44.66 M-141.9 131.05 C-119.14 106.86, -98.45 79.21, -60.55 37.47 M-141.9 131.05 C-117.35 102.92, -92.98 76.16, -60.55 37.47 M-144.13 139.72 C-111.37 101.56, -78.54 65.21, -49 30.28 M-144.13 139.72 C-120.64 112.73, -97.2 87.71, -49 30.28 M-146.36 148.38 C-114.46 110.37, -83.57 74.25, -37.45 23.1 M-146.36 148.38 C-118.31 115.78, -88.2 82.17, -37.45 23.1 M-147.93 156.28 C-115.11 114.99, -79.95 78.23, -25.9 15.91 M-147.93 156.28 C-111.37 116.21, -76.63 73.98, -25.9 15.91 M-150.16 164.95 C-97.07 101.51, -43.99 41.77, -15.01 9.48 M-150.16 164.95 C-112.46 120.78, -75.62 79, -15.01 9.48 M-152.39 173.61 C-101.03 112.35, -46.23 51.56, -3.46 2.29 M-152.39 173.61 C-104.07 114.93, -53.78 58.11, -3.46 2.29 M-153.96 181.52 C-103.22 126.98, -54.89 69.8, 2.18 1.89 M-153.96 181.52 C-103.53 124.86, -53.26 67.8, 2.18 1.89 M-156.19 190.18 C-102.86 132.32, -51.41 71, 5.85 3.76 M-156.19 190.18 C-99.72 124.54, -43.16 59.14, 5.85 3.76 M-158.42 198.84 C-125.79 158.5, -88.8 117.24, 9.53 5.63 M-158.42 198.84 C-94.69 129.04, -33.76 56.5, 9.53 5.63 M-160 206.75 C-94.25 133.02, -29.18 59.37, 13.2 7.5 M-160 206.75 C-108.65 146.92, -57.29 87.29, 13.2 7.5 M-162.22 215.41 C-110.73 154.27, -57.87 95.89, 16.88 9.37 M-162.22 215.41 C-96.74 138.83, -29.46 61.34, 16.88 9.37 M-160.52 219.54 C-102.5 155.02, -47.27 89.58, 21.21 10.49 M-160.52 219.54 C-104.4 156.23, -48.39 91.96, 21.21 10.49 M-157.5 222.17 C-91.56 145.02, -24.07 66.6, 24.89 12.36 M-157.5 222.17 C-112.84 170.9, -67.49 119.19, 24.89 12.36 M-155.14 225.55 C-83.03 144.38, -15.93 65.93, 28.56 14.23 M-155.14 225.55 C-100.23 162.22, -47.21 99.78, 28.56 14.23 M-152.77 228.92 C-95.57 163.44, -39.85 97.48, 32.23 16.1 M-152.77 228.92 C-100.72 165.26, -46.77 104.38, 32.23 16.1 M-149.75 231.55 C-106.21 181.21, -63.84 132.72, 35.91 17.97 M-149.75 231.55 C-88.71 159.67, -25.21 86.43, 35.91 17.97 M-147.39 234.93 C-76.71 156.05, -7.63 75.94, 39.58 19.84 M-147.39 234.93 C-75.56 153.96, -6.14 72.99, 39.58 19.84 M-144.37 237.55 C-77.52 163.42, -11.19 89.1, 43.26 21.7 M-144.37 237.55 C-86.02 170.94, -28.59 105.16, 43.26 21.7 M-142.01 240.93 C-93.3 186.51, -46.33 131.66, 46.93 23.57 M-142.01 240.93 C-77.44 164.59, -10.56 87.89, 46.93 23.57 M-138.99 243.55 C-92.62 191.57, -43.11 135.78, 51.27 24.69 M-138.99 243.55 C-95.48 195.9, -53.91 148.15, 51.27 24.69 M-136.63 246.93 C-86.13 186.21, -31.37 124.55, 54.94 26.56 M-136.63 246.93 C-91.41 195.66, -46.88 144.29, 54.94 26.56 M-134.27 250.31 C-84.6 189.6, -34.31 131.95, 58.62 28.43 M-134.27 250.31 C-76.38 185.33, -20.08 119.85, 58.62 28.43 M-131.25 252.94 C-56.64 164.69, 18.91 76.52, 62.29 30.3 M-131.25 252.94 C-88.69 204.66, -45.62 156.41, 62.29 30.3 M-128.88 256.32 C-60.75 180.18, 8.38 100.86, 65.97 32.17 M-128.88 256.32 C-67.12 186.62, -7.5 115.87, 65.97 32.17 M-125.87 258.94 C-52.97 173.58, 20.21 90.88, 69.64 34.04 M-125.87 258.94 C-69.38 192.91, -13.92 128.86, 69.64 34.04 M-123.5 262.32 C-64.83 192.97, -7.76 127.44, 73.31 35.91 M-123.5 262.32 C-75.36 208.88, -29.97 155.63, 73.31 35.91 M-121.14 265.7 C-78.99 216.29, -36.85 167.82, 76.99 37.78 M-121.14 265.7 C-47.67 180.07, 26.31 94.96, 76.99 37.78 M-118.12 268.32 C-57.02 196.58, 5.66 125.49, 81.32 38.89 M-118.12 268.32 C-37.31 178.01, 41.53 86.89, 81.32 38.89 M-115.76 271.7 C-47.57 193.74, 19.98 116.55, 85 40.76 M-115.76 271.7 C-73.88 222.25, -31.98 173.02, 85 40.76 M-112.74 274.33 C-65.95 218.84, -20.34 165.35, 88.67 42.63 M-112.74 274.33 C-51.41 204.22, 9.98 133.17, 88.67 42.63 M-110.38 277.7 C-30.69 185.32, 47.65 95.05, 92.35 44.5 M-110.38 277.7 C-52.54 211.69, 4.65 145.33, 92.35 44.5 M-108.01 281.08 C-43.65 207.02, 19.43 132.04, 96.02 46.37 M-108.01 281.08 C-57.85 224.05, -9.02 168.17, 96.02 46.37 M-105 283.71 C-52.98 225.53, -0.42 166.61, 99.7 48.24 M-105 283.71 C-46.91 220.37, 8.03 155.8, 99.7 48.24 M-102.63 287.09 C-51.7 228.96, -2.11 171.41, 103.37 50.11 M-102.63 287.09 C-46.38 223.17, 8.83 160.22, 103.37 50.11 M-99.61 289.71 C-59.09 240.55, -15.55 192.22, 107.05 51.98 M-99.61 289.71 C-52.49 238.98, -6.24 185.46, 107.05 51.98 M-97.25 293.09 C-27.82 213.15, 42.77 131.15, 111.38 53.09 M-97.25 293.09 C-54.15 240.88, -8.09 189.63, 111.38 53.09 M-94.89 296.47 C-14.43 204.73, 65.06 111.16, 115.05 54.96 M-94.89 296.47 C-22.21 210.32, 50.31 125.92, 115.05 54.96 M-91.87 299.09 C-25.82 221.64, 41.02 146.51, 118.73 56.83 M-91.87 299.09 C-26.63 225.88, 35.75 153.35, 118.73 56.83 M-89.51 302.47 C-20.95 221.45, 48.75 140.27, 122.4 58.7 M-89.51 302.47 C-34.15 239.37, 19.51 176.44, 122.4 58.7 M-86.49 305.1 C-10.81 219.76, 62.62 134.31, 126.08 60.57 M-86.49 305.1 C-25.01 232.99, 39.03 160.12, 126.08 60.57 M-84.12 308.48 C-38.1 254.45, 10.56 200.59, 129.75 62.44 M-84.12 308.48 C-17.89 231.06, 47.99 153.93, 129.75 62.44 M-81.76 311.85 C-36.03 256.59, 10.17 203.03, 133.43 64.31 M-81.76 311.85 C-0.47 219.91, 79.44 128.08, 133.43 64.31 M-78.74 314.48 C-25.83 253.87, 28.48 192.5, 135.79 67.69 M-78.74 314.48 C-21.08 248.05, 35.9 182.77, 135.79 67.69 M-76.38 317.86 C-5.95 235.26, 64.45 154.77, 137.49 71.82 M-76.38 317.86 C-22.21 254.47, 32.62 191.82, 137.49 71.82 M-73.36 320.48 C-23.3 264.73, 26.9 205.93, 139.86 75.2 M-73.36 320.48 C-22.44 264.29, 26.81 206.61, 139.86 75.2 M-71 323.86 C0.4 243.7, 70.72 162.02, 141.56 79.33 M-71 323.86 C-15.73 260.27, 39.89 197.94, 141.56 79.33 M-68.64 327.24 C-18.74 270.96, 29.9 213.66, 143.93 82.71 M-68.64 327.24 C-3.55 249.37, 63.71 171.44, 143.93 82.71 M-65.62 329.86 C-8.96 265.18, 48.9 199.71, 145.63 86.85 M-65.62 329.86 C-8.89 265.45, 46.26 201.32, 145.63 86.85 M-63.25 333.24 C2.29 258.14, 65.41 182.78, 147.34 90.98 M-63.25 333.24 C17.31 241.15, 98.03 148.23, 147.34 90.98 M-60.24 335.87 C-10.79 277.58, 39.02 220.67, 149.7 94.36 M-60.24 335.87 C9.57 256.78, 78.73 178.07, 149.7 94.36 M-57.87 339.25 C20.2 250.05, 96.88 160.04, 151.41 98.49 M-57.87 339.25 C0.03 271.73, 58.81 204.68, 151.41 98.49 M-52.89 339.61 C17.5 259.97, 87.39 179.71, 153.77 101.87 M-52.89 339.61 C8.17 269.65, 68.22 200.92, 153.77 101.87 M-47.24 339.21 C17.44 262.58, 81.98 188.85, 155.48 106.01 M-47.24 339.21 C-0.98 285.67, 46.37 231.21, 155.48 106.01 M-42.26 339.57 C16.99 267.91, 80.78 198.03, 157.19 110.14 M-42.26 339.57 C29.22 259.19, 100.29 178.17, 157.19 110.14 M-36.61 339.18 C26.02 265.56, 89.66 191.51, 159.55 113.52 M-36.61 339.18 C8.91 285.91, 54.85 232.61, 159.55 113.52 M-31.63 339.54 C26.81 272.4, 85.83 202.23, 161.26 117.65 M-31.63 339.54 C26.78 272.17, 85.89 203.13, 161.26 117.65 M-25.98 339.14 C41.45 264.53, 104.98 187.66, 163.62 121.03 M-25.98 339.14 C21.39 282.83, 70.17 227.49, 163.62 121.03 M-21 339.5 C39.06 270.09, 98.43 200.37, 165.33 125.16 M-21 339.5 C35.59 273.94, 93.53 207.05, 165.33 125.16 M-15.35 339.11 C55.31 256.28, 126.07 173.8, 167.03 129.3 M-15.35 339.11 C27.29 287.37, 71.95 236.59, 167.03 129.3 M-10.37 339.47 C56.86 263.79, 121.95 185.87, 169.39 132.68 M-10.37 339.47 C40.55 278.21, 92.97 217.75, 169.39 132.68 M-4.72 339.07 C41.13 286.53, 88.01 232.81, 171.1 136.81 M-4.72 339.07 C51.53 274.25, 108.12 209.75, 171.1 136.81 M0.92 338.68 C47.03 284.38, 92.62 230.8, 173.46 140.19 M0.92 338.68 C65.31 267.45, 127.48 195.18, 173.46 140.19 M5.91 339.04 C45.52 293.55, 83.86 246.53, 175.17 144.32 M5.91 339.04 C70.56 263.88, 134.81 189.04, 175.17 144.32 M11.55 338.64 C59.54 281.57, 108.63 226.67, 177.53 147.7 M11.55 338.64 C47.37 298.53, 81.42 259.04, 177.53 147.7 M16.54 339 C74.04 272.56, 130.99 206.37, 179.24 151.84 M16.54 339 C65.84 282.1, 115.13 224.91, 179.24 151.84 M22.18 338.61 C72.49 279.72, 122.21 223.59, 180.95 155.97 M22.18 338.61 C66.66 286.13, 112.69 232.83, 180.95 155.97 M27.17 338.97 C78.04 280.15, 132.31 218.6, 183.31 159.35 M27.17 338.97 C77.44 279.82, 129.65 221.71, 183.31 159.35 M32.81 338.58 C71.16 293.72, 110.34 246.59, 185.02 163.48 M32.81 338.58 C68.08 297.37, 103.49 255.38, 185.02 163.48 M37.8 338.94 C83.68 287.65, 126.96 238.33, 187.38 166.86 M37.8 338.94 C79.99 291.39, 119.89 244.46, 187.38 166.86 M43.44 338.54 C78.4 296.87, 115.62 256.25, 189.09 171 M43.44 338.54 C79.64 293.09, 117.14 250.66, 189.09 171 M48.43 338.9 C101.07 277.45, 154.89 214.83, 190.79 175.13 M48.43 338.9 C97.87 284.37, 147.12 227.86, 190.79 175.13 M54.07 338.51 C86.23 300.89, 122 259.68, 193.16 178.51 M54.07 338.51 C102.29 283.18, 149.92 228.69, 193.16 178.51 M59.71 338.11 C105.96 281.78, 157.21 227, 194.86 182.64 M59.71 338.11 C101.36 291.02, 142.21 243.46, 194.86 182.64 M64.7 338.47 C94.56 303.05, 125.59 268.67, 197.23 186.02 M64.7 338.47 C97.66 302.23, 131.13 264.82, 197.23 186.02 M70.34 338.08 C101.25 302.93, 129.98 269.51, 198.93 190.15 M70.34 338.08 C108.58 294.21, 148.94 248.92, 198.93 190.15 M75.33 338.44 C106.11 305.1, 132.17 270.62, 201.29 193.53 M75.33 338.44 C114.21 295.19, 152.01 250.66, 201.29 193.53 M80.97 338.04 C107.33 306.99, 135.76 272.4, 203 197.67 M80.97 338.04 C113.64 301.74, 145.9 263.32, 203 197.67 M85.96 338.4 C117.15 305, 148.42 267.96, 204.71 201.8 M85.96 338.4 C110.16 306.88, 137.46 277.78, 204.71 201.8 M91.6 338.01 C136.96 284.95, 181.06 232.93, 207.07 205.18 M91.6 338.01 C125.13 299.24, 158.42 259.71, 207.07 205.18 M96.59 338.37 C132.36 295.2, 169.18 251.18, 192.38 228.18 M96.59 338.37 C122.42 307.55, 149.71 276.65, 192.38 228.18 M102.23 337.97 C133.25 303.71, 159.52 271.22, 177.68 251.18 M102.23 337.97 C119.84 316.83, 139.16 295.81, 177.68 251.18 M107.22 338.33 C123.88 319.16, 141.49 301.55, 162.33 274.94 M107.22 338.33 C126.97 315.51, 145.79 293.81, 162.33 274.94 M112.86 337.94 C123.28 325.59, 134.94 312.29, 147.64 297.94 M112.86 337.94 C124.29 323.3, 137.55 309.56, 147.64 297.94 M117.85 338.3 C121.18 331.43, 128.86 326.2, 132.94 320.94 M117.85 338.3 C122.48 333.7, 126.31 330.11, 132.94 320.94 M-58.04 339.61 C-58.04 339.61, -58.04 339.61, -58.04 339.61 M-58.04 339.61 C-58.04 339.61, -58.04 339.61, -58.04 339.61 M-52.4 339.22 C-59.34 333.52, -65.39 326.15, -75.8 318.88 M-52.4 339.22 C-57.11 335.15, -64.08 329.84, -75.8 318.88 M-46 339.48 C-58.44 327.77, -67.65 320.31, -93.55 298.15 M-46 339.48 C-59.24 327.4, -73.81 317.18, -93.55 298.15 M-40.36 339.08 C-56.14 326.69, -72.25 308.26, -111.3 277.41 M-40.36 339.08 C-65.45 317.02, -90.88 294.33, -111.3 277.41 M-33.96 339.35 C-63.89 314.02, -88.51 290.77, -129.05 256.68 M-33.96 339.35 C-56.8 320.28, -79.8 300.15, -129.05 256.68 M-28.32 338.95 C-63.78 308.26, -96.59 279, -146.81 235.95 M-28.32 338.95 C-65.26 308.43, -101.05 276.86, -146.81 235.95 M-21.92 339.21 C-62.88 306.36, -103.65 268.24, -162.3 217.19 M-21.92 339.21 C-48.5 314.4, -76.46 290.62, -162.3 217.19 M-16.28 338.82 C-52.45 307.25, -86.42 274.87, -161.18 212.85 M-16.28 338.82 C-51.5 308.1, -88.21 276.66, -161.18 212.85 M-9.88 339.08 C-41.38 311.47, -76.7 280.1, -160.07 208.52 M-9.88 339.08 C-58.33 296.44, -109.27 254.26, -160.07 208.52 M-4.24 338.68 C-47.73 300.74, -91.5 260.42, -159.71 203.54 M-4.24 338.68 C-56.98 291.73, -110.28 246.21, -159.71 203.54 M2.16 338.95 C-39.44 304.34, -80.2 266.16, -158.59 199.21 M2.16 338.95 C-33.87 308.63, -68.21 278.12, -158.59 199.21 M7.8 338.55 C-45.95 290.04, -100.19 244.09, -157.48 194.87 M7.8 338.55 C-28.65 306.53, -64.33 277.22, -157.48 194.87 M14.2 338.81 C-41.39 289.98, -95.86 244.05, -156.36 190.54 M14.2 338.81 C-37.3 293.48, -90.17 247.79, -156.36 190.54 M19.85 338.42 C-32.71 290.29, -87.35 243.8, -155.25 186.21 M19.85 338.42 C-30.29 293.57, -82.67 247.66, -155.25 186.21 M26.24 338.68 C-32.98 287.04, -92.3 237.49, -154.13 181.88 M26.24 338.68 C-13.34 304.58, -55.6 267.82, -154.13 181.88 M31.89 338.29 C-29.26 286.12, -88.85 232.33, -153.02 177.55 M31.89 338.29 C-12.43 298.32, -59.8 258.18, -153.02 177.55 M38.28 338.55 C-29.65 278.58, -97.71 219.29, -151.9 173.22 M38.28 338.55 C-11.98 295.01, -60.62 252.82, -151.9 173.22 M44.68 338.81 C-5.55 296.7, -55.98 251.45, -150.79 168.89 M44.68 338.81 C-24.87 278.07, -93.21 216.69, -150.79 168.89 M50.32 338.41 C-0.42 292.44, -55.45 246.33, -149.67 164.56 M50.32 338.41 C-8.55 286.29, -67.24 235.15, -149.67 164.56 M56.72 338.68 C-13.29 277.18, -83.06 216.87, -148.56 160.23 M56.72 338.68 C-9.06 281.84, -76.18 222.69, -148.56 160.23 M62.37 338.28 C-1.15 285.9, -62.54 231.51, -147.44 155.9 M62.37 338.28 C10.35 290.29, -43.37 243.08, -147.44 155.9 M68.76 338.54 C-16.1 266.51, -101.87 192.24, -146.33 151.57 M68.76 338.54 C6.3 281.74, -56.86 227.02, -146.33 151.57 M74.41 338.15 C19.47 291.56, -34.31 242.57, -145.97 146.58 M74.41 338.15 C8.9 280.41, -56.01 224.17, -145.97 146.58 M80.8 338.41 C33.28 297.61, -17.46 252.59, -144.85 142.25 M80.8 338.41 C30.69 295.29, -19.12 252.52, -144.85 142.25 M86.45 338.01 C11.38 273.33, -59.14 210.49, -143.74 137.92 M86.45 338.01 C-0.57 261.2, -88.91 184.52, -143.74 137.92 M92.85 338.28 C3.27 257.95, -90.29 179.33, -142.62 133.59 M92.85 338.28 C24.36 278.91, -43.75 219.94, -142.62 133.59 M98.49 337.88 C38.84 286.13, -22.78 233.27, -141.51 129.25 M98.49 337.88 C22.48 271.46, -53.65 206, -141.51 129.25 M104.89 338.14 C45.04 288.02, -15.23 233.39, -140.39 124.92 M104.89 338.14 C27.47 272.21, -50.4 204.8, -140.39 124.92 M110.53 337.75 C14.97 253.74, -81.92 169.98, -139.28 120.59 M110.53 337.75 C32.38 268.76, -46.08 201.03, -139.28 120.59 M116.93 338.01 C35.9 267.06, -46.02 199.07, -138.16 116.26 M116.93 338.01 C32.1 264.63, -50.87 192.1, -138.16 116.26 M120.31 335.65 C60.63 282.96, -0.9 229.51, -137.05 111.93 M120.31 335.65 C61.93 284.73, 4.12 233.69, -137.05 111.93 M122.18 331.97 C46.7 266.69, -28.92 202.06, -135.94 107.6 M122.18 331.97 C24.13 244.6, -75.5 158.25, -135.94 107.6 M124.8 328.95 C50.81 265.73, -21.59 203.04, -134.82 103.27 M124.8 328.95 C39.95 253.54, -45.29 179.97, -134.82 103.27 M126.67 325.28 C62.35 270.24, -2.57 213.23, -133.71 98.94 M126.67 325.28 C30.17 238.79, -69.09 153.36, -133.71 98.94 M129.29 322.26 C27.74 234.88, -72.36 146.13, -132.59 94.61 M129.29 322.26 C46.88 251.15, -35.43 180.09, -132.59 94.61 M131.16 318.58 C72.51 268.56, 11.45 216.65, -132.23 89.62 M131.16 318.58 C74.66 270.33, 18.62 221.8, -132.23 89.62 M133.79 315.57 C33.7 226.79, -66.52 142.04, -131.12 85.29 M133.79 315.57 C52.71 246.02, -27.32 176.85, -131.12 85.29 M135.66 311.89 C67.08 253.74, 1.19 195.8, -130 80.96 M135.66 311.89 C76.81 259.69, 18.91 207.4, -130 80.96 M137.53 308.22 C68.77 247.56, -0.5 185.14, -126.62 78.6 M137.53 308.22 C72.18 252.14, 7.17 195.44, -126.62 78.6 M140.15 305.2 C54.87 231.32, -29.27 159.39, -123.24 76.23 M140.15 305.2 C43.22 218.92, -53.77 134.92, -123.24 76.23 M142.02 301.52 C80.37 249.19, 19.29 195.99, -119.86 73.87 M142.02 301.52 C56.79 227.94, -25.94 154.72, -119.86 73.87 M144.64 298.5 C90.68 251.49, 37.69 205.2, -115.73 72.16 M144.64 298.5 C83.43 245.99, 21.98 193.39, -115.73 72.16 M146.51 294.83 C85.06 239.79, 21.35 183.16, -112.35 69.8 M146.51 294.83 C65.67 225.9, -14.79 155.34, -112.35 69.8 M148.38 291.15 C80.96 234.31, 16.01 175.58, -108.97 67.44 M148.38 291.15 C86.3 237.51, 26.36 184.65, -108.97 67.44 M151.01 288.13 C92.73 238.52, 33.63 187.26, -105.59 65.07 M151.01 288.13 C87.31 233, 23.06 177.7, -105.59 65.07 M152.88 284.46 C55.52 200.89, -39.55 116.84, -102.21 62.71 M152.88 284.46 C103.37 239.95, 52.03 194.48, -102.21 62.71 M155.5 281.44 C80.04 216.79, 3.81 151.98, -98.08 61 M155.5 281.44 C58.42 197.18, -38.99 113.12, -98.08 61 M157.37 277.77 C83.55 212.22, 11.04 151.06, -94.7 58.64 M157.37 277.77 C58.02 191.65, -40.97 104.94, -94.7 58.64 M159.24 274.09 C74.07 198.42, -10.2 125.75, -91.32 56.28 M159.24 274.09 C64.79 193.54, -30.78 109.95, -91.32 56.28 M161.86 271.07 C99.72 215.35, 38.98 163.2, -87.94 53.92 M161.86 271.07 C90.25 207.57, 16.74 144.58, -87.94 53.92 M163.73 267.4 C115.31 225.04, 65.18 181.75, -83.81 52.21 M163.73 267.4 C78.2 195.5, -5.04 122.92, -83.81 52.21 M166.36 264.38 C91.3 198.61, 16.68 133.83, -80.43 49.85 M166.36 264.38 C111.73 219.46, 59.26 172.21, -80.43 49.85 M168.23 260.7 C87.55 193.18, 6.97 121.51, -77.05 47.48 M168.23 260.7 C73.39 179.42, -20.9 97.02, -77.05 47.48 M170.85 257.68 C103.82 196.96, 34.81 140.45, -73.67 45.12 M170.85 257.68 C99.7 195.51, 27.31 133.23, -73.67 45.12 M172.72 254.01 C95.11 186.54, 15.25 117.6, -69.54 43.41 M172.72 254.01 C110.39 200.32, 47.67 146.28, -69.54 43.41 M174.59 250.33 C84.49 173.4, -2.84 98.13, -66.16 41.05 M174.59 250.33 C106.63 188.86, 38.16 130.75, -66.16 41.05 M177.22 247.32 C87.94 169.99, -1.67 91.27, -62.78 38.69 M177.22 247.32 C97.21 175.65, 16.99 105.44, -62.78 38.69 M179.08 243.64 C96.32 171.28, 16.91 101.87, -59.4 36.33 M179.08 243.64 C90.38 166.86, 2.08 90.22, -59.4 36.33 M181.71 240.62 C125.34 192.23, 72.1 143.28, -55.27 34.62 M181.71 240.62 C129.21 198.25, 77.98 152.73, -55.27 34.62 M183.58 236.95 C102.23 167.11, 17.81 93.99, -51.89 32.26 M183.58 236.95 C94.46 160.55, 5.44 83.57, -51.89 32.26 M185.45 233.27 C127.68 182.63, 69.53 132.16, -48.51 29.89 M185.45 233.27 C108.72 168.71, 34.4 104.63, -48.51 29.89 M188.07 230.25 C115.83 166.8, 41.27 106.23, -45.13 27.53 M188.07 230.25 C112.11 165.9, 38.62 100.66, -45.13 27.53 M189.94 226.58 C119.94 164.53, 47.48 102.07, -41.75 25.17 M189.94 226.58 C120.18 167.45, 51.89 107.39, -41.75 25.17 M192.57 223.56 C119.13 158.79, 42.77 92.26, -37.62 23.46 M192.57 223.56 C130.74 170.33, 68.98 116.23, -37.62 23.46 M194.44 219.89 C121.33 156.36, 51.03 94.02, -34.24 21.1 M194.44 219.89 C144.08 177.61, 96.06 135.66, -34.24 21.1 M196.31 216.21 C136.23 167.13, 77.1 114.8, -30.86 18.74 M196.31 216.21 C127.15 156.2, 58.94 96.3, -30.86 18.74 M198.93 213.19 C127.54 149.77, 54.14 88.89, -27.48 16.37 M198.93 213.19 C113.8 138.37, 30.09 65.68, -27.48 16.37 M200.8 209.52 C116.88 138.12, 36.44 67.4, -23.35 14.67 M200.8 209.52 C124.03 143.68, 47.23 77.06, -23.35 14.67 M203.42 206.5 C123.98 135.22, 45.11 66.73, -19.97 12.3 M203.42 206.5 C137.26 148.81, 71.86 92.06, -19.97 12.3 M205.29 202.82 C146.65 150.9, 86.72 101.82, -16.59 9.94 M205.29 202.82 C136.48 144.15, 68.34 84.32, -16.59 9.94 M200.37 193.24 C148.11 150.01, 100.68 107.47, -13.21 7.58 M200.37 193.24 C130.58 134.24, 63.19 74.11, -13.21 7.58 M195.45 183.66 C126.32 122.95, 55.82 62.01, -9.08 5.87 M195.45 183.66 C118.03 119.53, 42.46 53.28, -9.08 5.87 M190.52 174.08 C125.31 115.21, 58.82 59.22, -5.7 3.51 M190.52 174.08 C142.67 134.89, 96.71 93.68, -5.7 3.51 M185.6 164.5 C115.55 99.22, 42.38 38.25, -2.32 1.15 M185.6 164.5 C127.87 116.02, 69.33 65.42, -2.32 1.15 M180.68 154.93 C140.18 120.82, 100.1 87.47, 4.08 1.41 M180.68 154.93 C142.05 120.51, 101.67 85.35, 4.08 1.41 M175.76 145.35 C124.18 99.28, 72.38 55.73, 17.27 7.57 M175.76 145.35 C121.93 97.95, 70.02 51.55, 17.27 7.57 M170.83 135.77 C139.36 107.47, 104.06 77.32, 30.46 13.74 M170.83 135.77 C124.11 96.07, 80.53 56.58, 30.46 13.74 M165.16 125.53 C129.04 93.48, 90.96 63.82, 43.65 19.91 M165.16 125.53 C130.89 96.73, 97.62 66.8, 43.65 19.91 M160.23 115.95 C132.05 90.15, 106.79 68.49, 57.59 26.73 M160.23 115.95 C123.97 83.12, 87.35 50.22, 57.59 26.73 M155.31 106.37 C122.81 75.87, 87.96 47.4, 70.78 32.89 M155.31 106.37 C137.35 89.71, 119.3 75.6, 70.78 32.89 M150.39 96.79 C137.22 85.59, 123.01 72.95, 83.97 39.06 M150.39 96.79 C135.65 83.04, 121.05 70.04, 83.97 39.06 M145.46 87.21 C133.49 76.36, 118.27 64.11, 97.16 45.23 M145.46 87.21 C135.78 79.35, 124.57 69.84, 97.16 45.23 M140.54 77.63 C128.94 67.54, 119.74 60.08, 111.11 52.05 M140.54 77.63 C133.74 72.85, 127.57 67.8, 111.11 52.05 M135.62 68.05 C133.48 67.15, 131.07 63.31, 124.3 58.21 M135.62 68.05 C131.94 64.59, 126.99 60.89, 124.3 58.21" stroke="#7950f2" stroke-width="0.5" fill="none"></path><path d="M0 0 C-28.39 17.56, -56.73 35.59, -129.81 80.57 M0 0 C-26.48 16.02, -51.63 31.74, -129.81 80.57 M-129.81 80.57 C-136.6 109.18, -142.41 136.13, -162.76 217.25 M-129.81 80.57 C-143.71 133.03, -156.15 184.42, -162.76 217.25 M-162.76 217.25 C-133.25 251.25, -103.98 284.16, -58.26 339.42 M-162.76 217.25 C-135.62 250.39, -107.33 284.24, -58.26 339.42 M-58.26 339.42 C-4.72 340.23, 49.71 340.73, 118.88 337.82 M-58.26 339.42 C5.96 339.18, 70.7 339.21, 118.88 337.82 M118.88 337.82 C146.19 295.56, 173.08 254.99, 204.98 203.38 M118.88 337.82 C139.24 302.72, 162.69 268.15, 204.98 203.38 M204.98 203.38 C179.74 149.98, 151.46 97.29, 132.04 62.51 M204.98 203.38 C185.38 162.81, 164.85 123.54, 132.04 62.51 M132.04 62.51 C103.12 48.74, 69.43 31.47, 0 0 M132.04 62.51 C79.96 37.7, 26.58 12.3, 0 0 M0 0 C0 0, 0 0, 0 0 M0 0 C0 0, 0 0, 0 0" stroke="#000000" stroke-width="1" fill="none"></path></g></g><mask></mask><g stroke-linecap="round" transform="translate(164.4687500000001 166.4453125) rotate(0 18.68359375 18.458984375)"><path d="M15.35 -0.02 C18.97 -0.86, 23.86 0.6, 27.38 2.55 C30.9 4.5, 35.07 8.08, 36.49 11.67 C37.91 15.25, 37.32 20.25, 35.93 24.05 C34.53 27.85, 31.44 32.27, 28.11 34.46 C24.78 36.65, 19.91 37.77, 15.95 37.2 C11.99 36.64, 7.06 34.16, 4.35 31.05 C1.65 27.93, -0.18 22.47, -0.27 18.52 C-0.37 14.56, 1.18 10.33, 3.78 7.31 C6.38 4.28, 13.27 1.45, 15.31 0.36 C17.36 -0.72, 15.94 0.51, 16.08 0.81 M21.17 0.06 C24.84 0.21, 29.65 2.63, 32.3 5.49 C34.95 8.36, 36.84 13.16, 37.06 17.23 C37.28 21.3, 35.95 26.72, 33.63 29.9 C31.31 33.09, 27.09 35.48, 23.16 36.33 C19.22 37.18, 13.54 36.74, 10.02 35 C6.51 33.27, 3.5 29.75, 2.07 25.94 C0.63 22.12, 0.39 16.05, 1.44 12.12 C2.5 8.19, 5.17 4.39, 8.39 2.34 C11.62 0.28, 18.66 0.06, 20.8 -0.23 C22.93 -0.52, 21.17 0.3, 21.21 0.59" stroke="#ffffff" stroke-width="4" fill="none"></path></g><g stroke-linecap="round" transform="translate(169.3359375000001 168.48828125) rotate(0 17.541015625 18.0234375)"><path d="M18.51 -0.21 C22.21 -0.15, 27.36 2.88, 30.1 5.55 C32.84 8.22, 34.65 12.08, 34.92 15.81 C35.19 19.54, 33.77 24.64, 31.7 27.92 C29.63 31.19, 25.98 34.43, 22.49 35.46 C19.01 36.5, 14.19 35.79, 10.79 34.13 C7.4 32.48, 3.89 29.02, 2.12 25.53 C0.35 22.05, -0.75 16.97, 0.18 13.23 C1.11 9.49, 4.51 5.31, 7.71 3.1 C10.91 0.88, 17.35 0.35, 19.38 -0.05 C21.41 -0.45, 19.91 0.34, 19.88 0.71 M19.94 -0.15 C23.34 0.14, 27.53 2.75, 29.94 5.73 C32.35 8.72, 34.15 13.75, 34.38 17.78 C34.61 21.8, 33.55 26.87, 31.3 29.89 C29.05 32.91, 24.52 35.09, 20.89 35.88 C17.26 36.67, 12.69 36.42, 9.53 34.64 C6.36 32.86, 3.44 28.97, 1.91 25.18 C0.38 21.39, -0.64 15.73, 0.36 11.88 C1.36 8.04, 4.69 4.06, 7.91 2.09 C11.12 0.12, 17.62 0.33, 19.65 0.06 C21.67 -0.22, 20.11 0.06, 20.05 0.44" stroke="#ffffff" stroke-width="4" fill="none"></path></g><g stroke-linecap="round" transform="translate(95.42578125000011 102.6484375) rotate(0 87.87109375 86.509765625)"><path d="M46.8 10.33 C56.25 4.12, 71.53 0.91, 83.36 0 C95.18 -0.91, 106.84 0.64, 117.77 4.86 C128.69 9.08, 140.24 16.81, 148.91 25.31 C157.58 33.8, 165.45 44.87, 169.8 55.84 C174.16 66.81, 175.7 79.7, 175.05 91.13 C174.41 102.55, 171.26 113.92, 165.94 124.41 C160.62 134.9, 152.3 146.44, 143.1 154.05 C133.91 161.67, 122.19 167.01, 110.77 170.1 C99.35 173.2, 86.18 174.35, 74.57 172.61 C62.95 170.86, 50.96 165.93, 41.06 159.63 C31.16 153.33, 21.73 144.66, 15.15 134.8 C8.58 124.94, 3.68 112.19, 1.59 100.45 C-0.5 88.71, -0.14 75.73, 2.63 64.36 C5.4 52.99, 9.97 41.7, 18.2 32.23 C26.43 22.75, 45.17 11.64, 52.01 7.52 C58.86 3.39, 58.6 6.16, 59.29 7.46 M106.17 0.63 C117.12 1.18, 128.41 8.31, 137.76 15.14 C147.11 21.96, 156.09 31.34, 162.28 41.58 C168.47 51.82, 173.35 64.96, 174.89 76.58 C176.43 88.2, 174.92 100.37, 171.52 111.31 C168.12 122.26, 162.14 133.47, 154.5 142.24 C146.86 151.02, 136.74 158.69, 125.69 163.97 C114.64 169.24, 100.18 173.78, 88.19 173.88 C76.19 173.99, 64.61 169.26, 53.7 164.6 C42.8 159.94, 31.07 154.12, 22.77 145.9 C14.46 137.69, 7.7 126.43, 3.88 115.32 C0.07 104.2, -1.58 91.16, -0.11 79.21 C1.35 67.27, 6.61 54.01, 12.67 43.64 C18.73 33.27, 26.96 24.15, 36.25 17.01 C45.54 9.87, 57.01 3.38, 68.41 0.81 C79.8 -1.76, 98.62 1.11, 104.62 1.57 C110.62 2.02, 104.49 2.29, 104.42 3.56" stroke="#ffffff" stroke-width="4" fill="none"></path></g><g stroke-linecap="round" transform="translate(97.23046875000011 111.177734375) rotate(0 87.87109375 86.509765625)"><path d="M117.92 5.82 C129.14 8.25, 139.89 15.09, 148.32 22.95 C156.74 30.81, 163.84 41.94, 168.48 52.97 C173.13 63.99, 176.24 77.37, 176.18 89.09 C176.12 100.81, 173.2 112.83, 168.11 123.29 C163.01 133.75, 154.98 144.25, 145.62 151.84 C136.25 159.44, 123.37 165.56, 111.93 168.87 C100.5 172.19, 88.65 173.21, 77.01 171.72 C65.36 170.22, 52.22 165.9, 42.04 159.91 C31.86 153.93, 22.64 145.35, 15.91 135.82 C9.17 126.28, 3.77 114.25, 1.62 102.7 C-0.52 91.16, 0.32 78.08, 3.04 66.55 C5.77 55.03, 10.86 43.06, 17.96 33.54 C25.06 24.03, 35.17 15.19, 45.63 9.48 C56.09 3.78, 68.39 -0.04, 80.74 -0.67 C93.09 -1.3, 112.91 4.31, 119.71 5.72 C126.51 7.14, 122.08 6.4, 121.54 7.82 M128.72 9.51 C138.95 13.3, 149.46 23.21, 156.75 32.63 C164.04 42.05, 169.53 54.46, 172.46 66.03 C175.39 77.59, 176.54 90.34, 174.34 102.04 C172.15 113.73, 166.28 126.27, 159.29 136.17 C152.29 146.08, 142.55 155.54, 132.37 161.45 C122.19 167.36, 109.61 170.17, 98.19 171.61 C86.76 173.06, 75.26 173.44, 63.81 170.14 C52.36 166.85, 38.57 159.7, 29.49 151.85 C20.42 144, 14.08 133.64, 9.37 123.05 C4.65 112.46, 1.51 99.67, 1.19 88.3 C0.88 76.93, 3.18 65.42, 7.47 54.8 C11.76 44.18, 18.42 32.93, 26.92 24.59 C35.41 16.24, 47.34 8.88, 58.43 4.73 C69.52 0.58, 81.59 -1.19, 93.46 -0.3 C105.33 0.59, 123.71 7.89, 129.65 10.05 C135.59 12.22, 129.95 11.3, 129.1 12.7" stroke="#ffffff" stroke-width="4" fill="none"></path></g><g stroke-linecap="round" transform="translate(94.99609375000011 105.685546875) rotate(0 87.87109375 86.509765625)"><path d="M55.86 6.1 C65.8 0.52, 78.46 -1.1, 90.13 -0.57 C101.8 -0.05, 115.03 3.85, 125.91 9.27 C136.79 14.7, 147.77 22.93, 155.41 31.98 C163.06 41.03, 168.61 52.58, 171.76 63.57 C174.92 74.56, 176 86.31, 174.32 97.91 C172.64 109.52, 168.03 123.11, 161.71 133.21 C155.38 143.31, 146.2 152, 136.38 158.51 C126.55 165.02, 114.32 170.25, 102.75 172.27 C91.18 174.29, 78.36 173.45, 66.94 170.61 C55.53 167.76, 43.66 162.51, 34.27 155.19 C24.88 147.88, 16.33 137.27, 10.63 126.74 C4.92 116.2, 1.07 103.7, 0.03 91.99 C-1.01 80.27, 0.45 67.3, 4.41 56.42 C8.37 45.55, 14.33 35.3, 23.81 26.73 C33.3 18.15, 53.98 8.71, 61.33 4.97 C68.68 1.22, 67.39 2.87, 67.9 4.25 M124.59 7.54 C135.02 11.16, 145.52 20.3, 153.39 29.35 C161.26 38.41, 168.24 50.64, 171.81 61.85 C175.38 73.06, 176.17 85.25, 174.79 96.63 C173.42 108.01, 169.53 120.16, 163.56 130.14 C157.59 140.13, 149 149.49, 138.97 156.54 C128.94 163.58, 115.18 170.28, 103.38 172.41 C91.59 174.55, 79.75 172.07, 68.19 169.34 C56.64 166.61, 43.75 162.74, 34.05 156.04 C24.35 149.33, 15.71 139.39, 10 129.09 C4.29 118.79, 0.39 106.21, -0.21 94.25 C-0.82 82.29, 2.19 68.54, 6.36 57.33 C10.54 46.12, 16.92 35.65, 24.83 26.99 C32.75 18.33, 43.09 9.88, 53.86 5.36 C64.62 0.85, 77.57 -0.63, 89.44 -0.1 C101.32 0.42, 119.12 7.02, 125.13 8.52 C131.14 10.02, 126 7.78, 125.51 8.89" stroke="#ffffff" stroke-width="4" fill="none"></path></g><g stroke-linecap="round" transform="translate(98.73046875000011 100.529296875) rotate(0 87.87109375 86.509765625)"><path d="M64.6 2.13 C74.97 -2.3, 88.72 -1.54, 100.6 0.42 C112.48 2.39, 125.58 7.57, 135.88 13.91 C146.17 20.25, 155.76 28.78, 162.35 38.47 C168.94 48.16, 173.77 60.48, 175.4 72.05 C177.02 83.62, 175.15 96.56, 172.11 107.91 C169.07 119.25, 164.46 130.91, 157.17 140.11 C149.87 149.32, 138.95 157.61, 128.33 163.14 C117.7 168.68, 105.3 172.51, 93.4 173.32 C81.5 174.12, 68.06 172.15, 56.92 167.99 C45.79 163.83, 35.13 156.72, 26.59 148.34 C18.05 139.96, 10.17 128.84, 5.68 117.69 C1.19 106.54, -0.9 93.28, -0.35 81.44 C0.2 69.6, 3.5 56.97, 9.01 46.65 C14.51 36.33, 22.63 26.97, 32.66 19.51 C42.68 12.05, 62.54 4.57, 69.16 1.91 C75.77 -0.75, 71.99 1.97, 72.33 3.57 M115.35 3.42 C126.53 5.87, 137.82 14.63, 146.71 22.76 C155.6 30.89, 164.03 41.26, 168.7 52.2 C173.36 63.13, 175.13 76.42, 174.72 88.38 C174.3 100.35, 171.23 113.55, 166.21 123.97 C161.19 134.4, 153.17 143.29, 144.59 150.93 C136.01 158.57, 126.15 166.32, 114.74 169.82 C103.34 173.33, 88 173.57, 76.16 171.95 C64.31 170.33, 53.51 166.11, 43.69 160.1 C33.87 154.09, 24.11 145.13, 17.24 135.89 C10.37 126.66, 5.05 115.99, 2.47 104.71 C-0.12 93.42, -0.76 79.88, 1.73 68.17 C4.22 56.47, 10.42 44.09, 17.42 34.46 C24.41 24.84, 33.31 16.19, 43.7 10.44 C54.09 4.68, 67.66 0.79, 79.76 -0.06 C91.87 -0.92, 110.53 4.2, 116.34 5.32 C122.14 6.43, 115.24 5.13, 114.58 6.6" stroke="#ffffff" stroke-width="4" fill="none"></path></g><g stroke-linecap="round" transform="translate(90.39843750000011 105.357421875) rotate(0 87.87109375 86.509765625)"><path d="M111.66 2.86 C122.67 4.83, 134.9 13.17, 144.16 21.03 C153.42 28.9, 162.07 39.41, 167.23 50.03 C172.39 60.66, 174.87 73.36, 175.1 84.79 C175.33 96.23, 173.13 107.8, 168.6 118.64 C164.07 129.48, 156.53 141.59, 147.92 149.85 C139.3 158.11, 128.06 164.28, 116.9 168.19 C105.74 172.1, 92.68 174.21, 80.96 173.32 C69.24 172.43, 56.95 168.4, 46.61 162.84 C36.26 157.28, 26.19 149.32, 18.9 139.95 C11.61 130.59, 5.82 118.23, 2.88 106.66 C-0.06 95.09, -0.67 82.1, 1.25 70.54 C3.16 58.99, 7.79 46.87, 14.38 37.32 C20.98 27.78, 30.52 19.2, 40.82 13.27 C51.11 7.33, 63.68 3.12, 76.14 1.7 C88.6 0.29, 108.46 3.69, 115.58 4.78 C122.7 5.87, 119.13 6.83, 118.86 8.26 M56.23 4.51 C66.5 -0.44, 81.27 -0.49, 93.32 0.25 C105.37 0.98, 117.84 3.71, 128.54 8.92 C139.24 14.13, 149.93 22.31, 157.54 31.49 C165.15 40.68, 171.51 52.26, 174.22 64.01 C176.93 75.76, 175.91 90.47, 173.82 102 C171.72 113.54, 168.21 123.48, 161.63 133.22 C155.05 142.96, 144.63 153.78, 134.33 160.45 C124.02 167.13, 111.58 171.6, 99.78 173.28 C87.99 174.97, 74.67 174.02, 63.55 170.57 C52.44 167.12, 42.03 160.23, 33.08 152.59 C24.14 144.95, 15.43 135.37, 9.89 124.72 C4.35 114.06, 0.53 100.38, -0.17 88.65 C-0.87 76.92, 1.3 65.01, 5.68 54.35 C10.06 43.7, 17.37 33.06, 26.11 24.73 C34.85 16.39, 52.75 7.45, 58.13 4.33 C63.51 1.21, 57.78 4.29, 58.39 6.01" stroke="#ffffff" stroke-width="4" fill="none"></path></g><g stroke-linecap="round" transform="translate(104.61328125000011 104.525390625) rotate(0 87.87109375 86.509765625)"><path d="M121.71 6.35 C132.75 9.69, 144.33 19.19, 152.71 27.78 C161.09 36.37, 168.09 46.9, 172 57.88 C175.91 68.86, 177.54 81.97, 176.19 93.65 C174.85 105.33, 169.71 117.7, 163.91 127.95 C158.11 138.2, 150.76 148.04, 141.4 155.15 C132.03 162.25, 119.36 167.78, 107.71 170.56 C96.06 173.34, 83.2 173.95, 71.5 171.84 C59.8 169.72, 47.27 164.62, 37.53 157.87 C27.79 151.12, 19.25 141.52, 13.05 131.33 C6.85 121.14, 1.95 108.59, 0.34 96.73 C-1.26 84.87, -0.05 71.48, 3.43 60.15 C6.92 48.81, 13.28 37.4, 21.26 28.72 C29.23 20.03, 40.23 12.87, 51.26 8.03 C62.29 3.2, 74.29 -0.74, 87.42 -0.27 C100.54 0.2, 121.78 7.97, 130 10.84 C138.23 13.71, 137.4 15.86, 136.76 16.94 M59.21 4.18 C69.67 -0.43, 84.61 -1.1, 96.44 0.19 C108.27 1.48, 120.08 5.92, 130.19 11.94 C140.31 17.95, 150.07 27.09, 157.12 36.3 C164.17 45.51, 169.55 55.83, 172.5 67.2 C175.45 78.57, 177.24 92.99, 174.83 104.51 C172.42 116.04, 164.97 127.04, 158.04 136.35 C151.1 145.66, 143.05 154.42, 133.2 160.36 C123.34 166.3, 110.74 170.31, 98.9 171.98 C87.06 173.64, 73.79 173.69, 62.16 170.37 C50.54 167.05, 38.2 160.11, 29.14 152.07 C20.08 144.02, 12.87 132.98, 7.8 122.08 C2.73 111.17, -1.18 98.38, -1.28 86.62 C-1.38 74.86, 2.19 62.06, 7.19 51.52 C12.19 40.98, 20.09 31.17, 28.73 23.38 C37.37 15.59, 53.88 7.46, 59.03 4.8 C64.19 2.14, 58.82 6.28, 59.65 7.42" stroke="#ffffff" stroke-width="4" fill="none"></path></g><g stroke-linecap="round" transform="translate(100.07812500000011 106.029296875) rotate(0 87.87109375 86.509765625)"><path d="M80.45 0.73 C91.81 -1.18, 106.19 2, 117.41 5.98 C128.64 9.95, 139.28 16.8, 147.79 24.59 C156.31 32.38, 163.98 41.88, 168.52 52.71 C173.07 63.55, 175.4 77.71, 175.08 89.59 C174.77 101.48, 171.69 113.47, 166.62 124.02 C161.54 134.57, 153.52 145.27, 144.62 152.87 C135.72 160.48, 124.49 166.32, 113.21 169.65 C101.93 172.98, 88.75 174.47, 76.93 172.85 C65.11 171.23, 52.58 166.26, 42.3 159.95 C32.02 153.64, 22.21 144.7, 15.25 135.01 C8.29 125.33, 2.82 113.22, 0.54 101.83 C-1.75 90.43, -1.42 77.83, 1.52 66.65 C4.46 55.47, 10.82 44.05, 18.18 34.73 C25.55 25.41, 32.73 16.3, 45.71 10.74 C58.69 5.17, 85.26 2.27, 96.07 1.34 C106.87 0.4, 110.85 3.98, 110.53 5.14 M63.79 3.3 C74.49 -1.01, 88.35 -1.55, 100.3 -0.11 C112.25 1.32, 125.17 5.7, 135.48 11.93 C145.78 18.17, 155.76 27.16, 162.15 37.3 C168.54 47.44, 171.89 61.23, 173.82 72.77 C175.74 84.3, 176.61 95.16, 173.71 106.52 C170.8 117.87, 164.01 131.27, 156.39 140.9 C148.78 150.52, 138.58 158.8, 128.02 164.25 C117.47 169.71, 104.62 173.13, 93.08 173.63 C81.54 174.12, 69.75 171.42, 58.8 167.21 C47.84 163, 36.14 156.69, 27.34 148.37 C18.54 140.04, 10.64 128.15, 6 117.25 C1.36 106.34, -0.94 94.42, -0.49 82.95 C-0.05 71.47, 3.17 59.04, 8.66 48.38 C14.14 37.71, 23.13 26.63, 32.42 18.94 C41.71 11.26, 58.84 4.41, 64.41 2.26 C69.99 0.12, 65.7 4.67, 65.87 6.06" stroke="#ffffff" stroke-width="4" fill="none"></path></g><g stroke-linecap="round" transform="translate(92.53515625000011 105.326171875) rotate(0 87.87109375 86.509765625)"><path d="M49.48 9.08 C59.31 2.97, 73.46 0.04, 85.41 -0.54 C97.37 -1.12, 110.45 1.27, 121.23 5.61 C132.01 9.95, 141.76 17.11, 150.07 25.52 C158.38 33.92, 166.79 44.96, 171.07 56.02 C175.36 67.08, 176.59 80.02, 175.77 91.89 C174.96 103.76, 171.73 116.7, 166.18 127.22 C160.63 137.75, 151.8 147.77, 142.45 155.03 C133.1 162.28, 121.71 167.99, 110.08 170.75 C98.46 173.51, 84.61 173.8, 72.7 171.59 C60.79 169.39, 48.53 164.16, 38.6 157.52 C28.68 150.88, 19.38 141.52, 13.16 131.75 C6.94 121.98, 2.79 110.42, 1.3 98.92 C-0.19 87.42, 1.01 73.97, 4.23 62.75 C7.44 51.53, 11.68 40.96, 20.59 31.59 C29.5 22.22, 50.15 11.11, 57.68 6.52 C65.21 1.93, 65.52 2.93, 65.77 4.04 M53.86 6.55 C63.75 1.17, 77.01 0.22, 88.67 0.7 C100.33 1.18, 113.08 4.65, 123.83 9.41 C134.58 14.18, 145.03 20.51, 153.2 29.3 C161.37 38.09, 169.43 50.9, 172.86 62.16 C176.28 73.42, 175.23 85.47, 173.72 96.87 C172.22 108.27, 169.6 120.55, 163.84 130.58 C158.09 140.61, 148.98 149.99, 139.2 157.04 C129.42 164.08, 117.12 170.44, 105.15 172.86 C93.18 175.28, 79.12 174.5, 67.38 171.55 C55.63 168.61, 44.31 162.51, 34.68 155.19 C25.05 147.87, 15.34 137.95, 9.59 127.64 C3.85 117.33, 0.94 104.83, 0.18 93.35 C-0.58 81.87, 1.28 69.73, 5.04 58.79 C8.81 47.84, 14.81 36.11, 22.77 27.66 C30.73 19.21, 47.35 11.49, 52.82 8.11 C58.3 4.72, 55.07 6.01, 55.64 7.35" stroke="#ffffff" stroke-width="4" fill="none"></path></g><g stroke-linecap="round" transform="translate(169.8847656250001 167.890625) rotate(0 17.541015625 18.0234375)"><path d="M14.86 0.72 C18.35 -0.05, 23.1 1.13, 26.26 2.97 C29.43 4.81, 32.62 8.13, 33.85 11.77 C35.07 15.42, 34.95 21.17, 33.61 24.85 C32.26 28.54, 29.04 32.03, 25.78 33.89 C22.53 35.75, 17.68 36.73, 14.07 35.99 C10.46 35.25, 6.43 32.46, 4.14 29.47 C1.84 26.47, 0.23 21.91, 0.29 18.01 C0.35 14.11, 2.03 9.07, 4.49 6.06 C6.95 3.05, 13.27 0.91, 15.03 -0.05 C16.78 -1.02, 15.05 -0.08, 15.03 0.29 M17.71 0.3 C21.29 0.21, 26.6 2.52, 29.54 4.86 C32.47 7.2, 34.85 10.71, 35.3 14.33 C35.76 17.95, 34.32 23.23, 32.27 26.59 C30.21 29.96, 26.45 33.12, 22.98 34.52 C19.51 35.92, 14.89 36.33, 11.44 35.01 C7.99 33.68, 4.07 30.02, 2.26 26.56 C0.45 23.09, -0.16 18.03, 0.6 14.21 C1.36 10.39, 4.07 5.95, 6.83 3.65 C9.6 1.36, 15.34 1.09, 17.17 0.44 C19.01 -0.22, 17.83 -0.6, 17.85 -0.3" stroke="#ffffff" stroke-width="4" fill="none"></path></g><g stroke-linecap="round" transform="translate(163.5332031250001 167.0234375) rotate(0 17.541015625 18.0234375)"><path d="M15.49 -0.11 C19.02 -0.93, 24.09 0.38, 27.15 2.41 C30.2 4.43, 32.64 8.37, 33.82 12.04 C35 15.7, 35.53 20.78, 34.23 24.4 C32.92 28.02, 29.3 31.83, 25.98 33.75 C22.65 35.66, 17.95 36.6, 14.27 35.89 C10.59 35.18, 6.2 32.53, 3.87 29.5 C1.55 26.46, 0.23 21.62, 0.3 17.7 C0.37 13.77, 1.82 8.96, 4.29 5.96 C6.76 2.95, 13.26 0.67, 15.14 -0.32 C17.02 -1.32, 15.46 -0.38, 15.57 -0.01 M21.88 1.23 C25.55 1.9, 30.17 4.86, 32.27 7.75 C34.38 10.64, 34.92 14.91, 34.52 18.58 C34.13 22.26, 32.45 26.92, 29.89 29.79 C27.33 32.66, 22.82 35.26, 19.16 35.79 C15.5 36.32, 11.09 35.02, 7.94 32.98 C4.79 30.93, 1.43 27.12, 0.23 23.54 C-0.97 19.96, -0.76 15.14, 0.72 11.49 C2.19 7.83, 5.53 3.37, 9.08 1.59 C12.63 -0.19, 20.06 0.99, 22.02 0.82 C23.98 0.66, 20.91 0.43, 20.84 0.61" stroke="#ffffff" stroke-width="4" fill="none"></path></g><g stroke-linecap="round" transform="translate(167.0332031250001 170.1640625) rotate(0 17.541015625 18.0234375)"><path d="M19.3 0.52 C22.81 0.58, 27.47 2.49, 30.04 5.3 C32.62 8.11, 34.53 13.45, 34.74 17.38 C34.95 21.32, 33.54 25.84, 31.32 28.92 C29.1 31.99, 25 34.96, 21.42 35.84 C17.85 36.72, 13.15 35.94, 9.86 34.21 C6.58 32.47, 3.2 29.01, 1.72 25.43 C0.23 21.84, -0.08 16.47, 0.94 12.68 C1.96 8.9, 4.73 4.84, 7.84 2.72 C10.94 0.61, 17.53 0.3, 19.54 -0.02 C21.55 -0.34, 19.85 0.38, 19.89 0.79 M17.06 0.71 C20.66 0.09, 25.51 0.82, 28.34 2.91 C31.18 5, 33.35 9.49, 34.08 13.25 C34.81 17.02, 34.3 21.96, 32.71 25.5 C31.12 29.05, 27.89 32.97, 24.54 34.52 C21.19 36.08, 16.13 36.03, 12.6 34.84 C9.06 33.65, 5.32 30.6, 3.34 27.38 C1.35 24.17, 0.41 19.2, 0.69 15.55 C0.97 11.9, 2.36 8.19, 5.03 5.49 C7.69 2.8, 14.81 0.16, 16.66 -0.62 C18.51 -1.4, 16.21 0.29, 16.11 0.8" stroke="#ffffff" stroke-width="4" fill="none"></path></g><g stroke-linecap="round"><g transform="translate(172.0000000000001 168.67578125) rotate(0 6.703125 -51.041015625)"><path d="M0 0 C2.36 -21.16, 4.18 -44.18, 3.7 -103.16 M0 0 C1.35 -38.41, 2.83 -78.16, 3.7 -103.16 M3.7 -103.16 C7.27 -73.63, 10.71 -45.61, 13.41 1.08 M3.7 -103.16 C5.21 -75.3, 7.84 -46.3, 13.41 1.08 M13.41 1.08 C12.24 -19.06, 12.6 -39, 9.82 -68.85 M13.41 1.08 C12.04 -25.3, 10.71 -50.25, 9.82 -68.85 M9.82 -68.85 C7.64 -49.87, 5.33 -28.57, 0 0 M9.82 -68.85 C6.82 -51.49, 5.73 -34.06, 0 0" stroke="#ffffff" stroke-width="4" fill="none"></path></g></g><mask></mask><g stroke-linecap="round"><g transform="translate(177.0117187500001 162.90234375) rotate(0 2.197265625 -16.697265625)"><path d="M0 0 C1.3 -6.93, 1.58 -15.03, 4.39 -33.39 M0 0 C1.58 -8.44, 2.39 -16.48, 4.39 -33.39 M4.39 -33.39 C3.49 -20.97, 1.74 -10.01, 0 0 M4.39 -33.39 C2.88 -24.45, 2.03 -14.57, 0 0" stroke="#ffffff" stroke-width="4" fill="none"></path></g></g><mask></mask><g stroke-linecap="round"><g transform="translate(232.73046875000034 189.470703125) rotate(48.82812010548385 6.703125 -51.041015625)"><path d="M0 0 C2.4 -26.15, 2.9 -50.99, 3.7 -103.16 M0 0 C0.94 -23.12, 2.04 -46.1, 3.7 -103.16 M3.7 -103.16 C8.38 -66.62, 9.97 -31.94, 13.41 1.08 M3.7 -103.16 C4.28 -76.18, 7.67 -49.07, 13.41 1.08 M13.41 1.08 C14.22 -16.16, 12.57 -38.38, 9.82 -68.85 M13.41 1.08 C12.38 -15.6, 12.14 -32.04, 9.82 -68.85 M9.82 -68.85 C9.44 -54.52, 4.69 -35.79, 0 0 M9.82 -68.85 C6.35 -45.59, 3.21 -21.67, 0 0" stroke="#ffffff" stroke-width="4" fill="none"></path></g></g><mask></mask><g stroke-linecap="round"><g transform="translate(215.64799014783023 174.3425716208494) rotate(48.82812010548385 2.197265625 -16.697265625)"><path d="M0 0 C0.9 -10.81, 2.47 -23.95, 4.39 -33.39 M0 0 C1.02 -8.05, 2.23 -15.62, 4.39 -33.39 M4.39 -33.39 C3.48 -23.05, 1.52 -12.59, 0 0 M4.39 -33.39 C3.61 -26.49, 2.97 -19.7, 0 0" stroke="#ffffff" stroke-width="4" fill="none"></path></g></g><mask></mask><g stroke-linecap="round"><g transform="translate(246.3237323080706 251.70138984820596) rotate(100.11287629133902 6.703125 -51.041015625)"><path d="M0 0 C1.74 -33.67, -0.17 -66.42, 3.7 -103.16 M0 0 C1.68 -38.29, 3.78 -77.47, 3.7 -103.16 M3.7 -103.16 C7.19 -66.21, 10.35 -30.37, 13.41 1.08 M3.7 -103.16 C5.25 -75.13, 7.51 -48.65, 13.41 1.08 M13.41 1.08 C12.8 -24.05, 8.99 -47.49, 9.82 -68.85 M13.41 1.08 C13.06 -14.48, 11.55 -29.29, 9.82 -68.85 M9.82 -68.85 C7.48 -53.69, 7.26 -42.55, 0 0 M9.82 -68.85 C8.32 -50.68, 5.42 -30.88, 0 0" stroke="#ffffff" stroke-width="4" fill="none"></path></g></g><mask></mask><g stroke-linecap="round"><g transform="translate(221.59442297833755 212.5309240003494) rotate(100.11287629133902 2.197265625 -16.697265625)"><path d="M0 0 C1.31 -14.1, 2.99 -25.94, 4.39 -33.39 M0 0 C1.32 -7.98, 2.21 -16.11, 4.39 -33.39 M4.39 -33.39 C2.71 -21.9, 0.39 -9.9, 0 0 M4.39 -33.39 C4.01 -26.6, 2.77 -19.33, 0 0" stroke="#ffffff" stroke-width="4" fill="none"></path></g></g><mask></mask><g stroke-linecap="round"><g transform="translate(218.64270446632497 295.5512598523869) rotate(143.74655045078708 6.703125 -51.041015625)"><path d="M0 0 C-1.42 -25.96, 2.47 -50.52, 3.7 -103.16 M0 0 C1.91 -33.04, 3.24 -65.84, 3.7 -103.16 M3.7 -103.16 C5.78 -69.65, 9.18 -34.3, 13.41 1.08 M3.7 -103.16 C6.7 -67.67, 10.66 -31.65, 13.41 1.08 M13.41 1.08 C10.27 -27.22, 8.57 -54.43, 9.82 -68.85 M13.41 1.08 C11.69 -18.21, 10.39 -37.61, 9.82 -68.85 M9.82 -68.85 C8.25 -55.31, 4.55 -37.22, 0 0 M9.82 -68.85 C8.41 -50.64, 5.11 -33.69, 0 0" stroke="#ffffff" stroke-width="4" fill="none"></path></g></g><mask></mask><g stroke-linecap="round"><g transform="translate(204.04419377574925 239.06368647201725) rotate(143.74655045078708 2.197265625 -16.697265625)"><path d="M0 0 C1.13 -11.91, 2.89 -25.15, 4.39 -33.39 M0 0 C1.2 -8.82, 2.59 -18.02, 4.39 -33.39 M4.39 -33.39 C2.25 -24.76, 1.06 -14.94, 0 0 M4.39 -33.39 C3.37 -23.21, 2.42 -12.97, 0 0" stroke="#ffffff" stroke-width="4" fill="none"></path></g></g><mask></mask><g stroke-linecap="round"><g transform="translate(145.11032684052782 301.0206385323272) rotate(207.60224306083515 6.703125 -51.041015625)"><path d="M0 0 C3.2 -26.33, 3.01 -51.06, 3.7 -103.16 M0 0 C1.44 -36, 2.56 -73.44, 3.7 -103.16 M3.7 -103.16 C5.17 -75.49, 9.48 -44.24, 13.41 1.08 M3.7 -103.16 C7.62 -61.23, 11.92 -20.61, 13.41 1.08 M13.41 1.08 C11.44 -16.1, 11.86 -30.91, 9.82 -68.85 M13.41 1.08 C11.9 -18.07, 11.05 -39.27, 9.82 -68.85 M9.82 -68.85 C6 -43.22, 2.13 -18.08, 0 0 M9.82 -68.85 C7.26 -49.84, 4.88 -32.16, 0 0" stroke="#ffffff" stroke-width="4" fill="none"></path></g></g><mask></mask><g stroke-linecap="round"><g transform="translate(164.36010863784588 242.44491363362613) rotate(207.60224306083515 2.197265625 -16.697265625)"><path d="M0 0 C0.55 -7.34, 1.82 -14.56, 4.39 -33.39 M0 0 C1.77 -11.29, 2.84 -23.05, 4.39 -33.39 M4.39 -33.39 C2.2 -24.51, 1.99 -15.45, 0 0 M4.39 -33.39 C3.74 -23.86, 2.38 -15.57, 0 0" stroke="#ffffff" stroke-width="4" fill="none"></path></g></g><mask></mask><g stroke-linecap="round"><g transform="translate(117.07421875000011 196.544921875) rotate(305.3528245388628 6.703125 -51.041015625)"><path d="M0 0 C0.53 -25.01, 2.06 -48.07, 3.7 -103.16 M0 0 C0.97 -33.13, 1.57 -66.11, 3.7 -103.16 M3.7 -103.16 C6.07 -81.46, 9.17 -60.38, 13.41 1.08 M3.7 -103.16 C8.18 -68.43, 9.77 -35.56, 13.41 1.08 M13.41 1.08 C12.73 -15.99, 11.92 -34.57, 9.82 -68.85 M13.41 1.08 C12.05 -23.49, 12.18 -46.75, 9.82 -68.85 M9.82 -68.85 C6.56 -52.68, 4.79 -38.62, 0 0 M9.82 -68.85 C5.71 -41.98, 1.06 -15.22, 0 0" stroke="#ffffff" stroke-width="4" fill="none"></path></g></g><mask></mask><g stroke-linecap="round"><g transform="translate(145.49228373140375 177.5480953262172) rotate(305.3528245388628 2.197265625 -16.697265625)"><path d="M0 0 C1.47 -12.03, 3.83 -24.96, 4.39 -33.39 M0 0 C1.33 -12.06, 2.83 -24.4, 4.39 -33.39 M4.39 -33.39 C3.09 -23.76, 1.67 -15.72, 0 0 M4.39 -33.39 C3.4 -22.39, 1.25 -10.96, 0 0" stroke="#ffffff" stroke-width="4" fill="none"></path></g></g><mask></mask><g stroke-linecap="round"><g transform="translate(110.81640625000011 255.162109375) rotate(257.38176395187526 6.703125 -51.041015625)"><path d="M0 0 C1.77 -24.46, 1.95 -49.52, 3.7 -103.16 M0 0 C0.74 -37.36, 1.32 -74.23, 3.7 -103.16 M3.7 -103.16 C7.97 -82.08, 8.69 -59.08, 13.41 1.08 M3.7 -103.16 C7.79 -62.23, 11.83 -20.75, 13.41 1.08 M13.41 1.08 C12.37 -17.29, 12.69 -34.86, 9.82 -68.85 M13.41 1.08 C13.17 -25.01, 10.35 -52.29, 9.82 -68.85 M9.82 -68.85 C5.36 -43.4, 4.39 -20.74, 0 0 M9.82 -68.85 C5.45 -44.85, 2.74 -20.36, 0 0" stroke="#ffffff" stroke-width="4" fill="none"></path></g></g><mask></mask><g stroke-linecap="round"><g transform="translate(144.42981460143653 215.13387506222034) rotate(257.38176395187526 2.197265625 -16.697265625)"><path d="M0 0 C1.9 -10.58, 3.46 -20.93, 4.39 -33.39 M0 0 C1.31 -11.78, 2.83 -23.1, 4.39 -33.39 M4.39 -33.39 C2.63 -21.79, 1.81 -9.76, 0 0 M4.39 -33.39 C2.47 -20.71, 0.69 -7.74, 0 0" stroke="#ffffff" stroke-width="4" fill="none"></path></g></g><mask></mask><g stroke-linecap="round" transform="translate(165.9140625000001 53.57421875) rotate(0 7.787109375 8.029296875)"><path d="M11.67 1.27 C13.15 1.96, 13.07 3.44, 13.84 4.71 C14.62 5.98, 16.52 7.16, 16.34 8.86 C16.16 10.56, 14.34 13.69, 12.77 14.89 C11.2 16.1, 8.78 16.35, 6.93 16.1 C5.08 15.85, 2.94 14.71, 1.67 13.39 C0.4 12.07, -0.75 9.67, -0.69 8.16 C-0.63 6.65, 1.11 5.73, 2.02 4.35 C2.94 2.96, 3.08 0.5, 4.81 -0.14 C6.55 -0.77, 11.21 0.07, 12.43 0.53 C13.64 0.99, 12.31 2.31, 12.1 2.64 M7.9 0.81 C9.13 0.8, 11.89 0.48, 13.07 1.6 C14.25 2.72, 14.71 5.68, 14.98 7.52 C15.25 9.37, 15.64 11.19, 14.69 12.67 C13.74 14.16, 11.02 16.07, 9.29 16.42 C7.56 16.76, 5.62 15.46, 4.31 14.76 C2.99 14.06, 1.95 13.7, 1.41 12.21 C0.86 10.72, 0.37 7.61, 1.02 5.83 C1.67 4.06, 3.83 2.49, 5.32 1.57 C6.82 0.64, 9.21 0.62, 10 0.29 C10.8 -0.04, 10.17 -0.62, 10.07 -0.43" stroke="none" stroke-width="0" fill="#ffffff"></path><path d="M9.73 0.16 C11.1 0.31, 12.94 1.38, 13.84 2.69 C14.74 4.01, 15.18 6.18, 15.12 8.04 C15.07 9.9, 14.51 12.57, 13.52 13.86 C12.52 15.15, 10.85 15.6, 9.17 15.77 C7.48 15.93, 4.74 15.7, 3.41 14.87 C2.09 14.03, 1.53 12.62, 1.2 10.77 C0.88 8.91, 1.01 5.49, 1.48 3.72 C1.96 1.94, 2.55 0.67, 4.06 0.11 C5.57 -0.46, 9.19 0.03, 10.56 0.33 C11.94 0.62, 12.25 1.77, 12.3 1.87 M8.37 -0.46 C10.32 -0.27, 13.9 2.47, 14.88 3.88 C15.86 5.29, 14.34 6.51, 14.24 7.99 C14.14 9.48, 15 11.53, 14.28 12.78 C13.55 14.03, 11.55 14.94, 9.9 15.5 C8.24 16.06, 6 16.86, 4.33 16.14 C2.67 15.42, 0.52 13.1, -0.11 11.19 C-0.74 9.27, 0.02 6.46, 0.54 4.65 C1.05 2.84, 1.49 1.12, 2.97 0.31 C4.45 -0.5, 8.3 -0.34, 9.41 -0.21 C10.53 -0.09, 9.85 0.81, 9.67 1.07" stroke="#ffffff" stroke-width="4" fill="none"></path></g><g stroke-linecap="round" transform="translate(275.70898437500034 88.341796875) rotate(0 7.787109375 8.029296875)"><path d="M5.88 -0.38 C7.52 -1.02, 9.66 0.68, 10.97 1.46 C12.27 2.24, 12.88 3.05, 13.71 4.3 C14.55 5.55, 16.12 7.44, 15.96 8.95 C15.81 10.46, 14.25 12.3, 12.77 13.35 C11.29 14.41, 8.94 15.03, 7.1 15.3 C5.27 15.56, 2.82 16.04, 1.75 14.95 C0.68 13.85, 0.89 10.49, 0.69 8.74 C0.5 6.99, -0.46 6.05, 0.57 4.47 C1.59 2.89, 5.22 -0.01, 6.85 -0.74 C8.47 -1.46, 10.1 -0.21, 10.32 0.11 M12.17 0.3 C13.43 1.08, 13.36 2.6, 13.78 4.46 C14.21 6.32, 15.11 9.7, 14.72 11.45 C14.32 13.21, 12.66 14.15, 11.4 14.97 C10.14 15.79, 8.77 16.47, 7.16 16.35 C5.55 16.24, 2.69 15.55, 1.73 14.3 C0.77 13.05, 1.33 10.47, 1.4 8.84 C1.47 7.21, 1.3 5.82, 2.18 4.53 C3.06 3.23, 5.09 1.5, 6.67 1.07 C8.25 0.65, 10.98 1.87, 11.65 1.96 C12.32 2.04, 10.7 1.39, 10.7 1.57" stroke="none" stroke-width="0" fill="#ffffff"></path><path d="M9.83 -0.12 C11.16 0.23, 12.57 1.63, 13.36 3.21 C14.16 4.79, 14.64 7.41, 14.6 9.34 C14.56 11.27, 14.24 13.63, 13.13 14.79 C12.03 15.96, 9.57 16.21, 7.97 16.32 C6.37 16.44, 4.69 16.43, 3.54 15.47 C2.4 14.51, 1.67 12.5, 1.1 10.55 C0.53 8.6, -0.39 5.57, 0.12 3.79 C0.62 2.01, 2.33 0.36, 4.14 -0.13 C5.96 -0.63, 9.53 0.47, 10.99 0.83 C12.44 1.18, 12.95 1.75, 12.87 1.97 M3.54 1.77 C4.82 0.9, 8.51 -1.5, 10.17 -1.13 C11.83 -0.77, 12.74 2.17, 13.52 3.95 C14.29 5.73, 14.92 7.84, 14.84 9.56 C14.76 11.28, 13.8 13.26, 13.02 14.26 C12.24 15.25, 11.6 15.47, 10.16 15.54 C8.73 15.62, 6.08 15.78, 4.4 14.71 C2.73 13.64, 0.85 10.79, 0.12 9.14 C-0.61 7.49, -0.58 6.16, 0.03 4.81 C0.65 3.47, 2.96 1.86, 3.78 1.06 C4.61 0.26, 4.79 0.08, 4.98 0.01" stroke="#ffffff" stroke-width="4" fill="none"></path></g><g stroke-linecap="round" transform="translate(306.88476562500034 198.224609375) rotate(0 7.787109375 8.029296875)"><path d="M4.56 0.82 C6.03 -0.04, 9.93 -0.94, 11.65 -0.28 C13.37 0.38, 14.34 3.12, 14.87 4.79 C15.4 6.46, 15.37 8.26, 14.84 9.75 C14.31 11.25, 13.04 12.88, 11.69 13.77 C10.34 14.66, 8.13 14.95, 6.75 15.09 C5.37 15.23, 4.61 15.66, 3.4 14.58 C2.19 13.51, -0.23 10.53, -0.51 8.62 C-0.79 6.7, 0.76 4.41, 1.72 3.09 C2.68 1.78, 4.49 1.09, 5.26 0.71 C6.02 0.34, 6.1 0.65, 6.31 0.86 M6.73 -1.23 C8.41 -1.61, 10.3 -0.01, 11.89 1.16 C13.48 2.32, 15.8 3.91, 16.29 5.75 C16.78 7.58, 15.68 10.6, 14.84 12.17 C13.99 13.74, 12.6 14.36, 11.2 15.18 C9.8 16, 7.99 17.48, 6.42 17.1 C4.86 16.72, 2.63 14.5, 1.81 12.9 C1 11.3, 1.26 9.27, 1.53 7.51 C1.79 5.75, 2.24 3.69, 3.39 2.33 C4.53 0.96, 7.64 -0.42, 8.39 -0.69 C9.14 -0.96, 7.8 0.48, 7.87 0.7" stroke="none" stroke-width="0" fill="#ffffff"></path><path d="M8.85 -0.77 C10.4 -0.68, 12.27 0.58, 13.46 2.07 C14.64 3.57, 15.77 6.36, 15.96 8.19 C16.15 10.02, 15.69 11.68, 14.58 13.04 C13.46 14.4, 10.9 15.9, 9.26 16.36 C7.62 16.82, 6.11 16.86, 4.75 15.78 C3.38 14.71, 1.88 11.78, 1.07 9.91 C0.26 8.04, -0.48 6.16, -0.12 4.58 C0.24 3, 1.39 1.05, 3.24 0.43 C5.08 -0.2, 9.41 0.68, 10.95 0.82 C12.5 0.97, 12.46 1.34, 12.51 1.29 M11.67 1.3 C13.14 1.87, 12.63 2.6, 13.38 3.89 C14.13 5.19, 16.13 7.4, 16.18 9.07 C16.23 10.74, 14.99 12.53, 13.67 13.92 C12.34 15.31, 10.14 17.29, 8.21 17.43 C6.27 17.56, 3.42 16.18, 2.05 14.74 C0.68 13.31, 0.33 10.74, -0.02 8.81 C-0.37 6.87, -0.94 4.6, -0.05 3.12 C0.85 1.65, 3.51 0.24, 5.35 -0.06 C7.18 -0.36, 10.23 1.13, 10.96 1.33 C11.69 1.53, 9.95 0.9, 9.71 1.13" stroke="#ffffff" stroke-width="4" fill="none"></path></g><g stroke-linecap="round" transform="translate(257.98632812500034 283.986328125) rotate(0 7.787109375 8.029296875)"><path d="M11.76 1.82 C12.96 2.64, 13.43 3.77, 14.1 5.11 C14.76 6.44, 16.09 8.36, 15.75 9.82 C15.42 11.28, 13.66 12.98, 12.07 13.88 C10.48 14.78, 8.06 15.16, 6.24 15.24 C4.41 15.31, 2.06 15.56, 1.12 14.33 C0.18 13.09, 0.61 9.62, 0.6 7.85 C0.59 6.08, 0.26 5.12, 1.05 3.72 C1.84 2.32, 3.5 -0.05, 5.37 -0.54 C7.23 -1.03, 11.03 0.38, 12.25 0.78 C13.46 1.17, 12.65 1.69, 12.67 1.85 M3.52 0.04 C4.75 -0.43, 7.9 0.64, 9.62 1.27 C11.33 1.89, 12.78 2.43, 13.84 3.79 C14.91 5.14, 16.17 7.56, 16 9.41 C15.83 11.25, 13.91 13.64, 12.84 14.84 C11.77 16.04, 11.11 16.43, 9.57 16.61 C8.03 16.79, 5.08 16.88, 3.6 15.9 C2.11 14.92, 1.09 12.48, 0.66 10.72 C0.24 8.97, 0.47 6.97, 1.03 5.37 C1.6 3.76, 3.34 1.64, 4.06 1.11 C4.78 0.58, 5.21 1.98, 5.35 2.18" stroke="none" stroke-width="0" fill="#ffffff"></path><path d="M5.72 -0.31 C7.15 -0.51, 9.37 0.45, 10.94 1.58 C12.52 2.7, 14.53 4.81, 15.17 6.42 C15.8 8.04, 15.3 9.65, 14.75 11.26 C14.2 12.87, 13.16 15.2, 11.89 16.09 C10.62 16.97, 8.93 17.17, 7.11 16.55 C5.29 15.93, 2.25 13.96, 0.98 12.37 C-0.3 10.78, -0.62 8.65, -0.55 7.01 C-0.48 5.37, -0.1 3.71, 1.4 2.52 C2.89 1.33, 7.1 0.14, 8.42 -0.12 C9.75 -0.38, 9.53 0.67, 9.36 0.96 M5.49 -0.72 C6.95 -1.45, 8.32 0.24, 9.67 1.17 C11.03 2.1, 12.74 3.43, 13.63 4.88 C14.52 6.33, 14.88 8.44, 15.01 9.87 C15.14 11.31, 15.43 12.49, 14.42 13.5 C13.41 14.52, 10.87 16.03, 8.94 15.97 C7 15.9, 4.36 14.17, 2.8 13.11 C1.25 12.06, 0.01 11.07, -0.38 9.63 C-0.77 8.2, -0.52 6.16, 0.46 4.48 C1.44 2.81, 4.72 0.36, 5.52 -0.42 C6.31 -1.2, 5.07 -0.7, 5.23 -0.22" stroke="#ffffff" stroke-width="4" fill="none"></path></g><g stroke-linecap="round" transform="translate(125.63085937500011 293.685546875) rotate(0 7.787109375 8.029296875)"><path d="M11.29 -0.41 C13 0.04, 14.08 2.82, 14.68 4.45 C15.29 6.08, 15.36 7.86, 14.91 9.37 C14.46 10.88, 13.28 12.57, 11.98 13.52 C10.69 14.48, 8.51 14.87, 7.13 15.09 C5.75 15.31, 4.95 15.85, 3.69 14.84 C2.42 13.82, -0.09 10.91, -0.45 9 C-0.81 7.1, 0.74 4.76, 1.53 3.43 C2.32 2.1, 2.66 1.32, 4.29 1.02 C5.91 0.72, 9.81 1.32, 11.25 1.63 C12.7 1.95, 12.98 3.04, 12.96 2.92 M8.98 -0.25 C10.81 0.15, 13.82 1.2, 14.94 2.74 C16.06 4.28, 15.86 7.22, 15.68 8.97 C15.49 10.73, 14.85 11.88, 13.84 13.29 C12.83 14.69, 11.25 17.07, 9.62 17.4 C8 17.73, 5.38 16.35, 4.08 15.25 C2.77 14.15, 2.22 12.51, 1.8 10.81 C1.37 9.11, 0.96 6.81, 1.54 5.03 C2.12 3.26, 3.87 0.87, 5.28 0.16 C6.7 -0.56, 9.11 0.73, 10.05 0.74 C10.99 0.75, 10.89 0.05, 10.94 0.21" stroke="none" stroke-width="0" fill="#ffffff"></path><path d="M6.7 -0.89 C8.41 -0.99, 11.04 0.35, 12.63 1.44 C14.22 2.53, 15.82 3.93, 16.24 5.66 C16.65 7.39, 15.82 10.06, 15.13 11.81 C14.43 13.56, 13.53 15.64, 12.08 16.19 C10.63 16.73, 8.32 15.76, 6.44 15.08 C4.55 14.4, 1.97 13.48, 0.77 12.09 C-0.43 10.71, -0.99 8.39, -0.77 6.77 C-0.55 5.16, 0.65 3.64, 2.1 2.4 C3.54 1.16, 6.69 -0.16, 7.91 -0.67 C9.14 -1.19, 9.29 -0.81, 9.44 -0.7 M4.76 -0.26 C6.27 -0.96, 10.27 -0.61, 12.16 0.17 C14.06 0.96, 15.5 2.5, 16.14 4.44 C16.78 6.38, 16.78 9.94, 16.01 11.8 C15.24 13.66, 13.09 14.95, 11.54 15.6 C9.99 16.26, 8.5 16.2, 6.71 15.75 C4.91 15.3, 1.91 14.2, 0.77 12.9 C-0.36 11.61, -0.29 9.49, -0.12 7.98 C0.04 6.47, 0.9 5.1, 1.76 3.86 C2.62 2.62, 4.49 0.91, 5.05 0.55 C5.62 0.19, 4.75 1.79, 5.14 1.69" stroke="#ffffff" stroke-width="4" fill="none"></path></g><g stroke-linecap="round" transform="translate(46.740234375000114 214.767578125) rotate(0 7.787109375 8.029296875)"><path d="M3.79 0.89 C5.21 -0.12, 8.73 -0.54, 10.49 -0.24 C12.24 0.05, 13.57 1.28, 14.31 2.68 C15.05 4.08, 15.29 6.15, 14.94 8.14 C14.59 10.14, 13.22 13.44, 12.21 14.66 C11.2 15.87, 10.48 15.39, 8.89 15.45 C7.3 15.52, 4.22 16.08, 2.66 15.04 C1.1 14, -0.23 11.01, -0.45 9.2 C-0.68 7.38, -0.01 5.61, 1.3 4.14 C2.62 2.67, 5.99 1.06, 7.45 0.4 C8.91 -0.26, 10.29 0.02, 10.07 0.17 M5.63 1.1 C7.28 0.77, 9.25 0.31, 10.89 1.02 C12.53 1.72, 14.79 3.61, 15.47 5.33 C16.15 7.05, 15.32 9.69, 14.97 11.36 C14.62 13.03, 14.65 14.34, 13.37 15.36 C12.09 16.38, 9.09 17.62, 7.29 17.46 C5.48 17.29, 3.7 15.71, 2.52 14.36 C1.34 13.02, 0.45 11.18, 0.18 9.39 C-0.09 7.6, -0.17 4.92, 0.9 3.62 C1.98 2.32, 5.78 1.98, 6.63 1.6 C7.47 1.21, 5.91 1.22, 5.97 1.32" stroke="none" stroke-width="0" fill="#ffffff"></path><path d="M5.12 0.59 C6.79 0.35, 9.73 1.04, 11.32 1.81 C12.91 2.57, 13.96 3.58, 14.68 5.18 C15.4 6.77, 15.92 9.67, 15.63 11.38 C15.33 13.09, 14.49 14.76, 12.91 15.42 C11.32 16.09, 8.02 15.81, 6.12 15.35 C4.23 14.9, 2.65 13.88, 1.54 12.7 C0.42 11.52, -0.57 9.87, -0.56 8.26 C-0.54 6.66, 0.49 4.34, 1.62 3.05 C2.74 1.75, 5.34 0.86, 6.2 0.51 C7.05 0.16, 6.76 0.97, 6.76 0.95 M9.56 1.13 C10.87 1.92, 12.65 3.34, 13.56 4.78 C14.48 6.21, 14.87 8.31, 15.03 9.75 C15.18 11.19, 15.51 12.38, 14.51 13.42 C13.52 14.45, 10.99 16, 9.06 15.96 C7.12 15.92, 4.47 14.22, 2.9 13.19 C1.33 12.15, 0.06 11.19, -0.35 9.76 C-0.77 8.33, -0.55 6.28, 0.4 4.59 C1.36 2.91, 3.74 0.5, 5.4 -0.37 C7.06 -1.24, 9.39 -0.97, 10.37 -0.64 C11.35 -0.3, 11.57 1.52, 11.31 1.65" stroke="#ffffff" stroke-width="4" fill="none"></path></g><g stroke-linecap="round" transform="translate(62.685546875000114 104.767578125) rotate(0 7.787109375 8.029296875)"><path d="M9.65 0.71 C10.97 1.11, 12.54 1.99, 13.38 3.17 C14.22 4.34, 14.78 6.21, 14.68 7.76 C14.58 9.31, 13.62 11, 12.79 12.47 C11.95 13.94, 11.28 16.27, 9.66 16.58 C8.03 16.88, 4.5 15.42, 3.04 14.29 C1.58 13.16, 1.43 11.26, 0.9 9.79 C0.37 8.33, -0.65 6.86, -0.16 5.48 C0.33 4.11, 2.1 2.23, 3.83 1.53 C5.56 0.83, 9.17 1.57, 10.23 1.28 C11.29 0.99, 10.19 -0.1, 10.17 -0.21 M5.58 0.19 C7.11 -0.4, 8.58 0.29, 10.1 0.81 C11.61 1.34, 13.59 1.75, 14.65 3.34 C15.71 4.92, 16.6 8.48, 16.45 10.32 C16.29 12.15, 14.84 13.32, 13.72 14.35 C12.61 15.38, 11.36 16.46, 9.75 16.51 C8.14 16.57, 5.5 15.89, 4.07 14.67 C2.65 13.45, 1.68 10.83, 1.22 9.22 C0.75 7.61, 0.48 6.44, 1.29 4.99 C2.09 3.54, 5.34 1.09, 6.07 0.52 C6.81 -0.06, 5.68 1.16, 5.7 1.54" stroke="none" stroke-width="0" fill="#ffffff"></path><path d="M4.7 0.84 C6.29 0.12, 8.93 -0.53, 10.53 -0.06 C12.14 0.41, 13.32 2.07, 14.32 3.65 C15.33 5.23, 16.59 7.87, 16.55 9.4 C16.52 10.94, 15.51 11.84, 14.09 12.85 C12.67 13.86, 9.93 15.24, 8.03 15.46 C6.13 15.68, 4.01 15.01, 2.69 14.16 C1.38 13.31, 0.51 12.02, 0.14 10.36 C-0.22 8.69, -0.37 5.94, 0.5 4.15 C1.37 2.36, 4.4 0.35, 5.39 -0.4 C6.37 -1.14, 6.51 -0.68, 6.41 -0.3 M10.33 -0.52 C12.31 -0.26, 14.16 0.97, 15.17 2.7 C16.17 4.42, 16.71 7.89, 16.35 9.82 C16 11.76, 14.32 13.33, 13.04 14.32 C11.75 15.31, 10.45 15.78, 8.66 15.76 C6.86 15.74, 3.67 15.17, 2.26 14.2 C0.86 13.23, 0.46 11.39, 0.21 9.96 C-0.03 8.53, 0.28 7.06, 0.78 5.6 C1.28 4.15, 1.92 1.91, 3.22 1.23 C4.52 0.55, 7.32 1.86, 8.56 1.54 C9.8 1.23, 10.68 -0.79, 10.66 -0.65" stroke="#ffffff" stroke-width="4" fill="none"></path></g><g stroke-linecap="round"><g transform="translate(96.38671875000011 211.78125) rotate(0 33.74609375 -9.380859375)"><path d="M-3.7 -1.59 C14.64 -2.92, 36.57 -5.83, 66.38 -17.65 M1.31 -1.42 C21.26 -8.67, 43.88 -15.08, 67.14 -18.67" stroke="#ffffff" stroke-width="4" fill="none"></path></g></g><mask></mask><g stroke-linecap="round"><g transform="translate(177.6406250000001 203.76953125) rotate(0 -20.294921875 43.19140625)"><path d="M-1.59 -3.7 C-7.39 15.53, -13.64 30.55, -28.72 58.66 M-1.42 -1.29 C-12 21.59, -23.96 45.63, -29.75 56.78 M-26.66 53.93 C-33.83 66, -32.76 66.94, -41.81 88.51 M-28.78 58.91 C-32.69 65.46, -34.9 71.43, -42.3 85.63" stroke="#ffffff" stroke-width="4" fill="none"></path></g></g><mask></mask><g stroke-linecap="round"><g transform="translate(192.5234375000001 207.69140625) rotate(0 33.099609375 37.33984375)"><path d="M-3.7 1.55 C15.45 23.27, 31.24 39.7, 67.79 78.66 M-1.29 -1.1 C25.11 28.83, 52.08 59.07, 65.91 73.33" stroke="#ffffff" stroke-width="4" fill="none"></path></g></g><mask></mask><g stroke-linecap="round"><g transform="translate(205.6679687500001 194.87109375) rotate(0 51.0234375 3.595703125)"><path d="M1.55 -0.03 C24.83 2.26, 43.4 6.46, 106.02 10.74 M-1.1 -1.59 C36.07 3.59, 74.6 6.28, 100.69 8.1" stroke="#ffffff" stroke-width="4" fill="none"></path></g></g><mask></mask><g stroke-linecap="round"><g transform="translate(203.6132812500001 173.79296875) rotate(0 36.78125 -37.45703125)"><path d="M-0.03 3.72 C19.42 -18.96, 41.27 -35.59, 77.11 -72.29 M-1.59 -1.13 C17.48 -16.28, 34.4 -34.89, 74.47 -76.83" stroke="#ffffff" stroke-width="4" fill="none"></path></g></g><mask></mask><g stroke-linecap="round"><g transform="translate(182.9023437500001 163.2890625) rotate(0 -5.625 -46.869140625)"><path d="M3.72 -1.12 C-1.95 -17.88, -1.42 -35.38, -8.63 -96.57 M-1.13 -0.35 C-1.53 -22.55, -5.63 -43.44, -13.16 -92.15" stroke="#ffffff" stroke-width="4" fill="none"></path></g></g><mask></mask><g stroke-linecap="round"><g transform="translate(167.4804687500001 176.1328125) rotate(0 -46.880859375 -28.5)"><path d="M-1.12 1.11 C-30.16 -13.58, -59.95 -34.24, -96.59 -59.58 M-0.35 0.09 C-22.36 -16.39, -44.15 -30.92, -92.17 -58.57" stroke="#ffffff" stroke-width="4" fill="none"></path></g></g><mask></mask><g stroke-linecap="round"><g transform="translate(163.6914062500001 193.7109375) rotate(0 -49.787109375 11.630859375)"><path d="M1.11 1.59 C-25.38 9.95, -56.53 10.53, -102.15 21.07 M0.09 -0.29 C-23.56 5.68, -46.06 11.49, -101.14 22.38" stroke="#ffffff" stroke-width="4" fill="none"></path></g></g><mask></mask></svg>