<svg version="1.1" xmlns="http://www.w3.org/2000/svg" viewBox="0 0 449.04919563493996 633.8088448908214" width="449.04919563493996" height="633.8088448908214">
  <!-- svg-source:excalidraw -->
  
  <defs>
    
    
  </defs>
  <g stroke-linecap="round" transform="translate(150.02628293499328 174.09149941301604) rotate(343.58593648075345 95.62226922713165 98.88211931442024)"><path d="M80.95 0.78 C91.87 -3.07, 104.54 -0.73, 116.46 2.17 C128.39 5.07, 142.7 10.71, 152.51 18.18 C162.32 25.66, 168.88 36.52, 175.33 47.04 C181.77 57.56, 189.05 68.9, 191.16 81.29 C193.26 93.69, 191 108.72, 187.94 121.39 C184.88 134.07, 179.93 147.16, 172.78 157.35 C165.62 167.53, 154.97 176.19, 145.01 182.52 C135.05 188.85, 124.73 192.96, 113.01 195.32 C101.29 197.68, 86.56 199.35, 74.68 196.68 C62.81 194.01, 51.53 186.66, 41.77 179.27 C32.02 171.89, 22.76 163.19, 16.14 152.36 C9.52 141.52, 4.28 126.88, 2.06 114.27 C-0.16 101.66, 0.24 88.96, 2.8 76.7 C5.36 64.43, 10.23 50.69, 17.4 40.68 C24.57 30.66, 27.2 22.48, 45.83 16.59 C64.47 10.71, 108.41 1.83, 129.23 5.39 C150.06 8.94, 170.9 36.05, 170.77 37.92 M39.45 14.08 C48.57 6.47, 63.26 4.22, 75.75 2.33 C88.25 0.45, 102.26 0.42, 114.42 2.77 C126.57 5.13, 138.62 9.31, 148.7 16.48 C158.78 23.65, 168.28 35.48, 174.89 45.79 C181.5 56.1, 185.58 66.08, 188.36 78.34 C191.13 90.6, 193.34 107.05, 191.55 119.35 C189.75 131.65, 184.57 141.58, 177.58 152.16 C170.59 162.74, 159.91 175.74, 149.6 182.81 C139.3 189.87, 127.7 191.98, 115.74 194.54 C103.78 197.09, 89.8 200.57, 77.83 198.13 C65.86 195.7, 54.1 187.7, 43.92 179.94 C33.73 172.18, 24.01 161.35, 16.71 151.56 C9.41 141.78, 2.91 132.68, 0.11 121.22 C-2.7 109.76, -3.22 95.22, -0.14 82.8 C2.93 70.38, 11.04 57.73, 18.57 46.71 C26.1 35.69, 41.38 21.27, 45.02 16.7 C48.67 12.13, 40.16 17.53, 40.45 19.28" stroke="#000" stroke-width="2" fill="none"></path></g><g stroke-linecap="round"><g transform="translate(158.36281783372527 293.4266952517907) rotate(343.58593648075345 -21.370128350002915 16.66145600169716)"><path d="M2.11 -0.48 C2.54 -3.99, 6.71 -16.98, 2.65 -20.32 C-1.4 -23.66, -14.51 -25.43, -22.21 -20.52 C-29.91 -15.62, -41.16 -0.75, -43.54 9.11 C-45.93 18.97, -40.61 30.97, -36.5 38.65 C-32.39 46.32, -25.37 52.44, -18.86 55.15 C-12.35 57.86, -0.33 63.89, 2.58 54.9 C5.5 45.92, -0.71 10.04, -1.39 1.26 M-0.19 -3.21 C0.03 -7.55, 5.22 -21.71, 1.46 -24.17 C-2.29 -26.62, -15.29 -23.89, -22.7 -17.93 C-30.11 -11.98, -40.36 1.94, -43 11.55 C-45.65 21.16, -43 32.71, -38.55 39.7 C-34.11 46.7, -22.16 50.17, -16.33 53.54 C-10.49 56.9, -6.93 68.62, -3.53 59.89 C-0.13 51.16, 3.08 11.1, 4.07 1.14" stroke="#000" stroke-width="2" fill="none"></path></g></g><mask></mask><g stroke-linecap="round"><g transform="translate(341.1351068007535 222.27375212738224) rotate(343.58593648075345 20.875831562497297 16.66145600169716)"><path d="M-0.48 1.93 C-0.36 -1.76, -2.5 -16.44, 1.43 -20.04 C5.36 -23.63, 16.31 -24.98, 23.1 -19.64 C29.88 -14.29, 39.59 2.61, 42.15 12.04 C44.71 21.46, 42.4 29.68, 38.47 36.92 C34.53 44.16, 25.21 52.55, 18.53 55.47 C11.86 58.38, 1.29 63.88, -1.58 54.39 C-4.46 44.9, 0.63 8.01, 1.26 -1.48 M-4.19 0.51 C-4.32 -4.11, -3.8 -20.89, 0.36 -23.73 C4.52 -26.58, 13.73 -21.76, 20.77 -16.57 C27.8 -11.38, 40.17 -1.51, 42.57 7.42 C44.96 16.36, 39.88 29.28, 35.13 37.04 C30.38 44.81, 20.01 50.34, 14.06 54.02 C8.12 57.7, 1.88 68.62, -0.54 59.1 C-2.97 49.58, -0.47 6.52, -0.48 -3.09" stroke="#000" stroke-width="2" fill="none"></path></g></g><mask></mask><g stroke-linecap="round"><g transform="translate(112.38825761039601 241.15583698978287) rotate(343.58593648075345 107.93725844577733 -56.86627374492299)"><path d="M1.93 2.14 C2.71 -7.6, -1.59 -41.48, 6.77 -58.92 C15.13 -76.35, 34.66 -93.36, 52.08 -102.45 C69.5 -111.54, 92.32 -113.79, 111.28 -113.48 C130.24 -113.17, 150.66 -107.65, 165.86 -100.59 C181.07 -93.54, 195.02 -81.96, 202.52 -71.14 C210.02 -60.33, 208.88 -46.94, 210.86 -35.68 C212.84 -24.43, 213.98 -8.6, 214.39 -3.59 M-0.47 0.83 C-0.04 -8.47, -2.61 -39.09, 5.84 -55.81 C14.29 -72.53, 33.76 -90.35, 50.23 -99.51 C66.69 -108.66, 84.64 -110.85, 104.64 -110.74 C124.64 -110.63, 154.64 -104.94, 170.23 -98.83 C185.83 -92.72, 191.33 -84.18, 198.23 -74.08 C205.12 -63.97, 208.03 -49.99, 211.63 -38.18 C215.22 -26.36, 218.97 -8.1, 219.81 -3.2" stroke="#000" stroke-width="2" fill="none"></path></g></g><mask></mask><g stroke-linecap="round"><g transform="translate(154.1972264637729 333.4627208758564) rotate(343.58593648075345 40.56702330848009 19.196894958477174)"><path d="M2.14 2.42 C3.27 5.36, 2.16 13.9, 6.27 19.58 C10.39 25.27, 18.42 33.64, 26.83 36.53 C35.25 39.42, 47.45 38.23, 56.76 36.92 C66.06 35.61, 78.76 30.58, 82.68 28.66 M-0.14 1.27 C0.57 4.51, -0.65 17.98, 3.51 23.17 C7.68 28.36, 15.86 29.82, 24.86 32.42 C33.85 35.01, 48.28 39.03, 57.48 38.73 C66.67 38.42, 75.78 31.91, 80.05 30.59" stroke="#000" stroke-width="2" fill="none"></path></g></g><mask></mask><g stroke-linecap="round" transform="translate(232.20114536669638 332.20489936643145) rotate(343.58593648075345 17.38586713220576 8.330728000848609)"><path d="M17.23 -0.53 C20.88 -0.7, 26.1 1.41, 28.92 2.54 C31.74 3.67, 33.47 4.72, 34.15 6.27 C34.83 7.83, 34.65 10.38, 33.01 11.86 C31.38 13.35, 27.9 14.4, 24.35 15.21 C20.8 16.01, 15.47 17.13, 11.73 16.69 C8 16.25, 3.77 14.09, 1.96 12.58 C0.15 11.06, 0.24 9.24, 0.88 7.58 C1.51 5.93, 2.64 3.86, 5.78 2.66 C8.92 1.46, 17.2 0.71, 19.71 0.38 C22.23 0.05, 20.98 0.59, 20.86 0.67 M11.21 -0.47 C14.47 -1.43, 20.83 -1.31, 24.63 -0.42 C28.44 0.47, 32.53 3.39, 34.01 4.88 C35.5 6.38, 34.66 7.12, 33.55 8.56 C32.44 10, 30.34 12.22, 27.34 13.51 C24.35 14.8, 19.13 16.07, 15.59 16.3 C12.05 16.54, 8.59 16.01, 6.11 14.92 C3.62 13.84, 1.29 11.62, 0.69 9.8 C0.1 7.99, 0.53 5.68, 2.56 4.04 C4.6 2.4, 11.42 0.37, 12.92 -0.03 C14.41 -0.43, 11.47 1.23, 11.52 1.62" stroke="#000" stroke-width="2" fill="none"></path></g><g stroke-linecap="round"><g transform="translate(185.39273976540375 282.93334782015876) rotate(0 20.97997987987219 -13.770949356980083)"><path d="M-0.96 -0.08 C-0.86 -3.21, 0.33 -11.55, 2.78 -16.38 C5.23 -21.2, 8.47 -27.98, 13.72 -29.02 C18.97 -30.05, 29.72 -25.74, 34.28 -22.56 C38.84 -19.39, 39.59 -12.03, 41.08 -9.94 M3.71 -2.59 C3.22 -5.22, -1.01 -15.95, 0.38 -19.97 C1.77 -23.98, 6.16 -25.44, 12.05 -26.71 C17.93 -27.98, 30.08 -30.41, 35.7 -27.59 C41.32 -24.77, 45.29 -13.59, 45.78 -9.77" stroke="#000" stroke-width="2" fill="none"></path></g></g><mask></mask><g stroke-linecap="round" transform="translate(104.93259253884861 427.1792097746964) rotate(0 146.512833040016 87.99313004735657)"><path d="M-0.33 2.79 C113.51 -1.45, 228.13 2.1, 292.09 -1.48 M-1.36 0.09 C101.84 -4.16, 202.18 -2.46, 293.9 -0.36 M289.88 0.98 C292.8 63.96, 291.32 130.79, 295.47 174.47 M294.89 0.76 C294.12 40.21, 294.05 82.35, 291.1 175.51 M293.41 176.09 C201.95 179.68, 109.85 176.68, 2.03 177.67 M294.02 176.46 C183.32 176.79, 75.91 177.1, -0.72 176.14 M-2.51 179.57 C5.81 142.09, 6.09 101.65, -3.59 0.91 M-0.32 176.74 C-1.5 127.45, -2.46 76.56, -1.64 -1.26" stroke="#000" stroke-width="2" fill="none"></path></g><g stroke-linecap="round" transform="translate(238.17751238274485 497.41184602097735) rotate(0 14.523137968981132 14.523137968981132)"><path d="M15.84 -0.3 C18.81 -0.37, 21.76 1.99, 23.85 4.28 C25.95 6.57, 28.06 10.41, 28.4 13.43 C28.73 16.45, 27.36 20, 25.85 22.41 C24.35 24.82, 22.18 26.86, 19.36 27.89 C16.54 28.92, 11.78 29.74, 8.93 28.59 C6.07 27.43, 3.54 23.8, 2.22 20.97 C0.89 18.14, 0.35 14.75, 0.98 11.62 C1.62 8.49, 3.07 4.1, 6.02 2.2 C8.96 0.31, 16.11 0.38, 18.66 0.24 C21.21 0.1, 21.3 0.98, 21.31 1.36 M10.81 1.65 C13.93 0.61, 19.52 -0.18, 22.17 0.95 C24.83 2.08, 25.92 5.6, 26.72 8.41 C27.51 11.23, 27.78 14.73, 26.93 17.85 C26.08 20.98, 24.01 25.24, 21.61 27.16 C19.21 29.08, 15.51 29.86, 12.53 29.35 C9.55 28.83, 5.81 26.32, 3.72 24.07 C1.64 21.83, 0.18 19.06, 0.02 15.88 C-0.13 12.69, 0.66 7.45, 2.79 4.98 C4.92 2.52, 11.12 1.95, 12.82 1.11 C14.51 0.26, 13.02 -0.33, 12.93 -0.06" stroke="#000" stroke-width="2" fill="none"></path></g><g stroke-linecap="round"><g transform="translate(100.4969936428335 134.0296186746377) rotate(0 -6.112213602956558 -36.81040313895268)"><path d="M2.62 0.25 C5.56 -0.73, 15 -2.64, 17.57 -6.2 C20.14 -9.77, 17.92 -16.41, 18.03 -21.14 C18.13 -25.87, 18.75 -28.42, 18.21 -34.56 C17.67 -40.7, 19.7 -51.5, 14.8 -57.98 C9.89 -64.46, -3.67 -72.42, -11.21 -73.44 C-18.75 -74.47, -27.08 -71.61, -30.45 -64.11 C-33.81 -56.62, -33.9 -36.44, -31.4 -28.46 C-28.9 -20.48, -20.39 -19.76, -15.46 -16.23 C-10.53 -12.7, -4.55 -9.63, -1.82 -7.3 C0.91 -4.96, 0.48 -3.28, 0.9 -2.2 M0.59 -2.08 C4.48 -3.85, 20.4 -7.64, 23.17 -10.37 C25.95 -13.11, 18.09 -13.58, 17.23 -18.51 C16.37 -23.43, 17.72 -32.25, 18.04 -39.91 C18.36 -47.58, 23.71 -58.52, 19.16 -64.5 C14.61 -70.49, -1.37 -76.65, -9.26 -75.8 C-17.15 -74.95, -24.08 -67.32, -28.18 -59.4 C-32.28 -51.47, -35.46 -34.86, -33.85 -28.27 C-32.24 -21.68, -22.88 -23.25, -18.52 -19.86 C-14.15 -16.48, -11.12 -11.1, -7.68 -7.97 C-4.24 -4.83, 1.24 -2.03, 2.14 -1.07" stroke="#000" stroke-width="2" fill="none"></path></g></g><mask></mask><g stroke-linecap="round"><g transform="translate(73.7298660370065 132.34750174981247) rotate(0 -9.440283811139295 15.530789495745267)"><path d="M0.25 -1.47 C-2.59 3.58, -14 27.73, -17.33 32.92 M-3.06 3.9 C-6.1 9.36, -15.57 24.23, -18.73 28.92" stroke="#000" stroke-width="2" fill="none"></path></g></g><mask></mask><g stroke-linecap="round"><g transform="translate(46.53894418530825 99.6236081909422) rotate(0 -20.403194043430062 0.9135758526908972)"><path d="M-0.63 0.66 C-7.49 0.89, -33.21 1.17, -40.01 1.45 M1.24 -0.03 C-5.8 0.35, -33.25 2.73, -40.54 2.79" stroke="#000" stroke-width="2" fill="none"></path></g></g><mask></mask><g stroke-linecap="round"><g transform="translate(60.914056907724614 61.102026331293295) rotate(0 -14.921738927284679 -13.094587221902877)"><path d="M1.55 1.86 C-3.61 -2.49, -25.7 -22.66, -30.72 -27.58 M-1.06 0.4 C-6.69 -3.46, -28.66 -20.41, -33.43 -24.7" stroke="#000" stroke-width="2" fill="none"></path></g></g><mask></mask><g stroke-linecap="round"><g transform="translate(107.17885690454904 44.45049519466641) rotate(0 3.3497781265332947 -18.576042338048268)"><path d="M0.8 -0.38 C1.92 -6.59, 5.23 -30.64, 6.1 -36.61 M-0.24 -1.62 C1.33 -8.25, 7.63 -32.38, 8.5 -38.45" stroke="#000" stroke-width="2" fill="none"></path></g></g><mask></mask><g stroke-linecap="round"><g transform="translate(137.72422373414787 83.94240900600363) rotate(0 21.01224461189065 -0.6090505684606029)"><path d="M-0.38 -0.6 C6.61 -1.04, 35.34 -1.57, 42.56 -1.85 M1.63 1.71 C8.44 1.34, 35.06 -0.1, 41.9 -0.65" stroke="#000" stroke-width="2" fill="none"></path></g></g><mask></mask><g stroke-linecap="round"><g transform="translate(89.69364326655665 83.14649446415166) rotate(0 0.6562909769773455 11.740064719136498)"><path d="M-0.6 0.54 C-1.38 2.96, -4.6 10.32, -3.92 14.15 C-3.23 17.99, 1.98 22.1, 3.5 23.56 M1.29 -0.22 C0.83 1.91, -2.29 8.34, -1.54 12.52 C-0.78 16.71, 4.61 23.05, 5.82 24.91" stroke="#000" stroke-width="2" fill="none"></path></g></g><mask></mask><g stroke-linecap="round"><g transform="translate(102.76148066226409 146.06223710138403) rotate(0 10.784498888638382 -5.393687590353238)"><path d="M0.54 -0.64 C4.36 -2.52, 19 -10.29, 22.51 -11.88 M-0.63 1.65 C3.14 -0.07, 18.47 -8.6, 22.06 -10.92" stroke="#000" stroke-width="2" fill="none"></path></g></g><mask></mask><g stroke-linecap="round"><g transform="translate(111.58728955839814 151.73454975670376) rotate(0 7.004081537296884 -3.9588286949938976)"><path d="M-0.64 0.94 C1.62 -0.45, 10.38 -6.27, 12.92 -7.84 M1.23 0.39 C3.89 -0.84, 12.9 -4.95, 15.05 -6.26" stroke="#000" stroke-width="2" fill="none"></path></g></g><mask></mask><g stroke-linecap="round"><g transform="translate(114.46006951136445 155.1823856770405) rotate(0 5.176929831915118 -3.3497781265332947)"><path d="M0.94 -1.09 C2.59 -2, 8.96 -5.17, 10.43 -6.11 M-0.02 0.95 C1.43 -0.26, 8.07 -6.86, 9.52 -7.92" stroke="#000" stroke-width="2" fill="none"></path></g></g><mask></mask><g stroke-linecap="round"><g transform="translate(290.1708136206432 261.11738380298715) rotate(332.851350188029 -19.934156501650477 -13.770949356980083)"><path d="M-2.55 0.18 C-2.56 -3.58, 0.16 -16.05, -1.56 -20.37 C-3.27 -24.68, -8.2 -24.92, -12.85 -25.71 C-17.51 -26.5, -25.26 -28.09, -29.46 -25.1 C-33.67 -22.12, -36.5 -10.21, -38.09 -7.82 M1.26 -2.19 C1.14 -5.8, -0.39 -12.81, -3.05 -17.48 C-5.71 -22.16, -10.54 -29.35, -14.69 -30.25 C-18.85 -31.15, -23.68 -26.83, -27.99 -22.87 C-32.31 -18.91, -37.96 -9.35, -40.6 -6.5" stroke="#000" stroke-width="2" fill="none"></path></g></g><mask></mask><g stroke-linecap="round"><g transform="translate(395.79887461209563 605.3738192828828) rotate(0 -150.78896023224178 6.909655370775226)"><path d="M0.18 1.38 C6.38 2.3, 33.68 0.1, 39.42 2.98 C45.17 5.85, 43.18 16, 34.63 18.63 C26.08 21.26, 8.7 18.39, -11.88 18.78 C-32.46 19.16, -60.74 20.71, -88.86 20.93 C-116.98 21.15, -143.9 20.87, -180.59 20.11 C-217.28 19.35, -281.75 19.5, -309.02 16.38 C-336.29 13.26, -342.86 5.32, -344.22 1.38 C-345.58 -2.57, -321.12 -6.31, -317.18 -7.27 M-3.17 -0.34 C3.78 1.29, 38.92 4.18, 45.08 6.57 C51.24 8.96, 43.27 12.8, 33.81 13.99 C24.35 15.18, 9.29 12.32, -11.66 13.71 C-32.62 15.1, -64.14 21.62, -91.94 22.34 C-119.73 23.06, -142.45 19.55, -178.45 18.03 C-214.45 16.5, -281.18 15.93, -307.94 13.2 C-334.69 10.47, -336.95 4.26, -339 1.65 C-341.04 -0.96, -323.41 -1.45, -320.2 -2.47" stroke="#000" stroke-width="2" fill="none"></path></g></g><mask></mask><g stroke-linecap="round"><g transform="translate(239.01527397128774 413.4539281973048) rotate(0 9.333811653049224 -21.437104252738152)"><path d="M1.38 -1.37 C-11.36 -0.93, -61.06 2.56, -78.97 2.85 C-96.89 3.13, -110.25 3.42, -106.13 0.34 C-102 -2.73, -66.55 -10.41, -54.22 -15.6 C-41.9 -20.79, -43.61 -29, -32.2 -30.78 C-20.78 -32.57, -0.72 -26.9, 14.26 -26.33 C29.24 -25.75, 44.04 -24.38, 57.69 -27.36 C71.34 -30.34, 87.72 -42.03, 96.17 -44.22 C104.62 -46.41, 103.06 -45.69, 108.4 -40.5 C113.75 -35.31, 131.45 -20.5, 128.25 -13.06 C125.04 -5.63, 102.32 2.38, 89.15 4.13 C75.99 5.88, 55.92 -1.48, 49.25 -2.58 M-1.32 4.05 C-14.2 3.69, -63.62 -1.01, -81.24 -1.17 C-98.87 -1.33, -111.81 4.99, -107.05 3.08 C-102.29 1.18, -64.65 -6.91, -52.68 -12.6 C-40.7 -18.29, -45.51 -28.29, -35.18 -31.06 C-24.85 -33.83, -6.4 -30.58, 9.33 -29.22 C25.06 -27.86, 44.95 -20.42, 59.2 -22.9 C73.45 -25.38, 85.94 -41.91, 94.82 -44.1 C103.71 -46.29, 107.92 -40.88, 112.52 -36.05 C117.12 -31.23, 127.38 -22.31, 122.4 -15.13 C117.43 -7.95, 94.14 3.9, 82.68 7.03 C71.23 10.17, 59.31 4.34, 53.65 3.66" stroke="#000" stroke-width="2" fill="none"></path></g></g><mask></mask></svg>