<svg xmlns="http://www.w3.org/2000/svg" viewBox="514.00 314.00 252.00 252.00" width="252" height="252"><polyline points="629.86,402.94 678.46,415.61 628.71,408.71 673.91,430.61 626.46,414.14 666.52,444.45 623.19,419.03 656.57,456.57 619.03,423.19 644.45,466.52 614.14,426.46 630.61,473.91 608.71,428.71 615.61,478.46 602.94,429.86 600.00,480.00 597.06,429.86 584.39,478.46 591.29,428.71 569.39,473.91 585.86,426.46 555.55,466.52 580.97,423.19 543.43,456.57 576.81,419.03 533.48,444.45 573.54,414.14 526.09,430.61 571.29,408.71 521.54,415.61 570.14,402.94 520.00,400.00 570.14,397.06 521.54,384.39 571.29,391.29 526.09,369.39 573.54,385.86 533.48,355.55 576.81,380.97 543.43,343.43 580.97,376.81 555.55,333.48 585.86,373.54 569.39,326.09 591.29,371.29 584.39,321.54 597.06,370.14 600.00,320.00 602.94,370.14 615.61,321.54 608.71,371.29 630.61,326.09 614.14,373.54 644.45,333.48 619.03,376.81 656.57,343.43 623.19,380.97 666.52,355.55 626.46,385.86 673.91,369.39 628.71,391.29 678.46,384.39 629.86,397.06 680.00,400.00 629.86,402.94" fill="#fd7e14" stroke="#000000" stroke-width="1" opacity="1.0" stroke-linecap="round" stroke-linejoin="round"/></svg>