<svg version="1.1" xmlns="http://www.w3.org/2000/svg" viewBox="0 0 212.823307147376 227.2418686653101" width="212.823307147376" height="227.2418686653101">
  <!-- svg-source:excalidraw -->
  
  <defs>
    
    
  </defs>
  <g stroke-linecap="round" transform="translate(71.86762442947975 6) rotate(0 36.92869818176507 28.347195808091936)"><path d="M9.47 9.56 C9.47 9.56, 9.47 9.56, 9.47 9.56 M9.47 9.56 C9.47 9.56, 9.47 9.56, 9.47 9.56 M4.49 39.68 C18.94 22.56, 29.05 8.03, 37.95 1.19 M4.49 39.68 C18.39 24.78, 31.13 10.82, 37.95 1.19 M16.57 50.18 C29.87 31.95, 45.65 18.04, 55.93 4.89 M16.57 50.18 C25.03 39.52, 36.36 29.15, 55.93 4.89 M33.23 55.39 C42.32 46.15, 47.34 39.69, 69.32 13.88 M33.23 55.39 C42.42 43.46, 53.76 31.83, 69.32 13.88 M60.4 48.53 C63.78 46.67, 66 43.03, 75.49 31.17 M60.4 48.53 C64.1 45.07, 66.53 40.61, 75.49 31.17" stroke="#ced4da" stroke-width="2" fill="none"></path><path d="M27.31 0.77 C34.05 -1.14, 44.58 -0.71, 51.5 1.48 C58.41 3.67, 64.96 9.03, 68.8 13.91 C72.64 18.79, 75.15 25.4, 74.56 30.75 C73.96 36.09, 69.9 41.93, 65.25 45.99 C60.6 50.06, 53.55 53.6, 46.65 55.14 C39.75 56.68, 30.66 57.11, 23.84 55.23 C17.03 53.35, 9.88 48.62, 5.75 43.88 C1.63 39.15, -1.47 32.48, -0.9 26.81 C-0.33 21.15, 2.69 14.44, 9.19 9.88 C15.7 5.32, 31.78 0.84, 38.11 -0.56 C44.44 -1.96, 47.25 0.89, 47.16 1.48 M18.62 3.74 C24.1 0.97, 33.39 -0.54, 40.71 0.4 C48.03 1.33, 57.2 5.66, 62.56 9.35 C67.92 13.03, 71.83 17.2, 72.87 22.53 C73.91 27.86, 71.93 36.11, 68.79 41.31 C65.64 46.51, 60.16 51.12, 53.99 53.73 C47.83 56.34, 38.91 57.72, 31.79 56.96 C24.67 56.2, 16.46 53.35, 11.27 49.17 C6.08 45, 1.9 37.28, 0.64 31.89 C-0.62 26.51, 0.33 21.89, 3.69 16.88 C7.05 11.87, 17.96 4.08, 20.81 1.82 C23.67 -0.44, 20.75 2.42, 20.83 3.32" stroke="#1864ab" stroke-width="4" fill="none"></path></g><g stroke-linecap="round"><g transform="translate(84.8859902773695 35.77237945371292) rotate(0 21.995561190059846 4.026306324406071)"><path d="M0.37 -0.27 C3.98 1.08, 14.76 8.5, 21.96 8.59 C29.17 8.68, 39.86 1.7, 43.6 0.26 M-0.1 0.78 C3.38 2.22, 13.93 7.89, 21.4 7.9 C28.87 7.91, 40.83 2.1, 44.71 0.84" stroke="#1864ab" stroke-width="4" fill="none"></path></g></g><mask></mask><g stroke-linecap="round"><g transform="translate(92.68903699945054 27.246039897028286) rotate(0 3.232180172463586 -1.392169991686906)" fill-rule="evenodd"><path d="M0 0 C0 0, 0 0, 0 0 M0 0 C0 0, 0 0, 0 0" stroke="#ced4da" stroke-width="2" fill="none"></path><path d="M-0.35 0.14 C0.37 -0.41, 3.17 -3.21, 4.34 -3.18 C5.5 -3.15, 6.31 -0.21, 6.64 0.32 M0.12 -0.1 C0.81 -0.61, 3.1 -2.81, 4.16 -2.84 C5.22 -2.87, 6.15 -0.82, 6.5 -0.29" stroke="#1864ab" stroke-width="4" fill="none"></path></g></g><mask></mask><g stroke-linecap="round"><g transform="translate(113.40319815058558 27.36243640854132) rotate(0 3.232180172463643 -1.392169991686906)" fill-rule="evenodd"><path d="M0 0 C0 0, 0 0, 0 0 M0 0 C0 0, 0 0, 0 0" stroke="#ced4da" stroke-width="2" fill="none"></path><path d="M0.12 -0.2 C0.73 -0.77, 2.82 -3.34, 3.91 -3.26 C5 -3.17, 6.24 -0.23, 6.67 0.31 M-0.25 0.46 C0.46 -0.09, 3.45 -2.82, 4.59 -2.95 C5.72 -3.08, 6.22 -0.83, 6.55 -0.32" stroke="#1864ab" stroke-width="4" fill="none"></path></g></g><mask></mask><g stroke-linecap="round"><g transform="translate(96.81578906955633 77.07929761756196) rotate(0 -44.96042062253446 12.600846433112345)"><path d="M-0.58 -0.56 C-8.41 1, -30.9 5.74, -45.8 10.18 C-60.71 14.61, -82.53 23.44, -90.01 26.05 M1.31 1.76 C-6.67 3.38, -30.78 7.53, -46.14 11.26 C-61.49 15, -83.38 22.09, -90.82 24.16" stroke="#1864ab" stroke-width="4" fill="none"></path></g></g><mask></mask><g stroke-linecap="round"><g transform="translate(113.07013454821185 74.84245394438531) rotate(0 46.45164291170113 12.078918973218212)"><path d="M-0.56 1.17 C7.07 2.75, 30.84 5.15, 46.56 8.86 C62.28 12.57, 85.92 20.78, 93.75 23.44 M1.35 0.74 C9.28 2.56, 33.48 6.41, 48.83 10.36 C64.17 14.3, 85.88 22.34, 93.43 24.38" stroke="#1864ab" stroke-width="4" fill="none"></path></g></g><mask></mask><g stroke-linecap="round"><g transform="translate(107.10523173897673 84.68453607071132) rotate(0 -0.8947347387568811 63.07880249550392)"><path d="M1.17 -0.86 C0.96 8.5, -1.41 34.3, -1.87 55.58 C-2.34 76.86, -1.89 114.88, -1.61 126.81 M0.33 1.31 C0 10.38, -2.96 33.32, -2.87 53.9 C-2.77 74.48, 0.37 112.95, 0.91 124.8" stroke="#1864ab" stroke-width="4" fill="none"></path></g></g><mask></mask><g stroke-linecap="round"><g transform="translate(95.92104750451517 221.28071415159712) rotate(0 -18.491182325547925 -0.14912359417353116)"><path d="M-0.39 -0.04 C-6.45 -0.23, -30.54 -0.63, -36.59 -0.63 M0.41 -0.53 C-5.67 -0.43, -30.61 -0.04, -36.82 -0.1" stroke="#1864ab" stroke-width="4" fill="none"></path></g></g><mask></mask><g stroke-linecap="round"><g transform="translate(111.87715944739193 220.83334678221863) rotate(0 19.236796883273428 -0.2236836846892345)"><path d="M-0.04 0.39 C6.23 0.43, 31.68 -0.08, 38.15 -0.15 M-0.72 0.11 C5.68 0.03, 32.66 -0.8, 39.21 -0.96" stroke="#1864ab" stroke-width="4" fill="none"></path></g></g><mask></mask></svg>