<svg xmlns="http://www.w3.org/2000/svg" viewBox="277.55 -44.36 211.08 230.30" width="211" height="230"><ellipse cx="385.45" cy="-7.29" rx="36.93" ry="28.35" stroke="#1864ab" stroke-width="4" opacity="1.0" fill="none"/><polyline points="385.68,-38.21 402.84,-35.08 414.16,-25.13 421.23,-15.23 422.22,-1.80 416.84,7.40 385.11,-31.04" fill="#fab005" stroke="#e67700" stroke-width="2" opacity="1.0" stroke-linecap="round" stroke-linejoin="round"/><polyline points="384.41,-34.51 369.46,-12.09 350.68,0.56 348.58,-10.75 353.75,-22.44 368.77,-34.27 385.12,-38.36" fill="#fab005" stroke="#e67700" stroke-width="2" opacity="1.0" stroke-linecap="round" stroke-linejoin="round"/><polyline points="369.74,6.58 383.12,12.28 396.26,5.89" fill="none" stroke="#1864ab" stroke-width="4" opacity="1.0" stroke-linecap="round" stroke-linejoin="round"/><polyline points="370.48,-10.05 377.29,-13.44 382.51,-9.87" fill="none" stroke="#1864ab" stroke-width="4" opacity="1.0" stroke-linecap="round" stroke-linejoin="round"/><polyline points="389.44,-11.50 393.58,-14.47 395.90,-11.31" fill="none" stroke="#1864ab" stroke-width="4" opacity="1.0" stroke-linecap="round" stroke-linejoin="round"/><polyline points="373.47,35.44 326.50,46.47 283.55,60.64" fill="none" stroke="#1864ab" stroke-width="4" opacity="1.0" stroke-linecap="round" stroke-linejoin="round"/><polyline points="389.72,33.20 437.15,42.15 482.63,57.36" fill="none" stroke="#1864ab" stroke-width="4" opacity="1.0" stroke-linecap="round" stroke-linejoin="round"/><polyline points="383.76,43.04 381.97,97.77 382.87,169.20" fill="none" stroke="#1864ab" stroke-width="4" opacity="1.0" stroke-linecap="round" stroke-linejoin="round"/><polyline points="372.58,179.64 335.59,179.34" fill="none" stroke="#1864ab" stroke-width="4" opacity="1.0" stroke-linecap="round" stroke-linejoin="round"/><polyline points="388.53,179.19 427.01,178.74" fill="none" stroke="#1864ab" stroke-width="4" opacity="1.0" stroke-linecap="round" stroke-linejoin="round"/><polyline points="421.36,8.49 427.68,16.59 450.46,11.53 445.40,23.93 436.04,6.47 421.36,8.49" fill="#fab005" stroke="#e67700" stroke-width="2" opacity="1.0" stroke-linecap="round" stroke-linejoin="round"/><polyline points="384.16,45.20 377.92,98.26 356.41,133.28 411.21,130.86 381.73,95.83 384.16,45.20" fill="#fab005" stroke="#1864ab" stroke-width="4" opacity="1.0" stroke-linecap="round" stroke-linejoin="round"/></svg>