<svg version="1.1" xmlns="http://www.w3.org/2000/svg" viewBox="0 0 280.7744140625 153.2876065625528" width="280.7744140625" height="153.2876065625528">
  <!-- svg-source:excalidraw -->
  
  <defs>
    
    
  </defs>
  <g stroke-linecap="round" transform="translate(6 6) rotate(0 134.38720703125 64.3212890625)"><path d="M76.09 6.79 C88.97 2.74, 107.42 1.19, 123.63 0.5 C139.83 -0.18, 157.55 0.49, 173.3 2.68 C189.05 4.88, 205.39 8.92, 218.11 13.66 C230.82 18.41, 241.37 24.32, 249.61 31.14 C257.84 37.95, 264.93 46.8, 267.53 54.56 C270.13 62.31, 268.68 70.24, 265.2 77.64 C261.72 85.05, 255.27 92.49, 246.63 98.99 C237.99 105.49, 226.31 112.02, 213.35 116.65 C200.39 121.28, 184.61 124.87, 168.85 126.77 C153.09 128.67, 134.76 128.83, 118.79 128.05 C102.81 127.28, 87.23 125.84, 72.99 122.13 C58.75 118.42, 44.21 111.64, 33.35 105.81 C22.49 99.97, 13.3 94.21, 7.82 87.12 C2.34 80.02, 0.12 71.03, 0.45 63.22 C0.78 55.41, 3.62 47.27, 9.8 40.25 C15.99 33.22, 24.18 27.01, 37.57 21.05 C50.96 15.09, 79.14 7.55, 90.15 4.48 C101.17 1.4, 103.21 1.67, 103.65 2.6 M96.01 2.15 C110.49 -0.58, 130.87 -0.06, 146.85 0.65 C162.83 1.35, 177.81 2.91, 191.9 6.4 C205.99 9.89, 220.33 15.83, 231.38 21.58 C242.44 27.32, 252.11 33.64, 258.22 40.87 C264.34 48.1, 267.76 57.26, 268.07 64.98 C268.38 72.7, 265.7 80.18, 260.08 87.19 C254.45 94.21, 245.18 101.09, 234.32 107.04 C223.47 113, 209.51 119.48, 194.96 122.92 C180.4 126.36, 163.01 127.32, 147.01 127.69 C131.01 128.06, 114.6 127.04, 98.96 125.16 C83.32 123.28, 66.28 120.94, 53.15 116.42 C40.02 111.9, 28.48 104.43, 20.18 98.04 C11.88 91.65, 6.49 85.58, 3.35 78.07 C0.22 70.56, -1.45 60.58, 1.37 52.98 C4.19 45.37, 11.71 39.07, 20.27 32.43 C28.82 25.79, 39.99 17.94, 52.69 13.13 C65.39 8.32, 88.9 4.99, 96.49 3.58 C104.08 2.16, 97.62 3.61, 98.23 4.63" stroke="#000000" stroke-width="1" fill="none"></path></g><g stroke-linecap="round"><g transform="translate(33.139768016581684 106.43506855867417) rotate(0 -1.0738699776786689 20.094367825255176)" fill-rule="evenodd"><path d="M0 0 C-3.15 6.7, -21.7 37.98, -18.91 40.19 C-16.11 42.4, 13.61 19.95, 16.76 13.26 C19.91 6.56, 2.79 2.21, 0 0" stroke="none" stroke-width="0" fill="#fff" fill-rule="evenodd"></path><path d="M0 0 C-3.15 6.7, -21.7 37.98, -18.91 40.19 C-16.11 42.4, 13.61 19.95, 16.76 13.26 C19.91 6.56, 2.79 2.21, 0 0 M0 0 C-3.15 6.7, -21.7 37.98, -18.91 40.19 C-16.11 42.4, 13.61 19.95, 16.76 13.26 C19.91 6.56, 2.79 2.21, 0 0" stroke="#fff" stroke-width="1" fill="none"></path></g></g><mask></mask><g stroke-linecap="round"><g transform="translate(32.00048828125068 106.82320232780648) rotate(0 1.1104412468110354 19.926957110969624)"><path d="M-0.21 0.78 C-3.21 7.45, -20.96 38.65, -17.49 40.38 C-14.02 42.11, 14.57 15.8, 20.63 11.16 M-1.78 0.14 C-4.97 6.42, -22.05 36.53, -18.38 38.54 C-14.7 40.54, 14.12 16.87, 20.28 12.18" stroke="#000000" stroke-width="1" fill="none"></path></g></g><mask></mask></svg>