<svg version="1.1" xmlns="http://www.w3.org/2000/svg" viewBox="0 0 113.5314384376511 227.7845206722387" width="113.5314384376511" height="227.7845206722387">
  <!-- svg-source:excalidraw -->
  
  <defs>
    
    
  </defs>
  <g stroke-linecap="round"><g transform="translate(54.03313614992271 76.99624337208903) rotate(0 -23.48678689236874 20.847399915561788)"><path d="M-0.52 -1.14 C-8.7 0.82, -47.8 4.02, -48.03 11.02 C-48.27 18.03, -9.71 35.72, -1.95 40.88 M1.4 0.88 C-6.51 3.1, -45.72 5.74, -45.88 12.56 C-46.03 19.37, -6.93 36.65, 0.48 41.77" stroke="#1864ab" stroke-width="4" fill="none"></path></g></g><mask></mask><g stroke-linecap="round" transform="translate(29.245103743518712 6) rotate(0 36.92869818176507 28.347195808091936)"><path d="M10.05 10.06 C10.05 10.06, 10.05 10.06, 10.05 10.06 M10.05 10.06 C10.05 10.06, 10.05 10.06, 10.05 10.06 M5.07 40.18 C14.59 29.61, 22.81 23.33, 39.19 0.94 M5.07 40.18 C17.16 25.85, 28.27 12.08, 39.19 0.94 M17.15 50.68 C29.64 37.47, 42.6 23.69, 56.51 5.4 M17.15 50.68 C31.78 31.71, 47.53 14.49, 56.51 5.4 M34.47 55.14 C43.7 41.62, 57.39 28.72, 69.9 14.39 M34.47 55.14 C43.39 43.68, 54.1 31.37, 69.9 14.39 M61.64 48.28 C64.49 46.06, 65.84 43.32, 68.2 40.73 M61.64 48.28 C63.86 46.13, 64.84 44.11, 68.2 40.73" stroke="#ced4da" stroke-width="2" fill="none"></path><path d="M51.56 1.76 C58.1 3.59, 65.65 8.89, 69.2 13.84 C72.76 18.78, 73.74 25.91, 72.91 31.42 C72.08 36.93, 69.07 42.85, 64.23 46.9 C59.4 50.95, 50.93 54.53, 43.91 55.73 C36.89 56.92, 28.55 56.47, 22.11 54.09 C15.67 51.7, 8.88 46.19, 5.26 41.42 C1.64 36.65, -0.48 30.74, 0.37 25.46 C1.22 20.18, 5.57 13.91, 10.33 9.75 C15.09 5.59, 21.11 1.14, 28.94 0.5 C36.76 -0.15, 51.64 4.58, 57.27 5.86 C62.89 7.14, 63.08 7.89, 62.66 8.19 M38.08 0.44 C44.69 0.29, 51.57 3.39, 57.17 6.31 C62.76 9.22, 69.31 13.06, 71.65 17.93 C73.98 22.8, 73.46 30.07, 71.18 35.55 C68.9 41.02, 63.71 47.09, 57.99 50.79 C52.26 54.5, 43.98 57.63, 36.82 57.79 C29.67 57.94, 20.95 54.99, 15.03 51.74 C9.11 48.49, 3.56 43.54, 1.32 38.3 C-0.93 33.05, -0.85 25.97, 1.58 20.29 C4 14.61, 9.91 7.57, 15.88 4.22 C21.85 0.88, 33.77 0.96, 37.39 0.23 C41.01 -0.51, 37.85 -0.6, 37.57 -0.2" stroke="#1864ab" stroke-width="4" fill="none"></path></g><g stroke-linecap="round"><g transform="translate(62.43951531010157 44.49632684844697) rotate(0 12.868302412555863 -4.151193345730236)"><path d="M-0.32 -0.24 C2.16 -0.34, 10.79 1.35, 15.13 -0.12 C19.48 -1.59, 24.03 -7.62, 25.73 -9.08 M0.52 0.83 C3.14 1.01, 11.96 1.92, 16.1 0.33 C20.24 -1.25, 23.85 -7.23, 25.38 -8.69" stroke="#1864ab" stroke-width="4" fill="none"></path></g></g><mask></mask><g stroke-linecap="round"><g transform="translate(70.44761386225082 74.75939969891238) rotate(0 14.343020779093422 -7.386439597199793)"><path d="M-1.14 -1.06 C3.76 0.98, 26.45 16.2, 28.68 11.73 C30.9 7.27, 14.74 -21.16, 12.19 -27.83 M0.47 1 C5.27 3.22, 25.36 17.42, 27.72 12.8 C30.09 8.18, 16.98 -19.99, 14.66 -26.74" stroke="#1864ab" stroke-width="4" fill="none"></path></g></g><mask></mask><g stroke-linecap="round"><g transform="translate(64.48271105301592 84.60148182523838) rotate(0 -0.894734738756938 63.07880249550392)"><path d="M-1.06 -0.01 C-1.42 9.16, -2.64 32.83, -2.69 53.92 C-2.73 75, -1.47 114.47, -1.32 126.49 M0.59 -1.06 C0.65 8.35, 0.04 33.52, -0.45 55.03 C-0.93 76.53, -2.05 115.97, -2.32 127.98" stroke="#1864ab" stroke-width="4" fill="none"></path></g></g><mask></mask><g stroke-linecap="round"><g transform="translate(53.29852681855414 221.1976599061242) rotate(0 -18.491182325547925 -0.14912359417353116)"><path d="M0 -0.41 C-6.14 -0.41, -31.22 -0.44, -37.35 -0.5 M-0.67 0.57 C-6.59 0.68, -30.24 0.25, -36.31 0.1" stroke="#1864ab" stroke-width="4" fill="none"></path></g></g><mask></mask><g stroke-linecap="round"><g transform="translate(69.25463876143112 220.7502925367457) rotate(0 19.236796883273428 -0.2236836846892345)"><path d="M-0.41 -0.37 C6.05 -0.42, 31.87 -0.27, 38.28 -0.29 M0.38 0.63 C6.79 0.41, 31.28 -1.09, 37.74 -1.18" stroke="#1864ab" stroke-width="4" fill="none"></path></g></g><mask></mask><g stroke-linecap="round"><g transform="translate(76.62209676142152 22.74427268348283) rotate(0 3.232180172463586 -1.392169991686906)" fill-rule="evenodd"><path d="M0 0 C0 0, 0 0, 0 0 M0 0 C0 0, 0 0, 0 0" stroke="#ced4da" stroke-width="2" fill="none"></path><path d="M0.13 0.28 C0.89 -0.21, 3.25 -2.76, 4.31 -2.79 C5.36 -2.82, 6.12 -0.41, 6.45 0.13 M-0.23 0.12 C0.52 -0.48, 3.04 -3.38, 4.12 -3.32 C5.19 -3.26, 5.85 -0.03, 6.22 0.48" stroke="#1864ab" stroke-width="4" fill="none"></path></g></g><mask></mask><g stroke-linecap="round"><g transform="translate(64.39575828037482 23.98109777181929) rotate(0 3.232180172463586 -1.392169991686906)" fill-rule="evenodd"><path d="M0 0 C0 0, 0 0, 0 0 M0 0 C0 0, 0 0, 0 0" stroke="#ced4da" stroke-width="2" fill="none"></path><path d="M0.28 0.17 C0.98 -0.35, 3.3 -2.96, 4.32 -2.98 C5.34 -3, 6.01 -0.47, 6.4 0.06 M0 -0.05 C0.65 -0.52, 3.11 -2.61, 4.14 -2.54 C5.16 -2.46, 5.69 -0.13, 6.15 0.38" stroke="#1864ab" stroke-width="4" fill="none"></path></g></g><mask></mask></svg>