<svg version="1.1" xmlns="http://www.w3.org/2000/svg" viewBox="0 0 403.1567144868069 521.7715615784526" width="403.1567144868069" height="521.7715615784526">
  <!-- svg-source:excalidraw -->
  
  <defs>
    
    
  </defs>
  <g stroke-linecap="round" transform="translate(96.85112736079361 54.872077224966375) rotate(345.6156954171085 95.62226922713165 98.88211931442024)"><path d="M34.55 25.09 C42.44 16.58, 54.58 10.46, 66.26 6.47 C77.95 2.48, 92.76 0.65, 104.65 1.16 C116.54 1.68, 127.13 4.17, 137.61 9.54 C148.08 14.92, 159.62 23.45, 167.53 33.42 C175.43 43.39, 181.2 57.2, 185.04 69.38 C188.87 81.56, 191.46 94.03, 190.54 106.5 C189.61 118.97, 184.68 132.9, 179.5 144.2 C174.32 155.51, 168.27 166.51, 159.46 174.32 C150.65 182.13, 138.17 187.3, 126.65 191.04 C115.13 194.78, 102.62 197.33, 90.35 196.76 C78.07 196.19, 64.36 193.29, 53.01 187.63 C41.66 181.98, 30.6 172.53, 22.25 162.82 C13.91 153.11, 6.43 141.38, 2.95 129.37 C-0.53 117.37, 0.25 103.12, 1.36 90.79 C2.48 78.46, -5.53 70.41, 9.64 55.39 C24.81 40.37, 68.86 6.63, 92.37 0.67 C115.87 -5.3, 150.99 17.96, 150.65 19.62 M58.28 10.65 C68.5 5.41, 84.68 2.96, 96.59 2.5 C108.5 2.03, 118.56 3.35, 129.75 7.84 C140.94 12.34, 154.58 20.25, 163.74 29.46 C172.89 38.67, 180.09 51.46, 184.68 63.08 C189.27 74.7, 191.23 86.85, 191.28 99.19 C191.32 111.53, 189.21 125.45, 184.95 137.1 C180.7 148.76, 174.26 160.52, 165.74 169.13 C157.21 177.74, 145.31 183.83, 133.79 188.77 C122.27 193.71, 109.24 198.74, 96.61 198.77 C83.98 198.8, 68.95 194.14, 58 188.96 C47.06 183.79, 39.21 176.03, 30.94 167.74 C22.67 159.44, 13.5 150.82, 8.38 139.18 C3.26 127.55, 0.86 111.17, 0.22 97.92 C-0.41 84.68, 0.07 70.72, 4.55 59.7 C9.03 48.67, 18 40.49, 27.09 31.78 C36.19 23.06, 53.34 10.69, 59.11 7.4 C64.89 4.11, 61.62 10.34, 61.76 12.03" stroke="#000" stroke-width="2" fill="none"></path></g><g stroke-linecap="round" transform="translate(56.60318313466212 318.7607108084386) rotate(0 146.512833040016 87.99313004735657)"><path d="M-2.12 0.26 C113.2 -1.43, 232.02 -2.56, 295.24 2.92 M-0.39 -0.67 C99.95 3.35, 201.63 2.47, 291.89 0.62 M289.54 3.58 C292.51 65.94, 294.86 128.37, 291.78 172.25 M292.44 1 C296.34 48.97, 295.97 96.76, 291.94 176.58 M293.03 178.76 C218.65 174.73, 139.03 172.89, 1.07 177.07 M293.6 176.32 C195.6 176.99, 97.48 176.45, -0.57 176.07 M3.14 173.77 C3.13 119.51, 2.39 56.15, -3.23 -2.84 M-0.3 177.81 C-1.02 123.79, -2.2 75.43, -0.7 -0.39" stroke="#000" stroke-width="2" fill="none"></path></g><g stroke-linecap="round" transform="translate(189.84810297855813 388.99334705471995) rotate(0 14.523137968981132 14.52313796898116)"><path d="M10.07 1.54 C12.85 0.38, 17.91 0.5, 20.68 1.4 C23.45 2.3, 25.39 4.37, 26.69 6.94 C28 9.51, 29.14 13.55, 28.52 16.82 C27.91 20.08, 25.4 24.47, 22.99 26.53 C20.58 28.6, 17.2 29.3, 14.08 29.2 C10.95 29.1, 6.46 27.94, 4.26 25.92 C2.06 23.9, 1.16 20.38, 0.88 17.09 C0.61 13.81, 0.71 9.05, 2.59 6.2 C4.47 3.35, 10.43 0.93, 12.17 0 C13.92 -0.93, 13.23 0.36, 13.06 0.61 M7.39 1.12 C10.14 -0.34, 15.4 0.51, 18.59 1.42 C21.79 2.33, 24.84 4.4, 26.57 6.58 C28.3 8.77, 29.13 11.65, 28.96 14.53 C28.79 17.41, 27.59 21.68, 25.55 23.87 C23.52 26.06, 19.92 26.96, 16.75 27.66 C13.59 28.36, 9.11 29.35, 6.57 28.07 C4.03 26.78, 2.55 23.12, 1.51 19.96 C0.47 16.8, -0.85 12.09, 0.32 9.11 C1.49 6.14, 7.14 3.08, 8.52 2.1 C9.91 1.12, 8.61 3, 8.63 3.22" stroke="#000" stroke-width="2" fill="none"></path></g><g stroke-linecap="round"><g transform="translate(130.31697817268525 175.10934527956144) rotate(0 15.415166657538236 -12.083667801191297)"><path d="M0.24 -1.87 C1.16 -4.34, 4.58 -13.46, 7.74 -16.82 C10.89 -20.19, 14.87 -21.07, 19.18 -22.08 C23.49 -23.1, 31.88 -22.33, 33.58 -22.92 M-3.07 3.29 C-2.55 0.18, 3.05 -16.04, 6.53 -21 C10.02 -25.96, 14.42 -25.27, 17.83 -26.48 C21.24 -27.7, 24.36 -28.44, 27.01 -28.27" stroke="#000" stroke-width="2" fill="none"></path></g></g><mask></mask><g stroke-linecap="round"><g transform="translate(190.10293663999266 128.5769755756351) rotate(0 17.620297243266577 -9.606564605432197)"><path d="M-1.87 1.9 C-0.17 -0.43, 4.06 -10.69, 8.21 -13.76 C12.36 -16.82, 18.32 -15.31, 23.04 -16.47 C27.75 -17.62, 34.7 -20.09, 36.49 -20.67 M2.31 0.47 C3.96 -2.77, 3.47 -14.81, 6.81 -18.31 C10.15 -21.8, 17.2 -20.41, 22.36 -20.5 C27.52 -20.59, 35.11 -19.03, 37.75 -18.85" stroke="#000" stroke-width="2" fill="none"></path></g></g><mask></mask><g stroke-linecap="round"><g transform="translate(110.16332023007828 163.94325201872422) rotate(0 9.076961230612824 -23.493311420410933)"><path d="M1.9 1.54 C4.67 -1.89, 13.7 -14.6, 16.86 -22.48 C20.03 -30.36, 20.93 -41.41, 20.9 -45.74 M-0.51 -0.09 C1.94 -4.12, 11.57 -17.94, 15.09 -26.36 C18.6 -34.77, 20.35 -47.21, 20.59 -50.59" stroke="#000" stroke-width="2" fill="none"></path></g></g><mask></mask><g stroke-linecap="round"><g transform="translate(178.59467294208832 78.32351895656976) rotate(0 29.900578171431448 8.54302233469491)"><path d="M1.54 0.85 C5.05 2.95, 11.74 12.03, 19.17 14.49 C26.6 16.96, 39.57 16.57, 46.1 15.63 C52.63 14.7, 56.29 10.21, 58.36 8.88 M-1.06 -1.16 C2.43 0.06, 10.39 7.79, 18.06 10.98 C25.74 14.16, 38.29 17.93, 44.97 17.95 C51.65 17.97, 55.15 12.83, 58.16 11.09" stroke="#000" stroke-width="2" fill="none"></path></g></g><mask></mask><g stroke-linecap="round"><g transform="translate(139.55540661375824 203.6683058750538) rotate(0 6.94120564693992 8.0090834387764)"><path d="M0.36 0.89 C2.74 3.54, 12.91 14.14, 15.06 16.55 M-0.91 0.32 C1.34 2.55, 12.55 12.03, 14.73 14.71" stroke="#000" stroke-width="2" fill="none"></path></g></g><mask></mask><g stroke-linecap="round"><g transform="translate(150.39013596945426 192.89530383254683) rotate(0 6.941205646939977 8.009083438776457)"><path d="M0.89 1.18 C3.19 3.68, 12.36 12.97, 14.42 15.4 M-0.1 0.75 C2.03 3.37, 11.71 13.92, 13.75 16.61" stroke="#000" stroke-width="2" fill="none"></path></g></g><mask></mask><g stroke-linecap="round"><g transform="translate(160.07023434366067 183.72675832619316) rotate(0 6.941205646939977 8.009083438776457)"><path d="M1.18 0.54 C3.33 2.95, 11.19 12.91, 13.26 15.4 M0.34 -0.23 C2.85 2.26, 13.59 13.82, 15.64 16.61" stroke="#000" stroke-width="2" fill="none"></path></g></g><mask></mask><g stroke-linecap="round"><g transform="translate(208.8990036773165 153.9835303472709) rotate(0 6.94120564693992 8.0090834387764)"><path d="M0.54 -0.62 C2.6 1.8, 11.13 13.07, 13.27 15.71 M-0.64 1.66 C1.74 4.77, 13.5 14.68, 15.65 17.08" stroke="#000" stroke-width="2" fill="none"></path></g></g><mask></mask><g stroke-linecap="round"><g transform="translate(216.736611770766 144.22551876388835) rotate(0 6.941205646939977 8.009083438776457)"><path d="M-0.62 -0.62 C1.44 1.87, 11.29 12.56, 13.57 15.48 M1.25 1.67 C3.03 4.27, 10.08 14.5, 12.46 16.73" stroke="#000" stroke-width="2" fill="none"></path></g></g><mask></mask><g stroke-linecap="round"><g transform="translate(226.23893058990313 134.64989727436378) rotate(0 6.941205646939977 8.009083438776457)"><path d="M-0.62 -0.31 C1.52 2.32, 10.78 12.51, 13.34 15.18 M1.26 -1.52 C3.14 1.3, 9.91 13.21, 12.11 16.28" stroke="#000" stroke-width="2" fill="none"></path></g></g><mask></mask><g stroke-linecap="round"><g transform="translate(170.68595775790152 173.63750881910929) rotate(0 6.941205646939977 8.009083438776457)"><path d="M-0.31 -0.54 C1.97 2.38, 10.73 14.12, 13.05 16.91 M1.72 1.79 C4.44 4.44, 13.49 12.62, 15.32 15.25" stroke="#000" stroke-width="2" fill="none"></path></g></g><mask></mask><g stroke-linecap="round"><g transform="translate(235.30084528552413 125.15718472689096) rotate(0 6.941205646939977 8.009083438776457)"><path d="M-0.54 -0.83 C2.02 1.84, 12.34 13.09, 14.77 15.75 M1.38 1.34 C3.91 4.23, 12.29 14.71, 14.29 17.15" stroke="#000" stroke-width="2" fill="none"></path></g></g><mask></mask><g stroke-linecap="round"><g transform="translate(107.78870422328816 299.9611702779938) rotate(0 102.02340134318246 -33.02206710141644)"><path d="M-1.95 2.08 C6.12 -0.27, 36.37 -10.26, 47.68 -15.34 C58.98 -20.42, 53.46 -26.49, 65.89 -28.41 C78.31 -30.32, 106.34 -23.45, 122.22 -26.84 C138.1 -30.24, 152.54 -41.57, 161.17 -48.77 C169.81 -55.97, 167.11 -76.29, 174.02 -70.03 C180.94 -63.77, 197.86 -22.9, 202.64 -11.21 C207.43 0.48, 213.12 -2.13, 202.73 0.11 C192.34 2.36, 150.02 1.97, 140.32 2.26 M2.19 0.74 C9.9 -0.97, 33.54 -5.81, 45.1 -11.48 C56.66 -17.15, 58.44 -31.25, 71.56 -33.3 C84.69 -35.36, 109.38 -21.18, 123.87 -23.82 C138.36 -26.47, 150.8 -40.97, 158.51 -49.17 C166.21 -57.37, 162.42 -78.9, 170.08 -73.04 C177.74 -67.19, 198.11 -26.03, 204.47 -14.05 C210.83 -2.07, 218.38 -4.72, 208.23 -1.16 C198.08 2.39, 153.77 7.03, 143.59 7.26" stroke="#000" stroke-width="2" fill="none"></path></g></g><mask></mask><g stroke-linecap="round"><g transform="translate(122.19917595967479 204.16678681131182) rotate(325.42685287265834 -21.370128350002915 16.66145600169716)"><path d="M2.08 -0.62 C2.48 -4.4, 5.41 -21.76, 1.15 -24.59 C-3.1 -27.41, -16.16 -23.51, -23.47 -17.6 C-30.78 -11.68, -39.69 1.15, -42.71 10.9 C-45.72 20.65, -45.61 33.69, -41.56 40.9 C-37.51 48.11, -25.56 51.91, -18.41 54.17 C-11.26 56.43, -1.58 63.93, 1.34 54.46 C4.27 45, -0.53 6.2, -0.87 -2.62 M-0.24 -3.43 C-0.06 -6.74, 3.22 -19.01, -0.85 -22.11 C-4.92 -25.22, -17.83 -26.69, -24.64 -22.06 C-31.45 -17.43, -39.53 -3.76, -41.71 5.67 C-43.89 15.11, -42.06 26.82, -37.71 34.54 C-33.37 42.27, -22.46 47.92, -15.64 52.03 C-8.82 56.14, 1.22 67.25, 3.2 59.21 C5.18 51.17, -3.84 13.81, -3.77 3.8" stroke="#000" stroke-width="2" fill="none"></path></g></g><mask></mask><g stroke-linecap="round"><g transform="translate(272.7273720737951 67.45413031244428) rotate(325.42685287265834 20.875831562497297 16.66145600169716)"><path d="M-0.62 0.43 C-0.77 -3.47, -7.28 -18.09, -2.84 -21.29 C1.6 -24.5, 18.23 -23.51, 26.02 -18.8 C33.82 -14.09, 41.49 -2.38, 43.94 6.98 C46.39 16.34, 45.12 29.49, 40.72 37.37 C36.32 45.24, 24.67 51.3, 17.55 54.22 C10.43 57.15, 1.34 64.06, -2.03 54.91 C-5.39 45.75, -3.21 8.64, -2.62 -0.7 M4.23 -1.81 C5.14 -6.74, -1.1 -23.42, 2.41 -25.67 C5.92 -27.92, 18.13 -20.93, 25.28 -15.28 C32.43 -9.62, 43.11 -0.58, 45.33 8.26 C47.55 17.09, 42.63 30.42, 38.61 37.73 C34.59 45.04, 27.83 48.41, 21.19 52.11 C14.55 55.8, 1.94 68.9, -1.22 59.9 C-4.39 50.9, 2.24 7.49, 2.18 -1.88" stroke="#000" stroke-width="2" fill="none"></path></g></g><mask></mask><g stroke-linecap="round"><g transform="translate(34.01222450072362 133.5714735620712) rotate(325.42685287265834 107.93725844577733 -55.264457057167704)"><path d="M0.43 -2.13 C1.71 -11.53, 0.86 -41.17, 9.78 -57.06 C18.71 -72.95, 37.55 -88.96, 53.98 -97.45 C70.41 -105.95, 89.46 -107.69, 108.36 -108.02 C127.26 -108.35, 151.21 -106.62, 167.38 -99.44 C183.55 -92.26, 197.46 -80.13, 205.4 -64.96 C213.33 -49.79, 213.37 -18.53, 215 -8.41 M-2.78 2.89 C-1.95 -7.24, -1.05 -43.49, 8.18 -61 C17.41 -78.52, 36.02 -93.56, 52.59 -102.18 C69.16 -110.79, 87.72 -113.36, 107.62 -112.69 C127.52 -112.03, 155.08 -107.08, 171.99 -98.21 C188.9 -89.34, 201.72 -75.13, 209.07 -59.49 C216.41 -43.85, 215.5 -13.58, 216.05 -4.37" stroke="#000" stroke-width="2" fill="none"></path></g></g><mask></mask><g stroke-linecap="round"><g transform="translate(128.00979555455262 225.88913548876522) rotate(325.42685287265834 40.56702330848009 16.956783602592935)"><path d="M-2.13 1.16 C0 4.98, 6.51 18.79, 12.14 23.29 C17.78 27.79, 23.74 26.56, 31.66 28.16 C39.57 29.75, 51.3 33.01, 59.64 32.89 C67.98 32.76, 78.34 28.58, 81.7 27.42 M1.91 -0.67 C3.9 2.21, 6.18 13.59, 10.97 18.69 C15.76 23.8, 23.66 27.24, 30.65 29.94 C37.65 32.65, 44.97 35.14, 52.95 34.93 C60.93 34.72, 73.62 30.67, 78.54 28.68" stroke="#000" stroke-width="2" fill="none"></path></g></g><mask></mask><g stroke-linecap="round" transform="translate(199.10176388714342 207.8671546640641) rotate(325.42685287265834 17.38586713220576 8.330728000848609)"><path d="M20.63 -0.29 C24.11 0.01, 28.18 1.62, 30.46 2.95 C32.74 4.28, 34.33 5.99, 34.29 7.69 C34.24 9.4, 32.31 11.79, 30.2 13.18 C28.09 14.58, 25.16 15.58, 21.62 16.08 C18.09 16.58, 12.27 16.92, 9 16.2 C5.72 15.48, 3.26 13.5, 1.98 11.76 C0.71 10.02, 0.4 7.44, 1.33 5.75 C2.26 4.05, 3.87 2.38, 7.57 1.58 C11.27 0.78, 20.34 0.93, 23.52 0.96 C26.7 0.99, 26.53 1.59, 26.65 1.76 M24.94 1.26 C28.5 2.02, 31.94 4.45, 33.5 6.06 C35.06 7.67, 35.21 9.3, 34.29 10.89 C33.37 12.49, 30.84 14.6, 27.99 15.64 C25.15 16.67, 20.9 17.42, 17.2 17.11 C13.49 16.8, 8.6 15, 5.76 13.77 C2.93 12.54, 0.8 11.55, 0.19 9.74 C-0.43 7.92, -0.21 4.61, 2.05 2.9 C4.3 1.19, 9.92 -0.28, 13.71 -0.5 C17.5 -0.73, 23.01 1.47, 24.79 1.55 C26.57 1.62, 24.75 0.15, 24.37 -0.04" stroke="#000" stroke-width="2" fill="none"></path></g><g stroke-linecap="round"><g transform="translate(352.25264097216063 489.3537738795209) rotate(0 -150.78896023224178 9.116221443548511)"><path d="M1.96 0.76 C9.36 0.83, 36.72 -1.87, 42.28 1.57 C47.84 5, 44.12 17.82, 35.3 21.4 C26.49 24.98, 10.4 22.35, -10.63 23.04 C-31.67 23.74, -62.52 25.24, -90.91 25.56 C-119.31 25.87, -145.04 25.77, -181 24.93 C-216.96 24.09, -279.64 24.58, -306.67 20.52 C-333.7 16.47, -341.47 5.25, -343.19 0.59 C-344.91 -4.06, -321.25 -5.94, -316.96 -7.43 M-0.42 -1.3 C6.94 -1.07, 34.97 -0.34, 40.85 3.87 C46.73 8.08, 43.29 20.26, 34.86 23.95 C26.43 27.64, 10.48 25.64, -9.74 25.99 C-29.96 26.33, -58.24 26.65, -86.46 26.01 C-114.68 25.36, -142.78 22.2, -179.09 22.1 C-215.4 22, -276.49 28.98, -304.32 25.39 C-332.14 21.8, -343.46 6.49, -346.05 0.55 C-348.65 -5.4, -325.05 -8.61, -319.86 -10.28" stroke="#000" stroke-width="2" fill="none"></path></g></g><mask></mask></svg>