<svg version="1.1" xmlns="http://www.w3.org/2000/svg" viewBox="0 0 219.3809113498869 214.60860580818996" width="219.3809113498869" height="214.60860580818996">
  <!-- svg-source:excalidraw -->
  
  <defs>
    
    
  </defs>
  <g stroke-linecap="round" transform="translate(6.510364139295007 62.831851146289864) rotate(0 74.72580616125174 72.22279240645372)"><path d="M2 1.5 L150.71 1.29 L149.46 144.15 L-1.35 146.27" stroke="none" stroke-width="0" fill="#ced4da"></path><path d="M0 0 C47.82 0.45, 98.61 0.33, 149.45 0 M0 0 C56.51 0.92, 114.26 0.82, 149.45 0 M149.45 0 C150.11 38.62, 149.4 80.44, 149.45 144.45 M149.45 0 C149.64 53.01, 148.71 104.09, 149.45 144.45 M149.45 144.45 C107.66 141.44, 65.83 141.96, 0 144.45 M149.45 144.45 C100.78 144.01, 54.05 144.1, 0 144.45 M0 144.45 C1.52 96.61, 2.04 46.76, 0 0 M0 144.45 C0.13 110.23, -1.3 76.48, 0 0" stroke="#000000" stroke-width="1" fill="none"></path></g><g stroke-linecap="round"><g transform="translate(6 60.63406278528754) rotate(0 100.5909315499257 -26.405356675925702)" fill-rule="evenodd"><path d="M-0.37 0.26 L48.15 -56.13 L202.7 -52.37 L146.56 0.62 L-1.53 1.9" stroke="none" stroke-width="0" fill="#f6f7f7" fill-rule="evenodd"></path><path d="M0 0 C16.19 -15.75, 29.95 -32.07, 49.61 -54.4 M0 0 C12.51 -14, 25.82 -29.01, 49.61 -54.4 M49.61 -54.4 C96.7 -54.94, 139.82 -54.69, 201.18 -52.12 M49.61 -54.4 C103.07 -54.79, 159.18 -52.85, 201.18 -52.12 M201.18 -52.12 C188.81 -36.78, 172.7 -25.77, 147.81 1.59 M201.18 -52.12 C181.52 -32.03, 161.25 -11.22, 147.81 1.59 M147.81 1.59 C106.36 -0.55, 64.06 -0.41, 0 0 M147.81 1.59 C106.84 1.43, 65.18 2.09, 0 0 M0 0 C0 0, 0 0, 0 0 M0 0 C0 0, 0 0, 0 0" stroke="#000000" stroke-width="1" fill="none"></path></g></g><mask></mask><g stroke-linecap="round"><g transform="translate(158.9722326649112 57.44838224168831) rotate(0 26.804562312723647 50.14499859234931)" fill-rule="evenodd"><path d="M1.35 -1.98 L-1 152.38 L55.11 95.28 L48.64 -49.07 L0.37 -1.91" stroke="none" stroke-width="0" fill="#868e96" fill-rule="evenodd"></path><path d="M0 0 C-0.08 49.26, -0.46 100.98, -0.8 151.16 M0 0 C-0.97 47.16, -1.23 92.29, -0.8 151.16 M-0.8 151.16 C15.07 135.26, 30.5 119.8, 54.41 94.97 M-0.8 151.16 C14.07 136.43, 28.16 123.84, 54.41 94.97 M54.41 94.97 C54.09 64.12, 52.23 29.05, 50.12 -50.87 M54.41 94.97 C53.22 50.31, 51.1 7.73, 50.12 -50.87 M50.12 -50.87 C35.57 -39.4, 25.02 -26.8, 0 0 M50.12 -50.87 C33.97 -35.19, 19.1 -19.96, 0 0 M0 0 C0 0, 0 0, 0 0 M0 0 C0 0, 0 0, 0 0" stroke="#000000" stroke-width="1" fill="none"></path></g></g><mask></mask></svg>