<svg xmlns="http://www.w3.org/2000/svg" viewBox="1181.40 9.63 1599.00 996.90" width="1599" height="997"><polyline points="1314.18,579.34 1309.52,600.41 1306.67,623.16 1302.47,653.45 1299.41,691.82 1297.42,737.74 1295.63,781.53 1293.37,815.63 1292.54,828.68 1288.55,843.72 1282.43,841.64 1277.59,844.77 1279.15,858.03 1284.81,869.08 1298.33,883.80 1316.60,898.63 1342.84,915.36 1359.99,923.89 1400.69,939.47 1447.13,951.01 1489.19,958.44 1551.26,963.31 1622.47,963.27 1698.34,961.32 1758.37,956.56 1804.59,948.90 1850.41,935.64 1883.95,925.43 1908.25,916.08 1924.42,908.37 1936.14,904.43 1960.05,896.22 1990.58,879.73 2019.96,859.20 2047.70,837.71 2056.72,825.98 2055.48,815.59 2046.35,799.70 2029.02,752.19 2012.35,699.03 2002.49,659.31 1984.61,601.20 1924.01,577.21 1360.57,556.44 1314.18,579.34" fill="#8a6e63" stroke="#8a6e63" stroke-width="2" opacity="1.0" stroke-linecap="round" stroke-linejoin="round"/><polyline points="1457.41,461.21 1493.63,448.38 1548.73,434.54 1631.51,424.79 1720.39,416.41 1818.20,411.70 1889.57,413.16 1951.84,425.89 1997.67,445.62 2039.89,475.26 2058.77,498.26 2056.84,511.09 2046.16,519.86 2029.92,536.63 2024.42,546.11 2009.40,560.54 1997.37,588.00 1995.10,615.65 1987.61,623.42 1977.41,616.70 1946.43,607.70 1888.77,597.56 1807.85,592.05 1724.74,595.13 1618.61,607.51 1551.93,617.67 1506.60,626.20 1468.49,625.81 1445.34,606.29 1427.43,569.90 1419.22,522.94 1423.10,485.37 1432.82,472.98 1443.32,466.01 1457.41,461.21" fill="#ac9a90" stroke="#000000" stroke-width="2" opacity="1.0" stroke-linecap="round" stroke-linejoin="round"/><polyline points="1527.51,438.80 1480.30,411.55 1398.82,371.39 1327.89,331.39 1309.85,322.43 1281.16,297.53 1268.54,302.89 1253.06,326.81 1243.51,359.79 1242.27,389.97 1247.91,424.07 1263.17,472.88 1267.33,506.58 1271.94,538.31 1282.69,560.32 1302.28,582.65 1315.35,580.00 1347.10,575.34 1387.34,577.00 1432.88,587.08 1428.25,573.10 1422.24,545.48 1419.71,521.23 1419.86,503.19 1424.73,482.26 1434.59,471.78 1450.94,463.65 1476.13,455.02 1527.51,438.80" fill="#ac9a90" stroke="#000000" stroke-width="2" opacity="1.0" stroke-linecap="round" stroke-linejoin="round"/><polyline points="1994.79,617.29 2001.55,651.49 2017.62,713.07 2044.35,790.77 2057.90,821.34 2042.28,843.58 1977.82,888.15 1927.18,908.33 1880.24,927.11 1757.50,957.63 1544.23,963.19 1427.50,946.93 1342.43,916.29 1295.89,882.13 1278.55,858.54 1278.28,842.46 1286.96,842.17 1283.19,852.73 1289.24,837.92 1292.80,812.20 1295.81,744.92 1300.88,665.15 1307.33,610.37 1312.37,579.96" fill="#8a6e63" stroke="#000000" stroke-width="2" opacity="1.0" stroke-linecap="round" stroke-linejoin="round"/><polyline points="1488.83,627.01 1498.82,643.90 1511.11,668.66 1515.17,688.03 1518.46,728.59 1516.24,765.99 1511.85,798.01 1509.80,819.76 1510.87,854.59 1520.17,906.02 1530.50,939.64 1546.91,964.22" fill="none" stroke="#000000" stroke-width="2" opacity="1.0" stroke-linecap="round" stroke-linejoin="round"/><polyline points="1476.47,698.04 1462.09,698.79 1444.70,707.38 1425.00,727.44 1417.18,739.43 1424.74,745.67 1435.14,751.79 1447.37,752.55 1454.39,744.69 1454.52,735.93 1461.08,740.94 1471.09,739.12 1477.61,727.99 1476.47,698.04" fill="#aac195" stroke="#000000" stroke-width="2" opacity="1.0" stroke-linecap="round" stroke-linejoin="round"/><polyline points="1461.31,649.19 1468.61,657.97 1475.61,670.66 1478.61,678.62 1476.51,697.83" fill="none" stroke="#000000" stroke-width="2" opacity="1.0" stroke-linecap="round" stroke-linejoin="round"/><polyline points="1364.26,709.03 1371.95,717.89 1381.76,726.35 1394.77,734.52 1417.69,741.43" fill="none" stroke="#000000" stroke-width="2" opacity="1.0" stroke-linecap="round" stroke-linejoin="round"/><polyline points="1653.37,773.85 1641.84,780.19 1627.86,785.56 1617.69,781.74 1611.58,772.39 1613.99,759.60 1608.25,765.58 1598.78,770.53 1585.58,768.74 1577.42,761.28 1573.46,743.42 1580.06,736.89 1589.89,732.64 1603.69,732.17 1619.06,736.93 1637.89,748.10 1647.79,760.63 1653.37,773.85" fill="#aac195" stroke="#000000" stroke-width="2" opacity="1.0" stroke-linecap="round" stroke-linejoin="round"/><polyline points="1572.91,743.79 1569.08,740.51 1567.69,728.86 1570.32,709.76 1577.88,698.33 1586.29,684.05 1595.49,668.27 1608.66,656.66" fill="none" stroke="#000000" stroke-width="2" opacity="1.0" stroke-linecap="round" stroke-linejoin="round"/><polyline points="1653.48,773.77 1656.95,781.50 1657.80,790.22 1648.81,786.46 1643.15,779.80 1653.48,773.77" fill="none" stroke="#000000" stroke-width="2" opacity="1.0" stroke-linecap="round" stroke-linejoin="round"/><polyline points="1655.13,790.30 1661.28,789.81 1668.21,783.15 1676.92,773.36 1687.54,766.64 1697.83,762.03 1711.56,759.29 1723.25,757.46 1732.53,758.39 1739.49,760.86" fill="none" stroke="#000000" stroke-width="2" opacity="1.0" stroke-linecap="round" stroke-linejoin="round"/><polyline points="1993.44,474.78 2018.15,476.78 2049.14,485.39" fill="none" stroke="#000000" stroke-width="2" opacity="1.0" stroke-linecap="round" stroke-linejoin="round"/><polyline points="1431.50,84.68 1421.37,81.02 1370.86,78.89 1333.09,78.75 1281.57,75.56 1226.56,60.46 1187.40,72.07 1191.13,97.80 1200.09,110.19 1206.88,115.50 1209.52,141.32 1211.40,167.37 1215.75,188.43 1222.59,213.63 1251.68,262.14 1283.45,298.04 1317.93,325.03 1332.19,333.22 1327.58,322.09 1322.09,302.16 1322.30,273.73 1326.19,253.40 1333.11,235.56 1345.20,210.54 1360.81,180.31 1369.60,156.96 1380.05,136.53 1398.27,114.51 1425.08,89.67 1431.50,84.68" fill="#aac195" stroke="#000000" stroke-width="2" opacity="1.0" stroke-linecap="round" stroke-linejoin="round"/><polyline points="1222.26,106.11 1236.51,109.42 1254.89,111.18 1273.59,119.41 1297.33,136.69 1312.65,148.53 1323.04,155.23 1338.05,159.59 1355.32,158.85 1364.73,159.31" fill="none" stroke="#000000" stroke-width="2" opacity="1.0" stroke-linecap="round" stroke-linejoin="round"/><polyline points="1430.56,84.94 1444.57,75.75 1461.75,66.22 1481.93,56.36 1501.39,49.24 1534.04,44.38 1554.08,43.60 1540.05,55.54 1529.50,69.16 1521.07,87.28 1528.09,72.16 1537.81,57.94 1561.04,41.18 1580.16,32.24 1607.31,21.08 1639.79,15.73 1679.23,15.63 1711.36,21.11 1742.54,25.07 1767.58,28.72 1807.01,41.33 1830.00,51.71 1846.92,62.62 1838.93,64.63 1827.34,69.56 1818.29,76.49 1828.38,69.01 1842.12,63.95 1864.28,63.42 1901.31,73.50 1943.89,105.13 1964.25,126.43 1986.83,159.37 1999.51,187.79 2008.74,190.89 2023.04,199.89 2032.96,204.88 2041.95,212.12 2053.06,217.57 2029.33,219.31 2053.67,220.31 2072.79,225.09 2117.74,238.82 2157.40,253.96 2169.81,258.03 2193.82,268.48 2212.64,273.59 2238.25,277.70 2268.21,283.80 2280.84,288.53 2293.50,298.62 2294.72,316.20 2287.14,334.20 2252.90,366.79 2247.39,379.49 2230.66,404.48 2204.11,427.30 2165.01,451.04 2150.45,460.09 2125.03,469.14 2083.82,481.22 2053.76,480.23 2046.23,474.86 2032.99,469.78 2018.01,458.73 1992.00,442.18 1962.95,429.84 1923.16,418.91 1896.49,414.24 1868.67,412.24 1830.66,411.20 1784.91,412.57 1717.53,416.01 1684.87,419.37 1599.34,427.94 1556.10,432.82 1526.34,438.83 1511.58,428.61 1478.68,410.67 1436.25,389.73 1400.47,373.00 1366.02,352.93 1336.52,336.07 1328.76,325.25 1325.09,314.83 1321.65,293.57 1322.33,269.97 1328.27,244.65 1344.65,211.47 1356.64,188.03 1365.64,167.86 1369.63,155.62 1383.04,132.08 1402.26,109.77 1430.56,84.94" fill="#aac195" stroke="#000000" stroke-width="2" opacity="1.0" stroke-linecap="round" stroke-linejoin="round"/><polyline points="1970.74,417.90 1971.42,409.13 1982.48,389.58 1995.64,381.65 2014.58,374.53 2040.47,356.03 2056.44,339.09 2083.33,320.32 2132.73,304.14 2177.74,299.54 2228.46,300.36 2253.50,309.02 2261.92,318.12 2255.31,326.66 2236.48,334.20" fill="none" stroke="#000000" stroke-width="2" opacity="1.0" stroke-linecap="round" stroke-linejoin="round"/><polyline points="1389.27,179.47 1406.17,168.94 1423.54,161.01 1438.09,157.73 1456.97,158.37 1471.30,165.33 1478.49,176.09 1484.75,195.46 1489.21,207.93 1495.10,216.45" fill="none" stroke="#000000" stroke-width="2" opacity="1.0" stroke-linecap="round" stroke-linejoin="round"/><polyline points="1672.98,230.96 1674.97,222.90 1690.90,210.44 1707.89,203.45 1733.11,200.15 1752.02,201.63 1773.03,210.91 1795.16,225.76 1817.27,244.20" fill="none" stroke="#000000" stroke-width="2" opacity="1.0" stroke-linecap="round" stroke-linejoin="round"/><polyline points="1484.85,313.28 1485.80,259.81 1475.70,216.35 1454.40,191.47 1427.04,181.75 1395.57,189.49 1378.87,202.99 1369.54,221.39 1366.62,240.38 1367.73,264.99 1376.81,286.78 1387.09,304.04 1403.78,320.54 1427.40,327.14 1461.37,326.77 1484.85,313.28" fill="#000000" stroke="#000000" stroke-width="2" opacity="1.0" stroke-linecap="round" stroke-linejoin="round"/><polyline points="1833.65,304.88 1825.57,289.52 1810.10,268.93 1795.78,253.88 1774.55,239.91 1752.40,235.74 1726.62,237.28 1703.39,244.59 1686.89,254.19 1669.03,274.78 1657.68,301.50 1651.22,324.15 1649.44,342.91 1661.64,355.91 1673.44,364.99 1692.07,374.12 1715.96,380.89 1750.43,380.71 1779.80,372.18 1799.83,360.93 1821.95,332.20 1832.08,304.33" fill="#000000" stroke="#000000" stroke-width="2" opacity="1.0" stroke-linecap="round" stroke-linejoin="round"/><polyline points="1653.58,358.08 1649.41,351.53 1648.27,341.48" fill="none" stroke="#000000" stroke-width="2" opacity="1.0" stroke-linecap="round" stroke-linejoin="round" transform="rotate(1.32 1656.23 366.39)"/><polyline points="1832.76,303.93 1834.99,309.56" fill="none" stroke="#000000" stroke-width="2" opacity="1.0" stroke-linecap="round" stroke-linejoin="round"/><polyline points="1488.85,361.63 1490.33,370.22" fill="none" stroke="#000000" stroke-width="2" opacity="1.0" stroke-linecap="round" stroke-linejoin="round"/><polyline points="1490.18,366.98 1496.47,362.19 1512.38,359.74 1535.27,362.68 1554.06,372.01 1566.46,382.56" fill="none" stroke="#000000" stroke-width="2" opacity="1.0" stroke-linecap="round" stroke-linejoin="round"/><polyline points="1574.18,381.18 1574.53,387.01" fill="none" stroke="#000000" stroke-width="2" opacity="1.0" stroke-linecap="round" stroke-linejoin="round"/><polyline points="1565.45,383.57 1554.45,373.27 1536.94,364.52 1520.14,360.23" fill="none" stroke="#000000" stroke-width="2" opacity="1.0" stroke-linecap="round" stroke-linejoin="round"/><polyline points="1515.79,318.49 1512.54,315.08 1513.96,306.45 1522.16,300.53 1530.71,299.20 1539.84,303.77 1547.14,311.30" fill="none" stroke="#000000" stroke-width="2" opacity="1.0" stroke-linecap="round" stroke-linejoin="round"/><polyline points="1538.68,323.05 1549.61,324.39" fill="none" stroke="#000000" stroke-width="2" opacity="1.0" stroke-linecap="round" stroke-linejoin="round"/><polyline points="1388.03,210.61 1399.50,202.11 1410.97,194.94 1425.89,195.30 1434.01,200.78 1433.08,210.98 1420.30,221.25 1405.41,227.08 1393.27,224.60 1387.57,218.98 1388.03,210.61" fill="#ffffff" stroke="#ffffff" stroke-width="2" opacity="1.0" stroke-linecap="round" stroke-linejoin="round"/><ellipse cx="1445.81" cy="204.07" rx="4.87" ry="4.88" stroke="#ffffff" stroke-width="2" opacity="1.0" fill="#ffffff"/><polyline points="1751.49,261.90 1746.64,270.64 1746.71,280.61 1751.61,291.94 1767.92,295.82 1778.75,294.54 1788.57,284.54 1793.19,276.00 1792.27,262.28 1785.94,252.89 1777.94,250.54 1763.68,253.97 1751.49,261.90" fill="#ffffff" stroke="#ffffff" stroke-width="2" opacity="1.0" stroke-linecap="round" stroke-linejoin="round"/><ellipse cx="1737.66" cy="261.54" rx="5.52" ry="7.91" stroke="#ffffff" stroke-width="2" opacity="1.0" fill="#ffffff" transform="rotate(46.88 1737.66 261.54)"/><polyline points="1546.87,312.24 1540.40,305.10 1531.96,301.22 1522.53,301.48 1514.54,305.47" fill="none" stroke="#000000" stroke-width="2" opacity="1.0" stroke-linecap="round" stroke-linejoin="round"/><polyline points="1364.09,159.94 1335.72,160.68 1325.15,158.03 1315.53,153.05 1300.73,140.29 1282.17,126.44" fill="none" stroke="#000000" stroke-width="2" opacity="1.0" stroke-linecap="round" stroke-linejoin="round"/></svg>