<svg version="1.1" xmlns="http://www.w3.org/2000/svg" viewBox="0 0 172 172" width="172" height="172">
  <!-- svg-source:excalidraw -->
  
  <defs>
    
    
  </defs>
  <g stroke-linecap="round"><g transform="translate(107.2132 107.2132) rotate(0 -21.2132 -21.2132)" fill-rule="evenodd"><path d="M0.15 -1.26 L-20.95 58.46 L-41.38 -1.55 L-102.45 -19.98 L-43.15 -43.71 L-21.46 -100.78 L-1.56 -41.49 L59.17 -23.11 L-0.78 -0.64" stroke="none" stroke-width="0" fill="#e64980" fill-rule="evenodd"></path><path d="M0 0 C-6.38 15.65, -12.34 32.34, -21.21 58.79 M0 0 C-5.41 14.48, -9.82 26.65, -21.21 58.79 M-21.21 58.79 C-28.24 40.7, -35.96 23.75, -42.43 0 M-21.21 58.79 C-28.22 41.9, -34 23.21, -42.43 0 M-42.43 0 C-59.67 -6.72, -74.85 -11.43, -101.21 -21.21 M-42.43 0 C-60.48 -7.02, -81.38 -13.02, -101.21 -21.21 M-101.21 -21.21 C-79.08 -29.62, -59.89 -38.35, -42.43 -42.43 M-101.21 -21.21 C-86.23 -27.73, -73.36 -32.14, -42.43 -42.43 M-42.43 -42.43 C-36.84 -63.23, -28.99 -81.61, -21.21 -101.21 M-42.43 -42.43 C-34.29 -65.35, -26.42 -89.19, -21.21 -101.21 M-21.21 -101.21 C-15.46 -84.92, -9.43 -67.36, 0 -42.43 M-21.21 -101.21 C-14.35 -84.45, -10.17 -68.74, 0 -42.43 M0 -42.43 C22.19 -35.66, 46.94 -26.21, 58.79 -21.21 M0 -42.43 C21.96 -34.97, 44.8 -26.52, 58.79 -21.21 M58.79 -21.21 C43.47 -14.59, 27.15 -9.78, 0 0 M58.79 -21.21 C39.74 -13.64, 21.43 -6.95, 0 0 M0 0 C0 0, 0 0, 0 0 M0 0 C0 0, 0 0, 0 0" stroke="#000000" stroke-width="1" fill="none"></path></g></g><mask></mask></svg>