<svg xmlns="http://www.w3.org/2000/svg" viewBox="555.67 -97.25 217.38 278.83" width="217" height="279"><polyline points="694.25,-30.82 699.46,-20.57 699.62,-5.91 689.04,6.30 674.22,14.94 657.77,13.47 639.70,8.26 628.79,-3.47 626.83,-18.94 633.67,-30.50 643.44,-37.99 694.25,-30.82" fill="none" stroke="#1864ab" stroke-width="4" opacity="1.0" stroke-linecap="round" stroke-linejoin="round"/><polyline points="639.66,-10.23 661.88,-2.18 683.65,-9.93" fill="none" stroke="#1864ab" stroke-width="4" opacity="1.0" stroke-linecap="round" stroke-linejoin="round"/><polyline points="647.46,-18.75 651.60,-21.73 653.92,-18.57" fill="none" stroke="#1864ab" stroke-width="4" opacity="1.0" stroke-linecap="round" stroke-linejoin="round"/><polyline points="668.17,-18.64 672.31,-21.61 674.64,-18.45" fill="none" stroke="#1864ab" stroke-width="4" opacity="1.0" stroke-linecap="round" stroke-linejoin="round"/><polyline points="651.59,31.08 604.61,42.11 561.67,56.28" fill="none" stroke="#1864ab" stroke-width="4" opacity="1.0" stroke-linecap="round" stroke-linejoin="round"/><polyline points="667.84,28.84 715.26,37.79 760.74,53.00" fill="none" stroke="#1864ab" stroke-width="4" opacity="1.0" stroke-linecap="round" stroke-linejoin="round"/><polyline points="661.88,38.68 660.09,93.41 660.98,164.84" fill="none" stroke="#1864ab" stroke-width="4" opacity="1.0" stroke-linecap="round" stroke-linejoin="round"/><polyline points="650.69,175.28 613.71,174.98" fill="none" stroke="#1864ab" stroke-width="4" opacity="1.0" stroke-linecap="round" stroke-linejoin="round"/><polyline points="666.65,174.83 705.12,174.39" fill="none" stroke="#1864ab" stroke-width="4" opacity="1.0" stroke-linecap="round" stroke-linejoin="round"/><polyline points="619.26,-42.92 718.51,-28.46" fill="none" stroke="#1864ab" stroke-width="4" opacity="1.0" stroke-linecap="round" stroke-linejoin="round"/><polyline points="643.53,-40.09 649.83,-60.85 654.65,-91.25" fill="none" stroke="#1864ab" stroke-width="4" opacity="1.0" stroke-linecap="round" stroke-linejoin="round"/><polyline points="692.09,-32.31 691.35,-59.00 699.50,-83.46" fill="none" stroke="#1864ab" stroke-width="4" opacity="1.0" stroke-linecap="round" stroke-linejoin="round"/><polyline points="702.10,-81.24 673.92,-90.13 652.79,-89.76" fill="none" stroke="#1864ab" stroke-width="4" opacity="1.0" stroke-linecap="round" stroke-linejoin="round"/></svg>