<svg version="1.1" xmlns="http://www.w3.org/2000/svg" viewBox="0 0 399.11100709210484 516.5040980576179" width="399.11100709210484" height="516.5040980576179">
  <!-- svg-source:excalidraw -->
  
  <defs>
    
    
  </defs>
  <g stroke-linecap="round" transform="translate(100.55860078542355 56.30873472706915) rotate(343.58593648075345 95.62226922713165 98.88211931442024)"><path d="M138.46 9.55 C149.79 13.65, 159.38 25.12, 167.63 34.44 C175.87 43.76, 184.09 53.45, 187.95 65.48 C191.8 77.51, 192.1 94.08, 190.73 106.63 C189.36 119.19, 184.83 129.93, 179.74 140.81 C174.64 151.69, 168.9 163.59, 160.15 171.93 C151.41 180.28, 138.82 186.65, 127.26 190.89 C115.69 195.13, 102.81 197.61, 90.76 197.37 C78.7 197.14, 66.28 194.89, 54.93 189.48 C43.57 184.07, 31.22 174.84, 22.62 164.92 C14.01 154.99, 6.86 142.1, 3.3 129.92 C-0.26 117.74, 0.47 104.24, 1.26 91.82 C2.04 79.41, 3.04 66.86, 8.01 55.42 C12.98 43.98, 21.9 31.83, 31.1 23.19 C40.29 14.55, 51.12 7.54, 63.17 3.56 C75.21 -0.41, 86.62 -4.48, 103.38 -0.66 C120.13 3.15, 151.16 17.46, 163.7 26.44 C176.24 35.42, 180.14 51.7, 178.61 53.2 M31.02 23.66 C38.11 14.77, 50.83 11.99, 62.42 8.22 C74 4.45, 88.37 1.11, 100.52 1.05 C112.67 0.98, 124.37 2.5, 135.33 7.83 C146.29 13.15, 157.7 23.75, 166.27 33.02 C174.83 42.28, 182.37 51.25, 186.73 63.41 C191.09 75.57, 192.96 92.88, 192.43 105.96 C191.9 119.04, 188.87 131.07, 183.57 141.89 C178.27 152.7, 170.25 162.97, 160.64 170.83 C151.02 178.7, 137.56 184.62, 125.87 189.08 C114.17 193.53, 101.85 198.13, 90.44 197.55 C79.04 196.98, 68.74 191.46, 57.43 185.62 C46.13 179.79, 31.3 171.05, 22.62 162.52 C13.93 154, 8.86 145.98, 5.34 134.46 C1.82 122.93, 0.92 105.86, 1.49 93.37 C2.07 80.88, 3.32 70.44, 8.79 59.52 C14.25 48.61, 29.81 33.48, 34.27 27.88 C38.73 22.28, 34.93 24.82, 35.56 25.91" stroke="#000" stroke-width="2" fill="none"></path></g><g stroke-linecap="round"><g transform="translate(108.73536933869445 175.44312057704852) rotate(343.58593648075345 -21.370128350002915 16.66145600169716)"><path d="M2.32 1.28 C1.66 -2.11, 2.93 -19.19, -1.42 -22.81 C-5.78 -26.43, -16.82 -25.98, -23.79 -20.42 C-30.76 -14.86, -41.11 1.1, -43.25 10.54 C-45.39 19.98, -40.84 28.73, -36.6 36.22 C-32.37 43.71, -23.65 52.64, -17.82 55.49 C-11.99 58.35, -4.93 62.87, -1.62 53.33 C1.69 43.79, 1.54 7.51, 2.01 -1.75 M0.14 -0.49 C0.12 -3.21, 8.02 -16.49, 3.81 -19.37 C-0.4 -22.26, -17.41 -21.86, -25.14 -17.78 C-32.86 -13.7, -40.29 -3.84, -42.55 5.12 C-44.81 14.07, -43.35 27.8, -38.71 35.96 C-34.07 44.12, -20.95 50.48, -14.73 54.06 C-8.51 57.65, -3.94 67.06, -1.38 57.47 C1.19 47.87, 0.8 5.76, 0.68 -3.51" stroke="#000" stroke-width="2" fill="none"></path></g></g><mask></mask><g stroke-linecap="round"><g transform="translate(291.8669612268883 104.7867357618367) rotate(343.58593648075345 20.875831562497297 16.66145600169716)"><path d="M1.28 -2.15 C1.51 -6.14, -4.71 -18.75, -1.06 -21.61 C2.59 -24.48, 15.76 -24.94, 23.2 -19.35 C30.64 -13.75, 41.44 2.38, 43.58 11.93 C45.72 21.48, 40.16 31.4, 36.04 37.96 C31.92 44.51, 25.4 47.96, 18.87 51.26 C12.34 54.57, 0.28 66.14, -3.15 57.79 C-6.59 49.44, -1.9 10.49, -1.75 1.17 M-1.47 2.86 C-1.42 -2.22, -7.22 -23, -3.49 -26.17 C0.24 -29.33, 12.88 -21.69, 20.92 -16.12 C28.97 -10.55, 41.59 -1.86, 44.78 7.26 C47.96 16.39, 45.06 30.49, 40.03 38.64 C34.99 46.79, 21.75 53.33, 14.59 56.17 C7.42 59.02, -1.12 64.9, -2.96 55.7 C-4.81 46.51, 2.82 10.35, 3.52 1" stroke="#000" stroke-width="2" fill="none"></path></g></g><mask></mask><g stroke-linecap="round"><g transform="translate(62.62260069082549 123.82171031605219) rotate(343.58593648075345 107.93725844577733 -56.86627374492299)"><path d="M-2.15 -0.35 C-1.67 -10.37, -3.9 -42.04, 5.19 -58.82 C14.28 -75.59, 34.71 -91.5, 52.37 -101.02 C70.04 -110.53, 92.09 -116.03, 111.18 -115.91 C130.26 -115.78, 152.38 -107.45, 166.9 -100.26 C181.42 -93.06, 190.42 -82.97, 198.32 -72.71 C206.21 -62.45, 211.14 -49.47, 214.26 -38.7 C217.38 -27.92, 216.47 -13.49, 217.05 -8.05 M1.88 -3.01 C1.85 -12.74, -4.72 -38.5, 3.41 -55.65 C11.54 -72.81, 33.83 -96.13, 50.68 -105.94 C67.53 -115.74, 85.73 -115.75, 104.48 -114.48 C123.24 -113.21, 147.21 -106.08, 163.19 -98.31 C179.17 -90.54, 192.87 -78.54, 200.38 -67.86 C207.88 -57.17, 205.75 -43.81, 208.23 -34.18 C210.71 -24.55, 214.17 -14.2, 215.26 -10.08" stroke="#000" stroke-width="2" fill="none"></path></g></g><mask></mask><g stroke-linecap="round"><g transform="translate(104.9708370728406 215.11564379566224) rotate(343.58593648075345 40.56702330848009 19.196894958477174)"><path d="M-0.35 0.84 C0.49 4.51, 1.6 13.95, 6.37 19.88 C11.14 25.81, 20.27 33.41, 28.26 36.42 C36.26 39.44, 45.2 39.95, 54.33 37.96 C63.46 35.96, 78.96 25.98, 83.02 24.46 M-3.99 -1.17 C-3.71 3.2, -1.51 18.05, 3.67 23.62 C8.84 29.19, 18.72 29.47, 27.07 32.26 C35.41 35.04, 44.81 41.68, 53.73 40.32 C62.65 38.96, 76.08 26.25, 80.57 24.11" stroke="#000" stroke-width="2" fill="none"></path></g></g><mask></mask><g stroke-linecap="round" transform="translate(182.73346321712643 214.4221346804832) rotate(343.58593648075345 17.38586713220576 8.330728000848609)"><path d="M17.27 -0.15 C20.86 -0.48, 26.99 -0.02, 29.74 1.32 C32.48 2.66, 33.45 5.94, 33.74 7.92 C34.03 9.89, 33.45 11.69, 31.47 13.19 C29.5 14.69, 25.36 16.32, 21.9 16.92 C18.44 17.53, 13.89 17.69, 10.73 16.81 C7.57 15.93, 4.61 13.5, 2.95 11.64 C1.29 9.78, 0.22 7.24, 0.78 5.68 C1.35 4.12, 3.16 3.36, 6.32 2.28 C9.49 1.2, 17.13 -0.39, 19.77 -0.81 C22.4 -1.23, 22.22 -0.39, 22.11 -0.24 M11.06 -0.6 C13.96 -1.43, 18.6 -1.24, 21.88 -0.51 C25.16 0.21, 28.77 1.94, 30.72 3.72 C32.67 5.5, 33.72 8.43, 33.59 10.16 C33.45 11.89, 32.53 13.11, 29.89 14.11 C27.25 15.11, 21.3 15.98, 17.74 16.17 C14.17 16.36, 11.27 16.3, 8.49 15.25 C5.7 14.19, 2.29 11.62, 1.02 9.85 C-0.25 8.09, -0.7 6.09, 0.88 4.66 C2.46 3.23, 9.08 1.81, 10.48 1.3 C11.88 0.78, 9.02 1.39, 9.28 1.55" stroke="#000" stroke-width="2" fill="none"></path></g><g stroke-linecap="round" transform="translate(55.464910389278884 309.3964450887495) rotate(0 146.512833040016 87.99313004735657)"><path d="M0.23 1.2 C86.88 -0.97, 167.94 3.35, 290.53 -2.6 M-1.2 0.99 C108.79 -0.68, 219.25 -2.68, 293.61 -1.34 M289.38 0.43 C292.02 42.88, 291.57 87.92, 296.15 174.25 M291.93 -1.34 C289.99 61.55, 291.22 126.48, 292.8 174.65 M293.95 174.88 C212.52 176.23, 135.85 177.48, -2.08 177.28 M293.4 175.36 C181.65 175.71, 72.02 177.09, 1.31 174.66 M2.93 177.83 C2.33 135.61, 7.11 100.1, 2.96 3.89 M0.19 174.51 C1.35 128.75, 1.4 83.39, -0.12 1.91" stroke="#000" stroke-width="2" fill="none"></path></g><g stroke-linecap="round" transform="translate(188.70983023317513 379.62908133502947) rotate(0 14.523137968981132 14.52313796898116)"><path d="M21.5 0.6 C24.23 1.86, 25.83 6.23, 26.89 9.27 C27.95 12.32, 28.71 15.89, 27.88 18.88 C27.04 21.86, 24.38 25.38, 21.9 27.19 C19.41 29, 15.79 30.26, 12.98 29.74 C10.17 29.23, 7.16 26.59, 5.06 24.08 C2.97 21.58, 0.89 17.63, 0.43 14.71 C-0.02 11.79, 0.63 9.1, 2.33 6.57 C4.03 4.04, 7.13 0.28, 10.62 -0.46 C14.1 -1.2, 20.99 1.38, 23.26 2.13 C25.54 2.87, 24.57 3.58, 24.27 4.02 M11.23 -0.48 C13.76 -1.05, 17.64 0.01, 20.24 1.75 C22.84 3.5, 25.43 7.17, 26.84 10 C28.25 12.83, 29.61 16.01, 28.69 18.73 C27.77 21.45, 23.79 24.59, 21.31 26.32 C18.84 28.04, 16.66 29.48, 13.82 29.06 C10.98 28.63, 6.71 26.1, 4.27 23.77 C1.84 21.44, -0.64 17.99, -0.81 15.07 C-0.97 12.14, 1.45 8.57, 3.3 6.22 C5.16 3.88, 8.79 1.8, 10.34 0.99 C11.89 0.18, 12.31 1.17, 12.6 1.37" stroke="#000" stroke-width="2" fill="none"></path></g><g stroke-linecap="round"><g transform="translate(346.9389441158926 487.547893246281) rotate(0 -150.78896023224178 6.909655370775226)"><path d="M1.12 2.51 C7.7 2.91, 33.03 0.57, 38.62 2.6 C44.22 4.62, 43.4 11.92, 34.68 14.65 C25.97 17.39, 7.36 17.91, -13.65 19.01 C-34.65 20.1, -63.51 20.82, -91.34 21.2 C-119.18 21.58, -144.45 21.72, -180.64 21.28 C-216.83 20.84, -281.96 22.46, -308.47 18.55 C-334.99 14.63, -338.19 2.32, -339.74 -2.22 C-341.29 -6.77, -321.08 -8.3, -317.79 -8.72 M-1.71 1.41 C5.82 2.23, 37.91 3.48, 43.84 5.99 C49.78 8.5, 43.61 15.14, 33.9 16.49 C24.2 17.84, 5.78 13.02, -14.39 14.06 C-34.56 15.11, -59.77 21.8, -87.13 22.76 C-114.48 23.72, -141.87 20.87, -178.53 19.83 C-215.19 18.79, -280.06 20.49, -307.09 16.54 C-334.13 12.58, -338.39 -0.36, -340.73 -3.9 C-343.07 -7.44, -324.79 -4.53, -321.14 -4.71" stroke="#000" stroke-width="2" fill="none"></path></g></g><mask></mask><g stroke-linecap="round"><g transform="translate(110.3330812722728 298.12403372391805) rotate(0 88.24694653791363 -23.47873322918926)"><path d="M2.51 -2.17 C-2.4 -2.05, -32.3 4.82, -29.29 1.89 C-26.28 -1.05, 7.71 -14.26, 20.57 -19.8 C33.42 -25.34, 35.65 -29.85, 47.83 -31.35 C60.01 -32.85, 78.55 -29.55, 93.66 -28.8 C108.77 -28.04, 124.87 -24.21, 138.47 -26.8 C152.07 -29.39, 167.21 -42.34, 175.26 -44.32 C183.3 -46.31, 182.16 -43.87, 186.76 -38.71 C191.36 -33.55, 204.2 -18.28, 202.83 -13.38 C201.47 -8.49, 191.19 -11.47, 178.59 -9.36 C166 -7.25, 135.73 -1.79, 127.27 -0.72 M0.44 2.82 C-4.91 2.05, -36.05 1.37, -31.76 -2.1 C-27.48 -5.57, 12.58 -13.42, 26.13 -18.02 C39.67 -22.62, 38.72 -27.85, 49.5 -29.7 C60.29 -31.54, 76.71 -29.15, 90.82 -29.1 C104.93 -29.05, 121.09 -26.57, 134.17 -29.4 C147.25 -32.23, 159.65 -44.48, 169.3 -46.07 C178.96 -47.66, 185.96 -45.16, 192.1 -38.92 C198.24 -32.68, 207.98 -13.29, 206.17 -8.63 C204.35 -3.96, 194.46 -12.66, 181.21 -10.93 C167.95 -9.2, 134.83 0.78, 126.64 1.77" stroke="#000" stroke-width="2" fill="none"></path></g></g><mask></mask><g stroke-linecap="round"><g transform="translate(153.0136946059231 174.18801818209013) rotate(303.8760896035968 1.968976937519642 -1.689471762950376)"><path d="M-2.17 -0.44 C-1.45 0.68, 2.73 8.35, 5.49 9.23 C8.24 10.11, 13.25 8.15, 14.34 4.85 C15.43 1.55, 14.9 -7.63, 12.03 -10.57 C9.17 -13.52, 1.66 -14.47, -2.84 -12.81 C-7.34 -11.15, -14.54 -5.29, -14.98 -0.61 C-15.42 4.08, -9.52 11.86, -5.46 15.3 C-1.41 18.75, 4.17 20.74, 9.34 20.05 C14.51 19.37, 22.74 16.9, 25.57 11.2 C28.4 5.5, 27.65 -7.7, 26.34 -14.13 C25.02 -20.56, 23.46 -25.02, 17.66 -27.38 C11.87 -29.73, -1.19 -31.22, -8.41 -28.26 C-15.64 -25.31, -23.02 -12.66, -25.71 -9.65 M1.84 -3.14 C2.26 -0.54, 1.27 11, 4.27 11.59 C7.27 12.18, 18.61 5, 19.84 0.41 C21.07 -4.18, 14.79 -14.09, 11.67 -15.97 C8.54 -17.85, 5.01 -13.23, 1.1 -10.88 C-2.81 -8.53, -9.74 -7.02, -11.79 -1.89 C-13.83 3.23, -14.37 15.15, -11.16 19.89 C-7.94 24.63, 0.72 28.38, 7.52 26.53 C14.32 24.67, 26.29 14.48, 29.65 8.74 C33 2.99, 29.5 -2.13, 27.65 -7.95 C25.81 -13.76, 23.89 -23.82, 18.58 -26.14 C13.28 -28.46, 3.34 -24.51, -4.17 -21.89 C-11.68 -19.26, -22.68 -12.42, -26.46 -10.4" stroke="#000" stroke-width="2" fill="none"></path></g></g><mask></mask><g stroke-linecap="round"><g transform="translate(233.8050096680081 153.7690891034829) rotate(12.707144829066923 1.359909105716099 0.8583760849578823)"><path d="M-0.44 1.89 C-0.16 3.43, 0.57 6.75, 4.18 7.07 C7.78 7.39, 19.05 6.67, 21.18 3.82 C23.31 0.97, 20.37 -7.39, 16.94 -10.01 C13.51 -12.63, 5.4 -13.92, 0.62 -11.89 C-4.16 -9.85, -10 -2.77, -11.71 2.19 C-13.42 7.14, -12.76 14.25, -9.65 17.85 C-6.54 21.45, 0.52 25.3, 6.95 23.79 C13.37 22.27, 25.83 14.68, 28.91 8.77 C32 2.85, 27.64 -6.05, 25.46 -11.7 C23.28 -17.36, 21.32 -23.02, 15.85 -25.15 C10.38 -27.29, -0.87 -27.33, -7.36 -24.49 C-13.86 -21.66, -20.39 -10.66, -23.11 -8.15 M-4.12 0.44 C-3.22 2.44, 5.21 8.45, 9.31 9.37 C13.4 10.3, 18.99 8.98, 20.46 5.98 C21.94 2.98, 21.88 -5.78, 18.16 -8.63 C14.44 -11.48, 3.82 -12.74, -1.85 -11.1 C-7.51 -9.47, -14.65 -3.24, -15.85 1.16 C-17.04 5.56, -13.62 11.74, -9.01 15.27 C-4.4 18.81, 6.01 22.64, 11.8 22.37 C17.6 22.09, 23.42 19.47, 25.77 13.64 C28.11 7.81, 27.59 -6.35, 25.89 -12.61 C24.18 -18.86, 20.39 -22.96, 15.52 -23.89 C10.65 -24.81, 2.83 -20.34, -3.32 -18.15 C-9.47 -15.96, -17.85 -13.35, -21.38 -10.76" stroke="#000" stroke-width="2" fill="none"></path></g></g><mask></mask><g stroke-linecap="round"><g transform="translate(119.043780811043 143.3384850292389) rotate(0 20.823616940818624 -18.260710240410162)"><path d="M1.89 -2.34 C7.07 -4.61, 22.61 -8.51, 28.95 -14.01 C35.28 -19.51, 38.16 -31.91, 39.9 -35.35 M-0.53 2.55 C5.7 -0.44, 26.31 -10.8, 34.02 -17.93 C41.74 -25.06, 44.99 -36.62, 45.78 -40.24" stroke="#000" stroke-width="2" fill="none"></path></g></g><mask></mask><g stroke-linecap="round"><g transform="translate(206.575946968449 97.79546386416112) rotate(0 26.269793679186535 9.610900126531675)"><path d="M-2.34 -2.45 C0.84 -1.13, 9.32 6.55, 18.67 9.78 C28.01 13.02, 47.76 15.44, 53.71 16.97 M1.58 2.4 C4.61 3.87, 9.03 9.72, 17.52 12.46 C26.01 15.2, 46.13 17.36, 52.54 18.85" stroke="#000" stroke-width="2" fill="none"></path></g></g><mask></mask></svg>