<svg version="1.1" xmlns="http://www.w3.org/2000/svg" viewBox="0 0 111.28412285656702 227.5939503235303" width="111.28412285656702" height="227.5939503235303">
  <!-- svg-source:excalidraw -->
  
  <defs>
    
    
  </defs>
  <g stroke-linecap="round" transform="translate(26.859414373663242 6) rotate(0 36.9286981817651 28.347195808091925)"><path d="M12.25 8 C12.25 8, 12.25 8, 12.25 8 M12.25 8 C12.25 8, 12.25 8, 12.25 8 M4.64 41.14 C15.14 30.36, 25.57 21, 38.76 1.89 M4.64 41.14 C16.44 27.8, 25.17 16.7, 38.76 1.89 M16.72 51.63 C27.81 38.12, 41.29 20.59, 57.39 4.84 M16.72 51.63 C26.55 42.34, 35.83 31.34, 57.39 4.84 M34.7 55.34 C42.32 45.96, 51.21 36.06, 69.47 15.34 M34.7 55.34 C48.35 41.13, 60.05 25.46, 69.47 15.34 M59.24 51.49 C64.15 46.29, 70.94 37.77, 73.67 34.89 M59.24 51.49 C64.22 44.9, 68.69 39.83, 73.67 34.89" stroke="#ced4da" stroke-width="2" fill="none"></path><path d="M32.79 0.93 C39.53 -0.07, 48.57 0.73, 54.85 3.3 C61.14 5.88, 67.34 11.18, 70.51 16.37 C73.68 21.55, 75.22 28.8, 73.87 34.43 C72.51 40.05, 67.76 46.51, 62.36 50.1 C56.97 53.7, 48.8 55.5, 41.49 56 C34.18 56.49, 24.79 55.59, 18.5 53.08 C12.22 50.57, 6.72 45.88, 3.77 40.93 C0.82 35.98, -0.63 28.9, 0.8 23.39 C2.24 17.87, 6.69 11.62, 12.39 7.83 C18.1 4.05, 31.1 2.01, 35.03 0.69 C38.97 -0.64, 36.27 -0.4, 36.01 -0.11 M51.1 1.7 C57.45 3.58, 65.9 9.94, 69.75 15.08 C73.59 20.21, 75.14 27.24, 74.17 32.52 C73.21 37.81, 69.17 43.04, 63.95 46.77 C58.73 50.5, 49.82 53.75, 42.83 54.92 C35.85 56.1, 28.25 56.01, 22.05 53.81 C15.85 51.61, 9.17 46.34, 5.65 41.72 C2.13 37.1, 0.17 31.33, 0.92 26.11 C1.68 20.88, 5.52 14.83, 10.19 10.37 C14.86 5.91, 21.73 0.49, 28.93 -0.65 C36.14 -1.79, 49.35 2.69, 53.42 3.52 C57.49 4.35, 53.96 3.81, 53.36 4.34" stroke="#1864ab" stroke-width="4" fill="none"></path></g><g stroke-linecap="round"><g transform="translate(39.87778022155243 39.20170505497356) rotate(0 13.967841985784162 4.104238244911642)"><path d="M-0.44 -0.13 C0.93 1.29, 3.94 7.61, 8.69 8.01 C13.43 8.4, 24.85 3.31, 28.05 2.26 M0.34 -0.67 C1.6 0.87, 3.7 8.26, 8.27 8.6 C12.84 8.95, 24.48 2.48, 27.76 1.4" stroke="#1864ab" stroke-width="4" fill="none"></path></g></g><mask></mask><g stroke-linecap="round"><g transform="translate(41.75745392762809 26.622525070202983) rotate(0 3.2321801724636146 -1.3921699916868988)" fill-rule="evenodd"><path d="M0 0 C0 0, 0 0, 0 0 M0 0 C0 0, 0 0, 0 0" stroke="#ced4da" stroke-width="2" fill="none"></path><path d="M-0.08 0.02 C0.64 -0.42, 2.87 -2.92, 4.01 -2.9 C5.14 -2.88, 6.33 -0.37, 6.72 0.15 M0.52 -0.28 C1.22 -0.8, 2.65 -3.62, 3.66 -3.48 C4.68 -3.35, 6.18 -0.15, 6.63 0.52" stroke="#1864ab" stroke-width="4" fill="none"></path></g></g><mask></mask><g stroke-linecap="round"><g transform="translate(62.47161507876325 26.738921581716) rotate(0 3.2321801724636146 -1.3921699916868988)" fill-rule="evenodd"><path d="M0 0 C0 0, 0 0, 0 0 M0 0 C0 0, 0 0, 0 0" stroke="#ced4da" stroke-width="2" fill="none"></path><path d="M0.02 -0.13 C0.77 -0.57, 3.14 -2.75, 4.21 -2.71 C5.28 -2.68, 6.05 -0.4, 6.43 0.08 M-0.4 -0.5 C0.33 -1.03, 2.87 -3.36, 3.97 -3.2 C5.07 -3.05, 5.75 -0.2, 6.18 0.41" stroke="#1864ab" stroke-width="4" fill="none"></path></g></g><mask></mask><g stroke-linecap="round"><g transform="translate(51.80757901373926 77.0792976175619) rotate(0 -22.24093088899579 21.816893013425073)"><path d="M-0.44 0.25 C-6.58 7.6, -29.72 44.34, -37.12 44.19 C-44.52 44.04, -43.6 6.7, -44.85 -0.63 M1.53 -0.67 C-4.67 6.88, -29.72 45.43, -37.61 45.66 C-45.5 45.89, -44.67 8.65, -45.81 0.72" stroke="#1864ab" stroke-width="4" fill="none"></path></g></g><mask></mask><g stroke-linecap="round"><g transform="translate(68.06192449239478 74.84245394438528) rotate(0 16.84178341580113 32.42078428984709)"><path d="M0.25 0.87 C5.83 5.99, 32.19 19.6, 33.55 30.24 C34.91 40.88, 12.48 58.84, 8.42 64.71 M-1.08 0.29 C4.33 5.61, 31.07 20.64, 32.53 31.59 C33.99 42.53, 11.45 60.68, 7.69 65.96" stroke="#1864ab" stroke-width="4" fill="none"></path></g></g><mask></mask><g stroke-linecap="round"><g transform="translate(62.09702168315965 84.68453607071126) rotate(0 -0.8947347387568811 63.07880249550391)"><path d="M0.87 -0.13 C0.59 8.96, -1.84 33.59, -2.16 54.78 C-2.47 75.98, -1.34 115.05, -1.02 127.02 M-0.13 -1.25 C-0.57 8.03, -3.01 35.29, -3.3 56.35 C-3.59 77.41, -2.47 113.2, -1.85 125.12" stroke="#1864ab" stroke-width="4" fill="none"></path></g></g><mask></mask><g stroke-linecap="round"><g transform="translate(50.9128374486981 221.28071415159707) rotate(0 -18.491182325547925 -0.14912359417354537)"><path d="M-0.06 -0.17 C-6.24 -0.29, -30.87 -0.39, -36.96 -0.36 M-0.76 -0.73 C-7.01 -0.8, -31.38 0.34, -37.37 0.31" stroke="#1864ab" stroke-width="4" fill="none"></path></g></g><mask></mask><g stroke-linecap="round"><g transform="translate(66.86894939157486 220.83334678221854) rotate(0 19.236796883273428 -0.2236836846892345)"><path d="M-0.17 0.03 C6.17 0.03, 31.92 -0.01, 38.42 -0.05 M0.75 -0.44 C6.97 -0.58, 31.65 -0.69, 37.95 -0.82" stroke="#1864ab" stroke-width="4" fill="none"></path></g></g><mask></mask></svg>