<svg xmlns="http://www.w3.org/2000/svg" viewBox="401.61 156.95 546.66 608.49" width="547" height="608"><ellipse cx="722.52" cy="397.27" rx="95.62" ry="98.88" stroke="#000" stroke-width="2" opacity="1.0" fill="none" transform="rotate(28.87 722.52 397.27)"/><ellipse cx="757.51" cy="432.18" rx="33.10" ry="44.85" stroke="#000" stroke-width="2" opacity="1.0" fill="none" transform="rotate(28.87 757.51 432.18)"/><polyline points="814.03,382.69 811.19,344.25 801.70,299.40 767.56,281.24 736.26,290.86 726.77,322.89" fill="none" stroke="#000" stroke-width="2" opacity="1.0" stroke-linecap="round" stroke-linejoin="round" transform="rotate(28.87 770.40 411.14)"/><rect x="571.81" y="549.02" width="293.03" height="175.99" rx="0" stroke="#000" stroke-width="2" opacity="1.0" fill="none"/><ellipse cx="719.58" cy="633.78" rx="14.52" ry="14.52" stroke="#000" stroke-width="2" opacity="1.0" fill="none"/><polyline points="611.14,462.02 651.82,469.44 705.93,462.80 734.20,438.59" fill="none" stroke="#000" stroke-width="2" opacity="1.0" stroke-linecap="round" stroke-linejoin="round" transform="rotate(28.87 672.67 472.30)"/><ellipse cx="603.96" cy="415.16" rx="17.39" ry="8.33" stroke="#000" stroke-width="2" opacity="1.0" fill="none" transform="rotate(58.16 603.96 415.16)"/><ellipse cx="614.34" cy="322.45" rx="11.21" ry="10.68" stroke="#000" stroke-width="2" opacity="1.0" fill="none"/><ellipse cx="574.49" cy="299.11" rx="22.43" ry="17.62" stroke="#000" stroke-width="2" opacity="1.0" fill="none"/><ellipse cx="499.44" cy="220.62" rx="91.84" ry="57.67" stroke="#000" stroke-width="2" opacity="1.0" fill="none"/><ellipse cx="469.80" cy="223.46" rx="5.21" ry="5.21" stroke="#000" stroke-width="2" opacity="1.0" fill="none"/><ellipse cx="497.03" cy="223.46" rx="5.21" ry="5.21" stroke="#000" stroke-width="2" opacity="1.0" fill="none"/><ellipse cx="526.66" cy="223.46" rx="5.21" ry="5.21" stroke="#000" stroke-width="2" opacity="1.0" fill="none"/><polyline points="658.63,375.33 724.55,385.10" fill="none" stroke="#000" stroke-width="2" opacity="1.0" stroke-linecap="round" stroke-linejoin="round"/><polyline points="682.09,350.00 738.84,326.20" fill="none" stroke="#000" stroke-width="2" opacity="1.0" stroke-linecap="round" stroke-linejoin="round"/><polyline points="567.61,726.62 526.76,730.62 534.77,749.04 578.82,749.04 657.31,753.05 746.21,752.25 876.19,748.24 910.39,725.82 886.89,718.42" fill="none" stroke="#000" stroke-width="2" opacity="1.0" stroke-linecap="round" stroke-linejoin="round"/><polyline points="827.74,539.86 780.26,503.99 759.74,507.09 722.77,512.38 687.95,510.76 651.43,495.75 604.02,535.01 682.91,535.01" fill="none" stroke="#000" stroke-width="2" opacity="1.0" stroke-linecap="round" stroke-linejoin="round"/></svg>