<svg version="1.1" xmlns="http://www.w3.org/2000/svg" viewBox="0 0 112.63190885016269 151.22328227435008" width="112.63190885016269" height="151.22328227435008">
  <!-- svg-source:excalidraw -->
  
  <defs>
    
    
  </defs>
  <g stroke-linecap="round"><g transform="translate(54.027583881301325 32.53262733652525) rotate(376.85473525232663 -1.721821007631064 -8.65240501704173)"><path d="M0 0 C-1.48 -6.06, -2.61 -11.79, -3.44 -17.3 M0 0 C-1.2 -6.09, -2.08 -12.29, -3.44 -17.3" stroke="#000000" stroke-width="1" fill="none"></path></g></g><mask></mask><g stroke-linecap="round" transform="translate(50.68764392135017 5.954764429896045) rotate(376.85473525232663 3.727623079464678 4.3011035532285575)"><path d="M1.24 1.07 C1.24 1.07, 1.24 1.07, 1.24 1.07 M1.24 1.07 C1.24 1.07, 1.24 1.07, 1.24 1.07 M1.63 6.72 C2.84 5.27, 4.3 3.53, 6.22 1.43 M1.63 6.72 C2.82 5.4, 4.1 3.88, 6.22 1.43" stroke="#000000" stroke-width="0.5" fill="none"></path><path d="M3.73 0.12 C4.53 -0.04, 5.29 0.22, 5.94 0.69 C6.58 1.15, 7.41 1.98, 7.61 2.92 C7.81 3.86, 7.46 5.5, 7.12 6.33 C6.78 7.17, 6.32 7.57, 5.57 7.95 C4.82 8.32, 3.4 8.8, 2.64 8.58 C1.87 8.36, 1.38 7.43, 0.96 6.62 C0.55 5.82, 0.12 4.66, 0.14 3.76 C0.17 2.86, 0.59 1.82, 1.1 1.23 C1.6 0.64, 2.81 0.44, 3.18 0.2 C3.54 -0.03, 3.26 -0.25, 3.29 -0.18 M2.89 0.46 C3.55 0.41, 4.83 0.61, 5.62 1.04 C6.42 1.47, 7.44 2.24, 7.67 3.03 C7.89 3.81, 7.39 4.86, 6.99 5.77 C6.58 6.69, 5.95 8.02, 5.23 8.53 C4.52 9.05, 3.5 9.05, 2.69 8.85 C1.89 8.64, 0.93 8.05, 0.41 7.3 C-0.11 6.55, -0.45 5.36, -0.41 4.34 C-0.37 3.33, 0.08 1.93, 0.65 1.23 C1.21 0.53, 2.55 0.3, 2.99 0.15 C3.43 0, 3.24 0.22, 3.29 0.33" stroke="#000000" stroke-width="1" fill="none"></path></g><g stroke-linecap="round"><g transform="translate(60.054294751155055 69.81712577405017) rotate(356.02471234182775 -0.5730390200272382 35.46633893219192)" fill-rule="evenodd"><path d="M-14.34 8.74 C-14.34 8.74, -14.34 8.74, -14.34 8.74 M-14.34 8.74 C-14.34 8.74, -14.34 8.74, -14.34 8.74 M-17.22 18.15 C-11.6 12.43, -7.42 5.27, -2.79 1.55 M-17.22 18.15 C-14.23 15.05, -10.71 11.09, -2.79 1.55 M-17.49 24.55 C-10.09 18.47, -5.78 11.47, 2.85 1.15 M-17.49 24.55 C-9.95 17.35, -3.66 9.52, 2.85 1.15 M-17.09 30.19 C-11.08 21.5, -3.16 12.86, 6.53 3.02 M-17.09 30.19 C-12.44 23.34, -6.29 16.92, 6.53 3.02 M-16.7 35.84 C-12.17 28.49, -4.23 23.92, 10.2 4.89 M-16.7 35.84 C-8.94 26.65, 1.14 16.99, 10.2 4.89 M-15.65 40.73 C-4.36 30.94, 3.75 17.31, 13.88 6.76 M-15.65 40.73 C-4.39 28.05, 6.78 15.09, 13.88 6.76 M-15.25 46.37 C-6.47 36.32, 0.94 24.58, 15.58 10.9 M-15.25 46.37 C-8.13 37.29, 0.13 28.64, 15.58 10.9 M-14.2 51.26 C-2.26 40.46, 9.37 27.25, 17.29 15.03 M-14.2 51.26 C-2.81 39.37, 7.73 25.4, 17.29 15.03 M-13.81 56.9 C-2.53 45.07, 9.54 31.77, 17.03 21.43 M-13.81 56.9 C-2.06 43.71, 9.97 30.73, 17.03 21.43 M-12.75 61.79 C-5.55 53.47, 2.06 45.43, 16.11 28.58 M-12.75 61.79 C-2.74 49.55, 7.51 37.36, 16.11 28.58 M-11.7 66.68 C-5.04 57.89, 1.39 52.65, 14.54 36.49 M-11.7 66.68 C-1.54 55.68, 6.73 44, 14.54 36.49 M-10 70.81 C-6.17 66.87, -1.39 58.64, 13.62 43.64 M-10 70.81 C-3.21 62.62, 3.21 55.35, 13.62 43.64 M-7.63 74.19 C-3.02 68.34, 3.43 62.86, 12.05 51.55 M-7.63 74.19 C-0.91 66.47, 6.57 58.49, 12.05 51.55 M-3.3 75.3 C1.4 69.11, 8.3 63.36, 10.47 59.45 M-3.3 75.3 C1.65 69.33, 8.33 61.95, 10.47 59.45" stroke="#000000" stroke-width="0.5" fill="none"></path><path d="M-1.05 0.05 C1.71 2.37, 14.92 2.47, 16.32 13.12 C17.71 23.77, 11.7 54.22, 7.32 63.95 C2.94 73.68, -5.83 79.37, -9.95 71.5 C-14.07 63.64, -19.02 28.85, -17.39 16.76 C-15.77 4.68, -3 1.95, -0.18 -1.02 M0.6 -0.96 C3.22 1.61, 14.37 3.68, 15.34 14.62 C16.3 25.56, 10.48 55.58, 6.36 64.69 C2.24 73.79, -5.19 77.1, -9.38 69.24 C-13.57 61.39, -20.55 28.92, -18.79 17.56 C-17.04 6.19, -1.98 3.87, 1.14 1.06" stroke="#000000" stroke-width="1" fill="none"></path></g></g><mask></mask><g stroke-linecap="round"><g transform="translate(77.64325340806681 86.30233330608775) rotate(7.182594496707925 13.919313089444387 -31.753432985294978)"><path d="M1.2 -0.02 C5.85 -5.18, 27.95 -19.78, 29.03 -30.45 C30.12 -41.12, 11.16 -58.72, 7.71 -64.03 M0.37 -1.07 C4.88 -6.15, 27.66 -19.05, 28.71 -29.37 C29.76 -39.69, 10 -57.18, 6.65 -62.99" stroke="#000000" stroke-width="1" fill="none"></path></g></g><mask></mask><g stroke-linecap="round"><g transform="translate(34.7601859233846 89.13890053777874) rotate(348.60478902668814 -14.59965109502042 -30.01351884911446)"><path d="M-0.95 0.77 C-6.13 -1.91, -27.53 -6.76, -30.22 -16.99 C-32.9 -27.22, -19.33 -53.33, -17.03 -60.61 M0.75 0.12 C-4.15 -2.35, -24.99 -5.97, -28.04 -15.93 C-31.08 -25.88, -18.99 -52.28, -17.53 -59.61" stroke="#000000" stroke-width="1" fill="none"></path></g></g><mask></mask><g stroke-linecap="round" transform="translate(28.62413931362869 33.20046055964582) rotate(350.1341930569157 24.351151420023825 16.005987923857447)"><path d="M2.13 1.85 C2.13 1.85, 2.13 1.85, 2.13 1.85 M2.13 1.85 C2.13 1.85, 2.13 1.85, 2.13 1.85 M0.56 9.76 C3.4 7.32, 6.31 3.76, 8.43 0.7 M0.56 9.76 C3.52 6.7, 5.1 4.73, 8.43 0.7 M0.3 16.16 C5.69 10.64, 6.69 9.05, 14.07 0.31 M0.3 16.16 C5.38 10.28, 10.05 4.37, 14.07 0.31 M0.69 21.8 C7.5 13.39, 16.68 5.83, 19.06 0.67 M0.69 21.8 C5.06 17.55, 7.87 12.71, 19.06 0.67 M1.08 27.44 C5.75 20.16, 11.48 16.78, 24.7 0.27 M1.08 27.44 C7.01 21.62, 11.09 16.15, 24.7 0.27 M3.45 30.82 C11.51 21.17, 15.62 13.19, 29.69 0.63 M3.45 30.82 C14.38 19.23, 24.47 7.24, 29.69 0.63 M7.78 31.94 C15.26 22.19, 22.89 15.29, 35.33 0.24 M7.78 31.94 C15.9 22.72, 23.52 12.46, 35.33 0.24 M12.77 32.3 C18.99 24.93, 26.5 15.6, 40.98 -0.16 M12.77 32.3 C20.51 23.64, 27.58 14.5, 40.98 -0.16 M17.75 32.66 C23.43 26.83, 27.99 17.74, 44.65 1.71 M17.75 32.66 C28.44 20.78, 37.4 9.61, 44.65 1.71 M23.4 32.26 C32.04 23.05, 37.95 13.22, 47.67 4.34 M23.4 32.26 C29.58 26.48, 35.5 18.55, 47.67 4.34 M28.38 32.62 C36.14 24, 43.5 14.39, 49.38 8.47 M28.38 32.62 C36.66 23.84, 42.46 16.01, 49.38 8.47 M34.03 32.23 C38.97 25.41, 46.97 20.03, 49.11 14.87 M34.03 32.23 C36.65 28.13, 39.97 24.98, 49.11 14.87 M39.01 32.59 C40.4 29.08, 42.58 27.98, 49.51 20.51 M39.01 32.59 C41.19 29.57, 43.05 27.32, 49.51 20.51 M46.62 29.93 C46.78 29.64, 47.13 29.35, 47.28 29.17 M46.62 29.93 C46.85 29.66, 47.1 29.4, 47.28 29.17" stroke="#000000" stroke-width="0.5" fill="none"></path><path d="M8 0 C21.36 1.74, 31.55 -0.03, 40.7 0 M8 0 C17.5 -0.94, 27.51 -0.3, 40.7 0 M40.7 0 C47.05 1.06, 50.01 1.33, 48.7 8 M40.7 0 C43.74 1.16, 48.29 4.51, 48.7 8 M48.7 8 C49.7 14.41, 47.69 20.11, 48.7 24.01 M48.7 8 C48.48 13.36, 48.5 19.77, 48.7 24.01 M48.7 24.01 C47.37 31.08, 44.16 31.27, 40.7 32.01 M48.7 24.01 C47.32 28.21, 46.93 31.26, 40.7 32.01 M40.7 32.01 C31.71 30.38, 21.77 31.61, 8 32.01 M40.7 32.01 C27.14 32.13, 14.47 31.7, 8 32.01 M8 32.01 C4.1 30.74, -0.23 28.44, 0 24.01 M8 32.01 C0.61 30.37, 1.16 30.22, 0 24.01 M0 24.01 C0.34 18.88, -0.15 13.34, 0 8 M0 24.01 C-0.01 18.83, 0.15 15.13, 0 8 M0 8 C-1.3 4.15, 2.39 -1.31, 8 0 M0 8 C-2.24 0.42, 3.39 -1.32, 8 0" stroke="#000000" stroke-width="1" fill="none"></path></g><g stroke-linecap="round"><g transform="translate(61.5279803397101 55.25921054467233) rotate(0 -9.27706865227924 2.8938866000296457)" fill-rule="evenodd"><path d="M0.16 -0.42 C-1.7 -0.27, -8.38 2.29, -12.64 2.16 C-16.91 2.03, -26.46 -2.65, -25.44 -1.21 C-24.41 0.23, -11.57 11.03, -6.49 10.8 C-1.41 10.58, 4.04 -0.77, 5.05 -2.53 C6.06 -4.29, 0.3 -0.25, -0.42 0.25" stroke="none" stroke-width="0" fill="#ffffff" fill-rule="evenodd"></path><path d="M0.29 0.54 C-1.65 0.58, -7.47 0.7, -11.74 0.65 C-16 0.61, -26.14 -1.09, -25.3 0.28 C-24.45 1.65, -11.89 9.5, -6.66 8.89 C-1.44 8.28, 4.92 -1.84, 6.05 -3.4 C7.17 -4.96, 1.01 -1.02, 0.08 -0.48 M-0.23 0.33 C-2.23 0.43, -8.19 1.45, -12.18 1.29 C-16.18 1.13, -25.18 -1.94, -24.2 -0.63 C-23.22 0.68, -11.49 9.57, -6.31 9.15 C-1.13 8.73, 5.72 -1.69, 6.9 -3.14 C8.08 -4.59, 2.02 0.08, 0.77 0.47" stroke="#000000" stroke-width="1" fill="none"></path></g></g><mask></mask><g stroke-linecap="round" transform="translate(37.9001656617171 38.01253678191108) rotate(0 4.999438574533912 5.551605443045531)"><path d="M5.26 -0.05 C6.25 -0.16, 7.52 0.35, 8.29 1.18 C9.05 2.01, 9.69 3.72, 9.82 4.94 C9.95 6.16, 9.7 7.49, 9.08 8.49 C8.46 9.5, 7.09 10.64, 6.1 10.95 C5.11 11.27, 3.98 10.86, 3.13 10.39 C2.27 9.92, 1.53 9.2, 0.97 8.12 C0.41 7.05, -0.3 5.08, -0.23 3.95 C-0.15 2.82, 0.51 2.02, 1.4 1.36 C2.3 0.7, 4.37 0.16, 5.13 0 C5.89 -0.16, 5.95 0.37, 5.97 0.4 M3.8 0.54 C4.81 0.15, 6.7 -0.2, 7.74 0.4 C8.79 0.99, 9.66 2.76, 10.06 4.09 C10.46 5.41, 10.54 7.17, 10.14 8.34 C9.74 9.51, 8.74 10.56, 7.68 11.1 C6.62 11.65, 4.93 11.88, 3.79 11.61 C2.66 11.33, 1.51 10.48, 0.89 9.44 C0.28 8.41, 0.08 6.56, 0.09 5.38 C0.11 4.21, 0.32 3.37, 0.98 2.41 C1.64 1.44, 3.37 0.07, 4.07 -0.38 C4.76 -0.83, 5.17 -0.48, 5.14 -0.29" stroke="none" stroke-width="0" fill="#ffffff"></path><path d="M4.56 0.26 C5.69 0.18, 7.4 0.83, 8.23 1.41 C9.05 1.99, 9.27 2.66, 9.52 3.74 C9.77 4.83, 10.09 6.73, 9.73 7.93 C9.38 9.12, 8.4 10.39, 7.4 10.94 C6.41 11.48, 4.81 11.53, 3.76 11.18 C2.72 10.83, 1.81 9.84, 1.13 8.83 C0.46 7.82, -0.42 6.32, -0.3 5.12 C-0.18 3.92, 1.02 2.54, 1.87 1.66 C2.72 0.78, 4.32 0.12, 4.81 -0.16 C5.3 -0.45, 4.78 -0.1, 4.81 -0.04 M5.63 -0.24 C6.8 -0.06, 8.51 1, 9.25 1.92 C10 2.85, 10.15 3.97, 10.11 5.29 C10.07 6.6, 9.87 8.73, 9.02 9.8 C8.16 10.86, 6.14 11.49, 4.99 11.69 C3.84 11.89, 2.9 11.71, 2.11 10.98 C1.32 10.25, 0.6 8.55, 0.25 7.3 C-0.1 6.06, -0.39 4.65, 0 3.49 C0.39 2.34, 1.49 1.01, 2.6 0.37 C3.7 -0.27, 6.05 -0.27, 6.62 -0.35 C7.18 -0.42, 6.19 -0.18, 5.97 -0.1" stroke="#000000" stroke-width="1" fill="none"></path></g><g stroke-linecap="round" transform="translate(40.348172942823794 40.67925513859046) rotate(0 1.5267746544984675 2.0356995393313184)"><path d="M3.05 2.04 C3.05 2.15, 3.05 2.27, 3.03 2.39 C3.02 2.51, 2.99 2.62, 2.96 2.73 C2.93 2.84, 2.89 2.95, 2.85 3.05 C2.8 3.16, 2.75 3.25, 2.7 3.34 C2.64 3.43, 2.58 3.52, 2.51 3.6 C2.44 3.67, 2.37 3.74, 2.29 3.8 C2.21 3.86, 2.13 3.91, 2.05 3.95 C1.97 3.99, 1.88 4.02, 1.79 4.04 C1.7 4.06, 1.62 4.07, 1.53 4.07 C1.44 4.07, 1.35 4.06, 1.26 4.04 C1.17 4.02, 1.09 3.99, 1 3.95 C0.92 3.91, 0.84 3.86, 0.76 3.8 C0.69 3.74, 0.61 3.67, 0.55 3.6 C0.48 3.52, 0.41 3.43, 0.36 3.34 C0.3 3.25, 0.25 3.16, 0.2 3.05 C0.16 2.95, 0.12 2.84, 0.09 2.73 C0.06 2.62, 0.04 2.51, 0.02 2.39 C0.01 2.27, 0 2.15, 0 2.04 C0 1.92, 0.01 1.8, 0.02 1.68 C0.04 1.57, 0.06 1.45, 0.09 1.34 C0.12 1.23, 0.16 1.12, 0.2 1.02 C0.25 0.92, 0.3 0.82, 0.36 0.73 C0.41 0.64, 0.48 0.55, 0.55 0.48 C0.61 0.4, 0.69 0.33, 0.76 0.27 C0.84 0.21, 0.92 0.16, 1 0.12 C1.09 0.08, 1.17 0.05, 1.26 0.03 C1.35 0.01, 1.44 0, 1.53 0 C1.62 0, 1.7 0.01, 1.79 0.03 C1.88 0.05, 1.97 0.08, 2.05 0.12 C2.13 0.16, 2.21 0.21, 2.29 0.27 C2.37 0.33, 2.44 0.4, 2.51 0.48 C2.58 0.55, 2.64 0.64, 2.7 0.73 C2.75 0.82, 2.8 0.92, 2.85 1.02 C2.89 1.12, 2.93 1.23, 2.96 1.34 C2.99 1.45, 3.02 1.57, 3.03 1.68 C3.05 1.8, 3.05 1.98, 3.05 2.04 C3.06 2.09, 3.06 1.98, 3.05 2.04" stroke="none" stroke-width="0" fill="#000000"></path><path d="M3.05 2.04 C3.05 2.15, 3.05 2.27, 3.03 2.39 C3.02 2.51, 2.99 2.62, 2.96 2.73 C2.93 2.84, 2.89 2.95, 2.85 3.05 C2.8 3.16, 2.75 3.25, 2.7 3.34 C2.64 3.43, 2.58 3.52, 2.51 3.6 C2.44 3.67, 2.37 3.74, 2.29 3.8 C2.21 3.86, 2.13 3.91, 2.05 3.95 C1.97 3.99, 1.88 4.02, 1.79 4.04 C1.7 4.06, 1.62 4.07, 1.53 4.07 C1.44 4.07, 1.35 4.06, 1.26 4.04 C1.17 4.02, 1.09 3.99, 1 3.95 C0.92 3.91, 0.84 3.86, 0.76 3.8 C0.69 3.74, 0.61 3.67, 0.55 3.6 C0.48 3.52, 0.41 3.43, 0.36 3.34 C0.3 3.25, 0.25 3.16, 0.2 3.05 C0.16 2.95, 0.12 2.84, 0.09 2.73 C0.06 2.62, 0.04 2.51, 0.02 2.39 C0.01 2.27, 0 2.15, 0 2.04 C0 1.92, 0.01 1.8, 0.02 1.68 C0.04 1.57, 0.06 1.45, 0.09 1.34 C0.12 1.23, 0.16 1.12, 0.2 1.02 C0.25 0.92, 0.3 0.82, 0.36 0.73 C0.41 0.64, 0.48 0.55, 0.55 0.48 C0.61 0.4, 0.69 0.33, 0.76 0.27 C0.84 0.21, 0.92 0.16, 1 0.12 C1.09 0.08, 1.17 0.05, 1.26 0.03 C1.35 0.01, 1.44 0, 1.53 0 C1.62 0, 1.7 0.01, 1.79 0.03 C1.88 0.05, 1.97 0.08, 2.05 0.12 C2.13 0.16, 2.21 0.21, 2.29 0.27 C2.37 0.33, 2.44 0.4, 2.51 0.48 C2.58 0.55, 2.64 0.64, 2.7 0.73 C2.75 0.82, 2.8 0.92, 2.85 1.02 C2.89 1.12, 2.93 1.23, 2.96 1.34 C2.99 1.45, 3.02 1.57, 3.03 1.68 C3.05 1.8, 3.05 1.98, 3.05 2.04 C3.06 2.09, 3.06 1.98, 3.05 2.04" stroke="#000000" stroke-width="1" fill="none"></path></g><g stroke-linecap="round" transform="translate(55.75717916462054 36.82206921505042) rotate(0 4.999438574533912 5.551605443045531)"><path d="M5.15 0.02 C6.23 -0.09, 7.5 0.29, 8.28 1.07 C9.06 1.85, 9.73 3.52, 9.83 4.7 C9.93 5.88, 9.43 7.16, 8.88 8.12 C8.33 9.09, 7.4 10.09, 6.53 10.48 C5.66 10.87, 4.59 10.87, 3.67 10.47 C2.75 10.07, 1.58 9.09, 0.99 8.1 C0.4 7.1, 0.02 5.57, 0.14 4.49 C0.26 3.41, 0.87 2.32, 1.7 1.61 C2.52 0.89, 4.55 0.44, 5.08 0.2 C5.61 -0.04, 4.93 0.06, 4.87 0.19 M5.46 0.04 C6.55 0.08, 8.59 0.85, 9.47 1.95 C10.35 3.05, 10.95 5.35, 10.74 6.63 C10.52 7.9, 9.14 8.83, 8.2 9.61 C7.25 10.39, 5.94 11.2, 5.04 11.31 C4.15 11.42, 3.6 10.95, 2.85 10.25 C2.09 9.55, 0.99 8.31, 0.51 7.13 C0.02 5.94, -0.36 4.32, -0.07 3.13 C0.22 1.93, 1.11 0.39, 2.25 -0.05 C3.39 -0.49, 6.02 0.33, 6.77 0.48 C7.52 0.64, 6.96 0.74, 6.75 0.88" stroke="none" stroke-width="0" fill="#ffffff"></path><path d="M6.34 0.42 C7.45 0.71, 8.64 1.79, 9.27 2.69 C9.9 3.59, 10.24 4.75, 10.14 5.83 C10.04 6.9, 9.36 8.32, 8.68 9.13 C7.99 9.95, 7.06 10.57, 6.03 10.71 C5 10.86, 3.44 10.55, 2.48 10 C1.51 9.45, 0.52 8.6, 0.22 7.4 C-0.08 6.21, 0.3 4.02, 0.66 2.85 C1.03 1.69, 1.44 0.85, 2.42 0.41 C3.4 -0.02, 5.92 0.29, 6.54 0.25 C7.16 0.22, 6.27 0.04, 6.15 0.19 M4.12 0.44 C5 0.16, 5.59 -0.43, 6.61 0.19 C7.63 0.82, 9.73 2.98, 10.24 4.19 C10.75 5.39, 10.11 6.48, 9.67 7.44 C9.23 8.4, 8.44 9.28, 7.61 9.96 C6.78 10.65, 5.69 11.77, 4.72 11.55 C3.75 11.34, 2.68 9.75, 1.8 8.68 C0.93 7.61, -0.49 6.26, -0.51 5.12 C-0.53 3.98, 0.98 2.59, 1.7 1.84 C2.41 1.09, 3.39 0.83, 3.77 0.64 C4.14 0.46, 3.96 0.75, 3.97 0.73" stroke="#000000" stroke-width="1" fill="none"></path></g><g stroke-linecap="round" transform="translate(58.20518644572883 39.48878757173071) rotate(0 1.5267746544984675 2.0356995393313184)"><path d="M3.05 2.04 C3.05 2.15, 3.05 2.27, 3.03 2.39 C3.02 2.51, 2.99 2.62, 2.96 2.73 C2.93 2.84, 2.89 2.95, 2.85 3.05 C2.8 3.16, 2.75 3.25, 2.7 3.34 C2.64 3.43, 2.58 3.52, 2.51 3.6 C2.44 3.67, 2.37 3.74, 2.29 3.8 C2.21 3.86, 2.13 3.91, 2.05 3.95 C1.97 3.99, 1.88 4.02, 1.79 4.04 C1.7 4.06, 1.62 4.07, 1.53 4.07 C1.44 4.07, 1.35 4.06, 1.26 4.04 C1.17 4.02, 1.09 3.99, 1 3.95 C0.92 3.91, 0.84 3.86, 0.76 3.8 C0.69 3.74, 0.61 3.67, 0.55 3.6 C0.48 3.52, 0.41 3.43, 0.36 3.34 C0.3 3.25, 0.25 3.16, 0.2 3.05 C0.16 2.95, 0.12 2.84, 0.09 2.73 C0.06 2.62, 0.04 2.51, 0.02 2.39 C0.01 2.27, 0 2.15, 0 2.04 C0 1.92, 0.01 1.8, 0.02 1.68 C0.04 1.57, 0.06 1.45, 0.09 1.34 C0.12 1.23, 0.16 1.12, 0.2 1.02 C0.25 0.92, 0.3 0.82, 0.36 0.73 C0.41 0.64, 0.48 0.55, 0.55 0.48 C0.61 0.4, 0.69 0.33, 0.76 0.27 C0.84 0.21, 0.92 0.16, 1 0.12 C1.09 0.08, 1.17 0.05, 1.26 0.03 C1.35 0.01, 1.44 0, 1.53 0 C1.62 0, 1.7 0.01, 1.79 0.03 C1.88 0.05, 1.97 0.08, 2.05 0.12 C2.13 0.16, 2.21 0.21, 2.29 0.27 C2.37 0.33, 2.44 0.4, 2.51 0.48 C2.58 0.55, 2.64 0.64, 2.7 0.73 C2.75 0.82, 2.8 0.92, 2.85 1.02 C2.89 1.12, 2.93 1.23, 2.96 1.34 C2.99 1.45, 3.02 1.57, 3.03 1.68 C3.05 1.8, 3.05 1.98, 3.05 2.04 C3.06 2.09, 3.06 1.98, 3.05 2.04" stroke="none" stroke-width="0" fill="#000000"></path><path d="M3.05 2.04 C3.05 2.15, 3.05 2.27, 3.03 2.39 C3.02 2.51, 2.99 2.62, 2.96 2.73 C2.93 2.84, 2.89 2.95, 2.85 3.05 C2.8 3.16, 2.75 3.25, 2.7 3.34 C2.64 3.43, 2.58 3.52, 2.51 3.6 C2.44 3.67, 2.37 3.74, 2.29 3.8 C2.21 3.86, 2.13 3.91, 2.05 3.95 C1.97 3.99, 1.88 4.02, 1.79 4.04 C1.7 4.06, 1.62 4.07, 1.53 4.07 C1.44 4.07, 1.35 4.06, 1.26 4.04 C1.17 4.02, 1.09 3.99, 1 3.95 C0.92 3.91, 0.84 3.86, 0.76 3.8 C0.69 3.74, 0.61 3.67, 0.55 3.6 C0.48 3.52, 0.41 3.43, 0.36 3.34 C0.3 3.25, 0.25 3.16, 0.2 3.05 C0.16 2.95, 0.12 2.84, 0.09 2.73 C0.06 2.62, 0.04 2.51, 0.02 2.39 C0.01 2.27, 0 2.15, 0 2.04 C0 1.92, 0.01 1.8, 0.02 1.68 C0.04 1.57, 0.06 1.45, 0.09 1.34 C0.12 1.23, 0.16 1.12, 0.2 1.02 C0.25 0.92, 0.3 0.82, 0.36 0.73 C0.41 0.64, 0.48 0.55, 0.55 0.48 C0.61 0.4, 0.69 0.33, 0.76 0.27 C0.84 0.21, 0.92 0.16, 1 0.12 C1.09 0.08, 1.17 0.05, 1.26 0.03 C1.35 0.01, 1.44 0, 1.53 0 C1.62 0, 1.7 0.01, 1.79 0.03 C1.88 0.05, 1.97 0.08, 2.05 0.12 C2.13 0.16, 2.21 0.21, 2.29 0.27 C2.37 0.33, 2.44 0.4, 2.51 0.48 C2.58 0.55, 2.64 0.64, 2.7 0.73 C2.75 0.82, 2.8 0.92, 2.85 1.02 C2.89 1.12, 2.93 1.23, 2.96 1.34 C2.99 1.45, 3.02 1.57, 3.03 1.68 C3.05 1.8, 3.05 1.98, 3.05 2.04 C3.06 2.09, 3.06 1.98, 3.05 2.04" stroke="#000000" stroke-width="1" fill="none"></path></g></svg>