<svg version="1.1" xmlns="http://www.w3.org/2000/svg" viewBox="0 0 439.30322265625 439.30322265625" width="439.30322265625" height="439.30322265625">
  <!-- svg-source:excalidraw -->
  
  <defs>
    
    
  </defs>
  <g stroke-linecap="round" transform="translate(6 6) rotate(0 213.651611328125 213.65161132812497)"><path d="M427.3 213.65 C427.3 218.31, 427.15 222.98, 426.85 227.63 C426.54 232.27, 426.08 236.92, 425.48 241.54 C424.87 246.16, 424.11 250.76, 423.2 255.33 C422.29 259.9, 421.23 264.45, 420.02 268.95 C418.82 273.45, 417.46 277.92, 415.96 282.33 C414.47 286.74, 412.82 291.11, 411.04 295.41 C409.26 299.72, 407.33 303.97, 405.27 308.15 C403.21 312.32, 401.01 316.44, 398.68 320.48 C396.35 324.51, 393.88 328.48, 391.3 332.35 C388.71 336.22, 385.99 340.02, 383.15 343.71 C380.32 347.41, 377.35 351.02, 374.28 354.52 C371.21 358.02, 368.02 361.43, 364.73 364.73 C361.43 368.02, 358.02 371.21, 354.52 374.28 C351.02 377.35, 347.41 380.32, 343.71 383.15 C340.02 385.99, 336.22 388.71, 332.35 391.3 C328.48 393.88, 324.51 396.35, 320.48 398.68 C316.44 401.01, 312.32 403.21, 308.15 405.27 C303.97 407.33, 299.72 409.26, 295.41 411.04 C291.11 412.82, 286.74 414.47, 282.33 415.96 C277.92 417.46, 273.45 418.82, 268.95 420.02 C264.45 421.23, 259.9 422.29, 255.33 423.2 C250.76 424.11, 246.16 424.87, 241.54 425.48 C236.92 426.08, 232.27 426.54, 227.63 426.85 C222.98 427.15, 218.31 427.3, 213.65 427.3 C208.99 427.3, 204.33 427.15, 199.68 426.85 C195.03 426.54, 190.38 426.08, 185.76 425.48 C181.15 424.87, 176.54 424.11, 171.97 423.2 C167.4 422.29, 162.85 421.23, 158.35 420.02 C153.86 418.82, 149.39 417.46, 144.98 415.96 C140.56 414.47, 136.19 412.82, 131.89 411.04 C127.59 409.26, 123.33 407.33, 119.16 405.27 C114.98 403.21, 110.86 401.01, 106.83 398.68 C102.79 396.35, 98.83 393.88, 94.95 391.3 C91.08 388.71, 87.28 385.99, 83.59 383.15 C79.89 380.32, 76.28 377.35, 72.78 374.28 C69.28 371.21, 65.87 368.02, 62.58 364.73 C59.28 361.43, 56.09 358.02, 53.02 354.52 C49.95 351.02, 46.99 347.41, 44.15 343.71 C41.31 340.02, 38.59 336.22, 36.01 332.35 C33.42 328.48, 30.95 324.51, 28.62 320.48 C26.29 316.44, 24.09 312.32, 22.03 308.15 C19.97 303.97, 18.05 299.72, 16.26 295.41 C14.48 291.11, 12.84 286.74, 11.34 282.33 C9.84 277.92, 8.49 273.45, 7.28 268.95 C6.07 264.45, 5.01 259.9, 4.11 255.33 C3.2 250.76, 2.44 246.16, 1.83 241.54 C1.22 236.92, 0.76 232.27, 0.46 227.63 C0.15 222.98, 0 218.31, 0 213.65 C0 208.99, 0.15 204.33, 0.46 199.68 C0.76 195.03, 1.22 190.38, 1.83 185.76 C2.44 181.15, 3.2 176.54, 4.11 171.97 C5.01 167.4, 6.07 162.85, 7.28 158.35 C8.49 153.86, 9.84 149.39, 11.34 144.98 C12.84 140.56, 14.48 136.19, 16.26 131.89 C18.05 127.59, 19.97 123.33, 22.03 119.16 C24.09 114.98, 26.29 110.86, 28.62 106.83 C30.95 102.79, 33.42 98.83, 36.01 94.95 C38.59 91.08, 41.31 87.28, 44.15 83.59 C46.99 79.89, 49.95 76.28, 53.02 72.78 C56.09 69.28, 59.28 65.87, 62.58 62.58 C65.87 59.28, 69.28 56.09, 72.78 53.02 C76.28 49.95, 79.89 46.99, 83.59 44.15 C87.28 41.31, 91.08 38.59, 94.95 36.01 C98.83 33.42, 102.79 30.95, 106.83 28.62 C110.86 26.29, 114.98 24.09, 119.16 22.03 C123.33 19.97, 127.59 18.05, 131.89 16.26 C136.19 14.48, 140.56 12.84, 144.98 11.34 C149.39 9.84, 153.86 8.49, 158.35 7.28 C162.85 6.07, 167.4 5.01, 171.97 4.11 C176.54 3.2, 181.15 2.44, 185.76 1.83 C190.38 1.22, 195.03 0.76, 199.68 0.46 C204.33 0.15, 208.99 0, 213.65 0 C218.31 0, 222.98 0.15, 227.63 0.46 C232.27 0.76, 236.92 1.22, 241.54 1.83 C246.16 2.44, 250.76 3.2, 255.33 4.11 C259.9 5.01, 264.45 6.07, 268.95 7.28 C273.45 8.49, 277.92 9.84, 282.33 11.34 C286.74 12.84, 291.11 14.48, 295.41 16.26 C299.72 18.05, 303.97 19.97, 308.15 22.03 C312.32 24.09, 316.44 26.29, 320.48 28.62 C324.51 30.95, 328.48 33.42, 332.35 36.01 C336.22 38.59, 340.02 41.31, 343.71 44.15 C347.41 46.99, 351.02 49.95, 354.52 53.02 C358.02 56.09, 361.43 59.28, 364.73 62.58 C368.02 65.87, 371.21 69.28, 374.28 72.78 C377.35 76.28, 380.32 79.89, 383.15 83.59 C385.99 87.28, 388.71 91.08, 391.3 94.95 C393.88 98.83, 396.35 102.79, 398.68 106.83 C401.01 110.86, 403.21 114.98, 405.27 119.16 C407.33 123.33, 409.26 127.59, 411.04 131.89 C412.82 136.19, 414.47 140.56, 415.96 144.98 C417.46 149.39, 418.82 153.86, 420.02 158.35 C421.23 162.85, 422.29 167.4, 423.2 171.97 C424.11 176.54, 424.87 181.15, 425.48 185.76 C426.08 190.38, 426.54 195.03, 426.85 199.68 C427.15 204.33, 427.3 208.99, 427.3 213.65" stroke="none" stroke-width="0" fill="#fa5252"></path><path d="M427.3 213.65 C427.3 218.31, 427.15 222.98, 426.85 227.63 C426.54 232.27, 426.08 236.92, 425.48 241.54 C424.87 246.16, 424.11 250.76, 423.2 255.33 C422.29 259.9, 421.23 264.45, 420.02 268.95 C418.82 273.45, 417.46 277.92, 415.96 282.33 C414.47 286.74, 412.82 291.11, 411.04 295.41 C409.26 299.72, 407.33 303.97, 405.27 308.15 C403.21 312.32, 401.01 316.44, 398.68 320.48 C396.35 324.51, 393.88 328.48, 391.3 332.35 C388.71 336.22, 385.99 340.02, 383.15 343.71 C380.32 347.41, 377.35 351.02, 374.28 354.52 C371.21 358.02, 368.02 361.43, 364.73 364.73 C361.43 368.02, 358.02 371.21, 354.52 374.28 C351.02 377.35, 347.41 380.32, 343.71 383.15 C340.02 385.99, 336.22 388.71, 332.35 391.3 C328.48 393.88, 324.51 396.35, 320.48 398.68 C316.44 401.01, 312.32 403.21, 308.15 405.27 C303.97 407.33, 299.72 409.26, 295.41 411.04 C291.11 412.82, 286.74 414.47, 282.33 415.96 C277.92 417.46, 273.45 418.82, 268.95 420.02 C264.45 421.23, 259.9 422.29, 255.33 423.2 C250.76 424.11, 246.16 424.87, 241.54 425.48 C236.92 426.08, 232.27 426.54, 227.63 426.85 C222.98 427.15, 218.31 427.3, 213.65 427.3 C208.99 427.3, 204.33 427.15, 199.68 426.85 C195.03 426.54, 190.38 426.08, 185.76 425.48 C181.15 424.87, 176.54 424.11, 171.97 423.2 C167.4 422.29, 162.85 421.23, 158.35 420.02 C153.86 418.82, 149.39 417.46, 144.98 415.96 C140.56 414.47, 136.19 412.82, 131.89 411.04 C127.59 409.26, 123.33 407.33, 119.16 405.27 C114.98 403.21, 110.86 401.01, 106.83 398.68 C102.79 396.35, 98.83 393.88, 94.95 391.3 C91.08 388.71, 87.28 385.99, 83.59 383.15 C79.89 380.32, 76.28 377.35, 72.78 374.28 C69.28 371.21, 65.87 368.02, 62.58 364.73 C59.28 361.43, 56.09 358.02, 53.02 354.52 C49.95 351.02, 46.99 347.41, 44.15 343.71 C41.31 340.02, 38.59 336.22, 36.01 332.35 C33.42 328.48, 30.95 324.51, 28.62 320.48 C26.29 316.44, 24.09 312.32, 22.03 308.15 C19.97 303.97, 18.05 299.72, 16.26 295.41 C14.48 291.11, 12.84 286.74, 11.34 282.33 C9.84 277.92, 8.49 273.45, 7.28 268.95 C6.07 264.45, 5.01 259.9, 4.11 255.33 C3.2 250.76, 2.44 246.16, 1.83 241.54 C1.22 236.92, 0.76 232.27, 0.46 227.63 C0.15 222.98, 0 218.31, 0 213.65 C0 208.99, 0.15 204.33, 0.46 199.68 C0.76 195.03, 1.22 190.38, 1.83 185.76 C2.44 181.15, 3.2 176.54, 4.11 171.97 C5.01 167.4, 6.07 162.85, 7.28 158.35 C8.49 153.86, 9.84 149.39, 11.34 144.98 C12.84 140.56, 14.48 136.19, 16.26 131.89 C18.05 127.59, 19.97 123.33, 22.03 119.16 C24.09 114.98, 26.29 110.86, 28.62 106.83 C30.95 102.79, 33.42 98.83, 36.01 94.95 C38.59 91.08, 41.31 87.28, 44.15 83.59 C46.99 79.89, 49.95 76.28, 53.02 72.78 C56.09 69.28, 59.28 65.87, 62.58 62.58 C65.87 59.28, 69.28 56.09, 72.78 53.02 C76.28 49.95, 79.89 46.99, 83.59 44.15 C87.28 41.31, 91.08 38.59, 94.95 36.01 C98.83 33.42, 102.79 30.95, 106.83 28.62 C110.86 26.29, 114.98 24.09, 119.16 22.03 C123.33 19.97, 127.59 18.05, 131.89 16.26 C136.19 14.48, 140.56 12.84, 144.98 11.34 C149.39 9.84, 153.86 8.49, 158.35 7.28 C162.85 6.07, 167.4 5.01, 171.97 4.11 C176.54 3.2, 181.15 2.44, 185.76 1.83 C190.38 1.22, 195.03 0.76, 199.68 0.46 C204.33 0.15, 208.99 0, 213.65 0 C218.31 0, 222.98 0.15, 227.63 0.46 C232.27 0.76, 236.92 1.22, 241.54 1.83 C246.16 2.44, 250.76 3.2, 255.33 4.11 C259.9 5.01, 264.45 6.07, 268.95 7.28 C273.45 8.49, 277.92 9.84, 282.33 11.34 C286.74 12.84, 291.11 14.48, 295.41 16.26 C299.72 18.05, 303.97 19.97, 308.15 22.03 C312.32 24.09, 316.44 26.29, 320.48 28.62 C324.51 30.95, 328.48 33.42, 332.35 36.01 C336.22 38.59, 340.02 41.31, 343.71 44.15 C347.41 46.99, 351.02 49.95, 354.52 53.02 C358.02 56.09, 361.43 59.28, 364.73 62.58 C368.02 65.87, 371.21 69.28, 374.28 72.78 C377.35 76.28, 380.32 79.89, 383.15 83.59 C385.99 87.28, 388.71 91.08, 391.3 94.95 C393.88 98.83, 396.35 102.79, 398.68 106.83 C401.01 110.86, 403.21 114.98, 405.27 119.16 C407.33 123.33, 409.26 127.59, 411.04 131.89 C412.82 136.19, 414.47 140.56, 415.96 144.98 C417.46 149.39, 418.82 153.86, 420.02 158.35 C421.23 162.85, 422.29 167.4, 423.2 171.97 C424.11 176.54, 424.87 181.15, 425.48 185.76 C426.08 190.38, 426.54 195.03, 426.85 199.68 C427.15 204.33, 427.3 208.99, 427.3 213.65" stroke="#000000" stroke-width="1" fill="none"></path></g><g stroke-linecap="round" transform="translate(50.86739254199421 54.633597375978525) rotate(0 167.12705325878696 167.12705325878696)"><path d="M334.25 167.13 C334.25 171.29, 334.1 175.46, 333.79 179.62 C333.48 183.77, 333.01 187.92, 332.39 192.04 C331.77 196.15, 330.99 200.26, 330.06 204.32 C329.14 208.38, 328.06 212.41, 326.83 216.39 C325.6 220.37, 324.22 224.31, 322.7 228.19 C321.18 232.06, 319.51 235.89, 317.7 239.64 C315.9 243.39, 313.94 247.09, 311.86 250.69 C309.78 254.3, 307.56 257.83, 305.21 261.27 C302.87 264.71, 300.39 268.07, 297.79 271.33 C295.2 274.58, 292.47 277.75, 289.64 280.8 C286.81 283.85, 283.85 286.81, 280.8 289.64 C277.75 292.47, 274.58 295.2, 271.33 297.79 C268.07 300.39, 264.71 302.87, 261.27 305.21 C257.83 307.56, 254.3 309.78, 250.69 311.86 C247.09 313.94, 243.39 315.9, 239.64 317.7 C235.89 319.51, 232.06 321.18, 228.19 322.7 C224.31 324.22, 220.37 325.6, 216.39 326.83 C212.41 328.06, 208.38 329.14, 204.32 330.06 C200.26 330.99, 196.15 331.77, 192.04 332.39 C187.92 333.01, 183.77 333.48, 179.62 333.79 C175.46 334.1, 171.29 334.25, 167.13 334.25 C162.96 334.25, 158.79 334.1, 154.64 333.79 C150.49 333.48, 146.33 333.01, 142.22 332.39 C138.1 331.77, 134 330.99, 129.94 330.06 C125.88 329.14, 121.84 328.06, 117.87 326.83 C113.89 325.6, 109.94 324.22, 106.07 322.7 C102.19 321.18, 98.36 319.51, 94.61 317.7 C90.86 315.9, 87.17 313.94, 83.56 311.86 C79.96 309.78, 76.42 307.56, 72.98 305.21 C69.54 302.87, 66.18 300.39, 62.93 297.79 C59.67 295.2, 56.5 292.47, 53.45 289.64 C50.4 286.81, 47.45 283.85, 44.61 280.8 C41.78 277.75, 39.06 274.58, 36.46 271.33 C33.87 268.07, 31.39 264.71, 29.04 261.27 C26.7 257.83, 24.47 254.3, 22.39 250.69 C20.31 247.09, 18.36 243.39, 16.55 239.64 C14.74 235.89, 13.07 232.06, 11.55 228.19 C10.03 224.31, 8.65 220.37, 7.42 216.39 C6.2 212.41, 5.12 208.38, 4.19 204.32 C3.26 200.26, 2.49 196.15, 1.87 192.04 C1.25 187.92, 0.78 183.77, 0.47 179.62 C0.16 175.46, 0 171.29, 0 167.13 C0 162.96, 0.16 158.79, 0.47 154.64 C0.78 150.49, 1.25 146.33, 1.87 142.22 C2.49 138.1, 3.26 134, 4.19 129.94 C5.12 125.88, 6.2 121.84, 7.42 117.87 C8.65 113.89, 10.03 109.94, 11.55 106.07 C13.07 102.19, 14.74 98.36, 16.55 94.61 C18.36 90.86, 20.31 87.17, 22.39 83.56 C24.47 79.96, 26.7 76.42, 29.04 72.98 C31.39 69.54, 33.87 66.18, 36.46 62.93 C39.06 59.67, 41.78 56.5, 44.61 53.45 C47.45 50.4, 50.4 47.45, 53.45 44.61 C56.5 41.78, 59.67 39.06, 62.93 36.46 C66.18 33.87, 69.54 31.39, 72.98 29.04 C76.42 26.7, 79.96 24.47, 83.56 22.39 C87.17 20.31, 90.86 18.36, 94.61 16.55 C98.36 14.74, 102.19 13.07, 106.07 11.55 C109.94 10.03, 113.89 8.65, 117.87 7.42 C121.84 6.2, 125.88 5.12, 129.94 4.19 C134 3.26, 138.1 2.49, 142.22 1.87 C146.33 1.25, 150.49 0.78, 154.64 0.47 C158.79 0.16, 162.96 0, 167.13 0 C171.29 0, 175.46 0.16, 179.62 0.47 C183.77 0.78, 187.92 1.25, 192.04 1.87 C196.15 2.49, 200.26 3.26, 204.32 4.19 C208.38 5.12, 212.41 6.2, 216.39 7.42 C220.37 8.65, 224.31 10.03, 228.19 11.55 C232.06 13.07, 235.89 14.74, 239.64 16.55 C243.39 18.36, 247.09 20.31, 250.69 22.39 C254.3 24.47, 257.83 26.7, 261.27 29.04 C264.71 31.39, 268.07 33.87, 271.33 36.46 C274.58 39.06, 277.75 41.78, 280.8 44.61 C283.85 47.45, 286.81 50.4, 289.64 53.45 C292.47 56.5, 295.2 59.67, 297.79 62.93 C300.39 66.18, 302.87 69.54, 305.21 72.98 C307.56 76.42, 309.78 79.96, 311.86 83.56 C313.94 87.17, 315.9 90.86, 317.7 94.61 C319.51 98.36, 321.18 102.19, 322.7 106.07 C324.22 109.94, 325.6 113.89, 326.83 117.87 C328.06 121.84, 329.14 125.88, 330.06 129.94 C330.99 134, 331.77 138.1, 332.39 142.22 C333.01 146.33, 333.48 150.49, 333.79 154.64 C334.1 158.79, 334.25 162.96, 334.25 167.13" stroke="none" stroke-width="0" fill="white"></path><path d="M334.25 167.13 C334.25 171.29, 334.1 175.46, 333.79 179.62 C333.48 183.77, 333.01 187.92, 332.39 192.04 C331.77 196.15, 330.99 200.26, 330.06 204.32 C329.14 208.38, 328.06 212.41, 326.83 216.39 C325.6 220.37, 324.22 224.31, 322.7 228.19 C321.18 232.06, 319.51 235.89, 317.7 239.64 C315.9 243.39, 313.94 247.09, 311.86 250.69 C309.78 254.3, 307.56 257.83, 305.21 261.27 C302.87 264.71, 300.39 268.07, 297.79 271.33 C295.2 274.58, 292.47 277.75, 289.64 280.8 C286.81 283.85, 283.85 286.81, 280.8 289.64 C277.75 292.47, 274.58 295.2, 271.33 297.79 C268.07 300.39, 264.71 302.87, 261.27 305.21 C257.83 307.56, 254.3 309.78, 250.69 311.86 C247.09 313.94, 243.39 315.9, 239.64 317.7 C235.89 319.51, 232.06 321.18, 228.19 322.7 C224.31 324.22, 220.37 325.6, 216.39 326.83 C212.41 328.06, 208.38 329.14, 204.32 330.06 C200.26 330.99, 196.15 331.77, 192.04 332.39 C187.92 333.01, 183.77 333.48, 179.62 333.79 C175.46 334.1, 171.29 334.25, 167.13 334.25 C162.96 334.25, 158.79 334.1, 154.64 333.79 C150.49 333.48, 146.33 333.01, 142.22 332.39 C138.1 331.77, 134 330.99, 129.94 330.06 C125.88 329.14, 121.84 328.06, 117.87 326.83 C113.89 325.6, 109.94 324.22, 106.07 322.7 C102.19 321.18, 98.36 319.51, 94.61 317.7 C90.86 315.9, 87.17 313.94, 83.56 311.86 C79.96 309.78, 76.42 307.56, 72.98 305.21 C69.54 302.87, 66.18 300.39, 62.93 297.79 C59.67 295.2, 56.5 292.47, 53.45 289.64 C50.4 286.81, 47.45 283.85, 44.61 280.8 C41.78 277.75, 39.06 274.58, 36.46 271.33 C33.87 268.07, 31.39 264.71, 29.04 261.27 C26.7 257.83, 24.47 254.3, 22.39 250.69 C20.31 247.09, 18.36 243.39, 16.55 239.64 C14.74 235.89, 13.07 232.06, 11.55 228.19 C10.03 224.31, 8.65 220.37, 7.42 216.39 C6.2 212.41, 5.12 208.38, 4.19 204.32 C3.26 200.26, 2.49 196.15, 1.87 192.04 C1.25 187.92, 0.78 183.77, 0.47 179.62 C0.16 175.46, 0 171.29, 0 167.13 C0 162.96, 0.16 158.79, 0.47 154.64 C0.78 150.49, 1.25 146.33, 1.87 142.22 C2.49 138.1, 3.26 134, 4.19 129.94 C5.12 125.88, 6.2 121.84, 7.42 117.87 C8.65 113.89, 10.03 109.94, 11.55 106.07 C13.07 102.19, 14.74 98.36, 16.55 94.61 C18.36 90.86, 20.31 87.17, 22.39 83.56 C24.47 79.96, 26.7 76.42, 29.04 72.98 C31.39 69.54, 33.87 66.18, 36.46 62.93 C39.06 59.67, 41.78 56.5, 44.61 53.45 C47.45 50.4, 50.4 47.45, 53.45 44.61 C56.5 41.78, 59.67 39.06, 62.93 36.46 C66.18 33.87, 69.54 31.39, 72.98 29.04 C76.42 26.7, 79.96 24.47, 83.56 22.39 C87.17 20.31, 90.86 18.36, 94.61 16.55 C98.36 14.74, 102.19 13.07, 106.07 11.55 C109.94 10.03, 113.89 8.65, 117.87 7.42 C121.84 6.2, 125.88 5.12, 129.94 4.19 C134 3.26, 138.1 2.49, 142.22 1.87 C146.33 1.25, 150.49 0.78, 154.64 0.47 C158.79 0.16, 162.96 0, 167.13 0 C171.29 0, 175.46 0.16, 179.62 0.47 C183.77 0.78, 187.92 1.25, 192.04 1.87 C196.15 2.49, 200.26 3.26, 204.32 4.19 C208.38 5.12, 212.41 6.2, 216.39 7.42 C220.37 8.65, 224.31 10.03, 228.19 11.55 C232.06 13.07, 235.89 14.74, 239.64 16.55 C243.39 18.36, 247.09 20.31, 250.69 22.39 C254.3 24.47, 257.83 26.7, 261.27 29.04 C264.71 31.39, 268.07 33.87, 271.33 36.46 C274.58 39.06, 277.75 41.78, 280.8 44.61 C283.85 47.45, 286.81 50.4, 289.64 53.45 C292.47 56.5, 295.2 59.67, 297.79 62.93 C300.39 66.18, 302.87 69.54, 305.21 72.98 C307.56 76.42, 309.78 79.96, 311.86 83.56 C313.94 87.17, 315.9 90.86, 317.7 94.61 C319.51 98.36, 321.18 102.19, 322.7 106.07 C324.22 109.94, 325.6 113.89, 326.83 117.87 C328.06 121.84, 329.14 125.88, 330.06 129.94 C330.99 134, 331.77 138.1, 332.39 142.22 C333.01 146.33, 333.48 150.49, 333.79 154.64 C334.1 158.79, 334.25 162.96, 334.25 167.13" stroke="#000000" stroke-width="1" fill="none"></path></g><g transform="translate(73.58837890625 104.6461296081543) rotate(0 158 109.5)"><text x="0" y="0" font-family="Helvetica, Segoe UI Emoji" font-size="170.01098927383737px" fill="#000000" text-anchor="start" style="white-space: pre;" direction="ltr" dominant-baseline="text-before-edge">100</text></g></svg>