<svg xmlns="http://www.w3.org/2000/svg" viewBox="375.01 53.13 493.68 610.15" width="494" height="610"><ellipse cx="570.26" cy="295.39" rx="95.62" ry="98.88" stroke="#000" stroke-width="2" opacity="1.0" fill="none"/><polyline points="476.01,283.78 476.73,261.32 451.38,264.22 432.55,293.20 436.89,322.17 458.62,337.39 476.73,339.56 476.01,283.78" fill="none" stroke="#000" stroke-width="2" opacity="1.0" stroke-linecap="round" stroke-linejoin="round"/><polyline points="670.79,279.03 670.08,256.57 694.85,259.47 713.25,288.44 709.01,317.42 687.78,332.63 670.08,334.81 670.79,279.03" fill="none" stroke="#000" stroke-width="2" opacity="1.0" stroke-linecap="round" stroke-linejoin="round"/><polyline points="462.79,260.48 471.41,201.46 516.01,161.54 573.59,149.95 631.19,160.47 667.56,196.84 678.66,254.68" fill="none" stroke="#000" stroke-width="2" opacity="1.0" stroke-linecap="round" stroke-linejoin="round"/><polyline points="459.19,339.12 469.38,361.65 490.15,379.26 515.70,377.51 540.33,365.92" fill="none" stroke="#000" stroke-width="2" opacity="1.0" stroke-linecap="round" stroke-linejoin="round"/><ellipse cx="553.96" cy="361.31" rx="17.39" ry="8.33" stroke="#000" stroke-width="2" opacity="1.0" fill="none"/><rect x="424.42" y="448.76" width="293.03" height="175.99" rx="0" stroke="#000" stroke-width="2" opacity="1.0" fill="none"/><ellipse cx="572.19" cy="533.52" rx="14.52" ry="14.52" stroke="#000" stroke-width="2" opacity="1.0" fill="none"/><polyline points="558.07,432.71 478.62,433.56 449.57,433.56 501.68,419.04 524.75,408.78 571.74,411.35 616.16,411.35 652.89,394.26 668.27,400.24 685.36,423.31 645.21,435.27 609.32,432.71" fill="none" stroke="#000" stroke-width="2" opacity="1.0" stroke-linecap="round" stroke-linejoin="round"/><polyline points="421.85,624.44 381.01,628.45 389.02,646.87 433.07,646.87 511.56,650.87 600.46,650.07 730.44,646.07 764.64,623.64 741.13,616.25" fill="none" stroke="#000" stroke-width="2" opacity="1.0" stroke-linecap="round" stroke-linejoin="round"/><polyline points="703.87,212.66 698.15,198.77 687.98,188.85 680.44,174.63 680.26,163.22 690.52,158.43 699.42,161.74 703.87,171.66 701.96,161.74 709.38,152.26 720.43,147.26 727.02,158.79 727.60,171.88 719.53,183.22 712.54,194.80 703.87,212.66" fill="none" stroke="#000" stroke-width="2" opacity="1.0" stroke-linecap="round" stroke-linejoin="round"/><polyline points="766.21,167.52 754.69,143.86 735.71,127.46 716.51,105.43 722.69,84.15 739.33,75.14 757.25,80.77 766.21,97.67 762.37,80.77 777.30,64.63 796.51,59.13 812.35,73.63 812.99,97.55 796.77,120.08 784.19,143.10 766.21,167.52" fill="none" stroke="#000" stroke-width="2" opacity="1.0" stroke-linecap="round" stroke-linejoin="round"/><polyline points="524.98,327.20 516.13,312.94 504.77,301.86 495.81,288.83 497.50,275.11 508.01,269.48 519.32,273.00 524.98,283.56 522.56,273.00 531.99,262.91 544.33,261.33 553.75,268.88 554.11,283.26 545.23,295.88 532.13,309.77 524.98,327.20" fill="none" stroke="#000" stroke-width="2" opacity="1.0" stroke-linecap="round" stroke-linejoin="round"/><polyline points="605.66,314.12 598.27,299.26 585.13,288.65 572.81,274.50 577.74,261.76 588.41,256.10 599.91,259.64 605.66,270.25 603.20,259.64 612.78,249.50 623.18,249.50 636.87,253.27 636.33,270.49 627.84,283.70 618.80,295.02 605.66,314.12" fill="none" stroke="#000" stroke-width="2" opacity="1.0" stroke-linecap="round" stroke-linejoin="round"/></svg>