<svg version="1.1" xmlns="http://www.w3.org/2000/svg" viewBox="0 0 397.7514043733644 514.3280908103159" width="397.7514043733644" height="514.3280908103159">
  <!-- svg-source:excalidraw -->
  
  <defs>
    
    
  </defs>
  <g stroke-linecap="round" transform="translate(100.6921137729986 54.67386373699573) rotate(0 95.6222692271316 98.88211931442022)"><path d="M175.45 40.7 C183.08 49.48, 186.55 65.46, 189 77.64 C191.44 89.82, 191.88 101.77, 190.11 113.78 C188.34 125.8, 184.58 139.02, 178.36 149.74 C172.15 160.46, 163.07 170.2, 152.83 178.1 C142.6 186, 129.25 194.1, 116.95 197.15 C104.65 200.2, 91.09 198.96, 79.03 196.4 C66.97 193.83, 54.98 188.41, 44.58 181.78 C34.17 175.15, 23.38 166.56, 16.6 156.63 C9.81 146.69, 6.39 134.63, 3.86 122.15 C1.34 109.67, -0.49 94.61, 1.44 81.76 C3.37 68.92, 9 55.39, 15.45 45.11 C21.91 34.82, 30.17 27.44, 40.17 20.04 C50.17 12.63, 63.41 4.08, 75.46 0.67 C87.51 -2.73, 100.45 -3.02, 112.47 -0.39 C124.5 2.24, 135.79 5.84, 147.61 16.44 C159.42 27.04, 176.73 51.47, 183.34 63.22 C189.96 74.98, 188.74 86.54, 187.29 86.95 M85.92 1.94 C97.54 -1.56, 111.45 -1.37, 122.78 1.27 C134.1 3.9, 144.14 9.79, 153.86 17.74 C163.59 25.69, 174.85 37.56, 181.12 48.96 C187.39 60.35, 190.21 73.87, 191.49 86.12 C192.77 98.37, 192.15 109.86, 188.78 122.44 C185.41 135.03, 178.57 151.29, 171.26 161.63 C163.96 171.98, 155.74 178.21, 144.95 184.52 C134.16 190.83, 118.35 197.45, 106.5 199.51 C94.66 201.57, 85.16 201, 73.9 196.88 C62.64 192.75, 48.65 183.11, 38.94 174.75 C29.24 166.39, 22.34 156.99, 15.68 146.72 C9.02 136.46, 1.38 125.24, -1.03 113.16 C-3.44 101.07, -1.85 86.96, 1.22 74.21 C4.29 61.45, 9.2 46.56, 17.4 36.64 C25.6 26.71, 39.51 20.63, 50.41 14.64 C61.32 8.65, 77.26 2.78, 82.83 0.71 C88.39 -1.35, 83.49 0.4, 83.81 2.24" stroke="#000" stroke-width="2" fill="none"></path></g><g stroke-linecap="round"><g transform="translate(102.42252360802206 142.06643214700455) rotate(0 -21.370128350002915 16.661456001697175)"><path d="M-0.34 2.67 C0.02 -0.62, 7.04 -16.49, 3.45 -20.39 C-0.15 -24.28, -14.13 -25.89, -21.9 -20.7 C-29.68 -15.51, -40.38 1.24, -43.2 10.74 C-46.02 20.24, -43.55 29.55, -38.85 36.32 C-34.16 43.09, -22.04 48.44, -15.04 51.37 C-8.04 54.31, 0.67 62.05, 3.14 53.93 C5.62 45.81, 0.53 11.66, -0.17 2.67 M-3.97 1.64 C-3.85 -2.35, 5.73 -20.96, 2.69 -24.27 C-0.36 -27.58, -14.71 -23.16, -22.23 -18.21 C-29.76 -13.26, -39.15 -3.63, -42.47 5.42 C-45.8 14.48, -46.08 27.63, -42.18 36.12 C-38.28 44.61, -25.65 52.63, -19.07 56.34 C-12.48 60.05, -5.39 67.23, -2.66 58.39 C0.06 49.55, -3.65 13.59, -2.69 3.32" stroke="#000" stroke-width="2" fill="none"></path></g></g><mask></mask><g stroke-linecap="round"><g transform="translate(296.10908662839097 136.75264977131735) rotate(0 20.875831562497297 16.661456001697175)"><path d="M2.67 2.72 C3.01 -0.51, -2.01 -16.06, 1.36 -19.73 C4.74 -23.4, 15.85 -24.2, 22.92 -19.29 C29.99 -14.39, 41.58 -0.32, 43.78 9.68 C45.99 19.69, 40.98 33.02, 36.14 40.74 C31.3 48.47, 21.2 53.55, 14.75 56.03 C8.3 58.5, -0.54 65.12, -2.56 55.6 C-4.57 46.09, 2.25 8.29, 2.67 -1.06 M0.67 1.73 C0.88 -2.18, -3.06 -20.3, 0.25 -23.26 C3.55 -26.23, 13.02 -21.99, 20.5 -16.04 C27.97 -10.09, 41.8 4.04, 45.08 12.43 C48.36 20.82, 44.89 27.23, 40.19 34.3 C35.48 41.38, 23.91 51.88, 16.87 54.88 C9.83 57.89, 0.49 61.89, -2.04 52.33 C-4.57 42.78, 2.02 6.95, 1.7 -2.44" stroke="#000" stroke-width="2" fill="none"></path></g></g><mask></mask><g stroke-linecap="round"><g transform="translate(88.7070195847524 118.70933557466076) rotate(0 107.93725844577727 -55.264457057167704)"><path d="M2.72 2.07 C4.67 -8.4, 2.88 -43.55, 11.34 -60.16 C19.8 -76.77, 36.87 -88.88, 53.49 -97.62 C70.11 -106.36, 91.52 -111.83, 111.06 -112.6 C130.61 -113.37, 154.73 -110.09, 170.76 -102.24 C186.78 -94.39, 199.71 -82.01, 207.2 -65.49 C214.69 -48.97, 214.43 -13.07, 215.7 -3.12 M0.76 0.73 C2.61 -8.17, 2.07 -39.96, 10.58 -57.15 C19.1 -74.34, 34.96 -93.43, 51.83 -102.43 C68.69 -111.42, 92.33 -111.1, 111.79 -111.12 C131.24 -111.14, 153.32 -111, 168.56 -102.53 C183.8 -94.06, 195.11 -76.59, 203.2 -60.31 C211.3 -44.03, 215.69 -13.8, 217.12 -4.85" stroke="#000" stroke-width="2" fill="none"></path></g></g><mask></mask><g stroke-linecap="round"><g transform="translate(84.70387436875501 196.6767534228057) rotate(0 40.56702330848009 20.074300515723905)"><path d="M2.07 2.73 C3.13 6.07, 4.01 16.52, 9.04 22.8 C14.08 29.08, 24.72 37.42, 32.28 40.41 C39.85 43.4, 46.66 42.61, 54.43 40.74 C62.2 38.88, 74.76 31.58, 78.9 29.22 M-0.25 1.74 C0.1 6.78, 0.95 19.58, 6.19 26.57 C11.43 33.56, 23.24 42.1, 31.19 43.67 C39.15 45.24, 45.28 39.46, 53.89 35.98 C62.5 32.51, 78.23 24.8, 82.85 22.82" stroke="#000" stroke-width="2" fill="none"></path></g></g><mask></mask><g stroke-linecap="round" transform="translate(162.6292654314808 211.14666792684744) rotate(0 17.38586713220576 8.330728000848609)"><path d="M17.47 0.85 C20.8 0.95, 25.63 2.01, 28.38 3.07 C31.13 4.13, 33.21 5.65, 33.97 7.21 C34.74 8.77, 34.87 10.97, 32.97 12.45 C31.07 13.94, 26.35 15.63, 22.55 16.12 C18.76 16.62, 13.62 15.99, 10.21 15.44 C6.81 14.9, 3.66 14.34, 2.12 12.86 C0.58 11.38, 0.24 8.34, 0.97 6.56 C1.69 4.77, 3.35 3.22, 6.48 2.15 C9.61 1.08, 16.94 0.3, 19.74 0.14 C22.54 -0.02, 23.39 0.96, 23.3 1.18 M9.2 1.59 C12.02 0.83, 17.4 1.31, 21.02 1.62 C24.65 1.93, 28.69 2.16, 30.94 3.44 C33.19 4.73, 34.68 7.28, 34.51 9.32 C34.34 11.35, 32.42 14.23, 29.92 15.66 C27.41 17.09, 23.4 17.96, 19.48 17.89 C15.57 17.82, 9.78 16.23, 6.41 15.23 C3.05 14.23, 0.13 13.53, -0.7 11.88 C-1.54 10.24, -0.38 7.15, 1.42 5.37 C3.23 3.58, 8.84 1.93, 10.14 1.17 C11.43 0.41, 8.87 0.61, 9.19 0.79" stroke="#000" stroke-width="2" fill="none"></path></g><g stroke-linecap="round" transform="translate(50.47245840267135 306.92386272961977) rotate(0 146.51283304001595 87.99313004735654)"><path d="M0.28 1.41 C109.86 -0.43, 221.65 -0.6, 295.6 -1.97 M0 -0.24 C85.39 0.8, 172.44 2.71, 293.83 0.09 M293.08 3.38 C297.17 42.61, 296.62 89.09, 295.55 178.75 M294.82 -0.89 C294.79 43.19, 295.28 87.18, 294.96 176.71 M290.43 178.72 C180.08 177.25, 68.16 176.93, -1.9 175.69 M292.17 177.28 C180.59 177.3, 65.98 174.76, 1.39 175.14 M1.06 172.94 C-4.33 137.72, 0.31 91.98, -0.2 0.72 M-1.07 177.81 C-1.89 127.01, 1.19 75.32, -0.67 1.68" stroke="#000" stroke-width="2" fill="none"></path></g><g stroke-linecap="round" transform="translate(183.7173782465676 377.1564989759011) rotate(0 14.523137968981132 14.52313796898116)"><path d="M14.41 0.88 C17.39 0.68, 21.13 1.89, 23.71 3.79 C26.29 5.69, 29.38 9.23, 29.88 12.3 C30.39 15.37, 28.66 19.62, 26.74 22.21 C24.82 24.8, 21.32 26.75, 18.38 27.82 C15.44 28.89, 11.81 29.73, 9.1 28.63 C6.4 27.54, 3.68 24.05, 2.16 21.24 C0.64 18.43, -0.5 14.82, -0.01 11.77 C0.47 8.73, 1.91 4.77, 5.06 2.98 C8.21 1.2, 16.44 1.21, 18.87 1.07 C21.31 0.93, 20.01 1.92, 19.66 2.15 M18.62 2.2 C21.48 2.88, 24.74 4.61, 26.41 7.12 C28.08 9.63, 29.02 13.95, 28.64 17.27 C28.25 20.6, 26.36 24.89, 24.11 27.07 C21.86 29.24, 18.44 30.53, 15.12 30.31 C11.8 30.09, 6.89 27.72, 4.19 25.75 C1.49 23.77, -0.67 21.46, -1.08 18.47 C-1.49 15.49, -0.05 10.71, 1.73 7.85 C3.52 4.98, 6.85 2.46, 9.64 1.27 C12.44 0.08, 16.65 0.62, 18.49 0.71 C20.32 0.8, 20.59 1.73, 20.67 1.84" stroke="#000" stroke-width="2" fill="none"></path></g><g stroke-linecap="round"><g transform="translate(172.90674242451507 103.45906282736838) rotate(0 -0.5824787955473312 25.629067004084433)"><path d="M1.32 0.26 C0.97 9.16, -2.45 44.71, -3.24 53.61 M-1.4 -2.06 C-0.77 6.06, 1.44 41.29, 2.04 49.87" stroke="#000" stroke-width="2" fill="none"></path></g></g><mask></mask><g stroke-linecap="round"><g transform="translate(217.83699324858856 103.67950686605742) rotate(0 -0.5824787955473312 25.629067004084433)"><path d="M0.26 -2.07 C0.42 5.88, 1.02 40.44, 1.18 49.02 M-3.04 2.98 C-3.07 11.09, -0.41 43.35, 0.22 51.44" stroke="#000" stroke-width="2" fill="none"></path></g></g><mask></mask><g stroke-linecap="round"><g transform="translate(184.44459846200039 290.5310377048903) rotate(0 9.397324568165061 -17.94034690285909)"><path d="M-2.07 2.35 C-15.91 2.85, -63.64 3.55, -81.69 3.27 C-99.73 3, -115.01 3.68, -110.35 0.68 C-105.68 -2.32, -66.55 -10.55, -53.71 -14.73 C-40.88 -18.9, -44.34 -23, -33.32 -24.37 C-22.31 -25.74, -2.95 -23.79, 12.37 -22.96 C27.7 -22.12, 44.62 -16.81, 58.61 -19.36 C72.61 -21.91, 87.92 -36.3, 96.35 -38.27 C104.77 -40.25, 104.32 -36.03, 109.17 -31.22 C114.02 -26.4, 128.71 -15.29, 125.44 -9.36 C122.16 -3.43, 102.3 2.57, 89.51 4.36 C76.71 6.16, 55.46 1.85, 48.67 1.42 M2 1.16 C-11.09 0.9, -58.74 -0.85, -76.5 -0.42 C-94.25 0, -107.21 5.74, -104.52 3.69 C-101.82 1.65, -71.61 -8.13, -60.32 -12.69 C-49.03 -17.26, -49.35 -22.87, -36.8 -23.69 C-24.24 -24.52, -1.2 -18.01, 15.01 -17.64 C31.21 -17.27, 47.12 -17.9, 60.41 -21.45 C73.7 -25.01, 85.93 -36.93, 94.75 -38.99 C103.56 -41.05, 108.05 -38.57, 113.3 -33.8 C118.55 -29.04, 131.31 -15.87, 126.24 -10.4 C121.18 -4.93, 95.19 -2.9, 82.91 -0.97 C70.63 0.96, 58.39 0.89, 52.57 1.18" stroke="#000" stroke-width="2" fill="none"></path></g></g><mask></mask><g stroke-linecap="round"><g transform="translate(48.69668000534648 482.0335265123808) rotate(0 150.9712228209338 9.116221443548511)"><path d="M2.35 -2.24 C-4.1 -1.53, -32.53 -2.4, -38.43 2.16 C-44.32 6.71, -41.11 21.72, -33.01 25.1 C-24.91 28.47, -10.22 22.41, 10.16 22.42 C30.53 22.43, 61.44 24.51, 89.25 25.14 C117.06 25.76, 140.11 26.48, 177 26.15 C213.89 25.82, 282.92 27.81, 310.58 23.14 C338.24 18.48, 341.3 3.7, 342.96 -1.83 C344.62 -7.37, 324.47 -9.39, 320.53 -10.05 M0.18 2.72 C-6.45 3.93, -33.5 1.73, -39.35 4.78 C-45.2 7.83, -43.17 17.64, -34.91 21.02 C-26.66 24.39, -9.91 24.3, 10.16 25.02 C30.24 25.75, 57.32 25.53, 85.54 25.36 C113.75 25.18, 142.97 24.74, 179.47 23.98 C215.97 23.21, 277.68 25.32, 304.54 20.79 C331.4 16.26, 338.51 1.21, 340.63 -3.2 C342.75 -7.61, 320.5 -5.28, 317.26 -5.69" stroke="#000" stroke-width="2" fill="none"></path></g></g><mask></mask></svg>