<svg version="1.1" xmlns="http://www.w3.org/2000/svg" viewBox="0 0 85.87552994564385 92.53872077284814" width="85.87552994564385" height="92.53872077284814">
  <!-- svg-source:excalidraw -->
  
  <defs>
    
    
  </defs>
  <g stroke-linecap="round" transform="translate(10.683615682499294 6.000000000000455) rotate(0 34.59595713157222 40.26936038642384)"><path d="M69.19 40.27 C69.19 42.37, 69.05 44.49, 68.77 46.57 C68.48 48.64, 68.06 50.72, 67.5 52.71 C66.94 54.71, 66.24 56.68, 65.42 58.55 C64.6 60.42, 63.65 62.24, 62.58 63.94 C61.52 65.64, 60.33 67.26, 59.06 68.74 C57.78 70.23, 56.39 71.61, 54.93 72.85 C53.47 74.08, 51.91 75.2, 50.3 76.15 C48.69 77.1, 47 77.92, 45.29 78.57 C43.57 79.22, 41.79 79.71, 40.01 80.04 C38.23 80.37, 36.4 80.54, 34.6 80.54 C32.79 80.54, 30.97 80.37, 29.18 80.04 C27.4 79.71, 25.62 79.22, 23.91 78.57 C22.19 77.92, 20.5 77.1, 18.89 76.15 C17.28 75.2, 15.72 74.08, 14.26 72.85 C12.8 71.61, 11.41 70.23, 10.13 68.74 C8.86 67.26, 7.67 65.64, 6.61 63.94 C5.55 62.24, 4.59 60.42, 3.77 58.55 C2.95 56.68, 2.25 54.71, 1.69 52.71 C1.14 50.72, 0.71 48.64, 0.43 46.57 C0.14 44.49, 0 42.37, 0 40.27 C0 38.17, 0.14 36.04, 0.43 33.97 C0.71 31.9, 1.14 29.82, 1.69 27.83 C2.25 25.83, 2.95 23.86, 3.77 21.99 C4.59 20.12, 5.55 18.3, 6.61 16.6 C7.67 14.9, 8.86 13.28, 10.13 11.79 C11.41 10.31, 12.8 8.93, 14.26 7.69 C15.72 6.46, 17.28 5.34, 18.89 4.39 C20.5 3.44, 22.19 2.62, 23.91 1.97 C25.62 1.32, 27.4 0.82, 29.18 0.5 C30.97 0.17, 32.79 0, 34.6 0 C36.4 0, 38.23 0.17, 40.01 0.5 C41.79 0.82, 43.57 1.32, 45.29 1.97 C47 2.62, 48.69 3.44, 50.3 4.39 C51.91 5.34, 53.47 6.46, 54.93 7.69 C56.39 8.93, 57.78 10.31, 59.06 11.79 C60.33 13.28, 61.52 14.9, 62.58 16.6 C63.65 18.3, 64.6 20.12, 65.42 21.99 C66.24 23.86, 66.94 25.83, 67.5 27.83 C68.06 29.82, 68.48 31.9, 68.77 33.97 C69.05 36.04, 69.12 39.22, 69.19 40.27 C69.26 41.32, 69.26 39.22, 69.19 40.27" stroke="transparent" stroke-width="1" fill="none"></path></g><g stroke-linecap="round"><g transform="translate(38.71130673440075 47.08504861297479) rotate(0 12.529719709426956 4.669495309585727)" fill-rule="evenodd"><path d="M0 0 L0.11 9.42 L12.82 15.94 L24.56 7.62 L25.06 -1.49 L13.58 -6.6 L0 0" stroke="none" stroke-width="0" fill="#ced4da" fill-rule="evenodd"></path><path d="M0 0 C0.03 2.64, 0.06 5.28, 0.11 9.42 M0 0 C0.03 2.29, 0.06 4.58, 0.11 9.42 M0.11 9.42 C2.8 10.8, 5.49 12.18, 12.82 15.94 M0.11 9.42 C4.99 11.92, 9.86 14.42, 12.82 15.94 M12.82 15.94 C16.38 13.42, 19.93 10.9, 24.56 7.62 M12.82 15.94 C17.24 12.8, 21.66 9.67, 24.56 7.62 M24.56 7.62 C24.67 5.65, 24.78 3.67, 25.06 -1.49 M24.56 7.62 C24.73 4.59, 24.89 1.56, 25.06 -1.49 M25.06 -1.49 C21.41 -3.11, 17.77 -4.73, 13.58 -6.6 M25.06 -1.49 C20.74 -3.41, 16.41 -5.34, 13.58 -6.6 M13.58 -6.6 C10.65 -5.17, 7.71 -3.75, 0 0 M13.58 -6.6 C8.84 -4.29, 4.1 -1.99, 0 0 M0 0 C0 0, 0 0, 0 0 M0 0 C0 0, 0 0, 0 0" stroke="#495057" stroke-width="2" fill="none"></path></g></g><mask></mask><g stroke-linecap="round"><g transform="translate(34.764832170511 7.022141117101455) rotate(0 20.018735744541573 25.7674414394844)" fill-rule="evenodd"><path d="M0 0 C2.64 0.26, 9.72 -0.56, 15.81 1.57 C21.91 3.7, 32.53 8.24, 36.57 12.77 C40.61 17.31, 39.74 24.02, 40.04 28.79 C40.33 33.55, 39.91 37.56, 38.35 41.35 C36.79 45.14, 33.23 50.57, 30.66 51.53 C28.09 52.5, 27.47 52.33, 22.93 47.12 C18.38 41.92, 6.79 27.54, 3.38 20.3 C-0.03 13.07, 2.62 6.48, 2.47 3.71" stroke="none" stroke-width="0" fill="#ced4da" fill-rule="evenodd"></path><path d="M0 0 C2.64 0.26, 9.72 -0.56, 15.81 1.57 C21.91 3.7, 32.53 8.24, 36.57 12.77 C40.61 17.31, 39.74 24.02, 40.04 28.79 C40.33 33.55, 39.91 37.56, 38.35 41.35 C36.79 45.14, 33.23 50.57, 30.66 51.53 C28.09 52.5, 27.47 52.33, 22.93 47.12 C18.38 41.92, 6.79 27.54, 3.38 20.3 C-0.03 13.07, 2.62 6.48, 2.47 3.71 M0 0 C2.64 0.26, 9.72 -0.56, 15.81 1.57 C21.91 3.7, 32.53 8.24, 36.57 12.77 C40.61 17.31, 39.74 24.02, 40.04 28.79 C40.33 33.55, 39.91 37.56, 38.35 41.35 C36.79 45.14, 33.23 50.57, 30.66 51.53 C28.09 52.5, 27.47 52.33, 22.93 47.12 C18.38 41.92, 6.79 27.54, 3.38 20.3 C-0.03 13.07, 2.62 6.48, 2.47 3.71" stroke="#495057" stroke-width="2" fill="none"></path></g></g><mask></mask><g stroke-linecap="round"><g transform="translate(23.591874304005614 33.20603880622912) rotate(0 23.434505703673835 1.105177555027467)" fill-rule="evenodd"><path d="M0 0 C0.72 2.29, -1.8 9.05, 4.31 13.76 C10.42 18.48, 29.64 27.33, 36.67 28.29 C43.7 29.25, 44.79 25.53, 46.49 19.51 C48.19 13.48, 48.32 -1.82, 46.87 -7.86 C45.42 -13.9, 43.36 -13.7, 37.77 -16.74 C32.18 -19.77, 19.34 -25.34, 13.34 -26.08 C7.35 -26.82, 4.03 -25.5, 1.8 -21.15 C-0.42 -16.81, 0.3 -3.53, 0 0" stroke="none" stroke-width="0" fill="#ced4da" fill-rule="evenodd"></path><path d="M0 0 C0.72 2.29, -1.8 9.05, 4.31 13.76 C10.42 18.48, 29.64 27.33, 36.67 28.29 C43.7 29.25, 44.79 25.53, 46.49 19.51 C48.19 13.48, 48.32 -1.82, 46.87 -7.86 C45.42 -13.9, 43.36 -13.7, 37.77 -16.74 C32.18 -19.77, 19.34 -25.34, 13.34 -26.08 C7.35 -26.82, 4.03 -25.5, 1.8 -21.15 C-0.42 -16.81, 0.3 -3.53, 0 0 M0 0 C0.72 2.29, -1.8 9.05, 4.31 13.76 C10.42 18.48, 29.64 27.33, 36.67 28.29 C43.7 29.25, 44.79 25.53, 46.49 19.51 C48.19 13.48, 48.32 -1.82, 46.87 -7.86 C45.42 -13.9, 43.36 -13.7, 37.77 -16.74 C32.18 -19.77, 19.34 -25.34, 13.34 -26.08 C7.35 -26.82, 4.03 -25.5, 1.8 -21.15 C-0.42 -16.81, 0.3 -3.53, 0 0" stroke="#495057" stroke-width="2" fill="none"></path></g></g><mask></mask><g stroke-linecap="round"><g transform="translate(26.77369248582363 32.76066086099581) rotate(0 19.886363636362603 0.833333333332348)" fill-rule="evenodd"><path d="M0 0 C0.6 1.93, -1.26 7.63, 3.62 11.57 C8.51 15.5, 23.29 22.4, 29.29 23.59 C35.3 24.77, 37.9 23.46, 39.65 18.69 C41.39 13.91, 41.09 0.38, 39.77 -5.08 C38.46 -10.53, 36.5 -11.26, 31.74 -14.07 C26.98 -16.87, 16.25 -21.3, 11.21 -21.92 C6.17 -22.54, 3.38 -21.43, 1.52 -17.78 C-0.35 -14.12, 0.25 -2.96, 0 0" stroke="none" stroke-width="0" fill="#343a40" fill-rule="evenodd"></path><path d="M0 0 C0.6 1.93, -1.26 7.63, 3.62 11.57 C8.51 15.5, 23.29 22.4, 29.29 23.59 C35.3 24.77, 37.9 23.46, 39.65 18.69 C41.39 13.91, 41.09 0.38, 39.77 -5.08 C38.46 -10.53, 36.5 -11.26, 31.74 -14.07 C26.98 -16.87, 16.25 -21.3, 11.21 -21.92 C6.17 -22.54, 3.38 -21.43, 1.52 -17.78 C-0.35 -14.12, 0.25 -2.96, 0 0 M0 0 C0.6 1.93, -1.26 7.63, 3.62 11.57 C8.51 15.5, 23.29 22.4, 29.29 23.59 C35.3 24.77, 37.9 23.46, 39.65 18.69 C41.39 13.91, 41.09 0.38, 39.77 -5.08 C38.46 -10.53, 36.5 -11.26, 31.74 -14.07 C26.98 -16.87, 16.25 -21.3, 11.21 -21.92 C6.17 -22.54, 3.38 -21.43, 1.52 -17.78 C-0.35 -14.12, 0.25 -2.96, 0 0" stroke="#495057" stroke-width="2" fill="none"></path></g></g><mask></mask><g stroke-linecap="round"><g transform="translate(6 60.34572680291649) rotate(0 26.725855238896884 7.1870886605131545)" fill-rule="evenodd"><path d="M0 0 L0.11 2.94 L39.14 25.66 L52.95 15.72 L53.45 11.24 L14.74 -11.29 L0 0" stroke="none" stroke-width="0" fill="#ced4da" fill-rule="evenodd"></path><path d="M0 0 C0.03 0.67, 0.05 1.34, 0.11 2.94 M0 0 C0.04 0.96, 0.07 1.92, 0.11 2.94 M0.11 2.94 C9.68 8.51, 19.25 14.08, 39.14 25.66 M0.11 2.94 C10.42 8.94, 20.73 14.94, 39.14 25.66 M39.14 25.66 C43.12 22.8, 47.1 19.93, 52.95 15.72 M39.14 25.66 C43.42 22.58, 47.69 19.51, 52.95 15.72 M52.95 15.72 C53.12 14.21, 53.29 12.7, 53.45 11.24 M52.95 15.72 C53.14 14.04, 53.33 12.37, 53.45 11.24 M53.45 11.24 C39.44 3.09, 25.42 -5.07, 14.74 -11.29 M53.45 11.24 C44.01 5.75, 34.56 0.25, 14.74 -11.29 M14.74 -11.29 C9.25 -7.09, 3.77 -2.88, 0 0 M14.74 -11.29 C9.16 -7.02, 3.59 -2.75, 0 0 M0 0 C0 0, 0 0, 0 0 M0 0 C0 0, 0 0, 0 0" stroke="#495057" stroke-width="2" fill="none"></path></g></g><mask></mask><g stroke-linecap="round"><g transform="translate(6.576134294698932 60.89276668560342) rotate(0 26.36520403704219 11.218710673167152)"><path d="M0 0 C8.96 5.23, 17.91 10.45, 38.44 22.44 M0 0 C14.65 8.55, 29.31 17.1, 38.44 22.44 M38.44 22.44 C42.43 19.09, 46.42 15.74, 52.73 10.45 M38.44 22.44 C43.7 18.03, 48.95 13.62, 52.73 10.45" stroke="#495057" stroke-width="1" fill="none"></path></g></g><mask></mask><g stroke-linecap="round"><g transform="translate(45.15132842552157 86.47402497637859) rotate(0 -0.01566291691921151 -1.4976823036322457)"><path d="M0 0 C-0.01 -0.63, -0.01 -1.27, -0.03 -3 M0 0 C-0.01 -1.15, -0.02 -2.3, -0.03 -3" stroke="#495057" stroke-width="1" fill="none"></path></g></g><mask></mask><g stroke-linecap="round"><g transform="translate(21.00582525511072 52.37943045816928) rotate(0 4.9187904235463975 10.073473281810948)" fill-rule="evenodd"><path d="M0 0 L-10.46 8.17 L10.57 20.15 L20.3 11.43 L0 0" stroke="none" stroke-width="0" fill="#495057" fill-rule="evenodd"></path><path d="M0 0 C-3.52 2.75, -7.05 5.5, -10.46 8.17 M0 0 C-3.97 3.1, -7.94 6.2, -10.46 8.17 M-10.46 8.17 C-5.79 10.82, -1.13 13.48, 10.57 20.15 M-10.46 8.17 C-3.05 12.39, 4.36 16.61, 10.57 20.15 M10.57 20.15 C12.79 18.16, 15 16.18, 20.3 11.43 M10.57 20.15 C14.46 16.66, 18.34 13.18, 20.3 11.43 M20.3 11.43 C16.11 9.07, 11.92 6.72, 0 0 M20.3 11.43 C15.6 8.78, 10.9 6.14, 0 0 M0 0 C0 0, 0 0, 0 0 M0 0 C0 0, 0 0, 0 0" stroke="#495057" stroke-width="1" fill="none"></path></g></g><mask></mask><g stroke-linecap="round"><g transform="translate(42.98095968009875 65.11128056193274) rotate(0 0.4069587940120982 2.578481262354444)" fill-rule="evenodd"><path d="M0 0 L-3.28 3.01 L1.04 5.16 L4.09 2.31 L0 0" stroke="none" stroke-width="0" fill="#495057" fill-rule="evenodd"></path><path d="M0 0 C-1.29 1.19, -2.58 2.37, -3.28 3.01 M0 0 C-1.04 0.95, -2.08 1.91, -3.28 3.01 M-3.28 3.01 C-1.98 3.66, -0.68 4.3, 1.04 5.16 M-3.28 3.01 C-1.72 3.79, -0.16 4.56, 1.04 5.16 M1.04 5.16 C1.95 4.31, 2.86 3.46, 4.09 2.31 M1.04 5.16 C1.99 4.28, 2.93 3.4, 4.09 2.31 M4.09 2.31 C2.78 1.57, 1.46 0.83, 0 0 M4.09 2.31 C2.82 1.59, 1.55 0.88, 0 0 M0 0 C0 0, 0 0, 0 0 M0 0 C0 0, 0 0, 0 0" stroke="#495057" stroke-width="1" fill="none"></path></g></g><mask></mask><g stroke-linecap="round"><g transform="translate(49.26370486303858 68.4539954352822) rotate(0 -1.9084774475986706 6.135528242220289)" fill-rule="evenodd"><path d="M0 0 L-9.52 8.58 L-3.72 12.27 L5.71 3.72 L0 0" stroke="none" stroke-width="0" fill="#495057" fill-rule="evenodd"></path><path d="M0 0 C-3.42 3.08, -6.84 6.16, -9.52 8.58 M0 0 C-2.03 1.83, -4.07 3.67, -9.52 8.58 M-9.52 8.58 C-8.12 9.48, -6.71 10.37, -3.72 12.27 M-9.52 8.58 C-7.53 9.85, -5.54 11.12, -3.72 12.27 M-3.72 12.27 C-0.09 8.98, 3.54 5.69, 5.71 3.72 M-3.72 12.27 C-0.45 9.31, 2.82 6.34, 5.71 3.72 M5.71 3.72 C3.97 2.59, 2.24 1.46, 0 0 M5.71 3.72 C3.62 2.36, 1.54 1.01, 0 0 M0 0 C0 0, 0 0, 0 0 M0 0 C0 0, 0 0, 0 0" stroke="#495057" stroke-width="1" fill="none"></path></g></g><mask></mask></svg>