<svg version="1.1" xmlns="http://www.w3.org/2000/svg" viewBox="0 0 223.1111111111112 68.66666666666674" width="223.1111111111112" height="68.66666666666674">
  <!-- svg-source:excalidraw -->
  
  <defs>
    
    
  </defs>
  <g stroke-linecap="round" transform="translate(6 6) rotate(0 105.5555555555556 28.33333333333337)"><path d="M14.17 0 C74.47 -1.28, 136.18 -2.58, 196.94 0 C207.4 -0.03, 210.95 1.6, 211.11 14.17 C214.4 24.39, 212.83 32.63, 211.11 42.5 C212.78 50.22, 206.52 59.45, 196.94 56.67 C135.02 55.64, 76.9 53.08, 14.17 56.67 C5.69 58.91, -2.01 51.08, 0 42.5 C-0.76 37.2, 0.82 31.21, 0 14.17 C2.43 2.24, 3.59 1.85, 14.17 0" stroke="none" stroke-width="0" fill="#ffffff"></path><path d="M14.17 0 C71.25 -2.24, 125.74 -0.04, 196.94 0 M14.17 0 C65.28 1.65, 117.24 1.06, 196.94 0 M196.94 0 C207.69 -0.15, 212.23 2.76, 211.11 14.17 M196.94 0 C205.92 1.63, 213.37 4.97, 211.11 14.17 M211.11 14.17 C212.35 20.22, 211.54 26.8, 211.11 42.5 M211.11 14.17 C210.76 23.36, 210.57 30.85, 211.11 42.5 M211.11 42.5 C211.46 53.05, 208.11 57.64, 196.94 56.67 M211.11 42.5 C211.19 51.47, 206.8 58.71, 196.94 56.67 M196.94 56.67 C125.24 56.05, 52.44 53.24, 14.17 56.67 M196.94 56.67 C127.19 58.04, 58.19 58.11, 14.17 56.67 M14.17 56.67 C3.39 56.65, -1.99 53.49, 0 42.5 M14.17 56.67 C5.06 57.26, 1.34 52.43, 0 42.5 M0 42.5 C1.43 32.22, 1.83 23.05, 0 14.17 M0 42.5 C-0.26 33.26, -0.16 22.75, 0 14.17 M0 14.17 C-1.38 5.38, 4.85 1.7, 14.17 0 M0 14.17 C0.61 3.16, 3.64 -0.3, 14.17 0" stroke="#000000" stroke-width="1" fill="none"></path></g><g stroke-linecap="round"><g transform="translate(30.064362889353333 21.631863689710144) rotate(0 16.036506874080544 -0.18366947666515898)"><path d="M0.04 0.39 C5.33 0.28, 26.68 -0.44, 31.99 -0.48 M-0.6 0.11 C4.59 0.07, 26.17 0.29, 31.51 0.16" stroke="#000000" stroke-width="1" fill="none"></path></g></g><mask></mask><g stroke-linecap="round"><g transform="translate(61.54416382200088 22.28257352138803) rotate(0 -0.23367020036789654 10.908343035345524)"><path d="M0.08 -0.37 C0 3.3, -0.01 17.88, -0.11 21.5 M-0.55 0.63 C-0.7 4.41, -0.3 18.53, -0.36 22.04" stroke="#000000" stroke-width="1" fill="none"></path></g></g><mask></mask><g stroke-linecap="round"><g transform="translate(28.428136581275794 22.23219723823354) rotate(0 0.16852906905478449 11.48550695555582)"><path d="M0.36 -0.32 C0.34 3.48, 0.18 19.26, 0.17 23.19 M-0.12 0.7 C-0.25 4.3, -0.36 18.72, -0.34 22.34" stroke="#000000" stroke-width="1" fill="none"></path></g></g><mask></mask><g stroke-linecap="round"><g transform="translate(28.42972397549056 44.681052399060036) rotate(0 5.210796208594047 -0.1503114290940175)"><path d="M-0.05 -0.1 C1.75 -0.16, 8.9 -0.53, 10.63 -0.65 M-0.73 -0.62 C1.02 -0.6, 8.53 -0.16, 10.3 -0.12" stroke="#000000" stroke-width="1" fill="none"></path></g></g><mask></mask><g stroke-linecap="round"><g transform="translate(50.051165984134286 44.07471883996345) rotate(0 5.210796208594047 -0.1503114290940175)"><path d="M0.13 -0.15 C1.76 -0.32, 8.21 -0.72, 9.89 -0.68 M-0.46 -0.7 C1.32 -0.84, 9.15 -0.17, 10.85 -0.17" stroke="#000000" stroke-width="1" fill="none"></path></g></g><mask></mask><g stroke-linecap="round"><g transform="translate(38.1920149112691 49.96791259598285) rotate(0 5.210796208594047 -0.1503114290940175)"><path d="M0.38 -0.22 C2.13 -0.11, 8.41 0.17, 10.14 0.17 M-0.09 -0.81 C1.88 -0.8, 9.45 -0.75, 11.23 -0.55" stroke="#000000" stroke-width="1" fill="none"></path></g></g><mask></mask><g stroke-linecap="round"><g transform="translate(49.32323428158395 49.38405459058663) rotate(0 -0.037092451023909234 -2.973696738213107)"><path d="M0.3 0.34 C0.32 -0.67, 0.18 -4.83, 0.14 -5.91 M0.02 0.21 C0.02 -0.76, -0.01 -4.43, -0.02 -5.43" stroke="#000000" stroke-width="1" fill="none"></path></g></g><mask></mask><g stroke-linecap="round"><g transform="translate(38.92292958346525 44.425814393511246) rotate(0 -0.0075164087019174985 2.8434275050218503)"><path d="M-0.25 0.11 C-0.34 0.99, -0.39 4.65, -0.35 5.55 M0.28 -0.14 C0.27 0.76, 0.36 4.94, 0.28 5.93" stroke="#000000" stroke-width="1" fill="none"></path></g></g><mask></mask><g stroke-linecap="round"><g transform="translate(75.0393934965557 22.09213257768988) rotate(0 16.036506874080544 -0.18366947666515898)"><path d="M0.16 -0.04 C5.46 -0.1, 26.95 -0.45, 32.19 -0.46 M-0.42 -0.54 C4.78 -0.51, 26.31 0.27, 31.82 0.2" stroke="#000000" stroke-width="1" fill="none"></path></g></g><mask></mask><g stroke-linecap="round"><g transform="translate(106.51919442920325 22.742842409367768) rotate(0 -0.23367020036789654 10.908343035345524)"><path d="M-0.04 0.12 C-0.12 3.65, -0.54 17.66, -0.56 21.33 M-0.72 -0.3 C-0.87 3.27, -1.1 18.19, -1.03 21.78" stroke="#000000" stroke-width="1" fill="none"></path></g></g><mask></mask><g stroke-linecap="round"><g transform="translate(73.40316718847816 22.692466126213276) rotate(0 0.16852906905478449 11.48550695555582)"><path d="M0.12 -0.09 C0.07 3.8, -0.24 19.46, -0.15 23.29 M-0.49 -0.61 C-0.39 3.13, 0.67 18.48, 0.83 22.49" stroke="#000000" stroke-width="1" fill="none"></path></g></g><mask></mask><g stroke-linecap="round"><g transform="translate(73.40475458269293 45.14132128703977) rotate(0 5.210796208594047 -0.1503114290940175)"><path d="M-0.09 -0.49 C1.71 -0.51, 9 0.03, 10.74 0.01 M-0.8 0.45 C0.96 0.26, 8.68 -0.69, 10.48 -0.79" stroke="#000000" stroke-width="1" fill="none"></path></g></g><mask></mask><g stroke-linecap="round"><g transform="translate(95.02619659133666 44.53498772794319) rotate(0 5.210796208594047 -0.1503114290940175)"><path d="M-0.49 0.32 C1.28 0.28, 8.97 -0.29, 10.73 -0.35 M0.26 0.01 C1.97 0.07, 8.9 0.49, 10.46 0.33" stroke="#000000" stroke-width="1" fill="none"></path></g></g><mask></mask><g stroke-linecap="round"><g transform="translate(83.16704551847147 50.42818148396282) rotate(0 5.210796208594047 -0.1503114290940175)"><path d="M0.32 0.31 C2.07 0.29, 8.64 -0.43, 10.38 -0.6 M-0.17 0 C1.5 0.09, 8.14 0, 9.92 -0.06" stroke="#000000" stroke-width="1" fill="none"></path></g></g><mask></mask><g stroke-linecap="round"><g transform="translate(94.2982648887862 49.844323478566366) rotate(0 -0.037092451023909234 -2.973696738213107)"><path d="M0.2 -0.03 C0.21 -1.02, -0.18 -4.73, -0.27 -5.76 M-0.12 -0.35 C0.03 -1.47, 0.35 -5.35, 0.42 -6.28" stroke="#000000" stroke-width="1" fill="none"></path></g></g><mask></mask><g stroke-linecap="round"><g transform="translate(83.89796019066762 44.88608328149121) rotate(0 -0.0075164087019174985 2.8434275050218503)"><path d="M-0.03 -0.2 C-0.03 0.67, 0.21 4.41, 0.18 5.39 M-0.47 0.47 C-0.53 1.35, -0.16 4.76, 0 5.69" stroke="#000000" stroke-width="1" fill="none"></path></g></g><mask></mask><g stroke-linecap="round"><g transform="translate(116.2893934965557 22.09213257768988) rotate(0 16.036506874080544 -0.18366947666515898)"><path d="M0.12 -0.38 C5.39 -0.55, 26.66 -0.78, 32.04 -0.86 M-0.49 0.61 C4.68 0.48, 26.14 -0.23, 31.58 -0.42" stroke="#000000" stroke-width="1" fill="none"></path></g></g><mask></mask><g stroke-linecap="round"><g transform="translate(147.76919442920303 22.742842409367768) rotate(0 -0.23367020036789654 10.908343035345524)"><path d="M-0.38 -0.04 C-0.57 3.63, -0.87 18.53, -0.96 22.11 M0.42 -0.53 C0.39 2.97, 0.07 17.57, 0.02 21.3" stroke="#000000" stroke-width="1" fill="none"></path></g></g><mask></mask><g stroke-linecap="round"><g transform="translate(114.65316718847794 22.692466126213276) rotate(0 0.16852906905478449 11.48550695555582)"><path d="M-0.04 -0.49 C0.05 3.32, 0.63 18.55, 0.64 22.48 M-0.72 0.44 C-0.69 4.33, 0.05 19.05, 0.36 22.92" stroke="#000000" stroke-width="1" fill="none"></path></g></g><mask></mask><g stroke-linecap="round"><g transform="translate(114.6547545826927 45.14132128703977) rotate(0 5.210796208594047 -0.1503114290940175)"><path d="M-0.49 0.3 C1.22 0.2, 8.09 -0.6, 9.93 -0.66 M0.25 -0.02 C2.17 -0.06, 9.25 0.01, 10.91 -0.14" stroke="#000000" stroke-width="1" fill="none"></path></g></g><mask></mask><g stroke-linecap="round"><g transform="translate(136.27619659133666 44.53498772794319) rotate(0 5.210796208594047 -0.1503114290940175)"><path d="M0.3 -0.49 C1.98 -0.44, 8.33 -0.22, 10.07 -0.2 M-0.21 0.44 C1.65 0.36, 9.33 -1.07, 11.12 -1.12" stroke="#000000" stroke-width="1" fill="none"></path></g></g><mask></mask><g stroke-linecap="round"><g transform="translate(124.41704551847147 50.42818148396282) rotate(0 5.210796208594047 -0.1503114290940175)"><path d="M-0.49 -0.36 C1.34 -0.41, 8.71 -0.05, 10.52 -0.02 M0.26 0.65 C2.07 0.41, 8.52 -0.81, 10.14 -0.84" stroke="#000000" stroke-width="1" fill="none"></path></g></g><mask></mask><g stroke-linecap="round"><g transform="translate(135.5482648887862 49.844323478566366) rotate(0 -0.037092451023909234 -2.973696738213107)"><path d="M-0.23 0.06 C-0.24 -0.88, 0.07 -5.03, 0.11 -6 M0.3 -0.21 C0.24 -1.08, 0 -4.56, -0.08 -5.57" stroke="#000000" stroke-width="1" fill="none"></path></g></g><mask></mask><g stroke-linecap="round"><g transform="translate(125.14796019066739 44.88608328149121) rotate(0 -0.0075164087019174985 2.8434275050218503)"><path d="M0.06 0.18 C0.11 1.18, -0.09 4.79, -0.07 5.77 M-0.33 -0.03 C-0.31 0.88, -0.44 4.26, -0.37 5.19" stroke="#000000" stroke-width="1" fill="none"></path></g></g><mask></mask><g stroke-linecap="round"><g transform="translate(157.5393934965557 20.84213257768988) rotate(0 16.036506874080544 -0.18366947666515898)"><path d="M0.06 0.4 C5.45 0.41, 27.06 0.13, 32.38 0.04 M-0.57 0.13 C4.77 -0.01, 26.75 -0.51, 32.11 -0.71" stroke="#000000" stroke-width="1" fill="none"></path></g></g><mask></mask><g stroke-linecap="round"><g transform="translate(189.01919442920303 21.492842409367768) rotate(0 -0.23367020036789654 10.908343035345524)"><path d="M0.4 0.31 C0.39 3.91, 0.05 18.16, -0.06 21.71 M-0.06 -0.01 C-0.1 3.67, -0.21 18.67, -0.28 22.35" stroke="#000000" stroke-width="1" fill="none"></path></g></g><mask></mask><g stroke-linecap="round"><g transform="translate(155.90316718847794 21.442466126213276) rotate(0 0.16852906905478449 11.48550695555582)"><path d="M0.31 0.41 C0.33 4.21, 0.26 19.54, 0.23 23.21 M-0.2 0.15 C-0.26 3.75, -0.23 18.6, -0.26 22.37" stroke="#000000" stroke-width="1" fill="none"></path></g></g><mask></mask><g stroke-linecap="round"><g transform="translate(155.9047545826927 43.89132128703977) rotate(0 5.210796208594047 -0.1503114290940175)"><path d="M0.41 -0.11 C2.12 -0.25, 9.08 -0.52, 10.66 -0.52 M-0.04 -0.64 C1.58 -0.73, 8.52 0.14, 10.36 0.06" stroke="#000000" stroke-width="1" fill="none"></path></g></g><mask></mask><g stroke-linecap="round"><g transform="translate(177.52619659133666 43.28498772794319) rotate(0 5.210796208594047 -0.1503114290940175)"><path d="M-0.11 0.24 C1.54 0.04, 8.41 -0.72, 10.2 -0.81 M-0.83 -0.11 C0.71 -0.3, 7.79 -0.44, 9.65 -0.37" stroke="#000000" stroke-width="1" fill="none"></path></g></g><mask></mask><g stroke-linecap="round"><g transform="translate(165.66704551847147 49.17818148396282) rotate(0 5.210796208594047 -0.1503114290940175)"><path d="M0.24 -0.22 C1.83 -0.22, 8.22 -0.05, 9.91 -0.11 M-0.3 -0.81 C1.41 -0.97, 9.16 -1.09, 10.88 -0.98" stroke="#000000" stroke-width="1" fill="none"></path></g></g><mask></mask><g stroke-linecap="round"><g transform="translate(176.7982648887862 48.594323478566366) rotate(0 -0.037092451023909234 -2.973696738213107)"><path d="M-0.14 -0.33 C-0.13 -1.35, 0.07 -5.07, 0.05 -5.96 M0.43 0.27 C0.42 -0.7, -0.18 -4.43, -0.17 -5.51" stroke="#000000" stroke-width="1" fill="none"></path></g></g><mask></mask><g stroke-linecap="round"><g transform="translate(166.3979601906674 43.63608328149121) rotate(0 -0.0075164087019174985 2.8434275050218503)"><path d="M-0.33 0.12 C-0.36 1.06, -0.12 4.52, -0.02 5.48 M0.15 -0.13 C0.06 0.87, -0.31 4.93, -0.31 5.82" stroke="#000000" stroke-width="1" fill="none"></path></g></g><mask></mask></svg>