<svg xmlns="http://www.w3.org/2000/svg" viewBox="-1032.28 3815.30 95.42 105.94" width="95" height="106"><ellipse cx="-982.45" cy="3865.11" rx="39.60" ry="43.81" stroke="transparent" stroke-width="1" opacity="1.0" fill="none"/><polyline points="-1003.26,3871.70 -998.97,3869.36 -994.85,3871.60 -991.04,3869.72 -990.61,3861.53" fill="none" stroke="#495057" stroke-width="1" opacity="1.0" stroke-linecap="round" stroke-linejoin="round"/><polyline points="-969.12,3900.75 -964.86,3897.74 -959.98,3899.41 -955.95,3894.16 -970.97,3886.30 -977.50,3889.32" fill="none" stroke="#495057" stroke-width="1" opacity="1.0" stroke-linecap="round" stroke-linejoin="round"/><polyline points="-1026.28,3878.30 -1026.16,3881.24 -987.14,3903.96 -973.32,3894.02 -972.83,3889.54 -1011.54,3867.01 -1026.28,3878.30" fill="none" stroke="#495057" stroke-width="2" opacity="1.0" stroke-linecap="round" stroke-linejoin="round"/><polyline points="-1025.70,3878.84 -987.26,3901.28 -972.97,3889.29" fill="none" stroke="#495057" stroke-width="1" opacity="1.0" stroke-linecap="round" stroke-linejoin="round"/><polyline points="-987.13,3904.42 -987.16,3901.43" fill="none" stroke="#495057" stroke-width="1" opacity="1.0" stroke-linecap="round" stroke-linejoin="round"/><polyline points="-1012.13,3870.01 -1022.59,3878.17 -999.73,3891.23 -990.01,3882.51 -1012.13,3870.01" fill="none" stroke="#495057" stroke-width="1" opacity="1.0" stroke-linecap="round" stroke-linejoin="round"/><polyline points="-988.65,3883.38 -991.93,3886.40 -987.61,3888.54 -984.56,3885.70 -988.65,3883.38" fill="none" stroke="#495057" stroke-width="1" opacity="1.0" stroke-linecap="round" stroke-linejoin="round"/><polyline points="-983.01,3886.40 -992.54,3894.99 -986.74,3898.68 -977.31,3890.13 -983.01,3886.40" fill="none" stroke="#495057" stroke-width="1" opacity="1.0" stroke-linecap="round" stroke-linejoin="round"/><polyline points="-978.33,3905.52 -973.21,3907.68 -968.00,3903.60 -968.14,3901.28 -972.34,3899.55 -978.33,3905.52" fill="none" stroke="#495057" stroke-width="2" opacity="1.0" stroke-linecap="round" stroke-linejoin="round"/><polyline points="-986.75,3862.92 -986.63,3872.34 -973.93,3878.85 -962.19,3870.54 -961.69,3861.43 -973.17,3856.32 -986.75,3862.92" fill="none" stroke="#495057" stroke-width="2" opacity="1.0" stroke-linecap="round" stroke-linejoin="round"/><polyline points="-990.69,3822.85 -974.88,3824.42 -954.12,3835.63 -950.66,3851.64 -952.34,3864.21 -960.03,3874.39 -967.77,3869.98 -987.31,3843.16 -988.22,3826.57" fill="none" stroke="#495057" stroke-width="2" opacity="1.0" stroke-linecap="round" stroke-linejoin="round"/><polyline points="-1001.87,3849.04 -997.56,3862.80 -965.19,3877.33 -955.38,3868.54 -955.00,3841.18 -964.10,3832.30 -988.53,3822.96 -1000.06,3827.88 -1001.87,3849.04" fill="none" stroke="#495057" stroke-width="2" opacity="1.0" stroke-linecap="round" stroke-linejoin="round"/><polyline points="-998.69,3848.59 -995.06,3860.16 -969.39,3872.18 -959.04,3867.28 -958.91,3843.52 -966.94,3834.53 -987.47,3826.67 -997.17,3830.81 -998.69,3848.59" fill="none" stroke="#495057" stroke-width="2" opacity="1.0" stroke-linecap="round" stroke-linejoin="round"/></svg>