<svg version="1.1" xmlns="http://www.w3.org/2000/svg" viewBox="0 0 233.5 227" width="233.5" height="227">
  <!-- svg-source:excalidraw -->
  
  <defs>
    
    
  </defs>
  <g stroke-linecap="round" transform="translate(6 6) rotate(0 110.75 92)"><path d="M69.02 5.64 C80.12 0.21, 96.01 -0.53, 109.52 -0.45 C123.02 -0.37, 137.74 2.18, 150.07 6.13 C162.4 10.08, 173.54 15.88, 183.52 23.26 C193.49 30.64, 203.66 40.51, 209.91 50.42 C216.16 60.33, 219.73 71.79, 221 82.73 C222.27 93.66, 221.15 105.29, 217.52 116.03 C213.9 126.77, 207.21 138.3, 199.26 147.17 C191.31 156.03, 181 163.46, 169.82 169.24 C158.63 175.03, 145.31 179.71, 132.16 181.85 C119.01 184, 104.02 184, 90.9 182.13 C77.78 180.26, 64.91 176.32, 53.45 170.64 C41.98 164.97, 30.14 156.75, 22.11 148.08 C14.09 139.42, 9.02 129.27, 5.28 118.65 C1.53 108.04, -1.44 95.46, -0.35 84.37 C0.73 73.28, 5.92 62.22, 11.79 52.12 C17.67 42.02, 24.76 31.45, 34.89 23.74 C45.01 16.04, 65.42 8.82, 72.53 5.88 C79.64 2.95, 76.64 4.72, 77.53 6.15 M113.55 -0.56 C126.34 -1.77, 141.44 3.73, 153.8 8.16 C166.15 12.59, 178.3 18.63, 187.68 25.99 C197.06 33.36, 204.65 42.42, 210.08 52.33 C215.5 62.23, 219.04 74.19, 220.22 85.43 C221.4 96.67, 221.13 108.87, 217.15 119.75 C213.16 130.64, 204.92 141.99, 196.34 150.75 C187.75 159.51, 176.79 167.18, 165.62 172.3 C154.46 177.42, 142.15 179.91, 129.33 181.48 C116.5 183.06, 101.96 183.76, 88.66 181.76 C75.36 179.75, 61.02 175.49, 49.54 169.44 C38.06 163.39, 27.72 154.8, 19.81 145.45 C11.89 136.09, 5.34 123.97, 2.03 113.32 C-1.27 102.67, -1.65 92.22, -0.03 81.56 C1.59 70.9, 5.11 59, 11.74 49.36 C18.37 39.71, 29.63 31.08, 39.74 23.7 C49.84 16.32, 60.25 9.23, 72.37 5.07 C84.49 0.92, 105.6 -0.63, 112.49 -1.23 C119.37 -1.83, 113.57 -0.07, 113.67 1.47" stroke="#000000" stroke-width="1" fill="none"></path></g><g stroke-opacity="0.6" fill-opacity="0.6" stroke-linecap="round" transform="translate(146.035203520352 30) rotate(0 18.982398239823986 59.238173817381764)"><path d="M0.21 1.97 L39.82 -1.12 L38.11 116.5 L-0.98 118.74" stroke="none" stroke-width="0" fill="#868e96"></path><path d="M0 0 C10.23 -2.24, 16.52 0.04, 37.96 0 M0 0 C10.6 -0.17, 19.59 -1.03, 37.96 0 M37.96 0 C36.17 40.15, 35.54 82.69, 37.96 118.48 M37.96 0 C37.71 38.96, 37.25 80.09, 37.96 118.48 M37.96 118.48 C26.8 117.31, 12.76 118.92, 0 118.48 M37.96 118.48 C25.8 118.42, 12.55 118.33, 0 118.48 M0 118.48 C1.7 88.26, 1.57 61.38, 0 0 M0 118.48 C0.65 90.96, -0.16 65.15, 0 0" stroke="#000000" stroke-width="1" fill="none"></path></g><g stroke-linecap="round" transform="translate(151.27172717271733 36.21837183718378) rotate(0 4.909240924092408 2.618261826182618)"><path d="M0 0 C0 0, 0 0, 0 0 M0 0 C0 0, 0 0, 0 0 M0.39 5.64 C1.36 4.18, 2.74 3.27, 4.99 0.36 M0.39 5.64 C1.31 4.55, 2.36 3.31, 4.99 0.36 M6.04 5.25 C7 4.12, 8.35 2.61, 9.97 0.72 M6.04 5.25 C7.22 3.88, 8.43 2.41, 9.97 0.72" stroke="#fa5252" stroke-width="0.5" fill="none"></path><path d="M0 0 C2.82 -0.21, 6.31 -0.16, 9.82 0 M0 0 C3.51 -0.02, 6.86 0.04, 9.82 0 M9.82 0 C9.76 1.17, 9.93 2.72, 9.82 5.24 M9.82 0 C9.73 1.33, 9.85 2.74, 9.82 5.24 M9.82 5.24 C7.23 5.39, 5.12 5.37, 0 5.24 M9.82 5.24 C7.11 5.23, 4.39 5.16, 0 5.24 M0 5.24 C-0.14 4.19, 0.03 2.93, 0 0 M0 5.24 C-0.05 3.93, 0.04 2.79, 0 0" stroke="#000000" stroke-width="1" fill="none"></path></g><g stroke-linecap="round" transform="translate(167.96314631463144 36.21837183718378) rotate(0 4.909240924092408 2.618261826182618)"><path d="M0 0 C0 0, 0 0, 0 0 M0 0 C0 0, 0 0, 0 0 M0.39 5.64 C1.39 4.42, 2.94 2.69, 4.99 0.36 M0.39 5.64 C1.45 4.45, 2.36 3.37, 4.99 0.36 M6.04 5.25 C7.39 3.95, 8.35 2.57, 9.97 0.72 M6.04 5.25 C7.31 3.8, 8.48 2.35, 9.97 0.72" stroke="#fa5252" stroke-width="0.5" fill="none"></path><path d="M0 0 C3.69 0.1, 7.6 0.21, 9.82 0 M0 0 C3.77 -0.12, 7.6 -0.08, 9.82 0 M9.82 0 C9.64 1.32, 9.87 2.32, 9.82 5.24 M9.82 0 C9.8 1.18, 9.86 2.22, 9.82 5.24 M9.82 5.24 C6.7 5.27, 3.45 5.13, 0 5.24 M9.82 5.24 C6.87 5.21, 3.87 5.08, 0 5.24 M0 5.24 C0.04 3.42, -0.13 1.41, 0 0 M0 5.24 C-0.08 3.66, 0.01 2.08, 0 0" stroke="#000000" stroke-width="1" fill="none"></path></g><g stroke-linecap="round" transform="translate(152.39676155115507 73.40587183718384) rotate(0 4.909240924092408 2.618261826182618)"><path d="M0 0 C0 0, 0 0, 0 0 M0 0 C0 0, 0 0, 0 0 M0.39 5.64 C2.22 3.89, 3.53 1.64, 4.99 0.36 M0.39 5.64 C2.15 3.56, 4.01 1.48, 4.99 0.36 M6.04 5.25 C6.94 4.21, 7.77 3.31, 9.97 0.72 M6.04 5.25 C7.42 3.58, 8.8 2.02, 9.97 0.72" stroke="#fa5252" stroke-width="0.5" fill="none"></path><path d="M0 0 C3.7 -0.12, 7.45 0.29, 9.82 0 M0 0 C3.63 0.07, 7.42 -0.12, 9.82 0 M9.82 0 C9.94 1.3, 9.74 2.34, 9.82 5.24 M9.82 0 C9.85 1.73, 9.75 3.42, 9.82 5.24 M9.82 5.24 C6.04 5.36, 2.07 5.24, 0 5.24 M9.82 5.24 C6.38 5.14, 2.84 5.32, 0 5.24 M0 5.24 C0.05 3.38, -0.1 1.79, 0 0 M0 5.24 C0.05 3.74, 0.1 2.31, 0 0" stroke="#000000" stroke-width="1" fill="none"></path></g><g stroke-linecap="round" transform="translate(169.08818069306932 73.40587183718384) rotate(0 4.909240924092408 2.618261826182618)"><path d="M0 0 C0 0, 0 0, 0 0 M0 0 C0 0, 0 0, 0 0 M0.39 5.64 C1.68 4.15, 2.47 3.26, 4.99 0.36 M0.39 5.64 C1.32 4.56, 2.26 3.39, 4.99 0.36 M6.04 5.25 C6.82 4.3, 7.73 3.43, 9.97 0.72 M6.04 5.25 C7.09 3.95, 8.25 2.54, 9.97 0.72" stroke="#fa5252" stroke-width="0.5" fill="none"></path><path d="M0 0 C1.88 0.17, 4.31 0.26, 9.82 0 M0 0 C3.16 -0.05, 6.06 -0.08, 9.82 0 M9.82 0 C9.86 1.37, 9.66 2.93, 9.82 5.24 M9.82 0 C9.85 1.09, 9.84 2.36, 9.82 5.24 M9.82 5.24 C7.61 5.16, 5.18 5.4, 0 5.24 M9.82 5.24 C6.83 5.08, 4.12 5.28, 0 5.24 M0 5.24 C-0.13 3.93, 0.01 2.84, 0 0 M0 5.24 C0.03 4.07, 0.1 2.68, 0 0" stroke="#000000" stroke-width="1" fill="none"></path></g><g stroke-linecap="round" transform="translate(152.62176842684275 85.80170517051704) rotate(0 4.909240924092408 2.618261826182618)"><path d="M0 0 C0 0, 0 0, 0 0 M0 0 C0 0, 0 0, 0 0 M0.39 5.64 C1.18 4.3, 2.58 3.13, 4.99 0.36 M0.39 5.64 C2.08 3.69, 3.69 1.64, 4.99 0.36 M6.04 5.25 C7.55 3.56, 9.15 1.76, 9.97 0.72 M6.04 5.25 C7.29 3.77, 8.42 2.48, 9.97 0.72" stroke="#fa5252" stroke-width="0.5" fill="none"></path><path d="M0 0 C2.58 0.29, 5.06 0.06, 9.82 0 M0 0 C2.9 -0.13, 5.85 -0.05, 9.82 0 M9.82 0 C9.76 0.93, 9.87 2.01, 9.82 5.24 M9.82 0 C9.78 1.48, 9.91 2.86, 9.82 5.24 M9.82 5.24 C6.42 5.24, 3.35 5.23, 0 5.24 M9.82 5.24 C6.86 5.31, 4.25 5.1, 0 5.24 M0 5.24 C-0.12 3.56, -0.03 1.74, 0 0 M0 5.24 C0.08 4.24, -0.06 3.08, 0 0" stroke="#000000" stroke-width="1" fill="none"></path></g><g stroke-linecap="round" transform="translate(169.31318756875686 85.80170517051704) rotate(0 4.909240924092408 2.618261826182618)"><path d="M0 0 C0 0, 0 0, 0 0 M0 0 C0 0, 0 0, 0 0 M0.39 5.64 C1.88 3.93, 3.54 1.93, 4.99 0.36 M0.39 5.64 C1.5 4.27, 2.52 3.18, 4.99 0.36 M6.04 5.25 C7.33 3.91, 8.52 2.4, 9.97 0.72 M6.04 5.25 C7.2 3.76, 8.54 2.5, 9.97 0.72" stroke="#fa5252" stroke-width="0.5" fill="none"></path><path d="M0 0 C3.41 0.25, 6.33 -0.01, 9.82 0 M0 0 C2.13 -0.09, 4.45 -0.14, 9.82 0 M9.82 0 C9.68 1.98, 9.68 3.84, 9.82 5.24 M9.82 0 C9.85 1.92, 9.77 3.71, 9.82 5.24 M9.82 5.24 C6.71 5.39, 3.59 5.18, 0 5.24 M9.82 5.24 C7.1 5.26, 4.08 5.25, 0 5.24 M0 5.24 C0.03 3.53, -0.09 1.71, 0 0 M0 5.24 C0.08 3.36, 0 1.5, 0 0" stroke="#000000" stroke-width="1" fill="none"></path></g><g stroke-linecap="round" transform="translate(151.94674779978007 98.19753850385041) rotate(0 4.909240924092408 2.618261826182618)"><path d="M0 0 C0 0, 0 0, 0 0 M0 0 C0 0, 0 0, 0 0 M0.39 5.64 C2.29 3.52, 3.9 1.69, 4.99 0.36 M0.39 5.64 C1.68 3.95, 3.25 2.49, 4.99 0.36 M6.04 5.25 C7.24 3.95, 8.28 2.72, 9.97 0.72 M6.04 5.25 C6.81 4.33, 7.81 3.19, 9.97 0.72" stroke="#fa5252" stroke-width="0.5" fill="none"></path><path d="M0 0 C2.8 0.02, 5.07 -0.26, 9.82 0 M0 0 C3.27 -0.02, 6.58 0.14, 9.82 0 M9.82 0 C9.85 1.61, 9.77 3.61, 9.82 5.24 M9.82 0 C9.89 1.73, 9.84 3.59, 9.82 5.24 M9.82 5.24 C6.71 5.22, 3.24 5.19, 0 5.24 M9.82 5.24 C7.49 5.13, 5.09 5.29, 0 5.24 M0 5.24 C-0.01 3.94, -0.15 2.94, 0 0 M0 5.24 C-0.07 3.62, -0.1 1.94, 0 0" stroke="#000000" stroke-width="1" fill="none"></path></g><g stroke-linecap="round" transform="translate(168.63816694169412 98.19753850385041) rotate(0 4.909240924092408 2.618261826182618)"><path d="M0 0 C0 0, 0 0, 0 0 M0 0 C0 0, 0 0, 0 0 M0.39 5.64 C1.19 4.63, 2.29 3.31, 4.99 0.36 M0.39 5.64 C1.62 4.23, 3.07 2.58, 4.99 0.36 M6.04 5.25 C7.21 3.9, 8.44 2.33, 9.97 0.72 M6.04 5.25 C7.35 3.89, 8.44 2.38, 9.97 0.72" stroke="#fa5252" stroke-width="0.5" fill="none"></path><path d="M0 0 C3.54 -0.02, 6.74 0.11, 9.82 0 M0 0 C2.45 -0.13, 5.11 0.08, 9.82 0 M9.82 0 C9.66 1.31, 9.89 2.78, 9.82 5.24 M9.82 0 C9.77 1.3, 9.84 2.56, 9.82 5.24 M9.82 5.24 C7.1 5.21, 4.37 5.06, 0 5.24 M9.82 5.24 C7.65 5.29, 5.76 5.13, 0 5.24 M0 5.24 C-0.11 3.85, 0.08 2.8, 0 0 M0 5.24 C-0.01 3.06, -0.06 1.08, 0 0" stroke="#000000" stroke-width="1" fill="none"></path></g><g stroke-linecap="round" transform="translate(151.7217409240924 61.01003850385047) rotate(0 4.909240924092408 2.618261826182618)"><path d="M0 0 C0 0, 0 0, 0 0 M0 0 C0 0, 0 0, 0 0 M0.39 5.64 C1.53 4.38, 2.36 3.35, 4.99 0.36 M0.39 5.64 C1.87 4.11, 3.12 2.52, 4.99 0.36 M6.04 5.25 C7.32 3.81, 8.4 2.36, 9.97 0.72 M6.04 5.25 C7.03 4.09, 7.88 3.13, 9.97 0.72" stroke="#fa5252" stroke-width="0.5" fill="none"></path><path d="M0 0 C3.78 -0.24, 7.67 -0.15, 9.82 0 M0 0 C2.09 0.12, 4.55 -0.06, 9.82 0 M9.82 0 C9.78 1.22, 9.9 2.17, 9.82 5.24 M9.82 0 C9.87 1.74, 9.86 3.43, 9.82 5.24 M9.82 5.24 C6.84 5.19, 3.77 4.93, 0 5.24 M9.82 5.24 C6.38 5.25, 2.75 5.1, 0 5.24 M0 5.24 C-0.16 3.7, 0.02 2.17, 0 0 M0 5.24 C-0.08 3.14, 0.02 1.17, 0 0" stroke="#000000" stroke-width="1" fill="none"></path></g><g stroke-linecap="round" transform="translate(168.41316006600664 61.01003850385047) rotate(0 4.909240924092408 2.618261826182618)"><path d="M0 0 C0 0, 0 0, 0 0 M0 0 C0 0, 0 0, 0 0 M0.39 5.64 C2.08 3.56, 3.99 1.48, 4.99 0.36 M0.39 5.64 C1.43 4.46, 2.42 3.35, 4.99 0.36 M6.04 5.25 C7.43 3.5, 8.82 1.96, 9.97 0.72 M6.04 5.25 C6.79 4.25, 7.73 3.42, 9.97 0.72" stroke="#fa5252" stroke-width="0.5" fill="none"></path><path d="M0 0 C3.51 0.14, 7.34 -0.23, 9.82 0 M0 0 C2.44 0.09, 4.59 -0.11, 9.82 0 M9.82 0 C9.89 1.77, 9.7 3.44, 9.82 5.24 M9.82 0 C9.82 2.07, 9.79 4.09, 9.82 5.24 M9.82 5.24 C6.36 5.04, 2.69 5.41, 0 5.24 M9.82 5.24 C6.61 5.13, 3.22 5.26, 0 5.24 M0 5.24 C0.1 3.75, 0.18 2.39, 0 0 M0 5.24 C-0.04 3.97, 0.04 2.69, 0 0" stroke="#000000" stroke-width="1" fill="none"></path></g><g stroke-linecap="round" transform="translate(151.49673404840493 48.61420517051704) rotate(0 4.909240924092408 2.618261826182618)"><path d="M0 0 C0 0, 0 0, 0 0 M0 0 C0 0, 0 0, 0 0 M0.39 5.64 C1.32 4.54, 2.26 3.3, 4.99 0.36 M0.39 5.64 C1.33 4.53, 2.34 3.47, 4.99 0.36 M6.04 5.25 C7.01 3.97, 8.18 2.46, 9.97 0.72 M6.04 5.25 C7.44 3.63, 9 1.94, 9.97 0.72" stroke="#fa5252" stroke-width="0.5" fill="none"></path><path d="M0 0 C3.23 -0.13, 5.95 -0.18, 9.82 0 M0 0 C2.76 -0.09, 5.27 0.02, 9.82 0 M9.82 0 C9.89 1.04, 9.87 2.43, 9.82 5.24 M9.82 0 C9.85 1.21, 9.82 2.51, 9.82 5.24 M9.82 5.24 C6.74 4.93, 4.21 5.33, 0 5.24 M9.82 5.24 C7.47 5.14, 5.38 5.22, 0 5.24 M0 5.24 C0.03 4.15, 0.18 2.63, 0 0 M0 5.24 C0.03 3.67, 0.03 2.06, 0 0" stroke="#000000" stroke-width="1" fill="none"></path></g><g stroke-linecap="round" transform="translate(168.18815319031904 48.61420517051704) rotate(0 4.909240924092408 2.618261826182618)"><path d="M0 0 C0 0, 0 0, 0 0 M0 0 C0 0, 0 0, 0 0 M0.39 5.64 C2.07 3.69, 3.6 1.54, 4.99 0.36 M0.39 5.64 C2.15 3.65, 3.96 1.59, 4.99 0.36 M6.04 5.25 C7.3 3.71, 8.33 2.54, 9.97 0.72 M6.04 5.25 C7.45 3.77, 8.77 2.19, 9.97 0.72" stroke="#fa5252" stroke-width="0.5" fill="none"></path><path d="M0 0 C2.82 -0.25, 5.74 -0.09, 9.82 0 M0 0 C1.95 -0.15, 4.08 -0.15, 9.82 0 M9.82 0 C9.73 1.51, 9.99 2.8, 9.82 5.24 M9.82 0 C9.8 1.77, 9.86 3.53, 9.82 5.24 M9.82 5.24 C6.71 5.39, 4.3 4.98, 0 5.24 M9.82 5.24 C6.53 5.23, 3.43 5.11, 0 5.24 M0 5.24 C0.16 4.32, -0.11 3.09, 0 0 M0 5.24 C0.05 4.19, 0.05 3.12, 0 0" stroke="#000000" stroke-width="1" fill="none"></path></g><g stroke-linecap="round" transform="translate(152.8467753025302 135.38503850385044) rotate(0 4.909240924092408 2.618261826182618)"><path d="M0 0 C0 0, 0 0, 0 0 M0 0 C0 0, 0 0, 0 0 M0.39 5.64 C1.5 4.17, 2.41 3.28, 4.99 0.36 M0.39 5.64 C1.88 4.02, 3.3 2.3, 4.99 0.36 M6.04 5.25 C7.14 3.67, 8.61 2.55, 9.97 0.72 M6.04 5.25 C7.02 4.22, 7.88 3.19, 9.97 0.72" stroke="#fa5252" stroke-width="0.5" fill="none"></path><path d="M0 0 C2.01 -0.19, 4.41 -0.29, 9.82 0 M0 0 C3.5 0.05, 7.14 -0.02, 9.82 0 M9.82 0 C9.88 2, 9.71 3.74, 9.82 5.24 M9.82 0 C9.82 1.7, 9.82 3.3, 9.82 5.24 M9.82 5.24 C7.18 5.31, 3.96 5.29, 0 5.24 M9.82 5.24 C6.68 5.19, 3.42 5.06, 0 5.24 M0 5.24 C0.16 3.31, 0.01 1.41, 0 0 M0 5.24 C0.01 3.96, -0.01 2.67, 0 0" stroke="#000000" stroke-width="1" fill="none"></path></g><g stroke-linecap="round" transform="translate(169.53819444444446 135.38503850385044) rotate(0 4.909240924092408 2.618261826182618)"><path d="M0 0 C0 0, 0 0, 0 0 M0 0 C0 0, 0 0, 0 0 M0.39 5.64 C1.58 3.85, 3.35 2.51, 4.99 0.36 M0.39 5.64 C1.74 4.14, 2.99 2.68, 4.99 0.36 M6.04 5.25 C6.73 4.39, 7.86 3.11, 9.97 0.72 M6.04 5.25 C7.08 4.1, 8.12 2.87, 9.97 0.72" stroke="#fa5252" stroke-width="0.5" fill="none"></path><path d="M0 0 C3.16 -0.06, 6.43 0.25, 9.82 0 M0 0 C3.34 -0.11, 6.56 0.11, 9.82 0 M9.82 0 C9.97 1.68, 9.87 3.61, 9.82 5.24 M9.82 0 C9.86 1.74, 9.8 3.47, 9.82 5.24 M9.82 5.24 C7.54 5.01, 5.13 5.32, 0 5.24 M9.82 5.24 C7.57 5.14, 5.21 5.32, 0 5.24 M0 5.24 C-0.12 3.62, -0.19 1.9, 0 0 M0 5.24 C0.03 3.59, 0.05 1.93, 0 0" stroke="#000000" stroke-width="1" fill="none"></path></g><g stroke-linecap="round" transform="translate(152.1717546754676 110.59337183718372) rotate(0 4.909240924092408 2.618261826182618)"><path d="M0 0 C0 0, 0 0, 0 0 M0 0 C0 0, 0 0, 0 0 M0.39 5.64 C1.51 4.32, 3.09 2.56, 4.99 0.36 M0.39 5.64 C1.77 4.05, 3.19 2.33, 4.99 0.36 M6.04 5.25 C7.41 3.93, 8.37 2.36, 9.97 0.72 M6.04 5.25 C7.4 3.73, 8.69 2.37, 9.97 0.72" stroke="#fa5252" stroke-width="0.5" fill="none"></path><path d="M0 0 C2.41 -0.29, 5.22 0.14, 9.82 0 M0 0 C2.4 -0.04, 5.15 0.06, 9.82 0 M9.82 0 C9.71 1.33, 9.85 2.59, 9.82 5.24 M9.82 0 C9.81 1.43, 9.81 2.83, 9.82 5.24 M9.82 5.24 C7.53 5.33, 5.8 5.01, 0 5.24 M9.82 5.24 C7.42 5.08, 5.3 5.25, 0 5.24 M0 5.24 C0 2.98, -0.1 1.09, 0 0 M0 5.24 C-0.01 3.46, -0.03 1.52, 0 0" stroke="#000000" stroke-width="1" fill="none"></path></g><g stroke-linecap="round" transform="translate(168.8631738173818 110.59337183718372) rotate(0 4.909240924092408 2.618261826182618)"><path d="M0 0 C0 0, 0 0, 0 0 M0 0 C0 0, 0 0, 0 0 M0.39 5.64 C1.97 4.13, 3.1 2.52, 4.99 0.36 M0.39 5.64 C1.88 3.95, 3.25 2.26, 4.99 0.36 M6.04 5.25 C7.08 4.01, 7.85 3.15, 9.97 0.72 M6.04 5.25 C7.57 3.52, 9.26 1.56, 9.97 0.72" stroke="#fa5252" stroke-width="0.5" fill="none"></path><path d="M0 0 C1.94 0.24, 4.61 -0.13, 9.82 0 M0 0 C2.09 0.11, 4.33 -0.07, 9.82 0 M9.82 0 C9.9 1.76, 9.89 3.41, 9.82 5.24 M9.82 0 C9.81 1.55, 9.78 3.05, 9.82 5.24 M9.82 5.24 C6.42 5.28, 2.63 5, 0 5.24 M9.82 5.24 C6.63 5.3, 3.76 5.38, 0 5.24 M0 5.24 C-0.16 3.09, 0.03 1.21, 0 0 M0 5.24 C0.06 3.57, -0.05 1.9, 0 0" stroke="#000000" stroke-width="1" fill="none"></path></g><g stroke-linecap="round" transform="translate(153.07178217821783 122.98920517051714) rotate(0 4.909240924092408 2.618261826182618)"><path d="M0 0 C0 0, 0 0, 0 0 M0 0 C0 0, 0 0, 0 0 M0.39 5.64 C1.45 4.44, 2.42 3.38, 4.99 0.36 M0.39 5.64 C2.01 3.7, 3.62 1.88, 4.99 0.36 M6.04 5.25 C6.71 4.22, 7.76 3.51, 9.97 0.72 M6.04 5.25 C7.22 4.06, 8.17 2.62, 9.97 0.72" stroke="#fa5252" stroke-width="0.5" fill="none"></path><path d="M0 0 C2.56 0.15, 4.52 -0.24, 9.82 0 M0 0 C3.26 0.08, 6.26 0.06, 9.82 0 M9.82 0 C9.84 2.1, 9.76 4.09, 9.82 5.24 M9.82 0 C9.81 1.77, 9.74 3.69, 9.82 5.24 M9.82 5.24 C6.64 5.01, 3.11 5.28, 0 5.24 M9.82 5.24 C7.08 5.22, 4.35 5.36, 0 5.24 M0 5.24 C-0.09 3.98, 0.09 2.71, 0 0 M0 5.24 C-0.03 3.38, -0.05 1.58, 0 0" stroke="#000000" stroke-width="1" fill="none"></path></g><g stroke-linecap="round" transform="translate(169.763201320132 122.98920517051714) rotate(0 4.909240924092408 2.618261826182618)"><path d="M0 0 C0 0, 0 0, 0 0 M0 0 C0 0, 0 0, 0 0 M0.39 5.64 C1.31 4.53, 2.37 3.52, 4.99 0.36 M0.39 5.64 C1.63 4.13, 2.97 2.49, 4.99 0.36 M6.04 5.25 C7.41 3.66, 9.1 1.92, 9.97 0.72 M6.04 5.25 C7.65 3.42, 9.01 1.7, 9.97 0.72" stroke="#fa5252" stroke-width="0.5" fill="none"></path><path d="M0 0 C2.82 -0.16, 5.14 0.05, 9.82 0 M0 0 C2.2 -0.11, 4.32 0.13, 9.82 0 M9.82 0 C9.88 1.19, 9.82 2.55, 9.82 5.24 M9.82 0 C9.77 1.46, 9.86 3.11, 9.82 5.24 M9.82 5.24 C7.35 5.03, 5.4 5.2, 0 5.24 M9.82 5.24 C7.48 5.41, 5.27 5.16, 0 5.24 M0 5.24 C0.04 3.72, 0.04 2.1, 0 0 M0 5.24 C-0.06 3.65, -0.05 2.22, 0 0" stroke="#000000" stroke-width="1" fill="none"></path></g><g stroke-linecap="round" transform="translate(35.25 76.6377887788779) rotate(0 9.491199119911997 36.00110011001102)"><path d="M0 0 C0 0, 0 0, 0 0 M0 0 C0 0, 0 0, 0 0 M-0.26 6.4 C1.03 4.7, 2.68 3.18, 4.99 0.36 M-0.26 6.4 C0.93 4.79, 2.23 3.72, 4.99 0.36 M0.13 12.04 C3.69 8.31, 6.05 5.17, 10.63 -0.03 M0.13 12.04 C3.7 8.45, 6.89 4.34, 10.63 -0.03 M-0.13 18.44 C6.5 11.12, 11.61 4.91, 15.62 0.33 M-0.13 18.44 C5.71 12.33, 11 5.29, 15.62 0.33 M0.27 24.08 C4.88 18, 9.73 12.6, 19.29 2.2 M0.27 24.08 C4.55 19.31, 8.22 14.23, 19.29 2.2 M0 30.48 C6.82 23.55, 13.91 14.35, 19.69 7.84 M0 30.48 C4.37 26.17, 8.25 21.03, 19.69 7.84 M-0.26 36.88 C6.98 29, 12.81 21.64, 19.43 14.24 M-0.26 36.88 C7.04 29.2, 13.21 21.33, 19.43 14.24 M0.14 42.52 C8.04 34.36, 15.71 24.87, 19.16 20.63 M0.14 42.52 C7.35 34.58, 14.17 26.86, 19.16 20.63 M-0.12 48.92 C3.3 43.09, 9.41 39.18, 19.56 26.28 M-0.12 48.92 C7.62 40.54, 14.75 31.35, 19.56 26.28 M0.27 54.56 C5.25 48.84, 8.25 45.65, 19.3 32.67 M0.27 54.56 C6.35 47.35, 12.84 39.6, 19.3 32.67 M0.01 60.96 C4.43 54.48, 10.69 49.14, 19.69 38.32 M0.01 60.96 C4.57 55.99, 9.62 50.06, 19.69 38.32 M-0.25 67.36 C7.7 58.22, 14.93 49.57, 19.43 44.72 M-0.25 67.36 C6.34 59.79, 13.91 51.63, 19.43 44.72 M0.8 72.25 C4.56 67.14, 8.93 61.41, 19.17 51.11 M0.8 72.25 C6.71 65.81, 12.79 58.72, 19.17 51.11 M5.79 72.61 C8.96 68.66, 11.67 66.05, 19.56 56.76 M5.79 72.61 C10.68 67.53, 15.49 61.66, 19.56 56.76 M11.43 72.21 C13.44 69.76, 15.67 66.67, 19.3 63.15 M11.43 72.21 C13.42 69.98, 15.31 68.12, 19.3 63.15 M16.42 72.57 C17.35 71.76, 17.8 70.74, 19.7 68.8 M16.42 72.57 C17.35 71.36, 18.35 70.36, 19.7 68.8" stroke="#868e96" stroke-width="0.5" fill="none"></path><path d="M0 0 C5.61 0.66, 11.67 0.34, 18.98 0 M0 0 C4.66 -0.17, 9.89 -0.21, 18.98 0 M18.98 0 C19.16 28.04, 18.33 55.98, 18.98 72 M18.98 0 C19.11 17.15, 18.94 35.03, 18.98 72 M18.98 72 C11.8 71.68, 6.54 71.6, 0 72 M18.98 72 C13.67 71.79, 8.78 71.49, 0 72 M0 72 C-0.33 51.25, 0.36 30.54, 0 0 M0 72 C-0.02 48.84, 0.2 26.82, 0 0" stroke="#495057" stroke-width="1" fill="none"></path></g><g stroke-linecap="round" transform="translate(54.88696369636949 30.163641364136254) rotate(0 18.982398239823993 59.238173817381764)"><path d="M0 0 C0 0, 0 0, 0 0 M0 0 C0 0, 0 0, 0 0 M-0.26 6.4 C1.4 4.83, 1.77 2.72, 4.99 0.36 M-0.26 6.4 C1.5 4.77, 3.25 2.15, 4.99 0.36 M0.13 12.04 C2.19 9.38, 6.67 6.26, 10.63 -0.03 M0.13 12.04 C4.21 7.52, 8.96 2.28, 10.63 -0.03 M-0.13 18.44 C2.19 15.53, 9.21 8.15, 15.62 0.33 M-0.13 18.44 C5.54 11.08, 11.85 4.31, 15.62 0.33 M0.27 24.08 C4.36 18.33, 8.7 13.64, 21.26 -0.07 M0.27 24.08 C7.04 14.99, 16 6.46, 21.26 -0.07 M0 30.48 C9.84 18.72, 15.04 12.28, 26.25 0.29 M0 30.48 C6.04 23.25, 12.54 15.88, 26.25 0.29 M-0.26 36.88 C6.91 27.94, 17.97 15.08, 31.89 -0.1 M-0.26 36.88 C6.02 28.77, 14.39 20.27, 31.89 -0.1 M0.14 42.52 C11.01 30.02, 19.39 22.45, 36.88 0.26 M0.14 42.52 C13.45 28, 24.81 12.53, 36.88 0.26 M-0.12 48.92 C13.88 36.05, 25.99 20.53, 40.55 2.13 M-0.12 48.92 C8.7 37.25, 18.24 27.07, 40.55 2.13 M0.27 54.56 C10.45 43.39, 23.06 30.59, 40.29 8.52 M0.27 54.56 C14.15 37.98, 28.98 21.44, 40.29 8.52 M0.01 60.96 C16.62 43.56, 28.75 28.99, 40.69 14.17 M0.01 60.96 C11.61 47.82, 23.04 34.57, 40.69 14.17 M-0.25 67.36 C14.18 50.06, 30.52 32.13, 40.42 20.56 M-0.25 67.36 C11.89 54.46, 22.07 41.11, 40.42 20.56 M0.14 73 C7.92 61.33, 17.77 52.65, 40.82 26.21 M0.14 73 C10.07 61.69, 18.19 50.78, 40.82 26.21 M-0.12 79.4 C11.79 66.18, 23.62 51.09, 40.56 32.61 M-0.12 79.4 C9.88 67.69, 18.23 58.63, 40.56 32.61 M0.28 85.04 C12.99 68.45, 24.67 55.97, 40.3 39 M0.28 85.04 C16.25 67.9, 30.83 48.79, 40.3 39 M0.01 91.44 C11.03 76.34, 26.08 61, 40.69 44.65 M0.01 91.44 C14.34 75.55, 28.97 58.35, 40.69 44.65 M-0.25 97.84 C11.37 86.37, 21.28 73.43, 40.43 51.04 M-0.25 97.84 C10.27 85.35, 21.43 72.59, 40.43 51.04 M0.15 103.48 C16.17 87.3, 29.18 68.98, 40.17 57.44 M0.15 103.48 C11.44 89.75, 23.81 77.45, 40.17 57.44 M-0.11 109.88 C14.2 94.68, 28.01 76.21, 40.56 63.09 M-0.11 109.88 C14.11 93.77, 28.21 77.44, 40.56 63.09 M0.28 115.52 C11.26 100.37, 24.42 88.65, 40.3 69.48 M0.28 115.52 C12.6 101.73, 23.32 89.28, 40.3 69.48 M1.99 119.65 C16.03 102.25, 34.04 86.63, 40.69 75.13 M1.99 119.65 C16.56 103.28, 30.79 84.91, 40.69 75.13 M6.97 120.01 C15.95 109.7, 27.88 95.32, 40.43 81.52 M6.97 120.01 C16.09 107.9, 26.98 96.26, 40.43 81.52 M12.62 119.62 C22.33 109.12, 31.59 97.31, 40.17 87.92 M12.62 119.62 C18.92 110.91, 25.63 104.28, 40.17 87.92 M17.6 119.98 C27.49 108.99, 35.05 99.54, 40.57 93.56 M17.6 119.98 C24.13 111.04, 31.99 104.88, 40.57 93.56 M22.59 120.34 C27.2 113.75, 31.26 111.91, 40.31 99.96 M22.59 120.34 C28.34 113.55, 33.41 107.29, 40.31 99.96 M28.23 119.94 C30.97 117.7, 34.83 112.21, 40.7 105.61 M28.23 119.94 C31.78 115.12, 37.93 108.83, 40.7 105.61 M33.22 120.31 C34.68 118.07, 36.44 115.66, 40.44 112 M33.22 120.31 C36.18 118.06, 38.21 114.81, 40.44 112" stroke="#868e96" stroke-width="0.5" fill="none"></path><path d="M0 0 C9.85 1.33, 17.53 -0.84, 37.96 0 M0 0 C14.06 0.26, 28.2 1.08, 37.96 0 M37.96 0 C38.95 32.85, 39.26 66.95, 37.96 118.48 M37.96 0 C36.99 38.21, 37.91 77.26, 37.96 118.48 M37.96 118.48 C23.42 118.42, 9.53 117.39, 0 118.48 M37.96 118.48 C29.77 117.81, 21.31 118.07, 0 118.48 M0 118.48 C-1.37 92.23, -1.86 65.93, 0 0 M0 118.48 C-1.58 85.21, -0.26 50.72, 0 0" stroke="#000000" stroke-width="1" fill="none"></path></g><g stroke-linecap="round" transform="translate(93.50632563256329 101.5112761276128) rotate(0 25.52805280528053 23.891639163916395)"><path d="M0 0 C0 0, 0 0, 0 0 M0 0 C0 0, 0 0, 0 0 M-0.26 6.4 C1.12 4.15, 1.95 3.23, 4.99 0.36 M-0.26 6.4 C1.5 4.81, 2.28 3.19, 4.99 0.36 M0.13 12.04 C4.64 8.34, 8.69 5.25, 10.63 -0.03 M0.13 12.04 C4.04 8.48, 7.24 3.02, 10.63 -0.03 M-0.13 18.44 C6.89 13.79, 9.42 8.49, 15.62 0.33 M-0.13 18.44 C4.76 12.24, 10.25 6.08, 15.62 0.33 M0.27 24.08 C5.81 16.2, 12.4 12.69, 21.26 -0.07 M0.27 24.08 C6.79 16.87, 13.87 8.98, 21.26 -0.07 M0 30.48 C6.45 18.7, 18.24 9.38, 26.25 0.29 M0 30.48 C9.26 20.03, 18.42 8.33, 26.25 0.29 M-0.26 36.88 C11.52 25.73, 19.37 10.92, 31.89 -0.1 M-0.26 36.88 C11.95 23.82, 23.78 8.44, 31.89 -0.1 M0.14 42.52 C11.33 28.2, 27.46 12.87, 36.88 0.26 M0.14 42.52 C14.56 25.23, 28.04 9.75, 36.88 0.26 M0.53 48.16 C10.03 39.73, 16.82 26.95, 42.52 -0.14 M0.53 48.16 C13.25 32.3, 27.5 17.54, 42.52 -0.14 M5.52 48.52 C23.55 30.79, 39.87 12.38, 47.51 0.22 M5.52 48.52 C14.73 37.76, 24.04 28.21, 47.51 0.22 M11.16 48.13 C20.81 35.21, 33.25 24.39, 51.18 2.09 M11.16 48.13 C22.11 35.67, 32.98 22.3, 51.18 2.09 M16.15 48.49 C27.46 36.43, 38.15 21.76, 51.58 7.73 M16.15 48.49 C24 38.76, 31.4 29.58, 51.58 7.73 M21.79 48.09 C27.13 40.27, 35.48 30.2, 51.32 14.13 M21.79 48.09 C30.29 36.84, 39.15 27.46, 51.32 14.13 M26.78 48.45 C35.16 39.51, 41.75 27.84, 51.71 19.78 M26.78 48.45 C34.41 38.25, 44.64 28.93, 51.71 19.78 M32.42 48.06 C35.92 40.65, 43.51 37.55, 51.45 26.17 M32.42 48.06 C39.8 39.89, 45.24 33.14, 51.45 26.17 M37.41 48.42 C42.37 43, 46.97 38.58, 51.19 32.57 M37.41 48.42 C41.59 44.24, 44.61 39.61, 51.19 32.57 M43.05 48.03 C45.72 45.76, 47.28 42.68, 51.58 38.21 M43.05 48.03 C45.34 45.16, 47.56 43.35, 51.58 38.21 M48.04 48.39 C49.66 46.59, 50.71 45.67, 51.32 44.61 M48.04 48.39 C48.9 47.42, 50.11 46.32, 51.32 44.61" stroke="#868e96" stroke-width="0.5" fill="none"></path><path d="M0 0 C19.05 0.42, 34.57 1.11, 51.06 0 M0 0 C19.92 -0.17, 40.62 -0.04, 51.06 0 M51.06 0 C49.95 17.17, 50 33.26, 51.06 47.78 M51.06 0 C50.84 12.93, 51.41 25.71, 51.06 47.78 M51.06 47.78 C32.16 46.58, 11.93 45.7, 0 47.78 M51.06 47.78 C38.02 46.64, 25.66 46.83, 0 47.78 M0 47.78 C0.47 29.23, 0.59 12.5, 0 0 M0 47.78 C0.36 31.39, -0.58 15.07, 0 0" stroke="#000000" stroke-width="1" fill="none"></path></g><g stroke-linecap="round" transform="translate(39.34103410341004 81.54702970297038) rotate(0 4.9092409240924155 2.618261826182618)"><path d="M0 0 C0 0, 0 0, 0 0 M0 0 C0 0, 0 0, 0 0 M0.39 5.64 C1.66 4, 2.76 2.74, 4.99 0.36 M0.39 5.64 C1.72 4.25, 2.76 2.84, 4.99 0.36 M6.04 5.25 C7.5 3.76, 8.9 2.34, 9.97 0.72 M6.04 5.25 C7.47 3.72, 8.81 1.95, 9.97 0.72" stroke="#12b886" stroke-width="0.5" fill="none"></path><path d="M0 0 C3.18 -0.15, 6.35 0.27, 9.82 0 M0 0 C2.33 0.14, 4.73 0.07, 9.82 0 M9.82 0 C9.89 1.59, 9.87 3.31, 9.82 5.24 M9.82 0 C9.84 1.64, 9.86 3.29, 9.82 5.24 M9.82 5.24 C7.63 5.12, 5.46 5.07, 0 5.24 M9.82 5.24 C7.36 5.2, 5.08 5.33, 0 5.24 M0 5.24 C-0.09 4.01, -0.02 2.82, 0 0 M0 5.24 C0.05 3.69, 0.08 2.19, 0 0" stroke="#000000" stroke-width="1" fill="none"></path></g><g stroke-linecap="round" transform="translate(39.34103410341004 137.83965896589666) rotate(0 4.9092409240924155 2.618261826182618)"><path d="M0 0 C0 0, 0 0, 0 0 M0 0 C0 0, 0 0, 0 0 M0.39 5.64 C1.46 4.01, 2.92 2.73, 4.99 0.36 M0.39 5.64 C1.34 4.46, 2.27 3.51, 4.99 0.36 M6.04 5.25 C7.24 4.09, 8.52 2.72, 9.97 0.72 M6.04 5.25 C7.66 3.45, 9.04 1.77, 9.97 0.72" stroke="#12b886" stroke-width="0.5" fill="none"></path><path d="M0 0 C3.55 0.23, 7.65 -0.2, 9.82 0 M0 0 C2.92 -0.01, 5.63 0.05, 9.82 0 M9.82 0 C9.71 1.74, 9.74 3.41, 9.82 5.24 M9.82 0 C9.84 1.35, 9.88 2.51, 9.82 5.24 M9.82 5.24 C7.16 4.91, 4.56 5.01, 0 5.24 M9.82 5.24 C7.19 5.08, 4.73 5.11, 0 5.24 M0 5.24 C0.02 3.79, 0.09 2.38, 0 0 M0 5.24 C-0.06 4.25, -0.07 3.13, 0 0" stroke="#000000" stroke-width="1" fill="none"></path></g><g stroke-linecap="round" transform="translate(39.34103410341004 115.32260726072616) rotate(0 4.9092409240924155 2.618261826182618)"><path d="M0 0 C0 0, 0 0, 0 0 M0 0 C0 0, 0 0, 0 0 M0.39 5.64 C1.77 3.89, 3.51 1.76, 4.99 0.36 M0.39 5.64 C1.67 4.06, 3.18 2.47, 4.99 0.36 M6.04 5.25 C7.13 4.35, 8.01 3.27, 9.97 0.72 M6.04 5.25 C7.22 3.78, 8.52 2.4, 9.97 0.72" stroke="#12b886" stroke-width="0.5" fill="none"></path><path d="M0 0 C3.86 0.31, 7.05 -0.04, 9.82 0 M0 0 C2.96 0.04, 6.01 0.01, 9.82 0 M9.82 0 C9.87 1.19, 9.84 2.42, 9.82 5.24 M9.82 0 C9.88 1.5, 9.74 2.84, 9.82 5.24 M9.82 5.24 C6.42 5.05, 3.42 5.11, 0 5.24 M9.82 5.24 C7.15 5.34, 4.64 5.18, 0 5.24 M0 5.24 C-0.02 3.71, -0.02 1.83, 0 0 M0 5.24 C0.06 3.46, 0 1.81, 0 0" stroke="#000000" stroke-width="1" fill="none"></path></g><g stroke-linecap="round" transform="translate(39.34103410341004 104.06408140814082) rotate(0 4.9092409240924155 2.618261826182618)"><path d="M0 0 C0 0, 0 0, 0 0 M0 0 C0 0, 0 0, 0 0 M0.39 5.64 C1.79 4.07, 2.81 2.64, 4.99 0.36 M0.39 5.64 C2.13 3.7, 3.87 1.57, 4.99 0.36 M6.04 5.25 C7.61 3.74, 9.02 2.02, 9.97 0.72 M6.04 5.25 C7.28 3.79, 8.61 2.18, 9.97 0.72" stroke="#12b886" stroke-width="0.5" fill="none"></path><path d="M0 0 C3.63 -0.21, 6.63 -0.01, 9.82 0 M0 0 C2.76 0.04, 5.42 -0.09, 9.82 0 M9.82 0 C9.74 1.79, 9.72 3.51, 9.82 5.24 M9.82 0 C9.89 1.69, 9.79 3.56, 9.82 5.24 M9.82 5.24 C7.19 4.99, 4.79 5.07, 0 5.24 M9.82 5.24 C7.93 5.11, 5.77 5.23, 0 5.24 M0 5.24 C0.09 3.92, -0.17 2.71, 0 0 M0 5.24 C-0.05 3.49, 0.02 1.76, 0 0" stroke="#000000" stroke-width="1" fill="none"></path></g><g stroke-linecap="round" transform="translate(39.34103410341004 92.80555555555566) rotate(0 4.9092409240924155 2.618261826182618)"><path d="M0 0 C0 0, 0 0, 0 0 M0 0 C0 0, 0 0, 0 0 M0.39 5.64 C1.4 4.18, 2.56 3.35, 4.99 0.36 M0.39 5.64 C1.85 4.03, 3.12 2.5, 4.99 0.36 M6.04 5.25 C7.41 3.95, 8.58 2.38, 9.97 0.72 M6.04 5.25 C7.64 3.43, 9.1 1.73, 9.97 0.72" stroke="#12b886" stroke-width="0.5" fill="none"></path><path d="M0 0 C2.36 -0.08, 5.12 -0.11, 9.82 0 M0 0 C3.83 0.03, 7.48 0.05, 9.82 0 M9.82 0 C9.84 1.17, 9.78 2.6, 9.82 5.24 M9.82 0 C9.75 1.7, 9.84 3.43, 9.82 5.24 M9.82 5.24 C7.02 5.1, 4.51 4.9, 0 5.24 M9.82 5.24 C6.93 5.21, 4.25 5.17, 0 5.24 M0 5.24 C-0.02 3.42, 0.05 2, 0 0 M0 5.24 C-0.01 4.02, 0.01 2.81, 0 0" stroke="#000000" stroke-width="1" fill="none"></path></g><g stroke-linecap="round" transform="translate(39.34103410341004 126.58113311331138) rotate(0 4.9092409240924155 2.618261826182618)"><path d="M0 0 C0 0, 0 0, 0 0 M0 0 C0 0, 0 0, 0 0 M0.39 5.64 C1.11 4.57, 2.45 3.49, 4.99 0.36 M0.39 5.64 C1.42 4.37, 2.54 3.28, 4.99 0.36 M6.04 5.25 C7.72 3.51, 9.13 1.94, 9.97 0.72 M6.04 5.25 C7.04 3.99, 8.16 2.98, 9.97 0.72" stroke="#12b886" stroke-width="0.5" fill="none"></path><path d="M0 0 C3.62 0.03, 7.28 0.3, 9.82 0 M0 0 C2.86 -0.11, 5.71 -0.1, 9.82 0 M9.82 0 C9.72 1.66, 9.88 3.46, 9.82 5.24 M9.82 0 C9.8 1.91, 9.79 3.75, 9.82 5.24 M9.82 5.24 C7.67 5.08, 5.45 5.16, 0 5.24 M9.82 5.24 C7.58 5.23, 5.35 5.24, 0 5.24 M0 5.24 C-0.18 3.8, 0.05 2.16, 0 0 M0 5.24 C0.02 3.29, 0.04 1.26, 0 0" stroke="#000000" stroke-width="1" fill="none"></path></g><g stroke-linecap="round" transform="translate(129.5074257425742 108.38421342134211) rotate(0 4.909240924092408 2.618261826182618)"><path d="M0 0 C0 0, 0 0, 0 0 M0 0 C0 0, 0 0, 0 0 M0.39 5.64 C1.92 4.09, 3.45 1.98, 4.99 0.36 M0.39 5.64 C1.68 4.14, 3.14 2.61, 4.99 0.36 M6.04 5.25 C7.57 3.55, 9.27 1.65, 9.97 0.72 M6.04 5.25 C6.97 4.16, 8.14 2.85, 9.97 0.72" stroke="#fd7e14" stroke-width="0.5" fill="none"></path><path d="M0 0 C3.84 -0.08, 7.93 -0.04, 9.82 0 M0 0 C3.27 0.06, 6.64 0.03, 9.82 0 M9.82 0 C9.78 1.44, 9.87 2.86, 9.82 5.24 M9.82 0 C9.82 1.93, 9.77 3.86, 9.82 5.24 M9.82 5.24 C7.26 4.91, 4.91 4.97, 0 5.24 M9.82 5.24 C6.24 5.14, 2.66 5.2, 0 5.24 M0 5.24 C0.05 3.46, -0.11 1.7, 0 0 M0 5.24 C0.02 4.06, -0.03 2.84, 0 0" stroke="#000000" stroke-width="1" fill="none"></path></g><g stroke-linecap="round" transform="translate(114.45242024202429 108.38421342134211) rotate(0 4.9092409240924155 2.618261826182618)"><path d="M0 0 C0 0, 0 0, 0 0 M0 0 C0 0, 0 0, 0 0 M0.39 5.64 C1.81 4.25, 2.67 2.84, 4.99 0.36 M0.39 5.64 C2.03 3.88, 3.63 2.15, 4.99 0.36 M6.04 5.25 C7.5 3.82, 8.77 1.91, 9.97 0.72 M6.04 5.25 C7.43 3.82, 8.6 2.36, 9.97 0.72" stroke="#fd7e14" stroke-width="0.5" fill="none"></path><path d="M0 0 C2.29 0.28, 4.71 0.14, 9.82 0 M0 0 C3.23 -0.08, 6.38 -0.04, 9.82 0 M9.82 0 C9.88 1.67, 9.92 3.36, 9.82 5.24 M9.82 0 C9.77 1.05, 9.73 2.12, 9.82 5.24 M9.82 5.24 C7.2 5.17, 4.96 5.44, 0 5.24 M9.82 5.24 C7.38 5.26, 5.1 5.32, 0 5.24 M0 5.24 C0.08 3.63, 0.15 2.13, 0 0 M0 5.24 C0.02 3.61, 0.01 2, 0 0" stroke="#000000" stroke-width="1" fill="none"></path></g><g stroke-linecap="round" transform="translate(100.05198019801963 108.38421342134211) rotate(0 4.9092409240924155 2.618261826182618)"><path d="M0 0 C0 0, 0 0, 0 0 M0 0 C0 0, 0 0, 0 0 M0.39 5.64 C1.34 4.38, 2.27 3.56, 4.99 0.36 M0.39 5.64 C1.77 4.19, 3.19 2.62, 4.99 0.36 M6.04 5.25 C7.76 3.41, 9 1.8, 9.97 0.72 M6.04 5.25 C7.24 3.89, 8.41 2.66, 9.97 0.72" stroke="#fd7e14" stroke-width="0.5" fill="none"></path><path d="M0 0 C3.06 -0.03, 5.7 0.08, 9.82 0 M0 0 C3.09 0.03, 6.3 0, 9.82 0 M9.82 0 C9.87 1.4, 9.95 2.43, 9.82 5.24 M9.82 0 C9.79 1.27, 9.77 2.65, 9.82 5.24 M9.82 5.24 C7.17 4.95, 4.83 5.01, 0 5.24 M9.82 5.24 C7.19 5.19, 4.59 5.19, 0 5.24 M0 5.24 C-0.12 4.31, -0.13 3.13, 0 0 M0 5.24 C-0.04 3.6, -0.06 2.01, 0 0" stroke="#000000" stroke-width="1" fill="none"></path></g><g stroke-linecap="round" transform="translate(130.16199119911994 122.130088008801) rotate(0 4.909240924092408 2.618261826182618)"><path d="M0 0 C0 0, 0 0, 0 0 M0 0 C0 0, 0 0, 0 0 M0.39 5.64 C1.58 4.05, 3.23 2.46, 4.99 0.36 M0.39 5.64 C1.57 4.49, 2.63 3.24, 4.99 0.36 M6.04 5.25 C7.18 3.74, 8.55 2.38, 9.97 0.72 M6.04 5.25 C6.82 4.37, 7.73 3.4, 9.97 0.72" stroke="#fd7e14" stroke-width="0.5" fill="none"></path><path d="M0 0 C2.94 0.11, 6.04 0.05, 9.82 0 M0 0 C2.39 -0.04, 4.72 -0.07, 9.82 0 M9.82 0 C9.93 1.57, 9.66 2.8, 9.82 5.24 M9.82 0 C9.73 1.6, 9.75 3.27, 9.82 5.24 M9.82 5.24 C7.03 5.45, 4.54 5.14, 0 5.24 M9.82 5.24 C6.76 5.32, 3.73 5.08, 0 5.24 M0 5.24 C0.13 3.39, 0 1.82, 0 0 M0 5.24 C0.01 3.49, 0.07 1.81, 0 0" stroke="#000000" stroke-width="1" fill="none"></path></g><g stroke-linecap="round" transform="translate(115.10698569856976 122.130088008801) rotate(0 4.9092409240924155 2.618261826182618)"><path d="M0 0 C0 0, 0 0, 0 0 M0 0 C0 0, 0 0, 0 0 M0.39 5.64 C2.13 3.74, 3.86 1.49, 4.99 0.36 M0.39 5.64 C2.13 3.81, 3.78 1.87, 4.99 0.36 M6.04 5.25 C7.24 3.82, 8.59 2.1, 9.97 0.72 M6.04 5.25 C7.66 3.52, 9.19 1.68, 9.97 0.72" stroke="#fd7e14" stroke-width="0.5" fill="none"></path><path d="M0 0 C2.83 0.08, 5.46 -0.19, 9.82 0 M0 0 C3.27 0.01, 6.58 -0.05, 9.82 0 M9.82 0 C9.96 1.61, 9.75 3.57, 9.82 5.24 M9.82 0 C9.77 1.25, 9.78 2.59, 9.82 5.24 M9.82 5.24 C8.03 5.01, 5.72 5.24, 0 5.24 M9.82 5.24 C7.49 5.21, 4.83 5.28, 0 5.24 M0 5.24 C-0.11 3.49, 0.04 1.78, 0 0 M0 5.24 C-0.05 3.59, -0.02 1.79, 0 0" stroke="#000000" stroke-width="1" fill="none"></path></g><g stroke-linecap="round" transform="translate(100.70654565456567 122.130088008801) rotate(0 4.9092409240924155 2.618261826182618)"><path d="M0 0 C0 0, 0 0, 0 0 M0 0 C0 0, 0 0, 0 0 M0.39 5.64 C1.9 4.02, 3.05 2.57, 4.99 0.36 M0.39 5.64 C1.93 4.03, 3.35 2.26, 4.99 0.36 M6.04 5.25 C7.68 3.42, 9.01 1.82, 9.97 0.72 M6.04 5.25 C7.49 3.7, 8.83 1.97, 9.97 0.72" stroke="#fd7e14" stroke-width="0.5" fill="none"></path><path d="M0 0 C3.86 0.06, 7.38 0.11, 9.82 0 M0 0 C2.39 -0.07, 4.71 0.08, 9.82 0 M9.82 0 C9.67 1.66, 9.86 3.38, 9.82 5.24 M9.82 0 C9.75 1.35, 9.77 2.68, 9.82 5.24 M9.82 5.24 C6.83 5.16, 4.27 5.08, 0 5.24 M9.82 5.24 C6.7 5.09, 3.68 5.31, 0 5.24 M0 5.24 C-0.01 4.04, 0.03 2.83, 0 0 M0 5.24 C0.07 3.84, -0.02 2.52, 0 0" stroke="#000000" stroke-width="1" fill="none"></path></g><g stroke-linecap="round" transform="translate(129.83470847084723 135.87596259625965) rotate(0 4.909240924092408 2.618261826182618)"><path d="M0 0 C0 0, 0 0, 0 0 M0 0 C0 0, 0 0, 0 0 M0.39 5.64 C1.41 4.3, 2.6 3.3, 4.99 0.36 M0.39 5.64 C2.26 3.61, 3.96 1.66, 4.99 0.36 M6.04 5.25 C7.03 3.91, 8.25 3.04, 9.97 0.72 M6.04 5.25 C7.13 4.04, 8.03 2.89, 9.97 0.72" stroke="#fd7e14" stroke-width="0.5" fill="none"></path><path d="M0 0 C2.9 -0.21, 5.77 -0.2, 9.82 0 M0 0 C3.1 -0.04, 6.44 0.05, 9.82 0 M9.82 0 C9.76 1.92, 9.75 3.72, 9.82 5.24 M9.82 0 C9.78 1.05, 9.73 2.15, 9.82 5.24 M9.82 5.24 C7.53 5.24, 5.26 5.27, 0 5.24 M9.82 5.24 C6.88 5.28, 4.31 5.12, 0 5.24 M0 5.24 C0.04 3.31, 0.06 1.23, 0 0 M0 5.24 C-0.02 3.59, 0.03 1.94, 0 0" stroke="#000000" stroke-width="1" fill="none"></path></g><g stroke-linecap="round" transform="translate(114.77970297029697 135.87596259625965) rotate(0 4.9092409240924155 2.618261826182618)"><path d="M0 0 C0 0, 0 0, 0 0 M0 0 C0 0, 0 0, 0 0 M0.39 5.64 C1.6 4.21, 3.17 2.71, 4.99 0.36 M0.39 5.64 C2.17 3.62, 4.05 1.5, 4.99 0.36 M6.04 5.25 C6.89 4.25, 8.2 2.8, 9.97 0.72 M6.04 5.25 C7.54 3.44, 9.1 1.7, 9.97 0.72" stroke="#fd7e14" stroke-width="0.5" fill="none"></path><path d="M0 0 C3.17 0.12, 6.54 0.07, 9.82 0 M0 0 C2.54 0.08, 5.21 0.12, 9.82 0 M9.82 0 C9.83 1.88, 9.74 3.78, 9.82 5.24 M9.82 0 C9.77 1.21, 9.79 2.52, 9.82 5.24 M9.82 5.24 C6.26 5.05, 2.69 5.17, 0 5.24 M9.82 5.24 C6.43 5.26, 2.83 5.33, 0 5.24 M0 5.24 C0.04 4.08, -0.07 2.85, 0 0 M0 5.24 C-0.03 4, -0.05 2.76, 0 0" stroke="#000000" stroke-width="1" fill="none"></path></g><g stroke-linecap="round" transform="translate(100.37926292629254 135.87596259625965) rotate(0 4.9092409240924155 2.618261826182618)"><path d="M0 0 C0 0, 0 0, 0 0 M0 0 C0 0, 0 0, 0 0 M0.39 5.64 C2.1 3.9, 3.73 2.25, 4.99 0.36 M0.39 5.64 C2.07 3.86, 3.63 1.79, 4.99 0.36 M6.04 5.25 C7.52 3.88, 8.55 2.46, 9.97 0.72 M6.04 5.25 C7.3 3.74, 8.62 2.24, 9.97 0.72" stroke="#fd7e14" stroke-width="0.5" fill="none"></path><path d="M0 0 C3.3 -0.17, 6.42 -0.1, 9.82 0 M0 0 C3.09 0.06, 6.15 0.13, 9.82 0 M9.82 0 C9.72 1.02, 9.65 2.07, 9.82 5.24 M9.82 0 C9.73 1.22, 9.75 2.52, 9.82 5.24 M9.82 5.24 C7.3 5.29, 5.07 5.4, 0 5.24 M9.82 5.24 C7.08 5.14, 4.35 5.13, 0 5.24 M0 5.24 C0.05 3.58, 0.02 1.95, 0 0 M0 5.24 C0.02 3.21, 0.04 1.2, 0 0" stroke="#000000" stroke-width="1" fill="none"></path></g><g stroke-linecap="round" transform="translate(60.1234873487349 36.05473047304719) rotate(0 4.9092409240924155 2.618261826182618)"><path d="M0 0 C0 0, 0 0, 0 0 M0 0 C0 0, 0 0, 0 0 M0.39 5.64 C1.8 4.29, 3.29 2.69, 4.99 0.36 M0.39 5.64 C2.28 3.55, 3.9 1.59, 4.99 0.36 M6.04 5.25 C7.3 3.85, 8.5 2.68, 9.97 0.72 M6.04 5.25 C7.57 3.48, 9.11 1.61, 9.97 0.72" stroke="#fa5252" stroke-width="0.5" fill="none"></path><path d="M0 0 C2.99 0.07, 6.24 0.01, 9.82 0 M0 0 C2.48 0.09, 4.98 -0.17, 9.82 0 M9.82 0 C9.76 1.19, 9.73 2.6, 9.82 5.24 M9.82 0 C9.8 1.32, 9.87 2.72, 9.82 5.24 M9.82 5.24 C7.21 5.16, 4.67 5.17, 0 5.24 M9.82 5.24 C7.73 5.37, 5.75 5.25, 0 5.24 M0 5.24 C-0.07 3.61, -0.11 2.08, 0 0 M0 5.24 C-0.03 3.87, -0.05 2.43, 0 0" stroke="#000000" stroke-width="1" fill="none"></path></g><g stroke-linecap="round" transform="translate(76.81490649064898 36.05473047304719) rotate(0 4.9092409240924155 2.618261826182618)"><path d="M0 0 C0 0, 0 0, 0 0 M0 0 C0 0, 0 0, 0 0 M0.39 5.64 C1.67 4.59, 2.7 3.34, 4.99 0.36 M0.39 5.64 C1.77 3.93, 3.29 2.31, 4.99 0.36 M6.04 5.25 C6.78 4.46, 7.76 3.5, 9.97 0.72 M6.04 5.25 C7.06 4.05, 7.98 2.94, 9.97 0.72" stroke="#fa5252" stroke-width="0.5" fill="none"></path><path d="M0 0 C2.43 -0.1, 4.73 -0.15, 9.82 0 M0 0 C2.79 0.11, 5.23 -0.08, 9.82 0 M9.82 0 C9.65 1.56, 9.7 3.24, 9.82 5.24 M9.82 0 C9.73 1.41, 9.75 2.68, 9.82 5.24 M9.82 5.24 C6.73 5.41, 3.71 4.92, 0 5.24 M9.82 5.24 C6.72 5.1, 3.38 5.24, 0 5.24 M0 5.24 C0.02 3.43, 0.14 1.78, 0 0 M0 5.24 C0.03 3.72, -0.02 2.27, 0 0" stroke="#000000" stroke-width="1" fill="none"></path></g><g stroke-linecap="round" transform="translate(61.24852172717283 73.24223047304724) rotate(0 4.9092409240924155 2.618261826182618)"><path d="M0 0 C0 0, 0 0, 0 0 M0 0 C0 0, 0 0, 0 0 M0.39 5.64 C2.23 3.88, 3.88 1.88, 4.99 0.36 M0.39 5.64 C1.84 3.94, 3.39 2.07, 4.99 0.36 M6.04 5.25 C7.75 3.54, 9.29 1.63, 9.97 0.72 M6.04 5.25 C7.14 3.88, 8.31 2.54, 9.97 0.72" stroke="#fa5252" stroke-width="0.5" fill="none"></path><path d="M0 0 C3.21 0.02, 6.49 -0.09, 9.82 0 M0 0 C3.45 -0.17, 6.58 0, 9.82 0 M9.82 0 C9.72 1.2, 9.75 2.55, 9.82 5.24 M9.82 0 C9.87 1.01, 9.79 2.14, 9.82 5.24 M9.82 5.24 C7.57 5.18, 4.67 5.32, 0 5.24 M9.82 5.24 C6.43 5.27, 3.29 5.3, 0 5.24 M0 5.24 C-0.1 3.66, -0.05 1.77, 0 0 M0 5.24 C-0.04 3.53, -0.02 1.91, 0 0" stroke="#000000" stroke-width="1" fill="none"></path></g><g stroke-linecap="round" transform="translate(77.93994086908691 73.24223047304724) rotate(0 4.9092409240924155 2.618261826182618)"><path d="M0 0 C0 0, 0 0, 0 0 M0 0 C0 0, 0 0, 0 0 M0.39 5.64 C2 4.13, 3.36 2.3, 4.99 0.36 M0.39 5.64 C2.27 3.53, 3.97 1.54, 4.99 0.36 M6.04 5.25 C7.51 3.8, 8.78 1.96, 9.97 0.72 M6.04 5.25 C7.03 4.03, 8.05 2.88, 9.97 0.72" stroke="#fa5252" stroke-width="0.5" fill="none"></path><path d="M0 0 C2.4 -0.16, 4.67 0.14, 9.82 0 M0 0 C3.1 -0.09, 6.53 -0.11, 9.82 0 M9.82 0 C9.69 1.32, 9.73 2.59, 9.82 5.24 M9.82 0 C9.75 1.46, 9.81 2.93, 9.82 5.24 M9.82 5.24 C6.68 4.93, 3.73 5.36, 0 5.24 M9.82 5.24 C7.53 5.24, 5.26 5.26, 0 5.24 M0 5.24 C0.14 3.81, -0.04 2.54, 0 0 M0 5.24 C-0.02 3.83, 0.04 2.47, 0 0" stroke="#000000" stroke-width="1" fill="none"></path></g><g stroke-linecap="round" transform="translate(61.4735286028602 85.63806380638061) rotate(0 4.9092409240924155 2.618261826182618)"><path d="M0 0 C0 0, 0 0, 0 0 M0 0 C0 0, 0 0, 0 0 M0.39 5.64 C2.36 3.62, 4 1.78, 4.99 0.36 M0.39 5.64 C1.57 4.18, 2.87 2.99, 4.99 0.36 M6.04 5.25 C7.23 3.99, 8.03 2.85, 9.97 0.72 M6.04 5.25 C7.31 3.71, 8.64 2.18, 9.97 0.72" stroke="#fa5252" stroke-width="0.5" fill="none"></path><path d="M0 0 C3.02 -0.09, 6.5 0.1, 9.82 0 M0 0 C3.48 0.06, 7.01 -0.03, 9.82 0 M9.82 0 C9.75 1.01, 9.64 2.14, 9.82 5.24 M9.82 0 C9.8 1.18, 9.78 2.35, 9.82 5.24 M9.82 5.24 C6.72 5.32, 4.37 5.02, 0 5.24 M9.82 5.24 C6.15 5.28, 2.48 5.17, 0 5.24 M0 5.24 C-0.05 3.57, 0.05 1.91, 0 0 M0 5.24 C-0.02 3.51, 0 1.65, 0 0" stroke="#000000" stroke-width="1" fill="none"></path></g><g stroke-linecap="round" transform="translate(78.16494774477445 85.63806380638061) rotate(0 4.9092409240924155 2.618261826182618)"><path d="M0 0 C0 0, 0 0, 0 0 M0 0 C0 0, 0 0, 0 0 M0.39 5.64 C2.19 3.66, 4.16 1.45, 4.99 0.36 M0.39 5.64 C1.48 4.37, 2.85 2.84, 4.99 0.36 M6.04 5.25 C7.49 3.44, 9.06 1.73, 9.97 0.72 M6.04 5.25 C6.92 4.18, 7.82 3.16, 9.97 0.72" stroke="#fa5252" stroke-width="0.5" fill="none"></path><path d="M0 0 C2.49 0.14, 5.26 0.22, 9.82 0 M0 0 C3.72 -0.07, 7.32 -0.14, 9.82 0 M9.82 0 C9.73 1.13, 9.78 2.45, 9.82 5.24 M9.82 0 C9.82 1.87, 9.82 3.81, 9.82 5.24 M9.82 5.24 C6.47 5.32, 2.73 5.45, 0 5.24 M9.82 5.24 C7.6 5.29, 5.25 5.26, 0 5.24 M0 5.24 C-0.05 4.02, -0.08 2.8, 0 0 M0 5.24 C0.04 3.95, -0.05 2.61, 0 0" stroke="#000000" stroke-width="1" fill="none"></path></g><g stroke-linecap="round" transform="translate(60.79850797579758 98.03389713971401) rotate(0 4.9092409240924155 2.618261826182618)"><path d="M0 0 C0 0, 0 0, 0 0 M0 0 C0 0, 0 0, 0 0 M0.39 5.64 C2.1 3.97, 3.58 1.75, 4.99 0.36 M0.39 5.64 C2.02 3.98, 3.38 2.28, 4.99 0.36 M6.04 5.25 C7.29 3.7, 8.65 2.18, 9.97 0.72 M6.04 5.25 C7.08 3.97, 8.18 2.91, 9.97 0.72" stroke="#fa5252" stroke-width="0.5" fill="none"></path><path d="M0 0 C3.15 0.11, 6.25 0.26, 9.82 0 M0 0 C1.95 -0.06, 3.9 -0.09, 9.82 0 M9.82 0 C9.64 1.2, 9.68 2.57, 9.82 5.24 M9.82 0 C9.77 1.26, 9.8 2.55, 9.82 5.24 M9.82 5.24 C7.14 5.03, 4.48 5.01, 0 5.24 M9.82 5.24 C6.88 5.18, 3.88 5.14, 0 5.24 M0 5.24 C0.04 3.18, 0.07 1.15, 0 0 M0 5.24 C-0.01 3.71, -0.08 2.32, 0 0" stroke="#000000" stroke-width="1" fill="none"></path></g><g stroke-linecap="round" transform="translate(77.48992711771172 98.03389713971401) rotate(0 4.9092409240924155 2.618261826182618)"><path d="M0 0 C0 0, 0 0, 0 0 M0 0 C0 0, 0 0, 0 0 M0.39 5.64 C2.4 3.5, 3.85 1.62, 4.99 0.36 M0.39 5.64 C1.8 4.06, 3.16 2.62, 4.99 0.36 M6.04 5.25 C7.53 3.51, 9.05 1.58, 9.97 0.72 M6.04 5.25 C6.99 4.12, 8.15 2.93, 9.97 0.72" stroke="#fa5252" stroke-width="0.5" fill="none"></path><path d="M0 0 C2.53 0.19, 5.1 -0.32, 9.82 0 M0 0 C2.48 -0.14, 5 -0.09, 9.82 0 M9.82 0 C9.78 1.25, 9.93 2.67, 9.82 5.24 M9.82 0 C9.83 1.4, 9.86 2.82, 9.82 5.24 M9.82 5.24 C7.63 5.5, 5.63 5.26, 0 5.24 M9.82 5.24 C6.67 5.27, 3.55 5.38, 0 5.24 M0 5.24 C-0.06 3.9, -0.1 2.41, 0 0 M0 5.24 C-0.07 3.75, 0.02 2.4, 0 0" stroke="#000000" stroke-width="1" fill="none"></path></g><g stroke-linecap="round" transform="translate(60.573501100109866 60.84639713971404) rotate(0 4.9092409240924155 2.618261826182618)"><path d="M0 0 C0 0, 0 0, 0 0 M0 0 C0 0, 0 0, 0 0 M0.39 5.64 C1.72 3.89, 3.33 2.3, 4.99 0.36 M0.39 5.64 C1.31 4.61, 2.37 3.49, 4.99 0.36 M6.04 5.25 C7.09 3.99, 7.94 2.9, 9.97 0.72 M6.04 5.25 C7.08 4.18, 8.05 3, 9.97 0.72" stroke="#fa5252" stroke-width="0.5" fill="none"></path><path d="M0 0 C2.89 0.24, 5.08 -0.15, 9.82 0 M0 0 C2.94 -0.07, 6.08 -0.05, 9.82 0 M9.82 0 C9.67 1.47, 9.7 2.66, 9.82 5.24 M9.82 0 C9.79 1.66, 9.8 3.15, 9.82 5.24 M9.82 5.24 C6.84 4.98, 3.38 5.26, 0 5.24 M9.82 5.24 C6.66 5.12, 3.58 5.17, 0 5.24 M0 5.24 C0.06 3.67, -0.04 2.24, 0 0 M0 5.24 C-0.08 3.44, -0.03 1.51, 0 0" stroke="#000000" stroke-width="1" fill="none"></path></g><g stroke-linecap="round" transform="translate(77.26492024202429 60.84639713971404) rotate(0 4.9092409240924155 2.618261826182618)"><path d="M0 0 C0 0, 0 0, 0 0 M0 0 C0 0, 0 0, 0 0 M0.39 5.64 C1.8 3.98, 3.38 1.97, 4.99 0.36 M0.39 5.64 C2.28 3.62, 4.08 1.48, 4.99 0.36 M6.04 5.25 C7.07 3.85, 8.27 2.49, 9.97 0.72 M6.04 5.25 C7.27 3.94, 8.39 2.5, 9.97 0.72" stroke="#fa5252" stroke-width="0.5" fill="none"></path><path d="M0 0 C3.57 -0.33, 6.51 0.03, 9.82 0 M0 0 C2.37 -0.08, 4.86 -0.04, 9.82 0 M9.82 0 C9.93 0.96, 9.76 2.15, 9.82 5.24 M9.82 0 C9.86 1.27, 9.74 2.6, 9.82 5.24 M9.82 5.24 C6.31 5.27, 3.31 5.34, 0 5.24 M9.82 5.24 C6.5 5.37, 3.33 5.21, 0 5.24 M0 5.24 C-0.09 3.52, -0.05 1.95, 0 0 M0 5.24 C0.04 3.71, -0.07 2.25, 0 0" stroke="#000000" stroke-width="1" fill="none"></path></g><g stroke-linecap="round" transform="translate(60.34849422442244 48.450563806380615) rotate(0 4.9092409240924155 2.618261826182618)"><path d="M0 0 C0 0, 0 0, 0 0 M0 0 C0 0, 0 0, 0 0 M0.39 5.64 C2.31 3.51, 3.87 1.64, 4.99 0.36 M0.39 5.64 C2.09 3.84, 3.65 1.82, 4.99 0.36 M6.04 5.25 C7 3.99, 8 2.87, 9.97 0.72 M6.04 5.25 C6.93 4.27, 7.69 3.21, 9.97 0.72" stroke="#fa5252" stroke-width="0.5" fill="none"></path><path d="M0 0 C2.95 -0.16, 6.56 -0.19, 9.82 0 M0 0 C2.48 -0.04, 5.11 -0.14, 9.82 0 M9.82 0 C9.7 1.44, 9.82 2.88, 9.82 5.24 M9.82 0 C9.8 1.56, 9.84 3.33, 9.82 5.24 M9.82 5.24 C7.53 5.26, 5.3 5.3, 0 5.24 M9.82 5.24 C7.38 5.16, 4.66 5.25, 0 5.24 M0 5.24 C-0.04 3.8, 0.08 2.46, 0 0 M0 5.24 C-0.01 3.93, 0.02 2.85, 0 0" stroke="#000000" stroke-width="1" fill="none"></path></g><g stroke-linecap="round" transform="translate(77.03991336633658 48.450563806380615) rotate(0 4.9092409240924155 2.618261826182618)"><path d="M0 0 C0 0, 0 0, 0 0 M0 0 C0 0, 0 0, 0 0 M0.39 5.64 C1.55 4.08, 2.97 3.06, 4.99 0.36 M0.39 5.64 C1.67 4.23, 2.72 2.89, 4.99 0.36 M6.04 5.25 C7.27 3.66, 8.63 2.11, 9.97 0.72 M6.04 5.25 C7.41 3.6, 8.72 2.17, 9.97 0.72" stroke="#fa5252" stroke-width="0.5" fill="none"></path><path d="M0 0 C3.41 0.08, 6.93 -0.09, 9.82 0 M0 0 C1.97 -0.05, 3.9 0, 9.82 0 M9.82 0 C9.78 1.18, 9.74 2.36, 9.82 5.24 M9.82 0 C9.74 1.51, 9.86 2.91, 9.82 5.24 M9.82 5.24 C6.17 5.32, 2.53 5.11, 0 5.24 M9.82 5.24 C6.7 5.23, 3.73 5.2, 0 5.24 M0 5.24 C-0.05 3.56, -0.02 1.59, 0 0 M0 5.24 C-0.09 4.16, 0.06 3.1, 0 0" stroke="#000000" stroke-width="1" fill="none"></path></g><g stroke-linecap="round" transform="translate(61.69853547854797 135.22139713971399) rotate(0 4.9092409240924155 2.618261826182618)"><path d="M0 0 C0 0, 0 0, 0 0 M0 0 C0 0, 0 0, 0 0 M0.39 5.64 C1.38 4.48, 2.92 2.79, 4.99 0.36 M0.39 5.64 C2.14 3.54, 3.97 1.5, 4.99 0.36 M6.04 5.25 C6.88 4.17, 7.74 3.2, 9.97 0.72 M6.04 5.25 C7.39 3.57, 8.96 1.93, 9.97 0.72" stroke="#fa5252" stroke-width="0.5" fill="none"></path><path d="M0 0 C3.74 -0.15, 7.27 -0.29, 9.82 0 M0 0 C2.36 -0.15, 4.83 -0.11, 9.82 0 M9.82 0 C9.82 1.82, 9.83 3.8, 9.82 5.24 M9.82 0 C9.84 1.86, 9.76 3.73, 9.82 5.24 M9.82 5.24 C7.64 5.33, 5.19 5.28, 0 5.24 M9.82 5.24 C7.44 5.26, 5.06 5.29, 0 5.24 M0 5.24 C0.09 3.94, -0.11 2.53, 0 0 M0 5.24 C0.01 3.57, 0.01 1.7, 0 0" stroke="#000000" stroke-width="1" fill="none"></path></g><g stroke-linecap="round" transform="translate(78.38995462046205 135.22139713971399) rotate(0 4.9092409240924155 2.618261826182618)"><path d="M0 0 C0 0, 0 0, 0 0 M0 0 C0 0, 0 0, 0 0 M0.39 5.64 C2.12 4.05, 3.33 2.38, 4.99 0.36 M0.39 5.64 C1.87 3.89, 3.4 2.13, 4.99 0.36 M6.04 5.25 C7.08 3.89, 8.22 2.98, 9.97 0.72 M6.04 5.25 C7.28 3.84, 8.58 2.37, 9.97 0.72" stroke="#fa5252" stroke-width="0.5" fill="none"></path><path d="M0 0 C1.86 -0.12, 3.75 -0.18, 9.82 0 M0 0 C2.15 -0.01, 4.48 0.12, 9.82 0 M9.82 0 C9.72 1.28, 9.78 2.59, 9.82 5.24 M9.82 0 C9.83 1.43, 9.87 2.92, 9.82 5.24 M9.82 5.24 C6.93 5.12, 3.9 5.05, 0 5.24 M9.82 5.24 C6.12 5.17, 2.41 5.14, 0 5.24 M0 5.24 C-0.02 3.65, -0.16 2.34, 0 0 M0 5.24 C0.09 3.85, -0.05 2.46, 0 0" stroke="#000000" stroke-width="1" fill="none"></path></g><g stroke-linecap="round" transform="translate(61.02351485148506 110.42973047304733) rotate(0 4.9092409240924155 2.618261826182618)"><path d="M0 0 C0 0, 0 0, 0 0 M0 0 C0 0, 0 0, 0 0 M0.39 5.64 C1.87 4.01, 3.27 2.65, 4.99 0.36 M0.39 5.64 C2.19 3.58, 3.98 1.4, 4.99 0.36 M6.04 5.25 C6.91 4.16, 8.22 2.95, 9.97 0.72 M6.04 5.25 C7.39 3.77, 8.68 2.28, 9.97 0.72" stroke="#fa5252" stroke-width="0.5" fill="none"></path><path d="M0 0 C2.42 -0.29, 4.91 -0.2, 9.82 0 M0 0 C2.57 -0.09, 5.31 -0.07, 9.82 0 M9.82 0 C9.85 1.39, 9.91 2.81, 9.82 5.24 M9.82 0 C9.77 1.12, 9.76 2.11, 9.82 5.24 M9.82 5.24 C6.61 5.28, 3.45 5.51, 0 5.24 M9.82 5.24 C7.14 5.3, 4.49 5.21, 0 5.24 M0 5.24 C-0.12 3.67, 0.05 2.37, 0 0 M0 5.24 C0 4.1, 0 3.13, 0 0" stroke="#000000" stroke-width="1" fill="none"></path></g><g stroke-linecap="round" transform="translate(77.71493399339937 110.42973047304733) rotate(0 4.9092409240924155 2.618261826182618)"><path d="M0 0 C0 0, 0 0, 0 0 M0 0 C0 0, 0 0, 0 0 M0.39 5.64 C1.26 4.72, 2.4 3.6, 4.99 0.36 M0.39 5.64 C1.58 4.25, 2.66 2.95, 4.99 0.36 M6.04 5.25 C7.12 4.25, 8.07 3.03, 9.97 0.72 M6.04 5.25 C6.89 4.31, 7.72 3.4, 9.97 0.72" stroke="#fa5252" stroke-width="0.5" fill="none"></path><path d="M0 0 C2.79 -0.16, 5.97 -0.1, 9.82 0 M0 0 C2.41 0.11, 4.98 -0.04, 9.82 0 M9.82 0 C9.78 1.7, 9.78 3.06, 9.82 5.24 M9.82 0 C9.89 1.66, 9.83 3.45, 9.82 5.24 M9.82 5.24 C6.67 5.02, 3.72 5.11, 0 5.24 M9.82 5.24 C7.12 5.13, 4.27 5.17, 0 5.24 M0 5.24 C-0.16 3.47, -0.06 1.43, 0 0 M0 5.24 C-0.08 3.66, 0.02 2.09, 0 0" stroke="#000000" stroke-width="1" fill="none"></path></g><g stroke-linecap="round" transform="translate(61.923542354235394 122.82556380638063) rotate(0 4.9092409240924155 2.618261826182618)"><path d="M0 0 C0 0, 0 0, 0 0 M0 0 C0 0, 0 0, 0 0 M0.39 5.64 C2.39 3.65, 4.19 1.42, 4.99 0.36 M0.39 5.64 C1.67 4.05, 3.05 2.48, 4.99 0.36 M6.04 5.25 C7.34 3.96, 8.42 2.41, 9.97 0.72 M6.04 5.25 C7.18 3.98, 8.35 2.73, 9.97 0.72" stroke="#fa5252" stroke-width="0.5" fill="none"></path><path d="M0 0 C2.28 -0.18, 4.8 -0.1, 9.82 0 M0 0 C2.11 -0.07, 3.95 0.04, 9.82 0 M9.82 0 C9.91 1.26, 9.65 2.62, 9.82 5.24 M9.82 0 C9.75 1.75, 9.82 3.52, 9.82 5.24 M9.82 5.24 C6.4 5.5, 3.28 5.18, 0 5.24 M9.82 5.24 C6.56 5.22, 3.45 5.33, 0 5.24 M0 5.24 C0.07 3.68, -0.15 2.25, 0 0 M0 5.24 C0 3.28, -0.01 1.2, 0 0" stroke="#000000" stroke-width="1" fill="none"></path></g><g stroke-linecap="round" transform="translate(78.61496149614948 122.82556380638063) rotate(0 4.9092409240924155 2.618261826182618)"><path d="M0 0 C0 0, 0 0, 0 0 M0 0 C0 0, 0 0, 0 0 M0.39 5.64 C2.12 3.95, 3.59 1.81, 4.99 0.36 M0.39 5.64 C1.55 4.22, 2.74 2.88, 4.99 0.36 M6.04 5.25 C6.95 4.3, 7.6 3.2, 9.97 0.72 M6.04 5.25 C7.38 3.8, 8.75 2.12, 9.97 0.72" stroke="#fa5252" stroke-width="0.5" fill="none"></path><path d="M0 0 C2.37 -0.1, 5.04 -0.3, 9.82 0 M0 0 C2.69 -0.07, 5.59 -0.11, 9.82 0 M9.82 0 C9.79 1.48, 9.86 3.36, 9.82 5.24 M9.82 0 C9.83 1.24, 9.85 2.48, 9.82 5.24 M9.82 5.24 C7.52 5.11, 4.63 5.29, 0 5.24 M9.82 5.24 C7.21 5.17, 4.73 5.19, 0 5.24 M0 5.24 C-0.04 3.84, 0.02 2.92, 0 0 M0 5.24 C0.05 3.64, -0.04 2.11, 0 0" stroke="#000000" stroke-width="1" fill="none"></path></g><g stroke-linecap="round" transform="translate(149.16516125296738 134.6676509756246) rotate(0 1.6217213826645818 3.2925858375311243)"><path d="M0.4 -0.07 L3.91 0.54 L2.96 6.23 L0.21 6.21" stroke="none" stroke-width="0" fill="#fa5252"></path><path d="M0 0 C1.09 -0.05, 2.22 0.08, 3.24 0 M0 0 C1.16 0.02, 2.39 0.04, 3.24 0 M3.24 0 C3.12 2.43, 3.15 4.77, 3.24 6.59 M3.24 0 C3.3 2.07, 3.27 3.97, 3.24 6.59 M3.24 6.59 C2.39 6.66, 1.62 6.6, 0 6.59 M3.24 6.59 C2.01 6.54, 0.88 6.54, 0 6.59 M0 6.59 C0.11 3.95, -0.16 1.56, 0 0 M0 6.59 C-0.08 4.3, -0.02 1.98, 0 0" stroke="#000000" stroke-width="1" fill="none"></path></g><g stroke-linecap="round" transform="translate(129.21307393897249 132.11221122112215) rotate(0 13.02291413351864 11.646908111863837)"><path d="M13.6 0.25 L26.23 11.37 L14.19 22.65 L-0.04 12.94" stroke="none" stroke-width="0" fill="#fa5252" fill-rule="evenodd"></path><path d="M14 0 C18.67 5.15, 23.09 7.99, 26.05 12 M14 0 C17.89 3.49, 21.2 7.53, 26.05 12 M26.05 12 C22.4 14.43, 20.48 17.42, 14 23.29 M26.05 12 C23.66 14.26, 20.24 17.05, 14 23.29 M14 23.29 C9.45 19.21, 5.33 17.11, 0 12 M14 23.29 C10.01 19.82, 5.9 16.49, 0 12 M0 12 C6.05 7.33, 11.03 3.13, 14 0 M0 12 C4.46 8.23, 9.49 4.29, 14 0" stroke="#000000" stroke-width="1" fill="none"></path></g><g stroke-linecap="round" transform="translate(129.01650165016503 143.61169011637972) rotate(0 13.170343350124497 10.025186729199245)"><path d="M0.29 -0.23 L25.67 0.68 L27.05 20.5 L0.55 20.82" stroke="none" stroke-width="0" fill="#ced4da"></path><path d="M0 0 C7.75 0.91, 17.38 0.51, 26.34 0 M0 0 C8.67 -0.29, 16.21 -0.39, 26.34 0 M26.34 0 C26.35 6.87, 25.5 12.87, 26.34 20.05 M26.34 0 C26.41 6.3, 26.7 12.17, 26.34 20.05 M26.34 20.05 C19.34 19.96, 12.05 20.86, 0 20.05 M26.34 20.05 C15.46 20.49, 5.42 20.19, 0 20.05 M0 20.05 C-0.98 14.17, 0.19 7.95, 0 0 M0 20.05 C-0.09 13.75, 0.41 7.78, 0 0" stroke="#000000" stroke-width="1" fill="none"></path></g><g stroke-linecap="round" transform="translate(133.43937814833998 155.79917202246548) rotate(0 3.1942996931272134 4.029731920560483)"><path d="M0 0 C0 0, 0 0, 0 0 M0 0 C0 0, 0 0, 0 0 M-0.26 6.4 C0.78 5.23, 1.95 3.59, 4.99 0.36 M-0.26 6.4 C0.77 5.25, 1.78 3.98, 4.99 0.36 M3.41 8.27 C4.51 7.21, 5.43 6.1, 6.69 4.49 M3.41 8.27 C4.56 7.01, 5.48 5.78, 6.69 4.49" stroke="#228be6" stroke-width="0.5" fill="none"></path><path d="M0 0 C1.67 0.06, 3.47 0.09, 6.39 0 M0 0 C2.18 0.1, 4.47 -0.08, 6.39 0 M6.39 0 C6.65 3.28, 6.28 6.03, 6.39 8.06 M6.39 0 C6.34 2.77, 6.46 5.25, 6.39 8.06 M6.39 8.06 C3.99 7.89, 1.34 8.18, 0 8.06 M6.39 8.06 C4.42 8.17, 2.6 7.98, 0 8.06 M0 8.06 C-0.21 6.63, 0.15 4.68, 0 0 M0 8.06 C-0.03 5.57, 0.14 3.13, 0 0" stroke="#000000" stroke-width="1" fill="none"></path></g><g stroke-linecap="round" transform="translate(143.8577094551554 148.13285275896027) rotate(0 5.012593364599624 4.2754472815702655)"><path d="M0 0 C0 0, 0 0, 0 0 M0 0 C0 0, 0 0, 0 0 M-0.26 6.4 C0.49 4.74, 2.15 3.54, 4.99 0.36 M-0.26 6.4 C0.89 4.72, 2.35 3.17, 4.99 0.36 M2.76 9.02 C4.93 5.57, 8.22 2.69, 10.63 -0.03 M2.76 9.02 C5.39 6.23, 8.37 3.19, 10.63 -0.03 M8.4 8.63 C9.27 7.73, 9.99 6.94, 10.37 6.36 M8.4 8.63 C8.86 8.02, 9.35 7.52, 10.37 6.36" stroke="#228be6" stroke-width="0.5" fill="none"></path><path d="M0 0 C2.54 -0.22, 6.31 -0.28, 10.03 0 M0 0 C2.29 -0.2, 5.29 0.11, 10.03 0 M10.03 0 C10.4 2.05, 9.57 4.29, 10.03 8.55 M10.03 0 C9.98 2.12, 9.89 4.57, 10.03 8.55 M10.03 8.55 C7.7 8.71, 5.11 8.05, 0 8.55 M10.03 8.55 C6.36 8.81, 2.02 8.62, 0 8.55 M0 8.55 C-0.18 6.77, 0.13 4.17, 0 0 M0 8.55 C-0.15 6.8, -0.05 4.86, 0 0" stroke="#000000" stroke-width="1" fill="none"></path></g><g stroke-linecap="round"><g transform="translate(144.92965777184787 153.23475993434204) rotate(0 5.061736436801581 -0.04914307220195724)"><path d="M0.04 -0.5 C1.67 -0.46, 8.74 0.27, 10.37 0.36 M-0.61 0.43 C0.93 0.31, 8.14 -0.41, 10.06 -0.38" stroke="#000000" stroke-width="1" fill="none"></path></g></g><mask></mask><g stroke-linecap="round"><g transform="translate(149.32826409281935 147.84113818731737) rotate(0 -0.04914307220195724 4.2754472815702655)"><path d="M-0.1 0.3 C-0.02 1.83, 0.12 7.5, 0.17 8.89 M0.5 0.14 C0.58 1.61, 0.1 6.96, 0.03 8.44" stroke="#000000" stroke-width="1" fill="none"></path></g></g><mask></mask><g stroke-linecap="round" transform="translate(84.50605060506047 38.182068206820645) rotate(0 18.982398239823993 59.238173817381764)"><path d="M-1.15 -0.92 L37.65 -0.44 L38.12 119.03 L0.54 116.97" stroke="none" stroke-width="0" fill="#868e96"></path><path d="M0 0 C13.08 -0.55, 27.83 1.17, 37.96 0 M0 0 C13.77 -0.52, 27.76 -0.64, 37.96 0 M37.96 0 C38.86 28.48, 38 57.54, 37.96 118.48 M37.96 0 C37.42 25.39, 37.46 50.54, 37.96 118.48 M37.96 118.48 C23.26 117.01, 7.1 118.74, 0 118.48 M37.96 118.48 C23.64 119.4, 10.58 117.74, 0 118.48 M0 118.48 C0.39 73.33, 1.48 26.31, 0 0 M0 118.48 C-0.35 85.85, -0.31 52.34, 0 0" stroke="#000000" stroke-width="1" fill="none"></path></g><g stroke-linecap="round" transform="translate(89.74257425742576 44.40044004400437) rotate(0 4.9092409240924155 2.618261826182618)"><path d="M0 0 C0 0, 0 0, 0 0 M0 0 C0 0, 0 0, 0 0 M0.39 5.64 C1.62 4.14, 2.64 2.62, 4.99 0.36 M0.39 5.64 C1.98 4.07, 3.33 2.24, 4.99 0.36 M6.04 5.25 C7.26 3.5, 8.81 2, 9.97 0.72 M6.04 5.25 C7.37 3.73, 8.89 2.03, 9.97 0.72" stroke="#fa5252" stroke-width="0.5" fill="none"></path><path d="M0 0 C2.45 0.28, 5.3 0.18, 9.82 0 M0 0 C2.31 0.12, 4.7 -0.1, 9.82 0 M9.82 0 C9.76 1.63, 9.76 3.13, 9.82 5.24 M9.82 0 C9.81 1.14, 9.77 2.27, 9.82 5.24 M9.82 5.24 C7.11 5.15, 4.89 5.45, 0 5.24 M9.82 5.24 C7.4 5.25, 4.61 5.37, 0 5.24 M0 5.24 C0.11 3.82, 0.04 2.13, 0 0 M0 5.24 C0.05 3.83, 0.03 2.52, 0 0" stroke="#000000" stroke-width="1" fill="none"></path></g><g stroke-linecap="round" transform="translate(106.43399339934001 44.40044004400437) rotate(0 4.9092409240924155 2.618261826182618)"><path d="M0 0 C0 0, 0 0, 0 0 M0 0 C0 0, 0 0, 0 0 M0.39 5.64 C1.4 4.17, 2.39 3.16, 4.99 0.36 M0.39 5.64 C1.67 4.29, 2.68 3.03, 4.99 0.36 M6.04 5.25 C7.43 3.48, 9.08 1.87, 9.97 0.72 M6.04 5.25 C7.21 4.05, 8.21 2.82, 9.97 0.72" stroke="#fa5252" stroke-width="0.5" fill="none"></path><path d="M0 0 C2.73 0.17, 5.08 -0.17, 9.82 0 M0 0 C2.85 -0.1, 5.36 0.04, 9.82 0 M9.82 0 C9.81 1.08, 9.68 2.09, 9.82 5.24 M9.82 0 C9.88 1.82, 9.91 3.71, 9.82 5.24 M9.82 5.24 C7.29 5.29, 5.16 5.07, 0 5.24 M9.82 5.24 C6.21 5.09, 2.69 5.25, 0 5.24 M0 5.24 C0.12 4.01, -0.04 2.65, 0 0 M0 5.24 C-0.06 3.31, -0.03 1.27, 0 0" stroke="#000000" stroke-width="1" fill="none"></path></g><g stroke-linecap="round" transform="translate(90.86760863586369 81.5879400440044) rotate(0 4.9092409240924155 2.618261826182618)"><path d="M0 0 C0 0, 0 0, 0 0 M0 0 C0 0, 0 0, 0 0 M0.39 5.64 C1.38 4.06, 2.82 2.8, 4.99 0.36 M0.39 5.64 C1.7 4.07, 3.1 2.68, 4.99 0.36 M6.04 5.25 C7.17 3.92, 8.47 2.55, 9.97 0.72 M6.04 5.25 C7.22 3.95, 8.36 2.71, 9.97 0.72" stroke="#fa5252" stroke-width="0.5" fill="none"></path><path d="M0 0 C3.12 0.15, 5.74 -0.1, 9.82 0 M0 0 C3.1 -0.12, 6.46 -0.17, 9.82 0 M9.82 0 C9.77 1.62, 9.65 3.63, 9.82 5.24 M9.82 0 C9.76 1.94, 9.78 3.65, 9.82 5.24 M9.82 5.24 C6.73 5.43, 3.35 5.46, 0 5.24 M9.82 5.24 C7.25 5.39, 5 5.14, 0 5.24 M0 5.24 C0.02 3.55, -0.09 2.06, 0 0 M0 5.24 C0.03 4.08, -0.05 3.02, 0 0" stroke="#000000" stroke-width="1" fill="none"></path></g><g stroke-linecap="round" transform="translate(107.55902777777783 81.5879400440044) rotate(0 4.9092409240924155 2.618261826182618)"><path d="M0 0 C0 0, 0 0, 0 0 M0 0 C0 0, 0 0, 0 0 M0.39 5.64 C1.55 4.13, 3.01 2.5, 4.99 0.36 M0.39 5.64 C2.16 3.62, 4.12 1.45, 4.99 0.36 M6.04 5.25 C6.89 4.39, 7.69 3.28, 9.97 0.72 M6.04 5.25 C6.91 4.29, 7.86 3.32, 9.97 0.72" stroke="#fa5252" stroke-width="0.5" fill="none"></path><path d="M0 0 C2.76 -0.2, 5.09 0.08, 9.82 0 M0 0 C2.26 0.05, 4.56 0.08, 9.82 0 M9.82 0 C9.67 1.28, 9.92 2.96, 9.82 5.24 M9.82 0 C9.91 1.43, 9.78 2.95, 9.82 5.24 M9.82 5.24 C7.7 5.1, 5.4 5.06, 0 5.24 M9.82 5.24 C6.38 5.19, 2.55 5.23, 0 5.24 M0 5.24 C-0.05 3.29, 0.12 1.35, 0 0 M0 5.24 C-0.04 3.27, 0 1.37, 0 0" stroke="#000000" stroke-width="1" fill="none"></path></g><g stroke-linecap="round" transform="translate(91.09261551155117 93.98377337733771) rotate(0 4.9092409240924155 2.618261826182618)"><path d="M0 0 C0 0, 0 0, 0 0 M0 0 C0 0, 0 0, 0 0 M0.39 5.64 C1.63 4.19, 2.74 3.18, 4.99 0.36 M0.39 5.64 C2.27 3.67, 4 1.4, 4.99 0.36 M6.04 5.25 C7.07 4.14, 7.85 2.98, 9.97 0.72 M6.04 5.25 C7.63 3.55, 9.22 1.68, 9.97 0.72" stroke="#fa5252" stroke-width="0.5" fill="none"></path><path d="M0 0 C3.62 -0.09, 7.68 -0.22, 9.82 0 M0 0 C3.73 -0.12, 7.48 -0.02, 9.82 0 M9.82 0 C9.66 1.64, 9.91 3.05, 9.82 5.24 M9.82 0 C9.77 1.83, 9.83 3.69, 9.82 5.24 M9.82 5.24 C7.01 5.49, 4.31 5.47, 0 5.24 M9.82 5.24 C6.7 5.17, 3.63 5.36, 0 5.24 M0 5.24 C-0.08 3.43, -0.16 1.48, 0 0 M0 5.24 C-0.05 4.1, -0.03 3, 0 0" stroke="#000000" stroke-width="1" fill="none"></path></g><g stroke-linecap="round" transform="translate(107.78403465346531 93.98377337733771) rotate(0 4.9092409240924155 2.618261826182618)"><path d="M0 0 C0 0, 0 0, 0 0 M0 0 C0 0, 0 0, 0 0 M0.39 5.64 C1.27 4.5, 2.57 3.63, 4.99 0.36 M0.39 5.64 C1.87 4.05, 3.04 2.4, 4.99 0.36 M6.04 5.25 C7.11 3.93, 8.12 2.85, 9.97 0.72 M6.04 5.25 C7.45 3.81, 8.68 2.3, 9.97 0.72" stroke="#fa5252" stroke-width="0.5" fill="none"></path><path d="M0 0 C3.35 0.11, 6.65 0.27, 9.82 0 M0 0 C2.09 0.06, 4.42 -0.01, 9.82 0 M9.82 0 C9.9 1.54, 9.77 3, 9.82 5.24 M9.82 0 C9.79 1.26, 9.78 2.45, 9.82 5.24 M9.82 5.24 C6.88 5.04, 3.68 5.28, 0 5.24 M9.82 5.24 C7.76 5.26, 5.98 5.35, 0 5.24 M0 5.24 C0.13 3.41, 0.12 1.76, 0 0 M0 5.24 C0 3.41, 0.02 1.64, 0 0" stroke="#000000" stroke-width="1" fill="none"></path></g><g stroke-linecap="round" transform="translate(90.4175948844885 106.37960671067103) rotate(0 4.9092409240924155 2.618261826182618)"><path d="M0 0 C0 0, 0 0, 0 0 M0 0 C0 0, 0 0, 0 0 M0.39 5.64 C1.32 4.78, 2.52 3.45, 4.99 0.36 M0.39 5.64 C1.61 4.11, 2.78 2.77, 4.99 0.36 M6.04 5.25 C7.17 3.76, 8.54 2.65, 9.97 0.72 M6.04 5.25 C7.36 3.81, 8.62 2.35, 9.97 0.72" stroke="#fa5252" stroke-width="0.5" fill="none"></path><path d="M0 0 C3.58 -0.19, 7.23 -0.23, 9.82 0 M0 0 C2.46 -0.01, 4.8 -0.01, 9.82 0 M9.82 0 C9.9 1.1, 9.9 2.15, 9.82 5.24 M9.82 0 C9.83 2.03, 9.79 4.2, 9.82 5.24 M9.82 5.24 C6.07 5.47, 2.75 4.93, 0 5.24 M9.82 5.24 C6.01 5.31, 2.27 5.25, 0 5.24 M0 5.24 C-0.15 3.88, -0.14 2.37, 0 0 M0 5.24 C-0.01 3.97, 0.03 2.72, 0 0" stroke="#000000" stroke-width="1" fill="none"></path></g><g stroke-linecap="round" transform="translate(107.10901402640258 106.37960671067103) rotate(0 4.9092409240924155 2.618261826182618)"><path d="M0 0 C0 0, 0 0, 0 0 M0 0 C0 0, 0 0, 0 0 M0.39 5.64 C2.09 4.18, 3.32 2.21, 4.99 0.36 M0.39 5.64 C1.92 3.68, 3.64 1.86, 4.99 0.36 M6.04 5.25 C7.29 3.82, 8.93 2.05, 9.97 0.72 M6.04 5.25 C7.38 3.78, 8.71 2.22, 9.97 0.72" stroke="#fa5252" stroke-width="0.5" fill="none"></path><path d="M0 0 C2.21 0.25, 4.58 -0.19, 9.82 0 M0 0 C3.03 -0.02, 6.11 -0.15, 9.82 0 M9.82 0 C9.79 1.19, 9.72 2.36, 9.82 5.24 M9.82 0 C9.75 1.31, 9.83 2.72, 9.82 5.24 M9.82 5.24 C7.51 5.27, 4.45 5.51, 0 5.24 M9.82 5.24 C7.03 5.36, 4.08 5.21, 0 5.24 M0 5.24 C0.1 3.76, 0.07 2.47, 0 0 M0 5.24 C0.01 3.93, 0.03 2.51, 0 0" stroke="#000000" stroke-width="1" fill="none"></path></g><g stroke-linecap="round" transform="translate(90.19258800880073 69.19210671067111) rotate(0 4.9092409240924155 2.618261826182618)"><path d="M0 0 C0 0, 0 0, 0 0 M0 0 C0 0, 0 0, 0 0 M0.39 5.64 C1.77 4.29, 2.64 3.09, 4.99 0.36 M0.39 5.64 C2.09 3.59, 3.94 1.63, 4.99 0.36 M6.04 5.25 C7.31 4.09, 8.23 2.87, 9.97 0.72 M6.04 5.25 C7.65 3.46, 9.19 1.73, 9.97 0.72" stroke="#fa5252" stroke-width="0.5" fill="none"></path><path d="M0 0 C2.98 -0.22, 5.27 0.06, 9.82 0 M0 0 C2.1 -0.03, 4.08 -0.14, 9.82 0 M9.82 0 C9.93 1.76, 10 3.67, 9.82 5.24 M9.82 0 C9.8 1.32, 9.88 2.56, 9.82 5.24 M9.82 5.24 C6.23 4.93, 2.84 5.24, 0 5.24 M9.82 5.24 C7.58 5.28, 5.08 5.18, 0 5.24 M0 5.24 C-0.13 3.35, -0.08 1.23, 0 0 M0 5.24 C0.03 3.77, -0.06 2.32, 0 0" stroke="#000000" stroke-width="1" fill="none"></path></g><g stroke-linecap="round" transform="translate(106.88400715071515 69.19210671067111) rotate(0 4.9092409240924155 2.618261826182618)"><path d="M0 0 C0 0, 0 0, 0 0 M0 0 C0 0, 0 0, 0 0 M0.39 5.64 C1.7 4.03, 3.16 2.78, 4.99 0.36 M0.39 5.64 C1.74 4.1, 3.17 2.52, 4.99 0.36 M6.04 5.25 C7.26 3.96, 8.41 2.8, 9.97 0.72 M6.04 5.25 C7.53 3.59, 9.07 1.72, 9.97 0.72" stroke="#fa5252" stroke-width="0.5" fill="none"></path><path d="M0 0 C2.98 -0.21, 6.48 -0.3, 9.82 0 M0 0 C3.27 -0.14, 6.47 0.1, 9.82 0 M9.82 0 C9.7 2.02, 9.74 3.61, 9.82 5.24 M9.82 0 C9.83 1.74, 9.77 3.44, 9.82 5.24 M9.82 5.24 C7.09 5.54, 4.99 5.04, 0 5.24 M9.82 5.24 C6.75 5.23, 3.54 5.38, 0 5.24 M0 5.24 C0.07 4.03, -0.09 3.01, 0 0 M0 5.24 C0.02 3.72, 0.06 2.4, 0 0" stroke="#000000" stroke-width="1" fill="none"></path></g><g stroke-linecap="round" transform="translate(89.96758113311324 56.796273377337684) rotate(0 4.9092409240924155 2.618261826182618)"><path d="M0 0 C0 0, 0 0, 0 0 M0 0 C0 0, 0 0, 0 0 M0.39 5.64 C2.12 3.68, 4.22 1.44, 4.99 0.36 M0.39 5.64 C1.39 4.58, 2.35 3.36, 4.99 0.36 M6.04 5.25 C6.93 4.33, 7.94 3.41, 9.97 0.72 M6.04 5.25 C7.32 3.88, 8.39 2.54, 9.97 0.72" stroke="#fa5252" stroke-width="0.5" fill="none"></path><path d="M0 0 C2.17 0.07, 4.42 0.15, 9.82 0 M0 0 C2.56 -0.14, 5.48 0.09, 9.82 0 M9.82 0 C10 1.39, 9.74 2.97, 9.82 5.24 M9.82 0 C9.87 1.2, 9.87 2.43, 9.82 5.24 M9.82 5.24 C6.53 5.18, 2.45 5.26, 0 5.24 M9.82 5.24 C6.29 5.17, 2.95 5.1, 0 5.24 M0 5.24 C-0.09 3.23, -0.01 1.35, 0 0 M0 5.24 C-0.07 3.68, 0.07 2.04, 0 0" stroke="#000000" stroke-width="1" fill="none"></path></g><g stroke-linecap="round" transform="translate(106.65900027502744 56.796273377337684) rotate(0 4.9092409240924155 2.618261826182618)"><path d="M0 0 C0 0, 0 0, 0 0 M0 0 C0 0, 0 0, 0 0 M0.39 5.64 C2.33 3.77, 3.99 1.3, 4.99 0.36 M0.39 5.64 C1.54 4.38, 2.53 3.09, 4.99 0.36 M6.04 5.25 C7.67 3.64, 9.3 1.69, 9.97 0.72 M6.04 5.25 C7.6 3.41, 9.2 1.6, 9.97 0.72" stroke="#fa5252" stroke-width="0.5" fill="none"></path><path d="M0 0 C3.75 -0.26, 7.54 -0.07, 9.82 0 M0 0 C2.74 0.12, 5.86 0, 9.82 0 M9.82 0 C9.73 1.78, 9.85 3.64, 9.82 5.24 M9.82 0 C9.78 1.48, 9.77 2.9, 9.82 5.24 M9.82 5.24 C6.69 5.07, 3.66 5.45, 0 5.24 M9.82 5.24 C6.11 5.35, 2.4 5.34, 0 5.24 M0 5.24 C-0.09 4.09, -0.05 3, 0 0 M0 5.24 C0.05 3.59, 0.02 1.89, 0 0" stroke="#000000" stroke-width="1" fill="none"></path></g><g stroke-linecap="round" transform="translate(91.31762238723871 143.56710671067108) rotate(0 4.9092409240924155 2.618261826182618)"><path d="M0 0 C0 0, 0 0, 0 0 M0 0 C0 0, 0 0, 0 0 M0.39 5.64 C1.97 4.04, 2.94 2.33, 4.99 0.36 M0.39 5.64 C1.67 4.12, 2.92 2.73, 4.99 0.36 M6.04 5.25 C7.54 3.89, 8.69 2.39, 9.97 0.72 M6.04 5.25 C7.08 4.05, 8.15 2.83, 9.97 0.72" stroke="#fa5252" stroke-width="0.5" fill="none"></path><path d="M0 0 C1.95 0.12, 4.38 -0.02, 9.82 0 M0 0 C2.81 0.12, 5.41 0.12, 9.82 0 M9.82 0 C9.74 1.28, 9.73 2.43, 9.82 5.24 M9.82 0 C9.89 1.64, 9.89 3.4, 9.82 5.24 M9.82 5.24 C7.66 5.29, 6.07 5.46, 0 5.24 M9.82 5.24 C6.82 5.07, 3.68 5.08, 0 5.24 M0 5.24 C-0.02 3.39, 0.02 1.66, 0 0 M0 5.24 C0.09 3.55, 0.1 1.85, 0 0" stroke="#000000" stroke-width="1" fill="none"></path></g><g stroke-linecap="round" transform="translate(108.00904152915297 143.56710671067108) rotate(0 4.9092409240924155 2.618261826182618)"><path d="M0 0 C0 0, 0 0, 0 0 M0 0 C0 0, 0 0, 0 0 M0.39 5.64 C1.6 4.01, 2.7 2.75, 4.99 0.36 M0.39 5.64 C1.73 3.99, 3.21 2.57, 4.99 0.36 M6.04 5.25 C7.45 3.81, 8.71 2.32, 9.97 0.72 M6.04 5.25 C7.64 3.42, 9.23 1.69, 9.97 0.72" stroke="#fa5252" stroke-width="0.5" fill="none"></path><path d="M0 0 C2.52 -0.06, 4.79 -0.05, 9.82 0 M0 0 C2.21 -0.05, 4.34 -0.12, 9.82 0 M9.82 0 C9.85 1.98, 9.76 4.22, 9.82 5.24 M9.82 0 C9.76 1.96, 9.83 3.71, 9.82 5.24 M9.82 5.24 C6.04 5.4, 2.38 5.28, 0 5.24 M9.82 5.24 C6.91 5.37, 4.16 5.34, 0 5.24 M0 5.24 C-0.03 3.98, 0.06 2.74, 0 0 M0 5.24 C0.01 4.14, 0.03 2.9, 0 0" stroke="#000000" stroke-width="1" fill="none"></path></g><g stroke-linecap="round" transform="translate(90.64260176017598 118.7754400440044) rotate(0 4.9092409240924155 2.618261826182618)"><path d="M0 0 C0 0, 0 0, 0 0 M0 0 C0 0, 0 0, 0 0 M0.39 5.64 C1.82 3.6, 3.63 1.86, 4.99 0.36 M0.39 5.64 C1.95 3.87, 3.72 1.89, 4.99 0.36 M6.04 5.25 C7.39 3.87, 8.68 2.31, 9.97 0.72 M6.04 5.25 C7.2 3.94, 8.46 2.54, 9.97 0.72" stroke="#fa5252" stroke-width="0.5" fill="none"></path><path d="M0 0 C2.99 -0.03, 6.07 -0.29, 9.82 0 M0 0 C2.02 0.08, 4 0.14, 9.82 0 M9.82 0 C9.7 1.28, 9.85 2.78, 9.82 5.24 M9.82 0 C9.89 1.36, 9.74 2.77, 9.82 5.24 M9.82 5.24 C7.12 5.47, 4.11 5.18, 0 5.24 M9.82 5.24 C7.43 5.07, 4.9 5.11, 0 5.24 M0 5.24 C0.02 3.95, 0.05 2.44, 0 0 M0 5.24 C0.07 3.36, 0.01 1.38, 0 0" stroke="#000000" stroke-width="1" fill="none"></path></g><g stroke-linecap="round" transform="translate(107.33402090209029 118.7754400440044) rotate(0 4.9092409240924155 2.618261826182618)"><path d="M0 0 C0 0, 0 0, 0 0 M0 0 C0 0, 0 0, 0 0 M0.39 5.64 C2.02 3.58, 3.94 1.7, 4.99 0.36 M0.39 5.64 C1.76 4.25, 2.93 2.81, 4.99 0.36 M6.04 5.25 C7.75 3.44, 9.28 1.73, 9.97 0.72 M6.04 5.25 C7.16 4.06, 8.2 2.79, 9.97 0.72" stroke="#fa5252" stroke-width="0.5" fill="none"></path><path d="M0 0 C2.09 -0.07, 3.94 -0.29, 9.82 0 M0 0 C3.61 -0.1, 7.18 -0.07, 9.82 0 M9.82 0 C9.77 1.34, 9.93 2.52, 9.82 5.24 M9.82 0 C9.82 1.85, 9.89 3.87, 9.82 5.24 M9.82 5.24 C7.7 5.31, 5.05 5.1, 0 5.24 M9.82 5.24 C6 5.33, 2.36 5.18, 0 5.24 M0 5.24 C0.05 3.8, -0.13 2.38, 0 0 M0 5.24 C0.04 3.25, -0.03 1.19, 0 0" stroke="#000000" stroke-width="1" fill="none"></path></g><g stroke-linecap="round" transform="translate(91.5426292629262 131.1712733773378) rotate(0 4.9092409240924155 2.618261826182618)"><path d="M0 0 C0 0, 0 0, 0 0 M0 0 C0 0, 0 0, 0 0 M0.39 5.64 C1.72 4.09, 3.24 2.49, 4.99 0.36 M0.39 5.64 C1.77 4.12, 3.11 2.69, 4.99 0.36 M6.04 5.25 C7.5 3.68, 9.08 1.68, 9.97 0.72 M6.04 5.25 C7.44 3.72, 8.76 2.08, 9.97 0.72" stroke="#fa5252" stroke-width="0.5" fill="none"></path><path d="M0 0 C3.24 -0.27, 6.32 0.19, 9.82 0 M0 0 C3.36 0.14, 6.86 -0.1, 9.82 0 M9.82 0 C9.85 1.8, 9.73 3.5, 9.82 5.24 M9.82 0 C9.74 1.36, 9.82 2.51, 9.82 5.24 M9.82 5.24 C6.78 5.2, 3.47 5.51, 0 5.24 M9.82 5.24 C7.83 5.11, 5.61 5.18, 0 5.24 M0 5.24 C0.05 3.65, 0.11 2.47, 0 0 M0 5.24 C0 3.51, -0.05 1.78, 0 0" stroke="#000000" stroke-width="1" fill="none"></path></g><g stroke-linecap="round" transform="translate(108.23404840484045 131.1712733773378) rotate(0 4.9092409240924155 2.618261826182618)"><path d="M0 0 C0 0, 0 0, 0 0 M0 0 C0 0, 0 0, 0 0 M0.39 5.64 C1.38 4.64, 2.32 3.35, 4.99 0.36 M0.39 5.64 C1.41 4.52, 2.51 3.4, 4.99 0.36 M6.04 5.25 C7.41 3.88, 8.35 2.6, 9.97 0.72 M6.04 5.25 C7.07 4.07, 7.98 2.96, 9.97 0.72" stroke="#fa5252" stroke-width="0.5" fill="none"></path><path d="M0 0 C2.42 -0.29, 5.57 0.18, 9.82 0 M0 0 C2.91 -0.05, 5.42 0.06, 9.82 0 M9.82 0 C9.92 1.16, 9.94 2.38, 9.82 5.24 M9.82 0 C9.9 1.91, 9.77 3.84, 9.82 5.24 M9.82 5.24 C6.26 5.09, 3.07 4.95, 0 5.24 M9.82 5.24 C6.12 5.18, 2.58 5.22, 0 5.24 M0 5.24 C-0.14 3.74, 0.14 2.06, 0 0 M0 5.24 C-0.03 3.12, -0.06 1.03, 0 0" stroke="#000000" stroke-width="1" fill="none"></path></g><g stroke-linecap="round" transform="translate(62.68348676972977 134.83129233976103) rotate(0 1.6217213826645889 3.2925858375311243)"><path d="M-0.06 -0.35 L2.77 -0.53 L2.85 6.35 L0.12 7.15" stroke="none" stroke-width="0" fill="#fa5252"></path><path d="M0 0 C0.61 -0.05, 1.41 -0.07, 3.24 0 M0 0 C0.79 0.05, 1.52 0.02, 3.24 0 M3.24 0 C3.34 1.98, 3.1 4.21, 3.24 6.59 M3.24 0 C3.15 1.58, 3.31 3.06, 3.24 6.59 M3.24 6.59 C2.48 6.54, 1.76 6.68, 0 6.59 M3.24 6.59 C2.31 6.55, 1.41 6.61, 0 6.59 M0 6.59 C-0.05 4.8, 0.09 3.25, 0 0 M0 6.59 C-0.08 4.23, 0.06 1.79, 0 0" stroke="#000000" stroke-width="1" fill="none"></path></g><g stroke-linecap="round" transform="translate(42.73139945573462 132.27585258525855) rotate(0 13.02291413351864 11.646908111863837)"><path d="M13.48 -0.71 L25.25 11.4 L13.64 23.47 L0.85 12.67" stroke="none" stroke-width="0" fill="#fa5252" fill-rule="evenodd"></path><path d="M14 0 C16.36 2.87, 19.05 5.17, 26.05 12 M14 0 C18.32 4.08, 22.2 8.12, 26.05 12 M26.05 12 C22.36 14.66, 19.59 17.8, 14 23.29 M26.05 12 C21.68 16.35, 17 20.1, 14 23.29 M14 23.29 C10 21.09, 7.5 17.22, 0 12 M14 23.29 C8.93 19.44, 4.7 15.47, 0 12 M0 12 C3.42 9.34, 7.8 6.54, 14 0 M0 12 C5.29 7.92, 10.23 3.15, 14 0" stroke="#000000" stroke-width="1" fill="none"></path></g><g stroke-linecap="round" transform="translate(42.53482716692736 143.77533148051623) rotate(0 13.170343350124497 10.025186729199245)"><path d="M-0.71 -0.8 L25.75 -0.36 L26.51 20.9 L0.67 19.95" stroke="none" stroke-width="0" fill="#ced4da"></path><path d="M0 0 C6.34 -0.65, 12.07 0.45, 26.34 0 M0 0 C5.75 0.05, 11.4 -0.19, 26.34 0 M26.34 0 C25.75 7.65, 25.72 15.43, 26.34 20.05 M26.34 0 C26.49 4.67, 25.95 9.28, 26.34 20.05 M26.34 20.05 C19.58 20.94, 10.98 20.39, 0 20.05 M26.34 20.05 C17.33 20.19, 8.17 19.72, 0 20.05 M0 20.05 C0.41 16.23, 0.66 11.61, 0 0 M0 20.05 C0.39 13.86, 0.01 7.6, 0 0" stroke="#000000" stroke-width="1" fill="none"></path></g><g stroke-linecap="round" transform="translate(46.95770366510209 155.96281338660188) rotate(0 3.1942996931272063 4.029731920560483)"><path d="M0 0 C0 0, 0 0, 0 0 M0 0 C0 0, 0 0, 0 0 M-0.26 6.4 C0.91 5, 2.13 3.4, 4.99 0.36 M-0.26 6.4 C1.35 4.66, 3.07 2.73, 4.99 0.36 M3.41 8.27 C4.74 6.7, 5.7 5.37, 6.69 4.49 M3.41 8.27 C4.57 6.87, 5.94 5.55, 6.69 4.49" stroke="#228be6" stroke-width="0.5" fill="none"></path><path d="M0 0 C1.18 -0.14, 2.74 -0.18, 6.39 0 M0 0 C2.35 0.01, 4.62 0.07, 6.39 0 M6.39 0 C6.46 2.59, 6.57 5.37, 6.39 8.06 M6.39 0 C6.38 1.55, 6.35 3.24, 6.39 8.06 M6.39 8.06 C4.53 8.04, 2.35 8.17, 0 8.06 M6.39 8.06 C4.66 8.02, 2.77 7.98, 0 8.06 M0 8.06 C0.2 6.04, 0.19 3.69, 0 0 M0 8.06 C-0.03 6.1, -0.08 4.06, 0 0" stroke="#000000" stroke-width="1" fill="none"></path></g><g stroke-linecap="round" transform="translate(57.37603497191759 148.29649412309664) rotate(0 5.012593364599624 4.2754472815702655)"><path d="M0 0 C0 0, 0 0, 0 0 M0 0 C0 0, 0 0, 0 0 M-0.26 6.4 C1.79 3.89, 3.55 2.14, 4.99 0.36 M-0.26 6.4 C1.89 4.29, 3.75 2.03, 4.99 0.36 M2.76 9.02 C4.03 6.32, 6.11 5.06, 10.63 -0.03 M2.76 9.02 C4.36 7.51, 6.23 5.21, 10.63 -0.03 M8.4 8.63 C9.1 8.1, 9.55 7.37, 10.37 6.36 M8.4 8.63 C8.85 8.08, 9.35 7.63, 10.37 6.36" stroke="#228be6" stroke-width="0.5" fill="none"></path><path d="M0 0 C2.14 0.22, 4.51 0.35, 10.03 0 M0 0 C3.76 -0.07, 7.6 0.1, 10.03 0 M10.03 0 C9.71 2.5, 9.72 3.98, 10.03 8.55 M10.03 0 C9.92 2.81, 10.02 5.82, 10.03 8.55 M10.03 8.55 C7.3 8.79, 4.95 8.49, 0 8.55 M10.03 8.55 C7.6 8.45, 5.17 8.5, 0 8.55 M0 8.55 C0.25 6.42, 0 3.46, 0 0 M0 8.55 C-0.05 5.63, -0.18 2.75, 0 0" stroke="#000000" stroke-width="1" fill="none"></path></g><g stroke-linecap="round"><g transform="translate(58.26262952285066 153.3748575183921) rotate(0 5.061736436801581 -0.04914307220195724)"><path d="M-0.37 0.21 C1.25 0.31, 7.84 0.29, 9.66 0.25 M0.45 -0.16 C2.23 -0.18, 9 -0.67, 10.65 -0.54" stroke="#000000" stroke-width="1" fill="none"></path></g></g><mask></mask><g stroke-linecap="round"><g transform="translate(63.00142957261636 148.52503597731135) rotate(0 -0.04914307220195724 4.2754472815702655)"><path d="M0.13 -0.3 C0.2 1.2, 0.16 7.31, 0.13 8.8 M-0.23 0.31 C-0.17 1.74, -0.03 7.02, -0.04 8.31" stroke="#000000" stroke-width="1" fill="none"></path></g></g><mask></mask><g stroke-linecap="round" transform="translate(109.15763418447102 140.06781599212624) rotate(0 1.6217213826645889 3.2925858375311243)"><path d="M-0.59 -0.14 L3.29 0.42 L2.74 7.02 L-0.19 7.09" stroke="none" stroke-width="0" fill="#fa5252"></path><path d="M0 0 C0.92 -0.04, 1.96 0.1, 3.24 0 M0 0 C0.84 0.04, 1.64 -0.06, 3.24 0 M3.24 0 C3.31 2.3, 3.27 4.77, 3.24 6.59 M3.24 0 C3.23 1.62, 3.17 3.02, 3.24 6.59 M3.24 6.59 C2.37 6.66, 1.21 6.63, 0 6.59 M3.24 6.59 C2.5 6.62, 1.74 6.56, 0 6.59 M0 6.59 C-0.01 4.16, 0.12 1.46, 0 0 M0 6.59 C0.03 5.09, -0.07 3.64, 0 0" stroke="#000000" stroke-width="1" fill="none"></path></g><g stroke-linecap="round" transform="translate(89.2055468704761 137.51237623762378) rotate(0 13.02291413351864 11.646908111863837)"><path d="M13.8 0.06 L26.68 11.24 L14.66 23 L0.76 11.46" stroke="none" stroke-width="0" fill="#fa5252" fill-rule="evenodd"></path><path d="M14 0 C17.93 3.76, 23.13 7.84, 26.05 12 M14 0 C18.93 4.84, 22.65 9.18, 26.05 12 M26.05 12 C22.01 15.82, 18.65 18.92, 14 23.29 M26.05 12 C23.24 14.63, 19.61 17.7, 14 23.29 M14 23.29 C9.48 18.36, 4.18 14.6, 0 12 M14 23.29 C11.35 21.23, 7.8 18.9, 0 12 M0 12 C5.61 8.42, 10.07 3.04, 14 0 M0 12 C5.1 7.38, 10.35 2.88, 14 0" stroke="#000000" stroke-width="1" fill="none"></path></g><g stroke-linecap="round" transform="translate(89.00897458166878 149.0118551328814) rotate(0 13.170343350124497 10.025186729199245)"><path d="M0.06 0.63 L25.59 0.66 L26.05 20.81 L-0.54 19.66" stroke="none" stroke-width="0" fill="#ced4da"></path><path d="M0 0 C8.75 0.99, 17.93 0.79, 26.34 0 M0 0 C9.48 -0.61, 18.31 0.03, 26.34 0 M26.34 0 C26.48 6.51, 25.72 11.25, 26.34 20.05 M26.34 0 C26.06 4.61, 26.33 10.3, 26.34 20.05 M26.34 20.05 C16.61 20.53, 8.23 19.29, 0 20.05 M26.34 20.05 C19.74 19.94, 12.88 20.38, 0 20.05 M0 20.05 C0.61 15.07, -0.73 9.85, 0 0 M0 20.05 C-0.31 16.07, -0.48 11.64, 0 0" stroke="#000000" stroke-width="1" fill="none"></path></g><g stroke-linecap="round" transform="translate(93.43185107984368 161.1993370389671) rotate(0 3.1942996931272063 4.029731920560483)"><path d="M0 0 C0 0, 0 0, 0 0 M0 0 C0 0, 0 0, 0 0 M-0.26 6.4 C1.21 4.71, 2.96 3, 4.99 0.36 M-0.26 6.4 C1.25 4.6, 2.9 2.91, 4.99 0.36 M3.41 8.27 C4.62 6.86, 5.99 5.44, 6.69 4.49 M3.41 8.27 C4.23 7.44, 4.87 6.56, 6.69 4.49" stroke="#228be6" stroke-width="0.5" fill="none"></path><path d="M0 0 C1.6 -0.11, 2.95 0.1, 6.39 0 M0 0 C2.35 0.04, 4.93 -0.03, 6.39 0 M6.39 0 C6.56 2.46, 6.26 5.12, 6.39 8.06 M6.39 0 C6.3 2.42, 6.49 4.88, 6.39 8.06 M6.39 8.06 C4.04 7.91, 1.34 7.96, 0 8.06 M6.39 8.06 C4.12 8.18, 2 8.04, 0 8.06 M0 8.06 C0.09 5.46, 0.14 3, 0 0 M0 8.06 C0.05 5.21, -0.03 2.6, 0 0" stroke="#000000" stroke-width="1" fill="none"></path></g><g stroke-linecap="round" transform="translate(103.85018238665896 153.53301777546193) rotate(0 5.012593364599624 4.2754472815702655)"><path d="M0 0 C0 0, 0 0, 0 0 M0 0 C0 0, 0 0, 0 0 M-0.26 6.4 C1.1 5.2, 2.42 3.44, 4.99 0.36 M-0.26 6.4 C1.56 4.41, 3.55 2.2, 4.99 0.36 M2.76 9.02 C4.86 7.02, 6.9 4, 10.63 -0.03 M2.76 9.02 C5.62 5.7, 8.26 3, 10.63 -0.03 M8.4 8.63 C8.87 8.03, 9.3 7.63, 10.37 6.36 M8.4 8.63 C9.04 7.94, 9.76 7.08, 10.37 6.36" stroke="#228be6" stroke-width="0.5" fill="none"></path><path d="M0 0 C2.45 0.33, 5.66 0.37, 10.03 0 M0 0 C4.03 0.12, 7.78 0.12, 10.03 0 M10.03 0 C9.75 2.29, 9.81 4.98, 10.03 8.55 M10.03 0 C10 3.25, 10.07 6.4, 10.03 8.55 M10.03 8.55 C6.06 8.15, 2.55 8.81, 0 8.55 M10.03 8.55 C6.49 8.64, 2.4 8.53, 0 8.55 M0 8.55 C-0.34 5.54, -0.42 2.17, 0 0 M0 8.55 C-0.16 5.97, 0.04 3.62, 0 0" stroke="#000000" stroke-width="1" fill="none"></path></g><g stroke-linecap="round"><g transform="translate(104.6873962383496 158.46187654358545) rotate(0 5.061736436801581 -0.04914307220195724)"><path d="M-0.3 0.41 C1.47 0.39, 8.54 0.36, 10.36 0.36 M0.55 0.15 C2.29 0.21, 8.39 -0.27, 10.05 -0.37" stroke="#000000" stroke-width="1" fill="none"></path></g></g><mask></mask><g stroke-linecap="round"><g transform="translate(109.24601398487701 153.5002314596552) rotate(0 -0.04914307220195724 4.2754472815702655)"><path d="M0.27 0.15 C0.25 1.66, 0.21 7.53, 0.2 8.87 M-0.02 -0.08 C-0.1 1.36, 0.04 6.99, 0.07 8.41" stroke="#000000" stroke-width="1" fill="none"></path></g></g><mask></mask><g transform="translate(89.25 196) rotate(0 27.5 12.5)"><text x="0" y="0" font-family="Virgil, Segoe UI Emoji" font-size="20px" fill="#000000" text-anchor="start" style="white-space: pre;" direction="ltr" dominant-baseline="text-before-edge">#City</text></g></svg>