<svg xmlns="http://www.w3.org/2000/svg" viewBox="-1406.77 -660.67 81.32 119.27" width="81" height="119"><rect x="-1400.77" y="-654.67" width="69.32" height="87.40" rx="0" stroke="#0000" stroke-width="2" opacity="1.0" fill="#0000"/><polyline points="-1397.47,-599.86 -1397.28,-586.56 -1364.86,-566.88 -1334.50,-584.87 -1333.38,-599.86 -1365.98,-619.35 -1397.47,-599.86" fill="#ced4da" stroke="#495057" stroke-width="2" opacity="1.0" stroke-linecap="round" stroke-linejoin="round"/><polyline points="-1365.05,-568.19 -1365.05,-580.94" fill="#ced4da" stroke="#495057" stroke-width="2" opacity="1.0" stroke-linecap="round" stroke-linejoin="round"/><polyline points="-1397.09,-599.49 -1365.05,-581.12 -1334.32,-598.55" fill="#ced4da" stroke="#495057" stroke-width="2" opacity="1.0" stroke-linecap="round" stroke-linejoin="round"/><polyline points="-1362.24,-574.75 -1347.17,-583.19" fill="#ced4da" stroke="#495057" stroke-width="2" opacity="1.0" stroke-linecap="round" stroke-linejoin="round"/><polyline points="-1344.31,-586.39 -1344.22,-582.97 -1337.07,-587.62 -1336.48,-590.89 -1344.31,-586.39" fill="#ced4da" stroke="#495057" stroke-width="1" opacity="1.0" stroke-linecap="round" stroke-linejoin="round"/><polyline points="-1397.61,-617.53 -1397.42,-604.23 -1365.00,-584.55 -1334.64,-602.54 -1333.52,-617.53 -1366.13,-637.02 -1397.61,-617.53" fill="#ced4da" stroke="#495057" stroke-width="2" opacity="1.0" stroke-linecap="round" stroke-linejoin="round"/><polyline points="-1365.19,-585.86 -1365.19,-598.60" fill="#ced4da" stroke="#495057" stroke-width="2" opacity="1.0" stroke-linecap="round" stroke-linejoin="round"/><polyline points="-1397.23,-617.16 -1365.19,-598.79 -1334.46,-616.22" fill="#ced4da" stroke="#495057" stroke-width="2" opacity="1.0" stroke-linecap="round" stroke-linejoin="round"/><polyline points="-1362.38,-592.42 -1346.64,-600.85" fill="#ced4da" stroke="#495057" stroke-width="2" opacity="1.0" stroke-linecap="round" stroke-linejoin="round"/><polyline points="-1343.94,-604.56 -1343.85,-601.14 -1337.47,-604.92 -1337.31,-608.70 -1343.94,-604.56" fill="#ced4da" stroke="#495057" stroke-width="1" opacity="1.0" stroke-linecap="round" stroke-linejoin="round"/><polyline points="-1397.75,-634.96 -1397.56,-621.65 -1365.14,-601.97 -1334.79,-619.96 -1333.66,-634.96 -1366.27,-654.44 -1397.75,-634.96" fill="#ced4da" stroke="#495057" stroke-width="2" opacity="1.0" stroke-linecap="round" stroke-linejoin="round"/><polyline points="-1365.33,-603.29 -1365.33,-616.03" fill="#ced4da" stroke="#495057" stroke-width="2" opacity="1.0" stroke-linecap="round" stroke-linejoin="round"/><polyline points="-1397.37,-634.58 -1365.33,-616.22 -1334.60,-633.64" fill="#ced4da" stroke="#495057" stroke-width="2" opacity="1.0" stroke-linecap="round" stroke-linejoin="round"/><polyline points="-1362.52,-609.84 -1346.78,-618.28" fill="#ced4da" stroke="#495057" stroke-width="2" opacity="1.0" stroke-linecap="round" stroke-linejoin="round"/><polyline points="-1344.08,-621.99 -1343.99,-618.57 -1337.25,-622.23 -1336.85,-626.01 -1344.08,-621.99" fill="#ced4da" stroke="#495057" stroke-width="1" opacity="1.0" stroke-linecap="round" stroke-linejoin="round"/></svg>