<svg version="1.1" xmlns="http://www.w3.org/2000/svg" viewBox="0 0 80.31684981684987 64.42632118529002" width="80.31684981684987" height="64.42632118529002">
  <!-- svg-source:excalidraw -->
  
  <defs>
    
    
  </defs>
  <g stroke-linecap="round" transform="translate(11.545308854368159 6) rotate(0 29.07051933023172 19.380346220154536)"><path d="M9.69 0 C24.42 0, 39.15 0, 48.45 0 C54.91 0, 58.14 3.23, 58.14 9.69 C58.14 15.75, 58.14 21.81, 58.14 29.07 C58.14 35.53, 54.91 38.76, 48.45 38.76 C37.06 38.76, 25.68 38.76, 9.69 38.76 C3.23 38.76, 0 35.53, 0 29.07 C0 21.74, 0 14.42, 0 9.69 C0 3.23, 3.23 0, 9.69 0" stroke="none" stroke-width="0" fill="#ced4da"></path><path d="M9.69 0 C20.92 0, 32.15 0, 48.45 0 M9.69 0 C25.13 0, 40.56 0, 48.45 0 M48.45 0 C54.91 0, 58.14 3.23, 58.14 9.69 M48.45 0 C54.91 0, 58.14 3.23, 58.14 9.69 M58.14 9.69 C58.14 17.13, 58.14 24.57, 58.14 29.07 M58.14 9.69 C58.14 15.44, 58.14 21.19, 58.14 29.07 M58.14 29.07 C58.14 35.53, 54.91 38.76, 48.45 38.76 M58.14 29.07 C58.14 35.53, 54.91 38.76, 48.45 38.76 M48.45 38.76 C33.02 38.76, 17.59 38.76, 9.69 38.76 M48.45 38.76 C34.98 38.76, 21.51 38.76, 9.69 38.76 M9.69 38.76 C3.23 38.76, 0 35.53, 0 29.07 M9.69 38.76 C3.23 38.76, 0 35.53, 0 29.07 M0 29.07 C0 22.45, 0 15.84, 0 9.69 M0 29.07 C0 24.21, 0 19.34, 0 9.69 M0 9.69 C0 3.23, 3.23 0, 9.69 0 M0 9.69 C0 3.23, 3.23 0, 9.69 0" stroke="#343a40" stroke-width="2" fill="none"></path></g><g stroke-linecap="round" transform="translate(6 49.07496531682409) rotate(0 34.158424908424934 4.675677934232965)"><path d="M2.34 0 C19.19 0, 36.04 0, 65.98 0 C67.54 0, 68.32 0.78, 68.32 2.34 C68.32 3.89, 68.32 5.44, 68.32 7.01 C68.32 8.57, 67.54 9.35, 65.98 9.35 C51.49 9.35, 37 9.35, 2.34 9.35 C0.78 9.35, 0 8.57, 0 7.01 C0 5.76, 0 4.5, 0 2.34 C0 0.78, 0.78 0, 2.34 0" stroke="none" stroke-width="0" fill="#ced4da"></path><path d="M2.34 0 C19.43 0, 36.53 0, 65.98 0 M2.34 0 C24.98 0, 47.62 0, 65.98 0 M65.98 0 C67.54 0, 68.32 0.78, 68.32 2.34 M65.98 0 C67.54 0, 68.32 0.78, 68.32 2.34 M68.32 2.34 C68.32 3.97, 68.32 5.6, 68.32 7.01 M68.32 2.34 C68.32 3.82, 68.32 5.31, 68.32 7.01 M68.32 7.01 C68.32 8.57, 67.54 9.35, 65.98 9.35 M68.32 7.01 C68.32 8.57, 67.54 9.35, 65.98 9.35 M65.98 9.35 C49.06 9.35, 32.15 9.35, 2.34 9.35 M65.98 9.35 C44.77 9.35, 23.56 9.35, 2.34 9.35 M2.34 9.35 C0.78 9.35, 0 8.57, 0 7.01 M2.34 9.35 C0.78 9.35, 0 8.57, 0 7.01 M0 7.01 C0 5.55, 0 4.1, 0 2.34 M0 7.01 C0 5.91, 0 4.81, 0 2.34 M0 2.34 C0 0.78, 0.78 0, 2.34 0 M0 2.34 C0 0.78, 0.78 0, 2.34 0" stroke="#343a40" stroke-width="2" fill="none"></path></g><g stroke-linecap="round" transform="translate(56.3678076060927 52.499405494009125) rotate(0 6.120820957724561 1.1798952533570173)"><path d="M0.59 0 C4.61 0, 8.63 0, 11.65 0 C12.04 0, 12.24 0.2, 12.24 0.59 C12.24 0.92, 12.24 1.25, 12.24 1.77 C12.24 2.16, 12.04 2.36, 11.65 2.36 C8.59 2.36, 5.52 2.36, 0.59 2.36 C0.2 2.36, 0 2.16, 0 1.77 C0 1.36, 0 0.95, 0 0.59 C0 0.2, 0.2 0, 0.59 0" stroke="none" stroke-width="0" fill="#343a40"></path><path d="M0.59 0 C2.9 0, 5.22 0, 11.65 0 M0.59 0 C2.99 0, 5.39 0, 11.65 0 M11.65 0 C12.04 0, 12.24 0.2, 12.24 0.59 M11.65 0 C12.04 0, 12.24 0.2, 12.24 0.59 M12.24 0.59 C12.24 0.92, 12.24 1.25, 12.24 1.77 M12.24 0.59 C12.24 0.97, 12.24 1.35, 12.24 1.77 M12.24 1.77 C12.24 2.16, 12.04 2.36, 11.65 2.36 M12.24 1.77 C12.24 2.16, 12.04 2.36, 11.65 2.36 M11.65 2.36 C9.02 2.36, 6.4 2.36, 0.59 2.36 M11.65 2.36 C8.3 2.36, 4.95 2.36, 0.59 2.36 M0.59 2.36 C0.2 2.36, 0 2.16, 0 1.77 M0.59 2.36 C0.2 2.36, 0 2.16, 0 1.77 M0 1.77 C0 1.37, 0 0.97, 0 0.59 M0 1.77 C0 1.4, 0 1.02, 0 0.59 M0 0.59 C0 0.2, 0.2 0, 0.59 0 M0 0.59 C0 0.2, 0.2 0, 0.59 0" stroke="#343a40" stroke-width="2" fill="none"></path></g><g stroke-linecap="round" transform="translate(34.67968648392264 45.36515512487347) rotate(0 6.120820957724561 1.1798952533570173)"><path d="M0.59 0 C4.14 0, 7.68 0, 11.65 0 C12.04 0, 12.24 0.2, 12.24 0.59 C12.24 0.97, 12.24 1.36, 12.24 1.77 C12.24 2.16, 12.04 2.36, 11.65 2.36 C8.61 2.36, 5.57 2.36, 0.59 2.36 C0.2 2.36, 0 2.16, 0 1.77 C0 1.33, 0 0.88, 0 0.59 C0 0.2, 0.2 0, 0.59 0" stroke="none" stroke-width="0" fill="#343a40"></path><path d="M0.59 0 C2.9 0, 5.21 0, 11.65 0 M0.59 0 C4.92 0, 9.25 0, 11.65 0 M11.65 0 C12.04 0, 12.24 0.2, 12.24 0.59 M11.65 0 C12.04 0, 12.24 0.2, 12.24 0.59 M12.24 0.59 C12.24 1.05, 12.24 1.52, 12.24 1.77 M12.24 0.59 C12.24 0.9, 12.24 1.2, 12.24 1.77 M12.24 1.77 C12.24 2.16, 12.04 2.36, 11.65 2.36 M12.24 1.77 C12.24 2.16, 12.04 2.36, 11.65 2.36 M11.65 2.36 C8.42 2.36, 5.18 2.36, 0.59 2.36 M11.65 2.36 C8.11 2.36, 4.58 2.36, 0.59 2.36 M0.59 2.36 C0.2 2.36, 0 2.16, 0 1.77 M0.59 2.36 C0.2 2.36, 0 2.16, 0 1.77 M0 1.77 C0 1.45, 0 1.12, 0 0.59 M0 1.77 C0 1.44, 0 1.11, 0 0.59 M0 0.59 C0 0.2, 0.2 0, 0.59 0 M0 0.59 C0 0.2, 0.2 0, 0.59 0" stroke="#343a40" stroke-width="2" fill="none"></path></g><g stroke-linecap="round" transform="translate(16.53847650305329 10.484226070455634) rotate(0 24.11446288866233 15.125362843360563)"><path d="M7.56 0 C20.48 0, 33.39 0, 40.67 0 C45.71 0, 48.23 2.52, 48.23 7.56 C48.23 11.91, 48.23 16.25, 48.23 22.69 C48.23 27.73, 45.71 30.25, 40.67 30.25 C33.3 30.25, 25.94 30.25, 7.56 30.25 C2.52 30.25, 0 27.73, 0 22.69 C0 17.51, 0 12.33, 0 7.56 C0 2.52, 2.52 0, 7.56 0" stroke="none" stroke-width="0" fill="#343a40"></path><path d="M7.56 0 C16.61 0, 25.65 0, 40.67 0 M7.56 0 C17.12 0, 26.68 0, 40.67 0 M40.67 0 C45.71 0, 48.23 2.52, 48.23 7.56 M40.67 0 C45.71 0, 48.23 2.52, 48.23 7.56 M48.23 7.56 C48.23 12.72, 48.23 17.89, 48.23 22.69 M48.23 7.56 C48.23 12.68, 48.23 17.79, 48.23 22.69 M48.23 22.69 C48.23 27.73, 45.71 30.25, 40.67 30.25 M48.23 22.69 C48.23 27.73, 45.71 30.25, 40.67 30.25 M40.67 30.25 C29.79 30.25, 18.92 30.25, 7.56 30.25 M40.67 30.25 C33.03 30.25, 25.39 30.25, 7.56 30.25 M7.56 30.25 C2.52 30.25, 0 27.73, 0 22.69 M7.56 30.25 C2.52 30.25, 0 27.73, 0 22.69 M0 22.69 C0 19, 0 15.32, 0 7.56 M0 22.69 C0 17.04, 0 11.39, 0 7.56 M0 7.56 C0 2.52, 2.52 0, 7.56 0 M0 7.56 C0 2.52, 2.52 0, 7.56 0" stroke="#343a40" stroke-width="2" fill="none"></path></g></svg>