<svg version="1.1" xmlns="http://www.w3.org/2000/svg" viewBox="0 0 320.43728579045114 402.9078515418403" width="320.43728579045114" height="402.9078515418403">
  <!-- svg-source:excalidraw -->
  
  <defs>
    
    
  </defs>
  <g stroke-linecap="round" transform="translate(6.918130649150044 31.399115132159295) rotate(0 153.75957757065055 145.07805507173236)"><path d="M0.57 0.08 L308.41 -1.49 L306.28 291.67 L-1.6 289.8" stroke="none" stroke-width="0" fill="#f5f4f2"></path><path d="M0 0 C113.93 -0.9, 226.45 0.66, 307.52 0 M0 0 C98.51 1.91, 196.34 1.94, 307.52 0 M307.52 0 C308.98 63.91, 308.63 128.75, 307.52 290.16 M307.52 0 C306.74 62.53, 307.37 126.85, 307.52 290.16 M307.52 290.16 C211.67 290.55, 113.38 290.97, 0 290.16 M307.52 290.16 C237.66 291.94, 168.34 292.1, 0 290.16 M0 290.16 C0.93 213.64, 2.6 135.4, 0 0 M0 290.16 C2 181.24, 0.92 72.21, 0 0" stroke="#1e1e1e" stroke-width="4" fill="none"></path></g><g stroke-linecap="round" transform="translate(6 6) rotate(0 153.75957757065055 7.180219659870943)"><path d="M0.45 -0.74 L306.9 0.76 L306.72 14.18 L-0.41 14.68" stroke="none" stroke-width="0" fill="#1e1e1e"></path><path d="M0 0 C87.35 1.11, 175.69 0.36, 307.52 0 M0 0 C63.35 0.2, 126.3 0.27, 307.52 0 M307.52 0 C308.13 3.9, 307 6.38, 307.52 14.36 M307.52 0 C307.57 3.98, 307.53 7.07, 307.52 14.36 M307.52 14.36 C217.99 15.38, 129.14 15.37, 0 14.36 M307.52 14.36 C188.21 14.14, 69.23 13.87, 0 14.36 M0 14.36 C0.53 9.95, 0.57 5.84, 0 0 M0 14.36 C-0.28 10.38, 0.04 6.51, 0 0" stroke="#1e1e1e" stroke-width="4" fill="none"></path></g><g stroke-linecap="round"><g transform="translate(96.18004863984538 85.54574040116836) rotate(0 0 43.18784202637801)" fill-rule="evenodd"><path d="M1.73 -1.85 L-48.7 85.32 L46.74 88.08 L1.11 1.28" stroke="none" stroke-width="0" fill="#ffffff" fill-rule="evenodd"></path><path d="M0 0 C-15.06 24.62, -30.15 50.29, -48.14 85.67 M0 0 C-19.76 34.16, -38.09 68.06, -48.14 85.67 M-48.14 85.67 C-18.69 84.29, 12.78 83.94, 48.14 86.38 M-48.14 85.67 C-17.12 87.04, 13.6 85.85, 48.14 86.38 M48.14 86.38 C37.29 65.27, 23.15 41.44, 0 0 M48.14 86.38 C38.12 69.53, 27.06 50.48, 0 0 M0 0 C0 0, 0 0, 0 0 M0 0 C0 0, 0 0, 0 0" stroke="#1e1e1e" stroke-width="4" fill="none"></path></g></g><mask></mask><g stroke-linecap="round"><g transform="translate(186.80373574986584 82.71368434704596) rotate(0 26.195951333198764 45.31188406696981)" fill-rule="evenodd"><path d="M-1.77 0.58 L50.82 -1.84 L79.49 44.65 L54.9 90.74 L-0.83 91.76 L-28.39 44.76 L0.98 0.49" stroke="none" stroke-width="0" fill="#ffffff" fill-rule="evenodd"></path><path d="M0 0 C13.18 -0.41, 25.76 0.15, 50.98 -1.42 M0 0 C19.19 -0.47, 37.78 -0.5, 50.98 -1.42 M50.98 -1.42 C64.05 17.85, 74.18 36.14, 80 45.31 M50.98 -1.42 C61.37 12.54, 69.7 29.18, 80 45.31 M80 45.31 C75.14 55.78, 68.29 64.87, 53.1 92.04 M80 45.31 C71.21 60.51, 62.18 76.38, 53.1 92.04 M53.1 92.04 C40 91.68, 27.29 92.88, 0.71 92.04 M53.1 92.04 C40.84 91.14, 31.07 91.25, 0.71 92.04 M0.71 92.04 C-6.67 75.38, -18.78 62.87, -27.61 43.19 M0.71 92.04 C-5.55 80.46, -10.97 70.92, -27.61 43.19 M-27.61 43.19 C-17.75 30.64, -9.06 17.89, 0 0 M-27.61 43.19 C-22.17 33.63, -15.25 24.16, 0 0 M0 0 C0 0, 0 0, 0 0 M0 0 C0 0, 0 0, 0 0" stroke="#1e1e1e" stroke-width="4" fill="none"></path></g></g><mask></mask><g stroke-linecap="round" transform="translate(109.6320178092235 201.65736483085698) rotate(0 45.66583705778885 41.77185451127639)"><path d="M32.66 1.74 C39.84 -1.11, 49.55 -1.04, 57.31 1.07 C65.07 3.18, 73.49 8.72, 79.23 14.38 C84.97 20.04, 90.5 27.58, 91.74 35.04 C92.99 42.5, 90.3 52.05, 86.71 59.12 C83.11 66.2, 77.02 73.49, 70.16 77.49 C63.29 81.49, 53.46 83.22, 45.52 83.13 C37.57 83.03, 29.4 80.88, 22.49 76.92 C15.57 72.96, 7.71 66.2, 4.05 59.35 C0.4 52.51, -0.68 43.08, 0.57 35.83 C1.81 28.59, 5.28 21.62, 11.51 15.89 C17.74 10.16, 32.44 3.8, 37.95 1.45 C43.46 -0.89, 44.29 1.27, 44.57 1.8 M61.83 1.9 C69.43 3.74, 77.05 10.9, 82.14 17.29 C87.23 23.68, 91.71 32.56, 92.39 40.22 C93.07 47.89, 90.3 56.94, 86.22 63.27 C82.15 69.59, 75.42 75.05, 67.94 78.2 C60.46 81.34, 49.86 82.59, 41.33 82.12 C32.79 81.66, 22.95 80.11, 16.72 75.4 C10.48 70.69, 6.58 61.22, 3.92 53.87 C1.25 46.52, -0.94 38.41, 0.73 31.3 C2.4 24.19, 7.71 16.12, 13.94 11.21 C20.17 6.29, 30.2 3.22, 38.1 1.81 C46 0.4, 57.34 2.3, 61.33 2.76 C65.32 3.21, 62.03 3.74, 62.02 4.55" stroke="none" stroke-width="0" fill="#ffffff"></path><path d="M54.44 0.91 C62.32 1.66, 71.34 6.21, 77.45 11.45 C83.56 16.69, 89.21 24.95, 91.08 32.35 C92.94 39.75, 91.48 48.61, 88.64 55.85 C85.8 63.09, 80.46 71.11, 74.05 75.77 C67.64 80.44, 58.38 83.37, 50.2 83.84 C42.01 84.31, 32.43 82.2, 24.92 78.57 C17.42 74.94, 9.33 68.74, 5.15 62.06 C0.98 55.39, -0.74 46.12, -0.13 38.54 C0.47 30.96, 3.87 22.71, 8.79 16.59 C13.7 10.48, 20.99 4.31, 29.34 1.88 C37.7 -0.56, 53.02 1.53, 58.91 2 C64.8 2.47, 64.64 3.97, 64.67 4.69 M51.7 1.58 C59.56 2.09, 69.42 7.24, 75.85 11.83 C82.28 16.41, 87.81 22.04, 90.27 29.12 C92.73 36.2, 93.07 46.99, 90.62 54.31 C88.16 61.62, 82.12 68.26, 75.53 73.01 C68.93 77.76, 59.28 81.72, 51.05 82.78 C42.82 83.84, 33.69 82.42, 26.15 79.37 C18.62 76.33, 10.11 70.78, 5.85 64.53 C1.58 58.29, 0.25 49.45, 0.53 41.91 C0.82 34.37, 2.91 25.84, 7.55 19.29 C12.19 12.75, 20.83 5.76, 28.39 2.64 C35.95 -0.48, 48.84 0.84, 52.91 0.57 C56.99 0.3, 52.78 0.5, 52.84 1.02" stroke="#1e1e1e" stroke-width="4" fill="none"></path></g><g transform="translate(17.735483215956947 351.9078515418403) rotate(0 133.54196166992188 22.5)"><text x="0" y="0" font-family="Segoe UI Emoji" font-size="36px" fill="#1e1e1e" text-anchor="start" style="white-space: pre;" direction="ltr" dominant-baseline="text-before-edge">Object Storage</text></g></svg>