<svg version="1.1" xmlns="http://www.w3.org/2000/svg" viewBox="0 0 429.26068327489224 488.57940334162413" width="429.26068327489224" height="488.57940334162413">
  <!-- svg-source:excalidraw -->
  
  <defs>
    
    
  </defs>
  <g stroke-linecap="round"><g transform="translate(6.01747593685991 186.04326924117777) rotate(0 207.18154624575857 -89.7691650042747)" fill-rule="evenodd"><path d="M-1.89 -1.8 C58.12 -2.28, 291.59 -1.96, 361.17 -2.85 C430.75 -3.74, 407.44 1.46, 415.58 -7.12 C423.72 -15.7, 412.58 -43.01, 410.01 -54.33 C407.44 -65.66, 403.51 -68.23, 400.16 -75.09 C396.81 -81.95, 395.81 -89.81, 389.89 -95.5 C383.97 -101.2, 373.28 -106.23, 364.65 -109.26 C356.01 -112.28, 347.82 -112.33, 338.09 -113.64 C328.35 -114.95, 312.78 -113.06, 306.25 -117.11 C299.71 -121.17, 302.09 -130.92, 298.88 -137.98 C295.67 -145.05, 291.77 -153.22, 286.98 -159.51 C282.19 -165.79, 278.88 -172.39, 270.13 -175.69 C261.38 -178.98, 243.94 -178.56, 234.47 -179.28 C224.99 -180, 219.87 -180.88, 213.28 -180 C206.7 -179.13, 201.35 -176.7, 194.97 -174.01 C188.59 -171.32, 180.53 -167.7, 174.99 -163.85 C169.45 -160.01, 165.29 -154.96, 161.73 -150.93 C158.17 -146.9, 156.77 -141.25, 153.65 -139.69 C150.53 -138.13, 146.99 -140.46, 143 -141.57 C139.01 -142.68, 136.58 -145.54, 129.71 -146.34 C122.84 -147.13, 107.4 -147.09, 101.8 -146.34 C96.2 -145.58, 100.57 -143.88, 96.11 -141.83 C91.65 -139.78, 79.45 -137.09, 75.05 -134.04 C70.65 -131, 72.12 -127.04, 69.69 -123.55 C67.27 -120.05, 62.25 -117.15, 60.51 -113.06 C58.77 -108.98, 59.46 -104.29, 59.26 -99.04 C59.05 -93.78, 61.52 -87.16, 59.27 -81.52 C57.02 -75.87, 52.1 -69.52, 45.75 -65.16 C39.4 -60.81, 27.73 -61.15, 21.15 -55.37 C14.58 -49.6, 10.18 -40.08, 6.3 -30.54 C2.41 -21, -0.99 -3.36, -2.14 1.89" stroke="none" stroke-width="0" fill="#f5f4f2" fill-rule="evenodd"></path><path d="M0.95 -0.48 C61.15 -0.84, 292.31 -0.71, 361.19 -1.67 C430.07 -2.63, 406.13 2.46, 414.21 -6.25 C422.29 -14.96, 411.93 -42.17, 409.68 -53.93 C407.43 -65.69, 404.02 -69.81, 400.72 -76.83 C397.41 -83.85, 396.38 -90.64, 389.84 -96.05 C383.3 -101.46, 369.72 -106.34, 361.48 -109.31 C353.25 -112.27, 349.65 -112.51, 340.45 -113.84 C331.25 -115.18, 313.35 -112.83, 306.28 -117.3 C299.22 -121.77, 300.92 -133.65, 298.04 -140.67 C295.16 -147.69, 294.22 -153.6, 289 -159.4 C283.79 -165.2, 275.96 -172.19, 266.77 -175.46 C257.59 -178.74, 242.93 -178.54, 233.9 -179.07 C224.86 -179.59, 219.04 -179.58, 212.55 -178.64 C206.06 -177.69, 201.43 -176.03, 194.94 -173.39 C188.46 -170.75, 179.34 -166.37, 173.64 -162.81 C167.95 -159.24, 164.24 -155.67, 160.78 -152.01 C157.33 -148.35, 155.79 -142.35, 152.92 -140.83 C150.05 -139.31, 147.84 -141.89, 143.56 -142.88 C139.28 -143.87, 134.01 -145.9, 127.25 -146.78 C120.5 -147.66, 108.18 -148.91, 103.03 -148.16 C97.89 -147.42, 101.24 -144.93, 96.37 -142.32 C91.5 -139.71, 78.4 -135.71, 73.79 -132.5 C69.19 -129.28, 70.82 -126.32, 68.74 -123.01 C66.65 -119.69, 62.35 -116.76, 61.28 -112.61 C60.22 -108.45, 62.47 -102.78, 62.36 -98.06 C62.25 -93.34, 63.15 -89.7, 60.63 -84.3 C58.11 -78.9, 53.89 -70.69, 47.22 -65.66 C40.56 -60.63, 27.7 -59.77, 20.62 -54.11 C13.55 -48.46, 8.12 -40.79, 4.77 -31.72 C1.42 -22.65, 1.38 -5.04, 0.53 0.32 M-0.02 -1.78 C60.58 -2.03, 294.62 0.68, 363.52 -0.41 C432.41 -1.49, 405.59 0.43, 413.36 -8.29 C421.13 -17.01, 412.51 -41.41, 410.16 -52.71 C407.81 -64.01, 402.92 -69.21, 399.26 -76.07 C395.6 -82.93, 394.46 -88.13, 388.19 -93.88 C381.91 -99.63, 369.66 -107.26, 361.6 -110.58 C353.53 -113.9, 349.3 -112.52, 339.82 -113.81 C330.34 -115.1, 311.61 -113.73, 304.73 -118.33 C297.84 -122.92, 301.05 -134.65, 298.48 -141.36 C295.92 -148.08, 294.35 -152.92, 289.34 -158.62 C284.33 -164.32, 277.57 -172.04, 268.44 -175.55 C259.31 -179.05, 244.02 -179.02, 234.53 -179.64 C225.05 -180.26, 218.07 -180.19, 211.52 -179.25 C204.98 -178.31, 201.39 -176.42, 195.28 -174.01 C189.17 -171.61, 180.32 -168.06, 174.88 -164.81 C169.43 -161.56, 165.92 -158.08, 162.62 -154.54 C159.32 -150.99, 158.4 -145.45, 155.08 -143.55 C151.77 -141.65, 147.38 -142.82, 142.74 -143.13 C138.09 -143.43, 133.47 -144.89, 127.22 -145.36 C120.97 -145.83, 110.84 -146.32, 105.24 -145.97 C99.64 -145.63, 98.79 -145.36, 93.62 -143.28 C88.45 -141.2, 78.61 -136.79, 74.21 -133.5 C69.81 -130.21, 69.09 -127, 67.19 -123.54 C65.29 -120.09, 63.94 -117.06, 62.79 -112.79 C61.64 -108.52, 60.42 -102.55, 60.28 -97.92 C60.13 -93.29, 64.41 -90.16, 61.9 -85.01 C59.39 -79.86, 52.02 -72.4, 45.21 -67.04 C38.41 -61.67, 28.13 -58.51, 21.08 -52.83 C14.03 -47.15, 6.33 -41.54, 2.89 -32.96 C-0.55 -24.38, 1.02 -6.67, 0.43 -1.36" stroke="#1e1e1e" stroke-width="4" fill="none"></path></g></g><mask></mask><g stroke-linecap="round"><g transform="translate(96.41340796228951 143.5084657218772) rotate(0 111.30216023993376 116.2332669042089)" fill-rule="evenodd"><path d="M1.73 -1.65 L224.15 2.86 L220.7 203.55 L216.48 213.2 L205.07 219.18 L191.95 223.35 L174.76 226.65 L159.86 226.69 L141.53 230.51 L120.28 230.53 L103.13 231.1 L82.72 232.9 L70.67 230.4 L58.46 225.47 L39.97 224.16 L24.65 218.62 L12.22 215.76 L-1.73 199.68 L1.63 -1.45" stroke="none" stroke-width="0" fill="#f5f4f2" fill-rule="evenodd"></path><path d="M0 0 C63.25 1.18, 122.87 1.22, 223.66 1.08 M0 0 C63.95 1.21, 125.73 1.71, 223.66 1.08 M223.66 1.08 C225.54 62.64, 225.91 125.47, 222.6 205.35 M223.66 1.08 C225.14 79.22, 223.66 157.56, 222.6 205.35 M222.6 205.35 C219.16 208.09, 216.18 209.6, 215.21 211.69 M222.6 205.35 C220.73 207.1, 219.45 208.55, 215.21 211.69 M215.21 211.69 C211.93 211.88, 209.93 215.26, 204.29 218.38 M215.21 211.69 C210.51 214.85, 206.07 216.94, 204.29 218.38 M204.29 218.38 C199.82 219.55, 198.9 218.53, 190.55 221.9 M204.29 218.38 C199.9 219.37, 195.34 220.93, 190.55 221.9 M190.55 221.9 C184.51 222.06, 180.26 225.68, 172.94 226.48 M190.55 221.9 C184.23 223.38, 178.65 225.29, 172.94 226.48 M172.94 226.48 C170.89 228.28, 165.24 226.82, 159.2 228.59 M172.94 226.48 C168.28 227.69, 164.5 228.07, 159.2 228.59 M159.2 228.59 C152.3 228.61, 147.41 230.4, 141.24 230.71 M159.2 228.59 C152.53 230.19, 147.32 230.81, 141.24 230.71 M141.24 230.71 C138.41 230.19, 131.72 229.88, 119.4 232.11 M141.24 230.71 C135.79 231.19, 128.41 232.39, 119.4 232.11 M119.4 232.11 C114.68 231.93, 110.27 232.86, 102.85 232.47 M119.4 232.11 C114.72 232.43, 110.89 232.53, 102.85 232.47 M102.85 232.47 C97.82 230.64, 91.96 231.39, 82.77 231.06 M102.85 232.47 C96.74 231.18, 88.73 231.65, 82.77 231.06 M82.77 231.06 C79.48 230.87, 78.64 229.59, 69.74 229.3 M82.77 231.06 C79.29 230.54, 76.05 229.77, 69.74 229.3 M69.74 229.3 C64.75 227.79, 60.22 228.72, 56.71 227.18 M69.74 229.3 C66.42 229.35, 64.26 228.26, 56.71 227.18 M56.71 227.18 C53.53 226.21, 49.53 226.81, 41.56 225.07 M56.71 227.18 C52.23 226.91, 48.5 226.08, 41.56 225.07 M41.56 225.07 C35.75 222.21, 31.43 222.74, 26.42 220.49 M41.56 225.07 C37.67 223.19, 34.5 222.69, 26.42 220.49 M26.42 220.49 C20.26 217.56, 15.98 215.57, 12.33 213.8 M26.42 220.49 C20.93 218.43, 16.3 216.41, 12.33 213.8 M12.33 213.8 C10.7 210.09, 4.31 206.51, -1.06 201.47 M12.33 213.8 C9.22 210.67, 4.31 207.13, -1.06 201.47 M-1.06 201.47 C1.22 127.14, 1.2 53.43, 0 0 M-1.06 201.47 C-2.35 155.17, -1.58 108.29, 0 0 M0 0 C0 0, 0 0, 0 0 M0 0 C0 0, 0 0, 0 0" stroke="#1e1e1e" stroke-width="4" fill="none"></path></g></g><mask></mask><g stroke-linecap="round" transform="translate(97.70415378586267 115.4283310709975) rotate(0 110.63787993163317 29.75136366414779)"><path d="M79.49 0.72 C92.64 -0.81, 111.56 0.43, 126.56 1.02 C141.56 1.6, 156.7 2.12, 169.49 4.26 C182.27 6.4, 194.85 10.36, 203.26 13.86 C211.67 17.35, 217.62 21.37, 219.95 25.24 C222.28 29.12, 220.98 33.36, 217.23 37.11 C213.47 40.85, 206.45 44.52, 197.41 47.71 C188.36 50.89, 176.12 54.33, 162.94 56.21 C149.77 58.08, 133.39 58.87, 118.34 58.97 C103.29 59.07, 86.59 58.13, 72.63 56.79 C58.67 55.44, 45.2 53.71, 34.58 50.91 C23.95 48.12, 14.72 43.85, 8.87 40.02 C3.01 36.18, -1.13 31.88, -0.56 27.93 C0.01 23.98, 5.58 19.92, 12.3 16.31 C19.01 12.7, 27.94 8.86, 39.75 6.27 C51.56 3.68, 75.39 1.42, 83.17 0.75 C90.95 0.08, 85.93 1.75, 86.42 2.25 M159.25 2.33 C172.91 3.52, 185.15 6.52, 194.83 9.56 C204.52 12.61, 213.23 16.63, 217.34 20.62 C221.46 24.61, 221.82 29.28, 219.52 33.5 C217.22 37.71, 211.44 42.34, 203.54 45.9 C195.64 49.45, 184.46 52.85, 172.11 54.85 C159.76 56.84, 144.25 57.26, 129.44 57.87 C114.62 58.49, 97.82 59.46, 83.22 58.56 C68.62 57.66, 53.55 54.82, 41.84 52.47 C30.13 50.12, 19.82 47.99, 12.96 44.46 C6.1 40.92, 1.56 35.58, 0.69 31.27 C-0.19 26.96, 2.76 22.23, 7.68 18.61 C12.6 14.98, 20.28 12.06, 30.22 9.52 C40.16 6.98, 53.36 5.07, 67.31 3.36 C81.26 1.65, 98.63 -0.89, 113.91 -0.74 C129.19 -0.6, 151.8 3.63, 158.97 4.22 C166.14 4.82, 157.98 2.53, 156.95 2.82" stroke="none" stroke-width="0" fill="#f5f4f2"></path><path d="M92.23 1.28 C105.94 0.15, 123.71 -0.61, 138.26 0.28 C152.81 1.17, 167.58 3.91, 179.52 6.62 C191.47 9.34, 202.92 13.05, 209.92 16.57 C216.91 20.09, 220.66 23.77, 221.48 27.72 C222.29 31.68, 220.06 36.34, 214.8 40.28 C209.54 44.22, 200.78 48.35, 189.91 51.36 C179.05 54.36, 163.73 57.03, 149.62 58.32 C135.52 59.61, 120.02 59.26, 105.27 59.08 C90.52 58.91, 74.41 59.07, 61.13 57.25 C47.85 55.44, 35.21 51.42, 25.57 48.18 C15.93 44.94, 7.42 41.76, 3.27 37.8 C-0.87 33.85, -1.59 28.51, 0.68 24.43 C2.95 20.35, 8.64 16.68, 16.89 13.34 C25.13 10, 36.19 6.54, 50.12 4.39 C64.06 2.23, 90.94 1.19, 100.5 0.41 C110.06 -0.36, 107.45 -0.71, 107.46 -0.28 M71.26 3.45 C84.16 1.83, 101.13 0.29, 115.81 0.44 C130.49 0.58, 146.16 2.6, 159.35 4.33 C172.54 6.05, 185.45 7.88, 194.94 10.78 C204.42 13.67, 212.31 18.03, 216.26 21.71 C220.22 25.39, 220.68 28.66, 218.68 32.83 C216.69 37.01, 212.42 43.12, 204.31 46.76 C196.2 50.4, 182.51 52.72, 170.04 54.68 C157.58 56.65, 144.18 57.89, 129.54 58.53 C114.89 59.16, 97.06 59.24, 82.19 58.48 C67.31 57.72, 51.89 56.56, 40.3 53.96 C28.72 51.35, 19.6 46.65, 12.69 42.85 C5.79 39.06, -0.04 34.98, -1.13 31.19 C-2.22 27.41, 0.51 23.76, 6.15 20.13 C11.8 16.5, 21.95 12.39, 32.75 9.4 C43.54 6.42, 64.61 3.41, 70.9 2.24 C77.2 1.08, 69.95 1.94, 70.52 2.44" stroke="#1e1e1e" stroke-width="4" fill="none"></path></g><g stroke-linecap="round"><g transform="translate(96.28075652945313 212.26158005132334) rotate(0 111.3462019599018 14.544496305456846)"><path d="M-0.38 -0.21 C2.61 1.79, 11.87 8.59, 17.77 11.66 C23.67 14.73, 28.48 16.06, 35.02 18.22 C41.56 20.38, 49.42 22.8, 57 24.62 C64.59 26.44, 72.18 28.31, 80.54 29.13 C88.89 29.95, 99.79 29.39, 107.14 29.53 C114.49 29.68, 118.19 30.12, 124.62 30 C131.05 29.87, 138.07 29.99, 145.7 28.78 C153.34 27.58, 163.26 24.37, 170.44 22.77 C177.62 21.17, 182.78 21.13, 188.78 19.2 C194.77 17.27, 200.55 14.14, 206.4 11.19 C212.24 8.24, 221.2 3.38, 223.84 1.51 M1.62 -1.37 C4.44 0.79, 11.11 9.29, 16.65 12.7 C22.18 16.11, 28.13 16.97, 34.82 19.09 C41.52 21.21, 49.42 24.19, 56.8 25.41 C64.18 26.63, 71.04 25.84, 79.09 26.39 C87.15 26.95, 97.49 28.27, 105.15 28.73 C112.8 29.18, 118.44 29.09, 125.02 29.13 C131.6 29.17, 137.29 29.74, 144.64 28.96 C152 28.18, 162.2 26.13, 169.16 24.44 C176.12 22.75, 180.18 20.81, 186.4 18.82 C192.62 16.82, 200.37 15.33, 206.47 12.45 C212.58 9.57, 220.4 3.2, 223.03 1.53" stroke="#1e1e1e" stroke-width="4" fill="none"></path></g></g><mask></mask><g stroke-linecap="round"><g transform="translate(97.71055381411134 281.4352763047657) rotate(0 109.01524817252186 13.804949460168814)"><path d="M-0.33 -0.95 C2.71 1.06, 12.91 8.71, 17.84 11.84 C22.78 14.97, 24.82 15.82, 29.3 17.83 C33.77 19.84, 40.13 22.8, 44.7 23.91 C49.27 25.02, 51.94 23.85, 56.72 24.5 C61.5 25.14, 67.51 27.26, 73.36 27.78 C79.22 28.3, 85.15 27.85, 91.86 27.63 C98.57 27.41, 107.29 26.55, 113.64 26.46 C120 26.37, 125.93 26.99, 130 27.09 C134.07 27.2, 133.81 27.34, 138.06 27.07 C142.31 26.8, 150.65 26.48, 155.5 25.47 C160.36 24.46, 162.89 22.3, 167.17 21.01 C171.45 19.71, 177.17 18.93, 181.19 17.7 C185.2 16.48, 187.88 14.8, 191.27 13.64 C194.67 12.47, 198.46 11.92, 201.53 10.72 C204.61 9.52, 206.92 8.04, 209.72 6.42 C212.53 4.81, 217.15 2.16, 218.35 1.04 M1.69 1.17 C4.7 3.33, 12.46 9.99, 17.47 12.93 C22.47 15.88, 27.16 17.34, 31.74 18.83 C36.33 20.32, 41.02 20.84, 44.98 21.89 C48.94 22.93, 50.58 24.23, 55.5 25.12 C60.43 26.01, 68.37 26.94, 74.53 27.22 C80.7 27.5, 86.06 26.47, 92.47 26.8 C98.88 27.12, 106.95 29.35, 113.01 29.18 C119.07 29.01, 124.58 26.16, 128.84 25.78 C133.11 25.4, 134.6 27.32, 138.59 26.9 C142.58 26.47, 147.67 24.36, 152.77 23.24 C157.87 22.13, 164.39 20.74, 169.19 20.22 C174 19.7, 177.49 21.35, 181.59 20.14 C185.68 18.93, 190.41 14.61, 193.76 12.95 C197.11 11.28, 198.9 11.57, 201.69 10.16 C204.47 8.75, 207.87 6.4, 210.47 4.48 C213.07 2.56, 215.89 -0.58, 217.27 -1.35" stroke="#1e1e1e" stroke-width="4" fill="none"></path></g></g><mask></mask><g transform="translate(116.4259393456366 392.57940334162413) rotate(0 104.36396789550781 45)"><text x="104.36396789550781" y="0" font-family="Segoe UI Emoji" font-size="36px" fill="#1e1e1e" text-anchor="middle" style="white-space: pre;" direction="ltr" dominant-baseline="text-before-edge">Oracle Base</text><text x="104.36396789550781" y="45" font-family="Segoe UI Emoji" font-size="36px" fill="#1e1e1e" text-anchor="middle" style="white-space: pre;" direction="ltr" dominant-baseline="text-before-edge">Database</text></g></svg>