<svg version="1.1" xmlns="http://www.w3.org/2000/svg" viewBox="0 0 240.49191284179688 349.0693452606358" width="240.49191284179688" height="349.0693452606358">
  <!-- svg-source:excalidraw -->
  
  <defs>
    
    
  </defs>
  <g stroke-linecap="round" transform="translate(9.371735913952762 6) rotate(0 111.96948472335953 108.62708968473706)"><path d="M103.52 0.21 C116.28 -2.52, 132.21 0.27, 145.02 4.02 C157.83 7.77, 169.73 14.69, 180.39 22.73 C191.05 30.77, 201.9 40.95, 209 52.26 C216.1 63.56, 220.86 77.64, 222.97 90.57 C225.08 103.49, 224.35 116.99, 221.66 129.8 C218.97 142.61, 214 156.31, 206.85 167.45 C199.7 178.59, 189.78 188.99, 178.75 196.64 C167.72 204.29, 153.72 210.04, 140.67 213.33 C127.62 216.62, 113.76 217.86, 100.45 216.37 C87.14 214.87, 72.8 210.21, 60.8 204.34 C48.8 198.48, 37.52 190.83, 28.48 181.18 C19.43 171.53, 11.33 158.9, 6.55 146.44 C1.78 133.98, -0.31 119.49, -0.2 106.43 C-0.08 93.38, 2.22 80.2, 7.26 68.1 C12.31 56.01, 20.86 43.31, 30.09 33.85 C39.32 24.39, 50.05 16.94, 62.67 11.34 C75.29 5.74, 98.08 1.67, 105.81 0.26 C113.53 -1.14, 108.76 1.01, 109.02 2.93 M71.32 7.18 C82.46 0.99, 99.5 -0.85, 113.05 -0.98 C126.6 -1.12, 140.1 1.48, 152.6 6.38 C165.11 11.27, 178.18 19.11, 188.09 28.38 C198 37.66, 205.92 50.17, 212.07 62.03 C218.21 73.89, 223.67 86.65, 224.96 99.54 C226.26 112.44, 223.77 126.83, 219.84 139.41 C215.91 151.99, 209.67 164.45, 201.38 175.03 C193.09 185.61, 181.7 196.37, 170.11 202.9 C158.52 209.43, 145.12 212.22, 131.84 214.2 C118.56 216.18, 103.92 216.92, 90.42 214.76 C76.92 212.6, 62.45 207.93, 50.83 201.24 C39.21 194.55, 28.44 185.35, 20.72 174.6 C13.01 163.86, 8.11 149.61, 4.52 136.77 C0.93 123.94, -2.17 110.54, -0.83 97.61 C0.52 84.68, 6.48 70.7, 12.62 59.19 C18.76 47.68, 26.15 37.1, 36.01 28.56 C45.86 20.03, 65.67 11.45, 71.75 7.98 C77.82 4.52, 71.73 6.37, 72.48 7.77" stroke="none" stroke-width="0" fill="#f5f4f2"></path><path d="M140.9 3.55 C153.85 5.17, 166.97 13.01, 177.81 20.76 C188.65 28.51, 198.78 39.22, 205.95 50.04 C213.13 60.86, 218.07 73.17, 220.83 85.68 C223.59 98.19, 224.67 112.19, 222.52 125.11 C220.37 138.03, 214.71 151.81, 207.93 163.19 C201.14 174.57, 192.38 185.25, 181.8 193.39 C171.22 201.54, 157.38 208.05, 144.43 212.07 C131.49 216.09, 117.45 218.22, 104.13 217.52 C90.81 216.81, 76.74 213.49, 64.52 207.83 C52.3 202.16, 40.06 193.01, 30.8 183.53 C21.53 174.05, 14.05 163.16, 8.93 150.95 C3.8 138.74, 0.52 123.34, 0.02 110.26 C-0.48 97.19, 1.26 84.65, 5.92 72.48 C10.58 60.3, 19.1 47.03, 27.97 37.2 C36.84 27.38, 47.24 19.75, 59.13 13.51 C71.03 7.27, 84.32 1.1, 99.33 -0.22 C114.34 -1.54, 139.48 3.63, 149.22 5.58 C158.95 7.53, 158.45 9.59, 157.76 11.5 M165 12.17 C176.95 16.58, 187.08 26.86, 195.6 36.8 C204.13 46.74, 211.62 59.34, 216.14 71.82 C220.66 84.3, 222.57 98.83, 222.7 111.67 C222.84 124.51, 222.06 136.86, 216.94 148.87 C211.82 160.88, 201.71 174.29, 191.97 183.73 C182.23 193.17, 170.3 199.97, 158.52 205.51 C146.75 211.04, 134.78 215.83, 121.33 216.94 C107.89 218.05, 91.02 215.85, 77.84 212.16 C64.65 208.48, 52.36 202.78, 42.23 194.84 C32.1 186.9, 23.7 176.11, 17.03 164.52 C10.36 152.93, 4.55 138.26, 2.2 125.28 C-0.14 112.29, 0.28 99.03, 2.96 86.59 C5.65 74.16, 11.08 61.41, 18.31 50.65 C25.54 39.89, 35.68 29.81, 46.35 22.04 C57.03 14.27, 69.33 7.79, 82.38 4.04 C95.43 0.29, 111.06 -2.07, 124.66 -0.45 C138.25 1.17, 157.7 11.21, 163.94 13.74 C170.18 16.26, 162.9 13.33, 162.08 14.69" stroke="#1e1e1e" stroke-width="4" fill="none"></path></g><g stroke-linecap="round"><g transform="translate(34.82065303332456 111.84413262455197) rotate(0 86.78594868548589 0)"><path d="M0 0 C58.77 -1.8, 119.86 -0.74, 173.57 0 M0 0 C61.09 -1.03, 120.19 -0.31, 173.57 0" stroke="#1e1e1e" stroke-width="4" fill="none"></path></g></g><mask></mask><g stroke-linecap="round"><g transform="translate(189.19090127299796 91.10224148741153) rotate(0 11.565148761354067 10.436847601435062)"><path d="M0 0 C7.04 6.37, 15.46 12.85, 23.13 20.87 M0 0 C5.33 4.63, 10.91 9.93, 23.13 20.87" stroke="#1e1e1e" stroke-width="4" fill="none"></path></g></g><mask></mask><g stroke-linecap="round"><g transform="translate(210.5009284968619 111.41176996975238) rotate(0 -10.436858361814984 11.001003561584497)"><path d="M0 0 C-7.87 7.24, -16.34 16.02, -20.87 22 M0 0 C-7.03 7.07, -13.46 14.39, -20.87 22" stroke="#1e1e1e" stroke-width="4" fill="none"></path></g></g><mask></mask><g stroke-linecap="round"><g transform="translate(58.70861890053493 87.84561764681379) rotate(0 -11.565148761354067 11.56515952173396)"><path d="M0 0 C-6.4 5.26, -11.33 11.14, -23.13 23.13 M0 0 C-5.1 5.36, -10.26 10.52, -23.13 23.13" stroke="#1e1e1e" stroke-width="4" fill="none"></path></g></g><mask></mask><g stroke-linecap="round"><g transform="translate(33.88584273699871 110.97593669028171) rotate(0 12.69346068165305 10.43683684105514)"><path d="M0 0 C5.38 3.95, 9.58 8.25, 25.39 20.87 M0 0 C7.77 5.87, 14.56 12.16, 25.39 20.87" stroke="#1e1e1e" stroke-width="4" fill="none"></path></g></g><mask></mask><g transform="translate(6 253.06934526063583) rotate(0 114.24595642089844 45)"><text x="114.24595642089844" y="0" font-family="Segoe UI Emoji" font-size="36px" fill="#1e1e1e" text-anchor="middle" style="white-space: pre;" direction="ltr" dominant-baseline="text-before-edge">Local Peering</text><text x="114.24595642089844" y="45" font-family="Segoe UI Emoji" font-size="36px" fill="#1e1e1e" text-anchor="middle" style="white-space: pre;" direction="ltr" dominant-baseline="text-before-edge">Gateway</text></g></svg>