<svg version="1.1" xmlns="http://www.w3.org/2000/svg" viewBox="0 0 221.33993530273438 344.4690839222352" width="221.33993530273438" height="344.4690839222352">
  <!-- svg-source:excalidraw -->
  
  <defs>
    
    
  </defs>
  <g stroke-linecap="round"><g transform="translate(110.27115063991096 6) rotate(0 -1.026422270547755 106.91924863638016)" fill-rule="evenodd"><path d="M1.37 1.5 L75.67 35.94 L78.01 131.41 L68.74 150.09 L62.2 162.37 L47.55 178.67 L36.4 189.32 L27.14 202.69 L0.45 215.84 L-16.95 206.6 L-32.5 196.14 L-46.14 185.39 L-58.87 171.14 L-66.86 150.85 L-73.77 134.65 L-80.13 121.2 L-81.13 35.67 L0.6 -0.12" stroke="none" stroke-width="0" fill="#f5f4f2" fill-rule="evenodd"></path><path d="M0 0 C28.19 14.06, 55.03 24.37, 77.67 35.24 M0 0 C23.2 11.65, 44.59 21.07, 77.67 35.24 M77.67 35.24 C77.53 55.39, 76.67 73.77, 77.67 131.72 M77.67 35.24 C77.85 59.24, 77.27 82.3, 77.67 131.72 M77.67 131.72 C74.04 137.55, 74.93 144.09, 69.8 149.86 M77.67 131.72 C76.29 135.77, 75.03 139.54, 69.8 149.86 M69.8 149.86 C68.39 153.15, 66.54 155.25, 61.24 163.54 M69.8 149.86 C67.38 153.78, 64.49 158.47, 61.24 163.54 M61.24 163.54 C57.43 166.21, 54.51 169.4, 47.56 178.94 M61.24 163.54 C55.2 168.88, 51.82 176.23, 47.56 178.94 M47.56 178.94 C43.92 182.01, 39.93 186.04, 36.27 191.26 M47.56 178.94 C45.56 181.27, 43.32 185.02, 36.27 191.26 M36.27 191.26 C32.59 194.14, 31.93 197.01, 25.32 201.86 M36.27 191.26 C33.3 194.94, 28.82 197.75, 25.32 201.86 M25.32 201.86 C16.52 204.93, 7.41 208.97, -1.37 213.84 M25.32 201.86 C19.11 203.85, 13.55 207.34, -1.37 213.84 M-1.37 213.84 C-5.44 212.92, -8.42 212.39, -16.08 207 M-1.37 213.84 C-6.07 211.44, -8.96 209.78, -16.08 207 M-16.08 207 C-20.79 201.95, -25.4 202.21, -31.48 197.42 M-16.08 207 C-21.23 202.66, -27.07 200.44, -31.48 197.42 M-31.48 197.42 C-35.6 192.67, -40.84 190.38, -44.82 184.76 M-31.48 197.42 C-35.27 193.86, -38.27 190.73, -44.82 184.76 M-44.82 184.76 C-47.79 179.91, -54.97 174.99, -58.51 169.36 M-44.82 184.76 C-48.55 180.58, -53.73 174.43, -58.51 169.36 M-58.51 169.36 C-60.15 163.09, -65.13 160.21, -68.09 151.91 M-58.51 169.36 C-61.4 162.79, -65.67 157.34, -68.09 151.91 M-68.09 151.91 C-69.67 144.49, -73.09 141.3, -74.59 134.46 M-68.09 151.91 C-68.96 149.02, -70 144.91, -74.59 134.46 M-74.59 134.46 C-75.29 132.53, -77.47 127.39, -79.72 123.17 M-74.59 134.46 C-76.46 130.91, -78.17 125.68, -79.72 123.17 M-79.72 123.17 C-80.41 101.04, -80.6 77.46, -79.72 35.24 M-79.72 123.17 C-80.53 97.72, -80.91 73.54, -79.72 35.24 M-79.72 35.24 C-60.92 28.28, -42.13 19.68, 0 0 M-79.72 35.24 C-59.69 25.21, -40.05 16.88, 0 0 M0 0 C0 0, 0 0, 0 0 M0 0 C0 0, 0 0, 0 0" stroke="#1e1e1e" stroke-width="4" fill="none"></path></g></g><mask></mask><g transform="translate(6 248.46908392223523) rotate(0 104.66996765136719 45)"><text x="104.66996765136719" y="0" font-family="Segoe UI Emoji" font-size="36px" fill="#1e1e1e" text-anchor="middle" style="white-space: pre;" direction="ltr" dominant-baseline="text-before-edge">Key</text><text x="104.66996765136719" y="45" font-family="Segoe UI Emoji" font-size="36px" fill="#1e1e1e" text-anchor="middle" style="white-space: pre;" direction="ltr" dominant-baseline="text-before-edge">Management</text></g><g stroke-linecap="round" transform="translate(68.710000555845 89.40257555900064) rotate(0 15.59040530582024 18.026427043237618)"><path d="M14.2 0.29 C17.35 -0.3, 21.18 0.9, 23.93 2.98 C26.67 5.07, 29.78 8.99, 30.69 12.8 C31.6 16.61, 30.82 22.26, 29.4 25.86 C27.98 29.45, 25.05 32.83, 22.17 34.37 C19.29 35.91, 15.28 36.07, 12.12 35.1 C8.95 34.13, 5.23 31.57, 3.2 28.55 C1.17 25.54, -0.34 20.89, -0.07 17.02 C0.21 13.15, 2.47 8.17, 4.88 5.32 C7.29 2.48, 12.77 0.79, 14.4 -0.03 C16.03 -0.86, 14.69 0.11, 14.67 0.36 M16.2 0 C19.42 -0.14, 23.24 1.79, 25.83 4.31 C28.42 6.83, 31.37 11.25, 31.76 15.1 C32.14 18.95, 30.07 24.18, 28.13 27.42 C26.2 30.67, 23.35 33.28, 20.17 34.59 C16.98 35.9, 12.12 36.56, 9.03 35.28 C5.94 34, 3.19 30.37, 1.65 26.91 C0.1 23.45, -0.85 18.39, -0.23 14.51 C0.4 10.63, 2.64 5.94, 5.41 3.64 C8.17 1.33, 14.63 1.12, 16.38 0.67 C18.12 0.23, 16.01 0.78, 15.87 0.95" stroke="#1e1e1e" stroke-width="4" fill="none"></path></g><g stroke-linecap="round"><g transform="translate(103.78835673825324 107.91621438381333) rotate(0 23.872838325534985 -0.48719319634597014)"><path d="M0 0 C16.74 0.03, 31.25 0.1, 47.75 -0.97 M0 0 C11.68 -0.62, 23.23 -0.87, 47.75 -0.97" stroke="#1e1e1e" stroke-width="4" fill="none"></path></g></g><mask></mask><g stroke-linecap="round"><g transform="translate(151.5340333893232 108.89060077650527) rotate(0 0 8.769626216060374)"><path d="M0 0 C-0.68 5.51, 0.72 10.87, 0 17.54 M0 0 C0.31 4.26, 0.36 9.41, 0 17.54" stroke="#1e1e1e" stroke-width="4" fill="none"></path></g></g><mask></mask><g stroke-linecap="round"><g transform="translate(128.1483882601342 106.96740442797125) rotate(0 0.26647408255462324 9.656520371291549)"><path d="M0 0 C0.65 8.13, 0.17 14.45, 0.53 19.31 M0 0 C0.02 4.69, 0.24 10.43, 0.53 19.31" stroke="#1e1e1e" stroke-width="4" fill="none"></path></g></g><mask></mask></svg>