<svg xmlns="http://www.w3.org/2000/svg" viewBox="-56.32 -92.88 249.10 326.65" width="249" height="327"><polyline points="29.40,-86.88 107.07,-51.64 107.07,44.84 99.20,62.98 90.65,76.66 76.96,92.06 65.67,104.38 54.72,114.98 28.04,126.96 13.32,120.12 -2.07,110.54 -15.42,97.88 -29.10,82.48 -38.68,65.03 -45.18,47.58 -50.32,36.29 -50.32,-51.64 29.40,-86.88" fill="#f5f4f2" stroke="#1e1e1e" stroke-width="4" opacity="1.0" stroke-linecap="round" stroke-linejoin="round"/><polyline points="-20.55,-22.21 24.27,-22.21" fill="none" stroke="#1e1e1e" stroke-width="4" opacity="1.0" stroke-linecap="round" stroke-linejoin="round"/><polyline points="-19.69,19.12 25.13,19.12" fill="none" stroke="#1e1e1e" stroke-width="4" opacity="1.0" stroke-linecap="round" stroke-linejoin="round"/><polyline points="-20.72,55.38 24.10,55.38" fill="none" stroke="#1e1e1e" stroke-width="4" opacity="1.0" stroke-linecap="round" stroke-linejoin="round"/><polyline points="48.56,-23.24 58.49,-14.00 75.94,-35.22" fill="none" stroke="#1e1e1e" stroke-width="4" opacity="1.0" stroke-linecap="round" stroke-linejoin="round"/><polyline points="47.20,55.11 57.12,64.35 74.57,43.13" fill="none" stroke="#1e1e1e" stroke-width="4" opacity="1.0" stroke-linecap="round" stroke-linejoin="round"/><polyline points="50.62,4.47 71.15,27.74" fill="none" stroke="#1e1e1e" stroke-width="4" opacity="1.0" stroke-linecap="round" stroke-linejoin="round"/><polyline points="71.49,3.45 49.59,26.71" fill="none" stroke="#1e1e1e" stroke-width="4" opacity="1.0" stroke-linecap="round" stroke-linejoin="round"/><text x="-45.96" y="173.77" font-size="36" fill="#1e1e1e" opacity="1.0" font-family="sans-serif">Security 
Lists</text></svg>