<svg version="1.1" xmlns="http://www.w3.org/2000/svg" viewBox="0 0 377.6158447265625 301.4178195371608" width="377.6158447265625" height="301.4178195371608">
  <!-- svg-source:excalidraw -->
  
  <defs>
    
    
  </defs>
  <g stroke-linecap="round"><g transform="translate(178.66509274307282 6.000000000000014) rotate(0 -1.026422270547755 106.91924863638016)" fill-rule="evenodd"><path d="M0.44 1.14 L79.28 37.18 L75.67 133.6 L70.8 151.67 L62.02 162.58 L47.82 179.33 L35.36 192.57 L24.84 200.73 L-3.02 212.71 L-15.17 207.9 L-30.52 198.79 L-46.19 183.37 L-58.14 169.27 L-67.22 150.5 L-75.55 135.53 L-79.84 123.08 L-81.23 36.14 L1.94 0.1" stroke="none" stroke-width="0" fill="#f5f4f2" fill-rule="evenodd"></path><path d="M0 0 C19.53 8.15, 40.11 15.7, 77.67 35.24 M0 0 C28.37 12.61, 57.51 26.27, 77.67 35.24 M77.67 35.24 C75.81 65.14, 79.08 93.26, 77.67 131.72 M77.67 35.24 C76.64 70.75, 76.45 107.25, 77.67 131.72 M77.67 131.72 C74.41 137.44, 70.94 142.73, 69.8 149.86 M77.67 131.72 C76.35 137.31, 72.5 143.22, 69.8 149.86 M69.8 149.86 C66.77 151.8, 66.63 158.01, 61.24 163.54 M69.8 149.86 C67.49 152.42, 65.04 155.76, 61.24 163.54 M61.24 163.54 C56.2 170.07, 50.2 177.14, 47.56 178.94 M61.24 163.54 C56.38 169.32, 50.6 174.05, 47.56 178.94 M47.56 178.94 C45.15 183.21, 40.45 186.3, 36.27 191.26 M47.56 178.94 C43.28 183.66, 40.89 187.21, 36.27 191.26 M36.27 191.26 C31.48 193.84, 28.31 198.92, 25.32 201.86 M36.27 191.26 C33.46 193.46, 30.17 197.27, 25.32 201.86 M25.32 201.86 C16.41 205.94, 3.7 210.59, -1.37 213.84 M25.32 201.86 C16.5 206.48, 8.5 210.33, -1.37 213.84 M-1.37 213.84 C-7.93 210.75, -13.46 209.11, -16.08 207 M-1.37 213.84 C-5.7 212.45, -9.93 210.43, -16.08 207 M-16.08 207 C-21.43 202.62, -28.29 198.77, -31.48 197.42 M-16.08 207 C-21.09 205.41, -24.32 202.05, -31.48 197.42 M-31.48 197.42 C-33.11 194.43, -36.63 192.94, -44.82 184.76 M-31.48 197.42 C-34.55 194.29, -37.94 191.04, -44.82 184.76 M-44.82 184.76 C-48.94 180.98, -51.96 175.91, -58.51 169.36 M-44.82 184.76 C-47.1 182.24, -51.32 177.84, -58.51 169.36 M-58.51 169.36 C-61.92 163.11, -64.22 157.66, -68.09 151.91 M-58.51 169.36 C-62.21 163.59, -64.82 157.59, -68.09 151.91 M-68.09 151.91 C-69.47 146.61, -72.99 144.44, -74.59 134.46 M-68.09 151.91 C-71.03 146.14, -72.32 140.3, -74.59 134.46 M-74.59 134.46 C-76.75 132.24, -78.04 130.36, -79.72 123.17 M-74.59 134.46 C-75.43 131.92, -77.5 129.07, -79.72 123.17 M-79.72 123.17 C-79.58 87.62, -79.55 52.12, -79.72 35.24 M-79.72 123.17 C-79.75 104.37, -81.31 87.45, -79.72 35.24 M-79.72 35.24 C-61.61 26.69, -46.86 20.63, 0 0 M-79.72 35.24 C-55.03 22.96, -30.49 12.81, 0 0 M0 0 C0 0, 0 0, 0 0 M0 0 C0 0, 0 0, 0 0" stroke="#1e1e1e" stroke-width="4" fill="none"></path></g></g><mask></mask><g stroke-linecap="round" transform="translate(129.3474727167336 59.454674465757364) rotate(0 46.38122823421122 46.95380497818766)"><path d="M58.8 1.25 C66.47 2.95, 74.41 10.04, 80.05 16.55 C85.7 23.07, 91.34 32.26, 92.68 40.34 C94.01 48.41, 91.44 57.53, 88.05 65.01 C84.65 72.49, 79.05 80.48, 72.29 85.22 C65.53 89.97, 55.79 93.33, 47.49 93.47 C39.19 93.62, 29.75 90.51, 22.51 86.11 C15.26 81.71, 7.68 74.56, 4 67.08 C0.33 59.6, -0.87 49.53, 0.44 41.21 C1.74 32.89, 6.59 23.56, 11.83 17.15 C17.08 10.74, 23.18 5.02, 31.91 2.74 C40.63 0.46, 57.98 2.81, 64.21 3.46 C70.43 4.1, 69.66 5.68, 69.26 6.6 M65.8 5.69 C73.3 8.21, 80.25 14.4, 84.5 21.3 C88.74 28.19, 91.07 38.39, 91.27 47.04 C91.47 55.7, 89.78 65.89, 85.7 73.24 C81.63 80.58, 74.72 87.54, 66.81 91.14 C58.9 94.74, 46.58 96.06, 38.24 94.83 C29.89 93.6, 22.69 89.67, 16.72 83.76 C10.75 77.86, 4.88 67.71, 2.44 59.41 C0.01 51.11, -0.06 41.8, 2.09 33.97 C4.24 26.14, 9.14 18.14, 15.37 12.42 C21.6 6.69, 31.29 1.12, 39.47 -0.38 C47.65 -1.88, 60.04 2.39, 64.46 3.42 C68.88 4.45, 65.99 4.77, 65.99 5.79" stroke="none" stroke-width="0" fill="#ffffff"></path><path d="M36.68 0.13 C44.27 -2.2, 54.29 -0.82, 62.15 2.49 C70.02 5.8, 78.86 13.07, 83.88 19.99 C88.89 26.91, 91.79 35.82, 92.22 43.99 C92.66 52.17, 90.64 61.65, 86.48 69.05 C82.31 76.44, 74.59 84.14, 67.25 88.35 C59.92 92.57, 50.51 95.15, 42.45 94.33 C34.39 93.52, 25.59 88.72, 18.9 83.47 C12.21 78.21, 5.41 70.71, 2.31 62.79 C-0.78 54.86, -1.53 44.24, 0.34 35.91 C2.22 27.58, 7.15 18.84, 13.57 12.83 C20 6.82, 34.27 1.79, 38.91 -0.14 C43.55 -2.07, 41.27 0.44, 41.42 1.24 M43.62 0.43 C51.56 -0.45, 62.5 2.62, 69.73 6.59 C76.96 10.57, 82.99 16.75, 87 24.29 C91.02 31.83, 94.49 43.24, 93.82 51.83 C93.15 60.43, 88.6 69.3, 83 75.85 C77.39 82.41, 68.13 88.46, 60.2 91.17 C52.27 93.88, 43.48 94.09, 35.41 92.11 C27.34 90.13, 17.78 85.54, 11.77 79.3 C5.76 73.05, 0.67 63.14, -0.64 54.62 C-1.95 46.1, 0.29 35.99, 3.89 28.16 C7.5 20.34, 14.08 12.17, 20.97 7.65 C27.87 3.14, 41.22 2.17, 45.27 1.08 C49.32 -0.02, 45.61 0.55, 45.28 1.08" stroke="#1e1e1e" stroke-width="4" fill="none"></path></g><g stroke-linecap="round"><g transform="translate(153.35988958989628 103.20441950061473) rotate(0 20.39034216321943 -2.9128901492346984)"><path d="M0 0 C3.84 4.7, 8.9 7.31, 13.11 11.65 M0 0 C4.08 3.64, 9.01 7.35, 13.11 11.65 M13.11 11.65 C23.7 0.89, 34.35 -12.24, 40.78 -17.48 M13.11 11.65 C23.36 0.59, 34.61 -10.65, 40.78 -17.48" stroke="#1e1e1e" stroke-width="4" fill="none"></path></g></g><mask></mask><g stroke-linecap="round"><g transform="translate(143.16470461846438 113.39960447204663) rotate(0 32.40609389528959 2.9129040390567695)"><path d="M0 0 C6.05 9.45, 14.39 19.48, 22.58 25.49 M0 0 C7.45 9.42, 15.48 17.61, 22.58 25.49 M22.58 25.49 C35.62 14.22, 43.25 1.98, 64.81 -19.66 M22.58 25.49 C32 16.23, 40.81 6.19, 64.81 -19.66" stroke="#1e1e1e" stroke-width="4" fill="none"></path></g></g><mask></mask><g stroke-linecap="round"><g transform="translate(199.96640977409288 146.8980217559328) rotate(0 34.22663287628393 16.020993049545467)" fill-rule="evenodd"><path d="M1.43 0.03 L42.49 47.78 L69.71 24.44 L14.87 -14.88 L-1.61 -1.35" stroke="none" stroke-width="0" fill="#f5f4f2" fill-rule="evenodd"></path><path d="M0 0 C15.55 16.94, 29.64 33.81, 44.42 48.06 M0 0 C15.74 16.64, 29.73 32.13, 44.42 48.06 M44.42 48.06 C50.65 41.43, 54.48 38.21, 68.45 22.58 M44.42 48.06 C51.98 39.85, 59.14 33.1, 68.45 22.58 M68.45 22.58 C58.07 13.66, 47.95 6.67, 15.29 -16.02 M68.45 22.58 C51.85 10.47, 35.83 -0.09, 15.29 -16.02 M15.29 -16.02 C10.44 -10.96, 6.12 -4.47, 0 0 M15.29 -16.02 C8.76 -9.87, 3.41 -2.7, 0 0 M0 0 C0 0, 0 0, 0 0 M0 0 C0 0, 0 0, 0 0" stroke="#1e1e1e" stroke-width="4" fill="none"></path></g></g><mask></mask><g transform="translate(6 250.41781953716082) rotate(0 182.80792236328125 22.5)"><text x="182.80792236328125" y="0" font-family="Segoe UI Emoji" font-size="36px" fill="#1e1e1e" text-anchor="middle" style="white-space: pre;" direction="ltr" dominant-baseline="text-before-edge">Vulnerability Scanning</text></g></svg>