<svg version="1.1" xmlns="http://www.w3.org/2000/svg" viewBox="0 0 197.88998985093147 196.10620593591955" width="197.88998985093147" height="196.10620593591955">
  <!-- svg-source:excalidraw -->
  
  <defs>
    
    
  </defs>
  <g stroke-linecap="round"><g transform="translate(96.97105146332206 96.72274470157924) rotate(0 2.034209280302889 1.7838541666666288)" fill-rule="evenodd"><path d="M-1.97 1.19 C-1.56 -7.92, 3.38 -39.91, 3.86 -54.23 C4.34 -68.55, 1.46 -79.05, 0.92 -84.75 C0.37 -90.45, -0.67 -87.19, 0.59 -88.42 C1.86 -89.65, 4.65 -91.97, 8.5 -92.13 C12.34 -92.29, 17.9 -90.72, 23.64 -89.38 C29.38 -88.03, 36.98 -87.02, 42.95 -84.07 C48.92 -81.12, 54.3 -75.99, 59.47 -71.69 C64.63 -67.38, 69.9 -62.98, 73.96 -58.26 C78.03 -53.54, 81.28 -48.78, 83.83 -43.37 C86.39 -37.96, 87.83 -32.61, 89.29 -25.78 C90.75 -18.95, 92.68 -11.34, 92.59 -2.4 C92.51 6.54, 91.13 19.38, 88.78 27.86 C86.42 36.35, 82.11 41.61, 78.45 48.52 C74.8 55.44, 72.33 63.42, 66.85 69.36 C61.38 75.3, 52.57 80.21, 45.61 84.15 C38.66 88.1, 33.42 91, 25.14 93.02 C16.87 95.05, 5.23 96.87, -4.03 96.28 C-13.28 95.69, -22.29 93.16, -30.4 89.47 C-38.51 85.78, -45.45 79.19, -52.69 74.13 C-59.93 69.07, -68.86 65.7, -73.84 59.1 C-78.83 52.5, -80.28 41.02, -82.61 34.52 C-84.94 28.01, -86.6 25.27, -87.83 20.05 C-89.06 14.84, -90.89 6.15, -89.98 3.23 C-89.07 0.3, -90.55 3.37, -82.36 2.49 C-74.17 1.62, -54.5 -1.73, -40.83 -2.02 C-27.15 -2.31, -7.07 0.67, -0.31 0.74" stroke="none" stroke-width="0" fill="#ced4da" fill-rule="evenodd"></path><path d="M0.33 -0.52 C0.55 -9.38, 0.86 -38.31, 0.96 -52.79 C1.05 -67.28, 0.57 -81.52, 0.92 -87.43 C1.28 -93.33, 2.14 -87.68, 3.08 -88.23 C4.02 -88.78, 3.2 -90.76, 6.55 -90.72 C9.9 -90.68, 16.92 -89.43, 23.18 -88 C29.43 -86.56, 37.92 -85.14, 44.09 -82.13 C50.27 -79.11, 55.11 -74.04, 60.21 -69.9 C65.3 -65.76, 70.96 -61.9, 74.66 -57.28 C78.35 -52.67, 79.91 -47.52, 82.37 -42.22 C84.84 -36.92, 87.66 -32.2, 89.45 -25.46 C91.25 -18.72, 92.94 -10.71, 93.14 -1.78 C93.33 7.15, 92.8 19.46, 90.6 28.12 C88.4 36.79, 84.2 43.61, 79.95 50.22 C75.69 56.82, 70.5 62.48, 65.07 67.76 C59.63 73.03, 53.98 77.96, 47.33 81.84 C40.69 85.72, 33.61 89.17, 25.19 91.06 C16.78 92.94, 5.93 93.85, -3.16 93.15 C-12.26 92.45, -20.95 89.75, -29.36 86.86 C-37.77 83.98, -46.36 80.78, -53.62 75.83 C-60.87 70.89, -67.79 64, -72.89 57.18 C-77.99 50.37, -81.62 41.31, -84.2 34.95 C-86.78 28.59, -87.25 23.93, -88.36 19.01 C-89.47 14.09, -91.46 8.62, -90.86 5.42 C-90.26 2.22, -93.2 0.73, -84.75 -0.18 C-76.3 -1.09, -54.41 -0.2, -40.15 -0.04 C-25.9 0.12, -5.99 0.86, 0.79 0.79 M-0.96 1.81 C-0.33 -7.45, 2.98 -40.02, 3.2 -54.76 C3.41 -69.49, 0.3 -80.69, 0.32 -86.6 C0.35 -92.51, 2.01 -89.58, 3.35 -90.22 C4.68 -90.87, 4.89 -90.67, 8.33 -90.48 C11.77 -90.29, 18.43 -90.81, 23.99 -89.06 C29.54 -87.32, 35.82 -83.23, 41.66 -79.99 C47.51 -76.75, 53.8 -73.17, 59.06 -69.63 C64.32 -66.1, 69.29 -63.29, 73.23 -58.78 C77.18 -54.27, 79.95 -48.3, 82.73 -42.58 C85.5 -36.85, 87.85 -31.1, 89.88 -24.43 C91.91 -17.75, 94.66 -11.21, 94.89 -2.52 C95.12 6.17, 93.82 19, 91.26 27.73 C88.7 36.46, 83.93 42.75, 79.56 49.85 C75.18 56.94, 70.74 64.83, 65.01 70.29 C59.28 75.76, 52.05 79.14, 45.18 82.62 C38.31 86.11, 31.53 89.45, 23.77 91.19 C16.02 92.93, 7.7 93.81, -1.36 93.07 C-10.42 92.32, -21.89 89.82, -30.61 86.73 C-39.33 83.64, -47 79.1, -53.68 74.51 C-60.37 69.93, -65.69 65.51, -70.73 59.22 C-75.77 52.93, -81.05 43.09, -83.93 36.77 C-86.81 30.45, -87.05 26.66, -88.01 21.3 C-88.96 15.95, -90.44 8.2, -89.68 4.64 C-88.91 1.07, -91.86 0.76, -83.39 -0.08 C-74.92 -0.92, -52.59 -0.54, -38.85 -0.4 C-25.12 -0.26, -7.23 0.48, -0.99 0.76" stroke="#000000" stroke-width="1" fill="none"></path></g></g><mask></mask></svg>