<svg version="1.1" xmlns="http://www.w3.org/2000/svg" viewBox="0 0 109.68435345265607 161.7821044921875" width="109.68435345265607" height="161.7821044921875">
  <!-- svg-source:excalidraw -->
  
  <defs>
    
    
  </defs>
  <g stroke-linecap="round" transform="translate(6 6) rotate(0 43.92912551591962 59.866575996830676)"><path d="M-1.54 0.25 L87.37 -0.88 L89.01 120.62 L-1.62 118.34" stroke="none" stroke-width="0" fill="#fbbd9b"></path><path d="M0 0 C20.31 0.85, 36.61 -1.34, 87.86 0 M0 0 C18.98 -0.38, 36.3 -0.72, 87.86 0 M87.86 0 C87.54 44.16, 85.88 89.41, 87.86 119.73 M87.86 0 C87.39 27, 88.16 54.79, 87.86 119.73 M87.86 119.73 C59.8 119.84, 26.08 120.43, 0 119.73 M87.86 119.73 C62.57 120.09, 39.32 119.4, 0 119.73 M0 119.73 C0.23 89.63, 0.1 61.33, 0 0 M0 119.73 C0.02 86.79, -0.24 51.6, 0 0" stroke="#000000" stroke-width="4" fill="none"></path></g><g stroke-linecap="round" transform="translate(45.34841595265607 20.49223930090261) rotate(0 29.16796875 15)"><path d="M0.25 -0.49 L57.46 1.16 L59.22 28.38 L-1.39 30.51" stroke="none" stroke-width="0" fill="#fff"></path><path d="M0 0 C16.87 -0.92, 30.47 -2.37, 58.34 0 M0 0 C18.84 -0.65, 37.92 0.24, 58.34 0 M58.34 0 C58.68 6.13, 60.12 13.56, 58.34 30 M58.34 0 C58.23 8.3, 58.82 15.09, 58.34 30 M58.34 30 C46.32 28.71, 35.23 30.14, 0 30 M58.34 30 C43.52 30.07, 27.84 29.04, 0 30 M0 30 C-0.4 21.38, 1.1 12.6, 0 0 M0 30 C0.84 21.49, -0.54 13.65, 0 0" stroke="#000000" stroke-width="4" fill="none"></path></g><g transform="translate(54.63892527286907 24.914191214271796) rotate(0 21.5 12.5)"><text x="0" y="0" font-family="Virgil, Segoe UI Emoji" font-size="20px" fill="#000000" text-anchor="start" style="white-space: pre;" direction="ltr" dominant-baseline="text-before-edge">MP3</text></g><g stroke-linecap="round"><g transform="translate(37.86016740106243 79.30988802982074) rotate(0 -0.016546610265379513 13.433403637879508)"><path d="M0 0 C-0.01 4.48, -0.03 22.39, -0.03 26.87 M0 0 C-0.01 4.48, -0.03 22.39, -0.03 26.87" stroke="#000" stroke-width="4" fill="none"></path></g></g><mask></mask><g stroke-linecap="round"><g transform="translate(71.7032158666907 69.92923265359138) rotate(0 -0.016546610265379513 13.433403637879508)"><path d="M0 0 C-0.01 4.48, -0.03 22.39, -0.03 26.87 M0 0 C-0.01 4.48, -0.03 22.39, -0.03 26.87" stroke="#000" stroke-width="4" fill="none"></path></g></g><mask></mask><g stroke-linecap="round"><g transform="translate(37.63416370097093 73.37467101827775) rotate(0 17.091823935431364 1.382077874046729)" fill-rule="evenodd"><path d="M0 0 L34.01 -6.28 L34.18 2.28 L0.22 9.04 L0 0" stroke="none" stroke-width="0" fill="#feeb9e" fill-rule="evenodd"></path><path d="M0 0 C7.12 -1.31, 14.24 -2.63, 34.01 -6.28 M0 0 C8.48 -1.57, 16.96 -3.13, 34.01 -6.28 M34.01 -6.28 C34.08 -3, 34.14 0.28, 34.18 2.28 M34.01 -6.28 C34.07 -3.67, 34.12 -1.05, 34.18 2.28 M34.18 2.28 C21.07 4.89, 7.96 7.5, 0.22 9.04 M34.18 2.28 C26.85 3.74, 19.51 5.2, 0.22 9.04 M0.22 9.04 C0.14 5.53, 0.05 2.01, 0 0 M0.22 9.04 C0.16 6.54, 0.1 4.03, 0 0 M0 0 C0 0, 0 0, 0 0 M0 0 C0 0, 0 0, 0 0" stroke="#000" stroke-width="4" fill="none"></path></g></g><mask></mask><g stroke-linecap="round" transform="translate(58.3494522267265 94.11856386141369) rotate(343.3403154555469 6.744755846886619 3.8267797147306624)"><path d="M13.49 3.83 C13.49 4.05, 13.45 4.27, 13.39 4.49 C13.32 4.71, 13.22 4.93, 13.08 5.14 C12.95 5.34, 12.78 5.55, 12.59 5.74 C12.39 5.93, 12.16 6.12, 11.91 6.29 C11.66 6.46, 11.38 6.62, 11.08 6.76 C10.78 6.9, 10.46 7.03, 10.12 7.14 C9.78 7.25, 9.42 7.35, 9.05 7.42 C8.68 7.5, 8.3 7.56, 7.92 7.6 C7.53 7.63, 7.14 7.65, 6.74 7.65 C6.35 7.65, 5.96 7.63, 5.57 7.6 C5.19 7.56, 4.8 7.5, 4.44 7.42 C4.07 7.35, 3.71 7.25, 3.37 7.14 C3.03 7.03, 2.71 6.9, 2.41 6.76 C2.11 6.62, 1.83 6.46, 1.58 6.29 C1.33 6.12, 1.1 5.93, 0.9 5.74 C0.71 5.55, 0.54 5.34, 0.41 5.14 C0.27 4.93, 0.17 4.71, 0.1 4.49 C0.03 4.27, 0 4.05, 0 3.83 C0 3.61, 0.03 3.38, 0.1 3.16 C0.17 2.94, 0.27 2.73, 0.41 2.52 C0.54 2.31, 0.71 2.11, 0.9 1.91 C1.1 1.72, 1.33 1.54, 1.58 1.37 C1.83 1.2, 2.11 1.04, 2.41 0.9 C2.71 0.75, 3.03 0.62, 3.37 0.51 C3.71 0.4, 4.07 0.31, 4.44 0.23 C4.8 0.16, 5.19 0.1, 5.57 0.06 C5.96 0.02, 6.35 0, 6.74 0 C7.14 0, 7.53 0.02, 7.92 0.06 C8.3 0.1, 8.68 0.16, 9.05 0.23 C9.42 0.31, 9.78 0.4, 10.12 0.51 C10.46 0.62, 10.78 0.75, 11.08 0.9 C11.38 1.04, 11.66 1.2, 11.91 1.37 C12.16 1.54, 12.39 1.72, 12.59 1.91 C12.78 2.11, 12.95 2.31, 13.08 2.52 C13.22 2.73, 13.32 2.94, 13.39 3.16 C13.45 3.38, 13.47 3.72, 13.49 3.83 C13.51 3.94, 13.51 3.72, 13.49 3.83" stroke="none" stroke-width="0" fill="#feeb9e"></path><path d="M13.49 3.83 C13.49 4.05, 13.45 4.27, 13.39 4.49 C13.32 4.71, 13.22 4.93, 13.08 5.14 C12.95 5.34, 12.78 5.55, 12.59 5.74 C12.39 5.93, 12.16 6.12, 11.91 6.29 C11.66 6.46, 11.38 6.62, 11.08 6.76 C10.78 6.9, 10.46 7.03, 10.12 7.14 C9.78 7.25, 9.42 7.35, 9.05 7.42 C8.68 7.5, 8.3 7.56, 7.92 7.6 C7.53 7.63, 7.14 7.65, 6.74 7.65 C6.35 7.65, 5.96 7.63, 5.57 7.6 C5.19 7.56, 4.8 7.5, 4.44 7.42 C4.07 7.35, 3.71 7.25, 3.37 7.14 C3.03 7.03, 2.71 6.9, 2.41 6.76 C2.11 6.62, 1.83 6.46, 1.58 6.29 C1.33 6.12, 1.1 5.93, 0.9 5.74 C0.71 5.55, 0.54 5.34, 0.41 5.14 C0.27 4.93, 0.17 4.71, 0.1 4.49 C0.03 4.27, 0 4.05, 0 3.83 C0 3.61, 0.03 3.38, 0.1 3.16 C0.17 2.94, 0.27 2.73, 0.41 2.52 C0.54 2.31, 0.71 2.11, 0.9 1.91 C1.1 1.72, 1.33 1.54, 1.58 1.37 C1.83 1.2, 2.11 1.04, 2.41 0.9 C2.71 0.75, 3.03 0.62, 3.37 0.51 C3.71 0.4, 4.07 0.31, 4.44 0.23 C4.8 0.16, 5.19 0.1, 5.57 0.06 C5.96 0.02, 6.35 0, 6.74 0 C7.14 0, 7.53 0.02, 7.92 0.06 C8.3 0.1, 8.68 0.16, 9.05 0.23 C9.42 0.31, 9.78 0.4, 10.12 0.51 C10.46 0.62, 10.78 0.75, 11.08 0.9 C11.38 1.04, 11.66 1.2, 11.91 1.37 C12.16 1.54, 12.39 1.72, 12.59 1.91 C12.78 2.11, 12.95 2.31, 13.08 2.52 C13.22 2.73, 13.32 2.94, 13.39 3.16 C13.45 3.38, 13.47 3.72, 13.49 3.83 C13.51 3.94, 13.51 3.72, 13.49 3.83" stroke="#000" stroke-width="4" fill="none"></path></g><g stroke-linecap="round" transform="translate(24.527117496330447 102.89794803977895) rotate(341.4986058719535 6.844560894087465 3.787549204919088)"><path d="M13.69 3.79 C13.69 4.01, 13.65 4.23, 13.59 4.45 C13.52 4.66, 13.41 4.88, 13.28 5.08 C13.14 5.29, 12.97 5.49, 12.77 5.68 C12.57 5.87, 12.34 6.05, 12.09 6.22 C11.83 6.39, 11.55 6.55, 11.24 6.69 C10.94 6.83, 10.61 6.96, 10.27 7.07 C9.92 7.18, 9.56 7.27, 9.19 7.35 C8.81 7.42, 8.42 7.48, 8.03 7.52 C7.64 7.56, 7.24 7.58, 6.84 7.58 C6.45 7.58, 6.05 7.56, 5.66 7.52 C5.27 7.48, 4.88 7.42, 4.5 7.35 C4.13 7.27, 3.77 7.18, 3.42 7.07 C3.08 6.96, 2.75 6.83, 2.44 6.69 C2.14 6.55, 1.86 6.39, 1.6 6.22 C1.35 6.05, 1.12 5.87, 0.92 5.68 C0.72 5.49, 0.55 5.29, 0.41 5.08 C0.28 4.88, 0.17 4.66, 0.1 4.45 C0.04 4.23, 0 4.01, 0 3.79 C0 3.57, 0.04 3.35, 0.1 3.13 C0.17 2.91, 0.28 2.7, 0.41 2.49 C0.55 2.29, 0.72 2.08, 0.92 1.89 C1.12 1.7, 1.35 1.52, 1.6 1.35 C1.86 1.19, 2.14 1.03, 2.44 0.89 C2.75 0.75, 3.08 0.62, 3.42 0.51 C3.77 0.4, 4.13 0.3, 4.5 0.23 C4.88 0.15, 5.27 0.1, 5.66 0.06 C6.05 0.02, 6.45 0, 6.84 0 C7.24 0, 7.64 0.02, 8.03 0.06 C8.42 0.1, 8.81 0.15, 9.19 0.23 C9.56 0.3, 9.92 0.4, 10.27 0.51 C10.61 0.62, 10.94 0.75, 11.24 0.89 C11.55 1.03, 11.83 1.19, 12.09 1.35 C12.34 1.52, 12.57 1.7, 12.77 1.89 C12.97 2.08, 13.14 2.29, 13.28 2.49 C13.41 2.7, 13.52 2.91, 13.59 3.13 C13.65 3.35, 13.67 3.68, 13.69 3.79 C13.71 3.9, 13.71 3.68, 13.69 3.79" stroke="none" stroke-width="0" fill="#feeb9e"></path><path d="M13.69 3.79 C13.69 4.01, 13.65 4.23, 13.59 4.45 C13.52 4.66, 13.41 4.88, 13.28 5.08 C13.14 5.29, 12.97 5.49, 12.77 5.68 C12.57 5.87, 12.34 6.05, 12.09 6.22 C11.83 6.39, 11.55 6.55, 11.24 6.69 C10.94 6.83, 10.61 6.96, 10.27 7.07 C9.92 7.18, 9.56 7.27, 9.19 7.35 C8.81 7.42, 8.42 7.48, 8.03 7.52 C7.64 7.56, 7.24 7.58, 6.84 7.58 C6.45 7.58, 6.05 7.56, 5.66 7.52 C5.27 7.48, 4.88 7.42, 4.5 7.35 C4.13 7.27, 3.77 7.18, 3.42 7.07 C3.08 6.96, 2.75 6.83, 2.44 6.69 C2.14 6.55, 1.86 6.39, 1.6 6.22 C1.35 6.05, 1.12 5.87, 0.92 5.68 C0.72 5.49, 0.55 5.29, 0.41 5.08 C0.28 4.88, 0.17 4.66, 0.1 4.45 C0.04 4.23, 0 4.01, 0 3.79 C0 3.57, 0.04 3.35, 0.1 3.13 C0.17 2.91, 0.28 2.7, 0.41 2.49 C0.55 2.29, 0.72 2.08, 0.92 1.89 C1.12 1.7, 1.35 1.52, 1.6 1.35 C1.86 1.19, 2.14 1.03, 2.44 0.89 C2.75 0.75, 3.08 0.62, 3.42 0.51 C3.77 0.4, 4.13 0.3, 4.5 0.23 C4.88 0.15, 5.27 0.1, 5.66 0.06 C6.05 0.02, 6.45 0, 6.84 0 C7.24 0, 7.64 0.02, 8.03 0.06 C8.42 0.1, 8.81 0.15, 9.19 0.23 C9.56 0.3, 9.92 0.4, 10.27 0.51 C10.61 0.62, 10.94 0.75, 11.24 0.89 C11.55 1.03, 11.83 1.19, 12.09 1.35 C12.34 1.52, 12.57 1.7, 12.77 1.89 C12.97 2.08, 13.14 2.29, 13.28 2.49 C13.41 2.7, 13.52 2.91, 13.59 3.13 C13.65 3.35, 13.67 3.68, 13.69 3.79 C13.71 3.9, 13.71 3.68, 13.69 3.79" stroke="#000" stroke-width="4" fill="none"></path></g><g transform="translate(29.0096435546875 130.7821044921875) rotate(0 21.5 12.5)"><text x="0" y="0" font-family="Virgil, Segoe UI Emoji" font-size="20px" fill="#000" text-anchor="start" style="white-space: pre;" direction="ltr" dominant-baseline="text-before-edge">MP3</text></g></svg>