<svg version="1.1" xmlns="http://www.w3.org/2000/svg" viewBox="0 0 382.10037018101593 68.93649821020168" width="382.10037018101593" height="68.93649821020168">
  <!-- svg-source:excalidraw -->
  
  <defs>
    
    
  </defs>
  <g stroke-linecap="round" transform="translate(43.19048121149581 6) rotate(0 146.51432778709147 19.668082937527302)"><path d="M0 0 C0 0, 0 0, 0 0 M0 0 C0 0, 0 0, 0 0 M0.13 12.04 C2.37 8.6, 5.86 6.21, 10.63 -0.03 M0.13 12.04 C2.83 8.59, 3.99 6.27, 10.63 -0.03 M0.27 24.08 C4.87 18.23, 11.09 11.56, 21.26 -0.07 M0.27 24.08 C8.55 14.65, 15.18 6.6, 21.26 -0.07 M-0.26 36.88 C9.34 22.87, 23.85 11.6, 31.89 -0.1 M-0.26 36.88 C10.43 23.86, 21.68 10.92, 31.89 -0.1 M8.41 39.11 C17.25 28.66, 26.71 14.86, 42.52 -0.14 M8.41 39.11 C19.07 28.5, 29.7 15.2, 42.52 -0.14 M18.38 39.83 C27.85 27.49, 36.35 17.47, 53.15 -0.17 M18.38 39.83 C28.07 28.14, 38.64 16.57, 53.15 -0.17 M29.01 39.79 C39.79 28.41, 46.93 20.99, 63.78 -0.21 M29.01 39.79 C42.96 23.2, 55.66 7.38, 63.78 -0.21 M39.64 39.76 C50.56 29.33, 61.01 14.46, 74.41 -0.24 M39.64 39.76 C53.61 23.89, 66.19 8.74, 74.41 -0.24 M50.27 39.72 C61.41 24.62, 76.42 9.99, 85.04 -0.28 M50.27 39.72 C59.82 29.89, 69.73 17.38, 85.04 -0.28 M60.9 39.69 C70.52 29.91, 78.96 19.09, 95.67 -0.31 M60.9 39.69 C71.12 26.63, 82.71 14.85, 95.67 -0.31 M71.53 39.65 C81.14 30.36, 88.25 16.96, 106.3 -0.34 M71.53 39.65 C81.94 27.16, 92.28 14.54, 106.3 -0.34 M82.16 39.62 C90.75 33.08, 95.32 22.84, 116.27 0.38 M82.16 39.62 C93.52 27.41, 104.66 14.25, 116.27 0.38 M92.79 39.59 C104.73 24.83, 116.44 13.07, 126.91 0.34 M92.79 39.59 C102.56 27.67, 112.18 15.84, 126.91 0.34 M103.42 39.55 C111.86 28.71, 125.76 14.2, 137.54 0.31 M103.42 39.55 C117.13 23.92, 130.57 9.28, 137.54 0.31 M114.05 39.52 C121.77 28.14, 134.19 18.94, 148.17 0.27 M114.05 39.52 C120.85 30.23, 129.03 22.7, 148.17 0.27 M124.68 39.48 C135.35 27.7, 144.79 14.46, 158.8 0.24 M124.68 39.48 C138.2 25.07, 149.91 9.16, 158.8 0.24 M135.31 39.45 C147.41 23.85, 162.01 9.17, 169.43 0.2 M135.31 39.45 C144.16 30.23, 151.62 21.07, 169.43 0.2 M145.94 39.41 C157.75 26.12, 172.4 9.59, 180.06 0.17 M145.94 39.41 C158.2 24.33, 171.43 10.65, 180.06 0.17 M156.57 39.38 C166.2 29.26, 177.02 16.75, 190.69 0.13 M156.57 39.38 C165.14 28.92, 174.68 19.4, 190.69 0.13 M167.2 39.34 C180.95 25.26, 192.29 10, 201.32 0.1 M167.2 39.34 C178.3 27.7, 187.16 15.98, 201.32 0.1 M177.83 39.31 C187.85 27.19, 199.71 14.21, 211.95 0.06 M177.83 39.31 C186.01 28.52, 195.25 18.2, 211.95 0.06 M188.46 39.28 C202.85 22.95, 215.68 10.21, 222.58 0.03 M188.46 39.28 C199.88 27.26, 211.23 12.72, 222.58 0.03 M199.09 39.24 C207.7 29.29, 218.08 15.89, 233.21 0 M199.09 39.24 C210.57 26.37, 222.09 12.25, 233.21 0 M209.72 39.21 C221.56 26.34, 231.17 13.43, 243.84 -0.04 M209.72 39.21 C218.43 30.23, 226.64 20.33, 243.84 -0.04 M220.35 39.17 C231.07 29.69, 238.64 16.36, 254.47 -0.07 M220.35 39.17 C233.74 23.26, 246.98 8.74, 254.47 -0.07 M230.98 39.14 C242.42 26.57, 254.06 14.41, 265.1 -0.11 M230.98 39.14 C240.83 28.7, 250.45 18.54, 265.1 -0.11 M241.61 39.1 C249.75 28.36, 261.92 17.28, 275.73 -0.14 M241.61 39.1 C251.62 26.97, 260.19 16.85, 275.73 -0.14 M251.59 39.82 C257.18 31.79, 264.57 23.99, 286.36 -0.18 M251.59 39.82 C261.25 27.01, 271.99 15.95, 286.36 -0.18 M262.22 39.79 C273.76 25.54, 287.37 11.33, 293.71 3.56 M262.22 39.79 C273.14 27.62, 284.31 14.54, 293.71 3.56 M272.85 39.75 C282.15 31.65, 287.13 20.66, 293.84 15.6 M272.85 39.75 C277.67 35.44, 281.84 30.23, 293.84 15.6 M283.48 39.72 C287.92 34.62, 290.12 30.37, 293.97 27.64 M283.48 39.72 C288.02 34.64, 291.19 29.97, 293.97 27.64" stroke="#fa5252" stroke-width="1" fill="none"></path><path d="M0 0 C111.03 2.28, 219.73 2.13, 293.03 0 M0 0 C72.49 -0.93, 143.43 -1, 293.03 0 M293.03 0 C293.7 13.52, 291.82 22.14, 293.03 39.34 M293.03 0 C293.15 13.95, 292.68 28.85, 293.03 39.34 M293.03 39.34 C186.62 40.27, 79.12 39.46, 0 39.34 M293.03 39.34 C231.53 40.76, 171.56 40.49, 0 39.34 M0 39.34 C0.72 26.96, -1.05 14.75, 0 0 M0 39.34 C0.02 26.21, 0.36 13.21, 0 0" stroke="#000000" stroke-width="2" fill="none"></path></g><g stroke-linecap="round"><g transform="translate(63.97523923867573 59.48367275511683) rotate(0 -28.979618499191474 -19.120980358503104)" fill-rule="evenodd"><path d="M-58.12 -38.6 C-58.12 -38.6, -58.12 -38.6, -58.12 -38.6 M-58.12 -38.6 C-58.12 -38.6, -58.12 -38.6, -58.12 -38.6 M-52.74 -32.6 C-50.86 -34.71, -50.27 -35.82, -47.49 -38.64 M-52.74 -32.6 C-50.97 -34.74, -49.95 -35.76, -47.49 -38.64 M-46.05 -28.1 C-43.32 -31.09, -41.59 -32.04, -36.86 -38.67 M-46.05 -28.1 C-42.69 -31.34, -39.7 -34.94, -36.86 -38.67 M-39.35 -23.61 C-35.56 -30.87, -29.36 -34.49, -26.23 -38.7 M-39.35 -23.61 C-35.09 -29.45, -31.55 -33.08, -26.23 -38.7 M-53 4.28 C-53 4.28, -53 4.28, -53 4.28 M-53 4.28 C-53 4.28, -53 4.28, -53 4.28 M-32 -19.87 C-29.48 -22.17, -24.83 -26.16, -17.57 -36.47 M-32 -19.87 C-29.41 -24.02, -25.03 -27.75, -17.57 -36.47 M-42.37 4.25 C-31.08 -7.96, -21.43 -19.17, -17.44 -24.43 M-42.37 4.25 C-34.82 -3.83, -28.86 -11.54, -17.44 -24.43 M-32.39 4.97 C-26.23 0.76, -23.73 -7.43, -17.3 -12.39 M-32.39 4.97 C-27.65 0.05, -22.89 -6.17, -17.3 -12.39 M-21.76 4.93 C-18.07 -0.95, -12.58 -4.84, -10.61 -7.9 M-21.76 4.93 C-17.94 -0.59, -12.2 -6.22, -10.61 -7.9 M-11.13 4.9 C-9.58 3.08, -8.73 1.59, -4.57 -2.65 M-11.13 4.9 C-8.81 2.41, -6.53 -0.36, -4.57 -2.65" stroke="#fa5252" stroke-width="1" fill="none"></path><path d="M0 0 C-4.36 -2.55, -9.89 -6.02, -19.69 -14.33 M0 0 C-7.53 -5.25, -13.1 -10.29, -19.69 -14.33 M-19.69 -14.33 C-20.73 -23.65, -18.49 -28.53, -19.69 -38.79 M-19.69 -14.33 C-20.27 -21.92, -18.99 -30.11, -19.69 -38.79 M-19.69 -38.79 C-31.19 -39.91, -47.82 -40.68, -57.96 -38.79 M-19.69 -38.79 C-32.43 -38.88, -47.24 -38, -57.96 -38.79 M-57.96 -38.79 C-58 -38.55, -57.9 -38.15, -57.96 -37.48 M-57.96 -38.79 C-57.95 -38.45, -57.94 -38.15, -57.96 -37.48 M-57.96 -37.48 C-46.49 -29.77, -36.97 -23.75, -29.45 -18.87 M-57.96 -37.48 C-48.74 -31.09, -37.96 -24.41, -29.45 -18.87 M-29.45 -18.87 C-39.88 -12.38, -49.3 -6.37, -57.96 -0.26 M-29.45 -18.87 C-40.78 -12.63, -50.95 -4.98, -57.96 -0.26 M-57.96 -0.26 C-57.92 -0.01, -57.91 0.36, -57.96 0.55 M-57.96 -0.26 C-57.99 -0.1, -57.97 0.09, -57.96 0.55 M-57.96 0.55 C-39.57 2.55, -18.66 2.12, 0 0.55 M-57.96 0.55 C-35.42 0.22, -12.88 0.76, 0 0.55 M0 0.55 C0.03 0.28, -0.02 0.11, 0 0 M0 0.55 C0.03 0.39, -0.01 0.17, 0 0 M0 0 C0 0, 0 0, 0 0 M0 0 C0 0, 0 0, 0 0 M0 0 C0 0, 0 0, 0 0 M0 0 C0 0, 0 0, 0 0" stroke="#000000" stroke-width="2" fill="none"></path></g></g><mask></mask><g stroke-linecap="round"><g transform="translate(318.1197352847653 61.43021180235772) rotate(0 28.979610991909226 -19.12098035850309)" fill-rule="evenodd"><path d="M19.57 -38.64 C19.57 -38.64, 19.57 -38.64, 19.57 -38.64 M19.57 -38.64 C19.57 -38.64, 19.57 -38.64, 19.57 -38.64 M19.7 -26.6 C21.71 -29.84, 24.57 -32.26, 30.2 -38.68 M19.7 -26.6 C23.26 -30.5, 27.16 -35.32, 30.2 -38.68 M6.71 0.53 C10.52 -2.24, 14.79 -8.57, 18.52 -13.05 M6.71 0.53 C9.7 -2.51, 14.11 -6.83, 18.52 -13.05 M19.83 -14.56 C27.86 -22.7, 36.29 -32.34, 40.83 -38.71 M19.83 -14.56 C24.6 -20.36, 30.8 -26.54, 40.83 -38.71 M17.34 0.5 C23.93 -7.88, 29.12 -13.19, 32.43 -16.86 M17.34 0.5 C22.99 -5.3, 26.9 -11.36, 32.43 -16.86 M38.99 -24.41 C42.4 -26.57, 44.47 -32.42, 51.46 -38.75 M38.99 -24.41 C42.58 -28.3, 46.71 -33.17, 51.46 -38.75 M27.97 0.46 C33.42 -5.41, 35.76 -8.36, 39.12 -12.37 M27.97 0.46 C30.3 -2.54, 33.34 -6.25, 39.12 -12.37 M38.6 0.43 C39.75 -2.45, 42.86 -5.32, 45.82 -7.87 M38.6 0.43 C40.28 -1.77, 42.28 -3.37, 45.82 -7.87 M49.23 0.4 C50.61 -0.92, 51.71 -1.61, 52.51 -3.38 M49.23 0.4 C50.69 -1.24, 51.52 -2.58, 52.51 -3.38" stroke="#fa5252" stroke-width="1" fill="none"></path><path d="M0 0 C5.55 -4.65, 13.89 -8.57, 19.69 -14.33 M0 0 C5.38 -4.46, 10.76 -7.05, 19.69 -14.33 M19.69 -14.33 C21.12 -22.43, 20.06 -33.33, 19.69 -38.79 M19.69 -14.33 C20.51 -21.05, 20.28 -26.05, 19.69 -38.79 M19.69 -38.79 C29.28 -40.46, 43.71 -39.65, 57.96 -38.79 M19.69 -38.79 C31.82 -38.02, 43.88 -38.23, 57.96 -38.79 M57.96 -38.79 C58 -38.53, 57.86 -38.16, 57.96 -37.48 M57.96 -38.79 C57.98 -38.34, 57.99 -37.99, 57.96 -37.48 M57.96 -37.48 C50.49 -30.65, 41.35 -27.28, 29.45 -18.87 M57.96 -37.48 C49.24 -31.91, 41.36 -25.28, 29.45 -18.87 M29.45 -18.87 C38.43 -15.72, 45.24 -7.83, 57.96 -0.26 M29.45 -18.87 C39.07 -12.04, 50.4 -5.86, 57.96 -0.26 M57.96 -0.26 C58.02 -0.03, 57.88 0.17, 57.96 0.55 M57.96 -0.26 C57.94 0.06, 57.96 0.37, 57.96 0.55 M57.96 0.55 C46.36 2.09, 34.37 1.53, 0 0.55 M57.96 0.55 C43.28 0.2, 28.83 0.22, 0 0.55 M0 0.55 C-0.03 0.41, 0.02 0.23, 0 0 M0 0.55 C-0.02 0.35, -0.02 0.16, 0 0 M0 0 C0 0, 0 0, 0 0 M0 0 C0 0, 0 0, 0 0 M0 0 C0 0, 0 0, 0 0 M0 0 C0 0, 0 0, 0 0" stroke="#000000" stroke-width="2" fill="none"></path></g></g><mask></mask><g stroke-linecap="round"><g transform="translate(63.15939791771382 58.04074012632714) rotate(0 -0.08806042094585109 -6.339381868687852)"><path d="M0 0 C0.17 -3.78, -0.3 -8.89, -0.18 -12.68 M0 0 C0.01 -3.09, 0.17 -6.63, -0.18 -12.68" stroke="#000000" stroke-width="2" fill="none"></path></g></g><mask></mask><g stroke-linecap="round"><g transform="translate(317.48343451902315 60.81679992762773) rotate(0 0.05804630645809539 -7.61759426864522)"><path d="M0 0 C-0.25 -5.46, -0.29 -9.48, 0.12 -15.24 M0 0 C0.33 -3.63, -0.26 -6.66, 0.12 -15.24" stroke="#000000" stroke-width="2" fill="none"></path></g></g><mask></mask></svg>