<svg version="1.1" xmlns="http://www.w3.org/2000/svg" viewBox="0 0 109.67525151090831 172.79960384859362" width="109.67525151090831" height="172.79960384859362">
  <!-- svg-source:excalidraw -->
  
  <defs>
    
    
  </defs>
  <g transform="translate(34.70320139953765 141.79960384859362) rotate(0 22 12.5)"><text x="0" y="0" font-family="Virgil, Segoe UI Emoji" font-size="20px" fill="#000" text-anchor="start" style="white-space: pre;" direction="ltr" dominant-baseline="text-before-edge">DOC</text></g><g stroke-linecap="round" transform="translate(6 6) rotate(0 43.92912551591962 59.866575996830704)"><path d="M-1.25 -1.35 L86 -1.76 L86.51 118.54 L1.2 121.33" stroke="none" stroke-width="0" fill="#a0daf7"></path><path d="M0 0 C34.06 1.54, 65.69 -0.55, 87.86 0 M0 0 C26.07 0.59, 51.39 0.15, 87.86 0 M87.86 0 C89.83 23.01, 88.04 50.36, 87.86 119.73 M87.86 0 C88.98 38.14, 88.49 75.51, 87.86 119.73 M87.86 119.73 C65.77 122.07, 39.85 120.37, 0 119.73 M87.86 119.73 C58.79 119.3, 28.42 119.7, 0 119.73 M0 119.73 C-1.23 75.32, -0.54 27.37, 0 0 M0 119.73 C0.79 75.78, 0.24 32.18, 0 0" stroke="#000000" stroke-width="4" fill="none"></path></g><g stroke-linecap="round" transform="translate(45.33931401090831 20.4825232163912) rotate(0 29.16796875 15)"><path d="M-1.35 -1.86 L56.57 -1.35 L57.15 31.2 L1.6 31.21" stroke="none" stroke-width="0" fill="#fff"></path><path d="M0 0 C21.97 0.61, 40.79 -0.74, 58.34 0 M0 0 C20.58 0.24, 40.91 -1.33, 58.34 0 M58.34 0 C56.37 9.76, 58.86 20.2, 58.34 30 M58.34 0 C59.05 10.67, 58.76 21.15, 58.34 30 M58.34 30 C41.78 29.81, 22.04 31.18, 0 30 M58.34 30 C40.01 29.87, 21.74 31.07, 0 30 M0 30 C0.93 18.73, -1.54 7.59, 0 0 M0 30 C0.22 21.71, 0.57 12.93, 0 0" stroke="#000000" stroke-width="4" fill="none"></path></g><g transform="translate(54.629823331121315 24.904475129760385) rotate(0 22 12.5)"><text x="0" y="0" font-family="Virgil, Segoe UI Emoji" font-size="20px" fill="#000000" text-anchor="start" style="white-space: pre;" direction="ltr" dominant-baseline="text-before-edge">DOC</text></g><g stroke-linecap="round"><g transform="translate(24.51448887337301 69.91132767998965) rotate(0 25.1625462582233 0)"><path d="M-0.88 0.51 C7.49 0.59, 41.35 0, 49.71 -0.07 M0.85 -0.26 C9.67 0.05, 43.64 1.14, 52.1 1.42" stroke="#000" stroke-width="4" fill="none"></path></g></g><mask></mask><g stroke-linecap="round"><g transform="translate(24.364804971234662 80.39082950461943) rotate(0 25.1625462582233 0)"><path d="M0.53 -0.7 C9.11 -0.77, 41.91 0.09, 50.36 0.06 M-0.66 1.54 C7.87 1.65, 40.84 1.89, 49.43 1.62" stroke="#000" stroke-width="4" fill="none"></path></g></g><mask></mask><g stroke-linecap="round"><g transform="translate(24.385158589655475 91.88023187406873) rotate(0 25.1625462582233 0)"><path d="M0.34 -0.63 C9.01 -0.6, 42.69 0.45, 50.97 0.52 M-0.94 1.66 C7.72 1.29, 42.01 -1.22, 50.36 -1.34" stroke="#000" stroke-width="4" fill="none"></path></g></g><mask></mask><g stroke-linecap="round"><g transform="translate(23.75303996301136 101.55330509055705) rotate(0 14.052139604815125 0.5031060193941244)"><path d="M-0.15 0.53 C4.48 0.86, 22.99 1.29, 27.74 1.43 M0.77 0.33 C5.58 0.56, 24.22 0.65, 28.79 0.68" stroke="#000" stroke-width="4" fill="none"></path></g></g><mask></mask></svg>