<svg xmlns="http://www.w3.org/2000/svg" viewBox="275.29 607.74 288.21 56.54" width="288" height="57"><rect x="281.29" y="613.74" width="276.21" height="43.80" rx="0" stroke="#000000" stroke-width="2" opacity="1.0" fill="none"/><polyline points="507.62,614.47 508.83,658.28" fill="none" stroke="#000000" stroke-width="2" opacity="1.0" stroke-linecap="round" stroke-linejoin="round"/><text x="299.93" y="646.11" font-size="20.44230470330012" fill="#000000" opacity="1.0" font-family="sans-serif">dd/mm/yy</text><polyline points="519.60,631.71 519.60,652.09 543.73,651.68 540.40,629.63 519.60,631.71" fill="none" stroke="#000000" stroke-width="2" opacity="1.0" stroke-linecap="round" stroke-linejoin="round"/><polyline points="525.42,630.04 527.09,652.51" fill="none" stroke="#000000" stroke-width="2" opacity="1.0" stroke-linecap="round" stroke-linejoin="round"/><polyline points="532.91,630.04 535.82,650.01" fill="none" stroke="#000000" stroke-width="2" opacity="1.0" stroke-linecap="round" stroke-linejoin="round"/><polyline points="519.18,637.95 540.82,636.70" fill="none" stroke="#000000" stroke-width="2" opacity="1.0" stroke-linecap="round" stroke-linejoin="round"/><polyline points="520.01,645.85 542.48,644.61" fill="none" stroke="#000000" stroke-width="2" opacity="1.0" stroke-linecap="round" stroke-linejoin="round"/><polyline points="518.35,632.54 541.23,632.12 539.57,624.22 518.35,625.88 518.35,632.54" fill="#000" stroke="#000000" stroke-width="2" opacity="1.0" stroke-linecap="round" stroke-linejoin="round"/><polyline points="522.93,628.80 521.68,621.31 526.25,620.89 525.84,626.72 534.57,626.72 532.91,621.31 537.49,620.89 536.66,629.63 522.93,628.80" fill="#000" stroke="#000000" stroke-width="2" opacity="1.0" stroke-linecap="round" stroke-linejoin="round"/></svg>