<svg version="1.1" xmlns="http://www.w3.org/2000/svg" viewBox="0 0 223.39168303461474 221.60044138627654" width="223.39168303461474" height="221.60044138627654">
  <!-- svg-source:excalidraw -->
  
  <defs>
    
    
  </defs>
  <g stroke-linecap="round"><g transform="translate(6 6.549960681595621) rotate(0 105.69584151730737 104.31254690962987)" fill-rule="evenodd"><path d="M1.39 -1.84 L206.14 -0.06 L209.78 173.57 L176.38 206.33 L3.88 207.41 L-0.24 -0.55" stroke="none" stroke-width="0" fill="#fab005" fill-rule="evenodd"></path><path d="M0 0 C42.19 -1.27, 82.32 1.19, 207.62 0.73 M0 0 C71.35 -1.19, 144.41 -0.22, 207.62 0.73 M207.62 0.73 C210.79 36.44, 209.8 74.59, 211.39 174.34 M207.62 0.73 C209.09 43.02, 210.12 85.05, 211.39 174.34 M211.39 174.34 C196.74 188.65, 181.88 202.61, 176.66 207.17 M211.39 174.34 C200.47 185.69, 187.86 195.29, 176.66 207.17 M176.66 207.17 C138.13 206.88, 102.99 208.26, 2.26 208.63 M176.66 207.17 C127.11 208.78, 77.85 209.61, 2.26 208.63 M2.26 208.63 C0.36 148.39, 1.18 89.22, 0 0 M2.26 208.63 C2.8 148.02, 1.23 87.91, 0 0 M0 0 C0 0, 0 0, 0 0 M0 0 C0 0, 0 0, 0 0" stroke="#000000" stroke-width="1" fill="none"></path></g></g><mask></mask><g stroke-linecap="round"><g transform="translate(217.0614785873331 181.61102367122658) rotate(0 -18.055555555555657 14.166666666666288)" fill-rule="evenodd"><path d="M0.79 -0.92 L-33.78 -5.62 L-35.18 32.68 L-0.11 -0.5" stroke="none" stroke-width="0" fill="white" fill-rule="evenodd"></path><path d="M0 0 C-7.99 -1.62, -14.29 -1.72, -33.89 -5 M0 0 C-9.96 -1.35, -19.21 -3.39, -33.89 -5 M-33.89 -5 C-35.47 8.27, -36.04 21.29, -36.11 33.33 M-33.89 -5 C-34.78 8.28, -35.67 22.25, -36.11 33.33 M-36.11 33.33 C-26.75 24.27, -17.35 17.17, 0 0 M-36.11 33.33 C-25.45 23.45, -15.82 13.98, 0 0 M0 0 C0 0, 0 0, 0 0 M0 0 C0 0, 0 0, 0 0" stroke="#343a40" stroke-width="1" fill="none"></path></g></g><mask></mask></svg>