<svg version="1.1" xmlns="http://www.w3.org/2000/svg" viewBox="0 0 109.67525151090831 166.38416229914026" width="109.67525151090831" height="166.38416229914026">
  <!-- svg-source:excalidraw -->
  
  <defs>
    
    
  </defs>
  <g transform="translate(32.55362565449832 135.38416229914026) rotate(0 18.5 12.5)"><text x="0" y="0" font-family="Virgil, Segoe UI Emoji" font-size="20px" fill="#000" text-anchor="start" style="white-space: pre;" direction="ltr" dominant-baseline="text-before-edge">XLS</text></g><g stroke-linecap="round" transform="translate(6 6) rotate(0 43.92912551591962 59.866575996830704)"><path d="M1.17 0.14 L89.7 -0.66 L88.11 121.56 L1.1 121.33" stroke="none" stroke-width="0" fill="#feeb9e"></path><path d="M0 0 C29.06 0.89, 55.28 -0.88, 87.86 0 M0 0 C29.68 0.17, 60.23 -0.41, 87.86 0 M87.86 0 C87.67 31.45, 87.62 66.29, 87.86 119.73 M87.86 0 C87.33 41.19, 86.2 84.68, 87.86 119.73 M87.86 119.73 C61.29 120.64, 33.08 117.4, 0 119.73 M87.86 119.73 C62.79 120.57, 36.07 120.69, 0 119.73 M0 119.73 C-0.97 72.08, 2.08 25.19, 0 0 M0 119.73 C-0.6 79.11, -1.36 39.43, 0 0" stroke="#000000" stroke-width="4" fill="none"></path></g><g stroke-linecap="round" transform="translate(45.33931401090831 20.4825232163912) rotate(0 29.16796875 15)"><path d="M0.14 1.85 L57.68 0.26 L60.17 31.1 L1.6 28.99" stroke="none" stroke-width="0" fill="#fff"></path><path d="M0 0 C21.49 -1.15, 39.75 0.61, 58.34 0 M0 0 C15.51 0.01, 30.58 0.1, 58.34 0 M58.34 0 C56.79 8.94, 58.73 19.62, 58.34 30 M58.34 0 C57.57 6.11, 59.11 14.1, 58.34 30 M58.34 30 C43.54 32.17, 23.78 30.38, 0 30 M58.34 30 C37.97 30.47, 17.47 31.39, 0 30 M0 30 C-0.68 24.45, -0.76 17.36, 0 0 M0 30 C0.14 18.14, 1.02 7.59, 0 0" stroke="#000000" stroke-width="4" fill="none"></path></g><g transform="translate(54.629823331121315 24.904475129760385) rotate(0 18.5 12.5)"><text x="0" y="0" font-family="Virgil, Segoe UI Emoji" font-size="20px" fill="#000000" text-anchor="start" style="white-space: pre;" direction="ltr" dominant-baseline="text-before-edge">XLS</text></g><g stroke-linecap="round" transform="translate(25.2181614467072 87.86302185058582) rotate(0 2.8550284249445212 10.920753479003906)"><path d="M0.68 0.04 L5.64 -0.06 L6.55 21.29 L0.97 22.38" stroke="none" stroke-width="0" fill="#a0daf7"></path><path d="M0 0 C2.07 0.14, 4.23 -0.12, 5.71 0 M0 0 C2.09 0.12, 4.29 0.03, 5.71 0 M5.71 0 C5.84 6.48, 4.9 14.65, 5.71 21.84 M5.71 0 C5.47 6.77, 5.27 14.39, 5.71 21.84 M5.71 21.84 C4.62 21.79, 3.38 21.7, 0 21.84 M5.71 21.84 C4.12 21.95, 2.59 21.93, 0 21.84 M0 21.84 C0.07 17.12, 0.52 12.03, 0 0 M0 21.84 C0.27 17.5, 0.38 12.43, 0 0" stroke="#000" stroke-width="2" fill="none"></path></g><g stroke-linecap="round" transform="translate(40.25168167581387 70.39189873101316) rotate(0 2.7870832170760877 19.118494306291893)"><path d="M0.8 -0.71 L4.71 -0.18 L6.11 37.31 L-0.51 37.69" stroke="none" stroke-width="0" fill="#f48284"></path><path d="M0 0 C1.87 -0.25, 4.24 -0.24, 5.57 0 M0 0 C1.21 -0.06, 2.52 -0.03, 5.57 0 M5.57 0 C6.14 12.82, 5.42 25.72, 5.57 38.24 M5.57 0 C5.55 8.17, 5.18 15.74, 5.57 38.24 M5.57 38.24 C3.6 38.08, 1.67 38.44, 0 38.24 M5.57 38.24 C4.09 38.24, 2.41 38.09, 0 38.24 M0 38.24 C0.27 23.72, -0.77 7.47, 0 0 M0 38.24 C-0.5 23.84, -0.5 8.91, 0 0" stroke="#000" stroke-width="2" fill="none"></path></g><g stroke-linecap="round" transform="translate(56.45049933764358 77.91232371008664) rotate(0 2.398550851004984 15.365442548479393)"><path d="M-0.8 -0.16 L4.61 0.04 L5.6 30.61 L-0.43 31.51" stroke="none" stroke-width="0" fill="#eaeaea"></path><path d="M0 0 C1.53 -0.12, 3.1 0.19, 4.8 0 M0 0 C1.51 0.04, 2.86 -0.09, 4.8 0 M4.8 0 C5.14 12.77, 4.09 23.79, 4.8 30.73 M4.8 0 C4.34 12.36, 4.35 24.2, 4.8 30.73 M4.8 30.73 C2.93 30.84, 0.93 30.59, 0 30.73 M4.8 30.73 C3.56 30.63, 2.36 30.77, 0 30.73 M0 30.73 C0.48 21.51, 0.79 12.98, 0 0 M0 30.73 C0.2 24.01, 0.02 16.71, 0 0" stroke="#000" stroke-width="2" fill="none"></path></g><g stroke-linecap="round" transform="translate(70.98798364289041 86.09857684903795) rotate(0 2.8550284249445212 10.920753479003906)"><path d="M-0.93 -0.34 L5.61 0.79 L6.17 21.17 L-0.71 21.28" stroke="none" stroke-width="0" fill="#a0daf7"></path><path d="M0 0 C1.46 -0.14, 2.59 -0.2, 5.71 0 M0 0 C2.02 0.07, 3.72 0.11, 5.71 0 M5.71 0 C4.65 6.65, 6.14 12.28, 5.71 21.84 M5.71 0 C5.53 6.26, 6.02 12.43, 5.71 21.84 M5.71 21.84 C4.01 21.55, 2.99 21.75, 0 21.84 M5.71 21.84 C4.35 21.78, 2.97 21.88, 0 21.84 M0 21.84 C-0.39 13.39, -0.94 7.2, 0 0 M0 21.84 C0.09 16.77, 0.11 11.2, 0 0" stroke="#000" stroke-width="2" fill="none"></path></g></svg>