<svg version="1.1" xmlns="http://www.w3.org/2000/svg" viewBox="0 0 392.9432989311831 71.3153661512963" width="392.9432989311831" height="71.3153661512963">
  <!-- svg-source:excalidraw -->
  
  <defs>
    
    
  </defs>
  <g stroke-linecap="round"><g transform="translate(341.8485244873457 8.144999595471319) rotate(0 -145.39038794681056 18.829572959228557)" fill-rule="evenodd"><path d="M-292.52 1.45 C-292.52 1.45, -292.52 1.45, -292.52 1.45 M-292.52 1.45 C-292.52 1.45, -292.52 1.45, -292.52 1.45 M-293.7 15 C-290.4 8.27, -284.14 4.03, -280.58 -0.1 M-293.7 15 C-289.45 10.7, -285.7 5.13, -280.58 -0.1 M-294.88 28.55 C-287.39 16.96, -276.02 9.42, -269.29 -0.89 M-294.88 28.55 C-287.67 18.49, -278.07 8.8, -269.29 -0.89 M-294.74 40.59 C-287.62 32.13, -281.53 23.88, -258.66 -0.92 M-294.74 40.59 C-280.77 26.32, -268.53 10.85, -258.66 -0.92 M-280.83 36.78 C-271.29 28.11, -265.01 20.84, -248.03 -0.96 M-280.83 36.78 C-267.79 22.66, -254.97 7.82, -248.03 -0.96 M-270.2 36.74 C-261.32 28.04, -257.23 18.23, -237.4 -0.99 M-270.2 36.74 C-261.53 27.23, -252.64 16.56, -237.4 -0.99 M-259.57 36.71 C-250.2 24.19, -236.68 11.38, -226.77 -1.03 M-259.57 36.71 C-249.22 24.46, -236.62 11.28, -226.77 -1.03 M-248.94 36.68 C-241.84 27.03, -233.97 19.79, -216.14 -1.06 M-248.94 36.68 C-240.23 26.06, -231.92 16.92, -216.14 -1.06 M-238.31 36.64 C-224.39 21.9, -212.75 9.65, -205.51 -1.09 M-238.31 36.64 C-226.22 23.44, -215.46 10.9, -205.51 -1.09 M-227.68 36.61 C-215.57 25.29, -208.23 12.16, -194.88 -1.13 M-227.68 36.61 C-218.36 26.64, -210.43 15.89, -194.88 -1.13 M-217.05 36.57 C-204.39 23.93, -192.71 9.06, -184.25 -1.16 M-217.05 36.57 C-204.33 22.56, -193.95 9.94, -184.25 -1.16 M-206.42 36.54 C-195.71 22.9, -182.65 11.18, -173.62 -1.2 M-206.42 36.54 C-197.02 25.84, -186.9 15.21, -173.62 -1.2 M-195.79 36.5 C-183.92 24.17, -174.42 13.65, -162.99 -1.23 M-195.79 36.5 C-188.12 28.7, -180.72 21.27, -162.99 -1.23 M-185.16 36.47 C-171.42 21.4, -161.99 7.86, -152.36 -1.27 M-185.16 36.47 C-177.54 27.59, -169.76 19.42, -152.36 -1.27 M-174.53 36.43 C-162.94 24.03, -151.21 11.05, -141.73 -1.3 M-174.53 36.43 C-163.38 24.31, -151.79 10.58, -141.73 -1.3 M-164.56 37.15 C-153.96 24.23, -142.4 12.43, -131.1 -1.34 M-164.56 37.15 C-155.47 26.13, -147.18 17.7, -131.1 -1.34 M-153.93 37.12 C-140.62 22.78, -129.04 9.46, -120.47 -1.37 M-153.93 37.12 C-145.42 27.84, -137.93 19.28, -120.47 -1.37 M-143.3 37.08 C-131.35 23.04, -116.93 6.18, -109.84 -1.41 M-143.3 37.08 C-135.18 27.26, -124.69 16.71, -109.84 -1.41 M-132.67 37.05 C-119.48 23.38, -109.77 9.26, -99.21 -1.44 M-132.67 37.05 C-124.94 28.72, -117.42 20.01, -99.21 -1.44 M-122.04 37.02 C-111.32 26.13, -103.13 14.79, -88.58 -1.47 M-122.04 37.02 C-109.43 22.17, -95.32 6.26, -88.58 -1.47 M-111.41 36.98 C-100.08 22.44, -85.09 7.44, -77.95 -1.51 M-111.41 36.98 C-101.46 25.49, -90.45 13.16, -77.95 -1.51 M-100.78 36.95 C-91.48 25.49, -82.75 14.54, -67.32 -1.54 M-100.78 36.95 C-89.31 24.58, -79.46 12.2, -67.32 -1.54 M-90.15 36.91 C-79.58 21.49, -65.98 9.5, -56.69 -1.58 M-90.15 36.91 C-81.11 27.4, -74.69 17.69, -56.69 -1.58 M-79.52 36.88 C-70.79 25.34, -61.73 18.86, -46.06 -1.61 M-79.52 36.88 C-69.2 23.09, -56.97 10.08, -46.06 -1.61 M-68.89 36.84 C-60.86 27.96, -56.29 22.3, -35.43 -1.65 M-68.89 36.84 C-58.06 23.99, -46.92 11.52, -35.43 -1.65 M-58.26 36.81 C-51.35 26.5, -39.28 15.47, -24.8 -1.68 M-58.26 36.81 C-46.05 24.78, -35.12 11.21, -24.8 -1.68 M-47.63 36.77 C-36.29 24.57, -25.09 8.5, -14.17 -1.72 M-47.63 36.77 C-40.95 28.73, -34.35 21.53, -14.17 -1.72 M-37 36.74 C-28.3 26.15, -21.27 18.2, -4.19 -1 M-37 36.74 C-24.44 21.9, -12.66 6.66, -4.19 -1 M-26.37 36.71 C-19.58 28.67, -12.74 20.94, 1.84 4.25 M-26.37 36.71 C-20.09 28.44, -13.55 20.34, 1.84 4.25 M-15.74 36.67 C-10.23 31.25, -4.52 24.18, 2.63 15.54 M-15.74 36.67 C-10.11 29.35, -3.55 22.19, 2.63 15.54 M-5.11 36.64 C-2.59 33.12, 3.1 29.38, 4.08 26.07 M-5.11 36.64 C-1.19 32.53, 1.03 28.72, 4.08 26.07 M3.56 38.87 C3.92 38.38, 4.51 37.85, 4.87 37.36 M3.56 38.87 C3.95 38.54, 4.25 38.17, 4.87 37.36" stroke="#fa5252" stroke-width="1" fill="none"></path><path d="M0 0 C0 0, 0 0, 0 0 M0 0 C0 0, 0 0, 0 0 M0 0 C-3.4 -0.91, -5.44 -1.93, -7.02 -2.14 M0 0 C-1.65 -0.27, -3.26 -0.9, -7.02 -2.14 M-7.02 -2.14 C-93.82 0.41, -179.52 -0.95, -289.62 -0.45 M-7.02 -2.14 C-110.68 -0.97, -213.61 -0.83, -289.62 -0.45 M-289.62 -0.45 C-290.59 -0.21, -290.89 0.72, -292.35 1.25 M-289.62 -0.45 C-290.71 0.08, -291.62 0.78, -292.35 1.25 M-292.35 1.25 C-292.14 1.92, -292.58 3.71, -293.28 5.37 M-292.35 1.25 C-292.76 2.46, -292.92 3.73, -293.28 5.37 M-293.28 5.37 C-295.14 18.36, -295.34 27.46, -295.01 34.07 M-293.28 5.37 C-294.44 15.43, -293.76 25.37, -295.01 34.07 M-295.01 34.07 C-294.71 36.18, -295.06 38.41, -295.2 39.8 M-295.01 34.07 C-295.08 35.82, -295.26 37.81, -295.2 39.8 M-295.2 39.8 C-293.98 38.77, -292.62 38.24, -291.06 37.38 M-295.2 39.8 C-293.91 38.97, -292.47 38.27, -291.06 37.38 M-291.06 37.38 C-290.5 37.11, -290.21 36.87, -289 36.6 M-291.06 37.38 C-290.66 37.11, -290.15 36.98, -289 36.6 M-289 36.6 C-208.89 35.99, -128.14 34.26, -1.13 36.66 M-289 36.6 C-224.02 37.64, -157.14 37.99, -1.13 36.66 M-1.13 36.66 C-0.08 37.08, 1.26 37.54, 2.34 38.18 M-1.13 36.66 C-0.08 37.19, 1.11 37.66, 2.34 38.18 M2.34 38.18 C3.01 38.7, 3.87 39.28, 4.42 39.8 M2.34 38.18 C2.8 38.41, 3.19 38.85, 4.42 39.8 M4.42 39.8 C4.29 39.08, 4.47 38.69, 4.34 38.14 M4.42 39.8 C4.37 39.3, 4.45 39.01, 4.34 38.14 M4.34 38.14 C4.42 35.69, 4.69 34.08, 3.96 30.79 M4.34 38.14 C4.11 35.37, 3.83 33.27, 3.96 30.79 M3.96 30.79 C1.97 24.13, 2.39 13.55, 1.45 4.07 M3.96 30.79 C3.09 22.44, 1.51 14.65, 1.45 4.07 M1.45 4.07 C0.72 3.36, 0.75 1.39, 0 0 M1.45 4.07 C0.83 2.62, 0.36 0.93, 0 0" stroke="#000000" stroke-width="2" fill="none"></path></g></g><mask></mask><g stroke-linecap="round"><g transform="translate(325.9608934838068 61.24232827218577) rotate(0 30.49120272368816 -18.065523657000654)" fill-rule="evenodd"><path d="M18.72 -39.37 C18.72 -39.37, 18.72 -39.37, 18.72 -39.37 M18.72 -39.37 C18.72 -39.37, 18.72 -39.37, 18.72 -39.37 M19.51 -28.09 C21.8 -30.04, 22.87 -32.74, 26.07 -35.64 M19.51 -28.09 C21.26 -30.82, 24.05 -33.19, 26.07 -35.64 M3.24 2.82 C4.86 -0.57, 6.55 -1.03, 11.77 -6.99 M3.24 2.82 C5.93 -0.71, 9.09 -4.58, 11.77 -6.99 M19.65 -16.05 C23 -20.79, 23.93 -22.15, 34.08 -32.65 M19.65 -16.05 C25.53 -22.14, 29.55 -28.18, 34.08 -32.65 M16.5 -0.23 C24.3 -9.25, 32.8 -22.86, 42.74 -30.42 M16.5 -0.23 C24.64 -10.55, 32.74 -19.32, 42.74 -30.42 M26.47 0.49 C29.43 -2.75, 30.77 -4.85, 38.94 -13.85 M26.47 0.49 C29.56 -4.63, 32.99 -7.97, 38.94 -13.85 M43.53 -19.14 C45.04 -20.37, 47.6 -24.85, 54.03 -31.21 M43.53 -19.14 C46.7 -22.95, 50.43 -25.89, 54.03 -31.21 M35.79 1.96 C38.76 -0.01, 40.04 -2.92, 44.32 -7.85 M35.79 1.96 C39.23 -1.97, 41.77 -4.82, 44.32 -7.85 M45.11 3.44 C47.35 1.51, 48.36 -0.86, 50.36 -2.6 M45.11 3.44 C46.36 1.5, 47.83 0.6, 50.36 -2.6 M56.39 2.65 C56.61 1.99, 57.14 1.87, 57.71 1.14 M56.39 2.65 C56.7 2.23, 57.07 1.87, 57.71 1.14" stroke="#fa5252" stroke-width="1" fill="none"></path><path d="M0 0 C0 0, 0 0, 0 0 M0 0 C0 0, 0 0, 0 0 M0 0 C0.01 -0.4, -0.14 -0.75, 0.02 -1.76 M0 0 C-0.07 -0.69, 0.03 -1.36, 0.02 -1.76 M0.02 -1.76 C0.09 -2.31, 0.49 -2.82, 0.54 -3.16 M0.02 -1.76 C0.24 -2.25, 0.34 -2.6, 0.54 -3.16 M0.54 -3.16 C0.93 -3.38, 1.27 -3.85, 1.49 -4.24 M0.54 -3.16 C0.89 -3.54, 1.14 -3.83, 1.49 -4.24 M1.49 -4.24 C2.06 -4.4, 2.45 -5.02, 2.8 -5.07 M1.49 -4.24 C1.86 -4.4, 2.3 -4.74, 2.8 -5.07 M2.8 -5.07 C4.78 -5.8, 7.55 -5.66, 10.16 -6.78 M2.8 -5.07 C4.66 -5.42, 6.38 -5.69, 10.16 -6.78 M10.16 -6.78 C12.33 -7.08, 14.57 -6.94, 15.9 -7.79 M10.16 -6.78 C11.71 -7.16, 13.48 -7.64, 15.9 -7.79 M15.9 -7.79 C16.38 -8.02, 16.6 -7.84, 17.47 -8.34 M15.9 -7.79 C16.4 -7.92, 16.89 -8.14, 17.47 -8.34 M17.47 -8.34 C17.9 -8.71, 18.3 -8.95, 18.75 -9.08 M17.47 -8.34 C17.92 -8.61, 18.28 -8.86, 18.75 -9.08 M18.75 -9.08 C19.06 -9.53, 19.34 -9.96, 19.67 -10.07 M18.75 -9.08 C19.02 -9.32, 19.22 -9.6, 19.67 -10.07 M19.67 -10.07 C19.8 -10.45, 19.96 -10.77, 20.16 -11.35 M19.67 -10.07 C19.8 -10.48, 20.01 -10.86, 20.16 -11.35 M20.16 -11.35 C20.21 -11.92, 20 -12.52, 20.14 -12.98 M20.16 -11.35 C20.13 -11.81, 20.19 -12.27, 20.14 -12.98 M20.14 -12.98 C21.2 -17.71, 18.96 -25.94, 18.82 -39.49 M20.14 -12.98 C20.47 -22.25, 18.9 -32.63, 18.82 -39.49 M18.82 -39.49 C18.82 -39.49, 18.82 -39.49, 18.82 -39.49 M18.82 -39.49 C18.82 -39.49, 18.82 -39.49, 18.82 -39.49 M18.82 -39.49 C19.96 -39.25, 21.06 -38, 22.29 -37.69 M18.82 -39.49 C19.67 -39.01, 20.77 -38.5, 22.29 -37.69 M22.29 -37.69 C27.54 -37.15, 33.02 -35.13, 35.95 -32.16 M22.29 -37.69 C26.36 -36.62, 30.53 -33.65, 35.95 -32.16 M35.95 -32.16 C36.86 -32.11, 37.97 -31.67, 38.68 -31.5 M35.95 -32.16 C36.77 -32, 37.68 -31.69, 38.68 -31.5 M38.68 -31.5 C39.42 -31.34, 40.54 -31.07, 41.52 -30.98 M38.68 -31.5 C39.54 -31.45, 40.2 -31.18, 41.52 -30.98 M41.52 -30.98 C41.9 -30.6, 42.84 -30.75, 44.49 -30.64 M41.52 -30.98 C42.39 -30.78, 43.34 -30.86, 44.49 -30.64 M44.49 -30.64 C46.45 -31.2, 48.49 -30.22, 50.76 -30.58 M44.49 -30.64 C46.03 -30.64, 47.26 -30.88, 50.76 -30.58 M50.76 -30.58 C51.4 -30.61, 52.31 -30.46, 54.06 -30.91 M50.76 -30.58 C51.64 -30.59, 52.38 -30.88, 54.06 -30.91 M54.06 -30.91 C54.98 -31.36, 55.68 -31.41, 57.47 -31.53 M54.06 -30.91 C55.52 -31.1, 56.74 -31.36, 57.47 -31.53 M57.47 -31.53 C58.58 -31.48, 59.59 -31.96, 60.98 -32.45 M57.47 -31.53 C58.69 -31.67, 59.75 -32.26, 60.98 -32.45 M60.98 -32.45 C60.96 -32.43, 60.95 -32.41, 60.93 -32.35 M60.98 -32.45 C60.96 -32.42, 60.95 -32.38, 60.93 -32.35 M60.93 -32.35 C60.86 -32.22, 60.83 -32.11, 60.76 -32.05 M60.93 -32.35 C60.86 -32.23, 60.8 -32.11, 60.76 -32.05 M60.76 -32.05 C60.7 -31.96, 60.58 -31.86, 60.46 -31.58 M60.76 -32.05 C60.68 -31.94, 60.59 -31.76, 60.46 -31.58 M60.46 -31.58 C60.4 -31.45, 60.27 -31.16, 60.02 -30.94 M60.46 -31.58 C60.32 -31.39, 60.21 -31.14, 60.02 -30.94 M60.02 -30.94 C59.84 -30.74, 59.77 -30.53, 59.41 -30.16 M60.02 -30.94 C59.86 -30.68, 59.69 -30.46, 59.41 -30.16 M59.41 -30.16 C59.2 -29.92, 59.1 -29.79, 58.61 -29.25 M59.41 -30.16 C59.17 -29.83, 58.97 -29.57, 58.61 -29.25 M58.61 -29.25 C58.26 -29.03, 57.99 -28.68, 57.62 -28.24 M58.61 -29.25 C58.27 -28.92, 58.01 -28.58, 57.62 -28.24 M57.62 -28.24 C57.21 -27.72, 56.74 -27.33, 56.42 -27.14 M57.62 -28.24 C57.25 -27.76, 56.73 -27.44, 56.42 -27.14 M56.42 -27.14 C55.83 -26.63, 55.39 -26.47, 54.98 -25.96 M56.42 -27.14 C56.02 -26.87, 55.81 -26.51, 54.98 -25.96 M54.98 -25.96 C54.08 -25.38, 53.42 -25.05, 51.35 -23.46 M54.98 -25.96 C53.99 -25.29, 53.14 -24.38, 51.35 -23.46 M51.35 -23.46 C50.41 -22.98, 48.82 -22.41, 46.6 -20.88 M51.35 -23.46 C50.19 -22.61, 48.83 -21.97, 46.6 -20.88 M46.6 -20.88 C44.81 -20.33, 42.85 -19.78, 40.59 -18.35 M46.6 -20.88 C45.42 -20.44, 44.05 -19.76, 40.59 -18.35 M40.59 -18.35 C39.33 -17.84, 38.07 -17.21, 37.08 -17.15 M40.59 -18.35 C39.25 -17.72, 37.72 -17.27, 37.08 -17.15 M37.08 -17.15 C37.48 -16.41, 37.77 -15.84, 38.13 -15.06 M37.08 -17.15 C37.29 -16.71, 37.45 -16.33, 38.13 -15.06 M38.13 -15.06 C38.33 -14.57, 38.55 -14.09, 39.44 -13.06 M38.13 -15.06 C38.43 -14.48, 38.73 -13.9, 39.44 -13.06 M39.44 -13.06 C40.36 -12.05, 42.1 -10.77, 42.63 -9.38 M39.44 -13.06 C40.47 -12.06, 41.53 -10.64, 42.63 -9.38 M42.63 -9.38 C43.14 -8.51, 45 -7.48, 46.3 -6.16 M42.63 -9.38 C43.86 -8.13, 45.24 -7.19, 46.3 -6.16 M46.3 -6.16 C47.27 -5.61, 48.97 -4.37, 50.09 -3.43 M46.3 -6.16 C47.58 -5.08, 49.02 -4.22, 50.09 -3.43 M50.09 -3.43 C51.33 -2.25, 52.51 -1.59, 53.65 -1.24 M50.09 -3.43 C51.06 -2.82, 51.75 -2.31, 53.65 -1.24 M53.65 -1.24 C54.2 -1.13, 54.39 -0.94, 55.24 -0.35 M53.65 -1.24 C54.02 -1.1, 54.45 -0.87, 55.24 -0.35 M55.24 -0.35 C55.64 -0.13, 56.21 0.27, 56.64 0.38 M55.24 -0.35 C55.77 -0.12, 56.26 0.18, 56.64 0.38 M56.64 0.38 C56.99 0.48, 57.37 0.63, 57.8 0.96 M56.64 0.38 C56.85 0.45, 57.07 0.61, 57.8 0.96 M57.8 0.96 C58.15 1.2, 58.42 1.31, 58.69 1.38 M57.8 0.96 C58 1.07, 58.21 1.21, 58.69 1.38 M58.69 1.38 C58.83 1.49, 58.97 1.53, 59.25 1.63 M58.69 1.38 C58.8 1.41, 58.93 1.51, 59.25 1.63 M59.25 1.63 C59.33 1.67, 59.41 1.68, 59.45 1.72 M59.25 1.63 C59.29 1.66, 59.33 1.67, 59.45 1.72 M59.45 1.72 C58.56 1.8, 57.46 2.61, 56.48 2.64 M59.45 1.72 C58.33 2.16, 57.42 2.33, 56.48 2.64 M56.48 2.64 C55.51 2.68, 53.81 3.07, 53.25 3.17 M56.48 2.64 C55.29 2.8, 54.05 3.11, 53.25 3.17 M53.25 3.17 C52.43 3.09, 51.61 3.49, 49.8 3.36 M53.25 3.17 C52.25 3.34, 51.46 3.38, 49.8 3.36 M49.8 3.36 C48.1 3.54, 46.87 3.66, 46.19 3.27 M49.8 3.36 C49.01 3.35, 48.33 3.52, 46.19 3.27 M46.19 3.27 C44.77 3.07, 43.87 3.4, 42.45 2.95 M46.19 3.27 C45 3.09, 43.36 3.18, 42.45 2.95 M42.45 2.95 C35.41 2.31, 27.18 0.86, 19.98 -0.39 M42.45 2.95 C37.73 2.32, 30.63 1.29, 19.98 -0.39 M19.98 -0.39 C17.9 -0.52, 17.15 -0.26, 13.57 -0.69 M19.98 -0.39 C17.54 -0.38, 15.48 -0.48, 13.57 -0.69 M13.57 -0.69 C12.5 -0.56, 12.16 -0.71, 10.77 -0.44 M13.57 -0.69 C12.77 -0.59, 12 -0.4, 10.77 -0.44 M10.77 -0.44 C8.59 0.14, 6.81 0.45, 6.22 1.19 M10.77 -0.44 C9.72 -0.2, 8.61 0.35, 6.22 1.19 M6.22 1.19 C5.94 1.54, 5.3 1.46, 4.53 2.07 M6.22 1.19 C5.75 1.41, 5.15 1.7, 4.53 2.07 M4.53 2.07 C3.94 2.13, 3.56 2.4, 3.15 2.38 M4.53 2.07 C4.22 2.19, 3.92 2.24, 3.15 2.38 M3.15 2.38 C2.86 2.32, 2.44 2.34, 2.07 2.25 M3.15 2.38 C2.81 2.36, 2.43 2.27, 2.07 2.25 M2.07 2.25 C1.73 2.04, 1.6 2, 1.25 1.82 M2.07 2.25 C1.77 2.07, 1.6 1.94, 1.25 1.82 M1.25 1.82 C1.03 1.71, 0.85 1.42, 0.66 1.24 M1.25 1.82 C1.05 1.64, 0.95 1.48, 0.66 1.24 M0.66 1.24 C0.59 1.09, 0.55 0.94, 0.27 0.64 M0.66 1.24 C0.54 1.09, 0.42 0.89, 0.27 0.64 M0.27 0.64 C0.17 0.54, 0.14 0.37, 0.06 0.18 M0.27 0.64 C0.24 0.53, 0.2 0.41, 0.06 0.18 M0.06 0.18 C0.05 0.12, 0.02 0.1, 0 0 M0.06 0.18 C0.05 0.14, 0.02 0.07, 0 0 M0 0 C0 0, 0 0, 0 0 M0 0 C0 0, 0 0, 0 0 M0 0 C0 0, 0 0, 0 0 M0 0 C0 0, 0 0, 0 0" stroke="#000000" stroke-width="2" fill="none"></path></g></g><mask></mask><g stroke-linecap="round"><g transform="translate(67.01297297461099 60.81400188752889) rotate(0 -0.3674171234863479 -7.925188533532278)"><path d="M0 0 C-0.85 -4.97, -1.14 -9.79, -0.73 -15.85 M0 0 C0.09 -5.89, -0.9 -11.66, -0.73 -15.85" stroke="#000000" stroke-width="2" fill="none"></path></g></g><mask></mask><g stroke-linecap="round"><g transform="translate(326.0319991183478 59.227392455679365) rotate(0 0.3631545229278572 -7.119940799597174)"><path d="M0 0 C-0.21 -5.18, 1.01 -11.17, 0.73 -14.24 M0 0 C-0.25 -3.45, 0.25 -6.23, 0.73 -14.24" stroke="#000000" stroke-width="2" fill="none"></path></g></g><mask></mask><g stroke-linecap="round"><g transform="translate(66.98240544737621 61.958804190788385) rotate(0 -30.491202723688104 -18.065523657000654)" fill-rule="evenodd"><path d="M-61.3 -32.09 C-61.3 -32.09, -61.3 -32.09, -61.3 -32.09 M-61.3 -32.09 C-61.3 -32.09, -61.3 -32.09, -61.3 -32.09 M-55.92 -26.08 C-54.52 -27.55, -54.21 -28, -52.64 -29.86 M-55.92 -26.08 C-54.79 -27.13, -54.34 -28.18, -52.64 -29.86 M-49.23 -21.59 C-47.67 -25.2, -44.32 -27.92, -41.35 -30.65 M-49.23 -21.59 C-47.32 -23.48, -46.1 -26.08, -41.35 -30.65 M-58.93 1.77 C-58.93 1.77, -58.93 1.77, -58.93 1.77 M-58.93 1.77 C-58.93 1.77, -58.93 1.77, -58.93 1.77 M-42.53 -17.1 C-39.08 -19.34, -39.52 -21.75, -32.04 -29.17 M-42.53 -17.1 C-39.5 -20.01, -37.23 -23.63, -32.04 -29.17 M-49.62 3.25 C-38.16 -12.74, -26.01 -28.03, -15.5 -36 M-49.62 3.25 C-39.84 -8.64, -28.29 -19.99, -15.5 -36 M-40.3 4.72 C-35.91 -2.26, -28.98 -7.82, -16.02 -23.2 M-40.3 4.72 C-30.32 -5.59, -20.82 -17.13, -16.02 -23.2 M-28.36 3.18 C-25.1 0.33, -23.11 -4.61, -17.86 -8.9 M-28.36 3.18 C-24.74 -0.68, -20.84 -5.77, -17.86 -8.9 M-17.07 2.39 C-15.37 -0.51, -13.74 -2.73, -9.85 -5.91 M-17.07 2.39 C-14.06 -1.19, -12.28 -3.89, -9.85 -5.91 M-5.78 1.6 C-4.73 -0.84, -2.33 -2.86, -1.19 -3.68 M-5.78 1.6 C-3.89 -0.45, -2.63 -2.2, -1.19 -3.68" stroke="#fa5252" stroke-width="1" fill="none"></path><path d="M0 0 C0 0, 0 0, 0 0 M0 0 C0 0, 0 0, 0 0 M0 0 C0.04 -0.66, -0.06 -0.97, -0.02 -1.76 M0 0 C0.05 -0.56, -0.06 -0.91, -0.02 -1.76 M-0.02 -1.76 C-0.13 -1.99, -0.34 -2.44, -0.54 -3.16 M-0.02 -1.76 C-0.27 -2.25, -0.36 -2.77, -0.54 -3.16 M-0.54 -3.16 C-0.93 -3.41, -1.16 -3.86, -1.49 -4.24 M-0.54 -3.16 C-0.95 -3.49, -1.16 -3.93, -1.49 -4.24 M-1.49 -4.24 C-1.7 -4.43, -1.86 -4.44, -2.8 -5.07 M-1.49 -4.24 C-1.76 -4.49, -2.19 -4.64, -2.8 -5.07 M-2.8 -5.07 C-5.38 -5.34, -8.07 -5.82, -10.16 -6.78 M-2.8 -5.07 C-5.33 -5.56, -7.76 -6.05, -10.16 -6.78 M-10.16 -6.78 C-12.81 -7.55, -14.96 -7.87, -15.9 -7.79 M-10.16 -6.78 C-11.58 -6.68, -12.68 -7.04, -15.9 -7.79 M-15.9 -7.79 C-16.51 -8.06, -17.04 -8.35, -17.47 -8.34 M-15.9 -7.79 C-16.43 -7.98, -16.95 -8.21, -17.47 -8.34 M-17.47 -8.34 C-17.95 -8.47, -18.24 -8.77, -18.75 -9.08 M-17.47 -8.34 C-17.71 -8.52, -18.07 -8.72, -18.75 -9.08 M-18.75 -9.08 C-19.01 -9.19, -19.14 -9.43, -19.67 -10.07 M-18.75 -9.08 C-18.95 -9.29, -19.15 -9.46, -19.67 -10.07 M-19.67 -10.07 C-19.78 -10.45, -19.92 -10.61, -20.16 -11.35 M-19.67 -10.07 C-19.84 -10.45, -19.99 -10.94, -20.16 -11.35 M-20.16 -11.35 C-20.3 -11.81, -20.18 -12.12, -20.14 -12.98 M-20.16 -11.35 C-20.2 -11.72, -20.09 -12.22, -20.14 -12.98 M-20.14 -12.98 C-21.81 -17.86, -17.86 -26.32, -18.82 -39.49 M-20.14 -12.98 C-20.41 -22.15, -19.46 -32.65, -18.82 -39.49 M-18.82 -39.49 C-18.82 -39.49, -18.82 -39.49, -18.82 -39.49 M-18.82 -39.49 C-18.82 -39.49, -18.82 -39.49, -18.82 -39.49 M-18.82 -39.49 C-20.32 -39.07, -21.6 -38.16, -22.29 -37.69 M-18.82 -39.49 C-19.58 -38.97, -20.9 -38.4, -22.29 -37.69 M-22.29 -37.69 C-25.03 -37.1, -29.42 -36.28, -35.95 -32.16 M-22.29 -37.69 C-27.58 -36.09, -33 -33.96, -35.95 -32.16 M-35.95 -32.16 C-36.49 -31.94, -37.52 -31.55, -38.68 -31.5 M-35.95 -32.16 C-37.08 -31.99, -37.99 -31.65, -38.68 -31.5 M-38.68 -31.5 C-39.64 -31.1, -40.73 -31.11, -41.52 -30.98 M-38.68 -31.5 C-39.69 -31.43, -40.39 -31.11, -41.52 -30.98 M-41.52 -30.98 C-42.76 -31.09, -43.32 -31.04, -44.49 -30.64 M-41.52 -30.98 C-42.18 -30.89, -42.91 -30.79, -44.49 -30.64 M-44.49 -30.64 C-46.26 -30.4, -48.92 -30.77, -50.76 -30.58 M-44.49 -30.64 C-45.68 -30.68, -47.32 -30.44, -50.76 -30.58 M-50.76 -30.58 C-51.95 -30.52, -53.15 -30.77, -54.06 -30.91 M-50.76 -30.58 C-51.34 -30.66, -52.31 -30.86, -54.06 -30.91 M-54.06 -30.91 C-54.89 -30.78, -55.76 -31.15, -57.47 -31.53 M-54.06 -30.91 C-55.26 -31.1, -56.1 -31.35, -57.47 -31.53 M-57.47 -31.53 C-58.93 -31.69, -59.6 -32.13, -60.98 -32.45 M-57.47 -31.53 C-58.23 -31.94, -58.9 -32.06, -60.98 -32.45 M-60.98 -32.45 C-60.96 -32.44, -60.95 -32.4, -60.93 -32.35 M-60.98 -32.45 C-60.96 -32.42, -60.94 -32.37, -60.93 -32.35 M-60.93 -32.35 C-60.84 -32.25, -60.8 -32.13, -60.76 -32.05 M-60.93 -32.35 C-60.87 -32.26, -60.84 -32.19, -60.76 -32.05 M-60.76 -32.05 C-60.67 -31.91, -60.64 -31.81, -60.46 -31.58 M-60.76 -32.05 C-60.65 -31.84, -60.55 -31.65, -60.46 -31.58 M-60.46 -31.58 C-60.23 -31.36, -60.18 -31.05, -60.02 -30.94 M-60.46 -31.58 C-60.33 -31.34, -60.14 -31.07, -60.02 -30.94 M-60.02 -30.94 C-59.85 -30.68, -59.61 -30.42, -59.41 -30.16 M-60.02 -30.94 C-59.8 -30.69, -59.62 -30.4, -59.41 -30.16 M-59.41 -30.16 C-59.16 -29.95, -58.95 -29.68, -58.61 -29.25 M-59.41 -30.16 C-59.06 -29.84, -58.85 -29.47, -58.61 -29.25 M-58.61 -29.25 C-58.37 -29.05, -58.12 -28.73, -57.62 -28.24 M-58.61 -29.25 C-58.24 -28.89, -57.88 -28.54, -57.62 -28.24 M-57.62 -28.24 C-57.15 -27.76, -56.65 -27.57, -56.42 -27.14 M-57.62 -28.24 C-57.23 -27.94, -56.81 -27.6, -56.42 -27.14 M-56.42 -27.14 C-56.01 -26.99, -55.71 -26.4, -54.98 -25.96 M-56.42 -27.14 C-55.86 -26.71, -55.37 -26.23, -54.98 -25.96 M-54.98 -25.96 C-53.94 -25.39, -53.3 -24.51, -51.35 -23.46 M-54.98 -25.96 C-53.72 -24.83, -52.16 -24.01, -51.35 -23.46 M-51.35 -23.46 C-50.57 -22.55, -48.44 -22.06, -46.6 -20.88 M-51.35 -23.46 C-49.49 -22.56, -48.09 -21.71, -46.6 -20.88 M-46.6 -20.88 C-45.39 -19.82, -44.14 -19.11, -40.59 -18.35 M-46.6 -20.88 C-44.68 -20.22, -43.19 -19.63, -40.59 -18.35 M-40.59 -18.35 C-39.25 -17.84, -37.49 -17.69, -37.08 -17.15 M-40.59 -18.35 C-39.38 -17.88, -37.83 -17.45, -37.08 -17.15 M-37.08 -17.15 C-37.58 -16.49, -37.73 -15.97, -38.13 -15.06 M-37.08 -17.15 C-37.35 -16.65, -37.64 -16.15, -38.13 -15.06 M-38.13 -15.06 C-38.31 -14.54, -38.84 -14.03, -39.44 -13.06 M-38.13 -15.06 C-38.74 -14.34, -39.18 -13.42, -39.44 -13.06 M-39.44 -13.06 C-39.77 -12.26, -41.48 -11.42, -42.63 -9.38 M-39.44 -13.06 C-40.31 -12.34, -41.12 -10.93, -42.63 -9.38 M-42.63 -9.38 C-44.23 -8.56, -45.05 -7.44, -46.3 -6.16 M-42.63 -9.38 C-43.24 -8.81, -44.28 -7.87, -46.3 -6.16 M-46.3 -6.16 C-47.46 -5.49, -48.63 -4.53, -50.09 -3.43 M-46.3 -6.16 C-47.47 -5.52, -48.11 -4.9, -50.09 -3.43 M-50.09 -3.43 C-50.96 -2.43, -52.24 -2, -53.65 -1.24 M-50.09 -3.43 C-51.44 -2.5, -52.77 -1.97, -53.65 -1.24 M-53.65 -1.24 C-54.09 -1.06, -54.48 -0.74, -55.24 -0.35 M-53.65 -1.24 C-54 -1.05, -54.44 -0.78, -55.24 -0.35 M-55.24 -0.35 C-55.73 -0.1, -56.4 0.07, -56.64 0.38 M-55.24 -0.35 C-55.62 -0.15, -56 0.07, -56.64 0.38 M-56.64 0.38 C-57.01 0.45, -57.3 0.53, -57.8 0.96 M-56.64 0.38 C-56.91 0.54, -57.19 0.65, -57.8 0.96 M-57.8 0.96 C-58.14 1.05, -58.37 1.16, -58.69 1.38 M-57.8 0.96 C-58.18 1.14, -58.44 1.32, -58.69 1.38 M-58.69 1.38 C-58.84 1.44, -59.13 1.53, -59.25 1.63 M-58.69 1.38 C-58.91 1.49, -59.11 1.59, -59.25 1.63 M-59.25 1.63 C-59.28 1.66, -59.32 1.67, -59.45 1.72 M-59.25 1.63 C-59.31 1.67, -59.39 1.69, -59.45 1.72 M-59.45 1.72 C-58.55 1.87, -56.81 2.45, -56.48 2.64 M-59.45 1.72 C-58.53 2.13, -57.73 2.2, -56.48 2.64 M-56.48 2.64 C-55.54 2.88, -54.57 2.99, -53.25 3.17 M-56.48 2.64 C-55.27 2.74, -54.31 2.87, -53.25 3.17 M-53.25 3.17 C-51.96 2.96, -50.47 3.12, -49.8 3.36 M-53.25 3.17 C-51.9 3.09, -50.6 3.25, -49.8 3.36 M-49.8 3.36 C-48.17 3.19, -46.92 3.26, -46.19 3.27 M-49.8 3.36 C-48.24 3.23, -46.98 3.32, -46.19 3.27 M-46.19 3.27 C-44.93 3.45, -43.43 2.76, -42.45 2.95 M-46.19 3.27 C-44.6 3.23, -43.28 3.1, -42.45 2.95 M-42.45 2.95 C-35.17 4.07, -28.29 0.3, -19.98 -0.39 M-42.45 2.95 C-34.94 1.26, -29.11 1.43, -19.98 -0.39 M-19.98 -0.39 C-17.75 -0.83, -15.46 -0.48, -13.57 -0.69 M-19.98 -0.39 C-18.13 -0.8, -15.57 -0.36, -13.57 -0.69 M-13.57 -0.69 C-12.71 -0.68, -12.12 -0.63, -10.77 -0.44 M-13.57 -0.69 C-12.36 -0.69, -11.37 -0.58, -10.77 -0.44 M-10.77 -0.44 C-9.65 -0.08, -9.18 0.18, -6.22 1.19 M-10.77 -0.44 C-9.57 0.27, -7.86 0.53, -6.22 1.19 M-6.22 1.19 C-5.74 1.45, -5.65 1.42, -4.53 2.07 M-6.22 1.19 C-5.83 1.35, -5.31 1.68, -4.53 2.07 M-4.53 2.07 C-4.06 2.19, -3.36 2.34, -3.15 2.38 M-4.53 2.07 C-4.11 2.23, -3.57 2.32, -3.15 2.38 M-3.15 2.38 C-2.75 2.34, -2.31 2.26, -2.07 2.25 M-3.15 2.38 C-2.84 2.29, -2.66 2.34, -2.07 2.25 M-2.07 2.25 C-1.9 2.02, -1.61 2.04, -1.25 1.82 M-2.07 2.25 C-1.86 2.14, -1.67 2.05, -1.25 1.82 M-1.25 1.82 C-1.13 1.58, -0.95 1.57, -0.66 1.24 M-1.25 1.82 C-1.11 1.66, -0.92 1.53, -0.66 1.24 M-0.66 1.24 C-0.5 1.06, -0.41 0.88, -0.27 0.64 M-0.66 1.24 C-0.53 1.06, -0.44 0.94, -0.27 0.64 M-0.27 0.64 C-0.21 0.52, -0.13 0.38, -0.06 0.18 M-0.27 0.64 C-0.22 0.53, -0.18 0.4, -0.06 0.18 M-0.06 0.18 C-0.02 0.13, 0 0.04, 0 0 M-0.06 0.18 C-0.05 0.14, -0.04 0.08, 0 0 M0 0 C0 0, 0 0, 0 0 M0 0 C0 0, 0 0, 0 0 M0 0 C0 0, 0 0, 0 0 M0 0 C0 0, 0 0, 0 0" stroke="#000000" stroke-width="2" fill="none"></path></g></g><mask></mask></svg>