<svg xmlns="http://www.w3.org/2000/svg" viewBox="8205.29 -80.40 1612.00 1075.69" width="1612" height="1076"><rect x="8211.29" y="-74.40" width="1600.00" height="900.00" rx="0" stroke="#000000" stroke-width="1" opacity="1.0" fill="none"/><text x="8297.86" y="-16.41" font-size="16" fill="#495057" opacity="1.0" font-family="sans-serif">Awesome Team at Company</text><text x="9569.94" y="-16.41" font-size="16" fill="#495057" opacity="1.0" font-family="sans-serif">2021-06-28</text><rect x="8335.17" y="179.76" width="269.56" height="584.90" rx="0" stroke="#000000" stroke-width="2" opacity="1.0" fill="white"/><text x="8344.34" y="195.73" font-size="11.555015788195291" fill="#000000" opacity="1.0" font-family="sans-serif">10:47</text><rect x="8572.12" y="185.83" width="24.50" height="11.18" rx="0" stroke="#000000" stroke-width="2" opacity="1.0" fill="white"/><rect x="8573.19" y="189.27" width="15.05" height="6.02" rx="0" stroke="none" stroke-width="2" opacity="1.0" fill="white"/><text x="8400.87" y="487.32" font-size="25.9987855234394" fill="#000" opacity="1.0" font-family="sans-serif">iPhone 11/X</text><polyline points="8407.58,182.64 8529.45,183.20 8508.01,197.87 8427.33,198.44 8407.58,182.64" fill="#ced4da" stroke="#000" stroke-width="2" opacity="1.0" stroke-linecap="round" stroke-linejoin="round"/><rect x="8704.51" y="179.76" width="269.56" height="584.90" rx="0" stroke="#000000" stroke-width="2" opacity="1.0" fill="white"/><text x="8713.67" y="195.73" font-size="11.555015788195291" fill="#000000" opacity="1.0" font-family="sans-serif">10:47</text><rect x="8941.45" y="185.83" width="24.50" height="11.18" rx="0" stroke="#000000" stroke-width="2" opacity="1.0" fill="white"/><rect x="8942.52" y="189.27" width="15.05" height="6.02" rx="0" stroke="none" stroke-width="2" opacity="1.0" fill="white"/><text x="8770.20" y="487.32" font-size="25.9987855234394" fill="#000" opacity="1.0" font-family="sans-serif">iPhone 11/X</text><polyline points="8776.92,182.64 8898.79,183.20 8877.35,197.87 8796.67,198.44 8776.92,182.64" fill="#ced4da" stroke="#000" stroke-width="2" opacity="1.0" stroke-linecap="round" stroke-linejoin="round"/><rect x="9073.84" y="179.76" width="269.56" height="584.90" rx="0" stroke="#000000" stroke-width="2" opacity="1.0" fill="white"/><text x="9083.01" y="195.73" font-size="11.555015788195291" fill="#000000" opacity="1.0" font-family="sans-serif">10:47</text><rect x="9310.78" y="185.83" width="24.50" height="11.18" rx="0" stroke="#000000" stroke-width="2" opacity="1.0" fill="white"/><rect x="9311.86" y="189.27" width="15.05" height="6.02" rx="0" stroke="none" stroke-width="2" opacity="1.0" fill="white"/><text x="9139.54" y="487.32" font-size="25.9987855234394" fill="#000" opacity="1.0" font-family="sans-serif">iPhone 11/X</text><polyline points="9146.25,182.64 9268.12,183.20 9246.68,197.87 9166.00,198.44 9146.25,182.64" fill="#ced4da" stroke="#000" stroke-width="2" opacity="1.0" stroke-linecap="round" stroke-linejoin="round"/><rect x="9443.17" y="179.76" width="269.56" height="584.90" rx="0" stroke="#000000" stroke-width="2" opacity="1.0" fill="white"/><text x="9452.34" y="195.73" font-size="11.555015788195291" fill="#000000" opacity="1.0" font-family="sans-serif">10:47</text><rect x="9680.12" y="185.83" width="24.50" height="11.18" rx="0" stroke="#000000" stroke-width="2" opacity="1.0" fill="white"/><rect x="9681.19" y="189.27" width="15.05" height="6.02" rx="0" stroke="none" stroke-width="2" opacity="1.0" fill="white"/><text x="9508.87" y="487.32" font-size="25.9987855234394" fill="#000" opacity="1.0" font-family="sans-serif">iPhone 11/X</text><polyline points="9515.58,182.64 9637.45,183.20 9616.01,197.87 9535.33,198.44 9515.58,182.64" fill="#ced4da" stroke="#000" stroke-width="2" opacity="1.0" stroke-linecap="round" stroke-linejoin="round"/><text x="8264.41" y="100.53" font-size="68" fill="#343a40" opacity="1.0" font-family="sans-serif">Main Flow</text><rect x="8218.23" y="48.27" width="12.86" height="59.17" rx="0" stroke="#4c6ef5" stroke-width="4" opacity="1.0" fill="#4c6ef5"/><polyline points="8607.99,561.91 8659.79,561.91 8659.79,369.41 8697.99,370.24" fill="none" stroke="#5f3dc4" stroke-width="2" opacity="1.0" stroke-linecap="round" stroke-linejoin="round"/><polyline points="8979.24,534.28 9031.04,534.28 9031.04,701.78 9069.24,701.05" fill="none" stroke="#5f3dc4" stroke-width="2" opacity="1.0" stroke-linecap="round" stroke-linejoin="round"/><polyline points="9348.24,543.28 9400.04,543.28 9400.04,519.78 9438.24,519.88" fill="none" stroke="#5f3dc4" stroke-width="2" opacity="1.0" stroke-linecap="round" stroke-linejoin="round"/></svg>