<svg version="1.1" xmlns="http://www.w3.org/2000/svg" viewBox="0 0 109.94672232254015 172.3698970757314" width="109.94672232254015" height="172.3698970757314">
  <!-- svg-source:excalidraw -->
  
  <defs>
    
    
  </defs>
  <g stroke-linecap="round" transform="translate(6 6) rotate(0 43.92912551591962 59.866575996830704)"><path d="M-1.62 -1.39 L88.37 -0.65 L87.91 120.09 L-0.52 118.97" stroke="none" stroke-width="0" fill="#eebfd9"></path><path d="M0 0 C21.11 1.14, 41.94 -0.75, 87.86 0 M0 0 C18.37 0.57, 36.94 -0.25, 87.86 0 M87.86 0 C87.59 46.99, 86.6 95.11, 87.86 119.73 M87.86 0 C88.85 41.62, 88.18 80.42, 87.86 119.73 M87.86 119.73 C60.76 117.83, 33.22 120.38, 0 119.73 M87.86 119.73 C66.36 119.61, 44 119.55, 0 119.73 M0 119.73 C0.51 75.62, 1.97 31.92, 0 0 M0 119.73 C0.68 89.3, 1.5 60.19, 0 0" stroke="#000000" stroke-width="4" fill="none"></path></g><g stroke-linecap="round" transform="translate(45.610784822540154 20.591097977675986) rotate(0 29.16796875 15)"><path d="M-1.39 0.51 L57.69 0.05 L58.69 29.48 L-0.77 30.04" stroke="none" stroke-width="0" fill="#fff"></path><path d="M0 0 C13.56 -1.02, 23.79 -1.69, 58.34 0 M0 0 C21.48 0.18, 42 0.9, 58.34 0 M58.34 0 C58.57 6.43, 60.09 14.42, 58.34 30 M58.34 0 C58.99 10.07, 57.11 20.59, 58.34 30 M58.34 30 C40.53 30.48, 26.8 29.09, 0 30 M58.34 30 C43.83 30.07, 29.25 30.82, 0 30 M0 30 C-0.81 23.29, -1.32 12.06, 0 0 M0 30 C-0.48 23.89, 0.41 15.8, 0 0" stroke="#000000" stroke-width="4" fill="none"></path></g><g transform="translate(54.90129414275316 25.01304989104517) rotate(0 19.5 12.5)"><text x="0" y="0" font-family="Virgil, Segoe UI Emoji" font-size="20px" fill="#000000" text-anchor="start" style="white-space: pre;" direction="ltr" dominant-baseline="text-before-edge">SQL</text></g><g stroke-linecap="round" transform="translate(32.533582946959655 69.36170838241594) rotate(0 19.173829085152533 18.54192405103612)"><path d="M0 0 L38.35 0 L38.35 37.08 L0 37.08" stroke="none" stroke-width="0" fill="#aedaf5"></path><path d="M0 0 C9.2 0, 18.4 0, 38.35 0 M0 0 C12.53 0, 25.06 0, 38.35 0 M38.35 0 C38.35 11.4, 38.35 22.8, 38.35 37.08 M38.35 0 C38.35 12.26, 38.35 24.51, 38.35 37.08 M38.35 37.08 C23.21 37.08, 8.08 37.08, 0 37.08 M38.35 37.08 C26.7 37.08, 15.05 37.08, 0 37.08 M0 37.08 C0 22.95, 0 8.81, 0 0 M0 37.08 C0 27.28, 0 17.48, 0 0" stroke="#000" stroke-width="4" fill="none"></path></g><g stroke-linecap="round" transform="translate(32.47730765089091 99.58393422185941) rotate(0 19.196673090770787 7.425844850570002)"><path d="M38.39 7.43 C38.39 7.86, 38.29 8.29, 38.1 8.72 C37.91 9.14, 37.62 9.56, 37.24 9.97 C36.86 10.37, 36.38 10.77, 35.82 11.14 C35.27 11.51, 34.62 11.87, 33.9 12.2 C33.19 12.53, 32.39 12.84, 31.54 13.11 C30.68 13.39, 29.76 13.64, 28.8 13.86 C27.83 14.07, 26.81 14.26, 25.76 14.4 C24.72 14.55, 23.62 14.66, 22.53 14.74 C21.44 14.81, 20.31 14.85, 19.2 14.85 C18.09 14.85, 16.96 14.81, 15.86 14.74 C14.77 14.66, 13.68 14.55, 12.63 14.4 C11.59 14.26, 10.56 14.07, 9.6 13.86 C8.64 13.64, 7.71 13.39, 6.86 13.11 C6.01 12.84, 5.21 12.53, 4.49 12.2 C3.78 11.87, 3.13 11.51, 2.57 11.14 C2.02 10.77, 1.54 10.37, 1.16 9.97 C0.78 9.56, 0.48 9.14, 0.29 8.72 C0.1 8.29, 0 7.86, 0 7.43 C0 7, 0.1 6.56, 0.29 6.14 C0.48 5.71, 0.78 5.29, 1.16 4.89 C1.54 4.48, 2.02 4.09, 2.57 3.71 C3.13 3.34, 3.78 2.98, 4.49 2.65 C5.21 2.32, 6.01 2.01, 6.86 1.74 C7.71 1.46, 8.64 1.21, 9.6 0.99 C10.56 0.78, 11.59 0.59, 12.63 0.45 C13.68 0.3, 14.77 0.19, 15.86 0.11 C16.96 0.04, 18.09 0, 19.2 0 C20.31 0, 21.44 0.04, 22.53 0.11 C23.62 0.19, 24.72 0.3, 25.76 0.45 C26.81 0.59, 27.83 0.78, 28.8 0.99 C29.76 1.21, 30.68 1.46, 31.54 1.74 C32.39 2.01, 33.19 2.32, 33.9 2.65 C34.62 2.98, 35.27 3.34, 35.82 3.71 C36.38 4.09, 36.86 4.48, 37.24 4.89 C37.62 5.29, 37.91 5.71, 38.1 6.14 C38.29 6.56, 38.34 7.21, 38.39 7.43 C38.44 7.64, 38.44 7.21, 38.39 7.43" stroke="none" stroke-width="0" fill="#aedaf5"></path><path d="M38.39 7.43 C38.39 7.86, 38.29 8.29, 38.1 8.72 C37.91 9.14, 37.62 9.56, 37.24 9.97 C36.86 10.37, 36.38 10.77, 35.82 11.14 C35.27 11.51, 34.62 11.87, 33.9 12.2 C33.19 12.53, 32.39 12.84, 31.54 13.11 C30.68 13.39, 29.76 13.64, 28.8 13.86 C27.83 14.07, 26.81 14.26, 25.76 14.4 C24.72 14.55, 23.62 14.66, 22.53 14.74 C21.44 14.81, 20.31 14.85, 19.2 14.85 C18.09 14.85, 16.96 14.81, 15.86 14.74 C14.77 14.66, 13.68 14.55, 12.63 14.4 C11.59 14.26, 10.56 14.07, 9.6 13.86 C8.64 13.64, 7.71 13.39, 6.86 13.11 C6.01 12.84, 5.21 12.53, 4.49 12.2 C3.78 11.87, 3.13 11.51, 2.57 11.14 C2.02 10.77, 1.54 10.37, 1.16 9.97 C0.78 9.56, 0.48 9.14, 0.29 8.72 C0.1 8.29, 0 7.86, 0 7.43 C0 7, 0.1 6.56, 0.29 6.14 C0.48 5.71, 0.78 5.29, 1.16 4.89 C1.54 4.48, 2.02 4.09, 2.57 3.71 C3.13 3.34, 3.78 2.98, 4.49 2.65 C5.21 2.32, 6.01 2.01, 6.86 1.74 C7.71 1.46, 8.64 1.21, 9.6 0.99 C10.56 0.78, 11.59 0.59, 12.63 0.45 C13.68 0.3, 14.77 0.19, 15.86 0.11 C16.96 0.04, 18.09 0, 19.2 0 C20.31 0, 21.44 0.04, 22.53 0.11 C23.62 0.19, 24.72 0.3, 25.76 0.45 C26.81 0.59, 27.83 0.78, 28.8 0.99 C29.76 1.21, 30.68 1.46, 31.54 1.74 C32.39 2.01, 33.19 2.32, 33.9 2.65 C34.62 2.98, 35.27 3.34, 35.82 3.71 C36.38 4.09, 36.86 4.48, 37.24 4.89 C37.62 5.29, 37.91 5.71, 38.1 6.14 C38.29 6.56, 38.34 7.21, 38.39 7.43 C38.44 7.64, 38.44 7.21, 38.39 7.43" stroke="#000" stroke-width="4" fill="none"></path></g><g stroke-linecap="round" transform="translate(32.50009997033885 89.99368026709953) rotate(0 19.196673090770787 7.425844850570002)"><path d="M38.39 7.43 C38.39 7.86, 38.29 8.29, 38.1 8.72 C37.91 9.14, 37.62 9.56, 37.24 9.97 C36.86 10.37, 36.38 10.77, 35.82 11.14 C35.27 11.51, 34.62 11.87, 33.9 12.2 C33.19 12.53, 32.39 12.84, 31.54 13.11 C30.68 13.39, 29.76 13.64, 28.8 13.86 C27.83 14.07, 26.81 14.26, 25.76 14.4 C24.72 14.55, 23.62 14.66, 22.53 14.74 C21.44 14.81, 20.31 14.85, 19.2 14.85 C18.09 14.85, 16.96 14.81, 15.86 14.74 C14.77 14.66, 13.68 14.55, 12.63 14.4 C11.59 14.26, 10.56 14.07, 9.6 13.86 C8.64 13.64, 7.71 13.39, 6.86 13.11 C6.01 12.84, 5.21 12.53, 4.49 12.2 C3.78 11.87, 3.13 11.51, 2.57 11.14 C2.02 10.77, 1.54 10.37, 1.16 9.97 C0.78 9.56, 0.48 9.14, 0.29 8.72 C0.1 8.29, 0 7.86, 0 7.43 C0 7, 0.1 6.56, 0.29 6.14 C0.48 5.71, 0.78 5.29, 1.16 4.89 C1.54 4.48, 2.02 4.09, 2.57 3.71 C3.13 3.34, 3.78 2.98, 4.49 2.65 C5.21 2.32, 6.01 2.01, 6.86 1.74 C7.71 1.46, 8.64 1.21, 9.6 0.99 C10.56 0.78, 11.59 0.59, 12.63 0.45 C13.68 0.3, 14.77 0.19, 15.86 0.11 C16.96 0.04, 18.09 0, 19.2 0 C20.31 0, 21.44 0.04, 22.53 0.11 C23.62 0.19, 24.72 0.3, 25.76 0.45 C26.81 0.59, 27.83 0.78, 28.8 0.99 C29.76 1.21, 30.68 1.46, 31.54 1.74 C32.39 2.01, 33.19 2.32, 33.9 2.65 C34.62 2.98, 35.27 3.34, 35.82 3.71 C36.38 4.09, 36.86 4.48, 37.24 4.89 C37.62 5.29, 37.91 5.71, 38.1 6.14 C38.29 6.56, 38.34 7.21, 38.39 7.43 C38.44 7.64, 38.44 7.21, 38.39 7.43" stroke="none" stroke-width="0" fill="#aedaf5"></path><path d="M38.39 7.43 C38.39 7.86, 38.29 8.29, 38.1 8.72 C37.91 9.14, 37.62 9.56, 37.24 9.97 C36.86 10.37, 36.38 10.77, 35.82 11.14 C35.27 11.51, 34.62 11.87, 33.9 12.2 C33.19 12.53, 32.39 12.84, 31.54 13.11 C30.68 13.39, 29.76 13.64, 28.8 13.86 C27.83 14.07, 26.81 14.26, 25.76 14.4 C24.72 14.55, 23.62 14.66, 22.53 14.74 C21.44 14.81, 20.31 14.85, 19.2 14.85 C18.09 14.85, 16.96 14.81, 15.86 14.74 C14.77 14.66, 13.68 14.55, 12.63 14.4 C11.59 14.26, 10.56 14.07, 9.6 13.86 C8.64 13.64, 7.71 13.39, 6.86 13.11 C6.01 12.84, 5.21 12.53, 4.49 12.2 C3.78 11.87, 3.13 11.51, 2.57 11.14 C2.02 10.77, 1.54 10.37, 1.16 9.97 C0.78 9.56, 0.48 9.14, 0.29 8.72 C0.1 8.29, 0 7.86, 0 7.43 C0 7, 0.1 6.56, 0.29 6.14 C0.48 5.71, 0.78 5.29, 1.16 4.89 C1.54 4.48, 2.02 4.09, 2.57 3.71 C3.13 3.34, 3.78 2.98, 4.49 2.65 C5.21 2.32, 6.01 2.01, 6.86 1.74 C7.71 1.46, 8.64 1.21, 9.6 0.99 C10.56 0.78, 11.59 0.59, 12.63 0.45 C13.68 0.3, 14.77 0.19, 15.86 0.11 C16.96 0.04, 18.09 0, 19.2 0 C20.31 0, 21.44 0.04, 22.53 0.11 C23.62 0.19, 24.72 0.3, 25.76 0.45 C26.81 0.59, 27.83 0.78, 28.8 0.99 C29.76 1.21, 30.68 1.46, 31.54 1.74 C32.39 2.01, 33.19 2.32, 33.9 2.65 C34.62 2.98, 35.27 3.34, 35.82 3.71 C36.38 4.09, 36.86 4.48, 37.24 4.89 C37.62 5.29, 37.91 5.71, 38.1 6.14 C38.29 6.56, 38.34 7.21, 38.39 7.43 C38.44 7.64, 38.44 7.21, 38.39 7.43" stroke="#000" stroke-width="4" fill="none"></path></g><g stroke-linecap="round" transform="translate(32.48283638007297 80.58037093507369) rotate(0 19.196673090770787 7.425844850570002)"><path d="M38.39 7.43 C38.39 7.86, 38.29 8.29, 38.1 8.72 C37.91 9.14, 37.62 9.56, 37.24 9.97 C36.86 10.37, 36.38 10.77, 35.82 11.14 C35.27 11.51, 34.62 11.87, 33.9 12.2 C33.19 12.53, 32.39 12.84, 31.54 13.11 C30.68 13.39, 29.76 13.64, 28.8 13.86 C27.83 14.07, 26.81 14.26, 25.76 14.4 C24.72 14.55, 23.62 14.66, 22.53 14.74 C21.44 14.81, 20.31 14.85, 19.2 14.85 C18.09 14.85, 16.96 14.81, 15.86 14.74 C14.77 14.66, 13.68 14.55, 12.63 14.4 C11.59 14.26, 10.56 14.07, 9.6 13.86 C8.64 13.64, 7.71 13.39, 6.86 13.11 C6.01 12.84, 5.21 12.53, 4.49 12.2 C3.78 11.87, 3.13 11.51, 2.57 11.14 C2.02 10.77, 1.54 10.37, 1.16 9.97 C0.78 9.56, 0.48 9.14, 0.29 8.72 C0.1 8.29, 0 7.86, 0 7.43 C0 7, 0.1 6.56, 0.29 6.14 C0.48 5.71, 0.78 5.29, 1.16 4.89 C1.54 4.48, 2.02 4.09, 2.57 3.71 C3.13 3.34, 3.78 2.98, 4.49 2.65 C5.21 2.32, 6.01 2.01, 6.86 1.74 C7.71 1.46, 8.64 1.21, 9.6 0.99 C10.56 0.78, 11.59 0.59, 12.63 0.45 C13.68 0.3, 14.77 0.19, 15.86 0.11 C16.96 0.04, 18.09 0, 19.2 0 C20.31 0, 21.44 0.04, 22.53 0.11 C23.62 0.19, 24.72 0.3, 25.76 0.45 C26.81 0.59, 27.83 0.78, 28.8 0.99 C29.76 1.21, 30.68 1.46, 31.54 1.74 C32.39 2.01, 33.19 2.32, 33.9 2.65 C34.62 2.98, 35.27 3.34, 35.82 3.71 C36.38 4.09, 36.86 4.48, 37.24 4.89 C37.62 5.29, 37.91 5.71, 38.1 6.14 C38.29 6.56, 38.34 7.21, 38.39 7.43 C38.44 7.64, 38.44 7.21, 38.39 7.43" stroke="none" stroke-width="0" fill="#aedaf5"></path><path d="M38.39 7.43 C38.39 7.86, 38.29 8.29, 38.1 8.72 C37.91 9.14, 37.62 9.56, 37.24 9.97 C36.86 10.37, 36.38 10.77, 35.82 11.14 C35.27 11.51, 34.62 11.87, 33.9 12.2 C33.19 12.53, 32.39 12.84, 31.54 13.11 C30.68 13.39, 29.76 13.64, 28.8 13.86 C27.83 14.07, 26.81 14.26, 25.76 14.4 C24.72 14.55, 23.62 14.66, 22.53 14.74 C21.44 14.81, 20.31 14.85, 19.2 14.85 C18.09 14.85, 16.96 14.81, 15.86 14.74 C14.77 14.66, 13.68 14.55, 12.63 14.4 C11.59 14.26, 10.56 14.07, 9.6 13.86 C8.64 13.64, 7.71 13.39, 6.86 13.11 C6.01 12.84, 5.21 12.53, 4.49 12.2 C3.78 11.87, 3.13 11.51, 2.57 11.14 C2.02 10.77, 1.54 10.37, 1.16 9.97 C0.78 9.56, 0.48 9.14, 0.29 8.72 C0.1 8.29, 0 7.86, 0 7.43 C0 7, 0.1 6.56, 0.29 6.14 C0.48 5.71, 0.78 5.29, 1.16 4.89 C1.54 4.48, 2.02 4.09, 2.57 3.71 C3.13 3.34, 3.78 2.98, 4.49 2.65 C5.21 2.32, 6.01 2.01, 6.86 1.74 C7.71 1.46, 8.64 1.21, 9.6 0.99 C10.56 0.78, 11.59 0.59, 12.63 0.45 C13.68 0.3, 14.77 0.19, 15.86 0.11 C16.96 0.04, 18.09 0, 19.2 0 C20.31 0, 21.44 0.04, 22.53 0.11 C23.62 0.19, 24.72 0.3, 25.76 0.45 C26.81 0.59, 27.83 0.78, 28.8 0.99 C29.76 1.21, 30.68 1.46, 31.54 1.74 C32.39 2.01, 33.19 2.32, 33.9 2.65 C34.62 2.98, 35.27 3.34, 35.82 3.71 C36.38 4.09, 36.86 4.48, 37.24 4.89 C37.62 5.29, 37.91 5.71, 38.1 6.14 C38.29 6.56, 38.34 7.21, 38.39 7.43 C38.44 7.64, 38.44 7.21, 38.39 7.43" stroke="#000" stroke-width="4" fill="none"></path></g><g stroke-linecap="round" transform="translate(32.5299561641566 71.97123579339814) rotate(0 19.196673090770787 7.425844850570002)"><path d="M38.39 7.43 C38.39 7.86, 38.29 8.29, 38.1 8.72 C37.91 9.14, 37.62 9.56, 37.24 9.97 C36.86 10.37, 36.38 10.77, 35.82 11.14 C35.27 11.51, 34.62 11.87, 33.9 12.2 C33.19 12.53, 32.39 12.84, 31.54 13.11 C30.68 13.39, 29.76 13.64, 28.8 13.86 C27.83 14.07, 26.81 14.26, 25.76 14.4 C24.72 14.55, 23.62 14.66, 22.53 14.74 C21.44 14.81, 20.31 14.85, 19.2 14.85 C18.09 14.85, 16.96 14.81, 15.86 14.74 C14.77 14.66, 13.68 14.55, 12.63 14.4 C11.59 14.26, 10.56 14.07, 9.6 13.86 C8.64 13.64, 7.71 13.39, 6.86 13.11 C6.01 12.84, 5.21 12.53, 4.49 12.2 C3.78 11.87, 3.13 11.51, 2.57 11.14 C2.02 10.77, 1.54 10.37, 1.16 9.97 C0.78 9.56, 0.48 9.14, 0.29 8.72 C0.1 8.29, 0 7.86, 0 7.43 C0 7, 0.1 6.56, 0.29 6.14 C0.48 5.71, 0.78 5.29, 1.16 4.89 C1.54 4.48, 2.02 4.09, 2.57 3.71 C3.13 3.34, 3.78 2.98, 4.49 2.65 C5.21 2.32, 6.01 2.01, 6.86 1.74 C7.71 1.46, 8.64 1.21, 9.6 0.99 C10.56 0.78, 11.59 0.59, 12.63 0.45 C13.68 0.3, 14.77 0.19, 15.86 0.11 C16.96 0.04, 18.09 0, 19.2 0 C20.31 0, 21.44 0.04, 22.53 0.11 C23.62 0.19, 24.72 0.3, 25.76 0.45 C26.81 0.59, 27.83 0.78, 28.8 0.99 C29.76 1.21, 30.68 1.46, 31.54 1.74 C32.39 2.01, 33.19 2.32, 33.9 2.65 C34.62 2.98, 35.27 3.34, 35.82 3.71 C36.38 4.09, 36.86 4.48, 37.24 4.89 C37.62 5.29, 37.91 5.71, 38.1 6.14 C38.29 6.56, 38.34 7.21, 38.39 7.43 C38.44 7.64, 38.44 7.21, 38.39 7.43" stroke="none" stroke-width="0" fill="#aedaf5"></path><path d="M38.39 7.43 C38.39 7.86, 38.29 8.29, 38.1 8.72 C37.91 9.14, 37.62 9.56, 37.24 9.97 C36.86 10.37, 36.38 10.77, 35.82 11.14 C35.27 11.51, 34.62 11.87, 33.9 12.2 C33.19 12.53, 32.39 12.84, 31.54 13.11 C30.68 13.39, 29.76 13.64, 28.8 13.86 C27.83 14.07, 26.81 14.26, 25.76 14.4 C24.72 14.55, 23.62 14.66, 22.53 14.74 C21.44 14.81, 20.31 14.85, 19.2 14.85 C18.09 14.85, 16.96 14.81, 15.86 14.74 C14.77 14.66, 13.68 14.55, 12.63 14.4 C11.59 14.26, 10.56 14.07, 9.6 13.86 C8.64 13.64, 7.71 13.39, 6.86 13.11 C6.01 12.84, 5.21 12.53, 4.49 12.2 C3.78 11.87, 3.13 11.51, 2.57 11.14 C2.02 10.77, 1.54 10.37, 1.16 9.97 C0.78 9.56, 0.48 9.14, 0.29 8.72 C0.1 8.29, 0 7.86, 0 7.43 C0 7, 0.1 6.56, 0.29 6.14 C0.48 5.71, 0.78 5.29, 1.16 4.89 C1.54 4.48, 2.02 4.09, 2.57 3.71 C3.13 3.34, 3.78 2.98, 4.49 2.65 C5.21 2.32, 6.01 2.01, 6.86 1.74 C7.71 1.46, 8.64 1.21, 9.6 0.99 C10.56 0.78, 11.59 0.59, 12.63 0.45 C13.68 0.3, 14.77 0.19, 15.86 0.11 C16.96 0.04, 18.09 0, 19.2 0 C20.31 0, 21.44 0.04, 22.53 0.11 C23.62 0.19, 24.72 0.3, 25.76 0.45 C26.81 0.59, 27.83 0.78, 28.8 0.99 C29.76 1.21, 30.68 1.46, 31.54 1.74 C32.39 2.01, 33.19 2.32, 33.9 2.65 C34.62 2.98, 35.27 3.34, 35.82 3.71 C36.38 4.09, 36.86 4.48, 37.24 4.89 C37.62 5.29, 37.91 5.71, 38.1 6.14 C38.29 6.56, 38.34 7.21, 38.39 7.43 C38.44 7.64, 38.44 7.21, 38.39 7.43" stroke="#000" stroke-width="4" fill="none"></path></g><g stroke-linecap="round" transform="translate(32.52390191037739 62.75482758811336) rotate(0 19.196673090770787 7.425844850570002)"><path d="M38.39 7.43 C38.39 7.86, 38.29 8.29, 38.1 8.72 C37.91 9.14, 37.62 9.56, 37.24 9.97 C36.86 10.37, 36.38 10.77, 35.82 11.14 C35.27 11.51, 34.62 11.87, 33.9 12.2 C33.19 12.53, 32.39 12.84, 31.54 13.11 C30.68 13.39, 29.76 13.64, 28.8 13.86 C27.83 14.07, 26.81 14.26, 25.76 14.4 C24.72 14.55, 23.62 14.66, 22.53 14.74 C21.44 14.81, 20.31 14.85, 19.2 14.85 C18.09 14.85, 16.96 14.81, 15.86 14.74 C14.77 14.66, 13.68 14.55, 12.63 14.4 C11.59 14.26, 10.56 14.07, 9.6 13.86 C8.64 13.64, 7.71 13.39, 6.86 13.11 C6.01 12.84, 5.21 12.53, 4.49 12.2 C3.78 11.87, 3.13 11.51, 2.57 11.14 C2.02 10.77, 1.54 10.37, 1.16 9.97 C0.78 9.56, 0.48 9.14, 0.29 8.72 C0.1 8.29, 0 7.86, 0 7.43 C0 7, 0.1 6.56, 0.29 6.14 C0.48 5.71, 0.78 5.29, 1.16 4.89 C1.54 4.48, 2.02 4.09, 2.57 3.71 C3.13 3.34, 3.78 2.98, 4.49 2.65 C5.21 2.32, 6.01 2.01, 6.86 1.74 C7.71 1.46, 8.64 1.21, 9.6 0.99 C10.56 0.78, 11.59 0.59, 12.63 0.45 C13.68 0.3, 14.77 0.19, 15.86 0.11 C16.96 0.04, 18.09 0, 19.2 0 C20.31 0, 21.44 0.04, 22.53 0.11 C23.62 0.19, 24.72 0.3, 25.76 0.45 C26.81 0.59, 27.83 0.78, 28.8 0.99 C29.76 1.21, 30.68 1.46, 31.54 1.74 C32.39 2.01, 33.19 2.32, 33.9 2.65 C34.62 2.98, 35.27 3.34, 35.82 3.71 C36.38 4.09, 36.86 4.48, 37.24 4.89 C37.62 5.29, 37.91 5.71, 38.1 6.14 C38.29 6.56, 38.34 7.21, 38.39 7.43 C38.44 7.64, 38.44 7.21, 38.39 7.43" stroke="none" stroke-width="0" fill="#dff3fd"></path><path d="M38.39 7.43 C38.39 7.86, 38.29 8.29, 38.1 8.72 C37.91 9.14, 37.62 9.56, 37.24 9.97 C36.86 10.37, 36.38 10.77, 35.82 11.14 C35.27 11.51, 34.62 11.87, 33.9 12.2 C33.19 12.53, 32.39 12.84, 31.54 13.11 C30.68 13.39, 29.76 13.64, 28.8 13.86 C27.83 14.07, 26.81 14.26, 25.76 14.4 C24.72 14.55, 23.62 14.66, 22.53 14.74 C21.44 14.81, 20.31 14.85, 19.2 14.85 C18.09 14.85, 16.96 14.81, 15.86 14.74 C14.77 14.66, 13.68 14.55, 12.63 14.4 C11.59 14.26, 10.56 14.07, 9.6 13.86 C8.64 13.64, 7.71 13.39, 6.86 13.11 C6.01 12.84, 5.21 12.53, 4.49 12.2 C3.78 11.87, 3.13 11.51, 2.57 11.14 C2.02 10.77, 1.54 10.37, 1.16 9.97 C0.78 9.56, 0.48 9.14, 0.29 8.72 C0.1 8.29, 0 7.86, 0 7.43 C0 7, 0.1 6.56, 0.29 6.14 C0.48 5.71, 0.78 5.29, 1.16 4.89 C1.54 4.48, 2.02 4.09, 2.57 3.71 C3.13 3.34, 3.78 2.98, 4.49 2.65 C5.21 2.32, 6.01 2.01, 6.86 1.74 C7.71 1.46, 8.64 1.21, 9.6 0.99 C10.56 0.78, 11.59 0.59, 12.63 0.45 C13.68 0.3, 14.77 0.19, 15.86 0.11 C16.96 0.04, 18.09 0, 19.2 0 C20.31 0, 21.44 0.04, 22.53 0.11 C23.62 0.19, 24.72 0.3, 25.76 0.45 C26.81 0.59, 27.83 0.78, 28.8 0.99 C29.76 1.21, 30.68 1.46, 31.54 1.74 C32.39 2.01, 33.19 2.32, 33.9 2.65 C34.62 2.98, 35.27 3.34, 35.82 3.71 C36.38 4.09, 36.86 4.48, 37.24 4.89 C37.62 5.29, 37.91 5.71, 38.1 6.14 C38.29 6.56, 38.34 7.21, 38.39 7.43 C38.44 7.64, 38.44 7.21, 38.39 7.43" stroke="#000" stroke-width="4" fill="none"></path></g><g transform="translate(45.77690508712203 141.3698970757314) rotate(0 19.5 12.5)"><text x="0" y="0" font-family="Virgil, Segoe UI Emoji" font-size="20px" fill="#000" text-anchor="start" style="white-space: pre;" direction="ltr" dominant-baseline="text-before-edge">SQL</text></g></svg>