<svg version="1.1" xmlns="http://www.w3.org/2000/svg" viewBox="0 0 111.83159948586888 63.01021413148953" width="111.83159948586888" height="63.01021413148953">
  <!-- svg-source:excalidraw -->
  
  <defs>
    
    
  </defs>
  <g stroke-linecap="round"><g transform="translate(20.77077792488933 10.435958036131751) rotate(0 31.832763859250406 20.1251153798608)" fill-rule="evenodd"><path d="M1.56 2.3 C13.4 2.15, 58.83 -7.74, 70.74 -1.09 C82.65 5.56, 85.61 34.76, 73.02 42.2 C60.43 49.63, 9.5 49.91, -4.79 43.5 C-19.09 37.09, -13.59 10.84, -12.75 3.75 C-11.91 -3.34, -1.67 1.74, 0.27 0.95" stroke="none" stroke-width="0" fill="#ced4da" fill-rule="evenodd"></path><path d="M-1.02 -0.09 C11.28 -0.4, 61.22 -8.55, 73.97 -1.7 C86.73 5.15, 88.93 33.71, 75.51 41.02 C62.09 48.33, 7.9 48.13, -6.53 42.15 C-20.97 36.17, -12.29 12.24, -11.1 5.14 C-9.91 -1.96, -1.38 0.48, 0.63 -0.45 M0.65 -1.19 C12.88 -1.38, 61.19 -7.29, 73.63 -0.58 C86.06 6.14, 88.55 32.31, 75.26 39.09 C61.97 45.87, 7.93 45.76, -6.12 40.11 C-20.17 34.46, -9.84 12.17, -9.04 5.2 C-8.23 -1.77, -2.54 -1.13, -1.29 -1.72" stroke="#000000" stroke-width="2" fill="none"></path></g></g><mask></mask><g stroke-linecap="round" transform="translate(54.02771392571219 6.071956694717187) rotate(0 25.901942780078343 24.5503209754271)"><path d="M14.38 1.33 C19.19 -0.92, 28.04 -0.68, 33.57 0.89 C39.09 2.46, 44.46 6.24, 47.55 10.76 C50.63 15.28, 52.53 22.81, 52.08 28.01 C51.63 33.21, 48.85 38.53, 44.87 41.97 C40.89 45.4, 34.03 48.32, 28.19 48.64 C22.34 48.96, 14.32 47.03, 9.82 43.87 C5.32 40.72, 2.45 34.81, 1.2 29.69 C-0.04 24.56, -0.39 17.87, 2.33 13.12 C5.05 8.37, 14.55 3.12, 17.51 1.17 C20.48 -0.77, 20.13 1.01, 20.13 1.45 M30.66 -0.35 C36.29 0.55, 44.07 5.57, 47.46 10.04 C50.85 14.52, 51.41 21.55, 51 26.51 C50.6 31.48, 48.48 36.06, 45.04 39.84 C41.6 43.62, 35.86 48.5, 30.38 49.19 C24.9 49.87, 17.1 47.07, 12.16 43.97 C7.22 40.87, 2.5 35.23, 0.74 30.58 C-1.01 25.94, -0.64 20.64, 1.63 16.09 C3.9 11.54, 9.23 5.72, 14.38 3.31 C19.52 0.9, 29.52 1.88, 32.49 1.63 C35.46 1.39, 32.51 1.48, 32.2 1.83" stroke="none" stroke-width="0" fill="#fff"></path><path d="M38.26 2.19 C43.22 4.01, 48.44 9.86, 50.54 14.82 C52.65 19.78, 52.55 26.77, 50.9 31.96 C49.26 37.15, 45.58 43.21, 40.66 45.98 C35.74 48.74, 27.12 49.48, 21.39 48.55 C15.66 47.62, 9.68 44.17, 6.25 40.41 C2.82 36.65, 0.97 30.97, 0.8 25.97 C0.63 20.97, 2.11 14.72, 5.25 10.43 C8.39 6.14, 13.65 1.33, 19.65 0.23 C25.65 -0.87, 37.44 2.95, 41.25 3.82 C45.07 4.68, 42.87 5.09, 42.53 5.4 M29.63 -0.99 C35.07 -0.21, 42.67 5.22, 46.49 9.6 C50.31 13.98, 52.43 20.25, 52.56 25.3 C52.69 30.35, 50.93 35.99, 47.27 39.88 C43.62 43.76, 36.22 47.72, 30.65 48.6 C25.08 49.48, 18.61 47.66, 13.86 45.17 C9.12 42.68, 4.51 38.62, 2.17 33.66 C-0.16 28.69, -1.76 20.63, -0.13 15.4 C1.5 10.16, 7.12 4.74, 11.95 2.23 C16.78 -0.28, 25.93 0.58, 28.84 0.32 C31.74 0.06, 29.49 0.15, 29.4 0.68" stroke="#000000" stroke-width="2" fill="none"></path></g></svg>