<svg version="1.1" xmlns="http://www.w3.org/2000/svg" viewBox="0 0 183.17487980769238 176.17598904279612" width="183.17487980769238" height="176.17598904279612">
  <!-- svg-source:excalidraw -->
  
  <defs>
    
    
  </defs>
  <g stroke-linecap="round"><g transform="translate(23.57662259615404 40.282659715873166) rotate(0 68.01081730769215 48.093449519230646)" fill-rule="evenodd"><path d="M-1.08 -0.61 L40.53 12.76 L41.43 -33.71 L99.47 -34.91 L99.08 9.51 L138.9 0.51 L154.2 53.45 L113.6 66.43 L137 98.71 L94.6 127.9 L68.21 94.79 L47.07 130.49 L-1.02 99.27 L21.42 64.43 L-16.63 51.72 L-1.97 0.52" stroke="none" stroke-width="0" fill="#ced4da" fill-rule="evenodd"></path><path d="M0 0 C7.36 2.41, 19.4 6.37, 40.7 12.5 M0 0 C14.03 4.36, 28.89 9.18, 40.7 12.5 M40.7 12.5 C42.08 1.09, 39.63 -8.8, 41.24 -33.71 M40.7 12.5 C41.64 -1.13, 41.19 -13.14, 41.24 -33.71 M41.24 -33.71 C57.03 -34.96, 74 -33.89, 100.43 -33.14 M41.24 -33.71 C53.76 -32.84, 68.61 -33.45, 100.43 -33.14 M100.43 -33.14 C101.47 -21.21, 99.56 -12.06, 99.47 11.39 M100.43 -33.14 C100.8 -23.39, 99.97 -14.37, 99.47 11.39 M99.47 11.39 C108.6 8.22, 119.06 8.58, 138.46 2.39 M99.47 11.39 C110 9.51, 119.02 7.75, 138.46 2.39 M138.46 2.39 C143.54 15.05, 148.6 28.53, 153.6 51.64 M138.46 2.39 C143.43 21.91, 149.97 39.94, 153.6 51.64 M153.6 51.64 C138.82 57.04, 127.23 61.64, 114.71 64.7 M153.6 51.64 C138.98 55.82, 126.11 60.32, 114.71 64.7 M114.71 64.7 C122.95 76.08, 130.21 83.86, 138.01 97.53 M114.71 64.7 C123.87 78.1, 132.13 89.93, 138.01 97.53 M138.01 97.53 C129.22 103.59, 118.05 114.82, 93.92 129.89 M138.01 97.53 C123.61 107.53, 107.67 119.35, 93.92 129.89 M93.92 129.89 C85.59 118.02, 77.9 110.88, 67.19 96.33 M93.92 129.89 C86.02 120, 78.11 110.16, 67.19 96.33 M67.19 96.33 C62 105.1, 58.73 108.96, 45.57 129.52 M67.19 96.33 C61.83 103.86, 57.94 110.64, 45.57 129.52 M45.57 129.52 C34.29 123.12, 23.25 114.27, -2.34 97.29 M45.57 129.52 C28.81 119.51, 11.84 106.22, -2.34 97.29 M-2.34 97.29 C5.05 86.46, 11.64 75.99, 20.96 64.69 M-2.34 97.29 C3.28 88.37, 10.85 79.27, 20.96 64.69 M20.96 64.69 C8.16 58.47, -6.58 53.37, -17.58 51.58 M20.96 64.69 C12.95 61.33, 3.38 59.37, -17.58 51.58 M-17.58 51.58 C-12.69 36.27, -5.42 19.8, 0 0 M-17.58 51.58 C-14.02 37.18, -7.87 23.9, 0 0 M0 0 C0 0, 0 0, 0 0 M0 0 C0 0, 0 0, 0 0" stroke="#000000" stroke-width="1" fill="none"></path></g></g><mask></mask></svg>