<svg version="1.1" xmlns="http://www.w3.org/2000/svg" viewBox="0 0 223.44877464941646 221.99630874003424" width="223.44877464941646" height="221.99630874003424">
  <!-- svg-source:excalidraw -->
  
  <defs>
    
    
  </defs>
  <g stroke-linecap="round"><g transform="translate(6.05709161480172 7.197112464981274) rotate(0 105.69584151730737 104.31254690962987)" fill-rule="evenodd"><path d="M-1.83 -0.9 L207.75 0.31 L211.61 172.36 L178.03 209.12 L0.82 206.84 L1.58 -0.87" stroke="none" stroke-width="0" fill="#e64980" fill-rule="evenodd"></path><path d="M0 0 C51.39 -0.54, 99.7 1.41, 207.62 0.73 M0 0 C42.5 -2.21, 84.72 -1, 207.62 0.73 M207.62 0.73 C208.89 57.23, 209.45 117.17, 211.39 174.34 M207.62 0.73 C208.43 49.41, 210.04 98.4, 211.39 174.34 M211.39 174.34 C203.37 185.17, 193.4 192.58, 176.66 207.17 M211.39 174.34 C202.99 183.09, 193.54 191.02, 176.66 207.17 M176.66 207.17 C109.5 206.97, 41.63 208.29, 2.26 208.63 M176.66 207.17 C136.29 208.35, 97.57 209.18, 2.26 208.63 M2.26 208.63 C3.15 155.9, -0.56 106.46, 0 0 M2.26 208.63 C1.65 143.05, 0.41 77.22, 0 0 M0 0 C0 0, 0 0, 0 0 M0 0 C0 0, 0 0, 0 0" stroke="#000000" stroke-width="1" fill="none"></path></g></g><mask></mask><g stroke-linecap="round"><g transform="translate(217.11857020213483 182.25817545461223) rotate(0 -18.055555555555657 14.166666666666288)" fill-rule="evenodd"><path d="M0.04 0 L-33.03 -5.51 L-37.03 34.17 L0.17 0.23" stroke="none" stroke-width="0" fill="white" fill-rule="evenodd"></path><path d="M0 0 C-13.77 -2.83, -26.31 -4.89, -33.89 -5 M0 0 C-9.42 -1.17, -17.85 -2.45, -33.89 -5 M-33.89 -5 C-34.94 5.84, -34.47 16.97, -36.11 33.33 M-33.89 -5 C-34.45 6.12, -34.98 16.57, -36.11 33.33 M-36.11 33.33 C-24.09 23.44, -13.55 11.57, 0 0 M-36.11 33.33 C-24.63 23, -13.63 12.42, 0 0 M0 0 C0 0, 0 0, 0 0 M0 0 C0 0, 0 0, 0 0" stroke="#343a40" stroke-width="1" fill="none"></path></g></g><mask></mask></svg>