<svg version="1.1" xmlns="http://www.w3.org/2000/svg" viewBox="0 0 295.75 57.75" width="295.75" height="57.75">
  <!-- svg-source:excalidraw -->
  
  <defs>
    
    
  </defs>
  <g stroke-linecap="round" transform="translate(6 6) rotate(0 141.875 22.5)"><path d="M0 0 C97.61 1.6, 198.1 1.56, 283.75 0 M0 0 C74.48 -0.59, 150.62 -1.28, 283.75 0 M283.75 0 C282.66 14.5, 283.66 32.17, 283.75 45 M283.75 0 C284.88 17.79, 284.79 34.73, 283.75 45 M283.75 45 C222.45 44.82, 159.51 45.93, 0 45 M283.75 45 C185.92 45.08, 88.02 44.62, 0 45 M0 45 C-1.24 34.09, 0.1 26.35, 0 0 M0 45 C0.3 29.42, 0.67 13.68, 0 0" stroke="#000000" stroke-width="2" fill="none"></path></g><g stroke-linecap="round"><g transform="translate(238.5 6.75) rotate(0 0.625 22.5)"><path d="M0 0 C0.95 16.41, 0.12 34.77, 1.25 45 M0 0 C0.38 14.55, 0.6 28.71, 1.25 45" stroke="#000000" stroke-width="2" fill="none"></path></g></g><mask></mask><g stroke-linecap="round"><g transform="translate(250.75 23.75) rotate(4.4109712610800065 13.75 7.5)" fill-rule="evenodd"><path d="M0 0 C0 0, 0 0, 0 0 M0 0 C0 0, 0 0, 0 0 M4.73 6.76 C7.09 4.2, 10.32 0.4, 11.29 -0.79 M4.73 6.76 C6.77 4.35, 9.24 1.91, 11.29 -0.79 M10.11 12.76 C15.08 6.8, 19.45 1.58, 23.23 -2.33 M10.11 12.76 C14.33 8.57, 17.8 3.78, 23.23 -2.33 M13.86 17.59 C13.86 17.59, 13.86 17.59, 13.86 17.59 M13.86 17.59 C13.86 17.59, 13.86 17.59, 13.86 17.59 M18.35 10.9 C14.32 7.72, 11.72 4.79, 4.77 -0.91 M18.35 10.9 C13.27 6.62, 8.68 2.6, 4.77 -0.91 M22.84 4.21 C20.38 2.72, 18.59 0.77, 16.05 -1.7 M22.84 4.21 C20.46 1.92, 18.17 -0.2, 16.05 -1.7 M27.34 -2.49 C27.12 -2.68, 26.91 -2.82, 26.58 -3.14 M27.34 -2.49 C27.08 -2.71, 26.8 -2.93, 26.58 -3.14" stroke="#000" stroke-width="1" fill="none"></path><path d="M0 0 C5.28 7.57, 11.24 14.44, 13.75 17.5 M0 0 C4.5 5.28, 7.8 10.48, 13.75 17.5 M13.75 17.5 C18.88 9.47, 23.87 2.3, 27.5 -2.5 M13.75 17.5 C18.44 10.99, 21.88 5.35, 27.5 -2.5 M27.5 -2.5 C16.11 -1.29, 5.59 -1.18, 0 0 M27.5 -2.5 C21.98 -2.5, 15.42 -1.68, 0 0 M0 0 C0 0, 0 0, 0 0 M0 0 C0 0, 0 0, 0 0" stroke="#000000" stroke-width="2" fill="none"></path></g></g><mask></mask><g transform="translate(25.149999999999977 18.25) rotate(0 56.17500000000001 13.125)"><text x="0" y="0" font-family="Virgil, Segoe UI Emoji" font-size="21px" fill="#000000" text-anchor="start" style="white-space: pre;" direction="ltr" dominant-baseline="text-before-edge">Combo Box</text></g></svg>