<svg version="1.1" xmlns="http://www.w3.org/2000/svg" viewBox="0 0 223.6383922089699 221.22170586758557" width="223.6383922089699" height="221.22170586758557">
  <!-- svg-source:excalidraw -->
  
  <defs>
    
    
  </defs>
  <g stroke-linecap="round"><g transform="translate(6.063025556369212 6.596612048325824) rotate(0 105.69584151730737 104.31254690962987)" fill-rule="evenodd"><path d="M-0.3 -0.77 L207.74 1.38 L211.61 173.71 L177.25 206.32 L2.82 208.01 L-1.02 -0.73" stroke="none" stroke-width="0" fill="#868e96" fill-rule="evenodd"></path><path d="M0 0 C60.51 0.48, 123.77 0.94, 207.62 0.73 M0 0 C80.68 -1.17, 163.57 -0.45, 207.62 0.73 M207.62 0.73 C208.33 56.54, 210.21 113.75, 211.39 174.34 M207.62 0.73 C209.82 70.42, 212.27 139.07, 211.39 174.34 M211.39 174.34 C198.09 185.77, 182.19 201.6, 176.66 207.17 M211.39 174.34 C199.6 186.13, 188.65 196.11, 176.66 207.17 M176.66 207.17 C128.11 209.27, 82.07 207.68, 2.26 208.63 M176.66 207.17 C124.72 206.74, 73.29 206.32, 2.26 208.63 M2.26 208.63 C3.62 151.93, 0.99 94.18, 0 0 M2.26 208.63 C0.07 144.6, -0.22 81.06, 0 0 M0 0 C0 0, 0 0, 0 0 M0 0 C0 0, 0 0, 0 0" stroke="#000000" stroke-width="1" fill="none"></path></g></g><mask></mask><g stroke-linecap="round"><g transform="translate(217.12450414370232 181.65767503795678) rotate(0 -18.055555555555657 14.166666666666288)" fill-rule="evenodd"><path d="M-0.95 -0.33 L-33.76 -4.25 L-37.11 34.24 L0.06 0.69" stroke="none" stroke-width="0" fill="white" fill-rule="evenodd"></path><path d="M0 0 C-8.02 -0.9, -16.12 -1.6, -33.89 -5 M0 0 C-9.58 -1.06, -18.45 -2.7, -33.89 -5 M-33.89 -5 C-35.05 7.77, -35.49 22.1, -36.11 33.33 M-33.89 -5 C-34.53 8.97, -35.55 22.73, -36.11 33.33 M-36.11 33.33 C-25.51 21.63, -12.4 12.03, 0 0 M-36.11 33.33 C-24.26 22.94, -13.21 11.9, 0 0 M0 0 C0 0, 0 0, 0 0 M0 0 C0 0, 0 0, 0 0" stroke="#343a40" stroke-width="1" fill="none"></path></g></g><mask></mask></svg>