<svg version="1.1" xmlns="http://www.w3.org/2000/svg" viewBox="0 0 109.67525151090831 163.67747615162443" width="109.67525151090831" height="163.67747615162443">
  <!-- svg-source:excalidraw -->
  
  <defs>
    
    
  </defs>
  <g transform="translate(31.96463782389128 132.67747615162443) rotate(0 23.5 12.5)"><text x="0" y="0" font-family="Virgil, Segoe UI Emoji" font-size="20px" fill="#000" text-anchor="start" style="white-space: pre;" direction="ltr" dominant-baseline="text-before-edge">Jest</text></g><g stroke-linecap="round" transform="translate(6 6) rotate(0 43.92912551591962 59.86657599683065)"><path d="M-0.18 -1.35 L87.47 1.87 L86.4 119.98 L-1.6 119.39" stroke="none" stroke-width="0" fill="#96747d"></path><path d="M0 0 C32.83 1.07, 64.33 -1.41, 87.86 0 M0 0 C20.99 -1, 40.74 0.02, 87.86 0 M87.86 0 C86.64 41.78, 86.96 86.61, 87.86 119.73 M87.86 0 C87.01 36.88, 87.79 75.56, 87.86 119.73 M87.86 119.73 C61.26 117.98, 33.63 118.05, 0 119.73 M87.86 119.73 C66.43 119.6, 42.73 121.32, 0 119.73 M0 119.73 C0.85 82.62, 1.96 47.71, 0 0 M0 119.73 C1.59 81.47, 0.47 44.4, 0 0" stroke="#000000" stroke-width="4" fill="none"></path></g><g stroke-linecap="round" transform="translate(45.33931401090831 20.4825232163912) rotate(0 29.16796875 15)"><path d="M-1.35 -0.39 L60.21 -1.46 L58.59 28.4 L-0.34 30.44" stroke="none" stroke-width="0" fill="#fff"></path><path d="M0 0 C24.44 -1.56, 44.88 -1.27, 58.34 0 M0 0 C16.56 -0.66, 34.75 0.3, 58.34 0 M58.34 0 C57.75 8.73, 60.25 20.41, 58.34 30 M58.34 0 C57.12 7.59, 57.94 13.65, 58.34 30 M58.34 30 C35.43 31.18, 14.04 29.37, 0 30 M58.34 30 C43.1 30.15, 30.48 30.58, 0 30 M0 30 C-0.98 22.92, 0.42 12.24, 0 0 M0 30 C-0.05 23.13, 0.93 17.44, 0 0" stroke="#000000" stroke-width="4" fill="none"></path></g><g transform="translate(52.61671917993772 23.529881106027915) rotate(0 23.5 12.5)"><text x="0" y="0" font-family="Virgil, Segoe UI Emoji" font-size="20px" fill="#000000" text-anchor="start" style="white-space: pre;" direction="ltr" dominant-baseline="text-before-edge">Jest</text></g><g stroke-linecap="round"><g transform="translate(36.822920297690644 90.4644069668434) rotate(0 13.082042796723044 8.755172839627448)" fill-rule="evenodd"><path d="M0 0 C-0.56 0.88, -2.53 3.73, -3.34 5.29 C-4.15 6.85, -4.63 7.99, -4.88 9.36 C-5.14 10.72, -5.06 12.29, -4.88 13.47 C-4.7 14.64, -4.29 15.6, -3.79 16.41 C-3.3 17.22, -2.77 17.83, -1.89 18.35 C-1 18.86, -0.04 19.53, 1.5 19.52 C3.04 19.5, 4.84 19.15, 7.37 18.23 C9.89 17.31, 13.94 14.92, 16.64 14 C19.34 13.08, 21.85 13.07, 23.56 12.7 C25.28 12.33, 25.89 12.28, 26.94 11.8 C27.99 11.33, 29.19 10.76, 29.87 9.85 C30.56 8.93, 30.88 7.48, 31.05 6.3 C31.22 5.12, 31.19 3.72, 30.9 2.79 C30.62 1.85, 30.33 1.43, 29.34 0.69 C28.34 -0.05, 26.25 -1.19, 24.92 -1.64 C23.6 -2.09, 22.65 -1.97, 21.39 -2 C20.13 -2.04, 18.55 -2, 17.36 -1.88 C16.17 -1.76, 15.12 -1.98, 14.27 -1.3 C13.42 -0.62, 12.74 1.23, 12.24 2.18 C11.75 3.13, 11.85 3.65, 11.31 4.39 C10.77 5.13, 9.83 5.94, 9 6.6 C8.16 7.26, 7.17 7.88, 6.29 8.34 C5.4 8.81, 4.47 9.41, 3.68 9.41 C2.89 9.41, 2.01 8.93, 1.54 8.33 C1.07 7.72, 0.93 6.62, 0.86 5.78 C0.79 4.94, 1.22 4.26, 1.1 3.3 C0.98 2.34, 0.32 0.56, 0.16 0.01" stroke="none" stroke-width="0" fill="#98425b" fill-rule="evenodd"></path><path d="M0 0 C-0.56 0.88, -2.53 3.73, -3.34 5.29 C-4.15 6.85, -4.63 7.99, -4.88 9.36 C-5.14 10.72, -5.06 12.29, -4.88 13.47 C-4.7 14.64, -4.29 15.6, -3.79 16.41 C-3.3 17.22, -2.77 17.83, -1.89 18.35 C-1 18.86, -0.04 19.53, 1.5 19.52 C3.04 19.5, 4.84 19.15, 7.37 18.23 C9.89 17.31, 13.94 14.92, 16.64 14 C19.34 13.08, 21.85 13.07, 23.56 12.7 C25.28 12.33, 25.89 12.28, 26.94 11.8 C27.99 11.33, 29.19 10.76, 29.87 9.85 C30.56 8.93, 30.88 7.48, 31.05 6.3 C31.22 5.12, 31.19 3.72, 30.9 2.79 C30.62 1.85, 30.33 1.43, 29.34 0.69 C28.34 -0.05, 26.25 -1.19, 24.92 -1.64 C23.6 -2.09, 22.65 -1.97, 21.39 -2 C20.13 -2.04, 18.55 -2, 17.36 -1.88 C16.17 -1.76, 15.12 -1.98, 14.27 -1.3 C13.42 -0.62, 12.74 1.23, 12.24 2.18 C11.75 3.13, 11.85 3.65, 11.31 4.39 C10.77 5.13, 9.83 5.94, 9 6.6 C8.16 7.26, 7.17 7.88, 6.29 8.34 C5.4 8.81, 4.47 9.41, 3.68 9.41 C2.89 9.41, 2.01 8.93, 1.54 8.33 C1.07 7.72, 0.93 6.62, 0.86 5.78 C0.79 4.94, 1.22 4.26, 1.1 3.3 C0.98 2.34, 0.32 0.56, 0.16 0.01 M0 0 C-0.56 0.88, -2.53 3.73, -3.34 5.29 C-4.15 6.85, -4.63 7.99, -4.88 9.36 C-5.14 10.72, -5.06 12.29, -4.88 13.47 C-4.7 14.64, -4.29 15.6, -3.79 16.41 C-3.3 17.22, -2.77 17.83, -1.89 18.35 C-1 18.86, -0.04 19.53, 1.5 19.52 C3.04 19.5, 4.84 19.15, 7.37 18.23 C9.89 17.31, 13.94 14.92, 16.64 14 C19.34 13.08, 21.85 13.07, 23.56 12.7 C25.28 12.33, 25.89 12.28, 26.94 11.8 C27.99 11.33, 29.19 10.76, 29.87 9.85 C30.56 8.93, 30.88 7.48, 31.05 6.3 C31.22 5.12, 31.19 3.72, 30.9 2.79 C30.62 1.85, 30.33 1.43, 29.34 0.69 C28.34 -0.05, 26.25 -1.19, 24.92 -1.64 C23.6 -2.09, 22.65 -1.97, 21.39 -2 C20.13 -2.04, 18.55 -2, 17.36 -1.88 C16.17 -1.76, 15.12 -1.98, 14.27 -1.3 C13.42 -0.62, 12.74 1.23, 12.24 2.18 C11.75 3.13, 11.85 3.65, 11.31 4.39 C10.77 5.13, 9.83 5.94, 9 6.6 C8.16 7.26, 7.17 7.88, 6.29 8.34 C5.4 8.81, 4.47 9.41, 3.68 9.41 C2.89 9.41, 2.01 8.93, 1.54 8.33 C1.07 7.72, 0.93 6.62, 0.86 5.78 C0.79 4.94, 1.22 4.26, 1.1 3.3 C0.98 2.34, 0.32 0.56, 0.16 0.01" stroke="#fff" stroke-width="2" fill="none"></path></g></g><mask></mask><g stroke-linecap="round" transform="translate(32.68995168004494 84.75264164228702) rotate(0 4.29541529651442 4.29541529651442)"><path d="M8.59 4.3 C8.59 4.54, 8.57 4.8, 8.53 5.04 C8.48 5.29, 8.42 5.53, 8.33 5.76 C8.25 6, 8.14 6.23, 8.02 6.44 C7.89 6.66, 7.75 6.87, 7.59 7.06 C7.43 7.25, 7.25 7.43, 7.06 7.59 C6.87 7.75, 6.66 7.89, 6.44 8.02 C6.23 8.14, 6 8.25, 5.76 8.33 C5.53 8.42, 5.29 8.48, 5.04 8.53 C4.8 8.57, 4.54 8.59, 4.3 8.59 C4.05 8.59, 3.79 8.57, 3.55 8.53 C3.3 8.48, 3.06 8.42, 2.83 8.33 C2.59 8.25, 2.36 8.14, 2.15 8.02 C1.93 7.89, 1.72 7.75, 1.53 7.59 C1.34 7.43, 1.16 7.25, 1 7.06 C0.85 6.87, 0.7 6.66, 0.58 6.44 C0.45 6.23, 0.34 6, 0.26 5.76 C0.17 5.53, 0.11 5.29, 0.07 5.04 C0.02 4.8, 0 4.54, 0 4.3 C0 4.05, 0.02 3.79, 0.07 3.55 C0.11 3.3, 0.17 3.06, 0.26 2.83 C0.34 2.59, 0.45 2.36, 0.58 2.15 C0.7 1.93, 0.85 1.72, 1 1.53 C1.16 1.34, 1.34 1.16, 1.53 1 C1.72 0.85, 1.93 0.7, 2.15 0.58 C2.36 0.45, 2.59 0.34, 2.83 0.26 C3.06 0.17, 3.3 0.11, 3.55 0.07 C3.79 0.02, 4.05 0, 4.3 0 C4.54 0, 4.8 0.02, 5.04 0.07 C5.29 0.11, 5.53 0.17, 5.76 0.26 C6 0.34, 6.23 0.45, 6.44 0.58 C6.66 0.7, 6.87 0.85, 7.06 1 C7.25 1.16, 7.43 1.34, 7.59 1.53 C7.75 1.72, 7.89 1.93, 8.02 2.15 C8.14 2.36, 8.25 2.59, 8.33 2.83 C8.42 3.06, 8.48 3.3, 8.53 3.55 C8.57 3.79, 8.58 4.17, 8.59 4.3 C8.6 4.42, 8.6 4.17, 8.59 4.3" stroke="none" stroke-width="0" fill="#98425b"></path><path d="M8.59 4.3 C8.59 4.54, 8.57 4.8, 8.53 5.04 C8.48 5.29, 8.42 5.53, 8.33 5.76 C8.25 6, 8.14 6.23, 8.02 6.44 C7.89 6.66, 7.75 6.87, 7.59 7.06 C7.43 7.25, 7.25 7.43, 7.06 7.59 C6.87 7.75, 6.66 7.89, 6.44 8.02 C6.23 8.14, 6 8.25, 5.76 8.33 C5.53 8.42, 5.29 8.48, 5.04 8.53 C4.8 8.57, 4.54 8.59, 4.3 8.59 C4.05 8.59, 3.79 8.57, 3.55 8.53 C3.3 8.48, 3.06 8.42, 2.83 8.33 C2.59 8.25, 2.36 8.14, 2.15 8.02 C1.93 7.89, 1.72 7.75, 1.53 7.59 C1.34 7.43, 1.16 7.25, 1 7.06 C0.85 6.87, 0.7 6.66, 0.58 6.44 C0.45 6.23, 0.34 6, 0.26 5.76 C0.17 5.53, 0.11 5.29, 0.07 5.04 C0.02 4.8, 0 4.54, 0 4.3 C0 4.05, 0.02 3.79, 0.07 3.55 C0.11 3.3, 0.17 3.06, 0.26 2.83 C0.34 2.59, 0.45 2.36, 0.58 2.15 C0.7 1.93, 0.85 1.72, 1 1.53 C1.16 1.34, 1.34 1.16, 1.53 1 C1.72 0.85, 1.93 0.7, 2.15 0.58 C2.36 0.45, 2.59 0.34, 2.83 0.26 C3.06 0.17, 3.3 0.11, 3.55 0.07 C3.79 0.02, 4.05 0, 4.3 0 C4.54 0, 4.8 0.02, 5.04 0.07 C5.29 0.11, 5.53 0.17, 5.76 0.26 C6 0.34, 6.23 0.45, 6.44 0.58 C6.66 0.7, 6.87 0.85, 7.06 1 C7.25 1.16, 7.43 1.34, 7.59 1.53 C7.75 1.72, 7.89 1.93, 8.02 2.15 C8.14 2.36, 8.25 2.59, 8.33 2.83 C8.42 3.06, 8.48 3.3, 8.53 3.55 C8.57 3.79, 8.58 4.17, 8.59 4.3 C8.6 4.42, 8.6 4.17, 8.59 4.3" stroke="#fff" stroke-width="2" fill="none"></path></g><g stroke-linecap="round"><g transform="translate(44.58222494808024 67.77181438682919) rotate(0 12.275156561002404 10.28885289568234)" fill-rule="evenodd"><path d="M0 0 L24.55 0.33 L17.9 19.62 L12.25 7.79 L7.05 20.58 L0 0" stroke="none" stroke-width="0" fill="#98425b" fill-rule="evenodd"></path><path d="M0 0 C7.05 0.1, 14.1 0.19, 24.55 0.33 M0 0 C6.88 0.09, 13.76 0.19, 24.55 0.33 M24.55 0.33 C22.91 5.09, 21.27 9.86, 17.9 19.62 M24.55 0.33 C22.83 5.31, 21.12 10.29, 17.9 19.62 M17.9 19.62 C15.79 15.21, 13.69 10.8, 12.25 7.79 M17.9 19.62 C15.88 15.39, 13.86 11.15, 12.25 7.79 M12.25 7.79 C10.91 11.09, 9.57 14.39, 7.05 20.58 M12.25 7.79 C10.74 11.5, 9.23 15.22, 7.05 20.58 M7.05 20.58 C5.48 16.01, 3.92 11.45, 0 0 M7.05 20.58 C5.39 15.75, 3.74 10.92, 0 0 M0 0 C0 0, 0 0, 0 0 M0 0 C0 0, 0 0, 0 0" stroke="#fff" stroke-width="2" fill="none"></path></g></g><mask></mask><g stroke-linecap="round" transform="translate(46.284920667367714 84.54115082455928) rotate(0 4.29541529651442 4.29541529651442)"><path d="M8.59 4.3 C8.59 4.54, 8.57 4.8, 8.53 5.04 C8.48 5.29, 8.42 5.53, 8.33 5.76 C8.25 6, 8.14 6.23, 8.02 6.44 C7.89 6.66, 7.75 6.87, 7.59 7.06 C7.43 7.25, 7.25 7.43, 7.06 7.59 C6.87 7.75, 6.66 7.89, 6.44 8.02 C6.23 8.14, 6 8.25, 5.76 8.33 C5.53 8.42, 5.29 8.48, 5.04 8.53 C4.8 8.57, 4.54 8.59, 4.3 8.59 C4.05 8.59, 3.79 8.57, 3.55 8.53 C3.3 8.48, 3.06 8.42, 2.83 8.33 C2.59 8.25, 2.36 8.14, 2.15 8.02 C1.93 7.89, 1.72 7.75, 1.53 7.59 C1.34 7.43, 1.16 7.25, 1 7.06 C0.85 6.87, 0.7 6.66, 0.58 6.44 C0.45 6.23, 0.34 6, 0.26 5.76 C0.17 5.53, 0.11 5.29, 0.07 5.04 C0.02 4.8, 0 4.54, 0 4.3 C0 4.05, 0.02 3.79, 0.07 3.55 C0.11 3.3, 0.17 3.06, 0.26 2.83 C0.34 2.59, 0.45 2.36, 0.58 2.15 C0.7 1.93, 0.85 1.72, 1 1.53 C1.16 1.34, 1.34 1.16, 1.53 1 C1.72 0.85, 1.93 0.7, 2.15 0.58 C2.36 0.45, 2.59 0.34, 2.83 0.26 C3.06 0.17, 3.3 0.11, 3.55 0.07 C3.79 0.02, 4.05 0, 4.3 0 C4.54 0, 4.8 0.02, 5.04 0.07 C5.29 0.11, 5.53 0.17, 5.76 0.26 C6 0.34, 6.23 0.45, 6.44 0.58 C6.66 0.7, 6.87 0.85, 7.06 1 C7.25 1.16, 7.43 1.34, 7.59 1.53 C7.75 1.72, 7.89 1.93, 8.02 2.15 C8.14 2.36, 8.25 2.59, 8.33 2.83 C8.42 3.06, 8.48 3.3, 8.53 3.55 C8.57 3.79, 8.58 4.17, 8.59 4.3 C8.6 4.42, 8.6 4.17, 8.59 4.3" stroke="none" stroke-width="0" fill="#98425b"></path><path d="M8.59 4.3 C8.59 4.54, 8.57 4.8, 8.53 5.04 C8.48 5.29, 8.42 5.53, 8.33 5.76 C8.25 6, 8.14 6.23, 8.02 6.44 C7.89 6.66, 7.75 6.87, 7.59 7.06 C7.43 7.25, 7.25 7.43, 7.06 7.59 C6.87 7.75, 6.66 7.89, 6.44 8.02 C6.23 8.14, 6 8.25, 5.76 8.33 C5.53 8.42, 5.29 8.48, 5.04 8.53 C4.8 8.57, 4.54 8.59, 4.3 8.59 C4.05 8.59, 3.79 8.57, 3.55 8.53 C3.3 8.48, 3.06 8.42, 2.83 8.33 C2.59 8.25, 2.36 8.14, 2.15 8.02 C1.93 7.89, 1.72 7.75, 1.53 7.59 C1.34 7.43, 1.16 7.25, 1 7.06 C0.85 6.87, 0.7 6.66, 0.58 6.44 C0.45 6.23, 0.34 6, 0.26 5.76 C0.17 5.53, 0.11 5.29, 0.07 5.04 C0.02 4.8, 0 4.54, 0 4.3 C0 4.05, 0.02 3.79, 0.07 3.55 C0.11 3.3, 0.17 3.06, 0.26 2.83 C0.34 2.59, 0.45 2.36, 0.58 2.15 C0.7 1.93, 0.85 1.72, 1 1.53 C1.16 1.34, 1.34 1.16, 1.53 1 C1.72 0.85, 1.93 0.7, 2.15 0.58 C2.36 0.45, 2.59 0.34, 2.83 0.26 C3.06 0.17, 3.3 0.11, 3.55 0.07 C3.79 0.02, 4.05 0, 4.3 0 C4.54 0, 4.8 0.02, 5.04 0.07 C5.29 0.11, 5.53 0.17, 5.76 0.26 C6 0.34, 6.23 0.45, 6.44 0.58 C6.66 0.7, 6.87 0.85, 7.06 1 C7.25 1.16, 7.43 1.34, 7.59 1.53 C7.75 1.72, 7.89 1.93, 8.02 2.15 C8.14 2.36, 8.25 2.59, 8.33 2.83 C8.42 3.06, 8.48 3.3, 8.53 3.55 C8.57 3.79, 8.58 4.17, 8.59 4.3 C8.6 4.42, 8.6 4.17, 8.59 4.3" stroke="#fff" stroke-width="2" fill="none"></path></g><g stroke-linecap="round" transform="translate(59.22171859450145 85.02963515310921) rotate(0 4.29541529651442 4.29541529651442)"><path d="M8.59 4.3 C8.59 4.54, 8.57 4.8, 8.53 5.04 C8.48 5.29, 8.42 5.53, 8.33 5.76 C8.25 6, 8.14 6.23, 8.02 6.44 C7.89 6.66, 7.75 6.87, 7.59 7.06 C7.43 7.25, 7.25 7.43, 7.06 7.59 C6.87 7.75, 6.66 7.89, 6.44 8.02 C6.23 8.14, 6 8.25, 5.76 8.33 C5.53 8.42, 5.29 8.48, 5.04 8.53 C4.8 8.57, 4.54 8.59, 4.3 8.59 C4.05 8.59, 3.79 8.57, 3.55 8.53 C3.3 8.48, 3.06 8.42, 2.83 8.33 C2.59 8.25, 2.36 8.14, 2.15 8.02 C1.93 7.89, 1.72 7.75, 1.53 7.59 C1.34 7.43, 1.16 7.25, 1 7.06 C0.85 6.87, 0.7 6.66, 0.58 6.44 C0.45 6.23, 0.34 6, 0.26 5.76 C0.17 5.53, 0.11 5.29, 0.07 5.04 C0.02 4.8, 0 4.54, 0 4.3 C0 4.05, 0.02 3.79, 0.07 3.55 C0.11 3.3, 0.17 3.06, 0.26 2.83 C0.34 2.59, 0.45 2.36, 0.58 2.15 C0.7 1.93, 0.85 1.72, 1 1.53 C1.16 1.34, 1.34 1.16, 1.53 1 C1.72 0.85, 1.93 0.7, 2.15 0.58 C2.36 0.45, 2.59 0.34, 2.83 0.26 C3.06 0.17, 3.3 0.11, 3.55 0.07 C3.79 0.02, 4.05 0, 4.3 0 C4.54 0, 4.8 0.02, 5.04 0.07 C5.29 0.11, 5.53 0.17, 5.76 0.26 C6 0.34, 6.23 0.45, 6.44 0.58 C6.66 0.7, 6.87 0.85, 7.06 1 C7.25 1.16, 7.43 1.34, 7.59 1.53 C7.75 1.72, 7.89 1.93, 8.02 2.15 C8.14 2.36, 8.25 2.59, 8.33 2.83 C8.42 3.06, 8.48 3.3, 8.53 3.55 C8.57 3.79, 8.58 4.17, 8.59 4.3 C8.6 4.42, 8.6 4.17, 8.59 4.3" stroke="none" stroke-width="0" fill="#98425b"></path><path d="M8.59 4.3 C8.59 4.54, 8.57 4.8, 8.53 5.04 C8.48 5.29, 8.42 5.53, 8.33 5.76 C8.25 6, 8.14 6.23, 8.02 6.44 C7.89 6.66, 7.75 6.87, 7.59 7.06 C7.43 7.25, 7.25 7.43, 7.06 7.59 C6.87 7.75, 6.66 7.89, 6.44 8.02 C6.23 8.14, 6 8.25, 5.76 8.33 C5.53 8.42, 5.29 8.48, 5.04 8.53 C4.8 8.57, 4.54 8.59, 4.3 8.59 C4.05 8.59, 3.79 8.57, 3.55 8.53 C3.3 8.48, 3.06 8.42, 2.83 8.33 C2.59 8.25, 2.36 8.14, 2.15 8.02 C1.93 7.89, 1.72 7.75, 1.53 7.59 C1.34 7.43, 1.16 7.25, 1 7.06 C0.85 6.87, 0.7 6.66, 0.58 6.44 C0.45 6.23, 0.34 6, 0.26 5.76 C0.17 5.53, 0.11 5.29, 0.07 5.04 C0.02 4.8, 0 4.54, 0 4.3 C0 4.05, 0.02 3.79, 0.07 3.55 C0.11 3.3, 0.17 3.06, 0.26 2.83 C0.34 2.59, 0.45 2.36, 0.58 2.15 C0.7 1.93, 0.85 1.72, 1 1.53 C1.16 1.34, 1.34 1.16, 1.53 1 C1.72 0.85, 1.93 0.7, 2.15 0.58 C2.36 0.45, 2.59 0.34, 2.83 0.26 C3.06 0.17, 3.3 0.11, 3.55 0.07 C3.79 0.02, 4.05 0, 4.3 0 C4.54 0, 4.8 0.02, 5.04 0.07 C5.29 0.11, 5.53 0.17, 5.76 0.26 C6 0.34, 6.23 0.45, 6.44 0.58 C6.66 0.7, 6.87 0.85, 7.06 1 C7.25 1.16, 7.43 1.34, 7.59 1.53 C7.75 1.72, 7.89 1.93, 8.02 2.15 C8.14 2.36, 8.25 2.59, 8.33 2.83 C8.42 3.06, 8.48 3.3, 8.53 3.55 C8.57 3.79, 8.58 4.17, 8.59 4.3 C8.6 4.42, 8.6 4.17, 8.59 4.3" stroke="#fff" stroke-width="2" fill="none"></path></g></svg>