<svg xmlns="http://www.w3.org/2000/svg" viewBox="-1746.00 -1366.00 109.68 163.89" width="110" height="164"><text x="-1714.01" y="-1213.11" font-size="20" fill="#000" opacity="1.0" font-family="sans-serif">Vite</text><rect x="-1740.00" y="-1360.00" width="87.86" height="119.73" rx="0" stroke="#000000" stroke-width="4" opacity="1.0" fill="#fff"/><rect x="-1700.66" y="-1345.52" width="58.34" height="30.00" rx="0" stroke="#000000" stroke-width="4" opacity="1.0" fill="#fff"/><text x="-1689.44" y="-1321.76" font-size="20" fill="#000000" opacity="1.0" font-family="sans-serif">Vite</text><polyline points="-1691.34,-1286.05 -1672.09,-1289.98 -1670.27,-1288.46 -1674.63,-1281.13 -1691.09,-1251.93 -1695.45,-1250.49 -1699.62,-1257.46 -1714.62,-1283.51 -1717.33,-1288.27 -1717.40,-1289.74 -1715.46,-1290.28 -1712.77,-1289.74 -1691.44,-1285.93" fill="#8977ff" stroke="#8977ff" stroke-width="1" opacity="1.0" stroke-linecap="round" stroke-linejoin="round"/><polyline points="-1699.00,-1292.50 -1683.44,-1295.50 -1682.03,-1293.86 -1684.65,-1286.12 -1685.21,-1284.68 -1684.79,-1283.66 -1682.74,-1283.91 -1679.11,-1284.71 -1679.00,-1284.14 -1679.76,-1282.00 -1692.36,-1257.07 -1692.19,-1264.09 -1691.58,-1267.31 -1691.87,-1268.26 -1695.77,-1267.47 -1695.31,-1270.88 -1694.20,-1274.89 -1695.76,-1275.39 -1698.95,-1274.93 -1700.01,-1274.94 -1700.37,-1277.10 -1699.14,-1292.14" fill="#ffdb33" stroke="#ffdb33" stroke-width="1" opacity="1.0" stroke-linecap="round" stroke-linejoin="round"/></svg>