<svg version="1.1" xmlns="http://www.w3.org/2000/svg" viewBox="0 0 106.63905689009994 166.54065299529248" width="106.63905689009994" height="166.54065299529248">
  <!-- svg-source:excalidraw -->
  
  <defs>
    
    
  </defs>
  <g stroke-linecap="round" transform="translate(6 12.06457322646736) rotate(0 43.92912551591962 59.86657599683068)"><path d="M-0.79 -1.94 L89.17 0.17 L86.71 120.96 L0.4 117.89" stroke="none" stroke-width="0" fill="#c5bcdd"></path><path d="M0 0 C34.3 -0.32, 71.7 0.25, 87.86 0 M0 0 C19.58 0.98, 38.53 1.37, 87.86 0 M87.86 0 C88.35 43.72, 87.96 88.54, 87.86 119.73 M87.86 0 C88 34.92, 88.4 72.68, 87.86 119.73 M87.86 119.73 C66.93 118.78, 43.12 121.02, 0 119.73 M87.86 119.73 C57.4 120.28, 26.45 120.74, 0 119.73 M0 119.73 C-1.47 91.49, 1.9 63.21, 0 0 M0 119.73 C-0.79 88.96, -1.07 58.3, 0 0" stroke="#000000" stroke-width="4" fill="none"></path></g><g stroke-linecap="round"><g transform="translate(65.25008688965636 12.045743379401642) rotate(0 14.507403134580954 14.32530443646803)" fill-rule="evenodd"><path d="M-0.97 0.66 L0.36 28.07 L29.63 28.47 L-0.92 0.74" stroke="none" stroke-width="0" fill="#9d90c5" fill-rule="evenodd"></path><path d="M0 0 C0.18 12.2, 0.57 21.67, 0.27 28.65 M0 0 C0.23 8.23, 0.5 16.39, 0.27 28.65 M0.27 28.65 C8.28 28.55, 16.83 28.39, 29.01 28.27 M0.27 28.65 C10.4 28.46, 21.95 28.27, 29.01 28.27 M29.01 28.27 C21.48 21.64, 15.11 14.31, 0 0 M29.01 28.27 C17.79 17.2, 6.58 5.72, 0 0 M0 0 C0 0, 0 0, 0 0 M0 0 C0 0, 0 0, 0 0" stroke="#000" stroke-width="4" fill="none"></path></g></g><mask></mask><g stroke-linecap="round"><g transform="translate(66.93212666489444 7.898729775473498) rotate(179.75453245381487 15.752990313364876 17.095944093402622)" fill-rule="evenodd"><path d="M0 0 L-0.25 36.02 L33.63 33.29 L-2.12 -1.83" stroke="none" stroke-width="0" fill="#fff" fill-rule="evenodd"></path><path d="M0 0 C-0.08 12.22, -0.17 24.43, -0.25 36.02 M0 0 C-0.06 8.73, -0.12 17.46, -0.25 36.02 M-0.25 36.02 C11.23 35.1, 22.7 34.17, 33.63 33.29 M-0.25 36.02 C9.66 35.22, 19.56 34.42, 33.63 33.29 M33.63 33.29 C25.57 25.38, 17.52 17.46, -2.12 -1.83 M33.63 33.29 C22.6 22.46, 11.58 11.62, -2.12 -1.83 M-2.12 -1.83 C-1.53 -1.32, -0.94 -0.81, 0 0 M-2.12 -1.83 C-1.63 -1.4, -1.13 -0.98, 0 0" stroke="transparent" stroke-width="4" fill="none"></path></g></g><mask></mask><g stroke-linecap="round" transform="translate(58.96422228558822 84.86885378620917) rotate(319.7152186272332 3.8842434401905166 16.028098828074963)"><path d="M1.94 0 C3.3 0, 4.66 0, 5.83 0 C7.12 0, 7.77 0.65, 7.77 1.94 C7.77 12.98, 7.77 24.03, 7.77 30.11 C7.77 31.41, 7.12 32.06, 5.83 32.06 C4.83 32.06, 3.83 32.06, 1.94 32.06 C0.65 32.06, 0 31.41, 0 30.11 C0 22.14, 0 14.17, 0 1.94 C0 0.65, 0.65 0, 1.94 0" stroke="none" stroke-width="0" fill="#8da7b6"></path><path d="M1.94 0 C3.2 0, 4.46 0, 5.83 0 M1.94 0 C3.16 0, 4.37 0, 5.83 0 M5.83 0 C7.12 0, 7.77 0.65, 7.77 1.94 M5.83 0 C7.12 0, 7.77 0.65, 7.77 1.94 M7.77 1.94 C7.77 9.93, 7.77 17.92, 7.77 30.11 M7.77 1.94 C7.77 8.12, 7.77 14.3, 7.77 30.11 M7.77 30.11 C7.77 31.41, 7.12 32.06, 5.83 32.06 M7.77 30.11 C7.77 31.41, 7.12 32.06, 5.83 32.06 M5.83 32.06 C4.71 32.06, 3.6 32.06, 1.94 32.06 M5.83 32.06 C4.5 32.06, 3.18 32.06, 1.94 32.06 M1.94 32.06 C0.65 32.06, 0 31.41, 0 30.11 M1.94 32.06 C0.65 32.06, 0 31.41, 0 30.11 M0 30.11 C0 22.64, 0 15.16, 0 1.94 M0 30.11 C0 23.28, 0 16.44, 0 1.94 M0 1.94 C0 0.65, 0.65 0, 1.94 0 M0 1.94 C0 0.65, 0.65 0, 1.94 0" stroke="#000" stroke-width="4" fill="none"></path></g><g stroke-linecap="round" transform="translate(27.26904698964472 62.226309002131245) rotate(0 19.872908312462073 19.872908312462048)"><path d="M39.75 19.87 C39.75 21.02, 39.64 22.19, 39.44 23.32 C39.24 24.46, 38.94 25.59, 38.55 26.67 C38.15 27.75, 37.66 28.81, 37.08 29.81 C36.51 30.81, 35.84 31.77, 35.1 32.65 C34.36 33.53, 33.53 34.36, 32.65 35.1 C31.77 35.84, 30.81 36.51, 29.81 37.08 C28.81 37.66, 27.75 38.15, 26.67 38.55 C25.59 38.94, 24.46 39.24, 23.32 39.44 C22.19 39.64, 21.02 39.75, 19.87 39.75 C18.72 39.75, 17.55 39.64, 16.42 39.44 C15.29 39.24, 14.16 38.94, 13.08 38.55 C12 38.15, 10.93 37.66, 9.94 37.08 C8.94 36.51, 7.98 35.84, 7.1 35.1 C6.22 34.36, 5.39 33.53, 4.65 32.65 C3.91 31.77, 3.24 30.81, 2.66 29.81 C2.09 28.81, 1.59 27.75, 1.2 26.67 C0.81 25.59, 0.5 24.46, 0.3 23.32 C0.1 22.19, 0 21.02, 0 19.87 C0 18.72, 0.1 17.55, 0.3 16.42 C0.5 15.29, 0.81 14.16, 1.2 13.08 C1.59 12, 2.09 10.93, 2.66 9.94 C3.24 8.94, 3.91 7.98, 4.65 7.1 C5.39 6.22, 6.22 5.39, 7.1 4.65 C7.98 3.91, 8.94 3.24, 9.94 2.66 C10.93 2.09, 12 1.59, 13.08 1.2 C14.16 0.81, 15.29 0.5, 16.42 0.3 C17.55 0.1, 18.72 0, 19.87 0 C21.02 0, 22.19 0.1, 23.32 0.3 C24.46 0.5, 25.59 0.81, 26.67 1.2 C27.75 1.59, 28.81 2.09, 29.81 2.66 C30.81 3.24, 31.77 3.91, 32.65 4.65 C33.53 5.39, 34.36 6.22, 35.1 7.1 C35.84 7.98, 36.51 8.94, 37.08 9.94 C37.66 10.93, 38.15 12, 38.55 13.08 C38.94 14.16, 39.24 15.29, 39.44 16.42 C39.64 17.55, 39.7 19.3, 39.75 19.87 C39.8 20.45, 39.8 19.3, 39.75 19.87" stroke="none" stroke-width="0" fill="#c5e8fa"></path><path d="M39.75 19.87 C39.75 21.02, 39.64 22.19, 39.44 23.32 C39.24 24.46, 38.94 25.59, 38.55 26.67 C38.15 27.75, 37.66 28.81, 37.08 29.81 C36.51 30.81, 35.84 31.77, 35.1 32.65 C34.36 33.53, 33.53 34.36, 32.65 35.1 C31.77 35.84, 30.81 36.51, 29.81 37.08 C28.81 37.66, 27.75 38.15, 26.67 38.55 C25.59 38.94, 24.46 39.24, 23.32 39.44 C22.19 39.64, 21.02 39.75, 19.87 39.75 C18.72 39.75, 17.55 39.64, 16.42 39.44 C15.29 39.24, 14.16 38.94, 13.08 38.55 C12 38.15, 10.93 37.66, 9.94 37.08 C8.94 36.51, 7.98 35.84, 7.1 35.1 C6.22 34.36, 5.39 33.53, 4.65 32.65 C3.91 31.77, 3.24 30.81, 2.66 29.81 C2.09 28.81, 1.59 27.75, 1.2 26.67 C0.81 25.59, 0.5 24.46, 0.3 23.32 C0.1 22.19, 0 21.02, 0 19.87 C0 18.72, 0.1 17.55, 0.3 16.42 C0.5 15.29, 0.81 14.16, 1.2 13.08 C1.59 12, 2.09 10.93, 2.66 9.94 C3.24 8.94, 3.91 7.98, 4.65 7.1 C5.39 6.22, 6.22 5.39, 7.1 4.65 C7.98 3.91, 8.94 3.24, 9.94 2.66 C10.93 2.09, 12 1.59, 13.08 1.2 C14.16 0.81, 15.29 0.5, 16.42 0.3 C17.55 0.1, 18.72 0, 19.87 0 C21.02 0, 22.19 0.1, 23.32 0.3 C24.46 0.5, 25.59 0.81, 26.67 1.2 C27.75 1.59, 28.81 2.09, 29.81 2.66 C30.81 3.24, 31.77 3.91, 32.65 4.65 C33.53 5.39, 34.36 6.22, 35.1 7.1 C35.84 7.98, 36.51 8.94, 37.08 9.94 C37.66 10.93, 38.15 12, 38.55 13.08 C38.94 14.16, 39.24 15.29, 39.44 16.42 C39.64 17.55, 39.7 19.3, 39.75 19.87 C39.8 20.45, 39.8 19.3, 39.75 19.87" stroke="#000" stroke-width="4" fill="none"></path></g><g stroke-linecap="round"><g transform="translate(50.6666034940381 69.29295415955352) rotate(0 4.667869924226238 8.200109930643318)"><path d="M0 0 C0.91 0.47, 3.92 1.26, 5.47 2.83 C7.03 4.4, 8.76 7.15, 9.34 9.41 C9.91 11.68, 9.01 15.24, 8.95 16.4 M0 0 C0.91 0.47, 3.92 1.26, 5.47 2.83 C7.03 4.4, 8.76 7.15, 9.34 9.41 C9.91 11.68, 9.01 15.24, 8.95 16.4" stroke="#000" stroke-width="4" fill="none"></path></g></g><mask></mask><g transform="translate(20.382252914720993 135.54065299529248) rotate(0 33 12.5)"><text x="0" y="0" font-family="Virgil, Segoe UI Emoji" font-size="20px" fill="#000" text-anchor="start" style="white-space: pre;" direction="ltr" dominant-baseline="text-before-edge">Search</text></g></svg>