<svg version="1.1" xmlns="http://www.w3.org/2000/svg" viewBox="0 0 109.67525151090831 170.0066251694294" width="109.67525151090831" height="170.0066251694294">
  <!-- svg-source:excalidraw -->
  
  <defs>
    
    
  </defs>
  <g transform="translate(23.871533440133135 139.0066251694294) rotate(0 21.5 12.5)"><text x="0" y="0" font-family="Virgil, Segoe UI Emoji" font-size="20px" fill="#000" text-anchor="start" style="white-space: pre;" direction="ltr" dominant-baseline="text-before-edge">JPG</text></g><g stroke-linecap="round" transform="translate(6 6) rotate(0 43.92912551591962 59.866575996830704)"><path d="M-0.03 -0.15 L88.53 -1.25 L86.51 117.88 L-1.76 118.39" stroke="none" stroke-width="0" fill="#feeb9e"></path><path d="M0 0 C21.65 0.36, 39.53 0.96, 87.86 0 M0 0 C30.92 1.01, 61.17 1.15, 87.86 0 M87.86 0 C86.79 34.22, 87.91 68.76, 87.86 119.73 M87.86 0 C87.89 25.38, 88.57 50.04, 87.86 119.73 M87.86 119.73 C56.8 120.07, 28.89 121.47, 0 119.73 M87.86 119.73 C55.3 119.84, 21.16 120.1, 0 119.73 M0 119.73 C2.07 81.79, 1.45 39.92, 0 0 M0 119.73 C0.31 77.12, -1.15 35.5, 0 0" stroke="#000000" stroke-width="4" fill="none"></path></g><g stroke-linecap="round" transform="translate(45.33931401090831 20.4825232163912) rotate(0 29.16796875 15)"><path d="M-0.15 0.67 L57.09 -1.35 L56.48 28.24 L-1.35 28.81" stroke="none" stroke-width="0" fill="#fff"></path><path d="M0 0 C19.17 -1.47, 37.78 0.67, 58.34 0 M0 0 C21.34 -0.83, 42.25 -0.13, 58.34 0 M58.34 0 C58.78 10.22, 59.73 20.04, 58.34 30 M58.34 0 C59.01 9.54, 58.87 17.88, 58.34 30 M58.34 30 C41.38 31.74, 25.63 31.32, 0 30 M58.34 30 C42.95 29.35, 27.62 30.54, 0 30 M0 30 C1.7 23.15, -0.3 15.43, 0 0 M0 30 C-0.05 19.3, 0.69 10.16, 0 0" stroke="#000000" stroke-width="4" fill="none"></path></g><g transform="translate(54.629823331121315 24.904475129760385) rotate(0 21.5 12.5)"><text x="0" y="0" font-family="Virgil, Segoe UI Emoji" font-size="20px" fill="#000000" text-anchor="start" style="white-space: pre;" direction="ltr" dominant-baseline="text-before-edge">JPG</text></g><g stroke-linecap="round" transform="translate(23.31865613687023 69.86967542220566) rotate(0 27.041934742646845 20.941362268784474)"><path d="M10.47 0 C19.7 -1.92, 35.52 -0.4, 43.61 0 C54.04 1.97, 54.29 1.98, 54.08 10.47 C56.59 16.67, 55.18 19.5, 54.08 31.41 C55.7 39.43, 51.62 39.83, 43.61 41.88 C29.64 43.4, 21.16 38.53, 10.47 41.88 C4.43 41.23, 1.74 39.3, 0 31.41 C-2.08 27.68, -1.58 23.16, 0 10.47 C-1.66 4.95, 5.66 -1.3, 10.47 0" stroke="none" stroke-width="0" fill="#a0daf7"></path><path d="M10.47 0 C21.53 0.13, 34.04 1.61, 43.61 0 M10.47 0 C19.75 0.14, 30.45 0.5, 43.61 0 M43.61 0 C52.09 -1.96, 52.79 2.35, 54.08 10.47 M43.61 0 C48.45 -2.26, 54.86 3.17, 54.08 10.47 M54.08 10.47 C55.13 14.01, 53.09 19.15, 54.08 31.41 M54.08 10.47 C54.48 16.79, 54.77 22.83, 54.08 31.41 M54.08 31.41 C52.47 37.49, 51.13 41.12, 43.61 41.88 M54.08 31.41 C52.69 37.34, 49.83 42.12, 43.61 41.88 M43.61 41.88 C29.82 40.42, 18.63 40.04, 10.47 41.88 M43.61 41.88 C35.68 41.9, 27.42 42.27, 10.47 41.88 M10.47 41.88 C5.24 42.61, 1.89 39.58, 0 31.41 M10.47 41.88 C5.62 43.9, 2.12 38.08, 0 31.41 M0 31.41 C-2.09 24.65, -1.68 20.21, 0 10.47 M0 31.41 C-0.61 24.17, -0.82 18.57, 0 10.47 M0 10.47 C-1.57 2.82, 5.28 -0.13, 10.47 0 M0 10.47 C0.14 2.82, 1.56 -0.82, 10.47 0" stroke="#000" stroke-width="4" fill="none"></path></g><g stroke-linecap="round"><g transform="translate(77.85191255242171 95.8814170919992) rotate(0 -27.107262403179902 -8.396586973312196)" fill-rule="evenodd"><path d="M0 0 L-54.21 0.62 L-39.57 -17.41 L-25.45 -2.44 L-28.63 -5.48 L-15.39 -16.11 L0 0" stroke="none" stroke-width="0" fill="#8da7b6" fill-rule="evenodd"></path><path d="M0 0 C-11.38 0.13, -22.77 0.26, -54.21 0.62 M0 0 C-14.5 0.17, -29 0.33, -54.21 0.62 M-54.21 0.62 C-50.3 -4.2, -46.38 -9.02, -39.57 -17.41 M-54.21 0.62 C-50.57 -3.87, -46.92 -8.37, -39.57 -17.41 M-39.57 -17.41 C-35.73 -13.34, -31.89 -9.27, -25.45 -2.44 M-39.57 -17.41 C-35.26 -12.84, -30.94 -8.27, -25.45 -2.44 M-25.45 -2.44 C-26.33 -3.28, -27.21 -4.12, -28.63 -5.48 M-25.45 -2.44 C-26.7 -3.63, -27.94 -4.82, -28.63 -5.48 M-28.63 -5.48 C-23.39 -9.69, -18.14 -13.89, -15.39 -16.11 M-28.63 -5.48 C-23.57 -9.54, -18.51 -13.6, -15.39 -16.11 M-15.39 -16.11 C-9.65 -10.1, -3.92 -4.1, 0 0 M-15.39 -16.11 C-11.53 -12.07, -7.67 -8.03, 0 0 M0 0 C0 0, 0 0, 0 0 M0 0 C0 0, 0 0, 0 0" stroke="#000" stroke-width="4" fill="none"></path></g></g><mask></mask><g stroke-linecap="round"><g transform="translate(24.905381232521904 93.68378973240499) rotate(0 24.10360007920781 8.257844242726264)" fill-rule="evenodd"><path d="M0 0 C8.03 0.04, 40.56 -2.38, 48.21 0.23 C55.85 2.85, 53.16 12.98, 45.89 15.69 C38.61 18.41, 12.21 19.13, 4.57 16.52 C-3.08 13.9, 0.76 2.75, 0 0" stroke="none" stroke-width="0" fill="#8da7b6" fill-rule="evenodd"></path><path d="M0 0 C8.03 0.04, 40.56 -2.38, 48.21 0.23 C55.85 2.85, 53.16 12.98, 45.89 15.69 C38.61 18.41, 12.21 19.13, 4.57 16.52 C-3.08 13.9, 0.76 2.75, 0 0 M0 0 C8.03 0.04, 40.56 -2.38, 48.21 0.23 C55.85 2.85, 53.16 12.98, 45.89 15.69 C38.61 18.41, 12.21 19.13, 4.57 16.52 C-3.08 13.9, 0.76 2.75, 0 0" stroke="transparent" stroke-width="4" fill="none"></path></g></g><mask></mask></svg>