<svg version="1.1" xmlns="http://www.w3.org/2000/svg" viewBox="0 0 187.58037142122282 187.53889451822263" width="187.58037142122282" height="187.53889451822263">
  <!-- svg-source:excalidraw -->
  
  <defs>
    
    
  </defs>
  <g stroke-linecap="round"><g transform="translate(95.85452573701627 6) rotate(0 -2.0643400264048637 87.76944725911132)" fill-rule="evenodd"><path d="M-1.58 0.53 L16.59 37.25 L58.94 26.79 L50.18 68.32 L85.48 90.17 L49.67 107.08 L60.59 151.64 L18.39 138.1 L-4.58 176.44 L-22.32 137.59 L-62.45 150.26 L-51.3 106.76 L-91.24 85.03 L-56.12 66.7 L-60.26 25.25 L-26.35 35.88 L1.4 -0.14" stroke="none" stroke-width="0" fill="#ced4da" fill-rule="evenodd"></path><path d="M0 0 C5.58 14.04, 14.33 26.89, 18.2 37.38 M0 0 C3.78 9.57, 8.52 18.64, 18.2 37.38 M18.2 37.38 C34.61 34.89, 48.5 29.42, 60.44 25.39 M18.2 37.38 C28.12 34.95, 38.55 32.68, 60.44 25.39 M60.44 25.39 C56.78 41.61, 51.54 55.78, 48.19 67.79 M60.44 25.39 C56.79 36.1, 52.75 48.64, 48.19 67.79 M48.19 67.79 C61.14 74.53, 76.71 82.44, 85.73 88.87 M48.19 67.79 C57.47 73.54, 65.93 77.86, 85.73 88.87 M85.73 88.87 C73.08 97.37, 58.59 100.53, 48.27 108.89 M85.73 88.87 C76.49 94.38, 67.71 99.58, 48.27 108.89 M48.27 108.89 C54.45 125.11, 57.62 138.75, 60.26 151.49 M48.27 108.89 C51.77 120.64, 54.47 131.85, 60.26 151.49 M60.26 151.49 C50.25 146.85, 40.54 143.79, 17.62 137.59 M60.26 151.49 C47.11 147.8, 34.87 142.27, 17.62 137.59 M17.62 137.59 C10.34 151.23, 0.84 168.15, -3.44 175.54 M17.62 137.59 C11.68 147.07, 6.23 157.39, -3.44 175.54 M-3.44 175.54 C-9.32 162.09, -19.26 148.91, -24.02 136.37 M-3.44 175.54 C-9.29 166.76, -13.81 157.6, -24.02 136.37 M-24.02 136.37 C-36.33 142.45, -48.6 145.61, -62.88 150.73 M-24.02 136.37 C-37.22 142.14, -52.22 147.46, -62.88 150.73 M-62.88 150.73 C-62.3 140.26, -58.73 132.22, -52.57 108.72 M-62.88 150.73 C-60.06 139.18, -58.74 129.52, -52.57 108.72 M-52.57 108.72 C-65.2 101.62, -76.04 94.54, -89.85 86 M-52.57 108.72 C-62.47 101.88, -73.35 96.73, -89.85 86 M-89.85 86 C-81.13 79.36, -71.52 77.31, -54.16 67.94 M-89.85 86 C-79.4 80.46, -69.91 75.51, -54.16 67.94 M-54.16 67.94 C-55.35 55.01, -56.34 42.43, -61.7 25.8 M-54.16 67.94 C-57.3 54.02, -58.23 41.7, -61.7 25.8 M-61.7 25.8 C-51.97 27.83, -46.31 31.43, -24.37 36.69 M-61.7 25.8 C-54.01 29.12, -46.71 30.11, -24.37 36.69 M-24.37 36.69 C-16.57 26.6, -7.97 13.08, 0 0 M-24.37 36.69 C-19.15 28.52, -13.74 19.26, 0 0 M0 0 C0 0, 0 0, 0 0 M0 0 C0 0, 0 0, 0 0" stroke="#000000" stroke-width="1" fill="none"></path></g></g><mask></mask></svg>