<svg xmlns="http://www.w3.org/2000/svg" viewBox="-1586.00 274.07 129.89 173.61" width="130" height="174"><rect x="-1563.22" y="286.06" width="87.86" height="119.73" rx="0" stroke="#000000" stroke-width="4" opacity="1.0" fill="#edf2f9"/><polyline points="-1503.97,286.05 -1503.70,314.70 -1474.96,314.31 -1503.97,286.05" fill="#d2dce7" stroke="#000" stroke-width="4" opacity="1.0" stroke-linecap="round" stroke-linejoin="round"/><polyline points="-1502.29,281.90 -1502.54,317.92 -1468.67,315.19 -1504.41,280.07" fill="#fff" stroke="none" stroke-width="4" opacity="1.0" stroke-linecap="round" stroke-linejoin="round" transform="rotate(179.75 -1484.42 300.83)"/><rect x="-1579.80" y="372.58" width="117.42" height="36.89" rx="0" stroke="#fff" stroke-width="2" opacity="1.0" fill="#fff"/><rect x="-1560.95" y="368.45" width="12.56" height="40.22" rx="0" stroke="#000" stroke-width="4" opacity="1.0" fill="#edf2f9"/><rect x="-1537.40" y="365.77" width="12.56" height="43.03" rx="0" stroke="#000" stroke-width="4" opacity="1.0" fill="#edf2f9"/><rect x="-1513.85" y="365.73" width="12.56" height="43.37" rx="0" stroke="#000" stroke-width="4" opacity="1.0" fill="#edf2f9"/><rect x="-1489.26" y="364.71" width="12.56" height="43.61" rx="0" stroke="#000" stroke-width="4" opacity="1.0" fill="#edf2f9"/><rect x="-1579.98" y="336.62" width="117.87" height="32.93" rx="0" stroke="#000" stroke-width="4" opacity="1.0" fill="#a0daf7"/><rect x="-1580.00" y="357.66" width="117.61" height="12.76" rx="0" stroke="#000" stroke-width="4" opacity="1.0" fill="#66b1e2"/><ellipse cx="-1474.60" cy="347.07" rx="4.15" ry="3.83" stroke="#000" stroke-width="2" opacity="1.0" fill="#66b1e2"/><polyline points="-1571.39,343.19 -1556.72,343.63" fill="#66b1e2" stroke="#000" stroke-width="2" opacity="1.0" stroke-linecap="round" stroke-linejoin="round"/><polyline points="-1572.01,350.33 -1557.33,350.77" fill="#66b1e2" stroke="#000" stroke-width="2" opacity="1.0" stroke-linecap="round" stroke-linejoin="round"/><text x="-1556.49" y="436.68" font-size="20" fill="#000" opacity="1.0" font-family="sans-serif">Shredder</text></svg>