<svg version="1.1" xmlns="http://www.w3.org/2000/svg" viewBox="0 0 223.57023619940765 222.0940414229799" width="223.57023619940765" height="222.0940414229799">
  <!-- svg-source:excalidraw -->
  
  <defs>
    
    
  </defs>
  <g stroke-linecap="round"><g transform="translate(6.178553164792902 7.105311050032469) rotate(0 105.69584151730737 104.31254690962987)" fill-rule="evenodd"><path d="M-1.92 -0.48 L208.32 1.92 L210.25 173.4 L178.01 207.91 L2.86 207.21 L1.44 1.87" stroke="none" stroke-width="0" fill="#12b886" fill-rule="evenodd"></path><path d="M0 0 C54.36 -1.42, 105.74 0.78, 207.62 0.73 M0 0 C78.29 -1.67, 155.65 -1.47, 207.62 0.73 M207.62 0.73 C207.05 67.76, 210.92 138.49, 211.39 174.34 M207.62 0.73 C207 41.03, 208.01 79.52, 211.39 174.34 M211.39 174.34 C201.39 184.43, 192.5 189.96, 176.66 207.17 M211.39 174.34 C199.85 186.54, 187.52 198.11, 176.66 207.17 M176.66 207.17 C132.98 207.73, 90.4 209.82, 2.26 208.63 M176.66 207.17 C125.2 207.66, 74.84 208.25, 2.26 208.63 M2.26 208.63 C4.17 138.84, 1.48 73.16, 0 0 M2.26 208.63 C-0.48 133.5, -0.34 59.42, 0 0 M0 0 C0 0, 0 0, 0 0 M0 0 C0 0, 0 0, 0 0" stroke="#000000" stroke-width="1" fill="none"></path></g></g><mask></mask><g stroke-linecap="round"><g transform="translate(217.24003175212601 182.16637403966342) rotate(0 -18.055555555555657 14.166666666666288)" fill-rule="evenodd"><path d="M-0.55 -0.94 L-32.96 -5.68 L-36.28 34.28 L0.6 0.91" stroke="none" stroke-width="0" fill="white" fill-rule="evenodd"></path><path d="M0 0 C-8.78 -1.78, -15.85 -1.59, -33.89 -5 M0 0 C-7.28 -0.82, -14.51 -1.53, -33.89 -5 M-33.89 -5 C-35.55 6.24, -35.18 16.23, -36.11 33.33 M-33.89 -5 C-34.22 3.25, -35.26 11.15, -36.11 33.33 M-36.11 33.33 C-23.05 21.8, -12.31 11.1, 0 0 M-36.11 33.33 C-24.3 22.61, -12.46 10.99, 0 0 M0 0 C0 0, 0 0, 0 0 M0 0 C0 0, 0 0, 0 0" stroke="#343a40" stroke-width="1" fill="none"></path></g></g><mask></mask></svg>