<svg version="1.1" xmlns="http://www.w3.org/2000/svg" viewBox="0 0 398.706391009218 66.97766671835205" width="398.706391009218" height="66.97766671835205">
  <!-- svg-source:excalidraw -->
  
  <defs>
    
    
  </defs>
  <g stroke-linecap="round"><g transform="translate(55.49448794466343 49.330764658719374) rotate(0 -1.0085670817068149 -9.697550460576764)" fill-rule="evenodd"><path d="M-49.46 -31.07 C-49.46 -31.07, -49.46 -31.07, -49.46 -31.07 M-49.46 -31.07 C-49.46 -31.07, -49.46 -31.07, -49.46 -31.07 M-43.43 -25.83 C-42.92 -27.22, -41.03 -28.09, -38.83 -31.11 M-43.43 -25.83 C-41.98 -27.6, -40.09 -29.49, -38.83 -31.11 M-38.05 -19.82 C-36.57 -22.58, -31.18 -27.06, -28.2 -31.14 M-38.05 -19.82 C-35.49 -22.87, -32.81 -25.36, -28.2 -31.14 M-32.66 -13.82 C-28.2 -21.12, -22.19 -29.36, -17.57 -31.18 M-32.66 -13.82 C-29.12 -18.61, -25.74 -22, -17.57 -31.18 M-46.31 14.07 C-33.93 3.55, -25.3 -11.92, -6.94 -31.21 M-46.31 14.07 C-33.98 -0.07, -23.47 -13.07, -6.94 -31.21 M-35.68 14.04 C-24.03 -1.38, -9.16 -14.41, 1.72 -28.98 M-35.68 14.04 C-27.17 5.25, -18.48 -4.88, 1.72 -28.98 M-25.05 14 C-13.8 3.11, -4.6 -6.86, 1.85 -16.94 M-25.05 14 C-16.09 4.32, -7.57 -6.86, 1.85 -16.94 M-14.42 13.97 C-11.1 6.11, -2.85 2.2, 1.98 -4.9 M-14.42 13.97 C-10.35 7.64, -3.64 1.73, 1.98 -4.9 M-3.79 13.93 C-1.32 11.85, 1.58 7.15, 4.74 4.12 M-3.79 13.93 C-1.92 10.98, 1.63 8.31, 4.74 4.12 M6.84 13.9 C9.05 11.59, 11.83 9.03, 15.37 4.09 M6.84 13.9 C9.05 11.46, 11.23 7.99, 15.37 4.09 M17.47 13.86 C19.17 11.71, 22.93 7.93, 26 4.05 M17.47 13.86 C19.92 11.47, 22.2 8.81, 26 4.05 M28.1 13.83 C30.51 10.35, 31.75 9.49, 36.63 4.02 M28.1 13.83 C30.89 11.47, 32.75 7.75, 36.63 4.02 M38.08 14.55 C43.45 8.23, 46.14 4.11, 49.23 1.72 M38.08 14.55 C42.5 10.06, 46.77 4.69, 49.23 1.72" stroke="#fa5252" stroke-width="1" fill="none"></path><path d="M0 0 C0.67 -8.66, -0.34 -14.97, 0 -31.04 M0 0 C-0.01 -12.15, -0.84 -24.81, 0 -31.04 M0 -31.04 C-13.34 -30.57, -26.57 -29.92, -49.49 -31.04 M0 -31.04 C-12.43 -31.5, -24.31 -31.91, -49.49 -31.04 M-49.49 -31.04 C-49.48 -30.99, -49.47 -30.95, -49.49 -30.85 M-49.49 -31.04 C-49.5 -30.98, -49.49 -30.92, -49.49 -30.85 M-49.49 -30.85 C-43.88 -21.85, -33.42 -13.15, -30.29 -9.3 M-49.49 -30.85 C-41.98 -23.67, -36.65 -16.05, -30.29 -9.3 M-30.29 -9.3 C-38.37 -0.69, -44.44 7.5, -49.34 11.65 M-30.29 -9.3 C-33.97 -4.37, -38.31 0.13, -49.34 11.65 M-49.34 11.65 C-16.25 11.49, 13.68 10.48, 47.47 11.65 M-49.34 11.65 C-12.14 10.67, 27.8 11.39, 47.47 11.65 M47.47 11.65 C47.5 9.23, 46.76 4.2, 47.47 0 M47.47 11.65 C47.3 8.25, 47.28 4.64, 47.47 0 M47.47 0 C32.14 -0.39, 13.8 -1.08, 0 0 M47.47 0 C30.15 -1.34, 13.41 -1.07, 0 0 M0 0 C0 0, 0 0, 0 0 M0 0 C0 0, 0 0, 0 0 M0 0 C0 0, 0 0, 0 0 M0 0 C0 0, 0 0, 0 0" stroke="#000000" stroke-width="2" fill="none"></path></g></g><mask></mask><g stroke-linecap="round"><g transform="translate(373.49172857789574 6.64295130863951) rotate(0 -149.39134612955684 21.343906675039705)" fill-rule="evenodd"><path d="M-318.24 0.28 C-318.24 0.28, -318.24 0.28, -318.24 0.28 M-318.24 0.28 C-318.24 0.28, -318.24 0.28, -318.24 0.28 M-318.11 12.32 C-314.84 9.71, -312.33 5.31, -307.61 0.25 M-318.11 12.32 C-314.38 8.87, -310.6 3.15, -307.61 0.25 M-317.98 24.36 C-310.04 17.22, -301.21 8.08, -296.98 0.21 M-317.98 24.36 C-313.51 19.14, -306.94 12.64, -296.98 0.21 M-317.84 36.41 C-305.08 22.64, -294.88 7.08, -286.35 0.18 M-317.84 36.41 C-308.55 24.8, -298.77 12.33, -286.35 0.18 M-315.09 45.43 C-299.4 29.25, -284.04 13.57, -275.72 0.15 M-315.09 45.43 C-302.32 31.52, -290.4 17.21, -275.72 0.15 M-304.46 45.39 C-294.44 35.03, -288.42 26.76, -265.09 0.11 M-304.46 45.39 C-290.52 30.12, -275.27 12.42, -265.09 0.11 M-293.83 45.36 C-280.61 27.13, -266.02 12.82, -254.46 0.08 M-293.83 45.36 C-280.81 30.51, -267.84 15.32, -254.46 0.08 M-283.2 45.32 C-274.63 32.63, -265.54 22.28, -243.83 0.04 M-283.2 45.32 C-269.35 28.37, -253.38 11.82, -243.83 0.04 M-272.57 45.29 C-263.69 37.38, -256.79 25.96, -233.2 0.01 M-272.57 45.29 C-262.26 33.81, -251.75 22.43, -233.2 0.01 M-261.94 45.26 C-252.49 36.63, -244.61 25.59, -222.57 -0.03 M-261.94 45.26 C-250 30.53, -237.43 17.79, -222.57 -0.03 M-251.31 45.22 C-234.4 28.42, -220.35 11.13, -211.94 -0.06 M-251.31 45.22 C-242.17 35.53, -234.68 27.86, -211.94 -0.06 M-240.68 45.19 C-226.61 28.02, -212.46 11.01, -201.31 -0.1 M-240.68 45.19 C-229.83 34.1, -221.84 23.25, -201.31 -0.1 M-230.05 45.15 C-219.16 33.82, -212.02 24.89, -190.68 -0.13 M-230.05 45.15 C-215.6 27.27, -199.88 11.01, -190.68 -0.13 M-219.42 45.12 C-203.36 27.44, -188.86 8.4, -180.05 -0.17 M-219.42 45.12 C-207.4 31.56, -197.33 19.06, -180.05 -0.17 M-208.79 45.08 C-198.19 32.89, -185.15 18.73, -169.42 -0.2 M-208.79 45.08 C-194.52 27.1, -178.14 10.1, -169.42 -0.2 M-198.16 45.05 C-186.95 30.77, -173.01 19.01, -158.79 -0.23 M-198.16 45.05 C-186.35 31.37, -174.56 18.47, -158.79 -0.23 M-187.53 45.01 C-177.38 36.24, -169.62 23.67, -148.16 -0.27 M-187.53 45.01 C-175.78 31.63, -164.56 18.31, -148.16 -0.27 M-176.9 44.98 C-163.19 29.36, -147.33 11.22, -137.53 -0.3 M-176.9 44.98 C-162.56 29.11, -149.69 13.67, -137.53 -0.3 M-166.27 44.94 C-156.97 33.85, -149.47 26.43, -126.9 -0.34 M-166.27 44.94 C-152.4 28.95, -137.52 10.47, -126.9 -0.34 M-156.29 45.66 C-150.29 35.6, -139.51 27.76, -116.27 -0.37 M-156.29 45.66 C-145.1 32.9, -134.72 19.66, -116.27 -0.37 M-145.66 45.63 C-132.01 26.66, -114.91 12.7, -106.3 0.35 M-145.66 45.63 C-130.47 27.34, -115.26 11.3, -106.3 0.35 M-135.03 45.6 C-123.92 32.59, -117.25 23.15, -95.67 0.31 M-135.03 45.6 C-123.45 31.08, -110.18 15.23, -95.67 0.31 M-124.4 45.56 C-115.39 33.46, -105.04 24.71, -85.04 0.28 M-124.4 45.56 C-115.16 33.43, -104.28 22.01, -85.04 0.28 M-113.77 45.53 C-102.1 34, -94.73 23.03, -74.41 0.24 M-113.77 45.53 C-101.81 32.44, -88.96 17.91, -74.41 0.24 M-103.14 45.49 C-88.88 29.62, -75.96 14.95, -63.78 0.21 M-103.14 45.49 C-95.49 35.36, -86.12 26.84, -63.78 0.21 M-92.51 45.46 C-80.86 31.28, -70.35 19.06, -53.15 0.18 M-92.51 45.46 C-84.51 35.4, -74.06 25.47, -53.15 0.18 M-81.88 45.42 C-71.82 31.13, -56.17 17.28, -42.52 0.14 M-81.88 45.42 C-70.96 32.89, -59.79 21.82, -42.52 0.14 M-71.25 45.39 C-62.93 34.6, -50.4 23.76, -31.89 0.11 M-71.25 45.39 C-61.93 32.42, -51.47 21.89, -31.89 0.11 M-60.62 45.35 C-43.55 27.25, -30 10.66, -21.26 0.07 M-60.62 45.35 C-48.31 31.07, -34.5 16, -21.26 0.07 M-49.99 45.32 C-35.35 29.62, -19.16 8.81, -10.63 0.04 M-49.99 45.32 C-41.62 35.83, -33.17 25.99, -10.63 0.04 M-39.36 45.29 C-31.67 36.09, -21.13 25.54, 0 0 M-39.36 45.29 C-28.69 34.28, -20.92 22.84, 0 0 M-28.73 45.25 C-21.29 37.4, -15.03 27.97, 5.38 6.01 M-28.73 45.25 C-20.28 36.67, -12.81 26.01, 5.38 6.01 M-18.1 45.22 C-7.74 34.05, 2.9 21.96, 10.77 12.01 M-18.1 45.22 C-11.91 38.77, -5.88 31.83, 10.77 12.01 M-7.47 45.18 C0.38 38.18, 8.94 26.43, 16.15 18.01 M-7.47 45.18 C-0.75 38.39, 5.43 29.87, 16.15 18.01" stroke="#fa5252" stroke-width="1" fill="none"></path><path d="M0 0 C-123.79 -0.98, -246.07 0.1, -318 0 M0 0 C-107.1 -1.11, -213.7 -0.56, -318 0 M-318 0 C-319.11 14.56, -319.37 25.23, -318 42.69 M-318 0 C-319.15 12.48, -318.64 27.73, -318 42.69 M-318 42.69 C-219.93 41.58, -123.83 41.78, 0 42.69 M-318 42.69 C-223.84 43.17, -129.24 43.08, 0 42.69 M0 42.69 C8.43 36.48, 14.75 26.38, 19.21 21.56 M0 42.69 C4.96 35.83, 12.2 30.62, 19.21 21.56 M19.21 21.56 C13.06 15.86, 5.56 6.13, 0 0 M19.21 21.56 C14.55 15.5, 8.69 9.81, 0 0 M0 0 C0 0, 0 0, 0 0 M0 0 C0 0, 0 0, 0 0 M0 0 C0 0, 0 0, 0 0 M0 0 C0 0, 0 0, 0 0" stroke="#000000" stroke-width="2" fill="none"></path></g></g><mask></mask><g stroke-linecap="round"><g transform="translate(102.58733698982905 60.40854165950242) rotate(0 -23.54414745206185 -5.633142518744705)"><path d="M0 0 C-10.81 -1.86, -22.97 -5.28, -47.09 -11.27 M0 0 C-13.34 -3.44, -26.21 -6.65, -47.09 -11.27" stroke="#000000" stroke-width="2" fill="none"></path></g></g><mask></mask></svg>