<svg xmlns="http://www.w3.org/2000/svg" viewBox="-384.59 657.00 288.21 286.88" width="288" height="287"><polyline points="-287.52,753.43 -285.67,700.34 -286.92,666.95 -284.48,664.14 -280.20,663.00 -263.20,665.49 -244.55,671.65 -227.08,682.38 -213.34,696.36 -204.36,711.03 -198.27,727.89 -193.45,752.25 -197.74,780.74 -208.17,803.99 -221.71,822.26 -241.10,836.17 -262.01,845.65 -289.60,847.44 -317.15,841.04 -340.08,828.40 -359.62,811.45 -371.68,789.31 -378.59,765.02 -376.93,742.22 -368.14,713.56 -355.09,692.52 -347.59,691.67 -324.11,714.68 -287.52,753.43" fill="#ced4da" stroke="#000000" stroke-width="1" opacity="1.0" stroke-linecap="round" stroke-linejoin="round"/></svg>