<svg version="1.1" xmlns="http://www.w3.org/2000/svg" viewBox="0 0 196.5802932109375 185.79072440204985" width="196.5802932109375" height="185.79072440204985">
  <!-- svg-source:excalidraw -->
  
  <defs>
    
    
  </defs>
  <g stroke-linecap="round"><g transform="translate(99.9712325555546 6) rotate(0 -1.6810859500858442 86.89536220102492)" fill-rule="evenodd"><path d="M-1.49 0.78 L25.25 66.47 L92.03 71.15 L37.11 111 L53.57 175.72 L0.34 137.16 L-57.53 172.14 L-37.98 108.99 L-93.74 67.34 L-23.5 66.86 L-0.31 0.57" stroke="none" stroke-width="0" fill="#ced4da" fill-rule="evenodd"></path><path d="M0 0 C6.63 21.14, 16.84 43.18, 25.04 65.24 M0 0 C10.99 26.28, 20.58 51.03, 25.04 65.24 M25.04 65.24 C42 67.53, 57.3 67.95, 90.61 69.62 M25.04 65.24 C49.28 67.55, 75.94 68.57, 90.61 69.62 M90.61 69.62 C72.59 82.47, 54.38 98.05, 38.71 109.83 M90.61 69.62 C70.5 84.48, 52.17 100.13, 38.71 109.83 M38.71 109.83 C43.97 130.8, 49.57 152.14, 55.19 173.79 M38.71 109.83 C45.17 130.64, 49.63 154.01, 55.19 173.79 M55.19 173.79 C37.81 161.82, 21.07 148.9, -0.28 137.41 M55.19 173.79 C41.99 164.67, 25.95 155.22, -0.28 137.41 M-0.28 137.41 C-19.81 148.72, -37.81 161.85, -57 173.42 M-0.28 137.41 C-20.01 150.06, -39.21 161.91, -57 173.42 M-57 173.42 C-53.77 154.65, -48.05 136.71, -39.41 110.02 M-57 173.42 C-50.01 151.87, -45.85 132.73, -39.41 110.02 M-39.41 110.02 C-56.13 95.23, -77.39 84.46, -93.97 68.68 M-39.41 110.02 C-59.62 94.25, -81.37 78.19, -93.97 68.68 M-93.97 68.68 C-80.02 69.52, -65.3 66.04, -25.37 64.99 M-93.97 68.68 C-76.06 66.78, -58.99 66.23, -25.37 64.99 M-25.37 64.99 C-17.13 41.66, -8.02 16.17, 0 0 M-25.37 64.99 C-19.45 49.78, -13.51 34.77, 0 0 M0 0 C0 0, 0 0, 0 0 M0 0 C0 0, 0 0, 0 0" stroke="#000000" stroke-width="1" fill="none"></path></g></g><mask></mask></svg>