<svg version="1.1" xmlns="http://www.w3.org/2000/svg" viewBox="0 0 367.05395507812494 121.96063995361327" width="367.05395507812494" height="121.96063995361327">
  <!-- svg-source:excalidraw -->
  
  <defs>
    
    
  </defs>
  <g stroke-linecap="round" transform="translate(6 6) rotate(0 177.52697753906247 54.98031997680663)"><path d="M0 0 C0 0, 0 0, 0 0 M0 0 C0 0, 0 0, 0 0 M-0.26 6.4 C1.61 4.52, 2.26 3.71, 4.99 0.36 M-0.26 6.4 C1.44 5.01, 2.29 2.63, 4.99 0.36 M0.13 12.04 C3.63 8.06, 4.94 4.93, 10.63 -0.03 M0.13 12.04 C2.65 8.35, 6.31 5.63, 10.63 -0.03 M-0.13 18.44 C3.89 10.84, 10.58 6.09, 15.62 0.33 M-0.13 18.44 C5.56 13.71, 9.11 7.05, 15.62 0.33 M0.27 24.08 C10.08 15.74, 16.01 5.6, 21.26 -0.07 M0.27 24.08 C6.42 17.72, 11.93 10.16, 21.26 -0.07 M0 30.48 C6.8 20.59, 16.02 10.07, 26.25 0.29 M0 30.48 C5.41 23.36, 10.63 17.48, 26.25 0.29 M-0.26 36.88 C8.34 28.16, 13.38 19.3, 31.89 -0.1 M-0.26 36.88 C8.39 25.9, 17.13 17, 31.89 -0.1 M0.14 42.52 C12.11 31.79, 21.08 18.81, 36.88 0.26 M0.14 42.52 C13.87 27.33, 26.69 12.15, 36.88 0.26 M-0.12 48.92 C13.03 36.43, 25.37 18.99, 42.52 -0.14 M-0.12 48.92 C11.3 36.41, 23.34 22.56, 42.52 -0.14 M0.27 54.56 C18.78 34.28, 35.05 12.84, 47.51 0.22 M0.27 54.56 C18.12 33.53, 37.74 12.06, 47.51 0.22 M0.01 60.96 C17.13 39.05, 34.74 20.17, 53.15 -0.17 M0.01 60.96 C12.89 47.37, 25.01 31.53, 53.15 -0.17 M-0.25 67.36 C15.39 51.59, 29.02 32.93, 58.14 0.19 M-0.25 67.36 C14.22 50.37, 30 33.75, 58.14 0.19 M0.14 73 C24.89 44.8, 48.09 14.64, 63.78 -0.21 M0.14 73 C14.34 55.36, 31.31 37.09, 63.78 -0.21 M-0.12 79.4 C24.9 54.83, 49.42 25.5, 68.77 0.15 M-0.12 79.4 C26.59 50.3, 51.35 19.6, 68.77 0.15 M0.28 85.04 C25.6 53.51, 54.36 21.38, 74.41 -0.24 M0.28 85.04 C26.95 54.05, 52.25 24.42, 74.41 -0.24 M0.01 91.44 C30.77 55.42, 62.54 18.54, 79.4 0.12 M0.01 91.44 C21.58 67.2, 43.72 41.77, 79.4 0.12 M-0.25 97.84 C25.38 70, 49.64 41, 85.04 -0.28 M-0.25 97.84 C28.64 66.25, 55.41 32.4, 85.04 -0.28 M0.15 103.48 C26.37 74.22, 49.68 44.77, 90.03 0.08 M0.15 103.48 C32.72 67.87, 63.58 30.5, 90.03 0.08 M-0.11 109.88 C22.46 81.66, 45.19 56.9, 95.67 -0.31 M-0.11 109.88 C29.22 77.78, 56.69 44.69, 95.67 -0.31 M4.87 110.24 C29.09 80.73, 54.88 53.99, 100.66 0.05 M4.87 110.24 C34.58 76.93, 65.28 43.98, 100.66 0.05 M9.86 110.6 C48.15 66.39, 86.49 23.84, 106.3 -0.34 M9.86 110.6 C38.44 78.52, 64.4 47.66, 106.3 -0.34 M15.5 110.2 C37.13 81.1, 62.66 56.54, 111.29 0.02 M15.5 110.2 C47.31 71.96, 79.8 35.38, 111.29 0.02 M20.49 110.56 C42.38 86.02, 60.77 61.81, 116.27 0.38 M20.49 110.56 C50.79 75.79, 82.35 39.76, 116.27 0.38 M26.13 110.17 C60.85 70.49, 94.76 27.99, 121.92 -0.02 M26.13 110.17 C54.29 77.71, 83.2 45.71, 121.92 -0.02 M31.12 110.53 C55.77 81.7, 80.26 51.68, 126.91 0.34 M31.12 110.53 C58.73 77.61, 87.88 44.5, 126.91 0.34 M36.11 110.89 C56.51 86.84, 79.01 62.07, 132.55 -0.05 M36.11 110.89 C70.76 69.35, 108.56 28.69, 132.55 -0.05 M41.75 110.49 C76.28 71.31, 111.28 29.51, 137.54 0.31 M41.75 110.49 C73.38 74.77, 104.86 37.7, 137.54 0.31 M46.74 110.85 C68.5 87, 89.25 62.39, 143.18 -0.09 M46.74 110.85 C85.41 65.78, 123.58 21.87, 143.18 -0.09 M52.38 110.46 C75.1 86.11, 100.51 56.47, 148.17 0.27 M52.38 110.46 C89.59 69.56, 126.93 26.22, 148.17 0.27 M57.37 110.82 C77.8 88.64, 98.09 62.46, 153.81 -0.12 M57.37 110.82 C89.27 75.44, 120.81 37.76, 153.81 -0.12 M63.01 110.42 C92.6 75.44, 119.72 42.73, 158.8 0.24 M63.01 110.42 C86.66 83.09, 108.49 56.43, 158.8 0.24 M68 110.78 C95.1 79.59, 120.55 50.61, 164.44 -0.16 M68 110.78 C105.46 69.48, 140.22 28.8, 164.44 -0.16 M73.64 110.39 C95.11 82.31, 118.02 58.31, 169.43 0.2 M73.64 110.39 C108.68 69.81, 145.24 29.64, 169.43 0.2 M78.63 110.75 C111.88 68.85, 148.46 29.99, 175.07 -0.19 M78.63 110.75 C105.02 79.58, 133.77 46.57, 175.07 -0.19 M84.27 110.36 C107.35 85.87, 127.7 58.33, 180.06 0.17 M84.27 110.36 C104.95 87.35, 123.73 65.24, 180.06 0.17 M89.26 110.72 C109.88 86.37, 130.22 61.46, 185.7 -0.23 M89.26 110.72 C114.29 84.09, 137.56 58.11, 185.7 -0.23 M94.9 110.32 C130.86 71.08, 166.69 27.79, 190.69 0.13 M94.9 110.32 C123.87 76.7, 152.44 41.48, 190.69 0.13 M99.89 110.68 C124.77 82.5, 145.37 55.16, 196.33 -0.26 M99.89 110.68 C135.49 69.81, 172.18 29.21, 196.33 -0.26 M105.53 110.29 C140.97 70.83, 174.87 28.71, 201.32 0.1 M105.53 110.29 C125.65 87.74, 143.34 66.37, 201.32 0.1 M110.52 110.65 C135.91 82.85, 160.9 53.63, 206.96 -0.3 M110.52 110.65 C131.91 85.18, 155.69 58.99, 206.96 -0.3 M116.16 110.25 C144.51 77.85, 170.8 46.97, 211.95 0.06 M116.16 110.25 C143.62 75.86, 173.17 42.98, 211.95 0.06 M121.15 110.61 C154.04 75.88, 185.72 35.53, 217.59 -0.33 M121.15 110.61 C151.6 73.89, 184 39.16, 217.59 -0.33 M126.79 110.22 C149.84 86.79, 168.98 59.39, 222.58 0.03 M126.79 110.22 C148.54 87.31, 168.9 64.11, 222.58 0.03 M131.78 110.58 C166.36 67.16, 203.6 25.39, 228.22 -0.36 M131.78 110.58 C169.73 67.7, 205.23 25.4, 228.22 -0.36 M137.42 110.18 C157.11 82.32, 180.61 56.87, 233.21 0 M137.42 110.18 C161.07 84.09, 183.95 57.86, 233.21 0 M142.41 110.54 C174.17 73.18, 207.45 34.38, 238.19 0.36 M142.41 110.54 C171.1 78.46, 198.85 45.81, 238.19 0.36 M148.05 110.15 C182.18 70.88, 218.99 29.11, 243.84 -0.04 M148.05 110.15 C173.64 80.79, 200.6 49.71, 243.84 -0.04 M153.04 110.51 C189.57 68.5, 222.58 27.34, 248.82 0.32 M153.04 110.51 C190.31 68.53, 225.52 27.15, 248.82 0.32 M158.03 110.87 C182.9 85.51, 206.15 56.39, 254.47 -0.07 M158.03 110.87 C184.64 80.23, 210.34 48.85, 254.47 -0.07 M163.67 110.47 C194.48 75.66, 224.24 41.63, 259.45 0.29 M163.67 110.47 C191.87 77.22, 220.18 44.37, 259.45 0.29 M168.66 110.83 C197.58 79.19, 223.22 48.29, 265.1 -0.11 M168.66 110.83 C189.93 86.36, 210.98 62.97, 265.1 -0.11 M174.3 110.44 C212.3 67.44, 249.4 27, 270.08 0.25 M174.3 110.44 C206.46 72.71, 237.93 36.11, 270.08 0.25 M179.29 110.8 C204.46 76.98, 235 48.25, 275.73 -0.14 M179.29 110.8 C213.73 70.39, 247.62 31.8, 275.73 -0.14 M184.93 110.41 C211.62 76.01, 241.95 46.27, 280.71 0.22 M184.93 110.41 C217.03 75.41, 248.46 37.52, 280.71 0.22 M189.92 110.77 C213.65 82.8, 239.7 53.62, 286.36 -0.18 M189.92 110.77 C220.72 73.87, 253.26 36.93, 286.36 -0.18 M195.56 110.37 C227.62 71.95, 259.55 37.05, 291.34 0.18 M195.56 110.37 C230.13 69.15, 264.51 30.32, 291.34 0.18 M200.55 110.73 C233.47 72.66, 265.84 31.82, 296.99 -0.21 M200.55 110.73 C227.12 79.99, 254.03 50.8, 296.99 -0.21 M206.19 110.34 C236.27 77.22, 262.34 42.02, 301.97 0.15 M206.19 110.34 C229.54 83.63, 253.49 58.34, 301.97 0.15 M211.18 110.7 C243.62 70.67, 277.19 35.69, 307.62 -0.25 M211.18 110.7 C240.31 78.33, 268.75 44.96, 307.62 -0.25 M216.82 110.3 C249.4 72.28, 282.34 36.84, 312.6 0.11 M216.82 110.3 C237.61 86, 258 62.01, 312.6 0.11 M221.81 110.66 C255.52 72.49, 292.66 29.42, 318.25 -0.28 M221.81 110.66 C244.91 84.77, 267.94 59.26, 318.25 -0.28 M227.45 110.27 C254.76 76.73, 288.38 39.88, 323.23 0.08 M227.45 110.27 C256.72 77.53, 284.11 44.11, 323.23 0.08 M232.44 110.63 C269.45 70.05, 307.21 24.62, 328.88 -0.31 M232.44 110.63 C256.67 81.21, 281.28 53.91, 328.88 -0.31 M238.08 110.23 C260.8 83.02, 286.82 54.9, 333.86 0.05 M238.08 110.23 C265.53 76.63, 293.3 45.82, 333.86 0.05 M243.07 110.59 C268.21 82.92, 291.1 52.68, 339.51 -0.35 M243.07 110.59 C268.56 79.79, 296.19 49.36, 339.51 -0.35 M248.71 110.2 C277.83 76.57, 305.08 42.15, 344.49 0.01 M248.71 110.2 C286.39 67.97, 321.73 24.68, 344.49 0.01 M253.7 110.56 C287.73 70.72, 320.58 29.91, 349.48 0.37 M253.7 110.56 C285.59 73.27, 318.63 35.43, 349.48 0.37 M259.34 110.16 C292.73 73.52, 325.69 33.17, 355.12 -0.02 M259.34 110.16 C295.01 67.51, 332.8 26.82, 355.12 -0.02 M264.33 110.52 C291.63 74.66, 321.5 42.08, 354.86 6.37 M264.33 110.52 C287.17 85.27, 308.98 59.47, 354.86 6.37 M269.31 110.88 C303.97 72.29, 334.12 33.76, 355.26 12.02 M269.31 110.88 C288.45 88.6, 306.89 66.49, 355.26 12.02 M274.96 110.49 C296.06 85.2, 319.16 58.68, 355 18.42 M274.96 110.49 C300.58 80.17, 327.75 50.8, 355 18.42 M279.94 110.85 C295.41 91.4, 314.64 73.89, 355.39 24.06 M279.94 110.85 C304.57 84.41, 326.33 57.86, 355.39 24.06 M285.59 110.46 C303.23 93.75, 318.75 73.1, 355.13 30.46 M285.59 110.46 C301 91.06, 318.66 71.44, 355.13 30.46 M290.57 110.82 C311.42 89.08, 330.05 65.47, 354.87 36.85 M290.57 110.82 C313.49 86.1, 335.51 58.76, 354.87 36.85 M296.22 110.42 C310.81 93.05, 326.6 74.57, 355.26 42.5 M296.22 110.42 C308.99 96.32, 321.26 83.02, 355.26 42.5 M301.2 110.78 C317.47 93.26, 331.73 76.28, 355 48.89 M301.2 110.78 C319.21 89.87, 336.14 68.86, 355 48.89 M306.85 110.39 C318.94 97.82, 326.63 85.62, 355.4 54.54 M306.85 110.39 C325.51 89.37, 342.77 69.2, 355.4 54.54 M311.83 110.75 C324.24 94.35, 338.44 81.01, 355.13 60.94 M311.83 110.75 C326.54 94.52, 342.08 76.02, 355.13 60.94 M317.48 110.35 C330.47 96.09, 340.79 83.02, 354.87 67.33 M317.48 110.35 C325.82 102.13, 332.74 92.44, 354.87 67.33 M322.46 110.71 C332.37 99.51, 345.22 86.81, 355.27 72.98 M322.46 110.71 C333.97 98.48, 343.9 86.16, 355.27 72.98 M328.11 110.32 C336.71 99.37, 344.08 89.86, 355.01 79.37 M328.11 110.32 C337.82 98.95, 346.67 88.65, 355.01 79.37 M333.09 110.68 C341.59 103.97, 346.19 96.04, 355.4 85.02 M333.09 110.68 C340.98 101.79, 349.17 91.99, 355.4 85.02 M338.74 110.28 C341.54 104.81, 347.68 101.37, 355.14 91.41 M338.74 110.28 C344.69 102.12, 351.26 96.16, 355.14 91.41 M343.72 110.64 C346.65 106.36, 348.85 104.23, 354.88 97.81 M343.72 110.64 C345.06 108.41, 347.97 104.84, 354.88 97.81 M349.37 110.25 C350.23 108.87, 353.5 105.95, 355.27 103.46 M349.37 110.25 C351.48 107.7, 353.79 105.16, 355.27 103.46 M354.35 110.61 C354.54 110.36, 354.81 110.07, 355.01 109.85 M354.35 110.61 C354.52 110.4, 354.72 110.18, 355.01 109.85 M-0.11 109.87 C-0.11 109.87, -0.11 109.87, -0.11 109.87 M-0.11 109.87 C-0.11 109.87, -0.11 109.87, -0.11 109.87 M6.29 110.13 C4.45 108.76, 2.17 106.51, 0.25 104.88 M6.29 110.13 C4.59 108.59, 3.54 107.85, 0.25 104.88 M11.93 109.74 C8.21 105.29, 6.14 101.98, -0.14 99.24 M11.93 109.74 C8.48 107.44, 6.34 104.93, -0.14 99.24 M18.33 110 C12.84 108.12, 7.86 101.79, 0.22 94.25 M18.33 110 C10.54 103.13, 4.88 97, 0.22 94.25 M24.73 110.26 C13.8 102.42, 6.15 93.89, -0.18 88.61 M24.73 110.26 C15.9 103.83, 7.43 94.33, -0.18 88.61 M30.37 109.86 C23.31 105.25, 17.63 99.27, 0.18 83.62 M30.37 109.86 C19.61 101.04, 10.8 94.08, 0.18 83.62 M36.77 110.12 C27.99 102.49, 18.42 92.93, -0.21 77.98 M36.77 110.12 C25.27 100.11, 13.96 90.28, -0.21 77.98 M42.41 109.73 C26.33 94.23, 12.45 81.37, 0.15 72.99 M42.41 109.73 C26.13 96.29, 9.26 81.48, 0.15 72.99 M48.81 109.99 C34.69 95.84, 18.56 86.47, -0.24 67.35 M48.81 109.99 C34.11 95.85, 18.22 83.57, -0.24 67.35 M55.21 110.25 C43.29 99.44, 28.19 87.74, 0.12 62.36 M55.21 110.25 C34.8 92.07, 14.35 75.48, 0.12 62.36 M60.85 109.86 C39.41 90.17, 18.91 74.89, -0.28 56.72 M60.85 109.86 C45.02 94.74, 28.24 81.99, -0.28 56.72 M67.25 110.12 C52.09 98.98, 34.93 83.97, 0.08 51.73 M67.25 110.12 C46.72 91.57, 25.22 74.88, 0.08 51.73 M72.89 109.73 C58.17 97.79, 42.94 84.28, -0.31 46.09 M72.89 109.73 C49.14 89.59, 24.58 69.22, -0.31 46.09 M79.29 109.99 C52.2 89.3, 25.1 63.3, 0.05 41.1 M79.29 109.99 C59.92 93.57, 41.1 76.57, 0.05 41.1 M85.69 110.25 C55.88 84.27, 31.28 62.12, -0.35 35.46 M85.69 110.25 C67.57 95.87, 51.07 79.74, -0.35 35.46 M91.33 109.85 C70.5 91.24, 48.28 71.35, 0.01 30.47 M91.33 109.85 C63.13 84.5, 34.02 59.39, 0.01 30.47 M97.73 110.12 C73.18 88.41, 49.29 67.75, 0.37 25.48 M97.73 110.12 C77.32 91.48, 56.44 74.54, 0.37 25.48 M103.37 109.72 C78.05 87.06, 53.43 66.28, -0.02 19.84 M103.37 109.72 C83.27 92.08, 60.49 71.96, -0.02 19.84 M109.77 109.98 C84.77 88.4, 62.78 70.85, 0.34 14.85 M109.77 109.98 C86.21 88.94, 61.69 69.25, 0.34 14.85 M116.17 110.24 C81.77 81.47, 48.62 51.11, -0.06 9.21 M116.17 110.24 C76.96 77.4, 38.81 43.93, -0.06 9.21 M121.81 109.85 C79.18 75.85, 38.63 40.1, 0.3 4.22 M121.81 109.85 C81.24 75.44, 40.92 39.86, 0.3 4.22 M128.21 110.11 C86.74 73.65, 41.28 33.96, 1.42 -0.11 M128.21 110.11 C93.32 81.06, 59.17 49.58, 1.42 -0.11 M133.85 109.72 C104.77 84.22, 77.83 61.15, 7.82 0.15 M133.85 109.72 C83.66 66.71, 35.15 24.31, 7.82 0.15 M140.25 109.98 C110.61 85.37, 78.81 56.52, 13.46 -0.24 M140.25 109.98 C103.12 78.82, 66.73 46.41, 13.46 -0.24 M146.65 110.24 C94.72 67.45, 47.02 22.22, 19.86 0.02 M146.65 110.24 C113.31 81.08, 79.21 53.9, 19.86 0.02 M152.29 109.84 C122.52 85.58, 93.43 58.29, 26.25 0.28 M152.29 109.84 C121.73 83.97, 92.13 55.63, 26.25 0.28 M158.69 110.11 C133.09 83.74, 105.5 60.58, 31.9 -0.11 M158.69 110.11 C113.39 70.7, 67.42 31.9, 31.9 -0.11 M164.33 109.71 C137.54 87.5, 110.23 62.48, 38.3 0.15 M164.33 109.71 C130.2 78.91, 97.98 49.2, 38.3 0.15 M170.73 109.97 C121.51 65.95, 70.45 20.57, 43.94 -0.25 M170.73 109.97 C128.37 74.91, 88.26 40.01, 43.94 -0.25 M177.13 110.23 C135.44 76.43, 96.41 38.89, 50.34 0.02 M177.13 110.23 C139.51 77.87, 103.73 45.23, 50.34 0.02 M182.77 109.84 C148.87 77.81, 112.23 46.7, 56.73 0.28 M182.77 109.84 C140.37 73.88, 100.02 38.64, 56.73 0.28 M189.17 110.1 C145.45 74.53, 105.34 35.68, 62.38 -0.12 M189.17 110.1 C147.56 74.59, 106.83 38.8, 62.38 -0.12 M194.81 109.71 C152.84 72.35, 109.97 33.73, 68.78 0.14 M194.81 109.71 C165.65 86.69, 139.89 63, 68.78 0.14 M201.21 109.97 C168.34 81.66, 134.48 52.45, 74.42 -0.25 M201.21 109.97 C152.99 69.08, 106.13 28.77, 74.42 -0.25 M207.61 110.23 C169.4 78, 130.85 46.91, 80.82 0.01 M207.61 110.23 C166.53 74.37, 125.57 38.48, 80.82 0.01 M213.25 109.83 C166.16 70.88, 119.34 29.56, 87.21 0.27 M213.25 109.83 C174.18 77.21, 134.63 43.29, 87.21 0.27 M219.65 110.1 C191.78 87.82, 161.99 62.33, 92.86 -0.12 M219.65 110.1 C190.92 83.18, 162.69 58.32, 92.86 -0.12 M225.29 109.7 C182.85 71.29, 138.95 36.94, 99.25 0.14 M225.29 109.7 C200.86 86.5, 173.83 65.52, 99.25 0.14 M231.69 109.96 C206.55 85, 179.1 64.21, 104.9 -0.26 M231.69 109.96 C196.53 77.53, 162.44 46.98, 104.9 -0.26 M238.09 110.22 C198.2 75.13, 159.83 41.4, 111.3 0.01 M238.09 110.22 C210.26 86.42, 182.08 62.25, 111.3 0.01 M243.73 109.83 C205.53 74.59, 168.33 40.79, 117.69 0.27 M243.73 109.83 C216.11 86.05, 188.42 62.11, 117.69 0.27 M250.13 110.09 C218.21 84.28, 186.86 57.93, 123.34 -0.13 M250.13 110.09 C212.73 75.78, 175.54 43.71, 123.34 -0.13 M255.77 109.7 C207.4 68, 159.45 26.8, 129.73 0.13 M255.77 109.7 C211.35 69.12, 166.34 30.17, 129.73 0.13 M262.17 109.96 C216.38 70.31, 172.03 29.75, 135.38 -0.26 M262.17 109.96 C232.01 80.78, 199.28 54.26, 135.38 -0.26 M268.57 110.22 C237.29 83.59, 205.7 57.92, 141.78 0 M268.57 110.22 C241.22 85.93, 213.45 61.06, 141.78 0 M274.21 109.82 C238.1 80.52, 202.14 46.54, 148.17 0.26 M274.21 109.82 C236.04 76.48, 195.56 43.4, 148.17 0.26 M280.61 110.09 C232.54 68.13, 189.23 27.43, 153.82 -0.13 M280.61 110.09 C246 80.49, 212.11 49.74, 153.82 -0.13 M286.25 109.69 C241.62 71.88, 201.91 34.16, 160.21 0.13 M286.25 109.69 C239.74 69.03, 194.28 30.31, 160.21 0.13 M292.65 109.95 C253.35 72.89, 208.36 38.23, 165.86 -0.26 M292.65 109.95 C263.55 84.66, 235.71 60.87, 165.86 -0.26 M299.05 110.21 C271.2 83.65, 240.77 59.35, 172.25 0 M299.05 110.21 C260.16 75.42, 221.04 43.26, 172.25 0 M304.69 109.82 C254.82 69.19, 208.78 26.34, 178.65 0.26 M304.69 109.82 C263.38 75.19, 223.39 39.9, 178.65 0.26 M311.09 110.08 C267.95 72.56, 227.32 37.98, 184.3 -0.14 M311.09 110.08 C271.97 78.84, 235.03 44.36, 184.3 -0.14 M316.73 109.69 C282.28 79.18, 245 47.59, 190.69 0.13 M316.73 109.69 C287.1 84.24, 258.57 59.68, 190.69 0.13 M323.13 109.95 C293.2 84.49, 265.39 58.69, 196.34 -0.27 M323.13 109.95 C284.11 74.99, 247.49 41.59, 196.34 -0.27 M329.53 110.21 C299.14 81.75, 267.76 57.91, 202.73 -0.01 M329.53 110.21 C281.78 68.87, 235.11 27.98, 202.73 -0.01 M335.17 109.82 C310.38 86.8, 286.94 63.06, 209.13 0.25 M335.17 109.82 C289.59 71.65, 244.86 32.46, 209.13 0.25 M341.57 110.08 C313.9 83.51, 283.1 60.85, 214.77 -0.14 M341.57 110.08 C293.35 66.89, 246.14 26.12, 214.77 -0.14 M347.21 109.68 C311 75.82, 271.41 43.53, 221.17 0.12 M347.21 109.68 C309.44 78.07, 271.41 43.36, 221.17 0.12 M353.61 109.94 C324.69 85.46, 298.2 60.5, 226.82 -0.27 M353.61 109.94 C321.38 82.33, 288.93 52.7, 226.82 -0.27 M354.72 105.61 C323.33 79.72, 288.79 50.9, 233.21 -0.01 M354.72 105.61 C323.35 78.48, 295.29 54.33, 233.21 -0.01 M355.08 100.63 C312.85 64.92, 275.05 28.69, 239.61 0.25 M355.08 100.63 C329.3 77.63, 304.75 57.5, 239.61 0.25 M355.44 95.64 C328.84 70.64, 301.23 47.38, 245.25 -0.15 M355.44 95.64 C324.55 70.06, 293.33 42.28, 245.25 -0.15 M355.05 90 C314.98 55.88, 274.72 18.64, 251.65 0.12 M355.05 90 C333.82 72.37, 312.35 52.86, 251.65 0.12 M355.41 85.01 C328.53 61.27, 304.24 37.92, 257.3 -0.28 M355.41 85.01 C335.61 66.65, 315.25 48.92, 257.3 -0.28 M355.01 79.37 C334.33 61.52, 308.35 40.99, 263.69 -0.02 M355.01 79.37 C334.38 61.59, 313.42 41.96, 263.69 -0.02 M355.37 74.38 C328.08 51.39, 299.1 25.13, 270.09 0.24 M355.37 74.38 C321.78 44.85, 288.32 16.23, 270.09 0.24 M354.98 68.74 C335.91 52.19, 314.71 34.56, 275.73 -0.15 M354.98 68.74 C338.05 54.31, 319.67 38.72, 275.73 -0.15 M355.34 63.75 C330.61 39.98, 301.91 17.07, 282.13 0.11 M355.34 63.75 C334.08 45.44, 313.91 26.59, 282.13 0.11 M354.94 58.11 C335.99 40.71, 312.56 21.11, 287.77 -0.28 M354.94 58.11 C333.96 38.63, 313.05 21.86, 287.77 -0.28 M355.3 53.12 C343.4 41.99, 326.58 29.86, 294.17 -0.02 M355.3 53.12 C333.08 34.93, 312.43 15.88, 294.17 -0.02 M354.91 47.48 C337.73 31.41, 321.12 14.44, 300.57 0.24 M354.91 47.48 C341.63 36.42, 327.1 23.6, 300.57 0.24 M355.27 42.49 C340.43 30.42, 325.3 15.1, 306.21 -0.16 M355.27 42.49 C339.92 29.11, 324.7 16.7, 306.21 -0.16 M354.87 36.84 C340.48 24.03, 322.45 9.82, 312.61 0.11 M354.87 36.84 C340.56 25.53, 326.45 13.87, 312.61 0.11 M355.24 31.86 C348.87 23.88, 340.87 19.12, 318.25 -0.29 M355.24 31.86 C345.36 23.44, 335.36 16.12, 318.25 -0.29 M354.84 26.21 C343.25 15.15, 331.95 5.85, 324.65 -0.03 M354.84 26.21 C346.59 19.38, 340.69 12.91, 324.65 -0.03 M355.2 21.23 C346.78 14.95, 337.42 4.2, 331.05 0.23 M355.2 21.23 C349.57 16.4, 344.62 12.26, 331.05 0.23 M354.81 15.58 C347.61 11.98, 341.15 4.31, 336.69 -0.16 M354.81 15.58 C349.37 11.48, 345.1 5.5, 336.69 -0.16 M355.17 10.6 C350.93 9.46, 348.86 6.69, 343.09 0.1 M355.17 10.6 C349.94 6.46, 344.79 1.52, 343.09 0.1 M354.77 4.95 C352.83 2.42, 350.33 0.34, 348.73 -0.29 M354.77 4.95 C352.56 3.01, 350.4 1.58, 348.73 -0.29" stroke="#d9e5f5" stroke-width="0.5" fill="none"></path><path d="M0 0 C128.5 -1.3, 255.48 -1.06, 355.05 0 M0 0 C106.85 1.38, 214.17 1.65, 355.05 0 M355.05 0 C355.08 41.4, 356.43 80.79, 355.05 109.96 M355.05 0 C355.27 40.12, 353.93 79.38, 355.05 109.96 M355.05 109.96 C274.8 107.89, 191.8 108.68, 0 109.96 M355.05 109.96 C231.79 110.97, 109.41 111.89, 0 109.96 M0 109.96 C-0.78 77.45, -0.11 42.39, 0 0 M0 109.96 C-0.05 77.36, 0.79 44.56, 0 0" stroke="#000" stroke-width="1" fill="none"></path></g><g stroke-linecap="round" transform="translate(49.11224365234375 33.60169982910156) rotate(0 133.83888244628903 25.514556884765625)"><path d="M0 0 C0 0, 0 0, 0 0 M0 0 C0 0, 0 0, 0 0 M-0.26 6.4 C1.52 4.22, 3.32 1.76, 4.99 0.36 M-0.26 6.4 C1.8 4.5, 3.23 2.49, 4.99 0.36 M0.13 12.04 C4.69 9.19, 7.42 4.12, 10.63 -0.03 M0.13 12.04 C4.39 7.45, 8.32 2.49, 10.63 -0.03 M-0.13 18.44 C2.15 12.54, 7.53 10.08, 15.62 0.33 M-0.13 18.44 C5.52 11.5, 12.47 4.97, 15.62 0.33 M0.27 24.08 C7.73 13.18, 15.3 3.64, 21.26 -0.07 M0.27 24.08 C6.09 19.37, 9.53 12.85, 21.26 -0.07 M0 30.48 C7.2 22.94, 17.05 10.71, 26.25 0.29 M0 30.48 C8.75 19.81, 16.05 11.13, 26.25 0.29 M-0.26 36.88 C13.82 22.02, 24.05 8.72, 31.89 -0.1 M-0.26 36.88 C11.62 25.06, 22.03 10.95, 31.89 -0.1 M0.14 42.52 C12.77 31.13, 23.05 18.17, 36.88 0.26 M0.14 42.52 C10.25 32.01, 17.85 21.2, 36.88 0.26 M-0.12 48.92 C12.24 32.99, 26.31 19.11, 42.52 -0.14 M-0.12 48.92 C13.74 33, 27.38 16.62, 42.52 -0.14 M1.58 53.05 C17.75 35.05, 33.19 19.09, 47.51 0.22 M1.58 53.05 C19.23 33.93, 36.15 13.49, 47.51 0.22 M7.23 52.66 C21.91 36.98, 32.22 23.49, 53.15 -0.17 M7.23 52.66 C20.46 37.07, 35.45 21.19, 53.15 -0.17 M12.21 53.02 C22.86 39.71, 32.28 29.56, 58.14 0.19 M12.21 53.02 C24.76 38.53, 37.75 23.59, 58.14 0.19 M17.86 52.62 C28.74 38.47, 37.67 26.59, 63.78 -0.21 M17.86 52.62 C30.11 39.18, 40.41 25.51, 63.78 -0.21 M22.84 52.98 C35.11 37.93, 47.77 25.37, 68.77 0.15 M22.84 52.98 C34.64 39.66, 47.48 24.86, 68.77 0.15 M28.49 52.59 C38.34 42.73, 48.27 30.88, 74.41 -0.24 M28.49 52.59 C39.63 38.11, 53 25.1, 74.41 -0.24 M33.47 52.95 C47.14 38.34, 59.55 22.91, 79.4 0.12 M33.47 52.95 C49.37 35.22, 64.84 17.22, 79.4 0.12 M39.12 52.55 C54.89 35.85, 70.13 17.25, 85.04 -0.28 M39.12 52.55 C53.09 35.46, 67.73 18.28, 85.04 -0.28 M44.1 52.91 C58.42 37.65, 72.22 19.18, 90.03 0.08 M44.1 52.91 C58.69 35.74, 75.37 17.86, 90.03 0.08 M49.75 52.52 C68.25 33.51, 83.05 11.06, 95.67 -0.31 M49.75 52.52 C61.74 38.62, 73.35 25.15, 95.67 -0.31 M54.73 52.88 C70.11 34.54, 84.08 17.52, 100.66 0.05 M54.73 52.88 C68.5 35.87, 84.55 20.32, 100.66 0.05 M60.38 52.48 C76.91 35.99, 91.56 20.14, 106.3 -0.34 M60.38 52.48 C71.29 38.11, 83.19 24.56, 106.3 -0.34 M65.36 52.84 C84.19 31.19, 98.92 11.92, 111.29 0.02 M65.36 52.84 C82.06 32.33, 101.22 12.29, 111.29 0.02 M71.01 52.45 C89.41 31.9, 105.56 12.15, 116.27 0.38 M71.01 52.45 C86.26 34.67, 102.26 17.8, 116.27 0.38 M75.99 52.81 C85.02 41.45, 97.77 30.93, 121.92 -0.02 M75.99 52.81 C90.51 36.72, 104.34 20.28, 121.92 -0.02 M81.64 52.42 C95.84 36.99, 104.72 25.06, 126.91 0.34 M81.64 52.42 C92.84 39.98, 104.46 25.57, 126.91 0.34 M86.62 52.78 C99.2 38.97, 108.15 26.36, 132.55 -0.05 M86.62 52.78 C98.41 40.37, 108.61 25.45, 132.55 -0.05 M92.27 52.38 C103.1 40.53, 114.42 25.55, 137.54 0.31 M92.27 52.38 C109.02 33.19, 126.44 12.85, 137.54 0.31 M97.25 52.74 C112.67 33.47, 130.55 15.56, 143.18 -0.09 M97.25 52.74 C108.67 39.24, 120.52 24.96, 143.18 -0.09 M102.9 52.35 C113.38 38.12, 124.38 27.71, 148.17 0.27 M102.9 52.35 C116.03 38.43, 127.77 23.74, 148.17 0.27 M107.88 52.71 C124.87 34.89, 142.47 13.79, 153.81 -0.12 M107.88 52.71 C125.08 32.88, 143.45 13.65, 153.81 -0.12 M113.53 52.31 C127.12 38.72, 136.89 24.76, 158.8 0.24 M113.53 52.31 C127.42 37.23, 140.82 21.52, 158.8 0.24 M118.51 52.67 C133.43 33.12, 153.99 15.51, 164.44 -0.16 M118.51 52.67 C133.5 34.22, 149.02 17.66, 164.44 -0.16 M123.5 53.03 C135.43 37.2, 152.02 20.1, 169.43 0.2 M123.5 53.03 C139.41 33.76, 156.51 15.39, 169.43 0.2 M129.14 52.64 C142.3 37.98, 157.01 20.78, 175.07 -0.19 M129.14 52.64 C140.28 40.49, 149.77 28.38, 175.07 -0.19 M134.13 53 C152.23 32.12, 170.46 11.17, 180.06 0.17 M134.13 53 C142.56 42.68, 152.5 31.81, 180.06 0.17 M139.77 52.6 C156.55 30.31, 174.95 11.92, 185.7 -0.23 M139.77 52.6 C154.08 37.32, 167.1 20.37, 185.7 -0.23 M144.76 52.96 C156.71 40.32, 167.29 30.72, 190.69 0.13 M144.76 52.96 C159.92 36.07, 175.99 16.43, 190.69 0.13 M150.4 52.57 C159.23 41.65, 169.14 31.33, 196.33 -0.26 M150.4 52.57 C165.38 34.91, 179.84 18.01, 196.33 -0.26 M155.39 52.93 C169.59 38.13, 182.02 22.6, 201.32 0.1 M155.39 52.93 C168.18 38.59, 179.99 23.99, 201.32 0.1 M161.03 52.53 C178.15 31.38, 196.84 10.23, 206.96 -0.3 M161.03 52.53 C179.03 32.97, 195.03 13.38, 206.96 -0.3 M166.02 52.89 C177.92 42.17, 185.53 32.3, 211.95 0.06 M166.02 52.89 C178.12 38.05, 192.04 24.79, 211.95 0.06 M171.66 52.5 C188.74 33.46, 208.45 12.93, 217.59 -0.33 M171.66 52.5 C187.95 33.7, 204.53 15.71, 217.59 -0.33 M176.65 52.86 C190.64 36.18, 205.67 19.88, 222.58 0.03 M176.65 52.86 C188.17 39.46, 199.26 26.96, 222.58 0.03 M182.29 52.47 C192.73 39.59, 204.28 26.14, 228.22 -0.36 M182.29 52.47 C192.28 42.11, 200.05 31.85, 228.22 -0.36 M187.28 52.83 C198.29 39.47, 210.12 27.69, 233.21 0 M187.28 52.83 C199.22 39.76, 212.11 24.67, 233.21 0 M192.92 52.43 C204.38 41.3, 214.9 29.14, 238.19 0.36 M192.92 52.43 C205.58 37.17, 218.88 21.76, 238.19 0.36 M197.91 52.79 C209.2 40.11, 218.22 28.9, 243.84 -0.04 M197.91 52.79 C214.28 34, 231.46 13.66, 243.84 -0.04 M203.55 52.4 C218.06 37.33, 230.22 18.87, 248.82 0.32 M203.55 52.4 C214.48 40.23, 223.81 28.13, 248.82 0.32 M208.54 52.76 C220.5 39.7, 230.73 27.79, 254.47 -0.07 M208.54 52.76 C219.25 41.72, 228.42 29.99, 254.47 -0.07 M214.19 52.36 C228.27 35.92, 243.45 19.84, 259.45 0.29 M214.19 52.36 C226.65 36.95, 239.58 23.18, 259.45 0.29 M219.17 52.72 C232.7 35.57, 247.29 19.56, 265.1 -0.11 M219.17 52.72 C230.8 39.44, 241.86 25.87, 265.1 -0.11 M224.82 52.33 C234.24 43.01, 241.73 32.11, 269.43 1.01 M224.82 52.33 C240.82 34.44, 256.28 16.36, 269.43 1.01 M229.8 52.69 C239.42 41.12, 251.37 27.23, 269.17 7.4 M229.8 52.69 C241.55 40.64, 251.01 27.02, 269.17 7.4 M234.79 53.05 C246.68 36.89, 262.56 22.78, 268.9 13.8 M234.79 53.05 C246.35 40.12, 257.71 24.87, 268.9 13.8 M240.43 52.65 C249.75 41.96, 260.44 32.56, 269.3 19.45 M240.43 52.65 C250.95 40.89, 260.83 30.34, 269.3 19.45 M245.42 53.01 C253.77 42.42, 264.88 30.28, 269.04 25.84 M245.42 53.01 C251.51 45.55, 257.38 37.39, 269.04 25.84 M251.06 52.62 C256.87 47.64, 263.45 39.6, 269.43 31.49 M251.06 52.62 C254.63 48.78, 259.31 43.81, 269.43 31.49 M256.05 52.98 C260.78 46.17, 268.52 39.2, 269.17 37.88 M256.05 52.98 C259.79 48.2, 264.35 44.22, 269.17 37.88 M261.69 52.58 C264.75 50.35, 265.75 48.76, 268.91 44.28 M261.69 52.58 C264.38 50.29, 266.44 47.4, 268.91 44.28 M-0.36 50.72 C-0.36 50.72, -0.36 50.72, -0.36 50.72 M-0.36 50.72 C-0.36 50.72, -0.36 50.72, -0.36 50.72 M6.04 50.98 C4.37 49.33, 1.93 47.08, 0 45.73 M6.04 50.98 C3.95 49.06, 0.96 46.64, 0 45.73 M12.43 51.24 C8.35 50.34, 7.1 48.03, 0.36 40.74 M12.43 51.24 C9.34 48.82, 6.42 45.74, 0.36 40.74 M18.08 50.84 C16.03 47.37, 11.86 44.03, -0.04 35.1 M18.08 50.84 C13.78 46.26, 7.94 42.05, -0.04 35.1 M24.48 51.11 C15.68 43.5, 6.44 36.04, 0.32 30.11 M24.48 51.11 C17.32 44.87, 8.98 37.83, 0.32 30.11 M30.12 50.71 C16.7 39.48, 7.76 29.9, -0.07 24.47 M30.12 50.71 C23.29 43.87, 16.56 38.89, -0.07 24.47 M36.52 50.97 C25.75 40.12, 10.54 28.53, 0.29 19.48 M36.52 50.97 C23.16 39.88, 11.22 28.72, 0.29 19.48 M42.91 51.23 C29.44 37.94, 16.36 30.07, -0.1 13.84 M42.91 51.23 C34.34 42.23, 23.14 35.08, -0.1 13.84 M48.56 50.84 C38.43 40.45, 29.37 32.99, 0.26 8.85 M48.56 50.84 C33.39 36.79, 18.06 24.15, 0.26 8.85 M54.96 51.1 C40.22 39.12, 24.6 24.07, -0.14 3.21 M54.96 51.1 C40.67 38.83, 26.66 25.31, -0.14 3.21 M60.6 50.71 C46.96 41.33, 36.18 28.16, 1.73 -0.47 M60.6 50.71 C41.32 33.2, 21.48 17.16, 1.73 -0.47 M67 50.97 C53.42 38.8, 39.47 28.85, 8.13 -0.21 M67 50.97 C45.55 31.75, 23.17 11.12, 8.13 -0.21 M73.39 51.23 C54.73 31.74, 33.64 16.38, 13.77 -0.6 M73.39 51.23 C57.46 38.79, 41.97 25.34, 13.77 -0.6 M79.04 50.83 C57.21 30.76, 37.76 13.85, 20.17 -0.34 M79.04 50.83 C62.65 36.68, 45.74 21.05, 20.17 -0.34 M85.43 51.1 C69.49 39.32, 53.51 23.29, 26.57 -0.08 M85.43 51.1 C72.5 39.08, 59.28 28.65, 26.57 -0.08 M91.83 51.36 C77.31 39.61, 59.24 26.01, 32.21 -0.47 M91.83 51.36 C75.71 37.58, 59.89 23.88, 32.21 -0.47 M97.48 50.96 C77.12 34.37, 57.6 15.96, 38.61 -0.21 M97.48 50.96 C81.08 37.06, 64.59 22.17, 38.61 -0.21 M103.87 51.22 C91.4 39.84, 73.77 27.35, 44.25 -0.6 M103.87 51.22 C87.26 36.57, 69.47 22.46, 44.25 -0.6 M109.52 50.83 C87.2 30.7, 64.62 12.48, 50.65 -0.34 M109.52 50.83 C91.74 35.98, 74.88 20.82, 50.65 -0.34 M115.91 51.09 C96.88 32.46, 75.85 15.77, 57.05 -0.08 M115.91 51.09 C96.92 34.87, 77.44 17.71, 57.05 -0.08 M122.31 51.35 C101.02 35.06, 83.14 16.44, 62.69 -0.48 M122.31 51.35 C105.02 35.52, 88.25 21.16, 62.69 -0.48 M127.95 50.96 C106.43 32.75, 86.29 14.12, 69.09 -0.22 M127.95 50.96 C114.82 39.49, 100.97 28.23, 69.09 -0.22 M134.35 51.22 C119.57 40.75, 107.11 26.56, 74.73 -0.61 M134.35 51.22 C113.97 35.17, 95.3 16.72, 74.73 -0.61 M140 50.82 C118.95 32.33, 94.75 9.14, 81.13 -0.35 M140 50.82 C127.43 38.63, 113.04 27.1, 81.13 -0.35 M146.39 51.09 C126.99 33.58, 107.73 16.15, 87.53 -0.09 M146.39 51.09 C121.97 29.28, 99.93 9.44, 87.53 -0.09 M152.79 51.35 C132.94 35.02, 113.34 14.29, 93.17 -0.48 M152.79 51.35 C138.07 40.21, 125.02 27.42, 93.17 -0.48 M158.43 50.95 C139.82 34.69, 120.49 18.67, 99.57 -0.22 M158.43 50.95 C139.94 34.83, 120.1 18.2, 99.57 -0.22 M164.83 51.21 C153.95 41.97, 139.96 30.46, 105.21 -0.61 M164.83 51.21 C141.64 32.25, 118.91 11.68, 105.21 -0.61 M170.48 50.82 C159.02 39.77, 144.87 30.98, 111.61 -0.35 M170.48 50.82 C154.48 37.81, 139.97 24.93, 111.61 -0.35 M176.87 51.08 C159.94 35.13, 140.01 18.72, 118.01 -0.09 M176.87 51.08 C162.65 39.3, 148.11 25.82, 118.01 -0.09 M183.27 51.34 C169.99 42.35, 157.29 31.42, 123.65 -0.49 M183.27 51.34 C169.35 41.18, 157.6 29.01, 123.65 -0.49 M188.91 50.95 C167.6 30.16, 146.66 12.23, 130.05 -0.22 M188.91 50.95 C176.01 40.87, 164.66 30.12, 130.05 -0.22 M195.31 51.21 C173.59 31.58, 152.44 13.49, 135.69 -0.62 M195.31 51.21 C176.23 35.55, 156.86 17.42, 135.69 -0.62 M200.95 50.81 C178.1 29.44, 157.89 11.37, 142.09 -0.36 M200.95 50.81 C180.99 34.04, 159.92 15.85, 142.09 -0.36 M207.35 51.08 C189.48 38.47, 176.14 23.28, 148.49 -0.1 M207.35 51.08 C185.6 31.68, 165.37 14.37, 148.49 -0.1 M213.75 51.34 C195.11 34.84, 175.47 19.25, 154.13 -0.49 M213.75 51.34 C197.04 37.21, 180.81 22.85, 154.13 -0.49 M219.39 50.94 C198.92 36.24, 182.34 20.24, 160.53 -0.23 M219.39 50.94 C206.12 39.79, 193.61 28.42, 160.53 -0.23 M225.79 51.2 C208.64 36.02, 196 25.82, 166.17 -0.62 M225.79 51.2 C203.36 32.02, 181.68 12.11, 166.17 -0.62 M231.43 50.81 C214.35 38.08, 201.06 25.45, 172.57 -0.36 M231.43 50.81 C216.77 38.86, 203.03 25.73, 172.57 -0.36 M237.83 51.07 C222.44 35.18, 206.83 20.65, 178.96 -0.1 M237.83 51.07 C218.92 35.29, 200.13 17.55, 178.96 -0.1 M244.23 51.33 C225.32 32.43, 206.05 15.3, 184.61 -0.5 M244.23 51.33 C225.85 34.1, 206.73 18.57, 184.61 -0.5 M249.87 50.94 C230.89 32.57, 213.23 15.76, 191.01 -0.23 M249.87 50.94 C227.46 32.68, 206.64 12.91, 191.01 -0.23 M256.27 51.2 C243.4 40.55, 226.03 26.32, 196.65 -0.63 M256.27 51.2 C234.09 33.77, 214.32 15.49, 196.65 -0.63 M261.91 50.81 C242.08 33.69, 224.37 16.51, 203.05 -0.37 M261.91 50.81 C245.39 35.66, 227.1 20.14, 203.05 -0.37 M267.56 50.41 C245.38 33.41, 225.82 14.61, 209.44 -0.11 M267.56 50.41 C255.11 41.23, 243.35 29.73, 209.44 -0.11 M267.92 45.42 C248.75 27.98, 231.78 12.29, 215.09 -0.5 M267.92 45.42 C247.44 27.22, 228.56 12.08, 215.09 -0.5 M268.28 40.44 C258.69 32.16, 246.05 22.78, 221.49 -0.24 M268.28 40.44 C251.25 27.52, 235.15 12.78, 221.49 -0.24 M267.88 34.79 C251.54 19.79, 235.03 5.68, 227.13 -0.63 M267.88 34.79 C257.86 24.84, 245.17 16.42, 227.13 -0.63 M268.24 29.81 C255.97 20.55, 244.55 6.03, 233.53 -0.37 M268.24 29.81 C261.07 22.96, 253.41 15.69, 233.53 -0.37 M267.85 24.16 C258 14.83, 247.75 5.51, 239.92 -0.11 M267.85 24.16 C258.03 16.3, 247.93 8.55, 239.92 -0.11 M268.21 19.18 C262.61 12.42, 257.23 6.14, 245.57 -0.51 M268.21 19.18 C262.57 14.25, 256.84 8.68, 245.57 -0.51 M267.81 13.53 C262.77 8.03, 257.47 3.37, 251.96 -0.24 M267.81 13.53 C262.95 9.92, 257.14 5.41, 251.96 -0.24 M268.17 8.55 C263.77 7.05, 262.75 1.64, 257.61 -0.64 M268.17 8.55 C264.99 5.96, 262.13 3.69, 257.61 -0.64 M267.78 2.9 C266.77 1.77, 265.31 0.1, 264.01 -0.38 M267.78 2.9 C266.86 2.22, 266.09 1.33, 264.01 -0.38" stroke="#4286ef" stroke-width="0.5" fill="none"></path><path d="M0 0 C67.67 -0.83, 136.34 -0.51, 267.68 0 M0 0 C102.4 1.46, 205.4 0.77, 267.68 0 M267.68 0 C267.68 19.6, 267 38.89, 267.68 51.03 M267.68 0 C266.95 16.82, 267.29 33.86, 267.68 51.03 M267.68 51.03 C205.89 49.33, 146.81 50.86, 0 51.03 M267.68 51.03 C194.96 48.76, 122.45 49.12, 0 51.03 M0 51.03 C-1.45 30.5, 2.02 12.21, 0 0 M0 51.03 C1.11 35.29, -0.46 18.92, 0 0" stroke="#000" stroke-width="1" fill="none"></path></g></svg>