<svg version="1.1" xmlns="http://www.w3.org/2000/svg" viewBox="0 0 106.67567798384994 172.99215648619628" width="106.67567798384994" height="172.99215648619628">
  <!-- svg-source:excalidraw -->
  
  <defs>
    
    
  </defs>
  <g stroke-linecap="round" transform="translate(6 12.125722823635556) rotate(0 43.92912551591962 59.86657599683068)"><path d="M-0.92 0.89 L86.43 -2 L88.1 120.58 L1.45 119.59" stroke="none" stroke-width="0" fill="#a0daf7"></path><path d="M0 0 C35.54 -0.5, 69.8 0.49, 87.86 0 M0 0 C21.69 -0.32, 45.76 -0.76, 87.86 0 M87.86 0 C87.26 39.35, 87.64 77.44, 87.86 119.73 M87.86 0 C87.8 33.43, 86.9 66.71, 87.86 119.73 M87.86 119.73 C66.81 121.12, 48.02 121.36, 0 119.73 M87.86 119.73 C62.95 121.18, 39.44 120.7, 0 119.73 M0 119.73 C1.71 79.31, -1.54 34.88, 0 0 M0 119.73 C-1.56 74.06, -1.76 27.52, 0 0" stroke="#000000" stroke-width="4" fill="none"></path></g><g stroke-linecap="round"><g transform="translate(65.28670798340636 12.045743379401642) rotate(0 14.507403134580954 14.32530443646803)" fill-rule="evenodd"><path d="M0.45 -0.72 L-0.73 28.77 L29.44 28.99 L-0.07 0.99" stroke="none" stroke-width="0" fill="#66acdf" fill-rule="evenodd"></path><path d="M0 0 C0.29 7.12, 0.84 12.39, 0.27 28.65 M0 0 C0.1 8.92, -0.04 17.24, 0.27 28.65 M0.27 28.65 C6.73 28.94, 12.55 28.24, 29.01 28.27 M0.27 28.65 C7.96 28.22, 15.58 28.04, 29.01 28.27 M29.01 28.27 C19.93 19.13, 10.57 9.47, 0 0 M29.01 28.27 C18.02 17.11, 6.61 6.61, 0 0 M0 0 C0 0, 0 0, 0 0 M0 0 C0 0, 0 0, 0 0" stroke="#000" stroke-width="4" fill="none"></path></g></g><mask></mask><g stroke-linecap="round"><g transform="translate(66.96874775864444 7.898729775473498) rotate(179.75453245381487 15.752990313364876 17.095944093402622)" fill-rule="evenodd"><path d="M0 0 L-0.25 36.02 L33.63 33.29 L-2.12 -1.83" stroke="none" stroke-width="0" fill="#fff" fill-rule="evenodd"></path><path d="M0 0 C-0.09 13.76, -0.19 27.51, -0.25 36.02 M0 0 C-0.08 11.93, -0.16 23.85, -0.25 36.02 M-0.25 36.02 C12.58 34.99, 25.41 33.95, 33.63 33.29 M-0.25 36.02 C9.74 35.22, 19.72 34.41, 33.63 33.29 M33.63 33.29 C21.06 20.94, 8.49 8.6, -2.12 -1.83 M33.63 33.29 C19.61 19.52, 5.6 5.75, -2.12 -1.83 M-2.12 -1.83 C-1.57 -1.35, -1.02 -0.88, 0 0 M-2.12 -1.83 C-1.28 -1.1, -0.43 -0.37, 0 0" stroke="transparent" stroke-width="4" fill="none"></path></g></g><mask></mask><g stroke-linecap="round"><g transform="translate(23.359061188667965 113.34336597616623) rotate(0 26.75623056839936 -0.8470371791294724)"><path d="M0 0 C20.87 -1.87, 39.29 -1, 53.51 -1.69 M0 0 C11.14 -0.52, 22.41 -0.33, 53.51 -1.69" stroke="#000" stroke-width="4" fill="none"></path></g></g><mask></mask><g stroke-linecap="round"><g transform="translate(34.72429858660462 57.95230241021159) rotate(178.40408853739658 13.643640053455101 9.398821463857573)" fill-rule="evenodd"><path d="M0.12 0.43 L13.33 19.01 L28.28 -0.1 L-0.59 0.42" stroke="none" stroke-width="0" fill="#fff" fill-rule="evenodd"></path><path d="M0 0 C3.55 5.88, 8.21 11, 12.6 19.08 M0 0 C3.9 5.23, 7.9 11.39, 12.6 19.08 M12.6 19.08 C17.2 12.36, 22.2 6.65, 27.29 -0.28 M12.6 19.08 C16.78 13.31, 21.87 7.04, 27.29 -0.28 M27.29 -0.28 C17.57 0.75, 9.29 -0.85, 0 0 M27.29 -0.28 C17.61 -0.06, 7.23 0.43, 0 0 M0 0 C0 0, 0 0, 0 0 M0 0 C0 0, 0 0, 0 0" stroke="#000" stroke-width="4" fill="none"></path></g></g><mask></mask><g stroke-linecap="round" transform="translate(43.54727673254001 75.47789846446163) rotate(178.40408853739658 6.110794025683958 12.606088547589493)"><path d="M0.43 0.73 L12.15 0.99 L12.41 24.62 L0.42 24.71" stroke="none" stroke-width="0" fill="#fff"></path><path d="M0 0 C4.52 0.22, 8.56 0, 12.22 0 M0 0 C4.28 0.23, 9.16 0.08, 12.22 0 M12.22 0 C11.88 8.53, 12.56 17.21, 12.22 25.21 M12.22 0 C12.35 6.41, 11.97 12.54, 12.22 25.21 M12.22 25.21 C8.87 25.76, 3.97 25.59, 0 25.21 M12.22 25.21 C8.97 25.12, 5.89 25.45, 0 25.21 M0 25.21 C0.72 20.27, -0.71 14.28, 0 0 M0 25.21 C0.11 19.78, -0.62 15.12, 0 0" stroke="#000" stroke-width="4" fill="none"></path></g><g stroke-linecap="round" transform="translate(46.19264969118831 69.10366851145926) rotate(178.40408853739658 2.91383042956204 7.443011454908607)"><path d="M0 0 L5.83 0 L5.83 14.89 L0 14.89" stroke="none" stroke-width="0" fill="#fff"></path><path d="M0 0 C2.1 0, 4.2 0, 5.83 0 M0 0 C1.46 0, 2.92 0, 5.83 0 M5.83 0 C5.83 4.42, 5.83 8.84, 5.83 14.89 M5.83 0 C5.83 4.38, 5.83 8.77, 5.83 14.89 M5.83 14.89 C3.74 14.89, 1.64 14.89, 0 14.89 M5.83 14.89 C3.98 14.89, 2.14 14.89, 0 14.89 M0 14.89 C0 11.34, 0 7.79, 0 0 M0 14.89 C0 9.03, 0 3.18, 0 0" stroke="#ff00" stroke-width="4" fill="none"></path></g><g transform="translate(15.956312269210684 141.99215648619628) rotate(0 33 12.5)"><text x="0" y="0" font-family="Virgil, Segoe UI Emoji" font-size="20px" fill="#000" text-anchor="start" style="white-space: pre;" direction="ltr" dominant-baseline="text-before-edge">Upload</text></g></svg>