<svg version="1.1" xmlns="http://www.w3.org/2000/svg" viewBox="0 0 385.2427090069317 159.07746198235526" width="385.2427090069317" height="159.07746198235526">
  <!-- svg-source:excalidraw -->
  
  <defs>
    
    
  </defs>
  <g stroke-linecap="round" transform="translate(48.35379817137448 94.01991366616085) rotate(0 144.38766479492188 24.022499084472656)"><path d="M0 0 C0 0, 0 0, 0 0 M0 0 C0 0, 0 0, 0 0 M0.13 12.04 C2.67 8.55, 8 1.93, 10.63 -0.03 M0.13 12.04 C3.85 7.79, 6.6 3.56, 10.63 -0.03 M0.27 24.08 C2.9 17.79, 9.64 12.57, 21.26 -0.07 M0.27 24.08 C6.17 18.96, 9.23 13.4, 21.26 -0.07 M-0.26 36.88 C11.55 24.19, 26.97 8.2, 31.89 -0.1 M-0.26 36.88 C10.32 24.55, 22.44 11.11, 31.89 -0.1 M0.53 48.16 C12.52 34.77, 23.25 23.74, 42.52 -0.14 M0.53 48.16 C14.93 31.19, 28.54 14.42, 42.52 -0.14 M11.16 48.13 C21.85 33.61, 36.95 22.59, 53.15 -0.17 M11.16 48.13 C21.22 36.2, 31.52 22.99, 53.15 -0.17 M21.79 48.09 C36.37 31.71, 45.64 18.19, 63.78 -0.21 M21.79 48.09 C33.05 34.83, 43.79 22.65, 63.78 -0.21 M32.42 48.06 C42.27 38.46, 50.71 27.21, 74.41 -0.24 M32.42 48.06 C45.15 31.44, 58.82 16.8, 74.41 -0.24 M43.05 48.03 C54.32 34.18, 67.15 20.42, 85.04 -0.28 M43.05 48.03 C58.01 30.33, 72.9 12.16, 85.04 -0.28 M53.68 47.99 C64.12 36.05, 75.51 23.92, 95.67 -0.31 M53.68 47.99 C65.59 34.44, 78.02 20.81, 95.67 -0.31 M63.66 48.71 C74.43 35.4, 84.64 20.38, 106.3 -0.34 M63.66 48.71 C79.86 30.39, 94.52 13.98, 106.3 -0.34 M74.29 48.68 C89.98 31.79, 106.11 12.11, 116.27 0.38 M74.29 48.68 C83.79 37.83, 94.07 26.36, 116.27 0.38 M84.92 48.64 C93.23 35.14, 105.18 24.99, 126.91 0.34 M84.92 48.64 C99.7 30.12, 116.32 12.9, 126.91 0.34 M95.55 48.61 C106.97 36.9, 117.72 26.69, 137.54 0.31 M95.55 48.61 C103.51 38.23, 112.27 27.6, 137.54 0.31 M106.18 48.57 C120.34 33.14, 132.58 16.82, 148.17 0.27 M106.18 48.57 C119.88 32.53, 134.2 16.13, 148.17 0.27 M116.81 48.54 C134.38 31.48, 147.82 12.11, 158.8 0.24 M116.81 48.54 C133.1 30.21, 148.95 13.03, 158.8 0.24 M127.44 48.5 C145.14 28.31, 159.71 9.74, 169.43 0.2 M127.44 48.5 C141.04 32.52, 155.94 13.78, 169.43 0.2 M138.07 48.47 C146.12 36.72, 154.82 30.3, 180.06 0.17 M138.07 48.47 C147.95 37.15, 158.12 25.76, 180.06 0.17 M148.7 48.44 C156.73 39.36, 165.56 27.74, 190.69 0.13 M148.7 48.44 C160 34.19, 173.25 21.01, 190.69 0.13 M159.33 48.4 C170.62 38.99, 178.16 27.3, 201.32 0.1 M159.33 48.4 C170.63 34.61, 183.01 22.87, 201.32 0.1 M169.96 48.37 C189.03 28.4, 201.92 9.23, 211.95 0.06 M169.96 48.37 C181.05 37.52, 189.9 24.79, 211.95 0.06 M180.59 48.33 C190.1 37.48, 202.18 23.1, 222.58 0.03 M180.59 48.33 C190.12 37.94, 199.87 26.98, 222.58 0.03 M191.22 48.3 C206.6 31.55, 223.48 13.45, 233.21 0 M191.22 48.3 C202.82 34.63, 213.91 20.68, 233.21 0 M201.85 48.26 C214.62 32.69, 231.97 16.57, 243.84 -0.04 M201.85 48.26 C213.27 35.13, 223.74 24.13, 243.84 -0.04 M212.48 48.23 C225.74 30.02, 240.64 15.76, 254.47 -0.07 M212.48 48.23 C223.66 34.81, 234.77 22.72, 254.47 -0.07 M223.11 48.19 C232.94 34, 243.25 21.21, 265.1 -0.11 M223.11 48.19 C232.15 38.08, 240.24 26.77, 265.1 -0.11 M233.74 48.16 C243.95 36.15, 254.81 22.85, 275.73 -0.14 M233.74 48.16 C243.7 37.21, 254.08 25.54, 275.73 -0.14 M244.37 48.12 C256.03 32.74, 267.2 20.44, 286.36 -0.18 M244.37 48.12 C257.85 33.58, 270.89 16.94, 286.36 -0.18 M255 48.09 C264.45 37.9, 270.09 31.16, 289.11 8.85 M255 48.09 C264.96 37.52, 273.46 28.24, 289.11 8.85 M265.63 48.06 C273 39.72, 282.79 30.14, 288.59 21.64 M265.63 48.06 C272.49 40.49, 279.79 33.22, 288.59 21.64 M276.26 48.02 C277.68 44.43, 283.97 40.67, 288.72 33.68 M276.26 48.02 C279.97 43.49, 283.85 39.77, 288.72 33.68 M286.89 47.99 C287.04 47.66, 287.48 47.02, 288.86 45.72 M286.89 47.99 C287.22 47.37, 287.93 47.06, 288.86 45.72" stroke="#fa5252" stroke-width="1" fill="none"></path><path d="M0 0 C81.37 -0.44, 159.23 1.78, 288.78 0 M0 0 C57.84 -0.52, 116.62 -0.57, 288.78 0 M288.78 0 C288.59 13.48, 287.57 31.1, 288.78 48.04 M288.78 0 C288.43 9.93, 289.3 20.95, 288.78 48.04 M288.78 48.04 C212.48 48.22, 137.66 47.18, 0 48.04 M288.78 48.04 C179.79 46.33, 70.81 47.37, 0 48.04 M0 48.04 C0.87 34.29, 1.52 19.37, 0 0 M0 48.04 C0.45 34.24, -0.02 19.36, 0 0" stroke="#000000" stroke-width="2" fill="none"></path></g><g stroke-linecap="round"><g transform="translate(292.37548472532933 16.71531771889522) rotate(0 43.42950439453125 14.269515991210938)" fill-rule="evenodd"><path d="M-0.24 -9.48 C-0.24 -9.48, -0.24 -9.48, -0.24 -9.48 M-0.24 -9.48 C-0.24 -9.48, -0.24 -9.48, -0.24 -9.48 M1.86 0.3 C3.98 -2.66, 5.57 -3.08, 10.39 -9.52 M1.86 0.3 C4.25 -2.68, 7.33 -5.48, 10.39 -9.52 M12.49 0.26 C14.25 -1.55, 17.85 -4.32, 21.02 -9.55 M12.49 0.26 C14.3 -2.73, 16.66 -4.83, 21.02 -9.55 M23.12 0.23 C25.15 -1.67, 26.43 -3.63, 31.65 -9.58 M23.12 0.23 C26.49 -3.01, 28.44 -5.53, 31.65 -9.58 M33.75 0.19 C35.32 -3.95, 39.73 -7.07, 42.28 -9.62 M33.75 0.19 C37.06 -3.24, 40.77 -7.4, 42.28 -9.62 M44.39 0.16 C47.67 -3.47, 50.12 -7.58, 52.91 -9.65 M44.39 0.16 C46.77 -2.35, 49.06 -5.87, 52.91 -9.65 M45.17 11.44 C51.13 4.54, 58.69 0.04, 63.54 -9.69 M45.17 11.44 C49.31 7.57, 53.38 1.86, 63.54 -9.69 M45.31 23.48 C47.89 22.38, 47.83 20.24, 52.52 15.18 M45.31 23.48 C47.88 20, 50.72 17.26, 52.52 15.18 M52.52 15.18 C58.26 6.88, 64.93 2.93, 74.17 -9.72 M52.52 15.18 C56.84 10.02, 62.12 4.9, 74.17 -9.72 M45.44 35.53 C47.88 31.34, 53 29.72, 59.22 19.68 M45.44 35.53 C49.06 32.81, 52.51 28.47, 59.22 19.68 M78.9 -2.96 C81.26 -6.23, 83.86 -7.67, 84.8 -9.76 M78.9 -2.96 C80.37 -5.4, 81.9 -6.91, 84.8 -9.76 M53.45 38.51 C56.73 35.91, 59.78 30.76, 65.91 24.17 M53.45 38.51 C55.75 36, 57.77 33.44, 65.91 24.17 M64.08 38.48 C65.02 36.59, 67.6 34.28, 72.61 28.66 M64.08 38.48 C67.73 35.08, 69.76 31.01, 72.61 28.66 M74.71 38.44 C76.22 36.76, 77.73 34.12, 79.3 33.16 M74.71 38.44 C76.49 36.95, 78.23 34.54, 79.3 33.16 M85.34 38.41 C85.46 38.12, 85.73 37.91, 85.99 37.65 M85.34 38.41 C85.5 38.18, 85.68 38, 85.99 37.65" stroke="#fa5252" stroke-width="1" fill="none"></path><path d="M0 0 C10.77 1.84, 22.2 -1.65, 44.75 0 M0 0 C14.8 -0.22, 28.15 0.27, 44.75 0 M44.75 0 C43.43 10.09, 43.1 18.55, 44.75 38.29 M44.75 0 C44.54 8.73, 44.06 18.27, 44.75 38.29 M44.75 38.29 C56.63 37.35, 70.53 36.83, 86.7 38.29 M44.75 38.29 C55.08 39.16, 65.71 38.4, 86.7 38.29 M86.7 38.29 C75.85 28.69, 62.33 19.8, 52.32 14.58 M86.7 38.29 C76.14 31.83, 65.5 25.54, 52.32 14.58 M52.32 14.58 C61.99 7.77, 71.83 2.22, 86.86 -9.24 M52.32 14.58 C61.66 7.4, 70.29 2.67, 86.86 -9.24 M86.86 -9.24 C86.89 -9.36, 86.82 -9.46, 86.86 -9.75 M86.86 -9.24 C86.86 -9.44, 86.85 -9.62, 86.86 -9.75 M86.86 -9.75 C55.63 -9.84, 25.43 -11.88, 0 -9.75 M86.86 -9.75 C69.96 -9.96, 52.52 -8.06, 0 -9.75 M0 -9.75 C0.75 -6.83, 0.1 -4.95, 0 0 M0 -9.75 C0.14 -7.02, -0.29 -5.12, 0 0 M0 0 C0 0, 0 0, 0 0 M0 0 C0 0, 0 0, 0 0 M0 0 C0 0, 0 0, 0 0 M0 0 C0 0, 0 0, 0 0" stroke="#000000" stroke-width="2" fill="none"></path></g></g><mask></mask><g stroke-linecap="round"><g transform="translate(292.37548472532933 6.962326996238971) rotate(0 22.375 4.876495361328125)"><path d="M0 0 C9.17 1.06, 20.49 4.03, 44.75 9.75 M0 0 C12.17 2.78, 23.84 5.29, 44.75 9.75" stroke="#000000" stroke-width="2" fill="none"></path></g></g><mask></mask><g stroke-linecap="round"><g transform="translate(92.86742808470456 142.08830355873897) rotate(0 -43.42950439453125 -14.269515991210938)" fill-rule="evenodd"><path d="M-86.71 -38.28 C-86.71 -38.28, -86.71 -38.28, -86.71 -38.28 M-86.71 -38.28 C-86.71 -38.28, -86.71 -38.28, -86.71 -38.28 M-80.02 -33.78 C-79.05 -35.21, -78.81 -36.18, -76.08 -38.31 M-80.02 -33.78 C-78.92 -35.36, -77.53 -36.72, -76.08 -38.31 M-73.33 -29.29 C-71.04 -32.81, -67.97 -36.61, -65.45 -38.35 M-73.33 -29.29 C-72.02 -31.46, -69.66 -33.35, -65.45 -38.35 M-66.63 -24.8 C-62.49 -28.58, -59.16 -31.56, -54.82 -38.38 M-66.63 -24.8 C-63.08 -29.01, -59.7 -33.58, -54.82 -38.38 M-86.18 9.89 C-86.18 9.89, -86.18 9.89, -86.18 9.89 M-86.18 9.89 C-86.18 9.89, -86.18 9.89, -86.18 9.89 M-59.94 -20.3 C-54.99 -27.11, -48.64 -32.24, -44.19 -38.42 M-59.94 -20.3 C-53.9 -27.84, -49.23 -33.53, -44.19 -38.42 M-75.55 9.85 C-72.61 2.88, -67.42 -1.14, -59.8 -8.26 M-75.55 9.85 C-69.67 3.16, -62.87 -3.89, -59.8 -8.26 M-53.24 -15.81 C-48.95 -20.09, -46.69 -23.77, -44.72 -25.62 M-53.24 -15.81 C-51.56 -17.67, -49.62 -20.14, -44.72 -25.62 M-64.92 9.82 C-62.46 4.06, -56.2 -0.91, -44.58 -13.58 M-64.92 9.82 C-60.01 4, -53.02 -3.88, -44.58 -13.58 M-54.29 9.78 C-52.78 7.64, -49.5 4.46, -44.45 -1.54 M-54.29 9.78 C-49.9 6.01, -47.23 1.05, -44.45 -1.54 M-44.32 10.5 C-42.5 6.94, -39.04 4.85, -35.13 -0.06 M-44.32 10.5 C-42.39 8.17, -41.16 6.07, -35.13 -0.06 M-33.69 10.47 C-31.51 6.15, -26.6 2.06, -24.5 -0.1 M-33.69 10.47 C-31.05 6.46, -26.87 2.67, -24.5 -0.1 M-23.06 10.43 C-19.24 6.25, -17.56 4.75, -13.87 -0.13 M-23.06 10.43 C-19.68 7.71, -16.6 3.73, -13.87 -0.13 M-12.43 10.4 C-8.74 6.33, -6.99 4.19, -3.24 -0.17 M-12.43 10.4 C-8.65 7.08, -5.64 1.67, -3.24 -0.17 M-1.8 10.36 C-1.26 10.02, -0.4 8.96, 0.17 8.1 M-1.8 10.36 C-1.24 9.64, -0.54 9.09, 0.17 8.1" stroke="#fa5252" stroke-width="1" fill="none"></path><path d="M0 0 C-16.53 -0.92, -34.21 1.08, -44.75 0 M0 0 C-12.65 -0.07, -24.27 -0.57, -44.75 0 M-44.75 0 C-45.79 -16.33, -45.73 -29.35, -44.75 -38.29 M-44.75 0 C-44.71 -11.3, -44.33 -21.64, -44.75 -38.29 M-44.75 -38.29 C-56.57 -38.81, -68.21 -39.02, -86.7 -38.29 M-44.75 -38.29 C-58.91 -38.03, -74.14 -37.71, -86.7 -38.29 M-86.7 -38.29 C-78.58 -32.24, -68.88 -27.51, -52.32 -14.58 M-86.7 -38.29 C-75.73 -30.47, -63.47 -23.21, -52.32 -14.58 M-52.32 -14.58 C-64.17 -4.79, -75.06 1.78, -86.86 9.24 M-52.32 -14.58 C-60.15 -9.25, -67.6 -3.83, -86.86 9.24 M-86.86 9.24 C-86.84 9.35, -86.85 9.54, -86.86 9.75 M-86.86 9.24 C-86.85 9.36, -86.88 9.45, -86.86 9.75 M-86.86 9.75 C-59.99 11.35, -27.49 11.45, 0 9.75 M-86.86 9.75 C-69.66 8.07, -51.6 9.77, 0 9.75 M0 9.75 C-0.53 6.2, -0.54 2.74, 0 0 M0 9.75 C0.12 6.24, 0.34 2.42, 0 0 M0 0 C0 0, 0 0, 0 0 M0 0 C0 0, 0 0, 0 0 M0 0 C0 0, 0 0, 0 0 M0 0 C0 0, 0 0, 0 0" stroke="#000000" stroke-width="2" fill="none"></path></g></g><mask></mask><g stroke-linecap="round"><g transform="translate(92.86742808470456 151.84129428139522) rotate(0 -22.375 -4.876495361328125)"><path d="M0 0 C-9.31 -1.26, -18.38 -3.92, -44.75 -9.75 M0 0 C-14.29 -3.4, -27.59 -6.54, -44.75 -9.75" stroke="#000000" stroke-width="2" fill="none"></path></g></g><mask></mask><g stroke-linecap="round" transform="translate(48.35379817137448 16.714920990379596) rotate(0 144.38766479492188 24.022499084472656)"><path d="M0 0 C0 0, 0 0, 0 0 M0 0 C0 0, 0 0, 0 0 M0.13 12.04 C2.98 6.82, 7.65 4.78, 10.63 -0.03 M0.13 12.04 C1.96 8.83, 3.95 7.18, 10.63 -0.03 M0.27 24.08 C9.27 16.94, 14.78 4.05, 21.26 -0.07 M0.27 24.08 C5.28 18.54, 9.59 12.44, 21.26 -0.07 M-0.26 36.88 C6.33 26.77, 15.71 18.69, 31.89 -0.1 M-0.26 36.88 C11.72 23.99, 22.65 10.56, 31.89 -0.1 M0.53 48.16 C11.9 34.44, 24.86 19.31, 42.52 -0.14 M0.53 48.16 C11.55 35.92, 21.31 25.66, 42.52 -0.14 M11.16 48.13 C21.73 35.15, 34.84 22.28, 53.15 -0.17 M11.16 48.13 C27.94 29.19, 43.79 11.03, 53.15 -0.17 M21.79 48.09 C34.36 33.09, 43.3 19.66, 63.78 -0.21 M21.79 48.09 C35.39 31.72, 50.9 15.17, 63.78 -0.21 M32.42 48.06 C42.86 36.98, 53.64 24.89, 74.41 -0.24 M32.42 48.06 C43.31 36.91, 53.56 23.88, 74.41 -0.24 M43.05 48.03 C53.51 33.87, 66.66 19.4, 85.04 -0.28 M43.05 48.03 C55.14 33.96, 67.19 20.63, 85.04 -0.28 M53.68 47.99 C67.18 31.26, 82.91 16.25, 95.67 -0.31 M53.68 47.99 C64.76 35.15, 76.61 21.72, 95.67 -0.31 M63.66 48.71 C80.18 32.57, 94.36 15.01, 106.3 -0.34 M63.66 48.71 C75.66 33.97, 87.66 20.41, 106.3 -0.34 M74.29 48.68 C85.56 35.78, 93.87 25.51, 116.27 0.38 M74.29 48.68 C83.08 39.7, 92.72 28.38, 116.27 0.38 M84.92 48.64 C96.02 37.4, 103.41 27.12, 126.91 0.34 M84.92 48.64 C100.77 30.16, 115.68 14.55, 126.91 0.34 M95.55 48.61 C105.33 35.97, 117.78 22.13, 137.54 0.31 M95.55 48.61 C109.34 32.34, 125.22 14.32, 137.54 0.31 M106.18 48.57 C117.6 36.76, 129.08 20.35, 148.17 0.27 M106.18 48.57 C122.05 30.67, 139.34 10.36, 148.17 0.27 M116.81 48.54 C134.03 32.36, 147.94 14.87, 158.8 0.24 M116.81 48.54 C132.7 30.2, 150.34 10.79, 158.8 0.24 M127.44 48.5 C134.23 36.31, 145.32 27.58, 169.43 0.2 M127.44 48.5 C140.11 34.89, 151.06 21.33, 169.43 0.2 M138.07 48.47 C150.67 33.46, 163.15 19.79, 180.06 0.17 M138.07 48.47 C148.59 36.4, 159.06 24.96, 180.06 0.17 M148.7 48.44 C159.49 34.69, 168.11 25.49, 190.69 0.13 M148.7 48.44 C164.62 29.82, 179.5 12.17, 190.69 0.13 M159.33 48.4 C171.99 37.82, 179.29 24.5, 201.32 0.1 M159.33 48.4 C175.83 29.19, 192.94 10.6, 201.32 0.1 M169.96 48.37 C186.28 28.15, 204.84 9.31, 211.95 0.06 M169.96 48.37 C180.67 33.9, 193.24 21.71, 211.95 0.06 M180.59 48.33 C194.63 34.35, 206.22 18.38, 222.58 0.03 M180.59 48.33 C193.48 32.68, 205.9 17.26, 222.58 0.03 M191.22 48.3 C200.43 36.77, 211.36 25.52, 233.21 0 M191.22 48.3 C200.61 36.85, 209.55 26.34, 233.21 0 M201.85 48.26 C218.69 31.85, 231.4 13.11, 243.84 -0.04 M201.85 48.26 C212.46 36.65, 221.26 25.95, 243.84 -0.04 M212.48 48.23 C224.11 36.31, 233.99 24.89, 254.47 -0.07 M212.48 48.23 C222.56 35.76, 233.07 25.41, 254.47 -0.07 M223.11 48.19 C233.63 34.15, 246.12 21.17, 265.1 -0.11 M223.11 48.19 C233.46 35.89, 243.85 23.99, 265.1 -0.11 M233.74 48.16 C246.52 33.71, 257.53 20.81, 275.73 -0.14 M233.74 48.16 C246.21 34.26, 257.88 19.74, 275.73 -0.14 M244.37 48.12 C254.14 33.6, 265.88 22.69, 286.36 -0.18 M244.37 48.12 C260.4 30.67, 273.67 14.59, 286.36 -0.18 M255 48.09 C270.85 31.2, 283.78 14.96, 293.05 4.32 M255 48.09 C265.35 35.47, 275.12 22.9, 293.05 4.32 M265.63 48.06 C274.46 37.25, 283.37 28.86, 293.18 16.36 M265.63 48.06 C271.48 41.04, 277.22 33.31, 293.18 16.36 M276.26 48.02 C282.22 41.12, 287.68 37.72, 293.32 28.4 M276.26 48.02 C279.91 43.42, 283.42 39.58, 293.32 28.4 M286.89 47.99 C289.25 46.15, 289.31 44.22, 293.45 40.44 M286.89 47.99 C288.34 46.09, 290.24 44.75, 293.45 40.44" stroke="#fa5252" stroke-width="1" fill="none"></path><path d="M0 0 C79.12 -1.56, 159.52 -2.87, 288.78 0 M0 0 C83.64 0.77, 166.67 0.87, 288.78 0 M288.78 0 C288.09 9.88, 289.33 21.09, 288.78 48.04 M288.78 0 C288.49 12.57, 288.23 23.11, 288.78 48.04 M288.78 48.04 C206.28 47.35, 121.89 48.36, 0 48.04 M288.78 48.04 C190.94 49.57, 93.38 49.51, 0 48.04 M0 48.04 C0.24 31.53, 1.61 18.66, 0 0 M0 48.04 C-0.21 31.57, 0.48 15.27, 0 0" stroke="#000000" stroke-width="2" fill="none"></path></g><g stroke-linecap="round"><g transform="translate(48.79963283171912 64.38859416450441) rotate(0 144.26033266129025 14.80846774193546)"><path d="M0 0 C41.24 9.41, 81.8 20.92, 109.26 29.52 M0 0 C27.01 7.19, 51.18 14.2, 109.26 29.52 M109.26 29.52 C165.58 30.02, 219.09 30.82, 288.52 29.62 M109.26 29.52 C160.24 27.68, 212.47 27.32, 288.52 29.62 M288.52 29.62 C257.81 22.48, 229.04 13.33, 180.33 0.6 M288.52 29.62 C247.86 18.85, 208.78 8.86, 180.33 0.6 M180.33 0.6 C136.02 -1.45, 88.59 0.34, 0 0 M180.33 0.6 C129.77 -0.37, 78.3 -0.43, 0 0" stroke="#000000" stroke-width="2" fill="none"></path></g></g><mask></mask></svg>