<svg version="1.1" xmlns="http://www.w3.org/2000/svg" viewBox="0 0 109.67525151090831 162.58366416040417" width="109.67525151090831" height="162.58366416040417">
  <!-- svg-source:excalidraw -->
  
  <defs>
    
    
  </defs>
  <g transform="translate(18.493370368148362 131.58366416040417) rotate(0 35.5 12.5)"><text x="0" y="0" font-family="Virgil, Segoe UI Emoji" font-size="20px" fill="#000" text-anchor="start" style="white-space: pre;" direction="ltr" dominant-baseline="text-before-edge">Flutter</text></g><g stroke-linecap="round" transform="translate(6 6) rotate(0 43.92912551591962 59.86657599683065)"><path d="M0.44 1.06 L89.84 1.96 L87.48 120.37 L1.24 118.41" stroke="none" stroke-width="0" fill="#edf2f9"></path><path d="M0 0 C31.49 0.71, 65.73 0.12, 87.86 0 M0 0 C19.9 0, 37.56 0.08, 87.86 0 M87.86 0 C87.01 32.75, 87.92 67.76, 87.86 119.73 M87.86 0 C86.89 30.35, 87.5 62.06, 87.86 119.73 M87.86 119.73 C55.6 120.66, 25.88 120.41, 0 119.73 M87.86 119.73 C55.59 120.57, 24.16 119.36, 0 119.73 M0 119.73 C2.11 84.1, 0.14 50.12, 0 0 M0 119.73 C0.02 92.28, -0.55 63.9, 0 0" stroke="#000000" stroke-width="4" fill="none"></path></g><g stroke-linecap="round" transform="translate(21.666475297914985 20.4825232163912) rotate(0 41.00438810649666 15)"><path d="M1.06 1.98 L83.97 -0.38 L82.64 31.24 L-1.32 30.72" stroke="none" stroke-width="0" fill="#fff"></path><path d="M0 0 C32.79 0.2, 64.23 -0.97, 82.01 0 M0 0 C17.83 -1.44, 35.71 -0.72, 82.01 0 M82.01 0 C80.61 8.18, 81.62 14.28, 82.01 30 M82.01 0 C80.86 8.44, 81.34 17.82, 82.01 30 M82.01 30 C53.19 28.88, 23.4 30.63, 0 30 M82.01 30 C61.58 29.7, 39.72 29.56, 0 30 M0 30 C-1.07 22.09, -0.4 13.9, 0 0 M0 30 C1.01 19.36, 0.91 8.6, 0 0" stroke="#000000" stroke-width="4" fill="none"></path></g><g transform="translate(27.40967079726215 23.7696298767587) rotate(0 35.5 12.5)"><text x="0" y="0" font-family="Virgil, Segoe UI Emoji" font-size="20px" fill="#000000" text-anchor="start" style="white-space: pre;" direction="ltr" dominant-baseline="text-before-edge">Flutter</text></g><g stroke-linecap="round"><g transform="translate(53.372771417076365 71.67387022710341) rotate(0 -4.533676050014151 13.319731194509018)" fill-rule="evenodd"><path d="M0 0 L12.13 -0.28 L-15.91 26.92 L-21.2 21.26 L0 0" stroke="none" stroke-width="0" fill="#44d1fd" fill-rule="evenodd"></path><path d="M0 0 C2.73 -0.06, 5.46 -0.12, 12.13 -0.28 M0 0 C3.1 -0.07, 6.2 -0.14, 12.13 -0.28 M12.13 -0.28 C1.23 10.29, -9.66 20.86, -15.91 26.92 M12.13 -0.28 C1.34 10.19, -9.45 20.66, -15.91 26.92 M-15.91 26.92 C-17.89 24.79, -19.88 22.67, -21.2 21.26 M-15.91 26.92 C-17.56 25.15, -19.2 23.39, -21.2 21.26 M-21.2 21.26 C-12.75 12.79, -4.31 4.32, 0 0 M-21.2 21.26 C-16.54 16.58, -11.88 11.91, 0 0 M0 0 C0 0, 0 0, 0 0 M0 0 C0 0, 0 0, 0 0" stroke="#44d1fd" stroke-width="2" fill="none"></path></g></g><mask></mask><g stroke-linecap="round"><g transform="translate(41.32826328754595 102.92090385950564) rotate(0 12.034686412238898 5.6115017197791985)" fill-rule="evenodd"><path d="M0 0 L11.64 0.43 L24.07 11.22 L11.83 10.92 L0 0" stroke="none" stroke-width="0" fill="#065a9d" fill-rule="evenodd"></path><path d="M0 0 C2.95 0.11, 5.9 0.22, 11.64 0.43 M0 0 C4.16 0.16, 8.33 0.31, 11.64 0.43 M11.64 0.43 C16.06 4.27, 20.47 8.1, 24.07 11.22 M11.64 0.43 C14.34 2.78, 17.04 5.12, 24.07 11.22 M24.07 11.22 C21.32 11.16, 18.57 11.09, 11.83 10.92 M24.07 11.22 C19.94 11.12, 15.81 11.02, 11.83 10.92 M11.83 10.92 C9.37 8.66, 6.92 6.39, 0 0 M11.83 10.92 C8.3 7.66, 4.77 4.41, 0 0 M0 0 C0 0, 0 0, 0 0 M0 0 C0 0, 0 0, 0 0" stroke="#065a9d" stroke-width="2" fill="none"></path></g></g><mask></mask><g stroke-linecap="round"><g transform="translate(41.46279564121119 102.57802557877312) rotate(0 12.247543384573532 -5.475221544149463)" fill-rule="evenodd"><path d="M0 0 L11.79 -10.92 L24.5 -10.95 L11.46 -0.38 L0 0" stroke="none" stroke-width="0" fill="#41d0fd" fill-rule="evenodd"></path><path d="M0 0 C3.4 -3.14, 6.79 -6.29, 11.79 -10.92 M0 0 C4.51 -4.17, 9.02 -8.35, 11.79 -10.92 M11.79 -10.92 C16.27 -10.93, 20.75 -10.94, 24.5 -10.95 M11.79 -10.92 C14.46 -10.93, 17.13 -10.93, 24.5 -10.95 M24.5 -10.95 C20.04 -7.33, 15.58 -3.72, 11.46 -0.38 M24.5 -10.95 C19.9 -7.23, 15.31 -3.5, 11.46 -0.38 M11.46 -0.38 C8.43 -0.28, 5.39 -0.18, 0 0 M11.46 -0.38 C7.1 -0.23, 2.73 -0.09, 0 0 M0 0 C0 0, 0 0, 0 0 M0 0 C0 0, 0 0, 0 0" stroke="#41d0fd" stroke-width="2" fill="none"></path></g></g><mask></mask></svg>