<svg version="1.1" xmlns="http://www.w3.org/2000/svg" viewBox="0 0 288.21447426482916 55.80493864992883" width="288.21447426482916" height="55.80493864992883">
  <!-- svg-source:excalidraw -->
  
  <defs>
    
    
  </defs>
  <g stroke-linecap="round" transform="translate(6 6) rotate(0 138.10723713241458 21.902469324964414)"><path d="M0 0 C83.41 -1.2, 164.91 -0.24, 276.21 0 M0 0 C73.43 1.31, 145.93 0.71, 276.21 0 M276.21 0 C277.72 11.41, 276.18 22.28, 276.21 43.8 M276.21 0 C276.25 9.8, 276.28 21.33, 276.21 43.8 M276.21 43.8 C177.18 41.87, 76.41 41.47, 0 43.8 M276.21 43.8 C205.17 44.99, 134.24 44.33, 0 43.8 M0 43.8 C-1.32 25.55, 1.62 10.33, 0 0 M0 43.8 C-0.19 32.39, -1.07 20.68, 0 0" stroke="#000000" stroke-width="2" fill="none"></path></g><g stroke-linecap="round" transform="translate(15.702707886323765 14.214436441436817) rotate(0 7.858672846528464 8.215885248643417)"><path d="M9.79 0.68 C11.4 1.03, 12.99 2.27, 13.92 3.58 C14.85 4.9, 15.43 6.94, 15.37 8.59 C15.32 10.23, 14.72 12.19, 13.59 13.47 C12.46 14.74, 10.22 15.95, 8.61 16.23 C7 16.51, 5.32 16.06, 3.94 15.16 C2.56 14.27, 0.83 12.57, 0.35 10.84 C-0.13 9.11, 0.48 6.43, 1.05 4.78 C1.62 3.12, 2.39 1.65, 3.79 0.9 C5.19 0.15, 8.36 0.32, 9.46 0.29 C10.56 0.26, 10.36 0.61, 10.41 0.71 M6.15 0.7 C7.79 0.48, 10.84 0.66, 12.29 1.48 C13.75 2.3, 14.31 3.96, 14.9 5.59 C15.49 7.22, 16.43 9.5, 15.83 11.23 C15.22 12.97, 12.93 15.27, 11.28 16.01 C9.63 16.75, 7.56 16.04, 5.91 15.65 C4.26 15.26, 2.31 14.86, 1.39 13.65 C0.46 12.45, 0.2 10.22, 0.36 8.43 C0.53 6.64, 1.25 4.17, 2.37 2.89 C3.49 1.62, 6.41 1.32, 7.1 0.78 C7.8 0.24, 6.5 -0.27, 6.53 -0.33" stroke="none" stroke-width="0" fill="#fff"></path><path d="M8.47 0.24 C9.93 0.27, 11.62 1.25, 12.85 2.42 C14.09 3.59, 15.58 5.57, 15.88 7.25 C16.18 8.93, 15.69 11.02, 14.67 12.49 C13.64 13.95, 11.33 15.45, 9.72 16.05 C8.1 16.65, 6.48 16.74, 4.98 16.11 C3.47 15.48, 1.43 13.89, 0.7 12.26 C-0.02 10.63, 0.26 8.05, 0.63 6.35 C1 4.66, 1.6 3.19, 2.95 2.07 C4.29 0.96, 7.75 -0.02, 8.71 -0.34 C9.67 -0.66, 8.75 -0.06, 8.7 0.16 M9.88 -0.03 C11.51 0.25, 12.62 2.06, 13.52 3.36 C14.41 4.67, 15.25 6.16, 15.25 7.78 C15.25 9.41, 14.56 11.77, 13.52 13.13 C12.48 14.48, 10.7 15.53, 8.99 15.94 C7.28 16.35, 4.63 16.31, 3.26 15.59 C1.88 14.87, 1.18 13.29, 0.73 11.6 C0.29 9.91, 0.15 7.24, 0.6 5.44 C1.05 3.64, 2.06 1.73, 3.45 0.8 C4.84 -0.13, 8.06 -0.16, 8.93 -0.12 C9.8 -0.09, 8.6 0.91, 8.68 1.01" stroke="#000000" stroke-width="2" fill="none"></path></g><g stroke-linecap="round"><g transform="translate(28.866081273018608 27.583158774967956) rotate(0 5.000973629609007 5.715398433838885)"><path d="M0.14 0.51 C1.77 2.48, 8.25 9.82, 9.94 11.57 M-0.46 0.29 C1.08 2.12, 7.73 8.83, 9.47 10.67" stroke="#000000" stroke-width="2" fill="none"></path></g></g><mask></mask><g transform="translate(60.00993476966016 13.794015095620352) rotate(0 38.113402139727214 14.221418708853463)"><text x="0" y="0" font-family="Virgil, Segoe UI Emoji" font-size="22.754269934165507px" fill="#343a40" text-anchor="start" style="white-space: pre;" direction="ltr" dominant-baseline="text-before-edge">Search</text></g></svg>