<svg version="1.1" xmlns="http://www.w3.org/2000/svg" viewBox="0 0 109.67525151090831 166.69704274252854" width="109.67525151090831" height="166.69704274252854">
  <!-- svg-source:excalidraw -->
  
  <defs>
    
    
  </defs>
  <g transform="translate(30.31036441663855 135.69704274252854) rotate(0 17.5 12.5)"><text x="0" y="0" font-family="Virgil, Segoe UI Emoji" font-size="20px" fill="#000" text-anchor="start" style="white-space: pre;" direction="ltr" dominant-baseline="text-before-edge">FLV</text></g><g stroke-linecap="round" transform="translate(6 6) rotate(0 43.92912551591962 59.866575996830676)"><path d="M0.38 -1.34 L85.94 -0.63 L87.65 120.05 L1.51 118.95" stroke="none" stroke-width="0" fill="#f48284"></path><path d="M0 0 C33.43 2.62, 67.74 0.11, 87.86 0 M0 0 C24.26 0.75, 48.55 0.48, 87.86 0 M87.86 0 C90.59 33.3, 86.97 64.92, 87.86 119.73 M87.86 0 C88.15 44.99, 87.19 90.63, 87.86 119.73 M87.86 119.73 C62.34 120.83, 36.94 118.89, 0 119.73 M87.86 119.73 C56.98 120.65, 28.19 121.45, 0 119.73 M0 119.73 C1.63 90.37, -1.03 61.21, 0 0 M0 119.73 C1.37 78.1, 0.2 34.44, 0 0" stroke="#000000" stroke-width="4" fill="none"></path></g><g stroke-linecap="round" transform="translate(45.33931401090831 20.49211531006449) rotate(0 29.16796875 15)"><path d="M-1.34 -1.92 L57.7 -0.21 L58.65 31.51 L-0.79 30.78" stroke="none" stroke-width="0" fill="#fff"></path><path d="M0 0 C13.73 0.63, 23.08 -0.44, 58.34 0 M0 0 C19.37 0.06, 37.51 -0.27, 58.34 0 M58.34 0 C58.61 9.36, 57.37 23.76, 58.34 30 M58.34 0 C57.9 7.58, 58 15.32, 58.34 30 M58.34 30 C39.11 28.1, 16.57 30.61, 0 30 M58.34 30 C42.32 30.22, 27.04 29.09, 0 30 M0 30 C0.96 21.14, 1.89 16.93, 0 0 M0 30 C0.82 21.95, -0.67 14.7, 0 0" stroke="#000000" stroke-width="4" fill="none"></path></g><g transform="translate(54.629823331121315 24.914067223433676) rotate(0 17.5 12.5)"><text x="0" y="0" font-family="Virgil, Segoe UI Emoji" font-size="20px" fill="#000000" text-anchor="start" style="white-space: pre;" direction="ltr" dominant-baseline="text-before-edge">FLV</text></g><g stroke-linecap="round"><g transform="translate(68.80401435968997 70.36976968354907) rotate(0 -17.730312700947707 20.630098646570815)"><path d="M0 0 C-1.26 0.24, -5.31 -0.01, -7.56 1.47 C-9.8 2.95, -11.92 5.9, -13.46 8.87 C-15.01 11.84, -15.48 15.13, -16.8 19.29 C-18.13 23.44, -19.66 30.41, -21.42 33.79 C-23.17 37.16, -24.98 38.31, -27.32 39.55 C-29.66 40.8, -34.1 40.98, -35.46 41.26 M0 0 C-1.26 0.24, -5.31 -0.01, -7.56 1.47 C-9.8 2.95, -11.92 5.9, -13.46 8.87 C-15.01 11.84, -15.48 15.13, -16.8 19.29 C-18.13 23.44, -19.66 30.41, -21.42 33.79 C-23.17 37.16, -24.98 38.31, -27.32 39.55 C-29.66 40.8, -34.1 40.98, -35.46 41.26" stroke="#000" stroke-width="4" fill="none"></path></g></g><mask></mask><g stroke-linecap="round"><g transform="translate(53.42571791889168 89.94280021218424) rotate(0 3.597662237101872 -0.01862217779083153)"><path d="M0 0 C2.78 -0.01, 5.56 -0.03, 7.2 -0.04 M0 0 C1.46 -0.01, 2.92 -0.02, 7.2 -0.04" stroke="#000" stroke-width="4" fill="none"></path></g></g><mask></mask></svg>