<svg version="1.1" xmlns="http://www.w3.org/2000/svg" viewBox="0 0 1612 912" width="1612" height="912">
  <!-- svg-source:excalidraw -->
  
  <defs>
    
    
  </defs>
  <g stroke-linecap="round" transform="translate(6 6) rotate(0 800 450)"><path d="M0 0 L1600 0 L1600 900 L0 900" stroke="none" stroke-width="0" fill="#4c6ef5"></path><path d="M0 0 C375.47 0, 750.93 0, 1600 0 M0 0 C365.38 0, 730.77 0, 1600 0 M1600 0 C1600 231.99, 1600 463.98, 1600 900 M1600 0 C1600 342.28, 1600 684.56, 1600 900 M1600 900 C994.92 900, 389.84 900, 0 900 M1600 900 C1112.36 900, 624.72 900, 0 900 M0 900 C0 698.16, 0 496.33, 0 0 M0 900 C0 552.1, 0 204.19, 0 0" stroke="#000000" stroke-width="1" fill="none"></path></g><g transform="translate(92.57142857142935 47.994047619047876) rotate(0 107 10)"><text x="0" y="0" font-family="Virgil, Segoe UI Emoji" font-size="16px" fill="white" text-anchor="start" style="white-space: pre;" direction="ltr" dominant-baseline="text-before-edge">Awesome Team at Company</text></g><g transform="translate(1364.6547619047633 47.994047619047876) rotate(0 48 10)"><text x="0" y="0" font-family="Virgil, Segoe UI Emoji" font-size="16px" fill="white" text-anchor="start" style="white-space: pre;" direction="ltr" dominant-baseline="text-before-edge">2021-06-28</text></g><g transform="translate(277.58316114742956 342.64072836525656) rotate(0 507 71)"><text x="0" y="0" font-family="Virgil, Segoe UI Emoji" font-size="56.66666666666682px" fill="white" text-anchor="start" style="white-space: pre;" direction="ltr" dominant-baseline="text-before-edge">“Business has only two functions – </text><text x="0" y="71" font-family="Virgil, Segoe UI Emoji" font-size="56.66666666666682px" fill="white" text-anchor="start" style="white-space: pre;" direction="ltr" dominant-baseline="text-before-edge">marketing and innovation.”</text></g><g transform="translate(1044.2498278140956 574.3073950319235) rotate(0 147.5 22.5)"><text x="0" y="0" font-family="Virgil, Segoe UI Emoji" font-size="36px" fill="white" text-anchor="start" style="white-space: pre;" direction="ltr" dominant-baseline="text-before-edge">– Peter Drucker</text></g></svg>